<?xml version="1.0" encoding="utf-8"?>
<!-- Generator: Adobe Illustrator 15.1.0, SVG Export Plug-In . SVG Version: 6.00 Build 0)  -->
<!DOCTYPE svg PUBLIC "-//W3C//DTD SVG 1.1//EN" "http://www.w3.org/Graphics/SVG/1.1/DTD/svg11.dtd">
<svg version="1.1" id="Layer_2" xmlns="http://www.w3.org/2000/svg" xmlns:xlink="http://www.w3.org/1999/xlink" x="0px" y="0px"
	 width="492.064px" height="87.155px" viewBox="0 0 492.064 87.155" enable-background="new 0 0 492.064 87.155"
	 xml:space="preserve">
<path fill="#1E284B" d="M163.964,30.572h-3.613v-7.701c0-1.659-1.364-3.081-3.14-3.081c-1.659,0-2.964,1.422-2.964,3.081v7.701
	h-2.724c-1.364,0-2.549,1.127-2.549,2.607c0,1.364,1.185,2.428,2.549,2.428h2.724v19.849c0,1.66,1.305,3.082,2.964,3.082
	c1.776,0,3.14-1.422,3.14-3.082V35.607h3.613c1.364,0,2.549-1.064,2.549-2.428C166.513,31.699,165.328,30.572,163.964,30.572"/>
<path fill="#1E284B" d="M188.9,29.981c-2.902,0-7.227,1.422-8.769,4.798V18.31c0-1.663-1.302-3.085-2.961-3.085
	c-1.779,0-3.143,1.422-3.143,3.085v37.148c0,1.658,1.305,3.08,2.964,3.08c1.776,0,3.14-1.422,3.14-3.08V43.371
	c0-5.451,4.208-7.406,7.704-7.406c3.435,0,6.162,2.549,6.162,6.874v12.62c0,1.658,1.302,3.08,2.961,3.08
	c1.779,0,3.139-1.422,3.139-3.08V42.484C200.097,34.601,195.952,29.981,188.9,29.981"/>
<path fill="#1E284B" d="M232.021,46.025c-1.529-0.481-2.918,0.51-3.553,1.651c-1.266,2.282-2.439,3.825-5.136,4.89
	c-4.131,1.627-8.303,0.408-10.418-3.344l17.902-7.056c1.379-0.539,2.156-2.118,1.572-3.606c-3.324-7.792-10.789-10.581-17.95-7.759
	c-7.326,2.888-11.183,10.388-7.971,18.541c3.216,8.157,11.216,11.176,18.542,8.288c3.803-1.494,7.004-4.349,8.531-8.069
	C234.121,48.125,233.392,46.436,232.021,46.025 M216.393,35.76c3.854-1.521,7.685-0.357,9.824,3.449l-14.932,5.882
	C210.274,40.909,212.426,37.325,216.393,35.76"/>
<path fill="#1E284B" d="M272.734,29.981c-2.549,0-6.693,0.711-9.301,5.509c-1.543-3.496-4.33-5.509-8.711-5.509
	c-2.193,0-6.873,0.886-8.711,4.74v-1.364c0-1.659-1.303-3.081-2.961-3.081c-1.779,0-3.145,1.422-3.145,3.081v22.101
	c0,1.658,1.307,3.08,2.965,3.08c1.775,0,3.141-1.422,3.141-3.08V43.371c0-5.394,3.438-7.406,6.992-7.406
	c3.256,0,5.627,2.487,5.627,6.753v12.741c0,1.658,1.305,3.08,2.965,3.08c1.775,0,3.139-1.422,3.139-3.08V43.371
	c0-4.445,2.666-7.406,6.695-7.406c3.555,0,5.865,2.549,5.865,6.874v12.62c0,1.658,1.307,3.08,2.965,3.08
	c1.775,0,3.139-1.422,3.139-3.08V42.305C283.398,34.426,279.548,29.981,272.734,29.981"/>
<path fill="#1E284B" d="M315.785,46.025c-1.525-0.481-2.916,0.51-3.549,1.651c-1.264,2.282-2.438,3.825-5.141,4.89
	c-4.131,1.627-8.303,0.408-10.416-3.344l17.906-7.056c1.377-0.539,2.154-2.118,1.566-3.606c-3.324-7.792-10.785-10.581-17.945-7.759
	c-7.33,2.888-11.184,10.388-7.971,18.541c3.211,8.157,11.211,11.176,18.541,8.288c3.799-1.494,7.004-4.349,8.527-8.069
	C317.884,48.125,317.16,46.436,315.785,46.025 M300.158,35.76c3.857-1.521,7.689-0.357,9.822,3.449l-14.928,5.882
	C294.039,40.909,296.189,37.325,300.158,35.76"/>
<path fill="#1E284B" d="M338.726,29.981c-4.029,0-8.354,1.896-10.428,5.392V32.29c0-1.123-0.832-2.013-1.955-2.013
	c-1.127,0-1.959,0.89-1.959,2.013v37.625c0,1.125,0.832,2.016,1.959,2.016c1.123,0,1.955-0.891,1.955-2.016V53.74
	c2.074,3.498,6.398,5.093,10.428,5.093c7.879,0,14.162-5.508,14.162-14.278S346.605,29.981,338.726,29.981 M338.726,54.867
	c-4.977,0-10.428-3.497-10.428-10.312c0-6.812,4.797-10.604,10.428-10.604c5.746,0,10.191,4.441,10.191,10.604
	C348.917,50.896,344.472,54.867,338.726,54.867"/>
<path fill="#1E284B" d="M362.412,15.287c-1.127,0-1.953,0.886-1.953,2.013v39.224c0,1.127,0.826,2.014,1.953,2.014
	s1.955-0.887,1.955-2.014V17.3C364.367,16.173,363.539,15.287,362.412,15.287"/>
<path fill="#1E284B" d="M398.49,30.276c-1.125,0-1.953,0.89-1.953,2.013v2.844c-2.076-3.493-6.398-5.152-10.428-5.152
	c-7.883,0-14.162,5.567-14.162,14.337c0,8.769,6.279,14.514,14.162,14.514c4.029,0,8.352-1.834,10.428-5.331v3.024
	c0,1.127,0.828,2.012,1.953,2.012c1.127,0,1.955-0.885,1.955-2.012V32.29C400.445,31.167,399.617,30.276,398.49,30.276
	 M386.109,54.867c-5.75,0-10.191-4.386-10.191-10.548c0-6.341,4.441-10.367,10.191-10.367c4.977,0,10.428,3.552,10.428,10.367
	C396.537,51.132,391.734,54.867,386.109,54.867"/>
<path fill="#1E284B" d="M422.83,29.981c-3.201,0-7.467,1.539-9.186,5.152v-2.844c0-1.123-0.826-2.013-1.953-2.013
	s-1.955,0.89-1.955,2.013v24.235c0,1.127,0.828,2.014,1.955,2.014s1.953-0.887,1.953-2.014V43.133c0-6.753,4.799-9.243,9.186-9.243
	c4.266,0,6.752,3.139,6.752,8.237v14.397c0,1.127,0.832,2.014,1.959,2.014c1.123,0,1.953-0.887,1.953-2.014V42.127
	C433.552,34.601,429.582,29.981,422.83,29.981"/>
<path fill="#1E284B" d="M468.417,45.846c-1.123-0.255-1.939,0.576-2.275,1.663c-0.969,2.861-2.523,5.063-6.104,6.475
	c-4.791,1.888-9.83,0.248-12.467-4.506l20.164-7.946c0.879-0.346,1.426-1.389,1.035-2.381c-3.213-8.152-10.545-11.248-17.869-8.36
	c-7.328,2.888-10.961,10.3-7.748,18.457c3.213,8.154,10.992,11.259,18.318,8.375c4.354-1.717,7.504-5.184,8.494-9.458
	C470.167,47.067,469.515,46.05,468.417,45.846 M446.226,46.061c-1.217-5.185,1.314-9.746,6.107-11.635
	c4.738-1.867,9.367-0.124,12.018,4.496L446.226,46.061z"/>
<path fill="#1E284B" d="M490.226,30.969h-4.324V22.32c0-1.126-0.828-2.016-1.955-2.016s-1.955,0.89-1.955,2.016v8.649h-3.496
	c-1.006,0-1.838,0.773-1.838,1.779c0,1.007,0.832,1.776,1.838,1.776h3.496v22.398c0,1.123,0.828,2.012,1.955,2.012
	s1.955-0.889,1.955-2.012V34.524h4.324c1.01,0,1.838-0.769,1.838-1.776C492.064,31.742,491.236,30.969,490.226,30.969"/>
<polyline fill="#1E284B" points="71.006,41.409 71.006,41.406 70.997,41.414 71.006,41.409 "/>
<path fill="#1E284B" d="M74.868,51.984c2.133,0,3.862-1.729,3.862-3.862s-1.729-3.861-3.862-3.861c-2.133,0-3.862,1.729-3.862,3.861
	S72.735,51.984,74.868,51.984"/>
<path fill="#1E284B" d="M107.515,33.14c-1.179-4.778-3.15-9.245-5.763-13.26c0.014-0.063,0.026-0.131,0.041-0.192h-0.164
	C93.831,7.841,80.422,0,65.209,0C51.607,0,39.443,6.267,31.445,16.063C13.424,16.717,2.069,21.726,0.243,29.871
	c-1.82,8.112,6.678,17.948,22.736,26.31c0.187,0.098,0.381,0.168,0.577,0.215c5.487,17.793,22.083,30.76,41.653,30.76
	c8.216,0,16.221-2.299,23.148-6.648c1.171-0.736,1.526-2.283,0.789-3.457c-0.736-1.176-2.284-1.527-3.457-0.789
	c-6.126,3.848-13.208,5.881-20.48,5.881c-21.265,0-38.565-17.301-38.565-38.564c0-4.943,0.945-9.666,2.647-14.013
	c0.209,1.407,0.938,2.527,2.212,2.981c1.746,0.623,3.67-0.413,4.25-2.173c0.013-0.041,0.026-0.082,0.039-0.123
	c0.3-0.943,0.439-1.928,0.463-2.918c0.039-1.642,0.081-4.525,0.269-5.714c0.171-1.084,0.265-2.04,0.588-2.775
	c0.247-0.561,0.685-0.978,1.194-1.333c2.592-1.057,3.988,1.561,3.467,8.17c-0.296,2.94-2.551,11.709,0.449,13.711
	c1.996,1.331,3.981-0.923,3.846-3.764c0.025-1.978-0.444-4.875,0.409-6.771c1.389-3.083,3.316-2.17,3.305-6.351
	c0.039-0.189,0.102-0.486,0.142-0.675c0.653-1.409,2.73-1.096,2.951,0.442c0.794,5.535-0.535,14.721-0.706,19.456
	c-0.044,1.203,0.012,2.404,0.167,3.598c0.329,2.547,2.641,4.458,5.184,4.101c2.002-0.282,2.705-1.77,3.413-3.958
	c0.428-1.324,0.373-4.228,0.108-6.418l-1.213-15.119c-0.313-2.51-0.17-4.994,0.43-7.452c0.091-0.458,0.313-0.934,0.614-1.406
	c1.738-2.72,5.98-1.644,6.223,1.575c0.082,1.091,0.108,2.369,0.049,3.861c-0.064,1.637-0.773,5.498-1.157,7.702
	c-0.231,1.328-0.306,2.68-0.156,4.019c0.007,0.058,0.013,0.116,0.02,0.174c0.308,2.505,2.601,4.398,5.098,4.03
	c3.092-0.456,4.649-3.846,4.161-7.814c-0.191-1.548-2.616-12.902,2.809-11.977c0.93,0.159,1.162,1.472,1.076,2.41
	c-0.271,2.921-2.238,8.647,0.016,9.604c1.817,0.77,2.885-1.021,2.774-3.072c-0.021-0.383,0.101-0.76,0.347-1.055
	c0.945-1.14,2.808-0.393,2.686,1.083c-0.08,0.973-0.331,2.079-0.63,3.131c-0.922,3.241-1.189,6.606-1.17,9.975
	c0.016,2.695-0.296,9.127,6.494,9.863c6.567,0.712,6.427-8.813,5.442-15.184c-0.609-3.944,0.677-4.401,1.899-4.542
	c2.065-0.238,0.384,4.793,0.409,6.771c-0.135,2.841,1.85,5.095,3.846,3.764c1.244-0.83,1.578-2.828,1.529-5.088
	c0.737,2.973,1.135,6.078,1.135,9.275c0,5.585-1.167,10.975-3.471,16.015c-0.576,1.26-0.022,2.746,1.238,3.322
	c1.254,0.574,2.746,0.021,3.322-1.238c2.606-5.697,3.926-11.789,3.926-18.099c0-1.398-0.072-2.779-0.202-4.143
	c11.288,6.447,17.468,13.313,16.325,18.41c-2.382,10.613-32.547,12.176-59.223,6.975c-1.365-0.256-2.674,0.623-2.94,1.98
	c-0.267,1.359,0.621,2.676,1.98,2.941c10.142,1.979,20.525,3.07,29.946,3.07c18.287,0,32.94-4.117,35.131-13.869
	C131.631,50.799,123.516,41.43,107.515,33.14 M21.629,43.578c0,2.174,0.165,4.311,0.474,6.399
	C10.734,43.441,4.005,36.01,5.136,30.968c1.142-5.094,9.674-8.665,22.639-9.669C23.876,27.823,21.629,35.442,21.629,43.578"/>
<path fill="#1E284B" d="M64.652,63.679c0,0-1.951-6.871-9.62-7.328c-6.536-0.389-10.198-5.274-10.286-6.157
	c-0.401,4.983-0.087,20.032,16.826,19.1C59.184,64.503,64.652,63.679,64.652,63.679"/>
</svg>
