<?xml version="1.0" encoding="utf-8"?>
<!-- Generator: Adobe Illustrator 15.1.0, SVG Export Plug-In . SVG Version: 6.00 Build 0)  -->
<!DOCTYPE svg PUBLIC "-//W3C//DTD SVG 1.1//EN" "http://www.w3.org/Graphics/SVG/1.1/DTD/svg11.dtd">
<svg version="1.1" id="Layer_1" xmlns="http://www.w3.org/2000/svg" xmlns:xlink="http://www.w3.org/1999/xlink" x="0px" y="0px"
	 width="1304.295px" height="185.611px" viewBox="0 0 1304.295 185.611" enable-background="new 0 0 1304.295 185.611"
	 xml:space="preserve">
<path fill-rule="evenodd" clip-rule="evenodd" fill="#EE1D40" d="M408.463,71.048l-2.453,0.205
	c-9.358-0.318-18.718-0.636-28.076-0.954c0-0.045,0-0.091,0-0.136c6.801-10.568,13.661-21.551,16.491-35.98
	c2.95-15.039-4.661-31.725-15.946-33.936c-9.065-1.777-15.915,6.503-19.353,11.176c-7.825,10.633-12.922,23.896-17.309,38.025
	c-1.499,6.087-2.999,12.176-4.498,18.263c-0.945,0.931-8.075,0.29-10.085,0.272c-7.19-0.061-14.676-0.288-18.944,2.862
	c-2.521,10.56,7.455,9.108,14.855,10.63c3.815,0.727,7.632,1.454,11.448,2.181c-0.409,3.635-0.818,7.269-1.227,10.903
	c-0.182,2.953-0.364,5.906-0.545,8.858c0,2.136,0,4.271,0,6.406c0.001,7.953,1.049,15.086,1.227,22.215
	c-3.407,2.226-6.814,4.452-10.222,6.679c-3.885,2.449-8.085,4.687-11.993,7.359c-1.681,1.271-3.362,2.544-5.043,3.816
	c-4.45,2.1-8.422,2.956-10.494-2.045c-1.696-4.092-1.809-11.57-0.954-16.764c1.65-10.031,1.978-19.69,4.225-29.166
	c1.628-6.865,2.096-15.439-1.772-20.443c-3.723-4.816-13.381-3.996-18.126-0.545c-4.363,3.172-6.342,8.584-9.131,13.356
	c-3.832,6.555-6.555,13.291-9.813,20.716c-0.999,1.953-1.999,3.907-2.998,5.86c-0.591,0-1.182,0-1.772,0
	c0.157-9.587,2.17-19.147,3.68-28.212c0.956-5.742-0.823-11.961-4.362-13.765c-4.005-2.042-9.728-0.513-12.402,1.499
	c-6.046,4.548-7.972,20.589-9.131,30.119c-0.045,0-0.091,0-0.136,0c-1.75-3.769-6.506-7.766-9.131-11.039
	c-9.249-11.531-31.308-25.539-54.107-20.035c-6.382,1.541-11.006,4.121-15.946,6.815c-0.702-1.335-0.896-2.691-2.044-3.544
	c-2.871-2.128-10.854-1.09-15.537-1.09c-13.991,0-27.986,0-41.978,0c0.5-5.042,1-10.086,1.5-15.128
	c1.298-7.65,1.375-15.322,2.726-22.624c0.863-6.224,1.727-12.449,2.59-18.672c1.375-1.24,13.989-1.13,17.172-1.636
	c5.133,0,10.268,0,15.4,0c1.954,0.046,3.907,0.091,5.861,0.137c3.271,0.091,6.542,0.182,9.813,0.272
	c8.495,0.681,16.992,1.363,25.486,2.044c9.846,1.578,17.544,2.007,20.443-5.861c0.542-1.469,1.355-3.745,0.954-5.997
	c-1.596-8.955-8.853-7.41-17.854-8.859c-10.675-0.817-21.354-1.635-32.028-2.453c-6.678-0.409-13.357-0.818-20.035-1.227
	c-1.908,0-3.816,0-5.724,0c-3.947-0.625-9.623-0.464-13.493,0.136c-7.317,1.134-14.233,0.382-20.989,1.635
	c-21.276,3.948-40.37,8.818-51.518,22.761c-5.212,6.519-8.286,12.415-10.222,22.624c-0.526,2.778-1.282,8.339,0,10.903
	c2.234,4.468,17.721,5.435,22.624,2.453c4.208-2.558,3.299-11.194,5.997-15.673c4.763-7.91,18.958-17.435,29.847-19.081
	c0,0.045,0,0.091,0,0.136c-1.453,8.858-2.908,17.719-4.361,26.577c-1.817,9.721-3.635,19.445-5.452,29.166
	c-7.268,1.408-14.539,2.816-21.807,4.225c-4.161,0.966-7.836,0.828-8.723,5.043c-1.931,9.188,17.274,8.815,25.895,8.723
	c-1.181,5.225-2.362,10.45-3.543,15.674c-3.58,14.023-9.49,37.102-18.944,44.566c-2.704,2.136-7.038,3.106-11.857,2.045
	c-5.27-1.59-10.54-3.181-15.81-4.771c-2.44-0.773-5.938-2.331-9.541-1.635c-8.29,1.6-12.974,15.689-5.588,21.533
	c10.739,8.496,34.33,8.871,47.974,2.998c19.67-8.467,27.602-27.222,34.072-48.928c1-5.088,1.999-10.177,2.999-15.265
	c1.045-5.451,2.09-10.904,3.135-16.354c16.716-0.546,33.438-1.091,50.155-1.636c-0.954,1.817-1.908,3.635-2.862,5.451
	c-1.602,3.666-2.738,7.713-3.68,11.994c-1.097,4.988-1.892,12.4-0.954,18.263c0.624,3.897,0.493,7.188,1.363,10.631
	c3.567,14.12,10.866,24.708,25.759,27.53c9.883,1.873,18.357-2.34,23.714-6.133c13.083-9.263,24.596-31.256,19.217-55.197
	c-1.062-4.728-2.627-9.059-4.498-12.947c0.182-0.318,0.363-0.637,0.545-0.954c2.241,0.821,4.136,2.779,5.997,4.089
	c3.679,2.587,6.937,5.277,10.358,8.041c2.68,2.588,5.361,5.179,8.041,7.768c2.317,2.227,4.634,4.453,6.951,6.679
	c-0.795,16.017-8.601,45.982,9.131,48.928c8.728,1.45,11.075-7.122,13.629-12.13c7.586-14.99,15.174-29.984,22.761-44.976
	c0.045,0,0.09,0,0.136,0c0.409,0,0.818,0,1.227,0c-1.646,16.391-7.043,48.027,6.133,56.015c4.323,2.622,12.774,0.209,16.627-1.362
	c7.298-2.976,14.306-6.554,20.853-10.358c3.361-1.771,6.724-3.544,10.085-5.314c1.726-1.318,3.453-2.636,5.179-3.953
	c0-0.682,0-1.362,0-2.044c0.045,0,0.091,0,0.136,0c0.714,4.173,2.988,8.146,4.906,11.312c2.459,4.058,5.348,7.649,9.404,10.086
	c5.43,3.262,13.989,3.042,20.308,0.817c12.446-4.382,22.297-11.887,33.527-17.309h1.908 M182.495,141.306
	c-1.128,2.757-2.264,5.001-3.816,7.224c-2.049,2.934-4.673,7.277-10.494,6.27c-10.707-1.854-13.947-14.808-11.584-28.076
	c1.955-10.981,5.332-21.795,12.811-27.258c1.473-1.076,3.101-1.326,4.906-2.181C192.356,97.052,187.027,130.229,182.495,141.306z
	 M359.399,54.489c2.897-10.509,5.042-22.023,10.767-29.848c0.852-1.164,1.979-1.714,3.135-2.589
	c7.216,0.038,6.473,8.255,4.77,13.765c-2.491,8.059-6.22,15.906-10.222,22.761c-1.953,3.407-3.907,6.814-5.86,10.222
	c-1.442,0.648-4.101-0.087-5.997-0.136C357.127,63.939,358.263,59.213,359.399,54.489z M406.01,131.084
	c-6.453,7.181-20.529,15.589-30.529,19.217c-6.504,2.36-14.15,1.27-17.445-3.407c-3.191-4.529-4.248-14.507-2.999-22.352
	c0.136-3.725,0.272-7.45,0.409-11.176c0.228-4.134,0.455-8.269,0.682-12.402c2.379-4.756,8.264-8.706,10.494-13.765
	c2.043-0.911,6.396-0.273,8.995-0.273c6.95,0,13.902,0,20.853,0c2.658,0,7.23,0.637,9.131-0.408c0.136,0,0.272,0,0.409,0
	C406.01,101.371,406.01,116.23,406.01,131.084z"/>
<g>
	<path fill-rule="evenodd" clip-rule="evenodd" d="M1153.423,87.199c3.421-0.032,11.931-0.87,14.446,0.271
		c6.996,9.586,13.993,19.173,20.988,28.758c0.092,0,0.182,0,0.273,0c0-9.676,0-19.354,0-29.029c4.588,0,9.177,0,13.765,0
		c0,17.716,0,35.437,0,53.153c-2.083,0.03-12.503,0.48-13.356-0.273c-7.449-10.084-14.901-20.172-22.352-30.256
		c0,10.175,0,20.354,0,30.529c-4.588,0-9.177,0-13.765,0C1153.423,122.636,1153.423,104.915,1153.423,87.199z"/>
	<path fill-rule="evenodd" clip-rule="evenodd" d="M1214.617,87.199c12.991,0,25.986,0,38.979,0c0,3.997,0,7.996,0,11.993
		c-8.404,0-16.811,0-25.214,0c0,2.726,0,5.452,0,8.178c8.222,0,16.446,0,24.669,0c0,3.997,0,7.996,0,11.993
		c-8.223,0-16.447,0-24.669,0c0,2.998,0,5.997,0,8.995c8.403,0,16.81,0,25.214,0c0,3.998,0,7.996,0,11.994
		c-12.992,0-25.987,0-38.979,0C1214.617,122.636,1214.617,104.915,1214.617,87.199z"/>
	<path fill-rule="evenodd" clip-rule="evenodd" d="M1260.818,87.199c14.491,0,28.986,0,43.477,0c0,3.997,0,7.996,0,11.993
		c-4.951,0-9.904,0-14.855,0c0,13.719,0,27.44,0,41.16c-4.588,0-9.178,0-13.766,0c0-13.72,0-27.441,0-41.16
		c-4.951,0-9.903,0-14.855,0C1260.818,95.195,1260.818,91.196,1260.818,87.199z"/>
	<path fill-rule="evenodd" clip-rule="evenodd" d="M1134.615,126.314c10.688-0.314,11.182,13.273,2.18,14.991
		c-5.431,1.036-10.143-4.515-8.313-9.813C1129.554,128.389,1131.674,127.615,1134.615,126.314z"/>
</g>
<g>
	<path fill-rule="evenodd" clip-rule="evenodd" fill="#020202" d="M1064.153,61.712c17.142-0.32,30.638,4.432,40.614,11.449
		c1.801,1.268,3.998,2.351,5.314,4.088c-5.178,6.769-10.357,13.54-15.537,20.308c-0.136-0.137-0.271-0.272-0.408-0.408
		c-3.583-1.592-6.654-4.711-10.494-6.406c-5.307-2.342-10.848-3.294-17.582-4.497c-6.75-1.206-17.235,1.497-15.4,8.858
		c1.556,6.24,19.263,8.146,26.304,9.949c17.747,4.543,31.88,10.148,35.436,29.03c0.742,3.939,0.513,9.257-0.409,12.946
		c-0.883,3.54-2.003,6.986-3.68,9.813c-12.39,20.889-50.186,23.722-74.822,11.857c-3.309-1.593-15.061-8.067-15.401-11.039
		c4.952-6.996,9.904-13.994,14.855-20.989c0.228,0.228,0.454,0.454,0.682,0.682c0.862,0.771,1.727,1.545,2.589,2.316
		c2.182,1.545,4.362,3.09,6.543,4.635c7.318,4.385,13.913,5.403,24.396,6.95c6.83,1.009,17.614-3.104,16.628-9.54
		c-0.887-5.777-8.357-6.697-13.766-8.041c-14.006-3.482-27.801-5.393-37.616-12.812c-8.295-6.269-14.55-21.134-9.132-35.026
		c3.191-8.18,8.902-13.933,16.082-18.126c4.599-2.686,10.302-4.142,16.355-5.315C1058.52,62.167,1061.336,61.94,1064.153,61.712z"/>
	<path fill-rule="evenodd" clip-rule="evenodd" fill="#020202" d="M510.271,63.348c9.676,0.045,19.354,0.091,29.03,0.136
		c0,15.309,0,30.622,0,45.93c-0.001,20.17-1.816,33.977,13.493,39.388c3.395,1.199,9.05,2.228,13.902,1.363
		c8.538-1.522,14.294-5.414,17.172-12.539c2.08-5.15,1.636-12.943,1.635-20.171c0-12.129,0-24.261,0-36.389
		c0.045-5.905,0.091-11.813,0.136-17.718c9.585,0.045,19.172,0.091,28.757,0.136c0,16.717,0,33.438,0,50.154
		c0.001,11.132,0.468,22.741-2.181,31.211c-4.503,14.399-14.176,23.307-28.621,27.803c-4.966,1.547-16.076,3.526-23.169,2.998
		c-7.019-0.522-12.782-0.871-18.399-2.589c-14.229-4.351-24.745-13.008-29.302-26.985c-2.806-8.605-2.454-20.406-2.454-32.028
		C510.271,97.15,510.271,80.246,510.271,63.348z"/>
	<path fill-rule="evenodd" clip-rule="evenodd" fill="#020202" d="M628.708,63.348c6.995,0,13.993,0,20.988,0
		c2.495,0,6.849-0.589,8.586,0.409c14.673,19.942,29.349,39.89,44.021,59.831c0.046-20.077,0.091-40.162,0.136-60.24
		c9.54,0.045,19.082,0.091,28.621,0.136c-0.045,36.703-0.09,73.419-0.136,110.122c-6.45,0-12.903,0-19.354,0
		c-2.421,0-6.434,0.573-8.313-0.272c-15.354-21.032-30.712-42.07-46.066-63.102c-0.045,21.122-0.09,42.252-0.136,63.374
		c-9.494-0.045-18.991-0.091-28.484-0.136C628.617,136.767,628.662,100.052,628.708,63.348z"/>
	<path fill-rule="evenodd" clip-rule="evenodd" fill="#020202" d="M883.979,148.666c14.717,0,29.439,0,44.157,0
		c-0.045,8.313-0.091,16.627-0.136,24.94c-24.213-0.045-48.432-0.091-72.643-0.136c0.045-36.704,0.091-73.419,0.137-110.123
		c9.493,0.045,18.99,0.091,28.484,0.136C883.979,91.875,883.979,120.275,883.979,148.666z"/>
	<path fill-rule="evenodd" clip-rule="evenodd" fill="#020202" d="M1016.451,88.289c-17.397,0-34.801,0-52.198,0
		c0,5.678,0,11.357,0,17.036c17.034,0.046,34.073,0.091,51.108,0.136c-0.046,8.268-0.091,16.538-0.137,24.806
		c-16.988,0-33.982,0-50.972,0c0,6.133,0,12.267,0,18.399c17.397,0,34.801,0,52.198,0c-0.045,8.313-0.09,16.627-0.136,24.94
		c-26.892-0.045-53.792-0.091-80.684-0.136c0.046-36.704,0.091-73.419,0.136-110.123c26.893,0.045,53.792,0.091,80.684,0.136
		C1016.451,71.752,1016.451,80.021,1016.451,88.289z"/>
	<path fill-rule="evenodd" clip-rule="evenodd" fill="#020202" d="M848.27,112.14c-0.905-5.275-1.537-10.177-3.271-14.583
		c-6.933-17.616-20.567-28.031-40.478-32.709c-7.627-1.792-17.004-1.5-26.305-1.499c-11.811,0-23.625,0-35.436,0
		c-0.045,36.704-0.09,73.418-0.136,110.123c10.493,0.045,20.989,0.091,31.483,0.136c8.553,0,18.021,0.757,25.622-0.682
		c20.657-3.907,35.864-12.625,43.34-29.575C846.48,135.666,850.305,123.979,848.27,112.14z M796.889,147.848
		c-7.059,1.754-17.278,0.891-25.623,0.818c0-20.124,0-40.254,0-60.377c16.877-0.045,32.34-0.765,40.07,8.178
		c2.744,3.175,5.141,6.801,6.541,11.313C824.165,128.023,811.996,144.096,796.889,147.848z"/>
	<path fill-rule="evenodd" clip-rule="evenodd" fill="#020202" d="M405.9,154.396c0,6.359,0,12.721,0,19.081
		c8.813,0.045,17.627,0.091,26.44,0.136c9.494,0,18.991,0,28.484,0c7.539,0,15.193,0.26,20.989-1.499
		c6.344-1.925,11.756-5.442,15.265-10.222c9.729-13.254,5.927-32.707-5.452-41.023c-2.432-1.777-5.564-3.833-9.404-4.089
		c0-0.046,0-0.09,0-0.136c20.891-4.876,24.115-34.77,7.632-46.884c-8.967-6.591-20.333-6.407-35.98-6.406
		c-15.944,0-31.893,0-47.837,0c-0.046,2.635-0.091,5.27-0.136,7.905 M434.521,87.479c6.904,0,13.812,0,20.716,0
		c4.005,0,8.733-0.402,11.448,0.954c2.357,1.178,4.202,3.448,4.77,6.405c1.054,5.492-2.531,8.957-5.86,10.222
		c-2.492,0.947-6.542,0.546-9.813,0.546c-7.086,0-14.175,0-21.261,0C434.521,99.563,434.521,93.521,434.521,87.479z
		 M467.912,148.672c-2.893,1.195-7.581,0.819-11.585,0.818c-7.268,0-14.538,0-21.806,0c0-6.541,0-13.084,0-19.626
		c7.313,0,14.629,0,21.943,0c3.526,0,8.068-0.478,10.767,0.546c3.315,1.256,5.671,3.787,6.406,7.631
		C474.698,143.599,471.211,147.309,467.912,148.672z"/>
</g>
</svg>
