<?xml version="1.0" encoding="UTF-8" standalone="no"?>
<svg
   xmlns:dc="http://purl.org/dc/elements/1.1/"
   xmlns:cc="http://creativecommons.org/ns#"
   xmlns:rdf="http://www.w3.org/1999/02/22-rdf-syntax-ns#"
   xmlns:svg="http://www.w3.org/2000/svg"
   xmlns="http://www.w3.org/2000/svg"
   xmlns:sodipodi="http://sodipodi.sourceforge.net/DTD/sodipodi-0.dtd"
   xmlns:inkscape="http://www.inkscape.org/namespaces/inkscape"
   version="1.1"
   id="Layer_1"
   x="0px"
   y="0px"
   viewBox="0 0 1000 1000"
   width="100%"
   height="100%"
   style="enable-background:new 0 0 1000 1000;"
   xml:space="preserve"
   ><switch
     id="switch3"
     transform="translate(-26.098323,21.02995)"><g
       id="g5"><g
         id="g7"><path
           d="m 863.5,587.2 c -5.8,0.1 -11.9,1.4 -16,2.6 -4.4,1.3 -8.5,3.1 -12.4,5.3 -3.8,2.2 -7.3,4.8 -10.5,7.8 5.8,-12.1 11.5,-24.4 16,-37.2 8.3,3.2 19.4,7.3 27.8,4.4 6.3,-2.1 12.2,-9.4 10,-16.7 -2.7,-8.9 -9,-10 -15.5,-7.8 -6.7,2.2 -14,7.5 -19.3,12.3 l 0.4,-1.8 3.5,-11.1 c 0.9,-2 1.6,-4 2.7,-5.9 1.7,-3.2 2.8,-6.6 3.9,-9.9 1.1,-3.4 2,-6.8 3.5,-10.2 1.3,-2.8 4.2,-7.8 5.6,-13 1.5,-5.2 2.1,-10.5 -1.4,-13.4 -5.1,-4.2 -7.2,2.2 -8.7,6.1 -4.2,11.5 -3,22.2 -3.8,33.7 l -2.3,7.4 c -0.5,0.7 -0.9,1.5 -1.5,2.2 -1.7,3.8 -2.8,8 -3.6,12.2 -0.7,1.8 -1.3,3.7 -2.1,5.5 0.1,-3.3 -0.2,-7.1 -0.6,-10.7 -0.5,-3.7 -1.2,-7.2 -2.6,-10.3 -2.6,-6.1 -6.9,-10 -13.3,-8.8 -5.3,1 -6.7,5.6 -5.2,10 0.8,2.2 2.4,3.7 4.1,5.4 3.4,3.3 6.3,6.1 8.7,9.3 2.4,3.2 4.1,6.7 5.2,11.6 0.1,0.3 0.3,0.7 0.5,0.9 -2.4,6.1 -5.3,11.9 -7.9,17.8 -1.3,3 -2.9,5.8 -4.3,8.7 -1.5,2.9 -2.9,5.8 -4.4,8.6 0.6,-5.6 0.5,-11.2 -0.1,-16.7 -0.7,-5.5 -2,-11 -3.6,-16.2 -1.3,-4.1 -3.5,-9.4 -6.7,-13.3 -3.2,-4 -7.5,-6.6 -13.3,-5.9 -8.7,0.9 -8.7,8.5 -5.2,14.4 4.2,6.7 11.2,12.8 15.3,19.9 2.3,3.8 4.2,7.8 5.9,12 1.6,4.2 2.8,8.4 3.8,12.8 l -2.6,4.7 -2.8,4.6 -5.5,9.2 c -3.9,6 -7.5,12.1 -11.6,18 0.6,-2.7 1.1,-5.4 1.3,-8.1 0.2,-2.7 0.2,-5.5 0.1,-8.2 -0.1,-2.7 -0.4,-5.4 -0.8,-8 -0.5,-2.7 -1.2,-5.4 -2.1,-8 -1.2,-3.6 -3,-8.4 -5.9,-12 -3,-3.7 -6.9,-6.2 -11.8,-5.3 -4.4,0.7 -6,3.3 -6.1,6.5 0,1.6 0.3,3.4 0.8,5.1 0.5,1.7 1.2,3.4 2,4.9 3.5,6.3 7.9,12.5 11.6,19 3.5,6.4 6.3,13.2 6.4,20.9 -7.5,10.5 -14.8,21.1 -22.7,31.3 1.7,-5 2.9,-10.1 3.4,-15.4 0.6,-5.2 0.9,-10.3 0.5,-15.4 -0.2,-3.8 -0.7,-9.5 -2.6,-14.2 -2,-4.7 -5.4,-8.4 -11,-8.5 -4.9,-0.1 -6.9,2.6 -7.4,6.2 -0.4,3.7 0.5,8.2 1.6,11.5 2.8,7.8 5.9,15.5 7.4,23 1.6,7.6 2.1,15.5 -0.4,23.7 -5,6.7 -10.4,13.1 -15.6,19.8 -1.2,1.5 1,3.4 2.4,2 3.2,-3.4 6.3,-6.9 9.4,-10.2 3.2,-3.4 6,-7 9.1,-10.5 0.9,-0.7 1.8,-1.4 2.8,-2.1 9,0.6 16.8,3.2 25,8.4 5.8,3.6 11.5,8.5 19,8.5 4.7,0 9.2,-2.1 12.3,-5.4 1.5,-1.7 2.7,-3.6 3.2,-5.8 0.5,-2.2 0.5,-4.6 -0.3,-7 -3.8,-11.8 -18.7,-14.5 -29.2,-13.8 -5.1,0.3 -9.8,1.5 -14.2,3.2 -4.3,1.8 -8.7,3.9 -12.5,6.6 9.3,-11.2 17.6,-23.1 25.7,-35.1 7.6,-0.3 14.2,3.8 20.8,7.9 6.6,4 13.3,7.8 21.6,5.8 4.5,-1.1 8.2,-4.3 10.8,-8.2 1.3,-2 2.2,-4.2 2.7,-6.5 0.5,-2.3 0.5,-4.7 0.1,-7 -2.1,-11.1 -13.3,-13.8 -22.8,-12.8 -9.9,1.2 -19.3,5.6 -27.2,11.5 3.3,-5.3 6.5,-10.6 9.7,-16 2.7,-4.9 5.7,-9.7 8.3,-14.8 7.4,1.1 14.8,3.7 22.4,5.4 7.5,1.6 15.2,2.4 23,-0.8 4,-1.7 8.7,-5.4 11.7,-9.9 3,-4.5 4,-10 1.2,-14.8 -2.4,-4.7 -7.9,-6 -13.8,-5.9 z"
           id="path9"
           inkscape:connector-curvature="0" /><path
           d="m 715.5,743.4 c -11.6,3.9 -19.2,11.4 -28.7,18.1 -2.4,1 -4.8,1.9 -7.3,2.8 -0.9,0.1 -1.8,0.2 -2.7,0.2 -4,1.1 -7.9,3 -11.8,4.9 l -5.6,1.8 c 2.6,-2 5.5,-4.5 8.1,-7 2.5,-2.7 4.8,-5.6 6.4,-8.5 3.2,-5.7 3.6,-11.5 -1.4,-15.8 -4.1,-3.5 -8.7,-2 -11.1,2.1 -1.2,2 -1.4,4.3 -1.6,6.7 -1.1,9.3 -1.4,16 -7.6,23.8 -0.2,0.3 -0.3,0.6 -0.4,1 -6.3,1.7 -12.5,3.5 -18.9,4.8 l -9.5,2.1 -9.4,1.6 c 4.7,-3.1 9.2,-6.4 13,-10.5 3.9,-4 7.4,-8.1 10.4,-12.9 2.3,-3.7 5.2,-8.5 6.3,-13.4 1.1,-5 0.4,-10.1 -3.7,-14.2 -6,-6 -12.2,-1.8 -14.5,5 -2.6,7.5 -3.1,16.5 -6,24.4 -1.6,4.2 -3.5,8.1 -5.8,12 -2.3,3.8 -4.8,7.7 -7.7,11 l -10.6,1.6 c -3.5,0.6 -7.1,0.9 -10.7,1.4 -7.1,1 -14.2,1.4 -21.3,2.2 4.9,-2.6 9.5,-5.5 13.6,-9 4.1,-3.7 7.7,-7.8 10.7,-12.3 2.1,-3 4.7,-7.7 5.7,-12.3 1.1,-4.6 0.5,-9.2 -3.2,-12.5 -6.5,-5.8 -12.3,1.5 -15,7.8 -2.7,6.9 -4.8,13.9 -7.6,20.8 -2.8,6.8 -6.4,13.4 -12.4,18.1 l -9.6,0.7 -9.7,0.4 c -6.4,0.5 -12.9,0.4 -19.3,0.7 5,-1.9 9.7,-4.2 14.2,-6.9 4.5,-2.8 8.6,-6 12.4,-9.3 2.8,-2.4 7,-6.6 9.4,-11 2.5,-4.5 3.2,-9.4 -0.2,-13.9 -3,-3.9 -6.3,-3.6 -9.5,-1.8 -3.2,1.8 -6.1,5.4 -8,8.4 -4.4,7.3 -8.4,14.1 -13.3,20.1 -2.5,3 -5.2,5.9 -8.2,8.4 -3.1,2.4 -6.5,4.5 -10.6,6.1 -4.2,0.2 -8.4,0.1 -12.6,0.1 -4.2,0 -8.4,0.2 -12.6,0.1 -2,0 -2.1,2.9 -0.1,3.1 4.6,0.6 9.3,0.6 13.9,1 2.3,0.1 4.6,0.3 6.9,0.4 l 6.9,0.1 c 1.1,0.2 2.2,0.5 3.3,0.8 5.2,7.6 7.9,15.2 9.1,24.8 0.8,6.7 0.6,14.3 5.2,20.1 5.8,7.6 17.9,9 23.7,0.7 3.5,-5 3.3,-11.1 1.5,-16.6 -1.8,-5.6 -5.3,-11 -8.9,-14.9 -3.4,-3.8 -7.3,-6.5 -11.4,-9 -4.1,-2.5 -8.5,-4.3 -12.9,-5.6 7.3,-0.2 14.5,0 21.8,-0.5 3.6,-0.2 7.2,-0.3 10.9,-0.5 l 10.8,-0.9 c 5,5.8 5.8,13.6 6.8,21.3 1,7.7 2.2,15.3 8.9,20.4 3.7,2.7 8.5,4 13.2,3.4 4.7,-0.6 9.2,-2.8 12.3,-6.3 3.7,-4.1 4.3,-9 3.2,-13.6 -1.1,-4.5 -4,-8.8 -7.3,-12.2 -7.2,-7.3 -16.4,-11.4 -25.9,-14.2 l 9.3,-1 9.3,-1.4 c 5.6,-0.7 11.1,-1.7 16.7,-2.7 3.7,6.5 6.3,14 9.7,21 3.4,7 7.6,13.2 15,17.3 3.8,2.1 9.7,3.7 15.1,3 5.4,-0.6 10.4,-3 12.4,-8.2 1.9,-5.1 -0.5,-10.2 -4.2,-14.7 -3.6,-4.4 -8.6,-8.4 -12.1,-10.9 -3.8,-2.7 -7.8,-4.8 -11.9,-6.3 -4.1,-1.6 -8.4,-2.8 -12.6,-3.4 l 9.9,-2.2 9.8,-2.6 4.9,-1.3 4.8,-1.5 9.7,-3 c 2.6,8.4 6.4,19.8 13.9,24.4 2.8,1.7 6.5,2.7 10.1,2.4 3.6,-0.3 7.1,-1.7 9.2,-5 5.2,-7.8 2.2,-13.2 -3.6,-17.1 -2.9,-1.9 -6.6,-3.4 -10.3,-4.6 -3.8,-1.2 -7.8,-2.2 -11.3,-2.9 l 1.7,-0.7 5.5,-2 5.4,-2.2 c 2,-0.6 4.1,-1.2 6.3,-1.6 3.6,-0.6 6.9,-1.9 10.2,-3.2 3.3,-1.3 6.7,-2.6 10.2,-3.5 2.9,-0.8 8.6,-1.8 13.7,-3.7 5,-2 9.3,-5.1 9.5,-9.5 0.1,-6.1 -6.5,-4 -10.3,-2.6 z"
           id="path11"
           inkscape:connector-curvature="0" /><path
           d="m 438.2,788.4 c -10.3,-6.6 -20.9,-7.9 -32,-11.2 -2.3,-1.2 -4.5,-2.6 -6.7,-4 -0.6,-0.7 -1.2,-1.3 -1.8,-2 -3.4,-2.5 -7.3,-4.3 -11.1,-6.2 l -4.8,-3.3 c 3.3,0.8 6.9,1.5 10.5,1.9 3.7,0.3 7.4,0.2 10.6,-0.3 3.3,-0.5 6.1,-1.6 8.1,-3.4 2,-1.8 3.3,-4.3 3.4,-7.5 0.2,-5.4 -3.8,-8 -8.5,-7.4 -2.3,0.3 -4.2,1.6 -6.2,2.9 -8,5 -13.4,8.9 -23.4,8.9 -0.3,0 -0.7,0.1 -1,0.3 -5.2,-3.9 -10.5,-7.6 -15.5,-11.8 -2.5,-2 -5.1,-4 -7.6,-6.1 l -7.4,-6.3 c 10.6,3.7 21.9,4.9 32.8,3.7 4.4,-0.5 9.9,-1.2 14.4,-3.4 4.6,-2.3 8.1,-6 8.8,-11.7 0.9,-8.5 -6.2,-10.7 -12.9,-8.2 -7.5,2.5 -14.8,7.8 -22.8,10.5 -4.2,1.4 -8.5,2.3 -12.9,2.9 -4.4,0.6 -9,1 -13.4,0.9 l -8,-7.3 -7.7,-7.5 c -2.6,-2.4 -5.1,-5 -7.6,-7.6 -2.5,-2.6 -5.1,-5 -7.5,-7.7 5,2.3 10.3,3.9 15.5,5 5.3,1 10.9,1.1 16.3,0.7 3.7,-0.3 8.9,-1.1 13.1,-3.2 4.2,-2 7.5,-5.3 7.8,-10.3 0.1,-2.2 -0.4,-3.8 -1.3,-5 -0.9,-1.2 -2.2,-2 -3.8,-2.4 -3.1,-0.8 -7.2,-0.4 -10.5,0.6 -7,2 -13.9,4.9 -21,7 -7.2,2.2 -14.3,3.2 -21.8,1.6 l -3.3,-3.5 -3.2,-3.6 -6.5,-7.2 -6.3,-7.3 c -2.1,-2.4 -4.3,-4.8 -6.3,-7.3 9.1,5.5 19.1,9 29.2,10.7 3.7,0.7 9.3,1.5 14.4,0.6 5,-0.9 9.3,-3.4 10.7,-8.8 0.6,-2.4 0.3,-4.2 -0.6,-5.5 -0.8,-1.4 -2.2,-2.4 -3.9,-3 -3.4,-1.3 -8.1,-1.4 -11.6,-0.9 -8.2,1 -16.2,2.2 -24,2.2 -7.7,-0.1 -15.4,-1.5 -23,-5.7 -2.6,-3.3 -5.3,-6.5 -8,-9.7 -2.6,-3.3 -5.2,-6.6 -7.9,-9.9 -1.2,-1.5 -3.6,0.2 -2.5,1.9 2.7,3.8 5.1,7.8 7.9,11.5 l 8.2,11.2 c 0.5,1 1,2.1 1.5,3.1 -2.6,8.7 -7,15.7 -13.8,22.6 -4.8,4.9 -10.8,9.4 -12.4,16.6 -1,4.6 0,9.5 2.5,13.2 2.6,3.7 6.8,6 11.8,5.7 12.2,-1 18.3,-15 19.9,-25.4 0.7,-4.9 0.7,-9.9 0,-14.6 -0.7,-4.7 -2.1,-9.2 -3.7,-13.6 l 3.4,4.3 3.5,4.2 c 2.4,2.8 4.6,5.6 7,8.3 4.9,5.4 9.6,10.9 14.7,16 -1.4,7.5 -6.9,13 -12.3,18.6 -5.3,5.5 -10.7,11.4 -10.4,19.8 0.1,4.6 2.3,9 5.5,12.4 3.3,3.3 7.9,5.4 12.5,5.7 11.2,0.5 16.4,-9.9 17.5,-19.3 0.6,-5 0.3,-10 -0.7,-14.9 -0.9,-4.9 -2.4,-9.7 -4.4,-14.2 4.4,4.4 8.8,8.8 13.5,13 l 6.2,5.8 6.4,5.6 c -2.8,7 -7,13.7 -10.3,20.7 -3.3,7 -5.7,14.3 -4.2,22.5 0.8,4.3 3.2,9.9 7,13.7 3.8,3.8 8.8,6.3 14.1,4.6 5.1,-1.7 7.6,-6.8 8.9,-12.4 1.2,-5.6 1.3,-12 1,-16.2 -0.3,-4.7 -1.1,-9.1 -2.5,-13.2 -1.3,-4.2 -3,-8.3 -5.2,-12 l 7.8,6.4 8.1,6 c 5.3,4.2 11.1,7.7 16.7,11.6 -4.9,7.3 -11.5,17.3 -10.5,26.1 0.7,6.4 6.3,14.1 14.1,13.5 9.3,-0.8 11.7,-6.5 11.1,-13.4 -0.3,-3.5 -1.4,-7.3 -2.8,-10.9 -1.4,-3.7 -3.1,-7.5 -4.8,-10.6 l 1.6,0.9 5,3 c 1.7,1 3.4,1.9 5.1,2.8 1.8,1.2 3.5,2.5 5.2,4 2.7,2.5 5.7,4.2 8.8,6 3.1,1.8 6.2,3.6 9.1,5.8 2.4,1.8 6.7,5.6 11.4,8.4 4.7,2.7 9.8,4.1 13.4,1.6 5.5,-4.6 -0.3,-8.4 -3.7,-10.6 z"
           id="path13"
           inkscape:connector-curvature="0" /><path
           d="m 227.6,556.4 c 5.1,4.4 10.6,6.1 15.9,2.1 4.3,-3.2 3.6,-7.9 0.4,-11.2 -1.7,-1.6 -3.8,-2.3 -6.1,-3.1 -4.5,-1.5 -8.4,-2.8 -11.9,-4.6 -3.4,-1.8 -6.6,-4.2 -9.7,-8.2 -0.2,-0.3 -0.5,-0.5 -0.9,-0.6 -0.3,-3.2 -0.3,-6.5 -0.4,-9.7 l -0.2,-9.7 c 0.1,-6.5 0.2,-13 0.4,-19.4 1.8,5.3 4.5,10.3 7.3,15 2.9,4.7 6.5,9 10.3,13 2.9,3.1 7.2,7 11.8,9.1 4.6,2.2 9.6,2.7 14.6,-0.4 3.7,-2.3 4.7,-5.2 4.1,-7.9 -0.7,-2.7 -2.7,-5.5 -5.7,-7.3 -3.4,-2.1 -7.3,-3.8 -11.2,-5.5 -3.9,-1.7 -7.8,-3.5 -11.2,-5.8 -3.7,-2.5 -7.2,-5.2 -10.5,-8.3 -3.2,-3.1 -6.1,-6.4 -8.9,-9.9 l 0.3,-5.4 c 0.1,-1.8 0.3,-3.6 0.5,-5.4 l 0.9,-10.7 1.3,-10.6 0.6,-5.3 0.8,-5.3 c 1.1,5.3 3.3,10.5 5.8,15.2 1.3,2.4 2.6,4.7 4.3,6.9 1.7,2.2 3.4,4.3 5.4,6.3 2.6,2.7 6.4,6.3 10.6,8.3 4.3,2 8.9,2.6 13,-0.4 3.7,-2.6 4,-5.6 2.7,-8.6 -1.3,-3 -4.3,-5.8 -7,-7.8 -5.9,-4.2 -12.5,-7.8 -18.6,-12 -6.1,-4.2 -11.4,-9.1 -14.9,-16 0.4,-3.2 1.1,-6.4 1.6,-9.5 l 1.6,-9.5 1.8,-9.5 0.8,-4.8 1,-4.7 c 0.5,5.2 2,10.4 3.6,15.3 0.8,2.5 1.7,4.9 2.8,7.2 1.1,2.4 2.3,4.7 3.5,6.9 1.9,3.3 4.6,8.2 8.5,11.6 3.9,3.4 8.5,5.2 13.6,2.8 4.3,-2 5.1,-5.3 3.9,-8.8 -1.1,-3.5 -4.1,-7.2 -6.5,-9.6 -5.9,-5.8 -11.8,-11.3 -16.7,-17.4 -4.6,-6.1 -8.5,-13 -9.9,-21.5 0.9,-4.1 1.8,-8.2 2.6,-12.3 1,-4.1 2,-8.2 2.8,-12.3 0.4,-1.9 -2.4,-2.7 -3,-0.8 -1.4,4.5 -2.9,8.9 -4.1,13.3 l -3.7,13.4 c -0.5,1 -1,2.1 -1.5,3.1 -8.4,3.4 -16.6,4.3 -26.2,3.3 -6.7,-0.7 -14.2,-2.6 -20.7,0.6 -4.2,2.1 -7.4,5.9 -8.8,10.2 -1.4,4.3 -0.5,9.1 2.9,12.8 8.5,8.9 23.2,4.9 32.3,-0.3 4.3,-2.5 8.2,-5.6 11.4,-9.1 1.6,-1.7 3.1,-3.6 4.4,-5.5 1.4,-1.9 2.8,-3.9 4,-5.9 -1.8,7 -2.9,14.2 -4.5,21.3 l -1.8,10.7 -0.9,5.4 -0.7,5.4 c -6.7,3.6 -14.5,2.7 -22.2,2 -7.7,-0.7 -15.4,-1.3 -22.1,4.2 -6.8,5.9 -8.5,17.8 -2.7,25.4 6.7,9 18,6.7 26.1,1.6 8.4,-5.4 14.9,-13.5 19.4,-22.1 -0.5,6.2 -1.3,12.4 -1.7,18.6 l -0.6,8.4 c -0.2,2.8 -0.4,5.6 -0.5,8.5 -7.1,2.2 -15,3.1 -22.5,4.8 -7.5,1.8 -14.7,4.5 -20.4,10.7 -2.9,3.3 -5.5,8.6 -6.2,14 -0.9,5.4 0.7,10.8 5.3,13.8 4.5,3 10,1.8 15.2,-0.8 5.2,-2.6 10.1,-6.4 13.2,-9.3 3.3,-3.1 6.5,-6.5 8.9,-10.2 2.5,-3.6 4.4,-7.5 6,-11.5 -0.1,3.4 0.1,6.7 0.1,10.1 0.1,3.4 -0.1,6.8 0.2,10.1 0.4,6.7 0.6,13.5 1.4,20.3 -8.8,0.7 -20.6,1.8 -26.9,8 -2.3,2.3 -4.2,5.7 -4.7,9.3 -0.5,3.6 0.3,7.3 2.9,10.1 6.3,6.9 12.3,5.2 17.4,0.3 5.1,-4.9 9.3,-12.8 12.1,-19.4 0.1,0.6 0.2,1.2 0.3,1.8 l 1.8,11.5 c 0.1,2.1 0.1,4.3 0.1,6.5 -0.2,7.2 1.7,14.1 2,21.4 0.1,3 -0.5,8.8 0.5,14.2 0.9,5.3 2.7,10.3 7.1,11.5 6.4,1.6 5.5,-5.1 5.3,-9.3 -0.6,-6.1 -2.4,-11.4 -4.4,-16.6 -1,-2.6 -2.2,-5.1 -3.4,-7.6 -1.2,-2.5 -2.2,-5.2 -3.3,-7.8 l -1.2,-7.7 c 0.1,-0.9 0.2,-1.8 0.4,-2.7 -0.1,-4.2 -0.9,-8.4 -2.1,-12.6 -0.2,-1.9 -0.3,-3.9 -0.4,-5.8 1.3,3.1 3.1,6.3 5.1,9.4 1.9,3.2 4.1,6.1 6.6,8.3 z"
           id="path15"
           inkscape:connector-curvature="0" /><path
           d="m 248.1,319.2 c 4.4,-4.3 7.4,-9 10.2,-13.8 1.4,-2.4 2.6,-4.9 3.8,-7.4 1.3,-2.5 2.6,-5 4.1,-7.5 l 5.3,-5.7 c 0.8,-0.4 1.6,-0.9 2.4,-1.3 3.2,-2.7 6,-6 8.5,-9.5 l 4.3,-3.9 c -0.8,1.5 -1.5,3.1 -2.3,4.7 -0.7,1.7 -1.3,3.4 -1.9,5.2 -1.1,3.5 -2,7.1 -2.2,10.3 -0.3,6.7 1.8,12.1 8.2,13.7 2.6,0.7 4.7,0.2 6.2,-1.1 1.5,-1.3 2.6,-3.2 2.8,-5.6 0.2,-2.3 -0.6,-4.4 -1.4,-6.7 -3.3,-9.1 -5.6,-15 -3.5,-24.8 0.1,-0.3 0,-0.7 -0.1,-1.1 2.4,-2.2 5,-4.2 7.4,-6.3 2.5,-2.1 4.9,-4.2 7.5,-6.2 5.2,-3.9 10.1,-8.1 15.4,-11.7 -3,4.7 -5.3,9.9 -7.2,15.1 -1.9,5.1 -3.1,10.7 -3.7,16.1 -0.3,2.2 -0.5,4.6 -0.6,7.2 0,2.6 0.2,5.2 0.8,7.7 1.2,5 3.9,9.2 9.4,11.1 4.1,1.4 7,0.4 8.7,-1.8 1.9,-2.1 2.6,-5.5 2.2,-9 -1,-8 -4.4,-16.2 -5.2,-24.6 -0.9,-9 0.1,-17.7 2,-26.6 11.9,-8.1 23.8,-16 36.1,-23.2 -3.3,4.5 -6.3,9 -8.3,14 -2.1,5.1 -3.6,10.2 -4.3,15.7 -0.4,3.8 -0.8,9 0.2,13.5 1,4.6 3.5,8.5 8.4,9.9 4.3,1.3 6.8,-0.5 8.3,-3.4 1.5,-2.8 2,-6.8 1.8,-10.2 -0.2,-3.6 -0.7,-7.3 -1.1,-11.1 -0.4,-3.7 -0.8,-7.3 -1.1,-11 -0.4,-7.3 -0.1,-14.9 3.2,-21.7 l 8.4,-4.8 8.5,-4.6 c 5.6,-3.2 11.4,-5.9 17.1,-9.1 -3.6,3.9 -6.9,8 -9.8,12.4 -2.8,4.5 -5.2,9.1 -7.1,13.7 -1.5,3.5 -3.4,8.9 -3.7,14 -0.3,5.1 1.2,9.8 6.2,12.4 4.4,2.2 7.3,0.6 9.3,-2.5 2.1,-3 3.2,-7.5 3.5,-11 0.8,-8.4 1.4,-16.3 3.2,-23.9 0.9,-3.8 2.1,-7.6 3.8,-11.1 1.7,-3.5 3.9,-6.9 6.8,-10.1 3.7,-2 7.5,-3.6 11.3,-5.5 l 5.6,-2.8 5.7,-2.7 c 1.8,-0.8 0.6,-3.5 -1.3,-2.8 -4.4,1.5 -8.7,3.3 -13,5.1 l -6.4,2.6 -6.3,2.9 c -1.1,0.3 -2.2,0.5 -3.4,0.7 -7.9,-4.6 -13.8,-10.3 -18.9,-18.4 -3.7,-5.7 -6.7,-12.6 -13.4,-15.8 -8.6,-4.3 -20.1,-0.3 -21.7,9.7 -1.7,12.3 10.5,21.1 20.4,25.2 4.7,1.9 9.4,2.7 14.2,3.2 4.8,0.4 9.5,0.2 14.1,-0.6 -13.1,6.4 -25.9,13.2 -38.4,20.6 -7,-3.1 -11.1,-9.6 -15.4,-16.1 -4.3,-6.5 -8.6,-12.8 -17,-14.5 -9.1,-2 -19.1,4.6 -21.7,13.6 -2.8,11 6.1,18.3 15,21.4 4.8,1.7 9.8,2.5 14.7,2.7 2.5,0.1 5,0 7.4,-0.3 2.5,-0.2 5,-0.5 7.4,-0.9 -5.4,3.2 -10.4,6.8 -15.7,10.2 -4.7,3.1 -9.2,6.5 -13.9,9.7 -6.2,-4.3 -11.8,-9.8 -17.8,-14.6 -6.1,-4.7 -12.6,-8.6 -21,-9.1 -4.4,-0.3 -10.2,1 -14.8,3.9 -2.3,1.4 -4.4,3.2 -5.7,5.3 -1.4,2.2 -2,4.7 -1.8,7.4 0.5,5.4 4.9,8.9 10.1,11.4 5.2,2.5 11.3,3.8 15.5,4.5 4.6,0.8 9.2,1 13.5,0.6 2.2,-0.2 4.3,-0.5 6.5,-0.9 2.1,-0.4 4.3,-0.9 6.4,-1.5 l -4,3.1 -3.9,3.2 -7.8,6.5 -7.5,6.8 c -2.5,2.3 -5,4.5 -7.4,7 -6.1,-6.5 -14.3,-15 -23.1,-16 -3.2,-0.4 -7,0.4 -10.2,2.1 -3.1,1.8 -5.5,4.8 -6.1,8.6 -1.4,9.2 3.6,12.8 10.6,13.8 7,1 15.7,-0.7 22.7,-2.6 l -1.2,1.4 c -2.7,2.8 -5.3,5.7 -7.9,8.5 -1.5,1.4 -3.3,2.8 -5.1,4.1 -5.7,4.4 -10,10.1 -15.5,14.9 -2.3,2 -7.2,5.1 -10.8,9.2 -3.6,4 -6.4,8.6 -4.6,12.7 3.2,5.8 8,0.9 11.1,-1.9 z"
           id="path17"
           inkscape:connector-curvature="0" /><path
           d="m 495.5,157.8 c 5.5,-0.9 10.9,-2.1 16.6,-3.1 2.6,0.1 5.2,0.5 7.8,0.7 0.8,0.3 1.7,0.6 2.5,1 4.1,0.8 8.4,0.7 12.7,0.8 l 5.8,0.8 c -3.3,0.7 -6.9,1.6 -10.3,2.8 -3.5,1.3 -6.8,3 -9.4,4.9 -5.4,3.8 -8.3,8.7 -5.6,14.8 2.2,5 7,5.6 10.9,2.9 2,-1.3 3.1,-3.3 4.4,-5.3 5,-8 8.2,-13.8 17.2,-18.2 0.3,-0.1 0.6,-0.4 0.8,-0.7 l 9.6,1.8 4.8,0.9 4.7,1.1 9.5,2.2 c 3.1,0.8 6.2,1.7 9.4,2.5 -2.8,0.3 -5.5,0.8 -8.3,1.4 -2.7,0.6 -5.4,1.5 -8,2.4 -5.2,1.8 -10.2,4.1 -14.9,7.1 -3.7,2.3 -8.4,5.3 -11.5,9.4 -3.1,4.1 -4.7,8.9 -2.8,14.4 2.9,8 10.3,6.9 15.2,1.8 5.6,-5.7 9.9,-13.5 16,-19.4 3.2,-3.2 6.7,-5.8 10.4,-8.3 3.7,-2.5 7.6,-4.7 11.7,-6.7 6.9,2.2 13.8,4.1 20.5,6.5 3.4,1.2 6.8,2.2 10.1,3.5 l 10,3.7 c -5.6,0.2 -10.9,0.7 -16.2,2.2 -5.2,1.5 -10.3,3.6 -15,6.4 -3.2,2 -7.5,5 -10.5,8.6 -2.9,3.7 -4.5,8 -2.5,12.7 1.7,4.2 4.6,4.9 7.8,4.4 3.1,-0.5 6.6,-2.7 9.1,-5 5.4,-5 10.4,-10.6 15.9,-15.5 5.5,-4.9 11.5,-9.3 19,-11 l 9,3.5 8.9,3.8 c 6,2.4 11.8,5.2 17.7,7.7 -5.3,-0.4 -10.6,-0.4 -15.8,0 -5.2,0.6 -10.3,1.6 -15.2,3 -3.6,1 -9.1,2.9 -13.3,5.8 -4.1,2.9 -6.9,7 -5.8,12.6 1,4.8 4.1,6 7.8,5.7 3.6,-0.2 7.8,-2.2 10.8,-4.1 7.1,-4.7 13.7,-9 20.7,-12.4 7.1,-3.4 14.5,-5.4 23.2,-4.9 3.9,1.6 7.5,3.6 11.4,5.4 l 5.7,2.7 5.6,2.8 c 1.8,0.9 3.1,-1.7 1.4,-2.7 l -6,-3.6 -6.1,-3.4 -6.1,-3.4 c -2,-1.1 -4.1,-2.1 -6.2,-3.2 -0.9,-0.7 -1.8,-1.4 -2.7,-2.2 -1.3,-9.1 -0.5,-17.2 2.6,-26.3 2.2,-6.4 5.7,-13.1 4,-20.3 -2,-9.4 -12.3,-15.9 -21.1,-10.9 -10.6,6.3 -10,21.4 -7,31.6 1.5,4.9 3.7,9 6.3,13.1 2.6,4 5.8,7.5 9.2,10.7 -13.2,-6.2 -26.4,-12.1 -40,-17.2 -2,-7.4 0.6,-14.7 3.1,-22.1 2.4,-7.4 4.7,-14.7 0.8,-22.3 -2.1,-4 -5.9,-7.4 -10.4,-8.8 -4.5,-1.5 -9.5,-1.5 -13.8,0.3 -10.4,4.6 -10.5,16.2 -7.4,25 1.7,4.8 4.1,9.2 7.1,13.2 1.5,2 3.1,3.8 4.8,5.6 1.7,1.9 3.5,3.6 5.3,5.2 -5.8,-2.2 -11.8,-4 -17.8,-5.9 l -4,-1.3 -4.1,-1.1 -8.1,-2.3 c -0.5,-7.5 0.3,-15.4 0.3,-23.1 -0.1,-7.7 -1.1,-15.2 -6,-22.1 -1.3,-1.8 -3.1,-3.6 -5.2,-5.3 -2.1,-1.6 -4.6,-3 -7.1,-3.9 -5.1,-1.8 -10.6,-1.9 -14.7,2 -3.9,3.8 -3.9,9.4 -2.6,15 0.7,2.8 1.7,5.6 2.8,8.1 1.1,2.6 2.3,5 3.3,6.9 4.6,8.2 10.7,14.3 17.9,19.4 -13.1,-3.3 -26.4,-5.5 -39.8,-7.4 1.3,-8.7 2.8,-20.5 -1.9,-28 -1.7,-2.7 -4.7,-5.2 -8,-6.5 -3.4,-1.3 -7.1,-1.5 -10.5,0.5 -8.1,4.8 -7.7,10.9 -4.2,16.9 1.8,3 4.4,5.9 7.3,8.6 2.9,2.7 6,5.4 8.9,7.5 l -1.8,-0.1 -5.8,-0.6 c -1.9,-0.1 -3.9,-0.2 -5.8,-0.3 -2.1,-0.3 -4.2,-0.7 -6.4,-1.3 -1.7,-0.5 -3.5,-0.9 -5.2,-1.1 -1.8,-0.2 -3.5,-0.3 -5.3,-0.5 -3.6,-0.3 -7.1,-0.5 -10.7,-1.3 -3,-0.6 -8.5,-2.1 -13.9,-2.6 -5.4,-0.6 -10.6,0.5 -12.7,4.4 -3,5.7 3.8,6.7 7.8,7.1 6.4,1.2 12,1 17.4,-0.1 z"
           id="path19"
           inkscape:connector-curvature="0" /><path
           d="m 882,380.8 c -11.5,-4.4 -23,5.6 -29,14.2 -5.9,8.4 -8.1,17.6 -9.1,27 -3,-14.2 -7.1,-28.2 -11.4,-42 4.4,-6.1 11.8,-8.7 19.1,-11.4 7.3,-2.7 14.4,-5.5 18,-13.3 1.9,-4.2 1.8,-9.1 0.3,-13.6 -0.8,-2.2 -1.9,-4.3 -3.4,-6.2 -1.5,-1.8 -3.4,-3.3 -5.5,-4.4 -10,-5.3 -19.1,1.8 -24.2,9.8 -5.2,8.5 -7.6,18.6 -7.9,28.4 -2.2,-5.8 -4.2,-11.7 -6.5,-17.5 l -3.1,-7.9 c -1,-2.6 -2.1,-5.3 -3.3,-7.8 5.5,-5.1 12.2,-9.3 18.2,-14.2 6,-4.9 11.3,-10.4 13.6,-18.5 1.2,-4.2 1.2,-10.1 -0.5,-15.3 -1.7,-5.2 -5.3,-9.4 -10.8,-10.1 -5.3,-0.7 -9.8,2.8 -13.3,7.3 -3.6,4.6 -6.3,10.2 -7.9,14.2 -0.9,2.1 -1.6,4.3 -2.1,6.5 -0.6,2.2 -1.1,4.4 -1.4,6.6 -0.7,4.4 -0.8,8.7 -0.4,13 -5.9,-12.1 -11.9,-24.2 -19.2,-35.7 7.7,-4.5 17.8,-10.6 20.8,-19 2.3,-6.2 0.2,-15.3 -6.8,-18.3 -8.7,-3.4 -13.4,0.8 -15.8,7.3 -2.3,6.5 -2.9,15.6 -2.5,22.7 l -1.1,-1.4 -6.5,-9.7 c -1.1,-1.8 -2.1,-3.7 -3,-5.8 -1.5,-3.3 -3.3,-6.3 -5.3,-9.3 -2,-2.9 -4.1,-5.8 -5.7,-9.1 -1.3,-2.8 -3.6,-8 -6.6,-12.5 -1.5,-2.2 -3.2,-4.3 -5.1,-5.6 -1.9,-1.3 -4,-2 -6.2,-1.6 -6.4,1.2 -2.8,7.1 -0.6,10.5 3.1,5.4 7,9.3 11.1,13 4,3.8 8.6,7.1 12.8,11 l 4.3,6.5 c 0.3,0.8 0.6,1.7 0.8,2.5 2,3.6 4.5,7.2 7.3,10.5 l 3,5 c -2.6,-2.1 -5.6,-4.3 -8.8,-6.2 -3.1,-1.9 -6.4,-3.5 -9.6,-4.4 -6.4,-1.8 -12.1,-0.9 -15.2,4.9 -2.5,4.8 0.1,8.8 4.6,10.3 2.2,0.8 4.4,0.5 6.8,0.2 9.4,-1.1 16.1,-2.3 25,2.1 0.3,0.2 0.7,0.2 1,0.1 6.4,11.3 11.8,23.1 17,34.9 -4,-3.9 -8.5,-7.4 -13.1,-10.4 -4.8,-2.9 -9.8,-5.3 -14.9,-7.2 -4.1,-1.5 -9.6,-3.1 -14.6,-3.1 -5.1,0 -9.8,1.8 -12.9,6.7 -4.7,7.4 1.3,12.1 8,13.1 7.8,0.9 17,-0.8 25.1,0.4 4.4,0.6 8.7,1.6 13,2.9 4.3,1.3 8.3,3.1 12.4,5 2.9,6.6 5.2,13.4 7.8,20 2.2,6.8 4.8,13.5 6.8,20.3 -3.4,-4.3 -7.4,-8 -11.8,-11.2 -2.2,-1.6 -4.4,-3.1 -6.8,-4.4 -2.4,-1.3 -5,-2.4 -7.6,-3.3 -3.5,-1.3 -8.5,-2.9 -13.1,-2.9 -4.7,0 -9.1,1.5 -11.5,5.9 -2.2,3.9 -1.2,6.8 1.3,8.9 1.2,1 2.8,1.9 4.5,2.5 1.7,0.7 3.4,1.2 5.1,1.4 7.1,1.2 14.7,1.6 22.1,2.8 7.2,1.2 14.2,3.3 20.4,8 3.6,12.4 7.2,24.7 10.3,37.3 -1.4,-2.2 -2.9,-4.4 -4.6,-6.4 -1.7,-2 -3.5,-4 -5.3,-5.9 -3.7,-3.7 -7.5,-7.1 -11.8,-10 -3.1,-2.2 -7.8,-5.4 -12.7,-6.8 -5,-1.4 -9.9,-1 -13.5,3.3 -3.1,3.7 -2.3,7 0.3,9.6 2.6,2.6 6.8,4.7 10,5.9 15.8,5.4 30.9,9.4 40.8,23.6 l 2.9,12.2 c 0.9,4.1 1.8,8.2 2.8,12.3 0.5,1.9 3.3,1.4 3,-0.6 l -2,-13.8 -2.6,-13.7 0.1,-3.4 c 6.1,-6.7 13,-11.1 22.2,-14.3 6.4,-2.3 13.8,-3.7 18.5,-9.5 6,-6.9 5.3,-19.2 -4.5,-22.9 z"
           id="path21"
           inkscape:connector-curvature="0" /></g></g></switch></svg>