<?xml version="1.0" encoding="UTF-8" standalone="no"?>
<svg
   xmlns:dc="http://purl.org/dc/elements/1.1/"
   xmlns:cc="http://creativecommons.org/ns#"
   xmlns:rdf="http://www.w3.org/1999/02/22-rdf-syntax-ns#"
   xmlns:svg="http://www.w3.org/2000/svg"
   xmlns="http://www.w3.org/2000/svg"
   xmlns:sodipodi="http://sodipodi.sourceforge.net/DTD/sodipodi-0.dtd"
   xmlns:inkscape="http://www.inkscape.org/namespaces/inkscape"
   version="1.1"
   id="Layer_1"
 
   x="0px"
   y="0px"
    class="withFill"
   viewBox="0 0 1000 1000"
   width="100%"
   height="100%"
   style="enable-background:new 0 0 1000 1000;"
   xml:space="preserve"
   ><style
     type="text/css"
     id="style3">
	.noFillSVG{fill:none;}

</style><switch
     id="switch5"
     transform="translate(-91.627104,59.379516)"><g
       id="g7"><g
         id="g9"><g
           id="g11"><path
             class="noFillSVG"
             d="m 563.3,125.8 c -0.6,-1.5 -2,-3.1 -3,-4.6 -3,-4.8 -6.4,-9.5 -9.3,-14.3 -2.4,0.6 -2.3,2 -1.3,3.9 0.4,3.5 3,6.1 4.9,8.8 1.9,2.7 4.7,5.5 7.1,7.3 2.6,1.8 2.6,1.5 1.6,-1.1 z"
             id="path13"
             inkscape:connector-curvature="0"
             style="fill:none" /><path
             class="noFillSVG"
             d="m 618.2,132.9 c -1.4,1.2 -2.5,1.8 -2.9,3.9 -0.4,2.1 -0.3,3.6 0.4,6.4 0.7,2.8 2.4,7.8 5.1,10 -0.6,-6.7 -1.6,-13.5 -2.6,-20.3 z"
             id="path15"
             inkscape:connector-curvature="0"
             style="fill:none" /><path
             class="noFillSVG"
             d="m 592.4,140.9 c -1,-2.4 -2.9,-4.6 -4.5,-6.7 0.3,2 0.4,4 0.6,6 0.6,5.3 1.8,10.4 3.6,15.4 0,0.1 0.2,0.2 0.2,0.2 1.5,-5.2 2.2,-9.7 0.1,-14.9 z"
             id="path17"
             inkscape:connector-curvature="0"
             style="fill:none" /><path
             class="noFillSVG"
             d="m 564.1,163.3 c 0.1,0.2 0.7,0.6 0.6,0.3 -0.5,-1.2 -2.4,-2.8 -3.6,-3.7 1,1.1 2.1,2.4 3,3.4 z"
             id="path19"
             inkscape:connector-curvature="0"
             style="fill:none" /><path
             class="noFillSVG"
             d="m 570.6,148.8 c 3,2.8 5.8,5.5 9.6,7.2 2.3,1 4.8,1.5 7.2,2 -5.8,-3.8 -11.9,-7.3 -18.1,-10.5 0.5,0.4 0.9,0.9 1.3,1.3 z"
             id="path21"
             inkscape:connector-curvature="0"
             style="fill:none" /><path
             class="noFillSVG"
             d="m 856.8,319.2 c 5.6,-8.5 7.4,-17.4 7.7,-27.5 -1.8,5.4 -3.4,10.3 -6.8,15.1 -7,9.7 -15.7,17.1 -16.6,29.8 4.4,-6.5 11.3,-10.8 15.7,-17.4 z"
             id="path23"
             inkscape:connector-curvature="0"
             style="fill:none" /><path
             class="noFillSVG"
             d="m 718.1,252.7 c -6.6,-6.3 -13.6,-12.2 -21,-17.6 15.3,17.5 25.9,35.2 49.4,41.8 -0.1,-0.5 -0.3,-0.9 -0.4,-1.4 -10.3,-6.7 -19.2,-14.4 -28,-22.8 z"
             id="path25"
             inkscape:connector-curvature="0"
             style="fill:none" /><path
             class="noFillSVG"
             d="m 538,191.2 c -1.5,-0.3 -3.1,-0.6 -4.5,-0.8 -0.1,0 -0.2,0.3 -0.1,0.3 1.4,0.2 3.1,0.5 4.6,0.5 z"
             id="path27"
             inkscape:connector-curvature="0"
             style="fill:none" /><path
             class="noFillSVG"
             d="m 699.1,150.8 c 0,0 0,0 0,0 -0.1,0 -0.1,-0.2 -0.1,-0.1 0,0 0.4,0.6 0.4,0.6 0,-0.1 -0.3,-0.4 -0.3,-0.5 z"
             id="path29"
             inkscape:connector-curvature="0"
             style="fill:none" /><path
             class="noFillSVG"
             d="m 698.3,149.3 c 0,-0.1 -0.2,-0.6 -0.3,-0.6 0,0 -0.1,0.1 -0.1,0.2 0,0.1 0.4,0.6 0.4,0.7 0.1,-0.1 0.1,-0.3 0,-0.3 z"
             id="path31"
             inkscape:connector-curvature="0"
             style="fill:none" /><path
             class="noFillSVG"
             d="m 815.8,265 c -2.6,-2.9 -4.7,-5.1 -7.3,-7.6 -4.4,-4.2 -8.9,-7.9 -13.7,-11.5 7.9,9.5 16.7,17.8 25.8,26 -0.6,-1.1 -1.3,-3.1 -1.9,-4 -0.7,-0.8 -2.6,-2.5 -2.9,-2.9 z"
             id="path33"
             inkscape:connector-curvature="0"
             style="fill:none" /><path
             class="noFillSVG"
             d="m 632.9,298.9 c -5.4,4.7 -10.1,10.1 -15.6,14.7 11.4,-3.3 21.8,-7 30.3,-15.5 4.4,-4.4 6.9,-10.1 11.2,-14.7 -0.6,0.2 -1.3,-0.1 -1.8,0.2 -8.8,4.1 -16.8,9 -24.1,15.3 z"
             id="path35"
             inkscape:connector-curvature="0"
             style="fill:none" /><path
             class="noFillSVG"
             d="m 729.1,342.5 c -11,2.1 -21.1,6.4 -31.2,11.3 13.4,-2.4 26.3,-5.9 39,-10.9 2.4,-1 4.6,-2.4 6.8,-3.7 -4.9,1.5 -9.5,2.3 -14.6,3.3 z"
             id="path37"
             inkscape:connector-curvature="0"
             style="fill:none" /><path
             class="noFillSVG"
             d="m 804.7,315.4 c -6.6,-9 -14.6,-16.2 -23.3,-23.1 6,7.8 9.7,16.5 14.7,25 6.9,11.9 15.1,23 23.9,33.5 -3.9,-12.4 -7.5,-24.7 -15.3,-35.4 z"
             id="path39"
             inkscape:connector-curvature="0"
             style="fill:none" /><path
             class="noFillSVG"
             d="m 519.9,187.3 c 0.1,0 0.2,-0.2 0.1,-0.2 -0.1,0 -1.6,-0.2 -1.6,-0.2 -0.1,0.1 1.4,0.4 1.5,0.4 z"
             id="path41"
             inkscape:connector-curvature="0"
             style="fill:none" /><path
             class="noFillSVG"
             d="m 766.1,378.5 c 10.3,6 20.8,11.5 32,15.3 15,5.1 29.4,9.8 43.7,16.6 -29.5,-21.7 -60.6,-35.2 -96.5,-42.7 7.2,3 14,6.8 20.8,10.8 z"
             id="path43"
             inkscape:connector-curvature="0"
             style="fill:none" /><path
             class="noFillSVG"
             d="m 545.9,210 c 12.4,3 24.9,5 37.6,6.6 -12.2,-5.4 -24.4,-6.5 -37.6,-6.6 z"
             id="path45"
             inkscape:connector-curvature="0"
             style="fill:none" /><path
             class="noFillSVG"
             d="m 537.9,230.9 c -8,-0.8 -16.1,-0.9 -24.2,-0.5 4.2,6.1 18.4,1.7 24.2,0.5 0.1,0 0,0 0,0 z"
             id="path47"
             inkscape:connector-curvature="0"
             style="fill:none" /><path
             class="noFillSVG"
             d="m 590.2,297.7 c 0.9,-0.3 1.6,-0.6 2,-1.5 -0.7,0.5 -1.3,1 -2,1.5 z"
             id="path49"
             inkscape:connector-curvature="0"
             style="fill:none" /><path
             class="noFillSVG"
             d="m 632,255.5 c -10.5,-5.3 -21.7,-8.4 -33,-11.5 21,12.4 41.7,24.4 64.6,33 -10.1,-7.9 -20.1,-15.7 -31.6,-21.5 z"
             id="path51"
             inkscape:connector-curvature="0"
             style="fill:none" /><path
             class="st0"
             d="m 864.1,425.8 c 0.4,-0.6 -0.1,-1.4 -0.4,-1.8 -0.3,-0.3 -0.4,-0.2 -0.4,-0.4 -6,-14.8 -12.6,-29.3 -21,-42.9 0.3,-13.3 0.6,-26.7 -1.1,-39.9 3.7,-6.4 9.7,-10.5 14.4,-16.1 2.7,-3.2 5,-6.6 6.8,-10.5 4.4,-10.1 5.3,-19.9 3.7,-30.8 -0.2,-1.5 -2.1,-1.3 -2.4,0 -2.4,13.2 -8.3,22.5 -16.5,32.9 -3.2,4 -6,8.4 -7.4,13.4 -0.5,-3.2 -1,-6.5 -1.5,-9.7 7.8,-28.3 10.1,-55.4 2.1,-83.9 1,-0.5 2,-0.3 1.6,-2.2 -1.6,-7.4 -8.4,-32.6 -19.2,-27.1 -4.2,2.1 -0.1,10.1 1.3,13.3 1.4,3.2 3.2,5.5 5.7,8.2 2.4,2.7 5.7,5.5 9.1,7.3 7.4,26.5 4.2,51.4 -1.7,77.9 -2.8,-14.3 -7.2,-28 -12.9,-41.5 -0.5,-1.2 -1,-2.2 -1.8,-3.6 -7.2,-13.3 -15.5,-25.7 -25.5,-37.3 -0.6,-5.1 -4.4,-10 -7.3,-13.7 -2.9,-3.7 -7.6,-11.9 -12.6,-8.8 -8.7,5.4 5.2,16.8 10.4,20.9 1.5,1.2 4.5,4.2 6.7,5.4 0.6,0.4 1.9,0.2 2.2,-0.5 0.3,-0.7 0.3,-0.8 0.5,-1.4 7,8.9 13.1,18.2 18.6,28.2 -0.5,-0.5 -1.2,-1.2 -1.7,-1.6 -7,-6.8 -14.3,-12.7 -22.4,-18.3 -0.8,-0.5 -1.4,0.6 -1,1.3 5.6,10.9 22.4,26 29.7,30.3 4.8,2.9 1.1,0.6 1.1,0.6 5.2,10.7 7.5,21 10.4,31.9 0.9,3.3 1.4,6.6 2.1,10 -6.1,-10.2 -12.4,-19 -21.5,-27.2 -9,-8.3 -20.1,-16.3 -28.5,-25.7 0.5,-0.5 1,-0.6 1.3,-1.5 1.5,-4.4 -2.1,-10 -4.3,-13.3 -3.4,-5.3 -7,-8.9 -11.7,-12.7 -0.9,-0.7 -2.2,-0.4 -2.5,0.6 -3.5,10 4.8,17.8 11.6,24.1 1.1,1 1.7,1.7 2.8,2.3 7.8,10.3 16.2,17.9 26.1,26.6 10.9,9.6 21.9,20.5 27.8,34.3 1,7.9 1.9,13.8 2.6,22.2 0.7,8.4 -0.5,19.2 0.1,28 -1.2,-1.6 -2.3,-3.4 -3.6,-5 -2.5,-3.4 -5,-6.8 -7.8,-10 -0.1,-0.1 0.2,0 -0.2,-0.4 -0.4,-0.4 -1.5,-1.8 -2,-2.4 -4.2,-14.5 -8.3,-29.2 -17.5,-41.3 -9.2,-12.2 -20.8,-20.9 -32.8,-30 -0.9,-0.7 -2,0.6 -1.2,1.4 11.9,11.3 17.9,25.8 26.6,39.3 5.4,8.4 11.1,15.8 17.6,23.4 -12.9,-11 -26.6,-20.2 -41.2,-28.7 -9.1,-11.7 -16.3,-23.1 -21.5,-37.2 -3.4,-9.1 -5.9,-19.3 -8.7,-28.7 0.6,-25.5 10.7,-49 11.3,-74.4 0.3,0 0.6,0.1 0.9,-0.1 4.2,-2.3 2.9,-9 2.5,-12.7 -0.6,-6.5 -0.8,-14.4 -5.2,-18.8 -2.3,-2.3 -4.8,-3.5 -6.8,0.7 -2.8,5.7 -1.8,19.9 3.5,25.5 0.7,2.1 1.6,3.6 3.2,4.9 -1.1,23 -9.2,44.6 -11.6,67.5 -0.6,-2.1 -1.2,-4.1 -1.8,-6.2 -7.5,-26.2 -14,-52 -29.2,-75 0.3,-0.2 0.5,-0.2 0.7,-0.5 4.4,-6.3 -3.1,-14.2 -7.1,-18.3 -2.7,-2.8 -4.9,-4.4 -8,-4 -3.2,0.4 -4.3,2.6 -3.9,5.5 0.6,4.3 4.1,7.5 6.9,10.5 3,3.1 5.6,7.3 10.3,7.2 7.3,12.9 11.5,25.6 15.5,40 4,14.5 8.3,30.1 12.8,44.7 -10.7,-16.8 -22.1,-33.1 -34.9,-48.4 0.1,-0.2 0.2,-0.3 0.1,-0.6 -2.3,-12.4 -8.7,-20.5 -20,-25.9 -0.7,-0.4 -1.8,0.3 -1.8,1.1 -0.1,10 6.9,15.6 14,21.6 2,1.7 3.5,3.4 6,4.3 0.1,0.1 0.3,0.1 0.5,0.1 13.2,18.5 26.7,36.9 38.7,56.3 1.2,4.5 2.5,9.1 3.8,13.6 -10.9,-7.3 -19.5,-15.6 -29.3,-24.7 -10.7,-9.9 -22.7,-18.6 -36.3,-24.6 -1.3,-0.6 -2.1,1.1 -0.9,1.8 1.2,0.7 2.2,0.9 3.1,1.5 24,17.2 34.7,46.1 65.4,52.5 4.3,13 9.6,24.7 18.3,35.4 -0.9,-0.5 -1.8,-1 -2.7,-1.5 -24.9,-14.1 -47.1,-30.3 -67.6,-50.4 -6.2,-6.1 -12.4,-12.9 -19.3,-18.3 -8.1,-11.1 -14,-23.3 -22.5,-34.2 -5,-6.4 -10.8,-12.3 -16.8,-17.9 -4.3,-10.7 -8.8,-21.3 -12.5,-32.2 0,0 0.1,0 0.1,0 2.7,-0.4 4.2,-2.9 4.6,-5.2 0.9,-4.6 -0.2,-9.9 -1.2,-14 -1,-4.1 -1.8,-9 -5.3,-10.7 -7,-3.5 -10.9,4.3 -10.6,10.5 0.3,6.1 3,12.1 7.6,16.2 0.8,1.3 1.6,2.3 3,2.9 2.7,10.2 6,19.7 10.5,29.2 -1.5,-1.3 -3,-2.5 -4.5,-3.8 -11.4,-9 -22.7,-18.1 -33.9,-27.3 2.1,-4.2 3.2,-8.8 1.9,-13.4 -2,-7.3 -7.5,-12.1 -12,-17.8 -1,-1.2 -2.9,-0.1 -2,1.3 4.3,6 3.7,12.8 4.9,19.8 0.3,1.9 0.9,3.5 1.4,5.3 -6.4,-5.7 -12,-11.8 -17.2,-18.5 0.4,-0.5 0.9,-0.5 1.1,-1.4 1.6,-5.2 -3.1,-11.2 -5.6,-15.5 -3.5,-6.1 -7.3,-13.1 -13.8,-15.5 -3.9,-1.4 -7.3,0.3 -7.8,4.5 -0.7,5.7 3.6,11.8 7.1,16.4 3.5,4.6 8,10 14.1,10.8 0.2,0 0.3,-0.1 0.4,-0.1 1,0.7 2,1.2 3.3,1.2 4.6,7.6 9.9,14.2 16.3,20.3 -7.9,-4.9 -16,-9.3 -24.5,-13 -1.5,-0.6 -3.2,-1.5 -4.6,-1.8 -1.4,-0.2 -1.7,1.3 -0.7,1.9 1,0.5 2.3,0.8 3.4,1.4 6.1,3.4 10.2,9.1 16.2,12.9 4.3,2.7 9.4,3.4 14.3,4.1 0.7,0.1 1.1,0.8 1.7,1.1 0.6,0.3 1,0.3 1.5,-0.1 9.8,8.2 19.7,16.3 29.7,24.3 1.4,1.1 2.6,2.1 3.9,3.3 -2.4,-1.1 -4.8,-2.2 -7.2,-3 -15.8,-5.1 -32.3,-7.6 -47.2,-15 0.2,-2.1 -0.1,-3.7 -1.2,-5.6 -4.3,-7.2 -9.7,-12.6 -17.4,-16.5 -3.6,-1.8 -12,-5.8 -14.1,-0.3 -2.1,5.5 6,10.1 9.7,13.2 1.2,1 2.5,1.6 4,3 4,4 8.9,8.2 15,8.5 1.7,0.1 2.1,-0.3 3.4,-1 20.1,11.1 43.2,12.9 63.3,24.2 6.3,6.1 12.3,13 17.4,20 5.1,7 9.5,13.8 14.5,20.7 -12.4,-9.5 -26.3,-17.2 -40.6,-23.3 -26.6,-11.3 -52.7,-19.4 -81.4,-22.9 -1,-1.6 -2.1,-3 -4,-3.5 -4.1,-1.2 -8.6,-1.2 -12.7,-1.6 -5.8,-0.6 -11.2,-1.4 -16.9,-2.1 -1.2,-0.1 -2,1.1 -1.4,2.2 0,0.1 0.1,0.1 0.2,0.2 0.4,2.8 4.9,4.8 6.8,5.7 4.3,2 8,3.1 12.3,4.1 4.3,1 9.1,2.2 13.1,0.9 2.9,-1 3.1,-2.6 3,-5 26.1,3.4 50.3,11.5 74.4,22.2 -11.2,-0.7 -21.8,0.7 -32.6,3.2 -0.1,-0.1 -0.1,-0.3 -0.3,-0.3 -15.2,-7.8 -30.5,-8.5 -47.2,-8.1 -0.9,0 -1.2,1.3 -0.3,1.6 13.9,4 27.7,7 42,8.5 -12.9,4.2 -25,9.3 -38.6,9.9 -0.5,-0.8 -0.6,-1.4 -1.5,-1.9 -4,-2.3 -8.5,-2.4 -13.1,-2.7 -4.6,-0.3 -9,-0.4 -13.6,0.8 -2.5,0.6 -6.2,1.8 -6.5,4.8 -0.3,3 2.4,4.8 4.9,5.5 9.9,2.8 18.9,1.5 28.6,-1.4 0.9,-0.3 1.2,-1.3 1.2,-2.1 0,-0.8 0.4,-1.2 0.2,-2 12.4,0.3 23,-3.2 34.8,-6.8 15.8,-4.9 31.9,-6.4 48.6,-6.1 22.2,10.8 41.9,24.9 59.1,42 10.2,10.2 18.7,19.4 29.1,28.2 -10.9,-4.1 -36.5,-4.9 -44,-7.7 -5.7,-2.1 -1.3,-0.5 -1.3,-0.5 -11.5,-10.9 -23,-18.5 -36.4,-25 -13.4,-6.5 -26.8,-10 -41,-13.6 -1.2,-0.3 -1.9,1.3 -0.7,1.9 23.2,13.7 44.9,28.2 71,37 -3.9,0.4 5,-0.5 -1.9,0.2 -6.9,0.8 -26.4,3.7 -37.2,5.6 -7.5,1.3 -18.8,2.7 -26.3,6.3 -4.5,-4.8 -13.5,-3.4 -18.6,-2.1 -6.4,1.6 -15.1,3.5 -14,11.2 1.1,7.7 12.5,3.8 17.4,1.6 0.2,-0.1 0.3,0.2 0.6,0.2 5.9,-0.8 14.7,-1.9 15.3,-9.2 10.2,-3.8 21.4,-4.2 32,-5.5 7.2,-0.9 13.3,-1.9 20.3,-2.8 -5,2.9 -10,5.6 -14.4,9.3 -8.6,7 -15.7,15.7 -25.1,21.6 -1.2,0.8 -0.4,2.5 0.9,2.2 11.5,-3 22.7,-5.4 32.4,-12.8 7.6,-5.7 11.5,-15.7 19,-21.7 1.2,-0.1 2.2,-0.3 3.4,-0.3 24,-1.2 45.4,1.6 64.6,17 0.4,0.3 0.7,0 0.7,-0.4 4,2.8 8,5.6 12.2,8.2 11.4,7 23.3,13.4 34.9,20.2 -29.5,-0.8 -56.1,12.8 -85.6,5.8 -0.2,-3.2 -3.8,-6.1 -5.8,-7.8 -3.7,-3.1 -6.8,-5.1 -10.9,-6.8 -2.5,-1.1 -5.2,-2.2 -6.7,0.7 -1.5,2.9 1.4,5.4 3.5,7.1 3.6,2.9 7.3,5.7 11.3,7.8 1,0.5 2.1,0.7 2.8,0.9 2.1,0.5 3.8,1.2 5.4,-0.4 20.3,6.5 38.5,2.9 58.9,-1.2 -9.5,4.6 -19.1,5.7 -29.4,8.4 -10.3,2.7 -20.4,7.8 -30,12.6 -0.8,0.4 -0.4,1.8 0.4,1.7 13.1,-1.8 25.7,-4.7 38.2,-9 5.3,-1.8 10.8,-4.2 15.6,-7 4.8,-2.8 8.7,-6.8 14,-8 8.8,-1.9 17.4,-1.3 26.3,0 11.5,8.3 22.9,15.1 32.3,26.1 15.6,18.4 28,38.6 38.8,60.2 -37.1,-29.1 -73.7,-48 -120.9,-54.1 -1.1,-0.1 -1,1.4 -0.1,1.7 11.4,3.7 21.7,9.6 32,15.6 9.2,5.4 18.9,10.1 28.8,13.4 21.4,7.3 41.3,14.8 60.3,27.1 0.8,0.5 1.6,1.3 2.4,1.9 4.1,9.4 7.4,19.1 10.9,28.7 0.4,1.2 2.2,0.9 1.8,-0.4 -3.6,-9.1 -6.3,-18.2 -9.6,-27.1 z m -6.5,-119 c 3.4,-4.7 5,-9.7 6.8,-15.1 -0.3,10 -2.1,19 -7.7,27.5 -4.4,6.6 -11.3,10.9 -15.7,17.4 1,-12.7 9.6,-20.1 16.6,-29.8 z m -62.8,-60.9 c 4.8,3.6 9.3,7.3 13.7,11.5 2.6,2.4 4.7,4.7 7.3,7.6 0.3,0.4 2.2,2.1 2.9,3 0.6,0.9 1.3,2.9 1.9,4 -9.1,-8.3 -17.9,-16.6 -25.8,-26.1 z M 698,148.7 c 0,0 0.3,0.5 0.3,0.6 0,0.1 0.1,0.2 0,0.2 0,0 -0.4,-0.6 -0.4,-0.7 0,-0.1 0.1,-0.2 0.1,-0.1 z m 1.1,2.1 c 0,0 0,0 0,0 0.1,0.1 0.3,0.5 0.3,0.5 0,-0.1 -0.4,-0.6 -0.3,-0.5 -0.1,-0.2 0,0 0,0 z m -2,84.3 c 7.4,5.4 14.4,11.3 21,17.6 8.8,8.4 17.7,16.1 28,22.8 0.1,0.5 0.3,0.9 0.4,1.4 -23.6,-6.6 -34.1,-24.3 -49.4,-41.8 z m -81.4,-91.9 c -0.8,-2.8 -0.8,-4.2 -0.4,-6.4 0.4,-2.1 1.5,-2.8 2.9,-3.9 1,6.8 2,13.6 2.6,20.4 -2.6,-2.3 -4.3,-7.3 -5.1,-10.1 z m -61.1,-23.6 c -1.9,-2.7 -4.5,-5.3 -4.9,-8.8 -1,-2 -1.1,-3.3 1.3,-3.9 2.9,4.8 6.3,9.6 9.3,14.3 1,1.5 2.4,3.1 3,4.6 1,2.6 1,2.9 -1.6,1.1 -2.4,-1.8 -5.2,-4.5 -7.1,-7.3 z m 33.9,20.6 c -0.2,-2.1 -0.3,-4 -0.6,-6 1.6,2.1 3.5,4.2 4.5,6.7 2.1,5.2 1.5,9.7 0,14.9 0,0.1 -0.2,-0.1 -0.2,-0.2 -1.9,-5 -3.1,-10.1 -3.7,-15.4 z m -8.3,15.8 c -3.8,-1.7 -6.6,-4.4 -9.6,-7.2 -0.5,-0.4 -0.9,-0.9 -1.3,-1.3 6.2,3.2 12.3,6.7 18.1,10.5 -2.4,-0.5 -4.9,-1 -7.2,-2 z m -15.5,7.7 c 0.1,0.3 -0.4,-0.2 -0.6,-0.3 -0.9,-1 -2,-2.3 -3,-3.3 1.2,0.8 3,2.3 3.6,3.6 z m -31.2,26.6 c 1.4,0.2 3.1,0.5 4.5,0.8 -1.5,0 -3.2,-0.2 -4.6,-0.5 -0.1,0 0,-0.3 0.1,-0.3 z m -13.6,-3 c -0.1,0 -1.5,-0.4 -1.5,-0.4 0,0 1.5,0.1 1.6,0.2 0.1,0 0,0.2 -0.1,0.2 z m -6.2,43.1 c 8.1,-0.4 16.1,-0.3 24.2,0.5 0,0 0.1,0 0.1,0.1 -5.9,1.1 -20.1,5.5 -24.3,-0.6 z M 545.9,210 c 13.2,0 25.4,1.2 37.6,6.6 -12.7,-1.6 -25.2,-3.5 -37.6,-6.6 z m 44.3,87.7 c 0.7,-0.5 1.3,-0.9 2,-1.5 -0.5,0.9 -1.1,1.2 -2,1.5 z m 8.8,-53.8 c 11.3,3.2 22.4,6.2 33,11.5 11.5,5.8 21.5,13.6 31.6,21.4 C 640.7,268.3 620,256.4 599,243.9 Z m 48.5,54.2 c -8.5,8.5 -18.9,12.2 -30.3,15.5 5.5,-4.6 10.2,-10 15.6,-14.7 7.3,-6.3 15.3,-11.2 24,-15.2 0.6,-0.3 1.2,0 1.8,-0.2 -4.2,4.4 -6.7,10.1 -11.1,14.6 z m 50.4,55.7 c 10,-4.9 20.2,-9.2 31.2,-11.3 5.1,-1 9.8,-1.8 14.7,-3.4 -2.2,1.4 -4.4,2.8 -6.8,3.7 -12.8,5.2 -25.7,8.6 -39.1,11 z m 98.2,-36.4 c -4.9,-8.5 -8.7,-17.2 -14.7,-25 8.7,6.9 16.7,14.1 23.3,23.1 7.8,10.7 11.4,23 15.4,35.5 -8.9,-10.7 -17.1,-21.7 -24,-33.6 z m 2,76.3 c -11.1,-3.8 -21.7,-9.3 -32,-15.3 -6.8,-3.9 -13.6,-7.8 -20.8,-10.8 35.9,7.4 67,20.9 96.5,42.7 -14.3,-6.8 -28.7,-11.5 -43.7,-16.6 z"
             id="path53"
             inkscape:connector-curvature="0"
             style="fill:#231f20" /></g><g
           id="g55"><path
             class="noFillSVG"
             d="m 288.7,370.3 c -0.7,0.2 -1.5,0.7 -2.3,1 -2.4,1 -4.7,2.2 -7.1,3.3 0.1,1.1 0.7,1.2 1.7,0.9 1.6,0.1 3,-1 4.4,-1.6 1.4,-0.7 2.8,-1.7 3.8,-2.7 0.9,-1.1 0.8,-1.2 -0.5,-0.9 z"
             id="path57"
             inkscape:connector-curvature="0"
             style="fill:none" /><path
             class="noFillSVG"
             d="m 295.7,345.8 c 0.4,0.7 0.6,1.3 1.6,1.6 0.9,0.3 1.6,0.4 2.9,0.2 1.3,-0.2 3.7,-0.6 4.9,-1.6 -3.1,-0.1 -6.3,-0.2 -9.4,-0.2 z"
             id="path59"
             inkscape:connector-curvature="0"
             style="fill:none" /><path
             class="noFillSVG"
             d="m 297.5,358.1 c -1.2,0.3 -2.3,1 -3.3,1.6 0.9,0 1.8,0.1 2.8,0.1 2.4,0.1 4.9,-0.1 7.2,-0.6 0,0 0.1,-0.1 0.1,-0.1 -2.2,-1 -4.2,-1.6 -6.8,-1 z"
             id="path61"
             inkscape:connector-curvature="0"
             style="fill:none" /><path
             class="noFillSVG"
             d="m 305.8,372.5 c 0.1,-0.1 0.3,-0.3 0.2,-0.2 -0.6,0.2 -1.4,0.9 -1.9,1.4 0.5,-0.5 1.2,-0.9 1.7,-1.2 z"
             id="path63"
             inkscape:connector-curvature="0"
             style="fill:none" /><path
             class="noFillSVG"
             d="m 299.7,368.5 c 1.5,-1.2 2.9,-2.3 3.9,-3.9 0.6,-1 1,-2.1 1.4,-3.1 -2.1,2.4 -4.1,4.9 -6,7.5 0.2,-0.1 0.4,-0.3 0.7,-0.5 z"
             id="path65"
             inkscape:connector-curvature="0"
             style="fill:none" /><path
             class="noFillSVG"
             d="m 396.5,250 c -3.5,-3.1 -7.4,-4.5 -12,-5.3 2.3,1.2 4.5,2.2 6.4,4.1 3.9,3.8 6.7,8.3 12.4,9.5 -2.7,-2.5 -4.1,-5.9 -6.8,-8.3 z"
             id="path67"
             inkscape:connector-curvature="0"
             style="fill:none" /><path
             class="noFillSVG"
             d="m 356.8,308.5 c -3.3,2.6 -6.5,5.4 -9.4,8.4 9,-5.8 17.8,-9.4 22.3,-19.6 -0.2,0 -0.4,0.1 -0.7,0.1 -3.6,4.2 -7.7,7.7 -12.2,11.1 z"
             id="path69"
             inkscape:connector-curvature="0"
             style="fill:none" /><path
             class="noFillSVG"
             d="m 316.7,386.2 c -0.3,0.6 -0.5,1.4 -0.7,2 0,0 0.1,0.1 0.1,0.1 0.3,-0.6 0.5,-1.4 0.6,-2.1 z"
             id="path71"
             inkscape:connector-curvature="0"
             style="fill:none" /><path
             class="noFillSVG"
             d="m 309.3,310.3 c -0.1,0 -0.1,0 0,0 -0.1,0 -0.1,0 0,0 0,0 0.2,-0.1 0.2,-0.1 0,0 -0.2,0.1 -0.2,0.1 z"
             id="path73"
             inkscape:connector-curvature="0"
             style="fill:none" /><path
             class="noFillSVG"
             d="m 308.5,310.5 c 0,0 -0.3,0.1 -0.3,0.1 0,0 0,0.1 0.1,0.1 0,0 0.3,-0.2 0.2,-0.2 0.1,0 0,0 0,0 z"
             id="path75"
             inkscape:connector-curvature="0"
             style="fill:none" /><path
             class="noFillSVG"
             d="m 369,264.9 c -1.5,1 -2.7,1.8 -3.9,2.8 -2.2,1.7 -4.2,3.5 -6.1,5.4 4.8,-2.9 9.2,-6.4 13.6,-10 -0.5,0.2 -1.5,0.4 -1.9,0.6 -0.6,0.4 -1.5,1.1 -1.7,1.2 z"
             id="path77"
             inkscape:connector-curvature="0"
             style="fill:none" /><path
             class="noFillSVG"
             d="m 372.1,350.4 c 1.8,2.8 3.9,5.3 5.6,8.1 -0.7,-5.4 -1.7,-10.4 -5,-14.8 -1.7,-2.3 -4.1,-3.8 -5.9,-6.1 0,0.3 -0.1,0.6 0,0.9 1.3,4.2 2.9,8.1 5.3,11.9 z"
             id="path79"
             inkscape:connector-curvature="0"
             style="fill:none" /><path
             class="noFillSVG"
             d="m 398.4,309.6 c 0.2,5.1 1.5,10 3,14.9 -0.2,-6.3 -0.9,-12.4 -2.3,-18.5 -0.3,-1.2 -0.8,-2.3 -1.2,-3.4 0.4,2.4 0.4,4.6 0.5,7 z"
             id="path81"
             inkscape:connector-curvature="0"
             style="fill:none" /><path
             class="noFillSVG"
             d="m 391.2,273.4 c -4.5,2.4 -8.3,5.5 -12.1,9 4,-2.2 8.2,-3.3 12.4,-5 5.9,-2.3 11.5,-5.3 16.9,-8.6 -6,1 -11.8,1.8 -17.2,4.6 z"
             id="path83"
             inkscape:connector-curvature="0"
             style="fill:none" /><path
             class="noFillSVG"
             d="m 313.8,394.2 c 0,-0.1 -0.1,-0.1 -0.1,-0.1 0,0.1 -0.2,0.7 -0.2,0.7 0,0.1 0.3,-0.5 0.3,-0.6 z"
             id="path85"
             inkscape:connector-curvature="0"
             style="fill:none" /><path
             class="noFillSVG"
             d="m 417.3,295.2 c 3.4,-4.3 6.6,-8.7 9.1,-13.5 3.3,-6.5 6.4,-12.7 10.5,-18.7 -11.9,11.9 -20.1,25.2 -25.9,41 1.8,-3.2 4,-6 6.3,-8.8 z"
             id="path87"
             inkscape:connector-curvature="0"
             style="fill:none" /><path
             class="noFillSVG"
             d="m 325.8,383.9 c 2.2,-5.4 4,-11 5.6,-16.6 -3.3,5.1 -4.7,10.6 -5.6,16.6 z"
             id="path89"
             inkscape:connector-curvature="0"
             style="fill:none" /><path
             class="noFillSVG"
             d="m 334.8,389 c -0.9,3.6 -1.5,7.3 -1.9,11 3.1,-1.6 2.1,-8.3 1.9,-11 0,-0.1 0,-0.1 0,0 z"
             id="path91"
             inkscape:connector-curvature="0"
             style="fill:none" /><path
             class="noFillSVG"
             d="m 368.7,369.7 c -0.1,-0.4 -0.2,-0.8 -0.5,-1 0.1,0.3 0.3,0.7 0.5,1 z"
             id="path93"
             inkscape:connector-curvature="0"
             style="fill:none" /><path
             class="noFillSVG"
             d="m 352.3,347.8 c -3.1,4.4 -5.3,9.3 -7.5,14.2 7.1,-8.7 13.9,-17.3 19.3,-27.1 -4.2,4.1 -8.4,8.1 -11.8,12.9 z"
             id="path95"
             inkscape:connector-curvature="0"
             style="fill:none" /><path
             class="st0"
             d="m 445.4,253.8 c -0.2,-0.2 -0.7,-0.1 -0.8,0 -0.2,0.1 -0.1,0.2 -0.2,0.2 -7.2,1.7 -14.2,3.7 -20.9,6.7 -6,-1 -12.1,-2.1 -18.2,-2.2 -2.7,-2.1 -4.1,-5.1 -6.3,-7.6 -1.3,-1.4 -2.7,-2.7 -4.3,-3.8 -4.3,-2.7 -8.7,-3.8 -13.7,-3.7 -0.7,0 -0.7,0.9 -0.1,1.1 5.8,2 9.7,5.3 13.9,9.7 1.6,1.7 3.4,3.3 5.6,4.3 -1.5,0 -3,0 -4.5,0 -12.3,-5.5 -24.5,-8.4 -38,-6.6 -0.2,-0.5 0,-0.9 -0.9,-0.9 -3.5,0.2 -15.4,1.6 -13.6,6.9 0.7,2.1 4.6,0.7 6.1,0.3 1.5,-0.4 2.7,-1.1 4.1,-2 1.4,-0.9 2.9,-2.2 3.9,-3.6 12.5,-1.6 23.6,1.5 35.3,6 -6.7,0.3 -13.2,1.4 -19.7,3.1 -0.6,0.1 -1.1,0.3 -1.8,0.6 -6.5,2.4 -12.7,5.3 -18.7,9.1 -2.3,-0.1 -4.9,1.3 -6.7,2.4 -1.9,1.1 -5.9,2.6 -4.8,5.1 1.8,4.3 8,-1.2 10.2,-3.3 0.7,-0.6 2.2,-1.8 2.9,-2.7 0.2,-0.3 0.2,-0.9 -0.1,-1.1 -0.3,-0.2 -0.3,-0.2 -0.6,-0.3 4.5,-2.6 9.2,-4.7 14.1,-6.5 -0.3,0.2 -0.6,0.5 -0.9,0.7 -3.6,2.7 -6.7,5.7 -9.8,9 -0.3,0.3 0.2,0.7 0.5,0.6 5.3,-1.8 13.3,-8.4 15.8,-11.5 1.6,-2 0.4,-0.4 0.4,-0.4 5.2,-1.7 10.1,-2 15.2,-2.6 1.6,-0.2 3.1,-0.2 4.7,-0.3 -5.1,2.1 -9.5,4.4 -13.8,7.9 -4.3,3.5 -8.8,8 -13.6,11.2 -0.2,-0.3 -0.2,-0.5 -0.6,-0.7 -1.9,-1 -4.7,0.3 -6.4,1.1 -2.7,1.2 -4.5,2.6 -6.6,4.5 -0.4,0.3 -0.3,1 0.1,1.2 4.3,2.3 8.4,-1 11.7,-3.6 0.5,-0.4 0.9,-0.7 1.3,-1.1 5.2,-2.8 9.2,-6.2 13.8,-10.1 5.1,-4.3 10.8,-8.6 17.5,-10.3 3.7,0.1 6.4,0.1 10.3,0.3 3.9,0.2 8.7,1.5 12.7,1.8 -0.8,0.4 -1.7,0.8 -2.5,1.3 -1.7,0.9 -3.4,1.8 -5.1,2.9 0,0 0,-0.1 -0.2,0.1 -0.2,0.1 -0.9,0.6 -1.2,0.8 -6.9,0.9 -13.8,1.8 -20,5.2 -6.1,3.4 -10.9,8 -15.8,12.9 -0.4,0.4 0.2,1 0.6,0.6 5.9,-4.7 12.9,-6.4 19.7,-9.4 4.2,-1.9 7.9,-4 11.8,-6.4 -5.9,5.1 -11,10.7 -15.8,16.8 -5.9,3.4 -11.6,5.9 -18.4,7.3 -4.4,0.9 -9.1,1.4 -13.6,2 -11.5,-2 -21.6,-8.2 -33.1,-10.2 0,-0.2 0.1,-0.3 0,-0.4 -0.8,-2.1 -3.9,-1.9 -5.6,-2 -3,-0.2 -6.6,-0.6 -8.9,1.1 -1.2,0.9 -1.9,2 -0.2,3.2 2.4,1.6 8.9,2.2 11.8,0.1 1,-0.2 1.7,-0.5 2.4,-1.1 10.4,2.1 19.7,7.2 29.9,9.8 -1,0.1 -1.9,0.3 -2.9,0.4 -12.4,1.7 -24.6,2.9 -36.1,8.2 -0.1,-0.1 -0.1,-0.3 -0.2,-0.4 -2.6,-2.4 -6.7,0.5 -8.8,2 -1.4,1 -2.3,1.9 -2.4,3.4 0,1.5 0.9,2.1 2.2,2.1 2,0 3.7,-1.4 5.2,-2.4 1.6,-1.1 3.7,-2 4,-4.2 6.4,-2.4 12.4,-3.5 19.2,-4.3 6.9,-0.8 14.3,-1.7 21.2,-2.8 -8.4,3.7 -16.5,7.8 -24.3,12.6 -0.1,0 -0.1,-0.1 -0.3,-0.1 -5.8,0.2 -9.9,2.6 -13.1,7.4 -0.2,0.3 0,0.9 0.4,0.9 4.6,0.7 7.5,-2.1 10.8,-4.9 0.9,-0.8 1.8,-1.4 2.4,-2.4 0,-0.1 0.1,-0.1 0.1,-0.2 9.3,-4.7 18.6,-9.6 28.2,-13.8 2.2,-0.3 4.3,-0.5 6.4,-0.8 -4,4.5 -8.4,7.8 -13.2,11.6 -5.2,4.2 -10,9.1 -13.6,14.8 -0.4,0.6 0.4,1 0.7,0.5 0.4,-0.5 0.5,-1 0.9,-1.3 9.5,-9.8 23.3,-12.6 28.3,-26.2 6.2,-1.1 11.9,-2.7 17.3,-5.9 -0.3,0.4 -0.6,0.7 -0.9,1.1 -8.1,10.4 -17,19.4 -27.5,27.3 -3.2,2.4 -6.7,4.8 -9.6,7.5 -5.6,2.9 -11.5,4.8 -17.1,7.9 -3.2,1.8 -6.3,4.1 -9.3,6.5 -5.2,1.2 -10.3,2.6 -15.5,3.5 0,0 0,0 0,-0.1 0,-1.2 -1,-2.1 -2.1,-2.4 -2,-0.7 -4.5,-0.6 -6.4,-0.4 -1.9,0.2 -4.2,0.2 -5.2,1.7 -2.1,3 1.2,5.2 4,5.5 2.8,0.3 5.7,-0.6 7.9,-2.4 0.6,-0.3 1.1,-0.6 1.5,-1.2 4.8,-0.5 9.3,-1.4 14,-2.8 -0.7,0.6 -1.4,1.2 -2,1.8 -4.9,4.6 -9.8,9.1 -14.7,13.6 -1.8,-1.3 -3.8,-2 -6,-1.8 -3.5,0.4 -6,2.6 -8.9,4.3 -0.6,0.4 -0.2,1.3 0.5,1 3,-1.5 6.1,-0.8 9.3,-0.9 0.9,0 1.6,-0.2 2.5,-0.3 -3,2.5 -6.2,4.7 -9.6,6.6 -0.2,-0.2 -0.2,-0.4 -0.5,-0.6 -2.3,-1.1 -5.3,0.7 -7.4,1.5 -3,1.2 -6.5,2.4 -8,5.2 -0.9,1.7 -0.3,3.3 1.5,3.8 2.6,0.7 5.6,-0.8 7.9,-2.1 2.3,-1.3 5.1,-3 5.8,-5.7 0,-0.1 0,-0.1 0,-0.2 0.4,-0.4 0.7,-0.8 0.8,-1.4 3.8,-1.6 7.1,-3.5 10.3,-6 -2.8,3.3 -5.3,6.6 -7.6,10.3 -0.4,0.6 -0.9,1.3 -1.1,2 -0.2,0.6 0.5,0.9 0.8,0.4 0.3,-0.4 0.5,-1 0.9,-1.4 2,-2.6 4.8,-4 7,-6.5 1.5,-1.8 2.2,-4 2.8,-6.2 0.1,-0.3 0.5,-0.4 0.6,-0.7 0.2,-0.2 0.2,-0.4 0.1,-0.7 4.4,-3.9 8.8,-7.9 13.1,-11.9 0.6,-0.5 1.2,-1 1.7,-1.6 -0.7,1 -1.3,2 -1.9,3.1 -3.4,6.8 -5.6,14.2 -10,20.5 -0.9,-0.2 -1.7,-0.2 -2.6,0.2 -3.6,1.5 -6.4,3.5 -8.7,6.8 -1.1,1.5 -3.4,5.1 -1.1,6.4 2.3,1.3 5,-2 6.6,-3.5 0.5,-0.5 0.9,-1 1.6,-1.6 2.1,-1.6 4.3,-3.5 4.9,-6.2 0.2,-0.8 0,-1 -0.2,-1.6 6.4,-8.4 8.8,-18.8 15.3,-27.1 3.2,-2.4 6.8,-4.7 10.3,-6.6 3.5,-1.9 6.9,-3.4 10.4,-5.2 -5.2,5 -9.6,10.8 -13.3,16.9 -7,11.3 -12.4,22.7 -15.9,35.5 -0.8,0.3 -1.5,0.8 -1.9,1.6 -0.8,1.8 -1.1,3.8 -1.6,5.7 -0.7,2.6 -1.4,5 -2.1,7.6 -0.1,0.5 0.4,1 0.9,0.8 0,0 0.1,-0.1 0.1,-0.1 1.3,0 2.5,-1.9 3.1,-2.7 1.2,-1.8 2,-3.4 2.7,-5.3 0.7,-1.9 1.6,-4 1.3,-5.9 -0.2,-1.4 -1,-1.6 -2.1,-1.7 3.3,-11.6 8.6,-22.1 15.1,-32.3 -1.1,5 -1.2,9.9 -0.7,15 -0.1,0 -0.1,0 -0.2,0.1 -4.6,6.4 -5.9,13.3 -6.9,20.9 0,0.4 0.5,0.6 0.7,0.3 2.8,-6 5,-12.1 6.7,-18.5 1,6.1 2.5,12 1.9,18.2 -0.4,0.2 -0.7,0.2 -1,0.6 -1.3,1.7 -1.7,3.7 -2.1,5.8 -0.4,2.1 -0.8,4.1 -0.6,6.2 0.1,1.2 0.4,3 1.8,3.3 1.4,0.3 2.3,-0.8 2.8,-1.9 1.9,-4.3 2,-8.5 1.3,-13.1 -0.1,-0.5 -0.5,-0.6 -0.9,-0.7 -0.4,-0.1 -0.5,-0.3 -0.9,-0.2 1,-5.6 0.1,-10.7 -0.8,-16.3 -1.1,-7.5 -0.8,-14.9 0.5,-22.5 6.4,-9.4 14.1,-17.4 23.1,-24 5.3,-4 10.1,-7.2 14.8,-11.3 -2.6,4.7 -4.7,16.2 -6.5,19.5 -1.4,2.4 -0.3,0.6 -0.3,0.6 -5.7,4.5 -9.9,9.2 -13.8,14.8 -3.9,5.6 -6.3,11.5 -8.9,17.7 -0.2,0.5 0.5,0.9 0.8,0.5 7.8,-9.6 15.9,-18.5 21.6,-29.8 -0.1,1.8 0.1,-2.3 0,0.9 -0.1,3.2 -0.1,12.3 0,17.3 0.1,3.5 -0.1,8.7 1.1,12.4 -2.5,1.7 -2.4,5.9 -2.2,8.3 0.3,3 0.6,7.1 4.1,7.1 3.6,0 2.6,-5.4 1.9,-7.8 0,-0.1 0.1,-0.1 0.1,-0.3 0.1,-2.7 0.1,-6.8 -3.1,-7.6 -1,-4.9 -0.5,-10 -0.4,-14.9 0.1,-3.3 0,-6.2 0.1,-9.4 1,2.5 1.9,4.9 3.3,7.2 2.6,4.4 6.1,8.2 8.1,12.9 0.3,0.6 1.1,0.3 1.1,-0.3 -0.6,-5.4 -0.9,-10.7 -3.6,-15.6 -2.1,-3.9 -6.4,-6.3 -8.6,-10.1 0,-0.5 0,-1 0.1,-1.6 1.1,-11 3.8,-20.5 12.1,-28.2 0.2,-0.1 0,-0.3 -0.1,-0.3 1.5,-1.6 3.1,-3.3 4.5,-5 4,-4.7 7.7,-9.7 11.5,-14.5 -2.4,13.4 2,26.4 -3.2,39.3 -1.4,-0.1 -3,1.3 -3.9,2.1 -1.6,1.5 -2.8,2.8 -3.8,4.5 -0.7,1 -1.4,2.2 -0.1,3.1 1.2,0.9 2.5,-0.3 3.5,-1.1 1.6,-1.4 3.1,-2.9 4.3,-4.6 0.3,-0.4 0.4,-0.9 0.6,-1.2 0.4,-0.9 0.8,-1.7 0.2,-2.5 4.3,-8.8 3.9,-17.3 3.4,-26.9 1.5,4.6 1.3,9.1 1.8,13.9 0.5,4.9 2.2,9.8 3.7,14.5 0.1,0.4 0.8,0.3 0.8,-0.1 0.1,-6.1 -0.4,-12 -1.5,-18 -0.5,-2.5 -1.2,-5.2 -2.1,-7.5 -0.9,-2.4 -2.5,-4.4 -2.7,-6.9 -0.3,-4.2 0.6,-8 1.8,-11.9 4.5,-4.7 8.4,-9.4 14.1,-12.9 9.4,-5.9 19.4,-10.1 30,-13.6 -15.7,14.9 -26.8,30.3 -32.7,51.3 -0.1,0.5 0.5,0.6 0.7,0.2 2.4,-4.9 5.8,-9.2 9.2,-13.5 3.1,-3.8 5.8,-7.9 8.1,-12.2 4.8,-9.3 9.5,-17.8 16.4,-25.6 0.3,-0.3 0.7,-0.6 1,-1 4.5,-1.2 9.2,-2.1 13.8,-3 0.6,-0.1 0.5,-1 -0.1,-0.9 -4.3,0.1 -8.6,0.7 -12.9,1.6 z m -54.5,-5.1 c -1.9,-1.9 -4.1,-2.9 -6.4,-4.1 4.5,0.8 8.5,2.2 12,5.3 2.7,2.4 4.2,5.8 6.8,8.3 -5.7,-1.2 -8.5,-5.6 -12.4,-9.5 z M 359,273.2 c 2,-1.9 3.9,-3.7 6.1,-5.4 1.3,-1 2.4,-1.8 3.9,-2.8 0.2,-0.1 1.1,-0.9 1.6,-1.1 0.5,-0.2 1.4,-0.4 1.9,-0.6 -4.3,3.5 -8.7,7 -13.5,9.9 z m -50.8,37.4 c 0,0 0.3,-0.1 0.3,-0.1 0,0 0.1,0 0.1,0 0,0 -0.3,0.2 -0.4,0.1 0,0.1 0,0 0,0 z m 1,-0.3 c 0,0 0,0 0,0 0.1,0 0.2,-0.1 0.2,-0.1 0,0 -0.2,0.1 -0.2,0.1 0,0 0,0 0,0 z m 38.2,6.6 c 3,-3 6.1,-5.8 9.4,-8.4 4.4,-3.4 8.5,-7 12.2,-11.2 0.2,0 0.4,-0.1 0.7,-0.1 -4.5,10.3 -13.3,13.9 -22.3,19.7 z m -47.2,30.8 c -1.3,0.2 -2,0.1 -2.9,-0.2 -0.9,-0.3 -1.2,-0.9 -1.6,-1.6 3.2,0 6.3,0 9.4,0.2 -1.2,1 -3.6,1.4 -4.9,1.6 z m -14.9,26.1 c -1.4,0.7 -2.7,1.7 -4.4,1.6 -1,0.3 -1.6,0.3 -1.7,-0.9 2.4,-1 4.8,-2.2 7.1,-3.3 0.8,-0.3 1.6,-0.9 2.3,-1 1.2,-0.3 1.4,-0.2 0.4,0.8 -0.8,1.1 -2.3,2.2 -3.7,2.8 z m 11.7,-14 c -1,0 -1.8,-0.1 -2.8,-0.1 1.1,-0.6 2.2,-1.3 3.3,-1.6 2.5,-0.6 4.5,0 6.8,1 0,0 0,0.1 -0.1,0.1 -2.4,0.5 -4.8,0.7 -7.2,0.6 z m 6.6,4.9 c -1,1.6 -2.4,2.7 -3.9,3.9 -0.2,0.2 -0.5,0.3 -0.7,0.5 1.9,-2.6 3.9,-5.1 6,-7.5 -0.4,1 -0.8,2.1 -1.4,3.1 z m 2.4,7.5 c 0.1,0 -0.1,0.2 -0.2,0.2 -0.5,0.3 -1.2,0.8 -1.7,1.1 0.5,-0.4 1.3,-1.1 1.9,-1.3 z m 10,16 c 0.2,-0.6 0.4,-1.4 0.7,-2 -0.1,0.7 -0.3,1.4 -0.6,2.1 0,0 -0.1,0 -0.1,-0.1 z m -2.2,6 c 0,0.1 -0.3,0.7 -0.3,0.7 0,0 0.2,-0.7 0.2,-0.7 0,-0.1 0.1,-0.1 0.1,0 z m 19.1,5.7 c 0.4,-3.7 1,-7.4 1.9,-11 0,0 0,-0.1 0,0 0.2,2.8 1.2,9.5 -1.9,11 z m -7.1,-16 c 0.9,-6 2.3,-11.5 5.6,-16.6 -1.6,5.6 -3.3,11.2 -5.6,16.6 z m 42.9,-14.2 c -0.2,-0.3 -0.3,-0.7 -0.5,-1 0.3,0.2 0.4,0.6 0.5,1 z m -23.9,-7.6 c 2.2,-4.9 4.4,-9.8 7.5,-14.2 3.4,-4.8 7.6,-8.8 11.9,-12.9 -5.5,9.7 -12.3,18.4 -19.4,27.1 z m 27.9,-18.4 c 3.3,4.4 4.3,9.4 5,14.8 -1.7,-2.8 -3.9,-5.3 -5.6,-8.1 -2.4,-3.7 -4,-7.7 -5.3,-11.9 -0.1,-0.3 0.1,-0.6 0,-0.9 1.8,2.2 4.2,3.8 5.9,6.1 z m 28.8,-19.2 c -1.6,-4.9 -2.8,-9.8 -3,-14.9 -0.1,-2.4 -0.2,-4.6 -0.5,-6.9 0.5,1.1 1,2.2 1.2,3.4 1.4,6.1 2.1,12.2 2.3,18.4 z m -10,-47.1 c -4.2,1.7 -8.4,2.8 -12.4,5 3.7,-3.5 7.5,-6.6 12.1,-9 5.4,-2.8 11.2,-3.6 17.2,-4.6 -5.4,3.3 -11,6.3 -16.9,8.6 z m 34.9,4.3 c -2.5,4.8 -5.7,9.2 -9.1,13.5 -2.2,2.8 -4.5,5.6 -6.3,8.7 5.8,-15.8 14,-29 25.9,-41 -4.1,6.1 -7.2,12.3 -10.5,18.8 z"
             id="path97"
             inkscape:connector-curvature="0"
             style="fill:#231f20" /></g><g
           id="g99"><path
             class="noFillSVG"
             d="m 455,739.2 c 0.2,1.1 0.9,2.4 1.3,3.6 1.3,3.7 2.9,7.5 4.2,11.3 1.7,0 1.9,-1 1.5,-2.5 0.3,-2.5 -1.1,-4.7 -2,-6.8 -0.9,-2.2 -2.3,-4.5 -3.8,-6.1 -1.4,-1.6 -1.5,-1.4 -1.2,0.5 z"
             id="path101"
             inkscape:connector-curvature="0"
             style="fill:none" /><path
             class="noFillSVG"
             d="m 418.3,725.8 c 1.2,-0.6 2,-0.8 2.6,-2.3 0.6,-1.5 0.8,-2.4 0.7,-4.5 -0.1,-2 -0.5,-5.8 -2,-7.7 -0.5,4.9 -0.9,9.7 -1.3,14.5 z"
             id="path103"
             inkscape:connector-curvature="0"
             style="fill:none" /><path
             class="noFillSVG"
             d="m 437.3,724.4 c 0.3,1.8 1.2,3.6 2,5.3 0.1,-1.4 0.3,-2.8 0.5,-4.2 0.4,-3.7 0.4,-7.4 -0.1,-11.1 0,-0.1 -0.1,-0.2 -0.1,-0.1 -1.8,3.2 -2.9,6.1 -2.3,10.1 z"
             id="path105"
             inkscape:connector-curvature="0"
             style="fill:none" /><path
             class="noFillSVG"
             d="m 460.2,713.3 c -0.1,-0.1 -0.4,-0.5 -0.3,-0.3 0.2,0.9 1.2,2.3 1.9,3.1 -0.5,-0.9 -1.1,-1.9 -1.6,-2.8 z"
             id="path107"
             inkscape:connector-curvature="0"
             style="fill:none" /><path
             class="noFillSVG"
             d="m 453.5,722.3 c -1.6,-2.4 -3.1,-4.7 -5.5,-6.4 -1.4,-1.1 -3,-1.8 -4.6,-2.5 3.4,3.6 7,6.9 10.8,10.1 -0.2,-0.5 -0.5,-0.8 -0.7,-1.2 z"
             id="path109"
             inkscape:connector-curvature="0"
             style="fill:none" /><path
             class="noFillSVG"
             d="m 283.3,560.6 c -5.2,4.9 -7.8,10.8 -9.6,17.7 2.1,-3.4 3.9,-6.6 7,-9.3 6.3,-5.6 13.4,-9.3 16,-17.9 -3.9,3.8 -9.3,5.7 -13.4,9.5 z"
             id="path111"
             inkscape:connector-curvature="0"
             style="fill:none" /><path
             class="noFillSVG"
             d="m 368.3,627.9 c 3.6,5.4 7.5,10.5 11.7,15.4 -7.8,-14.4 -12.3,-28.3 -27.5,-36.4 0,0.3 0.1,0.7 0.1,1 6,6.2 10.9,12.9 15.7,20 z"
             id="path113"
             inkscape:connector-curvature="0"
             style="fill:none" /><path
             class="noFillSVG"
             d="m 482.5,698.3 c 1,0.5 2,0.9 3,1.3 0.1,0 0.2,-0.2 0.1,-0.2 -0.9,-0.5 -2,-0.9 -3.1,-1.1 z"
             id="path115"
             inkscape:connector-curvature="0"
             style="fill:none" /><path
             class="noFillSVG"
             d="m 365.5,700.9 c 0,0.1 0,0.1 0,0 0,0 0.1,0.1 0.1,0.1 0,0 -0.2,-0.4 -0.2,-0.5 -0.1,0.1 0.1,0.4 0.1,0.4 z"
             id="path117"
             inkscape:connector-curvature="0"
             style="fill:none" /><path
             class="noFillSVG"
             d="m 365.8,702.1 c 0,0.1 0.1,0.4 0.1,0.5 0,0 0.1,0 0.1,-0.1 0,-0.1 -0.2,-0.5 -0.2,-0.5 0,-0.1 0,0 0,0.1 z"
             id="path119"
             inkscape:connector-curvature="0"
             style="fill:none" /><path
             class="noFillSVG"
             d="m 303.1,604.3 c 1.3,2.4 2.5,4.3 3.8,6.3 2.3,3.6 4.9,6.8 7.6,10 -3.9,-7.7 -8.7,-14.8 -13.7,-21.9 0.2,0.8 0.4,2.3 0.7,3 0.4,0.8 1.4,2.3 1.6,2.6 z"
             id="path121"
             inkscape:connector-curvature="0"
             style="fill:none" /><path
             class="noFillSVG"
             d="m 434.1,609.5 c 4.5,-2.4 8.5,-5.4 13,-7.7 -8.3,0.5 -16.1,1.4 -23.2,6 -3.7,2.4 -6.3,5.9 -10,8.3 0.4,0 0.9,0.2 1.3,0.1 6.6,-1.5 12.9,-3.6 18.9,-6.7 z"
             id="path123"
             inkscape:connector-curvature="0"
             style="fill:none" /><path
             class="noFillSVG"
             d="m 374.8,564.5 c 7.9,0.2 15.5,-1.1 23.2,-2.9 -9.6,-0.4 -19,-0.1 -28.5,1.4 -1.8,0.3 -3.5,0.9 -5.3,1.5 3.6,-0.3 6.9,-0.1 10.6,0 z"
             id="path125"
             inkscape:connector-curvature="0"
             style="fill:none" /><path
             class="noFillSVG"
             d="m 318.6,571.3 c 3.1,7.2 7.5,13.4 12.4,19.5 -2.9,-6.3 -4.1,-12.9 -6.2,-19.5 -2.9,-9.2 -6.8,-18.1 -11.2,-26.8 0.7,9.3 1.2,18.3 5,26.8 z"
             id="path127"
             inkscape:connector-curvature="0"
             style="fill:none" /><path
             class="noFillSVG"
             d="m 494.4,703.7 c -0.1,0 -0.2,0.1 -0.1,0.2 0.1,0 1.1,0.4 1.1,0.4 0,-0.1 -0.9,-0.6 -1,-0.6 z"
             id="path129"
             inkscape:connector-curvature="0"
             style="fill:none" /><path
             class="noFillSVG"
             d="m 354.9,534 c -6.1,-5.7 -12.5,-11.1 -19.6,-15.5 -9.5,-5.9 -18.7,-11.3 -27.4,-18.2 16.9,19.5 36.2,33.7 59.7,44.3 -4.6,-3.1 -8.7,-6.8 -12.7,-10.6 z"
             id="path131"
             inkscape:connector-curvature="0"
             style="fill:none" /><path
             class="noFillSVG"
             d="m 480,684.1 c -8.1,-4 -16.4,-7.3 -24.8,-10.4 7.6,5.6 15.8,8.3 24.8,10.4 z"
             id="path133"
             inkscape:connector-curvature="0"
             style="fill:none" /><path
             class="noFillSVG"
             d="m 488.8,671 c 5.4,1.8 10.9,3.1 16.5,4.1 -1.9,-4.9 -12.4,-4.1 -16.5,-4.1 -0.1,-0.1 0,0 0,0 z"
             id="path135"
             inkscape:connector-curvature="0"
             style="fill:none" /><path
             class="noFillSVG"
             d="m 463.2,616.9 c -0.7,0 -1.2,0.2 -1.6,0.7 0.6,-0.2 1.1,-0.5 1.6,-0.7 z"
             id="path137"
             inkscape:connector-curvature="0"
             style="fill:none" /><path
             class="noFillSVG"
             d="m 427.9,639.4 c 6.4,5.3 13.6,9.1 20.9,13.1 -12.5,-11.8 -24.9,-23.3 -39.3,-32.7 5.8,6.9 11.4,13.9 18.4,19.6 z"
             id="path139"
             inkscape:connector-curvature="0"
             style="fill:none" /><path
             class="st0"
             d="m 294.9,486.2 c -0.3,0.3 -0.2,1 0,1.3 0.1,0.2 0.2,0.2 0.2,0.3 1.8,11.1 4.1,22.1 7.8,32.7 -2.3,9.1 -4.6,18.2 -5.5,27.6 -3.6,3.8 -8.3,5.7 -12.4,8.8 -2.4,1.8 -4.5,3.8 -6.3,6.2 -4.6,6.2 -6.8,12.9 -7.3,20.6 -0.1,1.1 1.3,1.2 1.6,0.3 3.7,-8.7 9.2,-14.2 16.5,-20.1 2.8,-2.3 5.4,-4.8 7.2,-8.1 -0.2,2.3 -0.4,4.6 -0.5,6.9 -9.8,18.2 -15.6,36.5 -14.5,57.3 -0.8,0.2 -1.4,-0.1 -1.5,1.3 -0.1,5.3 0.7,23.7 9,21.6 3.2,-0.8 1.6,-6.9 1.2,-9.3 -0.5,-2.4 -1.4,-4.3 -2.6,-6.5 -1.2,-2.2 -3.1,-4.7 -5.1,-6.4 -0.9,-19.3 5.1,-36 13.3,-53.3 -0.3,10.2 0.6,20.4 2.4,30.5 0.2,0.9 0.4,1.7 0.7,2.8 2.9,10.3 6.6,20.1 11.7,29.6 -0.4,3.6 1.4,7.6 2.9,10.6 1.4,3 3.3,9.3 7.3,8 6.8,-2.3 -1,-12.3 -3.9,-16 -0.9,-1.1 -2.5,-3.6 -3.7,-4.7 -0.4,-0.3 -1.3,-0.5 -1.6,0 -0.3,0.4 -0.3,0.5 -0.5,0.9 -3.4,-7.2 -6.2,-14.6 -8.4,-22.3 0.3,0.4 0.7,1 0.9,1.4 3.8,5.8 7.9,11 12.6,16.1 0.4,0.5 1,-0.2 0.9,-0.7 -2.2,-8.4 -11.4,-21.3 -15.7,-25.5 -2.9,-2.7 -0.6,-0.6 -0.6,-0.6 -1.9,-8.2 -1.9,-15.6 -2.2,-23.5 -0.1,-2.4 0,-4.8 0.1,-7.2 2.6,8 5.6,15 10.5,22.1 4.9,7.1 11.3,14.4 15.6,22.1 -0.5,0.3 -0.8,0.3 -1.1,0.8 -1.7,2.8 -0.1,7.2 0.9,9.8 1.5,4.2 3.4,7.2 6.1,10.5 0.5,0.6 1.4,0.6 1.8,0 4,-6.3 -0.5,-13 -4.2,-18.4 -0.6,-0.9 -0.9,-1.4 -1.6,-2.1 -3.7,-8.3 -8.4,-14.8 -13.8,-22.3 -6,-8.3 -11.9,-17.5 -13.7,-27.9 0.6,-5.6 0.8,-9.8 1.7,-15.7 0.8,-5.9 3.3,-13.1 4.3,-19.3 0.6,1.3 1.1,2.7 1.7,4 1.2,2.7 2.4,5.4 3.8,8.1 0,0.1 -0.1,0 0.1,0.3 0.2,0.3 0.8,1.5 1,2 0.7,10.6 1.2,21.3 5.6,31.1 4.4,9.8 11,17.6 17.9,25.7 0.5,0.6 1.5,-0.1 1,-0.8 -6.4,-9.6 -8.3,-20.5 -12.2,-31.2 -2.4,-6.6 -5.2,-12.6 -8.4,-18.8 7.1,9.6 15.1,18 23.8,26.2 4.5,9.4 7.6,18.4 9,28.9 0.9,6.8 1,14.2 1.5,21.1 -4.4,17.4 -15,32 -19.3,49.4 -0.2,0 -0.4,-0.1 -0.7,-0.1 -3.3,0.9 -3.4,5.7 -3.7,8.3 -0.6,4.6 -1.7,10 0.7,13.7 1.2,1.9 2.8,3.2 4.8,0.6 2.8,-3.5 4.3,-13.4 1.6,-18 -0.2,-1.5 -0.6,-2.7 -1.5,-3.9 4.3,-15.6 13.3,-29.3 18.5,-44.6 0.1,1.5 0.2,3 0.2,4.5 1.1,19.2 1.5,37.9 8.4,56.1 -0.2,0.1 -0.4,0.1 -0.6,0.3 -4,3.7 -0.1,10.3 2,13.7 1.4,2.3 2.7,3.8 4.9,4 2.2,0.2 3.3,-1.1 3.5,-3.2 0.3,-3 -1.6,-5.8 -3.1,-8.3 -1.6,-2.6 -2.7,-5.9 -5.9,-6.6 -3,-10 -3.9,-19.4 -4.4,-29.9 -0.5,-10.6 -1,-22 -1.8,-32.7 4.7,13.2 10.1,26.2 16.5,38.7 -0.1,0.1 -0.2,0.2 -0.2,0.4 -0.4,8.9 2.8,15.4 9.7,20.9 0.5,0.4 1.3,0.1 1.4,-0.5 1.6,-6.9 -2.3,-11.8 -6.3,-17 -1.1,-1.5 -1.9,-2.9 -3.5,-3.9 -0.1,-0.1 -0.2,-0.1 -0.3,-0.1 -6.2,-14.8 -12.6,-29.5 -17.8,-44.7 -0.1,-3.3 -0.3,-6.6 -0.5,-10 6.4,6.7 11,13.8 16.3,21.5 5.8,8.5 12.7,16.3 21.1,22.6 0.8,0.6 1.6,-0.4 0.9,-1.1 -0.7,-0.6 -1.4,-0.9 -1.9,-1.5 -13.8,-15.6 -16.6,-37.1 -36.8,-46.2 -1,-9.6 -2.8,-18.5 -7.1,-27.2 0.5,0.5 1.1,1 1.6,1.4 14.9,13.5 27.7,28.2 38.6,45.2 3.3,5.1 6.5,10.8 10.4,15.6 3.8,8.9 6,18.2 10.1,27 2.4,5.2 5.5,10.2 8.8,14.9 1.3,8 2.7,16 3.6,24.1 0,0 -0.1,0 -0.1,0 -1.9,-0.1 -3.3,1.3 -4,2.9 -1.3,3 -1.4,6.8 -1.4,9.8 0.1,3 -0.2,6.4 2,8.2 4.3,3.5 8.2,-1.3 8.9,-5.6 0.7,-4.3 -0.2,-8.8 -2.7,-12.3 -0.4,-1 -0.7,-1.8 -1.6,-2.5 -0.3,-7.4 -1,-14.4 -2.7,-21.7 0.8,1.1 1.7,2.2 2.5,3.3 6.4,8 12.8,16 19.1,24 -2.1,2.6 -3.6,5.6 -3.4,8.9 0.2,5.4 3.3,9.5 5.5,14.1 0.5,1 2,0.5 1.6,-0.6 -2,-4.8 -0.6,-9.4 -0.3,-14.4 0.1,-1.4 -0.1,-2.5 -0.2,-3.8 3.5,4.9 6.4,10 9,15.4 -0.4,0.3 -0.7,0.2 -1,0.8 -1.9,3.3 0.4,8.2 1.4,11.5 1.5,4.8 2.9,10.2 7.1,12.8 2.5,1.6 5,0.9 6,-1.9 1.3,-3.8 -0.6,-8.7 -2.3,-12.4 -1.7,-3.7 -4,-8.1 -8,-9.6 -0.1,0 -0.2,0 -0.3,0 -0.6,-0.6 -1.2,-1.2 -2.1,-1.3 -2,-5.9 -4.6,-11.3 -8,-16.5 4.7,4.6 9.5,8.9 14.8,12.7 0.9,0.7 1.9,1.5 2.9,1.9 0.9,0.4 1.4,-0.6 0.8,-1.2 -0.6,-0.5 -1.5,-0.9 -2.1,-1.5 -3.7,-3.3 -5.6,-7.9 -9.1,-11.4 -2.5,-2.5 -5.9,-3.8 -9.2,-5 -0.4,-0.2 -0.6,-0.7 -1,-1 -0.4,-0.3 -0.6,-0.3 -1.1,-0.2 -5.5,-7.2 -11,-14.3 -16.6,-21.3 -0.8,-1 -1.5,-1.9 -2.2,-2.8 1.4,1.1 2.9,2.3 4.5,3.2 10.1,6 21,10.3 30.1,17.7 -0.5,1.4 -0.5,2.5 0,4 1.8,5.6 4.7,10.2 9.4,14 2.2,1.8 7.3,5.9 9.6,2.4 2.3,-3.4 -2.5,-7.9 -4.6,-10.5 -0.7,-0.9 -1.5,-1.5 -2.3,-2.7 -2.2,-3.4 -4.9,-7 -9,-8.2 -1.2,-0.3 -1.5,-0.1 -2.5,0.2 -12.1,-10.7 -27.7,-15.6 -39.7,-26.5 -3.4,-5.2 -6.4,-10.9 -8.9,-16.5 -2.4,-5.6 -4.4,-11 -6.7,-16.5 7,8.5 15.4,15.9 24.3,22.3 16.5,11.9 33.2,21.6 52.4,28.4 0.4,1.2 1,2.4 2.2,3.1 2.6,1.5 5.7,2.2 8.5,3.1 3.9,1.3 7.5,2.7 11.3,4.1 0.8,0.3 1.5,-0.4 1.3,-1.3 0,0 -0.1,-0.1 -0.1,-0.1 0.2,-2 -2.6,-4.1 -3.8,-5 -2.7,-2.1 -5,-3.4 -7.8,-4.7 -2.8,-1.4 -5.9,-2.9 -8.8,-2.7 -2.1,0.2 -2.5,1.3 -2.9,3 -17.4,-6.4 -32.8,-15.7 -47.7,-26.8 7.6,2.3 15.1,2.9 22.9,2.9 0,0.1 0.1,0.2 0.2,0.3 9.2,7.7 19.6,10.6 31.2,12.9 0.6,0.1 1,-0.7 0.5,-1 -8.9,-4.9 -17.9,-9.1 -27.6,-12.4 9.5,-0.9 18.6,-2.5 28.1,-0.8 0.2,0.6 0.2,1 0.8,1.5 2.4,2.2 5.5,3 8.6,3.9 3.1,0.9 6.1,1.6 9.5,1.6 1.8,0 4.6,-0.3 5.2,-2.3 0.7,-2 -0.9,-3.7 -2.5,-4.5 -6.3,-3.5 -12.8,-4 -19.9,-3.5 -0.7,0 -1,0.7 -1.1,1.3 -0.1,0.5 -0.5,0.8 -0.5,1.3 -8.5,-2.1 -16.3,-1.4 -25,-0.7 -11.6,0.9 -22.9,-0.5 -34.3,-3.3 -13.6,-10.9 -24.9,-23.6 -34.1,-38.1 -5.4,-8.6 -9.8,-16.3 -15.6,-23.9 6.9,4.5 24.3,9 29,12.2 3.6,2.4 0.8,0.6 0.8,0.6 6.2,9.3 12.9,16.3 21.1,22.8 8.2,6.6 16.9,11 26.1,15.7 0.8,0.4 1.5,-0.6 0.8,-1.2 -13.8,-13.1 -26.4,-26.4 -43,-36.5 2.8,0.3 -3.5,-0.4 1.4,0.1 4.9,0.6 18.8,1.5 26.4,1.9 5.4,0.3 13.3,1.1 19,-0.3 2.3,4 8.7,4.4 12.5,4.3 4.7,-0.1 10.9,-0.1 11.4,-5.5 0.5,-5.4 -8,-4.6 -11.7,-3.8 -0.1,0 -0.2,-0.2 -0.4,-0.2 -4.2,-0.4 -10.4,-1 -11.9,3.9 -7.6,1 -15.4,-0.4 -22.8,-1.2 -5.1,-0.5 -9.5,-0.8 -14.4,-1.2 3.9,-1.2 7.7,-2.3 11.4,-4.1 7,-3.5 13.2,-8.3 20.6,-11 0.9,-0.3 0.6,-1.7 -0.3,-1.6 -8.4,0.3 -16.4,0.2 -24.3,3.7 -6.1,2.7 -10.3,9 -16.4,12 -0.8,-0.1 -1.5,-0.1 -2.4,-0.3 -16.7,-2.9 -31,-8.2 -41.7,-21.7 -0.2,-0.3 -0.5,-0.1 -0.5,0.2 -2.3,-2.5 -4.7,-5.1 -7.1,-7.5 -6.8,-6.6 -13.9,-12.8 -20.8,-19.3 20.2,5.1 40.6,-0.1 59.7,9.4 -0.3,2.2 1.7,4.8 2.8,6.2 2,2.7 3.9,4.5 6.4,6.4 1.5,1.1 3.3,2.3 4.7,0.5 1.5,-1.8 -0.1,-3.9 -1.3,-5.4 -2,-2.6 -4.1,-5 -6.5,-7.1 -0.6,-0.5 -1.3,-0.8 -1.8,-1 -1.4,-0.7 -2.4,-1.4 -3.8,-0.5 -12.9,-7.6 -26,-8 -40.7,-8.4 7.3,-1.7 14,-0.9 21.5,-1.2 7.5,-0.3 15.2,-2.2 22.6,-4 0.6,-0.1 0.6,-1.2 0,-1.2 -9.3,-0.8 -18.4,-0.8 -27.7,0.3 -3.9,0.4 -8.1,1.2 -11.8,2.4 -3.7,1.2 -7,3.3 -10.9,3.3 -6.4,-0.1 -12.2,-1.8 -18.1,-4.1 -6.6,-7.5 -13.4,-13.9 -18.1,-23 -7.9,-15.1 -13.2,-30.9 -17.3,-47.4 21,25.8 43.2,44.4 74.7,56 0.7,0.3 0.9,-0.8 0.3,-1.1 -7.3,-4.3 -13.4,-10 -19.6,-15.7 -5.5,-5.1 -11.4,-9.9 -17.7,-13.7 -13.6,-8.3 -26.1,-16.6 -37.2,-28 -0.5,-0.5 -0.9,-1.2 -1.3,-1.7 -1.3,-7.1 -2.1,-14.3 -3,-21.4 -0.1,-0.9 -1.4,-0.9 -1.3,0 0.4,6.4 0.8,13.1 1.7,19.7 z M 280.8,569 c -3.1,2.7 -4.9,5.9 -7,9.3 1.8,-6.9 4.4,-12.7 9.6,-17.7 4,-3.8 9.4,-5.7 13.5,-9.5 -2.6,8.6 -9.8,12.3 -16.1,17.9 z m 33.7,51.6 c -2.8,-3.2 -5.3,-6.5 -7.6,-10 -1.4,-2.1 -2.5,-4 -3.8,-6.3 -0.2,-0.3 -1.2,-1.8 -1.5,-2.5 -0.3,-0.7 -0.5,-2.2 -0.7,-3 4.9,7 9.7,14.1 13.6,21.8 z m 51.4,82 c 0,0 -0.1,-0.4 -0.1,-0.5 0,-0.1 0,-0.2 0,-0.1 0,0 0.2,0.4 0.1,0.6 0.1,-0.1 0,0 0,0 z m -0.4,-1.6 c 0,0 0,-0.1 0,0 0,-0.1 -0.2,-0.4 -0.2,-0.4 0.1,0 0.2,0.4 0.2,0.4 0.1,0.1 0,0 0,0 z M 380,643.3 c -4.3,-4.9 -8.1,-10 -11.7,-15.4 -4.8,-7.2 -9.7,-13.8 -15.7,-20 0,-0.3 0,-0.7 -0.1,-1 15.2,8.2 19.7,22 27.5,36.4 z m 41.6,75.8 c 0.1,2 -0.1,3 -0.7,4.5 -0.6,1.4 -1.5,1.7 -2.6,2.3 0.4,-4.8 0.8,-9.7 1.4,-14.4 1.5,1.9 1.9,5.6 1.9,7.6 z m 38.4,25.7 c 0.9,2.2 2.3,4.4 2,6.8 0.4,1.5 0.2,2.5 -1.5,2.5 -1.3,-3.8 -2.8,-7.6 -4.2,-11.3 -0.4,-1.2 -1.2,-2.5 -1.3,-3.6 -0.3,-1.9 -0.2,-2.1 1.2,-0.5 1.4,1.6 2.9,4 3.8,6.1 z m -20.1,-19.4 c -0.2,1.5 -0.4,2.8 -0.5,4.2 -0.8,-1.7 -1.7,-3.5 -2,-5.3 -0.6,-3.9 0.5,-6.9 2.4,-10.2 0,-0.1 0.1,0.1 0.1,0.1 0.3,3.8 0.4,7.5 0,11.2 z m 8.1,-9.5 c 2.3,1.8 3.9,4 5.5,6.4 0.3,0.4 0.5,0.7 0.7,1.1 -3.8,-3.2 -7.4,-6.5 -10.8,-10.1 1.6,0.8 3.2,1.5 4.6,2.6 z m 11.9,-2.9 c 0,-0.2 0.3,0.2 0.3,0.3 0.5,0.8 1,1.9 1.6,2.8 -0.7,-0.8 -1.7,-2.2 -1.9,-3.1 z m 25.6,-13.5 c -1,-0.4 -2,-0.8 -3,-1.3 1.1,0.2 2.2,0.6 3.1,1.1 0.1,0.1 0,0.3 -0.1,0.2 z m 8.9,4.2 c 0.1,0 1,0.5 1,0.5 0,0 -1,-0.3 -1.1,-0.4 -0.1,0 0,-0.1 0.1,-0.1 z m 10.9,-28.6 c -5.6,-1 -11.1,-2.3 -16.5,-4.1 0,0 -0.1,-0.1 -0.1,-0.1 4.2,0.1 14.7,-0.7 16.6,4.2 z m -25.3,9 c -9.1,-2.1 -17.3,-4.8 -24.8,-10.4 8.5,3.1 16.8,6.3 24.8,10.4 z m -16.8,-67.2 c -0.5,0.2 -1.1,0.4 -1.6,0.7 0.5,-0.5 1,-0.6 1.6,-0.7 z m -14.4,35.6 c -7.3,-4 -14.5,-7.8 -20.9,-13.1 -7,-5.8 -12.7,-12.7 -18.4,-19.6 14.4,9.4 26.8,20.9 39.3,32.7 z m -24.9,-44.8 c 7.2,-4.5 14.9,-5.5 23.2,-6 -4.5,2.3 -8.5,5.3 -13,7.7 -6,3.2 -12.3,5.3 -18.9,6.7 -0.4,0.1 -0.9,-0.2 -1.3,-0.1 3.7,-2.4 6.3,-5.9 10,-8.3 z m -26,-46.2 c -7.7,1.8 -15.3,3.2 -23.2,2.9 -3.7,-0.1 -7,-0.3 -10.6,0 1.7,-0.6 3.5,-1.2 5.3,-1.5 9.5,-1.4 18.9,-1.8 28.5,-1.4 z m -73.1,9.8 c 2.1,6.6 3.3,13.2 6.2,19.5 -4.9,-6.1 -9.3,-12.3 -12.4,-19.5 -3.7,-8.6 -4.3,-17.6 -5,-26.8 4.3,8.7 8.3,17.6 11.2,26.8 z m 10.5,-52.8 c 7.1,4.3 13.5,9.8 19.6,15.5 4,3.8 8.1,7.5 12.6,10.7 -23.5,-10.7 -42.8,-24.8 -59.7,-44.3 8.8,6.8 18,12.3 27.5,18.1 z"
             id="path141"
             inkscape:connector-curvature="0"
             style="fill:#231f20" /></g><g
           id="g143"><path
             class="noFillSVG"
             d="m 838.8,633.7 c 1,0 2.3,-0.5 3.4,-0.8 3.5,-0.7 7.1,-1.7 10.6,-2.4 0.2,-1.5 -0.7,-1.8 -2.1,-1.6 -2.2,-0.5 -4.3,0.5 -6.4,1 -2.1,0.5 -4.3,1.6 -5.9,2.6 -1.5,1.1 -1.4,1.2 0.4,1.2 z"
             id="path145"
             inkscape:connector-curvature="0"
             style="fill:none" /><path
             class="noFillSVG"
             d="m 822.5,665 c -0.4,-1.1 -0.5,-1.9 -1.7,-2.6 -1.2,-0.7 -2.1,-1 -3.9,-1.2 -1.8,-0.2 -5.2,-0.3 -7.1,0.8 4.1,1.2 8.4,2.1 12.7,3 z"
             id="path147"
             inkscape:connector-curvature="0"
             style="fill:none" /><path
             class="noFillSVG"
             d="m 823.4,647.8 c 1.7,-0.1 3.4,-0.7 5,-1.2 -1.3,-0.3 -2.5,-0.6 -3.7,-1 -3.3,-0.8 -6.6,-1.2 -10,-1.2 -0.1,0 -0.2,0 -0.1,0.1 2.7,2 5.2,3.4 8.8,3.3 z"
             id="path149"
             inkscape:connector-curvature="0"
             style="fill:none" /><path
             class="noFillSVG"
             d="m 816.2,625.9 c -0.1,0.1 -0.5,0.3 -0.3,0.3 0.8,-0.1 2.2,-0.8 3,-1.3 -0.8,0.3 -1.9,0.7 -2.7,1 z"
             id="path151"
             inkscape:connector-curvature="0"
             style="fill:none" /><path
             class="noFillSVG"
             d="m 823.5,633 c -2.4,1.2 -4.5,2.3 -6.4,4.2 -1.1,1.1 -1.9,2.5 -2.8,3.8 3.6,-2.7 7,-5.5 10.3,-8.5 -0.4,0.2 -0.8,0.3 -1.1,0.5 z"
             id="path153"
             inkscape:connector-curvature="0"
             style="fill:none" /><path
             class="noFillSVG"
             d="m 658.6,766.6 c 3.8,5.2 8.8,8.3 14.7,10.6 -2.8,-2.3 -5.4,-4.3 -7.5,-7.4 -4.2,-6.3 -6.8,-13.1 -14.2,-16.5 3,4.2 4,9.2 7,13.3 z"
             id="path155"
             inkscape:connector-curvature="0"
             style="fill:none" /><path
             class="noFillSVG"
             d="m 728.9,698.3 c 5.2,-2.6 10.3,-5.5 15.1,-8.7 -13.9,5.3 -26.8,7.7 -35.8,20.4 0.3,0 0.6,0 0.9,0.1 6.3,-4.7 12.8,-8.3 19.8,-11.8 z"
             id="path157"
             inkscape:connector-curvature="0"
             style="fill:none" /><path
             class="noFillSVG"
             d="m 805.3,604.2 c 0.5,-0.8 1.1,-1.7 1.5,-2.5 0,-0.1 -0.1,-0.2 -0.2,-0.1 -0.4,0.8 -0.9,1.7 -1.3,2.6 z"
             id="path159"
             inkscape:connector-curvature="0"
             style="fill:none" /><path
             class="noFillSVG"
             d="m 794,709.4 c 0,0 0,0 0,0 0,0 0.1,0 0.1,0 0,0 -0.4,0.1 -0.4,0.1 0,0 0.3,-0.1 0.3,-0.1 z"
             id="path161"
             inkscape:connector-curvature="0"
             style="fill:none" /><path
             class="noFillSVG"
             d="m 795.1,709.3 c 0.1,0 0.4,0 0.4,0 0,0 0,-0.1 -0.1,-0.1 -0.1,0 -0.5,0.1 -0.5,0.1 0,0 0.1,0 0.2,0 z"
             id="path163"
             inkscape:connector-curvature="0"
             style="fill:none" /><path
             class="noFillSVG"
             d="m 700,754 c 2.3,-0.9 4.1,-1.7 6.1,-2.7 3.5,-1.7 6.7,-3.6 9.9,-5.7 -7.4,2.6 -14.3,6.1 -21.2,9.7 0.8,-0.1 2.1,-0.1 2.8,-0.3 0.7,-0.1 2.1,-0.9 2.4,-1 z"
             id="path165"
             inkscape:connector-curvature="0"
             style="fill:none" /><path
             class="noFillSVG"
             d="m 720,637.2 c -1.6,-4.3 -3.8,-8.3 -5.4,-12.6 -0.5,7.5 -0.6,14.6 2.6,21.5 1.7,3.6 4.5,6.4 6.3,9.9 0,-0.4 0.3,-0.8 0.3,-1.1 -0.5,-6.1 -1.6,-11.9 -3.8,-17.7 z"
             id="path167"
             inkscape:connector-curvature="0"
             style="fill:none" /><path
             class="noFillSVG"
             d="m 672.8,685.1 c 1.1,-7 0.8,-14 0.1,-21.1 -1.5,8.6 -2.3,17 -2,25.7 0,1.6 0.4,3.3 0.7,4.9 0.1,-3.3 0.6,-6.2 1.2,-9.5 z"
             id="path169"
             inkscape:connector-curvature="0"
             style="fill:none" /><path
             class="noFillSVG"
             d="m 672.3,736.3 c 6.8,-2 12.9,-5.2 18.9,-8.8 -6,1.9 -12,2.2 -18.2,3.3 -8.6,1.5 -17.1,4 -25.3,6.9 8.4,0.3 16.5,0.9 24.6,-1.4 z"
             id="path171"
             inkscape:connector-curvature="0"
             style="fill:none" /><path
             class="noFillSVG"
             d="m 811.6,594.2 c 0,0.1 0.1,0.2 0.1,0.1 0,-0.1 0.5,-0.9 0.5,-0.9 0,0 -0.6,0.7 -0.6,0.8 z"
             id="path173"
             inkscape:connector-curvature="0"
             style="fill:none" /><path
             class="noFillSVG"
             d="m 643.1,699.3 c -5.8,4.8 -11.4,9.9 -16.2,15.8 -6.4,7.9 -12.3,15.4 -19.5,22.5 19.5,-12.9 34.4,-28.5 46.7,-48.3 -3.3,3.6 -7.1,6.9 -11,10 z"
             id="path175"
             inkscape:connector-curvature="0"
             style="fill:none" /><path
             class="noFillSVG"
             d="m 792.3,604.8 c -4.6,6.8 -8.5,13.8 -12.2,21 5.9,-6.1 9.3,-13.1 12.2,-21 z"
             id="path177"
             inkscape:connector-curvature="0"
             style="fill:none" /><path
             class="noFillSVG"
             d="m 781.6,595.4 c 2.2,-4.6 4.1,-9.4 5.6,-14.3 -4.5,1.1 -5.1,10.6 -5.6,14.3 -0.1,0.1 0,0 0,0 z"
             id="path179"
             inkscape:connector-curvature="0"
             style="fill:none" /><path
             class="noFillSVG"
             d="m 730.1,611.9 c 0,0.6 0,1.1 0.5,1.5 -0.2,-0.4 -0.3,-0.9 -0.5,-1.5 z"
             id="path181"
             inkscape:connector-curvature="0"
             style="fill:none" /><path
             class="noFillSVG"
             d="m 746.2,646.2 c 5.5,-5.1 9.8,-11.1 14.2,-17.2 -12,9.8 -23.8,19.6 -33.9,31.4 6.8,-4.3 13.7,-8.6 19.7,-14.2 z"
             id="path183"
             inkscape:connector-curvature="0"
             style="fill:none" /><path
             class="st0"
             d="m 593.2,747.5 c 0.3,0.3 0.9,0.3 1.1,0.2 0.2,-0.1 0.2,-0.2 0.3,-0.2 10.2,-0.3 20.3,-1.1 30.3,-3.1 7.9,3.1 15.8,6.2 24.1,8.1 3,3.6 4.2,8.1 6.5,12.2 1.3,2.3 2.8,4.5 4.8,6.4 5.1,4.9 10.8,7.6 17.6,9 1,0.2 1.2,-1 0.5,-1.4 -7.4,-4.3 -11.6,-9.9 -16,-17.1 -1.7,-2.8 -3.7,-5.4 -6.4,-7.4 2,0.4 4.1,0.9 6.1,1.3 15.2,10.9 30.9,18.3 49.7,19.7 0.1,0.7 -0.3,1.3 1,1.5 4.8,0.7 21.3,2.1 20.4,-5.5 -0.4,-3 -6,-2.3 -8.2,-2.1 -2.2,0.1 -4,0.7 -6.2,1.6 -2.1,0.9 -4.5,2.2 -6.3,3.8 -17.4,-1.4 -31.7,-8.8 -46.2,-18.1 9.1,1.5 18.3,1.8 27.6,1.4 0.8,0 1.5,-0.1 2.6,-0.3 9.5,-1.4 18.8,-3.6 27.9,-7.1 3.2,0.8 7,-0.4 9.8,-1.3 2.8,-0.9 8.8,-1.9 8,-5.6 -1.3,-6.4 -11.2,-0.6 -14.8,1.6 -1.1,0.6 -3.5,1.8 -4.7,2.8 -0.4,0.3 -0.6,1.1 -0.2,1.5 0.4,0.3 0.4,0.4 0.8,0.6 -6.9,2.2 -13.8,3.8 -20.9,4.9 0.4,-0.2 1,-0.5 1.4,-0.7 5.6,-2.7 10.8,-5.8 15.9,-9.4 0.5,-0.3 0,-1 -0.5,-0.9 -7.8,0.9 -20.4,7.7 -24.7,11.1 -2.8,2.2 -0.6,0.5 -0.6,0.5 -7.6,0.8 -14.2,-0.2 -21.4,-0.8 -2.2,-0.2 -4.3,-0.6 -6.4,-0.9 7.5,-1.4 14.1,-3.2 21,-6.8 6.9,-3.6 14.2,-8.4 21.6,-11.4 0.2,0.4 0.1,0.7 0.6,1.1 2.3,1.9 6.4,0.9 8.9,0.4 3.9,-0.9 6.9,-2.2 10.2,-4.2 0.6,-0.4 0.7,-1.2 0.2,-1.7 -5.2,-4.3 -11.7,-1.1 -17,1.6 -0.8,0.4 -1.4,0.6 -2,1.2 -7.9,2.4 -14.3,5.8 -21.6,9.7 -8.2,4.4 -17.1,8.6 -26.6,9 -5,-1.2 -8.7,-1.9 -13.8,-3.3 -5.2,-1.4 -11.4,-4.5 -16.8,-6.1 1.2,-0.4 2.5,-0.7 3.8,-1 2.6,-0.7 5.1,-1.5 7.7,-2.5 0.1,0 0,0.1 0.3,0 0.3,-0.1 1.4,-0.5 1.9,-0.7 9.6,0.7 19.3,1.4 28.6,-1.4 9.3,-2.8 17.1,-7.8 25.1,-13 0.6,-0.4 0.1,-1.4 -0.6,-1 -9.4,4.6 -19.4,5 -29.4,7.2 -6.2,1.4 -11.9,3.2 -17.9,5.3 9.4,-5.3 17.9,-11.4 26.2,-18.3 9,-2.9 17.4,-4.7 27,-4.7 6.2,0 12.8,0.7 19.1,1.1 15.1,6 27,17.2 42,23.1 0,0.2 -0.2,0.4 -0.1,0.6 0.4,3 4.7,3.7 7,4.3 4,1.1 8.8,2.7 12.4,1 1.9,-0.9 3.2,-2.1 1.1,-4.2 -2.8,-2.9 -11.5,-5.4 -16,-3.5 -1.4,0 -2.5,0.2 -3.6,0.9 -13.5,-5.7 -24.7,-15.3 -37.8,-21.8 1.4,0.1 2.7,0.2 4.1,0.3 17.3,1.3 34.2,3.1 51.3,-0.9 0.1,0.2 0,0.4 0.2,0.5 2.8,4 9.2,1.3 12.5,-0.2 2.2,-1 3.7,-1.9 4.2,-3.9 0.5,-2 -0.6,-3.1 -2.4,-3.5 -2.7,-0.6 -5.4,0.8 -7.8,1.8 -2.5,1.1 -5.6,1.7 -6.6,4.5 -9.3,1.5 -17.8,1.2 -27.4,0.4 -9.6,-0.8 -19.9,-1.7 -29.6,-2.2 12.4,-2.7 24.6,-5.9 36.6,-10.2 0.1,0.1 0.2,0.2 0.3,0.2 7.9,1.4 14.2,-0.7 19.9,-6.3 0.4,-0.4 0.2,-1.2 -0.3,-1.3 -6,-2.3 -10.8,0.7 -16,3.6 -1.4,0.8 -2.8,1.3 -3.9,2.7 -0.1,0.1 -0.1,0.2 -0.2,0.3 -14,3.8 -27.9,7.8 -42.2,10.7 -3,-0.3 -6,-0.5 -9,-0.7 6.8,-4.9 13.6,-8.2 21.2,-12.1 8.3,-4.2 16.1,-9.5 22.7,-16.3 0.7,-0.7 -0.2,-1.5 -0.9,-1 -0.7,0.5 -1,1.1 -1.6,1.5 -15.6,10.4 -35.2,10.4 -45.7,27.3 -8.7,-0.3 -16.9,0.3 -25.2,3.2 0.5,-0.4 1,-0.8 1.5,-1.3 13.9,-11.8 28.5,-21.5 45,-29.3 5,-2.3 10.4,-4.6 15.2,-7.5 8.4,-2.4 17,-3.2 25.4,-5.9 4.9,-1.6 9.8,-3.8 14.4,-6.1 7.3,-0.2 14.7,-0.6 22,-0.4 0,0 0,0.1 0,0.1 -0.3,1.7 0.8,3.1 2.1,3.9 2.6,1.5 5.9,2.1 8.6,2.4 2.7,0.3 5.7,0.9 7.6,-0.8 3.6,-3.4 -0.2,-7.5 -3.9,-8.6 -3.7,-1.2 -7.9,-0.9 -11.4,1 -0.9,0.2 -1.7,0.5 -2.4,1.1 -6.7,-0.6 -13.1,-0.8 -19.7,-0.1 1.1,-0.6 2.2,-1.2 3.2,-1.9 7.9,-4.8 15.8,-9.6 23.8,-14.3 2.1,2.2 4.6,3.8 7.6,4.1 4.8,0.4 8.9,-1.8 13.3,-3.3 0.9,-0.3 0.7,-1.7 -0.3,-1.5 -4.6,1.2 -8.5,-0.6 -12.9,-1.4 -1.2,-0.2 -2.3,-0.2 -3.5,-0.3 4.8,-2.6 9.7,-4.6 14.9,-6.2 0.2,0.4 0.1,0.6 0.6,1 2.8,2.1 7.4,0.6 10.5,0.1 4.4,-0.8 9.5,-1.4 12.3,-4.9 1.7,-2 1.4,-4.4 -1,-5.6 -3.3,-1.7 -7.8,-0.5 -11.4,0.6 -3.5,1.1 -7.8,2.6 -9.5,6.1 -0.1,0.1 0,0.2 -0.1,0.3 -0.6,0.5 -1.2,0.9 -1.4,1.7 -5.5,1.1 -10.6,2.8 -15.7,5.3 4.7,-3.6 9.1,-7.5 13.1,-11.8 0.7,-0.7 1.6,-1.6 2.1,-2.4 0.4,-0.8 -0.4,-1.3 -1,-0.8 -0.6,0.5 -1,1.2 -1.6,1.7 -3.4,2.9 -7.7,4.1 -11.3,6.8 -2.5,2 -4.1,4.8 -5.6,7.7 -0.2,0.4 -0.7,0.5 -1,0.7 -0.3,0.3 -0.4,0.5 -0.3,0.9 -7.1,4.1 -14.1,8.2 -21.1,12.4 -0.9,0.6 -1.9,1.1 -2.8,1.6 1.2,-1.2 2.4,-2.4 3.4,-3.7 6.6,-8.3 11.7,-17.6 19.4,-24.9 1.2,0.6 2.2,0.8 3.6,0.5 5.3,-1 9.7,-3 13.7,-6.8 1.9,-1.8 6.1,-5.9 3.3,-8.3 -2.8,-2.5 -7.3,1.4 -10,2.9 -0.9,0.5 -1.5,1.2 -2.7,1.7 -3.3,1.5 -6.9,3.5 -8.4,7.1 -0.4,1 -0.3,1.3 -0.1,2.3 -11,9.6 -17.2,23 -28.4,32.5 -5.1,2.4 -10.5,4.5 -15.8,6 -5.3,1.5 -10.3,2.6 -15.6,4.1 8.4,-5.3 16.1,-11.9 22.9,-19.1 12.6,-13.4 23.2,-27.3 31.6,-43.6 1.2,-0.2 2.2,-0.6 3,-1.6 1.6,-2.2 2.6,-4.9 3.8,-7.3 1.6,-3.3 3.3,-6.4 5,-9.7 0.4,-0.7 -0.2,-1.4 -1,-1.3 0,0 -0.1,0.1 -0.1,0.1 -1.7,-0.4 -4,1.9 -4.9,2.8 -2.2,2.1 -3.6,4.1 -5.2,6.5 -1.5,2.3 -3.3,5 -3.4,7.6 -0.1,1.9 0.9,2.4 2.3,2.9 -7.8,14.9 -18,27.5 -29.6,39.6 2.9,-6.5 4.4,-13.2 5.3,-20.2 0.1,0 0.2,0 0.3,-0.1 8,-7.4 11.8,-16.3 15.2,-26.5 0.2,-0.5 -0.5,-1 -0.9,-0.6 -5.4,7.4 -10.3,15 -14.3,23.3 0.3,-8.6 0,-17 2.6,-25.3 0.6,-0.1 0.9,-0.1 1.5,-0.5 2.2,-1.9 3.3,-4.6 4.5,-7.3 1.2,-2.7 2.2,-5.3 2.5,-8.3 0.2,-1.7 0.3,-4.1 -1.5,-5 -1.7,-0.8 -3.4,0.4 -4.4,1.7 -3.9,5.3 -5.1,11 -5.5,17.4 0,0.6 0.5,1 1,1.2 0.5,0.2 0.6,0.5 1.1,0.6 -2.9,7.3 -3.1,14.5 -3.6,22.3 -0.6,10.5 -3.2,20.5 -7,30.4 -11.3,10.9 -24.1,19.6 -38.1,26.1 -8.4,3.9 -15.7,6.9 -23.3,11.2 4.9,-5.6 11,-20.7 14.3,-24.6 2.5,-2.9 0.6,-0.7 0.6,-0.7 9,-4.5 16.1,-9.7 22.9,-16.2 6.8,-6.6 11.9,-13.8 17.1,-21.5 0.4,-0.6 -0.4,-1.4 -1,-0.9 -13.3,10.8 -26.8,20.6 -37.8,34.3 0.6,-2.5 -0.8,3.1 0.3,-1.2 1.1,-4.3 3.6,-16.6 4.8,-23.5 0.9,-4.8 2.5,-11.8 2,-17.1 3.8,-1.6 5,-7.3 5.4,-10.7 0.5,-4.2 1.2,-9.8 -3.6,-10.9 -4.8,-1 -5,6.7 -4.8,10 0,0.1 -0.2,0.1 -0.2,0.3 -0.9,3.7 -2.1,9.2 2.1,11.2 0,6.9 -2.2,13.7 -3.7,20.3 -1,4.5 -1.8,8.4 -2.8,12.8 -0.6,-3.6 -1.2,-7.2 -2.4,-10.7 -2.3,-6.7 -5.9,-12.8 -7.4,-19.8 -0.2,-0.9 -1.4,-0.8 -1.5,0.1 -0.7,7.5 -1.7,14.7 0.5,22.2 1.7,5.8 6.9,10.3 8.8,16.1 -0.2,0.7 -0.3,1.4 -0.5,2.1 -4.6,14.6 -11,26.8 -24.4,34.9 -0.3,0.2 -0.1,0.4 0.1,0.5 -2.5,1.8 -5.1,3.6 -7.6,5.5 -6.7,5.3 -13.1,11 -19.7,16.4 7,-17.5 4.7,-36.4 15.4,-52.4 1.9,0.6 4.5,-0.9 5.9,-1.8 2.6,-1.5 4.5,-3 6.5,-5 1.2,-1.2 2.5,-2.6 1,-4.2 -1.4,-1.5 -3.5,-0.4 -5,0.5 -2.5,1.5 -5,3.1 -7.2,5 -0.5,0.5 -0.9,1.1 -1.1,1.5 -0.8,1.1 -1.5,2 -0.9,3.3 -8.3,10.7 -10.2,22.4 -12.3,35.5 -0.7,-6.7 0.8,-12.7 1.5,-19.4 0.6,-6.8 -0.2,-13.9 -0.9,-20.7 -0.1,-0.5 -1,-0.7 -1.1,-0.1 -1.8,8.2 -2.8,16.4 -3,24.8 -0.1,3.6 0.1,7.4 0.7,10.8 0.6,3.5 2.2,6.7 1.7,10.1 -0.8,5.7 -3,10.7 -5.8,15.7 -7.5,5 -14.1,10.4 -22.7,13.6 -14.4,5.3 -29.2,8.2 -44.5,10 25.6,-15.8 44.9,-33.5 58.9,-60.4 0.3,-0.6 -0.6,-0.9 -1,-0.4 -4.7,6 -10.5,10.9 -16.4,15.7 -5.2,4.3 -10.2,9.1 -14.4,14.3 -9.1,11.2 -18,21.4 -29.5,30.1 -0.5,0.4 -1.1,0.7 -1.7,1 -6.5,0.4 -13.1,0.2 -19.5,0.2 -0.8,0 -1,1.1 -0.1,1.2 5.9,0.4 11.9,0.9 17.9,0.8 z m 72.6,22.4 c 2.1,3.1 4.7,5.1 7.5,7.4 -5.9,-2.4 -10.9,-5.4 -14.7,-10.6 -3,-4.1 -4,-9.1 -6.9,-13.2 7.3,3.2 9.9,10 14.1,16.4 z M 716,745.7 c -3.2,2.1 -6.4,4 -9.9,5.7 -2,1 -3.8,1.8 -6.1,2.7 -0.3,0.1 -1.7,0.9 -2.4,1.1 -0.7,0.2 -2,0.2 -2.8,0.3 6.9,-3.8 13.9,-7.2 21.2,-9.8 z m 79.5,-36.5 c 0,0 -0.4,0 -0.4,0 -0.1,0 -0.2,0 -0.1,0 0.1,0 0.4,0 0.5,0 0,0 0,0 0,0 z m -1.5,0.2 c 0,0 0,0 0,0 -0.1,0 -0.4,0.1 -0.4,0.1 0.1,0 0.5,-0.1 0.4,-0.1 0.1,0 0,0 0,0 z m -49.9,-19.8 c -4.9,3.3 -9.9,6.1 -15.1,8.7 -7,3.4 -13.5,7 -19.8,11.7 -0.3,0 -0.6,0 -0.9,-0.1 9,-12.5 21.9,-15 35.8,-20.3 z m 72.8,-28.4 c 1.8,0.2 2.7,0.5 3.9,1.2 1.2,0.7 1.3,1.5 1.7,2.6 -4.3,-0.9 -8.6,-1.8 -12.8,-2.9 2,-1.1 5.3,-1.1 7.2,-0.9 z m 27.5,-31.3 c 2.1,-0.5 4.2,-1.5 6.4,-1 1.4,-0.2 2.2,0.1 2.1,1.6 -3.5,0.7 -7.1,1.7 -10.6,2.4 -1.1,0.2 -2.4,0.7 -3.4,0.8 -1.8,0.1 -1.9,-0.1 -0.3,-1.2 1.5,-1.1 3.8,-2.1 5.8,-2.6 z m -19.7,15.7 c 1.3,0.3 2.5,0.7 3.7,1 -1.6,0.5 -3.3,1.2 -5,1.2 -3.6,0.1 -6.1,-1.3 -8.9,-3.3 0,0 0.1,-0.1 0.1,-0.1 3.4,0 6.8,0.4 10.1,1.2 z m -7.7,-8.4 c 1.9,-1.9 4.1,-3 6.4,-4.2 0.4,-0.2 0.7,-0.3 1.1,-0.5 -3.3,3 -6.7,5.9 -10.3,8.5 0.9,-1.3 1.7,-2.7 2.8,-3.8 z m -1.1,-11 c -0.2,0 0.2,-0.2 0.3,-0.3 0.8,-0.3 1.8,-0.7 2.7,-1.1 -0.8,0.6 -2.2,1.3 -3,1.4 z m -9.1,-24.5 c -0.4,0.8 -1,1.7 -1.5,2.5 0.3,-0.9 0.8,-1.9 1.3,-2.7 0.1,0 0.3,0.1 0.2,0.2 z m 4.8,-7.5 c 0,-0.1 0.6,-0.8 0.6,-0.8 0,0 -0.4,0.9 -0.5,0.9 -0.1,0 -0.1,0 -0.1,-0.1 z M 787.2,581 c -1.5,4.9 -3.4,9.7 -5.6,14.3 0,0 -0.1,0.1 -0.1,0 0.6,-3.6 1.2,-13.1 5.7,-14.3 z m 5.1,23.8 c -2.9,7.9 -6.3,14.9 -12.2,21 3.7,-7.2 7.7,-14.3 12.2,-21 z m -62.2,7.1 c 0.1,0.5 0.3,1 0.5,1.5 -0.4,-0.4 -0.5,-0.9 -0.5,-1.5 z m 30.2,17.2 c -4.4,6 -8.7,12 -14.2,17.2 -6,5.6 -12.8,9.9 -19.8,14.2 10.3,-11.9 22,-21.6 34,-31.4 z m -43,17.1 c -3.2,-6.9 -3.2,-14 -2.6,-21.5 1.5,4.3 3.8,8.3 5.4,12.6 2.2,5.7 3.3,11.6 3.8,17.7 0,0.4 -0.3,0.7 -0.3,1.1 -1.8,-3.6 -4.6,-6.3 -6.3,-9.9 z M 672.9,664 c 0.7,7.1 1,14.1 -0.1,21.1 -0.5,3.3 -1.1,6.2 -1.2,9.5 -0.3,-1.6 -0.7,-3.3 -0.7,-4.9 -0.3,-8.7 0.4,-17.1 2,-25.7 z m 0.2,66.7 c 6.2,-1.1 12.2,-1.4 18.2,-3.3 -6,3.7 -12.1,6.9 -18.9,8.8 -8.1,2.3 -16.3,1.8 -24.6,1.4 8.2,-2.9 16.6,-5.4 25.3,-6.9 z M 627,715.1 c 4.7,-5.8 10.3,-10.9 16.2,-15.8 3.8,-3.2 7.7,-6.4 11.1,-10.1 -12.3,19.8 -27.3,35.5 -46.7,48.3 7.1,-7 13,-14.5 19.4,-22.4 z"
             id="path185"
             inkscape:connector-curvature="0"
             style="fill:#231f20" /></g><path
           class="st0"
           d="m 905.6,484.8 c 0.1,1.6 0.3,3.1 0.6,4.6 -0.1,2.8 -1.1,5.5 -2.1,8.2 -1.8,4.8 -4,9.5 -6.5,14.1 -1.1,2.1 -2.4,4.3 -3.3,6.5 -1.2,2.4 -2.9,6.4 -1.5,8.7 0.1,0.4 0.1,0.8 0.2,1.2 -1.3,1.6 -2.7,3.2 -4.3,4.6 -4.8,4.3 -10.3,8 -14.6,12.8 3.2,-8.9 5.2,-18.3 5.5,-27.7 0.3,0 0.5,-0.3 0.3,-0.5 -0.1,-0.1 -0.2,-0.2 -0.3,-0.3 0,-0.1 0,-0.2 0,-0.4 4.6,-6.5 5.5,-15.2 2.8,-22.6 -1.7,-4.6 -4.9,-8.4 -8,-12.1 -3.8,-4.5 -7.5,-9.1 -11.3,-13.6 -0.4,-0.5 -1.3,0.1 -1,0.7 4.5,8.3 9.2,16.7 10.5,26.1 1.1,7.4 0.5,15.8 5.7,21.6 0,0 0,0.1 0.1,0.1 -0.3,9.6 -2.2,19.2 -5.5,28.3 0,-3.7 -0.8,-7.5 -1.7,-10.9 -0.3,-1.2 -0.6,-2.3 -1,-3.4 0.1,-0.1 0.2,-0.3 0,-0.4 -0.1,0 -0.1,-0.1 -0.2,-0.1 -0.1,-0.3 -0.2,-0.6 -0.3,-0.9 0.2,0 0.3,-0.2 0.4,-0.4 1.6,-6 -0.5,-11.9 -3.8,-16.9 -4,-6.1 -9.1,-11.5 -13.8,-17.1 -0.3,-0.4 -1,0 -0.9,0.5 2.7,7.9 5.4,15.8 8.1,23.7 0.9,2.6 1.8,5.3 3.5,7.6 1.7,2.3 3.7,2.4 5.9,3.6 0.5,1.5 1,3 1.3,4.6 1,3.9 1.1,7.9 1.8,11.9 -1.3,3.5 -2.9,7 -4.6,10.4 -2.2,4.4 -5.1,8.8 -8,13.3 1.2,-5.6 0.9,-11.4 -0.1,-17 0.3,-0.1 0.6,-0.3 0.9,-0.5 2.9,-2.4 3.3,-7.3 3,-10.7 -0.5,-4.8 -3,-9.1 -5.8,-13 -3.5,-4.9 -7.3,-9.6 -10.9,-14.4 -0.3,-0.4 -0.5,-0.7 -0.8,-1 -0.4,-0.5 -1,0.2 -0.7,0.6 5.8,7.2 3.9,16.9 5,25.5 0.5,3.7 1.5,7.5 3.8,10.5 1.1,1.5 2.7,3.2 4.6,3.1 0,0 0.1,0 0.1,0 1.1,6.2 1.3,12.5 -0.4,18.7 -1.3,-3.7 -3.1,-7.2 -5.4,-10.4 1.2,-5.9 -3.6,-11.4 -7.4,-15.5 -5.8,-6.3 -12.7,-11.5 -20.3,-15.6 -0.5,-0.3 -1.2,0.4 -0.7,0.8 6.5,6.1 8.8,14.9 13.3,22.4 2.9,4.9 8.3,11.9 14.9,9.8 0.1,0 0.1,-0.1 0.2,-0.1 2,3 3.6,6.2 4.8,9.8 -6.4,10.2 -11.9,21 -8.4,33.1 0.1,0.3 0.6,0.2 0.5,-0.1 -2.3,-9.5 1.2,-18.5 5.9,-26.7 3.5,-3.1 7.1,-5.9 11.4,-8 1.8,-0.9 3.6,-1.6 5.5,-2.1 1.1,1.1 2.7,1.9 3.8,2.4 2.4,1.1 5.1,1.7 7.7,1.7 5.4,0.1 10.7,-2 14.4,-6.1 4.4,-4.9 6.2,-11.4 7.5,-17.6 0.1,-0.5 -0.4,-1.1 -0.9,-0.8 -1.8,1 -2.9,2.5 -4.4,3.9 -1.7,1.6 -3.7,2.5 -5.9,3.2 -3.9,1.2 -8,1.4 -11.9,2.4 -2.5,0.6 -5.7,1.9 -7.8,3.8 -1.5,1.1 -3.8,3.2 -3.5,5.3 0,0.1 0.1,0.3 0.1,0.4 -5.5,1.9 -10.7,5.2 -14.6,9.1 0,0 0,0 0,0 5,-8.1 10.1,-15.9 13.9,-24.6 0.8,-1.9 1.6,-3.8 2.4,-5.8 5.4,-5.8 12.2,-10 17.8,-15.6 0.7,-0.7 1.4,-1.5 2.1,-2.3 0.1,0.2 0.5,0.1 0.4,-0.2 0,-0.1 0,-0.2 -0.1,-0.2 0.2,-0.3 0.4,-0.5 0.6,-0.8 0.3,0.1 0.6,0.2 0.9,0.2 5.2,0.9 10.6,-1.6 13.6,-5.9 7,-10 0.5,-22.2 -1.7,-33.2 0,-1.6 -0.1,-3.2 -0.6,-4.7 0.2,-0.3 -0.8,-0.3 -0.8,0.4 z"
           id="path187"
           inkscape:connector-curvature="0"
           style="fill:#231f20" /><path
           class="st0"
           d="m 580.6,735.7 c -1,0.5 -1.9,1.1 -2.8,1.7 -1.8,0.7 -3.9,0.9 -5.9,1 -3.7,0.2 -7.3,0.1 -11,-0.3 -1.7,-0.1 -3.4,-0.3 -5.2,-0.3 -1.9,-0.1 -5,-0.1 -6,1.5 -0.2,0.1 -0.5,0.3 -0.7,0.5 -1.4,-0.4 -2.8,-0.9 -4.2,-1.5 -4.2,-1.9 -8.1,-4.4 -12.4,-5.8 6.7,-0.4 13.3,-1.8 19.5,-4.2 0,0.2 0.3,0.3 0.4,0 0,-0.1 0.1,-0.2 0.1,-0.3 0.1,0 0.2,-0.1 0.2,-0.1 5.5,1.2 11.4,-0.7 15.5,-4.6 2.5,-2.4 4.1,-5.5 5.6,-8.6 1.9,-3.7 3.8,-7.4 5.7,-11.2 0.2,-0.4 -0.5,-0.8 -0.7,-0.4 -4.1,5.3 -8.3,10.6 -14,14.2 -4.5,2.8 -10.1,4.8 -12.4,9.8 0,0 0,0 -0.1,0.1 -6.3,2.5 -13.1,3.9 -19.9,4.4 2.4,-1 4.6,-2.6 6.6,-4.2 0.7,-0.5 1.3,-1 2,-1.6 0.1,0.1 0.2,0 0.3,-0.1 0,-0.1 0,-0.1 0,-0.1 0.2,-0.1 0.3,-0.3 0.5,-0.5 0.1,0.1 0.2,0.1 0.3,0.1 4.4,-0.6 7.6,-3.6 9.9,-7.2 2.8,-4.3 4.9,-9.2 7.2,-13.8 0.2,-0.3 -0.3,-0.7 -0.5,-0.4 -4.4,4 -8.7,8 -13.1,11.9 -1.4,1.3 -3,2.7 -4,4.4 -1,1.7 -0.5,3.1 -0.7,4.8 -0.8,0.8 -1.7,1.5 -2.6,2.2 -2.3,1.7 -4.8,3 -7.2,4.5 -2.7,0.1 -5.4,0.1 -8,-0.1 -3.5,-0.2 -7.2,-0.9 -10.9,-1.5 4,-0.8 7.6,-2.6 11,-4.8 0.2,0.2 0.3,0.3 0.6,0.4 2.3,1.2 5.7,0.1 7.8,-1.1 3,-1.7 5.1,-4.5 6.8,-7.5 2.2,-3.7 4.2,-7.4 6.3,-11.1 0.2,-0.3 0.3,-0.5 0.5,-0.8 0.2,-0.4 -0.4,-0.6 -0.6,-0.2 -3.1,5.8 -9.9,7.3 -15.1,10.4 -2.3,1.4 -4.5,3.1 -5.8,5.4 -0.6,1.1 -1.3,2.6 -0.7,3.9 0,0 0,0 0,0.1 -3.7,2.4 -7.8,4.4 -12.3,5 2,-1.9 3.8,-4 5.2,-6.4 4.2,-0.9 6.4,-5.5 8,-9.1 2.5,-5.6 3.9,-11.5 4.4,-17.6 0,-0.4 -0.6,-0.6 -0.7,-0.2 -2.2,5.9 -7.2,9.9 -10.8,14.9 -2.4,3.3 -5.4,8.8 -2.2,12.4 0,0 0.1,0.1 0.1,0.1 -1.4,2.1 -3,4.1 -5,5.9 -8.5,-1.3 -17,-1.8 -23.9,3.9 -0.2,0.2 0,0.5 0.2,0.3 5.5,-4.2 12.4,-4.4 19,-3.7 3,1.4 5.8,3 8.4,5.2 1.1,0.9 2,1.9 2.9,3 -0.4,1 -0.5,2.3 -0.5,3.2 0,1.9 0.3,3.8 1,5.5 1.5,3.6 4.3,6.4 8,7.6 4.4,1.5 9.1,0.8 13.6,-0.1 0.4,-0.1 0.6,-0.6 0.2,-0.8 -1.2,-0.9 -2.5,-1.1 -3.8,-1.7 -1.5,-0.7 -2.7,-1.7 -3.8,-2.9 -1.9,-2.2 -3.2,-4.8 -4.9,-7.1 -1.1,-1.4 -2.8,-3.2 -4.7,-4 -1.1,-0.7 -3.2,-1.6 -4.4,-0.8 -0.1,0.1 -0.2,0.1 -0.2,0.2 -2.8,-3 -6.4,-5.5 -10,-7 0,0 0,0 0,0 6.6,0.9 13.2,2 19.9,2.1 1.5,0 2.9,0 4.4,-0.1 5.3,1.9 9.9,5.1 15.2,7.1 0.7,0.3 1.4,0.5 2.1,0.7 -0.1,0.1 0.1,0.4 0.2,0.2 0,0 0.1,-0.1 0.1,-0.1 0.2,0.1 0.4,0.1 0.7,0.2 0,0.2 0,0.4 0.1,0.7 0.9,3.6 4,6.5 7.7,7.2 8.5,1.7 14.6,-5.9 21.1,-10.4 1,-0.4 2,-1 2.9,-1.7 0.2,-0.3 0,-0.9 -0.5,-0.7 z"
           id="path189"
           inkscape:connector-curvature="0"
           style="fill:#231f20" /><path
           class="st0"
           d="m 311,473.6 c -0.5,-0.7 -1.1,-1.4 -1.7,-2.1 -0.8,-1.4 -1.2,-3 -1.5,-4.6 -0.6,-2.9 -0.9,-5.9 -1.1,-8.8 -0.1,-1.4 -0.1,-2.8 -0.4,-4.2 -0.1,-1.6 -0.5,-4 -1.9,-4.7 -0.1,-0.2 -0.3,-0.3 -0.5,-0.5 0.1,-1.2 0.4,-2.4 0.7,-3.6 1,-3.6 2.6,-7 3.2,-10.6 1.1,5.3 3,10.5 5.7,15.1 -0.1,0.1 -0.2,0.3 0,0.3 0.1,0 0.1,0 0.2,0.1 0,0.1 0.1,0.1 0.1,0.2 -0.3,4.6 1.9,9.1 5.5,11.9 2.2,1.7 4.9,2.6 7.6,3.5 3.2,1.1 6.4,2.1 9.6,3.2 0.4,0.1 0.6,-0.5 0.3,-0.7 -4.7,-2.7 -9.5,-5.4 -13,-9.6 -2.7,-3.3 -5,-7.5 -9.3,-8.8 0,0 0,0 -0.1,0 -2.8,-4.8 -4.7,-10 -5.8,-15.5 1.1,1.8 2.7,3.4 4.1,4.8 0.5,0.5 1,0.9 1.5,1.4 0,0.1 0,0.2 0.1,0.2 0,0 0.1,0 0.1,0 0.1,0.1 0.3,0.2 0.4,0.3 -0.1,0.1 -0.1,0.2 -0.1,0.3 1,3.4 3.8,5.7 6.9,7.1 3.8,1.8 7.9,2.9 11.9,4.2 0.3,0.1 0.5,-0.3 0.3,-0.5 -3.7,-3 -7.4,-6.1 -11.1,-9.1 -1.2,-1 -2.5,-2.1 -4,-2.7 -1.5,-0.6 -2.5,-0.1 -3.9,0 -0.7,-0.6 -1.4,-1.2 -2,-1.8 -1.7,-1.6 -3,-3.5 -4.5,-5.3 -0.4,-2.1 -0.7,-4.3 -0.9,-6.5 -0.2,-2.8 -0.2,-5.8 -0.1,-8.9 1.1,3.1 3,5.8 5.2,8.3 -0.1,0.1 -0.2,0.3 -0.3,0.5 -0.7,2 0.6,4.6 1.8,6.1 1.7,2.2 4.2,3.5 6.8,4.6 3.2,1.3 6.4,2.5 9.7,3.7 0.2,0.1 0.5,0.2 0.7,0.3 0.3,0.1 0.4,-0.4 0.1,-0.5 -5,-1.8 -7,-7.1 -10.1,-10.9 -1.3,-1.7 -3,-3.2 -5,-4 -1,-0.4 -2.3,-0.8 -3.2,-0.1 0,0 0,0 0,0 -2.4,-2.7 -4.4,-5.7 -5.4,-9.2 1.8,1.4 3.7,2.6 5.7,3.4 1.2,3.3 5.2,4.5 8.3,5.3 4.8,1.3 9.7,1.8 14.6,1.5 0.3,0 0.4,-0.5 0.1,-0.6 -5,-1 -8.8,-4.6 -13.2,-6.9 -2.9,-1.5 -7.6,-3.3 -10.2,-0.3 0,0 0,0.1 0,0.1 -1.9,-0.9 -3.6,-2 -5.3,-3.3 0,-6.9 -0.6,-13.8 -5.9,-18.7 -0.1,-0.1 -0.4,0.1 -0.2,0.2 4,3.9 5,9.4 5.2,14.8 -0.8,2.6 -1.7,5 -3.2,7.3 -0.6,1 -1.3,1.9 -2,2.7 -0.8,-0.2 -1.9,-0.1 -2.6,0 -1.5,0.2 -3,0.7 -4.3,1.5 -2.7,1.6 -4.6,4.2 -5.2,7.3 -0.7,3.7 0.4,7.4 1.7,10.9 0.1,0.3 0.5,0.4 0.7,0.1 0.5,-1 0.6,-2.1 0.9,-3.2 0.4,-1.3 1.1,-2.4 1.9,-3.4 1.5,-1.8 3.5,-3.1 5.1,-4.7 1,-1 2.2,-2.6 2.7,-4.2 0.4,-1 0.9,-2.7 0.1,-3.6 -0.1,-0.1 -0.1,-0.1 -0.2,-0.2 2.1,-2.6 3.7,-5.7 4.4,-8.8 0,0 0,0 0,0 0,5.4 -0.1,10.8 0.7,16.2 0.2,1.2 0.4,2.4 0.6,3.5 -0.9,4.5 -2.9,8.6 -3.9,13 -0.1,0.6 -0.3,1.1 -0.3,1.7 -0.1,-0.1 -0.3,0.1 -0.2,0.2 0,0 0.1,0.1 0.1,0.1 0,0.2 -0.1,0.4 -0.1,0.6 -0.2,0 -0.3,0.1 -0.5,0.2 -2.8,1.1 -4.7,4 -4.9,7 -0.4,7 6.4,11 10.8,15.7 0.5,0.8 1,1.5 1.7,2.1 0,0.3 0.5,0 0.3,-0.4 z"
           id="path191"
           inkscape:connector-curvature="0"
           style="fill:#231f20" /><path
           class="st0"
           d="m 443.1,222.6 c 0.7,-0.6 1.2,-1.3 1.8,-2 1.3,-1 2.8,-1.6 4.4,-2.1 2.8,-1 5.7,-1.7 8.6,-2.3 1.3,-0.3 2.7,-0.5 4.1,-0.9 1.5,-0.4 3.9,-1.1 4.4,-2.5 0.2,-0.2 0.3,-0.4 0.4,-0.5 1.2,0 2.4,0 3.6,0.2 3.7,0.5 7.3,1.6 11,1.7 -5.1,1.9 -9.9,4.4 -14.2,7.8 -0.1,-0.1 -0.3,-0.1 -0.3,0.1 0,0.1 0,0.1 0,0.2 -0.1,0 -0.1,0.1 -0.2,0.1 -4.6,0.4 -8.7,3.2 -11,7.1 -1.4,2.5 -1.9,5.2 -2.4,8 -0.6,3.3 -1.2,6.6 -1.8,10 -0.1,0.4 0.5,0.5 0.7,0.2 2,-5 4,-10.2 7.6,-14.2 2.9,-3.2 6.7,-6 7.4,-10.5 0,0 0,0 0,-0.1 4.3,-3.4 9.3,-6.1 14.5,-8 -1.6,1.4 -3,3.1 -4.2,4.8 -0.4,0.5 -0.8,1.1 -1.2,1.7 -0.1,0 -0.2,0 -0.2,0.1 0,0 0,0.1 0,0.1 -0.1,0.2 -0.2,0.3 -0.3,0.5 -0.1,-0.1 -0.2,-0.1 -0.3,0 -3.2,1.5 -5.1,4.6 -6,7.9 -1.2,4 -1.7,8.3 -2.4,12.4 0,0.3 0.4,0.5 0.5,0.2 2.5,-4.1 5,-8.2 7.4,-12.3 0.8,-1.4 1.7,-2.7 2.1,-4.3 0.4,-1.6 -0.3,-2.5 -0.6,-3.9 0.5,-0.8 1,-1.5 1.5,-2.3 1.4,-1.9 3.1,-3.4 4.6,-5.2 2.1,-0.7 4.1,-1.3 6.3,-1.8 2.7,-0.6 5.8,-1 8.8,-1.4 -2.9,1.5 -5.3,3.8 -7.4,6.3 -0.2,-0.1 -0.3,-0.2 -0.5,-0.2 -2.1,-0.4 -4.4,1.2 -5.8,2.6 -1.9,2 -2.9,4.7 -3.6,7.4 -0.8,3.3 -1.5,6.7 -2.3,10.1 -0.1,0.2 -0.1,0.5 -0.2,0.7 -0.1,0.3 0.4,0.4 0.5,0.1 1,-5.2 6,-8 9.4,-11.6 1.4,-1.6 2.8,-3.4 3.2,-5.5 0.2,-1 0.4,-2.4 -0.3,-3.2 0,0 0,0 0,0 2.3,-2.8 5,-5.2 8.4,-6.7 -1.1,1.9 -2,4 -2.6,6.2 -3.1,1.6 -3.7,5.8 -4.1,8.9 -0.6,4.9 -0.4,9.8 0.6,14.7 0.1,0.3 0.6,0.4 0.6,0 0.3,-5.1 3.3,-9.4 4.9,-14.1 1.1,-3.1 2.1,-8 -1.2,-10.1 0,0 -0.1,0 -0.1,0 0.6,-2 1.4,-3.9 2.5,-5.7 6.9,-1 13.6,-2.5 17.6,-8.5 0.1,-0.2 -0.1,-0.4 -0.3,-0.2 -3.3,4.5 -8.6,6.3 -13.9,7.2 -2.7,-0.4 -5.2,-1 -7.7,-2.1 -1.1,-0.5 -2,-1 -2.9,-1.6 0.1,-0.9 -0.2,-1.9 -0.4,-2.6 -0.4,-1.5 -1.1,-2.8 -2.1,-4 -2,-2.4 -4.8,-4 -7.9,-4.1 -3.8,-0.1 -7.3,1.5 -10.5,3.2 -0.3,0.1 -0.3,0.6 0,0.7 1.1,0.4 2.2,0.3 3.3,0.5 1.3,0.2 2.5,0.7 3.6,1.4 2,1.3 3.6,3 5.4,4.4 1.2,0.9 2.9,1.8 4.6,2 1,0.3 2.8,0.5 3.6,-0.4 0.1,-0.1 0.1,-0.1 0.1,-0.2 2.9,1.7 6.2,2.8 9.4,3.1 0,0 0,0 0,0 -5.4,0.8 -10.7,1.4 -15.9,3 -1.1,0.3 -2.3,0.7 -3.4,1.1 -4.6,-0.3 -8.9,-1.6 -13.4,-2.1 -0.6,-0.1 -1.2,-0.1 -1.8,-0.1 0.1,-0.1 -0.2,-0.3 -0.2,-0.1 0,0 -0.1,0.1 -0.1,0.1 -0.2,0 -0.4,0 -0.6,0 -0.1,-0.2 -0.1,-0.3 -0.2,-0.5 -1.5,-2.6 -4.6,-4.1 -7.6,-3.8 -7,0.6 -10,7.9 -14,12.9 -0.7,0.6 -1.3,1.2 -1.8,2 -0.1,-0.2 0.3,0.3 0.5,0 z"
           id="path193"
           inkscape:connector-curvature="0"
           style="fill:#231f20" /></g></g></switch></svg>