<?xml version="1.0" encoding="UTF-8" standalone="no"?>
<svg
   xmlns:dc="http://purl.org/dc/elements/1.1/"
   xmlns:cc="http://creativecommons.org/ns#"
   xmlns:rdf="http://www.w3.org/1999/02/22-rdf-syntax-ns#"
   xmlns:svg="http://www.w3.org/2000/svg"
   xmlns="http://www.w3.org/2000/svg"
   xmlns:sodipodi="http://sodipodi.sourceforge.net/DTD/sodipodi-0.dtd"
   xmlns:inkscape="http://www.inkscape.org/namespaces/inkscape"
   version="1.1"
   id="Layer_1"
   x="0px"
   y="0px"
    class="withFill"
   viewBox="0 0 1000 1000"
   width="100%"
   height="100%"
   style="enable-background:new 0 0 1000 1000;"
   xml:space="preserve"
   ><style
     type="text/css"
     id="style3">
	.st0{fill:#B9921D;}
	.st1{fill:#231F20;}
</style><switch
     id="switch5"
     transform="translate(3.1287678,70.32689)"><g
       id="g7"><g
         id="g9"><g
           id="g11"><path
             class="st1"
             d="m 497.3,147.8 c 25.9,0 51.1,3.5 75,9.9 l 0,-2.5 c -23.9,-6.4 -49.1,-9.8 -75,-9.8 -160.5,0 -291.1,130.6 -291.1,291.1 0,28.8 4.2,56.6 12,82.9 l 2.5,0 C 212.8,493.1 208.6,465.3 208.6,436.5 208.5,277.4 338.1,147.8 497.3,147.8 Z"
             id="path13"
             inkscape:connector-curvature="0"
             style="fill:#b9921d" /><path
             class="st1"
             d="m 775,357.8 c 7.1,25.1 11,51.5 11,78.8 0,159.2 -129.5,288.7 -288.7,288.7 -16.4,0 -32.4,-1.4 -48.1,-4 l 0,2.4 c 15.6,2.6 31.7,4 48.1,4 160.5,0 291.1,-130.6 291.1,-291.1 0,-27.3 -3.8,-53.7 -10.9,-78.8 l -2.5,0 z"
             id="path15"
             inkscape:connector-curvature="0"
             style="fill:#b9921d" /></g><g
           id="g17"><path
             class="st1"
             d="m 208.8,520.2 c -7.8,-26.6 -12,-54.8 -12,-83.9 0,-165.1 134.3,-299.4 299.4,-299.4 26.3,0 51.8,3.4 76.1,9.8 l 0,-6.5 c -24.3,-6.3 -49.8,-9.6 -76.1,-9.6 -168.6,0 -305.7,137.1 -305.7,305.7 0,29.1 4.1,57.2 11.7,83.9 l 6.6,0 z"
             id="path19"
             inkscape:connector-curvature="0"
             style="fill:#b9921d" /><path
             class="st1"
             d="m 791.7,358 -6.6,0 c 6.8,25 10.5,51.3 10.5,78.4 0,165.1 -134.3,299.4 -299.4,299.4 -16.1,0 -31.9,-1.3 -47.3,-3.7 l 0,6.4 c 15.4,2.4 31.2,3.7 47.3,3.7 168.6,0 305.7,-137.1 305.7,-305.7 0,-27.3 -3.6,-53.5 -10.2,-78.5 z"
             id="path21"
             inkscape:connector-curvature="0"
             style="fill:#b9921d" /></g><g
           id="g23"><path
             class="st0"
             d="m 650,257.8 c -0.9,-1.1 -0.1,-2.7 1.2,-3.1 6.2,-2 13.3,-2.7 19.6,-3.1 3.6,-0.2 5.7,-1.3 8.6,-2.6 2.9,-1.3 4.8,-1.5 7.8,-0.9 0.7,0.2 1.3,0.7 1.8,1.2 9.3,-3.5 18.4,-7.1 27.5,-11.1 -8.9,-1.5 -17.8,-2.5 -26.7,-3.8 -5.6,-0.8 -11.2,-2 -16.8,-3.4 -11.2,3.7 -21.5,5.4 -33.3,4 -0.1,0 -0.1,0 -0.2,0 -1.1,0.1 -2.3,-0.1 -3.4,0 -2.1,0.1 -4.3,0.2 -6.3,0.5 -0.5,0.1 -0.7,0.9 -1.2,1.1 -3.4,1.2 -6.6,2.6 -10.3,1.9 -6.7,-1.4 -10,-6.7 -12.1,-12.9 -0.6,-1.8 0.6,-3.3 2.6,-3.3 2,0 4.1,1.1 6.1,1.7 2.9,0.9 6.8,0.6 9.6,1.2 2.8,0.6 3.7,2 6,3.4 5.2,3 10.9,4.1 16.9,4.2 3.8,0.1 6.9,0 10.9,-0.7 2.7,-0.5 6.7,-2.6 9.8,-2.3 -5.6,-1.5 -11.1,-3.3 -16.5,-5.4 -4.1,-1.5 -6.5,-3.4 -11.2,-3.3 -4.8,0.1 -10.9,1.6 -15.9,1 -3.5,-0.4 -7.2,-1.3 -10.1,-3.2 -5.7,-3.6 -8,-8.5 -9.9,-14.7 -0.4,-1.4 1.5,-2.6 2.8,-1.8 2.8,2 6,4.7 9.4,5.3 3.5,0.5 6.6,-1.1 9.8,-0.7 4.4,0.5 6.5,2.9 9.9,5.6 3.4,2.8 6.7,5.8 11.1,7.4 3.1,1.2 6.7,2.1 10,3 3.3,0.9 7,0.9 10.1,2.6 -3.3,-2.5 -6.4,-4.4 -9.7,-7.3 -1.8,-1.6 -5.2,-5.8 -7.5,-6 -4.5,-0.4 -4.7,-0.4 -7.8,-3.3 -3.1,-2.8 -7.6,-4.5 -10.8,-7.4 -3.2,-2.9 -5.5,-6.4 -7.9,-9.9 -0.8,-1.2 -2.4,-2.9 -1,-4.2 8.9,-8.4 21.4,5.8 25.2,12.8 2.6,4.6 2.7,7.1 5.3,10.6 2.6,3.4 5.3,5.4 8.5,7.6 4.3,3 8.2,6 13,7.9 10.2,4 21.3,3.6 32,5.5 -8.4,-5.3 -16.8,-10.4 -25.3,-15.5 -0.9,-0.6 -2,-1.1 -3,-1.3 -1,-0.2 -1.7,0.1 -2.5,-0.1 -2.8,-0.7 -4.5,-3.2 -6.9,-4.4 -2.4,-1.2 -4.9,-0.4 -7.3,-1.3 -4,-1.5 -6,-5 -7.8,-8.6 -1.2,-2.3 -2.2,-4.6 -3.4,-6.9 -0.3,-0.5 -0.7,-1.1 -0.5,-1.7 0.4,-1.9 2.6,-2.4 4.5,-2.2 4.9,0.7 9.7,2.3 13.3,5.8 5,4.9 7.6,11.3 12.5,16.3 2.6,2.7 5.8,4.4 9.1,6.3 14.6,8.2 28.6,15.4 45.2,18.7 -19.2,-17.5 -38.9,-34 -61,-47.7 -2.9,-1.8 -6.4,-3.3 -9.3,-4.1 -3,-0.8 -5.3,-0.9 -8,-1.1 -9.3,-0.6 -18.1,-0.7 -27.4,-0.5 -2.3,0 -4,0.1 -6.7,0.7 -2.7,0.6 -7.1,1.8 -9.8,3.1 -1.7,0.9 -2.7,2.7 -4.3,3.5 -4.3,1.9 -9,2.2 -13.5,0.7 -8.7,-2.9 -13.3,-9.9 -16.9,-17.8 -0.5,-1.2 0.5,-2.1 1.6,-1.9 2.7,0.6 5,2 7.6,3.3 4.5,2.3 8.9,2.5 13.8,2.5 6.8,0 11.9,2.6 17.7,5.6 12.9,-2.1 25.5,-3.3 38.6,-2.3 -12,-5.8 -24.6,-10.1 -37.4,-13.8 -0.6,0.6 -0.9,1.1 -1.9,1.2 -8.9,1 -18.6,-1.2 -25.8,-6.4 -7.1,-5.2 -9.9,-10.7 -11.4,-19 -0.2,-1.1 1.2,-1.7 2.1,-1.1 11.8,7.5 24.4,13.5 36,21.3 0.9,0.6 1.2,1.6 1.3,2.7 15.9,4.3 31.2,9.6 46.1,16.5 0.2,0.1 0.4,0.2 0.6,0.3 16.6,7.8 31.4,17.5 45.8,28.8 -3,-7 -6.2,-13.8 -10.2,-20.4 -13.3,-6.4 -25.9,-13.9 -38,-22.3 -1.3,0.6 -1.9,0.5 -3.4,0 -2.9,-1.1 -4.9,1.1 -7.8,1.8 -2.9,0.7 -6.3,0.2 -9.1,-1.3 -4.9,-2.7 -8.6,-6.7 -10.4,-12 -0.5,-1.5 0.9,-2.9 2.5,-2.9 2.7,0.1 4.6,0.7 7.5,1.5 2.9,0.8 6.6,0.5 9.8,1.5 4.4,1.3 8.5,3.6 11.6,7.2 0.5,0.6 0.5,1.1 0.6,1.7 10.9,7.3 21.9,14 33.5,20 -9.8,-14.3 -21.2,-25.8 -35,-36.2 -9.3,-0.2 -18.6,-0.9 -27.8,-1.6 -0.7,1.2 -1.6,2 -3.1,2.1 -7.2,0.5 -13.5,5.3 -20.9,3.5 -7.4,-1.8 -10,-9.2 -15.7,-13.7 -1.1,-0.8 -1,-3 0.9,-2.8 12.4,0.9 24.7,3.6 36.8,6.8 1.2,0.3 1.6,0.9 2.1,1.8 7.9,0.4 15.7,1 23.6,1.3 -9.7,-5.9 -19.5,-10.6 -30,-14.7 -0.6,0.8 -1.5,1.2 -2.5,1 -4.5,-1.2 -8.9,-3.1 -13.4,-3.9 -4.6,-0.8 -8.4,-1.5 -12.3,-4.1 -7.9,-5.3 -12.3,-12.8 -17,-20.9 -0.2,-0.4 0,-1 0.4,-1.1 3,-0.3 3.4,-0.1 6.2,1.5 4.9,2.8 11.3,5.4 16.5,7.6 9.5,4 14.6,10.8 21.8,17.5 0.3,0.3 0.5,0.6 0.6,1.1 12.8,4 24.2,9.1 35.7,15.9 -8.1,-7.8 -16.5,-14.8 -25.5,-21.5 -0.1,-0.1 -0.2,0 -0.3,0 -6,0.2 -11.9,-2.8 -16.1,-6.5 -6.2,-5.4 -6.9,-11.6 -10,-18.6 -0.6,-1.5 1.1,-3.3 2.5,-1.9 5.4,5.4 13.2,6.6 19.4,10.5 6.2,3.8 6.2,8.9 5.6,15.4 0,0.1 0,0.1 0,0.3 1.1,4.2 13.1,9.5 15.3,11.1 4.9,3.6 6.9,5.2 10.2,8.6 3.3,3.5 4.1,6.4 7.9,9.5 3.8,3.1 8.3,6.4 12.1,10.2 5.7,5.8 10.9,12.3 15.5,19.1 -1.5,-2.9 -1.2,-7.2 -2,-10.1 -1.2,-4.4 -2.4,-7.7 -4,-11.8 -1.6,-4.1 -3.1,-8.4 -5.6,-12.1 -2.5,-3.7 -5.6,-5.8 -8.3,-9.8 -2.7,-4 -6.5,-6.7 -8.9,-11.6 -4.1,-8.4 -5.8,-18.7 0.6,-26.8 0.7,-0.9 2,-0.4 2.3,0.5 1.4,3.5 1.3,7.7 2.8,11.1 2,4.8 5.9,6.7 9.3,10.5 2.6,2.9 4,6.8 3.4,10.9 -0.5,4.1 -2.5,6.8 -1.4,11.3 1.1,4.5 4.8,9.1 6.9,13.5 4.7,10.1 7.5,20.1 8.9,31.1 4.5,7.9 7.8,16.3 10.5,25 21.3,17.5 40.3,35.6 53.3,60.1 1.6,-5.6 3.2,-11 3.8,-16.8 -2.5,-0.2 -5,-4.2 -6.2,-5.5 -3.8,-4.5 -7.1,-8.1 -10.7,-12.2 -5.7,-6.5 -10.7,-13.2 -15.3,-20.5 -2.2,0.6 -3.4,0.9 -5.4,-1.1 -2,-1.9 -5.2,-3.5 -7.4,-5.8 -2.3,-2.3 -4.1,-5.1 -4.6,-8.6 -0.8,-4.9 0.1,-10.5 1.3,-15.4 0.2,-0.8 0.9,-1.1 1.6,-0.9 5.4,1.4 6.1,6.8 9,10.8 3.9,5.6 7.9,9.8 8.2,16.9 0,1 -0.4,1.8 -0.9,2.6 8.1,11.7 17.9,22.7 27.6,32.6 1.8,1.8 1.5,2.1 3.4,2.1 0.6,-10.3 0.5,-19.9 -1.1,-30 -8.8,-11.4 -17.6,-22.7 -26.4,-34.1 -0.7,-0.1 -1.2,-0.2 -1.8,-0.5 -5.1,-3.1 -11.7,-4 -15.2,-9.3 -3.5,-5.3 -2,-12.4 -5,-17.9 -0.9,-1.6 0.5,-3.5 2.2,-3.1 6.3,1.6 9.3,6.6 13.8,11 4.6,4.4 9.5,8.9 10.1,15.6 0.1,1.5 -0.7,2.3 -1.5,3.3 7.6,9.5 15.1,19.2 22.6,28.8 -1.7,-2.8 -1.7,-7.4 -2.4,-10.2 -1,-4.1 -2.1,-7.5 -3.3,-11.2 -2.4,-7.1 -5.2,-13.6 -8.3,-20.3 0,0.8 -2.8,0 -3.1,-0.1 -2.1,-0.9 -2.8,-2.6 -4.3,-4 -2.4,-2.2 -5.8,-1.8 -8.4,-3.8 -2.6,-2 -4.8,-5.3 -5.1,-8.7 -0.6,-6.5 2.1,-11.7 4.6,-17.5 0.5,-1.1 2.1,-0.9 2.4,0.2 1.4,4.8 3.6,9 6.4,13.1 2,2.9 2.3,6.2 3.7,9.4 1.4,3.2 4.7,6 4.5,9.8 7.5,12.9 12.7,26.2 16.5,40.6 0.9,-12.2 2.1,-24.3 3.6,-36.4 -1.3,-0.1 -2.4,-0.9 -2.8,-2.1 -0.9,-2.9 -2.7,-5 -3.7,-7.9 -1.1,-2.8 -1.3,-6.4 -0.5,-9.2 1.9,-6.4 6.1,-9.6 11.2,-13.3 2.5,-1.9 4.6,1.3 3.9,3.8 -0.7,2.5 -1.2,5.3 -1,7.9 0.2,2.6 1.3,4.6 1.3,7.1 -0.1,5.2 -3,9 -6.2,12.9 -0.2,0.3 -0.5,0.4 -0.8,0.6 -0.3,15.6 -1.4,31.2 -2.7,46.8 0,0.2 -0.2,0.3 -0.2,0.5 1.2,8.1 1.4,16 0.9,24.2 0.5,-0.8 1.1,-1.6 1.6,-2.3 2.2,-3.2 4.2,-6.5 6,-10 3.1,-6.3 5.3,-12.6 7,-19.4 -5.9,-3.6 -4.9,-11.2 -4.4,-17.3 0.5,-6 0.7,-11.8 4.1,-16.8 0.7,-1 1.9,-0.3 2.1,0.6 1.2,3.6 1.9,7.5 3.9,10.6 2,3.1 3.9,4.9 4.1,8.8 0.4,5.5 -2,13.2 -8.3,14.3 -1.9,9.3 -3.9,16.1 -8.2,25.1 -1.7,3.6 -5.1,10.5 -8.6,13.7 -1,8 -3,15.4 -5.7,22.9 9.1,22.7 13.7,46.9 16.6,71 0.3,2.2 -5.2,2.4 -5.7,0.3 -7.8,-39.9 -13.4,-72.9 -40.3,-104.9 -0.1,-0.1 -0.3,-0.1 -0.4,-0.1 -7,-3.1 -13.9,-5.2 -21.4,-6.7 -10.3,4.9 -20.7,9.4 -31.6,12.8 -0.2,0.7 -0.3,1.2 -1,1.8 -5.9,4.8 -10.1,11.4 -18.2,13.1 -7.9,1.4 -15.3,-3.1 -20.4,-9.3 z"
             id="path25"
             inkscape:connector-curvature="0"
             style="fill:#231f20" /></g><g
           id="g27"><path
             class="st0"
             d="m 357.2,601.8 c 1.1,1 0.4,2.7 -0.8,3.2 -5.9,2.7 -12.9,4.2 -19.1,5.3 -3.6,0.6 -5.5,1.9 -8.3,3.5 -2.7,1.6 -4.6,2 -7.6,1.7 -0.8,-0.1 -1.4,-0.6 -1.9,-1 -8.8,4.5 -17.5,9.1 -26,14.2 9,0.5 17.9,0.5 26.9,0.7 5.7,0.2 11.4,0.8 17,1.5 10.7,-4.9 20.8,-7.8 32.6,-7.7 0.1,0 0.1,-0.1 0.2,-0.1 1.1,-0.2 2.3,-0.2 3.4,-0.4 2.1,-0.4 4.2,-0.7 6.2,-1.2 0.5,-0.1 0.6,-1 1.1,-1.2 3.2,-1.6 6.3,-3.4 10,-3 6.8,0.6 10.7,5.5 13.4,11.4 0.8,1.7 -0.2,3.4 -2.2,3.6 -2,0.2 -4.1,-0.6 -6.3,-1 -3,-0.6 -6.8,0.2 -9.7,-0.1 -2.9,-0.3 -3.9,-1.6 -6.4,-2.7 -5.5,-2.4 -11.3,-2.8 -17.3,-2.2 -3.8,0.4 -6.8,0.8 -10.8,2 -2.6,0.8 -6.4,3.4 -9.5,3.4 5.7,0.8 11.4,2 17,3.4 4.2,1.1 6.8,2.6 11.5,2 4.7,-0.6 10.6,-2.8 15.7,-2.8 3.5,0 7.3,0.5 10.4,2 6.1,3 9,7.5 11.5,13.5 0.6,1.4 -1.2,2.8 -2.5,2.1 -3.1,-1.7 -6.5,-4 -10,-4.2 -3.5,-0.1 -6.4,1.8 -9.7,1.9 -4.5,0 -6.8,-2.1 -10.4,-4.5 -3.7,-2.4 -7.3,-5 -11.8,-6.1 -3.2,-0.8 -6.9,-1.4 -10.3,-1.8 -3.4,-0.5 -7.1,-0.1 -10.4,-1.5 3.6,2.1 6.9,3.7 10.5,6.2 1.9,1.3 5.8,5.2 8.1,5.1 4.5,-0.1 4.7,-0.1 8.1,2.4 3.4,2.5 8.1,3.6 11.6,6.1 3.5,2.5 6.2,5.8 9,8.9 1,1.1 2.7,2.6 1.5,4.1 -7.9,9.3 -21.9,-3.3 -26.5,-9.9 -3.1,-4.3 -3.5,-6.8 -6.4,-9.9 -3,-3.1 -5.8,-4.8 -9.3,-6.6 -4.6,-2.5 -8.8,-5.1 -13.9,-6.4 -10.6,-2.8 -21.6,-1.2 -32.4,-1.8 8.9,4.3 17.9,8.5 26.9,12.6 1,0.5 2.1,0.9 3.1,0.9 1,0.1 1.7,-0.3 2.5,-0.2 2.8,0.3 4.8,2.7 7.3,3.5 2.5,0.8 4.9,-0.2 7.4,0.4 4.1,1 6.5,4.3 8.7,7.7 1.4,2.2 2.7,4.3 4.2,6.4 0.3,0.5 0.8,1 0.7,1.7 -0.2,2 -2.3,2.7 -4.2,2.7 -5,-0.1 -9.9,-1.2 -13.9,-4.3 -5.5,-4.3 -8.8,-10.4 -14.3,-14.8 -2.9,-2.4 -6.2,-3.7 -9.7,-5.2 -15.5,-6.4 -30.2,-12.1 -47.1,-13.4 21.1,15.2 42.5,29.4 66,40.4 3.1,1.5 6.7,2.5 9.7,3 3,0.5 5.4,0.3 8.1,0.2 9.3,-0.4 18,-1.3 27.2,-2.6 2.3,-0.3 4,-0.5 6.6,-1.4 2.6,-0.9 6.8,-2.6 9.4,-4.2 1.6,-1 2.3,-3 3.9,-4 4.1,-2.4 8.7,-3.2 13.3,-2.3 8.9,1.9 14.4,8.3 18.8,15.8 0.7,1.1 -0.2,2.1 -1.4,2 -2.8,-0.3 -5.2,-1.4 -7.9,-2.4 -4.7,-1.8 -9.1,-1.5 -14,-0.9 -6.7,0.8 -12.1,-1.2 -18.2,-3.5 -12.6,3.5 -25,6.2 -38.1,6.7 12.6,4.4 25.6,7.2 38.7,9.5 0.5,-0.7 0.8,-1.2 1.8,-1.4 8.8,-2 18.6,-1 26.3,3.4 7.7,4.4 11,9.5 13.5,17.6 0.3,1 -1,1.8 -2,1.4 -12.5,-6.1 -25.8,-10.6 -38.2,-17.1 -1,-0.5 -1.4,-1.5 -1.6,-2.5 -16.3,-2.5 -32,-6 -47.7,-11.1 -0.2,-0.1 -0.4,-0.1 -0.6,-0.2 -17.3,-5.8 -33.2,-13.8 -48.8,-23.4 3.8,6.6 7.7,13 12.4,19.1 14,4.9 27.3,10.9 40.3,17.9 1.3,-0.7 1.9,-0.7 3.3,-0.3 3,0.8 4.7,-1.7 7.5,-2.7 2.8,-1 6.3,-1 9.2,0.3 5.2,2.2 9.3,5.7 11.7,10.8 0.7,1.5 -0.5,3 -2.1,3.2 -2.7,0.2 -4.6,-0.2 -7.6,-0.6 -3,-0.4 -6.6,0.2 -9.9,-0.3 -4.5,-0.8 -8.9,-2.6 -12.3,-5.8 -0.5,-0.5 -0.6,-1 -0.8,-1.6 -11.6,-6 -23.4,-11.4 -35.6,-16 11.3,13.1 24,23.2 38.9,32 9.3,-0.8 18.6,-1.2 27.9,-1.5 0.6,-1.3 1.4,-2.2 2.9,-2.4 7.1,-1.3 12.8,-6.8 20.4,-5.8 7.5,0.9 11,8.1 17.1,11.8 1.2,0.7 1.4,2.8 -0.5,2.9 -12.5,0.5 -25,-0.7 -37.3,-2.6 -1.2,-0.2 -1.7,-0.7 -2.3,-1.5 -7.9,0.5 -15.8,0.8 -23.6,1.4 10.3,4.8 20.5,8.3 31.5,11.2 0.5,-0.9 1.3,-1.4 2.4,-1.2 4.6,0.7 9.2,2.1 13.8,2.4 4.6,0.3 8.5,0.5 12.7,2.7 8.4,4.3 13.6,11.3 19.2,18.8 0.3,0.3 0.1,1 -0.3,1.1 -2.9,0.7 -3.4,0.4 -6.3,-0.8 -5.2,-2.2 -11.8,-4.1 -17.2,-5.6 -9.9,-2.8 -15.7,-9.1 -23.7,-15 -0.4,-0.3 -0.6,-0.6 -0.7,-1 -13.1,-2.5 -25.1,-6.3 -37.3,-11.8 8.9,6.8 18,12.9 27.8,18.4 0.1,0.1 0.2,-0.1 0.3,-0.1 6,-0.9 12.1,1.5 16.7,4.6 6.8,4.7 8.2,10.7 12.1,17.3 0.8,1.4 -0.8,3.4 -2.3,2.2 -5.9,-4.7 -13.9,-5.1 -20.5,-8.2 -6.6,-3.1 -7.1,-8.1 -7.3,-14.7 0,-0.1 0,-0.1 0,-0.3 -1.5,-4 -14.1,-8 -16.4,-9.3 -5.3,-3.1 -7.5,-4.3 -11.1,-7.4 -3.7,-3.1 -4.8,-5.9 -9,-8.6 -4.1,-2.7 -9,-5.4 -13.2,-8.8 -6.3,-5.1 -12.2,-11 -17.5,-17.2 1.9,2.7 2,7 3.2,9.8 1.7,4.2 3.3,7.4 5.3,11.3 2,3.9 4,8 6.9,11.4 2.9,3.4 6.2,5.2 9.3,8.8 3.1,3.7 7.2,5.9 10.2,10.5 5.1,7.9 7.9,17.9 2.5,26.7 -0.6,0.9 -1.9,0.6 -2.4,-0.2 -1.8,-3.3 -2.2,-7.5 -4,-10.8 -2.5,-4.5 -6.6,-6 -10.4,-9.4 -2.9,-2.6 -4.7,-6.3 -4.6,-10.4 0.1,-4.1 1.7,-7.1 0.1,-11.4 -1.6,-4.3 -5.8,-8.4 -8.4,-12.7 C 315,696 311.1,686.4 308.4,675.6 303,668.3 298.8,660.3 295.1,652 272,637 251,621.2 235.3,598.3 c -1,5.7 -1.9,11.3 -1.9,17.1 2.5,0 5.4,3.6 6.8,4.8 4.3,4 8,7.2 12.1,10.9 6.4,5.8 12.1,11.9 17.5,18.6 2.2,-0.8 3.3,-1.3 5.5,0.4 2.2,1.7 5.5,2.9 8,4.9 2.5,2 4.6,4.6 5.6,8 1.3,4.8 1.1,10.5 0.4,15.5 -0.1,0.8 -0.8,1.2 -1.5,1.1 -5.5,-0.8 -6.9,-6 -10.1,-9.7 -4.5,-5.1 -9,-8.9 -10.1,-15.9 -0.2,-1 0.2,-1.8 0.6,-2.7 -9.3,-10.7 -20.4,-20.5 -31.1,-29.2 -2,-1.6 -1.7,-1.9 -3.7,-1.7 0.6,10.3 1.7,19.8 4.5,29.7 10,10.3 20.1,20.6 30.1,30.9 0.7,0 1.2,0 1.9,0.3 5.4,2.5 12.1,2.6 16.1,7.5 4,4.9 3.4,12.1 7,17.3 1,1.5 -0.1,3.5 -1.9,3.3 -6.5,-0.8 -10,-5.5 -15,-9.3 -5,-3.8 -10.4,-7.8 -11.8,-14.3 -0.3,-1.5 0.4,-2.4 1.1,-3.5 -8.6,-8.6 -17.1,-17.4 -25.7,-26 2,2.5 2.5,7.2 3.6,9.9 1.5,4 2.9,7.2 4.6,10.7 3.2,6.8 6.7,12.9 10.6,19.2 -0.1,-0.8 2.8,-0.3 3.1,-0.2 2.2,0.7 3,2.3 4.7,3.5 2.6,1.9 5.9,1.1 8.8,2.8 2.9,1.7 5.4,4.7 6.1,8.1 1.3,6.4 -0.7,11.9 -2.6,17.9 -0.3,1.1 -2,1.1 -2.4,0 -1.9,-4.6 -4.6,-8.6 -7.8,-12.3 -2.3,-2.7 -3,-5.9 -4.8,-9 -1.8,-3 -5.3,-5.4 -5.6,-9.2 -8.9,-12 -15.6,-24.5 -21,-38.5 0.5,12.2 0.7,24.4 0.6,36.6 1.3,0 2.5,0.6 3,1.8 1.2,2.8 3.2,4.7 4.6,7.4 1.4,2.7 2,6.2 1.5,9.1 -1.1,6.5 -5,10.2 -9.6,14.5 -2.3,2.1 -4.7,-0.8 -4.3,-3.3 0.4,-2.5 0.5,-5.4 0.1,-7.9 -0.5,-2.5 -1.9,-4.4 -2.1,-6.9 -0.5,-5.2 2,-9.3 4.7,-13.5 0.2,-0.3 0.4,-0.5 0.7,-0.7 -1.5,-15.6 -2.1,-31.2 -2.6,-46.8 0,-0.2 0.2,-0.3 0.1,-0.5 -2.1,-8 -3.2,-15.7 -3.7,-24 -0.4,0.8 -0.9,1.7 -1.3,2.5 -1.9,3.4 -3.5,7 -4.8,10.6 -2.4,6.6 -3.8,13.2 -4.8,20.1 6.3,3 6.2,10.6 6.3,16.6 0.2,6 0.7,11.8 -2.1,17.2 -0.5,1.1 -1.8,0.5 -2.2,-0.3 -1.6,-3.4 -2.7,-7.2 -5.1,-10.1 -2.4,-2.9 -4.4,-4.4 -5.1,-8.3 -1,-5.4 0.4,-13.4 6.6,-15.1 0.8,-9.4 2.1,-16.4 5.3,-25.9 1.3,-3.7 3.9,-11 6.9,-14.6 0.1,-8.1 1.3,-15.6 3.1,-23.4 -11.6,-21.5 -18.9,-45.1 -24.5,-68.6 -0.5,-2.1 4.9,-3 5.6,-0.9 12.3,38.8 21.6,70.9 52,99.7 0.1,0.1 0.3,0 0.4,0.1 7.3,2.3 14.4,3.5 22,4.3 9.7,-6 19.5,-11.7 29.9,-16.3 0.2,-0.7 0.2,-1.3 0.7,-1.9 5.3,-5.5 8.8,-12.5 16.6,-15.1 7.8,-2.6 15.9,0.7 21.7,6.2 z"
             id="path29"
             inkscape:connector-curvature="0"
             style="fill:#231f20" /></g></g></g></switch></svg>