<?xml version="1.0" encoding="UTF-8" standalone="no"?>
<svg
   xmlns:dc="http://purl.org/dc/elements/1.1/"
   xmlns:cc="http://creativecommons.org/ns#"
   xmlns:rdf="http://www.w3.org/1999/02/22-rdf-syntax-ns#"
   xmlns:svg="http://www.w3.org/2000/svg"
   xmlns="http://www.w3.org/2000/svg"
   xmlns:sodipodi="http://sodipodi.sourceforge.net/DTD/sodipodi-0.dtd"
   xmlns:inkscape="http://www.inkscape.org/namespaces/inkscape"
   version="1.1"
   id="Layer_1"
   x="0px"
   y="0px"
   viewBox="108.35000610351562 176.5500030517578 783.2999877929688 646.900024414062"
   width="100%"
       class="withFill"
   height="100%"
   style="enable-background:new 0 0 1000 1000;"
   xml:space="preserve"
   ><style
     type="text/css"
     id="style3">
	.st0{fill:#231F20;}
	.st1{fill:#B9921D;}
</style><switch
     id="switch5"
     transform="translate(-42.95,35.75)"><g
       id="g7"><g
         id="g9"><g
           id="g11"><g
             id="g13"><path
               class="st0"
               d="m 779.8,696.9 -465.2,0 0,-465.2 465.2,0 0,465.2 z m -444.4,-20.8 423.6,0 0,-423.6 -423.6,0 0,423.6 z"
               id="path15"
               inkscape:connector-curvature="0"
               style="fill:#231f20" /></g></g><g
           id="g17"><polygon
             class="st1"
             points="568,252.5 759,443.5 759,425.1 586.4,252.5 "
             id="polygon19"
             style="fill:#b9921d" /><polygon
             class="st1"
             points="798.1,464.3 779.8,445.9 779.8,482.6 "
             id="polygon21"
             style="fill:#b9921d" /><polygon
             class="st1"
             points="759,503.4 759,485 567.9,676.2 586.3,676.2 "
             id="polygon23"
             style="fill:#b9921d" /><polygon
             class="st1"
             points="169.6,464.3 474.7,159.2 547,231.6 565.4,231.6 474.7,140.8 151.3,464.3 474.7,787.7 565.5,697 547.1,697 474.7,769.3 "
             id="polygon25"
             style="fill:#b9921d" /></g><g
           id="g27"><polygon
             class="st1"
             points="306.1,464.3 611.2,159.2 683.7,231.7 702,231.7 611.2,140.8 287.7,464.3 611.2,787.7 702,696.9 683.6,696.9 611.2,769.3 "
             id="polygon29"
             style="fill:#b9921d" /><polygon
             class="st1"
             points="759,639.9 759,621.5 704.4,676.1 722.8,676.1 "
             id="polygon31"
             style="fill:#b9921d" /><polygon
             class="st1"
             points="780.5,310.1 780.5,328.5 916.2,464.3 780.5,600.1 780.5,618.4 934.6,464.3 "
             id="polygon33"
             style="fill:#b9921d" /><polygon
             class="st1"
             points="704.5,252.5 759,307.1 759,288.7 722.9,252.5 "
             id="polygon35"
             style="fill:#b9921d" /></g></g></g></switch></svg>