<?xml version="1.0" encoding="UTF-8" standalone="no"?>
<svg
   xmlns:dc="http://purl.org/dc/elements/1.1/"
   xmlns:cc="http://creativecommons.org/ns#"
   xmlns:rdf="http://www.w3.org/1999/02/22-rdf-syntax-ns#"
   xmlns:svg="http://www.w3.org/2000/svg"
   xmlns="http://www.w3.org/2000/svg"
   xmlns:sodipodi="http://sodipodi.sourceforge.net/DTD/sodipodi-0.dtd"
   xmlns:inkscape="http://www.inkscape.org/namespaces/inkscape"
   version="1.1"
   id="Layer_1"
   x="0px"
   y="0px"
   viewBox="0 0 1000 1000"
   width="100%"
       class="withFill"
   height="100%"
   style="enable-background:new 0 0 1000 1000;"
   xml:space="preserve"
   ><style
     type="text/css"
     id="style3">
	.st0{fill:#231F20;}
	.st1{fill:#B9921D;}
</style><switch
     id="switch5"
     transform="translate(-24.95,17.65)"><g
       id="g7"><g
         id="g9"><g
           id="g11"><path
             class="st0"
             d="m 829.7,787.1 -609.5,0 0,-609.5 609.5,0 0,609.5 z m -589.8,-19.8 570,0 0,-570 -570,0 0,570 z"
             id="path13"
             inkscape:connector-curvature="0"
             style="fill:#231f20" /></g><g
           id="g15"><g
             id="g17"><path
               class="st1"
               d="M 220.2,589 C 208.5,555.6 202,519.7 202,482.4 c 0,-37.4 6.5,-73.2 18.2,-106.6 l 0,-49.9 C 196,372.8 182.3,426 182.3,482.3 c 0,56.4 13.7,109.6 37.9,156.5 l 0,-49.8 z"
               id="path19"
               inkscape:connector-curvature="0"
               style="fill:#b9921d" /><path
               class="st1"
               d="m 829.6,639 c 24.3,-47 38,-100.3 38,-156.7 0,-56.4 -13.7,-109.7 -38,-156.7 l 0,49.9 c 11.8,33.4 18.2,69.4 18.2,106.8 0,37.4 -6.5,73.3 -18.2,106.8 l 0,49.9 z"
               id="path21"
               inkscape:connector-curvature="0"
               style="fill:#b9921d" /><path
               class="st1"
               d="M 810.5,632.8 C 756.3,735.3 648.6,805.3 524.9,805.3 401.6,805.3 294.3,735.8 239.9,634 l 0,38.4 c 61.5,92 166.3,152.6 285,152.6 119.1,0 224.2,-61.1 285.6,-153.6 l 0,-38.6 z"
               id="path23"
               inkscape:connector-curvature="0"
               style="fill:#b9921d" /><path
               class="st1"
               d="m 524.9,159.4 c 123.8,0 231.4,70 285.6,172.5 l 0,-38.7 C 749.1,200.8 644,139.7 524.9,139.7 c -118.7,0 -223.5,60.7 -285,152.6 l 0,38.4 c 54.4,-101.8 161.7,-171.3 285,-171.3 z"
               id="path25"
               inkscape:connector-curvature="0"
               style="fill:#b9921d" /></g></g></g></g></switch></svg>