<?xml version="1.0" encoding="UTF-8" standalone="no"?>
<svg
   xmlns:dc="http://purl.org/dc/elements/1.1/"
   xmlns:cc="http://creativecommons.org/ns#"
   xmlns:rdf="http://www.w3.org/1999/02/22-rdf-syntax-ns#"
   xmlns:svg="http://www.w3.org/2000/svg"
   xmlns="http://www.w3.org/2000/svg"
   xmlns:sodipodi="http://sodipodi.sourceforge.net/DTD/sodipodi-0.dtd"
   xmlns:inkscape="http://www.inkscape.org/namespaces/inkscape"
   version="1.1"
   id="Layer_1"
   x="0px"
   y="0px"
   viewBox="171.10000610351562 215.1999969482422 657.7999877929688 569.5999755859375"
   width="100%"
   height="100%"
   style="enable-background:new 0 0 1000 1000;"
   xml:space="preserve"
   ><style
     type="text/css"
     id="style3">
	.st0{fill:#B9921D;}
</style><switch
     id="switch5"
     transform="translate(-54.9,0)"><g
       id="g7"><g
         id="g9"><g
           id="g11"><path
             class="st0"
             d="m 719.4,784.8 -328.9,0 L 226,500 390.5,215.2 719.4,215.2 883.8,500 719.4,784.8 Z m -319,-17.2 309,0 L 863.9,500 709.4,232.4 l -309,0 L 245.9,500 400.4,767.6 Z"
             id="path13"
             inkscape:connector-curvature="0"
             style="fill:#b9921d" /></g><g
           id="g15"><rect
             x="628.90002"
             y="85.699997"
             transform="matrix(0.5,-0.866,0.866,0.5,3.9365,730.5977)"
             class="st0"
             width="11.5"
             height="552.40002"
             id="rect17"
             style="fill:#b9921d" /></g><g
           id="g19"><rect
             x="199"
             y="356.10001"
             transform="matrix(0.8661,-0.4999,0.4999,0.8661,-117.272,286.0332)"
             class="st0"
             width="552.40002"
             height="11.5"
             id="rect21"
             style="fill:#b9921d" /></g><g
           id="g23"><rect
             x="358.5"
             y="632.40002"
             transform="matrix(0.8661,-0.4999,0.4999,0.8661,-234.0018,402.7521)"
             class="st0"
             width="552.40002"
             height="11.5"
             id="rect25"
             style="fill:#b9921d" /></g><g
           id="g27"><rect
             x="469.5"
             y="361.89999"
             transform="matrix(0.5,-0.866,0.866,0.5,-315.0156,730.5968)"
             class="st0"
             width="11.5"
             height="552.40002"
             id="rect29"
             style="fill:#b9921d" /></g></g></g></switch></svg>