<?xml version="1.0" encoding="UTF-8" standalone="no"?>
<svg
   xmlns:dc="http://purl.org/dc/elements/1.1/"
   xmlns:cc="http://creativecommons.org/ns#"
   xmlns:rdf="http://www.w3.org/1999/02/22-rdf-syntax-ns#"
   xmlns:svg="http://www.w3.org/2000/svg"
   xmlns="http://www.w3.org/2000/svg"
   xmlns:sodipodi="http://sodipodi.sourceforge.net/DTD/sodipodi-0.dtd"
   xmlns:inkscape="http://www.inkscape.org/namespaces/inkscape"
   version="1.1"
   id="Layer_1"
   x="0px"
   y="0px"
   viewBox="0 0 1000 1000"
   width="100%"
   height="100%"
   style="enable-background:new 0 0 1000 1000;"
   xml:space="preserve"
  ><style
     type="text/css"
     id="style3">
	.st0{fill:#231F20;}
	.st1{fill:#B9921D;}
</style><switch
     id="switch5"
     transform="translate(-8.2000122,12.399994)"><g
       id="g7"><g
         id="g9"><circle
           class="st0"
           cx="508.20001"
           cy="487.60001"
           r="434.79999"
           id="circle11"
           style="fill:#231f20" /><g
           id="g13"><g
             id="g15"><path
               class="st1"
               d="m 668.7,765.6 -321,0 -160.5,-278 160.5,-278 321,0 160.5,278 -160.5,278 z m -314.5,-11.3 307.9,0 154,-266.7 -154,-266.7 -307.9,0 -154,266.7 154,266.7 z"
               id="path17"
               inkscape:connector-curvature="0"
               style="fill:#b9921d" /></g><g
             id="g19"><path
               class="st1"
               d="m 508.2,808.6 -278,-160.5 0,-321 2.8,-1.6 275.2,-158.9 278,160.5 0,321 -2.8,1.6 -275.2,158.9 z m -266.7,-167 266.7,154 266.7,-154 0,-308 -266.7,-154 -266.7,154 0,308 z"
               id="path21"
               inkscape:connector-curvature="0"
               style="fill:#b9921d" /></g></g></g></g></switch></svg>