<?xml version="1.0" encoding="UTF-8" standalone="no"?>
<svg
   xmlns:dc="http://purl.org/dc/elements/1.1/"
   xmlns:cc="http://creativecommons.org/ns#"
   xmlns:rdf="http://www.w3.org/1999/02/22-rdf-syntax-ns#"
   xmlns:svg="http://www.w3.org/2000/svg"
   xmlns="http://www.w3.org/2000/svg"
   xmlns:sodipodi="http://sodipodi.sourceforge.net/DTD/sodipodi-0.dtd"
   xmlns:inkscape="http://www.inkscape.org/namespaces/inkscape"
   version="1.1"
   id="l16"
   x="0px"
   y="0px"
   viewBox="206.85000610351562 206.85000610351562 586.2999267578125 586.2999267578125"
   width="100%"
   height="100%"
   style="enable-background:new 0 0 1000 1000;"
   xml:space="preserve"
    class="withFill"
   ><style
     type="text/css"
     id="style3">
	#l16 .st0{fill:#9E9E9E;}
	#l16 .st1{fill:#FFFFFF;}
</style><switch
     id="switch5"
     transform="translate(-21.549988,-22.049988)"><g
       id="g7"><g
         id="g9"><rect
           x="228.39999"
           y="228.89999"
           class="st0"
           width="586.29999"
           height="586.29999"
           id="rect11"
           style="fill:#9e9e9e" /><g
           id="g13"><path
             class="st1"
             d="m 257.4,763.1 c 0,4.9 7.6,4.9 7.6,0 0.1,-4.9 -7.6,-4.9 -7.6,0 z"
             id="path15"
             inkscape:connector-curvature="0"
             style="fill:#ffffff" /><path
             class="st1"
             d="m 257.4,748.4 c 0,4.9 7.6,4.9 7.6,0 0.1,-4.9 -7.6,-4.9 -7.6,0 z"
             id="path17"
             inkscape:connector-curvature="0"
             style="fill:#ffffff" /><path
             class="st1"
             d="m 257.4,733.5 c 0,4.9 7.6,4.9 7.6,0 0.1,-4.9 -7.6,-4.9 -7.6,0 z"
             id="path19"
             inkscape:connector-curvature="0"
             style="fill:#ffffff" /><path
             class="st1"
             d="m 257.4,718.7 c 0,4.9 7.6,4.9 7.6,0 0.1,-4.9 -7.6,-4.9 -7.6,0 z"
             id="path21"
             inkscape:connector-curvature="0"
             style="fill:#ffffff" /><path
             class="st1"
             d="m 257.4,703.8 c 0,4.9 7.6,4.9 7.6,0 0.1,-4.9 -7.6,-4.9 -7.6,0 z"
             id="path23"
             inkscape:connector-curvature="0"
             style="fill:#ffffff" /><path
             class="st1"
             d="m 257.4,689.1 c 0,4.9 7.6,4.9 7.6,0 0.1,-4.9 -7.6,-4.9 -7.6,0 z"
             id="path25"
             inkscape:connector-curvature="0"
             style="fill:#ffffff" /><path
             class="st1"
             d="m 257.4,674.1 c 0,4.9 7.6,4.9 7.6,0 0.1,-4.9 -7.6,-4.9 -7.6,0 z"
             id="path27"
             inkscape:connector-curvature="0"
             style="fill:#ffffff" /><path
             class="st1"
             d="m 257.4,659.4 c 0,4.9 7.6,4.9 7.6,0 0.1,-4.9 -7.6,-4.9 -7.6,0 z"
             id="path29"
             inkscape:connector-curvature="0"
             style="fill:#ffffff" /><path
             class="st1"
             d="m 257.4,644.5 c 0,4.9 7.6,4.9 7.6,0 0.1,-4.9 -7.6,-4.9 -7.6,0 z"
             id="path31"
             inkscape:connector-curvature="0"
             style="fill:#ffffff" /><path
             class="st1"
             d="m 257.4,629.7 c 0,4.9 7.6,4.9 7.6,0 0.1,-4.9 -7.6,-4.9 -7.6,0 z"
             id="path33"
             inkscape:connector-curvature="0"
             style="fill:#ffffff" /><path
             class="st1"
             d="m 257.4,614.8 c 0,4.9 7.6,4.9 7.6,0 0.1,-4.9 -7.6,-4.9 -7.6,0 z"
             id="path35"
             inkscape:connector-curvature="0"
             style="fill:#ffffff" /><path
             class="st1"
             d="m 257.4,600 c 0,4.9 7.6,4.9 7.6,0 0.1,-4.8 -7.6,-4.9 -7.6,0 z"
             id="path37"
             inkscape:connector-curvature="0"
             style="fill:#ffffff" /><path
             class="st1"
             d="m 257.4,585.1 c 0,4.9 7.6,4.9 7.6,0 0.1,-4.9 -7.6,-4.9 -7.6,0 z"
             id="path39"
             inkscape:connector-curvature="0"
             style="fill:#ffffff" /><path
             class="st1"
             d="m 257.4,570.4 c 0,4.9 7.6,4.9 7.6,0 0.1,-4.9 -7.6,-4.9 -7.6,0 z"
             id="path41"
             inkscape:connector-curvature="0"
             style="fill:#ffffff" /><path
             class="st1"
             d="m 257.4,555.5 c 0,4.9 7.6,4.9 7.6,0 0.1,-4.9 -7.6,-4.9 -7.6,0 z"
             id="path43"
             inkscape:connector-curvature="0"
             style="fill:#ffffff" /><path
             class="st1"
             d="m 257.4,540.7 c 0,4.9 7.6,4.9 7.6,0 0.1,-4.9 -7.6,-4.9 -7.6,0 z"
             id="path45"
             inkscape:connector-curvature="0"
             style="fill:#ffffff" /><path
             class="st1"
             d="m 257.4,525.8 c 0,4.9 7.6,4.9 7.6,0 0.1,-4.9 -7.6,-4.9 -7.6,0 z"
             id="path47"
             inkscape:connector-curvature="0"
             style="fill:#ffffff" /><path
             class="st1"
             d="m 257.4,511 c 0,4.9 7.6,4.9 7.6,0 0.1,-4.9 -7.6,-4.9 -7.6,0 z"
             id="path49"
             inkscape:connector-curvature="0"
             style="fill:#ffffff" /><path
             class="st1"
             d="m 257.4,496.1 c 0,4.9 7.6,4.9 7.6,0 0.1,-4.9 -7.6,-4.9 -7.6,0 z"
             id="path51"
             inkscape:connector-curvature="0"
             style="fill:#ffffff" /><path
             class="st1"
             d="m 257.4,481.4 c 0,4.9 7.6,4.9 7.6,0 0.1,-4.9 -7.6,-4.9 -7.6,0 z"
             id="path53"
             inkscape:connector-curvature="0"
             style="fill:#ffffff" /><path
             class="st1"
             d="m 257.4,466.5 c 0,4.9 7.6,4.9 7.6,0 0.1,-4.9 -7.6,-5 -7.6,0 z"
             id="path55"
             inkscape:connector-curvature="0"
             style="fill:#ffffff" /><path
             class="st1"
             d="m 257.4,451.7 c 0,4.9 7.6,4.9 7.6,0 0.1,-4.9 -7.6,-4.9 -7.6,0 z"
             id="path57"
             inkscape:connector-curvature="0"
             style="fill:#ffffff" /><path
             class="st1"
             d="m 257.4,436.8 c 0,4.9 7.6,4.9 7.6,0 0.1,-4.9 -7.6,-4.9 -7.6,0 z"
             id="path59"
             inkscape:connector-curvature="0"
             style="fill:#ffffff" /><path
             class="st1"
             d="m 257.4,422 c 0,4.9 7.6,4.9 7.6,0 0.1,-4.9 -7.6,-4.9 -7.6,0 z"
             id="path61"
             inkscape:connector-curvature="0"
             style="fill:#ffffff" /><path
             class="st1"
             d="m 257.4,407.1 c 0,4.9 7.6,4.9 7.6,0 0.1,-4.9 -7.6,-4.9 -7.6,0 z"
             id="path63"
             inkscape:connector-curvature="0"
             style="fill:#ffffff" /><path
             class="st1"
             d="m 257.4,392.4 c 0,4.9 7.6,4.9 7.6,0 0.1,-4.9 -7.6,-4.9 -7.6,0 z"
             id="path65"
             inkscape:connector-curvature="0"
             style="fill:#ffffff" /><path
             class="st1"
             d="m 257.4,377.4 c 0,4.9 7.6,4.9 7.6,0 0.1,-4.9 -7.6,-4.9 -7.6,0 z"
             id="path67"
             inkscape:connector-curvature="0"
             style="fill:#ffffff" /><path
             class="st1"
             d="m 257.4,362.7 c 0,4.9 7.6,4.9 7.6,0 0.1,-4.9 -7.6,-4.9 -7.6,0 z"
             id="path69"
             inkscape:connector-curvature="0"
             style="fill:#ffffff" /><path
             class="st1"
             d="m 257.4,347.8 c 0,4.9 7.6,4.9 7.6,0 0.1,-4.9 -7.6,-4.9 -7.6,0 z"
             id="path71"
             inkscape:connector-curvature="0"
             style="fill:#ffffff" /><path
             class="st1"
             d="m 257.4,333 c 0,4.9 7.6,4.9 7.6,0 0.1,-4.9 -7.6,-4.9 -7.6,0 z"
             id="path73"
             inkscape:connector-curvature="0"
             style="fill:#ffffff" /><path
             class="st1"
             d="m 257.4,318.1 c 0,4.9 7.6,4.9 7.6,0 0.1,-4.9 -7.6,-4.9 -7.6,0 z"
             id="path75"
             inkscape:connector-curvature="0"
             style="fill:#ffffff" /><path
             class="st1"
             d="m 257.4,303.4 c 0,4.9 7.6,4.9 7.6,0 0.1,-4.9 -7.6,-4.9 -7.6,0 z"
             id="path77"
             inkscape:connector-curvature="0"
             style="fill:#ffffff" /><path
             class="st1"
             d="m 257.4,288.4 c 0,4.9 7.6,4.9 7.6,0 0.1,-4.9 -7.6,-4.9 -7.6,0 z"
             id="path79"
             inkscape:connector-curvature="0"
             style="fill:#ffffff" /><path
             class="st1"
             d="m 257.4,273.7 c 0,4.9 7.6,4.9 7.6,0 0.1,-4.9 -7.6,-4.9 -7.6,0 z"
             id="path81"
             inkscape:connector-curvature="0"
             style="fill:#ffffff" /><path
             class="st1"
             d="m 280.5,258 c -4.9,0 -4.9,7.6 0,7.6 4.9,0 4.9,-7.6 0,-7.6 z"
             id="path83"
             inkscape:connector-curvature="0"
             style="fill:#ffffff" /><path
             class="st1"
             d="m 295.2,258 c -4.9,0 -4.9,7.6 0,7.6 4.9,0 4.9,-7.6 0,-7.6 z"
             id="path85"
             inkscape:connector-curvature="0"
             style="fill:#ffffff" /><path
             class="st1"
             d="m 310.1,258 c -4.9,0 -4.9,7.6 0,7.6 4.9,0 4.9,-7.6 0,-7.6 z"
             id="path87"
             inkscape:connector-curvature="0"
             style="fill:#ffffff" /><path
             class="st1"
             d="m 324.9,258 c -4.9,0 -4.9,7.6 0,7.6 4.9,0 4.9,-7.6 0,-7.6 z"
             id="path89"
             inkscape:connector-curvature="0"
             style="fill:#ffffff" /><path
             class="st1"
             d="m 339.8,258 c -4.9,0 -4.9,7.6 0,7.6 4.9,0 4.9,-7.6 0,-7.6 z"
             id="path91"
             inkscape:connector-curvature="0"
             style="fill:#ffffff" /><path
             class="st1"
             d="m 354.5,258 c -4.9,0 -4.9,7.6 0,7.6 4.9,0 5,-7.6 0,-7.6 z"
             id="path93"
             inkscape:connector-curvature="0"
             style="fill:#ffffff" /><path
             class="st1"
             d="m 369.5,258 c -4.9,0 -4.9,7.6 0,7.6 4.9,0 4.9,-7.6 0,-7.6 z"
             id="path95"
             inkscape:connector-curvature="0"
             style="fill:#ffffff" /><path
             class="st1"
             d="m 384.2,258 c -4.9,0 -4.9,7.6 0,7.6 4.9,0 4.9,-7.6 0,-7.6 z"
             id="path97"
             inkscape:connector-curvature="0"
             style="fill:#ffffff" /><path
             class="st1"
             d="m 399.1,258 c -4.9,0 -4.9,7.6 0,7.6 4.9,0 4.9,-7.6 0,-7.6 z"
             id="path99"
             inkscape:connector-curvature="0"
             style="fill:#ffffff" /><path
             class="st1"
             d="m 413.9,258 c -4.9,0 -4.9,7.6 0,7.6 4.9,0 4.9,-7.6 0,-7.6 z"
             id="path101"
             inkscape:connector-curvature="0"
             style="fill:#ffffff" /><path
             class="st1"
             d="m 428.8,258 c -4.9,0 -4.9,7.6 0,7.6 4.9,0 4.9,-7.6 0,-7.6 z"
             id="path103"
             inkscape:connector-curvature="0"
             style="fill:#ffffff" /><path
             class="st1"
             d="m 443.6,258 c -4.9,0 -4.9,7.6 0,7.6 4.9,0 4.9,-7.6 0,-7.6 z"
             id="path105"
             inkscape:connector-curvature="0"
             style="fill:#ffffff" /><path
             class="st1"
             d="m 458.5,258 c -4.9,0 -4.9,7.6 0,7.6 4.9,0 4.9,-7.6 0,-7.6 z"
             id="path107"
             inkscape:connector-curvature="0"
             style="fill:#ffffff" /><path
             class="st1"
             d="m 473.2,258 c -4.9,0 -4.9,7.6 0,7.6 4.9,0 4.9,-7.6 0,-7.6 z"
             id="path109"
             inkscape:connector-curvature="0"
             style="fill:#ffffff" /><path
             class="st1"
             d="m 488.1,258 c -4.9,0 -4.9,7.6 0,7.6 4.9,0 5,-7.6 0,-7.6 z"
             id="path111"
             inkscape:connector-curvature="0"
             style="fill:#ffffff" /><path
             class="st1"
             d="m 502.9,258 c -4.9,0 -4.9,7.6 0,7.6 4.9,0 4.9,-7.6 0,-7.6 z"
             id="path113"
             inkscape:connector-curvature="0"
             style="fill:#ffffff" /><path
             class="st1"
             d="m 517.8,258 c -4.9,0 -4.9,7.6 0,7.6 4.9,0 4.9,-7.6 0,-7.6 z"
             id="path115"
             inkscape:connector-curvature="0"
             style="fill:#ffffff" /><path
             class="st1"
             d="m 532.6,258 c -4.9,0 -4.9,7.6 0,7.6 4.9,0 4.9,-7.6 0,-7.6 z"
             id="path117"
             inkscape:connector-curvature="0"
             style="fill:#ffffff" /><path
             class="st1"
             d="m 547.5,258 c -4.9,0 -4.9,7.6 0,7.6 4.9,0 4.9,-7.6 0,-7.6 z"
             id="path119"
             inkscape:connector-curvature="0"
             style="fill:#ffffff" /><path
             class="st1"
             d="m 562.2,258 c -4.9,0 -4.9,7.6 0,7.6 4.9,0 4.9,-7.6 0,-7.6 z"
             id="path121"
             inkscape:connector-curvature="0"
             style="fill:#ffffff" /><path
             class="st1"
             d="m 577.2,258 c -4.9,0 -4.9,7.6 0,7.6 4.9,0 4.9,-7.6 0,-7.6 z"
             id="path123"
             inkscape:connector-curvature="0"
             style="fill:#ffffff" /><path
             class="st1"
             d="m 591.9,258 c -4.9,0 -4.9,7.6 0,7.6 4.9,0 4.9,-7.6 0,-7.6 z"
             id="path125"
             inkscape:connector-curvature="0"
             style="fill:#ffffff" /><path
             class="st1"
             d="m 606.8,258 c -4.9,0 -4.9,7.6 0,7.6 4.9,0 4.9,-7.6 0,-7.6 z"
             id="path127"
             inkscape:connector-curvature="0"
             style="fill:#ffffff" /><path
             class="st1"
             d="m 621.6,258 c -4.9,0 -4.9,7.6 0,7.6 4.9,0 4.9,-7.6 0,-7.6 z"
             id="path129"
             inkscape:connector-curvature="0"
             style="fill:#ffffff" /><path
             class="st1"
             d="m 636.5,258 c -4.9,0 -4.9,7.6 0,7.6 4.9,0 4.9,-7.6 0,-7.6 z"
             id="path131"
             inkscape:connector-curvature="0"
             style="fill:#ffffff" /><path
             class="st1"
             d="m 651.2,258 c -4.9,0 -4.9,7.6 0,7.6 4.9,0 4.9,-7.6 0,-7.6 z"
             id="path133"
             inkscape:connector-curvature="0"
             style="fill:#ffffff" /><path
             class="st1"
             d="m 666.2,258 c -4.9,0 -4.9,7.6 0,7.6 4.9,0 4.9,-7.6 0,-7.6 z"
             id="path135"
             inkscape:connector-curvature="0"
             style="fill:#ffffff" /><path
             class="st1"
             d="m 680.9,258 c -4.9,0 -4.9,7.6 0,7.6 4.9,0 4.9,-7.6 0,-7.6 z"
             id="path137"
             inkscape:connector-curvature="0"
             style="fill:#ffffff" /><path
             class="st1"
             d="m 695.8,258 c -4.9,0 -4.9,7.6 0,7.6 4.9,0 4.9,-7.6 0,-7.6 z"
             id="path139"
             inkscape:connector-curvature="0"
             style="fill:#ffffff" /><path
             class="st1"
             d="m 710.6,258 c -4.9,0 -4.9,7.6 0,7.6 4.9,0 4.9,-7.6 0,-7.6 z"
             id="path141"
             inkscape:connector-curvature="0"
             style="fill:#ffffff" /><path
             class="st1"
             d="m 725.5,258 c -4.9,0 -4.9,7.6 0,7.6 4.9,0 4.9,-7.6 0,-7.6 z"
             id="path143"
             inkscape:connector-curvature="0"
             style="fill:#ffffff" /><path
             class="st1"
             d="m 740.2,258 c -4.9,0 -4.9,7.6 0,7.6 4.9,0 5,-7.6 0,-7.6 z"
             id="path145"
             inkscape:connector-curvature="0"
             style="fill:#ffffff" /><path
             class="st1"
             d="m 755.2,258 c -4.9,0 -4.9,7.6 0,7.6 4.9,0 4.9,-7.6 0,-7.6 z"
             id="path147"
             inkscape:connector-curvature="0"
             style="fill:#ffffff" /><path
             class="st1"
             d="m 769.9,258 c -4.9,0 -4.9,7.6 0,7.6 4.9,0 4.9,-7.6 0,-7.6 z"
             id="path149"
             inkscape:connector-curvature="0"
             style="fill:#ffffff" /><path
             class="st1"
             d="m 785.6,281 c 0,-4.9 -7.6,-4.9 -7.6,0 0,4.9 7.6,4.9 7.6,0 z"
             id="path151"
             inkscape:connector-curvature="0"
             style="fill:#ffffff" /><path
             class="st1"
             d="m 778,295.7 c 0,4.9 7.6,4.9 7.6,0 0,-4.9 -7.6,-4.9 -7.6,0 z"
             id="path153"
             inkscape:connector-curvature="0"
             style="fill:#ffffff" /><path
             class="st1"
             d="m 778,310.7 c 0,4.9 7.6,4.9 7.6,0 0,-4.9 -7.6,-4.9 -7.6,0 z"
             id="path155"
             inkscape:connector-curvature="0"
             style="fill:#ffffff" /><path
             class="st1"
             d="m 778,325.4 c 0,4.9 7.6,4.9 7.6,0 0,-4.9 -7.6,-4.9 -7.6,0 z"
             id="path157"
             inkscape:connector-curvature="0"
             style="fill:#ffffff" /><path
             class="st1"
             d="m 778,340.3 c 0,4.9 7.6,4.9 7.6,0 0,-4.9 -7.6,-4.9 -7.6,0 z"
             id="path159"
             inkscape:connector-curvature="0"
             style="fill:#ffffff" /><path
             class="st1"
             d="m 778,355.1 c 0,4.9 7.6,4.9 7.6,0 0,-4.9 -7.6,-4.9 -7.6,0 z"
             id="path161"
             inkscape:connector-curvature="0"
             style="fill:#ffffff" /><path
             class="st1"
             d="m 778,370 c 0,4.9 7.6,4.9 7.6,0 0,-4.9 -7.6,-4.9 -7.6,0 z"
             id="path163"
             inkscape:connector-curvature="0"
             style="fill:#ffffff" /><path
             class="st1"
             d="m 778,384.8 c 0,4.9 7.6,4.9 7.6,0 0,-4.9 -7.6,-5 -7.6,0 z"
             id="path165"
             inkscape:connector-curvature="0"
             style="fill:#ffffff" /><path
             class="st1"
             d="m 778,399.7 c 0,4.9 7.6,4.9 7.6,0 0,-4.9 -7.6,-4.9 -7.6,0 z"
             id="path167"
             inkscape:connector-curvature="0"
             style="fill:#ffffff" /><path
             class="st1"
             d="m 778,414.4 c 0,4.9 7.6,4.9 7.6,0 0,-4.9 -7.6,-4.9 -7.6,0 z"
             id="path169"
             inkscape:connector-curvature="0"
             style="fill:#ffffff" /><path
             class="st1"
             d="m 778,429.3 c 0,4.9 7.6,4.9 7.6,0 0,-4.9 -7.6,-4.9 -7.6,0 z"
             id="path171"
             inkscape:connector-curvature="0"
             style="fill:#ffffff" /><path
             class="st1"
             d="m 778,444.1 c 0,4.9 7.6,4.9 7.6,0 0,-4.9 -7.6,-4.9 -7.6,0 z"
             id="path173"
             inkscape:connector-curvature="0"
             style="fill:#ffffff" /><path
             class="st1"
             d="m 778,459 c 0,4.9 7.6,4.9 7.6,0 0,-4.9 -7.6,-4.9 -7.6,0 z"
             id="path175"
             inkscape:connector-curvature="0"
             style="fill:#ffffff" /><path
             class="st1"
             d="m 778,473.8 c 0,4.9 7.6,4.9 7.6,0 0,-4.9 -7.6,-4.9 -7.6,0 z"
             id="path177"
             inkscape:connector-curvature="0"
             style="fill:#ffffff" /><path
             class="st1"
             d="m 778,488.7 c 0,4.9 7.6,4.9 7.6,0 0,-4.9 -7.6,-4.9 -7.6,0 z"
             id="path179"
             inkscape:connector-curvature="0"
             style="fill:#ffffff" /><path
             class="st1"
             d="m 778,503.4 c 0,4.9 7.6,4.9 7.6,0 0,-4.9 -7.6,-4.9 -7.6,0 z"
             id="path181"
             inkscape:connector-curvature="0"
             style="fill:#ffffff" /><path
             class="st1"
             d="m 778,518.4 c 0,4.9 7.6,4.9 7.6,0 0,-4.9 -7.6,-5 -7.6,0 z"
             id="path183"
             inkscape:connector-curvature="0"
             style="fill:#ffffff" /><path
             class="st1"
             d="m 778,533.1 c 0,4.9 7.6,4.9 7.6,0 0,-4.9 -7.6,-4.9 -7.6,0 z"
             id="path185"
             inkscape:connector-curvature="0"
             style="fill:#ffffff" /><path
             class="st1"
             d="m 778,548 c 0,4.9 7.6,4.9 7.6,0 0,-4.9 -7.6,-4.9 -7.6,0 z"
             id="path187"
             inkscape:connector-curvature="0"
             style="fill:#ffffff" /><path
             class="st1"
             d="m 778,562.8 c 0,4.9 7.6,4.9 7.6,0 0,-4.9 -7.6,-4.9 -7.6,0 z"
             id="path189"
             inkscape:connector-curvature="0"
             style="fill:#ffffff" /><path
             class="st1"
             d="m 778,577.7 c 0,4.9 7.6,4.9 7.6,0 0,-4.9 -7.6,-4.9 -7.6,0 z"
             id="path191"
             inkscape:connector-curvature="0"
             style="fill:#ffffff" /><path
             class="st1"
             d="m 778,592.4 c 0,4.9 7.6,4.9 7.6,0 0,-4.9 -7.6,-4.9 -7.6,0 z"
             id="path193"
             inkscape:connector-curvature="0"
             style="fill:#ffffff" /><path
             class="st1"
             d="m 778,607.4 c 0,4.9 7.6,4.9 7.6,0 0,-4.9 -7.6,-4.9 -7.6,0 z"
             id="path195"
             inkscape:connector-curvature="0"
             style="fill:#ffffff" /><path
             class="st1"
             d="m 778,622.1 c 0,4.9 7.6,4.9 7.6,0 0,-4.9 -7.6,-4.9 -7.6,0 z"
             id="path197"
             inkscape:connector-curvature="0"
             style="fill:#ffffff" /><path
             class="st1"
             d="m 778,637 c 0,4.9 7.6,4.9 7.6,0 0,-4.9 -7.6,-4.9 -7.6,0 z"
             id="path199"
             inkscape:connector-curvature="0"
             style="fill:#ffffff" /><path
             class="st1"
             d="m 778,651.8 c 0,4.9 7.6,4.9 7.6,0 0,-4.9 -7.6,-4.9 -7.6,0 z"
             id="path201"
             inkscape:connector-curvature="0"
             style="fill:#ffffff" /><path
             class="st1"
             d="m 778,666.7 c 0,4.9 7.6,4.9 7.6,0 0,-4.9 -7.6,-4.9 -7.6,0 z"
             id="path203"
             inkscape:connector-curvature="0"
             style="fill:#ffffff" /><path
             class="st1"
             d="m 778,681.4 c 0,4.9 7.6,4.9 7.6,0 0,-4.9 -7.6,-4.9 -7.6,0 z"
             id="path205"
             inkscape:connector-curvature="0"
             style="fill:#ffffff" /><path
             class="st1"
             d="m 778,696.4 c 0,4.9 7.6,4.9 7.6,0 0,-4.9 -7.6,-4.9 -7.6,0 z"
             id="path207"
             inkscape:connector-curvature="0"
             style="fill:#ffffff" /><path
             class="st1"
             d="m 778,711.1 c 0,4.9 7.6,4.9 7.6,0 0,-4.9 -7.6,-4.9 -7.6,0 z"
             id="path209"
             inkscape:connector-curvature="0"
             style="fill:#ffffff" /><path
             class="st1"
             d="m 778,726 c 0,4.9 7.6,4.9 7.6,0 0,-4.9 -7.6,-4.9 -7.6,0 z"
             id="path211"
             inkscape:connector-curvature="0"
             style="fill:#ffffff" /><path
             class="st1"
             d="m 778,740.8 c 0,4.9 7.6,4.9 7.6,0 0,-4.9 -7.6,-4.9 -7.6,0 z"
             id="path213"
             inkscape:connector-curvature="0"
             style="fill:#ffffff" /><path
             class="st1"
             d="m 778,755.7 c 0,4.9 7.6,4.9 7.6,0 0,-4.9 -7.6,-4.9 -7.6,0 z"
             id="path215"
             inkscape:connector-curvature="0"
             style="fill:#ffffff" /><path
             class="st1"
             d="m 778,770.5 c 0,4.9 7.6,4.9 7.6,0 0,-4.9 -7.6,-5 -7.6,0 z"
             id="path217"
             inkscape:connector-curvature="0"
             style="fill:#ffffff" /><path
             class="st1"
             d="m 762.6,778.5 c -4.9,0 -4.9,7.6 0,7.6 4.9,0.1 4.9,-7.6 0,-7.6 z"
             id="path219"
             inkscape:connector-curvature="0"
             style="fill:#ffffff" /><path
             class="st1"
             d="m 747.9,778.5 c -4.9,0 -4.9,7.6 0,7.6 4.9,0.1 4.9,-7.6 0,-7.6 z"
             id="path221"
             inkscape:connector-curvature="0"
             style="fill:#ffffff" /><path
             class="st1"
             d="m 732.9,778.5 c -4.9,0 -4.9,7.6 0,7.6 4.9,0.1 4.9,-7.6 0,-7.6 z"
             id="path223"
             inkscape:connector-curvature="0"
             style="fill:#ffffff" /><path
             class="st1"
             d="m 718.2,778.5 c -4.9,0 -4.9,7.6 0,7.6 4.9,0.1 4.9,-7.6 0,-7.6 z"
             id="path225"
             inkscape:connector-curvature="0"
             style="fill:#ffffff" /><path
             class="st1"
             d="m 703.3,778.5 c -4.9,0 -4.9,7.6 0,7.6 4.9,0.1 4.9,-7.6 0,-7.6 z"
             id="path227"
             inkscape:connector-curvature="0"
             style="fill:#ffffff" /><path
             class="st1"
             d="m 688.5,778.5 c -4.9,0 -4.9,7.6 0,7.6 4.9,0.1 4.9,-7.6 0,-7.6 z"
             id="path229"
             inkscape:connector-curvature="0"
             style="fill:#ffffff" /><path
             class="st1"
             d="m 673.6,778.5 c -4.9,0 -4.9,7.6 0,7.6 4.9,0.1 4.9,-7.6 0,-7.6 z"
             id="path231"
             inkscape:connector-curvature="0"
             style="fill:#ffffff" /><path
             class="st1"
             d="m 658.9,778.5 c -4.9,0 -4.9,7.6 0,7.6 4.8,0.1 4.9,-7.6 0,-7.6 z"
             id="path233"
             inkscape:connector-curvature="0"
             style="fill:#ffffff" /><path
             class="st1"
             d="m 643.9,778.5 c -4.9,0 -4.9,7.6 0,7.6 4.9,0.1 4.9,-7.6 0,-7.6 z"
             id="path235"
             inkscape:connector-curvature="0"
             style="fill:#ffffff" /><path
             class="st1"
             d="m 629.2,778.5 c -4.9,0 -4.9,7.6 0,7.6 4.9,0.1 4.9,-7.6 0,-7.6 z"
             id="path237"
             inkscape:connector-curvature="0"
             style="fill:#ffffff" /><path
             class="st1"
             d="m 614.3,778.5 c -4.9,0 -4.9,7.6 0,7.6 4.9,0.1 4.9,-7.6 0,-7.6 z"
             id="path239"
             inkscape:connector-curvature="0"
             style="fill:#ffffff" /><path
             class="st1"
             d="m 599.5,778.5 c -4.9,0 -4.9,7.6 0,7.6 4.9,0.1 4.9,-7.6 0,-7.6 z"
             id="path241"
             inkscape:connector-curvature="0"
             style="fill:#ffffff" /><path
             class="st1"
             d="m 584.6,778.5 c -4.9,0 -4.9,7.6 0,7.6 4.9,0.1 4.9,-7.6 0,-7.6 z"
             id="path243"
             inkscape:connector-curvature="0"
             style="fill:#ffffff" /><path
             class="st1"
             d="m 569.8,778.5 c -4.9,0 -4.9,7.6 0,7.6 4.9,0.1 4.9,-7.6 0,-7.6 z"
             id="path245"
             inkscape:connector-curvature="0"
             style="fill:#ffffff" /><path
             class="st1"
             d="m 554.9,778.5 c -4.9,0 -4.9,7.6 0,7.6 4.9,0.1 4.9,-7.6 0,-7.6 z"
             id="path247"
             inkscape:connector-curvature="0"
             style="fill:#ffffff" /><path
             class="st1"
             d="m 540.2,778.5 c -4.9,0 -4.9,7.6 0,7.6 4.9,0.1 4.9,-7.6 0,-7.6 z"
             id="path249"
             inkscape:connector-curvature="0"
             style="fill:#ffffff" /><path
             class="st1"
             d="m 525.3,778.5 c -4.9,0 -4.9,7.6 0,7.6 4.8,0.1 4.9,-7.6 0,-7.6 z"
             id="path251"
             inkscape:connector-curvature="0"
             style="fill:#ffffff" /><path
             class="st1"
             d="m 510.5,778.5 c -4.9,0 -4.9,7.6 0,7.6 4.9,0.1 4.9,-7.6 0,-7.6 z"
             id="path253"
             inkscape:connector-curvature="0"
             style="fill:#ffffff" /><path
             class="st1"
             d="m 495.6,778.5 c -4.9,0 -4.9,7.6 0,7.6 4.9,0.1 4.9,-7.6 0,-7.6 z"
             id="path255"
             inkscape:connector-curvature="0"
             style="fill:#ffffff" /><path
             class="st1"
             d="m 480.8,778.5 c -4.9,0 -4.9,7.6 0,7.6 4.9,0.1 4.9,-7.6 0,-7.6 z"
             id="path257"
             inkscape:connector-curvature="0"
             style="fill:#ffffff" /><path
             class="st1"
             d="m 465.9,778.5 c -4.9,0 -4.9,7.6 0,7.6 4.9,0.1 4.9,-7.6 0,-7.6 z"
             id="path259"
             inkscape:connector-curvature="0"
             style="fill:#ffffff" /><path
             class="st1"
             d="m 451.2,778.5 c -4.9,0 -4.9,7.6 0,7.6 4.9,0.1 4.9,-7.6 0,-7.6 z"
             id="path261"
             inkscape:connector-curvature="0"
             style="fill:#ffffff" /><path
             class="st1"
             d="m 436.2,778.5 c -4.9,0 -4.9,7.6 0,7.6 4.9,0.1 5,-7.6 0,-7.6 z"
             id="path263"
             inkscape:connector-curvature="0"
             style="fill:#ffffff" /><path
             class="st1"
             d="m 421.5,778.5 c -4.9,0 -4.9,7.6 0,7.6 4.9,0.1 4.9,-7.6 0,-7.6 z"
             id="path265"
             inkscape:connector-curvature="0"
             style="fill:#ffffff" /><path
             class="st1"
             d="m 406.6,778.5 c -4.9,0 -4.9,7.6 0,7.6 4.9,0.1 4.9,-7.6 0,-7.6 z"
             id="path267"
             inkscape:connector-curvature="0"
             style="fill:#ffffff" /><path
             class="st1"
             d="m 391.8,778.5 c -4.9,0 -4.9,7.6 0,7.6 4.9,0.1 4.9,-7.6 0,-7.6 z"
             id="path269"
             inkscape:connector-curvature="0"
             style="fill:#ffffff" /><path
             class="st1"
             d="m 376.9,778.5 c -4.9,0 -4.9,7.6 0,7.6 4.9,0.1 4.9,-7.6 0,-7.6 z"
             id="path271"
             inkscape:connector-curvature="0"
             style="fill:#ffffff" /><path
             class="st1"
             d="m 362.2,778.5 c -4.9,0 -4.9,7.6 0,7.6 4.9,0.1 4.9,-7.6 0,-7.6 z"
             id="path273"
             inkscape:connector-curvature="0"
             style="fill:#ffffff" /><path
             class="st1"
             d="m 347.2,778.5 c -4.9,0 -4.9,7.6 0,7.6 4.9,0.1 4.9,-7.6 0,-7.6 z"
             id="path275"
             inkscape:connector-curvature="0"
             style="fill:#ffffff" /><path
             class="st1"
             d="m 332.5,778.5 c -4.9,0 -4.9,7.6 0,7.6 4.9,0.1 4.9,-7.6 0,-7.6 z"
             id="path277"
             inkscape:connector-curvature="0"
             style="fill:#ffffff" /><path
             class="st1"
             d="m 317.6,778.5 c -4.9,0 -4.9,7.6 0,7.6 4.9,0.1 4.9,-7.6 0,-7.6 z"
             id="path279"
             inkscape:connector-curvature="0"
             style="fill:#ffffff" /><path
             class="st1"
             d="m 302.8,778.5 c -4.9,0 -4.9,7.6 0,7.6 4.9,0.1 4.9,-7.6 0,-7.6 z"
             id="path281"
             inkscape:connector-curvature="0"
             style="fill:#ffffff" /><path
             class="st1"
             d="m 287.9,778.5 c -4.9,0 -4.9,7.6 0,7.6 4.9,0.1 4.9,-7.6 0,-7.6 z"
             id="path283"
             inkscape:connector-curvature="0"
             style="fill:#ffffff" /><path
             class="st1"
             d="m 273.2,778.5 c -4.9,0 -4.9,7.6 0,7.6 4.8,0.1 4.9,-7.6 0,-7.6 z"
             id="path285"
             inkscape:connector-curvature="0"
             style="fill:#ffffff" /></g><g
           id="g287"><path
             class="st1"
             d="m 259.9,256.5 c -2.7,2.3 -10.1,-1.9 -10.2,-2 -0.1,-0.1 -3,-8.1 -0.3,-10.4 2.7,-2.3 10.1,1.9 10.2,2 0.1,0.1 3,8.1 0.3,10.4 z"
             id="path289"
             inkscape:connector-curvature="0"
             style="fill:#ffffff" /></g><g
           id="g291"><path
             class="st1"
             d="m 786.8,256.5 c 2.7,2.3 10.1,-1.9 10.2,-2 0.1,-0.1 3,-8.1 0.3,-10.4 -2.7,-2.3 -10.1,1.9 -10.2,2 -0.1,0.1 -3,8.1 -0.3,10.4 z"
             id="path293"
             inkscape:connector-curvature="0"
             style="fill:#ffffff" /></g><g
           id="g295"><path
             class="st1"
             d="m 254.2,783.9 c -2.7,-2.3 -10.1,1.9 -10.2,2 -0.1,0.1 -3,8.1 -0.3,10.4 2.7,2.3 10.1,-1.9 10.2,-2 0.1,-0.2 3,-8.1 0.3,-10.4 z"
             id="path297"
             inkscape:connector-curvature="0"
             style="fill:#ffffff" /></g><g
           id="g299"><path
             class="st1"
             d="m 786.8,786.9 c 2.7,-2.3 10.1,1.9 10.2,2 0.1,0.1 3,8.1 0.3,10.4 -2.7,2.3 -10.1,-1.9 -10.2,-2 -0.1,-0.2 -3,-8.1 -0.3,-10.4 z"
             id="path301"
             inkscape:connector-curvature="0"
             style="fill:#ffffff" /></g></g></g></switch></svg>