<?xml version="1.0" encoding="UTF-8" standalone="no"?>
<svg
   xmlns:dc="http://purl.org/dc/elements/1.1/"
   xmlns:cc="http://creativecommons.org/ns#"
   xmlns:rdf="http://www.w3.org/1999/02/22-rdf-syntax-ns#"
   xmlns:svg="http://www.w3.org/2000/svg"
   xmlns="http://www.w3.org/2000/svg"
   xmlns:sodipodi="http://sodipodi.sourceforge.net/DTD/sodipodi-0.dtd"
   xmlns:inkscape="http://www.inkscape.org/namespaces/inkscape"
   version="1.1"
   id="Layer_1"
   x="0px"
   y="0px"
   viewBox="0 0 1000 1000"
   width="100%"
   height="100%"
   style="enable-background:new 0 0 1000 1000;"
   xml:space="preserve"
  ><style
     type="text/css"
     id="style3">
	.noFillSVG{fill:none;}
	.st1{fill:#B9921D;}
</style><switch
     id="switch5"
     transform="translate(-3.45,1.6)"><g
       id="g7"><g
         id="g9"><g
           id="g11"><polygon
             class="noFillSVG"
             points="797.1,285.1 718.9,208.7 290.4,208.7 215.8,281.6 215.8,717 290.5,790 718.8,790 797.1,713.5 "
             id="polygon13"
             style="fill:none" /><polygon
             class="st1"
             points="880.2,175.3 870.5,158.4 860.7,175.3 851,192.1 869.1,192.1 869.1,803.7 851,803.7 860.7,820.5 870.5,837.3 880.2,820.5 889.9,803.7 871.8,803.7 871.8,192.1 889.9,192.1 "
             id="polygon15"
             style="fill:#b9921d" /><path
             class="st1"
             d="m 289.4,792.7 3.9,0 422.7,0 3.9,0 2.8,-2.7 74.3,-72.7 2.7,-2.7 0,-3.8 0,-423 0,-3.8 -2.7,-2.7 -74.2,-72.6 -2.8,-2.7 -3.9,0 -422.9,0 -3.9,0 -2.8,2.7 -70.6,69 -2.7,2.7 0,3.8 0,430.1 0,3.8 2.7,2.7 70.7,69.1 2.8,2.8 z m -73.6,-75.7 0,-435.4 74.5,-72.9 428.5,0 78.2,76.4 0,428.3 -78.2,76.6 -428.3,0 -74.7,-73 z"
             id="path17"
             inkscape:connector-curvature="0"
             style="fill:#b9921d" /><path
             class="st1"
             d="m 293.3,119.4 c 5,-2.3 7.2,-6.1 19.4,-2 9.2,3.1 14.6,-2.8 15.4,-3.8 -3.6,6.5 0.7,10.2 6.3,10.2 0,0 2.5,0 6.9,-4.1 4.8,-4.4 9.4,-6.4 13,-7.2 8.6,5.3 14.7,2.3 17.8,-0.3 2.2,1.7 6.6,1.3 6.6,1.3 -0.2,0.7 -1.4,6.7 4.2,2.9 2.6,-1.8 5.8,-3.2 8.6,-4.2 l 81.5,0 c 2.7,0 13.9,-0.1 29.9,-0.1 16,0.1 27.2,0.1 29.9,0.1 l 81.5,0 c 2.7,1 6,2.4 8.6,4.2 5.5,3.8 4.3,-2.3 4.2,-2.9 0,0 4.3,0.5 6.6,-1.3 3.1,2.6 9.2,5.6 17.8,0.3 3.6,0.9 8.2,2.8 13,7.2 4.5,4.1 6.9,4.1 6.9,4.1 5.6,0 9.9,-3.7 6.3,-10.2 0.8,1 6.2,6.9 15.4,3.8 12.2,-4.1 14.4,-0.4 19.4,2 5,2.3 6.9,-2.3 6.9,-2.3 0,0 -2.8,1.9 -6.2,-1.2 -3.4,-3.1 -7.2,-10.4 -12.8,-8.5 0,0 1.5,-5 -2.9,-8.1 0,0 0.8,3 -1.1,5.3 -2,2.3 -6.2,4.1 -3,9.2 0,0 -4.7,2.2 -7.2,0.8 0,0 2.8,-4.4 -2,-8.9 0.1,0.1 -1,1.9 -1.1,2 -0.8,1.1 -1.9,1.8 -3,1.7 -0.9,-0.1 -1.7,-0.7 -2.4,-1.4 1.2,-2.7 2.2,-6.5 0.1,-8.8 -3.5,-3.9 -10,-0.6 -13.5,2.7 l -0.1,0.1 c -1.8,0.3 -3.9,0.7 -6.3,1.4 -5.4,1.4 -8.3,2.7 -10.7,3.7 -3.8,-1.5 -8.9,-2.2 -14,1.3 -0.8,-0.6 -1.8,-1.1 -2.8,-1 -2.5,0.2 -3.8,0.7 -3.8,0.7 0,0 1.5,-3.4 -0.1,-4.3 -1.6,-0.9 -5.7,1.9 -6.5,2.4 -0.7,0.4 -4.9,2.6 -8.2,3.6 -1.7,0.6 -4.8,0.1 -6.6,0 -3.3,-0.2 -6.6,-0.2 -9.8,-0.2 -7.1,0 -14.2,0 -21.3,0 -14.2,0 -28.4,0 -42.6,0 -28.4,0 -56.8,0 -85.2,0 -17.2,0 -34.4,0.1 -51.5,0.1 -3.4,-1.1 -7.6,-3.2 -8.2,-3.6 -0.9,-0.5 -5,-3.3 -6.5,-2.4 -1.6,0.9 -0.1,4.3 -0.1,4.3 0,0 -1.4,-0.5 -3.8,-0.7 -1,-0.1 -2,0.4 -2.8,1 -5.1,-3.5 -10.2,-2.9 -14,-1.3 -2.4,-1 -5.4,-2.3 -10.7,-3.7 -2.5,-0.6 -4.6,-1.1 -6.3,-1.4 l -0.1,-0.1 c -3.5,-3.3 -10,-6.6 -13.5,-2.7 -2.1,2.3 -1.1,6.1 0.1,8.8 -0.7,0.7 -1.5,1.3 -2.4,1.4 -1.2,0.1 -2.2,-0.6 -3,-1.7 -0.1,-0.1 -1.2,-1.9 -1.1,-2 -4.8,4.6 -2,8.9 -2,8.9 -2.4,1.5 -7.2,-0.8 -7.2,-0.8 3.1,-5.1 -1.1,-6.9 -3,-9.2 -2,-2.3 -1.1,-5.3 -1.1,-5.3 -4.4,3.1 -2.9,8.1 -2.9,8.1 -5.7,-1.9 -9.5,5.4 -12.9,8.5 -3.4,3.1 -6.2,1.2 -6.2,1.2 0,0 1.2,4.7 6.2,2.4 z"
             id="path19"
             inkscape:connector-curvature="0"
             style="fill:#b9921d" /><path
             class="st1"
             d="m 713.5,877.4 c -5,2.3 -7.2,6.1 -19.4,2 -9.2,-3.1 -14.6,2.8 -15.4,3.8 3.6,-6.5 -0.7,-10.2 -6.3,-10.2 0,0 -2.5,0 -6.9,4.1 -4.8,4.4 -9.4,6.4 -13,7.2 -8.6,-5.3 -14.7,-2.3 -17.8,0.3 -2.2,-1.7 -6.6,-1.3 -6.6,-1.3 0.2,-0.7 1.4,-6.7 -4.2,-2.9 -2.6,1.8 -5.8,3.2 -8.6,4.2 l -81.5,0 c -2.7,0 -13.9,0.1 -29.9,0.1 -16,-0.1 -27.2,-0.1 -29.9,-0.1 l -81.5,0 c -2.7,-1 -6,-2.4 -8.6,-4.2 -5.5,-3.8 -4.3,2.3 -4.2,2.9 0,0 -4.3,-0.5 -6.6,1.3 -3.1,-2.6 -9.2,-5.6 -17.8,-0.3 -3.6,-0.9 -8.2,-2.8 -13,-7.2 -4.5,-4.1 -6.9,-4.1 -6.9,-4.1 -5.6,0 -9.9,3.7 -6.3,10.2 -0.8,-1 -6.2,-6.9 -15.4,-3.8 -12.2,4.1 -14.4,0.4 -19.4,-2 -5,-2.3 -6.9,2.3 -6.9,2.3 0,0 2.8,-1.9 6.2,1.2 3.4,3.1 7.2,10.4 12.9,8.5 0,0 -1.5,5 2.9,8.1 0,0 -0.8,-3 1.1,-5.3 2,-2.3 6.2,-4.1 3,-9.2 0,0 4.7,-2.2 7.2,-0.8 0,0 -2.8,4.4 2,8.9 -0.1,-0.1 1,-1.9 1.1,-2 0.8,-1.1 1.9,-1.8 3,-1.7 0.9,0.1 1.7,0.7 2.4,1.4 -1.2,2.7 -2.2,6.5 -0.1,8.8 3.5,3.9 10,0.6 13.5,-2.7 l 0.1,-0.1 c 1.8,-0.3 3.9,-0.7 6.3,-1.4 5.4,-1.4 8.3,-2.7 10.7,-3.7 3.8,1.5 8.9,2.2 14,-1.3 0.8,0.6 1.8,1.1 2.8,1 2.5,-0.2 3.8,-0.7 3.8,-0.7 0,0 -1.5,3.4 0.1,4.3 1.6,0.9 5.7,-1.9 6.5,-2.4 0.7,-0.4 4.9,-2.6 8.2,-3.6 1.7,-0.6 4.8,-0.1 6.6,0 3.3,0.2 6.6,0.2 9.8,0.2 7.1,0 14.2,0 21.3,0 14.2,0 28.4,0 42.6,0 28.4,0 56.8,0 85.2,0 17.2,0 34.4,-0.1 51.5,-0.1 3.4,1.1 7.6,3.2 8.2,3.6 0.9,0.5 5,3.3 6.5,2.4 1.6,-0.9 0.1,-4.3 0.1,-4.3 0,0 1.4,0.5 3.8,0.7 1,0.1 2,-0.4 2.8,-1 5.1,3.5 10.2,2.9 14,1.3 2.4,1 5.4,2.3 10.7,3.7 2.5,0.6 4.6,1.1 6.3,1.4 l 0.1,0.1 c 3.5,3.3 10,6.6 13.5,2.7 2.1,-2.3 1.1,-6.1 -0.1,-8.8 0.7,-0.7 1.5,-1.3 2.4,-1.4 1.2,-0.1 2.2,0.6 3,1.7 0.1,0.1 1.2,1.9 1.1,2 4.8,-4.6 2,-8.9 2,-8.9 2.4,-1.5 7.2,0.8 7.2,0.8 -3.1,5.1 1.1,6.9 3,9.2 2,2.3 1.1,5.3 1.1,5.3 4.4,-3.1 2.9,-8.1 2.9,-8.1 5.7,1.9 9.5,-5.4 12.8,-8.5 3.4,-3.1 6.2,-1.2 6.2,-1.2 0,0 -1.2,-4.7 -6.2,-2.4 z"
             id="path21"
             inkscape:connector-curvature="0"
             style="fill:#b9921d" /><path
             class="st1"
             d="m 899.8,659.1 c -0.3,-1.8 -0.7,-3.9 -1.4,-6.3 -1.4,-5.4 -2.7,-8.3 -3.7,-10.7 1.5,-3.8 2.2,-8.9 -1.3,-14 0.6,-0.8 1.1,-1.8 1,-2.8 -0.2,-2.5 -0.7,-3.8 -0.7,-3.8 0,0 3.4,1.5 4.3,-0.1 0.9,-1.6 -1.9,-5.7 -2.4,-6.5 -0.4,-0.7 -2.6,-4.9 -3.6,-8.2 -0.6,-1.7 -0.1,-4.8 0,-6.6 0.2,-3.3 0.2,-6.6 0.2,-9.8 0,-7.1 0,-14.2 0,-21.3 0,-14.2 0,-28.4 0,-42.6 0,-28.4 0,-56.8 0,-85.2 0,-17.2 -0.1,-34.4 -0.1,-51.5 1.1,-3.4 3.2,-7.6 3.6,-8.2 0.5,-0.9 3.3,-5 2.4,-6.5 -0.9,-1.6 -4.3,-0.1 -4.3,-0.1 0,0 0.5,-1.4 0.7,-3.8 0.1,-1 -0.4,-2 -1,-2.8 3.5,-5.1 2.9,-10.2 1.3,-14 1,-2.4 2.3,-5.4 3.7,-10.7 0.6,-2.5 1.1,-4.6 1.4,-6.3 l 0.1,-0.1 c 3.3,-3.5 6.6,-10 2.7,-13.5 -2.3,-2.1 -6.1,-1.1 -8.8,0.1 -0.7,-0.7 -1.3,-1.5 -1.4,-2.4 -0.1,-1.2 0.6,-2.2 1.7,-3 0.1,-0.1 1.9,-1.2 2,-1.1 -4.6,-4.8 -8.9,-2 -8.9,-2 -1.5,-2.4 0.8,-7.2 0.8,-7.2 5.1,3.1 6.9,-1.1 9.2,-3 2.3,-2 5.3,-1.1 5.3,-1.1 -3.1,-4.4 -8.1,-2.9 -8.1,-2.9 1.9,-5.7 -5.4,-9.5 -8.5,-12.9 -3.1,-3.4 -1.2,-6.2 -1.2,-6.2 0,0 -4.6,1.9 -2.3,6.9 2.3,5 6.1,7.2 2,19.4 -3.1,9.2 2.8,14.6 3.8,15.4 -6.5,-3.6 -10.2,0.7 -10.2,6.3 0,0 0,2.5 4.1,6.9 4.4,4.8 6.4,9.4 7.2,13 -5.3,8.6 -2.3,14.7 0.3,17.8 -1.7,2.2 -1.3,6.6 -1.3,6.6 -0.7,-0.2 -6.7,-1.4 -2.9,4.2 1.8,2.6 3.2,5.8 4.2,8.6 l 0,81.5 c 0,2.7 0.1,13.9 0.1,29.9 -0.1,16 -0.1,27.2 -0.1,29.9 l 0,81.5 c -1,2.7 -2.4,6 -4.2,8.6 -3.8,5.5 2.3,4.3 2.9,4.2 0,0 -0.5,4.3 1.3,6.6 -2.6,3.1 -5.6,9.2 -0.3,17.8 -0.9,3.6 -2.8,8.2 -7.2,13 -4.1,4.5 -4.1,6.9 -4.1,6.9 0,5.6 3.7,9.9 10.2,6.3 -1,0.8 -6.9,6.2 -3.8,15.4 4.1,12.2 0.4,14.4 -2,19.4 -2.3,5 2.3,6.9 2.3,6.9 0,0 -1.9,-2.8 1.2,-6.2 3.1,-3.4 10.4,-7.2 8.5,-12.9 0,0 5,1.5 8.1,-2.9 0,0 -3,0.8 -5.3,-1.1 -2.3,-2 -4.1,-6.2 -9.2,-3 0,0 -2.2,-4.7 -0.8,-7.2 0,0 4.4,2.8 8.9,-2 -0.1,0.1 -1.9,-1 -2,-1.1 -1.1,-0.8 -1.8,-1.9 -1.7,-3 0.1,-0.9 0.7,-1.7 1.4,-2.4 2.7,1.2 6.5,2.2 8.8,0.1 3.9,-3.5 0.6,-10 -2.7,-13.5 l -0.2,-0.7 z"
             id="path23"
             inkscape:connector-curvature="0"
             style="fill:#b9921d" /><path
             class="st1"
             d="m 121,709.2 c 3.1,3.4 1.2,6.2 1.2,6.2 0,0 4.6,-1.9 2.3,-6.9 -2.3,-5 -6.1,-7.2 -2,-19.4 3.1,-9.2 -2.8,-14.6 -3.8,-15.4 6.5,3.6 10.2,-0.7 10.2,-6.3 0,0 0,-2.5 -4.1,-6.9 -4.4,-4.8 -6.4,-9.4 -7.2,-13 5.3,-8.6 2.3,-14.7 -0.3,-17.8 1.7,-2.2 1.3,-6.6 1.3,-6.6 0.7,0.2 6.7,1.4 2.9,-4.2 -1.8,-2.6 -3.2,-5.8 -4.2,-8.6 l 0,-81.5 c 0,-2.7 -0.1,-13.9 -0.1,-29.9 0.1,-16 0.1,-27.2 0.1,-29.9 l 0,-81.5 c 1,-2.7 2.4,-6 4.2,-8.6 3.8,-5.5 -2.3,-4.3 -2.9,-4.2 0,0 0.5,-4.3 -1.3,-6.6 2.6,-3.1 5.6,-9.2 0.3,-17.8 0.9,-3.6 2.8,-8.2 7.2,-13 4.1,-4.5 4.1,-6.9 4.1,-6.9 0,-5.6 -3.7,-9.9 -10.2,-6.3 1,-0.8 6.9,-6.2 3.8,-15.4 -4.1,-12.2 -0.4,-14.4 2,-19.4 2.3,-5 -2.3,-6.9 -2.3,-6.9 0,0 1.9,2.8 -1.2,6.2 -3.1,3.4 -10.4,7.2 -8.5,12.9 0,0 -5,-1.5 -8.1,2.9 0,0 3,-0.8 5.3,1.1 2.3,2 4.1,6.2 9.2,3 0,0 2.2,4.7 0.8,7.2 0,0 -4.4,-2.8 -8.9,2 0.1,-0.1 1.9,1 2,1.1 1.1,0.8 1.8,1.9 1.7,3 -0.1,0.9 -0.7,1.7 -1.4,2.4 -2.7,-1.2 -6.5,-2.2 -8.8,-0.1 -3.9,3.5 -0.6,10 2.7,13.5 l 0.1,0.1 c 0.3,1.8 0.7,3.9 1.4,6.3 1.4,5.4 2.7,8.3 3.7,10.7 -1.5,3.8 -2.2,8.9 1.3,14 -0.6,0.8 -1.1,1.8 -1,2.8 0.2,2.5 0.7,3.8 0.7,3.8 0,0 -3.4,-1.5 -4.3,0.1 -0.9,1.6 1.9,5.7 2.4,6.5 0.4,0.7 2.6,4.9 3.6,8.2 0.6,1.7 0.1,4.8 0,6.6 -0.2,3.3 -0.2,6.6 -0.2,9.8 0,7.1 0,14.2 0,21.3 0,14.2 0,28.4 0,42.6 0,28.4 0,56.8 0,85.2 0,17.2 0.1,34.4 0.1,51.5 -1.1,3.4 -3.2,7.6 -3.6,8.2 -0.5,0.9 -3.3,5 -2.4,6.5 0.9,1.6 4.3,0.1 4.3,0.1 0,0 -0.5,1.4 -0.7,3.8 -0.1,1 0.4,2 1,2.8 -3.5,5.1 -2.9,10.2 -1.3,14 -1,2.4 -2.3,5.4 -3.7,10.7 -0.6,2.5 -1.1,4.6 -1.4,6.3 l -0.1,0.1 c -3.3,3.5 -6.6,10 -2.7,13.5 2.3,2.1 6.1,1.1 8.8,-0.1 0.7,0.7 1.3,1.5 1.4,2.4 0.1,1.2 -0.6,2.2 -1.7,3 -0.1,0.1 -1.9,1.2 -2,1.1 4.6,4.8 8.9,2 8.9,2 1.5,2.4 -0.8,7.2 -0.8,7.2 -5.1,-3.1 -6.9,1.1 -9.2,3 -2.3,2 -5.3,1.1 -5.3,1.1 3.1,4.4 8.1,2.9 8.1,2.9 -1.8,6.3 5.5,10.1 8.6,13.5 z"
             id="path25"
             inkscape:connector-curvature="0"
             style="fill:#b9921d" /><polygon
             class="st1"
             points="139.6,158.4 129.9,175.3 120.2,192.1 138.2,192.1 138.2,803.7 120.2,803.7 129.9,820.5 139.6,837.3 149.3,820.5 159.1,803.7 141,803.7 141,192.1 159.1,192.1 149.3,175.3 "
             id="polygon27"
             style="fill:#b9921d" /><polygon
             class="st1"
             points="810.8,133 199.3,133 199.3,132.5 199.3,113 182.4,122.7 165.6,132.5 182.4,142.2 199.3,151.9 199.3,135.8 810.8,135.8 810.8,151.9 827.7,142.2 844.5,132.5 827.7,122.7 810.8,113 810.8,132.5 "
             id="polygon29"
             style="fill:#b9921d" /><polygon
             class="st1"
             points="199.3,862.9 199.3,843.9 182.4,853.6 165.6,863.3 182.4,873 199.3,882.8 199.3,865.7 810.8,865.7 810.8,882.8 827.7,873 844.5,863.3 827.7,853.6 810.8,843.9 810.8,862.9 "
             id="polygon31"
             style="fill:#b9921d" /></g><polygon
           class="st1"
           points="274.7,204.1 243.1,235.7 211.4,267.3 199.9,224.1 188.3,180.9 231.5,192.5 "
           id="polygon33"
           style="fill:#b9921d" /><polygon
           class="st1"
           points="801.5,267.3 769.8,235.7 738.2,204.1 781.4,192.5 824.6,180.9 813,224.1 "
           id="polygon35"
           style="fill:#b9921d" /><polygon
           class="st1"
           points="736.8,798.4 768.4,766.8 800,735.1 811.6,778.3 823.2,821.5 780,809.9 "
           id="polygon37"
           style="fill:#b9921d" /><polygon
           class="st1"
           points="210,735.1 241.6,766.8 273.3,798.4 230.1,809.9 186.9,821.5 198.5,778.3 "
           id="polygon39"
           style="fill:#b9921d" /></g></g></switch></svg>