<?xml version="1.0" encoding="UTF-8" standalone="no"?>
<svg
   xmlns:dc="http://purl.org/dc/elements/1.1/"
   xmlns:cc="http://creativecommons.org/ns#"
   xmlns:rdf="http://www.w3.org/1999/02/22-rdf-syntax-ns#"
   xmlns:svg="http://www.w3.org/2000/svg"
   xmlns="http://www.w3.org/2000/svg"
   xmlns:sodipodi="http://sodipodi.sourceforge.net/DTD/sodipodi-0.dtd"
   xmlns:inkscape="http://www.inkscape.org/namespaces/inkscape"
   version="1.1"
   id="Layer_1"
   x="0px"
   y="0px"
   viewBox="42.599998474121094 161.23489379882812 914.7999877929688 830.0725708007812"
   width="100%"
   height="100%"
   style="enable-background:new 0 0 1000 1000;"
   xml:space="preserve"
   ><style
     type="text/css"
     id="style3">
	.st0{fill:#B9921D;}
</style><switch
     id="switch5"
     transform="translate(-33.9,75.007471)"><g
       id="g7"><g
         id="g9"><g
           id="g11"><path
             class="st0"
             d="m 533.9,848.4 -1.3,-2.2 -377.8,-654.3 758.2,0 -1.3,2.2 -377.8,654.3 z m -374,-653.6 374,647.8 374,-647.8 -748,0 z"
             id="path13"
             inkscape:connector-curvature="0"
             style="fill:#b9921d" /></g><g
           id="g15"><path
             class="st0"
             d="M 533.9,916.3 532.6,914.1 76.5,124 991.3,124 990,126.2 533.9,916.3 Z M 81.6,127 533.9,910.4 986.2,127 81.6,127 Z"
             id="path17"
             inkscape:connector-curvature="0"
             style="fill:#b9921d" /></g><g
           id="g19"><path
             class="st0"
             d="m 533.9,900.1 -437,-757 874,0 -437,757 z M 112.1,152 533.9,882.5 955.7,152 112.1,152 Z"
             id="path21"
             inkscape:connector-curvature="0"
             style="fill:#b9921d" /></g><g
           id="g23"><path
             class="st0"
             d="m 956.6,90.9 c -1,-1.4 0.8,-2.7 -2.6,-4.3 -13.4,-2 -28,4.6 -42,6.8 -3,-4.5 -13.5,-5.1 -17.8,-1.3 -0.3,2.4 6.9,0.7 6.7,2.5 -4.5,4.6 -15,-1 -19.7,2.2 -1.8,-0.1 -3.6,-0.2 -5.5,-0.3 -4.5,-1.3 -8.9,-2 -13.2,-1 0,0.2 0.1,0.3 0.2,0.5 C 772.9,93.1 558.6,93.6 416.6,94.2 332.8,94.1 252,94.4 204.9,96 c 0.1,-0.1 0.2,-0.3 0.2,-0.4 -4.2,-1 -8.6,-0.4 -12.9,0.9 -2,0.1 -4,0.2 -5.8,0.3 -4.6,-3.2 -15.1,2.5 -19.6,-2.2 -0.2,-1.8 7,-0.1 6.7,-2.5 -4.2,-3.8 -14.8,-3.3 -17.8,1.3 -14,-2.2 -28.6,-8.8 -42,-6.8 -3.4,1.5 -1.6,2.8 -2.6,4.3 -16.4,-5 -36.1,5.3 -31.4,13.3 31.7,-14.3 68.3,4.9 100.9,-3.4 0.2,0 0.5,0 0.8,-0.1 -6.2,2.6 -12.5,5.3 -18.5,5.5 0.4,3.4 9.2,5.3 14.6,-0.2 1.2,0.4 -0.8,1.7 -0.1,2.2 4.5,-0.8 9.6,-5.2 13.6,-8.2 0.1,0 0.2,0 0.3,0 -0.1,1.6 2.8,2.8 5.8,0.5 0.1,-0.3 0,-0.5 -0.2,-0.8 3,3.1 28,-1.1 32.6,-1.2 14.3,-0.4 28.7,-0.2 43,-0.3 47.6,-0.3 95.2,-0.6 142.7,-0.8 114,0.1 227.8,1.5 341.8,0.5 37.9,-0.4 75.9,0.1 113.8,1.9 -0.2,0.2 -0.3,0.4 -0.2,0.7 3,2.4 5.9,1.2 5.8,-0.4 0.1,0 0.2,0 0.4,0 3.9,3.1 9,7.4 13.5,8.2 0.7,-0.5 -1.3,-1.8 -0.1,-2.2 5.4,5.4 14.3,3.6 14.6,0.2 -6,-0.2 -12.2,-2.8 -18.5,-5.5 0.3,0 0.6,0.1 0.9,0.1 32.6,8.2 69,-10.9 100.7,3.4 C 992.7,96.2 973,86 956.6,90.9 Z"
             id="path25"
             inkscape:connector-curvature="0"
             style="fill:#b9921d" /></g><g
           id="g27"><path
             class="st0"
             d="m 437.9,775 c -5.1,-18.7 -17.3,-35.5 -33.6,-46 -6.5,-4.2 -14.1,-7.8 -17.7,-14.6 -2.1,-3.9 -2.6,-8.3 -4.2,-12.4 -3.5,-9.2 -12.5,-16.1 -22.3,-17.1 8,-6.6 8.8,-18.9 5.4,-28.7 -3.4,-9.8 -10,-18.1 -14.8,-27.3 -9.2,-17.6 -12.2,-38.6 -25.1,-53.7 -17.5,-20.5 -48.7,-23.9 -74.7,-16.8 20.5,-19.4 34.2,-49.7 24.1,-76.1 -6.7,-17.7 -22.5,-30.1 -32.8,-46 -5.8,-9 -9.9,-19.1 -16.9,-27.1 -7,-8 -18.2,-13.9 -28.3,-10.3 4,-8.9 2.5,-20 -3.7,-27.6 -2.9,-3.6 -6.8,-6.4 -9.2,-10.3 -3.9,-6.4 -3.3,-14.3 -3.6,-21.8 -0.9,-20.1 -10,-39.8 -24.7,-53.6 11,18.8 22.4,40.5 16.2,61.4 -2,6.8 -5.6,14.7 -1.2,20.2 4.1,5.1 12.5,4.3 17.3,8.8 4.4,4.1 4.3,11.1 3.1,17 -1.2,5.9 -3,12.2 -0.9,17.8 2.1,5.6 10.6,9 14.3,4.2 1.9,-2.6 1.8,-6.5 4.3,-8.6 3.9,-3.3 9.5,0.9 12.6,4.9 9.1,11.7 17.2,24.2 23.9,37.4 -17.8,-6.1 -41.2,-4 -50.5,12.4 -5.8,10.3 -3.7,24.5 4.8,32.7 8.6,8.2 22.8,9.7 32.9,3.4 6.6,-4.1 11.3,-11.9 9.8,-19.5 -1.5,-7.6 -10.9,-13.2 -17.6,-9.3 -6.7,3.9 -4.5,16.8 3.2,16.9 -5.5,9.6 -21.8,8.2 -27.3,-1.4 -5.5,-9.6 -0.8,-22.8 8.5,-28.8 9.3,-6 21.5,-5.7 31.8,-1.7 20.4,7.9 34.2,30.3 32.1,52.1 -1.8,18.6 -13.5,34.6 -26.2,48.3 1.8,-10.7 -2.3,-22.2 -10.5,-29.5 -4.3,-3.8 -10.5,-6.5 -15.9,-4.6 -5.5,1.9 -8.3,10.1 -3.8,13.8 3.2,2.6 7.8,1.7 11.9,2.4 11.8,2 15.2,19.1 6.5,26.3 -4.5,3.7 -21.8,6.8 -20,15.5 1.1,5.3 9.5,0.8 12,-0.6 4.6,-2.5 8.8,-6 14.1,-6.9 10.4,-1.9 19.7,10.2 15.1,19.9 -1.4,3 -4,5.6 -4.1,8.9 -0.3,6.1 8.7,9.3 13.6,5.7 5,-3.6 6,-10.8 4.7,-16.8 -2.2,-10.4 -10.2,-19.3 -20.2,-22.7 18.9,-7.7 41.6,-7.2 59.1,3.4 17.5,10.6 28.6,31.9 25.1,52.1 -1.8,10.8 -8.2,21.4 -18.2,25.9 -10,4.5 -23.6,1.4 -28.7,-8.3 -5.1,-9.7 1.9,-24.2 12.9,-24.3 -4.6,6.5 5.2,15.9 12.3,12.3 7.1,-3.6 7.1,-15 1.2,-20.2 -6,-5.2 -15.4,-4.8 -22.3,-0.8 -10.3,5.9 -15.7,19 -12.7,30.4 3.1,11.4 14.4,20.1 26.2,20 18.7,-0.1 32.1,-19.3 35.4,-37.8 8,12.4 15,25.4 20.7,39 1.9,4.5 3.1,11.1 -1.4,13.3 -3.3,1.6 -7.3,-0.7 -10.9,0.2 -5.7,1.4 -6.4,10.1 -2.5,14.5 3.9,4.4 10.1,5.8 15.7,7.7 5.6,1.8 11.6,5 13.1,10.7 1.8,6.5 -3.1,13.6 -0.6,19.8 2.7,6.8 11.7,7.7 18.8,9.5 21,5.3 34,25.8 44.8,44.5 0,-0.5 -0.2,-1.3 -0.4,-2.1 z"
             id="path29"
             inkscape:connector-curvature="0"
             style="fill:#b9921d" /></g><g
           id="g31"><path
             class="st0"
             d="m 628.2,775 c 5.1,-18.7 17.3,-35.5 33.6,-46 6.5,-4.2 14.1,-7.8 17.7,-14.6 2.1,-3.9 2.6,-8.3 4.2,-12.4 3.5,-9.2 12.5,-16.1 22.3,-17.1 -8,-6.6 -8.8,-18.9 -5.4,-28.7 3.4,-9.8 10,-18.1 14.8,-27.3 9.2,-17.6 12.2,-38.6 25.1,-53.7 17.5,-20.5 48.7,-23.9 74.7,-16.8 -20.5,-19.4 -34.2,-49.7 -24.1,-76.1 6.7,-17.7 22.5,-30.1 32.8,-46 5.8,-9 9.9,-19.1 16.9,-27.1 7,-8 18.2,-13.9 28.3,-10.3 -4,-8.9 -2.5,-20 3.7,-27.6 2.9,-3.6 6.8,-6.4 9.2,-10.3 3.9,-6.4 3.3,-14.3 3.6,-21.8 0.9,-20.1 10,-39.8 24.7,-53.6 -11,18.8 -22.4,40.5 -16.2,61.4 2,6.8 5.6,14.7 1.2,20.2 -4.1,5.1 -12.5,4.3 -17.3,8.8 -4.4,4.1 -4.3,11.1 -3.1,17 1.2,5.9 3,12.2 0.9,17.8 -2.1,5.6 -10.6,9 -14.3,4.2 -1.9,-2.6 -1.8,-6.5 -4.3,-8.6 -3.9,-3.3 -9.5,0.9 -12.6,4.9 -9.1,11.7 -17.2,24.2 -23.9,37.4 17.8,-6.1 41.2,-4 50.5,12.4 5.8,10.3 3.7,24.5 -4.8,32.7 -8.6,8.2 -22.8,9.7 -32.9,3.4 -6.6,-4.1 -11.3,-11.9 -9.8,-19.5 1.5,-7.6 10.9,-13.2 17.6,-9.3 6.7,3.9 4.5,16.8 -3.2,16.9 5.5,9.6 21.8,8.2 27.3,-1.4 5.5,-9.6 0.8,-22.8 -8.5,-28.8 -9.3,-6 -21.5,-5.7 -31.8,-1.7 -20.4,7.9 -34.2,30.3 -32.1,52.1 1.8,18.6 13.5,34.6 26.2,48.3 -1.8,-10.7 2.3,-22.2 10.5,-29.5 4.3,-3.8 10.5,-6.5 15.9,-4.6 5.5,1.9 8.3,10.1 3.8,13.8 -3.2,2.6 -7.8,1.7 -11.9,2.4 -11.8,2 -15.2,19.1 -6.5,26.3 4.5,3.7 21.8,6.8 20,15.5 -1.1,5.3 -9.5,0.8 -12,-0.6 -4.6,-2.5 -8.8,-6 -14.1,-6.9 -10.4,-1.9 -19.7,10.2 -15.1,19.9 1.4,3 4,5.6 4.1,8.9 0.3,6.1 -8.7,9.3 -13.6,5.7 -5,-3.6 -6,-10.8 -4.7,-16.8 2.2,-10.4 10.2,-19.3 20.2,-22.7 -18.9,-7.7 -41.6,-7.2 -59.1,3.4 -17.5,10.6 -28.6,31.9 -25.1,52.1 1.8,10.8 8.2,21.4 18.2,25.9 10,4.5 23.6,1.4 28.7,-8.3 5.1,-9.7 -1.9,-24.2 -12.9,-24.3 4.6,6.5 -5.2,15.9 -12.3,12.3 -7.1,-3.6 -7.1,-15 -1.2,-20.2 6,-5.2 15.4,-4.8 22.3,-0.8 10.3,5.9 15.7,19 12.7,30.4 -3.1,11.4 -14.4,20.1 -26.2,20 -18.7,-0.1 -32.1,-19.3 -35.4,-37.8 -8,12.4 -15,25.4 -20.7,39 -1.9,4.5 -3.1,11.1 1.4,13.3 3.3,1.6 7.3,-0.7 10.9,0.2 5.7,1.4 6.4,10.1 2.5,14.5 -3.9,4.4 -10.1,5.8 -15.7,7.7 -5.6,1.8 -11.6,5 -13.1,10.7 -1.8,6.5 3.1,13.6 0.6,19.8 -2.7,6.8 -11.7,7.7 -18.8,9.5 -21,5.3 -34,25.8 -44.8,44.5 0,-0.5 0.2,-1.3 0.4,-2.1 z"
             id="path33"
             inkscape:connector-curvature="0"
             style="fill:#b9921d" /></g></g></g></switch></svg>