<?xml version="1.0" encoding="UTF-8" standalone="no"?>
<svg
   xmlns:dc="http://purl.org/dc/elements/1.1/"
   xmlns:cc="http://creativecommons.org/ns#"
   xmlns:rdf="http://www.w3.org/1999/02/22-rdf-syntax-ns#"
   xmlns:svg="http://www.w3.org/2000/svg"
   xmlns="http://www.w3.org/2000/svg"
   xmlns:sodipodi="http://sodipodi.sourceforge.net/DTD/sodipodi-0.dtd"
   xmlns:inkscape="http://www.inkscape.org/namespaces/inkscape"
   version="1.1"
   id="Layer_1"
   x="0px"
   y="0px"
   viewBox="120.70001220703125 234.050048828125 758.6000366210938 531.9000244140625"
   width="100%"
   height="100%"
   style="enable-background:new 0 0 1000 1000;"
   xml:space="preserve"
  ><style
     type="text/css"
     id="style3">
	.noFillSVG{fill:none;}
	.st1{fill:#B9921D;}
	.st2{fill:#FFFFFF;}
</style><switch
     id="switch5"
     transform="translate(-0.1,33.45)"><g
       id="g7"><g
         id="g9"><g
           id="g11"><path
             class="noFillSVG"
             d="m 804.4,466.5 c -0.8,0.6 -1.4,1.1 -2.1,1.7 -7.4,6.9 -10.5,18 -11.1,27.7 -0.8,14 1.1,28.2 -4.4,41.5 -4.2,10.2 -12,19.1 -23,23 -8.9,3.2 -18.3,2.8 -27.6,1.4 -0.6,15.7 -3.3,32.2 -14.9,43.8 -14.3,14.3 -39.7,15.4 -59.2,16.1 -25.5,0.9 -51.2,-1.4 -76.5,2.7 -32.1,5.2 -61.7,20.6 -84.1,42.6 -0.6,0.5 -1.1,1.1 -1.7,1.7 -0.5,-0.6 -1.1,-1.1 -1.7,-1.7 -9.7,-9.6 -20.6,-17.9 -32.7,-24.7 -18.9,-10.6 -40,-17.2 -61.9,-19.3 -25,-2.4 -50.1,-0.1 -75,-1.8 -19.2,-1.3 -41.9,-3.9 -53.9,-20 -8.4,-11.3 -10.5,-25.6 -11.1,-39.4 -9.6,1.5 -19.4,1.8 -28.5,-1.7 -10.5,-4.1 -18,-12.8 -22.1,-22.7 -5.7,-13.7 -3.4,-28.2 -4.5,-42.6 -0.7,-9.4 -3.9,-20 -11,-26.6 -0.7,-0.6 -1.4,-1.2 -2.1,-1.7 0.7,-0.5 1.4,-1.1 2.1,-1.7 7.4,-6.8 10.5,-18 11.1,-27.7 0.8,-14 -1.2,-28.1 4.4,-41.5 4.2,-10.2 12,-19.1 23,-23 8.8,-3.2 18.3,-2.8 27.5,-1.4 0.7,-15.7 3.3,-32.2 14.9,-43.8 14.4,-14.3 39.7,-15.4 59.2,-16.1 25.5,-0.8 51.2,1.4 76.5,-2.7 32.1,-5.2 61.7,-20.6 84.1,-42.6 0.5,-0.6 1.1,-1.1 1.6,-1.7 0.6,0.5 1.1,1.1 1.7,1.7 9.6,9.6 20.6,17.9 32.7,24.7 18.9,10.6 40,17.2 61.9,19.3 25,2.4 50.1,0 75,1.7 19.2,1.3 41.9,4 53.9,20.1 8.4,11.3 10.5,25.6 11.1,39.4 9.6,-1.4 19.4,-1.7 28.5,1.8 10.5,4.1 17.9,12.8 22,22.7 5.7,13.7 3.4,28.2 4.5,42.5 0.7,9.4 3.9,20 11,26.6 1,0.6 1.7,1.2 2.4,1.7 z"
             id="path13"
             inkscape:connector-curvature="0"
             style="fill:none" /><path
             class="st1"
             d="m 876.8,464.3 c -8.9,-8.7 -12.9,-22.6 -13.8,-35 -1.3,-18.8 1.5,-37.9 -5.5,-55.9 -5.1,-12.9 -14.4,-24.4 -27.5,-29.8 -11.3,-4.6 -23.5,-4.2 -35.5,-2.4 -0.7,-18.1 -3.3,-36.9 -13.8,-51.8 -14.9,-21.1 -43.2,-24.6 -67.2,-26.4 -31.1,-2.3 -62.4,0.9 -93.5,-2.3 -27.2,-2.8 -53.6,-11.5 -77.1,-25.4 -15.1,-8.9 -28.7,-19.9 -40.8,-32.5 -0.7,-0.7 -1.4,-1.4 -2.1,-2.2 -0.7,0.7 -1.4,1.5 -2,2.2 -27.9,29.1 -64.8,49.2 -104.8,56.1 -31.5,5.4 -63.6,2.4 -95.3,3.5 -24.3,0.8 -55.8,2.3 -73.7,21.1 -14.4,15.2 -17.7,37 -18.5,57.6 -11.5,-1.9 -23.3,-2.3 -34.4,1.9 -13.7,5.1 -23.4,16.9 -28.6,30.3 -6.9,17.5 -4.4,36.2 -5.5,54.6 -0.7,12.8 -4.6,27.4 -13.8,36.4 -0.8,0.8 -1.7,1.6 -2.6,2.3 0.9,0.7 1.8,1.5 2.6,2.3 8.9,8.7 12.9,22.6 13.8,35 1.3,18.8 -1.6,38 5.5,56 5.1,12.9 14.4,24.4 27.5,29.8 11.3,4.6 23.5,4.2 35.5,2.3 0.7,18.1 3.3,36.9 13.8,51.8 14.9,21.1 43.2,24.6 67.2,26.3 31.1,2.3 62.4,-0.8 93.5,2.4 27.2,2.8 53.6,11.5 77.1,25.4 15,8.9 28.7,19.9 40.7,32.4 0.7,0.8 1.4,1.4 2.1,2.2 0.7,-0.7 1.4,-1.5 2,-2.2 27.9,-29.1 64.8,-49.2 104.8,-56.1 31.5,-5.4 63.6,-2.4 95.3,-3.5 24.3,-0.9 55.8,-2.3 73.7,-21.2 14.4,-15.2 17.7,-36.9 18.5,-57.6 11.5,1.9 23.3,2.3 34.3,-1.8 13.7,-5.2 23.4,-16.9 28.7,-30.3 6.9,-17.5 4.4,-36.2 5.5,-54.6 0.8,-12.8 4.6,-27.4 13.9,-36.4 0.8,-0.8 1.7,-1.6 2.6,-2.3 -1,-0.6 -1.8,-1.4 -2.6,-2.2 z M 859.5,533 c -0.7,18.7 -6.7,38.4 -22.8,49.6 -12.5,8.7 -27.6,8.7 -42.1,6.3 -1,-0.2 -2,-0.3 -3,-0.5 0,1 -0.1,2 -0.1,3 -0.8,20.3 -3.9,42.1 -18.4,56.7 -10.7,10.7 -25.9,14.4 -40.4,16.8 -15.7,2.6 -31.6,3 -47.5,3.1 -29,0.1 -58.4,-1.4 -87,4.9 -23.7,5.2 -46.5,15 -66.6,28.6 -11.5,7.7 -22.1,16.7 -31.6,26.7 -24,-25 -54.5,-43.5 -88.1,-52.8 -27.5,-7.6 -56,-7.5 -84.3,-7.4 -15.6,0.1 -31.2,0.2 -46.7,-1.3 -14.9,-1.4 -31.6,-3.6 -44.7,-11.3 -22.1,-13 -26.7,-39.7 -27.7,-63.9 0,-1 -0.1,-2 -0.1,-3 -1,0.2 -2,0.4 -3,0.5 -14.2,2.3 -28.9,2.5 -41.2,-5.7 -16.6,-11.1 -22.9,-31.2 -23.7,-50.2 -0.8,-20.3 1.2,-51 -14.6,-66.4 15.8,-15.4 13.8,-46.2 14.6,-66.4 0.8,-18.7 6.8,-38.4 22.8,-49.6 12.6,-8.8 27.6,-8.7 42.2,-6.3 1,0.2 2,0.3 3,0.5 0,-1 0.1,-2 0.1,-3.1 0.7,-20.3 3.9,-42.1 18.4,-56.7 10.7,-10.7 25.9,-14.4 40.4,-16.8 15.7,-2.6 31.6,-3 47.5,-3.1 29.1,-0.1 58.4,1.4 87.1,-4.9 23.7,-5.2 46.4,-15 66.6,-28.6 11.3,-7.7 21.9,-16.7 31.4,-26.7 24,25 54.5,43.5 88.1,52.8 27.5,7.6 56,7.5 84.3,7.4 15.6,-0.1 31.2,-0.2 46.7,1.3 14.9,1.4 31.5,3.6 44.6,11.3 22.1,13 26.7,39.6 27.7,63.9 0,1 0.1,2 0.1,3 1,-0.2 2,-0.4 3,-0.5 14.2,-2.3 28.9,-2.5 41.2,5.7 16.7,11.1 22.9,31.1 23.7,50.2 0.8,20.3 -1.1,51 14.6,66.4 -15.7,15.4 -13.7,46.2 -14.5,66.5 z"
             id="path15"
             inkscape:connector-curvature="0"
             style="fill:#b9921d" /><path
             class="st1"
             d="m 859.5,400.1 c -0.8,-19.1 -7,-39.1 -23.7,-50.2 -12.3,-8.2 -27,-8 -41.2,-5.7 -1,0.2 -2,0.3 -3,0.5 0,-1 -0.1,-2 -0.1,-3 -1,-24.3 -5.5,-50.9 -27.7,-63.9 -13.1,-7.7 -29.8,-9.9 -44.6,-11.3 -15.5,-1.5 -31.1,-1.4 -46.7,-1.3 -28.3,0.2 -56.8,0.2 -84.3,-7.4 C 554.6,248.5 524,230 500,205 c -9.6,9.9 -20.1,18.9 -31.6,26.7 -20.1,13.6 -42.9,23.4 -66.6,28.6 -28.6,6.2 -58,4.8 -87.1,4.9 -15.9,0 -31.8,0.5 -47.5,3.1 -14.5,2.4 -29.7,6 -40.4,16.8 -14.5,14.6 -17.7,36.3 -18.4,56.7 0,1 -0.1,2 -0.1,3.1 -1,-0.2 -2,-0.4 -3,-0.5 -14.6,-2.4 -29.6,-2.4 -42.2,6.3 -16,11.2 -22,30.9 -22.8,49.6 -0.8,20.3 1.2,51 -14.6,66.4 15.8,15.4 13.8,46.2 14.6,66.4 0.8,19 7.1,39.1 23.7,50.2 12.3,8.2 27,8 41.2,5.7 1,-0.2 2,-0.3 3,-0.5 0,1 0.1,2 0.1,3 1,24.3 5.5,50.9 27.7,63.9 13.1,7.7 29.8,9.9 44.7,11.3 15.5,1.4 31.1,1.4 46.7,1.3 28.3,-0.2 56.8,-0.2 84.3,7.4 33.6,9.3 64.1,27.8 88.1,52.8 9.5,-10 20.1,-18.9 31.6,-26.7 20.1,-13.6 42.8,-23.4 66.6,-28.6 28.6,-6.2 58,-4.8 87,-4.9 15.9,-0.1 31.8,-0.5 47.5,-3.1 14.5,-2.4 29.7,-6 40.4,-16.8 14.6,-14.6 17.7,-36.4 18.4,-56.7 0,-1 0.1,-2 0.1,-3 1,0.2 2,0.3 3,0.5 14.6,2.4 29.6,2.4 42.1,-6.3 16.1,-11.2 22.1,-30.9 22.8,-49.6 0.8,-20.3 -1.1,-51 14.6,-66.4 -15.6,-15.5 -13.6,-46.2 -14.4,-66.5 z m -57.2,68.2 c -7.4,6.9 -10.5,18 -11.1,27.7 -0.8,14 1.1,28.2 -4.4,41.5 -4.2,10.2 -12,19.1 -23,23 -8.9,3.2 -18.3,2.8 -27.6,1.4 -0.6,15.7 -3.3,32.2 -14.9,43.8 -14.3,14.3 -39.7,15.4 -59.2,16.1 -25.5,0.9 -51.2,-1.4 -76.5,2.7 -32.1,5.2 -61.7,20.6 -84.1,42.6 -0.6,0.5 -1.1,1.1 -1.7,1.7 -0.5,-0.6 -1.1,-1.1 -1.7,-1.7 -9.7,-9.6 -20.6,-17.9 -32.7,-24.7 -18.9,-10.6 -40,-17.2 -61.9,-19.3 -25,-2.4 -50.1,-0.1 -75,-1.8 -19.2,-1.3 -41.9,-3.9 -53.9,-20 -8.4,-11.3 -10.5,-25.6 -11.1,-39.4 -9.6,1.5 -19.4,1.8 -28.5,-1.7 -10.5,-4.1 -18,-12.8 -22.1,-22.7 -5.7,-13.7 -3.4,-28.2 -4.5,-42.6 -0.7,-9.4 -3.9,-20 -11,-26.6 -0.7,-0.6 -1.4,-1.2 -2.1,-1.7 0.7,-0.5 1.4,-1.1 2.1,-1.7 7.4,-6.8 10.5,-18 11.1,-27.7 0.8,-14 -1.2,-28.1 4.4,-41.5 4.2,-10.2 12,-19.1 23,-23 8.8,-3.2 18.3,-2.8 27.5,-1.4 0.7,-15.7 3.3,-32.2 14.9,-43.8 14.4,-14.3 39.7,-15.4 59.2,-16.1 25.5,-0.8 51.2,1.4 76.5,-2.7 32.1,-5.2 61.7,-20.6 84.1,-42.6 0.5,-0.6 1.1,-1.1 1.6,-1.7 0.6,0.5 1.1,1.1 1.7,1.7 9.6,9.6 20.6,17.9 32.7,24.7 18.9,10.6 40,17.2 61.9,19.3 25,2.4 50.1,0 75,1.7 19.2,1.3 41.9,4 53.9,20.1 8.4,11.3 10.5,25.6 11.1,39.4 9.6,-1.4 19.4,-1.7 28.5,1.8 10.5,4.1 17.9,12.8 22,22.7 5.7,13.7 3.4,28.2 4.5,42.5 0.7,9.4 3.9,20 11,26.6 0.7,0.6 1.4,1.2 2.1,1.7 -0.4,0.5 -1.1,1.1 -1.8,1.7 z"
             id="path17"
             inkscape:connector-curvature="0"
             style="fill:#b9921d" /></g><g
           id="g19"><path
             class="noFillSVG"
             d="m 769.4,377.9 c -9.9,-6.2 -21.7,-6.1 -33.1,-4.3 -0.8,0.1 -1.6,0.3 -2.4,0.4 0,-0.8 -0.1,-1.5 -0.1,-2.3 -0.8,-18.5 -4.4,-38.7 -22.2,-48.6 -10.5,-5.9 -23.9,-7.5 -35.8,-8.6 -12.5,-1.1 -25,-1.1 -37.5,-1 -22.7,0.1 -45.6,0.2 -67.6,-5.6 -26.9,-7 -51.4,-21.2 -70.7,-40.1 -7.7,7.6 -16.2,14.4 -25.4,20.3 -16.1,10.3 -34.4,17.8 -53.4,21.7 -22.9,4.7 -46.5,3.6 -69.8,3.7 -12.7,0 -25.5,0.4 -38.1,2.3 -11.6,1.8 -23.8,4.6 -32.4,12.7 -11.7,11.1 -14.2,27.6 -14.8,43.1 0,0.8 -0.1,1.6 -0.1,2.3 -0.8,-0.1 -1.6,-0.3 -2.4,-0.4 -11.7,-1.8 -23.7,-1.8 -33.8,4.8 -12.9,8.5 -17.7,23.5 -18.3,37.7 -0.7,15.4 0.9,38.8 -11.7,50.5 12.7,11.7 11.1,35.1 11.7,50.5 0.6,14.5 5.7,29.7 19,38.2 9.9,6.2 21.7,6.1 33.1,4.3 0.8,-0.1 1.6,-0.3 2.4,-0.4 0,0.8 0.1,1.5 0.1,2.3 0.8,18.5 4.4,38.7 22.2,48.6 10.5,5.9 23.9,7.5 35.8,8.6 12.5,1.1 25,1.1 37.5,1 22.7,-0.1 45.6,-0.2 67.6,5.6 26.9,7 51.4,21.2 70.7,40.1 7.7,-7.6 16.2,-14.4 25.4,-20.3 16.1,-10.3 34.4,-17.8 53.4,-21.7 22.9,-4.7 46.5,-3.6 69.8,-3.7 12.7,0 25.5,-0.4 38.1,-2.3 11.6,-1.8 23.8,-4.6 32.4,-12.7 11.7,-11.1 14.2,-27.6 14.8,-43.1 0,-0.8 0.1,-1.6 0.1,-2.3 0.8,0.1 1.6,0.3 2.4,0.4 11.7,1.8 23.7,1.8 33.8,-4.8 12.9,-8.5 17.7,-23.5 18.3,-37.7 0.7,-15.4 -0.9,-38.8 11.7,-50.5 -12.7,-11.7 -11.1,-35.1 -11.7,-50.5 -0.6,-14.6 -5.6,-29.8 -19,-38.2 z"
             id="path21"
             inkscape:connector-curvature="0"
             style="fill:none" /><path
             class="st1"
             d="m 802.3,464.8 c -7.1,-6.6 -10.3,-17.2 -11,-26.6 -1.1,-14.3 1.2,-28.9 -4.5,-42.5 -4.1,-9.9 -11.5,-18.6 -22,-22.7 -9.1,-3.5 -18.9,-3.2 -28.5,-1.8 -0.5,-13.8 -2.6,-28.1 -11.1,-39.4 -12,-16.1 -34.7,-18.7 -53.9,-20.1 -25,-1.7 -50.1,0.7 -75,-1.7 -21.8,-2.1 -43,-8.7 -61.9,-19.3 -12.1,-6.8 -23.1,-15.1 -32.7,-24.7 -0.6,-0.6 -1.1,-1.1 -1.7,-1.7 -0.5,0.5 -1.1,1.1 -1.6,1.7 -22.4,22.1 -52,37.4 -84.1,42.6 -25.3,4.1 -51,1.8 -76.5,2.7 -19.5,0.7 -44.8,1.7 -59.2,16.1 -11.5,11.5 -14.2,28.1 -14.9,43.8 -9.3,-1.4 -18.7,-1.7 -27.5,1.4 -11,3.9 -18.8,12.9 -23,23 -5.5,13.3 -3.5,27.5 -4.4,41.5 -0.6,9.7 -3.7,20.9 -11.1,27.7 -0.7,0.6 -1.4,1.2 -2.1,1.7 0.7,0.5 1.4,1.1 2.1,1.7 7.1,6.6 10.4,17.2 11,26.6 1.1,14.3 -1.2,28.9 4.5,42.6 4.1,9.9 11.5,18.6 22.1,22.7 9.1,3.5 18.9,3.2 28.5,1.7 0.6,13.8 2.7,28.1 11.1,39.4 12,16.1 34.7,18.7 53.9,20 25,1.7 50.1,-0.6 75,1.8 21.8,2.1 43,8.7 61.9,19.3 12.1,6.8 23,15.1 32.7,24.7 0.6,0.5 1.1,1.1 1.7,1.7 0.5,-0.6 1.1,-1.1 1.7,-1.7 22.4,-22.1 52,-37.4 84.1,-42.6 25.3,-4.1 51,-1.8 76.5,-2.7 19.5,-0.6 44.8,-1.7 59.2,-16.1 11.6,-11.5 14.2,-28.1 14.9,-43.8 9.3,1.4 18.7,1.7 27.6,-1.4 11,-3.9 18.7,-12.9 23,-23 5.5,-13.3 3.6,-27.5 4.4,-41.5 0.6,-9.7 3.7,-20.8 11.1,-27.7 0.7,-0.6 1.4,-1.2 2.1,-1.7 -1,-0.5 -1.7,-1.1 -2.4,-1.7 z m -13.9,52.3 c -0.6,14.2 -5.4,29.2 -18.3,37.7 -10.1,6.7 -22.1,6.6 -33.8,4.8 -0.8,-0.1 -1.6,-0.2 -2.4,-0.4 0,0.8 0,1.6 -0.1,2.4 -0.6,15.5 -3.1,32 -14.8,43.1 -8.6,8.2 -20.8,11 -32.4,12.7 -12.6,2 -25.4,2.3 -38.1,2.4 -23.3,0.1 -46.9,-1 -69.9,3.7 -19,3.9 -37.3,11.4 -53.4,21.8 -9.2,5.9 -17.7,12.7 -25.4,20.3 -19.3,-19 -43.7,-33.1 -70.7,-40.1 -22.1,-5.8 -44.9,-5.8 -67.7,-5.6 -12.5,0.1 -25,0.1 -37.5,-1 -11.9,-1.1 -25.3,-2.7 -35.8,-8.6 -17.8,-9.9 -21.4,-30.1 -22.2,-48.6 0,-0.8 -0.1,-1.5 -0.1,-2.3 -0.8,0.2 -1.6,0.3 -2.4,0.4 -11.4,1.7 -23.2,1.9 -33.1,-4.3 -13.4,-8.4 -18.4,-23.7 -19,-38.2 -0.7,-15.4 0.9,-38.8 -11.7,-50.5 12.7,-11.7 11.1,-35.1 11.7,-50.5 0.6,-14.2 5.4,-29.2 18.3,-37.7 10.1,-6.7 22.1,-6.6 33.8,-4.8 0.8,0.1 1.6,0.2 2.4,0.4 0,-0.8 0.1,-1.5 0.1,-2.3 0.6,-15.5 3.1,-32 14.7,-43.1 8.6,-8.1 20.8,-10.9 32.4,-12.7 12.6,-1.9 25.4,-2.3 38.1,-2.3 23.3,-0.1 46.9,1 69.8,-3.7 19,-3.9 37.3,-11.4 53.4,-21.7 9.2,-5.9 17.7,-12.7 25.4,-20.3 19.2,19 43.7,33.1 70.6,40.1 22.1,5.8 44.9,5.7 67.7,5.6 12.5,-0.1 25,-0.1 37.5,1 11.9,1.1 25.3,2.7 35.8,8.6 17.8,9.9 21.4,30.1 22.2,48.6 0,0.8 0.1,1.6 0.1,2.3 0.8,-0.1 1.6,-0.3 2.4,-0.4 11.4,-1.7 23.2,-1.9 33.1,4.3 13.3,8.4 18.4,23.7 19,38.2 0.6,15.4 -0.9,38.8 11.7,50.5 -12.3,11.4 -10.7,34.8 -11.4,50.2 z"
             id="path23"
             inkscape:connector-curvature="0"
             style="fill:#b9921d" /></g><g
           id="g25"><path
             class="noFillSVG"
             d="m 779.6,371.4 c -10.2,-6.7 -22.5,-6.5 -34.3,-4.7 -0.8,0.1 -1.7,0.3 -2.5,0.4 0,-0.8 -0.1,-1.7 -0.1,-2.5 -0.8,-19.8 -4.6,-41.5 -23,-52.1 -10.9,-6.3 -24.8,-8.1 -37.2,-9.2 -12.9,-1.2 -25.9,-1.1 -38.9,-1.1 -23.6,0.1 -47.3,0.2 -70.2,-6 -27.9,-7.6 -53.4,-22.7 -73.3,-43 -7.9,8.1 -16.8,15.4 -26.3,21.8 -16.8,11.1 -35.7,19.1 -55.4,23.3 -23.8,5.1 -48.3,3.9 -72.5,4 -13.2,0 -26.5,0.4 -39.6,2.5 -12,1.9 -24.7,4.9 -33.6,13.7 -12.1,11.9 -14.7,29.6 -15.3,46.2 0,0.8 -0.1,1.7 -0.1,2.5 -0.8,-0.1 -1.7,-0.3 -2.5,-0.4 -12.1,-1.9 -24.6,-2 -35.1,5.1 -13.4,9.1 -18.4,25.2 -19,40.4 -0.7,16.5 1,41.6 -12.2,54.2 13.1,12.6 11.5,37.6 12.2,54.2 0.6,15.5 5.9,31.9 19.7,40.9 10.2,6.7 22.5,6.5 34.3,4.7 0.8,-0.1 1.7,-0.3 2.5,-0.4 0,0.8 0.1,1.7 0.1,2.5 0.8,19.8 4.6,41.5 23,52.1 10.9,6.3 24.8,8.1 37.2,9.2 12.9,1.2 25.9,1.1 38.9,1.1 23.6,-0.1 47.3,-0.2 70.2,6 27.9,7.6 53.4,22.7 73.3,43 7.9,-8.1 16.8,-15.4 26.3,-21.8 16.8,-11 35.8,-19 55.5,-23.2 23.8,-5.1 48.3,-3.9 72.5,-4 13.2,0 26.5,-0.4 39.6,-2.5 12,-1.9 24.7,-4.9 33.6,-13.7 12.1,-11.9 14.7,-29.6 15.3,-46.2 0,-0.8 0.1,-1.7 0.1,-2.5 0.8,0.1 1.7,0.3 2.5,0.4 12.1,1.9 24.6,2 35.1,-5.1 13.4,-9.1 18.4,-25.2 19,-40.4 0.7,-16.5 -1,-41.6 12.2,-54.2 -13.1,-12.6 -11.5,-37.6 -12.2,-54.2 -0.7,-15.6 -5.9,-31.9 -19.8,-41 z"
             id="path27"
             inkscape:connector-curvature="0"
             style="fill:none" /><path
             class="st2"
             d="m 813.7,464.7 c -7.4,-7.1 -10.7,-18.5 -11.4,-28.6 -1.1,-15.3 1.3,-31 -4.6,-45.6 -4.3,-10.6 -11.9,-19.9 -22.9,-24.3 -9.4,-3.8 -19.6,-3.5 -29.6,-1.9 -0.6,-14.8 -2.7,-30.1 -11.5,-42.2 -12.4,-17.3 -36,-20.1 -55.9,-21.5 -25.9,-1.8 -52,0.7 -77.9,-1.9 -22.7,-2.3 -44.6,-9.4 -64.2,-20.7 -12.5,-7.3 -23.9,-16.2 -33.9,-26.5 -0.6,-0.6 -1.2,-1.2 -1.8,-1.8 -0.6,0.6 -1.1,1.2 -1.7,1.8 -23.2,23.7 -54,40.1 -87.3,45.7 -26.2,4.4 -53,1.9 -79.4,2.8 -20.2,0.7 -46.5,1.9 -61.4,17.3 -12,12.4 -14.7,30.2 -15.4,47 -9.6,-1.5 -19.4,-1.9 -28.6,1.5 -11.4,4.2 -19.5,13.8 -23.9,24.7 -5.8,14.3 -3.7,29.5 -4.5,44.5 -0.6,10.4 -3.9,22.4 -11.5,29.7 -0.7,0.7 -1.4,1.3 -2.2,1.9 0.8,0.6 1.5,1.2 2.2,1.9 7.4,7.1 10.8,18.5 11.4,28.6 1.1,15.4 -1.3,31 4.6,45.6 4.3,10.6 12,19.9 22.9,24.3 9.4,3.8 19.6,3.5 29.6,1.9 0.6,14.8 2.8,30.2 11.5,42.2 12.4,17.3 36,20.1 55.9,21.5 25.9,1.8 52,-0.7 77.9,1.9 22.7,2.3 44.6,9.4 64.2,20.7 12.5,7.3 23.9,16.2 33.9,26.5 0.6,0.6 1.2,1.2 1.8,1.8 0.6,-0.6 1.1,-1.2 1.7,-1.8 23.2,-23.7 53.9,-40.1 87.3,-45.7 26.2,-4.4 52.9,-1.9 79.4,-2.9 20.2,-0.7 46.5,-1.9 61.4,-17.2 12,-12.4 14.8,-30.2 15.4,-47 9.6,1.5 19.4,1.9 28.6,-1.5 11.4,-4.2 19.5,-13.8 23.8,-24.7 5.8,-14.3 3.7,-29.5 4.6,-44.5 0.6,-10.4 3.8,-22.3 11.5,-29.7 0.7,-0.6 1.4,-1.3 2.2,-1.9 -0.8,-0.6 -1.5,-1.3 -2.2,-1.9 z m -14.4,56 c -0.6,15.2 -5.6,31.3 -19,40.4 -10.4,7.1 -23,7.1 -35.1,5.1 -0.8,-0.1 -1.7,-0.3 -2.5,-0.4 0,0.8 0,1.7 -0.1,2.5 -0.6,16.6 -3.2,34.3 -15.3,46.2 -8.9,8.8 -21.5,11.8 -33.6,13.7 -13.1,2.1 -26.4,2.5 -39.6,2.5 -24.2,0.1 -48.7,-1.1 -72.5,3.9 -19.6,4.4 -38.6,12.4 -55.3,23.5 -9.6,6.3 -18.4,13.6 -26.3,21.7 -20,-20.4 -45.4,-35.5 -73.3,-43 -22.9,-6.2 -46.6,-6.2 -70.2,-6 -12.9,0.1 -26,0.1 -38.9,-1.1 -12.4,-1.1 -26.3,-2.9 -37.2,-9.2 -18.5,-10.6 -22.2,-32.3 -23,-52.1 0,-0.8 -0.1,-1.6 -0.1,-2.5 -0.8,0.2 -1.7,0.3 -2.5,0.5 -11.8,1.9 -24.1,2 -34.3,-4.7 -13.9,-9 -19.1,-25.4 -19.7,-40.9 -0.7,-16.5 1,-41.6 -12.2,-54.2 13.1,-12.5 11.5,-37.6 12.2,-54.2 0.6,-15.2 5.6,-31.3 19,-40.4 10.4,-7.1 23,-7.1 35.1,-5.1 0.8,0.1 1.7,0.3 2.5,0.4 0,-0.8 0.1,-1.6 0.1,-2.5 0.6,-16.6 3.2,-34.3 15.3,-46.2 8.9,-8.7 21.6,-11.7 33.6,-13.7 13.1,-2.1 26.4,-2.5 39.6,-2.5 24.2,-0.1 48.7,1.1 72.5,-4 19.8,-4.2 38.7,-12.2 55.4,-23.3 9.6,-6.3 18.4,-13.6 26.4,-21.7 20,20.4 45.4,35.5 73.3,43 22.9,6.2 46.6,6.1 70.2,6 13,-0.1 26,-0.1 38.9,1.1 12.4,1.1 26.2,2.9 37.2,9.2 18.5,10.6 22.2,32.3 23,52.1 0,0.8 0.1,1.7 0.1,2.5 0.8,-0.1 1.7,-0.3 2.5,-0.4 11.8,-1.9 24.1,-2 34.3,4.7 13.9,9 19.1,25.4 19.7,40.9 0.7,16.5 -1,41.6 12.2,54.2 -13.3,12.4 -11.7,37.5 -12.4,54 z"
             id="path29"
             inkscape:connector-curvature="0"
             style="fill:#ffffff" /></g></g></g></switch></svg>