<?xml version="1.0" encoding="UTF-8" standalone="no"?>
<svg
   xmlns:dc="http://purl.org/dc/elements/1.1/"
   xmlns:cc="http://creativecommons.org/ns#"
   xmlns:rdf="http://www.w3.org/1999/02/22-rdf-syntax-ns#"
   xmlns:svg="http://www.w3.org/2000/svg"
   xmlns="http://www.w3.org/2000/svg"
   xmlns:sodipodi="http://sodipodi.sourceforge.net/DTD/sodipodi-0.dtd"
   xmlns:inkscape="http://www.inkscape.org/namespaces/inkscape"
   version="1.1"
   id="Layer_1"
   x="0px"
   y="0px"
   viewBox="81.36296844482422 227.99746704101562 837.274169921875 544.0050048828125"
   width="100%"
   height="100%"
   style="enable-background:new 0 0 1000 1000;"
   xml:space="preserve"
   ><style
     type="text/css"
     id="style3">
	.noFillSVG{fill:none;}
	.st1{fill:#B9921D;}
	.st2{fill:none;stroke:#B9921D;stroke-width:0;stroke-linecap:round;stroke-linejoin:round;}
</style><switch
     id="switch5"
     transform="translate(8.0286272,24.75)"><g
       id="g7"><g
         id="g9"><g
           id="g11"><g
             id="g13"><path
               class="noFillSVG"
               d="m 389.5,230.7 c -4.4,2.3 -6.2,7.3 -2.5,11.2 3.4,3.6 8.7,3.1 13,1.7 6.6,-2.2 12.5,-6.8 17.7,-11.3 0.1,-0.1 0.2,-0.2 0.4,-0.3 -9.3,-3.8 -20.4,-5.6 -28.6,-1.3 z"
               id="path15"
               inkscape:connector-curvature="0"
               style="fill:none" /><path
               class="st1"
               d="m 374.6,233.8 c -36,0 -72,0 -108,0 -1.4,0 -1.4,2.1 0,2.1 36,0 72,0 108,0 1.3,0 1.3,-2.1 0,-2.1 z"
               id="path17"
               inkscape:connector-curvature="0"
               style="fill:#b9921d" /><path
               class="st1"
               d="m 489.1,222.1 c -1.7,-8.8 -8.2,-15.5 -16.8,-17.8 -21.7,-5.7 -37.9,13 -52.5,26.1 -3.9,-1.6 -8.1,-2.8 -12.4,-3.4 -7.3,-1 -30.5,0.1 -23.8,13.7 7.1,14.6 27.5,-0.1 34.9,-6.4 0.6,-0.5 1.1,-1 1.7,-1.5 2.7,1.2 5.3,2.6 7.4,4 6.4,4.1 20.5,14.1 25.5,2.2 3.6,-8.6 -6.6,-11.1 -12.8,-9.2 -1.3,0.4 -0.7,2.4 0.6,2 1.9,-0.6 5,-1.4 7,-0.5 6,2.8 3.2,10.1 -2.7,10.9 -5.8,0.8 -10.6,-3.2 -15,-6.2 -2.7,-1.8 -5.5,-3.4 -8.4,-4.7 12.7,-11.6 25.6,-26.7 44.1,-25.8 11.6,0.5 21.2,8.8 21.4,20.8 0.1,5.9 -2.8,12.2 -8.1,15.2 -2.7,1.5 -5.8,1.9 -8.8,1.1 -1.5,-0.4 -3.1,-1.3 -4.3,-2.3 -0.5,-0.6 -1,-1.2 -1.6,-1.9 -2.6,-4.1 -0.9,-6.4 5.1,-6.9 0.9,1 2.4,-0.5 1.5,-1.5 -5.3,-6 -11.5,2.1 -9.2,8 2.6,6.5 10.9,8.7 17,6 8.4,-3.6 11.8,-13.6 10.2,-21.9 z m -71.4,10.2 c -5.2,4.5 -11.1,9.1 -17.7,11.3 -4.3,1.4 -9.6,1.9 -13,-1.7 -3.7,-3.9 -1.9,-8.9 2.5,-11.2 8.2,-4.3 19.3,-2.5 28.5,1.2 -0.1,0.1 -0.2,0.3 -0.3,0.4 z"
               id="path19"
               inkscape:connector-curvature="0"
               style="fill:#b9921d" /><path
               class="st1"
               d="m 258.5,231.2 c -1.5,-0.8 -3.8,-0.6 -4.9,0.7 -0.9,1 -0.8,2.5 0,3.6 0.2,0.4 0.5,0.7 0.8,1 1.5,1.1 3.6,0.7 4.7,-0.7 1.2,-1.5 1.1,-3.6 -0.6,-4.6 z m -2.2,1.9 c 0,0 0,-0.1 0.1,-0.1 -0.1,0 -0.1,0.1 -0.1,0.1 z"
               id="path21"
               inkscape:connector-curvature="0"
               style="fill:#b9921d" /><path
               class="st2"
               d="m 256.3,233.1 c 0,0 0,-0.1 0.1,-0.1"
               id="path23"
               inkscape:connector-curvature="0"
               style="fill:none;stroke:#b9921d;stroke-width:0;stroke-linecap:round;stroke-linejoin:round" /></g><g
             id="g25"><path
               class="noFillSVG"
               d="m 594.3,230.7 c 4.4,2.3 6.2,7.3 2.5,11.2 -3.4,3.6 -8.7,3.1 -13,1.7 -6.6,-2.2 -12.5,-6.8 -17.7,-11.3 -0.1,-0.1 -0.2,-0.2 -0.4,-0.3 9.3,-3.8 20.4,-5.6 28.6,-1.3 z"
               id="path27"
               inkscape:connector-curvature="0"
               style="fill:none" /><path
               class="st1"
               d="m 609.3,233.8 c 36,0 72,0 108,0 1.4,0 1.4,2.1 0,2.1 -36,0 -72,0 -108,0 -1.4,0 -1.4,-2.1 0,-2.1 z"
               id="path29"
               inkscape:connector-curvature="0"
               style="fill:#b9921d" /><path
               class="st1"
               d="m 504.8,244 c 6,2.6 14.4,0.5 17,-6 2.3,-5.9 -3.8,-14 -9.2,-8 -0.9,1 0.6,2.5 1.5,1.5 6,0.5 7.7,2.7 5.1,6.9 -0.5,0.6 -1,1.2 -1.6,1.9 -1.2,1.1 -2.8,1.9 -4.3,2.3 -3,0.8 -6.1,0.4 -8.8,-1.1 -5.3,-3 -8.2,-9.3 -8.1,-15.2 0.2,-12 9.8,-20.2 21.4,-20.8 18.5,-0.9 31.4,14.2 44.1,25.8 -2.9,1.3 -5.7,2.9 -8.4,4.7 -4.5,3.1 -9.3,7 -15,6.2 -5.9,-0.8 -8.7,-8.1 -2.7,-10.9 2,-0.9 5.1,-0.1 7,0.5 1.3,0.4 1.9,-1.6 0.6,-2 -6.2,-1.9 -16.4,0.5 -12.8,9.2 5,11.9 19.1,2 25.5,-2.2 2.2,-1.4 4.7,-2.8 7.4,-4 0.6,0.5 1.1,1 1.7,1.5 7.4,6.3 27.8,21 34.9,6.4 6.6,-13.6 -16.5,-14.7 -23.8,-13.7 -4.3,0.6 -8.4,1.7 -12.4,3.4 -14.6,-13.1 -30.8,-31.8 -52.5,-26.1 -8.6,2.3 -15.1,9 -16.8,17.8 -1.5,8.3 2,18.3 10.2,21.9 z m 61,-12.1 c 9.3,-3.7 20.4,-5.5 28.5,-1.2 4.4,2.3 6.2,7.3 2.5,11.2 -3.4,3.6 -8.7,3.1 -13,1.7 -6.6,-2.2 -12.5,-6.8 -17.7,-11.3 -0.1,-0.1 -0.2,-0.3 -0.3,-0.4 z"
               id="path31"
               inkscape:connector-curvature="0"
               style="fill:#b9921d" /><path
               class="st1"
               d="m 724.8,235.8 c 1.2,1.4 3.2,1.9 4.7,0.7 0.4,-0.3 0.6,-0.6 0.8,-1 0.8,-1 0.8,-2.6 0,-3.6 -1.1,-1.3 -3.5,-1.5 -4.9,-0.7 -1.8,1 -1.8,3.1 -0.6,4.6 z m 2.7,-2.8 c 0,0 0.1,0.1 0.1,0.1 0,0 -0.1,-0.1 -0.1,-0.1 z"
               id="path33"
               inkscape:connector-curvature="0"
               style="fill:#b9921d" /><path
               class="st2"
               d="m 727.6,233.1 c 0,0 0,-0.1 -0.1,-0.1"
               id="path35"
               inkscape:connector-curvature="0"
               style="fill:none;stroke:#b9921d;stroke-width:0;stroke-linecap:round;stroke-linejoin:round" /></g></g><g
           id="g37"><g
             id="g39"><path
               class="noFillSVG"
               d="m 594.3,719.8 c 4.4,-2.3 6.2,-7.3 2.5,-11.2 -3.4,-3.6 -8.7,-3.1 -13,-1.7 -6.6,2.2 -12.5,6.8 -17.7,11.3 -0.1,0.1 -0.2,0.2 -0.4,0.3 9.3,3.7 20.4,5.5 28.6,1.3 z"
               id="path41"
               inkscape:connector-curvature="0"
               style="fill:none" /><path
               class="st1"
               d="m 609.3,716.7 c 36,0 72,0 108,0 1.4,0 1.4,-2.1 0,-2.1 -36,0 -72,0 -108,0 -1.4,-0.1 -1.4,2.1 0,2.1 z"
               id="path43"
               inkscape:connector-curvature="0"
               style="fill:#b9921d" /><path
               class="st1"
               d="m 494.7,728.4 c 1.7,8.8 8.2,15.5 16.8,17.8 21.7,5.7 37.9,-13 52.5,-26.1 3.9,1.6 8.1,2.8 12.4,3.4 7.3,1 30.5,-0.1 23.8,-13.7 -7.1,-14.6 -27.5,0.1 -34.9,6.4 -0.6,0.5 -1.1,1 -1.7,1.5 -2.7,-1.2 -5.3,-2.6 -7.4,-4 -6.4,-4.1 -20.5,-14.1 -25.5,-2.2 -3.6,8.6 6.6,11.1 12.8,9.2 1.3,-0.4 0.7,-2.4 -0.6,-2 -1.9,0.6 -5,1.4 -7,0.5 -6,-2.8 -3.2,-10.1 2.7,-10.9 5.8,-0.8 10.6,3.2 15,6.2 2.7,1.8 5.5,3.4 8.4,4.7 -12.7,11.6 -25.6,26.7 -44.1,25.8 -11.6,-0.5 -21.2,-8.8 -21.4,-20.8 -0.1,-5.9 2.8,-12.2 8.1,-15.2 2.7,-1.5 5.8,-1.9 8.8,-1.1 1.5,0.4 3.1,1.3 4.3,2.3 0.5,0.6 1,1.2 1.6,1.9 2.6,4.1 0.9,6.4 -5.1,6.9 -0.9,-1 -2.4,0.5 -1.5,1.5 5.3,6 11.5,-2.1 9.2,-8 -2.6,-6.5 -10.9,-8.7 -17,-6 -8.3,3.6 -11.8,13.5 -10.2,21.9 z m 71.4,-10.2 c 5.2,-4.5 11.1,-9.1 17.7,-11.3 4.3,-1.4 9.6,-1.9 13,1.7 3.7,3.9 1.9,8.9 -2.5,11.2 -8.2,4.3 -19.3,2.5 -28.5,-1.2 0.1,-0.2 0.2,-0.3 0.3,-0.4 z"
               id="path45"
               inkscape:connector-curvature="0"
               style="fill:#b9921d" /><path
               class="st1"
               d="m 725.4,719.2 c 1.5,0.8 3.8,0.6 4.9,-0.7 0.9,-1 0.8,-2.5 0,-3.6 -0.2,-0.4 -0.5,-0.7 -0.8,-1 -1.5,-1.1 -3.6,-0.7 -4.7,0.7 -1.2,1.5 -1.2,3.7 0.6,4.6 z m 2.2,-1.9 c 0,0 0,0.1 -0.1,0.1 0,0 0.1,0 0.1,-0.1 z"
               id="path47"
               inkscape:connector-curvature="0"
               style="fill:#b9921d" /><path
               class="st2"
               d="m 727.6,717.3 c 0,0 0,0.1 -0.1,0.1"
               id="path49"
               inkscape:connector-curvature="0"
               style="fill:none;stroke:#b9921d;stroke-width:0;stroke-linecap:round;stroke-linejoin:round" /></g><g
             id="g51"><path
               class="noFillSVG"
               d="m 389.5,719.8 c -4.4,-2.3 -6.2,-7.3 -2.5,-11.2 3.4,-3.6 8.7,-3.1 13,-1.7 6.6,2.2 12.5,6.8 17.7,11.3 0.1,0.1 0.2,0.2 0.4,0.3 -9.3,3.7 -20.4,5.5 -28.6,1.3 z"
               id="path53"
               inkscape:connector-curvature="0"
               style="fill:none" /><path
               class="st1"
               d="m 374.6,716.7 c -36,0 -72,0 -108,0 -1.4,0 -1.4,-2.1 0,-2.1 36,0 72,0 108,0 1.3,-0.1 1.3,2.1 0,2.1 z"
               id="path55"
               inkscape:connector-curvature="0"
               style="fill:#b9921d" /><path
               class="st1"
               d="m 479,706.5 c -6,-2.6 -14.4,-0.5 -17,6 -2.3,5.9 3.8,14 9.2,8 0.9,-1 -0.6,-2.5 -1.5,-1.5 -6,-0.5 -7.7,-2.7 -5.1,-6.9 0.5,-0.6 1,-1.2 1.6,-1.9 1.2,-1.1 2.8,-1.9 4.3,-2.3 3,-0.8 6.1,-0.4 8.8,1.1 5.3,3 8.2,9.3 8.1,15.2 -0.2,12 -9.8,20.2 -21.4,20.8 -18.5,0.9 -31.4,-14.2 -44.1,-25.8 2.9,-1.3 5.7,-2.9 8.4,-4.7 4.5,-3.1 9.3,-7 15,-6.2 5.9,0.8 8.7,8.1 2.7,10.9 -2,0.9 -5.1,0.1 -7,-0.5 -1.3,-0.4 -1.9,1.6 -0.6,2 6.2,1.9 16.4,-0.5 12.8,-9.2 -5,-11.9 -19.1,-2 -25.5,2.2 -2.2,1.4 -4.7,2.8 -7.4,4 -0.6,-0.5 -1.1,-1 -1.7,-1.5 -7.4,-6.3 -27.8,-21 -34.9,-6.4 -6.6,13.6 16.5,14.7 23.8,13.7 4.3,-0.6 8.4,-1.7 12.4,-3.4 14.6,13.1 30.8,31.8 52.5,26.1 8.6,-2.3 15.1,-9 16.8,-17.8 1.5,-8.4 -1.9,-18.3 -10.2,-21.9 z m -60.9,12 c -9.3,3.7 -20.4,5.5 -28.5,1.2 -4.4,-2.3 -6.2,-7.3 -2.5,-11.2 3.4,-3.6 8.7,-3.1 13,-1.7 6.6,2.2 12.5,6.8 17.7,11.3 0,0.2 0.1,0.3 0.3,0.4 z"
               id="path57"
               inkscape:connector-curvature="0"
               style="fill:#b9921d" /><path
               class="st1"
               d="m 259.1,714.7 c -1.2,-1.4 -3.2,-1.9 -4.7,-0.7 -0.4,0.3 -0.6,0.6 -0.8,1 -0.8,1 -0.8,2.6 0,3.6 1.1,1.3 3.5,1.5 4.9,0.7 1.7,-1 1.8,-3.2 0.6,-4.6 z m -2.8,2.8 c 0,0 -0.1,-0.1 -0.1,-0.1 0.1,0 0.1,0 0.1,0.1 z"
               id="path59"
               inkscape:connector-curvature="0"
               style="fill:#b9921d" /><path
               class="st2"
               d="m 256.3,717.3 c 0,0 0,0.1 0.1,0.1"
               id="path61"
               inkscape:connector-curvature="0"
               style="fill:none;stroke:#b9921d;stroke-width:0;stroke-linecap:round;stroke-linejoin:round" /></g></g><g
           id="g63"><path
             class="noFillSVG"
             d="m 866.4,413 0,122.9 c 0,1.1 -0.8,1.7 -1.6,1.9 -0.3,0.1 -0.6,0.1 -1,0.1 -16.2,-1.8 -32,4 -41.7,17 -7.1,9.6 -10.5,21.2 -15,32.1 -7.4,17.6 -19.2,32 -38.8,37.1 -5.2,1.3 -10.1,1.4 -15.5,1.8 -5.2,0.4 -3.8,2 -4.9,6.6 -2.3,9.4 -8.5,17.6 -16.1,23.8 -2.5,2 -5.1,3.7 -7.8,5.3 -2.6,1.5 -5.4,2.9 -8.3,4 l -448.2,0 c -2.9,-1.1 -5.6,-2.4 -8.3,-4 -2.7,-1.5 -5.3,-3.3 -7.8,-5.3 -7.6,-6.2 -13.8,-14.4 -16.1,-23.8 -1.1,-4.6 0.3,-6.2 -4.9,-6.6 -5.4,-0.4 -10.3,-0.5 -15.5,-1.8 -19.7,-5.1 -31.5,-19.5 -38.8,-37.1 -4.5,-10.8 -7.8,-22.5 -15,-32.1 -9.7,-13 -25.5,-18.9 -41.7,-17 -2,0.2 -2.4,-2 -1.5,-3.2 -0.1,-0.3 -0.3,-0.6 -0.3,-1 l 0,-120.1 c -0.5,-1.2 0,-2.9 1.7,-2.7 16.2,1.8 32,-4 41.7,-17 7.2,-9.6 10.5,-21.2 15,-32.1 7.4,-17.6 19.2,-32 38.8,-37.1 5.2,-1.3 10.1,-1.4 15.5,-1.8 5.2,-0.4 3.8,-2 4.9,-6.6 2.3,-9.4 8.5,-17.6 16.1,-23.8 2.5,-2 5.1,-3.7 7.8,-5.3 2.6,-1.5 5.4,-2.9 8.3,-4 l 448.3,0 c 2.9,1.1 5.6,2.4 8.3,4 2.7,1.5 5.3,3.3 7.8,5.3 7.6,6.2 13.8,14.4 16.1,23.8 1.1,4.6 -0.3,6.2 4.9,6.6 5.4,0.4 10.2,0.5 15.5,1.8 19.7,5.1 31.5,19.5 38.8,37.1 4.5,10.8 7.9,22.5 15,32.1 9.7,13 25.5,18.9 41.7,17 0.4,-0.1 0.7,0 1,0.2 0.8,0.2 1.6,0.8 1.6,1.9 z"
             id="path65"
             inkscape:connector-curvature="0"
             style="fill:none" /><path
             class="st1"
             d="m 908.9,401.2 c -0.3,-0.2 -0.7,-0.3 -1.1,-0.2 -18.1,2.1 -35.8,-4.7 -46.6,-19.7 -8,-11.1 -11.7,-24.5 -16.8,-37 -8.2,-20.3 -21.4,-37 -43.4,-42.9 -5.8,-1.6 -11.3,-1.6 -17.3,-2.1 -5.8,-0.5 -4.3,-2.4 -5.5,-7.7 -2.5,-10.9 -9.5,-20.4 -18,-27.5 -2.7,-2.3 -5.6,-4.3 -8.7,-6.1 -3,-1.8 -6.1,-3.3 -9.2,-4.6 l -501.4,0 c -3.2,1.3 -6.3,2.8 -9.2,4.6 -3,1.8 -5.9,3.8 -8.7,6.1 -8.4,7.1 -15.4,16.7 -17.9,27.5 -1.2,5.3 0.3,7.2 -5.5,7.7 -6,0.5 -11.4,0.5 -17.3,2.1 -22,5.9 -35.2,22.6 -43.4,42.9 -5.1,12.5 -8.8,26 -16.8,37 -10.9,15 -28.5,21.8 -46.6,19.7 -1.9,-0.2 -2.6,1.7 -1.9,3.1 l 0,138.9 c 0,0.4 0.1,0.8 0.3,1.1 -1.1,1.4 -0.6,4 1.6,3.7 18.1,-2.1 35.8,4.7 46.6,19.7 8,11.1 11.7,24.5 16.8,37 8.2,20.3 21.4,37 43.4,42.9 5.9,1.6 11.3,1.6 17.3,2.1 5.8,0.5 4.3,2.4 5.5,7.7 2.5,10.9 9.5,20.4 17.9,27.5 2.8,2.3 5.7,4.3 8.7,6.1 3,1.8 6.1,3.3 9.2,4.6 l 501.4,0 c 3.2,-1.3 6.2,-2.8 9.2,-4.6 3,-1.8 5.9,-3.8 8.7,-6.1 8.4,-7.1 15.4,-16.7 18,-27.5 1.2,-5.3 -0.3,-7.2 5.5,-7.7 6,-0.5 11.5,-0.5 17.3,-2.1 22,-5.9 35.2,-22.6 43.4,-42.9 5.1,-12.5 8.8,-26 16.8,-37 10.8,-15 28.5,-21.8 46.6,-19.7 0.4,0.1 0.7,0 1,-0.1 1,-0.2 1.8,-0.9 1.8,-2.1 l 0,-142.2 c 0.1,-1.3 -0.7,-2 -1.7,-2.2 z m -2.8,141.9 c -27.6,-2.5 -47.6,14.6 -58,39.2 -6.5,15.4 -10.6,32.5 -22.3,45.1 -12.5,13.5 -30.9,19.2 -48.9,17 -1.2,-0.1 -2.3,1.2 -2.3,2.3 -0.3,23.8 -15.5,36.8 -34.7,44.2 l -496.7,0 c -19.2,-7.4 -34.4,-20.5 -34.7,-44.2 0,-1.1 -1.1,-2.5 -2.3,-2.3 -18,2.3 -36.4,-3.4 -48.9,-17 -11.6,-12.5 -15.7,-29.7 -22.2,-45.1 -10.3,-24.3 -29.9,-41.2 -57,-39.2 l 0,-137.3 c 27.1,2 46.7,-15 57,-39.2 6.5,-15.4 10.6,-32.5 22.2,-45.1 12.5,-13.5 30.9,-19.2 48.9,-17 1.2,0.1 2.3,-1.2 2.3,-2.3 0.3,-23.8 15.5,-36.8 34.7,-44.2 l 496.8,0 c 19.2,7.4 34.4,20.5 34.7,44.2 0,1.1 1,2.5 2.3,2.3 18.1,-2.3 36.4,3.4 48.9,17 11.7,12.5 15.8,29.7 22.3,45.1 10.3,24.6 30.4,41.6 58,39.2 l 0,137.3 z"
             id="path67"
             inkscape:connector-curvature="0"
             style="fill:#b9921d" /><path
             class="st1"
             d="m 848.1,366.6 c -6.5,-15.4 -10.6,-32.5 -22.3,-45.1 -12.5,-13.5 -30.9,-19.2 -48.9,-17 -1.2,0.1 -2.3,-1.2 -2.3,-2.3 -0.3,-23.8 -15.5,-36.8 -34.7,-44.2 l -496.7,0 c -19.2,7.4 -34.4,20.5 -34.7,44.2 0,1.1 -1.1,2.5 -2.3,2.3 -18,-2.3 -36.4,3.4 -48.9,17 -11.6,12.5 -15.7,29.7 -22.2,45.1 -10.3,24.3 -29.9,41.2 -57,39.2 l 0,137.2 c 27.1,-2 46.7,15 57,39.2 6.5,15.4 10.6,32.5 22.2,45.1 12.5,13.5 30.9,19.2 48.9,17 1.2,-0.1 2.3,1.2 2.3,2.3 0.3,23.8 15.5,36.8 34.7,44.2 l 496.8,0 c 19.2,-7.4 34.4,-20.5 34.7,-44.2 0,-1.1 1,-2.5 2.3,-2.3 18.1,2.3 36.4,-3.4 48.9,-17 11.7,-12.5 15.8,-29.7 22.3,-45.1 10.3,-24.6 30.4,-41.6 58,-39.2 l 0,-137.2 c -27.7,2.4 -47.7,-14.6 -58.1,-39.2 z m 18.3,169.3 c 0,1.1 -0.8,1.7 -1.6,1.9 -0.3,0.1 -0.6,0.1 -1,0.1 -16.2,-1.8 -32,4 -41.7,17 -7.1,9.6 -10.5,21.2 -15,32.1 -7.4,17.6 -19.2,32 -38.8,37.1 -5.2,1.3 -10.1,1.4 -15.5,1.8 -5.2,0.4 -3.8,2 -4.9,6.6 -2.3,9.4 -8.5,17.6 -16.1,23.8 -2.5,2 -5.1,3.7 -7.8,5.3 -2.6,1.5 -5.4,2.9 -8.3,4 l -448.2,0 c -2.9,-1.1 -5.6,-2.4 -8.3,-4 -2.7,-1.5 -5.3,-3.3 -7.8,-5.3 -7.6,-6.2 -13.8,-14.4 -16.1,-23.8 -1.1,-4.6 0.3,-6.2 -4.9,-6.6 -5.4,-0.4 -10.3,-0.5 -15.5,-1.8 -19.7,-5.1 -31.5,-19.5 -38.8,-37.1 -4.5,-10.8 -7.8,-22.5 -15,-32.1 -9.7,-13 -25.5,-18.9 -41.7,-17 -2,0.2 -2.4,-2 -1.5,-3.2 -0.1,-0.3 -0.3,-0.6 -0.3,-1 l 0,-120.1 c -0.5,-1.2 0,-2.9 1.7,-2.7 16.2,1.8 32,-4 41.7,-17 7.2,-9.6 10.5,-21.2 15,-32.1 7.4,-17.6 19.2,-32 38.8,-37.1 5.2,-1.3 10.1,-1.4 15.5,-1.8 5.2,-0.4 3.8,-2 4.9,-6.6 2.3,-9.4 8.5,-17.6 16.1,-23.8 2.5,-2 5.1,-3.7 7.8,-5.3 2.6,-1.5 5.4,-2.9 8.3,-4 l 448.3,0 c 2.9,1.1 5.6,2.4 8.3,4 2.7,1.5 5.3,3.3 7.8,5.3 7.6,6.2 13.8,14.4 16.1,23.8 1.1,4.6 -0.3,6.2 4.9,6.6 5.4,0.4 10.2,0.5 15.5,1.8 19.7,5.1 31.5,19.5 38.8,37.1 4.5,10.8 7.9,22.5 15,32.1 9.7,13 25.5,18.9 41.7,17 0.4,-0.1 0.7,0 1,0.2 0.8,0.2 1.6,0.8 1.6,1.8 l 0,123 z"
             id="path69"
             inkscape:connector-curvature="0"
             style="fill:#b9921d" /></g><g
           id="g71"><path
             class="noFillSVG"
             d="m 862.2,415.1 c -24.6,2.1 -42.6,-12.6 -51.8,-33.9 -5.8,-13.3 -9.5,-28.1 -19.9,-39 -11.2,-11.7 -27.6,-16.6 -43.8,-14.7 -1.1,0.1 -2,-1 -2.1,-2 -0.3,-20.6 -13.8,-31.9 -31,-38.2 l -45.5,0 -8,0 -390.6,0 c -17.2,6.4 -30.7,17.7 -31,38.2 0,1 -0.9,2.1 -2.1,2 -16.1,-2 -32.5,3 -43.8,14.7 -10.4,10.9 -14.1,25.7 -19.9,39 -9.2,21 -26.8,35.6 -51,33.9 0,39.6 0,79.1 0,118.7 24.2,-1.7 41.8,12.9 51,33.9 5.8,13.3 9.5,28.1 19.9,39 11.2,11.7 27.6,16.6 43.8,14.7 1.1,-0.1 2,1 2.1,2 0.3,20.6 13.8,31.9 31,38.2 l 390.6,0 8,0 45.5,0 c 17.2,-6.4 30.7,-17.7 31,-38.2 0,-1 0.9,-2.1 2.1,-2 16.1,2 32.5,-3 43.8,-14.7 10.4,-10.9 14.1,-25.7 19.9,-39 9.3,-21.2 27.2,-36 51.8,-33.9 0,-39.6 0,-79.2 0,-118.7 z"
             id="path73"
             inkscape:connector-curvature="0"
             style="fill:none" /><path
             class="st1"
             d="m 864.8,411.1 c -0.3,-0.1 -0.6,-0.2 -1,-0.2 -16.2,1.8 -32,-4 -41.7,-17 -7.1,-9.6 -10.5,-21.2 -15,-32.1 -7.4,-17.6 -19.2,-32 -38.8,-37.1 -5.2,-1.3 -10.1,-1.4 -15.5,-1.8 -5.2,-0.4 -3.8,-2 -4.9,-6.6 -2.3,-9.4 -8.5,-17.6 -16.1,-23.8 -2.5,-2 -5.1,-3.7 -7.8,-5.3 -2.6,-1.5 -5.4,-2.9 -8.3,-4 l -448.2,0 c -2.9,1.1 -5.6,2.4 -8.3,4 -2.7,1.5 -5.3,3.3 -7.8,5.3 -7.6,6.2 -13.8,14.4 -16.1,23.8 -1.1,4.6 0.3,6.2 -4.9,6.6 -5.4,0.4 -10.3,0.5 -15.5,1.8 -19.7,5.1 -31.5,19.5 -38.8,37.1 -4.5,10.8 -7.8,22.5 -15,32.1 -9.7,13 -25.5,18.9 -41.7,17 -1.7,-0.2 -2.3,1.5 -1.7,2.7 l 0,120.2 c 0,0.4 0.1,0.7 0.3,1 -1,1.2 -0.5,3.4 1.5,3.2 16.2,-1.8 32,4 41.7,17 7.2,9.6 10.5,21.2 15,32.1 7.4,17.6 19.2,32 38.8,37.1 5.2,1.3 10.1,1.4 15.5,1.8 5.2,0.4 3.8,2 4.9,6.6 2.3,9.4 8.5,17.6 16.1,23.8 2.5,2 5.1,3.7 7.8,5.3 2.6,1.5 5.4,2.9 8.3,4 l 448.3,0 c 2.9,-1.1 5.6,-2.4 8.3,-4 2.7,-1.5 5.3,-3.3 7.8,-5.3 7.6,-6.2 13.8,-14.4 16.1,-23.8 1.1,-4.6 -0.3,-6.2 4.9,-6.6 5.4,-0.4 10.2,-0.5 15.5,-1.8 19.7,-5.1 31.5,-19.5 38.8,-37.1 4.5,-10.8 7.9,-22.5 15,-32.1 9.7,-13 25.5,-18.9 41.7,-17 0.4,0 0.7,0 1,-0.1 0.9,-0.1 1.6,-0.7 1.6,-1.9 l 0,-123 c -0.2,-1.1 -1,-1.7 -1.8,-1.9 z m -2.6,122.7 c -24.6,-2.1 -42.5,12.6 -51.8,33.9 -5.8,13.3 -9.5,28.1 -19.9,39 -11.2,11.7 -27.6,16.6 -43.7,14.7 -1.1,-0.1 -2.1,1 -2.1,2 -0.3,20.6 -13.8,31.9 -31,38.2 l -444.2,0 c -17.2,-6.4 -30.7,-17.7 -31,-38.2 0,-1 -1,-2.1 -2.1,-2 -16.2,2 -32.6,-3 -43.8,-14.7 -10.4,-10.9 -14.1,-25.7 -19.9,-39 -9.2,-21 -26.8,-35.6 -51,-33.9 l 0,-118.7 c 24.2,1.7 41.8,-12.9 51,-33.9 5.8,-13.3 9.5,-28.1 19.9,-39 11.2,-11.7 27.6,-16.7 43.8,-14.7 1.1,0.1 2,-1 2.1,-2 0.3,-20.6 13.9,-31.9 31,-38.2 l 444.2,0 c 17.2,6.4 30.7,17.7 31,38.2 0,1 1,2.1 2.1,2 16.1,-2 32.5,3 43.7,14.7 10.4,10.9 14.1,25.7 19.9,39 9.3,21.2 27.2,36 51.8,33.9 l 0,118.7 z"
             id="path75"
             inkscape:connector-curvature="0"
             style="fill:#b9921d" /></g></g></g></switch></svg>