<?xml version="1.0" encoding="UTF-8" standalone="no"?>
<svg
   xmlns:dc="http://purl.org/dc/elements/1.1/"
   xmlns:cc="http://creativecommons.org/ns#"
   xmlns:rdf="http://www.w3.org/1999/02/22-rdf-syntax-ns#"
   xmlns:svg="http://www.w3.org/2000/svg"
   xmlns="http://www.w3.org/2000/svg"
   xmlns:sodipodi="http://sodipodi.sourceforge.net/DTD/sodipodi-0.dtd"
   xmlns:inkscape="http://www.inkscape.org/namespaces/inkscape"
   version="1.1"
   id="l17"
   x="0px"
   y="0px"
   viewBox="194.79998779296875 186.9499969482422 610.3999633789062 626.0999755859375"
   width="100%"
   height="100%"
   style="enable-background:new 0 0 1000 1000;"
   xml:space="preserve"
    class="withFill"
   ><style
     type="text/css"
     id="style3">
	#l17 .st0{fill:#9E9E9E;}
	#l17 .st1{fill:#FFFFFF;}
</style><switch
     id="switch5"
     transform="translate(-37.4,-4.45)"><g
       id="g7"><g
         id="g9"><g
           id="g11"><polygon
             class="st0"
             points="673.2,222.4 717.8,278.2 782.1,309.2 798,378.9 842.6,434.7 826.7,504.4 842.6,574.1 798,629.9 782.1,699.6 717.8,730.6 673.2,786.5 601.8,786.5 537.4,817.5 473,786.5 401.6,786.5 357,730.6 292.6,699.6 276.7,629.9 232.2,574.1 248.1,504.4 232.2,434.7 276.7,378.9 292.6,309.2 357,278.2 401.6,222.4 473,222.4 537.4,191.4 601.8,222.4 "
             id="polygon13"
             style="fill:#9e9e9e" /></g><g
           id="g15"><g
             id="g17"><path
               class="st1"
               d="m 541.1,227.5 c -0.3,0 -0.6,-0.1 -0.9,-0.2 l -2.8,-1.4 -2.8,1.4 c -1,0.5 -2.2,0.1 -2.7,-1 -0.5,-1 -0.1,-2.2 1,-2.7 l 4.6,-2.2 4.6,2.2 c 1,0.5 1.5,1.7 1,2.7 -0.5,0.7 -1.3,1.2 -2,1.2 z"
               id="path19"
               inkscape:connector-curvature="0"
               style="fill:#ffffff" /></g><g
             id="g21"><path
               class="st1"
               d="m 647.1,253.5 -8,0 c -1.1,0 -2.1,-0.9 -2.1,-2.1 0,-1.2 0.9,-2.1 2.1,-2.1 l 8,0 c 1.1,0 2.1,0.9 2.1,2.1 0,1.2 -1,2.1 -2.1,2.1 z m -16,0 -8,0 c -1.1,0 -2.1,-0.9 -2.1,-2.1 0,-1.2 0.9,-2.1 2.1,-2.1 l 8,0 c 1.1,0 2.1,0.9 2.1,2.1 0,1.2 -1,2.1 -2.1,2.1 z m -16,0 -8,0 c -1.1,0 -2.1,-0.9 -2.1,-2.1 0,-1.2 0.9,-2.1 2.1,-2.1 l 8,0 c 1.1,0 2.1,0.9 2.1,2.1 0,1.2 -0.9,2.1 -2.1,2.1 z m -16,0 -4.5,0 -4,-1.9 c -1,-0.5 -1.5,-1.7 -1,-2.7 0.5,-1 1.7,-1.4 2.7,-1 l 3.2,1.5 3.5,0 c 1.1,0 2.1,0.9 2.1,2.1 0,1.2 -0.8,2 -2,2 z m -14.8,-5.2 c -0.3,0 -0.6,-0.1 -0.9,-0.2 l -7.2,-3.5 c -1,-0.5 -1.5,-1.7 -1,-2.7 0.5,-1 1.7,-1.4 2.7,-1 l 7.2,3.5 c 1,0.5 1.5,1.7 1,2.7 -0.3,0.8 -1,1.2 -1.8,1.2 z m -14.4,-7 c -0.3,0 -0.6,-0.1 -0.9,-0.2 l -7.2,-3.5 c -1,-0.5 -1.5,-1.7 -1,-2.7 0.5,-1 1.7,-1.5 2.7,-1 l 7.2,3.5 c 1,0.5 1.5,1.7 1,2.7 -0.3,0.8 -1,1.2 -1.8,1.2 z m -14.4,-6.9 c -0.3,0 -0.6,-0.1 -0.9,-0.2 l -7.2,-3.5 c -1,-0.5 -1.5,-1.7 -1,-2.7 0.5,-1 1.7,-1.4 2.7,-1 l 7.2,3.5 c 1,0.5 1.5,1.7 1,2.7 -0.3,0.8 -1,1.2 -1.8,1.2 z"
               id="path23"
               inkscape:connector-curvature="0"
               style="fill:#ffffff" /></g><g
             id="g25"><path
               class="st1"
               d="m 661.8,256.7 c -0.6,0 -1.2,-0.3 -1.6,-0.8 l -1.9,-2.4 -3.1,0 c -1.1,0 -2.1,-0.9 -2.1,-2.1 0,-1.2 0.9,-2.1 2.1,-2.1 l 5.1,0 3.2,4 c 0.7,0.9 0.6,2.2 -0.3,2.9 -0.5,0.4 -1,0.5 -1.4,0.5 z"
               id="path27"
               inkscape:connector-curvature="0"
               style="fill:#ffffff" /></g><g
             id="g29"><path
               class="st1"
               d="m 746,326.1 c -0.3,0 -0.6,-0.1 -0.9,-0.2 l -7.2,-3.5 c -1,-0.5 -1.5,-1.7 -1,-2.7 0.5,-1 1.7,-1.4 2.7,-1 l 7.2,3.5 c 1,0.5 1.5,1.7 1,2.7 -0.3,0.8 -1,1.2 -1.8,1.2 z m -14.4,-6.9 c -0.3,0 -0.6,-0.1 -0.9,-0.2 l -7.2,-3.5 c -1,-0.5 -1.4,-1.7 -1,-2.7 0.5,-1 1.7,-1.4 2.7,-1 l 7.2,3.5 c 1,0.5 1.4,1.7 1,2.7 -0.3,0.8 -1,1.2 -1.8,1.2 z m -14.4,-6.9 c -0.3,0 -0.6,-0.1 -0.9,-0.2 l -7.2,-3.5 c -1,-0.5 -1.5,-1.7 -1,-2.7 0.5,-1 1.7,-1.4 2.7,-1 l 7.2,3.5 c 1,0.5 1.5,1.7 1,2.7 -0.3,0.7 -1.1,1.2 -1.8,1.2 z m -14.4,-7 c -0.3,0 -0.6,-0.1 -0.9,-0.2 l -4,-1.9 -2.8,-3.5 c -0.7,-0.9 -0.6,-2.2 0.3,-2.9 0.9,-0.7 2.2,-0.6 2.9,0.3 l 2.2,2.8 3.2,1.5 c 1,0.5 1.4,1.7 1,2.7 -0.4,0.8 -1.2,1.2 -1.9,1.2 z m -11.1,-11.1 c -0.6,0 -1.2,-0.3 -1.6,-0.8 l -5,-6.3 c -0.7,-0.9 -0.6,-2.2 0.3,-2.9 0.9,-0.7 2.2,-0.6 2.9,0.3 l 5,6.3 c 0.7,0.9 0.6,2.2 -0.3,2.9 -0.4,0.4 -0.9,0.5 -1.3,0.5 z m -10,-12.5 c -0.6,0 -1.2,-0.3 -1.6,-0.8 l -5,-6.3 c -0.7,-0.9 -0.6,-2.2 0.3,-2.9 0.9,-0.7 2.2,-0.6 2.9,0.3 l 5,6.3 c 0.7,0.9 0.6,2.2 -0.3,2.9 -0.4,0.4 -0.8,0.5 -1.3,0.5 z m -10,-12.5 c -0.6,0 -1.2,-0.3 -1.6,-0.8 l -5,-6.3 c -0.7,-0.9 -0.6,-2.2 0.3,-2.9 0.9,-0.7 2.2,-0.6 2.9,0.3 l 5,6.3 c 0.7,0.9 0.6,2.2 -0.3,2.9 -0.4,0.4 -0.8,0.5 -1.3,0.5 z"
               id="path31"
               inkscape:connector-curvature="0"
               style="fill:#ffffff" /></g><g
             id="g33"><path
               class="st1"
               d="m 757.8,335.4 c -0.9,0 -1.8,-0.6 -2,-1.6 l -0.7,-3 -2.8,-1.4 c -1,-0.5 -1.5,-1.7 -1,-2.7 0.5,-1 1.7,-1.4 2.7,-1 l 4.6,2.2 1.1,5 c 0.3,1.1 -0.4,2.2 -1.5,2.5 -0.1,0 -0.2,0 -0.4,0 z"
               id="path35"
               inkscape:connector-curvature="0"
               style="fill:#ffffff" /></g><g
             id="g37"><path
               class="st1"
               d="m 803.6,434.5 c -0.6,0 -1.2,-0.3 -1.6,-0.8 l -5,-6.3 c -0.7,-0.9 -0.6,-2.2 0.3,-2.9 0.9,-0.7 2.2,-0.6 2.9,0.3 l 5,6.3 c 0.7,0.9 0.6,2.2 -0.3,2.9 -0.4,0.4 -0.9,0.5 -1.3,0.5 z m -10,-12.5 c -0.6,0 -1.2,-0.3 -1.6,-0.8 l -5,-6.3 c -0.7,-0.9 -0.6,-2.2 0.3,-2.9 0.9,-0.7 2.2,-0.6 2.9,0.3 l 5,6.3 c 0.7,0.9 0.6,2.2 -0.3,2.9 -0.4,0.4 -0.8,0.5 -1.3,0.5 z m -10,-12.5 c -0.6,0 -1.2,-0.3 -1.6,-0.8 l -5,-6.3 c -0.7,-0.9 -0.6,-2.2 0.3,-2.9 0.9,-0.7 2.2,-0.6 2.9,0.3 l 5,6.3 c 0.7,0.9 0.6,2.2 -0.3,2.9 -0.4,0.4 -0.8,0.5 -1.3,0.5 z M 773.7,397 c -0.6,0 -1.2,-0.3 -1.6,-0.8 l -2.8,-3.5 -1,-4.4 c -0.3,-1.1 0.4,-2.2 1.5,-2.5 1.1,-0.3 2.2,0.4 2.5,1.5 l 0.8,3.4 2.2,2.8 c 0.7,0.9 0.6,2.2 -0.3,2.9 -0.4,0.5 -0.9,0.6 -1.3,0.6 z m -5.2,-14.8 c -0.9,0 -1.8,-0.6 -2,-1.6 l -1.8,-7.8 c -0.3,-1.1 0.4,-2.2 1.5,-2.5 1.1,-0.3 2.2,0.4 2.5,1.5 l 1.8,7.8 c 0.3,1.1 -0.4,2.2 -1.5,2.5 -0.2,0.1 -0.4,0.1 -0.5,0.1 z m -3.6,-15.6 c -0.9,0 -1.8,-0.6 -2,-1.6 l -1.8,-7.8 c -0.3,-1.1 0.4,-2.2 1.5,-2.5 1.1,-0.3 2.2,0.4 2.5,1.5 l 1.8,7.8 c 0.3,1.1 -0.4,2.2 -1.5,2.5 -0.2,0.1 -0.3,0.1 -0.5,0.1 z M 761.4,351 c -0.9,0 -1.8,-0.6 -2,-1.6 l -1.8,-7.8 c -0.3,-1.1 0.4,-2.2 1.5,-2.5 1.1,-0.3 2.2,0.4 2.5,1.5 l 1.8,7.8 c 0.3,1.1 -0.4,2.2 -1.5,2.5 -0.2,0.1 -0.4,0.1 -0.5,0.1 z"
               id="path39"
               inkscape:connector-curvature="0"
               style="fill:#ffffff" /></g><g
             id="g41"><path
               class="st1"
               d="m 810.2,448 c -0.2,0 -0.3,0 -0.5,-0.1 -1.1,-0.3 -1.8,-1.4 -1.5,-2.5 l 0.7,-3 -1.9,-2.4 c -0.7,-0.9 -0.6,-2.2 0.3,-2.9 0.9,-0.7 2.2,-0.6 2.9,0.3 l 3.2,4 -1.1,5 c -0.3,0.9 -1.2,1.6 -2.1,1.6 z"
               id="path43"
               inkscape:connector-curvature="0"
               style="fill:#ffffff" /></g><g
             id="g45"><path
               class="st1"
               d="m 808.4,557.1 c -0.9,0 -1.8,-0.6 -2,-1.6 l -1.8,-7.8 c -0.3,-1.1 0.4,-2.2 1.5,-2.5 1.1,-0.3 2.2,0.4 2.5,1.5 l 1.8,7.8 c 0.3,1.1 -0.4,2.2 -1.5,2.5 -0.2,0.1 -0.3,0.1 -0.5,0.1 z m -3.5,-15.6 c -0.9,0 -1.8,-0.6 -2,-1.6 l -1.8,-7.8 c -0.3,-1.1 0.4,-2.2 1.5,-2.5 1.1,-0.3 2.2,0.4 2.5,1.5 l 1.8,7.8 c 0.3,1.1 -0.4,2.2 -1.5,2.5 -0.2,0.1 -0.4,0.1 -0.5,0.1 z m -3.6,-15.6 c -0.9,0 -1.8,-0.6 -2,-1.6 l -1.8,-7.8 c -0.3,-1.1 0.4,-2.2 1.5,-2.5 1.1,-0.3 2.2,0.4 2.5,1.5 l 1.8,7.8 c 0.3,1.1 -0.4,2.2 -1.5,2.5 -0.2,0.1 -0.3,0.1 -0.5,0.1 z m -3.6,-15.5 c -0.9,0 -1.8,-0.6 -2,-1.6 l -1,-4.4 1,-4.4 c 0.3,-1.1 1.4,-1.8 2.5,-1.5 1.1,0.3 1.8,1.4 1.5,2.5 l -0.8,3.4 0.8,3.4 c 0.3,1.1 -0.4,2.2 -1.5,2.5 -0.1,0 -0.3,0.1 -0.5,0.1 z m 1.8,-15.6 c -0.2,0 -0.3,0 -0.5,-0.1 -1.1,-0.3 -1.8,-1.4 -1.5,-2.5 l 1.8,-7.8 c 0.3,-1.1 1.4,-1.8 2.5,-1.5 1.1,0.3 1.8,1.4 1.5,2.5 l -1.8,7.8 c -0.2,0.9 -1,1.6 -2,1.6 z m 3.6,-15.6 c -0.2,0 -0.3,0 -0.5,-0.1 -1.1,-0.3 -1.8,-1.4 -1.5,-2.5 l 1.8,-7.8 c 0.3,-1.1 1.3,-1.8 2.5,-1.5 1.1,0.3 1.8,1.4 1.5,2.5 l -1.8,7.8 c -0.2,0.9 -1.1,1.6 -2,1.6 z m 3.5,-15.6 c -0.2,0 -0.3,0 -0.5,-0.1 -1.1,-0.3 -1.8,-1.4 -1.5,-2.5 l 1.8,-7.8 c 0.3,-1.1 1.4,-1.8 2.5,-1.5 1.1,0.3 1.8,1.4 1.5,2.5 l -1.8,7.8 c -0.2,0.9 -1,1.6 -2,1.6 z"
               id="path47"
               inkscape:connector-curvature="0"
               style="fill:#ffffff" /></g><g
             id="g49"><path
               class="st1"
               d="m 808.6,572.1 c -0.4,0 -0.9,-0.1 -1.3,-0.4 -0.9,-0.7 -1,-2 -0.3,-2.9 l 1.9,-2.4 -0.7,-3 c -0.3,-1.1 0.4,-2.2 1.5,-2.5 1.1,-0.3 2.2,0.4 2.5,1.5 l 1.1,5 -3.2,4 c -0.3,0.5 -0.9,0.7 -1.5,0.7 z"
               id="path51"
               inkscape:connector-curvature="0"
               style="fill:#ffffff" /></g><g
             id="g53"><path
               class="st1"
               d="m 759.6,669.7 c -0.2,0 -0.3,0 -0.5,-0.1 -1.1,-0.3 -1.8,-1.4 -1.5,-2.5 l 1.8,-7.8 c 0.3,-1.1 1.4,-1.8 2.5,-1.5 1.1,0.3 1.8,1.4 1.5,2.5 l -1.8,7.8 c -0.2,1 -1.1,1.6 -2,1.6 z m 3.6,-15.6 c -0.2,0 -0.3,0 -0.5,-0.1 -1.1,-0.3 -1.8,-1.4 -1.5,-2.5 l 1.8,-7.8 c 0.3,-1.1 1.4,-1.8 2.5,-1.5 1.1,0.3 1.8,1.4 1.5,2.5 l -1.8,7.8 c -0.3,1 -1.1,1.6 -2,1.6 z m 3.5,-15.6 c -0.2,0 -0.3,0 -0.5,-0.1 -1.1,-0.3 -1.8,-1.4 -1.5,-2.5 l 1.8,-7.8 c 0.3,-1.1 1.3,-1.8 2.5,-1.5 1.1,0.3 1.8,1.4 1.5,2.5 l -1.8,7.8 c -0.2,1 -1,1.6 -2,1.6 z m 3.6,-15.6 c -0.2,0 -0.3,0 -0.5,-0.1 -1.1,-0.3 -1.8,-1.4 -1.5,-2.5 l 1,-4.4 2.8,-3.5 c 0.7,-0.9 2,-1 2.9,-0.3 0.9,0.7 1,2 0.3,2.9 l -2.2,2.8 -0.8,3.4 c -0.2,1.1 -1.1,1.7 -2,1.7 z m 8.3,-13.2 c -0.4,0 -0.9,-0.1 -1.3,-0.4 -0.9,-0.7 -1,-2 -0.3,-2.9 l 5,-6.3 c 0.7,-0.9 2,-1 2.9,-0.3 0.9,0.7 1,2 0.3,2.9 l -5,6.3 c -0.4,0.4 -1,0.7 -1.6,0.7 z m 10,-12.5 c -0.4,0 -0.9,-0.1 -1.3,-0.4 -0.9,-0.7 -1,-2 -0.3,-2.9 l 5,-6.3 c 0.7,-0.9 2,-1 2.9,-0.3 0.9,0.7 1,2 0.3,2.9 l -5,6.3 c -0.4,0.4 -1,0.7 -1.6,0.7 z m 10,-12.6 c -0.4,0 -0.9,-0.1 -1.3,-0.4 -0.9,-0.7 -1,-2 -0.3,-2.9 l 5,-6.3 c 0.7,-0.9 2,-1 2.9,-0.3 0.9,0.7 1,2 0.3,2.9 l -5,6.3 c -0.4,0.5 -1,0.7 -1.6,0.7 z"
               id="path55"
               inkscape:connector-curvature="0"
               style="fill:#ffffff" /></g><g
             id="g57"><path
               class="st1"
               d="m 753.2,683.3 c -0.8,0 -1.5,-0.4 -1.9,-1.2 -0.5,-1 -0.1,-2.2 1,-2.7 l 2.8,-1.4 0.7,-3 c 0.3,-1.1 1.3,-1.8 2.5,-1.5 1.1,0.3 1.8,1.4 1.5,2.5 l -1.1,5 -4.6,2.2 c -0.3,0 -0.6,0.1 -0.9,0.1 z"
               id="path59"
               inkscape:connector-curvature="0"
               style="fill:#ffffff" /></g><g
             id="g61"><path
               class="st1"
               d="m 666.8,750 c -0.4,0 -0.9,-0.1 -1.3,-0.4 -0.9,-0.7 -1,-2 -0.3,-2.9 l 5,-6.3 c 0.7,-0.9 2,-1 2.9,-0.3 0.9,0.7 1,2 0.3,2.9 l -5,6.3 c -0.4,0.4 -1,0.7 -1.6,0.7 z m 9.9,-12.5 c -0.4,0 -0.9,-0.1 -1.3,-0.4 -0.9,-0.7 -1,-2 -0.3,-2.9 l 5,-6.3 c 0.7,-0.9 2,-1 2.9,-0.3 0.9,0.7 1,2 0.3,2.9 l -5,6.3 c -0.4,0.4 -1,0.7 -1.6,0.7 z m 10,-12.5 c -0.4,0 -0.9,-0.1 -1.3,-0.4 -0.9,-0.7 -1,-2 -0.3,-2.9 l 5,-6.3 c 0.7,-0.9 2,-1 2.9,-0.3 0.9,0.7 1,2 0.3,2.9 l -5,6.3 c -0.4,0.4 -1,0.7 -1.6,0.7 z m 10,-12.6 c -0.4,0 -0.9,-0.1 -1.3,-0.4 -0.9,-0.7 -1,-2 -0.3,-2.9 l 2.8,-3.5 4,-1.9 c 1,-0.5 2.2,-0.1 2.7,1 0.5,1 0.1,2.2 -1,2.7 l -3.2,1.5 -2.2,2.8 c -0.3,0.5 -0.9,0.7 -1.5,0.7 z m 13.3,-8.3 c -0.8,0 -1.5,-0.4 -1.9,-1.2 -0.5,-1 -0.1,-2.2 1,-2.7 l 7.2,-3.5 c 1,-0.5 2.2,-0.1 2.7,1 0.5,1 0.1,2.2 -1,2.7 l -7.2,3.5 c -0.2,0.2 -0.5,0.2 -0.8,0.2 z m 14.4,-6.9 c -0.8,0 -1.5,-0.4 -1.9,-1.2 -0.5,-1 -0.1,-2.2 1,-2.7 l 7.2,-3.5 c 1,-0.5 2.2,-0.1 2.7,1 0.5,1 0.1,2.2 -1,2.7 l -7.2,3.5 c -0.2,0.1 -0.5,0.2 -0.8,0.2 z m 14.4,-7 c -0.8,0 -1.5,-0.4 -1.9,-1.2 -0.5,-1 -0.1,-2.2 1,-2.7 l 7.2,-3.5 c 1,-0.5 2.2,-0.1 2.7,1 0.5,1 0.1,2.2 -1,2.7 l -7.2,3.5 c -0.2,0.2 -0.5,0.2 -0.8,0.2 z"
               id="path63"
               inkscape:connector-curvature="0"
               style="fill:#ffffff" /></g><g
             id="g65"><path
               class="st1"
               d="m 660.2,759.4 -5.1,0 c -1.1,0 -2.1,-0.9 -2.1,-2.1 0,-1.2 0.9,-2.1 2.1,-2.1 l 3.1,0 1.9,-2.4 c 0.7,-0.9 2,-1 2.9,-0.3 0.9,0.7 1,2 0.3,2.9 l -3.1,4 z"
               id="path67"
               inkscape:connector-curvature="0"
               style="fill:#ffffff" /></g><g
             id="g69"><path
               class="st1"
               d="m 548.3,782 c -0.8,0 -1.5,-0.4 -1.9,-1.2 -0.5,-1 -0.1,-2.2 1,-2.7 l 7.2,-3.5 c 1,-0.5 2.2,-0.1 2.7,1 0.5,1 0.1,2.2 -1,2.7 l -7.2,3.5 c -0.2,0.1 -0.5,0.2 -0.8,0.2 z m 14.4,-7 c -0.8,0 -1.5,-0.4 -1.9,-1.2 -0.5,-1 -0.1,-2.2 1,-2.7 l 7.2,-3.5 c 1,-0.5 2.2,-0.1 2.7,1 0.5,1 0.1,2.2 -1,2.7 l -7.2,3.5 c -0.2,0.2 -0.5,0.2 -0.8,0.2 z m 14.4,-6.9 c -0.8,0 -1.5,-0.4 -1.9,-1.2 -0.5,-1 -0.1,-2.2 1,-2.7 l 7.2,-3.5 c 1,-0.5 2.2,-0.1 2.7,1 0.5,1 0.1,2.2 -1,2.7 l -7.2,3.5 c -0.2,0.1 -0.5,0.2 -0.8,0.2 z m 14.4,-6.9 c -0.8,0 -1.5,-0.4 -1.9,-1.2 -0.5,-1 -0.1,-2.2 1,-2.7 l 4,-1.9 4.5,0 c 1.1,0 2.1,0.9 2.1,2.1 0,1.2 -0.9,2.1 -2.1,2.1 l -3.5,0 -3.2,1.5 c -0.3,0 -0.6,0.1 -0.9,0.1 z m 55.6,-1.8 -8,0 c -1.1,0 -2.1,-0.9 -2.1,-2.1 0,-1.2 0.9,-2.1 2.1,-2.1 l 8,0 c 1.1,0 2.1,0.9 2.1,2.1 0,1.2 -1,2.1 -2.1,2.1 z m -16,0 -8,0 c -1.1,0 -2.1,-0.9 -2.1,-2.1 0,-1.2 0.9,-2.1 2.1,-2.1 l 8,0 c 1.1,0 2.1,0.9 2.1,2.1 0,1.2 -1,2.1 -2.1,2.1 z m -16,0 -8,0 c -1.1,0 -2.1,-0.9 -2.1,-2.1 0,-1.2 0.9,-2.1 2.1,-2.1 l 8,0 c 1.1,0 2.1,0.9 2.1,2.1 0,1.2 -1,2.1 -2.1,2.1 z"
               id="path71"
               inkscape:connector-curvature="0"
               style="fill:#ffffff" /></g><g
             id="g73"><path
               class="st1"
               d="m 537.4,787.5 -4.6,-2.2 c -1,-0.5 -1.4,-1.7 -1,-2.7 0.5,-1 1.7,-1.4 2.7,-1 l 2.8,1.4 2.8,-1.4 c 1,-0.5 2.2,-0.1 2.7,1 0.5,1.1 0.1,2.2 -1,2.7 l -4.4,2.2 z"
               id="path75"
               inkscape:connector-curvature="0"
               style="fill:#ffffff" /></g><g
             id="g77"><path
               class="st1"
               d="m 526.5,782 c -0.3,0 -0.6,-0.1 -0.9,-0.2 l -7.2,-3.5 c -1,-0.5 -1.5,-1.7 -1,-2.7 0.5,-1 1.7,-1.4 2.7,-1 l 7.2,3.5 c 1,0.5 1.5,1.7 1,2.7 -0.3,0.8 -1.1,1.2 -1.8,1.2 z m -14.4,-7 c -0.3,0 -0.6,-0.1 -0.9,-0.2 l -7.2,-3.5 c -1,-0.5 -1.4,-1.7 -1,-2.7 0.4,-1 1.7,-1.4 2.7,-1 l 7.2,3.5 c 1,0.5 1.4,1.7 1,2.7 -0.3,0.8 -1.1,1.2 -1.8,1.2 z m -14.4,-6.9 c -0.3,0 -0.6,-0.1 -0.9,-0.2 l -7.2,-3.5 c -1,-0.5 -1.5,-1.7 -1,-2.7 0.5,-1 1.7,-1.4 2.7,-1 l 7.2,3.5 c 1,0.5 1.5,1.7 1,2.7 -0.3,0.8 -1.1,1.2 -1.8,1.2 z m -14.5,-6.9 c -0.3,0 -0.6,-0.1 -0.9,-0.2 l -3.2,-1.5 -3.5,0 c -1.1,0 -2.1,-0.9 -2.1,-2.1 0,-1.2 0.9,-2.1 2.1,-2.1 l 4.5,0 4,1.9 c 1,0.5 1.4,1.7 1,2.7 -0.4,0.8 -1.1,1.3 -1.9,1.3 z m -15.5,-1.8 -8,0 c -1.1,0 -2.1,-0.9 -2.1,-2.1 0,-1.2 0.9,-2.1 2.1,-2.1 l 8,0 c 1.1,0 2.1,0.9 2.1,2.1 0,1.2 -1,2.1 -2.1,2.1 z m -16,0 -8,0 c -1.1,0 -2.1,-0.9 -2.1,-2.1 0,-1.2 0.9,-2.1 2.1,-2.1 l 8,0 c 1.1,0 2.1,0.9 2.1,2.1 0,1.2 -1,2.1 -2.1,2.1 z m -16,0 -8,0 c -1.1,0 -2.1,-0.9 -2.1,-2.1 0,-1.2 0.9,-2.1 2.1,-2.1 l 8,0 c 1.1,0 2.1,0.9 2.1,2.1 0,1.2 -1,2.1 -2.1,2.1 z"
               id="path79"
               inkscape:connector-curvature="0"
               style="fill:#ffffff" /></g><g
             id="g81"><path
               class="st1"
               d="m 419.7,759.4 -5.1,0 -3.2,-4 c -0.7,-0.9 -0.6,-2.2 0.3,-2.9 0.9,-0.7 2.2,-0.6 2.9,0.3 l 1.9,2.4 3.1,0 c 1.1,0 2.1,0.9 2.1,2.1 0,1.2 -0.9,2.1 -2,2.1 z"
               id="path83"
               inkscape:connector-curvature="0"
               style="fill:#ffffff" /></g><g
             id="g85"><path
               class="st1"
               d="m 408,750 c -0.6,0 -1.2,-0.3 -1.6,-0.8 l -5,-6.3 c -0.7,-0.9 -0.6,-2.2 0.3,-2.9 0.9,-0.7 2.2,-0.6 2.9,0.3 l 5,6.3 c 0.7,0.9 0.6,2.2 -0.3,2.9 -0.4,0.3 -0.8,0.5 -1.3,0.5 z m -10,-12.5 c -0.6,0 -1.2,-0.3 -1.6,-0.8 l -5,-6.3 c -0.7,-0.9 -0.6,-2.2 0.3,-2.9 0.9,-0.7 2.2,-0.6 2.9,0.3 l 5,6.3 c 0.7,0.9 0.6,2.2 -0.3,2.9 -0.4,0.3 -0.8,0.5 -1.3,0.5 z M 388.1,725 c -0.6,0 -1.2,-0.3 -1.6,-0.8 l -5,-6.3 c -0.7,-0.9 -0.6,-2.2 0.3,-2.9 0.9,-0.7 2.2,-0.6 2.9,0.3 l 5,6.3 c 0.7,0.9 0.6,2.2 -0.3,2.9 -0.4,0.3 -0.9,0.5 -1.3,0.5 z m -10,-12.6 c -0.6,0 -1.2,-0.3 -1.6,-0.8 l -2.2,-2.8 -3.2,-1.5 c -1,-0.5 -1.5,-1.7 -1,-2.7 0.5,-1 1.7,-1.4 2.7,-1 l 4,1.9 2.8,3.5 c 0.7,0.9 0.6,2.2 -0.3,2.9 -0.3,0.4 -0.8,0.5 -1.2,0.5 z m -13.3,-8.3 c -0.3,0 -0.6,-0.1 -0.9,-0.2 l -7.2,-3.5 c -1,-0.5 -1.5,-1.7 -1,-2.7 0.5,-1 1.7,-1.4 2.7,-1 l 7.2,3.5 c 1,0.5 1.5,1.7 1,2.7 -0.3,0.8 -1,1.2 -1.8,1.2 z m -14.4,-6.9 c -0.3,0 -0.6,-0.1 -0.9,-0.2 l -7.2,-3.5 c -1,-0.5 -1.4,-1.7 -1,-2.7 0.5,-1 1.7,-1.4 2.7,-1 l 7.2,3.5 c 1,0.5 1.4,1.7 1,2.7 -0.3,0.8 -1.1,1.2 -1.8,1.2 z m -14.4,-7 c -0.3,0 -0.6,-0.1 -0.9,-0.2 l -7.2,-3.5 c -1,-0.5 -1.5,-1.7 -1,-2.7 0.5,-1 1.7,-1.4 2.7,-1 l 7.2,3.5 c 1,0.5 1.5,1.7 1,2.7 -0.3,0.8 -1.1,1.2 -1.8,1.2 z"
               id="path87"
               inkscape:connector-curvature="0"
               style="fill:#ffffff" /></g><g
             id="g89"><path
               class="st1"
               d="m 321.6,683.3 c -0.3,0 -0.6,-0.1 -0.9,-0.2 l -4.6,-2.2 -1.1,-5 c -0.3,-1.1 0.4,-2.2 1.5,-2.5 1.1,-0.3 2.2,0.4 2.5,1.5 l 0.7,3 2.8,1.4 c 1,0.5 1.4,1.7 1,2.7 -0.4,0.9 -1.2,1.3 -1.9,1.3 z"
               id="path91"
               inkscape:connector-curvature="0"
               style="fill:#ffffff" /></g><g
             id="g93"><path
               class="st1"
               d="m 315.2,669.7 c -0.9,0 -1.8,-0.6 -2,-1.6 l -1.8,-7.8 c -0.3,-1.1 0.4,-2.2 1.5,-2.5 1.1,-0.3 2.2,0.4 2.5,1.5 l 1.8,7.8 c 0.3,1.1 -0.4,2.2 -1.5,2.5 -0.2,0.1 -0.4,0.1 -0.5,0.1 z m -3.6,-15.6 c -0.9,0 -1.8,-0.6 -2,-1.6 l -1.8,-7.8 c -0.3,-1.1 0.4,-2.2 1.5,-2.5 1.1,-0.3 2.2,0.4 2.5,1.5 l 1.8,7.8 c 0.3,1.1 -0.4,2.2 -1.5,2.5 -0.2,0.1 -0.3,0.1 -0.5,0.1 z m -3.5,-15.6 c -0.9,0 -1.8,-0.6 -2,-1.6 l -1.8,-7.8 c -0.3,-1.1 0.4,-2.2 1.5,-2.5 1.1,-0.3 2.2,0.4 2.5,1.5 l 1.8,7.8 c 0.3,1.1 -0.4,2.2 -1.5,2.5 -0.2,0.1 -0.4,0.1 -0.5,0.1 z m -3.6,-15.6 c -0.9,0 -1.8,-0.6 -2,-1.6 l -0.8,-3.4 -2.2,-2.8 c -0.7,-0.9 -0.6,-2.2 0.3,-2.9 0.9,-0.7 2.2,-0.6 2.9,0.3 l 2.8,3.5 1,4.4 c 0.3,1.1 -0.4,2.2 -1.5,2.5 -0.2,0 -0.4,0 -0.5,0 z m -8.4,-13.2 c -0.6,0 -1.2,-0.3 -1.6,-0.8 l -5,-6.3 c -0.7,-0.9 -0.6,-2.2 0.3,-2.9 0.9,-0.7 2.2,-0.6 2.9,0.3 l 5,6.3 c 0.7,0.9 0.6,2.2 -0.3,2.9 -0.4,0.3 -0.8,0.5 -1.3,0.5 z m -9.9,-12.5 c -0.6,0 -1.2,-0.3 -1.6,-0.8 l -5,-6.3 c -0.7,-0.9 -0.6,-2.2 0.3,-2.9 0.9,-0.7 2.2,-0.6 2.9,0.3 l 5,6.3 c 0.7,0.9 0.6,2.2 -0.3,2.9 -0.4,0.3 -0.9,0.5 -1.3,0.5 z m -10,-12.6 c -0.6,0 -1.2,-0.3 -1.6,-0.8 l -5,-6.3 c -0.7,-0.9 -0.6,-2.2 0.3,-2.9 0.9,-0.7 2.2,-0.6 2.9,0.3 l 5,6.3 c 0.7,0.9 0.6,2.2 -0.3,2.9 -0.4,0.4 -0.9,0.5 -1.3,0.5 z"
               id="path95"
               inkscape:connector-curvature="0"
               style="fill:#ffffff" /></g><g
             id="g97"><path
               class="st1"
               d="m 266.2,572.1 c -0.6,0 -1.2,-0.3 -1.6,-0.8 l -3.2,-4 1.1,-5 c 0.3,-1.1 1.4,-1.8 2.5,-1.5 1.1,0.3 1.8,1.4 1.5,2.5 l -0.7,3 1.9,2.4 c 0.7,0.9 0.6,2.2 -0.3,2.9 -0.3,0.4 -0.7,0.5 -1.2,0.5 z"
               id="path99"
               inkscape:connector-curvature="0"
               style="fill:#ffffff" /></g><g
             id="g101"><path
               class="st1"
               d="m 266.3,557.1 c -0.2,0 -0.3,0 -0.5,-0.1 -1.1,-0.3 -1.8,-1.4 -1.5,-2.5 l 1.8,-7.8 c 0.3,-1.1 1.4,-1.8 2.5,-1.5 1.1,0.3 1.8,1.4 1.5,2.5 l -1.8,7.8 c -0.2,1 -1,1.6 -2,1.6 z m 3.6,-15.6 c -0.2,0 -0.3,0 -0.5,-0.1 -1.1,-0.3 -1.8,-1.4 -1.5,-2.5 l 1.8,-7.8 c 0.3,-1.1 1.4,-1.8 2.5,-1.5 1.1,0.3 1.8,1.4 1.5,2.5 l -1.8,7.8 c -0.2,1 -1.1,1.6 -2,1.6 z m 3.6,-15.6 c -0.2,0 -0.3,0 -0.5,-0.1 -1.1,-0.3 -1.8,-1.4 -1.5,-2.5 l 1.8,-7.8 c 0.3,-1.1 1.4,-1.8 2.5,-1.5 1.1,0.3 1.8,1.4 1.5,2.5 l -1.8,7.8 c -0.3,1 -1.1,1.6 -2,1.6 z m 3.5,-15.5 c -0.2,0 -0.3,0 -0.5,-0.1 -1.1,-0.3 -1.8,-1.4 -1.5,-2.5 l 0.8,-3.4 -0.8,-3.4 c -0.3,-1.1 0.4,-2.2 1.5,-2.5 1.1,-0.2 2.2,0.4 2.5,1.5 l 1,4.4 -1,4.4 c -0.2,0.9 -1,1.6 -2,1.6 z m -1.8,-15.6 c -0.9,0 -1.8,-0.6 -2,-1.6 l -1.8,-7.8 c -0.3,-1.1 0.4,-2.2 1.5,-2.5 1.1,-0.3 2.2,0.4 2.5,1.5 l 1.8,7.8 c 0.3,1.1 -0.4,2.2 -1.5,2.5 -0.2,0 -0.3,0.1 -0.5,0.1 z m -3.5,-15.6 c -0.9,0 -1.8,-0.6 -2,-1.6 l -1.8,-7.8 c -0.3,-1.1 0.4,-2.2 1.5,-2.5 1.1,-0.3 2.2,0.4 2.5,1.5 l 1.8,7.8 c 0.3,1.1 -0.4,2.2 -1.5,2.5 -0.2,0.1 -0.4,0.1 -0.5,0.1 z m -3.6,-15.6 c -0.9,0 -1.8,-0.6 -2,-1.6 l -1.8,-7.8 c -0.3,-1.1 0.4,-2.2 1.5,-2.5 1.1,-0.3 2.2,0.4 2.5,1.5 l 1.8,7.8 c 0.3,1.1 -0.4,2.2 -1.5,2.5 -0.2,0.1 -0.3,0.1 -0.5,0.1 z"
               id="path103"
               inkscape:connector-curvature="0"
               style="fill:#ffffff" /></g><g
             id="g105"><path
               class="st1"
               d="m 264.6,448 c -0.9,0 -1.8,-0.6 -2,-1.6 l -1.1,-5 3.2,-4 c 0.7,-0.9 2,-1 2.9,-0.3 0.9,0.7 1,2 0.3,2.9 l -1.9,2.4 0.7,3 c 0.3,1.1 -0.4,2.2 -1.5,2.5 -0.3,0.1 -0.5,0.1 -0.6,0.1 z"
               id="path107"
               inkscape:connector-curvature="0"
               style="fill:#ffffff" /></g><g
             id="g109"><path
               class="st1"
               d="m 271.2,434.5 c -0.4,0 -0.9,-0.1 -1.3,-0.4 -0.9,-0.7 -1,-2 -0.3,-2.9 l 5,-6.3 c 0.7,-0.9 2,-1 2.9,-0.3 0.9,0.7 1,2 0.3,2.9 l -5,6.3 c -0.4,0.5 -1,0.7 -1.6,0.7 z m 10,-12.5 c -0.4,0 -0.9,-0.1 -1.3,-0.4 -0.9,-0.7 -1,-2 -0.3,-2.9 l 5,-6.3 c 0.7,-0.9 2,-1 2.9,-0.3 0.9,0.7 1,2 0.3,2.9 l -5,6.3 c -0.4,0.4 -1,0.7 -1.6,0.7 z m 9.9,-12.5 c -0.4,0 -0.9,-0.1 -1.3,-0.4 -0.9,-0.7 -1,-2 -0.3,-2.9 l 5,-6.3 c 0.7,-0.9 2,-1 2.9,-0.3 0.9,0.7 1,2 0.3,2.9 l -5,6.3 c -0.4,0.4 -1,0.7 -1.6,0.7 z m 10,-12.5 c -0.4,0 -0.9,-0.1 -1.3,-0.4 -0.9,-0.7 -1,-2 -0.3,-2.9 l 2.2,-2.8 0.8,-3.4 c 0.3,-1.1 1.4,-1.8 2.5,-1.5 1.1,0.3 1.8,1.4 1.5,2.5 l -1,4.4 -2.8,3.5 c -0.4,0.3 -1,0.6 -1.6,0.6 z m 5.2,-14.8 c -0.2,0 -0.3,0 -0.5,-0.1 -1.1,-0.3 -1.8,-1.4 -1.5,-2.5 l 1.8,-7.8 c 0.3,-1.1 1.4,-1.8 2.5,-1.5 1.1,0.3 1.8,1.4 1.5,2.5 l -1.8,7.8 c -0.2,0.9 -1.1,1.6 -2,1.6 z m 3.5,-15.6 c -0.2,0 -0.3,0 -0.5,-0.1 -1.1,-0.3 -1.8,-1.4 -1.5,-2.5 l 1.8,-7.8 c 0.3,-1.1 1.4,-1.8 2.5,-1.5 1.1,0.3 1.8,1.4 1.5,2.5 l -1.8,7.8 c -0.2,0.9 -1,1.6 -2,1.6 z m 3.6,-15.6 c -0.2,0 -0.3,0 -0.5,-0.1 -1.1,-0.3 -1.8,-1.4 -1.5,-2.5 l 1.8,-7.8 c 0.3,-1.1 1.4,-1.8 2.5,-1.5 1.1,0.3 1.8,1.4 1.5,2.5 l -1.8,7.8 c -0.2,0.9 -1.1,1.6 -2,1.6 z"
               id="path111"
               inkscape:connector-curvature="0"
               style="fill:#ffffff" /></g><g
             id="g113"><path
               class="st1"
               d="m 317,335.4 c -0.2,0 -0.3,0 -0.5,-0.1 -1.1,-0.3 -1.8,-1.4 -1.5,-2.5 l 1.1,-5 4.6,-2.2 c 1,-0.5 2.2,-0.1 2.7,1 0.5,1 0.1,2.2 -1,2.7 l -2.8,1.4 -0.7,3 c -0.2,1.1 -1,1.7 -1.9,1.7 z"
               id="path115"
               inkscape:connector-curvature="0"
               style="fill:#ffffff" /></g><g
             id="g117"><path
               class="st1"
               d="m 328.8,326.1 c -0.8,0 -1.5,-0.4 -1.9,-1.2 -0.5,-1 -0.1,-2.2 1,-2.7 l 7.2,-3.5 c 1,-0.5 2.2,-0.1 2.7,1 0.5,1 0.1,2.2 -1,2.7 l -7.2,3.5 c -0.2,0.2 -0.5,0.2 -0.8,0.2 z m 14.4,-6.9 c -0.8,0 -1.5,-0.4 -1.9,-1.2 -0.5,-1 -0.1,-2.2 1,-2.7 l 7.2,-3.5 c 1,-0.5 2.2,-0.1 2.7,1 0.5,1 0.1,2.2 -1,2.7 L 344,319 c -0.2,0.1 -0.5,0.2 -0.8,0.2 z m 14.4,-6.9 c -0.8,0 -1.5,-0.4 -1.9,-1.2 -0.5,-1 -0.1,-2.2 1,-2.7 l 7.2,-3.5 c 1,-0.5 2.2,-0.1 2.7,1 0.5,1 0.1,2.2 -1,2.7 l -7.2,3.5 c -0.2,0.1 -0.5,0.2 -0.8,0.2 z m 14.4,-7 c -0.8,0 -1.5,-0.4 -1.9,-1.2 -0.5,-1 -0.1,-2.2 1,-2.7 l 3.2,-1.5 2.2,-2.8 c 0.7,-0.9 2,-1 2.9,-0.3 0.9,0.7 1,2 0.3,2.9 l -2.8,3.5 -4,1.9 c -0.3,0.2 -0.6,0.2 -0.9,0.2 z m 11.1,-11.1 c -0.4,0 -0.9,-0.1 -1.3,-0.4 -0.9,-0.7 -1,-2 -0.3,-2.9 l 5,-6.3 c 0.7,-0.9 2,-1 2.9,-0.3 0.9,0.7 1,2 0.3,2.9 l -5,6.3 c -0.4,0.4 -1,0.7 -1.6,0.7 z m 10,-12.5 c -0.4,0 -0.9,-0.1 -1.3,-0.4 -0.9,-0.7 -1,-2 -0.3,-2.9 l 5,-6.3 c 0.7,-0.9 2,-1 2.9,-0.3 0.9,0.7 1,2 0.3,2.9 l -5,6.3 c -0.4,0.4 -1,0.7 -1.6,0.7 z m 9.9,-12.5 c -0.4,0 -0.9,-0.1 -1.3,-0.4 -0.9,-0.7 -1,-2 -0.3,-2.9 l 5,-6.3 c 0.7,-0.9 2,-1 2.9,-0.3 0.9,0.7 1,2 0.3,2.9 l -5,6.3 c -0.4,0.4 -1,0.7 -1.6,0.7 z"
               id="path119"
               inkscape:connector-curvature="0"
               style="fill:#ffffff" /></g><g
             id="g121"><path
               class="st1"
               d="m 413,256.7 c -0.4,0 -0.9,-0.1 -1.3,-0.4 -0.9,-0.7 -1,-2 -0.3,-2.9 l 3.2,-4 5.1,0 c 1.1,0 2.1,0.9 2.1,2.1 0,1.2 -0.9,2.1 -2.1,2.1 l -3.1,0 -1.9,2.4 c -0.5,0.4 -1.1,0.7 -1.7,0.7 z"
               id="path123"
               inkscape:connector-curvature="0"
               style="fill:#ffffff" /></g><g
             id="g125"><path
               class="st1"
               d="m 480.1,253.5 -4.5,0 c -1.1,0 -2.1,-0.9 -2.1,-2.1 0,-1.2 0.9,-2.1 2.1,-2.1 l 3.5,0 3.2,-1.5 c 1,-0.5 2.2,-0.1 2.7,1 0.5,1 0.1,2.2 -1,2.7 l -3.9,2 z m -12.4,0 -8,0 c -1.1,0 -2.1,-0.9 -2.1,-2.1 0,-1.2 0.9,-2.1 2.1,-2.1 l 8,0 c 1.1,0 2.1,0.9 2.1,2.1 0,1.2 -1,2.1 -2.1,2.1 z m -16,0 -8,0 c -1.1,0 -2.1,-0.9 -2.1,-2.1 0,-1.2 0.9,-2.1 2.1,-2.1 l 8,0 c 1.1,0 2.1,0.9 2.1,2.1 0,1.2 -1,2.1 -2.1,2.1 z m -16,0 -8,0 c -1.1,0 -2.1,-0.9 -2.1,-2.1 0,-1.2 0.9,-2.1 2.1,-2.1 l 8,0 c 1.1,0 2.1,0.9 2.1,2.1 0,1.2 -1,2.1 -2.1,2.1 z m 54.8,-5.2 c -0.8,0 -1.5,-0.4 -1.9,-1.2 -0.5,-1 -0.1,-2.2 1,-2.7 l 7.2,-3.5 c 1,-0.5 2.2,-0.1 2.7,1 0.5,1 0.1,2.2 -1,2.7 l -7.2,3.5 c -0.2,0.1 -0.5,0.2 -0.8,0.2 z m 14.4,-7 c -0.8,0 -1.5,-0.4 -1.9,-1.2 -0.5,-1 -0.1,-2.2 1,-2.7 l 7.2,-3.5 c 1,-0.5 2.2,-0.1 2.7,1 0.5,1 0.1,2.2 -1,2.7 l -7.2,3.5 c -0.2,0.2 -0.5,0.2 -0.8,0.2 z m 14.4,-6.9 c -0.8,0 -1.5,-0.4 -1.9,-1.2 -0.5,-1 -0.1,-2.2 1,-2.7 l 7.2,-3.5 c 1,-0.5 2.2,-0.1 2.7,1 0.5,1 0.1,2.2 -1,2.7 l -7.2,3.5 c -0.2,0.1 -0.5,0.2 -0.8,0.2 z"
               id="path127"
               inkscape:connector-curvature="0"
               style="fill:#ffffff" /></g></g></g></g></switch></svg>