<?xml version="1.0" encoding="UTF-8" standalone="no"?>
<svg
   xmlns:dc="http://purl.org/dc/elements/1.1/"
   xmlns:cc="http://creativecommons.org/ns#"
   xmlns:rdf="http://www.w3.org/1999/02/22-rdf-syntax-ns#"
   xmlns:svg="http://www.w3.org/2000/svg"
   xmlns="http://www.w3.org/2000/svg"
   xmlns:sodipodi="http://sodipodi.sourceforge.net/DTD/sodipodi-0.dtd"
   xmlns:inkscape="http://www.inkscape.org/namespaces/inkscape"
   version="1.1"
   id="Layer_1"
   x="0px"
   y="0px"
   viewBox="0 0 1000 1000"
   width="100%"
   height="100%"
   style="enable-background:new 0 0 1000 1000;"
   xml:space="preserve"
   ><style
     type="text/css"
     id="style4755">
	.noFillSVG{fill:none;}
</style><switch
     id="switch4757"
     transform="translate(-2.0382272,6.5)"><g
       id="g4759"><g
         id="g4761"><path
           class="noFillSVG"
           d="m 384.6,329.1 c 3.2,2 6.4,4.1 9.5,6.3 0.1,0.1 0.1,0.1 0.2,0.2 9.8,-6.7 20.2,-12.4 31.1,-17.1 -12.5,-3.2 -25.5,-5.9 -37.7,-10.3 -11.7,-4.2 -21.9,-11.4 -31.8,-18.8 5.8,15.8 15.6,29.4 28.7,39.7 z"
           id="path4763"
           inkscape:connector-curvature="0"
           style="fill:none" /><path
           class="noFillSVG"
           d="m 459.5,246.2 c -1.8,12.2 -3.8,24.5 -9,35.8 -5.4,11.8 -12.6,22.8 -19.2,34 11,-4.4 22.4,-7.7 34,-10 0,-0.1 0,-0.2 0,-0.3 0.6,-3.8 1.4,-7.5 2.2,-11.2 1.8,-16.6 -0.9,-33.1 -8,-48.3 z"
           id="path4765"
           inkscape:connector-curvature="0"
           style="fill:none" /><path
           class="noFillSVG"
           d="m 361.7,157.5 c -3.7,9.9 -7.1,20.8 -8.7,31.8 0.2,0.1 0.4,0.2 0.6,0.4 8.6,9.3 18.8,16.3 30.5,21.2 4.8,-11.7 6.9,-23.9 6.3,-36.6 0,-0.3 0,-0.5 0.1,-0.7 -9.1,-6.5 -19.2,-11.7 -28.8,-16.1 z"
           id="path4767"
           inkscape:connector-curvature="0"
           style="fill:none" /><path
           class="noFillSVG"
           d="m 483,284.9 c 1.9,5.9 3.3,11.9 4,18.1 9.5,-0.8 19.1,-0.8 28.8,-0.1 0.7,-6.2 2.1,-12.2 3.9,-18.1 -4.6,-14.5 -10.8,-28.5 -18.5,-41.7 -7.6,13.3 -13.7,27.3 -18.2,41.8 z"
           id="path4769"
           inkscape:connector-curvature="0"
           style="fill:none" /><path
           class="noFillSVG"
           d="m 478,304 c 2.2,-0.3 4.4,-0.5 6.7,-0.7 -0.6,-4.9 -1.6,-9.6 -2.9,-14.3 -1.5,4.9 -2.7,9.9 -3.8,15 z"
           id="path4771"
           inkscape:connector-curvature="0"
           style="fill:none" /><path
           class="noFillSVG"
           d="m 363.4,240 c -5.5,-1.6 -10.7,-3.8 -15.7,-6.5 14.6,20.5 37.6,31.8 61.5,37.8 12.5,-21.3 20.6,-45.6 16.3,-70.3 -1.6,5.5 -3.7,10.7 -6.4,15.7 -0.5,0.9 -2.2,1 -2.2,-0.3 -1,-17.4 -10.6,-30.4 -23.4,-40.5 0.3,13.1 -2,25.6 -7.2,37.7 -0.2,0.4 -0.4,0.6 -0.7,0.8 0,0 -0.1,0.1 -0.1,0.1 0,0 -0.1,0 -0.1,0 -0.3,0.1 -0.7,0.1 -1,0 -12.2,-4.8 -22.7,-12 -31.8,-21.4 -1.8,16.2 0.6,32.2 12.3,45.1 0.7,0.9 -0.5,2.1 -1.5,1.8 z"
           id="path4773"
           inkscape:connector-curvature="0"
           style="fill:none" /><path
           class="noFillSVG"
           d="m 555.7,266.8 c -3.3,-5.2 -6.2,-10.5 -8.8,-16.1 1.7,10.2 3.8,20.4 8.2,29.8 5.6,12 13.1,23.2 19.8,34.6 0.1,0.2 0.1,0.3 0.2,0.5 0.1,-0.1 0.3,-0.2 0.5,-0.2 12.7,-3.4 26,-6.1 38.4,-10.7 9.8,-3.6 18.4,-9.3 26.8,-15.4 -5.7,2.1 -11.5,3.9 -17.5,5.2 -1.2,0.3 -1.7,-1.4 -0.9,-2.1 16.7,-14.6 28.2,-33.8 33.1,-55.3 -15,19.7 -38,30.8 -61.7,36.9 -0.6,0.2 -1.1,-0.1 -1.3,-0.4 -0.5,0.1 -0.9,-0.1 -1.3,-0.6 -12.6,-21 -21.1,-45 -18,-69.6 -11.6,18.7 -17,40.4 -15.4,62.6 0.1,1 -1.4,1.8 -2.1,0.8 z"
           id="path4775"
           inkscape:connector-curvature="0"
           style="fill:none" /><path
           class="noFillSVG"
           d="m 521,288.8 c -1.3,4.7 -2.2,9.4 -2.8,14.3 2.2,0.2 4.4,0.5 6.7,0.7 -1.2,-5.1 -2.5,-10.1 -3.9,-15 z"
           id="path4777"
           inkscape:connector-curvature="0"
           style="fill:none" /><path
           class="noFillSVG"
           d="m 297,348.7 c 7.4,9.9 14.6,20 18.9,31.7 0,0 0,0.1 0,0.1 l 23.1,0 c -0.7,-1.1 -1.5,-2.2 -2.3,-3.4 -10.3,-12.9 -23.9,-22.7 -39.7,-28.4 z"
           id="path4779"
           inkscape:connector-curvature="0"
           style="fill:none" /><path
           class="noFillSVG"
           d="m 379.6,295.2 c -6,-1.3 -11.8,-3 -17.6,-5.1 8.4,6 17.1,11.7 26.9,15.3 12.4,4.5 25.7,7.2 38.5,10.5 0.2,0.1 0.3,0.1 0.5,0.2 0,-0.2 0.1,-0.3 0.2,-0.5 6.6,-11.4 14.1,-22.7 19.6,-34.7 4.3,-9.5 6.4,-19.6 8,-29.9 -2.5,5.5 -5.4,10.9 -8.7,16.1 -0.7,1.1 -2.2,0.2 -2.1,-0.9 1.5,-22.2 -4,-43.9 -15.7,-62.5 3.3,24.6 -5.1,48.6 -17.6,69.7 -0.3,0.6 -0.8,0.7 -1.3,0.6 -0.3,0.4 -0.7,0.6 -1.3,0.4 -23.8,-6 -46.8,-16.9 -61.9,-36.5 5,21.4 16.6,40.6 33.4,55.1 0.7,0.8 0.3,2.5 -0.9,2.2 z"
           id="path4781"
           inkscape:connector-curvature="0"
           style="fill:none" /><path
           class="noFillSVG"
           d="m 302.9,372.3 c 0.3,1.2 -1.4,1.7 -2.1,0.9 -14.6,-16.7 -33.8,-28.2 -55.3,-33.1 13.7,10.4 23.2,24.7 29.8,40.4 l 37.4,0 c -3.6,-9.3 -9.1,-17.7 -15,-25.7 2.1,5.7 3.8,11.5 5.2,17.5 z"
           id="path4783"
           inkscape:connector-curvature="0"
           style="fill:none" /><path
           class="noFillSVG"
           d="m 324.3,317 c 4,14.8 9.6,29 16.7,42.5 5.5,2.8 10.7,6.1 15.6,9.9 6.3,-7.3 13.1,-14.1 20.3,-20.4 -3.8,-4.9 -7.1,-10.1 -10,-15.6 -13.5,-7 -27.8,-12.5 -42.6,-16.4 z"
           id="path4785"
           inkscape:connector-curvature="0"
           style="fill:none" /><path
           class="noFillSVG"
           d="m 241,340.7 c 2.7,5 4.9,10.1 6.6,15.7 0.3,1 -0.8,2.2 -1.8,1.4 -13,-11.6 -29,-14 -45.2,-12.1 9.5,9 16.7,19.5 21.6,31.7 0.2,0.4 0.1,0.7 0,1 0,0 0,0.1 0,0.1 0,0 0,0.1 -0.1,0.1 -0.1,0.3 -0.4,0.6 -0.8,0.7 -0.8,0.4 -1.7,0.7 -2.5,1 l 53.1,0 C 265.1,364.8 255.2,350.8 241,340.7 Z"
           id="path4787"
           inkscape:connector-curvature="0"
           style="fill:none" /><path
           class="noFillSVG"
           d="m 806.6,640.3 c 0.2,0.2 0.3,0.4 0.4,0.6 11,-1.7 21.8,-5.2 31.7,-8.9 -4.2,-9.1 -9.2,-18.6 -15.2,-27.1 l -21.2,0 c -5.8,1.1 -11.5,2.8 -17.1,5.1 5,11.7 12,21.7 21.4,30.3 z"
           id="path4789"
           inkscape:connector-curvature="0"
           style="fill:none" /><path
           class="noFillSVG"
           d="m 383.9,343.2 c -4.4,-2.8 -8.8,-5.4 -13.3,-7.9 2.4,4.2 5.1,8.3 8.1,12.1 1.7,-1.4 3.5,-2.8 5.2,-4.2 z"
           id="path4791"
           inkscape:connector-curvature="0"
           style="fill:none" /><path
           class="noFillSVG"
           d="M 573.3,319.6 C 550,310 525.8,305.5 502.1,305.5 c -58.5,0 -114.8,27.5 -150.5,75 l 300.6,0 c -20.1,-26.8 -47.1,-47.8 -78.9,-60.9 z"
           id="path4793"
           inkscape:connector-curvature="0"
           style="fill:none" /><path
           class="noFillSVG"
           d="m 355,371.1 c -3.8,-3 -7.9,-5.7 -12.1,-8 2.5,4.5 5.1,8.9 7.9,13.2 1.4,-1.7 2.8,-3.5 4.2,-5.2 z"
           id="path4795"
           inkscape:connector-curvature="0"
           style="fill:none" /><path
           class="noFillSVG"
           d="m 197.3,346.8 c -0.2,-0.2 -0.3,-0.4 -0.4,-0.6 -11,1.7 -21.8,5.2 -31.7,8.9 3.9,8.4 8.5,17.2 14,25.3 l 30,0 c 3.2,-0.9 6.4,-2 9.6,-3.3 -5.1,-11.6 -12.1,-21.7 -21.5,-30.3 z"
           id="path4797"
           inkscape:connector-curvature="0"
           style="fill:none" /><path
           class="noFillSVG"
           d="m 617.2,341 c 5.5,-3.6 11.3,-7 17.2,-10.1 14.2,-7.5 29.4,-13.4 45,-17.6 0.1,-0.2 0.1,-0.5 0.2,-0.7 0.3,-1.4 2.4,-1.2 2.3,0.1 1.2,-0.1 1.4,2 0.1,2.3 -0.2,0.1 -0.5,0.1 -0.7,0.2 -4.1,15.6 -9.9,30.8 -17.4,45.1 -3.1,5.9 -6.4,11.7 -10,17.2 0.7,1 1.5,2 2.2,2.9 l 3.8,0 c 16,-23.7 27.8,-51.6 33.5,-79.4 -28.8,6.1 -57.8,18.7 -82,35.8 2,1.4 3.9,2.8 5.8,4.2 z"
           id="path4799"
           inkscape:connector-curvature="0"
           style="fill:none" /><path
           class="noFillSVG"
           d="m 781.1,377.2 c 0,0 -0.1,-0.1 -0.1,-0.1 0,0 0,-0.1 0,-0.1 -0.1,-0.3 -0.1,-0.7 0,-1 4.8,-12.2 12,-22.7 21.4,-31.8 -16.2,-1.8 -32.2,0.6 -45.1,12.3 -1,0.9 -2.1,-0.4 -1.8,-1.4 1.6,-5.5 3.8,-10.7 6.5,-15.7 -14.5,10.4 -24.4,25 -31.1,41.2 l 57.9,0 c -2.3,-0.8 -4.6,-1.6 -6.9,-2.6 -0.4,-0.3 -0.6,-0.5 -0.8,-0.8 z"
           id="path4801"
           inkscape:connector-curvature="0"
           style="fill:none" /><path
           class="noFillSVG"
           d="m 672.6,365.8 c 10.4,-10.1 23.1,-17.7 37.2,-22.1 0.9,-0.3 2,0.5 1.5,1.5 -3.2,7.1 -5.8,14.3 -7.7,21.9 16.4,-17.4 37.7,-28.6 61.4,-32.3 1.1,-0.2 1.6,1.1 1.1,1.9 -3,4.9 -5.4,10 -7.2,15.3 23.4,-18.1 55.5,-10 81.1,-0.4 0.3,0.1 0.5,0.3 0.6,0.6 0,0 0,0 0,0 0,0 0,0 0,0.1 0.1,0.2 0.1,0.5 0,0.9 -4.1,9.1 -9,18.7 -14.9,27.4 l 8.9,0 c 5.1,-9.9 9,-20.7 12.6,-31.1 -23.9,-11.5 -50.7,-23.5 -77.2,-13 -1.2,0.5 -2.6,-0.8 -2,-2 1.1,-2.5 2.2,-5 3.3,-7.5 -20.5,-0.8 -40.1,5.7 -56,18.7 -1,0.9 -2.7,-0.1 -2.5,-1.4 0.7,-4 1.3,-8.1 2,-12.1 -13.2,5.1 -25.2,12.3 -35.8,21.7 -2.1,3.9 -4.1,7.9 -6.4,11.9 z"
           id="path4803"
           inkscape:connector-curvature="0"
           style="fill:none" /><path
           class="noFillSVG"
           d="m 806.2,344.5 c -0.1,0.2 -0.2,0.4 -0.4,0.6 -9.3,8.6 -16.3,18.8 -21.2,30.5 5.4,2.2 10.9,3.8 16.6,4.9 l 21.8,0 c 6,-8.6 10.9,-18.1 15.1,-27.2 -10.1,-3.7 -20.9,-7.1 -31.9,-8.8 z"
           id="path4805"
           inkscape:connector-curvature="0"
           style="fill:none" /><path
           class="noFillSVG"
           d="m 543,240.6 c 0.4,-0.8 1.8,-1 2.2,0 2.7,7.3 6.1,14.2 10,20.9 -0.7,-23.8 6.4,-46.9 20.5,-66.3 0.6,-0.9 1.9,-0.4 2.1,0.6 1.3,5.6 3.2,10.8 5.7,15.9 3.8,-29.3 32.2,-46.3 57,-57.6 0.3,-0.1 0.6,-0.1 0.9,0 0,0 0,0 0.1,0 0,0 0,0 0,0 0.2,0.1 0.5,0.3 0.6,0.6 9.7,25.5 18,57.6 0,81.1 5.4,-1.9 10.4,-4.2 15.3,-7.3 0.8,-0.5 2,0 1.9,1.1 -3.6,23.7 -14.7,45.1 -32,61.6 7.5,-1.9 14.7,-4.5 21.8,-7.8 1,-0.5 1.8,0.6 1.5,1.5 -4.3,14.2 -11.8,26.9 -21.9,37.4 4,-2.2 8,-4.3 12.1,-6.3 9.3,-10.7 16.4,-22.7 21.5,-35.9 -4,0.7 -8.1,1.4 -12.1,2.1 -1.3,0.2 -2.3,-1.5 -1.5,-2.5 12.9,-16 19.3,-35.7 18.4,-56.1 -2.5,1.1 -5,2.2 -7.5,3.3 -1.3,0.6 -2.5,-0.8 -2,-2 10.3,-26.6 -1.7,-53.3 -13.4,-77.2 -25.1,8.8 -52.4,19.3 -63.8,45.4 -0.5,1.2 -2.4,1.3 -2.9,0 -1,-2.5 -2,-5.1 -3,-7.6 -15.1,13.9 -24.3,32.4 -26.4,52.8 -0.1,1.3 -2,1.9 -2.8,0.8 -2.4,-3.3 -4.8,-6.7 -7.2,-10 -5.7,12.9 -9.1,26.5 -10,40.6 1.5,4.3 2.9,8.6 4.1,13 0.3,-14.7 3.9,-29 10.8,-42.1 z"
           id="path4807"
           inkscape:connector-curvature="0"
           style="fill:none" /><path
           class="noFillSVG"
           d="m 475.5,304.3 c 1.4,-6.5 3,-13 5,-19.4 4.8,-15.4 11.3,-30.3 19.4,-44.2 -0.1,-0.2 -0.2,-0.4 -0.4,-0.6 -0.7,-1.2 0.9,-2.5 1.7,-1.6 0.8,-0.9 2.4,0.4 1.7,1.6 -0.1,0.2 -0.2,0.4 -0.4,0.6 8.1,13.9 14.7,28.8 19.6,44.1 2,6.4 3.7,12.8 5.1,19.3 2.3,0.3 4.7,0.7 7,1.1 -5.1,-29.2 -16.9,-58.5 -33.1,-83.1 -16.1,24.7 -27.7,54.1 -32.6,83.3 2.4,-0.4 4.7,-0.8 7,-1.1 z"
           id="path4809"
           inkscape:connector-curvature="0"
           style="fill:none" /><path
           class="noFillSVG"
           d="m 347.7,380.5 c 0.5,-0.7 1.1,-1.5 1.6,-2.2 -3.6,-5.5 -7,-11.2 -10.1,-17.1 -7.5,-14.2 -13.4,-29.4 -17.6,-45 -0.2,-0.1 -0.5,-0.1 -0.7,-0.2 -1.4,-0.3 -1.2,-2.4 0.1,-2.3 -0.1,-1.2 2,-1.4 2.3,-0.1 0.1,0.2 0.1,0.5 0.2,0.7 15.6,4.1 30.8,9.9 45.1,17.4 5.9,3.1 11.7,6.4 17.2,10 1.9,-1.4 3.8,-2.8 5.7,-4.2 -24.2,-17 -53.3,-29.4 -82.2,-35.4 5.8,27.4 17.5,54.9 33.4,78.3 l 5,0 z"
           id="path4811"
           inkscape:connector-curvature="0"
           style="fill:none" /><path
           class="noFillSVG"
           d="m 176.3,380.5 c -5.4,-8.2 -10,-17.1 -13.9,-25.5 -0.1,-0.3 -0.1,-0.6 0,-0.9 0,0 0,0 0,-0.1 0,0 0,0 0,0 0.1,-0.2 0.3,-0.5 0.6,-0.6 25.5,-9.7 57.6,-18 81.1,0 -1.9,-5.4 -4.2,-10.4 -7.3,-15.3 -0.5,-0.8 0,-2 1.1,-1.9 23.7,3.6 45.1,14.7 61.6,32 -1.9,-7.5 -4.5,-14.7 -7.8,-21.8 -0.5,-1 0.6,-1.8 1.5,-1.5 14.2,4.3 26.9,11.8 37.4,21.9 -2.2,-4 -4.3,-8 -6.3,-12.1 -10.7,-9.3 -22.7,-16.4 -35.9,-21.5 0.7,4 1.4,8.1 2.1,12.1 0.2,1.3 -1.5,2.3 -2.5,1.5 -16,-12.9 -35.7,-19.3 -56.1,-18.4 1.1,2.5 2.2,5 3.3,7.5 0.6,1.3 -0.8,2.5 -2,2 -26.6,-10.3 -53.3,1.7 -77.2,13.4 3.4,9.7 7.1,19.8 11.8,29.1 l 8.5,0 z"
           id="path4813"
           inkscape:connector-curvature="0"
           style="fill:none" /><path
           class="noFillSVG"
           d="m 374.2,322.9 c -10.1,-10.4 -17.7,-23.1 -22.1,-37.2 -0.3,-0.9 0.5,-2 1.5,-1.5 7.1,3.2 14.3,5.8 21.9,7.7 -17.4,-16.4 -28.6,-37.7 -32.3,-61.4 -0.2,-1.1 1.1,-1.6 1.9,-1.1 4.9,3 10,5.4 15.3,7.2 -18.1,-23.4 -10,-55.5 -0.4,-81.1 0.1,-0.3 0.3,-0.5 0.6,-0.6 0,0 0,0 0,0 0,0 0,0 0.1,0 0.2,-0.1 0.5,-0.1 0.9,0 24.9,11.2 53.4,28 57.3,57.3 2.5,-5.1 4.3,-10.3 5.6,-16 0.2,-0.9 1.4,-1.4 2.1,-0.6 14.2,19.3 21.5,42.3 20.9,66.2 3.9,-6.7 7.2,-13.6 9.9,-20.9 0.4,-1 1.7,-0.8 2.2,0 7,13.1 10.7,27.4 11,41.9 1.2,-4.4 2.6,-8.7 4.1,-13 -1,-14.1 -4.4,-27.7 -10.2,-40.6 -2.4,3.3 -4.7,6.7 -7.1,10 -0.8,1.1 -2.7,0.6 -2.8,-0.7 -2.2,-20.4 -11.6,-38.9 -26.7,-52.7 -1,2.6 -2,5.1 -2.9,7.7 -0.5,1.3 -2.4,1.2 -2.9,0 -11.5,-26.1 -38.9,-36.4 -64,-45.1 -11.5,23.9 -23.5,50.7 -13,77.2 0.5,1.2 -0.8,2.6 -2,2 -2.5,-1.1 -5,-2.2 -7.5,-3.3 -0.8,20.5 5.7,40.1 18.7,56 0.9,1 -0.1,2.7 -1.4,2.5 -4,-0.7 -8.1,-1.3 -12.1,-2 5.1,13.2 12.3,25.2 21.7,35.8 3.6,2 7.7,4 11.7,6.3 z"
           id="path4815"
           inkscape:connector-curvature="0"
           style="fill:none" /><path
           class="noFillSVG"
           d="m 646.5,368.6 c 4.9,-3.8 10.1,-7.2 15.6,-10 7,-13.5 12.5,-27.8 16.4,-42.6 -14.8,4 -29,9.6 -42.5,16.7 -2.8,5.5 -6.1,10.7 -9.9,15.6 7.4,6.2 14.2,13 20.4,20.3 z"
           id="path4817"
           inkscape:connector-curvature="0"
           style="fill:none" /><path
           class="noFillSVG"
           d="m 757.5,338.7 c -21.4,5 -40.6,16.6 -55.1,33.4 -0.7,0.8 -2.4,0.4 -2.1,-0.9 1.3,-6 3,-11.8 5.1,-17.6 -6,8.4 -11.7,17.1 -15.3,26.8 l 37.3,0 c 6.6,-16.1 16.2,-30.9 30.1,-41.7 z"
           id="path4819"
           inkscape:connector-curvature="0"
           style="fill:none" /><path
           class="noFillSVG"
           d="m 535.3,294.3 c 0.8,3.7 1.6,7.4 2.2,11.2 0,0.1 0,0.2 0,0.3 11.4,2.2 22.8,5.5 34.1,9.9 -6.6,-11.1 -13.9,-22.2 -19.3,-33.9 -5.3,-11.3 -7.4,-23.5 -9.2,-35.7 -7.1,15.1 -9.8,31.7 -7.8,48.2 z"
           id="path4821"
           inkscape:connector-curvature="0"
           style="fill:none" /><path
           class="noFillSVG"
           d="m 624.4,346.7 c 3,-3.9 5.7,-7.9 8.1,-12.1 -4.5,2.5 -8.9,5.1 -13.3,8 1.7,1.3 3.4,2.7 5.2,4.1 z"
           id="path4823"
           inkscape:connector-curvature="0"
           style="fill:none" /><path
           class="noFillSVG"
           d="m 585.5,216 c -0.1,1.3 -1.7,1.2 -2.2,0.3 -2.8,-5 -4.9,-10.2 -6.5,-15.7 -4.2,24.8 4.1,49 16.7,70.2 23.9,-6.2 46.8,-17.6 61.3,-38.2 -5,2.7 -10.1,4.9 -15.7,6.6 -1,0.3 -2.2,-0.8 -1.4,-1.8 11.6,-13 14,-29 12.1,-45.2 -9,9.5 -19.5,16.7 -31.7,21.6 -0.4,0.2 -0.7,0.1 -1,0 0,0 -0.1,0 -0.1,0 0,0 -0.1,0 -0.1,-0.1 -0.3,-0.1 -0.6,-0.4 -0.7,-0.8 -5.2,-12.1 -7.6,-24.6 -7.4,-37.6 -12.8,10.2 -22.4,23.3 -23.3,40.7 z"
           id="path4825"
           inkscape:connector-curvature="0"
           style="fill:none" /><path
           class="noFillSVG"
           d="m 608.7,335 c 0.1,-0.1 0.1,-0.1 0.2,-0.2 3.1,-2.2 6.3,-4.3 9.5,-6.4 13,-10.4 22.7,-24 28.5,-39.8 -9.9,7.4 -20,14.6 -31.7,18.9 -12.1,4.5 -25.1,7.2 -37.6,10.5 11,4.8 21.4,10.5 31.1,17 z"
           id="path4827"
           inkscape:connector-curvature="0"
           style="fill:none" /><path
           class="noFillSVG"
           d="m 618.4,210.3 c 11.7,-4.9 21.8,-12 30.3,-21.4 0.2,-0.2 0.4,-0.3 0.6,-0.4 -1.7,-11 -5.2,-21.8 -8.9,-31.7 -9.6,4.4 -19.7,9.7 -28.7,16.3 0.1,0.2 0.1,0.4 0.1,0.7 -0.5,12.7 1.7,24.8 6.6,36.5 z"
           id="path4829"
           inkscape:connector-curvature="0"
           style="fill:none" /><path
           class="noFillSVG"
           d="m 666.4,376.2 c -0.9,1.4 -1.9,2.8 -2.8,4.3 l 23.3,0 c 0.1,-0.4 0.3,-0.8 0.4,-1.1 4.2,-11.7 11.4,-21.9 18.8,-31.8 -15.8,5.7 -29.4,15.6 -39.7,28.6 z"
           id="path4831"
           inkscape:connector-curvature="0"
           style="fill:none" /><path
           class="noFillSVG"
           d="m 648.1,370.3 c 1.4,1.7 2.8,3.5 4.2,5.2 2.8,-4.4 5.4,-8.8 7.9,-13.4 -4.2,2.5 -8.3,5.2 -12.1,8.2 z"
           id="path4833"
           inkscape:connector-curvature="0"
           style="fill:none" /><path
           class="noFillSVG"
           d="m 448.2,720.4 c 3.3,5.2 6.2,10.5 8.8,16.1 -1.7,-10.2 -3.8,-20.4 -8.2,-29.8 -5.6,-12 -13.1,-23.2 -19.8,-34.6 -0.1,-0.2 -0.1,-0.3 -0.2,-0.5 -0.1,0.1 -0.3,0.2 -0.5,0.2 -12.7,3.4 -26,6.1 -38.4,10.7 -9.8,3.6 -18.4,9.3 -26.8,15.4 5.7,-2.1 11.5,-3.9 17.5,-5.2 1.2,-0.3 1.7,1.4 0.9,2.1 -16.7,14.6 -28.2,33.8 -33.1,55.3 15,-19.7 38,-30.8 61.7,-36.9 0.6,-0.2 1.1,0.1 1.3,0.4 0.5,-0.1 0.9,0.1 1.3,0.6 12.6,21 21.1,45 18,69.6 11.6,-18.7 17,-40.4 15.4,-62.6 -0.1,-1 1.4,-1.9 2.1,-0.8 z"
           id="path4835"
           inkscape:connector-curvature="0"
           style="fill:none" /><path
           class="noFillSVG"
           d="m 197.7,642.6 c 0.1,-0.2 0.2,-0.4 0.4,-0.6 9.3,-8.6 16.3,-18.8 21.2,-30.5 -11.7,-4.8 -23.9,-6.9 -36.6,-6.3 -0.3,0 -0.5,0 -0.7,-0.1 -6.5,9 -11.8,19.1 -16.1,28.7 9.9,3.7 20.8,7.1 31.8,8.8 z"
           id="path4837"
           inkscape:connector-curvature="0"
           style="fill:none" /><path
           class="noFillSVG"
           d="m 386.6,646.2 c -5.5,3.6 -11.2,7 -17.1,10 -14.2,7.5 -29.4,13.4 -45,17.6 -0.1,0.2 -0.1,0.5 -0.2,0.7 -0.3,1.4 -2.4,1.2 -2.3,-0.1 -1.2,0.1 -1.4,-2 -0.1,-2.3 0.2,-0.1 0.5,-0.1 0.7,-0.2 4.1,-15.6 9.9,-30.8 17.4,-45.1 3.1,-5.9 6.4,-11.6 9.9,-17.1 -1.2,-1.6 -2.4,-3.2 -3.6,-4.9 l -1.2,0 c -16.6,24 -28.9,52.7 -34.7,81.2 28.8,-6.1 57.8,-18.7 81.9,-35.8 -1.9,-1.2 -3.8,-2.6 -5.7,-4 z"
           id="path4839"
           inkscape:connector-curvature="0"
           style="fill:none" /><path
           class="noFillSVG"
           d="m 222.7,610 c 0,0 0.1,0.1 0.1,0.1 0,0 0,0.1 0,0.1 0.1,0.3 0.1,0.7 0,1 -4.8,12.2 -12,22.7 -21.4,31.8 16.2,1.8 32.2,-0.6 45.1,-12.3 1,-0.9 2.1,0.4 1.8,1.4 -1.6,5.5 -3.8,10.7 -6.5,15.7 15.1,-10.7 25.2,-26.1 31.9,-43 l -64.7,0 c 4.3,1.1 8.6,2.6 12.9,4.4 0.5,0.2 0.7,0.5 0.8,0.8 z"
           id="path4841"
           inkscape:connector-curvature="0"
           style="fill:none" /><path
           class="noFillSVG"
           d="m 331.2,621.3 c -10.4,10.1 -23.1,17.7 -37.2,22.1 -0.9,0.3 -2,-0.5 -1.5,-1.5 3.2,-7.1 5.8,-14.3 7.7,-21.9 -16.4,17.4 -37.7,28.6 -61.4,32.3 -1.1,0.2 -1.6,-1.1 -1.1,-1.9 3,-4.9 5.4,-10 7.2,-15.3 -23.4,18.1 -55.5,10 -81.1,0.4 -0.3,-0.1 -0.5,-0.3 -0.6,-0.6 0,0 0,0 0,0 0,0 0,0 0,-0.1 -0.1,-0.2 -0.1,-0.5 0,-0.9 4.4,-9.7 9.6,-20 16.2,-29.2 l -9.2,0 c -5.6,10.4 -9.7,21.8 -13.5,32.8 23.9,11.5 50.7,23.5 77.2,13 1.2,-0.5 2.6,0.8 2,2 -1.1,2.5 -2.2,5 -3.3,7.5 20.5,0.8 40.1,-5.7 56,-18.7 1,-0.9 2.7,0.1 2.5,1.4 -0.7,4 -1.3,8.1 -2,12.1 13.2,-5.1 25.2,-12.3 35.8,-21.7 2,-3.7 4.1,-7.8 6.3,-11.8 z"
           id="path4843"
           inkscape:connector-curvature="0"
           style="fill:none" /><path
           class="noFillSVG"
           d="m 246.3,648.5 c 21.4,-5 40.6,-16.6 55.1,-33.4 0.7,-0.8 2.4,-0.4 2.1,0.9 -1.3,6 -3,11.8 -5.1,17.6 6,-8.4 11.7,-17.1 15.3,-26.9 0.2,-0.6 0.4,-1.2 0.6,-1.7 l -37.2,0 c -6.5,16.8 -16.3,32.3 -30.8,43.5 z"
           id="path4845"
           inkscape:connector-curvature="0"
           style="fill:none" /><path
           class="noFillSVG"
           d="m 343.7,624.9 c 4.2,-2.4 8.2,-5.1 12,-8 -1.4,-1.7 -2.8,-3.4 -4.2,-5.2 -2.8,4.3 -5.4,8.7 -7.8,13.2 z"
           id="path4847"
           inkscape:connector-curvature="0"
           style="fill:none" /><path
           class="noFillSVG"
           d="m 325.3,671.2 c 14.8,-4 29,-9.6 42.5,-16.7 2.8,-5.5 6.1,-10.7 9.8,-15.5 -7.3,-6.2 -14.1,-13 -20.4,-20.3 -4.8,3.8 -10,7.1 -15.5,9.9 -6.9,13.5 -12.4,27.8 -16.4,42.6 z"
           id="path4849"
           inkscape:connector-curvature="0"
           style="fill:none" /><path
           class="noFillSVG"
           d="m 468.6,692.9 c -0.8,-3.7 -1.6,-7.4 -2.2,-11.2 0,-0.1 0,-0.2 0,-0.3 -11.4,-2.2 -22.8,-5.4 -34,-9.8 6.6,11.1 13.8,22.1 19.3,33.8 5.3,11.3 7.4,23.5 9.2,35.7 7,-15.1 9.6,-31.7 7.7,-48.2 z"
           id="path4851"
           inkscape:connector-curvature="0"
           style="fill:none" /><path
           class="noFillSVG"
           d="m 379.5,640.5 c -3,3.8 -5.6,7.8 -8,12.1 4.5,-2.5 8.9,-5.1 13.2,-7.9 -1.8,-1.4 -3.5,-2.8 -5.2,-4.2 z"
           id="path4853"
           inkscape:connector-curvature="0"
           style="fill:none" /><path
           class="noFillSVG"
           d="m 337.4,610.9 c 1.3,-2 2.7,-4 4,-6.1 l -23.9,0 c -0.3,1 -0.7,2 -1,2.9 -4.2,11.7 -11.4,21.9 -18.8,31.8 15.9,-5.7 29.4,-15.5 39.7,-28.6 z"
           id="path4855"
           inkscape:connector-curvature="0"
           style="fill:none" /><path
           class="noFillSVG"
           d="m 460.9,746.5 c -0.4,0.8 -1.8,1 -2.2,0 -2.7,-7.3 -6.1,-14.2 -10,-20.9 0.7,23.8 -6.4,46.9 -20.5,66.3 -0.6,0.9 -1.9,0.4 -2.1,-0.6 -1.3,-5.6 -3.2,-10.8 -5.7,-15.9 -3.8,29.3 -32.2,46.3 -57,57.6 -0.3,0.1 -0.6,0.1 -0.9,0 0,0 0,0 0,0 0,0 0,0 0,0 -0.2,-0.1 -0.5,-0.3 -0.6,-0.6 -9.7,-25.5 -18,-57.6 0,-81.1 -5.4,1.9 -10.4,4.2 -15.3,7.3 -0.8,0.5 -2,0 -1.9,-1.1 3.6,-23.7 14.7,-45.1 32,-61.6 -7.5,1.9 -14.7,4.5 -21.8,7.8 -1,0.5 -1.8,-0.6 -1.5,-1.5 4.3,-14.2 11.8,-26.9 21.9,-37.4 -4,2.2 -8,4.3 -12.1,6.3 -9.3,10.7 -16.4,22.7 -21.5,35.9 4,-0.7 8.1,-1.4 12.1,-2.1 1.3,-0.2 2.3,1.5 1.5,2.5 -12.9,16 -19.3,35.7 -18.4,56.1 2.5,-1.1 5,-2.2 7.5,-3.3 1.3,-0.6 2.5,0.8 2,2 -10.3,26.6 1.7,53.3 13.4,77.2 25.1,-8.8 52.4,-19.3 63.8,-45.4 0.5,-1.2 2.4,-1.3 2.9,0 1,2.5 2,5.1 3,7.6 15.1,-13.9 24.3,-32.4 26.4,-52.8 0.1,-1.3 2,-1.9 2.8,-0.8 2.4,3.3 4.8,6.7 7.2,10 5.7,-12.9 9.1,-26.5 10,-40.6 -1.5,-4.3 -2.9,-8.6 -4.1,-13 -0.4,14.7 -4,29 -10.9,42.1 z"
           id="path4857"
           inkscape:connector-curvature="0"
           style="fill:none" /><path
           class="noFillSVG"
           d="m 762.8,646.4 c -2.7,-5 -4.9,-10.1 -6.6,-15.7 -0.3,-1 0.8,-2.2 1.8,-1.4 13,11.6 29,14 45.2,12.1 -9.5,-9 -16.7,-19.5 -21.6,-31.7 -0.2,-0.4 -0.1,-0.7 0,-1 0,0 0,-0.1 0,-0.1 0,0 0,-0.1 0.1,-0.1 0.1,-0.3 0.4,-0.6 0.8,-0.7 2.4,-1.1 4.9,-2 7.4,-2.8 l -58.7,0 c 6.9,16.2 16.9,31 31.6,41.4 z"
           id="path4859"
           inkscape:connector-curvature="0"
           style="fill:none" /><path
           class="noFillSVG"
           d="m 826.4,604.9 c 6,8.7 10.9,18.2 15.1,27.3 0.1,0.3 0.1,0.6 0,0.9 0,0 0,0 0,0.1 0,0 0,0 0,0 -0.1,0.2 -0.3,0.5 -0.6,0.6 -25.5,9.7 -57.6,18 -81.1,0 1.9,5.4 4.2,10.4 7.3,15.3 0.5,0.8 0,2 -1.1,1.9 -23.7,-3.6 -45.1,-14.7 -61.6,-32 1.9,7.5 4.5,14.7 7.8,21.8 0.5,1 -0.6,1.8 -1.5,1.5 -14.2,-4.3 -26.9,-11.8 -37.4,-21.9 2.2,4 4.3,8 6.3,12.1 10.7,9.3 22.7,16.4 35.9,21.5 -0.7,-4 -1.4,-8.1 -2.1,-12.1 -0.2,-1.3 1.5,-2.3 2.5,-1.5 16,12.9 35.7,19.3 56.1,18.4 -1.1,-2.5 -2.2,-5 -3.3,-7.5 -0.6,-1.3 0.8,-2.5 2,-2 26.6,10.3 53.3,-1.7 77.2,-13.4 -3.6,-10.4 -7.6,-21.1 -12.7,-30.9 l -8.8,0 z"
           id="path4861"
           inkscape:connector-curvature="0"
           style="fill:none" /><path
           class="noFillSVG"
           d="m 528.4,682.8 c -1.4,6.5 -3,13 -5,19.4 -4.8,15.4 -11.3,30.3 -19.4,44.2 0.1,0.2 0.2,0.4 0.4,0.6 0.7,1.2 -0.9,2.5 -1.7,1.6 -0.8,0.9 -2.4,-0.4 -1.7,-1.6 0.1,-0.2 0.2,-0.4 0.4,-0.6 -8.1,-13.9 -14.7,-28.8 -19.6,-44.1 -2,-6.4 -3.7,-12.8 -5.1,-19.3 -2.3,-0.3 -4.7,-0.7 -7,-1.1 5.1,29.1 16.9,58.5 33.1,83.1 16.1,-24.7 27.7,-54.2 32.6,-83.4 -2.4,0.5 -4.7,0.9 -7,1.2 z"
           id="path4863"
           inkscape:connector-curvature="0"
           style="fill:none" /><path
           class="noFillSVG"
           d="m 629.7,664.3 c 10.1,10.4 17.7,23.1 22.1,37.2 0.3,0.9 -0.5,2 -1.5,1.5 -7.1,-3.2 -14.3,-5.8 -21.9,-7.7 17.4,16.4 28.6,37.7 32.3,61.4 0.2,1.1 -1.1,1.6 -1.9,1.1 -4.9,-3 -10,-5.4 -15.3,-7.2 18.1,23.4 10,55.5 0.4,81.1 -0.1,0.3 -0.3,0.5 -0.6,0.6 0,0 0,0 0,0 0,0 0,0 0,0 -0.2,0.1 -0.5,0.1 -0.9,0 -24.9,-11.2 -53.4,-28 -57.3,-57.3 -2.5,5.1 -4.3,10.3 -5.6,16 -0.2,0.9 -1.4,1.4 -2.1,0.6 -14.2,-19.3 -21.5,-42.3 -20.9,-66.2 -3.9,6.7 -7.2,13.6 -9.9,20.9 -0.4,1 -1.7,0.8 -2.2,0 -7,-13.1 -10.7,-27.4 -11,-41.9 -1.2,4.4 -2.6,8.7 -4.1,13 1,14.1 4.4,27.7 10.2,40.6 2.4,-3.3 4.7,-6.7 7.1,-10 0.8,-1.1 2.7,-0.6 2.8,0.7 2.2,20.4 11.6,38.9 26.7,52.7 1,-2.6 2,-5.1 2.9,-7.7 0.5,-1.3 2.4,-1.2 2.9,0 11.5,26.1 38.9,36.4 64,45.1 11.5,-23.9 23.5,-50.7 13,-77.2 -0.5,-1.2 0.8,-2.6 2,-2 2.5,1.1 5,2.2 7.5,3.3 0.8,-20.5 -5.7,-40.1 -18.7,-56 -0.9,-1 0.1,-2.7 1.4,-2.5 4,0.7 8.1,1.3 12.1,2 -5.1,-13.2 -12.3,-25.2 -21.7,-35.8 -3.8,-2 -7.8,-4.1 -11.8,-6.3 z"
           id="path4865"
           inkscape:connector-curvature="0"
           style="fill:none" /><path
           class="noFillSVG"
           d="m 657.3,604.9 c -0.9,1.3 -1.9,2.6 -2.8,3.8 3.6,5.6 7,11.3 10.2,17.2 7.5,14.2 13.4,29.4 17.6,45 0.2,0.1 0.5,0.1 0.7,0.2 1.4,0.3 1.2,2.4 -0.1,2.3 0.1,1.2 -2,1.4 -2.3,0.1 -0.1,-0.2 -0.1,-0.5 -0.2,-0.7 -15.6,-4.1 -30.8,-9.9 -45.1,-17.4 -6,-3.1 -11.7,-6.5 -17.3,-10.1 -1.9,1.4 -3.8,2.8 -5.7,4.2 24.3,17 53.4,29.5 82.2,35.4 -6,-28.1 -18.1,-56.3 -34.6,-80.1 l -2.6,0 z"
           id="path4867"
           inkscape:connector-curvature="0"
           style="fill:none" /><path
           class="noFillSVG"
           d="m 640.5,747.2 c 5.5,1.6 10.7,3.8 15.7,6.5 -14.6,-20.5 -37.6,-31.8 -61.5,-37.8 -12.5,21.3 -20.6,45.6 -16.3,70.3 1.6,-5.5 3.7,-10.7 6.4,-15.7 0.5,-0.9 2.2,-1 2.2,0.3 1,17.4 10.6,30.4 23.4,40.5 -0.3,-13.1 2,-25.6 7.2,-37.7 0.2,-0.4 0.4,-0.6 0.7,-0.8 0,0 0.1,-0.1 0.1,-0.1 0,0 0.1,0 0.1,0 0.3,-0.1 0.7,-0.1 1,0 12.2,4.8 22.7,12 31.8,21.4 1.8,-16.2 -0.6,-32.2 -12.3,-45.1 -0.7,-1 0.5,-2.1 1.5,-1.8 z"
           id="path4869"
           inkscape:connector-curvature="0"
           style="fill:none" /><path
           class="noFillSVG"
           d="m 619.9,643.9 c 4.4,2.8 8.9,5.5 13.4,7.9 -2.4,-4.3 -5.1,-8.3 -8.2,-12.2 -1.7,1.5 -3.5,2.9 -5.2,4.3 z"
           id="path4871"
           inkscape:connector-curvature="0"
           style="fill:none" /><path
           class="noFillSVG"
           d="m 648.7,616 c 3.9,3 7.9,5.7 12.2,8.1 -2.5,-4.5 -5.2,-9 -8,-13.3 -1.3,1.7 -2.7,3.4 -4.2,5.2 z"
           id="path4873"
           inkscape:connector-curvature="0"
           style="fill:none" /><path
           class="noFillSVG"
           d="m 642.2,829.6 c 3.7,-9.9 7.1,-20.8 8.7,-31.8 -0.2,-0.1 -0.4,-0.2 -0.6,-0.4 -8.6,-9.3 -18.8,-16.3 -30.5,-21.2 -4.8,11.7 -6.9,23.9 -6.3,36.6 0,0.3 0,0.5 -0.1,0.7 9,6.5 19.2,11.7 28.8,16.1 z"
           id="path4875"
           inkscape:connector-curvature="0"
           style="fill:none" /><path
           class="noFillSVG"
           d="m 679.5,670.2 c -4,-14.8 -9.6,-29 -16.7,-42.5 -5.5,-2.8 -10.8,-6.1 -15.7,-10 -6.3,7.3 -13.1,14.1 -20.3,20.4 3.9,4.9 7.2,10.1 10.1,15.6 13.6,7.1 27.8,12.5 42.6,16.5 z"
           id="path4877"
           inkscape:connector-curvature="0"
           style="fill:none" /><path
           class="noFillSVG"
           d="m 624.3,692 c 6,1.3 11.8,3 17.6,5.1 -8.4,-6 -17.1,-11.7 -26.9,-15.3 -12.4,-4.5 -25.7,-7.2 -38.5,-10.5 -0.2,-0.1 -0.3,-0.1 -0.5,-0.2 0,0.2 -0.1,0.3 -0.2,0.5 -6.6,11.4 -14.1,22.7 -19.6,34.7 -4.3,9.5 -6.4,19.6 -8,29.9 2.5,-5.5 5.4,-10.9 8.7,-16.1 0.7,-1.1 2.2,-0.2 2.1,0.9 -1.5,22.2 4,43.9 15.7,62.5 -3.3,-24.6 5.1,-48.6 17.6,-69.7 0.3,-0.6 0.8,-0.7 1.3,-0.6 0.3,-0.4 0.7,-0.6 1.3,-0.4 23.8,6 46.8,16.9 61.9,36.5 -5,-21.4 -16.6,-40.6 -33.4,-55.1 -0.8,-0.8 -0.3,-2.5 0.9,-2.2 z"
           id="path4879"
           inkscape:connector-curvature="0"
           style="fill:none" /><path
           class="noFillSVG"
           d="m 430.4,667.5 c 23.3,9.6 47.5,14.1 71.2,14.1 59.3,0 116.1,-28.2 151.8,-76.7 l -303.2,0 c 20.2,27.6 47.7,49.3 80.2,62.6 z"
           id="path4881"
           inkscape:connector-curvature="0"
           style="fill:none" /><path
           class="noFillSVG"
           d="m 706.2,632.4 c -2.1,-5.7 -3.9,-11.5 -5.2,-17.5 -0.3,-1.2 1.4,-1.7 2.1,-0.9 14.6,16.7 33.8,28.2 55.3,33.1 -14.2,-10.8 -23.9,-25.8 -30.5,-42.2 l -37.3,0 c 0.1,0.2 0.1,0.5 0.2,0.7 3.6,9.7 9.3,18.4 15.4,26.8 z"
           id="path4883"
           inkscape:connector-curvature="0"
           style="fill:none" /><path
           class="noFillSVG"
           d="m 706.9,638.5 c -7.4,-9.9 -14.6,-20 -18.9,-31.7 -0.2,-0.6 -0.4,-1.3 -0.7,-1.9 l -23.6,0 c 1.2,1.7 2.4,3.4 3.5,5.1 10.3,13 23.9,22.8 39.7,28.5 z"
           id="path4885"
           inkscape:connector-curvature="0"
           style="fill:none" /><path
           class="noFillSVG"
           d="m 482.9,698.4 c 1.3,-4.7 2.2,-9.5 2.8,-14.3 -2.2,-0.2 -4.4,-0.4 -6.7,-0.7 1.2,5 2.4,10 3.9,15 z"
           id="path4887"
           inkscape:connector-curvature="0"
           style="fill:none" /><path
           class="noFillSVG"
           d="m 395.1,652.2 c 0,0 -0.1,0.1 -0.1,0.1 -3.1,2.2 -6.3,4.3 -9.5,6.4 -13,10.4 -22.7,24 -28.5,39.8 9.9,-7.4 20,-14.6 31.7,-18.9 12.1,-4.5 25,-7.2 37.5,-10.5 -11,-4.7 -21.4,-10.4 -31.1,-16.9 z"
           id="path4889"
           inkscape:connector-curvature="0"
           style="fill:none" /><path
           class="noFillSVG"
           d="m 525.9,683.2 c -2.2,0.3 -4.5,0.5 -6.7,0.7 0.6,4.9 1.6,9.7 2.9,14.4 1.5,-5 2.7,-10.1 3.8,-15.1 z"
           id="path4891"
           inkscape:connector-curvature="0"
           style="fill:none" /><path
           class="noFillSVG"
           d="m 385.5,776.8 c -11.7,4.9 -21.8,12 -30.3,21.4 -0.2,0.2 -0.4,0.3 -0.6,0.4 1.7,11 5.2,21.8 8.9,31.7 9.6,-4.4 19.7,-9.7 28.7,-16.3 -0.1,-0.2 -0.1,-0.4 -0.1,-0.7 0.4,-12.6 -1.8,-24.7 -6.6,-36.5 z"
           id="path4893"
           inkscape:connector-curvature="0"
           style="fill:none" /><path
           class="noFillSVG"
           d="m 418.4,771.2 c 0.1,-1.3 1.7,-1.2 2.2,-0.3 2.8,5 4.9,10.2 6.5,15.7 4.2,-24.8 -4.1,-49 -16.7,-70.2 -23.9,6.2 -46.8,17.6 -61.3,38.2 5,-2.7 10.1,-4.9 15.7,-6.6 1,-0.3 2.2,0.8 1.4,1.8 -11.6,13 -14,29 -12.1,45.2 9,-9.5 19.5,-16.7 31.7,-21.6 0.4,-0.2 0.7,-0.1 1,0 0,0 0.1,0 0.1,0 0,0 0.1,0 0.1,0.1 0.3,0.1 0.6,0.4 0.7,0.8 5.2,12.1 7.6,24.6 7.4,37.6 12.8,-10.3 22.4,-23.3 23.3,-40.7 z"
           id="path4895"
           inkscape:connector-curvature="0"
           style="fill:none" /><path
           class="noFillSVG"
           d="m 544.4,740.9 c 1.8,-12.2 3.8,-24.5 9,-35.8 5.4,-11.8 12.7,-22.9 19.2,-34.1 -11,4.4 -22.4,7.8 -34.1,10.1 0,0.1 0,0.2 0,0.4 -0.6,3.8 -1.4,7.5 -2.2,11.2 -1.8,16.5 1,33.1 8.1,48.2 z"
           id="path4897"
           inkscape:connector-curvature="0"
           style="fill:none" /><path
           class="noFillSVG"
           d="m 619.3,658.1 c -3.2,-2 -6.4,-4.1 -9.5,-6.3 -0.1,-0.1 -0.2,-0.2 -0.3,-0.3 -9.8,6.7 -20.2,12.4 -31.1,17.2 12.6,3.2 25.6,5.9 37.8,10.3 11.7,4.2 21.9,11.4 31.8,18.8 -5.8,-15.9 -15.7,-29.4 -28.7,-39.7 z"
           id="path4899"
           inkscape:connector-curvature="0"
           style="fill:none" /><path
           class="noFillSVG"
           d="m 520.9,702.2 c -1.9,-5.9 -3.3,-11.9 -4,-18.1 -5.1,0.4 -10.1,0.6 -15.3,0.6 -4.5,0 -9,-0.2 -13.5,-0.5 -0.7,6.2 -2.1,12.2 -3.9,18.1 4.6,14.5 10.8,28.5 18.5,41.7 7.5,-13.3 13.7,-27.2 18.2,-41.8 z"
           id="path4901"
           inkscape:connector-curvature="0"
           style="fill:none" /><path
           d="m 851.3,635.6 c -3.6,-10.3 -7.5,-20.9 -12.5,-30.7 l 11.8,0 0,-1.6 0,-1.6 -13.5,0 -3.5,0 -9.5,0 -22,0 -72.1,0 -3.3,0 -37.1,0 -3.4,0 -24.7,0 -2.1,0 -1.5,0 -2.3,0 -307.6,0 -1.5,0 -2.3,0 c -0.1,-0.1 -0.2,-0.3 -0.3,-0.4 0,0 -0.1,0.1 -0.1,0.1 -0.1,0.1 -0.1,0.2 -0.2,0.3 l -24.9,0 -3.3,0 -37,0 -3.3,0 -90.4,0 -2.9,0 -9.7,0 -3.5,0 -15.9,0 0,1.6 0,1.6 14.2,0 c -5.5,10.4 -9.6,21.7 -13.3,32.6 -0.2,0.6 -0.1,1.1 0.2,1.4 0.1,0.5 0.3,0.9 0.9,1.2 24,11.6 50.6,23.3 77.1,14.6 -0.9,2.1 -1.9,4.2 -2.8,6.3 -0.4,0.9 0.2,2.1 1.2,2.1 20.7,1.4 40.8,-4.5 57.3,-16.8 -0.6,3.6 -1.2,7.3 -1.8,10.9 -0.2,1.2 1.1,2 2.2,1.7 12.5,-4.5 23.9,-10.9 34.2,-19 -6.7,15.1 -11.7,30.9 -14.9,47.3 -0.3,0.4 -0.3,0.9 -0.2,1.4 0,0.2 0.1,0.5 0.2,0.6 0,0.1 0.1,0.1 0.1,0.2 0,0 0.1,0.1 0.2,0.1 0.2,0.1 0.4,0.2 0.6,0.2 0.5,0.1 1,0.1 1.3,-0.2 16.3,-3.3 32.1,-8.4 47.2,-15.2 -8.1,10.4 -14.4,21.8 -18.8,34.3 -0.4,1.1 0.4,2.4 1.7,2.1 3.6,-0.6 7.3,-1.2 10.9,-1.9 -12.2,16.6 -18,36.7 -16.5,57.4 0.1,1 1.3,1.6 2.1,1.2 2.1,-0.9 4.2,-1.9 6.3,-2.8 -8.5,26.6 3.4,53.1 15.1,77 0.3,0.5 0.7,0.8 1.2,0.9 0.4,0.3 0.9,0.4 1.4,0.2 25.1,-8.8 52.2,-19.3 64.9,-44.2 0.8,2.1 1.7,4.3 2.5,6.4 0.3,0.9 1.6,1.3 2.4,0.6 15.6,-13.7 25.7,-32 28.7,-52.4 2.1,3 4.3,6 6.4,9 0.7,1 2.2,0.7 2.7,-0.4 5.6,-12 9.2,-24.6 10.7,-37.6 6,15.4 13.6,30.1 22.8,44 0.1,0.7 0.7,1.3 1.4,1.4 0.1,0 0.1,0 0.2,0 0.1,0 0.1,0 0.2,0 0.7,-0.1 1.3,-0.7 1.4,-1.4 9.2,-13.9 16.7,-28.7 22.6,-44.1 1.6,13 5.3,25.6 11,37.6 0.5,1 2,1.4 2.7,0.3 2.1,-3 4.3,-6 6.4,-9 3.1,20.4 13.3,38.7 29,52.3 0.8,0.7 2,0.2 2.4,-0.7 0.8,-2.2 1.7,-4.3 2.5,-6.5 12.8,24.8 39.9,35.2 65.1,43.8 0.6,0.2 1.1,0.1 1.4,-0.2 0.5,-0.1 0.9,-0.3 1.2,-0.9 11.6,-24 23.3,-50.6 14.6,-77.1 2.1,0.9 4.2,1.9 6.3,2.8 0.9,0.4 2.1,-0.2 2.1,-1.2 1.4,-20.7 -4.5,-40.8 -16.8,-57.3 3.6,0.6 7.3,1.2 10.9,1.8 1.2,0.2 2,-1.1 1.7,-2.2 -4.5,-12.5 -10.9,-23.9 -19,-34.2 15.1,6.7 30.9,11.7 47.3,14.9 0.4,0.3 0.9,0.3 1.4,0.2 0.2,0 0.5,-0.1 0.6,-0.2 0.1,0 0.1,-0.1 0.2,-0.1 0,0 0.1,-0.1 0.1,-0.2 0.1,-0.2 0.2,-0.4 0.2,-0.6 0.1,-0.5 0.1,-1 -0.2,-1.3 -3.3,-16.3 -8.4,-32.1 -15.2,-47.2 10.4,8.1 21.8,14.4 34.3,18.8 1.1,0.4 2.4,-0.4 2.1,-1.7 -0.6,-3.6 -1.2,-7.3 -1.9,-10.9 16.6,12.2 36.7,18 57.4,16.5 1,-0.1 1.6,-1.3 1.2,-2.1 -0.9,-2.1 -1.9,-4.2 -2.8,-6.3 26.6,8.5 53.1,-3.4 77,-15.1 0.5,-0.3 0.8,-0.7 0.9,-1.2 0.3,-0.1 0.5,-0.6 0.3,-1.2 z m -49,-30.7 21.2,0 c 6.1,8.5 11,18 15.2,27.1 -9.9,3.7 -20.8,7.2 -31.7,8.9 -0.1,-0.2 -0.2,-0.4 -0.4,-0.6 -9.4,-8.6 -16.5,-18.7 -21.4,-30.3 5.6,-2.3 11.3,-4 17.1,-5.1 z m -12.4,0 c -2.5,0.8 -5,1.7 -7.4,2.8 -0.4,0.2 -0.6,0.4 -0.8,0.7 0,0 -0.1,0.1 -0.1,0.1 0,0 0,0.1 0,0.1 -0.1,0.3 -0.1,0.7 0,1 4.9,12.2 12.1,22.7 21.6,31.7 -16.2,1.9 -32.2,-0.5 -45.2,-12.1 -1,-0.9 -2.1,0.4 -1.8,1.4 1.6,5.5 3.8,10.7 6.6,15.7 -14.7,-10.4 -24.8,-25.2 -31.6,-41.5 l 58.7,0 z m -62,0 c 6.6,16.4 16.3,31.3 30.5,42.2 -21.5,-4.9 -40.7,-16.3 -55.3,-33.1 -0.7,-0.8 -2.4,-0.4 -2.1,0.9 1.3,6 3.1,11.8 5.2,17.5 -6.1,-8.4 -11.8,-17 -15.4,-26.8 -0.1,-0.2 -0.1,-0.5 -0.2,-0.7 l 37.3,0 z m -40.6,0 c 0.2,0.6 0.4,1.3 0.7,1.9 4.3,11.7 11.6,21.8 18.9,31.7 -15.8,-5.7 -29.4,-15.5 -39.8,-28.5 -1.1,-1.7 -2.3,-3.4 -3.5,-5.1 l 23.7,0 z m -33.9,0 c -35.6,48.5 -92.5,76.7 -151.8,76.7 -23.8,0 -47.9,-4.5 -71.2,-14.1 -32.5,-13.3 -59.9,-35 -80.1,-62.6 l 303.1,0 z m -26.5,33.2 c 7.2,-6.2 14,-13 20.3,-20.4 4.9,3.8 10.1,7.1 15.7,10 7.1,13.5 12.6,27.7 16.7,42.5 -14.8,-4 -29,-9.4 -42.6,-16.4 -2.9,-5.6 -6.2,-10.8 -10.1,-15.7 z m 6.4,13.7 c -4.6,-2.5 -9,-5.1 -13.4,-7.9 1.8,-1.4 3.5,-2.8 5.2,-4.2 3,3.8 5.8,7.9 8.2,12.1 z M 648.7,616 c 1.4,-1.7 2.8,-3.5 4.2,-5.2 2.8,4.4 5.5,8.8 8,13.3 -4.2,-2.4 -8.3,-5.1 -12.2,-8.1 z m -25.2,78.1 c 16.8,14.5 28.4,33.7 33.4,55.1 -15.1,-19.6 -38.2,-30.6 -61.9,-36.5 -0.6,-0.2 -1.1,0.1 -1.3,0.4 -0.5,-0.1 -0.9,0.1 -1.3,0.6 -12.4,21.1 -20.9,45.2 -17.6,69.7 -11.7,-18.7 -17.2,-40.3 -15.7,-62.5 0.1,-1.1 -1.4,-1.9 -2.1,-0.9 -3.3,5.2 -6.2,10.6 -8.7,16.1 1.6,-10.2 3.7,-20.4 8,-29.9 5.5,-12 13,-23.3 19.6,-34.7 0.1,-0.2 0.1,-0.3 0.2,-0.5 0.1,0.1 0.3,0.2 0.5,0.2 12.8,3.3 26,6 38.5,10.5 9.8,3.6 18.5,9.2 26.9,15.3 -5.7,-2.1 -11.5,-3.8 -17.6,-5.1 -1.3,-0.2 -1.8,1.5 -0.9,2.2 z m 15.6,54.9 c 11.7,12.9 14.1,28.9 12.3,45.1 -9.1,-9.4 -19.6,-16.6 -31.8,-21.4 -0.4,-0.2 -0.7,-0.1 -1,0 0,0 -0.1,0 -0.1,0 0,0 -0.1,0 -0.1,0.1 -0.3,0.1 -0.6,0.4 -0.7,0.8 -5.1,12.1 -7.5,24.6 -7.2,37.7 -12.8,-10.1 -22.5,-23.1 -23.4,-40.5 -0.1,-1.3 -1.7,-1.2 -2.2,-0.3 -2.7,5.1 -4.9,10.3 -6.4,15.7 -4.3,-24.7 3.8,-49.1 16.3,-70.3 23.9,6.1 46.9,17.4 61.5,37.8 -5,-2.7 -10.2,-4.9 -15.7,-6.5 -1.1,-0.3 -2.3,0.8 -1.5,1.8 z m -19.2,27.2 c 11.7,4.9 21.8,11.9 30.5,21.2 0.2,0.2 0.4,0.3 0.6,0.4 -1.7,11 -5.1,21.9 -8.7,31.8 -9.6,-4.4 -19.8,-9.6 -28.7,-16.1 0.1,-0.2 0.1,-0.4 0.1,-0.7 -0.7,-12.7 1.5,-24.9 6.2,-36.6 z m -81.4,-95.1 c 11.7,-2.3 23.1,-5.7 34.1,-10.1 -6.5,11.2 -13.8,22.3 -19.2,34.1 -5.2,11.3 -7.2,23.6 -9,35.8 -7.1,-15.2 -9.8,-31.7 -8,-48.2 0.8,-3.7 1.5,-7.5 2.2,-11.2 0,-0.2 -0.1,-0.3 -0.1,-0.4 z m 77.7,-2.2 c -12.2,-4.4 -25.2,-7.1 -37.8,-10.3 10.9,-4.7 21.3,-10.5 31.1,-17.2 0.1,0.1 0.2,0.2 0.3,0.3 3.1,2.2 6.3,4.3 9.5,6.3 13,10.3 22.9,23.9 28.7,39.6 -10,-7.2 -20.1,-14.4 -31.8,-18.7 z m -128.1,5.3 c 4.5,0.3 9,0.5 13.5,0.5 5.1,0 10.2,-0.2 15.3,-0.6 0.8,6.2 2.1,12.2 4,18.1 -4.5,14.5 -10.7,28.5 -18.3,41.8 -7.7,-13.3 -13.9,-27.2 -18.5,-41.7 1.9,-5.9 3.2,-11.9 4,-18.1 z m -5.2,14.2 c -1.5,-4.9 -2.7,-9.9 -3.8,-15 2.2,0.3 4.4,0.5 6.7,0.7 -0.7,4.8 -1.6,9.6 -2.9,14.3 z m 36.3,-14.5 c 2.2,-0.2 4.5,-0.5 6.7,-0.7 -1.1,5.1 -2.3,10.1 -3.8,15.1 -1.3,-4.7 -2.3,-9.5 -2.9,-14.4 z m -88.5,100 c 3.2,-24.6 -5.4,-48.6 -18,-69.6 -0.3,-0.5 -0.8,-0.7 -1.3,-0.6 -0.3,-0.4 -0.7,-0.6 -1.3,-0.4 -23.7,6.1 -46.7,17.2 -61.7,36.9 4.9,-21.5 16.3,-40.7 33.1,-55.3 0.8,-0.7 0.4,-2.4 -0.9,-2.1 -6,1.3 -11.8,3.1 -17.5,5.2 8.4,-6.1 17,-11.8 26.8,-15.4 12.4,-4.6 25.6,-7.3 38.4,-10.7 0.2,-0.1 0.3,-0.1 0.5,-0.2 0,0.2 0.1,0.3 0.2,0.5 6.7,11.4 14.2,22.6 19.8,34.6 4.4,9.4 6.5,19.6 8.2,29.8 -2.6,-5.5 -5.4,-10.9 -8.8,-16.1 -0.7,-1.1 -2.2,-0.2 -2.1,0.9 1.6,22 -3.8,43.7 -15.4,62.5 z m -38.5,30.2 c -8.9,6.6 -19,11.9 -28.7,16.3 -3.7,-9.9 -7.2,-20.8 -8.9,-31.7 0.2,-0.1 0.4,-0.2 0.6,-0.4 8.6,-9.4 18.7,-16.5 30.3,-21.4 4.8,11.7 7,23.8 6.5,36.5 0,0.3 0.1,0.5 0.2,0.7 z m -4.4,-39.9 c -0.2,-0.4 -0.4,-0.6 -0.7,-0.8 0,0 -0.1,-0.1 -0.1,-0.1 0,0 -0.1,0 -0.1,0 -0.3,-0.1 -0.7,-0.1 -1,0 -12.2,4.9 -22.7,12.1 -31.7,21.6 -1.9,-16.2 0.5,-32.2 12.1,-45.2 0.9,-1 -0.4,-2.1 -1.4,-1.8 -5.5,1.6 -10.7,3.8 -15.7,6.6 14.5,-20.5 37.4,-32 61.3,-38.2 12.6,21.2 20.9,45.5 16.7,70.2 -1.6,-5.4 -3.8,-10.6 -6.5,-15.7 -0.5,-0.9 -2.2,-1 -2.2,0.3 -0.9,17.4 -10.5,30.5 -23.2,40.6 0.1,-13 -2.3,-25.5 -7.5,-37.5 z M 357,698.5 c 5.7,-15.8 15.5,-29.4 28.5,-39.8 3.2,-2.1 6.4,-4.2 9.5,-6.4 0.1,0 0.1,-0.1 0.1,-0.1 9.7,6.5 20.1,12.2 31.1,16.9 -12.5,3.3 -25.4,6 -37.5,10.5 -11.6,4.3 -21.8,11.5 -31.7,18.9 z m 94.7,6.9 c -5.5,-11.7 -12.7,-22.7 -19.3,-33.8 11.2,4.4 22.6,7.6 34,9.8 0,0.1 0,0.2 0,0.3 0.6,3.8 1.4,7.5 2.2,11.2 1.9,16.5 -0.7,33.1 -7.7,48.3 -1.9,-12.2 -4,-24.5 -9.2,-35.8 z m -94.5,-86.7 c 6.3,7.3 13.1,14.1 20.4,20.3 -3.8,4.9 -7,10 -9.8,15.5 -13.5,7.1 -27.7,12.6 -42.5,16.7 4,-14.8 9.4,-29 16.4,-42.6 5.5,-2.8 10.7,-6.1 15.5,-9.9 z m -13.5,6.2 c 2.4,-4.5 5.1,-8.9 7.8,-13.2 1.4,1.7 2.8,3.5 4.2,5.2 -3.8,3 -7.8,5.7 -12,8 z m 35.8,15.6 c 1.7,1.4 3.5,2.8 5.2,4.1 -4.3,2.8 -8.7,5.4 -13.2,7.9 2.3,-4.2 5,-8.2 8,-12 z m -62.9,-32.7 c 0.4,-1 0.7,-1.9 1,-2.9 l 23.9,0 c -1.4,2 -2.7,4 -4,6.1 -10.3,13 -23.9,22.9 -39.6,28.7 7.2,-10 14.4,-20.2 18.7,-31.9 z m -39.5,-2.9 37.2,0 c -0.2,0.6 -0.4,1.2 -0.6,1.7 -3.6,9.8 -9.2,18.5 -15.3,26.9 2.1,-5.7 3.8,-11.5 5.1,-17.6 0.3,-1.2 -1.4,-1.7 -2.1,-0.9 -14.5,16.8 -33.7,28.4 -55.1,33.4 14.5,-11.1 24.3,-26.6 30.8,-43.5 z m -3.3,0 c -6.7,16.9 -16.8,32.2 -31.9,43 2.7,-5 4.9,-10.2 6.5,-15.7 0.3,-1 -0.8,-2.2 -1.8,-1.4 -12.9,11.7 -28.9,14.1 -45.1,12.3 9.4,-9.1 16.6,-19.6 21.4,-31.8 0.2,-0.4 0.1,-0.7 0,-1 0,0 0,-0.1 0,-0.1 0,0 0,-0.1 -0.1,-0.1 -0.1,-0.3 -0.4,-0.6 -0.8,-0.7 -4.2,-1.8 -8.5,-3.2 -12.9,-4.4 l 64.7,0 z m -91.8,0.2 c 0.2,0.1 0.4,0.1 0.7,0.1 12.7,-0.6 24.8,1.6 36.6,6.3 -4.9,11.7 -11.9,21.8 -21.2,30.5 -0.2,0.2 -0.3,0.4 -0.4,0.6 -11,-1.7 -21.9,-5.1 -31.8,-8.7 4.4,-9.7 9.6,-19.8 16.1,-28.8 z m 107.1,50 c 0.7,-4 1.3,-8.1 2,-12.1 0.2,-1.3 -1.5,-2.3 -2.5,-1.4 -15.9,13 -35.6,19.5 -56,18.7 1.1,-2.5 2.2,-5 3.3,-7.5 0.6,-1.3 -0.8,-2.5 -2,-2 -26.5,10.5 -53.3,-1.4 -77.2,-13 3.8,-11 7.9,-22.5 13.5,-32.8 l 9.2,0 c -6.5,9.2 -11.8,19.5 -16.2,29.2 -0.1,0.3 -0.1,0.6 0,0.9 0,0 0,0 0,0.1 0,0 0,0 0,0 0.1,0.2 0.3,0.5 0.6,0.6 25.5,9.5 57.7,17.6 81.1,-0.4 -1.8,5.4 -4.2,10.4 -7.2,15.3 -0.5,0.8 0,2 1.1,1.9 23.7,-3.7 45,-15 61.4,-32.3 -1.9,7.5 -4.4,14.8 -7.7,21.9 -0.5,1 0.6,1.8 1.5,1.5 14.2,-4.4 26.9,-11.9 37.2,-22.1 -2.2,4 -4.3,8 -6.3,12.1 -10.6,9.1 -22.6,16.3 -35.8,21.4 z m 21.4,31 c 5.9,-28.5 18.1,-57.1 34.7,-81.2 l 1.2,0 c 1.2,1.6 2.3,3.3 3.6,4.9 -3.6,5.5 -6.9,11.2 -9.9,17.1 -7.4,14.3 -13.3,29.5 -17.4,45.1 -0.2,0.1 -0.5,0.1 -0.7,0.2 -1.4,0.3 -1.2,2.4 0.1,2.3 -0.1,1.2 2,1.4 2.3,0.1 0.1,-0.2 0.1,-0.5 0.2,-0.7 15.5,-4.2 30.7,-10.1 45,-17.6 5.9,-3.1 11.6,-6.5 17.1,-10 1.9,1.4 3.8,2.8 5.7,4.1 -24.2,17 -53.1,29.6 -81.9,35.7 z m 155.2,72.2 c -2.4,-3.3 -4.8,-6.7 -7.2,-10 -0.8,-1.1 -2.7,-0.6 -2.8,0.8 -2.1,20.4 -11.3,39 -26.4,52.8 -1,-2.5 -2,-5.1 -3,-7.6 -0.5,-1.3 -2.4,-1.2 -2.9,0 -11.3,26.1 -38.7,36.6 -63.8,45.4 -11.7,-23.9 -23.7,-50.6 -13.4,-77.2 0.5,-1.2 -0.8,-2.6 -2,-2 -2.5,1.1 -5,2.2 -7.5,3.3 -1,-20.5 5.5,-40.1 18.4,-56.1 0.8,-1 -0.1,-2.7 -1.5,-2.5 -4,0.7 -8.1,1.4 -12.1,2.1 5,-13.2 12.2,-25.2 21.5,-35.9 4.1,-2 8.1,-4.1 12.1,-6.3 -10.1,10.4 -17.6,23.1 -21.9,37.4 -0.3,0.9 0.5,2 1.5,1.5 7.1,-3.3 14.3,-5.9 21.8,-7.8 -17.3,16.4 -28.4,37.8 -32,61.6 -0.2,1.1 1.1,1.6 1.9,1.1 4.9,-3.1 9.9,-5.4 15.3,-7.3 -17.9,23.5 -9.6,55.6 0,81.1 0.1,0.3 0.3,0.5 0.6,0.6 0,0 0,0 0,0 0,0 0,0 0,0 0.2,0.1 0.5,0.1 0.9,0 24.8,-11.3 53.3,-28.3 57,-57.6 2.5,5.1 4.4,10.3 5.7,15.9 0.2,0.9 1.4,1.4 2.1,0.6 14.1,-19.4 21.2,-42.4 20.5,-66.3 4,6.7 7.3,13.6 10,20.9 0.4,1 1.7,0.8 2.2,0 6.9,-13.1 10.5,-27.4 10.7,-41.9 1.2,4.4 2.6,8.7 4.1,13 -0.7,13.9 -4.1,27.4 -9.8,40.4 z m 37,6.8 c -16.2,-24.6 -28,-54 -33.1,-83.1 2.3,0.4 4.7,0.8 7,1.1 1.4,6.5 3.1,12.9 5.1,19.3 4.9,15.3 11.5,30.3 19.6,44.1 -0.1,0.2 -0.2,0.4 -0.4,0.6 -0.7,1.2 0.9,2.5 1.7,1.6 0.8,0.9 2.4,-0.4 1.7,-1.6 -0.1,-0.2 -0.2,-0.4 -0.4,-0.6 8.1,-13.9 14.6,-28.9 19.4,-44.2 2,-6.4 3.6,-12.9 5,-19.4 2.3,-0.3 4.7,-0.7 7,-1.1 -4.9,29.1 -16.5,58.6 -32.6,83.3 z m 160.8,-58.7 c -4,-0.7 -8.1,-1.3 -12.1,-2 -1.3,-0.2 -2.3,1.5 -1.4,2.5 13,15.9 19.5,35.6 18.7,56 -2.5,-1.1 -5,-2.2 -7.5,-3.3 -1.3,-0.6 -2.5,0.8 -2,2 10.5,26.5 -1.4,53.3 -13,77.2 -25.1,-8.6 -52.6,-19 -64,-45.1 -0.5,-1.2 -2.4,-1.3 -2.9,0 -1,2.6 -2,5.1 -2.9,7.7 -15.1,-13.8 -24.5,-32.2 -26.7,-52.7 -0.1,-1.3 -2,-1.9 -2.8,-0.7 -2.4,3.3 -4.7,6.7 -7.1,10 -5.8,-12.9 -9.2,-26.5 -10.2,-40.6 1.5,-4.3 2.9,-8.6 4.1,-13 0.3,14.5 4,28.8 11,41.9 0.4,0.8 1.8,1 2.2,0 2.7,-7.3 6,-14.3 9.9,-20.9 -0.6,23.8 6.7,46.9 20.9,66.2 0.6,0.9 1.9,0.4 2.1,-0.6 1.3,-5.6 3.2,-10.9 5.6,-16 3.9,29.3 32.5,46.1 57.3,57.3 0.3,0.1 0.6,0.1 0.9,0 0,0 0,0 0,0 0,0 0,0 0,0 0.2,-0.1 0.5,-0.3 0.6,-0.6 9.5,-25.5 17.6,-57.7 -0.4,-81.1 5.4,1.8 10.4,4.2 15.3,7.2 0.8,0.5 2,0 1.9,-1.1 -3.7,-23.7 -15,-45 -32.3,-61.4 7.5,1.9 14.8,4.4 21.9,7.7 1,0.5 1.8,-0.6 1.5,-1.5 -4.4,-14.2 -11.9,-26.9 -22.1,-37.2 4,2.2 8,4.3 12.1,6.3 9.1,10.6 16.3,22.6 21.4,35.8 z m 31,-21.4 c -28.9,-6 -58,-18.4 -82.2,-35.4 1.9,-1.4 3.8,-2.7 5.7,-4.2 5.6,3.6 11.4,7 17.3,10.1 14.3,7.4 29.5,13.3 45.1,17.4 0.1,0.2 0.1,0.5 0.2,0.7 0.3,1.4 2.4,1.2 2.3,-0.1 1.2,0.1 1.4,-2 0.1,-2.3 -0.2,-0.1 -0.5,-0.1 -0.7,-0.2 -4.2,-15.5 -10.1,-30.7 -17.6,-45 -3.1,-5.9 -6.5,-11.7 -10.2,-17.2 1,-1.3 1.9,-2.5 2.8,-3.8 l 2.6,0 c 16.4,23.7 28.6,51.9 34.6,80 z m 76.4,-35.8 c -1.2,-0.5 -2.6,0.8 -2,2 1.1,2.5 2.2,5 3.3,7.5 -20.5,1 -40.1,-5.5 -56.1,-18.4 -1,-0.8 -2.7,0.1 -2.5,1.5 0.7,4 1.4,8.1 2.1,12.1 -13.2,-5 -25.2,-12.2 -35.9,-21.5 -2,-4.1 -4.1,-8.1 -6.3,-12.1 10.4,10.1 23.1,17.6 37.4,21.9 0.9,0.3 2,-0.5 1.5,-1.5 -3.3,-7.1 -5.9,-14.3 -7.8,-21.8 16.4,17.3 37.8,28.4 61.6,32 1.1,0.2 1.6,-1.1 1.1,-1.9 -3.1,-4.9 -5.4,-9.9 -7.3,-15.3 23.5,17.9 55.6,9.6 81.1,0 0.3,-0.1 0.5,-0.3 0.6,-0.6 0,0 0,0 0,0 0,0 0,0 0,-0.1 0.1,-0.2 0.1,-0.5 0,-0.9 -4.1,-9.1 -9.1,-18.6 -15.1,-27.3 l 8.9,0 c 5.2,9.8 9.1,20.6 12.7,30.9 -24,11.8 -50.8,23.8 -77.3,13.5 z"
           id="path4903"
           inkscape:connector-curvature="0" /><path
           d="m 169.3,383.6 9.2,0 2.8,0 9.3,0 18.9,0 63.7,0 3.3,0 37.2,0 3.3,0 24.1,0 3.8,0 0.6,0 3.8,0 305.1,0 3.4,0 0.5,0 3.3,0 24.3,0 3.4,0 37.1,0 3.3,0 71.3,0 22.7,0 9.4,0 3.5,0 14.1,0 0,-1.6 0,-1.6 -12.5,0 c 5,-9.9 8.9,-20.5 12.4,-30.9 0.2,-0.6 0.1,-1.1 -0.2,-1.4 -0.1,-0.5 -0.3,-0.9 -0.9,-1.2 -24,-11.6 -50.6,-23.3 -77.1,-14.6 0.9,-2.1 1.9,-4.2 2.8,-6.3 0.4,-0.9 -0.2,-2.1 -1.2,-2.1 -20.7,-1.4 -40.8,4.5 -57.3,16.8 0.6,-3.6 1.2,-7.3 1.8,-10.9 0.2,-1.2 -1.1,-2 -2.2,-1.7 -12.5,4.5 -23.9,10.9 -34.2,19 6.7,-15.1 11.7,-30.9 14.9,-47.3 0.3,-0.4 0.3,-0.9 0.2,-1.4 0,-0.2 -0.1,-0.5 -0.2,-0.6 0,-0.1 -0.1,-0.1 -0.1,-0.2 0,0 -0.1,-0.1 -0.2,-0.1 -0.2,-0.1 -0.4,-0.2 -0.6,-0.2 -0.5,-0.1 -1,-0.1 -1.3,0.2 -16.3,3.3 -32.1,8.4 -47.2,15.2 8.1,-10.4 14.4,-21.8 18.8,-34.3 0.4,-1.1 -0.4,-2.4 -1.7,-2.1 -3.6,0.6 -7.3,1.2 -10.9,1.9 12.2,-16.6 18,-36.7 16.5,-57.4 -0.1,-1 -1.3,-1.6 -2.1,-1.2 -2.1,0.9 -4.2,1.9 -6.3,2.8 8.5,-26.6 -3.4,-53.1 -15.1,-77 -0.3,-0.5 -0.7,-0.8 -1.2,-0.9 -0.4,-0.3 -0.9,-0.4 -1.4,-0.2 -25.1,8.8 -52.2,19.3 -64.9,44.2 -0.8,-2.1 -1.7,-4.3 -2.5,-6.4 -0.3,-0.9 -1.6,-1.3 -2.4,-0.6 -15.6,13.7 -25.7,32 -28.7,52.4 -2.1,-3 -4.3,-6 -6.4,-9 -0.7,-1 -2.2,-0.7 -2.7,0.4 -5.6,12 -9.2,24.6 -10.7,37.6 -6,-15.4 -13.6,-30.1 -22.8,-44 -0.1,-0.7 -0.7,-1.3 -1.4,-1.4 -0.1,0 -0.1,0 -0.2,0 -0.1,0 -0.1,0 -0.2,0 -0.7,0.1 -1.3,0.7 -1.4,1.4 -9.2,13.9 -16.7,28.7 -22.6,44.1 -1.6,-13 -5.3,-25.6 -11,-37.6 -0.5,-1 -2,-1.4 -2.7,-0.3 -2.1,3 -4.3,6 -6.4,9 -3.1,-20.4 -13.3,-38.7 -29,-52.3 -0.8,-0.7 -2,-0.2 -2.4,0.7 -0.8,2.2 -1.7,4.3 -2.5,6.5 -13,-25 -40.2,-35.3 -65.3,-44 -0.6,-0.2 -1.1,-0.1 -1.4,0.2 -0.5,0.1 -0.9,0.3 -1.2,0.9 -11.6,24 -23.3,50.6 -14.6,77.1 -2.1,-0.9 -4.2,-1.9 -6.3,-2.8 -0.9,-0.4 -2.1,0.2 -2.1,1.2 -1.4,20.7 4.5,40.8 16.8,57.3 -3.6,-0.6 -7.3,-1.2 -10.9,-1.8 -1.2,-0.2 -2,1.1 -1.7,2.2 4.5,12.5 10.9,23.9 19,34.2 -15.1,-6.7 -30.9,-11.7 -47.3,-14.9 -0.4,-0.3 -0.9,-0.3 -1.4,-0.2 -0.2,0 -0.5,0.1 -0.6,0.2 -0.1,0 -0.1,0.1 -0.2,0.1 0,0 -0.1,0.1 -0.1,0.2 -0.1,0.2 -0.2,0.4 -0.2,0.6 -0.1,0.5 -0.1,1 0.2,1.3 3.3,16.3 8.4,32.1 15.2,47.2 -10.4,-8.1 -21.8,-14.4 -34.3,-18.8 -1.1,-0.4 -2.4,0.4 -2.1,1.7 0.6,3.6 1.2,7.3 1.9,10.9 -16.6,-12.2 -36.7,-18 -57.4,-16.5 -1,0.1 -1.6,1.3 -1.2,2.1 0.9,2.1 1.9,4.2 2.8,6.3 -26.6,-8.5 -53.1,3.4 -77,15.1 -0.5,0.3 -0.8,0.7 -0.9,1.2 -0.3,0.4 -0.4,0.9 -0.2,1.4 3.4,9.7 7,19.6 11.6,28.9 l -11.7,0 0,1.6 0,1.6 13.3,0 3.3,0 z m 39.8,-3.1 -30,0 c -5.5,-8.1 -10.1,-16.9 -14,-25.3 9.9,-3.7 20.8,-7.2 31.7,-8.9 0.1,0.2 0.2,0.4 0.4,0.6 9.4,8.6 16.5,18.7 21.4,30.3 -3.1,1.3 -6.3,2.4 -9.5,3.3 z m 9.7,0 c 0.8,-0.3 1.7,-0.7 2.5,-1 0.4,-0.2 0.6,-0.4 0.8,-0.7 0,0 0.1,-0.1 0.1,-0.1 0,0 0,-0.1 0,-0.1 0.1,-0.3 0.1,-0.7 0,-1 -4.9,-12.2 -12.1,-22.7 -21.6,-31.7 16.2,-1.9 32.2,0.5 45.2,12.1 1,0.9 2.1,-0.4 1.8,-1.4 -1.6,-5.5 -3.8,-10.7 -6.6,-15.7 14.2,10 24.1,24.1 30.8,39.7 l -53,0 z m 56.4,0 c -6.6,-15.7 -16.1,-29.9 -29.8,-40.4 21.5,4.9 40.7,16.3 55.3,33.1 0.7,0.8 2.4,0.4 2.1,-0.9 -1.3,-6 -3.1,-11.8 -5.2,-17.5 5.9,8.1 11.4,16.4 15,25.7 l -37.4,0 z m 40.8,0 c 0,0 0,-0.1 0,-0.1 -4.3,-11.7 -11.6,-21.8 -18.9,-31.7 15.8,5.7 29.4,15.5 39.8,28.5 0.7,1.1 1.5,2.2 2.3,3.4 l -23.2,0 z M 376.9,349 c -7.2,6.2 -14,13 -20.3,20.4 -4.9,-3.8 -10.1,-7.1 -15.6,-9.9 -7.1,-13.5 -12.6,-27.7 -16.7,-42.5 14.8,4 29,9.4 42.6,16.4 2.9,5.5 6.2,10.7 10,15.6 z m -6.3,-13.7 c 4.5,2.5 9,5.1 13.3,7.9 -1.8,1.4 -3.5,2.8 -5.2,4.2 -3,-3.8 -5.7,-7.8 -8.1,-12.1 z M 355,371.1 c -1.4,1.7 -2.8,3.5 -4.2,5.2 -2.8,-4.3 -5.5,-8.7 -7.9,-13.2 4.3,2.4 8.3,5 12.1,8 z m -3.4,9.4 c 35.7,-47.4 91.9,-75 150.5,-75 23.8,0 47.9,4.5 71.2,14.1 31.8,13.1 58.8,34 78.8,60.8 l -300.5,0 z m 28.8,-87.4 C 363.6,278.6 352,259.4 347,238 c 15.1,19.6 38.2,30.6 61.9,36.5 0.6,0.2 1.1,-0.1 1.3,-0.4 0.5,0.1 0.9,-0.1 1.3,-0.6 12.4,-21.1 20.9,-45.2 17.6,-69.7 11.7,18.7 17.2,40.3 15.7,62.5 -0.1,1.1 1.4,1.9 2.1,0.9 3.3,-5.2 6.2,-10.6 8.7,-16.1 -1.6,10.2 -3.7,20.4 -8,29.9 -5.5,12 -13,23.3 -19.6,34.7 -0.1,0.2 -0.1,0.3 -0.2,0.5 -0.1,-0.1 -0.3,-0.2 -0.5,-0.2 -12.8,-3.3 -26,-6 -38.5,-10.5 -9.8,-3.6 -18.5,-9.2 -26.9,-15.3 5.7,2.1 11.5,3.8 17.6,5.1 1.3,0.2 1.7,-1.5 0.9,-2.2 z m -15.7,-54.9 c -11.7,-12.9 -14.1,-28.9 -12.3,-45.1 9.1,9.4 19.6,16.6 31.8,21.4 0.4,0.2 0.7,0.1 1,0 0,0 0.1,0 0.1,0 0,0 0.1,0 0.1,-0.1 0.3,-0.1 0.6,-0.4 0.7,-0.8 5.1,-12.1 7.5,-24.6 7.2,-37.7 12.8,10.1 22.5,23.1 23.4,40.5 0.1,1.3 1.7,1.2 2.2,0.3 2.7,-5.1 4.9,-10.3 6.4,-15.7 4.3,24.7 -3.8,49.1 -16.3,70.3 -23.9,-6.1 -46.9,-17.4 -61.5,-37.8 5,2.7 10.2,4.9 15.7,6.5 1.2,0.3 2.4,-0.9 1.5,-1.8 z M 383.9,211 c -11.7,-4.9 -21.8,-11.9 -30.5,-21.2 -0.2,-0.2 -0.4,-0.3 -0.6,-0.4 1.7,-11 5.1,-21.9 8.7,-31.8 9.6,4.4 19.8,9.6 28.7,16.1 -0.1,0.2 -0.1,0.4 -0.1,0.7 0.7,12.7 -1.4,24.8 -6.2,36.6 z m 81.4,95 c -11.6,2.3 -23,5.7 -34,10 6.5,-11.2 13.8,-22.3 19.2,-34 5.2,-11.3 7.2,-23.6 9,-35.8 7.1,15.2 9.8,31.7 8,48.2 -0.8,3.7 -1.5,7.5 -2.2,11.2 0,0.2 0,0.3 0,0.4 z m -77.6,2.2 c 12.2,4.4 25.1,7.1 37.7,10.3 -10.8,4.7 -21.2,10.5 -31.1,17.1 -0.1,-0.1 -0.1,-0.2 -0.2,-0.2 -3.1,-2.2 -6.3,-4.3 -9.5,-6.3 -13,-10.3 -22.9,-23.9 -28.7,-39.6 9.9,7.3 20.1,14.5 31.8,18.7 z m 128.1,-5.3 c -9.6,-0.7 -19.3,-0.6 -28.8,0.1 -0.8,-6.2 -2.1,-12.2 -4,-18.1 4.5,-14.5 10.7,-28.5 18.3,-41.8 7.7,13.3 13.9,27.2 18.5,41.7 -2,6 -3.3,12 -4,18.1 z m 5.2,-14.1 c 1.5,4.9 2.7,10 3.9,15 -2.2,-0.3 -4.4,-0.5 -6.7,-0.7 0.5,-4.9 1.5,-9.6 2.8,-14.3 z m -36.3,14.4 c -2.2,0.2 -4.5,0.5 -6.7,0.7 1.1,-5.1 2.3,-10.1 3.8,-15.1 1.3,4.8 2.3,9.6 2.9,14.4 z m 88.4,-99.9 c -3.2,24.6 5.4,48.6 18,69.6 0.3,0.5 0.8,0.7 1.3,0.6 0.3,0.4 0.7,0.6 1.3,0.4 23.7,-6.1 46.7,-17.2 61.7,-36.9 -4.9,21.5 -16.3,40.7 -33.1,55.3 -0.8,0.7 -0.4,2.4 0.9,2.1 6,-1.3 11.8,-3.1 17.5,-5.2 -8.4,6.1 -17,11.8 -26.8,15.4 -12.4,4.6 -25.6,7.3 -38.4,10.7 -0.2,0.1 -0.3,0.1 -0.5,0.2 0,-0.2 -0.1,-0.3 -0.2,-0.5 -6.7,-11.4 -14.2,-22.6 -19.8,-34.6 -4.4,-9.4 -6.5,-19.6 -8.2,-29.8 2.6,5.5 5.4,10.9 8.8,16.1 0.7,1.1 2.2,0.2 2.1,-0.9 -1.5,-22.1 3.8,-43.8 15.4,-62.5 z m 38.6,-30.2 c 8.9,-6.6 19,-11.9 28.7,-16.3 3.7,9.9 7.2,20.8 8.9,31.7 -0.2,0.1 -0.4,0.2 -0.6,0.4 -8.6,9.4 -18.7,16.5 -30.3,21.4 -4.8,-11.7 -7,-23.8 -6.5,-36.5 -0.1,-0.3 -0.1,-0.5 -0.2,-0.7 z m 4.4,39.9 c 0.2,0.4 0.4,0.6 0.7,0.8 0,0 0.1,0.1 0.1,0.1 0,0 0.1,0 0.1,0 0.3,0.1 0.7,0.1 1,0 12.2,-4.9 22.7,-12.1 31.7,-21.6 1.9,16.2 -0.5,32.2 -12.1,45.2 -0.9,1 0.4,2.1 1.4,1.8 5.5,-1.6 10.7,-3.8 15.7,-6.6 -14.5,20.5 -37.4,32 -61.3,38.2 -12.6,-21.2 -20.9,-45.5 -16.7,-70.2 1.6,5.4 3.8,10.6 6.5,15.7 0.5,0.9 2.2,1 2.2,-0.3 0.9,-17.4 10.5,-30.5 23.2,-40.6 -0.1,12.9 2.3,25.4 7.5,37.5 z m 30.8,75.7 c -5.7,15.8 -15.5,29.4 -28.5,39.8 -3.2,2.1 -6.4,4.2 -9.5,6.4 -0.1,0.1 -0.1,0.1 -0.2,0.2 -9.7,-6.5 -20.2,-12.2 -31.2,-16.9 12.5,-3.3 25.4,-6 37.6,-10.5 11.7,-4.4 21.9,-11.7 31.8,-19 z m -94.7,-7 c 5.5,11.7 12.7,22.8 19.3,33.9 -11.2,-4.4 -22.6,-7.7 -34.1,-9.9 0,-0.1 0,-0.2 0,-0.3 -0.6,-3.8 -1.4,-7.5 -2.2,-11.2 -1.9,-16.5 0.7,-33.1 7.7,-48.3 1.9,12.3 4.1,24.6 9.3,35.8 z m 72.2,65 c -1.7,-1.4 -3.5,-2.8 -5.2,-4.2 4.3,-2.8 8.8,-5.5 13.3,-8 -2.5,4.3 -5.2,8.4 -8.1,12.2 z m 11.7,-14 c 13.5,-7.1 27.7,-12.6 42.5,-16.7 -4,14.8 -9.4,29 -16.4,42.6 -5.5,2.9 -10.7,6.2 -15.6,10 -6.3,-7.3 -13.1,-14.1 -20.4,-20.3 3.8,-4.9 7,-10.1 9.9,-15.6 z m 12,37.6 c 3.8,-3 7.9,-5.7 12.1,-8.1 -2.5,4.5 -5.1,9 -7.9,13.4 -1.4,-1.8 -2.8,-3.5 -4.2,-5.3 z m 39.2,9 c -0.1,0.4 -0.3,0.8 -0.4,1.1 l -23.3,0 c 0.9,-1.4 1.9,-2.8 2.8,-4.3 10.3,-13 23.9,-22.9 39.6,-28.7 -7.3,10.1 -14.5,20.2 -18.7,31.9 z m 40.2,1.2 -37.3,0 c 3.6,-9.8 9.2,-18.4 15.3,-26.8 -2.1,5.7 -3.8,11.5 -5.1,17.6 -0.3,1.2 1.4,1.7 2.1,0.9 14.5,-16.8 33.7,-28.4 55.1,-33.4 -14,10.7 -23.6,25.5 -30.1,41.7 z m 3.3,0 c 6.7,-16.2 16.6,-30.8 31.1,-41.2 -2.7,5 -4.9,10.2 -6.5,15.7 -0.3,1 0.8,2.2 1.8,1.4 12.9,-11.7 28.9,-14.1 45.1,-12.3 -9.4,9.1 -16.6,19.6 -21.4,31.8 -0.2,0.4 -0.1,0.7 0,1 0,0 0,0.1 0,0.1 0,0 0,0.1 0.1,0.1 0.1,0.3 0.4,0.6 0.8,0.7 2.3,1 4.6,1.8 6.9,2.6 l -57.9,0 z m 92.1,0 -21.8,0 c -5.6,-1.1 -11.1,-2.7 -16.6,-4.9 4.9,-11.7 11.9,-21.8 21.2,-30.5 0.2,-0.2 0.3,-0.4 0.4,-0.6 11,1.7 21.9,5.1 31.8,8.7 -4.1,9.2 -9,18.7 -15,27.3 z M 714.7,332 c -0.7,4 -1.3,8.1 -2,12.1 -0.2,1.3 1.5,2.3 2.5,1.4 15.9,-13 35.6,-19.5 56,-18.7 -1.1,2.5 -2.2,5 -3.3,7.5 -0.6,1.3 0.8,2.5 2,2 26.5,-10.5 53.3,1.4 77.2,13 -3.6,10.4 -7.5,21.2 -12.6,31.1 l -8.9,0 c 5.9,-8.7 10.8,-18.3 14.9,-27.4 0.1,-0.3 0.1,-0.6 0,-0.9 0,0 0,0 0,-0.1 0,0 0,0 0,0 -0.1,-0.2 -0.3,-0.5 -0.6,-0.6 -25.5,-9.5 -57.7,-17.6 -81.1,0.4 1.8,-5.4 4.2,-10.4 7.2,-15.3 0.5,-0.8 0,-2 -1.1,-1.9 -23.7,3.7 -45,15 -61.4,32.3 1.9,-7.5 4.4,-14.8 7.7,-21.9 0.5,-1 -0.6,-1.8 -1.5,-1.5 -14.2,4.4 -26.9,11.9 -37.2,22.1 2.2,-4 4.3,-8 6.3,-12.1 10.8,-9.2 22.7,-16.4 35.9,-21.5 z m -21.3,-30.9 c -5.7,27.8 -17.5,55.7 -33.5,79.4 l -3.9,0 c -0.7,-1 -1.5,-2 -2.2,-2.9 3.6,-5.6 6.9,-11.3 10,-17.2 7.4,-14.3 13.3,-29.5 17.4,-45.1 0.2,-0.1 0.5,-0.1 0.7,-0.2 1.4,-0.3 1.2,-2.4 -0.1,-2.3 0.1,-1.2 -2,-1.4 -2.3,-0.1 -0.1,0.2 -0.1,0.5 -0.2,0.7 -15.5,4.2 -30.7,10.1 -45,17.6 -5.9,3.1 -11.6,6.5 -17.2,10.1 -1.9,-1.4 -3.8,-2.8 -5.7,-4.1 24.2,-17.2 53.2,-29.8 82,-35.9 z M 538.2,228.9 c 2.4,3.3 4.8,6.7 7.2,10 0.8,1.1 2.7,0.6 2.8,-0.8 2.1,-20.4 11.3,-39 26.4,-52.8 1,2.5 2,5.1 3,7.6 0.5,1.3 2.4,1.2 2.9,0 11.3,-26.1 38.7,-36.6 63.8,-45.4 11.7,23.9 23.7,50.6 13.4,77.2 -0.5,1.2 0.8,2.6 2,2 2.5,-1.1 5,-2.2 7.5,-3.3 1,20.5 -5.5,40.1 -18.4,56.1 -0.8,1 0.1,2.7 1.5,2.5 4,-0.7 8.1,-1.4 12.1,-2.1 -5,13.2 -12.2,25.2 -21.5,35.9 -4.1,2 -8.1,4.1 -12.1,6.3 10.1,-10.4 17.6,-23.1 21.9,-37.4 0.3,-0.9 -0.5,-2 -1.5,-1.5 -7.1,3.3 -14.3,5.9 -21.8,7.8 17.3,-16.4 28.4,-37.8 32,-61.6 0.2,-1.1 -1.1,-1.6 -1.9,-1.1 -4.9,3.1 -9.9,5.4 -15.3,7.3 17.9,-23.5 9.6,-55.6 0,-81.1 -0.1,-0.3 -0.3,-0.5 -0.6,-0.6 0,0 0,0 0,0 0,0 0,0 -0.1,0 -0.2,-0.1 -0.5,-0.1 -0.9,0 -24.8,11.3 -53.3,28.3 -57,57.6 -2.5,-5.1 -4.4,-10.3 -5.7,-15.9 -0.2,-0.9 -1.4,-1.4 -2.1,-0.6 -14.1,19.4 -21.2,42.4 -20.5,66.3 -4,-6.7 -7.3,-13.6 -10,-20.9 -0.4,-1 -1.7,-0.8 -2.2,0 -6.9,13.1 -10.5,27.4 -10.7,41.9 -1.2,-4.4 -2.6,-8.7 -4.1,-13 0.8,-13.9 4.1,-27.5 9.9,-40.4 z m -37,-6.8 c 16.2,24.6 28,54 33.1,83.1 -2.3,-0.4 -4.7,-0.8 -7,-1.1 -1.4,-6.5 -3.1,-12.9 -5.1,-19.3 -4.9,-15.3 -11.5,-30.3 -19.6,-44.1 0.1,-0.2 0.2,-0.4 0.4,-0.6 0.7,-1.2 -0.9,-2.5 -1.7,-1.6 -0.8,-0.9 -2.4,0.4 -1.7,1.6 0.1,0.2 0.2,0.4 0.4,0.6 -8.1,13.9 -14.6,28.9 -19.4,44.2 -2,6.4 -3.6,12.9 -5,19.4 -2.3,0.3 -4.7,0.7 -7,1.1 4.9,-29.2 16.5,-58.6 32.6,-83.3 z m -160.8,58.7 c 4,0.7 8.1,1.3 12.1,2 1.3,0.2 2.3,-1.5 1.4,-2.5 -13,-15.9 -19.5,-35.6 -18.7,-56 2.5,1.1 5,2.2 7.5,3.3 1.3,0.6 2.5,-0.8 2,-2 -10.5,-26.5 1.4,-53.3 13,-77.2 25.1,8.6 52.6,19 64,45.1 0.5,1.2 2.4,1.3 2.9,0 1,-2.6 2,-5.1 2.9,-7.7 15.1,13.8 24.5,32.2 26.7,52.7 0.1,1.3 2,1.9 2.8,0.7 2.4,-3.3 4.7,-6.7 7.1,-10 5.8,12.9 9.2,26.5 10.2,40.6 -1.5,4.3 -2.9,8.6 -4.1,13 -0.3,-14.5 -4,-28.8 -11,-41.9 -0.4,-0.8 -1.8,-1 -2.2,0 -2.7,7.3 -6,14.3 -9.9,20.9 0.6,-23.8 -6.7,-46.9 -20.9,-66.2 -0.6,-0.9 -1.9,-0.4 -2.1,0.6 -1.3,5.6 -3.2,10.9 -5.6,16 -3.9,-29.3 -32.5,-46.1 -57.3,-57.3 -0.3,-0.1 -0.6,-0.1 -0.9,0 0,0 0,0 -0.1,0 0,0 0,0 0,0 -0.2,0.1 -0.5,0.3 -0.6,0.6 -9.5,25.5 -17.6,57.7 0.4,81.1 -5.4,-1.8 -10.4,-4.2 -15.3,-7.2 -0.8,-0.5 -2,0 -1.9,1.1 3.7,23.7 15,45 32.3,61.4 -7.5,-1.9 -14.8,-4.4 -21.9,-7.7 -1,-0.5 -1.8,0.6 -1.5,1.5 4.4,14.2 11.9,26.9 22.1,37.2 -4,-2.2 -8,-4.3 -12.1,-6.3 -9,-10.7 -16.2,-22.6 -21.3,-35.8 z m -31,21.3 c 28.9,5.9 57.9,18.4 82.2,35.4 -1.9,1.4 -3.8,2.7 -5.7,4.2 -5.6,-3.6 -11.3,-6.9 -17.2,-10 -14.3,-7.4 -29.5,-13.3 -45.1,-17.4 -0.1,-0.2 -0.1,-0.5 -0.2,-0.7 -0.3,-1.4 -2.4,-1.2 -2.3,0.1 -1.2,-0.1 -1.4,2 -0.1,2.3 0.2,0.1 0.5,0.1 0.7,0.2 4.2,15.5 10.1,30.7 17.6,45 3.1,5.9 6.5,11.6 10.1,17.1 -0.5,0.7 -1.1,1.5 -1.6,2.2 l -4.9,0 c -15.9,-23.4 -27.7,-51 -33.5,-78.4 z m -153.6,49.2 c 23.9,-11.7 50.6,-23.7 77.2,-13.4 1.2,0.5 2.6,-0.8 2,-2 -1.1,-2.5 -2.2,-5 -3.3,-7.5 20.5,-1 40.1,5.5 56.1,18.4 1,0.8 2.7,-0.1 2.5,-1.5 -0.7,-4 -1.4,-8.1 -2.1,-12.1 13.2,5 25.2,12.2 35.9,21.5 2,4.1 4.1,8.1 6.3,12.1 -10.4,-10.1 -23.1,-17.6 -37.4,-21.9 -0.9,-0.3 -2,0.5 -1.5,1.5 3.3,7.1 5.9,14.3 7.8,21.8 -16.4,-17.3 -37.8,-28.4 -61.6,-32 -1.1,-0.2 -1.6,1.1 -1.1,1.9 3.1,4.9 5.4,9.9 7.3,15.3 -23.5,-17.9 -55.6,-9.6 -81.1,0 -0.3,0.1 -0.5,0.3 -0.6,0.6 0,0 0,0 0,0 0,0 0,0 0,0.1 -0.1,0.2 -0.1,0.5 0,0.9 3.9,8.5 8.4,17.3 13.9,25.5 l -8.7,0 c -4.5,-9.4 -8.2,-19.4 -11.6,-29.2 z"
           id="path4905"
           inkscape:connector-curvature="0" /><path
           d="m 154.9,385.5 c -2,0 -2,3.1 0,3.1 2,0.1 2,-3.1 0,-3.1 z"
           id="path4907"
           inkscape:connector-curvature="0" /><path
           d="m 161,385.5 c -2,0 -2,3.1 0,3.1 2,0.1 2,-3.1 0,-3.1 z"
           id="path4909"
           inkscape:connector-curvature="0" /><path
           d="m 167.1,385.5 c -2,0 -2,3.1 0,3.1 2.1,0.1 2.1,-3.1 0,-3.1 z"
           id="path4911"
           inkscape:connector-curvature="0" /><path
           d="m 173.2,385.5 c -2,0 -2,3.1 0,3.1 2.1,0.1 2.1,-3.1 0,-3.1 z"
           id="path4913"
           inkscape:connector-curvature="0" /><path
           d="m 179.4,385.5 c -2,0 -2,3.1 0,3.1 2,0.1 2,-3.1 0,-3.1 z"
           id="path4915"
           inkscape:connector-curvature="0" /><path
           d="m 185.5,385.5 c -2,0 -2,3.1 0,3.1 2,0.1 2,-3.1 0,-3.1 z"
           id="path4917"
           inkscape:connector-curvature="0" /><path
           d="m 191.7,385.5 c -2,0 -2,3.1 0,3.1 2,0.1 2,-3.1 0,-3.1 z"
           id="path4919"
           inkscape:connector-curvature="0" /><path
           d="m 197.8,385.5 c -2,0 -2,3.1 0,3.1 2,0.1 2,-3.1 0,-3.1 z"
           id="path4921"
           inkscape:connector-curvature="0" /><path
           d="m 204,385.5 c -2,0 -2,3.1 0,3.1 2,0.1 2,-3.1 0,-3.1 z"
           id="path4923"
           inkscape:connector-curvature="0" /><path
           d="m 210.1,385.5 c -2,0 -2,3.1 0,3.1 2,0.1 2,-3.1 0,-3.1 z"
           id="path4925"
           inkscape:connector-curvature="0" /><path
           d="m 216.2,385.5 c -2,0 -2,3.1 0,3.1 2.1,0.1 2.1,-3.1 0,-3.1 z"
           id="path4927"
           inkscape:connector-curvature="0" /><path
           d="m 222.3,385.5 c -2,0 -2,3.1 0,3.1 2.1,0.1 2.1,-3.1 0,-3.1 z"
           id="path4929"
           inkscape:connector-curvature="0" /><path
           d="m 228.5,385.5 c -2,0 -2,3.1 0,3.1 2,0.1 2,-3.1 0,-3.1 z"
           id="path4931"
           inkscape:connector-curvature="0" /><path
           d="m 234.6,385.5 c -2,0 -2,3.1 0,3.1 2,0.1 2,-3.1 0,-3.1 z"
           id="path4933"
           inkscape:connector-curvature="0" /><path
           d="m 240.8,385.5 c -2,0 -2,3.1 0,3.1 2,0.1 2,-3.1 0,-3.1 z"
           id="path4935"
           inkscape:connector-curvature="0" /><path
           d="m 246.9,385.5 c -2,0 -2,3.1 0,3.1 2,0.1 2,-3.1 0,-3.1 z"
           id="path4937"
           inkscape:connector-curvature="0" /><path
           d="m 253,385.5 c -2,0 -2,3.1 0,3.1 2.1,0.1 2.1,-3.1 0,-3.1 z"
           id="path4939"
           inkscape:connector-curvature="0" /><path
           d="m 259.1,385.5 c -2,0 -2,3.1 0,3.1 2.1,0.1 2.1,-3.1 0,-3.1 z"
           id="path4941"
           inkscape:connector-curvature="0" /><path
           d="m 265.3,385.5 c -2,0 -2,3.1 0,3.1 2,0.1 2,-3.1 0,-3.1 z"
           id="path4943"
           inkscape:connector-curvature="0" /><path
           d="m 271.4,385.5 c -2,0 -2,3.1 0,3.1 2,0.1 2.1,-3.1 0,-3.1 z"
           id="path4945"
           inkscape:connector-curvature="0" /><path
           d="m 277.6,385.5 c -2,0 -2,3.1 0,3.1 2,0.1 2,-3.1 0,-3.1 z"
           id="path4947"
           inkscape:connector-curvature="0" /><path
           d="m 283.7,385.5 c -2,0 -2,3.1 0,3.1 2,0.1 2,-3.1 0,-3.1 z"
           id="path4949"
           inkscape:connector-curvature="0" /><path
           d="m 289.9,385.5 c -2,0 -2,3.1 0,3.1 2,0.1 2,-3.1 0,-3.1 z"
           id="path4951"
           inkscape:connector-curvature="0" /><path
           d="m 296,385.5 c -2,0 -2,3.1 0,3.1 2,0.1 2,-3.1 0,-3.1 z"
           id="path4953"
           inkscape:connector-curvature="0" /><path
           d="m 302.1,385.5 c -2,0 -2,3.1 0,3.1 2.1,0.1 2.1,-3.1 0,-3.1 z"
           id="path4955"
           inkscape:connector-curvature="0" /><path
           d="m 308.2,385.5 c -2,0 -2,3.1 0,3.1 2.1,0.1 2.1,-3.1 0,-3.1 z"
           id="path4957"
           inkscape:connector-curvature="0" /><path
           d="m 314.4,385.5 c -2,0 -2,3.1 0,3.1 2,0.1 2,-3.1 0,-3.1 z"
           id="path4959"
           inkscape:connector-curvature="0" /><path
           d="m 320.5,385.5 c -2,0 -2,3.1 0,3.1 2,0.1 2,-3.1 0,-3.1 z"
           id="path4961"
           inkscape:connector-curvature="0" /><path
           d="m 326.7,385.5 c -2,0 -2,3.1 0,3.1 2,0.1 2,-3.1 0,-3.1 z"
           id="path4963"
           inkscape:connector-curvature="0" /><path
           d="m 332.8,385.5 c -2,0 -2,3.1 0,3.1 2,0.1 2,-3.1 0,-3.1 z"
           id="path4965"
           inkscape:connector-curvature="0" /><path
           d="m 339,385.5 c -2,0 -2,3.1 0,3.1 2,0.1 2,-3.1 0,-3.1 z"
           id="path4967"
           inkscape:connector-curvature="0" /><path
           d="m 345.1,385.5 c -2,0 -2,3.1 0,3.1 2,0.1 2,-3.1 0,-3.1 z"
           id="path4969"
           inkscape:connector-curvature="0" /><path
           d="m 351.2,385.5 c -2,0 -2,3.1 0,3.1 2.1,0.1 2.1,-3.1 0,-3.1 z"
           id="path4971"
           inkscape:connector-curvature="0" /><path
           d="m 357.3,385.5 c -2,0 -2,3.1 0,3.1 2.1,0.1 2.1,-3.1 0,-3.1 z"
           id="path4973"
           inkscape:connector-curvature="0" /><path
           d="m 363.5,385.5 c -2,0 -2,3.1 0,3.1 2,0.1 2,-3.1 0,-3.1 z"
           id="path4975"
           inkscape:connector-curvature="0" /><path
           d="m 369.6,385.5 c -2,0 -2,3.1 0,3.1 2,0.1 2,-3.1 0,-3.1 z"
           id="path4977"
           inkscape:connector-curvature="0" /><path
           d="m 375.8,385.5 c -2,0 -2,3.1 0,3.1 2,0.1 2,-3.1 0,-3.1 z"
           id="path4979"
           inkscape:connector-curvature="0" /><path
           d="m 381.9,385.5 c -2,0 -2,3.1 0,3.1 2,0.1 2,-3.1 0,-3.1 z"
           id="path4981"
           inkscape:connector-curvature="0" /><path
           d="m 388.1,385.5 c -2,0 -2,3.1 0,3.1 2,0.1 2,-3.1 0,-3.1 z"
           id="path4983"
           inkscape:connector-curvature="0" /><path
           d="m 394.2,385.5 c -2,0 -2,3.1 0,3.1 2,0.1 2,-3.1 0,-3.1 z"
           id="path4985"
           inkscape:connector-curvature="0" /><path
           d="m 400.3,385.5 c -2,0 -2,3.1 0,3.1 2.1,0.1 2.1,-3.1 0,-3.1 z"
           id="path4987"
           inkscape:connector-curvature="0" /><path
           d="m 406.4,385.5 c -2,0 -2,3.1 0,3.1 2.1,0.1 2.1,-3.1 0,-3.1 z"
           id="path4989"
           inkscape:connector-curvature="0" /><path
           d="m 412.6,385.5 c -2,0 -2,3.1 0,3.1 2,0.1 2,-3.1 0,-3.1 z"
           id="path4991"
           inkscape:connector-curvature="0" /><path
           d="m 418.7,385.5 c -2,0 -2,3.1 0,3.1 2,0.1 2,-3.1 0,-3.1 z"
           id="path4993"
           inkscape:connector-curvature="0" /><path
           d="m 424.9,385.5 c -2,0 -2,3.1 0,3.1 2,0.1 2,-3.1 0,-3.1 z"
           id="path4995"
           inkscape:connector-curvature="0" /><path
           d="m 431,385.5 c -2,0 -2,3.1 0,3.1 2,0.1 2,-3.1 0,-3.1 z"
           id="path4997"
           inkscape:connector-curvature="0" /><path
           d="m 437.2,385.5 c -2,0 -2,3.1 0,3.1 2,0.1 2,-3.1 0,-3.1 z"
           id="path4999"
           inkscape:connector-curvature="0" /><path
           d="m 443.3,385.5 c -2,0 -2,3.1 0,3.1 2,0.1 2,-3.1 0,-3.1 z"
           id="path5001"
           inkscape:connector-curvature="0" /><path
           d="m 449.4,385.5 c -2,0 -2,3.1 0,3.1 2.1,0.1 2.1,-3.1 0,-3.1 z"
           id="path5003"
           inkscape:connector-curvature="0" /><path
           d="m 455.5,385.5 c -2,0 -2,3.1 0,3.1 2.1,0.1 2.1,-3.1 0,-3.1 z"
           id="path5005"
           inkscape:connector-curvature="0" /><path
           d="m 461.7,385.5 c -2,0 -2,3.1 0,3.1 2,0.1 2,-3.1 0,-3.1 z"
           id="path5007"
           inkscape:connector-curvature="0" /><path
           d="m 467.8,385.5 c -2,0 -2,3.1 0,3.1 2,0.1 2,-3.1 0,-3.1 z"
           id="path5009"
           inkscape:connector-curvature="0" /><path
           d="m 474,385.5 c -2,0 -2,3.1 0,3.1 2,0.1 2,-3.1 0,-3.1 z"
           id="path5011"
           inkscape:connector-curvature="0" /><path
           d="m 480.1,385.5 c -2,0 -2,3.1 0,3.1 2,0.1 2,-3.1 0,-3.1 z"
           id="path5013"
           inkscape:connector-curvature="0" /><path
           d="m 486.2,385.5 c -2,0 -2,3.1 0,3.1 2.1,0.1 2.1,-3.1 0,-3.1 z"
           id="path5015"
           inkscape:connector-curvature="0" /><path
           d="m 492.3,385.5 c -2,0 -2,3.1 0,3.1 2.1,0.1 2.1,-3.1 0,-3.1 z"
           id="path5017"
           inkscape:connector-curvature="0" /><path
           d="m 498.5,385.5 c -2,0 -2,3.1 0,3.1 2,0.1 2,-3.1 0,-3.1 z"
           id="path5019"
           inkscape:connector-curvature="0" /><path
           d="m 504.6,385.5 c -2,0 -2,3.1 0,3.1 2,0.1 2,-3.1 0,-3.1 z"
           id="path5021"
           inkscape:connector-curvature="0" /><path
           d="m 510.8,385.5 c -2,0 -2,3.1 0,3.1 2,0.1 2,-3.1 0,-3.1 z"
           id="path5023"
           inkscape:connector-curvature="0" /><path
           d="m 516.9,385.5 c -2,0 -2,3.1 0,3.1 2,0.1 2,-3.1 0,-3.1 z"
           id="path5025"
           inkscape:connector-curvature="0" /><path
           d="m 523.1,385.5 c -2,0 -2,3.1 0,3.1 2,0.1 2,-3.1 0,-3.1 z"
           id="path5027"
           inkscape:connector-curvature="0" /><path
           d="m 529.2,385.5 c -2,0 -2,3.1 0,3.1 2,0.1 2,-3.1 0,-3.1 z"
           id="path5029"
           inkscape:connector-curvature="0" /><path
           d="m 535.3,385.5 c -2,0 -2,3.1 0,3.1 2.1,0.1 2.1,-3.1 0,-3.1 z"
           id="path5031"
           inkscape:connector-curvature="0" /><path
           d="m 541.4,385.5 c -2,0 -2,3.1 0,3.1 2.1,0.1 2.1,-3.1 0,-3.1 z"
           id="path5033"
           inkscape:connector-curvature="0" /><path
           d="m 547.6,385.5 c -2,0 -2,3.1 0,3.1 2,0.1 2,-3.1 0,-3.1 z"
           id="path5035"
           inkscape:connector-curvature="0" /><path
           d="m 553.7,385.5 c -2,0 -2,3.1 0,3.1 2,0.1 2,-3.1 0,-3.1 z"
           id="path5037"
           inkscape:connector-curvature="0" /><path
           d="m 559.9,385.5 c -2,0 -2,3.1 0,3.1 2,0.1 2,-3.1 0,-3.1 z"
           id="path5039"
           inkscape:connector-curvature="0" /><path
           d="m 566,385.5 c -2,0 -2,3.1 0,3.1 2,0.1 2,-3.1 0,-3.1 z"
           id="path5041"
           inkscape:connector-curvature="0" /><path
           d="m 572.2,385.5 c -2,0 -2,3.1 0,3.1 2,0.1 2,-3.1 0,-3.1 z"
           id="path5043"
           inkscape:connector-curvature="0" /><path
           d="m 578.3,385.5 c -2,0 -2,3.1 0,3.1 2,0.1 2,-3.1 0,-3.1 z"
           id="path5045"
           inkscape:connector-curvature="0" /><path
           d="m 584.4,385.5 c -2,0 -2,3.1 0,3.1 2.1,0.1 2.1,-3.1 0,-3.1 z"
           id="path5047"
           inkscape:connector-curvature="0" /><path
           d="m 590.5,385.5 c -2,0 -2,3.1 0,3.1 2.1,0.1 2.1,-3.1 0,-3.1 z"
           id="path5049"
           inkscape:connector-curvature="0" /><path
           d="m 596.7,385.5 c -2,0 -2,3.1 0,3.1 2,0.1 2,-3.1 0,-3.1 z"
           id="path5051"
           inkscape:connector-curvature="0" /><path
           d="m 602.8,385.5 c -2,0 -2,3.1 0,3.1 2,0.1 2,-3.1 0,-3.1 z"
           id="path5053"
           inkscape:connector-curvature="0" /><path
           d="m 609,385.5 c -2,0 -2,3.1 0,3.1 2,0.1 2,-3.1 0,-3.1 z"
           id="path5055"
           inkscape:connector-curvature="0" /><path
           d="m 615.1,385.5 c -2,0 -2,3.1 0,3.1 2,0.1 2,-3.1 0,-3.1 z"
           id="path5057"
           inkscape:connector-curvature="0" /><path
           d="m 621.3,385.5 c -2,0 -2,3.1 0,3.1 2,0.1 2,-3.1 0,-3.1 z"
           id="path5059"
           inkscape:connector-curvature="0" /><path
           d="m 627.4,385.5 c -2,0 -2,3.1 0,3.1 2,0.1 2,-3.1 0,-3.1 z"
           id="path5061"
           inkscape:connector-curvature="0" /><path
           d="m 633.5,385.5 c -2,0 -2,3.1 0,3.1 2.1,0.1 2.1,-3.1 0,-3.1 z"
           id="path5063"
           inkscape:connector-curvature="0" /><path
           d="m 639.6,385.5 c -2,0 -2,3.1 0,3.1 2.1,0.1 2.1,-3.1 0,-3.1 z"
           id="path5065"
           inkscape:connector-curvature="0" /><path
           d="m 645.8,385.5 c -2,0 -2,3.1 0,3.1 2,0.1 2,-3.1 0,-3.1 z"
           id="path5067"
           inkscape:connector-curvature="0" /><path
           d="m 651.9,385.5 c -2,0 -2,3.1 0,3.1 2,0.1 2,-3.1 0,-3.1 z"
           id="path5069"
           inkscape:connector-curvature="0" /><path
           d="m 658.1,385.5 c -2,0 -2,3.1 0,3.1 2,0.1 2,-3.1 0,-3.1 z"
           id="path5071"
           inkscape:connector-curvature="0" /><path
           d="m 664.2,385.5 c -2,0 -2,3.1 0,3.1 2,0.1 2,-3.1 0,-3.1 z"
           id="path5073"
           inkscape:connector-curvature="0" /><path
           d="m 670.3,385.5 c -2,0 -2,3.1 0,3.1 2.1,0.1 2.1,-3.1 0,-3.1 z"
           id="path5075"
           inkscape:connector-curvature="0" /><path
           d="m 676.5,385.5 c -2,0 -2,3.1 0,3.1 2,0.1 2,-3.1 0,-3.1 z"
           id="path5077"
           inkscape:connector-curvature="0" /><path
           d="m 682.6,385.5 c -2,0 -2,3.1 0,3.1 2,0.1 2.1,-3.1 0,-3.1 z"
           id="path5079"
           inkscape:connector-curvature="0" /><path
           d="m 688.7,385.5 c -2,0 -2,3.1 0,3.1 2.1,0.1 2.1,-3.1 0,-3.1 z"
           id="path5081"
           inkscape:connector-curvature="0" /><path
           d="m 694.9,385.5 c -2,0 -2,3.1 0,3.1 2,0.1 2,-3.1 0,-3.1 z"
           id="path5083"
           inkscape:connector-curvature="0" /><path
           d="m 701,385.5 c -2,0 -2,3.1 0,3.1 2,0.1 2,-3.1 0,-3.1 z"
           id="path5085"
           inkscape:connector-curvature="0" /><path
           d="m 707.2,385.5 c -2,0 -2,3.1 0,3.1 2,0.1 2,-3.1 0,-3.1 z"
           id="path5087"
           inkscape:connector-curvature="0" /><path
           d="m 713.3,385.5 c -2,0 -2,3.1 0,3.1 2,0.1 2,-3.1 0,-3.1 z"
           id="path5089"
           inkscape:connector-curvature="0" /><path
           d="m 719.4,385.5 c -2,0 -2,3.1 0,3.1 2.1,0.1 2.1,-3.1 0,-3.1 z"
           id="path5091"
           inkscape:connector-curvature="0" /><path
           d="m 725.5,385.5 c -2,0 -2,3.1 0,3.1 2.1,0.1 2.1,-3.1 0,-3.1 z"
           id="path5093"
           inkscape:connector-curvature="0" /><path
           d="m 731.7,385.5 c -2,0 -2,3.1 0,3.1 2,0.1 2,-3.1 0,-3.1 z"
           id="path5095"
           inkscape:connector-curvature="0" /><path
           d="m 737.8,385.5 c -2,0 -2,3.1 0,3.1 2,0.1 2,-3.1 0,-3.1 z"
           id="path5097"
           inkscape:connector-curvature="0" /><path
           d="m 744,385.5 c -2,0 -2,3.1 0,3.1 2,0.1 2,-3.1 0,-3.1 z"
           id="path5099"
           inkscape:connector-curvature="0" /><path
           d="m 750.1,385.5 c -2,0 -2,3.1 0,3.1 2,0.1 2,-3.1 0,-3.1 z"
           id="path5101"
           inkscape:connector-curvature="0" /><path
           d="m 756.3,385.5 c -2,0 -2,3.1 0,3.1 2,0.1 2,-3.1 0,-3.1 z"
           id="path5103"
           inkscape:connector-curvature="0" /><path
           d="m 762.4,385.5 c -2,0 -2,3.1 0,3.1 2,0.1 2,-3.1 0,-3.1 z"
           id="path5105"
           inkscape:connector-curvature="0" /><path
           d="m 768.5,385.5 c -2,0 -2,3.1 0,3.1 2.1,0.1 2.1,-3.1 0,-3.1 z"
           id="path5107"
           inkscape:connector-curvature="0" /><path
           d="m 774.6,385.5 c -2,0 -2,3.1 0,3.1 2.1,0.1 2.1,-3.1 0,-3.1 z"
           id="path5109"
           inkscape:connector-curvature="0" /><path
           d="m 780.8,385.5 c -2,0 -2,3.1 0,3.1 2,0.1 2,-3.1 0,-3.1 z"
           id="path5111"
           inkscape:connector-curvature="0" /><path
           d="m 786.9,385.5 c -2,0 -2,3.1 0,3.1 2,0.1 2,-3.1 0,-3.1 z"
           id="path5113"
           inkscape:connector-curvature="0" /><path
           d="m 793.1,385.5 c -2,0 -2,3.1 0,3.1 2,0.1 2,-3.1 0,-3.1 z"
           id="path5115"
           inkscape:connector-curvature="0" /><path
           d="m 799.2,385.5 c -2,0 -2,3.1 0,3.1 2,0.1 2,-3.1 0,-3.1 z"
           id="path5117"
           inkscape:connector-curvature="0" /><path
           d="m 805.4,385.5 c -2,0 -2,3.1 0,3.1 2,0.1 2,-3.1 0,-3.1 z"
           id="path5119"
           inkscape:connector-curvature="0" /><path
           d="m 811.5,385.5 c -2,0 -2,3.1 0,3.1 2,0.1 2,-3.1 0,-3.1 z"
           id="path5121"
           inkscape:connector-curvature="0" /><path
           d="m 817.6,385.5 c -2,0 -2,3.1 0,3.1 2.1,0.1 2.1,-3.1 0,-3.1 z"
           id="path5123"
           inkscape:connector-curvature="0" /><path
           d="m 823.7,385.5 c -2,0 -2,3.1 0,3.1 2.1,0.1 2.1,-3.1 0,-3.1 z"
           id="path5125"
           inkscape:connector-curvature="0" /><path
           d="m 829.9,385.5 c -2,0 -2,3.1 0,3.1 2,0.1 2,-3.1 0,-3.1 z"
           id="path5127"
           inkscape:connector-curvature="0" /><path
           d="m 836,385.5 c -2,0 -2,3.1 0,3.1 2,0.1 2,-3.1 0,-3.1 z"
           id="path5129"
           inkscape:connector-curvature="0" /><path
           d="m 842.2,385.5 c -2,0 -2,3.1 0,3.1 2,0.1 2,-3.1 0,-3.1 z"
           id="path5131"
           inkscape:connector-curvature="0" /><path
           d="m 848.3,385.5 c -2,0 -2,3.1 0,3.1 2,0.1 2,-3.1 0,-3.1 z"
           id="path5133"
           inkscape:connector-curvature="0" /><path
           d="m 154.9,599.6 c 2,0 2,-3.1 0,-3.1 -2.1,0 -2.1,3.1 0,3.1 z"
           id="path5135"
           inkscape:connector-curvature="0" /><path
           d="m 161,599.6 c 2,0 2,-3.1 0,-3.1 -2.1,0 -2.1,3.1 0,3.1 z"
           id="path5137"
           inkscape:connector-curvature="0" /><path
           d="m 167.1,599.6 c 2,0 2,-3.1 0,-3.1 -2,0 -2,3.1 0,3.1 z"
           id="path5139"
           inkscape:connector-curvature="0" /><path
           d="m 173.2,599.6 c 2,0 2,-3.1 0,-3.1 -2,0 -2,3.1 0,3.1 z"
           id="path5141"
           inkscape:connector-curvature="0" /><path
           d="m 179.4,599.6 c 2,0 2,-3.1 0,-3.1 -2,0 -2,3.1 0,3.1 z"
           id="path5143"
           inkscape:connector-curvature="0" /><path
           d="m 185.5,599.6 c 2,0 2,-3.1 0,-3.1 -2,0 -2,3.1 0,3.1 z"
           id="path5145"
           inkscape:connector-curvature="0" /><path
           d="m 191.7,599.6 c 2,0 2,-3.1 0,-3.1 -2,0 -2.1,3.1 0,3.1 z"
           id="path5147"
           inkscape:connector-curvature="0" /><path
           d="m 197.8,599.6 c 2,0 2,-3.1 0,-3.1 -2,0 -2,3.1 0,3.1 z"
           id="path5149"
           inkscape:connector-curvature="0" /><path
           d="m 204,599.6 c 2,0 2,-3.1 0,-3.1 -2.1,0 -2.1,3.1 0,3.1 z"
           id="path5151"
           inkscape:connector-curvature="0" /><path
           d="m 210.1,599.6 c 2,0 2,-3.1 0,-3.1 -2.1,0 -2.1,3.1 0,3.1 z"
           id="path5153"
           inkscape:connector-curvature="0" /><path
           d="m 216.2,599.6 c 2,0 2,-3.1 0,-3.1 -2,0 -2,3.1 0,3.1 z"
           id="path5155"
           inkscape:connector-curvature="0" /><path
           d="m 222.3,599.6 c 2,0 2,-3.1 0,-3.1 -2,0 -2,3.1 0,3.1 z"
           id="path5157"
           inkscape:connector-curvature="0" /><path
           d="m 228.5,599.6 c 2,0 2,-3.1 0,-3.1 -2,0 -2,3.1 0,3.1 z"
           id="path5159"
           inkscape:connector-curvature="0" /><path
           d="m 234.6,599.6 c 2,0 2,-3.1 0,-3.1 -2,0 -2,3.1 0,3.1 z"
           id="path5161"
           inkscape:connector-curvature="0" /><path
           d="m 240.8,599.6 c 2,0 2,-3.1 0,-3.1 -2.1,0 -2.1,3.1 0,3.1 z"
           id="path5163"
           inkscape:connector-curvature="0" /><path
           d="m 246.9,599.6 c 2,0 2,-3.1 0,-3.1 -2.1,0 -2.1,3.1 0,3.1 z"
           id="path5165"
           inkscape:connector-curvature="0" /><path
           d="m 253,599.6 c 2,0 2,-3.1 0,-3.1 -2,0 -2,3.1 0,3.1 z"
           id="path5167"
           inkscape:connector-curvature="0" /><path
           d="m 259.1,599.6 c 2,0 2,-3.1 0,-3.1 -2,0 -2,3.1 0,3.1 z"
           id="path5169"
           inkscape:connector-curvature="0" /><path
           d="m 265.3,599.6 c 2,0 2,-3.1 0,-3.1 -2,0 -2,3.1 0,3.1 z"
           id="path5171"
           inkscape:connector-curvature="0" /><path
           d="m 271.4,599.6 c 2,0 2,-3.1 0,-3.1 -2,0 -2,3.1 0,3.1 z"
           id="path5173"
           inkscape:connector-curvature="0" /><path
           d="m 277.6,599.6 c 2,0 2,-3.1 0,-3.1 -2,0 -2,3.1 0,3.1 z"
           id="path5175"
           inkscape:connector-curvature="0" /><path
           d="m 283.7,599.6 c 2,0 2,-3.1 0,-3.1 -2,0 -2,3.1 0,3.1 z"
           id="path5177"
           inkscape:connector-curvature="0" /><path
           d="m 289.9,599.6 c 2,0 2,-3.1 0,-3.1 -2.1,0 -2.1,3.1 0,3.1 z"
           id="path5179"
           inkscape:connector-curvature="0" /><path
           d="m 296,599.6 c 2,0 2,-3.1 0,-3.1 -2.1,0 -2.1,3.1 0,3.1 z"
           id="path5181"
           inkscape:connector-curvature="0" /><path
           d="m 302.1,599.6 c 2,0 2,-3.1 0,-3.1 -2,0 -2,3.1 0,3.1 z"
           id="path5183"
           inkscape:connector-curvature="0" /><path
           d="m 308.2,599.6 c 2,0 2,-3.1 0,-3.1 -2,0 -2,3.1 0,3.1 z"
           id="path5185"
           inkscape:connector-curvature="0" /><path
           d="m 314.4,599.6 c 2,0 2,-3.1 0,-3.1 -2,0 -2,3.1 0,3.1 z"
           id="path5187"
           inkscape:connector-curvature="0" /><path
           d="m 320.5,599.6 c 2,0 2,-3.1 0,-3.1 -2,0 -2,3.1 0,3.1 z"
           id="path5189"
           inkscape:connector-curvature="0" /><path
           d="m 326.7,599.6 c 2,0 2,-3.1 0,-3.1 -2,0 -2,3.1 0,3.1 z"
           id="path5191"
           inkscape:connector-curvature="0" /><path
           d="m 332.8,599.6 c 2,0 2,-3.1 0,-3.1 -2,0 -2,3.1 0,3.1 z"
           id="path5193"
           inkscape:connector-curvature="0" /><path
           d="m 339,599.6 c 2,0 2,-3.1 0,-3.1 -2.1,0 -2.1,3.1 0,3.1 z"
           id="path5195"
           inkscape:connector-curvature="0" /><path
           d="m 345.1,599.6 c 2,0 2,-3.1 0,-3.1 -2.1,0 -2.1,3.1 0,3.1 z"
           id="path5197"
           inkscape:connector-curvature="0" /><path
           d="m 351.2,599.6 c 2,0 2,-3.1 0,-3.1 -2,0 -2,3.1 0,3.1 z"
           id="path5199"
           inkscape:connector-curvature="0" /><path
           d="m 357.3,599.6 c 2,0 2,-3.1 0,-3.1 -2,0 -2,3.1 0,3.1 z"
           id="path5201"
           inkscape:connector-curvature="0" /><path
           d="m 363.5,599.6 c 2,0 2,-3.1 0,-3.1 -2,0 -2,3.1 0,3.1 z"
           id="path5203"
           inkscape:connector-curvature="0" /><path
           d="m 369.6,599.6 c 2,0 2,-3.1 0,-3.1 -2,0 -2,3.1 0,3.1 z"
           id="path5205"
           inkscape:connector-curvature="0" /><path
           d="m 375.8,599.6 c 2,0 2,-3.1 0,-3.1 -2,0 -2,3.1 0,3.1 z"
           id="path5207"
           inkscape:connector-curvature="0" /><path
           d="m 381.9,599.6 c 2,0 2,-3.1 0,-3.1 -2,0 -2,3.1 0,3.1 z"
           id="path5209"
           inkscape:connector-curvature="0" /><path
           d="m 388.1,599.6 c 2,0 2,-3.1 0,-3.1 -2.1,0 -2.1,3.1 0,3.1 z"
           id="path5211"
           inkscape:connector-curvature="0" /><path
           d="m 394.2,599.6 c 2,0 2,-3.1 0,-3.1 -2.1,0 -2.1,3.1 0,3.1 z"
           id="path5213"
           inkscape:connector-curvature="0" /><path
           d="m 400.3,599.6 c 2,0 2,-3.1 0,-3.1 -2,0 -2,3.1 0,3.1 z"
           id="path5215"
           inkscape:connector-curvature="0" /><path
           d="m 406.4,599.6 c 2,0 2,-3.1 0,-3.1 -2,0 -2,3.1 0,3.1 z"
           id="path5217"
           inkscape:connector-curvature="0" /><path
           d="m 412.6,599.6 c 2,0 2,-3.1 0,-3.1 -2,0 -2,3.1 0,3.1 z"
           id="path5219"
           inkscape:connector-curvature="0" /><path
           d="m 418.7,599.6 c 2,0 2,-3.1 0,-3.1 -2,0 -2,3.1 0,3.1 z"
           id="path5221"
           inkscape:connector-curvature="0" /><path
           d="m 424.9,599.6 c 2,0 2,-3.1 0,-3.1 -2,0 -2.1,3.1 0,3.1 z"
           id="path5223"
           inkscape:connector-curvature="0" /><path
           d="m 431,599.6 c 2,0 2,-3.1 0,-3.1 -2,0 -2.1,3.1 0,3.1 z"
           id="path5225"
           inkscape:connector-curvature="0" /><path
           d="m 437.2,599.6 c 2,0 2,-3.1 0,-3.1 -2.1,0 -2.1,3.1 0,3.1 z"
           id="path5227"
           inkscape:connector-curvature="0" /><path
           d="m 443.3,599.6 c 2,0 2,-3.1 0,-3.1 -2.1,0 -2.1,3.1 0,3.1 z"
           id="path5229"
           inkscape:connector-curvature="0" /><path
           d="m 449.4,599.6 c 2,0 2,-3.1 0,-3.1 -2,0 -2,3.1 0,3.1 z"
           id="path5231"
           inkscape:connector-curvature="0" /><path
           d="m 455.5,599.6 c 2,0 2,-3.1 0,-3.1 -2,0 -2,3.1 0,3.1 z"
           id="path5233"
           inkscape:connector-curvature="0" /><path
           d="m 461.7,599.6 c 2,0 2,-3.1 0,-3.1 -2,0 -2,3.1 0,3.1 z"
           id="path5235"
           inkscape:connector-curvature="0" /><path
           d="m 467.8,599.6 c 2,0 2,-3.1 0,-3.1 -2,0 -2,3.1 0,3.1 z"
           id="path5237"
           inkscape:connector-curvature="0" /><path
           d="m 474,599.6 c 2,0 2,-3.1 0,-3.1 -2.1,0 -2.1,3.1 0,3.1 z"
           id="path5239"
           inkscape:connector-curvature="0" /><path
           d="m 480.1,599.6 c 2,0 2,-3.1 0,-3.1 -2.1,0 -2.1,3.1 0,3.1 z"
           id="path5241"
           inkscape:connector-curvature="0" /><path
           d="m 486.2,599.6 c 2,0 2,-3.1 0,-3.1 -2,0 -2,3.1 0,3.1 z"
           id="path5243"
           inkscape:connector-curvature="0" /><path
           d="m 492.3,599.6 c 2,0 2,-3.1 0,-3.1 -2,0 -2,3.1 0,3.1 z"
           id="path5245"
           inkscape:connector-curvature="0" /><path
           d="m 498.5,599.6 c 2,0 2,-3.1 0,-3.1 -2,0 -2,3.1 0,3.1 z"
           id="path5247"
           inkscape:connector-curvature="0" /><path
           d="m 504.6,599.6 c 2,0 2,-3.1 0,-3.1 -2,0 -2,3.1 0,3.1 z"
           id="path5249"
           inkscape:connector-curvature="0" /><path
           d="m 510.8,599.6 c 2,0 2,-3.1 0,-3.1 -2,0 -2,3.1 0,3.1 z"
           id="path5251"
           inkscape:connector-curvature="0" /><path
           d="m 516.9,599.6 c 2,0 2,-3.1 0,-3.1 -2,0 -2,3.1 0,3.1 z"
           id="path5253"
           inkscape:connector-curvature="0" /><path
           d="m 523.1,599.6 c 2,0 2,-3.1 0,-3.1 -2.1,0 -2.1,3.1 0,3.1 z"
           id="path5255"
           inkscape:connector-curvature="0" /><path
           d="m 529.2,599.6 c 2,0 2,-3.1 0,-3.1 -2.1,0 -2.1,3.1 0,3.1 z"
           id="path5257"
           inkscape:connector-curvature="0" /><path
           d="m 535.3,599.6 c 2,0 2,-3.1 0,-3.1 -2,0 -2,3.1 0,3.1 z"
           id="path5259"
           inkscape:connector-curvature="0" /><path
           d="m 541.4,599.6 c 2,0 2,-3.1 0,-3.1 -2,0 -2,3.1 0,3.1 z"
           id="path5261"
           inkscape:connector-curvature="0" /><path
           d="m 547.6,599.6 c 2,0 2,-3.1 0,-3.1 -2,0 -2,3.1 0,3.1 z"
           id="path5263"
           inkscape:connector-curvature="0" /><path
           d="m 553.7,599.6 c 2,0 2,-3.1 0,-3.1 -2,0 -2,3.1 0,3.1 z"
           id="path5265"
           inkscape:connector-curvature="0" /><path
           d="m 559.9,599.6 c 2,0 2,-3.1 0,-3.1 -2,0 -2,3.1 0,3.1 z"
           id="path5267"
           inkscape:connector-curvature="0" /><path
           d="m 566,599.6 c 2,0 2,-3.1 0,-3.1 -2,0 -2,3.1 0,3.1 z"
           id="path5269"
           inkscape:connector-curvature="0" /><path
           d="m 572.2,599.6 c 2,0 2,-3.1 0,-3.1 -2.1,0 -2.1,3.1 0,3.1 z"
           id="path5271"
           inkscape:connector-curvature="0" /><path
           d="m 578.3,599.6 c 2,0 2,-3.1 0,-3.1 -2.1,0 -2.1,3.1 0,3.1 z"
           id="path5273"
           inkscape:connector-curvature="0" /><path
           d="m 584.4,599.6 c 2,0 2,-3.1 0,-3.1 -2,0 -2,3.1 0,3.1 z"
           id="path5275"
           inkscape:connector-curvature="0" /><path
           d="m 590.5,599.6 c 2,0 2,-3.1 0,-3.1 -2,0 -2,3.1 0,3.1 z"
           id="path5277"
           inkscape:connector-curvature="0" /><path
           d="m 596.7,599.6 c 2,0 2,-3.1 0,-3.1 -2,0 -2,3.1 0,3.1 z"
           id="path5279"
           inkscape:connector-curvature="0" /><path
           d="m 602.8,599.6 c 2,0 2,-3.1 0,-3.1 -2,0 -2,3.1 0,3.1 z"
           id="path5281"
           inkscape:connector-curvature="0" /><path
           d="m 609,599.6 c 2,0 2,-3.1 0,-3.1 -2,0 -2,3.1 0,3.1 z"
           id="path5283"
           inkscape:connector-curvature="0" /><path
           d="m 615.1,599.6 c 2,0 2,-3.1 0,-3.1 -2,0 -2,3.1 0,3.1 z"
           id="path5285"
           inkscape:connector-curvature="0" /><path
           d="m 621.3,599.6 c 2,0 2,-3.1 0,-3.1 -2.1,0 -2.1,3.1 0,3.1 z"
           id="path5287"
           inkscape:connector-curvature="0" /><path
           d="m 627.4,599.6 c 2,0 2,-3.1 0,-3.1 -2.1,0 -2.1,3.1 0,3.1 z"
           id="path5289"
           inkscape:connector-curvature="0" /><path
           d="m 633.5,599.6 c 2,0 2,-3.1 0,-3.1 -2,0 -2,3.1 0,3.1 z"
           id="path5291"
           inkscape:connector-curvature="0" /><path
           d="m 639.6,599.6 c 2,0 2,-3.1 0,-3.1 -2,0 -2,3.1 0,3.1 z"
           id="path5293"
           inkscape:connector-curvature="0" /><path
           d="m 645.8,599.6 c 2,0 2,-3.1 0,-3.1 -2,0 -2,3.1 0,3.1 z"
           id="path5295"
           inkscape:connector-curvature="0" /><path
           d="m 651.9,599.6 c 2,0 2,-3.1 0,-3.1 -2,0 -2,3.1 0,3.1 z"
           id="path5297"
           inkscape:connector-curvature="0" /><path
           d="m 658.1,599.6 c 2,0 2,-3.1 0,-3.1 -2,0 -2.1,3.1 0,3.1 z"
           id="path5299"
           inkscape:connector-curvature="0" /><path
           d="m 664.2,599.6 c 2,0 2,-3.1 0,-3.1 -2,0 -2.1,3.1 0,3.1 z"
           id="path5301"
           inkscape:connector-curvature="0" /><path
           d="m 670.3,599.6 c 2,0 2,-3.1 0,-3.1 -2,0 -2,3.1 0,3.1 z"
           id="path5303"
           inkscape:connector-curvature="0" /><path
           d="m 676.5,599.6 c 2,0 2,-3.1 0,-3.1 -2.1,0 -2.1,3.1 0,3.1 z"
           id="path5305"
           inkscape:connector-curvature="0" /><path
           d="m 682.6,599.6 c 2,0 2,-3.1 0,-3.1 -2,0 -2,3.1 0,3.1 z"
           id="path5307"
           inkscape:connector-curvature="0" /><path
           d="m 688.7,599.6 c 2,0 2,-3.1 0,-3.1 -2,0 -2,3.1 0,3.1 z"
           id="path5309"
           inkscape:connector-curvature="0" /><path
           d="m 694.9,599.6 c 2,0 2,-3.1 0,-3.1 -2,0 -2,3.1 0,3.1 z"
           id="path5311"
           inkscape:connector-curvature="0" /><path
           d="m 701,599.6 c 2,0 2,-3.1 0,-3.1 -2,0 -2,3.1 0,3.1 z"
           id="path5313"
           inkscape:connector-curvature="0" /><path
           d="m 707.2,599.6 c 2,0 2,-3.1 0,-3.1 -2.1,0 -2.1,3.1 0,3.1 z"
           id="path5315"
           inkscape:connector-curvature="0" /><path
           d="m 713.3,599.6 c 2,0 2,-3.1 0,-3.1 -2.1,0 -2.1,3.1 0,3.1 z"
           id="path5317"
           inkscape:connector-curvature="0" /><path
           d="m 719.4,599.6 c 2,0 2,-3.1 0,-3.1 -2,0 -2,3.1 0,3.1 z"
           id="path5319"
           inkscape:connector-curvature="0" /><path
           d="m 725.5,599.6 c 2,0 2,-3.1 0,-3.1 -2,0 -2,3.1 0,3.1 z"
           id="path5321"
           inkscape:connector-curvature="0" /><path
           d="m 731.7,599.6 c 2,0 2,-3.1 0,-3.1 -2,0 -2,3.1 0,3.1 z"
           id="path5323"
           inkscape:connector-curvature="0" /><path
           d="m 737.8,599.6 c 2,0 2,-3.1 0,-3.1 -2,0 -2,3.1 0,3.1 z"
           id="path5325"
           inkscape:connector-curvature="0" /><path
           d="m 744,599.6 c 2,0 2,-3.1 0,-3.1 -2,0 -2,3.1 0,3.1 z"
           id="path5327"
           inkscape:connector-curvature="0" /><path
           d="m 750.1,599.6 c 2,0 2,-3.1 0,-3.1 -2,0 -2,3.1 0,3.1 z"
           id="path5329"
           inkscape:connector-curvature="0" /><path
           d="m 756.3,599.6 c 2,0 2,-3.1 0,-3.1 -2.1,0 -2.1,3.1 0,3.1 z"
           id="path5331"
           inkscape:connector-curvature="0" /><path
           d="m 762.4,599.6 c 2,0 2,-3.1 0,-3.1 -2.1,0 -2.1,3.1 0,3.1 z"
           id="path5333"
           inkscape:connector-curvature="0" /><path
           d="m 768.5,599.6 c 2,0 2,-3.1 0,-3.1 -2,0 -2,3.1 0,3.1 z"
           id="path5335"
           inkscape:connector-curvature="0" /><path
           d="m 774.6,599.6 c 2,0 2,-3.1 0,-3.1 -2,0 -2,3.1 0,3.1 z"
           id="path5337"
           inkscape:connector-curvature="0" /><path
           d="m 780.8,599.6 c 2,0 2,-3.1 0,-3.1 -2,0 -2,3.1 0,3.1 z"
           id="path5339"
           inkscape:connector-curvature="0" /><path
           d="m 786.9,599.6 c 2,0 2,-3.1 0,-3.1 -2,0 -2,3.1 0,3.1 z"
           id="path5341"
           inkscape:connector-curvature="0" /><path
           d="m 793.1,599.6 c 2,0 2,-3.1 0,-3.1 -2,0 -2,3.1 0,3.1 z"
           id="path5343"
           inkscape:connector-curvature="0" /><path
           d="m 799.2,599.6 c 2,0 2,-3.1 0,-3.1 -2,0 -2,3.1 0,3.1 z"
           id="path5345"
           inkscape:connector-curvature="0" /><path
           d="m 805.4,599.6 c 2,0 2,-3.1 0,-3.1 -2.1,0 -2.1,3.1 0,3.1 z"
           id="path5347"
           inkscape:connector-curvature="0" /><path
           d="m 811.5,599.6 c 2,0 2,-3.1 0,-3.1 -2.1,0 -2.1,3.1 0,3.1 z"
           id="path5349"
           inkscape:connector-curvature="0" /><path
           d="m 817.6,599.6 c 2,0 2,-3.1 0,-3.1 -2,0 -2,3.1 0,3.1 z"
           id="path5351"
           inkscape:connector-curvature="0" /><path
           d="m 823.7,599.6 c 2,0 2,-3.1 0,-3.1 -2,0 -2,3.1 0,3.1 z"
           id="path5353"
           inkscape:connector-curvature="0" /><path
           d="m 829.9,599.6 c 2,0 2,-3.1 0,-3.1 -2,0 -2,3.1 0,3.1 z"
           id="path5355"
           inkscape:connector-curvature="0" /><path
           d="m 836,599.6 c 2,0 2,-3.1 0,-3.1 -2,0 -2,3.1 0,3.1 z"
           id="path5357"
           inkscape:connector-curvature="0" /><path
           d="m 842.2,599.6 c 2,0 2,-3.1 0,-3.1 -2,0 -2,3.1 0,3.1 z"
           id="path5359"
           inkscape:connector-curvature="0" /><path
           d="m 848.3,599.6 c 2,0 2,-3.1 0,-3.1 -2,0 -2,3.1 0,3.1 z"
           id="path5361"
           inkscape:connector-curvature="0" /></g></g></switch></svg>