<?xml version="1.0" encoding="UTF-8" standalone="no"?>
<svg
   xmlns:dc="http://purl.org/dc/elements/1.1/"
   xmlns:cc="http://creativecommons.org/ns#"
   xmlns:rdf="http://www.w3.org/1999/02/22-rdf-syntax-ns#"
   xmlns:svg="http://www.w3.org/2000/svg"
   xmlns="http://www.w3.org/2000/svg"
   xmlns:sodipodi="http://sodipodi.sourceforge.net/DTD/sodipodi-0.dtd"
   xmlns:inkscape="http://www.inkscape.org/namespaces/inkscape"
   version="1.1"
   id="Layer_1"
   x="0px"
   y="0px"
   viewBox="0 0 1000 1000"
   width="100%"
   height="100%"
   style="enable-background:new 0 0 1000 1000;"
   xml:space="preserve"
  ><style
     type="text/css"
     id="style3">
	.noFillSVG{fill:none;}
</style><switch
     id="switch5"
     transform="translate(-18.05,19.2)"><g
       id="g7"><g
         id="g9"><path
           class="noFillSVG"
           d="m 374.6,469.5 c 0.2,-6.2 0.4,-12.3 0.6,-18.5 0.2,-5.6 1,-10.9 -6.1,-11 -9.9,-0.1 -20.6,4 -29.3,8.4 -16.4,8.3 -30.9,20.6 -43,34.4 3.9,4.4 8.1,8.5 12.6,12.4 14.7,12.9 32.4,23.5 51.1,29.4 4.6,1.4 11.4,3.4 12.4,-3 0.9,-5.3 0.4,-11.2 0.5,-16.5 0.5,-11.8 0.8,-23.7 1.2,-35.6 z"
           id="path11"
           inkscape:connector-curvature="0"
           style="fill:none" /><path
           class="noFillSVG"
           d="m 655.1,323.3 c -10.8,0.7 -21.5,2.7 -31.9,5.7 -9.7,2.8 -22.1,6.1 -29.9,12.7 -2.8,2.4 -4.1,4.3 -1.7,7.8 1.4,1.9 3.4,3.6 5,5.3 3.9,4.2 7.9,8.3 11.8,12.5 8.5,9 16.9,18 25.4,27 3.4,3.6 8.4,11.7 13.4,12.4 4.8,0.7 8.8,-6.5 11.1,-10.2 5.7,-9 9.3,-19 11.7,-29.4 3.2,-14.3 4.2,-29.2 3.1,-43.9 -6,-0.4 -12,-0.3 -18,0.1 z"
           id="path13"
           inkscape:connector-curvature="0"
           style="fill:none" /><path
           class="noFillSVG"
           d="m 556.4,644 c 1.3,-4.8 2.8,-10.1 2.4,-15.1 -0.5,-6.9 -6.9,-5.3 -12.3,-5.1 -11.9,0.4 -23.8,0.7 -35.7,1.1 -6.2,0.2 -12.3,0.4 -18.5,0.6 -5,0.2 -12.2,-1 -16.8,1 -7.6,3.3 2.1,21.6 4.5,26.6 8.2,17.8 19.8,33.8 34,47.3 0.7,0.6 1.3,1.2 2,1.8 2.7,-2.4 5.4,-4.8 8,-7.4 14.2,-14.2 26.9,-31.4 32.4,-50.8 z"
           id="path15"
           inkscape:connector-curvature="0"
           style="fill:none" /><path
           class="noFillSVG"
           d="m 370.5,382 c 2.1,5.6 11.8,29 20.3,24.4 2.2,-1.2 4.3,-4.5 6,-6.3 2.1,-2.2 4.2,-4.5 6.3,-6.7 3.9,-4.2 7.9,-8.3 11.8,-12.5 8.5,-9 16.9,-18 25.4,-27 1.5,-1.6 5.6,-4.9 5.7,-7.4 0,-2.3 -2.6,-4.3 -4.2,-5.5 -4,-2.9 -8.9,-4.9 -13.5,-6.7 -20.5,-8.4 -42.7,-12.2 -64.8,-11.2 -0.1,0 -0.3,0 -0.4,0 0,0.1 0,0.3 0,0.4 -1.5,19.6 0.3,40 7.4,58.5 z"
           id="path17"
           inkscape:connector-curvature="0"
           style="fill:none" /><path
           class="noFillSVG"
           d="m 479.5,317.8 c -1.3,4.8 -2.8,10.1 -2.4,15.1 0.5,6.9 6.9,5.3 12.3,5.1 11.9,-0.4 23.8,-0.7 35.7,-1.1 6.2,-0.2 12.3,-0.4 18.5,-0.6 5,-0.2 12.2,1 16.8,-1 7.6,-3.3 -2.1,-21.6 -4.5,-26.6 -8.2,-17.8 -19.8,-33.8 -34,-47.3 -0.7,-0.6 -1.3,-1.2 -2,-1.8 -2.7,2.4 -5.4,4.8 -8,7.4 -14.1,14.2 -26.9,31.3 -32.4,50.8 z"
           id="path19"
           inkscape:connector-curvature="0"
           style="fill:none" /><path
           class="noFillSVG"
           d="m 380.9,638.5 c 10.8,-0.7 21.5,-2.7 31.9,-5.7 9.7,-2.8 22.1,-6.1 29.9,-12.7 2.8,-2.4 4.1,-4.3 1.7,-7.8 -1.4,-1.9 -3.4,-3.6 -5,-5.3 -3.9,-4.2 -7.9,-8.3 -11.8,-12.5 -8.5,-9 -16.9,-18 -25.4,-27 -3.4,-3.6 -8.4,-11.7 -13.4,-12.4 -4.8,-0.7 -8.8,6.5 -11.1,10.2 -5.7,9 -9.3,19 -11.7,29.4 -3.2,14.3 -4.2,29.2 -3.1,43.9 5.9,0.3 11.9,0.3 18,-0.1 z"
           id="path21"
           inkscape:connector-curvature="0"
           style="fill:none" /><path
           class="noFillSVG"
           d="m 661.4,492.3 c -0.2,6.2 -0.4,12.3 -0.6,18.5 -0.2,5.6 -1,10.9 6.1,11 9.9,0.1 20.6,-4 29.3,-8.4 16.4,-8.3 30.9,-20.6 43,-34.4 -3.9,-4.4 -8.1,-8.5 -12.6,-12.4 -14.7,-12.9 -32.4,-23.5 -51.1,-29.4 -4.6,-1.4 -11.4,-3.4 -12.4,3 -0.9,5.3 -0.4,11.2 -0.5,16.5 -0.5,11.8 -0.9,23.7 -1.2,35.6 z"
           id="path23"
           inkscape:connector-curvature="0"
           style="fill:none" /><path
           class="noFillSVG"
           d="m 665.5,579.8 c -2.1,-5.6 -11.8,-29 -20.3,-24.4 -2.2,1.2 -4.3,4.5 -6,6.3 -2.1,2.2 -4.2,4.5 -6.3,6.7 -3.9,4.2 -7.9,8.3 -11.8,12.5 -8.5,9 -16.9,18 -25.4,27 -1.5,1.6 -5.6,4.9 -5.7,7.4 0,2.3 2.6,4.3 4.2,5.5 4,2.9 8.9,4.9 13.5,6.7 20.5,8.4 42.7,12.2 64.8,11.2 0.1,0 0.3,0 0.4,0 0,-0.1 0,-0.3 0,-0.4 1.4,-19.6 -0.4,-40.1 -7.4,-58.5 z"
           id="path25"
           inkscape:connector-curvature="0"
           style="fill:none" /><path
           class="noFillSVG"
           d="m 771.6,366.6 c -23.9,-23.3 -54.8,-38.3 -87.7,-42.4 0.6,10.1 0.3,20.2 -0.9,30.1 -1.4,11.5 -3.8,22.9 -8.3,33.7 -3.9,9.5 -9.4,20.6 -17.9,26.8 -10.4,7.5 -17.8,0.8 -25.2,-7.1 -9.7,-10.3 -19.3,-20.5 -29,-30.8 -5.1,-5.5 -10.3,-10.9 -15.4,-16.4 -3.2,-3.4 -6.7,-6.9 -7.6,-11.6 -1.8,-9.7 6.8,-16.4 14.5,-20.2 22.1,-11 46.9,-16.6 71.6,-16.6 2.1,0 4.2,0.1 6.3,0.2 -0.2,-1.2 -0.3,-2.4 -0.5,-3.6 -3.1,-18.5 -9.4,-36.5 -19.4,-52.4 -7.7,-12.3 -17.5,-22.3 -28.8,-30.7 -2.3,-0.3 -4.6,-0.6 -6.9,-0.8 -31.8,-2.5 -62.8,9.1 -88,28.1 6.1,5.6 11.9,11.7 17.1,18.4 6.9,8.8 13,18.2 18,28.2 4.4,8.8 9.4,18.8 10.4,28.8 0.9,9.1 -3.5,16.9 -13,18.2 -13.4,1.8 -27.5,1 -41,1.4 -7,0.2 -14.1,0.4 -21.1,0.6 -6.5,0.2 -13.5,1.2 -20,0.3 -9.4,-1.3 -12.8,-10.1 -12.3,-18.7 1.3,-22.4 13.9,-43.1 27.9,-59.8 5.3,-6.3 11.1,-12.3 17.3,-17.8 -26.2,-20.5 -58.8,-31.5 -92.1,-31.9 -2.1,1.3 -4.2,2.7 -6.2,4.2 -28.3,20.4 -44.4,53.3 -49.2,87.4 8.6,-0.4 17.4,0 26.1,1.1 12.1,1.5 24,4.2 35.4,8.4 9.3,3.4 21.3,7.2 27.6,15.4 7.1,9.2 1.4,17.2 -5.3,24.3 -9.7,10.3 -19.3,20.5 -29,30.8 -5.1,5.5 -10.3,10.9 -15.4,16.4 -3.4,3.6 -6.7,7.9 -11.7,9.2 -10.2,2.6 -17.9,-7.6 -22.8,-15.1 -12.4,-19 -16.7,-42.7 -17.2,-65.1 -0.1,-4.6 0,-9.1 0.3,-13.7 -36.1,4.4 -69.6,22.3 -94.1,49.2 -1.7,36.6 9.6,72.6 31.8,101.1 9.3,-10.4 19.8,-19.6 31.1,-27.4 9.5,-6.5 20,-11.8 31.1,-15 8.4,-2.4 20.1,-5.2 28,-0.1 9.3,6 5.9,20.4 5.6,29.6 -0.4,14.1 -0.9,28.2 -1.3,42.3 -0.3,9.2 2.2,23.9 -6.5,30.2 -8,5.8 -19,1.7 -27.2,-1.5 -20.5,-8 -39.3,-20.1 -55.1,-35.5 -1.9,-1.9 -3.8,-3.8 -5.6,-5.8 -22.5,29.7 -33.4,67 -25.5,103.9 23.9,23.3 54.8,38.3 87.7,42.4 -0.6,-10.1 -0.3,-20.2 0.9,-30.1 1.4,-11.5 3.8,-22.9 8.3,-33.7 3.9,-9.5 9.4,-20.6 17.9,-26.8 10.4,-7.5 17.8,-0.8 25.2,7.1 9.7,10.3 19.3,20.5 29,30.8 5.1,5.5 10.3,10.9 15.4,16.4 3.2,3.4 6.7,6.9 7.6,11.6 1.8,9.7 -6.8,16.4 -14.5,20.2 -22.1,11 -46.9,16.6 -71.6,16.6 -2.1,0 -4.2,-0.1 -6.3,-0.2 0.2,1.2 0.3,2.4 0.5,3.6 3.1,18.5 9.4,36.5 19.4,52.4 7.7,12.3 17.5,22.3 28.8,30.7 2.3,0.3 4.6,0.6 6.9,0.8 31.8,2.5 62.8,-9.1 88,-28.1 -6.1,-5.6 -11.9,-11.7 -17.1,-18.4 -6.9,-8.8 -13,-18.2 -18,-28.2 -4.4,-8.8 -9.4,-18.8 -10.4,-28.8 -0.9,-9.1 3.5,-16.9 13,-18.2 13.4,-1.8 27.5,-1 41,-1.4 7,-0.2 14.1,-0.4 21.1,-0.6 6.5,-0.2 13.5,-1.2 20,-0.3 9.4,1.3 12.8,10.1 12.3,18.7 -1.3,22.4 -13.9,43.1 -27.9,59.8 -5.3,6.3 -11.1,12.3 -17.3,17.8 26.2,20.5 58.8,31.5 92.1,31.9 2.1,-1.3 4.2,-2.7 6.2,-4.2 28.3,-20.4 44.4,-53.3 49.2,-87.4 -8.6,0.4 -17.4,0 -26.1,-1.1 -12.1,-1.5 -24,-4.2 -35.4,-8.4 -9.3,-3.4 -21.3,-7.2 -27.6,-15.4 -7.1,-9.2 -1.4,-17.2 5.3,-24.3 9.7,-10.3 19.3,-20.5 29,-30.8 5.1,-5.5 10.3,-10.9 15.4,-16.4 3.4,-3.6 6.7,-7.9 11.7,-9.2 10.2,-2.6 17.9,7.6 22.8,15.1 12.4,19 16.7,42.7 17.2,65.1 0.1,4.6 0,9.1 -0.3,13.7 36.1,-4.4 69.6,-22.3 94.1,-49.2 1.7,-36.6 -9.6,-72.6 -31.8,-101.1 -9.3,10.4 -19.8,19.6 -31.1,27.4 -9.5,6.5 -20,11.8 -31.1,15 -8.4,2.4 -20.1,5.2 -28,0.1 -9.3,-6 -5.9,-20.4 -5.6,-29.6 0.4,-14.1 0.9,-28.2 1.3,-42.3 0.3,-9.2 -2.2,-23.9 6.5,-30.2 8,-5.8 19,-1.7 27.2,1.5 20.5,8 39.3,20.1 55.1,35.5 1.9,1.9 3.8,3.8 5.6,5.8 22.4,-29.7 33.4,-67 25.5,-103.9 z"
           id="path27"
           inkscape:connector-curvature="0"
           style="fill:none" /><path
           class="noFillSVG"
           d="m 386.8,727.2 c -19.1,-21.9 -30.1,-49.7 -33.7,-78.5 -30.6,-3.4 -59.8,-15.7 -83.8,-34.8 4.5,15.4 9.7,30.7 12,46.7 2.8,19.4 2.4,38.9 -1.1,58.1 22.5,-4.1 45.6,-4 68.1,0.6 14.3,2.9 28.1,7.9 42.2,11.9 -1.3,-1.3 -2.5,-2.6 -3.7,-4 z"
           id="path29"
           inkscape:connector-curvature="0"
           style="fill:none" /><path
           class="noFillSVG"
           d="m 516,716.1 c -24.3,18.9 -54,31.3 -84.7,32 17.3,9.7 35.1,18.3 50.8,30.7 13.9,10.9 25.9,24 35.9,38.5 11.6,-16.7 25.8,-31.4 42.4,-43.4 12.4,-9 26.1,-15.7 39.5,-23 C 569.2,747.3 540,735.3 516,716.1 Z"
           id="path31"
           inkscape:connector-curvature="0"
           style="fill:none" /><path
           class="noFillSVG"
           d="m 682.9,648.6 c -4.2,33.9 -18.9,67.1 -44.8,89.7 17.6,-4.4 35.2,-8.8 53.1,-11.3 11.2,-1.6 22.4,-2.4 33.7,-2.5 10.8,0 21.8,0.2 31.4,-5.3 5.5,-9.6 5.3,-20.6 5.3,-31.4 0,-11.3 0.9,-22.5 2.5,-33.7 2.2,-15.6 5.8,-30.8 9.6,-46 -25.4,22.6 -57.3,36.8 -90.8,40.5 z"
           id="path33"
           inkscape:connector-curvature="0"
           style="fill:none" /><path
           class="noFillSVG"
           d="m 836.5,454.8 c -8.1,-8.1 -15.5,-16.8 -22.4,-26 -10.9,-14.5 -20.2,-30.1 -29.5,-45.6 0.7,8 0.6,16.1 -0.5,24.5 -3.4,25.9 -14.7,50.5 -30.8,71.2 21.1,26.4 33.5,59.1 35.4,92.9 8,-13.2 16.1,-26.4 25.4,-38.8 6.9,-9.2 14.3,-17.9 22.4,-26 7.7,-7.7 15.6,-15.4 18.4,-26 -2.8,-10.8 -10.7,-18.5 -18.4,-26.2 z"
           id="path35"
           inkscape:connector-curvature="0"
           style="fill:none" /><path
           class="noFillSVG"
           d="m 649.2,234.5 c 19.1,21.9 30.1,49.7 33.7,78.5 30.6,3.4 59.8,15.7 83.8,34.8 -4.5,-15.4 -9.7,-30.7 -12,-46.7 -2.8,-19.4 -2.4,-38.9 1.1,-58.1 -22.5,4.1 -45.6,4 -68.1,-0.6 -14.3,-2.9 -28.1,-7.9 -42.2,-11.9 1.3,1.3 2.5,2.7 3.7,4 z"
           id="path37"
           inkscape:connector-curvature="0"
           style="fill:none" /><path
           class="noFillSVG"
           d="m 353.1,313.1 c 4.2,-33.9 18.9,-67.1 44.8,-89.7 -17.6,4.4 -35.2,8.8 -53.1,11.3 -11.2,1.6 -22.4,2.4 -33.7,2.5 -10.8,0 -21.8,-0.2 -31.4,5.3 -5.5,9.6 -5.3,20.5 -5.3,31.4 0,11.3 -0.9,22.5 -2.5,33.7 -2.2,15.6 -5.8,30.8 -9.6,46 25.4,-22.5 57.3,-36.7 90.8,-40.5 z"
           id="path39"
           inkscape:connector-curvature="0"
           style="fill:none" /><path
           class="noFillSVG"
           d="m 519.9,245.7 c 24.3,-18.9 54,-31.3 84.7,-32 -17.3,-9.7 -35.1,-18.3 -50.8,-30.7 -13.9,-10.9 -25.9,-24 -35.9,-38.5 -11.6,16.7 -25.8,31.4 -42.4,43.4 -12.4,9 -26.1,15.7 -39.5,23 30.8,3.5 59.9,15.6 83.9,34.8 z"
           id="path41"
           inkscape:connector-curvature="0"
           style="fill:none" /><path
           class="noFillSVG"
           d="m 251.9,554.1 c 3.4,-25.9 14.7,-50.5 30.8,-71.2 -21.1,-26.4 -33.5,-59.1 -35.4,-92.9 -8,13.2 -16.1,26.4 -25.4,38.8 -6.9,9.2 -14.3,17.9 -22.4,26 -7.7,7.7 -15.6,15.4 -18.4,26 2.9,10.7 10.8,18.4 18.4,26 8.1,8.1 15.5,16.8 22.4,26 10.9,14.5 20.2,30.1 29.5,45.6 -0.7,-7.8 -0.6,-16 0.5,-24.3 z"
           id="path43"
           inkscape:connector-curvature="0"
           style="fill:none" /><path
           d="m 866,480.9 c 0,-0.8 -0.1,-1.4 -0.4,-2.1 -2.4,-10.1 -8.5,-18.3 -15.6,-25.7 -8.6,-9 -17.3,-17.7 -25,-27.6 -8.5,-11.1 -16.1,-22.9 -23.4,-34.8 -3.6,-5.9 -7,-12.2 -10.9,-17.9 -1.9,-2.8 -9.3,-9.6 -9.9,-12.3 -2.3,-10.3 -5.4,-20.5 -8.5,-30.9 -9,-30.2 -11.5,-60.7 -4.6,-91.6 0.5,-2.3 -0.3,-4.1 -1.7,-5.3 -1.2,-1.4 -3,-2.3 -5.3,-1.7 -26.8,6 -54.4,5.4 -81,-1.6 -17.4,-4.6 -34.5,-10.9 -52.2,-14 -13.9,-9.7 -29.4,-17.2 -44.3,-25.7 -24.6,-14 -45.2,-33.3 -60.3,-57.3 -1.2,-2 -3.1,-2.6 -4.9,-2.5 -1.8,-0.2 -3.7,0.5 -4.9,2.5 -13.1,20.7 -30.5,38.6 -51.2,51.8 -14.6,9.3 -30.6,16.5 -45.3,25.6 -2.6,0 -5.2,0.1 -7.8,0.2 -0.7,-0.1 -1.6,-0.1 -2.4,0.1 -22.5,5.5 -44.9,11.8 -68,14.6 -12.1,1.5 -24,1.3 -36.1,1.7 -9.9,0.3 -19.7,1.8 -28.3,6.9 -0.7,0.3 -1.4,0.7 -2,1.4 -0.6,0.6 -1.1,1.3 -1.4,2 -5.2,8.6 -6.6,18.4 -6.9,28.3 -0.4,12.1 -0.2,24.1 -1.7,36.1 -2.8,22.9 -9,45.2 -14.5,67.6 -11.7,19.2 -22.8,38.8 -36.5,56.7 -7.4,9.6 -15.8,18.1 -24.2,26.9 -7.3,7.6 -13.8,16 -16.3,26.4 -0.3,0.6 -0.4,1.3 -0.4,2.1 0,0.8 0.1,1.4 0.4,2.1 2.4,10.1 8.5,18.3 15.6,25.7 8.6,9 17.3,17.7 25,27.6 13.8,18 25,37.8 36.8,57.1 0.5,0.8 1.1,1.4 1.7,1.8 1.8,2.1 3.7,4.1 5.7,6 2.3,10.3 5.4,20.5 8.5,30.9 9,30.2 11.5,60.7 4.6,91.6 -0.5,2.3 0.3,4.1 1.7,5.3 1.2,1.4 3,2.3 5.3,1.7 26.8,-6 54.4,-5.4 81,1.6 17.4,4.6 34.5,10.9 52.2,14 13.9,9.7 29.4,17.2 44.3,25.7 24.6,14 45.2,33.3 60.3,57.3 1.2,2 3.1,2.6 4.9,2.5 1.8,0.2 3.7,-0.5 4.9,-2.5 13.1,-20.7 30.5,-38.6 51.2,-51.8 14.6,-9.3 30.6,-16.5 45.3,-25.6 2.6,0 5.2,-0.1 7.8,-0.2 0.7,0.1 1.6,0.1 2.4,-0.1 22.5,-5.5 44.9,-11.8 68,-14.6 12.1,-1.5 24,-1.3 36.1,-1.7 9.9,-0.3 19.7,-1.8 28.3,-6.9 0.7,-0.3 1.4,-0.7 2,-1.4 0.6,-0.6 1.1,-1.3 1.4,-2 5.2,-8.6 6.6,-18.4 6.9,-28.3 0.4,-12.1 0.2,-24.1 1.7,-36.1 2.8,-22.9 9,-45.2 14.5,-67.6 11.7,-19.2 22.8,-38.8 36.5,-56.7 7.4,-9.6 15.8,-18.1 24.2,-26.9 7.3,-7.6 13.8,-16 16.3,-26.4 0.2,-0.5 0.4,-1.2 0.4,-2 z M 663,440.1 c 1.1,-6.4 7.9,-4.4 12.4,-3 18.7,5.9 36.4,16.6 51.1,29.4 4.5,3.9 8.7,8.1 12.6,12.4 -12.1,13.9 -26.5,26.2 -43,34.4 -8.7,4.4 -19.4,8.5 -29.3,8.4 -7.1,-0.1 -6.3,-5.3 -6.1,-11 0.2,-6.2 0.4,-12.3 0.6,-18.5 0.4,-11.9 0.7,-23.8 1.1,-35.7 0.2,-5.3 -0.3,-11.1 0.6,-16.4 z m 77.5,24.6 c -15.8,-15.4 -34.6,-27.4 -55.1,-35.5 -8.2,-3.2 -19.2,-7.3 -27.2,-1.5 -8.7,6.3 -6.2,21 -6.5,30.2 -0.4,14.1 -0.9,28.2 -1.3,42.3 -0.3,9.2 -3.8,23.6 5.6,29.6 8,5.1 19.6,2.3 28,-0.1 11.1,-3.1 21.6,-8.5 31.1,-15 11.4,-7.7 21.9,-17 31.1,-27.4 22.2,28.6 33.5,64.5 31.8,101.1 -24.5,26.9 -58,44.7 -94.1,49.2 0.3,-4.6 0.4,-9.2 0.3,-13.7 -0.5,-22.4 -4.7,-46.1 -17.2,-65.1 -4.9,-7.4 -12.6,-17.6 -22.8,-15.1 -5,1.3 -8.3,5.6 -11.7,9.2 -5.1,5.5 -10.3,10.9 -15.4,16.4 -9.7,10.3 -19.3,20.5 -29,30.8 -6.7,7.2 -12.5,15.1 -5.3,24.3 6.3,8.2 18.3,12 27.6,15.4 11.5,4.2 23.3,6.9 35.4,8.4 8.7,1.1 17.4,1.4 26.1,1.1 -4.7,34 -20.9,67 -49.2,87.4 -2,1.5 -4.1,2.8 -6.2,4.2 -33.3,-0.4 -65.9,-11.4 -92.1,-31.9 6.2,-5.5 12,-11.5 17.3,-17.8 14,-16.7 26.6,-37.4 27.9,-59.8 0.5,-8.6 -2.9,-17.4 -12.3,-18.7 -6.5,-0.9 -13.5,0.1 -20,0.3 -7,0.2 -14.1,0.4 -21.1,0.6 -13.5,0.4 -27.7,-0.4 -41,1.4 -9.5,1.3 -14,9.1 -13,18.2 1,9.9 6,19.9 10.4,28.8 5,10 11.1,19.4 18,28.2 5.2,6.6 11,12.7 17.1,18.4 -25.1,19 -56.2,30.6 -88,28.1 -2.3,-0.2 -4.6,-0.5 -6.9,-0.8 -11.3,-8.4 -21.1,-18.4 -28.8,-30.7 -10,-15.9 -16.3,-33.9 -19.4,-52.4 -0.2,-1.2 -0.3,-2.4 -0.5,-3.6 2.1,0.1 4.2,0.2 6.3,0.2 24.6,0 49.5,-5.6 71.6,-16.6 7.7,-3.8 16.3,-10.5 14.5,-20.2 -0.9,-4.8 -4.4,-8.2 -7.6,-11.6 -5.1,-5.5 -10.3,-10.9 -15.4,-16.4 -9.7,-10.3 -19.3,-20.5 -29,-30.8 -7.3,-7.8 -14.8,-14.6 -25.2,-7.1 -8.5,6.2 -14,17.4 -17.9,26.8 -4.4,10.8 -6.9,22.2 -8.3,33.7 -1.2,9.9 -1.5,20 -0.9,30.1 -32.9,-4.2 -63.7,-19.1 -87.7,-42.4 -7.9,-36.9 3,-74.2 25.5,-103.9 1.8,2 3.7,3.9 5.6,5.8 15.8,15.4 34.6,27.4 55.1,35.5 8.2,3.2 19.2,7.3 27.2,1.5 8.7,-6.3 6.2,-21 6.5,-30.2 0.4,-14.1 0.9,-28.2 1.3,-42.3 0.3,-9.2 3.8,-23.6 -5.6,-29.6 -8,-5.1 -19.6,-2.3 -28,0.1 -11.1,3.1 -21.6,8.5 -31.1,15 -11.4,7.7 -21.9,17 -31.1,27.4 -22.2,-28.6 -33.5,-64.5 -31.8,-101.1 24.5,-26.9 58,-44.7 94.1,-49.2 -0.3,4.6 -0.4,9.2 -0.3,13.7 0.5,22.4 4.7,46.1 17.2,65.1 4.9,7.4 12.6,17.6 22.8,15.1 5,-1.3 8.3,-5.6 11.7,-9.2 5.1,-5.5 10.3,-10.9 15.4,-16.4 9.7,-10.3 19.3,-20.5 29,-30.8 6.7,-7.2 12.5,-15.1 5.3,-24.3 -6.3,-8.2 -18.3,-12 -27.6,-15.4 -11.5,-4.2 -23.3,-6.9 -35.4,-8.4 -8.7,-1.1 -17.4,-1.4 -26.1,-1.1 4.7,-34 20.9,-67 49.2,-87.4 2,-1.5 4.1,-2.8 6.2,-4.2 33.3,0.4 65.9,11.4 92.1,31.9 -6.2,5.5 -12,11.5 -17.3,17.8 -14,16.7 -26.6,37.4 -27.9,59.8 -0.5,8.6 2.9,17.4 12.3,18.7 6.5,0.9 13.5,-0.1 20,-0.3 7,-0.2 14.1,-0.4 21.1,-0.6 13.5,-0.4 27.7,0.4 41,-1.4 9.5,-1.3 14,-9.1 13,-18.2 -1,-9.9 -6,-19.9 -10.4,-28.8 -5,-10 -11.1,-19.4 -18,-28.2 -5.2,-6.6 -11,-12.7 -17.1,-18.4 25.1,-19 56.2,-30.6 88,-28.1 2.3,0.2 4.6,0.5 6.9,0.8 11.3,8.4 21.1,18.4 28.8,30.7 10,15.9 16.3,33.9 19.4,52.4 0.2,1.2 0.3,2.4 0.5,3.6 -2.1,-0.1 -4.2,-0.2 -6.3,-0.2 -24.6,0 -49.5,5.6 -71.6,16.6 -7.7,3.8 -16.3,10.5 -14.5,20.2 0.9,4.8 4.4,8.2 7.6,11.6 5.1,5.5 10.3,10.9 15.4,16.4 9.7,10.3 19.3,20.5 29,30.8 7.3,7.8 14.8,14.6 25.2,7.1 8.5,-6.2 14,-17.4 17.9,-26.8 4.4,-10.8 6.9,-22.2 8.3,-33.7 1.2,-9.9 1.5,-20 0.9,-30.1 32.9,4.2 63.7,19.1 87.7,42.4 4,18.4 3.2,37.6 -1.7,55.8 -1.2,4.5 -22.3,49.6 -23.8,48 -1.8,-1.9 -3.7,-3.8 -5.6,-5.7 z m -67.9,174 c -22.1,1 -44.3,-2.9 -64.8,-11.2 -4.6,-1.9 -9.5,-3.8 -13.5,-6.7 -1.6,-1.2 -4.3,-3.2 -4.2,-5.5 0,-2.5 4.1,-5.7 5.7,-7.4 8.5,-9 16.9,-18 25.4,-27 3.9,-4.2 7.9,-8.3 11.8,-12.5 2.1,-2.2 4.2,-4.5 6.3,-6.7 1.7,-1.8 3.8,-5.1 6,-6.3 8.6,-4.6 18.2,18.8 20.3,24.4 7,18.4 8.8,38.9 7.5,58.5 0,0.1 0,0.3 0,0.4 -0.2,0 -0.3,0 -0.5,0 z M 514,700.2 c -14.2,-13.4 -25.8,-29.5 -34,-47.3 -2.3,-5 -12,-23.3 -4.5,-26.6 4.6,-2 11.8,-0.8 16.8,-1 6.2,-0.2 12.3,-0.4 18.5,-0.6 11.9,-0.4 23.8,-0.7 35.7,-1.1 5.4,-0.2 11.8,-1.7 12.3,5.1 0.4,5 -1.1,10.3 -2.4,15.1 -5.5,19.5 -18.3,36.6 -32.4,50.7 -2.6,2.5 -5.2,5 -8,7.4 -0.6,-0.5 -1.3,-1 -2,-1.7 z M 366,594.7 c 2.3,-10.3 6,-20.4 11.7,-29.4 2.3,-3.6 6.3,-10.8 11.1,-10.2 5,0.7 10,8.8 13.4,12.4 8.5,9 16.9,18 25.4,27 3.9,4.2 7.9,8.3 11.8,12.5 1.6,1.7 3.6,3.4 5,5.3 2.5,3.4 1.1,5.4 -1.7,7.8 -7.8,6.6 -20.2,10 -29.9,12.7 -10.4,3 -21.1,4.9 -31.9,5.7 -6,0.4 -12,0.4 -18,0.1 -1.1,-14.7 -0.1,-29.7 3.1,-43.9 z m 7,-73 c -1.1,6.4 -7.9,4.4 -12.4,3 -18.7,-5.9 -36.4,-16.6 -51.1,-29.4 -4.5,-3.9 -8.7,-8.1 -12.6,-12.4 12.1,-13.9 26.5,-26.2 43,-34.4 8.7,-4.4 19.4,-8.5 29.3,-8.4 7.1,0.1 6.3,5.3 6.1,11 -0.2,6.2 -0.4,12.3 -0.6,18.5 -0.4,11.9 -0.7,23.8 -1.1,35.7 -0.3,5.2 0.2,11.1 -0.6,16.4 z M 363.4,323 c 22.1,-1 44.3,2.9 64.8,11.2 4.6,1.9 9.5,3.8 13.5,6.7 1.6,1.2 4.3,3.2 4.2,5.5 0,2.5 -4.1,5.7 -5.7,7.4 -8.5,9 -16.9,18 -25.4,27 -3.9,4.2 -7.9,8.3 -11.8,12.5 -2.1,2.2 -4.2,4.5 -6.3,6.7 -1.7,1.8 -3.8,5.1 -6,6.3 -8.6,4.6 -18.2,-18.8 -20.3,-24.4 -7,-18.4 -8.8,-38.9 -7.5,-58.5 0,-0.1 0,-0.3 0,-0.4 0.2,0.1 0.3,0.1 0.5,0 z M 522,261.5 c 14.2,13.4 25.8,29.5 34,47.3 2.3,5 12,23.3 4.5,26.6 -4.6,2 -11.8,0.8 -16.8,1 -6.2,0.2 -12.3,0.4 -18.5,0.6 -11.9,0.4 -23.8,0.7 -35.7,1.1 -5.4,0.2 -11.8,1.7 -12.3,-5.1 -0.4,-5 1.1,-10.3 2.4,-15.1 5.5,-19.5 18.3,-36.6 32.4,-50.7 2.6,-2.5 5.2,-5 8,-7.4 0.6,0.5 1.3,1.1 2,1.7 z m 147.9,105.6 c -2.3,10.3 -6,20.4 -11.7,29.4 -2.3,3.6 -6.3,10.8 -11.1,10.2 -5,-0.7 -10,-8.8 -13.4,-12.4 -8.5,-9 -16.9,-18 -25.4,-27 -3.9,-4.2 -7.9,-8.3 -11.8,-12.5 -1.6,-1.7 -3.6,-3.4 -5,-5.3 -2.5,-3.4 -1.1,-5.4 1.7,-7.8 7.8,-6.6 20.2,-10 29.9,-12.7 10.4,-3 21.1,-4.9 31.9,-5.7 6,-0.4 12,-0.4 18,-0.1 1.2,14.6 0.2,29.6 -3.1,43.9 z m 17.8,-124.7 c 22.5,4.6 45.6,4.7 68.1,0.6 -3.5,19.2 -3.9,38.8 -1.1,58.1 2.3,16 7.5,31.2 12,46.7 -24,-19.1 -53.2,-31.4 -83.8,-34.8 -3.6,-28.8 -14.7,-56.6 -33.7,-78.5 -1.2,-1.4 -2.4,-2.7 -3.7,-4 14.1,4 27.9,9 42.2,11.9 z M 475.6,188 c 16.5,-12 30.8,-26.7 42.4,-43.4 10,14.5 22.1,27.5 35.9,38.5 15.7,12.4 33.5,20.9 50.8,30.7 -30.8,0.7 -60.4,13 -84.7,32 -24,-19.2 -53.2,-31.3 -83.8,-34.7 13.3,-7.4 27,-14.2 39.4,-23.1 z M 271.9,307.6 c 1.6,-11.2 2.4,-22.4 2.5,-33.7 0,-10.8 -0.2,-21.8 5.3,-31.4 9.6,-5.5 20.5,-5.3 31.4,-5.3 11.3,0 22.5,-0.9 33.7,-2.5 18,-2.5 35.5,-6.9 53.1,-11.3 -25.9,22.6 -40.5,55.7 -44.8,89.7 -33.5,3.7 -65.4,18 -90.7,40.5 3.7,-15.1 7.3,-30.4 9.5,-46 z m -72.4,199.3 c -7.7,-7.7 -15.6,-15.4 -18.4,-26 2.9,-10.7 10.8,-18.4 18.4,-26 8.1,-8.1 15.5,-16.8 22.4,-26 9.3,-12.4 17.4,-25.5 25.4,-38.8 1.9,33.8 14.3,66.5 35.4,92.9 -16.1,20.7 -27.4,45.2 -30.8,71.2 -1.1,8.3 -1.1,16.5 -0.5,24.5 -9.3,-15.5 -18.6,-31.1 -29.5,-45.6 -6.9,-9.4 -14.3,-18.1 -22.4,-26.2 z m 148.8,212.4 c -22.5,-4.6 -45.6,-4.7 -68.1,-0.6 3.5,-19.2 3.9,-38.8 1.1,-58.1 -2.3,-16 -7.5,-31.2 -12,-46.7 24,19.2 53.2,31.4 83.8,34.8 3.6,28.8 14.7,56.6 33.7,78.5 1.2,1.4 2.4,2.7 3.7,4 -14.1,-4 -27.9,-9 -42.2,-11.9 z m 212.1,54.5 c -16.5,12 -30.8,26.7 -42.4,43.4 -10,-14.5 -22.1,-27.5 -35.9,-38.5 -15.7,-12.4 -33.5,-20.9 -50.8,-30.7 30.8,-0.7 60.4,-13 84.7,-32 24,19.2 53.2,31.3 83.8,34.7 -13.3,7.4 -27.1,14.1 -39.4,23.1 z M 764.1,654.1 c -1.6,11.2 -2.4,22.4 -2.5,33.7 0,10.8 0.2,21.8 -5.3,31.4 -9.6,5.5 -20.5,5.3 -31.4,5.3 -11.3,0 -22.5,0.9 -33.7,2.5 -18,2.5 -35.5,6.9 -53.1,11.3 25.9,-22.6 40.5,-55.7 44.8,-89.7 33.5,-3.7 65.4,-18 90.7,-40.5 -3.7,15.2 -7.3,30.5 -9.5,46 z m 72.4,-147.2 c -8.1,8.1 -15.5,16.8 -22.4,26 -9.3,12.4 -17.4,25.5 -25.4,38.8 -1.9,-33.7 -14.3,-66.5 -35.4,-92.9 16.1,-20.7 27.4,-45.2 30.8,-71.2 1.1,-8.3 1.1,-16.5 0.5,-24.5 9.3,15.5 18.6,31.1 29.5,45.6 6.9,9.2 14.3,17.9 22.4,26 7.7,7.7 15.6,15.4 18.4,26 -2.8,10.8 -10.7,18.5 -18.4,26.2 z"
           id="path45"
           inkscape:connector-curvature="0" /></g></g></switch></svg>