<?xml version="1.0" encoding="utf-8"?>
<!-- Generator: Adobe Illustrator 21.1.0, SVG Export Plug-In . SVG Version: 6.00 Build 0)  -->
<svg version="1.1"
	 id="l18" xmlns:cc="http://creativecommons.org/ns#" xmlns:dc="http://purl.org/dc/elements/1.1/" xmlns:inkscape="http://www.inkscape.org/namespaces/inkscape" xmlns:rdf="http://www.w3.org/1999/02/22-rdf-syntax-ns#" xmlns:sodipodi="http://sodipodi.sourceforge.net/DTD/sodipodi-0.dtd" xmlns:svg="http://www.w3.org/2000/svg"
	 class="withFill"
	 xmlns="http://www.w3.org/2000/svg" xmlns:xlink="http://www.w3.org/1999/xlink" x="0px" y="0px" viewBox="101 191 410 410"
	 style="enable-background:new 0 0 612 792;" xml:space="preserve">
<style type="text/css">
	#l18 .st0{fill:#9E9E9E;}
</style>
<sodipodi:namedview  bordercolor="#666666" borderopacity="1" gridtolerance="10" guidetolerance="10" id="namedview89" inkscape:current-layer="Layer_1" inkscape:cx="23.305085" inkscape:cy="500" inkscape:pageopacity="0" inkscape:pageshadow="2" inkscape:window-height="480" inkscape:window-maximized="0" inkscape:window-width="671" inkscape:window-x="0" inkscape:window-y="34" inkscape:zoom="0.236" objecttolerance="10" pagecolor="#ffffff" showgrid="false">
	</sodipodi:namedview>
<g id="g7">
	<g id="g9">
		<path class="st1" d="M306,191c-113.2,0-205,91.8-205,205s91.8,205,205,205s205-91.8,205-205S419.2,191,306,191z M306.1,597.9
			L104.2,396l201.8-201.8L507.9,396L306.1,597.9z"/>
		<g id="g15">
			<path id="path17" inkscape:connector-curvature="0" class="st0" d="M147.9,380.9c0.1-0.1,4.1-6.5,2.6-8.1s-8,2.4-8.1,2.6
				c-0.1,0.1-4.1,6.5-2.6,8.1S147.7,381,147.9,380.9z"/>
			<path id="path19" inkscape:connector-curvature="0" class="st0" d="M170.4,352.8c-1.5-1.5-8,2.4-8.1,2.6
				c-0.1,0.1-4.1,6.5-2.6,8.1s8-2.4,8.1-2.6C168.1,360.7,172,354.3,170.4,352.8L170.4,352.8z"/>
			<path id="path21" inkscape:connector-curvature="0" class="st0" d="M190.5,332.8c-1.5-1.5-8,2.4-8.1,2.6s-4.1,6.5-2.6,8.1
				s8-2.4,8.1-2.6C188.1,340.7,192,334.3,190.5,332.8z"/>
			<path id="path23" inkscape:connector-curvature="0" class="st0" d="M210.5,312.7c-1.5-1.5-8,2.4-8.1,2.6s-4.1,6.5-2.6,8.1
				c1.5,1.5,8-2.4,8.1-2.6C208.1,320.7,212.1,314.2,210.5,312.7z"/>
			<path id="path25" inkscape:connector-curvature="0" class="st0" d="M230.5,292.7c-1.5-1.5-8,2.4-8.1,2.6s-4.1,6.5-2.6,8.1
				s8-2.4,8.1-2.6C228.1,300.7,232.1,294.2,230.5,292.7z"/>
			<path id="path27" inkscape:connector-curvature="0" class="st0" d="M250.6,272.7c-1.5-1.5-8,2.4-8.1,2.6s-4.1,6.5-2.6,8.1
				s8-2.4,8.1-2.6C248.2,280.6,252.1,274.2,250.6,272.7z"/>
			<path id="path29" inkscape:connector-curvature="0" class="st0" d="M270.6,252.6c-1.5-1.5-8,2.4-8.1,2.6s-4.1,6.5-2.6,8.1
				s8-2.4,8.1-2.6C268.2,260.6,272.2,254.1,270.6,252.6z"/>
			<path id="path31" inkscape:connector-curvature="0" class="st0" d="M290.6,232.6c-1.5-1.5-8,2.4-8.1,2.6
				c-0.1,0.1-4.1,6.5-2.6,8.1c1.5,1.5,8-2.4,8.1-2.6C288.2,240.6,292.2,234.1,290.6,232.6z"/>
			<path id="path33" inkscape:connector-curvature="0" class="st0" d="M318.5,229.8c-1.5,1.5,2.4,8,2.6,8.1c0.1,0.1,6.5,4.1,8.1,2.6
				s-2.4-8-2.6-8.1C326.6,232.2,320.1,228.3,318.5,229.8L318.5,229.8z"/>
			<path id="path35" inkscape:connector-curvature="0" class="st0" d="M349.3,260.4c1.5-1.5-2.4-8-2.6-8.1s-6.5-4.1-8.1-2.6
				s2.4,8,2.6,8.1C341.3,258,347.7,262,349.3,260.4z"/>
			<path id="path37" inkscape:connector-curvature="0" class="st0" d="M369.3,280.5c1.5-1.5-2.4-8-2.6-8.1s-6.5-4.1-8.1-2.6
				s2.4,8,2.6,8.1C361.3,278.1,367.8,282,369.3,280.5z"/>
			<path id="path39" inkscape:connector-curvature="0" class="st0" d="M389.3,300.5c1.5-1.5-2.4-8-2.6-8.1s-6.5-4.1-8.1-2.6
				s2.4,8,2.6,8.1S387.8,302.1,389.3,300.5z"/>
			<path id="path41" inkscape:connector-curvature="0" class="st0" d="M409.4,320.5c1.5-1.5-2.4-8-2.6-8.1s-6.5-4.1-8.1-2.6
				s2.4,8,2.6,8.1C401.3,318.1,407.8,322.1,409.4,320.5z"/>
			<path id="path43" inkscape:connector-curvature="0" class="st0" d="M429.4,340.6c1.5-1.5-2.4-8-2.6-8.1s-6.5-4.1-8.1-2.6
				c-1.5,1.5,2.4,8,2.6,8.1S427.8,342.1,429.4,340.6z"/>
			<path id="path45" inkscape:connector-curvature="0" class="st0" d="M449.4,360.6c1.5-1.5-2.4-8-2.6-8.1s-6.5-4.1-8.1-2.6
				s2.4,8,2.6,8.1S447.9,362.2,449.4,360.6z"/>
			<path id="path47" inkscape:connector-curvature="0" class="st0" d="M469.4,380.6c1.5-1.5-2.4-8-2.6-8.1s-6.5-4.1-8.1-2.6
				c-1.5,1.5,2.4,8,2.6,8.1S467.9,382.2,469.4,380.6z"/>
			<path id="path49" inkscape:connector-curvature="0" class="st0" d="M464.2,411.1c-0.1,0.1-4.1,6.5-2.6,8.1s8-2.4,8.1-2.6
				s4.1-6.5,2.6-8.1C470.8,407,464.3,411,464.2,411.1z"/>
			<path id="path51" inkscape:connector-curvature="0" class="st0" d="M444.1,431.1c-0.1,0.1-4.1,6.5-2.6,8.1s8-2.4,8.1-2.6
				s4.1-6.5,2.6-8.1C450.7,427,444.3,431,444.1,431.1z"/>
			<path id="path53" inkscape:connector-curvature="0" class="st0" d="M424.1,451.1c-0.1,0.1-4.1,6.5-2.6,8.1s8-2.4,8.1-2.6
				s4.1-6.5,2.6-8.1C430.7,447.1,424.2,451,424.1,451.1z"/>
			<path id="path55" inkscape:connector-curvature="0" class="st0" d="M404.1,471.2c-0.1,0.1-4.1,6.5-2.6,8.1c1.5,1.5,8-2.4,8.1-2.6
				s4.1-6.5,2.6-8.1S404.2,471.1,404.1,471.2z"/>
			<path id="path57" inkscape:connector-curvature="0" class="st0" d="M384,491.2c-0.1,0.1-4.1,6.5-2.6,8.1s8-2.4,8.1-2.6
				s4.1-6.5,2.6-8.1C390.6,487.1,384.2,491.1,384,491.2z"/>
			<path id="path59" inkscape:connector-curvature="0" class="st0" d="M364,511.2c-0.1,0.1-4.1,6.5-2.6,8.1c1.5,1.5,8-2.4,8.1-2.6
				c0.1-0.1,4.1-6.5,2.6-8.1S364.1,511.1,364,511.2z"/>
			<path id="path61" inkscape:connector-curvature="0" class="st0" d="M344,531.3c-0.1,0.1-4.1,6.5-2.6,8.1c1.5,1.5,8-2.4,8.1-2.6
				c0.1-0.1,4.1-6.5,2.6-8.1C350.6,527.2,344.1,531.2,344,531.3z"/>
			<path id="path63" inkscape:connector-curvature="0" class="st0" d="M324,551.3c-0.1,0.1-4.1,6.5-2.6,8.1c1.5,1.5,8-2.4,8.1-2.6
				c0.1-0.1,4.1-6.5,2.6-8.1C330.5,547.2,324.1,551.2,324,551.3z"/>
			<path id="path65" inkscape:connector-curvature="0" class="st0" d="M293.5,562.3c1.5-1.5-2.4-8-2.6-8.1c-0.1-0.1-6.5-4.1-8.1-2.6
				c-1.5,1.5,2.4,8,2.6,8.1C285.5,559.8,292,563.7,293.5,562.3z"/>
			<path id="path67" inkscape:connector-curvature="0" class="st0" d="M262.8,531.6c-1.5,1.5,2.4,8,2.6,8.1c0.1,0.1,6.5,4.1,8.1,2.6
				c1.5-1.5-2.4-8-2.6-8.1S264.3,530,262.8,531.6z"/>
			<path id="path69" inkscape:connector-curvature="0" class="st0" d="M242.8,511.5c-1.5,1.5,2.4,8,2.6,8.1c0.1,0.1,6.5,4.1,8.1,2.6
				c1.5-1.5-2.4-8-2.6-8.1C250.7,514,244.3,510,242.8,511.5z"/>
			<path id="path71" inkscape:connector-curvature="0" class="st0" d="M222.8,491.5c-1.5,1.5,2.4,8,2.6,8.1s6.5,4.1,8.1,2.6
				s-2.4-8-2.6-8.1C230.7,493.9,224.3,490,222.8,491.5z"/>
			<path id="path73" inkscape:connector-curvature="0" class="st0" d="M202.7,471.5c-1.5,1.5,2.4,8,2.6,8.1c0.1,0.1,6.5,4.1,8.1,2.6
				s-2.4-8-2.6-8.1C210.7,473.9,204.2,469.9,202.7,471.5z"/>
			<path id="path75" inkscape:connector-curvature="0" class="st0" d="M182.7,451.4c-1.5,1.5,2.4,8,2.6,8.1c0.1,0.1,6.5,4.1,8.1,2.6
				s-2.4-8-2.6-8.1S184.2,449.9,182.7,451.4z"/>
			<path id="path77" inkscape:connector-curvature="0" class="st0" d="M162.7,431.4c-1.5,1.5,2.4,8,2.6,8.1c0.1,0.1,6.5,4.1,8.1,2.6
				s-2.4-8-2.6-8.1S164.2,429.9,162.7,431.4z"/>
			<path id="path79" inkscape:connector-curvature="0" class="st0" d="M142.6,411.4c-1.5,1.5,2.4,8,2.6,8.1c0.1,0.1,6.5,4.1,8.1,2.6
				s-2.4-8-2.6-8.1C150.6,413.8,144.1,409.8,142.6,411.4z"/>
			<path id="path81" inkscape:connector-curvature="0" class="st0" d="M306,222v-1.5c1.5,0.5,2.8,0.8,3.4,0.1
				c1.5-1.5-2.2-7.7-2.3-7.8c0,0-0.5-0.3-1.2-0.7v1.4c-1.9,0.8-3.8,1.9-3.9,2c-0.1,0.1-3.9,6.3-2.3,7.8C300.9,224.4,304,223,306,222
				L306,222z"/>
			<path id="path83" inkscape:connector-curvature="0" class="st0" d="M481.3,399.5c1.5,1.5,7.7-2.2,7.8-2.3c0,0,0.3-0.5,0.7-1.2
				h-1.4c-0.8-1.9-1.9-3.8-2-3.9c-0.1-0.1-6.3-3.9-7.8-2.3c-1,1,0.3,4.2,1.3,6.2h1.5C481,397.5,480.7,398.8,481.3,399.5L481.3,399.5
				z"/>
			<path id="path85" inkscape:connector-curvature="0" class="st0" d="M306,570v1.5c-1.5-0.5-2.8-0.8-3.4-0.1
				c-1.5,1.5,2.2,7.7,2.3,7.8c0,0,0.5,0.3,1.2,0.7v-1.4c1.9-0.8,3.8-1.9,3.9-2c0.1-0.1,3.9-6.3,2.3-7.8C311.1,567.6,308,569,306,570
				L306,570z"/>
			<path id="path87" inkscape:connector-curvature="0" class="st0" d="M133.4,402.2c1-1-0.3-4.2-1.3-6.2h-1.5
				c0.5-1.5,0.8-2.8,0.1-3.4c-1.5-1.5-7.7,2.2-7.8,2.3c0,0-0.3,0.5-0.7,1.2h1.4c0.8,1.9,1.9,3.8,2,3.9
				C125.7,400,131.9,403.7,133.4,402.2L133.4,402.2z"/>
		</g>
	</g>
</g>
</svg>
