<?xml version="1.0" encoding="UTF-8" standalone="no"?>
<svg
   xmlns:dc="http://purl.org/dc/elements/1.1/"
   xmlns:cc="http://creativecommons.org/ns#"
   xmlns:rdf="http://www.w3.org/1999/02/22-rdf-syntax-ns#"
   xmlns:svg="http://www.w3.org/2000/svg"
   xmlns="http://www.w3.org/2000/svg"
   xmlns:sodipodi="http://sodipodi.sourceforge.net/DTD/sodipodi-0.dtd"
   xmlns:inkscape="http://www.inkscape.org/namespaces/inkscape"
   version="1.1"
   id="Layer_1"
   x="0px"
   y="0px"
   viewBox="0 0 1000 1000"
   width="100%"
   height="100%"
   style="enable-background:new 0 0 1000 1000;"
   xml:space="preserve"
   ><style
     type="text/css"
     id="style3">
	.noFillSVG{fill:none;}
</style><switch
     id="switch5"
     transform="translate(5.9,-5.95)"><g
       id="g7"><g
         id="g9"><path
           class="noFillSVG"
           d="m 265.6,405.4 c 8.9,7.2 19.5,12.3 31,14.6 2.6,-7.5 4,-15.4 4.2,-23.6 -3.1,-1.6 -6.3,-3.1 -9.4,-4.5 -1.2,1 -2.3,2 -3.6,2.9 -6.7,4.7 -14.8,7.4 -22.2,10.6 z"
           id="path11"
           inkscape:connector-curvature="0"
           style="fill:none" /><path
           class="noFillSVG"
           d="m 523.6,740.3 c -9.4,3.8 -19.5,5.8 -30,5.8 -10.6,0 -20.9,-2 -30.5,-5.9 0.7,10.5 6.4,21.3 11.7,30.2 5.1,8.7 11.4,16.5 18.5,23.6 7.1,-7.1 13.4,-14.9 18.5,-23.6 5.4,-9 11.1,-19.7 11.8,-30.1 z"
           id="path13"
           inkscape:connector-curvature="0"
           style="fill:none" /><path
           class="noFillSVG"
           d="m 275.1,452.7 c -2.3,-0.7 -4.5,-1.5 -6.7,-2.4 -0.1,4.5 -0.8,8.9 -1.6,13.3 2.4,-3.8 5.2,-7.5 8.3,-10.9 z"
           id="path15"
           inkscape:connector-curvature="0"
           style="fill:none" /><path
           class="noFillSVG"
           d="m 277.9,449.7 c 5.8,-5.8 10.6,-12.5 14.3,-19.6 -10,-6.8 -21.2,-10.7 -32.6,-11.9 3,7.5 6.8,15.2 8.2,23.2 0.4,2.1 0.5,4.3 0.6,6.5 2.8,1.1 5.6,2.1 8.5,3 0.3,-0.4 0.6,-0.8 1,-1.2 z"
           id="path17"
           inkscape:connector-curvature="0"
           style="fill:none" /><path
           class="noFillSVG"
           d="m 377.1,306.2 c 1.1,2.6 2.3,5.1 3.6,7.6 0.2,0 0.4,0 0.6,0 8.6,0 17,-1.4 25,-4.1 -2.3,-11.4 -7.4,-21.9 -14.5,-30.7 -3.2,7.4 -5.9,15.6 -10.6,22.2 -1.2,1.8 -2.6,3.5 -4.1,5 z"
           id="path19"
           inkscape:connector-curvature="0"
           style="fill:none" /><path
           class="noFillSVG"
           d="m 349.6,320.4 c -7.5,-6.5 -18.5,-9.8 -27.8,-12.3 -10.2,-2.7 -20.6,-4 -31.1,-3.9 0,10.5 1.2,20.9 3.9,31.1 2.5,9.4 5.9,20.6 12.5,28.1 8,-19.3 23.3,-34.7 42.5,-43 z"
           id="path21"
           inkscape:connector-curvature="0"
           style="fill:none" /><path
           class="noFillSVG"
           d="m 378.2,313.9 c -1,-2 -2,-4 -2.8,-6 -2.8,2.7 -6,5.1 -9.2,7.3 3.9,-0.6 7.9,-1.1 12,-1.3 z"
           id="path23"
           inkscape:connector-curvature="0"
           style="fill:none" /><path
           class="noFillSVG"
           d="m 436.2,280.6 c 1,2.6 2,5.3 2.8,8 4,-3.7 8.4,-7 13,-9.8 -5.2,1.1 -10.5,1.9 -15.8,1.8 z"
           id="path25"
           inkscape:connector-curvature="0"
           style="fill:none" /><path
           class="noFillSVG"
           d="m 259.8,477.3 c -10.6,0.6 -21.5,6.4 -30.5,11.7 -8.7,5.1 -16.5,11.4 -23.6,18.5 7.1,7.1 14.9,13.4 23.6,18.5 9.1,5.4 20.2,11.4 31,11.8 0.1,0 0.1,0 0.2,0 -4.1,-9.7 -6.3,-20.3 -6.3,-31.2 0.1,-10.1 2,-20.1 5.6,-29.3 z"
           id="path27"
           inkscape:connector-curvature="0"
           style="fill:none" /><path
           class="noFillSVG"
           d="m 266.3,549 c 1.1,5.7 2.1,11.6 2.1,17.4 3,-1.1 6.1,-2.2 9.2,-3.1 -4.4,-4.4 -8.1,-9.2 -11.3,-14.3 z"
           id="path29"
           inkscape:connector-curvature="0"
           style="fill:none" /><path
           class="noFillSVG"
           d="m 381.9,699.6 c -1.5,2.9 -2.9,5.8 -4.2,8.8 1,1.2 2,2.3 2.9,3.6 4.7,6.6 7.4,14.7 10.6,22.2 7.1,-8.8 12.2,-19.3 14.5,-30.7 -7.5,-2.6 -15.6,-3.9 -23.8,-3.9 z"
           id="path31"
           inkscape:connector-curvature="0"
           style="fill:none" /><path
           class="noFillSVG"
           d="m 438.7,724.3 c -0.8,2.4 -1.6,4.7 -2.4,7 4.4,0.1 8.9,0.8 13.2,1.6 -3.8,-2.5 -7.5,-5.4 -10.8,-8.6 z"
           id="path33"
           inkscape:connector-curvature="0"
           style="fill:none" /><path
           class="noFillSVG"
           d="m 405.9,271.9 c 1.2,11.5 5.1,22.8 12.1,32.9 6.8,-3.6 13.1,-8.3 18.7,-13.9 0.2,-0.2 0.3,-0.3 0.5,-0.5 -1,-3.4 -2.2,-6.7 -3.5,-9.9 -1.5,-0.1 -3.1,-0.2 -4.6,-0.5 -8,-1.3 -15.7,-5.1 -23.2,-8.1 z"
           id="path35"
           inkscape:connector-curvature="0"
           style="fill:none" /><path
           class="noFillSVG"
           d="m 427.3,731.8 c 2.1,-0.4 4.3,-0.5 6.5,-0.6 1.1,-2.8 2.2,-5.7 3.1,-8.7 0,0 -0.1,-0.1 -0.1,-0.1 -6.2,-6.2 -13.2,-11.2 -20.8,-14.9 -6.8,10 -10.6,21.1 -11.8,32.5 7.4,-3 15.1,-6.8 23.1,-8.2 z"
           id="path37"
           inkscape:connector-curvature="0"
           style="fill:none" /><path
           class="noFillSVG"
           d="m 365.8,698 c 3.6,2.6 7.1,5.3 10.2,8.4 1,-2.3 2.1,-4.7 3.3,-7 -4.6,0 -9.1,-0.5 -13.5,-1.4 z"
           id="path39"
           inkscape:connector-curvature="0"
           style="fill:none" /><path
           class="noFillSVG"
           d="m 300.9,620.9 c -2.3,1.2 -4.7,2.3 -7,3.4 3.2,3.4 6,7.2 8.6,11 -1,-4.6 -1.5,-9.4 -1.6,-14.4 z"
           id="path41"
           inkscape:connector-curvature="0"
           style="fill:none" /><path
           class="noFillSVG"
           d="m 292.7,584.7 c 0.1,0 0.1,-0.1 0.2,-0.1 -3.5,-7.1 -8.1,-13.7 -13.6,-19.5 -0.1,0.1 -0.3,0.2 -0.5,0.3 -3.5,1.1 -7,2.3 -10.4,3.6 -0.1,1.6 -0.2,3.2 -0.5,4.7 -1.4,8 -5.2,15.6 -8.2,23.2 11.5,-1.2 22.8,-5.2 33,-12.2 z"
           id="path43"
           inkscape:connector-curvature="0"
           style="fill:none" /><path
           class="noFillSVG"
           d="m 290,709 c 10.5,0 20.9,-1.2 31.1,-3.9 9.3,-2.5 20.4,-5.9 27.9,-12.4 -19.1,-8.4 -34.3,-24 -42.2,-43.3 -6.8,7.5 -10.3,18.9 -12.9,28.5 -2.7,10.2 -3.9,20.6 -3.9,31.1 z"
           id="path45"
           inkscape:connector-curvature="0"
           style="fill:none" /><path
           class="noFillSVG"
           d="m 287.2,618.4 c 1.8,1.3 3.4,2.6 5,4.1 2.9,-1.3 5.8,-2.6 8.7,-4.2 -0.1,-8.7 -1.6,-17.2 -4.3,-25.2 -11.7,2.2 -22.5,7.4 -31.5,14.7 7.3,3.2 15.4,5.9 22.1,10.6 z"
           id="path47"
           inkscape:connector-curvature="0"
           style="fill:none" /><path
           class="noFillSVG"
           d="m 300.8,393.8 c 0,-5.1 0.6,-10.1 1.5,-14.9 -2.8,4 -5.7,7.9 -9.1,11.3 2.6,1.1 5.1,2.3 7.6,3.6 z"
           id="path49"
           inkscape:connector-curvature="0"
           style="fill:none" /><path
           class="noFillSVG"
           d="m 730.4,419.8 c -2.8,7 -6.3,14.1 -8,21.5 -0.4,1.7 -0.6,3.3 -0.8,5 13.5,-5.7 25.6,-13.6 36.6,-23 -9,-2.9 -18.4,-4.1 -27.8,-3.5 z"
           id="path51"
           inkscape:connector-curvature="0"
           style="fill:none" /><path
           class="noFillSVG"
           d="m 349.3,307.9 c -0.1,0.4 -0.2,0.9 -0.3,1.3 0,0.1 -0.1,0.1 -0.1,0.2 3.8,2.1 7.6,4.5 11.3,7.1 4.9,-3.2 9.8,-6.7 14,-10.8 -5.9,-14 -9.2,-28.7 -10.7,-43.6 -4.4,15.3 -12.1,29.4 -14.3,45.3 0.2,0.1 0.2,0.3 0.1,0.5 z"
           id="path53"
           inkscape:connector-curvature="0"
           style="fill:none" /><path
           class="noFillSVG"
           d="m 599,276 c 3,6.9 5.6,14.4 9.5,20.9 1,1.6 2.1,3.1 3.3,4.5 5.7,-13.9 8.8,-28.4 10.1,-43.1 -8.7,4.3 -16.6,10.4 -22.9,17.7 z"
           id="path55"
           inkscape:connector-curvature="0"
           style="fill:none" /><path
           class="noFillSVG"
           d="m 698.5,388.4 c 1.9,1.8 3.9,3.4 6.1,4.7 6.4,4 13.9,6.5 20.9,9.5 7.6,-6.6 13.9,-14.8 18.2,-24 -15.4,1 -30.6,3.9 -45.2,9.8 z"
           id="path57"
           inkscape:connector-curvature="0"
           style="fill:none" /><path
           class="noFillSVG"
           d="m 694.8,361.8 c -0.4,-0.1 -0.9,-0.2 -1.3,-0.3 0,0 -0.1,0 -0.1,0 -2.1,3.9 -4.5,7.8 -7,11.5 3.1,4.7 6.4,9.5 10.4,13.6 14.5,-5.9 29.7,-9 45.1,-10.1 -15.7,-4.3 -30.2,-12.4 -46.5,-14.7 -0.2,0 -0.4,0.1 -0.6,0 z"
           id="path59"
           inkscape:connector-curvature="0"
           style="fill:none" /><path
           class="noFillSVG"
           d="m 376.1,303.9 c 1.7,-1.8 3.2,-3.8 4.5,-5.9 4,-6.4 6.5,-13.9 9.5,-20.9 -6.8,-7.8 -15.2,-14.1 -24.5,-18.5 1.3,15.6 4.6,30.8 10.5,45.3 z"
           id="path61"
           inkscape:connector-curvature="0"
           style="fill:none" /><path
           class="noFillSVG"
           d="m 407,250.2 c -1.2,6.3 -1.7,12.7 -1.3,19 7,2.8 14.1,6.3 21.5,8 1.8,0.4 3.7,0.7 5.5,0.8 -5.8,-13.8 -13.7,-26.3 -23.1,-37.8 -1.1,3.4 -2,6.6 -2.6,10 0,0 0,0 0,0 z"
           id="path63"
           inkscape:connector-curvature="0"
           style="fill:none" /><path
           class="noFillSVG"
           d="m 435.3,278.3 c 6.5,0.2 13,-1 19.3,-2.3 0.8,-4.5 1.8,-8.8 3,-13 -0.1,0 -0.2,0 -0.2,-0.1 -0.4,-0.2 -0.8,-0.5 -1.1,-0.7 -0.2,-0.1 -0.3,-0.3 -0.4,-0.4 -13.7,-10.3 -30.4,-14.8 -45,-23.6 10,12.1 18.4,25.4 24.4,40.1 z"
           id="path65"
           inkscape:connector-curvature="0"
           style="fill:none" /><path
           class="noFillSVG"
           d="m 534.1,262.2 c -0.4,0.2 -0.8,0.5 -1.1,0.7 0,0 -0.1,0 -0.1,0 1.3,4.3 2.3,8.6 3.2,13.1 5.5,1.1 11.2,2.1 16.9,2.2 5.8,-14.2 14,-26.9 23.7,-38.4 -13.9,7.7 -29.4,12.2 -42.1,21.9 -0.2,0.2 -0.3,0.4 -0.5,0.5 z"
           id="path67"
           inkscape:connector-curvature="0"
           style="fill:none" /><path
           class="noFillSVG"
           d="m 582.4,310.3 c 7.5,2.4 15.4,3.6 23.5,3.6 0,0 0,0 0,0 0,0 0,0 0,-0.1 1.8,-3.3 3.3,-6.6 4.8,-10 -1,-1.2 -2,-2.3 -2.9,-3.6 -4.7,-6.6 -7.4,-14.7 -10.6,-22.2 -7.4,9.1 -12.6,20.1 -14.8,32 0.1,0.1 0,0.2 0,0.3 z"
           id="path69"
           inkscape:connector-curvature="0"
           style="fill:none" /><path
           class="noFillSVG"
           d="m 698.5,303.1 c -10.5,0 -20.9,1.2 -31.1,3.9 -9.7,2.6 -21.5,6.2 -28.9,13.2 -0.1,0.1 -0.3,0.2 -0.5,0.3 19.2,8.4 34.5,23.9 42.5,43.3 6.9,-7.8 10.6,-19.3 13.4,-29.1 2.9,-10.3 4.4,-20.9 4.6,-31.6 z"
           id="path71"
           inkscape:connector-curvature="0"
           style="fill:none" /><path
           class="noFillSVG"
           d="m 727.8,420 c -11.1,1.1 -22.1,4.9 -32,11.5 3.6,6.6 8.1,12.8 13.6,18.3 0.3,0.3 0.5,0.5 0.7,0.8 3.1,-0.9 6,-2 9,-3.2 0.1,-1.4 0.2,-2.8 0.5,-4.2 1.3,-8 5.2,-15.7 8.2,-23.2 z"
           id="path73"
           inkscape:connector-curvature="0"
           style="fill:none" /><path
           class="noFillSVG"
           d="m 464.9,272.6 c 0,0 0,0 0,0 9.1,-3.4 18.8,-5.3 28.8,-5.3 11.1,0 21.9,2.2 31.8,6.5 -0.6,-10.5 -6.2,-21.5 -11.3,-30.5 -5.2,-9.3 -11.6,-17.7 -19,-25.3 -7.1,7.1 -13.4,14.9 -18.5,23.6 -5.4,9.1 -11.4,20.3 -11.8,31 z"
           id="path75"
           inkscape:connector-curvature="0"
           style="fill:none" /><path
           class="noFillSVG"
           d="m 549,289.4 c 0.9,-3 2,-5.9 3.1,-8.8 -5.2,-0.2 -10.4,-1.1 -15.5,-2.1 0,0.2 0.1,0.4 0.1,0.6 0,0.2 0,0.4 0,0.6 4.3,2.8 8.4,6 12.3,9.7 z"
           id="path77"
           inkscape:connector-curvature="0"
           style="fill:none" /><path
           class="noFillSVG"
           d="m 626.1,316.4 c -4.8,-3.2 -9.6,-6.7 -13.6,-10.8 -1.2,2.8 -2.5,5.5 -4,8.3 6.1,0.2 12,1 17.6,2.5 z"
           id="path79"
           inkscape:connector-curvature="0"
           style="fill:none" /><path
           class="noFillSVG"
           d="m 694.5,387.6 c -3.6,-3.8 -6.6,-8.1 -9.5,-12.5 -0.1,0.2 -0.2,0.4 -0.4,0.6 -0.1,0.1 -0.1,0.1 -0.2,0.2 1.2,5 1.9,10.2 2.1,15.5 2.6,-1.4 5.3,-2.7 8,-3.8 z"
           id="path81"
           inkscape:connector-curvature="0"
           style="fill:none" /><path
           class="noFillSVG"
           d="m 719,449.9 c -2.3,0.9 -4.7,1.7 -7.1,2.5 3.1,3.4 5.8,7 8.3,10.7 -0.7,-4.4 -1.3,-8.8 -1.2,-13.2 z"
           id="path83"
           inkscape:connector-curvature="0"
           style="fill:none" /><path
           class="noFillSVG"
           d="m 686.5,394.4 c 0,8.8 1.5,17.4 4.2,25.5 0.1,-0.4 0.3,-0.7 0.8,-0.8 12,-2.2 22.9,-7.4 32,-14.8 -7.4,-3.2 -15.6,-5.9 -22.2,-10.6 -1.9,-1.3 -3.6,-2.8 -5.2,-4.4 -3.3,1.4 -6.5,2.9 -9.7,4.6 0.1,0.2 0.1,0.4 0.1,0.5 z"
           id="path85"
           inkscape:connector-curvature="0"
           style="fill:none" /><path
           class="noFillSVG"
           d="m 555.5,278.3 c 2.6,-0.1 5.2,-0.4 7.7,-1 7.4,-1.8 14.5,-5.3 21.5,-8 0.7,-10.2 -0.8,-20.5 -4.4,-30.1 -10.1,11.7 -18.7,24.6 -24.8,39.1 z"
           id="path87"
           inkscape:connector-curvature="0"
           style="fill:none" /><path
           class="noFillSVG"
           d="m 325.3,713.5 c -7.1,2.1 -14.5,3.5 -22,4.2 -2.5,13 -4,26.3 -0.7,39.3 9.1,1.7 18.2,3.5 27.4,4.1 -1.7,-16 -5.7,-31.5 -4.7,-47.6 z"
           id="path89"
           inkscape:connector-curvature="0"
           style="fill:none" /><path
           class="noFillSVG"
           d="m 286.2,339.4 c -2.1,-7.1 -3.5,-14.5 -4.2,-22 -13,-2.5 -26.3,-4 -39.3,-0.7 -1.7,9.1 -3.5,18.2 -4.1,27.4 15.9,-1.7 31.5,-5.7 47.6,-4.7 z"
           id="path91"
           inkscape:connector-curvature="0"
           style="fill:none" /><path
           class="noFillSVG"
           d="M 227.5,535.6 C 221,532 214.8,527.8 209,523 c -11,7.4 -21.5,15.8 -28.3,27.4 5.2,7.6 10.3,15.3 16.5,22.2 0,0 0,0 0,0 10.1,-12.5 18.3,-26.3 30.3,-37 z"
           id="path93"
           inkscape:connector-curvature="0"
           style="fill:none" /><path
           class="noFillSVG"
           d="m 351.4,693.7 c -7.3,6.8 -18.3,10.3 -27.7,13 -11.2,3.2 -22.7,4.7 -34.4,4.6 -0.5,0 -0.9,-0.3 -1,-0.7 -0.4,-0.2 -0.7,-0.5 -0.7,-1 -0.1,-11.6 1.4,-23.2 4.6,-34.4 2.7,-9.5 6.3,-20.6 13.3,-27.9 0.1,-0.1 0.2,-0.2 0.3,-0.2 -0.7,-2 -1.4,-4 -2,-6 -15.5,22.5 -22.2,47.1 -20.3,74.3 26.8,1.9 51.2,-4.6 73.4,-19.7 -1.8,-0.5 -3.6,-1.2 -5.5,-2 z"
           id="path95"
           inkscape:connector-curvature="0"
           style="fill:none" /><path
           class="noFillSVG"
           d="m 281.5,695.8 c 0.7,-7.5 2.1,-14.9 4.2,-22 -16.1,1 -31.7,-3 -47.6,-4.8 0.5,9 2.1,18.2 3.8,27.4 0.1,0 0.1,0 0.2,0 13,3.4 26.3,1.9 39.4,-0.6 z"
           id="path97"
           inkscape:connector-curvature="0"
           style="fill:none" /><path
           class="noFillSVG"
           d="m 191.9,507.5 c -11.5,-3.6 -22.5,-8.2 -33.2,-13.8 -0.5,0.2 -1,0.2 -1.4,-0.2 -7.3,6.8 -15.6,12.1 -25.9,14.7 9.6,2.4 18.3,7.2 25.8,13.6 0.3,-0.5 0.9,-0.7 1.5,-0.5 5.3,-2.3 10.4,-5.2 15.7,-7.5 5.8,-2.3 11.6,-4.4 17.5,-6.3 z"
           id="path99"
           inkscape:connector-curvature="0"
           style="fill:none" /><path
           class="noFillSVG"
           d="m 293.3,428 c 0.9,-1.9 1.7,-3.9 2.5,-5.9 -20.7,-4.1 -39,-17.7 -49.7,-35.8 -13,-2.8 -25.6,-2 -38.6,0 9.1,11.3 18.1,23.2 31,30.3 0,0 0,0 0,0 18.8,-3.2 38.8,0.6 54.8,11.4 z"
           id="path101"
           inkscape:connector-curvature="0"
           style="fill:none" /><path
           class="noFillSVG"
           d="m 180.7,464.7 c 6.8,11.6 17.3,20 28.3,27.4 5.8,-4.9 12,-9 18.5,-12.6 -12.1,-10.7 -20.3,-24.5 -30.2,-37 0,0 0,0 0,0 -6,6.7 -11.3,14.3 -16.7,22 0,0.1 0.1,0.1 0.1,0.2 z"
           id="path103"
           inkscape:connector-curvature="0"
           style="fill:none" /><path
           class="noFillSVG"
           d="m 194.5,505.9 c 0.2,-0.1 0.4,-0.1 0.6,0 3.9,-4.4 7.9,-8.5 12.2,-12.2 -10.8,-7.4 -21.2,-15.7 -28.1,-27.1 -6.1,8.8 -12.4,17.6 -19.7,24.9 11.2,5.9 22.8,10.7 35,14.4 z"
           id="path105"
           inkscape:connector-curvature="0"
           style="fill:none" /><path
           class="noFillSVG"
           d="m 261.3,539.6 c -0.2,0.3 -0.5,0.6 -1,0.6 -10.5,-0.4 -21.4,-6 -30.5,-11.1 -9.7,-5.5 -18.4,-12.4 -26.2,-20.3 -0.4,-0.4 -0.4,-0.8 -0.2,-1.2 -0.2,-0.4 -0.1,-0.8 0.2,-1.2 7.8,-7.9 16.5,-14.8 26.2,-20.3 9,-5.2 19.9,-10.7 30.5,-11.1 0.2,0 0.3,0 0.4,0.1 0.8,-1.9 1.7,-3.8 2.7,-5.6 -26.8,4.9 -48.8,17.6 -66.7,38.2 18.1,20.8 40.5,33.6 67.8,38.4 -1.2,-2.3 -2.2,-4.3 -3.2,-6.5 z"
           id="path107"
           inkscape:connector-curvature="0"
           style="fill:none" /><path
           class="noFillSVG"
           d="m 806.7,552.2 c -6.8,-11.7 -17.4,-20 -28.4,-27.5 -5.8,4.8 -12,9 -18.5,12.6 12.1,10.7 20.3,24.6 30.3,37.1 0,0 0,0 0,0 6,-6.7 11.3,-14.3 16.7,-22 -0.1,-0.1 -0.1,-0.2 -0.1,-0.2 z"
           id="path109"
           inkscape:connector-curvature="0"
           style="fill:none" /><path
           class="noFillSVG"
           d="m 792.9,511 c -0.2,0.1 -0.4,0.1 -0.6,0 -3.9,4.4 -8,8.5 -12.3,12.2 10.9,7.4 21.3,15.8 28.2,27.2 6.1,-8.8 12.4,-17.6 19.7,-24.9 -11.2,-6 -22.8,-10.8 -35,-14.5 z"
           id="path111"
           inkscape:connector-curvature="0"
           style="fill:none" /><path
           class="noFillSVG"
           d="m 402.9,763.5 c 0,0 0,0 0,0 -3.9,-19.4 -0.3,-40.3 10.9,-57 -1.9,-0.9 -3.9,-1.7 -5.9,-2.4 -4.1,20.2 -17.2,38.1 -34.7,48.8 0,0.1 0,0.1 0,0.2 -2.9,13.8 -1.1,27.6 1.1,41.3 11,-8.9 21.8,-18.2 28.6,-30.9 z"
           id="path113"
           inkscape:connector-curvature="0"
           style="fill:none" /><path
           class="noFillSVG"
           d="m 701,677.4 c 2.1,7.1 3.5,14.5 4.2,22 13,2.5 26.3,4 39.3,0.7 1.7,-9.1 3.5,-18.2 4.1,-27.4 -15.9,1.7 -31.5,5.6 -47.6,4.7 z"
           id="path115"
           inkscape:connector-curvature="0"
           style="fill:none" /><path
           class="noFillSVG"
           d="m 526.1,739.3 c 0,0 0,0 0,0 -0.4,10.6 -6,21.5 -11.1,30.5 -5.5,9.7 -12.4,18.4 -20.3,26.2 -0.4,0.4 -0.8,0.4 -1.2,0.2 -0.4,0.2 -0.8,0.1 -1.2,-0.2 -7.9,-7.8 -14.8,-16.5 -20.3,-26.2 -5.2,-9 -10.7,-19.9 -11.1,-30.5 0,-0.1 0,-0.1 0,-0.2 -1.9,-0.8 -3.7,-1.7 -5.5,-2.7 4.9,26.7 17.6,48.7 38.1,66.6 20.4,-17.8 33.1,-39.7 38.1,-66.3 -1.9,0.9 -3.7,1.8 -5.5,2.6 z"
           id="path117"
           inkscape:connector-curvature="0"
           style="fill:none" /><path
           class="noFillSVG"
           d="m 577.9,704.7 c -1.6,0.6 -3.2,1.3 -4.7,2 11,16.4 14.7,37.1 10.9,56.3 0.3,0 0.7,0.2 0.9,0.6 6.8,12.7 17.6,22 28.6,30.9 1.9,-13 2.2,-25.6 -0.6,-38.5 0,0 0,-0.1 0,-0.1 -17.9,-11.6 -31.1,-30.7 -35.1,-51.2 z"
           id="path119"
           inkscape:connector-curvature="0"
           style="fill:none" /><path
           class="noFillSVG"
           d="m 661.3,716.9 c 1,16.1 -3,31.7 -4.8,47.7 9,-0.5 18.2,-2.1 27.4,-3.8 0,-0.1 0,-0.1 0,-0.2 3.4,-13.1 1.9,-26.4 -0.7,-39.5 -7.4,-0.7 -14.7,-2.1 -21.9,-4.2 z"
           id="path121"
           inkscape:connector-curvature="0"
           style="fill:none" /><path
           class="noFillSVG"
           d="m 680,650.6 c 0.3,-0.1 0.7,0 1,0.3 6.9,7.3 10.5,18.4 13.3,27.9 3.2,11.2 4.7,22.7 4.6,34.4 0,0.5 -0.3,0.9 -0.7,1 -0.1,0.4 -0.5,0.7 -1,0.7 -11.8,-0.1 -23.6,-1.8 -34.9,-5.3 -9.9,-3 -21.4,-6.9 -29,-14.2 -0.2,-0.2 -0.3,-0.4 -0.3,-0.6 -2.3,0.8 -4.7,1.6 -7.2,2.2 0.3,0.2 0.6,0.4 0.9,0.6 0.6,-0.1 1,0.3 1.2,0.8 22.7,15.4 47.6,22.1 75.1,20.5 1.9,-27.4 -4.8,-52.1 -20.6,-74.7 -0.7,2.3 -1.5,4.4 -2.4,6.4 z"
           id="path123"
           inkscape:connector-curvature="0"
           style="fill:none" /><path
           class="noFillSVG"
           d="m 607.7,699.5 c 1.6,3 3,6 4.4,9 3.8,-3.5 8.1,-6.6 12.4,-9.5 -0.2,-0.1 -0.4,-0.2 -0.6,-0.4 -0.4,-0.3 -0.5,-0.7 -0.5,-1.1 -5,1.2 -10.3,1.9 -15.7,2 z"
           id="path125"
           inkscape:connector-curvature="0"
           style="fill:none" /><path
           class="noFillSVG"
           d="m 726.1,539.5 c 10.5,-0.7 21.3,-6.2 30.2,-11.2 9.3,-5.2 17.7,-11.6 25.3,-19 -7.1,-7.1 -14.9,-13.4 -23.6,-18.5 -8.8,-5.2 -19.4,-10.9 -29.8,-11.6 3.2,8.7 4.8,18 4.8,27.6 0,11.4 -2.4,22.5 -6.9,32.7 z"
           id="path127"
           inkscape:connector-curvature="0"
           style="fill:none" /><path
           class="noFillSVG"
           d="m 719,566.2 c 0.2,-5.2 1.1,-10.4 2.1,-15.5 -0.2,0 -0.4,0.1 -0.6,0.1 -0.2,0 -0.4,0 -0.5,0 -2.9,4.4 -6.2,8.5 -9.9,12.3 3,0.9 6,1.9 8.9,3.1 z"
           id="path129"
           inkscape:connector-curvature="0"
           style="fill:none" /><path
           class="noFillSVG"
           d="m 708.7,565 c -0.1,0 -0.2,-0.1 -0.3,-0.2 -6.2,6.4 -11.1,13.7 -14.7,21.6 0.3,-0.2 0.7,-0.3 1.1,0 10.1,7 21.5,11 33.1,12.2 -3,-7.5 -6.8,-15.2 -8.2,-23.2 -0.4,-2.3 -0.6,-4.5 -0.6,-6.8 -3.5,-1.3 -6.9,-2.5 -10.4,-3.6 z"
           id="path131"
           inkscape:connector-curvature="0"
           style="fill:none" /><path
           class="noFillSVG"
           d="m 721.7,470.5 c 0,0 0,0 0,0 -0.1,-0.2 -0.2,-0.4 -0.2,-0.6 0,0 0,0 0,0 -3.5,-6.7 -8.1,-12.9 -13.7,-18.5 -5.7,-5.7 -10.5,-12.2 -14.2,-19.2 -0.3,-0.2 -0.5,-0.6 -0.5,-1 -5.8,-11.2 -8.9,-23.8 -8.9,-36.8 0,-43.1 -35.1,-78.2 -78.2,-78.2 -21.5,0 -41.7,-8.4 -57,-23.6 -15.3,-15.3 -35.3,-22.9 -55.3,-22.9 -20,0 -40.1,7.6 -55.3,22.9 -8.6,8.6 -18.7,15 -29.8,18.9 -0.3,0.3 -0.8,0.5 -1.2,0.4 -8.2,2.8 -16.9,4.3 -25.8,4.3 -0.3,0.8 -1.6,1.3 -2.1,0.3 0,-0.1 -0.1,-0.1 -0.1,-0.2 -6.4,0.2 -12.6,1.1 -18.5,2.7 -0.1,0.1 -0.2,0.1 -0.3,0.1 0,0 0,0 0,0 0,0 0,0 -0.1,0 -33,9.2 -57.2,39.5 -57.2,75.3 0,21.5 -8.4,41.7 -23.6,57 -0.3,0.3 -0.6,0.6 -0.9,0.9 0,0.6 -0.4,1.2 -1.1,1.1 -28.5,30.6 -27.8,78.7 2,108.6 15.2,15.2 23.6,35.4 23.6,57 0,35.6 23.9,65.7 56.5,75.1 0.1,0 0.2,0 0.2,0 0,0 0,0 0,0 0.2,0 0.4,0.1 0.5,0.2 6.4,1.8 13.2,2.8 20.1,2.9 0,0 0,0 0,0 0.5,-0.9 1.6,-0.6 2,0.1 8.4,0.1 16.5,1.5 24.2,4.1 0.4,-0.1 0.9,0.1 1.3,0.4 11.3,3.9 21.6,10.4 30.3,19.1 0.1,0.1 0.2,0.2 0.2,0.2 0.3,0.1 0.6,0.3 0.7,0.7 30.6,29.6 79.5,29.3 109.7,-0.9 0,0 0.1,-0.1 0.1,-0.1 0.1,-0.2 0.3,-0.3 0.5,-0.5 15.1,-14.9 35.1,-23 56.4,-23 42.5,0 77.1,-34 78.2,-76.2 0,0 0,0 0,0 0,-0.7 0.1,-1.3 0.1,-2 0,-21.5 8.4,-41.7 23.6,-57 24.7,-24.7 29.4,-61.9 14.1,-91.3 -0.2,-0.2 -0.2,-0.2 -0.3,-0.3 z"
           id="path133"
           inkscape:connector-curvature="0"
           style="fill:none" /><path
           class="noFillSVG"
           d="m 692.2,421.3 c -0.4,0.1 -0.8,-0.1 -1.1,-0.3 1,2.9 2.3,5.7 3.6,8.4 16.5,-11 37.3,-14.5 56.5,-10.6 0.1,-0.2 0.2,-0.3 0.4,-0.5 12.7,-6.8 22,-17.6 31,-28.6 -13.7,-2.2 -27.6,-4 -41.3,-1.1 -0.1,0 -0.2,0 -0.4,0 -11.1,16.8 -28.8,29.1 -48.7,32.7 z"
           id="path135"
           inkscape:connector-curvature="0"
           style="fill:none" /><path
           class="noFillSVG"
           d="m 610.3,710.3 c -1.5,-3.3 -3,-6.6 -4.7,-9.9 -0.2,-0.3 -0.2,-0.6 -0.1,-0.8 -8.8,0 -17.4,1.5 -25.4,4.4 2.4,12.1 7.9,23.5 15.6,33.1 3,-7.3 5.7,-15.1 10.3,-21.5 1.2,-2 2.7,-3.7 4.3,-5.3 z"
           id="path137"
           inkscape:connector-curvature="0"
           style="fill:none" /><path
           class="noFillSVG"
           d="m 694,626.6 c -2.5,-1.1 -5.1,-2.3 -7.6,-3.6 -0.3,5.6 -1.1,11 -2.5,16.2 3.1,-4.5 6.3,-8.8 10.1,-12.6 z"
           id="path139"
           inkscape:connector-curvature="0"
           style="fill:none" /><path
           class="noFillSVG"
           d="m 635.2,694 c 7.8,7.3 19.6,11.1 29.7,14 10.3,2.9 20.9,4.4 31.7,4.6 0,-10.5 -1.2,-20.9 -3.9,-31.1 -2.6,-9.7 -6.2,-21.5 -13.2,-28.9 -0.1,-0.1 -0.1,-0.2 -0.1,-0.2 -8.8,18.9 -24.7,34 -44.2,41.6 z"
           id="path141"
           inkscape:connector-curvature="0"
           style="fill:none" /><path
           class="noFillSVG"
           d="m 721.6,611.4 c -9.1,-7.4 -20,-12.6 -31.9,-14.8 -2.1,7.2 -3.2,14.7 -3.2,22.3 0,0.5 0,1 0,1.4 3.1,1.6 6.2,3.1 9.4,4.5 1.2,-1 2.3,-2 3.6,-2.9 6.6,-4.6 14.7,-7.3 22.1,-10.5 z"
           id="path143"
           inkscape:connector-curvature="0"
           style="fill:none" /><path
           class="noFillSVG"
           d="m 586.9,250.5 c -0.2,0.3 -0.4,0.5 -0.7,0.6 3.2,18.9 -0.7,39.1 -11.8,55.1 -0.8,1.2 -2.9,0.1 -2,-1.2 7,-10.1 11,-21.5 12.2,-33.1 -7.5,3 -15.2,6.8 -23.2,8.2 -2.3,0.4 -4.5,0.6 -6.8,0.6 -1.3,3.4 -2.6,6.8 -3.7,10.3 0,0.1 0,0.1 -0.1,0.1 8.5,8.4 18.5,14.6 29.4,18.4 0,0 0,-0.1 0,-0.1 3.9,-21.6 18,-40.6 36.9,-51.4 2.7,-13 0.5,-25.6 -1.6,-38.5 -11,9 -21.8,18.3 -28.6,31 z"
           id="path145"
           inkscape:connector-curvature="0"
           style="fill:none" /><path
           class="noFillSVG"
           d="m 306.1,365.8 c -6.9,-7.3 -10.5,-18.4 -13.2,-27.9 -3.2,-11.2 -4.7,-22.7 -4.6,-34.4 0,-0.5 0.3,-0.9 0.7,-1 0.2,-0.4 0.5,-0.7 1,-0.7 11.6,-0.1 23.2,1.4 34.4,4.6 9.4,2.7 20.3,6.3 27.6,13 1.8,-0.7 3.7,-1.4 5.6,-2 -22.2,-15.1 -46.5,-21.5 -73.4,-19.7 -1.9,27 4.7,51.4 19.9,73.8 0.6,-1.9 1.3,-3.8 2,-5.7 z"
           id="path147"
           inkscape:connector-curvature="0"
           style="fill:none" /><path
           class="noFillSVG"
           d="m 408.5,309 c 2.5,-0.9 5,-2 7.4,-3.2 -11.2,-16.3 -15,-36.9 -11.5,-56.1 -6.8,-12.3 -17.4,-21.5 -28.1,-30.2 -2.2,13.7 -4,27.6 -1.1,41.4 0,0.1 0,0.1 0,0.2 16.8,10.7 29.3,28.2 33.3,47.9 z"
           id="path149"
           inkscape:connector-curvature="0"
           style="fill:none" /><path
           class="noFillSVG"
           d="m 707,316.3 c -0.7,7.5 -2.1,14.8 -4.1,22 16.1,-1 31.7,3 47.7,4.8 -0.5,-9 -2.1,-18.2 -3.8,-27.4 -0.1,0 -0.1,0 -0.2,0 -13.2,-3.4 -26.6,-1.9 -39.6,0.6 z"
           id="path151"
           inkscape:connector-curvature="0"
           style="fill:none" /><path
           class="noFillSVG"
           d="m 325.8,299.7 c -1,-16.1 3,-31.7 4.8,-47.6 -9,0.5 -18.2,2.1 -27.4,3.8 0,0.1 0,0.1 0,0.2 -3.4,13 -1.9,26.4 0.6,39.4 7.6,0.7 14.9,2.1 22,4.2 z"
           id="path153"
           inkscape:connector-curvature="0"
           style="fill:none" /><path
           class="noFillSVG"
           d="m 462.9,273.4 c -0.2,-0.2 -0.3,-0.4 -0.3,-0.8 0.4,-10.5 6,-21.4 11.1,-30.5 5.5,-9.7 12.4,-18.4 20.3,-26.2 0.4,-0.4 0.8,-0.4 1.2,-0.2 0.4,-0.2 0.8,-0.1 1.2,0.2 8.1,8.3 15.1,17.7 20.7,28 5,9.3 10.5,20.3 10.7,31 2.1,1 4.2,2.1 6.3,3.3 0,-0.1 0,-0.2 -0.1,-0.3 -0.5,-0.3 -0.5,-0.9 -0.3,-1.4 -5.2,-26.9 -18,-49.3 -38.6,-67.6 -20.7,18 -33.4,40.2 -38.2,67.2 2,-0.9 4,-1.9 6,-2.7 z"
           id="path155"
           inkscape:connector-curvature="0"
           style="fill:none" /><path
           class="noFillSVG"
           d="m 628.8,315.4 c 3.7,-2.6 7.5,-4.9 11.3,-7.1 0,-0.1 -0.1,-0.1 -0.1,-0.2 -0.1,-0.4 -0.2,-0.9 -0.3,-1.3 0,-0.2 0,-0.4 0,-0.5 -2.4,-17.2 -11.3,-32.4 -15.4,-49.2 0,0 -0.1,0 -0.1,0.1 -1.3,15.8 -4.6,31.3 -10.8,46.2 4.6,4.6 10,8.4 15.4,12 z"
           id="path157"
           inkscape:connector-curvature="0"
           style="fill:none" /><path
           class="noFillSVG"
           d="m 636.6,319.9 c -0.2,-0.4 -0.3,-0.9 0.2,-1.3 7.3,-6.9 18.4,-10.5 27.9,-13.3 11.2,-3.2 22.7,-4.7 34.4,-4.6 0.5,0 0.9,0.3 1,0.7 0.4,0.1 0.7,0.5 0.7,1 -0.1,11.8 -1.8,23.6 -5.3,34.9 -3,9.9 -6.9,21.3 -14.1,28.9 0.8,2.2 1.5,4.4 2.2,6.7 0,0 0,0 0,0 -0.1,-0.6 0.3,-1 0.8,-1.2 15.4,-22.7 22.1,-47.6 20.5,-75.1 -27.5,-1.9 -52.4,4.9 -75,20.8 2.3,0.8 4.5,1.6 6.7,2.5 z"
           id="path159"
           inkscape:connector-curvature="0"
           style="fill:none" /><path
           class="noFillSVG"
           d="m 663.3,298.6 c 7.1,-2.1 14.5,-3.5 22,-4.2 2.5,-13 4,-26.3 0.7,-39.3 -9.1,-1.7 -18.2,-3.5 -27.4,-4.1 1.7,16 5.6,31.6 4.7,47.6 z"
           id="path161"
           inkscape:connector-curvature="0"
           style="fill:none" /><path
           class="noFillSVG"
           d="m 249.9,468.6 c 0.2,0.4 0.5,0.8 0.7,1.1 0,0.1 0.1,0.1 0.1,0.2 4.2,-1.2 8.6,-2.2 13,-3 1.2,-5.7 2.2,-11.7 2.3,-17.5 -14.3,-5.8 -27.1,-14 -38.6,-23.7 7.8,14 12.4,29.7 22.1,42.6 0.2,0 0.3,0.2 0.4,0.3 z"
           id="path163"
           inkscape:connector-curvature="0"
           style="fill:none" /><path
           class="noFillSVG"
           d="m 205,627.4 c -1,-0.1 -1,-1.3 -0.5,-1.9 8.5,-10.6 16.9,-21.1 28.6,-28.2 -3.2,-0.8 -6.3,-1.8 -9.4,-3 -13.6,10.6 -25.7,23.2 -36.1,37.2 17.8,2.6 36.1,3.9 54.1,2.7 1.1,-2.4 2.3,-4.7 3.5,-6.9 -13.4,2.6 -26.7,2.3 -40.2,0.1 z"
           id="path165"
           inkscape:connector-curvature="0"
           style="fill:none" /><path
           class="noFillSVG"
           d="m 207.2,521.4 c -4.3,-3.7 -8.3,-7.8 -12.2,-12.2 -0.2,0.1 -0.4,0.1 -0.6,0 -7.2,2.2 -14.2,4.7 -21.1,7.6 -4.8,2.1 -9.3,4.7 -14.1,6.8 2.2,2 4.3,4.2 6.3,6.4 5.1,5.7 9.5,11.9 13.7,18.3 7,-11.3 17.3,-19.6 28,-26.9 z"
           id="path167"
           inkscape:connector-curvature="0"
           style="fill:none" /><path
           class="noFillSVG"
           d="m 248.4,544.4 c -6.6,-2 -12.8,-4.6 -18.8,-7.7 -0.1,0.1 -0.1,0.2 -0.2,0.2 -12.2,10.7 -20.5,24.7 -30.5,37.3 7.1,7.4 15.5,13.2 24.7,17 9.2,-15.1 13.8,-32.6 24.8,-46.8 z"
           id="path169"
           inkscape:connector-curvature="0"
           style="fill:none" /><path
           class="noFillSVG"
           d="m 229.4,478.1 c 0.1,0.1 0.1,0.2 0.2,0.2 6,-3.1 12.2,-5.7 18.8,-7.7 -11,-14.2 -15.6,-31.7 -24.9,-46.9 -9.1,3.9 -17.6,9.6 -24.7,17 10.2,12.7 18.4,26.7 30.6,37.4 z"
           id="path171"
           inkscape:connector-curvature="0"
           style="fill:none" /><path
           class="noFillSVG"
           d="m 246,730.4 c 12.1,-3.8 23.7,-8.6 34.9,-14.5 0.1,-0.2 0.2,-0.3 0.4,-0.4 -0.4,-5.9 -0.4,-11.6 0,-17.3 -12.9,2.4 -26.1,3.8 -39,0.7 1.9,10.5 3.7,21.1 3.7,31.5 z"
           id="path173"
           inkscape:connector-curvature="0"
           style="fill:none" /><path
           class="noFillSVG"
           d="m 286,671.5 c 0.1,0 0.2,0 0.3,0 2,-6.4 4.6,-12.7 7.9,-18.7 -17.9,-2.2 -33.6,-11.5 -50.9,-15.6 0,0 0,0 0,0 -3.4,8.3 -5.3,17.2 -5.3,26.5 0,1 0,2.1 0.1,3.1 15.9,1.7 31.6,5.7 47.9,4.7 z"
           id="path175"
           inkscape:connector-curvature="0"
           style="fill:none" /><path
           class="noFillSVG"
           d="m 300.9,717.8 c -5.6,0.4 -11.4,0.4 -17.3,0 -0.1,0.2 -0.3,0.3 -0.4,0.4 -3.4,6.3 -6.4,12.7 -9.1,19.3 -2.1,5.2 -3.5,10.6 -5.6,15.8 3.4,-0.2 6.8,-0.1 10.2,0.1 7.2,0.5 14.3,1.7 21.4,3.1 -3,-12.8 -1.6,-25.9 0.8,-38.7 z"
           id="path177"
           inkscape:connector-curvature="0"
           style="fill:none" /><path
           class="noFillSVG"
           d="m 265.9,753.4 c -0.2,-0.6 0.2,-1.2 0.6,-1.4 2.2,-5.6 3.8,-11.5 6.2,-17.1 2.3,-5.5 4.9,-10.9 7.6,-16.1 -10.7,5.6 -21.8,10.1 -33.3,13.7 -0.2,0.5 -0.6,0.9 -1.1,0.9 -0.3,9.9 -2.5,19.6 -7.9,28.7 8.5,-5.2 18,-7.9 27.9,-8.7 z"
           id="path179"
           inkscape:connector-curvature="0"
           style="fill:none" /><path
           class="noFillSVG"
           d="m 204.5,386.3 c -0.5,-0.6 -0.4,-1.8 0.5,-1.9 13.3,-2.1 26.3,-3.1 39.5,-0.6 -0.6,-1.1 -1.1,-2.2 -1.7,-3.4 -17.1,-1.3 -34.5,-0.2 -51.7,2.3 10.1,13.6 21.2,26.5 33.6,37.7 3.4,-1.3 6.9,-2.3 10.4,-3.1 -12.6,-7.6 -21.5,-19.7 -30.6,-31 z"
           id="path181"
           inkscape:connector-curvature="0"
           style="fill:none" /><path
           class="noFillSVG"
           d="m 328.2,300.1 c 0,0.1 0,0.2 0,0.3 6.4,2 12.7,4.6 18.7,7.9 2.2,-17.9 11.5,-33.6 15.6,-50.9 0,0 0,0 0,0 -8.3,-3.4 -17.2,-5.3 -26.5,-5.3 -1,0 -2.1,0 -3.1,0.1 -1.7,15.9 -5.8,31.6 -4.7,47.9 z"
           id="path183"
           inkscape:connector-curvature="0"
           style="fill:none" /><path
           class="noFillSVG"
           d="m 243.8,376.1 c 17.4,-4.2 33.1,-13.4 50.9,-15.6 -3.2,-6.1 -5.8,-12.3 -7.9,-18.7 -0.1,0 -0.2,0.1 -0.3,0 -16.2,-1 -32,3 -48,4.8 0,1.4 -0.1,2.8 -0.1,4.2 0.2,8.8 2,17.3 5.4,25.3 -0.1,0 -0.1,0 0,0 z"
           id="path185"
           inkscape:connector-curvature="0"
           style="fill:none" /><path
           class="noFillSVG"
           d="m 374.3,217 c 0.2,-1 1.3,-1 1.9,-0.5 10.8,8.8 21.6,17.9 28.9,29.9 0.7,-2.9 1.5,-5.7 2.5,-8.5 -11.5,-13.6 -25.1,-25.7 -39.5,-36.3 -2.6,17.8 -3.9,36.1 -2.7,54.1 2.5,1.1 4.9,2.4 7.2,3.7 -2.6,-14.1 -0.5,-28.3 1.7,-42.4 z"
           id="path187"
           inkscape:connector-curvature="0"
           style="fill:none" /><path
           class="noFillSVG"
           d="m 458.3,260.7 c 2,-6.6 4.6,-12.8 7.7,-18.8 -0.1,-0.1 -0.2,-0.1 -0.2,-0.2 -10.7,-12.2 -24.7,-20.5 -37.3,-30.5 -7.4,7.1 -13.2,15.5 -17,24.7 15.1,9.2 32.6,13.8 46.8,24.8 z"
           id="path189"
           inkscape:connector-curvature="0"
           style="fill:none" /><path
           class="noFillSVG"
           d="m 481.3,219.5 c 3.7,-4.3 7.8,-8.3 12.2,-12.2 -0.1,-0.2 -0.1,-0.4 0,-0.6 -2.2,-7.2 -4.7,-14.2 -7.6,-21.1 -2.1,-4.8 -4.7,-9.3 -6.8,-14.1 -2,2.2 -4.2,4.3 -6.4,6.3 -5.7,5.1 -11.9,9.5 -18.3,13.7 11.3,7 19.6,17.2 26.9,28 z"
           id="path191"
           inkscape:connector-curvature="0"
           style="fill:none" /><path
           class="noFillSVG"
           d="m 467.1,239.8 c 3.6,-6.5 7.8,-12.7 12.6,-18.5 -7.4,-11 -15.8,-21.5 -27.4,-28.3 -7.6,5.2 -15.3,10.3 -22.2,16.5 0,0 0,0 0,0 12.5,10 26.4,18.2 37,30.3 z"
           id="path193"
           inkscape:connector-curvature="0"
           style="fill:none" /><path
           class="noFillSVG"
           d="m 247.6,280.6 c 5.6,2.2 11.5,3.8 17.1,6.2 5.5,2.3 10.9,4.9 16.1,7.6 -5.6,-10.7 -10.1,-21.8 -13.7,-33.3 -0.5,-0.2 -0.9,-0.6 -0.9,-1.1 -9.9,-0.3 -19.6,-2.5 -28.7,-7.9 5.1,8.5 7.8,18.1 8.6,27.9 0.7,-0.2 1.3,0.2 1.5,0.6 z"
           id="path195"
           inkscape:connector-curvature="0"
           style="fill:none" /><path
           class="noFillSVG"
           d="m 281.9,315 c -0.4,-5.6 -0.4,-11.4 0,-17.3 -0.2,-0.1 -0.3,-0.3 -0.4,-0.4 -6.3,-3.4 -12.7,-6.4 -19.3,-9.1 -5.2,-2.1 -10.6,-3.5 -15.8,-5.6 0.2,3.4 0.1,6.8 -0.1,10.2 -0.5,7.2 -1.7,14.3 -3.1,21.4 12.8,-3 25.8,-1.6 38.7,0.8 z"
           id="path197"
           inkscape:connector-curvature="0"
           style="fill:none" /><path
           class="noFillSVG"
           d="m 361.9,755.9 c -4.2,-17.4 -13.4,-33.1 -15.6,-50.9 -6.1,3.2 -12.3,5.8 -18.7,7.9 0,0.1 0.1,0.2 0,0.3 -1,16.2 3,32 4.8,48 1.4,0 2.8,0.1 4.2,0.1 8.9,-0.2 17.4,-2.1 25.3,-5.4 0.1,0 0.1,0 0,0 z"
           id="path199"
           inkscape:connector-curvature="0"
           style="fill:none" /><path
           class="noFillSVG"
           d="m 283.8,295 c 0.2,0.1 0.3,0.2 0.4,0.4 5.9,-0.4 11.6,-0.4 17.3,0 -2.4,-12.9 -3.8,-26.1 -0.7,-39 -10.6,1.9 -21.2,3.7 -31.5,3.7 3.7,12.1 8.5,23.7 14.5,34.9 z"
           id="path201"
           inkscape:connector-curvature="0"
           style="fill:none" /><path
           class="noFillSVG"
           d="m 450.6,818.9 c 11.6,-6.8 20,-17.3 27.4,-28.3 -4.9,-5.8 -9,-12 -12.6,-18.5 -10.7,12.1 -24.5,20.3 -37,30.2 0,0 0,0 0,0 6.7,6 14.3,11.3 22,16.7 0.1,0 0.1,0 0.2,-0.1 z"
           id="path203"
           inkscape:connector-curvature="0"
           style="fill:none" /><path
           class="noFillSVG"
           d="m 703.4,721.7 c -0.2,-0.1 -0.3,-0.2 -0.4,-0.4 -5.9,0.4 -11.6,0.3 -17.3,-0.1 2.5,13 3.9,26.2 0.7,39.1 10.6,-1.9 21.2,-3.7 31.5,-3.7 -3.8,-12 -8.6,-23.6 -14.5,-34.9 z"
           id="path205"
           inkscape:connector-curvature="0"
           style="fill:none" /><path
           class="noFillSVG"
           d="m 739.6,736.1 c -5.6,-2.2 -11.5,-3.8 -17.1,-6.2 -5.5,-2.3 -10.9,-4.9 -16.1,-7.6 5.6,10.7 10.1,21.8 13.7,33.3 0.5,0.2 0.9,0.6 0.9,1.1 9.9,0.3 19.6,2.5 28.7,7.9 -5.1,-8.5 -7.8,-18.1 -8.6,-27.9 -0.7,0.2 -1.3,-0.1 -1.5,-0.6 z"
           id="path207"
           inkscape:connector-curvature="0"
           style="fill:none" /><path
           class="noFillSVG"
           d="m 705.3,701.8 c 0.4,5.6 0.4,11.4 0,17.3 0.2,0.1 0.3,0.3 0.4,0.4 6.3,3.4 12.7,6.4 19.3,9.1 5.2,2.1 10.6,3.5 15.8,5.6 -0.2,-3.4 -0.1,-6.8 0.1,-10.2 0.5,-7.2 1.7,-14.3 3.1,-21.4 -12.8,3 -25.9,1.6 -38.7,-0.8 z"
           id="path209"
           inkscape:connector-curvature="0"
           style="fill:none" /><path
           class="noFillSVG"
           d="m 374.3,797.5 c -0.6,0.5 -1.8,0.4 -1.9,-0.5 -2.3,-14.1 -4.3,-28.3 -1.7,-42.5 -1.4,0.8 -2.9,1.6 -4.4,2.3 -1.3,17.1 -0.2,34.5 2.3,51.7 13.6,-10.1 26.5,-21.2 37.7,-33.6 -1,-2.6 -1.8,-5.4 -2.5,-8.1 -7.4,12.4 -18.4,21.7 -29.5,30.7 z"
           id="path211"
           inkscape:connector-curvature="0"
           style="fill:none" /><path
           class="noFillSVG"
           d="m 659,716.7 c 0,-0.2 0,-0.3 0.1,-0.4 -6.4,-2 -12.7,-4.6 -18.8,-7.7 -2.2,17.8 -11.4,33.4 -15.6,50.6 8.2,3.5 17.1,5.5 26.4,5.5 1,0 2.1,0 3.1,-0.1 1.8,-15.9 5.8,-31.7 4.8,-47.9 z"
           id="path213"
           inkscape:connector-curvature="0"
           style="fill:none" /><path
           class="noFillSVG"
           d="m 743.4,640.7 c -17.4,4.2 -33.1,13.4 -50.9,15.6 3.2,6.1 5.8,12.3 7.9,18.7 0.1,0 0.2,-0.1 0.3,0 16.2,1 32,-3 48,-4.8 0,-1.4 0.1,-2.8 0.1,-4.2 -0.2,-8.8 -2.1,-17.4 -5.4,-25.3 0,0 0,0 0,0 z"
           id="path215"
           inkscape:connector-curvature="0"
           style="fill:none" /><path
           class="noFillSVG"
           d="m 757.9,538.8 c -0.1,-0.1 -0.2,-0.2 -0.3,-0.3 -5.9,3.1 -12.2,5.7 -18.7,7.8 11,14.2 15.6,31.7 24.8,46.9 9.1,-3.9 17.6,-9.6 24.7,-17 -10,-12.7 -18.2,-26.7 -30.5,-37.4 z"
           id="path217"
           inkscape:connector-curvature="0"
           style="fill:none" /><path
           class="noFillSVG"
           d="m 785.4,627.4 c 0.5,0.6 0.4,1.8 -0.5,1.9 -14.2,2.3 -28.7,4.7 -43.1,2.3 0.8,1.5 1.6,3 2.4,4.6 17.1,1.2 34.6,0.1 51.8,-2.5 -9.9,-13.5 -20.9,-26.2 -33.2,-37.3 -3,1.2 -6.1,2.1 -9.3,2.8 12.4,7.2 22.8,17.2 31.9,28.2 z"
           id="path219"
           inkscape:connector-curvature="0"
           style="fill:none" /><path
           class="noFillSVG"
           d="m 615.5,797 c -0.2,1 -1.3,1 -1.9,0.5 -11.4,-9.3 -22.8,-18.9 -30.1,-31.9 -0.6,2.5 -1.3,4.9 -2.1,7.4 11.5,12.9 24.9,24.4 38.9,34.8 2.3,-15.6 3.2,-31.2 2.2,-46.6 -2.4,-1.1 -4.7,-2.3 -6.9,-3.6 2.5,13 2,26.1 -0.1,39.4 z"
           id="path221"
           inkscape:connector-curvature="0"
           style="fill:none" /><path
           class="noFillSVG"
           d="m 491.8,805.2 c -0.1,-0.2 -0.1,-0.4 0,-0.6 -4.4,-3.9 -8.5,-7.9 -12.2,-12.2 -7.4,10.8 -15.7,21.2 -27.1,28.1 8.8,6.1 17.6,12.4 24.9,19.7 5.9,-11.3 10.7,-22.9 14.4,-35 z"
           id="path223"
           inkscape:connector-curvature="0"
           style="fill:none" /><path
           class="noFillSVG"
           d="m 507.7,842.4 c -0.5,-0.3 -0.7,-0.9 -0.5,-1.5 -2.3,-5.3 -5.2,-10.4 -7.5,-15.7 -2.4,-5.7 -4.5,-11.6 -6.3,-17.5 -3.6,11.5 -8.2,22.5 -13.8,33.2 0.2,0.5 0.2,1 -0.2,1.4 6.8,7.3 12.1,15.6 14.7,25.9 2.4,-9.7 7.2,-18.3 13.6,-25.8 z"
           id="path225"
           inkscape:connector-curvature="0"
           style="fill:none" /><path
           class="noFillSVG"
           d="m 534,735.9 c -0.8,4.5 -1.8,8.8 -3,13 0.1,0 0.2,0 0.2,0.1 0.4,0.2 0.8,0.5 1.1,0.7 0.2,0.1 0.3,0.3 0.4,0.4 13.8,10.4 30.7,14.9 45.4,23.8 0.1,-0.3 0.2,-0.5 0.3,-0.8 -10.3,-11.8 -18.9,-24.9 -25,-39.5 -6.5,-0.2 -13.1,1 -19.4,2.3 z"
           id="path227"
           inkscape:connector-curvature="0"
           style="fill:none" /><path
           class="noFillSVG"
           d="m 290.9,389.1 c 4.7,-4.5 8.5,-9.9 12.1,-15.3 -2.6,-3.7 -4.9,-7.5 -7.1,-11.3 -0.1,0 -0.1,0.1 -0.2,0.1 -0.4,0.1 -0.9,0.2 -1.3,0.3 -0.2,0 -0.4,0 -0.5,0 -17.1,2.4 -32.3,11.2 -49,15.3 15.7,1.3 31.1,4.7 46,10.9 z"
           id="path229"
           inkscape:connector-curvature="0"
           style="fill:none" /><path
           class="noFillSVG"
           d="m 480.9,169.5 c 0.5,0.3 0.7,0.9 0.5,1.5 2.3,5.3 5.2,10.4 7.5,15.7 2.4,5.7 4.5,11.6 6.3,17.5 3.6,-11.5 8.2,-22.5 13.8,-33.2 -0.2,-0.5 -0.2,-1 0.2,-1.4 -6.8,-7.3 -12.1,-15.6 -14.7,-25.9 -2.4,9.7 -7.2,18.3 -13.6,25.8 z"
           id="path231"
           inkscape:connector-curvature="0"
           style="fill:none" /><path
           class="noFillSVG"
           d="m 530.3,751.2 c -2,6.6 -4.6,12.8 -7.7,18.8 0.1,0.1 0.2,0.1 0.2,0.2 10.7,12.2 24.7,20.5 37.3,30.5 7.4,-7.1 13.2,-15.5 17,-24.7 -15.1,-9.2 -32.6,-13.8 -46.8,-24.8 z"
           id="path233"
           inkscape:connector-curvature="0"
           style="fill:none" /><path
           class="noFillSVG"
           d="m 507.3,792.4 c -3.7,4.3 -7.8,8.3 -12.2,12.2 0.1,0.2 0.1,0.4 0,0.6 2.2,7.2 4.7,14.2 7.6,21.1 2.1,4.8 4.7,9.3 6.8,14.1 2,-2.2 4.2,-4.3 6.4,-6.3 5.7,-5.1 11.9,-9.5 18.3,-13.7 -11.3,-7 -19.6,-17.2 -26.9,-28 z"
           id="path235"
           inkscape:connector-curvature="0"
           style="fill:none" /><path
           class="noFillSVG"
           d="m 521.5,772.1 c -3.6,6.5 -7.8,12.7 -12.6,18.5 7.4,11 15.8,21.5 27.4,28.3 7.6,-5.2 15.3,-10.3 22.2,-16.5 0,0 0,0 0,0 -12.5,-10 -26.3,-18.2 -37,-30.3 z"
           id="path237"
           inkscape:connector-curvature="0"
           style="fill:none" /><path
           class="noFillSVG"
           d="m 426.6,800.7 c 12.6,-10.1 26.6,-18.3 37.3,-30.5 0.1,-0.1 0.2,-0.1 0.2,-0.2 -3.1,-6 -5.7,-12.2 -7.7,-18.8 -14.2,11 -31.7,15.6 -46.9,24.9 4,9.1 9.7,17.5 17.1,24.6 z"
           id="path239"
           inkscape:connector-curvature="0"
           style="fill:none" /><path
           class="noFillSVG"
           d="m 549.6,723.4 c -3.6,3.5 -7.5,6.6 -11.6,9.3 4.8,-0.9 9.6,-1.5 14.4,-1.5 -1,-2.5 -1.9,-5.1 -2.8,-7.8 z"
           id="path241"
           inkscape:connector-curvature="0"
           style="fill:none" /><path
           class="noFillSVG"
           d="m 582.7,740 c -1.1,-11.3 -5,-22.4 -11.7,-32.3 -7.1,3.6 -13.7,8.2 -19.6,13.9 1,3.3 2.2,6.6 3.5,9.7 1.5,0.1 3.1,0.2 4.6,0.5 8.1,1.4 15.7,5.2 23.2,8.2 z"
           id="path243"
           inkscape:connector-curvature="0"
           style="fill:none" /><path
           class="noFillSVG"
           d="m 454.5,749.7 c 0.4,-0.2 0.8,-0.5 1.1,-0.7 0.1,0 0.1,-0.1 0.2,-0.1 -1.2,-4.2 -2.2,-8.6 -3,-13 -5.7,-1.2 -11.7,-2.2 -17.5,-2.3 -5.8,14.3 -14,27.1 -23.7,38.7 14,-7.8 29.7,-12.4 42.6,-22.1 0,-0.2 0.1,-0.4 0.3,-0.5 z"
           id="path245"
           inkscape:connector-curvature="0"
           style="fill:none" /><path
           class="noFillSVG"
           d="m 432.8,733.6 c -2.5,0.1 -4.9,0.4 -7.4,1 -7.4,1.8 -14.5,5.3 -21.5,8 -0.7,10.2 0.8,20.4 4.3,30 10.1,-11.7 18.6,-24.6 24.6,-39 z"
           id="path247"
           inkscape:connector-curvature="0"
           style="fill:none" /><path
           class="noFillSVG"
           d="m 582.9,742.6 c -7,-2.8 -14.1,-6.3 -21.5,-8 -1.8,-0.4 -3.6,-0.7 -5.5,-0.8 5.8,13.6 13.9,25.8 23.3,36.9 3.1,-9.1 4.4,-18.6 3.7,-28.1 z"
           id="path249"
           inkscape:connector-curvature="0"
           style="fill:none" /><path
           class="noFillSVG"
           d="m 389.6,736.1 c -3,-6.9 -5.6,-14.4 -9.5,-20.9 -1,-1.6 -2.1,-3.1 -3.3,-4.5 -5.7,13.9 -8.9,28.5 -10.3,43.2 8.8,-4.3 16.7,-10.4 23.1,-17.8 z"
           id="path251"
           inkscape:connector-curvature="0"
           style="fill:none" /><path
           class="noFillSVG"
           d="m 742.5,638.4 c -15.8,-1.3 -31.3,-4.6 -46.2,-10.8 -4.7,4.5 -8.5,9.9 -12.1,15.3 2.6,3.7 4.9,7.5 7.1,11.3 0.1,0 0.1,-0.1 0.2,-0.1 0.4,-0.1 0.9,-0.2 1.3,-0.3 0.2,0 0.4,0 0.5,0 17.2,-2.4 32.4,-11.3 49.2,-15.4 0,0.1 0,0 0,0 z"
           id="path253"
           inkscape:connector-curvature="0"
           style="fill:none" /><path
           class="noFillSVG"
           d="m 637.8,708.9 c 0.1,-0.4 0.2,-0.9 0.3,-1.3 0,0 0,-0.1 0,-0.1 -3.9,-2.1 -7.8,-4.5 -11.5,-7 -4.7,3.1 -9.4,6.4 -13.5,10.3 5.8,13.7 9.3,27.8 10.9,42.3 4.5,-14.6 11.7,-28.4 13.8,-43.6 0,-0.2 0,-0.4 0,-0.6 z"
           id="path255"
           inkscape:connector-curvature="0"
           style="fill:none" /><path
           class="noFillSVG"
           d="m 611.4,712.6 c -1.8,1.9 -3.4,3.9 -4.8,6.2 -3.8,6.2 -6.4,13.5 -9.2,20.2 6.9,8 15.4,14.6 24.9,19.1 -1.5,-15.6 -4.8,-30.8 -10.9,-45.5 z"
           id="path257"
           inkscape:connector-curvature="0"
           style="fill:none" /><path
           class="noFillSVG"
           d="m 364.1,754.8 c 1.3,-15.8 4.7,-31.2 11,-46.1 -4.5,-4.7 -9.9,-8.5 -15.3,-12.1 -3.7,2.6 -7.5,4.9 -11.3,7.1 0,0.1 0.1,0.1 0.1,0.2 0.1,0.4 0.2,0.9 0.3,1.3 0,0.2 0,0.4 0,0.5 2.2,17.3 11.1,32.5 15.2,49.1 z"
           id="path259"
           inkscape:connector-curvature="0"
           style="fill:none" /><path
           class="noFillSVG"
           d="m 263.6,403.7 c 6.9,-3 14.4,-5.6 20.9,-9.5 1.6,-1 3.1,-2.1 4.5,-3.3 -13.9,-5.7 -28.5,-8.9 -43.2,-10.3 4.2,8.8 10.4,16.7 17.8,23.1 z"
           id="path261"
           inkscape:connector-curvature="0"
           style="fill:none" /><path
           class="noFillSVG"
           d="m 266,446.9 c -0.1,-2.5 -0.4,-4.9 -1,-7.4 -1.8,-7.4 -5.3,-14.5 -8,-21.5 -10.2,-0.7 -20.4,0.8 -30,4.3 11.7,10.1 24.6,18.6 39,24.6 z"
           id="path263"
           inkscape:connector-curvature="0"
           style="fill:none" /><path
           class="noFillSVG"
           d="m 496.8,206.7 c 0.1,0.2 0.1,0.4 0,0.6 4.4,3.9 8.5,8 12.2,12.3 7.4,-10.9 15.8,-21.3 27.2,-28.2 -8.8,-6.1 -17.6,-12.4 -24.9,-19.7 -5.9,11.3 -10.8,22.9 -14.5,35 z"
           id="path265"
           inkscape:connector-curvature="0"
           style="fill:none" /><path
           class="noFillSVG"
           d="m 266,567.3 c 0.1,-6.4 -1,-12.9 -2.3,-19.2 -4.5,-0.8 -8.8,-1.8 -13,-3 0,0.1 0,0.2 -0.1,0.2 -0.2,0.4 -0.5,0.8 -0.7,1.1 -0.1,0.2 -0.3,0.3 -0.4,0.4 -9.4,12.5 -14,27.6 -21.4,41.2 11.7,-8.4 24.4,-15.4 37.9,-20.7 z"
           id="path267"
           inkscape:connector-curvature="0"
           style="fill:none" /><path
           class="noFillSVG"
           d="m 257,597.1 c 2.8,-7 6.3,-14.1 8,-21.5 0.4,-1.9 0.7,-3.8 0.8,-5.7 -14.3,5.7 -27.6,13.3 -39.8,22.5 10,3.7 20.5,5.3 31,4.7 z"
           id="path269"
           inkscape:connector-curvature="0"
           style="fill:none" /><path
           class="noFillSVG"
           d="m 289.8,623.5 c -1.8,-1.7 -3.8,-3.2 -5.9,-4.5 -6.4,-4 -13.9,-6.5 -20.9,-9.5 -7.8,6.8 -14.1,15.2 -18.5,24.5 15.6,-1.3 30.8,-4.5 45.3,-10.5 z"
           id="path271"
           inkscape:connector-curvature="0"
           style="fill:none" /><path
           class="noFillSVG"
           d="m 723.6,613.1 c -6.9,3 -14.4,5.6 -20.9,9.5 -1.6,1 -3.1,2.1 -4.5,3.3 13.9,5.7 28.4,8.8 43.1,10.1 -4.3,-8.7 -10.3,-16.5 -17.7,-22.9 z"
           id="path273"
           inkscape:connector-curvature="0"
           style="fill:none" /><path
           class="noFillSVG"
           d="m 293.8,650.3 c 0.4,0.1 0.9,0.2 1.3,0.3 0.1,0 0.1,0.1 0.2,0.1 2.1,-3.8 4.5,-7.6 7.1,-11.3 -3.2,-4.9 -6.7,-9.8 -10.8,-14 -14,5.9 -28.7,9.2 -43.6,10.7 15.3,4.4 29.4,12.1 45.3,14.3 0.1,-0.1 0.3,-0.1 0.5,-0.1 z"
           id="path275"
           inkscape:connector-curvature="0"
           style="fill:none" /><path
           class="noFillSVG"
           d="m 207.5,625.5 c 13.2,1.9 26.2,2.1 39.3,-0.8 10.9,-17.1 28.8,-29.8 48.9,-33.7 -0.6,-1.4 -1.1,-2.9 -1.8,-4.3 0,0 0,0 0,0 -16.7,11.6 -37.9,15.4 -57.5,11.4 -12.1,6.5 -20.5,16.9 -28.9,27.4 z"
           id="path277"
           inkscape:connector-curvature="0"
           style="fill:none" /><path
           class="noFillSVG"
           d="m 722.6,258.7 c 0.2,0.6 -0.2,1.2 -0.6,1.4 -2.2,5.6 -3.8,11.5 -6.2,17.1 -2.3,5.5 -4.9,10.9 -7.6,16.1 10.7,-5.6 21.8,-10.1 33.3,-13.7 0.2,-0.5 0.6,-0.9 1.1,-0.9 0.3,-9.9 2.5,-19.6 7.9,-28.7 -8.5,5.2 -18,7.9 -27.9,8.7 z"
           id="path279"
           inkscape:connector-curvature="0"
           style="fill:none" /><path
           class="noFillSVG"
           d="m 742.6,281.7 c -12.1,3.8 -23.7,8.6 -34.9,14.5 -0.1,0.2 -0.2,0.3 -0.4,0.4 0.4,5.9 0.3,11.6 -0.1,17.3 13,-2.5 26.2,-3.9 39.1,-0.7 -1.9,-10.5 -3.7,-21.1 -3.7,-31.5 z"
           id="path281"
           inkscape:connector-curvature="0"
           style="fill:none" /><path
           class="noFillSVG"
           d="m 687.6,294.3 c 5.6,-0.4 11.4,-0.4 17.3,0 0.1,-0.2 0.3,-0.3 0.4,-0.4 3.4,-6.3 6.4,-12.7 9.1,-19.3 2.1,-5.2 3.5,-10.6 5.6,-15.8 -3.4,0.2 -6.8,0.1 -10.2,-0.1 -7.2,-0.5 -14.3,-1.7 -21.4,-3.1 3,12.8 1.7,25.9 -0.8,38.7 z"
           id="path283"
           inkscape:connector-curvature="0"
           style="fill:none" /><path
           class="noFillSVG"
           d="m 702.6,340.7 c -0.2,0 -0.3,0 -0.4,-0.1 -2,6.4 -4.6,12.7 -7.7,18.8 17.9,2.2 33.5,11.5 50.9,15.6 0,0 0,0 0,0 3.4,-8.3 5.3,-17.2 5.3,-26.5 0,-1 0,-2.1 -0.1,-3.1 -16,-1.7 -31.8,-5.8 -48,-4.7 z"
           id="path285"
           inkscape:connector-curvature="0"
           style="fill:none" /><path
           class="noFillSVG"
           d="m 626.6,256.2 c 4.2,17.4 13.4,33.1 15.6,50.9 6.1,-3.2 12.3,-5.8 18.7,-7.9 0,-0.1 -0.1,-0.2 0,-0.3 1,-16.2 -3,-32 -4.8,-48 -1.4,0 -2.8,-0.1 -4.2,-0.1 -8.8,0.3 -17.4,2.1 -25.3,5.4 0,0 0,0 0,0 z"
           id="path287"
           inkscape:connector-curvature="0"
           style="fill:none" /><path
           class="noFillSVG"
           d="m 782.4,627.5 c -9.2,-10.9 -19.6,-20.6 -32.3,-27.4 -19.4,3.7 -40.2,-0.2 -56.6,-11.6 -0.3,-0.2 -0.5,-0.5 -0.5,-0.8 -1,2.2 -1.8,4.5 -2.6,6.8 20.6,3.8 38.9,16.9 49.8,34.6 14.1,2.8 28.3,0.6 42.2,-1.6 z"
           id="path289"
           inkscape:connector-curvature="0"
           style="fill:none" /><path
           class="noFillSVG"
           d="m 615.5,216.5 c 0.6,-0.5 1.8,-0.4 1.9,0.5 2.2,13.3 4.5,26.3 2.3,39.6 0.8,-0.4 1.6,-0.8 2.4,-1.2 1.2,-17.1 0.1,-34.6 -2.5,-51.8 -13.5,9.9 -26.2,20.9 -37.3,33.2 1.4,3.7 2.5,7.4 3.3,11.2 7.3,-12.8 18.5,-22.3 29.9,-31.5 z"
           id="path291"
           inkscape:connector-curvature="0"
           style="fill:none" /><path
           class="noFillSVG"
           d="m 562,211.2 c -12.6,10.1 -26.6,18.3 -37.3,30.5 -0.1,0.1 -0.2,0.2 -0.3,0.3 3.1,5.9 5.7,12.2 7.8,18.7 14.2,-11 31.7,-15.6 46.9,-24.8 -3.9,-9.2 -9.7,-17.6 -17.1,-24.7 z"
           id="path293"
           inkscape:connector-curvature="0"
           style="fill:none" /><path
           class="noFillSVG"
           d="m 785.1,387.8 c 1,0.2 1,1.3 0.5,1.9 -9.2,11.3 -18.6,22.5 -31.4,29.8 2.1,0.5 4.2,1.1 6.3,1.8 13.3,-11.7 24.9,-25.5 35.5,-39.8 -16.4,-2.4 -33,-3.8 -49.4,-3.1 -1.2,2.6 -2.5,5.2 -4,7.6 14.2,-2.5 28.4,-0.5 42.5,1.8 z"
           id="path295"
           inkscape:connector-curvature="0"
           style="fill:none" /><path
           class="noFillSVG"
           d="m 538.1,193 c -11.7,6.8 -20,17.4 -27.5,28.4 4.8,5.8 9,12 12.6,18.5 10.7,-12.1 24.6,-20.3 37.1,-30.3 0,0 0,0 0,0 -6.7,-6 -14.3,-11.3 -22,-16.7 -0.2,0 -0.2,0 -0.2,0.1 z"
           id="path297"
           inkscape:connector-curvature="0"
           style="fill:none" /><path
           class="noFillSVG"
           d="m 790.7,509.3 c -17.7,-20.3 -39.4,-32.9 -65.8,-38 0.9,1.8 1.7,3.5 2.4,5.4 10.5,0.4 21.3,6 30.2,11.1 9.7,5.5 18.4,12.4 26.2,20.3 0.4,0.4 0.4,0.8 0.2,1.2 0.2,0.4 0.1,0.8 -0.2,1.2 -8.3,8.1 -17.7,15.1 -28,20.7 -9.2,5 -20.2,10.4 -30.8,10.7 -1,2.1 -2.2,4.2 -3.4,6.3 0.1,0 0.1,0 0.2,0 0.3,-0.5 0.9,-0.5 1.4,-0.3 26.9,-5.2 49.3,-18 67.6,-38.6 z"
           id="path299"
           inkscape:connector-curvature="0"
           style="fill:none" /><path
           class="noFillSVG"
           d="m 830.1,495 c -0.3,0.5 -0.9,0.7 -1.5,0.5 -5.3,2.3 -10.4,5.2 -15.7,7.5 -5.7,2.4 -11.6,4.5 -17.5,6.3 11.5,3.6 22.5,8.2 33.2,13.8 0.5,-0.2 1,-0.2 1.4,0.2 7.3,-6.8 15.6,-12.1 25.9,-14.7 -9.6,-2.4 -18.3,-7.2 -25.8,-13.6 z"
           id="path301"
           inkscape:connector-curvature="0"
           style="fill:none" /><path
           class="noFillSVG"
           d="m 737.5,548.2 c -0.2,-0.4 -0.5,-0.8 -0.7,-1.1 0,0 0,-0.1 0,-0.1 -4.3,1.3 -8.6,2.3 -13.1,3.2 -1.1,5.5 -2.1,11.2 -2.2,16.9 14.2,5.8 26.9,14 38.4,23.7 -7.7,-13.9 -12.2,-29.4 -21.9,-42.1 -0.3,-0.2 -0.4,-0.3 -0.5,-0.5 z"
           id="path303"
           inkscape:connector-curvature="0"
           style="fill:none" /><path
           class="noFillSVG"
           d="m 759.9,481.3 c 6.5,3.6 12.7,7.8 18.5,12.6 11,-7.4 21.5,-15.8 28.3,-27.4 -5.2,-7.6 -10.3,-15.3 -16.5,-22.2 0,0 0,0 0,0 -10.1,12.4 -18.3,26.3 -30.3,37 z"
           id="path305"
           inkscape:connector-curvature="0"
           style="fill:none" /><path
           class="noFillSVG"
           d="m 721.3,569.6 c 0.1,2.6 0.4,5.2 1,7.7 1.8,7.4 5.3,14.5 8,21.5 10.2,0.7 20.5,-0.8 30.1,-4.4 -11.6,-10.1 -24.6,-18.7 -39.1,-24.8 z"
           id="path307"
           inkscape:connector-curvature="0"
           style="fill:none" /><path
           class="noFillSVG"
           d="m 723.6,468.7 c 4.5,0.8 8.8,1.8 13,3 0,-0.1 0,-0.2 0.1,-0.2 0.2,-0.4 0.5,-0.8 0.7,-1.1 0.1,-0.2 0.3,-0.3 0.4,-0.4 10.4,-13.8 14.9,-30.7 23.8,-45.4 -0.3,-0.1 -0.6,-0.2 -0.9,-0.4 -11.7,10.2 -24.7,18.7 -39.4,24.7 -0.2,6.7 1,13.4 2.3,19.8 z"
           id="path309"
           inkscape:connector-curvature="0"
           style="fill:none" /><path
           class="noFillSVG"
           d="m 738.9,472.4 c 6.6,2 12.8,4.6 18.8,7.7 0.1,-0.1 0.1,-0.2 0.2,-0.2 12.2,-10.7 20.5,-24.7 30.5,-37.3 -7.1,-7.4 -15.5,-13.2 -24.7,-17 -9.1,15.1 -13.7,32.7 -24.8,46.8 z"
           id="path311"
           inkscape:connector-curvature="0"
           style="fill:none" /><path
           class="noFillSVG"
           d="m 780.1,495.4 c 4.3,3.7 8.3,7.8 12.2,12.2 0.2,-0.1 0.4,-0.1 0.6,0 7.2,-2.2 14.2,-4.7 21.1,-7.6 4.8,-2.1 9.3,-4.7 14.1,-6.8 -2.2,-2 -4.3,-4.2 -6.3,-6.4 -5.1,-5.7 -9.5,-11.9 -13.7,-18.3 -6.9,11.3 -17.2,19.6 -28,26.9 z"
           id="path313"
           inkscape:connector-curvature="0"
           style="fill:none" /><path
           d="m 862.2,507.5 c -41.4,-5.8 -51.5,-50.7 -80,-74.1 -5.8,-4.8 -12.4,-8.4 -19.3,-11.1 13.5,-12.1 25.4,-26.2 36.2,-41 0.3,-0.4 0.3,-0.7 0.1,-1 -0.1,-0.3 -0.3,-0.6 -0.8,-0.7 -16.9,-2.6 -33.9,-4.1 -50.8,-3.4 2,-4.9 3.5,-9.9 4.4,-15.2 6.2,-37.8 -22,-80.1 3.8,-114.5 0.4,-0.5 0.2,-1.1 -0.2,-1.4 -0.3,-0.4 -0.8,-0.6 -1.4,-0.2 -35,26.3 -75.9,-1.9 -114.3,4.9 -5.3,0.9 -10.4,2.5 -15.3,4.6 1.1,-17.4 -0.2,-35 -2.8,-52.5 -0.1,-0.8 -0.8,-1 -1.4,-0.7 -0.3,-0.2 -0.7,-0.3 -1.1,0 -13.6,10 -26.5,21 -37.8,33.3 -2.6,-6.1 -5.9,-11.8 -10.2,-17 -23.2,-28.3 -69.7,-39.1 -75.5,-80 -0.1,-0.7 -0.6,-0.9 -1.1,-0.8 -0.5,-0.1 -1,0.1 -1.1,0.8 -5.8,41.4 -50.7,51.5 -74.1,80 -4.5,5.5 -8,11.6 -10.6,18.1 -11.9,-13.9 -25.9,-26.2 -40.7,-37 -0.4,-0.3 -0.7,-0.3 -1,-0.1 -0.3,0.1 -0.6,0.3 -0.7,0.8 -2.8,18.2 -4.2,37 -3.1,55.6 -4.7,-1.9 -9.6,-3.3 -14.6,-4.2 -37.8,-6.2 -80.1,22 -114.5,-3.8 -0.5,-0.4 -1.1,-0.2 -1.4,0.2 -0.4,0.3 -0.6,0.8 -0.2,1.4 26.3,35 -1.9,75.9 4.9,114.3 0.9,5.2 2.5,10.3 4.5,15.1 -17.4,-1.2 -35.1,0 -52.6,2.7 -0.1,0 -0.1,0 -0.1,0.1 -0.8,0 -1.6,0.8 -1,1.7 10.3,14 21.6,27.4 34.4,39 -6.1,2.6 -12,6 -17.2,10.3 -28.3,23.2 -39.1,69.7 -80,75.5 -0.7,0.1 -0.9,0.6 -0.8,1.1 -0.1,0.5 0.1,1 0.8,1.1 41.4,5.8 51.5,50.7 80,74.1 4.9,4 10.3,7.3 16,9.8 -13.8,11 -26.2,24 -36.8,38.5 -0.3,0.4 -0.3,0.7 -0.1,1 0.1,0.3 0.3,0.6 0.8,0.7 18.2,2.8 37,4.2 55.6,3.1 -1.9,4.7 -3.3,9.6 -4.2,14.6 -6.2,37.8 22,80.1 -3.8,114.5 -0.4,0.5 -0.2,1.1 0.2,1.4 0.3,0.4 0.8,0.6 1.4,0.2 35,-26.3 75.9,1.9 114.3,-4.9 5.2,-0.9 10.3,-2.5 15.1,-4.5 -1.2,17.4 0,35.1 2.7,52.6 0,0.1 0,0.1 0.1,0.1 0,0.8 0.8,1.6 1.7,1 14,-10.3 27.4,-21.6 39,-34.4 2.6,6.1 6,12 10.3,17.2 23.2,28.3 69.7,39.1 75.5,80 0.1,0.7 0.6,0.9 1.1,0.8 0.5,0.1 1,-0.1 1.1,-0.8 5.8,-41.4 50.7,-51.5 74.1,-80 4.7,-5.8 8.4,-12.3 11,-19.1 11.9,13.2 25.6,24.8 40.1,35.4 0.4,0.3 0.7,0.3 1,0.1 0.3,-0.1 0.6,-0.3 0.7,-0.8 2.5,-16.1 3.5,-32.2 2.6,-48 4.5,1.8 9.1,3.3 14,4.1 37.9,6.4 80,-22.1 114.5,3.8 0.5,0.4 1.1,0.2 1.4,-0.2 0.4,-0.3 0.6,-0.8 0.2,-1.4 -26.3,-35 1.9,-75.9 -4.9,-114.3 -0.9,-5.3 -2.5,-10.4 -4.6,-15.3 17.4,1.1 35,-0.2 52.5,-2.8 0.8,-0.1 1,-0.8 0.7,-1.4 0.2,-0.3 0.3,-0.7 0,-1.1 -10,-13.6 -21,-26.5 -33.3,-37.8 6.1,-2.6 11.8,-5.9 17,-10.2 28.3,-23.2 39.1,-69.7 80,-75.5 0.7,-0.1 0.9,-0.6 0.8,-1.1 -0.3,-0.7 -0.5,-1.2 -1.2,-1.3 z m -54,42.8 c -6.9,-11.4 -17.3,-19.7 -28.2,-27.2 4.3,-3.7 8.4,-7.8 12.3,-12.2 0.2,0.1 0.4,0.1 0.6,0 12.1,3.7 23.8,8.5 35,14.4 -7.3,7.4 -13.6,16.2 -19.7,25 z m -18.1,24 c 0,0.1 0,0.1 0,0 -10,-12.5 -18.2,-26.4 -30.3,-37.1 6.5,-3.6 12.7,-7.8 18.5,-12.6 11,7.5 21.6,15.8 28.4,27.5 0,0.1 0.1,0.1 0.1,0.1 -5.4,7.8 -10.7,15.5 -16.7,22.1 z M 744.5,700 c -13,3.4 -26.3,1.8 -39.3,-0.7 -0.7,-7.5 -2.1,-14.9 -4.2,-22 16.1,1 31.7,-3 47.5,-4.8 -0.5,9.3 -2.3,18.4 -4,27.5 z M 703,719 c -27.5,1.7 -52.4,-5.1 -75.1,-20.5 -0.2,-0.5 -0.6,-0.9 -1.2,-0.8 -0.3,-0.2 -0.6,-0.4 -0.9,-0.6 2.4,-0.6 4.8,-1.4 7.2,-2.2 0,0.2 0.1,0.4 0.3,0.6 7.7,7.3 19.1,11.2 29,14.2 11.3,3.4 23.1,5.1 34.9,5.3 0.5,0 0.9,-0.3 1,-0.7 0.4,-0.2 0.7,-0.5 0.7,-1 0.1,-11.6 -1.4,-23.2 -4.6,-34.4 -2.7,-9.5 -6.3,-20.6 -13.3,-27.9 -0.3,-0.3 -0.7,-0.4 -1,-0.3 0.9,-2.1 1.7,-4.2 2.4,-6.3 15.7,22.5 22.4,47.2 20.6,74.6 z m -19,41.6 c 0,0.1 0,0.1 0,0.2 -9.2,1.7 -18.4,3.3 -27.4,3.8 1.8,-15.9 5.8,-31.5 4.8,-47.7 7.1,2.1 14.4,3.4 22,4.1 2.4,13.2 4,26.5 0.6,39.6 z m -71.1,-4.7 c 2.9,12.9 2.5,25.6 0.6,38.5 -11,-9 -21.7,-18.3 -28.6,-30.9 -0.2,-0.4 -0.6,-0.6 -0.9,-0.6 3.8,-19.2 0.1,-39.8 -10.9,-56.3 1.6,-0.7 3.1,-1.4 4.7,-2 4.1,20.4 17.2,39.6 35,51.1 0.1,0.2 0,0.2 0.1,0.2 z m -119.5,47 c -20.5,-17.8 -33.2,-39.9 -38.1,-66.6 1.8,1 3.7,1.9 5.5,2.7 0,0.1 0,0.1 0,0.2 0.4,10.6 5.9,21.4 11.1,30.5 5.5,9.7 12.4,18.4 20.3,26.2 0.4,0.4 0.8,0.4 1.2,0.2 0.4,0.2 0.8,0.1 1.2,-0.2 7.9,-7.8 14.8,-16.5 20.3,-26.2 5.1,-9 10.7,-19.9 11.1,-30.5 0,0 0,0 0,0 1.8,-0.8 3.7,-1.7 5.4,-2.6 -4.9,26.6 -17.5,48.5 -38,66.3 z m -119.1,-8.4 c -2.2,-13.7 -4,-27.6 -1.1,-41.3 0,-0.1 0,-0.1 0,-0.2 17.5,-10.7 30.6,-28.6 34.7,-48.8 2,0.7 3.9,1.5 5.9,2.4 -11.2,16.6 -14.8,37.6 -10.9,56.9 0,0 0,0 0,0 -6.8,12.7 -17.6,22 -28.6,31 z M 302.6,757 c -3.4,-13 -1.8,-26.3 0.7,-39.3 7.5,-0.7 14.9,-2.1 22,-4.2 -1,16.1 3,31.7 4.8,47.5 -9.3,-0.5 -18.4,-2.3 -27.5,-4 z m -19,-41.6 c -1.9,-27.2 4.8,-51.8 20.3,-74.3 0.6,2 1.2,4 2,6 -0.1,0.1 -0.2,0.1 -0.3,0.2 -6.9,7.3 -10.5,18.4 -13.3,27.9 -3.2,11.2 -4.7,22.7 -4.6,34.4 0,0.5 0.3,0.9 0.7,1 0.2,0.4 0.5,0.7 1,0.7 11.6,0.1 23.2,-1.4 34.4,-4.6 9.4,-2.7 20.3,-6.3 27.7,-13 1.8,0.7 3.7,1.4 5.6,2 -22.3,15.1 -46.6,21.6 -73.5,19.7 z m -41.8,-19 c -1.7,-9.2 -3.3,-18.4 -3.8,-27.4 15.9,1.8 31.5,5.8 47.6,4.8 -2.1,7.1 -3.5,14.5 -4.2,22 -13,2.5 -26.4,4 -39.4,0.6 0,0 -0.1,0 -0.2,0 z M 197.3,572.6 c -6.2,-6.9 -11.3,-14.6 -16.5,-22.2 6.8,-11.6 17.3,-19.9 28.3,-27.4 5.8,4.9 12,9 18.5,12.6 -12.1,10.7 -20.3,24.5 -30.3,37 0,0 0,0 0,0 z m -0.6,-65.1 c 17.9,-20.5 39.9,-33.2 66.7,-38.2 -1,1.8 -1.8,3.7 -2.7,5.6 -0.1,0 -0.3,-0.1 -0.4,-0.1 -10.6,0.4 -21.4,5.9 -30.5,11.1 -9.7,5.5 -18.4,12.4 -26.2,20.3 -0.4,0.4 -0.4,0.8 -0.2,1.2 -0.2,0.4 -0.1,0.8 0.2,1.2 7.8,7.9 16.5,14.8 26.2,20.3 9,5.1 19.9,10.7 30.5,11.1 0.5,0 0.8,-0.2 1,-0.6 1,2.1 2,4.2 3.1,6.3 -27.2,-4.6 -49.6,-17.4 -67.7,-38.2 z m -38,13.8 c -0.5,-0.2 -1.1,0 -1.5,0.5 -7.5,-6.4 -16.2,-11.2 -25.8,-13.6 10.3,-2.6 18.6,-7.9 25.9,-14.7 0.3,0.3 0.9,0.4 1.4,0.2 10.7,5.6 21.7,10.2 33.2,13.8 -5.9,1.9 -11.8,3.9 -17.5,6.3 -5.3,2.3 -10.4,5.3 -15.7,7.5 z m 20.5,-54.7 c 6.9,11.3 17.2,19.7 28.1,27.1 -4.3,3.7 -8.3,7.8 -12.2,12.2 -0.2,-0.1 -0.4,-0.1 -0.6,0 -12.1,-3.7 -23.8,-8.5 -35,-14.4 7.3,-7.3 13.5,-16.1 19.7,-24.9 z m 18.1,-24.1 c 0,0 0,0 0,0 10,12.5 18.2,26.3 30.3,37 -6.5,3.6 -12.7,7.8 -18.5,12.6 -11,-7.4 -21.5,-15.8 -28.3,-27.4 0,-0.1 -0.1,-0.1 -0.1,-0.1 5.3,-7.8 10.6,-15.4 16.6,-22.1 z m 41.2,-25.9 c -13,-7 -22,-18.9 -31,-30.3 13,-2 25.6,-2.8 38.6,0 10.7,18.1 29,31.6 49.7,35.8 -0.8,2 -1.6,4 -2.5,5.9 -16,-10.8 -36,-14.6 -54.8,-11.4 0,0 0,0 0,0 z m 4.2,-99.9 c 13,-3.4 26.3,-1.8 39.3,0.7 0.7,7.5 2.1,14.9 4.2,22 -16.1,-1 -31.7,3 -47.5,4.8 0.5,-9.3 2.2,-18.4 4,-27.5 z m 41.5,-18.9 c 26.9,-1.9 51.2,4.6 73.4,19.7 -1.9,0.6 -3.8,1.3 -5.6,2 -7.3,-6.8 -18.2,-10.3 -27.6,-13 -11.2,-3.2 -22.7,-4.7 -34.4,-4.6 -0.5,0 -0.9,0.3 -1,0.7 -0.4,0.2 -0.7,0.5 -0.7,1 -0.1,11.6 1.4,23.2 4.6,34.4 2.7,9.5 6.3,20.6 13.2,27.9 -0.7,1.9 -1.4,3.8 -1.9,5.7 -15.3,-22.4 -21.9,-46.8 -20,-73.8 z m 19,-41.6 c 0,-0.1 0,-0.1 0,-0.2 9.2,-1.7 18.4,-3.3 27.4,-3.8 -1.8,15.9 -5.8,31.5 -4.8,47.6 -7.1,-2.1 -14.5,-3.5 -22,-4.2 -2.5,-13.1 -4,-26.4 -0.6,-39.4 z m 72,4.7 c -2.9,-13.8 -1.1,-27.6 1.1,-41.4 10.8,8.8 21.3,17.9 28.1,30.2 -3.6,19.2 0.3,39.8 11.5,56.1 -2.4,1.2 -4.9,2.2 -7.4,3.2 -4,-19.7 -16.5,-37.2 -33.3,-48 0,0 0,-0.1 0,-0.1 z m 120,-51.9 c 20.6,18.2 33.4,40.6 38.6,67.6 -0.3,0.5 -0.2,1.1 0.3,1.4 0,0.1 0,0.2 0.1,0.3 -2.1,-1.2 -4.1,-2.3 -6.3,-3.3 -0.3,-10.7 -5.7,-21.8 -10.7,-31 -5.5,-10.3 -12.5,-19.6 -20.7,-28 -0.4,-0.4 -0.8,-0.4 -1.2,-0.2 -0.4,-0.2 -0.8,-0.1 -1.2,0.2 -7.9,7.8 -14.8,16.5 -20.3,26.2 -5.1,9 -10.7,19.9 -11.1,30.5 0,0.4 0.1,0.6 0.3,0.8 -2,0.8 -4,1.8 -5.9,2.8 4.7,-27.1 17.4,-49.3 38.1,-67.3 z m 120.3,10.5 c 2.1,12.9 4.3,25.5 1.6,38.5 -18.9,10.8 -33,29.8 -36.9,51.4 0,0 0,0.1 0,0.1 -10.9,-3.8 -21,-10 -29.4,-18.4 0,0 0.1,-0.1 0.1,-0.1 1.1,-3.5 2.3,-7 3.7,-10.3 2.3,0 4.5,-0.2 6.8,-0.6 8,-1.4 15.6,-5.2 23.2,-8.2 -1.2,11.6 -5.1,22.9 -12.2,33.1 -0.9,1.2 1.2,2.4 2,1.2 11.1,-16 15,-36.1 11.8,-55.1 0.3,-0.1 0.5,-0.2 0.7,-0.6 6.8,-12.7 17.6,-22 28.6,-31 z m 8.9,37.6 c 4.1,16.8 13,32 15.4,49.2 0,0.2 -0.1,0.3 0,0.5 0.1,0.4 0.2,0.9 0.3,1.3 0,0.1 0.1,0.1 0.1,0.2 -3.8,2.1 -7.6,4.5 -11.3,7.1 -5.4,-3.6 -10.8,-7.4 -15.3,-12.1 6.2,-14.9 9.5,-30.4 10.8,-46.2 -0.1,0 0,0 0,0 z m 61.5,-1.9 c 3.4,13 1.8,26.3 -0.7,39.3 -7.5,0.7 -14.9,2.1 -22,4.2 1,-16.1 -3,-31.7 -4.8,-47.5 9.3,0.4 18.4,2.2 27.5,4 z m 19,41.5 c 1.7,27.5 -5.1,52.4 -20.5,75.1 -0.5,0.2 -0.9,0.6 -0.8,1.2 0,0 0,0 0,0 -0.6,-2.3 -1.3,-4.5 -2.2,-6.7 7.2,-7.7 11.1,-19 14.1,-28.9 3.4,-11.3 5.1,-23.1 5.3,-34.9 0,-0.5 -0.3,-0.9 -0.7,-1 -0.2,-0.4 -0.5,-0.7 -1,-0.7 -11.6,-0.1 -23.2,1.4 -34.4,4.6 -9.5,2.7 -20.6,6.3 -27.9,13.3 -0.4,0.4 -0.4,0.9 -0.2,1.3 -2.2,-0.9 -4.5,-1.7 -6.8,-2.5 22.7,-15.9 47.6,-22.7 75.1,-20.8 z m 41.8,19 c 1.7,9.2 3.3,18.4 3.8,27.4 -15.9,-1.8 -31.5,-5.8 -47.7,-4.8 2.1,-7.1 3.4,-14.4 4.1,-22 13.1,-2.5 26.5,-4.1 39.5,-0.7 0.2,0.1 0.2,0.1 0.3,0.1 z m -5.4,73 c 13.8,-2.9 27.6,-1.1 41.3,1.1 -9,11 -18.3,21.8 -31,28.6 -0.2,0.1 -0.4,0.3 -0.4,0.5 -19.2,-3.9 -39.9,-0.4 -56.5,10.6 -1.4,-2.7 -2.6,-5.6 -3.6,-8.4 0.3,0.3 0.6,0.4 1.1,0.3 19.9,-3.6 37.7,-15.9 48.8,-32.6 0,-0.1 0.2,-0.1 0.3,-0.1 z M 707.8,562 c -15.2,15.2 -23.6,35.4 -23.6,57 0,0.7 0,1.3 -0.1,2 0,0 0,0 0,0 -1.1,42.2 -35.7,76.2 -78.2,76.2 -21.2,0 -41.2,8.2 -56.4,23 -0.2,0.1 -0.4,0.3 -0.5,0.5 0,0 -0.1,0.1 -0.1,0.1 -30.2,30.2 -79.1,30.5 -109.7,0.9 -0.1,-0.3 -0.4,-0.6 -0.7,-0.7 -0.1,-0.1 -0.2,-0.2 -0.2,-0.2 -8.7,-8.7 -19,-15.2 -30.3,-19.1 -0.3,-0.4 -0.8,-0.5 -1.3,-0.4 -7.7,-2.6 -15.9,-3.9 -24.2,-4.1 -0.4,-0.7 -1.5,-1 -2,-0.1 0,0 0,0 0,0 -7,-0.1 -13.7,-1.1 -20.1,-2.9 -0.1,-0.1 -0.3,-0.2 -0.5,-0.2 0,0 0,0 0,0 -0.1,0 -0.2,0 -0.2,0 -32.6,-9.5 -56.5,-39.5 -56.5,-75.1 0,-21.5 -8.4,-41.7 -23.6,-57 -29.8,-29.8 -30.5,-77.9 -2,-108.6 0.7,0 1.1,-0.6 1.1,-1.1 0.3,-0.3 0.6,-0.6 0.9,-0.9 15.2,-15.2 23.6,-35.4 23.6,-57 0,-35.9 24.3,-66.1 57.2,-75.3 0,0 0,0 0.1,0 0,0 0,0 0,0 0.1,0 0.2,-0.1 0.3,-0.1 5.9,-1.6 12.1,-2.5 18.5,-2.7 0,0.1 0.1,0.1 0.1,0.2 0.5,1 1.8,0.6 2.1,-0.3 8.9,0 17.6,-1.5 25.8,-4.3 0.4,0.1 0.9,-0.1 1.2,-0.4 11.1,-4 21.2,-10.4 29.8,-18.9 15.3,-15.3 35.3,-22.9 55.3,-22.9 20,0 40.1,7.6 55.3,22.9 15.2,15.2 35.4,23.6 57,23.6 43.1,0 78.2,35.1 78.2,78.2 0,13 3.1,25.5 8.9,36.8 0,0.4 0.2,0.8 0.5,1 3.7,7 8.5,13.4 14.2,19.2 5.6,5.6 10.2,11.9 13.7,18.5 0,0 0,0 0,0 0,0.2 0.1,0.4 0.2,0.6 0,0 0,0 0,0 0.1,0.1 0.1,0.1 0.2,0.2 15.4,29.5 10.7,66.7 -14,91.4 z m 20.4,-82.9 c 10.4,0.8 21,6.4 29.8,11.6 8.7,5.1 16.5,11.4 23.6,18.5 -7.6,7.4 -16.1,13.8 -25.3,19 -8.9,5 -19.8,10.5 -30.2,11.2 4.5,-10.2 7,-21.3 7,-32.8 -0.1,-9.5 -1.7,-18.8 -4.9,-27.5 z m -7.7,71.7 c 0.2,0 0.4,-0.1 0.6,-0.1 -1,5.1 -1.9,10.3 -2.1,15.5 -2.9,-1.2 -5.9,-2.2 -9,-3.2 3.7,-3.8 7,-7.9 9.9,-12.3 0.2,0.1 0.4,0.1 0.6,0.1 z m -0.9,24.7 c 1.4,8 5.2,15.6 8.2,23.2 -11.6,-1.2 -22.9,-5.1 -33.1,-12.2 -0.4,-0.3 -0.8,-0.2 -1.1,0 3.6,-7.9 8.6,-15.2 14.7,-21.6 0.1,0.1 0.2,0.1 0.3,0.2 3.5,1.1 7,2.3 10.3,3.7 0.1,2.1 0.3,4.4 0.7,6.7 z M 686.4,623 c 2.5,1.3 5,2.5 7.6,3.6 -3.8,3.8 -7,8.1 -10,12.6 1.3,-5.2 2.1,-10.6 2.4,-16.2 z m 0.1,-2.6 c 0,-0.5 0,-1 0,-1.4 0,-7.7 1.1,-15.2 3.2,-22.3 11.9,2.2 22.8,7.4 31.9,14.8 -7.4,3.2 -15.6,5.9 -22.2,10.6 -1.3,0.9 -2.4,1.9 -3.6,2.9 -3.1,-1.5 -6.2,-2.9 -9.3,-4.6 z m -7.1,32.2 c 7.1,7.5 10.6,19.2 13.2,28.9 2.7,10.2 4,20.6 3.9,31.1 -10.7,-0.2 -21.3,-1.7 -31.7,-4.6 -10.1,-2.9 -21.9,-6.7 -29.7,-14 19.5,-7.6 35.4,-22.7 44.1,-41.7 0.1,0.1 0.1,0.2 0.2,0.3 z M 624,698.7 c 0.2,0.1 0.4,0.2 0.6,0.4 -4.3,2.9 -8.6,5.9 -12.4,9.5 -1.4,-3 -2.8,-6.1 -4.4,-9 5.4,-0.1 10.7,-0.8 15.7,-1.9 0,0.3 0.1,0.7 0.5,1 z m -43.9,5.2 c 8.1,-2.8 16.6,-4.3 25.4,-4.4 -0.1,0.3 -0.1,0.5 0.1,0.8 1.7,3.2 3.3,6.5 4.7,9.9 -1.6,1.6 -3.1,3.4 -4.4,5.3 -4.5,6.4 -7.2,14.2 -10.3,21.5 -7.7,-9.6 -13.2,-20.9 -15.5,-33.1 z m -86.7,90 c -7.1,-7.1 -13.4,-14.9 -18.5,-23.6 -5.3,-8.9 -11,-19.6 -11.7,-30.2 9.5,3.9 19.8,5.9 30.5,5.9 10.4,0 20.6,-2 30,-5.8 -0.7,10.4 -6.4,21.1 -11.7,30 -5.2,8.7 -11.4,16.6 -18.6,23.7 z m -56.7,-71.4 c 0,0 0.1,0.1 0.1,0.1 -0.9,3 -2,5.9 -3.1,8.7 -2.2,0 -4.3,0.2 -6.5,0.6 -8,1.4 -15.6,5.2 -23.2,8.2 1.1,-11.3 5,-22.5 11.8,-32.5 7.7,3.7 14.7,8.7 20.9,14.9 z m 2,1.8 c 3.4,3.2 7,6 10.8,8.5 -4.4,-0.8 -8.8,-1.4 -13.2,-1.6 0.8,-2.2 1.6,-4.5 2.4,-6.9 z m -47.4,9.8 c -3.2,-7.4 -5.9,-15.6 -10.6,-22.2 -0.9,-1.3 -1.9,-2.5 -2.9,-3.6 1.3,-2.9 2.6,-5.9 4.2,-8.8 8.2,0.1 16.2,1.4 23.8,3.9 -2.3,11.4 -7.4,21.9 -14.5,30.7 z M 376,706.5 c -3.1,-3.1 -6.6,-5.9 -10.2,-8.4 4.4,0.9 8.9,1.4 13.5,1.5 -1.1,2.2 -2.2,4.5 -3.3,6.9 z m -27,-13.8 c -7.5,6.5 -18.6,9.9 -27.9,12.4 -10.2,2.7 -20.6,4 -31.1,3.9 0,-10.5 1.2,-20.9 3.9,-31.1 2.6,-9.5 6,-21 12.9,-28.5 7.9,19.4 23.2,34.9 42.2,43.3 z m -48.2,-74.3 c -2.9,1.5 -5.8,2.9 -8.7,4.2 -1.5,-1.5 -3.2,-2.9 -5,-4.1 -6.6,-4.7 -14.7,-7.4 -22.2,-10.6 9,-7.3 19.7,-12.5 31.5,-14.7 2.8,8 4.3,16.5 4.4,25.2 z m 0.1,2.5 c 0.1,4.9 0.7,9.7 1.6,14.4 -2.6,-3.9 -5.4,-7.6 -8.6,-11 2.3,-1 4.6,-2.2 7,-3.4 z m -32.6,-52 c 3.4,-1.3 6.9,-2.5 10.4,-3.6 0.2,-0.1 0.4,-0.2 0.5,-0.3 5.6,5.9 10.2,12.4 13.6,19.5 -0.1,0 -0.1,0 -0.2,0.1 -10.1,7 -21.5,11 -33.1,12.2 3,-7.5 6.8,-15.2 8.2,-23.2 0.4,-1.5 0.5,-3.1 0.6,-4.7 z m 0.1,-2.5 c 0,-5.8 -0.9,-11.7 -2.1,-17.4 3.2,5.1 6.9,9.9 11.3,14.3 -3.1,1 -6.2,2 -9.2,3.1 z m -7.8,-28.5 c -0.1,0 -0.1,0 -0.2,0 -10.7,-0.4 -21.9,-6.4 -31,-11.8 -8.7,-5.1 -16.5,-11.4 -23.6,-18.5 7.1,-7.1 14.9,-13.4 23.6,-18.5 9,-5.3 19.9,-11.2 30.5,-11.7 -3.6,9.2 -5.5,19.2 -5.5,29.4 -0.1,10.8 2.1,21.3 6.2,31.1 z m 7.2,-96.5 c -1.4,-8 -5.2,-15.6 -8.2,-23.2 11.4,1.2 22.6,5 32.6,11.9 -3.7,7.1 -8.5,13.8 -14.3,19.6 -0.4,0.4 -0.7,0.7 -1.1,1.1 -2.9,-0.9 -5.7,-1.9 -8.5,-3 0,-2.1 -0.1,-4.3 -0.5,-6.4 z m 7.3,11.3 c -3.1,3.4 -5.9,7.1 -8.3,10.9 0.8,-4.4 1.5,-8.9 1.6,-13.3 2.2,0.9 4.4,1.7 6.7,2.4 z m 25.7,-58.9 c -2.5,-1.3 -5.1,-2.5 -7.6,-3.6 3.4,-3.4 6.4,-7.3 9.1,-11.3 -0.9,4.8 -1.4,9.8 -1.5,14.9 z m 0,2.6 c -0.2,8.1 -1.6,16.1 -4.2,23.6 -11.5,-2.3 -22.1,-7.4 -31,-14.6 7.4,-3.2 15.6,-5.9 22.2,-10.6 1.3,-0.9 2.5,-1.9 3.6,-2.9 3.1,1.4 6.3,2.8 9.4,4.5 z m 6.3,-33.1 c -6.6,-7.5 -10,-18.7 -12.5,-28.1 -2.7,-10.2 -4,-20.6 -3.9,-31.1 10.5,0 20.9,1.2 31.1,3.9 9.3,2.5 20.4,5.9 27.8,12.3 -19.2,8.4 -34.5,23.8 -42.5,43 z m 99.2,-53.5 c -7.9,2.7 -16.3,4.1 -25,4.1 -0.2,0 -0.4,0 -0.6,0 -1.3,-2.5 -2.5,-5.1 -3.6,-7.6 1.5,-1.5 2.9,-3.2 4.1,-5 4.7,-6.6 7.4,-14.7 10.6,-22.2 7.1,8.8 12.2,19.2 14.5,30.7 z m -28.1,4.1 c -4.1,0.2 -8.1,0.6 -12,1.4 3.2,-2.3 6.3,-4.7 9.2,-7.3 0.8,2 1.8,4 2.8,5.9 z m 60.9,-25.2 c -0.9,-2.7 -1.8,-5.4 -2.8,-8 5.3,0 10.6,-0.8 15.8,-1.8 -4.7,2.8 -9,6.1 -13,9.8 z m -1.9,1.8 c -0.2,0.2 -0.3,0.3 -0.5,0.5 -5.6,5.6 -11.9,10.2 -18.7,13.9 -7,-10.1 -10.9,-21.4 -12.1,-32.9 7.5,3 15.2,6.8 23.2,8.2 1.5,0.3 3.1,0.4 4.6,0.5 1.3,3.1 2.5,6.4 3.5,9.8 z m 58,-72.5 c 7.4,7.6 13.8,16.1 19,25.3 5,9 10.6,19.9 11.3,30.5 -9.9,-4.2 -20.7,-6.5 -31.8,-6.5 -10,0 -19.7,1.8 -28.8,5.3 0,0 0,0 0,0 0.4,-10.7 6.4,-21.9 11.8,-31 5.1,-8.6 11.4,-16.5 18.5,-23.6 z m 41.3,60.5 c 5.1,1 10.3,1.9 15.5,2.1 -1.1,2.9 -2.2,5.8 -3.1,8.8 -3.8,-3.6 -8,-6.8 -12.4,-9.6 0.1,-0.2 0.1,-0.4 0,-0.6 0.1,-0.2 0.1,-0.4 0,-0.7 z m 60.8,-0.5 c 3.2,7.4 5.9,15.6 10.6,22.2 0.9,1.3 1.9,2.4 2.9,3.6 -1.4,3.4 -3,6.7 -4.8,10 0,0 0,0 0,0.1 0,0 0,0 0,0 -8.1,0 -16,-1.2 -23.5,-3.6 0,-0.1 0.1,-0.1 0.1,-0.2 2.1,-12 7.3,-22.9 14.7,-32.1 z m 15.2,27.7 c 4.1,4.1 8.8,7.5 13.6,10.8 -5.6,-1.5 -11.5,-2.3 -17.6,-2.5 1.5,-2.8 2.8,-5.6 4,-8.3 z m 25.5,14.8 c 0.2,-0.1 0.3,-0.1 0.5,-0.3 7.5,-7.1 19.2,-10.6 28.9,-13.2 10.2,-2.7 20.6,-4 31.1,-3.9 -0.2,10.7 -1.7,21.3 -4.6,31.7 -2.8,9.8 -6.5,21.3 -13.4,29.1 -8,-19.4 -23.3,-35 -42.5,-43.4 z m 46.6,55.2 c 0.1,-0.2 0.2,-0.4 0.4,-0.6 2.9,4.3 6,8.6 9.5,12.5 -2.7,1.2 -5.4,2.4 -8,3.8 -0.2,-5.3 -0.9,-10.5 -2.1,-15.5 0,-0.1 0.1,-0.1 0.2,-0.2 z m 16.8,18 c 6.6,4.7 14.7,7.4 22.2,10.6 -9.1,7.4 -20,12.6 -32,14.8 -0.5,0.1 -0.8,0.4 -0.8,0.8 -2.8,-8.1 -4.2,-16.7 -4.2,-25.5 0,-0.2 0,-0.3 0,-0.5 3.2,-1.7 6.4,-3.2 9.7,-4.6 1.5,1.6 3.2,3.1 5.1,4.4 z m 10.5,58.7 c 2.4,-0.8 4.8,-1.6 7.1,-2.5 -0.1,4.4 0.5,8.8 1.2,13.2 -2.4,-3.8 -5.2,-7.4 -8.3,-10.7 z m -1.7,-1.9 c -0.2,-0.3 -0.5,-0.5 -0.7,-0.8 -5.5,-5.5 -10,-11.6 -13.6,-18.3 9.9,-6.6 20.8,-10.3 32,-11.5 -3,7.5 -6.8,15.2 -8.2,23.2 -0.2,1.4 -0.4,2.8 -0.5,4.2 -3,1.2 -6,2.3 -9,3.2 z m 12.1,-9.2 c 1.8,-7.4 5.3,-14.5 8,-21.5 9.4,-0.6 18.9,0.6 27.8,3.6 -11,9.4 -23.1,17.3 -36.6,23 0.2,-1.7 0.4,-3.4 0.8,-5.1 z m 3.2,-38.7 c -6.9,-3 -14.4,-5.6 -20.9,-9.5 -2.2,-1.4 -4.2,-3 -6.1,-4.7 14.6,-5.8 29.8,-8.8 45.2,-9.7 -4.3,9.1 -10.5,17.3 -18.2,23.9 z m -28.8,-16 c -4,-4.1 -7.3,-8.8 -10.4,-13.6 2.6,-3.8 4.9,-7.6 7,-11.5 0,0 0.1,0 0.1,0 0.4,0.1 0.9,0.2 1.3,0.3 0.2,0 0.4,0 0.5,0 16.3,2.3 30.8,10.3 46.5,14.7 -15.3,1.1 -30.4,4.2 -45,10.1 z m -84.9,-85.2 c -1.2,-1.4 -2.3,-2.9 -3.3,-4.5 -4,-6.4 -6.5,-13.9 -9.5,-20.9 6.4,-7.4 14.2,-13.4 22.9,-17.8 -1.3,14.8 -4.4,29.3 -10.1,43.2 z m -27.1,-32.1 c -7,2.8 -14.1,6.3 -21.5,8 -2.5,0.6 -5.1,0.9 -7.7,1 6.1,-14.5 14.7,-27.4 24.8,-39.2 3.6,9.7 5.1,20 4.4,30.2 z m -31.7,9 c -5.7,-0.1 -11.4,-1.1 -16.9,-2.2 -0.9,-4.5 -1.9,-8.9 -3.2,-13.1 0,0 0.1,0 0.1,0 0.4,-0.2 0.8,-0.5 1.1,-0.7 0.2,-0.1 0.3,-0.3 0.4,-0.4 12.8,-9.6 28.2,-14.2 42.1,-21.9 -9.7,11.4 -17.8,24.2 -23.6,38.3 z m -97.1,-16.5 c 0.1,0.1 0.2,0.3 0.4,0.4 0.4,0.2 0.8,0.5 1.1,0.7 0.1,0 0.1,0.1 0.2,0.1 -1.2,4.2 -2.2,8.6 -3,13 -6.3,1.3 -12.9,2.4 -19.3,2.3 -6,-14.7 -14.4,-28 -24.4,-40.1 14.6,8.7 31.4,13.3 45,23.6 z m -23.2,16.3 c -1.9,-0.2 -3.7,-0.4 -5.5,-0.8 -7.4,-1.8 -14.5,-5.3 -21.5,-8 -0.4,-6.4 0,-12.8 1.3,-19 0,0 0,-0.1 0,-0.1 0.7,-3.3 1.6,-6.6 2.7,-9.8 9.3,11.4 17.3,24 23,37.7 z m -42.5,-1 c -3,6.9 -5.6,14.4 -9.5,20.9 -1.3,2.1 -2.8,4.1 -4.5,5.9 -6,-14.5 -9.2,-29.7 -10.5,-45.3 9.3,4.4 17.7,10.7 24.5,18.5 z m -15.8,28.6 c -4.2,4.1 -9.2,7.6 -14,10.8 -3.7,-2.6 -7.5,-4.9 -11.3,-7.1 0,-0.1 0.1,-0.1 0.1,-0.2 0.1,-0.4 0.2,-0.9 0.3,-1.3 0,-0.2 0,-0.4 0,-0.5 2.2,-15.8 9.9,-30 14.3,-45.3 1.3,14.9 4.7,29.6 10.6,43.6 z m -80.6,57.2 c 0.2,0 0.3,0.1 0.5,0 0.4,-0.1 0.9,-0.2 1.3,-0.3 0.1,0 0.1,-0.1 0.2,-0.1 2.1,3.8 4.5,7.6 7.1,11.3 -3.6,5.4 -7.4,10.8 -12.1,15.3 -14.8,-6.2 -30.3,-9.6 -46.1,-11 16.8,-4 32,-12.9 49.1,-15.2 z m -4.8,27.9 c -1.4,1.2 -2.9,2.3 -4.5,3.3 -6.4,4 -13.9,6.5 -20.9,9.5 -7.4,-6.4 -13.5,-14.3 -17.9,-23.1 14.8,1.4 29.3,4.6 43.3,10.3 z M 257,418 c 2.8,7 6.3,14.1 8,21.5 0.6,2.4 0.9,4.9 1,7.4 -14.4,-6 -27.3,-14.5 -39,-24.6 9.6,-3.5 19.9,-4.9 30,-4.3 z m 9.1,31.4 c -0.1,5.9 -1.1,11.8 -2.3,17.5 -4.5,0.8 -8.8,1.8 -13,3 0,-0.1 0,-0.2 -0.1,-0.2 -0.2,-0.4 -0.5,-0.8 -0.7,-1.1 -0.1,-0.2 -0.3,-0.3 -0.4,-0.4 -9.7,-12.9 -14.3,-28.6 -22.1,-42.6 11.5,9.8 24.3,18 38.6,23.8 z m -16.6,97.4 c 0.1,-0.1 0.3,-0.2 0.4,-0.4 0.2,-0.4 0.5,-0.8 0.7,-1.1 0,-0.1 0.1,-0.1 0.1,-0.2 4.2,1.2 8.6,2.2 13,3 1.3,6.3 2.4,12.8 2.3,19.2 -13.6,5.3 -26.2,12.3 -37.9,20.7 7.4,-13.6 12,-28.7 21.4,-41.2 z m 16.4,23.1 c -0.2,1.9 -0.4,3.8 -0.8,5.7 -1.8,7.4 -5.3,14.5 -8,21.5 -10.5,0.7 -21,-0.9 -30.9,-4.7 12.1,-9.2 25.4,-16.9 39.7,-22.5 z m 27.9,16.8 c 0,0 0,0 0,0 0.6,1.4 1.2,2.8 1.8,4.3 -20.1,3.9 -38,16.6 -48.9,33.7 -13.1,2.9 -26.1,2.7 -39.3,0.8 8.5,-10.5 16.8,-20.8 28.9,-27.4 19.7,3.9 40.9,0.1 57.5,-11.4 z M 263,609.5 c 6.9,3 14.4,5.6 20.9,9.5 2.1,1.3 4.1,2.8 5.9,4.5 -14.5,6 -29.7,9.2 -45.3,10.5 4.4,-9.4 10.7,-17.7 18.5,-24.5 z m 28.6,15.8 c 4.1,4.2 7.6,9.2 10.8,14 -2.6,3.7 -4.9,7.5 -7.1,11.3 -0.1,0 -0.1,-0.1 -0.2,-0.1 -0.4,-0.1 -0.9,-0.2 -1.3,-0.3 -0.2,0 -0.4,0 -0.5,0 -15.8,-2.2 -30,-9.9 -45.3,-14.3 14.9,-1.4 29.6,-4.7 43.6,-10.6 z m 57.2,80 c -0.1,-0.4 -0.2,-0.9 -0.3,-1.3 0,-0.1 -0.1,-0.1 -0.1,-0.2 3.8,-2.1 7.6,-4.5 11.3,-7.1 5.4,3.6 10.8,7.4 15.3,12.1 -6.2,14.8 -9.6,30.3 -11,46.1 -4.1,-16.7 -12.9,-31.9 -15.3,-49 0.1,-0.2 0.1,-0.4 0.1,-0.6 z m 27.9,5.4 c 1.2,1.4 2.3,2.9 3.3,4.5 4,6.4 6.5,13.9 9.5,20.9 -6.4,7.4 -14.3,13.5 -23.1,17.9 1.4,-14.9 4.6,-29.4 10.3,-43.3 z m 27.2,31.9 c 7,-2.8 14.1,-6.3 21.5,-8 2.4,-0.6 4.9,-0.9 7.4,-1 -6,14.4 -14.5,27.3 -24.6,39 -3.5,-9.6 -4.9,-19.8 -4.3,-30 z m 31.4,-9 c 5.9,0.1 11.8,1.1 17.5,2.3 0.8,4.5 1.8,8.8 3,13 -0.1,0 -0.2,0 -0.2,0.1 -0.4,0.2 -0.8,0.5 -1.1,0.7 -0.2,0.1 -0.3,0.3 -0.4,0.4 -12.9,9.7 -28.6,14.3 -42.6,22.1 9.8,-11.6 18,-24.4 23.8,-38.6 z m 114.3,-10.2 c 0.9,2.7 1.8,5.3 2.8,7.9 -4.8,0 -9.6,0.6 -14.4,1.5 4.2,-2.8 8,-5.9 11.6,-9.4 z m 1.9,-1.8 c 5.9,-5.7 12.4,-10.3 19.6,-13.9 6.7,9.9 10.5,21 11.7,32.3 -7.5,-3 -15.2,-6.8 -23.2,-8.2 -1.5,-0.3 -3.1,-0.4 -4.6,-0.5 -1.3,-3.1 -2.5,-6.3 -3.5,-9.7 z m 9.9,13 c 7.4,1.8 14.5,5.3 21.5,8 0.6,9.5 -0.6,19 -3.6,28 -9.5,-11.1 -17.5,-23.3 -23.3,-36.9 1.8,0.2 3.6,0.5 5.4,0.9 z m 35.9,4.4 c 2.9,-6.7 5.4,-14 9.2,-20.2 1.4,-2.3 3,-4.3 4.8,-6.2 6.1,14.7 9.5,30 10.8,45.5 -9.4,-4.5 -17.9,-11.1 -24.8,-19.1 z m 15.8,-28.2 c 4.1,-3.9 8.8,-7.2 13.5,-10.3 3.8,2.6 7.6,4.9 11.5,7 0,0 0,0.1 0,0.1 -0.1,0.4 -0.2,0.9 -0.3,1.3 0,0.2 0,0.4 0,0.5 -2.1,15.3 -9.4,29 -13.8,43.6 -1.6,-14.4 -5.1,-28.5 -10.9,-42.2 z m 80.3,-56.9 c -0.2,0 -0.3,-0.1 -0.5,0 -0.4,0.1 -0.9,0.2 -1.3,0.3 -0.1,0 -0.1,0.1 -0.2,0.1 -2.1,-3.8 -4.5,-7.6 -7.1,-11.3 3.6,-5.4 7.4,-10.8 12.1,-15.3 14.9,6.2 30.4,9.5 46.2,10.8 0,0 0,0.1 0.1,0.1 -16.9,4 -32.1,12.9 -49.3,15.3 z m 4.8,-28 c 1.4,-1.2 2.9,-2.3 4.5,-3.3 6.4,-4 13.9,-6.5 20.9,-9.5 7.4,6.4 13.4,14.2 17.8,22.9 -14.8,-1.3 -29.3,-4.4 -43.2,-10.1 z m -7.8,-31.5 c 0.8,-2.3 1.6,-4.6 2.6,-6.8 0,0.3 0.2,0.6 0.5,0.8 16.4,11.4 37.2,15.3 56.6,11.6 12.6,6.8 23.1,16.5 32.3,27.4 -13.9,2.3 -28.1,4.4 -42.1,1.5 -11,-17.6 -29.2,-30.7 -49.9,-34.5 z m 40,4.4 c -2.8,-7 -6.3,-14.1 -8,-21.5 -0.6,-2.5 -0.9,-5.1 -1,-7.7 14.5,6.1 27.4,14.7 39.2,24.8 -9.7,3.6 -20,5.1 -30.2,4.4 z m -9.1,-31.7 c 0.1,-5.7 1.1,-11.4 2.2,-16.9 4.5,-0.9 8.9,-1.9 13.1,-3.2 0,0 0,0.1 0,0.1 0.2,0.4 0.5,0.8 0.7,1.1 0.1,0.2 0.3,0.3 0.4,0.4 9.6,12.8 14.2,28.2 21.9,42.1 -11.4,-9.6 -24.1,-17.8 -38.3,-23.6 z m 1.8,-19.2 c -0.5,-0.3 -1.1,-0.2 -1.4,0.3 -0.1,0 -0.1,0 -0.2,0 1.2,-2 2.4,-4.1 3.4,-6.3 10.6,-0.3 21.6,-5.7 30.8,-10.7 10.3,-5.5 19.6,-12.5 28,-20.7 0.4,-0.4 0.4,-0.8 0.2,-1.2 0.2,-0.4 0.1,-0.8 -0.2,-1.2 -7.8,-7.9 -16.5,-14.8 -26.2,-20.3 -9,-5.1 -19.8,-10.6 -30.2,-11.1 -0.7,-1.8 -1.5,-3.6 -2.4,-5.4 26.4,5 48.1,17.7 65.8,38 -18.3,20.6 -40.7,33.4 -67.6,38.6 z m 67,-103.6 c 6.2,6.9 11.3,14.6 16.5,22.2 -6.8,11.6 -17.3,19.9 -28.3,27.4 -5.8,-4.9 -12,-9 -18.5,-12.6 12.1,-10.7 20.3,-24.6 30.3,-37 0,0 0,0 0,0 z m 38.6,78.9 C 818,517.6 807,513 795.5,509.4 c 5.9,-1.9 11.8,-3.9 17.5,-6.3 5.4,-2.2 10.4,-5.2 15.7,-7.5 0.5,0.2 1.1,0 1.5,-0.5 7.5,6.4 16.2,11.2 25.8,13.6 -10.3,2.6 -18.6,7.9 -25.9,14.7 -0.4,-0.4 -1,-0.5 -1.4,-0.2 z m -0.6,-29.9 c -4.8,2 -9.3,4.7 -14.1,6.8 -6.9,3 -13.9,5.5 -21.1,7.6 -0.2,-0.1 -0.4,-0.1 -0.6,0 -3.9,-4.4 -7.9,-8.5 -12.2,-12.2 10.8,-7.3 21,-15.6 27.9,-26.8 4.3,6.3 8.7,12.5 13.7,18.3 2.1,2.1 4.2,4.2 6.4,6.3 z m -39.6,-50.8 c -10.1,12.6 -18.3,26.6 -30.5,37.3 -0.1,0.1 -0.1,0.2 -0.2,0.2 -6,-3.1 -12.2,-5.7 -18.8,-7.7 11,-14.2 15.6,-31.7 24.9,-46.9 9,4 17.5,9.7 24.6,17.1 z m -26.9,-17.9 c -8.9,14.7 -13.4,31.6 -23.8,45.4 -0.1,0.1 -0.3,0.2 -0.4,0.4 -0.2,0.4 -0.5,0.8 -0.7,1.1 0,0.1 -0.1,0.1 -0.1,0.2 -4.2,-1.2 -8.6,-2.2 -13,-3 -1.3,-6.5 -2.5,-13.2 -2.3,-19.8 14.6,-6 27.6,-14.5 39.4,-24.7 0.3,0.2 0.6,0.3 0.9,0.4 z m 34.4,-43 c -10.6,14.3 -22.3,28.1 -35.5,39.8 -2.1,-0.7 -4.1,-1.3 -6.3,-1.8 12.7,-7.3 22.2,-18.5 31.4,-29.8 0.5,-0.6 0.4,-1.8 -0.5,-1.9 -14.1,-2.3 -28.3,-4.3 -42.5,-1.7 1.5,-2.5 2.8,-5 4,-7.6 16.4,-0.9 33,0.5 49.4,3 z M 745.4,375 c 0,0 0,0 0,0 -17.4,-4.2 -33.1,-13.4 -50.9,-15.6 3.1,-6.1 5.7,-12.4 7.7,-18.8 0.1,0 0.3,0.1 0.4,0.1 16.2,-1 32,3 48,4.8 0,1 0.1,2.1 0.1,3.1 -0.1,9.2 -1.9,18.1 -5.3,26.4 z m 0.9,-61.7 c -12.9,-3.2 -26.2,-1.8 -39.1,0.7 0.4,-5.6 0.4,-11.4 0.1,-17.3 0.2,-0.1 0.3,-0.2 0.4,-0.4 11.2,-6 22.8,-10.8 34.9,-14.5 0,10.3 1.8,20.9 3.7,31.5 z m -3.7,-34.5 c -0.5,0 -0.9,0.4 -1.1,0.9 -11.5,3.6 -22.6,8.2 -33.3,13.7 2.8,-5.3 5.3,-10.6 7.6,-16.1 2.3,-5.6 3.9,-11.5 6.2,-17.1 0.5,-0.3 0.8,-0.8 0.6,-1.4 9.8,-0.8 19.4,-3.5 27.9,-8.6 -5.4,9 -7.6,18.6 -7.9,28.6 z m -22.6,-20 c -2.1,5.1 -3.5,10.6 -5.6,15.8 -2.7,6.6 -5.7,13 -9.1,19.3 -0.2,0.1 -0.3,0.2 -0.4,0.4 -5.9,-0.4 -11.6,-0.4 -17.3,0 2.4,-12.8 3.8,-25.9 0.7,-38.7 7.1,1.3 14.2,2.6 21.4,3.1 3.5,0.3 6.9,0.3 10.3,0.1 z m -68.1,-7.9 c 1.4,0 2.8,0 4.2,0.1 1.8,16 5.9,31.8 4.8,48 0,0.1 0,0.2 0,0.3 -6.4,2 -12.7,4.6 -18.7,7.9 -2.2,-17.9 -11.5,-33.6 -15.6,-50.9 0,0 0,0 0,-0.1 7.9,-3.3 16.5,-5.1 25.3,-5.3 z m -32.3,-47.2 c 2.6,17.2 3.7,34.6 2.5,51.8 -0.8,0.4 -1.6,0.8 -2.4,1.2 2.3,-13.3 -0.1,-26.3 -2.3,-39.6 -0.2,-1 -1.3,-1 -1.9,-0.5 -11.3,9.2 -22.6,18.7 -29.9,31.6 -0.8,-3.8 -1.9,-7.6 -3.3,-11.2 11.1,-12.5 23.8,-23.4 37.3,-33.3 z M 579,235.8 c -15.2,9.3 -32.7,13.8 -46.9,24.8 -2.1,-6.5 -4.7,-12.8 -7.8,-18.7 0.1,-0.1 0.2,-0.1 0.3,-0.3 10.7,-12.2 24.7,-20.5 37.3,-30.5 7.5,7.2 13.3,15.6 17.1,24.7 z m -18.7,-26.2 c -12.5,10 -26.4,18.2 -37.1,30.3 -3.6,-6.5 -7.8,-12.7 -12.6,-18.5 7.5,-11 15.8,-21.6 27.5,-28.4 0.1,0 0.1,-0.1 0.1,-0.1 7.7,5.3 15.4,10.7 22.1,16.7 -0.1,-0.1 0,-0.1 0,0 z m -24.1,-18.2 c -11.4,6.9 -19.7,17.3 -27.2,28.2 -3.7,-4.3 -7.8,-8.4 -12.2,-12.3 0.1,-0.2 0.1,-0.4 0,-0.6 3.7,-12.1 8.5,-23.8 14.4,-35 7.4,7.4 16.2,13.6 25,19.7 z m -27,-21.8 c -0.3,0.3 -0.4,0.9 -0.2,1.4 -5.6,10.7 -10.2,21.7 -13.8,33.2 -1.9,-5.9 -3.9,-11.8 -6.3,-17.5 -2.2,-5.4 -5.2,-10.4 -7.5,-15.7 0.2,-0.5 0,-1.1 -0.5,-1.5 6.4,-7.5 11.2,-16.2 13.6,-25.8 2.6,10.3 7.9,18.7 14.7,25.9 z m -30.1,1.9 c 2,4.8 4.7,9.3 6.8,14.1 3,6.9 5.5,13.9 7.6,21.1 -0.1,0.2 -0.1,0.4 0,0.6 -4.4,3.9 -8.5,7.9 -12.2,12.2 -7.3,-10.8 -15.6,-21 -26.8,-27.9 6.3,-4.3 12.5,-8.7 18.3,-13.7 2.2,-2.1 4.3,-4.2 6.3,-6.4 z M 452.4,193 c 11.6,6.8 19.9,17.3 27.4,28.3 -4.9,5.8 -9,12 -12.6,18.5 -10.7,-12.1 -24.5,-20.3 -37,-30.2 0,0 0,0 0,0 6.9,-6.3 14.6,-11.4 22.2,-16.6 z m -24,18.2 c 12.6,10.1 26.6,18.3 37.3,30.5 0.1,0.1 0.2,0.1 0.2,0.2 -3.1,6 -5.7,12.2 -7.7,18.8 -14.2,-11 -31.7,-15.6 -46.9,-24.9 3.9,-9.1 9.7,-17.5 17.1,-24.6 z m -60.2,-9.6 c 14.3,10.7 27.9,22.7 39.5,36.3 -1,2.8 -1.8,5.6 -2.5,8.5 -7.3,-12 -18,-21.1 -28.9,-29.9 -0.6,-0.5 -1.8,-0.4 -1.9,0.5 -2.3,14.1 -4.3,28.3 -1.7,42.5 -2.3,-1.4 -4.7,-2.6 -7.2,-3.7 -1.3,-18.1 0.1,-36.4 2.7,-54.2 z m -5.7,55.7 c 0,0 0,0 0,0 -4.2,17.4 -13.4,33.1 -15.7,51 -6.1,-3.2 -12.3,-5.8 -18.7,-7.9 0,-0.1 0.1,-0.2 0,-0.3 -1,-16.2 3,-32 4.8,-48 1,0 2.1,-0.1 3.1,-0.1 9.3,0 18.3,1.9 26.5,5.3 z m -61.7,-0.9 c -3.2,12.9 -1.8,26.1 0.7,39 -5.6,-0.4 -11.4,-0.4 -17.3,0 -0.1,-0.2 -0.2,-0.3 -0.4,-0.4 -6,-11.2 -10.8,-22.8 -14.5,-34.9 10.3,0 20.9,-1.8 31.5,-3.7 z m -63.2,-4.3 c 9.1,5.5 18.8,7.6 28.7,7.9 0,0.5 0.4,0.9 0.9,1.1 3.6,11.5 8.2,22.6 13.7,33.3 -5.3,-2.8 -10.6,-5.3 -16.1,-7.6 -5.6,-2.3 -11.5,-3.9 -17.1,-6.2 -0.3,-0.5 -0.8,-0.8 -1.4,-0.6 -0.9,-9.8 -3.6,-19.4 -8.7,-27.9 z m 8.6,40.8 c 0.2,-3.4 0.3,-6.8 0.1,-10.2 5.1,2.1 10.6,3.5 15.8,5.6 6.6,2.7 13,5.7 19.3,9.1 0.1,0.2 0.2,0.3 0.4,0.4 -0.4,5.9 -0.4,11.6 0,17.3 -12.8,-2.4 -25.9,-3.8 -38.7,-0.7 1.4,-7.2 2.6,-14.3 3.1,-21.5 z m -7.7,53.6 c 16,-1.8 31.8,-5.9 48,-4.8 0.1,0 0.2,0 0.3,0 2,6.4 4.6,12.7 7.9,18.7 -17.9,2.2 -33.6,11.5 -50.9,15.6 0,0 0,0 -0.1,0 -3.3,-7.9 -5.1,-16.5 -5.2,-25.4 -0.1,-1.3 0,-2.7 0,-4.1 z m -47.4,36.2 c 17.2,-2.5 34.6,-3.6 51.7,-2.3 0.5,1.1 1.1,2.3 1.7,3.4 -13.2,-2.5 -26.3,-1.5 -39.5,0.6 -1,0.2 -1,1.3 -0.5,1.9 9.2,11.3 18.1,23.4 30.7,31 -3.5,0.8 -7,1.8 -10.4,3.1 -12.5,-11.2 -23.6,-24.1 -33.7,-37.7 z m 32.5,41 c 9.3,15.2 13.8,32.8 24.9,46.9 -6.6,2 -12.8,4.6 -18.8,7.7 -0.1,-0.1 -0.1,-0.2 -0.2,-0.2 -12.2,-10.7 -20.5,-24.7 -30.5,-37.3 7,-7.5 15.4,-13.2 24.6,-17.1 z m -64.3,99.9 c 4.8,-2 9.3,-4.7 14.1,-6.8 6.9,-3 13.9,-5.5 21.1,-7.6 0.2,0.1 0.4,0.1 0.6,0 3.9,4.4 7.9,8.5 12.2,12.2 -10.8,7.3 -21,15.6 -27.9,26.8 -4.3,-6.3 -8.7,-12.5 -13.7,-18.3 -2.1,-2.1 -4.2,-4.3 -6.4,-6.3 z m 39.6,50.7 c 10.1,-12.6 18.3,-26.6 30.5,-37.3 0.1,-0.1 0.1,-0.2 0.2,-0.2 6,3.1 12.2,5.7 18.8,7.7 -11,14.2 -15.6,31.7 -24.9,46.9 -9.1,-3.9 -17.5,-9.6 -24.6,-17.1 z m -11.4,57.2 c 10.5,-13.9 22.6,-26.5 36.1,-37.2 3.1,1.2 6.2,2.2 9.4,3 -11.7,7.1 -20.1,17.6 -28.6,28.2 -0.5,0.6 -0.4,1.8 0.5,1.9 13.5,2.1 26.8,2.5 40.2,-0.1 -1.3,2.2 -2.5,4.5 -3.5,6.9 -18,1.2 -36.3,-0.1 -54.1,-2.7 z m 55.7,5.6 c 0,0 0,0 0,0 17.4,4.2 33.1,13.4 51,15.7 -3.2,6.1 -5.8,12.3 -7.9,18.7 -0.1,0 -0.2,-0.1 -0.3,0 -16.2,1 -32,-3 -48,-4.8 0,-1 -0.1,-2.1 -0.1,-3.1 0,-9.3 1.9,-18.2 5.3,-26.5 z m -0.9,61.8 c 12.9,3.2 26.1,1.8 39,-0.7 -0.4,5.6 -0.4,11.4 0,17.3 -0.2,0.1 -0.3,0.2 -0.4,0.4 -11.2,6 -22.8,10.8 -34.9,14.5 0,-10.4 -1.8,-21 -3.7,-31.5 z m 3.6,34.4 c 0.5,0 0.9,-0.4 1.1,-0.9 11.5,-3.6 22.6,-8.2 33.3,-13.7 -2.8,5.3 -5.3,10.6 -7.6,16.1 -2.3,5.6 -3.9,11.5 -6.2,17.1 -0.5,0.3 -0.8,0.8 -0.6,1.4 -9.8,0.8 -19.4,3.5 -27.9,8.6 5.4,-9 7.6,-18.6 7.9,-28.6 z m 22.6,20 c 2.1,-5.1 3.5,-10.6 5.6,-15.8 2.7,-6.6 5.7,-13 9.1,-19.3 0.2,-0.1 0.3,-0.2 0.4,-0.4 5.9,0.4 11.6,0.4 17.3,0 -2.4,12.8 -3.8,25.9 -0.7,38.7 -7.1,-1.3 -14.2,-2.6 -21.4,-3.1 -3.5,-0.2 -6.9,-0.3 -10.3,-0.1 z m 68.1,7.9 c -1.4,0 -2.8,0 -4.2,-0.1 -1.8,-16 -5.9,-31.8 -4.8,-48 0,-0.1 0,-0.2 0,-0.3 6.4,-2 12.7,-4.6 18.7,-7.9 2.2,17.9 11.5,33.6 15.6,50.9 0,0 0,0 0,0.1 -7.9,3.3 -16.4,5.2 -25.3,5.3 z m 32,47.3 c -2.5,-17.2 -3.6,-34.6 -2.3,-51.7 1.5,-0.7 3,-1.5 4.4,-2.3 -2.6,14.2 -0.6,28.4 1.7,42.5 0.2,1 1.3,1 1.9,0.5 11.1,-9 22.1,-18.3 29.4,-30.7 0.7,2.7 1.5,5.4 2.5,8.1 -11.1,12.4 -24,23.5 -37.6,33.6 z m 41,-32.4 c 15.2,-9.3 32.8,-13.8 46.9,-24.9 2,6.6 4.6,12.8 7.7,18.8 -0.1,0.1 -0.2,0.1 -0.2,0.2 -10.7,12.2 -24.7,20.5 -37.3,30.5 -7.5,-7.1 -13.2,-15.5 -17.1,-24.6 z m 18.8,26.2 c 12.5,-10 26.3,-18.2 37,-30.2 3.6,6.5 7.8,12.7 12.6,18.5 -7.4,11 -15.8,21.5 -27.4,28.3 -0.1,0 -0.1,0.1 -0.1,0.1 -7.8,-5.3 -15.4,-10.7 -22.1,-16.7 0,0.1 0,0.1 0,0 z m 24.1,18.2 c 11.3,-6.9 19.7,-17.2 27.1,-28.1 3.7,4.3 7.8,8.3 12.2,12.2 -0.1,0.2 -0.1,0.4 0,0.6 -3.7,12.1 -8.5,23.8 -14.4,35 -7.4,-7.4 -16.1,-13.6 -24.9,-19.7 z m 26.9,21.8 c 0.3,-0.3 0.4,-0.9 0.2,-1.4 5.6,-10.7 10.2,-21.7 13.8,-33.2 1.9,5.9 3.9,11.8 6.3,17.5 2.2,5.4 5.2,10.4 7.5,15.7 -0.2,0.5 0,1.1 0.5,1.5 -6.4,7.5 -11.2,16.2 -13.6,25.8 -2.6,-10.3 -7.9,-18.7 -14.7,-25.9 z m 30.1,-1.9 c -2,-4.8 -4.7,-9.3 -6.8,-14.1 -3,-6.9 -5.5,-13.9 -7.6,-21.1 0.1,-0.2 0.1,-0.4 0,-0.6 4.4,-3.9 8.5,-7.9 12.2,-12.2 7.3,10.8 15.6,21 26.8,27.9 -6.3,4.3 -12.5,8.7 -18.3,13.7 -2.2,2.1 -4.3,4.2 -6.3,6.4 z m 26.7,-21.5 c -11.6,-6.8 -19.9,-17.3 -27.4,-28.3 4.9,-5.8 9,-12 12.6,-18.5 10.7,12.1 24.5,20.3 37,30.2 0,0 0,0 0,0 -6.8,6.2 -14.5,11.4 -22.2,16.6 z m 24,-18.2 c -12.6,-10.1 -26.6,-18.3 -37.3,-30.5 -0.1,-0.1 -0.2,-0.1 -0.2,-0.2 3.1,-6 5.7,-12.2 7.7,-18.8 14.2,11 31.7,15.6 46.9,24.9 -3.9,9.1 -9.6,17.5 -17.1,24.6 z m 17.9,-26.8 c -14.7,-8.9 -31.6,-13.4 -45.4,-23.8 -0.1,-0.1 -0.2,-0.3 -0.4,-0.4 -0.4,-0.2 -0.8,-0.5 -1.1,-0.7 -0.1,0 -0.1,-0.1 -0.2,-0.1 1.2,-4.2 2.2,-8.6 3,-13 6.3,-1.3 12.9,-2.4 19.4,-2.3 6.1,14.6 14.8,27.7 25,39.5 -0.1,0.3 -0.2,0.5 -0.3,0.8 z m 42.1,33.8 c -14,-10.4 -27.4,-21.8 -38.9,-34.8 0.8,-2.4 1.5,-4.9 2.1,-7.4 7.3,13 18.6,22.6 30.1,31.9 0.6,0.5 1.8,0.4 1.9,-0.5 2.1,-13.3 2.6,-26.3 0,-39.6 2.2,1.3 4.5,2.6 6.9,3.6 1.1,15.5 0.2,31.2 -2.1,46.8 z m 4.5,-48.5 c 4.2,-17.3 13.4,-32.9 15.6,-50.6 6.1,3.1 12.4,5.7 18.8,7.7 0,0.1 -0.1,0.3 -0.1,0.4 1,16.2 -3,32 -4.8,48 -1,0 -2.1,0.1 -3.1,0.1 -9.2,0 -18.2,-2 -26.4,-5.6 z m 61.7,1.2 c 3.2,-12.9 1.8,-26.2 -0.7,-39.1 5.6,0.4 11.4,0.4 17.3,0.1 0.1,0.2 0.2,0.3 0.4,0.4 6,11.2 10.8,22.8 14.5,34.9 -10.3,0 -20.9,1.8 -31.5,3.7 z m 63.2,4.3 c -9.1,-5.5 -18.8,-7.6 -28.7,-7.9 0,-0.5 -0.4,-0.9 -0.9,-1.1 -3.6,-11.5 -8.2,-22.6 -13.7,-33.3 5.3,2.8 10.6,5.3 16.1,7.6 5.6,2.3 11.5,3.9 17.1,6.2 0.3,0.5 0.8,0.8 1.4,0.6 0.9,9.8 3.6,19.3 8.7,27.9 z m -8.7,-40.8 c -0.2,3.4 -0.3,6.8 -0.1,10.2 -5.1,-2.1 -10.6,-3.5 -15.8,-5.6 -6.6,-2.7 -13,-5.7 -19.3,-9.1 -0.1,-0.2 -0.2,-0.3 -0.4,-0.4 0.4,-5.9 0.4,-11.6 0,-17.3 12.8,2.4 25.9,3.8 38.7,0.7 -1.3,7.2 -2.6,14.3 -3.1,21.5 z m 7.7,-53.7 c -16,1.8 -31.8,5.9 -48,4.8 -0.1,0 -0.2,0 -0.3,0 -2,-6.4 -4.6,-12.7 -7.9,-18.7 17.9,-2.2 33.6,-11.5 50.9,-15.6 0,0 0,0 0.1,0 3.3,7.9 5.1,16.5 5.2,25.4 0.1,1.3 0.1,2.7 0,4.1 z M 796,633.7 c -17.2,2.6 -34.6,3.7 -51.8,2.5 -0.7,-1.5 -1.5,-3.1 -2.4,-4.6 14.3,2.4 28.8,0.1 43.1,-2.3 1,-0.2 1,-1.3 0.5,-1.9 -9.1,-11.1 -19.5,-21 -32,-28.2 3.2,-0.7 6.3,-1.7 9.3,-2.8 12.4,11.1 23.3,23.8 33.3,37.3 z M 763.8,593.1 C 754.5,577.9 750,560.4 739,546.2 c 6.5,-2.1 12.8,-4.7 18.7,-7.8 0.1,0.1 0.1,0.2 0.3,0.3 12.2,10.7 20.5,24.7 30.5,37.3 -7.1,7.5 -15.6,13.3 -24.7,17.1 z"
           id="path315"
           inkscape:connector-curvature="0" /></g></g></switch></svg>