<?xml version="1.0" encoding="UTF-8" standalone="no"?>
<svg
   xmlns:dc="http://purl.org/dc/elements/1.1/"
   xmlns:cc="http://creativecommons.org/ns#"
   xmlns:rdf="http://www.w3.org/1999/02/22-rdf-syntax-ns#"
   xmlns:svg="http://www.w3.org/2000/svg"
   xmlns="http://www.w3.org/2000/svg"
   xmlns:sodipodi="http://sodipodi.sourceforge.net/DTD/sodipodi-0.dtd"
   xmlns:inkscape="http://www.inkscape.org/namespaces/inkscape"
   version="1.1"
   id="Layer_1"
   x="0px"
   y="0px"
   viewBox="0 0 1000 1000"
   width="100%"
   height="100%"
   style="enable-background:new 0 0 1000 1000;"
   xml:space="preserve"
   ><style
     type="text/css"
     id="style3">
	.noFillSVG{fill:none;}
</style><switch
     id="switch5"
     transform="translate(14.35,-12.1)"><g
       id="g7"><g
         id="g9"><path
           class="noFillSVG"
           d="m 726.9,287.5 c 3.3,-8.9 7.1,-17.5 11.8,-25.7 -26.8,26.8 -53.6,53.6 -80.4,80.4 18.8,-10.3 39.5,-16.4 60.7,-18.1 -2.1,-12.4 3.6,-25.1 7.9,-36.6 z"
           id="path11"
           inkscape:connector-curvature="0"
           style="fill:none" /><path
           class="noFillSVG"
           d="m 485.8,285.5 c 0,-0.5 0,-1 0,-1.4 -0.1,0 -0.3,0 -0.4,-0.1 0,0.5 0,1 0,1.5 0.2,0 0.3,0 0.4,0 z"
           id="path13"
           inkscape:connector-curvature="0"
           style="fill:none" /><path
           class="noFillSVG"
           d="m 617.3,327.3 c -8.3,-24.1 -16.5,-48.2 -24.8,-72.2 -24,11.9 -48.4,22.8 -73.2,32.8 36.1,5.2 69.5,19.1 98,39.4 z"
           id="path15"
           inkscape:connector-curvature="0"
           style="fill:none" /><path
           class="noFillSVG"
           d="m 709.6,550.1 c -6,35.4 -20.3,68.1 -40.8,95.9 24.3,-10.3 49,-19.7 74,-28.1 -11.1,-22.6 -22.1,-45.2 -33.2,-67.8 z"
           id="path17"
           inkscape:connector-curvature="0"
           style="fill:none" /><path
           class="noFillSVG"
           d="m 646,351.4 c 0.1,0.1 0.2,0.1 0.2,0.2 0.1,-0.1 0.3,-0.3 0.4,-0.4 -0.1,-0.1 -0.1,-0.3 -0.1,-0.4 -0.2,0.2 -0.3,0.4 -0.5,0.6 z"
           id="path19"
           inkscape:connector-curvature="0"
           style="fill:none" /><path
           class="noFillSVG"
           d="m 670.2,379.9 c 20.1,27.9 34,60.5 39.7,95.8 9.8,-24.1 20.4,-47.9 32,-71.2 -23.8,-8.2 -47.7,-16.4 -71.7,-24.6 z"
           id="path21"
           inkscape:connector-curvature="0"
           style="fill:none" /><path
           class="noFillSVG"
           d="m 498.2,184.3 c -4.4,-9.3 -8.2,-18.8 -10.9,-28.7 0,38.6 0,77.1 0,115.7 5.9,-21.1 16.5,-40.7 30.6,-57.2 -10,-6.8 -14.8,-19.1 -19.7,-29.8 z"
           id="path23"
           inkscape:connector-curvature="0"
           style="fill:none" /><path
           class="noFillSVG"
           d="m 254.7,512 c 0.2,0 0.4,0 0.7,0 0.3,0 0.5,0.1 0.7,0.2 1.3,-0.1 2.5,-0.1 3.9,-0.1 0,-0.1 0,-0.1 0,-0.2 0,-0.1 0,-0.1 0,-0.2 -1.7,0.1 -3.4,0 -5,-0.2 -0.2,0.2 -0.2,0.3 -0.3,0.5 0,0 0,0 0,0 z"
           id="path25"
           inkscape:connector-curvature="0"
           style="fill:none" /><path
           class="noFillSVG"
           d="m 250.7,324.1 c 20.4,1.4 40.4,6.9 58.7,16.3 -26.2,-26.2 -52.4,-52.4 -78.5,-78.5 4.7,8.2 8.5,16.8 11.8,25.7 4.3,11.4 10,24 8,36.5 z"
           id="path27"
           inkscape:connector-curvature="0"
           style="fill:none" /><path
           class="noFillSVG"
           d="m 484.6,273.7 c 0,-39.5 0,-79 0,-118.6 -5.2,22.9 -14.1,44.8 -26.4,64.9 12.2,15.9 21.3,34.1 26.4,53.7 z"
           id="path29"
           inkscape:connector-curvature="0"
           style="fill:none" /><path
           class="noFillSVG"
           d="m 322.2,349.1 c 1.3,1 2.5,2.1 3.6,3.3 0.1,-0.1 0.2,-0.2 0.3,-0.3 -1.2,-1.2 -2.3,-2.4 -3.3,-3.6 -0.1,0.1 -0.3,0.1 -0.5,0.1 0,0.2 0,0.3 -0.1,0.5 z"
           id="path31"
           inkscape:connector-curvature="0"
           style="fill:none" /><path
           class="noFillSVG"
           d="m 451.2,288.2 c -25.1,-10.1 -49.8,-21.1 -74.1,-33.2 -8.6,25.1 -17.2,50.2 -25.8,75.3 28.8,-21.5 62.9,-36.3 99.9,-42.1 z"
           id="path33"
           inkscape:connector-curvature="0"
           style="fill:none" /><path
           class="noFillSVG"
           d="m 651.1,677.4 c 0.4,0.6 0.8,1.3 1.2,1.9 28.4,28.4 56.8,56.8 85.1,85.1 -12.5,-20 -21.7,-41.8 -27.3,-64.8 -0.1,-0.4 0,-0.7 0.1,-1 -20.7,-2.7 -41,-9.9 -59.1,-21.2 z"
           id="path35"
           inkscape:connector-curvature="0"
           style="fill:none" /><path
           class="noFillSVG"
           d="m 234.5,766.1 c 8.2,-4.7 16.8,-8.5 25.7,-11.8 11.8,-4.4 24.8,-10.4 37.6,-7.8 1.5,-21.6 7.7,-42.7 18.2,-61.9 -27.2,27.1 -54.4,54.3 -81.5,81.5 z"
           id="path37"
           inkscape:connector-curvature="0"
           style="fill:none" /><path
           class="noFillSVG"
           d="m 226.1,619.4 c 0,0 0,0 0,0 26.1,8.9 52,17.8 78,26.7 -21.5,-29.1 -36.2,-63.6 -41.7,-100.9 -12.1,24.7 -24.2,49.4 -36.3,74.2 0,-0.1 0,-0.1 0,0 z"
           id="path39"
           inkscape:connector-curvature="0"
           style="fill:none" /><path
           class="noFillSVG"
           d="m 251.5,512 c 0,0 0.1,0 0.1,0 -21.3,-4.9 -41.1,-14.5 -58.1,-27.7 0,0.4 -0.1,0.9 -0.6,1.2 -20.2,12.4 -42.1,21.3 -65.1,26.5 41.2,0 82.4,0 123.7,0 z"
           id="path41"
           inkscape:connector-curvature="0"
           style="fill:none" /><path
           class="noFillSVG"
           d="m 128.2,514.7 c 9.9,2.7 19.4,6.5 28.7,10.9 10.6,4.9 22.8,9.7 29.6,19.7 15.9,-13.8 34.5,-24.3 54.8,-30.5 -37.6,-0.1 -75.3,-0.1 -113.1,-0.1 z"
           id="path43"
           inkscape:connector-curvature="0"
           style="fill:none" /><path
           class="noFillSVG"
           d="m 297.3,286.8 c -23,-5.5 -44.8,-14.7 -64.8,-27.3 28.6,28.6 57.1,57.1 85.7,85.7 0.7,0.4 1.3,0.8 1.9,1.2 -11.5,-18.4 -18.7,-39 -21.5,-60.2 -0.2,0.5 -0.7,0.8 -1.3,0.6 z"
           id="path45"
           inkscape:connector-curvature="0"
           style="fill:none" /><path
           class="noFillSVG"
           d="m 841.4,514.7 c -37.2,0 -74.3,0 -111.5,0 19.8,6.1 38.2,16.3 53.8,29.7 6.9,-9.4 18.7,-14 29,-18.8 9.3,-4.4 18.8,-8.2 28.7,-10.9 z"
           id="path47"
           inkscape:connector-curvature="0"
           style="fill:none" /><path
           class="noFillSVG"
           d="m 709.5,754.3 c 8.9,3.3 17.5,7.1 25.7,11.8 -26,-26 -52,-52 -77.9,-77.9 9.3,18.1 14.8,37.9 16.3,58.1 12.1,-1.8 24.6,3.8 35.9,8 z"
           id="path49"
           inkscape:connector-curvature="0"
           style="fill:none" /><path
           class="noFillSVG"
           d="m 232.2,764.5 c 28.6,-28.6 57.2,-57.2 85.7,-85.7 -18,10.8 -38,17.6 -58.5,20.2 0.1,0.2 0.1,0.5 0.1,0.8 -5.6,22.9 -14.8,44.7 -27.3,64.7 z"
           id="path51"
           inkscape:connector-curvature="0"
           style="fill:none" /><path
           class="noFillSVG"
           d="m 351.1,693.4 c 8.7,25.3 17.4,50.6 26,75.9 24.5,-12.2 49.5,-23.3 74.9,-33.5 -37.4,-5.7 -71.8,-20.6 -100.9,-42.4 z"
           id="path53"
           inkscape:connector-curvature="0"
           style="fill:none" /><path
           class="noFillSVG"
           d="m 518.4,736.1 c 25.1,10.1 49.9,21.1 74.2,33.2 8.3,-24.3 16.7,-48.6 25,-72.9 -28.9,20.6 -62.7,34.5 -99.2,39.7 z"
           id="path55"
           inkscape:connector-curvature="0"
           style="fill:none" /><path
           class="noFillSVG"
           d="m 485.4,740.4 c 0.1,-0.1 0.3,-0.1 0.4,-0.1 0,-0.6 0,-1.3 0,-1.9 -0.1,0 -0.2,0 -0.3,0 0,0.7 0,1.4 -0.1,2 z"
           id="path57"
           inkscape:connector-curvature="0"
           style="fill:none" /><path
           class="noFillSVG"
           d="m 226.8,406.5 c 11.8,24.2 23.7,48.4 35.5,72.6 5.5,-38 20.5,-73 42.6,-102.5 -25.6,11 -51.6,21 -78.1,29.9 z"
           id="path59"
           inkscape:connector-curvature="0"
           style="fill:none" /><path
           class="noFillSVG"
           d="m 326.1,671.8 c -0.1,-0.1 -0.2,-0.2 -0.3,-0.3 -0.8,0.9 -1.6,1.7 -2.5,2.4 0.2,0 0.4,0 0.6,0.1 0.7,-0.8 1.4,-1.5 2.2,-2.2 z"
           id="path61"
           inkscape:connector-curvature="0"
           style="fill:none" /><path
           class="noFillSVG"
           d="m 712.9,511.9 c 0,0.1 0,0.1 0,0.2 0.2,0 0.5,0 0.7,0 0.2,-0.1 0.4,-0.2 0.6,-0.2 0.8,0 1.6,0 2.3,0 0,0 0,0 0,0 -0.1,-0.1 -0.2,-0.3 -0.3,-0.4 -1.1,0.1 -2.3,0.2 -3.5,0.2 0.2,0.1 0.2,0.2 0.2,0.2 z"
           id="path63"
           inkscape:connector-curvature="0"
           style="fill:none" /><path
           class="noFillSVG"
           d="m 737.1,259.6 c -19.9,12.5 -41.7,21.7 -64.6,27.2 -2.7,20.2 -9.5,39.8 -20,57.5 28.2,-28.3 56.4,-56.5 84.6,-84.7 z"
           id="path65"
           inkscape:connector-curvature="0"
           style="fill:none" /><path
           class="noFillSVG"
           d="m 719.8,512 c 40.7,0 81.4,0 122.1,0 -23,-5.3 -44.9,-14.2 -65.1,-26.5 -0.1,-0.1 -0.2,-0.1 -0.2,-0.2 -16.8,12.7 -36.1,21.9 -56.9,26.7 0,0 0,0 0.1,0 z"
           id="path67"
           inkscape:connector-curvature="0"
           style="fill:none" /><circle
           class="noFillSVG"
           cx="486.39999"
           cy="511.89999"
           r="221"
           id="circle69"
           style="fill:none" /><path
           class="noFillSVG"
           d="m 206.8,693.6 c 34.3,8 70.5,3.4 101.7,-12.7 -17.1,2.9 -35.4,-9.3 -36.3,-29.6 0,-0.3 0,-0.5 0.1,-0.6 -21.2,-7.7 -42.6,-15 -64.1,-21.9 -0.2,0.2 -0.5,0.4 -0.8,0.4 0,0 0,0 -0.1,0 -8.1,19.4 -3.7,44.3 -0.6,64.2 0.2,0 0.2,0.1 0.1,0.2 z"
           id="path71"
           inkscape:connector-curvature="0"
           style="fill:none" /><path
           class="noFillSVG"
           d="m 417,837.5 c 29.9,-18.6 52.3,-47.5 62.9,-80.9 -10.1,14.1 -31.6,18.4 -46.6,4.7 -0.2,-0.2 -0.3,-0.4 -0.4,-0.5 -20.4,9.6 -40.7,19.5 -60.8,29.8 0,0.3 -0.1,0.6 -0.3,0.8 0,0 0,0.1 0,0.1 8,19.4 28.7,33.9 45,45.9 0.1,0 0.1,0.1 0.2,0.1 z"
           id="path73"
           inkscape:connector-curvature="0"
           style="fill:none" /><path
           class="noFillSVG"
           d="m 368.5,790 c 0,-0.3 0.1,-0.6 0.4,-0.8 -6.9,-21.5 -14.3,-42.8 -21.9,-64.1 -0.2,0.1 -0.4,0.1 -0.6,0.1 -20.3,-0.9 -32.5,-19.2 -29.6,-36.3 -16.1,31.1 -20.7,67.3 -12.7,101.7 0.1,0 0.2,0 0.3,0 19.8,3.2 44.7,7.6 64.1,-0.6 0,0.1 0,0.1 0,0 z"
           id="path75"
           inkscape:connector-curvature="0"
           style="fill:none" /><path
           class="noFillSVG"
           d="m 207.5,394.8 c 0.3,0 0.6,0.1 0.8,0.4 21.5,-6.9 42.8,-14.3 64.1,-21.9 -0.1,-0.2 -0.1,-0.4 -0.1,-0.6 0.9,-20.3 19.2,-32.5 36.3,-29.6 -31.1,-16.1 -67.3,-20.7 -101.7,-12.7 0,0.1 0,0.2 0,0.3 -3.1,19.8 -7.5,44.7 0.6,64.1 0,0 0,0 0,0 z"
           id="path77"
           inkscape:connector-curvature="0"
           style="fill:none" /><path
           class="noFillSVG"
           d="m 240.9,506.2 c -14.1,-10.1 -18.4,-31.6 -4.7,-46.6 0.2,-0.2 0.4,-0.3 0.5,-0.4 -9.6,-20.4 -19.5,-40.7 -29.8,-60.8 -0.3,0 -0.6,-0.1 -0.8,-0.3 0,0 -0.1,0 -0.1,0 -19.4,8 -33.9,28.7 -45.9,45 -0.1,0.1 -0.1,0.1 -0.2,0.2 18.7,29.9 47.6,52.2 81,62.9 z"
           id="path79"
           inkscape:connector-curvature="0"
           style="fill:none" /><path
           class="noFillSVG"
           d="m 206.2,625.7 c 0.2,-0.2 0.5,-0.3 0.8,-0.3 10.3,-20.1 20.2,-40.4 29.8,-60.8 -0.2,-0.1 -0.4,-0.2 -0.5,-0.4 -13.8,-15 -9.4,-36.5 4.7,-46.6 -33.4,10.6 -62.3,33 -80.9,62.9 0.1,0.1 0.1,0.1 0.2,0.2 11.9,16.3 26.5,37 45.9,45 -0.1,0.1 0,0 0,0 z"
           id="path81"
           inkscape:connector-curvature="0"
           style="fill:none" /><path
           class="noFillSVG"
           d="m 783.4,547.7 c -0.4,-0.1 -0.8,-0.4 -1,-0.8 -15.1,-13.1 -32.9,-23.1 -52.1,-29.2 14.1,10.1 18.4,31.6 4.7,46.6 -0.2,0.2 -0.4,0.3 -0.5,0.4 9.6,20.4 19.5,40.7 29.8,60.8 0.3,0 0.6,0.1 0.8,0.3 0,0 0.1,0 0.1,0 19.4,-8 33.9,-28.7 45.9,-45 0.1,-0.1 0.1,-0.1 0.2,-0.2 -7.7,-12.3 -17.1,-23.4 -27.9,-32.9 z"
           id="path83"
           inkscape:connector-curvature="0"
           style="fill:none" /><path
           class="noFillSVG"
           d="m 763.7,629.1 c -0.3,0 -0.6,-0.1 -0.8,-0.4 -21.5,6.9 -42.8,14.3 -64.1,21.9 0.1,0.2 0.1,0.4 0.1,0.6 -0.9,20.3 -19.2,32.5 -36.3,29.6 31.1,16.1 67.3,20.7 101.7,12.7 0,-0.1 0,-0.2 0,-0.3 3.2,-19.8 7.6,-44.7 -0.6,-64.1 0.1,0 0,0 0,0 z"
           id="path85"
           inkscape:connector-curvature="0"
           style="fill:none" /><path
           class="noFillSVG"
           d="m 599.4,791.4 c -0.2,-0.2 -0.3,-0.5 -0.3,-0.8 -20.1,-10.3 -40.4,-20.2 -60.8,-29.8 -0.1,0.2 -0.2,0.4 -0.4,0.5 -15,13.8 -36.5,9.4 -46.6,-4.7 10.6,33.4 33,62.3 62.9,80.9 0.1,-0.1 0.1,-0.1 0.2,-0.2 16.3,-11.9 37,-26.5 45,-45.9 0.1,0 0,0 0,0 z"
           id="path87"
           inkscape:connector-curvature="0"
           style="fill:none" /><path
           class="noFillSVG"
           d="m 667.3,790.7 c 3.2,-13.9 4.4,-28.1 3.6,-42.1 -0.4,-0.5 -0.4,-1.1 -0.1,-1.6 -1.4,-20.1 -6.9,-39.9 -16.2,-57.9 2.9,17.1 -9.3,35.4 -29.6,36.3 -0.3,0 -0.5,0 -0.6,-0.1 -7.7,21.2 -15,42.6 -21.9,64.1 0.2,0.2 0.4,0.5 0.4,0.8 0,0 0,0 0,0.1 19.4,8.1 44.3,3.7 64.2,0.6 0,-0.2 0.1,-0.2 0.2,-0.2 z"
           id="path89"
           inkscape:connector-curvature="0"
           style="fill:none" /><path
           class="noFillSVG"
           d="m 646.2,672.3 c -0.1,0.1 -0.2,0.1 -0.2,0.2 0.9,0.9 1.7,1.9 2.5,2.9 0.1,-0.1 0.3,-0.1 0.5,-0.1 0,-0.2 0,-0.3 0.1,-0.5 -1,-0.8 -2,-1.6 -2.9,-2.5 z"
           id="path91"
           inkscape:connector-curvature="0"
           style="fill:none" /><path
           class="noFillSVG"
           d="m 458.1,804.1 c 12.4,20.2 21.3,42.1 26.5,65.1 0,-39.7 0,-79.4 0,-119 -5.2,19.6 -14.3,38 -26.5,53.9 -0.1,0 -0.1,0 0,0 z"
           id="path93"
           inkscape:connector-curvature="0"
           style="fill:none" /><path
           class="noFillSVG"
           d="m 304,233.2 c -8,34.3 -3.4,70.5 12.7,101.7 -2.9,-17.1 9.3,-35.4 29.6,-36.3 0.3,0 0.5,0 0.6,0.1 7.7,-21.2 15,-42.6 21.9,-64.1 -0.2,-0.2 -0.4,-0.5 -0.4,-0.8 0,0 0,0 0,-0.1 -19.4,-8.1 -44.3,-3.7 -64.2,-0.6 0,0.1 -0.1,0.1 -0.2,0.1 z"
           id="path95"
           inkscape:connector-curvature="0"
           style="fill:none" /><path
           class="noFillSVG"
           d="m 518.2,810.1 c -14.3,-16.6 -24.9,-36.2 -30.9,-57.5 0,38.7 0,77.4 0,116.1 2.7,-9.9 6.5,-19.4 10.9,-28.7 5,-10.7 9.8,-23.1 20,-29.9 z"
           id="path97"
           inkscape:connector-curvature="0"
           style="fill:none" /><path
           class="noFillSVG"
           d="m 764.4,330.3 c -34.3,-8 -70.5,-3.4 -101.7,12.7 17.1,-2.9 35.4,9.3 36.3,29.6 0,0.3 0,0.5 -0.1,0.6 21.2,7.7 42.6,15 64.1,21.9 0.2,-0.2 0.5,-0.4 0.8,-0.4 0,0 0,0 0.1,0 8.1,-19.4 3.7,-44.3 0.6,-64.2 -0.1,0 -0.1,-0.1 -0.1,-0.2 z"
           id="path99"
           inkscape:connector-curvature="0"
           style="fill:none" /><path
           class="noFillSVG"
           d="m 602.8,233.9 c 0,0.3 -0.1,0.6 -0.4,0.8 6.9,21.5 14.3,42.8 21.9,64.1 0.2,-0.1 0.4,-0.1 0.6,-0.1 20.3,0.9 32.5,19.2 29.6,36.3 16.1,-31.1 20.7,-67.3 12.7,-101.7 -0.1,0 -0.2,0 -0.3,0 -19.8,-3.2 -44.7,-7.6 -64.1,0.6 0,-0.1 0,-0.1 0,0 z"
           id="path101"
           inkscape:connector-curvature="0"
           style="fill:none" /><path
           class="noFillSVG"
           d="m 554.3,186.4 c -29.9,18.6 -52.3,47.5 -62.9,80.9 10.1,-14.1 31.6,-18.4 46.6,-4.7 0.2,0.2 0.3,0.4 0.4,0.5 20.4,-9.6 40.7,-19.5 60.8,-29.8 0,-0.3 0.1,-0.6 0.3,-0.8 0,0 0,-0.1 0,-0.1 -8,-19.4 -28.7,-33.9 -45,-45.9 -0.1,0 -0.1,-0.1 -0.2,-0.1 z"
           id="path103"
           inkscape:connector-curvature="0"
           style="fill:none" /><path
           class="noFillSVG"
           d="m 371.8,232.5 c 0.2,0.2 0.3,0.5 0.3,0.8 20.1,10.3 40.4,20.2 60.8,29.8 0.1,-0.2 0.2,-0.4 0.4,-0.5 15,-13.8 36.5,-9.4 46.6,4.7 -10.6,-33.4 -33,-62.3 -62.9,-80.9 -0.1,0.1 -0.1,0.1 -0.2,0.2 -16.3,11.9 -37,26.5 -45,45.9 0,-0.1 0,0 0,0 z"
           id="path105"
           inkscape:connector-curvature="0"
           style="fill:none" /><path
           class="noFillSVG"
           d="m 765.1,398.2 c -0.2,0.2 -0.5,0.3 -0.8,0.3 -10.3,20.1 -20.2,40.4 -29.8,60.8 0.2,0.1 0.4,0.2 0.5,0.4 13.8,15 9.4,36.5 -4.7,46.6 33.4,-10.6 62.3,-33 80.9,-62.9 -0.1,-0.1 -0.1,-0.1 -0.2,-0.2 -11.9,-16.3 -26.5,-37 -45.9,-45 0,-0.1 0,-0.1 0,0 z"
           id="path107"
           inkscape:connector-curvature="0"
           style="fill:none" /><path
           d="m 858.4,510.9 c 0,0 0,0 0,0 -0.1,-0.1 -0.1,-0.1 -0.1,-0.1 -24.1,-14.6 -44.8,-37.5 -43.8,-67.3 0,-0.1 0,-0.2 -0.1,-0.4 0.1,-0.7 -0.4,-1.3 -1.1,-1.5 -12.4,-16.9 -27,-37.6 -47,-46 8.2,-20.1 3.9,-45.1 0.7,-65.7 0.4,-0.6 0.3,-1.4 -0.3,-1.8 -0.1,-0.1 -0.1,-0.2 -0.2,-0.3 -21.7,-20.3 -23.3,-51.2 -16.6,-78.5 l 0,-0.2 c 0,-0.4 -0.1,-0.8 -0.4,-1 -0.2,-0.3 -0.6,-0.5 -1.1,-0.4 0,0 -0.1,0 -0.1,0 -0.1,0 -0.1,0 -0.1,0 -27.3,6.7 -58.2,5.1 -78.5,-16.6 -0.1,-0.1 -0.2,-0.1 -0.3,-0.2 -0.4,-0.6 -1.2,-0.6 -1.8,-0.3 -20.7,-3.2 -45.7,-7.5 -65.7,0.7 -8.4,-20 -29,-34.6 -46,-47 -0.2,-0.7 -0.8,-1.2 -1.5,-1.1 -0.1,0 -0.2,-0.1 -0.4,-0.1 -29.8,1 -52.7,-19.7 -67.3,-43.8 -0.1,0 -0.1,-0.1 -0.1,-0.1 l 0,0 c -0.3,-0.4 -0.7,-0.5 -1,-0.5 -0.4,0 -0.8,0.1 -1.1,0.5 0,0.1 -0.1,0.1 -0.1,0.1 -14.6,24.1 -37.5,44.8 -67.3,43.8 -0.1,0 -0.2,0.1 -0.4,0.1 -0.7,-0.1 -1.3,0.4 -1.5,1.1 -16.9,12.4 -37.6,26.9 -46,47 -20.1,-8.2 -45.1,-3.9 -65.7,-0.7 -0.6,-0.4 -1.4,-0.3 -1.8,0.3 -0.1,0.1 -0.2,0.1 -0.3,0.2 -20.4,21.7 -51.2,23.3 -78.5,16.6 -0.1,0 -0.1,0 -0.1,0 0,0 -0.1,0 -0.1,0 -0.4,0 -0.8,0.1 -1,0.4 -0.3,0.2 -0.4,0.6 -0.4,1.1 l 0,0.2 c 0.1,0.4 0.2,0.8 0.3,1.2 -0.2,0.3 -0.4,0.7 -0.3,1.1 0,0.2 0,0.5 0.2,0.7 0.2,0.3 0.4,0.7 0.7,1 5.6,26.3 3.1,55.1 -17.5,74.5 -0.1,0.1 -0.1,0.2 -0.2,0.3 -0.6,0.4 -0.6,1.2 -0.3,1.8 -3.2,20.7 -7.5,45.6 0.7,65.7 -20,8.4 -34.6,29 -47,46 -0.7,0.2 -1.2,0.8 -1.1,1.5 0,0.1 -0.1,0.2 -0.1,0.4 1,29.8 -19.7,52.7 -43.8,67.3 -0.1,0 -0.1,0.1 -0.1,0.1 0,0 0,0 0,0 -0.4,0.3 -0.5,0.7 -0.5,1.1 0,0.4 0.1,0.8 0.5,1.1 0,0 0,0 0,0 0,0 0.1,0.1 0.1,0.1 0.2,0.2 0.5,0.3 0.7,0.5 0.1,0.2 0.2,0.3 0.3,0.5 0.1,0.3 0.4,0.5 0.8,0.6 0.2,0 0.4,0.1 0.7,0.1 22.9,14.6 42.2,36.9 41.3,65.7 0,0.1 0,0.2 0.1,0.4 -0.1,0.7 0.4,1.3 1.1,1.5 12.4,16.9 27,37.6 47,46 -8.2,20.1 -3.9,45.1 -0.7,65.7 -0.4,0.6 -0.3,1.4 0.3,1.8 0.1,0.1 0.1,0.2 0.2,0.3 21.7,20.3 23.3,51.2 16.6,78.5 l 0,0.2 c 0,0.4 0.1,0.8 0.4,1 0.2,0.3 0.6,0.5 1.1,0.4 0,0 0.1,0 0.1,0 0.1,0 0.1,0 0.1,0 27.3,-6.7 58.2,-5.1 78.5,16.6 0.1,0.1 0.2,0.2 0.3,0.2 0.4,0.6 1.2,0.6 1.8,0.3 20.7,3.2 45.7,7.5 65.7,-0.7 8.4,20 29,34.6 46,47 0.2,0.7 0.8,1.2 1.5,1.1 0.1,0 0.2,0.1 0.4,0.1 29.8,-1 52.7,19.7 67.3,43.8 0,0 0.1,0.1 0.1,0.1 0.3,0.4 0.6,0.5 1,0.5 l 0.1,0 c 0.4,0 0.8,-0.1 1.1,-0.5 0,0 0,0 0,0 0,0 0.1,-0.1 0.1,-0.1 14.6,-24.1 37.5,-44.8 67.3,-43.8 0.1,0 0.2,-0.1 0.4,-0.1 0.7,0.1 1.3,-0.4 1.5,-1.1 16.9,-12.4 37.6,-26.9 46,-47 20.1,8.2 45.1,3.9 65.7,0.7 0.6,0.4 1.4,0.3 1.8,-0.3 0.1,-0.1 0.2,-0.1 0.3,-0.2 19.4,-20.8 48.5,-23.1 74.9,-17.4 0,0 0,0 0,0 0.2,0.2 0.5,0.2 0.7,0.2 0.1,0 0.2,0 0.3,0 0.8,0.2 1.7,0.4 2.6,0.6 0.1,0 0.1,0 0.1,0 0,0 0.1,0 0.1,0 0.4,0 0.8,-0.1 1,-0.4 0.3,-0.2 0.5,-0.6 0.4,-1.1 l 0,-0.2 c -6.7,-27.3 -5.1,-58.2 16.6,-78.5 0.1,-0.1 0.1,-0.2 0.2,-0.3 0.6,-0.4 0.7,-1.2 0.3,-1.8 3.2,-20.7 7.5,-45.6 -0.7,-65.7 20,-8.4 34.6,-29 47,-46 0.6,-0.2 1.2,-0.8 1.1,-1.5 0,-0.1 0.1,-0.2 0.1,-0.4 -1,-29.8 19.7,-52.7 43.8,-67.3 0.1,0 0.1,-0.1 0.1,-0.1 0,0 0,0 0,0 0.4,-0.3 0.5,-0.7 0.5,-1.1 -0.1,-0.5 -0.3,-0.9 -0.6,-1.2 z M 811,443.1 c 0.1,0.1 0.1,0.1 0.2,0.2 -18.6,30 -47.5,52.3 -80.9,62.9 14.1,-10.1 18.4,-31.6 4.7,-46.6 -0.2,-0.2 -0.4,-0.3 -0.5,-0.4 9.6,-20.5 19.5,-40.7 29.8,-60.9 0.3,0 0.6,-0.1 0.8,-0.2 0.1,0 0.1,0 0.1,-0.1 19.4,8.1 33.9,28.8 45.8,45.1 z M 710.2,699.7 c 5.5,23 14.7,44.8 27.3,64.8 -28.4,-28.4 -56.8,-56.8 -85.1,-85.1 -0.4,-0.7 -0.8,-1.3 -1.2,-2 18.1,11.3 38.3,18.5 59.2,21.3 -0.3,0.3 -0.3,0.6 -0.2,1 z m 24.9,66.4 c -8.2,-4.7 -16.8,-8.5 -25.7,-11.8 -11.3,-4.2 -23.7,-9.9 -36,-8.1 -1.5,-20.2 -7,-39.9 -16.3,-58.1 26.1,26 52.1,52 78,78 z M 647,677.9 c 12.6,17.4 1.7,43.4 -21.7,44.6 5.8,-15.9 11.7,-31.7 17.9,-47.3 0.3,-0.3 0.6,-0.5 0.8,-0.8 0.3,0.3 0.6,0.7 0.9,1 0,0.3 0.1,0.6 0.4,0.8 0.6,0.6 1.1,1.2 1.7,1.7 z m -1,-5.4 c 0.1,-0.1 0.2,-0.1 0.2,-0.2 0.9,0.9 1.9,1.7 2.9,2.5 -0.1,0.2 -0.1,0.3 -0.1,0.5 -0.2,0 -0.3,0.1 -0.5,0.1 -0.8,-1 -1.6,-2 -2.5,-2.9 z m 2.1,-2.2 c 0.3,-0.3 0.6,-0.6 0.8,-0.9 15.7,-6.2 31.5,-12.1 47.3,-17.8 -1.3,24.9 -30.9,35.7 -48.1,18.7 z m 5.2,-5.5 c 4.3,-4.6 8.3,-9.5 12.2,-14.5 26.1,-11.2 52.6,-21.4 79.5,-30.4 0.5,-0.2 0.7,-0.5 0.9,-0.9 0,-0.1 0,-0.1 0,-0.2 0,-0.1 0,-0.1 0,-0.2 0,-0.2 0,-0.5 -0.1,-0.8 -11.8,-24.1 -23.6,-48.3 -35.4,-72.5 1.1,-7.3 1.8,-14.8 2.2,-22.4 15.3,34.9 31.7,69.3 49,103.2 -36.4,11.9 -72.5,24.8 -108.3,38.7 z M 644,349.5 c -0.3,-0.3 -0.6,-0.5 -0.8,-0.8 -6.2,-15.7 -12.1,-31.5 -17.9,-47.3 24.9,1.2 35.7,30.9 18.7,48.1 z m 2.6,1.7 -0.4,0.4 c -0.1,-0.1 -0.2,-0.2 -0.2,-0.2 0.2,-0.2 0.4,-0.4 0.5,-0.6 0,0.1 0.1,0.3 0.1,0.4 z m 49.7,21.1 c -15.9,-5.8 -31.6,-11.7 -47.3,-17.8 -0.3,-0.3 -0.5,-0.6 -0.8,-0.9 17.1,-17 46.7,-6.3 48.1,18.7 z m 22.6,-48.1 c -21.1,1.7 -41.9,7.8 -60.7,18.1 26.8,-26.8 53.6,-53.6 80.4,-80.4 -4.7,8.2 -8.5,16.8 -11.8,25.7 -4.2,11.4 -9.9,24.1 -7.9,36.6 z m -66.4,20 c 10.6,-17.7 17.4,-37.3 20.1,-57.4 22.9,-5.5 44.7,-14.7 64.6,-27.2 -28.3,28.2 -56.5,56.4 -84.7,84.6 z m 109.1,53.4 c -17.4,33.9 -33.7,68.4 -49,103.2 -0.3,-6.7 -1,-13.3 -1.9,-19.9 10.4,-26 21.8,-51.5 34.3,-76.6 0.2,-0.4 0.2,-0.9 0,-1.2 -0.1,-0.4 -0.4,-0.7 -0.8,-0.8 -25.6,-8.8 -51.1,-17.5 -76.7,-26.3 -4.4,-5.9 -9.2,-11.6 -14.2,-17 35.8,13.9 71.9,26.8 108.3,38.6 z M 712.8,509 c 0,-0.6 0,-1.3 0,-1.9 6.6,-15.2 13.5,-30.3 20.5,-45.4 16.6,18.6 3.5,46.9 -20.5,47.3 z m 3.8,2.9 0,0 -2.3,0 c -0.2,0 -0.5,0.1 -0.6,0.2 -0.2,0 -0.5,0 -0.7,0 l 0,-0.3 c 1.2,0 2.3,-0.1 3.5,-0.2 -0.1,0.1 0,0.2 0.1,0.3 z M 742,404.5 c -11.6,23.3 -22.2,47.1 -32,71.2 -5.7,-35.3 -19.6,-67.9 -39.7,-95.8 23.9,8.2 47.8,16.4 71.7,24.6 z m 0.8,213.4 c -25,8.4 -49.7,17.8 -74,28.1 20.5,-27.8 34.8,-60.5 40.8,-95.9 11.1,22.6 22.1,45.2 33.2,67.8 z m -30,-101.2 c 0,-0.6 0,-1.3 0,-1.9 23.9,0.4 37.1,28.7 20.5,47.3 -7,-15 -13.9,-30.2 -20.5,-45.4 z m 7,-4.7 c 0,0 -0.1,0 -0.1,0 20.7,-4.8 40.1,-14 56.9,-26.7 0.1,0.1 0.1,0.1 0.2,0.2 20.2,12.4 42.1,21.3 65.1,26.5 l -122.1,0 z m 121.6,2.7 c -9.9,2.7 -19.4,6.5 -28.7,10.9 -10.3,4.8 -22.1,9.4 -29,18.8 -15.6,-13.4 -34,-23.6 -53.8,-29.7 l 111.5,0 z M 763.8,394.8 c 0,0 -0.1,0 0,0 -0.4,0 -0.6,0.1 -0.8,0.4 -21.5,-6.9 -42.8,-14.3 -64.1,-21.9 0.1,-0.2 0.1,-0.4 0.1,-0.6 -0.9,-20.4 -19.2,-32.5 -36.3,-29.6 31.1,-16.1 67.3,-20.7 101.7,-12.7 0,0.1 0,0.2 0,0.3 3.1,19.8 7.5,44.7 -0.6,64.1 z M 761.9,327 c -13.3,-2.8 -26.8,-3.8 -40.2,-3 -2.2,-12.6 4.3,-26.5 8.8,-38 4.1,-10.7 9,-21 15.4,-30.5 -4.8,25.2 -2.1,52.3 16,71.5 z m -17,-75.8 c -21.8,15.3 -46.1,26.3 -72,32.7 1.8,-16 1.1,-32.3 -2.3,-48.2 19.9,18.8 48.3,21 74.3,15.5 z M 602.8,233.9 c 0,-0.1 0,-0.1 0,0 19.4,-8.2 44.3,-3.8 64.3,-0.7 0.1,0 0.2,0 0.2,0 8,34.4 3.4,70.5 -12.7,101.7 2.9,-17.1 -9.3,-35.4 -29.6,-36.3 -0.3,0 -0.5,0 -0.7,0.1 -7.7,-21.2 -15,-42.6 -21.9,-64.1 0.2,-0.2 0.3,-0.5 0.4,-0.7 z m 35.7,110.4 c -5.6,-5.1 -11.4,-9.9 -17.5,-14.3 -8.8,-25.7 -17.6,-51.5 -26.5,-77.2 -0.1,-0.4 -0.4,-0.7 -0.8,-0.8 -0.4,-0.2 -0.8,-0.2 -1.2,0 -25.8,12.9 -52.1,24.6 -78.8,35.2 -6.2,-0.8 -12.4,-1.3 -18.7,-1.5 35.4,-15.6 70.4,-32.1 104.8,-49.7 11.9,36.4 24.9,72.6 38.7,108.3 z m -21.2,-17 c -28.5,-20.3 -61.9,-34.1 -98,-39.4 24.9,-10 49.3,-20.9 73.3,-32.8 8.1,24 16.4,48.1 24.7,72.2 z m -128.5,-41.8 -0.2,0 c -0.2,-24.4 28.5,-38.1 47.3,-21.3 -15.7,7.3 -31.3,14.4 -47.1,21.3 z m 65.5,-99.1 c 0.1,0.1 0.1,0.1 0.2,0.2 16.3,12 37,26.5 45,45.9 0,0 0,0.1 -0.1,0.1 -0.2,0.2 -0.2,0.5 -0.2,0.8 -20.1,10.3 -40.4,20.2 -60.8,29.8 -0.1,-0.2 -0.2,-0.4 -0.4,-0.5 -15,-13.8 -36.5,-9.4 -46.6,4.7 10.6,-33.6 33,-62.5 62.9,-81 z m -4.1,-0.6 c -11.4,7.4 -21.6,16.2 -30.5,26.2 -10.4,-6.7 -15.3,-20.4 -20.2,-31.2 -5.1,-11.2 -9.3,-22.6 -11.6,-34.7 14.5,21.4 35.7,38.9 62.3,39.7 z m -62.9,-30.2 c 2.7,9.9 6.5,19.4 10.9,28.7 5,10.6 9.7,22.9 19.8,29.7 -14.1,16.5 -24.7,36 -30.6,57.2 l 0,-115.6 z M 485.8,284 c 0,0.5 0,1 0,1.5 l -0.4,0 c 0,-0.5 0,-1 0,-1.5 0.2,0 0.3,0 0.4,0 z m -1.2,-128.9 0,118.6 c -5.1,-19.6 -14.2,-37.8 -26.4,-53.6 12.3,-20.2 21.1,-42 26.4,-65 z m -0.8,-9.7 c -4.7,25.6 -14,50 -27.5,72.3 -9.9,-12.4 -21.8,-23.2 -35.3,-31.9 27,-0.8 48.4,-18.7 62.8,-40.4 z m -67,41.1 c 0.1,-0.1 0.1,-0.1 0.2,-0.2 30,18.6 52.3,47.5 62.9,80.9 -10.1,-14.1 -31.6,-18.4 -46.6,-4.7 -0.2,0.2 -0.3,0.4 -0.4,0.5 -20.4,-9.6 -40.7,-19.5 -60.8,-29.8 0,-0.3 -0.1,-0.6 -0.3,-0.8 0,0 0,-0.1 -0.1,-0.1 8.1,-19.3 28.8,-33.8 45.1,-45.8 z m 65.9,99 c -0.1,0 -0.1,0 -0.2,0 -15.8,-6.9 -31.5,-14 -47.1,-21.3 18.8,-16.7 47.6,-3.1 47.3,21.3 z M 371.3,235.9 c 34.5,17.7 69.4,34.2 104.9,49.8 -6.6,0.3 -13.2,0.9 -19.6,1.8 C 429.6,276.8 403,265 377,252 c -0.4,-0.2 -0.9,-0.2 -1.2,0 -0.3,0.1 -0.7,0.4 -0.8,0.8 -9.2,26.9 -18.4,53.7 -27.6,80.6 -5.4,4.2 -10.6,8.6 -15.6,13.3 14.3,-36.5 27.5,-73.5 39.5,-110.8 z m 79.9,52.3 c -37,5.8 -71.1,20.6 -99.9,42.1 8.6,-25.1 17.2,-50.2 25.8,-75.3 24.3,12.1 49,23.1 74.1,33.2 z M 323.9,674 c -0.2,-0.1 -0.4,-0.1 -0.6,-0.1 0.9,-0.7 1.7,-1.6 2.5,-2.4 0.1,0.1 0.2,0.2 0.3,0.3 -0.8,0.7 -1.5,1.4 -2.2,2.2 z m 3.8,0 c 6.3,16.1 12.4,32.3 18.3,48.5 -25.2,-1.3 -35.9,-31.3 -18.3,-48.5 z M 275,651.6 c 16.3,5.9 32.4,12 48.5,18.3 -17.1,17.6 -47.2,6.9 -48.5,-18.3 z m -42.8,112.9 c 12.5,-20 21.7,-41.8 27.3,-64.8 0.1,-0.3 0,-0.5 -0.1,-0.8 20.6,-2.6 40.5,-9.4 58.5,-20.2 -28.6,28.6 -57.1,57.2 -85.7,85.8 z M 316,684.6 c -10.5,19.2 -16.7,40.3 -18.2,61.9 -12.8,-2.5 -25.8,3.4 -37.6,7.8 -8.9,3.3 -17.5,7.1 -25.7,11.8 27.2,-27.2 54.3,-54.4 81.5,-81.5 z M 209.6,626.3 c 17.9,-35 34.7,-70.5 50.5,-106.6 0.2,7 0.8,13.9 1.7,20.7 -0.1,0.1 -0.3,0.3 -0.4,0.5 -12.6,25.7 -25.1,51.4 -37.7,77 -0.4,0.9 0.2,1.8 1,2 -0.4,0.7 -0.2,1.7 0.7,2.1 27,9.3 54.1,18.6 81.1,27.8 0.2,0.1 0.3,0.1 0.4,0.1 4.3,5.5 8.7,10.8 13.5,15.9 -36.5,-14.3 -73.5,-27.5 -110.8,-39.5 z M 238,461.8 c 7.3,15.7 14.5,31.4 21.4,47.3 -24.6,0.2 -38.3,-28.6 -21.4,-47.3 z m 21.9,49.9 0,0.4 c -1.3,0 -2.6,0 -3.8,0.1 -0.2,-0.1 -0.4,-0.2 -0.7,-0.2 l -0.7,0 c 0,0 0,0 -0.1,0 0.1,-0.1 0.2,-0.2 0.3,-0.4 1.6,0.1 3.3,0.2 5,0.1 z m -18.5,3 c -20.2,6.2 -38.9,16.7 -54.8,30.5 -6.8,-10 -19.1,-14.7 -29.7,-19.7 -9.3,-4.3 -18.8,-8.2 -28.7,-10.9 l 113.2,0 z M 127.8,512 c 23,-5.3 44.9,-14.2 65.1,-26.5 0.5,-0.3 0.7,-0.7 0.6,-1.2 17.1,13.2 36.9,22.7 58.1,27.7 0,0 -0.1,0 -0.1,0 l -123.7,0 z m 131.5,2.9 c -6.9,15.9 -14.1,31.6 -21.4,47.3 -16.8,-18.8 -3.1,-47.6 21.4,-47.3 z m -33.1,104.5 c 0,-0.1 -0.1,-0.1 0,0 -0.1,-0.1 -0.1,-0.1 0,0 12.1,-24.8 24.1,-49.5 36.2,-74.2 5.5,37.4 20.2,71.8 41.7,100.9 -26,-8.9 -52,-17.8 -77.9,-26.7 z m 36.1,-140.3 c -11.8,-24.2 -23.7,-48.4 -35.5,-72.6 26.4,-8.9 52.5,-18.9 78.1,-29.9 -22,29.5 -37,64.5 -42.6,102.5 z m -37.7,-74.7 c -0.5,0.2 -0.7,0.5 -0.9,0.9 0,0.1 0,0.1 0,0.2 0,0.1 0,0.1 0,0.2 0,0.2 0,0.5 0.1,0.8 12.6,25.7 25.1,51.4 37.7,77 0.1,0.2 0.2,0.3 0.3,0.4 -0.8,6.7 -1.4,13.5 -1.6,20.3 -15.8,-36 -32.6,-71.5 -50.5,-106.6 37.3,-12 74.2,-25.2 110.8,-39.5 -4.3,4.7 -8.5,9.6 -12.4,14.6 -0.3,-0.1 -0.6,-0.1 -0.9,0.1 -27.1,11.7 -54.7,22.3 -82.6,31.6 z M 275,372.3 c 1.2,-23.3 27.2,-34.2 44.6,-21.7 0.4,0.4 0.7,0.7 1.1,1.1 0.2,0.2 0.5,0.3 0.8,0.4 0.7,0.6 1.4,1.2 2,1.9 -16,6.3 -32.2,12.4 -48.5,18.3 z m -32.3,-84.8 c -3.3,-8.9 -7.1,-17.5 -11.8,-25.7 26.2,26.2 52.4,52.3 78.5,78.5 -18.3,-9.4 -38.3,-14.9 -58.7,-16.3 2,-12.4 -3.8,-25 -8,-36.5 z m -10.2,-27.9 c 20,12.5 41.8,21.7 64.8,27.3 0.6,0.2 1.1,-0.1 1.4,-0.6 2.8,21.2 10,41.8 21.5,60.2 -0.7,-0.4 -1.3,-0.8 -1.9,-1.2 -28.6,-28.6 -57.2,-57.2 -85.8,-85.7 z m 89.7,89.5 c 0.1,-0.2 0.1,-0.3 0.1,-0.5 0.2,0 0.3,-0.1 0.5,-0.1 1,1.3 2.1,2.5 3.3,3.6 -0.1,0.1 -0.2,0.2 -0.3,0.3 -1.1,-1.2 -2.3,-2.3 -3.6,-3.3 z M 346,301.3 c -5.9,16.2 -12,32.4 -18.3,48.5 -17.6,-17.1 -6.9,-47.2 18.3,-48.5 z m -42,-68.2 c 0.1,0 0.2,0 0.3,0 20,-3.1 44.9,-7.5 64.2,0.6 0,0 0,0.1 0,0.1 0,0.3 0.1,0.5 0.4,0.8 -6.9,21.5 -14.2,42.9 -21.9,64.1 -0.2,-0.1 -0.4,-0.2 -0.6,-0.1 -20.3,0.8 -32.5,19.1 -29.6,36.3 C 300.6,303.7 296,267.5 304,233.1 Z M 224.5,251 c 0,-0.1 0,-0.2 -0.1,-0.2 26.5,6 55.8,4.2 76.2,-15.1 -3.4,16.1 -4.1,32.6 -2.2,48.7 -0.1,-0.1 -0.3,-0.2 -0.5,-0.2 -26.4,-6.4 -51.1,-17.6 -73.4,-33.2 z m 1.6,8.1 c 5.3,8.5 9.6,17.5 13.1,26.9 4.4,11.5 11,25.3 8.8,37.9 -12.9,-0.7 -25.8,0.3 -38.6,3 17.2,-18.2 20.5,-43.7 16.7,-67.8 z m -19.2,71.5 c 0,-0.1 0,-0.2 0,-0.3 34.3,-8 70.5,-3.4 101.7,12.7 -17.1,-2.9 -35.4,9.3 -36.3,29.6 0,0.2 0.1,0.4 0.1,0.6 -21.2,7.7 -42.6,15 -64.1,21.9 -0.2,-0.2 -0.5,-0.4 -0.8,-0.4 0,0 0,0 -0.1,0 -8,-19.3 -3.6,-44.2 -0.5,-64.1 z m -46.6,112.5 c 11.9,-16.3 26.4,-37 45.8,-45 0.1,0 0.1,0 0.1,0.1 0.2,0.2 0.5,0.3 0.8,0.2 10.3,20.1 20.2,40.4 29.8,60.9 -0.2,0.1 -0.4,0.2 -0.5,0.4 -13.8,15 -9.4,36.5 4.7,46.6 -33.4,-10.6 -62.3,-33 -80.9,-62.9 0,-0.2 0.1,-0.2 0.2,-0.3 z m -0.8,4.3 c 8.8,13.6 19.8,25.6 32.3,35.6 -0.1,0 -0.2,0.1 -0.3,0.1 -22.9,14 -47.9,23.5 -74.3,28.3 22.6,-14.5 41.5,-36.3 42.3,-64 z m -37.1,68.7 c 10.7,2.4 20.9,6.2 31,10.8 10.8,4.9 24.4,9.8 31.2,20.2 -9.6,8.6 -18,18.5 -25.1,29.4 -0.8,-25.5 -16.9,-46.1 -37.1,-60.4 z m 37.9,64.7 c -0.1,-0.1 -0.1,-0.1 -0.2,-0.2 18.6,-30 47.5,-52.3 80.9,-62.9 -14.1,10.1 -18.4,31.6 -4.7,46.6 0.2,0.2 0.4,0.3 0.5,0.4 -9.6,20.5 -19.5,40.7 -29.8,60.9 -0.3,0 -0.6,0.1 -0.8,0.2 0,0 -0.1,0 -0.1,0.1 -19.4,-8.1 -33.9,-28.8 -45.8,-45.1 z m 47.2,48.3 c 0,0 0,0 0,0 0.4,0 0.6,-0.1 0.8,-0.4 21.5,6.9 42.8,14.3 64.1,21.9 -0.1,0.2 -0.1,0.4 -0.1,0.6 0.8,20.4 19.2,32.5 36.3,29.6 -31.1,16.1 -67.3,20.7 -101.7,12.7 0,-0.1 0,-0.2 0,-0.3 -3.1,-19.8 -7.5,-44.7 0.6,-64.1 z m 1.9,67.8 c 15.7,3.3 31.7,4.1 47.4,2.4 -6.2,25.5 -16.9,49.5 -31.7,71.1 5.2,-25.8 2.9,-53.8 -15.7,-73.5 z M 230,772 c 9,-5.8 18.6,-10.4 28.6,-14.2 11.8,-4.5 25.9,-11.3 38.7,-8.6 l 0.3,0 c -0.7,13 0.3,26.1 3,39 C 281.7,770.3 255,767.5 230,772 Z m 138.5,18 c 0,0.1 0,0.1 0,0 -19.4,8.2 -44.3,3.8 -64.3,0.7 -0.1,0 -0.2,0 -0.3,0 -8,-34.4 -3.4,-70.5 12.7,-101.7 -2.9,17.1 9.3,35.4 29.6,36.3 0.2,0 0.5,0 0.6,-0.1 7.7,21.2 15,42.6 21.9,64.1 -0.1,0.2 -0.2,0.5 -0.2,0.7 z M 331.8,677.2 c 4.9,4.6 10,9 15.4,13.2 0,0 0,0.1 0,0.1 9.3,27 18.5,54.1 27.8,81.1 0.1,0.5 0.5,0.7 0.8,0.8 0.4,0.2 0.8,0.2 1.2,0 26.3,-13.1 53.2,-25.1 80.5,-35.9 6.2,0.8 12.4,1.4 18.7,1.7 -35.5,15.6 -70.5,32.1 -104.9,49.8 -12,-37.4 -25.2,-74.3 -39.5,-110.8 z m 19.3,16.2 c 29.1,21.7 63.5,36.7 101,42.4 -25.4,10.2 -50.4,21.3 -74.9,33.5 -8.8,-25.3 -17.4,-50.6 -26.1,-75.9 z m 131.5,44.9 c 0.1,0 0.1,0 0.2,0 0.2,24.4 -28.5,38.1 -47.3,21.3 15.6,-7.3 31.3,-14.4 47.1,-21.3 z m -65.7,99.2 c -0.1,-0.1 -0.1,-0.1 -0.2,-0.2 -16.3,-12 -37,-26.5 -45,-45.9 0,0 0.1,-0.1 0.1,-0.1 0.2,-0.2 0.3,-0.5 0.3,-0.8 20.1,-10.3 40.4,-20.2 60.8,-29.8 0.1,0.2 0.2,0.4 0.4,0.5 15,13.8 36.5,9.4 46.6,-4.7 -10.7,33.6 -33,62.4 -63,81 z m 4.2,0.6 c 13.4,-8.7 25.2,-19.4 35.1,-31.7 13.5,22.2 22.7,46.5 27.5,71.9 -14.5,-21.7 -35.8,-39.4 -62.6,-40.2 z m 63.5,31.1 c -5.2,-23 -14.2,-44.9 -26.5,-65.1 0,0 -0.1,0 -0.1,-0.1 12.3,-15.9 21.4,-34.2 26.6,-53.9 l 0,119.1 z m 0.8,-128.8 c 0.1,-0.7 0.1,-1.3 0.1,-2 l 0.4,0 c 0,0.7 0,1.3 0,1.9 -0.2,0 -0.4,0.1 -0.5,0.1 z m 1,-7.4 c -121.9,0 -221,-99.2 -221,-221 0,-121.9 99.2,-221 221,-221 121.8,0 221,99.2 221,221 0,121.8 -99.1,221 -221,221 z m 131.1,-36.5 c -8.3,24.3 -16.7,48.6 -25,72.9 -24.3,-12.1 -49,-23.1 -74.2,-33.2 36.6,-5.3 70.4,-19.2 99.2,-39.7 z m -128.7,41.9 c 15.8,6.9 31.4,14 47,21.3 -18.7,16.8 -47.5,3.2 -47.3,-21.3 l 0.3,0 z m -1.5,14.2 c 6,21.3 16.6,40.9 30.9,57.5 -10.3,6.8 -15,19.2 -20,29.9 -4.3,9.3 -8.2,18.9 -10.9,28.7 l 0,-116.1 z m 0.7,125 c 2.3,-11.8 6.5,-23.1 11.5,-34.1 5,-10.8 9.9,-24.6 20.3,-31.3 L 520,812 c 8.8,9.9 19,18.7 30.2,25.9 -26.6,1 -47.7,18.4 -62.2,39.7 z m 66.5,-40.3 c -0.1,0.1 -0.1,0.1 -0.2,0.2 -29.9,-18.6 -52.3,-47.5 -62.9,-80.9 10.1,14.1 31.6,18.4 46.6,4.7 0.2,-0.2 0.3,-0.4 0.4,-0.5 20.4,9.6 40.7,19.5 60.8,29.8 0,0.3 0.1,0.6 0.2,0.8 0,0 0,0.1 0.1,0.1 -8,19.4 -28.7,33.9 -45,45.8 z M 600,787.9 c -34.4,-17.6 -69.4,-34.2 -104.8,-49.7 6,-0.2 11.9,-0.7 17.8,-1.4 27.1,10.7 53.6,22.5 79.7,35.6 0.4,0.2 0.9,0.2 1.2,0 0.3,-0.1 0.7,-0.4 0.8,-0.8 8.9,-25.9 17.8,-51.9 26.7,-77.8 6,-4.4 11.8,-9.2 17.2,-14.2 -13.9,35.7 -26.9,71.8 -38.6,108.3 z m 67.3,2.8 c -0.1,0 -0.2,0 -0.2,0 -20,3.1 -44.9,7.5 -64.2,-0.6 0,0 0,0 0,-0.1 0,-0.3 -0.1,-0.5 -0.4,-0.8 6.9,-21.5 14.3,-42.8 21.9,-64.1 0.2,0.1 0.4,0.2 0.7,0.1 20.3,-0.8 32.5,-19.1 29.6,-36.3 9.3,18.1 14.8,37.8 16.2,58 -0.3,0.5 -0.2,1.1 0.1,1.6 0.7,14.2 -0.5,28.3 -3.7,42.2 z m 3.3,-2.5 c 2.8,-13 3.7,-26.2 3,-39.3 12.4,-1.9 26,4.5 37.4,8.8 9.8,3.8 19.2,8.2 28,13.8 -24.3,-3.9 -50,-0.7 -68.4,16.7 z m 76.2,-15.1 c -0.2,0 -0.3,-0.1 -0.5,-0.1 -15.8,-22.3 -27.1,-47.3 -33.5,-73.9 16.3,1.9 32.9,1.2 49.1,-2.2 -19.3,20.4 -21.1,49.8 -15.1,76.2 z m 17.6,-79.8 c 0,0.1 0,0.2 0,0.3 -34.3,8 -70.5,3.4 -101.7,-12.7 17.1,2.9 35.4,-9.3 36.3,-29.6 0,-0.2 -0.1,-0.4 -0.1,-0.6 21.2,-7.7 42.6,-15 64.1,-21.9 0.2,0.2 0.5,0.4 0.8,0.4 0,0 0.1,0 0.1,0 8,19.3 3.6,44.2 0.5,64.1 z M 811,580.8 c -12,16.3 -26.4,37 -45.9,45 0,0 -0.1,0 -0.1,-0.1 -0.2,-0.2 -0.5,-0.3 -0.8,-0.2 -10.3,-20.1 -20.2,-40.4 -29.8,-60.9 0.2,-0.1 0.4,-0.2 0.5,-0.4 13.8,-15 9.4,-36.5 -4.7,-46.6 19.2,6.1 36.9,16.1 52.1,29.2 0.2,0.4 0.5,0.7 1,0.8 10.8,9.5 20.1,20.5 27.8,32.9 0.1,0.2 0,0.2 -0.1,0.3 z m 0.8,-4.3 c -7.4,-11.3 -16.2,-21.5 -26.1,-30.3 6.9,-9.7 20.1,-14.5 30.6,-19.2 10.8,-4.9 21.8,-9 33.4,-11.4 -20.6,14.3 -37.1,35 -37.9,60.9 z m -33,-93 c 12.8,-10.1 24,-22.3 33,-36.1 0.8,28 20.1,50 43,64.4 -26.9,-4.6 -52.6,-14.1 -76,-28.3 z"
           id="path109"
           inkscape:connector-curvature="0" /><path
           d="m 248,323.9 c -12.9,-0.7 -25.8,0.3 -38.6,3 17.3,-18.3 20.5,-43.7 16.7,-67.9 5.3,8.5 9.6,17.5 13.1,26.9 4.4,11.6 11,25.5 8.8,38 z"
           id="path111"
           inkscape:connector-curvature="0" /><path
           d="m 298.4,284.4 c -0.1,-0.1 -0.3,-0.2 -0.5,-0.2 -26.4,-6.3 -51.2,-17.6 -73.5,-33.2 0,-0.1 0,-0.2 -0.1,-0.2 26.5,6 55.8,4.2 76.2,-15.1 -3.2,16.1 -4,32.5 -2.1,48.7 z"
           id="path113"
           inkscape:connector-curvature="0" /><path
           d="m 483.8,145.4 c -4.7,25.6 -14,50 -27.5,72.3 -9.9,-12.4 -21.8,-23.2 -35.3,-31.9 27,-0.8 48.4,-18.7 62.8,-40.4 z"
           id="path115"
           inkscape:connector-curvature="0" /><path
           d="m 550.2,185.8 c -11.4,7.4 -21.6,16.2 -30.5,26.2 -10.4,-6.7 -15.3,-20.4 -20.2,-31.2 -5.1,-11.2 -9.3,-22.6 -11.6,-34.7 14.5,21.4 35.7,38.9 62.3,39.7 z"
           id="path117"
           inkscape:connector-curvature="0" /><path
           d="m 672.9,283.8 c 1.8,-16 1.1,-32.3 -2.3,-48.2 19.9,18.8 48.3,21 74.2,15.5 -21.8,15.3 -46,26.4 -71.9,32.7 z"
           id="path119"
           inkscape:connector-curvature="0" /><path
           d="m 761.9,327 c -13.3,-2.8 -26.8,-3.8 -40.2,-3 -2.2,-12.6 4.3,-26.5 8.8,-38 4.1,-10.7 9,-21 15.4,-30.5 -4.8,25.2 -2.1,52.3 16,71.5 z"
           id="path121"
           inkscape:connector-curvature="0" /><path
           d="m 854.8,511.8 c -27,-4.6 -52.6,-14.1 -76,-28.3 12.8,-10.1 24,-22.3 33,-36.1 0.8,28 20.1,50 43,64.4 z"
           id="path123"
           inkscape:connector-curvature="0" /><path
           d="m 849.6,515.5 c -20.6,14.4 -37.1,35.1 -37.8,61 -7.4,-11.3 -16.2,-21.5 -26.1,-30.3 6.9,-9.7 20.1,-14.5 30.6,-19.2 10.7,-5 21.7,-9.1 33.3,-11.5 z"
           id="path125"
           inkscape:connector-curvature="0" /><path
           d="m 746.8,773.1 c -0.2,0 -0.3,-0.1 -0.5,-0.1 -15.8,-22.3 -27.1,-47.3 -33.5,-73.9 16.3,1.9 32.9,1.2 49.1,-2.2 -19.3,20.4 -21.1,49.8 -15.1,76.2 z"
           id="path127"
           inkscape:connector-curvature="0" /><path
           d="m 739,771.6 c -24.3,-4 -50,-0.8 -68.4,16.6 2.8,-13 3.7,-26.2 3,-39.3 12.4,-1.9 26,4.5 37.4,8.8 9.8,3.8 19.2,8.3 28,13.9 z"
           id="path129"
           inkscape:connector-curvature="0" /><path
           d="m 550.2,838.1 c -26.6,0.8 -47.7,18.2 -62.2,39.6 2.3,-11.8 6.5,-23.1 11.5,-34.1 5,-10.8 9.9,-24.6 20.3,-31.3 l 0.2,-0.2 c 8.8,9.9 18.9,18.7 30.2,26 z"
           id="path131"
           inkscape:connector-curvature="0" /><path
           d="m 483.7,878.3 c -14.5,-21.6 -35.8,-39.4 -62.6,-40.2 13.4,-8.7 25.2,-19.4 35.1,-31.7 13.5,22.2 22.7,46.4 27.5,71.9 z"
           id="path133"
           inkscape:connector-curvature="0" /><path
           d="m 300.6,788.2 c -19,-17.9 -45.7,-20.7 -70.6,-16.2 9,-5.8 18.6,-10.4 28.6,-14.2 11.8,-4.5 25.9,-11.3 38.7,-8.6 l 0.3,0 c -0.7,13 0.3,26.1 3,39 z"
           id="path135"
           inkscape:connector-curvature="0" /><path
           d="m 225,770.4 c 5.3,-25.8 2.9,-53.8 -15.7,-73.5 15.7,3.3 31.7,4.1 47.4,2.4 -6.1,25.5 -16.8,49.5 -31.7,71.1 z"
           id="path137"
           inkscape:connector-curvature="0" /><path
           d="m 184.6,547.1 c -9.6,8.6 -18,18.5 -25.1,29.4 -0.8,-25.5 -16.9,-46 -37.1,-60.4 10.7,2.4 20.9,6.2 31,10.8 10.8,4.9 24.5,9.8 31.2,20.2 z"
           id="path139"
           inkscape:connector-curvature="0" /><path
           d="m 191.8,483 c -0.1,0 -0.2,0.1 -0.3,0.1 -22.9,14 -47.9,23.5 -74.3,28.3 22.6,-14.5 41.5,-36.3 42.3,-64 8.8,13.6 19.7,25.6 32.3,35.6 z"
           id="path141"
           inkscape:connector-curvature="0" /><path
           d="m 259.3,509 c -24.5,0.3 -38.2,-28.5 -21.4,-47.3 7.4,15.7 14.5,31.5 21.4,47.3 z"
           id="path143"
           inkscape:connector-curvature="0" /><path
           d="m 259.3,514.9 c -6.9,15.9 -14.1,31.6 -21.4,47.3 -16.8,-18.8 -3.1,-47.6 21.4,-47.3 z"
           id="path145"
           inkscape:connector-curvature="0" /><path
           d="m 323.5,669.9 c -17.1,17.5 -47.2,6.8 -48.5,-18.3 16.3,5.9 32.5,12 48.5,18.3 z"
           id="path147"
           inkscape:connector-curvature="0" /><path
           d="m 346,722.5 c -25.1,-1.3 -35.9,-31.4 -18.3,-48.5 6.3,16.1 12.4,32.3 18.3,48.5 z"
           id="path149"
           inkscape:connector-curvature="0" /><path
           d="m 482.7,738.3 c 0.2,24.4 -28.5,38.1 -47.3,21.3 15.6,-7.3 31.3,-14.4 47.1,-21.3 0.1,0 0.2,0 0.2,0 z"
           id="path151"
           inkscape:connector-curvature="0" /><path
           d="m 535.8,759.6 c -18.7,16.8 -47.5,3.2 -47.3,-21.3 l 0.2,0 c 15.9,6.9 31.5,14 47.1,21.3 z"
           id="path153"
           inkscape:connector-curvature="0" /><path
           d="m 696.3,651.6 c -1.3,24.9 -30.9,35.7 -48.2,18.7 0.3,-0.3 0.6,-0.6 0.8,-0.9 15.7,-6.1 31.5,-12 47.4,-17.8 z"
           id="path155"
           inkscape:connector-curvature="0" /><path
           d="m 625.3,722.5 c 5.8,-15.9 11.7,-31.7 17.9,-47.3 0.3,-0.3 0.6,-0.5 0.8,-0.8 0.3,0.3 0.6,0.7 0.9,1 0,0.3 0.1,0.6 0.4,0.8 0.6,0.6 1.1,1.1 1.7,1.7 12.5,17.4 1.6,43.4 -21.7,44.6 z"
           id="path157"
           inkscape:connector-curvature="0" /><path
           d="m 733.3,562.1 c -7,-15.1 -13.9,-30.2 -20.5,-45.4 0,-0.6 0,-1.3 0,-1.9 23.9,0.4 37.2,28.8 20.5,47.3 z"
           id="path159"
           inkscape:connector-curvature="0" /><path
           d="m 712.8,509 c 0,-0.6 0,-1.3 0,-1.9 6.6,-15.2 13.5,-30.3 20.5,-45.4 16.6,18.6 3.5,46.9 -20.5,47.3 z"
           id="path161"
           inkscape:connector-curvature="0" /><path
           d="m 696.3,372.3 c -15.9,-5.8 -31.6,-11.7 -47.3,-17.8 -0.3,-0.3 -0.5,-0.6 -0.8,-0.9 17.1,-17 46.7,-6.3 48.1,18.7 z"
           id="path163"
           inkscape:connector-curvature="0" /><path
           d="m 644,349.5 c -0.3,-0.3 -0.6,-0.5 -0.8,-0.8 -6.2,-15.7 -12.1,-31.5 -17.9,-47.3 24.9,1.2 35.7,30.9 18.7,48.1 z"
           id="path165"
           inkscape:connector-curvature="0" /><path
           d="m 535.8,264.3 c -15.6,7.3 -31.2,14.4 -47,21.3 l -0.2,0 c -0.2,-24.5 28.5,-38.2 47.2,-21.3 z"
           id="path167"
           inkscape:connector-curvature="0" /><path
           d="m 482.7,285.5 c -0.1,0 -0.1,0 -0.2,0 -15.8,-6.9 -31.5,-14 -47.1,-21.3 18.8,-16.7 47.6,-3.1 47.3,21.3 z"
           id="path169"
           inkscape:connector-curvature="0" /><path
           d="m 346,301.3 c -5.9,16.2 -12,32.4 -18.3,48.5 -17.6,-17.1 -6.9,-47.2 18.3,-48.5 z"
           id="path171"
           inkscape:connector-curvature="0" /><path
           d="m 323.5,354 c -16.1,6.3 -32.3,12.4 -48.5,18.3 1.2,-23.3 27.2,-34.2 44.6,-21.7 0.4,0.4 0.7,0.7 1.1,1.1 0.2,0.2 0.5,0.3 0.8,0.4 0.7,0.6 1.4,1.2 2,1.9 z"
           id="path173"
           inkscape:connector-curvature="0" /><path
           d="m 320.4,358.1 c -4.3,4.7 -8.5,9.6 -12.4,14.6 -0.3,-0.1 -0.6,-0.1 -0.9,0.1 -27,11.7 -54.6,22.3 -82.5,31.6 -0.5,0.2 -0.7,0.5 -0.9,0.9 0,0.1 0,0.1 0,0.2 0,0.1 0,0.1 0,0.2 0,0.2 0,0.5 0.1,0.8 12.6,25.7 25.1,51.4 37.7,77 0.1,0.2 0.2,0.3 0.3,0.4 -0.8,6.7 -1.4,13.5 -1.6,20.3 -15.8,-36 -32.6,-71.5 -50.5,-106.6 37.2,-12 74.2,-25.2 110.7,-39.5 z"
           id="path175"
           inkscape:connector-curvature="0" /><path
           d="m 320.4,665.8 c -36.5,-14.3 -73.5,-27.5 -110.8,-39.5 17.9,-35 34.7,-70.5 50.5,-106.6 0.2,7 0.8,13.9 1.7,20.7 -0.1,0.1 -0.3,0.3 -0.4,0.5 -12.6,25.7 -25.1,51.4 -37.7,77 -0.4,0.9 0.2,1.8 1,2 -0.4,0.7 -0.2,1.7 0.7,2.1 27,9.3 54.1,18.6 81.1,27.8 0.2,0.1 0.3,0.1 0.4,0.1 4.3,5.5 8.8,10.8 13.5,15.9 z"
           id="path177"
           inkscape:connector-curvature="0" /><path
           d="m 476.2,738.2 c -35.5,15.6 -70.5,32.1 -104.9,49.8 -12.1,-37.3 -25.2,-74.2 -39.5,-110.7 4.9,4.6 10,9 15.4,13.2 0,0 0,0.1 0,0.1 9.3,27 18.5,54.1 27.8,81.1 0.1,0.5 0.5,0.7 0.8,0.8 0.4,0.2 0.8,0.2 1.2,0 26.3,-13.1 53.2,-25.1 80.5,-35.9 6.2,0.7 12.4,1.3 18.7,1.6 z"
           id="path179"
           inkscape:connector-curvature="0" /><path
           d="m 638.5,679.6 c -13.9,35.7 -26.8,71.9 -38.6,108.4 -34.4,-17.6 -69.4,-34.2 -104.8,-49.7 6,-0.2 11.9,-0.7 17.8,-1.4 27.1,10.7 53.6,22.5 79.7,35.6 0.4,0.2 0.9,0.2 1.2,0 0.3,-0.1 0.7,-0.4 0.8,-0.8 8.9,-25.9 17.8,-51.9 26.7,-77.8 6,-4.6 11.8,-9.3 17.2,-14.3 z"
           id="path181"
           inkscape:connector-curvature="0" /><path
           d="m 761.6,626.3 c -36.5,11.8 -72.6,24.7 -108.3,38.6 4.3,-4.6 8.3,-9.5 12.2,-14.5 26.1,-11.2 52.6,-21.4 79.5,-30.4 0.5,-0.2 0.7,-0.5 0.9,-0.9 0,-0.1 0,-0.1 0,-0.2 0,-0.1 0,-0.1 0,-0.2 0,-0.2 0,-0.5 -0.1,-0.8 -11.8,-24.1 -23.6,-48.3 -35.4,-72.5 1.1,-7.3 1.8,-14.8 2.2,-22.4 15.4,34.9 31.7,69.4 49,103.3 z"
           id="path183"
           inkscape:connector-curvature="0" /><path
           d="m 761.6,397.6 c -17.4,33.9 -33.7,68.4 -49,103.2 -0.3,-6.7 -1,-13.3 -1.9,-19.9 10.4,-26 21.8,-51.5 34.3,-76.6 0.2,-0.4 0.2,-0.9 0,-1.2 -0.1,-0.4 -0.4,-0.7 -0.8,-0.8 -25.6,-8.8 -51.1,-17.5 -76.7,-26.3 -4.4,-5.9 -9.2,-11.6 -14.2,-17 35.8,13.9 71.9,26.8 108.3,38.6 z"
           id="path185"
           inkscape:connector-curvature="0" /><path
           d="m 638.5,344.3 c -5.6,-5.1 -11.4,-9.9 -17.5,-14.3 -8.8,-25.7 -17.6,-51.5 -26.5,-77.2 -0.1,-0.4 -0.4,-0.7 -0.8,-0.8 -0.4,-0.2 -0.8,-0.2 -1.2,0 -25.8,12.9 -52.1,24.6 -78.8,35.2 -6.2,-0.8 -12.4,-1.3 -18.7,-1.5 35.4,-15.6 70.4,-32.1 104.8,-49.7 11.9,36.4 24.9,72.6 38.7,108.3 z"
           id="path187"
           inkscape:connector-curvature="0" /><path
           d="m 476.2,285.7 c -6.6,0.3 -13.2,0.9 -19.6,1.8 C 429.6,276.8 403,265 377,252 c -0.4,-0.2 -0.9,-0.2 -1.2,0 -0.3,0.1 -0.7,0.4 -0.8,0.8 -9.2,26.9 -18.4,53.7 -27.6,80.6 -5.4,4.2 -10.6,8.6 -15.6,13.3 14.3,-36.5 27.5,-73.4 39.5,-110.7 34.5,17.6 69.5,34.2 104.9,49.7 z"
           id="path189"
           inkscape:connector-curvature="0" /></g></g></switch></svg>