<?xml version="1.0" encoding="UTF-8" standalone="no"?>
<svg
   xmlns:dc="http://purl.org/dc/elements/1.1/"
   xmlns:cc="http://creativecommons.org/ns#"
   xmlns:rdf="http://www.w3.org/1999/02/22-rdf-syntax-ns#"
   xmlns:svg="http://www.w3.org/2000/svg"
   xmlns="http://www.w3.org/2000/svg"
   xmlns:sodipodi="http://sodipodi.sourceforge.net/DTD/sodipodi-0.dtd"
   xmlns:inkscape="http://www.inkscape.org/namespaces/inkscape"
   version="1.1"
   id="Layer_1"
   x="0px"
   y="0px"
   viewBox="0 0 1000 1000"
   width="100%"
   height="100%"
   style="enable-background:new 0 0 1000 1000;"
   xml:space="preserve"
   ><style
     type="text/css"
     id="style3">
	.noFillSVG{fill:none;}
</style><switch
     id="switch5"
     transform="translate(35.047101,-9.0606283)"><g
       id="g7"><g
         id="g9"><path
           class="noFillSVG"
           d="m 382.6,268.6 c 3.4,-15.9 10.6,-31.1 21.4,-44.7 1.8,-2.2 3.5,-4.3 5.3,-6.5 -8.3,-4.3 -17.9,-4.3 -27.6,-3.7 0,0.1 0,0.3 0,0.4 -0.1,18.2 0.2,36.3 0.9,54.5 z"
           id="path11"
           inkscape:connector-curvature="0"
           style="fill:none" /><path
           class="noFillSVG"
           d="m 374.1,214.2 c -9.9,0.6 -19.6,0.9 -27.8,-3.3 8.9,24.8 18.4,49.3 29.4,73.2 -1.3,-23.3 -1.8,-46.6 -1.6,-69.9 z"
           id="path13"
           inkscape:connector-curvature="0"
           style="fill:none" /><path
           class="noFillSVG"
           d="m 339.4,214.3 c -3,8.6 -9.8,15.2 -17.2,21.6 15.2,15 29.9,30.5 44.2,46.3 -9.9,-22.2 -18.7,-44.9 -27,-67.9 z"
           id="path15"
           inkscape:connector-curvature="0"
           style="fill:none" /><path
           class="noFillSVG"
           d="m 173,380.8 c 23,8.2 45.7,17 68,27 -15.8,-14.3 -31.3,-29 -46.3,-44.2 -6.5,7.3 -13.1,14.2 -21.7,17.2 z"
           id="path17"
           inkscape:connector-curvature="0"
           style="fill:none" /><path
           class="noFillSVG"
           d="m 169.6,387.6 c 4.2,8.2 4,17.9 3.3,27.8 23.3,-0.2 46.6,0.3 69.9,1.5 -23.9,-10.9 -48.4,-20.4 -73.2,-29.3 z"
           id="path19"
           inkscape:connector-curvature="0"
           style="fill:none" /><path
           class="noFillSVG"
           d="m 710.9,674.7 c 0,0 0,0 0,0 9.1,-2.8 16,-9.6 22.5,-16.9 -0.1,-0.1 -0.2,-0.2 -0.3,-0.3 -12.3,-12.5 -25,-24.6 -37.9,-36.5 7.2,12 12.1,25.3 14.2,39.5 0.6,4.7 1.1,9.5 1.5,14.2 z"
           id="path21"
           inkscape:connector-curvature="0"
           style="fill:none" /><path
           class="noFillSVG"
           d="m 218.8,342.2 c -7.5,3.3 -13.4,9.2 -19.1,15.6 0.1,0.1 0.2,0.2 0.3,0.3 9.9,10 20.1,19.9 30.3,29.5 -4.9,-9.6 -8.3,-20.1 -10,-31.3 -0.6,-4.6 -1.1,-9.3 -1.5,-14.1 z"
           id="path23"
           inkscape:connector-curvature="0"
           style="fill:none" /><path
           class="noFillSVG"
           d="m 172.8,423.1 c -0.1,0 -0.3,0 -0.4,0 -0.6,9.2 -0.6,18.3 3.1,26.3 2,-1.6 3.9,-3.2 6,-4.8 13,-10.1 27.7,-17.1 43.2,-20.7 -17.3,-0.7 -34.6,-1 -51.9,-0.8 z"
           id="path25"
           inkscape:connector-curvature="0"
           style="fill:none" /><path
           class="noFillSVG"
           d="m 760.2,415.4 c -0.7,-9.9 -0.9,-19.6 3.3,-27.8 -24.8,8.9 -49.3,18.4 -73.2,29.4 23.2,-1.3 46.5,-1.8 69.9,-1.6 z"
           id="path27"
           inkscape:connector-curvature="0"
           style="fill:none" /><path
           class="noFillSVG"
           d="m 756.8,451 c 0.1,-0.1 0.1,-0.2 0.1,-0.3 4.3,-8.3 4.3,-17.9 3.8,-27.7 -0.1,0 -0.2,0 -0.4,0 -18.1,-0.2 -36.2,0.2 -54.3,0.8 15.3,3.6 29.9,10.6 42.8,20.6 2.7,2.2 5.4,4.4 8,6.6 z"
           id="path29"
           inkscape:connector-curvature="0"
           style="fill:none" /><path
           class="noFillSVG"
           d="m 711.5,359.6 c -3.3,20.2 -12.5,37.2 -25.8,51 24.2,-11.2 49.2,-20.9 74.3,-29.9 -18.5,-6.4 -27.8,-31.1 -46.4,-38.8 -0.5,6 -1.1,11.9 -2.1,17.7 z"
           id="path31"
           inkscape:connector-curvature="0"
           style="fill:none" /><path
           class="noFillSVG"
           d="m 524.4,217.1 c 2.1,2.5 4.2,5.1 6.2,7.6 9.4,12.2 16.2,25.7 20,40 0.6,-16.9 0.9,-33.8 0.7,-50.7 0,-0.1 0,-0.3 0,-0.4 -9.4,-0.4 -18.7,-0.4 -26.9,3.5 z"
           id="path33"
           inkscape:connector-curvature="0"
           style="fill:none" /><path
           class="noFillSVG"
           d="m 586.8,210.9 c -8.2,4.2 -17.9,4 -27.8,3.3 0.2,23.3 -0.3,46.6 -1.5,69.9 10.9,-23.9 20.4,-48.4 29.3,-73.2 z"
           id="path35"
           inkscape:connector-curvature="0"
           style="fill:none" /><path
           class="noFillSVG"
           d="m 633.2,262.9 c -2.9,-8.8 -9.6,-15.5 -16.7,-21.9 -0.1,0.1 -0.2,0.2 -0.3,0.3 -11.8,11.7 -23.3,23.6 -34.5,35.7 10.9,-6.3 23.1,-10.6 36.1,-12.5 5.2,-0.7 10.3,-1.2 15.4,-1.6 z"
           id="path37"
           inkscape:connector-curvature="0"
           style="fill:none" /><path
           class="noFillSVG"
           d="m 593.6,214.3 c -8.2,22.9 -17,45.7 -27,67.9 14.3,-15.8 29,-31.3 44.2,-46.3 -7.3,-6.4 -14.2,-13 -17.2,-21.6 z"
           id="path39"
           inkscape:connector-curvature="0"
           style="fill:none" /><path
           class="noFillSVG"
           d="m 556.8,801.5 c 9.9,-0.6 19.6,-0.9 27.8,3.3 -8.9,-24.8 -18.4,-49.3 -29.3,-73.2 1.2,23.2 1.7,46.6 1.5,69.9 z"
           id="path41"
           inkscape:connector-curvature="0"
           style="fill:none" /><path
           class="noFillSVG"
           d="m 591.5,801.4 c 3,-8.6 9.8,-15.2 17.2,-21.6 -15.2,-15 -29.9,-30.5 -44.2,-46.3 10,22.1 18.7,44.9 27,67.9 z"
           id="path43"
           inkscape:connector-curvature="0"
           style="fill:none" /><path
           class="noFillSVG"
           d="m 586.1,745.5 c 9.2,9.8 18.5,19.4 28,28.8 0.1,0.1 0.2,0.2 0.3,0.3 6.2,-5.5 12,-11.3 15.3,-18.4 -5.1,-0.4 -10.2,-1 -15.3,-1.8 -10,-1.6 -19.5,-4.6 -28.3,-8.9 z"
           id="path45"
           inkscape:connector-curvature="0"
           style="fill:none" /><path
           class="noFillSVG"
           d="m 760.3,592.6 c 0.1,0 0.2,0 0.4,0 0.6,-9.5 0.6,-18.8 -3.4,-26.9 -2.5,2.1 -5,4.2 -7.6,6.2 -12.4,9.7 -26,16.4 -40.4,20 17,0.6 34,0.9 51,0.7 z"
           id="path47"
           inkscape:connector-curvature="0"
           style="fill:none" /><path
           class="noFillSVG"
           d="m 760.1,634.9 c -22.9,-8.2 -45.7,-17 -67.9,-27 15.8,14.3 31.3,29 46.3,44.2 6.3,-7.3 13,-14.2 21.6,-17.2 z"
           id="path49"
           inkscape:connector-curvature="0"
           style="fill:none" /><path
           class="noFillSVG"
           d="m 763.5,628.1 c -4.2,-8.2 -4,-17.9 -3.3,-27.8 -23.3,0.2 -46.6,-0.3 -69.9,-1.5 23.9,10.9 48.4,20.4 73.2,29.3 z"
           id="path51"
           inkscape:connector-curvature="0"
           style="fill:none" /><path
           class="noFillSVG"
           d="m 548.3,747.6 c -3.5,16.3 -10.8,31.8 -21.6,45.5 -1.4,1.8 -3,3.7 -4.5,5.5 8.1,4 17.4,4 26.9,3.4 0,-0.1 -0.1,-0.3 -0.1,-0.4 0.3,-18 0,-36 -0.7,-54 z"
           id="path53"
           inkscape:connector-curvature="0"
           style="fill:none" /><path
           class="noFillSVG"
           d="m 300.3,754.1 c 3.1,8.2 9.4,14.5 16.2,20.6 0.1,-0.1 0.2,-0.2 0.3,-0.3 11.5,-11.4 22.7,-23 33.7,-34.8 -11.6,6.7 -24.5,11.2 -38.1,13.2 -4,0.5 -8,0.9 -12.1,1.3 z"
           id="path55"
           inkscape:connector-curvature="0"
           style="fill:none" /><path
           class="noFillSVG"
           d="m 218.8,657.6 c 1.7,-10.7 5.1,-20.7 9.8,-30 -9.7,9.1 -19.2,18.3 -28.5,27.8 -0.1,0.1 -0.2,0.2 -0.3,0.3 5.2,5.9 10.7,11.4 17.4,14.8 0.4,-4.3 0.9,-8.6 1.6,-12.9 z"
           id="path57"
           inkscape:connector-curvature="0"
           style="fill:none" /><path
           class="noFillSVG"
           d="m 173,632.8 c 8.6,3 15.2,9.8 21.7,17.2 15,-15.2 30.5,-29.9 46.3,-44.2 -22.3,10 -45,18.7 -68,27 z"
           id="path59"
           inkscape:connector-curvature="0"
           style="fill:none" /><path
           class="noFillSVG"
           d="m 214.6,590.1 c -12,-3.9 -23.4,-9.9 -34,-18.2 -2.1,-1.7 -4.1,-3.3 -6.2,-5 -2.6,7.3 -2.5,15.4 -2,23.6 0.1,0 0.3,-0.1 0.4,-0.1 13.9,0.2 27.9,0.1 41.8,-0.3 z"
           id="path61"
           inkscape:connector-curvature="0"
           style="fill:none" /><path
           class="noFillSVG"
           d="m 339.4,801.4 c 8.2,-22.9 17,-45.7 27,-67.9 -14.3,15.8 -29,31.3 -44.2,46.3 7.4,6.4 14.3,13 17.2,21.6 z"
           id="path63"
           inkscape:connector-curvature="0"
           style="fill:none" /><path
           class="noFillSVG"
           d="m 242.8,596.6 c -23.3,1.2 -46.6,1.7 -69.9,1.5 0.6,9.9 0.8,19.6 -3.3,27.8 24.8,-8.9 49.3,-18.3 73.2,-29.3 z"
           id="path65"
           inkscape:connector-curvature="0"
           style="fill:none" /><path
           class="noFillSVG"
           d="m 346.3,804.8 c 8.2,-4.2 17.9,-4 27.8,-3.3 -0.2,-23.3 0.3,-46.6 1.5,-69.9 -10.9,23.9 -20.4,48.4 -29.3,73.2 z"
           id="path67"
           inkscape:connector-curvature="0"
           style="fill:none" /><path
           class="noFillSVG"
           d="m 382.1,761 c -0.4,13.5 -0.5,27.1 -0.4,40.6 0,0.1 0,0.3 0,0.4 8.1,0.5 16.1,0.6 23.4,-1.9 -1.8,-2.2 -3.6,-4.3 -5.3,-6.6 C 391.9,783.3 386,772.4 382.1,761 Z"
           id="path69"
           inkscape:connector-curvature="0"
           style="fill:none" /><path
           class="noFillSVG"
           d="m 347.6,273 c -10.1,-10.8 -20.3,-21.3 -30.8,-31.7 -0.1,-0.1 -0.2,-0.2 -0.3,-0.3 -6.5,5.8 -12.6,11.9 -15.8,19.6 4.9,0.5 9.7,1 14.5,1.8 11.5,1.8 22.4,5.4 32.4,10.6 z"
           id="path71"
           inkscape:connector-curvature="0"
           style="fill:none" /><path
           class="noFillSVG"
           d="m 585.9,402.7 c 19.6,0 19.7,-30.5 0,-30.5 -19.7,0 -19.7,30.5 0,30.5 z"
           id="path73"
           inkscape:connector-curvature="0"
           style="fill:none" /><path
           class="noFillSVG"
           d="m 709.1,432.3 c -16.3,-4.6 -33.5,-4.9 -50,-0.9 -1.4,0.5 -2.7,0.1 -3.7,-0.9 0,-0.1 -0.1,-0.1 -0.1,-0.1 -0.1,-0.2 -0.3,-0.3 -0.4,-0.5 0,0 -0.1,-0.1 -0.1,-0.1 -0.1,-0.2 -0.2,-0.4 -0.3,-0.6 l 0,0 c -0.3,-0.6 -0.4,-1.3 -0.4,-2 0,-0.1 0,-0.2 0,-0.2 0,-0.1 0,-0.2 0,-0.3 0.2,-1.1 0.8,-2 2,-2.5 13,-7.8 25.1,-17.6 33.8,-30.1 9.9,-14.2 13.9,-30.4 15.5,-47.5 2.9,-31.2 4.6,-61.6 15.5,-90.9 -12.3,4.7 -24.9,8.3 -38,10.5 -17.3,2.9 -34.8,3.2 -52.2,4.6 -17.2,1.3 -33.6,5.1 -48.3,14.4 -12.7,8 -23.1,19 -31.2,31.6 -0.1,0.4 -0.2,0.8 -0.2,1.1 -1,4.2 -6.8,3.1 -7.4,-0.4 -0.5,-1 -0.5,-2.1 0.3,-3.3 0.1,-0.1 0.2,-0.3 0.3,-0.4 3.6,-15.9 3.4,-32.3 -0.9,-48.1 -4.7,-17.1 -14.3,-31.4 -25.7,-44.8 -19.2,-22.5 -38,-44.7 -50.3,-71.6 -5.2,11.5 -11.3,22.6 -18.6,33 -9.3,13.2 -20.1,24.9 -30.7,36.9 -11.5,13 -21.6,26.8 -26.5,43.6 -4.8,16.6 -4.7,34.1 -0.8,50.9 0.9,3.8 -3.6,5.9 -6,4.1 -0.5,-0.3 -1,-0.7 -1.3,-1.3 -17.8,-29.4 -47.5,-44.9 -81.1,-48 -31.2,-2.8 -61.6,-4.4 -91,-15.3 4.7,12.3 8.3,24.9 10.6,38 3,17.3 3.3,34.7 4.7,52.2 1.4,17.2 5.2,33.6 14.5,48.3 8.3,13.1 19.7,23.8 32.9,31.9 0.9,0.6 1.4,1.3 1.7,2.1 1.5,2.5 -0.5,6.7 -4.2,5.8 -16.5,-4 -33.8,-3.7 -50.2,0.9 -17.1,4.8 -31.3,14.6 -44.6,26.1 -22.4,19.4 -44.4,38.3 -71.2,50.8 11.6,5.1 22.7,11.2 33.2,18.4 13.2,9.1 25.1,19.9 37.1,30.4 13.1,11.4 26.9,21.4 43.8,26.1 16.1,4.5 32.9,4.4 49.1,0.7 0.2,-0.1 0.4,-0.3 0.7,-0.4 2.4,-1.4 4.7,0.1 5.4,2.1 0.9,2 0.4,4.6 -2.3,5.3 -0.3,0.1 -0.6,0.1 -0.9,0.2 -12.6,7.8 -23.7,18 -31.7,30.5 -9.4,14.6 -13.5,30.9 -15.1,48.1 -0.7,7.8 -1.2,15.6 -1.9,23.4 0.5,1.1 0.4,2.6 -0.3,3.7 -0.7,8.4 -1.6,16.7 -3.2,25 -2.4,13 -6.2,25.6 -11.1,37.8 29.5,-10.5 59.8,-11.6 91.1,-14.1 33,-2.6 62.3,-17.2 80.6,-45.2 0,-0.1 0.1,-0.3 0.1,-0.4 0.3,-1.3 1.2,-2.1 2.1,-2.5 3,-2.1 7.8,1.3 5.5,5 -0.2,0.3 -0.4,0.6 -0.6,0.9 -0.3,1.3 -0.6,2.6 -0.9,3.8 0.1,0.6 -0.1,1.3 -0.4,2 -2.6,14.5 -2.4,29.4 1.5,43.7 4.6,16.9 14.5,30.9 25.8,44.1 10.4,12.2 21.1,24.1 30.1,37.4 7.1,10.6 13.1,21.7 18.1,33.4 12.7,-26.7 31.8,-48.5 51.4,-70.8 11.6,-13.2 21.5,-27.3 26.5,-44.3 4.8,-16.4 5.2,-33.6 1.3,-50.1 -0.2,-0.7 -0.1,-1.4 0.1,-2 0.6,-2.9 5.1,-4.6 7.1,-1.3 8,13.3 18.5,24.9 31.6,33.2 14.6,9.4 30.9,13.5 48.1,15 17.4,1.6 34.9,2.1 52.1,5.2 13,2.3 25.6,6.1 37.9,10.9 -10.5,-29.5 -11.8,-59.8 -14.3,-91.1 -2.7,-33.6 -17.9,-63.5 -47.1,-81.6 -3.2,-2 -1.6,-6.4 1.2,-7.1 0.7,-0.4 1.6,-0.5 2.6,-0.3 16.8,4 34.3,4.3 50.9,-0.4 16.9,-4.8 30.7,-14.8 43.8,-26.1 12.1,-10.6 23.9,-21.3 37.1,-30.4 10.5,-7.2 21.6,-13.3 33.2,-18.4 C 798,496.6 776,477.7 753.6,458.3 740.4,446.9 726.2,437.1 709.1,432.3 Z M 695.6,274.4 c 1.2,0 2.2,0.5 2.8,1.2 2,2.1 1.1,6.5 -2.7,6.5 -1.2,0 -2.2,-0.5 -2.8,-1.2 -2,-2 -1.1,-6.5 2.7,-6.5 z m -1,25.4 c 4.9,0 4.9,7.6 0,7.6 -4.9,0 -4.9,-7.6 0,-7.6 z m -4.6,30 c 4.9,0 4.9,7.6 0,7.6 -5,0 -5,-7.6 0,-7.6 z m -7.1,26.4 c 4.9,0 4.9,7.6 0,7.6 -4.9,0 -4.9,-7.6 0,-7.6 z m -12.5,-80.4 c 4.9,0 4.9,7.6 0,7.6 -4.9,0 -4.9,-7.6 0,-7.6 z m -1.2,105 c 4.9,0 4.9,7.6 0,7.6 -4.9,0 -4.9,-7.6 0,-7.6 z M 231.4,274.2 c 0.6,-0.7 1.5,-1.2 2.8,-1.2 3.8,0 4.6,4.4 2.7,6.5 -0.6,0.7 -1.5,1.2 -2.8,1.2 -3.8,0.1 -4.6,-4.3 -2.7,-6.5 z m 3.9,24.1 c 4.9,0 4.9,7.6 0,7.6 -4.9,0.1 -4.9,-7.6 0,-7.6 z m 4.9,37.6 c -4.9,0 -4.9,-7.6 0,-7.6 4.9,0 4.9,7.6 0,7.6 z m 7.2,26.4 c -4.9,0 -4.9,-7.6 0,-7.6 4.9,0 4.9,7.6 0,7.6 z m 12,-88.1 c 4.9,0 4.9,7.6 0,7.6 -4.9,0 -4.9,-7.6 0,-7.6 z m 1.8,112.7 c -4.9,0 -4.9,-7.6 0,-7.6 5,-0.1 5,7.6 0,7.6 z M 137.4,515 c -2.5,0 -3.7,-2 -3.7,-3.9 0,-1.9 1.2,-3.9 3.7,-3.9 2.5,0 3.7,2 3.7,3.9 0,2 -1.2,3.9 -3.7,3.9 z m 18.4,-25 c 4.9,0 4.9,7.6 0,7.6 -4.9,0.1 -4.9,-7.6 0,-7.6 z m 0.4,41.7 c -4.9,0 -4.9,-7.6 0,-7.6 5,0 5,7.6 0,7.6 z m 24,-59.8 c 4.9,0 4.9,7.6 0,7.6 -4.9,0.1 -4.9,-7.6 0,-7.6 z m 0.9,77.3 c -4.9,0 -4.9,-7.6 0,-7.6 4.9,0 4.9,7.6 0,7.6 z m 22.6,-91.1 c 4.9,0 4.9,7.6 0,7.6 -4.9,0 -4.9,-7.6 0,-7.6 z m 1.3,104.4 c -4.9,0 -4.9,-7.6 0,-7.6 4.9,0 4.9,7.6 0,7.6 z m 27.8,181.2 c -1.2,0 -2.2,-0.5 -2.8,-1.2 -2,-2.1 -1.1,-6.5 2.7,-6.5 1.2,0 2.2,0.5 2.8,1.2 1.9,2 1,6.5 -2.7,6.5 z m 1,-25.3 c -4.9,0 -4.9,-7.6 0,-7.6 4.9,-0.1 4.9,7.6 0,7.6 z m 4.6,-30 c -4.9,0 -4.9,-7.6 0,-7.6 4.9,-0.1 4.9,7.6 0,7.6 z m 7.1,-26.4 c -4.9,0 -4.9,-7.6 0,-7.6 4.9,-0.1 4.9,7.6 0,7.6 z m 12.5,80.4 c -4.9,0 -4.9,-7.6 0,-7.6 4.9,-0.1 4.9,7.6 0,7.6 z m 1.2,-105.1 c -4.9,0 -4.9,-7.6 0,-7.6 4.9,0 4.9,7.6 0,7.6 z m 437.7,106.6 c -0.6,0.7 -1.5,1.2 -2.8,1.2 -3.8,0 -4.6,-4.4 -2.7,-6.5 0.6,-0.7 1.5,-1.2 2.8,-1.2 3.8,-0.1 4.7,4.4 2.7,6.5 z M 693,719.8 c -4.9,0 -4.9,-7.6 0,-7.6 5,0 5,7.6 0,7.6 z m -4.8,-37.6 c 4.9,0 4.9,7.6 0,7.6 -4.9,0 -4.9,-7.6 0,-7.6 z M 681,655.8 c 4.9,0 4.9,7.6 0,7.6 -5,0 -5,-7.6 0,-7.6 z m -12,88.1 c -4.9,0 -4.9,-7.6 0,-7.6 4.9,0 4.9,7.6 0,7.6 z m -1.9,-112.6 c 4.9,0 4.9,7.6 0,7.6 -4.9,0 -4.9,-7.6 0,-7.6 z M 663,442.8 c 4.9,0 4.9,7.6 0,7.6 -4.9,0 -4.9,-7.6 0,-7.6 z m -12.8,-34.3 c 4.9,0 4.9,7.6 0,7.6 -5,0 -5,-7.6 0,-7.6 z m -9.8,-127.8 c 4.9,0 4.9,7.6 0,7.6 -4.9,0 -4.9,-7.6 0,-7.6 z m -7.1,61 c 3.3,0 3.3,5.1 0,5.1 -3.2,-0.1 -3.2,-5.1 0,-5.1 z m -5.2,102.7 c -4.9,0 -4.9,-7.6 0,-7.6 4.9,0 4.9,7.6 0,7.6 z M 614.1,288 c 4.9,0 4.9,7.6 0,7.6 -4.9,0 -4.9,-7.6 0,-7.6 z m -24.5,13.9 c 4.9,0 4.9,7.6 0,7.6 -4.9,0.1 -4.9,-7.6 0,-7.6 z m -27.5,19.3 c 4.9,0 4.9,7.6 0,7.6 -4.9,0.1 -4.9,-7.6 0,-7.6 z m -29.7,27.7 c -4.9,0 -4.9,-7.6 0,-7.6 5,-0.1 5,7.6 0,7.6 z m -4.2,-35.7 c -4.9,0 -4.9,-7.6 0,-7.6 4.9,0 4.9,7.6 0,7.6 z m -5.9,-40.7 c 4.9,0 4.9,7.6 0,7.6 -5,0.1 -4.9,-7.6 0,-7.6 z m -7.7,-27.1 c 4.9,0 4.9,7.6 0,7.6 -4.9,0 -4.9,-7.6 0,-7.6 z m -13.5,-23.7 c 4.9,0 4.9,7.6 0,7.6 -4.9,0 -4.9,-7.6 0,-7.6 z m -17.8,-24.6 c 4.9,0 4.9,7.6 0,7.6 -5,0 -4.9,-7.6 0,-7.6 z m -17.2,-18.7 c 0.1,0 0.1,0 0,0 0.1,0 0.1,0 0.2,0 4.9,0 4.9,7.6 0,7.6 0,0 -0.1,0 -0.1,0 0,0 -0.1,0 -0.1,0 -4.9,0.1 -4.9,-7.6 0,-7.6 z m 1.1,98 c -3.3,0 -3.3,-5.1 0,-5.1 3.2,0 3.2,5.1 0,5.1 z m -18,-79.3 c 4.9,0 4.9,7.6 0,7.6 -4.9,0 -4.9,-7.6 0,-7.6 z m -17.8,24.6 c 4.9,0 4.9,7.6 0,7.6 -4.9,0 -4.9,-7.6 0,-7.6 z m -13.6,23.7 c 4.9,0 4.9,7.6 0,7.6 -4.9,0 -4.9,-7.6 0,-7.6 z m -7.6,27.1 c 4.9,0 4.9,7.6 0,7.6 -4.9,0.1 -4.9,-7.6 0,-7.6 z m -6,33.1 c 4.9,0 4.9,7.6 0,7.6 -4.9,0 -4.9,-7.6 0,-7.6 z m -8,35.5 c 4.9,0 4.9,7.6 0,7.6 -4.9,0 -4.9,-7.6 0,-7.6 z M 368,319 c 4.9,0 4.9,7.6 0,7.6 -4.9,0 -4.9,-7.6 0,-7.6 z m -27.6,-19.2 c 4.9,0 4.9,7.6 0,7.6 -4.9,0.1 -4.9,-7.6 0,-7.6 z m -24.6,-13.7 c 4.9,0 4.9,7.6 0,7.6 -4.9,0 -4.9,-7.6 0,-7.6 z m -16.5,160.6 c -4.9,0 -4.9,-7.6 0,-7.6 4.9,0 4.9,7.6 0,7.6 z m -1.7,-108.4 c 3.3,0 3.3,5.1 0,5.1 -3.3,-0.1 -3.3,-5.1 0,-5.1 z m -8.2,-59.4 c 4.9,0 4.9,7.6 0,7.6 -4.9,0.1 -4.9,-7.6 0,-7.6 z m -8.9,127.9 c 4.9,0 4.9,7.6 0,7.6 -4.9,0 -4.9,-7.6 0,-7.6 z m -16.7,36.9 c 4.9,0 4.9,7.6 0,7.6 -4.9,0.1 -4.9,-7.6 0,-7.6 z m -33,6.4 c 4.9,0 4.9,7.6 0,7.6 -4.9,0 -4.9,-7.6 0,-7.6 z m -1.1,54.3 c 3.3,0 3.3,5.1 0,5.1 -3.2,0 -3.2,-5.1 0,-5.1 z m 2.5,65.4 c -4.9,0 -4.9,-7.6 0,-7.6 4.9,0 4.9,7.6 0,7.6 z m 33.1,5.5 c -4.9,0 -4.9,-7.6 0,-7.6 4.9,0 4.9,7.6 0,7.6 z m 12.9,34.3 c -4.9,0 -4.9,-7.6 0,-7.6 4.9,0 4.9,7.6 0,7.6 z m 9.7,127.8 c -4.9,0 -4.9,-7.6 0,-7.6 4.9,0 4.9,7.6 0,7.6 z m 10.5,-60 c -3.3,0 -3.3,-5.1 0,-5.1 3.3,0 3.3,5.1 0,5.1 z m 1.9,-103.7 c 4.9,0 4.9,7.6 0,7.6 -5,0.1 -4.9,-7.6 0,-7.6 z m 14,156.4 c -4.9,0 -4.9,-7.6 0,-7.6 4.9,0 4.9,7.6 0,7.6 z m 24.5,-13.9 c -4.9,0 -4.9,-7.6 0,-7.6 4.9,0 4.9,7.6 0,7.6 z m 27.5,-19.3 c -4.9,0 -4.9,-7.6 0,-7.6 4.9,0 4.9,7.6 0,7.6 z m 29.6,-27.6 c 4.9,0 4.9,7.6 0,7.6 -4.9,0 -4.9,-7.6 0,-7.6 z m 4.3,35.6 c 4.9,0 4.9,7.6 0,7.6 -4.9,0 -4.9,-7.6 0,-7.6 z m 5.9,40.7 c -4.9,0 -4.9,-7.6 0,-7.6 4.9,-0.1 4.9,7.6 0,7.6 z m 7.6,27.1 c -4.9,0 -4.9,-7.6 0,-7.6 5,0 4.9,7.6 0,7.6 z m 13.6,23.7 c -4.9,0 -4.9,-7.6 0,-7.6 4.9,0 4.9,7.6 0,7.6 z m 17.8,24.6 c -4.9,0 -4.9,-7.6 0,-7.6 4.9,0 4.9,7.6 0,7.6 z m 17.1,18.7 c 0,0 0,0 0,0 -0.1,0 -0.1,0 -0.2,0 -4.9,0 -4.9,-7.6 0,-7.6 0,0 0.1,0 0.1,0 0,0 0.1,0 0.1,0 5,0 4.9,7.6 0,7.6 z m 2.4,-90.2 c -3.3,0 -3.3,-5.1 0,-5.1 3.3,0 3.3,5.1 0,5.1 z m 14.6,71.5 c -4.9,0 -4.9,-7.6 0,-7.6 4.9,0 4.9,7.6 0,7.6 z M 497,796.4 c -4.9,0 -4.9,-7.6 0,-7.6 4.9,0 4.9,7.6 0,7.6 z m 13.6,-23.7 c -4.9,0 -4.9,-7.6 0,-7.6 4.9,0 4.9,7.6 0,7.6 z m 7.6,-27.1 c -4.9,0 -4.9,-7.6 0,-7.6 4.9,-0.1 4.9,7.6 0,7.6 z m 5.9,-33.1 c -4.9,0 -4.9,-7.6 0,-7.6 5,0 4.9,7.6 0,7.6 z m 4.3,-35.6 c -4.9,0 -4.9,-7.6 0,-7.6 4.9,0 4.9,7.6 0,7.6 z m 32,22.2 c -4.9,0 -4.9,-7.6 0,-7.6 4.9,0 4.9,7.6 0,7.6 z m 27.6,19.2 c -4.9,0 -4.9,-7.6 0,-7.6 4.9,-0.1 4.9,7.6 0,7.6 z m 24.6,13.7 c -4.9,0 -4.9,-7.6 0,-7.6 4.9,0 4.9,7.6 0,7.6 z m 13.1,-148.8 c -4.9,0 -4.9,-7.6 0,-7.6 4.9,0 4.9,7.6 0,7.6 z m 6.8,97.6 c -3.3,0 -3.3,-5.1 0,-5.1 3.3,0 3.3,5.1 0,5.1 z m 6.5,58.4 c -4.9,0 -4.9,-7.6 0,-7.6 4.9,0 4.9,7.6 0,7.6 z m 8.9,-127.9 c -4.9,0 -4.9,-7.6 0,-7.6 4.9,0 4.9,7.6 0,7.6 z m 16.7,-36.9 c -4.9,0 -4.9,-7.6 0,-7.6 4.9,0 4.9,7.6 0,7.6 z m 26.1,-65.8 c 0,0.1 -0.1,0.3 -0.2,0.4 l 0,0 c 0,0 0,0 0,0.1 0,0 0,0 -0.1,0.1 -9.5,14 -22.1,26 -37.4,33.3 -13.6,6.6 -31.4,10.7 -45.7,4.2 -3.5,12.8 -8.6,24.9 -15.2,36 14.6,5.7 24.2,21.2 29.1,35.5 5.5,15.9 5.9,33.2 2.6,49.7 0,0.2 -0.1,0.4 -0.2,0.6 0,0.1 -0.1,0.1 -0.1,0.1 -0.1,0.1 -0.1,0.1 -0.2,0.2 -0.1,0.1 -0.3,0.2 -0.4,0.2 0,0 0,0 0,0 0,0 0,0 -0.1,0 0,0 -0.1,0 -0.1,0 -16.5,3.1 -33.9,2.6 -49.8,-3 -14.3,-5 -29.8,-14.8 -35.3,-29.6 -11.1,6.4 -23.2,11.4 -35.9,14.7 6.6,14.5 2.3,32.6 -4.4,46.2 -7.4,15.2 -19.4,27.6 -33.4,36.9 0,0 0,0 -0.1,0 0,0 0,0 0,0 0,0 0,0 0,0 -0.1,0.1 -0.3,0.2 -0.4,0.2 -0.1,0 -0.1,0 -0.1,0 -0.1,0 -0.2,0 -0.3,0 -0.1,0 -0.2,-0.1 -0.4,-0.2 0,0 0,0 -0.1,0 0,0 -0.1,0 -0.1,-0.1 0,0 0,0 0,0 -13.9,-9.6 -25.8,-22.3 -33.1,-37.6 -6.5,-13.7 -10.5,-31.7 -3.7,-46 -12.5,-3.4 -24.3,-8.4 -35.3,-14.8 -5.7,14.5 -21.3,24.1 -35.5,29 -16,5.5 -33.2,5.8 -49.7,2.5 -0.2,0 -0.4,-0.1 -0.6,-0.2 0,0 -0.1,-0.1 -0.1,-0.1 -0.1,-0.1 -0.1,-0.1 -0.2,-0.2 -0.1,-0.1 -0.1,-0.3 -0.2,-0.4 0,0 0,0 0,0 0,0 0,-0.1 0,-0.1 l 0,-0.1 c -3,-16.5 -2.5,-33.9 3.1,-49.8 5,-14 14.6,-29.3 29,-35 -6.2,-10.7 -11,-22.2 -14.4,-34.4 -14.1,5.9 -31.5,1.8 -44.7,-4.6 -15.3,-7.4 -27.9,-19.4 -37.4,-33.4 l 0,0 c 0,0 0,0 0,-0.1 0,0 0,0 0,-0.1 -0.1,-0.1 -0.1,-0.3 -0.2,-0.4 l 0,-0.4 c 0.1,-0.2 0.1,-0.3 0.2,-0.4 0,0 0,0 0,0 0,0 0,0 0,-0.1 0,0 0,0 0,-0.1 9.5,-13.9 22.1,-25.9 37.4,-33.2 13.2,-6.3 30.3,-10.3 44.4,-4.6 3.4,-12.8 8.5,-24.9 15,-36.1 -14.1,-6 -23.4,-21.2 -28.2,-35.2 -5.4,-16 -5.7,-33.3 -2.5,-49.9 0,-0.2 0.1,-0.4 0.2,-0.6 l 0.1,-0.1 c 0.1,-0.1 0.1,-0.1 0.2,-0.2 0.1,-0.1 0.3,-0.2 0.4,-0.2 0,0 0,0 0,0 l 0,0 c 0.1,0 0.1,0 0.1,0 16.5,-3.1 33.8,-2.5 49.7,3.2 13.9,4.9 28.9,14.4 34.8,28.5 11.1,-6.4 23.2,-11.4 35.9,-14.7 -5.3,-14.1 -1.1,-31.1 5.4,-44.1 7.5,-15.1 19.6,-27.6 33.6,-36.9 0,0 0.1,0 0.1,-0.1 0,0 0,0 0,0 0.1,-0.1 0.3,-0.2 0.5,-0.2 l 0.1,0 c 0.1,0 0.2,0 0.3,0 0.1,0 0.2,0.1 0.3,0.1 0,0 0.1,0 0.1,0.1 0,0 0,0 0.1,0 0,0 0,0 0,0 13.9,9.6 25.7,22.3 32.9,37.7 6.2,13.2 10,30.2 4.4,44.2 12.5,3.5 24.2,8.6 35.2,15.2 6,-14.2 21.2,-23.5 35.3,-28.2 16,-5.4 33.3,-5.7 49.9,-2.4 0.2,0 0.4,0.1 0.6,0.2 0,0 0.1,0.1 0.1,0.1 0.1,0.1 0.1,0.1 0.2,0.2 0.1,0.1 0.1,0.3 0.2,0.4 0,0 0,0 0,0 0,0 0,0.1 0,0.1 0,0 0,0.1 0,0.1 3,16.5 2.4,33.8 -3.3,49.7 -5,14 -14.7,29.4 -29.2,35 6,10.7 10.7,22.3 13.9,34.4 14.2,-6.2 31.9,-2.2 45.3,4.2 15.3,7.3 27.9,19.3 37.4,33.2 0,0 0,0 0.1,0.1 0,0 0,0 0,0.1 l 0,0 c 0.1,0.1 0.2,0.3 0.2,0.4 l 0,0.8 z m 5.5,-60.3 c 4.9,0 4.9,7.6 0,7.6 -4.9,0 -4.9,-7.6 0,-7.6 z m 1.4,119.7 c -4.9,0 -4.9,-7.6 0,-7.6 4.9,0 4.9,7.6 0,7.6 z m 6.1,-57.6 c -3.3,0 -3.3,-5.1 0,-5.1 3.3,0 3.3,5.1 0,5.1 z m 19.7,-54.8 c 4.9,0 4.9,7.6 0,7.6 -4.9,0 -4.9,-7.6 0,-7.6 z m 1.2,104.5 c -4.9,0 -4.9,-7.6 0,-7.6 4.9,-0.1 4.9,7.6 0,7.6 z m 22.7,-91.2 c 4.9,0 4.9,7.6 0,7.6 -4.9,0 -4.9,-7.6 0,-7.6 z m 0.9,77.3 c -4.9,0 -4.9,-7.6 0,-7.6 4.9,0 4.9,7.6 0,7.6 z M 791,503.1 c 2.5,0 3.7,2 3.7,3.9 0,1.9 -1.2,3.9 -3.7,3.9 -2.5,0 -3.7,-2 -3.7,-3.9 0,-1.9 1.2,-3.9 3.7,-3.9 z m -18.4,25 c -4.9,0 -4.9,-7.6 0,-7.6 4.9,0 4.9,7.6 0,7.6 z m -0.5,-41.7 c 4.9,0 4.9,7.6 0,7.6 -4.9,0 -4.9,-7.6 0,-7.6 z"
           id="path75"
           inkscape:connector-curvature="0"
           style="fill:none" /><path
           class="noFillSVG"
           d="m 464.6,664.7 c -19.6,0 -19.7,30.5 0,30.5 19.6,0 19.7,-30.5 0,-30.5 z"
           id="path77"
           inkscape:connector-curvature="0"
           style="fill:none" /><path
           class="noFillSVG"
           d="m 590.8,435.6 c -9.1,-15.9 -21.3,-30 -35.6,-41.4 -16.6,-13.2 -37.2,-23.3 -57.8,-28.3 -3.1,-0.8 -6.2,-1 -9.3,-1.6 -5.3,-0.9 -10.6,-1.5 -16,-1.9 -10.6,-0.7 -21.4,-0.1 -31.8,1.9 -10.3,2 -20.5,4.8 -30.2,8.8 -3.2,1.3 -6.4,2.8 -9.5,4.3 -2.5,1.3 -6.5,2.6 -8.5,4.6 -0.2,0.2 -0.5,0.4 -0.8,0.4 -32.8,19.3 -57.4,51 -67.3,88.7 0.2,0.5 0.1,1.1 -0.3,1.4 -2.8,11.3 -4.4,23.1 -4.4,35.3 0,80.2 65.2,145.4 145.4,145.4 80.2,0 145.3,-65.2 145.3,-145.4 0,-6.5 -0.4,-13 -1.3,-19.5 -2.5,-18.5 -8.6,-36.5 -17.9,-52.7 z m -126.6,215 c -78.7,0 -142.8,-64 -142.8,-142.8 0,-78.8 64,-142.8 142.8,-142.8 78.8,0 142.8,64.1 142.8,142.8 0,78.7 -64.1,142.8 -142.8,142.8 z"
           id="path79"
           inkscape:connector-curvature="0"
           style="fill:none" /><circle
           class="noFillSVG"
           cx="464.20001"
           cy="507.79999"
           r="141.5"
           id="circle81"
           style="fill:none" /><path
           class="noFillSVG"
           d="m 586.7,645.2 c 19.6,0 19.7,-30.5 0,-30.5 -19.6,0 -19.7,30.5 0,30.5 z"
           id="path83"
           inkscape:connector-curvature="0"
           style="fill:none" /><path
           class="noFillSVG"
           d="m 463.8,351.8 0.8,0 c 3.9,0 8,-1.7 10.8,-4.5 2.6,-2.6 4.7,-7 4.5,-10.8 -0.2,-4 -1.5,-8 -4.5,-10.8 -3,-2.7 -6.6,-4.5 -10.8,-4.5 l -0.8,0 c -3.9,0 -8,1.7 -10.8,4.5 -2.6,2.6 -4.6,7 -4.5,10.8 0.2,3.9 1.5,8 4.5,10.8 3,2.8 6.6,4.5 10.8,4.5 z"
           id="path85"
           inkscape:connector-curvature="0"
           style="fill:none" /><path
           class="noFillSVG"
           d="m 345.1,373 c -19.6,0 -19.7,30.5 0,30.5 19.6,0 19.6,-30.5 0,-30.5 z"
           id="path87"
           inkscape:connector-curvature="0"
           style="fill:none" /><path
           class="noFillSVG"
           d="m 295,491.7 c -19.6,0 -19.7,30.5 0,30.5 19.7,0.1 19.7,-30.5 0,-30.5 z"
           id="path89"
           inkscape:connector-curvature="0"
           style="fill:none" /><path
           class="noFillSVG"
           d="m 342.5,614.7 c -19.6,0 -19.7,30.5 0,30.5 19.6,0 19.7,-30.5 0,-30.5 z"
           id="path91"
           inkscape:connector-curvature="0"
           style="fill:none" /><path
           class="noFillSVG"
           d="m 636.7,491.7 -0.9,0 c -3.9,0 -8,1.7 -10.8,4.5 -2.6,2.6 -4.6,7 -4.5,10.8 0.2,3.9 1.5,8 4.5,10.8 3,2.7 6.7,4.5 10.8,4.5 l 0.9,0 c 3.9,0 8,-1.7 10.8,-4.5 2.6,-2.6 4.6,-7 4.5,-10.8 -0.2,-4 -1.5,-8 -4.5,-10.8 -3,-2.7 -6.6,-4.5 -10.8,-4.5 z"
           id="path93"
           inkscape:connector-curvature="0"
           style="fill:none" /><path
           d="m 690.5,507.8 c 0,0 0,0 0,0 -0.1,-0.1 -0.1,-0.1 -0.1,-0.1 -9.5,-13.9 -22.1,-25.9 -37.4,-33.2 -13.5,-6.4 -31.1,-10.5 -45.3,-4.2 -3.2,-12.2 -7.9,-23.7 -13.9,-34.4 14.5,-5.6 24.2,-20.9 29.2,-35 5.7,-15.9 6.3,-33.2 3.3,-49.7 0,0 0,-0.1 0,-0.1 0,0 0,0 0,-0.1 0,0 0,0 0,0 0,-0.1 -0.1,-0.3 -0.2,-0.4 -0.1,-0.1 -0.1,-0.1 -0.2,-0.2 -0.1,0 -0.1,-0.1 -0.1,-0.1 -0.2,-0.1 -0.4,-0.2 -0.6,-0.2 -16.5,-3.3 -33.8,-3 -49.9,2.4 -14,4.7 -29.3,14 -35.3,28.2 -10.9,-6.5 -22.7,-11.6 -35.2,-15.2 5.7,-14 1.8,-31.1 -4.4,-44.2 -7.2,-15.4 -19,-28.1 -32.9,-37.7 0,0 0,0 0,0 0,0 0,0 -0.1,0 0,0 -0.1,0 -0.1,-0.1 -0.1,-0.1 -0.2,-0.1 -0.3,-0.1 -0.1,0 -0.2,0 -0.3,0 l -0.1,0 c -0.2,0 -0.3,0.1 -0.5,0.2 0,0 0,0 0,0 0,0 -0.1,0 -0.1,0.1 -14,9.3 -26,21.8 -33.6,36.9 -6.5,13 -10.7,30 -5.4,44.1 -12.7,3.3 -24.8,8.3 -35.9,14.7 -5.9,-14.1 -20.9,-23.6 -34.8,-28.5 -15.9,-5.6 -33.2,-6.2 -49.7,-3.2 0,0 -0.1,0 -0.1,0 l 0,0 c 0,0 0,0 0,0 -0.2,0 -0.3,0.1 -0.4,0.2 -0.1,0.1 -0.1,0.1 -0.2,0.2 l -0.1,0.1 c -0.1,0.2 -0.2,0.4 -0.2,0.6 -3.2,16.5 -2.9,33.8 2.5,49.9 4.8,14 14.1,29.2 28.2,35.2 -6.5,11.2 -11.6,23.3 -15,36.1 -14.1,-5.7 -31.2,-1.7 -44.4,4.6 -15.3,7.3 -27.9,19.3 -37.4,33.2 0,0 0,0.1 0,0.1 0,0 0,0 0,0.1 0,0 0,0 0,0 -0.1,0.1 -0.1,0.3 -0.2,0.4 l 0,0.4 c 0.1,0.1 0.1,0.3 0.2,0.4 0,0 0,0.1 0,0.1 0,0 0,0 0,0.1 l 0,0 c 9.5,14 22.1,26 37.4,33.4 13.3,6.4 30.6,10.5 44.7,4.6 3.4,12.2 8.2,23.7 14.4,34.4 -14.4,5.6 -24.1,20.9 -29,35 -5.6,15.9 -6.2,33.3 -3.1,49.8 l 0,0.1 c 0,0 0,0 0,0.1 0,0 0,0 0,0 0,0.1 0.1,0.3 0.2,0.4 0.1,0.1 0.1,0.1 0.2,0.2 0,0 0.1,0.1 0.1,0.1 0.2,0.1 0.4,0.2 0.6,0.2 16.5,3.3 33.7,3 49.7,-2.5 14.2,-4.9 29.8,-14.4 35.5,-29 11,6.4 22.8,11.4 35.3,14.8 -6.7,14.3 -2.7,32.3 3.7,46 7.3,15.4 19.2,28 33.1,37.6 0,0 0,0 0,0 0,0 0.1,0 0.1,0.1 0,0 0.1,0 0.1,0 0.1,0.1 0.2,0.1 0.4,0.2 0.1,0 0.2,0 0.3,0 0.1,0 0.1,0 0.1,0 0.2,0 0.3,-0.1 0.4,-0.2 0,0 0,0 0,0 0,0 0,0 0,0 0,0 0.1,0 0.1,0 14,-9.3 26,-21.8 33.4,-36.9 6.7,-13.7 11,-31.8 4.4,-46.2 12.7,-3.3 24.8,-8.3 35.9,-14.7 5.5,14.8 21,24.5 35.3,29.6 15.9,5.6 33.3,6.1 49.8,3 0,0 0.1,0 0.1,0 0,0 0,0 0.1,0 0,0 0,0 0,0 0.1,0 0.3,-0.1 0.4,-0.2 0.1,0 0.1,-0.1 0.2,-0.2 0.1,0 0.1,-0.1 0.1,-0.1 0.1,-0.2 0.2,-0.4 0.2,-0.6 3.2,-16.5 2.8,-33.8 -2.6,-49.7 -4.9,-14.2 -14.5,-29.8 -29.1,-35.5 6.6,-11.2 11.7,-23.2 15.2,-36 14.3,6.5 32.1,2.4 45.7,-4.2 15.3,-7.4 27.9,-19.4 37.4,-33.3 0,0 0,-0.1 0.1,-0.1 0,0 0,0 0,-0.1 l 0,0 c 0.1,-0.1 0.2,-0.3 0.2,-0.4 l 0,-0.4 c 0.1,-0.6 0,-0.8 -0.1,-0.9 l 0,0 z M 585.9,372.2 c 19.7,0 19.6,30.5 0,30.5 -19.7,0 -19.7,-30.5 0,-30.5 z M 453,325.8 c 2.8,-2.7 6.9,-4.5 10.8,-4.5 l 0.8,0 c 4.1,0 7.8,1.7 10.8,4.5 3,2.8 4.3,6.8 4.5,10.8 0.2,3.8 -1.8,8.1 -4.5,10.8 -2.8,2.8 -6.9,4.5 -10.8,4.5 l -0.8,0 c -4.1,0 -7.8,-1.7 -10.8,-4.5 -3,-2.7 -4.3,-6.8 -4.5,-10.8 -0.2,-3.8 1.8,-8.2 4.5,-10.8 z M 345.1,373 c 19.7,0 19.6,30.5 0,30.5 -19.7,0 -19.7,-30.5 0,-30.5 z M 295,522.3 c -19.7,0 -19.6,-30.5 0,-30.5 19.7,-0.1 19.7,30.5 0,30.5 z m 47.5,122.9 c -19.7,0 -19.6,-30.5 0,-30.5 19.7,0 19.6,30.5 0,30.5 z m 122.1,50 c -19.7,0 -19.6,-30.5 0,-30.5 19.7,0 19.6,30.5 0,30.5 z m 122.1,-50 c -19.7,0 -19.6,-30.5 0,-30.5 19.7,0 19.6,30.5 0,30.5 z m -122.1,8.1 c -80.2,0 -145.4,-65.2 -145.4,-145.4 0,-12.2 1.5,-24 4.4,-35.3 0.4,-0.4 0.6,-0.9 0.3,-1.4 9.8,-37.7 34.5,-69.4 67.3,-88.7 0.3,-0.1 0.6,-0.2 0.8,-0.4 2,-2 6,-3.3 8.5,-4.6 3.1,-1.6 6.3,-3 9.5,-4.3 9.7,-4 19.9,-6.8 30.2,-8.8 10.5,-2 21.2,-2.5 31.8,-1.9 5.3,0.3 10.7,1 16,1.9 3.1,0.5 6.3,0.8 9.3,1.6 20.6,5.1 41.2,15.1 57.8,28.3 14.3,11.4 26.5,25.5 35.6,41.4 9.3,16.2 15.5,34.2 18,52.8 0.9,6.4 1.3,13 1.3,19.5 0,80 -65.2,145.3 -145.4,145.3 z M 647.5,517.8 c -2.8,2.8 -6.9,4.5 -10.8,4.5 l -0.9,0 c -4.1,0 -7.8,-1.7 -10.8,-4.5 -3,-2.7 -4.3,-6.8 -4.5,-10.8 -0.2,-3.8 1.8,-8.2 4.5,-10.8 2.8,-2.7 6.9,-4.5 10.8,-4.5 l 0.9,0 c 4.1,0 7.8,1.7 10.8,4.5 3,2.8 4.3,6.8 4.5,10.8 0.2,3.8 -1.8,8.1 -4.5,10.8 z"
           id="path95"
           inkscape:connector-curvature="0" /><path
           d="m 834.9,505.3 c -16.1,-6.4 -30.8,-15.4 -44.5,-25.9 -4.6,-3.5 -9,-7.1 -13.3,-10.8 0.5,-0.3 1,-0.7 1.4,-1.3 9.9,-15 5.4,-32.3 4.1,-48.9 -1.3,-17.3 3.9,-34.3 17.2,-45.9 1.4,-1.2 1.5,-2.8 0.9,-4 -0.3,-1.6 -1.5,-2.8 -3.6,-2.7 -18.5,1.3 -34.5,-7.7 -46.1,-21.6 -10.1,-12.1 -19.2,-26.2 -35.3,-30 0.3,-3.8 0.7,-7.6 1.2,-11.3 2.4,-17.7 6.7,-35 13.8,-51.4 1.4,-1.3 1,-3.5 -0.3,-4.8 -1.3,-1.7 -3.7,-2.3 -5.3,-0.8 -16.6,7 -34,11.7 -51.9,14.1 -4.3,0.6 -8.6,1 -12.9,1.3 0.1,-0.5 0.1,-1 0,-1.5 -3.4,-16.9 -18,-26.2 -30.3,-36.5 -13.9,-11.6 -22.9,-27.6 -21.6,-46.1 0.1,-2.1 -1.1,-3.2 -2.7,-3.6 -1.2,-0.6 -2.8,-0.5 -4,0.9 -11.6,13.4 -28.5,18.6 -45.9,17.3 -16.6,-1.3 -33.9,-5.8 -48.9,4.1 -0.2,0.1 -0.3,0.3 -0.5,0.4 -3.4,-4 -6.7,-8.1 -9.8,-12.3 -10.3,-13.8 -19.2,-28.6 -25.5,-44.7 0,-1.9 -1.7,-3.1 -3.6,-3.2 -2.1,-0.2 -4.3,1 -4.3,3.1 -6.4,15.8 -14.8,30.7 -25,44.3 -3.5,4.7 -7.3,9.2 -11.2,13.7 -0.3,-0.5 -0.7,-1 -1.2,-1.3 -15,-9.9 -32.3,-5.4 -48.9,-4.1 -17.3,1.3 -34.3,-3.9 -45.9,-17.3 -1.2,-1.4 -2.7,-1.5 -4,-0.9 -1.5,0.3 -2.8,1.5 -2.7,3.6 1.2,18.5 -7.7,34.5 -21.6,46.1 -12.1,10 -26.2,19.1 -30,35.3 -4.4,-0.4 -8.9,-0.8 -13.3,-1.3 -18.1,-2.4 -35.8,-6.6 -52.6,-13.8 -1.3,-1.4 -3.5,-1 -4.9,0.4 -1.6,1.3 -2.2,3.7 -0.7,5.2 6.9,16.2 11.6,33.2 14.1,50.7 0.7,4.9 1.1,9.8 1.5,14.7 -16,3.9 -25,18 -35.1,29.9 -11.6,13.9 -27.6,22.9 -46.1,21.6 -2.1,-0.1 -3.2,1.1 -3.6,2.7 -0.6,1.3 -0.5,2.8 0.9,4 13.4,11.6 18.6,28.5 17.2,45.9 -1.3,16.6 -5.7,33.9 4.1,48.9 0,0 0.1,0.1 0.1,0.1 -4.8,4.1 -9.6,8.2 -14.7,12.1 -13.7,10.5 -28.4,19.4 -44.5,25.9 -2,0 -3.2,1.9 -3.2,3.8 0,0 0,0 0,0 l 0,0.3 c 0,1.9 1.2,3.8 3.2,3.8 15.8,6.3 30.7,14.5 44.5,24.6 4.6,3.4 9,6.9 13.3,10.6 -8.1,14.4 -4,30.9 -2.8,46.6 1.3,17.3 -3.9,34.3 -17.2,45.9 -1.4,1.2 -1.5,2.7 -0.9,4 0.3,1.6 1.5,2.8 3.6,2.7 18.5,-1.2 34.5,7.7 46.1,21.6 9.6,11.5 18.3,24.8 33,29.4 -0.4,5.2 -1,10.4 -1.8,15.6 -2.7,17.4 -7.6,34.3 -14.7,50.4 -1.4,1.3 -1,3.4 0.3,4.8 1.3,1.7 3.7,2.3 5.3,0.8 16.9,-7.1 34.7,-11 52.8,-13.2 5.2,-0.6 10.5,-1 15.8,-1.3 l 0,0.1 c 3.4,16.9 18,26.2 30.3,36.5 13.9,11.6 22.9,27.6 21.6,46.1 -0.2,2.1 1.1,3.2 2.7,3.6 1.3,0.6 2.8,0.5 4,-0.9 11.6,-13.4 28.5,-18.6 45.9,-17.3 15.6,1.2 31.9,5.2 46.2,-2.5 3.4,4.1 6.7,8.2 9.8,12.5 10,13.8 18.1,28.8 24.2,44.7 0,1.9 1.7,3.1 3.5,3.2 2.1,0.3 4.3,-1 4.4,-3.1 6.7,-16.4 16.1,-31.3 27,-45.3 3.8,-4.9 7.9,-9.6 12,-14.2 0.2,0.2 0.5,0.5 0.7,0.6 15,9.9 32.3,5.4 48.9,4.1 17.3,-1.3 34.3,3.9 45.9,17.3 1.2,1.4 2.7,1.5 4,0.9 1.5,-0.3 2.8,-1.5 2.7,-3.6 -1.2,-18.5 7.7,-34.5 21.6,-46.1 11.8,-9.8 25.5,-18.7 29.7,-34.1 4.5,0.4 9,0.9 13.4,1.6 17.4,2.6 34.3,7.5 50.5,14.5 1.3,1.4 3.5,1 4.9,-0.3 1.6,-1.3 2.3,-3.7 0.8,-5.2 -7.1,-16.8 -11.1,-34.7 -13.3,-52.8 -0.6,-4.8 -1,-9.6 -1.3,-14.5 0.6,0.2 1.2,0.3 2,0.1 16.9,-3.4 26.2,-18 36.5,-30.3 11.6,-13.9 27.6,-22.9 46.1,-21.6 2.1,0.1 3.3,-1.1 3.6,-2.7 0.6,-1.3 0.5,-2.8 -0.9,-4 -13.3,-11.6 -18.6,-28.5 -17.2,-45.9 1.3,-16.6 5.8,-33.9 -4.1,-48.9 -0.2,-0.3 -0.4,-0.5 -0.6,-0.7 4,-3.4 8.1,-6.7 12.4,-9.9 13.8,-10.1 28.6,-18.3 44.5,-24.6 2,0 3.2,-1.9 3.2,-3.8 l 0,-0.3 c 0.1,-2 -1.1,-3.9 -3.1,-3.9 z M 760.1,380.8 c -25.1,9 -50.1,18.7 -74.3,29.9 13.3,-13.8 22.5,-30.8 25.8,-51 0.9,-5.9 1.6,-11.8 2.1,-17.7 18.6,7.6 27.8,32.3 46.4,38.8 z m 3.4,6.8 c -4.2,8.2 -4,17.9 -3.3,27.8 -23.3,-0.2 -46.6,0.3 -69.9,1.5 23.9,-10.9 48.4,-20.4 73.2,-29.3 z m -3.2,35.5 c 0.1,0 0.2,0 0.4,0 0.6,9.7 0.6,19.4 -3.8,27.7 -0.1,0.1 -0.1,0.2 -0.1,0.3 -2.6,-2.2 -5.3,-4.4 -8,-6.5 -12.9,-10 -27.5,-17 -42.8,-20.6 18.1,-0.8 36.2,-1.1 54.3,-0.9 z M 550.6,264.8 c -3.8,-14.3 -10.6,-27.9 -20,-40 -2,-2.6 -4.1,-5.1 -6.2,-7.6 8.1,-4 17.5,-4 26.9,-3.4 0,0.1 0,0.3 0,0.4 0.2,16.8 -0.1,33.7 -0.7,50.6 z m 8.4,-50.6 c 9.9,0.6 19.6,0.9 27.8,-3.3 -8.9,24.8 -18.3,49.3 -29.3,73.2 1.1,-23.3 1.7,-46.6 1.5,-69.9 z m 34.6,0.1 c 3,8.6 9.9,15.2 17.2,21.6 -15.2,15 -29.9,30.5 -44.2,46.3 10,-22.2 18.8,-44.9 27,-67.9 z m 22.7,27 c 0.1,-0.1 0.2,-0.2 0.3,-0.3 7.1,6.4 13.8,13.1 16.7,21.9 -5.1,0.4 -10.3,0.9 -15.4,1.6 -13,1.9 -25.2,6.2 -36.1,12.5 11.2,-12.1 22.7,-24 34.5,-35.7 z M 316.5,241 c 0.1,0.1 0.2,0.2 0.3,0.3 10.5,10.4 20.7,20.9 30.8,31.7 -10,-5.2 -21,-8.8 -32.4,-10.6 -4.8,-0.8 -9.7,-1.3 -14.5,-1.8 3.2,-7.7 9.3,-13.8 15.8,-19.6 z m 5.8,-5 c 7.3,-6.5 14.2,-13 17.2,-21.6 8.2,22.9 17,45.7 27,67.9 C 352.2,266.4 337.4,251 322.3,236 Z m 24,-25.1 c 8.2,4.2 17.9,4 27.8,3.3 -0.2,23.3 0.3,46.6 1.5,69.9 -10.9,-23.9 -20.4,-48.4 -29.3,-73.2 z m 35.4,2.8 c 9.7,-0.6 19.3,-0.6 27.6,3.7 -1.8,2.1 -3.6,4.3 -5.3,6.5 -10.8,13.6 -18,28.7 -21.4,44.7 -0.7,-18.2 -1,-36.3 -0.8,-54.5 0,-0.1 -0.1,-0.3 -0.1,-0.4 z M 172.9,415.4 c 0.6,-9.9 0.8,-19.6 -3.3,-27.8 24.8,8.9 49.3,18.4 73.2,29.4 -23.3,-1.3 -46.6,-1.8 -69.9,-1.6 z m 51.8,8.4 c -15.5,3.6 -30.2,10.6 -43.2,20.7 -2,1.6 -4,3.2 -6,4.8 -3.7,-8 -3.7,-17.1 -3.1,-26.3 0.1,0 0.3,0 0.4,0 17.3,-0.1 34.6,0.2 51.9,0.8 z m -51.7,-43 c 8.6,-3 15.2,-9.9 21.7,-17.2 15,15.2 30.5,29.9 46.3,44.2 -22.3,-10.1 -45,-18.8 -68,-27 z m 27,-22.7 c -0.1,-0.1 -0.2,-0.2 -0.3,-0.3 5.7,-6.4 11.6,-12.4 19.1,-15.6 0.4,4.7 0.9,9.4 1.6,14.1 1.7,11.2 5.1,21.6 10,31.3 C 220.1,378 210,368.2 200,358.1 Z m -27.1,240 c 23.3,0.2 46.6,-0.3 69.9,-1.5 -23.9,11 -48.4,20.5 -73.2,29.3 4.2,-8.2 4,-17.9 3.3,-27.8 z m 1.6,-31.2 c 2,1.7 4.1,3.4 6.2,5 10.5,8.2 22,14.3 34,18.2 -13.9,0.4 -27.9,0.5 -41.8,0.4 -0.1,0 -0.3,0 -0.4,0.1 -0.6,-8.3 -0.6,-16.4 2,-23.7 z m 25.2,88.8 c 0.1,-0.1 0.2,-0.2 0.3,-0.3 9.4,-9.5 18.9,-18.7 28.5,-27.8 -4.7,9.3 -8.1,19.3 -9.8,30 -0.7,4.3 -1.2,8.6 -1.6,12.9 -6.7,-3.4 -12.1,-8.9 -17.4,-14.8 z m -5,-5.7 c -6.5,-7.4 -13,-14.2 -21.7,-17.2 23,-8.2 45.7,-17 68,-27 -15.9,14.3 -31.3,29 -46.3,44.2 z m 187,152 c 0,-0.1 0,-0.3 0,-0.4 -0.1,-13.6 0,-27.1 0.4,-40.6 3.8,11.4 9.7,22.4 17.6,32.5 1.8,2.2 3.5,4.4 5.3,6.6 -7.2,2.4 -15.2,2.3 -23.3,1.9 z m -7.6,-0.5 c -9.9,-0.6 -19.6,-0.9 -27.8,3.3 8.9,-24.8 18.4,-49.3 29.4,-73.2 -1.3,23.2 -1.8,46.5 -1.6,69.9 z m -34.7,-0.1 c -3,-8.6 -9.8,-15.2 -17.2,-21.6 15.2,-15 29.9,-30.5 44.2,-46.3 -9.9,22.1 -18.7,44.9 -27,67.9 z m -22.6,-27.1 c -0.1,0.1 -0.2,0.2 -0.3,0.3 -6.8,-6.1 -13.2,-12.4 -16.2,-20.6 4.1,-0.4 8.1,-0.8 12.2,-1.4 13.6,-2 26.5,-6.5 38.1,-13.2 -11.1,11.9 -22.3,23.6 -33.8,34.9 z M 549.2,802 c -9.4,0.6 -18.8,0.6 -26.9,-3.4 1.5,-1.8 3,-3.6 4.5,-5.5 10.7,-13.6 18.1,-29.1 21.6,-45.5 0.7,18 1,36 0.8,54 0,0.1 0,0.2 0,0.4 z m 65.2,-27.3 c -0.1,-0.1 -0.2,-0.2 -0.3,-0.3 -9.5,-9.4 -18.8,-19 -28,-28.8 8.8,4.3 18.3,7.3 28.4,8.9 5.1,0.8 10.2,1.3 15.3,1.8 -3.4,7.1 -9.2,12.9 -15.4,18.4 z m -5.7,5 c -7.3,6.5 -14.2,13 -17.2,21.6 -8.2,-22.9 -17,-45.7 -27,-67.9 14.3,15.8 29,31.3 44.2,46.3 z m -24.1,25.1 c -8.2,-4.2 -17.9,-4 -27.8,-3.3 0.2,-23.3 -0.3,-46.6 -1.5,-69.9 11,23.9 20.4,48.4 29.3,73.2 z M 760.2,600.3 c -0.7,9.9 -0.9,19.6 3.3,27.8 -24.7,-8.9 -49.3,-18.4 -73.2,-29.4 23.2,1.2 46.5,1.8 69.9,1.6 z m -50.9,-8.4 c 14.4,-3.6 28,-10.3 40.4,-20 2.6,-2 5.1,-4.1 7.6,-6.2 4,8.1 4,17.5 3.4,26.9 -0.1,0 -0.2,0 -0.4,0 -17,0.2 -34,-0.1 -51,-0.7 z m 50.8,43 c -8.6,3 -15.2,9.9 -21.7,17.2 -15,-15.2 -30.4,-29.9 -46.3,-44.2 22.2,10 45,18.8 68,27 z M 733,657.6 c 0.1,0.1 0.2,0.2 0.3,0.3 -6.5,7.3 -13.4,14.1 -22.5,16.9 0,0 0,0 0,0 -0.4,-4.8 -0.9,-9.5 -1.6,-14.2 -2.1,-14.2 -7,-27.5 -14.2,-39.5 13,11.8 25.7,24 38,36.5 z m 58.6,-130 c -13.2,9.1 -25.1,19.9 -37.1,30.4 -13.1,11.4 -26.9,21.4 -43.8,26.1 -16.7,4.7 -34.2,4.4 -50.9,0.4 -1,-0.3 -1.9,-0.1 -2.6,0.3 -2.8,0.7 -4.4,5.1 -1.2,7.1 29.2,18.1 44.4,48 47.1,81.6 2.6,31.3 3.8,61.6 14.3,91.1 -12.3,-4.8 -24.9,-8.6 -37.9,-10.9 -17.3,-3.2 -34.7,-3.6 -52.1,-5.2 -17.1,-1.6 -33.5,-5.6 -48.1,-15 -13,-8.4 -23.6,-20 -31.6,-33.2 -2,-3.3 -6.5,-1.6 -7.1,1.3 -0.2,0.6 -0.2,1.3 -0.1,2 3.8,16.6 3.4,33.8 -1.3,50.1 -5,17 -14.9,31.2 -26.5,44.3 -19.6,22.2 -38.7,44 -51.4,70.8 -5,-11.7 -11,-22.8 -18.1,-33.4 -9,-13.3 -19.7,-25.2 -30.1,-37.4 -11.3,-13.2 -21.2,-27.1 -25.8,-44.1 -3.9,-14.3 -4.1,-29.2 -1.5,-43.7 0.3,-0.7 0.4,-1.3 0.4,-2 0.3,-1.3 0.6,-2.6 0.9,-3.8 0.2,-0.3 0.4,-0.6 0.6,-0.9 2.3,-3.7 -2.5,-7.1 -5.5,-5 -1,0.4 -1.8,1.1 -2.1,2.5 -0.1,0.2 -0.1,0.3 -0.1,0.4 -18.2,28 -47.6,42.6 -80.6,45.2 -31.3,2.5 -61.6,3.6 -91.1,14.1 4.9,-12.2 8.6,-24.8 11.1,-37.8 1.5,-8.3 2.4,-16.6 3.2,-25 0.7,-1.1 0.8,-2.6 0.3,-3.7 0.6,-7.8 1.1,-15.6 1.9,-23.4 1.6,-17.1 5.7,-33.5 15.1,-48.1 8.1,-12.5 19.2,-22.7 31.7,-30.5 0.3,-0.1 0.6,-0.1 0.9,-0.2 2.7,-0.7 3.2,-3.3 2.3,-5.3 -0.7,-2.1 -3,-3.6 -5.4,-2.1 -0.2,0.1 -0.5,0.3 -0.7,0.4 -16.2,3.7 -33,3.8 -49.1,-0.7 -16.9,-4.8 -30.8,-14.8 -43.8,-26.1 -12.1,-10.6 -23.9,-21.3 -37.1,-30.4 -10.5,-7.2 -21.6,-13.3 -33.2,-18.4 26.8,-12.5 48.8,-31.4 71.2,-50.8 13.3,-11.5 27.5,-21.3 44.6,-26.1 16.4,-4.6 33.6,-4.9 50.2,-0.9 3.7,0.9 5.7,-3.3 4.2,-5.8 -0.3,-0.8 -0.8,-1.5 -1.7,-2.1 -13.2,-8.1 -24.6,-18.8 -32.9,-31.9 -9.3,-14.7 -13.1,-31.1 -14.5,-48.3 -1.4,-17.4 -1.7,-34.9 -4.7,-52.2 -2.2,-13 -5.9,-25.7 -10.6,-38 29.4,10.8 59.8,12.4 91,15.3 33.6,3.1 63.3,18.6 81.1,48 0.4,0.6 0.8,1 1.3,1.3 2.4,1.7 6.9,-0.3 6,-4.1 -3.9,-16.8 -4,-34.3 0.8,-50.9 4.9,-16.8 15,-30.6 26.5,-43.6 10.6,-12 21.4,-23.7 30.7,-36.9 7.3,-10.4 13.4,-21.5 18.6,-33 12.3,26.9 31,49.1 50.3,71.6 11.4,13.4 21,27.6 25.7,44.8 4.3,15.7 4.5,32.2 0.9,48.1 -0.1,0.1 -0.2,0.3 -0.3,0.4 -0.7,1.2 -0.7,2.3 -0.3,3.3 0.6,3.5 6.4,4.6 7.4,0.4 0.1,-0.4 0.2,-0.7 0.2,-1.1 8.1,-12.6 18.5,-23.6 31.2,-31.6 14.7,-9.2 31.1,-13 48.3,-14.4 17.4,-1.4 34.9,-1.7 52.2,-4.6 13,-2.2 25.7,-5.8 38,-10.5 -10.9,29.4 -12.6,59.7 -15.5,90.9 -1.6,17.1 -5.5,33.3 -15.5,47.5 -8.8,12.5 -20.8,22.3 -33.8,30.1 -1.2,0.5 -1.8,1.4 -2,2.5 0,0.1 0,0.2 0,0.3 0,0.1 0,0.2 0,0.2 -0.1,0.7 0.1,1.3 0.4,2 l 0,0 c 0.1,0.2 0.2,0.4 0.3,0.6 0,0 0.1,0.1 0.1,0.1 0.1,0.2 0.2,0.3 0.4,0.5 0,0 0.1,0.1 0.1,0.1 0.9,0.9 2.2,1.4 3.7,0.9 16.5,-3.9 33.7,-3.7 50,0.9 17.1,4.8 31.3,14.6 44.6,26.1 22.4,19.4 44.4,38.3 71.2,50.8 -11.7,5 -22.8,11.1 -33.3,18.3 z"
           id="path97"
           inkscape:connector-curvature="0" /><path
           d="m 297.6,343.3 c 3.3,0 3.3,-5.1 0,-5.1 -3.3,0.1 -3.3,5.1 0,5.1 z"
           id="path99"
           inkscape:connector-curvature="0" /><path
           d="m 229.7,504.4 c -3.3,0 -3.3,5.1 0,5.1 3.3,0 3.3,-5.1 0,-5.1 z"
           id="path101"
           inkscape:connector-curvature="0" /><path
           d="m 298.4,672.3 c -3.3,0 -3.3,5.1 0,5.1 3.3,0 3.3,-5.1 0,-5.1 z"
           id="path103"
           inkscape:connector-curvature="0" /><path
           d="m 464.6,744.4 c -3.3,0 -3.3,5.1 0,5.1 3.3,0 3.3,-5.1 0,-5.1 z"
           id="path105"
           inkscape:connector-curvature="0" /><path
           d="m 632.5,675.7 c -3.3,0 -3.3,5.1 0,5.1 3.3,0 3.3,-5.1 0,-5.1 z"
           id="path107"
           inkscape:connector-curvature="0" /><path
           d="m 703.7,505.3 c -3.3,0 -3.3,5.1 0,5.1 3.3,0 3.3,-5.1 0,-5.1 z"
           id="path109"
           inkscape:connector-curvature="0" /><path
           d="m 633.3,346.7 c 3.3,0 3.3,-5.1 0,-5.1 -3.2,0.1 -3.2,5.1 0,5.1 z"
           id="path111"
           inkscape:connector-curvature="0" /><path
           d="m 467.2,271.3 c -3.3,0 -3.3,5.1 0,5.1 3.2,0 3.2,-5.1 0,-5.1 z"
           id="path113"
           inkscape:connector-curvature="0" /><path
           d="m 322.2,166.4 c 3.3,0 3.3,-5.1 0,-5.1 -3.3,0 -3.3,5.1 0,5.1 z"
           id="path115"
           inkscape:connector-curvature="0" /><path
           d="m 609,165.7 c 3.3,0 3.3,-5.1 0,-5.1 -3.3,0 -3.3,5.1 0,5.1 z"
           id="path117"
           inkscape:connector-curvature="0" /><path
           d="m 811.8,366.7 c 3.3,0 3.3,-5.1 0,-5.1 -3.3,0 -3.3,5.1 0,5.1 z"
           id="path119"
           inkscape:connector-curvature="0" /><path
           d="m 810.5,648.4 c -3.3,0 -3.3,5.1 0,5.1 3.3,0 3.3,-5.1 0,-5.1 z"
           id="path121"
           inkscape:connector-curvature="0" /><path
           d="m 607.7,850.6 c -3.3,0 -3.3,5.1 0,5.1 3.3,0 3.3,-5.1 0,-5.1 z"
           id="path123"
           inkscape:connector-curvature="0" /><path
           d="m 321.5,850.6 c -3.3,0 -3.3,5.1 0,5.1 3.3,0 3.3,-5.1 0,-5.1 z"
           id="path125"
           inkscape:connector-curvature="0" /><path
           d="m 121.8,646.5 c -3.3,0 -3.3,5.1 0,5.1 3.3,0 3.3,-5.1 0,-5.1 z"
           id="path127"
           inkscape:connector-curvature="0" /><path
           d="m 120.6,367.3 c 3.3,0 3.3,-5.1 0,-5.1 -3.3,0 -3.3,5.1 0,5.1 z"
           id="path129"
           inkscape:connector-curvature="0" /><path
           d="m 110.4,364.1 c 3.3,0 3.3,-5.1 0,-5.1 -3.3,0 -3.3,5.1 0,5.1 z"
           id="path131"
           inkscape:connector-curvature="0" /><path
           d="m 317.1,156.8 c 3.3,0 3.3,-5.1 0,-5.1 -3.3,0 -3.3,5.1 0,5.1 z"
           id="path133"
           inkscape:connector-curvature="0" /><path
           d="m 613.4,153 c 3.3,0 3.3,-5.1 0,-5.1 -3.3,0 -3.3,5.1 0,5.1 z"
           id="path135"
           inkscape:connector-curvature="0" /><path
           d="m 824.5,361.6 c 3.3,0 3.3,-5.1 0,-5.1 -3.2,0 -3.2,5.1 0,5.1 z"
           id="path137"
           inkscape:connector-curvature="0" /><path
           d="m 823.3,653.5 c -3.3,0 -3.3,5.1 0,5.1 3.2,0 3.2,-5.1 0,-5.1 z"
           id="path139"
           inkscape:connector-curvature="0" /><path
           d="m 612.8,864 c -3.3,0 -3.3,5.1 0,5.1 3.3,-0.1 3.3,-5.1 0,-5.1 z"
           id="path141"
           inkscape:connector-curvature="0" /><path
           d="m 316.4,864 c -3.3,0 -3.3,5.1 0,5.1 3.3,-0.1 3.3,-5.1 0,-5.1 z"
           id="path143"
           inkscape:connector-curvature="0" /><path
           d="m 107.2,652.8 c -3.3,0 -3.3,5.1 0,5.1 3.3,0 3.3,-5.1 0,-5.1 z"
           id="path145"
           inkscape:connector-curvature="0" /><path
           d="m 464.2,365.1 c -78.7,0 -142.8,64 -142.8,142.8 0,78.8 64,142.8 142.8,142.8 C 543,650.7 607,586.6 607,507.8 607,429 542.9,365.1 464.2,365.1 Z m 0,284.2 c -78,0 -141.5,-63.5 -141.5,-141.5 0,-78 63.5,-141.5 141.5,-141.5 78,0 141.5,63.5 141.5,141.5 0,78 -63.5,141.5 -141.5,141.5 z"
           id="path147"
           inkscape:connector-curvature="0" /><path
           d="m 483.3,204.7 c 4.9,0 4.9,-7.6 0,-7.6 -4.9,0 -5,7.6 0,7.6 z"
           id="path149"
           inkscape:connector-curvature="0" /><path
           d="m 501.1,229.3 c 4.9,0 4.9,-7.6 0,-7.6 -4.9,0 -4.9,7.6 0,7.6 z"
           id="path151"
           inkscape:connector-curvature="0" /><path
           d="m 514.6,253 c 4.9,0 4.9,-7.6 0,-7.6 -4.9,0 -4.9,7.6 0,7.6 z"
           id="path153"
           inkscape:connector-curvature="0" /><path
           d="m 522.3,280.2 c 4.9,0 4.9,-7.6 0,-7.6 -4.9,-0.1 -5,7.6 0,7.6 z"
           id="path155"
           inkscape:connector-curvature="0" /><path
           d="m 528.2,313.2 c 4.9,0 4.9,-7.6 0,-7.6 -4.9,0 -4.9,7.6 0,7.6 z"
           id="path157"
           inkscape:connector-curvature="0" /><path
           d="m 532.4,348.9 c 4.9,0 4.9,-7.6 0,-7.6 -4.9,-0.1 -4.9,7.6 0,7.6 z"
           id="path159"
           inkscape:connector-curvature="0" /><path
           d="m 466.1,186.1 c 0.1,0 0.1,0 0,0 0.1,0 0.1,0 0.2,0 4.9,0 4.9,-7.6 0,-7.6 0,0 -0.1,0 -0.1,0 0,0 -0.1,0 -0.1,0 -4.9,-0.1 -4.9,7.6 0,7.6 z"
           id="path161"
           inkscape:connector-curvature="0" /><path
           d="m 449.2,204.7 c 4.9,0 4.9,-7.6 0,-7.6 -4.9,0 -4.9,7.6 0,7.6 z"
           id="path163"
           inkscape:connector-curvature="0" /><path
           d="m 431.4,229.3 c 4.9,0 4.9,-7.6 0,-7.6 -4.9,0 -4.9,7.6 0,7.6 z"
           id="path165"
           inkscape:connector-curvature="0" /><path
           d="m 417.8,253 c 4.9,0 4.9,-7.6 0,-7.6 -4.9,0 -4.9,7.6 0,7.6 z"
           id="path167"
           inkscape:connector-curvature="0" /><path
           d="m 410.2,280.2 c 4.9,0 4.9,-7.6 0,-7.6 -4.9,-0.1 -4.9,7.6 0,7.6 z"
           id="path169"
           inkscape:connector-curvature="0" /><path
           d="m 404.2,313.2 c 4.9,0 4.9,-7.6 0,-7.6 -4.9,0 -4.9,7.6 0,7.6 z"
           id="path171"
           inkscape:connector-curvature="0" /><path
           d="m 462.2,832.1 c 0,0 0,0 0,0 -0.1,0 -0.1,0 -0.2,0 -4.9,0 -4.9,7.6 0,7.6 0,0 0.1,0 0.1,0 0,0 0.1,0 0.1,0 4.9,0 5,-7.6 0,-7.6 z"
           id="path173"
           inkscape:connector-curvature="0" /><path
           d="m 479.2,813.4 c -4.9,0 -4.9,7.6 0,7.6 4.9,0 4.9,-7.6 0,-7.6 z"
           id="path175"
           inkscape:connector-curvature="0" /><path
           d="m 497,788.8 c -4.9,0 -4.9,7.6 0,7.6 4.9,0 4.9,-7.6 0,-7.6 z"
           id="path177"
           inkscape:connector-curvature="0" /><path
           d="m 510.6,765.1 c -4.9,0 -4.9,7.6 0,7.6 4.9,0 4.9,-7.6 0,-7.6 z"
           id="path179"
           inkscape:connector-curvature="0" /><path
           d="m 518.2,737.9 c -4.9,0 -4.9,7.6 0,7.6 4.9,0.1 4.9,-7.6 0,-7.6 z"
           id="path181"
           inkscape:connector-curvature="0" /><path
           d="m 524.1,704.9 c -4.9,0 -4.9,7.6 0,7.6 4.9,0 5,-7.6 0,-7.6 z"
           id="path183"
           inkscape:connector-curvature="0" /><path
           d="m 528.4,669.3 c -4.9,0 -4.9,7.6 0,7.6 4.9,0 4.9,-7.6 0,-7.6 z"
           id="path185"
           inkscape:connector-curvature="0" /><path
           d="m 445.1,813.4 c -4.9,0 -4.9,7.6 0,7.6 4.9,0 4.9,-7.6 0,-7.6 z"
           id="path187"
           inkscape:connector-curvature="0" /><path
           d="m 427.3,788.8 c -4.9,0 -4.9,7.6 0,7.6 4.9,0 4.9,-7.6 0,-7.6 z"
           id="path189"
           inkscape:connector-curvature="0" /><path
           d="m 413.7,765.1 c -4.9,0 -4.9,7.6 0,7.6 4.9,0 5,-7.6 0,-7.6 z"
           id="path191"
           inkscape:connector-curvature="0" /><path
           d="m 406.1,737.9 c -4.9,0 -4.9,7.6 0,7.6 4.9,0.1 4.9,-7.6 0,-7.6 z"
           id="path193"
           inkscape:connector-curvature="0" /><path
           d="m 400.2,704.9 c -4.9,0 -4.9,7.6 0,7.6 4.9,0 4.9,-7.6 0,-7.6 z"
           id="path195"
           inkscape:connector-curvature="0" /><path
           d="m 395.9,669.3 c -4.9,0 -4.9,7.6 0,7.6 4.9,0 4.9,-7.6 0,-7.6 z"
           id="path197"
           inkscape:connector-curvature="0" /><path
           d="m 694.6,307.4 c 4.9,0 4.9,-7.6 0,-7.6 -4.9,0 -4.9,7.6 0,7.6 z"
           id="path199"
           inkscape:connector-curvature="0" /><path
           d="m 690,337.4 c 4.9,0 4.9,-7.6 0,-7.6 -5,0 -5,7.6 0,7.6 z"
           id="path201"
           inkscape:connector-curvature="0" /><path
           d="m 682.9,363.8 c 4.9,0 4.9,-7.6 0,-7.6 -4.9,0 -4.9,7.6 0,7.6 z"
           id="path203"
           inkscape:connector-curvature="0" /><path
           d="m 669.2,388.4 c 4.9,0 4.9,-7.6 0,-7.6 -4.9,0 -4.9,7.6 0,7.6 z"
           id="path205"
           inkscape:connector-curvature="0" /><path
           d="m 650.2,416.1 c 4.9,0 4.9,-7.6 0,-7.6 -5,0 -5,7.6 0,7.6 z"
           id="path207"
           inkscape:connector-curvature="0" /><path
           d="m 628.1,444.4 c 4.9,0 4.9,-7.6 0,-7.6 -4.9,0 -4.9,7.6 0,7.6 z"
           id="path209"
           inkscape:connector-curvature="0" /><path
           d="m 692.9,281 c 0.6,0.7 1.5,1.2 2.8,1.2 3.7,0 4.6,-4.4 2.7,-6.5 -0.6,-0.7 -1.5,-1.2 -2.8,-1.2 -3.8,-0.1 -4.7,4.4 -2.7,6.5 z"
           id="path211"
           inkscape:connector-curvature="0" /><path
           d="m 670.4,283.4 c 4.9,0 4.9,-7.6 0,-7.6 -4.9,0 -4.9,7.6 0,7.6 z"
           id="path213"
           inkscape:connector-curvature="0" /><path
           d="m 640.4,288.3 c 4.9,0 4.9,-7.6 0,-7.6 -4.9,0 -4.9,7.6 0,7.6 z"
           id="path215"
           inkscape:connector-curvature="0" /><path
           d="m 614.1,295.6 c 4.9,0 4.9,-7.6 0,-7.6 -4.9,0 -4.9,7.6 0,7.6 z"
           id="path217"
           inkscape:connector-curvature="0" /><path
           d="m 589.6,309.6 c 4.9,0 4.9,-7.6 0,-7.6 -4.9,-0.1 -4.9,7.6 0,7.6 z"
           id="path219"
           inkscape:connector-curvature="0" /><path
           d="m 562.1,328.9 c 4.9,0 4.9,-7.6 0,-7.6 -4.9,-0.1 -4.9,7.6 0,7.6 z"
           id="path221"
           inkscape:connector-curvature="0" /><path
           d="m 235.5,737.1 c -0.6,-0.7 -1.5,-1.2 -2.8,-1.2 -3.7,0 -4.6,4.4 -2.7,6.5 0.6,0.7 1.5,1.2 2.8,1.2 3.7,0.1 4.6,-4.4 2.7,-6.5 z"
           id="path223"
           inkscape:connector-curvature="0" /><path
           d="m 258,734.7 c -4.9,0 -4.9,7.6 0,7.6 4.9,0.1 4.9,-7.6 0,-7.6 z"
           id="path225"
           inkscape:connector-curvature="0" /><path
           d="m 287.9,729.8 c -4.9,0 -4.9,7.6 0,7.6 4.9,0 4.9,-7.6 0,-7.6 z"
           id="path227"
           inkscape:connector-curvature="0" /><path
           d="m 314.3,722.5 c -4.9,0 -4.9,7.6 0,7.6 4.9,0 4.9,-7.6 0,-7.6 z"
           id="path229"
           inkscape:connector-curvature="0" /><path
           d="m 338.8,708.6 c -4.9,0 -4.9,7.6 0,7.6 4.9,0 4.9,-7.6 0,-7.6 z"
           id="path231"
           inkscape:connector-curvature="0" /><path
           d="m 366.3,689.3 c -4.9,0 -4.9,7.6 0,7.6 4.9,0 4.9,-7.6 0,-7.6 z"
           id="path233"
           inkscape:connector-curvature="0" /><path
           d="m 233.8,710.7 c -4.9,0 -4.9,7.6 0,7.6 4.9,0.1 4.9,-7.6 0,-7.6 z"
           id="path235"
           inkscape:connector-curvature="0" /><path
           d="m 238.4,680.7 c -4.9,0 -4.9,7.6 0,7.6 4.9,0.1 4.9,-7.6 0,-7.6 z"
           id="path237"
           inkscape:connector-curvature="0" /><path
           d="m 245.5,654.3 c -4.9,0 -4.9,7.6 0,7.6 4.9,0.1 4.9,-7.6 0,-7.6 z"
           id="path239"
           inkscape:connector-curvature="0" /><path
           d="m 259.2,629.7 c -4.9,0 -4.9,7.6 0,7.6 4.9,0 4.9,-7.6 0,-7.6 z"
           id="path241"
           inkscape:connector-curvature="0" /><path
           d="m 278.2,602 c -4.9,0 -4.9,7.6 0,7.6 4.9,0 4.9,-7.6 0,-7.6 z"
           id="path243"
           inkscape:connector-curvature="0" /><path
           d="m 300.3,581.4 c 4.9,0 4.9,-7.6 0,-7.6 -4.9,-0.1 -5,7.6 0,7.6 z"
           id="path245"
           inkscape:connector-curvature="0" /><path
           d="m 791,510.9 c 2.5,0 3.7,-2 3.7,-3.9 0,-1.9 -1.2,-3.9 -3.7,-3.9 -2.5,0 -3.7,2 -3.7,3.9 0,1.9 1.2,3.9 3.7,3.9 z"
           id="path247"
           inkscape:connector-curvature="0" /><path
           d="m 772.6,520.5 c -4.9,0 -4.9,7.6 0,7.6 4.9,0 4.9,-7.6 0,-7.6 z"
           id="path249"
           inkscape:connector-curvature="0" /><path
           d="m 748.2,538.6 c -4.9,0 -4.9,7.6 0,7.6 4.9,0 4.9,-7.6 0,-7.6 z"
           id="path251"
           inkscape:connector-curvature="0" /><path
           d="m 724.6,552.4 c -4.9,0 -4.9,7.6 0,7.6 4.9,0.1 4.9,-7.6 0,-7.6 z"
           id="path253"
           inkscape:connector-curvature="0" /><path
           d="m 697.6,560.4 c -4.9,0 -4.9,7.6 0,7.6 4.9,0 4.9,-7.6 0,-7.6 z"
           id="path255"
           inkscape:connector-curvature="0" /><path
           d="m 664.6,566.8 c -4.9,0 -4.9,7.6 0,7.6 4.9,0 4.9,-7.6 0,-7.6 z"
           id="path257"
           inkscape:connector-curvature="0" /><path
           d="m 772.1,494 c 4.9,0 4.9,-7.6 0,-7.6 -4.9,0 -4.9,7.6 0,7.6 z"
           id="path259"
           inkscape:connector-curvature="0" /><path
           d="m 747.3,476.5 c 4.9,0 4.9,-7.6 0,-7.6 -4.9,0 -4.9,7.6 0,7.6 z"
           id="path261"
           inkscape:connector-curvature="0" /><path
           d="m 723.4,455.6 c -4.9,0 -4.9,7.6 0,7.6 4.9,0 4.9,-7.6 0,-7.6 z"
           id="path263"
           inkscape:connector-curvature="0" /><path
           d="m 696.2,448.3 c -4.9,0 -4.9,7.6 0,7.6 4.9,0 4.9,-7.6 0,-7.6 z"
           id="path265"
           inkscape:connector-curvature="0" /><path
           d="m 663,450.4 c 4.9,0 4.9,-7.6 0,-7.6 -4.9,0 -4.9,7.6 0,7.6 z"
           id="path267"
           inkscape:connector-curvature="0" /><path
           d="m 156.2,524.1 c -4.9,0 -4.9,7.6 0,7.6 5,0 5,-7.6 0,-7.6 z"
           id="path269"
           inkscape:connector-curvature="0" /><path
           d="m 181.1,541.6 c -4.9,0 -4.9,7.6 0,7.6 4.9,0 4.9,-7.6 0,-7.6 z"
           id="path271"
           inkscape:connector-curvature="0" /><path
           d="m 205,554.9 c -4.9,0 -4.9,7.6 0,7.6 4.9,0 4.9,-7.6 0,-7.6 z"
           id="path273"
           inkscape:connector-curvature="0" /><path
           d="m 232.2,562.2 c -4.9,0 -4.9,7.6 0,7.6 4.9,0 4.9,-7.6 0,-7.6 z"
           id="path275"
           inkscape:connector-curvature="0" /><path
           d="m 265.3,567.7 c -4.9,0 -4.9,7.6 0,7.6 4.9,0 4.9,-7.6 0,-7.6 z"
           id="path277"
           inkscape:connector-curvature="0" /><path
           d="m 137.4,507.2 c -2.5,0 -3.7,2 -3.7,3.9 0,1.9 1.2,3.9 3.7,3.9 2.5,0 3.7,-2 3.7,-3.9 0,-1.9 -1.2,-3.9 -3.7,-3.9 z"
           id="path279"
           inkscape:connector-curvature="0" /><path
           d="m 155.8,497.7 c 4.9,0 4.9,-7.6 0,-7.6 -4.9,-0.1 -4.9,7.6 0,7.6 z"
           id="path281"
           inkscape:connector-curvature="0" /><path
           d="m 180.2,479.6 c 4.9,0 4.9,-7.6 0,-7.6 -4.9,-0.1 -4.9,7.6 0,7.6 z"
           id="path283"
           inkscape:connector-curvature="0" /><path
           d="m 203.7,458.1 c -4.9,0 -4.9,7.6 0,7.6 5,0 5,-7.6 0,-7.6 z"
           id="path285"
           inkscape:connector-curvature="0" /><path
           d="m 230.8,457.7 c 4.9,0 4.9,-7.6 0,-7.6 -4.9,0 -4.9,7.6 0,7.6 z"
           id="path287"
           inkscape:connector-curvature="0" /><path
           d="m 263.8,451.4 c 4.9,0 4.9,-7.6 0,-7.6 -4.9,-0.1 -4.9,7.6 0,7.6 z"
           id="path289"
           inkscape:connector-curvature="0" /><path
           d="m 299.3,446.7 c 4.9,0 4.9,-7.6 0,-7.6 -4.9,0 -4.9,7.6 0,7.6 z"
           id="path291"
           inkscape:connector-curvature="0" /><path
           d="m 669,743.9 c 4.9,0 4.9,-7.6 0,-7.6 -4.9,0 -4.9,7.6 0,7.6 z"
           id="path293"
           inkscape:connector-curvature="0" /><path
           d="m 639,731.6 c -4.9,0 -4.9,7.6 0,7.6 4.9,0 4.9,-7.6 0,-7.6 z"
           id="path295"
           inkscape:connector-curvature="0" /><path
           d="m 612.6,724.4 c -4.9,0 -4.9,7.6 0,7.6 4.9,0 4.9,-7.6 0,-7.6 z"
           id="path297"
           inkscape:connector-curvature="0" /><path
           d="m 588,710.6 c -4.9,0 -4.9,7.6 0,7.6 4.9,0.1 4.9,-7.6 0,-7.6 z"
           id="path299"
           inkscape:connector-curvature="0" /><path
           d="m 560.4,691.5 c -4.9,0 -4.9,7.6 0,7.6 4.9,0 4.9,-7.6 0,-7.6 z"
           id="path301"
           inkscape:connector-curvature="0" /><path
           d="m 691.5,738.5 c -2,2.1 -1.1,6.5 2.7,6.5 1.2,0 2.2,-0.5 2.8,-1.2 2,-2.1 1.1,-6.5 -2.7,-6.5 -1.3,0 -2.2,0.5 -2.8,1.2 z"
           id="path303"
           inkscape:connector-curvature="0" /><path
           d="m 693,719.8 c 4.9,0 4.9,-7.6 0,-7.6 -4.9,0 -4.9,7.6 0,7.6 z"
           id="path305"
           inkscape:connector-curvature="0" /><path
           d="m 688.2,689.8 c 4.9,0 4.9,-7.6 0,-7.6 -4.9,0 -4.9,7.6 0,7.6 z"
           id="path307"
           inkscape:connector-curvature="0" /><path
           d="m 681,663.4 c 4.9,0 4.9,-7.6 0,-7.6 -5,0 -5,7.6 0,7.6 z"
           id="path309"
           inkscape:connector-curvature="0" /><path
           d="m 667.1,638.9 c 4.9,0 4.9,-7.6 0,-7.6 -4.9,0 -4.9,7.6 0,7.6 z"
           id="path311"
           inkscape:connector-curvature="0" /><path
           d="m 647.9,603.7 c -4.9,0 -4.9,7.6 0,7.6 4.9,0 4.9,-7.6 0,-7.6 z"
           id="path313"
           inkscape:connector-curvature="0" /><path
           d="m 625.7,575.6 c -4.9,0 -4.9,7.6 0,7.6 4.9,0 4.9,-7.6 0,-7.6 z"
           id="path315"
           inkscape:connector-curvature="0" /><path
           d="m 236.9,279.6 c 2,-2.1 1.1,-6.5 -2.7,-6.5 -1.2,0 -2.2,0.5 -2.8,1.2 -2,2.1 -1.1,6.5 2.7,6.5 1.2,0 2.2,-0.5 2.8,-1.2 z"
           id="path317"
           inkscape:connector-curvature="0" /><path
           d="m 235.3,298.3 c -4.9,0 -4.9,7.6 0,7.6 4.9,0.1 4.9,-7.6 0,-7.6 z"
           id="path319"
           inkscape:connector-curvature="0" /><path
           d="m 240.2,328.3 c -4.9,0 -4.9,7.6 0,7.6 4.9,0 4.9,-7.6 0,-7.6 z"
           id="path321"
           inkscape:connector-curvature="0" /><path
           d="m 247.4,354.7 c -4.9,0 -4.9,7.6 0,7.6 4.9,0 4.9,-7.6 0,-7.6 z"
           id="path323"
           inkscape:connector-curvature="0" /><path
           d="m 261.2,379.2 c -4.9,0 -4.9,7.6 0,7.6 5,0.1 5,-7.6 0,-7.6 z"
           id="path325"
           inkscape:connector-curvature="0" /><path
           d="m 280.5,414.4 c 4.9,0 4.9,-7.6 0,-7.6 -4.9,0 -4.9,7.6 0,7.6 z"
           id="path327"
           inkscape:connector-curvature="0" /><path
           d="m 259.4,274.2 c -4.9,0 -4.9,7.6 0,7.6 4.9,0 4.9,-7.6 0,-7.6 z"
           id="path329"
           inkscape:connector-curvature="0" /><path
           d="m 289.4,286.6 c 4.9,0 4.9,-7.6 0,-7.6 -4.9,-0.1 -4.9,7.6 0,7.6 z"
           id="path331"
           inkscape:connector-curvature="0" /><path
           d="m 315.8,293.7 c 4.9,0 4.9,-7.6 0,-7.6 -4.9,0 -4.9,7.6 0,7.6 z"
           id="path333"
           inkscape:connector-curvature="0" /><path
           d="m 340.4,307.5 c 4.9,0 4.9,-7.6 0,-7.6 -4.9,-0.1 -4.9,7.6 0,7.6 z"
           id="path335"
           inkscape:connector-curvature="0" /><path
           d="m 368,326.6 c 4.9,0 4.9,-7.6 0,-7.6 -4.9,0 -4.9,7.6 0,7.6 z"
           id="path337"
           inkscape:connector-curvature="0" /><path
           d="m 396.2,348.7 c 4.9,0 4.9,-7.6 0,-7.6 -4.9,0 -4.9,7.6 0,7.6 z"
           id="path339"
           inkscape:connector-curvature="0" /></g></g></switch></svg>