<?xml version="1.0" encoding="UTF-8" standalone="no"?>
<svg
   xmlns:dc="http://purl.org/dc/elements/1.1/"
   xmlns:cc="http://creativecommons.org/ns#"
   xmlns:rdf="http://www.w3.org/1999/02/22-rdf-syntax-ns#"
   xmlns:svg="http://www.w3.org/2000/svg"
   xmlns="http://www.w3.org/2000/svg"
   xmlns:sodipodi="http://sodipodi.sourceforge.net/DTD/sodipodi-0.dtd"
   xmlns:inkscape="http://www.inkscape.org/namespaces/inkscape"
   version="1.1"
   id="Layer_1"
   x="0px"
   y="0px"
   viewBox="125.19998168945312 248.1500244140625 749.5999755859375 503.699951171875"
   width="100%"
   height="100%"
   style="enable-background:new 0 0 1000 1000;"
   xml:space="preserve"
   ><style
     type="text/css"
     id="style3">
	.noFillSVG{fill:none;}
</style><switch
     id="switch5"
     transform="translate(37.2,0.05)"><g
       id="g7"><g
         id="g9"><polygon
           class="noFillSVG"
           points="472.4,281 470.6,270.3 478.4,262.7 467.6,261.1 462.8,251.4 458,261.1 447.2,262.7 455,270.3 453.2,281 462.8,276 "
           id="polygon11"
           style="fill:none" /><polygon
           class="noFillSVG"
           points="513.3,304.2 511.4,293.5 519.2,285.9 508.5,284.3 503.6,274.5 498.8,284.3 488.1,285.9 495.9,293.5 494,304.2 503.6,299.1 "
           id="polygon13"
           style="fill:none" /><path
           class="noFillSVG"
           d="m 625.8,570.2 c 0.6,-8.5 1.1,-23.2 -1.9,-53 -1.4,-14.3 -2.8,-23.1 -4.5,-34.4 -0.6,-3.9 -1.2,-8.2 -1.9,-13.1 -6.7,-46 -10,-69 -9,-91.6 0.4,-8.9 1,-23.2 4.8,-40.7 -10.7,1.9 -25.5,4 -42.5,4 -13.6,0 -28.5,-1.3 -43.8,-5 -25.3,-6.1 -46.7,-17.6 -64.4,-30.8 -17.7,13.3 -39,24.7 -64.4,30.8 -15.3,3.7 -30.2,5 -43.8,5 -16.9,0 -31.7,-2 -42.4,-4 3.8,17.5 4.4,31.8 4.8,40.7 1,22.6 -2.4,45.7 -9,91.6 -0.7,4.9 -1.4,9.2 -2,13.1 -1.7,11.2 -3,20.1 -4.5,34.4 -5.3,53.5 -2.4,96.3 29.5,131.3 19.5,21.5 44.7,37.4 69.2,52.7 l 2.6,1.7 c 21.3,13.4 40.8,28.5 59,43.9 21,-17.6 44.1,-33 66.6,-48 10.6,-7.1 21.6,-14.4 32.1,-21.8 42.8,-30 62.4,-61.9 65.5,-106.8 z M 523.9,685.1 c -20.1,13.4 -40.7,27.1 -59.4,42.8 -0.9,0.8 -1.8,1.5 -2.7,2.3 -0.9,-0.8 -1.8,-1.5 -2.7,-2.3 -16.2,-13.7 -33.5,-27.1 -52.5,-39 l -2.4,-1.5 C 381.9,673.4 358.9,658.9 341,639.1 311.4,606.5 308.6,567 313.5,517.7 c 1.3,-13 2.5,-21 4.1,-31.2 0.5,-3.6 1.1,-7.4 1.8,-11.8 6,-41.3 9,-62.1 8.1,-82.2 -0.4,-8.2 -0.7,-23.8 -4.4,-40 -0.3,-1.2 -0.6,-2.5 -0.9,-3.7 1.2,0.2 2.4,0.5 3.8,0.7 16.9,3.1 46.4,9.3 77.7,1.7 22,-5.3 40.6,-15.2 56.1,-26.7 1,-0.7 1.9,-1.4 2.9,-2.2 0.9,0.7 1.9,1.4 2.9,2.2 15.5,11.5 34.1,21.3 56.1,26.7 31.4,7.6 60,1.3 77,-1.9 1.3,-0.2 2.6,-0.5 3.8,-0.7 -0.3,1.3 -0.6,2.5 -0.9,3.7 -3.7,16.2 -3.3,32 -3.6,40.2 -0.9,20.1 2.1,40.8 8.1,82.2 0.6,4.4 1.2,8.2 1.8,11.8 1.5,10.2 2.8,18.3 4.1,31.3 2.7,27.2 2.3,40.7 1.7,48.5 -3,41.7 -21.1,71.4 -60.6,99.1 -9.7,6.7 -19.6,13.3 -29.2,19.7 z"
           id="path15"
           inkscape:connector-curvature="0"
           style="fill:none" /><polygon
           class="noFillSVG"
           points="560.3,318.3 558.5,307.5 566.3,299.9 555.5,298.4 550.7,288.6 545.9,298.4 535.1,299.9 542.9,307.5 541,318.3 550.7,313.2 "
           id="polygon17"
           style="fill:none" /><polygon
           class="noFillSVG"
           points="432.4,304.2 430.6,293.5 438.4,285.9 427.6,284.3 422.8,274.5 418,284.3 407.2,285.9 415,293.5 413.1,304.2 422.8,299.1 "
           id="polygon19"
           style="fill:none" /><polygon
           class="noFillSVG"
           points="338.4,320.5 336.5,309.8 344.3,302.2 333.5,300.6 328.7,290.8 323.9,300.6 313.1,302.2 320.9,309.8 319.1,320.5 328.7,315.4 "
           id="polygon21"
           style="fill:none" /><polygon
           class="noFillSVG"
           points="607.3,320.5 605.5,309.8 613.3,302.2 602.5,300.6 597.7,290.8 592.9,300.6 582.1,302.2 589.9,309.8 588.1,320.5 597.7,315.4 "
           id="polygon23"
           style="fill:none" /><polygon
           class="noFillSVG"
           points="385.4,318.3 383.5,307.5 391.3,299.9 380.6,298.4 375.7,288.6 370.9,298.4 360.2,299.9 367.9,307.5 366.1,318.3 375.7,313.2 "
           id="polygon25"
           style="fill:none" /><path
           class="noFillSVG"
           d="m 238.3,438.3 c 3.4,1.9 6.6,4.3 9.4,6.8 2.8,2.5 5.1,5.2 6.8,7.7 3.5,5.1 4.8,9.3 4.9,9.6 0.1,0.4 1.6,4.4 2.2,10.4 0.3,3 0.4,6.7 -0.5,10.5 -0.8,3.8 -2.7,7.7 -5.7,10.6 -1.5,1.5 -3.3,2.7 -5.3,3.4 -1,0.4 -2.1,0.6 -3.2,0.6 -1.1,0 -2.3,-0.3 -3.3,-0.9 -1,-0.6 -1.7,-1.6 -2.2,-2.5 -0.4,-1 -0.6,-1.9 -0.7,-2.8 -0.1,-1.8 0.2,-3.5 0.6,-4.8 0.3,-1.3 0.5,-2.5 0.4,-3.4 -0.1,-0.9 -0.7,-1.6 -1.3,-1.9 -0.8,-0.5 -1.4,-0.4 -1.8,-0.3 -0.6,0.3 -1.5,0.9 -2.7,2 -0.9,0.9 -1.9,2.2 -2.6,3.9 -0.7,1.7 -1.1,3.8 -1,6.2 0.1,2.4 0.6,5 1.8,7.6 1.1,2.6 2.9,5.3 5.4,7.4 2.5,2.1 5.8,3.4 9.5,3.3 0.9,0.1 1.8,-0.1 2.8,-0.2 0.9,-0.1 1.8,-0.4 2.8,-0.6 0.9,-0.4 1.8,-0.6 2.7,-1 0.9,-0.5 1.8,-0.8 2.6,-1.4 6.9,-4.2 12.3,-12.2 14,-21.4 0.7,-4.6 0.7,-9.5 -0.4,-14.3 -1,-4.8 -3,-9.5 -5.8,-13.8 -5.5,-8.7 -13.9,-15.8 -23.5,-20.8 -7.4,-3.8 -15.5,-6.4 -23.9,-7.2 5.2,1.4 11.8,3.8 18,7.3 z"
           id="path27"
           inkscape:connector-curvature="0"
           style="fill:none" /><path
           class="noFillSVG"
           d="m 140,616.9 c -4.4,-2.2 -9.4,-4 -14.7,-4.6 -5.3,-0.5 -10.8,0.1 -15.4,2.3 -4.6,2.1 -8.1,5.8 -10.2,9.7 -1.6,3 -2.6,6.1 -3.3,8.9 0.8,-0.7 1.7,-1.5 2.7,-2.2 2.9,-2.1 6.9,-3.9 11.4,-4.6 1.1,-0.2 2.3,-0.2 3.5,-0.3 1.2,0.1 2.4,0 3.7,0.2 l 1.2,0.2 c 0.5,0.1 1,0.2 1.4,0.4 0.9,0.3 1.9,0.6 2.8,0.9 1.8,0.7 4.1,1.4 4.8,2 -1.2,0.6 -2.4,1.1 -3.6,1.7 -0.5,0.3 -1.1,0.5 -1.6,0.8 l -1.2,0.8 c -0.3,0.3 -0.6,0.5 -0.9,0.8 -0.3,0.2 -0.3,0.3 -0.5,0.5 -0.2,0.3 -0.4,0.5 -0.6,0.8 3.6,-2.4 7.3,-4.6 11.2,-6.1 5.5,-2.4 11.3,-3.2 16.1,-2.8 2.1,0.2 3.9,0.6 5.6,1 -1.9,-2 -3.6,-4.1 -5.3,-6.1 -2.1,-1.4 -4.5,-2.9 -7.1,-4.3 z"
           id="path29"
           inkscape:connector-curvature="0"
           style="fill:none" /><path
           class="noFillSVG"
           d="m 119.8,482.8 c 0.2,-1.8 0.3,-3.7 0.5,-5.5 0.1,-0.9 0.2,-1.8 0.2,-2.7 0,-0.4 0.1,-0.8 0.1,-1.3 0,-0.2 0,-0.2 0,-0.3 0,-0.1 -0.1,-0.1 -0.2,-0.1 -0.1,0 0,0 -0.3,-0.1 -0.8,-0.1 -1.6,-0.2 -2.3,-0.3 -1.6,-0.2 -3.1,-0.4 -4.5,-0.6 -2.8,-0.4 -5.1,-0.7 -6.8,-1 -0.8,-0.1 -1.5,-0.2 -2,-0.3 -0.2,0 -0.2,0 -0.1,0 l 0,0 0,0 c 0,0 0,0 -0.1,-0.1 -0.1,-0.1 -0.2,-0.1 -0.1,0.1 l 0,0 0,0 0,0 0.1,0.1 c 0.2,0.3 0.4,0.6 0.6,1 0.4,0.7 0.8,1.4 1.2,2.1 0.8,1.4 1.6,3 2.4,4.5 1.6,3.2 2.9,6.7 4.1,10.2 2.4,7.1 3.7,14.4 4,19.9 0.1,1.5 0.1,2.8 0.2,4 0.4,-2.3 0.9,-4.6 1.5,-6.9 0.1,-5.3 0.7,-13.9 1.5,-22.7 z"
           id="path31"
           inkscape:connector-curvature="0"
           style="fill:none" /><path
           class="noFillSVG"
           d="m 608.4,518.1 c -1.3,-12.9 -2.5,-20.9 -4,-31.1 -0.5,-3.6 -1.1,-7.4 -1.8,-11.8 -6,-41.5 -9,-62.4 -8.1,-82.8 0.4,-8 -0.1,-23.5 3.4,-39.3 -7.6,1.6 -25,6.1 -40.3,6.1 -12.3,0 -22.8,-1.1 -36.6,-4.5 -22.9,-5.5 -42.2,-15.9 -58.2,-27.8 -16,12 -35.3,22.3 -58.2,27.8 -13.8,3.3 -22.3,4.4 -34.5,4.4 -15.3,0 -33.5,-4.1 -43.2,-5.9 3.4,15.8 3.8,31.1 4.1,39.1 0.9,20.4 -2.1,41.3 -8.1,82.8 -0.6,4.4 -1.2,8.3 -1.8,11.9 -1.5,10.2 -2.7,18.2 -4,31 -4.8,48.3 -2.1,87 26.6,118.7 17.6,19.4 40.4,33.8 62.5,47.7 l 2.4,1.5 c 19.3,12.2 36.9,25.8 53.3,39.7 19,-15.9 39.8,-29.8 60.2,-43.4 9.6,-6.4 19.5,-13 29,-19.7 38.6,-27.1 56.3,-56 59.1,-96.5 0.5,-7.7 0.9,-21 -1.8,-47.9 z"
           id="path33"
           inkscape:connector-curvature="0"
           style="fill:none" /><path
           class="noFillSVG"
           d="m 806.2,477.4 c 0.2,1.8 0.3,3.6 0.5,5.5 0.7,8.7 1.4,17.4 1.7,23 0.6,2.4 1.1,4.7 1.5,6.9 0,-1.2 0.1,-2.5 0.2,-4 0.4,-5.5 1.6,-12.8 4,-19.9 1.2,-3.5 2.6,-7 4.1,-10.2 0.8,-1.6 1.6,-3.1 2.4,-4.5 0.4,-0.7 0.8,-1.4 1.2,-2.1 0.2,-0.3 0.4,-0.7 0.6,-1 l 0.1,-0.1 0,0 0,0 0,0 c 0.1,-0.2 0,-0.2 -0.1,-0.1 -0.1,0 -0.1,0.1 -0.1,0.1 l 0,0 0,0 c 0,0 0,0 -0.1,0 -0.5,0.1 -1.2,0.2 -2,0.3 -1.7,0.2 -4.1,0.6 -6.8,1 -1.4,0.2 -2.9,0.4 -4.5,0.6 -0.8,0.1 -1.5,0.2 -2.3,0.3 -0.2,0 -0.2,0 -0.3,0.1 -0.1,0 -0.1,0.1 -0.2,0.1 0,0.1 0,0.1 0,0.3 0,0.4 0.1,0.8 0.1,1.3 -0.2,0.6 -0.1,1.5 0,2.4 z"
           id="path35"
           inkscape:connector-curvature="0"
           style="fill:none" /><path
           class="noFillSVG"
           d="m 826.7,624.3 c -2.1,-4 -5.5,-7.6 -10.2,-9.7 -4.6,-2.2 -10.1,-2.8 -15.4,-2.3 -5.3,0.5 -10.3,2.3 -14.7,4.6 -2.7,1.3 -5,2.8 -7.2,4.3 -1.7,2.1 -3.5,4.1 -5.3,6.1 1.7,-0.5 3.5,-0.8 5.6,-1 4.8,-0.4 10.6,0.4 16.1,2.8 3.9,1.6 7.6,3.7 11.2,6.1 -0.2,-0.3 -0.4,-0.6 -0.6,-0.8 -0.2,-0.2 -0.2,-0.3 -0.5,-0.5 -0.3,-0.3 -0.6,-0.5 -0.9,-0.8 l -1.2,-0.8 c -0.5,-0.3 -1.1,-0.5 -1.6,-0.8 -1.2,-0.6 -2.4,-1.1 -3.6,-1.7 0.8,-0.6 3.1,-1.3 4.8,-2 0.9,-0.3 1.9,-0.6 2.8,-0.9 0.5,-0.2 0.9,-0.3 1.4,-0.4 l 1.2,-0.2 c 1.2,-0.2 2.5,-0.2 3.7,-0.2 1.2,0.1 2.4,0.1 3.5,0.3 4.6,0.7 8.5,2.5 11.4,4.6 1,0.7 1.9,1.5 2.7,2.2 -0.6,-2.8 -1.6,-5.8 -3.2,-8.9 z"
           id="path37"
           inkscape:connector-curvature="0"
           style="fill:none" /><path
           class="noFillSVG"
           d="m 658.8,459 c -2.7,4.3 -4.7,9 -5.8,13.8 -1.1,4.8 -1.1,9.7 -0.4,14.3 1.7,9.1 7.1,17.1 14,21.4 0.8,0.6 1.8,1 2.6,1.4 0.9,0.4 1.8,0.7 2.7,1 0.9,0.2 1.9,0.5 2.8,0.6 0.9,0.1 1.9,0.2 2.8,0.2 3.7,0.1 7,-1.2 9.5,-3.3 2.5,-2.1 4.3,-4.7 5.4,-7.4 1.2,-2.6 1.7,-5.3 1.8,-7.6 0.1,-2.4 -0.4,-4.5 -1,-6.2 -0.7,-1.7 -1.7,-3 -2.6,-3.9 -1.2,-1.1 -2.2,-1.7 -2.7,-2 -0.4,-0.1 -1,-0.2 -1.8,0.3 -0.6,0.4 -1.2,1 -1.3,1.9 -0.2,1 0,2.1 0.4,3.4 0.4,1.3 0.7,3 0.6,4.8 -0.1,0.9 -0.3,1.9 -0.7,2.8 -0.4,1 -1.2,1.9 -2.2,2.5 -1,0.6 -2.2,0.9 -3.3,0.9 -1.1,0 -2.2,-0.3 -3.2,-0.6 -2,-0.8 -3.7,-2 -5.3,-3.4 -3,-2.9 -4.9,-6.8 -5.7,-10.6 -0.8,-3.8 -0.8,-7.4 -0.5,-10.5 0.6,-6.1 2.1,-10.1 2.2,-10.4 0.2,-0.3 1.4,-4.5 4.9,-9.6 1.8,-2.5 4.1,-5.2 6.8,-7.7 2.8,-2.5 6,-4.8 9.4,-6.8 6.2,-3.6 12.7,-5.9 18,-7.4 -8.4,0.9 -16.5,3.5 -23.9,7.2 -9.6,5.1 -18,12.2 -23.5,20.9 z"
           id="path39"
           inkscape:connector-curvature="0"
           style="fill:none" /><path
           d="m 562.6,680.2 c 43.7,-30.7 63.8,-63.5 67.1,-109.7 0.6,-8.6 1.1,-23.6 -1.9,-53.7 -1.4,-14.4 -2.8,-23.3 -4.5,-34.6 -0.6,-3.9 -1.2,-8.2 -1.9,-13.1 -6.6,-45.7 -9.9,-68.7 -9,-90.9 0.4,-9 1,-23.7 5.1,-41.7 0.3,-1.4 0.6,-2.7 1,-4.1 -1.3,0.3 -2.7,0.5 -4.2,0.8 -18.7,3.5 -51.6,7.7 -86.3,-0.7 -24.3,-5.9 -45,-16.8 -62.1,-29.5 -1.1,-0.8 -2.1,-1.6 -3.2,-2.4 -1,0.8 -2.1,1.6 -3.2,2.4 -17.1,12.7 -37.7,23.6 -62.1,29.5 -34.7,8.4 -67.5,4.2 -86.3,0.7 -1.5,-0.3 -2.9,-0.5 -4.2,-0.8 0.3,1.4 0.7,2.8 1,4.1 4,17.9 4.7,32.6 5.1,41.7 1,22.2 -2.4,45.2 -9,90.9 -0.7,4.9 -1.4,9.1 -2,13.1 -1.7,11.3 -3.1,20.2 -4.5,34.5 -5.4,54.5 -2.4,98.2 30.5,134.3 19.8,21.9 45.3,37.9 70,53.4 l 2.6,1.7 c 21,13.2 40.2,28 58.1,43.2 1,0.8 2,1.7 3,2.5 1,-0.8 2,-1.7 3,-2.5 20.8,-17.3 43.5,-32.5 65.7,-47.4 10.6,-7 21.6,-14.3 32.2,-21.7 z m -100.9,66.6 c -18.2,-15.4 -37.7,-30.5 -59,-43.9 l -2.6,-1.7 C 375.7,685.8 350.4,669.9 330.9,648.5 299,613.4 296.1,570.6 301.4,517.2 c 1.4,-14.2 2.8,-23.1 4.5,-34.4 0.6,-4 1.2,-8.2 2,-13.1 6.7,-46 10,-69 9,-91.6 -0.4,-8.9 -1,-23.2 -4.8,-40.7 10.7,1.9 25.5,4 42.4,4 13.6,0 28.5,-1.3 43.8,-5 25.3,-6.1 46.7,-17.6 64.4,-30.8 17.7,13.3 39,24.7 64.4,30.8 15.3,3.7 30.2,5 43.8,5 16.9,0 31.7,-2 42.5,-4 -3.8,17.5 -4.4,31.8 -4.8,40.7 -1,22.6 2.4,45.7 9,91.6 0.7,4.9 1.3,9.1 1.9,13.1 1.7,11.3 3,20.1 4.5,34.4 3,29.8 2.5,44.5 1.9,53 -3.2,44.9 -22.8,76.8 -65.4,106.8 -10.6,7.4 -21.5,14.7 -32.1,21.8 -22.6,15 -45.7,30.4 -66.7,48 z"
           id="path41"
           inkscape:connector-curvature="0" /><path
           d="m 613.6,566.2 c 0.6,-7.8 1,-21.3 -1.7,-48.5 -1.3,-13 -2.5,-21 -4.1,-31.3 -0.5,-3.6 -1.1,-7.4 -1.8,-11.8 -6,-41.3 -9,-62.1 -8.1,-82.2 0.4,-8.2 0,-23.9 3.6,-40.2 0.3,-1.2 0.6,-2.5 0.9,-3.7 -1.2,0.2 -2.4,0.5 -3.8,0.7 -16.9,3.1 -45.6,9.5 -77,1.9 -22,-5.3 -40.6,-15.2 -56.1,-26.7 -1,-0.7 -1.9,-1.4 -2.9,-2.2 -0.9,0.7 -1.9,1.4 -2.9,2.2 -15.5,11.5 -34.1,21.3 -56.1,26.7 -31.4,7.6 -60.8,1.4 -77.7,-1.7 -1.3,-0.2 -2.6,-0.5 -3.8,-0.7 0.3,1.3 0.6,2.5 0.9,3.7 3.7,16.2 4,31.8 4.4,40 0.9,20.1 -2.1,40.8 -8.1,82.2 -0.6,4.4 -1.2,8.3 -1.8,11.8 -1.5,10.2 -2.8,18.3 -4.1,31.2 -4.9,49.2 -2.1,88.7 27.5,121.4 17.9,19.8 41,34.2 63.2,48.3 l 2.4,1.5 c 18.9,11.9 36.3,25.3 52.5,39 0.9,0.8 1.8,1.5 2.7,2.3 0.9,-0.8 1.8,-1.5 2.7,-2.3 18.8,-15.7 39.3,-29.4 59.4,-42.8 9.6,-6.4 19.5,-13 29.1,-19.7 39.6,-27.7 57.7,-57.4 60.7,-99.1 z M 551,662.5 c -9.5,6.7 -19.4,13.3 -29,19.7 -20.4,13.6 -41.2,27.5 -60.2,43.4 -16.4,-13.9 -34,-27.5 -53.3,-39.7 l -2.4,-1.5 C 384,670.5 361.2,656.1 343.6,636.7 314.8,605 312.1,566.3 317,518 c 1.3,-12.9 2.5,-20.9 4,-31 0.5,-3.6 1.1,-7.4 1.8,-11.9 6,-41.5 9,-62.4 8.1,-82.8 -0.3,-8 -0.7,-23.3 -4.1,-39.1 9.7,1.7 27.9,5.9 43.2,5.9 12.3,0 20.7,-1.1 34.5,-4.4 22.9,-5.5 42.2,-15.9 58.2,-27.8 16,12 35.3,22.3 58.2,27.8 13.8,3.3 24.4,4.5 36.6,4.5 15.3,0 32.7,-4.5 40.3,-6.1 -3.4,15.8 -3,31.3 -3.4,39.3 -0.9,20.4 2.1,41.3 8.1,82.8 0.6,4.4 1.2,8.2 1.8,11.8 1.5,10.2 2.8,18.2 4,31.1 2.7,26.9 2.3,40.2 1.7,47.9 -2.8,40.5 -20.4,69.4 -59,96.5 z"
           id="path43"
           inkscape:connector-curvature="0" /><path
           d="m 317.2,323.1 11.6,-6.1 11.6,6.1 -2.2,-12.9 9.4,-9.1 -12.9,-1.9 -5.8,-11.7 -5.8,11.7 -12.9,1.9 9.4,9.1 -2.4,12.9 z m -4.1,-20.9 10.8,-1.6 4.8,-9.8 4.8,9.8 10.8,1.6 -7.8,7.6 1.8,10.7 -9.6,-5.1 -9.6,5.1 1.8,-10.7 -7.8,-7.6 z"
           id="path45"
           inkscape:connector-curvature="0" /><path
           d="m 364.2,320.9 11.6,-6.1 11.6,6.1 -2.2,-12.9 9.4,-9.1 -12.9,-1.9 -5.8,-11.7 -5.8,11.7 -12.9,1.9 9.4,9.1 -2.4,12.9 z m -4,-21 10.8,-1.6 4.8,-9.8 4.8,9.8 10.8,1.6 -7.8,7.6 1.8,10.7 -9.6,-5.1 -9.6,5.1 1.8,-10.7 -7.8,-7.6 z"
           id="path47"
           inkscape:connector-curvature="0" /><path
           d="m 411.2,306.8 11.6,-6.1 11.6,6.1 -2.2,-12.9 9.4,-9.1 -12.9,-1.9 -5.8,-11.7 -5.9,11.8 -12.9,1.9 9.4,9.1 -2.3,12.8 z m -4,-20.9 10.8,-1.6 4.8,-9.8 4.8,9.8 10.8,1.6 -7.8,7.6 1.8,10.7 -9.6,-5.1 -9.6,5.1 1.8,-10.7 -7.8,-7.6 z"
           id="path49"
           inkscape:connector-curvature="0" /><path
           d="m 586.1,323.1 11.6,-6.1 11.6,6.1 -2.2,-12.9 9.4,-9.1 -12.9,-1.9 -5.8,-11.7 -5.8,11.7 -12.9,1.9 9.4,9.1 -2.4,12.9 z m -4,-20.9 10.8,-1.6 4.8,-9.8 4.8,9.8 10.8,1.6 -7.8,7.6 1.8,10.7 -9.6,-5.1 -9.6,5.1 1.8,-10.7 -7.8,-7.6 z"
           id="path51"
           inkscape:connector-curvature="0" /><path
           d="m 539.1,320.9 11.6,-6.1 11.6,6.1 -2.3,-12.9 9.4,-9.1 -12.9,-1.9 -5.8,-11.7 -5.8,11.7 -12.9,1.9 9.4,9.1 -2.3,12.9 z m -4,-21 10.8,-1.6 4.8,-9.8 4.8,9.8 10.8,1.6 -7.8,7.6 1.8,10.7 -9.6,-5.1 -9.6,5.1 1.8,-10.7 -7.8,-7.6 z"
           id="path53"
           inkscape:connector-curvature="0" /><path
           d="m 492.1,306.8 11.6,-6.1 11.6,6.1 -2.3,-12.8 9.4,-9.1 -12.9,-1.9 -5.8,-11.7 -5.8,11.7 -12.9,1.9 9.4,9.1 -2.3,12.8 z m -4,-20.9 10.8,-1.6 4.8,-9.8 4.8,9.8 10.8,1.6 -7.8,7.6 1.8,10.7 -9.6,-5.1 -9.6,5.1 1.8,-10.7 -7.8,-7.6 z"
           id="path55"
           inkscape:connector-curvature="0" /><path
           d="m 451.2,283.7 11.6,-6.1 11.6,6.1 -2.2,-12.9 9.4,-9.1 -12.9,-1.9 -5.8,-11.7 -5.8,11.7 -12.9,1.9 9.4,9.1 -2.4,12.9 z m -4,-21 10.8,-1.6 4.8,-9.8 4.8,9.8 10.8,1.6 -7.8,7.6 1.8,10.7 -9.6,-5.1 -9.6,5.1 1.8,-10.7 -7.8,-7.6 z"
           id="path57"
           inkscape:connector-curvature="0" /><path
           d="m 767.8,677.5 c -1.3,-2.1 -3.2,-3.9 -5.3,-5.1 -4.1,-2.4 -8.9,-2.8 -12.8,-1.7 -4,1 -7,3.7 -8.8,6.4 -1.8,2.8 -2.4,5.6 -2.5,7.9 -0.1,2.3 0.3,4.1 0.7,5.3 0.4,1.2 0.8,1.7 0.8,1.7 0.1,0 -0.1,-0.7 -0.3,-1.8 -0.2,-1.1 -0.4,-2.9 -0.2,-5 0.3,-2.1 1,-4.7 2.8,-7.2 1.7,-2.4 4.5,-4.6 8,-5.4 3.5,-0.8 7.7,-0.3 11.1,1.9 3.5,2.1 5.8,6.1 6.3,10.6 0.5,4.4 -0.7,9.3 -3.2,13.2 -2.6,4 -6.6,7.1 -10.9,9.3 -4.4,2.2 -9.3,3.7 -14.2,4.7 -4.9,1 -9.8,1.5 -14.6,1.9 -4.8,0.3 -9.5,0.2 -13.9,0.1 -4.4,-0.2 -8.7,-0.5 -12.6,-0.9 -7.8,-0.8 -14.4,-1.7 -19.2,-2.3 -4.8,-0.6 -7.7,-1 -8.2,-1.1 -0.9,-0.1 -11.9,-1.6 -27.8,-2.3 -4,-0.2 -8.3,-0.2 -12.8,-0.3 -4.5,0 -9.3,0 -14.2,0.3 -9.8,0.4 -20.2,1.2 -30.5,2.5 -20.6,2.6 -40.8,7.4 -55.5,12 -1.8,0.6 -3.6,1.1 -5.3,1.7 -1.7,0.6 -3.2,1.1 -4.7,1.6 -3,1 -5.5,1.9 -7.6,2.8 -4.2,1.7 -6.5,2.7 -6.5,2.8 0.1,0.2 2.5,-0.5 6.8,-1.9 2.1,-0.7 4.7,-1.5 7.7,-2.3 1.5,-0.4 3.1,-0.9 4.8,-1.4 1.7,-0.5 3.5,-0.9 5.3,-1.4 14.8,-4.1 34.9,-8.3 55.4,-10.4 10.2,-1.1 20.5,-1.7 30.2,-1.9 4.9,-0.2 9.6,0 14,0 4.5,0.1 8.7,0.3 12.7,0.5 15.7,0.9 26.5,2.6 27.5,2.6 0.5,0.1 3.4,0.4 8.2,1 4.8,0.6 11.5,1.4 19.4,2 4,0.3 8.3,0.6 12.8,0.7 4.6,0.1 9.4,0 14.3,-0.4 4.9,-0.4 10,-1 15.1,-2.2 5.1,-1.1 10.2,-2.7 15,-5.3 4.7,-2.5 9.1,-6.1 12,-10.7 2.8,-4.7 4,-10.1 3.3,-15.2 -0.4,-2.7 -1.2,-5.2 -2.6,-7.3 z"
           id="path59"
           inkscape:connector-curvature="0" /><path
           d="m 836.4,643.3 c -0.2,-1.8 -0.5,-4.8 -1.3,-8.4 -0.8,-3.7 -2,-8.2 -4.6,-12.7 -1.3,-2.2 -3,-4.5 -5.1,-6.4 -2.1,-1.9 -4.6,-3.6 -7.3,-4.7 -5.5,-2.3 -11.6,-2.8 -17.4,-2 -5.8,0.8 -11.1,3 -15.5,5.5 -0.6,0.3 -1.1,0.7 -1.6,1 2,-2.7 3.8,-5.3 5.5,-7.9 2.1,-3.5 4.2,-6.7 5.8,-9.9 3.5,-6.4 6,-12.3 7.9,-17.3 0.9,-2.5 1.7,-4.8 2.4,-6.9 0.2,-0.7 0.4,-1.3 0.6,-1.9 8.2,4 14.9,9.7 19.5,15.5 2.6,3.2 4.6,6.4 6,9.5 1.5,3 2.4,5.8 3,8.1 0.5,2.3 0.9,4.2 1.1,5.5 0.2,1.3 0.3,2 0.4,2 0.1,0 0.1,-0.7 0.1,-2 0,-1.3 -0.2,-3.2 -0.6,-5.7 -0.5,-2.4 -1.3,-5.3 -2.7,-8.5 -1.3,-3.2 -3.3,-6.6 -5.8,-10 -4.7,-6.3 -11.6,-12.5 -20.3,-16.9 0.1,-0.3 0.2,-0.6 0.2,-0.8 0.4,-1.5 0.8,-2.7 1,-3.6 0.2,-0.9 0.3,-1.5 0.4,-1.8 0.1,-0.5 0.5,-2.4 1.2,-5.5 0.5,-3.1 1.3,-7.4 1.7,-12.7 0.5,-5.4 0.7,-11.8 0.3,-19.1 -0.2,-2.7 -0.5,-5.5 -0.9,-8.4 0.3,-1.3 0.6,-4.3 1.3,-8.3 0.9,-5.3 2.7,-12.3 5.4,-19 1.4,-3.3 2.9,-6.6 4.5,-9.6 0.8,-1.5 1.6,-2.9 2.5,-4.2 0.4,-0.7 0.8,-1.3 1.2,-1.9 0.6,-0.9 1.1,-1.7 1.7,-2.5 1.6,-2.3 3.1,-4.3 4.4,-6.2 0.3,-0.5 0.7,-0.9 1,-1.4 0,0 0.1,-0.1 0.1,-0.1 l -0.2,0 -0.4,0.1 c -0.3,0 -0.5,0.1 -0.7,0.1 -1,0.1 -1.9,0.3 -2.7,0.4 -3.3,0.5 -5.4,0.8 -5.7,0.9 -0.2,0 -1.5,0.3 -3.6,0.6 -1.7,0.3 -4,0.7 -6.8,1.2 -1.4,0.3 -2.9,0.5 -4.4,0.8 -0.8,0.2 -1.6,0.3 -2.5,0.5 -0.6,0.1 -1.5,0.4 -2.1,0.8 -0.6,0.4 -1.1,1.1 -1.4,1.8 -0.3,0.7 -0.3,1.6 -0.2,2.3 0.1,0.5 0.1,0.9 0.2,1.4 0.1,0.9 0.3,1.8 0.4,2.7 0.3,1.8 0.5,3.6 0.8,5.4 0.5,3.7 1.1,7.4 1.6,10.9 -5.5,-14.8 -15.3,-30 -29.2,-42.3 -8.1,-7.2 -17.7,-13.4 -28.2,-17.8 -10.5,-4.4 -22,-6.9 -33.5,-6.9 -11.6,-0.2 -23.1,3 -33.1,8.3 -10,5.3 -18.7,12.8 -24.4,22.1 -2.8,4.6 -4.9,9.6 -5.9,14.8 -1.1,5.1 -1.1,10.3 -0.2,15.2 2,9.8 7.8,18.1 15.3,22.6 0.9,0.6 1.9,1 2.9,1.5 1,0.4 2,0.7 3,1.1 1,0.2 2,0.5 3,0.6 1,0 2,0.2 3,0.2 1,-0.1 2,0 2.9,-0.3 0.5,-0.1 1,-0.2 1.4,-0.3 0.5,-0.1 0.9,-0.3 1.4,-0.5 1.8,-0.7 3.4,-1.7 4.7,-2.9 2.7,-2.3 4.5,-5.2 5.6,-8 1.1,-2.8 1.6,-5.6 1.6,-8.1 0,-2.5 -0.5,-4.7 -1.3,-6.5 -0.8,-1.8 -1.9,-3.1 -2.9,-3.9 -1,-0.9 -1.9,-1.4 -2.6,-1.6 0,0 0,0 -0.1,0 0,-0.1 -0.2,-0.3 -0.5,-0.5 -0.4,-0.3 -1.3,-0.4 -2.1,-0.1 -0.9,0.3 -1.9,1.1 -2.3,2.5 -0.4,1.3 -0.3,2.8 -0.1,4.2 0.2,1.4 0.4,2.8 0.1,4.2 -0.2,1.4 -0.9,2.7 -1.9,3.2 -1,0.6 -2.5,0.4 -4,-0.3 -1.4,-0.7 -2.8,-1.7 -3.9,-3 -2.3,-2.5 -3.7,-5.8 -4.2,-9 -0.6,-3.2 -0.4,-6.4 0,-9.1 0.8,-5.5 2.3,-9.1 2.3,-9.4 0.1,-0.3 1.1,-4 4,-8.7 2.9,-4.7 8.1,-10 14.3,-14 6.2,-4.1 13.1,-7 18.3,-9 1.7,-0.7 3.3,-1.2 4.5,-1.7 0.4,0 0.7,0 1.1,0 11.1,0.2 22,2.7 32.1,7 10,4.3 19.2,10.3 26.9,17.3 15.6,14 25.7,31.8 30,48.1 2.2,8.2 3.4,16 3.8,23 0.3,7 0.2,13.2 -0.4,18.3 -0.4,5.2 -1.3,9.3 -1.7,12.3 -0.7,2.9 -1.1,4.8 -1.2,5.3 -0.1,0.3 -0.2,0.8 -0.4,1.7 -0.2,0.9 -0.6,2 -0.9,3.5 0,0 0,0 0,0.1 -9.3,-3.8 -20,-5.7 -30.6,-5.8 -11.5,-0.1 -22.9,1.7 -33.3,4.1 -10.5,2.4 -20.1,5.5 -28.3,8.6 -16.3,6.3 -26.7,12.5 -27.7,13 -0.2,0.1 -1.1,0.6 -2.4,1.4 -1.3,0.8 -3.2,1.9 -5.4,3.3 -4.5,2.9 -10.7,7 -17.5,12.4 -6.9,5.4 -14.4,12.2 -22.1,19.6 -7.7,7.5 -15.4,15.7 -23.2,23.9 -7.8,8.2 -15.5,16.3 -23,23.6 -7.5,7.3 -14.9,13.7 -21.4,18.9 -6.6,5.1 -12.4,9 -16.5,11.6 -4.2,2.5 -6.5,4 -6.4,4.2 0.1,0.2 2.6,-1.1 6.9,-3.3 4.3,-2.3 10.3,-6 17.2,-10.9 6.8,-5 14.4,-11.3 22.2,-18.4 7.7,-7.2 15.7,-15.2 23.6,-23.2 7.9,-8 15.8,-16.1 23.5,-23.4 7.7,-7.3 15.2,-13.8 22,-19 6.8,-5.2 12.8,-9.2 17.3,-11.9 2.2,-1.4 4,-2.4 5.3,-3.2 1.3,-0.8 2.1,-1.2 2.3,-1.4 0.9,-0.4 11,-6.7 26.9,-13 7.9,-3.2 17.3,-6.4 27.6,-8.9 10.2,-2.6 21.3,-4.4 32.4,-4.6 10.4,-0.1 20.8,1.5 29.8,5 -0.2,0.8 -0.4,1.5 -0.7,2.4 -0.7,2 -1.4,4.2 -2.3,6.6 -1.9,4.8 -4.2,10.6 -7.6,16.8 -1.6,3.1 -3.6,6.3 -5.6,9.6 -2.2,3.2 -4.4,6.7 -7.1,10 -10.3,13.6 -24.8,27.4 -42.6,38.8 -17.7,11.5 -38.4,20.8 -60,26.8 -21.6,6.2 -43.8,9.9 -64.5,14.1 -20.7,4.2 -39.7,9.4 -55.7,14.7 -16,5.3 -29,10.6 -37.9,14.5 -4.5,2 -8,3.6 -10.3,4.7 -2.4,1.1 -3.6,1.8 -3.6,1.9 0,0.1 1.3,-0.4 3.8,-1.4 2.4,-1 6,-2.5 10.5,-4.3 9.1,-3.6 22.1,-8.6 38.1,-13.6 16,-5 35,-9.9 55.6,-13.9 20.6,-4 42.9,-7.5 64.9,-13.5 21.9,-6 43.1,-15.2 61.3,-26.8 13.2,-8.4 24.8,-18.1 34.2,-28.2 2.1,-0.6 4.7,-1 7.6,-1.1 4.5,-0.1 9.8,0.9 14.9,3.4 5.1,2.4 10.1,5.9 14.9,9.7 l 3.1,2.5 -0.3,-4 c -0.1,-2.3 -0.9,-4.6 -2.2,-6.5 -0.3,-0.5 -0.6,-0.9 -1,-1.4 l -0.5,-0.6 -0.2,-0.2 c -0.1,-0.2 -0.3,-0.3 -0.4,-0.4 0,0 -0.1,-0.1 -0.1,-0.1 -0.1,0 0.1,0 0.1,-0.1 l 0.3,-0.1 0.3,0 c 0,0 0.1,0 0.1,0 l 0.1,0 0.4,0 c 1,-0.2 2,-0.1 3,-0.1 1,0.1 2,0.1 2.9,0.4 3.8,0.7 7.1,2.3 9.4,4.1 2.4,1.8 4,3.7 4.9,5.1 0.5,0.7 0.8,1.3 1,1.8 0.2,0.4 0.4,0.7 0.4,0.8 0.1,0.1 0.3,0.7 0.7,1.7 l 6.5,15.6 -1.2,-16.2 z m -148.3,-205 c -3.4,1.9 -6.6,4.3 -9.4,6.8 -2.8,2.5 -5.1,5.2 -6.8,7.7 -3.5,5.1 -4.8,9.3 -4.9,9.6 -0.1,0.4 -1.6,4.4 -2.2,10.4 -0.3,3 -0.4,6.7 0.5,10.5 0.8,3.8 2.7,7.7 5.7,10.6 1.5,1.5 3.3,2.7 5.3,3.4 1,0.4 2.1,0.6 3.2,0.6 1.1,0 2.3,-0.3 3.3,-0.9 1,-0.6 1.7,-1.6 2.2,-2.5 0.4,-1 0.6,-1.9 0.7,-2.8 0.1,-1.8 -0.2,-3.5 -0.6,-4.8 -0.3,-1.3 -0.5,-2.5 -0.4,-3.4 0.1,-0.9 0.7,-1.6 1.3,-1.9 0.8,-0.5 1.4,-0.4 1.8,-0.3 0.5,0.3 1.5,0.9 2.7,2 0.9,0.9 1.9,2.2 2.6,3.9 0.7,1.7 1.1,3.8 1,6.2 -0.1,2.4 -0.6,5 -1.8,7.6 -1.1,2.6 -2.9,5.3 -5.4,7.4 -2.5,2.1 -5.8,3.4 -9.5,3.3 -0.9,0.1 -1.8,-0.1 -2.8,-0.2 -0.9,-0.1 -1.8,-0.4 -2.8,-0.6 -0.9,-0.4 -1.8,-0.6 -2.7,-1 -0.9,-0.5 -1.8,-0.8 -2.6,-1.4 -6.9,-4.2 -12.3,-12.2 -14,-21.4 -0.7,-4.6 -0.7,-9.5 0.4,-14.3 1,-4.8 3,-9.5 5.8,-13.8 5.5,-8.7 13.9,-15.8 23.5,-20.8 7.4,-3.8 15.5,-6.4 23.9,-7.2 -5.2,1.4 -11.8,3.8 -18,7.3 z m 117.8,34.9 c 0,-0.1 0.1,-0.1 0.2,-0.1 0.1,0 0,0 0.3,-0.1 0.8,-0.1 1.6,-0.2 2.3,-0.3 1.6,-0.2 3.1,-0.4 4.5,-0.6 2.8,-0.4 5.1,-0.7 6.8,-1 0.8,-0.1 1.5,-0.2 2,-0.3 0.2,0 0.2,0 0.1,0 l 0,0 0,0 c 0,0 0,0 0.1,-0.1 0.1,-0.1 0.2,-0.1 0.1,0.1 l 0,0 0,0 0,0 -0.1,0.1 c -0.2,0.3 -0.4,0.6 -0.6,1 -0.4,0.7 -0.8,1.4 -1.2,2.1 -0.8,1.4 -1.6,3 -2.4,4.5 -1.6,3.2 -2.9,6.7 -4.1,10.2 -2.4,7.1 -3.7,14.4 -4,19.9 -0.1,1.5 -0.1,2.8 -0.2,4 -0.4,-2.3 -0.9,-4.6 -1.5,-6.9 -0.3,-5.6 -0.9,-14.3 -1.7,-23 -0.2,-1.8 -0.3,-3.7 -0.5,-5.5 -0.1,-0.9 -0.2,-1.8 -0.2,-2.7 0,-0.4 -0.1,-0.8 -0.1,-1.3 0.1,0.1 0.2,0.1 0.2,0 z M 827.3,631 c -2.9,-2.1 -6.9,-3.9 -11.4,-4.6 -1.1,-0.2 -2.3,-0.2 -3.5,-0.3 -1.2,0.1 -2.4,0 -3.7,0.2 l -1.2,0.2 c -0.5,0.1 -1,0.2 -1.4,0.4 -0.9,0.3 -1.9,0.6 -2.8,0.9 -1.8,0.7 -4.1,1.4 -4.8,2 1.2,0.6 2.4,1.1 3.6,1.7 0.5,0.3 1.1,0.5 1.6,0.8 l 1.2,0.8 c 0.3,0.3 0.6,0.5 0.9,0.8 0.3,0.2 0.3,0.3 0.5,0.5 0.2,0.3 0.4,0.5 0.6,0.8 -3.6,-2.4 -7.3,-4.6 -11.2,-6.1 -5.5,-2.4 -11.3,-3.2 -16.1,-2.8 -2.1,0.2 -3.9,0.6 -5.6,1 1.9,-2 3.6,-4.1 5.3,-6.1 2.2,-1.5 4.6,-3 7.2,-4.3 4.4,-2.2 9.4,-4 14.7,-4.6 5.3,-0.5 10.8,0.1 15.4,2.3 4.6,2.1 8.1,5.8 10.2,9.7 1.6,3 2.6,6.1 3.3,8.9 -0.9,-0.7 -1.8,-1.4 -2.8,-2.2 z"
           id="path61"
           inkscape:connector-curvature="0" /><path
           d="m 684.8,469.1 c 4.3,0 4.3,-6.7 0,-6.7 -4.4,0 -4.4,6.7 0,6.7 z"
           id="path63"
           inkscape:connector-curvature="0" /><path
           d="m 699.8,453.9 c 0.1,-0.1 0.1,-0.3 0.2,-0.4 0.5,-1.3 -0.1,-3.1 -1.1,-4 -1,-1 -2.7,-1.6 -4,-1.1 -0.1,0.1 -0.3,0.1 -0.4,0.2 -1.5,0.6 -2.6,1.4 -3,3 -0.4,1.5 0,3.1 1.1,4.2 1.1,1.1 2.7,1.5 4.2,1.1 1.6,-0.4 2.4,-1.6 3,-3 z"
           id="path65"
           inkscape:connector-curvature="0" /><path
           d="m 714.5,437.2 c -6,0 -6,9.3 0,9.3 6,0 6,-9.3 0,-9.3 z"
           id="path67"
           inkscape:connector-curvature="0" /><path
           d="m 735.2,446 c 1.4,-0.1 2.8,-1.2 2.7,-2.7 -0.1,-1.5 -1.2,-2.6 -2.7,-2.7 -0.2,0 -0.3,0 -0.5,0 -1.4,-0.1 -2.8,1.3 -2.8,2.8 0.1,1.4 1.2,2.8 2.8,2.8 0.2,-0.1 0.4,-0.2 0.5,-0.2 z"
           id="path69"
           inkscape:connector-curvature="0" /><path
           d="m 754.3,682.4 c -6.6,0 -6.6,10.2 0,10.2 6.6,0 6.6,-10.2 0,-10.2 z"
           id="path71"
           inkscape:connector-curvature="0" /><path
           d="m 742.7,705.6 c 5.6,0 5.6,-8.6 0,-8.6 -5.5,0 -5.5,8.6 0,8.6 z"
           id="path73"
           inkscape:connector-curvature="0" /><path
           d="m 723.9,702.7 c -3.7,0 -3.7,5.8 0,5.8 3.7,0 3.7,-5.8 0,-5.8 z"
           id="path75"
           inkscape:connector-curvature="0" /><path
           d="m 419.2,729.1 c -2.4,-1.2 -5.8,-2.8 -10.3,-4.7 -9,-3.9 -21.9,-9.2 -37.9,-14.5 -16,-5.3 -35,-10.5 -55.7,-14.7 -20.6,-4.3 -42.9,-8 -64.5,-14.1 -21.6,-6.1 -42.3,-15.3 -60,-26.8 -17.7,-11.5 -32.2,-25.3 -42.6,-38.8 -2.6,-3.4 -4.9,-6.8 -7.1,-10 -2,-3.4 -4,-6.5 -5.6,-9.6 -3.4,-6.2 -5.7,-11.9 -7.6,-16.8 -0.9,-2.4 -1.6,-4.7 -2.3,-6.6 -0.3,-0.8 -0.5,-1.6 -0.7,-2.4 9.1,-3.5 19.5,-5.1 29.8,-5 11.1,0.1 22.2,2 32.4,4.6 10.2,2.5 19.6,5.7 27.6,8.9 15.9,6.4 26,12.6 26.9,13 0.2,0.1 1,0.6 2.3,1.4 1.3,0.8 3.1,1.8 5.3,3.2 4.4,2.7 10.5,6.7 17.3,11.9 6.8,5.2 14.3,11.7 22,19 7.7,7.3 15.6,15.4 23.5,23.4 7.9,8 15.9,16 23.6,23.2 7.8,7.2 15.4,13.4 22.2,18.4 6.9,4.9 12.8,8.6 17.2,10.9 4.4,2.3 6.9,3.5 6.9,3.3 0.1,-0.2 -2.3,-1.7 -6.4,-4.2 -4.1,-2.6 -9.9,-6.5 -16.5,-11.6 -6.5,-5.2 -13.9,-11.6 -21.4,-18.9 -7.5,-7.3 -15.3,-15.4 -23,-23.6 -7.8,-8.2 -15.5,-16.4 -23.2,-23.9 -7.7,-7.5 -15.2,-14.2 -22.1,-19.6 -6.8,-5.5 -13,-9.6 -17.5,-12.4 -2.2,-1.5 -4.1,-2.5 -5.4,-3.3 -1.3,-0.8 -2.2,-1.3 -2.4,-1.4 -0.9,-0.4 -11.3,-6.7 -27.7,-13 -8.2,-3.1 -17.8,-6.3 -28.3,-8.6 -10.5,-2.4 -21.9,-4.2 -33.3,-4.1 -10.6,0.1 -21.3,1.9 -30.6,5.8 0,0 0,0 0,-0.1 -0.4,-1.5 -0.7,-2.6 -0.9,-3.5 -0.2,-0.9 -0.3,-1.5 -0.4,-1.7 -0.1,-0.5 -0.5,-2.3 -1.2,-5.3 -0.5,-3 -1.3,-7.1 -1.7,-12.3 -0.5,-5.2 -0.7,-11.3 -0.4,-18.3 0.4,-7 1.6,-14.8 3.8,-23 4.3,-16.4 14.4,-34.1 30,-48.1 7.7,-7 16.9,-13 26.9,-17.3 10,-4.3 21,-6.8 32.1,-7 0.4,0 0.7,0 1.1,0 1.3,0.5 2.8,1 4.5,1.7 5.2,2 12.2,4.9 18.3,9 6.2,4 11.4,9.4 14.3,14 2.9,4.6 3.9,8.4 4,8.7 0.1,0.3 1.5,3.9 2.3,9.4 0.4,2.7 0.6,5.9 0,9.1 -0.5,3.2 -1.9,6.5 -4.2,9 -1.1,1.2 -2.5,2.3 -3.9,3 -1.4,0.7 -2.9,0.8 -4,0.3 -1.1,-0.5 -1.7,-1.8 -1.9,-3.2 -0.2,-1.4 -0.1,-2.8 0.1,-4.2 0.2,-1.4 0.3,-2.9 -0.1,-4.2 -0.4,-1.4 -1.5,-2.1 -2.3,-2.5 -0.9,-0.3 -1.7,-0.2 -2.1,0.1 -0.3,0.2 -0.4,0.4 -0.5,0.5 0,0 0,0 -0.1,0 -0.6,0.3 -1.5,0.8 -2.6,1.6 -1,0.9 -2.1,2.2 -2.9,3.9 -0.8,1.8 -1.4,4 -1.3,6.5 0,2.5 0.5,5.3 1.6,8.1 1.1,2.8 2.9,5.7 5.6,8 1.3,1.2 2.9,2.2 4.7,2.9 0.4,0.2 0.9,0.3 1.4,0.5 0.5,0.1 0.9,0.3 1.4,0.3 1,0.2 2,0.2 2.9,0.3 1,0.1 2,-0.1 3,-0.2 1,-0.1 2,-0.4 3,-0.6 1,-0.4 2,-0.6 3,-1.1 1,-0.5 2,-0.9 2.9,-1.5 7.5,-4.5 13.3,-12.8 15.3,-22.6 0.9,-4.9 0.9,-10.1 -0.2,-15.2 -1,-5.1 -3.1,-10.1 -5.9,-14.8 -5.7,-9.2 -14.4,-16.8 -24.4,-22.1 -10,-5.3 -21.5,-8.5 -33.1,-8.3 -11.5,0 -23,2.6 -33.5,6.9 -10.5,4.4 -20.1,10.5 -28.2,17.8 -13.9,12.3 -23.7,27.5 -29.2,42.3 0.5,-3.4 1.1,-7.1 1.6,-10.9 0.3,-1.8 0.5,-3.6 0.8,-5.4 0.1,-0.9 0.3,-1.8 0.4,-2.7 0.1,-0.5 0.1,-0.9 0.2,-1.4 0.1,-0.7 0.1,-1.6 -0.2,-2.3 -0.3,-0.7 -0.8,-1.4 -1.4,-1.8 -0.6,-0.4 -1.5,-0.7 -2.1,-0.8 -0.8,-0.2 -1.7,-0.3 -2.5,-0.5 -1.6,-0.3 -3.1,-0.6 -4.4,-0.8 -2.8,-0.5 -5.1,-0.9 -6.8,-1.2 -2.1,-0.4 -3.4,-0.6 -3.6,-0.6 -0.3,-0.1 -2.4,-0.4 -5.7,-0.9 -0.8,-0.1 -1.7,-0.3 -2.7,-0.4 -0.2,0 -0.5,-0.1 -0.7,-0.1 l -0.4,-0.1 -0.2,0 c 0,0 0.1,0.1 0.1,0.1 0.3,0.4 0.6,0.9 1,1.4 1.3,1.9 2.8,3.9 4.4,6.2 0.5,0.8 1.1,1.6 1.7,2.5 0.4,0.6 0.8,1.3 1.2,1.9 0.8,1.3 1.6,2.7 2.5,4.2 1.6,3 3.2,6.2 4.5,9.6 2.7,6.7 4.5,13.7 5.4,19 0.7,4 1,7 1.3,8.3 -0.4,2.9 -0.7,5.7 -0.9,8.4 -0.4,7.3 -0.3,13.7 0.3,19.1 0.4,5.4 1.2,9.6 1.7,12.7 0.7,3.1 1.1,4.9 1.2,5.5 0.1,0.3 0.2,0.9 0.4,1.8 0.2,0.9 0.6,2.1 1,3.6 0.1,0.3 0.2,0.6 0.2,0.8 -8.7,4.5 -15.6,10.7 -20.3,16.9 -2.6,3.4 -4.5,6.8 -5.8,10 -1.4,3.2 -2.1,6.1 -2.7,8.5 -0.4,2.4 -0.6,4.4 -0.6,5.7 0,1.3 0,2 0.1,2 0.1,0 0.2,-0.7 0.4,-2 0.1,-1.3 0.5,-3.2 1.1,-5.5 0.7,-2.3 1.5,-5.1 3,-8.1 1.4,-3 3.4,-6.3 6,-9.5 4.6,-5.8 11.3,-11.5 19.5,-15.5 0.2,0.6 0.4,1.2 0.6,1.9 0.7,2 1.5,4.3 2.4,6.9 2,5 4.4,10.9 7.9,17.3 1.6,3.2 3.7,6.5 5.8,9.9 1.8,2.6 3.5,5.2 5.5,7.9 -0.5,-0.3 -1.1,-0.7 -1.6,-1 -4.4,-2.6 -9.8,-4.8 -15.5,-5.5 -5.7,-0.8 -11.9,-0.4 -17.4,2 -2.7,1.1 -5.2,2.8 -7.3,4.7 -2.1,1.9 -3.8,4.2 -5.1,6.4 -2.6,4.5 -3.9,9 -4.6,12.7 -0.8,3.7 -1.1,6.6 -1.3,8.4 l -1.7,16.6 6.5,-15.6 c 0.4,-1 0.7,-1.6 0.7,-1.7 0,-0.1 0.2,-0.4 0.4,-0.8 0.3,-0.4 0.5,-1.1 1,-1.8 0.9,-1.5 2.5,-3.4 4.9,-5.1 2.4,-1.8 5.6,-3.4 9.4,-4.1 0.9,-0.2 1.9,-0.2 2.9,-0.4 1,0 2,-0.1 3,0.1 l 0.4,0 0.1,0 c 0.1,0 0.1,0 0.1,0 l 0.3,0 0.3,0.1 c 0,0 0.2,0 0.1,0.1 0,0 -0.1,0 -0.1,0.1 -0.1,0.1 -0.3,0.2 -0.4,0.4 l -0.2,0.2 -0.5,0.6 c -0.4,0.4 -0.7,0.9 -1,1.4 -1.2,1.9 -2,4.2 -2.2,6.5 l -0.3,4 3.1,-2.5 c 4.8,-3.8 9.8,-7.4 14.9,-9.7 5.1,-2.5 10.4,-3.5 14.9,-3.4 2.9,0.1 5.4,0.6 7.6,1.1 9.5,10 21,19.8 34.2,28.2 18.2,11.6 39.3,20.8 61.3,26.8 21.9,6 44.2,9.5 64.9,13.5 20.7,3.9 39.6,8.8 55.6,13.9 16,5 29.1,10 38.1,13.6 4.5,1.8 8.1,3.3 10.5,4.3 2.4,1 3.7,1.5 3.8,1.4 0.5,-0.5 -0.7,-1.1 -3.1,-2.3 z M 267.7,459 c 2.7,4.3 4.7,9 5.8,13.8 1.1,4.8 1.1,9.7 0.4,14.3 -1.7,9.1 -7.1,17.1 -14,21.4 -0.8,0.6 -1.8,1 -2.6,1.4 -0.9,0.4 -1.8,0.7 -2.7,1 -0.9,0.2 -1.9,0.5 -2.8,0.6 -0.9,0.1 -1.9,0.2 -2.8,0.2 -3.7,0.1 -7,-1.2 -9.5,-3.3 -2.5,-2.1 -4.3,-4.7 -5.4,-7.4 -1.2,-2.6 -1.7,-5.3 -1.8,-7.6 -0.1,-2.4 0.4,-4.5 1,-6.2 0.7,-1.7 1.7,-3 2.6,-3.9 1.2,-1.1 2.2,-1.7 2.7,-2 0.4,-0.1 1,-0.2 1.8,0.3 0.6,0.4 1.2,1 1.3,1.9 0.2,1 0,2.1 -0.4,3.4 -0.4,1.3 -0.7,3 -0.6,4.8 0.1,0.9 0.3,1.9 0.7,2.8 0.4,1 1.2,1.9 2.2,2.5 1,0.6 2.2,0.9 3.3,0.9 1.1,0 2.2,-0.3 3.2,-0.6 2,-0.8 3.7,-2 5.3,-3.4 3,-2.9 4.9,-6.8 5.7,-10.6 0.8,-3.8 0.8,-7.4 0.5,-10.5 -0.6,-6.1 -2.1,-10.1 -2.2,-10.4 -0.2,-0.3 -1.4,-4.5 -4.9,-9.6 -1.8,-2.5 -4.1,-5.2 -6.8,-7.7 -2.8,-2.5 -6,-4.8 -9.4,-6.8 -6.2,-3.6 -12.7,-5.9 -18,-7.4 8.4,0.9 16.5,3.5 23.9,7.2 9.6,5.1 18,12.2 23.5,20.9 z m -151.1,53.8 c 0,-1.2 -0.1,-2.5 -0.2,-4 -0.4,-5.5 -1.6,-12.8 -4,-19.9 -1.2,-3.5 -2.6,-7 -4.1,-10.2 -0.8,-1.6 -1.6,-3.1 -2.4,-4.5 -0.4,-0.7 -0.8,-1.4 -1.2,-2.1 -0.2,-0.3 -0.4,-0.7 -0.6,-1 l -0.1,-0.1 0,0 0,0 0,0 c -0.1,-0.2 0,-0.2 0.1,-0.1 0.1,0 0.1,0.1 0.1,0.1 l 0,0 0,0 c 0,0 0,0 0.1,0 0.5,0.1 1.2,0.2 2,0.3 1.7,0.2 4.1,0.6 6.8,1 1.4,0.2 2.9,0.4 4.5,0.6 0.8,0.1 1.5,0.2 2.3,0.3 0.2,0 0.2,0 0.3,0.1 0.1,0 0.1,0.1 0.2,0.1 0,0.1 0,0.1 0,0.3 0,0.4 -0.1,0.8 -0.1,1.3 -0.1,0.9 -0.2,1.8 -0.2,2.7 -0.2,1.8 -0.3,3.6 -0.5,5.5 -0.7,8.7 -1.4,17.4 -1.7,23 -0.4,2 -0.8,4.3 -1.3,6.6 z M 147,626.3 c -4.8,-0.4 -10.6,0.4 -16.1,2.8 -3.9,1.6 -7.6,3.7 -11.2,6.1 0.2,-0.3 0.4,-0.6 0.6,-0.8 0.2,-0.2 0.2,-0.3 0.5,-0.5 0.3,-0.3 0.6,-0.5 0.9,-0.8 l 1.2,-0.8 c 0.5,-0.3 1.1,-0.5 1.6,-0.8 1.2,-0.6 2.4,-1.1 3.6,-1.7 -0.8,-0.6 -3.1,-1.3 -4.8,-2 -0.9,-0.3 -1.9,-0.6 -2.8,-0.9 -0.5,-0.2 -0.9,-0.3 -1.4,-0.4 l -1.2,-0.2 c -1.2,-0.2 -2.5,-0.2 -3.7,-0.2 -1.2,0.1 -2.4,0.1 -3.5,0.3 -4.6,0.7 -8.5,2.5 -11.4,4.6 -1,0.7 -1.9,1.5 -2.7,2.2 0.7,-2.8 1.7,-5.9 3.3,-8.9 2.1,-4 5.5,-7.6 10.2,-9.7 4.6,-2.2 10.1,-2.8 15.4,-2.3 5.3,0.5 10.3,2.3 14.7,4.6 2.7,1.3 5,2.8 7.2,4.3 1.7,2.1 3.5,4.1 5.3,6.1 -1.8,-0.4 -3.7,-0.8 -5.7,-1 z"
           id="path77"
           inkscape:connector-curvature="0" /><path
           d="m 414.2,728.3 c -2.1,-0.9 -4.6,-1.8 -7.6,-2.8 -1.5,-0.5 -3.1,-1.1 -4.7,-1.6 -1.7,-0.5 -3.4,-1.1 -5.3,-1.7 -14.7,-4.7 -34.9,-9.4 -55.5,-12 -10.3,-1.4 -20.7,-2.2 -30.5,-2.5 -4.9,-0.2 -9.7,-0.2 -14.2,-0.3 -4.5,0.1 -8.8,0.1 -12.8,0.3 -16,0.7 -26.9,2.2 -27.8,2.3 -0.5,0.1 -3.4,0.4 -8.2,1.1 -4.8,0.6 -11.4,1.5 -19.2,2.3 -3.9,0.4 -8.1,0.7 -12.6,0.9 -4.4,0.1 -9.1,0.2 -13.9,-0.1 -4.8,-0.3 -9.7,-0.8 -14.6,-1.9 -4.9,-1 -9.7,-2.4 -14.2,-4.7 -4.4,-2.2 -8.4,-5.3 -10.9,-9.3 -2.5,-4 -3.7,-8.8 -3.2,-13.2 0.4,-4.4 2.8,-8.5 6.3,-10.6 3.4,-2.2 7.6,-2.7 11.1,-1.9 3.5,0.8 6.3,2.9 8,5.4 1.7,2.4 2.5,5 2.8,7.2 0.3,2.2 0.1,3.9 -0.2,5 -0.2,1.2 -0.4,1.8 -0.3,1.8 0.1,0 0.4,-0.5 0.8,-1.7 0.4,-1.1 0.8,-2.9 0.7,-5.3 -0.1,-2.3 -0.8,-5.1 -2.5,-7.9 -1.7,-2.8 -4.8,-5.4 -8.8,-6.4 -3.9,-1.1 -8.7,-0.7 -12.8,1.7 -2.1,1.2 -3.9,2.9 -5.3,5.1 -1.3,2.1 -2.2,4.6 -2.5,7.2 -0.7,5.1 0.5,10.6 3.3,15.2 2.9,4.7 7.3,8.2 12,10.7 4.8,2.6 9.9,4.2 15,5.3 5.1,1.2 10.2,1.8 15.1,2.2 5,0.4 9.8,0.4 14.3,0.4 4.6,-0.1 8.9,-0.4 12.8,-0.7 8,-0.7 14.6,-1.5 19.4,-2 4.8,-0.6 7.7,-0.9 8.2,-1 1,-0.1 11.7,-1.7 27.5,-2.6 3.9,-0.3 8.2,-0.4 12.7,-0.5 4.5,0 9.2,-0.1 14,0 9.7,0.2 20,0.8 30.2,1.9 20.5,2.1 40.6,6.3 55.4,10.4 1.9,0.5 3.6,1 5.3,1.4 1.7,0.5 3.3,1 4.8,1.4 3,0.9 5.6,1.6 7.7,2.3 4.3,1.4 6.7,2.1 6.8,1.9 -0.1,-0.1 -2.5,-1.1 -6.6,-2.7 z"
           id="path79"
           inkscape:connector-curvature="0" /><path
           d="m 241.7,469.1 c 4.3,0 4.3,-6.7 0,-6.7 -4.4,0 -4.4,6.7 0,6.7 z"
           id="path81"
           inkscape:connector-curvature="0" /><path
           d="m 235,451.6 c -0.4,-1.6 -1.6,-2.4 -3,-3 -0.1,-0.1 -0.3,-0.1 -0.4,-0.2 -1.3,-0.5 -3.1,0.1 -4,1.1 -1,1 -1.6,2.7 -1.1,4 0.1,0.1 0.1,0.3 0.2,0.4 0.6,1.5 1.4,2.6 3,3 1.5,0.4 3.1,0 4.2,-1.1 1.1,-1.1 1.5,-2.7 1.1,-4.2 z"
           id="path83"
           inkscape:connector-curvature="0" /><path
           d="m 211.9,446.5 c 6,0 6,-9.3 0,-9.3 -5.9,0 -6,9.3 0,9.3 z"
           id="path85"
           inkscape:connector-curvature="0" /><path
           d="m 191.2,440.6 c -1.4,0.1 -2.8,1.2 -2.7,2.7 0.1,1.5 1.2,2.6 2.7,2.7 0.2,0 0.3,0 0.5,0 1.4,0.1 2.8,-1.3 2.8,-2.8 -0.1,-1.4 -1.2,-2.8 -2.8,-2.8 -0.2,0.2 -0.4,0.2 -0.5,0.2 z"
           id="path87"
           inkscape:connector-curvature="0" /><path
           d="m 172.1,682.4 c -6.6,0 -6.6,10.2 0,10.2 6.5,0 6.6,-10.2 0,-10.2 z"
           id="path89"
           inkscape:connector-curvature="0" /><path
           d="m 183.7,697 c -5.6,0 -5.6,8.6 0,8.6 5.5,0 5.5,-8.6 0,-8.6 z"
           id="path91"
           inkscape:connector-curvature="0" /><path
           d="m 202.5,702.7 c -3.7,0 -3.7,5.8 0,5.8 3.7,0 3.7,-5.8 0,-5.8 z"
           id="path93"
           inkscape:connector-curvature="0" /></g></g></switch></svg>