<?xml version="1.0" encoding="UTF-8" standalone="no"?>
<svg
   xmlns:dc="http://purl.org/dc/elements/1.1/"
   xmlns:cc="http://creativecommons.org/ns#"
   xmlns:rdf="http://www.w3.org/1999/02/22-rdf-syntax-ns#"
   xmlns:svg="http://www.w3.org/2000/svg"
   xmlns="http://www.w3.org/2000/svg"
   xmlns:sodipodi="http://sodipodi.sourceforge.net/DTD/sodipodi-0.dtd"
   xmlns:inkscape="http://www.inkscape.org/namespaces/inkscape"
   version="1.1"
   id="Layer_1"
   x="0px"
   y="0px"
   viewBox="0 0 1000 1000"
   width="100%"
   height="100%"
   style="enable-background:new 0 0 1000 1000;"
   xml:space="preserve"
   ><style
     type="text/css"
     id="style3">
	.noFillSVG{fill:none;}
</style><switch
     id="switch5"
     transform="translate(23.4,9.6514912)"><g
       id="g7"><g
         id="g9"><path
           class="noFillSVG"
           d="m 473.8,199.9 c -13,2.9 -9.2,18.9 -7.2,28.3 2,9 5,17.6 9.2,25.8 4.1,-12.8 21.9,-59.5 -2,-54.1 z m 0.5,39.9 c -2.6,0 -4.7,-13.9 -4.7,-14.3 0,-0.4 2.1,-14.3 4.7,-14.3 2.6,0 4.7,14 4.7,14.3 0,0.3 -2.1,14.3 -4.7,14.3 z"
           id="path11"
           inkscape:connector-curvature="0"
           style="fill:none" /><path
           class="noFillSVG"
           d="m 175.7,408.8 c -1.1,1.7 -0.2,3.9 1.8,4 0.6,0 1.3,-0.4 2,-0.9 1.2,-0.9 2.3,-2.2 3.4,-2.6 2.8,-0.8 6.5,-0.4 8.8,1.6 -1.9,-1.7 -4,-3.2 -6.7,-3.9 -2.2,-0.4 -7.8,-0.4 -9.3,1.8 z"
           id="path13"
           inkscape:connector-curvature="0"
           style="fill:none" /><path
           class="noFillSVG"
           d="m 164.8,384.4 c 2,-1.8 4.6,-2.4 7.2,-2 4.4,0.7 8.7,3.3 12,6.1 4,3.4 7.5,7.6 10.3,12.3 -4,-9.4 -9.6,-18.6 -17.7,-22.4 -4.3,-2 -9.5,-2.2 -13.5,0.8 -1.4,1 -3.4,2.8 -4.2,4.8 -0.3,0.9 -0.4,1.8 0,2.7 2.3,5 4.3,-0.8 5.9,-2.3 z"
           id="path15"
           inkscape:connector-curvature="0"
           style="fill:none" /><path
           class="noFillSVG"
           d="m 788.4,591.6 c -1.7,1.7 -3.8,1.8 -6.1,1.4 -4.4,-0.7 -9.6,-2.8 -13.1,-5.8 -4,-3.4 -7.5,-7.6 -10.3,-12.3 4,9.4 9.6,18.6 17.7,22.4 4.3,2 9.5,2.2 13.5,-0.8 1.2,-0.9 3.1,-2.9 4,-4.9 0.5,-1.1 0.7,-2.1 0.4,-3 -2.2,-6.3 -4.9,1.8 -6.1,3 z"
           id="path17"
           inkscape:connector-curvature="0"
           style="fill:none" /><path
           class="noFillSVG"
           d="m 178.6,486.3 c 13.3,-1 25.9,-7.2 35.7,-16.1 8.9,-8 17.7,-19.2 20.6,-31 3.5,-14.5 -3.9,-31.5 -10.1,-44.4 -5.9,-12.1 -13.7,-22.7 -21,-33.9 -5.8,-8.8 -10.5,-19.7 -7,-30.3 2.1,-6.4 8.3,-13.2 15.8,-10.9 4.1,1.3 5.8,5.2 3.9,8.2 0.1,0.1 0.2,0.1 0.3,0.2 5.7,4.4 13,0 12.3,-7.1 -0.4,-3.6 -3,-6.4 -5.8,-8.4 -3.8,-2.6 -8.6,-4 -13.2,-4 -9.5,-0.1 -18.6,5.3 -23.3,13.5 -10.5,18.4 4,38.6 12.9,54.3 12.7,22.4 26.3,49.7 14.7,75.5 -8.4,18.8 -35.1,33.7 -53.1,17.6 -16.5,-14.8 4.2,-46.4 24.3,-37.2 7.1,3.2 9.3,13.2 1.4,17 -4,2 -7.9,-0.1 -11,-2.7 1.1,6.3 7.9,8.2 12.5,4.4 3.9,-3.2 6.4,-9.4 5.4,-14.4 -2,-9.8 -12.2,-13.7 -21.2,-13 -17.7,1.4 -32.1,18.8 -28.3,36.5 3.4,16.2 17.9,27.3 34.2,26.2 z m 40.1,-89.9 c -3.8,-8.7 -9.1,-16.7 -13,-22.9 -2,-3.1 -3.6,-5.7 -4.8,-7.7 -1.1,-2 -1.8,-3.2 -1.9,-3.3 -0.2,-0.4 -2.7,-4.8 -6.2,-11.3 -1.7,-3.3 -3.6,-7.2 -4.6,-11.8 -0.5,-2.3 -0.6,-4.8 -0.3,-7.2 0.3,-2.5 1.1,-4.9 2.2,-7.1 2.2,-4.4 5.8,-8.1 9.8,-10.3 2,-1.1 4.2,-1.8 6.2,-2.2 2.1,-0.3 4.1,-0.3 5.9,0 3.6,0.5 6.4,2.2 7.9,3.7 0.7,0.8 1.2,1.4 1.5,1.9 0.3,0.5 0.4,0.8 0.4,0.8 -0.1,0.1 -0.7,-1 -2.2,-2.3 -1.5,-1.3 -4.2,-2.7 -7.7,-3.1 -1.7,-0.2 -3.6,-0.1 -5.6,0.2 -1.9,0.4 -3.9,1.2 -5.8,2.2 -3.8,2.2 -7,5.7 -9,9.9 -1,2.1 -1.6,4.3 -1.9,6.6 -0.2,2.2 -0.1,4.5 0.4,6.6 1,4.3 2.9,8 4.6,11.2 3.6,6.4 6.1,10.7 6.3,11.1 0.1,0.2 0.8,1.4 1.9,3.3 1.1,1.9 2.7,4.6 4.7,7.7 3.8,6.3 9,14.5 12.7,23.4 1.8,4.5 3.2,9.1 4,13.6 0.8,4.4 1,8.7 0.7,12.3 -0.3,3.6 -1,6.5 -1.6,8.5 -0.3,1 -0.6,1.8 -0.8,2.3 -0.2,0.5 -0.4,0.8 -0.4,0.8 -0.3,-0.1 1.7,-4.5 2,-11.6 0.1,-3.5 -0.1,-7.7 -1.1,-12 -1,-4.5 -2.4,-9 -4.3,-13.3 z M 157.8,476 c -2.3,-1.6 -4.2,-3.4 -5.6,-5.1 -2.9,-3.5 -4,-6.5 -4.1,-6.7 0,-0.1 -0.4,-0.9 -0.8,-2.2 -0.4,-1.3 -0.8,-3.2 -0.9,-5.5 -0.1,-2.3 0.2,-4.9 1.1,-7.6 0.8,-2.7 2.2,-5.3 3.8,-7.7 3.2,-4.8 7.7,-8.6 11.5,-10.6 1.9,-1 3.5,-1.6 4.7,-2 1.2,-0.4 1.9,-0.4 1.9,-0.4 0.1,0.2 -2.7,0.9 -6.2,3.2 -3.5,2.2 -7.6,6 -10.6,10.7 -1.5,2.3 -2.6,4.9 -3.3,7.3 -0.7,2.5 -0.9,4.9 -0.8,6.9 0.1,2.1 0.5,3.8 0.9,4.9 0.3,1.2 0.7,1.9 0.7,2 0.1,0.2 1.1,3 3.6,6.3 1.3,1.6 3,3.4 5.1,4.9 2.1,1.5 4.5,2.9 7.1,3.8 5.2,2 10.8,2.4 14.9,2.3 4.2,-0.1 6.9,-0.7 7,-0.5 0,0.1 -0.7,0.3 -1.8,0.6 -1.2,0.3 -2.9,0.6 -5,0.8 -4.2,0.4 -10,0.2 -15.5,-1.6 -2.8,-0.9 -5.4,-2.2 -7.7,-3.8 z"
           id="path19"
           inkscape:connector-curvature="0"
           style="fill:none" /><path
           class="noFillSVG"
           d="m 777.8,564.2 c -0.4,-1.2 -1.6,-1.9 -2.7,-1.8 -0.2,0.6 -0.5,1.4 -0.9,1.9 -2.7,3.5 -8,2.4 -12.6,0.5 1.9,1.7 4,3.2 6.7,3.9 2.7,0.5 11.1,0.4 9.5,-4.5 z"
           id="path21"
           inkscape:connector-curvature="0"
           style="fill:none" /><path
           class="noFillSVG"
           d="m 183.3,587.8 c -4.3,3.5 -14,8.7 -19,3.5 -1.1,-1.1 -4.9,-8.9 -5.9,-2.8 -0.5,3.3 3.6,7.6 6.2,9 4.3,2.3 9.8,1.4 13.8,-1 7.2,-4.3 12.3,-12.9 16,-21.6 -3,5 -6.8,9.4 -11.1,12.9 z"
           id="path23"
           inkscape:connector-curvature="0"
           style="fill:none" /><path
           class="noFillSVG"
           d="m 216,666.2 c 3.7,-0.9 7.5,-2.8 10.1,-5.7 3.5,-4 3.8,-6.5 1.3,-10.7 -2.4,-4.1 -6.2,-5.8 -10.7,-2.3 -0.1,0.1 -0.2,0.1 -0.3,0.2 2.4,3.6 -1.1,8.1 -5.9,8.5 -9.8,0.9 -14.8,-10.6 -15,-18.7 -0.2,-12.2 7.9,-22.3 14.5,-31.9 7.9,-11.4 14.8,-23.4 19.8,-36.4 5.5,-14.3 8.6,-28.6 1,-42.7 -5.9,-11.1 -14.6,-20.8 -25.2,-27.7 -11,-7.1 -26.6,-12.4 -39.6,-8.2 -14.7,4.8 -25.1,21.9 -21.6,37.1 3.4,14.4 17.9,25.5 32.8,24.1 10.3,-0.9 19.5,-9.3 16.4,-20.4 -1.4,-5.1 -5.8,-8.9 -11.1,-8.9 -5.3,0 -3.7,3.8 -6.3,5.8 4.1,-3.3 10.1,-4.4 13.9,0.3 6.9,8.7 -4.4,16.3 -12.4,15.9 -21.5,-1.1 -31.6,-32.4 -10.8,-42.3 22.1,-10.5 45.2,8.4 50.2,29.7 6.7,28.3 -10.4,54.3 -23.8,77.8 -8.4,14.7 -16.8,35.3 -2.3,49.3 6.6,6.4 16.1,9.5 25,7.2 z m -35.8,-169 c -4.1,-0.1 -9.8,0.3 -14.9,2.3 -2.6,1 -5,2.3 -7.1,3.8 -2.1,1.5 -3.8,3.3 -5.1,4.9 -2.6,3.3 -3.5,6 -3.6,6.3 0,0.1 -0.4,0.8 -0.7,2 -0.4,1.2 -0.8,2.9 -0.9,4.9 -0.1,2 0,4.4 0.8,6.9 0.7,2.5 1.8,5 3.3,7.3 2.9,4.7 7.1,8.5 10.6,10.7 3.5,2.2 6.2,3 6.2,3.2 0,0.1 -0.7,0 -1.9,-0.4 -1.2,-0.3 -2.9,-1 -4.7,-2 -3.8,-2 -8.2,-5.8 -11.5,-10.6 -1.6,-2.4 -3,-5 -3.8,-7.7 -0.9,-2.6 -1.1,-5.3 -1.1,-7.6 0.1,-2.3 0.5,-4.2 0.9,-5.5 0.4,-1.3 0.7,-2.1 0.8,-2.2 0.1,-0.2 1.2,-3.2 4.1,-6.7 1.4,-1.7 3.3,-3.6 5.6,-5.1 2.3,-1.6 4.9,-2.9 7.7,-3.8 5.5,-1.9 11.3,-2.1 15.5,-1.6 2.1,0.2 3.8,0.5 5,0.8 1.2,0.3 1.9,0.5 1.8,0.6 -0.1,0.2 -2.9,-0.3 -7,-0.5 z m 6.8,143.9 c -0.3,-2.4 -0.2,-4.9 0.3,-7.2 1,-4.6 3,-8.5 4.6,-11.8 3.6,-6.5 6,-10.9 6.2,-11.3 0.1,-0.2 0.8,-1.4 1.9,-3.3 1.2,-1.9 2.8,-4.6 4.8,-7.7 3.9,-6.2 9.2,-14.2 13,-22.9 1.9,-4.3 3.4,-8.8 4.3,-13.2 0.9,-4.3 1.2,-8.5 1.1,-12 -0.2,-7.1 -2.2,-11.5 -2,-11.6 0,0 0.2,0.2 0.4,0.8 0.2,0.5 0.6,1.3 0.9,2.3 0.7,2 1.4,4.9 1.6,8.5 0.3,3.6 0.1,7.8 -0.7,12.3 -0.8,4.5 -2.2,9.1 -4,13.6 -3.7,9 -8.9,17.2 -12.7,23.4 -1.9,3.1 -3.5,5.8 -4.7,7.7 -1.1,2 -1.7,3.1 -1.9,3.3 -0.2,0.4 -2.7,4.8 -6.3,11.1 -1.7,3.2 -3.6,7 -4.6,11.2 -0.5,2.1 -0.6,4.4 -0.4,6.6 0.2,2.2 0.9,4.5 1.9,6.6 2,4.2 5.2,7.7 9,9.9 1.9,1.1 3.9,1.8 5.8,2.2 1.9,0.4 3.8,0.5 5.6,0.2 3.5,-0.4 6.1,-1.8 7.7,-3.1 1.5,-1.3 2.1,-2.4 2.2,-2.3 0,0 -0.1,0.3 -0.4,0.8 -0.3,0.5 -0.8,1.2 -1.5,1.9 -1.5,1.5 -4.2,3.1 -7.9,3.7 -1.8,0.3 -3.8,0.3 -5.9,0 -2.1,-0.4 -4.2,-1.1 -6.2,-2.2 -4.1,-2.2 -7.6,-5.9 -9.8,-10.3 -1.2,-2.3 -2,-4.7 -2.3,-7.2 z"
           id="path25"
           inkscape:connector-curvature="0"
           style="fill:none" /><path
           class="noFillSVG"
           d="m 185.6,568.4 c 2.4,-0.8 4.3,-2.1 6,-3.6 -4.6,2 -9.8,3 -12.5,-0.5 0.3,0.4 -0.8,-1.7 -0.8,-1.7 -2.1,-1.7 -3.3,2.1 -2.5,3.7 1.7,3.2 7,3 9.8,2.1 z"
           id="path27"
           inkscape:connector-curvature="0"
           style="fill:none" /><path
           class="noFillSVG"
           d="m 774.8,489.5 c -13.3,1 -25.9,7.2 -35.7,16.1 -8.9,8 -17.7,19.2 -20.6,31 -3.5,14.5 3.9,31.5 10.1,44.4 5.9,12.1 13.7,22.7 21,33.9 5.8,8.8 10.5,19.7 7,30.3 -2.1,6.4 -8.3,13.2 -15.8,10.9 -4.1,-1.3 -5.8,-5.2 -3.9,-8.2 -0.1,-0.1 -0.2,-0.1 -0.3,-0.2 -5.7,-4.4 -13,0 -12.3,7.1 0.4,3.6 3,6.4 5.8,8.4 3.8,2.6 8.6,4 13.2,4 9.5,0.1 18.6,-5.3 23.3,-13.5 10.5,-18.4 -4,-38.6 -12.9,-54.3 C 741,577 727.4,549.7 739,523.9 c 8.4,-18.8 35.1,-33.7 53.1,-17.6 16.5,14.8 -4.2,46.4 -24.3,37.2 -7.1,-3.2 -9.3,-13.2 -1.4,-17 4.1,-2 8.5,-0.2 11.1,3.2 0.4,-1.4 0,-2.7 -1,-3.7 -2,-1.9 -6.1,-3.3 -8.8,-2.6 -6.6,1.8 -9.5,9.6 -8.2,15.8 2,9.8 12.2,13.7 21.2,13 17.7,-1.4 32.1,-18.8 28.3,-36.5 -3.4,-16.3 -18,-27.4 -34.2,-26.2 z m -28.2,111.9 c 2,3.1 3.6,5.7 4.8,7.7 1.1,2 1.8,3.2 1.9,3.3 0.2,0.4 2.7,4.8 6.2,11.3 1.7,3.3 3.6,7.2 4.6,11.8 0.5,2.3 0.6,4.8 0.3,7.2 -0.3,2.5 -1.1,4.9 -2.2,7.1 -2.2,4.4 -5.8,8.1 -9.8,10.3 -2,1.1 -4.2,1.8 -6.2,2.2 -2.1,0.3 -4.1,0.3 -5.9,0 -3.6,-0.5 -6.4,-2.2 -7.9,-3.7 -0.7,-0.8 -1.2,-1.4 -1.5,-1.9 -0.3,-0.5 -0.4,-0.8 -0.4,-0.8 0.1,-0.1 0.7,1 2.2,2.3 1.5,1.3 4.2,2.7 7.7,3.1 1.7,0.2 3.6,0.1 5.6,-0.2 1.9,-0.4 3.9,-1.2 5.8,-2.2 3.8,-2.2 7,-5.7 9,-9.9 1,-2.1 1.6,-4.3 1.9,-6.6 0.2,-2.2 0.1,-4.5 -0.4,-6.6 -1,-4.3 -2.9,-8 -4.6,-11.2 -3.6,-6.4 -6.1,-10.7 -6.3,-11.1 -0.1,-0.2 -0.8,-1.4 -1.9,-3.3 -1.1,-1.9 -2.7,-4.6 -4.7,-7.7 -3.8,-6.3 -9,-14.5 -12.7,-23.4 -1.8,-4.5 -3.2,-9.1 -4,-13.6 -0.8,-4.4 -1,-8.7 -0.7,-12.3 0.3,-3.6 1,-6.5 1.6,-8.5 0.3,-1 0.6,-1.8 0.8,-2.3 0.2,-0.5 0.4,-0.8 0.4,-0.8 0.3,0.1 -1.7,4.5 -2,11.6 -0.1,3.5 0.1,7.7 1.1,12 0.9,4.3 2.3,8.8 4.3,13.2 3.8,8.8 9.1,16.8 13,23 z m 59.5,-87.8 c 0,0.1 0.4,0.9 0.8,2.2 0.4,1.3 0.8,3.2 0.9,5.5 0.1,2.3 -0.2,4.9 -1.1,7.6 -0.8,2.7 -2.2,5.3 -3.8,7.7 -3.2,4.8 -7.7,8.6 -11.5,10.6 -1.9,1 -3.5,1.6 -4.7,2 -1.2,0.4 -1.9,0.4 -1.9,0.4 -0.1,-0.2 2.7,-0.9 6.2,-3.2 3.5,-2.2 7.6,-6 10.6,-10.7 1.5,-2.3 2.6,-4.9 3.3,-7.3 0.7,-2.5 0.9,-4.9 0.8,-6.9 -0.1,-2.1 -0.5,-3.8 -0.9,-4.9 -0.3,-1.2 -0.7,-1.9 -0.7,-2 -0.1,-0.2 -1.1,-3 -3.6,-6.3 -1.3,-1.6 -3,-3.4 -5.1,-4.9 -2.1,-1.5 -4.5,-2.9 -7.1,-3.8 -5.2,-2 -10.8,-2.4 -14.9,-2.3 -4.2,0.1 -6.9,0.7 -7,0.5 0,-0.1 0.7,-0.3 1.8,-0.6 1.2,-0.3 2.9,-0.6 5,-0.8 4.2,-0.4 10,-0.2 15.5,1.6 2.7,0.9 5.4,2.2 7.7,3.8 2.3,1.6 4.2,3.4 5.6,5.1 2.9,3.4 4,6.4 4.1,6.7 z"
           id="path29"
           inkscape:connector-curvature="0"
           style="fill:none" /><path
           class="noFillSVG"
           d="m 787.3,485 c 14.7,-4.8 25.1,-21.9 21.6,-37.1 -3.4,-14.4 -17.9,-25.5 -32.8,-24.1 -10.3,0.9 -19.5,9.3 -16.4,20.4 1.4,5.1 5.8,8.9 11.1,8.9 4,0 7.1,-3.7 6.5,-6.6 -2.4,3.9 -9.9,5.8 -14.1,0.5 -6.9,-8.7 4.4,-16.3 12.4,-15.9 21.5,1.1 31.6,32.4 10.8,42.3 -22.1,10.5 -45.2,-8.4 -50.2,-29.7 -6.7,-28.3 10.4,-54.3 23.8,-77.8 8.4,-14.7 16.8,-35.3 2.3,-49.3 -6.5,-6.3 -16,-9.4 -24.9,-7.1 -3.7,0.9 -7.5,2.8 -10.1,5.7 -3.5,4 -3.8,6.5 -1.3,10.7 2.2,3.8 8.1,6.4 10.4,1.6 1,-2.1 -0.3,-3.9 1.8,-6 1.2,-1.2 3.1,-1.9 4.6,-2 9.8,-0.9 14.8,10.6 15,18.7 0.2,12.2 -7.9,22.3 -14.5,31.9 -7.9,11.4 -14.8,23.4 -19.8,36.4 -5.5,14.3 -8.6,28.6 -1,42.7 5.9,11.1 14.6,20.8 25.2,27.7 11,7.1 26.7,12.3 39.6,8.1 z M 733,433.1 c 0,0 -0.2,-0.2 -0.4,-0.8 -0.2,-0.5 -0.6,-1.3 -0.8,-2.3 -0.7,-2 -1.4,-4.9 -1.6,-8.5 -0.3,-3.6 -0.1,-7.8 0.7,-12.3 0.8,-4.5 2.2,-9.1 4,-13.6 3.7,-9 8.9,-17.2 12.7,-23.4 1.9,-3.1 3.5,-5.8 4.7,-7.7 1.1,-2 1.7,-3.1 1.9,-3.3 0.2,-0.4 2.7,-4.8 6.3,-11.1 1.7,-3.2 3.6,-7 4.6,-11.2 0.5,-2.1 0.6,-4.4 0.4,-6.6 -0.2,-2.3 -0.9,-4.5 -1.9,-6.6 -2,-4.2 -5.2,-7.7 -9,-9.9 -1.9,-1.1 -3.9,-1.8 -5.8,-2.2 -1.9,-0.4 -3.8,-0.5 -5.6,-0.2 -3.5,0.4 -6.1,1.8 -7.7,3.1 -1.5,1.3 -2.1,2.4 -2.2,2.3 0,0 0.1,-0.3 0.4,-0.8 0.3,-0.5 0.8,-1.2 1.5,-1.9 1.5,-1.5 4.2,-3.1 7.9,-3.7 1.8,-0.3 3.8,-0.3 5.9,0 2.1,0.4 4.2,1.1 6.2,2.2 4.1,2.2 7.6,5.9 9.8,10.3 1.1,2.2 1.9,4.6 2.2,7.1 0.3,2.4 0.2,4.9 -0.3,7.2 -1,4.6 -3,8.5 -4.6,11.8 -3.6,6.5 -6,10.9 -6.2,11.3 -0.1,0.2 -0.8,1.4 -1.9,3.3 -1.2,1.9 -2.8,4.6 -4.8,7.7 -3.9,6.2 -9.2,14.2 -13,22.9 -1.9,4.3 -3.4,8.8 -4.3,13.2 -0.9,4.3 -1.2,8.5 -1.1,12 0.3,7.2 2.3,11.7 2,11.7 z m 36,47.5 c -1.2,-0.3 -1.9,-0.5 -1.8,-0.6 0,-0.2 2.8,0.4 7,0.5 4.1,0.1 9.8,-0.3 14.9,-2.3 2.6,-1 5,-2.3 7.1,-3.8 2.1,-1.5 3.8,-3.3 5.1,-4.9 2.6,-3.3 3.5,-6 3.6,-6.3 0,-0.1 0.4,-0.8 0.7,-2 0.4,-1.2 0.8,-2.9 0.9,-4.9 0.1,-2 0,-4.4 -0.8,-6.9 -0.7,-2.5 -1.8,-5 -3.3,-7.3 -2.9,-4.7 -7.1,-8.5 -10.6,-10.7 -3.5,-2.2 -6.2,-3 -6.2,-3.2 0,-0.1 0.7,0 1.9,0.4 1.2,0.3 2.9,1 4.7,2 3.8,2 8.2,5.8 11.5,10.6 1.6,2.4 3,5 3.8,7.7 0.9,2.6 1.1,5.3 1.1,7.6 -0.1,2.3 -0.5,4.2 -0.9,5.5 -0.4,1.3 -0.7,2.1 -0.8,2.2 -0.1,0.2 -1.2,3.2 -4.1,6.7 -1.4,1.7 -3.3,3.6 -5.6,5.1 -2.3,1.6 -4.9,2.9 -7.7,3.8 -5.5,1.9 -11.3,2.1 -15.5,1.6 -2.1,-0.2 -3.8,-0.5 -5,-0.8 z"
           id="path31"
           inkscape:connector-curvature="0"
           style="fill:none" /><path
           class="noFillSVG"
           d="m 478.2,782.3 c 13,-2.9 9.2,-18.9 7.2,-28.3 -2,-9 -5,-17.6 -9.2,-25.8 -4.1,12.7 -21.9,59.4 2,54.1 z m 3.1,-25 c 0,0.3 -1.5,11.2 -4.1,11.3 -2.6,0.1 -5.3,-10.6 -5.3,-10.8 0,-0.3 1.5,-11.2 4.1,-11.3 2.6,-0.2 5.3,10.5 5.3,10.8 z"
           id="path33"
           inkscape:connector-curvature="0"
           style="fill:none" /><path
           class="noFillSVG"
           d="m 770,387.9 c 3.4,-2.7 8,-5.4 12.5,-5.7 2.2,-0.1 4.7,0.2 6.4,2 1.3,1.4 0.4,4.6 2.6,5.3 2,0.7 3.4,-1.4 3.6,-3.1 0.3,-3.1 -3.9,-7 -6.3,-8.3 -4.3,-2.3 -9.8,-1.4 -13.8,1 -7.2,4.3 -12.3,12.9 -16,21.6 2.9,-4.9 6.7,-9.3 11,-12.8 z"
           id="path35"
           inkscape:connector-curvature="0"
           style="fill:none" /><path
           class="noFillSVG"
           d="m 767.7,407.3 c -2.4,0.8 -4.3,2.1 -6,3.6 4.6,-2 9.8,-3 12.5,0.5 -0.3,-0.4 0.8,1.7 0.8,1.7 2.1,1.7 3.3,-2.1 2.5,-3.7 -1.7,-3.2 -7,-3 -9.8,-2.1 z"
           id="path37"
           inkscape:connector-curvature="0"
           style="fill:none" /><path
           d="m 501.2,260.5 c -0.4,0.1 -0.3,0.8 0.2,0.7 48.9,-12.3 92.5,26.9 137.5,38.3 20.8,5.3 43.8,5.3 59.9,-10.8 14.1,-14.1 17.7,-36.1 8.9,-54 -3.2,-6.6 -10.4,-16.7 -19.1,-12.5 -2.4,1.1 -3.8,3.1 -4.3,5.3 -1.3,-6.5 6.3,-12.7 13.7,-12.5 9.4,0.3 15.7,7 16.6,16.1 0.1,1.5 2.3,1.6 2.4,0 0.1,-1.5 -0.1,-2.8 -0.4,-4.2 0.1,-0.1 0.1,-0.3 0.1,-0.5 -1,-15.3 -19.6,-19.7 -32,-18.2 -5.9,0.7 -14,2.2 -17.8,7.5 -1.1,1.5 -1.8,3.3 -2,5 -1.1,-3.2 -0.4,-7 1.7,-10.2 2.1,-3.2 5.5,-5.6 8.7,-7.5 7.7,-4.6 16.9,-6.9 25.9,-5.9 17.1,2 29.9,16.6 27,33.7 -0.2,0.3 -0.4,0.6 -0.6,0.8 -0.3,0.5 -0.2,0.9 0.1,1.2 0,0.2 -0.1,0.4 -0.1,0.6 -0.3,1.3 1.5,1.8 2,0.5 0.2,-0.7 0.4,-1.3 0.6,-2 5.6,-6.3 8.3,-14.8 7,-23.2 -0.8,-5.1 -3.4,-11.4 -8.1,-13.9 9.5,0.8 15.1,10.7 15.6,20 0.4,7.8 -2.7,14 -7.4,19.5 0.8,-2.1 1.9,-5 2.7,-8 0.8,-2.8 1.2,-5.7 1.2,-7.9 0.1,-2.2 -0.2,-3.6 -0.3,-3.6 -0.2,0 -0.3,1.4 -0.6,3.5 -0.3,2.1 -1,4.8 -1.9,7.5 -1.9,5.3 -4.5,10.5 -4.6,10.8 -0.2,0.5 -9.3,21.2 -8.7,21.5 0.5,0.2 8,-14.8 10.2,-19.3 0.9,-0.5 1.7,-1.2 2.4,-1.8 5.1,-1.9 10.6,-2.4 15.8,0.1 3.3,1.6 5,3.8 5.8,6.3 -5.3,-4 -14.1,-1.6 -18.9,3.9 -4.4,5.1 -5.8,11.8 -7.7,18 -3.1,10.1 -7.2,19.9 -14.3,27.8 -13.2,14.6 -32.4,21 -51.7,21.2 -18.9,0.2 -38.7,-3.7 -56.7,-9.5 -19.2,-6.2 -33.7,-19.1 -51.4,-28.2 -13.2,-6.8 -28.7,-12.1 -43.7,-12.5 -11.3,-0.3 -27.6,3.5 -31.9,15.7 -3.7,10.5 9.5,19.3 18.8,14.7 4,-2 6.8,-7.6 4,-11.7 -2.8,-4.1 -8.6,-3 -10.9,0.9 -1,1.6 0,1.9 1.1,2.7 2.4,1.8 4.9,6.9 -0.2,6.9 -1.7,0 -3.3,-0.5 -4.8,-1 -5.8,-2.3 -8,-7.5 -5.7,-13.5 2.2,-5.8 9.9,-9.7 15.4,-11.3 10.5,-3 22,-1.5 32.3,1.4 11.6,3.3 22.5,8.7 32.4,15.5 10,6.9 19.3,14.9 30.3,20.1 20.3,9.6 44.5,14.7 66.9,15.3 20,0.5 42,-4.5 55.8,-19.9 7.5,-8.4 12.2,-19.8 15.3,-30.6 1.9,-6.6 2.8,-14.3 7.4,-19.7 3.3,-3.8 8.5,-6.5 13.4,-3.9 1.7,0.9 2.9,1.9 3.5,3.9 0.5,1.2 0.5,2.4 0.2,3.6 -0.1,1.6 -0.7,3.1 -1.7,4.5 -0.7,-3.4 -5.8,-1.9 -5.1,1.4 0.6,3.3 4.3,4.2 7.1,2.8 4.2,-2 5.4,-8 4.5,-12.2 -0.1,-0.4 -0.2,-0.8 -0.3,-1.2 0.2,-4.9 -1.3,-9.6 -5.7,-12.5 -4.5,-2.9 -11,-3.7 -16.4,-2.1 5.3,-6.4 7.3,-15.6 5.6,-23.8 -2,-9.1 -9.7,-19.6 -19.9,-16.3 -0.5,-0.1 -1.1,-0.2 -1.6,-0.2 -0.7,0 -1.6,0.6 -1.8,1.3 -0.1,0.4 -0.1,0.8 -0.2,1.1 -0.1,0.3 0.1,0.5 0.4,0.7 12.8,5.4 12.9,18 8.1,28.5 0.5,-19.1 -20.2,-32.9 -39.3,-30.2 -9.8,1.4 -23,6.7 -27.9,16 -1.9,3.6 -1.6,7.6 -0.1,11.3 0.7,1.8 3.4,8.3 6.3,6.7 1.5,-0.8 2.9,-1.7 4.2,-2.7 0.6,-0.4 0.5,-1.6 -0.4,-1.5 -1.5,0.2 -2.5,0.3 -3.7,0.5 -5,-10.8 14.4,-14.9 21.6,-14.7 4.9,0.2 9.3,1.3 12.9,3.4 -3.8,-1.3 -8,-1.4 -12.1,-0.2 -6.7,2.1 -14,12.1 -8.2,17.6 0.7,2.2 2.5,4.1 5.4,4.6 3.1,0.6 4.5,-4.1 1.3,-4.8 -1.5,-6.2 0.5,-7.9 6.1,-5.2 2.1,1.4 3.8,3.2 5.1,5.4 1.9,2.9 3.4,6.1 4.5,9.3 1.8,5.3 2.6,11 2.3,16.6 -0.7,12.7 -7.4,24.6 -17.7,32 -19.8,14.2 -47.1,7.2 -68.2,-0.2 -38,-13.3 -80,-41.4 -122.1,-28.6 z"
           id="path39"
           inkscape:connector-curvature="0" /><path
           d="m 575.9,245.3 c -2.1,1.3 -4.6,2.1 -7.1,2.6 -5.1,1 -10.5,0.3 -15.6,0.2 -9.4,-0.3 -18.9,-1 -28.3,-0.4 -14.1,0.8 -29.3,4.9 -36.6,18.1 -0.2,0.4 0.3,0.7 0.6,0.3 9.9,-14.9 27.3,-15.4 43.4,-14.4 7.4,0.5 14.7,1 22.1,1.5 6.7,0.4 13.7,1 20.1,-1.3 6.5,-2.3 15.7,-10.8 11,-18.4 -3.5,-5.7 -13.4,-2.2 -9.2,3.9 0.5,0.7 1.8,0.5 1.7,-0.5 2.6,1.9 2.9,3.7 1.2,5.2 -0.8,1.3 -1.9,2.4 -3.3,3.2 z"
           id="path41"
           inkscape:connector-curvature="0" /><path
           d="m 503.8,236.6 c 7.5,-2 14.5,-7.1 17.3,-14.6 1,-2.7 0.7,-6.4 -2.3,-7.8 -2.8,-1.3 -5.5,0.6 -5.7,3.4 -0.1,1.9 2.4,2.2 3.3,0.9 1.9,1.4 2.2,2.9 0.9,4.6 -0.3,0.7 -0.7,1.4 -1.1,2.1 -0.9,1.6 -2,3.1 -3.3,4.4 -2.5,2.7 -5.9,5 -9.3,6.3 -0.5,0.2 -0.3,0.9 0.2,0.7 z"
           id="path43"
           inkscape:connector-curvature="0" /><path
           d="m 556.7,231.3 c -1.4,1.1 -2.7,2.1 -4.2,2.9 -4.4,2.3 -8.9,3 -13.7,3.4 -5.6,0.5 -10.6,1 -15.5,4.1 -0.4,0.3 -0.1,0.9 0.4,0.7 7.6,-3.6 16,-1.4 24,-3 6.2,-1.2 12.3,-4.6 16.3,-9.6 6.1,-7.6 -4.2,-15.6 -7.9,-8 -0.7,1.5 0.7,2.9 2.2,2.2 0.5,1.6 1,3.1 1.5,4.7 -1,0.9 -2,1.8 -3.1,2.6 z"
           id="path45"
           inkscape:connector-curvature="0" /><path
           d="m 753.9,411.5 c -0.5,1.4 -0.9,2.8 -1.2,4.2 -0.2,0.8 0.9,1 1.2,0.3 3.7,-9.1 8.1,-17.9 15.5,-24.7 1.8,-1.7 3.9,-3.3 6.1,-4.5 1.4,-0.8 2.9,-1.4 4.4,-1.7 3.1,-1.1 5.4,0.7 6.8,5.6 -0.3,2 -1.8,1.9 -1.4,4.2 0.6,3.9 5.5,5.4 8.9,4.3 5,-1.8 6.3,-7.2 5.3,-11.9 -2.4,-11.9 -14.6,-17 -24.9,-10.7 -11,6.5 -17.5,22.2 -20.7,34.9 z M 775,379.2 c 4,-2.4 9.6,-3.3 13.8,-1 2.4,1.3 6.5,5.2 6.3,8.3 -0.2,1.7 -1.6,3.8 -3.6,3.1 -2.2,-0.7 -1.3,-3.9 -2.6,-5.3 -1.6,-1.7 -4.1,-2.1 -6.4,-2 -4.5,0.3 -9.1,2.9 -12.5,5.7 -4.3,3.5 -8.1,8 -11.1,12.9 3.7,-8.9 8.8,-17.5 16.1,-21.7 z"
           id="path47"
           inkscape:connector-curvature="0" /><path
           d="m 766.8,404.8 c -2.6,1 -15.4,8.8 -11.3,12 0.7,-0.4 1.3,-1 1.9,-1.6 1.5,-0.8 3.1,-1.6 4.7,-2.3 1.1,-0.5 2.2,-0.9 3.4,-1.2 2.3,-0.6 2.7,-0.8 4.7,0.8 2,1.7 1.2,1.8 2.3,3.4 0.6,0.8 1.2,1.2 2.2,1.4 4.8,1 7.7,-4.6 6.3,-8.5 -2,-5.6 -9.5,-5.9 -14.2,-4 z m 8.2,8.3 c 0,0 -1.1,-2.1 -0.8,-1.7 -2.7,-3.4 -7.9,-2.4 -12.5,-0.5 1.7,-1.5 3.6,-2.9 6,-3.6 2.8,-0.9 8.2,-1.1 9.8,2.1 0.8,1.7 -0.4,5.5 -2.5,3.7 z"
           id="path49"
           inkscape:connector-curvature="0" /><path
           d="m 412.7,227.1 c 3.8,3 8.4,5.1 13,6.8 7,2.5 14.4,4 21.2,7.1 15.1,7 25.7,21.8 29.8,38 3.9,-17.2 16.2,-32.4 32.5,-39.2 6.7,-2.8 13.9,-4.2 20.6,-6.7 6.8,-2.5 13.4,-6.5 16.9,-12.9 2.3,-4.1 2.8,-9.8 -0.5,-13.2 -2,-2.2 -5.4,-3 -8.2,-2 -2.8,0.9 -5,3.6 -5.3,6.5 -0.2,2.2 0.8,4.7 2.9,5.3 2.6,0.7 3.4,-5.3 6.2,-2.2 1.4,1.6 1.2,2.6 0,4.1 -1.6,2 -3.7,4 -5.7,5.6 -3.2,2.6 -6.8,4.6 -10.6,6.3 -7,3.3 -14.4,5.6 -21.1,9.4 -13.7,7.7 -23.9,21.3 -27.8,36.6 -3.6,-15.5 -14.4,-29.1 -28.4,-36.8 -11.6,-6.5 -25.5,-9.4 -35.1,-18.7 -1.4,-1.4 -2.9,-3.3 -2.5,-5.2 0.3,-2 3.5,-3.1 4.4,-1.3 0.5,1 0.3,2.5 1.3,2.8 0.3,0.1 0.7,0 1,-0.1 3.3,-1.3 4,-6.1 2,-9 -2.5,-3.7 -8.5,-4.5 -11.9,-1.4 -4.1,3.7 -3.1,10.6 0,15.2 1.6,1.6 3.4,3.4 5.3,5 z"
           id="path51"
           inkscape:connector-curvature="0" /><path
           d="m 192.9,261 c 2.7,2.3 7.9,2.5 8.7,-1.8 0.6,-3.3 -4.5,-4.8 -5.1,-1.4 0.2,-1.2 -1.9,-4.1 -1.9,-5.7 0,-1.5 0.5,-2.7 1.3,-3.9 2.6,-4.1 7.9,-4.3 12,-2 6.6,3.6 8.5,12 10.3,18.8 2.6,10.2 6.2,20.2 12,29.1 10.9,16.7 30.6,24.2 49.9,25.7 23.1,1.7 48.8,-3.4 70.2,-11.9 22.2,-8.8 38.5,-27 60.8,-35.6 11.8,-4.6 25.1,-7.7 37.8,-5.4 6,1.1 12,3.5 16.2,8.2 4.3,4.8 5.8,11.7 0.2,16 -1.3,1 -2.9,1.7 -4.5,2.2 -1.6,0.5 -3.3,0.6 -4.9,0.2 -3.4,0.1 -3.8,-2.2 -1.3,-7.1 1.7,2.3 5.4,0.3 3.9,-2.3 -5.2,-8.8 -16.3,0.6 -10,8.4 6.2,7.6 20.8,2.4 22.4,-6.7 2,-11.6 -13.4,-18.9 -22.5,-20.6 -14.9,-2.7 -30.9,2 -44.6,7.7 -16.4,6.8 -29.6,18.5 -45.4,26.4 -17.8,8.8 -39,13.1 -58.7,14.9 -18.6,1.7 -37.6,-0.4 -53.5,-10.8 -7.9,-5.2 -14.5,-12.3 -19,-20.7 -4.7,-8.9 -6.3,-18.7 -10.2,-27.9 -3.4,-8.1 -15.4,-18.1 -23.1,-11 0.8,-2.5 2.5,-4.7 5.9,-6.2 5.3,-2.4 10.7,-2 15.8,-0.1 0.8,0.7 1.7,1.4 2.7,2 0.6,0.3 1.2,-0.2 1.2,-0.7 1.8,3.7 10,20.1 10.5,19.9 0.6,-0.3 -8.5,-21 -8.7,-21.5 -0.1,-0.3 -2.7,-5.4 -4.6,-10.8 -0.9,-2.7 -1.6,-5.4 -1.9,-7.5 -0.3,-2.1 -0.4,-3.5 -0.6,-3.5 -0.1,0 -0.4,1.4 -0.3,3.6 0.1,2.2 0.5,5.1 1.2,7.9 1.5,5.7 3.9,11 4,11.2 0,0 0,0.1 0.1,0.1 -6.2,-6.4 -11.1,-13.5 -10.5,-22.9 0.6,-9.3 6,-19.2 15.6,-20 -4.7,2.5 -7.3,8.9 -8.1,13.9 -1.3,8.4 1.4,16.9 7,23.2 0.2,0.7 0.4,1.3 0.6,2 0.4,1.2 2.3,0.7 2,-0.5 0,-0.2 -0.1,-0.4 -0.1,-0.6 0.3,-0.3 0.5,-0.8 0.1,-1.2 -0.2,-0.3 -0.4,-0.5 -0.6,-0.8 -2.8,-17.1 9.9,-31.7 27,-33.7 8.6,-1 17.3,1.1 24.8,5.3 3.2,1.8 6.3,3.8 8.7,6.6 2.8,3.2 3.9,7.9 2.7,11.5 -0.2,-1.7 -0.9,-3.4 -2,-4.9 -3.8,-5.2 -11.8,-6.7 -17.8,-7.5 -12.5,-1.6 -31.1,2.9 -32,18.2 0,0.2 0,0.3 0.1,0.5 -0.3,1.3 -0.4,2.7 -0.4,4.2 0.1,1.6 2.2,1.5 2.4,0 0.9,-8.8 7.2,-16.3 16.6,-16.1 7.2,0.1 15,6 13.8,12.4 -0.3,-1.5 -1.1,-2.9 -2.5,-4.1 -5.9,-4.9 -13.3,-0.2 -17.1,4.8 -12.2,16 -11.3,39.7 0.6,55.5 29.5,39.1 85.3,9.6 119.3,-6.3 25.2,-11.8 54.3,-23.3 82.5,-16.2 0.4,0.1 0.6,-0.6 0.2,-0.7 C 410,248 368,276.1 329.8,289.6 c -21,7.4 -48.5,14.5 -68.2,0.2 -10.3,-7.5 -17,-19.2 -17.7,-32 -0.3,-5.6 0.5,-11.3 2.3,-16.6 1.1,-3.3 2.6,-6.5 4.5,-9.3 1.3,-2.2 3,-3.9 5.1,-5.4 5.6,-2.7 7.6,-1 6.1,5.2 -3.2,0.7 -1.8,5.5 1.3,4.8 2.7,-0.5 4.6,-2.4 5.4,-4.6 5.8,-5.4 -1.6,-15.5 -8.2,-17.6 -4,-1.3 -8.2,-1.1 -11.9,0.1 3.6,-2.1 7.9,-3.2 12.7,-3.4 7.1,-0.2 26.6,3.8 21.6,14.7 -1.2,-0.2 -2.2,-0.3 -3.7,-0.5 -0.9,-0.1 -1,1.1 -0.4,1.5 1.4,1 2.8,1.9 4.2,2.7 0.8,0.5 1.7,0.3 2.3,-0.3 1.5,-1.3 2.5,-3 2.9,-4.8 2.7,-3 3.2,-8 1.4,-12 -4.5,-9.9 -18.3,-15.4 -28.3,-16.8 -19.1,-2.7 -39.8,11.1 -39.3,30.2 -4.8,-10.6 -4.7,-23.2 8.1,-28.5 0.3,-0.1 0.4,-0.3 0.4,-0.7 -0.1,-0.4 -0.1,-0.8 -0.2,-1.1 -0.1,-0.8 -1,-1.4 -1.8,-1.3 -0.6,0 -1.1,0.1 -1.6,0.2 -10.2,-3.3 -17.9,7.2 -19.9,16.3 -1.8,8.2 0.2,17.3 5.6,23.8 -5.4,-1.6 -11.9,-0.8 -16.4,2.1 -4.4,2.9 -6,7.6 -5.7,12.5 -1.4,3.8 -0.8,9.2 2.5,12 z"
           id="path53"
           inkscape:connector-curvature="0" /><path
           d="m 378.8,251.9 c 12.3,4.4 28.3,0.7 41,-0.2 16.4,-1.1 34.5,-1 44.7,14.3 0.2,0.3 0.8,0 0.6,-0.3 -7.3,-13.2 -22.4,-17.3 -36.6,-18.1 -9,-0.5 -18.1,0.1 -27.1,0.4 -5.5,0.2 -11.4,0.9 -16.8,-0.1 -2.5,-0.5 -4.9,-1.2 -7.1,-2.6 -0.8,-0.6 -1.6,-1.3 -2.4,-1.9 -2.6,-1.9 -2.5,-4 0.2,-6.4 -0.1,1 1.3,1.1 1.7,0.5 4.1,-6 -5.3,-9.5 -9,-4.2 -5.3,7.5 4.4,16.3 10.8,18.6 z"
           id="path55"
           inkscape:connector-curvature="0" /><path
           d="m 449.5,236.6 c 0.5,0.1 0.6,-0.6 0.2,-0.7 -3.5,-1.3 -6.8,-3.6 -9.3,-6.3 -1.3,-1.3 -2.4,-2.8 -3.3,-4.4 -0.4,-0.7 -0.8,-1.4 -1.1,-2.1 -1.3,-1.7 -0.9,-3.2 0.9,-4.6 0.9,1.3 3.4,1 3.3,-0.9 -0.2,-2.7 -2.7,-4.6 -5.4,-3.5 -3.2,1.2 -3.5,5.1 -2.5,7.9 2.7,7.6 9.8,12.6 17.2,14.6 z"
           id="path57"
           inkscape:connector-curvature="0" /><path
           d="m 404.7,239.1 c 8.3,2 17.1,-0.5 25.1,3.2 0.4,0.2 0.8,-0.4 0.4,-0.7 -4.9,-3.1 -9.8,-3.6 -15.5,-4.1 -4.4,-0.4 -8.8,-0.9 -12.8,-2.9 -1.3,-0.6 -2.5,-1.4 -3.7,-2.2 -1.4,-0.9 -2.6,-2 -3.7,-3.2 -1.8,-1.3 -1.5,-3.1 0.7,-5.4 1.5,0.7 2.9,-0.7 2.2,-2.2 -1.5,-3.1 -5.4,-4.1 -8.2,-1.7 -3.3,2.8 -1.9,6.9 0.3,9.7 3.6,4.9 9.4,8.1 15.2,9.5 z"
           id="path59"
           inkscape:connector-curvature="0" /><path
           d="m 159,398.9 c 3.3,1.3 8.3,0 9.1,-3.9 0.5,-2.4 -1.4,-2.6 -1.4,-4.4 1.9,-1.9 3.9,-3.9 5.8,-5.8 1.9,0.4 3.7,1.1 5.4,2 2,1 3.7,2.4 5.4,3.9 3.9,3.5 6.7,7.8 9.1,12.4 1.4,2.5 2.4,6.4 4.2,9.3 -2.5,-3.3 -7.2,-6.2 -9.9,-7.4 -4.7,-2 -12.3,-1.8 -14.3,3.9 -1.4,3.9 1.4,9.2 6,8.6 2.5,-0.4 2,-1.8 3,-3.4 3.4,-5.1 9.8,-1.4 14.4,1.2 0.7,0.7 1.3,1.3 2,1.9 0.1,0.1 0.4,0.1 0.4,-0.1 0,-0.2 0,-0.4 0,-0.6 0.7,0 1.1,-0.9 0.4,-1.4 -0.2,-0.2 -0.5,-0.4 -0.8,-0.6 -0.2,-0.4 -0.4,-0.8 -0.6,-1.2 0.8,1.1 1.7,1.9 2.8,2.4 -1,-0.4 -5.1,-17.9 -6.2,-20.2 -3.3,-7 -7.7,-14.1 -14.2,-18.5 -10.3,-6.9 -23.3,-2.2 -25.8,10.2 -0.8,4.6 0.4,9.7 5.2,11.7 z m 23.9,10.4 c -1.1,0.3 -2.2,1.6 -3.4,2.6 -0.7,0.5 -1.3,0.9 -2,0.9 -2,0 -2.9,-2.3 -1.8,-4 1.4,-2.2 7,-2.3 9.2,-1.7 2.7,0.7 4.8,2.1 6.7,3.9 -2.1,-2 -5.8,-2.5 -8.7,-1.7 z m -23.8,-25.4 c 0.7,-2 2.8,-3.7 4.2,-4.8 3.9,-3 9.1,-2.8 13.5,-0.8 8.1,3.8 13.7,13 17.7,22.4 -2.8,-4.6 -6.4,-8.9 -10.3,-12.3 -3.3,-2.8 -7.6,-5.5 -12,-6.1 -2.6,-0.4 -5.2,0.2 -7.2,2 -1.6,1.5 -3.7,7.3 -5.8,2.2 -0.5,-0.8 -0.4,-1.7 -0.1,-2.6 z"
           id="path61"
           inkscape:connector-curvature="0" /><path
           d="m 540.6,751.7 c -10.9,-8.3 -25.1,-9 -36.9,-15.2 -13.7,-7.2 -23,-21 -26.7,-35.8 0,0 0,0 0,-0.1 0,0 0,0 0,-0.1 0,-0.1 -0.1,-0.1 -0.2,-0.1 0,0 -0.1,0 -0.1,0 0,0 -0.1,0 -0.1,0 -0.1,0 -0.1,0.1 -0.2,0.1 0,0 0,0 0,0.1 0,0 0,0 0,0.1 -3.7,14.8 -13,28.6 -26.7,35.8 -11.9,6.3 -26,6.9 -36.9,15.2 -6.3,4.8 -13.5,18.5 -1.9,22.5 6.9,2.4 13.8,-7.6 7.1,-11.9 -2.2,-1.4 -4,1.4 -3.4,3.3 -0.2,-0.8 -2.7,-1.2 -3.2,-2.2 -0.8,-1.9 0.5,-3.5 1.7,-4.9 1.6,-2 3.8,-3.6 5.9,-5 3.4,-2.3 7.2,-4.1 11,-5.7 7.9,-3.5 16,-6.5 23.3,-11.4 11.9,-8 20.3,-20 23.6,-34 3.3,13.9 11.6,25.9 23.6,34 6.9,4.7 14.7,7.6 22.3,10.9 3.8,1.7 7.6,3.4 11.1,5.6 2.1,1.4 4.2,2.9 6,4.7 3.1,3.3 3.5,6.8 -1.1,8.9 -0.1,-0.6 0.1,-1 0.4,-1.6 0.8,-1.9 -1.8,-3.7 -3.5,-2.7 -6.7,4.3 0.2,14.2 7.1,11.9 11.4,-3.8 4.1,-17.6 -2.2,-22.4 z"
           id="path63"
           inkscape:connector-curvature="0" /><path
           d="m 751.8,719.6 c -0.9,4.7 3.8,1.9 5.2,2.6 3.7,1.9 1.7,6.6 -0.3,9 -2.9,3.5 -7.2,3.7 -11.2,1.6 -6.6,-3.6 -8.5,-12 -10.3,-18.8 -2.6,-10.2 -6.2,-20.2 -12,-29.1 -10.9,-16.7 -30.6,-24.2 -49.9,-25.7 -23.1,-1.7 -48.8,3.4 -70.2,11.9 -22.2,8.8 -38.5,27 -60.8,35.6 -11.8,4.6 -25.1,7.7 -37.8,5.4 -6,-1.1 -12,-3.5 -16.2,-8.2 -4.3,-4.8 -5.8,-11.7 -0.2,-16 1.3,-1 2.9,-1.7 4.5,-2.2 1.6,-0.5 3.3,-0.6 4.9,-0.2 3.4,-0.1 3.8,2.2 1.3,7.1 -1.7,-2.3 -5.4,-0.3 -3.9,2.3 5.2,8.8 16.3,-0.6 10,-8.4 -6.2,-7.6 -20.8,-2.4 -22.4,6.7 -2,11.6 13.4,18.9 22.5,20.6 14.9,2.7 30.9,-2 44.6,-7.7 16.4,-6.8 29.6,-18.5 45.4,-26.4 17.8,-8.8 39,-13.1 58.7,-14.9 18.6,-1.7 37.6,0.4 53.5,10.8 7.9,5.2 14.5,12.3 19,20.7 4.7,8.9 6.3,18.7 10.2,27.9 3.4,8.1 15.4,18.1 23.1,11 -0.8,2.5 -2.5,4.7 -5.9,6.2 -5.3,2.4 -10.7,2 -15.8,0.1 -0.8,-0.7 -1.7,-1.4 -2.7,-2 0,0 -0.1,0 -0.1,0 -1.3,-2.8 -10.1,-20.5 -10.7,-20.2 -0.6,0.3 8.5,21 8.7,21.5 0.1,0.3 2.7,5.4 4.6,10.8 0.9,2.7 1.6,5.4 1.9,7.5 0.3,2.1 0.4,3.5 0.6,3.5 0.1,0 0.4,-1.4 0.3,-3.6 -0.1,-2.2 -0.5,-5.1 -1.2,-7.9 -0.8,-2.8 -1.7,-5.6 -2.5,-7.7 5,5.7 8.6,12.1 8.1,20.3 -0.6,9.3 -6,19.2 -15.6,20 4.7,-2.5 7.3,-8.9 8.1,-13.9 1.3,-8.4 -1.4,-16.9 -7,-23.2 -0.2,-0.7 -0.4,-1.3 -0.6,-2 -0.4,-1.2 -2.3,-0.7 -2,0.5 0,0.2 0.1,0.4 0.1,0.6 -0.3,0.3 -0.5,0.8 -0.1,1.2 0.2,0.3 0.4,0.5 0.6,0.8 2.8,17.1 -9.9,31.7 -27,33.7 -8.6,1 -17.3,-1.1 -24.8,-5.3 -3.2,-1.8 -6.3,-3.8 -8.7,-6.6 -2.8,-3.2 -3.9,-7.9 -2.7,-11.5 0.2,1.7 0.9,3.4 2,4.9 3.8,5.2 11.8,6.7 17.8,7.5 12.5,1.6 31.1,-2.9 32,-18.2 0,-0.2 0,-0.3 -0.1,-0.5 0.3,-1.3 0.4,-2.7 0.4,-4.2 -0.1,-1.6 -2.2,-1.5 -2.4,0 -0.9,8.8 -7.2,16.3 -16.6,16.1 -7.2,-0.1 -15,-6 -13.8,-12.4 0.3,1.5 1.1,2.9 2.5,4.1 5.9,4.9 13.3,0.2 17.1,-4.8 12.2,-16 11.3,-39.7 -0.6,-55.5 -29.5,-39.1 -85.3,-9.6 -119.3,6.3 -25.2,11.8 -54.3,23.3 -82.5,16.2 -0.4,-0.1 -0.6,0.6 -0.2,0.7 42.1,12.8 84.1,-15.3 122.3,-28.8 21,-7.4 48.5,-14.5 68.2,-0.2 10.3,7.5 17,19.2 17.7,32 0.3,5.6 -0.5,11.3 -2.3,16.6 -1.1,3.3 -2.6,6.5 -4.5,9.3 -1.3,2.2 -3,3.9 -5.1,5.4 -2.7,1.3 -6.3,2.3 -6.8,-1.9 -0.2,-1.4 5.6,-9.4 -0.6,-8.1 -2.7,0.5 -4.6,2.4 -5.4,4.6 -5.8,5.4 1.6,15.5 8.2,17.6 4,1.3 8.2,1.1 11.9,-0.1 -3.6,2.1 -7.9,3.2 -12.7,3.4 -6.9,0.2 -24.9,-3 -22.1,-13.3 0.6,-2.1 2.8,-1.1 4.3,-0.9 2.1,0.2 -0.6,-2.5 -0.9,-2.7 -7.8,-7.2 -11.8,10.6 -9.5,15.6 4.5,9.9 18.3,15.4 28.3,16.8 19.1,2.7 39.8,-11.1 39.3,-30.2 4.8,10.6 4.7,23.2 -8.1,28.5 -0.3,0.1 -0.4,0.3 -0.4,0.7 0.1,0.4 0.1,0.8 0.2,1.1 0.7,3.8 11,1.4 13,0.3 5.5,-3 9,-9.5 10.3,-15.4 1.8,-8.2 -0.2,-17.3 -5.6,-23.8 5.4,1.6 11.9,0.8 16.4,-2.1 6.5,-4.2 9.5,-19.4 3.1,-24.8 -2.9,-2.3 -8,-2.4 -8.8,1.8 z"
           id="path65"
           inkscape:connector-curvature="0" /><path
           d="m 574.5,726.9 c -12.3,-4.4 -28.3,-0.7 -41,0.2 -16.4,1.1 -34.5,1 -44.7,-14.3 -0.2,-0.3 -0.8,0 -0.6,0.3 7.3,13.2 22.4,17.3 36.6,18.1 9,0.5 18.1,-0.1 27.1,-0.4 5.5,-0.2 11.4,-0.9 16.8,0.1 3.2,0.6 10.1,2.7 11.1,6.3 1.3,4.4 -2.3,3 -3.9,4.3 -0.7,0.6 -0.9,1.6 -0.7,2.4 0.4,3.2 4.6,5 7.5,3.6 2.9,-1.4 4.4,-5 3.9,-8.2 -0.8,-5.5 -6.8,-10.5 -12.1,-12.4 z"
           id="path67"
           inkscape:connector-curvature="0" /><path
           d="m 503.8,742.2 c -0.5,-0.1 -0.6,0.6 -0.2,0.7 3.5,1.3 6.8,3.6 9.3,6.3 1.3,1.3 2.4,2.8 3.3,4.4 0.4,0.7 0.8,1.4 1.1,2.1 1.3,1.7 0.9,3.2 -0.9,4.6 -0.9,-1.3 -3.4,-1 -3.3,0.9 0.2,2.7 2.7,4.6 5.4,3.5 3.2,-1.2 3.5,-5.1 2.5,-7.9 -2.7,-7.5 -9.7,-12.6 -17.2,-14.6 z"
           id="path69"
           inkscape:connector-curvature="0" /><path
           d="m 548.7,739.7 c -8.3,-2 -17.1,0.5 -25.1,-3.2 -0.4,-0.2 -0.8,0.4 -0.4,0.7 4.9,3.1 9.8,3.6 15.5,4.1 4.4,0.4 8.8,0.9 12.8,2.9 1.3,0.6 2.5,1.4 3.7,2.2 1.4,0.9 2.6,2 3.7,3.2 1.8,1.3 1.5,3.1 -0.7,5.4 -1.5,-0.7 -2.9,0.7 -2.2,2.2 1.5,3.1 5.4,4.1 8.2,1.7 3.3,-2.8 1.9,-6.9 -0.3,-9.7 -3.7,-4.8 -9.5,-8.1 -15.2,-9.5 z"
           id="path71"
           inkscape:connector-curvature="0" /><path
           d="m 785.8,488 c 3.3,-0.7 6.4,-2 9.4,-3.8 11.1,-6.8 18.7,-19.7 17.9,-32.8 -0.8,-13.2 -9.9,-24.6 -21.9,-29.7 -11.4,-4.9 -28.4,-3.4 -33.8,9.6 -4.5,10.8 2,25.9 15.2,24.6 9.9,-1 13,-14 2.8,-16.5 -2,-0.5 -9.3,5.1 -9.3,0.8 0,-4.1 6.3,-6.3 9.6,-6.2 4.1,0.2 7.9,2.2 11,4.7 6.2,5.1 10.1,13.2 8.1,21.3 -3.6,14.5 -23.8,15.3 -34.6,9.8 -26.8,-13.5 -23.1,-47 -12.6,-69.8 9.4,-20.4 27.9,-42.5 25.2,-66.3 -2,-17.9 -19,-31.3 -37,-26 -7.4,2.2 -16.5,8.6 -14.9,17.5 1.5,8.7 12.2,12.5 19.1,7.3 1.6,-1.2 0.5,-3.6 1.3,-5.2 0.9,-1.6 3,-2.7 4.5,-3.5 3.5,-1.7 5,-0.6 7.1,2.6 1.9,2.9 2.8,6.2 2.9,9.6 0.2,4.9 -1.3,9.7 -3.5,14 -4,8 -9.8,14.8 -14.7,22.2 -9.3,14 -16.9,29.3 -20.6,45.7 -3.5,15.1 -0.4,27.4 8.4,40 7.6,11 18,20.2 30.2,25.7 4.1,1.8 8.5,3.3 12.9,4.2 -1.3,0.2 -2.5,0.5 -3.8,0.9 -24.1,6.4 -51.5,32.3 -49.4,59.1 1.4,17.4 9.4,34.7 18.4,49.4 5.1,8.3 11.3,15.8 16.3,24.2 2.9,4.9 5.5,10.3 5.8,16.1 0.2,3.4 -0.3,6.8 -1.8,9.9 -0.8,1.7 -1.9,3.2 -3.2,4.5 -3.7,4.1 -7.3,2.7 -10.7,-4.2 1.2,-1 1.6,-3 -0.2,-4.4 -5.8,-4.4 -14.8,-2.5 -18,4.2 -3.4,7 1.1,13.8 7,17.6 15.6,10 36.8,1.2 42.4,-15.9 7.4,-22.7 -9.6,-45.4 -19.4,-64.5 -11.3,-22 -21.1,-51.8 -0.7,-72 10,-9.9 29.1,-14.6 40,-3.1 6.7,7 4.5,18.1 -1.5,24.9 -2.7,3 -6.2,5.6 -10,6.8 -2.3,0.7 -5,1 -7.4,0.4 -1.1,-0.4 -2.1,-0.8 -3.2,-1.2 -1.3,-1.4 -5.4,-5.2 -2.7,-7 0.8,-0.6 3.3,-0.8 4.1,-0.3 1.7,1 0.3,1.7 1.6,3.2 2.8,3.2 8.4,-2.8 9.2,-5.4 1.3,-4.2 -1.1,-8.5 -5.1,-10.1 -11,-4.5 -20.5,5.9 -20.3,16.4 0.2,13.7 13.6,20.9 26,19.4 13,-1.5 24.6,-10.9 29.2,-23.1 4.8,-12.8 0.5,-27 -9,-36.4 -4.8,-4.9 -10.3,-7.9 -16.3,-9.2 z m -38.1,-11.1 c -10.6,-6.8 -19.3,-16.6 -25.2,-27.7 -7.6,-14.2 -4.4,-28.4 1,-42.7 4.9,-13 11.9,-25 19.8,-36.4 6.6,-9.5 14.6,-19.6 14.5,-31.9 -0.1,-8.1 -5.1,-19.7 -15,-18.7 -1.5,0.1 -3.4,0.8 -4.6,2 -2.2,2.1 -0.9,3.9 -1.8,6 -2.3,4.8 -8.2,2.2 -10.4,-1.6 -2.5,-4.2 -2.2,-6.7 1.3,-10.7 2.6,-2.9 6.5,-4.7 10.1,-5.7 8.9,-2.3 18.4,0.8 24.9,7.1 14.5,14.1 6,34.6 -2.3,49.3 -13.3,23.4 -30.5,49.4 -23.8,77.8 5,21.3 28.1,40.2 50.2,29.7 20.8,-9.9 10.7,-41.2 -10.8,-42.3 -8,-0.4 -19.3,7.3 -12.4,15.9 4.2,5.3 11.8,3.4 14.1,-0.5 0.5,2.9 -2.6,6.6 -6.5,6.6 -5.3,0 -9.7,-3.8 -11.1,-8.9 -3.1,-11.1 6.1,-19.4 16.4,-20.4 14.9,-1.4 29.4,9.8 32.8,24.1 3.5,15.2 -6.8,32.3 -21.6,37.1 -12.9,4.2 -28.6,-1 -39.6,-8.1 z m 33,75 c -9,0.7 -19.3,-3.2 -21.2,-13 -1.3,-6.2 1.6,-14 8.2,-15.8 2.7,-0.7 6.9,0.6 8.8,2.6 1,1 1.4,2.3 1,3.7 -2.6,-3.3 -7.1,-5.1 -11.1,-3.2 -8,3.9 -5.7,13.8 1.4,17 20,9.2 40.8,-22.5 24.3,-37.2 -18,-16.1 -44.7,-1.3 -53.1,17.6 -11.5,25.8 2,53.1 14.7,75.5 8.9,15.7 23.4,35.9 12.9,54.3 -4.7,8.2 -13.8,13.6 -23.3,13.5 -4.6,0 -9.4,-1.4 -13.2,-4 -2.8,-2 -5.4,-4.8 -5.8,-8.4 -0.7,-7.1 6.6,-11.5 12.3,-7.1 0.1,0.1 0.2,0.1 0.3,0.2 -1.9,3 -0.2,6.9 3.9,8.2 7.5,2.3 13.6,-4.5 15.8,-10.9 3.6,-10.7 -1.2,-21.5 -7,-30.3 -7.3,-11.2 -15.1,-21.8 -21,-33.9 -6.2,-12.8 -13.6,-29.9 -10.1,-44.4 2.9,-11.8 11.7,-23 20.6,-31 9.8,-8.8 22.4,-15.1 35.7,-16.1 16.2,-1.2 30.8,10 34.3,26 3.7,17.9 -10.7,35.3 -28.4,36.7 z"
           id="path73"
           inkscape:connector-curvature="0" /><path
           d="m 794.4,576.8 c -3.3,-1.3 -8.3,0 -9.1,3.9 -0.7,3.4 3.3,8.9 -3.8,9.3 -3.9,0.2 -8.5,-2.4 -11.4,-5 -7.7,-6.9 -12.4,-15.9 -16.2,-25.3 -0.3,-0.7 -1.3,-0.5 -1.2,0.3 0.3,1.4 0.7,2.8 1.2,4.1 3.2,12.4 9.4,27.6 19.8,34.6 10.3,6.9 23.3,2.2 25.8,-10.2 0.8,-4.6 -0.3,-9.7 -5.1,-11.7 z m -0.3,14.9 c -0.9,2 -2.9,4 -4,4.9 -3.9,3 -9.1,2.8 -13.5,0.8 -8.1,-3.8 -13.7,-13 -17.7,-22.4 2.8,4.6 6.4,8.9 10.3,12.3 3.4,2.9 8.6,5.1 13.1,5.8 2.3,0.4 4.4,0.2 6.1,-1.4 1.2,-1.2 3.9,-9.3 6.1,-2.8 0.3,0.7 0.1,1.7 -0.4,2.8 z"
           id="path75"
           inkscape:connector-curvature="0" /><path
           d="m 766.7,570.8 c 4.7,2 12.3,1.8 14.3,-3.9 1.4,-3.9 -1.4,-9.2 -6,-8.6 -2.5,0.4 -2,1.9 -3,3.4 -3.4,5.1 -9.8,1.4 -14.4,-1.2 -0.8,-0.8 -1.4,-1.5 -2.4,-1.9 -0.5,0.7 -0.5,1.6 -0.1,2.4 2,4.4 7.3,8 11.6,9.8 z m 7.5,-6.5 c 0.4,-0.5 0.6,-1.3 0.9,-1.9 1.1,0 2.3,0.6 2.7,1.8 1.6,4.9 -6.9,5 -9.5,4.4 -2.7,-0.7 -4.8,-2.1 -6.7,-3.9 4.6,2 9.9,3 12.6,-0.4 z"
           id="path77"
           inkscape:connector-curvature="0" /><path
           d="m 452.1,718.3 c 0.4,-0.1 0.3,-0.8 -0.2,-0.7 -48.9,12.3 -92.5,-26.9 -137.5,-38.3 -20.8,-5.3 -43.8,-5.3 -59.9,10.8 -14.1,14.1 -17.7,36.1 -8.9,54 3.2,6.6 10.4,16.7 19.1,12.5 2.4,-1.1 3.8,-3.1 4.3,-5.3 1.3,6.5 -6.3,12.7 -13.7,12.5 -9.4,-0.3 -15.7,-7 -16.6,-16.1 -0.1,-1.5 -2.3,-1.6 -2.4,0 -0.1,1.5 0.1,2.8 0.4,4.2 -0.1,0.1 -0.1,0.3 -0.1,0.5 1,15.3 19.6,19.7 32,18.2 5.9,-0.7 14,-2.2 17.8,-7.5 1.1,-1.5 1.8,-3.3 2,-5 1.1,3.2 0.4,7 -1.7,10.2 -2.1,3.2 -5.5,5.6 -8.7,7.5 -7.7,4.6 -16.9,6.9 -25.9,5.9 -17.1,-2 -29.9,-16.6 -27,-33.7 0.2,-0.3 0.4,-0.6 0.6,-0.8 0.3,-0.5 0.2,-0.9 -0.1,-1.2 0,-0.2 0.1,-0.4 0.1,-0.6 0.3,-1.3 -1.5,-1.8 -2,-0.5 -0.2,0.7 -0.4,1.3 -0.6,2 -5.6,6.3 -8.3,14.8 -7,23.2 0.8,5.1 3.4,11.4 8.1,13.9 -9.5,-0.8 -15.1,-10.7 -15.6,-20 -0.5,-8.3 3.1,-14.7 8.3,-20.5 -0.8,2.1 -1.9,5 -2.6,7.9 -0.8,2.8 -1.2,5.7 -1.2,7.9 -0.1,2.2 0.2,3.6 0.3,3.6 0.2,0 0.3,-1.4 0.6,-3.5 0.3,-2.1 1,-4.8 1.9,-7.5 1.9,-5.3 4.5,-10.5 4.6,-10.8 0.2,-0.5 9.3,-21.2 8.7,-21.5 -0.5,-0.3 -9.2,17.2 -10.6,20.2 -0.1,0 -0.2,0 -0.2,0.1 -1,0.6 -1.8,1.3 -2.7,2 -5.1,1.9 -10.6,2.4 -15.8,-0.1 -3.3,-1.6 -5,-3.8 -5.8,-6.3 5.3,4 14.1,1.6 18.9,-3.9 4.4,-5.1 5.8,-11.8 7.7,-18 3.1,-10.1 7.2,-19.9 14.3,-27.8 13.2,-14.6 32.4,-21 51.7,-21.2 18.9,-0.2 38.7,3.7 56.7,9.5 19.2,6.2 33.7,19.1 51.4,28.2 13.2,6.8 28.7,12.1 43.7,12.5 11.3,0.3 27.6,-3.5 31.9,-15.7 3.7,-10.5 -9.5,-19.3 -18.8,-14.7 -4,2 -6.8,7.6 -4,11.7 2.8,4.1 8.6,3 10.9,-0.9 1.5,-2.6 -2.2,-4.5 -3.9,-2.3 2.6,-3.5 -4.6,-7.4 2.9,-7.3 1.7,0 3.3,0.5 4.8,1 5.8,2.3 8,7.5 5.7,13.5 -2.2,5.8 -9.9,9.7 -15.4,11.3 -10.5,3 -22,1.5 -32.3,-1.4 -11.6,-3.3 -22.5,-8.7 -32.4,-15.5 -10,-6.9 -19.3,-14.9 -30.3,-20.1 -20.3,-9.6 -44.5,-14.7 -66.9,-15.3 -20,-0.5 -42,4.5 -55.8,19.9 -7.5,8.4 -12.2,19.8 -15.3,30.6 -1.9,6.6 -2.8,14.3 -7.4,19.7 -3.3,3.8 -8.5,6.5 -13.4,3.9 -1.7,-0.9 -2.9,-1.9 -3.5,-3.9 -0.5,-1.2 -0.5,-2.4 -0.2,-3.6 0.1,-1.6 0.7,-3.1 1.7,-4.5 0.7,3.4 5.8,1.9 5.1,-1.4 -0.6,-3.3 -4.3,-4.2 -7.1,-2.8 -8.7,4.2 -5.1,21.5 1.6,25.9 4.5,2.9 11,3.7 16.4,2.1 -5.3,6.4 -7.3,15.6 -5.6,23.8 2,9.1 9.7,19.6 19.9,16.3 0.5,0.1 1.1,0.2 1.6,0.2 0.7,0 1.6,-0.6 1.8,-1.3 0.1,-0.4 0.1,-0.8 0.2,-1.1 0.1,-0.3 -0.1,-0.5 -0.4,-0.7 -12.8,-5.4 -12.9,-18 -8.1,-28.5 -0.5,19.1 20.2,32.9 39.3,30.2 9.8,-1.4 23,-6.7 27.9,-16 3.7,-7.1 -1,-21.7 -10.4,-15.3 -0.6,0.4 -0.5,1.6 0.4,1.5 7.6,-0.8 4.1,6.9 0.1,9.6 -4.9,3.3 -12.1,4.8 -18,4.6 -4.9,-0.2 -9.3,-1.3 -12.9,-3.4 3.8,1.3 8,1.4 12.1,0.2 8.6,-2.7 15.6,-19.6 2.8,-22.2 -4.6,-0.9 -2,4.4 -1.6,6.6 0.9,4.2 -1.6,6.4 -5.9,3.5 -2.1,-1.4 -3.8,-3.2 -5.1,-5.4 -1.9,-2.9 -3.4,-6.1 -4.5,-9.3 -1.8,-5.3 -2.6,-11 -2.3,-16.6 0.7,-12.7 7.4,-24.6 17.7,-32 19.8,-14.2 47.1,-7.2 68.2,0.2 38,13.2 80,41.3 122.1,28.4 z"
           id="path79"
           inkscape:connector-curvature="0" /><path
           d="m 377.4,733.5 c 2.4,-1.3 5.4,-2.1 7.2,-2.4 5.1,-1 10.5,-0.3 15.6,-0.2 9.4,0.3 18.9,1 28.3,0.4 14.1,-0.8 29.3,-4.9 36.6,-18.1 0.2,-0.4 -0.3,-0.7 -0.6,-0.3 -9.9,14.9 -27.3,15.4 -43.4,14.4 -7.4,-0.5 -14.7,-1 -22.1,-1.5 -6.7,-0.4 -13.7,-1 -20.1,1.3 -6.5,2.3 -15.7,10.8 -11,18.4 1.6,2.6 5.7,4.1 8.4,2.1 4.2,-3.2 -0.9,-6.6 -1,-5.6 -1.3,-0.7 -2,-2.3 -1.8,-3.7 0,-2.2 1.8,-3.7 3.9,-4.8 z"
           id="path81"
           inkscape:connector-curvature="0" /><path
           d="m 449.5,742.2 c -7.5,2 -14.5,7.1 -17.3,14.6 -1,2.7 -0.7,6.4 2.3,7.8 2.8,1.3 5.5,-0.6 5.7,-3.4 0.3,-4.4 -7.9,0.6 -3.1,-7.6 0.9,-1.6 2,-3.1 3.3,-4.4 2.5,-2.7 5.9,-5 9.3,-6.3 0.5,-0.1 0.3,-0.8 -0.2,-0.7 z"
           id="path83"
           inkscape:connector-curvature="0" /><path
           d="m 396.7,747.5 c 1.4,-1.1 2.7,-2.1 4.2,-2.9 4.4,-2.3 8.9,-3 13.7,-3.4 5.6,-0.5 10.6,-1 15.5,-4.1 0.4,-0.3 0.1,-0.9 -0.4,-0.7 -7.6,3.6 -16,1.4 -24,3 -6.2,1.2 -12.3,4.6 -16.3,9.6 -6.1,7.6 4.2,15.6 7.9,8 1.8,-3.5 -6.7,-5.1 -0.6,-9.5 z"
           id="path85"
           inkscape:connector-curvature="0" /><path
           d="m 217.6,668.1 c 7.4,-2.2 16.5,-8.6 14.9,-17.5 -1.5,-8.7 -12.2,-12.5 -19.1,-7.3 -1.3,1 -0.5,2.3 -1,3.5 -0.9,2.1 -0.6,2 -2.5,3.5 -3.4,2.6 -7.3,3.4 -9.5,-1 -1.9,-2.9 -2.8,-6.2 -2.9,-9.6 -0.2,-4.9 1.3,-9.7 3.5,-14 4,-8 9.8,-14.8 14.7,-22.2 9.3,-14 16.9,-29.3 20.6,-45.7 3.5,-15.1 0.4,-27.4 -8.4,-40 -7.6,-11 -18,-20.2 -30.2,-25.7 -4.1,-1.8 -8.5,-3.3 -12.9,-4.2 1.3,-0.2 2.5,-0.5 3.8,-0.9 24.1,-6.4 51.5,-32.3 49.4,-59.1 -1.4,-17.4 -9.4,-34.7 -18.4,-49.4 -5.1,-8.3 -11.3,-15.8 -16.3,-24.2 -2.9,-4.9 -5.5,-10.3 -5.8,-16.1 -0.2,-3.4 0.3,-6.8 1.8,-9.9 0.8,-1.7 1.9,-3.2 3.2,-4.5 2.1,-2.2 5.2,-2.6 7.8,-0.5 3.2,2.6 0.5,7.1 3.1,9.1 5.8,4.4 14.8,2.5 18,-4.2 3.4,-7 -1.1,-13.8 -7,-17.6 -15.6,-10 -36.8,-1.2 -42.4,15.9 -7.4,22.7 9.6,45.4 19.4,64.5 11.3,22 21.1,51.8 0.7,72 -10,9.9 -29.1,14.6 -40,3.1 -6.7,-7 -4.5,-18.1 1.5,-24.9 2.7,-3 6.2,-5.6 10,-6.8 2.3,-0.7 5,-1 7.4,-0.4 1.1,0.4 2.1,0.8 3.2,1.1 5.7,5.9 4.7,8.4 -3.1,7.4 2.2,-2.2 -1,-5.2 -3.3,-3.4 -7.8,2.1 -8.7,12.4 -0.8,15.6 11,4.5 20.5,-5.9 20.3,-16.4 -0.2,-13.7 -13.6,-20.9 -26,-19.4 -13,1.5 -24.6,10.9 -29.2,23.1 -4.8,12.8 -0.5,27 9,36.4 4.8,4.8 10.4,7.8 16.3,9.1 -3.3,0.7 -6.4,2 -9.4,3.8 -11.1,6.8 -18.7,19.7 -17.9,32.8 0.8,13.2 9.9,24.6 21.9,29.7 11.4,4.9 28.4,3.4 33.8,-9.6 4.5,-10.8 -2,-25.9 -15.2,-24.6 -5.4,0.5 -10.6,6.1 -8.2,11.7 1.1,2.7 3.3,3.8 6.1,4 1.7,0.1 12.8,-1.5 7.2,4.2 -1.7,1.7 -6,2.2 -8.2,2.1 -4.1,-0.2 -7.9,-2.2 -11,-4.7 -6.2,-5.1 -10.1,-13.2 -8.1,-21.3 3.6,-14.5 23.8,-15.3 34.6,-9.8 26.8,13.5 23.1,47 12.6,69.8 -9.4,20.4 -27.9,42.5 -25.2,66.3 2.3,18.2 19.2,31.5 37.2,26.2 z M 144.3,460.3 c -3.8,-17.7 10.6,-35 28.3,-36.5 9,-0.7 19.3,3.2 21.2,13 1,5 -1.6,11.2 -5.4,14.4 -4.7,3.8 -11.4,1.9 -12.5,-4.4 3.1,2.6 7,4.6 11,2.7 8,-3.9 5.7,-13.8 -1.4,-17 -20,-9.2 -40.8,22.5 -24.3,37.2 18,16.1 44.7,1.3 53.1,-17.6 11.5,-25.8 -2,-53.1 -14.7,-75.5 -8.9,-15.7 -23.4,-35.9 -12.9,-54.3 4.7,-8.2 13.8,-13.6 23.3,-13.5 4.6,0 9.4,1.4 13.2,4 2.8,2 5.4,4.8 5.8,8.4 0.7,7.1 -6.6,11.5 -12.3,7.1 -0.1,-0.1 -0.2,-0.1 -0.3,-0.2 1.9,-3 0.2,-6.9 -3.9,-8.2 -7.5,-2.3 -13.6,4.5 -15.8,10.9 -3.6,10.7 1.2,21.5 7,30.3 7.3,11.2 15.1,21.8 21,33.9 6.2,12.8 13.6,29.9 10.1,44.4 -2.9,11.8 -11.7,23 -20.6,31 -9.8,8.8 -22.4,15.1 -35.7,16.1 -16.2,0.9 -30.7,-10.2 -34.2,-26.2 z m 49.1,149.5 c 13.3,-23.4 30.5,-49.4 23.8,-77.8 -5,-21.3 -28.1,-40.2 -50.2,-29.7 -20.8,9.9 -10.7,41.2 10.8,42.3 8,0.4 19.3,-7.3 12.4,-15.9 -3.7,-4.7 -9.8,-3.6 -13.9,-0.3 2.6,-2 0.9,-5.8 6.3,-5.8 5.3,0 9.7,3.8 11.1,8.9 3.1,11.1 -6.1,19.4 -16.4,20.4 -14.9,1.4 -29.4,-9.8 -32.8,-24.1 -3.5,-15.2 6.8,-32.3 21.6,-37.1 13,-4.2 28.6,1.1 39.6,8.2 10.6,6.8 19.3,16.6 25.2,27.7 7.6,14.2 4.4,28.4 -1,42.7 -4.9,13 -11.9,25 -19.8,36.4 -6.6,9.5 -14.6,19.6 -14.5,31.9 0.1,8.1 5.1,19.7 15,18.7 4.9,-0.5 8.4,-5 5.9,-8.5 0.1,-0.1 0.2,-0.1 0.3,-0.2 4.5,-3.5 8.2,-1.8 10.7,2.3 2.5,4.2 2.2,6.7 -1.3,10.7 -2.6,2.9 -6.5,4.7 -10.1,5.7 -8.9,2.3 -18.4,-0.8 -24.9,-7.1 -14.6,-14.1 -6.2,-34.7 2.2,-49.4 z"
           id="path87"
           inkscape:connector-curvature="0" /><path
           d="m 199.4,564.2 c 0.5,-1.4 0.9,-2.8 1.2,-4.2 0.2,-0.8 -0.9,-1 -1.2,-0.3 -3.7,9.1 -8.1,17.9 -15.5,24.7 -1.8,1.7 -3.9,3.3 -6.1,4.5 -1.4,0.8 -2.9,1.4 -4.4,1.7 -3.1,1.1 -5.4,-0.7 -6.8,-5.6 0.3,-2 1.8,-1.9 1.4,-4.2 -0.6,-3.9 -5.5,-5.4 -8.9,-4.3 -5,1.8 -6.3,7.2 -5.3,11.9 2.4,11.9 14.6,17 24.9,10.7 11.1,-6.5 17.5,-22.2 20.7,-34.9 z m -21,32.4 c -4,2.4 -9.6,3.3 -13.8,1 -2.6,-1.4 -6.7,-5.7 -6.2,-9 1,-6.1 4.9,1.6 5.9,2.8 5,5.2 14.7,0 19,-3.5 4.3,-3.5 8.1,-8 11.1,-12.9 -3.7,8.7 -8.8,17.3 -16,21.6 z"
           id="path89"
           inkscape:connector-curvature="0" /><path
           d="m 186.5,570.9 c 2.2,-0.9 4.4,-2.3 6.3,-3.7 1.2,-0.9 2.3,-2 3.2,-3.1 1,-1.2 1.8,-2.5 2.9,-3.6 0.1,-0.1 0.2,-0.2 0.2,-0.3 0.1,-0.7 -2.2,-0.4 -2.6,-0.4 -1.4,0.2 -3.9,2.4 -5.4,3 -1.1,0.5 -2.2,0.9 -3.4,1.2 -2.3,0.6 -2.7,0.8 -4.7,-0.8 -2,-1.7 -1.2,-1.8 -2.3,-3.4 -0.6,-0.8 -1.2,-1.2 -2.2,-1.4 -4.8,-1 -7.7,4.6 -6.3,8.5 2.1,5.6 9.6,5.9 14.3,4 z m -8.2,-8.3 c 0,0 1.1,2.1 0.8,1.7 2.7,3.4 7.9,2.4 12.5,0.5 -1.7,1.5 -3.6,2.9 -6,3.6 -2.8,0.9 -8.2,1.1 -9.8,-2.1 -0.8,-1.6 0.4,-5.4 2.5,-3.7 z"
           id="path91"
           inkscape:connector-curvature="0" /><path
           d="m 475.4,255.7 c -0.4,1.4 1.8,2 2.2,0.6 4,-14.3 11.8,-27.9 11.9,-43.1 0,-9.3 -3.5,-20.2 -14.9,-18.3 -27.1,4.4 -7.3,46.8 0.9,60.7 -0.1,0 -0.1,0 -0.1,0.1 z m -8.7,-27.5 c -2,-9.4 -5.8,-25.4 7.2,-28.3 23.9,-5.3 6.1,41.4 2.1,54.1 -4.3,-8.2 -7.4,-16.8 -9.3,-25.8 z"
           id="path93"
           inkscape:connector-curvature="0" /><path
           d="m 476.6,726.5 c 0.4,-1.4 -1.8,-2 -2.2,-0.6 -4,14.3 -11.8,27.9 -11.9,43.1 0,9.3 3.5,20.2 14.9,18.3 27.1,-4.4 7.3,-46.8 -0.9,-60.7 0.1,-0.1 0.1,-0.1 0.1,-0.1 z m 8.8,27.4 c 2,9.4 5.8,25.4 -7.2,28.3 -23.9,5.3 -6.1,-41.4 -2.1,-54.1 4.2,8.3 7.3,16.8 9.3,25.8 z"
           id="path95"
           inkscape:connector-curvature="0" /><path
           d="m 474.3,211.3 c -2.6,0 -4.7,14 -4.7,14.3 0,0.3 2.1,14.3 4.7,14.3 2.6,0 4.7,-13.9 4.7,-14.3 0,-0.4 -2.1,-14.3 -4.7,-14.3 z"
           id="path97"
           inkscape:connector-curvature="0" /><path
           d="m 191.3,273.1 c -2,1.7 7.7,16.5 8,16.8 0.3,0.3 13.2,12.4 15.2,10.7 2,-1.7 -7.7,-16.5 -8,-16.8 -0.2,-0.3 -13.2,-12.3 -15.2,-10.7 z"
           id="path99"
           inkscape:connector-curvature="0" /><path
           d="m 745.6,284.1 c -2.8,1.8 -5.6,3.6 -5.7,3.7 -0.1,0.1 -2.1,2.7 -4.2,5.3 -2.1,2.7 -4.2,5.4 -3.5,6.5 0.7,1.1 4.2,0.2 7.5,-1.2 3.3,-1.5 6.4,-3.5 6.5,-3.6 0.1,-0.1 2.5,-2.9 4.3,-6.1 1.8,-3.2 3,-6.6 2,-7.4 -1.1,-0.8 -4,1 -6.9,2.8 z"
           id="path101"
           inkscape:connector-curvature="0" /><path
           d="m 215.8,679.1 c -2.9,1.9 -5.6,4 -5.7,4.1 -0.1,0.1 -2.1,2.9 -3.8,5.9 -1.8,3 -3.4,6.1 -2.5,7.1 0.9,0.9 4.1,-0.5 7.2,-2.4 3,-1.8 5.8,-4 5.9,-4.1 0.1,-0.1 2.1,-3 3.8,-6.1 1.7,-3.1 3,-6.4 2.1,-7.2 -1,-0.9 -4.1,0.8 -7,2.7 z"
           id="path103"
           inkscape:connector-curvature="0" /><path
           d="m 471.9,757.7 c 0,0.3 2.7,10.9 5.3,10.8 2.6,-0.1 4.1,-11 4.1,-11.3 0,-0.3 -2.7,-10.9 -5.3,-10.8 -2.6,0.2 -4.1,11.1 -4.1,11.3 z"
           id="path105"
           inkscape:connector-curvature="0" /><path
           d="m 742,691.9 c 2.9,2.2 5.9,4.5 7,3.8 1.1,-0.7 0,-4.5 -1.9,-8 -1.8,-3.5 -4.4,-6.7 -4.5,-6.8 -0.1,-0.1 -3.4,-2.5 -7,-4.3 -3.6,-1.7 -7.4,-2.7 -8.1,-1.6 -0.7,1.1 1.8,4 4,6.9 2.2,2.8 4.5,5.7 4.6,5.8 0.1,-0.1 3,2.1 5.9,4.2 z"
           id="path107"
           inkscape:connector-curvature="0" /><path
           d="m 274.8,274.1 c -1.5,-1.5 -2.9,-3 -3.8,-4.3 -0.9,-1.2 -1.4,-2.2 -1.5,-2.2 0,-0.1 -0.8,-0.8 -1.8,-2 -1.1,-1.2 -2.2,-2.8 -3.3,-4.6 -1,-1.8 -1.9,-3.8 -2.6,-5.4 -0.6,-1.6 -1.2,-2.8 -1.9,-2.8 -0.6,0 -1.3,1.1 -1.8,3 -0.5,1.9 -0.5,4.6 -0.1,7.3 0.5,2.6 1.4,5.3 2.3,7.2 0.9,1.9 1.8,3.1 1.8,3.2 0.1,0.1 1.1,1.2 2.7,2.5 1.6,1.3 4,2.8 6.5,3.8 2.5,1 5.1,1.5 7.1,1.5 2,0 3.3,-0.5 3.4,-1.1 0.1,-0.7 -0.9,-1.5 -2.3,-2.4 -1.4,-1 -3.2,-2.3 -4.7,-3.7 z"
           id="path109"
           inkscape:connector-curvature="0" /><path
           d="m 689.5,267.5 c -0.6,1.4 -1.1,2.2 -1.2,2.3 0,0.1 -0.3,1.1 -0.8,2.6 -0.5,1.5 -1.4,3.4 -2.4,5.4 -2,4 -4.6,8 -3.6,9 0.9,0.9 5.1,-1.4 8.9,-4.8 1.9,-1.7 3.6,-3.7 4.8,-5.4 1.2,-1.7 1.8,-3 1.9,-3.1 0,-0.1 0.5,-1.5 0.8,-3.7 0.3,-2.1 0.4,-4.9 -0.1,-7.6 -0.5,-2.7 -1.7,-5.3 -3,-6.8 -1.3,-1.6 -2.5,-2.2 -3.1,-1.8 -0.6,0.4 -0.4,1.6 -0.3,3.3 0.1,1.6 0.1,3.7 -0.3,5.6 -0.4,1.8 -1,3.7 -1.6,5 z"
           id="path111"
           inkscape:connector-curvature="0" /><path
           d="m 273.8,695.2 c -1.8,0.3 -4,1.2 -6.1,2.5 -2.1,1.3 -4.1,2.8 -5.4,4.1 -1.4,1.3 -2.2,2.4 -2.3,2.4 0,0.1 -0.7,1.3 -1.4,3 -0.7,1.8 -1.4,4.2 -1.8,6.6 -0.3,2.4 -0.3,4.9 0.1,6.6 0.4,1.8 1,2.9 1.6,2.9 0.7,0 1.3,-1 2,-2.5 0.7,-1.4 1.6,-3.3 2.6,-5 2,-3.5 4.6,-6.3 4.6,-6.4 0.1,-0.1 1.7,-3.6 4.2,-6.7 1.2,-1.6 2.6,-3.1 3.6,-4.3 1.1,-1.2 1.8,-2.2 1.5,-2.8 -0.1,-0.6 -1.4,-0.7 -3.2,-0.4 z"
           id="path113"
           inkscape:connector-curvature="0" /><path
           d="m 685.8,703 c 0.2,0.2 3.7,1.6 6.2,4 1.3,1.2 2.3,2.5 2.9,3.7 0.6,1.2 0.8,2.3 1.5,2.6 0.6,0.2 1.7,-0.7 2.2,-2.7 0.6,-2 0.1,-4.9 -1,-7.3 -1.1,-2.4 -2.7,-4.5 -4.1,-5.9 -0.3,-0.4 -0.7,-0.7 -1,-1 -0.3,-0.3 -0.5,-0.5 -0.7,-0.7 -0.4,-0.4 -0.7,-0.6 -0.7,-0.6 -0.2,-0.1 -4.5,-2.4 -9.2,-3.4 -4.6,-1 -9.2,-0.7 -9.4,0.6 -0.2,1.3 3.6,3.2 6.9,5.5 3.3,2.5 6.2,5.1 6.4,5.2 z"
           id="path115"
           inkscape:connector-curvature="0" /><path
           d="m 465.4,308.2 c 0.1,-0.1 2.1,-2.6 3.7,-5.4 1.6,-2.8 2.7,-5.8 1.7,-6.7 -1,-0.8 -3.8,0.6 -6.4,2 -2.6,1.5 -5.1,3 -5.2,3 -0.1,0.1 -1.9,2.4 -3.6,4.8 -1.7,2.4 -3.5,5 -2.7,6.1 0.7,1.1 3.9,0.4 6.8,-0.9 2.9,-1.1 5.6,-2.8 5.7,-2.9 z"
           id="path117"
           inkscape:connector-curvature="0" /><path
           d="m 477.1,318.1 c 2.6,0 4.7,-8.6 4.7,-8.8 0,-0.2 -2.1,-8.7 -4.7,-8.7 -2.6,0 -4.7,8.5 -4.7,8.7 0,0.3 2.1,8.8 4.7,8.8 z"
           id="path119"
           inkscape:connector-curvature="0" /><path
           d="m 484.1,298.7 c 0,0 0,0 0,0 0,0 0,-0.1 0,0 0,-0.2 -0.1,-0.1 0,0 z"
           id="path121"
           inkscape:connector-curvature="0" /><path
           d="m 487.3,308.8 c 0.1,0.1 2.4,1 4.9,2 2.5,0.9 5.1,1.8 6,0.9 0.9,-0.9 -0.2,-3.6 -1.8,-6 -1.6,-2.4 -3.7,-4.5 -3.8,-4.6 -0.1,-0.1 -2.8,-1.3 -5.6,-1.9 -0.4,-0.1 -0.7,-0.2 -1.1,-0.2 l -0.5,-0.1 c -0.2,0 -0.3,0 -0.4,0 -0.3,0.1 -0.8,0 -1,-0.1 0,0.2 0,0.4 -0.2,0.5 -0.1,0.1 -0.3,0.2 -0.5,0.3 -0.2,0.1 -0.5,0.1 -0.8,0.2 -0.6,0.1 -1.2,0.5 -1.4,1.2 -0.1,0.8 0.3,1.6 1,2.4 l 0.4,0.5 0.3,0.4 0.6,0.8 c 2,1.8 3.8,3.6 3.9,3.7 z"
           id="path123"
           inkscape:connector-curvature="0" /><path
           d="m 463.4,681.1 c 0.1,0.1 2.1,0.9 4.3,1.8 2.2,0.9 4.6,1.8 5.6,1 1,-0.8 0.3,-3.5 -1,-5.9 -1.3,-2.4 -3.1,-4.4 -3.2,-4.5 -0.1,-0.1 -2.6,-1.3 -5.2,-1.8 -2.7,-0.6 -5.4,-0.5 -5.9,0.6 -0.5,1.2 1.1,3.2 2.5,5.1 1.4,1.9 2.8,3.7 2.9,3.7 z"
           id="path125"
           inkscape:connector-curvature="0" /><path
           d="m 480.1,681.9 c 2.5,-0.6 3.1,-7.7 3.1,-7.9 0,-0.2 -3.6,-6.4 -6.1,-5.9 -2.5,0.6 -3.1,7.7 -3.1,7.9 0.1,0.2 3.6,6.5 6.1,5.9 z"
           id="path127"
           inkscape:connector-curvature="0" /><path
           d="m 497.7,676.9 c 0.2,-0.2 6.9,-8.6 5.2,-10.6 -1.7,-2 -11.1,3.2 -11.3,3.4 -0.2,0.2 -6.9,8.6 -5.2,10.6 1.7,1.9 11.1,-3.3 11.3,-3.4 z"
           id="path129"
           inkscape:connector-curvature="0" /><path
           d="m 220.8,248.1 c -0.8,-1.4 -1.9,-3.3 -3.4,-4.9 -1.5,-1.7 -3.6,-2.8 -5.2,-3 -1.7,-0.3 -2.7,0.2 -2.7,0.4 0,0.2 1.1,0 2.4,0.5 1.4,0.5 3,1.6 4.2,3.2 1.2,1.6 2.1,3.4 2.7,4.8 0.7,1.4 1.1,2.4 1.1,2.5 0.1,0.2 2,3.8 3.5,7.7 1.5,3.8 2.6,7.8 2.9,7.7 0.3,-0.1 -0.2,-4.2 -1.3,-8.2 -1.1,-4.1 -2.8,-8 -2.9,-8.2 0.1,-0.1 -0.4,-1.1 -1.3,-2.5 z"
           id="path131"
           inkscape:connector-curvature="0" /><path
           d="m 231.9,226.3 c 0,-0.2 0.3,-6.4 2.8,-11.9 0.6,-1.4 1.3,-2.7 2,-3.9 0.8,-1.2 1.5,-2.3 2.2,-3.1 1.4,-1.7 2.6,-2.8 2.5,-2.9 -0.1,-0.1 -1.4,0.7 -3.1,2.3 -0.9,0.8 -1.7,1.8 -2.6,3 -0.9,1.2 -1.7,2.5 -2.4,3.9 -1.4,2.8 -2.4,5.9 -2.9,8.2 -0.5,2.4 -0.7,4 -0.7,4.2 0,0.1 -0.1,1.8 -0.1,4.2 0,2.4 0.3,5.6 0.8,8.6 1,6.1 2.5,12 2.8,12 0.4,-0.1 -0.6,-6.1 -1.1,-12.2 -0.3,-3 -0.4,-6.1 -0.3,-8.4 -0.1,-2.3 0.1,-3.9 0.1,-4 z"
           id="path133"
           inkscape:connector-curvature="0" /><path
           d="m 250.4,224.6 c -0.2,-0.3 -3.3,1.6 -5.8,4.2 -2.6,2.6 -4.5,5.8 -4.6,6 -0.1,0.1 -1.8,3.5 -2.6,7.1 -0.9,3.6 -0.8,7.2 -0.5,7.2 0.3,0 0.8,-3.5 2.1,-6.7 1.2,-3.3 3,-6.3 3.1,-6.4 0.1,-0.1 1.6,-3.3 3.8,-6 2,-2.9 4.7,-5.2 4.5,-5.4 z"
           id="path135"
           inkscape:connector-curvature="0" /><path
           d="m 364.5,286.4 c -5.8,2.9 -13.7,6.7 -21.7,10.1 -8,3.5 -16.3,6.5 -22.7,8.2 -6.4,1.8 -11,2.5 -11.4,2.6 -0.4,0.1 -4.9,1 -11.5,1.4 -6.6,0.4 -15.4,-0.2 -23.7,-2.8 -4.1,-1.3 -8.1,-3 -11.6,-5 -3.5,-2 -6.6,-4.2 -9,-6.4 -4.8,-4.3 -7.1,-8.1 -7.3,-7.9 -0.1,0 0.5,1 1.5,2.6 0.5,0.8 1.3,1.7 2.1,2.7 0.9,1 1.9,2.1 3,3.3 2.4,2.3 5.4,4.7 8.9,6.9 3.5,2.2 7.6,4 11.8,5.4 8.4,2.9 17.5,3.7 24.3,3.4 6.8,-0.3 11.4,-1.2 11.8,-1.2 0.4,-0.1 5,-0.8 11.5,-2.8 6.5,-1.9 14.8,-5.1 22.8,-8.8 8,-3.7 15.7,-7.7 21.4,-10.8 2.9,-1.6 5.2,-2.9 6.8,-3.9 1.6,-1 2.5,-1.6 2.5,-1.7 0,-0.1 -1,0.4 -2.7,1.2 -1.4,0.8 -3.9,2 -6.8,3.5 z"
           id="path137"
           inkscape:connector-curvature="0" /><path
           d="m 181,481.5 c 2.1,-0.2 3.8,-0.5 5,-0.8 1.2,-0.3 1.9,-0.5 1.8,-0.6 0,-0.2 -2.8,0.4 -7,0.5 -4.1,0.1 -9.8,-0.3 -14.9,-2.3 -2.6,-1 -5,-2.3 -7.1,-3.8 -2.1,-1.5 -3.8,-3.3 -5.1,-4.9 -2.6,-3.3 -3.5,-6 -3.6,-6.3 0,-0.1 -0.4,-0.8 -0.7,-2 -0.4,-1.2 -0.8,-2.9 -0.9,-4.9 -0.1,-2 0,-4.4 0.8,-6.9 0.7,-2.5 1.8,-5 3.3,-7.3 2.9,-4.7 7.1,-8.5 10.6,-10.7 3.5,-2.2 6.2,-3 6.2,-3.2 0,-0.1 -0.7,0 -1.9,0.4 -1.2,0.3 -2.9,1 -4.7,2 -3.8,2 -8.2,5.8 -11.5,10.6 -1.6,2.4 -3,5 -3.8,7.7 -0.9,2.6 -1.1,5.3 -1.1,7.6 0.1,2.3 0.5,4.2 0.9,5.5 0.4,1.3 0.7,2.1 0.8,2.2 0.1,0.2 1.2,3.2 4.1,6.7 1.4,1.7 3.3,3.6 5.6,5.1 2.3,1.6 4.9,2.9 7.7,3.8 5.5,1.8 11.3,2 15.5,1.6 z"
           id="path139"
           inkscape:connector-curvature="0" /><path
           d="m 224,421.5 c -0.2,7.1 -2.2,11.5 -2,11.6 0,0 0.2,-0.2 0.4,-0.8 0.2,-0.5 0.6,-1.3 0.8,-2.3 0.7,-2 1.4,-4.9 1.6,-8.5 0.3,-3.6 0.1,-7.8 -0.7,-12.3 -0.8,-4.5 -2.2,-9.1 -4,-13.6 -3.7,-9 -8.9,-17.2 -12.7,-23.4 -1.9,-3.1 -3.5,-5.8 -4.7,-7.7 -1.1,-2 -1.7,-3.1 -1.9,-3.3 -0.2,-0.4 -2.7,-4.8 -6.3,-11.1 -1.7,-3.2 -3.6,-7 -4.6,-11.2 -0.5,-2.1 -0.6,-4.4 -0.4,-6.6 0.2,-2.3 0.9,-4.5 1.9,-6.6 2,-4.2 5.2,-7.7 9,-9.9 1.9,-1.1 3.9,-1.8 5.8,-2.2 1.9,-0.4 3.8,-0.5 5.6,-0.2 3.5,0.4 6.1,1.8 7.7,3.1 1.5,1.3 2.1,2.4 2.2,2.3 0,0 -0.1,-0.3 -0.4,-0.8 -0.3,-0.5 -0.8,-1.2 -1.5,-1.9 -1.5,-1.5 -4.2,-3.1 -7.9,-3.7 -1.8,-0.3 -3.8,-0.3 -5.9,0 -2.1,0.4 -4.2,1.1 -6.2,2.2 -4.1,2.2 -7.6,5.9 -9.8,10.3 -1.1,2.2 -1.9,4.6 -2.2,7.1 -0.3,2.4 -0.2,4.9 0.3,7.2 1,4.6 3,8.5 4.6,11.8 3.6,6.5 6,10.9 6.2,11.3 0.1,0.2 0.8,1.4 1.9,3.3 1.2,1.9 2.8,4.6 4.8,7.7 3.9,6.2 9.2,14.2 13,22.9 1.9,4.3 3.4,8.8 4.3,13.2 0.9,4.5 1.2,8.6 1.1,12.1 z"
           id="path141"
           inkscape:connector-curvature="0" /><path
           d="m 731.5,259.3 c 1.5,-3.8 3.4,-7.5 3.5,-7.7 0,-0.1 0.5,-1.1 1.1,-2.5 0.7,-1.4 1.6,-3.3 2.7,-4.8 1.2,-1.6 2.8,-2.7 4.2,-3.2 1.4,-0.5 2.4,-0.3 2.4,-0.5 0,-0.1 -1,-0.6 -2.7,-0.4 -1.6,0.2 -3.7,1.3 -5.2,3 -1.5,1.6 -2.6,3.5 -3.4,4.9 -0.8,1.4 -1.3,2.4 -1.4,2.5 -0.1,0.2 -1.8,4.1 -2.9,8.2 -1.2,4.1 -1.7,8.2 -1.3,8.2 0.4,0.1 1.4,-3.9 3,-7.7 z"
           id="path143"
           inkscape:connector-curvature="0" /><path
           d="m 721.9,250.9 c 0.3,0.1 1.8,-5.8 2.8,-12 0.5,-3.1 0.7,-6.2 0.8,-8.6 0,-2.4 -0.1,-4.1 -0.1,-4.2 0,-0.1 -0.2,-1.8 -0.7,-4.2 -0.5,-2.4 -1.5,-5.4 -2.9,-8.2 -0.7,-1.4 -1.6,-2.7 -2.4,-3.9 -0.9,-1.2 -1.8,-2.2 -2.6,-3 -1.7,-1.6 -3,-2.4 -3.1,-2.3 -0.1,0.1 1,1.2 2.5,2.9 0.7,0.9 1.5,1.9 2.2,3.1 0.7,1.2 1.4,2.5 2,3.9 2.4,5.5 2.7,11.7 2.8,11.9 0,0.1 0.2,1.7 0.3,4 0.1,2.3 0,5.4 -0.3,8.4 -0.6,6.1 -1.6,12.2 -1.3,12.2 z"
           id="path145"
           inkscape:connector-curvature="0" /><path
           d="m 710.4,228.8 c -2.6,-2.6 -5.7,-4.5 -5.8,-4.2 -0.2,0.3 2.5,2.6 4.6,5.3 2.2,2.7 3.7,5.9 3.8,6 0.1,0.1 1.9,3.1 3.1,6.4 1.2,3.3 1.7,6.7 2.1,6.7 0.3,0 0.4,-3.6 -0.5,-7.2 -0.8,-3.6 -2.5,-6.9 -2.6,-7.1 -0.1,-0.1 -2.1,-3.3 -4.7,-5.9 z"
           id="path147"
           inkscape:connector-curvature="0" /><path
           d="m 590,287.2 c 5.7,3.2 13.5,7.2 21.4,10.8 8,3.7 16.3,6.9 22.8,8.8 6.5,1.9 11.1,2.7 11.5,2.8 0.4,0.1 5,1 11.8,1.2 6.8,0.3 15.8,-0.6 24.3,-3.4 4.2,-1.4 8.2,-3.3 11.8,-5.4 3.5,-2.2 6.6,-4.5 8.9,-6.9 1.2,-1.2 2.2,-2.3 3,-3.3 0.8,-1.1 1.6,-1.9 2.1,-2.7 1,-1.6 1.6,-2.5 1.5,-2.6 -0.2,-0.2 -2.5,3.6 -7.3,7.9 -2.4,2.2 -5.5,4.4 -9,6.4 -3.5,2 -7.5,3.7 -11.6,5 -8.3,2.6 -17.1,3.2 -23.7,2.8 -6.6,-0.4 -11.1,-1.3 -11.5,-1.4 -0.4,-0.1 -4.9,-0.8 -11.4,-2.6 -6.4,-1.7 -14.7,-4.7 -22.7,-8.2 -8,-3.4 -15.9,-7.2 -21.7,-10.1 -2.9,-1.5 -5.3,-2.7 -7,-3.5 -1.7,-0.8 -2.7,-1.3 -2.7,-1.2 0,0.1 0.9,0.7 2.5,1.7 1.8,0.9 4.2,2.3 7,3.9 z"
           id="path149"
           inkscape:connector-curvature="0" /><path
           d="m 789.5,479.8 c 2.7,-0.9 5.4,-2.2 7.7,-3.8 2.3,-1.6 4.2,-3.4 5.6,-5.1 2.9,-3.5 4,-6.5 4.1,-6.7 0,-0.1 0.4,-0.9 0.8,-2.2 0.4,-1.3 0.8,-3.2 0.9,-5.5 0.1,-2.3 -0.2,-4.9 -1.1,-7.6 -0.8,-2.7 -2.2,-5.3 -3.8,-7.7 -3.2,-4.8 -7.7,-8.6 -11.5,-10.6 -1.9,-1 -3.5,-1.6 -4.7,-2 -1.2,-0.4 -1.9,-0.4 -1.9,-0.4 -0.1,0.2 2.7,0.9 6.2,3.2 3.5,2.2 7.6,6 10.6,10.7 1.5,2.3 2.6,4.9 3.3,7.3 0.7,2.5 0.9,4.9 0.8,6.9 -0.1,2.1 -0.5,3.8 -0.9,4.9 -0.3,1.2 -0.7,1.9 -0.7,2 -0.1,0.2 -1.1,3 -3.6,6.3 -1.3,1.6 -3,3.4 -5.1,4.9 -2.1,1.5 -4.5,2.9 -7.1,3.8 -5.2,2 -10.8,2.4 -14.9,2.3 -4.2,-0.1 -6.9,-0.7 -7,-0.5 0,0.1 0.7,0.3 1.8,0.6 1.2,0.3 2.9,0.6 5,0.8 4.2,0.5 10,0.3 15.5,-1.6 z"
           id="path151"
           inkscape:connector-curvature="0" /><path
           d="m 732.1,409.6 c 0.9,-4.3 2.3,-8.8 4.3,-13.2 3.8,-8.7 9.1,-16.7 13,-22.9 2,-3.1 3.6,-5.7 4.8,-7.7 1.1,-2 1.8,-3.2 1.9,-3.3 0.2,-0.4 2.7,-4.8 6.2,-11.3 1.7,-3.3 3.6,-7.2 4.6,-11.8 0.5,-2.3 0.6,-4.8 0.3,-7.2 -0.3,-2.5 -1.1,-4.9 -2.2,-7.1 -2.2,-4.4 -5.8,-8.1 -9.8,-10.3 -2,-1.1 -4.2,-1.8 -6.2,-2.2 -2.1,-0.3 -4.1,-0.3 -5.9,0 -3.6,0.5 -6.4,2.2 -7.9,3.7 -0.7,0.8 -1.2,1.4 -1.5,1.9 -0.3,0.5 -0.4,0.8 -0.4,0.8 0.1,0.1 0.7,-1 2.2,-2.3 1.5,-1.3 4.2,-2.7 7.7,-3.1 1.7,-0.2 3.6,-0.1 5.6,0.2 1.9,0.4 3.9,1.2 5.8,2.2 3.8,2.2 7,5.7 9,9.9 1,2.1 1.6,4.3 1.9,6.6 0.2,2.2 0.1,4.5 -0.4,6.6 -1,4.3 -2.9,8 -4.6,11.2 -3.6,6.4 -6.1,10.7 -6.3,11.1 -0.1,0.2 -0.8,1.4 -1.9,3.3 -1.1,1.9 -2.7,4.6 -4.7,7.7 -3.8,6.3 -9,14.5 -12.7,23.4 -1.8,4.5 -3.2,9.1 -4,13.6 -0.8,4.4 -1,8.7 -0.7,12.3 0.3,3.6 1,6.5 1.6,8.5 0.3,1 0.6,1.8 0.8,2.3 0.2,0.5 0.4,0.8 0.4,0.8 0.3,-0.1 -1.7,-4.5 -2,-11.6 -0.1,-3.7 0.2,-7.8 1.1,-12.1 z"
           id="path153"
           inkscape:connector-curvature="0" /><path
           d="m 222.8,718.4 c -1.5,3.8 -3.4,7.5 -3.5,7.7 0,0.1 -0.5,1.1 -1.1,2.5 -0.7,1.4 -1.6,3.3 -2.7,4.8 -1.2,1.6 -2.8,2.7 -4.2,3.2 -1.4,0.5 -2.4,0.3 -2.4,0.5 0,0.1 1,0.6 2.7,0.4 1.6,-0.2 3.7,-1.3 5.2,-3 1.5,-1.6 2.6,-3.5 3.4,-4.9 0.8,-1.4 1.3,-2.4 1.3,-2.5 0.1,-0.2 1.8,-4.1 2.9,-8.2 1.2,-4.1 1.7,-8.2 1.3,-8.2 -0.3,0 -1.4,3.9 -2.9,7.7 z"
           id="path155"
           inkscape:connector-curvature="0" /><path
           d="m 232.3,726.8 c -0.3,-0.1 -1.8,5.8 -2.8,12 -0.5,3.1 -0.7,6.2 -0.8,8.6 0,2.4 0.1,4.1 0.1,4.2 0,0.1 0.2,1.8 0.7,4.2 0.5,2.4 1.5,5.4 2.9,8.2 0.7,1.4 1.6,2.7 2.4,3.9 0.9,1.2 1.8,2.2 2.6,3 1.7,1.6 3,2.4 3.1,2.3 0.1,-0.1 -1,-1.2 -2.5,-2.9 -0.7,-0.9 -1.5,-1.9 -2.2,-3.1 -0.7,-1.2 -1.4,-2.5 -2,-3.9 -2.4,-5.5 -2.7,-11.7 -2.8,-11.9 0,-0.1 -0.2,-1.7 -0.3,-4 -0.1,-2.3 0,-5.4 0.3,-8.4 0.7,-6.1 1.6,-12.1 1.3,-12.2 z"
           id="path157"
           inkscape:connector-curvature="0" /><path
           d="m 239.2,743 c 0.1,0.1 2,3.4 4.6,6 2.6,2.6 5.7,4.5 5.8,4.2 0.2,-0.3 -2.5,-2.6 -4.6,-5.3 -2.2,-2.7 -3.7,-5.9 -3.8,-6 -0.1,-0.1 -1.9,-3.1 -3.1,-6.4 -1.2,-3.3 -1.7,-6.7 -2.1,-6.7 -0.3,0 -0.4,3.6 0.5,7.2 0.9,3.5 2.6,6.8 2.7,7 z"
           id="path159"
           inkscape:connector-curvature="0" /><path
           d="m 364.2,690.6 c -5.7,-3.2 -13.5,-7.2 -21.4,-10.8 -8,-3.7 -16.3,-6.9 -22.8,-8.8 -6.5,-1.9 -11.1,-2.7 -11.5,-2.8 -0.4,-0.1 -5,-1 -11.8,-1.2 -6.8,-0.3 -15.8,0.6 -24.3,3.4 -4.2,1.4 -8.2,3.3 -11.8,5.4 -3.5,2.2 -6.6,4.5 -8.9,6.9 -1.2,1.2 -2.2,2.3 -3,3.3 -0.8,1.1 -1.6,1.9 -2.1,2.7 -1,1.6 -1.6,2.5 -1.5,2.6 0.2,0.2 2.5,-3.6 7.3,-7.9 2.4,-2.2 5.5,-4.4 9,-6.4 3.5,-2 7.5,-3.7 11.6,-5 8.3,-2.6 17.1,-3.2 23.7,-2.8 6.6,0.4 11.1,1.3 11.5,1.4 0.4,0.1 4.9,0.8 11.4,2.6 6.4,1.7 14.7,4.7 22.7,8.2 8,3.4 15.9,7.2 21.7,10.1 2.9,1.5 5.3,2.7 7,3.5 1.7,0.8 2.7,1.3 2.7,1.2 0,-0.1 -0.9,-0.7 -2.5,-1.7 -1.8,-1 -4.1,-2.3 -7,-3.9 z"
           id="path161"
           inkscape:connector-curvature="0" /><path
           d="m 180.2,496.3 c -4.2,-0.4 -10,-0.2 -15.5,1.6 -2.7,0.9 -5.4,2.2 -7.7,3.8 -2.3,1.6 -4.2,3.4 -5.6,5.1 -2.9,3.5 -4,6.5 -4.1,6.7 0,0.1 -0.4,0.9 -0.8,2.2 -0.4,1.3 -0.8,3.2 -0.9,5.5 -0.1,2.3 0.2,4.9 1.1,7.6 0.8,2.7 2.2,5.3 3.8,7.7 3.2,4.8 7.7,8.6 11.5,10.6 1.9,1 3.5,1.6 4.7,2 1.2,0.4 1.9,0.4 1.9,0.4 0.1,-0.2 -2.7,-0.9 -6.2,-3.2 -3.5,-2.2 -7.6,-6 -10.6,-10.7 -1.5,-2.3 -2.6,-4.9 -3.3,-7.3 -0.7,-2.5 -0.9,-4.9 -0.8,-6.9 0.1,-2.1 0.5,-3.8 0.9,-4.9 0.3,-1.2 0.7,-1.9 0.7,-2 0.1,-0.2 1.1,-3 3.6,-6.3 1.3,-1.6 3,-3.4 5.1,-4.9 2.1,-1.5 4.5,-2.9 7.1,-3.8 5.2,-2 10.8,-2.4 14.9,-2.3 4.2,0.1 6.9,0.7 7,0.5 0,-0.1 -0.7,-0.3 -1.8,-0.6 -1.1,-0.3 -2.9,-0.6 -5,-0.8 z"
           id="path163"
           inkscape:connector-curvature="0" /><path
           d="m 199.1,658.5 c 2,1.1 4.2,1.8 6.2,2.2 2.1,0.3 4.1,0.3 5.9,0 3.6,-0.5 6.4,-2.2 7.9,-3.7 0.7,-0.8 1.2,-1.4 1.5,-1.9 0.3,-0.5 0.4,-0.8 0.4,-0.8 -0.1,-0.1 -0.7,1 -2.2,2.3 -1.5,1.3 -4.2,2.7 -7.7,3.1 -1.7,0.2 -3.6,0.1 -5.6,-0.2 -1.9,-0.4 -3.9,-1.2 -5.8,-2.2 -3.8,-2.2 -7,-5.7 -9,-9.9 -1,-2.1 -1.6,-4.3 -1.9,-6.6 -0.2,-2.2 -0.1,-4.5 0.4,-6.6 1,-4.3 2.9,-8 4.6,-11.2 3.6,-6.4 6.1,-10.7 6.3,-11.1 0.1,-0.2 0.8,-1.4 1.9,-3.3 1.1,-1.9 2.7,-4.6 4.7,-7.7 3.8,-6.3 9,-14.5 12.7,-23.4 1.8,-4.5 3.2,-9.1 4,-13.6 0.8,-4.4 1,-8.7 0.7,-12.3 -0.3,-3.6 -1,-6.5 -1.6,-8.5 -0.3,-1 -0.6,-1.8 -0.9,-2.3 -0.2,-0.5 -0.4,-0.8 -0.4,-0.8 -0.3,0.1 1.7,4.5 2,11.6 0.1,3.5 -0.1,7.7 -1.1,12 -0.9,4.3 -2.3,8.8 -4.3,13.2 -3.8,8.7 -9.1,16.7 -13,22.9 -2,3.1 -3.6,5.7 -4.8,7.7 -1.1,2 -1.8,3.2 -1.9,3.3 -0.2,0.4 -2.7,4.8 -6.2,11.3 -1.7,3.3 -3.6,7.2 -4.6,11.8 -0.5,2.3 -0.6,4.8 -0.3,7.2 0.3,2.5 1.1,4.9 2.2,7.1 2.2,4.5 5.8,8.2 9.9,10.4 z"
           id="path165"
           inkscape:connector-curvature="0" /><path
           d="m 733.4,729.7 c 0.8,1.4 1.9,3.3 3.4,4.9 1.5,1.6 3.6,2.8 5.2,3 1.7,0.3 2.7,-0.2 2.7,-0.4 0,-0.2 -1.1,0 -2.4,-0.5 -1.4,-0.5 -3,-1.6 -4.2,-3.2 -1.2,-1.6 -2.1,-3.4 -2.7,-4.8 -0.7,-1.4 -1.1,-2.4 -1.1,-2.5 -0.1,-0.2 -2,-3.8 -3.5,-7.7 -1.5,-3.8 -2.6,-7.8 -2.9,-7.7 -0.3,0.1 0.2,4.2 1.3,8.2 1.1,4.1 2.8,8 2.9,8.2 0,0 0.5,1 1.3,2.5 z"
           id="path167"
           inkscape:connector-curvature="0" /><path
           d="m 722.3,751.4 c 0,0.2 -0.3,6.4 -2.8,11.9 -0.6,1.4 -1.3,2.7 -2,3.9 -0.8,1.2 -1.5,2.3 -2.2,3.1 -1.4,1.7 -2.6,2.8 -2.5,2.9 0.1,0.1 1.4,-0.7 3.1,-2.3 0.9,-0.8 1.7,-1.8 2.6,-3 0.9,-1.2 1.7,-2.5 2.4,-3.9 1.4,-2.8 2.4,-5.9 2.9,-8.2 0.5,-2.4 0.7,-4 0.7,-4.2 0,-0.1 0.1,-1.8 0.1,-4.2 0,-2.4 -0.3,-5.6 -0.8,-8.6 -1,-6.1 -2.5,-12 -2.8,-12 -0.4,0.1 0.6,6.1 1.1,12.2 0.3,3 0.4,6.1 0.3,8.4 0.1,2.3 -0.1,3.9 -0.1,4 z"
           id="path169"
           inkscape:connector-curvature="0" /><path
           d="m 717.4,728.7 c -0.3,0 -0.8,3.5 -2.1,6.7 -1.2,3.3 -3,6.3 -3.1,6.4 -0.1,0.1 -1.6,3.3 -3.8,6 -2.1,2.8 -4.8,5.1 -4.6,5.3 0.2,0.3 3.3,-1.6 5.8,-4.2 2.6,-2.6 4.5,-5.8 4.6,-6 0.1,-0.1 1.8,-3.5 2.6,-7.1 1,-3.5 0.9,-7.1 0.6,-7.1 z"
           id="path171"
           inkscape:connector-curvature="0" /><path
           d="m 589.7,691.4 c 5.8,-2.9 13.7,-6.7 21.7,-10.1 8,-3.5 16.3,-6.5 22.7,-8.2 6.4,-1.8 11,-2.5 11.4,-2.6 0.4,-0.1 4.9,-1 11.5,-1.4 6.6,-0.4 15.4,0.2 23.7,2.8 4.1,1.3 8.1,3 11.6,5 3.5,2 6.6,4.2 9,6.4 4.8,4.3 7.1,8.1 7.3,7.9 0.1,0 -0.5,-1 -1.5,-2.6 -0.5,-0.8 -1.3,-1.7 -2.1,-2.7 -0.9,-1 -1.9,-2.1 -3,-3.3 -2.4,-2.3 -5.4,-4.7 -8.9,-6.9 -3.5,-2.2 -7.6,-4 -11.8,-5.4 -8.4,-2.9 -17.5,-3.7 -24.3,-3.4 -6.8,0.3 -11.4,1.2 -11.8,1.2 -0.4,0.1 -5,0.8 -11.5,2.8 -6.5,1.9 -14.8,5.1 -22.8,8.8 -8,3.7 -15.7,7.7 -21.4,10.8 -2.9,1.6 -5.2,2.9 -6.8,3.9 -1.6,1 -2.5,1.6 -2.5,1.7 0,0.1 1,-0.4 2.7,-1.2 1.5,-0.8 3.9,-2.1 6.8,-3.5 z"
           id="path173"
           inkscape:connector-curvature="0" /><path
           d="m 796.4,501.7 c -2.3,-1.6 -4.9,-2.9 -7.7,-3.8 -5.5,-1.9 -11.3,-2.1 -15.5,-1.6 -2.1,0.2 -3.8,0.5 -5,0.8 -1.2,0.3 -1.9,0.5 -1.8,0.6 0,0.2 2.8,-0.4 7,-0.5 4.1,-0.1 9.8,0.3 14.9,2.3 2.6,1 5,2.3 7.1,3.8 2.1,1.5 3.8,3.3 5.1,4.9 2.6,3.3 3.5,6 3.6,6.3 0,0.1 0.4,0.8 0.7,2 0.4,1.2 0.8,2.9 0.9,4.9 0.1,2 0,4.4 -0.8,6.9 -0.7,2.5 -1.8,5 -3.3,7.3 -2.9,4.7 -7.1,8.5 -10.6,10.7 -3.5,2.2 -6.2,3 -6.2,3.2 0,0.1 0.7,0 1.9,-0.4 1.2,-0.3 2.9,-1 4.7,-2 3.8,-2 8.3,-5.8 11.5,-10.6 1.6,-2.4 3,-5 3.8,-7.7 0.9,-2.6 1.1,-5.3 1.1,-7.6 -0.1,-2.3 -0.5,-4.2 -0.9,-5.5 -0.4,-1.3 -0.7,-2.1 -0.8,-2.2 -0.1,-0.2 -1.2,-3.2 -4.1,-6.7 -1.4,-1.7 -3.3,-3.5 -5.6,-5.1 z"
           id="path175"
           inkscape:connector-curvature="0" /><path
           d="m 729.4,565.3 c -0.9,-4.3 -1.2,-8.5 -1.1,-12 0.2,-7.1 2.2,-11.5 2,-11.6 0,0 -0.2,0.2 -0.4,0.8 -0.2,0.5 -0.6,1.3 -0.8,2.3 -0.7,2 -1.4,4.9 -1.6,8.5 -0.3,3.6 -0.1,7.8 0.7,12.3 0.8,4.5 2.2,9.1 4,13.6 3.7,9 8.9,17.2 12.7,23.4 1.9,3.1 3.5,5.8 4.7,7.7 1.1,2 1.7,3.1 1.9,3.3 0.2,0.4 2.7,4.8 6.3,11.1 1.7,3.2 3.6,7 4.6,11.2 0.5,2.1 0.6,4.4 0.4,6.6 -0.2,2.2 -0.9,4.5 -1.9,6.6 -2,4.2 -5.2,7.7 -9,9.9 -1.9,1.1 -3.9,1.8 -5.8,2.2 -1.9,0.4 -3.8,0.5 -5.6,0.2 -3.5,-0.4 -6.1,-1.8 -7.7,-3.1 -1.5,-1.3 -2.1,-2.4 -2.2,-2.3 0,0 0.1,0.3 0.4,0.8 0.3,0.5 0.8,1.2 1.5,1.9 1.5,1.5 4.2,3.1 7.9,3.7 1.8,0.3 3.8,0.3 5.9,0 2.1,-0.4 4.2,-1.1 6.2,-2.2 4.1,-2.2 7.6,-5.9 9.8,-10.3 1.1,-2.2 1.9,-4.6 2.2,-7.1 0.3,-2.4 0.2,-4.9 -0.3,-7.2 -1,-4.6 -3,-8.5 -4.6,-11.8 -3.6,-6.5 -6,-10.9 -6.2,-11.3 -0.1,-0.2 -0.8,-1.4 -1.9,-3.3 -1.2,-1.9 -2.8,-4.6 -4.8,-7.7 -3.9,-6.2 -9.2,-14.2 -13,-22.9 -2,-4.4 -3.5,-8.9 -4.3,-13.3 z"
           id="path177"
           inkscape:connector-curvature="0" /></g></g></switch></svg>