<?xml version="1.0" encoding="UTF-8" standalone="no"?>
<svg
   xmlns:dc="http://purl.org/dc/elements/1.1/"
   xmlns:cc="http://creativecommons.org/ns#"
   xmlns:rdf="http://www.w3.org/1999/02/22-rdf-syntax-ns#"
   xmlns:svg="http://www.w3.org/2000/svg"
   xmlns="http://www.w3.org/2000/svg"
   xmlns:sodipodi="http://sodipodi.sourceforge.net/DTD/sodipodi-0.dtd"
   xmlns:inkscape="http://www.inkscape.org/namespaces/inkscape"
   version="1.1"
   id="Layer_1"
   x="0px"
   y="0px"
   viewBox="0 0 1000 1000"
   width="100%"
   height="100%"
   style="enable-background:new 0 0 1000 1000;"
   xml:space="preserve"
  ><style
     type="text/css"
     id="style3">
	.noFillSVG{fill:none;}
</style><switch
     id="switch5"
     transform="translate(-14.308355,14.75)"><g
       id="g7"><g
         id="g9"><path
           class="noFillSVG"
           d="m 730.3,649.1 c 4.1,-0.9 8.3,-1.5 12.5,-1.8 l 0,-324.2 c -4.3,-0.4 -8.5,-1 -12.5,-1.8 l 0,327.8 z"
           id="path11"
           inkscape:connector-curvature="0"
           style="fill:none" /><path
           class="noFillSVG"
           d="m 296.4,321.6 c -4.1,0.8 -8.3,1.3 -12.5,1.6 l 0,323.9 c 4.2,0.3 8.5,0.8 12.5,1.6 l 0,-327.1 z"
           id="path13"
           inkscape:connector-curvature="0"
           style="fill:none" /><path
           class="noFillSVG"
           d="m 682.8,269.3 -336.8,0 c -0.4,3.8 -1,7.7 -1.7,11.5 l 340.1,0 c -0.7,-3.9 -1.2,-7.7 -1.6,-11.5 z"
           id="path15"
           inkscape:connector-curvature="0"
           style="fill:none" /><path
           class="noFillSVG"
           d="m 343.1,683.4 c 0.9,3.8 1.6,7.6 2.1,11.5 l 338.4,0 c 0.6,-3.8 1.3,-7.7 2.1,-11.5 l -342.6,0 z"
           id="path17"
           inkscape:connector-curvature="0"
           style="fill:none" /><path
           class="noFillSVG"
           d="m 789,660.9 c -12.1,-9.6 -28.1,-12.4 -43.7,-11.4 -0.8,0.1 -1.6,0.1 -2.5,0.2 -4.3,0.4 -8.5,1 -12.5,1.9 -0.8,0.2 -1.6,0.4 -2.5,0.6 l 0,-2.5 0,-329 0,-2.5 c 0.8,0.2 1.6,0.4 2.5,0.5 4.1,0.9 8.3,1.5 12.5,1.9 0.8,0.1 1.6,0.1 2.5,0.2 6.3,0.4 12.6,0.1 18.7,-0.9 19.8,-3.3 40.2,-17.6 39.7,-39.7 -0.4,-18.4 -19.9,-32.1 -37.4,-27.3 -1.4,0.4 -2.1,-1.5 -0.9,-2.2 9.6,-6.1 19.7,-12.5 25.2,-22.8 5.1,-9.5 4.8,-22.2 -4.9,-28.7 -10.5,-7 -21.4,2.4 -28.2,10.2 -6.9,7.9 -11.6,17.6 -13.8,27.9 -0.3,1.3 -2,1 -2.4,0 -3.9,-9.5 -8.1,-19.7 -16.8,-25.9 -7.2,-5.2 -16.1,-6 -23.7,-1.3 -7.9,4.8 -12.3,13.3 -14.3,22.1 -2.6,11.2 -2.9,23.1 -1.7,34.8 0.1,0.8 0.2,1.6 0.3,2.5 0.5,3.9 1.1,7.7 1.8,11.5 0.2,0.8 0.3,1.6 0.5,2.5 l -2.5,0 -341,0 -2.5,0 c 0.2,-0.8 0.3,-1.6 0.5,-2.5 0.7,-3.8 1.3,-7.6 1.7,-11.5 0.1,-0.8 0.2,-1.6 0.2,-2.5 0.3,-3.4 0.5,-6.9 0.5,-10.3 0.2,-16.9 -1.3,-40.9 -19.7,-48.3 -8.3,-3.3 -17.1,-0.4 -23.4,5.5 -6.7,6.3 -10.3,15.1 -13.7,23.5 -0.4,1 -2.1,1.3 -2.4,0 -2.3,-10.4 -7.1,-20.2 -14.2,-28.2 -6.8,-7.7 -17.5,-16.7 -27.8,-9.9 -9.9,6.6 -9.9,19.6 -4.7,29.2 5.5,10.1 15.5,16.4 25,22.3 1.2,0.7 0.4,2.6 -0.9,2.2 -9.8,-2.7 -20.4,0.4 -27.9,7.1 -15.6,14.1 -9.8,37.4 5.3,49.5 11.6,9.2 26.7,12.1 41.6,11.5 0.8,0 1.6,-0.1 2.5,-0.1 4.2,-0.3 8.5,-0.9 12.5,-1.7 0.8,-0.2 1.6,-0.3 2.5,-0.5 l 0,2.5 0,328 0,2.5 c -0.8,-0.2 -1.6,-0.3 -2.5,-0.5 -4.1,-0.8 -8.3,-1.3 -12.5,-1.6 -0.8,-0.1 -1.6,-0.1 -2.5,-0.1 -5.6,-0.2 -11.2,0.1 -16.7,1 -19.8,3.3 -40.2,17.6 -39.7,39.7 0.4,18.4 19.9,32.1 37.4,27.3 1.4,-0.4 2.1,1.5 0.9,2.2 -9.6,6.1 -19.7,12.5 -25.2,22.8 -5.1,9.5 -4.8,22.2 4.9,28.7 10.5,7 21.4,-2.4 28.2,-10.2 6.9,-7.9 11.6,-17.6 13.8,-27.9 0.3,-1.3 2,-1 2.4,0 3.9,9.5 8.1,19.7 16.8,25.9 7.2,5.2 16.1,6 23.7,1.3 7.9,-4.8 12.3,-13.3 14.3,-22.1 3,-13.1 2.9,-27.3 0.9,-41 -0.1,-0.8 -0.2,-1.6 -0.4,-2.5 -0.6,-3.9 -1.4,-7.7 -2.3,-11.5 -0.2,-0.8 -0.4,-1.6 -0.6,-2.5 l 2.5,0 343.8,0 2.5,0 c -0.2,0.8 -0.4,1.6 -0.6,2.5 -0.9,3.8 -1.6,7.6 -2.2,11.5 -0.1,0.8 -0.2,1.6 -0.4,2.5 -0.7,5.5 -1.1,10.9 -1.2,16.5 -0.2,16.9 1.3,40.9 19.7,48.3 8.3,3.3 17.1,0.4 23.4,-5.5 6.7,-6.3 10.3,-15.1 13.7,-23.5 0.4,-1 2.1,-1.3 2.4,0 2.3,10.4 7.1,20.2 14.2,28.2 6.8,7.7 17.5,16.7 27.8,9.9 9.9,-6.6 9.9,-19.6 4.7,-29.2 -5.5,-10.1 -15.5,-16.4 -25,-22.3 -1.2,-0.7 -0.4,-2.6 0.9,-2.2 9.8,2.7 20.4,-0.4 27.9,-7.1 15.9,-14.2 10.1,-37.5 -5,-49.5 z M 771,219 c 0.1,-0.1 5.5,-3 6.7,-1.7 1.2,1.3 -2.2,6.4 -2.3,6.5 -0.1,0.1 -5.5,3 -6.7,1.7 -1.2,-1.3 2.2,-6.4 2.3,-6.5 z m -509.8,8.5 c -1.4,1.2 -7.8,-4.2 -7.9,-4.4 -0.1,-0.1 -4.3,-7.4 -2.9,-8.6 1.4,-1.2 7.8,4.2 7.9,4.4 0.1,0.2 4.3,7.5 2.9,8.6 z M 259.7,752 c -0.1,0.1 -4.8,4.2 -6.3,3.2 -1.5,-1 0.8,-6.9 0.9,-7 0.1,-0.1 4.8,-4.2 6.3,-3.2 1.5,1.1 -0.8,6.9 -0.9,7 z m 73.2,-49.9 c -0.1,3.8 -0.2,8.1 -1,12.6 -0.4,2.3 -1,4.6 -1.9,6.9 -0.9,2.3 -2.1,4.6 -3.9,6.7 -0.8,1 -1.8,2 -2.9,2.8 -1.1,0.9 -2.3,1.6 -3.5,2.2 -1.2,0.6 -2.5,1.1 -3.9,1.4 -1.3,0.3 -2.7,0.5 -4.1,0.6 -2.7,0.1 -5.5,-0.3 -8.1,-1.3 -2.6,-1 -4.9,-2.6 -6.7,-4.4 -1.9,-1.9 -3.3,-4.1 -4.3,-6.4 -0.1,-0.3 -0.3,-0.6 -0.4,-0.9 l -0.2,-0.4 0,-0.1 -0.1,-0.2 c 0,-0.1 -0.1,-0.2 -0.1,-0.3 0,-0.1 0,0 -0.1,0 l -0.1,0.1 -0.1,0.2 -0.1,0.1 0,0 0,0 -0.1,0.1 -0.5,0.4 c -0.6,0.5 -1.3,1 -2,1.4 -1.4,0.8 -2.9,1.5 -4.4,1.8 -1.5,0.4 -2.9,0.5 -4.3,0.4 -2.7,-0.2 -5,-1.4 -6.3,-2.6 -0.3,-0.3 -0.6,-0.6 -0.9,-0.9 -0.3,-0.3 -0.4,-0.6 -0.6,-0.8 -0.3,-0.5 -0.5,-0.8 -0.5,-0.9 0,-0.1 -0.1,-0.4 -0.3,-0.8 -0.1,-0.2 -0.2,-0.4 -0.3,-0.7 -0.1,-0.3 -0.1,-0.5 -0.2,-0.9 -0.3,-1.3 -0.3,-3 -0.1,-4.9 0.3,-1.9 0.8,-3.9 1.6,-6.1 0.2,-0.6 0.4,-1.1 0.7,-1.7 0.2,-0.5 0.6,-1.4 0.5,-1.2 0.1,-0.1 0.1,-0.2 0.2,-0.2 0,0 -0.1,-0.1 -0.2,-0.1 l -0.1,0 c -0.5,-0.1 -1,-0.1 -1.4,-0.2 -2.2,-0.3 -4.5,-0.5 -6.9,-1.1 -2.4,-0.5 -5,-1.3 -7.5,-2.7 -1.1,-0.7 -2.3,-1.4 -3.5,-2.4 -1.2,-1 -2.2,-2.3 -2.9,-3.8 -0.7,-1.5 -1.1,-3.1 -1.1,-4.6 -0.1,-1.6 0.1,-3.1 0.5,-4.5 0.4,-1.4 0.9,-2.8 1.5,-4.1 0.3,-0.6 0.7,-1.3 1,-1.9 l 1.1,-1.7 c 3.2,-4.5 7.5,-7.8 11.9,-10.2 2.2,-1.2 4.4,-2.1 6.6,-2.9 2.2,-0.8 4.3,-1.3 6.4,-1.8 4.1,-0.9 7.9,-1.3 11,-1.4 6.3,-0.3 10.1,0.3 10.1,0.6 0,0.4 -3.8,0.4 -9.9,1.3 -3,0.4 -6.6,1.1 -10.5,2.2 -1.9,0.6 -3.9,1.3 -5.9,2.1 -2,0.9 -4,1.9 -6,3 -3.9,2.4 -7.5,5.6 -10.1,9.5 l -0.9,1.5 c -0.3,0.5 -0.5,1 -0.8,1.5 -0.5,1 -0.8,2.1 -1,3.2 -0.4,2.1 -0.3,4.3 0.6,5.8 0.4,0.8 1,1.4 1.7,2 0.8,0.6 1.7,1.2 2.7,1.7 1.8,0.9 3.9,1.5 6,1.9 2.1,0.4 4.3,0.6 6.5,0.7 0.6,0.1 1.2,0.1 1.8,0.2 1,0.1 2,0.2 3,0.3 1,0.1 1.9,0.2 2.9,0.4 0.9,0.1 1.9,0.2 2.8,0.4 -1.1,2.2 -2.3,4.5 -3.3,6.6 -0.2,0.5 -0.5,1.2 -0.6,1.3 -0.1,0.3 -0.2,0.5 -0.3,0.7 -0.2,0.5 -0.4,1 -0.5,1.4 -0.6,1.9 -1,3.5 -1.2,4.8 -0.1,1.3 -0.1,2.2 0.1,2.7 0,0.1 0,0.3 0.1,0.4 0,0.1 0.1,0.2 0.1,0.2 0.1,0.1 0.1,0.2 0.1,0.2 0,0 0.1,0.1 0.2,0.2 0,0.1 0.1,0.2 0.1,0.2 0.1,0.1 0.1,0.1 0.2,0.2 0.4,0.4 1.2,0.9 2.5,1.1 0.7,0.1 1.4,0.1 2.3,-0.1 0.8,-0.2 1.7,-0.5 2.7,-1 0.5,-0.3 1,-0.6 1.5,-0.9 l 0.4,-0.3 0.1,-0.1 0.2,-0.2 0.4,-0.3 c 0.5,-0.5 1.1,-0.9 1.6,-1.5 1.1,-1 2.2,-2.1 3.3,-3.2 0.5,-0.5 1.1,-1.1 1.7,-1.6 l 0.8,-0.8 c 0.3,-0.3 0.5,-0.5 0.7,-0.7 0.1,2.4 0.2,4.9 0.3,7.4 l 0,0.5 0.1,0.4 0.1,0.8 c 0.1,0.5 0.1,1.1 0.3,1.6 0,0.1 0.1,0.2 0.1,0.4 l 0.1,0.3 0.1,0.3 c 0.1,0.2 0.2,0.4 0.2,0.6 0.7,1.7 1.7,3.4 3,4.8 1.3,1.4 2.9,2.7 4.8,3.4 1.8,0.8 3.9,1.2 6,1.2 4.2,0 8.5,-1.8 11.3,-4.9 1.5,-1.6 2.6,-3.4 3.5,-5.4 0.9,-2 1.5,-4.1 2,-6.2 1,-4.2 1.4,-8.3 1.7,-12.1 0.3,-3.7 0.5,-7.1 0.5,-9.9 0.1,-5.6 0,-9.1 0.4,-9.1 0.3,0 1,3.4 1.5,9 0.3,3.4 0.4,6.8 0.4,10.7 z M 297.5,279.6 c -0.1,-0.1 -2.2,-3 -4.1,-6 -1.9,-3 -3.5,-6.1 -2.8,-6.7 0.7,-0.6 3.5,1.5 6.3,3.6 2.7,2.2 5.4,4.5 5.5,4.6 0.1,0.1 2.2,2.9 4.2,5.8 2,2.9 3.8,5.9 3.1,6.5 -0.6,0.6 -3.6,-1.2 -6.5,-3.3 -3,-2.1 -5.6,-4.4 -5.7,-4.5 z m 1.2,13 c -0.3,0.8 -3,0.7 -5.6,0.5 -2.6,-0.2 -5.2,-0.5 -5.3,-0.5 -0.1,0 -2.5,-1 -4.9,-2.1 -2.4,-1.1 -4.8,-2.2 -4.7,-3.1 0.1,-0.9 2.8,-1.4 5.6,-1.4 2.7,-0.1 5.5,0.3 5.6,0.3 0.1,0 2.7,1.1 5.1,2.5 2.4,1.2 4.5,2.9 4.2,3.8 z m 11.8,401.9 c 0.1,-0.2 4.4,-10.1 6.1,-9.6 1.7,0.5 0.2,11.2 0.1,11.4 -0.1,0.2 -4.4,10.1 -6.1,9.6 -1.7,-0.5 -0.1,-11.2 -0.1,-11.4 z m -4.2,-4.3 c -0.1,0.1 -2.9,3.1 -6.1,5.6 -3.1,2.5 -6.5,4.6 -7.1,3.9 -0.6,-0.7 1.6,-3.9 3.8,-7 2.1,-3.2 4.3,-6.4 4.4,-6.5 0.1,-0.1 2.8,-2.9 5.4,-5.7 2.6,-2.8 5.3,-5.7 6,-5.2 0.8,0.4 -0.5,4.2 -2.2,7.8 -1.8,3.6 -4.1,7 -4.2,7.1 z m 9.3,-411 c -1.7,0.5 -5.7,-8.6 -5.8,-8.8 -0.1,-0.2 -1.2,-10 0.5,-10.5 1.7,-0.5 5.7,8.6 5.8,8.8 0.1,0.3 1.3,10.1 -0.5,10.5 z m -14.4,398.7 c 0.2,0.9 -2.2,2.3 -4.8,3.4 -2.6,1.1 -5.4,1.9 -5.5,1.9 -0.1,0 -3,0 -5.8,-0.3 -2.8,-0.4 -5.6,-1.1 -5.6,-2 0,-0.9 2.6,-1.8 5.2,-2.6 2.6,-0.8 5.2,-1.5 5.3,-1.5 0.1,0 2.8,0 5.5,0 2.7,0.1 5.5,0.2 5.7,1.1 z m 31.3,-398.7 c -0.5,5.7 -1.2,9.1 -1.5,9 -0.3,0 -0.2,-3.5 -0.4,-9.1 -0.1,-2.8 -0.2,-6.2 -0.5,-9.9 -0.3,-3.7 -0.7,-7.9 -1.7,-12.1 -0.5,-2.1 -1.1,-4.2 -2,-6.2 -0.9,-2 -2,-3.8 -3.5,-5.4 -2.8,-3.2 -7.1,-4.9 -11.3,-4.9 -2.1,0 -4.2,0.4 -6,1.2 -1.8,0.8 -3.5,2 -4.8,3.4 -1.3,1.4 -2.4,3.1 -3,4.8 -0.1,0.2 -0.2,0.4 -0.2,0.6 l -0.1,0.3 -0.1,0.3 c 0,0.1 -0.1,0.2 -0.1,0.4 -0.1,0.5 -0.2,1.1 -0.3,1.6 l -0.1,0.8 -0.1,0.4 0,0.5 c -0.1,2.5 -0.2,5 -0.3,7.4 -0.2,-0.2 -0.5,-0.4 -0.7,-0.7 l -0.8,-0.8 c -0.6,-0.6 -1.1,-1.1 -1.7,-1.6 -1.1,-1.1 -2.2,-2.2 -3.3,-3.2 -0.5,-0.5 -1.1,-1 -1.6,-1.5 l -0.4,-0.3 -0.2,-0.2 -0.1,-0.1 -0.4,-0.3 c -0.5,-0.4 -1,-0.7 -1.5,-0.9 -1,-0.5 -1.8,-0.9 -2.7,-1 -0.8,-0.2 -1.6,-0.2 -2.3,-0.1 -1.3,0.1 -2.1,0.7 -2.5,1.1 -0.1,0.1 -0.1,0.2 -0.2,0.2 -0.1,0.1 -0.1,0.2 -0.1,0.2 -0.1,0.1 -0.1,0.2 -0.2,0.2 0,0 0,0.1 -0.1,0.2 0,0.1 -0.1,0.1 -0.1,0.2 0,0.1 0,0.2 -0.1,0.4 -0.1,0.5 -0.2,1.4 -0.1,2.7 0.1,1.3 0.5,2.9 1.2,4.8 0.2,0.5 0.3,0.9 0.5,1.4 0.1,0.2 0.2,0.5 0.3,0.7 0.1,0.1 0.3,0.8 0.6,1.3 1,2.1 2.2,4.4 3.3,6.6 -0.9,0.1 -1.9,0.3 -2.8,0.4 -0.9,0.1 -1.9,0.3 -2.9,0.4 -1,0.1 -2,0.2 -3,0.3 -0.6,0 -1.2,0.1 -1.8,0.2 -2.1,0.2 -4.3,0.4 -6.5,0.7 -2.1,0.4 -4.2,0.9 -6,1.9 -1,0.5 -2,1.1 -2.7,1.7 -0.8,0.6 -1.3,1.3 -1.7,2 -0.9,1.6 -1,3.7 -0.6,5.8 0.2,1.1 0.6,2.1 1,3.2 0.2,0.5 0.5,1 0.8,1.5 l 0.9,1.5 c 2.6,3.9 6.2,7.1 10.1,9.5 2,1.2 4,2.2 6,3 2,0.8 4,1.5 5.9,2.1 3.9,1.1 7.4,1.8 10.5,2.2 6.1,0.9 9.9,0.9 9.9,1.3 0,0.3 -3.8,0.9 -10.1,0.6 -3.1,-0.1 -6.9,-0.6 -11,-1.4 -2.1,-0.5 -4.2,-1.1 -6.4,-1.8 -2.2,-0.8 -4.4,-1.7 -6.6,-2.9 -4.4,-2.3 -8.7,-5.7 -11.9,-10.2 l -1.1,-1.7 c -0.4,-0.6 -0.7,-1.2 -1,-1.9 -0.6,-1.3 -1.1,-2.6 -1.5,-4.1 -0.3,-1.4 -0.5,-2.9 -0.5,-4.5 0.1,-1.5 0.4,-3.2 1.1,-4.6 0.7,-1.5 1.8,-2.8 2.9,-3.8 1.2,-1 2.3,-1.7 3.5,-2.4 2.5,-1.4 5.1,-2.2 7.5,-2.7 2.4,-0.5 4.8,-0.8 6.9,-1.1 0.5,-0.1 1,-0.1 1.4,-0.2 l 0.1,0 c 0.1,0 0.2,0 0.2,-0.1 -0.1,-0.1 -0.1,-0.2 -0.2,-0.2 0.1,0.2 -0.3,-0.7 -0.5,-1.2 -0.2,-0.6 -0.5,-1.1 -0.7,-1.7 -0.8,-2.2 -1.4,-4.2 -1.6,-6.1 -0.3,-1.9 -0.2,-3.6 0.1,-4.9 0.1,-0.3 0.1,-0.6 0.2,-0.9 0.1,-0.3 0.2,-0.5 0.3,-0.7 0.2,-0.4 0.3,-0.6 0.3,-0.8 0.1,-0.1 0.2,-0.4 0.5,-0.9 0.2,-0.2 0.3,-0.5 0.6,-0.8 0.3,-0.3 0.6,-0.6 0.9,-0.9 1.3,-1.2 3.6,-2.4 6.3,-2.6 1.4,-0.1 2.8,0 4.3,0.4 1.5,0.3 3,1 4.4,1.8 0.7,0.4 1.4,0.9 2,1.4 l 0.5,0.4 0.1,0.1 0,0 0,0 0.1,0.1 0.1,0.2 0.1,0.1 c 0,0 0.1,0.1 0.1,0 0,-0.1 0,-0.2 0.1,-0.3 l 0.1,-0.2 0,-0.1 0.2,-0.4 c 0.1,-0.3 0.2,-0.6 0.4,-0.9 1,-2.3 2.5,-4.5 4.3,-6.4 1.9,-1.9 4.1,-3.5 6.7,-4.4 2.6,-1 5.4,-1.4 8.1,-1.3 1.4,0.1 2.7,0.3 4.1,0.6 1.3,0.3 2.6,0.8 3.9,1.4 1.2,0.6 2.4,1.3 3.5,2.2 1.1,0.9 2.1,1.8 2.9,2.8 1.7,2 3,4.4 3.9,6.7 0.9,2.3 1.5,4.7 1.9,6.9 0.8,4.6 0.9,8.8 1,12.6 0,4.4 -0.1,7.8 -0.4,10.7 z m 437.4,466.4 c 1.4,-1.1 6.1,2.4 6.2,2.5 0.1,0.1 2.5,5.4 1.1,6.6 -1.4,1.1 -6.1,-2.4 -6.2,-2.5 -0.1,-0.1 -2.5,-5.4 -1.1,-6.6 z m -40.4,-72.2 c -2.1,-1.4 -4.2,-2.7 -4,-3.6 0.2,-0.9 2.9,-1 5.5,-0.7 2.6,0.3 5.2,1 5.3,1.1 0.1,0 2.4,1.5 4.4,3.2 2,1.8 3.6,3.8 3.1,4.6 -0.5,0.7 -3,0.1 -5.4,-0.5 -2.4,-0.6 -4.7,-1.3 -4.8,-1.3 0,-0.2 -2,-1.5 -4.1,-2.8 z m 3,24.8 c -1.5,1.1 -10.8,-9.3 -11,-9.6 -0.2,-0.3 -7.1,-12.4 -5.7,-13.4 1.5,-1.1 10.8,9.3 11,9.6 0.3,0.3 7.2,12.4 5.7,13.4 z m -6.1,-412.1 c -0.1,0.1 -3,3 -5.8,5.8 -2.9,2.8 -5.8,5.7 -6.5,5.2 -0.7,-0.5 0.8,-4.3 2.8,-7.9 2,-3.6 4.4,-7.1 4.5,-7.2 0.1,-0.1 3.1,-3.1 6.3,-5.7 3.2,-2.6 6.6,-4.9 7.3,-4.2 0.6,0.6 -1.6,4 -3.9,7.3 -2.3,3.3 -4.6,6.6 -4.7,6.7 z m -15.6,-1.8 c -0.9,-0.1 -1.4,-2.7 -1.6,-5.3 -0.2,-2.6 -0.1,-5.2 0,-5.3 0,-0.1 0.9,-2.6 2,-4.9 1.1,-2.3 2.5,-4.6 3.4,-4.3 0.9,0.2 1.1,2.8 1.1,5.3 0,2.5 -0.1,5 -0.1,5.1 0,0.1 -0.8,2.5 -1.8,4.8 -1,2.4 -2.1,4.7 -3,4.6 z m 2.6,407.3 c 0,0.2 -1.5,10.5 -3.3,10.5 -1.8,0 -3.3,-10.3 -3.3,-10.5 0,-0.2 1.5,-10.5 3.3,-10.5 1.8,-0.1 3.3,10.2 3.3,10.5 z m 23.7,-400.4 c 0.1,0 2.6,-0.4 5,-0.3 2.5,0 4.9,0.4 5.1,1.3 0.1,0.9 -1.9,2.1 -4,3.2 -2.1,1.1 -4.1,2.1 -4.2,2.1 -0.1,0 -2.4,0.3 -4.7,0.5 -2.3,0.2 -4.7,0.4 -5.1,-0.5 -0.4,-0.8 1.5,-2.5 3.5,-3.9 2.1,-1.3 4.3,-2.4 4.4,-2.4 z M 696,269.1 c 0.1,-3.8 0.2,-8.1 1,-12.6 0.4,-2.3 1,-4.6 1.9,-6.9 0.9,-2.3 2.1,-4.6 3.9,-6.7 0.8,-1 1.8,-2 2.9,-2.8 1.1,-0.9 2.3,-1.6 3.5,-2.2 1.2,-0.6 2.5,-1.1 3.9,-1.4 1.3,-0.3 2.7,-0.5 4.1,-0.6 2.7,-0.1 5.5,0.3 8.1,1.3 2.6,1 4.9,2.6 6.7,4.4 1.9,1.9 3.3,4.1 4.3,6.4 0.1,0.3 0.3,0.6 0.4,0.9 l 0.2,0.4 0,0.1 0.1,0.2 c 0,0.1 0.1,0.2 0.1,0.3 0,0.1 0,0 0.1,0 l 0.1,-0.1 0.1,-0.2 0.1,-0.1 0,0 0,0 0.1,-0.1 0.5,-0.4 c 0.6,-0.5 1.3,-1 2,-1.4 1.4,-0.8 2.9,-1.5 4.4,-1.8 1.5,-0.4 2.9,-0.5 4.3,-0.4 2.7,0.2 5,1.4 6.3,2.6 0.3,0.3 0.6,0.6 0.9,0.9 0.3,0.3 0.4,0.6 0.6,0.8 0.3,0.5 0.5,0.8 0.5,0.9 0,0.1 0.1,0.4 0.3,0.8 0.1,0.2 0.2,0.4 0.3,0.7 0.1,0.3 0.1,0.5 0.2,0.9 0.3,1.3 0.3,3 0.1,4.9 -0.3,1.9 -0.8,3.9 -1.6,6.1 -0.2,0.6 -0.4,1.1 -0.7,1.7 -0.2,0.5 -0.6,1.4 -0.5,1.2 -0.1,0.1 -0.1,0.2 -0.2,0.2 0,0 0.1,0.1 0.2,0.1 l 0.1,0 c 0.5,0.1 1,0.1 1.4,0.2 2.2,0.3 4.5,0.5 6.9,1.1 2.4,0.5 5,1.3 7.5,2.7 1.1,0.7 2.3,1.4 3.5,2.4 1.2,1 2.2,2.3 2.9,3.8 0.7,1.5 1.1,3.1 1.1,4.6 0.1,1.6 -0.1,3.1 -0.5,4.5 -0.4,1.4 -0.9,2.8 -1.5,4.1 -0.3,0.6 -0.7,1.3 -1,1.9 l -1.1,1.7 c -3.2,4.5 -7.5,7.8 -11.9,10.2 -2.2,1.2 -4.4,2.1 -6.6,2.9 -2.2,0.8 -4.3,1.3 -6.4,1.8 -4.1,0.9 -7.9,1.3 -11,1.4 -6.3,0.3 -10.1,-0.3 -10.1,-0.6 0,-0.4 3.8,-0.4 9.9,-1.3 3,-0.4 6.6,-1.1 10.5,-2.2 1.9,-0.6 3.9,-1.3 5.9,-2.1 2,-0.9 4,-1.9 6,-3 3.9,-2.4 7.5,-5.6 10.1,-9.5 l 0.9,-1.5 c 0.3,-0.5 0.5,-1 0.8,-1.5 0.5,-1 0.8,-2.1 1,-3.2 0.4,-2.1 0.3,-4.3 -0.6,-5.8 -0.4,-0.8 -1,-1.4 -1.7,-2 -0.8,-0.6 -1.7,-1.2 -2.7,-1.7 -1.8,-0.9 -3.9,-1.5 -6,-1.9 -2.1,-0.4 -4.3,-0.6 -6.5,-0.7 -0.6,-0.1 -1.2,-0.1 -1.8,-0.2 -1,-0.1 -2,-0.2 -3,-0.3 -1,-0.1 -1.9,-0.2 -2.9,-0.4 -0.9,-0.1 -1.9,-0.2 -2.8,-0.4 1.1,-2.2 2.3,-4.5 3.3,-6.6 0.2,-0.5 0.5,-1.2 0.6,-1.3 0.1,-0.3 0.2,-0.5 0.3,-0.7 0.2,-0.5 0.4,-1 0.5,-1.4 0.6,-1.9 1,-3.5 1.2,-4.8 0.1,-1.3 0.1,-2.2 -0.1,-2.7 0,-0.1 0,-0.3 -0.1,-0.4 0,-0.1 -0.1,-0.2 -0.1,-0.2 -0.1,-0.1 -0.1,-0.2 -0.1,-0.2 0,0 -0.1,-0.1 -0.2,-0.2 0,-0.1 -0.1,-0.2 -0.1,-0.2 -0.1,-0.1 -0.1,-0.1 -0.2,-0.2 -0.4,-0.4 -1.2,-0.9 -2.5,-1.1 -0.7,-0.1 -1.4,-0.1 -2.3,0.1 -0.8,0.2 -1.7,0.5 -2.7,1 -0.5,0.3 -1,0.6 -1.5,0.9 l -0.4,0.3 -0.1,0.1 -0.2,0.2 -0.4,0.3 c -0.5,0.5 -1.1,0.9 -1.6,1.5 -1.1,1 -2.2,2.1 -3.3,3.2 -0.5,0.5 -1.1,1.1 -1.7,1.6 l -0.8,0.8 c -0.3,0.3 -0.5,0.5 -0.7,0.7 -0.1,-2.4 -0.2,-4.9 -0.3,-7.4 l 0,-0.5 -0.1,-0.4 -0.1,-0.8 c -0.1,-0.5 -0.1,-1.1 -0.3,-1.6 0,-0.1 -0.1,-0.2 -0.1,-0.4 l -0.1,-0.3 -0.1,-0.3 c -0.1,-0.2 -0.2,-0.4 -0.2,-0.6 -0.7,-1.7 -1.7,-3.4 -3,-4.8 -1.3,-1.4 -2.9,-2.7 -4.8,-3.4 -1.8,-0.8 -3.9,-1.2 -6,-1.2 -4.2,0 -8.5,1.8 -11.3,4.9 -1.5,1.6 -2.6,3.4 -3.5,5.4 -0.9,2 -1.5,4.1 -2,6.2 -1,4.2 -1.4,8.3 -1.7,12.1 -0.3,3.7 -0.5,7.1 -0.5,9.9 -0.1,5.6 0,9.1 -0.4,9.1 -0.3,0 -1,-3.4 -1.5,-9 -0.3,-3.5 -0.4,-6.9 -0.4,-10.7 z m 82.4,420.4 c -0.1,1.5 -0.4,3.2 -1.1,4.6 -0.7,1.5 -1.8,2.8 -2.9,3.8 -1.2,1 -2.3,1.7 -3.5,2.4 -2.5,1.4 -5.1,2.2 -7.5,2.7 -2.4,0.5 -4.8,0.8 -6.9,1.1 -0.5,0.1 -1,0.1 -1.4,0.2 l -0.1,0 c -0.1,0 -0.2,0 -0.2,0.1 0.1,0.1 0.1,0.2 0.2,0.2 -0.1,-0.2 0.3,0.7 0.5,1.2 0.2,0.6 0.5,1.1 0.7,1.7 0.8,2.2 1.4,4.2 1.6,6.1 0.3,1.9 0.2,3.6 -0.1,4.9 -0.1,0.3 -0.1,0.6 -0.2,0.9 -0.1,0.3 -0.2,0.5 -0.3,0.7 -0.2,0.4 -0.3,0.6 -0.3,0.8 -0.1,0.1 -0.2,0.4 -0.5,0.9 -0.2,0.2 -0.3,0.5 -0.6,0.8 -0.3,0.3 -0.6,0.6 -0.9,0.9 -1.3,1.2 -3.6,2.4 -6.3,2.6 -1.4,0.1 -2.8,0 -4.3,-0.4 -1.5,-0.3 -3,-1 -4.4,-1.8 -0.7,-0.4 -1.4,-0.9 -2,-1.4 l -0.5,-0.4 -0.1,-0.1 0,0 0,0 -0.1,-0.1 -0.1,-0.2 -0.1,-0.1 c 0,0 -0.1,-0.1 -0.1,0 0,0.1 0,0.2 -0.1,0.3 l -0.1,0.2 0,0.1 -0.2,0.4 c -0.1,0.3 -0.2,0.6 -0.4,0.9 -1,2.3 -2.5,4.5 -4.3,6.4 -1.9,1.9 -4.1,3.5 -6.7,4.4 -2.6,1 -5.4,1.4 -8.1,1.3 -1.4,-0.1 -2.7,-0.3 -4.1,-0.6 -1.3,-0.3 -2.6,-0.8 -3.9,-1.4 -1.2,-0.6 -2.4,-1.3 -3.5,-2.2 -1.1,-0.9 -2.1,-1.8 -2.9,-2.8 -1.7,-2 -3,-4.4 -3.9,-6.7 -0.9,-2.3 -1.5,-4.7 -1.9,-6.9 -0.8,-4.6 -0.9,-8.8 -1,-12.6 -0.1,-3.8 0.1,-7.2 0.3,-10.1 0.5,-5.7 1.2,-9.1 1.5,-9 0.3,0 0.2,3.5 0.4,9.1 0.1,2.8 0.2,6.2 0.5,9.9 0.3,3.7 0.7,7.9 1.7,12.1 0.5,2.1 1.1,4.2 2,6.2 0.9,2 2,3.8 3.5,5.4 2.8,3.2 7.1,4.9 11.3,4.9 2.1,0 4.2,-0.4 6,-1.2 1.8,-0.8 3.5,-2 4.8,-3.4 1.3,-1.4 2.4,-3.1 3,-4.8 0.1,-0.2 0.2,-0.4 0.2,-0.6 l 0.1,-0.3 0.1,-0.3 c 0,-0.1 0.1,-0.2 0.1,-0.4 0.1,-0.5 0.2,-1.1 0.3,-1.6 l 0.1,-0.8 0.1,-0.4 0,-0.5 c 0.1,-2.5 0.2,-5 0.3,-7.4 0.2,0.2 0.5,0.4 0.7,0.7 l 0.8,0.8 c 0.6,0.6 1.1,1.1 1.7,1.6 1.1,1.1 2.2,2.2 3.3,3.2 0.5,0.5 1.1,1 1.6,1.5 l 0.4,0.3 0.2,0.2 0.1,0.1 0.4,0.3 c 0.5,0.4 1,0.7 1.5,0.9 1,0.5 1.8,0.9 2.7,1 0.8,0.2 1.6,0.2 2.3,0.1 1.3,-0.1 2.1,-0.7 2.5,-1.1 0.1,-0.1 0.1,-0.2 0.2,-0.2 0.1,-0.1 0.1,-0.2 0.1,-0.2 0.1,-0.1 0.1,-0.2 0.2,-0.2 0,0 0,-0.1 0.1,-0.2 0,-0.1 0.1,-0.1 0.1,-0.2 0,-0.1 0,-0.2 0.1,-0.4 0.1,-0.5 0.2,-1.4 0.1,-2.7 -0.1,-1.3 -0.5,-2.9 -1.2,-4.8 -0.2,-0.5 -0.3,-0.9 -0.5,-1.4 -0.1,-0.2 -0.2,-0.5 -0.3,-0.7 -0.1,-0.1 -0.3,-0.8 -0.6,-1.3 -1,-2.1 -2.2,-4.4 -3.3,-6.6 0.9,-0.1 1.9,-0.3 2.8,-0.4 0.9,-0.1 1.9,-0.3 2.9,-0.4 1,-0.1 2,-0.2 3,-0.3 0.6,0 1.2,-0.1 1.8,-0.2 2.1,-0.2 4.3,-0.4 6.5,-0.7 2.1,-0.4 4.2,-0.9 6,-1.9 1,-0.5 2,-1.1 2.7,-1.7 0.8,-0.6 1.3,-1.3 1.7,-2 0.9,-1.6 1,-3.7 0.6,-5.8 -0.2,-1.1 -0.6,-2.1 -1,-3.2 -0.2,-0.5 -0.5,-1 -0.8,-1.5 l -0.9,-1.5 c -2.6,-3.9 -6.2,-7.1 -10.1,-9.5 -2,-1.2 -4,-2.2 -6,-3 -2,-0.8 -4,-1.5 -5.9,-2.1 -3.9,-1.1 -7.4,-1.8 -10.5,-2.2 -6.1,-0.9 -9.9,-0.9 -9.9,-1.3 0,-0.3 3.8,-0.9 10.1,-0.6 3.1,0.1 6.9,0.6 11,1.4 2.1,0.5 4.2,1.1 6.4,1.8 2.2,0.8 4.4,1.7 6.6,2.9 4.4,2.3 8.7,5.7 11.9,10.2 l 1.1,1.7 c 0.4,0.6 0.7,1.2 1,1.9 0.6,1.3 1.1,2.6 1.5,4.1 0.5,0.9 0.7,2.4 0.6,3.9 z"
           id="path19"
           inkscape:connector-curvature="0"
           style="fill:none" /><path
           d="m 796.1,664.2 c -7.5,-8.6 -18.3,-13.6 -29.4,-15.8 -7,-1.4 -14.2,-1.8 -21.4,-1.4 l 0,-323.7 c 17.1,1.1 34.9,-2.3 47.5,-13.9 7.6,-7 13,-17 13.3,-27.4 0.3,-9.7 -4,-18.6 -11.4,-24.7 -6.5,-5.3 -14.8,-8.2 -23.1,-7.7 6.8,-4.4 13.3,-9.3 18.1,-15.8 5.3,-7.2 8.6,-17.1 5.5,-26 -2.5,-7.1 -9,-13.2 -16.8,-13.6 -9.4,-0.5 -17.7,7.6 -23.3,14.2 -6.1,7.2 -10.5,15.6 -12.9,24.6 -3.3,-7.9 -7.1,-15.8 -13.6,-21.6 -6.3,-5.5 -14.7,-8.6 -22.9,-6.3 -20,5.7 -23.4,29.7 -23.7,47.3 -0.1,4.8 0.1,9.6 0.5,14.4 l -336.3,0 c 0.3,-3.2 0.5,-6.5 0.5,-9.7 0.2,-10.4 -0.3,-21.5 -3.8,-31.4 -2.9,-8.3 -8.5,-15.9 -16.8,-19.5 -8,-3.5 -16.7,-1.9 -23.6,3.2 -7.9,5.8 -12.3,14.7 -16,23.5 -2.2,-8 -5.9,-15.5 -10.9,-22.1 -5.3,-6.9 -13,-15.1 -22.1,-16.5 -7.9,-1.3 -15.4,3.9 -18.9,10.8 -4.1,8.1 -2.3,17.7 2.1,25.3 4.8,8.2 12.5,14 20.3,19.1 -16.2,-1 -32.5,11.2 -34.3,27.9 -1.1,10.4 3.1,20.9 9.9,28.6 7.5,8.6 18.3,13.6 29.4,15.8 6.4,1.3 12.8,1.7 19.3,1.4 l 0,323.8 c -16.5,-0.7 -33.3,2.8 -45.5,14 -7.6,7 -13,17 -13.3,27.4 -0.3,9.7 4,18.6 11.4,24.7 6.5,5.3 14.8,8.2 23.1,7.7 -6.8,4.4 -13.3,9.3 -18.1,15.8 -5.3,7.2 -8.6,17.1 -5.5,26 2.5,7.1 9,13.2 16.8,13.6 9.4,0.5 17.7,-7.6 23.3,-14.2 6.1,-7.2 10.5,-15.6 12.9,-24.6 3.3,7.9 7.1,15.8 13.6,21.6 6.3,5.5 14.7,8.6 22.9,6.3 20,-5.7 23.4,-29.7 23.7,-47.3 0.1,-6.9 -0.3,-13.7 -1.2,-20.5 l 337.7,0 c -0.7,5.3 -1.1,10.6 -1.2,15.9 -0.2,10.4 0.3,21.5 3.8,31.4 2.9,8.3 8.5,15.9 16.8,19.5 8,3.5 16.7,1.9 23.6,-3.2 7.9,-5.8 12.3,-14.7 16,-23.5 2.2,8 5.9,15.5 10.9,22.1 5.3,6.9 13,15.1 22.1,16.5 7.9,1.3 15.4,-3.9 18.9,-10.8 4.1,-8.1 2.3,-17.7 -2.1,-25.3 -4.8,-8.2 -12.5,-14 -20.3,-19.1 16.2,1 32.5,-11.2 34.3,-27.9 1.3,-10.6 -3,-21.1 -9.8,-28.9 z M 346,269.3 l 336.8,0 c 0.4,3.8 0.9,7.7 1.6,11.5 l -340.1,0 c 0.7,-3.9 1.3,-7.7 1.7,-11.5 z m -0.8,425.6 c -0.6,-3.8 -1.3,-7.7 -2.1,-11.5 l 342.6,0 c -0.9,3.8 -1.6,7.6 -2.1,11.5 l -338.4,0 z m 449.1,15.4 c -7.5,6.7 -18.1,9.8 -27.9,7.1 -1.4,-0.4 -2.1,1.5 -0.9,2.2 9.4,6 19.4,12.3 25,22.3 5.3,9.6 5.3,22.6 -4.7,29.2 -10.4,6.9 -21.1,-2.2 -27.8,-9.9 -7.1,-8 -11.9,-17.8 -14.2,-28.2 -0.3,-1.3 -2,-1 -2.4,0 -3.4,8.4 -7,17.2 -13.7,23.5 -6.3,5.9 -15.1,8.9 -23.4,5.5 -18.4,-7.4 -20,-31.4 -19.7,-48.3 0.1,-5.5 0.5,-11 1.2,-16.5 0.1,-0.8 0.2,-1.6 0.4,-2.5 0.6,-3.8 1.3,-7.7 2.2,-11.5 0.2,-0.8 0.4,-1.6 0.6,-2.5 l -2.5,0 -344,0 -2.5,0 c 0.2,0.8 0.4,1.6 0.6,2.5 0.9,3.7 1.6,7.6 2.3,11.5 0.1,0.8 0.3,1.6 0.4,2.5 2,13.7 2.1,27.9 -0.9,41 -2,8.8 -6.4,17.3 -14.3,22.1 -7.7,4.6 -16.5,3.8 -23.7,-1.3 -8.7,-6.2 -12.9,-16.4 -16.8,-25.9 -0.4,-1 -2.1,-1.3 -2.4,0 -2.2,10.3 -6.9,19.9 -13.8,27.9 -6.8,7.8 -17.7,17.2 -28.2,10.2 -9.8,-6.5 -10,-19.2 -4.9,-28.7 5.5,-10.3 15.6,-16.7 25.2,-22.8 1.2,-0.7 0.4,-2.6 -0.9,-2.2 -17.5,4.8 -37,-8.9 -37.4,-27.3 -0.5,-22.1 19.9,-36.4 39.7,-39.7 5.5,-0.9 11.1,-1.2 16.7,-1 0.8,0 1.6,0.1 2.5,0.1 4.2,0.3 8.4,0.8 12.5,1.6 0.8,0.2 1.6,0.3 2.5,0.5 l 0,-2.5 0,-328 0,-2.5 c -0.8,0.2 -1.6,0.3 -2.5,0.5 -4.1,0.8 -8.3,1.4 -12.5,1.7 -0.8,0.1 -1.6,0.1 -2.5,0.1 -14.9,0.6 -30.1,-2.3 -41.6,-11.5 -15.1,-12 -20.9,-35.4 -5.3,-49.5 7.5,-6.7 18.1,-9.8 27.9,-7.1 1.4,0.4 2.1,-1.5 0.9,-2.2 -9.4,-6 -19.4,-12.3 -25,-22.3 -5.3,-9.6 -5.3,-22.6 4.7,-29.2 10.4,-6.9 21.1,2.2 27.8,9.9 7.1,8 11.9,17.8 14.2,28.2 0.3,1.3 2,1 2.4,0 3.4,-8.4 7,-17.2 13.7,-23.5 6.3,-5.9 15.1,-8.9 23.4,-5.5 18.4,7.4 20,31.4 19.7,48.3 -0.1,3.4 -0.2,6.9 -0.5,10.3 -0.1,0.8 -0.1,1.6 -0.2,2.5 -0.4,3.8 -1,7.7 -1.7,11.5 -0.2,0.8 -0.3,1.6 -0.5,2.5 l 2.5,0 341.1,0 2.5,0 c -0.2,-0.8 -0.3,-1.6 -0.5,-2.5 -0.7,-3.8 -1.3,-7.6 -1.8,-11.5 -0.1,-0.8 -0.2,-1.6 -0.3,-2.5 -1.2,-11.7 -0.9,-23.7 1.7,-34.8 2,-8.8 6.4,-17.3 14.3,-22.1 7.7,-4.6 16.5,-3.8 23.7,1.3 8.7,6.2 12.9,16.4 16.8,25.9 0.4,1 2.1,1.3 2.4,0 2.2,-10.3 6.9,-19.9 13.8,-27.9 6.8,-7.8 17.7,-17.2 28.2,-10.2 9.8,6.5 10,19.2 4.9,28.7 -5.5,10.3 -15.6,16.7 -25.2,22.8 -1.2,0.7 -0.4,2.6 0.9,2.2 17.5,-4.8 37,8.9 37.4,27.3 0.5,22.1 -19.9,36.4 -39.7,39.7 -6.2,1 -12.5,1.3 -18.7,0.9 -0.8,0 -1.6,-0.1 -2.5,-0.2 -4.2,-0.4 -8.4,-1 -12.5,-1.9 -0.8,-0.2 -1.6,-0.4 -2.5,-0.5 l 0,2.5 0,328.9 0,2.5 c 0.8,-0.2 1.6,-0.4 2.5,-0.6 4.1,-0.9 8.3,-1.5 12.5,-1.9 0.8,-0.1 1.6,-0.1 2.5,-0.2 15.6,-1 31.6,1.7 43.7,11.4 14.9,12.2 20.7,35.5 5.1,49.6 z m -510.5,-63.2 0,-323.9 c 4.2,-0.3 8.4,-0.8 12.5,-1.6 l 0,327.1 c -4,-0.8 -8.2,-1.3 -12.5,-1.6 z m 459.1,-324 0,324.2 c -4.2,0.4 -8.4,1 -12.5,1.8 l 0,-327.9 c 4,0.9 8.2,1.5 12.5,1.9 z"
           id="path21"
           inkscape:connector-curvature="0" /><path
           d="m 331.9,256.5 c -0.4,-2.3 -1,-4.6 -1.9,-6.9 -0.9,-2.3 -2.1,-4.6 -3.9,-6.7 -0.8,-1 -1.8,-2 -2.9,-2.8 -1.1,-0.9 -2.3,-1.6 -3.5,-2.2 -1.2,-0.6 -2.5,-1.1 -3.9,-1.4 -1.3,-0.3 -2.7,-0.5 -4.1,-0.6 -2.7,-0.1 -5.5,0.3 -8.1,1.3 -2.6,1 -4.9,2.6 -6.7,4.4 -1.9,1.9 -3.3,4.1 -4.3,6.4 -0.1,0.3 -0.3,0.6 -0.4,0.9 l -0.2,0.4 0,0.1 -0.1,0.2 c 0,0.1 -0.1,0.2 -0.1,0.3 0,0.1 0,0 -0.1,0 l -0.1,-0.1 -0.1,-0.2 -0.1,-0.1 0,0 0,0 -0.1,-0.1 -0.5,-0.4 c -0.6,-0.5 -1.3,-1 -2,-1.4 -1.4,-0.8 -2.9,-1.5 -4.4,-1.8 -1.5,-0.4 -2.9,-0.5 -4.3,-0.4 -2.7,0.2 -5,1.4 -6.3,2.6 -0.3,0.3 -0.6,0.6 -0.9,0.9 -0.3,0.3 -0.4,0.6 -0.6,0.8 -0.3,0.5 -0.5,0.8 -0.5,0.9 0,0.1 -0.1,0.4 -0.3,0.8 -0.1,0.2 -0.2,0.4 -0.3,0.7 -0.1,0.3 -0.1,0.5 -0.2,0.9 -0.3,1.3 -0.3,3 -0.1,4.9 0.3,1.9 0.8,3.9 1.6,6.1 0.2,0.6 0.4,1.1 0.7,1.7 0.2,0.5 0.6,1.4 0.5,1.2 0.1,0.1 0.1,0.2 0.2,0.2 0,0 -0.1,0.1 -0.2,0.1 l -0.1,0 c -0.5,0.1 -1,0.1 -1.4,0.2 -2.2,0.3 -4.5,0.5 -6.9,1.1 -2.4,0.5 -5,1.3 -7.5,2.7 -1.1,0.7 -2.3,1.4 -3.5,2.4 -1.2,1 -2.2,2.3 -2.9,3.8 -0.7,1.5 -1.1,3.1 -1.1,4.6 -0.1,1.6 0.1,3.1 0.5,4.5 0.4,1.4 0.9,2.8 1.5,4.1 0.3,0.6 0.7,1.3 1,1.9 l 1.1,1.7 c 3.2,4.5 7.5,7.8 11.9,10.2 2.2,1.2 4.4,2.1 6.6,2.9 2.2,0.8 4.3,1.3 6.4,1.8 4.1,0.9 7.9,1.3 11,1.4 6.3,0.3 10.1,-0.3 10.1,-0.6 0,-0.4 -3.8,-0.4 -9.9,-1.3 -3,-0.4 -6.6,-1.1 -10.5,-2.2 -1.9,-0.6 -3.9,-1.3 -5.9,-2.1 -2,-0.9 -4,-1.9 -6,-3 -3.9,-2.4 -7.5,-5.6 -10.1,-9.5 l -0.9,-1.5 c -0.3,-0.5 -0.5,-1 -0.8,-1.5 -0.5,-1 -0.8,-2.1 -1,-3.2 -0.4,-2.1 -0.3,-4.3 0.6,-5.8 0.4,-0.8 1,-1.4 1.7,-2 0.8,-0.6 1.7,-1.2 2.7,-1.7 1.8,-0.9 3.9,-1.5 6,-1.9 2.1,-0.4 4.3,-0.6 6.5,-0.7 0.6,-0.1 1.2,-0.1 1.8,-0.2 1,-0.1 2,-0.2 3,-0.3 1,-0.1 1.9,-0.2 2.9,-0.4 0.9,-0.1 1.9,-0.2 2.8,-0.4 -1.1,-2.2 -2.3,-4.5 -3.3,-6.6 -0.2,-0.5 -0.5,-1.2 -0.6,-1.3 -0.1,-0.3 -0.2,-0.5 -0.3,-0.7 -0.2,-0.5 -0.4,-1 -0.5,-1.4 -0.6,-1.9 -1,-3.5 -1.2,-4.8 -0.1,-1.3 -0.1,-2.2 0.1,-2.7 0,-0.1 0,-0.3 0.1,-0.4 0,-0.1 0.1,-0.2 0.1,-0.2 0.1,-0.1 0.1,-0.2 0.1,-0.2 0,0 0.1,-0.1 0.2,-0.2 0,-0.1 0.1,-0.2 0.1,-0.2 0.1,-0.1 0.1,-0.1 0.2,-0.2 0.4,-0.4 1.2,-0.9 2.5,-1.1 0.7,-0.1 1.4,-0.1 2.3,0.1 0.8,0.2 1.7,0.5 2.7,1 0.5,0.3 1,0.6 1.5,0.9 l 0.4,0.3 0.1,0.1 0.2,0.2 0.4,0.3 c 0.5,0.5 1.1,0.9 1.6,1.5 1.1,1 2.2,2.1 3.3,3.2 0.5,0.5 1.1,1.1 1.7,1.6 l 0.8,0.8 c 0.3,0.3 0.5,0.5 0.7,0.7 0.1,-2.4 0.2,-4.9 0.3,-7.4 l 0,-0.5 0.1,-0.4 0.1,-0.8 c 0.1,-0.5 0.1,-1.1 0.3,-1.6 0,-0.1 0.1,-0.2 0.1,-0.4 l 0.1,-0.3 0.1,-0.3 c 0.1,-0.2 0.2,-0.4 0.2,-0.6 0.7,-1.7 1.7,-3.4 3,-4.8 1.3,-1.4 2.9,-2.7 4.8,-3.4 1.8,-0.8 3.9,-1.2 6,-1.2 4.2,0 8.5,1.8 11.3,4.9 1.5,1.6 2.6,3.4 3.5,5.4 0.9,2 1.5,4.1 2,6.2 1,4.2 1.4,8.3 1.7,12.1 0.3,3.7 0.5,7.1 0.5,9.9 0.1,5.6 0,9.1 0.4,9.1 0.3,0 1,-3.4 1.5,-9 0.2,-2.8 0.4,-6.3 0.3,-10.1 0,-4.4 -0.2,-8.7 -0.9,-13.2 z"
           id="path23"
           inkscape:connector-curvature="0" /><path
           d="m 697.8,288.2 c 0.3,0 0.2,-3.5 0.4,-9.1 0.1,-2.8 0.2,-6.2 0.5,-9.9 0.3,-3.7 0.7,-7.9 1.7,-12.1 0.5,-2.1 1.1,-4.2 2,-6.2 0.9,-2 2,-3.8 3.5,-5.4 2.8,-3.2 7.1,-4.9 11.3,-4.9 2.1,0 4.2,0.4 6,1.2 1.8,0.8 3.5,2 4.8,3.4 1.3,1.4 2.4,3.1 3,4.8 0.1,0.2 0.2,0.4 0.2,0.6 l 0.1,0.3 0.1,0.3 c 0,0.1 0.1,0.2 0.1,0.4 0.1,0.5 0.2,1.1 0.3,1.6 l 0.1,0.8 0.1,0.4 0,0.5 c 0.1,2.5 0.2,5 0.3,7.4 0.2,-0.2 0.5,-0.4 0.7,-0.7 l 0.8,-0.8 c 0.6,-0.6 1.1,-1.1 1.7,-1.6 1.1,-1.1 2.2,-2.2 3.3,-3.2 0.5,-0.5 1.1,-1 1.6,-1.5 l 0.4,-0.3 0.2,-0.2 0.1,-0.1 0.4,-0.3 c 0.5,-0.4 1,-0.7 1.5,-0.9 1,-0.5 1.8,-0.9 2.7,-1 0.8,-0.2 1.6,-0.2 2.3,-0.1 1.3,0.1 2.1,0.7 2.5,1.1 0.1,0.1 0.1,0.2 0.2,0.2 0.1,0.1 0.1,0.2 0.1,0.2 0.1,0.1 0.1,0.2 0.2,0.2 0,0 0,0.1 0.1,0.2 0,0.1 0.1,0.1 0.1,0.2 0,0.1 0,0.2 0.1,0.4 0.1,0.5 0.2,1.4 0.1,2.7 -0.1,1.3 -0.5,2.9 -1.2,4.8 -0.2,0.5 -0.3,0.9 -0.5,1.4 -0.1,0.2 -0.2,0.5 -0.3,0.7 -0.1,0.1 -0.3,0.8 -0.6,1.3 -1,2.1 -2.2,4.4 -3.3,6.6 0.9,0.1 1.9,0.3 2.8,0.4 0.9,0.1 1.9,0.3 2.9,0.4 1,0.1 2,0.2 3,0.3 0.6,0 1.2,0.1 1.8,0.2 2.1,0.2 4.3,0.4 6.5,0.7 2.1,0.4 4.2,0.9 6,1.9 1,0.5 2,1.1 2.7,1.7 0.8,0.6 1.3,1.3 1.7,2 0.9,1.6 1,3.7 0.6,5.8 -0.2,1.1 -0.6,2.1 -1,3.2 -0.2,0.5 -0.5,1 -0.8,1.5 l -0.9,1.5 c -2.6,3.9 -6.2,7.1 -10.1,9.5 -2,1.2 -4,2.2 -6,3 -2,0.8 -4,1.5 -5.9,2.1 -3.9,1.1 -7.4,1.8 -10.5,2.2 -6.1,0.9 -9.9,0.9 -9.9,1.3 0,0.3 3.8,0.9 10.1,0.6 3.1,-0.1 6.9,-0.6 11,-1.4 2.1,-0.5 4.2,-1.1 6.4,-1.8 2.2,-0.8 4.4,-1.7 6.6,-2.9 4.4,-2.3 8.7,-5.7 11.9,-10.2 l 1.1,-1.7 c 0.4,-0.6 0.7,-1.2 1,-1.9 0.6,-1.3 1.1,-2.6 1.5,-4.1 0.3,-1.4 0.5,-2.9 0.5,-4.5 -0.1,-1.5 -0.4,-3.2 -1.1,-4.6 -0.7,-1.5 -1.8,-2.8 -2.9,-3.8 -1.2,-1 -2.3,-1.7 -3.5,-2.4 -2.5,-1.4 -5.1,-2.2 -7.5,-2.7 -2.4,-0.5 -4.8,-0.8 -6.9,-1.1 -0.5,-0.1 -1,-0.1 -1.4,-0.2 l -0.1,0 c -0.1,0 -0.2,0 -0.2,-0.1 0.1,-0.1 0.1,-0.2 0.2,-0.2 -0.1,0.2 0.3,-0.7 0.5,-1.2 0.2,-0.6 0.5,-1.1 0.7,-1.7 0.8,-2.2 1.4,-4.2 1.6,-6.1 0.3,-1.9 0.2,-3.6 -0.1,-4.9 -0.1,-0.3 -0.1,-0.6 -0.2,-0.9 -0.1,-0.3 -0.2,-0.5 -0.3,-0.7 -0.2,-0.4 -0.3,-0.6 -0.3,-0.8 -0.1,-0.1 -0.2,-0.4 -0.5,-0.9 -0.2,-0.2 -0.3,-0.5 -0.6,-0.8 -0.3,-0.3 -0.6,-0.6 -0.9,-0.9 -1.3,-1.2 -3.6,-2.4 -6.3,-2.6 -1.4,-0.1 -2.8,0 -4.3,0.4 -1.5,0.3 -3,1 -4.4,1.8 -0.7,0.4 -1.4,0.9 -2,1.4 l -0.5,0.4 -0.1,0.1 0,0 0,0 -0.1,0.1 -0.1,0.2 -0.1,0.1 c 0,0 -0.1,0.1 -0.1,0 0,-0.1 0,-0.2 -0.1,-0.3 l -0.1,-0.2 0,-0.1 -0.2,-0.4 c -0.1,-0.3 -0.2,-0.6 -0.4,-0.9 -1,-2.3 -2.5,-4.5 -4.3,-6.4 -1.9,-1.9 -4.1,-3.5 -6.7,-4.4 -2.6,-1 -5.4,-1.4 -8.1,-1.3 -1.4,0.1 -2.7,0.3 -4.1,0.6 -1.3,0.3 -2.6,0.8 -3.9,1.4 -1.2,0.6 -2.4,1.3 -3.5,2.2 -1.1,0.9 -2.1,1.8 -2.9,2.8 -1.7,2 -3,4.4 -3.9,6.7 -0.9,2.3 -1.5,4.7 -1.9,6.9 -0.8,4.6 -0.9,8.8 -1,12.6 -0.1,3.8 0.1,7.2 0.3,10.1 0.6,6.3 1.3,9.6 1.6,9.6 z"
           id="path25"
           inkscape:connector-curvature="0" /><path
           d="m 776.4,681 c -0.3,-0.6 -0.7,-1.3 -1,-1.9 l -1.1,-1.7 c -3.2,-4.5 -7.5,-7.8 -11.9,-10.2 -2.2,-1.2 -4.4,-2.1 -6.6,-2.9 -2.2,-0.8 -4.3,-1.3 -6.4,-1.8 -4.1,-0.9 -7.9,-1.3 -11,-1.4 -6.3,-0.3 -10.1,0.3 -10.1,0.6 0,0.4 3.8,0.4 9.9,1.3 3,0.4 6.6,1.1 10.5,2.2 1.9,0.6 3.9,1.3 5.9,2.1 2,0.9 4,1.9 6,3 3.9,2.4 7.5,5.6 10.1,9.5 l 0.9,1.5 c 0.3,0.5 0.5,1 0.8,1.5 0.5,1 0.8,2.1 1,3.2 0.4,2.1 0.3,4.3 -0.6,5.8 -0.4,0.8 -1,1.4 -1.7,2 -0.8,0.6 -1.7,1.2 -2.7,1.7 -1.8,0.9 -3.9,1.5 -6,1.9 -2.1,0.4 -4.3,0.6 -6.5,0.7 -0.6,0.1 -1.2,0.1 -1.8,0.2 -1,0.1 -2,0.2 -3,0.3 -1,0.1 -1.9,0.2 -2.9,0.4 -0.9,0.1 -1.9,0.2 -2.8,0.4 1.1,2.2 2.3,4.5 3.3,6.6 0.2,0.5 0.5,1.2 0.6,1.3 0.1,0.3 0.2,0.5 0.3,0.7 0.2,0.5 0.4,1 0.5,1.4 0.6,1.9 1,3.5 1.2,4.8 0.1,1.3 0.1,2.2 -0.1,2.7 0,0.1 0,0.3 -0.1,0.4 0,0.1 -0.1,0.2 -0.1,0.2 -0.1,0.1 -0.1,0.2 -0.1,0.2 0,0 -0.1,0.1 -0.2,0.2 0,0.1 -0.1,0.2 -0.1,0.2 -0.1,0.1 -0.1,0.1 -0.2,0.2 -0.4,0.4 -1.2,0.9 -2.5,1.1 -0.7,0.1 -1.4,0.1 -2.3,-0.1 -0.8,-0.2 -1.7,-0.5 -2.7,-1 -0.5,-0.3 -1,-0.6 -1.5,-0.9 l -0.4,-0.3 -0.1,-0.1 -0.2,-0.2 -0.4,-0.3 c -0.5,-0.5 -1.1,-0.9 -1.6,-1.5 -1.1,-1 -2.2,-2.1 -3.3,-3.2 -0.5,-0.5 -1.1,-1.1 -1.7,-1.6 l -0.8,-0.8 c -0.3,-0.3 -0.5,-0.5 -0.7,-0.7 -0.1,2.4 -0.2,4.9 -0.3,7.4 l 0,0.5 0.1,0.4 -0.1,0.8 c -0.1,0.5 -0.1,1.1 -0.3,1.6 0,0.1 -0.1,0.2 -0.1,0.4 l -0.1,0.3 -0.1,0.3 c -0.1,0.2 -0.2,0.4 -0.2,0.6 -0.7,1.7 -1.7,3.4 -3,4.8 -1.3,1.4 -2.9,2.7 -4.8,3.4 -1.8,0.8 -3.9,1.2 -6,1.2 -4.2,0 -8.5,-1.8 -11.3,-4.9 -1.5,-1.6 -2.6,-3.4 -3.5,-5.4 -0.9,-2 -1.5,-4.1 -2,-6.2 -1,-4.2 -1.4,-8.3 -1.7,-12.1 -0.3,-3.7 -0.5,-7.1 -0.5,-9.9 -0.1,-5.6 0,-9.1 -0.4,-9.1 -0.3,0 -1,3.4 -1.5,9 -0.2,2.8 -0.4,6.3 -0.3,10.1 0.1,3.8 0.2,8.1 1,12.6 0.4,2.3 1,4.6 1.9,6.9 0.9,2.3 2.1,4.6 3.9,6.7 0.8,1 1.8,2 2.9,2.8 1.1,0.9 2.3,1.6 3.5,2.2 1.2,0.6 2.5,1.1 3.9,1.4 1.3,0.3 2.7,0.5 4.1,0.6 2.7,0.1 5.5,-0.3 8.1,-1.3 2.6,-1 4.9,-2.6 6.7,-4.4 1.9,-1.9 3.3,-4.1 4.3,-6.4 0.1,-0.3 0.3,-0.6 0.4,-0.9 l 0.2,-0.4 0,-0.1 0.1,-0.2 c 0,-0.1 0.1,-0.2 0.1,-0.3 0,-0.1 0,0 0.1,0 l 0.1,0.1 0.1,0.2 0.1,0.1 0,0 0,0 0.1,0.1 0.5,0.4 c 0.6,0.5 1.3,1 2,1.4 1.4,0.8 2.9,1.5 4.4,1.8 1.5,0.4 2.9,0.5 4.3,0.4 2.7,-0.2 5,-1.4 6.3,-2.6 0.3,-0.3 0.6,-0.6 0.9,-0.9 0.3,-0.3 0.4,-0.6 0.6,-0.8 0.3,-0.5 0.5,-0.8 0.5,-0.9 0,-0.1 0.1,-0.4 0.3,-0.8 0.1,-0.2 0.2,-0.4 0.3,-0.7 0.1,-0.3 0.1,-0.5 0.2,-0.9 0.3,-1.3 0.3,-3 0.1,-4.9 -0.3,-1.9 -0.8,-3.9 -1.6,-6.1 -0.2,-0.6 -0.4,-1.1 -0.7,-1.7 -0.2,-0.5 -0.6,-1.4 -0.5,-1.2 -0.1,-0.1 -0.1,-0.2 -0.2,-0.2 0,0 0.1,-0.1 0.2,-0.1 l 0.1,0 c 0.5,-0.1 1,-0.1 1.4,-0.2 2.2,-0.3 4.5,-0.5 6.9,-1.1 2.4,-0.5 5,-1.3 7.5,-2.7 1.1,-0.7 2.3,-1.4 3.5,-2.4 1.2,-1 2.2,-2.3 2.9,-3.8 0.7,-1.5 1.1,-3.1 1.1,-4.6 0.1,-1.6 -0.1,-3.1 -0.5,-4.5 -0.6,-0.9 -1.1,-2.2 -1.8,-3.5 z"
           id="path27"
           inkscape:connector-curvature="0" /><path
           d="m 331,682.9 c -0.3,0 -0.2,3.5 -0.4,9.1 -0.1,2.8 -0.2,6.2 -0.5,9.9 -0.3,3.7 -0.7,7.9 -1.7,12.1 -0.5,2.1 -1.1,4.2 -2,6.2 -0.9,2 -2,3.8 -3.5,5.4 -2.8,3.2 -7.1,4.9 -11.3,4.9 -2.1,0 -4.2,-0.4 -6,-1.2 -1.8,-0.8 -3.5,-2 -4.8,-3.4 -1.3,-1.4 -2.4,-3.1 -3,-4.8 -0.1,-0.2 -0.2,-0.4 -0.2,-0.6 l -0.1,-0.3 -0.1,-0.3 c 0,-0.1 -0.1,-0.2 -0.1,-0.4 -0.1,-0.5 -0.2,-1.1 -0.3,-1.6 l -0.1,-0.8 -0.1,-0.4 0,-0.5 c -0.1,-2.5 -0.2,-5 -0.3,-7.4 -0.2,0.2 -0.5,0.4 -0.7,0.7 l -0.8,0.8 c -0.6,0.6 -1.1,1.1 -1.7,1.6 -1.1,1.1 -2.2,2.2 -3.3,3.2 -0.5,0.5 -1.1,1 -1.6,1.5 l -0.4,0.3 -0.2,0.2 -0.1,0.1 -0.4,0.3 c -0.5,0.4 -1,0.7 -1.5,0.9 -1,0.5 -1.8,0.9 -2.7,1 -0.8,0.2 -1.6,0.2 -2.3,0.1 -1.3,-0.1 -2.1,-0.7 -2.5,-1.1 -0.1,-0.1 -0.1,-0.2 -0.2,-0.2 -0.1,-0.1 -0.1,-0.2 -0.1,-0.2 -0.1,-0.1 -0.1,-0.2 -0.2,-0.2 0,0 0,-0.1 -0.1,-0.2 0,-0.1 -0.1,-0.1 -0.1,-0.2 0,-0.1 0,-0.2 -0.1,-0.4 -0.1,-0.5 -0.2,-1.4 -0.1,-2.7 0.1,-1.3 0.5,-2.9 1.2,-4.8 0.2,-0.5 0.3,-0.9 0.5,-1.4 0.1,-0.2 0.2,-0.5 0.3,-0.7 0.1,-0.1 0.3,-0.8 0.6,-1.3 1,-2.1 2.2,-4.4 3.3,-6.6 -0.9,-0.1 -1.9,-0.3 -2.8,-0.4 -0.9,-0.1 -1.9,-0.3 -2.9,-0.4 -1,-0.1 -2,-0.2 -3,-0.3 -0.6,0 -1.2,-0.1 -1.8,-0.2 -2.1,-0.2 -4.3,-0.4 -6.5,-0.7 -2.1,-0.4 -4.2,-0.9 -6,-1.9 -1,-0.5 -2,-1.1 -2.7,-1.7 -0.8,-0.6 -1.3,-1.3 -1.7,-2 -0.9,-1.6 -1,-3.7 -0.6,-5.8 0.2,-1.1 0.6,-2.1 1,-3.2 0.2,-0.5 0.5,-1 0.8,-1.5 l 0.9,-1.5 c 2.6,-3.9 6.2,-7.1 10.1,-9.5 2,-1.2 4,-2.2 6,-3 2,-0.8 4,-1.5 5.9,-2.1 3.9,-1.1 7.4,-1.8 10.5,-2.2 6.1,-0.9 9.9,-0.9 9.9,-1.3 0,-0.3 -3.8,-0.9 -10.1,-0.6 -3.1,0.1 -6.9,0.6 -11,1.4 -2.1,0.5 -4.2,1.1 -6.4,1.8 -2.2,0.8 -4.4,1.7 -6.6,2.9 -4.4,2.3 -8.7,5.7 -11.9,10.2 l -1.1,1.7 c -0.4,0.6 -0.7,1.2 -1,1.9 -0.6,1.3 -1.1,2.6 -1.5,4.1 -0.3,1.4 -0.5,2.9 -0.5,4.5 0.1,1.5 0.4,3.2 1.1,4.6 0.7,1.5 1.8,2.8 2.9,3.8 1.2,1 2.3,1.7 3.5,2.4 2.5,1.4 5.1,2.2 7.5,2.7 2.4,0.5 4.8,0.8 6.9,1.1 0.5,0.1 1,0.1 1.4,0.2 l 0.1,0 c 0.1,0 0.2,0 0.2,0.1 -0.1,0.1 -0.1,0.2 -0.2,0.2 0.1,-0.2 -0.3,0.7 -0.5,1.2 -0.2,0.6 -0.5,1.1 -0.7,1.7 -0.8,2.2 -1.4,4.2 -1.6,6.1 -0.3,1.9 -0.2,3.6 0.1,4.9 0.1,0.3 0.1,0.6 0.2,0.9 0.1,0.3 0.2,0.5 0.3,0.7 0.2,0.4 0.3,0.6 0.3,0.8 0.1,0.1 0.2,0.4 0.5,0.9 0.2,0.2 0.3,0.5 0.6,0.8 0.3,0.3 0.6,0.6 0.9,0.9 1.3,1.2 3.6,2.4 6.3,2.6 1.4,0.1 2.8,0 4.3,-0.4 1.5,-0.3 3,-1 4.4,-1.8 0.7,-0.4 1.4,-0.9 2,-1.4 l 0.5,-0.4 0.1,-0.1 0,0 0,0 0.1,-0.1 0.1,-0.2 0.1,-0.1 c 0,0 0.1,-0.1 0.1,0 0,0.1 0,0.2 0.1,0.3 l 0.1,0.2 0,0.1 0.2,0.4 c 0.1,0.3 0.2,0.6 0.4,0.9 1,2.3 2.5,4.5 4.3,6.4 1.9,1.9 4.1,3.5 6.7,4.4 2.6,1 5.4,1.4 8.1,1.3 1.4,-0.1 2.7,-0.3 4.1,-0.6 1.3,-0.3 2.6,-0.8 3.9,-1.4 1.2,-0.6 2.4,-1.3 3.5,-2.2 1.1,-0.9 2.1,-1.8 2.9,-2.8 1.7,-2 3,-4.4 3.9,-6.7 0.9,-2.3 1.5,-4.7 1.9,-6.9 0.8,-4.6 0.9,-8.8 1,-12.6 0.1,-3.8 -0.1,-7.2 -0.3,-10.1 -0.5,-6.2 -1.3,-9.6 -1.6,-9.6 z"
           id="path29"
           inkscape:connector-curvature="0" /><path
           d="m 250.4,214.6 c -1.4,1.2 2.8,8.4 2.9,8.6 0.1,0.1 6.5,5.5 7.9,4.4 1.4,-1.2 -2.8,-8.4 -2.9,-8.6 -0.1,-0.2 -6.5,-5.5 -7.9,-4.4 z"
           id="path31"
           inkscape:connector-curvature="0" /><path
           d="m 254.3,748.2 c -0.1,0.1 -2.4,5.9 -0.9,7 1.5,1 6.2,-3.1 6.3,-3.2 0.1,-0.1 2.4,-5.9 0.9,-7 -1.5,-1 -6.2,3.1 -6.3,3.2 z"
           id="path33"
           inkscape:connector-curvature="0" /><path
           d="m 777.1,754.7 c 1.4,-1.1 -1,-6.5 -1.1,-6.6 -0.1,-0.1 -4.8,-3.6 -6.2,-2.5 -1.4,1.1 1,6.5 1.1,6.6 0.1,0.1 4.8,3.6 6.2,2.5 z"
           id="path35"
           inkscape:connector-curvature="0" /><path
           d="m 775.4,223.8 c 0.1,-0.1 3.5,-5.2 2.3,-6.5 -1.2,-1.3 -6.6,1.6 -6.7,1.7 -0.1,0.1 -3.5,5.2 -2.3,6.5 1.2,1.4 6.6,-1.6 6.7,-1.7 z"
           id="path37"
           inkscape:connector-curvature="0" /><path
           d="m 309.6,287.4 c 0.6,-0.6 -1.2,-3.6 -3.1,-6.5 -2,-2.9 -4.1,-5.7 -4.2,-5.8 -0.1,-0.1 -2.7,-2.4 -5.5,-4.6 -2.7,-2.2 -5.6,-4.2 -6.3,-3.6 -0.7,0.6 0.9,3.7 2.8,6.7 1.9,3 4,5.8 4.1,6 0.1,0.1 2.8,2.5 5.6,4.6 2.9,2 5.9,3.9 6.6,3.2 z"
           id="path39"
           inkscape:connector-curvature="0" /><path
           d="m 289.4,286.2 c -0.1,0 -2.9,-0.4 -5.6,-0.3 -2.8,0.1 -5.5,0.5 -5.6,1.4 -0.1,0.9 2.3,2 4.7,3.1 2.4,1.1 4.8,2.1 4.9,2.1 0.1,0 2.7,0.3 5.3,0.5 2.6,0.2 5.3,0.4 5.6,-0.5 0.3,-0.8 -1.8,-2.6 -4.2,-3.9 -2.4,-1.4 -4.9,-2.4 -5.1,-2.4 z"
           id="path41"
           inkscape:connector-curvature="0" /><path
           d="m 310.4,259.9 c -1.7,0.5 -0.6,10.3 -0.5,10.5 0.1,0.2 4,9.3 5.8,8.8 1.7,-0.5 0.6,-10.3 0.5,-10.5 -0.1,-0.2 -4.1,-9.2 -5.8,-8.8 z"
           id="path43"
           inkscape:connector-curvature="0" /><path
           d="m 734.9,272 c -0.6,-0.6 -4.1,1.6 -7.3,4.2 -3.2,2.6 -6.2,5.6 -6.3,5.7 -0.1,0.1 -2.5,3.6 -4.5,7.2 -2,3.6 -3.6,7.4 -2.8,7.9 0.8,0.5 3.6,-2.3 6.5,-5.2 2.9,-2.8 5.7,-5.7 5.8,-5.8 0.1,-0.1 2.4,-3.5 4.7,-6.8 2.3,-3.2 4.5,-6.5 3.9,-7.2 z"
           id="path45"
           inkscape:connector-curvature="0" /><path
           d="m 715.6,274.9 c 0,-0.1 0.1,-2.6 0.1,-5.1 -0.1,-2.5 -0.2,-5.1 -1.1,-5.3 -0.9,-0.2 -2.3,2 -3.4,4.3 -1.1,2.3 -2,4.8 -2,4.9 0,0.1 -0.1,2.7 0,5.3 0.2,2.6 0.7,5.2 1.6,5.3 0.9,0.1 2,-2.2 3,-4.5 1,-2.4 1.8,-4.8 1.8,-4.9 z"
           id="path47"
           inkscape:connector-curvature="0" /><path
           d="m 729.2,297.5 c 0.4,0.8 2.8,0.7 5.1,0.5 2.3,-0.2 4.6,-0.5 4.7,-0.5 0.1,0 2.2,-1 4.2,-2.1 2.1,-1.1 4.2,-2.3 4,-3.2 -0.1,-0.9 -2.6,-1.3 -5.1,-1.3 -2.5,0 -4.9,0.3 -5,0.3 -0.1,0 -2.4,1.1 -4.4,2.5 -2,1.3 -3.8,3 -3.5,3.8 z"
           id="path49"
           inkscape:connector-curvature="0" /><path
           d="m 312.6,675.2 c -0.8,-0.5 -3.4,2.4 -6,5.2 -2.6,2.8 -5.3,5.6 -5.4,5.7 -0.1,0.1 -2.2,3.3 -4.4,6.5 -2.1,3.2 -4.4,6.4 -3.8,7 0.6,0.7 4,-1.4 7.1,-3.9 3.1,-2.5 6,-5.4 6.1,-5.6 0.1,-0.1 2.4,-3.5 4.1,-7.2 1.9,-3.5 3.1,-7.2 2.3,-7.7 z"
           id="path51"
           inkscape:connector-curvature="0" /><path
           d="m 290,676.8 c -0.1,0 -2.7,0.7 -5.3,1.5 -2.6,0.8 -5.2,1.7 -5.2,2.6 0,0.9 2.8,1.6 5.6,2 2.8,0.4 5.7,0.3 5.8,0.3 0.1,0 2.9,-0.8 5.5,-1.9 2.6,-1.1 5.1,-2.6 4.8,-3.4 -0.2,-0.9 -3,-1 -5.7,-1.1 -2.7,-0.1 -5.4,-0.1 -5.5,0 z"
           id="path53"
           inkscape:connector-curvature="0" /><path
           d="m 310.7,705.9 c 1.7,0.5 6.1,-9.4 6.1,-9.6 0.1,-0.2 1.6,-10.9 -0.1,-11.4 -1.7,-0.5 -6.1,9.4 -6.1,9.6 -0.1,0.2 -1.7,10.9 0.1,11.4 z"
           id="path55"
           inkscape:connector-curvature="0" /><path
           d="m 715.9,675.3 c -1.5,1.1 5.5,13.1 5.7,13.4 0.2,0.3 9.5,10.6 11,9.6 1.5,-1.1 -5.5,-13.1 -5.7,-13.4 -0.2,-0.3 -9.5,-10.7 -11,-9.6 z"
           id="path57"
           inkscape:connector-curvature="0" /><path
           d="m 710.1,681 c -1.8,0 -3.3,10.3 -3.3,10.5 0,0.2 1.5,10.5 3.3,10.5 1.8,0 3.3,-10.3 3.3,-10.5 0,-0.2 -1.5,-10.5 -3.3,-10.5 z"
           id="path59"
           inkscape:connector-curvature="0" /><path
           d="m 738.6,677.4 c 2.4,0.6 4.9,1.3 5.4,0.5 0.5,-0.7 -1.1,-2.8 -3.1,-4.6 -2,-1.8 -4.3,-3.2 -4.4,-3.2 -0.1,0 -2.7,-0.8 -5.3,-1.1 -2.6,-0.3 -5.3,-0.1 -5.5,0.7 -0.2,0.9 1.9,2.3 4,3.6 2.1,1.3 4.1,2.6 4.2,2.7 -0.1,0.1 2.3,0.7 4.7,1.4 z"
           id="path61"
           inkscape:connector-curvature="0" /><path
           d="m 513,258.5 c 3.5,0 154.5,-1.5 154.5,-3.3 0,-1.8 -150.9,-3.3 -154.5,-3.3 -3.5,0 -154.6,1.5 -154.6,3.3 0.1,1.8 151.1,3.3 154.6,3.3 z"
           id="path63"
           inkscape:connector-curvature="0" /><path
           d="m 513,704.6 c -3.5,0 -154.6,1.5 -154.6,3.3 0,1.8 151,3.3 154.6,3.3 3.5,0 154.5,-1.5 154.5,-3.3 0,-1.9 -150.9,-3.3 -154.5,-3.3 z"
           id="path65"
           inkscape:connector-curvature="0" /><path
           d="m 751.9,481.6 c 0,3.5 1.5,154.5 3.3,154.5 1.8,0 3.3,-150.9 3.3,-154.5 0,-3.5 -1.5,-154.6 -3.3,-154.6 -1.8,0 -3.3,151.1 -3.3,154.6 z"
           id="path67"
           inkscape:connector-curvature="0" /><path
           d="m 273.5,481.6 c 0,-3.5 -1.5,-154.6 -3.3,-154.6 -1.8,0 -3.3,151 -3.3,154.6 0,3.5 1.5,154.5 3.3,154.5 1.8,0 3.3,-151 3.3,-154.5 z"
           id="path69"
           inkscape:connector-curvature="0" /></g></g></switch></svg>