<?xml version="1.0" encoding="UTF-8" standalone="no"?>
<svg
   xmlns:dc="http://purl.org/dc/elements/1.1/"
   xmlns:cc="http://creativecommons.org/ns#"
   xmlns:rdf="http://www.w3.org/1999/02/22-rdf-syntax-ns#"
   xmlns:svg="http://www.w3.org/2000/svg"
   xmlns="http://www.w3.org/2000/svg"
   xmlns:sodipodi="http://sodipodi.sourceforge.net/DTD/sodipodi-0.dtd"
   xmlns:inkscape="http://www.inkscape.org/namespaces/inkscape"
   version="1.1"
   id="Layer_1"
   x="0px"
   y="0px"
   viewBox="0 0 1000 1000"
   width="100%"
   height="100%"
   style="enable-background:new 0 0 1000 1000;"
   xml:space="preserve"
  ><style
     type="text/css"
     id="style3">
	.noFillSVG{fill:none;}
</style><switch
     id="switch5"
     transform="translate(0.35,99.788135)"><g
       id="g7"><g
         id="g9"><circle
           transform="matrix(0.9871,-0.1602,0.1602,0.9871,-56.0123,84.9587)"
           class="noFillSVG"
           cx="499"
           cy="389.89999"
           id="ellipse11"
           r="186.60001"
           style="fill:none" /><path
           class="noFillSVG"
           d="m 807,582.3 c 0.7,0.9 1.8,1.6 3,1.9 1.2,0.3 2.4,0.2 3.4,-0.2 0.9,-0.4 1.6,-1.1 2.1,-1.8 0.9,-1.5 0.9,-2.8 0.9,-2.8 0,-0.1 0.1,-0.4 0.1,-0.9 0,-0.5 0,-1.2 -0.3,-1.7 -0.2,-0.6 -1,-1.3 -1.9,-1.8 -1,-0.5 -2.2,-0.7 -3.5,-0.6 -1.3,0.1 -2.6,0.5 -3.4,1.1 -0.8,0.6 -1.3,1.7 -1.5,2.8 -0.1,0.5 -0.1,0.9 -0.2,1.3 0.2,0.8 0.6,1.9 1.3,2.7 z"
           id="path13"
           inkscape:connector-curvature="0"
           style="fill:none" /><path
           class="noFillSVG"
           d="m 232.7,512.6 c 1.5,4.3 3.4,8.3 5.9,11.8 2.5,3.6 5.5,6.7 8.7,9.5 6.4,5.5 13.5,9.6 20.2,12.9 6.6,3.3 12.9,5.8 18.2,7.7 10.7,3.7 17.9,5.1 18.7,5.3 1.2,0.2 14.5,3.7 34.5,4.1 10,0.3 21.8,0.3 34.2,1.7 6.2,0.6 12.6,1.7 19,3.1 6.4,1.4 12.9,3.2 19.1,5.6 6.2,2.4 12.3,5.2 17.9,8.7 5.6,3.4 10.7,7.5 15.1,11.8 9,8.7 14.9,19.1 17.8,28.6 3,9.5 3.4,17.8 3.4,23.5 -0.1,2.9 -0.2,5.1 -0.4,6.6 -0.1,0.7 -0.2,1.3 -0.2,1.7 3.7,-2.5 34,-4.4 34.8,-4.4 0.8,0 30.8,1.9 34.7,4.3 -0.1,-0.4 -0.1,-0.9 -0.2,-1.6 -0.2,-1.5 -0.3,-3.8 -0.4,-6.6 -0.1,-5.7 0.4,-14 3.4,-23.5 2.9,-9.4 8.8,-19.9 17.8,-28.6 4.5,-4.3 9.5,-8.4 15.1,-11.8 5.6,-3.4 11.6,-6.3 17.9,-8.7 6.2,-2.4 12.7,-4.1 19.1,-5.6 6.4,-1.4 12.8,-2.4 19,-3.1 12.5,-1.4 24.2,-1.3 34.2,-1.7 20,-0.4 33.3,-3.9 34.5,-4.1 0.8,-0.2 8,-1.6 18.7,-5.3 5.4,-1.9 11.6,-4.3 18.2,-7.7 6.7,-3.3 13.7,-7.4 20.2,-12.9 3.2,-2.8 6.2,-5.9 8.7,-9.5 2.5,-3.5 4.5,-7.6 5.9,-11.8 2.4,-6.9 3.4,-14.3 4.1,-21.7 -0.3,-6.2 -1.4,-13.4 -3.6,-20.7 -2.3,-7.7 -5.7,-15.6 -10.8,-22.5 -5,-6.8 -11.7,-12.4 -19.1,-15.2 -3.6,-1.5 -7.4,-2.2 -11,-2.5 -3.6,-0.2 -7,0.1 -10,1 -6,1.6 -10.4,5 -13.3,7.5 -2.9,2.6 -4.4,4.5 -4.7,4.8 -0.2,0.3 -1.9,2.1 -4.2,5.2 -2.2,3.1 -5.1,7.8 -5.4,14 -0.2,3 0.2,6.4 1.4,9.8 1.1,3.3 3,6.7 5.4,9.7 2.4,2.9 5.6,5.5 9.2,7.3 0.9,0.5 1.8,0.8 2.8,1.2 1,0.3 1.9,0.7 2.9,0.9 2,0.5 4,0.7 6,0.7 4,-0.1 8,-1.5 10.9,-4.1 1.5,-1.3 2.7,-2.8 3.6,-4.5 0.9,-1.7 1.6,-3.5 2,-5.4 0.4,-1.9 0.5,-3.8 0.4,-5.6 0,-0.9 -0.2,-1.8 -0.4,-2.7 -0.3,-0.9 -0.4,-1.7 -0.8,-2.5 -1.3,-3.2 -3.5,-5.9 -6.1,-7.4 -2.6,-1.6 -5.5,-1.5 -7.7,-0.5 -2.3,1 -3.9,2.6 -5,4.1 -1.1,1.5 -1.8,2.8 -2.2,3.7 -0.4,0.9 -0.6,1.4 -0.7,1.4 -0.1,0 0,-0.6 0.2,-1.6 0.3,-1 0.8,-2.4 1.8,-4.1 1,-1.6 2.6,-3.5 5.2,-4.8 1.3,-0.6 2.8,-1.1 4.4,-1.1 1.6,0 3.3,0.4 4.9,1.2 3.1,1.6 5.7,4.6 7.3,8.2 0.5,0.9 0.7,1.9 1,2.8 0.2,1 0.5,2 0.5,3 0.3,2.1 0.2,4.2 -0.2,6.3 -0.3,2.1 -1,4.3 -2.1,6.3 -1,2 -2.4,3.9 -4.1,5.5 -3.4,3.2 -8.1,5 -12.8,5.2 -2.3,0.1 -4.7,-0.1 -7,-0.6 -1.1,-0.2 -2.2,-0.6 -3.3,-0.9 -1.1,-0.4 -2.2,-0.8 -3.2,-1.3 -4.2,-1.9 -7.8,-4.7 -10.7,-8.1 -5.7,-6.6 -8.5,-14.9 -8.2,-22.2 C 655.1,536.2 583,588.7 499,588.7 c -82.9,0 -154.1,-51 -183.9,-123.3 -0.5,6.5 -3.2,13.4 -8.1,19.1 -2.9,3.3 -6.5,6.1 -10.7,8.1 -1,0.5 -2.1,0.9 -3.2,1.3 -1.1,0.3 -2.2,0.7 -3.3,0.9 -2.3,0.5 -4.6,0.7 -7,0.6 -4.7,-0.2 -9.4,-2 -12.8,-5.2 -1.7,-1.6 -3.1,-3.5 -4.1,-5.5 -1,-2 -1.7,-4.1 -2.1,-6.3 -0.4,-2.1 -0.5,-4.3 -0.2,-6.3 0.1,-1 0.3,-2 0.5,-3 0.3,-1 0.6,-1.9 1,-2.8 1.6,-3.6 4.2,-6.6 7.3,-8.2 1.6,-0.8 3.3,-1.3 4.9,-1.2 1.6,0 3.1,0.4 4.4,1.1 2.5,1.3 4.1,3.2 5.2,4.8 1.1,1.6 1.6,3.1 1.8,4.1 0.3,1 0.3,1.5 0.2,1.6 -0.1,0 -0.3,-0.5 -0.7,-1.4 -0.4,-0.9 -1,-2.2 -2.2,-3.7 -1.1,-1.4 -2.7,-3.1 -5,-4.1 -2.2,-1 -5.2,-1 -7.7,0.5 -2.6,1.5 -4.8,4.2 -6.1,7.4 -0.4,0.8 -0.5,1.7 -0.8,2.5 -0.1,0.9 -0.4,1.8 -0.4,2.7 -0.2,1.8 0,3.7 0.4,5.6 0.4,1.9 1,3.7 2,5.4 0.9,1.7 2.1,3.3 3.6,4.5 2.9,2.6 6.9,4 10.9,4.1 2,0.1 4,-0.1 6,-0.7 1,-0.2 1.9,-0.6 2.9,-0.9 0.9,-0.4 1.9,-0.7 2.8,-1.2 3.6,-1.8 6.8,-4.4 9.2,-7.3 2.5,-3 4.3,-6.4 5.4,-9.7 1.1,-3.4 1.6,-6.7 1.4,-9.8 -0.4,-6.1 -3.2,-10.8 -5.4,-14 -2.3,-3.2 -4,-4.9 -4.2,-5.2 -0.3,-0.3 -1.8,-2.2 -4.7,-4.8 -2.9,-2.5 -7.3,-5.9 -13.3,-7.5 -3,-0.8 -6.4,-1.2 -10,-1 -3.6,0.3 -7.3,1.1 -11,2.5 -7.4,2.8 -14.1,8.3 -19.1,15.2 -5.1,6.8 -8.6,14.8 -10.8,22.5 -2.2,7.3 -3.2,14.5 -3.6,20.7 0.8,7.5 1.9,14.9 4.2,21.8 z"
           id="path15"
           inkscape:connector-curvature="0"
           style="fill:none" /><path
           class="noFillSVG"
           d="m 499,584.4 c 107.3,0 194.5,-87.3 194.5,-194.5 0,-107.2 -87.3,-194.5 -194.5,-194.5 -107.2,0 -194.5,87.3 -194.5,194.5 0,107.2 87.2,194.5 194.5,194.5 z m 0,-382.6 c 103.7,0 188.1,84.4 188.1,188.1 C 687.1,493.6 602.7,578 499,578 395.3,578 310.9,493.6 310.9,389.9 310.9,286.2 395.3,201.8 499,201.8 Z"
           id="path17"
           inkscape:connector-curvature="0"
           style="fill:none" /><path
           class="noFillSVG"
           d="m 202.5,462.4 c 0.4,0.3 0.9,0.7 1.3,1 0.6,0.4 1.1,0.9 1.6,1.3 2.1,1.8 4.1,3.6 5.9,5.3 3.6,3.5 6.4,6.9 8.6,9.7 2.2,2.9 3.7,5.3 4.7,6.9 0.1,0.2 0.3,0.5 0.4,0.7 0,-0.6 -0.1,-1.2 -0.1,-1.8 -0.3,-4.7 -0.6,-9.3 -1.1,-13.8 -0.1,-1.1 -0.2,-2.2 -0.4,-3.3 -0.1,-1.1 -0.3,-2.2 -0.5,-3.3 -0.2,-1.1 -0.3,-2.2 -0.6,-3.2 -0.2,-1 -0.6,-1.6 -1.1,-1.9 -1.2,-0.8 -3.5,-0.6 -5.6,-0.6 -2.1,0 -4.2,0.1 -6.2,0.3 -1,0.1 -2,0.2 -3,0.3 -1,0.1 -1.9,0.2 -2.8,0.3 -0.5,0.1 -1.1,0.1 -1.6,0.2 l -0.8,0.1 -0.4,0.1 -0.2,0 -0.1,0 c 0,0 0,0 0.1,0.1 0.6,0.6 1.3,1.1 1.9,1.6 z"
           id="path19"
           inkscape:connector-curvature="0"
           style="fill:none" /><path
           class="noFillSVG"
           d="m 732.7,551.3 c -0.1,0.1 -0.3,0.1 -0.4,0.2 4.1,-0.1 9.1,0.8 13.6,3.7 2.2,1.4 4.3,3.3 6,5.7 0.5,0.8 0.5,0.7 0.7,1 0.1,0.2 0.2,0.4 0.3,0.6 0.1,0.2 0.2,0.4 0.2,0.6 0,0 0,0.1 0,0.1 l 0,-0.2 c 0,-0.1 0,-0.3 0,-0.4 0,-0.3 0.1,-0.5 0.2,-0.7 0,-0.1 0.1,-0.2 0.1,-0.3 l 0.1,-0.1 0,0 c 0,0 -0.1,0.1 0,0 l 0.2,-0.3 c 1,-1.4 2.2,-2.6 3.5,-3.6 2.7,-1.9 6.1,-2.9 9.4,-2.6 3.2,0.2 6.2,1.5 8.6,3.1 2.4,1.6 4.3,3.6 5.8,5.7 1.4,1.9 2.4,4 3,5.9 0.2,-1.3 0.2,-2.8 0,-4.3 -0.3,-2 -0.9,-4 -1.9,-5.9 -1.1,-1.9 -2.6,-3.8 -4.4,-5.4 -3.7,-3.2 -8.7,-5.4 -13.9,-6.2 -5.2,-0.9 -10.6,-0.6 -15.5,0.2 -5,0.7 -9.6,1.9 -13.5,2.8 -0.8,0.1 -1.5,0.2 -2.1,0.4 z"
           id="path21"
           inkscape:connector-curvature="0"
           style="fill:none" /><path
           class="noFillSVG"
           d="m 264.5,550.8 c -3.9,-0.9 -8.5,-2 -13.5,-2.8 -5,-0.7 -10.3,-1.1 -15.5,-0.2 -5.2,0.9 -10.2,3 -13.9,6.2 -1.8,1.6 -3.4,3.4 -4.4,5.4 -1.1,1.9 -1.7,4 -1.9,5.9 -0.2,1.5 -0.2,3 0,4.3 0.6,-2 1.6,-4 3,-5.9 1.5,-2.1 3.4,-4.1 5.8,-5.7 2.4,-1.6 5.3,-2.8 8.6,-3.1 3.3,-0.3 6.7,0.7 9.4,2.6 1.4,1 2.6,2.2 3.5,3.6 l 0.2,0.3 c 0.1,0.1 0,0 0,0 l 0,0 0.1,0.1 c 0.1,0.1 0.1,0.2 0.1,0.3 0.1,0.2 0.1,0.5 0.2,0.7 0,0.1 0,0.2 0,0.4 l 0,0.2 c 0,0 0,-0.1 0,-0.1 0.1,-0.2 0.1,-0.4 0.2,-0.6 0.1,-0.2 0.2,-0.4 0.3,-0.6 0.2,-0.3 0.1,-0.2 0.7,-1 1.7,-2.3 3.8,-4.2 6,-5.7 4.5,-2.9 9.5,-3.8 13.6,-3.7 -0.1,-0.1 -0.3,-0.1 -0.4,-0.2 -0.7,-0.1 -1.4,-0.2 -2.1,-0.4 z"
           id="path23"
           inkscape:connector-curvature="0"
           style="fill:none" /><path
           class="noFillSVG"
           d="m 183.8,582.2 c 0.5,0.7 1.1,1.4 2.1,1.8 0.9,0.4 2.2,0.5 3.4,0.2 1.2,-0.3 2.2,-0.9 3,-1.9 0.7,-0.8 1.1,-1.8 1.3,-2.8 0,-0.4 -0.1,-0.8 -0.2,-1.3 -0.2,-1 -0.7,-2.1 -1.5,-2.8 -0.8,-0.6 -2.1,-1 -3.4,-1.1 -1.3,-0.1 -2.6,0.1 -3.5,0.6 -1,0.5 -1.7,1.2 -1.9,1.8 -0.2,0.5 -0.3,1.2 -0.3,1.7 0,0.5 0.1,0.8 0.1,0.9 0,0.1 -0.1,1.4 0.9,2.9 z"
           id="path25"
           inkscape:connector-curvature="0"
           style="fill:none" /><path
           class="noFillSVG"
           d="m 774.6,486.8 c 1,-1.7 2.6,-4.1 4.7,-6.9 2.2,-2.9 5,-6.2 8.6,-9.7 1.8,-1.8 3.7,-3.6 5.9,-5.3 0.5,-0.4 1.1,-0.9 1.6,-1.3 0.4,-0.3 0.9,-0.7 1.3,-1 0.7,-0.5 1.3,-1 2,-1.5 0,0 0.1,0 0.1,-0.1 l -0.1,0 -0.2,0 -0.4,-0.1 -0.8,-0.1 c -0.5,-0.1 -1.1,-0.1 -1.6,-0.2 -0.9,-0.1 -1.9,-0.2 -2.8,-0.3 -1,-0.1 -2,-0.2 -3,-0.3 -2,-0.1 -4.1,-0.3 -6.2,-0.3 -2.1,0 -4.4,-0.2 -5.6,0.6 -0.6,0.3 -0.9,1 -1.1,1.9 -0.2,0.9 -0.4,2.1 -0.6,3.2 -0.2,1.1 -0.3,2.2 -0.5,3.3 -0.1,1.1 -0.3,2.2 -0.4,3.3 -0.5,4.5 -0.8,9.1 -1.1,13.8 0,0.6 -0.1,1.2 -0.1,1.8 0,-0.3 0.2,-0.6 0.3,-0.8 z"
           id="path27"
           inkscape:connector-curvature="0"
           style="fill:none" /><path
           d="m 499,578 c 103.7,0 188,-84.4 188,-188.1 0,-103.7 -84.3,-188.1 -188,-188.1 -103.7,0 -188.1,84.4 -188.1,188.1 0,103.7 84.4,188.1 188.1,188.1 z m 0,-374.7 c 102.9,0 186.6,83.7 186.6,186.6 0,102.9 -83.7,186.6 -186.6,186.6 C 396.1,576.5 312.4,492.8 312.4,389.9 312.4,287 396,203.3 499,203.3 Z"
           id="path29"
           inkscape:connector-curvature="0" /><path
           d="m 804,577.7 c -0.1,0.5 -0.2,1 -0.3,1.6 -0.1,1.3 0.2,2.9 1,4.4 0.8,1.5 2.4,2.9 4.2,3.6 1.8,0.7 3.8,0.9 5.7,0.4 1.9,-0.5 3.4,-1.7 4.4,-2.9 2,-2.5 2.1,-4.8 2.2,-4.9 0,-0.1 0.1,-0.7 0,-1.6 -0.1,-0.9 -0.2,-2.3 -1.2,-3.9 -1,-1.5 -2.5,-2.6 -4.3,-3.2 -1.8,-0.6 -3.7,-0.7 -5.5,-0.3 -0.9,0.2 -1.8,0.5 -2.6,0.9 -0.8,0.4 -1.6,1 -2.2,1.7 -1.1,1.4 -1.4,3 -1.4,4.2 z m 3.4,-2.2 c 0.8,-0.6 2.1,-1 3.4,-1.1 1.3,-0.1 2.6,0.1 3.5,0.6 1,0.5 1.7,1.2 1.9,1.8 0.2,0.5 0.3,1.2 0.3,1.7 0,0.5 -0.1,0.8 -0.1,0.9 0,0.1 0,1.4 -0.9,2.8 -0.5,0.7 -1.1,1.4 -2.1,1.8 -0.9,0.4 -2.2,0.5 -3.4,0.2 -1.2,-0.3 -2.2,-0.9 -3,-1.9 -0.7,-0.8 -1.1,-1.8 -1.3,-2.8 0,-0.4 0.1,-0.8 0.2,-1.3 0.2,-1 0.7,-2.1 1.5,-2.7 z"
           id="path31"
           inkscape:connector-curvature="0" /><path
           d="m 201.7,464.3 0.9,0.7 c 0.6,0.4 1.1,0.8 1.6,1.3 2.2,1.7 4.1,3.4 5.9,5 3.6,3.3 6.5,6.5 8.8,9.2 3,3.6 5,6.4 6.1,7.8 0.6,8.5 1.5,17.1 4.1,25.4 1.5,4.6 3.5,9 6.2,12.9 2.6,3.9 5.8,7.3 9.2,10.4 4.6,4.1 9.5,7.4 14.4,10.2 -2.3,-0.7 -4.8,-1.3 -7.5,-1.8 -5.1,-1 -10.7,-1.6 -16.5,-0.9 -5.7,0.7 -11.4,2.9 -15.9,6.5 -2.2,1.8 -4.1,3.9 -5.5,6.3 -1.4,2.4 -2.3,4.9 -2.7,7.4 -0.8,4.9 0.2,9.3 1.8,12.4 1.6,3.1 3.5,4.7 4.2,5.3 l 11.7,10.7 -8.1,-13.9 c -0.1,-0.1 -0.1,-0.2 -0.1,-0.2 -0.1,-0.2 -0.9,-1.2 -1.1,-3.4 -0.2,-2.2 0.4,-5.8 2.7,-9.2 1.1,-1.7 2.7,-3.4 4.5,-4.7 1.9,-1.3 4.1,-2.3 6.5,-2.6 2.3,-0.3 4.8,0.3 6.9,1.7 1,0.7 2,1.5 2.7,2.5 l 0.1,0.2 c 0,0 0.1,0.2 0.1,0.2 l 0.1,0.2 0.4,0.9 0.2,0.5 0.1,0.2 0.1,0.4 0.2,1.7 0.1,0.8 0,0.4 0.1,0.6 0.2,2.5 0.4,5.2 0.4,-1.4 0.2,-0.4 0.2,-0.4 0.3,-1 c 0.4,-1.5 0.8,-3 1.3,-4.6 0.4,-1.5 0.9,-3.1 1.4,-4.1 0.4,-1.2 1.1,-2.3 1.4,-2.6 1.4,-2.1 3.1,-3.8 5,-5.2 3.9,-2.8 8.4,-3.9 12.2,-4.1 1.3,-0.1 2.6,-0.1 3.7,0 4.8,2.2 9.3,4.1 13.4,5.5 11,3.9 18.4,5.4 19.2,5.6 0.6,0.1 4.3,1 10.5,1.9 3.1,0.5 6.8,0.9 11,1.3 4.2,0.3 8.9,0.5 14,0.6 10.1,0.2 21.7,0 33.9,1.2 6.1,0.5 12.4,1.4 18.7,2.7 6.3,1.3 12.6,2.9 18.7,5.1 6.1,2.2 12,4.9 17.5,8.1 5.5,3.2 10.5,7 14.9,11.1 8.9,8.2 14.8,18.1 17.9,27.2 3.2,9.1 3.9,17.3 4.2,22.9 0.2,4.5 0,7.5 0.1,8.5 0,0 0,0 0,0.1 -0.1,-0.3 -0.4,-0.7 -0.7,-1.3 -0.3,-0.5 -0.7,-1.2 -1.2,-1.9 -0.5,-0.7 -1.1,-1.5 -1.7,-2.5 -2.6,-3.7 -6.7,-8.7 -12.5,-13.9 -2.9,-2.6 -6.2,-5.2 -9.9,-7.7 -3.7,-2.5 -7.8,-4.9 -12.2,-7 -8.8,-4.2 -19,-7.1 -29.5,-8.2 -10.5,-1.1 -21.1,-0.2 -30.8,2.1 -4.9,1.1 -9.5,2.6 -13.7,4.4 -4.3,1.7 -8.2,3.7 -11.7,5.7 -7,4.1 -12.4,8.2 -16.3,11.1 -3.9,2.9 -6.3,4.6 -6.6,4.9 -0.4,0.3 -2.7,2.1 -6.6,4.8 -3.9,2.7 -9.4,6.4 -16.4,9.5 -7,3.1 -15.8,5.3 -25.3,5.8 -9.5,0.6 -19.8,-0.5 -29.5,-3.1 -4.8,-1.4 -9.5,-3.3 -13.5,-6 -4,-2.7 -7.1,-6.5 -9,-10.6 -0.9,-2.1 -1.5,-4.2 -1.7,-6.4 -0.2,-2.2 0.1,-4.3 0.7,-6.2 1.3,-3.9 3.9,-7.2 7,-8.9 1.6,-0.9 3.2,-1.4 4.8,-1.5 1.6,-0.1 3.2,0.1 4.6,0.6 1.4,0.5 2.6,1.2 3.7,1.9 1,0.8 1.9,1.6 2.5,2.5 1.3,1.7 1.8,3.4 2,4.5 0.2,1.1 0.2,1.8 0.3,1.8 0.1,0 0.2,-0.6 0.2,-1.9 0,-1.2 -0.4,-3.1 -1.7,-5 -0.6,-1 -1.5,-1.9 -2.6,-2.9 -1.1,-0.9 -2.4,-1.7 -3.9,-2.3 -1.5,-0.6 -3.3,-1 -5.2,-0.9 -1.9,0.1 -3.8,0.6 -5.7,1.5 -3.7,1.9 -6.7,5.5 -8.3,9.9 -0.8,2.2 -1.1,4.7 -1,7.1 0.1,2.5 0.7,4.9 1.7,7.3 2,4.7 5.4,8.9 9.7,12 4.3,3.1 9.3,5.3 14.3,6.8 10.1,3 20.7,4.3 30.7,3.9 10,-0.4 19.3,-2.6 26.8,-5.7 7.5,-3.2 13.3,-7 17.3,-9.7 4,-2.8 6.4,-4.6 6.8,-4.8 0.1,-0.1 0.4,-0.3 0.9,-0.7 -1.9,2.7 -3.7,5.5 -5.1,8.6 -2.6,5.8 -4.1,12.3 -3.6,18.5 0.2,3.1 0.9,6.1 2.1,8.8 1.2,2.7 2.8,5.1 4.6,6.9 3.7,3.7 7.8,5.5 10.7,6.5 3,0.9 4.9,1.1 5.2,1.2 0.3,0 2.2,0.3 5.3,0.2 3.1,-0.1 7.4,-0.7 12,-2.9 2.3,-1.1 4.7,-2.6 6.8,-4.7 2.1,-2 3.9,-4.6 5.2,-7.4 1.3,-2.9 2.1,-6.1 2,-9.5 -0.1,-3.3 -1.1,-6.7 -2.9,-9.6 -1.8,-2.8 -4.2,-5.3 -7.2,-6.8 -2.9,-1.5 -6.3,-2.1 -9.4,-1.6 -6.2,0.9 -11.1,5.3 -12.4,10.1 -0.7,2.4 -0.7,4.7 0,6.6 0.7,1.9 2.1,3.2 3.3,3.9 1.3,0.7 2.4,0.7 3.2,0.6 0.7,-0.1 1.1,-0.3 1.1,-0.4 0,-0.2 -1.7,0.3 -3.8,-1.1 -1,-0.7 -2,-1.8 -2.5,-3.5 -0.4,-1.6 -0.4,-3.6 0.4,-5.6 1.4,-4 5.8,-7.5 11,-8 2.6,-0.3 5.2,0.3 7.6,1.6 2.4,1.3 4.3,3.4 5.7,5.8 1.4,2.4 2.1,5.1 2.1,7.8 0,2.7 -0.7,5.4 -1.9,7.7 -1.2,2.4 -2.7,4.4 -4.5,6 -1.8,1.6 -3.8,2.8 -5.7,3.7 -3.9,1.8 -7.7,2.1 -10.3,2.2 -2.6,0 -4.3,-0.3 -4.5,-0.3 -0.3,-0.1 -1.9,-0.2 -4.4,-0.9 -2.5,-0.7 -6,-2.2 -9,-5.1 -3,-2.9 -5.3,-7.5 -5.8,-12.9 -0.6,-5.4 0.5,-11.3 2.7,-16.7 2.2,-5.5 5.6,-10.4 9.4,-14.6 1.4,-1.5 2.8,-2.9 4.3,-4.2 2.8,-2 6,-4.3 9.7,-6.5 3.3,-2 7,-3.9 11.1,-5.7 4,-1.7 8.4,-3.3 13,-4.4 9.2,-2.3 19.5,-3.4 29.6,-2.5 10.1,0.8 20,3.4 28.7,7.2 4.3,1.9 8.4,4.1 12.1,6.4 3.7,2.3 7,4.8 9.9,7.2 5.8,4.9 10.1,9.6 12.9,13 0.7,0.9 1.3,1.6 1.9,2.3 0.5,0.7 1,1.3 1.3,1.7 0.5,0.6 0.8,1 1,1.2 0.1,2.7 34.4,4.8 35.2,4.8 0.8,0 35.1,-2.2 35.1,-4.9 0,0 0,0 0,0 0.2,-0.2 0.5,-0.6 1,-1.2 0.4,-0.5 0.8,-1.1 1.3,-1.7 0.5,-0.7 1.2,-1.4 1.9,-2.3 2.8,-3.4 7.1,-8.2 12.9,-13 3,-2.4 6.2,-4.9 9.9,-7.2 3.7,-2.3 7.7,-4.5 12.1,-6.4 8.7,-3.8 18.6,-6.4 28.7,-7.2 10.1,-0.8 20.3,0.2 29.6,2.5 4.6,1.1 9,2.7 13,4.4 4,1.7 7.7,3.6 11.1,5.7 3.7,2.2 6.9,4.5 9.7,6.5 1.4,1.3 2.9,2.7 4.3,4.2 3.7,4.1 7.1,9.1 9.4,14.6 2.2,5.5 3.3,11.4 2.7,16.7 -0.5,5.4 -2.8,10 -5.8,12.9 -3,2.9 -6.5,4.4 -9,5.1 -2.5,0.7 -4.2,0.9 -4.4,0.9 -0.3,0 -1.9,0.3 -4.5,0.3 -2.6,-0.1 -6.4,-0.4 -10.3,-2.2 -2,-0.9 -4,-2.1 -5.7,-3.7 -1.8,-1.6 -3.4,-3.7 -4.5,-6 -1.1,-2.4 -1.9,-5 -1.9,-7.7 0,-2.7 0.7,-5.4 2.1,-7.8 1.4,-2.4 3.4,-4.5 5.7,-5.8 2.4,-1.3 5,-2 7.6,-1.6 5.2,0.5 9.6,4.1 11,8 0.8,2 0.8,4 0.4,5.6 -0.4,1.6 -1.4,2.8 -2.5,3.5 -2.1,1.4 -3.8,0.9 -3.8,1.1 0,0.1 0.3,0.3 1.1,0.4 0.7,0.1 1.9,0 3.2,-0.6 1.3,-0.6 2.7,-2 3.3,-3.9 0.7,-1.9 0.8,-4.3 0,-6.6 -1.3,-4.8 -6.2,-9.2 -12.4,-10.1 -3.1,-0.5 -6.5,0.1 -9.4,1.6 -3,1.5 -5.4,3.9 -7.2,6.8 -1.8,2.8 -2.8,6.2 -2.9,9.6 -0.1,3.3 0.7,6.6 2,9.5 1.3,2.9 3.1,5.4 5.2,7.4 2.1,2 4.5,3.6 6.8,4.7 4.6,2.2 9,2.8 12,2.9 3.1,0.1 5,-0.2 5.3,-0.2 0.3,-0.1 2.2,-0.3 5.2,-1.2 2.9,-1 7,-2.7 10.7,-6.5 1.8,-1.9 3.4,-4.2 4.6,-6.9 1.1,-2.7 1.9,-5.7 2.1,-8.8 0.5,-6.2 -0.9,-12.7 -3.6,-18.5 -1.4,-3.1 -3.1,-6 -5.1,-8.6 0.5,0.4 0.8,0.6 0.9,0.7 0.4,0.3 2.8,2.1 6.8,4.8 4,2.7 9.8,6.5 17.3,9.7 7.5,3.2 16.8,5.4 26.8,5.7 10,0.4 20.5,-0.9 30.7,-3.9 5.1,-1.5 10,-3.7 14.3,-6.8 4.3,-3.1 7.7,-7.3 9.7,-12 1,-2.4 1.6,-4.8 1.7,-7.3 0.1,-2.5 -0.2,-4.9 -1,-7.1 -1.6,-4.4 -4.6,-8 -8.3,-9.9 -1.8,-0.9 -3.8,-1.5 -5.7,-1.5 -1.9,-0.1 -3.6,0.3 -5.2,0.9 -1.5,0.6 -2.8,1.4 -3.9,2.3 -1.1,0.9 -1.9,1.9 -2.6,2.9 -1.3,1.9 -1.7,3.8 -1.7,5 -0.1,1.2 0.1,1.9 0.2,1.9 0.1,0 0.1,-0.7 0.3,-1.8 0.2,-1.1 0.7,-2.8 2,-4.5 0.6,-0.9 1.5,-1.7 2.5,-2.5 1,-0.8 2.3,-1.4 3.7,-1.9 1.4,-0.5 3,-0.7 4.6,-0.6 1.6,0.1 3.3,0.6 4.8,1.5 3.1,1.7 5.7,5 7,8.9 0.6,2 0.9,4.1 0.7,6.2 -0.2,2.2 -0.8,4.3 -1.7,6.4 -1.9,4.1 -5,7.9 -9,10.6 -4,2.8 -8.6,4.7 -13.5,6 -9.8,2.6 -20,3.7 -29.5,3.1 -9.5,-0.5 -18.3,-2.7 -25.3,-5.8 -7,-3.1 -12.5,-6.8 -16.4,-9.5 -3.9,-2.7 -6.2,-4.6 -6.6,-4.8 -0.4,-0.3 -2.8,-2.1 -6.6,-4.9 -3.9,-2.9 -9.3,-6.9 -16.3,-11.1 -3.5,-2.1 -7.4,-4 -11.7,-5.7 -4.3,-1.7 -8.9,-3.3 -13.7,-4.4 -9.7,-2.3 -20.4,-3.2 -30.8,-2.1 -10.5,1 -20.7,4 -29.5,8.2 -4.4,2.1 -8.5,4.5 -12.2,7 -3.7,2.5 -7,5.2 -9.9,7.7 -5.8,5.2 -9.9,10.2 -12.5,13.9 -0.6,0.9 -1.2,1.7 -1.7,2.5 -0.5,0.7 -0.8,1.4 -1.2,1.9 -0.3,0.6 -0.6,1 -0.7,1.2 0,0 0,0 -0.1,-0.1 0,-1.1 -0.1,-4 0.1,-8.5 0.2,-5.6 1,-13.8 4.2,-22.9 3.1,-9.1 9,-19 17.9,-27.2 4.4,-4.1 9.4,-7.9 14.9,-11.1 5.5,-3.2 11.4,-5.9 17.5,-8.1 6.1,-2.2 12.4,-3.8 18.7,-5.1 6.3,-1.3 12.5,-2.2 18.7,-2.7 12.2,-1.2 23.8,-1 33.9,-1.2 5.1,-0.1 9.8,-0.3 14,-0.6 4.2,-0.4 7.9,-0.8 11,-1.3 6.2,-0.9 9.9,-1.8 10.5,-1.9 0.8,-0.2 8.2,-1.7 19.2,-5.6 4,-1.5 8.6,-3.3 13.4,-5.5 1.2,-0.1 2.4,-0.1 3.7,0 3.8,0.2 8.3,1.3 12.2,4.1 1.9,1.4 3.7,3.1 5,5.2 0.2,0.4 1,1.4 1.4,2.6 0.5,1 0.9,2.6 1.4,4.1 0.4,1.5 0.8,3 1.3,4.6 l 0.3,1 0.2,0.4 0.2,0.4 0.4,1.4 0.4,-5.2 0.2,-2.5 0.1,-0.6 0,-0.4 0.1,-0.8 0.2,-1.7 0.1,-0.4 0.1,-0.2 0.2,-0.5 0.4,-0.9 0.1,-0.2 c 0,-0.1 0.1,-0.2 0.1,-0.2 l 0.1,-0.2 c 0.7,-1 1.7,-1.9 2.7,-2.5 2.1,-1.4 4.6,-2 6.9,-1.7 2.4,0.3 4.6,1.3 6.5,2.6 1.9,1.4 3.4,3 4.5,4.7 2.3,3.4 3,7 2.7,9.2 -0.2,2.2 -1,3.3 -1.1,3.4 0,0 -0.1,0.1 -0.1,0.2 l -8.1,13.9 11.7,-10.7 c 0.7,-0.6 2.6,-2.2 4.2,-5.3 1.5,-3 2.6,-7.5 1.8,-12.4 -0.4,-2.4 -1.2,-5 -2.7,-7.4 -1.4,-2.4 -3.3,-4.5 -5.5,-6.3 -4.5,-3.6 -10.2,-5.8 -15.9,-6.5 -5.8,-0.7 -11.4,-0.1 -16.5,0.9 -2.6,0.5 -5.1,1.2 -7.5,1.8 4.8,-2.8 9.7,-6.1 14.4,-10.2 3.3,-3 6.5,-6.4 9.2,-10.4 2.7,-3.9 4.7,-8.3 6.2,-12.9 2.7,-8.3 3.5,-17 4.1,-25.4 1.1,-1.4 3,-4.2 6.1,-7.8 2.3,-2.7 5.2,-5.9 8.8,-9.2 1.8,-1.7 3.8,-3.4 5.9,-5 0.5,-0.4 1.1,-0.9 1.6,-1.3 l 0.9,-0.7 c 0.4,-0.3 0.8,-0.6 1.3,-0.9 1.7,-1.2 3.5,-2.4 5.4,-3.7 0,0 0,-0.1 -0.1,-0.1 l -0.2,0 -0.5,-0.1 -1,-0.2 c -0.7,-0.1 -1.3,-0.3 -2,-0.4 -1.3,-0.3 -2.7,-0.5 -4.2,-0.7 -1,-0.1 -2.1,-0.3 -3.1,-0.4 -1,-0.1 -2,-0.2 -3.1,-0.3 -2.1,-0.2 -4.2,-0.4 -6.3,-0.4 -1.1,0 -2.1,-0.1 -3.3,-0.1 -1.2,0 -2.5,0.1 -3.8,0.9 -0.6,0.4 -1.2,1 -1.6,1.6 -0.4,0.6 -0.6,1.3 -0.8,1.9 -0.3,1.2 -0.5,2.3 -0.7,3.4 -0.2,1.1 -0.4,2.2 -0.6,3.4 -0.2,1.1 -0.3,2.3 -0.5,3.4 -0.3,2.6 -0.6,5.2 -0.8,7.8 -0.5,-3.2 -1.1,-6.5 -2,-9.9 -2.1,-8 -5.5,-16.4 -10.7,-23.7 -2.6,-3.7 -5.6,-7.1 -9.1,-10 -3.4,-2.9 -7.3,-5.2 -11.3,-6.9 -4,-1.7 -8.1,-2.7 -12.2,-3 -4,-0.3 -7.9,0 -11.4,0.9 -3.5,0.9 -6.6,2.3 -9.1,3.8 -2.5,1.5 -4.6,3.1 -6.2,4.5 -3.2,2.8 -4.9,4.8 -5.2,5.1 -0.3,0.3 -2,2.2 -4.5,5.7 -0.2,0.3 -0.4,0.6 -0.6,0.9 5.4,-18 8.3,-37.1 8.3,-56.8 C 697.4,280.2 608.2,191 498.6,191 389,191 299.8,280.2 299.8,389.8 c 0,18.6 2.6,36.6 7.4,53.6 -1.6,-2.1 -2.6,-3.2 -2.8,-3.5 -0.3,-0.3 -2,-2.3 -5.2,-5.1 -1.6,-1.4 -3.7,-3 -6.2,-4.5 -2.5,-1.5 -5.6,-2.9 -9.1,-3.8 -3.5,-0.9 -7.4,-1.2 -11.4,-0.9 -4,0.4 -8.2,1.3 -12.2,3 -4,1.7 -7.9,4 -11.3,6.9 -3.4,2.9 -6.5,6.3 -9.1,10 -5.2,7.4 -8.6,15.7 -10.7,23.7 -0.9,3.4 -1.5,6.7 -2,9.9 -0.2,-2.6 -0.5,-5.2 -0.8,-7.8 -0.1,-1.1 -0.3,-2.3 -0.5,-3.4 -0.2,-1.1 -0.3,-2.3 -0.6,-3.4 -0.2,-1.1 -0.4,-2.2 -0.7,-3.4 -0.2,-0.6 -0.4,-1.2 -0.8,-1.9 -0.4,-0.6 -1,-1.2 -1.6,-1.6 -1.3,-0.8 -2.7,-0.9 -3.8,-0.9 -1.2,0 -2.2,0 -3.3,0.1 -2.2,0.1 -4.3,0.2 -6.3,0.4 -1,0.1 -2.1,0.2 -3.1,0.3 -1.1,0.1 -2.1,0.3 -3.1,0.4 -1.4,0.2 -2.8,0.5 -4.2,0.7 -0.7,0.1 -1.3,0.3 -2,0.4 l -1,0.2 -0.5,0.1 -0.2,0 c 0,0 0,0.1 -0.1,0.1 1.9,1.2 3.6,2.5 5.4,3.7 0.9,0.6 1.3,0.9 1.7,1.2 z m 573.7,7.6 c 0.1,-1.1 0.2,-2.2 0.4,-3.3 0.1,-1.1 0.3,-2.2 0.5,-3.3 0.2,-1.1 0.3,-2.2 0.6,-3.2 0.2,-1 0.6,-1.6 1.1,-1.9 1.2,-0.8 3.5,-0.6 5.6,-0.6 2.1,0 4.2,0.1 6.2,0.3 1,0.1 2,0.2 3,0.3 1,0.1 1.9,0.2 2.8,0.3 0.5,0.1 1.1,0.1 1.6,0.2 l 0.8,0.1 0.4,0.1 0.2,0 0.1,0 c 0,0 0,0 -0.1,0.1 -0.7,0.5 -1.3,0.9 -2,1.5 -0.4,0.3 -0.9,0.7 -1.3,1 -0.6,0.4 -1.1,0.9 -1.6,1.3 -2.1,1.8 -4.1,3.6 -5.9,5.3 -3.6,3.5 -6.4,6.9 -8.6,9.7 -2.2,2.9 -3.7,5.3 -4.7,6.9 -0.1,0.2 -0.3,0.5 -0.4,0.7 0,-0.6 0.1,-1.2 0.1,-1.8 0.4,-4.6 0.7,-9.2 1.2,-13.7 z m -522,83.3 c -2.2,1.4 -4.3,3.3 -6,5.7 -0.5,0.8 -0.5,0.7 -0.7,1 -0.1,0.2 -0.2,0.4 -0.3,0.6 -0.1,0.2 -0.2,0.4 -0.2,0.6 0,0 0,0.1 0,0.1 l 0,-0.2 c 0,-0.1 0,-0.3 0,-0.4 0,-0.3 -0.1,-0.5 -0.2,-0.7 0,-0.1 -0.1,-0.2 -0.1,-0.3 l -0.1,-0.1 0,0 c 0,0 0.1,0.1 0,0 l -0.2,-0.3 c -1,-1.4 -2.2,-2.6 -3.5,-3.6 -2.7,-1.9 -6.1,-2.9 -9.4,-2.6 -3.2,0.2 -6.2,1.5 -8.6,3.1 -2.4,1.6 -4.3,3.6 -5.8,5.7 -1.4,1.9 -2.4,4 -3,5.9 -0.2,-1.3 -0.2,-2.8 0,-4.3 0.3,-2 0.9,-4 1.9,-5.9 1.1,-1.9 2.6,-3.8 4.4,-5.4 3.7,-3.2 8.7,-5.4 13.9,-6.2 5.2,-0.9 10.6,-0.6 15.5,0.2 5,0.7 9.6,1.9 13.5,2.8 0.7,0.2 1.4,0.3 2,0.5 0.1,0.1 0.3,0.1 0.4,0.2 -4,-0.2 -9,0.7 -13.5,3.6 z M 748.2,548 c 5,-0.7 10.3,-1.1 15.5,-0.2 5.2,0.9 10.2,3 13.9,6.2 1.8,1.6 3.4,3.4 4.4,5.4 1.1,1.9 1.7,4 1.9,5.9 0.2,1.5 0.2,3 0,4.3 -0.6,-2 -1.6,-4 -3,-5.9 -1.5,-2.1 -3.4,-4.1 -5.8,-5.7 -2.4,-1.6 -5.3,-2.8 -8.6,-3.1 -3.3,-0.3 -6.7,0.7 -9.4,2.6 -1.4,1 -2.6,2.2 -3.5,3.6 l -0.2,0.3 c -0.1,0.1 0,0 0,0 l 0,0 -0.1,0.1 c -0.1,0.1 -0.1,0.2 -0.1,0.3 -0.1,0.2 -0.1,0.5 -0.2,0.7 0,0.1 0,0.2 0,0.4 l 0,0.2 c 0,0 0,-0.1 0,-0.1 -0.1,-0.2 -0.1,-0.4 -0.2,-0.6 -0.1,-0.2 -0.2,-0.4 -0.3,-0.6 -0.2,-0.3 -0.1,-0.2 -0.7,-1 -1.7,-2.3 -3.8,-4.2 -6,-5.7 -4.5,-2.9 -9.5,-3.8 -13.6,-3.7 0.1,-0.1 0.3,-0.1 0.4,-0.2 0.7,-0.2 1.3,-0.3 2,-0.5 4,-0.8 8.6,-1.9 13.6,-2.7 z M 499,195.4 c 107.3,0 194.5,87.3 194.5,194.5 0,107.2 -87.3,194.5 -194.5,194.5 -107.2,0 -194.5,-87.3 -194.5,-194.5 0,-107.2 87.2,-194.5 194.5,-194.5 z M 232.2,470.2 c 2.3,-7.7 5.7,-15.6 10.8,-22.5 5,-6.8 11.7,-12.4 19.1,-15.2 3.6,-1.5 7.4,-2.2 11,-2.5 3.6,-0.2 7,0.1 10,1 6,1.6 10.4,5 13.3,7.5 2.9,2.6 4.4,4.5 4.7,4.8 0.2,0.3 1.9,2.1 4.2,5.2 2.2,3.1 5.1,7.8 5.4,14 0.2,3 -0.2,6.4 -1.4,9.8 -1.1,3.3 -3,6.7 -5.4,9.7 -2.4,2.9 -5.6,5.5 -9.2,7.3 -0.9,0.5 -1.8,0.8 -2.8,1.2 -1,0.3 -1.9,0.7 -2.9,0.9 -2,0.5 -4,0.7 -6,0.7 -4,-0.1 -8,-1.5 -10.9,-4.1 -1.5,-1.3 -2.7,-2.8 -3.6,-4.5 -0.9,-1.7 -1.6,-3.5 -2,-5.4 -0.4,-1.9 -0.5,-3.8 -0.4,-5.6 0,-0.9 0.2,-1.8 0.4,-2.7 0.3,-0.9 0.4,-1.7 0.8,-2.5 1.3,-3.2 3.5,-5.9 6.1,-7.4 2.6,-1.6 5.5,-1.5 7.7,-0.5 2.3,1 3.9,2.6 5,4.1 1.1,1.5 1.8,2.8 2.2,3.7 0.4,0.9 0.6,1.4 0.7,1.4 0.1,0 0,-0.6 -0.2,-1.6 -0.3,-1 -0.8,-2.4 -1.8,-4.1 -1,-1.6 -2.6,-3.5 -5.2,-4.8 -1.3,-0.6 -2.8,-1.1 -4.4,-1.1 -1.6,0 -3.3,0.4 -4.9,1.2 -3.1,1.6 -5.7,4.6 -7.3,8.2 -0.5,0.9 -0.7,1.9 -1,2.8 -0.2,1 -0.5,2 -0.5,3 -0.3,2.1 -0.2,4.2 0.2,6.3 0.3,2.1 1,4.3 2.1,6.3 1,2 2.4,3.9 4.1,5.5 3.4,3.2 8.1,5 12.8,5.2 2.3,0.1 4.7,-0.1 7,-0.6 1.1,-0.2 2.2,-0.6 3.3,-0.9 1.1,-0.4 2.2,-0.8 3.2,-1.3 4.2,-1.9 7.8,-4.7 10.7,-8.1 4.9,-5.7 7.6,-12.6 8.1,-19.1 29.8,72.3 101,123.3 183.9,123.3 84.1,0 156.2,-52.5 185.2,-126.4 -0.3,7.3 2.5,15.6 8.2,22.2 2.9,3.3 6.5,6.1 10.7,8.1 1,0.5 2.1,0.9 3.2,1.3 1.1,0.3 2.2,0.7 3.3,0.9 2.3,0.5 4.6,0.7 7,0.6 4.7,-0.2 9.4,-2 12.8,-5.2 1.7,-1.6 3.1,-3.5 4.1,-5.5 1,-2 1.7,-4.1 2.1,-6.3 0.4,-2.1 0.5,-4.3 0.2,-6.3 -0.1,-1 -0.3,-2 -0.5,-3 -0.3,-1 -0.6,-1.9 -1,-2.8 -1.6,-3.6 -4.2,-6.6 -7.3,-8.2 -1.6,-0.8 -3.3,-1.3 -4.9,-1.2 -1.6,0 -3.1,0.4 -4.4,1.1 -2.5,1.3 -4.1,3.2 -5.2,4.8 -1.1,1.6 -1.6,3.1 -1.8,4.1 -0.3,1 -0.3,1.5 -0.2,1.6 0.1,0 0.3,-0.5 0.7,-1.4 0.4,-0.9 1,-2.2 2.2,-3.7 1.1,-1.4 2.7,-3.1 5,-4.1 2.2,-1 5.2,-1 7.7,0.5 2.6,1.5 4.8,4.2 6.1,7.4 0.4,0.8 0.5,1.7 0.8,2.5 0.1,0.9 0.4,1.8 0.4,2.7 0.2,1.8 0,3.7 -0.4,5.6 -0.4,1.9 -1,3.7 -2,5.4 -0.9,1.7 -2.1,3.3 -3.6,4.5 -2.9,2.6 -6.9,4 -10.9,4.1 -2,0.1 -4,-0.1 -6,-0.7 -1,-0.2 -1.9,-0.6 -2.9,-0.9 -0.9,-0.4 -1.9,-0.7 -2.8,-1.2 -3.6,-1.8 -6.8,-4.4 -9.2,-7.3 -2.5,-3 -4.3,-6.4 -5.4,-9.7 -1.1,-3.4 -1.6,-6.7 -1.4,-9.8 0.4,-6.1 3.2,-10.8 5.4,-14 2.3,-3.2 4,-4.9 4.2,-5.2 0.3,-0.3 1.8,-2.2 4.7,-4.8 2.9,-2.5 7.3,-5.9 13.3,-7.5 3,-0.8 6.4,-1.2 10,-1 3.6,0.3 7.3,1.1 11,2.5 7.4,2.8 14.1,8.3 19.1,15.2 5.1,6.8 8.6,14.8 10.8,22.5 2.2,7.3 3.2,14.5 3.6,20.7 -0.7,7.4 -1.8,14.9 -4.1,21.7 -1.5,4.3 -3.4,8.3 -5.9,11.8 -2.5,3.6 -5.5,6.7 -8.7,9.5 -6.4,5.5 -13.5,9.6 -20.2,12.9 -6.6,3.3 -12.9,5.8 -18.2,7.7 -10.7,3.7 -17.9,5.1 -18.7,5.3 -1.2,0.2 -14.5,3.7 -34.5,4.1 -10,0.3 -21.8,0.3 -34.2,1.7 -6.2,0.6 -12.6,1.7 -19,3.1 -6.4,1.4 -12.9,3.2 -19.1,5.6 -6.2,2.4 -12.3,5.2 -17.9,8.7 -5.6,3.4 -10.7,7.5 -15.1,11.8 -9,8.7 -14.9,19.1 -17.8,28.6 -3,9.5 -3.4,17.8 -3.4,23.5 0.1,2.9 0.2,5.1 0.4,6.6 0.1,0.7 0.2,1.3 0.2,1.6 -3.9,-2.4 -34,-4.3 -34.7,-4.3 -0.8,0 -31.1,1.9 -34.8,4.4 0.1,-0.4 0.1,-0.9 0.2,-1.7 0.2,-1.5 0.3,-3.8 0.4,-6.6 0.1,-5.7 -0.4,-14 -3.4,-23.5 -2.9,-9.4 -8.8,-19.9 -17.8,-28.6 -4.5,-4.3 -9.5,-8.4 -15.1,-11.8 -5.6,-3.4 -11.6,-6.3 -17.9,-8.7 -6.2,-2.4 -12.7,-4.1 -19.1,-5.6 -6.4,-1.4 -12.8,-2.4 -19,-3.1 -12.5,-1.4 -24.2,-1.3 -34.2,-1.7 -20,-0.4 -33.3,-3.9 -34.5,-4.1 -0.8,-0.2 -8,-1.6 -18.7,-5.3 -5.4,-1.9 -11.6,-4.3 -18.2,-7.7 -6.7,-3.3 -13.7,-7.4 -20.2,-12.9 -3.2,-2.8 -6.2,-5.9 -8.7,-9.5 -2.5,-3.5 -4.5,-7.6 -5.9,-11.8 -2.4,-6.9 -3.4,-14.3 -4.1,-21.7 -0.1,-6.2 0.9,-13.4 3.1,-20.7 z m -31.6,-9.3 0.2,0 0.4,-0.1 0.8,-0.1 c 0.5,-0.1 1.1,-0.1 1.6,-0.2 0.9,-0.1 1.9,-0.2 2.8,-0.3 1,-0.1 2,-0.2 3,-0.3 2,-0.1 4.1,-0.3 6.2,-0.3 2.1,0 4.4,-0.2 5.6,0.6 0.6,0.3 0.9,1 1.1,1.9 0.2,0.9 0.4,2.1 0.6,3.2 0.2,1.1 0.3,2.2 0.5,3.3 0.1,1.1 0.3,2.2 0.4,3.3 0.5,4.5 0.8,9.1 1.1,13.8 0,0.6 0.1,1.2 0.1,1.8 -0.1,-0.2 -0.3,-0.4 -0.4,-0.7 -1,-1.7 -2.6,-4.1 -4.7,-6.9 -2.2,-2.9 -5,-6.2 -8.6,-9.7 -1.8,-1.8 -3.7,-3.6 -5.9,-5.3 -0.5,-0.4 -1.1,-0.9 -1.6,-1.3 -0.4,-0.3 -0.9,-0.7 -1.3,-1 -0.6,-0.7 -1.3,-1.2 -1.9,-1.7 -0.1,0.1 -0.1,0 -0.1,0 l 0.1,0 z"
           id="path33"
           inkscape:connector-curvature="0" /><path
           d="m 180.2,584.9 c 1,1.2 2.5,2.4 4.4,2.9 1.9,0.5 3.9,0.4 5.7,-0.4 1.8,-0.7 3.3,-2.1 4.2,-3.6 0.8,-1.5 1.1,-3.1 1,-4.4 0,-0.6 -0.1,-1.1 -0.3,-1.6 0,-1.2 -0.3,-2.8 -1.4,-4.1 -0.6,-0.7 -1.4,-1.3 -2.2,-1.7 -0.8,-0.4 -1.7,-0.7 -2.6,-0.9 -1.8,-0.4 -3.8,-0.3 -5.5,0.3 -1.8,0.6 -3.3,1.7 -4.3,3.2 -1,1.6 -1.1,3 -1.2,3.9 -0.1,1 0,1.5 0,1.6 0.1,0 0.2,2.3 2.2,4.8 z m 2.8,-8.2 c 0.2,-0.6 1,-1.3 1.9,-1.8 1,-0.5 2.2,-0.7 3.5,-0.6 1.3,0.1 2.6,0.5 3.4,1.1 0.8,0.6 1.3,1.7 1.5,2.8 0.1,0.5 0.1,0.9 0.2,1.3 -0.2,0.9 -0.6,1.9 -1.3,2.8 -0.7,0.9 -1.8,1.6 -3,1.9 -1.2,0.3 -2.4,0.2 -3.4,-0.2 -0.9,-0.4 -1.6,-1.1 -2.1,-1.8 -0.9,-1.5 -0.9,-2.8 -0.9,-2.8 0,-0.1 -0.1,-0.4 -0.1,-0.9 0,-0.6 0.1,-1.3 0.3,-1.8 z"
           id="path35"
           inkscape:connector-curvature="0" /><path
           d="m 855.3,699.9 c 0,-2 -347.4,-3.6 -355.5,-3.6 -8.1,0 -355.8,1.6 -355.8,3.6 0,2 347.6,3.6 355.8,3.6 8.1,0.1 355.5,-1.6 355.5,-3.6 z"
           id="path37"
           inkscape:connector-curvature="0" /><path
           d="m 144,849.6 c 0,2 347.6,3.6 355.8,3.6 8.1,0 355.5,-1.6 355.5,-3.6 0,-2 -347.4,-3.6 -355.5,-3.6 -8.2,-0.1 -355.8,1.6 -355.8,3.6 z"
           id="path39"
           inkscape:connector-curvature="0" /><path
           d="m 288.2,407 c -1.5,0.1 -2.9,1.3 -2.9,2.9 0,0.2 0,0.5 0,0.7 0,1.5 1.3,2.9 2.9,2.9 1.5,-0.1 2.9,-1.3 2.9,-2.9 0,-0.2 0,-0.5 0,-0.7 0,-1.5 -1.3,-3 -2.9,-2.9 z"
           id="path41"
           inkscape:connector-curvature="0" /><path
           d="m 286.1,388.5 c 3.7,0 3.7,-5.7 0,-5.7 -3.7,0 -3.7,5.7 0,5.7 z"
           id="path43"
           inkscape:connector-curvature="0" /><path
           d="m 288.2,362.8 c 1.5,-0.1 2.9,-1.3 2.9,-2.9 0,-0.2 0,-0.5 0,-0.7 0,-1.5 -1.3,-2.9 -2.9,-2.9 -1.5,0.1 -2.9,1.3 -2.9,2.9 0,0.2 0,0.5 0,0.7 0.1,1.6 1.4,3 2.9,2.9 z"
           id="path45"
           inkscape:connector-curvature="0" /><path
           d="m 294.6,336.5 c 3.7,0 3.7,-5.7 0,-5.7 -3.6,0 -3.6,5.7 0,5.7 z"
           id="path47"
           inkscape:connector-curvature="0" /><path
           d="m 301.8,312.9 c 1.5,-0.1 2.9,-1.3 2.9,-2.9 0,-0.2 0,-0.5 0,-0.7 0,-1.5 -1.3,-2.9 -2.9,-2.9 -1.5,0.1 -2.9,1.3 -2.9,2.9 0,0.2 0,0.5 0,0.7 0,1.6 1.3,3 2.9,2.9 z"
           id="path49"
           inkscape:connector-curvature="0" /><path
           d="m 311.7,290.1 c 1.5,-0.1 2.9,-1.3 2.9,-2.9 0,-0.2 0,-0.5 0,-0.7 0,-1.5 -1.3,-2.9 -2.9,-2.9 -1.5,0.1 -2.9,1.3 -2.9,2.9 0,0.2 0,0.5 0,0.7 0.1,1.6 1.4,3 2.9,2.9 z"
           id="path51"
           inkscape:connector-curvature="0" /><path
           d="m 327.4,266.6 c 3.7,0 3.7,-5.7 0,-5.7 -3.6,0 -3.6,5.7 0,5.7 z"
           id="path53"
           inkscape:connector-curvature="0" /><path
           d="m 343.8,247.4 c 3.7,0 3.7,-5.7 0,-5.7 -3.7,0 -3.7,5.7 0,5.7 z"
           id="path55"
           inkscape:connector-curvature="0" /><path
           d="m 364.5,228.8 c 1.5,-0.1 2.9,-1.3 2.9,-2.9 0,-0.2 0,-0.5 0,-0.7 0,-1.5 -1.3,-2.9 -2.9,-2.9 -1.5,0.1 -2.9,1.3 -2.9,2.9 0,0.2 0,0.5 0,0.7 0,1.6 1.3,3 2.9,2.9 z"
           id="path57"
           inkscape:connector-curvature="0" /><path
           d="m 389.4,211 c 1.5,-0.1 2.9,-1.3 2.9,-2.9 0,-0.2 0,-0.5 0,-0.7 0,-1.5 -1.3,-2.9 -2.9,-2.9 -1.5,0.1 -2.9,1.3 -2.9,2.9 0,0.2 0,0.5 0,0.7 0.1,1.6 1.4,3 2.9,2.9 z"
           id="path59"
           inkscape:connector-curvature="0" /><path
           d="m 415.1,196.8 c 1.5,-0.1 2.9,-1.3 2.9,-2.9 0,-0.2 0,-0.5 0,-0.7 0,-1.5 -1.3,-2.9 -2.9,-2.9 -1.5,0.1 -2.9,1.3 -2.9,2.9 0,0.2 0,0.5 0,0.7 0,1.5 1.3,2.9 2.9,2.9 z"
           id="path61"
           inkscape:connector-curvature="0" /><path
           d="m 444.3,185.4 c 3.7,0 3.7,-5.7 0,-5.7 -3.7,0 -3.7,5.7 0,5.7 z"
           id="path63"
           inkscape:connector-curvature="0" /><path
           d="m 476.4,179.7 c 1.5,-0.1 2.9,-1.3 2.9,-2.9 0,-0.2 0,-0.5 0,-0.7 0,-1.5 -1.3,-2.9 -2.9,-2.9 -1.5,0.1 -2.9,1.3 -2.9,2.9 0,0.2 0,0.5 0,0.7 0,1.5 1.3,2.9 2.9,2.9 z"
           id="path65"
           inkscape:connector-curvature="0" /><path
           d="m 511.3,177.5 c 3.7,0 3.7,-5.7 0,-5.7 -3.7,0 -3.7,5.7 0,5.7 z"
           id="path67"
           inkscape:connector-curvature="0" /><path
           d="m 542.6,181.8 c 1.5,-0.1 2.9,-1.3 2.9,-2.9 0,-0.2 0,-0.5 0,-0.7 0,-1.5 -1.3,-2.9 -2.9,-2.9 -1.5,0.1 -2.9,1.3 -2.9,2.9 0,0.2 0,0.5 0,0.7 0.1,1.6 1.4,3 2.9,2.9 z"
           id="path69"
           inkscape:connector-curvature="0" /><path
           d="m 574.7,192.5 c 3.7,0 3.7,-5.7 0,-5.7 -3.7,0 -3.7,5.7 0,5.7 z"
           id="path71"
           inkscape:connector-curvature="0" /><path
           d="m 605.4,206.8 c 3.7,0 3.7,-5.7 0,-5.7 -3.7,0 -3.7,5.7 0,5.7 z"
           id="path73"
           inkscape:connector-curvature="0" /><path
           d="m 632.4,226.7 c 3.7,0 3.7,-5.7 0,-5.7 -3.6,0 -3.6,5.7 0,5.7 z"
           id="path75"
           inkscape:connector-curvature="0" /><path
           d="m 655.2,246.7 c 3.7,0 3.7,-5.7 0,-5.7 -3.6,0 -3.6,5.7 0,5.7 z"
           id="path77"
           inkscape:connector-curvature="0" /><path
           d="m 673.8,273 c 3.7,0 3.7,-5.7 0,-5.7 -3.7,0 -3.7,5.7 0,5.7 z"
           id="path79"
           inkscape:connector-curvature="0" /><path
           d="m 690.2,300.8 c 3.7,0 3.7,-5.7 0,-5.7 -3.7,0 -3.7,5.7 0,5.7 z"
           id="path81"
           inkscape:connector-curvature="0" /><path
           d="m 701.6,328.6 c 3.7,0 3.7,-5.7 0,-5.7 -3.7,0 -3.7,5.7 0,5.7 z"
           id="path83"
           inkscape:connector-curvature="0" /><path
           d="m 707.3,355 c 3.7,0 3.7,-5.7 0,-5.7 -3.7,0 -3.7,5.7 0,5.7 z"
           id="path85"
           inkscape:connector-curvature="0" /><path
           d="m 709.4,384.9 c 3.7,0 3.7,-5.7 0,-5.7 -3.7,0 -3.7,5.7 0,5.7 z"
           id="path87"
           inkscape:connector-curvature="0" /><path
           d="m 707.3,416.3 c 3.7,0 3.7,-5.7 0,-5.7 -3.7,0 -3.7,5.7 0,5.7 z"
           id="path89"
           inkscape:connector-curvature="0" /><path
           d="m 153.4,708.7 c -2.8,0 -2.8,4.3 0,4.3 2.8,0 2.8,-4.3 0,-4.3 z"
           id="path91"
           inkscape:connector-curvature="0" /><path
           d="m 161.8,708.7 c -2.8,0 -2.8,4.3 0,4.3 2.8,0 2.8,-4.3 0,-4.3 z"
           id="path93"
           inkscape:connector-curvature="0" /><path
           d="m 170.3,708.7 c -2.8,0 -2.8,4.3 0,4.3 2.7,0 2.8,-4.3 0,-4.3 z"
           id="path95"
           inkscape:connector-curvature="0" /><path
           d="m 178.6,708.7 c -2.8,0 -2.8,4.3 0,4.3 2.8,0 2.8,-4.3 0,-4.3 z"
           id="path97"
           inkscape:connector-curvature="0" /><path
           d="m 187.1,708.7 c -2.8,0 -2.8,4.3 0,4.3 2.8,0 2.8,-4.3 0,-4.3 z"
           id="path99"
           inkscape:connector-curvature="0" /><path
           d="m 195.5,708.7 c -2.8,0 -2.8,4.3 0,4.3 2.7,0 2.8,-4.3 0,-4.3 z"
           id="path101"
           inkscape:connector-curvature="0" /><path
           d="m 203.9,708.7 c -2.8,0 -2.8,4.3 0,4.3 2.8,0 2.8,-4.3 0,-4.3 z"
           id="path103"
           inkscape:connector-curvature="0" /><path
           d="m 212.3,708.7 c -2.8,0 -2.8,4.3 0,4.3 2.8,0 2.8,-4.3 0,-4.3 z"
           id="path105"
           inkscape:connector-curvature="0" /><path
           d="m 220.8,708.7 c -2.8,0 -2.8,4.3 0,4.3 2.7,0 2.7,-4.3 0,-4.3 z"
           id="path107"
           inkscape:connector-curvature="0" /><path
           d="m 229.1,708.7 c -2.8,0 -2.8,4.3 0,4.3 2.8,0 2.8,-4.3 0,-4.3 z"
           id="path109"
           inkscape:connector-curvature="0" /><path
           d="m 237.6,708.7 c -2.8,0 -2.8,4.3 0,4.3 2.8,0 2.8,-4.3 0,-4.3 z"
           id="path111"
           inkscape:connector-curvature="0" /><path
           d="m 246,708.7 c -2.8,0 -2.8,4.3 0,4.3 2.7,0 2.7,-4.3 0,-4.3 z"
           id="path113"
           inkscape:connector-curvature="0" /><path
           d="m 254.4,708.7 c -2.8,0 -2.8,4.3 0,4.3 2.8,0 2.8,-4.3 0,-4.3 z"
           id="path115"
           inkscape:connector-curvature="0" /><path
           d="m 262.8,708.7 c -2.8,0 -2.8,4.3 0,4.3 2.8,0 2.8,-4.3 0,-4.3 z"
           id="path117"
           inkscape:connector-curvature="0" /><path
           d="m 271.3,708.7 c -2.8,0 -2.8,4.3 0,4.3 2.7,0 2.7,-4.3 0,-4.3 z"
           id="path119"
           inkscape:connector-curvature="0" /><path
           d="m 279.6,708.7 c -2.8,0 -2.8,4.3 0,4.3 2.8,0 2.8,-4.3 0,-4.3 z"
           id="path121"
           inkscape:connector-curvature="0" /><path
           d="m 288.1,708.7 c -2.8,0 -2.8,4.3 0,4.3 2.8,0 2.8,-4.3 0,-4.3 z"
           id="path123"
           inkscape:connector-curvature="0" /><path
           d="m 296.5,708.7 c -2.8,0 -2.8,4.3 0,4.3 2.7,0 2.7,-4.3 0,-4.3 z"
           id="path125"
           inkscape:connector-curvature="0" /><path
           d="m 304.9,708.7 c -2.8,0 -2.8,4.3 0,4.3 2.8,0 2.8,-4.3 0,-4.3 z"
           id="path127"
           inkscape:connector-curvature="0" /><path
           d="m 313.3,708.7 c -2.8,0 -2.8,4.3 0,4.3 2.8,0 2.8,-4.3 0,-4.3 z"
           id="path129"
           inkscape:connector-curvature="0" /><path
           d="m 321.8,708.7 c -2.8,0 -2.8,4.3 0,4.3 2.7,0 2.7,-4.3 0,-4.3 z"
           id="path131"
           inkscape:connector-curvature="0" /><path
           d="m 330.1,708.7 c -2.8,0 -2.8,4.3 0,4.3 2.8,0 2.8,-4.3 0,-4.3 z"
           id="path133"
           inkscape:connector-curvature="0" /><path
           d="m 338.6,708.7 c -2.8,0 -2.8,4.3 0,4.3 2.8,0 2.8,-4.3 0,-4.3 z"
           id="path135"
           inkscape:connector-curvature="0" /><path
           d="m 347,708.7 c -2.8,0 -2.8,4.3 0,4.3 2.7,0 2.7,-4.3 0,-4.3 z"
           id="path137"
           inkscape:connector-curvature="0" /><path
           d="m 355.4,708.7 c -2.8,0 -2.8,4.3 0,4.3 2.8,0 2.8,-4.3 0,-4.3 z"
           id="path139"
           inkscape:connector-curvature="0" /><path
           d="m 363.8,708.7 c -2.8,0 -2.8,4.3 0,4.3 2.8,0 2.8,-4.3 0,-4.3 z"
           id="path141"
           inkscape:connector-curvature="0" /><path
           d="m 372.2,708.7 c -2.8,0 -2.8,4.3 0,4.3 2.8,0 2.8,-4.3 0,-4.3 z"
           id="path143"
           inkscape:connector-curvature="0" /><path
           d="m 380.6,708.7 c -2.8,0 -2.8,4.3 0,4.3 2.8,0 2.8,-4.3 0,-4.3 z"
           id="path145"
           inkscape:connector-curvature="0" /><path
           d="m 389.1,708.7 c -2.8,0 -2.8,4.3 0,4.3 2.8,0 2.8,-4.3 0,-4.3 z"
           id="path147"
           inkscape:connector-curvature="0" /><path
           d="m 397.4,708.7 c -2.8,0 -2.8,4.3 0,4.3 2.8,0 2.8,-4.3 0,-4.3 z"
           id="path149"
           inkscape:connector-curvature="0" /><path
           d="m 405.9,708.7 c -2.8,0 -2.8,4.3 0,4.3 2.8,0 2.8,-4.3 0,-4.3 z"
           id="path151"
           inkscape:connector-curvature="0" /><path
           d="m 414.3,708.7 c -2.8,0 -2.8,4.3 0,4.3 2.8,0 2.8,-4.3 0,-4.3 z"
           id="path153"
           inkscape:connector-curvature="0" /><path
           d="m 422.7,708.7 c -2.8,0 -2.8,4.3 0,4.3 2.8,0 2.8,-4.3 0,-4.3 z"
           id="path155"
           inkscape:connector-curvature="0" /><path
           d="m 431.1,708.7 c -2.8,0 -2.8,4.3 0,4.3 2.8,0 2.8,-4.3 0,-4.3 z"
           id="path157"
           inkscape:connector-curvature="0" /><path
           d="m 439.6,708.7 c -2.8,0 -2.8,4.3 0,4.3 2.8,0 2.8,-4.3 0,-4.3 z"
           id="path159"
           inkscape:connector-curvature="0" /><path
           d="m 447.9,708.7 c -2.8,0 -2.8,4.3 0,4.3 2.8,0 2.8,-4.3 0,-4.3 z"
           id="path161"
           inkscape:connector-curvature="0" /><path
           d="m 456.4,708.7 c -2.8,0 -2.8,4.3 0,4.3 2.8,0 2.8,-4.3 0,-4.3 z"
           id="path163"
           inkscape:connector-curvature="0" /><path
           d="m 464.8,708.7 c -2.8,0 -2.8,4.3 0,4.3 2.8,0 2.8,-4.3 0,-4.3 z"
           id="path165"
           inkscape:connector-curvature="0" /><path
           d="m 473.2,708.7 c -2.8,0 -2.8,4.3 0,4.3 2.8,0 2.8,-4.3 0,-4.3 z"
           id="path167"
           inkscape:connector-curvature="0" /><path
           d="m 481.6,708.7 c -2.8,0 -2.8,4.3 0,4.3 2.8,0 2.8,-4.3 0,-4.3 z"
           id="path169"
           inkscape:connector-curvature="0" /><path
           d="m 490.1,708.7 c -2.8,0 -2.8,4.3 0,4.3 2.7,0 2.8,-4.3 0,-4.3 z"
           id="path171"
           inkscape:connector-curvature="0" /><path
           d="m 498.4,708.7 c -2.8,0 -2.8,4.3 0,4.3 2.8,0 2.8,-4.3 0,-4.3 z"
           id="path173"
           inkscape:connector-curvature="0" /><path
           d="m 506.9,708.7 c -2.8,0 -2.8,4.3 0,4.3 2.8,0 2.8,-4.3 0,-4.3 z"
           id="path175"
           inkscape:connector-curvature="0" /><path
           d="m 515.3,708.7 c -2.8,0 -2.8,4.3 0,4.3 2.7,0 2.8,-4.3 0,-4.3 z"
           id="path177"
           inkscape:connector-curvature="0" /><path
           d="m 523.7,708.7 c -2.8,0 -2.8,4.3 0,4.3 2.8,0 2.8,-4.3 0,-4.3 z"
           id="path179"
           inkscape:connector-curvature="0" /><path
           d="m 532.1,708.7 c -2.8,0 -2.8,4.3 0,4.3 2.8,0 2.8,-4.3 0,-4.3 z"
           id="path181"
           inkscape:connector-curvature="0" /><path
           d="m 540.6,708.7 c -2.8,0 -2.8,4.3 0,4.3 2.7,0 2.7,-4.3 0,-4.3 z"
           id="path183"
           inkscape:connector-curvature="0" /><path
           d="m 548.9,708.7 c -2.8,0 -2.8,4.3 0,4.3 2.8,0 2.8,-4.3 0,-4.3 z"
           id="path185"
           inkscape:connector-curvature="0" /><path
           d="m 557.4,708.7 c -2.8,0 -2.8,4.3 0,4.3 2.8,0 2.8,-4.3 0,-4.3 z"
           id="path187"
           inkscape:connector-curvature="0" /><path
           d="m 565.8,708.7 c -2.8,0 -2.8,4.3 0,4.3 2.7,0 2.7,-4.3 0,-4.3 z"
           id="path189"
           inkscape:connector-curvature="0" /><path
           d="m 574.2,708.7 c -2.8,0 -2.8,4.3 0,4.3 2.8,0 2.8,-4.3 0,-4.3 z"
           id="path191"
           inkscape:connector-curvature="0" /><path
           d="m 582.6,708.7 c -2.8,0 -2.8,4.3 0,4.3 2.8,0 2.8,-4.3 0,-4.3 z"
           id="path193"
           inkscape:connector-curvature="0" /><path
           d="m 591.1,708.7 c -2.8,0 -2.8,4.3 0,4.3 2.7,0 2.7,-4.3 0,-4.3 z"
           id="path195"
           inkscape:connector-curvature="0" /><path
           d="m 599.4,708.7 c -2.8,0 -2.8,4.3 0,4.3 2.8,0 2.8,-4.3 0,-4.3 z"
           id="path197"
           inkscape:connector-curvature="0" /><path
           d="m 607.9,708.7 c -2.8,0 -2.8,4.3 0,4.3 2.8,0 2.8,-4.3 0,-4.3 z"
           id="path199"
           inkscape:connector-curvature="0" /><path
           d="m 616.3,708.7 c -2.8,0 -2.8,4.3 0,4.3 2.7,0 2.7,-4.3 0,-4.3 z"
           id="path201"
           inkscape:connector-curvature="0" /><path
           d="m 624.7,708.7 c -2.8,0 -2.8,4.3 0,4.3 2.8,0 2.8,-4.3 0,-4.3 z"
           id="path203"
           inkscape:connector-curvature="0" /><path
           d="m 633.1,708.7 c -2.8,0 -2.8,4.3 0,4.3 2.8,0 2.8,-4.3 0,-4.3 z"
           id="path205"
           inkscape:connector-curvature="0" /><path
           d="m 641.6,708.7 c -2.8,0 -2.8,4.3 0,4.3 2.7,0 2.7,-4.3 0,-4.3 z"
           id="path207"
           inkscape:connector-curvature="0" /><path
           d="m 649.9,708.7 c -2.8,0 -2.8,4.3 0,4.3 2.8,0 2.8,-4.3 0,-4.3 z"
           id="path209"
           inkscape:connector-curvature="0" /><path
           d="m 658.4,708.7 c -2.8,0 -2.8,4.3 0,4.3 2.8,0 2.8,-4.3 0,-4.3 z"
           id="path211"
           inkscape:connector-curvature="0" /><path
           d="m 666.8,708.7 c -2.8,0 -2.8,4.3 0,4.3 2.7,0 2.7,-4.3 0,-4.3 z"
           id="path213"
           inkscape:connector-curvature="0" /><path
           d="m 675.2,708.7 c -2.8,0 -2.8,4.3 0,4.3 2.8,0 2.8,-4.3 0,-4.3 z"
           id="path215"
           inkscape:connector-curvature="0" /><path
           d="m 683.6,708.7 c -2.8,0 -2.8,4.3 0,4.3 2.8,0 2.8,-4.3 0,-4.3 z"
           id="path217"
           inkscape:connector-curvature="0" /><path
           d="m 692,708.7 c -2.8,0 -2.8,4.3 0,4.3 2.8,0 2.8,-4.3 0,-4.3 z"
           id="path219"
           inkscape:connector-curvature="0" /><path
           d="m 700.4,708.7 c -2.8,0 -2.8,4.3 0,4.3 2.8,0 2.8,-4.3 0,-4.3 z"
           id="path221"
           inkscape:connector-curvature="0" /><path
           d="m 708.9,708.7 c -2.8,0 -2.8,4.3 0,4.3 2.8,0 2.8,-4.3 0,-4.3 z"
           id="path223"
           inkscape:connector-curvature="0" /><path
           d="m 717.2,708.7 c -2.8,0 -2.8,4.3 0,4.3 2.8,0 2.8,-4.3 0,-4.3 z"
           id="path225"
           inkscape:connector-curvature="0" /><path
           d="m 725.7,708.7 c -2.8,0 -2.8,4.3 0,4.3 2.8,0 2.8,-4.3 0,-4.3 z"
           id="path227"
           inkscape:connector-curvature="0" /><path
           d="m 734.1,708.7 c -2.8,0 -2.8,4.3 0,4.3 2.8,0 2.8,-4.3 0,-4.3 z"
           id="path229"
           inkscape:connector-curvature="0" /><path
           d="m 742.5,708.7 c -2.8,0 -2.8,4.3 0,4.3 2.8,0 2.8,-4.3 0,-4.3 z"
           id="path231"
           inkscape:connector-curvature="0" /><path
           d="m 750.9,708.7 c -2.8,0 -2.8,4.3 0,4.3 2.8,0 2.8,-4.3 0,-4.3 z"
           id="path233"
           inkscape:connector-curvature="0" /><path
           d="m 759.4,708.7 c -2.8,0 -2.8,4.3 0,4.3 2.8,0 2.8,-4.3 0,-4.3 z"
           id="path235"
           inkscape:connector-curvature="0" /><path
           d="m 767.7,708.7 c -2.8,0 -2.8,4.3 0,4.3 2.8,0 2.8,-4.3 0,-4.3 z"
           id="path237"
           inkscape:connector-curvature="0" /><path
           d="m 776.2,708.7 c -2.8,0 -2.8,4.3 0,4.3 2.8,0 2.8,-4.3 0,-4.3 z"
           id="path239"
           inkscape:connector-curvature="0" /><path
           d="m 784.6,708.7 c -2.8,0 -2.8,4.3 0,4.3 2.8,0 2.8,-4.3 0,-4.3 z"
           id="path241"
           inkscape:connector-curvature="0" /><path
           d="m 793,708.7 c -2.8,0 -2.8,4.3 0,4.3 2.8,0 2.8,-4.3 0,-4.3 z"
           id="path243"
           inkscape:connector-curvature="0" /><path
           d="m 801.4,708.7 c -2.8,0 -2.8,4.3 0,4.3 2.8,0 2.8,-4.3 0,-4.3 z"
           id="path245"
           inkscape:connector-curvature="0" /><path
           d="m 809.9,708.7 c -2.8,0 -2.8,4.3 0,4.3 2.7,0 2.8,-4.3 0,-4.3 z"
           id="path247"
           inkscape:connector-curvature="0" /><path
           d="m 818.2,708.7 c -2.8,0 -2.8,4.3 0,4.3 2.8,0 2.8,-4.3 0,-4.3 z"
           id="path249"
           inkscape:connector-curvature="0" /><path
           d="m 826.7,708.7 c -2.8,0 -2.8,4.3 0,4.3 2.8,0 2.8,-4.3 0,-4.3 z"
           id="path251"
           inkscape:connector-curvature="0" /><path
           d="m 835.1,708.7 c -2.8,0 -2.8,4.3 0,4.3 2.7,0 2.8,-4.3 0,-4.3 z"
           id="path253"
           inkscape:connector-curvature="0" /><path
           d="m 843.5,708.7 c -2.8,0 -2.8,4.3 0,4.3 2.8,0 2.8,-4.3 0,-4.3 z"
           id="path255"
           inkscape:connector-curvature="0" /><path
           d="m 851.9,708.7 c -2.8,0 -2.8,4.3 0,4.3 2.8,0 2.8,-4.3 0,-4.3 z"
           id="path257"
           inkscape:connector-curvature="0" /><path
           d="m 153.4,839.8 c 2.8,0 2.8,-4.3 0,-4.3 -2.7,0.1 -2.7,4.3 0,4.3 z"
           id="path259"
           inkscape:connector-curvature="0" /><path
           d="m 161.8,839.8 c 2.8,0 2.8,-4.3 0,-4.3 -2.8,0.1 -2.8,4.3 0,4.3 z"
           id="path261"
           inkscape:connector-curvature="0" /><path
           d="m 170.3,839.8 c 2.8,0 2.8,-4.3 0,-4.3 -2.8,0.1 -2.8,4.3 0,4.3 z"
           id="path263"
           inkscape:connector-curvature="0" /><path
           d="m 178.6,839.8 c 2.8,0 2.8,-4.3 0,-4.3 -2.7,0.1 -2.7,4.3 0,4.3 z"
           id="path265"
           inkscape:connector-curvature="0" /><path
           d="m 187.1,839.8 c 2.8,0 2.8,-4.3 0,-4.3 -2.8,0.1 -2.8,4.3 0,4.3 z"
           id="path267"
           inkscape:connector-curvature="0" /><path
           d="m 195.5,839.8 c 2.8,0 2.8,-4.3 0,-4.3 -2.8,0.1 -2.8,4.3 0,4.3 z"
           id="path269"
           inkscape:connector-curvature="0" /><path
           d="m 203.9,839.8 c 2.8,0 2.8,-4.3 0,-4.3 -2.7,0.1 -2.8,4.3 0,4.3 z"
           id="path271"
           inkscape:connector-curvature="0" /><path
           d="m 212.3,839.8 c 2.8,0 2.8,-4.3 0,-4.3 -2.8,0.1 -2.8,4.3 0,4.3 z"
           id="path273"
           inkscape:connector-curvature="0" /><path
           d="m 220.8,839.8 c 2.8,0 2.8,-4.3 0,-4.3 -2.8,0.1 -2.8,4.3 0,4.3 z"
           id="path275"
           inkscape:connector-curvature="0" /><path
           d="m 229.1,839.8 c 2.8,0 2.8,-4.3 0,-4.3 -2.7,0.1 -2.8,4.3 0,4.3 z"
           id="path277"
           inkscape:connector-curvature="0" /><path
           d="m 237.6,839.8 c 2.8,0 2.8,-4.3 0,-4.3 -2.8,0.1 -2.8,4.3 0,4.3 z"
           id="path279"
           inkscape:connector-curvature="0" /><path
           d="m 246,839.8 c 2.8,0 2.8,-4.3 0,-4.3 -2.8,0.1 -2.8,4.3 0,4.3 z"
           id="path281"
           inkscape:connector-curvature="0" /><path
           d="m 254.4,839.8 c 2.8,0 2.8,-4.3 0,-4.3 -2.8,0.1 -2.8,4.3 0,4.3 z"
           id="path283"
           inkscape:connector-curvature="0" /><path
           d="m 262.8,839.8 c 2.8,0 2.8,-4.3 0,-4.3 -2.8,0.1 -2.8,4.3 0,4.3 z"
           id="path285"
           inkscape:connector-curvature="0" /><path
           d="m 271.3,839.8 c 2.8,0 2.8,-4.3 0,-4.3 -2.8,0.1 -2.8,4.3 0,4.3 z"
           id="path287"
           inkscape:connector-curvature="0" /><path
           d="m 279.6,839.8 c 2.8,0 2.8,-4.3 0,-4.3 -2.8,0.1 -2.8,4.3 0,4.3 z"
           id="path289"
           inkscape:connector-curvature="0" /><path
           d="m 288.1,839.8 c 2.8,0 2.8,-4.3 0,-4.3 -2.8,0.1 -2.8,4.3 0,4.3 z"
           id="path291"
           inkscape:connector-curvature="0" /><path
           d="m 296.5,839.8 c 2.8,0 2.8,-4.3 0,-4.3 -2.8,0.1 -2.8,4.3 0,4.3 z"
           id="path293"
           inkscape:connector-curvature="0" /><path
           d="m 304.9,839.8 c 2.8,0 2.8,-4.3 0,-4.3 -2.8,0.1 -2.8,4.3 0,4.3 z"
           id="path295"
           inkscape:connector-curvature="0" /><path
           d="m 313.3,839.8 c 2.8,0 2.8,-4.3 0,-4.3 -2.8,0.1 -2.8,4.3 0,4.3 z"
           id="path297"
           inkscape:connector-curvature="0" /><path
           d="m 321.8,839.8 c 2.8,0 2.8,-4.3 0,-4.3 -2.8,0.1 -2.8,4.3 0,4.3 z"
           id="path299"
           inkscape:connector-curvature="0" /><path
           d="m 330.1,839.8 c 2.8,0 2.8,-4.3 0,-4.3 -2.8,0.1 -2.8,4.3 0,4.3 z"
           id="path301"
           inkscape:connector-curvature="0" /><path
           d="m 338.6,839.8 c 2.8,0 2.8,-4.3 0,-4.3 -2.8,0.1 -2.8,4.3 0,4.3 z"
           id="path303"
           inkscape:connector-curvature="0" /><path
           d="m 347,839.8 c 2.8,0 2.8,-4.3 0,-4.3 -2.8,0.1 -2.8,4.3 0,4.3 z"
           id="path305"
           inkscape:connector-curvature="0" /><path
           d="m 355.4,839.8 c 2.8,0 2.8,-4.3 0,-4.3 -2.8,0.1 -2.8,4.3 0,4.3 z"
           id="path307"
           inkscape:connector-curvature="0" /><path
           d="m 363.8,839.8 c 2.8,0 2.8,-4.3 0,-4.3 -2.8,0.1 -2.8,4.3 0,4.3 z"
           id="path309"
           inkscape:connector-curvature="0" /><path
           d="m 372.2,839.8 c 2.8,0 2.8,-4.3 0,-4.3 -2.7,0.1 -2.7,4.3 0,4.3 z"
           id="path311"
           inkscape:connector-curvature="0" /><path
           d="m 380.6,839.8 c 2.8,0 2.8,-4.3 0,-4.3 -2.8,0.1 -2.8,4.3 0,4.3 z"
           id="path313"
           inkscape:connector-curvature="0" /><path
           d="m 389.1,839.8 c 2.8,0 2.8,-4.3 0,-4.3 -2.8,0.1 -2.8,4.3 0,4.3 z"
           id="path315"
           inkscape:connector-curvature="0" /><path
           d="m 397.4,839.8 c 2.8,0 2.8,-4.3 0,-4.3 -2.7,0.1 -2.7,4.3 0,4.3 z"
           id="path317"
           inkscape:connector-curvature="0" /><path
           d="m 405.9,839.8 c 2.8,0 2.8,-4.3 0,-4.3 -2.8,0.1 -2.8,4.3 0,4.3 z"
           id="path319"
           inkscape:connector-curvature="0" /><path
           d="m 414.3,839.8 c 2.8,0 2.8,-4.3 0,-4.3 -2.8,0.1 -2.8,4.3 0,4.3 z"
           id="path321"
           inkscape:connector-curvature="0" /><path
           d="m 422.7,839.8 c 2.8,0 2.8,-4.3 0,-4.3 -2.7,0.1 -2.7,4.3 0,4.3 z"
           id="path323"
           inkscape:connector-curvature="0" /><path
           d="m 431.1,839.8 c 2.8,0 2.8,-4.3 0,-4.3 -2.8,0.1 -2.8,4.3 0,4.3 z"
           id="path325"
           inkscape:connector-curvature="0" /><path
           d="m 439.6,839.8 c 2.8,0 2.8,-4.3 0,-4.3 -2.8,0.1 -2.8,4.3 0,4.3 z"
           id="path327"
           inkscape:connector-curvature="0" /><path
           d="m 447.9,839.8 c 2.8,0 2.8,-4.3 0,-4.3 -2.7,0.1 -2.7,4.3 0,4.3 z"
           id="path329"
           inkscape:connector-curvature="0" /><path
           d="m 456.4,839.8 c 2.8,0 2.8,-4.3 0,-4.3 -2.8,0.1 -2.8,4.3 0,4.3 z"
           id="path331"
           inkscape:connector-curvature="0" /><path
           d="m 464.8,839.8 c 2.8,0 2.8,-4.3 0,-4.3 -2.8,0.1 -2.8,4.3 0,4.3 z"
           id="path333"
           inkscape:connector-curvature="0" /><path
           d="m 473.2,839.8 c 2.8,0 2.8,-4.3 0,-4.3 -2.7,0.1 -2.7,4.3 0,4.3 z"
           id="path335"
           inkscape:connector-curvature="0" /><path
           d="m 481.6,839.8 c 2.8,0 2.8,-4.3 0,-4.3 -2.8,0.1 -2.8,4.3 0,4.3 z"
           id="path337"
           inkscape:connector-curvature="0" /><path
           d="m 490.1,839.8 c 2.8,0 2.8,-4.3 0,-4.3 -2.8,0.1 -2.8,4.3 0,4.3 z"
           id="path339"
           inkscape:connector-curvature="0" /><path
           d="m 498.4,839.8 c 2.8,0 2.8,-4.3 0,-4.3 -2.7,0.1 -2.7,4.3 0,4.3 z"
           id="path341"
           inkscape:connector-curvature="0" /><path
           d="m 506.9,839.8 c 2.8,0 2.8,-4.3 0,-4.3 -2.8,0.1 -2.8,4.3 0,4.3 z"
           id="path343"
           inkscape:connector-curvature="0" /><path
           d="m 515.3,839.8 c 2.8,0 2.8,-4.3 0,-4.3 -2.8,0.1 -2.8,4.3 0,4.3 z"
           id="path345"
           inkscape:connector-curvature="0" /><path
           d="m 523.7,839.8 c 2.8,0 2.8,-4.3 0,-4.3 -2.7,0.1 -2.8,4.3 0,4.3 z"
           id="path347"
           inkscape:connector-curvature="0" /><path
           d="m 532.1,839.8 c 2.8,0 2.8,-4.3 0,-4.3 -2.8,0.1 -2.8,4.3 0,4.3 z"
           id="path349"
           inkscape:connector-curvature="0" /><path
           d="m 540.6,839.8 c 2.8,0 2.8,-4.3 0,-4.3 -2.8,0.1 -2.8,4.3 0,4.3 z"
           id="path351"
           inkscape:connector-curvature="0" /><path
           d="m 548.9,839.8 c 2.8,0 2.8,-4.3 0,-4.3 -2.7,0.1 -2.8,4.3 0,4.3 z"
           id="path353"
           inkscape:connector-curvature="0" /><path
           d="m 557.4,839.8 c 2.8,0 2.8,-4.3 0,-4.3 -2.8,0.1 -2.8,4.3 0,4.3 z"
           id="path355"
           inkscape:connector-curvature="0" /><path
           d="m 565.8,839.8 c 2.8,0 2.8,-4.3 0,-4.3 -2.8,0.1 -2.8,4.3 0,4.3 z"
           id="path357"
           inkscape:connector-curvature="0" /><path
           d="m 574.2,839.8 c 2.8,0 2.8,-4.3 0,-4.3 -2.8,0.1 -2.8,4.3 0,4.3 z"
           id="path359"
           inkscape:connector-curvature="0" /><path
           d="m 582.6,839.8 c 2.8,0 2.8,-4.3 0,-4.3 -2.8,0.1 -2.8,4.3 0,4.3 z"
           id="path361"
           inkscape:connector-curvature="0" /><path
           d="m 591.1,839.8 c 2.8,0 2.8,-4.3 0,-4.3 -2.8,0.1 -2.8,4.3 0,4.3 z"
           id="path363"
           inkscape:connector-curvature="0" /><path
           d="m 599.4,839.8 c 2.8,0 2.8,-4.3 0,-4.3 -2.8,0.1 -2.8,4.3 0,4.3 z"
           id="path365"
           inkscape:connector-curvature="0" /><path
           d="m 607.9,839.8 c 2.8,0 2.8,-4.3 0,-4.3 -2.8,0.1 -2.8,4.3 0,4.3 z"
           id="path367"
           inkscape:connector-curvature="0" /><path
           d="m 616.3,839.8 c 2.8,0 2.8,-4.3 0,-4.3 -2.8,0.1 -2.8,4.3 0,4.3 z"
           id="path369"
           inkscape:connector-curvature="0" /><path
           d="m 624.7,839.8 c 2.8,0 2.8,-4.3 0,-4.3 -2.8,0.1 -2.8,4.3 0,4.3 z"
           id="path371"
           inkscape:connector-curvature="0" /><path
           d="m 633.1,839.8 c 2.8,0 2.8,-4.3 0,-4.3 -2.8,0.1 -2.8,4.3 0,4.3 z"
           id="path373"
           inkscape:connector-curvature="0" /><path
           d="m 641.6,839.8 c 2.8,0 2.8,-4.3 0,-4.3 -2.8,0.1 -2.8,4.3 0,4.3 z"
           id="path375"
           inkscape:connector-curvature="0" /><path
           d="m 649.9,839.8 c 2.8,0 2.8,-4.3 0,-4.3 -2.8,0.1 -2.8,4.3 0,4.3 z"
           id="path377"
           inkscape:connector-curvature="0" /><path
           d="m 658.4,839.8 c 2.8,0 2.8,-4.3 0,-4.3 -2.8,0.1 -2.8,4.3 0,4.3 z"
           id="path379"
           inkscape:connector-curvature="0" /><path
           d="m 666.8,839.8 c 2.8,0 2.8,-4.3 0,-4.3 -2.8,0.1 -2.8,4.3 0,4.3 z"
           id="path381"
           inkscape:connector-curvature="0" /><path
           d="m 675.2,839.8 c 2.8,0 2.8,-4.3 0,-4.3 -2.8,0.1 -2.8,4.3 0,4.3 z"
           id="path383"
           inkscape:connector-curvature="0" /><path
           d="m 683.6,839.8 c 2.8,0 2.8,-4.3 0,-4.3 -2.8,0.1 -2.8,4.3 0,4.3 z"
           id="path385"
           inkscape:connector-curvature="0" /><path
           d="m 692,839.8 c 2.8,0 2.8,-4.3 0,-4.3 -2.7,0.1 -2.7,4.3 0,4.3 z"
           id="path387"
           inkscape:connector-curvature="0" /><path
           d="m 700.4,839.8 c 2.8,0 2.8,-4.3 0,-4.3 -2.8,0.1 -2.8,4.3 0,4.3 z"
           id="path389"
           inkscape:connector-curvature="0" /><path
           d="m 708.9,839.8 c 2.8,0 2.8,-4.3 0,-4.3 -2.8,0.1 -2.8,4.3 0,4.3 z"
           id="path391"
           inkscape:connector-curvature="0" /><path
           d="m 717.2,839.8 c 2.8,0 2.8,-4.3 0,-4.3 -2.7,0.1 -2.7,4.3 0,4.3 z"
           id="path393"
           inkscape:connector-curvature="0" /><path
           d="m 725.7,839.8 c 2.8,0 2.8,-4.3 0,-4.3 -2.8,0.1 -2.8,4.3 0,4.3 z"
           id="path395"
           inkscape:connector-curvature="0" /><path
           d="m 734.1,839.8 c 2.8,0 2.8,-4.3 0,-4.3 -2.8,0.1 -2.8,4.3 0,4.3 z"
           id="path397"
           inkscape:connector-curvature="0" /><path
           d="m 742.5,839.8 c 2.8,0 2.8,-4.3 0,-4.3 -2.7,0.1 -2.7,4.3 0,4.3 z"
           id="path399"
           inkscape:connector-curvature="0" /><path
           d="m 750.9,839.8 c 2.8,0 2.8,-4.3 0,-4.3 -2.8,0.1 -2.8,4.3 0,4.3 z"
           id="path401"
           inkscape:connector-curvature="0" /><path
           d="m 759.4,839.8 c 2.8,0 2.8,-4.3 0,-4.3 -2.8,0.1 -2.8,4.3 0,4.3 z"
           id="path403"
           inkscape:connector-curvature="0" /><path
           d="m 767.7,839.8 c 2.8,0 2.8,-4.3 0,-4.3 -2.7,0.1 -2.7,4.3 0,4.3 z"
           id="path405"
           inkscape:connector-curvature="0" /><path
           d="m 776.2,839.8 c 2.8,0 2.8,-4.3 0,-4.3 -2.8,0.1 -2.8,4.3 0,4.3 z"
           id="path407"
           inkscape:connector-curvature="0" /><path
           d="m 784.6,839.8 c 2.8,0 2.8,-4.3 0,-4.3 -2.8,0.1 -2.8,4.3 0,4.3 z"
           id="path409"
           inkscape:connector-curvature="0" /><path
           d="m 793,839.8 c 2.8,0 2.8,-4.3 0,-4.3 -2.7,0.1 -2.7,4.3 0,4.3 z"
           id="path411"
           inkscape:connector-curvature="0" /><path
           d="m 801.4,839.8 c 2.8,0 2.8,-4.3 0,-4.3 -2.8,0.1 -2.8,4.3 0,4.3 z"
           id="path413"
           inkscape:connector-curvature="0" /><path
           d="m 809.9,839.8 c 2.8,0 2.8,-4.3 0,-4.3 -2.8,0.1 -2.8,4.3 0,4.3 z"
           id="path415"
           inkscape:connector-curvature="0" /><path
           d="m 818.2,839.8 c 2.8,0 2.8,-4.3 0,-4.3 -2.7,0.1 -2.7,4.3 0,4.3 z"
           id="path417"
           inkscape:connector-curvature="0" /><path
           d="m 826.7,839.8 c 2.8,0 2.8,-4.3 0,-4.3 -2.8,0.1 -2.8,4.3 0,4.3 z"
           id="path419"
           inkscape:connector-curvature="0" /><path
           d="m 835.1,839.8 c 2.8,0 2.8,-4.3 0,-4.3 -2.8,0.1 -2.8,4.3 0,4.3 z"
           id="path421"
           inkscape:connector-curvature="0" /><path
           d="m 843.5,839.8 c 2.8,0 2.8,-4.3 0,-4.3 -2.7,0.1 -2.8,4.3 0,4.3 z"
           id="path423"
           inkscape:connector-curvature="0" /><path
           d="m 851.9,839.8 c 2.8,0 2.8,-4.3 0,-4.3 -2.8,0.1 -2.8,4.3 0,4.3 z"
           id="path425"
           inkscape:connector-curvature="0" /></g></g></switch></svg>