<?xml version="1.0" encoding="UTF-8" standalone="no"?>
<svg
   xmlns:dc="http://purl.org/dc/elements/1.1/"
   xmlns:cc="http://creativecommons.org/ns#"
   xmlns:rdf="http://www.w3.org/1999/02/22-rdf-syntax-ns#"
   xmlns:svg="http://www.w3.org/2000/svg"
   xmlns="http://www.w3.org/2000/svg"
   xmlns:sodipodi="http://sodipodi.sourceforge.net/DTD/sodipodi-0.dtd"
   xmlns:inkscape="http://www.inkscape.org/namespaces/inkscape"
   version="1.1"
   id="Layer_1"
   x="0px"
   y="0px"
   viewBox="154.86410522460938 122.63468170166016 690.2717895507812 754.73046875"
   width="100%"
   height="100%"
   style="enable-background:new 0 0 1000 1000;"
   xml:space="preserve"
  ><style
     type="text/css"
     id="style3">
	.noFillSVG{fill:none;}
</style><switch
     id="switch5"
     transform="translate(-38.4,0)"><g
       id="g7"><g
         id="g9"><path
           class="noFillSVG"
           d="m 288.3,254.1 c 1.8,1.4 3.6,2.8 5.5,4.1 l 0,0 c 2.3,1.4 4.9,1.7 7.6,1.5 0.7,0 1.3,-0.2 1.9,-0.3 -0.1,-0.1 -0.2,-0.1 -0.3,-0.1 0.2,-0.1 0.5,0 0.6,0 0.1,0 0.1,0 0.2,0 0.4,-0.1 0.8,-0.2 1.2,-0.3 0.7,-0.2 1.3,-0.5 2,-0.8 0,0 0.1,0 0.1,-0.1 0.4,-0.2 0.7,-0.5 1.1,-0.8 1.5,-1.3 2.5,-3 3.5,-4.8 0.2,-0.4 0.5,-0.9 0.7,-1.4 -0.4,0.6 -0.9,1.2 -1.4,1.8 -1.4,1.5 -2.7,3.1 -4.4,4 -0.5,0.3 -1,0.5 -1.5,0.6 -0.5,0.1 -0.9,0.1 -1.4,0.1 -1,0.1 -1.8,-0.4 -2.7,-0.7 0.4,-0.4 0.7,-0.8 0.9,-1.2 0.3,-0.4 0.7,-0.8 1,-1.1 0.4,-0.4 0.8,-0.8 1.2,-1.1 0.4,-0.3 0.7,-0.6 1.1,-0.9 1.6,-1.3 3.3,-2.5 5,-3.3 1.4,-0.7 2.8,-1.2 4.2,-1.5 0,0 0,0 0,0 0.1,0 0,0.1 0,0.3 0,0.9 -0.1,1.9 -0.4,2.8 -0.1,0.4 -0.2,0.9 -0.3,1.3 -0.2,0.5 -0.3,0.9 -0.5,1.4 -0.4,0.9 -0.8,1.8 -1.4,2.7 -0.3,0.4 -0.6,0.9 -0.9,1.2 -0.4,0.3 -0.7,0.7 -1.1,1 -0.7,0.7 -1.6,1.2 -2.5,1.5 -0.4,0.1 -0.7,0.2 -1.1,0.2 -1.3,0.5 -2.7,0.9 -4.1,1.1 -1.2,0.2 -2.4,0.1 -3.5,0 6.6,4.1 13.8,7.7 21.4,10.6 10.6,4 22.5,6.8 35.3,8.4 2.2,0.3 4.5,0.5 6.8,0.7 l 0,0 c 2.7,0.1 5.1,-0.9 7.4,-2.3 0.6,-0.3 1.1,-0.7 1.6,-1.1 -0.1,0 -0.2,0 -0.3,0 0.1,-0.1 0.4,-0.2 0.6,-0.3 0.1,0 0.1,-0.1 0.2,-0.1 0.3,-0.3 0.6,-0.5 0.9,-0.8 0.5,-0.5 1,-1 1.5,-1.6 0,0 0,-0.1 0.1,-0.1 0.2,-0.4 0.4,-0.7 0.6,-1.2 0.8,-1.8 0.9,-3.8 1,-5.8 0,-0.5 0,-1 0,-1.5 -0.1,0.8 -0.3,1.5 -0.5,2.2 -0.6,1.9 -1.1,4 -2.2,5.6 -0.3,0.4 -0.7,0.9 -1.1,1.2 -0.4,0.3 -0.8,0.5 -1.2,0.8 -0.9,0.5 -1.8,0.5 -2.8,0.6 0.1,-0.5 0.2,-1 0.2,-1.5 0,-0.5 0.2,-1 0.4,-1.5 0.2,-0.5 0.3,-1 0.5,-1.5 0.2,-0.5 0.4,-0.9 0.5,-1.3 0.8,-1.9 1.8,-3.7 3.1,-5.2 1,-1.2 2.1,-2.3 3.3,-3.2 0,0 0,0 0,0 0.1,-0.1 0.1,0.1 0.2,0.2 0.4,0.8 0.8,1.8 1,2.7 0.1,0.5 0.2,0.9 0.3,1.4 0.1,0.5 0.2,1 0.2,1.4 0,1 0.1,2 -0.1,3 -0.1,0.5 -0.1,1 -0.3,1.5 -0.2,0.5 -0.4,0.9 -0.5,1.4 -0.3,1 -1,1.8 -1.7,2.5 -0.3,0.3 -0.6,0.5 -1,0.6 -0.9,1.1 -2,2 -3.2,2.8 -1,0.7 -2,1.2 -3.1,1.7 7.5,0.5 15.4,0.7 24,0.5 11.2,-0.2 21.2,-0.9 30.5,-2.1 -3,-5.3 -5.5,-10.6 -7.5,-16 l 0,0 c -3.3,-8.8 -5.5,-17.7 -6.7,-26.7 -0.3,0.8 -0.7,1.6 -1.1,2.4 -0.8,1.5 -1.8,3 -2.9,4.3 -0.5,0.6 -1,1.3 -1.6,1.7 -0.2,0.1 -0.3,0.1 -0.5,0.1 -0.2,0.1 -0.3,0.3 -0.5,0.4 -3.5,2 -8.2,1.7 -11.4,-1.1 0.6,-0.6 1.2,-1.1 1.8,-1.7 0.6,-0.6 1.2,-1 1.9,-1.5 1.6,-1.2 3.4,-2.1 5.3,-2.8 1,-0.3 1.9,-0.5 2.9,-0.7 l 0.7,-0.1 c 0.2,0 0.5,0 0.7,-0.1 0.4,-0.1 1,-0.1 1.5,-0.1 0,0.2 -0.1,0.4 -0.2,0.7 -0.1,0.3 -0.1,0.4 -0.2,0.7 -0.2,0.4 -0.5,0.8 -0.8,1.2 -0.5,0.8 -1.2,1.4 -1.9,2 -0.8,0.6 -1.7,0.8 -2.6,1.2 -0.9,0.4 -1.9,0.5 -2.8,0.8 -0.8,0.2 -1.7,0.4 -2.6,0.5 0.1,0 0.2,0.1 0.2,0.1 0.5,0 1.1,0.1 1.6,0.2 0.6,0 1.1,0 1.7,0 1,0 2,-0.2 3,-0.6 0.7,-0.3 1.5,-0.7 2.2,-1.1 0.5,-0.6 1,-1.2 1.4,-1.8 0.8,-1.1 1.5,-2.2 2.1,-3.4 0.8,-1.8 1.5,-3.5 1.9,-5.4 -0.2,-1.9 -0.3,-3.7 -0.4,-5.6 l 0,-0.8 -140.9,0 c 0,0.5 -0.3,1 -0.7,1.2 5.4,9.6 13,18.5 22.5,26.1 z"
           id="path11"
           inkscape:connector-curvature="0"
           style="fill:none" /><path
           class="noFillSVG"
           d="m 541.6,821.4 c -0.5,-4.4 -1.4,-9.3 -2.7,-13.8 -1.4,4.5 -2.3,9.4 -2.9,13.8 -0.5,4.3 0.8,8.4 2.8,12.3 1.9,-3.9 3.2,-8 2.8,-12.3 z"
           id="path13"
           inkscape:connector-curvature="0"
           style="fill:none" /><path
           class="noFillSVG"
           d="m 541,842.9 c -0.7,-1.2 -1.5,-2.4 -2.3,-3.6 -0.8,1.2 -1.5,2.4 -2.3,3.6 0.7,0.8 1.5,1.6 2.3,2.6 0.9,-1 1.6,-1.8 2.3,-2.6 z"
           id="path15"
           inkscape:connector-curvature="0"
           style="fill:none" /><path
           class="noFillSVG"
           d="m 230.6,501.3 c 3,-0.4 6.2,-1 9.2,-1.9 -3,-0.9 -6.3,-1.5 -9.2,-1.8 -2.9,-0.3 -5.6,0.6 -8.2,1.9 2.6,1.3 5.3,2.2 8.2,1.8 z"
           id="path17"
           inkscape:connector-curvature="0"
           style="fill:none" /><path
           class="noFillSVG"
           d="m 549.8,786.8 c -1.2,0.9 -4.1,0.4 -5.5,0.4 -3.2,0 -6.3,0.1 -9.5,0.1 -1.9,0 -5.6,0.8 -7.2,-0.5 4.8,3.8 8.3,8.5 10.9,14.2 2.6,-5.9 6.4,-10.5 11.3,-14.2 z"
           id="path19"
           inkscape:connector-curvature="0"
           style="fill:none" /><path
           class="noFillSVG"
           d="m 214.5,499.4 c 0.6,0.5 1.2,1 1.7,1.5 0.8,-0.5 1.6,-1 2.4,-1.5 -0.8,-0.5 -1.6,-1 -2.4,-1.5 -0.5,0.5 -1.1,1 -1.7,1.5 z"
           id="path21"
           inkscape:connector-curvature="0"
           style="fill:none" /><path
           class="noFillSVG"
           d="m 497.5,227.1 c 0.4,0.2 0.9,0.5 1.3,0.7 0.8,0.6 1.6,1.2 2.3,1.9 0.4,0.4 0.8,0.7 1,1.1 0.3,0.4 0.5,0.8 0.8,1.3 0.6,0.8 0.9,1.8 1,2.8 0,0.4 0,0.8 0,1.1 0.3,1.4 0.3,2.8 0.3,4.2 -0.1,1.2 -0.3,2.3 -0.7,3.4 5.2,-5.3 9.5,-11 13.1,-17.1 l -20.3,0 c 0,0 0,0 0,0 0.4,0.2 0.8,0.4 1.2,0.6 z"
           id="path23"
           inkscape:connector-curvature="0"
           style="fill:none" /><path
           class="noFillSVG"
           d="m 196.9,499.4 c 2.5,1 5.4,1.8 8,2.1 2.4,0.2 4.6,-0.8 6.6,-2.1 -1.9,-1.3 -3.9,-2.3 -5.8,-2.2 -2.7,0.2 -6.1,1.1 -8.8,2.2 z"
           id="path25"
           inkscape:connector-curvature="0"
           style="fill:none" /><path
           class="noFillSVG"
           d="m 538.8,850.1 c -2,3 -3.5,6.3 -3.2,9.9 0.3,3.9 1.6,8.1 3.1,11.9 1.6,-4.1 3.1,-9.2 3.4,-13.1 0.2,-2.8 -1.4,-5.9 -3.3,-8.7 z"
           id="path27"
           inkscape:connector-curvature="0"
           style="fill:none" /><path
           class="noFillSVG"
           d="m 557.3,234.6 c 0.1,0.5 0.3,1 0.5,1.5 l 2,5.6 c 0.4,0.9 0.9,1.9 1.3,2.9 0.3,0.5 0.5,1.1 0.8,1.6 l 1.1,2.3 c 0.2,0.5 0.5,0.9 0.8,1.3 0.2,0.3 0.3,0.5 0.5,0.8 l 2.6,4.3 c 0.6,0.9 1.2,1.7 1.8,2.6 0.4,0.5 0.7,1 1,1.4 l 0.2,0.3 c 0.9,1.3 1.8,2.5 2.8,3.6 l -0.7,0.7 0.7,-0.6 c 1.6,2 3.4,3.8 5.1,5.7 2.2,1.9 4.7,2.9 7.6,3.3 0.7,0.1 1.4,0.1 2.1,0.1 -0.1,-0.1 -0.1,-0.2 -0.2,-0.2 0.2,0 0.5,0.1 0.7,0.1 0.1,0 0.1,0 0.2,0 0.4,0 0.9,0 1.3,-0.1 0.7,-0.1 1.5,-0.2 2.2,-0.3 0,0 0.1,0 0.1,0 0.4,-0.1 0.8,-0.3 1.2,-0.5 1.7,-1 3.1,-2.5 4.3,-4.1 0.3,-0.4 0.6,-0.8 0.9,-1.3 -0.5,0.5 -1.1,1.1 -1.7,1.5 -1.7,1.2 -3.2,2.6 -5.2,3.1 -0.5,0.1 -1.1,0.3 -1.6,0.2 -0.5,0 -1,-0.1 -1.5,-0.2 -1,-0.2 -1.8,-0.8 -2.8,-1.3 0.4,-0.3 0.8,-0.6 1.1,-1 0.3,-0.3 0.8,-0.6 1.2,-0.9 0.5,-0.3 0.9,-0.6 1.4,-0.9 0.4,-0.2 0.9,-0.5 1.3,-0.7 1.8,-1 3.8,-1.8 5.7,-2.2 1.5,-0.4 3,-0.6 4.5,-0.6 0,0 0,0 0,0 0.1,0 0,0.1 0,0.3 -0.1,0.9 -0.4,1.9 -0.8,2.7 -0.2,0.4 -0.3,0.9 -0.5,1.3 -0.2,0.4 -0.4,0.9 -0.7,1.3 -0.5,0.8 -1.1,1.7 -1.8,2.4 -0.4,0.4 -0.7,0.8 -1.1,1.1 -0.4,0.3 -0.9,0.5 -1.3,0.8 -0.8,0.6 -1.9,0.9 -2.9,1 -0.4,0 -0.8,0 -1.2,-0.1 -1.4,0.2 -2.9,0.3 -4.4,0.2 -1.2,-0.1 -2.5,-0.4 -3.7,-0.8 6.4,5.8 13.5,11 21.3,15.3 l 4.4,2.4 6.8,3.2 7,2.8 c 0.4,0.2 0.9,0.3 1.3,0.4 1.3,-1.5 2.7,-3.1 3.9,-4.8 7.9,-10.1 14.1,-20.8 18.6,-31.8 l 0.9,0.4 -0.9,-0.4 c 0.9,-2.2 1.7,-4.4 2.5,-6.6 0.6,-2.6 0.3,-5.1 -0.5,-7.7 -0.2,-0.6 -0.5,-1.2 -0.8,-1.8 0,0.1 -0.1,0.2 -0.1,0.3 -0.1,-0.1 -0.1,-0.5 -0.2,-0.6 0,-0.1 0,-0.1 -0.1,-0.2 -0.2,-0.4 -0.4,-0.7 -0.6,-1.1 -0.4,-0.6 -0.8,-1.2 -1.3,-1.7 0,0 -0.1,-0.1 -0.1,-0.1 -0.3,-0.3 -0.6,-0.6 -1,-0.8 -1.6,-1.1 -3.6,-1.7 -5.5,-2.2 -0.5,-0.1 -1,-0.2 -1.5,-0.3 0.7,0.3 1.4,0.6 2.1,0.9 1.7,1 3.7,1.8 5,3.3 0.4,0.4 0.7,0.8 0.9,1.3 0.2,0.5 0.3,0.9 0.5,1.4 0.3,1 0.1,1.9 0,2.8 -0.4,-0.2 -0.9,-0.4 -1.4,-0.6 -0.4,-0.1 -0.9,-0.5 -1.3,-0.7 -0.5,-0.3 -0.9,-0.5 -1.4,-0.8 -0.4,-0.3 -0.8,-0.5 -1.2,-0.8 -1.7,-1.2 -3.3,-2.6 -4.5,-4.1 -1,-1.2 -1.9,-2.4 -2.5,-3.7 0,0 0,0 0,0 -0.1,-0.1 0.1,-0.1 0.2,-0.1 0.8,-0.2 1.9,-0.4 2.8,-0.3 0.5,0 0.9,0 1.4,0 0.5,0 1,0 1.4,0.1 1,0.2 2,0.3 2.9,0.7 0.5,0.2 1,0.3 1.4,0.6 0.4,0.3 0.9,0.5 1.3,0.8 0.9,0.5 1.6,1.3 2,2.1 0.2,0.4 0.4,0.7 0.5,1.1 0.8,1.1 1.5,2.4 2.1,3.6 0.5,1.1 0.8,2.2 0.9,3.4 2.2,-7.2 3.7,-14.5 4.6,-21.9 l -99,0 0.2,0.8 2.1,7.2 z"
           id="path29"
           inkscape:connector-curvature="0"
           style="fill:none" /><path
           class="noFillSVG"
           d="m 647.3,261.1 c -3.3,8.3 -7.7,16.4 -13,24.3 0.8,-0.4 1.6,-0.8 2.5,-1.1 1.6,-0.6 3.2,-1.1 4.9,-1.3 0.7,-0.1 1.6,-0.2 2.3,-0.1 0.2,0 0.3,0.1 0.4,0.2 0.2,0 0.4,0 0.7,0.1 4,0.8 7.2,4.2 7.8,8.4 -0.8,0 -1.6,0 -2.4,0.1 -0.8,0.1 -1.6,0 -2.4,-0.1 -2,-0.2 -3.9,-0.7 -5.8,-1.4 -0.9,-0.4 -1.8,-0.9 -2.7,-1.4 l -0.6,-0.4 c -0.2,-0.1 -0.4,-0.3 -0.6,-0.4 -0.4,-0.2 -0.9,-0.6 -1.2,-0.9 0.1,-0.2 0.4,-0.2 0.6,-0.4 0.2,-0.2 0.4,-0.3 0.6,-0.3 0.5,-0.2 0.9,-0.3 1.4,-0.4 0.9,-0.2 1.8,-0.3 2.7,-0.3 1,0.1 1.8,0.5 2.7,0.9 0.9,0.3 1.7,0.8 2.6,1.2 0.8,0.4 1.5,0.8 2.2,1.3 0,-0.1 -0.1,-0.2 -0.2,-0.2 -0.4,-0.4 -0.7,-0.8 -1.1,-1.2 -0.4,-0.4 -0.8,-0.7 -1.2,-1.1 -0.8,-0.6 -1.7,-1.2 -2.6,-1.5 -0.8,-0.3 -1.6,-0.5 -2.3,-0.6 -0.7,0.1 -1.5,0.2 -2.2,0.4 -1.3,0.3 -2.6,0.7 -3.8,1.2 -1.9,0.8 -3.6,1.7 -5,2.9 -1.1,1.5 -2.1,2.9 -3.3,4.4 -1.1,1.5 -2.3,2.9 -3.5,4.3 6.1,2 11.1,3.4 15.9,4.4 l 0,0 c 2.5,0.5 5.1,0.9 7.6,1.3 2.9,0.2 5.6,-0.6 8.1,-1.8 0.6,-0.3 1.2,-0.6 1.8,-1.1 -0.1,0 -0.2,0 -0.3,0 0.1,-0.1 0.5,-0.2 0.6,-0.3 0.1,0 0.2,-0.1 0.3,-0.1 0.3,-0.3 0.7,-0.5 1,-0.8 0.6,-0.5 1.1,-1 1.6,-1.6 0,0 0.1,-0.1 0.1,-0.1 0.3,-0.4 0.5,-0.7 0.7,-1.2 0.9,-1.8 1.1,-3.8 1.2,-5.8 0,-0.5 0,-1 0,-1.5 -0.1,0.8 -0.3,1.5 -0.6,2.2 -0.7,1.9 -1.2,4 -2.5,5.6 -0.4,0.4 -0.7,0.9 -1.2,1.2 -0.5,0.3 -0.9,0.5 -1.4,0.8 -1,0.4 -2,0.3 -3,0.4 0.2,-0.5 0.3,-1 0.3,-1.5 0.1,-0.5 0.3,-1 0.5,-1.4 0.2,-0.5 0.4,-1 0.6,-1.5 0.2,-0.4 0.4,-0.9 0.6,-1.3 0.9,-1.8 2.1,-3.6 3.5,-5.1 1.1,-1.2 2.3,-2.3 3.6,-3.2 0,0 0,0 0,0 0.1,-0.1 0.1,0.1 0.2,0.2 0.4,0.8 0.8,1.8 0.9,2.7 0.1,0.5 0.2,0.9 0.3,1.4 0.1,0.5 0.2,1 0.2,1.4 0,1 0,2 -0.1,3 -0.1,0.5 -0.1,1 -0.4,1.5 -0.2,0.5 -0.4,0.9 -0.6,1.4 -0.4,0.9 -1.1,1.8 -1.8,2.4 -0.3,0.3 -0.7,0.5 -1.1,0.6 -1.1,1 -2.3,2 -3.5,2.8 -1.1,0.6 -2.2,1.1 -3.3,1.4 9,1 17.8,1.3 26.2,0.8 1.9,-0.1 3.9,-0.3 5.8,-0.5 0,0 0,0 0.1,0 0.1,0 0.1,0 0.2,0 11.2,-1.1 22.4,-3.3 33.3,-6.6 l 7.2,-2.4 0,0 c 2.8,-1 4.7,-3.3 6.4,-5.6 0.4,-0.6 0.8,-1.2 1.1,-1.8 -0.1,0 -0.2,0.1 -0.3,0.1 0.1,-0.2 0.3,-0.4 0.4,-0.5 0,-0.1 0.1,-0.1 0.1,-0.2 0.2,-0.4 0.4,-0.8 0.6,-1.2 0.3,-0.7 0.6,-1.4 0.7,-2.1 0,0 0,-0.1 0,-0.1 0.1,-0.4 0.1,-0.9 0.1,-1.3 0,-2 -0.8,-3.9 -1.6,-5.7 -0.2,-0.5 -0.4,-0.9 -0.7,-1.4 0.2,0.7 0.4,1.5 0.5,2.2 0.2,2 0.7,4 0.3,6 -0.1,0.6 -0.3,1.1 -0.6,1.6 -0.3,0.5 -0.6,0.8 -0.9,1.3 -0.7,0.8 -1.6,1.3 -2.5,1.9 -0.1,-0.5 -0.2,-1 -0.4,-1.5 -0.2,-0.4 -0.2,-1 -0.3,-1.5 -0.1,-0.5 -0.1,-1.1 -0.2,-1.6 0,-0.5 0,-1 0,-1.5 0,-2.1 0.2,-4.2 0.7,-6.1 0.4,-1.5 1,-3 1.8,-4.3 0,0 0,0 0,0 0,-0.1 0.1,0 0.3,0.1 0.7,0.5 1.6,1.2 2.1,1.9 0.3,0.4 0.6,0.7 0.9,1.1 0.3,0.4 0.6,0.8 0.8,1.2 0.5,0.9 1,1.8 1.2,2.7 0.1,0.5 0.3,1 0.4,1.5 0,0.5 0.1,1 0.1,1.5 0.1,1 -0.1,2.1 -0.5,3 -0.2,0.4 -0.4,0.7 -0.6,1 -0.5,1.4 -1.1,2.7 -1.9,4 -0.7,1.1 -1.5,2 -2.4,3 l 5.9,-2.4 c 1.5,-0.6 3,-1.3 4.5,-2.1 l 4.5,-2.2 c 0.5,-0.3 1.1,-0.5 1.6,-0.8 1,-0.5 1.9,-0.9 2.9,-1.5 l 4.3,-2.5 c 12.2,-7.1 23,-15.2 32,-24 l 0.7,0.7 -0.7,-0.7 c 1.8,-1.8 3.6,-3.6 5.3,-5.4 1.9,-2.3 2.7,-5 3.2,-7.7 0.1,-0.7 0.1,-1.4 0.1,-2.1 -0.1,0.1 -0.2,0.1 -0.2,0.3 0,-0.2 0.1,-0.5 0.1,-0.7 0,-0.1 0,-0.2 0,-0.2 0,-0.4 0,-0.9 -0.1,-1.3 -0.1,-0.7 -0.2,-1.5 -0.3,-2.2 0,0 0,-0.1 0,-0.1 -0.1,-0.4 -0.3,-0.8 -0.5,-1.2 -0.9,-1.8 -2.5,-3.1 -4,-4.3 -0.4,-0.3 -0.8,-0.6 -1.3,-0.9 0.5,0.6 1,1.1 1.5,1.7 1.1,1.7 2.6,3.3 3.1,5.3 0.2,0.6 0.3,1.1 0.3,1.7 0,0.5 -0.1,1 -0.2,1.6 -0.1,1.1 -0.8,1.9 -1.4,2.8 -0.3,-0.4 -0.7,-0.8 -1,-1.1 -0.3,-0.3 -0.6,-0.8 -0.9,-1.2 -0.3,-0.5 -0.6,-0.9 -0.9,-1.4 -0.2,-0.4 -0.5,-0.8 -0.7,-1.3 -1,-1.8 -1.8,-3.8 -2.2,-5.8 -0.4,-1.6 -0.6,-3.2 -0.5,-4.7 0,0 0,0 0,0 0,-0.1 0.1,0 0.3,0 0.9,0.1 1.9,0.4 2.8,0.8 0.4,0.2 0.9,0.3 1.3,0.5 0.4,0.2 0.9,0.4 1.3,0.7 0.8,0.6 1.7,1.1 2.4,1.8 0.4,0.4 0.8,0.7 1,1.2 0.3,0.4 0.5,0.9 0.8,1.3 0.6,0.8 0.9,1.9 0.9,2.9 0,0.4 0,0.8 -0.1,1.2 0.3,1.5 0.3,3 0.2,4.5 0,1.3 -0.3,2.4 -0.7,3.6 4.9,-5.5 9.3,-11.4 13.3,-17.5 l 0,-2.4 c -0.4,-0.3 -0.6,-0.7 -0.6,-1.2 l -154.7,0 c -1.4,11.4 -4.5,23.1 -9,34.3 l 0,0 z"
           id="path31"
           inkscape:connector-curvature="0"
           style="fill:none" /><path
           class="noFillSVG"
           d="m 409.3,232.6 c 0,0 0,0 0,0 0,0 0,0 0,0 0.9,10.4 3.3,20.6 7.1,30.6 l -0.9,0.3 0.9,-0.3 c 0.8,2.2 1.7,4.3 2.7,6.4 l 0,-0.1 c 1.2,2.5 3.5,4 5.8,5.3 0.6,0.3 1.2,0.6 1.8,0.8 0,-0.1 -0.1,-0.2 -0.1,-0.3 0.2,0 0.4,0.3 0.5,0.3 0.1,0 0.1,0.1 0.2,0.1 0.4,0.1 0.8,0.3 1.2,0.4 0.7,0.2 1.4,0.3 2.1,0.4 0,0 0.1,0 0.1,0 0.4,0 0.9,0 1.3,-0.1 2,-0.3 3.7,-1.3 5.4,-2.3 0.4,-0.3 0.9,-0.5 1.3,-0.8 -0.7,0.3 -1.4,0.6 -2.1,0.8 -1.9,0.5 -3.9,1.3 -5.9,1.2 -0.6,0 -1.1,-0.1 -1.6,-0.3 -0.5,-0.2 -0.8,-0.4 -1.3,-0.7 -0.8,-0.5 -1.3,-1.3 -1.9,-2 0.5,-0.1 1,-0.3 1.4,-0.6 0.4,-0.2 1,-0.3 1.5,-0.4 0.5,-0.1 1.1,-0.3 1.6,-0.4 0.5,-0.1 0.9,-0.2 1.4,-0.2 2,-0.3 4.1,-0.4 6,-0.2 1.6,0.2 3.1,0.4 4.4,0.9 0,0 0,0 0,0 0.1,0 0,0.1 -0.1,0.2 -0.4,0.7 -1.1,1.6 -1.8,2.2 -0.4,0.3 -0.6,0.7 -1,1 -0.4,0.3 -0.7,0.7 -1.1,0.9 -0.8,0.6 -1.6,1.1 -2.6,1.5 -0.5,0.2 -0.9,0.5 -1.4,0.6 -0.5,0.1 -1,0.2 -1.5,0.3 -1,0.3 -2,0.2 -3,-0.1 -0.4,-0.1 -0.8,-0.3 -1.1,-0.5 -1.4,-0.2 -2.8,-0.6 -4,-1.2 -1.1,-0.5 -2.1,-1.2 -3.1,-1.9 0.8,1.7 1.7,3.3 2.7,4.9 1.3,-0.2 2.5,-0.3 3.7,-0.5 12.8,-2 24.6,-5 35.1,-9.2 11.7,-4.6 22.2,-10.6 31.4,-18 1.8,-1.4 3.5,-2.9 5.2,-4.5 l 0,0 c 1.9,-1.9 2.7,-4.5 3.1,-7.1 0.1,-0.6 0.1,-1.3 0.1,-1.9 -0.1,0.1 -0.1,0.1 -0.2,0.2 0,-0.2 0.1,-0.4 0.1,-0.6 0,-0.1 0,-0.1 0,-0.2 0,-0.4 0,-0.8 -0.1,-1.2 -0.1,-0.7 -0.2,-1.4 -0.4,-2.1 0,0 0,-0.1 0,-0.1 -0.2,-0.4 -0.3,-0.8 -0.6,-1.2 -1,-1.7 -2.5,-3 -4,-4.3 -0.4,-0.3 -0.8,-0.6 -1.2,-0.9 0.5,0.6 1,1.1 1.5,1.7 1.2,1.6 2.6,3.2 3.1,5.1 0.2,0.5 0.3,1 0.3,1.5 0,0.5 -0.1,0.9 -0.2,1.4 -0.1,1 -0.8,1.7 -1.2,2.5 -0.3,-0.4 -0.6,-0.8 -1,-1.2 -0.3,-0.3 -0.6,-0.8 -0.9,-1.2 -0.3,-0.5 -0.6,-0.9 -0.9,-1.4 -0.2,-0.4 -0.5,-0.8 -0.7,-1.3 -1,-1.8 -1.8,-3.7 -2.3,-5.5 -0.3,-1.1 -0.5,-2.2 -0.6,-3.3 l -84.6,0 0,0.7 c 0.1,2.3 0.2,4.1 0.4,5.9 z"
           id="path33"
           inkscape:connector-curvature="0"
           style="fill:none" /><path
           class="noFillSVG"
           d="m 858.2,499.4 c 0.8,0.5 1.6,1 2.4,1.5 0.5,-0.5 1.1,-1 1.7,-1.5 -0.6,-0.5 -1.2,-1 -1.7,-1.5 -0.8,0.5 -1.6,1 -2.4,1.5 z"
           id="path35"
           inkscape:connector-curvature="0"
           style="fill:none" /><path
           class="noFillSVG"
           d="m 865.4,499.4 c 2,1.3 4.2,2.3 6.6,2.1 2.6,-0.2 5.4,-1 8,-2.1 -2.7,-1.1 -6.1,-2.1 -8.7,-2.2 -2,-0.1 -4.1,0.9 -5.9,2.2 z"
           id="path37"
           inkscape:connector-curvature="0"
           style="fill:none" /><path
           class="noFillSVG"
           d="m 846.2,497.6 c -2.9,0.3 -6.2,0.9 -9.2,1.8 3,0.9 6.2,1.5 9.2,1.9 2.8,0.4 5.6,-0.5 8.2,-1.9 -2.6,-1.3 -5.3,-2.1 -8.2,-1.8 z"
           id="path39"
           inkscape:connector-curvature="0"
           style="fill:none" /><path
           class="noFillSVG"
           d="m 823.1,492.1 c 0.6,0.8 0.3,2.7 0.3,3.7 0,2.1 0,4.2 0.1,6.3 0,1.3 0.5,3.7 -0.3,4.8 2.5,-3.2 5.7,-5.5 9.4,-7.3 -3.9,-1.7 -7,-4.2 -9.5,-7.5 z"
           id="path41"
           inkscape:connector-curvature="0"
           style="fill:none" /><path
           class="noFillSVG"
           d="m 495.5,253.5 c -6.9,5.6 -14.6,10.4 -23,14.4 0.9,0.1 1.7,0.1 2.6,0.3 1.6,0.3 3.3,0.8 4.9,1.4 0.7,0.3 1.5,0.6 2.1,1.1 0.2,0.1 0.2,0.3 0.3,0.4 0.2,0.1 0.4,0.2 0.5,0.4 3,2.7 4.1,7.2 2.5,11.1 -0.7,-0.4 -1.4,-0.8 -2.1,-1.2 -0.7,-0.4 -1.3,-0.8 -2,-1.3 -1.7,-1.1 -3,-2.5 -4.2,-4.1 -0.6,-0.8 -1.1,-1.7 -1.6,-2.5 l -0.3,-0.7 c -0.1,-0.2 -0.2,-0.4 -0.3,-0.6 -0.3,-0.4 -0.4,-0.9 -0.6,-1.4 0.2,-0.1 0.4,0 0.7,0 0.3,0 0.4,0 0.7,0 0.5,0.1 0.9,0.2 1.4,0.4 0.9,0.2 1.7,0.6 2.5,1.2 0.8,0.6 1.3,1.4 1.9,2.1 0.6,0.8 1.1,1.6 1.6,2.4 0.5,0.7 0.9,1.5 1.2,2.3 0,-0.1 0,-0.2 0,-0.3 -0.1,-0.5 -0.2,-1.1 -0.4,-1.6 -0.1,-0.5 -0.3,-1 -0.5,-1.6 -0.4,-1 -0.8,-1.9 -1.5,-2.7 -0.5,-0.6 -1.1,-1.2 -1.7,-1.7 -0.7,-0.3 -1.4,-0.6 -2.1,-0.8 -1.3,-0.4 -2.5,-0.8 -3.8,-0.9 -2,-0.3 -3.8,-0.4 -5.7,-0.1 -1.7,0.7 -3.3,1.4 -5.1,2.1 -10.7,4.2 -22.6,7.3 -35.5,9.3 -1,0.1 -2,0.3 -2.9,0.4 2.8,4.7 5.9,9.2 9.4,13.7 1.1,1.4 2.3,2.8 3.4,4.2 0,0 0,0 0,0 0,0 0,0 0,0 3.1,3.6 6.3,6.8 9,9.4 4.1,3.6 9,7.9 14.4,11.4 l -0.5,0.8 0.5,-0.8 c 2,1.3 3.9,2.5 5.9,3.7 2.4,1.1 5,1.4 7.7,0.9 0.7,-0.1 1.3,-0.3 1.9,-0.4 -0.1,-0.1 -0.2,-0.1 -0.3,-0.1 0.2,-0.1 0.5,0 0.6,0 0.1,0 0.1,0 0.2,0 0.4,-0.1 0.8,-0.3 1.2,-0.4 0.7,-0.3 1.3,-0.6 1.9,-0.9 0,0 0.1,0 0.1,-0.1 0.3,-0.3 0.7,-0.5 1,-0.8 1.4,-1.3 2.3,-3.2 3.1,-5 0.2,-0.5 0.4,-0.9 0.6,-1.4 -0.4,0.7 -0.8,1.3 -1.3,1.9 -1.3,1.5 -2.4,3.3 -4.1,4.3 -0.5,0.3 -0.9,0.5 -1.4,0.7 -0.5,0.1 -0.9,0.2 -1.4,0.2 -1,0.1 -1.9,-0.2 -2.8,-0.5 0.3,-0.4 0.6,-0.8 0.8,-1.3 0.2,-0.4 0.6,-0.8 0.9,-1.2 0.4,-0.4 0.7,-0.8 1.1,-1.2 0.3,-0.3 0.7,-0.7 1,-1 1.5,-1.5 3.1,-2.7 4.8,-3.7 1.3,-0.8 2.7,-1.4 4,-1.8 0,0 0,0 0,0 0.1,-0.1 0.1,0.1 0.1,0.3 0.1,0.8 0,1.9 -0.2,2.8 -0.1,0.4 -0.1,0.9 -0.2,1.4 -0.1,0.5 -0.2,1 -0.4,1.4 -0.3,0.9 -0.7,1.9 -1.2,2.8 -0.3,0.4 -0.5,0.9 -0.8,1.3 -0.3,0.4 -0.7,0.7 -1,1.1 -0.6,0.8 -1.6,1.4 -2.4,1.7 -0.4,0.1 -0.8,0.2 -1.2,0.2 -1.2,0.6 -2.6,1.1 -3.9,1.4 -1.1,0.2 -2.3,0.3 -3.5,0.3 7.3,3.8 14.8,6.8 22.5,8.9 11.8,3.3 24.1,4.8 36.5,4.6 2.3,-0.1 4.7,-0.2 7,-0.4 2.7,-0.4 4.9,-1.9 6.9,-3.6 0.5,-0.4 0.9,-0.9 1.3,-1.4 -0.1,0 -0.2,0 -0.3,0.1 0.1,-0.2 0.4,-0.3 0.5,-0.4 0.1,-0.1 0.1,-0.1 0.2,-0.1 0.2,-0.3 0.5,-0.7 0.7,-1 0.4,-0.6 0.8,-1.2 1.1,-1.9 0,0 0,-0.1 0,-0.1 0.1,-0.4 0.3,-0.8 0.4,-1.3 0.4,-1.9 0.1,-3.9 -0.2,-5.9 -0.1,-0.5 -0.2,-1 -0.3,-1.5 0,0.8 0.1,1.5 0,2.3 -0.2,2 -0.2,4.1 -1,5.9 -0.2,0.5 -0.5,1 -0.8,1.4 -0.3,0.4 -0.7,0.7 -1.1,1 -0.8,0.6 -1.7,0.8 -2.6,1.1 0,-0.5 0,-1 0,-1.5 0,-0.5 0,-1.1 0.1,-1.5 0.1,-0.5 0.1,-1.1 0.2,-1.6 0.1,-0.5 0.2,-0.9 0.3,-1.4 0.4,-2 1,-3.9 1.9,-5.7 0.7,-1.4 1.5,-2.7 2.4,-3.8 0,0 0,0 0,0 0,-0.1 0.1,0.1 0.2,0.2 0.6,0.7 1.1,1.6 1.4,2.5 0.2,0.4 0.4,0.8 0.6,1.3 0.2,0.4 0.4,0.9 0.5,1.4 0.3,1 0.5,1.9 0.6,2.9 0,0.5 0.1,1 0,1.5 -0.1,0.5 -0.2,1 -0.2,1.5 -0.1,1 -0.5,2 -1.1,2.7 -0.2,0.3 -0.5,0.6 -0.8,0.8 -0.7,1.2 -1.6,2.4 -2.5,3.4 -0.8,0.9 -1.8,1.6 -2.8,2.2 8.1,-1 16,-2.7 23.7,-5.2 1.7,-0.5 3.4,-1.1 5.1,-1.7 0,0 0,0 0.1,-0.1 0.1,0 0.1,0 0.2,0 9.5,-3.5 18.7,-8.4 27.6,-14.6 l 0.6,0.8 -0.6,-0.8 c 1.9,-1.3 3.8,-2.7 5.5,-4.2 l 0,0 c 1,-0.9 1.8,-2 2.4,-3.1 0.6,-1.2 1,-2.5 1.3,-3.8 0.2,-0.6 0.2,-1.3 0.3,-1.9 -0.1,0.1 -0.2,0.1 -0.2,0.2 0,-0.2 0.2,-0.4 0.2,-0.6 0,-0.1 0,-0.1 0.1,-0.2 0,-0.4 0.1,-0.8 0.1,-1.2 0,-0.7 0,-1.4 -0.1,-2.1 0,0 0,-0.1 0,-0.1 -0.1,-0.4 -0.3,-0.8 -0.4,-1.3 -0.8,-1.8 -2.2,-3.3 -3.5,-4.7 -0.4,-0.4 -0.7,-0.7 -1.1,-1 0.5,0.6 0.9,1.2 1.3,1.9 1,1.8 2.2,3.5 2.6,5.5 0.1,0.5 0.2,1.1 0.1,1.6 -0.1,0.5 -0.2,0.9 -0.3,1.4 -0.3,1 -0.9,1.6 -1.5,2.4 -0.2,-0.4 -0.6,-0.9 -0.9,-1.2 -0.3,-0.4 -0.6,-0.9 -0.8,-1.3 -0.2,-0.5 -0.5,-1 -0.7,-1.4 -0.2,-0.4 -0.4,-0.9 -0.6,-1.3 -0.8,-1.9 -1.4,-3.9 -1.6,-5.8 -0.2,-1.5 -0.3,-3 -0.2,-4.5 0,0 0,0 0,0 0,-0.1 0.1,0 0.3,0 0.8,0.2 1.8,0.7 2.6,1.2 0.4,0.3 0.8,0.4 1.2,0.7 0.4,0.3 0.8,0.5 1.2,0.8 0.8,0.7 1.5,1.3 2.1,2.1 0.3,0.4 0.7,0.8 0.9,1.3 0.2,0.4 0.4,0.9 0.7,1.3 0.5,0.9 0.7,1.9 0.7,2.9 0,0.4 -0.1,0.8 -0.2,1.1 0.1,1.4 0,2.8 -0.2,4.2 -0.2,1.2 -0.6,2.3 -1,3.4 1.5,-1.3 3,-2.6 4.3,-3.9 2.2,-2.2 4.6,-4.7 7,-7.4 -0.2,-0.1 -0.4,-0.1 -0.6,-0.2 l -7.1,-2.8 -6.9,-3.3 -4.5,-2.4 c -12.2,-6.7 -22.8,-15.3 -31.4,-25.6 l 0,0 c -1.1,-1.2 -2,-2.5 -2.9,-3.7 l -0.2,-0.3 c -0.3,-0.5 -0.7,-0.9 -1,-1.4 -0.7,-0.9 -1.3,-1.8 -1.9,-2.7 l -2.6,-4.4 c -0.2,-0.3 -0.3,-0.5 -0.5,-0.8 -0.3,-0.5 -0.6,-1 -0.8,-1.5 l -1.1,-2.3 c -0.2,-0.5 -0.5,-1.1 -0.8,-1.6 -0.5,-1 -1,-2 -1.4,-3 l -1.5,-4.3 c -0.1,0.9 -0.3,1.9 -0.5,2.8 -0.5,1.7 -1,3.6 -1.7,5.2 -0.3,0.7 -0.6,1.6 -1.1,2.1 -0.1,0.2 -0.3,0.2 -0.4,0.3 -0.1,0.2 -0.2,0.4 -0.4,0.5 -2.8,3 -7.5,3.7 -11.6,1.2 0.4,-0.7 0.9,-1.5 1.3,-2.3 0.4,-0.8 0.9,-1.4 1.4,-2.1 1.3,-1.7 2.8,-3 4.5,-4.1 0.9,-0.5 1.8,-0.9 2.7,-1.3 l 0.7,-0.2 c 0.2,-0.1 0.5,-0.1 0.7,-0.2 0.4,-0.2 1,-0.3 1.4,-0.4 0.1,0.3 0,0.5 0,0.8 0,0.3 0,0.5 -0.1,0.8 -0.1,0.5 -0.3,1 -0.5,1.5 -0.3,0.9 -0.8,1.8 -1.4,2.6 -0.6,0.8 -1.5,1.3 -2.2,1.8 -0.8,0.6 -1.7,1 -2.5,1.5 -0.7,0.4 -1.5,0.8 -2.4,1 0.1,0 0.2,0 0.3,0 0.5,-0.1 1.1,-0.1 1.6,-0.2 0.6,-0.1 1.1,-0.2 1.6,-0.4 1,-0.3 1.9,-0.7 2.8,-1.3 0.6,-0.5 1.3,-1 1.8,-1.6 0.3,-0.7 0.6,-1.4 0.9,-2.2 0.5,-1.4 1,-2.7 1.2,-4.1 0.3,-1.5 0.5,-2.9 0.5,-4.4 0.1,-0.6 0.1,-1.2 0.1,-1.7 l -1.5,-5.9 -0.2,-1.3 -34.5,0 c -6.2,9.8 -14,18.9 -23.8,26.8 z"
           id="path43"
           inkscape:connector-curvature="0"
           style="fill:none" /><path
           class="noFillSVG"
           d="m 536.5,157.1 c 0.7,1.2 1.5,2.4 2.3,3.6 0.8,-1.2 1.5,-2.4 2.3,-3.6 -0.7,-0.8 -1.5,-1.6 -2.3,-2.6 -0.8,1 -1.6,1.8 -2.3,2.6 z"
           id="path45"
           inkscape:connector-curvature="0"
           style="fill:none" /><path
           class="noFillSVG"
           d="m 538.7,149.9 c 2,-3 3.5,-6.3 3.2,-9.9 -0.3,-3.9 -1.6,-8.1 -3.1,-11.9 -1.6,4.1 -3.1,9.2 -3.4,13.1 -0.2,2.8 1.4,5.9 3.3,8.7 z"
           id="path47"
           inkscape:connector-curvature="0"
           style="fill:none" /><path
           class="noFillSVG"
           d="m 527.7,213.2 c 1.2,-0.9 4.1,-0.4 5.5,-0.4 3.2,0 6.3,-0.1 9.5,-0.1 1.9,0 5.6,-0.8 7.2,0.5 -4.8,-3.8 -8.3,-8.5 -10.9,-14.2 -2.6,5.9 -6.3,10.5 -11.3,14.2 z"
           id="path49"
           inkscape:connector-curvature="0"
           style="fill:none" /><path
           class="noFillSVG"
           d="m 766.9,277.6 c 0.9,-0.1 1.8,-0.2 2.8,-0.2 1.8,0 3.6,0.2 5.4,0.6 0.7,0.2 1.7,0.4 2.3,0.8 0.2,0.1 0.3,0.2 0.3,0.4 0.2,0.1 0.4,0.2 0.6,0.3 3.4,2.3 5,6.7 3.8,10.8 -0.8,-0.3 -1.6,-0.6 -2.3,-0.8 -0.8,-0.2 -1.5,-0.6 -2.2,-1 -1.8,-0.9 -3.5,-2 -4.9,-3.4 -0.7,-0.7 -1.3,-1.5 -1.9,-2.3 l -0.4,-0.6 c -0.1,-0.2 -0.2,-0.4 -0.4,-0.6 -0.3,-0.3 -0.6,-0.9 -0.7,-1.3 0.2,-0.1 0.5,-0.1 0.7,-0.2 0.3,-0.1 0.5,-0.1 0.8,-0.1 0.5,0 1,0.1 1.5,0.1 0.9,0.1 1.9,0.4 2.7,0.8 0.9,0.4 1.5,1.2 2.3,1.8 0.7,0.7 1.3,1.4 2,2.1 0.6,0.6 1.1,1.3 1.5,2.1 0,-0.1 0,-0.2 -0.1,-0.3 -0.2,-0.5 -0.4,-1 -0.5,-1.5 -0.2,-0.5 -0.5,-1 -0.7,-1.5 -0.5,-0.9 -1.1,-1.8 -1.8,-2.4 -0.6,-0.5 -1.3,-1.1 -2,-1.5 -0.7,-0.2 -1.5,-0.3 -2.3,-0.4 -1.4,-0.2 -2.8,-0.3 -4.2,-0.2 -2.2,0.1 -4.2,0.4 -6.2,1.1 -1.6,1 -3.3,2 -5,3 l -4.3,2.5 c -1,0.6 -2,1 -3,1.5 -0.5,0.3 -1.1,0.5 -1.6,0.8 l -4.5,2.2 c -1.5,0.8 -3.1,1.5 -4.7,2.1 l -9.3,3.8 -9.6,3.2 -0.3,-0.9 0.3,0.9 c -9.6,2.9 -19.4,5 -29.2,6.2 0.9,0.3 1.8,0.7 2.6,1.2 1.6,0.8 3.1,1.7 4.5,2.8 0.6,0.5 1.3,1 1.7,1.7 0.1,0.2 0.1,0.3 0.1,0.5 0.1,0.2 0.3,0.3 0.4,0.5 2,3.5 1.5,8.2 -1.5,11.4 -0.6,-0.6 -1.1,-1.2 -1.7,-1.7 -0.6,-0.6 -1,-1.2 -1.5,-1.8 -1.3,-1.6 -2.2,-3.4 -2.9,-5.3 -0.3,-1 -0.5,-1.9 -0.7,-2.9 l -0.1,-0.7 c 0,-0.2 0,-0.5 -0.1,-0.7 -0.2,-0.4 -0.1,-1 -0.1,-1.5 0.3,0 0.5,0.1 0.7,0.2 0.3,0.1 0.5,0.1 0.7,0.3 0.4,0.2 0.9,0.5 1.3,0.8 0.8,0.5 1.5,1.1 2.1,1.8 0.6,0.8 0.8,1.7 1.2,2.6 0.4,0.9 0.5,1.9 0.8,2.8 0.2,0.8 0.4,1.7 0.4,2.6 0,-0.1 0.1,-0.2 0.1,-0.3 0,-0.5 0.1,-1.1 0.2,-1.6 0.1,-0.6 0,-1.1 0,-1.7 0,-1 -0.2,-2 -0.5,-3 -0.3,-0.8 -0.7,-1.5 -1.1,-2.2 -0.6,-0.5 -1.2,-0.9 -1.8,-1.3 -1.2,-0.7 -2.3,-1.5 -3.6,-2.1 -1.9,-0.9 -3.7,-1.5 -5.7,-1.9 -2,0.2 -4.1,0.4 -6.1,0.5 -2.9,0.2 -5.7,0.3 -8.7,0.3 -10.2,0 -20.9,-1 -31.7,-3.1 l 0.2,-1 -0.2,1 c -5.1,-1 -10.4,-2.5 -16.9,-4.7 -2.6,3 -5.2,5.7 -7.6,8.1 -4.1,3.8 -9,8.1 -14.5,11.9 -7.8,5.5 -15.8,9.9 -24.1,13.4 0.9,0.1 1.7,0.2 2.6,0.4 1.6,0.4 3.3,0.9 4.9,1.7 0.7,0.3 1.5,0.7 2,1.2 0.2,0.1 0.2,0.3 0.3,0.4 0.2,0.1 0.4,0.3 0.5,0.4 2.8,2.8 3.8,7.5 1.8,11.2 -0.7,-0.4 -1.4,-0.9 -2.1,-1.3 -0.7,-0.4 -1.3,-0.9 -1.9,-1.4 -1.6,-1.2 -2.9,-2.7 -4,-4.3 -0.6,-0.8 -1,-1.7 -1.4,-2.6 l -0.3,-0.7 c -0.1,-0.2 -0.1,-0.5 -0.3,-0.6 -0.3,-0.4 -0.4,-1 -0.5,-1.4 0.2,-0.1 0.5,0 0.7,0 0.3,0 0.4,0 0.7,0 0.5,0.1 0.9,0.3 1.4,0.4 0.9,0.3 1.7,0.7 2.4,1.3 0.8,0.6 1.3,1.5 1.8,2.2 0.6,0.8 1,1.6 1.5,2.5 0.4,0.7 0.8,1.5 1.1,2.3 0,-0.1 0,-0.2 0,-0.3 -0.1,-0.5 -0.2,-1.1 -0.3,-1.6 -0.1,-0.5 -0.3,-1.1 -0.4,-1.6 -0.3,-1 -0.7,-1.9 -1.3,-2.7 -0.5,-0.7 -1,-1.3 -1.6,-1.8 -0.7,-0.3 -1.4,-0.6 -2.1,-0.9 -1.3,-0.5 -2.5,-0.9 -3.8,-1.1 -1.9,-0.3 -3.7,-0.5 -5.5,-0.4 -1.8,0.7 -3.6,1.3 -5.5,1.9 -11.8,3.8 -24.2,5.9 -36.8,6.2 l 0,-1 0,1 c -0.8,0 -1.6,0 -2.4,0 -8.5,0 -16.9,-0.8 -25.1,-2.4 0.7,0.6 1.4,1.2 2,1.8 1.1,1.3 2.3,2.6 3.1,4.1 0.4,0.6 0.9,1.4 1,2.1 0.1,0.2 0,0.4 0,0.5 0.1,0.2 0.2,0.4 0.2,0.6 0.8,4 -1,8.3 -4.7,10.5 -0.3,-0.7 -0.7,-1.5 -1,-2.2 -0.4,-0.7 -0.6,-1.5 -0.8,-2.2 -0.7,-1.9 -0.9,-3.9 -1,-5.9 0,-1 0.1,-2 0.2,-3 l 0.1,-0.7 c 0,-0.2 0.1,-0.5 0.1,-0.7 0,-0.5 0.2,-1 0.4,-1.4 0.2,0.1 0.4,0.3 0.6,0.4 0.2,0.2 0.4,0.2 0.6,0.5 0.3,0.4 0.6,0.7 0.9,1.1 0.6,0.7 1,1.6 1.3,2.4 0.3,0.9 0.2,1.9 0.3,2.8 0.1,1 -0.1,1.9 -0.1,2.9 0,0.8 -0.2,1.7 -0.4,2.6 0.1,-0.1 0.1,-0.1 0.1,-0.2 0.2,-0.5 0.4,-1 0.7,-1.5 0.2,-0.5 0.3,-1 0.5,-1.6 0.3,-1 0.5,-2 0.4,-3 0,-0.8 -0.1,-1.6 -0.4,-2.4 -0.4,-0.6 -0.8,-1.2 -1.2,-1.8 -0.8,-1.1 -1.6,-2.2 -2.6,-3.1 -1.5,-1.4 -3,-2.6 -4.6,-3.5 -1.8,-0.4 -3.6,-0.8 -5.3,-1.3 -11.8,-3.2 -23.2,-8.4 -33.9,-15.6 l 0,0 c -5.5,-3.6 -10.5,-7.9 -14.7,-11.6 -1.9,-1.8 -4.1,-4 -6.3,-6.4 0.2,0.9 0.4,1.8 0.5,2.7 0.2,1.6 0.3,3.4 0.2,5.1 -0.1,0.7 -0.1,1.6 -0.4,2.3 -0.1,0.2 -0.2,0.3 -0.3,0.4 -0.1,0.2 -0.1,0.4 -0.2,0.6 -1.7,3.7 -5.7,6.1 -9.9,5.7 0.1,-0.8 0.3,-1.6 0.4,-2.4 0.1,-0.8 0.4,-1.5 0.6,-2.3 0.6,-1.9 1.5,-3.6 2.7,-5.3 0.6,-0.8 1.3,-1.5 2,-2.3 l 0.5,-0.5 c 0.2,-0.2 0.4,-0.3 0.5,-0.5 0.3,-0.4 0.8,-0.7 1.2,-0.9 0.2,0.2 0.1,0.4 0.2,0.7 0.1,0.3 0.2,0.4 0.2,0.7 0.1,0.5 0.1,0.9 0.1,1.4 0,0.9 -0.1,1.8 -0.4,2.7 -0.3,0.9 -0.9,1.7 -1.5,2.5 -0.5,0.8 -1.2,1.5 -1.8,2.3 -0.5,0.7 -1.1,1.3 -1.8,1.9 0.1,0 0.2,-0.1 0.2,-0.1 0.5,-0.3 0.9,-0.5 1.4,-0.8 0.5,-0.3 0.9,-0.6 1.3,-1 0.8,-0.6 1.5,-1.3 2.1,-2.2 0.4,-0.7 0.8,-1.4 1.1,-2.2 0.1,-0.7 0.1,-1.5 0.1,-2.2 0,-1.3 -0.1,-2.6 -0.3,-3.9 -0.3,-2 -0.8,-3.8 -1.6,-5.5 -1.2,-1.4 -2.4,-2.8 -3.6,-4.4 -3.7,-4.8 -7,-9.7 -9.9,-14.6 -6.9,0.9 -14.1,1.5 -21.9,1.9 0.8,0.4 1.5,0.8 2.3,1.3 1.3,0.9 2.7,2 3.8,3.3 0.5,0.5 1.1,1.2 1.4,1.8 0.1,0.2 0.1,0.3 0.1,0.5 0.1,0.2 0.2,0.4 0.3,0.6 1.5,3.7 0.6,8.3 -2.1,11.2 -0.4,-0.6 -0.9,-1.3 -1.4,-1.9 -0.5,-0.6 -0.8,-1.3 -1.2,-2 -1,-1.7 -1.7,-3.6 -2.1,-5.5 -0.2,-1 -0.3,-2 -0.5,-3 l 0,-0.7 c 0,-0.2 0,-0.5 0,-0.7 -0.1,-0.4 0,-1 0,-1.5 0.2,0 0.4,0.2 0.6,0.2 0.3,0.1 0.4,0.1 0.6,0.3 0.4,0.3 0.7,0.6 1.1,0.9 0.7,0.6 1.3,1.3 1.7,2.1 0.5,0.8 0.6,1.8 0.9,2.7 0.2,0.9 0.3,1.9 0.5,2.9 0.1,0.8 0.2,1.7 0.2,2.6 0,-0.1 0.1,-0.2 0.1,-0.2 0.1,-0.5 0.2,-1.1 0.3,-1.6 0.1,-0.5 0.1,-1.1 0.1,-1.6 0.1,-1 0,-2 -0.2,-3 -0.2,-0.8 -0.5,-1.6 -0.8,-2.3 -0.5,-0.6 -1,-1.1 -1.5,-1.5 -1,-0.9 -2,-1.7 -3.1,-2.4 -1.7,-1 -3.3,-1.8 -5.1,-2.3 -1.8,0.1 -3.6,0.1 -5.5,0.1 -2.1,0 -4.1,0.1 -6.2,0.1 -11.1,0 -21.1,-0.6 -30.5,-1.8 -9.4,-1.2 -18.3,-3 -26.6,-5.5 0.6,0.6 1.2,1.3 1.8,2 1,1.3 1.9,2.8 2.6,4.4 0.3,0.7 0.7,1.4 0.8,2.2 0,0.2 0,0.4 -0.1,0.5 0,0.2 0.1,0.4 0.1,0.6 0.3,4 -1.9,8.1 -5.6,9.9 -0.3,-0.8 -0.5,-1.5 -0.8,-2.3 -0.3,-0.8 -0.4,-1.5 -0.6,-2.3 -0.4,-1.9 -0.5,-3.9 -0.3,-5.9 0.1,-1 0.3,-2 0.5,-3 l 0.2,-0.7 c 0.1,-0.2 0.2,-0.4 0.2,-0.7 0,-0.5 0.3,-1 0.5,-1.4 0.2,0.1 0.3,0.3 0.5,0.4 0.2,0.2 0.4,0.3 0.5,0.5 0.3,0.4 0.5,0.8 0.8,1.2 0.5,0.8 0.8,1.6 1,2.5 0.2,0.9 0,1.9 0,2.9 -0.1,1 -0.3,1.9 -0.4,2.9 -0.1,0.8 -0.3,1.7 -0.6,2.5 0.1,-0.1 0.1,-0.1 0.1,-0.2 0.2,-0.5 0.5,-0.9 0.8,-1.4 0.3,-0.5 0.4,-1 0.6,-1.5 0.4,-0.9 0.7,-1.9 0.7,-3 0,-0.8 0,-1.6 -0.1,-2.4 -0.3,-0.7 -0.6,-1.3 -1,-2 -0.7,-1.2 -1.4,-2.3 -2.2,-3.2 -1.3,-1.5 -2.6,-2.8 -4.1,-3.9 -1.7,-0.6 -3.5,-1.2 -5.2,-1.8 -11.9,-4.5 -22.7,-10.5 -32.1,-18 -7.4,-5.9 -13.6,-12.6 -18.6,-19.8 -0.8,-1.2 -1.6,-2.3 -2.3,-3.5 -0.2,-0.3 -0.4,-0.6 -0.6,-0.9 l 0,540.9 c 0.1,0.1 0.2,0.1 0.3,0.2 l 545.6,0 c 0,0 0,0 0.1,-0.1 l 0,-538.5 c -6.2,9.1 -13.4,17.6 -21.5,25.4 -6.8,6.7 -14.6,12.9 -23.2,18.6 z"
           id="path51"
           inkscape:connector-curvature="0"
           style="fill:none" /><path
           class="noFillSVG"
           d="m 253.7,506.9 c -0.9,-1.1 -0.3,-3.6 -0.3,-4.8 0,-2.1 0,-4.2 0.1,-6.3 0,-1 -0.3,-2.9 0.3,-3.7 -2.5,3.3 -5.6,5.8 -9.4,7.6 3.6,1.7 6.8,4 9.3,7.2 z"
           id="path53"
           inkscape:connector-curvature="0"
           style="fill:none" /><path
           class="noFillSVG"
           d="m 536,178.6 c 0.5,4.4 1.4,9.3 2.7,13.8 1.4,-4.5 2.3,-9.4 2.9,-13.8 0.5,-4.3 -0.8,-8.4 -2.8,-12.3 -2,3.9 -3.3,8 -2.8,12.3 z"
           id="path55"
           inkscape:connector-curvature="0"
           style="fill:none" /><path
           d="m 280.4,219.9 c 52.8,0 105.5,0 158.3,0 0.9,0 1.4,-0.8 1.3,-1.6 0.3,-4.8 0.5,-12.5 -3.6,-15.9 -3.4,-2.8 -10,-2.6 -13,0.7 -2.9,3.1 -2,8.2 1.6,10.2 3.1,1.7 8.9,-0.1 7.4,-4.5 -0.2,-0.6 -0.8,-1.2 -1.5,-1 -1,0.2 -1,1.6 -1.6,2.5 -0.8,1.2 -2.8,1.1 -3.9,0.1 -1.8,-1.9 -1.2,-5 1,-6.3 1.9,-1.1 5.1,-1.2 7.1,-0.3 4.2,2 4.2,8.9 3.9,13.3 -52.3,0 -104.6,0 -156.9,0 -1.9,0.1 -1.9,2.8 -0.1,2.8 z"
           id="path57"
           inkscape:connector-curvature="0" /><path
           d="m 454.4,220.1 c 4.7,0 9.4,0 14.1,0 9.4,0 18.8,0 28.1,0 0.1,0.1 0.3,0.1 0.5,0.1 19.1,0.4 34.8,-10.9 33.6,-31.4 -1.1,-17 -16,-30.9 -33.2,-23.2 -11.9,5.3 -20,24.4 -4.2,30.8 6.5,2.6 15.5,0 18.2,-6.9 2.1,-5.4 -1.2,-10.7 -7,-10.9 -1.7,-0.1 -1.7,2.7 0,2.7 5.5,5 5.6,9 0.2,11.9 -1.1,0.4 -2.3,0.8 -3.4,1.3 -4,0.8 -8.4,-0.5 -11.1,-3.5 -5.1,-5.7 -3,-13.6 2,-18.5 8.5,-8.3 22.6,-8.2 30.3,1 7,8.3 7.4,22.6 2.1,31.8 -5.2,9.1 -14.9,12.1 -24.7,12.3 -0.1,-0.1 -0.3,-0.1 -0.5,-0.1 -17,0 -34,0 -51.1,0 -0.2,-3.7 -0.8,-7.9 0.5,-11.3 0.9,-2.5 3.4,-4.3 6.1,-3.5 2,0.6 3.4,3 2.3,5 -0.6,1 -1.8,1.6 -2.9,1.5 -0.5,-0.1 -0.9,-0.2 -1.4,-0.1 -0.5,0.1 -1,0.6 -1,1.1 -0.5,4 7,0.5 7.9,-1.8 1.3,-3.3 -0.3,-7.1 -3.7,-8.3 -3.3,-1.2 -7,0.5 -8.8,3.3 -3,4.7 -0.5,9.8 -1.9,14.6 -1.2,3.6 6.8,2.1 9,2.1 z"
           id="path59"
           inkscape:connector-curvature="0" /><path
           d="m 638.9,219.9 c 52.8,0 105.5,0 158.3,0 1.7,0 1.8,-2.7 0,-2.7 -52.3,0 -104.6,0 -156.9,0 -0.3,-4.4 -0.3,-11.3 3.9,-13.3 2.3,-1.1 6.7,-0.5 8.4,1.5 2.7,3 -2,8.6 -4.7,4.3 0.3,-1.7 -2.3,-2.4 -2.6,-0.7 -0.8,4.2 3.5,6.4 7,4.7 3.9,-1.9 5,-7.2 2,-10.4 -2.9,-3.2 -9.2,-3.5 -12.6,-1 -2.8,2 -3.8,5.5 -4.2,8.8 -0.3,1.3 -1,8.8 1.4,8.8 z"
           id="path61"
           inkscape:connector-curvature="0" /><path
           d="m 580.4,220.2 c 0.2,0 0.4,-0.1 0.5,-0.1 9.2,0 18.4,0 27.6,0 4.5,0 9,0 13.5,0 2.5,0 11.2,1.7 10.1,-2.4 0,0 0,-0.1 0,-0.1 -1.3,-4.8 1.2,-9.7 -1.8,-14.3 -1.8,-2.8 -5.6,-4.5 -8.8,-3.3 -7.2,2.6 -4.4,13.8 3.2,11.6 1.7,-0.5 1,-3.1 -0.7,-2.6 -3.9,1.1 -5.6,-4.1 -2.3,-6 2.8,-1.7 6,0.6 7,3.3 1.2,3.4 0.7,7.6 0.5,11.3 -17,0 -34,0 -51.1,0 -0.2,0 -0.3,0 -0.5,0.1 -9.8,-0.3 -19.4,-3.3 -24.7,-12.3 -5.3,-9.2 -4.9,-23.5 2.1,-31.8 7.7,-9.1 21.9,-9.3 30.3,-1 5,5 7.2,12.8 2,18.5 -2.3,2.6 -5.2,3.5 -8.5,3.5 -2.2,0.3 -4.2,-0.1 -6.1,-1.2 -2,-1.1 -3.8,-2.6 -3.9,-5.1 -0.2,-2.8 2.2,-5 4.1,-6.8 1.7,-0.1 1.8,-2.8 0,-2.7 -5.8,0.2 -9.1,5.5 -7,10.9 2.7,6.9 11.6,9.5 18.2,6.9 15.9,-6.4 7.7,-25.5 -4.2,-30.8 -17.2,-7.7 -32.1,6.3 -33.2,23.2 -1.2,20.4 14.6,31.7 33.7,31.2 z"
           id="path63"
           inkscape:connector-curvature="0" /><path
           d="m 537,152.3 c -1,1.3 -2.1,2.5 -3.1,3.7 0,0 0,0.1 -0.1,0.1 -0.4,0.4 -0.5,0.9 -0.1,1.5 1.2,1.8 2.4,3.8 3.6,5.7 -2.1,3.8 -3.9,7.8 -4.2,11.9 -0.3,3.5 1,6.8 1.7,10.1 0.8,3.8 1.3,7.6 2.6,11.2 -3,7.4 -7.9,12.8 -14.8,16.9 -1.1,0.7 -0.7,2.6 0.7,2.5 5.2,-0.1 10.4,-0.3 15.7,-0.4 5.2,0.2 10.4,0.4 15.7,0.4 1.4,0 1.8,-1.8 0.7,-2.5 -7,-4.2 -11.5,-10.1 -14.5,-17.6 0,-0.1 -0.1,-0.2 -0.2,-0.3 2.2,-6 4.6,-14.3 4.1,-20.3 -0.3,-4.1 -2.1,-8.1 -4.2,-11.9 1.2,-2 2.4,-3.9 3.5,-5.8 0.4,-0.6 0.2,-1.1 -0.1,-1.5 0,0 0,-0.1 -0.1,-0.1 -0.9,-1 -2,-2.3 -3.1,-3.7 2.5,-3.2 4.7,-6.8 4.7,-10.1 0.1,-5.7 -3.1,-13.7 -5.6,-18.8 -0.8,-1.5 -3.1,-0.2 -2.4,1.3 -2.2,4.9 -5,12.2 -5,17.6 -0.2,3.3 2,6.9 4.5,10.1 z m 12.9,60.9 c -1.6,-1.3 -5.3,-0.5 -7.2,-0.5 -3.2,0 -6.3,0.1 -9.5,0.1 -1.4,0 -4.4,-0.5 -5.5,0.4 5,-3.7 8.7,-8.4 11.4,-14.2 2.5,5.7 6,10.4 10.8,14.2 z m -8.4,-34.6 c -0.6,4.5 -1.5,9.3 -2.9,13.8 -1.3,-4.5 -2.2,-9.4 -2.7,-13.8 -0.5,-4.3 0.8,-8.4 2.8,-12.3 2,3.9 3.4,8 2.8,12.3 z M 541,157.1 c -0.7,1.2 -1.5,2.4 -2.3,3.6 -0.8,-1.2 -1.5,-2.4 -2.3,-3.6 0.7,-0.8 1.5,-1.6 2.3,-2.6 0.9,1 1.6,1.8 2.3,2.6 z m -2.2,-29 c 1.6,3.8 2.8,8.1 3.1,11.9 0.3,3.5 -1.1,6.9 -3.2,9.9 -1.9,-2.8 -3.5,-5.9 -3.3,-8.7 0.2,-3.9 1.7,-9 3.4,-13.1 z"
           id="path65"
           inkscape:connector-curvature="0" /><path
           d="m 818.7,238.5 c 0,35.2 0,159 0,194.2 0,0.6 0.5,0.9 1.1,0.9 3.2,0.2 8.3,0.3 10.6,-2.4 1.9,-2.3 1.7,-6.7 -0.5,-8.7 -2.1,-1.9 -5.4,-1.3 -6.8,1.1 -1.2,2 0,5.9 3,5 0.4,-0.1 0.8,-0.6 0.7,-1 -0.2,-0.7 -1.1,-0.7 -1.7,-1.1 -0.8,-0.5 -0.8,-1.9 0,-2.6 1.3,-1.2 3.3,-0.8 4.2,0.6 0.8,1.3 0.8,3.4 0.2,4.7 -1.3,2.8 -6,2.8 -8.9,2.6 0,-34.9 0,-158.4 0,-193.3 -0.1,-1.2 -1.9,-1.2 -1.9,0 z"
           id="path67"
           inkscape:connector-curvature="0" /><path
           d="m 834.4,469.1 c -1.7,4.3 0,10.4 4.6,12.1 3.6,1.4 7.2,-0.8 7.3,-4.7 0,-1.2 -1.8,-1.2 -1.8,0 -3.4,3.7 -6,3.7 -7.9,0.1 -0.3,-0.8 -0.6,-1.5 -0.8,-2.3 -0.5,-2.7 0.3,-5.6 2.4,-7.4 3.8,-3.4 9.1,-2 12.4,1.4 5.6,5.6 5.5,15.1 -0.6,20.2 -5.5,4.7 -15.1,4.9 -21.3,1.4 -6,-3.5 -8,-9.9 -8.2,-16.5 0,-0.1 0.1,-0.2 0.1,-0.3 0,-11.4 0,-22.7 0,-34.1 2.4,-0.1 5.2,-0.5 7.5,0.3 1.7,0.6 2.9,2.3 2.4,4 -0.4,1.3 -2,2.3 -3.3,1.6 -0.7,-0.4 -1.1,-1.2 -1,-1.9 0,-0.3 0.1,-0.6 0.1,-0.9 -0.1,-0.4 -0.4,-0.6 -0.7,-0.7 -2.7,-0.4 -0.4,4.7 1.2,5.3 2.2,0.9 4.7,-0.2 5.5,-2.5 0.8,-2.2 -0.3,-4.7 -2.2,-5.9 -3.2,-2 -6.5,-0.3 -9.7,-1.2 -2.5,-0.7 -1.5,4.6 -1.5,6.1 0,3.1 0,6.3 0,9.4 0,6.3 0,12.5 0,18.8 0,0.1 -0.1,0.2 -0.1,0.3 -0.3,12.8 7.3,23.3 21,22.4 11.4,-0.7 20.6,-10.7 15.5,-22.2 -3.9,-8 -16.7,-13.4 -20.9,-2.8 z"
           id="path69"
           inkscape:connector-curvature="0" /><path
           d="m 825.6,572.2 c 1.1,0.2 1.6,-1.5 0.5,-1.7 -2.8,-0.5 -4.3,2.3 -3.1,4.7 1.3,2.6 4.8,3.3 7,1.3 2.1,-2 2.3,-6.1 0.7,-8.4 -1.3,-1.9 -3.7,-2.5 -5.9,-2.8 -1,-0.1 -6,-0.6 -6,1 0,35.2 0,155.8 0,191 0,1.2 1.8,1.2 1.8,0 0,-34.9 0,-155.2 0,-190.1 2.9,-0.2 7.6,-0.2 8.9,2.6 0.7,1.5 0.4,4.4 -1,5.6 -2.1,1.8 -5.8,-1.4 -2.9,-3.2 z"
           id="path71"
           inkscape:connector-curvature="0" /><path
           d="m 839.4,504.9 c -13.7,-0.9 -21.3,9.7 -21,22.4 0,0.1 0,0.2 0.1,0.3 0,6.1 0,12.3 0,18.4 0,3 0,6 0,9 0,1.6 -1.1,7.5 1.6,6.8 0,0 0.1,0 0.1,0 3.2,-0.8 6.5,0.8 9.6,-1.2 1.9,-1.2 3,-3.7 2.2,-5.9 -1.7,-4.8 -9.2,-2.9 -7.7,2.1 0.3,1.1 2.1,0.6 1.7,-0.5 -0.8,-2.6 2.7,-3.7 4,-1.5 1.1,1.9 -0.4,4 -2.2,4.7 -2.3,0.8 -5.1,0.5 -7.5,0.3 0,-11.4 0,-22.7 0,-34.1 0,-0.1 0,-0.2 -0.1,-0.3 0.2,-6.5 2.2,-13 8.2,-16.5 6.2,-3.6 15.7,-3.3 21.3,1.4 6.1,5.1 6.2,14.6 0.6,20.2 -3.3,3.3 -8.5,4.8 -12.4,1.4 -1.7,-1.5 -2.3,-3.4 -2.3,-5.7 -0.2,-1.4 0,-2.8 0.8,-4.1 0.7,-1.4 1.7,-2.5 3.4,-2.6 1.9,-0.1 3.4,1.5 4.5,2.8 0,1.2 1.9,1.2 1.8,0 -0.1,-3.9 -3.7,-6.1 -7.3,-4.7 -4.6,1.8 -6.3,7.8 -4.6,12.1 4.3,10.6 17.1,5.1 20.6,-2.8 5.3,-11.4 -4,-21.3 -15.4,-22 z"
           id="path73"
           inkscape:connector-curvature="0" /><path
           d="m 882.2,498.5 c -3.3,-1.5 -8.2,-3.4 -11.8,-3.3 -2.1,0 -4.5,1.5 -6.6,3.1 -0.9,-0.7 -1.7,-1.4 -2.5,-2.1 0,0 -0.1,0 -0.1,0 -0.3,-0.2 -0.6,-0.3 -1,-0.1 -1.2,0.8 -2.5,1.6 -3.8,2.4 -2.5,-1.4 -5.2,-2.6 -8,-2.8 -2.3,-0.2 -4.5,0.7 -6.7,1.1 -2.5,0.5 -5,0.9 -7.5,1.7 -4.9,-2 -8.5,-5.3 -11.3,-9.9 -0.5,-0.8 -1.7,-0.5 -1.7,0.5 0,3.5 0.2,7 0.3,10.5 -0.1,3.5 -0.2,7 -0.3,10.5 0,0.9 1.2,1.2 1.7,0.5 2.8,-4.7 6.7,-7.7 11.8,-9.7 0.1,0 0.1,-0.1 0.2,-0.1 4,1.5 9.6,3 13.6,2.7 2.7,-0.2 5.4,-1.4 8,-2.8 1.3,0.8 2.6,1.6 3.8,2.4 0.4,0.2 0.8,0.1 1,-0.1 0,0 0.1,0 0.1,-0.1 0.7,-0.6 1.5,-1.4 2.4,-2.1 2.1,1.7 4.6,3.1 6.8,3.2 3.8,0.1 9.1,-2.1 12.5,-3.8 1,-0.7 0.1,-2.2 -0.9,-1.7 z m -59.1,8.4 c 0.9,-1.1 0.3,-3.6 0.3,-4.8 0,-2.1 0,-4.2 -0.1,-6.3 0,-1 0.3,-2.9 -0.3,-3.7 2.5,3.3 5.6,5.8 9.4,7.6 -3.6,1.7 -6.8,4 -9.3,7.2 z m 23.1,-5.6 c -3,-0.4 -6.2,-1 -9.2,-1.9 3,-0.9 6.3,-1.5 9.2,-1.8 2.9,-0.3 5.6,0.6 8.2,1.9 -2.6,1.3 -5.3,2.2 -8.2,1.8 z m 14.4,-0.3 c -0.8,-0.5 -1.6,-1 -2.4,-1.5 0.8,-0.5 1.6,-1 2.4,-1.5 0.5,0.5 1.1,1 1.7,1.5 -0.6,0.5 -1.2,1 -1.7,1.5 z m 11.4,0.5 c -2.4,0.2 -4.6,-0.8 -6.6,-2.1 1.9,-1.3 3.9,-2.3 5.8,-2.2 2.6,0.2 6,1.1 8.7,2.2 -2.5,1.1 -5.3,1.9 -7.9,2.1 z"
           id="path75"
           inkscape:connector-curvature="0" /><path
           d="m 250.1,427.4 c -0.1,0.4 0.3,0.8 0.7,1 2.9,1 4.1,-2.9 3,-5 -1.4,-2.4 -4.7,-3 -6.8,-1.1 -2.2,2 -2.3,6.4 -0.5,8.7 2.3,2.8 7.4,2.7 10.6,2.4 0.5,0 1.1,-0.2 1.1,-0.9 0,-35.2 0,-159 0,-194.2 0,-1.2 -1.8,-1.2 -1.8,0 0,34.9 0,158.4 0,193.3 -2.9,0.2 -7.6,0.2 -8.9,-2.6 -0.6,-1.3 -0.6,-3.4 0.2,-4.7 0.9,-1.5 2.9,-1.9 4.2,-0.6 0.7,0.7 0.8,2 0,2.6 -0.7,0.4 -1.7,0.5 -1.8,1.1 z"
           id="path77"
           inkscape:connector-curvature="0" /><path
           d="m 237.4,494 c 13.7,0.8 21.3,-9.6 21,-22.4 0,-0.1 0,-0.2 -0.1,-0.3 0,-6.3 0,-12.5 0,-18.8 0,-3.1 0,-6.3 0,-9.4 0,-1.5 1,-6.8 -1.5,-6.1 -3.2,0.9 -6.6,-0.8 -9.7,1.2 -1.9,1.2 -3,3.7 -2.2,5.9 0.8,2.3 3.3,3.4 5.5,2.5 1.5,-0.6 3.8,-5.6 1.2,-5.3 -0.4,0 -0.7,0.3 -0.7,0.7 -0.1,0.3 0,0.6 0.1,0.9 0.1,0.8 -0.3,1.6 -1,1.9 -1.3,0.7 -2.9,-0.3 -3.3,-1.6 -0.5,-1.8 0.7,-3.4 2.4,-4 2.3,-0.8 5.1,-0.5 7.5,-0.3 0,11.4 0,22.7 0,34.1 0,0.1 0,0.2 0.1,0.3 -0.2,6.5 -2.2,13 -8.2,16.5 -6.2,3.6 -15.7,3.3 -21.3,-1.4 -6.1,-5.2 -6.2,-14.6 -0.6,-20.2 3.3,-3.3 8.5,-4.8 12.4,-1.4 2,1.8 2.9,4.8 2.4,7.4 -0.3,0.8 -0.6,1.5 -0.8,2.3 -1.9,3.6 -4.6,3.5 -7.9,-0.1 0,-1.2 -1.9,-1.2 -1.8,0 0.1,3.9 3.7,6.1 7.3,4.7 4.6,-1.8 6.4,-7.8 4.6,-12.1 -4.3,-10.6 -17,-5.2 -20.6,2.8 -5.4,11.6 3.8,21.5 15.2,22.2 z"
           id="path79"
           inkscape:connector-curvature="0" /><path
           d="m 258.2,757.2 c 0,-35.2 0,-155.8 0,-191 0,-1.6 -5,-1.1 -6,-1 -2.2,0.2 -4.5,0.9 -5.9,2.8 -1.6,2.3 -1.4,6.5 0.7,8.4 2.1,2 5.7,1.3 7,-1.3 1.1,-2.4 -0.3,-5.2 -3.1,-4.7 -1.1,0.2 -0.7,2 0.5,1.7 2.9,1.8 -0.8,4.9 -2.8,3.2 -1.3,-1.2 -1.7,-4.1 -1,-5.6 1.3,-2.8 6,-2.8 8.9,-2.6 0,34.9 0,155.2 0,190.1 -0.2,1.2 1.7,1.2 1.7,0 z"
           id="path81"
           inkscape:connector-curvature="0" /><path
           d="m 242.5,529.8 c 1.7,-4.4 0,-10.3 -4.6,-12.1 -3.6,-1.4 -7.2,0.8 -7.3,4.7 0,1.2 1.8,1.2 1.8,0 1.2,-1.3 2.7,-2.9 4.5,-2.8 1.7,0.1 2.7,1.3 3.4,2.6 0.8,1.3 1.1,2.6 0.8,4.1 0,2.2 -0.6,4.1 -2.3,5.7 -3.9,3.4 -9.1,1.9 -12.4,-1.4 -5.6,-5.6 -5.4,-15.1 0.6,-20.2 5.5,-4.7 15.1,-4.9 21.3,-1.4 6.1,3.5 8.1,9.9 8.2,16.5 0,0.1 -0.1,0.2 -0.1,0.3 0,11.4 0,22.7 0,34.1 -2.4,0.1 -5.3,0.5 -7.5,-0.3 -1.8,-0.6 -3.3,-2.8 -2.2,-4.7 1.3,-2.2 4.8,-1.1 4,1.5 -0.3,1.1 1.4,1.6 1.7,0.5 1.5,-5.1 -6,-6.9 -7.7,-2.1 -0.8,2.2 0.3,4.7 2.2,5.9 3.1,2 6.4,0.4 9.6,1.2 0,0 0.1,0 0.1,0 2.7,0.7 1.6,-5.1 1.6,-6.8 0,-3 0,-6 0,-9 0,-6.1 0,-12.3 0,-18.4 0,-0.1 0.1,-0.2 0.1,-0.3 0.3,-12.8 -7.3,-23.3 -21,-22.4 -11.3,0.7 -20.6,10.7 -15.5,22.2 3.6,7.7 16.4,13.2 20.7,2.6 z"
           id="path83"
           inkscape:connector-curvature="0" /><path
           d="m 241.9,500.6 c 0.1,0 0.1,0.1 0.2,0.1 5,2 9,5 11.8,9.7 0.5,0.8 1.7,0.5 1.7,-0.5 0,-3.5 -0.2,-7 -0.3,-10.5 0.1,-3.5 0.2,-7 0.3,-10.5 0,-0.9 -1.2,-1.2 -1.7,-0.5 -2.7,4.6 -6.3,7.9 -11.3,9.9 -2.4,-0.9 -4.9,-1.2 -7.5,-1.7 -2.2,-0.4 -4.4,-1.3 -6.7,-1.1 -2.7,0.2 -5.4,1.4 -8,2.8 -1.3,-0.8 -2.6,-1.6 -3.8,-2.4 -0.4,-0.2 -0.8,-0.1 -1,0.1 0,0 -0.1,0 -0.1,0 -0.8,0.7 -1.6,1.4 -2.5,2.1 -2.1,-1.7 -4.5,-3.1 -6.6,-3.1 -3.6,0 -8.5,1.9 -11.8,3.3 -1,-0.5 -1.9,1.1 -0.9,1.6 3.4,1.7 8.7,3.8 12.5,3.8 2.2,0 4.6,-1.5 6.8,-3.2 0.9,0.7 1.8,1.5 2.4,2.1 0,0 0.1,0 0.1,0.1 0.3,0.2 0.6,0.3 1,0.1 1.2,-0.8 2.5,-1.6 3.8,-2.4 2.5,1.4 5.2,2.6 8,2.8 4.1,0.4 9.7,-1.1 13.6,-2.6 z m 11.8,-8.5 c -0.6,0.8 -0.3,2.7 -0.3,3.7 0,2.1 0,4.2 -0.1,6.3 0,1.3 -0.5,3.7 0.3,4.8 -2.5,-3.2 -5.7,-5.5 -9.4,-7.3 3.9,-1.7 7,-4.2 9.5,-7.5 z m -48.9,9.4 c -2.6,-0.2 -5.4,-1 -8,-2.1 2.7,-1.1 6.1,-2.1 8.7,-2.2 1.9,-0.1 4,0.9 5.8,2.2 -1.9,1.4 -4.1,2.3 -6.5,2.1 z m 11.4,-0.5 c -0.5,-0.5 -1.1,-1 -1.7,-1.5 0.6,-0.5 1.2,-1 1.7,-1.5 0.8,0.5 1.6,1 2.4,1.5 -0.8,0.5 -1.6,1 -2.4,1.5 z m 14.4,-3.4 c 2.9,0.3 6.2,0.9 9.2,1.8 -3,0.9 -6.2,1.5 -9.2,1.9 -2.8,0.4 -5.6,-0.5 -8.2,-1.9 2.6,-1.3 5.3,-2.1 8.2,-1.8 z"
           id="path85"
           inkscape:connector-curvature="0" /><path
           d="m 823.7,766.9 c -0.5,1.7 2.1,2.4 2.6,0.7 0.6,-2 4.5,-1.5 5.8,-1.1 2.1,0.7 3.6,1.8 4.6,3.8 2.4,5.2 -2.9,8.7 -7.2,9.5 -4.8,0.9 -9.5,-0.7 -13.1,-3.8 -0.7,-0.8 -1.4,-1.6 -2.1,-2.4 l 0,-547.2 c 0.7,-0.8 1.4,-1.5 2.1,-2.4 3.5,-3.1 8.3,-4.8 13.1,-3.8 4.2,0.8 8.2,3.4 7.6,8.3 -0.4,3.6 -9.6,8.4 -10.8,3.9 -0.5,-1.7 -3.1,-1 -2.6,0.7 2.5,8.9 20.4,0.6 15.4,-9.6 -3.7,-7.6 -12.3,-7.6 -19.4,-4.5 1.2,-2.3 1.9,-4.7 1.9,-7.3 -0.1,-4.6 -2.6,-9.5 -7.2,-10.9 -10.8,-3.2 -16,12.1 -6.2,17.1 1.6,0.8 2.9,-1.6 1.4,-2.3 -4,-2 -5.5,-6.8 -2.3,-10.2 3.8,-3.9 9.3,-1.6 11,3.1 1.9,5.4 -1.1,10.4 -4.6,14.5 -0.3,0.2 -0.5,0.5 -0.8,0.8 l -548.4,0 c -0.2,-0.3 -0.5,-0.5 -0.8,-0.8 -3.5,-4.1 -6.4,-9 -4.6,-14.5 1.4,-4.1 5.9,-6.7 9.9,-4.2 4.7,2.9 3.3,9.1 -1.1,11.3 -1.6,0.8 -0.2,3.1 1.4,2.3 9.7,-4.9 4.6,-20.3 -6.2,-17.1 -4.6,1.4 -7.2,6.4 -7.2,10.9 0,2.6 0.7,5.1 1.9,7.3 -7,-3.2 -15.7,-3.1 -19.4,4.5 -4.9,10.2 13,18.4 15.4,9.6 0.5,-1.7 -2.1,-2.4 -2.6,-0.7 -0.6,2 -4.5,1.5 -5.8,1.1 -2.1,-0.7 -3.6,-1.8 -4.6,-3.8 -2.4,-5.2 2.9,-8.7 7.2,-9.5 4.8,-0.9 9.5,0.7 13.1,3.8 0.6,0.7 1.3,1.4 1.9,2.1 l 0,547.7 c -0.6,0.7 -1.3,1.4 -1.9,2.1 -3.5,3.1 -8.3,4.8 -13.1,3.8 -4.2,-0.8 -8.2,-3.4 -7.6,-8.3 0.4,-3.6 9.6,-8.4 10.8,-3.9 0.5,1.7 3.1,1 2.6,-0.7 -2.5,-8.9 -20.4,-0.6 -15.4,9.6 3.7,7.6 12.3,7.6 19.4,4.5 -1.2,2.3 -1.9,4.7 -1.9,7.3 0.1,4.6 2.6,9.5 7.2,10.9 10.8,3.2 16,-12.1 6.2,-17.1 -1.6,-0.8 -2.9,1.6 -1.4,2.3 4,2 5.5,6.8 2.3,10.2 -3.8,3.9 -9.3,1.6 -11,-3.1 -1.9,-5.4 1.1,-10.4 4.6,-14.5 0.6,-0.6 1.2,-1.2 1.7,-1.9 l 546.6,0 c 0.5,0.6 1.1,1.3 1.7,1.9 3.5,4.1 6.4,9 4.6,14.5 -1.4,4.1 -5.9,6.7 -9.9,4.2 -4.7,-2.9 -3.3,-9.1 1.1,-11.3 1.6,-0.8 0.2,-3.1 -1.4,-2.3 -9.7,4.9 -4.6,20.3 6.2,17.1 4.6,-1.4 7.2,-6.4 7.2,-10.9 0,-2.6 -0.7,-5.1 -1.9,-7.3 7,3.2 15.7,3.1 19.4,-4.5 4.9,-10.1 -12.9,-18.4 -15.4,-9.5 z M 812.4,232.5 c -0.2,0.4 -0.5,0.7 -0.8,1.1 l 0,538.8 c 0,0 -0.1,0 -0.1,0.1 l -545.5,0 c -0.1,-0.1 -0.2,-0.2 -0.3,-0.2 l 0,-541 c -0.4,-0.7 -0.9,-1.5 -1.3,-2.2 l 0,-4 0.1,0 0.8,1.4 c 0.2,0.4 0.4,0.8 0.7,1.2 0.4,-0.3 0.7,-0.7 0.7,-1.2 l 140.4,0 0,-1.4 1.9,0 0,1.4 84.6,0 c 0,-0.3 -0.1,-0.7 -0.1,-1 0,0 0,0 0,0 0,-0.1 0.1,0 0.3,0 0.8,0.2 1.8,0.5 2.6,1 l 20.3,0 c 0.3,-0.5 0.6,-0.9 0.8,-1.4 l 2.2,0 -0.2,0.4 c -0.2,0.3 -0.4,0.7 -0.6,1 l 34.5,0 -0.3,-1.4 2,0 0.3,1.4 99,0 c 0.1,-0.5 0.1,-0.9 0.2,-1.4 l 2,0 c -0.1,0.5 -0.1,0.9 -0.2,1.4 l 154.6,0 c 0,0.5 0.2,0.9 0.6,1.2 l 0,2.4 c 0.3,-0.4 0.5,-0.8 0.8,-1.2 l 0,3.6 z"
           id="path87"
           inkscape:connector-curvature="0" /><path
           d="m 797.1,780.1 c -52.8,0 -105.5,0 -158.3,0 -0.9,0 -1.4,0.8 -1.3,1.6 -0.3,4.8 -0.5,12.5 3.6,15.9 3.4,2.8 10,2.6 13,-0.7 2.9,-3.1 2,-8.2 -1.6,-10.2 -3.1,-1.7 -8.9,0.1 -7.4,4.5 0.2,0.6 0.8,1.2 1.5,1 1,-0.2 1,-1.6 1.6,-2.5 0.8,-1.2 2.8,-1.1 3.9,-0.1 1.8,1.9 1.2,5 -1,6.3 -1.9,1.1 -5.1,1.2 -7.1,0.3 -4.2,-2 -4.2,-8.9 -3.9,-13.3 52.3,0 104.6,0 156.9,0 1.9,-0.1 1.9,-2.8 0.1,-2.8 z"
           id="path89"
           inkscape:connector-curvature="0" /><path
           d="m 623.1,779.9 c -4.7,0 -9.4,0 -14.1,0 -9.4,0 -18.8,0 -28.1,0 -0.1,-0.1 -0.3,-0.1 -0.5,-0.1 -19.1,-0.4 -34.8,10.9 -33.6,31.4 1.1,17 16,30.9 33.2,23.2 11.9,-5.3 20,-24.4 4.2,-30.8 -6.5,-2.6 -15.5,0 -18.2,6.9 -2.1,5.4 1.2,10.7 7,10.9 1.7,0.1 1.7,-2.7 0,-2.7 -5.5,-5 -5.6,-9 -0.2,-11.9 1.1,-0.4 2.3,-0.8 3.4,-1.3 4,-0.8 8.4,0.5 11.1,3.5 5.1,5.7 3,13.6 -2,18.5 -8.5,8.3 -22.6,8.2 -30.3,-1 -7,-8.3 -7.4,-22.6 -2.1,-31.8 5.2,-9.1 14.9,-12.1 24.7,-12.3 0.1,0.1 0.3,0.1 0.5,0.1 17,0 34,0 51.1,0 0.2,3.7 0.8,7.9 -0.5,11.3 -0.9,2.5 -3.4,4.3 -6.1,3.5 -2,-0.6 -3.4,-3 -2.3,-5 0.6,-1 1.8,-1.6 2.9,-1.5 0.5,0.1 0.9,0.2 1.4,0.1 0.5,-0.1 1,-0.6 1,-1.1 0.5,-4 -7,-0.5 -7.9,1.8 -1.3,3.3 0.3,7.1 3.7,8.3 3.3,1.2 7,-0.5 8.8,-3.3 3,-4.7 0.5,-9.8 1.9,-14.6 1.2,-3.6 -6.8,-2.1 -9,-2.1 z"
           id="path91"
           inkscape:connector-curvature="0" /><path
           d="m 438.7,780.1 c -52.8,0 -105.5,0 -158.3,0 -1.7,0 -1.8,2.7 0,2.7 52.3,0 104.6,0 156.9,0 0.3,4.4 0.3,11.3 -3.9,13.3 -2.3,1.1 -6.7,0.5 -8.4,-1.5 -2.7,-3 2,-8.6 4.7,-4.3 -0.3,1.7 2.3,2.4 2.6,0.7 0.8,-4.2 -3.5,-6.4 -7,-4.7 -3.9,1.9 -5,7.2 -2,10.4 2.9,3.2 9.2,3.5 12.6,1 2.8,-2 3.8,-5.5 4.2,-8.8 0.2,-1.3 0.9,-8.8 -1.4,-8.8 z"
           id="path93"
           inkscape:connector-curvature="0" /><path
           d="m 497.1,779.8 c -0.2,0 -0.4,0.1 -0.5,0.1 -9.2,0 -18.4,0 -27.6,0 -4.5,0 -9,0 -13.5,0 -2.5,0 -11.2,-1.7 -10.1,2.4 0,0 0,0.1 0,0.1 1.3,4.8 -1.2,9.7 1.8,14.3 1.8,2.8 5.6,4.5 8.8,3.3 7.2,-2.6 4.4,-13.8 -3.2,-11.5 -1.7,0.5 -1,3.1 0.7,2.6 3.9,-1.1 5.6,4.1 2.3,6 -2.8,1.7 -6,-0.6 -7,-3.3 -1.2,-3.4 -0.7,-7.6 -0.5,-11.3 17,0 34,0 51.1,0 0.2,0 0.3,0 0.5,-0.1 9.8,0.3 19.4,3.3 24.7,12.3 5.3,9.2 4.9,23.5 -2.1,31.8 -7.7,9.1 -21.9,9.3 -30.3,1 -5,-5 -7.2,-12.8 -2,-18.5 2.3,-2.6 5.2,-3.5 8.5,-3.5 2.2,-0.3 4.2,0.1 6.1,1.2 2,1.1 3.8,2.6 3.9,5.1 0.2,2.8 -2.2,5.1 -4.1,6.8 -1.7,0.1 -1.8,2.8 0,2.7 5.8,-0.2 9.1,-5.5 7,-10.9 -2.7,-6.9 -11.6,-9.5 -18.2,-6.9 -15.9,6.4 -7.7,25.5 4.2,30.8 17.2,7.7 32.1,-6.3 33.2,-23.2 1.2,-20.5 -14.6,-31.8 -33.7,-31.3 z"
           id="path95"
           inkscape:connector-curvature="0" /><path
           d="m 540.6,847.7 c 1,-1.3 2.1,-2.5 3.1,-3.7 0,0 0,-0.1 0.1,-0.1 0.4,-0.4 0.5,-0.9 0.1,-1.5 -1.2,-1.8 -2.4,-3.8 -3.6,-5.7 2.1,-3.8 3.9,-7.8 4.2,-11.9 0.3,-3.5 -1,-6.8 -1.7,-10.1 -0.8,-3.8 -1.3,-7.6 -2.6,-11.2 3,-7.4 7.9,-12.8 14.8,-16.9 1.1,-0.7 0.7,-2.6 -0.7,-2.5 -5.2,0.1 -10.4,0.3 -15.7,0.4 -5.2,-0.2 -10.4,-0.4 -15.7,-0.4 -1.4,0 -1.8,1.8 -0.7,2.5 7,4.2 11.5,10.1 14.5,17.6 0,0.1 0.1,0.2 0.2,0.3 -2.2,6 -4.6,14.3 -4.1,20.3 0.3,4.1 2.1,8.1 4.2,11.9 -1.2,2 -2.4,3.9 -3.5,5.8 -0.4,0.6 -0.2,1.1 0.1,1.5 0,0 0,0.1 0.1,0.1 0.9,1 2,2.3 3.1,3.7 -2.5,3.2 -4.7,6.8 -4.7,10.1 -0.1,5.7 3.1,13.7 5.6,18.8 0.8,1.5 3.1,0.2 2.4,-1.3 2.2,-4.9 5,-12.2 5,-17.6 0.1,-3.3 -2.1,-6.9 -4.5,-10.1 z m -13,-60.9 c 1.6,1.3 5.3,0.5 7.2,0.5 3.2,0 6.3,-0.1 9.5,-0.1 1.4,0 4.4,0.5 5.5,-0.4 -5,3.7 -8.7,8.4 -11.4,14.2 -2.5,-5.7 -6,-10.4 -10.8,-14.2 z m 8.4,34.6 c 0.6,-4.5 1.5,-9.3 2.9,-13.8 1.3,4.5 2.2,9.4 2.7,13.8 0.5,4.3 -0.8,8.4 -2.8,12.3 -2,-3.9 -3.4,-8 -2.8,-12.3 z m 0.5,21.5 c 0.7,-1.2 1.5,-2.4 2.3,-3.6 0.8,1.2 1.5,2.4 2.3,3.6 -0.7,0.8 -1.5,1.6 -2.3,2.6 -0.8,-1 -1.6,-1.8 -2.3,-2.6 z m 2.3,29 c -1.6,-3.8 -2.8,-8.1 -3.1,-11.9 -0.3,-3.5 1.1,-6.9 3.2,-9.9 1.9,2.8 3.5,5.9 3.3,8.7 -0.3,3.9 -1.8,9 -3.4,13.1 z"
           id="path97"
           inkscape:connector-curvature="0" /><path
           d="m 328.5,279.3 c 0.9,1 1.5,2.1 2.2,3.2 0.4,0.6 0.7,1.3 1,2 0.1,0.8 0.1,1.6 0.1,2.4 0,1 -0.3,2 -0.7,3 -0.2,0.5 -0.4,1 -0.6,1.5 -0.3,0.5 -0.5,0.9 -0.8,1.4 0,0.1 -0.1,0.1 -0.1,0.2 0.3,-0.8 0.5,-1.7 0.6,-2.5 0.1,-1 0.4,-1.9 0.4,-2.9 0.1,-1 0.2,-1.9 0,-2.9 -0.2,-0.9 -0.5,-1.8 -1,-2.5 -0.3,-0.4 -0.5,-0.8 -0.8,-1.2 -0.2,-0.2 -0.3,-0.3 -0.5,-0.5 -0.2,-0.1 -0.3,-0.4 -0.5,-0.4 -0.2,0.4 -0.5,0.9 -0.5,1.4 0,0.2 -0.2,0.4 -0.2,0.7 l -0.2,0.7 c -0.2,1 -0.4,1.9 -0.5,3 -0.2,2 -0.1,4 0.3,5.9 0.2,0.8 0.3,1.5 0.6,2.3 0.3,0.7 0.5,1.5 0.8,2.3 3.7,-1.8 5.9,-5.9 5.6,-9.9 0,-0.2 -0.1,-0.4 -0.1,-0.6 0.1,-0.1 0.1,-0.3 0.1,-0.5 -0.1,-0.7 -0.5,-1.5 -0.8,-2.2 -0.7,-1.5 -1.6,-3.1 -2.6,-4.4 -0.5,-0.7 -1.1,-1.4 -1.8,-2 -1.4,-0.4 -2.7,-0.8 -4,-1.3 1.4,1 2.7,2.3 4,3.8 z"
           id="path99"
           inkscape:connector-curvature="0" /><path
           d="m 302,261.3 c 1.4,-0.2 2.8,-0.5 4.1,-1.1 0.4,0 0.7,0 1.1,-0.2 0.9,-0.3 1.8,-0.8 2.5,-1.5 0.3,-0.4 0.7,-0.7 1.1,-1 0.4,-0.4 0.6,-0.8 0.9,-1.2 0.6,-0.8 1,-1.7 1.4,-2.7 0.2,-0.4 0.3,-0.9 0.5,-1.4 0.1,-0.4 0.2,-0.9 0.3,-1.3 0.3,-0.9 0.4,-1.9 0.4,-2.8 0,-0.2 0,-0.3 0,-0.3 0,0 0,0 0,0 -1.4,0.3 -2.8,0.8 -4.2,1.5 -1.7,0.8 -3.5,2 -5,3.3 -0.4,0.3 -0.7,0.6 -1.1,0.9 -0.4,0.4 -0.8,0.7 -1.2,1.1 -0.3,0.3 -0.8,0.7 -1,1.1 -0.3,0.4 -0.6,0.8 -0.9,1.2 0.9,0.3 1.7,0.8 2.7,0.7 0.5,0 0.9,0 1.4,-0.1 0.5,-0.1 1,-0.3 1.5,-0.6 1.7,-0.9 3,-2.6 4.4,-4 0.5,-0.5 1,-1.1 1.4,-1.8 -0.2,0.5 -0.4,0.9 -0.7,1.4 -1,1.7 -2,3.5 -3.5,4.8 -0.4,0.3 -0.7,0.5 -1.1,0.8 0,0 -0.1,0 -0.1,0.1 -0.6,0.3 -1.3,0.6 -2,0.8 -0.4,0.1 -0.8,0.2 -1.2,0.3 -0.1,0 -0.1,0 -0.2,0 -0.2,0 -0.5,-0.1 -0.6,0 0.1,0 0.2,0.1 0.3,0.1 -0.6,0.1 -1.3,0.3 -1.9,0.3 -2.6,0.1 -5.3,-0.1 -7.6,-1.5 l 0,0 0.5,1.2 c 0.1,0.4 0.3,1 0.5,1.3 0.2,0.2 0.6,0.2 0.9,0.3 0.5,0.1 0.9,0.1 1.4,0.2 0.5,0.1 1,0.1 1.4,0.1 1.2,0.1 2.4,0.2 3.6,0 z"
           id="path101"
           inkscape:connector-curvature="0" /><path
           d="m 405.2,288.4 c 0.5,0.5 1.1,1 1.5,1.5 0.4,0.7 0.6,1.5 0.8,2.3 0.3,1 0.3,2 0.2,3 0,0.5 0,1.1 -0.1,1.6 -0.1,0.5 -0.2,1.1 -0.3,1.6 0,0.1 0,0.2 -0.1,0.2 0,-0.9 0,-1.8 -0.2,-2.6 -0.2,-1 -0.2,-1.9 -0.5,-2.9 -0.2,-0.9 -0.4,-1.9 -0.9,-2.7 -0.5,-0.8 -1,-1.5 -1.7,-2.1 -0.4,-0.3 -0.7,-0.6 -1.1,-0.9 -0.2,-0.2 -0.4,-0.2 -0.6,-0.3 -0.2,-0.1 -0.4,-0.2 -0.6,-0.2 -0.1,0.5 -0.1,1 0,1.5 0.1,0.2 0,0.5 0,0.7 l 0,0.7 c 0.1,1 0.2,2 0.5,3 0.5,1.9 1.2,3.8 2.1,5.5 0.4,0.7 0.7,1.4 1.2,2 0.5,0.6 0.9,1.3 1.4,1.9 2.8,-2.8 3.7,-7.4 2.1,-11.2 -0.1,-0.2 -0.2,-0.4 -0.3,-0.6 0,-0.1 0,-0.3 -0.1,-0.5 -0.3,-0.7 -0.9,-1.3 -1.4,-1.8 -1.1,-1.3 -2.5,-2.4 -3.8,-3.3 -0.7,-0.5 -1.5,-0.9 -2.3,-1.3 -1.4,0.1 -2.8,0.1 -4.2,0.2 1.8,0.4 3.5,1.3 5.1,2.3 1.3,0.7 2.3,1.5 3.3,2.4 z"
           id="path103"
           inkscape:connector-curvature="0" /><path
           d="m 373.8,276.9 c 0.3,-0.2 0.7,-0.4 1,-0.6 0.7,-0.6 1.3,-1.5 1.7,-2.5 0.2,-0.5 0.4,-0.9 0.5,-1.4 0.2,-0.5 0.2,-1 0.3,-1.5 0.2,-1 0.1,-2 0.1,-3 0,-0.5 -0.1,-1 -0.2,-1.4 -0.1,-0.5 -0.2,-0.9 -0.3,-1.4 -0.1,-0.9 -0.5,-1.9 -1,-2.7 -0.1,-0.1 -0.1,-0.3 -0.2,-0.2 0,0 0,0 0,0 -1.2,0.9 -2.3,2 -3.3,3.2 -1.3,1.5 -2.3,3.3 -3.1,5.2 -0.2,0.4 -0.4,0.9 -0.5,1.3 -0.2,0.5 -0.3,1 -0.5,1.5 -0.1,0.4 -0.4,1 -0.4,1.5 0,0.5 -0.1,1 -0.2,1.5 0.9,-0.2 1.9,-0.1 2.8,-0.6 0.4,-0.2 0.8,-0.5 1.2,-0.8 0.4,-0.3 0.8,-0.7 1.1,-1.2 1.2,-1.6 1.6,-3.7 2.2,-5.6 0.2,-0.7 0.4,-1.4 0.5,-2.2 0,0.5 0,1 0,1.5 -0.1,2 -0.2,4 -1,5.8 -0.2,0.4 -0.4,0.8 -0.6,1.2 0,0 0,0.1 -0.1,0.1 -0.4,0.6 -0.9,1.1 -1.5,1.6 -0.3,0.3 -0.6,0.6 -0.9,0.8 -0.1,0 -0.1,0.1 -0.2,0.1 -0.2,0.1 -0.5,0.2 -0.6,0.3 0.1,0 0.2,0 0.3,0 -0.5,0.4 -1,0.8 -1.6,1.1 -2.3,1.4 -4.8,2.4 -7.4,2.3 l 0,0 1,0.8 c 0.3,0.3 0.7,0.7 1.1,0.9 0.3,0.1 0.6,-0.1 0.9,-0.2 0.4,-0.1 0.9,-0.3 1.3,-0.5 0.4,-0.2 0.9,-0.4 1.3,-0.6 1.1,-0.5 2.1,-1 3.1,-1.7 1.2,-0.6 2.3,-1.5 3.2,-2.6 z"
           id="path105"
           inkscape:connector-curvature="0" /><path
           d="m 474.3,269.7 c 1.3,0.2 2.6,0.5 3.8,0.9 0.7,0.2 1.4,0.5 2.1,0.8 0.6,0.5 1.2,1.1 1.7,1.7 0.6,0.8 1.1,1.7 1.5,2.7 0.2,0.5 0.4,1 0.5,1.6 0.1,0.5 0.2,1.1 0.4,1.6 0,0.1 0,0.2 0,0.3 -0.3,-0.8 -0.8,-1.6 -1.2,-2.3 -0.6,-0.8 -1,-1.6 -1.6,-2.4 -0.6,-0.7 -1.1,-1.6 -1.9,-2.1 -0.8,-0.5 -1.6,-0.9 -2.5,-1.2 -0.5,-0.1 -0.9,-0.3 -1.4,-0.4 -0.3,-0.1 -0.4,0 -0.7,0 -0.2,0 -0.5,-0.1 -0.7,0 0.1,0.4 0.3,1 0.6,1.4 0.1,0.2 0.2,0.4 0.3,0.6 l 0.3,0.7 c 0.5,0.9 1,1.7 1.6,2.5 1.2,1.6 2.6,3 4.2,4.1 0.7,0.5 1.3,0.9 2,1.3 0.7,0.4 1.4,0.8 2.1,1.2 1.6,-3.9 0.5,-8.4 -2.5,-11.1 -0.2,-0.2 -0.4,-0.3 -0.5,-0.4 0,-0.1 -0.1,-0.3 -0.3,-0.4 -0.6,-0.5 -1.4,-0.8 -2.1,-1.1 -1.6,-0.6 -3.3,-1.1 -4.9,-1.4 -0.9,-0.2 -1.7,-0.2 -2.6,-0.3 -1.3,0.6 -2.5,1.2 -3.8,1.8 1.8,-0.4 3.7,-0.4 5.6,-0.1 z"
           id="path107"
           inkscape:connector-curvature="0" /><path
           d="m 496.4,235.3 c 0.2,0.4 0.5,0.8 0.7,1.3 0.3,0.5 0.6,0.9 0.9,1.4 0.2,0.4 0.5,0.9 0.9,1.2 0.4,0.4 0.7,0.7 1,1.2 0.5,-0.8 1.1,-1.5 1.2,-2.5 0.1,-0.5 0.2,-0.9 0.2,-1.4 0,-0.5 -0.1,-1 -0.3,-1.5 -0.6,-1.9 -2,-3.5 -3.1,-5.1 -0.4,-0.6 -0.9,-1.2 -1.5,-1.7 0.4,0.3 0.8,0.6 1.2,0.9 1.5,1.3 3,2.6 4,4.3 0.2,0.4 0.4,0.8 0.6,1.2 0,0 0,0.1 0,0.1 0.2,0.7 0.3,1.4 0.4,2.1 0,0.4 0.1,0.8 0.1,1.2 0,0.1 0,0.1 0,0.2 0,0.2 -0.2,0.4 -0.1,0.6 0,-0.1 0.1,-0.1 0.2,-0.2 0,0.6 0,1.3 -0.1,1.9 -0.4,2.6 -1.2,5.2 -3.1,7.1 l 0,0 1.3,-0.2 c 0.4,-0.1 1.1,0 1.4,-0.2 0.3,-0.2 0.3,-0.5 0.4,-0.8 0.2,-0.4 0.3,-0.8 0.5,-1.3 0.2,-0.5 0.3,-0.9 0.4,-1.4 0.3,-1.1 0.6,-2.2 0.7,-3.4 0.1,-1.4 0,-2.8 -0.3,-4.2 0.1,-0.4 0.1,-0.7 0,-1.1 -0.1,-0.9 -0.4,-1.9 -1,-2.8 -0.3,-0.4 -0.5,-0.8 -0.8,-1.3 -0.3,-0.4 -0.7,-0.8 -1,-1.1 -0.7,-0.7 -1.5,-1.3 -2.3,-1.9 -0.4,-0.3 -0.8,-0.5 -1.3,-0.7 -0.4,-0.2 -0.8,-0.4 -1.2,-0.6 0,0 0,0 0,0 -0.8,-0.5 -1.8,-0.8 -2.6,-1 -0.1,0 -0.3,-0.1 -0.3,0 0,0 0,0 0,0 0,0.3 0.1,0.7 0.1,1 0.1,1.1 0.3,2.1 0.6,3.3 0.4,1.7 1.2,3.6 2.2,5.4 z"
           id="path109"
           inkscape:connector-curvature="0" /><path
           d="m 409.3,232.6 c 0,0 0,0 0,0 0,0 0,0 0,0 0,0 0,0 0,0 z"
           id="path111"
           inkscape:connector-curvature="0" /><path
           d="m 403.4,241.7 c -0.4,0.6 -0.9,1.2 -1.4,1.8 -0.7,0.5 -1.4,0.8 -2.2,1.1 -0.9,0.4 -2,0.5 -3,0.6 -0.6,0 -1.1,0.1 -1.7,0 -0.5,0 -1.1,-0.1 -1.6,-0.2 -0.1,0 -0.2,0 -0.2,-0.1 0.9,-0.1 1.7,-0.2 2.6,-0.5 0.9,-0.3 1.9,-0.5 2.8,-0.8 0.9,-0.4 1.9,-0.6 2.6,-1.2 0.7,-0.6 1.4,-1.2 1.9,-2 0.3,-0.4 0.5,-0.8 0.8,-1.2 0.1,-0.3 0.2,-0.4 0.2,-0.7 0.1,-0.2 0.2,-0.4 0.2,-0.7 -0.5,0 -1.1,-0.1 -1.5,0.1 -0.2,0.1 -0.5,0 -0.7,0.1 l -0.7,0.1 c -1,0.2 -2,0.4 -2.9,0.7 -1.9,0.7 -3.7,1.5 -5.3,2.8 -0.6,0.5 -1.3,0.9 -1.9,1.5 -0.6,0.6 -1.2,1.1 -1.8,1.7 3.2,2.8 7.9,3.1 11.4,1.1 0.2,-0.1 0.4,-0.3 0.5,-0.4 0.1,0 0.3,0 0.5,-0.1 0.6,-0.4 1.2,-1.1 1.6,-1.7 1.1,-1.3 2.1,-2.8 2.9,-4.3 0.4,-0.8 0.8,-1.6 1.1,-2.4 -0.2,-1.4 -0.3,-2.8 -0.5,-4.2 -0.4,1.8 -1.1,3.6 -1.9,5.4 -0.3,1.3 -1,2.4 -1.8,3.5 z"
           id="path113"
           inkscape:connector-curvature="0" /><path
           d="m 438.5,310.1 c 0,0.7 0,1.5 -0.1,2.2 -0.3,0.8 -0.7,1.5 -1.1,2.2 -0.5,0.9 -1.3,1.6 -2.1,2.2 -0.4,0.3 -0.9,0.7 -1.3,1 -0.5,0.3 -0.9,0.5 -1.4,0.8 -0.1,0 -0.2,0.1 -0.2,0.1 0.7,-0.6 1.3,-1.2 1.8,-1.9 0.6,-0.8 1.3,-1.5 1.8,-2.3 0.5,-0.8 1.2,-1.6 1.5,-2.5 0.3,-0.9 0.4,-1.8 0.4,-2.7 0,-0.5 0,-0.9 -0.1,-1.4 0,-0.3 -0.1,-0.4 -0.2,-0.7 -0.1,-0.2 -0.1,-0.5 -0.2,-0.7 -0.4,0.2 -0.9,0.6 -1.2,0.9 -0.1,0.2 -0.4,0.3 -0.5,0.5 l -0.5,0.5 c -0.7,0.7 -1.4,1.4 -2,2.3 -1.2,1.6 -2.1,3.4 -2.7,5.3 -0.2,0.8 -0.5,1.5 -0.6,2.3 -0.1,0.8 -0.3,1.6 -0.4,2.4 4.2,0.4 8.2,-2 9.9,-5.7 0.1,-0.2 0.1,-0.4 0.2,-0.6 0.1,-0.1 0.2,-0.2 0.3,-0.4 0.3,-0.7 0.3,-1.6 0.4,-2.3 0.2,-1.7 0.1,-3.5 -0.2,-5.1 -0.1,-0.9 -0.3,-1.8 -0.5,-2.7 -0.9,-1 -1.9,-2.1 -2.8,-3.1 0.8,1.7 1.3,3.5 1.6,5.5 0.1,1.2 0.1,2.5 0.2,3.9 z"
           id="path115"
           inkscape:connector-curvature="0" /><path
           d="m 437.9,299.3 c 0,0 0,0 0,0 0,0 0,0 0,0 0,0 0,0 0,0 z"
           id="path117"
           inkscape:connector-curvature="0" /><path
           d="m 428.5,277.7 c 0.4,0.2 0.7,0.4 1.1,0.5 0.9,0.2 2,0.3 3,0.1 0.5,-0.1 1,-0.2 1.5,-0.3 0.5,-0.1 1,-0.4 1.4,-0.6 0.9,-0.4 1.7,-1 2.6,-1.5 0.4,-0.3 0.7,-0.6 1.1,-0.9 0.4,-0.3 0.6,-0.7 1,-1 0.7,-0.6 1.4,-1.5 1.8,-2.2 0.1,-0.1 0.2,-0.2 0.1,-0.2 0,0 0,0 0,0 -1.3,-0.5 -2.9,-0.7 -4.4,-0.9 -1.9,-0.2 -3.9,-0.2 -6,0.2 -0.5,0.1 -0.9,0.2 -1.4,0.2 -0.5,0.1 -1.1,0.2 -1.6,0.4 -0.4,0.1 -1,0.2 -1.5,0.4 -0.5,0.2 -0.9,0.4 -1.4,0.6 0.6,0.7 1.1,1.5 1.9,2 0.4,0.3 0.8,0.5 1.3,0.7 0.5,0.2 1,0.3 1.6,0.3 2,0.1 4,-0.7 5.9,-1.2 0.7,-0.2 1.4,-0.5 2.1,-0.8 -0.4,0.3 -0.8,0.6 -1.3,0.8 -1.7,1 -3.5,2 -5.4,2.3 -0.5,0.1 -0.9,0.1 -1.3,0.1 0,0 -0.1,0 -0.1,0 -0.7,-0.1 -1.4,-0.2 -2.1,-0.4 -0.4,-0.1 -0.8,-0.2 -1.2,-0.4 -0.1,0 -0.1,-0.1 -0.2,-0.1 -0.2,-0.1 -0.4,-0.3 -0.5,-0.3 0.1,0.1 0.1,0.2 0.1,0.3 -0.6,-0.2 -1.2,-0.5 -1.8,-0.8 -2.3,-1.3 -4.6,-2.8 -5.8,-5.3 l 0,0.1 -0.2,1.2 c -0.1,0.4 -0.3,1 -0.2,1.4 0.1,0.3 0.4,0.5 0.6,0.7 0.4,0.3 0.7,0.6 1.1,0.9 0.4,0.3 0.7,0.6 1.1,0.8 1,0.7 2,1.4 3.1,1.9 1.2,0.4 2.6,0.8 4,1 z"
           id="path119"
           inkscape:connector-curvature="0" /><path
           d="m 506.7,345.4 c 0.4,0.6 0.9,1.2 1.2,1.8 0.2,0.8 0.3,1.6 0.4,2.4 0.1,1 -0.1,2 -0.4,3 -0.2,0.5 -0.3,1.1 -0.5,1.6 -0.2,0.5 -0.5,1 -0.7,1.5 0,0.1 -0.1,0.1 -0.1,0.2 0.2,-0.9 0.3,-1.7 0.4,-2.6 0,-1 0.2,-1.9 0.1,-2.9 0,-1 0,-1.9 -0.3,-2.8 -0.3,-0.9 -0.7,-1.7 -1.3,-2.4 -0.3,-0.4 -0.6,-0.8 -0.9,-1.1 -0.2,-0.2 -0.3,-0.3 -0.6,-0.5 -0.2,-0.1 -0.3,-0.3 -0.6,-0.4 -0.2,0.4 -0.4,1 -0.4,1.4 0,0.2 -0.1,0.4 -0.1,0.7 l -0.1,0.7 c -0.1,1 -0.3,2 -0.2,3 0,2 0.3,4 1,5.9 0.3,0.8 0.5,1.5 0.8,2.2 0.3,0.7 0.7,1.5 1,2.2 3.7,-2.2 5.5,-6.5 4.7,-10.5 0,-0.2 -0.1,-0.4 -0.2,-0.6 0.1,-0.1 0.1,-0.3 0,-0.5 -0.2,-0.7 -0.7,-1.5 -1,-2.1 -0.9,-1.4 -2,-2.8 -3.1,-4.1 -0.6,-0.7 -1.3,-1.3 -2,-1.8 -1.4,-0.3 -2.9,-0.6 -4.3,-0.9 1.7,0.9 3.2,2.1 4.6,3.5 1,0.9 1.8,2 2.6,3.1 z"
           id="path121"
           inkscape:connector-curvature="0" /><path
           d="m 479.7,325 c 0.4,0 0.8,-0.1 1.2,-0.2 0.9,-0.3 1.8,-0.9 2.4,-1.7 0.3,-0.4 0.7,-0.8 1,-1.1 0.3,-0.4 0.6,-0.9 0.8,-1.3 0.5,-0.9 0.8,-1.8 1.2,-2.8 0.2,-0.5 0.2,-0.9 0.4,-1.4 0.1,-0.5 0.1,-0.9 0.2,-1.4 0.2,-0.9 0.3,-2 0.2,-2.8 0,-0.2 0,-0.3 -0.1,-0.3 0,0 0,0 0,0 -1.4,0.4 -2.7,1 -4,1.8 -1.7,1 -3.3,2.2 -4.8,3.7 -0.3,0.3 -0.7,0.7 -1,1 -0.4,0.4 -0.7,0.8 -1.1,1.2 -0.3,0.3 -0.7,0.8 -0.9,1.2 -0.2,0.4 -0.5,0.9 -0.8,1.3 0.9,0.2 1.8,0.6 2.8,0.5 0.5,-0.1 0.9,-0.1 1.4,-0.2 0.5,-0.1 1,-0.4 1.4,-0.7 1.7,-1 2.8,-2.8 4.1,-4.3 0.5,-0.6 0.9,-1.2 1.3,-1.9 -0.2,0.5 -0.3,1 -0.6,1.4 -0.8,1.8 -1.7,3.7 -3.1,5 -0.3,0.3 -0.7,0.6 -1,0.8 0,0 -0.1,0 -0.1,0.1 -0.6,0.4 -1.3,0.6 -1.9,0.9 -0.4,0.1 -0.8,0.3 -1.2,0.4 -0.1,0 -0.1,0 -0.2,0 -0.2,0 -0.5,0 -0.6,0 0.1,0 0.2,0.1 0.3,0.1 -0.6,0.2 -1.3,0.3 -1.9,0.4 -2.7,0.5 -5.2,0.2 -7.7,-0.9 0,0 -0.1,0 -0.1,0 l 0.6,1.2 c 0.2,0.4 0.4,1 0.7,1.3 0.2,0.2 0.6,0.2 0.9,0.2 0.5,0 0.9,0.1 1.4,0.1 0.5,0 1,0 1.5,0 1.2,0 2.4,-0.1 3.5,-0.3 1.2,-0.2 2.5,-0.7 3.8,-1.3 z"
           id="path123"
           inkscape:connector-curvature="0" /><path
           d="m 572.6,332.3 c 0.1,0 0.2,-0.1 0.3,-0.1 -0.2,0 -0.2,0 -0.3,0.1 0,0 0,0 0,0 z"
           id="path125"
           inkscape:connector-curvature="0" /><path
           d="m 579.1,334.4 c 1.3,0.2 2.6,0.6 3.8,1.1 0.7,0.2 1.4,0.5 2.1,0.9 0.6,0.5 1.1,1.2 1.6,1.8 0.6,0.8 1,1.8 1.3,2.7 0.2,0.5 0.3,1 0.4,1.6 0.1,0.5 0.2,1.1 0.3,1.6 0,0.1 0,0.2 0,0.3 -0.3,-0.8 -0.7,-1.6 -1.1,-2.3 -0.5,-0.8 -0.9,-1.7 -1.5,-2.5 -0.6,-0.8 -1.1,-1.6 -1.8,-2.2 -0.7,-0.6 -1.5,-1 -2.4,-1.3 -0.5,-0.1 -0.9,-0.3 -1.4,-0.4 -0.3,-0.1 -0.4,-0.1 -0.7,0 -0.2,0 -0.5,-0.1 -0.7,0 0.1,0.5 0.2,1 0.5,1.4 0.1,0.2 0.2,0.4 0.3,0.6 l 0.3,0.7 c 0.4,0.9 0.9,1.8 1.4,2.6 1.1,1.6 2.4,3.1 4,4.3 0.6,0.5 1.2,1 1.9,1.4 0.7,0.4 1.4,0.8 2.1,1.3 1.9,-3.7 1,-8.4 -1.8,-11.2 -0.2,-0.2 -0.3,-0.3 -0.5,-0.4 0,-0.1 -0.1,-0.3 -0.3,-0.4 -0.6,-0.5 -1.4,-0.9 -2,-1.2 -1.6,-0.8 -3.3,-1.3 -4.9,-1.7 -0.9,-0.2 -1.7,-0.3 -2.6,-0.4 -1.3,0.5 -2.5,1 -3.8,1.5 1.8,-0.3 3.6,-0.1 5.5,0.2 z"
           id="path127"
           inkscape:connector-curvature="0" /><path
           d="m 549.1,333.5 c 0.3,-0.2 0.6,-0.5 0.8,-0.8 0.5,-0.8 1,-1.7 1.1,-2.7 0,-0.5 0.1,-1 0.2,-1.5 0.1,-0.5 0,-1 0,-1.5 -0.1,-1 -0.3,-2 -0.6,-2.9 -0.1,-0.5 -0.3,-0.9 -0.5,-1.4 -0.2,-0.4 -0.4,-0.8 -0.6,-1.3 -0.3,-0.9 -0.9,-1.8 -1.4,-2.5 -0.1,-0.1 -0.2,-0.3 -0.2,-0.2 0,0 0,0 0,0 -0.9,1.1 -1.7,2.4 -2.4,3.8 -0.9,1.8 -1.5,3.7 -1.9,5.7 -0.1,0.5 -0.2,0.9 -0.3,1.4 -0.1,0.5 -0.1,1.1 -0.2,1.6 -0.1,0.5 -0.2,1 -0.1,1.5 0.1,0.5 0.1,1 0,1.5 0.9,-0.3 1.8,-0.5 2.6,-1.1 0.4,-0.3 0.7,-0.6 1.1,-1 0.4,-0.4 0.6,-0.9 0.8,-1.4 0.8,-1.8 0.8,-3.9 1,-5.9 0.1,-0.7 0.1,-1.5 0,-2.3 0.1,0.5 0.3,1 0.3,1.5 0.3,1.9 0.6,4 0.2,5.9 -0.1,0.4 -0.2,0.9 -0.4,1.3 0,0 0,0.1 0,0.1 -0.3,0.7 -0.7,1.3 -1.1,1.9 -0.2,0.3 -0.5,0.7 -0.7,1 -0.1,0 -0.1,0.1 -0.2,0.1 -0.1,0.1 -0.4,0.3 -0.5,0.4 0.1,0 0.2,0 0.3,-0.1 -0.4,0.5 -0.8,1 -1.3,1.4 -2,1.7 -4.2,3.2 -6.9,3.6 0,0 0,0 -0.1,0 0.4,0.2 0.8,0.5 1.1,0.6 0.4,0.2 0.9,0.6 1.3,0.6 0.3,0 0.6,-0.2 0.8,-0.4 0.4,-0.2 0.8,-0.5 1.2,-0.7 0.4,-0.3 0.8,-0.5 1.2,-0.8 1,-0.6 1.9,-1.3 2.8,-2.2 1,-0.7 1.9,-1.9 2.6,-3.2 z"
           id="path129"
           inkscape:connector-curvature="0" /><path
           d="m 640.6,284.8 c 0.7,-0.2 1.4,-0.3 2.2,-0.4 0.8,0.1 1.6,0.3 2.3,0.6 1,0.3 1.8,0.9 2.6,1.5 0.4,0.3 0.9,0.7 1.2,1.1 0.4,0.4 0.7,0.8 1.1,1.2 0.1,0.1 0.1,0.1 0.2,0.2 -0.7,-0.5 -1.4,-1 -2.2,-1.3 -0.9,-0.4 -1.7,-0.9 -2.6,-1.2 -0.9,-0.3 -1.8,-0.8 -2.7,-0.9 -0.9,-0.1 -1.8,0 -2.7,0.3 -0.5,0.1 -0.9,0.2 -1.4,0.4 -0.3,0.1 -0.4,0.2 -0.6,0.3 -0.2,0.1 -0.4,0.2 -0.6,0.4 0.3,0.3 0.8,0.7 1.2,0.9 0.2,0.1 0.4,0.3 0.6,0.4 l 0.6,0.4 c 0.9,0.5 1.7,1 2.7,1.4 1.9,0.8 3.8,1.3 5.8,1.4 0.8,0.1 1.6,0.2 2.4,0.1 0.8,-0.1 1.6,-0.1 2.4,-0.1 -0.6,-4.2 -3.8,-7.5 -7.8,-8.4 -0.2,0 -0.4,0 -0.7,-0.1 -0.1,-0.1 -0.2,-0.2 -0.4,-0.2 -0.7,-0.1 -1.6,0 -2.3,0.1 -1.7,0.2 -3.4,0.7 -4.9,1.3 -0.9,0.3 -1.7,0.7 -2.5,1.1 -0.8,1.2 -1.7,2.4 -2.5,3.6 1.5,-1.2 3.2,-2.1 5,-2.9 1,-0.5 2.3,-0.8 3.6,-1.2 z"
           id="path131"
           inkscape:connector-curvature="0" /><path
           d="m 611.5,302.1 c 0.1,-0.4 0.2,-0.7 0.2,-1.1 0,-1 -0.2,-2 -0.7,-2.9 -0.2,-0.4 -0.4,-0.9 -0.7,-1.3 -0.2,-0.5 -0.6,-0.8 -0.9,-1.3 -0.6,-0.8 -1.4,-1.5 -2.1,-2.1 -0.4,-0.3 -0.8,-0.6 -1.2,-0.8 -0.4,-0.3 -0.8,-0.4 -1.2,-0.7 -0.8,-0.5 -1.7,-1 -2.6,-1.2 -0.1,0 -0.3,-0.1 -0.3,0 0,0 0,0 0,0 -0.1,1.5 0,3 0.2,4.5 0.3,1.9 0.8,3.9 1.6,5.8 0.2,0.4 0.4,0.9 0.6,1.3 0.2,0.5 0.5,1 0.7,1.4 0.2,0.4 0.5,1 0.8,1.3 0.3,0.4 0.6,0.8 0.9,1.2 0.5,-0.8 1.2,-1.5 1.5,-2.4 0.1,-0.5 0.3,-0.9 0.3,-1.4 0.1,-0.5 0,-1 -0.1,-1.6 -0.3,-1.9 -1.6,-3.7 -2.6,-5.5 -0.4,-0.6 -0.8,-1.3 -1.3,-1.9 0.4,0.3 0.8,0.7 1.1,1 1.4,1.4 2.8,2.9 3.5,4.7 0.2,0.4 0.3,0.8 0.4,1.3 0,0 0,0.1 0,0.1 0.1,0.7 0.1,1.4 0.1,2.1 0,0.4 0,0.8 -0.1,1.2 0,0.1 0,0.1 -0.1,0.2 0,0.2 -0.2,0.4 -0.2,0.6 0.1,-0.1 0.1,-0.1 0.2,-0.2 -0.1,0.6 -0.1,1.3 -0.3,1.9 -0.3,1.3 -0.7,2.6 -1.3,3.8 -0.6,1.1 -1.4,2.2 -2.4,3.1 l 0,0 1.3,-0.1 c 0.4,0 1.1,0 1.4,-0.2 0.3,-0.1 0.4,-0.5 0.5,-0.8 0.2,-0.4 0.4,-0.8 0.6,-1.3 0.2,-0.5 0.4,-0.9 0.6,-1.4 0.4,-1.1 0.8,-2.2 1,-3.4 0.6,-1.1 0.7,-2.5 0.6,-3.9 z"
           id="path133"
           inkscape:connector-curvature="0" /><path
           d="m 646.7,241.4 c -0.1,-0.4 -0.2,-0.8 -0.5,-1.1 -0.5,-0.8 -1.2,-1.6 -2,-2.1 -0.4,-0.3 -0.9,-0.5 -1.3,-0.8 -0.4,-0.3 -0.9,-0.4 -1.4,-0.6 -1,-0.4 -1.9,-0.5 -2.9,-0.7 -0.5,-0.1 -1,-0.1 -1.4,-0.1 -0.5,0 -0.9,0 -1.4,0 -0.9,-0.1 -2,0.1 -2.8,0.3 -0.2,0 -0.3,0 -0.2,0.1 0,0 0,0 0,0 0.6,1.3 1.5,2.5 2.5,3.7 1.3,1.5 2.8,2.9 4.5,4.1 0.4,0.3 0.8,0.5 1.2,0.8 0.4,0.3 0.9,0.6 1.4,0.8 0.4,0.2 0.9,0.6 1.3,0.7 0.5,0.2 1,0.3 1.4,0.6 0.1,-0.9 0.3,-1.9 0,-2.8 -0.1,-0.5 -0.3,-0.9 -0.5,-1.4 -0.2,-0.5 -0.6,-0.9 -0.9,-1.3 -1.3,-1.5 -3.3,-2.3 -5,-3.3 -0.6,-0.4 -1.3,-0.7 -2.1,-0.9 0.5,0.1 1,0.2 1.5,0.3 1.9,0.5 3.9,1 5.5,2.2 0.4,0.3 0.7,0.5 1,0.8 0,0 0.1,0.1 0.1,0.1 0.5,0.5 0.9,1.1 1.3,1.7 0.2,0.4 0.4,0.7 0.6,1.1 0,0.1 0,0.1 0.1,0.2 0.1,0.2 0.1,0.5 0.2,0.6 0,-0.1 0,-0.2 0.1,-0.3 0.3,0.6 0.6,1.2 0.8,1.8 0.8,2.5 1.2,5.1 0.5,7.7 0,0.1 0,0.1 0,0.2 l 1,-0.8 c 0.3,-0.2 0.9,-0.5 1.1,-0.9 0.2,-0.3 0,-0.6 0,-0.9 0,-0.5 -0.1,-0.9 -0.1,-1.4 -0.1,-0.5 -0.1,-1 -0.2,-1.5 -0.2,-1.1 -0.5,-2.3 -0.9,-3.4 -1,-1.2 -1.7,-2.4 -2.5,-3.5 z"
           id="path135"
           inkscape:connector-curvature="0" /><path
           d="m 554.4,239.7 c -0.3,1.4 -0.7,2.7 -1.2,4.1 -0.3,0.8 -0.6,1.5 -0.9,2.2 -0.5,0.6 -1.1,1.2 -1.8,1.6 -0.8,0.6 -1.8,1 -2.8,1.3 -0.5,0.1 -1.1,0.3 -1.6,0.4 -0.5,0.1 -1.1,0.1 -1.6,0.2 -0.1,0 -0.2,0 -0.3,0 0.8,-0.3 1.6,-0.6 2.4,-1 0.8,-0.5 1.7,-0.9 2.5,-1.5 0.8,-0.6 1.6,-1 2.2,-1.8 0.6,-0.8 1.1,-1.6 1.4,-2.6 0.2,-0.5 0.3,-1 0.5,-1.5 0.1,-0.3 0.1,-0.5 0.1,-0.8 0,-0.3 0.1,-0.5 0,-0.8 -0.5,0.1 -1.1,0.1 -1.4,0.4 -0.2,0.1 -0.4,0.1 -0.7,0.2 l -0.7,0.2 c -0.9,0.4 -1.8,0.8 -2.7,1.3 -1.7,1.1 -3.2,2.4 -4.5,4.1 -0.5,0.7 -1,1.3 -1.4,2.1 -0.4,0.8 -0.9,1.5 -1.3,2.3 4.1,2.5 8.7,1.8 11.6,-1.2 0.2,-0.2 0.3,-0.4 0.4,-0.5 0.1,0 0.3,-0.1 0.4,-0.3 0.5,-0.6 0.8,-1.4 1.1,-2.1 0.7,-1.6 1.3,-3.4 1.7,-5.2 0.2,-0.9 0.4,-1.9 0.5,-2.8 l -0.5,-1.3 c -0.2,-0.5 -0.4,-1.1 -0.6,-1.6 l -0.4,-1.5 c 0,0.6 0,1.2 -0.1,1.7 0.2,1.5 0,2.9 -0.3,4.4 z"
           id="path137"
           inkscape:connector-curvature="0" /><path
           d="m 590.3,273.4 c 0.4,0.1 0.8,0.1 1.2,0.1 1,-0.1 2.1,-0.4 2.9,-1 0.4,-0.3 0.9,-0.6 1.3,-0.8 0.4,-0.3 0.8,-0.7 1.1,-1.1 0.7,-0.7 1.3,-1.5 1.8,-2.4 0.3,-0.4 0.5,-0.9 0.7,-1.3 0.2,-0.4 0.3,-0.9 0.5,-1.3 0.4,-0.8 0.7,-1.9 0.8,-2.7 0,-0.2 0.1,-0.3 0,-0.3 0,0 0,0 0,0 -1.5,0 -3,0.2 -4.5,0.6 -1.9,0.5 -3.9,1.2 -5.7,2.2 -0.4,0.2 -0.8,0.5 -1.3,0.7 -0.5,0.3 -0.9,0.6 -1.4,0.9 -0.4,0.3 -0.9,0.6 -1.2,0.9 -0.3,0.4 -0.7,0.7 -1.1,1 0.9,0.5 1.7,1.1 2.8,1.3 0.5,0.1 1,0.2 1.5,0.2 0.6,0 1.1,-0.1 1.6,-0.2 1.9,-0.5 3.5,-1.9 5.2,-3.1 0.6,-0.4 1.2,-1 1.7,-1.5 -0.3,0.4 -0.6,0.9 -0.9,1.3 -1.2,1.5 -2.5,3.1 -4.3,4.1 -0.4,0.2 -0.8,0.4 -1.2,0.5 0,0 -0.1,0 -0.1,0 -0.7,0.2 -1.4,0.3 -2.2,0.3 -0.4,0 -0.9,0 -1.3,0.1 -0.1,0 -0.1,0 -0.2,0 -0.2,0 -0.5,-0.2 -0.7,-0.1 0.1,0 0.2,0.1 0.2,0.2 -0.7,0 -1.4,0 -2.1,-0.1 -2.9,-0.3 -5.4,-1.4 -7.6,-3.3 0,0 -0.1,-0.1 -0.1,-0.1 l 0.3,1.3 c 0.1,0.4 0.1,1.1 0.4,1.5 0.2,0.3 0.6,0.4 0.9,0.5 0.5,0.2 0.9,0.4 1.4,0.6 0.5,0.2 1,0.3 1.5,0.5 1.2,0.4 2.5,0.6 3.7,0.8 1.4,-0.1 2.9,-0.1 4.4,-0.3 z"
           id="path139"
           inkscape:connector-curvature="0" /><path
           d="m 696.4,310.2 c 0.6,0.4 1.3,0.8 1.8,1.3 0.5,0.7 0.8,1.4 1.1,2.2 0.4,0.9 0.5,2 0.5,3 0,0.6 0,1.1 0,1.7 -0.1,0.5 -0.2,1.1 -0.2,1.6 0,0.1 0,0.2 -0.1,0.3 -0.1,-0.9 -0.2,-1.7 -0.4,-2.6 -0.3,-0.9 -0.4,-1.9 -0.8,-2.8 -0.3,-0.9 -0.6,-1.9 -1.2,-2.6 -0.6,-0.7 -1.3,-1.4 -2.1,-1.8 -0.4,-0.2 -0.8,-0.5 -1.3,-0.8 -0.3,-0.2 -0.4,-0.2 -0.7,-0.3 -0.2,-0.1 -0.5,-0.2 -0.7,-0.2 0,0.5 -0.1,1.1 0.1,1.5 0.1,0.2 0,0.5 0.1,0.7 l 0.1,0.7 c 0.2,1 0.4,2 0.7,2.9 0.7,1.9 1.6,3.7 2.9,5.3 0.5,0.6 0.9,1.3 1.5,1.8 0.6,0.5 1.1,1.1 1.7,1.7 3,-3.2 3.5,-7.9 1.5,-11.4 -0.1,-0.2 -0.3,-0.4 -0.4,-0.5 0,-0.1 0,-0.3 -0.1,-0.5 -0.4,-0.6 -1.1,-1.2 -1.7,-1.7 -1.4,-1.1 -2.9,-2 -4.5,-2.8 -0.9,-0.5 -1.7,-0.8 -2.6,-1.2 -1.5,0.2 -3,0.4 -4.5,0.5 1.9,0.3 3.8,1 5.7,1.9 1.2,0.6 2.4,1.3 3.6,2.1 z"
           id="path141"
           inkscape:connector-curvature="0" /><path
           d="m 686.6,304.3 c 0.1,0 0.2,0 0.2,0 0,0 -0.1,0 -0.2,0 0,0 0,0 0,0 z"
           id="path143"
           inkscape:connector-curvature="0" /><path
           d="m 661.5,299.8 c 0.4,-0.2 0.8,-0.4 1.1,-0.6 0.8,-0.6 1.5,-1.5 1.8,-2.4 0.2,-0.5 0.4,-0.9 0.6,-1.4 0.2,-0.5 0.3,-1 0.4,-1.5 0.2,-1 0.2,-2 0.1,-3 0,-0.5 -0.1,-1 -0.2,-1.4 -0.1,-0.5 -0.2,-0.9 -0.3,-1.4 -0.1,-0.9 -0.5,-1.9 -0.9,-2.7 -0.1,-0.1 -0.1,-0.3 -0.2,-0.2 0,0 0,0 0,0 -1.3,0.8 -2.5,2 -3.6,3.2 -1.4,1.6 -2.5,3.3 -3.5,5.1 -0.2,0.4 -0.4,0.9 -0.6,1.3 -0.2,0.5 -0.4,1 -0.6,1.5 -0.2,0.4 -0.4,1 -0.5,1.4 -0.1,0.5 -0.2,1 -0.3,1.5 1,-0.1 2.1,0 3,-0.4 0.5,-0.2 0.9,-0.4 1.4,-0.8 0.5,-0.3 0.9,-0.7 1.2,-1.2 1.3,-1.6 1.8,-3.7 2.5,-5.6 0.3,-0.7 0.4,-1.4 0.6,-2.2 0,0.5 0,1 0,1.5 -0.1,2 -0.3,4 -1.2,5.8 -0.2,0.4 -0.5,0.8 -0.7,1.2 0,0 -0.1,0.1 -0.1,0.1 -0.5,0.6 -1.1,1.1 -1.6,1.6 -0.3,0.3 -0.6,0.5 -1,0.8 -0.1,0 -0.2,0.1 -0.3,0.1 -0.2,0.1 -0.5,0.2 -0.6,0.3 0.1,0 0.2,0 0.3,0 -0.6,0.4 -1.2,0.8 -1.8,1.1 -2.5,1.2 -5.2,2 -8.1,1.8 -0.1,0 -0.1,0 -0.2,0 l 1.1,0.9 c 0.3,0.3 0.8,0.8 1.2,0.9 0.3,0.1 0.7,-0.1 1,-0.1 0.5,-0.1 0.9,-0.2 1.4,-0.4 0.5,-0.2 1.1,-0.3 1.6,-0.5 1.2,-0.4 2.3,-0.8 3.3,-1.4 1.4,-0.9 2.6,-1.8 3.7,-2.9 z"
           id="path145"
           inkscape:connector-curvature="0" /><path
           d="m 773.1,279.4 c 0.8,0.1 1.5,0.2 2.3,0.4 0.7,0.4 1.4,0.9 2,1.5 0.8,0.7 1.4,1.5 1.8,2.4 0.3,0.5 0.5,1 0.7,1.5 0.2,0.5 0.3,1 0.5,1.5 0,0.1 0,0.2 0.1,0.3 -0.4,-0.8 -1,-1.5 -1.5,-2.1 -0.7,-0.7 -1.2,-1.5 -2,-2.1 -0.7,-0.6 -1.4,-1.4 -2.3,-1.8 -0.9,-0.4 -1.8,-0.7 -2.7,-0.8 -0.5,0 -1,-0.1 -1.5,-0.1 -0.3,0 -0.5,0 -0.8,0.1 -0.2,0.1 -0.5,0 -0.7,0.2 0.2,0.4 0.4,1 0.7,1.3 0.2,0.2 0.2,0.4 0.4,0.6 l 0.4,0.6 c 0.6,0.8 1.2,1.6 1.9,2.3 1.4,1.4 3.1,2.6 4.9,3.4 0.7,0.3 1.4,0.7 2.2,1 0.8,0.2 1.6,0.5 2.3,0.8 1.3,-4.1 -0.3,-8.5 -3.8,-10.8 -0.2,-0.1 -0.4,-0.2 -0.6,-0.3 0,-0.1 -0.1,-0.3 -0.3,-0.4 -0.7,-0.4 -1.6,-0.6 -2.3,-0.8 -1.7,-0.4 -3.6,-0.6 -5.4,-0.6 -0.9,0 -1.9,0.1 -2.8,0.2 -1.3,0.9 -2.7,1.8 -4.1,2.6 2,-0.7 4,-1 6.2,-1.1 1.6,-0.1 3,0 4.4,0.2 z"
           id="path147"
           inkscape:connector-curvature="0" /><path
           d="m 737.4,286.1 c 0.3,-0.3 0.5,-0.6 0.6,-1 0.4,-0.9 0.6,-2 0.5,-3 -0.1,-0.5 -0.1,-1 -0.1,-1.5 0,-0.5 -0.2,-1 -0.4,-1.5 -0.3,-1 -0.8,-1.8 -1.2,-2.7 -0.2,-0.4 -0.6,-0.8 -0.8,-1.2 -0.3,-0.4 -0.6,-0.7 -0.9,-1.1 -0.5,-0.8 -1.4,-1.5 -2.1,-1.9 -0.1,-0.1 -0.2,-0.2 -0.3,-0.1 0,0 0,0 0,0 -0.8,1.3 -1.4,2.8 -1.8,4.3 -0.6,1.9 -0.8,4 -0.7,6.1 0,0.5 0,1 0,1.5 0,0.5 0.1,1.1 0.2,1.6 0,0.5 0.1,1.1 0.3,1.5 0.2,0.5 0.3,1 0.4,1.5 0.9,-0.6 1.8,-1 2.5,-1.9 0.3,-0.4 0.6,-0.8 0.9,-1.3 0.3,-0.5 0.4,-1 0.6,-1.6 0.4,-2 -0.1,-4 -0.3,-6 -0.1,-0.7 -0.3,-1.5 -0.5,-2.2 0.3,0.4 0.5,0.9 0.7,1.4 0.8,1.8 1.6,3.7 1.6,5.7 0,0.5 0,0.9 -0.1,1.3 0,0 0,0.1 0,0.1 -0.2,0.7 -0.4,1.4 -0.7,2.1 -0.2,0.4 -0.4,0.8 -0.6,1.2 0,0.1 -0.1,0.1 -0.1,0.2 -0.1,0.2 -0.4,0.4 -0.4,0.5 0.1,-0.1 0.2,-0.1 0.3,-0.1 -0.3,0.6 -0.7,1.2 -1.1,1.8 -1.7,2.3 -3.6,4.6 -6.4,5.6 l 0,0 1.4,0.3 c 0.4,0.1 1.1,0.4 1.5,0.3 0.3,-0.1 0.6,-0.4 0.8,-0.6 0.4,-0.3 0.7,-0.7 1.1,-1.1 0.4,-0.4 0.7,-0.8 1.1,-1.1 0.9,-0.9 1.7,-1.9 2.4,-3 0.4,-1.3 1.1,-2.7 1.6,-4.1 z"
           id="path149"
           inkscape:connector-curvature="0" /><path
           d="m 798.3,247.5 c -0.2,0.5 -0.3,1.1 -0.5,1.6 -0.2,0.5 -0.3,0.9 -0.5,1.4 -0.1,0.3 -0.2,0.7 -0.4,0.9 -0.4,0.3 -1,0.3 -1.4,0.4 l -1.3,0.4 c 0,0 0,0 0,0 -1.7,1.8 -3.5,3.6 -5.3,5.4 l 0.7,0.7 -0.7,-0.7 c -9,8.8 -19.8,16.9 -32,24 l -4.3,2.5 c -0.9,0.5 -1.9,1 -2.9,1.5 -0.5,0.3 -1.1,0.5 -1.6,0.8 l -4.5,2.2 c -1.5,0.8 -3,1.5 -4.5,2.1 l -5.9,2.4 c -0.4,0.4 -0.7,0.8 -1.1,1.1 -0.4,0.4 -0.7,0.7 -1.1,1.1 -0.2,0.2 -0.5,0.6 -0.8,0.6 -0.4,0.1 -1.1,-0.2 -1.5,-0.3 l -1.4,-0.3 -7.2,2.4 c -10.9,3.3 -22.1,5.5 -33.3,6.6 -0.1,0 -0.2,0 -0.2,0 -1.9,0.2 -3.9,0.4 -5.8,0.5 -8.5,0.5 -17.2,0.2 -26.2,-0.8 -0.5,0.2 -1.1,0.3 -1.6,0.5 -0.5,0.1 -1,0.3 -1.4,0.4 -0.3,0.1 -0.7,0.2 -1,0.1 -0.4,-0.1 -0.8,-0.7 -1.2,-0.9 l -1.1,-0.9 c 0.1,0 0.1,0 0.2,0 -2.5,-0.4 -5,-0.8 -7.6,-1.3 l 0,0 c -4.8,-0.9 -9.9,-2.3 -15.9,-4.4 1.2,-1.4 2.3,-2.8 3.5,-4.3 1.1,-1.4 2.2,-2.9 3.3,-4.4 0.9,-1.2 1.7,-2.4 2.5,-3.6 5.3,-7.9 9.7,-16 13,-24.3 l 0,0 c 4.6,-11.2 7.6,-22.8 9,-34.6 0.1,-0.5 0.1,-0.9 0.2,-1.4 l -2,0 c -0.1,0.5 -0.1,0.9 -0.2,1.4 -0.9,7.4 -2.5,14.7 -4.6,21.9 0.1,0.5 0.2,1 0.2,1.5 0,0.5 0.1,0.9 0.1,1.4 0,0.3 0.1,0.7 0,0.9 -0.2,0.3 -0.8,0.6 -1.1,0.9 l -1,0.8 c 0,-0.1 0,-0.1 0,-0.2 -0.8,2.2 -1.6,4.4 -2.5,6.6 l 0.9,0.4 -0.9,-0.4 c -4.4,11 -10.7,21.6 -18.6,31.8 -1.3,1.7 -2.6,3.2 -3.9,4.8 -0.4,-0.1 -0.8,-0.3 -1.3,-0.4 l -7,-2.8 -6.8,-3.2 -4.4,-2.4 c -7.9,-4.3 -15,-9.4 -21.3,-15.3 -0.5,-0.2 -1,-0.3 -1.5,-0.5 -0.5,-0.2 -0.9,-0.4 -1.4,-0.6 -0.3,-0.1 -0.7,-0.2 -0.9,-0.5 -0.2,-0.4 -0.3,-1 -0.4,-1.5 l -0.3,-1.3 c 0,0 0.1,0.1 0.1,0.1 -1.8,-1.8 -3.5,-3.7 -5.1,-5.7 l -0.7,0.6 0.7,-0.7 c -1,-1.1 -1.9,-2.3 -2.8,-3.6 l -0.2,-0.3 c -0.3,-0.5 -0.7,-1 -1,-1.4 -0.6,-0.9 -1.3,-1.7 -1.8,-2.6 l -2.6,-4.3 c -0.2,-0.3 -0.3,-0.5 -0.5,-0.8 -0.3,-0.4 -0.5,-0.9 -0.8,-1.3 l -1.1,-2.3 c -0.3,-0.5 -0.5,-1.1 -0.8,-1.6 -0.5,-1 -0.9,-1.9 -1.3,-2.9 l -2,-5.6 c -0.2,-0.5 -0.4,-1 -0.5,-1.5 l -1.8,-7.3 -0.2,-0.8 -0.3,-1.4 -2,0 0.3,1.4 0.2,1.3 1.5,5.9 0.4,1.5 c 0.2,0.5 0.4,1.1 0.6,1.6 l 0.5,1.3 1.5,4.3 c 0.4,1 0.9,2 1.4,3 0.3,0.5 0.5,1.1 0.8,1.6 l 1.1,2.3 c 0.2,0.5 0.5,1 0.8,1.5 0.1,0.2 0.3,0.5 0.5,0.8 l 2.6,4.4 c 0.6,0.9 1.3,1.8 1.9,2.7 0.3,0.5 0.7,0.9 1,1.4 l 0.2,0.3 c 0.9,1.2 1.8,2.5 2.9,3.7 l 0,0 c 8.6,10.3 19.1,18.9 31.4,25.6 l 4.5,2.4 6.9,3.3 7.1,2.8 c 0.2,0.1 0.4,0.1 0.6,0.2 -2.4,2.7 -4.8,5.2 -7,7.4 -1.3,1.2 -2.8,2.6 -4.3,3.9 -0.2,0.5 -0.4,0.9 -0.6,1.4 -0.2,0.4 -0.4,0.8 -0.6,1.3 -0.1,0.3 -0.2,0.6 -0.5,0.8 -0.4,0.2 -1,0.1 -1.4,0.2 l -1.3,0.1 c -1.8,1.4 -3.6,2.8 -5.5,4.2 l 0.6,0.8 -0.6,-0.8 c -8.8,6.2 -18.1,11.1 -27.6,14.6 -0.1,0 -0.2,0.1 -0.3,0.1 -1.7,0.6 -3.4,1.2 -5.1,1.7 -7.7,2.5 -15.6,4.2 -23.7,5.2 -0.4,0.3 -0.8,0.5 -1.2,0.8 -0.4,0.2 -0.8,0.5 -1.2,0.7 -0.2,0.1 -0.5,0.4 -0.8,0.4 -0.4,0 -0.9,-0.4 -1.3,-0.6 -0.4,-0.2 -0.8,-0.4 -1.1,-0.6 0,0 0,0 0.1,0 -2.3,0.2 -4.7,0.3 -7,0.4 -12.4,0.2 -24.7,-1.3 -36.5,-4.6 -7.7,-2.1 -15.2,-5.1 -22.5,-8.9 -0.5,0 -1,0 -1.5,0 -0.5,0 -0.9,-0.1 -1.4,-0.1 -0.3,0 -0.7,0 -0.9,-0.2 -0.3,-0.3 -0.5,-0.9 -0.7,-1.3 l -0.6,-1.2 c 0,0 0.1,0 0.1,0 -2,-1.2 -4,-2.4 -5.9,-3.7 l -0.5,0.8 0.5,-0.8 c -5.4,-3.6 -10.4,-7.8 -14.4,-11.4 -2.7,-2.6 -5.9,-5.8 -9,-9.4 0,0 0,0 0,0 -1.2,-1.3 -2.3,-2.7 -3.4,-4.2 -3.5,-4.5 -6.6,-9.1 -9.4,-13.7 1,-0.1 2,-0.3 2.9,-0.4 12.9,-2 24.9,-5.1 35.5,-9.3 1.7,-0.7 3.4,-1.4 5.1,-2.1 1.3,-0.6 2.6,-1.1 3.8,-1.8 8.4,-4 16.1,-8.8 23,-14.4 9.8,-7.9 17.6,-16.9 23.3,-27 0.2,-0.3 0.4,-0.7 0.6,-1 l 0.2,-0.4 -2.2,0 c -0.3,0.5 -0.6,0.9 -0.8,1.4 -3.6,6.1 -7.9,11.8 -13.1,17.1 -0.1,0.5 -0.3,0.9 -0.4,1.4 -0.2,0.5 -0.3,0.9 -0.5,1.3 -0.1,0.3 -0.2,0.6 -0.4,0.8 -0.3,0.2 -1,0.2 -1.4,0.2 l -1.3,0.2 c -1.7,1.5 -3.4,3 -5.2,4.5 -9.2,7.4 -19.7,13.4 -31.4,18 -10.5,4.1 -22.3,7.2 -35.1,9.2 -1.2,0.2 -2.5,0.4 -3.7,0.5 -0.9,-1.6 -1.8,-3.3 -2.7,-4.9 -0.4,-0.3 -0.7,-0.6 -1.1,-0.8 -0.4,-0.3 -0.7,-0.6 -1.1,-0.9 -0.2,-0.2 -0.6,-0.4 -0.6,-0.7 -0.1,-0.4 0.1,-1 0.2,-1.4 l 0.2,-1.2 c -1,-2.1 -1.9,-4.3 -2.7,-6.4 l -0.9,0.3 0.9,-0.3 c -3.8,-10 -6.1,-20.2 -7.1,-30.5 0,0 0,-0.1 0,-0.1 -0.2,-1.8 -0.3,-3.6 -0.4,-5.4 l 0,-0.7 0,-1.4 -1.9,0 0,1.4 0,0.8 c 0.1,1.9 0.2,3.7 0.4,5.6 0.1,1.4 0.3,2.8 0.5,4.2 1.2,9 3.4,18 6.7,26.7 l 0,0 c 2,5.4 4.5,10.8 7.5,16 -9.3,1.2 -19.3,1.9 -30.5,2.1 -8.6,0.2 -16.5,0 -24,-0.5 -0.4,0.2 -0.9,0.4 -1.3,0.6 -0.4,0.2 -0.9,0.3 -1.3,0.5 -0.3,0.1 -0.6,0.3 -0.9,0.2 -0.4,-0.1 -0.8,-0.6 -1.1,-0.9 l -1,-0.8 c -2.3,-0.2 -4.6,-0.4 -6.8,-0.7 -12.8,-1.6 -24.7,-4.4 -35.3,-8.4 -7.6,-2.9 -14.8,-6.4 -21.4,-10.6 -0.5,0 -1,-0.1 -1.4,-0.1 -0.5,-0.1 -0.9,-0.1 -1.4,-0.2 -0.3,0 -0.7,0 -0.9,-0.3 -0.3,-0.3 -0.4,-0.9 -0.5,-1.3 l -0.5,-1.2 c -1.9,-1.3 -3.7,-2.7 -5.5,-4.1 -9.6,-7.7 -17.1,-16.6 -22.5,-26.4 -0.2,-0.4 -0.4,-0.8 -0.7,-1.2 l -0.8,-1.4 -0.1,0 0,4 c 0.4,0.8 0.9,1.5 1.3,2.2 0.2,0.3 0.4,0.6 0.6,0.9 0.7,1.2 1.5,2.4 2.3,3.5 5,7.3 11.2,13.9 18.6,19.8 9.3,7.5 20.1,13.6 32.1,18 1.7,0.6 3.4,1.2 5.2,1.8 1.3,0.4 2.7,0.9 4,1.3 8.3,2.4 17.2,4.3 26.6,5.5 9.4,1.2 19.4,1.8 30.5,1.8 2,0 4.1,0 6.2,-0.1 1.9,0 3.7,-0.1 5.5,-0.1 1.4,0 2.8,-0.1 4.2,-0.2 7.8,-0.4 15,-1 21.9,-1.9 2.9,5 6.2,9.9 9.9,14.6 1.2,1.5 2.4,3 3.6,4.4 0.9,1.1 1.9,2.1 2.8,3.1 2.2,2.4 4.4,4.5 6.3,6.4 4.1,3.7 9.1,8 14.7,11.6 l 0,0 c 10.7,7.2 22.1,12.5 33.9,15.6 1.8,0.5 3.5,0.9 5.3,1.3 1.4,0.3 2.8,0.6 4.3,0.9 8.2,1.6 16.6,2.4 25.1,2.4 0.8,0 1.6,0 2.4,0 l 0,-1 0,1 c 12.6,-0.3 25,-2.4 36.8,-6.2 1.8,-0.6 3.7,-1.2 5.5,-1.9 1.3,-0.5 2.5,-1 3.8,-1.5 8.3,-3.4 16.4,-7.9 24.1,-13.4 5.5,-3.8 10.4,-8.1 14.5,-11.9 2.4,-2.4 5,-5.1 7.6,-8.1 6.5,2.2 11.8,3.7 16.9,4.7 l 0.2,-1 -0.2,1 c 10.8,2.1 21.5,3.1 31.7,3.1 2.9,0 5.8,-0.1 8.7,-0.3 2,-0.1 4.1,-0.3 6.1,-0.5 1.5,-0.1 3,-0.3 4.5,-0.5 9.8,-1.2 19.6,-3.3 29.2,-6.2 l -0.3,-0.9 0.3,0.9 9.6,-3.2 9.3,-3.8 c 1.6,-0.6 3.1,-1.4 4.7,-2.1 l 4.5,-2.2 c 0.5,-0.3 1,-0.5 1.6,-0.8 1,-0.5 2,-1 3,-1.5 l 4.3,-2.5 c 1.7,-1 3.3,-2 5,-3 1.4,-0.9 2.8,-1.7 4.1,-2.6 8.6,-5.7 16.4,-12 23.3,-18.7 8.1,-7.8 15.3,-16.3 21.5,-25.4 0.3,-0.4 0.5,-0.7 0.8,-1.1 l 0,-3.5 c -0.3,0.4 -0.5,0.8 -0.8,1.2 -4,6 -8.4,11.9 -13.3,17.4 z"
           id="path151"
           inkscape:connector-curvature="0" /><path
           d="m 798.8,239.5 c 0.1,-0.4 0.1,-0.8 0.1,-1.2 -0.1,-1 -0.3,-2.1 -0.9,-2.9 -0.3,-0.4 -0.5,-0.9 -0.8,-1.3 -0.3,-0.4 -0.7,-0.8 -1,-1.2 -0.7,-0.7 -1.5,-1.3 -2.4,-1.8 -0.4,-0.3 -0.9,-0.5 -1.3,-0.7 -0.4,-0.2 -0.9,-0.3 -1.3,-0.5 -0.8,-0.4 -1.9,-0.7 -2.8,-0.8 -0.2,0 -0.3,-0.1 -0.3,0 0,0 0,0 0,0 -0.1,1.5 0.2,3.1 0.5,4.7 0.4,2 1.3,4 2.2,5.8 0.2,0.4 0.5,0.8 0.7,1.3 0.3,0.5 0.6,0.9 0.9,1.4 0.2,0.4 0.6,0.9 0.9,1.2 0.4,0.3 0.7,0.7 1,1.1 0.5,-0.9 1.2,-1.7 1.4,-2.8 0.1,-0.5 0.2,-1 0.2,-1.6 0,-0.6 -0.1,-1.1 -0.3,-1.7 -0.6,-2 -2,-3.6 -3.1,-5.3 -0.4,-0.6 -0.9,-1.2 -1.5,-1.7 0.4,0.3 0.9,0.6 1.3,0.9 1.5,1.2 3.1,2.6 4,4.3 0.2,0.4 0.4,0.8 0.5,1.2 0,0 0,0.1 0,0.1 0.2,0.7 0.3,1.5 0.3,2.2 0,0.4 0.1,0.9 0.1,1.3 0,0.1 0,0.1 0,0.2 0,0.2 -0.2,0.5 -0.1,0.7 0,-0.1 0.1,-0.2 0.2,-0.3 0,0.7 0,1.4 -0.1,2.1 -0.5,2.8 -1.4,5.5 -3.2,7.7 0,0 0,0 0,0 l 1.3,-0.4 c 0.4,-0.1 1.1,-0.2 1.4,-0.4 0.3,-0.2 0.3,-0.6 0.4,-0.9 0.2,-0.5 0.3,-0.9 0.5,-1.4 0.2,-0.5 0.4,-1.1 0.5,-1.6 0.4,-1.1 0.7,-2.3 0.7,-3.6 0.3,-1.1 0.2,-2.7 0,-4.1 z"
           id="path153"
           inkscape:connector-curvature="0" /></g></g></switch></svg>