<?xml version="1.0" encoding="UTF-8" standalone="no"?>
<svg
   xmlns:dc="http://purl.org/dc/elements/1.1/"
   xmlns:cc="http://creativecommons.org/ns#"
   xmlns:rdf="http://www.w3.org/1999/02/22-rdf-syntax-ns#"
   xmlns:svg="http://www.w3.org/2000/svg"
   xmlns="http://www.w3.org/2000/svg"
   xmlns:sodipodi="http://sodipodi.sourceforge.net/DTD/sodipodi-0.dtd"
   xmlns:inkscape="http://www.inkscape.org/namespaces/inkscape"
   version="1.1"
   id="l20"
   x="0px"
   y="0px"
   viewBox="0 0 1000 1000"
   width="100%"
   height="100%"
   style="enable-background:new 0 0 1000 1000;"
   xml:space="preserve"
    class="withFill"
   ><style
     type="text/css"
     id="style3">
	#l20 .st0{fill:#9E9E9E;}
	#l20 .st1{fill:#FFFFFF;}
</style><switch
     id="switch5"
     transform="translate(3.0710624,-3.6)"><g
       id="g7"><g
         id="g9"><path
           class="st0"
           d="m 845,524.7 c -3.2,-13.9 -3.2,-28.3 0,-42.2 l 3.9,-17 c 6.4,-28.2 -0.3,-57.7 -18.3,-80.3 l -10.8,-13.6 c -8.9,-11.2 -15.2,-24.2 -18.3,-38.1 l -3.9,-17 c -6.4,-28.2 -25.3,-51.9 -51.4,-64.4 l -15.7,-7.5 c -12.8,-6.2 -24.1,-15.2 -33,-26.3 L 686.7,204.7 C 668.7,182.1 641.4,169 612.5,169 l -17.5,0 c -14.3,0 -28.3,-3.2 -41.2,-9.4 l -15.7,-7.5 c -26,-12.5 -56.4,-12.5 -82.4,0 l -15.7,7.5 c -12.8,6.2 -26.9,9.4 -41.2,9.4 l -17.4,0 c -28.9,0 -56.2,13.2 -74.2,35.7 l -10.8,13.6 c -8.9,11.2 -20.2,20.2 -33,26.3 l -15.7,7.5 c -26,12.5 -44.9,36.2 -51.4,64.4 l -3.9,17 c -3.2,13.9 -9.4,26.9 -18.3,38.1 l -10.8,13.6 c -18,22.6 -24.8,52.1 -18.3,80.3 l 3.9,17 c 3.2,13.9 3.2,28.3 0,42.2 l -3.9,17 c -6.4,28.2 0.3,57.7 18.3,80.3 l 10.8,13.6 c 8.9,11.2 15.2,24.2 18.3,38.1 l 3.9,17 c 6.4,28.2 25.3,51.9 51.4,64.4 l 15.7,7.5 c 12.8,6.2 24.1,15.2 33,26.3 l 10.8,13.6 c 18,22.6 45.3,35.7 74.2,35.7 l 17.4,0 c 14.3,0 28.3,3.2 41.2,9.4 l 15.7,7.5 c 26,12.5 56.4,12.5 82.4,0 l 15.7,-7.5 c 12.8,-6.2 26.9,-9.4 41.2,-9.4 l 17.4,0 c 28.9,0 56.2,-13.2 74.2,-35.7 l 10.8,-13.6 c 8.9,-11.2 20.2,-20.2 33,-26.3 l 15.7,-7.5 c 26,-12.5 44.9,-36.2 51.4,-64.4 l 3.9,-17 c 3.2,-13.9 9.4,-26.9 18.3,-38.1 L 830.5,622 c 18,-22.6 24.8,-52.1 18.3,-80.3 l -3.8,-17 z M 496.9,758.8 C 356,758.8 241.7,644.5 241.7,503.6 241.7,362.7 356,248.4 496.9,248.4 c 140.9,0 255.2,114.3 255.2,255.2 0,140.9 -114.3,255.2 -255.2,255.2 z"
           id="path11"
           inkscape:connector-curvature="0"
           style="fill:#9e9e9e" /><g
           id="g13"><path
             class="st1"
             d="m 763.1,513.1 c -0.1,4.2 6.5,4.5 6.6,0.2 0.1,-4.3 -6.5,-4.4 -6.6,-0.2 z"
             id="path15"
             inkscape:connector-curvature="0"
             style="fill:#ffffff" /><path
             class="st1"
             d="m 762.3,525.7 c -0.3,4.2 6.3,4.8 6.6,0.5 0.4,-4.3 -6.2,-4.7 -6.6,-0.5 z"
             id="path17"
             inkscape:connector-curvature="0"
             style="fill:#ffffff" /><path
             class="st1"
             d="m 761,538.4 c -0.5,4.1 6,5.1 6.5,0.9 0.6,-4.3 -6,-5.1 -6.5,-0.9 z"
             id="path19"
             inkscape:connector-curvature="0"
             style="fill:#ffffff" /><path
             class="st1"
             d="m 759.1,550.8 c -0.7,4.1 5.7,5.4 6.5,1.2 0.7,-4.2 -5.8,-5.3 -6.5,-1.2 z"
             id="path21"
             inkscape:connector-curvature="0"
             style="fill:#ffffff" /><path
             class="st1"
             d="m 756.5,563.3 c -0.9,4.1 5.5,5.7 6.4,1.5 1,-4.2 -5.4,-5.5 -6.4,-1.5 z"
             id="path23"
             inkscape:connector-curvature="0"
             style="fill:#ffffff" /><path
             class="st1"
             d="m 753.4,575.5 c -1.1,4 5.2,5.9 6.4,1.8 1.2,-4.1 -5.2,-5.8 -6.4,-1.8 z"
             id="path25"
             inkscape:connector-curvature="0"
             style="fill:#ffffff" /><path
             class="st1"
             d="m 749.7,587.7 c -1.3,3.9 4.9,6.2 6.3,2.1 1.3,-4.1 -5,-6 -6.3,-2.1 z"
             id="path27"
             inkscape:connector-curvature="0"
             style="fill:#ffffff" /><path
             class="st1"
             d="m 745.4,599.6 c -1.5,3.9 4.6,6.4 6.2,2.4 1.6,-4 -4.6,-6.3 -6.2,-2.4 z"
             id="path29"
             inkscape:connector-curvature="0"
             style="fill:#ffffff" /><path
             class="st1"
             d="m 740.5,611.4 c -1.7,3.8 4.3,6.6 6,2.7 1.9,-4 -4.2,-6.5 -6,-2.7 z"
             id="path31"
             inkscape:connector-curvature="0"
             style="fill:#ffffff" /><path
             class="st1"
             d="m 735.2,622.8 c -1.9,3.7 3.9,6.8 5.9,3 1.9,-3.9 -4,-6.7 -5.9,-3 z"
             id="path33"
             inkscape:connector-curvature="0"
             style="fill:#ffffff" /><path
             class="st1"
             d="m 729.2,634 c -2.1,3.6 3.6,7 5.8,3.2 2.1,-3.7 -3.7,-6.8 -5.8,-3.2 z"
             id="path35"
             inkscape:connector-curvature="0"
             style="fill:#ffffff" /><path
             class="st1"
             d="m 722.8,644.9 c -2.3,3.5 3.3,7.1 5.6,3.5 2.3,-3.6 -3.4,-7 -5.6,-3.5 z"
             id="path37"
             inkscape:connector-curvature="0"
             style="fill:#ffffff" /><path
             class="st1"
             d="m 715.7,655.5 c -2.4,3.4 2.9,7.3 5.4,3.8 2.5,-3.5 -3,-7.2 -5.4,-3.8 z"
             id="path39"
             inkscape:connector-curvature="0"
             style="fill:#ffffff" /><path
             class="st1"
             d="m 708.3,665.7 c -2.6,3.3 2.6,7.4 5.2,4 2.7,-3.4 -2.6,-7.3 -5.2,-4 z"
             id="path41"
             inkscape:connector-curvature="0"
             style="fill:#ffffff" /><path
             class="st1"
             d="m 700.3,675.6 c -2.7,3.1 2.2,7.5 5,4.3 2.8,-3.3 -2.3,-7.4 -5,-4.3 z"
             id="path43"
             inkscape:connector-curvature="0"
             style="fill:#ffffff" /><path
             class="st1"
             d="m 691.9,685.1 c -2.9,3 1.9,7.6 4.8,4.5 3,-3.2 -1.9,-7.6 -4.8,-4.5 z"
             id="path45"
             inkscape:connector-curvature="0"
             style="fill:#ffffff" /><path
             class="st1"
             d="m 683,694.2 c -3,2.9 1.5,7.7 4.6,4.7 3.1,-3 -1.6,-7.6 -4.6,-4.7 z"
             id="path47"
             inkscape:connector-curvature="0"
             style="fill:#ffffff" /><path
             class="st1"
             d="m 673.8,702.8 c -3.2,2.7 1.1,7.8 4.4,4.9 3.2,-2.8 -1.3,-7.7 -4.4,-4.9 z"
             id="path49"
             inkscape:connector-curvature="0"
             style="fill:#ffffff" /><path
             class="st1"
             d="m 664,711 c -3.3,2.6 0.8,7.8 4.1,5.1 3.5,-2.6 -0.8,-7.7 -4.1,-5.1 z"
             id="path51"
             inkscape:connector-curvature="0"
             style="fill:#ffffff" /><path
             class="st1"
             d="m 654.1,718.7 c -3.4,2.4 0.4,7.8 3.9,5.3 3.5,-2.5 -0.6,-7.7 -3.9,-5.3 z"
             id="path53"
             inkscape:connector-curvature="0"
             style="fill:#ffffff" /><path
             class="st1"
             d="m 643.6,726 c -3.5,2.2 0,7.8 3.6,5.5 3.6,-2.3 -0.1,-7.8 -3.6,-5.5 z"
             id="path55"
             inkscape:connector-curvature="0"
             style="fill:#ffffff" /><path
             class="st1"
             d="m 632.9,732.7 c -3.6,2.1 -0.4,7.8 3.4,5.7 1.9,-1.1 1.9,-3 1.1,-4.5 -0.9,-1.4 -2.7,-2.2 -4.5,-1.2 z"
             id="path57"
             inkscape:connector-curvature="0"
             style="fill:#ffffff" /><path
             class="st1"
             d="m 621.8,739 c -3.7,1.9 -0.7,7.8 3.1,5.8 1.9,-1 2.1,-2.9 1.3,-4.4 -0.8,-1.5 -2.5,-2.4 -4.4,-1.4 z"
             id="path59"
             inkscape:connector-curvature="0"
             style="fill:#ffffff" /><path
             class="st1"
             d="m 610.5,744.6 c -3.8,1.7 -1.1,7.8 2.8,6 2,-0.9 2.2,-2.9 1.5,-4.3 -0.7,-1.5 -2.4,-2.5 -4.3,-1.7 z"
             id="path61"
             inkscape:connector-curvature="0"
             style="fill:#ffffff" /><path
             class="st1"
             d="m 598.9,749.8 c -3.9,1.5 -1.5,7.7 2.5,6.1 2,-0.8 2.3,-2.8 1.7,-4.3 -0.7,-1.5 -2.3,-2.6 -4.2,-1.8 z"
             id="path63"
             inkscape:connector-curvature="0"
             style="fill:#ffffff" /><path
             class="st1"
             d="m 587.1,754.3 c -3.9,1.3 -1.9,7.6 2.2,6.2 2,-0.7 2.4,-2.7 1.9,-4.2 -0.6,-1.5 -2.1,-2.6 -4.1,-2 z"
             id="path65"
             inkscape:connector-curvature="0"
             style="fill:#ffffff" /><path
             class="st1"
             d="m 575,758.4 c -4,1.1 -2.2,7.5 1.9,6.3 4.2,-1.3 2.1,-7.6 -1.9,-6.3 z"
             id="path67"
             inkscape:connector-curvature="0"
             style="fill:#ffffff" /><path
             class="st1"
             d="m 562.9,761.8 c -4.1,0.9 -2.6,7.4 1.6,6.4 4.2,-1.1 2.4,-7.5 -1.6,-6.4 z"
             id="path69"
             inkscape:connector-curvature="0"
             style="fill:#ffffff" /><path
             class="st1"
             d="m 550.5,764.6 c -4.1,0.7 -2.9,7.2 1.3,6.5 4.2,-0.9 2.7,-7.4 -1.3,-6.5 z"
             id="path71"
             inkscape:connector-curvature="0"
             style="fill:#ffffff" /><path
             class="st1"
             d="m 538,766.9 c -4.1,0.6 -3.3,7.1 1,6.5 4.3,-0.8 3.1,-7.3 -1,-6.5 z"
             id="path73"
             inkscape:connector-curvature="0"
             style="fill:#ffffff" /><path
             class="st1"
             d="m 525.4,768.5 c -4.1,0.4 -3.6,7 0.7,6.6 4.3,-0.6 3.4,-7.1 -0.7,-6.6 z"
             id="path75"
             inkscape:connector-curvature="0"
             style="fill:#ffffff" /><path
             class="st1"
             d="m 512.8,769.5 c -2.1,0.2 -3.1,1.8 -3,3.5 0.1,1.7 1.2,3.3 3.4,3.1 4.3,-0.3 3.8,-6.9 -0.4,-6.6 z"
             id="path77"
             inkscape:connector-curvature="0"
             style="fill:#ffffff" /><path
             class="st1"
             d="m 500.1,770 c -4.2,0.1 -4.2,6.7 0.1,6.6 4.3,-0.1 4,-6.8 -0.1,-6.6 z"
             id="path79"
             inkscape:connector-curvature="0"
             style="fill:#ffffff" /><path
             class="st1"
             d="m 487.5,769.8 c -4.2,-0.1 -4.5,6.5 -0.2,6.6 4.2,0.1 4.3,-6.5 0.2,-6.6 z"
             id="path81"
             inkscape:connector-curvature="0"
             style="fill:#ffffff" /><path
             class="st1"
             d="m 474.7,769 c -4.2,-0.3 -4.8,6.3 -0.5,6.6 4.3,0.4 4.7,-6.2 0.5,-6.6 z"
             id="path83"
             inkscape:connector-curvature="0"
             style="fill:#ffffff" /><path
             class="st1"
             d="m 462.2,767.7 c -4.1,-0.5 -5.1,6 -0.9,6.5 4.3,0.6 5,-6 0.9,-6.5 z"
             id="path85"
             inkscape:connector-curvature="0"
             style="fill:#ffffff" /><path
             class="st1"
             d="m 449.6,765.8 c -4.1,-0.7 -5.4,5.7 -1.2,6.5 4.3,0.7 5.3,-5.8 1.2,-6.5 z"
             id="path87"
             inkscape:connector-curvature="0"
             style="fill:#ffffff" /><path
             class="st1"
             d="m 437.2,763.2 c -4.1,-0.9 -5.7,5.5 -1.5,6.4 4.3,1.1 5.6,-5.4 1.5,-6.4 z"
             id="path89"
             inkscape:connector-curvature="0"
             style="fill:#ffffff" /><path
             class="st1"
             d="m 424.9,760.1 c -4,-1.1 -5.9,5.2 -1.8,6.4 4.2,1.1 5.8,-5.2 1.8,-6.4 z"
             id="path91"
             inkscape:connector-curvature="0"
             style="fill:#ffffff" /><path
             class="st1"
             d="m 412.8,756.4 c -3.9,-1.3 -6.2,4.9 -2.1,6.3 4.1,1.4 6.1,-4.9 2.1,-6.3 z"
             id="path93"
             inkscape:connector-curvature="0"
             style="fill:#ffffff" /><path
             class="st1"
             d="m 400.8,752.1 c -3.9,-1.5 -6.4,4.6 -2.4,6.2 4.1,1.6 6.3,-4.7 2.4,-6.2 z"
             id="path95"
             inkscape:connector-curvature="0"
             style="fill:#ffffff" /><path
             class="st1"
             d="m 389.2,747.3 c -3.8,-1.7 -6.6,4.3 -2.7,6 3.9,1.8 6.5,-4.3 2.7,-6 z"
             id="path97"
             inkscape:connector-curvature="0"
             style="fill:#ffffff" /><path
             class="st1"
             d="m 377.7,741.9 c -3.7,-1.9 -6.8,3.9 -3,5.9 3.8,1.9 6.7,-4 3,-5.9 z"
             id="path99"
             inkscape:connector-curvature="0"
             style="fill:#ffffff" /><path
             class="st1"
             d="m 366.5,735.9 c -3.6,-2.1 -7,3.6 -3.2,5.8 3.7,2.1 6.8,-3.7 3.2,-5.8 z"
             id="path101"
             inkscape:connector-curvature="0"
             style="fill:#ffffff" /><path
             class="st1"
             d="m 355.6,729.4 c -3.5,-2.2 -7.1,3.3 -3.5,5.6 3.6,2.3 7,-3.3 3.5,-5.6 z"
             id="path103"
             inkscape:connector-curvature="0"
             style="fill:#ffffff" /><path
             class="st1"
             d="m 345,722.5 c -3.4,-2.4 -7.3,2.9 -3.8,5.4 3.6,2.5 7.2,-3 3.8,-5.4 z"
             id="path105"
             inkscape:connector-curvature="0"
             style="fill:#ffffff" /><path
             class="st1"
             d="m 334.7,715 c -3.3,-2.6 -7.4,2.6 -4,5.2 3.4,2.7 7.3,-2.7 4,-5.2 z"
             id="path107"
             inkscape:connector-curvature="0"
             style="fill:#ffffff" /><path
             class="st1"
             d="m 320.7,712.1 c 3.3,2.8 7.4,-2.3 4.3,-5 -3.2,-2.8 -7.6,2.2 -4.3,5 z"
             id="path109"
             inkscape:connector-curvature="0"
             style="fill:#ffffff" /><path
             class="st1"
             d="m 310.9,703.4 c 3.1,3 7.5,-2 4.5,-4.8 -3,-2.9 -7.6,1.8 -4.5,4.8 z"
             id="path111"
             inkscape:connector-curvature="0"
             style="fill:#ffffff" /><path
             class="st1"
             d="m 301.6,694.4 c 3,3.1 7.6,-1.6 4.7,-4.6 -2.8,-3.1 -7.6,1.5 -4.7,4.6 z"
             id="path113"
             inkscape:connector-curvature="0"
             style="fill:#ffffff" /><path
             class="st1"
             d="m 292.7,684.8 c 2.8,3.3 7.7,-1.2 4.9,-4.4 -2.7,-3.1 -7.7,1.2 -4.9,4.4 z"
             id="path115"
             inkscape:connector-curvature="0"
             style="fill:#ffffff" /><path
             class="st1"
             d="m 284.4,675 c 2.7,3.4 7.7,-0.9 5.1,-4.1 -2.6,-3.4 -7.8,0.7 -5.1,4.1 z"
             id="path117"
             inkscape:connector-curvature="0"
             style="fill:#ffffff" /><path
             class="st1"
             d="m 276.4,664.6 c 2.5,3.5 7.8,-0.5 5.3,-3.9 -2.4,-3.4 -7.8,0.4 -5.3,3.9 z"
             id="path119"
             inkscape:connector-curvature="0"
             style="fill:#ffffff" /><path
             class="st1"
             d="m 269,654 c 1.2,1.8 3.1,1.8 4.5,0.8 1.4,-0.9 2.1,-2.7 1,-4.5 -2.2,-3.5 -7.8,0.1 -5.5,3.7 z"
             id="path121"
             inkscape:connector-curvature="0"
             style="fill:#ffffff" /><path
             class="st1"
             d="m 262.1,642.9 c 1.1,1.9 3,1.9 4.5,1.1 1.4,-0.9 2.3,-2.6 1.2,-4.4 -2.1,-3.7 -7.9,-0.4 -5.7,3.3 z"
             id="path123"
             inkscape:connector-curvature="0"
             style="fill:#ffffff" /><path
             class="st1"
             d="m 261.6,628.6 c -1.9,-3.7 -7.8,-0.7 -5.8,3.1 1,1.9 2.9,2.1 4.4,1.3 1.4,-0.9 2.3,-2.6 1.4,-4.4 z"
             id="path125"
             inkscape:connector-curvature="0"
             style="fill:#ffffff" /><path
             class="st1"
             d="m 255.9,617.2 c -1.7,-3.8 -7.8,-1.1 -6,2.8 0.9,2 2.9,2.2 4.3,1.5 1.5,-0.8 2.5,-2.4 1.7,-4.3 z"
             id="path127"
             inkscape:connector-curvature="0"
             style="fill:#ffffff" /><path
             class="st1"
             d="m 250.7,605.7 c -1.5,-3.9 -7.7,-1.5 -6.1,2.5 0.8,2 2.8,2.3 4.3,1.7 1.6,-0.7 2.6,-2.3 1.8,-4.2 z"
             id="path129"
             inkscape:connector-curvature="0"
             style="fill:#ffffff" /><path
             class="st1"
             d="m 246.1,593.8 c -1.3,-3.9 -7.6,-1.9 -6.2,2.2 0.7,2 2.7,2.4 4.2,1.9 1.6,-0.6 2.7,-2.1 2,-4.1 z"
             id="path131"
             inkscape:connector-curvature="0"
             style="fill:#ffffff" /><path
             class="st1"
             d="m 242.1,581.8 c -1.1,-4 -7.5,-2.2 -6.3,1.9 1.3,4.1 7.6,2.1 6.3,-1.9 z"
             id="path133"
             inkscape:connector-curvature="0"
             style="fill:#ffffff" /><path
             class="st1"
             d="m 238.7,569.5 c -0.9,-4.1 -7.4,-2.6 -6.4,1.6 1.1,4.2 7.5,2.4 6.4,-1.6 z"
             id="path135"
             inkscape:connector-curvature="0"
             style="fill:#ffffff" /><path
             class="st1"
             d="m 235.9,557.2 c -0.7,-4.1 -7.2,-2.9 -6.5,1.3 1,4.3 7.4,2.8 6.5,-1.3 z"
             id="path137"
             inkscape:connector-curvature="0"
             style="fill:#ffffff" /><path
             class="st1"
             d="m 233.6,544.7 c -0.6,-4.1 -7.1,-3.3 -6.5,1 0.8,4.2 7.3,3.1 6.5,-1 z"
             id="path139"
             inkscape:connector-curvature="0"
             style="fill:#ffffff" /><path
             class="st1"
             d="m 232,532.2 c -0.3,-2.1 -1.9,-3 -3.6,-2.8 -1.6,0.1 -3.3,1.4 -3,3.5 0.6,4.3 7.1,3.4 6.6,-0.7 z"
             id="path141"
             inkscape:connector-curvature="0"
             style="fill:#ffffff" /><path
             class="st1"
             d="m 231,519.5 c -0.2,-2.1 -1.8,-3.1 -3.5,-3 -1.7,0.1 -3.3,1.2 -3.1,3.4 0.3,4.2 6.9,3.7 6.6,-0.4 z"
             id="path143"
             inkscape:connector-curvature="0"
             style="fill:#ffffff" /><path
             class="st1"
             d="m 230.5,506.9 c -0.1,-4.2 -6.7,-4.2 -6.6,0.1 0.1,4.2 6.8,4 6.6,-0.1 z"
             id="path145"
             inkscape:connector-curvature="0"
             style="fill:#ffffff" /><path
             class="st1"
             d="m 230.7,494.1 c 0.1,-4.2 -6.5,-4.5 -6.6,-0.2 -0.1,4.3 6.5,4.4 6.6,0.2 z"
             id="path147"
             inkscape:connector-curvature="0"
             style="fill:#ffffff" /><path
             class="st1"
             d="m 231.4,481.5 c 0.3,-4.2 -6.3,-4.8 -6.6,-0.5 -0.3,4.3 6.3,4.7 6.6,0.5 z"
             id="path149"
             inkscape:connector-curvature="0"
             style="fill:#ffffff" /><path
             class="st1"
             d="m 232.8,468.8 c 0.5,-4.1 -6,-5.1 -6.5,-0.9 -0.6,4.4 6,5.1 6.5,0.9 z"
             id="path151"
             inkscape:connector-curvature="0"
             style="fill:#ffffff" /><path
             class="st1"
             d="m 234.7,456.4 c 0.7,-4.1 -5.7,-5.4 -6.5,-1.2 -0.7,4.3 5.8,5.3 6.5,1.2 z"
             id="path153"
             inkscape:connector-curvature="0"
             style="fill:#ffffff" /><path
             class="st1"
             d="m 237.3,443.9 c 0.9,-4.1 -5.5,-5.7 -6.4,-1.5 -1,4.2 5.4,5.6 6.4,1.5 z"
             id="path155"
             inkscape:connector-curvature="0"
             style="fill:#ffffff" /><path
             class="st1"
             d="m 240.4,431.7 c 1.1,-4 -5.2,-5.9 -6.4,-1.8 -1.2,4.1 5.2,5.8 6.4,1.8 z"
             id="path157"
             inkscape:connector-curvature="0"
             style="fill:#ffffff" /><path
             class="st1"
             d="m 244.1,419.5 c 1.3,-3.9 -4.9,-6.2 -6.3,-2.1 -1.3,4.1 5,6 6.3,2.1 z"
             id="path159"
             inkscape:connector-curvature="0"
             style="fill:#ffffff" /><path
             class="st1"
             d="m 248.4,407.6 c 1.5,-3.9 -4.6,-6.4 -6.2,-2.4 -1.6,4 4.6,6.3 6.2,2.4 z"
             id="path161"
             inkscape:connector-curvature="0"
             style="fill:#ffffff" /><path
             class="st1"
             d="m 253.2,395.8 c 1.7,-3.8 -4.3,-6.6 -6,-2.7 -1.8,4 4.3,6.5 6,2.7 z"
             id="path163"
             inkscape:connector-curvature="0"
             style="fill:#ffffff" /><path
             class="st1"
             d="m 258.6,384.4 c 1.9,-3.7 -3.9,-6.8 -5.9,-3 -2,3.9 4,6.7 5.9,3 z"
             id="path165"
             inkscape:connector-curvature="0"
             style="fill:#ffffff" /><path
             class="st1"
             d="m 264.6,373.2 c 2.1,-3.6 -3.6,-7 -5.8,-3.2 -2.1,3.7 3.7,6.8 5.8,3.2 z"
             id="path167"
             inkscape:connector-curvature="0"
             style="fill:#ffffff" /><path
             class="st1"
             d="m 271,362.3 c 2.2,-3.5 -3.3,-7.1 -5.6,-3.5 -2.3,3.7 3.4,7 5.6,3.5 z"
             id="path169"
             inkscape:connector-curvature="0"
             style="fill:#ffffff" /><path
             class="st1"
             d="m 278.1,351.7 c 2.4,-3.4 -2.9,-7.3 -5.4,-3.8 -2.6,3.5 2.9,7.2 5.4,3.8 z"
             id="path171"
             inkscape:connector-curvature="0"
             style="fill:#ffffff" /><path
             class="st1"
             d="m 285.5,341.5 c 2.6,-3.3 -2.6,-7.4 -5.2,-4 -2.7,3.4 2.6,7.3 5.2,4 z"
             id="path173"
             inkscape:connector-curvature="0"
             style="fill:#ffffff" /><path
             class="st1"
             d="m 288.5,327.3 c -2.8,3.3 2.3,7.4 5,4.3 2.7,-3.2 -2.2,-7.5 -5,-4.3 z"
             id="path175"
             inkscape:connector-curvature="0"
             style="fill:#ffffff" /><path
             class="st1"
             d="m 297,317.7 c -3,3.1 2,7.5 4.8,4.5 3,-3.1 -1.8,-7.7 -4.8,-4.5 z"
             id="path177"
             inkscape:connector-curvature="0"
             style="fill:#ffffff" /><path
             class="st1"
             d="m 306.2,308.3 c -3.1,3 1.6,7.6 4.6,4.7 3,-2.8 -1.5,-7.7 -4.6,-4.7 z"
             id="path179"
             inkscape:connector-curvature="0"
             style="fill:#ffffff" /><path
             class="st1"
             d="m 315.6,299.5 c -3.3,2.8 1.2,7.7 4.4,4.9 3.2,-2.7 -1.1,-7.7 -4.4,-4.9 z"
             id="path181"
             inkscape:connector-curvature="0"
             style="fill:#ffffff" /><path
             class="st1"
             d="m 325.6,291 c -3.4,2.7 0.9,7.7 4.1,5.1 3.3,-2.5 -0.7,-7.7 -4.1,-5.1 z"
             id="path183"
             inkscape:connector-curvature="0"
             style="fill:#ffffff" /><path
             class="st1"
             d="m 335.8,283.2 c -3.5,2.5 0.5,7.8 3.9,5.3 3.4,-2.4 -0.3,-7.8 -3.9,-5.3 z"
             id="path185"
             inkscape:connector-curvature="0"
             style="fill:#ffffff" /><path
             class="st1"
             d="m 346.6,275.7 c -3.6,2.3 0.1,7.8 3.6,5.5 3.5,-2.2 0,-7.8 -3.6,-5.5 z"
             id="path187"
             inkscape:connector-curvature="0"
             style="fill:#ffffff" /><path
             class="st1"
             d="m 357.5,268.8 c -1.9,1.1 -1.9,3 -1.1,4.5 0.9,1.4 2.6,2.3 4.4,1.2 3.7,-2.1 0.4,-7.8 -3.3,-5.7 z"
             id="path189"
             inkscape:connector-curvature="0"
             style="fill:#ffffff" /><path
             class="st1"
             d="m 368.9,262.4 c -1.9,1 -2.1,2.9 -1.3,4.4 0.8,1.4 2.5,2.4 4.4,1.4 3.7,-1.8 0.7,-7.7 -3.1,-5.8 z"
             id="path191"
             inkscape:connector-curvature="0"
             style="fill:#ffffff" /><path
             class="st1"
             d="m 380.4,256.6 c -2,0.9 -2.2,2.9 -1.5,4.3 0.7,1.5 2.4,2.5 4.3,1.6 3.9,-1.6 1.2,-7.7 -2.8,-5.9 z"
             id="path193"
             inkscape:connector-curvature="0"
             style="fill:#ffffff" /><path
             class="st1"
             d="m 392.4,251.3 c -2,0.8 -2.3,2.8 -1.7,4.3 0.7,1.5 2.2,2.6 4.2,1.8 3.9,-1.5 1.5,-7.7 -2.5,-6.1 z"
             id="path195"
             inkscape:connector-curvature="0"
             style="fill:#ffffff" /><path
             class="st1"
             d="m 404.4,246.7 c -2,0.7 -2.4,2.7 -1.9,4.2 0.6,1.6 2.1,2.6 4.1,2 4,-1.4 1.9,-7.6 -2.2,-6.2 z"
             id="path197"
             inkscape:connector-curvature="0"
             style="fill:#ffffff" /><path
             class="st1"
             d="m 416.8,242.5 c -4.1,1.3 -2,7.6 1.9,6.3 4.1,-1.1 2.3,-7.5 -1.9,-6.3 z"
             id="path199"
             inkscape:connector-curvature="0"
             style="fill:#ffffff" /><path
             class="st1"
             d="m 429.3,239 c -4.2,1.1 -2.4,7.5 1.6,6.4 4.1,-0.9 2.6,-7.3 -1.6,-6.4 z"
             id="path201"
             inkscape:connector-curvature="0"
             style="fill:#ffffff" /><path
             class="st1"
             d="m 442,236.1 c -4.2,1 -2.7,7.4 1.3,6.5 4.1,-0.8 3,-7.3 -1.3,-6.5 z"
             id="path203"
             inkscape:connector-curvature="0"
             style="fill:#ffffff" /><path
             class="st1"
             d="m 454.7,233.8 c -4.2,0.8 -3.1,7.3 1,6.5 4.2,-0.5 3.3,-7.1 -1,-6.5 z"
             id="path205"
             inkscape:connector-curvature="0"
             style="fill:#ffffff" /><path
             class="st1"
             d="m 467.7,232.1 c -4.3,0.5 -3.4,7.1 0.7,6.6 4.1,-0.4 3.6,-7 -0.7,-6.6 z"
             id="path207"
             inkscape:connector-curvature="0"
             style="fill:#ffffff" /><path
             class="st1"
             d="m 480.6,231.1 c -4.3,0.3 -3.8,6.9 0.4,6.6 2.1,-0.2 3.1,-1.8 3,-3.5 -0.1,-1.7 -1.3,-3.3 -3.4,-3.1 z"
             id="path209"
             inkscape:connector-curvature="0"
             style="fill:#ffffff" /><path
             class="st1"
             d="m 493.6,230.7 c -4.3,0.1 -4.1,6.7 0.1,6.6 4.2,-0.2 4.3,-6.8 -0.1,-6.6 z"
             id="path211"
             inkscape:connector-curvature="0"
             style="fill:#ffffff" /><path
             class="st1"
             d="m 506.6,230.8 c -4.3,-0.1 -4.4,6.5 -0.2,6.6 4.1,0.1 4.5,-6.5 0.2,-6.6 z"
             id="path213"
             inkscape:connector-curvature="0"
             style="fill:#ffffff" /><path
             class="st1"
             d="m 519.6,231.6 c -4.3,-0.3 -4.7,6.3 -0.5,6.6 4.1,0.3 4.8,-6.3 0.5,-6.6 z"
             id="path215"
             inkscape:connector-curvature="0"
             style="fill:#ffffff" /><path
             class="st1"
             d="m 532.4,232.9 c -4.3,-0.5 -5,6 -0.9,6.5 4.2,0.6 5.2,-5.9 0.9,-6.5 z"
             id="path217"
             inkscape:connector-curvature="0"
             style="fill:#ffffff" /><path
             class="st1"
             d="m 545.4,234.9 c -4.2,-0.8 -5.3,5.8 -1.2,6.5 4.1,0.8 5.4,-5.7 1.2,-6.5 z"
             id="path219"
             inkscape:connector-curvature="0"
             style="fill:#ffffff" /><path
             class="st1"
             d="m 558,237.5 c -4.2,-1 -5.5,5.5 -1.5,6.4 4.1,1 5.7,-5.4 1.5,-6.4 z"
             id="path221"
             inkscape:connector-curvature="0"
             style="fill:#ffffff" /><path
             class="st1"
             d="m 570.7,240.7 c -4.1,-1.2 -5.8,5.2 -1.8,6.4 4,1.1 5.9,-5.2 1.8,-6.4 z"
             id="path223"
             inkscape:connector-curvature="0"
             style="fill:#ffffff" /><path
             class="st1"
             d="m 583,244.5 c -4.1,-1.4 -6,4.9 -2.1,6.3 4,1.3 6.2,-4.9 2.1,-6.3 z"
             id="path225"
             inkscape:connector-curvature="0"
             style="fill:#ffffff" /><path
             class="st1"
             d="m 595.3,248.9 c -4,-1.6 -6.3,4.6 -2.4,6.2 3.9,1.5 6.5,-4.6 2.4,-6.2 z"
             id="path227"
             inkscape:connector-curvature="0"
             style="fill:#ffffff" /><path
             class="st1"
             d="m 607.3,253.9 c -3.9,-1.8 -6.5,4.3 -2.7,6 3.8,1.7 6.6,-4.2 2.7,-6 z"
             id="path229"
             inkscape:connector-curvature="0"
             style="fill:#ffffff" /><path
             class="st1"
             d="m 619.1,259.5 c -3.8,-2 -6.7,4 -3,5.9 3.7,1.9 6.8,-4 3,-5.9 z"
             id="path231"
             inkscape:connector-curvature="0"
             style="fill:#ffffff" /><path
             class="st1"
             d="m 630.5,265.5 c -3.7,-2.1 -6.9,3.7 -3.2,5.8 3.6,2 6.9,-3.6 3.2,-5.8 z"
             id="path233"
             inkscape:connector-curvature="0"
             style="fill:#ffffff" /><path
             class="st1"
             d="m 641.7,272.2 c -3.6,-2.3 -7,3.3 -3.5,5.6 3.5,2.2 7.2,-3.3 3.5,-5.6 z"
             id="path235"
             inkscape:connector-curvature="0"
             style="fill:#ffffff" /><path
             class="st1"
             d="m 652.5,279.3 c -3.5,-2.5 -7.2,3 -3.8,5.4 3.4,2.4 7.3,-2.9 3.8,-5.4 z"
             id="path237"
             inkscape:connector-curvature="0"
             style="fill:#ffffff" /><path
             class="st1"
             d="m 663.1,287 c -3.4,-2.7 -7.3,2.7 -4,5.2 3.2,2.6 7.4,-2.5 4,-5.2 z"
             id="path239"
             inkscape:connector-curvature="0"
             style="fill:#ffffff" /><path
             class="st1"
             d="m 673.1,295.1 c -3.3,-2.8 -7.4,2.3 -4.3,5 3.2,2.8 7.6,-2.1 4.3,-5 z"
             id="path241"
             inkscape:connector-curvature="0"
             style="fill:#ffffff" /><path
             class="st1"
             d="m 682.9,303.8 c -3.1,-3 -7.5,2 -4.5,4.8 3,2.9 7.6,-1.8 4.5,-4.8 z"
             id="path243"
             inkscape:connector-curvature="0"
             style="fill:#ffffff" /><path
             class="st1"
             d="m 692.1,312.8 c -3,-3.1 -7.6,1.6 -4.7,4.6 2.9,3.1 7.7,-1.4 4.7,-4.6 z"
             id="path245"
             inkscape:connector-curvature="0"
             style="fill:#ffffff" /><path
             class="st1"
             d="m 701.1,322.4 c -2.8,-3.3 -7.7,1.2 -4.9,4.4 2.6,3.1 7.7,-1.1 4.9,-4.4 z"
             id="path247"
             inkscape:connector-curvature="0"
             style="fill:#ffffff" /><path
             class="st1"
             d="m 709.4,332.2 c -2.7,-3.4 -7.7,0.9 -5.1,4.1 2.5,3.4 7.8,-0.7 5.1,-4.1 z"
             id="path249"
             inkscape:connector-curvature="0"
             style="fill:#ffffff" /><path
             class="st1"
             d="m 717.4,342.6 c -2.5,-3.5 -7.8,0.5 -5.3,3.9 2.4,3.4 7.8,-0.4 5.3,-3.9 z"
             id="path251"
             inkscape:connector-curvature="0"
             style="fill:#ffffff" /><path
             class="st1"
             d="m 724.8,353.2 c -1.2,-1.8 -3.1,-1.8 -4.5,-0.8 -1.4,0.9 -2.1,2.7 -1,4.5 2.2,3.5 7.8,-0.1 5.5,-3.7 z"
             id="path253"
             inkscape:connector-curvature="0"
             style="fill:#ffffff" /><path
             class="st1"
             d="m 731.7,364.3 c -1.1,-1.9 -3,-1.9 -4.4,-1.1 -1.4,0.9 -2.3,2.6 -1.2,4.4 2,3.7 7.8,0.4 5.6,-3.3 z"
             id="path255"
             inkscape:connector-curvature="0"
             style="fill:#ffffff" /><path
             class="st1"
             d="m 732.2,378.6 c 1.9,3.7 7.8,0.7 5.8,-3.1 -1,-1.9 -2.9,-2.1 -4.4,-1.3 -1.4,0.9 -2.3,2.6 -1.4,4.4 z"
             id="path257"
             inkscape:connector-curvature="0"
             style="fill:#ffffff" /><path
             class="st1"
             d="m 737.9,390 c 1.7,3.8 7.8,1.1 6,-2.8 -0.9,-2 -2.9,-2.2 -4.3,-1.5 -1.5,0.8 -2.5,2.4 -1.7,4.3 z"
             id="path259"
             inkscape:connector-curvature="0"
             style="fill:#ffffff" /><path
             class="st1"
             d="m 743,401.6 c 1.5,3.9 7.7,1.5 6.1,-2.5 -0.8,-2 -2.8,-2.3 -4.3,-1.7 -1.5,0.6 -2.5,2.2 -1.8,4.2 z"
             id="path261"
             inkscape:connector-curvature="0"
             style="fill:#ffffff" /><path
             class="st1"
             d="m 747.7,413.5 c 1.3,3.9 7.6,1.9 6.2,-2.2 -0.7,-2 -2.7,-2.4 -4.2,-1.9 -1.6,0.5 -2.7,2.1 -2,4.1 z"
             id="path263"
             inkscape:connector-curvature="0"
             style="fill:#ffffff" /><path
             class="st1"
             d="m 751.6,425.4 c 1.1,4 7.5,2.2 6.3,-1.9 -1.2,-4.1 -7.5,-2.1 -6.3,1.9 z"
             id="path265"
             inkscape:connector-curvature="0"
             style="fill:#ffffff" /><path
             class="st1"
             d="m 755.1,437.7 c 0.9,4.1 7.4,2.6 6.4,-1.6 -1.1,-4.2 -7.5,-2.4 -6.4,1.6 z"
             id="path267"
             inkscape:connector-curvature="0"
             style="fill:#ffffff" /><path
             class="st1"
             d="m 757.9,450 c 0.7,4.1 7.2,2.9 6.5,-1.3 -1,-4.2 -7.4,-2.8 -6.5,1.3 z"
             id="path269"
             inkscape:connector-curvature="0"
             style="fill:#ffffff" /><path
             class="st1"
             d="m 760.2,462.5 c 0.6,4.1 7.1,3.3 6.5,-1 -0.8,-4.2 -7.3,-3.1 -6.5,1 z"
             id="path271"
             inkscape:connector-curvature="0"
             style="fill:#ffffff" /><path
             class="st1"
             d="m 761.8,475 c 0.3,2.1 1.9,3 3.6,2.8 1.6,-0.1 3.3,-1.4 3,-3.5 -0.6,-4.2 -7.1,-3.4 -6.6,0.7 z"
             id="path273"
             inkscape:connector-curvature="0"
             style="fill:#ffffff" /><path
             class="st1"
             d="m 762.8,487.8 c 0.2,2.1 1.8,3.1 3.5,3 1.7,-0.1 3.3,-1.2 3.1,-3.4 -0.3,-4.3 -6.9,-3.8 -6.6,0.4 z"
             id="path275"
             inkscape:connector-curvature="0"
             style="fill:#ffffff" /><path
             class="st1"
             d="m 763.2,500.4 c 0.1,4.2 6.7,4.2 6.6,-0.1 -0.1,-4.3 -6.7,-4.1 -6.6,0.1 z"
             id="path277"
             inkscape:connector-curvature="0"
             style="fill:#ffffff" /></g></g></g></switch></svg>