<?xml version="1.0" encoding="UTF-8" standalone="no"?>
<svg
   xmlns:dc="http://purl.org/dc/elements/1.1/"
   xmlns:cc="http://creativecommons.org/ns#"
   xmlns:rdf="http://www.w3.org/1999/02/22-rdf-syntax-ns#"
   xmlns:svg="http://www.w3.org/2000/svg"
   xmlns="http://www.w3.org/2000/svg"
   xmlns:sodipodi="http://sodipodi.sourceforge.net/DTD/sodipodi-0.dtd"
   xmlns:inkscape="http://www.inkscape.org/namespaces/inkscape"
   version="1.1"
   id="Layer_1"
   x="0px"
   y="0px"
   viewBox="0 0 1000 1000"
   width="100%"
   height="100%"
   style="enable-background:new 0 0 1000 1000;"
   xml:space="preserve"
   ><style
     type="text/css"
     id="style3">
	.noFillSVG{fill:none;}
</style><switch
     id="switch5"
     transform="translate(19.928364,0.00198514)"><g
       id="g7"><g
         id="g9"><path
           class="noFillSVG"
           d="m 421.8,779.8 c -3.2,-3.8 -7.6,-8.6 -12,-13.4 -8.9,-9.6 -18.2,-18.8 -17.1,-20.3 1.1,-1.4 12.5,5.3 23.3,13.3 3.5,2.7 7,5.5 10.1,8.1 -4.9,-6.7 -9.9,-13.3 -15.1,-19.1 -6.2,-7 -12.5,-13 -18.4,-17.5 -5.9,-4.6 -11.3,-7.6 -15.3,-9.8 -4.1,-2.1 -6.7,-3.3 -7.1,-3.5 -0.4,-0.2 -2.9,-1.5 -7.2,-3.5 -4.3,-2.1 -10.3,-4.8 -17.5,-8.3 -7.2,-3.5 -15.5,-7.8 -23.9,-13.3 -8.4,-5.5 -16.9,-12.2 -24,-20.4 -3.5,-4.1 -6.7,-8.4 -9.3,-13.2 -2.6,-4.7 -4.5,-9.6 -5.9,-14.5 -2.7,-9.7 -2.9,-19.4 -1.4,-27.2 0.5,-2.6 1.2,-5 2,-7.2 -2.6,3.2 -5.4,7.6 -7.7,13.1 -3,7.2 -5.2,16.2 -6.2,26.1 -1,9.8 -0.8,20.4 2.1,30.1 1.4,4.8 3.5,9.4 6.2,13.4 2.7,4 6.1,7.5 9.7,10.6 7.3,6.1 15.6,10.4 23,14 14.9,7.1 25.6,11.8 26.5,12.2 0.9,0.5 11.3,5.5 26.3,13.3 15,7.8 34.5,18.7 52.3,32.3 2.7,2.1 5.4,4.3 8.1,6.5 -0.6,-0.7 -1,-1.2 -1.5,-1.8 z"
           id="path11"
           inkscape:connector-curvature="0"
           style="fill:none" /><path
           class="noFillSVG"
           d="m 444.3,186.4 c -4.3,-3.1 -8.9,-5 -12.8,-5.8 -0.5,-0.1 -1,-0.2 -1.4,-0.3 -0.5,-0.1 -0.9,-0.1 -1.4,-0.2 -0.9,-0.2 -1.8,-0.2 -2.6,-0.2 -0.9,0 -1.4,0 -2,0.1 -0.6,0.1 -1.1,0.2 -1.6,0.3 -1.9,0.5 -2.8,1.1 -2.9,1.2 -0.1,0 -0.4,0.2 -0.7,0.4 -0.4,0.2 -0.8,0.5 -1,0.8 -0.2,0.3 -0.3,0.2 -0.3,0.6 0,0.2 0,0.3 0.1,0.6 0.1,0.3 0.4,0.8 0.9,1.3 1,1.1 2.8,2.3 4.9,3.5 2.4,1.3 5,2.7 7.6,4.1 5.3,2.9 11,6.2 16.4,10 5.4,3.8 10.5,8.2 14.6,13 2.3,2.7 4.2,5.4 5.9,8.2 -2.5,-8.1 -6.1,-17.7 -11.7,-25.6 -3.5,-4.7 -7.7,-8.9 -12,-12 z"
           id="path13"
           inkscape:connector-curvature="0"
           style="fill:none" /><path
           class="noFillSVG"
           d="m 512.6,202.8 c 5.4,-3.8 11.1,-7.1 16.4,-10 2.6,-1.4 5.2,-2.8 7.6,-4.1 2.2,-1.2 3.9,-2.4 4.9,-3.5 0.5,-0.5 0.8,-1 0.9,-1.3 0.1,-0.3 0.1,-0.5 0.1,-0.6 0,-0.4 -0.1,-0.4 -0.3,-0.6 -0.2,-0.2 -0.6,-0.6 -1,-0.8 -0.3,-0.2 -0.6,-0.3 -0.7,-0.4 -0.1,-0.1 -1,-0.7 -2.9,-1.2 -0.5,-0.1 -1,-0.2 -1.6,-0.3 -0.6,-0.1 -1.1,-0.1 -2,-0.1 -0.8,0 -1.7,0 -2.6,0.2 -0.5,0.1 -0.9,0.1 -1.4,0.2 -0.5,0.1 -1,0.2 -1.4,0.3 -3.9,0.8 -8.5,2.8 -12.8,5.8 -4.4,3 -8.5,7.2 -11.9,12 -5.7,7.9 -9.2,17.5 -11.7,25.6 1.6,-2.7 3.6,-5.5 5.9,-8.2 4,-4.8 9.1,-9.1 14.5,-13 z"
           id="path15"
           inkscape:connector-curvature="0"
           style="fill:none" /><path
           class="noFillSVG"
           d="m 536.7,766.5 c 3.9,-3.3 9,-7.4 14.2,-11.3 10.4,-7.8 21,-15.2 22.2,-13.9 1.2,1.3 -7.2,11.2 -15.9,20.8 -3.9,4.2 -7.7,8.4 -10.9,11.8 17.4,-13.1 36.3,-23.7 50.9,-31.3 15,-7.8 25.4,-12.8 26.3,-13.3 0.9,-0.5 11.5,-5.2 26.5,-12.2 7.3,-3.6 15.6,-7.9 23,-14 3.7,-3 7,-6.6 9.7,-10.6 2.7,-4 4.8,-8.6 6.2,-13.4 2.9,-9.7 3.1,-20.3 2.1,-30.1 -1.1,-9.8 -3.2,-18.9 -6.2,-26.1 -2.3,-5.5 -5.1,-9.9 -7.7,-13.1 0.8,2.2 1.5,4.6 2,7.2 1.5,7.9 1.3,17.5 -1.4,27.2 -1.4,4.9 -3.3,9.8 -5.9,14.5 -2.6,4.7 -5.8,9.1 -9.3,13.2 -7.1,8.2 -15.6,15 -24,20.4 -8.4,5.5 -16.7,9.8 -23.9,13.3 -7.2,3.5 -13.2,6.2 -17.5,8.3 -4.3,2 -6.8,3.4 -7.2,3.5 -0.4,0.2 -3,1.4 -7.1,3.5 -4.1,2.2 -9.5,5.2 -15.3,9.8 -5.9,4.5 -12.2,10.5 -18.4,17.5 -6.1,6.9 -12,14.7 -17.7,22.7 1.1,-0.8 2.9,-2.4 5.3,-4.4 z"
           id="path17"
           inkscape:connector-curvature="0"
           style="fill:none" /><path
           class="noFillSVG"
           d="m 337.8,301.7 c 4.1,2.3 8.6,4 13.2,4.9 1.1,0.2 2.3,0.5 3.4,0.6 1.1,0.2 2.3,0.3 3.4,0.3 2.2,0.1 4.5,0 6.6,-0.4 4.3,-0.6 8.3,-2.1 11.4,-4.3 1.5,-1.1 2.8,-2.4 3.9,-3.9 1.1,-1.4 1.7,-2.8 2.1,-4.4 0.8,-3.1 0.4,-6.4 -0.5,-9 -0.9,-2.7 -2.4,-4.7 -3.9,-6 -0.4,-0.4 -0.8,-0.7 -1.3,-1 0.1,0.3 0.1,0.5 0.2,0.8 0.3,2.2 -0.1,5.6 -2.3,9 -1.1,1.7 -2.5,3.4 -4.4,4.8 -1.9,1.4 -4.2,2.5 -6.6,3.2 -4.9,1.4 -10.4,1.2 -15.5,-0.3 -5.1,-1.4 -9.8,-4.2 -13.6,-7.6 -3.8,-3.4 -6.7,-7.3 -8.6,-11 -1.9,-3.8 -2.9,-7.3 -3.3,-9.8 -0.5,-2.5 -0.5,-4.1 -0.6,-4.3 0,-0.5 -0.2,-6.4 1.9,-13.9 1,-3.8 2.6,-7.9 4.5,-12.1 2,-4.2 4.5,-8.5 7.6,-12.5 1.7,-2.1 3.5,-4.1 5.5,-5.9 -0.4,0.2 -0.8,0.4 -1.1,0.6 -6.3,3.6 -10.7,7.9 -13.5,11.1 -2.8,3.2 -4.1,5.5 -4.4,5.8 -0.2,0.4 -1.8,2.4 -3.6,6.2 -1.8,3.8 -3.7,9.5 -4.1,16.5 -0.4,7 0.7,15.4 4.7,23.1 3.8,7.9 10.6,15 18.9,19.5 z"
           id="path19"
           inkscape:connector-curvature="0"
           style="fill:none" /><path
           class="noFillSVG"
           d="m 503,818.1 c -0.2,0.4 -0.4,0.8 -0.6,1.3 -0.2,0.4 -0.4,0.7 -0.5,1.1 0.3,-0.5 0.7,-1.1 1,-1.6 0.1,-0.1 0.2,-0.2 0.2,-0.4 0,-0.2 0,-0.3 -0.1,-0.4 z"
           id="path21"
           inkscape:connector-curvature="0"
           style="fill:none" /><path
           class="noFillSVG"
           d="m 632.4,237.4 c 2,4.2 3.5,8.3 4.5,12.1 2.1,7.5 1.9,13.4 1.9,13.9 0,0.2 -0.1,1.8 -0.6,4.3 -0.5,2.5 -1.4,6.1 -3.3,9.8 -1.9,3.7 -4.8,7.7 -8.6,11 -3.8,3.3 -8.5,6.1 -13.6,7.6 -5.1,1.5 -10.6,1.7 -15.5,0.3 -2.5,-0.7 -4.7,-1.8 -6.6,-3.2 -1.9,-1.4 -3.4,-3.1 -4.4,-4.8 -2.1,-3.4 -2.6,-6.8 -2.3,-9 0,-0.3 0.1,-0.6 0.2,-0.8 -0.4,0.3 -0.8,0.6 -1.3,1 -1.5,1.3 -3,3.3 -3.9,6 -0.9,2.6 -1.3,5.9 -0.5,9 0.4,1.6 1,3 2.1,4.4 1.1,1.4 2.4,2.7 3.9,3.9 3.1,2.2 7.1,3.7 11.4,4.3 2.1,0.3 4.4,0.4 6.6,0.4 1.1,-0.1 2.2,-0.2 3.4,-0.3 1.1,-0.1 2.3,-0.3 3.4,-0.6 4.6,-0.9 9,-2.6 13.2,-4.9 8.3,-4.5 15.1,-11.6 19,-19.3 4,-7.7 5.1,-16.1 4.7,-23.1 -0.4,-7 -2.3,-12.7 -4.1,-16.5 -1.8,-3.8 -3.3,-5.9 -3.6,-6.2 -0.2,-0.3 -1.6,-2.6 -4.4,-5.8 -2.8,-3.2 -7.2,-7.4 -13.5,-11.1 -0.4,-0.2 -0.7,-0.4 -1.1,-0.6 2,1.8 3.8,3.8 5.5,5.9 3,3.7 5.5,8.1 7.5,12.3 z"
           id="path23"
           inkscape:connector-curvature="0"
           style="fill:none" /><path
           class="noFillSVG"
           d="m 196.7,781.5 c -0.5,0.7 -1.4,1.8 -3,3 -2.5,2 -6.8,4.2 -12.5,5 -5.6,0.8 -12.5,0.2 -19.2,-3.1 -6.6,-3.2 -12.5,-8.7 -16.6,-15.3 -4.1,-6.6 -6.7,-14.2 -7.5,-21.5 -0.9,-7.3 -0.5,-14.1 0.4,-19.8 0.9,-5.7 2.2,-10.4 3.2,-13.8 1,-3.3 1.8,-5.4 2,-5.7 0.1,-0.3 1,-2.3 2.6,-5.5 1.6,-3.1 4,-7.5 7.6,-12.2 3.5,-4.7 8.5,-9.7 14.4,-13.8 3.3,-2.3 6.8,-4.3 10.4,-6.1 -3.4,1.6 -6.8,3.4 -10,5.4 -8.4,5.3 -15.9,11.9 -21.9,19.1 -6,7.2 -10.5,14.7 -13.7,21.5 -6.4,13.7 -7.8,24.1 -8,25 0,0.2 -0.2,1 -0.5,2.3 -0.3,1.3 -0.5,3.1 -0.8,5.4 -0.5,4.5 -1.1,10.9 -0.5,18.3 0.6,7.3 2.4,15.7 7.1,22.9 4.7,7.3 12.4,13.5 21.1,17.4 8.7,3.9 18.7,5.2 27.2,3.2 2.1,-0.5 4.1,-1.2 6,-2.1 1.8,-1 3.7,-2 5.1,-3.2 3,-2.4 5.1,-5.7 6.5,-8.9 1.4,-3.2 2,-6.5 2.1,-9.4 0.1,-2.9 -0.5,-5.4 -1.1,-7.4 -0.2,-0.2 -0.3,-0.4 -0.4,-0.7 z"
           id="path25"
           inkscape:connector-curvature="0"
           style="fill:none" /><path
           class="noFillSVG"
           d="m 835.7,746.2 c -0.3,-1.3 -0.4,-2.1 -0.5,-2.3 -0.2,-0.8 -1.6,-11.3 -8,-25 -3.2,-6.8 -7.8,-14.4 -13.7,-21.5 -6,-7.2 -13.5,-13.7 -21.9,-19.1 -3.2,-2 -6.6,-3.8 -10,-5.4 3.6,1.8 7.1,3.9 10.4,6.1 5.9,4.1 10.9,9.1 14.4,13.8 3.6,4.7 6,9 7.6,12.2 1.6,3.2 2.4,5.2 2.6,5.5 0.1,0.3 0.9,2.3 2,5.7 1,3.3 2.3,8 3.2,13.8 0.9,5.7 1.4,12.5 0.4,19.8 -0.8,7.2 -3.4,14.9 -7.5,21.5 -4.1,6.6 -10,12.1 -16.6,15.3 -6.7,3.2 -13.6,3.8 -19.2,3.1 -5.7,-0.8 -9.9,-3 -12.5,-5 -1.6,-1.2 -2.5,-2.3 -3,-3 -0.1,0.2 -0.2,0.5 -0.3,0.7 -0.7,2 -1.2,4.5 -1.1,7.4 0,2.9 0.7,6.2 2.1,9.4 1.4,3.2 3.5,6.5 6.5,8.9 1.4,1.3 3.3,2.3 5.1,3.2 1.9,0.9 3.9,1.6 6,2.1 8.5,2 18.5,0.7 27.2,-3.2 8.8,-3.9 16.4,-10.1 21.1,-17.4 4.7,-7.2 6.5,-15.5 7.1,-22.9 0.6,-7.4 0,-13.8 -0.5,-18.3 -0.4,-2.3 -0.6,-4.1 -0.9,-5.4 z"
           id="path27"
           inkscape:connector-curvature="0"
           style="fill:none" /><path
           d="m 271.7,534.4 c -2.6,6.6 -5.6,13.3 -8.2,19.7 -2.7,6.4 -5,12.8 -6.7,18.7 -1.7,5.9 -2.7,11.4 -3.1,16 -0.8,9.3 0.8,15 1.4,14.9 0.8,-0.1 0.6,-5.7 2.6,-14.3 1,-4.3 2.5,-9.3 4.7,-14.8 2.2,-5.4 4.9,-11.3 8,-17.4 3.1,-6.1 6.5,-12.5 9.7,-19.3 3.2,-6.8 6,-13.9 8,-21.1 2.1,-7.2 3.2,-14.7 3,-21.9 -0.1,-7.1 -1.6,-13.9 -3.9,-19.4 l -7.7,-18.3 -4.1,19.9 c -1.1,5.4 -2.5,9.8 -3.9,12.9 -0.7,1.5 -1.2,2.8 -1.6,3.7 -0.5,0.9 -0.8,1.4 -0.8,1.6 -0.3,0.7 -4.2,9.1 -12.6,20.6 -4.1,5.8 -9.3,12.4 -14.6,19.7 -5.3,7.4 -10.8,15.6 -14.8,24.7 -2,4.6 -3.7,9.3 -4.9,14.1 -1.1,4.8 -1.8,9.5 -2,14.2 -0.2,4.6 0,9.1 0.4,13.3 0.6,4.2 1.2,8.1 2.3,11.6 1.9,7 4.5,12.5 6.7,16.1 1,1.8 2,3.1 2.8,4 0.7,0.9 1.2,1.3 1.4,1.2 0.2,-0.1 0.1,-0.7 -0.2,-1.8 -0.3,-1.1 -0.9,-2.5 -1.5,-4.5 -1.3,-3.8 -3,-9.3 -4.1,-16.1 -0.6,-3.4 -0.8,-7 -1,-10.9 0,-3.9 0.1,-8 0.7,-12.1 0.6,-4.2 1.5,-8.4 2.8,-12.6 1.3,-4.2 3.1,-8.2 5.2,-12.2 4.1,-8 9.6,-15.3 15.2,-22.2 5.5,-6.8 11,-13.2 15.6,-19 4.6,-5.8 8.3,-11 10.7,-15.1 1.1,-1.7 2,-3.2 2.6,-4.3 -0.3,3.4 -0.8,6.9 -1.6,10.5 -1.7,6.5 -3.9,13.3 -6.5,19.9 z"
           id="path29"
           inkscape:connector-curvature="0" /><path
           d="m 161.7,529.5 c 0,1.1 0,2.2 0,3.3 0.1,1.1 0.1,2.2 0.2,3.4 0.2,2.2 0.3,4.5 0.5,6.8 0.3,2.3 0.6,4.5 0.9,6.8 2.6,18.1 9.7,35 16.7,46.3 0.4,0.7 0.8,1.4 1.2,2.1 0.4,0.7 0.9,1.3 1.3,1.9 0.9,1.2 1.7,2.4 2.5,3.5 0.8,1.1 1.5,2.1 2.3,3 0.8,0.9 1.5,1.7 2.2,2.4 2.6,2.9 4.3,4.3 4.6,4 0.4,-0.3 -0.6,-2.3 -2.5,-5.6 -0.5,-0.8 -1,-1.7 -1.6,-2.7 -0.6,-1 -1.1,-2.1 -1.7,-3.3 -0.6,-1.2 -1.2,-2.4 -1.9,-3.7 -0.3,-0.6 -0.7,-1.3 -1,-2 -0.3,-0.7 -0.6,-1.4 -0.9,-2.2 -5.4,-11.6 -10.7,-28 -11.9,-45 -0.1,-2.1 -0.3,-4.2 -0.4,-6.3 0,-2.1 0,-4.2 0,-6.3 0,-1 0,-2.1 0,-3.1 0.1,-1 0.1,-2.1 0.2,-3.1 0.1,-2 0.3,-4.1 0.4,-6.1 0.5,-4.4 1.2,-8.6 2,-12.5 0,4.5 0.2,9.1 0.7,13.8 0.8,7.7 2.7,15.2 4.7,22.1 2.1,7 4.4,13.4 6.4,19.4 2.1,5.9 4,11.3 5.6,15.9 3.3,9.1 5.8,14.7 6.5,14.5 0.7,-0.2 -0.3,-6.2 -2.3,-15.7 -1,-4.7 -2.3,-10.3 -3.8,-16.4 -1.4,-6.1 -3.2,-12.8 -4.6,-19.6 -1.5,-6.8 -2.7,-13.9 -3,-20.9 -0.3,-7 0.1,-14 0.8,-20.8 0.7,-6.7 1.7,-13.2 2.5,-19 0.8,-5.8 1.6,-11 2.2,-15.2 l 4.6,-32.6 -16.4,28.6 c -3.5,6.1 -5.7,10 -5.8,10.6 -0.2,0.4 -1.2,2.9 -2.9,6.9 -1.4,4.1 -3.5,9.7 -4.9,16.7 -1.7,6.9 -2.7,15 -3.3,23.6 0,2.1 -0.1,4.3 -0.1,6.5 z"
           id="path31"
           inkscape:connector-curvature="0" /><path
           d="m 217.4,519.6 c 0.6,1.3 1,2 1.2,1.9 1.1,-0.3 -3,-12.2 -1.1,-30.4 0.8,-9.1 3,-19.5 6,-30.7 3,-11.2 6.8,-23 9.9,-35.3 0.8,-3 1.5,-6.3 2.1,-9.5 0.5,-3.2 1.1,-6.4 1.4,-9.5 0.8,-6.3 1.3,-12.5 1.6,-18.4 0.7,-12 0.8,-23.2 0.7,-32.9 0,-1 0,-2 0,-3 1,2.4 2,4.9 3,7.5 3.6,9.2 7.4,19.3 10.8,30 3.3,10.6 6.4,21.8 7.7,32.6 0.7,5.4 0.7,10.8 0.2,16.1 -0.6,5.3 -1.5,10.4 -2.9,15.3 -2.7,9.8 -6.4,18.5 -9.8,25.8 -3.4,7.3 -6.5,13.3 -8.6,17.5 -2.1,4.2 -3.1,6.7 -2.7,6.9 0.4,0.2 2.1,-1.8 4.8,-5.7 2.7,-3.8 6.5,-9.4 10.7,-16.6 4.1,-7.1 8.7,-15.8 12.2,-26 1.8,-5.1 3.2,-10.6 4.1,-16.3 0.9,-5.7 1.3,-11.8 0.8,-17.8 -0.8,-12 -3.5,-23.7 -6.5,-34.8 -3,-11.1 -6.5,-21.6 -9.8,-31.1 -6.8,-19 -13,-33.8 -16,-40.5 l -14.8,-33.5 2.4,36.8 c 0.1,2.3 0.2,3.7 0.3,4 0.1,1.1 1.3,14.2 2.2,33.2 0.4,9.5 0.7,20.5 0.5,32.1 -0.3,11.6 -0.7,23.9 -3.3,35.7 -2.5,12.1 -5.7,24.2 -8,35.7 -2.3,11.6 -3.9,22.6 -3.9,32.1 0,9.5 1.2,17.5 2.9,22.7 0.4,2.8 1.4,4.8 1.9,6.1 z"
           id="path33"
           inkscape:connector-curvature="0" /><path
           d="m 333.6,310 c 5.1,2.4 10.5,4.1 16,4.9 1.4,0.2 2.7,0.4 4.1,0.4 1.4,0.1 2.7,0.1 4.1,0.1 2.7,-0.1 5.4,-0.4 8,-1 5.2,-1.2 10.1,-3.4 13.9,-6.7 1.9,-1.7 3.5,-3.6 4.7,-5.6 0.3,-0.5 0.6,-1 0.9,-1.6 0.2,-0.6 0.5,-1.1 0.7,-1.7 0.3,-1.1 0.7,-2.3 0.8,-3.4 0.6,-4.5 -0.5,-8.4 -2,-11.5 -1.5,-3.1 -3.8,-5.3 -6,-6.6 -2.2,-1.3 -4.2,-1.5 -5.5,-1.5 -1.3,0.1 -1.9,0.3 -1.9,0.6 0,0.2 0.7,0.5 1.7,0.8 0.2,0.1 0.5,0.2 0.8,0.3 -0.1,0.5 -0.3,1 -0.5,1.7 -0.5,1.7 -1.6,4 -3.7,6.1 -2.1,2.1 -5,3.5 -8.5,3.9 -3.5,0.4 -7.4,-0.3 -10.9,-1.9 -3.6,-1.5 -6.7,-4 -9.1,-6.6 -2.4,-2.7 -4.1,-5.6 -5.2,-8.3 -2,-5.3 -1.7,-9.3 -1.8,-9.7 0,-0.3 -0.5,-4.3 0.5,-10.5 1.1,-6.2 3.7,-14.7 7.9,-21.9 2.1,-3.6 4.7,-6.9 7.5,-9.6 2.8,-2.7 5.9,-4.8 8.7,-6.2 4.6,-2.4 8.5,-3.2 9.8,-3.9 2.6,-0.2 5.2,-0.4 7.9,-0.3 4.8,0.1 9.7,0.5 14.6,1.4 9.7,1.7 19.1,5.2 27.4,9.5 8.4,4.2 15.7,9.3 21.7,13.9 12,9.3 19,16.9 19.8,16.2 0.6,-0.5 -5.1,-9.2 -16.5,-20.1 -5.7,-5.4 -12.9,-11.3 -21.4,-16.4 -8.5,-5.2 -18.5,-9.7 -29.1,-12.2 -5.3,-1.3 -10.7,-2.1 -16.1,-2.5 -5.4,-0.3 -10.8,-0.2 -16,0.4 -5.2,0.6 -10.2,1.7 -14.9,3.2 -2.3,0.7 -4.5,1.6 -6.7,2.5 -2.1,1 -4.2,1.9 -6.1,3 -7.7,4.1 -13.4,9 -17.1,13 -3.7,4 -5.5,6.8 -5.8,7.3 -0.3,0.4 -2.2,3.3 -4.4,8.3 -2.1,5 -4.3,12.4 -4.4,21.3 -0.1,8.8 1.8,19.2 7.2,28.8 5.9,9.2 14.6,17.3 24.9,22.1 z m -19.5,-50.7 c 0.4,-7 2.3,-12.7 4.1,-16.5 1.8,-3.8 3.3,-5.9 3.6,-6.2 0.2,-0.3 1.6,-2.6 4.4,-5.8 2.8,-3.2 7.2,-7.4 13.5,-11.1 0.4,-0.2 0.7,-0.4 1.1,-0.6 -2,1.8 -3.8,3.8 -5.5,5.9 -3.1,3.9 -5.6,8.3 -7.6,12.5 -2,4.2 -3.5,8.3 -4.5,12.1 -2.1,7.5 -1.9,13.4 -1.9,13.9 0,0.2 0.1,1.8 0.6,4.3 0.5,2.5 1.4,6.1 3.3,9.8 1.9,3.7 4.8,7.7 8.6,11 3.8,3.3 8.5,6.1 13.6,7.6 5.1,1.5 10.6,1.7 15.5,0.3 2.5,-0.7 4.7,-1.8 6.6,-3.2 1.9,-1.4 3.4,-3.1 4.4,-4.8 2.1,-3.4 2.6,-6.8 2.3,-9 0,-0.3 -0.1,-0.6 -0.2,-0.8 0.4,0.3 0.8,0.6 1.3,1 1.5,1.3 3,3.3 3.9,6 0.9,2.6 1.3,5.9 0.5,9 -0.4,1.6 -1,3 -2.1,4.4 -1.1,1.4 -2.4,2.7 -3.9,3.9 -3.1,2.2 -7.1,3.7 -11.4,4.3 -2.1,0.3 -4.4,0.4 -6.6,0.4 -1.1,-0.1 -2.2,-0.2 -3.4,-0.3 -1.1,-0.1 -2.3,-0.3 -3.4,-0.6 -4.6,-0.9 -9,-2.6 -13.2,-4.9 -8.3,-4.5 -15.1,-11.6 -19,-19.3 -3.9,-7.9 -5,-16.3 -4.6,-23.3 z"
           id="path35"
           inkscape:connector-curvature="0" /><path
           d="m 464,193.4 c -3.4,-5.9 -7.9,-11.3 -13.1,-15.6 -5.1,-4.3 -10.9,-7.4 -16.4,-8.9 -0.7,-0.2 -1.4,-0.4 -2,-0.6 -0.7,-0.1 -1.3,-0.3 -2,-0.4 -1.3,-0.3 -2.5,-0.4 -3.7,-0.5 -1.1,-0.1 -2.5,-0.2 -3.7,-0.1 -1.2,0 -2.3,0.2 -3.2,0.4 -3.9,0.7 -6.2,2 -6.6,2.2 -0.2,0.1 -0.9,0.4 -1.9,1.2 -1.1,0.8 -2.6,1.9 -4.1,4.1 -0.8,1.1 -1.4,2.5 -1.9,4.1 -0.4,1.6 -0.6,3.4 -0.4,5.2 0.2,1.8 0.8,3.8 1.8,5.4 0.9,1.6 2.2,3 3.4,4.2 2.6,2.3 5.3,3.8 8.1,5.1 2.5,1.1 5.2,2.3 7.9,3.6 5.4,2.4 11,5.1 16.3,8.1 5.3,3 10.2,6.5 14.3,10.2 4.1,3.8 7.4,7.9 9.8,11.7 4.8,7.6 5.6,13.9 6.6,13.8 0.4,0 0.7,-1.3 0.7,-3.5 0.3,0.5 0.5,0.8 0.7,0.8 0.9,-0.1 0.9,-6.5 -0.2,-16 -1.2,-9.5 -3.5,-22.6 -10.4,-34.5 z m -2,22.4 c -4.1,-4.8 -9.2,-9.2 -14.6,-13 -5.4,-3.8 -11.1,-7.1 -16.4,-10 -2.6,-1.4 -5.2,-2.8 -7.6,-4.1 -2.2,-1.2 -3.9,-2.4 -4.9,-3.5 -0.5,-0.5 -0.8,-1 -0.9,-1.3 -0.1,-0.3 -0.1,-0.5 -0.1,-0.6 0,-0.4 0.1,-0.4 0.3,-0.6 0.2,-0.2 0.6,-0.6 1,-0.8 0.3,-0.2 0.6,-0.3 0.7,-0.4 0.1,-0.1 1,-0.7 2.9,-1.2 0.5,-0.1 1,-0.2 1.6,-0.3 0.6,-0.1 1.1,-0.1 2,-0.1 0.8,0 1.7,0 2.6,0.2 0.5,0.1 0.9,0.1 1.4,0.2 0.5,0.1 1,0.2 1.4,0.3 3.9,0.8 8.5,2.8 12.8,5.8 4.4,3 8.5,7.2 11.9,12 5.7,7.9 9.2,17.5 11.7,25.6 -1.5,-2.7 -3.5,-5.5 -5.8,-8.2 z"
           id="path37"
           inkscape:connector-curvature="0" /><path
           d="m 476.8,189.7 c 3.6,-0.3 5.1,-17.6 5.1,-18 0,-0.4 -4.4,-17.2 -8.1,-16.9 -3.6,0.3 -5.1,17.6 -5.1,18 0.1,0.4 4.5,17.2 8.1,16.9 z"
           id="path39"
           inkscape:connector-curvature="0" /><path
           d="m 451.8,793.2 c -4.3,-8.7 -9.3,-17.7 -14.8,-26.5 -5.5,-8.8 -11.3,-17.5 -17.6,-25.3 -6.2,-7.8 -12.8,-14.6 -19.2,-20 -6.3,-5.4 -12.4,-9.1 -16.7,-11.6 -4.3,-2.5 -7.1,-3.8 -7.5,-4.1 -0.4,-0.2 -3.2,-1.5 -7.7,-3.5 -4.4,-1.9 -10.5,-4.5 -17.7,-7.5 -7.1,-3.1 -15.1,-6.8 -23.2,-11.6 -8.1,-4.7 -16.1,-10.5 -22.9,-17.4 -3.4,-3.5 -6.5,-7.2 -9,-11.2 -2.5,-4 -4.5,-8.2 -6.1,-12.4 -3.1,-8.5 -4,-17.1 -3.4,-24.3 0.5,-6 2.1,-11 3.6,-14.7 0.6,-0.6 0.9,-1 0.8,-1.1 0,-0.1 -0.1,-0.1 -0.3,-0.1 0.2,-0.3 0.3,-0.7 0.5,-1 0.5,-1 0.9,-1.9 1.3,-2.6 0.4,-0.7 0.8,-1.4 1.1,-1.9 0.5,-1.1 0.8,-1.7 0.6,-1.9 -0.2,-0.2 -0.7,0.2 -1.7,1 -0.5,0.4 -1,0.9 -1.6,1.6 -0.6,0.6 -1.2,1.5 -1.9,2.4 -0.9,1.2 -1.9,2.7 -2.8,4.4 -0.6,0.4 -1.3,0.8 -2,1.3 -4,2.8 -9,8.1 -13,15.6 -4,7.5 -7.1,16.9 -8.9,27.2 -1.8,10.3 -2.4,22 0.4,33.5 1.4,5.7 3.5,11.4 6.7,16.5 3.1,5.1 7,9.5 11.1,13.3 8.3,7.5 17.1,12.6 24.7,16.6 15.1,7.9 25.4,12.8 26.3,13.3 0.9,0.5 11.5,5.2 26.5,12.3 15,7.1 34.5,16.9 52.2,29 8.8,6.1 17.3,12.6 24.7,19.4 7.4,6.8 13.7,13.6 18.7,19.9 10.1,12.5 14.9,22.2 15.8,21.8 0.2,-0.1 0,-1.2 -0.6,-3.2 0.6,1 1,1.6 1.3,1.5 0.8,-0.3 -1.6,-10.2 -7.1,-24.6 -2.8,-7.2 -6.4,-15.5 -10.6,-24.1 z m -89,-50.5 c -15,-7.8 -25.4,-12.8 -26.3,-13.3 -0.9,-0.5 -11.5,-5.2 -26.5,-12.2 -7.3,-3.6 -15.6,-7.9 -23,-14 -3.7,-3 -7,-6.6 -9.7,-10.6 -2.7,-4 -4.8,-8.6 -6.2,-13.4 -2.9,-9.7 -3.1,-20.3 -2.1,-30.1 1.1,-9.8 3.2,-18.9 6.2,-26.1 2.3,-5.5 5.1,-9.9 7.7,-13.1 -0.8,2.2 -1.5,4.6 -2,7.2 -1.5,7.9 -1.3,17.5 1.4,27.2 1.4,4.9 3.3,9.8 5.9,14.5 2.6,4.7 5.8,9.1 9.3,13.2 7.1,8.2 15.6,15 24,20.4 8.4,5.5 16.7,9.8 23.9,13.3 7.2,3.5 13.2,6.2 17.5,8.3 4.3,2 6.8,3.4 7.2,3.5 0.4,0.2 3,1.4 7.1,3.5 4.1,2.2 9.5,5.2 15.3,9.8 5.9,4.5 12.2,10.5 18.4,17.5 5.1,5.8 10.2,12.3 15.1,19.1 -3.1,-2.6 -6.6,-5.4 -10.1,-8.1 -10.8,-8.1 -22.2,-14.7 -23.3,-13.3 -1.1,1.5 8.2,10.7 17.1,20.3 4.4,4.8 8.8,9.6 12,13.4 0.5,0.6 0.9,1.1 1.4,1.6 -2.6,-2.2 -5.3,-4.4 -8.1,-6.5 -17.7,-13.4 -37.2,-24.3 -52.2,-32.1 z"
           id="path41"
           inkscape:connector-curvature="0" /><path
           d="m 199.4,781.1 c -2.5,-4.2 -5.1,-5.4 -5.3,-5.2 -0.3,0.3 1,1.8 2.2,4.6 -0.7,0.2 -2,0.9 -3.9,1.6 -2.7,1.1 -6.7,2.2 -11.5,2.1 -4.8,-0.1 -10.4,-1.3 -15.3,-4.4 -5,-3.1 -9.2,-7.9 -12.1,-13.5 -2.9,-5.6 -4.4,-11.8 -4.7,-17.8 -0.3,-6 0.4,-11.7 1.5,-16.6 1.1,-4.9 2.4,-8.9 3.5,-11.8 1.1,-2.9 1.8,-4.6 2,-4.9 0.3,-0.5 2.4,-7.3 7.8,-15.5 2.7,-4.1 6.4,-8.3 11.1,-12.2 4.7,-3.9 10.5,-7.4 16.6,-10.6 3,-1.6 6.1,-3.2 9.2,-4.7 3.1,-1.5 6,-3 9,-4.3 5.7,-2.6 11.1,-4.4 15.9,-5.3 12.5,0.2 20.6,2.3 20.8,1.4 0.1,-0.3 -1.4,-1.1 -4.2,-2.2 -0.1,-0.1 -0.3,-0.3 -0.5,-0.4 -0.3,-0.3 -0.8,-0.6 -1.3,-0.9 -0.5,-0.3 -1.2,-0.6 -1.9,-0.9 -2.9,-1.3 -7.6,-2.4 -13.1,-2.1 -1,0 -2,0.1 -3,0.2 -0.5,0 -0.9,-0.1 -1.4,-0.1 -7.9,-0.6 -17.4,-0.2 -27.3,1.7 -9.9,1.9 -20.2,5.6 -29.8,10.8 -9.5,5.3 -18.3,12.2 -25.4,19.9 -7.1,7.6 -12.5,15.8 -16.4,23.3 -7.8,15.1 -9.8,26.9 -10,27.9 -0.1,1 -2.8,12.6 -1,29.7 0.5,4.3 1.4,8.9 3,13.7 1.6,4.8 3.9,9.7 7.2,14.2 6.5,9 16.1,15.9 26.7,19.8 10.6,4 22.3,4.9 32.7,1.7 2.6,-0.8 5,-1.9 7.3,-3.2 2.2,-1.4 4.3,-2.8 6.1,-4.6 3.7,-3.5 5.8,-7.8 7.1,-11.8 1.3,-4.1 1.5,-8 1.1,-11.4 -0.5,-3.2 -1.6,-6.1 -2.7,-8.2 z m -3.4,18 c -1.4,3.2 -3.5,6.5 -6.5,8.9 -1.4,1.3 -3.3,2.3 -5.1,3.2 -1.9,0.9 -3.9,1.6 -6,2.1 -8.5,2 -18.5,0.7 -27.2,-3.2 -8.8,-3.9 -16.4,-10.1 -21.1,-17.4 -4.7,-7.2 -6.5,-15.5 -7.1,-22.9 -0.6,-7.4 0,-13.8 0.5,-18.3 0.4,-2.3 0.6,-4.1 0.8,-5.4 0.3,-1.3 0.4,-2.1 0.5,-2.3 0.2,-0.8 1.6,-11.3 8,-25 3.2,-6.8 7.8,-14.4 13.7,-21.5 6,-7.2 13.5,-13.7 21.9,-19.1 3.2,-2 6.6,-3.8 10,-5.4 -3.6,1.8 -7.1,3.9 -10.4,6.1 -5.9,4.1 -10.9,9.1 -14.4,13.8 -3.6,4.7 -6,9 -7.6,12.2 -1.6,3.2 -2.4,5.2 -2.6,5.5 -0.1,0.3 -0.9,2.3 -2,5.7 -1,3.3 -2.3,8 -3.2,13.8 -0.9,5.7 -1.4,12.5 -0.4,19.8 0.8,7.2 3.4,14.9 7.5,21.5 4.1,6.6 10,12.1 16.6,15.3 6.7,3.2 13.6,3.8 19.2,3.1 5.7,-0.8 9.9,-3 12.5,-5 1.6,-1.2 2.5,-2.3 3,-3 0.1,0.2 0.2,0.5 0.3,0.7 0.7,2 1.2,4.5 1.1,7.4 0,2.9 -0.6,6.1 -2,9.4 z"
           id="path43"
           inkscape:connector-curvature="0" /><path
           d="m 432.5,816.3 c -2.2,-3 -6.1,-6.8 -11.6,-10.2 -5.5,-3.4 -12.5,-6.3 -20.2,-8.3 -7.8,-2 -16.2,-3.2 -24.7,-3.7 -8.4,-0.5 -16.7,-0.6 -24.4,-0.9 -7.7,-0.3 -14.7,-0.9 -20.6,-2 -11.8,-2 -18.8,-5.7 -19.4,-5.9 0,0 -0.1,0 -0.2,-0.1 l -19.5,-7.8 11.2,17.3 c 0.6,0.9 2.6,4.1 6.7,7.2 4,3.1 9.7,5.7 15.7,8 6,2.3 13,5.1 20.8,7.3 3.9,1.1 8.1,2 12.3,2.6 4.3,0.6 8.6,0.8 12.8,0.8 8.4,0 16.4,-0.6 23.8,-0.6 7.3,0 14,0.9 19.5,2.5 2.7,0.8 5.2,1.8 7.3,2.8 2.1,1 3.8,2.1 5.2,3 2.8,1.9 4.3,3.2 4.7,2.9 0.3,-0.2 -0.5,-2.2 -3,-4.9 -1.2,-1.4 -2.9,-2.8 -5,-4.4 -2.1,-1.5 -4.6,-2.9 -7.5,-4.2 -5.8,-2.6 -13.1,-4.3 -20.9,-5 -7.8,-0.8 -15.9,-0.8 -23.8,-1.4 -3.9,-0.3 -7.8,-0.7 -11.5,-1.5 -3.7,-0.8 -7.3,-1.8 -10.8,-3 -2.5,-0.9 -4.8,-1.8 -7.2,-2.8 3,0.1 6.1,0.1 9.2,0 7.9,-0.1 16.2,-0.6 24.3,-0.7 8,-0.1 16,0.4 23.4,1.5 7.3,1.2 13.9,3.2 19.3,5.6 10.8,4.9 15.9,11.5 16.8,10.8 0.2,-0.1 0,-0.7 -0.4,-1.6 -0.5,-0.6 -1.1,-1.9 -2.3,-3.3 z"
           id="path45"
           inkscape:connector-curvature="0" /><path
           d="m 318.8,768 c 10.2,-0.3 16.9,-1.1 16.9,-2 0,-0.9 -6.7,-1.9 -16.7,-3.2 -9.9,-1.3 -23.2,-3.3 -35.2,-8 -6,-2.4 -11.7,-5.4 -16.9,-8.7 -5.2,-3.3 -9.9,-6.7 -13.9,-9.9 -1.4,-1.1 -0.9,-0.8 -1.1,-0.9 0,-0.1 0,-0.1 0,-0.2 0,-0.1 0.1,-0.1 0.1,-0.1 0.1,0 0.3,0 0.3,0 0,0 -0.1,0 -0.2,-0.1 -0.1,0 -0.2,-0.1 -0.4,-0.2 -0.1,-0.1 -0.2,-0.1 -0.3,-0.2 -0.1,-0.1 -0.2,-0.2 0.2,-0.3 0.1,0 0.2,-0.1 0.3,-0.1 l 0.2,-0.1 0.1,0 0.1,0 0,0 0.2,0 c 2.5,0 5.1,0 7.8,0.1 10.5,0 21.4,0.3 30.9,3.2 4.7,1.4 9.1,3.4 12.9,5.6 3.8,2.2 7.1,4.6 9.7,6.7 5.3,4.3 8.1,7.7 8.8,7.3 0.6,-0.4 -1.1,-4.6 -5.8,-10.2 -2.3,-2.8 -5.4,-5.9 -9.3,-8.8 -3.9,-2.9 -8.4,-5.7 -13.6,-7.9 -10.4,-4.4 -22.6,-5.7 -33.1,-6.5 -2.6,-0.2 -5.2,-0.4 -7.7,-0.6 l -1.6,-0.1 -1.7,-0.2 c -1.2,-0.1 -2.3,-0.2 -3.5,-0.3 -2.2,-0.1 -4.8,-0.7 -7.2,-1 -0.6,-0.1 -1.2,-0.2 -1.8,-0.3 -0.6,-0.1 -1.2,-0.2 -2,-0.4 -1.5,-0.4 -3,-0.7 -4.4,-1.1 -3.1,-0.8 -6.1,-1.5 -9,-2.3 -6.3,-1.6 -12.2,-3.1 -17.7,-4.5 1.7,1.5 3.3,2.9 4.7,4.1 1.9,1.6 3.6,3 4.9,4.2 2.8,2.4 4.5,3.8 4.9,4.1 0.5,0.4 3.5,2.8 8.3,6.7 2.4,1.9 5.3,4.2 8.6,6.7 1.6,1.3 3.4,2.6 5.3,4 1.8,1.3 4.2,3.1 4.9,3.6 4.4,3 9.7,6.4 15.6,9.5 5.9,3.1 12.5,6 19.4,8 13.8,4.1 27.8,4.6 38,4.4 z"
           id="path47"
           inkscape:connector-curvature="0" /><path
           d="m 270.1,352.4 c 0.9,-0.3 -0.2,-6.2 -1,-15.3 -0.8,-9.1 -1.2,-21.3 0.4,-33.6 0.7,-6.2 2,-12.3 3.4,-18.2 0.8,-2.9 1.5,-5.7 2.5,-8.4 0.4,-1.3 0.8,-2.7 1.3,-3.9 0.3,-0.9 0.3,-0.6 0.3,-0.7 l 0.1,-0.1 c 0.7,-0.7 0.6,0.3 0.5,0.5 0,0 0,0.1 0,0.1 0,0.1 0.1,-0.9 0.5,-0.5 0,0.1 0.1,0.2 0.2,0.3 l 0,0.1 0,0 0,0.2 0.1,0.5 c 0.1,0.7 0.1,1.4 0.2,2.1 0.3,2.9 0.5,6 0.8,9.2 0.6,6.4 1.2,13.2 2,20 0.9,6.8 2.1,13.7 3.6,20 1.6,6.3 3.5,12.1 5.6,16.8 4.2,9.5 8.8,14.8 9.5,14.3 0.9,-0.5 -2.1,-6.5 -4.7,-16 -1.3,-4.7 -2.4,-10.4 -3.2,-16.5 -0.8,-6.1 -1.3,-12.7 -1.6,-19.4 -0.3,-6.7 -0.3,-13.4 -0.4,-19.8 -0.2,-7 0,-10.3 -1,-22.5 -0.9,-10 -2.2,-17.2 -3.1,-22.7 -0.9,-5.7 -1.5,-9.2 -1.6,-9.8 0,-0.2 -0.2,-0.9 -0.4,-1.9 -1.2,2.4 -3.5,7 -6.5,13.1 -1.4,2.9 -3,6 -4.7,9.7 -0.8,1.9 -1.7,3.9 -2.6,6 -0.9,2.1 -1.8,4.1 -2.6,6.5 -0.4,1.1 -0.9,2.4 -1.2,3.6 -0.3,1.1 -0.7,2.1 -1,3.2 -0.5,1.4 -0.8,2.9 -1.1,4.4 -0.8,3 -1.4,6.1 -2,9.3 -1.1,6.4 -1.9,13.1 -2.1,19.7 -0.6,13.3 1.3,26 3.7,35.2 2.6,9.2 5.3,14.8 6.1,14.5 z"
           id="path49"
           inkscape:connector-curvature="0" /><path
           d="m 737.3,613.4 c 1,-3.5 1.7,-7.4 2.3,-11.6 0.4,-4.2 0.6,-8.6 0.4,-13.3 -0.3,-4.6 -0.9,-9.4 -2,-14.2 -1.1,-4.8 -2.9,-9.5 -4.9,-14.1 -4.1,-9.1 -9.5,-17.4 -14.8,-24.7 -5.3,-7.4 -10.5,-14 -14.6,-19.7 -8.4,-11.5 -12.3,-19.9 -12.6,-20.6 -0.1,-0.2 -0.4,-0.7 -0.8,-1.6 -0.4,-0.9 -0.9,-2.1 -1.6,-3.7 -1.4,-3.1 -2.8,-7.5 -3.9,-12.9 l -4.1,-19.9 -7.7,18.3 c -2.3,5.5 -3.8,12.3 -3.9,19.4 -0.1,7.2 1,14.6 3,21.9 2,7.3 4.9,14.4 8,21.1 3.2,6.8 6.6,13.1 9.7,19.3 3.1,6.1 5.9,12 8,17.4 2.2,5.4 3.7,10.5 4.7,14.8 2,8.6 1.8,14.2 2.6,14.3 0.6,0.1 2.2,-5.6 1.4,-14.9 -0.4,-4.6 -1.4,-10.1 -3.1,-16 -1.7,-5.9 -4,-12.2 -6.7,-18.7 -2.6,-6.4 -5.7,-13.1 -8.2,-19.7 -2.6,-6.6 -4.9,-13.4 -6.3,-20 -0.8,-3.6 -1.3,-7.1 -1.6,-10.5 0.6,1.2 1.5,2.6 2.6,4.3 2.4,4 6.2,9.2 10.7,15.1 4.6,5.8 10.1,12.2 15.6,19 5.5,6.8 11,14.2 15.2,22.2 2,4 3.9,8 5.2,12.2 1.3,4.2 2.2,8.4 2.8,12.6 0.6,4.2 0.7,8.3 0.7,12.1 -0.2,3.9 -0.4,7.6 -1,10.9 -1,6.7 -2.8,12.2 -4.1,16.1 -0.6,1.9 -1.2,3.4 -1.5,4.5 -0.3,1.1 -0.4,1.7 -0.2,1.8 0.2,0.1 0.7,-0.3 1.4,-1.2 0.7,-0.9 1.7,-2.2 2.8,-4 1.9,-3.5 4.5,-8.9 6.5,-16 z"
           id="path51"
           inkscape:connector-curvature="0" /><path
           d="m 761.4,596.8 c 0.7,0.2 3.1,-5.4 6.5,-14.5 1.7,-4.5 3.6,-9.9 5.6,-15.9 2,-6 4.3,-12.4 6.4,-19.4 2.1,-6.9 3.9,-14.4 4.7,-22.1 0.5,-4.6 0.7,-9.2 0.7,-13.7 0.8,3.9 1.4,8.1 2,12.5 0.1,2 0.3,4 0.4,6.1 0.1,1 0.1,2.1 0.2,3.1 0,1 0,2.1 0,3.1 0,2.1 0,4.2 0,6.3 -0.1,2.1 -0.3,4.2 -0.4,6.3 -1.2,17 -6.6,33.4 -11.9,45 -0.3,0.7 -0.6,1.5 -0.9,2.2 -0.4,0.7 -0.7,1.3 -1,2 -0.7,1.3 -1.3,2.5 -1.9,3.7 -0.6,1.2 -1.1,2.3 -1.7,3.3 -0.6,1 -1.1,1.9 -1.6,2.7 -1.9,3.3 -2.8,5.3 -2.5,5.6 0.4,0.3 2,-1.2 4.6,-4 0.7,-0.7 1.4,-1.5 2.2,-2.4 0.8,-0.9 1.5,-1.9 2.3,-3 0.8,-1.1 1.6,-2.3 2.5,-3.5 0.4,-0.6 0.9,-1.3 1.3,-1.9 0.4,-0.7 0.8,-1.4 1.2,-2.1 7,-11.4 14.1,-28.3 16.7,-46.3 0.3,-2.3 0.6,-4.5 0.9,-6.8 0.2,-2.3 0.3,-4.5 0.5,-6.8 0.1,-1.1 0.1,-2.2 0.2,-3.4 0,-1.1 0,-2.2 0,-3.3 0,-2.2 0,-4.4 -0.1,-6.6 -0.5,-8.6 -1.6,-16.7 -3.3,-23.6 -1.5,-6.9 -3.6,-12.6 -4.9,-16.7 -1.7,-4 -2.7,-6.5 -2.9,-6.9 -0.1,-0.6 -2.3,-4.5 -5.8,-10.6 l -16.4,-28.6 4.6,32.6 c 0.6,4.2 1.3,9.4 2.2,15.2 0.8,5.8 1.8,12.3 2.5,19 0.7,6.7 1.1,13.8 0.8,20.8 -0.3,7 -1.5,14 -3,20.9 -1.5,6.8 -3.2,13.5 -4.6,19.6 -1.5,6.1 -2.7,11.7 -3.8,16.4 -2,9.4 -3,15.5 -2.3,15.7 z"
           id="path53"
           inkscape:connector-curvature="0" /><path
           d="m 690.5,421.2 c -0.5,6 -0.2,12.1 0.8,17.8 0.9,5.7 2.3,11.2 4.1,16.3 3.5,10.2 8.1,18.9 12.2,26 4.2,7.1 7.9,12.7 10.7,16.6 2.7,3.8 4.5,5.9 4.8,5.7 0.4,-0.2 -0.7,-2.7 -2.7,-6.9 -2,-4.2 -5.1,-10.2 -8.6,-17.5 -3.4,-7.3 -7.2,-16 -9.8,-25.8 -1.4,-4.9 -2.3,-10 -2.9,-15.3 -0.6,-5.3 -0.6,-10.6 0.2,-16.1 1.3,-10.9 4.4,-22 7.7,-32.6 3.4,-10.6 7.1,-20.8 10.8,-30 1,-2.6 2,-5.1 3,-7.5 0,1 0,2 0,3 -0.1,9.7 0,20.9 0.7,32.9 0.3,6 0.9,12.2 1.6,18.4 0.4,3.1 0.9,6.3 1.4,9.5 0.7,3.2 1.3,6.4 2.1,9.5 3.2,12.3 7,24.1 9.9,35.3 3,11.2 5.2,21.6 6,30.7 1.8,18.2 -2.3,30.1 -1.1,30.4 0.2,0.1 0.6,-0.6 1.2,-1.9 0.6,-1.4 1.5,-3.3 2.2,-6 1.6,-5.3 2.9,-13.2 2.9,-22.7 0,-9.5 -1.6,-20.6 -3.9,-32.1 -2.3,-11.6 -5.5,-23.7 -8,-35.7 -2.6,-11.8 -3.1,-24 -3.3,-35.7 -0.2,-11.6 0.1,-22.6 0.5,-32.1 0.9,-19 2.1,-32.1 2.2,-33.2 0,-0.3 0.1,-1.7 0.3,-4 l 2.4,-36.8 -14.8,33.5 c -3,6.8 -9.3,21.6 -16,40.5 -3.4,9.5 -6.8,20 -9.8,31.1 -3.2,11 -5.9,22.7 -6.8,34.7 z"
           id="path55"
           inkscape:connector-curvature="0" /><path
           d="m 516.1,231.1 c -11.4,10.9 -17.1,19.6 -16.5,20.1 0.8,0.7 7.8,-6.9 19.8,-16.2 6,-4.6 13.3,-9.6 21.7,-13.9 8.3,-4.3 17.7,-7.8 27.4,-9.5 4.8,-0.9 9.8,-1.4 14.6,-1.4 2.7,0 5.3,0.1 7.9,0.3 1.3,0.7 5.1,1.5 9.8,3.9 2.8,1.5 5.9,3.5 8.7,6.2 2.8,2.7 5.4,6 7.5,9.6 4.3,7.2 6.8,15.7 7.9,21.9 1.1,6.2 0.5,10.2 0.5,10.5 -0.1,0.3 0.2,4.4 -1.8,9.7 -1,2.6 -2.7,5.6 -5.2,8.3 -2.4,2.7 -5.6,5.1 -9.1,6.6 -3.5,1.6 -7.4,2.3 -10.9,1.9 -3.5,-0.3 -6.4,-1.8 -8.5,-3.9 -2.1,-2 -3.1,-4.4 -3.7,-6.1 -0.2,-0.7 -0.3,-1.2 -0.5,-1.7 0.3,-0.1 0.6,-0.2 0.8,-0.3 1.1,-0.3 1.7,-0.5 1.7,-0.8 0,-0.2 -0.6,-0.4 -1.9,-0.6 -1.3,0 -3.3,0.2 -5.5,1.5 -2.1,1.3 -4.4,3.5 -6,6.6 -1.5,3.1 -2.6,7.1 -2,11.5 0.1,1.1 0.5,2.2 0.8,3.4 0.2,0.6 0.5,1.1 0.7,1.7 0.3,0.6 0.6,1 0.9,1.6 1.2,2 2.8,4 4.7,5.6 3.8,3.3 8.7,5.5 13.9,6.7 2.6,0.6 5.3,0.9 8,1 1.4,0 2.7,0 4.1,-0.1 1.4,0 2.7,-0.2 4.1,-0.4 5.5,-0.7 10.9,-2.4 16,-4.9 10.2,-4.8 18.9,-12.9 24.4,-22.4 5.5,-9.5 7.4,-19.9 7.2,-28.8 -0.1,-8.9 -2.3,-16.3 -4.4,-21.3 -2.2,-5.1 -4.1,-7.9 -4.4,-8.3 -0.3,-0.4 -2.1,-3.3 -5.8,-7.3 -3.7,-3.9 -9.4,-8.9 -17.1,-13 -1.9,-1.1 -4,-2 -6.1,-3 -2.2,-0.8 -4.4,-1.8 -6.7,-2.5 -4.6,-1.5 -9.7,-2.6 -14.9,-3.2 -5.2,-0.6 -10.6,-0.8 -16,-0.4 -5.4,0.4 -10.8,1.2 -16.1,2.5 -10.6,2.5 -20.6,7 -29.1,12.2 -8,5.4 -15.2,11.3 -20.9,16.7 z m 104.3,-11.5 c 6.3,3.6 10.7,7.9 13.5,11.1 2.8,3.2 4.1,5.5 4.4,5.8 0.2,0.4 1.8,2.4 3.6,6.2 1.8,3.8 3.7,9.5 4.1,16.5 0.4,7 -0.7,15.4 -4.7,23.1 -3.9,7.7 -10.7,14.8 -19,19.3 -4.1,2.3 -8.6,4 -13.2,4.9 -1.1,0.2 -2.3,0.5 -3.4,0.6 -1.1,0.2 -2.3,0.3 -3.4,0.3 -2.2,0.1 -4.5,0 -6.6,-0.4 -4.3,-0.6 -8.3,-2.1 -11.4,-4.3 -1.5,-1.1 -2.8,-2.4 -3.9,-3.9 -1.1,-1.4 -1.7,-2.8 -2.1,-4.4 -0.8,-3.1 -0.4,-6.4 0.5,-9 0.9,-2.7 2.4,-4.7 3.9,-6 0.4,-0.4 0.8,-0.7 1.3,-1 -0.1,0.3 -0.1,0.5 -0.2,0.8 -0.3,2.2 0.1,5.6 2.3,9 1.1,1.7 2.5,3.4 4.4,4.8 1.9,1.4 4.2,2.5 6.6,3.2 4.9,1.4 10.4,1.2 15.5,-0.3 5.1,-1.4 9.8,-4.2 13.6,-7.6 3.8,-3.4 6.7,-7.3 8.6,-11 1.9,-3.8 2.9,-7.3 3.3,-9.8 0.5,-2.5 0.5,-4.1 0.6,-4.3 0,-0.5 0.2,-6.4 -1.9,-13.9 -1,-3.8 -2.6,-7.9 -4.5,-12.1 -2,-4.2 -4.5,-8.5 -7.6,-12.5 -1.7,-2.1 -3.5,-4.1 -5.5,-5.9 0.5,0.4 0.9,0.6 1.2,0.8 z"
           id="path57"
           inkscape:connector-curvature="0" /><path
           d="m 503.4,221 c 4.1,-3.8 9,-7.2 14.3,-10.2 5.3,-3 10.9,-5.7 16.3,-8.1 2.7,-1.2 5.4,-2.4 7.9,-3.6 2.8,-1.3 5.5,-2.8 8.1,-5.1 1.3,-1.1 2.5,-2.5 3.4,-4.2 1,-1.6 1.6,-3.6 1.8,-5.4 0.2,-1.8 0,-3.6 -0.4,-5.2 -0.5,-1.6 -1.2,-3 -1.9,-4.1 -1.5,-2.2 -3,-3.3 -4.1,-4.1 -1.1,-0.8 -1.8,-1.1 -1.9,-1.2 -0.4,-0.2 -2.7,-1.5 -6.6,-2.2 -1,-0.2 -2,-0.3 -3.2,-0.4 -1.1,-0.1 -2.6,0 -3.7,0.1 -1.2,0.1 -2.4,0.2 -3.7,0.5 -0.6,0.1 -1.3,0.3 -2,0.4 -0.7,0.2 -1.3,0.4 -2,0.6 -5.5,1.6 -11.3,4.7 -16.4,8.9 -5.2,4.2 -9.6,9.7 -13.1,15.6 -6.9,12 -9.2,25 -10.4,34.5 -1.1,9.5 -1,15.8 -0.2,16 0.2,0 0.4,-0.2 0.7,-0.8 0,2.2 0.4,3.4 0.7,3.5 1,0.1 1.8,-6.2 6.6,-13.8 2.4,-3.9 5.7,-8 9.8,-11.7 z m 0.5,-22.6 c 3.4,-4.7 7.5,-8.9 11.9,-12 4.3,-3.1 8.9,-5 12.8,-5.8 0.5,-0.1 1,-0.2 1.4,-0.3 0.5,-0.1 0.9,-0.1 1.4,-0.2 0.9,-0.2 1.8,-0.2 2.6,-0.2 0.9,0 1.4,0 2,0.1 0.6,0.1 1.1,0.2 1.6,0.3 1.9,0.5 2.8,1.1 2.9,1.2 0.1,0 0.4,0.2 0.7,0.4 0.4,0.2 0.8,0.5 1,0.8 0.2,0.3 0.3,0.2 0.3,0.6 0,0.2 0,0.3 -0.1,0.6 -0.1,0.3 -0.4,0.8 -0.9,1.3 -1,1.1 -2.8,2.3 -4.9,3.5 -2.4,1.3 -5,2.7 -7.6,4.1 -5.3,2.9 -11,6.2 -16.4,10 -5.4,3.8 -10.5,8.2 -14.6,13 -2.3,2.7 -4.2,5.4 -5.9,8.2 2.6,-8.1 6.2,-17.7 11.8,-25.6 z"
           id="path59"
           inkscape:connector-curvature="0" /><path
           d="m 550.5,782.5 c 17.7,-12.1 37.2,-21.8 52.2,-29 15.1,-7.1 25.6,-11.8 26.5,-12.3 0.9,-0.5 11.3,-5.4 26.3,-13.3 7.5,-4.1 16.4,-9.1 24.7,-16.6 4.1,-3.7 8,-8.2 11.1,-13.3 3.1,-5.1 5.3,-10.8 6.7,-16.5 2.8,-11.5 2.1,-23.1 0.4,-33.5 -1.8,-10.3 -4.9,-19.8 -8.9,-27.2 -4,-7.5 -9,-12.8 -13,-15.6 -0.7,-0.5 -1.4,-0.9 -2,-1.3 -0.9,-1.7 -1.9,-3.2 -2.8,-4.4 -0.7,-0.9 -1.3,-1.7 -1.9,-2.4 -0.6,-0.6 -1.2,-1.2 -1.6,-1.6 -0.9,-0.8 -1.5,-1.2 -1.7,-1 -0.2,0.2 0.1,0.8 0.6,1.9 0.3,0.5 0.6,1.2 1.1,1.9 0.4,0.7 0.8,1.6 1.3,2.6 0.2,0.3 0.3,0.7 0.5,1 -0.2,0 -0.3,0 -0.3,0.1 -0.1,0.2 0.2,0.6 0.8,1.1 1.6,3.7 3.1,8.7 3.6,14.7 0.6,7.2 -0.3,15.8 -3.4,24.3 -1.5,4.2 -3.6,8.5 -6.1,12.4 -2.5,3.9 -5.7,7.7 -9,11.2 -6.8,7 -14.8,12.7 -22.9,17.4 -8.1,4.7 -16.1,8.5 -23.2,11.6 -7.2,3.1 -13.3,5.7 -17.7,7.5 -4.5,1.9 -7.2,3.3 -7.7,3.5 -0.4,0.2 -3.2,1.6 -7.5,4.1 -4.3,2.5 -10.3,6.3 -16.7,11.6 -6.4,5.3 -13,12.2 -19.2,20 -6.2,7.8 -12.1,16.4 -17.6,25.3 -5.5,8.8 -10.5,17.9 -14.8,26.5 -4.3,8.7 -7.8,16.9 -10.6,24.1 -5.5,14.4 -7.9,24.3 -7.1,24.6 0.2,0.1 0.7,-0.4 1.3,-1.5 -0.7,2 -0.8,3.1 -0.6,3.2 1,0.5 5.8,-9.3 15.8,-21.8 5,-6.2 11.4,-13.1 18.7,-19.9 7.3,-6.7 15.8,-13.3 24.7,-19.4 z M 549,748.4 c 6.2,-7 12.5,-13 18.4,-17.5 5.9,-4.6 11.3,-7.6 15.3,-9.8 4.1,-2.1 6.7,-3.3 7.1,-3.5 0.4,-0.2 2.9,-1.5 7.2,-3.5 4.3,-2.1 10.3,-4.8 17.5,-8.3 7.2,-3.5 15.5,-7.8 23.9,-13.3 8.4,-5.5 16.9,-12.2 24,-20.4 3.5,-4.1 6.7,-8.4 9.3,-13.2 2.6,-4.7 4.5,-9.6 5.9,-14.5 2.7,-9.7 2.9,-19.4 1.4,-27.2 -0.5,-2.6 -1.2,-5 -2,-7.2 2.6,3.2 5.4,7.6 7.7,13.1 3,7.2 5.2,16.2 6.2,26.1 1,9.8 0.8,20.4 -2.1,30.1 -1.4,4.8 -3.5,9.4 -6.2,13.4 -2.7,4 -6.1,7.5 -9.7,10.6 -7.3,6.1 -15.6,10.4 -23,14 -14.9,7.1 -25.6,11.8 -26.5,12.2 -0.9,0.5 -11.3,5.5 -26.3,13.3 -14.6,7.6 -33.5,18.2 -50.9,31.3 3.2,-3.4 7,-7.6 10.9,-11.8 8.8,-9.6 17.2,-19.4 15.9,-20.8 -1.2,-1.3 -11.8,6 -22.2,13.9 -5.2,3.9 -10.4,8 -14.2,11.3 -2.4,2 -4.2,3.6 -5.4,4.7 5.8,-8.3 11.8,-16.1 17.8,-23 z m -47.1,72 c 0.2,-0.4 0.4,-0.7 0.5,-1.1 0.2,-0.4 0.4,-0.8 0.6,-1.3 0,0.1 0.1,0.2 0.1,0.3 -0.1,0.1 -0.2,0.2 -0.2,0.4 -0.4,0.6 -0.7,1.2 -1,1.7 z"
           id="path61"
           inkscape:connector-curvature="0" /><path
           d="m 848.2,741.4 c -0.2,-1 -2.2,-12.8 -10,-27.9 -3.9,-7.5 -9.4,-15.7 -16.4,-23.3 -7,-7.7 -15.8,-14.6 -25.4,-19.9 -9.6,-5.2 -19.9,-8.9 -29.8,-10.8 -9.9,-1.9 -19.3,-2.3 -27.3,-1.7 -0.5,0 -0.9,0.1 -1.4,0.1 -1,-0.1 -2,-0.2 -3,-0.2 -5.6,-0.3 -10.2,0.9 -13.1,2.1 -0.7,0.3 -1.4,0.6 -1.9,0.9 -0.5,0.3 -1,0.6 -1.3,0.9 -0.2,0.1 -0.4,0.3 -0.5,0.4 -2.8,1 -4.3,1.9 -4.2,2.2 0.2,0.9 8.3,-1.2 20.8,-1.4 4.8,0.9 10.2,2.8 15.9,5.3 2.9,1.3 5.9,2.8 9,4.3 3.1,1.5 6.2,3.1 9.2,4.7 6.1,3.2 11.9,6.7 16.6,10.6 4.8,3.8 8.4,8.1 11.1,12.2 5.4,8.2 7.5,15 7.8,15.5 0.1,0.3 0.9,2 2,4.9 1.1,2.9 2.5,6.9 3.5,11.8 1.1,4.9 1.8,10.6 1.5,16.6 -0.3,6 -1.8,12.2 -4.7,17.8 -2.9,5.6 -7.1,10.4 -12.1,13.5 -4.9,3.1 -10.5,4.3 -15.3,4.4 -4.8,0.1 -8.8,-1.1 -11.5,-2.1 -1.9,-0.8 -3.2,-1.4 -3.9,-1.6 1.3,-2.9 2.6,-4.3 2.2,-4.6 -0.2,-0.3 -2.8,1 -5.3,5.2 -1.2,2.1 -2.3,4.9 -2.6,8.3 -0.4,3.4 -0.1,7.3 1.1,11.4 1.3,4 3.4,8.3 7.1,11.8 1.8,1.8 3.9,3.2 6.1,4.6 2.3,1.3 4.7,2.4 7.3,3.2 10.3,3.2 22.1,2.3 32.7,-1.7 10.5,-3.9 20.2,-10.9 26.7,-19.8 3.2,-4.5 5.6,-9.4 7.2,-14.2 1.6,-4.8 2.5,-9.4 3,-13.7 1.7,-17.2 -1,-28.9 -1.1,-29.8 z m -11.1,28.5 c -0.6,7.3 -2.4,15.7 -7.1,22.9 -4.7,7.3 -12.4,13.5 -21.1,17.4 -8.7,3.9 -18.7,5.2 -27.2,3.2 -2.1,-0.5 -4.1,-1.2 -6,-2.1 -1.8,-1 -3.7,-2 -5.1,-3.2 -3,-2.4 -5.1,-5.7 -6.5,-8.9 -1.4,-3.2 -2,-6.5 -2.1,-9.4 -0.1,-2.9 0.5,-5.4 1.1,-7.4 0.1,-0.3 0.2,-0.5 0.3,-0.7 0.5,0.7 1.4,1.8 3,3 2.5,2 6.8,4.2 12.5,5 5.6,0.8 12.5,0.2 19.2,-3.1 6.6,-3.2 12.5,-8.7 16.6,-15.3 4.1,-6.6 6.7,-14.2 7.5,-21.5 0.9,-7.3 0.5,-14.1 -0.4,-19.8 -0.9,-5.7 -2.2,-10.4 -3.2,-13.8 -1,-3.3 -1.8,-5.4 -2,-5.7 -0.1,-0.3 -1,-2.3 -2.6,-5.5 -1.6,-3.1 -4,-7.5 -7.6,-12.2 -3.5,-4.7 -8.5,-9.7 -14.4,-13.8 -3.3,-2.3 -6.8,-4.3 -10.4,-6.1 3.4,1.6 6.8,3.4 10,5.4 8.4,5.3 15.9,11.9 21.9,19.1 6,7.2 10.5,14.7 13.7,21.5 6.4,13.7 7.8,24.1 8,25 0,0.2 0.2,1 0.5,2.3 0.3,1.3 0.5,3.1 0.8,5.4 0.5,4.5 1.2,10.9 0.6,18.3 z"
           id="path63"
           inkscape:connector-curvature="0" /><path
           d="m 648.4,785.4 c -0.7,0.2 -7.6,3.9 -19.4,5.9 -5.9,1 -12.9,1.6 -20.6,2 -7.7,0.3 -16,0.4 -24.4,0.9 -8.5,0.5 -16.9,1.7 -24.7,3.7 -7.7,2 -14.7,4.9 -20.2,8.3 -5.5,3.4 -9.3,7.2 -11.6,10.2 -1.2,1.4 -1.9,2.7 -2.3,3.6 -0.5,0.9 -0.6,1.4 -0.4,1.6 0.9,0.7 6,-5.9 16.8,-10.8 5.4,-2.4 12,-4.4 19.3,-5.6 7.3,-1.2 15.3,-1.7 23.4,-1.5 8.1,0.1 16.4,0.6 24.3,0.7 3.1,0.1 6.2,0 9.2,0 -2.3,1 -4.7,1.9 -7.2,2.8 -3.5,1.2 -7.1,2.2 -10.8,3 -3.7,0.7 -7.5,1.2 -11.5,1.5 -7.9,0.6 -16.1,0.6 -23.8,1.4 -7.8,0.7 -15.1,2.5 -20.9,5 -2.9,1.3 -5.4,2.7 -7.5,4.2 -2.1,1.5 -3.8,3 -5,4.4 -2.4,2.7 -3.3,4.7 -3,4.9 0.4,0.3 1.9,-1 4.7,-2.9 1.4,-1 3.2,-2 5.2,-3 2.1,-1 4.5,-2 7.3,-2.8 5.5,-1.6 12.2,-2.5 19.5,-2.5 7.4,-0.1 15.4,0.6 23.8,0.6 4.2,0 8.5,-0.2 12.8,-0.8 4.3,-0.6 8.4,-1.5 12.3,-2.6 7.9,-2.2 14.8,-5 20.8,-7.3 6,-2.3 11.7,-4.8 15.7,-8 4.1,-3.1 6.1,-6.3 6.7,-7.2 l 11.2,-17.3 -19.5,7.8 c -0.1,-0.3 -0.1,-0.2 -0.2,-0.2 z"
           id="path65"
           inkscape:connector-curvature="0" /><path
           d="m 729.1,719.5 c -1.5,0.4 -2.9,0.7 -4.4,1.1 -0.8,0.2 -1.3,0.3 -2,0.4 -0.6,0.1 -1.2,0.2 -1.8,0.3 -2.4,0.4 -5,0.9 -7.2,1 -1.1,0.1 -2.3,0.2 -3.5,0.3 l -1.7,0.2 -1.6,0.1 c -2.5,0.2 -5,0.4 -7.7,0.6 -10.5,0.8 -22.6,2.1 -33.1,6.5 -5.2,2.2 -9.8,5 -13.6,7.9 -3.8,3 -6.9,6 -9.3,8.8 -4.7,5.6 -6.4,9.9 -5.8,10.2 0.7,0.5 3.5,-2.9 8.8,-7.3 2.6,-2.2 5.9,-4.5 9.7,-6.7 3.8,-2.2 8.2,-4.2 12.9,-5.6 9.4,-2.9 20.4,-3.2 30.9,-3.2 2.7,0 5.2,0 7.8,-0.1 l 0.2,0 0,0 0.1,0 0.1,0 0.2,0.1 c 0.1,0 0.2,0.1 0.3,0.1 0.3,0.1 0.3,0.2 0.2,0.3 -0.1,0.1 -0.1,0.1 -0.3,0.2 -0.1,0.1 -0.3,0.1 -0.4,0.2 -0.1,0.1 -0.2,0.1 -0.2,0.1 0,0 0.1,0 0.3,0 0.1,0 0.1,0 0.1,0.1 0,0 0,0.1 0,0.2 -0.1,0.1 0.3,-0.2 -1.1,0.9 -4,3.1 -8.7,6.6 -13.9,9.9 -5.2,3.3 -10.9,6.3 -16.9,8.7 -12,4.8 -25.2,6.7 -35.2,8 -10,1.3 -16.7,2.2 -16.7,3.2 0,0.9 6.7,1.7 16.9,2 10.2,0.2 24.1,-0.2 37.9,-4.3 6.9,-2.1 13.5,-4.9 19.4,-8 5.9,-3.1 11.2,-6.5 15.6,-9.5 0.7,-0.4 3.2,-2.2 4.9,-3.6 1.9,-1.4 3.7,-2.7 5.3,-4 3.3,-2.5 6.2,-4.8 8.6,-6.7 4.8,-3.9 7.8,-6.3 8.3,-6.7 0.3,-0.3 2.1,-1.7 4.9,-4.1 1.4,-1.2 3,-2.6 4.9,-4.2 1.4,-1.2 3,-2.6 4.7,-4.1 -5.4,1.4 -11.3,2.9 -17.7,4.5 -2.8,0.6 -5.8,1.4 -8.9,2.2 z"
           id="path67"
           inkscape:connector-curvature="0" /><path
           d="m 669.2,341.5 c 2.1,-4.7 4.1,-10.5 5.6,-16.8 1.6,-6.3 2.8,-13.1 3.6,-20 0.9,-6.8 1.5,-13.7 2.1,-20 0.3,-3.2 0.6,-6.2 0.8,-9.2 0.1,-0.7 0.1,-1.4 0.2,-2.1 l 0.1,-0.5 0,-0.2 0,0 0,-0.1 c 0.1,-0.1 0.1,-0.2 0.2,-0.3 0.4,-0.5 0.5,0.5 0.5,0.5 0,0 0,0 0,-0.1 0,-0.2 -0.1,-1.2 0.5,-0.5 l 0.1,0.1 c 0.1,0.1 0,-0.2 0.3,0.7 0.5,1.3 0.9,2.6 1.3,3.9 0.9,2.7 1.7,5.5 2.5,8.4 1.5,5.8 2.8,12 3.4,18.2 1.7,12.3 1.2,24.6 0.4,33.6 -0.8,9.1 -1.9,15.1 -1,15.3 0.7,0.2 3.5,-5.3 5.9,-14.5 2.4,-9.1 4.2,-21.9 3.7,-35.2 -0.1,-6.6 -1,-13.3 -2.1,-19.7 -0.6,-3.2 -1.2,-6.3 -2,-9.3 -0.4,-1.5 -0.7,-3 -1.1,-4.4 -0.3,-1.1 -0.7,-2.2 -1,-3.2 -0.4,-1.3 -0.8,-2.5 -1.2,-3.6 -0.8,-2.4 -1.8,-4.4 -2.6,-6.5 -0.9,-2.1 -1.7,-4.1 -2.6,-6 -1.7,-3.7 -3.3,-6.8 -4.7,-9.7 -3.1,-6.2 -5.3,-10.7 -6.5,-13.1 -0.2,1.1 -0.3,1.7 -0.4,1.9 -0.1,0.6 -0.7,4.1 -1.6,9.8 -0.8,5.5 -2.2,12.7 -3.1,22.7 -1,12.2 -0.8,15.5 -1,22.5 -0.1,6.4 -0.1,13.2 -0.4,19.8 -0.3,6.7 -0.8,13.2 -1.6,19.4 -0.8,6.1 -1.9,11.7 -3.2,16.5 -2.5,9.5 -5.5,15.5 -4.7,16 0.8,0.5 5.4,-4.7 9.6,-14.3 z"
           id="path69"
           inkscape:connector-curvature="0" /><path
           d="m 123.3,687.5 c 2.6,-0.1 4.8,-2.1 4.8,-4.8 0,-0.9 0,-1.7 0,-2.6 0,-2.5 -2.2,-5 -4.8,-4.8 -2.6,0.1 -4.8,2.1 -4.8,4.8 0,0.9 0,1.7 0,2.6 0,2.5 2.2,5 4.8,4.8 z"
           id="path71"
           inkscape:connector-curvature="0" /><path
           d="m 150.5,665.6 c 2.6,-0.1 4.8,-2.1 4.8,-4.8 0,-0.4 0,-0.9 0,-1.3 0,-2.5 -2.2,-5 -4.8,-4.8 -2.6,0.1 -4.8,2.1 -4.8,4.8 0,0.4 0,0.9 0,1.3 -0.1,2.5 2.2,4.9 4.8,4.8 z"
           id="path73"
           inkscape:connector-curvature="0" /><path
           d="m 185.4,643 c -6.2,0 -6.2,9.7 0,9.7 6.2,0 6.2,-9.7 0,-9.7 z"
           id="path75"
           inkscape:connector-curvature="0" /><path
           d="m 224.1,650.1 c 6.2,0 6.2,-9.7 0,-9.7 -6.2,0 -6.2,9.7 0,9.7 z"
           id="path77"
           inkscape:connector-curvature="0" /><path
           d="m 725.3,652.7 c 6.2,0 6.2,-9.7 0,-9.7 -6.2,0 -6.2,9.7 0,9.7 z"
           id="path79"
           inkscape:connector-curvature="0" /><path
           d="m 761.5,640.4 c -0.4,0 -0.9,0 -1.3,0 -2.5,0 -5,2.2 -4.8,4.8 0.1,2.6 2.1,4.8 4.8,4.8 0.4,0 0.9,0 1.3,0 2.5,0 5,-2.2 4.8,-4.8 -0.1,-2.6 -2.1,-4.8 -4.8,-4.8 z"
           id="path81"
           inkscape:connector-curvature="0" /><path
           d="m 793,649.6 c -0.4,0.4 -0.9,0.9 -1.3,1.3 -1.8,1.8 -1.9,5.1 0,6.9 1.9,1.8 4.9,1.9 6.9,0 0.4,-0.4 0.9,-0.9 1.3,-1.3 1.8,-1.8 1.9,-5.1 0,-6.9 -2,-1.8 -5,-2 -6.9,0 z"
           id="path83"
           inkscape:connector-curvature="0" /><path
           d="m 827.4,679.8 c 6.2,0 6.2,-9.7 0,-9.7 -6.2,0 -6.2,9.7 0,9.7 z"
           id="path85"
           inkscape:connector-curvature="0" /><path
           d="m 350.7,254.1 c -2.6,0.1 -4.8,2.1 -4.8,4.8 0,0.4 0,0.9 0,1.3 0,2.5 2.2,5 4.8,4.8 2.6,-0.1 4.8,-2.1 4.8,-4.8 0,-0.4 0,-0.9 0,-1.3 0.1,-2.5 -2.2,-4.9 -4.8,-4.8 z"
           id="path87"
           inkscape:connector-curvature="0" /><path
           d="m 359.8,239.3 c 2.6,-0.1 4.8,-2.1 4.8,-4.8 0,-0.4 0,-0.9 0,-1.3 0,-2.5 -2.2,-5 -4.8,-4.8 -2.6,0.1 -4.8,2.1 -4.8,4.8 0,0.4 0,0.9 0,1.3 -0.1,2.5 2.1,4.9 4.8,4.8 z"
           id="path89"
           inkscape:connector-curvature="0" /><path
           d="m 388.2,228.9 c 6.2,0 6.2,-9.7 0,-9.7 -6.3,0.1 -6.3,9.7 0,9.7 z"
           id="path91"
           inkscape:connector-curvature="0" /><path
           d="m 411.7,234.4 c 0,0.4 0,0.9 0,1.3 0,2.5 2.2,5 4.8,4.8 2.6,-0.1 4.8,-2.1 4.8,-4.8 0,-0.4 0,-0.9 0,-1.3 0,-2.5 -2.2,-5 -4.8,-4.8 -2.5,0.1 -4.8,2.1 -4.8,4.8 z"
           id="path93"
           inkscape:connector-curvature="0" /><path
           d="m 540.9,233.1 c 0,0.4 0,0.9 0,1.3 0,2.5 2.2,5 4.8,4.8 2.6,-0.1 4.8,-2.1 4.8,-4.8 0,-0.4 0,-0.9 0,-1.3 0,-2.5 -2.2,-5 -4.8,-4.8 -2.5,0.1 -4.8,2.1 -4.8,4.8 z"
           id="path95"
           inkscape:connector-curvature="0" /><path
           d="m 574.2,218 c -6.2,0 -6.2,9.7 0,9.7 6.2,0 6.2,-9.7 0,-9.7 z"
           id="path97"
           inkscape:connector-curvature="0" /><path
           d="m 602.6,230.9 c -6.2,0 -6.2,9.7 0,9.7 6.3,0 6.3,-9.7 0,-9.7 z"
           id="path99"
           inkscape:connector-curvature="0" /><path
           d="m 610.4,269 c 6.2,0 6.2,-9.7 0,-9.7 -6.3,0 -6.3,9.7 0,9.7 z"
           id="path101"
           inkscape:connector-curvature="0" /><path
           d="m 479.9,835.5 c -6.2,0 -6.2,9.7 0,9.7 6.2,-0.1 6.2,-9.7 0,-9.7 z"
           id="path103"
           inkscape:connector-curvature="0" /><path
           d="m 229.3,801.9 c -2.6,0.1 -4.8,2.1 -4.8,4.8 0,0.4 0,0.9 0,1.3 0,2.5 2.2,5 4.8,4.8 2.6,-0.1 4.8,-2.1 4.8,-4.8 0,-0.4 0,-0.9 0,-1.3 0,-2.5 -2.2,-4.9 -4.8,-4.8 z"
           id="path105"
           inkscape:connector-curvature="0" /><path
           d="m 243.5,777.3 c -2.6,0.1 -4.8,2.1 -4.8,4.8 0,0.4 0,0.9 0,1.3 0,2.5 2.2,5 4.8,4.8 2.6,-0.1 4.8,-2.1 4.8,-4.8 0,-0.4 0,-0.9 0,-1.3 0,-2.5 -2.2,-4.9 -4.8,-4.8 z"
           id="path107"
           inkscape:connector-curvature="0" /><path
           d="m 264.2,803.2 c -6.2,0 -6.2,9.7 0,9.7 6.2,0 6.2,-9.7 0,-9.7 z"
           id="path109"
           inkscape:connector-curvature="0" /><path
           d="m 696.1,808.5 c -0.4,0.4 -0.9,0.9 -1.3,1.3 -1.8,1.8 -1.9,5.1 0,6.9 1.9,1.8 4.9,1.9 6.9,0 0.4,-0.4 0.9,-0.9 1.3,-1.3 1.8,-1.8 1.9,-5.1 0,-6.9 -2,-1.8 -5,-2 -6.9,0 z"
           id="path111"
           inkscape:connector-curvature="0" /><path
           d="m 711.1,782.5 c -2.6,0.1 -4.8,2.1 -4.8,4.8 0,0.4 0,0.9 0,1.3 0,2.5 2.2,5 4.8,4.8 2.6,-0.1 4.8,-2.1 4.8,-4.8 0,-0.4 0,-0.9 0,-1.3 0.1,-2.5 -2.2,-4.9 -4.8,-4.8 z"
           id="path113"
           inkscape:connector-curvature="0" /><path
           d="m 730.5,807 c -6.2,0 -6.2,9.7 0,9.7 6.2,0 6.3,-9.7 0,-9.7 z"
           id="path115"
           inkscape:connector-curvature="0" /><path
           d="m 221.3,503.9 c 0.6,2 1.2,3.8 2,5.2 1.6,2.9 3.3,4.3 4.1,3.9 0.8,-0.4 0.7,-2.5 0.8,-5.2 0.1,-2.7 0.4,-6.2 1.3,-9.6 1.7,-6.8 5,-13.5 5,-13.8 0,-0.2 0.5,-2.1 1.2,-5 0.7,-2.9 1.7,-6.8 2.4,-10.8 0.7,-4 1,-8.3 0.7,-11.4 -0.3,-3.2 -1.1,-5.2 -2,-5.2 -0.9,0 -1.8,1.8 -3,4.4 -1.2,2.6 -2.8,5.9 -4.5,9.3 -1.7,3.4 -3.6,6.8 -4.9,9.5 -1.4,2.7 -2.2,4.7 -2.3,4.9 -0.1,0.2 -0.6,2.3 -1.2,5.5 -0.5,3.2 -1,7.5 -0.7,11.9 0.2,2.2 0.5,4.4 1.1,6.4 z"
           id="path117"
           inkscape:connector-curvature="0" /><path
           d="m 245,576.3 c 0.2,-2.5 0.3,-4.4 -0.6,-4.8 -0.8,-0.4 -2.4,0.7 -4.2,2.8 -1.8,2.1 -3.6,5.4 -5.1,8.9 -1.4,3.5 -2.4,7.2 -2.8,10.1 -0.5,2.9 -0.5,4.9 -0.6,5.1 0,0.2 0.3,2.2 0.9,5.1 0.6,2.9 1.9,6.5 3.5,9.9 1.7,3.4 3.7,6.5 5.7,8.5 1.9,2 3.6,3 4.4,2.5 0.8,-0.5 0.6,-2.4 0.2,-4.9 -0.4,-2.5 -1,-5.7 -1.3,-8.9 -0.3,-3.2 -0.4,-6.3 -0.3,-8.7 0.1,-2.4 0.2,-4 0.2,-4.1 0,-0.1 -0.3,-1.7 -0.5,-4.1 -0.3,-2.4 -0.3,-5.5 -0.3,-8.7 0.2,-3 0.6,-6.2 0.8,-8.7 z"
           id="path119"
           inkscape:connector-curvature="0" /><path
           d="m 730.9,511.2 c 0.9,0.2 2.3,-1.8 3.3,-5.2 1.1,-3.4 1.6,-8.2 1.3,-12.9 -0.2,-4.7 -1.1,-9.4 -1.9,-12.9 -0.8,-3.5 -1.6,-5.8 -1.6,-6 -0.1,-0.2 -1.1,-2.4 -2.8,-5.4 -1.6,-3 -3.8,-6.8 -5.9,-10.6 -2.1,-3.8 -4.1,-7.5 -5.7,-10.3 -1.6,-2.8 -2.8,-4.8 -3.7,-4.6 -0.9,0.2 -1.4,2.5 -1.3,6 0.1,3.5 0.9,8 2,12.4 1.1,4.4 2.4,8.7 3.4,11.9 1,3.2 1.6,5.3 1.7,5.5 0.1,0.4 4.1,7.9 6.7,15.6 1.3,3.9 2.2,7.8 2.7,10.9 0.5,3.1 0.9,5.4 1.8,5.6 z"
           id="path121"
           inkscape:connector-curvature="0" /><path
           d="m 714.7,596.6 c 0,0.3 1.1,5.8 1.5,11.6 0.1,2.9 0.3,5.9 0.4,8.2 0.1,2.3 0.5,4 1.3,4.3 0.8,0.3 2.2,-0.9 3.6,-2.9 1.4,-2.1 2.8,-5.1 3.9,-8.3 2.2,-6.4 2.5,-13.4 2.4,-13.7 0,-0.3 -1.2,-7.2 -4.1,-13.3 -1.5,-3 -3.2,-5.9 -4.9,-7.7 -1.7,-1.9 -3.2,-2.9 -4,-2.5 -0.8,0.4 -0.9,2.2 -0.8,4.5 0.2,2.3 0.4,5.2 0.6,8.2 0.5,5.8 0.1,11.4 0.1,11.6 z"
           id="path123"
           inkscape:connector-curvature="0" /><path
           d="m 161.9,767.2 c 0,0 0.5,0.5 1.3,1 0.8,0.5 1.9,1.1 3.1,1.4 2.4,0.7 5,0.3 5.9,-1.3 0.9,-1.6 0.6,-3.7 0.6,-5.4 0,-0.9 0,-1.6 0,-2.1 0,-0.5 0,-0.9 0,-0.9 0,0 -0.3,-0.1 -0.8,-0.3 -0.5,-0.2 -1.2,-0.5 -2,-0.8 -1.6,-0.6 -3.4,-1.8 -5.2,-1.5 -1.8,0.2 -3.2,2.4 -3.4,4.9 -0.1,1.2 -0.1,2.5 0.1,3.4 0.1,1 0.3,1.6 0.4,1.6 z"
           id="path125"
           inkscape:connector-curvature="0" /><path
           d="m 164.5,744.7 c 1.8,-0.4 2.9,-2.7 4,-4.7 1,-2 1.8,-3.8 1.8,-3.9 0,-0.1 -0.7,-1.9 -1.6,-3.9 -0.9,-2 -2,-4.4 -3.7,-4.9 -1.7,-0.5 -4,1.3 -5.5,3.6 -1.6,2.2 -2.4,4.9 -2.4,5 0,0.1 0.7,2.8 2.1,5.1 1.4,2.3 3.5,4.2 5.3,3.7 z"
           id="path127"
           inkscape:connector-curvature="0" /><path
           d="m 182,707 c 0.1,-0.1 1.3,-2.6 2.7,-5.3 1.4,-2.7 3.2,-5.6 2.3,-7.2 -0.8,-1.6 -4.6,-1.4 -8.2,-0.1 -3.6,1.3 -6.7,3.7 -6.8,3.8 -0.1,0.1 -2.1,3.5 -2.9,7.2 -0.9,3.7 -0.6,7.5 1.1,8.1 1.7,0.6 4.4,-1.5 6.9,-3.2 2.5,-1.7 4.8,-3.2 4.9,-3.3 z"
           id="path129"
           inkscape:connector-curvature="0" /><path
           d="m 783.3,759.5 c -0.7,0 -1.3,-0.1 -1.7,-0.2 -0.4,-0.1 -0.6,-0.2 -0.6,-0.2 0,0 0,0.2 0,0.6 0,0.4 -0.1,1 -0.3,1.7 -0.2,0.7 -0.5,1.4 -0.9,2.2 -0.4,0.8 -0.8,1.6 -0.9,2.5 -0.1,0.9 0.2,1.8 1,2.6 0.8,0.8 2,1.3 3.4,1.6 1.3,0.2 2.7,0.2 3.7,-0.1 1,-0.2 1.7,-0.5 1.8,-0.5 0,0 0.5,-0.6 1,-1.5 0.5,-0.9 1,-2.2 1.2,-3.5 0.2,-1.3 0,-2.7 -0.5,-3.7 -0.5,-1 -1.3,-1.6 -2.2,-1.8 -0.9,-0.2 -1.8,0 -2.7,0.1 -0.7,0.1 -1.6,0.2 -2.3,0.2 z"
           id="path131"
           inkscape:connector-curvature="0" /><path
           d="m 789.9,739.2 c 1.2,1.5 2.7,3.3 4.6,3.5 1.8,0.2 3.6,-1.6 4.8,-3.7 1.2,-2.1 1.6,-4.4 1.6,-4.5 0,-0.1 -1,-2.2 -2.7,-3.9 -1.7,-1.8 -3.9,-3 -5.6,-2.3 -1.7,0.7 -2.7,2.8 -3.5,4.6 -0.4,0.9 -0.7,1.7 -0.9,2.4 -0.2,0.6 -0.4,1 -0.4,1.1 0,0 0.2,0.4 0.6,0.9 0.3,0.4 0.9,1.2 1.5,1.9 z"
           id="path133"
           inkscape:connector-curvature="0" /><path
           d="m 784.3,699.9 c -0.1,-0.1 -2.6,-2.1 -5.6,-3.6 -3,-1.5 -6.2,-2.3 -7.5,-1 -1.3,1.3 -0.4,4.5 0.6,7.3 1,2.8 2.1,5.4 2.2,5.5 0.1,0.1 2.3,1.8 4.9,3.3 2.5,1.6 5.4,3.1 7,2.2 1.6,-0.9 1.5,-4.3 0.7,-7.5 -0.8,-3.2 -2.2,-6.1 -2.3,-6.2 z"
           id="path135"
           inkscape:connector-curvature="0" /><path
           d="m 201.5,413.8 c 1.4,3.7 2.7,7.8 4.5,7.9 1.8,0.2 3.8,-3.9 4.8,-8.3 1,-4.4 1.1,-9 1,-9.2 0,-0.2 -1.5,-4.6 -3.8,-8.4 -2.3,-3.9 -5.4,-7.1 -7.1,-6.4 -1.7,0.7 -1.7,4.9 -1.9,8.9 -0.1,4 -0.3,7.8 -0.2,8 0,0.2 1.3,3.8 2.7,7.5 z"
           id="path137"
           inkscape:connector-curvature="0" /><path
           d="m 170,429.3 c 0,0.1 1.6,2.3 3.4,4.6 1.8,2.3 3.7,4.8 5.6,4.6 1.8,-0.2 3.1,-3.4 3.5,-6.7 0.5,-3.3 0,-6.7 0,-6.9 0,-0.1 -1.9,-3 -4.3,-5.3 -2.5,-2.4 -5.5,-4 -7,-3 -1.5,1 -1.5,4.2 -1.4,7.1 0.1,2.9 0.2,5.5 0.2,5.6 z"
           id="path139"
           inkscape:connector-curvature="0" /><path
           d="m 149.7,461.7 c 0.1,0.1 2.1,1.8 4.5,3.6 2.3,1.8 4.9,3.6 6.6,2.9 1.7,-0.7 2,-4.1 1.6,-7.4 -0.4,-3.3 -1.6,-6.4 -1.7,-6.5 -0.1,-0.1 -2.5,-2.4 -5.4,-4.1 -2.9,-1.7 -6.2,-2.6 -7.4,-1.3 -1.3,1.3 -0.5,4.4 0.2,7.2 0.7,2.9 1.5,5.5 1.6,5.6 z"
           id="path141"
           inkscape:connector-curvature="0" /><path
           d="m 755,406.3 c 3.6,-0.2 5.9,-14.8 5.8,-15.2 0,-0.3 -3.7,-14.7 -7.3,-14.5 -3.6,0.2 -5.9,14.8 -5.8,15.2 0,0.3 3.6,14.6 7.3,14.5 z"
           id="path143"
           inkscape:connector-curvature="0" /><path
           d="m 774.5,423 c 1.8,0.4 4,-1.8 5.9,-3.8 1.9,-2.1 3.5,-4.1 3.6,-4.2 0,-0.1 0.3,-2.7 0.4,-5.5 0,-2.8 0,-5.9 -1.6,-6.8 -1.6,-0.9 -4.4,0.6 -6.8,2.7 -2.4,2.1 -4.2,4.6 -4.2,4.7 0,0.1 -0.5,3.2 -0.2,6.3 0.1,3.2 1.1,6.3 2.9,6.6 z"
           id="path145"
           inkscape:connector-curvature="0" /><path
           d="m 788.8,452.9 c 3.1,2 10.5,-4.1 10.6,-4.2 0.1,-0.2 2.6,-9.4 -0.5,-11.4 -3.1,-2 -10.5,4.1 -10.6,4.2 -0.1,0.1 -2.6,9.4 0.5,11.4 z"
           id="path147"
           inkscape:connector-curvature="0" /></g></g></switch></svg>