<?xml version="1.0" encoding="UTF-8" standalone="no"?>
<svg
   xmlns:dc="http://purl.org/dc/elements/1.1/"
   xmlns:cc="http://creativecommons.org/ns#"
   xmlns:rdf="http://www.w3.org/1999/02/22-rdf-syntax-ns#"
   xmlns:svg="http://www.w3.org/2000/svg"
   xmlns="http://www.w3.org/2000/svg"
   xmlns:sodipodi="http://sodipodi.sourceforge.net/DTD/sodipodi-0.dtd"
   xmlns:inkscape="http://www.inkscape.org/namespaces/inkscape"
   version="1.1"
   id="l21"
   x="0px"
   y="0px"
   viewBox="171.09478759765625 171.04483032226562 657.8104248046875 657.9102783203125"
   width="100%"
   height="100%"
   style="enable-background:new 0 0 1000 1000;"
   xml:space="preserve"
    class="withFill"
   ><style
     type="text/css"
     id="style3">
	#l21 .st0{fill:#9E9E9E;}
</style><switch
     id="switch5"
     transform="translate(-86,7.9499889)"><g
       id="g7"><g
         id="g9"><path
           class="st0"
           d="m 902.8,514.8 c -5.8,-0.4 -11.7,2.8 -12.3,10 -1.8,14.1 20.8,18.1 22.8,2.4 0.8,-7.7 -4.8,-12 -10.5,-12.4 z"
           id="path11"
           inkscape:connector-curvature="0"
           style="fill:#9e9e9e" /><path
           class="st0"
           d="m 882.9,567.6 c -3.8,13.7 18,20.8 22.3,5.6 3.5,-15.3 -19.1,-19.5 -22.3,-5.6 z"
           id="path13"
           inkscape:connector-curvature="0"
           style="fill:#9e9e9e" /><path
           class="st0"
           d="m 869,609.3 c -1.3,3.4 -1.2,6.3 0,8.9 1.2,2.5 3.4,4.6 6,5.8 2.6,1.2 5.6,1.5 8.4,0.7 2.7,-0.9 5.4,-2.9 6.8,-6.6 5.8,-14.7 -16,-22.1 -21.2,-8.8 z"
           id="path15"
           inkscape:connector-curvature="0"
           style="fill:#9e9e9e" /><path
           class="st0"
           d="m 849.5,648.1 c -1.7,3.2 -2.1,6.1 -1.2,8.8 0.8,2.7 2.7,5 5.2,6.6 2.4,1.6 5.3,2.3 8.2,1.8 2.8,-0.5 5.7,-2.1 7.6,-5.5 7.8,-13.6 -12.7,-24.1 -19.8,-11.7 z"
           id="path17"
           inkscape:connector-curvature="0"
           style="fill:#9e9e9e" /><path
           class="st0"
           d="m 824.4,684.2 c -2.2,2.9 -2.9,5.8 -2.5,8.6 0.4,2.8 2,5.4 4.2,7.2 2.2,1.9 5,3.1 7.8,3 2.9,-0.1 6,-1.3 8.3,-4.4 9.8,-12.4 -8.9,-25.6 -17.8,-14.4 z"
           id="path19"
           inkscape:connector-curvature="0"
           style="fill:#9e9e9e" /><path
           class="st0"
           d="m 794.8,716 c -2.6,2.5 -3.7,5.3 -3.6,8.2 0,2.8 1.2,5.6 3.1,7.8 1.9,2.2 4.5,3.7 7.4,4.1 2.9,0.4 6.1,-0.5 8.8,-3.2 11.4,-11 -5.3,-26.7 -15.7,-16.9 z"
           id="path21"
           inkscape:connector-curvature="0"
           style="fill:#9e9e9e" /><path
           class="st0"
           d="m 760.6,743.6 c -1.5,1 -2.5,2.3 -3.3,3.5 -0.8,1.3 -1.3,2.6 -1.4,4 -0.4,2.8 0.4,5.7 2,8.1 1.6,2.4 3.9,4.3 6.7,5.1 1.4,0.4 2.9,0.5 4.5,0.2 1.6,-0.3 3.1,-1 4.7,-2.1 12.8,-9.1 -1.5,-27 -13.2,-18.8 z"
           id="path23"
           inkscape:connector-curvature="0"
           style="fill:#9e9e9e" /><path
           class="st0"
           d="m 723.3,765.8 c -1.6,0.8 -2.9,1.9 -3.8,3.1 -0.9,1.2 -1.6,2.4 -2,3.8 -0.7,2.7 -0.4,5.7 0.8,8.3 1.2,2.6 3.2,4.8 5.9,6 1.3,0.6 2.8,0.9 4.4,0.8 1.6,-0.1 3.2,-0.5 5,-1.4 7,-3.6 7.6,-10.4 4.8,-15.4 -2.7,-5.1 -8.7,-8.4 -15.1,-5.2 z"
           id="path25"
           inkscape:connector-curvature="0"
           style="fill:#9e9e9e" /><path
           class="st0"
           d="m 691.6,783.4 c -2.5,-1.4 -5.5,-1.9 -8.9,-0.8 -6.8,2.4 -8.7,8.7 -7.1,14.3 1.6,5.5 7,10.1 14.4,7.5 3.7,-1.2 6,-3.5 7.1,-6.2 1.1,-2.6 0.9,-5.7 -0.1,-8.4 -1,-2.6 -2.9,-4.9 -5.4,-6.4 z"
           id="path27"
           inkscape:connector-curvature="0"
           style="fill:#9e9e9e" /><path
           class="st0"
           d="m 649.4,795.4 c -2.2,-1.7 -5.2,-2.7 -8.7,-2 -3.6,0.6 -6,2.5 -7.5,5 -1.5,2.4 -2,5.3 -1.6,8.2 0.4,2.8 1.7,5.6 4,7.4 2.2,1.8 5.3,2.7 9.2,2 3.8,-0.7 6.4,-2.6 7.9,-5.1 1.4,-2.5 1.7,-5.6 1.1,-8.4 -0.7,-2.8 -2.2,-5.4 -4.4,-7.1 z"
           id="path29"
           inkscape:connector-curvature="0"
           style="fill:#9e9e9e" /><path
           class="st0"
           d="m 601.7,799 c -1.4,-0.6 -3,-0.9 -4.8,-0.9 -14.2,0.4 -14.9,23.3 0.8,22.9 1.9,0 3.6,-0.5 5,-1.1 1.4,-0.7 2.6,-1.7 3.5,-2.9 1.8,-2.3 2.5,-5.2 2.3,-8.1 -0.2,-2.9 -1.3,-5.7 -3.3,-7.7 -0.9,-0.9 -2.1,-1.7 -3.5,-2.2 z"
           id="path31"
           inkscape:connector-curvature="0"
           style="fill:#9e9e9e" /><path
           class="st0"
           d="m 553.5,796.6 c -14.1,-1.8 -18,20.9 -2.4,22.8 7.8,0.7 12,-4.8 12.4,-10.5 0.4,-5.7 -2.9,-11.6 -10,-12.3 z"
           id="path33"
           inkscape:connector-curvature="0"
           style="fill:#9e9e9e" /><path
           class="st0"
           d="m 510.2,788.9 c -13.7,-3.8 -20.8,18 -5.7,22.2 15.4,3.6 19.6,-19 5.7,-22.2 z"
           id="path35"
           inkscape:connector-curvature="0"
           style="fill:#9e9e9e" /><path
           class="st0"
           d="m 469,775.2 c -1.7,-0.6 -3.3,-0.9 -4.8,-0.9 -1.5,0 -2.9,0.4 -4.2,1 -2.5,1.2 -4.6,3.4 -5.8,6 -1.2,2.6 -1.5,5.6 -0.7,8.4 0.4,1.4 1.2,2.7 2.3,3.9 1.1,1.2 2.5,2.2 4.3,2.9 14.8,5.7 22.2,-16.1 8.9,-21.3 z"
           id="path37"
           inkscape:connector-curvature="0"
           style="fill:#9e9e9e" /><path
           class="st0"
           d="m 429.7,755.5 c -3.2,-1.7 -6.1,-2.1 -8.8,-1.2 -2.7,0.8 -5,2.7 -6.6,5.2 -1.6,2.4 -2.3,5.3 -1.8,8.2 0.5,2.8 2.1,5.7 5.5,7.6 13.6,7.8 24.1,-12.7 11.7,-19.8 z"
           id="path39"
           inkscape:connector-curvature="0"
           style="fill:#9e9e9e" /><path
           class="st0"
           d="m 394,730.7 c -2.9,-2.2 -5.8,-2.9 -8.6,-2.5 -2.8,0.4 -5.4,2 -7.2,4.2 -1.9,2.2 -3,5 -3,7.9 0.1,2.9 1.3,6 4.4,8.3 12.4,9.7 25.7,-9.1 14.4,-17.9 z"
           id="path41"
           inkscape:connector-curvature="0"
           style="fill:#9e9e9e" /><path
           class="st0"
           d="m 353.7,697.1 c -2.8,0 -5.6,1.2 -7.8,3.1 -2.2,1.9 -3.7,4.5 -4.1,7.3 -0.4,2.9 0.5,6.1 3.2,8.9 10.8,11.4 26.6,-5.3 16.8,-15.6 -2.5,-2.6 -5.3,-3.7 -8.1,-3.7 z"
           id="path43"
           inkscape:connector-curvature="0"
           style="fill:#9e9e9e" /><path
           class="st0"
           d="m 331,663.6 c -1.3,-0.8 -2.6,-1.3 -4,-1.4 -2.8,-0.4 -5.7,0.4 -8.1,2 -2.4,1.6 -4.3,3.9 -5.1,6.7 -0.4,1.4 -0.5,2.9 -0.2,4.5 0.3,1.6 1,3.1 2.1,4.7 4.5,6.4 11.3,6.1 16,2.6 4.5,-3.4 7.1,-9.9 2.9,-15.7 -1.1,-1.5 -2.3,-2.6 -3.6,-3.4 z"
           id="path45"
           inkscape:connector-curvature="0"
           style="fill:#9e9e9e" /><path
           class="st0"
           d="m 309,625.4 c -1.1,-1 -2.4,-1.6 -3.8,-2 -2.7,-0.8 -5.7,-0.4 -8.3,0.8 -2.6,1.2 -4.8,3.2 -6,5.9 -0.6,1.3 -0.9,2.8 -0.9,4.4 0.1,1.6 0.5,3.2 1.4,5 3.6,6.9 10.3,7.7 15.4,4.8 5,-2.7 8.4,-8.7 5.1,-15.1 -0.6,-1.6 -1.7,-2.9 -2.9,-3.8 z"
           id="path47"
           inkscape:connector-curvature="0"
           style="fill:#9e9e9e" /><path
           class="st0"
           d="m 294.7,598 c 1.4,-2.5 1.9,-5.5 0.8,-8.9 -2.4,-6.8 -8.7,-8.7 -14.3,-7.1 -5.5,1.6 -10.1,7 -7.5,14.4 1.2,3.7 3.5,6 6.2,7.1 2.7,1.1 5.7,0.9 8.4,-0.1 2.7,-1.1 5,-2.9 6.4,-5.4 z"
           id="path49"
           inkscape:connector-curvature="0"
           style="fill:#9e9e9e" /><path
           class="st0"
           d="m 275.4,559.6 c 2.8,-0.6 5.4,-2.1 7.1,-4.3 1.7,-2.2 2.7,-5.2 2.1,-8.7 -0.6,-3.6 -2.5,-6 -5,-7.5 -2.4,-1.5 -5.3,-2 -8.2,-1.6 -2.8,0.4 -5.6,1.7 -7.4,4 -1.8,2.2 -2.7,5.3 -2,9.1 0.7,3.8 2.6,6.4 5.1,7.9 2.5,1.3 5.5,1.7 8.3,1.1 z"
           id="path51"
           inkscape:connector-curvature="0"
           style="fill:#9e9e9e" /><path
           class="st0"
           d="m 276.8,511.6 c 1,-1 1.8,-2.2 2.3,-3.6 0.6,-1.4 0.9,-3 0.9,-4.8 -0.4,-14.2 -23.3,-14.9 -22.9,0.8 0.1,1.9 0.4,3.6 1.1,5 0.7,1.4 1.7,2.6 2.9,3.5 2.3,1.8 5.2,2.5 8.1,2.3 2.8,-0.1 5.5,-1.2 7.6,-3.2 z"
           id="path53"
           inkscape:connector-curvature="0"
           style="fill:#9e9e9e" /><path
           class="st0"
           d="m 269.1,469.3 c 5.8,0.4 11.7,-2.8 12.3,-10 1.8,-14.1 -20.8,-18.1 -22.8,-2.4 -0.8,7.8 4.8,12.1 10.5,12.4 z"
           id="path55"
           inkscape:connector-curvature="0"
           style="fill:#9e9e9e" /><path
           class="st0"
           d="m 289.1,416.6 c 3.8,-13.7 -18,-20.8 -22.3,-5.6 -3.5,15.3 19.1,19.5 22.3,5.6 z"
           id="path57"
           inkscape:connector-curvature="0"
           style="fill:#9e9e9e" /><path
           class="st0"
           d="m 302.9,374.9 c 1.3,-3.4 1.2,-6.3 0,-8.9 -1.2,-2.5 -3.4,-4.6 -6,-5.8 -2.6,-1.2 -5.6,-1.5 -8.4,-0.7 -2.7,0.9 -5.4,2.9 -6.8,6.6 -5.7,14.6 16,22 21.2,8.8 z"
           id="path59"
           inkscape:connector-curvature="0"
           style="fill:#9e9e9e" /><path
           class="st0"
           d="m 322.4,336 c 1.7,-3.2 2.1,-6.1 1.2,-8.8 -0.8,-2.7 -2.7,-5 -5.2,-6.6 -2.4,-1.6 -5.3,-2.3 -8.2,-1.8 -2.8,0.5 -5.7,2.1 -7.6,5.5 -7.8,13.7 12.7,24.1 19.8,11.7 z"
           id="path61"
           inkscape:connector-curvature="0"
           style="fill:#9e9e9e" /><path
           class="st0"
           d="m 347.5,299.9 c 2.2,-2.9 2.9,-5.8 2.5,-8.6 -0.4,-2.8 -2,-5.4 -4.2,-7.2 -2.2,-1.9 -5,-3.1 -7.8,-3 -2.9,0.1 -6,1.3 -8.3,4.4 -9.8,12.4 9,25.7 17.8,14.4 z"
           id="path63"
           inkscape:connector-curvature="0"
           style="fill:#9e9e9e" /><path
           class="st0"
           d="m 380.7,260 c 0,-2.8 -1.2,-5.6 -3.1,-7.8 -1.9,-2.2 -4.5,-3.7 -7.4,-4.1 -2.9,-0.4 -6.1,0.5 -8.8,3.2 -11.4,10.9 5.3,26.6 15.7,16.8 2.6,-2.5 3.7,-5.3 3.6,-8.1 z"
           id="path65"
           inkscape:connector-curvature="0"
           style="fill:#9e9e9e" /><path
           class="st0"
           d="m 414.6,237 c 0.8,-1.3 1.3,-2.6 1.4,-4 0.4,-2.8 -0.4,-5.7 -2,-8.1 -1.6,-2.4 -3.9,-4.3 -6.7,-5.1 -1.4,-0.4 -2.9,-0.5 -4.5,-0.2 -1.6,0.3 -3.1,1 -4.7,2.1 -12.8,9.1 1.5,27.1 13.1,18.8 1.6,-1 2.6,-2.3 3.4,-3.5 z"
           id="path67"
           inkscape:connector-curvature="0"
           style="fill:#9e9e9e" /><path
           class="st0"
           d="m 453.6,203.2 c -1.2,-2.6 -3.2,-4.8 -5.9,-6 -1.3,-0.6 -2.8,-0.9 -4.4,-0.8 -1.6,0.1 -3.2,0.5 -5,1.4 -7,3.6 -7.6,10.4 -4.8,15.4 2.8,5 8.7,8.4 15.1,5.1 1.6,-0.8 2.9,-1.9 3.8,-3.1 0.9,-1.2 1.6,-2.4 2,-3.8 0.7,-2.6 0.4,-5.6 -0.8,-8.2 z"
           id="path69"
           inkscape:connector-curvature="0"
           style="fill:#9e9e9e" /><path
           class="st0"
           d="m 496.3,187.2 c -1.6,-5.5 -7,-10.1 -14.4,-7.5 -3.7,1.2 -6,3.5 -7.1,6.2 -1.1,2.6 -0.9,5.7 0.1,8.4 1,2.7 2.9,5 5.3,6.4 2.5,1.4 5.5,1.9 8.9,0.8 6.9,-2.4 8.8,-8.7 7.2,-14.3 z"
           id="path71"
           inkscape:connector-curvature="0"
           style="fill:#9e9e9e" /><path
           class="st0"
           d="m 536.4,170.1 c -2.2,-1.8 -5.3,-2.7 -9.1,-2 -3.8,0.7 -6.4,2.6 -7.9,5.1 -1.4,2.5 -1.7,5.6 -1.1,8.4 0.6,2.8 2.1,5.4 4.3,7.1 2.2,1.7 5.2,2.7 8.7,2 3.6,-0.6 6,-2.5 7.5,-5 1.5,-2.4 2,-5.3 1.6,-8.2 -0.5,-2.7 -1.8,-5.5 -4,-7.4 z"
           id="path73"
           inkscape:connector-curvature="0"
           style="fill:#9e9e9e" /><path
           class="st0"
           d="m 574.2,163.1 c -1.9,0 -3.6,0.5 -5,1.1 -1.4,0.7 -2.6,1.7 -3.5,2.9 -1.8,2.3 -2.5,5.2 -2.3,8.1 0.2,2.9 1.3,5.7 3.3,7.7 1,1 2.2,1.8 3.6,2.3 1.4,0.6 3,0.9 4.8,0.9 14.1,-0.4 14.8,-23.4 -0.9,-23 z"
           id="path75"
           inkscape:connector-curvature="0"
           style="fill:#9e9e9e" /><path
           class="st0"
           d="m 620.8,164.7 c -7.8,-0.7 -12,4.8 -12.4,10.5 -0.4,5.8 2.8,11.7 10,12.3 14.2,1.8 18.1,-20.9 2.4,-22.8 z"
           id="path77"
           inkscape:connector-curvature="0"
           style="fill:#9e9e9e" /><path
           class="st0"
           d="m 667.4,173 c -15.3,-3.5 -19.6,19 -5.7,22.2 13.7,3.9 20.8,-18 5.7,-22.2 z"
           id="path79"
           inkscape:connector-curvature="0"
           style="fill:#9e9e9e" /><path
           class="st0"
           d="m 718.3,194.5 c -0.4,-1.4 -1.2,-2.7 -2.3,-3.9 -1.1,-1.2 -2.5,-2.2 -4.3,-2.9 -14.6,-5.8 -22,16 -8.8,21.2 1.7,0.6 3.3,0.9 4.8,0.9 1.5,0 2.9,-0.4 4.2,-1 2.5,-1.2 4.6,-3.4 5.8,-6 1.1,-2.6 1.4,-5.6 0.6,-8.3 z"
           id="path81"
           inkscape:connector-curvature="0"
           style="fill:#9e9e9e" /><path
           class="st0"
           d="m 757.6,224.7 c 1.6,-2.4 2.3,-5.3 1.8,-8.2 -0.5,-2.8 -2.1,-5.7 -5.5,-7.6 -13.6,-7.8 -24.1,12.6 -11.7,19.7 3.2,1.7 6.1,2.1 8.8,1.2 2.7,-0.8 5.1,-2.7 6.6,-5.1 z"
           id="path83"
           inkscape:connector-curvature="0"
           style="fill:#9e9e9e" /><path
           class="st0"
           d="m 796.7,243.9 c -0.1,-2.9 -1.3,-6 -4.4,-8.3 -12.4,-9.7 -25.6,9.1 -14.4,17.9 2.9,2.2 5.8,2.9 8.6,2.5 2.8,-0.4 5.4,-2 7.2,-4.2 1.9,-2.3 3.1,-5 3,-7.9 z"
           id="path85"
           inkscape:connector-curvature="0"
           style="fill:#9e9e9e" /><path
           class="st0"
           d="m 830.1,276.6 c 0.4,-2.9 -0.5,-6.1 -3.2,-8.9 -10.9,-11.4 -26.6,5.3 -16.8,15.6 2.5,2.6 5.3,3.7 8.1,3.6 2.8,0 5.6,-1.2 7.8,-3.1 2.1,-1.8 3.7,-4.3 4.1,-7.2 z"
           id="path87"
           inkscape:connector-curvature="0"
           style="fill:#9e9e9e" /><path
           class="st0"
           d="m 858.1,313.3 c 0.4,-1.4 0.5,-2.9 0.2,-4.5 -0.3,-1.6 -1,-3.1 -2.1,-4.7 -4.5,-6.4 -11.3,-6.1 -16,-2.6 -4.5,3.4 -7.1,9.9 -2.9,15.7 1,1.5 2.3,2.5 3.6,3.3 1.3,0.8 2.6,1.3 4,1.4 2.8,0.4 5.7,-0.4 8.1,-2 2.5,-1.5 4.4,-3.8 5.1,-6.6 z"
           id="path89"
           inkscape:connector-curvature="0"
           style="fill:#9e9e9e" /><path
           class="st0"
           d="m 862.9,358.7 c 1.1,1 2.4,1.6 3.8,2 2.7,0.8 5.7,0.4 8.3,-0.8 2.6,-1.2 4.8,-3.2 6,-5.9 0.6,-1.3 0.9,-2.8 0.9,-4.4 -0.1,-1.6 -0.5,-3.2 -1.4,-5 -3.6,-6.9 -10.3,-7.7 -15.4,-4.8 -5,2.7 -8.4,8.7 -5.1,15.1 0.7,1.7 1.7,2.9 2.9,3.8 z"
           id="path91"
           inkscape:connector-curvature="0"
           style="fill:#9e9e9e" /><path
           class="st0"
           d="m 877.3,386.1 c -1.4,2.5 -1.9,5.5 -0.8,8.9 2.4,6.8 8.7,8.7 14.3,7.1 5.5,-1.6 10.1,-7 7.5,-14.4 -1.2,-3.7 -3.5,-6 -6.2,-7.1 -2.7,-1.1 -5.7,-0.9 -8.4,0.1 -2.7,1.1 -5,3 -6.4,5.4 z"
           id="path93"
           inkscape:connector-curvature="0"
           style="fill:#9e9e9e" /><path
           class="st0"
           d="m 896.5,424.6 c -2.8,0.6 -5.4,2.1 -7.1,4.3 -1.7,2.2 -2.7,5.2 -2.1,8.7 0.6,3.6 2.5,6 5,7.5 2.4,1.5 5.3,2 8.2,1.6 2.8,-0.4 5.6,-1.7 7.4,-4 1.8,-2.2 2.7,-5.3 2,-9.1 -0.7,-3.8 -2.6,-6.4 -5.1,-7.9 -2.5,-1.4 -5.5,-1.7 -8.3,-1.1 z"
           id="path95"
           inkscape:connector-curvature="0"
           style="fill:#9e9e9e" /><path
           class="st0"
           d="m 895.2,472.5 c -1,1 -1.8,2.2 -2.3,3.6 -0.6,1.4 -0.9,3 -0.9,4.8 0.4,14.2 23.3,14.9 22.9,-0.8 -0.1,-1.9 -0.4,-3.6 -1.1,-5 -0.7,-1.4 -1.7,-2.6 -2.9,-3.5 -2.3,-1.8 -5.2,-2.5 -8.1,-2.3 -2.8,0.1 -5.6,1.2 -7.6,3.2 z"
           id="path97"
           inkscape:connector-curvature="0"
           style="fill:#9e9e9e" /></g></g></switch></svg>