<?xml version="1.0" encoding="UTF-8" standalone="no"?>
<svg
   xmlns:dc="http://purl.org/dc/elements/1.1/"
   xmlns:cc="http://creativecommons.org/ns#"
   xmlns:rdf="http://www.w3.org/1999/02/22-rdf-syntax-ns#"
   xmlns:svg="http://www.w3.org/2000/svg"
   xmlns="http://www.w3.org/2000/svg"
   xmlns:sodipodi="http://sodipodi.sourceforge.net/DTD/sodipodi-0.dtd"
   xmlns:inkscape="http://www.inkscape.org/namespaces/inkscape"
   version="1.1"
   id="l22"
   x="0px"
   y="0px"
   viewBox="0 0 1000 1000"
   width="100%"
   height="100%"
   style="enable-background:new 0 0 1000 1000;"
   xml:space="preserve"
    class="withFill"
  ><style
     type="text/css"
     id="style3">
	#l22 .st0{fill:#9E9E9E;}
	#l22 .st1{fill:#FFFFFF;}
</style><switch
     id="switch5"
     transform="translate(-54.6,-2.4)"><g
       id="g7"><g
         id="g9"><path
           class="st0"
           d="m 554.6,169.4 c -183.9,0 -333,149.1 -333,333 0,183.9 149.1,333 333,333 183.9,0 333,-149.1 333,-333 0,-183.9 -149.1,-333 -333,-333 z m 0,638.5 c -168.7,0 -305.5,-136.8 -305.5,-305.5 0,-168.7 136.8,-305.5 305.5,-305.5 168.7,0 305.5,136.8 305.5,305.5 0,168.8 -136.8,305.5 -305.5,305.5 z"
           id="path11"
           inkscape:connector-curvature="0"
           style="fill:#9e9e9e" /><path
           class="st1"
           d="m 554.6,196.9 c -168.7,0 -305.5,136.8 -305.5,305.5 0,168.7 136.8,305.5 305.5,305.5 168.7,0 305.5,-136.8 305.5,-305.5 0,-168.7 -136.8,-305.5 -305.5,-305.5 z m 0,597.2 C 393.5,794.1 263,663.5 263,502.4 263,341.3 393.6,210.8 554.6,210.8 c 161.1,0 291.6,130.6 291.6,291.6 0,161.1 -130.5,291.7 -291.6,291.7 z"
           id="path13"
           inkscape:connector-curvature="0"
           style="fill:#ffffff" /><path
           class="st0"
           d="M 554.6,210.8 C 393.5,210.8 263,341.4 263,502.4 263,663.5 393.6,794 554.6,794 715.7,794 846.2,663.4 846.2,502.4 846.2,341.4 715.7,210.8 554.6,210.8 Z m 0,509.1 c -120.1,0 -217.5,-97.4 -217.5,-217.5 0,-120.1 97.4,-217.5 217.5,-217.5 120.1,0 217.5,97.4 217.5,217.5 0,120.1 -97.4,217.5 -217.5,217.5 z"
           id="path15"
           inkscape:connector-curvature="0"
           style="fill:#9e9e9e" /><g
           id="g17"><path
             class="st1"
             d="m 787,514.3 c -3.2,-0.5 -6.9,1.2 -7.2,5.3 -0.3,4 3.1,6.3 6.3,6.3 2.8,0 5.4,-1.7 5.7,-5.4 0.3,-3.7 -2.1,-5.7 -4.8,-6.2 z"
             id="path19"
             inkscape:connector-curvature="0"
             style="fill:#ffffff" /><path
             class="st1"
             d="m 777,542.1 c -0.7,4 2.4,6.6 5.7,6.9 2.7,0.2 5.6,-1.1 6.2,-4.8 0.6,-3.6 -1.5,-5.9 -4.2,-6.6 -3.2,-0.8 -7,0.6 -7.7,4.5 z"
             id="path21"
             inkscape:connector-curvature="0"
             style="fill:#ffffff" /><path
             class="st1"
             d="m 771.8,564.6 c -1,3.6 1.4,6.4 4.2,7.3 0.2,0.1 0.5,0.1 0.7,0.2 2.7,0.5 5.7,-0.6 6.7,-4.1 1,-3.5 -0.9,-6 -3.5,-7 -3,-1.3 -7,-0.3 -8.1,3.6 z"
             id="path23"
             inkscape:connector-curvature="0"
             style="fill:#ffffff" /><path
             class="st1"
             d="m 764.5,586.1 c -1.4,3.5 0.7,6.4 3.4,7.6 0.2,0.1 0.5,0.2 0.7,0.2 2.7,0.8 5.7,0 7.1,-3.4 1.3,-3.4 -0.3,-6.1 -2.8,-7.3 -2.9,-1.4 -6.9,-0.9 -8.4,2.9 z"
             id="path25"
             inkscape:connector-curvature="0"
             style="fill:#ffffff" /><path
             class="st1"
             d="m 754.9,607 c -1.7,3.4 0,6.5 2.6,7.9 0.2,0.1 0.5,0.2 0.7,0.3 2.5,1.1 5.8,0.6 7.4,-2.7 1.7,-3.3 0.3,-6.1 -2,-7.6 -2.8,-1.6 -6.9,-1.5 -8.7,2.1 z"
             id="path27"
             inkscape:connector-curvature="0"
             style="fill:#ffffff" /><path
             class="st1"
             d="m 743.3,626.6 c -2,3.2 -0.7,6.4 1.8,8.1 0.2,0.2 0.5,0.3 0.7,0.4 2.4,1.3 5.7,1.2 7.6,-1.9 2,-3.1 0.9,-6 -1.3,-7.8 -2.5,-1.9 -6.6,-2.2 -8.8,1.2 z"
             id="path29"
             inkscape:connector-curvature="0"
             style="fill:#ffffff" /><path
             class="st1"
             d="m 729.7,645.2 c -2.6,3.1 -1.2,6.9 1.6,8.7 2.3,1.5 5.4,1.7 7.8,-1.1 2.3,-2.9 1.5,-5.9 -0.5,-7.9 -2.4,-2.2 -6.4,-2.9 -8.9,0.3 z"
             id="path31"
             inkscape:connector-curvature="0"
             style="fill:#ffffff" /><path
             class="st1"
             d="m 714.5,662.1 c -3,2.8 -1.9,6.7 0.7,8.8 2.1,1.7 5.2,2.2 7.9,-0.3 2.5,-2.6 2,-5.8 0.3,-7.9 -2.2,-2.5 -6.1,-3.6 -8.9,-0.6 z"
             id="path33"
             inkscape:connector-curvature="0"
             style="fill:#ffffff" /><path
             class="st1"
             d="m 697.4,677.5 c -3.2,2.5 -2.5,6.5 -0.2,8.9 1.9,2 5,2.7 7.9,0.5 2.8,-2.4 2.6,-5.5 1.1,-7.8 -1.9,-2.7 -5.7,-4.2 -8.8,-1.6 z"
             id="path35"
             inkscape:connector-curvature="0"
             style="fill:#ffffff" /><path
             class="st1"
             d="m 679,691 c -3.4,2.2 -3.1,6.3 -1.1,8.8 1.7,2.1 4.7,3.2 7.8,1.3 3.1,-1.9 3.2,-5.2 1.9,-7.6 -0.1,-0.2 -0.3,-0.5 -0.4,-0.7 -1.8,-2.6 -5,-3.8 -8.2,-1.8 z"
             id="path37"
             inkscape:connector-curvature="0"
             style="fill:#ffffff" /><path
             class="st1"
             d="m 659.2,702.7 c -3.6,1.9 -3.8,5.9 -2,8.7 1.5,2.3 4.3,3.7 7.6,2 3.3,-1.6 3.7,-4.8 2.7,-7.4 -0.1,-0.2 -0.2,-0.5 -0.3,-0.7 -1.5,-2.7 -4.6,-4.3 -8,-2.6 z"
             id="path39"
             inkscape:connector-curvature="0"
             style="fill:#ffffff" /><path
             class="st1"
             d="m 643.2,712.4 c -1.3,-0.7 -2.9,-0.9 -4.7,-0.2 -3.8,1.5 -4.3,5.5 -2.8,8.4 1.2,2.5 3.9,4.1 7.3,2.8 1.9,-0.7 3,-2 3.4,-3.4 0.4,-1.2 0.3,-2.5 0,-3.7 -0.1,-0.2 -0.1,-0.5 -0.2,-0.7 -0.6,-1.4 -1.7,-2.6 -3,-3.2 z"
             id="path41"
             inkscape:connector-curvature="0"
             style="fill:#ffffff" /><path
             class="st1"
             d="m 616.8,719.6 c -3.9,1.1 -4.9,5.1 -3.7,8.1 1,2.6 3.5,4.5 7,3.5 3.5,-1 4.7,-3.9 4.1,-6.7 0,-0.2 -0.1,-0.5 -0.2,-0.7 -0.9,-2.8 -3.6,-5.2 -7.2,-4.2 z"
             id="path43"
             inkscape:connector-curvature="0"
             style="fill:#ffffff" /><path
             class="st1"
             d="m 594.6,724.8 c -4,0.7 -5.3,4.6 -4.5,7.7 0.7,2.7 3,4.8 6.6,4.2 3.6,-0.6 5,-3.5 4.8,-6.2 -0.3,-3.3 -2.9,-6.4 -6.9,-5.7 z"
             id="path45"
             inkscape:connector-curvature="0"
             style="fill:#ffffff" /><path
             class="st1"
             d="m 571.8,727.7 c -4,0.3 -5.8,4 -5.3,7.2 0.4,2.7 2.5,5.1 6.2,4.8 3.7,-0.3 5.3,-2.9 5.4,-5.7 0,-3.3 -2.3,-6.7 -6.3,-6.3 z"
             id="path47"
             inkscape:connector-curvature="0"
             style="fill:#ffffff" /><path
             class="st1"
             d="m 549,728.2 c -4.1,-0.1 -6.1,3.4 -5.9,6.6 0.2,2.7 2,5.3 5.7,5.4 3.7,0.1 5.6,-2.4 5.9,-5.1 0.3,-3.2 -1.6,-6.8 -5.7,-6.9 z"
             id="path49"
             inkscape:connector-curvature="0"
             style="fill:#ffffff" /><path
             class="st1"
             d="m 526.1,726.5 c -4,-0.5 -6.5,2.8 -6.6,6 -0.1,2.8 1.4,5.5 5.1,6 3.7,0.5 5.8,-1.8 6.4,-4.5 0.6,-3.2 -0.9,-7 -4.9,-7.5 z"
             id="path51"
             inkscape:connector-curvature="0"
             style="fill:#ffffff" /><path
             class="st1"
             d="m 503.7,722.5 c -4,-0.9 -6.7,2.1 -7.2,5.3 -0.4,2.7 0.9,5.6 4.4,6.4 3.6,0.8 6,-1.2 6.8,-3.9 1.1,-2.9 -0.1,-6.8 -4,-7.8 z"
             id="path53"
             inkscape:connector-curvature="0"
             style="fill:#ffffff" /><path
             class="st1"
             d="m 481.5,716.2 c -3.6,-1.2 -6.4,1 -7.5,3.8 -0.1,0.2 -0.1,0.5 -0.2,0.7 -0.7,2.7 0.3,5.7 3.8,6.9 3.5,1.2 6.1,-0.6 7.2,-3.1 1.3,-3 0.6,-7 -3.3,-8.3 z"
             id="path55"
             inkscape:connector-curvature="0"
             style="fill:#ffffff" /><path
             class="st1"
             d="m 460.4,707.8 c -1.7,-0.8 -3.3,-0.7 -4.7,-0.1 -1.3,0.6 -2.4,1.7 -3.1,3.1 -0.1,0.2 -0.2,0.5 -0.3,0.7 -0.4,1.2 -0.5,2.5 -0.2,3.7 0.4,1.4 1.4,2.7 3.3,3.6 3.4,1.5 6.1,0 7.5,-2.4 1.5,-2.9 1.2,-6.9 -2.5,-8.6 z"
             id="path57"
             inkscape:connector-curvature="0"
             style="fill:#ffffff" /><path
             class="st1"
             d="m 440,697.1 c -3.3,-1.8 -6.4,-0.4 -8,2.2 -0.1,0.2 -0.3,0.5 -0.4,0.7 -1.2,2.5 -0.9,5.7 2.3,7.5 3.2,1.8 6.1,0.6 7.7,-1.6 1.9,-2.7 1.9,-6.7 -1.6,-8.8 z"
             id="path59"
             inkscape:connector-curvature="0"
             style="fill:#ffffff" /><path
             class="st1"
             d="m 421,684.6 c -3.1,-2.2 -6.3,-1.1 -8.2,1.3 -0.2,0.2 -0.3,0.4 -0.4,0.7 -1.4,2.3 -1.5,5.6 1.5,7.7 3,2.1 6,1.2 7.8,-0.9 2.1,-2.4 2.6,-6.4 -0.7,-8.8 z"
             id="path61"
             inkscape:connector-curvature="0"
             style="fill:#ffffff" /><path
             class="st1"
             d="m 403.1,670.1 c -3,-2.8 -6.8,-1.5 -8.8,1.1 -1.6,2.2 -2,5.3 0.7,7.8 2.8,2.4 5.8,1.8 7.9,-0.1 2.4,-2.2 3.3,-6.1 0.2,-8.8 z"
             id="path63"
             inkscape:connector-curvature="0"
             style="fill:#ffffff" /><path
             class="st1"
             d="m 387,654 c -2.7,-3.1 -6.6,-2.2 -8.9,0.2 -1.9,2 -2.5,5.1 -0.1,7.9 2.5,2.7 5.6,2.3 7.8,0.7 2.8,-2 4,-5.8 1.2,-8.8 z"
             id="path65"
             inkscape:connector-curvature="0"
             style="fill:#ffffff" /><path
             class="st1"
             d="m 372.5,636.2 c -2.4,-3.3 -6.4,-2.8 -8.9,-0.7 -2.1,1.8 -3,4.8 -0.9,7.8 2.1,3 5.4,2.9 7.7,1.5 0.2,-0.1 0.5,-0.3 0.7,-0.4 2.5,-1.9 3.6,-5.2 1.4,-8.2 z"
             id="path67"
             inkscape:connector-curvature="0"
             style="fill:#ffffff" /><path
             class="st1"
             d="m 360,617.2 c -2,-3.5 -6.1,-3.5 -8.8,-1.5 -2.2,1.6 -3.5,4.5 -1.6,7.7 1.8,3.2 5,3.4 7.5,2.3 0.2,-0.1 0.5,-0.2 0.7,-0.4 2.6,-1.7 4,-4.8 2.2,-8.1 z"
             id="path69"
             inkscape:connector-curvature="0"
             style="fill:#ffffff" /><path
             class="st1"
             d="m 349.3,596.8 c -1.7,-3.7 -5.7,-4 -8.6,-2.4 -2.4,1.4 -3.9,4.1 -2.4,7.5 1.5,3.3 4.6,4 7.2,3 0.2,-0.1 0.5,-0.2 0.7,-0.3 2.8,-1.4 4.6,-4.4 3.1,-7.8 z"
             id="path71"
             inkscape:connector-curvature="0"
             style="fill:#ffffff" /><path
             class="st1"
             d="m 340.8,575.7 c -1.3,-3.8 -5.3,-4.6 -8.3,-3.3 -2.5,1.1 -4.3,3.7 -3.1,7.2 1.2,3.5 4.2,4.4 6.9,3.8 0.2,-0.1 0.5,-0.1 0.7,-0.2 2.8,-1.1 5,-4 3.8,-7.5 z"
             id="path73"
             inkscape:connector-curvature="0"
             style="fill:#ffffff" /><path
             class="st1"
             d="m 334.5,553.5 c -0.9,-4 -4.8,-5.1 -7.9,-4.1 -2.6,0.8 -4.7,3.2 -3.8,6.8 0.8,3.6 3.7,4.8 6.5,4.4 3.1,-0.4 6.1,-3.1 5.2,-7.1 z"
             id="path75"
             inkscape:connector-curvature="0"
             style="fill:#ffffff" /><path
             class="st1"
             d="m 330.5,531.1 c -0.5,-4 -4.3,-5.6 -7.5,-4.9 -2.7,0.6 -5,2.7 -4.5,6.4 0.5,3.7 3.2,5.2 6,5.1 3.3,-0.1 6.5,-2.5 6,-6.6 z"
             id="path77"
             inkscape:connector-curvature="0"
             style="fill:#ffffff" /><path
             class="st1"
             d="m 328.8,508.2 c -0.1,-4.1 -3.7,-6 -6.9,-5.6 -2.7,0.3 -5.2,2.2 -5.1,5.9 0.1,3.7 2.7,5.5 5.4,5.6 3.2,0.2 6.7,-1.9 6.6,-5.9 z"
             id="path79"
             inkscape:connector-curvature="0"
             style="fill:#ffffff" /><path
             class="st1"
             d="m 329.3,485.4 c 0.3,-4 -3.1,-6.3 -6.3,-6.3 -2.8,0 -5.4,1.7 -5.7,5.4 -0.3,3.7 2.1,5.7 4.8,6.2 3.3,0.5 6.9,-1.2 7.2,-5.3 z"
             id="path81"
             inkscape:connector-curvature="0"
             style="fill:#ffffff" /><path
             class="st1"
             d="m 332.2,462.6 c 0.7,-4 -2.4,-6.6 -5.7,-6.9 -2.7,-0.2 -5.6,1.1 -6.2,4.8 -0.6,3.6 1.5,5.9 4.2,6.6 3.2,0.8 7,-0.5 7.7,-4.5 z"
             id="path83"
             inkscape:connector-curvature="0"
             style="fill:#ffffff" /><path
             class="st1"
             d="m 337.3,440.4 c 1.1,-3.9 -1.7,-6.8 -4.9,-7.4 -2.7,-0.5 -5.7,0.6 -6.7,4.1 -1,3.5 0.9,6 3.5,7 3.1,1.2 7,0.2 8.1,-3.7 z"
             id="path85"
             inkscape:connector-curvature="0"
             style="fill:#ffffff" /><path
             class="st1"
             d="m 344.8,418.6 c 1.4,-3.5 -0.7,-6.4 -3.4,-7.6 -0.2,-0.1 -0.5,-0.2 -0.7,-0.2 -2.7,-0.8 -5.7,0 -7.1,3.4 -1.3,3.4 0.3,6.1 2.8,7.3 2.8,1.5 6.9,0.9 8.4,-2.9 z"
             id="path87"
             inkscape:connector-curvature="0"
             style="fill:#ffffff" /><path
             class="st1"
             d="m 354.3,398 c 1.7,-3.4 0,-6.5 -2.6,-7.9 -0.2,-0.1 -0.5,-0.2 -0.7,-0.3 -2.5,-1.1 -5.8,-0.6 -7.4,2.7 -1.7,3.3 -0.3,6.1 2,7.6 2.7,1.6 6.8,1.5 8.7,-2.1 z"
             id="path89"
             inkscape:connector-curvature="0"
             style="fill:#ffffff" /><path
             class="st1"
             d="m 365.9,378.1 c 2,-3.2 0.8,-6.4 -1.8,-8.1 -0.2,-0.2 -0.5,-0.3 -0.7,-0.4 -2.4,-1.3 -5.7,-1.2 -7.6,1.9 -2,3.1 -0.9,6 1.3,7.8 2.6,2 6.6,2.3 8.8,-1.2 z"
             id="path91"
             inkscape:connector-curvature="0"
             style="fill:#ffffff" /><path
             class="st1"
             d="m 379.4,359.8 c 2.4,-2.9 1.4,-6.3 -0.9,-8.3 -0.2,-0.2 -0.4,-0.3 -0.7,-0.5 -2.3,-1.5 -5.5,-1.7 -7.8,1.1 -2.3,2.9 -1.5,5.9 0.5,7.9 2.4,2.3 6.4,3 8.9,-0.2 z"
             id="path93"
             inkscape:connector-curvature="0"
             style="fill:#ffffff" /><path
             class="st1"
             d="m 394.8,342.7 c 3,-2.8 1.9,-6.7 -0.7,-8.8 -2.1,-1.7 -5.2,-2.2 -7.9,0.3 -2.5,2.6 -2,5.8 -0.3,7.9 2.2,2.4 6.1,3.5 8.9,0.6 z"
             id="path95"
             inkscape:connector-curvature="0"
             style="fill:#ffffff" /><path
             class="st1"
             d="m 411.7,327.4 c 3.2,-2.5 2.5,-6.5 0.2,-8.9 -1.9,-2 -5,-2.7 -7.9,-0.5 -2.8,2.4 -2.6,5.5 -1.1,7.8 1.9,2.8 5.7,4.3 8.8,1.6 z"
             id="path97"
             inkscape:connector-curvature="0"
             style="fill:#ffffff" /><path
             class="st1"
             d="m 430.3,313.8 c 3.4,-2.2 3.1,-6.3 1.1,-8.8 -1.7,-2.1 -4.7,-3.2 -7.8,-1.3 -3.1,1.9 -3.2,5.2 -1.9,7.6 0.1,0.2 0.3,0.5 0.4,0.7 1.8,2.5 5,3.8 8.2,1.8 z"
             id="path99"
             inkscape:connector-curvature="0"
             style="fill:#ffffff" /><path
             class="st1"
             d="m 449.9,302.2 c 3.6,-1.9 3.7,-5.9 2,-8.7 -1.5,-2.3 -4.3,-3.7 -7.6,-2 -3.3,1.6 -3.7,4.8 -2.7,7.4 0.1,0.2 0.2,0.5 0.3,0.7 1.5,2.7 4.6,4.3 8,2.6 z"
             id="path101"
             inkscape:connector-curvature="0"
             style="fill:#ffffff" /><path
             class="st1"
             d="m 470.8,292.6 c 3.8,-1.5 4.3,-5.5 2.9,-8.4 -1.2,-2.5 -3.9,-4.1 -7.3,-2.8 -3.4,1.3 -4.2,4.4 -3.4,7.1 0.1,0.2 0.1,0.5 0.2,0.7 1.1,2.8 4,4.8 7.6,3.4 z"
             id="path103"
             inkscape:connector-curvature="0"
             style="fill:#ffffff" /><path
             class="st1"
             d="m 492.3,285.3 c 3.9,-1.1 4.9,-5.1 3.7,-8.1 -1,-2.6 -3.5,-4.5 -7,-3.5 -3.5,1 -4.6,4 -4.1,6.7 0,0.3 0.1,0.5 0.2,0.7 0.8,2.8 3.6,5.2 7.2,4.2 z"
             id="path105"
             inkscape:connector-curvature="0"
             style="fill:#ffffff" /><path
             class="st1"
             d="m 514.7,280.1 c 4,-0.7 5.3,-4.6 4.5,-7.7 -0.7,-2.7 -3,-4.8 -6.6,-4.2 -3.6,0.6 -5,3.5 -4.8,6.2 0.3,3.2 2.9,6.4 6.9,5.7 z"
             id="path107"
             inkscape:connector-curvature="0"
             style="fill:#ffffff" /><path
             class="st1"
             d="m 537.3,277.2 c 4,-0.3 5.8,-4 5.3,-7.2 -0.4,-2.7 -2.5,-5.1 -6.2,-4.8 -3.7,0.3 -5.3,2.9 -5.4,5.7 0,3.2 2.2,6.6 6.3,6.3 z"
             id="path109"
             inkscape:connector-curvature="0"
             style="fill:#ffffff" /><path
             class="st1"
             d="m 560.3,276.6 c 4.1,0.1 6.1,-3.4 5.9,-6.6 -0.2,-2.7 -2,-5.3 -5.6,-5.4 -3.7,-0.1 -5.6,2.4 -5.9,5.1 -0.4,3.2 1.5,6.8 5.6,6.9 z"
             id="path111"
             inkscape:connector-curvature="0"
             style="fill:#ffffff" /><path
             class="st1"
             d="m 583,278.3 c 4,0.5 6.5,-2.8 6.6,-6 0.1,-2.8 -1.4,-5.5 -5.1,-6 -3.7,-0.5 -5.8,1.8 -6.4,4.5 -0.7,3.3 0.9,7 4.9,7.5 z"
             id="path113"
             inkscape:connector-curvature="0"
             style="fill:#ffffff" /><path
             class="st1"
             d="m 605.7,282.4 c 4,0.9 6.7,-2.1 7.2,-5.3 0.4,-2.7 -0.9,-5.6 -4.4,-6.4 -3.6,-0.8 -6,1.2 -6.8,3.8 -1.2,3 0,6.9 4,7.9 z"
             id="path115"
             inkscape:connector-curvature="0"
             style="fill:#ffffff" /><path
             class="st1"
             d="m 627.5,288.6 c 3.6,1.2 6.4,-1 7.5,-3.8 0.1,-0.2 0.1,-0.5 0.2,-0.7 0.7,-2.7 -0.3,-5.7 -3.8,-6.9 -3.5,-1.2 -6.1,0.6 -7.2,3.1 -1.3,3 -0.5,7 3.3,8.3 z"
             id="path117"
             inkscape:connector-curvature="0"
             style="fill:#ffffff" /><path
             class="st1"
             d="m 648.9,297.1 c 3.4,1.5 6.5,-0.3 7.8,-3 0.1,-0.2 0.2,-0.5 0.3,-0.7 0.9,-2.6 0.3,-5.8 -3,-7.2 -3.3,-1.5 -6.1,0 -7.5,2.4 -1.6,2.8 -1.3,6.8 2.4,8.5 z"
             id="path119"
             inkscape:connector-curvature="0"
             style="fill:#ffffff" /><path
             class="st1"
             d="m 669.1,307.7 c 3.3,1.8 6.4,0.4 8,-2.2 0.1,-0.2 0.2,-0.5 0.4,-0.7 1.2,-2.5 0.9,-5.7 -2.3,-7.5 -3.2,-1.8 -6.1,-0.6 -7.7,1.6 -1.9,2.7 -2,6.7 1.6,8.8 z"
             id="path121"
             inkscape:connector-curvature="0"
             style="fill:#ffffff" /><path
             class="st1"
             d="m 688.3,320.3 c 3.1,2.2 6.3,1.1 8.2,-1.3 0.2,-0.2 0.3,-0.4 0.4,-0.7 1.4,-2.3 1.5,-5.6 -1.5,-7.7 -3,-2.1 -6,-1.2 -7.8,0.9 -2.2,2.4 -2.6,6.5 0.7,8.8 z"
             id="path123"
             inkscape:connector-curvature="0"
             style="fill:#ffffff" /><path
             class="st1"
             d="m 705.9,334.7 c 3,2.8 6.8,1.5 8.8,-1.1 1.6,-2.2 2,-5.3 -0.7,-7.8 -2.8,-2.4 -5.8,-1.8 -7.9,0.1 -2.4,2.1 -3.3,6.1 -0.2,8.8 z"
             id="path125"
             inkscape:connector-curvature="0"
             style="fill:#ffffff" /><path
             class="st1"
             d="m 722.2,351 c 2.7,3.1 6.6,2.2 8.9,-0.2 1.9,-2 2.5,-5.1 0.1,-7.9 -2.5,-2.7 -5.6,-2.3 -7.8,-0.7 -2.7,1.9 -4,5.8 -1.2,8.8 z"
             id="path127"
             inkscape:connector-curvature="0"
             style="fill:#ffffff" /><path
             class="st1"
             d="m 736.6,368.6 c 2.4,3.3 6.4,2.8 8.9,0.7 2.1,-1.8 3,-4.8 0.9,-7.8 -2.1,-3 -5.4,-2.9 -7.7,-1.5 -0.2,0.1 -0.5,0.3 -0.7,0.4 -2.5,1.9 -3.6,5.1 -1.4,8.2 z"
             id="path129"
             inkscape:connector-curvature="0"
             style="fill:#ffffff" /><path
             class="st1"
             d="m 749.3,387.8 c 2,3.5 6.1,3.5 8.8,1.5 2.2,-1.6 3.5,-4.5 1.6,-7.7 -1.8,-3.2 -5,-3.5 -7.5,-2.3 -0.2,0.1 -0.5,0.2 -0.7,0.4 -2.6,1.7 -4,4.8 -2.2,8.1 z"
             id="path131"
             inkscape:connector-curvature="0"
             style="fill:#ffffff" /><path
             class="st1"
             d="m 759.8,408 c 1.7,3.7 5.7,4 8.6,2.4 2.4,-1.4 3.9,-4.1 2.4,-7.5 -1.5,-3.3 -4.6,-4 -7.2,-3 -0.2,0.1 -0.5,0.2 -0.7,0.3 -2.8,1.3 -4.6,4.3 -3.1,7.8 z"
             id="path133"
             inkscape:connector-curvature="0"
             style="fill:#ffffff" /><path
             class="st1"
             d="m 768.4,429.3 c 1.3,3.8 5.3,4.6 8.3,3.3 2.5,-1.1 4.3,-3.7 3.1,-7.2 -1.2,-3.5 -4.2,-4.4 -6.9,-3.8 -0.2,0.1 -0.5,0.1 -0.7,0.2 -2.8,1.1 -5,4 -3.8,7.5 z"
             id="path135"
             inkscape:connector-curvature="0"
             style="fill:#ffffff" /><path
             class="st1"
             d="m 774.6,451.2 c 0.9,4 4.8,5.1 7.9,4.1 2.6,-0.8 4.7,-3.2 3.8,-6.8 -0.8,-3.6 -3.7,-4.8 -6.5,-4.4 -3.1,0.4 -6.1,3.2 -5.2,7.1 z"
             id="path137"
             inkscape:connector-curvature="0"
             style="fill:#ffffff" /><path
             class="st1"
             d="m 778.7,473.9 c 0.5,4 4.3,5.6 7.5,4.9 2.7,-0.6 5,-2.7 4.5,-6.4 -0.5,-3.7 -3.2,-5.2 -6,-5.1 -3.3,0.1 -6.5,2.5 -6,6.6 z"
             id="path139"
             inkscape:connector-curvature="0"
             style="fill:#ffffff" /><path
             class="st1"
             d="m 780.4,496.6 c 0.1,4.1 3.7,6 6.9,5.6 2.7,-0.3 5.2,-2.2 5.1,-5.9 -0.1,-3.7 -2.7,-5.5 -5.4,-5.6 -3.2,-0.3 -6.7,1.8 -6.6,5.9 z"
             id="path141"
             inkscape:connector-curvature="0"
             style="fill:#ffffff" /></g></g></g></switch></svg>