<?xml version="1.0" encoding="UTF-8" standalone="no"?>
<svg
   xmlns:dc="http://purl.org/dc/elements/1.1/"
   xmlns:cc="http://creativecommons.org/ns#"
   xmlns:rdf="http://www.w3.org/1999/02/22-rdf-syntax-ns#"
   xmlns:svg="http://www.w3.org/2000/svg"
   xmlns="http://www.w3.org/2000/svg"
   xmlns:sodipodi="http://sodipodi.sourceforge.net/DTD/sodipodi-0.dtd"
   xmlns:inkscape="http://www.inkscape.org/namespaces/inkscape"
   version="1.1"
   id="l28"
   x="0px"
   y="0px"
   viewBox="0 0 1000 1000"
   width="100%"
   height="100%"
   style="enable-background:new 0 0 1000 1000;"
   xml:space="preserve"
   ><style
     type="text/css"
     id="style3">
	#l28 .st0{fill:#FFFFFF;}
</style><switch
     id="switch5"
     transform="translate(-52.6,-10.25)"><g
       id="g7"><g
         id="g9"><path
           d="m 918.8,526.5 c -2.4,-10.7 -2.4,-21.8 0,-32.5 l 8.4,-36.8 c 4.9,-21.6 -0.2,-44.4 -14.1,-61.7 L 889.6,366 C 882.8,357.4 878,347.4 875.5,336.8 L 867.1,300 c -4.9,-21.6 -19.5,-39.9 -39.5,-49.5 l -34,-16.4 c -9.9,-4.8 -18.5,-11.7 -25.4,-20.2 l -23.5,-29.5 c -13.8,-17.4 -34.8,-27.5 -57,-27.5 l -37.7,0 c -11,0 -21.8,-2.5 -31.6,-7.2 l -34,-16.4 c -20,-9.6 -43.3,-9.6 -63.3,0 l -34,16.4 c -9.9,4.8 -20.7,7.2 -31.6,7.2 l -37.7,0 c -22.2,0 -43.2,10.1 -57,27.5 L 337,213.9 c -6.8,8.6 -15.5,15.5 -25.4,20.2 l -34,16.4 c -20,9.6 -34.5,27.8 -39.5,49.5 l -8.4,36.8 c -2.4,10.7 -7.3,20.7 -14.1,29.2 l -23.5,29.5 c -13.8,17.4 -19,40.1 -14.1,61.7 l 8.4,36.8 c 2.4,10.7 2.4,21.8 0,32.5 l -8.4,36.8 c -4.9,21.6 0.2,44.4 14.1,61.7 l 23.5,29.5 c 6.8,8.6 11.6,18.6 14.1,29.2 l 8.4,36.8 c 4.9,21.6 19.5,39.9 39.5,49.5 l 34,16.4 c 9.9,4.8 18.5,11.7 25.4,20.2 l 23.5,29.5 c 13.8,17.4 34.8,27.5 57,27.5 l 37.7,0 c 11,0 21.8,2.5 31.6,7.2 l 34,16.4 c 20,9.6 43.3,9.6 63.3,0 l 34,-16.4 c 9.9,-4.8 20.7,-7.2 31.6,-7.2 l 37.7,0 c 22.2,0 43.2,-10.1 57,-27.5 l 23.5,-29.5 c 6.8,-8.6 15.5,-15.5 25.4,-20.2 l 34,-16.4 c 20,-9.6 34.5,-27.8 39.5,-49.5 l 8.4,-36.8 c 2.4,-10.7 7.3,-20.7 14.1,-29.2 L 912.8,625 c 13.8,-17.4 19,-40.1 14.1,-61.7 l -8.1,-36.8 z m -366.2,314 C 370.5,840.5 222.4,692.4 222.4,510.3 222.4,328.2 370.5,180 552.6,180 c 182.1,0 330.2,148.1 330.2,330.2 0,182.1 -148.1,330.3 -330.2,330.3 z"
           id="path11"
           inkscape:connector-curvature="0" /><circle
           cx="552.59998"
           cy="510.20001"
           r="324.89999"
           id="circle13" /><path
           class="st0"
           d="m 552.6,180 c -182.1,0 -330.2,148.1 -330.2,330.2 0,182.1 148.1,330.2 330.2,330.2 182.1,0 330.2,-148.1 330.2,-330.2 C 882.8,328.1 734.7,180 552.6,180 Z m 0,655.2 c -179.2,0 -324.9,-145.8 -324.9,-324.9 0,-179.1 145.8,-324.9 324.9,-324.9 179.1,0 324.9,145.8 324.9,324.9 0,179.1 -145.7,324.9 -324.9,324.9 z"
           id="path15"
           inkscape:connector-curvature="0"
           style="fill:#ffffff" /></g></g></switch></svg>