<?xml version="1.0" encoding="UTF-8" standalone="no"?>
<svg
   xmlns:dc="http://purl.org/dc/elements/1.1/"
   xmlns:cc="http://creativecommons.org/ns#"
   xmlns:rdf="http://www.w3.org/1999/02/22-rdf-syntax-ns#"
   xmlns:svg="http://www.w3.org/2000/svg"
   xmlns="http://www.w3.org/2000/svg"
   xmlns:sodipodi="http://sodipodi.sourceforge.net/DTD/sodipodi-0.dtd"
   xmlns:inkscape="http://www.inkscape.org/namespaces/inkscape"
   version="1.1"
   id="Layer_1"
   x="0px"
   y="0px"
    class="withFill"
   viewBox="0 0 1000 1000"
   width="100%"
   height="100%"
   style="enable-background:new 0 0 1000 1000;"
   xml:space="preserve"
   ><style
     type="text/css"
     id="style3">
	.st0{stroke:#FFFFFF;stroke-width:4;stroke-miterlimit:10;}
	.st1{fill:#FFFFFF;}
</style><switch
     id="switch5"
     transform="translate(-30.75,5.25)"><g
       id="g7"><g
         id="g9"><polygon
           points="692.5,158.9 745.5,225.4 822.2,262.4 841.1,345.3 894.2,411.8 875.3,494.8 894.2,577.7 841.1,644.2 822.2,727.2 745.5,764.1 692.5,830.6 607.4,830.6 530.8,867.5 454.1,830.6 369,830.6 316,764.1 239.3,727.2 220.4,644.2 167.3,577.7 186.3,494.8 167.3,411.8 220.4,345.3 239.3,262.4 316,225.4 369,158.9 454.1,158.9 530.8,122 607.4,158.9 "
           id="polygon11" /><circle
           class="st0"
           cx="530.79999"
           cy="494.79999"
           r="301.5"
           id="circle13"
           style="stroke:#ffffff;stroke-width:4;stroke-miterlimit:10" /><g
           id="g15"><path
             class="st1"
             d="m 808.3,504.1 c -0.1,4.1 6.3,4.4 6.5,0.2 0,-4.2 -6.4,-4.3 -6.5,-0.2 z"
             id="path17"
             inkscape:connector-curvature="0"
             style="fill:#ffffff" /><path
             class="st1"
             d="m 807.6,516.5 c -0.3,4.1 6.1,4.7 6.4,0.5 0.4,-4.2 -6.1,-4.6 -6.4,-0.5 z"
             id="path19"
             inkscape:connector-curvature="0"
             style="fill:#ffffff" /><path
             class="st1"
             d="m 806.3,529 c -0.5,4.1 5.9,5 6.4,0.8 0.6,-4.2 -5.8,-4.9 -6.4,-0.8 z"
             id="path21"
             inkscape:connector-curvature="0"
             style="fill:#ffffff" /><path
             class="st1"
             d="m 804.6,541.2 c -0.7,4 5.6,5.2 6.4,1.1 0.7,-4.2 -5.7,-5.1 -6.4,-1.1 z"
             id="path23"
             inkscape:connector-curvature="0"
             style="fill:#ffffff" /><path
             class="st1"
             d="m 802.2,553.5 c -0.9,4 5.4,5.5 6.3,1.4 1,-4.1 -5.4,-5.4 -6.3,-1.4 z"
             id="path25"
             inkscape:connector-curvature="0"
             style="fill:#ffffff" /><path
             class="st1"
             d="m 803.3,563.4 c -1.6,-0.4 -3.3,0.2 -3.9,2.2 -1.1,3.9 5.1,5.7 6.2,1.6 0.6,-2 -0.8,-3.4 -2.3,-3.8 z"
             id="path27"
             inkscape:connector-curvature="0"
             style="fill:#ffffff" /><path
             class="st1"
             d="m 795.9,577.7 c -1.3,3.9 4.8,5.9 6.2,1.9 1.2,-4.1 -5,-5.9 -6.2,-1.9 z"
             id="path29"
             inkscape:connector-curvature="0"
             style="fill:#ffffff" /><path
             class="st1"
             d="m 792,589.4 c -1.4,3.8 4.6,6.2 6.1,2.2 1.3,-4 -4.8,-6.1 -6.1,-2.2 z"
             id="path31"
             inkscape:connector-curvature="0"
             style="fill:#ffffff" /><path
             class="st1"
             d="m 787.4,601.1 c -0.7,1.9 0.3,3.5 1.8,4.1 1.5,0.6 3.4,0.3 4.2,-1.6 1.5,-4 -4.5,-6.3 -6,-2.5 z"
             id="path33"
             inkscape:connector-curvature="0"
             style="fill:#ffffff" /><path
             class="st1"
             d="m 782.4,612.4 c -1.7,3.7 4.1,6.6 5.8,2.7 1.8,-3.8 -4.1,-6.4 -5.8,-2.7 z"
             id="path35"
             inkscape:connector-curvature="0"
             style="fill:#ffffff" /><path
             class="st1"
             d="m 776.8,623.6 c -1.9,3.6 3.8,6.8 5.7,3 2,-3.7 -3.8,-6.6 -5.7,-3 z"
             id="path37"
             inkscape:connector-curvature="0"
             style="fill:#ffffff" /><path
             class="st1"
             d="m 770.8,634.5 c -2,3.6 3.5,6.9 5.6,3.3 2.1,-3.8 -3.6,-6.9 -5.6,-3.3 z"
             id="path39"
             inkscape:connector-curvature="0"
             style="fill:#ffffff" /><path
             class="st1"
             d="m 764.2,645.1 c -2.2,3.5 3.1,7.1 5.4,3.5 2.4,-3.5 -3.1,-6.9 -5.4,-3.5 z"
             id="path41"
             inkscape:connector-curvature="0"
             style="fill:#ffffff" /><path
             class="st1"
             d="m 757.3,655.4 c -2.4,3.3 2.8,7.2 5.3,3.7 2.4,-3.4 -2.9,-7 -5.3,-3.7 z"
             id="path43"
             inkscape:connector-curvature="0"
             style="fill:#ffffff" /><path
             class="st1"
             d="m 749.8,665.5 c -2.5,3.2 2.5,7.3 5.1,4 2.6,-3.4 -2.6,-7.3 -5.1,-4 z"
             id="path45"
             inkscape:connector-curvature="0"
             style="fill:#ffffff" /><path
             class="st1"
             d="m 742,675.1 c -2.7,3.1 2.1,7.4 4.9,4.2 2.8,-3.2 -2.2,-7.3 -4.9,-4.2 z"
             id="path47"
             inkscape:connector-curvature="0"
             style="fill:#ffffff" /><path
             class="st1"
             d="m 733.6,684.4 c -2.8,3 1.8,7.5 4.7,4.4 3,-3 -1.8,-7.4 -4.7,-4.4 z"
             id="path49"
             inkscape:connector-curvature="0"
             style="fill:#ffffff" /><path
             class="st1"
             d="m 725,693.3 c -3,2.8 1.5,7.5 4.5,4.6 3,-2.9 -1.6,-7.5 -4.5,-4.6 z"
             id="path51"
             inkscape:connector-curvature="0"
             style="fill:#ffffff" /><path
             class="st1"
             d="m 715.8,701.8 c -3.1,2.7 1.1,7.6 4.3,4.8 1.6,-1.4 1.3,-3.3 0.2,-4.5 -1.1,-1.1 -2.9,-1.6 -4.5,-0.3 z"
             id="path53"
             inkscape:connector-curvature="0"
             style="fill:#ffffff" /><path
             class="st1"
             d="m 706.4,709.9 c -3.2,2.5 0.8,7.6 4.1,5 1.7,-1.3 1.4,-3.3 0.4,-4.5 -1.1,-1.2 -2.9,-1.7 -4.5,-0.5 z"
             id="path55"
             inkscape:connector-curvature="0"
             style="fill:#ffffff" /><path
             class="st1"
             d="m 696.5,717.6 c -3.3,2.4 0.4,7.6 3.9,5.2 3.3,-2.6 -0.6,-7.7 -3.9,-5.2 z"
             id="path57"
             inkscape:connector-curvature="0"
             style="fill:#ffffff" /><path
             class="st1"
             d="m 686.4,724.8 c -3.4,2.2 0.1,7.7 3.6,5.3 3.5,-2.4 -0.2,-7.7 -3.6,-5.3 z"
             id="path59"
             inkscape:connector-curvature="0"
             style="fill:#ffffff" /><path
             class="st1"
             d="m 675.9,731.6 c -1.7,1.1 -1.8,3 -1,4.4 0.8,1.4 2.6,2.3 4.4,1.1 3.5,-2.3 0,-7.7 -3.4,-5.5 z"
             id="path61"
             inkscape:connector-curvature="0"
             style="fill:#ffffff" /><path
             class="st1"
             d="m 665.2,737.8 c -1.8,1 -1.9,2.9 -1.2,4.4 0.8,1.4 2.5,2.4 4.3,1.3 3.7,-2.1 0.4,-7.7 -3.1,-5.7 z"
             id="path63"
             inkscape:connector-curvature="0"
             style="fill:#ffffff" /><path
             class="st1"
             d="m 654.1,743.7 c -3.6,1.9 -0.9,7.7 2.9,5.8 3.7,-2 0.7,-7.7 -2.9,-5.8 z"
             id="path65"
             inkscape:connector-curvature="0"
             style="fill:#ffffff" /><path
             class="st1"
             d="m 642.9,748.9 c -3.7,1.7 -1.3,7.7 2.6,5.9 3.8,-1.7 1.1,-7.6 -2.6,-5.9 z"
             id="path67"
             inkscape:connector-curvature="0"
             style="fill:#ffffff" /><path
             class="st1"
             d="m 631.3,753.7 c -3.8,1.5 -1.6,7.6 2.3,6 3.9,-1.5 1.5,-7.5 -2.3,-6 z"
             id="path69"
             inkscape:connector-curvature="0"
             style="fill:#ffffff" /><path
             class="st1"
             d="m 619.6,757.9 c -3.9,1.3 -1.9,7.5 2.1,6.1 4,-1.3 1.8,-7.4 -2.1,-6.1 z"
             id="path71"
             inkscape:connector-curvature="0"
             style="fill:#ffffff" /><path
             class="st1"
             d="m 607.7,761.7 c -3.9,1.1 -2.3,7.4 1.8,6.2 4,-1.2 2.1,-7.4 -1.8,-6.2 z"
             id="path73"
             inkscape:connector-curvature="0"
             style="fill:#ffffff" /><path
             class="st1"
             d="m 595.7,764.8 c -4,0.9 -2.6,7.2 1.5,6.3 4.1,-0.9 2.5,-7.2 -1.5,-6.3 z"
             id="path75"
             inkscape:connector-curvature="0"
             style="fill:#ffffff" /><path
             class="st1"
             d="m 583.4,767.5 c -4,0.7 -3,7.1 1.2,6.3 4.2,-0.7 2.9,-7 -1.2,-6.3 z"
             id="path77"
             inkscape:connector-curvature="0"
             style="fill:#ffffff" /><path
             class="st1"
             d="m 571.2,769.6 c -4.1,0.5 -3.3,6.9 0.9,6.4 2.1,-0.2 2.9,-2.1 2.6,-3.7 -0.2,-1.6 -1.4,-3 -3.5,-2.7 z"
             id="path79"
             inkscape:connector-curvature="0"
             style="fill:#ffffff" /><path
             class="st1"
             d="m 558.8,771.1 c -4.1,0.3 -3.6,6.7 0.6,6.4 4.2,-0.4 3.5,-6.9 -0.6,-6.4 z"
             id="path81"
             inkscape:connector-curvature="0"
             style="fill:#ffffff" /><path
             class="st1"
             d="m 546.4,772.1 c -2,0.2 -3,1.7 -2.9,3.4 0.1,1.6 1.2,3.3 3.3,3.1 4.2,-0.4 3.7,-6.8 -0.4,-6.5 z"
             id="path83"
             inkscape:connector-curvature="0"
             style="fill:#ffffff" /><path
             class="st1"
             d="m 533.9,772.5 c -4.1,0.1 -4.2,6.6 0.1,6.5 4.2,-0.2 4,-6.7 -0.1,-6.5 z"
             id="path85"
             inkscape:connector-curvature="0"
             style="fill:#ffffff" /><path
             class="st1"
             d="m 521.5,772.3 c -4.1,-0.1 -4.4,6.3 -0.2,6.5 4.2,0.1 4.3,-6.4 0.2,-6.5 z"
             id="path87"
             inkscape:connector-curvature="0"
             style="fill:#ffffff" /><path
             class="st1"
             d="m 509,771.6 c -4.1,-0.3 -4.7,6.1 -0.5,6.4 4.2,0.4 4.6,-6.1 0.5,-6.4 z"
             id="path89"
             inkscape:connector-curvature="0"
             style="fill:#ffffff" /><path
             class="st1"
             d="m 496.6,770.4 c -4.1,-0.5 -5,5.9 -0.8,6.4 4.3,0.5 4.9,-5.9 0.8,-6.4 z"
             id="path91"
             inkscape:connector-curvature="0"
             style="fill:#ffffff" /><path
             class="st1"
             d="m 484.2,768.6 c -4,-0.7 -5.2,5.6 -1.1,6.4 4.2,0.7 5.2,-5.7 1.1,-6.4 z"
             id="path93"
             inkscape:connector-curvature="0"
             style="fill:#ffffff" /><path
             class="st1"
             d="m 472.1,766.3 c -4,-0.9 -5.5,5.4 -1.4,6.3 4.1,0.9 5.4,-5.4 1.4,-6.3 z"
             id="path95"
             inkscape:connector-curvature="0"
             style="fill:#ffffff" /><path
             class="st1"
             d="m 459.9,763.4 c -3.9,-1.1 -5.7,5.1 -1.6,6.2 2,0.6 3.5,-0.8 3.8,-2.3 0.4,-1.6 -0.3,-3.3 -2.2,-3.9 z"
             id="path97"
             inkscape:connector-curvature="0"
             style="fill:#ffffff" /><path
             class="st1"
             d="m 448,760 c -3.9,-1.3 -5.9,4.8 -1.9,6.2 4,1.1 5.8,-5.1 1.9,-6.2 z"
             id="path99"
             inkscape:connector-curvature="0"
             style="fill:#ffffff" /><path
             class="st1"
             d="m 436.1,756 c -3.8,-1.4 -6.2,4.6 -2.2,6.1 4,1.3 6.1,-4.8 2.2,-6.1 z"
             id="path101"
             inkscape:connector-curvature="0"
             style="fill:#ffffff" /><path
             class="st1"
             d="m 424.5,751.4 c -1.9,-0.7 -3.5,0.3 -4.1,1.8 -0.6,1.5 -0.3,3.4 1.7,4.2 3.9,1.6 6.3,-4.4 2.4,-6 z"
             id="path103"
             inkscape:connector-curvature="0"
             style="fill:#ffffff" /><path
             class="st1"
             d="m 413.1,746.4 c -3.7,-1.7 -6.6,4.1 -2.7,5.8 3.8,1.8 6.4,-4.1 2.7,-5.8 z"
             id="path105"
             inkscape:connector-curvature="0"
             style="fill:#ffffff" /><path
             class="st1"
             d="m 402,740.9 c -3.6,-1.9 -6.8,3.8 -3,5.7 3.7,1.9 6.6,-3.9 3,-5.7 z"
             id="path107"
             inkscape:connector-curvature="0"
             style="fill:#ffffff" /><path
             class="st1"
             d="m 391,734.8 c -3.6,-2 -6.9,3.5 -3.3,5.6 3.7,2.1 6.9,-3.6 3.3,-5.6 z"
             id="path109"
             inkscape:connector-curvature="0"
             style="fill:#ffffff" /><path
             class="st1"
             d="m 380.5,728.3 c -3.5,-2.2 -7.1,3.1 -3.5,5.4 3.5,2.3 6.9,-3.2 3.5,-5.4 z"
             id="path111"
             inkscape:connector-curvature="0"
             style="fill:#ffffff" /><path
             class="st1"
             d="m 370.1,721.3 c -3.3,-2.4 -7.2,2.8 -3.7,5.3 3.4,2.4 7,-3 3.7,-5.3 z"
             id="path113"
             inkscape:connector-curvature="0"
             style="fill:#ffffff" /><path
             class="st1"
             d="m 360.1,713.9 c -3.2,-2.5 -7.3,2.5 -4,5.1 3.4,2.6 7.3,-2.6 4,-5.1 z"
             id="path115"
             inkscape:connector-curvature="0"
             style="fill:#ffffff" /><path
             class="st1"
             d="m 346.2,710.8 c 3.2,2.8 7.3,-2.2 4.2,-4.9 -3.1,-2.6 -7.4,2.2 -4.2,4.9 z"
             id="path117"
             inkscape:connector-curvature="0"
             style="fill:#ffffff" /><path
             class="st1"
             d="m 336.8,702.4 c 3.1,2.9 7.4,-1.9 4.4,-4.7 -3,-2.8 -7.5,1.8 -4.4,4.7 z"
             id="path119"
             inkscape:connector-curvature="0"
             style="fill:#ffffff" /><path
             class="st1"
             d="m 327.6,693.4 c 2.9,3.1 7.4,-1.5 4.6,-4.5 -2.8,-2.9 -7.5,1.5 -4.6,4.5 z"
             id="path121"
             inkscape:connector-curvature="0"
             style="fill:#ffffff" /><path
             class="st1"
             d="m 318.9,684.2 c 1.4,1.6 3.3,1.3 4.5,0.2 1.2,-1.1 1.7,-2.9 0.3,-4.5 -2.6,-3.1 -7.5,1.1 -4.8,4.3 z"
             id="path123"
             inkscape:connector-curvature="0"
             style="fill:#ffffff" /><path
             class="st1"
             d="m 310.6,674.5 c 1.3,1.7 3.3,1.4 4.5,0.4 1.3,-1.1 1.8,-2.8 0.5,-4.4 -2.6,-3.4 -7.6,0.6 -5,4 z"
             id="path125"
             inkscape:connector-curvature="0"
             style="fill:#ffffff" /><path
             class="st1"
             d="m 302.8,664.5 c 2.6,3.3 7.7,-0.6 5.2,-3.9 -2.4,-3.3 -7.7,0.4 -5.2,3.9 z"
             id="path127"
             inkscape:connector-curvature="0"
             style="fill:#ffffff" /><path
             class="st1"
             d="m 295.3,654 c 2.4,3.4 7.7,-0.3 5.3,-3.6 -2.2,-3.4 -7.6,0.1 -5.3,3.6 z"
             id="path129"
             inkscape:connector-curvature="0"
             style="fill:#ffffff" /><path
             class="st1"
             d="m 289.6,639 c -1.4,0.8 -2.3,2.6 -1.1,4.4 2.3,3.6 7.7,0.1 5.5,-3.4 -1.2,-1.7 -3,-1.9 -4.4,-1 z"
             id="path131"
             inkscape:connector-curvature="0"
             style="fill:#ffffff" /><path
             class="st1"
             d="m 287.7,629.1 c -1,-1.8 -2.9,-1.9 -4.3,-1.2 -1.4,0.8 -2.4,2.5 -1.3,4.3 2,3.7 7.6,0.5 5.6,-3.1 z"
             id="path133"
             inkscape:connector-curvature="0"
             style="fill:#ffffff" /><path
             class="st1"
             d="m 281.9,618.2 c -1.9,-3.6 -7.7,-0.9 -5.8,2.9 2,3.7 7.7,0.7 5.8,-2.9 z"
             id="path135"
             inkscape:connector-curvature="0"
             style="fill:#ffffff" /><path
             class="st1"
             d="m 276.6,606.8 c -1.7,-3.7 -7.7,-1.3 -5.9,2.6 1.7,3.9 7.6,1.1 5.9,-2.6 z"
             id="path137"
             inkscape:connector-curvature="0"
             style="fill:#ffffff" /><path
             class="st1"
             d="m 271.9,595.4 c -1.5,-3.8 -7.6,-1.6 -6,2.3 1.5,3.9 7.5,1.5 6,-2.3 z"
             id="path139"
             inkscape:connector-curvature="0"
             style="fill:#ffffff" /><path
             class="st1"
             d="m 267.6,583.6 c -1.3,-3.9 -7.5,-1.9 -6.1,2.1 1.3,3.9 7.4,1.8 6.1,-2.1 z"
             id="path141"
             inkscape:connector-curvature="0"
             style="fill:#ffffff" /><path
             class="st1"
             d="m 263.9,571.7 c -1.1,-3.9 -7.4,-2.3 -6.2,1.8 1.1,4.1 7.3,2.2 6.2,-1.8 z"
             id="path143"
             inkscape:connector-curvature="0"
             style="fill:#ffffff" /><path
             class="st1"
             d="m 260.7,559.6 c -0.9,-4 -7.2,-2.6 -6.3,1.5 1,4.2 7.2,2.5 6.3,-1.5 z"
             id="path145"
             inkscape:connector-curvature="0"
             style="fill:#ffffff" /><path
             class="st1"
             d="m 258.1,547.5 c -0.7,-4 -7.1,-3 -6.3,1.2 0.7,4.2 7,2.9 6.3,-1.2 z"
             id="path147"
             inkscape:connector-curvature="0"
             style="fill:#ffffff" /><path
             class="st1"
             d="m 253.2,538.7 c 1.6,-0.3 3,-1.5 2.7,-3.6 -0.5,-4.1 -6.9,-3.3 -6.4,0.9 0.3,2.2 2.1,3 3.7,2.7 z"
             id="path149"
             inkscape:connector-curvature="0"
             style="fill:#ffffff" /><path
             class="st1"
             d="m 254.4,522.9 c -0.3,-4.1 -6.7,-3.6 -6.4,0.6 0.5,4.2 6.9,3.4 6.4,-0.6 z"
             id="path151"
             inkscape:connector-curvature="0"
             style="fill:#ffffff" /><path
             class="st1"
             d="m 253.5,510.4 c -0.2,-2 -1.7,-3 -3.4,-2.9 -1.6,0.1 -3.3,1.2 -3.1,3.3 0.3,4.1 6.8,3.7 6.5,-0.4 z"
             id="path153"
             inkscape:connector-curvature="0"
             style="fill:#ffffff" /><path
             class="st1"
             d="m 253.1,498 c -0.1,-4.1 -6.6,-4.2 -6.5,0.1 0.1,4.2 6.6,4 6.5,-0.1 z"
             id="path155"
             inkscape:connector-curvature="0"
             style="fill:#ffffff" /><path
             class="st1"
             d="m 253.2,485.4 c 0.1,-4.1 -6.3,-4.4 -6.5,-0.2 0,4.2 6.4,4.3 6.5,0.2 z"
             id="path157"
             inkscape:connector-curvature="0"
             style="fill:#ffffff" /><path
             class="st1"
             d="m 253.9,473.1 c 0.3,-4.1 -6.1,-4.7 -6.4,-0.5 -0.3,4.2 6.1,4.6 6.4,0.5 z"
             id="path159"
             inkscape:connector-curvature="0"
             style="fill:#ffffff" /><path
             class="st1"
             d="m 255.2,460.6 c 0.5,-4.1 -5.9,-5 -6.4,-0.8 -0.6,4.2 5.9,4.9 6.4,0.8 z"
             id="path161"
             inkscape:connector-curvature="0"
             style="fill:#ffffff" /><path
             class="st1"
             d="m 256.9,448.3 c 0.7,-4 -5.6,-5.2 -6.4,-1.1 -0.7,4.2 5.7,5.2 6.4,1.1 z"
             id="path163"
             inkscape:connector-curvature="0"
             style="fill:#ffffff" /><path
             class="st1"
             d="m 259.3,436 c 0.9,-4 -5.4,-5.5 -6.3,-1.4 -1,4.2 5.4,5.4 6.3,1.4 z"
             id="path165"
             inkscape:connector-curvature="0"
             style="fill:#ffffff" /><path
             class="st1"
             d="m 258.3,426.2 c 1.6,0.4 3.3,-0.2 3.9,-2.2 1.1,-3.9 -5.1,-5.7 -6.2,-1.6 -0.7,1.9 0.7,3.4 2.3,3.8 z"
             id="path167"
             inkscape:connector-curvature="0"
             style="fill:#ffffff" /><path
             class="st1"
             d="m 265.6,411.9 c 1.3,-3.9 -4.8,-5.9 -6.2,-1.9 -1.2,4 5,5.8 6.2,1.9 z"
             id="path169"
             inkscape:connector-curvature="0"
             style="fill:#ffffff" /><path
             class="st1"
             d="m 269.6,400.2 c 1.4,-3.8 -4.6,-6.2 -6.1,-2.2 -1.4,4 4.7,6 6.1,2.2 z"
             id="path171"
             inkscape:connector-curvature="0"
             style="fill:#ffffff" /><path
             class="st1"
             d="m 274.1,388.5 c 0.7,-1.9 -0.3,-3.5 -1.8,-4.1 -1.5,-0.6 -3.4,-0.3 -4.2,1.6 -1.5,3.9 4.5,6.3 6,2.5 z"
             id="path173"
             inkscape:connector-curvature="0"
             style="fill:#ffffff" /><path
             class="st1"
             d="m 279.1,377.2 c 1.7,-3.7 -4.1,-6.6 -5.8,-2.7 -1.8,3.8 4.1,6.4 5.8,2.7 z"
             id="path175"
             inkscape:connector-curvature="0"
             style="fill:#ffffff" /><path
             class="st1"
             d="m 284.7,365.9 c 1.9,-3.6 -3.8,-6.8 -5.7,-3 -1.9,3.8 3.8,6.7 5.7,3 z"
             id="path177"
             inkscape:connector-curvature="0"
             style="fill:#ffffff" /><path
             class="st1"
             d="m 290.7,355.1 c 2,-3.6 -3.5,-6.9 -5.6,-3.3 -2.1,3.7 3.6,6.9 5.6,3.3 z"
             id="path179"
             inkscape:connector-curvature="0"
             style="fill:#ffffff" /><path
             class="st1"
             d="m 297.3,344.4 c 2.2,-3.5 -3.1,-7.1 -5.4,-3.5 -2.3,3.6 3.2,7 5.4,3.5 z"
             id="path181"
             inkscape:connector-curvature="0"
             style="fill:#ffffff" /><path
             class="st1"
             d="m 304.2,334.2 c 2.4,-3.3 -2.8,-7.2 -5.3,-3.7 -2.4,3.4 3,7 5.3,3.7 z"
             id="path183"
             inkscape:connector-curvature="0"
             style="fill:#ffffff" /><path
             class="st1"
             d="m 311.7,324.1 c 2.5,-3.2 -2.5,-7.3 -5.1,-4 -2.6,3.3 2.6,7.2 5.1,4 z"
             id="path185"
             inkscape:connector-curvature="0"
             style="fill:#ffffff" /><path
             class="st1"
             d="m 314.6,310.3 c -2.8,3.2 2.2,7.3 4.9,4.2 2.7,-3.1 -2.1,-7.4 -4.9,-4.2 z"
             id="path187"
             inkscape:connector-curvature="0"
             style="fill:#ffffff" /><path
             class="st1"
             d="m 323.2,300.7 c -2.9,3.1 1.9,7.4 4.7,4.4 2.8,-2.9 -1.8,-7.4 -4.7,-4.4 z"
             id="path189"
             inkscape:connector-curvature="0"
             style="fill:#ffffff" /><path
             class="st1"
             d="m 332,291.7 c -3.1,2.9 1.5,7.4 4.5,4.6 3,-2.8 -1.4,-7.6 -4.5,-4.6 z"
             id="path191"
             inkscape:connector-curvature="0"
             style="fill:#ffffff" /><path
             class="st1"
             d="m 341.4,282.9 c -1.6,1.4 -1.3,3.3 -0.2,4.5 1.1,1.2 2.9,1.7 4.5,0.3 3.1,-2.7 -1.1,-7.6 -4.3,-4.8 z"
             id="path193"
             inkscape:connector-curvature="0"
             style="fill:#ffffff" /><path
             class="st1"
             d="m 351,274.6 c -1.7,1.3 -1.4,3.3 -0.4,4.5 1.1,1.3 2.8,1.8 4.4,0.5 3.3,-2.5 -0.6,-7.6 -4,-5 z"
             id="path195"
             inkscape:connector-curvature="0"
             style="fill:#ffffff" /><path
             class="st1"
             d="m 361.1,266.7 c -3.3,2.6 0.6,7.7 3.9,5.2 3.3,-2.4 -0.4,-7.6 -3.9,-5.2 z"
             id="path197"
             inkscape:connector-curvature="0"
             style="fill:#ffffff" /><path
             class="st1"
             d="m 371.5,259.4 c -3.4,2.4 0.3,7.7 3.6,5.3 3.4,-2.2 -0.1,-7.6 -3.6,-5.3 z"
             id="path199"
             inkscape:connector-curvature="0"
             style="fill:#ffffff" /><path
             class="st1"
             d="m 386.6,253.6 c -0.8,-1.4 -2.6,-2.3 -4.4,-1.1 -3.6,2.3 -0.1,7.7 3.4,5.5 1.7,-1.2 1.9,-3 1,-4.4 z"
             id="path201"
             inkscape:connector-curvature="0"
             style="fill:#ffffff" /><path
             class="st1"
             d="m 397.5,247.4 c -0.8,-1.4 -2.5,-2.4 -4.3,-1.3 -3.7,2.1 -0.4,7.7 3.1,5.6 1.8,-1 2,-2.9 1.2,-4.3 z"
             id="path203"
             inkscape:connector-curvature="0"
             style="fill:#ffffff" /><path
             class="st1"
             d="m 404.6,240.1 c -3.8,1.9 -0.8,7.7 2.9,5.8 3.6,-1.9 0.8,-7.7 -2.9,-5.8 z"
             id="path205"
             inkscape:connector-curvature="0"
             style="fill:#ffffff" /><path
             class="st1"
             d="m 416.1,234.7 c -3.9,1.7 -1.1,7.6 2.6,5.9 3.7,-1.6 1.2,-7.6 -2.6,-5.9 z"
             id="path207"
             inkscape:connector-curvature="0"
             style="fill:#ffffff" /><path
             class="st1"
             d="m 427.9,229.8 c -3.9,1.6 -1.5,7.5 2.3,6 3.9,-1.5 1.7,-7.5 -2.3,-6 z"
             id="path209"
             inkscape:connector-curvature="0"
             style="fill:#ffffff" /><path
             class="st1"
             d="m 439.8,225.5 c -4,1.4 -1.8,7.4 2.1,6.1 3.9,-1.3 1.9,-7.4 -2.1,-6.1 z"
             id="path211"
             inkscape:connector-curvature="0"
             style="fill:#ffffff" /><path
             class="st1"
             d="m 452.1,221.7 c -4.1,1.2 -2.2,7.3 1.8,6.2 3.9,-1.1 2.3,-7.4 -1.8,-6.2 z"
             id="path213"
             inkscape:connector-curvature="0"
             style="fill:#ffffff" /><path
             class="st1"
             d="m 464.3,218.4 c -4.1,1 -2.5,7.2 1.5,6.3 4,-0.9 2.7,-7.2 -1.5,-6.3 z"
             id="path215"
             inkscape:connector-curvature="0"
             style="fill:#ffffff" /><path
             class="st1"
             d="m 476.9,215.7 c -4.2,0.7 -2.8,7.1 1.2,6.3 4,-0.6 2.9,-7 -1.2,-6.3 z"
             id="path217"
             inkscape:connector-curvature="0"
             style="fill:#ffffff" /><path
             class="st1"
             d="m 489.4,213.6 c -2.1,0.2 -2.9,2.1 -2.6,3.7 0.3,1.6 1.5,3 3.6,2.7 4,-0.5 3.2,-6.9 -1,-6.4 z"
             id="path219"
             inkscape:connector-curvature="0"
             style="fill:#ffffff" /><path
             class="st1"
             d="m 502.1,212 c -4.2,0.5 -3.4,6.9 0.6,6.4 4.1,-0.3 3.6,-6.7 -0.6,-6.4 z"
             id="path221"
             inkscape:connector-curvature="0"
             style="fill:#ffffff" /><path
             class="st1"
             d="m 514.7,211 c -4.2,0.3 -3.7,6.8 0.4,6.4 2,-0.2 3,-1.7 2.9,-3.4 0,-1.5 -1.1,-3.2 -3.3,-3 z"
             id="path223"
             inkscape:connector-curvature="0"
             style="fill:#ffffff" /><path
             class="st1"
             d="m 527.6,210.6 c -4.2,0.1 -4,6.6 0.1,6.5 4,-0.1 4.1,-6.6 -0.1,-6.5 z"
             id="path225"
             inkscape:connector-curvature="0"
             style="fill:#ffffff" /><path
             class="st1"
             d="m 540.2,210.8 c -4.2,-0.1 -4.3,6.4 -0.2,6.5 4.1,0.1 4.5,-6.4 0.2,-6.5 z"
             id="path227"
             inkscape:connector-curvature="0"
             style="fill:#ffffff" /><path
             class="st1"
             d="m 553,211.5 c -4.2,-0.3 -4.6,6.1 -0.5,6.4 4.1,0.4 4.8,-6.1 0.5,-6.4 z"
             id="path229"
             inkscape:connector-curvature="0"
             style="fill:#ffffff" /><path
             class="st1"
             d="m 565.7,212.8 c -4.2,-0.5 -4.9,5.9 -0.8,6.4 4,0.5 5,-5.9 0.8,-6.4 z"
             id="path231"
             inkscape:connector-curvature="0"
             style="fill:#ffffff" /><path
             class="st1"
             d="m 578.4,214.6 c -4.2,-0.7 -5.1,5.6 -1.1,6.4 4,0.7 5.2,-5.7 1.1,-6.4 z"
             id="path233"
             inkscape:connector-curvature="0"
             style="fill:#ffffff" /><path
             class="st1"
             d="m 590.8,217 c -4.1,-0.9 -5.4,5.4 -1.4,6.3 4,0.9 5.5,-5.4 1.4,-6.3 z"
             id="path235"
             inkscape:connector-curvature="0"
             style="fill:#ffffff" /><path
             class="st1"
             d="m 603.3,219.9 c -2,-0.6 -3.5,0.8 -3.8,2.3 -0.4,1.6 0.2,3.3 2.2,3.9 3.9,1.2 5.7,-5 1.6,-6.2 z"
             id="path237"
             inkscape:connector-curvature="0"
             style="fill:#ffffff" /><path
             class="st1"
             d="m 615.5,223.4 c -4.1,-1.2 -5.9,5 -1.9,6.2 3.8,1.3 5.9,-4.8 1.9,-6.2 z"
             id="path239"
             inkscape:connector-curvature="0"
             style="fill:#ffffff" /><path
             class="st1"
             d="m 627.6,227.5 c -4,-1.4 -6.1,4.8 -2.2,6.1 3.9,1.4 6.2,-4.6 2.2,-6.1 z"
             id="path241"
             inkscape:connector-curvature="0"
             style="fill:#ffffff" /><path
             class="st1"
             d="m 639.5,232.1 c -3.9,-1.6 -6.3,4.5 -2.5,6 1.9,0.7 3.5,-0.3 4.1,-1.8 0.6,-1.5 0.3,-3.4 -1.6,-4.2 z"
             id="path243"
             inkscape:connector-curvature="0"
             style="fill:#ffffff" /><path
             class="st1"
             d="m 651.2,237.3 c -3.9,-1.7 -6.5,4.2 -2.7,5.8 3.7,1.8 6.6,-4 2.7,-5.8 z"
             id="path245"
             inkscape:connector-curvature="0"
             style="fill:#ffffff" /><path
             class="st1"
             d="m 662.5,243 c -3.8,-1.9 -6.7,3.8 -3,5.7 3.7,1.9 6.8,-3.8 3,-5.7 z"
             id="path247"
             inkscape:connector-curvature="0"
             style="fill:#ffffff" /><path
             class="st1"
             d="m 673.8,249.2 c -3.7,-2.1 -6.8,3.5 -3.3,5.6 3.6,2 6.9,-3.5 3.3,-5.6 z"
             id="path249"
             inkscape:connector-curvature="0"
             style="fill:#ffffff" /><path
             class="st1"
             d="m 684.6,255.8 c -3.6,-2.3 -7,3.2 -3.5,5.4 3.4,2.3 7,-3.1 3.5,-5.4 z"
             id="path251"
             inkscape:connector-curvature="0"
             style="fill:#ffffff" /><path
             class="st1"
             d="m 695.2,263 c -3.4,-2.5 -7.1,2.9 -3.7,5.3 3.3,2.4 7.1,-2.8 3.7,-5.3 z"
             id="path253"
             inkscape:connector-curvature="0"
             style="fill:#ffffff" /><path
             class="st1"
             d="m 705.4,270.6 c -3.3,-2.6 -7.2,2.6 -4,5.1 3.2,2.5 7.3,-2.5 4,-5.1 z"
             id="path255"
             inkscape:connector-curvature="0"
             style="fill:#ffffff" /><path
             class="st1"
             d="m 715.3,278.7 c -3.2,-2.8 -7.3,2.2 -4.2,4.9 3.1,2.7 7.4,-2.1 4.2,-4.9 z"
             id="path257"
             inkscape:connector-curvature="0"
             style="fill:#ffffff" /><path
             class="st1"
             d="m 724.7,287.1 c -3.1,-2.9 -7.4,1.9 -4.4,4.7 3,2.9 7.5,-1.7 4.4,-4.7 z"
             id="path259"
             inkscape:connector-curvature="0"
             style="fill:#ffffff" /><path
             class="st1"
             d="m 733.9,296.1 c -2.9,-3.1 -7.4,1.5 -4.6,4.5 2.8,3 7.6,-1.4 4.6,-4.5 z"
             id="path261"
             inkscape:connector-curvature="0"
             style="fill:#ffffff" /><path
             class="st1"
             d="m 742.6,305.4 c -1.4,-1.6 -3.3,-1.3 -4.5,-0.2 -1.2,1.1 -1.7,2.9 -0.3,4.5 2.7,3.1 7.6,-1.1 4.8,-4.3 z"
             id="path263"
             inkscape:connector-curvature="0"
             style="fill:#ffffff" /><path
             class="st1"
             d="m 750.9,315.1 c -1.3,-1.7 -3.3,-1.4 -4.5,-0.4 -1.3,1.1 -1.8,2.8 -0.5,4.4 2.6,3.3 7.7,-0.7 5,-4 z"
             id="path265"
             inkscape:connector-curvature="0"
             style="fill:#ffffff" /><path
             class="st1"
             d="m 758.8,325.1 c -2.6,-3.3 -7.7,0.6 -5.2,3.9 2.4,3.3 7.6,-0.5 5.2,-3.9 z"
             id="path267"
             inkscape:connector-curvature="0"
             style="fill:#ffffff" /><path
             class="st1"
             d="m 766.2,335.5 c -2.4,-3.4 -7.7,0.3 -5.3,3.6 2.2,3.5 7.6,0 5.3,-3.6 z"
             id="path269"
             inkscape:connector-curvature="0"
             style="fill:#ffffff" /><path
             class="st1"
             d="m 773.1,346.2 c -2.3,-3.6 -7.7,-0.1 -5.5,3.4 1.1,1.7 3,1.8 4.4,1 1.3,-0.8 2.2,-2.6 1.1,-4.4 z"
             id="path271"
             inkscape:connector-curvature="0"
             style="fill:#ffffff" /><path
             class="st1"
             d="m 773.9,360.4 c 1,1.8 2.9,1.9 4.3,1.2 1.4,-0.8 2.4,-2.5 1.3,-4.3 -2.1,-3.7 -7.7,-0.4 -5.6,3.1 z"
             id="path273"
             inkscape:connector-curvature="0"
             style="fill:#ffffff" /><path
             class="st1"
             d="m 779.6,371.4 c 1.9,3.6 7.7,0.9 5.8,-2.9 -1.9,-3.7 -7.7,-0.8 -5.8,2.9 z"
             id="path275"
             inkscape:connector-curvature="0"
             style="fill:#ffffff" /><path
             class="st1"
             d="m 784.9,382.7 c 1.7,3.7 7.7,1.3 5.9,-2.6 -1.7,-3.8 -7.6,-1.1 -5.9,2.6 z"
             id="path277"
             inkscape:connector-curvature="0"
             style="fill:#ffffff" /><path
             class="st1"
             d="m 789.7,394.2 c 1.5,3.8 7.6,1.6 6,-2.3 -1.6,-4 -7.5,-1.5 -6,2.3 z"
             id="path279"
             inkscape:connector-curvature="0"
             style="fill:#ffffff" /><path
             class="st1"
             d="m 793.9,406 c 1.3,3.9 7.5,1.9 6.1,-2.1 -1.3,-4 -7.4,-1.8 -6.1,2.1 z"
             id="path281"
             inkscape:connector-curvature="0"
             style="fill:#ffffff" /><path
             class="st1"
             d="m 797.6,417.8 c 1.1,3.9 7.4,2.3 6.2,-1.8 -1.1,-4.1 -7.3,-2.1 -6.2,1.8 z"
             id="path283"
             inkscape:connector-curvature="0"
             style="fill:#ffffff" /><path
             class="st1"
             d="m 800.8,429.9 c 0.9,4 7.2,2.6 6.3,-1.5 -0.9,-4.1 -7.2,-2.5 -6.3,1.5 z"
             id="path285"
             inkscape:connector-curvature="0"
             style="fill:#ffffff" /><path
             class="st1"
             d="m 803.5,442 c 0.7,4 7.1,3 6.3,-1.2 -0.7,-4.2 -7.1,-2.8 -6.3,1.2 z"
             id="path287"
             inkscape:connector-curvature="0"
             style="fill:#ffffff" /><path
             class="st1"
             d="m 808.3,450.8 c -1.6,0.3 -3,1.5 -2.7,3.6 0.5,4.1 6.9,3.3 6.4,-0.9 -0.3,-2.1 -2.1,-2.9 -3.7,-2.7 z"
             id="path289"
             inkscape:connector-curvature="0"
             style="fill:#ffffff" /><path
             class="st1"
             d="m 807.1,466.7 c 0.3,4.1 6.7,3.6 6.4,-0.6 -0.5,-4.3 -6.9,-3.5 -6.4,0.6 z"
             id="path291"
             inkscape:connector-curvature="0"
             style="fill:#ffffff" /><path
             class="st1"
             d="m 808.1,479.2 c 0.2,2 1.7,3 3.4,2.9 1.6,-0.1 3.3,-1.2 3.1,-3.3 -0.4,-4.2 -6.9,-3.7 -6.5,0.4 z"
             id="path293"
             inkscape:connector-curvature="0"
             style="fill:#ffffff" /><path
             class="st1"
             d="m 808.4,491.6 c 0.1,4.1 6.6,4.2 6.5,-0.1 -0.1,-4.2 -6.6,-4 -6.5,0.1 z"
             id="path295"
             inkscape:connector-curvature="0"
             style="fill:#ffffff" /></g></g></g></switch></svg>