<?xml version="1.0" encoding="UTF-8" standalone="no"?>
<svg
   xmlns:dc="http://purl.org/dc/elements/1.1/"
   xmlns:cc="http://creativecommons.org/ns#"
   xmlns:rdf="http://www.w3.org/1999/02/22-rdf-syntax-ns#"
   xmlns:svg="http://www.w3.org/2000/svg"
   xmlns="http://www.w3.org/2000/svg"
   xmlns:sodipodi="http://sodipodi.sourceforge.net/DTD/sodipodi-0.dtd"
   xmlns:inkscape="http://www.inkscape.org/namespaces/inkscape"
   version="1.1"
   id="Layer_1"
   x="0px"
   y="0px"
   viewBox="0 0 1000 1000"
   width="100%"
   height="100%"
   style="enable-background:new 0 0 1000 1000;"
   xml:space="preserve"
   ><style
     type="text/css"
     id="style3">
	.noFillSVG{fill:none;}
</style><switch
     id="switch5"
     transform="translate(-39.600405,0)"><g
       id="g7"><g
         id="g9"><path
           class="noFillSVG"
           d="m 786.9,269.4 c 2.4,-2.5 6.2,-7.9 1.9,-11.3 -1.5,-1.2 -3.8,-1.1 -5.6,-0.9 -7.6,0.9 -13.1,8.3 -14.8,15.3 -0.3,1.4 -0.5,2.8 -0.6,4.2 3.7,0 7.4,-0.5 11.1,-2 3.1,-1.3 5.8,-2.9 8,-5.3 z"
           id="path11"
           inkscape:connector-curvature="0"
           style="fill:none" /><path
           class="noFillSVG"
           d="m 380.7,307.8 c -1.2,4.7 -3,9.3 -4.9,12.6 -1.8,3.3 -3.3,5.4 -3.4,5.7 -0.2,0.1 -1.8,2.2 -4.5,4.8 -2.7,2.7 -6.6,5.6 -10.8,8.1 -2.8,1.5 -5.6,2.8 -8.3,3.6 l 0,303.9 c 2.6,0.9 5.5,2.1 8.3,3.6 4.2,2.5 8.2,5.4 10.8,8.1 2.7,2.6 4.3,4.7 4.5,4.8 0.1,0.2 1.7,2.3 3.4,5.7 1.9,3.3 3.7,7.9 4.9,12.6 0.3,1.3 0.6,2.7 0.8,4 l 319.1,0 c 0.2,-1.3 0.5,-2.7 0.8,-4 1.2,-4.7 3,-9.3 4.9,-12.6 1.8,-3.3 3.3,-5.4 3.4,-5.7 0.2,-0.1 1.8,-2.2 4.5,-4.8 2.7,-2.7 6.6,-5.6 10.8,-8.1 3,-1.7 6.1,-2.9 8.9,-3.8 l 0,-303.4 c -2.8,-0.9 -5.9,-2.2 -8.9,-3.8 -4.2,-2.5 -8.2,-5.4 -10.8,-8.1 -2.7,-2.6 -4.3,-4.7 -4.5,-4.8 -0.1,-0.2 -1.7,-2.3 -3.4,-5.7 -1.9,-3.3 -3.7,-7.9 -4.9,-12.6 -0.6,-2.6 -1,-5.2 -1.2,-7.6 l -318.3,0 c -0.2,2.3 -0.6,4.9 -1.2,7.5 z"
           id="path13"
           inkscape:connector-curvature="0"
           style="fill:none" /><path
           class="noFillSVG"
           d="m 851,506.5 c -9.8,-7.1 -22.8,-4.4 -28.2,6.8 -4.5,9.6 -0.3,21.4 10.5,23.8 5.2,1.2 11.3,-1.1 13.7,-6 2.1,-4.4 0.4,-8.8 -3.8,-10.6 -4.4,-1.9 -9.2,2.2 -7.3,7.1 0.5,1.4 -1.7,2 -2.2,0.6 -3.7,-9.9 10.5,-14.7 15.3,-5.7 5.1,9.6 -5.9,18.3 -14.9,17.1 -23.2,-3.1 -17.4,-36.5 2.3,-39.3 -2,-0.3 -4.1,-0.9 -6.1,-2 -9.1,-4.9 -14.4,-16.7 -10.3,-26.6 3.4,-8 13.3,-13.1 21.7,-9.8 7.9,3.1 12.2,14.2 4.1,19.8 -6.4,4.5 -15,-1.9 -12.2,-9.3 0.5,-1.4 2.7,-0.8 2.2,0.6 -1.1,3 0.3,5.9 3.1,7.1 2.3,1 4.3,0.7 6.5,-1 3.7,-2.8 2.8,-8.9 0.1,-11.9 -3.7,-4.2 -9.7,-5 -14.8,-3 -11.1,4.5 -12.4,18.3 -5.4,26.9 16,19.8 41,-5.5 36.9,-24.8 -3.2,-15 -19.2,-28 -34.7,-26.3 -18.7,2 -27.2,21.3 -29,37.7 -0.1,0.9 -0.2,1.8 -0.3,2.7 0,0 0,0.1 0,0.1 -0.1,1.1 -0.2,2.1 -0.3,3.2 -0.1,1.2 -0.2,2.4 -0.3,3.6 -0.6,9.3 -0.3,18.7 0.3,28 0,0.4 0.1,0.8 0.1,1.2 0,0.1 0,0.2 0,0.3 0.1,1.7 0.3,3.4 0.4,5.1 1.4,16.1 9.3,34.7 27,38.1 16.6,3.2 34.6,-11.3 37,-27.6 1.6,-10 -3.2,-20 -11.4,-25.9 z"
           id="path15"
           inkscape:connector-curvature="0"
           style="fill:none" /><path
           class="noFillSVG"
           d="m 768.8,728.3 c 1.9,6.9 7.8,14.6 15.7,14.7 8.1,0.1 5.8,-9.5 1.5,-13.4 -2.3,-2.1 -5.1,-3.7 -8.1,-4.7 -3.2,-1.1 -6.5,-1.5 -9.9,-1.5 0.1,1.7 0.3,3.3 0.8,4.9 z"
           id="path17"
           inkscape:connector-curvature="0"
           style="fill:none" /><path
           class="noFillSVG"
           d="m 304.8,257 c -8.1,-0.1 -5.8,9.5 -1.5,13.4 2.3,2.1 5.1,3.7 8.1,4.6 3.2,1.1 6.5,1.5 9.9,1.5 -0.1,-1.7 -0.3,-3.3 -0.8,-4.9 -1.9,-6.8 -7.9,-14.5 -15.7,-14.6 z"
           id="path19"
           inkscape:connector-curvature="0"
           style="fill:none" /><path
           class="noFillSVG"
           d="m 281,516.8 c 0.7,-11.9 1.4,-24.4 -0.1,-36.3 0,-0.2 0,-0.4 0.1,-0.6 -0.4,-2.9 -0.8,-5.8 -1.3,-8.6 C 276.8,455.1 264.3,438 246,440 c -16,1.7 -31.3,18 -29.4,34.4 1.1,9.7 8,19.2 17.3,22.6 10.3,3.7 21.3,-3.1 23.8,-13.5 2.3,-9.4 -3.1,-19.1 -13.1,-20.3 -5.6,-0.7 -11.6,2.3 -12.9,8.1 -0.9,4 1.3,9.9 6.6,9.7 3.8,-0.2 6.3,-4.7 5.1,-8 -0.5,-1.4 1.7,-2 2.2,-0.6 3.5,9.2 -9,14.4 -14.5,7 -6.9,-9.3 4.3,-19.5 13.8,-18.4 23,2.6 18.5,36.1 -2,39.3 0.9,0.1 1.8,0.3 2.6,0.6 10.1,3.1 17,14.5 14.7,24.9 -1.9,8.7 -10.9,15.3 -19.9,13.7 -8.6,-1.6 -15.5,-12.5 -8,-19.6 6.1,-5.8 16.4,0.1 13.4,8.3 -0.5,1.4 -2.7,0.8 -2.2,-0.6 1.1,-2.9 -0.9,-8.5 -5.1,-8 -1.8,0.2 -4.2,1.6 -5.3,3 -2.7,3.5 -1.7,8.3 1.3,11.3 4.3,4.4 11,4.4 16.1,1.6 10.8,-6 9.8,-20.8 1.4,-28.4 -9,-8.2 -21.2,-4.3 -28.5,4.1 -7.3,8.4 -8.9,20.2 -3.7,30.2 7.5,14.4 25.4,24.5 41,16.6 15.1,-8 19.3,-25.5 20.3,-41.2 z"
           id="path21"
           inkscape:connector-curvature="0"
           style="fill:none" /><path
           class="noFillSVG"
           d="m 302.3,730.6 c -2.4,2.5 -6.2,7.9 -1.9,11.3 1.5,1.2 3.8,1.1 5.6,0.9 7.6,-0.9 13.1,-8.3 14.8,-15.3 0.3,-1.4 0.5,-2.8 0.6,-4.2 -3.7,0 -7.4,0.5 -11.1,2 -3.1,1.3 -5.8,2.9 -8,5.3 z"
           id="path23"
           inkscape:connector-curvature="0"
           style="fill:none" /><path
           d="m 378.2,297.9 c -0.2,0.7 -0.4,1.5 -0.6,2.3 -0.6,1.9 -1.3,4 -2.1,5.9 -1.8,4 -3.8,7.9 -5.8,10.6 -1.9,2.8 -3.4,4.5 -3.5,4.7 -0.2,0.1 -1.4,2.1 -3.6,4.6 -2.1,2.6 -5.3,5.7 -8.7,8.4 -1.7,1.3 -3.5,2.6 -5.3,3.6 -0.8,0.5 -1.5,0.9 -2.3,1.3 l 0,3.9 0,302.5 0,3.9 c 0.7,0.4 1.5,0.9 2.3,1.3 1.7,1.1 3.5,2.3 5.3,3.6 3.4,2.8 6.6,5.8 8.7,8.4 2.1,2.5 3.4,4.5 3.6,4.6 0.1,0.2 1.6,1.9 3.5,4.7 2,2.7 4,6.6 5.8,10.6 0.3,0.8 0.6,1.5 0.9,2.3 0.3,0.8 0.5,1.5 0.8,2.3 l 4.6,0 318.5,0 4.6,0 c 0.2,-0.8 0.5,-1.5 0.8,-2.3 0.3,-0.8 0.6,-1.5 0.9,-2.3 1.8,-4 3.8,-7.9 5.8,-10.6 1.9,-2.8 3.4,-4.5 3.5,-4.7 0.2,-0.1 1.4,-2.1 3.6,-4.6 2.1,-2.6 5.3,-5.7 8.7,-8.4 1.9,-1.5 3.9,-2.8 5.9,-4 0.8,-0.5 1.5,-0.9 2.3,-1.3 l 0,-3.7 0,-302 0,-3.7 c -0.7,-0.4 -1.5,-0.9 -2.3,-1.3 -1.9,-1.2 -3.9,-2.5 -5.9,-4 -3.4,-2.8 -6.6,-5.8 -8.7,-8.4 -2.1,-2.5 -3.4,-4.5 -3.6,-4.6 -0.1,-0.2 -1.6,-1.9 -3.5,-4.7 -2,-2.7 -4,-6.6 -5.8,-10.6 -0.8,-2 -1.5,-4 -2.1,-5.9 -0.2,-0.8 -0.4,-1.5 -0.6,-2.3 l -3.9,0 -318,0 -3.8,0 z m 321.9,2.3 c 0.2,2.4 0.6,5 1.2,7.6 1.2,4.7 3,9.3 4.9,12.6 1.8,3.3 3.3,5.4 3.4,5.7 0.2,0.1 1.8,2.2 4.5,4.8 2.7,2.7 6.6,5.6 10.8,8.1 3,1.7 6.1,2.9 8.9,3.8 l 0,303.5 c -2.8,0.9 -5.9,2.2 -8.9,3.8 -4.2,2.5 -8.2,5.4 -10.8,8.1 -2.7,2.6 -4.3,4.7 -4.5,4.8 -0.1,0.2 -1.7,2.3 -3.4,5.7 -1.9,3.3 -3.7,7.9 -4.9,12.6 -0.3,1.3 -0.6,2.7 -0.8,4 l -319,0 c -0.2,-1.3 -0.5,-2.7 -0.8,-4 -1.2,-4.7 -3,-9.3 -4.9,-12.6 -1.8,-3.3 -3.3,-5.4 -3.4,-5.7 -0.2,-0.1 -1.8,-2.2 -4.5,-4.8 -2.7,-2.7 -6.6,-5.6 -10.8,-8.1 -2.8,-1.5 -5.6,-2.8 -8.3,-3.6 l 0,-303.8 c 2.6,-0.9 5.5,-2.1 8.3,-3.6 4.2,-2.5 8.2,-5.4 10.8,-8.1 2.7,-2.6 4.3,-4.7 4.5,-4.8 0.1,-0.2 1.7,-2.3 3.4,-5.7 1.9,-3.3 3.7,-7.9 4.9,-12.6 0.6,-2.6 1,-5.2 1.2,-7.6 l 318.2,0 z"
           id="path25"
           inkscape:connector-curvature="0" /><path
           d="m 285,250.4 c 0.1,0.1 1.7,1 3.4,1.9 1.7,0.9 3.6,1.8 4.5,1.1 0.8,-0.6 0.4,-2.8 -0.4,-4.8 -0.8,-2 -2.1,-3.8 -2.1,-3.8 -0.1,-0.1 -1.9,-1.2 -3.9,-2 -2,-0.8 -4.2,-1.1 -4.8,-0.2 -0.6,0.9 0.4,2.7 1.4,4.4 0.9,1.8 1.9,3.4 1.9,3.4 z"
           id="path27"
           inkscape:connector-curvature="0" /><path
           d="m 800.6,252.3 c 1.7,-0.9 3.4,-1.8 3.4,-1.9 0.1,-0.1 1.1,-1.6 2.1,-3.3 1,-1.7 2,-3.6 1.4,-4.4 -0.6,-0.9 -2.8,-0.5 -4.8,0.2 -2,0.7 -3.9,1.9 -3.9,2 -0.1,0.1 -1.3,1.8 -2.1,3.8 -0.9,2 -1.3,4.1 -0.4,4.8 0.6,0.6 2.5,-0.3 4.3,-1.2 z"
           id="path29"
           inkscape:connector-curvature="0" /><path
           d="m 544.6,166.6 c 2.1,0 3.9,-12.7 3.9,-13 0,-0.3 -1.7,-13 -3.9,-13 -2.2,0 -3.9,12.7 -3.9,13 0,0.3 1.8,13 3.9,13 z"
           id="path31"
           inkscape:connector-curvature="0" /><path
           d="m 274.1,548.6 c 6.7,-9.5 8.4,-20.7 9.1,-32 0,0 0,0 0,0 1,-7.8 1.1,-15.9 0.7,-23.9 -0.1,-4.1 -0.3,-8.1 -0.8,-12.1 0,0 0,0 0,0 -1,-10.8 -3.2,-21.3 -10,-30.1 -14,-18 -38.3,-15.5 -51.8,1.8 -7,9 -9.5,20.5 -4.6,31.1 3.6,8 11.4,15.5 20.4,16.8 -8.3,1.3 -15.8,7.9 -19.6,15.3 -5.4,10.4 -3.8,22.1 3,31.4 13.5,19 39.6,21.5 53.6,1.7 z m -54.6,-7.4 c -5.2,-9.9 -3.6,-21.7 3.7,-30.2 7.3,-8.4 19.5,-12.3 28.5,-4.1 8.4,7.6 9.4,22.4 -1.4,28.4 -5.1,2.8 -11.8,2.8 -16.1,-1.6 -2.9,-3 -4,-7.9 -1.3,-11.3 1.1,-1.4 3.5,-2.8 5.3,-3 4.1,-0.4 6.2,5.1 5.1,8 -0.5,1.4 1.7,2 2.2,0.6 3.1,-8.2 -7.2,-14.2 -13.4,-8.3 -7.5,7.1 -0.6,18.1 8,19.6 9,1.6 18,-5 19.9,-13.7 2.3,-10.4 -4.5,-21.8 -14.7,-24.9 -0.9,-0.3 -1.8,-0.5 -2.6,-0.6 20.4,-3.2 24.9,-36.7 2,-39.3 -9.5,-1.1 -20.6,9.1 -13.8,18.4 5.5,7.5 18,2.2 14.5,-7 -0.5,-1.4 -2.7,-0.8 -2.2,0.6 1.2,3.3 -1.2,7.9 -5.1,8 -5.3,0.2 -7.5,-5.7 -6.6,-9.7 1.3,-5.7 7.3,-8.7 12.9,-8.1 10,1.2 15.3,11 13.1,20.3 -2.5,10.4 -13.6,17.2 -23.8,13.5 -9.3,-3.4 -16.2,-12.9 -17.3,-22.6 C 214.7,458 230,441.7 246,440 c 18.3,-1.9 30.8,15.1 33.7,31.3 0.5,2.8 0.9,5.7 1.3,8.6 -0.1,0.2 -0.1,0.4 -0.1,0.6 1.5,11.9 0.9,24.3 0.1,36.3 -1,15.7 -5.1,33.2 -20.5,40.9 -15.7,7.9 -33.5,-2.2 -41,-16.5 z"
           id="path33"
           inkscape:connector-curvature="0" /><path
           d="m 228.1,500.3 c 0,-2.1 -9.2,-3.9 -9.4,-3.9 -0.2,0 -9.4,1.7 -9.4,3.9 0,2.1 9.2,3.9 9.4,3.9 0.2,-0.1 9.4,-1.8 9.4,-3.9 z"
           id="path35"
           inkscape:connector-curvature="0" /><path
           d="m 841.8,500.2 c 6.6,-0.9 12.8,-5.1 17,-10.6 6.9,-8.9 8.3,-20.7 3.3,-30.8 -6.3,-12.7 -19.6,-21.5 -33,-21 18,-4.1 27.8,-24.4 22.7,-42.4 -6.6,-23.3 -27.9,-40.3 -44.9,-56.1 -9,-8.4 -17.9,-17 -25.1,-26.9 -6,-8.1 -12.1,-18.5 -13.6,-29 7.1,10.7 21.9,22.6 31.8,10.7 3.7,-4.4 5,-12.8 0.1,-16.9 -3.8,-3.3 -9.6,-0.9 -8.8,4.3 0.2,1.4 2.4,0.8 2.2,-0.6 5.1,-1.2 7.5,-0.1 7.4,3.2 0.3,1.5 0.1,3.1 -0.4,4.6 -0.6,1.9 -1.8,3.9 -3.3,5.2 -4.8,4.3 -11.1,3.2 -15.8,-0.3 -5.3,-3.9 -10.3,-8.8 -13.3,-14.8 1.5,0 2.9,-0.1 4.4,-0.2 7,-0.9 14,-4.1 18.1,-10 3.8,-5.5 3.3,-12.7 -4.4,-13.7 -7.3,-0.9 -14,4.7 -17.3,10.7 -1.7,3.2 -2.7,6.5 -3,10 -0.2,-0.1 -0.3,-0.1 -0.6,-0.1 -7.8,0.2 -14.7,-13.4 -15.4,-19.6 -0.5,-4.5 0.5,-9.4 4.1,-12.4 1.7,-1.5 3.9,-2.5 6.2,-2.6 0.9,0.1 1.8,0.1 2.7,0.2 4,0.7 4.1,3.1 0.4,7.4 -0.6,-1.3 -2.7,-0.7 -2.2,0.6 2.3,5.4 9.6,3.9 9.7,-2.1 0.1,-7.6 -9.6,-9.7 -15.2,-7.2 -7.2,3.2 -9.2,12 -7.4,19.1 1.2,4.9 5.3,12.5 10.4,16.4 -5.9,-1.8 -11.5,-5 -16.3,-8.9 -10.2,-8.2 -18.4,-18.7 -27.8,-27.8 -9.7,-9.4 -19.9,-18.4 -31.1,-26 -15.2,-10.4 -41,-18.3 -55.4,-3.2 1.1,-2.8 1.9,-5.8 2.4,-8.9 1.8,-13.4 -3.9,-26.8 -13,-36.5 -9.9,-10.6 -24,-17.8 -38.7,-15.6 -15.2,2.3 -30.3,14.5 -33.3,30 -5.8,30 41.6,46.9 52.1,16.3 4.2,-12.2 -5.3,-31.1 -20.3,-25.3 -5.7,2.2 -10.1,8.4 -7.9,14.6 2,5.6 8.5,8.8 13.9,6.5 1.3,-0.5 0.7,-2.7 -0.6,-2.2 -4,1.6 -8.6,-0.1 -10.7,-3.9 -2.5,-4.7 0.6,-10.1 4.9,-12.3 7.8,-4.1 16.5,2.2 19,9.8 4.1,12.8 -6.8,26.1 -19.6,27 -14.1,1 -28.6,-10.3 -28.9,-24.9 -0.4,-14.6 12.4,-27.4 25.5,-31.8 23.2,-7.9 48.1,10.5 54.4,32.8 7.3,26 -14.4,46.9 -38,52.6 -5.4,1.3 -10.9,2.1 -16.5,2.6 -0.2,-0.1 -0.3,-0.1 -0.6,-0.1 -1.6,0.2 -3.3,0.4 -4.9,0.5 -4,0.2 -8,0.4 -12,0.5 -3.1,0.1 -6.1,0.2 -9.2,0.3 -7.7,-0.1 -15.4,-0.5 -23,-1 -0.1,0 -0.1,0 -0.2,0 0,0 0,0 -0.1,0 -1.8,-0.1 -3.5,-0.3 -5.3,-0.4 -22.4,-1.8 -48.5,-11.1 -55,-35.4 -6.2,-23.4 13.5,-49.5 36.6,-53.7 14.8,-2.7 30.1,4.6 38.4,17 9.2,13.7 4.8,31.3 -10.3,38.5 -14.2,6.8 -32.5,-0.6 -33.8,-17.5 -0.6,-8.3 5.2,-17.8 14.3,-18 5.4,-0.1 11.5,4.4 11.2,10.2 -0.2,5.8 -6.4,9.5 -11.6,7.4 -1.3,-0.6 -1.9,1.6 -0.6,2.2 5.2,2.1 11.1,-0.5 13.5,-5.6 2.4,-5.1 -0.1,-10.8 -4.5,-13.9 -11.5,-8 -24.6,4.3 -24.6,16.3 0,13.5 11.8,24.2 25,23.9 14.5,-0.3 28.4,-12.2 28.8,-27.2 0.5,-15.9 -13.6,-29.8 -28,-34.3 -15.2,-4.8 -30.5,1 -41.9,11.5 -10.1,9.4 -17,23 -16,37.1 0.3,4 1.3,7.8 2.7,11.3 -9.6,-9.1 -26.5,-10.4 -39.3,-5.7 -12,4.5 -22.3,12.7 -32.1,20.9 -10.7,9 -20.5,18.9 -30.1,29.1 -8.4,8.9 -17.8,18.4 -30,21.7 5.2,-3.7 9.3,-11.1 10.7,-15.9 2.1,-7.3 0.3,-16.5 -7.2,-19.9 -5.6,-2.5 -14.4,-0.6 -15.1,6.5 -0.6,6.2 7.1,8.7 9.6,2.8 0.6,-1.3 -1.6,-1.9 -2.2,-0.6 -3.6,-3.9 -3.9,-6.2 -0.9,-6.9 1.2,-0.6 2.5,-0.9 3.9,-0.7 1.7,0.1 3.7,0.8 5.2,1.7 4.4,2.8 5.7,8.4 5.2,13.3 -0.8,6.2 -7.7,19.9 -15.4,19.6 -0.1,0 -0.2,0 -0.3,0.1 -0.5,-7.3 -3.6,-14 -11.1,-18.4 -4.6,-2.7 -13.3,-4 -15.8,2.3 -2.6,6.5 5,13.4 10,16.1 4.7,2.5 9.6,3.5 14.4,3.5 -2.9,5.9 -8,10.8 -13.2,14.7 -4.3,3.2 -9.1,4.3 -13.9,1.4 -2.5,-1.5 -4.3,-3.4 -5.2,-6.3 -0.2,-1 -0.4,-2 -0.5,-3 -0.6,-4.3 1.9,-5.9 7.5,-4.8 -0.2,1.4 2,2 2.2,0.6 0.7,-4.7 -4.3,-7.6 -8.2,-4.8 -5.5,3.9 -4.3,12.8 -0.5,17.4 10,11.9 24.8,-0.1 31.9,-10.9 -0.7,4.9 -2.4,9.7 -4.5,14.1 -5.3,11.3 -13.3,21.2 -21.9,30.1 -16.4,16.8 -35.8,31.1 -48.9,50.9 -6.5,9.9 -11.4,21.9 -9.3,33.9 1.8,10.2 8.9,19.3 18.3,23.6 18.9,8.6 44.4,-5.9 37.5,-28.2 -2.6,-8.6 -10.3,-14.8 -19.4,-13.7 -9.1,1 -17.1,8.1 -17.2,17.5 0,1.5 2.2,1.5 2.3,0 0.2,-11.2 13.9,-18.9 23.8,-13.8 9.3,4.8 11.8,18.2 7,27 -5.5,10.1 -18.8,13.7 -29.4,10.5 -11.8,-3.6 -20.4,-14.8 -21.1,-27.1 -1.2,-23.5 20.1,-43.1 35.7,-57.8 14.4,-13.5 29.8,-26.6 40.2,-43.6 4.6,-7.5 8.9,-17.9 9.4,-27.7 0,-0.1 0.1,-0.1 0.1,-0.2 10.8,-1 21.2,-7.2 29.2,-14.5 8.4,-7.6 15.6,-16.4 23.8,-24.3 9.1,-8.8 18.7,-17.3 29,-24.6 10.8,-7.6 23.4,-13.8 37,-12.2 13.3,1.5 25.4,11.8 24.1,26.1 -1.1,12.6 -16.2,20.1 -26.3,11.5 -11.4,-9.6 5.5,-27.3 15.3,-17.7 1,1 2.6,-0.6 1.6,-1.6 -11.2,-10.9 -30.5,7.2 -20.1,19.3 4.9,5.7 13.8,7.1 20.6,4.5 7.8,-2.9 11.7,-11 11.3,-19 -0.1,-2.2 -0.4,-4.2 -0.9,-6.1 4.2,5.2 9.5,9.5 15.4,12.8 12.1,6.8 25.4,8.5 38.9,9.3 10.2,1.4 20.7,1.4 31.1,1 5.5,-0.1 11,-0.3 16.4,-0.9 12.3,-1 24.5,-2.9 35.5,-8.8 6.2,-3.4 11.9,-7.9 16.3,-13.4 -2.1,7 -1.4,15 3.5,20.7 5.6,6.4 16.1,7.5 23.3,3.3 17.5,-10.2 -3.3,-35.2 -16.2,-22.6 -1,1 0.6,2.6 1.6,1.6 8.4,-8.2 23.6,4.3 18.1,14.4 -4.8,8.8 -19.1,8.9 -25.2,1.7 -8.2,-9.5 -3.2,-24.7 6.3,-31.1 10.1,-6.8 23.5,-6.1 34.4,-1.8 11.9,4.7 22.1,13.1 31.7,21.3 9.2,7.9 17.8,16.3 26,25.2 11,11.8 23.8,24.8 40.4,26 0.1,0.1 0.1,0.3 0.2,0.4 0.1,5 1.3,10 3,14.6 15.1,39.6 59.9,56.8 77.8,94.3 6.3,13.3 6.5,29.3 -4.7,40 -9.2,8.8 -23.9,11.1 -34.7,3.7 -10.1,-7 -12.3,-22.8 -3.1,-31.6 9.4,-9 27.2,-2 27.3,11.2 0,1.5 2.3,1.5 2.3,0 -0.2,-17.8 -25.2,-23.7 -34.3,-8.9 -10.4,16.8 3.7,35.3 21.7,36 0.9,0 1.8,0 2.7,0 -3.9,0.9 -7.7,2.6 -11.2,5.4 -10.8,8.4 -14.9,21.4 -16.3,34.6 -0.1,1.4 -0.3,2.8 -0.4,4.2 -0.1,1.4 -0.3,2.9 -0.4,4.3 -0.7,9.7 -0.8,19.7 0.4,29.3 0.5,8.4 1.4,16.7 4.8,24.5 4.1,9.3 11.6,17.7 21.5,20.8 -15.8,0.3 -30.6,13.1 -25.2,30.7 2.6,8.6 10.3,14.8 19.4,13.7 9.1,-1 17.1,-8.1 17.2,-17.5 0,-1.5 -2.2,-1.5 -2.3,0 -0.2,11.2 -13.9,18.9 -23.8,13.8 -9.3,-4.8 -11.8,-18.2 -7,-27 5.5,-10.1 18.8,-13.7 29.4,-10.5 11.8,3.6 20.4,14.8 21.1,27.1 1.2,23.5 -20.1,43.1 -35.7,57.8 -14.4,13.5 -29.8,26.6 -40.2,43.6 -4.6,7.5 -8.9,18 -9.4,27.7 0,0.1 -0.1,0.1 -0.1,0.2 -10.8,1 -21.2,7.2 -29.2,14.5 -8.4,7.6 -15.6,16.4 -23.8,24.3 -9.1,8.8 -18.7,17.3 -29,24.6 -10.8,7.6 -23.4,13.8 -37,12.2 -13.3,-1.5 -25.4,-11.8 -24.1,-26.1 1.1,-12.6 16.2,-20.1 26.3,-11.5 11.4,9.6 -5.5,27.3 -15.3,17.7 -1,-1 -2.6,0.6 -1.6,1.6 11.2,10.9 30.5,-7.2 20.1,-19.3 -4.9,-5.7 -13.8,-7.1 -20.6,-4.5 -7.8,2.9 -11.7,11 -11.3,19 0.1,2.2 0.4,4.2 0.9,6.1 -4.2,-5.2 -9.5,-9.5 -15.4,-12.8 -12.1,-6.8 -25.4,-8.5 -38.9,-9.3 -10.2,-1.4 -20.7,-1.4 -31.1,-1 -5.5,0.1 -11,0.3 -16.4,0.9 -12.3,1 -24.5,2.9 -35.5,8.8 -6.2,3.4 -11.9,7.9 -16.3,13.4 2.1,-7 1.4,-15 -3.5,-20.7 -5.6,-6.4 -16.1,-7.5 -23.3,-3.3 -17.5,10.2 3.3,35.2 16.2,22.6 1,-1 -0.6,-2.6 -1.6,-1.6 -8.4,8.2 -23.6,-4.3 -18.1,-14.4 4.8,-8.8 19.1,-8.9 25.2,-1.7 8.2,9.5 3.2,24.7 -6.3,31.1 -10.1,6.8 -23.5,6.1 -34.4,1.8 -11.9,-4.7 -22.1,-13.1 -31.8,-21.3 -9.2,-7.9 -17.8,-16.3 -26,-25.2 -11,-11.8 -23.8,-24.8 -40.4,-26 -0.1,-0.1 -0.1,-0.3 -0.2,-0.4 -0.1,-5 -1.3,-10 -3,-14.6 -15.1,-39.6 -59.9,-56.8 -77.8,-94.3 -6.3,-13.3 -6.5,-29.3 4.7,-40 9.2,-8.8 23.9,-11.1 34.7,-3.7 10.1,7 12.3,22.8 3.1,31.6 -9.4,9 -27.2,2 -27.3,-11.2 0,-1.5 -2.3,-1.5 -2.3,0 0.2,17.8 25.2,23.7 34.3,8.9 10.4,-16.8 -3.7,-35.3 -21.7,-36 -22.9,-0.9 -36.5,22.6 -30.7,43.1 6.6,23.3 27.9,40.3 44.9,56.1 9,8.4 17.9,17 25.1,26.9 6,8.1 12.1,18.5 13.6,29 -7.1,-10.7 -21.9,-22.6 -31.8,-10.7 -3.7,4.4 -5,12.8 -0.1,16.9 3.8,3.3 9.6,0.9 8.8,-4.3 -0.2,-1.4 -2.4,-0.8 -2.2,0.6 -5.1,1.2 -7.5,0.1 -7.4,-3.2 -0.3,-1.5 -0.1,-3.1 0.4,-4.6 0.6,-1.9 1.8,-3.9 3.3,-5.2 4.8,-4.3 11.1,-3.2 15.8,0.3 5.3,3.9 10.3,8.8 13.3,14.8 -1.5,0 -2.9,0.1 -4.4,0.2 -7,0.9 -14,4.1 -18.1,10 -3.8,5.5 -3.3,12.7 4.4,13.7 7.3,0.9 14,-4.7 17.3,-10.7 1.7,-3.2 2.7,-6.5 3,-10 0.2,0.1 0.3,0.1 0.6,0.1 7.8,-0.2 14.7,13.4 15.4,19.6 0.5,4.5 -0.5,9.4 -4.1,12.4 -1.8,1.5 -3.9,2.5 -6.2,2.6 -0.9,-0.1 -1.8,-0.1 -2.7,-0.2 -4,-0.7 -4.1,-3.1 -0.4,-7.4 0.6,1.3 2.7,0.7 2.2,-0.6 -2.3,-5.4 -9.6,-3.9 -9.7,2.1 -0.1,7.6 9.6,9.7 15.2,7.2 7.2,-3.2 9.2,-12 7.4,-19.1 -1.2,-4.9 -5.3,-12.5 -10.4,-16.4 5.9,1.8 11.5,5 16.3,8.9 10.2,8.2 18.4,18.7 27.8,27.8 9.7,9.4 19.9,18.4 31.1,26 15.2,10.4 41,18.3 55.4,3.2 -1.1,2.8 -1.9,5.8 -2.4,8.9 -1.8,13.4 3.9,26.8 13,36.5 9.9,10.6 24,17.8 38.7,15.6 15.2,-2.3 30.3,-14.5 33.3,-30 5.8,-30 -41.6,-46.9 -52.1,-16.3 -4.2,12.2 5.3,31.1 20.3,25.3 5.7,-2.2 10.1,-8.4 7.9,-14.6 -2,-5.6 -8.5,-8.8 -13.9,-6.5 -1.3,0.5 -0.7,2.7 0.6,2.2 4,-1.6 8.6,0.1 10.7,3.9 2.5,4.7 -0.6,10.1 -4.9,12.3 -7.8,4.1 -16.5,-2.2 -19,-9.8 -4.1,-12.8 6.8,-26.1 19.6,-27 14.1,-1 28.6,10.3 28.9,24.9 0.4,14.6 -12.4,27.4 -25.5,31.8 -23.2,7.9 -48.1,-10.5 -54.4,-32.8 -7.3,-26 14.4,-46.9 38,-52.6 5.4,-1.3 10.9,-2.1 16.5,-2.6 0.2,0.1 0.3,0.1 0.6,0.1 1.6,-0.2 3.3,-0.4 4.9,-0.5 4,-0.2 8,-0.4 12,-0.5 3.1,-0.1 6.1,-0.2 9.2,-0.3 7.7,0.1 15.4,0.5 23,1 0.1,0 0.1,0 0.2,0 0,0 0,0 0.1,0 1.8,0.1 3.5,0.3 5.3,0.4 22.4,1.8 48.5,11.1 55,35.4 6.2,23.4 -13.5,49.5 -36.6,53.7 -14.8,2.7 -30.1,-4.6 -38.4,-17 -9.2,-13.7 -4.8,-31.3 10.3,-38.5 14.2,-6.8 32.5,0.6 33.8,17.5 0.6,8.3 -5.2,17.8 -14.3,18 -5.4,0.1 -11.5,-4.4 -11.2,-10.2 0.2,-5.8 6.4,-9.5 11.6,-7.4 1.3,0.6 1.9,-1.6 0.6,-2.2 -5.2,-2.1 -11.1,0.5 -13.5,5.6 -2.4,5.1 0.1,10.8 4.5,13.9 11.5,8 24.6,-4.3 24.6,-16.3 0,-13.5 -11.8,-24.2 -25,-23.9 -14.5,0.3 -28.4,12.2 -28.8,27.2 -0.5,15.9 13.6,29.8 28,34.3 15.2,4.8 30.5,-1 41.9,-11.5 10.1,-9.4 17,-23 16,-37.1 -0.3,-4 -1.3,-7.8 -2.7,-11.3 9.6,9.1 26.5,10.4 39.3,5.7 12,-4.5 22.3,-12.7 32.1,-20.9 10.7,-9 20.5,-18.9 30.1,-29.1 8.4,-8.9 17.8,-18.4 30,-21.7 -5.2,3.7 -9.3,11.1 -10.7,15.9 -2.1,7.3 -0.3,16.5 7.2,19.9 5.6,2.5 14.4,0.6 15.1,-6.5 0.6,-6.2 -7.1,-8.7 -9.6,-2.8 -0.6,1.3 1.6,1.9 2.2,0.6 3.6,3.9 3.9,6.2 0.9,6.9 -1.2,0.6 -2.5,0.9 -3.9,0.7 -1.7,-0.1 -3.7,-0.8 -5.2,-1.7 -4.4,-2.8 -5.7,-8.4 -5.2,-13.3 0.8,-6.2 7.7,-19.9 15.4,-19.6 0.1,0 0.2,0 0.3,-0.1 0.5,7.3 3.6,14 11.1,18.4 4.6,2.7 13.3,4 15.8,-2.3 2.6,-6.5 -5,-13.4 -10,-16.1 -4.7,-2.5 -9.6,-3.5 -14.4,-3.5 2.9,-5.9 8,-10.8 13.2,-14.7 4.3,-3.2 9.1,-4.3 13.9,-1.4 2.5,1.5 4.3,3.4 5.2,6.3 0.2,1 0.4,2 0.5,3 0.6,4.3 -1.9,5.9 -7.5,4.8 0.2,-1.4 -2,-2 -2.2,-0.6 -0.7,4.7 4.3,7.6 8.2,4.8 5.5,-3.9 4.3,-12.8 0.5,-17.4 -10,-11.9 -24.8,0.1 -31.9,10.9 0.7,-4.9 2.4,-9.7 4.5,-14.1 5.3,-11.3 13.3,-21.2 21.9,-30.1 16.4,-16.8 35.8,-31.1 48.9,-50.9 6.5,-9.9 11.4,-21.9 9.3,-33.9 -1.8,-10.2 -8.9,-19.3 -18.3,-23.6 -1.1,-0.5 -2.3,-0.9 -3.4,-1.3 8.4,-0.2 16.4,-4.1 22.5,-9.9 8.3,-7.9 13.5,-19.2 10.7,-30.7 -2.4,-10.4 -11.5,-20.6 -22.4,-22 z M 311.4,275.1 c -3,-1 -5.8,-2.5 -8.1,-4.6 -4.3,-4 -6.7,-13.5 1.5,-13.4 7.9,0.1 13.8,7.8 15.7,14.7 0.4,1.6 0.7,3.3 0.8,4.9 -3.4,-0.1 -6.7,-0.6 -9.9,-1.6 z m 457.2,-2.7 c 1.7,-7 7.1,-14.4 14.8,-15.3 1.7,-0.2 4.1,-0.3 5.6,0.9 4.3,3.5 0.4,8.8 -1.9,11.3 -2.2,2.3 -4.9,4 -7.9,5.2 -3.7,1.5 -7.4,2.1 -11.1,2 0,-1.3 0.1,-2.7 0.5,-4.1 z M 320.7,727.6 c -1.7,7 -7.1,14.4 -14.8,15.3 -1.7,0.2 -4.1,0.3 -5.6,-0.9 -4.3,-3.5 -0.4,-8.8 1.9,-11.3 2.2,-2.3 4.9,-4 7.9,-5.2 3.7,-1.5 7.4,-2.1 11.1,-2 0,1.3 -0.2,2.7 -0.5,4.1 z m 457.2,-2.7 c 3,1 5.8,2.5 8.1,4.7 4.3,4 6.7,13.5 -1.5,13.4 -7.9,-0.1 -13.8,-7.8 -15.7,-14.7 -0.4,-1.6 -0.7,-3.3 -0.8,-4.9 3.3,0 6.7,0.5 9.9,1.5 z m 84.7,-192.4 c -2.4,16.4 -20.3,30.8 -37,27.6 -17.6,-3.4 -25.5,-22.1 -27,-38.1 -0.2,-1.7 -0.3,-3.4 -0.4,-5.1 0,-0.1 0,-0.2 0,-0.3 -0.1,-0.4 -0.1,-0.8 -0.1,-1.2 -0.7,-9.3 -1,-18.7 -0.3,-28 0.1,-1.2 0.2,-2.4 0.3,-3.6 0.1,-1.1 0.2,-2.1 0.3,-3.2 0,0 0,-0.1 0,-0.1 0.1,-0.9 0.2,-1.8 0.3,-2.7 1.8,-16.4 10.3,-35.7 29,-37.7 15.5,-1.7 31.6,11.3 34.7,26.3 4.1,19.2 -21,44.6 -36.9,24.8 -7,-8.7 -5.7,-22.4 5.4,-26.9 5.1,-2 11,-1.3 14.8,3 2.7,3 3.6,9.1 -0.1,11.9 -2.1,1.6 -4.2,2 -6.5,1 -2.8,-1.2 -4.2,-4.1 -3.1,-7.1 0.5,-1.4 -1.7,-2 -2.2,-0.6 -2.8,7.4 5.8,13.7 12.2,9.3 8,-5.6 3.7,-16.7 -4.1,-19.8 -8.3,-3.3 -18.3,1.8 -21.7,9.8 -4.1,9.8 1.1,21.7 10.3,26.6 2,1.1 4,1.7 6.1,2 -19.7,2.8 -25.5,36.2 -2.3,39.3 9,1.2 20,-7.5 14.9,-17.1 -4.8,-9 -19.1,-4.2 -15.3,5.7 0.5,1.4 2.7,0.8 2.2,-0.6 -1.9,-4.9 2.9,-8.9 7.3,-7.1 4.2,1.8 5.9,6.2 3.8,10.6 -2.4,5 -8.5,7.2 -13.7,6 -10.8,-2.4 -15.1,-14.2 -10.5,-23.8 5.3,-11.2 18.4,-13.9 28.2,-6.8 8,5.8 12.8,15.8 11.4,25.9 z"
           id="path37"
           inkscape:connector-curvature="0" /><path
           d="m 860.5,496.4 c -0.2,0 -9.4,1.7 -9.4,3.9 0,2.1 9.2,3.9 9.4,3.9 0.2,0 9.4,-1.7 9.4,-3.9 0.1,-2.2 -9.1,-3.9 -9.4,-3.9 z"
           id="path39"
           inkscape:connector-curvature="0" /><path
           d="m 804.2,749.6 c -0.1,-0.1 -1.7,-1 -3.4,-1.9 -1.7,-0.9 -3.6,-1.8 -4.5,-1.1 -0.8,0.6 -0.4,2.8 0.4,4.8 0.8,2 2.1,3.8 2.1,3.8 0.1,0.1 1.9,1.2 3.9,2 2,0.8 4.2,1.1 4.8,0.2 0.6,-0.9 -0.4,-2.7 -1.4,-4.4 -0.8,-1.8 -1.8,-3.4 -1.9,-3.4 z"
           id="path41"
           inkscape:connector-curvature="0" /><path
           d="m 288.7,747.7 c -1.7,0.9 -3.4,1.8 -3.4,1.9 -0.1,0.1 -1.1,1.6 -2.1,3.3 -1,1.7 -2,3.6 -1.4,4.4 0.6,0.9 2.8,0.5 4.8,-0.2 2,-0.7 3.9,-1.9 3.9,-2 0.1,-0.1 1.3,-1.8 2.1,-3.8 0.9,-2 1.3,-4.1 0.4,-4.8 -0.7,-0.6 -2.6,0.3 -4.3,1.2 z"
           id="path43"
           inkscape:connector-curvature="0" /><path
           d="m 544.7,833.4 c -2.1,0 -3.9,12.7 -3.9,13 0,0.3 1.7,13 3.9,13 2.1,0 3.9,-12.7 3.9,-13 -0.1,-0.3 -1.8,-13 -3.9,-13 z"
           id="path45"
           inkscape:connector-curvature="0" /><path
           d="m 353.6,301.8 c -0.2,-0.2 -4.2,-3.2 -8.6,-5.5 -4.5,-2.3 -9.3,-3.9 -10.7,-2.3 -1.4,1.6 0.8,6 3.1,10.2 2.3,4.1 4.7,8 4.9,8.2 0.1,0.2 3.8,2.8 7.8,5.4 4,2.6 8.2,5.1 9.9,3.8 1.7,-1.3 0.5,-6.2 -1.5,-10.8 -2,-4.7 -4.7,-8.9 -4.9,-9 z"
           id="path47"
           inkscape:connector-curvature="0" /><path
           d="m 331.4,706.9 c 3.3,2.7 19,-10.7 19.3,-11 0.3,-0.4 10.8,-18.2 7.5,-20.9 -3.3,-2.7 -19,10.7 -19.3,11 -0.3,0.3 -10.8,18.2 -7.5,20.9 z"
           id="path49"
           inkscape:connector-curvature="0" /><path
           d="m 756.9,284.5 c -1.7,-1.3 -6.5,1.9 -11.1,5 -4.6,3.2 -9,6.4 -9.1,6.6 -0.2,0.2 -3.3,4.6 -6.4,9.2 -3.1,4.6 -6.1,9.5 -4.8,11.2 1.3,1.7 6.9,-0.2 12.1,-3 5.2,-2.8 10,-6.4 10.1,-6.5 0.2,-0.2 3.7,-5 6.4,-10.2 2.7,-5.4 4.5,-11.1 2.8,-12.3 z"
           id="path51"
           inkscape:connector-curvature="0" /><path
           d="m 722.2,674.8 c -3.2,2.8 8.3,21.7 8.7,22.1 0.3,0.4 17.2,14.9 20.4,12.1 3.2,-2.8 -8.3,-21.7 -8.7,-22.1 -0.3,-0.3 -17.2,-14.8 -20.4,-12.1 z"
           id="path53"
           inkscape:connector-curvature="0" /><path
           d="m 272.9,323.2 c 3.7,0.8 7.4,0.7 7.5,0.6 0.2,0 3.4,-1.8 6.2,-4.4 2.8,-2.5 4.9,-5.7 4,-7.6 -0.9,-1.9 -4.5,-2.3 -7.8,-2.6 -3.3,-0.3 -6.3,-0.3 -6.4,-0.3 -0.1,0 -2.7,1.6 -5.4,3.5 -2.7,1.9 -5.5,4.1 -5.4,6.2 0.2,2.1 3.6,3.8 7.3,4.6 z"
           id="path55"
           inkscape:connector-curvature="0" /><path
           d="m 351.6,251.7 c 4.1,1.1 11,-11.2 11.1,-11.5 0.1,-0.3 0.3,-14.4 -3.8,-15.5 -4.1,-1.1 -11,11.2 -11.1,11.6 -0.2,0.2 -0.3,14.3 3.8,15.4 z"
           id="path57"
           inkscape:connector-curvature="0" /><path
           d="m 734.3,248.3 c 4.2,-0.7 5.3,-15.1 5.2,-15.4 -0.1,-0.3 -5.8,-13.6 -10,-12.9 -4.2,0.7 -5.3,15.1 -5.2,15.4 0.1,0.4 5.8,13.6 10,12.9 z"
           id="path59"
           inkscape:connector-curvature="0" /><path
           d="m 796,308 c -3.7,-0.2 -7.6,-0.1 -8.6,1.8 -1,1.9 1.2,5.2 3.9,8 2.6,2.8 5.7,5.1 5.8,5.2 0.2,0.1 3.9,0.8 7.7,0.8 3.9,0.1 7.8,-0.5 8.6,-2.5 0.7,-2 -1.8,-5 -4.5,-7.6 -2.7,-2.6 -5.4,-4.8 -5.6,-4.8 -0.1,-0.1 -3.6,-0.7 -7.3,-0.9 z"
           id="path61"
           inkscape:connector-curvature="0" /><path
           d="m 730,758.4 c -4,4 -7.3,8.7 -7.4,8.9 -0.1,0.2 -1.8,5.7 -2.6,11.3 -0.8,5.6 -0.5,11.3 1.5,11.9 2,0.6 5.4,-3.7 8.6,-7.8 3.2,-4.2 6.2,-8.3 6.3,-8.5 0.1,-0.2 1.5,-5.1 2.9,-10.2 1.4,-5.1 2.7,-10.4 0.9,-11.6 -1.6,-1.3 -6.2,2 -10.2,6 z"
           id="path63"
           inkscape:connector-curvature="0" /><path
           d="m 813,680.6 c -3.9,-0.4 -7.8,-0.1 -7.9,-0.1 -0.2,0 -3.5,2 -6.6,4.4 -3.1,2.5 -5.9,5.4 -5.2,7.5 0.7,2 4.7,2.7 8.5,2.9 3.8,0.2 7.5,0 7.7,0 0.2,0 3.4,-1.9 6.4,-4.2 3.1,-2.3 6,-5.1 5.5,-7.1 -0.5,-2.1 -4.5,-3.1 -8.4,-3.4 z"
           id="path65"
           inkscape:connector-curvature="0" /><path
           d="m 297.2,693.4 c 0.7,-2 -3.1,-5.4 -7.5,-8 -4.4,-2.6 -9.4,-4.3 -9.6,-4.3 -0.2,0 -5.4,0 -10.5,1.1 -5.1,1.1 -9.8,3.2 -9.7,5.3 0.1,2.1 4.7,3.9 9,5.6 4.4,1.7 8.5,3.2 8.7,3.2 0.2,0 4.6,-0.1 9.3,-0.4 4.7,-0.2 9.6,-0.5 10.3,-2.5 z"
           id="path67"
           inkscape:connector-curvature="0" /><path
           d="m 354.6,756 c -2.8,-4 -6.5,-7.2 -8.4,-6.2 -1.9,0.9 -1.9,5.5 -1.9,9.8 0,4.3 0,8.3 0,8.5 0,0.2 1.7,3.8 3.5,7.7 1.8,3.8 3.7,8 5.9,8.1 2.1,0 4.1,-4.4 5,-9.2 0.9,-4.8 0.7,-9.7 0.7,-9.9 -0.1,-0.3 -2,-4.9 -4.8,-8.8 z"
           id="path69"
           inkscape:connector-curvature="0" /><path
           d="m 339.6,647.9 c 1.1,0 1.9,-147.6 1.9,-151.1 0,-3.5 -0.9,-151.2 -1.9,-151.2 -1.1,0 -1.9,147.7 -1.9,151.2 0,3.5 0.8,151.1 1.9,151.1 z"
           id="path71"
           inkscape:connector-curvature="0" /><path
           d="m 745.3,496.9 c 0,-3.5 -0.9,-151.2 -1.9,-151.2 -1.1,0 -1.9,147.7 -1.9,151.2 0,3.5 0.9,151.1 1.9,151.1 1.1,-0.1 1.9,-147.7 1.9,-151.1 z"
           id="path73"
           inkscape:connector-curvature="0" /><path
           d="m 541.4,288.9 c -3.5,0 -151.1,0.9 -151.1,1.9 0,1.1 147.6,1.9 151.1,1.9 3.5,0 151.2,-0.9 151.2,-1.9 0,-1 -147.7,-1.9 -151.2,-1.9 z"
           id="path75"
           inkscape:connector-curvature="0" /><path
           d="m 541.4,696.6 c 3.5,0 151.2,-0.9 151.2,-1.9 0,-1.1 -147.7,-1.9 -151.2,-1.9 -3.5,0 -151.1,0.9 -151.1,1.9 0.1,1.1 147.7,1.9 151.1,1.9 z"
           id="path77"
           inkscape:connector-curvature="0" /></g></g></switch></svg>