<?xml version="1.0" encoding="UTF-8" standalone="no"?>
<svg
   xmlns:dc="http://purl.org/dc/elements/1.1/"
   xmlns:cc="http://creativecommons.org/ns#"
   xmlns:rdf="http://www.w3.org/1999/02/22-rdf-syntax-ns#"
   xmlns:svg="http://www.w3.org/2000/svg"
   xmlns="http://www.w3.org/2000/svg"
   xmlns:sodipodi="http://sodipodi.sourceforge.net/DTD/sodipodi-0.dtd"
   xmlns:inkscape="http://www.inkscape.org/namespaces/inkscape"
   version="1.1"
   id="Layer_1"
   x="0px"
   y="0px"
   viewBox="0 0 1000 1000"
   width="100%"
   height="100%"
   style="enable-background:new 0 0 1000 1000;"
   xml:space="preserve"
    class="withFill"
   ><style
     type="text/css"
     id="style3">
	.st0{fill:#9E9E9E;}
</style><switch
     id="switch5"
     transform="translate(-56.8,0)"><g
       id="g7"><g
         id="g9"><g
           id="g11"><path
             d="M 556.8,876.8 C 349,876.8 180,707.8 180,500 180,292.2 349,123.2 556.8,123.2 c 207.8,0 376.8,169 376.8,376.8 0,207.8 -169,376.8 -376.8,376.8 z m 0,-745.1 c -203.1,0 -368.3,165.2 -368.3,368.3 0,203.1 165.2,368.3 368.3,368.3 203.1,0 368.3,-165.2 368.3,-368.3 0,-203.1 -165.2,-368.3 -368.3,-368.3 z"
             id="path13"
             inkscape:connector-curvature="0" /></g><g
           id="g15"><path
             d="M 556.8,819.5 C 380.6,819.5 237.3,676.2 237.3,500 237.3,323.8 380.6,180.5 556.8,180.5 733,180.5 876.3,323.8 876.3,500 876.3,676.2 733,819.5 556.8,819.5 Z m 0,-634.7 C 383,184.8 241.6,326.2 241.6,500 241.6,673.8 383,815.2 556.8,815.2 730.6,815.2 872,673.8 872,500 872,326.2 730.6,184.8 556.8,184.8 Z"
             id="path17"
             inkscape:connector-curvature="0" /></g><g
           id="g19"><path
             d="M 556.8,809.4 C 386.2,809.4 247.4,670.6 247.4,500 c 0,-170.6 138.8,-309.4 309.4,-309.4 170.6,0 309.4,138.8 309.4,309.4 0,170.6 -138.8,309.4 -309.4,309.4 z m 0,-616.6 c -169.4,0 -307.2,137.8 -307.2,307.2 0,169.4 137.8,307.2 307.2,307.2 169.4,0 307.3,-137.8 307.3,-307.2 0,-169.4 -137.9,-307.2 -307.3,-307.2 z"
             id="path21"
             inkscape:connector-curvature="0" /></g><g
           id="g23"><g
             id="g25"><path
               class="st0"
               d="m 897.7,545 c -5.9,-0.8 -12,0.3 -16.9,3.1 -4.9,2.9 -8.8,7.5 -10,14.3 -1.3,6.8 0.2,12.4 3.8,17 3.6,4.5 8.7,7.8 14.5,9.4 5.7,1.5 12.1,1.3 17.3,-1.4 5.2,-2.7 9.6,-7.9 11.1,-15.7 1.4,-7.8 -0.4,-14.2 -4.3,-18.7 -3.9,-4.6 -9.6,-7.2 -15.5,-8 z"
               id="path27"
               inkscape:connector-curvature="0"
               style="fill:#9e9e9e" /></g><g
             id="g29"><path
               class="st0"
               d="m 829.6,709.4 c -4.7,-3.6 -10.6,-5.8 -16.2,-5.8 -2.9,0 -5.6,0.6 -8.3,1.8 -2.7,1.1 -5.3,2.9 -7.5,5.6 -2.2,2.6 -3.7,5.4 -4.6,8.2 -0.9,2.8 -1,5.6 -0.6,8.5 0.8,5.7 3.7,11.2 7.9,15.4 4.2,4.2 9.7,7.1 15.6,7.3 2.9,0.1 6,-0.4 9,-1.6 3,-1.2 5.9,-3.4 8.5,-6.4 2.6,-3 4.3,-6.1 5.3,-9.2 0.9,-3.1 0.9,-6.2 0.4,-9.2 -1.3,-5.8 -4.8,-10.9 -9.5,-14.6 z"
               id="path31"
               inkscape:connector-curvature="0"
               style="fill:#9e9e9e" /></g><g
             id="g33"><path
               class="st0"
               d="m 677.1,804.7 c -2.5,-1.4 -5.2,-2.4 -8.1,-2.6 -2.9,-0.2 -6,-0.1 -9.3,1.1 -3.3,1.1 -5.9,2.8 -8,4.8 -2.1,2 -3.7,4.3 -4.8,7 -2.2,5.3 -2.4,11.5 -0.9,17.3 1.5,5.7 4.9,11 9.9,14.2 2.5,1.6 5.4,2.7 8.6,3.2 3.2,0.4 6.7,-0.1 10.5,-1.3 3.8,-1.3 6.8,-3 9.1,-5.3 2.3,-2.3 3.9,-4.9 4.9,-7.7 2,-5.6 1.5,-11.8 -0.8,-17.3 -2.1,-5.7 -6.1,-10.6 -11.1,-13.4 z"
               id="path35"
               inkscape:connector-curvature="0"
               style="fill:#9e9e9e" /></g><g
             id="g37"><path
               class="st0"
               d="m 494.4,814 c -6.8,-1.3 -12.4,0.2 -17,3.8 -4.5,3.6 -7.8,8.7 -9.4,14.5 -1.5,5.7 -1.3,12.1 1.4,17.3 2.7,5.2 7.9,9.6 15.7,11.1 7.8,1.4 14.2,-0.4 18.7,-4.3 4.5,-3.9 7.2,-9.6 7.9,-15.5 0.8,-5.9 -0.3,-12 -3.1,-16.9 -2.8,-4.8 -7.4,-8.8 -14.2,-10 z"
               id="path39"
               inkscape:connector-curvature="0"
               style="fill:#9e9e9e" /></g><g
             id="g41"><path
               class="st0"
               d="m 347.4,772.7 c 3.6,-4.7 5.8,-10.6 5.8,-16.2 0,-2.9 -0.6,-5.6 -1.8,-8.3 -1.1,-2.7 -2.9,-5.3 -5.6,-7.5 -2.6,-2.3 -5.4,-3.7 -8.1,-4.6 -2.8,-0.9 -5.6,-1 -8.5,-0.6 -5.7,0.8 -11.2,3.7 -15.4,7.9 -4.2,4.2 -7.1,9.7 -7.3,15.6 -0.1,2.9 0.4,6 1.6,9 1.2,3 3.4,5.9 6.4,8.5 3,2.6 6.1,4.3 9.2,5.3 3.1,0.9 6.2,0.9 9.2,0.4 5.8,-1.2 10.9,-4.7 14.5,-9.5 z"
               id="path43"
               inkscape:connector-curvature="0"
               style="fill:#9e9e9e" /></g><g
             id="g45"><path
               class="st0"
               d="m 239,631.5 c 5.5,-2.3 10.3,-6.3 13.2,-11.2 1.4,-2.5 2.4,-5.2 2.6,-8.1 0.2,-2.9 0.1,-6 -1.1,-9.3 -1.1,-3.3 -2.8,-5.9 -4.8,-8 -2,-2.1 -4.3,-3.7 -7,-4.8 -5.3,-2.2 -11.5,-2.4 -17.3,-0.9 -5.7,1.5 -11,4.9 -14.2,9.9 -1.6,2.5 -2.7,5.4 -3.2,8.6 -0.4,3.2 0.1,6.7 1.3,10.5 1.3,3.8 3,6.8 5.3,9.1 2.3,2.3 4.9,3.9 7.7,4.9 5.8,2.1 12,1.6 17.5,-0.7 z"
               id="path47"
               inkscape:connector-curvature="0"
               style="fill:#9e9e9e" /></g><g
             id="g49"><path
               class="st0"
               d="m 215.9,455 c 5.9,0.8 12,-0.3 16.9,-3.1 4.9,-2.9 8.8,-7.5 10,-14.3 1.3,-6.8 -0.2,-12.4 -3.8,-17 -3.6,-4.5 -8.7,-7.8 -14.5,-9.4 -5.7,-1.5 -12.1,-1.3 -17.3,1.4 -5.2,2.7 -9.6,7.9 -11.1,15.7 -1.4,7.8 0.4,14.2 4.3,18.7 4,4.6 9.6,7.2 15.5,8 z"
               id="path51"
               inkscape:connector-curvature="0"
               style="fill:#9e9e9e" /></g><g
             id="g53"><path
               class="st0"
               d="m 284.1,290.6 c 4.7,3.6 10.6,5.8 16.2,5.8 2.9,0 5.6,-0.6 8.3,-1.8 2.7,-1.1 5.3,-2.9 7.5,-5.6 2.2,-2.6 3.7,-5.4 4.6,-8.2 0.9,-2.8 1,-5.6 0.6,-8.5 -0.8,-5.7 -3.7,-11.2 -7.9,-15.4 -4.2,-4.2 -9.7,-7.1 -15.6,-7.3 -2.9,-0.1 -6,0.4 -9,1.6 -3,1.2 -5.9,3.4 -8.5,6.4 -2.6,3 -4.3,6.1 -5.3,9.2 -0.9,3.1 -0.9,6.2 -0.4,9.2 1.2,5.8 4.8,10.9 9.5,14.6 z"
               id="path55"
               inkscape:connector-curvature="0"
               style="fill:#9e9e9e" /></g><g
             id="g57"><path
               class="st0"
               d="m 436.5,195.3 c 2.5,1.4 5.2,2.4 8.1,2.6 2.9,0.2 6,0.1 9.3,-1.1 3.3,-1.1 5.9,-2.8 8,-4.8 2.1,-2 3.7,-4.3 4.8,-7 2.2,-5.3 2.4,-11.5 0.9,-17.3 -1.5,-5.7 -4.9,-11 -9.9,-14.2 -2.5,-1.6 -5.4,-2.7 -8.6,-3.2 -3.2,-0.4 -6.7,0.1 -10.5,1.3 -3.8,1.3 -6.8,3 -9.1,5.3 -2.3,2.3 -3.9,4.9 -4.9,7.7 -2,5.6 -1.5,11.8 0.8,17.3 2.2,5.7 6.2,10.6 11.1,13.4 z"
               id="path59"
               inkscape:connector-curvature="0"
               style="fill:#9e9e9e" /></g><g
             id="g61"><path
               class="st0"
               d="m 619.3,186 c 6.8,1.3 12.4,-0.2 17,-3.8 4.5,-3.6 7.8,-8.7 9.4,-14.5 1.5,-5.7 1.3,-12.1 -1.4,-17.3 -2.7,-5.2 -7.9,-9.6 -15.7,-11.1 -7.8,-1.4 -14.2,0.4 -18.7,4.3 -4.5,3.9 -7.2,9.6 -7.9,15.5 -0.8,5.9 0.3,12 3.1,16.9 2.8,4.8 7.4,8.8 14.2,10 z"
               id="path63"
               inkscape:connector-curvature="0"
               style="fill:#9e9e9e" /></g><g
             id="g65"><path
               class="st0"
               d="m 766.3,227.3 c -3.6,4.7 -5.8,10.6 -5.8,16.2 0,2.9 0.6,5.6 1.8,8.3 1.1,2.7 2.9,5.3 5.6,7.5 2.6,2.3 5.4,3.7 8.1,4.6 2.8,0.9 5.6,1 8.5,0.6 5.7,-0.8 11.2,-3.7 15.4,-7.9 4.2,-4.2 7.1,-9.7 7.3,-15.6 0.1,-2.9 -0.4,-6 -1.6,-9 -1.2,-3 -3.4,-5.9 -6.4,-8.5 -3,-2.6 -6.1,-4.3 -9.2,-5.3 -3.1,-0.9 -6.2,-0.9 -9.2,-0.4 -5.8,1.2 -10.9,4.8 -14.5,9.5 z"
               id="path67"
               inkscape:connector-curvature="0"
               style="fill:#9e9e9e" /></g><g
             id="g69"><path
               class="st0"
               d="m 874.7,368.5 c -5.5,2.3 -10.3,6.3 -13.2,11.2 -1.4,2.5 -2.4,5.2 -2.6,8.1 -0.2,2.9 -0.1,6 1.1,9.3 1.1,3.3 2.8,5.9 4.8,8 2,2.1 4.3,3.7 7,4.8 5.3,2.2 11.5,2.4 17.3,0.9 5.7,-1.5 11,-4.9 14.2,-9.9 1.6,-2.5 2.7,-5.4 3.2,-8.6 0.4,-3.2 -0.1,-6.7 -1.3,-10.5 -1.3,-3.8 -3,-6.8 -5.3,-9.1 -2.3,-2.3 -4.9,-3.9 -7.7,-4.9 -5.8,-2.1 -12,-1.6 -17.5,0.7 z"
               id="path71"
               inkscape:connector-curvature="0"
               style="fill:#9e9e9e" /></g><g
             id="g73"><path
               class="st0"
               d="m 889,589.1 c -5.7,-1.5 -12,-1.3 -17.1,0.9 -5.2,2.2 -9.7,6.2 -11.8,12.8 -2.2,6.5 -1.4,12.4 1.6,17.3 2.8,4.6 6.9,8.3 12,10.6 -5.2,-1.9 -10.8,-2.2 -16,-0.9 -2.8,0.7 -5.4,2 -7.6,3.8 -2.3,1.8 -4.1,4.3 -5.7,7.4 -1.6,3.1 -2.3,6.1 -2.3,9 0,1.5 0.1,2.9 0.4,4.3 0.3,1.4 0.7,2.7 1.2,4 2.1,5.2 6.4,9.8 11.5,12.8 5.2,3 11.2,4.3 17.1,3.1 1.5,-0.3 2.9,-0.8 4.3,-1.4 1.4,-0.7 2.7,-1.5 3.9,-2.5 2.5,-2 4.8,-4.8 6.6,-8.3 1.9,-3.5 2.5,-7.1 2.6,-10.3 0,-3.2 -0.6,-6.2 -1.9,-8.9 -2.3,-4.9 -6.7,-8.8 -11.7,-11.1 5.2,1.9 11,2.3 16.1,0.4 5.5,-2 10.5,-6.5 13.1,-14.1 2.4,-7.6 1.5,-14.1 -1.8,-19.1 -3.5,-4.9 -8.8,-8.3 -14.5,-9.8 z"
               id="path75"
               inkscape:connector-curvature="0"
               style="fill:#9e9e9e" /></g><g
             id="g77"><path
               class="st0"
               d="m 854.9,671.6 c -5.2,-3 -11.1,-4.3 -16.9,-3.6 -2.8,0.4 -5.6,1.3 -8.1,2.8 -2.5,1.5 -4.6,3.8 -6.6,6.6 -2,2.8 -3.1,5.7 -3.5,8.7 -0.2,1.5 -0.2,2.9 -0.1,4.3 0.1,1.4 0.3,2.8 0.7,4.2 1.4,5.5 5,10.5 9.8,14.2 4.8,3.7 10.6,5.7 16.5,5.3 1.5,-0.1 3,-0.4 4.4,-0.8 1.4,-0.5 2.8,-1.1 4.2,-2 2.7,-1.7 5.3,-4.1 7.6,-7.4 2.3,-3.2 3.4,-6.7 3.9,-9.9 0.5,-3.2 0.2,-6.3 -0.7,-9.1 -1.7,-5.7 -6,-10.3 -11.2,-13.3 z"
               id="path79"
               inkscape:connector-curvature="0"
               style="fill:#9e9e9e" /></g><g
             id="g81"><path
               class="st0"
               d="m 784.6,735.4 c -2.8,-0.4 -5.6,-0.2 -8.4,0.7 -2.8,0.8 -5.6,2.2 -8.2,4.5 -2.6,2.3 -4.3,4.9 -5.6,7.5 -1.2,2.6 -1.7,5.5 -1.7,8.3 0,5.4 2,10.9 5.2,15.4 -3.6,-4.3 -8.3,-7.5 -13.5,-8.9 -5.6,-1.5 -11.5,-0.9 -17.2,3 -5.8,3.7 -8.6,9.1 -9.3,14.7 -0.8,5.6 0.6,11.6 3.6,16.8 3,5.1 7.6,9.4 13.3,11.2 5.6,1.8 12.2,1 18.9,-3.3 6.5,-4.5 9.6,-10.5 10.2,-16.3 0.4,-5.6 -1.5,-11.1 -4.7,-15.6 3.6,4.3 8.4,7.5 13.8,8.5 2.9,0.5 6,0.4 9.1,-0.4 3.2,-0.8 6.3,-2.6 9.2,-5.2 3,-2.6 5.1,-5.5 6.4,-8.4 1.3,-3 1.7,-6.1 1.6,-9 -0.3,-5.9 -3.2,-11.5 -7.4,-15.7 -4.2,-4.2 -9.7,-7.1 -15.3,-7.8 z"
               id="path83"
               inkscape:connector-curvature="0"
               style="fill:#9e9e9e" /></g><g
             id="g85"><path
               class="st0"
               d="m 716.4,786.1 c -5.3,-2.2 -11.3,-2.4 -17.4,0.8 -6.3,2.9 -9.7,7.9 -11.1,13.4 -1.5,5.4 -0.9,11.6 1.4,17.1 2.3,5.5 6.3,10.3 11.7,12.9 5.3,2.5 12,2.6 19.2,-0.8 7.1,-3.6 10.9,-9.1 12.2,-14.8 1.2,-5.8 -0.2,-12 -3.2,-17.1 -3,-5.2 -7.6,-9.3 -12.8,-11.5 z"
               id="path87"
               inkscape:connector-curvature="0"
               style="fill:#9e9e9e" /></g><g
             id="g89"><path
               class="st0"
               d="m 636.4,817.8 c -2.3,-1.7 -4.8,-3 -7.6,-3.6 -2.8,-0.6 -6,-0.9 -9.4,-0.2 -3.4,0.7 -6.2,2 -8.6,3.7 -2.4,1.7 -4.2,3.8 -5.7,6.3 -2.6,4.6 -3.7,10.2 -3.2,15.7 -1,-5.5 -3.4,-10.6 -7.2,-14.4 -4,-3.9 -9.5,-6.5 -16.4,-6 -1.7,0.1 -3.3,0.4 -4.8,0.9 -1.5,0.4 -2.9,0.9 -4.2,1.6 -2.6,1.4 -4.7,3.3 -6.4,5.6 -3.5,4.6 -5.3,10.5 -5.3,16.5 0,5.9 1.9,11.8 5.9,16.2 2,2.2 4.5,4 7.5,5.2 1.5,0.6 3.1,1.1 4.9,1.4 1.8,0.2 3.6,0.3 5.6,0.1 7.9,-0.6 13.6,-4 17,-9 3.1,-4.6 4.3,-10.2 3.8,-15.7 1,5.5 3.5,10.6 7.7,14.2 2.3,1.9 5,3.4 8.1,4.2 3.1,0.8 6.7,0.8 10.6,0 3.9,-0.8 7.2,-2.1 9.8,-4.1 2.6,-2 4.5,-4.4 5.9,-7 2.7,-5.3 3,-11.5 1.4,-17.2 -1.6,-5.7 -4.9,-11 -9.4,-14.4 z"
               id="path91"
               inkscape:connector-curvature="0"
               style="fill:#9e9e9e" /></g><g
             id="g93"><path
               class="st0"
               d="m 536.5,819.4 c -1.7,-0.1 -3.4,0 -4.9,0.3 -1.5,0.2 -3,0.5 -4.3,1.1 -2.7,1 -5.1,2.6 -7.1,4.7 -4,4.1 -6.6,9.8 -7.4,15.7 -0.8,5.9 0.3,12 3.7,16.8 1.7,2.4 3.9,4.5 6.8,6.1 1.4,0.8 3,1.5 4.7,2 1.7,0.4 3.6,0.7 5.5,0.8 7.9,0.4 14,-2.1 18,-6.7 4,-4.4 5.9,-10.4 5.9,-16.3 0,-5.9 -1.8,-11.9 -5.3,-16.4 -3.6,-4.4 -8.7,-7.7 -15.6,-8.1 z"
               id="path95"
               inkscape:connector-curvature="0"
               style="fill:#9e9e9e" /></g><g
             id="g97"><path
               class="st0"
               d="m 466.8,815 c -2.2,-5.2 -6.2,-9.7 -12.8,-11.8 -6.5,-2.2 -12.4,-1.4 -17.3,1.6 -4.6,2.8 -8.3,6.9 -10.6,12 1.9,-5.2 2.2,-10.8 0.9,-16 -0.7,-2.8 -2,-5.4 -3.8,-7.6 -1.8,-2.3 -4.3,-4.1 -7.4,-5.7 -3.1,-1.6 -6.1,-2.3 -9,-2.3 -1.5,0 -2.9,0.1 -4.3,0.4 -1.4,0.3 -2.7,0.7 -4,1.2 -5.2,2.1 -9.8,6.4 -12.8,11.5 -3,5.2 -4.3,11.2 -3.1,17.1 0.3,1.5 0.8,2.9 1.4,4.3 0.7,1.4 1.5,2.7 2.5,3.9 2,2.5 4.8,4.8 8.3,6.6 3.5,1.9 7.1,2.5 10.3,2.6 3.2,0 6.2,-0.6 8.9,-1.9 4.9,-2.3 8.8,-6.7 11.1,-11.7 -1.9,5.2 -2.3,11 -0.4,16.1 2,5.5 6.5,10.5 14.1,13.1 7.6,2.4 14.1,1.5 19.1,-1.8 5,-3.3 8.3,-8.6 9.9,-14.3 1.5,-5.9 1.2,-12.1 -1,-17.3 z"
               id="path99"
               inkscape:connector-curvature="0"
               style="fill:#9e9e9e" /></g><g
             id="g101"><path
               class="st0"
               d="m 388.8,781.3 c -0.4,-2.8 -1.3,-5.6 -2.8,-8.1 -1.5,-2.5 -3.8,-4.6 -6.6,-6.6 -2.8,-2 -5.7,-3.1 -8.7,-3.5 -1.5,-0.2 -2.9,-0.2 -4.3,-0.1 -1.4,0.1 -2.8,0.3 -4.2,0.7 -5.5,1.4 -10.5,5 -14.2,9.8 -3.6,4.7 -5.7,10.6 -5.3,16.5 0.1,1.5 0.4,3 0.8,4.4 0.5,1.4 1.1,2.8 2,4.2 1.7,2.7 4.1,5.3 7.4,7.6 3.2,2.3 6.7,3.4 9.9,3.9 3.2,0.5 6.3,0.2 9.1,-0.7 5.6,-1.7 10.3,-6.1 13.2,-11.2 3.1,-5.3 4.4,-11.2 3.7,-16.9 z"
               id="path103"
               inkscape:connector-curvature="0"
               style="fill:#9e9e9e" /></g><g
             id="g105"><path
               class="st0"
               d="m 321.5,727.7 c 0.4,-2.8 0.2,-5.6 -0.7,-8.4 -0.8,-2.8 -2.2,-5.6 -4.5,-8.2 -2.3,-2.6 -4.9,-4.3 -7.5,-5.6 -2.6,-1.2 -5.5,-1.7 -8.3,-1.7 -5.4,0 -10.9,2 -15.4,5.2 4.3,-3.6 7.5,-8.3 8.9,-13.5 1.5,-5.6 0.9,-11.5 -3,-17.2 -3.7,-5.8 -9.1,-8.6 -14.7,-9.3 -5.6,-0.8 -11.6,0.6 -16.8,3.6 -5.1,3 -9.4,7.6 -11.2,13.3 -1.8,5.6 -1,12.2 3.3,18.9 4.5,6.5 10.5,9.6 16.3,10.2 5.6,0.4 11.1,-1.5 15.6,-4.7 -4.3,3.6 -7.5,8.4 -8.5,13.8 -0.5,2.9 -0.4,6 0.4,9.1 0.8,3.2 2.6,6.3 5.2,9.2 2.6,3 5.5,5.1 8.4,6.4 3,1.3 6.1,1.7 9,1.6 5.9,-0.3 11.5,-3.2 15.7,-7.4 4.1,-4.1 7,-9.6 7.8,-15.3 z"
               id="path107"
               inkscape:connector-curvature="0"
               style="fill:#9e9e9e" /></g><g
             id="g109"><path
               class="st0"
               d="m 270.7,659.5 c 2.2,-5.3 2.4,-11.3 -0.8,-17.4 -2.9,-6.3 -7.9,-9.7 -13.4,-11.1 -5.4,-1.5 -11.6,-0.9 -17.1,1.4 -5.5,2.3 -10.3,6.3 -12.9,11.7 -2.5,5.3 -2.6,12 0.8,19.2 3.6,7.1 9.1,10.9 14.8,12.2 5.8,1.2 12,-0.2 17.1,-3.2 5.2,-3 9.4,-7.5 11.5,-12.8 z"
               id="path111"
               inkscape:connector-curvature="0"
               style="fill:#9e9e9e" /></g><g
             id="g113"><path
               class="st0"
               d="m 224.6,588.9 c 5.7,-1.5 11,-4.9 14.5,-9.4 1.7,-2.3 3,-4.8 3.6,-7.6 0.6,-2.8 0.9,-6 0.2,-9.4 -0.6,-3.4 -2,-6.2 -3.7,-8.6 -1.7,-2.4 -3.8,-4.2 -6.3,-5.7 -4.6,-2.6 -10.2,-3.7 -15.7,-3.2 5.5,-1 10.6,-3.4 14.4,-7.2 3.9,-4 6.5,-9.5 6,-16.4 -0.1,-1.7 -0.4,-3.3 -0.9,-4.8 -0.4,-1.5 -0.9,-2.9 -1.6,-4.2 -1.4,-2.6 -3.3,-4.7 -5.6,-6.4 -4.6,-3.5 -10.5,-5.3 -16.5,-5.3 -5.9,0 -11.8,1.9 -16.2,5.9 -2.2,2 -4,4.5 -5.2,7.5 -0.6,1.5 -1.1,3.1 -1.4,4.9 -0.2,1.8 -0.3,3.6 -0.1,5.6 0.6,7.9 4,13.6 9,17 4.6,3.1 10.2,4.3 15.7,3.8 -5.5,1 -10.6,3.5 -14.2,7.7 -1.9,2.3 -3.4,5 -4.2,8.1 -0.8,3.1 -0.8,6.7 0,10.6 0.8,3.9 2.1,7.2 4.1,9.8 2,2.6 4.4,4.5 7,5.9 5.1,2.7 11.3,3 17.1,1.4 z"
               id="path115"
               inkscape:connector-curvature="0"
               style="fill:#9e9e9e" /></g><g
             id="g117"><path
               class="st0"
               d="m 196.6,494.6 c 4.4,4 10.4,5.9 16.3,5.9 5.9,0 11.9,-1.8 16.4,-5.3 4.4,-3.5 7.7,-8.5 8.1,-15.5 0.1,-1.7 0,-3.4 -0.3,-4.9 -0.2,-1.5 -0.5,-3 -1.1,-4.3 -1,-2.7 -2.6,-5.1 -4.7,-7.1 -4.1,-4 -9.8,-6.6 -15.7,-7.4 -5.9,-0.8 -12,0.3 -16.8,3.7 -2.4,1.7 -4.5,3.9 -6.1,6.8 -0.8,1.4 -1.5,3 -2,4.7 -0.4,1.7 -0.7,3.6 -0.8,5.5 -0.4,7.9 2.2,13.9 6.7,17.9 z"
               id="path119"
               inkscape:connector-curvature="0"
               style="fill:#9e9e9e" /></g><g
             id="g121"><path
               class="st0"
               d="m 224.7,410.9 c 5.7,1.5 12,1.3 17.1,-0.9 5.2,-2.2 9.7,-6.2 11.8,-12.8 2.2,-6.5 1.4,-12.4 -1.6,-17.3 -2.8,-4.6 -6.9,-8.3 -12,-10.6 5.2,1.9 10.8,2.2 16,0.9 2.8,-0.7 5.4,-2 7.6,-3.8 2.3,-1.8 4.1,-4.3 5.7,-7.4 1.6,-3.1 2.3,-6.1 2.3,-9 0,-1.5 -0.1,-2.9 -0.4,-4.3 -0.3,-1.4 -0.7,-2.7 -1.2,-4 -2.1,-5.2 -6.4,-9.8 -11.5,-12.8 -5.2,-3 -11.2,-4.3 -17.1,-3.1 -1.5,0.3 -2.9,0.8 -4.3,1.4 -1.4,0.7 -2.7,1.5 -3.9,2.5 -2.5,2 -4.8,4.8 -6.6,8.3 -1.9,3.5 -2.5,7.1 -2.6,10.3 0,3.2 0.6,6.2 1.9,8.9 2.3,4.9 6.7,8.8 11.7,11.1 -5.2,-1.9 -11,-2.3 -16.1,-0.4 -5.5,2 -10.5,6.5 -13.1,14.1 -2.4,7.6 -1.5,14.1 1.8,19.1 3.5,4.9 8.8,8.3 14.5,9.8 z"
               id="path123"
               inkscape:connector-curvature="0"
               style="fill:#9e9e9e" /></g><g
             id="g125"><path
               class="st0"
               d="m 258.7,328.4 c 5.2,3 11.1,4.3 16.9,3.6 2.8,-0.4 5.6,-1.3 8.1,-2.8 2.5,-1.5 4.6,-3.8 6.6,-6.6 2,-2.8 3.1,-5.7 3.5,-8.7 0.2,-1.5 0.2,-2.9 0.1,-4.3 -0.1,-1.4 -0.3,-2.8 -0.7,-4.2 -1.4,-5.5 -5,-10.5 -9.8,-14.2 -4.7,-3.6 -10.6,-5.7 -16.5,-5.3 -1.5,0.1 -3,0.4 -4.4,0.8 -1.4,0.5 -2.8,1.1 -4.2,2 -2.7,1.7 -5.3,4.1 -7.6,7.4 -2.3,3.2 -3.4,6.7 -3.9,9.9 -0.5,3.2 -0.2,6.3 0.7,9.1 1.7,5.7 6.1,10.3 11.2,13.3 z"
               id="path127"
               inkscape:connector-curvature="0"
               style="fill:#9e9e9e" /></g><g
             id="g129"><path
               class="st0"
               d="m 329.1,264.7 c 2.8,0.4 5.6,0.2 8.4,-0.7 2.8,-0.8 5.6,-2.2 8.2,-4.5 2.6,-2.3 4.3,-4.9 5.6,-7.5 1.2,-2.6 1.7,-5.5 1.7,-8.3 0,-5.4 -2,-10.9 -5.2,-15.4 3.6,4.3 8.3,7.5 13.5,8.9 5.6,1.5 11.5,0.9 17.2,-3 5.8,-3.7 8.6,-9.1 9.3,-14.7 0.8,-5.6 -0.6,-11.6 -3.6,-16.8 -3,-5.1 -7.6,-9.4 -13.3,-11.2 -5.6,-1.8 -12.2,-1 -18.9,3.3 -6.5,4.5 -9.6,10.5 -10.2,16.3 -0.4,5.6 1.5,11.1 4.7,15.6 -3.6,-4.3 -8.4,-7.5 -13.8,-8.5 -2.9,-0.5 -6,-0.4 -9.1,0.4 -3.2,0.8 -6.3,2.6 -9.2,5.2 -3,2.6 -5.1,5.5 -6.4,8.4 -1.3,3 -1.7,6.1 -1.6,9 0.3,5.9 3.2,11.5 7.4,15.7 4.1,4.1 9.7,7 15.3,7.8 z"
               id="path131"
               inkscape:connector-curvature="0"
               style="fill:#9e9e9e" /></g><g
             id="g133"><path
               class="st0"
               d="m 397.3,213.9 c 5.3,2.2 11.3,2.4 17.4,-0.8 6.3,-2.9 9.7,-7.9 11.1,-13.4 1.5,-5.4 0.9,-11.6 -1.4,-17.1 -2.3,-5.5 -6.3,-10.3 -11.7,-12.9 -5.3,-2.5 -12,-2.6 -19.2,0.8 -7.1,3.6 -10.9,9.1 -12.2,14.8 -1.2,5.8 0.2,12 3.2,17.1 3,5.2 7.6,9.3 12.8,11.5 z"
               id="path135"
               inkscape:connector-curvature="0"
               style="fill:#9e9e9e" /></g><g
             id="g137"><path
               class="st0"
               d="m 477.3,182.2 c 2.3,1.7 4.8,3 7.6,3.6 2.8,0.6 6,0.9 9.4,0.2 3.4,-0.7 6.2,-2 8.6,-3.7 2.4,-1.7 4.2,-3.8 5.7,-6.3 2.6,-4.6 3.7,-10.2 3.2,-15.7 1,5.5 3.4,10.6 7.2,14.4 4,3.9 9.5,6.5 16.4,6 1.7,-0.1 3.3,-0.4 4.8,-0.9 1.5,-0.4 2.9,-0.9 4.2,-1.6 2.6,-1.4 4.7,-3.3 6.4,-5.6 3.5,-4.6 5.3,-10.5 5.3,-16.5 0,-5.9 -1.9,-11.8 -5.9,-16.2 -2,-2.2 -4.5,-4 -7.5,-5.2 -1.5,-0.6 -3.1,-1.1 -4.9,-1.4 -1.8,-0.2 -3.6,-0.3 -5.6,-0.1 -7.9,0.6 -13.6,4 -17,9 -3.1,4.6 -4.3,10.2 -3.8,15.7 -1,-5.5 -3.5,-10.6 -7.7,-14.2 -2.3,-1.9 -5,-3.4 -8.1,-4.2 -3.1,-0.8 -6.7,-0.8 -10.6,0 -3.9,0.8 -7.2,2.1 -9.8,4.1 -2.6,2 -4.5,4.4 -5.9,7 -2.7,5.3 -3,11.5 -1.4,17.2 1.5,5.7 4.9,11 9.4,14.4 z"
               id="path139"
               inkscape:connector-curvature="0"
               style="fill:#9e9e9e" /></g><g
             id="g141"><path
               class="st0"
               d="m 577.2,180.6 c 1.7,0.1 3.4,0 4.9,-0.3 1.5,-0.2 3,-0.5 4.3,-1.1 2.7,-1 5.1,-2.6 7.1,-4.7 4,-4.1 6.6,-9.8 7.4,-15.7 0.8,-5.9 -0.3,-12 -3.7,-16.8 -1.7,-2.4 -3.9,-4.5 -6.8,-6.1 -1.4,-0.8 -3,-1.5 -4.7,-2 -1.7,-0.4 -3.6,-0.7 -5.5,-0.8 -7.9,-0.4 -14,2.1 -18,6.7 -4,4.4 -5.9,10.4 -5.9,16.3 0,5.9 1.8,11.9 5.3,16.4 3.6,4.4 8.6,7.7 15.6,8.1 z"
               id="path143"
               inkscape:connector-curvature="0"
               style="fill:#9e9e9e" /></g><g
             id="g145"><path
               class="st0"
               d="m 646.8,185 c 2.2,5.2 6.2,9.7 12.8,11.8 6.5,2.2 12.4,1.4 17.3,-1.6 4.6,-2.8 8.3,-6.9 10.6,-12 -1.9,5.2 -2.2,10.8 -0.9,16 0.7,2.8 2,5.4 3.8,7.6 1.8,2.3 4.3,4.1 7.4,5.7 3.1,1.6 6.1,2.3 9,2.3 1.5,0 2.9,-0.1 4.3,-0.4 1.4,-0.3 2.7,-0.7 4,-1.2 5.2,-2.1 9.8,-6.4 12.8,-11.5 3,-5.2 4.3,-11.2 3.1,-17.1 -0.3,-1.5 -0.8,-2.9 -1.4,-4.3 -0.7,-1.4 -1.5,-2.7 -2.5,-3.9 -2,-2.5 -4.8,-4.8 -8.3,-6.6 -3.5,-1.9 -7.1,-2.5 -10.3,-2.6 -3.2,0 -6.2,0.6 -8.9,1.9 -4.9,2.3 -8.8,6.7 -11.1,11.7 1.9,-5.2 2.3,-11 0.4,-16.1 -2,-5.5 -6.5,-10.5 -14.1,-13.1 -7.6,-2.4 -14.1,-1.5 -19.1,1.8 -5,3.3 -8.3,8.6 -9.9,14.3 -1.4,5.9 -1.2,12.1 1,17.3 z"
               id="path147"
               inkscape:connector-curvature="0"
               style="fill:#9e9e9e" /></g><g
             id="g149"><path
               class="st0"
               d="m 724.8,218.7 c 0.4,2.8 1.3,5.6 2.8,8.1 1.5,2.5 3.8,4.6 6.6,6.6 2.8,2 5.7,3.1 8.7,3.5 1.5,0.2 2.9,0.2 4.3,0.1 1.4,-0.1 2.8,-0.3 4.2,-0.7 5.5,-1.4 10.5,-5 14.2,-9.8 3.6,-4.7 5.7,-10.6 5.3,-16.5 -0.1,-1.5 -0.4,-3 -0.8,-4.4 -0.5,-1.4 -1.1,-2.8 -2,-4.2 -1.7,-2.7 -4.1,-5.3 -7.4,-7.6 -3.2,-2.3 -6.7,-3.4 -9.9,-3.9 -3.2,-0.5 -6.3,-0.2 -9.1,0.7 -5.6,1.7 -10.3,6.1 -13.2,11.2 -3.1,5.3 -4.3,11.2 -3.7,16.9 z"
               id="path151"
               inkscape:connector-curvature="0"
               style="fill:#9e9e9e" /></g><g
             id="g153"><path
               class="st0"
               d="m 792.2,272.3 c -0.4,2.8 -0.2,5.6 0.7,8.4 0.8,2.8 2.2,5.6 4.5,8.2 2.3,2.6 4.9,4.3 7.5,5.6 2.6,1.2 5.5,1.7 8.3,1.7 5.4,0 10.9,-2 15.4,-5.2 -4.3,3.6 -7.5,8.3 -8.9,13.5 -1.5,5.6 -0.9,11.5 3,17.2 3.7,5.8 9.1,8.6 14.7,9.3 5.6,0.8 11.6,-0.6 16.8,-3.6 5.1,-3 9.4,-7.6 11.2,-13.3 1.8,-5.6 1,-12.2 -3.3,-18.9 -4.5,-6.5 -10.5,-9.6 -16.3,-10.2 -5.6,-0.4 -11.1,1.5 -15.6,4.7 4.3,-3.6 7.5,-8.4 8.5,-13.8 0.5,-2.9 0.4,-6 -0.4,-9.1 -0.8,-3.2 -2.6,-6.3 -5.2,-9.2 -2.6,-3 -5.5,-5.1 -8.4,-6.4 -3,-1.3 -6.1,-1.7 -9,-1.6 -5.9,0.3 -11.5,3.2 -15.7,7.4 -4.2,4.1 -7.1,9.6 -7.8,15.3 z"
               id="path155"
               inkscape:connector-curvature="0"
               style="fill:#9e9e9e" /></g><g
             id="g157"><path
               class="st0"
               d="m 843,340.5 c -2.2,5.3 -2.4,11.3 0.8,17.4 2.9,6.3 7.9,9.7 13.4,11.1 5.4,1.5 11.6,0.9 17.1,-1.4 5.5,-2.3 10.3,-6.3 12.9,-11.7 2.5,-5.3 2.6,-12 -0.8,-19.2 -3.6,-7.1 -9.1,-10.9 -14.8,-12.2 -5.8,-1.2 -12,0.2 -17.1,3.2 -5.2,3 -9.4,7.5 -11.5,12.8 z"
               id="path159"
               inkscape:connector-curvature="0"
               style="fill:#9e9e9e" /></g><g
             id="g161"><path
               class="st0"
               d="m 889.1,411.1 c -5.7,1.5 -11,4.9 -14.5,9.4 -1.7,2.3 -3,4.8 -3.6,7.6 -0.6,2.8 -0.9,6 -0.2,9.4 0.6,3.4 2,6.2 3.7,8.6 1.7,2.4 3.8,4.2 6.3,5.7 4.6,2.6 10.2,3.7 15.7,3.2 -5.5,1 -10.6,3.4 -14.4,7.2 -3.9,4 -6.5,9.5 -6,16.4 0.1,1.7 0.4,3.3 0.9,4.8 0.4,1.5 0.9,2.9 1.6,4.2 1.4,2.6 3.3,4.7 5.6,6.4 4.6,3.5 10.5,5.3 16.5,5.3 5.9,0 11.8,-1.9 16.2,-5.9 2.2,-2 4,-4.5 5.2,-7.5 0.6,-1.5 1.1,-3.1 1.4,-4.9 0.2,-1.8 0.3,-3.6 0.1,-5.6 -0.6,-7.9 -4,-13.6 -9,-17 -4.6,-3.1 -10.2,-4.3 -15.7,-3.8 5.5,-1 10.6,-3.5 14.2,-7.7 1.9,-2.3 3.4,-5 4.2,-8.1 0.8,-3.1 0.8,-6.7 0,-10.6 -0.8,-3.9 -2.1,-7.2 -4.1,-9.8 -2,-2.6 -4.4,-4.5 -7,-5.9 -5.1,-2.7 -11.3,-3 -17.1,-1.4 z"
               id="path163"
               inkscape:connector-curvature="0"
               style="fill:#9e9e9e" /></g><g
             id="g165"><path
               class="st0"
               d="m 917,505.4 c -4.4,-4 -10.4,-5.9 -16.3,-5.9 -5.9,0 -11.9,1.8 -16.4,5.3 -4.4,3.5 -7.7,8.5 -8.1,15.5 -0.1,1.7 0,3.4 0.3,4.9 0.2,1.5 0.5,3 1.1,4.3 1,2.7 2.6,5.1 4.7,7.1 4.1,4 9.8,6.6 15.7,7.4 5.9,0.8 12,-0.3 16.8,-3.7 2.4,-1.7 4.5,-3.9 6.1,-6.8 0.8,-1.4 1.5,-3 2,-4.7 0.4,-1.7 0.7,-3.6 0.8,-5.5 0.5,-7.9 -2.1,-13.9 -6.7,-17.9 z"
               id="path167"
               inkscape:connector-curvature="0"
               style="fill:#9e9e9e" /></g></g></g></g></switch></svg>