<?xml version="1.0" encoding="UTF-8" standalone="no"?>
<svg
   xmlns:dc="http://purl.org/dc/elements/1.1/"
   xmlns:cc="http://creativecommons.org/ns#"
   xmlns:rdf="http://www.w3.org/1999/02/22-rdf-syntax-ns#"
   xmlns:svg="http://www.w3.org/2000/svg"
   xmlns="http://www.w3.org/2000/svg"
   xmlns:sodipodi="http://sodipodi.sourceforge.net/DTD/sodipodi-0.dtd"
   xmlns:inkscape="http://www.inkscape.org/namespaces/inkscape"
   version="1.1"
   id="Layer_1"
   x="0px"
   y="0px"
   viewBox="0 0 1000 1000"
   width="100%"
   height="100%"
   style="enable-background:new 0 0 1000 1000;"
   xml:space="preserve"
   ><switch
     id="switch3"
     transform="translate(-82.697974,-14.349541)"><g
       id="g5"><g
         id="g7"><circle
           cx="582.70001"
           cy="514.40002"
           r="254"
           id="circle9" /><g
           id="g11"><path
             d="m 911.3,556.1 c -3.1,-3.5 -7.7,-5.5 -12.4,-6 -4.7,-0.5 -9.6,0.4 -13.5,2.8 -1.9,1.2 -3.6,2.7 -4.9,4.7 -1.2,1.9 -2.3,4.2 -2.8,7 -0.5,2.7 -0.3,5.2 0.3,7.5 0.3,1.1 0.8,2.2 1.3,3.2 0.5,1 1.1,1.9 1.9,2.8 2.8,3.5 7.1,6 11.8,7 4.6,1.1 9.6,0.7 13.8,-1.6 1,-0.6 2,-1.2 2.9,-2 0.9,-0.8 1.7,-1.7 2.4,-2.8 1.4,-2.1 2.5,-4.7 3,-7.8 0.6,-3.1 0.5,-5.9 -0.3,-8.3 -0.7,-2.6 -1.9,-4.7 -3.5,-6.5 z"
             id="path13"
             inkscape:connector-curvature="0" /><path
             d="m 883.2,619.2 c -4.5,-1.6 -9.4,-1.7 -13.7,-0.3 -4.3,1.4 -8.1,4.4 -10.1,9.6 -1,2.6 -1.5,5 -1.4,7.3 0.1,2.3 0.7,4.5 1.7,6.6 2.1,4.1 5.7,7.5 10,9.5 4.3,2.1 9.2,2.8 13.7,1.5 2.2,-0.7 4.4,-1.8 6.3,-3.5 1.9,-1.7 3.6,-3.9 4.7,-6.9 2.3,-5.8 1.8,-11 -0.4,-15.1 -2.3,-4.2 -6.3,-7.2 -10.8,-8.7 z"
             id="path15"
             inkscape:connector-curvature="0" /><path
             d="m 852.1,683.7 c -4,-2.5 -8.8,-3.8 -13.3,-3.4 -2.3,0.2 -4.4,0.9 -6.4,2.1 -2.1,1.1 -4,2.8 -5.6,5 -1.6,2.3 -2.5,4.6 -2.9,6.9 -0.5,2.3 -0.4,4.5 0.2,6.7 1.1,4.4 3.9,8.5 7.6,11.5 3.7,3 8.3,4.8 13,4.5 2.4,-0.1 4.7,-0.7 7,-2 2.2,-1.3 4.3,-3.2 6.1,-5.7 1.8,-2.5 2.9,-5.1 3.4,-7.6 0.4,-2.5 0.2,-5 -0.5,-7.2 -1.4,-4.5 -4.6,-8.2 -8.6,-10.8 z"
             id="path17"
             inkscape:connector-curvature="0" /><path
             d="m 808,739.2 c -3.3,-3.3 -7.8,-5.7 -12.3,-6.3 -2.3,-0.3 -4.6,-0.2 -6.8,0.5 -1.1,0.3 -2.2,0.8 -3.3,1.5 -0.5,0.3 -1.1,0.7 -1.6,1.1 -0.5,0.4 -1.1,0.8 -1.6,1.2 -4.2,3.6 -5.8,8.1 -5.7,12.7 0,4.5 1.9,9.1 4.8,12.8 3,3.7 7.1,6.5 11.8,7.3 4.6,0.8 9.7,-0.5 14.4,-4.6 0.6,-0.5 1.1,-1 1.6,-1.6 0.5,-0.6 0.9,-1.1 1.3,-1.7 0.8,-1.1 1.4,-2.3 1.9,-3.5 1,-2.4 1.3,-4.8 1.2,-7.1 -0.1,-4.6 -2.4,-9 -5.7,-12.3 z"
             id="path19"
             inkscape:connector-curvature="0" /><path
             d="m 741.4,775.1 c -4.3,-1.6 -9.1,-1.6 -13.9,1.2 -2.4,1.4 -4.3,3 -5.7,4.9 -1.4,1.9 -2.3,4 -2.7,6.2 -0.9,4.5 -0.2,9.4 1.9,13.7 2.1,4.3 5.4,7.9 9.8,9.7 2.2,0.9 4.6,1.3 7.1,1.2 2.5,-0.2 5.3,-0.8 8,-2.4 5.4,-3.1 8.3,-7.5 9.1,-12.1 0.7,-4.7 -0.5,-9.5 -3.1,-13.5 -2.5,-4.2 -6.3,-7.4 -10.5,-8.9 z"
             id="path21"
             inkscape:connector-curvature="0" /><path
             d="m 679.8,803.7 c -1.9,-1.2 -4,-2.1 -6.3,-2.4 -2.3,-0.3 -4.8,-0.3 -7.5,0.5 -5.3,1.5 -8.7,5 -10.6,9 -1.9,4.1 -2.3,9 -1.2,13.7 1.1,4.6 3.6,8.9 7.4,11.7 1.9,1.3 4.2,2.5 6.7,2.8 2.5,0.4 5.3,0.2 8.3,-0.7 3,-0.9 5.5,-2.1 7.4,-3.9 1.9,-1.7 3.3,-3.8 4.2,-5.9 1.8,-4.4 1.6,-9.3 0,-13.8 -1.7,-4.5 -4.6,-8.5 -8.4,-11 z"
             id="path23"
             inkscape:connector-curvature="0" /><path
             d="m 612.6,818.1 c -3.2,-3.3 -7.5,-5.4 -13,-5 -5.5,0.3 -9.6,2.6 -12.4,6.3 -2.8,3.6 -4.2,8.4 -4.2,13.2 0,4.7 1.5,9.4 4.6,12.9 3.1,3.4 7.9,5.8 14.1,5.5 6.2,-0.5 10.7,-3.2 13.4,-7 2.7,-3.8 3.7,-8.8 3.1,-13.5 -0.5,-4.7 -2.5,-9.1 -5.6,-12.4 z"
             id="path25"
             inkscape:connector-curvature="0" /><path
             d="m 539.9,812.2 c -1,-0.7 -2,-1.2 -3.2,-1.6 -1.2,-0.5 -2.4,-0.9 -3.8,-1.1 -2.7,-0.5 -5.2,-0.3 -7.5,0.3 -2.3,0.7 -4.3,1.8 -6,3.2 -3.5,2.8 -6,7.1 -7,11.8 -1,4.6 -0.6,9.6 1.6,13.8 1.1,2.1 2.7,3.9 4.8,5.3 2.1,1.4 4.7,2.5 7.8,3 1.5,0.3 3,0.4 4.4,0.3 1.4,-0.1 2.7,-0.3 3.9,-0.7 2.5,-0.7 4.6,-2 6.3,-3.5 3.5,-3.1 5.5,-7.7 6,-12.4 0.5,-4.7 -0.4,-9.6 -2.8,-13.5 -1,-1.9 -2.5,-3.6 -4.5,-4.9 z"
             id="path27"
             inkscape:connector-curvature="0" /><path
             d="m 468.2,790.9 c -2.6,-1 -5,-1.5 -7.3,-1.4 -2.3,0.1 -4.5,0.7 -6.6,1.7 -4.1,2.1 -7.5,5.7 -9.5,10 -2.1,4.3 -2.8,9.2 -1.5,13.7 0.6,2.2 1.8,4.4 3.5,6.3 1.7,1.9 3.9,3.7 6.9,4.8 5.8,2.3 11,1.8 15.1,-0.4 4.1,-2.4 7.1,-6.4 8.7,-10.8 1.6,-4.5 1.8,-9.4 0.3,-13.7 -1.4,-4.4 -4.4,-8.2 -9.6,-10.2 z"
             id="path29"
             inkscape:connector-curvature="0" /><path
             d="m 415,764.2 c -1.2,-2 -2.8,-4 -5,-5.6 -2.3,-1.6 -4.6,-2.5 -6.9,-2.9 -2.3,-0.4 -4.5,-0.4 -6.8,0.2 -4.4,1.1 -8.5,3.9 -11.5,7.6 -3,3.7 -4.7,8.3 -4.5,13.1 0.1,2.3 0.7,4.7 2,7 1.3,2.2 3.2,4.3 5.7,6.1 2.6,1.8 5.1,2.9 7.6,3.4 2.5,0.4 5,0.2 7.2,-0.5 4.5,-1.3 8.3,-4.5 10.8,-8.6 2.5,-4 3.8,-8.8 3.4,-13.3 -0.2,-2.3 -0.8,-4.5 -2,-6.5 z"
             id="path31"
             inkscape:connector-curvature="0" /><path
             d="m 359.6,713.8 c -3.6,-4.2 -8.2,-5.8 -12.7,-5.7 -4.5,0 -9.1,1.8 -12.8,4.8 -3.7,3 -6.5,7.1 -7.3,11.8 -0.8,4.6 0.5,9.7 4.6,14.4 2,2.4 4.4,3.9 6.7,4.9 2.4,1 4.8,1.4 7.1,1.2 4.7,-0.3 9.1,-2.5 12.4,-5.9 3.4,-3.4 5.7,-7.8 6.3,-12.3 0.3,-2.3 0.2,-4.6 -0.5,-6.8 -0.7,-2.2 -2,-4.3 -3.8,-6.4 z"
             id="path33"
             inkscape:connector-curvature="0" /><path
             d="m 316.1,653.8 c -1.9,-1.4 -4,-2.3 -6.2,-2.7 -4.5,-0.9 -9.4,-0.2 -13.7,1.9 -4.3,2.1 -7.9,5.5 -9.6,9.8 -0.9,2.2 -1.3,4.6 -1.2,7.1 0.2,2.6 0.8,5.3 2.4,8 3.1,5.4 7.5,8.3 12.1,9.1 4.7,0.7 9.5,-0.5 13.5,-3.1 4,-2.5 7.2,-6.3 8.7,-10.5 1.5,-4.3 1.6,-9.1 -1.2,-13.9 -1.4,-2.4 -2.9,-4.3 -4.8,-5.7 z"
             id="path35"
             inkscape:connector-curvature="0" /><path
             d="m 293.2,611 c 1.2,-1.9 2.1,-4 2.4,-6.3 0.3,-2.3 0.3,-4.8 -0.5,-7.5 -0.8,-2.7 -2,-4.8 -3.6,-6.6 -1.6,-1.7 -3.3,-3.1 -5.4,-4.1 -4.1,-1.9 -9,-2.3 -13.7,-1.2 -4.7,1.1 -8.9,3.5 -11.7,7.4 -1.4,1.9 -2.4,4.2 -2.8,6.7 -0.4,2.5 -0.2,5.3 0.7,8.3 0.9,3 2.1,5.5 3.8,7.4 1.7,1.9 3.8,3.3 5.9,4.2 4.4,1.8 9.3,1.6 13.8,0.1 4.5,-1.5 8.6,-4.6 11.1,-8.4 z"
             id="path37"
             inkscape:connector-curvature="0" /><path
             d="m 266.5,550.3 c 4.7,-0.5 9.2,-2.5 12.5,-5.7 3.3,-3.2 5.4,-7.5 5,-13 -0.1,-1.4 -0.3,-2.7 -0.6,-3.9 -0.3,-1.2 -0.7,-2.3 -1.3,-3.3 -1.1,-2.1 -2.6,-3.8 -4.4,-5.2 -3.6,-2.8 -8.4,-4.2 -13.2,-4.2 -4.7,0 -9.4,1.5 -12.9,4.6 -1.7,1.6 -3.2,3.5 -4.2,5.9 -0.5,1.2 -0.9,2.5 -1.1,3.8 -0.3,1.4 -0.4,2.8 -0.2,4.4 0.5,6.2 3.2,10.7 7,13.4 3.8,2.8 8.7,3.7 13.4,3.2 z"
             id="path39"
             inkscape:connector-curvature="0" /><path
             d="m 254.1,472.6 c 3.1,3.5 7.7,5.5 12.4,6 4.7,0.5 9.6,-0.4 13.5,-2.8 1.9,-1.2 3.6,-2.7 4.9,-4.7 1.2,-1.9 2.3,-4.2 2.8,-7 0.5,-2.7 0.3,-5.2 -0.3,-7.5 -0.3,-1.1 -0.8,-2.2 -1.3,-3.2 -0.5,-1 -1.1,-1.9 -1.9,-2.8 -2.8,-3.5 -7.1,-6 -11.8,-7 -4.6,-1.1 -9.6,-0.7 -13.8,1.6 -1,0.6 -2,1.2 -2.9,2 -0.9,0.8 -1.7,1.7 -2.4,2.8 -1.4,2.1 -2.5,4.7 -3,7.8 -0.6,3.1 -0.5,5.9 0.3,8.3 0.7,2.6 1.9,4.7 3.5,6.5 z"
             id="path41"
             inkscape:connector-curvature="0" /><path
             d="m 282.2,409.5 c 4.5,1.6 9.4,1.7 13.7,0.3 4.3,-1.4 8.1,-4.4 10.1,-9.6 1,-2.6 1.5,-5 1.4,-7.3 -0.1,-2.3 -0.7,-4.5 -1.7,-6.6 -2.1,-4.1 -5.7,-7.5 -10,-9.5 -4.3,-2.1 -9.2,-2.8 -13.7,-1.5 -2.2,0.7 -4.4,1.8 -6.3,3.5 -1.9,1.7 -3.6,3.9 -4.7,6.9 -2.3,5.8 -1.8,11 0.4,15.1 2.3,4.2 6.3,7.2 10.8,8.7 z"
             id="path43"
             inkscape:connector-curvature="0" /><path
             d="m 333.1,346.3 c 2.1,-1.1 4,-2.8 5.6,-5 1.6,-2.3 2.5,-4.6 2.9,-6.9 0.5,-2.3 0.4,-4.5 -0.2,-6.7 -1.1,-4.4 -3.9,-8.5 -7.6,-11.5 -3.7,-3 -8.3,-4.8 -13,-4.5 -2.4,0.1 -4.7,0.7 -7,2 -2.2,1.3 -4.3,3.2 -6.1,5.7 -1.8,2.5 -2.9,5.1 -3.4,7.6 -0.4,2.5 -0.2,5 0.5,7.2 1.3,4.5 4.5,8.3 8.5,10.8 4,2.5 8.8,3.8 13.3,3.4 2.3,-0.3 4.5,-0.9 6.5,-2.1 z"
             id="path45"
             inkscape:connector-curvature="0" /><path
             d="m 383,291.5 c 4.2,-3.6 5.8,-8.1 5.7,-12.7 0,-4.5 -1.9,-9.1 -4.8,-12.8 -2.9,-3.7 -7.1,-6.5 -11.8,-7.3 -4.6,-0.8 -9.7,0.5 -14.4,4.6 -0.6,0.5 -1.1,1 -1.6,1.6 -0.5,0.6 -0.9,1.1 -1.3,1.7 -0.8,1.1 -1.4,2.3 -1.9,3.5 -1,2.4 -1.3,4.8 -1.2,7.1 0.3,4.7 2.5,9 5.9,12.4 3.3,3.3 7.8,5.7 12.3,6.3 2.3,0.3 4.6,0.2 6.8,-0.5 1.1,-0.3 2.2,-0.8 3.3,-1.5 0.5,-0.3 1.1,-0.7 1.6,-1.1 0.3,-0.4 0.9,-0.8 1.4,-1.3 z"
             id="path47"
             inkscape:connector-curvature="0" /><path
             d="m 446.3,241.3 c 0.9,-4.5 0.2,-9.4 -1.9,-13.7 -2.1,-4.3 -5.4,-7.9 -9.8,-9.7 -2.2,-0.9 -4.6,-1.3 -7.1,-1.2 -2.5,0.2 -5.3,0.8 -8,2.4 -5.4,3.1 -8.3,7.5 -9.1,12.1 -0.7,4.7 0.5,9.5 3.1,13.5 2.5,4 6.3,7.2 10.5,8.8 4.3,1.6 9.1,1.6 13.9,-1.2 2.4,-1.4 4.3,-3 5.7,-4.9 1.4,-1.7 2.2,-3.8 2.7,-6.1 z"
             id="path49"
             inkscape:connector-curvature="0" /><path
             d="m 503.9,192.6 c -1.9,-1.3 -4.2,-2.5 -6.7,-2.8 -2.5,-0.4 -5.3,-0.2 -8.3,0.7 -3,0.9 -5.5,2.1 -7.4,3.9 -1.9,1.7 -3.3,3.8 -4.2,5.9 -1.8,4.4 -1.6,9.3 0,13.8 1.6,4.5 4.5,8.5 8.3,11 1.9,1.2 4,2.1 6.3,2.4 2.3,0.3 4.8,0.3 7.5,-0.5 5.3,-1.5 8.7,-5 10.6,-9 1.9,-4.1 2.3,-9 1.2,-13.7 -1,-4.7 -3.5,-9 -7.3,-11.7 z"
             id="path51"
             inkscape:connector-curvature="0" /><path
             d="m 563.8,177.7 c -6.2,0.5 -10.7,3.2 -13.4,7 -2.7,3.8 -3.7,8.8 -3.1,13.5 0.5,4.7 2.5,9.2 5.7,12.5 3.2,3.3 7.5,5.4 13,5 5.5,-0.3 9.6,-2.6 12.4,-6.3 2.8,-3.6 4.2,-8.4 4.2,-13.2 0,-4.7 -1.5,-9.4 -4.6,-12.9 -3.2,-3.6 -8,-5.9 -14.2,-5.6 z"
             id="path53"
             inkscape:connector-curvature="0" /><path
             d="m 646.5,184.9 c -2.1,-1.4 -4.7,-2.5 -7.8,-3 -1.5,-0.3 -3,-0.4 -4.4,-0.3 -1.4,0.1 -2.7,0.3 -3.9,0.7 -2.5,0.7 -4.6,2 -6.3,3.5 -3.5,3.1 -5.5,7.7 -6,12.4 -0.5,4.7 0.4,9.6 2.8,13.5 1.2,1.9 2.7,3.6 4.7,4.9 1,0.7 2,1.2 3.2,1.6 1.2,0.5 2.4,0.9 3.8,1.1 2.7,0.5 5.2,0.3 7.5,-0.3 2.3,-0.7 4.3,-1.8 6,-3.2 3.5,-2.8 6,-7.1 7,-11.8 1,-4.6 0.6,-9.6 -1.6,-13.8 -1.3,-2.1 -2.9,-3.9 -5,-5.3 z"
             id="path55"
             inkscape:connector-curvature="0" /><path
             d="m 722.1,213.8 c -0.6,-2.2 -1.8,-4.4 -3.5,-6.3 -1.7,-1.9 -3.9,-3.7 -6.9,-4.8 -5.8,-2.3 -11,-1.8 -15.1,0.4 -4.1,2.4 -7.1,6.4 -8.7,10.8 -1.6,4.5 -1.8,9.4 -0.3,13.7 1.4,4.4 4.4,8.1 9.6,10.1 2.6,1 5,1.5 7.3,1.4 2.3,-0.1 4.5,-0.7 6.6,-1.7 4.1,-2.1 7.5,-5.7 9.5,-10 2.1,-4.2 2.8,-9.1 1.5,-13.6 z"
             id="path57"
             inkscape:connector-curvature="0" /><path
             d="m 780.6,265.2 c 3,-3.7 4.7,-8.3 4.5,-13.1 -0.1,-2.3 -0.7,-4.7 -2,-7 -1.3,-2.2 -3.2,-4.3 -5.7,-6.1 -2.6,-1.8 -5.1,-2.9 -7.6,-3.4 -2.5,-0.4 -5,-0.2 -7.2,0.5 -4.5,1.3 -8.3,4.5 -10.8,8.6 -2.5,4 -3.8,8.8 -3.4,13.3 0.2,2.3 0.9,4.4 2.1,6.4 1.2,2 2.8,4 5,5.6 2.3,1.6 4.6,2.5 6.9,2.9 2.3,0.4 4.5,0.4 6.8,-0.2 4.3,-1 8.4,-3.8 11.4,-7.5 z"
             id="path59"
             inkscape:connector-curvature="0" /><path
             d="m 838.7,304.1 c 0.8,-4.6 -0.5,-9.7 -4.6,-14.4 -2,-2.4 -4.4,-3.9 -6.7,-4.9 -2.4,-1 -4.8,-1.4 -7.1,-1.2 -4.7,0.3 -9.1,2.5 -12.4,5.9 -3.4,3.4 -5.7,7.8 -6.3,12.3 -0.3,2.3 -0.2,4.6 0.5,6.8 0.7,2.2 2,4.3 3.8,6.5 3.6,4.2 8.2,5.8 12.7,5.7 4.5,0 9.1,-1.8 12.8,-4.8 3.7,-3 6.4,-7.3 7.3,-11.9 z"
             id="path61"
             inkscape:connector-curvature="0" /><path
             d="m 849.3,374.9 c 1.9,1.4 4,2.3 6.2,2.7 4.5,0.9 9.4,0.2 13.7,-1.9 4.3,-2.1 7.9,-5.5 9.6,-9.8 0.9,-2.2 1.3,-4.6 1.2,-7.1 -0.2,-2.6 -0.8,-5.3 -2.4,-8 -3.1,-5.4 -7.5,-8.3 -12.1,-9.1 -4.7,-0.7 -9.5,0.5 -13.5,3.1 -4,2.6 -7.2,6.3 -8.7,10.5 -1.5,4.3 -1.6,9.1 1.2,13.9 1.4,2.4 2.9,4.3 4.8,5.7 z"
             id="path63"
             inkscape:connector-curvature="0" /><path
             d="m 872.2,417.7 c -1.2,1.9 -2.1,4 -2.4,6.3 -0.3,2.3 -0.3,4.8 0.5,7.5 0.8,2.7 2,4.8 3.6,6.6 1.6,1.7 3.3,3.1 5.4,4.1 4.1,1.9 9,2.3 13.7,1.2 4.6,-1 8.9,-3.5 11.7,-7.4 1.4,-1.9 2.4,-4.2 2.8,-6.7 0.4,-2.5 0.2,-5.3 -0.7,-8.3 -0.9,-3 -2.1,-5.5 -3.8,-7.4 -1.7,-1.9 -3.8,-3.3 -5.9,-4.2 -4.4,-1.8 -9.3,-1.6 -13.8,-0.1 -4.6,1.6 -8.7,4.6 -11.1,8.4 z"
             id="path65"
             inkscape:connector-curvature="0" /><path
             d="m 919.3,495 c -0.5,-6.2 -3.2,-10.7 -7,-13.4 -3.8,-2.7 -8.8,-3.7 -13.5,-3.1 -4.7,0.5 -9.2,2.5 -12.5,5.7 -3.3,3.2 -5.4,7.5 -5,13 0.1,1.4 0.3,2.7 0.6,3.9 0.3,1.2 0.7,2.3 1.3,3.3 1.1,2.1 2.6,3.8 4.4,5.2 3.6,2.8 8.4,4.2 13.2,4.2 4.7,0 9.4,-1.5 12.9,-4.6 1.7,-1.6 3.2,-3.5 4.2,-5.9 0.5,-1.2 0.9,-2.5 1.1,-3.8 0.4,-1.5 0.5,-3 0.3,-4.5 z"
             id="path67"
             inkscape:connector-curvature="0" /></g></g></g></switch></svg>