<?xml version="1.0" encoding="UTF-8" standalone="no"?>
<svg
   xmlns:dc="http://purl.org/dc/elements/1.1/"
   xmlns:cc="http://creativecommons.org/ns#"
   xmlns:rdf="http://www.w3.org/1999/02/22-rdf-syntax-ns#"
   xmlns:svg="http://www.w3.org/2000/svg"
   xmlns="http://www.w3.org/2000/svg"
   xmlns:sodipodi="http://sodipodi.sourceforge.net/DTD/sodipodi-0.dtd"
   xmlns:inkscape="http://www.inkscape.org/namespaces/inkscape"
   version="1.1"
   id="Layer_1"
   x="0px"
   y="0px"
   viewBox="0 0 1000 1000"
   width="100%"
   height="100%"
   style="enable-background:new 0 0 1000 1000;"
   xml:space="preserve"
   ><switch
     id="switch3"
     transform="translate(-39.65,-0.05)"><g
       id="g5"><g
         id="g7"><path
           d="m 861.7,534.3 c -0.2,-5.9 -0.3,-11.8 -1,-17.7 l -0.8,-8.7 c -0.3,-2.9 -0.8,-5.8 -1.1,-8.7 -2.1,2 -4.2,3.9 -6.3,5.8 -2.1,1.9 -4.3,3.8 -6.5,5.6 -4.4,3.6 -8.7,7.1 -13.1,10.4 -11,-2.7 -22.2,-5.3 -33.4,-7.7 l 1.7,3.4 1.5,3.4 2.9,7 c 2.1,4.7 3.6,9.5 5.4,14.4 -3.2,4 -6.8,7.8 -10.2,11.4 -3.3,3.7 -7.1,7.2 -10.7,10.5 11.2,1.9 22.5,3.5 33.8,5 2.9,4.7 5.9,9.6 8.5,14.5 2.6,4.9 5.2,10 7.7,15.3 l 4.1,-7.7 c 1.4,-2.6 2.8,-5.2 4,-7.8 l 3.8,-8 1.9,-4 1.7,-4.1 c 11,-3 22.4,-6.4 33.3,-10.5 -9,-7.7 -17.8,-15 -27.2,-21.8 z"
           id="path9"
           inkscape:connector-curvature="0" /><path
           d="m 753,702.1 c -2.8,-0.1 -5.6,-0.3 -8.4,-0.4 -6.7,-9.2 -13.5,-18.3 -20.5,-27.3 -1.3,4.7 -2.7,9.6 -4.2,14.4 -1.6,4.7 -3.3,9.6 -5.2,14.5 -5.2,0.8 -10.2,1.6 -15.2,2.2 -5.1,0.5 -10,1 -15,1.2 7.5,8.7 15,17.2 22.7,25.6 l -0.6,4.2 -0.7,4.1 c -0.5,2.7 -1,5.5 -1.6,8.3 -0.6,2.8 -1.1,5.6 -1.8,8.4 -0.7,2.8 -1.4,5.5 -2.1,8.3 10.9,-4 21.6,-8.9 32.2,-14.2 10.5,4.9 21.1,9.3 32.2,13.4 -1.8,-11.7 -4.1,-23.2 -6.7,-34.2 3.6,-4.7 7.2,-9.4 10.6,-14.1 l 5,-7.3 c 1.6,-2.4 3.3,-4.8 4.8,-7.3 -5.6,0.4 -11.5,0.4 -17.1,0.5 -2.9,-0.2 -5.7,-0.2 -8.4,-0.3 z"
           id="path11"
           inkscape:connector-curvature="0" /><path
           d="m 560.8,783.4 c 0.8,-11.4 1.4,-22.8 1.8,-34.1 -4,2.8 -8.2,5.9 -12.5,8.4 l -6.5,4 -3.3,2 -3.4,1.8 -6.6,-4 c -2.2,-1.3 -4.3,-2.6 -6.4,-4.1 l -6.2,-4.3 c -2,-1.4 -4.1,-2.8 -6,-4.4 0.1,11.4 0.4,22.8 0.9,34.2 -4.1,3.8 -8.4,7.2 -12.8,10.8 -2.2,1.8 -4.5,3.5 -6.8,5.3 -2.3,1.7 -4.6,3.3 -6.9,5 5.5,2.1 11.1,3.6 16.7,5.3 l 4.2,1.3 c 1.4,0.4 2.8,0.7 4.3,1.1 l 8.6,2.1 c 1.2,2.6 2.5,5.3 3.7,7.9 1.3,2.6 2.6,5.1 3.9,7.7 2.7,5.1 5.5,10.3 8.4,15.4 1.5,-2.5 3,-5 4.5,-7.5 1.5,-2.6 2.9,-5.1 4.3,-7.7 2.8,-5.1 5.5,-10.3 8.1,-15.4 l 4.3,-0.8 4.3,-1 8.6,-2.1 c 2.8,-0.6 5.7,-1.5 8.5,-2.3 l 8.4,-2.5 c -4.6,-3.5 -9.1,-7.1 -13.4,-10.6 -4.5,-3.8 -8.7,-7.7 -12.7,-11.5 z"
           id="path13"
           inkscape:connector-curvature="0" /><path
           d="m 383.4,702.3 c -2.5,-0.2 -4.9,-0.6 -7.5,-1 l -7.6,-1.1 c -2.5,-0.4 -5,-1 -7.5,-1.5 l -2.6,-7.2 c -0.8,-2.4 -1.5,-4.9 -2.2,-7.4 l -2.1,-7.2 -1.7,-7.3 c -7.2,8.8 -14.3,17.7 -21.3,26.8 -5.5,0.1 -11.1,0.2 -16.8,0.1 -5.6,-0.2 -11.3,-0.5 -17.1,-1 3.1,4.9 6,10 9.4,14.8 l 5,7.3 c 1.7,2.4 3.5,4.7 5.3,7.1 -1.5,5.6 -2.9,11.2 -4.2,16.9 -1.2,5.6 -2.4,11.4 -3.4,17.1 5.6,-1.9 11,-3.8 16.5,-5.9 5.5,-2.1 10.8,-4.3 16.1,-6.6 10.3,5.7 21,10.7 31.8,15.2 -1.3,-5.7 -2.4,-11.3 -3.5,-16.8 -1,-5.6 -1.7,-11.2 -2.4,-16.7 7.9,-8.2 15.7,-16.6 23.4,-25 l -7.6,-0.6 z"
           id="path15"
           inkscape:connector-curvature="0" /><path
           d="m 278.5,546.2 c -1.8,-1.9 -3.3,-3.8 -5,-5.8 l -4.9,-6 c 0.8,-2.4 1.8,-4.8 2.8,-7.2 l 2.9,-7 c 0.9,-2.3 2,-4.6 3.2,-6.9 l 3.3,-6.7 c -11.2,2.1 -22.3,4.4 -33.5,6.8 -8.9,-6.9 -17.1,-14.4 -25.5,-22.5 -0.8,5.7 -1.7,11.5 -2.3,17.4 l -0.8,8.8 c -0.2,2.9 -0.6,5.9 -0.6,8.8 -4.7,3.3 -9.4,6.7 -14,10.2 -4.6,3.5 -9.3,7.2 -13.7,11 5.5,2.2 11,4.2 16.5,6.1 5.5,1.9 10.9,3.7 16.5,5.3 4.4,11 9.2,21.7 14.7,32 1.3,-2.6 2.6,-5.1 3.9,-7.6 1.4,-2.5 2.8,-5 4.2,-7.5 1.4,-2.5 2.9,-4.9 4.3,-7.2 1.4,-2.4 2.9,-4.7 4.5,-7 11.3,-1.2 22.6,-2.6 33.9,-4.1 -3.6,-3.5 -6.9,-7.2 -10.4,-10.9 z"
           id="path17"
           inkscape:connector-curvature="0" /><path
           d="m 248.8,331.4 c 1.5,2.4 3.2,4.9 4.8,7.3 -1.8,5.7 -3.7,11.2 -5.2,16.9 l -2.3,8.5 c -0.8,2.8 -1.3,5.7 -1.9,8.5 2.6,-1.1 5.3,-2.2 7.9,-3.3 2.6,-1.1 5.4,-2 8,-3 5.4,-1.9 10.5,-3.7 15.9,-5.3 9.4,6.3 19,12.6 28.7,18.7 -0.3,-2.5 -0.5,-5 -0.6,-7.4 l -0.4,-7.6 c -0.2,-2.6 -0.2,-5.1 -0.1,-7.6 l 0.1,-7.7 c 2.2,-1.3 4.5,-2.5 6.8,-3.7 l 6.8,-3.5 c 4.5,-2.3 9.2,-4.3 13.7,-6.3 -9.9,-5.6 -19.9,-11 -30,-16.3 -0.6,-2.7 -1.1,-5.5 -1.6,-8.2 -0.5,-2.8 -0.9,-5.5 -1.3,-8.3 -0.8,-5.5 -1.6,-11.3 -2.1,-17 -4.4,3.8 -8.6,7.8 -13,11.8 -4.1,4.2 -8.4,8.3 -12.4,12.6 -5.7,-0.5 -11.5,-0.9 -17.3,-1.2 -5.8,-0.3 -11.8,-0.5 -17.6,-0.4 2.8,5.2 5.8,10.3 8.7,15.3 1.4,2.4 2.9,4.8 4.4,7.2 z"
           id="path19"
           inkscape:connector-curvature="0" /><path
           d="m 475.5,176.7 -8.8,0.5 c -2.9,0.2 -5.9,0.3 -8.8,0.7 l -8.8,1 c -8.2,-8.3 -16.7,-16 -25.7,-23.6 -2.4,11.4 -4.1,23.2 -5.4,34.5 l -3.8,2.3 -3.7,2.5 -7.3,4.9 c -4.8,3.3 -9.5,6.9 -14.2,10.3 5.6,1.7 11,3.5 16.3,5.4 2.6,0.9 5.3,1.9 7.9,3 2.6,1.1 5.2,2.1 7.7,3.2 3.2,11 6.5,21.9 10,32.7 2.8,-4 5.7,-8.3 8.8,-12.1 3.1,-3.9 6.3,-8.1 9.8,-11.8 5.1,1 10,1.8 15,3.2 4.9,1.3 9.7,2.4 14.5,4 -4,-10.7 -8.2,-21.3 -12.5,-31.9 5.3,-9.6 11.1,-19.5 17.8,-28.8 -3,-0.1 -5.9,-0.1 -8.8,0 z"
           id="path21"
           inkscape:connector-curvature="0" /><path
           d="m 692.1,208.3 -7.1,-5.2 c -4.7,-3.6 -9.6,-6.7 -14.6,-10 -0.2,-2.9 -0.5,-5.8 -0.8,-8.7 -0.3,-2.9 -0.7,-5.7 -1.1,-8.6 -0.8,-5.7 -1.6,-11.5 -2.7,-17.4 -2.3,1.8 -4.6,3.6 -6.8,5.5 -2.3,1.9 -4.5,3.8 -6.7,5.7 -4.4,3.8 -8.7,7.7 -12.8,11.7 -2.9,-0.5 -5.9,-0.8 -8.8,-1.2 l -8.8,-1 c -5.9,-0.5 -11.7,-0.8 -17.5,-1.2 6.3,9.8 12,19.4 16.9,29.5 -4.6,10.4 -9.1,20.9 -13.3,31.4 9.5,-2.7 19.4,-4.8 29.7,-6.4 6.6,7.9 12.6,16.1 18,24.4 3.8,-10.7 7.5,-21.6 10.9,-32.4 5.2,-2.1 10.4,-3.9 15.8,-5.7 5.4,-1.9 10.8,-3.4 16.4,-4.9 -2.1,-1.8 -4.4,-3.7 -6.7,-5.5 z"
           id="path23"
           inkscape:connector-curvature="0" /><path
           d="m 807.9,368 c 2.6,0.9 5.3,1.8 7.9,2.7 l 4,1.4 3.9,1.5 c 5.2,2.1 10.5,4.3 15.8,6.7 -1.2,-5.7 -2.3,-11.4 -3.8,-17.1 l -2.3,-8.5 c -0.7,-2.9 -1.5,-5.7 -2.5,-8.5 3.3,-4.7 6.5,-9.5 9.7,-14.4 1.6,-2.5 3.2,-5 4.7,-7.5 1.5,-2.5 3,-5 4.4,-7.5 -11.8,-0.2 -23.3,-0.1 -34.9,0.7 l -5.9,-6.6 c -2,-2.2 -4.1,-4.2 -6.2,-6.3 l -6.2,-6.2 -6.5,-5.9 c -1.2,11.4 -3.4,22.7 -5.8,33.4 -10.3,5 -20.4,10.2 -30.5,15.6 4.6,2 9,4.3 13.5,6.6 4.6,2.3 8.8,4.9 13.4,7.6 0,10.3 -0.7,20.5 -1.9,30.3 9.9,-6 19.6,-11.9 29.2,-18 z"
           id="path25"
           inkscape:connector-curvature="0" /><path
           d="m 238.8,437.1 c 14.9,0 14.9,-23.1 0,-23.1 -14.9,0 -15,23.1 0,23.1 z"
           id="path27"
           inkscape:connector-curvature="0" /><path
           d="m 353.4,262.2 c 14.9,0 14.9,-23.1 0,-23.1 -14.9,0 -14.9,23.1 0,23.1 z"
           id="path29"
           inkscape:connector-curvature="0" /><path
           d="m 547.8,200 c 14.9,0 14.9,-23.1 0,-23.1 -14.9,0 -14.9,23.1 0,23.1 z"
           id="path31"
           inkscape:connector-curvature="0" /><path
           d="m 746,270 c 14.9,0 14.9,-23.1 0,-23.1 -14.9,-0.1 -14.9,23.1 0,23.1 z"
           id="path33"
           inkscape:connector-curvature="0" /><path
           d="m 841.2,425.6 c -14.9,0 -14.9,23.1 0,23.1 14.9,0.1 14.9,-23.1 0,-23.1 z"
           id="path35"
           inkscape:connector-curvature="0" /><path
           d="m 804.3,635.5 c -14.9,0 -14.9,23.1 0,23.1 14.9,0.1 14.9,-23.1 0,-23.1 z"
           id="path37"
           inkscape:connector-curvature="0" /><path
           d="m 641.1,763.8 c -14.9,0 -14.9,23.1 0,23.1 14.8,0 14.9,-23.1 0,-23.1 z"
           id="path39"
           inkscape:connector-curvature="0" /><path
           d="m 429.2,765.7 c -14.9,0 -14.9,23.1 0,23.1 14.9,0.1 14.9,-23.1 0,-23.1 z"
           id="path41"
           inkscape:connector-curvature="0" /><path
           d="m 271.8,620 c -14.9,0 -14.9,23.1 0,23.1 14.9,0 14.9,-23.1 0,-23.1 z"
           id="path43"
           inkscape:connector-curvature="0" /></g></g></switch></svg>