<?xml version="1.0" encoding="UTF-8" standalone="no"?>
<svg
   xmlns:dc="http://purl.org/dc/elements/1.1/"
   xmlns:cc="http://creativecommons.org/ns#"
   xmlns:rdf="http://www.w3.org/1999/02/22-rdf-syntax-ns#"
   xmlns:svg="http://www.w3.org/2000/svg"
   xmlns="http://www.w3.org/2000/svg"
   xmlns:sodipodi="http://sodipodi.sourceforge.net/DTD/sodipodi-0.dtd"
   xmlns:inkscape="http://www.inkscape.org/namespaces/inkscape"
   version="1.1"
   id="Layer_1"
   x="0px"
   y="0px"
   viewBox="162.8907928466797 195.76284790039062 674.2183837890625 766.2337646484375"
   width="100%"
   height="100%"
   style="enable-background:new 0 0 1000 1000;"
   xml:space="preserve"
   ><style
     type="text/css"
     id="style3">
	.noFillSVG{fill:none;}
</style><switch
     id="switch5"
     transform="translate(20.609188,67.796611)"><g
       id="g7"><g
         id="g9"><path
           class="noFillSVG"
           d="m 400.3,579.7 c 1.9,1.9 3.2,4.5 3.7,7.2 1.7,-1.2 3.7,-1.7 5.8,-0.9 5.2,1.8 4.7,8.1 -0.3,9.5 -1.8,0.5 -2.1,-1.9 -0.9,-2.7 -1,-2 -4.4,-3.3 -5.4,-0.6 -1.2,3.3 1,6.8 3.3,8.8 1.7,1.5 3.6,1.2 5.8,0.9 4,-0.6 7.6,-2.5 11.1,-4.4 6,-3.4 11.8,-7.4 18.4,-9.5 6.8,-2.2 14.2,-2.9 21.3,-3.1 5.3,-0.1 11.6,-0.6 15.6,3.5 0.2,0.2 0.2,0.3 0.3,0.5 0.1,-0.2 0.2,-0.4 0.3,-0.5 4.1,-4.1 10.3,-3.6 15.6,-3.5 7.1,0.2 14.5,0.9 21.3,3.1 6.6,2.2 12.4,6.2 18.4,9.5 3.5,1.9 7.1,3.8 11.1,4.4 2.2,0.3 4.1,0.6 5.8,-0.9 2.3,-2 4.5,-5.5 3.3,-8.8 -1,-2.7 -4.4,-1.4 -5.4,0.6 1.2,0.9 0.9,3.2 -0.9,2.7 -4.9,-1.4 -5.4,-7.7 -0.3,-9.5 2.1,-0.7 4.1,-0.2 5.8,0.9 0.5,-2.7 1.8,-5.3 3.7,-7.2 -25.5,3 -51.9,4.5 -78.8,4.5 -26.7,0 -53.1,-1.5 -78.6,-4.5 z"
           id="path11"
           inkscape:connector-curvature="0"
           style="fill:none" /><path
           class="noFillSVG"
           d="m 620.6,278.6 c 7.7,1.7 15.2,3.6 22.6,5.7 -4.1,-4.2 -6.9,-9.6 -7.6,-15.7 -3.1,5.6 -8.9,9.7 -15,10 z"
           id="path13"
           inkscape:connector-curvature="0"
           style="fill:none" /><path
           class="noFillSVG"
           d="m 479,589.7 c -0.1,0.2 -0.2,0.4 -0.3,0.6 -2.9,3.2 -5.9,6.4 -8.8,9.6 -1.5,1.7 -3.7,3.7 -4.5,5.8 -2.4,6.4 8.8,15.4 13.6,18.6 4.7,-3.1 16,-12.2 13.6,-18.6 -0.8,-2.1 -3,-4.2 -4.5,-5.8 -2.9,-3.2 -5.8,-6.4 -8.8,-9.6 -0.1,-0.2 -0.2,-0.4 -0.3,-0.6 z m 4.7,15.2 c 0,0.2 -2.1,8.4 -4.7,8.4 -2.6,0 -4.7,-8.2 -4.7,-8.4 0,-0.2 2.1,-8.4 4.7,-8.4 2.6,0 4.7,8.2 4.7,8.4 z"
           id="path15"
           inkscape:connector-curvature="0"
           style="fill:none" /><path
           class="noFillSVG"
           d="m 696,299.8 c -1.9,-6 4.4,-11.2 9.9,-8.1 1.6,0.9 0.1,3.3 -1.4,2.4 -3.3,-1.9 -7,1.4 -5.8,4.9 1.2,3.5 5.1,4.3 8.2,3 4.2,-1.7 5.5,-6.4 4.6,-10.5 -2.4,-10.3 -14.7,-10.4 -22.1,-5.8 -0.1,0.1 -0.2,0.1 -0.3,0.1 -3.7,4 -9.2,6.8 -15.1,7.9 8.3,2.9 16.3,6 24,9.3 -0.9,-0.7 -1.5,-1.8 -2,-3.2 z"
           id="path17"
           inkscape:connector-curvature="0"
           style="fill:none" /><path
           class="noFillSVG"
           d="m 643.4,728 0,0 c 0,0 0,0 0,0 l 0,0 c 0,0 0,0 0,0 z"
           id="path19"
           inkscape:connector-curvature="0"
           style="fill:none" /><path
           class="noFillSVG"
           d="m 258.5,298.3 c 0.3,-3.2 -2.8,-5.9 -5.9,-4.1 -1.6,0.9 -3,-1.5 -1.4,-2.4 5.7,-3.3 12,2.5 9.7,8.5 -0.6,1.6 -1.6,2.8 -2.9,3.7 8.3,-3.6 16.9,-6.9 25.8,-10.1 -6.2,-1 -11.9,-3.8 -15.7,-8 -0.1,0 -0.2,-0.1 -0.3,-0.1 -7.4,-4.6 -19.7,-4.5 -22.1,5.8 -1,4.4 0.7,9.7 5.5,10.9 2.9,0.8 7,-0.7 7.3,-4.2 z"
           id="path21"
           inkscape:connector-curvature="0"
           style="fill:none" /><path
           class="noFillSVG"
           d="m 479,580 c 180.8,0 327.8,-70.1 327.8,-156.2 0,-86.1 -147,-156.2 -327.8,-156.2 -180.8,0 -327.8,70.1 -327.8,156.2 0,86.1 147.1,156.2 327.8,156.2 z m 0,-306.5 c 176.8,0 320.6,67.4 320.6,150.3 0,82.9 -143.8,150.3 -320.6,150.3 -176.8,0 -320.6,-67.4 -320.6,-150.3 0.1,-82.9 143.9,-150.3 320.6,-150.3 z"
           id="path23"
           inkscape:connector-curvature="0"
           style="fill:none" /><path
           class="noFillSVG"
           d="m 333.7,275.4 c 8,1.6 15.3,-4.3 15.8,-12.4 0.3,-4.4 -1.6,-9 -5.5,-11.3 -11.9,-7 -14.9,13.1 -4.4,9.5 1.7,-0.6 2.4,2.1 0.7,2.7 -5,1.7 -10.7,-1.8 -10.6,-7.4 0.1,-6.5 7.3,-10.1 12.9,-8.4 13,3.9 12.1,22.9 1.2,28.6 -0.8,0.4 -1.6,0.7 -2.3,1 42.6,-9.4 89.3,-14.3 137.6,-14.3 47.2,0 92.9,4.7 134.8,13.7 -1.5,-0.8 -3,-1.9 -4.4,-3.3 -8,-8.3 -4.5,-28.7 9.9,-26 11.9,2.2 8.8,20 -2.5,16.2 -1.7,-0.6 -1,-3.3 0.7,-2.7 10.4,3.6 7.4,-16.5 -4.4,-9.5 -3.9,2.3 -5.8,6.9 -5.5,11.3 0.5,8.6 8.4,14.4 16.7,12.2 15.8,-4.1 11.8,-25.6 4.4,-35.3 -16.7,-21.9 -50.2,-16.1 -70.4,-3.1 -6.7,6.1 -15.1,10.8 -22.9,14.1 -16.9,7.2 -35.6,8.9 -53.6,5.3 -0.2,0 -0.3,-0.1 -0.4,-0.2 -0.8,0 -1.5,0.1 -2.3,0.1 -1.1,0 -2.2,0 -3.3,-0.1 -0.1,0.1 -0.3,0.2 -0.5,0.2 -20,4 -40.8,1.4 -59,-7.8 -5.8,-2.9 -11.9,-6.7 -17.1,-11.4 0,0 0,0 0,0 -20.2,-13.1 -53.9,-19.1 -70.7,2.9 -7.7,9.7 -11.6,32.1 5.1,35.4 z m 227.9,-36.5 c 3.8,-0.8 7.7,-0.4 7.9,-0.4 0.2,0 3.9,1.5 6.9,3.8 3.1,2.3 5.2,5.4 4.4,6.5 -0.8,1 -4.1,0.1 -7.2,-0.4 -3.1,-0.5 -6.1,-0.6 -6.3,-0.7 -0.1,0 -2.9,-1.2 -5.9,-2.2 -3,-1 -6.4,-1.6 -6.6,-2.9 -0.3,-1.1 3,-3 6.8,-3.7 z m -188.4,8.7 c 0.5,-1.7 1.9,-3.6 3.4,-5 2.9,-3 6.9,-4.9 7.1,-5 0.2,-0.1 4.5,-1 8.6,-0.4 4.2,0.4 7.8,2.2 7.6,3.5 -0.2,1.3 -3.8,2 -7,3.2 -3.2,1.1 -6,2.7 -6.1,2.7 -0.1,0 -3.3,0.5 -6.5,1.6 -1.6,0.5 -3,1 -4.1,1.6 -1.1,0.5 -1.9,1.1 -2.5,0.9 -0.7,-0.2 -1.1,-1.4 -0.5,-3.1 z"
           id="path25"
           inkscape:connector-curvature="0"
           style="fill:none" /><ellipse
           class="noFillSVG"
           cx="479"
           cy="423.79999"
           rx="319.20001"
           ry="148.89999"
           id="ellipse27"
           style="fill:none" /><path
           class="noFillSVG"
           d="m 321.6,268.3 c -0.7,6.4 -3.6,12 -8,16.3 7.8,-2.2 15.7,-4.2 23.7,-6 -6.9,0.5 -12.6,-4.1 -15.7,-10.3 z"
           id="path29"
           inkscape:connector-curvature="0"
           style="fill:none" /><path
           class="noFillSVG"
           d="m 479.2,250.1 c 26.2,0 47.5,-21.3 47.5,-47.5 0,-26.2 -21.3,-47.5 -47.5,-47.5 -26.2,0 -47.5,21.3 -47.5,47.5 0,26.2 21.3,47.5 47.5,47.5 z"
           id="path31"
           inkscape:connector-curvature="0"
           style="fill:none" /><path
           class="noFillSVG"
           d="m 479.2,253.3 c 27.9,0 50.6,-22.7 50.6,-50.6 0,-27.9 -22.7,-50.7 -50.6,-50.7 -27.9,0 -50.6,22.7 -50.6,50.6 0,27.9 22.6,50.7 50.6,50.7 z m 0,-98.8 c 26.6,0 48.2,21.6 48.2,48.2 0,26.6 -21.6,48.2 -48.2,48.2 -26.6,0 -48.2,-21.6 -48.2,-48.2 0,-26.6 21.6,-48.2 48.2,-48.2 z"
           id="path33"
           inkscape:connector-curvature="0"
           style="fill:none" /><path
           class="noFillSVG"
           d="m 491,254.7 c 23.6,2.4 49,-4.5 66.3,-21.1 9.7,-9.3 16.9,-26.3 6.1,-37.8 -5.1,-5.4 -13.9,-6.7 -20.5,-3.4 -3.6,1.8 -6.8,5 -7.9,8.9 -0.8,2.6 -0.3,6.9 1.7,8.9 1.7,0.7 3.4,1.5 5.1,2.2 1,-2.9 2.1,-5.7 3.1,-8.6 -1.4,-1.2 0.6,-3.1 2,-2 4,3.4 3.7,10 -1.2,12.5 -4.9,2.5 -11.2,-0.7 -13.2,-5.5 -0.1,-0.2 -0.1,-0.3 -0.2,-0.5 -2.5,22.9 -19.4,41.4 -41.3,46.4 z"
           id="path35"
           inkscape:connector-curvature="0"
           style="fill:none" /><path
           class="noFillSVG"
           d="m 399.8,233.7 c 17.5,16.8 43.3,23.6 67.1,21 -22.6,-5.3 -39.7,-25 -41.1,-48.8 -0.3,2.2 -1.3,4.3 -3.4,6.4 -8,7.9 -21.1,-2.9 -12.2,-10.3 1.4,-1.1 3.3,0.8 2,2 -0.4,7.8 1.5,10.3 5.7,7.5 2.3,-0.3 3.5,-1.6 3.7,-3.9 1.2,-3.1 1.2,-4.8 -0.1,-7.7 -1.7,-3.8 -4.9,-6.5 -8.8,-7.8 -7.2,-2.6 -15.2,-0.7 -20,5.3 -9.4,11.4 -2.3,27.3 7.1,36.3 z"
           id="path37"
           inkscape:connector-curvature="0"
           style="fill:none" /><path
           d="m 479,574.1 c 176.8,0 320.6,-67.4 320.6,-150.3 0,-82.9 -143.8,-150.3 -320.6,-150.3 -176.8,0 -320.6,67.4 -320.6,150.3 0.1,82.9 143.9,150.3 320.6,150.3 z M 159.9,423.8 c 0,-82.1 143.2,-148.9 319.2,-148.9 176,0 319.2,66.8 319.2,148.9 0,82.1 -143.3,148.9 -319.3,148.9 -176,0 -319.1,-66.8 -319.1,-148.9 z"
           id="path39"
           inkscape:connector-curvature="0" /><path
           d="m 479.2,250.8 c 26.6,0 48.2,-21.6 48.2,-48.2 0,-26.6 -21.6,-48.2 -48.2,-48.2 -26.6,0 -48.2,21.6 -48.2,48.2 0,26.6 21.6,48.2 48.2,48.2 z m 0,-95.6 c 26.2,0 47.5,21.3 47.5,47.5 0,26.2 -21.3,47.5 -47.5,47.5 -26.2,0 -47.5,-21.3 -47.5,-47.5 0,-26.2 21.3,-47.5 47.5,-47.5 z"
           id="path41"
           inkscape:connector-curvature="0" /><path
           d="m 471.8,147.9 c 1.3,0.5 2.7,0.6 4.1,0.2 0,0 0.1,0 0.1,0 0.2,0 0.3,-0.1 0.4,-0.2 0.7,-0.8 -2,-2.7 -2.4,-3.1 -1.4,-1.1 -2.6,-2.2 -3.6,-3.6 -0.9,-1.4 -1.8,-2.9 -2.5,-4.4 -1.3,-2.6 -2.4,-2.8 -3.1,-2.5 -0.9,0.5 -1.1,1.4 -0.8,2.4 1.4,4.1 3.3,9.4 7.8,11.2 z"
           id="path43"
           inkscape:connector-curvature="0" /><path
           d="m 474.3,143.8 c 0.8,0.8 1.6,1.5 2.4,2.1 0.1,0.1 0.2,0.2 0.4,0.3 0.1,0.1 0.3,0.2 0.4,0.2 0.3,0 0.4,-0.4 0.5,-0.7 0.1,-0.4 0.2,-0.9 0.1,-1.3 -0.1,-0.4 -0.4,-0.7 -0.6,-1 -0.2,-0.4 -0.4,-0.8 -0.7,-1.2 -0.5,-0.9 -0.9,-1.8 -1.3,-2.7 -0.9,-2 -1.7,-4.1 -2.3,-6.2 -0.6,-2.1 -2.7,-3.2 -4.1,-2.9 -1.4,0.3 -2,2.1 -0.1,5.8 1.8,3.7 3.9,6 5.3,7.6 z"
           id="path45"
           inkscape:connector-curvature="0" /><path
           d="m 485.1,142.6 c -0.8,1 -2.3,2.1 -3.1,3.3 -0.3,0.4 -0.4,0.8 -0.5,1.2 0,0.1 0,0.3 0,0.4 0.1,0.1 0.2,0.2 0.4,0.3 1,0.3 2,0 2.8,-0.6 0.9,-0.6 2,-1.6 3.6,-3.2 0.8,-0.8 1.8,-1.8 2.8,-3 1,-1.1 1.9,-2.3 2.8,-3.5 0.8,-1 0.5,-2.1 -0.5,-2.9 -0.9,-0.7 -2.4,-0.7 -4,1.7 -1.4,2 -2.8,4.2 -4.3,6.3 z"
           id="path47"
           inkscape:connector-curvature="0" /><path
           d="m 479.9,144.4 c 0,0.4 0.2,2 0.9,1.7 0.1,-0.1 0.2,-0.2 0.3,-0.3 0.2,-0.3 0.5,-0.5 0.7,-0.8 0.3,-0.4 0.8,-1 1.4,-1.8 0.6,-0.8 1.3,-1.8 2.2,-3.1 0.9,-1.3 1.9,-2.8 2.9,-4.6 1.1,-1.8 1.5,-3.1 1.3,-4.1 -0.1,-1 -0.8,-1.6 -1.7,-1.8 -0.9,-0.2 -1.9,0 -2.7,0.6 -0.8,0.5 -1.5,1.4 -1.7,2.5 -0.5,2.1 -1.1,4.3 -1.7,6.3 -0.4,1.2 -0.8,2.4 -1.2,3.6 -0.3,0.6 -0.7,1.1 -0.7,1.8 z"
           id="path49"
           inkscape:connector-curvature="0" /><path
           d="m 476.5,138.5 c 0.4,1.3 0.9,2.5 1.4,3.8 0.2,0.4 0.3,0.7 0.5,1.1 0.1,0.2 0.2,0.7 0.5,0.8 0.5,0.1 0.8,-2.1 0.9,-2.4 0.3,-1 0.5,-1.9 0.7,-2.9 0.3,-1.6 0.6,-3.3 0.8,-4.9 0.4,-2.3 0,-3.8 -0.6,-4.6 -0.6,-0.8 -1.2,-1.1 -1.2,-1.1 0,0 -0.4,-0.3 -1,-0.3 -0.6,-0.1 -1.4,0 -2.2,0.6 0,0 -0.6,0.3 -1,1.2 -0.4,0.9 -0.6,2.4 0,4.6 0.4,1.4 0.8,2.7 1.2,4.1 z"
           id="path51"
           inkscape:connector-curvature="0" /><path
           d="m 474.2,604.9 c 0,0.2 2.1,8.4 4.7,8.4 2.6,0 4.7,-8.2 4.7,-8.4 0,-0.2 -2.1,-8.4 -4.7,-8.4 -2.6,0 -4.7,8.2 -4.7,8.4 z"
           id="path53"
           inkscape:connector-curvature="0" /><path
           d="m 373.6,250.7 c 0.6,0.2 1.4,-0.5 2.5,-0.9 1.1,-0.5 2.5,-1.1 4.1,-1.6 3.2,-1.1 6.4,-1.6 6.5,-1.6 0.1,-0.1 2.9,-1.6 6.1,-2.7 3.2,-1.2 6.7,-1.9 7,-3.2 0.2,-1.3 -3.4,-3.1 -7.6,-3.5 -4.1,-0.5 -8.4,0.4 -8.6,0.4 -0.2,0 -4.1,2 -7.1,5 -1.5,1.4 -2.9,3.3 -3.4,5 -0.5,1.7 -0.1,2.9 0.5,3.1 z"
           id="path55"
           inkscape:connector-curvature="0" /><path
           d="m 561.4,245.6 c 3,0.9 5.8,2.1 5.9,2.2 0.1,0 3.1,0.2 6.3,0.7 3.1,0.5 6.4,1.4 7.2,0.4 0.8,-1 -1.3,-4.1 -4.4,-6.5 -3,-2.4 -6.8,-3.8 -6.9,-3.8 -0.2,0 -4.1,-0.4 -7.9,0.4 -3.8,0.7 -7.1,2.6 -6.8,3.9 0.2,1.1 3.6,1.7 6.6,2.7 z"
           id="path57"
           inkscape:connector-curvature="0" /><path
           d="m 468.5,627.2 c -0.9,-0.9 -3.2,-0.3 -5.3,0.7 -2.1,1 -3.9,2.4 -4,2.5 -0.1,0.1 -1.1,2.1 -1.7,4.4 -0.2,0.6 -0.3,1.3 -0.4,1.9 0,0 0,0 0,0 -0.2,0.4 -0.2,0.7 -0.1,1 0,1.1 0.2,2 0.8,2.4 1.1,0.7 3.2,-0.3 5.1,-1.3 1.9,-1.1 3.6,-2.3 3.6,-2.3 0.1,-0.1 0.9,-1.9 1.6,-4 0.7,-2.1 1.3,-4.4 0.4,-5.3 z"
           id="path59"
           inkscape:connector-curvature="0" /><path
           d="m 147.3,440.7 c -0.1,1.2 1,1.7 1.9,1.4 8.4,36.2 41.6,69.5 95.7,95.5 40.8,19.6 90.3,33.4 144.2,40.7 -3.2,2.2 -4.2,7 -0.8,9.6 4,3 8.8,0.1 10.2,-4.1 0.6,-1.7 -2.1,-2.4 -2.7,-0.7 -0.5,1.7 -1.8,3.3 -3.8,3.3 -0.9,0 -1.7,-0.3 -2.3,-0.9 -0.1,-0.3 -0.3,-0.5 -0.5,-0.7 -0.4,-0.8 -0.5,-1.7 0,-2.6 1.4,-3 5.6,-2.7 8,-1.2 2.9,1.7 4.6,5.2 4.3,8.5 -1.4,1.8 -2.2,4.1 -2.3,6.1 -0.2,7.3 7.2,10.1 13.3,9.2 4.4,-0.6 8.8,-2.4 13,-4.7 -2.3,4.1 -2.7,8.9 0.2,13.7 4.4,7.2 18.2,11.9 22.9,2.4 4.4,-9.1 -5.5,-16.2 -13.5,-12.2 -1.6,0.8 -0.2,3.2 1.4,2.4 9.9,-4.9 14.6,11.3 2.7,12.1 -4.3,0.3 -8.9,-2.4 -11,-6.1 -3.4,-6.1 -0.5,-12.1 4,-16.3 2.4,-1.5 4.8,-3.1 7.1,-4.6 2.8,-1.2 5.7,-2.2 8.8,-2.8 -2.2,2.9 -1.8,7.6 1.9,9.8 2.5,1.5 6,1.5 8.3,-0.6 1.9,-1.7 2.6,-6.1 -0.3,-7.4 -0.9,-0.4 -2.2,0.2 -2.1,1.2 0.1,0.9 1.3,1.4 1.3,2.3 0,0.4 -0.3,0.8 -0.6,1 -1.1,1 -2.6,1.5 -4,1.3 -1.4,-0.3 -2.7,-1.4 -2.9,-2.8 -0.2,-1.4 0.5,-2.8 1.5,-3.7 2.4,-2.3 6,-2.7 9.3,-2.4 2.5,0.2 16.8,-1.1 13.6,4.6 -1.2,2.1 -3.7,3.4 -5.3,5.2 -2.5,2.7 -5.7,5.8 -6.7,9.5 -1.8,6.5 11.4,17.6 16.4,20.7 0.2,0.2 0.4,0.2 0.6,0.1 0.2,0 0.4,0 0.6,-0.1 5,-3.1 18.2,-14.2 16.4,-20.7 -1,-3.7 -4.3,-6.8 -6.7,-9.5 -1.6,-1.8 -4.2,-3.1 -5.3,-5.2 -3.2,-5.7 11.1,-4.4 13.6,-4.6 3.3,-0.2 7,0.1 9.3,2.4 1,1 1.7,2.4 1.5,3.7 -0.2,1.4 -1.5,2.6 -2.9,2.8 -1.4,0.3 -2.9,-0.3 -4,-1.3 -0.3,-0.3 -0.6,-0.6 -0.6,-1 0,-0.9 1.2,-1.4 1.3,-2.3 0.1,-1 -1.2,-1.6 -2.1,-1.2 -2.9,1.3 -2.2,5.6 -0.3,7.4 2.2,2.1 5.7,2.1 8.3,0.6 3.8,-2.2 4.1,-6.9 1.9,-9.8 3.1,0.6 6.1,1.6 8.8,2.8 2.3,1.5 4.7,3 7.1,4.6 4.5,4.2 7.5,10.2 4,16.3 -2.1,3.7 -6.8,6.4 -11,6.1 -12,-0.8 -7.2,-17 2.7,-12.1 1.6,0.8 3,-1.6 1.4,-2.4 -8,-3.9 -17.9,3.2 -13.5,12.2 4.7,9.5 18.5,4.8 22.9,-2.4 2.9,-4.9 2.5,-9.6 0.2,-13.7 4.2,2.3 8.6,4.1 13,4.7 6.1,0.9 13.5,-1.9 13.3,-9.2 -0.1,-2 -0.9,-4.3 -2.3,-6.1 -0.3,-3.3 1.4,-6.8 4.3,-8.5 2.4,-1.4 6.6,-1.7 8,1.2 1,2.1 -0.5,4.3 -2.8,4.2 -2,0 -3.2,-1.6 -3.8,-3.3 -0.6,-1.7 -3.2,-1 -2.7,0.7 0.8,2.3 2.5,4.2 4.6,5 0.4,0.5 1.2,0.6 1.8,0.4 1.3,0.1 2.5,-0.3 3.8,-1.2 3.4,-2.6 2.4,-7.4 -0.8,-9.6 54,-7.3 103.5,-21.1 144.2,-40.7 51.4,-24.6 83.9,-56 94.3,-90.1 0.6,1.2 2.8,0.8 2.6,-0.8 -0.1,-1.2 -1.3,-1.4 -2.1,-1 0.3,-1 0.6,-2.1 0.8,-3.1 0.5,-0.2 0.8,-0.7 0.7,-1.3 0,-0.3 -0.1,-0.5 -0.3,-0.7 1.2,-5.5 1.8,-11.1 1.8,-16.8 0,-43.1 -34.7,-83.6 -97.8,-113.8 -3.2,-1.6 -6.5,-3.1 -9.9,-4.5 3.2,0.2 6.5,-1.1 8.7,-3.6 4.2,-5 3,-13.2 -1.5,-17.7 -4.9,-4.9 -12.2,-5.1 -18.3,-2.8 2.1,-4.4 2.4,-9.7 0.1,-15.7 -2.5,-6.4 -8.2,-11.5 -15.4,-11.2 -5.5,0.2 -11.1,3.8 -11.8,9.6 -0.6,4.8 2.4,10.7 7.4,11.8 4.3,1 9.2,-2.5 6.8,-6.9 -0.8,-1.6 -3.2,-0.2 -2.4,1.4 -4.7,2.1 -7.4,1.6 -8.3,-1.7 -0.9,-1.7 -1.1,-3.5 -0.5,-5.5 0.8,-2.3 3.6,-4.7 5.9,-5.4 5.8,-1.8 11.5,1.4 14.5,6.4 6.5,11.1 0.1,22.8 -11.4,26.3 -3.1,0.9 -6.2,1.3 -9.4,1.3 -5.9,-2 -11.8,-3.8 -17.9,-5.6 -7.6,-5.2 -12.6,-13.6 -11.4,-23.9 0.1,-0.6 -0.2,-0.9 -0.6,-1.1 1.6,-15 -8.7,-28.8 -22.1,-34.6 -15.6,-6.7 -33.5,-4.5 -48.7,2.4 0.4,-0.3 0.8,-0.6 1.2,-0.9 3.4,-2.6 7,-5 7.5,-5.2 1.1,-0.7 2.1,-1.4 3.2,-2.1 l 1.6,-1 0.5,-0.3 c 0.4,-0.2 0.8,-0.5 1.2,-0.7 l 2.4,-1.3 c 2.9,-0.4 6.4,-0.5 9.4,0.2 6.3,1.6 3.1,-3.7 2.7,-4.3 0,0 1,-0.3 2.3,-0.8 1.2,-0.5 2.7,-1.4 3.5,-2.5 0.9,0.4 2,0.8 3.3,1 1.2,0.3 2.6,0.4 4.1,0.2 3,-0.2 6.3,-1.6 10.2,-4.9 3.7,0.3 8.6,1.8 13.4,6 2.3,2 3.9,3 5.1,3.5 1.1,0.5 1.7,0.5 1.7,0.5 2.6,-0.1 5,-1 6.3,-2.7 1.3,-1.7 1.6,-4.3 -0.2,-7.7 0.4,0.5 1.9,2.3 4.4,3.6 2.5,1.3 6,2.2 10.7,1 6.3,-1.6 9.9,-1.3 12.5,-0.3 2.6,1 4.2,2.8 6.6,4.3 4.7,3 7.2,-1.4 7.2,-1.4 0,0 -3.1,1.6 -6.1,-2 -3,-3.6 -6,-11.4 -12,-10.1 0,0 0.5,-1.2 0.5,-2.9 0,-1.7 -0.5,-3.8 -2.7,-5.6 0,0 0.6,3.1 -1.7,5.2 -2.2,2.1 -6.7,3.7 -3.9,9.1 0,0 -1.2,0.5 -2.8,0.7 -1.5,0.3 -3.3,0.4 -4.5,-0.4 0,0 0.8,-1.1 0.9,-2.8 0.2,-1.7 -0.2,-4 -2.6,-6.4 0.1,0.1 -1.1,1.9 -1.2,2 -0.9,1.1 -2,1.8 -3.2,1.6 -0.9,-0.1 -1.7,-0.7 -2.4,-1.5 1.2,-2.7 2.4,-6.5 0.2,-8.9 -3.8,-4 -10.9,-0.6 -14.5,3.1 l -0.1,0.1 c -1.9,0.4 -4.1,1 -6.7,1.9 -5.5,2 -8.4,3.8 -10.7,5.4 -4.2,-0.8 -9.9,-0.2 -13.9,4.8 -1,-0.4 -2.2,-0.5 -3.1,-0.1 -2.4,1 -3.5,2 -3.5,2 0,0 0.1,-1 -0.1,-2 -0.2,-1 -0.6,-2 -1.5,-2.1 -1.9,-0.2 -4.9,4.1 -5.5,5 -0.5,0.7 -3.6,4.6 -6,7.3 -1.4,0.9 -2.7,1.7 -3.9,2.4 -0.9,0.6 -1.6,1.1 -2.1,1.4 -0.4,-0.4 -0.3,0 -0.4,0.3 -0.1,0.1 -0.2,0.1 -0.2,0.1 0,0 -0.1,0 -0.1,0.2 -0.9,0.5 -4,2.6 -6.9,5 1.4,-2.5 2.6,-5.1 3.3,-7.8 3.5,-12.6 -2.3,-27.7 -16.3,-29.9 -7.8,-1.3 -18.4,3.3 -21.8,10.7 -1.9,-27.7 -25.1,-49.7 -53.3,-49.7 -29.5,0 -53.4,24 -53.4,53.4 0,0 0,0 0,0 -1.4,-7.4 -10.7,-14.2 -17.9,-14.7 -14.3,-1.1 -23.4,11.8 -22.1,25.1 0.5,5.7 2.7,10.9 5.9,15.4 -0.6,-0.6 -1.2,-1.2 -1.9,-1.8 -3.1,-2.7 -6.8,-5.2 -7.8,-5.8 0,-0.2 -0.1,-0.2 -0.1,-0.2 0,0 -0.1,0 -0.2,-0.1 -0.1,-0.3 -0.1,-0.7 -0.4,-0.3 -0.5,-0.3 -1.2,-0.8 -2.1,-1.4 -1.1,-0.7 -2.5,-1.5 -3.9,-2.4 -2.4,-2.6 -5.5,-6.6 -6,-7.3 -0.6,-0.8 -3.6,-5.2 -5.5,-5 -1,0.1 -1.4,1.1 -1.5,2.1 -0.2,1 -0.1,2 -0.1,2 0,0 -1.2,-1 -3.5,-2 -1,-0.4 -2.1,-0.3 -3.1,0.1 -4,-5.1 -9.7,-5.7 -13.9,-4.8 -2.3,-1.5 -5.2,-3.3 -10.7,-5.4 -2.6,-0.9 -4.8,-1.5 -6.7,-1.9 l -0.1,-0.1 c -3.5,-3.7 -10.7,-7.2 -14.5,-3.1 -2.2,2.4 -1,6.2 0.2,8.9 -0.7,0.8 -1.5,1.3 -2.4,1.5 -1.2,0.2 -2.3,-0.5 -3.2,-1.6 -0.1,-0.1 -1.3,-1.9 -1.2,-2 -2.4,2.4 -2.8,4.7 -2.6,6.4 0.2,1.7 0.9,2.8 0.9,2.8 -1.2,0.8 -3,0.7 -4.5,0.4 -1.5,-0.3 -2.8,-0.7 -2.8,-0.7 2.8,-5.4 -1.6,-7 -3.9,-9.1 -2.2,-2.1 -1.7,-5.2 -1.7,-5.2 -2.1,1.8 -2.7,3.9 -2.7,5.6 0,1.7 0.5,2.9 0.5,2.9 -6,-1.3 -9,6.5 -12,10.1 -3,3.6 -6.1,2 -6.1,2 0,0 2.5,4.4 7.2,1.4 2.4,-1.5 4,-3.3 6.6,-4.3 2.6,-1 6.3,-1.3 12.5,0.3 4.7,1.2 8.2,0.3 10.7,-1 2.5,-1.3 4,-3.1 4.4,-3.6 -1.8,3.3 -1.5,5.9 -0.2,7.7 1.3,1.8 3.7,2.7 6.3,2.7 0,0 0.6,0 1.7,-0.5 1.1,-0.5 2.8,-1.5 5.1,-3.5 4.9,-4.2 9.7,-5.7 13.4,-6 3.9,3.3 7.2,4.6 10.2,4.9 1.5,0.2 2.8,0.1 4.1,-0.2 1.2,-0.2 2.3,-0.6 3.3,-1 0.8,1.2 2.3,2 3.5,2.5 1.3,0.5 2.3,0.8 2.3,0.8 -0.4,0.6 -3.6,5.9 2.7,4.3 3,-0.7 6.5,-0.7 9.4,-0.2 l 2.4,1.3 c 0.4,0.2 0.8,0.5 1.2,0.7 l 0.5,0.3 1.6,1 c 1.1,0.7 2.1,1.4 3.2,2.1 0.4,0.2 3.8,2.5 7.1,5 -12.5,-5.1 -26.5,-7 -39.7,-3.5 -15.1,4 -28.2,16.6 -28.7,32.9 0,1.3 0,2.6 0.2,3.9 -0.4,0.2 -0.6,0.6 -0.6,1.2 1.2,10.9 -4.2,19.4 -12.3,24.5 -5.3,1.6 -10.5,3.2 -15.6,4.9 -3.6,0.2 -7.3,-0.1 -10.8,-1.1 -11.2,-3.1 -17.7,-14.5 -11.9,-25.4 2.6,-5 7.7,-8.7 13.5,-7.5 3.2,0.6 6.2,2.1 7.4,5.7 0,1.4 0.1,2.7 0.1,4.1 -0.8,4.1 -3.7,5.2 -8.9,3 0.8,-1.6 -1.6,-3 -2.4,-1.4 -2.3,4.4 2.5,7.9 6.8,6.9 5,-1.1 8,-7 7.4,-11.8 -0.8,-5.8 -6.3,-9.3 -11.8,-9.6 -7.2,-0.3 -12.9,4.8 -15.4,11.2 -2.4,6 -2,11.4 0.1,15.7 -6,-2.2 -13,-2.1 -18,2.4 -4.8,4.4 -6.1,12.8 -1.8,18 2.5,3 6.6,4.2 10.1,3.4 -3.5,1.6 -7,3.1 -10.4,4.8 -63.1,30.3 -97.8,70.7 -97.8,113.8 0,5.3 0.5,10.6 1.6,15.8 -0.4,-0.2 -1,0.1 -1.1,0.9 z m 340.8,159.2 c 1.5,1.7 3.7,3.7 4.5,5.8 2.4,6.4 -8.8,15.4 -13.6,18.6 -4.7,-3.1 -16,-12.2 -13.6,-18.6 0.8,-2.1 3,-4.2 4.5,-5.8 2.9,-3.2 5.8,-6.4 8.8,-9.6 0.2,-0.2 0.2,-0.4 0.3,-0.6 0.1,0.2 0.2,0.4 0.3,0.6 3,3.1 5.9,6.3 8.8,9.6 z m 66,-13 c -1.7,-1.2 -3.7,-1.7 -5.8,-0.9 -5.2,1.8 -4.7,8.1 0.3,9.5 1.8,0.5 2.1,-1.9 0.9,-2.7 1,-2 4.4,-3.3 5.4,-0.6 1.2,3.3 -1,6.8 -3.3,8.8 -1.7,1.5 -3.6,1.2 -5.8,0.9 -4,-0.6 -7.6,-2.5 -11.1,-4.4 -6,-3.4 -11.8,-7.4 -18.4,-9.5 -6.8,-2.2 -14.2,-2.9 -21.3,-3.1 -5.3,-0.1 -11.6,-0.6 -15.6,3.5 -0.2,0.2 -0.2,0.3 -0.3,0.5 -0.1,-0.2 -0.2,-0.4 -0.3,-0.5 -4.1,-4.1 -10.3,-3.6 -15.6,-3.5 -7.1,0.2 -14.5,0.9 -21.3,3.1 -6.6,2.2 -12.4,6.2 -18.4,9.5 -3.5,1.9 -7.1,3.8 -11.1,4.4 -2.2,0.3 -4.1,0.6 -5.8,-0.9 -2.3,-2 -4.5,-5.5 -3.3,-8.8 1,-2.7 4.4,-1.4 5.4,0.6 -1.2,0.9 -0.9,3.2 0.9,2.7 4.9,-1.4 5.4,-7.7 0.3,-9.5 -2.1,-0.7 -4.1,-0.2 -5.8,0.9 -0.5,-2.7 -1.8,-5.3 -3.7,-7.2 25.5,3 51.9,4.5 78.8,4.5 26.9,0 53.3,-1.5 78.8,-4.5 -2.1,1.9 -3.4,4.5 -3.9,7.2 z M 689.1,286 c 0.1,0 0.2,-0.1 0.3,-0.1 7.4,-4.6 19.7,-4.5 22.1,5.8 0.9,4.1 -0.4,8.9 -4.6,10.5 -3.1,1.2 -6.9,0.5 -8.2,-3 -1.2,-3.5 2.5,-6.8 5.8,-4.9 1.6,0.9 3,-1.5 1.4,-2.4 -5.5,-3.2 -11.8,2.1 -9.9,8.1 0.4,1.3 1.1,2.4 1.9,3.3 -7.8,-3.3 -15.8,-6.4 -24,-9.3 6,-1.3 11.5,-4 15.2,-8 z m -45.9,-1.8 c -7.4,-2 -14.9,-3.9 -22.6,-5.7 6.1,-0.2 11.9,-4.3 14.9,-10.1 0.8,6.3 3.6,11.6 7.7,15.8 z M 532.4,208.9 c 2,4.7 8.3,7.9 13.2,5.5 4.9,-2.5 5.2,-9.1 1.2,-12.5 -1.4,-1.1 -3.4,0.8 -2,2 -1,2.9 -2.1,5.7 -3.1,8.6 -1.7,-0.7 -3.4,-1.5 -5.1,-2.2 -2,-2 -2.5,-6.3 -1.7,-8.9 1.2,-3.9 4.4,-7.1 7.9,-8.9 6.6,-3.3 15.4,-1.9 20.5,3.4 10.9,11.4 3.6,28.5 -6.1,37.8 -17.3,16.6 -42.7,23.5 -66.3,21.1 21.9,-5 38.8,-23.5 41.3,-46.3 0.1,0.1 0.2,0.3 0.2,0.4 z M 479.2,152 c 27.9,0 50.6,22.7 50.6,50.6 0,27.9 -22.7,50.6 -50.6,50.6 -27.9,0 -50.6,-22.7 -50.6,-50.6 0,-27.9 22.6,-50.6 50.6,-50.6 z m -86.5,45.2 c 4.9,-6 12.8,-7.9 20,-5.3 3.9,1.4 7.1,4.1 8.8,7.8 1.3,3 1.4,4.7 0.1,7.7 -0.2,2.3 -1.4,3.6 -3.7,3.9 -4.2,2.8 -6.1,0.3 -5.7,-7.5 1.4,-1.1 -0.6,-3.1 -2,-2 -8.9,7.4 4.1,18.2 12.2,10.3 2.1,-2 3.1,-4.2 3.4,-6.4 1.4,23.8 18.5,43.5 41.1,48.8 -23.9,2.6 -49.6,-4.2 -67.1,-21 -9.4,-8.8 -16.5,-24.7 -7.1,-36.3 z m -64.3,42.7 c 16.8,-22 50.5,-16 70.7,-2.9 0,0 0,0 0,0 5.2,4.7 11.3,8.5 17.1,11.4 18.2,9.2 39,11.8 59,7.8 0.2,0 0.4,-0.1 0.5,-0.2 1.1,0.1 2.2,0.1 3.3,0.1 0.8,0 1.5,0 2.3,-0.1 0.1,0.1 0.2,0.1 0.4,0.2 18,3.6 36.6,1.9 53.6,-5.3 7.8,-3.3 16.2,-8 22.9,-14.1 20.2,-13 53.7,-18.7 70.4,3.1 7.4,9.7 11.5,31.1 -4.4,35.3 -8.3,2.2 -16.2,-3.6 -16.7,-12.2 -0.3,-4.4 1.6,-9 5.5,-11.3 11.9,-7 14.9,13.1 4.4,9.5 -1.7,-0.6 -2.4,2.1 -0.7,2.7 11.4,3.9 14.5,-14 2.5,-16.2 -14.4,-2.6 -18,17.7 -9.9,26 1.4,1.4 2.9,2.5 4.4,3.3 -41.9,-9 -87.6,-13.7 -134.8,-13.7 -48.3,0 -94.9,4.9 -137.6,14.3 0.8,-0.3 1.5,-0.6 2.3,-1 11,-5.7 11.9,-24.7 -1.2,-28.6 -5.6,-1.7 -12.9,2 -12.9,8.4 0,5.6 5.6,9.1 10.6,7.4 1.7,-0.6 1,-3.3 -0.7,-2.7 -10.4,3.6 -7.4,-16.5 4.4,-9.5 3.9,2.3 5.8,6.9 5.5,11.3 -0.5,8.1 -7.8,14 -15.8,12.4 -16.5,-3.2 -12.6,-25.6 -5.1,-35.4 z m -6.8,28.4 c 3.1,6.3 8.8,10.9 15.7,10.3 -8.1,1.8 -16,3.8 -23.7,6 4.3,-4.3 7.3,-9.9 8,-16.3 z m -70.5,34.2 c -4.8,-1.3 -6.5,-6.5 -5.5,-10.9 2.4,-10.3 14.7,-10.4 22.1,-5.8 0.1,0.1 0.2,0.1 0.3,0.1 3.8,4.2 9.6,6.9 15.7,8 -8.9,3.1 -17.5,6.5 -25.8,10.1 1.2,-0.8 2.2,-2.1 2.9,-3.7 2.4,-6.1 -3.9,-11.9 -9.7,-8.5 -1.6,0.9 -0.2,3.3 1.4,2.4 3.1,-1.8 6.2,0.8 5.9,4.1 -0.2,3.5 -4.3,5 -7.3,4.2 z M 479,267.6 c 180.8,0 327.8,70.1 327.8,156.2 C 806.8,509.9 659.8,580 479,580 298.2,580 151.2,509.9 151.2,423.8 151.2,337.7 298.3,267.6 479,267.6 Z"
           id="path61"
           inkscape:connector-curvature="0" /><path
           d="m 149.5,446.5 c 0.2,-1.8 -2.6,-2.1 -2.8,-0.3 -0.2,1.8 2.6,2.1 2.8,0.3 z"
           id="path63"
           inkscape:connector-curvature="0" /><path
           d="m 148.9,451.9 c 0.2,-1.8 -2.6,-2.1 -2.8,-0.3 -0.1,1.9 2.7,2.1 2.8,0.3 z"
           id="path65"
           inkscape:connector-curvature="0" /><path
           d="m 148.5,457.4 c 0.2,-1.8 -2.6,-2 -2.8,-0.2 -0.2,1.8 2.6,2 2.8,0.2 z"
           id="path67"
           inkscape:connector-curvature="0" /><path
           d="m 148.1,462.8 c 0.1,-1.8 -2.7,-2 -2.8,-0.2 -0.1,1.8 2.6,2 2.8,0.2 z"
           id="path69"
           inkscape:connector-curvature="0" /><path
           d="m 147.7,468.3 c 0.1,-1.8 -2.7,-2 -2.8,-0.2 -0.1,1.8 2.7,2 2.8,0.2 z"
           id="path71"
           inkscape:connector-curvature="0" /><path
           d="m 147.4,473.7 c 0.1,-1.8 -2.7,-1.9 -2.8,-0.1 -0.1,1.7 2.7,1.9 2.8,0.1 z"
           id="path73"
           inkscape:connector-curvature="0" /><path
           d="m 147.2,479.2 c 0.1,-1.8 -2.7,-1.9 -2.8,-0.1 -0.1,1.8 2.7,1.9 2.8,0.1 z"
           id="path75"
           inkscape:connector-curvature="0" /><path
           d="m 147,484.6 c 0.1,-1.8 -2.7,-1.9 -2.8,-0.1 0,1.8 2.8,1.9 2.8,0.1 z"
           id="path77"
           inkscape:connector-curvature="0" /><path
           d="m 146.9,490.1 c 0,-1.8 -2.8,-1.9 -2.8,0 0,1.7 2.8,1.8 2.8,0 z"
           id="path79"
           inkscape:connector-curvature="0" /><path
           d="m 146.9,495.5 c 0,-1.8 -2.8,-1.8 -2.8,0 0,1.8 2.8,1.8 2.8,0 z"
           id="path81"
           inkscape:connector-curvature="0" /><path
           d="m 146.9,501 c 0,-1.8 -2.8,-1.8 -2.8,0 0,1.8 2.8,1.8 2.8,0 z"
           id="path83"
           inkscape:connector-curvature="0" /><path
           d="m 147,506.4 c -0.1,-1.8 -2.8,-1.7 -2.8,0.1 0.1,1.8 2.9,1.7 2.8,-0.1 z"
           id="path85"
           inkscape:connector-curvature="0" /><path
           d="m 147.2,511.9 c -0.1,-1.8 -2.8,-1.7 -2.8,0.1 0,1.8 2.8,1.7 2.8,-0.1 z"
           id="path87"
           inkscape:connector-curvature="0" /><path
           d="m 147.4,517.3 c -0.1,-1.8 -2.9,-1.7 -2.8,0.1 0.1,1.8 2.9,1.7 2.8,-0.1 z"
           id="path89"
           inkscape:connector-curvature="0" /><path
           d="m 147.7,522.8 c -0.1,-1.8 -2.9,-1.6 -2.8,0.2 0.2,1.7 2.9,1.6 2.8,-0.2 z"
           id="path91"
           inkscape:connector-curvature="0" /><path
           d="m 150.4,549.8 c -0.1,-0.6 -0.4,-0.9 -0.8,-1 0.8,-1 1.2,-3.5 1.5,-6 0.4,-3 0.7,-5.8 0.7,-5.9 0,-0.1 -0.8,-2.9 -1.6,-5.8 -0.8,-2.9 -1.8,-5.9 -3.1,-6 -1.3,-0.1 -2.8,2.8 -3.7,5.9 -0.9,3.1 -1.2,6.4 -1.1,6.6 0,0.1 0.8,3.4 2.2,6.3 1.1,2.3 2.5,4.4 3.6,5.1 -0.3,0.3 -0.5,0.7 -0.4,1.2 0.2,1.8 3,1.4 2.7,-0.4 z"
           id="path93"
           inkscape:connector-curvature="0" /><path
           d="m 151.2,555.3 c -0.3,-1.8 -3,-1.4 -2.8,0.4 0.3,1.8 3.1,1.3 2.8,-0.4 z"
           id="path95"
           inkscape:connector-curvature="0" /><path
           d="m 152.1,560.6 c -0.3,-1.8 -3.1,-1.3 -2.7,0.5 0.2,1.8 3,1.3 2.7,-0.5 z"
           id="path97"
           inkscape:connector-curvature="0" /><path
           d="m 153,566 c -0.3,-1.8 -3.1,-1.3 -2.7,0.5 0.3,1.8 3,1.3 2.7,-0.5 z"
           id="path99"
           inkscape:connector-curvature="0" /><path
           d="m 154.1,571.3 c -0.4,-1.8 -3.1,-1.2 -2.7,0.6 0.3,1.8 3,1.2 2.7,-0.6 z"
           id="path101"
           inkscape:connector-curvature="0" /><path
           d="m 155.2,576.7 c -0.4,-1.8 -3.1,-1.2 -2.7,0.6 0.4,1.8 3.1,1.1 2.7,-0.6 z"
           id="path103"
           inkscape:connector-curvature="0" /><path
           d="m 156.4,582 c -0.4,-1.7 -3.1,-1.1 -2.7,0.6 0.4,1.8 3.1,1.1 2.7,-0.6 z"
           id="path105"
           inkscape:connector-curvature="0" /><path
           d="m 157.7,587.3 c -0.4,-1.7 -3.1,-1.1 -2.7,0.7 0.5,1.7 3.2,1 2.7,-0.7 z"
           id="path107"
           inkscape:connector-curvature="0" /><path
           d="m 159.1,592.5 c -0.5,-1.7 -3.2,-1 -2.7,0.8 0.5,1.7 3.2,0.9 2.7,-0.8 z"
           id="path109"
           inkscape:connector-curvature="0" /><path
           d="m 160.7,597.8 c -0.5,-1.7 -3.2,-0.9 -2.7,0.8 0.5,1.7 3.2,0.9 2.7,-0.8 z"
           id="path111"
           inkscape:connector-curvature="0" /><path
           d="m 162.3,602.9 c -0.6,-1.7 -3.2,-0.9 -2.7,0.9 0.6,1.7 3.2,0.8 2.7,-0.9 z"
           id="path113"
           inkscape:connector-curvature="0" /><path
           d="m 164,608.1 c -0.6,-1.7 -3.2,-0.8 -2.6,0.9 0.6,1.7 3.2,0.8 2.6,-0.9 z"
           id="path115"
           inkscape:connector-curvature="0" /><path
           d="m 165.9,613.2 c -0.6,-1.7 -3.2,-0.7 -2.6,1 0.6,1.7 3.2,0.7 2.6,-1 z"
           id="path117"
           inkscape:connector-curvature="0" /><path
           d="m 167.8,618.3 c -0.7,-1.7 -3.3,-0.7 -2.6,1 0.7,1.7 3.3,0.7 2.6,-1 z"
           id="path119"
           inkscape:connector-curvature="0" /><path
           d="m 169.9,623.3 c -0.7,-1.7 -3.3,-0.6 -2.6,1.1 0.7,1.7 3.3,0.6 2.6,-1.1 z"
           id="path121"
           inkscape:connector-curvature="0" /><path
           d="m 172.1,628.3 c -0.7,-1.6 -3.3,-0.5 -2.5,1.1 0.7,1.7 3.2,0.6 2.5,-1.1 z"
           id="path123"
           inkscape:connector-curvature="0" /><path
           d="m 174.4,633.2 c -0.8,-1.6 -3.3,-0.4 -2.5,1.2 0.8,1.7 3.3,0.4 2.5,-1.2 z"
           id="path125"
           inkscape:connector-curvature="0" /><path
           d="m 176.8,638.1 c -0.8,-1.6 -3.3,-0.4 -2.5,1.3 0.8,1.6 3.3,0.3 2.5,-1.3 z"
           id="path127"
           inkscape:connector-curvature="0" /><path
           d="m 179.3,642.9 c -0.8,-1.6 -3.3,-0.3 -2.5,1.3 0.9,1.7 3.3,0.3 2.5,-1.3 z"
           id="path129"
           inkscape:connector-curvature="0" /><path
           d="m 182,647.7 c -0.9,-1.6 -3.3,-0.2 -2.4,1.4 0.9,1.6 3.3,0.2 2.4,-1.4 z"
           id="path131"
           inkscape:connector-curvature="0" /><path
           d="m 182.3,653.8 c 1,1.6 3.3,0.1 2.4,-1.4 -0.9,-1.6 -3.3,-0.2 -2.4,1.4 z"
           id="path133"
           inkscape:connector-curvature="0" /><path
           d="m 185.3,658.5 c 1,1.5 3.3,0 2.3,-1.5 -1,-1.5 -3.3,0 -2.3,1.5 z"
           id="path135"
           inkscape:connector-curvature="0" /><path
           d="m 188.3,663.1 c 1.1,1.5 3.3,-0.1 2.3,-1.6 -1,-1.5 -3.3,0 -2.3,1.6 z"
           id="path137"
           inkscape:connector-curvature="0" /><path
           d="m 191.5,667.6 c 1.1,1.5 3.3,-0.2 2.3,-1.6 -1.1,-1.5 -3.3,0.1 -2.3,1.6 z"
           id="path139"
           inkscape:connector-curvature="0" /><path
           d="m 194.8,672 c 1.1,1.5 3.3,-0.3 2.2,-1.7 -1.1,-1.5 -3.3,0.2 -2.2,1.7 z"
           id="path141"
           inkscape:connector-curvature="0" /><path
           d="m 217.7,694 c 0.7,-1.1 -0.9,-3.9 -2.6,-6.6 -1.8,-2.8 -3.6,-5.4 -3.8,-5.5 -0.1,-0.1 -2.7,-2 -5.5,-3.7 -1.8,-1.1 -3.7,-2.2 -5.1,-2.6 0,-0.3 0,-0.6 -0.3,-1 -1.1,-1.4 -3.3,0.3 -2.2,1.8 0.1,0.2 0.3,0.3 0.4,0.4 0,1.4 1,3.8 2.2,6 1.6,3 3.7,5.8 3.8,5.9 0.1,0.1 2.9,2.1 5.9,3.7 2.6,1.3 5.2,2.4 6.5,2.1 -0.5,0.5 -0.6,1.3 0.1,1.9 1.4,1.2 3.2,-0.9 1.9,-2.1 -0.4,-0.4 -0.9,-0.4 -1.3,-0.3 z"
           id="path143"
           inkscape:connector-curvature="0" /><path
           d="m 221.2,700 c 1.4,1.2 3.2,-0.9 1.8,-2.1 -1.3,-1.2 -3.1,0.9 -1.8,2.1 z"
           id="path145"
           inkscape:connector-curvature="0" /><path
           d="m 225.4,703.6 c 1.4,1.1 3.2,-1 1.8,-2.2 -1.4,-1.1 -3.2,1 -1.8,2.2 z"
           id="path147"
           inkscape:connector-curvature="0" /><path
           d="m 229.8,707 c 1.5,1.1 3.1,-1.1 1.7,-2.2 -1.4,-1.1 -3.2,1.1 -1.7,2.2 z"
           id="path149"
           inkscape:connector-curvature="0" /><path
           d="m 234.1,710.3 c 1.5,1.1 3.1,-1.2 1.6,-2.2 -1.3,-1.1 -3,1.1 -1.6,2.2 z"
           id="path151"
           inkscape:connector-curvature="0" /><path
           d="m 238.7,713.5 c 1.5,1 3,-1.3 1.6,-2.3 -1.5,-1 -3.1,1.3 -1.6,2.3 z"
           id="path153"
           inkscape:connector-curvature="0" /><path
           d="m 244.7,714.2 c -1.5,-1 -3,1.3 -1.5,2.3 1.6,1.1 3,-1.3 1.5,-2.3 z"
           id="path155"
           inkscape:connector-curvature="0" /><path
           d="m 249.4,717.1 c -1.5,-0.9 -3,1.4 -1.4,2.4 1.5,1 2.9,-1.4 1.4,-2.4 z"
           id="path157"
           inkscape:connector-curvature="0" /><path
           d="m 254,719.9 c -1.6,-0.9 -3,1.5 -1.4,2.4 1.6,0.9 3,-1.5 1.4,-2.4 z"
           id="path159"
           inkscape:connector-curvature="0" /><path
           d="m 258.8,722.5 c -1.6,-0.8 -2.9,1.6 -1.3,2.5 1.6,0.8 2.9,-1.6 1.3,-2.5 z"
           id="path161"
           inkscape:connector-curvature="0" /><path
           d="m 263.6,725 c -1.6,-0.8 -2.9,1.7 -1.2,2.5 1.6,0.8 2.8,-1.7 1.2,-2.5 z"
           id="path163"
           inkscape:connector-curvature="0" /><path
           d="m 268.5,727.3 c -1.6,-0.7 -2.8,1.8 -1.2,2.5 1.7,0.8 2.9,-1.7 1.2,-2.5 z"
           id="path165"
           inkscape:connector-curvature="0" /><path
           d="m 273.5,729.5 c -1.6,-0.7 -2.8,1.9 -1.1,2.6 1.7,0.7 2.7,-1.9 1.1,-2.6 z"
           id="path167"
           inkscape:connector-curvature="0" /><path
           d="m 278.5,731.6 c -1.7,-0.6 -2.7,1.9 -1,2.6 1.7,0.6 2.7,-2 1,-2.6 z"
           id="path169"
           inkscape:connector-curvature="0" /><path
           d="m 283.6,733.5 c -1.7,-0.6 -2.7,2 -0.9,2.6 1.7,0.6 2.6,-2 0.9,-2.6 z"
           id="path171"
           inkscape:connector-curvature="0" /><path
           d="m 288.8,735.2 c -1.7,-0.6 -2.6,2.1 -0.8,2.7 1.7,0.5 2.5,-2.2 0.8,-2.7 z"
           id="path173"
           inkscape:connector-curvature="0" /><path
           d="m 293.9,736.8 c -1.7,-0.5 -2.5,2.2 -0.7,2.7 1.8,0.4 2.5,-2.3 0.7,-2.7 z"
           id="path175"
           inkscape:connector-curvature="0" /><path
           d="m 299.2,738.1 c -1.7,-0.4 -2.4,2.3 -0.7,2.7 1.8,0.5 2.5,-2.2 0.7,-2.7 z"
           id="path177"
           inkscape:connector-curvature="0" /><path
           d="m 304.5,739.3 c -1.7,-0.4 -2.3,2.3 -0.6,2.7 1.8,0.4 2.3,-2.3 0.6,-2.7 z"
           id="path179"
           inkscape:connector-curvature="0" /><path
           d="m 309.9,740.3 c -1.8,-0.3 -2.3,2.4 -0.5,2.7 1.8,0.3 2.2,-2.4 0.5,-2.7 z"
           id="path181"
           inkscape:connector-curvature="0" /><path
           d="m 320.4,744.4 c 1.8,0.1 2,-2.6 0.2,-2.8 -1.8,-0.2 -2,2.6 -0.2,2.8 z"
           id="path183"
           inkscape:connector-curvature="0" /><path
           d="m 325.9,744.7 c 1.8,0.1 1.9,-2.7 0.1,-2.8 -1.8,0 -2,2.7 -0.1,2.8 z"
           id="path185"
           inkscape:connector-curvature="0" /><path
           d="m 331.4,742 c -1.8,0 -1.8,2.8 0,2.8 1.9,0 1.8,-2.8 0,-2.8 z"
           id="path187"
           inkscape:connector-curvature="0" /><path
           d="m 336.8,741.9 c -0.9,0.1 -1.3,0.8 -1.3,1.5 0,0.7 0.5,1.4 1.4,1.3 1.9,-0.2 1.7,-3 -0.1,-2.8 z"
           id="path189"
           inkscape:connector-curvature="0" /><path
           d="m 342.2,741.5 c -1.8,0.2 -1.6,3 0.3,2.8 1.8,-0.3 1.5,-3.1 -0.3,-2.8 z"
           id="path191"
           inkscape:connector-curvature="0" /><path
           d="m 348,743.6 c 1.8,-0.3 1.3,-3.1 -0.4,-2.8 -1.8,0.2 -1.4,3 0.4,2.8 z"
           id="path193"
           inkscape:connector-curvature="0" /><path
           d="m 352.9,739.8 c -1.7,0.3 -1.3,3.1 0.6,2.7 1.8,-0.3 1.1,-3 -0.6,-2.7 z"
           id="path195"
           inkscape:connector-curvature="0" /><path
           d="m 358.1,738.6 c -1.7,0.4 -1.1,3.1 0.7,2.7 0.9,-0.2 1.1,-1 1,-1.7 -0.2,-0.7 -0.8,-1.2 -1.7,-1 z"
           id="path197"
           inkscape:connector-curvature="0" /><path
           d="m 363.3,737.1 c -1.7,0.5 -0.9,3.2 0.9,2.7 1.8,-0.6 0.8,-3.3 -0.9,-2.7 z"
           id="path199"
           inkscape:connector-curvature="0" /><path
           d="m 368.4,735.2 c -1.7,0.6 -0.7,3.3 1,2.6 1.7,-0.7 0.6,-3.2 -1,-2.6 z"
           id="path201"
           inkscape:connector-curvature="0" /><path
           d="m 373.4,733.2 c -1.6,0.7 -0.6,3.3 1.1,2.5 1.7,-0.8 0.5,-3.3 -1.1,-2.5 z"
           id="path203"
           inkscape:connector-curvature="0" /><path
           d="m 378.3,730.8 c -1.6,0.8 -0.4,3.3 1.3,2.5 1.6,-0.8 0.3,-3.3 -1.3,-2.5 z"
           id="path205"
           inkscape:connector-curvature="0" /><path
           d="m 383.1,728.3 c -1.5,0.9 -0.2,3.4 1.4,2.4 1.5,-0.9 0.1,-3.3 -1.4,-2.4 z"
           id="path207"
           inkscape:connector-curvature="0" /><path
           d="m 387.7,725.5 c -1.5,0.9 -0.1,3.3 1.5,2.4 1.5,-1 0,-3.3 -1.5,-2.4 z"
           id="path209"
           inkscape:connector-curvature="0" /><path
           d="m 398.3,721.6 c 1.4,-1.2 -0.3,-3.3 -1.7,-2.2 -1.5,1 0.2,3.2 1.7,2.2 z"
           id="path211"
           inkscape:connector-curvature="0" /><path
           d="m 402.6,718 c 1.4,-1.2 -0.4,-3.3 -1.8,-2.1 -1.4,1.1 0.3,3.3 1.8,2.1 z"
           id="path213"
           inkscape:connector-curvature="0" /><path
           d="m 404.9,712.4 c -1.3,1.2 0.5,3.3 1.9,2.1 1.3,-1.3 -0.6,-3.4 -1.9,-2.1 z"
           id="path215"
           inkscape:connector-curvature="0" /><path
           d="m 408.8,708.6 c -1.3,1.2 0.6,3.3 1.9,2 1.4,-1.2 -0.5,-3.2 -1.9,-2 z"
           id="path217"
           inkscape:connector-curvature="0" /><path
           d="m 414.6,706.7 c 1.3,-1.3 -0.8,-3.2 -2,-1.9 -1.2,1.3 0.8,3.3 2,1.9 z"
           id="path219"
           inkscape:connector-curvature="0" /><path
           d="m 416.4,700.8 c -1.2,1.3 0.8,3.2 2.1,1.9 1.2,-1.4 -0.9,-3.2 -2.1,-1.9 z"
           id="path221"
           inkscape:connector-curvature="0" /><path
           d="m 422,698.5 c 1.2,-1.4 -1,-3.2 -2.1,-1.8 -1.2,1.4 0.9,3.2 2.1,1.8 z"
           id="path223"
           inkscape:connector-curvature="0" /><path
           d="m 425.6,694.3 c 1.1,-1.4 -1.1,-3.2 -2.2,-1.7 -1.1,1.4 1.1,3.1 2.2,1.7 z"
           id="path225"
           inkscape:connector-curvature="0" /><path
           d="m 426.7,688.3 c -1.1,1.4 1.1,3.1 2.2,1.7 1.1,-1.5 -1.1,-3.2 -2.2,-1.7 z"
           id="path227"
           inkscape:connector-curvature="0" /><path
           d="m 432.2,685.5 c 1.1,-1.5 -1.2,-3.1 -2.3,-1.6 -1,1.4 1.3,3.1 2.3,1.6 z"
           id="path229"
           inkscape:connector-curvature="0" /><path
           d="m 435.4,681 c 1,-1.5 -1.3,-3 -2.3,-1.6 -1.1,1.5 1.2,3.1 2.3,1.6 z"
           id="path231"
           inkscape:connector-curvature="0" /><path
           d="m 438.4,676.4 c 1,-1.5 -1.4,-3 -2.3,-1.5 -1,1.5 1.3,3 2.3,1.5 z"
           id="path233"
           inkscape:connector-curvature="0" /><path
           d="m 441.4,671.8 c 0.9,-1.6 -1.4,-3 -2.4,-1.5 -0.9,1.5 1.4,3 2.4,1.5 z"
           id="path235"
           inkscape:connector-curvature="0" /><path
           d="m 441.8,665.6 c -0.9,1.5 1.5,3 2.4,1.4 1,-1.5 -1.5,-2.9 -2.4,-1.4 z"
           id="path237"
           inkscape:connector-curvature="0" /><path
           d="m 447,662.3 c 0.9,-1.6 -1.5,-2.9 -2.4,-1.4 -0.9,1.6 1.5,3 2.4,1.4 z"
           id="path239"
           inkscape:connector-curvature="0" /><path
           d="m 449.7,657.5 c 0.9,-1.6 -1.6,-2.9 -2.4,-1.3 -1,1.5 1.5,2.9 2.4,1.3 z"
           id="path241"
           inkscape:connector-curvature="0" /><path
           d="m 452.2,652.7 c 0.8,-1.6 -1.6,-2.9 -2.5,-1.3 -0.8,1.6 1.7,2.9 2.5,1.3 z"
           id="path243"
           inkscape:connector-curvature="0" /><path
           d="m 454.8,647.8 c 0.8,-1.6 -1.7,-2.9 -2.5,-1.3 -0.8,1.6 1.7,2.9 2.5,1.3 z"
           id="path245"
           inkscape:connector-curvature="0" /><path
           d="m 457.2,642.9 c 0.8,-1.6 -1.7,-2.8 -2.5,-1.2 -0.8,1.6 1.7,2.8 2.5,1.2 z"
           id="path247"
           inkscape:connector-curvature="0" /><path
           d="m 283.3,557.7 c -0.1,1.8 2.7,2 2.8,0.2 0.1,-1.8 -2.7,-2 -2.8,-0.2 z"
           id="path249"
           inkscape:connector-curvature="0" /><path
           d="m 285.7,563.2 c 0.1,-1.8 -2.7,-1.9 -2.8,-0.1 0,1.8 2.7,1.9 2.8,0.1 z"
           id="path251"
           inkscape:connector-curvature="0" /><path
           d="m 285.5,568.6 c 0.1,-1.8 -2.7,-1.9 -2.8,-0.1 0,1.8 2.8,1.9 2.8,0.1 z"
           id="path253"
           inkscape:connector-curvature="0" /><path
           d="m 285.4,574 c 0,-1.8 -2.8,-1.8 -2.8,0 0,1.7 2.8,1.8 2.8,0 z"
           id="path255"
           inkscape:connector-curvature="0" /><path
           d="m 285.3,579.4 c 0,-1.8 -2.8,-1.8 -2.8,0 0.1,1.8 2.8,1.8 2.8,0 z"
           id="path257"
           inkscape:connector-curvature="0" /><path
           d="m 285.4,584.8 c -0.1,-1.8 -2.8,-1.7 -2.8,0.1 0.1,1.7 2.9,1.6 2.8,-0.1 z"
           id="path259"
           inkscape:connector-curvature="0" /><path
           d="m 285.6,590.2 c -0.1,-1.8 -2.8,-1.7 -2.8,0.1 0,1.8 2.8,1.7 2.8,-0.1 z"
           id="path261"
           inkscape:connector-curvature="0" /><path
           d="m 285.8,595.5 c -0.1,-1.8 -2.9,-1.6 -2.8,0.2 0.1,1.8 2.9,1.6 2.8,-0.2 z"
           id="path263"
           inkscape:connector-curvature="0" /><path
           d="m 289,627.7 c -0.2,-1.8 -3,-1.4 -2.8,0.4 0.3,1.8 3.1,1.4 2.8,-0.4 z"
           id="path265"
           inkscape:connector-curvature="0" /><path
           d="m 289.8,633.1 c -0.3,-1.8 -3,-1.4 -2.8,0.4 0.3,1.8 3.1,1.3 2.8,-0.4 z"
           id="path267"
           inkscape:connector-curvature="0" /><path
           d="m 290.6,638.4 c -0.3,-1.8 -3,-1.3 -2.7,0.5 0.3,1.7 3,1.2 2.7,-0.5 z"
           id="path269"
           inkscape:connector-curvature="0" /><path
           d="m 291.6,643.7 c -0.3,-1.8 -3.1,-1.3 -2.7,0.5 0.3,1.8 3,1.3 2.7,-0.5 z"
           id="path271"
           inkscape:connector-curvature="0" /><path
           d="m 292.5,649 c -0.3,-1.8 -3.1,-1.2 -2.7,0.5 0.3,1.8 3.1,1.3 2.7,-0.5 z"
           id="path273"
           inkscape:connector-curvature="0" /><path
           d="m 293.6,654.3 c -0.3,-1.7 -3.1,-1.2 -2.7,0.5 0.3,1.8 3,1.3 2.7,-0.5 z"
           id="path275"
           inkscape:connector-curvature="0" /><path
           d="m 294.7,659.6 c -0.4,-1.7 -3.1,-1.2 -2.7,0.6 0.3,1.7 3,1.1 2.7,-0.6 z"
           id="path277"
           inkscape:connector-curvature="0" /><path
           d="m 293.1,665.5 c 0.4,1.8 3.1,1.1 2.7,-0.6 -0.4,-1.7 -3.1,-1.2 -2.7,0.6 z"
           id="path279"
           inkscape:connector-curvature="0" /><path
           d="m 297,670.1 c -0.4,-1.7 -3.1,-1.1 -2.7,0.6 0.4,1.8 3.1,1.2 2.7,-0.6 z"
           id="path281"
           inkscape:connector-curvature="0" /><path
           d="m 298.2,675.4 c -0.4,-1.7 -3.1,-1.1 -2.7,0.6 0.4,1.8 3.1,1.2 2.7,-0.6 z"
           id="path283"
           inkscape:connector-curvature="0" /><path
           d="m 299.5,680.6 c -0.4,-1.7 -3.1,-1.1 -2.7,0.7 0.4,1.7 3.1,1.1 2.7,-0.7 z"
           id="path285"
           inkscape:connector-curvature="0" /><path
           d="m 298.1,686.6 c 0.4,1.7 3.1,1 2.7,-0.7 -0.4,-1.7 -3.1,-1 -2.7,0.7 z"
           id="path287"
           inkscape:connector-curvature="0" /><path
           d="m 302.2,691.1 c -0.5,-1.7 -3.1,-1 -2.7,0.7 0.4,1.7 3.1,1 2.7,-0.7 z"
           id="path289"
           inkscape:connector-curvature="0" /><path
           d="m 303.5,696.4 c -0.5,-1.7 -3.2,-1 -2.7,0.7 0.5,1.7 3.2,1 2.7,-0.7 z"
           id="path291"
           inkscape:connector-curvature="0" /><path
           d="m 305,701.5 c -0.5,-1.7 -3.2,-1 -2.7,0.7 0.4,1.8 3.1,1.1 2.7,-0.7 z"
           id="path293"
           inkscape:connector-curvature="0" /><path
           d="m 303.7,707.5 c 0.5,1.7 3.2,1 2.7,-0.8 -0.5,-1.6 -3.2,-0.9 -2.7,0.8 z"
           id="path295"
           inkscape:connector-curvature="0" /><path
           d="m 307.9,711.9 c -0.5,-1.7 -3.2,-0.9 -2.7,0.8 0.5,1.7 3.2,1 2.7,-0.8 z"
           id="path297"
           inkscape:connector-curvature="0" /><path
           d="m 309.4,717.1 c -0.5,-1.7 -3.2,-0.9 -2.7,0.8 0.6,1.8 3.2,1 2.7,-0.8 z"
           id="path299"
           inkscape:connector-curvature="0" /><path
           d="m 308.4,723.1 c 0.5,1.7 3.2,0.8 2.7,-0.8 -0.6,-1.7 -3.3,-0.9 -2.7,0.8 z"
           id="path301"
           inkscape:connector-curvature="0" /><path
           d="m 312.7,727.4 c -0.6,-1.7 -3.2,-0.8 -2.6,0.9 0.5,1.7 3.2,0.8 2.6,-0.9 z"
           id="path303"
           inkscape:connector-curvature="0" /><path
           d="m 314.5,732.5 c -0.6,-1.7 -3.2,-0.7 -2.6,1 0.6,1.6 3.2,0.6 2.6,-1 z"
           id="path305"
           inkscape:connector-curvature="0" /><path
           d="m 313.8,738.5 c 0.7,1.7 3.3,0.6 2.6,-1 -0.6,-1.6 -3.3,-0.6 -2.6,1 z"
           id="path307"
           inkscape:connector-curvature="0" /><path
           d="m 318.4,742.5 c -0.4,-1 -1.5,-1 -2.1,-0.5 -0.1,-0.5 -0.5,-0.9 -1.1,-0.9 -1.8,-0.2 -2.2,2.5 -0.3,2.8 0.4,0.1 0.7,-0.1 1,-0.3 0,0 0,0 0,0 0.7,1.6 3.2,0.5 2.5,-1.1 z"
           id="path309"
           inkscape:connector-curvature="0" /><path
           d="m 320.6,747.4 c -0.8,-1.6 -3.3,-0.5 -2.5,1.2 0.8,1.6 3.3,0.4 2.5,-1.2 z"
           id="path311"
           inkscape:connector-curvature="0" /><path
           d="m 322.9,752.2 c -0.8,-1.6 -3.3,-0.4 -2.5,1.3 0.9,1.6 3.3,0.3 2.5,-1.3 z"
           id="path313"
           inkscape:connector-curvature="0" /><path
           d="m 325.5,757 c -0.9,-1.5 -3.3,-0.2 -2.4,1.4 0.8,1.5 3.2,0.1 2.4,-1.4 z"
           id="path315"
           inkscape:connector-curvature="0" /><path
           d="m 325.8,763 c 0.9,1.6 3.3,0 2.4,-1.5 -1,-1.4 -3.4,0 -2.4,1.5 z"
           id="path317"
           inkscape:connector-curvature="0" /><path
           d="m 328.8,767.7 c 1,1.5 3.3,-0.1 2.3,-1.6 -1,-1.5 -3.3,0 -2.3,1.6 z"
           id="path319"
           inkscape:connector-curvature="0" /><path
           d="m 331.9,772.1 c 1.1,1.5 3.3,-0.3 2.2,-1.7 -1,-1.4 -3.2,0.2 -2.2,1.7 z"
           id="path321"
           inkscape:connector-curvature="0" /><path
           d="m 335.4,776.4 c 1.2,1.4 3.3,-0.5 2.1,-1.8 -1.1,-1.3 -3.3,0.4 -2.1,1.8 z"
           id="path323"
           inkscape:connector-curvature="0" /><path
           d="m 339,780.5 c 1.3,1.3 3.3,-0.7 2,-1.9 -1.1,-1.3 -3.2,0.6 -2,1.9 z"
           id="path325"
           inkscape:connector-curvature="0" /><path
           d="m 343,784.4 c 1.4,1.2 3.2,-0.9 1.9,-2.1 -1.3,-1.2 -3.3,0.8 -1.9,2.1 z"
           id="path327"
           inkscape:connector-curvature="0" /><path
           d="m 347,786 c -0.5,0.5 -0.6,1.4 0.2,1.9 1.4,1.1 3.1,-1.1 1.8,-2.2 -0.8,-0.4 -1.6,-0.2 -2,0.3 z"
           id="path329"
           inkscape:connector-curvature="0" /><path
           d="m 353.2,789 c -1.4,-1 -3.1,1.2 -1.6,2.3 1.5,1 3,-1.3 1.6,-2.3 z"
           id="path331"
           inkscape:connector-curvature="0" /><path
           d="m 377,800.4 c -1.7,-0.5 -2.5,2.2 -0.7,2.7 0.9,0.3 1.5,-0.3 1.7,-1 0.2,-0.7 -0.1,-1.5 -1,-1.7 z"
           id="path333"
           inkscape:connector-curvature="0" /><path
           d="m 382.3,801.5 c -1.7,-0.4 -2.3,2.4 -0.5,2.7 1.8,0.3 2.2,-2.5 0.5,-2.7 z"
           id="path335"
           inkscape:connector-curvature="0" /><path
           d="m 387.5,802.2 c -1.7,-0.2 -2.1,2.6 -0.2,2.8 1.8,0 1.9,-2.8 0.2,-2.8 z"
           id="path337"
           inkscape:connector-curvature="0" /><path
           d="m 392.8,802.3 c -0.9,0.1 -1.3,0.7 -1.3,1.4 0,0.7 0.4,1.4 1.4,1.4 1.8,-0.1 1.6,-2.9 -0.1,-2.8 z"
           id="path339"
           inkscape:connector-curvature="0" /><path
           d="m 398,801.9 c -1.7,0.2 -1.5,3 0.3,2.8 1.9,-0.3 1.5,-3 -0.3,-2.8 z"
           id="path341"
           inkscape:connector-curvature="0" /><path
           d="m 403.3,801 c -1.7,0.4 -1.2,3.1 0.6,2.7 1.8,-0.4 1.1,-3.1 -0.6,-2.7 z"
           id="path343"
           inkscape:connector-curvature="0" /><path
           d="m 409.2,802.2 c 1.3,-0.4 1.1,-2.1 0.1,-2.6 -0.6,-1.4 -3,-0.7 -2.6,0.9 0.1,0.5 0.4,0.8 0.8,0.9 0.3,0.7 0.9,1.1 1.7,0.8 z"
           id="path345"
           inkscape:connector-curvature="0" /><path
           d="m 414.4,800.2 c 0.9,-0.3 1,-1.2 0.6,-1.8 -0.3,-0.6 -1,-1 -1.8,-0.7 -1.5,0.6 -0.5,3.2 1.2,2.5 z"
           id="path347"
           inkscape:connector-curvature="0" /><path
           d="m 419.3,797.7 c 1.6,-1 0.1,-3.3 -1.4,-2.4 -1.5,0.8 -0.2,3.2 1.4,2.4 z"
           id="path349"
           inkscape:connector-curvature="0" /><path
           d="m 424,794.6 c 1.5,-1.1 -0.2,-3.3 -1.6,-2.3 -0.7,0.5 -0.7,1.3 -0.3,1.9 0.4,0.7 1.2,1 1.9,0.4 z"
           id="path351"
           inkscape:connector-curvature="0" /><path
           d="m 426.6,789.1 c -1.3,1.1 0.4,3.3 1.8,2.1 1.4,-1.1 -0.5,-3.2 -1.8,-2.1 z"
           id="path353"
           inkscape:connector-curvature="0" /><path
           d="m 432.5,787.5 c 1.3,-1.3 -0.7,-3.2 -1.9,-2 -1.3,1.3 0.6,3.3 1.9,2 z"
           id="path355"
           inkscape:connector-curvature="0" /><path
           d="m 436.3,783.6 c 1.2,-1.4 -0.9,-3.1 -2.1,-1.9 -1.2,1.3 0.9,3.2 2.1,1.9 z"
           id="path357"
           inkscape:connector-curvature="0" /><path
           d="m 439.9,779.3 c 1.1,-1.5 -1.1,-3.1 -2.2,-1.7 -1.2,1.4 1,3.2 2.2,1.7 z"
           id="path359"
           inkscape:connector-curvature="0" /><path
           d="m 440.8,773.3 c -1,1.4 1.2,3.1 2.3,1.6 1,-1.5 -1.3,-3 -2.3,-1.6 z"
           id="path361"
           inkscape:connector-curvature="0" /><path
           d="m 446.1,770.3 c 0.9,-1.6 -1.5,-3 -2.4,-1.5 -0.9,1.5 1.5,3.1 2.4,1.5 z"
           id="path363"
           inkscape:connector-curvature="0" /><path
           d="m 448.9,765.6 c 0.9,-1.6 -1.6,-2.9 -2.4,-1.4 -0.9,1.6 1.5,3 2.4,1.4 z"
           id="path365"
           inkscape:connector-curvature="0" /><path
           d="m 448.9,759.5 c -0.8,1.6 1.7,2.9 2.5,1.2 0.8,-1.6 -1.7,-2.8 -2.5,-1.2 z"
           id="path367"
           inkscape:connector-curvature="0" /><path
           d="m 453.8,755.8 c 0.7,-1.7 -1.8,-2.7 -2.5,-1.1 -0.8,1.6 1.7,2.8 2.5,1.1 z"
           id="path369"
           inkscape:connector-curvature="0" /><path
           d="m 453.3,749.7 c -0.7,1.6 1.9,2.7 2.6,1 0.7,-1.7 -1.9,-2.6 -2.6,-1 z"
           id="path371"
           inkscape:connector-curvature="0" /><path
           d="m 457.8,745.7 c 0.6,-1.7 -2,-2.6 -2.6,-0.9 -0.6,1.6 2,2.6 2.6,0.9 z"
           id="path373"
           inkscape:connector-curvature="0" /><path
           d="m 457,739.6 c -0.6,1.7 2.1,2.6 2.6,0.9 0.6,-1.7 -2.1,-2.6 -2.6,-0.9 z"
           id="path375"
           inkscape:connector-curvature="0" /><path
           d="m 458.6,734.5 c -0.5,1.7 2.1,2.5 2.7,0.8 0.5,-1.7 -2.2,-2.5 -2.7,-0.8 z"
           id="path377"
           inkscape:connector-curvature="0" /><path
           d="m 462.7,730 c 0.5,-1.7 -2.2,-2.5 -2.7,-0.7 -0.4,1.7 2.3,2.5 2.7,0.7 z"
           id="path379"
           inkscape:connector-curvature="0" /><path
           d="m 464.1,724.8 c 0.4,-1.7 -2.3,-2.4 -2.7,-0.7 -0.4,1.7 2.3,2.4 2.7,0.7 z"
           id="path381"
           inkscape:connector-curvature="0" /><path
           d="m 462.7,718.8 c -0.4,1.7 2.3,2.4 2.7,0.6 0.4,-1.7 -2.3,-2.3 -2.7,-0.6 z"
           id="path383"
           inkscape:connector-curvature="0" /><path
           d="m 470.4,692.8 c 0.3,-1.8 -2.5,-2.2 -2.8,-0.4 -0.3,1.7 2.5,2.2 2.8,0.4 z"
           id="path385"
           inkscape:connector-curvature="0" /><path
           d="m 468.4,687 c -0.3,1.8 2.5,2.2 2.8,0.4 0.3,-1.8 -2.5,-2.2 -2.8,-0.4 z"
           id="path387"
           inkscape:connector-curvature="0" /><path
           d="m 469.2,681.7 c -0.3,1.8 2.5,2.2 2.8,0.4 0.2,-1.8 -2.5,-2.2 -2.8,-0.4 z"
           id="path389"
           inkscape:connector-curvature="0" /><path
           d="m 470,676.3 c -0.2,1.8 2.5,2.2 2.8,0.4 0.2,-1.8 -2.6,-2.2 -2.8,-0.4 z"
           id="path391"
           inkscape:connector-curvature="0" /><path
           d="m 473.4,671.3 c 0.2,-1.8 -2.5,-2.1 -2.8,-0.4 -0.2,1.9 2.6,2.2 2.8,0.4 z"
           id="path393"
           inkscape:connector-curvature="0" /><path
           d="m 474.1,665.9 c 0.2,-1.8 -2.5,-2.1 -2.8,-0.3 -0.2,1.8 2.6,2.1 2.8,0.3 z"
           id="path395"
           inkscape:connector-curvature="0" /><path
           d="m 474.7,660.6 c 0.2,-1.8 -2.6,-2.1 -2.8,-0.3 -0.1,1.7 2.6,2.1 2.8,0.3 z"
           id="path397"
           inkscape:connector-curvature="0" /><path
           d="m 472.6,654.9 c -0.2,1.8 2.6,2.1 2.8,0.3 0.2,-1.8 -2.6,-2.1 -2.8,-0.3 z"
           id="path399"
           inkscape:connector-curvature="0" /><path
           d="m 473.2,649.5 c -0.2,1.8 2.6,2.1 2.8,0.3 0.1,-1.8 -2.6,-2.1 -2.8,-0.3 z"
           id="path401"
           inkscape:connector-curvature="0" /><path
           d="m 810.6,452.1 c -0.2,-1.8 -2.9,-1.5 -2.8,0.3 0.2,1.8 3,1.6 2.8,-0.3 z"
           id="path403"
           inkscape:connector-curvature="0" /><path
           d="m 808.3,457.9 c 0.2,1.8 2.9,1.6 2.8,-0.2 -0.2,-1.9 -2.9,-1.6 -2.8,0.2 z"
           id="path405"
           inkscape:connector-curvature="0" /><path
           d="m 808.7,463.3 c 0.1,1.8 2.9,1.6 2.8,-0.2 -0.1,-1.8 -2.9,-1.6 -2.8,0.2 z"
           id="path407"
           inkscape:connector-curvature="0" /><path
           d="m 809.1,468.7 c 0.1,1.8 2.9,1.6 2.8,-0.2 -0.1,-1.7 -2.9,-1.6 -2.8,0.2 z"
           id="path409"
           inkscape:connector-curvature="0" /><path
           d="m 809.4,474.1 c 0.1,1.8 2.9,1.7 2.8,-0.1 -0.1,-1.8 -2.9,-1.7 -2.8,0.1 z"
           id="path411"
           inkscape:connector-curvature="0" /><path
           d="m 809.6,479.6 c 0.1,1.8 2.8,1.7 2.8,-0.1 -0.1,-1.8 -2.9,-1.7 -2.8,0.1 z"
           id="path413"
           inkscape:connector-curvature="0" /><path
           d="m 809.8,485 c 0.1,1.8 2.8,1.7 2.8,-0.1 -0.1,-1.7 -2.9,-1.7 -2.8,0.1 z"
           id="path415"
           inkscape:connector-curvature="0" /><path
           d="m 811.6,511.1 c 2.5,-0.8 4.9,-11.1 4.9,-11.3 0,-0.3 -1.6,-11.7 -4.2,-11.8 -0.6,0 -1.1,0.5 -1.7,1.3 -0.4,0.2 -0.8,0.6 -0.8,1.2 0,0 0,0.1 0,0.1 -1.6,3.3 -2.8,8.6 -2.8,8.8 0,0.2 1.4,10.4 3.7,11.7 -0.6,0.1 -1.1,0.5 -1.2,1.3 -0.1,1.8 2.7,1.9 2.8,0.1 0.1,-0.8 -0.2,-1.2 -0.7,-1.4 z"
           id="path417"
           inkscape:connector-curvature="0" /><path
           d="m 809.4,517.7 c -0.1,1.8 2.7,2 2.8,0.1 0,-1.7 -2.7,-1.9 -2.8,-0.1 z"
           id="path419"
           inkscape:connector-curvature="0" /><path
           d="m 809.1,523.2 c -0.1,1.8 2.6,2 2.8,0.2 0.1,-1.8 -2.7,-2 -2.8,-0.2 z"
           id="path421"
           inkscape:connector-curvature="0" /><path
           d="m 808.7,528.6 c -0.1,1.8 2.6,2 2.8,0.2 0.1,-1.8 -2.7,-2 -2.8,-0.2 z"
           id="path423"
           inkscape:connector-curvature="0" /><path
           d="m 808.2,534.1 c -0.2,1.8 2.6,2.1 2.8,0.3 0.2,-1.9 -2.6,-2.1 -2.8,-0.3 z"
           id="path425"
           inkscape:connector-curvature="0" /><path
           d="m 807.7,539.4 c -0.2,1.8 2.6,2.1 2.8,0.3 0.1,-1.8 -2.6,-2 -2.8,-0.3 z"
           id="path427"
           inkscape:connector-curvature="0" /><path
           d="m 807,544.9 c -0.2,1.8 2.5,2.1 2.8,0.3 0.2,-1.8 -2.5,-2.1 -2.8,-0.3 z"
           id="path429"
           inkscape:connector-curvature="0" /><path
           d="m 806.4,550.3 c -0.3,1.8 2.5,2.2 2.8,0.4 0.2,-1.9 -2.6,-2.2 -2.8,-0.4 z"
           id="path431"
           inkscape:connector-curvature="0" /><path
           d="m 805.6,555.7 c -0.3,1.8 2.5,2.2 2.8,0.4 0.2,-1.8 -2.6,-2.2 -2.8,-0.4 z"
           id="path433"
           inkscape:connector-curvature="0" /><path
           d="m 804.7,561 c -0.3,1.8 2.4,2.3 2.7,0.5 0.4,-1.8 -2.4,-2.3 -2.7,-0.5 z"
           id="path435"
           inkscape:connector-curvature="0" /><path
           d="m 803.8,566.4 c -0.3,1.8 2.4,2.3 2.7,0.5 0.3,-1.8 -2.4,-2.3 -2.7,-0.5 z"
           id="path437"
           inkscape:connector-curvature="0" /><path
           d="m 802.7,571.7 c -0.4,1.8 2.4,2.3 2.7,0.6 0.4,-1.8 -2.3,-2.3 -2.7,-0.6 z"
           id="path439"
           inkscape:connector-curvature="0" /><path
           d="m 801.6,577.1 c -0.4,1.7 2.3,2.4 2.7,0.6 0.4,-1.8 -2.3,-2.4 -2.7,-0.6 z"
           id="path441"
           inkscape:connector-curvature="0" /><path
           d="m 800.4,582.3 c -0.4,1.7 2.3,2.4 2.7,0.6 0.4,-1.7 -2.3,-2.3 -2.7,-0.6 z"
           id="path443"
           inkscape:connector-curvature="0" /><path
           d="m 799.1,587.7 c -0.4,1.7 2.2,2.5 2.7,0.7 0.4,-1.8 -2.3,-2.5 -2.7,-0.7 z"
           id="path445"
           inkscape:connector-curvature="0" /><path
           d="m 797.7,592.9 c -0.5,1.7 2.2,2.5 2.7,0.8 0.4,-1.8 -2.3,-2.6 -2.7,-0.8 z"
           id="path447"
           inkscape:connector-curvature="0" /><path
           d="m 796.1,598.1 c -0.5,1.7 2.1,2.5 2.7,0.8 0.5,-1.7 -2.1,-2.5 -2.7,-0.8 z"
           id="path449"
           inkscape:connector-curvature="0" /><path
           d="m 794.5,603.3 c -0.6,1.7 2.1,2.6 2.6,0.9 0.6,-1.8 -2,-2.6 -2.6,-0.9 z"
           id="path451"
           inkscape:connector-curvature="0" /><path
           d="m 792.8,608.5 c -0.6,1.7 2,2.6 2.6,0.9 0.6,-1.7 -2,-2.6 -2.6,-0.9 z"
           id="path453"
           inkscape:connector-curvature="0" /><path
           d="m 790.9,613.5 c -0.6,1.7 2,2.7 2.6,1 0.7,-1.7 -1.9,-2.6 -2.6,-1 z"
           id="path455"
           inkscape:connector-curvature="0" /><path
           d="m 789,618.6 c -0.7,1.7 1.9,2.7 2.6,1 0.6,-1.6 -2,-2.6 -2.6,-1 z"
           id="path457"
           inkscape:connector-curvature="0" /><path
           d="m 786.9,623.6 c -0.7,1.6 1.9,2.8 2.6,1.1 0.7,-1.7 -1.9,-2.7 -2.6,-1.1 z"
           id="path459"
           inkscape:connector-curvature="0" /><path
           d="m 784.7,628.6 c -0.7,1.6 1.8,2.8 2.5,1.1 0.8,-1.6 -1.7,-2.7 -2.5,-1.1 z"
           id="path461"
           inkscape:connector-curvature="0" /><path
           d="m 782.5,633.5 c -0.8,1.6 1.7,2.8 2.5,1.2 0.8,-1.6 -1.8,-2.8 -2.5,-1.2 z"
           id="path463"
           inkscape:connector-curvature="0" /><path
           d="m 780,638.4 c -0.8,1.6 1.6,2.9 2.5,1.3 0.8,-1.6 -1.7,-2.9 -2.5,-1.3 z"
           id="path465"
           inkscape:connector-curvature="0" /><path
           d="m 777.5,643.2 c 0,0.1 0,0.2 -0.1,0.2 -0.1,-0.1 -0.2,-0.2 -0.3,-0.2 -1.2,-0.4 -3.5,2.4 -5.8,5 -2.2,2.7 -4.4,5.2 -4.5,5.4 -0.1,0.1 -1.4,3.3 -2.8,6.5 -1.4,3.2 -2.9,6.5 -1.9,7.4 0.2,0.2 0.5,0.2 0.9,0.2 0.5,0.7 1.6,1.1 2.3,0.1 0.3,-0.4 0.3,-0.7 0.2,-1.1 1.2,-0.6 2.5,-1.6 3.8,-2.6 3,-2.4 5.4,-5.4 5.5,-5.6 0.1,-0.1 1.7,-3.7 2.5,-7.4 0.5,-2.3 0.8,-4.6 0.6,-6.2 0.6,0.4 1.5,0.4 2,-0.4 0.9,-1.6 -1.5,-2.9 -2.4,-1.3 z"
           id="path467"
           inkscape:connector-curvature="0" /><path
           d="m 759.8,670.5 c -1.1,1.4 1.1,3.2 2.2,1.7 1.2,-1.4 -1.1,-3.1 -2.2,-1.7 z"
           id="path469"
           inkscape:connector-curvature="0" /><path
           d="m 756.5,674.8 c -1.1,1.4 1,3.2 2.2,1.8 1.1,-1.5 -1.1,-3.2 -2.2,-1.8 z"
           id="path471"
           inkscape:connector-curvature="0" /><path
           d="m 753,678.9 c -1.2,1.3 0.9,3.2 2.1,1.8 1.2,-1.3 -0.9,-3.1 -2.1,-1.8 z"
           id="path473"
           inkscape:connector-curvature="0" /><path
           d="m 749.4,683 c -1.2,1.3 0.8,3.2 2.1,1.9 1.2,-1.4 -0.9,-3.2 -2.1,-1.9 z"
           id="path475"
           inkscape:connector-curvature="0" /><path
           d="m 745.7,686.9 c -1.3,1.3 0.7,3.2 2,1.9 1.2,-1.2 -0.8,-3.2 -2,-1.9 z"
           id="path477"
           inkscape:connector-curvature="0" /><path
           d="m 741.8,690.8 c -1.3,1.2 0.6,3.3 1.9,2 1.4,-1.3 -0.6,-3.3 -1.9,-2 z"
           id="path479"
           inkscape:connector-curvature="0" /><path
           d="m 737.9,694.5 c -1.3,1.2 0.5,3.3 1.9,2.1 1.3,-1.3 -0.6,-3.3 -1.9,-2.1 z"
           id="path481"
           inkscape:connector-curvature="0" /><path
           d="m 733.8,698.1 c -1.4,1.2 0.4,3.3 1.8,2.1 1.4,-1.2 -0.4,-3.3 -1.8,-2.1 z"
           id="path483"
           inkscape:connector-curvature="0" /><path
           d="m 729.7,701.6 c -1.4,1.1 0.3,3.3 1.8,2.2 1.4,-1.2 -0.4,-3.3 -1.8,-2.2 z"
           id="path485"
           inkscape:connector-curvature="0" /><path
           d="m 725.4,705 c -1.4,1.1 0.3,3.3 1.7,2.2 1.5,-1.1 -0.3,-3.3 -1.7,-2.2 z"
           id="path487"
           inkscape:connector-curvature="0" /><path
           d="m 721.1,708.2 c -1.4,1.1 0.2,3.3 1.6,2.2 1.5,-1 -0.1,-3.2 -1.6,-2.2 z"
           id="path489"
           inkscape:connector-curvature="0" /><path
           d="m 716.7,711.4 c -1.5,1 0.1,3.3 1.6,2.3 1.5,-1.1 -0.2,-3.3 -1.6,-2.3 z"
           id="path491"
           inkscape:connector-curvature="0" /><path
           d="m 712.2,714.4 c -1.5,1 0,3.3 1.5,2.3 1.5,-1 0,-3.3 -1.5,-2.3 z"
           id="path493"
           inkscape:connector-curvature="0" /><path
           d="m 707.6,717.3 c -1.5,0.9 -0.1,3.3 1.4,2.4 1.6,-1 0.1,-3.3 -1.4,-2.4 z"
           id="path495"
           inkscape:connector-curvature="0" /><path
           d="m 702.9,720 c -1.5,0.9 -0.2,3.3 1.4,2.4 1.6,-0.9 0.2,-3.3 -1.4,-2.4 z"
           id="path497"
           inkscape:connector-curvature="0" /><path
           d="m 678.5,731.7 c -1.7,0.6 -0.7,3.2 1,2.6 1.7,-0.6 0.6,-3.2 -1,-2.6 z"
           id="path499"
           inkscape:connector-curvature="0" /><path
           d="m 673.4,733.6 c -1.7,0.6 -0.8,3.2 0.9,2.6 1.8,-0.6 0.8,-3.2 -0.9,-2.6 z"
           id="path501"
           inkscape:connector-curvature="0" /><path
           d="m 668.3,735.4 c -1.7,0.5 -0.9,3.2 0.8,2.7 1.7,-0.7 0.9,-3.3 -0.8,-2.7 z"
           id="path503"
           inkscape:connector-curvature="0" /><path
           d="m 663.1,736.9 c -1.7,0.5 -1,3.2 0.7,2.7 1.8,-0.6 1,-3.2 -0.7,-2.7 z"
           id="path505"
           inkscape:connector-curvature="0" /><path
           d="m 657.8,738.2 c -1.7,0.4 -1.1,3.2 0.7,2.7 1.7,-0.4 1.1,-3.1 -0.7,-2.7 z"
           id="path507"
           inkscape:connector-curvature="0" /><path
           d="m 652.6,739.4 c -1.7,0.4 -1.2,3.1 0.6,2.7 1.7,-0.3 1.1,-3.1 -0.6,-2.7 z"
           id="path509"
           inkscape:connector-curvature="0" /><path
           d="m 647.2,740.4 c -1.8,0.3 -1.4,3.1 0.5,2.7 1.8,-0.3 1.3,-3 -0.5,-2.7 z"
           id="path511"
           inkscape:connector-curvature="0" /><path
           d="m 641.9,741.1 c -0.8,0.1 -1.2,0.7 -1.2,1.4 -0.6,-0.7 -1.9,-0.8 -2.3,0.3 -0.7,1.6 1.8,2.7 2.6,1.1 0.1,-0.2 0.1,-0.3 0.1,-0.4 0.3,0.3 0.6,0.5 1.2,0.5 1.8,-0.3 1.4,-3.1 -0.4,-2.9 z"
           id="path513"
           inkscape:connector-curvature="0" /><path
           d="m 636.7,744.5 c 1.8,-0.1 1.5,-2.9 -0.2,-2.8 -1.8,0.1 -1.6,2.9 0.2,2.8 z"
           id="path515"
           inkscape:connector-curvature="0" /><path
           d="m 631.2,744.8 c 1.8,-0.1 1.7,-2.8 -0.1,-2.8 -1.7,0.1 -1.7,2.9 0.1,2.8 z"
           id="path517"
           inkscape:connector-curvature="0" /><path
           d="m 625.7,744.9 c 1.8,0 1.8,-2.8 0,-2.8 -1.8,0 -1.8,2.8 0,2.8 z"
           id="path519"
           inkscape:connector-curvature="0" /><path
           d="m 620.2,744.8 c 0.9,0.1 1.4,-0.6 1.4,-1.3 0,-0.7 -0.4,-1.4 -1.3,-1.5 -1.7,-0.1 -1.9,2.6 -0.1,2.8 z"
           id="path521"
           inkscape:connector-curvature="0" /><path
           d="m 614.9,741.6 c -1.8,-0.2 -2.1,2.5 -0.3,2.8 1.9,0.1 2.1,-2.7 0.3,-2.8 z"
           id="path523"
           inkscape:connector-curvature="0" /><path
           d="m 609.6,740.9 c -1.7,-0.3 -2.2,2.4 -0.4,2.8 1.8,0.2 2.2,-2.6 0.4,-2.8 z"
           id="path525"
           inkscape:connector-curvature="0" /><path
           d="m 604.3,740 c -1.7,-0.4 -2.4,2.3 -0.6,2.7 1.8,0.3 2.3,-2.4 0.6,-2.7 z"
           id="path527"
           inkscape:connector-curvature="0" /><path
           d="m 599.1,738.7 c -0.9,-0.2 -1.5,0.3 -1.7,1 -0.2,0.7 0.1,1.5 1,1.7 1.8,0.5 2.4,-2.3 0.7,-2.7 z"
           id="path529"
           inkscape:connector-curvature="0" /><path
           d="m 593.9,737.2 c -1.7,-0.5 -2.6,2.1 -0.9,2.7 1.8,0.5 2.6,-2.2 0.9,-2.7 z"
           id="path531"
           inkscape:connector-curvature="0" /><path
           d="m 588.9,735.3 c -1.6,-0.6 -2.7,1.9 -1,2.6 1.7,0.7 2.6,-1.9 1,-2.6 z"
           id="path533"
           inkscape:connector-curvature="0" /><path
           d="m 582.7,735.9 c 1.7,0.7 2.8,-1.9 1.1,-2.5 -1.6,-0.8 -2.7,1.7 -1.1,2.5 z"
           id="path535"
           inkscape:connector-curvature="0" /><path
           d="m 577.8,733.5 c 1.6,0.8 2.8,-1.7 1.3,-2.5 -1.7,-0.8 -3,1.7 -1.3,2.5 z"
           id="path537"
           inkscape:connector-curvature="0" /><path
           d="m 572.9,730.9 c 1.6,0.9 2.9,-1.5 1.4,-2.4 -1.6,-1 -3,1.4 -1.4,2.4 z"
           id="path539"
           inkscape:connector-curvature="0" /><path
           d="m 568.2,728 c 1.6,0.9 3,-1.4 1.5,-2.4 -1.6,-0.8 -3.1,1.5 -1.5,2.4 z"
           id="path541"
           inkscape:connector-curvature="0" /><path
           d="m 563.6,724.9 c 1.5,1.1 3,-1.3 1.6,-2.3 -1.5,-1 -3.1,1.3 -1.6,2.3 z"
           id="path543"
           inkscape:connector-curvature="0" /><path
           d="m 559.1,721.7 c 1.5,1.1 3.1,-1.2 1.7,-2.2 -1.4,-1.1 -3.1,1.1 -1.7,2.2 z"
           id="path545"
           inkscape:connector-curvature="0" /><path
           d="m 554.8,718.2 c 1.4,1.2 3.2,-1 1.8,-2.1 -1.4,-1.2 -3.2,1 -1.8,2.1 z"
           id="path547"
           inkscape:connector-curvature="0" /><path
           d="m 548.5,708.9 c -1.3,-1.2 -3.3,0.7 -1.9,2 1.3,1.2 3.2,-0.8 1.9,-2 z"
           id="path549"
           inkscape:connector-curvature="0" /><path
           d="m 542.7,707 c 1.3,1.3 3.2,-0.6 2,-1.9 -1.2,-1.4 -3.2,0.5 -2,1.9 z"
           id="path551"
           inkscape:connector-curvature="0" /><path
           d="m 541,701.1 c -1.2,-1.4 -3.3,0.5 -2.1,1.9 1.3,1.3 3.3,-0.6 2.1,-1.9 z"
           id="path553"
           inkscape:connector-curvature="0" /><path
           d="m 537.5,697 c -1.2,-1.4 -3.3,0.4 -2.1,1.8 1.2,1.4 3.3,-0.5 2.1,-1.8 z"
           id="path555"
           inkscape:connector-curvature="0" /><path
           d="m 534,692.8 c -1.1,-1.4 -3.3,0.3 -2.2,1.7 1.1,1.5 3.3,-0.3 2.2,-1.7 z"
           id="path557"
           inkscape:connector-curvature="0" /><path
           d="m 530.7,688.5 c -1.1,-1.4 -3.3,0.2 -2.2,1.7 1.1,1.4 3.3,-0.3 2.2,-1.7 z"
           id="path559"
           inkscape:connector-curvature="0" /><path
           d="m 527.5,684.1 c -1,-1.5 -3.3,0.1 -2.3,1.6 1.1,1.5 3.3,-0.1 2.3,-1.6 z"
           id="path561"
           inkscape:connector-curvature="0" /><path
           d="m 524.4,679.7 c -1,-1.5 -3.3,0.1 -2.3,1.6 1,1.5 3.3,-0.1 2.3,-1.6 z"
           id="path563"
           inkscape:connector-curvature="0" /><path
           d="m 521.4,675.1 c -1,-1.5 -3.3,0 -2.3,1.5 0.9,1.6 3.2,0 2.3,-1.5 z"
           id="path565"
           inkscape:connector-curvature="0" /><path
           d="m 516.1,672.1 c 1,1.5 3.3,0.1 2.4,-1.5 -1,-1.5 -3.4,-0.1 -2.4,1.5 z"
           id="path567"
           inkscape:connector-curvature="0" /><path
           d="m 515.6,665.9 c -0.9,-1.5 -3.3,-0.1 -2.4,1.4 0.9,1.6 3.3,0.1 2.4,-1.4 z"
           id="path569"
           inkscape:connector-curvature="0" /><path
           d="m 512.9,661.2 c -0.9,-1.6 -3.3,-0.2 -2.4,1.4 0.9,1.6 3.3,0.2 2.4,-1.4 z"
           id="path571"
           inkscape:connector-curvature="0" /><path
           d="m 510.2,656.5 c -0.9,-1.6 -3.3,-0.3 -2.4,1.3 0.9,1.6 3.3,0.2 2.4,-1.3 z"
           id="path573"
           inkscape:connector-curvature="0" /><path
           d="m 507.7,651.7 c -0.8,-1.6 -3.3,-0.3 -2.5,1.3 0.8,1.6 3.3,0.3 2.5,-1.3 z"
           id="path575"
           inkscape:connector-curvature="0" /><path
           d="m 505.1,646.8 c -0.8,-1.6 -3.3,-0.4 -2.5,1.3 0.9,1.6 3.4,0.3 2.5,-1.3 z"
           id="path577"
           inkscape:connector-curvature="0" /><path
           d="m 502.8,642 c -0.8,-1.6 -3.3,-0.4 -2.5,1.2 0.7,1.6 3.2,0.4 2.5,-1.2 z"
           id="path579"
           inkscape:connector-curvature="0" /><path
           d="m 500.4,637 c -0.8,-1.6 -3.3,-0.5 -2.5,1.2 0.7,1.7 3.2,0.5 2.5,-1.2 z"
           id="path581"
           inkscape:connector-curvature="0" /><path
           d="m 498.1,632.1 c -0.5,-1.1 -1.8,-0.9 -2.4,-0.2 -0.4,-1.1 -0.7,-1.9 -0.7,-1.9 0,-0.1 -1.4,-0.8 -3,-1.5 -1.6,-0.7 -3.4,-1.4 -4.6,-0.7 -1.1,0.7 -1.2,2.8 -0.8,4.7 0.4,1.9 1.2,3.7 1.3,3.8 0.1,0.1 1.7,1.1 3.6,1.7 1.9,0.6 4,0.8 4.8,-0.2 0.7,-0.9 0.5,-2.3 0.1,-3.8 1,0.3 2.3,-0.6 1.7,-1.9 z"
           id="path583"
           inkscape:connector-curvature="0" /><path
           d="m 670.7,558.4 c 0.1,1.8 2.9,1.6 2.8,-0.2 -0.1,-1.8 -2.9,-1.6 -2.8,0.2 z"
           id="path585"
           inkscape:connector-curvature="0" /><path
           d="m 671.1,563.7 c 0.1,1.8 2.9,1.7 2.8,-0.1 -0.2,-1.8 -2.9,-1.7 -2.8,0.1 z"
           id="path587"
           inkscape:connector-curvature="0" /><path
           d="m 671.3,569.1 c 0.1,1.8 2.8,1.7 2.8,-0.1 -0.1,-1.8 -2.9,-1.7 -2.8,0.1 z"
           id="path589"
           inkscape:connector-curvature="0" /><path
           d="m 671.4,574.4 c 0,1.8 2.8,1.8 2.8,0 0,-1.8 -2.8,-1.7 -2.8,0 z"
           id="path591"
           inkscape:connector-curvature="0" /><path
           d="m 671.4,579.9 c 0,1.8 2.8,1.8 2.8,0 0,-1.8 -2.8,-1.8 -2.8,0 z"
           id="path593"
           inkscape:connector-curvature="0" /><path
           d="m 671.4,585.2 c -0.1,1.8 2.7,1.9 2.8,0.1 0,-1.8 -2.8,-1.9 -2.8,-0.1 z"
           id="path595"
           inkscape:connector-curvature="0" /><path
           d="m 671.2,590.6 c 0,1.8 2.7,1.9 2.8,0.1 0.1,-1.8 -2.7,-1.9 -2.8,-0.1 z"
           id="path597"
           inkscape:connector-curvature="0" /><path
           d="m 671,596 c -0.1,1.8 2.7,1.9 2.8,0.2 0.1,-1.9 -2.7,-2 -2.8,-0.2 z"
           id="path599"
           inkscape:connector-curvature="0" /><path
           d="m 670.7,601.4 c -0.1,1.8 2.6,2 2.8,0.2 0,-1.8 -2.7,-2 -2.8,-0.2 z"
           id="path601"
           inkscape:connector-curvature="0" /><path
           d="m 669.7,633.9 c 0.3,-1.8 -2.5,-2.2 -2.8,-0.4 -0.2,1.7 2.6,2.2 2.8,0.4 z"
           id="path603"
           inkscape:connector-curvature="0" /><path
           d="m 666.1,638.8 c -0.3,1.8 2.5,2.2 2.7,0.5 0.4,-1.8 -2.4,-2.3 -2.7,-0.5 z"
           id="path605"
           inkscape:connector-curvature="0" /><path
           d="m 665.2,644.1 c -0.3,1.8 2.4,2.3 2.7,0.5 0.4,-1.8 -2.4,-2.2 -2.7,-0.5 z"
           id="path607"
           inkscape:connector-curvature="0" /><path
           d="m 664.3,649.4 c -0.3,1.7 2.4,2.3 2.7,0.5 0.3,-1.7 -2.4,-2.3 -2.7,-0.5 z"
           id="path609"
           inkscape:connector-curvature="0" /><path
           d="m 663.2,654.7 c -0.3,1.7 2.4,2.3 2.7,0.5 0.4,-1.7 -2.4,-2.2 -2.7,-0.5 z"
           id="path611"
           inkscape:connector-curvature="0" /><path
           d="m 662.1,660 c -0.4,1.7 2.3,2.3 2.7,0.6 0.4,-1.8 -2.3,-2.4 -2.7,-0.6 z"
           id="path613"
           inkscape:connector-curvature="0" /><path
           d="m 663.7,665.9 c 0.4,-1.8 -2.3,-2.3 -2.7,-0.6 -0.4,1.7 2.3,2.3 2.7,0.6 z"
           id="path615"
           inkscape:connector-curvature="0" /><path
           d="m 662.5,671.1 c 0.4,-1.7 -2.3,-2.4 -2.7,-0.6 -0.4,1.7 2.3,2.4 2.7,0.6 z"
           id="path617"
           inkscape:connector-curvature="0" /><path
           d="m 658.6,675.8 c -0.4,1.7 2.3,2.4 2.7,0.6 0.4,-1.7 -2.3,-2.3 -2.7,-0.6 z"
           id="path619"
           inkscape:connector-curvature="0" /><path
           d="m 657.3,681 c -0.4,1.7 2.3,2.4 2.7,0.7 0.4,-1.8 -2.3,-2.4 -2.7,-0.7 z"
           id="path621"
           inkscape:connector-curvature="0" /><path
           d="m 658.7,687 c 0.4,-1.7 -2.3,-2.4 -2.7,-0.7 -0.4,1.7 2.2,2.4 2.7,0.7 z"
           id="path623"
           inkscape:connector-curvature="0" /><path
           d="m 657.3,692.2 c 0.5,-1.7 -2.2,-2.4 -2.7,-0.7 -0.4,1.7 2.3,2.4 2.7,0.7 z"
           id="path625"
           inkscape:connector-curvature="0" /><path
           d="m 653.3,696.7 c -0.5,1.7 2.2,2.5 2.7,0.7 0.4,-1.7 -2.3,-2.4 -2.7,-0.7 z"
           id="path627"
           inkscape:connector-curvature="0" /><path
           d="m 651.8,701.9 c -0.5,1.7 2.2,2.5 2.7,0.7 0.5,-1.7 -2.2,-2.4 -2.7,-0.7 z"
           id="path629"
           inkscape:connector-curvature="0" /><path
           d="m 653.1,707.9 c 0.5,-1.7 -2.2,-2.5 -2.7,-0.8 -0.5,1.8 2.2,2.5 2.7,0.8 z"
           id="path631"
           inkscape:connector-curvature="0" /><path
           d="m 651.6,713.1 c 0.5,-1.6 -1.9,-2.4 -2.5,-1 -0.3,-0.6 -0.7,-1 -1.1,-1.1 -2.6,-0.5 -6.7,8.6 -6.7,8.8 0,0.1 0,2.7 0.3,5.3 l 0.1,1 0.1,0.5 c 0,0.1 0,0.4 0.1,0.4 0.1,0.1 0.1,0.1 0.2,0.1 0,0 0,0 0.1,0 l 0.3,0.1 c 0.1,0 0.1,0.1 0.2,0.1 -0.1,0 -0.1,0.1 -0.2,0.1 -0.3,0.3 -0.6,0.6 -0.7,1.2 0,0.3 0,0.8 0.5,1.3 0.5,0.6 1.4,0.6 1.6,0.6 0.9,0 1.7,-0.6 2.2,-1 0.3,-0.1 0.6,-0.4 0.7,-0.8 0,-0.1 0,-0.1 0,-0.2 0.1,-0.1 0.2,-0.3 0.2,-0.4 0.4,-0.6 0.7,-1.1 1.1,-1.7 1.4,-2.2 2.4,-4.6 2.4,-4.7 0,-0.2 0,-4.7 -0.8,-7.8 0.7,0.3 1.6,0.1 1.9,-0.8 z m -8.2,14.9 c 0,0 0,0 0,0 l 0,0 c 0,0 0,0 0,0 l 0,0 z"
           id="path633"
           inkscape:connector-curvature="0" /><path
           d="m 642.3,732.8 c -0.6,1.7 2,2.6 2.6,1 0.6,-1.7 -2,-2.7 -2.6,-1 z"
           id="path635"
           inkscape:connector-curvature="0" /><path
           d="m 643,738.9 c 0.6,-1.7 -2,-2.7 -2.6,-1 -0.6,1.6 1.9,2.7 2.6,1 z"
           id="path637"
           inkscape:connector-curvature="0" /><path
           d="m 636.2,747.7 c -0.8,1.6 1.8,2.8 2.5,1.2 0.8,-1.6 -1.7,-2.8 -2.5,-1.2 z"
           id="path639"
           inkscape:connector-curvature="0" /><path
           d="m 633.9,752.5 c -0.8,1.6 1.7,2.9 2.5,1.3 0.8,-1.6 -1.7,-2.9 -2.5,-1.3 z"
           id="path641"
           inkscape:connector-curvature="0" /><path
           d="m 631.4,757.3 c -0.9,1.5 1.6,2.9 2.4,1.4 0.9,-1.7 -1.6,-3 -2.4,-1.4 z"
           id="path643"
           inkscape:connector-curvature="0" /><path
           d="m 628.7,761.9 c -0.9,1.5 1.4,3 2.4,1.5 0.9,-1.6 -1.5,-3.1 -2.4,-1.5 z"
           id="path645"
           inkscape:connector-curvature="0" /><path
           d="m 625.8,766.4 c -1,1.5 1.3,3.1 2.3,1.6 1,-1.6 -1.3,-3.1 -2.3,-1.6 z"
           id="path647"
           inkscape:connector-curvature="0" /><path
           d="m 622.7,770.7 c -1,1.4 1.1,3.1 2.2,1.7 1.1,-1.5 -1.2,-3.1 -2.2,-1.7 z"
           id="path649"
           inkscape:connector-curvature="0" /><path
           d="m 619.4,774.9 c -1.1,1.3 0.9,3.2 2.1,1.8 1.1,-1.4 -1,-3.2 -2.1,-1.8 z"
           id="path651"
           inkscape:connector-curvature="0" /><path
           d="m 615.9,778.8 c -1.2,1.2 0.7,3.2 2,1.9 1.2,-1.3 -0.9,-3.2 -2,-1.9 z"
           id="path653"
           inkscape:connector-curvature="0" /><path
           d="m 612,782.5 c -1.3,1.2 0.5,3.3 1.9,2.1 1.4,-1.2 -0.6,-3.2 -1.9,-2.1 z"
           id="path655"
           inkscape:connector-curvature="0" /><path
           d="m 608,786 c -1.4,1.1 0.3,3.3 1.8,2.2 0.7,-0.6 0.6,-1.4 0.2,-1.9 -0.5,-0.6 -1.3,-0.8 -2,-0.3 z"
           id="path657"
           inkscape:connector-curvature="0" /><path
           d="m 603.8,789.2 c -1.4,1 0.1,3.3 1.6,2.3 1.5,-1.1 -0.2,-3.3 -1.6,-2.3 z"
           id="path659"
           inkscape:connector-curvature="0" /><path
           d="m 599.4,792.1 c -1.5,0.9 -0.1,3.3 1.5,2.4 1.5,-1 0,-3.3 -1.5,-2.4 z"
           id="path661"
           inkscape:connector-curvature="0" /><path
           d="m 594.7,794.7 c -1.5,0.8 -0.3,3.3 1.3,2.5 1.6,-0.8 0.3,-3.3 -1.3,-2.5 z"
           id="path663"
           inkscape:connector-curvature="0" /><path
           d="m 590,797 c -1.6,0.7 -0.6,3.3 1.1,2.6 1.7,-0.8 0.5,-3.3 -1.1,-2.6 z"
           id="path665"
           inkscape:connector-curvature="0" /><path
           d="m 564.3,802.4 c -1.7,-0.1 -1.9,2.7 0,2.8 0.9,0.1 1.4,-0.7 1.4,-1.4 -0.1,-0.7 -0.5,-1.3 -1.4,-1.4 z"
           id="path667"
           inkscape:connector-curvature="0" /><path
           d="m 559.1,802 c -1.7,-0.2 -2.2,2.5 -0.3,2.8 1.8,0.3 2,-2.5 0.3,-2.8 z"
           id="path669"
           inkscape:connector-curvature="0" /><path
           d="m 553.9,801.1 c -1.7,-0.4 -2.4,2.3 -0.6,2.7 1.8,0.5 2.3,-2.3 0.6,-2.7 z"
           id="path671"
           inkscape:connector-curvature="0" /><path
           d="m 548.9,799.7 c -1.6,-0.5 -2.6,2.1 -0.9,2.6 1.8,0.6 2.6,-2 0.9,-2.6 z"
           id="path673"
           inkscape:connector-curvature="0" /><path
           d="m 544,797.8 c -0.8,-0.3 -1.5,0.1 -1.8,0.7 -0.3,0.6 -0.2,1.5 0.6,1.8 1.8,0.8 2.8,-1.8 1.2,-2.5 z"
           id="path675"
           inkscape:connector-curvature="0" /><path
           d="m 535.2,794.4 c 0.4,-0.6 0.4,-1.4 -0.3,-1.9 -1.4,-1 -3.1,1.2 -1.6,2.3 0.7,0.6 1.5,0.2 1.9,-0.4 z"
           id="path677"
           inkscape:connector-curvature="0" /><path
           d="m 530.8,789.3 c -1.3,-1.1 -3.2,0.9 -1.8,2.1 1.4,1.3 3.1,-0.9 1.8,-2.1 z"
           id="path679"
           inkscape:connector-curvature="0" /><path
           d="m 526.8,785.8 c -1.2,-1.2 -3.3,0.7 -1.9,2 1.3,1.2 3.2,-0.8 1.9,-2 z"
           id="path681"
           inkscape:connector-curvature="0" /><path
           d="m 523.2,782 c -1.2,-1.3 -3.3,0.5 -2.1,1.9 1.2,1.3 3.3,-0.7 2.1,-1.9 z"
           id="path683"
           inkscape:connector-curvature="0" /><path
           d="m 519.7,777.9 c -1.1,-1.4 -3.3,0.3 -2.2,1.7 1.2,1.4 3.4,-0.4 2.2,-1.7 z"
           id="path685"
           inkscape:connector-curvature="0" /><path
           d="m 516.6,773.6 c -1,-1.5 -3.3,0.1 -2.3,1.6 1.1,1.5 3.3,-0.2 2.3,-1.6 z"
           id="path687"
           inkscape:connector-curvature="0" /><path
           d="m 513.7,769.1 c -0.9,-1.5 -3.3,-0.1 -2.4,1.5 1,1.5 3.3,0 2.4,-1.5 z"
           id="path689"
           inkscape:connector-curvature="0" /><path
           d="m 511,764.5 c -0.8,-1.5 -3.3,-0.2 -2.4,1.4 0.8,1.6 3.2,0.2 2.4,-1.4 z"
           id="path691"
           inkscape:connector-curvature="0" /><path
           d="m 508.5,759.8 c -0.8,-1.6 -3.3,-0.4 -2.5,1.2 0.8,1.6 3.3,0.4 2.5,-1.2 z"
           id="path693"
           inkscape:connector-curvature="0" /><path
           d="m 503.7,756.1 c 0.7,1.6 3.3,0.5 2.5,-1.1 -0.7,-1.6 -3.3,-0.5 -2.5,1.1 z"
           id="path695"
           inkscape:connector-curvature="0" /><path
           d="m 504.1,750 c -0.6,-1.6 -3.3,-0.7 -2.6,1 0.7,1.7 3.3,0.7 2.6,-1 z"
           id="path697"
           inkscape:connector-curvature="0" /><path
           d="m 499.6,746 c 0.6,1.7 3.2,0.7 2.6,-0.9 -0.5,-1.7 -3.2,-0.8 -2.6,0.9 z"
           id="path699"
           inkscape:connector-curvature="0" /><path
           d="m 500.5,739.9 c -0.6,-1.7 -3.2,-0.8 -2.6,0.9 0.5,1.7 3.2,0.8 2.6,-0.9 z"
           id="path701"
           inkscape:connector-curvature="0" /><path
           d="m 498.9,734.9 c -0.5,-1.7 -3.2,-0.9 -2.7,0.8 0.6,1.7 3.2,0.8 2.7,-0.8 z"
           id="path703"
           inkscape:connector-curvature="0" /><path
           d="m 494.7,730.4 c 0.5,1.7 3.2,1 2.7,-0.7 -0.4,-1.7 -3.1,-1 -2.7,0.7 z"
           id="path705"
           inkscape:connector-curvature="0" /><path
           d="m 496.1,724.5 c -0.4,-1.7 -3.1,-1.1 -2.7,0.7 0.4,1.7 3.1,1 2.7,-0.7 z"
           id="path707"
           inkscape:connector-curvature="0" /><path
           d="m 494.8,719.2 c -0.4,-1.7 -3.1,-1.1 -2.7,0.6 0.4,1.8 3.1,1.2 2.7,-0.6 z"
           id="path709"
           inkscape:connector-curvature="0" /><path
           d="m 493.7,714 c -0.4,-1.7 -3.1,-1.2 -2.7,0.6 0.3,1.7 3,1.1 2.7,-0.6 z"
           id="path711"
           inkscape:connector-curvature="0" /><path
           d="m 492.6,708.7 c -0.3,-1.7 -3.1,-1.2 -2.7,0.5 0.3,1.8 3,1.2 2.7,-0.5 z"
           id="path713"
           inkscape:connector-curvature="0" /><path
           d="m 491.6,703.4 c -0.3,-1.7 -3.1,-1.3 -2.7,0.5 0.3,1.8 3,1.3 2.7,-0.5 z"
           id="path715"
           inkscape:connector-curvature="0" /><path
           d="m 490.7,698.1 c -0.3,-1.8 -3,-1.3 -2.7,0.5 0.3,1.7 3,1.2 2.7,-0.5 z"
           id="path717"
           inkscape:connector-curvature="0" /><path
           d="m 489.9,692.8 c -0.3,-1.8 -3,-1.3 -2.8,0.4 0.3,1.8 3,1.3 2.8,-0.4 z"
           id="path719"
           inkscape:connector-curvature="0" /><path
           d="m 489,687.4 c -0.3,-1.8 -3,-1.4 -2.8,0.4 0.3,1.8 3.1,1.4 2.8,-0.4 z"
           id="path721"
           inkscape:connector-curvature="0" /><path
           d="m 488.3,682.1 c -0.2,-1.8 -3,-1.4 -2.8,0.4 0.3,1.8 3,1.4 2.8,-0.4 z"
           id="path723"
           inkscape:connector-curvature="0" /><path
           d="m 487.5,676.7 c -0.2,-1.8 -3,-1.4 -2.8,0.4 0.3,1.8 3.1,1.4 2.8,-0.4 z"
           id="path725"
           inkscape:connector-curvature="0" /><path
           d="m 486.8,671.4 c -0.2,-1.8 -3,-1.4 -2.8,0.4 0.3,1.7 3.1,1.4 2.8,-0.4 z"
           id="path727"
           inkscape:connector-curvature="0" /><path
           d="m 486.1,666 c -0.2,-1.8 -3,-1.4 -2.8,0.3 0.3,1.8 3.1,1.5 2.8,-0.3 z"
           id="path729"
           inkscape:connector-curvature="0" /><path
           d="m 485.5,660.7 c -0.2,-1.8 -3,-1.5 -2.8,0.3 0.2,1.8 3,1.5 2.8,-0.3 z"
           id="path731"
           inkscape:connector-curvature="0" /><path
           d="m 484.9,655.3 c -0.2,-1.8 -3,-1.5 -2.8,0.3 0.2,1.8 3,1.5 2.8,-0.3 z"
           id="path733"
           inkscape:connector-curvature="0" /><path
           d="m 484.3,649.9 c -0.2,-1.8 -3,-1.5 -2.8,0.3 0.2,1.8 3,1.5 2.8,-0.3 z"
           id="path735"
           inkscape:connector-curvature="0" /><path
           d="m 483.7,644.5 c -0.1,-1.1 -1.2,-1.4 -2,-1.1 1,-2 1.6,-4.2 1.6,-4.3 0,-0.2 -2.1,-7.5 -4.7,-7.5 -2.6,0 -4.7,7.3 -4.7,7.5 0,0.1 0.5,1.9 1.4,3.7 -0.7,0 -1.4,0.3 -1.5,1.2 -0.2,1.5 1.9,2 2.6,0.9 0.7,1 1.4,1.7 2.3,1.7 0.9,0 1.7,-0.8 2.4,-1.9 0,0 0,0 0,0 0,1.9 2.8,1.6 2.6,-0.2 z"
           id="path737"
           inkscape:connector-curvature="0" /><path
           d="m 386.7,591.1 c -0.1,1.8 2.7,1.9 2.8,0.1 0.1,-1.8 -2.7,-1.9 -2.8,-0.1 z"
           id="path739"
           inkscape:connector-curvature="0" /><path
           d="m 389.3,596.6 c 0.1,-1.8 -2.7,-1.9 -2.8,-0.1 -0.1,1.8 2.7,1.9 2.8,0.1 z"
           id="path741"
           inkscape:connector-curvature="0" /><path
           d="m 389.1,602 c 0.1,-1.8 -2.7,-1.9 -2.8,-0.1 -0.1,1.8 2.7,1.9 2.8,0.1 z"
           id="path743"
           inkscape:connector-curvature="0" /><path
           d="m 388.9,607.4 c 0.1,-1.8 -2.7,-1.9 -2.8,-0.1 -0.1,1.8 2.7,1.9 2.8,0.1 z"
           id="path745"
           inkscape:connector-curvature="0" /><path
           d="m 388.7,612.8 c 0,-1.8 -2.8,-1.9 -2.8,-0.1 0,1.8 2.8,1.9 2.8,0.1 z"
           id="path747"
           inkscape:connector-curvature="0" /><path
           d="m 388.7,618.2 c 0,-1.8 -2.8,-1.8 -2.8,0 -0.1,1.8 2.7,1.8 2.8,0 z"
           id="path749"
           inkscape:connector-curvature="0" /><path
           d="m 388.6,623.6 c 0,-1.8 -2.8,-1.8 -2.8,0 0,1.7 2.8,1.8 2.8,0 z"
           id="path751"
           inkscape:connector-curvature="0" /><path
           d="m 388.6,629 c 0,-1.8 -2.8,-1.8 -2.8,0 0,1.8 2.8,1.8 2.8,0 z"
           id="path753"
           inkscape:connector-curvature="0" /><path
           d="m 388.6,634.4 c 0,-1.8 -2.8,-1.8 -2.8,0 0,1.8 2.8,1.7 2.8,0 z"
           id="path755"
           inkscape:connector-curvature="0" /><path
           d="m 388.6,639.8 c 0,-1.8 -2.8,-1.8 -2.8,0 0.1,1.8 2.9,1.8 2.8,0 z"
           id="path757"
           inkscape:connector-curvature="0" /><path
           d="m 388.8,645.2 c 0,-1.8 -2.8,-1.7 -2.8,0.1 0,1.7 2.8,1.6 2.8,-0.1 z"
           id="path759"
           inkscape:connector-curvature="0" /><path
           d="m 388.9,650.6 c 0,-1.8 -2.8,-1.7 -2.8,0.1 0,1.8 2.8,1.7 2.8,-0.1 z"
           id="path761"
           inkscape:connector-curvature="0" /><path
           d="m 389.1,655.9 c -0.1,-1.8 -2.9,-1.7 -2.8,0.1 0.1,1.8 2.9,1.7 2.8,-0.1 z"
           id="path763"
           inkscape:connector-curvature="0" /><path
           d="m 389.3,661.4 c -0.1,-1.8 -2.9,-1.7 -2.8,0.1 0.1,1.8 2.9,1.6 2.8,-0.1 z"
           id="path765"
           inkscape:connector-curvature="0" /><path
           d="m 386.8,666.9 c 0.1,1.8 2.9,1.6 2.8,-0.1 -0.2,-1.9 -2.9,-1.7 -2.8,0.1 z"
           id="path767"
           inkscape:connector-curvature="0" /><path
           d="m 387.1,672.3 c 0.1,1.8 2.9,1.6 2.8,-0.2 -0.1,-1.7 -2.9,-1.6 -2.8,0.2 z"
           id="path769"
           inkscape:connector-curvature="0" /><path
           d="m 387.4,677.7 c 0.1,1.8 2.9,1.6 2.8,-0.2 -0.1,-1.8 -2.9,-1.6 -2.8,0.2 z"
           id="path771"
           inkscape:connector-curvature="0" /><path
           d="m 392.5,704.4 c -0.2,-1.8 -2.9,-1.5 -2.8,0.3 0.2,1.8 3,1.5 2.8,-0.3 z"
           id="path773"
           inkscape:connector-curvature="0" /><path
           d="m 393.1,709.7 c -0.2,-1.8 -3,-1.5 -2.8,0.3 0.2,1.8 3,1.5 2.8,-0.3 z"
           id="path775"
           inkscape:connector-curvature="0" /><path
           d="m 393.7,715.1 c -0.2,-1.8 -3,-1.4 -2.8,0.3 0.3,1.8 3.1,1.5 2.8,-0.3 z"
           id="path777"
           inkscape:connector-curvature="0" /><path
           d="m 394.4,720.4 c -0.2,-1.8 -3,-1.4 -2.8,0.4 0.2,1.8 3,1.4 2.8,-0.4 z"
           id="path779"
           inkscape:connector-curvature="0" /><path
           d="m 392.4,726.2 c 0.2,1.8 3,1.4 2.8,-0.4 -0.1,-0.8 -0.7,-1.1 -1.3,-1.1 1.4,-1.1 -0.2,-3.2 -1.7,-2.2 -1.1,0.8 -0.4,2.4 0.6,2.5 -0.3,0.3 -0.5,0.7 -0.4,1.2 z"
           id="path781"
           inkscape:connector-curvature="0" /><path
           d="m 395.9,731.1 c -0.2,-1.8 -3,-1.4 -2.8,0.4 0.3,1.8 3,1.4 2.8,-0.4 z"
           id="path783"
           inkscape:connector-curvature="0" /><path
           d="m 396.7,736.5 c -0.3,-1.8 -3,-1.3 -2.8,0.4 0.3,1.8 3,1.4 2.8,-0.4 z"
           id="path785"
           inkscape:connector-curvature="0" /><path
           d="m 397.5,741.8 c -0.3,-1.8 -3,-1.3 -2.8,0.4 0.3,1.8 3.1,1.4 2.8,-0.4 z"
           id="path787"
           inkscape:connector-curvature="0" /><path
           d="m 398.4,747.1 c -0.3,-1.8 -3,-1.3 -2.7,0.5 0.2,1.8 3,1.3 2.7,-0.5 z"
           id="path789"
           inkscape:connector-curvature="0" /><path
           d="m 399.3,752.4 c -0.3,-1.8 -3.1,-1.3 -2.7,0.5 0.3,1.8 3,1.3 2.7,-0.5 z"
           id="path791"
           inkscape:connector-curvature="0" /><path
           d="m 400.3,757.8 c -0.3,-1.8 -3.1,-1.3 -2.7,0.5 0.2,1.7 3,1.2 2.7,-0.5 z"
           id="path793"
           inkscape:connector-curvature="0" /><path
           d="m 401.2,763 c -0.3,-1.7 -3.1,-1.2 -2.7,0.5 0.4,1.8 3.1,1.3 2.7,-0.5 z"
           id="path795"
           inkscape:connector-curvature="0" /><path
           d="m 402.3,768.4 c -0.4,-1.7 -3.1,-1.2 -2.7,0.6 0.3,1.7 3.1,1.1 2.7,-0.6 z"
           id="path797"
           inkscape:connector-curvature="0" /><path
           d="m 403.4,773.6 c -0.4,-1.7 -3.1,-1.2 -2.7,0.6 0.3,1.7 3,1.2 2.7,-0.6 z"
           id="path799"
           inkscape:connector-curvature="0" /><path
           d="m 404.5,778.9 c -0.4,-1.7 -3.1,-1.2 -2.7,0.6 0.4,1.8 3.1,1.2 2.7,-0.6 z"
           id="path801"
           inkscape:connector-curvature="0" /><path
           d="m 403,784.8 c 0.4,1.7 3.1,1.1 2.7,-0.6 -0.4,-1.8 -3.1,-1.2 -2.7,0.6 z"
           id="path803"
           inkscape:connector-curvature="0" /><path
           d="m 406.9,789.5 c -0.4,-1.7 -3.1,-1.1 -2.7,0.6 0.4,1.7 3.1,1.1 2.7,-0.6 z"
           id="path805"
           inkscape:connector-curvature="0" /><path
           d="m 408.2,794.7 c -0.4,-1.7 -3.1,-1.1 -2.7,0.7 0.4,1.7 3.1,1 2.7,-0.7 z"
           id="path807"
           inkscape:connector-curvature="0" /><path
           d="m 410.8,805.1 c -0.4,-1.7 -3.1,-1 -2.7,0.7 0.4,1.8 3.1,1.1 2.7,-0.7 z"
           id="path809"
           inkscape:connector-curvature="0" /><path
           d="m 412.2,810.4 c -0.5,-1.7 -3.2,-1 -2.7,0.7 0.4,1.7 3.1,1 2.7,-0.7 z"
           id="path811"
           inkscape:connector-curvature="0" /><path
           d="m 413.6,815.5 c -0.5,-1.7 -3.2,-1 -2.7,0.8 0.5,1.7 3.2,0.9 2.7,-0.8 z"
           id="path813"
           inkscape:connector-curvature="0" /><path
           d="m 415.1,820.7 c -0.5,-1.7 -3.2,-0.9 -2.7,0.8 0.6,1.8 3.3,0.9 2.7,-0.8 z"
           id="path815"
           inkscape:connector-curvature="0" /><path
           d="m 416.8,825.8 c -0.6,-1.7 -3.2,-0.8 -2.6,0.9 0.5,1.7 3.1,0.8 2.6,-0.9 z"
           id="path817"
           inkscape:connector-curvature="0" /><path
           d="m 418.5,830.9 c -0.6,-1.7 -3.2,-0.8 -2.6,0.9 0.6,1.8 3.2,0.8 2.6,-0.9 z"
           id="path819"
           inkscape:connector-curvature="0" /><path
           d="m 420.4,835.9 c -0.6,-1.6 -3.3,-0.7 -2.6,1 0.7,1.7 3.2,0.7 2.6,-1 z"
           id="path821"
           inkscape:connector-curvature="0" /><path
           d="m 422.4,840.9 c -0.7,-1.6 -3.3,-0.6 -2.6,1.1 0.8,1.7 3.3,0.5 2.6,-1.1 z"
           id="path823"
           inkscape:connector-curvature="0" /><path
           d="m 424.6,845.8 c -0.8,-1.6 -3.3,-0.4 -2.5,1.2 0.8,1.6 3.3,0.4 2.5,-1.2 z"
           id="path825"
           inkscape:connector-curvature="0" /><path
           d="m 440.2,874.3 c 1.2,1.3 3.2,-0.6 2,-1.9 -1.2,-1.3 -3.3,0.6 -2,1.9 z"
           id="path827"
           inkscape:connector-curvature="0" /><path
           d="m 444.1,878.2 c 1.4,1.2 3.2,-0.9 1.9,-2 -1.3,-1.2 -3.2,0.8 -1.9,2 z"
           id="path829"
           inkscape:connector-curvature="0" /><path
           d="m 450,879.6 c -1.4,-1.1 -3.2,1 -1.7,2.2 1.4,1.1 3.1,-1.1 1.7,-2.2 z"
           id="path831"
           inkscape:connector-curvature="0" /><path
           d="m 454.3,882.7 c -1.4,-1 -3,1.3 -1.5,2.3 1.6,1.1 3,-1.3 1.5,-2.3 z"
           id="path833"
           inkscape:connector-curvature="0" /><path
           d="m 458.9,885.4 c -1.5,-0.8 -3,1.6 -1.3,2.5 1.6,0.8 2.8,-1.7 1.3,-2.5 z"
           id="path835"
           inkscape:connector-curvature="0" /><path
           d="m 463.7,887.7 c -1.6,-0.7 -2.8,1.8 -1.1,2.6 1.7,0.7 2.7,-1.9 1.1,-2.6 z"
           id="path837"
           inkscape:connector-curvature="0" /><path
           d="m 468.6,889.5 c -1.6,-0.5 -2.6,2.1 -0.8,2.7 1.8,0.5 2.4,-2.2 0.8,-2.7 z"
           id="path839"
           inkscape:connector-curvature="0" /><path
           d="m 473.7,890.7 c -1.7,-0.3 -2.3,2.4 -0.5,2.7 1.9,0.4 2.2,-2.4 0.5,-2.7 z"
           id="path841"
           inkscape:connector-curvature="0" /><path
           d="m 478.9,891.4 c -1.7,-0.1 -2,2.6 -0.2,2.8 1.9,0 1.9,-2.8 0.2,-2.8 z"
           id="path843"
           inkscape:connector-curvature="0" /><path
           d="m 484.2,891.3 c -1.7,0.1 -1.6,2.9 0.2,2.8 0.9,-0.1 1.3,-0.8 1.2,-1.5 -0.1,-0.8 -0.6,-1.4 -1.4,-1.3 z"
           id="path845"
           inkscape:connector-curvature="0" /><path
           d="m 489.3,890.4 c -1.7,0.4 -1.2,3.1 0.6,2.7 0.9,-0.2 1.2,-1 1,-1.7 -0.2,-0.6 -0.8,-1.1 -1.6,-1 z"
           id="path847"
           inkscape:connector-curvature="0" /><path
           d="m 494.3,888.9 c -1.6,0.6 -0.7,3.3 1,2.6 1.8,-0.7 0.6,-3.2 -1,-2.6 z"
           id="path849"
           inkscape:connector-curvature="0" /><path
           d="m 499,886.7 c -1.5,0.8 -0.3,3.3 1.3,2.5 1.7,-1 0.3,-3.3 -1.3,-2.5 z"
           id="path851"
           inkscape:connector-curvature="0" /><path
           d="m 503.5,883.9 c -0.7,0.5 -0.7,1.3 -0.3,1.9 0.4,0.6 1.2,0.9 1.9,0.4 1.6,-1.1 -0.2,-3.3 -1.6,-2.3 z"
           id="path853"
           inkscape:connector-curvature="0" /><path
           d="m 507.7,880.7 c -1.3,1.1 0.4,3.3 1.8,2.1 1.4,-1.3 -0.5,-3.3 -1.8,-2.1 z"
           id="path855"
           inkscape:connector-curvature="0" /><path
           d="m 511.5,877 c -1.2,1.2 0.7,3.2 2,1.9 1.3,-1.4 -0.8,-3.2 -2,-1.9 z"
           id="path857"
           inkscape:connector-curvature="0" /><path
           d="m 514.9,873 c -1.1,1.3 1,3.1 2.2,1.7 1.1,-1.5 -1.1,-3.1 -2.2,-1.7 z"
           id="path859"
           inkscape:connector-curvature="0" /><path
           d="m 518,868.7 c -1,1.4 1.3,3.1 2.3,1.5 1,-1.6 -1.4,-3 -2.3,-1.5 z"
           id="path861"
           inkscape:connector-curvature="0" /><path
           d="m 520.7,864.1 c -0.8,1.5 1.6,2.9 2.5,1.3 0.8,-1.6 -1.7,-2.8 -2.5,-1.3 z"
           id="path863"
           inkscape:connector-curvature="0" /><path
           d="m 523,859.3 c -0.7,1.6 1.8,2.8 2.5,1.1 0.8,-1.6 -1.8,-2.7 -2.5,-1.1 z"
           id="path865"
           inkscape:connector-curvature="0" /><path
           d="m 525,854.4 c -0.6,1.6 2,2.7 2.6,1 0.7,-1.7 -2,-2.6 -2.6,-1 z"
           id="path867"
           inkscape:connector-curvature="0" /><path
           d="m 533.2,823.2 c -0.4,1.7 2.3,2.4 2.7,0.6 0.4,-1.7 -2.3,-2.3 -2.7,-0.6 z"
           id="path869"
           inkscape:connector-curvature="0" /><path
           d="m 534.4,817.9 c -0.4,1.7 2.3,2.3 2.7,0.6 0.4,-1.7 -2.3,-2.3 -2.7,-0.6 z"
           id="path871"
           inkscape:connector-curvature="0" /><path
           d="m 535.6,812.7 c -0.4,1.7 2.3,2.3 2.7,0.6 0.3,-1.8 -2.4,-2.3 -2.7,-0.6 z"
           id="path873"
           inkscape:connector-curvature="0" /><path
           d="m 536.6,807.4 c -0.4,1.7 2.4,2.3 2.7,0.6 0.4,-1.8 -2.3,-2.4 -2.7,-0.6 z"
           id="path875"
           inkscape:connector-curvature="0" /><path
           d="m 537.7,802.1 c -0.4,1.7 2.4,2.3 2.7,0.5 0.4,-1.7 -2.4,-2.2 -2.7,-0.5 z"
           id="path877"
           inkscape:connector-curvature="0" /><path
           d="m 539.8,795.7 c -0.1,-0.1 -0.2,-0.2 -0.4,-0.3 -1.5,-0.9 -3,1.4 -1.4,2.4 0.4,0.2 0.8,0.2 1.1,0.1 0.7,0.7 2.2,0.7 2.4,-0.6 0.2,-1.1 -0.9,-1.7 -1.7,-1.6 z"
           id="path879"
           inkscape:connector-curvature="0" /><path
           d="m 542.4,792 c 0.3,-1.8 -2.4,-2.3 -2.7,-0.5 -0.3,1.8 2.4,2.3 2.7,0.5 z"
           id="path881"
           inkscape:connector-curvature="0" /><path
           d="m 543.4,786.7 c 0.3,-1.8 -2.4,-2.2 -2.7,-0.5 -0.3,1.7 2.4,2.2 2.7,0.5 z"
           id="path883"
           inkscape:connector-curvature="0" /><path
           d="m 544.4,781.4 c 0.3,-1.8 -2.4,-2.2 -2.7,-0.5 -0.4,1.7 2.4,2.2 2.7,0.5 z"
           id="path885"
           inkscape:connector-curvature="0" /><path
           d="m 542.5,775.5 c -0.3,1.8 2.5,2.2 2.7,0.5 0.4,-1.8 -2.4,-2.2 -2.7,-0.5 z"
           id="path887"
           inkscape:connector-curvature="0" /><path
           d="m 543.4,770.2 c -0.3,1.8 2.5,2.2 2.8,0.4 0.2,-1.7 -2.5,-2.1 -2.8,-0.4 z"
           id="path889"
           inkscape:connector-curvature="0" /><path
           d="m 544.2,764.9 c -0.3,1.8 2.5,2.2 2.8,0.4 0.3,-1.8 -2.5,-2.2 -2.8,-0.4 z"
           id="path891"
           inkscape:connector-curvature="0" /><path
           d="m 545.1,759.6 c -0.3,1.8 2.5,2.2 2.8,0.4 0.2,-1.8 -2.6,-2.2 -2.8,-0.4 z"
           id="path893"
           inkscape:connector-curvature="0" /><path
           d="m 548.6,754.6 c 0.3,-1.8 -2.5,-2.2 -2.8,-0.4 -0.2,1.8 2.6,2.2 2.8,0.4 z"
           id="path895"
           inkscape:connector-curvature="0" /><path
           d="m 549.5,727.5 c -0.2,1.8 2.5,2.1 2.8,0.3 0.2,-1.7 -2.6,-2.1 -2.8,-0.3 z"
           id="path897"
           inkscape:connector-curvature="0" /><path
           d="m 550.2,722.1 c -0.2,1.8 2.5,2.1 2.8,0.3 0.1,-1.7 -2.6,-2.1 -2.8,-0.3 z"
           id="path899"
           inkscape:connector-curvature="0" /><path
           d="m 553.6,717.1 c 0.2,-1.8 -2.5,-2.1 -2.8,-0.3 -0.2,1.7 2.6,2.1 2.8,0.3 z"
           id="path901"
           inkscape:connector-curvature="0" /><path
           d="m 551.4,711.4 c 0,0.3 0.1,0.6 0.2,0.9 -1.1,0 -2.1,1.4 -1,2.4 1.2,1.2 2.9,-0.6 2.1,-1.8 0.7,0.1 1.4,-0.3 1.5,-1.2 0.2,-1.8 -2.6,-2.1 -2.8,-0.3 z"
           id="path903"
           inkscape:connector-curvature="0" /><path
           d="m 554.8,706.4 c 0.2,-1.8 -2.6,-2.1 -2.8,-0.3 -0.1,1.7 2.6,2 2.8,0.3 z"
           id="path905"
           inkscape:connector-curvature="0" /><path
           d="m 555.4,700.9 c 0.2,-1.8 -2.6,-2.1 -2.8,-0.3 -0.1,1.8 2.6,2.1 2.8,0.3 z"
           id="path907"
           inkscape:connector-curvature="0" /><path
           d="m 556,695.6 c 0.2,-1.8 -2.6,-2.1 -2.8,-0.3 -0.1,1.8 2.6,2.1 2.8,0.3 z"
           id="path909"
           inkscape:connector-curvature="0" /><path
           d="m 556.6,690.2 c 0.2,-1.8 -2.6,-2.1 -2.8,-0.3 -0.2,1.8 2.6,2.1 2.8,0.3 z"
           id="path911"
           inkscape:connector-curvature="0" /><path
           d="m 554.4,684.6 c -0.2,1.8 2.6,2.1 2.8,0.3 0.2,-1.8 -2.6,-2.1 -2.8,-0.3 z"
           id="path913"
           inkscape:connector-curvature="0" /><path
           d="m 555,679.2 c -0.2,1.8 2.6,2.1 2.8,0.3 0.1,-1.8 -2.7,-2.1 -2.8,-0.3 z"
           id="path915"
           inkscape:connector-curvature="0" /><path
           d="m 555.5,673.8 c -0.2,1.8 2.6,2.1 2.8,0.3 0.2,-1.8 -2.6,-2.1 -2.8,-0.3 z"
           id="path917"
           inkscape:connector-curvature="0" /><path
           d="m 558.8,668.7 c 0.2,-1.8 -2.6,-2.1 -2.8,-0.3 -0.1,1.8 2.7,2.1 2.8,0.3 z"
           id="path919"
           inkscape:connector-curvature="0" /><path
           d="m 556.6,663.1 c -0.2,1.8 2.6,2.1 2.8,0.3 0.1,-1.8 -2.6,-2.1 -2.8,-0.3 z"
           id="path921"
           inkscape:connector-curvature="0" /><path
           d="m 559.9,657.9 c 0.2,-1.8 -2.6,-2.1 -2.8,-0.3 -0.1,1.8 2.6,2.1 2.8,0.3 z"
           id="path923"
           inkscape:connector-curvature="0" /><path
           d="m 560.4,652.6 c 0.2,-1.8 -2.6,-2 -2.8,-0.3 -0.1,1.8 2.6,2.1 2.8,0.3 z"
           id="path925"
           inkscape:connector-curvature="0" /><path
           d="m 560.9,647.2 c 0.2,-1.8 -2.6,-2 -2.8,-0.3 -0.1,1.8 2.7,2 2.8,0.3 z"
           id="path927"
           inkscape:connector-curvature="0" /><path
           d="m 561.3,614.6 c -0.2,1.8 2.6,2 2.8,0.3 0.1,-1.8 -2.6,-2.1 -2.8,-0.3 z"
           id="path929"
           inkscape:connector-curvature="0" /><path
           d="m 561.8,609.3 c -0.2,1.8 2.6,2.1 2.8,0.3 0.2,-1.8 -2.6,-2.1 -2.8,-0.3 z"
           id="path931"
           inkscape:connector-curvature="0" /><path
           d="m 565.1,604.1 c 0.2,-1.8 -2.6,-2.1 -2.8,-0.3 -0.1,1.8 2.7,2.1 2.8,0.3 z"
           id="path933"
           inkscape:connector-curvature="0" /><path
           d="m 562.9,598.5 c -0.2,1.8 2.6,2.1 2.8,0.3 0.1,-1.8 -2.6,-2.1 -2.8,-0.3 z"
           id="path935"
           inkscape:connector-curvature="0" /><path
           d="m 566.2,593.4 c 0.2,-1.8 -2.6,-2.1 -2.8,-0.3 -0.1,1.8 2.6,2.1 2.8,0.3 z"
           id="path937"
           inkscape:connector-curvature="0" /><path
           d="m 289.2,617.3 c 0.2,-3.3 0.4,-6.5 0.3,-6.7 0,-0.1 -0.9,-3.2 -1.8,-6.4 -0.9,-3.2 -1.9,-6.5 -3.2,-6.6 -1.3,-0.1 -2.7,3.2 -3.5,6.7 -0.8,3.5 -0.9,7.2 -0.9,7.4 0,0.2 1,3.7 2.5,7 1.5,3.3 3.7,6.2 4.9,5.8 1.3,-0.5 1.5,-3.9 1.7,-7.2 z"
           id="path939"
           inkscape:connector-curvature="0" /><path
           d="m 368.7,795.2 c -2.1,-1.5 -4.2,-2.9 -4.3,-3 -0.1,0 -2.6,-0.5 -5.1,-0.8 -2.6,-0.4 -5.3,-0.7 -6.1,0.4 -0.7,1.1 0.9,3.6 3,5.6 2.1,2.1 4.6,3.6 4.7,3.7 0.1,0 3,0.6 5.9,0.6 1.4,0 2.8,-0.2 3.8,-0.5 0.1,0.1 0.3,0.2 0.5,0.3 1.3,0.5 2.1,-0.9 1.7,-1.9 0.1,-1.3 -2.1,-2.9 -4.1,-4.4 z"
           id="path941"
           inkscape:connector-curvature="0" /><path
           d="m 468.4,699.2 c 0.5,-0.1 1,-0.4 1.1,-1.1 0.3,-1.8 -2.5,-2.2 -2.7,-0.5 -0.1,0.5 0.1,0.9 0.4,1.2 -1.2,0.3 -2.4,2.2 -3.5,4.2 -1.1,2.1 -2.1,4.2 -2.1,4.3 0,0.1 0.1,2.4 0.3,4.8 0.3,2.4 0.7,4.9 1.9,5.3 1.2,0.4 3.1,-1.5 4.5,-3.6 1.5,-2.2 2.5,-4.5 2.5,-4.6 0,-0.1 0,-2.7 -0.5,-5.2 -0.3,-2.1 -1,-4 -1.9,-4.8 z"
           id="path943"
           inkscape:connector-curvature="0" /><path
           d="m 390.6,682.9 c 0,0 0,0 0,0 -0.1,-0.7 -0.5,-1.1 -1.1,-1.2 -0.4,-0.3 -0.9,-0.6 -1.3,-0.5 -2.6,0.2 -3.9,9.1 -3.9,9.3 0,0.2 2.5,7.4 5,8.3 0,0.2 -0.1,0.3 -0.1,0.5 0.2,1.8 3,1.5 2.8,-0.3 -0.1,-0.6 -0.4,-0.9 -0.8,-1.1 1.7,-2.3 2.6,-8.2 2.6,-8.3 -0.1,-0.1 -1.5,-4.3 -3.2,-6.7 z"
           id="path945"
           inkscape:connector-curvature="0" /><path
           d="m 437.6,863.3 c -1.1,-2.5 -2,-4.8 -2.1,-4.9 -0.1,-0.1 -1.9,-1.8 -3.9,-3.7 -1.6,-1.5 -3.2,-3.1 -4.4,-3.4 0,-0.2 0,-0.4 -0.1,-0.7 -0.8,-1.6 -3.3,-0.3 -2.5,1.3 0.2,0.4 0.5,0.6 0.9,0.7 -0.3,1.3 -0.2,3.2 0.2,5.2 0.6,3 1.9,5.9 2,6 0.1,0.1 2.3,2.4 4.9,4 1.3,0.8 2.6,1.4 3.7,1.7 0,0.2 0.1,0.5 0.3,0.7 0.9,1.1 2.5,0.2 2.4,-1 0.7,-1 -0.4,-3.5 -1.4,-5.9 z"
           id="path947"
           inkscape:connector-curvature="0" /><path
           d="m 534.3,827 c -0.4,-0.1 -0.9,0.1 -1.4,0.6 -0.3,0.1 -0.5,0.3 -0.6,0.6 -0.8,0.9 -1.7,2.2 -2.6,3.6 -1.6,2.5 -2.9,5 -3,5.2 0,0.1 -0.4,3 -0.6,5.9 -0.2,2.8 -0.2,5.6 0.8,6.4 0,0 -0.1,0.1 -0.1,0.1 -0.5,1.7 2.1,2.6 2.7,0.8 0.2,-0.6 0,-1.1 -0.4,-1.4 1.1,-0.8 2.3,-2.1 3.3,-3.6 1.9,-2.5 3.3,-5.2 3.3,-5.4 0,-0.1 0.5,-3.2 0.4,-6.3 0,-3.1 -0.6,-6.2 -1.8,-6.5 z"
           id="path949"
           inkscape:connector-curvature="0" /><path
           d="m 554.2,742.3 c 0,-0.3 -1.5,-11.7 -4.1,-11.9 -2.6,-0.1 -5.4,11.1 -5.4,11.4 0,0.3 1.5,11.7 4.1,11.9 2.6,0.1 5.4,-11.1 5.4,-11.4 z"
           id="path951"
           inkscape:connector-curvature="0" /><path
           d="m 567.1,630.3 c 0,-0.2 -0.4,-3.6 -1.3,-6.8 -0.9,-3.3 -2.3,-6.4 -3.6,-6.3 -1.3,0.1 -2.3,3.3 -3.1,6.5 -0.8,3.2 -1.4,6.3 -1.4,6.4 0,0.1 0.4,3.3 1,6.5 0.3,1.4 0.6,2.8 0.9,4 -0.4,0.2 -0.8,0.5 -0.8,1.1 -0.1,1.3 1.2,1.7 2.1,1.3 0.2,0.1 0.3,0.2 0.5,0.2 1.3,0.2 2.9,-2.9 4,-6.1 1,-3.3 1.7,-6.7 1.7,-6.8 z"
           id="path953"
           inkscape:connector-curvature="0" /><path
           d="m 587.2,797.2 c -0.9,-0.9 -3.6,0 -6.1,0.5 -2.5,0.5 -4.8,0.8 -4.9,0.8 -0.1,0 -2.1,1.3 -4.4,2.5 -2.2,1.2 -4.9,2.1 -5,3.4 -0.2,1.3 2.7,2.8 5.9,3.2 3.2,0.5 6.5,-0.1 6.7,-0.2 0.1,0 3.1,-1.7 5.3,-4 0.6,-0.6 1.1,-1.3 1.6,-2 0.4,-0.3 0.6,-0.7 0.6,-1.1 0.6,-1.3 0.9,-2.6 0.3,-3.1 z"
           id="path955"
           inkscape:connector-curvature="0" /><path
           d="m 670.3,603.1 c -1.3,0.2 -2,3.8 -2.7,7.2 -0.8,3.4 -1.5,6.7 -1.6,6.9 0,0.2 0.2,3.6 0.4,7.1 0.2,3.5 0.2,7.2 1.5,7.6 1.2,0.4 3.5,-2.7 5.1,-6.2 1.6,-3.5 2.5,-7.4 2.5,-7.6 0,-0.2 -0.2,-4.1 -1.2,-7.9 -1,-3.9 -2.7,-7.3 -4,-7.1 z"
           id="path957"
           inkscape:connector-curvature="0" /><path
           d="m 701.3,719.9 c -1.4,-2.2 -12,2.1 -12.2,2.2 -0.2,0.1 -8.5,8 -7.1,10.2 1.4,2.2 12,-2.1 12.2,-2.2 0.1,-0.1 2.5,-2.4 4.5,-4.8 0.2,0 0.4,0 0.7,-0.2 0.7,-0.4 0.8,-1 0.6,-1.6 1.2,-1.5 1.8,-2.9 1.3,-3.6 z"
           id="path959"
           inkscape:connector-curvature="0" /></g></g></switch></svg>