<?xml version="1.0" encoding="UTF-8" standalone="no"?>
<svg
   xmlns:dc="http://purl.org/dc/elements/1.1/"
   xmlns:cc="http://creativecommons.org/ns#"
   xmlns:rdf="http://www.w3.org/1999/02/22-rdf-syntax-ns#"
   xmlns:svg="http://www.w3.org/2000/svg"
   xmlns="http://www.w3.org/2000/svg"
   xmlns:sodipodi="http://sodipodi.sourceforge.net/DTD/sodipodi-0.dtd"
   xmlns:inkscape="http://www.inkscape.org/namespaces/inkscape"
   version="1.1"
   id="Layer_1"
   x="0px"
   y="0px"
   viewBox="0 0 1000 1000"
   width="100%"
   height="100%"
   style="enable-background:new 0 0 1000 1000;"
   xml:space="preserve"
   ><switch
     id="switch3"
     transform="translate(-82.391434,3.1758372)"><g
       id="g5"><g
         id="g7"><path
           d="m 937.3,588.9 c -10.7,-1 -21.3,-0.9 -21.8,-0.8 -0.2,0 -2.9,1.1 -6.7,2.6 -1.9,0.8 -4.1,1.7 -6.4,2.7 -2.4,1 -4.9,2 -7.4,3.1 -5,2.2 -9.8,4.5 -13.5,6.8 -3.7,2.3 -6.1,4.5 -6,6.8 0.3,4.5 10.5,8.4 21,10.8 10.4,2.5 21,3.4 21.5,3.3 0.2,0 3,-0.8 7,-2.3 4.1,-1.4 9.2,-3.6 14.4,-6.3 5.1,-2.7 10.4,-5.8 14,-9 3.7,-3.2 6,-6.5 5.8,-9.2 -0.4,-5.5 -11.2,-7.6 -21.9,-8.5 z"
           id="path9"
           inkscape:connector-curvature="0" /><path
           d="m 905.7,647.1 c -0.2,-0.4 -7.4,-8.5 -15.7,-15.4 -8.2,-6.9 -17.5,-12.6 -21.3,-10.1 -1.9,1.3 -2.2,4.6 -1.7,8.8 0.4,4.2 1.5,9.5 2.9,14.8 0.3,1.3 0.7,2.6 1,3.9 0.3,1.3 0.6,2.5 1,3.8 0.7,2.5 1.3,4.7 1.8,6.7 1.1,4 1.9,6.7 2,6.9 0.1,0.2 1.8,2.5 4.3,5.7 2.5,3.2 5.8,7.3 9.4,11.4 7.1,8.1 15.1,15.7 19.7,12.9 1.1,-0.7 2,-2 2.6,-3.7 0.6,-1.7 0.9,-4 1.1,-6.5 0.3,-5 -0.2,-11 -1.2,-16.7 -2,-11.7 -5.6,-22.1 -5.9,-22.5 z"
           id="path11"
           inkscape:connector-curvature="0" /><path
           d="m 859.5,628.5 c -1.1,-4 -2.9,-6.9 -5.1,-7.3 -1.1,-0.2 -2.3,0.1 -3.5,0.9 -1.3,0.8 -2.6,2 -3.9,3.5 -2.7,3 -5.3,7.2 -8,11.3 -5.1,8.4 -10,16.8 -10.1,17.2 0,0.5 -1.5,10.1 -2.4,20.5 -0.6,5.1 -0.9,10.4 -0.7,14.7 0.1,2.2 0.4,4 0.9,5.5 0.5,1.5 1.2,2.5 2.2,3 1,0.5 2.3,0.4 3.8,-0.1 1.5,-0.6 3.1,-1.6 4.8,-3 3.4,-2.8 7.4,-6.7 10.6,-11.1 6.9,-8.6 11.9,-18.2 12.1,-18.6 0,-0.1 0.2,-0.9 0.4,-2.1 0.2,-1.2 0.4,-2.9 0.5,-5 0.3,-4.1 0.6,-9.4 0.5,-14.7 -0.3,-5.3 -0.9,-10.6 -2.1,-14.7 z"
           id="path13"
           inkscape:connector-curvature="0" /><path
           d="m 812.4,564.7 c 0.9,1.9 1.8,3.6 2.6,5.2 1.6,3.1 2.7,5.2 2.8,5.4 0.1,0.2 2,2 4.9,4.6 2.9,2.7 6.5,6.1 10.4,9.5 7.8,6.9 16.3,13.8 20.2,11.9 2,-0.9 2.6,-4 2.4,-7.9 -0.4,-4 -1.6,-8.9 -3.1,-13.5 -0.7,-2.3 -1.7,-4.6 -2.6,-6.7 -0.9,-2.1 -1.8,-4.1 -2.6,-5.7 -1.6,-3.3 -2.8,-5.4 -3,-5.6 -0.1,-0.2 -2.1,-1.9 -5.3,-4.3 -3.1,-2.4 -7.3,-5.4 -11.7,-8.1 -8.8,-5.5 -18.5,-9.8 -21.9,-8 -3.5,1.8 0.1,9.5 3.8,17.5 1.1,1.8 2.1,3.8 3.1,5.7 z"
           id="path15"
           inkscape:connector-curvature="0" /><path
           d="m 834.4,626.2 c 4.4,-2.1 8.9,-4.6 12,-7.2 3,-2.6 4.8,-5.2 4.1,-7.2 -1.3,-4.2 -12.2,-5.5 -22.6,-6.4 -5.2,-0.4 -10.2,-0.7 -14.1,-0.9 -3.9,-0.2 -6.5,-0.3 -6.7,-0.3 -0.2,0 -2.6,0.7 -5.9,1.7 -1.6,0.5 -3.5,1.1 -5.5,1.7 -2.1,0.6 -4.2,1.3 -6.3,1.9 -8.3,2.9 -16.5,5.6 -15.4,9.4 1.1,3.8 11,7.7 21,10.2 5,1.3 10.1,2.2 14,2.7 3.9,0.6 6.6,0.8 6.8,0.8 0.2,0 2.6,-0.6 6.1,-1.7 1.8,-0.6 3.8,-1.2 6,-2.1 2,-0.6 4.3,-1.6 6.5,-2.6 z"
           id="path17"
           inkscape:connector-curvature="0" /><path
           d="m 874.8,595.3 c 1.7,-1.3 3.5,-2.8 5.3,-4.6 1.8,-1.8 3.7,-3.7 5.3,-5.8 3.3,-4.1 6.4,-8.5 8.6,-11.9 2.1,-3.4 3.4,-5.9 3.5,-6.1 0.1,-0.2 0.5,-3 1,-7 0.4,-4.1 0.6,-9.4 0.6,-14.8 -0.3,-10.8 -2.2,-21.5 -6.8,-22.4 -1.1,-0.2 -2.3,0.2 -3.6,1 -1.3,0.8 -2.6,2.1 -4,3.7 -2.8,3.1 -5.7,7.4 -8.3,11.7 -2.8,4.2 -5.4,8.5 -7.2,11.7 -0.9,1.6 -1.7,2.9 -2.3,3.9 -0.6,1 -0.9,1.6 -1,1.7 -0.2,0.4 -1.3,9.9 -2.4,19.7 -0.3,4.9 -0.8,9.9 -0.5,13.9 0.3,4 1.3,7.2 3.3,8.2 2.2,0.8 5.2,-0.4 8.5,-2.9 z"
           id="path19"
           inkscape:connector-curvature="0" /><path
           d="m 778.6,777.5 c -0.2,-0.1 -2.9,-1 -6.8,-2.3 -4,-1.3 -9.1,-2.9 -14.3,-4.4 -1.3,-0.4 -2.6,-0.7 -3.9,-1 -1.3,-0.4 -2.6,-0.7 -3.8,-1 -2.5,-0.6 -4.9,-1.1 -7,-1.4 -4.3,-0.6 -7.5,-0.3 -8.9,1.5 -2.7,3.6 2.7,13.1 9.1,21.7 6.4,8.6 14,16.2 14.4,16.4 0.4,0.3 10.5,4.5 21.9,7.2 5.6,1.3 11.5,2.1 16.5,2 2.5,0 4.7,-0.3 6.5,-0.8 1.8,-0.5 3.1,-1.4 3.9,-2.5 3.1,-4.6 -3.8,-13.1 -11.4,-20.7 -7.7,-7.7 -15.8,-14.4 -16.2,-14.7 z"
           id="path21"
           inkscape:connector-curvature="0" /><path
           d="m 721.2,773.3 c -2.3,-0.2 -4.6,2 -7,5.5 -1.2,1.8 -2.4,3.9 -3.6,6.2 -1.2,2.3 -2.4,4.6 -3.6,7.1 -2.4,4.8 -4.6,9.8 -6.3,13.6 -1.7,3.7 -2.9,6.3 -2.9,6.5 -0.1,0.5 -0.7,11.1 -0.4,21.9 0.3,10.8 1.5,21.8 6.8,22.6 2.6,0.4 6,-1.9 9.4,-5.4 0.9,-0.9 1.7,-1.9 2.6,-2.9 0.8,-1.1 1.7,-2.2 2.5,-3.4 1.6,-2.4 3.2,-4.9 4.7,-7.4 1.5,-2.5 2.8,-5.1 4.1,-7.5 1.2,-2.4 2.2,-4.8 3.1,-6.7 1.7,-4 2.6,-6.7 2.7,-7 0.1,-0.5 -0.2,-11.2 -2.1,-21.7 -2.1,-10.6 -5.5,-21 -10,-21.4 z"
           id="path23"
           inkscape:connector-curvature="0" /><path
           d="m 706.3,778.8 c 1.3,-2.1 2.5,-4.3 3.3,-6.2 1.7,-3.9 2.2,-7.1 0.8,-8.9 -1.4,-1.8 -4.6,-2 -8.5,-1.4 -1.9,0.4 -4.2,0.8 -6.4,1.4 -2.3,0.6 -4.6,1.3 -7,2.1 -9.4,3 -18.4,6.6 -18.8,6.7 -0.2,0.1 -2.1,1.8 -4.9,4.4 -1.4,1.3 -3,2.9 -4.7,4.5 -1.7,1.6 -3.6,3.3 -5.4,5.2 -1.8,1.8 -3.7,3.7 -5.4,5.6 -1.7,1.9 -3.3,3.6 -4.6,5.3 -2.6,3.4 -4,6.4 -3.1,8.5 0.9,2.1 4.2,3.1 8.6,3.3 4.4,0.1 9.9,-0.7 15.3,-1.7 1.4,-0.2 2.7,-0.6 4,-0.9 1.3,-0.4 2.6,-0.7 3.8,-1.1 2.5,-0.7 4.8,-1.4 6.7,-2 1,-0.3 1.9,-0.6 2.7,-0.9 0.8,-0.3 1.5,-0.6 2.1,-0.8 1.2,-0.5 1.9,-0.8 2,-0.8 0.2,-0.1 2.3,-2 5.2,-4.9 1.4,-1.5 3.1,-3 4.8,-5 1.7,-1.9 3.4,-4 5,-6.1 1.6,-2.1 3.2,-4.2 4.5,-6.3 z"
           id="path25"
           inkscape:connector-curvature="0" /><path
           d="m 715.9,733.4 c 0.5,2.4 1,4.8 1.6,6.8 1.2,4.1 2.8,7 4.9,7.6 2.1,0.6 4.5,-1.5 6.9,-4.7 1.2,-1.6 2.3,-3.5 3.4,-5.6 1.1,-2.1 2,-4.5 2.9,-6.7 0.9,-2.3 1.7,-4.6 2.3,-6.8 0.3,-1.1 0.6,-2.1 0.9,-3.1 0.3,-1 0.5,-2 0.7,-2.9 0.8,-3.6 1.3,-6.1 1.3,-6.3 0,-0.2 -0.4,-2.8 -1.2,-6.6 -0.8,-3.8 -2,-8.7 -3.7,-13.7 -3.2,-9.9 -7.9,-19.5 -11.7,-20.3 -0.9,-0.2 -1.8,0.2 -2.6,1 -0.8,0.8 -1.4,2.1 -2.1,3.5 -1.4,2.9 -2.5,7.1 -3.5,11.5 -1.1,4.2 -2.1,8.6 -2.9,12 -0.7,3.5 -1.3,5.7 -1.3,6 0,0.4 1.1,10.3 2.7,20.7 0.5,2.5 0.9,5.1 1.4,7.6 z"
           id="path27"
           inkscape:connector-curvature="0" /><path
           d="m 673.2,747.6 c 0.2,0.1 2.4,1.3 5.9,2.7 3.4,1.4 8,3 12.8,4.3 4.8,1.4 9.7,2.1 13.7,2.2 4,0 7.1,-0.7 7.8,-2.8 0.8,-2.1 -0.7,-5.1 -3.2,-8.5 -2.6,-3.4 -6.3,-7.2 -10,-10.9 -7.5,-7.4 -14.9,-14.1 -15.2,-14.4 -0.1,-0.1 -0.7,-0.3 -1.7,-0.7 -1,-0.4 -2.3,-1 -3.9,-1.7 -3.2,-1.4 -7.4,-3.2 -11.5,-4.8 -4.1,-1.6 -8.2,-3.3 -11.4,-3.9 -3.2,-0.6 -5.6,-0.6 -6.4,1.2 -1.6,3.5 3.4,13 9.6,21.4 6,8.4 13.2,15.6 13.5,15.9 z"
           id="path29"
           inkscape:connector-curvature="0" /><path
           d="m 742.7,757 c 1.1,0.1 2.2,0.1 3.4,0.1 1.2,0 2.4,-0.1 3.6,-0.3 2.5,-0.2 5.1,-0.6 7.7,-1.1 5.3,-0.8 10.3,-2.5 14.2,-3.6 3.9,-1.2 6.5,-2.2 6.7,-2.3 0.2,-0.1 2.3,-2 5.2,-4.8 1.5,-1.4 3.1,-3.1 4.9,-4.9 1.7,-1.9 3.4,-3.9 5.1,-6 1.7,-2.1 3.3,-4.2 4.8,-6.3 1.4,-2.2 2.6,-4.3 3.5,-6.2 1.8,-3.9 2.4,-7.1 1,-8.9 -1.4,-1.8 -4.8,-2 -8.9,-1.3 -4.1,0.6 -9,2.2 -13.9,3.6 -9.6,3.1 -18.7,6.3 -19.1,6.5 -0.1,0.1 -0.6,0.5 -1.4,1.3 -0.8,0.8 -1.9,1.8 -3.3,3 -1.4,1.2 -2.9,2.7 -4.6,4.3 -0.8,0.8 -1.7,1.6 -2.5,2.5 -0.8,0.9 -1.7,1.7 -2.6,2.6 -3.6,3.4 -6.9,7.1 -9.3,10.4 -2.4,3.2 -3.7,6.1 -2.8,8.2 1,1.9 4.1,2.9 8.3,3.2 z"
           id="path31"
           inkscape:connector-curvature="0" /><path
           d="m 551.9,834.7 c -0.2,-0.4 -5.9,-9.9 -11.9,-18.7 -0.8,-1.1 -1.5,-2.2 -2.3,-3.3 -0.8,-1.1 -1.5,-2.2 -2.3,-3.3 -1.5,-2.1 -3,-4 -4.5,-5.6 -2.9,-3.2 -5.6,-5 -7.8,-4.5 -4.4,1 -6.4,11.8 -7,22.5 -0.3,5.4 -0.2,10.7 -0.1,14.8 0.2,4 0.5,6.8 0.5,7 0.1,0.5 5.2,10.2 12.2,19.6 3.5,4.6 7.5,9 11.3,12.1 3.8,3.1 7.4,5 10.1,4.2 5.3,-1.5 5.5,-12.5 4.6,-23.2 -0.8,-10.7 -2.7,-21.1 -2.8,-21.6 z"
           id="path33"
           inkscape:connector-curvature="0" /><path
           d="m 501.7,794.3 c -4.1,1.1 -9.1,3.4 -14,5.5 -4.9,2.2 -9.8,4.5 -13.6,6.3 -3.7,1.8 -6.3,3 -6.5,3.2 -0.4,0.3 -7.6,8 -14.4,16.5 -6.7,8.5 -12.9,17.7 -9.3,21.7 1.8,2 5.8,2.4 10.7,1.9 4.9,-0.5 10.8,-2.3 16.3,-4.2 2.8,-1 5.4,-2 7.9,-3.1 2.5,-1.1 4.8,-2.2 6.7,-3.2 3.8,-2 6.3,-3.4 6.5,-3.6 0.4,-0.3 7,-8.6 12.3,-18 5.4,-9.4 9.4,-19.6 6.2,-22.7 -1.5,-1.6 -4.7,-1.5 -8.8,-0.3 z"
           id="path35"
           inkscape:connector-curvature="0" /><path
           d="m 459.7,791.3 c 3.8,1.5 6.6,2.3 6.8,2.3 0.5,0 11.2,-0.1 21.7,-2.5 2.6,-0.6 5.2,-1.1 7.6,-1.9 2.4,-0.8 4.6,-1.7 6.5,-2.6 3.8,-1.9 6.3,-4 6.3,-6.3 0.1,-2.3 -2.2,-4.5 -5.6,-6.5 -0.9,-0.5 -1.8,-1 -2.8,-1.5 -1,-0.5 -2,-1.1 -3.1,-1.6 -2.1,-1 -4.4,-2 -6.7,-2.9 -1.2,-0.4 -2.3,-0.9 -3.4,-1.3 -1.1,-0.5 -2.2,-0.9 -3.3,-1.3 -2.1,-0.8 -4.2,-1.6 -5.9,-2.2 -1.8,-0.6 -3.2,-1.1 -4.3,-1.5 -1.1,-0.4 -1.7,-0.6 -1.8,-0.6 -0.2,0 -2.8,0 -6.6,0.2 -1.9,0.1 -4.1,0.3 -6.5,0.5 -2.4,0.1 -4.9,0.3 -7.5,0.5 -10.3,1 -21.1,2 -22.4,6.4 -0.6,2.2 1.2,5 4.5,8 3.3,2.9 8,5.8 12.8,8.5 4.8,2.6 9.9,4.7 13.7,6.3 z"
           id="path37"
           inkscape:connector-curvature="0" /><path
           d="m 536.2,753.9 c -2.7,4.5 -5.4,9.1 -7.1,13 -1.7,3.9 -2.4,7.2 -1.1,9 1.3,1.8 4.4,1.8 8.2,0.8 1.9,-0.5 4,-1.2 6.2,-2.1 2.2,-0.9 4.4,-2.1 6.6,-3.3 4.3,-2.5 8.4,-5 11.3,-7.3 3,-2.3 4.9,-3.9 5,-4.1 0.3,-0.4 5.5,-9.1 9.3,-18.7 3.9,-9.7 6.5,-20.1 4.1,-23.1 -2.4,-2.9 -9.4,1.6 -16.6,6.9 -3.6,2.5 -7.2,5.2 -9.9,7.4 -2.8,2.2 -4.7,3.6 -4.8,3.7 -0.3,0.5 -5.8,8.8 -11.2,17.8 z"
           id="path39"
           inkscape:connector-curvature="0" /><path
           d="m 519.5,751.4 c -1,-10.5 -2.3,-20.4 -2.4,-20.8 -0.1,-0.2 -1.2,-2.3 -2.7,-5.4 -1.6,-3.2 -3.6,-7.2 -5.7,-11.1 -1.1,-1.9 -2.1,-3.8 -3.1,-5.7 -1,-1.8 -2.1,-3.4 -3.1,-4.7 -1,-1.3 -2,-2.3 -3,-2.8 -0.9,-0.6 -1.8,-0.8 -2.7,-0.4 -3.5,1.6 -5.7,12.1 -6.4,22.6 -0.7,10.2 0.1,20.4 0.2,20.9 0.1,0.2 1.1,2.5 2.7,5.9 1.7,3.2 4.2,7.4 7,11.5 0.7,1 1.4,2 2.2,3 0.7,1 1.5,1.9 2.3,2.8 1.6,1.8 3.1,3.4 4.7,4.7 1.5,1.3 3,2.3 4.3,2.8 1.3,0.5 2.5,0.5 3.5,0 3.7,-2.1 3.1,-12.9 2.2,-23.3 z"
           id="path41"
           inkscape:connector-curvature="0" /><path
           d="m 606.3,793.8 c -3.6,-2 -8.3,-4.3 -12.9,-6.2 -2.3,-1 -4.6,-1.8 -6.8,-2.7 -2.2,-0.9 -4.2,-1.7 -5.9,-2.4 -3.5,-1.3 -5.9,-2.2 -6.1,-2.2 -0.2,0 -2.7,0.1 -6.4,0.2 -1.8,0.1 -4,0.2 -6.2,0.3 -2.3,0.2 -4.7,0.4 -7.2,0.6 -4.9,0.3 -9.9,1 -13.8,2 -3.9,0.9 -6.8,2.3 -7.4,4.5 -0.6,2.2 1.1,5 4.1,8 0.8,0.7 1.6,1.5 2.5,2.2 0.9,0.7 1.9,1.4 2.9,2.1 2.1,1.4 4.3,2.8 6.6,4.1 4.6,2.7 9.5,4.8 13.2,6.3 3.8,1.5 6.4,2.5 6.6,2.5 0.2,0.1 3,0 7.1,-0.3 2,-0.2 4.4,-0.4 6.9,-0.6 1.3,-0.2 2.5,-0.3 3.8,-0.5 1.3,-0.2 2.6,-0.5 3.9,-0.8 2.6,-0.5 5.3,-1.2 7.7,-1.8 1.2,-0.3 2.4,-0.7 3.5,-1.1 1.1,-0.4 2.2,-0.9 3.1,-1.3 3.9,-1.9 6.4,-4 6.5,-6.3 0.3,-2.2 -2.2,-4.5 -5.7,-6.6 z"
           id="path43"
           inkscape:connector-curvature="0" /><path
           d="m 342.3,687.1 c -4.1,-2 -12.5,4.9 -19.8,12.8 -7.3,7.8 -13.4,16.5 -13.6,17 -0.1,0.2 -0.8,3 -1.5,7.2 -0.7,4.2 -1.4,9.7 -1.7,15.5 -0.1,2.9 -0.2,5.9 -0.1,8.7 0.1,2.9 0.4,5.5 0.9,7.9 0.9,4.8 2.6,8.5 5,9.7 2.4,1.2 5.5,-0.3 8.7,-3.2 3.2,-2.9 6.5,-7.1 9.7,-11.5 6.2,-8.8 11.5,-18 11.7,-18.5 0.1,-0.2 0.5,-3 1.1,-7.1 0.6,-4.1 1.2,-9.4 1.8,-14.8 0.6,-5.4 1.1,-10.8 0.9,-15.1 -0.3,-4.3 -1,-7.6 -3.1,-8.6 z"
           id="path45"
           inkscape:connector-curvature="0" /><path
           d="m 335.8,675.5 c -0.2,-2.3 -2.8,-4.2 -6.8,-5.9 -3.9,-1.7 -9,-3.4 -14.2,-4.8 -5.2,-1.4 -10.5,-2.8 -14.4,-3.9 -4,-1 -6.8,-1.7 -7,-1.7 -0.2,0 -3,0.3 -7.1,0.9 -2,0.3 -4.4,0.7 -6.9,1.1 -2.5,0.4 -5.1,0.9 -7.7,1.4 -10.5,2.2 -21.1,5.3 -21,10.6 0,2.7 2.9,5.6 7,8.3 2.1,1.4 4.5,2.7 7,3.9 1.3,0.6 2.6,1.2 3.9,1.8 1.4,0.6 2.8,1.1 4.2,1.6 5.6,2 11.1,3.5 15.2,4.5 4.1,1 7.1,1.4 7.3,1.4 0.5,0 11,-2.2 21.1,-5.9 10.1,-3.6 19.7,-8.8 19.4,-13.3 z"
           id="path47"
           inkscape:connector-curvature="0" /><path
           d="m 289.6,619 c 0.7,2.5 1.7,5.1 2.8,7.6 1,2.5 2.1,5.1 3.2,7.4 1.1,2.3 2.3,4.4 3.3,6.2 2,3.6 3.5,6 3.6,6.2 0.1,0.1 0.7,0.6 1.6,1.4 1,0.7 2.4,1.8 4.1,2.9 1.7,1.2 3.6,2.5 5.8,3.8 2.1,1.3 4.3,2.7 6.8,3.9 4.8,2.4 9.7,4.5 13.7,5.6 4.1,1 7.5,0.9 9,-0.8 1.5,-1.7 1.1,-4.8 -0.1,-8.6 -0.6,-1.9 -1.5,-4 -2.5,-6.1 -1.1,-2.1 -2.2,-4.3 -3.3,-6.5 -1.1,-2.2 -2.3,-4.3 -3.5,-6.3 -0.6,-1 -1.2,-1.9 -1.7,-2.9 -0.5,-0.9 -1,-1.8 -1.4,-2.6 -1.8,-3.2 -3.1,-5.4 -3.3,-5.6 -0.1,-0.2 -2.2,-1.7 -5.3,-4 -3,-2.3 -7,-5.3 -11.3,-8.3 -4.2,-3 -8.5,-6 -12.3,-7.9 -3.8,-1.9 -7.1,-2.8 -9,-1.5 -1.9,1.3 -2.2,4.6 -1.6,9 0.1,2.2 0.7,4.6 1.4,7.1 z"
           id="path49"
           inkscape:connector-curvature="0" /><path
           d="m 437,661 c 0,-1.9 -1.9,-3.2 -5.2,-3.9 -1.6,-0.4 -3.5,-0.7 -5.5,-0.9 -2.1,-0.2 -4.2,-0.5 -6.4,-0.6 -2.2,-0.2 -4.4,-0.3 -6.6,-0.4 -1.1,0 -2.1,-0.1 -3.1,-0.1 -1,-0.1 -1.9,-0.1 -2.7,-0.2 -3.4,-0.2 -5.9,-0.3 -6.1,-0.3 -0.2,0 -2.7,0.8 -6.4,1.9 -1.9,0.6 -4,1.3 -6.3,2 -2.3,0.7 -4.7,1.5 -7.2,2.3 -9.8,3.3 -20,7.2 -20.4,11.6 -0.1,1.1 0.4,2.2 1.4,3.2 1,1 2.4,2 4.3,2.8 3.6,1.7 8.5,3.1 13.2,4.1 9.9,1.8 19.3,2 19.8,1.8 0.5,-0.1 10.1,-3.5 19.2,-8.4 2.3,-1.2 4.5,-2.5 6.6,-3.8 2.1,-1.3 4.1,-2.7 5.7,-4.1 3.4,-2.6 5.6,-5.1 5.7,-7 z"
           id="path51"
           inkscape:connector-curvature="0" /><path
           d="m 370.2,648.1 c 3,-4.3 5.7,-8.6 7.8,-11.8 2.1,-3.2 3.5,-5.5 3.6,-5.7 0.1,-0.2 0.7,-2.6 1.5,-6 0.7,-3.3 1.7,-7.7 2.7,-12.1 0.5,-2.2 0.9,-4.3 1.2,-6.4 0.3,-2 0.5,-3.9 0.6,-5.6 0.2,-3.3 -0.4,-5.6 -2.3,-6.1 -3.8,-0.9 -12.2,5.7 -19.4,13.1 -3.6,3.7 -6.9,7.7 -9.4,10.7 -2.4,3.1 -3.9,5.2 -4,5.4 -0.1,0.2 -0.8,2.6 -1.6,6.2 -0.8,3.6 -1.8,8.5 -2.1,13.4 -0.2,2.5 -0.3,5 -0.3,7.3 0,2.4 0.1,4.7 0.5,6.6 0.7,3.9 2.1,6.7 4.2,7.2 4.5,1.1 11.1,-7.6 17,-16.2 z"
           id="path53"
           inkscape:connector-curvature="0" /><path
           d="m 408.2,733.4 c -0.4,-1.1 -0.9,-2.2 -1.4,-3.3 -1,-2.2 -2.1,-4.5 -3.3,-6.7 -2.4,-4.4 -4.6,-8.9 -6.5,-12.1 -1.8,-3.2 -3.1,-5.4 -3.3,-5.6 -0.1,-0.2 -2.1,-1.8 -5,-4 -1.5,-1.1 -3.2,-2.4 -5.1,-3.7 -1.8,-1.4 -3.8,-2.9 -5.8,-4.3 -2,-1.4 -4.1,-2.8 -6.1,-4 -2,-1.3 -3.9,-2.5 -5.7,-3.4 -3.6,-1.8 -6.8,-2.5 -8.7,-1.2 -1.9,1.3 -2.4,4.5 -1.9,8.7 0.5,4.2 1.8,9.4 3.8,14.3 3.6,10 9.2,19.1 9.5,19.5 0.1,0.1 0.7,0.6 1.6,1.4 0.9,0.8 2.3,1.9 4,3 1.7,1.2 3.6,2.5 5.7,3.9 1.1,0.7 2.2,1.4 3.3,2.1 1.1,0.7 2.3,1.4 3.5,2 4.8,2.5 9.6,4.9 13.8,6 4.2,1 7.5,1.1 9,-0.7 1.5,-1.7 1.1,-5 -0.3,-8.9 -0.2,-0.9 -0.6,-1.9 -1.1,-3 z"
           id="path55"
           inkscape:connector-curvature="0" /><path
           d="m 272.6,493.5 c 2.7,-3.4 4.2,-6.3 3.3,-8.4 -1.8,-4.2 -12.8,-4.2 -23.4,-3 -10.6,1.3 -20.9,4 -21.3,4.2 -0.2,0.1 -2.5,1.8 -5.8,4.5 -1.6,1.4 -3.6,3 -5.5,4.8 -1.9,1.8 -3.9,3.8 -5.9,6 -3.9,4.2 -7.7,8.9 -10.2,13.2 -2.3,4.3 -3.4,8.1 -2.3,10.6 2.3,5 13.2,3.3 23.6,0.6 10.4,-2.7 20.4,-6.4 20.8,-6.6 0.4,-0.3 8.4,-7.4 16.4,-14.9 3.9,-3.8 7.6,-7.6 10.3,-11 z"
           id="path57"
           inkscape:connector-curvature="0" /><path
           d="m 217.4,433.9 c 0.6,1.3 1.2,2.6 1.9,3.9 0.7,1.3 1.4,2.6 2.2,3.9 6,10.2 12.9,18.7 13.4,19 0.4,0.3 9.9,5.4 20,9 10.1,3.6 20.8,5.8 23.5,2.2 1.3,-1.8 0.5,-5 -1.4,-8.9 -1.8,-3.8 -4.7,-8.4 -7.8,-12.8 -3.1,-4.5 -6.2,-8.9 -8.6,-12.2 -2.4,-3.4 -4.1,-5.6 -4.3,-5.8 -0.2,-0.2 -2.5,-1.7 -6,-3.8 -3.5,-2.1 -8.1,-4.9 -12.8,-7.5 -9.4,-5.1 -19.6,-9.5 -22.9,-5.4 -1.7,2.1 -1.4,6.1 0.1,10.9 0.6,2.3 1.6,4.9 2.7,7.5 z"
           id="path59"
           inkscape:connector-curvature="0" /><path
           d="m 273,435.2 c 0.5,2 1.2,4.2 2,6.6 0.8,2.4 1.6,4.9 2.7,7.3 2.1,4.9 4.5,9.7 6.9,13.1 2.5,3.4 5.2,5.5 7.4,5.1 1.1,-0.2 2.1,-0.9 3,-2.1 0.9,-1.2 1.8,-2.8 2.5,-4.6 0.7,-1.9 1.4,-4 2,-6.3 0.3,-1.1 0.6,-2.3 0.8,-3.5 0.3,-1.2 0.6,-2.4 0.9,-3.6 0.5,-2.4 1,-4.8 1.4,-7.1 0.4,-2.3 0.7,-4.4 1.1,-6.2 0.7,-3.6 1.1,-6.1 1.1,-6.4 0,-0.2 -0.6,-2.7 -1.5,-6.5 -0.8,-3.7 -1.9,-8.6 -3.3,-13.6 -0.7,-2.5 -1.3,-5 -2.1,-7.4 -0.7,-2.4 -1.5,-4.6 -2.3,-6.6 -1.7,-3.9 -3.6,-6.7 -5.9,-6.9 -2.3,-0.2 -4.7,2.1 -7,5.9 -1.2,1.9 -2.3,4.1 -3.4,6.5 -1,2.4 -1.9,5 -2.8,7.6 -0.9,2.6 -1.6,5.2 -2.3,7.7 -0.6,2.5 -1.1,4.8 -1.5,6.9 -0.8,4.1 -1.2,6.8 -1.2,7.1 0,0.1 0.1,0.9 0.4,2.1 0.1,1.2 0.6,2.9 1.1,4.9 z"
           id="path61"
           inkscape:connector-curvature="0" /><path
           d="m 365.1,525.9 c 1.3,-1.4 0.5,-3.7 -1.5,-6.3 -1,-1.3 -2.2,-2.8 -3.6,-4.3 -1.4,-1.5 -2.9,-3 -4.5,-4.6 -1.6,-1.5 -3.3,-3.1 -4.8,-4.5 -1.5,-1.5 -3,-2.8 -4.2,-4 -2.5,-2.4 -4.3,-4 -4.5,-4.1 -0.2,-0.1 -2.6,-1.2 -6.2,-2.7 -3.6,-1.5 -8.2,-3.5 -13.1,-5.4 -9.7,-3.8 -20,-7.4 -23.1,-4.2 -1.5,1.6 -1.1,4.6 0.5,8.3 1.7,3.6 4.6,7.8 7.6,11.7 0.8,1 1.5,1.9 2.3,2.8 0.8,0.9 1.6,1.8 2.4,2.6 1.6,1.7 3.1,3.2 4.5,4.5 2.7,2.5 4.6,4.2 4.7,4.3 0.2,0.1 2.6,1.1 6.3,2.3 3.7,1.2 8.7,2.6 13.8,3.7 10.2,2 20.8,2.8 23.4,-0.1 z"
           id="path63"
           inkscape:connector-curvature="0" /><path
           d="m 368.3,441.7 c -2.3,-3.1 -12.9,-3.5 -23.3,-2.4 -5.2,0.5 -10.2,1.4 -14.1,2.2 -3.8,0.8 -6.3,1.5 -6.5,1.6 -0.2,0.1 -2.3,1.5 -5.2,3.7 -2.9,2.3 -6.8,5.4 -10.2,8.9 -3.4,3.5 -6.8,7.4 -8.8,10.8 -1.9,3.5 -2.7,6.5 -1.4,8.2 2.7,3.4 13.4,1 23.4,-1.8 5,-1.4 9.9,-2.9 13.5,-4 3.7,-1.1 6.2,-1.9 6.4,-2 0.2,-0.1 2.2,-1.5 5,-3.6 2.7,-2.1 6.3,-4.8 9.9,-7.6 1.8,-1.4 3.5,-2.8 5,-4.1 1.5,-1.3 2.8,-2.7 4,-3.9 2.4,-2.3 3.5,-4.4 2.3,-6 z"
           id="path65"
           inkscape:connector-curvature="0" /><path
           d="m 289.9,573 c 1.1,-0.2 2.1,-1 3,-2.2 0.9,-1.2 1.8,-2.9 2.6,-4.8 0.8,-1.9 1.5,-4.2 2.1,-6.5 0.3,-1.2 0.6,-2.4 0.9,-3.6 0.3,-1.2 0.5,-2.4 0.9,-3.7 1.2,-4.9 2.1,-9.8 2.7,-13.4 0.8,-3.7 1.2,-6.1 1.2,-6.4 0,-0.2 -0.5,-2.7 -1.4,-6.2 -0.5,-1.8 -0.9,-3.9 -1.4,-6.1 -0.5,-2.2 -1.1,-4.6 -1.8,-7 -0.3,-1.2 -0.7,-2.4 -1,-3.6 -0.3,-1.2 -0.6,-2.3 -1,-3.5 -0.7,-2.3 -1.4,-4.4 -2.3,-6.2 -0.8,-1.8 -1.7,-3.4 -2.7,-4.6 -1,-1.1 -2,-1.9 -3.1,-2 -1.1,-0.1 -2.3,0.4 -3.6,1.3 -1.2,0.9 -2.3,2.4 -3.5,4.1 -2.3,3.5 -4.6,8.4 -6.3,13.4 -1.7,5 -3,10.1 -4,14.1 -0.9,4 -1.2,6.7 -1.2,7 0,0.2 0.5,3 1.5,7 0.2,1 0.5,2.1 0.8,3.2 0.3,1.1 0.7,2.3 1.1,3.5 0.8,2.4 1.6,5 2.6,7.5 0.5,1.3 1,2.5 1.5,3.7 0.5,1.2 1.1,2.4 1.7,3.5 1.2,2.3 2.4,4.4 3.6,6.1 1.2,1.8 2.4,3.2 3.6,4.1 1.1,1 2.3,1.4 3.5,1.3 z"
           id="path67"
           inkscape:connector-curvature="0" /><path
           d="m 289.5,286.3 c 9.7,4.6 19.7,8.2 20.2,8.3 0.2,0 3.1,0 7.1,-0.2 4.1,-0.2 9.6,-0.3 15,-0.7 10.7,-0.9 21.7,-1.8 22.9,-6.2 0.6,-2.2 -1.1,-5.1 -4.2,-8.1 -3,-3 -7.4,-6.3 -11.8,-9.2 -8.9,-5.9 -18.5,-10.3 -19,-10.4 -0.2,-0.1 -3.1,-0.2 -7.4,-0.2 -4.2,0 -10,0.1 -15.7,0.9 -5.7,0.7 -11.6,1.9 -16.2,3.6 -4.6,1.7 -7.9,4 -8.6,6.7 -1.4,5.2 8,10.9 17.7,15.5 z"
           id="path69"
           inkscape:connector-curvature="0" /><path
           d="m 341.8,249 c 1.7,3.7 4.1,8.5 6.8,13.2 5.4,9.3 12.2,17.9 16.6,16.7 1.1,-0.3 2,-1.2 2.7,-2.5 0.8,-1.3 1.4,-3.1 1.9,-5.1 1.1,-4.1 1.7,-9.5 2.2,-14.9 0.6,-5.3 1,-10.7 1.3,-14.9 0.1,-2.1 0.2,-3.8 0.3,-5.1 0.1,-1.2 0.1,-2 0.1,-2.1 -0.1,-0.5 -3.1,-10.6 -7.1,-20.7 -4,-10 -8.9,-19.9 -14.1,-18.9 -2.6,0.5 -5,3.7 -7,8.3 -1.9,4.6 -3.4,10.5 -4.5,16.2 -0.3,1.4 -0.5,2.9 -0.7,4.3 -0.2,1.4 -0.3,2.8 -0.5,4.2 -0.3,2.7 -0.5,5.2 -0.6,7.4 -0.2,4.3 -0.2,7.2 -0.2,7.4 0.1,0.2 1.1,2.9 2.8,6.5 z"
           id="path71"
           inkscape:connector-curvature="0" /><path
           d="m 378.5,284.3 c 2,1.2 5,0.4 8.5,-1.6 1.8,-1 3.6,-2.3 5.5,-3.6 2,-1.3 3.9,-2.8 5.9,-4.3 3.8,-3.1 7.6,-6.1 10.5,-8.5 2.8,-2.4 4.7,-4.2 4.8,-4.3 0.1,-0.2 1.4,-2.4 3.1,-5.8 1.7,-3.4 3.9,-8 6.2,-12.6 1.1,-2.3 2.2,-4.7 3.2,-7 1,-2.3 1.8,-4.6 2.4,-6.6 1.3,-4 1.6,-7.4 0,-9 -1.6,-1.6 -5,-1.5 -9.2,-0.1 -4.1,1.5 -9.1,4 -13.8,6.8 -4.6,3 -9,6.2 -12.3,8.7 -3.2,2.7 -5.3,4.6 -5.4,4.8 -0.1,0.2 -1.5,2.7 -3.3,6.3 -1.7,3.7 -3.7,8.7 -5.4,13.7 -0.4,1.3 -0.8,2.5 -1.2,3.8 -0.3,1.3 -0.6,2.6 -0.9,3.8 -0.5,2.5 -0.9,4.8 -1,6.9 -0.2,4.2 0.4,7.4 2.4,8.6 z"
           id="path73"
           inkscape:connector-curvature="0" /><path
           d="m 379,361.1 c 6.4,8.2 14,15.6 17.9,15.1 1.9,-0.3 2.7,-2.5 2.9,-5.8 0,-1.7 0.1,-3.5 0,-5.6 -0.1,-2 -0.3,-4.2 -0.5,-6.4 -0.6,-4.5 -0.9,-8.8 -1.4,-12.3 -0.4,-3.4 -0.8,-5.9 -0.9,-6.1 -0.2,-0.5 -4.5,-9.3 -9.5,-18.5 -5,-9.1 -10.7,-18.6 -15,-18.1 -2.2,0.2 -3.8,2.9 -4.9,6.7 -0.3,0.9 -0.5,2 -0.8,3 -0.2,1.1 -0.4,2.2 -0.5,3.4 -0.3,2.4 -0.4,4.9 -0.5,7.3 0,2.5 -0.1,4.9 0.1,7.2 0.2,2.3 0.4,4.5 0.6,6.3 0.4,3.7 0.8,6.1 0.9,6.3 0.1,0.2 1.3,2.5 3.4,5.8 2.1,3.3 5,7.6 8.2,11.7 z"
           id="path75"
           inkscape:connector-curvature="0" /><path
           d="m 417,286.5 c -1.1,-0.1 -2.7,-0.2 -4.5,-0.3 -3.7,-0.1 -8.5,-0.1 -13.5,0.3 -9.8,0.9 -20,3.6 -20,8.1 -0.1,4.4 9.6,9.3 19,13.7 4.7,2.1 9.5,4.2 13,5.7 3.6,1.5 6,2.5 6.2,2.6 0.2,0.1 2.6,0.2 6.1,0.4 3.4,0.1 8.1,0.5 12.5,0.6 4.4,0 8.8,0.2 12.1,-0.3 3.3,-0.4 5.4,-1.5 5.6,-3.4 0.2,-1.9 -1.8,-4.7 -4.8,-7.7 -3,-3 -7.3,-6.3 -11.5,-9.1 -8.5,-5.8 -17.8,-10.2 -18.2,-10.3 -0.2,-0.1 -0.9,-0.2 -2,-0.3 z"
           id="path77"
           inkscape:connector-curvature="0" /><path
           d="m 309,363.9 c 3.8,2.3 12.7,-3.8 20.6,-9.9 4.1,-3 7.9,-6.1 10.7,-8.5 3,-2.3 4.9,-3.9 5,-4.1 0.1,-0.2 1.3,-2.4 3,-5.7 1.7,-3.3 4,-7.5 6,-12 1,-2.3 2.1,-4.5 3,-6.7 0.9,-2.2 1.7,-4.3 2.2,-6.3 0.3,-1 0.5,-1.9 0.6,-2.8 0.2,-0.9 0.3,-1.7 0.3,-2.4 0,-1.5 -0.3,-2.7 -1.1,-3.5 -1.6,-1.6 -4.9,-1.6 -9,-0.4 -4,1.2 -8.8,3.5 -13.4,6.2 -4.5,2.7 -8.8,5.8 -12.1,8.3 -3.3,2.4 -5.2,4.4 -5.4,4.5 -0.2,0.2 -1.5,2.6 -3.3,6.3 -0.4,0.9 -0.9,1.9 -1.4,2.9 -0.4,1.1 -0.9,2.2 -1.4,3.4 -1,2.3 -1.9,4.8 -2.8,7.4 -0.4,1.3 -0.9,2.5 -1.3,3.8 -0.4,1.3 -0.7,2.6 -1,3.8 -0.6,2.5 -1,4.9 -1.2,7 -0.2,2.1 -0.2,4 0.1,5.5 0.3,1.5 0.9,2.6 1.9,3.2 z"
           id="path79"
           inkscape:connector-curvature="0" /><path
           d="m 499.6,157.1 c 1.9,3.6 3.3,6 3.5,6.2 0.3,0.4 8.9,7.2 17.6,13.5 4.4,3.2 8.9,6.4 12.7,8.4 1.9,1 3.6,1.7 5.1,2 1.5,0.3 2.8,0.3 3.7,-0.3 3.8,-2.4 2,-13.2 -1.1,-23.5 -3.1,-10.3 -7.6,-20 -7.9,-20.4 -0.3,-0.4 -8.3,-7.8 -18.1,-14.2 -4.9,-3.3 -10.1,-5.9 -14.8,-7.6 -4.6,-1.6 -8.7,-2.1 -10.9,-0.5 -4.5,3.3 -0.9,13.6 3.6,23.4 2.2,4.7 4.7,9.4 6.6,13 z"
           id="path81"
           inkscape:connector-curvature="0" /><path
           d="m 555.6,186.9 c 2.1,1 5,-0.2 8.5,-2.8 1.7,-1.3 3.6,-2.8 5.5,-4.6 1.9,-1.7 3.9,-3.5 5.8,-5.4 3.9,-3.7 7.7,-7.6 10.6,-10.6 2.9,-2.9 4.8,-4.9 5,-5.1 0.3,-0.4 4.4,-10.2 7.9,-20.4 3.4,-10.3 6,-21 1.3,-23.5 -2.3,-1.2 -6.2,-0.3 -10.7,1.9 -2.2,1 -4.6,2.5 -6.9,4.2 -2.3,1.7 -4.7,3.5 -6.9,5.3 -2.2,1.9 -4.4,3.8 -6.3,5.6 -1.9,1.8 -3.7,3.7 -5.2,5.3 -2.9,3.2 -4.8,5.4 -4.9,5.6 -0.3,0.4 -3.7,10.6 -5.5,21.1 -1.9,10.5 -2.3,21.5 1.8,23.4 z"
           id="path83"
           inkscape:connector-curvature="0" /><path
           d="m 634.5,177.4 c -4.1,-1.5 -9.5,-2.7 -14.9,-3.6 -5.4,-0.6 -10.9,-1 -15,-1.2 -4.1,-0.1 -7,0.1 -7.2,0.1 -0.5,0.2 -10.5,4 -19.5,9.8 -2.3,1.4 -4.4,2.9 -6.4,4.4 -2,1.5 -3.8,3.2 -5.2,4.7 -2.9,3.1 -4.5,6 -3.8,8.1 0.7,2.2 3.6,3.5 7.5,4.2 2,0.3 4.2,0.7 6.5,0.9 2.4,0.2 4.8,0.3 7.3,0.4 2.5,0 4.9,0.1 7.2,0.2 2.3,0.1 4.4,0.1 6.3,0 1.9,0 3.4,-0.1 4.5,-0.1 1.1,0 1.8,0 1.9,0 0.2,0 2.6,-1 6.1,-2.5 3.5,-1.6 8.1,-3.6 12.8,-5.7 2.3,-1.1 4.7,-2.2 6.9,-3.4 2.2,-1.2 4.3,-2.4 6.1,-3.5 3.6,-2.3 6,-4.6 5.8,-6.9 -0.1,-2.2 -2.8,-4.3 -6.9,-5.9 z"
           id="path85"
           inkscape:connector-curvature="0" /><path
           d="m 542.1,210.1 c -1.4,0.4 -2.9,1.2 -4.6,2.3 -1.6,1.1 -3.4,2.5 -5.1,4.1 -0.9,0.8 -1.7,1.6 -2.6,2.5 -0.8,0.9 -1.7,1.8 -2.5,2.8 -3.2,3.8 -6.1,7.7 -8.2,10.7 -2,3.1 -3.3,5.3 -3.3,5.5 -0.2,0.4 -2,10.5 -2.4,20.7 -0.3,10.4 0.8,21.1 4,23.1 0.8,0.5 1.7,0.4 2.7,-0.1 1,-0.4 2.1,-1.3 3.2,-2.5 1.1,-1.2 2.3,-2.6 3.5,-4.3 1.2,-1.7 2.5,-3.5 3.7,-5.3 2.5,-3.6 4.9,-7.4 6.8,-10.4 1.9,-2.9 3.2,-4.9 3.3,-5.1 0.2,-0.4 2.5,-10.1 4.6,-20.4 2,-10.2 3.8,-20.9 0.2,-23.4 -0.7,-0.5 -1.9,-0.6 -3.3,-0.2 z"
           id="path87"
           inkscape:connector-curvature="0" /><path
           d="m 556.3,216.8 c 0.6,2 1.5,4.3 2.5,6.6 1,2.3 2.1,4.8 3.2,7.1 4.5,9.5 9.1,18.3 9.4,18.7 0.1,0.1 0.5,0.5 1.3,1.3 0.8,0.7 1.8,1.7 3.1,3 2.6,2.4 5.9,5.6 9.2,8.4 1.7,1.4 3.3,2.9 4.9,4.3 1.6,1.3 3.1,2.5 4.5,3.3 1.4,0.9 2.7,1.4 3.8,1.6 1.1,0.3 2,0.1 2.7,-0.6 2.7,-2.7 1.2,-13.4 -1.7,-23.4 -2.8,-9.9 -7.1,-19.2 -7.4,-19.5 -0.1,-0.2 -1.9,-2 -4.6,-4.6 -2.7,-2.5 -6.5,-5.5 -10.6,-8.4 -4.1,-3 -8.4,-5.4 -12.2,-6.7 -3.8,-1.4 -6.9,-1.8 -8.3,-0.1 -1.4,1.6 -1,4.9 0.2,9 z"
           id="path89"
           inkscape:connector-curvature="0" /><path
           d="m 466,220.3 c 2.1,0.4 4.3,0.6 6.8,0.9 2.4,0.3 5,0.4 7.5,0.5 2.5,0.1 5,0.1 7.3,0.2 2.3,0.1 4.5,0.2 6.4,0.2 3.7,0.1 6.2,0 6.4,0 0.1,0 0.7,-0.3 1.8,-0.7 1,-0.4 2.5,-0.9 4.2,-1.6 1.7,-0.7 3.7,-1.5 5.7,-2.5 1,-0.5 2.1,-1 3.2,-1.5 1.1,-0.5 2.2,-0.9 3.3,-1.4 2.2,-1 4.5,-2.1 6.6,-3.2 1,-0.6 2.1,-1.1 3,-1.7 1,-0.5 1.9,-1.1 2.7,-1.6 3.4,-2.2 5.6,-4.5 5.4,-6.8 -0.2,-2.3 -2.7,-4.3 -6.6,-6.1 -1.9,-0.8 -4.2,-1.7 -6.6,-2.3 -2.4,-0.6 -5,-1.1 -7.6,-1.6 -2.6,-0.4 -5.3,-0.8 -7.8,-1.1 -2.5,-0.2 -4.8,-0.3 -6.8,-0.4 -4.1,-0.2 -6.9,-0.1 -7.1,-0.1 -0.1,0 -0.8,0.3 -2,0.7 -1.1,0.5 -2.7,1.2 -4.6,2 -1.9,0.8 -4,1.9 -6.3,3 -1.1,0.6 -2.3,1.1 -3.5,1.8 -1.1,0.7 -2.3,1.4 -3.5,2.1 -2.3,1.4 -4.6,2.9 -6.6,4.4 -1,0.7 -2,1.5 -2.9,2.2 -0.9,0.8 -1.7,1.6 -2.5,2.4 -3,3.1 -4.7,5.9 -3.9,8.1 0.8,2 3.9,3.3 8,4.1 z"
           id="path91"
           inkscape:connector-curvature="0" /><path
           d="m 744.8,223.3 c 0.8,2 1.7,3.6 2.6,4.8 1,1.2 1.9,2 3.1,2.1 4.5,0.6 10,-8.9 14.3,-18.7 4.2,-9.8 7,-20.2 7.1,-20.6 0.1,-0.5 -1.3,-11.3 -4.7,-22.5 -0.4,-1.4 -0.9,-2.8 -1.3,-4.2 -0.5,-1.3 -1,-2.7 -1.6,-4 -1.1,-2.6 -2.3,-5 -3.5,-7.2 -2.5,-4.2 -5.3,-7.3 -8,-7.4 -5.5,-0.4 -9.5,9.8 -12.3,20.2 -2.8,10.4 -4.6,20.7 -4.6,21.3 0,0.5 2.1,11.3 4.7,21.7 1.2,5.2 2.6,10.5 4.2,14.5 z"
           id="path93"
           inkscape:connector-curvature="0" /><path
           d="m 763.7,230.4 c -2.6,3.4 -3.9,6.4 -3,8.6 0.9,2.1 4,3 8.3,3.3 2.1,0.2 4.6,0.1 7.1,0 2.5,0 5.2,-0.2 7.9,-0.4 2.7,-0.2 5.4,-0.4 7.9,-0.7 1.3,-0.1 2.5,-0.3 3.7,-0.4 1.2,-0.1 2.3,-0.2 3.3,-0.3 4.1,-0.4 6.9,-0.7 7.1,-0.7 0.5,-0.1 9.9,-5 19.2,-10.6 4.6,-2.9 9.1,-5.9 12.3,-8.8 3.1,-2.9 4.9,-5.9 3.9,-8.3 -1,-2.4 -4.6,-4.2 -9.4,-5.4 -2.4,-0.6 -5.1,-1.1 -7.9,-1.3 -2.9,-0.2 -5.9,-0.3 -8.8,-0.3 -2.9,0 -5.8,0.1 -8.5,0.2 -2.7,0.1 -5.1,0.4 -7.3,0.7 -4.3,0.5 -7.1,1.1 -7.4,1.2 -0.5,0.2 -9.6,5.8 -17.8,12.7 -4.1,3.3 -8,7.1 -10.6,10.5 z"
           id="path95"
           inkscape:connector-curvature="0" /><path
           d="m 785.7,284 c 0.2,0.1 2.6,0.9 6.3,2 0.9,0.3 1.9,0.6 3,0.9 1,0.3 2.1,0.7 3.3,1 2.3,0.7 4.7,1.4 7.2,2.1 5.1,1.3 10.1,2.7 14.3,3.2 4.2,0.5 7.6,0.2 8.9,-1.6 2.7,-3.6 -3.2,-13.3 -10.6,-21.4 -1.8,-2.1 -3.7,-4.1 -5.6,-5.8 -1.9,-1.8 -3.6,-3.4 -5.2,-4.8 -1.5,-1.4 -2.9,-2.5 -3.8,-3.3 -1,-0.8 -1.6,-1.2 -1.7,-1.3 -0.2,-0.1 -2.9,-1 -6.8,-2 -2,-0.5 -4.2,-1.1 -6.7,-1.7 -2.4,-0.5 -5.1,-0.9 -7.7,-1.3 -10.5,-1.6 -21.3,-1 -22.9,3.2 -0.9,2.1 0.5,5 3.1,8 2.5,3.2 6,6.7 9.8,9.9 3.6,3.4 7.3,6.5 10.2,8.8 2.8,2.4 4.7,4 4.9,4.1 z"
           id="path97"
           inkscape:connector-curvature="0" /><path
           d="m 735.5,248 c -1.3,-0.6 -3,-0.9 -5,-1.1 -4,-0.4 -8.9,-0.2 -13.8,0.7 -4.9,0.8 -9.6,1.9 -13.1,2.9 -3.6,1.1 -5.9,2 -6.1,2.1 -0.4,0.2 -8.3,6.7 -15.1,14.3 -7,7.8 -13,16.6 -11.8,20.3 0.6,1.8 3,2.1 6.2,1.9 1.6,-0.2 3.5,-0.5 5.5,-1 2,-0.5 4.2,-1.2 6.2,-1.7 4.2,-1.1 8.5,-2.5 11.9,-3.6 3.3,-1.1 5.6,-1.7 5.8,-1.8 0.4,-0.2 8.4,-6.1 16.6,-12.7 8.1,-6.5 16.3,-13.6 15.2,-17.8 -0.4,-1 -1.2,-1.9 -2.5,-2.5 z"
           id="path99"
           inkscape:connector-curvature="0" /><path
           d="m 733,298.6 c 0.1,1.1 0.3,2.6 0.5,4.3 0.4,3.5 1,8 1.6,12.3 0.6,4.5 1.3,8.8 2.3,11.9 1,3.1 2.3,5.2 4.2,5 3.9,-0.4 9.5,-9.5 13.7,-19 1.1,-2.4 2.1,-4.8 2.9,-7.1 0.9,-2.3 1.6,-4.4 2.2,-6.2 1.2,-3.7 1.9,-6.2 1.9,-6.5 0,-0.2 -0.1,-2.7 -0.6,-6.4 -0.4,-3.8 -1.4,-8.4 -2.6,-13.3 -0.6,-2.4 -1.4,-4.8 -2.2,-7.1 -0.9,-2.2 -1.8,-4.2 -2.8,-5.9 -2,-3.5 -4.2,-5.7 -6.3,-5.4 -4.4,0.7 -7.5,11 -10.2,21.2 -2.6,10.2 -4.8,19.9 -4.8,20.3 0,0.2 0,0.8 0.2,1.9 z"
           id="path101"
           inkscape:connector-curvature="0" /><path
           d="m 675.2,211.9 c 1.7,1.8 3.5,3.6 5.4,5.3 1.9,1.7 3.7,3.3 5.5,4.8 1.7,1.6 3.4,3 4.8,4.3 2.8,2.5 4.8,4 4.9,4.1 0.1,0.1 0.7,0.3 1.8,0.6 1.1,0.3 2.5,0.8 4.3,1.4 1.7,0.6 3.8,1.2 6,1.8 1.1,0.3 2.2,0.6 3.4,0.9 1.2,0.3 2.3,0.7 3.5,1 2.4,0.7 4.8,1.3 7.1,1.8 1.2,0.2 2.3,0.5 3.4,0.6 1.1,0.2 2.1,0.4 3.1,0.5 4,0.5 7.2,0.1 8.6,-1.7 1.4,-1.9 0.7,-5.1 -1.1,-8.9 -1.8,-3.9 -5,-8.1 -8.4,-12.1 -1.7,-2 -3.5,-4.1 -5.3,-5.8 -1.8,-1.7 -3.5,-3.3 -5,-4.7 -3,-2.7 -5.2,-4.5 -5.4,-4.7 -0.2,-0.2 -2.9,-1 -6.8,-2.1 -3.9,-1.1 -9.1,-2.5 -14.5,-3.2 -10.6,-1.8 -21.6,-1.4 -23.2,2.8 -0.8,2.1 0.7,5.1 3.3,8.3 1.3,1.6 2.9,3.2 4.6,5 z"
           id="path103"
           inkscape:connector-curvature="0" /><path
           d="m 905.2,392.2 c 9.5,-4.8 18.2,-10.9 18.6,-11.3 0.2,-0.2 1.8,-2.6 3.9,-6.3 1.1,-1.9 2.3,-4 3.5,-6.4 1.2,-2.4 2.4,-5 3.5,-7.6 2.2,-5.3 4.2,-11.1 5,-15.9 0.7,-4.8 0.4,-8.9 -1.5,-10.8 -3.9,-3.9 -13.5,1.4 -22.3,7.6 -8.8,6.2 -16.9,13 -17.2,13.4 -0.3,0.4 -5.3,9.9 -10.3,19.6 -1.2,2.4 -2.4,4.9 -3.4,7.2 -1,2.3 -1.8,4.6 -2.6,6.6 -1.4,4.1 -1.7,7.4 -0.2,9 3.1,3.4 13.5,-0.2 23,-5.1 z"
           id="path105"
           inkscape:connector-curvature="0" /><path
           d="m 963.1,437.4 c -0.6,-1.7 -1.9,-3.7 -3.3,-5.6 -3,-4 -7.2,-8.3 -11.7,-12.1 -9.2,-7.6 -18.6,-13.2 -19.1,-13.4 -0.5,-0.2 -11.2,-1.8 -21.9,-1.7 -10.7,0 -21.6,1.6 -22.8,6 -0.6,2.2 1.3,4.9 4.3,7.9 3,3 7.3,6.3 11.7,9.4 2.2,1.6 4.4,3.1 6.5,4.6 2.1,1.5 4,2.8 5.7,4 3.4,2.3 5.8,3.9 6,4 0.2,0.1 2.9,0.7 7,1.6 4,0.8 9.2,1.9 14.5,2.7 10.6,1.6 21.7,2.3 23.4,-2.8 0.5,-1.3 0.4,-2.8 -0.3,-4.6 z"
           id="path107"
           inkscape:connector-curvature="0" /><path
           d="m 870.2,427.7 c -0.1,4 0.6,8.9 1.1,13.8 1.5,9.7 3.1,19.3 3.3,19.7 0,0.1 0.4,0.7 1,1.7 0.6,1 1.5,2.3 2.5,3.9 2,3.2 4.8,7.4 7.8,11.7 5.7,8.5 12.4,17.2 16.8,16.2 2.2,-0.6 3.7,-3.6 4.6,-7.9 0.4,-2.1 0.8,-4.6 1,-7.2 0.2,-2.6 0.1,-5.4 0,-8.1 -0.1,-2.7 -0.3,-5.5 -0.5,-8 -0.2,-2.6 -0.6,-4.9 -0.9,-7 -0.7,-4.1 -1.2,-6.8 -1.3,-7.1 -0.1,-0.2 -1.4,-2.7 -3.9,-6 -2.4,-3.3 -5.6,-7.6 -9.1,-11.6 -7.4,-7.9 -15.5,-14.5 -19.7,-12.3 -1.8,1.1 -2.6,4.2 -2.7,8.2 z"
           id="path109"
           inkscape:connector-curvature="0" /><path
           d="m 798.5,400.6 c 4.1,1.8 8.2,3.5 11.4,4.9 3.2,1.3 5.4,2.3 5.7,2.3 0.2,0 2.8,0.2 6.7,0.4 3.8,0.2 8.9,0.5 14.1,0.6 10.4,0.2 21.4,0 23.1,-3.9 0.9,-2 -0.6,-4.7 -3.3,-7.6 -2.8,-2.9 -6.9,-5.8 -11.1,-8.4 -1,-0.6 -2.1,-1.3 -3.1,-1.9 -1.1,-0.6 -2.1,-1.1 -3.2,-1.6 -2.1,-1 -4,-1.9 -5.7,-2.7 -3.4,-1.5 -5.7,-2.3 -5.9,-2.4 -0.2,0 -2.8,-0.1 -6.8,0.1 -3.9,0.2 -9,0.5 -14.2,1.3 -10.3,1.4 -20.5,4.3 -22,8 -1.4,3.7 6.4,7.2 14.3,10.9 z"
           id="path111"
           inkscape:connector-curvature="0" /><path
           d="m 860.9,436.2 c 2,-4.5 3.8,-9.2 4.6,-13.2 0.6,-3.9 0.3,-7 -1.5,-8.2 -3.7,-2.3 -12.9,3.6 -21.4,9.6 -8.4,6 -16.5,12.2 -16.8,12.5 -0.2,0.2 -1.5,2.2 -3.4,5.1 -0.9,1.4 -2,3.1 -3.1,4.9 -1.2,1.8 -2.4,3.7 -3.6,5.6 -4.5,7.5 -9,14.9 -5.7,17.1 3.3,2.2 13.4,-1.1 22.7,-5.7 4.7,-2.3 9.1,-4.8 12.5,-6.9 3.4,-2.1 5.5,-3.6 5.7,-3.7 0.2,-0.2 1.6,-2.2 3.6,-5.3 1,-1.6 2.1,-3.4 3.2,-5.4 1,-2 2.3,-4.2 3.2,-6.4 z"
           id="path113"
           inkscape:connector-curvature="0" /><path
           d="m 838.8,319.7 c -2,1.1 -2.7,4.3 -2.8,8.5 -0.1,4.2 0.4,9.3 1.1,14.3 0.6,5 1.3,9.9 2,13.6 0.4,1.8 0.5,3.4 0.7,4.5 0.2,1.1 0.3,1.8 0.3,1.9 0.1,0.2 1.4,2.3 3.4,5.4 0.5,0.8 1.1,1.6 1.7,2.5 0.6,0.9 1.1,1.8 1.8,2.8 1.2,1.9 2.6,3.9 4,5.9 0.7,1 1.5,2 2.2,3 0.7,1 1.4,2 2.1,2.9 1.4,1.9 2.9,3.6 4.3,5.1 1.4,1.4 2.8,2.6 4.1,3.3 1.3,0.8 2.5,1.1 3.6,0.8 4.6,-1.1 6.2,-11.5 6.2,-22.3 -0.1,-5.3 -0.6,-10.6 -1.1,-14.6 -0.6,-4 -1.2,-6.7 -1.3,-6.9 -0.1,-0.2 -1.5,-2.6 -3.7,-6 -2.3,-3.4 -5.6,-7.6 -9,-11.8 -1.7,-2.1 -3.7,-4 -5.5,-5.7 -1.9,-1.8 -3.7,-3.3 -5.4,-4.6 -0.9,-0.6 -1.7,-1.2 -2.5,-1.6 -0.8,-0.4 -1.6,-0.8 -2.4,-1 -1.5,-0.6 -2.8,-0.6 -3.8,0 z"
           id="path115"
           inkscape:connector-curvature="0" /></g></g></switch></svg>