<?xml version="1.0" encoding="UTF-8" standalone="no"?>
<svg
   xmlns:dc="http://purl.org/dc/elements/1.1/"
   xmlns:cc="http://creativecommons.org/ns#"
   xmlns:rdf="http://www.w3.org/1999/02/22-rdf-syntax-ns#"
   xmlns:svg="http://www.w3.org/2000/svg"
   xmlns="http://www.w3.org/2000/svg"
   xmlns:sodipodi="http://sodipodi.sourceforge.net/DTD/sodipodi-0.dtd"
   xmlns:inkscape="http://www.inkscape.org/namespaces/inkscape"
   version="1.1"
   id="Layer_1"
   x="0px"
   y="0px"
   viewBox="0 0 1000 1000"
   width="100%"
   height="100%"
   style="enable-background:new 0 0 1000 1000;"
   xml:space="preserve"
   ><switch
     id="switch3"
     transform="translate(-27.5,13)"><g
       id="g5"><g
         id="g7"><path
           d="m 808,542.3 c -0.4,2.9 -1.2,5.6 -1.8,8.4 -0.7,2.8 -1.3,5.6 -2,8.4 27.6,6.2 55.2,12.2 82.9,17.9 l 2.1,-9.2 c 0.7,-3.1 1.5,-6.1 2,-9.2 l 1.7,-9.3 c 0.5,-3.1 1.1,-6.2 1.5,-9.3 -27.8,-5.2 -55.7,-10.1 -83.5,-14.8 -0.7,5.8 -1.9,11.4 -2.9,17.1 z"
           id="path9"
           inkscape:connector-curvature="0" /><path
           d="m 791.7,596.4 c -0.8,2.3 -1.9,4.4 -2.9,6.6 l -3,6.6 c -2.1,4.4 -4.4,8.6 -6.5,12.9 24.5,14.3 48.7,28.7 72.8,43.4 1.8,-2.9 3.2,-6.1 4.8,-9.1 l 4.7,-9.2 4.3,-9.4 2.1,-4.7 1.1,-2.4 1,-2.4 c 2.7,-7 5.6,-13.8 7.9,-20.9 l 3.6,-10.6 3.1,-10.8 c -27.5,-6.4 -55,-13.1 -82.4,-20.1 -3,10.3 -6.6,20.3 -10.6,30.1 z"
           id="path11"
           inkscape:connector-curvature="0" /><path
           d="m 765.5,645.4 c -1.5,2.4 -3.3,4.7 -4.9,7.1 -1.7,2.3 -3.3,4.8 -5.1,7 23.1,16.3 46.3,32.5 69.7,48.3 3.6,-5.1 7.4,-10.2 10.8,-15.4 l 5.1,-7.9 c 1.7,-2.6 3.4,-5.3 4.9,-8 -23.7,-15.5 -47.5,-30.8 -71.4,-45.8 -2.7,5.1 -6,9.8 -9.1,14.7 z"
           id="path13"
           inkscape:connector-curvature="0" /><path
           d="m 748.4,668.6 c -0.8,1 -1.7,2 -2.6,3 l -5.2,6 c -1.7,2.1 -3.6,3.9 -5.4,5.8 l -5.5,5.8 -10.5,10 c -3.7,3.1 -7.3,6.4 -11,9.4 17.1,22.5 34.1,45.1 50.8,67.9 l 4,-3.2 c 1.3,-1.1 2.6,-2.2 3.9,-3.3 l 7.8,-6.7 c 2.6,-2.2 5,-4.7 7.5,-7 l 7.4,-7.1 c 10.4,-10.7 20.5,-21.7 29.6,-33.5 -23,-16.5 -45.7,-33.2 -68.4,-50.2 l -2.4,3.1 z"
           id="path15"
           inkscape:connector-curvature="0" /><path
           d="m 693.8,719.5 c -2.4,1.7 -4.7,3.4 -7.1,5 l -7.3,4.7 -3.6,2.3 -3.7,2.1 c 15.1,23.9 30.4,47.7 46,71.3 5.4,-3.2 10.6,-6.7 15.9,-10.1 5.2,-3.6 10.2,-7.2 15.4,-10.9 -16,-23.4 -32.2,-46.6 -48.6,-69.6 -2.3,1.9 -4.7,3.5 -7,5.2 z"
           id="path17"
           inkscape:connector-curvature="0" /><path
           d="m 658.5,741.1 -7.1,3.6 -7.2,3.3 -3.6,1.6 -1.8,0.8 -1.8,0.7 -6.7,2.7 c -2.2,0.9 -4.5,1.8 -6.8,2.5 l -6.9,2.3 c -2.3,0.8 -4.6,1.6 -6.9,2.2 7.2,27.3 14.2,54.7 20.8,82.2 13.2,-3.7 26.2,-8.4 38.9,-13.6 1.7,-0.7 3.5,-1.4 5.2,-2.2 l 5.1,-2.3 c 3.4,-1.6 6.8,-3 10.2,-4.7 l 10,-5.1 c 1.7,-0.9 3.3,-1.7 5,-2.6 l 4.9,-2.8 c -14.9,-24 -29.6,-48.1 -44.1,-72.4 -2.5,1.5 -4.9,2.6 -7.2,3.8 z"
           id="path19"
           inkscape:connector-curvature="0" /><path
           d="m 592.2,765.5 c -2.8,0.6 -5.6,1.4 -8.4,1.9 l -8.5,1.5 -4.2,0.8 -4.3,0.5 c 4.8,27.9 9.8,55.7 15.1,83.5 6.2,-0.9 12.4,-2.1 18.5,-3.2 6.2,-1.2 12.2,-2.8 18.4,-4.1 -5.8,-27.6 -11.8,-55.3 -18.1,-82.9 -2.8,0.8 -5.7,1.3 -8.5,2 z"
           id="path21"
           inkscape:connector-curvature="0" /><path
           d="m 551.3,771.9 -7.9,0.6 c -5.3,0.2 -10.6,0.3 -15.9,0.5 l -14.5,-0.4 -14.5,-1.1 c -3.7,28 -7.8,56 -12.1,83.9 3.4,0.5 6.8,0.7 10.2,0.9 l 10.3,0.8 c 6.8,0.3 13.7,0.4 20.5,0.6 l 11.2,-0.3 c 3.7,-0.1 7.4,-0.1 11.2,-0.5 7.4,-0.6 14.9,-0.9 22.3,-2 -4.5,-27.9 -8.8,-55.8 -12.8,-83.8 -2.7,0.4 -5.4,0.5 -8,0.8 z"
           id="path23"
           inkscape:connector-curvature="0" /><path
           d="m 472.1,767.5 c -2.9,-0.4 -5.6,-1.2 -8.4,-1.8 -2.8,-0.7 -5.6,-1.3 -8.4,-2 -6.2,27.6 -12.2,55.2 -17.9,82.9 l 9.2,2.1 c 3.1,0.7 6.1,1.5 9.2,2 l 9.3,1.7 c 3.1,0.5 6.2,1.1 9.3,1.5 5.2,-27.8 10.1,-55.7 14.8,-83.5 -5.8,-0.7 -11.4,-1.9 -17.1,-2.9 z"
           id="path25"
           inkscape:connector-curvature="0" /><path
           d="m 418,751.2 c -2.3,-0.8 -4.4,-1.9 -6.6,-2.9 l -6.6,-3 c -4.4,-2.1 -8.6,-4.4 -12.9,-6.5 -14.3,24.5 -28.7,48.7 -43.4,72.8 2.9,1.8 6.1,3.2 9.1,4.8 l 9.2,4.7 9.4,4.3 4.7,2.1 2.4,1.1 2.4,1 c 7,2.7 13.8,5.6 20.9,7.9 l 10.6,3.6 10.8,3.1 c 6.4,-27.5 13.1,-55 20.1,-82.4 -10.3,-3 -20.3,-6.6 -30.1,-10.6 z"
           id="path27"
           inkscape:connector-curvature="0" /><path
           d="m 369.1,725.1 c -2.4,-1.5 -4.7,-3.3 -7.1,-4.9 -2.3,-1.7 -4.8,-3.3 -7,-5.1 -16.3,23.1 -32.5,46.3 -48.3,69.7 5.1,3.6 10.2,7.4 15.4,10.8 l 7.9,5.1 c 2.6,1.7 5.3,3.4 8,4.9 15.5,-23.7 30.8,-47.5 45.8,-71.4 -5.1,-2.8 -9.9,-6.1 -14.7,-9.1 z"
           id="path29"
           inkscape:connector-curvature="0" /><path
           d="m 345.9,707.9 c -1,-0.8 -2,-1.7 -3,-2.6 l -6,-5.2 c -2.1,-1.7 -3.9,-3.6 -5.8,-5.4 l -5.8,-5.5 -10,-10.5 c -3.1,-3.7 -6.4,-7.3 -9.4,-11 -22.5,17.1 -45.1,34.1 -67.9,50.8 l 3.2,4 c 1.1,1.3 2.2,2.6 3.3,3.9 l 6.7,7.8 c 2.2,2.6 4.7,5 7,7.5 l 7.1,7.4 c 10.7,10.4 21.7,20.5 33.5,29.6 16.5,-23 33.2,-45.7 50.2,-68.4 l -3.1,-2.4 z"
           id="path31"
           inkscape:connector-curvature="0" /><path
           d="m 294.9,653.3 c -1.7,-2.4 -3.4,-4.7 -5,-7.1 l -4.7,-7.3 -2.3,-3.6 -2.1,-3.7 c -23.9,15.1 -47.7,30.4 -71.3,46 3.2,5.4 6.7,10.6 10.1,15.9 3.6,5.2 7.2,10.2 10.9,15.4 23.4,-16 46.5,-32.2 69.6,-48.6 -1.9,-2.2 -3.5,-4.7 -5.2,-7 z"
           id="path33"
           inkscape:connector-curvature="0" /><path
           d="m 273.3,618 -3.6,-7.1 -3.3,-7.2 -1.6,-3.6 -0.8,-1.8 -0.7,-1.8 -2.7,-6.7 c -0.9,-2.2 -1.8,-4.5 -2.5,-6.8 l -2.3,-6.9 c -0.8,-2.3 -1.6,-4.6 -2.2,-6.9 -27.3,7.2 -54.7,14.2 -82.2,20.8 3.7,13.2 8.4,26.2 13.6,38.9 0.7,1.7 1.4,3.5 2.2,5.1 l 2.3,5.1 c 1.6,3.4 3,6.8 4.7,10.2 l 5.1,10 c 0.9,1.7 1.7,3.3 2.6,5 l 2.8,4.9 c 24,-14.9 48.1,-29.6 72.4,-44.1 -1.5,-2.4 -2.6,-4.8 -3.8,-7.1 z"
           id="path35"
           inkscape:connector-curvature="0" /><path
           d="m 249,551.7 c -0.6,-2.8 -1.4,-5.6 -1.9,-8.4 l -1.5,-8.5 -0.8,-4.2 -0.5,-4.3 c -27.9,4.8 -55.7,9.8 -83.5,15.1 0.9,6.2 2.1,12.4 3.2,18.5 1.2,6.2 2.8,12.2 4.1,18.4 27.6,-5.8 55.3,-11.8 82.9,-18.1 -0.9,-2.8 -1.4,-5.7 -2,-8.5 z"
           id="path37"
           inkscape:connector-curvature="0" /><path
           d="m 242.6,510.8 -0.6,-7.9 c -0.2,-5.3 -0.3,-10.6 -0.5,-15.9 l 0.4,-14.5 1.1,-14.5 c -28,-3.7 -56,-7.8 -83.9,-12.1 -0.5,3.4 -0.7,6.8 -0.9,10.2 l -0.8,10.3 c -0.3,6.8 -0.4,13.7 -0.6,20.5 l 0.3,11.2 c 0.1,3.7 0.1,7.4 0.5,11.2 0.6,7.4 0.9,14.9 2,22.3 27.9,-4.5 55.8,-8.8 83.8,-12.8 -0.5,-2.7 -0.6,-5.3 -0.8,-8 z"
           id="path39"
           inkscape:connector-curvature="0" /><path
           d="m 246.9,431.6 c 0.4,-2.9 1.2,-5.6 1.8,-8.4 0.7,-2.8 1.3,-5.6 2,-8.4 -27.6,-6.2 -55.2,-12.2 -82.9,-17.9 l -2.1,9.2 c -0.7,3.1 -1.5,6.1 -2,9.2 l -1.7,9.3 c -0.5,3.1 -1.1,6.2 -1.5,9.3 27.8,5.2 55.7,10.1 83.5,14.8 0.7,-5.8 1.9,-11.4 2.9,-17.1 z"
           id="path41"
           inkscape:connector-curvature="0" /><path
           d="m 263.2,377.5 c 0.8,-2.3 1.9,-4.4 2.9,-6.6 l 3,-6.6 c 2.1,-4.4 4.4,-8.6 6.5,-12.9 -24.5,-14.3 -48.7,-28.7 -72.8,-43.4 -1.8,2.9 -3.2,6.1 -4.8,9.1 l -4.7,9.2 -4.3,9.4 -2.1,4.7 -1.1,2.3 -1,2.4 c -2.7,7 -5.6,13.8 -7.9,20.9 l -3.6,10.6 -3.1,10.8 c 27.5,6.4 55,13.1 82.4,20.1 3,-10.2 6.7,-20.2 10.6,-30 z"
           id="path43"
           inkscape:connector-curvature="0" /><path
           d="m 289.4,328.6 c 1.5,-2.4 3.3,-4.7 4.9,-7.1 1.7,-2.3 3.3,-4.8 5.1,-7 -23.1,-16.3 -46.3,-32.5 -69.7,-48.3 -3.6,5.1 -7.4,10.2 -10.8,15.4 l -5.1,7.9 c -1.7,2.6 -3.4,5.3 -4.9,8 23.7,15.5 47.5,30.8 71.4,45.8 2.7,-5.1 6,-9.8 9.1,-14.7 z"
           id="path45"
           inkscape:connector-curvature="0" /><path
           d="m 306.6,305.4 c 0.8,-1 1.7,-2 2.6,-3 l 5.2,-6 c 1.7,-2.1 3.6,-3.9 5.4,-5.8 l 5.5,-5.8 10.5,-10 c 3.7,-3.1 7.3,-6.4 11,-9.4 -17.1,-22.5 -34.1,-45.1 -50.8,-67.9 l -4,3.2 c -1.3,1.1 -2.6,2.2 -3.9,3.3 l -7.8,6.7 c -2.6,2.2 -5,4.7 -7.5,7 l -7.4,7.1 c -10.4,10.7 -20.5,21.7 -29.6,33.5 23,16.5 45.7,33.2 68.4,50.2 l 2.4,-3.1 z"
           id="path47"
           inkscape:connector-curvature="0" /><path
           d="m 361.1,254.4 c 2.4,-1.7 4.7,-3.4 7.1,-5 l 7.3,-4.7 3.6,-2.3 3.7,-2.2 c -15.1,-23.9 -30.4,-47.7 -46,-71.3 -5.4,3.2 -10.6,6.7 -15.9,10.1 -5.2,3.6 -10.2,7.2 -15.4,10.9 16,23.4 32.2,46.6 48.6,69.6 2.3,-1.8 4.7,-3.4 7,-5.1 z"
           id="path49"
           inkscape:connector-curvature="0" /><path
           d="m 396.5,232.8 7.1,-3.6 7.2,-3.3 3.6,-1.6 1.8,-0.8 1.8,-0.7 6.7,-2.7 c 2.2,-0.9 4.5,-1.8 6.8,-2.5 l 6.9,-2.3 c 2.3,-0.8 4.6,-1.6 6.9,-2.2 -7.2,-27.3 -14.2,-54.7 -20.8,-82.2 -13.2,3.7 -26.2,8.4 -38.9,13.6 -1.7,0.7 -3.5,1.4 -5.2,2.2 l -5.1,2.3 c -3.4,1.6 -6.8,3 -10.2,4.7 l -10,5.1 c -1.7,0.9 -3.3,1.7 -5,2.6 l -4.9,2.8 c 14.9,24 29.6,48.1 44.1,72.4 2.4,-1.5 4.8,-2.6 7.2,-3.8 z"
           id="path51"
           inkscape:connector-curvature="0" /><path
           d="m 462.7,208.5 c 2.8,-0.6 5.6,-1.4 8.4,-1.9 l 8.5,-1.5 4.2,-0.8 4.3,-0.5 c -4.8,-27.9 -9.8,-55.7 -15.1,-83.5 -6.2,0.9 -12.4,2.1 -18.5,3.2 -6.2,1.2 -12.2,2.8 -18.4,4.1 5.8,27.6 11.8,55.3 18.1,82.9 2.9,-0.9 5.7,-1.4 8.5,-2 z"
           id="path53"
           inkscape:connector-curvature="0" /><path
           d="m 503.6,202.1 7.9,-0.6 c 5.3,-0.2 10.6,-0.3 15.9,-0.5 l 14.5,0.4 14.5,1.1 c 3.7,-28 7.8,-56 12.1,-83.9 -3.4,-0.5 -6.8,-0.7 -10.2,-0.9 L 548,116.9 c -6.8,-0.3 -13.7,-0.4 -20.5,-0.6 l -11.2,0.3 c -3.7,0.1 -7.4,0.1 -11.2,0.5 -7.4,0.6 -14.9,0.9 -22.3,2 4.5,27.9 8.8,55.8 12.8,83.8 2.7,-0.5 5.4,-0.6 8,-0.8 z"
           id="path55"
           inkscape:connector-curvature="0" /><path
           d="m 582.8,206.4 c 2.9,0.4 5.6,1.2 8.4,1.8 2.8,0.7 5.6,1.3 8.4,2 6.2,-27.6 12.2,-55.2 17.9,-82.9 l -9.2,-2.1 c -3.1,-0.7 -6.1,-1.5 -9.2,-2 l -9.3,-1.7 c -3.1,-0.5 -6.2,-1.1 -9.3,-1.5 -5.2,27.8 -10.1,55.7 -14.8,83.5 5.8,0.7 11.4,2 17.1,2.9 z"
           id="path57"
           inkscape:connector-curvature="0" /><path
           d="m 636.9,222.7 c 2.3,0.8 4.4,1.9 6.6,2.9 l 6.6,3 c 4.4,2.1 8.6,4.4 12.9,6.5 14.3,-24.5 28.7,-48.7 43.4,-72.8 -2.9,-1.8 -6.1,-3.2 -9.1,-4.8 l -9.2,-4.7 -9.4,-4.3 -4.7,-2.1 -2.3,-1.1 -2.4,-1 c -7,-2.7 -13.8,-5.6 -20.9,-7.9 l -10.6,-3.6 -10.8,-3.1 c -6.4,27.5 -13.1,55 -20.1,82.4 10.2,3 20.2,6.7 30,10.6 z"
           id="path59"
           inkscape:connector-curvature="0" /><path
           d="m 685.9,248.9 c 2.4,1.5 4.7,3.3 7.1,4.9 2.3,1.7 4.8,3.3 7,5.1 16.3,-23.1 32.5,-46.3 48.3,-69.7 -5.1,-3.6 -10.2,-7.4 -15.4,-10.8 l -7.9,-5.1 c -2.6,-1.7 -5.3,-3.4 -8,-4.9 -15.5,23.7 -30.8,47.5 -45.8,71.4 5.1,2.7 9.8,6 14.7,9.1 z"
           id="path61"
           inkscape:connector-curvature="0" /><path
           d="m 709.1,266.1 c 1,0.8 2,1.7 3,2.6 l 6,5.2 c 2.1,1.7 3.9,3.6 5.8,5.4 l 5.8,5.5 10,10.5 c 3.1,3.7 6.4,7.3 9.4,11 22.5,-17.1 45.1,-34.1 67.9,-50.8 l -3.2,-4 c -1.1,-1.3 -2.2,-2.6 -3.3,-3.9 l -6.7,-7.8 c -2.2,-2.6 -4.7,-5 -7,-7.5 l -7.1,-7.4 C 779,214.5 768,204.4 756.2,195.3 739.7,218.3 723,241 706,263.7 l 3.1,2.4 z"
           id="path63"
           inkscape:connector-curvature="0" /><path
           d="m 760,320.6 c 1.7,2.4 3.4,4.7 5,7.1 l 4.7,7.3 2.3,3.6 2.1,3.7 c 23.9,-15.1 47.7,-30.4 71.3,-46 -3.2,-5.4 -6.7,-10.6 -10.1,-15.9 -3.6,-5.2 -7.2,-10.2 -10.9,-15.4 -23.4,16 -46.6,32.2 -69.6,48.6 1.9,2.3 3.5,4.7 5.2,7 z"
           id="path65"
           inkscape:connector-curvature="0" /><path
           d="m 781.6,356 3.6,7.1 3.3,7.2 1.6,3.6 0.8,1.8 0.7,1.8 2.7,6.7 c 0.9,2.2 1.8,4.5 2.5,6.8 l 2.3,6.9 c 0.8,2.3 1.6,4.6 2.2,6.9 27.3,-7.2 54.7,-14.2 82.2,-20.8 -3.7,-13.2 -8.4,-26.2 -13.6,-38.9 -0.7,-1.7 -1.4,-3.5 -2.2,-5.2 l -2.3,-5.1 c -1.6,-3.4 -3,-6.8 -4.7,-10.2 l -5.1,-10 c -0.9,-1.7 -1.7,-3.3 -2.6,-5 l -2.8,-4.9 c -24,14.9 -48.1,29.6 -72.4,44.1 1.5,2.4 2.6,4.8 3.8,7.2 z"
           id="path67"
           inkscape:connector-curvature="0" /><path
           d="m 806,422.2 c 0.6,2.8 1.4,5.6 1.9,8.4 l 1.5,8.5 0.8,4.2 0.5,4.3 c 27.9,-4.8 55.7,-9.8 83.5,-15.1 -0.9,-6.2 -2.1,-12.4 -3.2,-18.5 -1.2,-6.2 -2.8,-12.2 -4.1,-18.4 -27.6,5.8 -55.3,11.8 -82.9,18.1 0.8,2.9 1.3,5.7 2,8.5 z"
           id="path69"
           inkscape:connector-curvature="0" /><path
           d="m 897.9,475.8 c -0.1,-3.7 -0.1,-7.4 -0.5,-11.2 -0.6,-7.4 -0.9,-14.9 -2,-22.3 -27.9,4.5 -55.8,8.8 -83.8,12.8 0.4,2.6 0.5,5.3 0.7,7.9 l 0.6,7.9 c 0.2,5.3 0.3,10.6 0.5,15.9 l -0.4,14.5 -1,14.7 c 28,3.7 56,7.8 83.9,12.1 0.5,-3.4 0.7,-6.8 0.9,-10.2 l 0.8,-10.3 c 0.3,-6.8 0.4,-13.7 0.6,-20.5 l -0.3,-11.3 z"
           id="path71"
           inkscape:connector-curvature="0" /></g></g></switch></svg>