<?xml version="1.0" encoding="UTF-8" standalone="no"?>
<svg
   xmlns:dc="http://purl.org/dc/elements/1.1/"
   xmlns:cc="http://creativecommons.org/ns#"
   xmlns:rdf="http://www.w3.org/1999/02/22-rdf-syntax-ns#"
   xmlns:svg="http://www.w3.org/2000/svg"
   xmlns="http://www.w3.org/2000/svg"
   xmlns:sodipodi="http://sodipodi.sourceforge.net/DTD/sodipodi-0.dtd"
   xmlns:inkscape="http://www.inkscape.org/namespaces/inkscape"
   version="1.1"
   id="Layer_1"
   x="0px"
   y="0px"
   viewBox="0 0 1000 1000"
   width="100%"
   height="100%"
   style="enable-background:new 0 0 1000 1000;"
   xml:space="preserve"
   ><switch
     id="switch3"
     transform="translate(-47.264417,4.4586975)"><g
       id="g5"><g
         id="g7"><path
           d="m 883.7,518 c 0,-1.6 0.1,-3.2 0.1,-4.8 l -0.1,-4.8 c 0,-1 -1.1,-1.9 -2.1,-1.3 l -6.4,4.1 0.1,-3.7 c 0,-1.8 -2.7,-1.9 -2.8,-0.1 l -0.1,2.7 c -1.8,-1.6 -3.7,-3 -5.8,-4.3 -1,-0.6 -2,0.1 -2.1,1.1 -0.5,6.1 -0.2,12.3 -0.2,18.4 0,0.7 0.3,1.1 0.9,1.4 2.2,1.1 4.1,2.4 5.7,4.1 -2,20 -6.1,39.7 -11.8,58.9 l -0.2,0 c -1.2,0.3 -1.9,1.5 -1.8,2.7 0,0.7 0.3,1.2 0.7,1.6 l -1.7,5.2 c -2.5,-0.8 -4.9,-1.8 -7.4,-2.8 -1.2,-0.5 -2.2,0.9 -1.7,1.9 l 0.6,1.3 c 0.6,2.9 1.2,5.9 1.4,8.9 0.2,3 0.3,6 0.2,9.1 0,0.8 0.7,1.8 1.6,1.5 2.7,-0.8 4.3,-3.6 6.1,-5.7 1.4,-1.6 2.7,-3.2 3.9,-4.9 l 3.8,-5 c 0.5,-0.7 0.2,-2 -0.7,-2.1 -1.8,-0.4 -3.6,-0.9 -5.3,-1.4 l 1.8,-5.3 c 0.7,-0.2 1.3,-0.8 1.5,-1.8 0,-0.2 0,-0.4 0,-0.7 0.1,-0.4 0.1,-0.8 -0.1,-1.2 -0.1,-0.1 -0.2,-0.2 -0.3,-0.4 5.7,-19.2 9.8,-38.9 11.8,-58.8 3,-1.4 8,-3.1 9.5,-6.1 1.3,-1.9 0.8,-5.5 0.9,-7.7 z"
           id="path9"
           inkscape:connector-curvature="0" /><path
           d="m 848.4,637.1 c -1.8,-0.7 -3.3,-0.4 -4.8,0.1 l 1.2,-2.7 c 0.7,-1.6 -1.8,-2.8 -2.5,-1.2 l -1.3,2.9 c -1.1,-3.6 -3.3,-7.8 -6.4,-4.5 -0.8,0.9 -1.2,2 -1.3,3.1 -0.1,1.1 0,2.3 0.1,3.4 0.5,3.5 1,7 1,10.7 0,0.1 -0.1,0.3 -0.1,0.4 -1.7,3.6 -3.9,7 -5.8,10.4 -2,3.5 -3.9,6.9 -6.2,10.3 -2.2,3.3 -4.3,6.7 -6.5,10 l -6.9,9.7 c -9.5,12.8 -19.8,25.1 -31,36.4 0.2,-2.2 0.4,-4.3 0.6,-6.4 0.1,-0.6 -0.2,-1.1 -0.6,-1.4 -0.5,-1 -1.9,-1.4 -2.4,-0.2 -2.5,6.9 -5.5,13.5 -8.4,20.5 -0.6,1.4 1.3,2.2 2.3,1.4 5.7,-4.4 12.1,-7.7 18.7,-10.6 1.7,-0.7 1,-3 -0.7,-2.7 l -1.4,0.2 -0.1,0 -5.7,0.8 8.2,-8.6 c 2.7,-2.9 5.2,-6 7.8,-9 1.3,-1.5 2.6,-3 3.9,-4.5 l 3.7,-4.7 3.7,-4.7 c 1.2,-1.5 2.5,-3.1 3.6,-4.8 l 6.9,-9.7 c 2.2,-3.3 4.3,-6.7 6.5,-10 1.1,-1.7 2.2,-3.3 3.2,-5 l 3,-5.2 3,-5.2 c 1,-1.7 2,-3.4 2.9,-5.2 0.4,-0.2 0.8,-0.6 0.8,-1.2 2.9,-1.7 5.9,-3 8.9,-4.4 1.8,-0.9 4.7,-2.3 5.2,-4.5 0.5,-1.8 -1.4,-3.2 -3.1,-3.9 z"
           id="path11"
           inkscape:connector-curvature="0" /><path
           d="m 761.8,748.6 c -1.2,-0.3 -2.4,-0.6 -3.6,-0.8 l 0.8,-0.7 c 1.4,-1.2 -0.5,-3.3 -1.8,-2.1 l -0.3,0.2 c 0.2,-1.5 0.4,-3 0.4,-4.5 0,-1.3 -1.3,-1.8 -2.3,-1.2 -1.4,0.9 -3.8,1.9 -4.2,3.7 -0.4,2.4 -0.3,5 -0.5,7.4 l -1.2,1 c -0.3,-2.1 -0.1,-4.2 0.1,-6.3 0.1,-1.3 -1.3,-1.9 -2.3,-1.2 -1.5,1 -4.3,2 -4.7,4 -0.4,2.6 0,5.8 0,8.6 0,0.1 0,0.2 0,0.2 l -0.7,0.5 c -0.6,-1.9 -0.9,-3.9 -0.9,-6 0,-1.4 -1.5,-2.1 -2.5,-1 -1.3,1.5 -4.2,1.9 -4.2,4.2 -0.1,2.5 0.4,5.2 0.7,7.8 -16.8,12 -34.7,22.4 -53.5,31 -0.2,-0.3 -0.5,-0.7 -0.7,-1 -1.1,-1.4 -3.2,0.3 -2.1,1.8 l 0.3,0.4 -1.7,0.8 -0.4,-0.8 c -0.8,-1.6 -3.4,-0.4 -2.5,1.1 l 0.4,0.8 -2.3,1 -0.4,-0.6 c -1,-1.5 -3.2,0.2 -2.2,1.6 l -3.9,1.5 c 0,-1.3 0.3,-2.6 0.6,-3.6 0.4,-1.2 -0.9,-2.6 -2.1,-1.7 -2.4,1.9 -4.7,3.8 -7,5.8 -2.3,1.9 -4.7,3.8 -7.1,5.8 -1.2,1 -0.4,2.8 1.2,2.5 2.9,-0.7 5.8,-0.6 8.7,-0.5 2.9,0 5.9,0.2 8.8,0 1.4,-0.1 1.5,-1.7 0.8,-2.4 -0.2,-0.4 -0.5,-0.7 -1,-0.8 -1.3,-0.3 -2.1,-1.1 -2.6,-2.1 l 5.1,-2 1,1.5 c 1,1.5 3.3,-0.2 2.2,-1.7 l -0.6,-0.8 2,-0.9 0.5,0.9 c 0.8,1.6 3.4,0.4 2.6,-1.2 l -0.5,-0.9 1.9,-0.8 c 0.2,0.3 0.3,0.6 0.5,0.9 0.8,1.6 3.4,0.4 2.6,-1.2 l -0.5,-0.9 c 18.7,-8.6 36.7,-19 53.5,-31 0.4,0 0.9,-0.2 1.1,-0.5 0.1,0 0.1,0.1 0.2,0.1 3.4,0.5 6.5,1.4 9.8,2.3 2.5,0.6 3.6,-1.2 5.1,-3 0.6,-0.7 0.2,-1.9 -0.6,-2.1 l -7.6,-2.6 0.2,-0.2 c 0.2,0.1 0.3,0.2 0.6,0.2 2.9,0.4 5.7,1.1 8.5,2.1 0.8,0.3 1.6,0.5 2.5,0 1.3,-0.6 1.4,-2 2.4,-3 0.8,-0.8 0.6,-1.9 -0.4,-2.4 -2,-1 -4.3,-1.6 -6.5,-2.1 1.6,-0.1 3.1,0.1 4.7,0.4 1.4,0.3 2.8,0.9 4.2,0.9 2.8,0.1 2.5,-3.4 2.1,-5.3 0.1,-0.5 -0.2,-0.9 -0.7,-1.1 z"
           id="path13"
           inkscape:connector-curvature="0" /><path
           d="m 633,815 3.6,-1 c 1.7,-0.5 1,-3.2 -0.8,-2.7 l -2.6,0.7 c 1,-2.2 1.7,-4.4 2.3,-6.8 0.3,-1.1 -0.7,-1.9 -1.7,-1.7 -3,0.6 -5.9,1.5 -8.8,2.6 -2.9,1 -5.9,1.9 -8.7,2.9 -0.6,0.2 -1,0.6 -1.1,1.3 -0.3,2.5 -1,4.6 -2.2,6.7 -19.6,4.1 -39.6,6.4 -59.7,6.9 l -0.1,-0.1 c -0.7,-1 -2,-1.4 -3.1,-0.9 -0.6,0.2 -1,0.7 -1.3,1.2 -1.8,0 -3.6,0.1 -5.5,0.1 0,-2.6 0.2,-5.2 0.4,-7.9 0.1,-1.3 -1.5,-1.8 -2.3,-1 l -1,1 c -2.6,1.5 -5.3,2.8 -8.1,4 -1.4,0.6 -2.8,1.2 -4.2,1.7 -1.4,0.5 -2.9,0.9 -4.4,1.3 -0.8,0.2 -1.5,1.2 -1,2 1.6,2.3 4.8,3.2 7.3,4.1 l 11.8,4.4 c 0.8,0.3 1.9,-0.4 1.8,-1.3 -0.2,-1.8 -0.3,-3.7 -0.3,-5.5 1.9,0.1 3.8,0 5.6,-0.1 0.5,0.6 1.2,1 2.2,0.9 0.2,0 0.4,-0.1 0.6,-0.2 0.4,0 0.8,-0.1 1.1,-0.4 0.1,-0.1 0.2,-0.2 0.3,-0.4 20,-0.5 40,-2.7 59.6,-6.8 2.2,2.3 5.4,6.6 8.7,7.1 2.2,0.4 5.5,-1.2 7.6,-1.8 3.1,-0.9 6.2,-2 9.2,-3 1,-0.3 1.5,-1.6 0.6,-2.4 L 633,815 Z"
           id="path15"
           inkscape:connector-curvature="0" /><path
           d="m 506.6,821.3 -3.1,-0.4 c 3.1,-2.1 6.4,-5.4 2.3,-7.4 -2.2,-1.1 -4.5,-0.1 -6.5,1 -3.2,1.8 -6.4,3.1 -9.9,4.2 -0.1,0 -0.3,0 -0.4,0 -15.7,-2.6 -31.2,-6.6 -46.4,-11.6 -15.2,-4.8 -29.9,-11.2 -44.2,-18.2 2.1,-0.5 4.2,-0.9 6.3,-1.3 0.6,-0.1 1,-0.5 1.1,-1 0.8,-0.8 0.7,-2.2 -0.6,-2.3 l -10.9,-0.8 c -1.8,-0.1 -3.7,-0.2 -5.5,-0.4 l -5.5,-0.6 c -1.5,-0.2 -1.7,1.9 -0.7,2.6 1.5,1.1 2.9,2.2 4.2,3.3 1.4,1.1 2.8,2.2 4.1,3.4 2.6,2.4 5.1,5 7.4,7.9 1.2,1.4 3.2,0 2.3,-1.5 -0.2,-0.4 -0.5,-0.8 -0.7,-1.3 l -0.1,-0.1 -2.5,-5.3 c 14.2,7 28.9,13.3 44,18.2 l 5.6,1.9 5.7,1.6 c 3.8,1 7.6,2.3 11.5,3.2 l 11.6,2.7 c 1.9,0.5 3.9,0.8 5.8,1.2 l 5.9,1 c 0.3,0.3 0.8,0.5 1.4,0.4 2.5,2.2 4.6,4.8 7,7.1 1.4,1.4 3.6,3.6 5.9,3.5 2.2,-0.1 2.9,-2.2 3,-4.1 0.1,-1.9 -0.6,-3.3 -1.6,-4.6 l 2.9,0.4 c 2,0.3 2.3,-2.4 0.6,-2.7 z"
           id="path17"
           inkscape:connector-curvature="0" /><path
           d="m 378.4,771.3 c -1.3,-1.1 -2.9,-3.2 -4.7,-3 -2.4,0.3 -4.9,1.2 -7.2,1.9 l -1.3,-0.8 c 1.9,-0.9 4,-1.4 6.1,-1.9 1.2,-0.3 1.4,-1.8 0.5,-2.5 -1.4,-1.1 -3.3,-3.4 -5.3,-3.1 -2.6,0.4 -5.5,1.8 -8.1,2.6 -0.1,0 -0.2,0.1 -0.2,0.1 l -0.7,-0.5 c 1.7,-1.1 3.5,-2 5.4,-2.6 1.3,-0.4 1.5,-2.1 0.2,-2.7 -1.8,-0.9 -3.1,-3.4 -5.3,-2.7 -2.4,0.7 -4.9,2 -7.2,3.1 -16.6,-12.3 -32,-26.2 -46,-41.3 0.3,-0.3 0.5,-0.6 0.8,-1 1,-1.4 -1.3,-2.9 -2.4,-1.5 l -0.3,0.4 -1.2,-1.4 0.6,-0.6 c 1.2,-1.3 -0.6,-3.4 -1.8,-2.1 l -0.6,0.6 -1.7,-1.9 0.4,-0.6 c 1.1,-1.4 -1.2,-2.9 -2.3,-1.6 l -2.8,-3.2 c 1.2,-0.4 2.6,-0.5 3.7,-0.5 1.3,-0.1 2.2,-1.7 0.9,-2.5 -5,-3.3 -10,-6.7 -15.3,-9.8 -1.3,-0.9 -2.8,0.5 -2,1.9 3.2,4.9 3.7,11 6,16.5 0.6,1.3 2.1,0.9 2.6,0 0.3,-0.3 0.5,-0.7 0.4,-1.2 -0.1,-1.4 0.4,-2.3 1.1,-3.1 l 3.6,4.1 -1.1,1.4 c -1.1,1.4 1.3,3 2.3,1.6 l 0.6,-0.8 1.4,1.6 -0.7,0.7 c -1.2,1.3 0.6,3.4 1.8,2.1 l 0.7,-0.8 1.3,1.5 c -0.2,0.3 -0.5,0.5 -0.7,0.8 -1.3,1.3 0.7,3.3 1.9,2 l 0.7,-0.8 c 14,15.2 29.4,29 46,41.3 0.1,0.4 0.4,0.7 0.9,0.9 0,0.1 0,0.1 0,0.2 0.6,3.3 0.8,6.6 0.9,10 0.1,2.6 2.2,3.1 4.3,4.1 0.8,0.4 1.8,-0.3 1.8,-1.2 l 0.2,-8.1 0.2,0.2 c 0,0.2 -0.1,0.4 0,0.6 0.6,2.9 0.6,5.9 0.6,8.8 0,0.9 0.1,1.7 0.8,2.4 1,1.1 2.4,0.7 3.6,1.3 1,0.5 2,0 2.2,-1.1 0.3,-2.2 0.2,-4.5 0,-6.7 0.6,1.4 0.9,2.9 1.1,4.5 0.2,1.4 0,3 0.4,4.3 0.8,2.7 4,1.4 5.6,0.5 0.4,-0.2 0.8,-0.7 0.7,-1.2 -0.1,-1.2 -0.2,-2.5 -0.4,-3.7 l 0.9,0.5 c 1.5,1 3,-1.4 1.5,-2.4 l -0.3,-0.2 c 1.5,-0.2 2.9,-0.5 4.4,-1 1.4,-0.2 1.4,-1.7 0.5,-2.4 z"
           id="path19"
           inkscape:connector-curvature="0" /><path
           d="m 280.2,675.7 c -1.5,-2.7 -3.2,-5.2 -5.1,-7.7 -1.8,-2.5 -3.9,-4.8 -5.6,-7.3 -0.4,-0.5 -0.9,-0.7 -1.5,-0.6 -2.4,0.5 -4.6,0.4 -7,0 -10,-17.4 -18.5,-35.7 -25.2,-54.6 l 0.1,-0.1 c 0.8,-1 0.7,-2.4 -0.1,-3.3 -0.4,-0.5 -1,-0.8 -1.5,-0.9 l -1.7,-5.2 c 2.5,-0.8 5,-1.5 7.6,-2 1.2,-0.3 1.2,-2 0.2,-2.5 l -1.2,-0.7 c -4.3,-4.1 -8.4,-8.6 -11.9,-13.7 -0.4,-0.7 -1.6,-1.1 -2.2,-0.3 -1.8,2.2 -1.3,5.5 -1.5,8.2 -0.2,4.1 -0.5,8.4 -0.6,12.6 0,0.9 1.1,1.7 1.9,1.3 1.7,-0.7 3.4,-1.4 5.1,-2 l 1.8,5.3 c -0.5,0.6 -0.6,1.5 -0.2,2.4 0.1,0.2 0.2,0.4 0.4,0.5 0.1,0.4 0.3,0.7 0.7,0.9 0.1,0.1 0.3,0.1 0.4,0.1 6.7,18.9 15.1,37.1 25,54.5 -1.5,2.8 -4.7,7.2 -4.2,10.5 0.3,2.2 3,4.8 4.2,6.6 l 5.6,7.9 c 0.6,0.8 2.1,0.9 2.4,-0.2 0.9,-2.4 1.9,-4.8 2.9,-7.1 0.7,1 1.3,2.1 2,3.1 1,1.5 3.3,-0.1 2.3,-1.6 -0.5,-0.7 -1,-1.5 -1.5,-2.3 2.3,0.3 4.7,0.3 7.2,0.1 1.3,0.2 1.8,-1 1.2,-1.9 z"
           id="path21"
           inkscape:connector-curvature="0" /><path
           d="m 224,560.2 -0.6,-3.1 c 2.9,2.3 7.1,4.4 7.7,-0.1 0.4,-2.4 -1.2,-4.3 -2.9,-5.9 -2.6,-2.5 -5.1,-5.1 -7.1,-8.1 0,-0.1 -0.1,-0.2 -0.2,-0.4 l -1.5,-11.9 c -0.4,-4 -0.6,-8 -1,-11.9 l -0.4,-6 -0.2,-6 c -0.1,-4 -0.3,-8 -0.2,-12 0.1,-16 1.4,-31.9 3.6,-47.7 1.1,1.9 2.3,3.7 3.3,5.6 0.3,0.5 0.8,0.7 1.3,0.7 0.9,0.5 2.4,0 2,-1.3 l -1.4,-5.3 -1.2,-5.3 -2.6,-10.8 c -0.4,-1.5 -2.3,-1 -2.7,0.2 -1,3.5 -2.3,6.8 -3.8,10 -0.8,1.6 -1.6,3.2 -2.5,4.8 -0.8,1.6 -1.7,3.2 -2.6,4.7 -1,1.6 1,3.1 2.2,1.7 l 1,-1 0.1,-0.1 4.1,-4 c -1,7.9 -2.2,15.7 -2.6,23.7 -0.8,7.9 -0.8,15.9 -1,23.8 -0.1,4 0.2,7.9 0.2,11.9 l 0.2,6 c 0.1,2 0.3,4 0.4,5.9 l 0.9,11.9 1.5,11.8 c -0.2,0.4 -0.3,0.9 0,1.4 -1.5,3 -3,5.8 -4.6,8.8 -0.9,1.8 -2.3,4.6 -1.6,6.7 0.7,2.1 3,2.1 4.8,1.6 1.9,-0.5 3,-1.6 3.9,-2.9 l 0.5,2.9 c 0.6,2 3.3,1.5 3,-0.3 z"
           id="path23"
           inkscape:connector-curvature="0" /><path
           d="m 219.9,419.3 c 0.3,0.3 0.9,0.5 1.4,0.3 1.1,-0.5 2.3,-1 3.4,-1.5 l -0.2,1 c -0.4,1.8 2.3,2.4 2.7,0.6 l 0.1,-0.4 c 0.7,1.3 1.5,2.6 2.3,3.9 0.7,1.1 2.1,0.7 2.5,-0.4 0.6,-1.6 2,-3.8 1.2,-5.4 -1.1,-2.2 -2.6,-4.2 -4,-6.3 l 0.4,-1.5 c 1.4,1.5 2.5,3.3 3.6,5.1 0.6,1.1 2.2,0.7 2.6,-0.3 0.7,-1.7 2.3,-4.2 1.4,-6 -1.2,-2.4 -3.4,-4.7 -5.1,-6.9 -0.1,-0.1 -0.1,-0.1 -0.2,-0.2 l 0.2,-0.8 c 1.6,1.2 3,2.7 4.2,4.3 0.8,1.1 2.4,0.8 2.6,-0.6 0.1,-1 0.7,-2 1,-3 0.4,-1 0.6,-1.9 -0.1,-2.9 -1.4,-2.1 -3.4,-4 -5.1,-5.9 6.5,-19.6 15,-38.5 25.1,-56.5 0.4,0.1 0.8,0.3 1.2,0.4 1.7,0.5 2.4,-2.1 0.7,-2.7 l -0.5,-0.2 0.9,-1.6 0.8,0.4 c 1.6,0.8 3,-1.6 1.4,-2.4 l -0.8,-0.4 1.3,-2.2 0.7,0.2 c 1.6,0.6 2.5,-2 0.8,-2.6 l 2.3,-3.6 c 0.7,1.1 1.2,2.3 1.6,3.3 0.4,1.2 2.3,1.5 2.7,0.1 0.8,-2.9 1.6,-5.8 2.3,-8.8 0.7,-3 1.6,-5.8 2.3,-8.8 0.4,-1.5 -1.4,-2.5 -2.4,-1.3 -1.9,2.3 -4.4,3.9 -6.7,5.6 -2.4,1.7 -4.9,3.3 -7.1,5.2 -1,0.9 -0.3,2.3 0.8,2.4 0.4,0.2 0.8,0.3 1.3,0.1 1.3,-0.5 2.4,-0.4 3.3,0.2 l -2.9,4.6 -1.7,-0.6 c -1.7,-0.6 -2.5,2.1 -0.8,2.7 l 1,0.3 -1.1,1.9 -0.9,-0.5 c -1.6,-0.8 -3,1.7 -1.4,2.4 l 0.9,0.5 -1,1.8 c -0.3,-0.1 -0.6,-0.3 -0.9,-0.4 -1.6,-0.8 -3,1.6 -1.4,2.4 l 1,0.4 c -10.1,18 -18.5,36.9 -25.1,56.5 -0.4,0.3 -0.6,0.6 -0.6,1.1 -0.1,0 -0.1,0 -0.2,0.1 -3,1.6 -6.1,2.7 -9.3,4 -2.4,1 -2.2,3 -2.4,5.4 -0.1,0.9 0.9,1.7 1.7,1.4 l 7.7,-2.4 -0.1,0.3 c -0.2,0 -0.4,0.1 -0.6,0.2 -2.6,1.4 -5.2,2.4 -8.1,3.3 -0.8,0.3 -1.6,0.6 -2,1.4 -0.7,1.3 0.1,2.5 -0.2,3.8 -0.2,1.1 0.6,1.9 1.7,1.7 2.2,-0.4 4.4,-1.2 6.5,-2.1 -1.2,1 -2.6,1.8 -4,2.4 -1.3,0.6 -2.8,1 -4,1.8 -2.4,1.8 -0.1,4.4 1.3,5.7 z"
           id="path25"
           inkscape:connector-curvature="0" /><path
           d="m 278.9,289.8 7.6,0.5 -2.3,2.9 c -1.1,1.4 1.1,3.1 2.2,1.7 l 1.7,-2.1 c 0.5,2.3 1.2,4.6 2.1,6.9 0.4,1 1.7,1.1 2.4,0.4 2.1,-2.2 3.9,-4.7 5.6,-7.3 1.8,-2.5 3.6,-5 5.4,-7.5 0.4,-0.5 0.4,-1.1 0.1,-1.7 -1.2,-2.2 -1.9,-4.3 -2.2,-6.7 13.5,-14.9 28.3,-28.5 44.2,-40.8 l 0.2,0.1 c 1.1,0.4 2.4,-0.1 3.1,-1.1 0.3,-0.6 0.4,-1.2 0.3,-1.7 l 4.4,-3.2 c 1.5,2.1 3,4.3 4.3,6.6 0.6,1.1 2.3,0.5 2.5,-0.5 l 0.2,-1.4 c 1.2,-2.7 2.5,-5.5 4.1,-8.1 1.6,-2.5 3.3,-5 5.2,-7.5 0.5,-0.6 0.5,-1.8 -0.4,-2.2 -2.6,-1 -5.6,0.4 -8.3,1 -4.1,0.9 -8,2.2 -12.1,3.4 -0.8,0.2 -1.3,1.5 -0.7,2.1 1.2,1.4 2.4,2.8 3.5,4.2 l -4.6,3.3 c -0.7,-0.2 -1.6,-0.1 -2.3,0.6 -0.2,0.2 -0.3,0.3 -0.4,0.5 -0.3,0.2 -0.6,0.6 -0.6,1 0,0.1 0,0.3 0,0.4 -15.9,12.2 -30.7,25.8 -44.1,40.6 -3.1,-0.6 -8.2,-2.2 -11.2,-0.7 -2,1 -3.8,4.2 -5.1,5.9 -2,2.6 -3.8,5.2 -5.7,7.9 -0.5,1.1 -0.2,2.5 0.9,2.5 z"
           id="path27"
           inkscape:connector-curvature="0" /><path
           d="m 506.7,167.2 c -3.6,0.1 -7.2,-0.1 -10.7,-0.6 -3.6,-0.5 -7.1,-1 -10.6,-1.9 -1.8,-0.5 -2.6,1.8 -1,2.6 l 1.3,0.6 0.1,0 5.1,2.8 -11.7,2.1 c -3.9,0.8 -7.7,1.8 -11.6,2.6 -1.9,0.5 -3.9,0.9 -5.8,1.4 l -5.7,1.6 -5.7,1.6 c -1.9,0.5 -3.8,1.1 -5.7,1.7 l -11.3,3.8 c -3.8,1.3 -7.4,2.9 -11.1,4.3 l -5.5,2.2 -5.4,2.4 c -3.6,1.7 -7.3,3.2 -10.8,5 -0.5,-0.1 -1,0.1 -1.3,0.5 -3.3,-0.3 -6.5,-1 -9.8,-1.6 -2,-0.3 -5.1,-0.9 -6.9,0.5 -1.7,1.4 -1,3.6 0,5.1 1.1,1.6 2.5,2.3 4,2.8 l -2.6,1.5 c -1.6,0.9 -0.2,3.3 1.4,2.4 l 2.7,-1.6 c -1.2,3.5 -1.9,8.3 2.5,7.4 2.4,-0.5 3.7,-2.6 4.7,-4.6 1.6,-3.2 3.3,-6.3 5.5,-9.3 0.1,-0.1 0.2,-0.2 0.3,-0.3 1.8,-0.9 3.6,-1.8 5.4,-2.6 l 5.5,-2.5 5.4,-2.5 c 1.8,-0.8 3.7,-1.5 5.6,-2.2 3.7,-1.4 7.4,-3 11.2,-4.3 l 11.3,-3.8 c 1.9,-0.7 3.8,-1.2 5.7,-1.8 l 5.8,-1.6 5.8,-1.6 c 1.9,-0.5 3.9,-0.9 5.8,-1.4 3.9,-0.9 7.8,-1.8 11.7,-2.7 l 11.8,-2.1 c -1.4,1.6 -2.9,3.3 -4.3,4.8 -0.4,0.4 -0.5,1 -0.3,1.5 -0.2,1.1 0.7,2.2 1.8,1.5 l 4.6,-3 2.3,-1.5 2.4,-1.4 9.5,-5.7 c 0.9,-0.5 -0.2,-2.2 -1.4,-2.1 z"
           id="path29"
           inkscape:connector-curvature="0" /><path
           d="m 642.7,180.8 c -5.5,-2.1 -9.5,-6.7 -14.6,-9.8 -1.2,-0.7 -2.3,0.5 -2.1,1.5 -0.1,0.4 0,0.8 0.3,1.2 0.9,1 1.1,2.1 0.9,3.1 l -5.3,-1.2 0,-1.8 c 0,-1.8 -2.8,-1.7 -2.8,0.1 l 0,1 -2.1,-0.5 0.1,-1 c 0.3,-1.8 -2.5,-2.4 -2.7,-0.6 l -0.1,1 -2,-0.5 c 0,-0.3 0.1,-0.7 0.1,-1 0.3,-1.8 -2.5,-2.3 -2.8,-0.5 l -0.1,1 c -20.2,-4.1 -40.9,-6.2 -61.5,-6.3 -0.4,-0.3 -0.8,-0.4 -1.2,-0.3 0,-0.1 -0.1,-0.1 -0.1,-0.2 -2.4,-2.5 -4.5,-4.8 -6.6,-7.5 -1.7,-2 -3.6,-1.2 -5.9,-0.7 -0.9,0.2 -1.3,1.4 -0.8,2.1 l 4.6,6.6 -0.3,0 c -0.1,-0.2 -0.2,-0.3 -0.3,-0.5 -2.2,-2 -3.9,-4.3 -5.6,-6.7 -0.5,-0.7 -1.1,-1.3 -2,-1.5 -1.5,-0.3 -2.3,0.8 -3.7,1 -1.1,0.2 -1.6,1.2 -1.1,2.2 1,2 2.5,3.6 4,5.4 -1.3,-0.9 -2.5,-1.8 -3.5,-3 -0.9,-1 -1.8,-2.4 -2.9,-3.2 -2.2,-1.7 -4,1.3 -4.8,3 -0.2,0.4 -0.2,1 0.1,1.4 0.8,1 1.6,1.9 2.5,2.8 l -1,0.1 c -1.8,0.1 -1.6,2.9 0.2,2.8 l 0.4,0 c -1.1,1.1 -2.1,2.2 -3,3.4 -0.8,1 0,2.2 1.2,2.3 1.7,0.1 4.2,0.8 5.5,-0.5 1.7,-1.6 3.2,-3.9 4.7,-5.8 l 1.5,0 c -1,1.8 -2.4,3.4 -3.8,5.1 -0.8,1 0,2.3 1.1,2.3 1.8,0 4.7,0.9 6.1,-0.5 1.9,-1.9 3.4,-4.7 5,-6.9 0.1,-0.1 0.1,-0.1 0.1,-0.2 l 0.9,0 c -0.7,1.9 -1.6,3.7 -2.8,5.3 -0.8,1.1 0,2.6 1.4,2.3 2,-0.4 4.5,0.9 5.9,-1 1.5,-2.1 2.7,-4.4 4,-6.7 20.6,0.1 41.3,2.2 61.5,6.3 0,0.4 0,0.8 0,1.2 0,1.7 2.8,1.6 2.8,-0.2 l 0,-0.5 1.8,0.4 -0.1,0.9 c -0.2,1.8 2.4,2.4 2.7,0.6 l 0.1,-0.9 2.5,0.6 0,0.7 c 0,1.8 2.7,1.7 2.8,-0.1 l 4.1,0.9 c -0.8,1 -1.8,1.9 -2.7,2.6 -1,0.8 -0.8,2.6 0.7,2.6 6,-0.2 12,-0.5 18.2,-1.1 1.6,0.1 2,-2 0.5,-2.6 z"
           id="path31"
           inkscape:connector-curvature="0" /><path
           d="m 653.8,195.5 c 2.8,1.2 5.6,2.3 8.6,3.2 2.9,0.9 6,1.6 8.8,2.7 0.6,0.2 1.2,0.1 1.6,-0.4 1.7,-1.8 3.5,-3.1 5.7,-4.1 18.3,8.2 35.9,18 52.4,29.4 l 0,0.2 c 0,1.2 0.8,2.3 2,2.6 0.6,0.2 1.2,0.1 1.7,-0.2 l 4.4,3.2 c -1.6,2.1 -3.2,4.2 -5,6.1 -0.8,0.9 0.2,2.3 1.3,2.1 l 1.4,-0.2 c 5.9,0.8 11.8,2 17.6,4.1 0.7,0.3 1.9,0 1.9,-1 0.2,-2.9 -2.1,-5.2 -3.6,-7.6 -2.3,-3.5 -4.5,-7.1 -6.9,-10.5 -0.5,-0.7 -1.8,-0.7 -2.3,0 -0.9,1.6 -1.9,3.1 -2.9,4.6 l -4.6,-3.3 c 0,-0.8 -0.4,-1.5 -1.3,-2 -0.2,-0.1 -0.4,-0.2 -0.6,-0.2 -0.3,-0.3 -0.7,-0.4 -1.1,-0.3 -0.1,0 -0.3,0.1 -0.4,0.1 -16.5,-11.4 -34,-21.2 -52.2,-29.4 -0.4,-3.2 -0.4,-8.6 -2.8,-11 -1.6,-1.6 -5.2,-2.2 -7.3,-2.9 -3.1,-1.1 -6.1,-2.1 -9.2,-3.1 -1,-0.3 -2.2,0.5 -1.9,1.6 0.7,2.4 1.3,4.9 1.9,7.4 -1.2,-0.4 -2.3,-0.9 -3.5,-1.3 -1.7,-0.6 -2.6,2 -0.9,2.6 0.9,0.3 1.7,0.6 2.5,0.9 -2.1,1.2 -4,2.6 -5.9,4.1 -0.7,1 -0.3,2.2 0.6,2.6 z"
           id="path33"
           inkscape:connector-curvature="0" /><path
           d="m 774.4,266.8 c 1.7,0.4 3.4,0.9 5.1,1.4 0.1,0.1 0.2,0.2 0.3,0.2 11.2,11.3 21.3,23.7 30.7,36.6 9.4,12.9 17.7,26.6 25.1,40.7 -2,-0.9 -3.9,-1.7 -5.8,-2.6 -0.5,-0.3 -1.1,-0.1 -1.5,0.2 -1,0.2 -1.9,1.4 -0.9,2.2 5.5,4.7 11.4,9.3 16.8,14.3 1.2,1 2.5,-0.6 2.1,-1.7 -0.6,-1.7 -1.1,-3.4 -1.5,-5.2 -0.4,-1.7 -0.9,-3.4 -1.3,-5.2 -0.7,-3.5 -1.2,-7.1 -1.4,-10.7 -0.1,-1.9 -2.6,-1.9 -2.8,-0.1 l -0.2,1.4 c 0,0 0,0.1 0,0.1 l -1.1,5.7 c -7.4,-14.1 -15.6,-27.7 -25,-40.5 -9.3,-12.9 -19.4,-25.2 -30.5,-36.5 -0.1,-0.5 -0.3,-0.9 -0.9,-1.1 -0.3,-1.6 -0.6,-3.3 -0.8,-4.9 -0.2,-1.6 -0.5,-3.3 -0.7,-4.9 -0.3,-2 -0.8,-5 -2.7,-6.3 -1.8,-1.2 -3.7,0.1 -4.8,1.5 -1.2,1.5 -1.4,3.1 -1.4,4.7 l -2.1,-2 c -1.3,-1.2 -3.2,0.8 -1.9,2 l 2.3,2.2 c -3.7,-0.1 -8.3,0.6 -6.2,4.6 1.1,2.2 3.6,2.8 5.8,3.1 1.7,0.1 3.5,0.4 5.3,0.8 z"
           id="path35"
           inkscape:connector-curvature="0" /><path
           d="m 847.4,371.7 c -1.3,-0.7 -2.7,-1.3 -4.1,-1.8 -1.3,-0.4 -2.1,0.7 -1.8,1.8 0.4,1.6 0.5,4.3 2.1,5.1 2.1,1.2 4.6,1.9 7,2.7 l 0.6,1.4 c -2.1,-0.4 -4.1,-1.2 -6,-2 -1.2,-0.5 -2.2,0.7 -1.9,1.8 0.5,1.7 0.7,4.7 2.5,5.6 2.3,1.3 5.5,1.8 8,2.7 0.1,0 0.2,0 0.2,0.1 l 0.3,0.8 c -2,-0.1 -4,-0.4 -5.9,-1 -1.3,-0.4 -2.4,0.8 -1.8,2 0.9,1.8 0.5,4.6 2.7,5.3 2.4,0.8 5.1,1.2 7.7,1.7 6.2,19.7 10.5,40 12.8,60.5 -0.4,0.1 -0.8,0.2 -1.2,0.3 -1.7,0.6 -0.6,3.1 1.1,2.6 l 0.5,-0.1 c 0.1,0.6 0.2,1.2 0.2,1.8 l -0.9,0.2 c -1.8,0.3 -1.6,3.1 0.2,2.8 l 0.9,-0.1 0.2,2.5 -0.7,0.2 c -1.7,0.5 -0.8,3.1 0.9,2.6 l 0.3,4.2 c -1.2,-0.4 -2.4,-1.1 -3.3,-1.7 -1.1,-0.7 -2.8,0.1 -2.2,1.5 l 1.7,4.2 1.6,4.2 c 1.1,2.8 2.2,5.7 3.4,8.5 0.6,1.5 2.6,1.2 2.7,-0.4 0.2,-2.9 1.1,-5.7 2.1,-8.5 l 1.6,-4.2 c 0.5,-1.4 0.9,-2.8 1.2,-4.2 0.3,-1.3 -1.2,-2 -2.1,-1.5 -0.4,0 -0.8,0.3 -1,0.7 -0.7,1.2 -1.7,1.7 -2.7,1.8 l -0.4,-5.4 1.7,-0.5 c 1.7,-0.5 0.8,-3.2 -0.9,-2.6 l -1,0.3 -0.2,-2.1 1,-0.2 c 1.8,-0.3 1.6,-3.1 -0.2,-2.8 l -1,0.2 -0.3,-2 c 0.3,-0.1 0.7,-0.1 1,-0.2 1.8,-0.3 1.4,-3.1 -0.4,-2.8 l -1,0.2 c -2.4,-20.5 -6.7,-40.8 -12.8,-60.5 0.1,-0.4 0.1,-0.9 -0.2,-1.2 0,-0.1 0.1,-0.1 0.1,-0.1 1.4,-3 3.2,-5.8 5.1,-8.6 1.4,-2.2 0.1,-3.8 -1.1,-5.8 -0.4,-0.8 -1.7,-0.8 -2.2,-0.1 l -4.9,6.5 -0.1,-0.3 c 0.1,-0.1 0.3,-0.3 0.4,-0.5 1.3,-2.7 3,-5.1 4.7,-7.5 0.5,-0.7 0.9,-1.4 0.8,-2.3 -0.2,-1.5 -1.6,-1.9 -2.2,-3.1 -0.5,-1 -1.6,-1.2 -2.4,-0.4 -1.6,1.6 -2.8,3.6 -3.9,5.5 0.3,-1.5 1,-2.9 1.7,-4.3 0.7,-1.2 1.7,-2.4 2.2,-3.8 1,-2.7 -2.4,-3.4 -4.3,-3.7 -0.5,-0.1 -1,0.1 -1.3,0.5 -0.7,1.1 -1.3,2.1 -1.9,3.2 l -0.4,-0.9 c -0.7,-1.7 -3.2,-0.6 -2.6,1.1 l 0.1,0.1 z"
           id="path37"
           inkscape:connector-curvature="0" /></g></g></switch></svg>