<?xml version="1.0" encoding="UTF-8" standalone="no"?>
<svg
   xmlns:dc="http://purl.org/dc/elements/1.1/"
   xmlns:cc="http://creativecommons.org/ns#"
   xmlns:rdf="http://www.w3.org/1999/02/22-rdf-syntax-ns#"
   xmlns:svg="http://www.w3.org/2000/svg"
   xmlns="http://www.w3.org/2000/svg"
   xmlns:sodipodi="http://sodipodi.sourceforge.net/DTD/sodipodi-0.dtd"
   xmlns:inkscape="http://www.inkscape.org/namespaces/inkscape"
   version="1.1"
   id="Layer_1"
   x="0px"
   y="0px"
   viewBox="92.31478881835938 100.93213653564453 815.3705444335938 798.1356811523438"
   width="100%"
   height="100%"
   style="enable-background:new 0 0 1000 1000;"
   xml:space="preserve"
   ><style
     type="text/css"
     id="style3">
	.noFillSVG{fill:none;}
	
</style><switch
     id="switch5"
     transform="translate(-40.271406,10.967856)"><g
       id="g7"><g
         id="g9"><path
           class="noFillSVG"
           d="m 376.6,799.5 c 0.1,0.2 0.3,0.3 0.4,0.5 0.2,0 0.5,0 0.7,0 -0.1,-0.1 -0.2,-0.3 -0.3,-0.4 -0.2,-0.1 -0.5,-0.1 -0.8,-0.1 z"
           id="path11"
           inkscape:connector-curvature="0"
           style="fill:none" /><path
           class="noFillSVG"
           d="m 203.1,589.7 c 0.2,0.2 0.3,0.3 0.5,0.5 0,-0.2 0.1,-0.3 0.1,-0.5 -0.1,-0.2 -0.3,-0.4 -0.5,-0.6 -0.1,0.2 -0.1,0.4 -0.1,0.6 z"
           id="path13"
           inkscape:connector-curvature="0"
           style="fill:none" /><path
           class="noFillSVG"
           d="m 229.3,318.5 c 0,-0.3 0.1,-0.5 0,-0.8 -0.2,0.1 -0.3,0.3 -0.5,0.4 0,0.2 0,0.5 0,0.7 0.2,-0.1 0.4,-0.2 0.5,-0.3 z"
           id="path15"
           inkscape:connector-curvature="0"
           style="fill:none" /><path
           class="noFillSVG"
           d="m 439.8,144.2 c -0.2,-0.1 -0.4,-0.1 -0.6,-0.1 -0.2,0.2 -0.3,0.3 -0.5,0.5 0.2,0 0.3,0.1 0.5,0.1 0.1,-0.1 0.3,-0.3 0.6,-0.5 z"
           id="path17"
           inkscape:connector-curvature="0"
           style="fill:none" /><path
           class="noFillSVG"
           d="m 884.7,380.2 c -0.2,-0.2 -0.3,-0.3 -0.5,-0.5 0,0.2 -0.1,0.3 -0.1,0.5 0.1,0.2 0.3,0.4 0.5,0.6 0.1,-0.2 0.1,-0.4 0.1,-0.6 z"
           id="path19"
           inkscape:connector-curvature="0"
           style="fill:none" /><path
           class="noFillSVG"
           d="m 648,825.7 c 0.2,0.1 0.4,0.1 0.6,0.1 0.2,-0.2 0.3,-0.3 0.5,-0.5 -0.2,0 -0.3,-0.1 -0.5,-0.1 -0.2,0.1 -0.4,0.2 -0.6,0.5 z"
           id="path21"
           inkscape:connector-curvature="0"
           style="fill:none" /><path
           class="noFillSVG"
           d="m 858.5,651.4 c 0,0.3 -0.1,0.5 0,0.8 0.2,-0.1 0.3,-0.3 0.5,-0.4 0,-0.2 0,-0.5 0,-0.7 -0.3,0.1 -0.4,0.2 -0.5,0.3 z"
           id="path23"
           inkscape:connector-curvature="0"
           style="fill:none" /><path
           class="noFillSVG"
           d="m 711.2,170.4 c -0.1,-0.2 -0.3,-0.3 -0.4,-0.5 -0.2,0 -0.5,0 -0.7,0 0.1,0.1 0.2,0.3 0.3,0.4 0.2,0.1 0.5,0.1 0.8,0.1 z"
           id="path25"
           inkscape:connector-curvature="0"
           style="fill:none" /><path
           d="m 874.5,624.8 c -0.8,-0.6 -1.6,-1 -2.5,-1.3 -0.8,-0.4 -1.7,-0.7 -2.6,-0.9 -1.4,4.9 -5.2,8.1 -10.6,8.5 -3.8,0.7 -4.4,3 -4.9,5.2 -0.3,1.7 -0.1,4.2 1.5,4.8 -1.6,0.7 -4.3,4.7 -2.9,9.1 0.6,2.2 2.8,2.8 5.2,1.5 l -0.6,1 c -1.2,0.4 -2.8,0.4 -5,-0.5 -2.8,-1.7 -4.7,1.4 -3.3,3.2 -2.2,0.5 -3.3,1.6 -3.6,3.5 -0.4,1.9 2,3.6 5.7,2.4 0.6,-0.2 0.8,-0.1 0.8,0.1 l -0.5,0.7 c -0.3,0.3 -0.8,0.6 -1.4,0.8 -1.9,0.5 -2.7,1.4 -7,-0.8 -2.9,-1.5 -5.3,0.7 -4.5,3 -3.1,-1.5 -5.9,-1.3 -7.1,2 -0.8,2.6 0.3,4 2.8,4.7 -1.6,1 -2.3,3.4 -1.3,4.4 0.9,1 2.8,2 7.7,-1.2 1.3,-1.2 2,0.1 0.3,1.3 -1.7,1.1 -3.2,3.1 -9.1,3.3 -3.4,0.3 -4.4,1.7 -5,3.1 -0.5,1.1 -0.6,2.7 0.8,3.1 -1.5,0.4 -4.3,2.9 -3.5,5.7 0.5,2.4 5.5,2 9.4,-2.3 -1.5,3.2 -4,6.8 -9.5,9.3 -3.1,1.8 -5.3,3.4 -5,4.6 0.2,0.9 1.4,1 2,0.8 -0.9,0.4 -3.1,2 -2.6,3.3 0.8,2 3,0.4 5,-1.6 l 7.8,-11.7 -7.5,11.9 c -1.5,2.4 -2.5,5 -0.4,5.3 1.4,0.2 2.5,-2.3 2.6,-3.3 -0.1,0.7 0.2,1.9 1.2,1.8 1.3,0 2.4,-2.6 3.4,-6.1 1.3,-5.8 3.5,-9.6 6.2,-12 -2.7,5.1 -1.6,10.1 0.8,9.9 2.9,-0.2 4.4,-3.9 4.4,-5.4 0.8,1.2 2.3,0.5 3.2,-0.3 1.2,-1.1 2.2,-2.6 1.4,-6 -2,-5.7 -0.9,-7.9 -0.5,-9.9 0.4,-2.1 1.9,-1.9 1.3,-0.3 -1,5.9 0.7,7.3 2,7.7 1.3,0.4 3.3,-1.3 3.6,-3.3 1.6,2.1 3.3,2.5 5.5,0.4 2.7,-2.7 1.8,-5.5 -0.9,-7.6 2.6,-0.3 3.3,-3.8 0.6,-5.6 -3.9,-2.7 -3.6,-3.9 -4.1,-5.8 -0.5,-1.9 0.5,-3.4 0.8,-1.7 0.8,3.8 3.4,5.1 4.9,3.8 1.5,-1.3 1.9,-2.8 1.3,-5.1 2.3,0.2 4.1,-3.2 1.1,-4.6 -2.4,-1.6 -3.2,-3.4 -3.4,-4.8 l 0.5,-0.7 c 0.2,3 2,4.7 4.2,3.9 4.4,-1.4 6.2,-6.3 5.9,-8 1.4,1 3.6,-0.4 4.9,-1.8 1.7,-1.8 2.9,-4 1.1,-7.5 -3.2,-4.7 -3.3,-9.6 -0.6,-14 z"
           id="path27"
           inkscape:connector-curvature="0" /><path
           d="M 875.1,617.2"
           id="path29"
           inkscape:connector-curvature="0" /><path
           d="m 894.5,485.7 c -2.4,1.3 -1.1,6.4 -0.2,8.1 -0.6,-1.2 -2.6,-2.5 -4,-1.3 -2,1.5 -0.5,6.5 1.8,13.1 1.9,4.5 2.9,8.7 3.3,12.5 l 4.7,-23.8 c -0.5,-5.5 -1.8,-10.7 -5.6,-8.6 z"
           id="path31"
           inkscape:connector-curvature="0" /><path
           d="m 913,565.1 c 2.5,-3.2 1.8,-8.6 -0.6,-9.8 -1.2,-0.5 -2.8,-0.9 -5,0.1 -2.1,1 -4.8,3.4 -8.3,8.2 -1.6,3.1 -3.8,1.2 -1.5,-2.2 2.5,-3.3 3.6,-8 14.2,-13.5 2.9,-1.8 4.5,-3.7 5.4,-5.5 0.8,-1.8 0.9,-3.5 0.8,-5.2 -0.2,-2.5 -1.4,-5.6 -4.2,-4.9 2.1,-2.2 5,-9.8 0.7,-14 -3.3,-3.6 -11,2.5 -14,13.6 -0.3,-3.5 0.1,-7.4 1,-11.6 0.9,-4.3 2.6,-9 5.6,-14.2 3.1,-6.6 4.5,-11.9 2.7,-13.6 -1.3,-1.3 -3.3,0 -4,1.2 1,-1.7 2.5,-7 0.2,-8.3 -3.6,-2.1 -5.2,3.1 -6,8.6 l -5.3,24 c 0,-0.1 0,-0.1 0,-0.2 l -0.6,3.1 -1.3,5.9 c -1.4,-8.7 -7.2,-13.6 -10.5,-11.2 -4.5,3 -3.8,10 -2.2,12.6 -2.5,-1.2 -4.5,1.1 -5.2,3.2 -0.5,1.4 -0.8,2.9 -0.5,4.6 0.3,1.7 1.2,3.8 3.3,6.3 7.1,7.1 7.7,11.7 8.2,15.3 l -1.1,4.9 c -0.5,-0.1 -0.9,-0.8 -1,-2.1 -1,-5.5 -2.8,-8.6 -4.5,-10.2 -1.7,-1.6 -3.4,-1.9 -4.7,-1.9 -2.7,0.1 -4.9,4.3 -4.1,7.8 -4.4,-2.5 -7.8,-2.2 -10.3,2.3 -2.9,5.9 0.5,10 6.8,12.3 -4.6,1.7 -4.2,8 1.8,10.1 8.1,2.9 8.7,5.1 10.1,8.1 l -0.8,3.7 c -3.1,-6.3 -8.4,-7.3 -10.6,-4.5 -2.4,2.9 -2.5,5.7 -0.3,9.6 -2.2,0.1 -3.8,1.9 -4,3.8 -0.3,1.9 0.6,4 3.6,5 3.7,1.8 5.8,4 6.9,6.1 l -1.5,6.7 c 0.2,-0.8 1,-2.2 2.5,-3.4 0.1,0.4 0.4,-0.3 0.4,-0.3 2.3,-1.7 6.1,-2.9 11.9,-1.3 2.9,1.3 5.2,0.2 6.2,-1.6 1,-1.9 0.9,-4.4 -0.7,-6 4.1,-2 5.9,-4.6 5.8,-8.7 0.1,-4 -5.2,-6 -11.9,-2.1 -2.8,1.8 -2,-1.6 1.5,-3.5 3.4,-1.9 4.5,-4 13.7,-2 6.2,1.5 10.1,-4.6 7.2,-8.7 6.8,1.1 11.9,-1.5 12.1,-9.4 0.1,-6.1 -2.8,-7.8 -7.9,-7.2 z"
           id="path33"
           inkscape:connector-curvature="0" /><path
           d="m 676.7,812.4 c -4.4,2.5 -9.4,2.2 -13.5,-1.3 -3.2,-2.2 -5.3,-1.2 -7.2,0.1 -1.4,1 -3,3 -2.3,4.5 -1.6,-0.6 -6.3,0.5 -8.5,4.4 -1.1,2 0,4 2.8,4.9 l -1.1,0.3 c -1.2,-0.6 -2.4,-1.8 -3.3,-4 -0.8,-3.2 -4.3,-2.3 -4.6,-0.1 -2,-1.2 -3.4,-1.2 -5,0 -1.6,1.1 -1.1,4 2.4,5.7 0.6,0.3 0.7,0.5 0.5,0.7 l -0.7,0.2 c -0.5,0 -1,-0.1 -1.6,-0.5 -1.7,-1 -2.9,-0.9 -4.4,-5.5 -1,-3.1 -4.3,-3.4 -5.3,-1.2 -1.1,-3.3 -3.3,-5 -6.4,-3.5 -2.4,1.3 -2.6,3.1 -1.3,5.3 -1.8,-0.4 -4,0.9 -4.1,2.2 0,1.3 0.6,3.5 6.3,4.6 1.7,0.1 1.4,1.5 -0.7,1.2 -2,-0.3 -4.4,0 -8.7,-4.2 -2.6,-2.2 -4.3,-1.9 -5.8,-1.3 -1.1,0.4 -2.3,1.5 -1.6,2.8 -1.3,-0.7 -5.1,-0.9 -6.5,1.5 -1.3,2 2.5,5.3 8.3,5 -1.6,0.6 -3.6,1.1 -5.8,1.2 -2.2,0.1 -4.7,-0.4 -7.5,-1.4 -3.5,-0.9 -6.1,-1.4 -6.8,-0.3 -0.6,0.8 0.2,1.7 0.9,1.9 -0.9,-0.4 -3.6,-0.7 -4.1,0.5 -0.9,2 1.8,2.4 4.6,2.4 l 13.8,-2.8 -13.8,3.1 c -2.7,0.7 -5.3,1.8 -4,3.5 0.8,1.1 3.4,0.1 4.2,-0.5 -0.6,0.4 -1.1,1.5 -0.4,2.1 0.9,0.9 3.5,-0.2 6.7,-2 2.5,-1.7 4.8,-2.6 7,-3.3 2.1,-0.7 4.1,-0.9 5.9,-0.8 -5.5,1.8 -8.3,6 -6.4,7.6 2.2,2 5.9,0.4 6.9,-0.8 -0.3,1.4 1.3,2 2.5,2 1.6,0 3.4,-0.3 5.2,-3.3 2.7,-5.3 5,-6.1 6.7,-7.3 1.7,-1.2 2.7,-0.1 1.1,0.7 -4.8,3.6 -4.7,5.6 -4.1,6.9 0.6,1.3 3.3,1.4 4.9,0.2 -0.3,2.6 0.6,4.1 3.6,4.2 3.8,-0.1 5.1,-2.6 4.7,-6.1 2,1.6 5.1,-0.2 4.5,-3.4 -0.9,-4.7 0.2,-5.3 1.3,-7 1,-1.7 2.8,-2.1 1.8,-0.7 -2.1,3.3 -1.2,6.1 0.8,6.1 2,0.1 3.4,-0.7 4.5,-2.7 1.4,1.7 5.1,0.6 4,-2.5 -0.5,-2.8 0.1,-4.6 0.9,-5.7 l 0.8,-0.2 c -1.9,2.2 -1.9,4.6 0.2,5.7 4.2,2.3 8.8,-0.1 9.8,-1.5 0.3,1.7 2.9,2.2 4.7,2.1 2.4,-0.1 4.9,-0.7 6.1,-4.4 1,-5.5 4.4,-9.1 9.4,-10.3 -0.1,-0.9 -0.4,-1.8 -0.9,-2.7 -0.5,-0.7 -0.9,-1.5 -1.4,-2.3 z m -28.1,13.4 c -0.2,0 -0.4,0 -0.6,-0.1 0.2,-0.2 0.4,-0.4 0.6,-0.5 0.2,0 0.3,0.1 0.5,0.1 -0.1,0.1 -0.3,0.3 -0.5,0.5 z"
           id="path35"
           inkscape:connector-curvature="0" /><path
           d="m 791.1,732.8 c -2.6,-0.8 -5.3,3.7 -5.8,5.6 0.4,-1.3 0,-3.6 -1.9,-3.7 -2.5,-0.4 -4.9,4.3 -8,10.5 -1.8,4.5 -4.1,8.2 -6.5,11.2 l 20.2,-13.5 c 3.4,-4.3 6.1,-8.9 2,-10.1 z"
           id="path37"
           inkscape:connector-curvature="0" /><path
           d="m 789.4,743.2 -20.7,13.3 c 0,-0.1 0.1,-0.1 0.1,-0.2 l -2.6,1.7 -5.2,3.4 c 2.2,-3.1 3.4,-6.2 3.8,-8.8 0.4,-3.6 -0.8,-6.2 -3.1,-6.6 -5.3,-1.1 -9.8,4.4 -10.4,7.3 -0.9,-2.6 -3.9,-2.3 -5.9,-1.4 -2.6,1.3 -5.3,3.1 -5.7,9.7 0,5.7 -0.9,9.5 -2.1,12.1 -1,2.1 -2.2,3.5 -3.2,4.8 l -3.9,2.5 c -0.3,-0.4 -0.2,-1.2 0.7,-2.2 6.2,-9.4 4,-13.1 2.1,-14.9 -1.9,-1.7 -6.7,-0.6 -8.5,2.5 -1.3,-4.9 -4,-7 -8.9,-5.6 -6.1,2.2 -6.8,7.2 -3.9,13.5 -4.4,-2 -8.6,2.8 -5.8,8.6 3.7,8 2.4,9.8 1.2,13 l -3.2,2 c 2.3,-6.8 -0.8,-11.3 -4.3,-10.8 -3.7,0.4 -5.7,2.4 -7,6.7 -3.3,-2.9 -9.5,0.1 -6.6,5.8 1.4,3.9 1.3,7 0.6,9.3 l -5.7,3.7 c 0.7,-0.4 2.3,-0.8 4.2,-0.6 -0.3,0.3 0.5,0.1 0.5,0.1 2.8,0.4 6.3,2.2 9.3,7.4 2.3,6 9.5,3.1 9.3,-1.4 4.3,1.5 7.4,0.8 10.2,-2.1 2.9,-2.8 0.5,-8 -6.9,-9.9 -3.2,-0.7 -0.3,-2.6 3.5,-1.5 3.8,1.1 6.1,0.5 11.2,8.4 3.3,5.4 10.4,3.8 11.2,-1.2 2,2.8 4.4,4.6 7,5.1 2.6,0.5 5.4,-0.4 8.2,-3.1 4.2,-4.5 3.4,-7.8 -0.7,-10.9 3.9,-0.6 7.5,-4.6 6.5,-7.3 -0.9,-2.5 -3.6,-5.5 -15.3,-3.6 -3.3,1.1 -3.6,-1.9 0.5,-2.6 2,-0.4 4.1,-1.1 7.1,-1.3 3,-0.2 6.8,0.1 12.5,1.8 6.7,1.4 9.9,-0.6 12,-3.1 1.6,-1.9 2.9,-5 0.5,-6.4 3,-0.1 10.4,-3.5 10.4,-9.3 0.1,-2.4 -2.3,-3.9 -6,-4.1 -3.7,-0.2 -8.6,0.8 -13.6,3.7 2.3,-2.7 5.2,-5.3 9,-7.5 3.7,-2.4 8.2,-4.5 14,-6 6.9,-2.4 11.7,-5.2 11.5,-7.7 0,-1.9 -2.4,-2.3 -3.7,-2 1.9,-0.5 6.7,-3.2 6,-5.8 -1,-4.4 -5.9,-1.8 -10.2,1.5 z"
           id="path39"
           inkscape:connector-curvature="0" /><path
           d="m 397.7,799.9 c -0.7,-3.8 -3,-4.4 -5.2,-4.9 -1.7,-0.3 -4.2,-0.1 -4.8,1.5 -0.7,-1.6 -4.7,-4.3 -9.1,-2.9 -2.2,0.6 -2.8,2.8 -1.5,5.2 l -1,-0.6 c -0.4,-1.2 -0.4,-2.8 0.5,-5 1.7,-2.8 -1.4,-4.7 -3.2,-3.3 -0.5,-2.2 -1.6,-3.3 -3.5,-3.6 -1.9,-0.4 -3.6,2 -2.4,5.7 0.2,0.6 0.1,0.8 -0.1,0.8 l -0.7,-0.5 c -0.3,-0.3 -0.6,-0.8 -0.8,-1.4 -0.5,-1.9 -1.4,-2.7 0.8,-7 1.5,-2.9 -0.7,-5.3 -3,-4.5 1.5,-3.1 1.3,-5.9 -2,-7.1 -2.6,-0.8 -4,0.3 -4.7,2.8 -1,-1.6 -3.4,-2.3 -4.4,-1.3 -1,0.9 -2,2.8 1.2,7.7 1.2,1.3 -0.1,2 -1.3,0.3 -1.1,-1.7 -3.1,-3.2 -3.3,-9.1 -0.3,-3.4 -1.7,-4.4 -3.1,-5 -1.1,-0.5 -2.7,-0.6 -3.1,0.8 -0.4,-1.5 -2.9,-4.3 -5.7,-3.5 -2.4,0.5 -2,5.5 2.3,9.4 -3.2,-1.5 -6.8,-4 -9.3,-9.5 -1.8,-3.1 -3.4,-5.3 -4.6,-5 -0.9,0.2 -1,1.4 -0.8,2 -0.4,-0.9 -2,-3.1 -3.3,-2.6 -2,0.8 -0.4,3 1.6,5 l -0.2,0.2 c -2.4,-1.5 -5,-2.5 -5.3,-0.4 -0.2,1.4 2.3,2.5 3.3,2.6 -0.7,-0.1 -1.9,0.2 -1.8,1.2 0,1.3 2.6,2.4 6.1,3.4 5.8,1.3 9.6,3.5 12,6.2 -5.1,-2.7 -10.1,-1.6 -9.9,0.8 0.2,2.9 3.9,4.4 5.4,4.4 -1.2,0.8 -0.5,2.3 0.4,3.2 1.1,1.2 2.6,2.2 6,1.4 5.7,-2 7.9,-0.9 9.9,-0.5 2.1,0.4 1.9,1.9 0.3,1.3 -5.9,-1 -7.3,0.7 -7.7,2 -0.4,1.3 1.3,3.3 3.3,3.6 -2.1,1.6 -2.5,3.3 -0.4,5.5 2.7,2.7 5.5,1.8 7.6,-0.9 0.3,2.6 3.8,3.3 5.6,0.6 2.7,-3.9 3.9,-3.6 5.8,-4.1 1.9,-0.5 3.4,0.5 1.7,0.8 -3.8,0.8 -5.1,3.4 -3.8,4.9 1.3,1.5 2.8,1.9 5.1,1.3 -0.2,2.3 3.2,4.1 4.6,1.1 1.6,-2.4 3.4,-3.2 4.8,-3.4 l 0.7,0.5 c -3,0.2 -4.7,2 -3.9,4.2 1.4,4.4 6.3,6.2 8,5.9 -1,1.4 0.4,3.6 1.8,4.9 1.8,1.7 4,2.9 7.5,1.1 4.6,-3.1 9.5,-3.2 13.9,-0.5 0.6,-0.8 1,-1.6 1.3,-2.5 0.4,-0.8 0.7,-1.7 0.9,-2.6 -4.9,-1.5 -8.1,-5.3 -8.5,-10.6 z"
           id="path41"
           inkscape:connector-curvature="0" /><path
           d="m 543.4,835.8 c -1.3,-2.4 -6.4,-1.1 -8.1,-0.2 1.2,-0.6 2.5,-2.6 1.3,-4 -1.5,-2 -6.5,-0.5 -13.1,1.8 -4.5,1.9 -8.7,2.9 -12.5,3.3 l 23.8,4.7 c 5.5,-0.5 10.7,-1.9 8.6,-5.6 z"
           id="path43"
           inkscape:connector-curvature="0" /><path
           d="m 508,835.2 -5.9,-1.3 c 8.7,-1.4 13.6,-7.2 11.2,-10.5 -3,-4.5 -10,-3.8 -12.6,-2.2 1.2,-2.5 -1.1,-4.5 -3.2,-5.2 -1.4,-0.5 -2.9,-0.8 -4.6,-0.5 -1.7,0.3 -3.8,1.2 -6.3,3.3 -7.1,7.1 -11.7,7.7 -15.3,8.2 l -4.9,-1.1 c 0.1,-0.5 0.8,-0.9 2.1,-1 5.5,-1 8.6,-2.8 10.2,-4.5 1.6,-1.7 1.9,-3.3 1.9,-4.7 -0.1,-2.7 -4.3,-4.9 -7.8,-4.1 2.5,-4.4 2.2,-7.8 -2.3,-10.3 -5.9,-2.9 -10,0.5 -12.3,6.8 -1.7,-4.6 -8,-4.2 -10.1,1.8 -2.9,8.1 -5.1,8.7 -8.1,10.1 l -3.7,-0.8 c 6.3,-3.1 7.3,-8.4 4.5,-10.6 -2.9,-2.4 -5.7,-2.5 -9.6,-0.3 -0.1,-2.2 -1.9,-3.8 -3.8,-4 -1.9,-0.3 -4,0.6 -5,3.6 -1.8,3.7 -4,5.8 -6.1,6.9 l -6.7,-1.5 c 0.8,0.2 2.2,1 3.4,2.5 -0.4,0.1 0.3,0.4 0.3,0.4 1.7,2.3 2.9,6.1 1.3,11.9 -1.3,2.9 -0.2,5.2 1.6,6.2 1.9,1 4.4,0.9 6,-0.7 2,4.1 4.6,5.9 8.7,5.8 4,0.1 6,-5.2 2.1,-11.9 -1.8,-2.9 1.6,-2 3.5,1.5 1.9,3.4 4,4.5 2,13.7 -1.5,6.2 4.6,10.1 8.7,7.2 -1.1,6.8 1.5,11.9 9.4,12.1 6.1,-0.1 7.9,-3.1 7.2,-8.1 3.2,2.5 8.6,1.8 9.8,-0.6 0.5,-1.2 0.9,-2.8 -0.1,-5 -1,-2.2 -3.4,-4.8 -8.2,-8.3 -3.1,-1.6 -1.2,-3.8 2.2,-1.5 3.3,2.5 8,3.6 13.5,14.2 1.8,2.9 3.7,4.6 5.5,5.4 1.8,0.8 3.5,0.9 5.2,0.8 2.5,-0.2 5.6,-1.4 4.9,-4.2 2.2,2.1 9.8,5 14,0.7 3.6,-3.3 -2.5,-11 -13.6,-14 3.5,-0.3 7.4,0.1 11.6,1 4.3,0.9 9,2.6 14.2,5.6 6.6,3.1 11.9,4.5 13.6,2.7 1.3,-1.3 0,-3.3 -1.2,-4 1.7,1 7,2.5 8.3,0.2 2.1,-3.6 -3.1,-5.2 -8.6,-6 l -24,-5.3 c 0.1,0 0.1,0 0.2,0 l -3.1,-0.4 z"
           id="path45"
           inkscape:connector-curvature="0" /><path
           d="m 211.3,619.8 c 0.9,-0.1 1.8,-0.4 2.7,-0.9 0.9,-0.3 1.7,-0.7 2.5,-1.2 -2.5,-4.4 -2.2,-9.4 1.3,-13.5 2.2,-3.2 1.2,-5.3 -0.1,-7.2 -1,-1.4 -3,-3 -4.5,-2.3 0.6,-1.6 -0.5,-6.3 -4.4,-8.5 -2,-1.1 -4,0 -4.9,2.8 l -0.3,-1.1 c 0.6,-1.2 1.8,-2.4 4,-3.3 3.2,-0.8 2.3,-4.3 0.1,-4.6 1.2,-2 1.2,-3.4 0,-5 -1.1,-1.6 -4,-1.1 -5.7,2.4 -0.3,0.6 -0.5,0.7 -0.7,0.5 l -0.2,-0.7 c 0,-0.5 0.1,-1 0.5,-1.6 1,-1.7 0.9,-2.9 5.5,-4.4 3.1,-1 3.4,-4.3 1.2,-5.3 3.3,-1.1 5,-3.3 3.5,-6.4 -1.3,-2.4 -3.1,-2.6 -5.3,-1.3 0.4,-1.8 -0.9,-4 -2.2,-4.1 -1.3,0 -3.5,0.6 -4.6,6.3 -0.1,1.7 -1.5,1.4 -1.2,-0.7 0.3,-2 0,-4.4 4.2,-8.7 2.2,-2.6 1.9,-4.3 1.3,-5.8 -0.4,-1.1 -1.5,-2.3 -2.8,-1.6 0.7,-1.3 0.9,-5.1 -1.5,-6.5 -2,-1.3 -5.4,2.5 -5,8.3 -0.6,-1.6 -1.1,-3.6 -1.2,-5.8 -0.1,-2.2 0.4,-4.7 1.4,-7.5 0.9,-3.5 1.4,-6.1 0.3,-6.8 -0.8,-0.5 -1.7,0.2 -1.9,0.9 0.4,-0.9 0.7,-3.6 -0.5,-4.1 -2,-0.9 -2.4,1.8 -2.4,4.6 l -0.3,0 c -0.7,-2.7 -1.8,-5.3 -3.5,-4 -1.1,0.8 -0.1,3.4 0.5,4.2 -0.4,-0.6 -1.5,-1.1 -2.1,-0.4 -0.9,0.9 0.2,3.5 2,6.7 1.7,2.5 2.6,4.8 3.3,7 0.7,2.1 0.9,4.1 0.8,5.9 -1.8,-5.5 -6,-8.3 -7.6,-6.4 -2,2.2 -0.4,5.9 0.8,6.9 -1.4,-0.3 -2,1.3 -2,2.5 0,1.6 0.3,3.4 3.3,5.2 5.3,2.7 6.1,5 7.3,6.7 1.2,1.7 0.1,2.7 -0.7,1.1 -3.6,-4.8 -5.6,-4.7 -6.9,-4.1 -1.3,0.6 -1.4,3.3 -0.2,4.9 -2.6,-0.3 -4.1,0.6 -4.2,3.6 0.1,3.8 2.6,5.1 6.1,4.7 -1.6,2 0.2,5.1 3.4,4.5 4.7,-0.9 5.3,0.2 7,1.3 1.7,1 2.1,2.8 0.7,1.8 -3.3,-2.1 -6.1,-1.2 -6.1,0.8 -0.1,2 0.7,3.4 2.7,4.5 -1.7,1.4 -0.6,5.1 2.5,4 2.8,-0.5 4.6,0.1 5.7,0.9 l 0.2,0.8 c -2.2,-1.9 -4.6,-1.9 -5.7,0.2 -2.3,4.2 0.1,8.8 1.5,9.8 -1.7,0.3 -2.2,2.9 -2.1,4.7 0.1,2.4 0.7,4.9 4.4,6.1 5.2,0.8 8.8,4.2 10.1,9.2 z"
           id="path47"
           inkscape:connector-curvature="0" /><path
           d="m 295.4,732.6 c 0.8,-2.6 -3.7,-5.3 -5.6,-5.8 1.3,0.4 3.6,0 3.7,-1.9 0.4,-2.5 -4.3,-4.9 -10.5,-8 -4.5,-1.8 -8.2,-4.1 -11.2,-6.5 l 13.5,20.2 c 4.4,3.4 9,6.1 10.1,2 z"
           id="path49"
           inkscape:connector-curvature="0" /><path
           d="m 265.9,712.8 c 2.4,3.7 4.5,8.2 6,14 2.4,6.9 5.2,11.7 7.7,11.5 1.9,0 2.3,-2.4 2,-3.7 0.5,1.9 3.2,6.7 5.8,6 4.1,-1.1 1.5,-5.9 -1.8,-10.3 l -13.3,-20.7 c 0.1,0 0.1,0.1 0.2,0.1 l -1.7,-2.6 -3.4,-5.2 c 3.1,2.2 6.2,3.4 8.8,3.8 3.6,0.4 6.2,-0.8 6.6,-3.1 1.1,-5.3 -4.4,-9.8 -7.3,-10.4 2.6,-0.9 2.3,-3.9 1.4,-5.9 -1.3,-2.6 -3.1,-5.3 -9.7,-5.7 -5.7,0 -9.5,-0.9 -12.1,-2.1 -2.1,-1 -3.5,-2.2 -4.8,-3.2 l -2.5,-3.9 c 0.4,-0.3 1.2,-0.2 2.2,0.7 9.4,6.2 13.1,4 14.9,2.1 1.7,-1.9 0.6,-6.7 -2.5,-8.5 4.9,-1.3 7,-4 5.6,-8.9 -2.2,-6.1 -7.2,-6.8 -13.5,-3.9 2,-4.4 -2.8,-8.6 -8.6,-5.8 -8,3.7 -9.8,2.4 -13,1.2 l -2,-3.2 c 6.8,2.3 11.3,-0.8 10.8,-4.3 -0.4,-3.7 -2.4,-5.7 -6.7,-7 2.9,-3.3 -0.1,-9.5 -5.8,-6.6 -3.9,1.4 -7,1.3 -9.3,0.6 l -3.7,-5.7 c 0.4,0.7 0.8,2.3 0.6,4.2 -0.3,-0.3 -0.1,0.5 -0.1,0.5 -0.4,2.8 -2.2,6.3 -7.4,9.3 -6,2.3 -3.1,9.5 1.4,9.3 -1.5,4.3 -0.8,7.4 2.1,10.2 2.8,2.9 8,0.5 9.9,-6.9 0.7,-3.2 2.6,-0.3 1.5,3.5 -1.1,3.8 -0.5,6.1 -8.4,11.2 -5.4,3.3 -3.8,10.4 1.2,11.2 -2.8,2 -4.6,4.4 -5.1,7 -0.5,2.6 0.4,5.4 3.1,8.2 4.5,4.2 7.8,3.4 10.9,-0.7 0.6,3.9 4.6,7.5 7.3,6.5 2.5,-0.9 5.5,-3.6 3.6,-15.3 -1.1,-3.3 1.9,-3.6 2.6,0.5 0.4,2 1.1,4.1 1.3,7.1 0.2,3 -0.1,6.8 -1.8,12.5 -1.4,6.7 0.6,9.9 3.1,12 1.9,1.6 5,2.9 6.4,0.5 0.1,3 3.5,10.4 9.3,10.4 2.4,0.1 3.9,-2.3 4.1,-6 0.2,-3.7 -0.8,-8.6 -3.7,-13.6 3,2.5 5.6,5.4 7.8,9.1 z"
           id="path51"
           inkscape:connector-curvature="0" /><path
           d="m 213.2,345.1 c 0.8,0.6 1.6,1 2.5,1.3 0.8,0.4 1.7,0.7 2.6,0.9 1.4,-4.9 5.2,-8.1 10.6,-8.5 3.8,-0.7 4.4,-3 4.9,-5.2 0.3,-1.7 0.1,-4.2 -1.5,-4.8 1.6,-0.7 4.3,-4.7 2.9,-9.1 -0.6,-2.2 -2.8,-2.8 -5.2,-1.5 l 0.6,-1 c 1.2,-0.4 2.8,-0.4 5,0.5 2.8,1.7 4.7,-1.4 3.3,-3.2 2.2,-0.5 3.3,-1.6 3.6,-3.5 0.4,-1.9 -2,-3.6 -5.7,-2.4 -0.6,0.2 -0.8,0.1 -0.8,-0.1 l 0.5,-0.7 c 0.3,-0.3 0.8,-0.6 1.4,-0.8 1.9,-0.5 2.7,-1.4 7,0.8 2.9,1.5 5.3,-0.7 4.5,-3 3.1,1.5 5.9,1.3 7.1,-2 0.8,-2.6 -0.3,-4 -2.8,-4.7 1.6,-1 2.3,-3.4 1.3,-4.4 -0.9,-1 -2.8,-2 -7.7,1.2 -1.3,1.2 -2,-0.1 -0.3,-1.3 1.7,-1.1 3.2,-3.1 9.1,-3.3 3.4,-0.3 4.4,-1.7 5,-3.1 0.5,-1.1 0.6,-2.7 -0.8,-3.1 1.5,-0.4 4.3,-2.9 3.5,-5.7 -0.5,-2.4 -5.5,-2 -9.4,2.3 1.5,-3.2 4,-6.8 9.5,-9.3 3.1,-1.8 5.3,-3.4 5,-4.6 -0.2,-0.9 -1.4,-1 -2,-0.8 0.9,-0.4 3.1,-2 2.6,-3.3 -0.8,-2 -3,-0.4 -5,1.6 l -0.2,-0.2 c 1.5,-2.4 2.5,-5 0.4,-5.3 -1.4,-0.2 -2.5,2.3 -2.6,3.3 0.1,-0.7 -0.2,-1.9 -1.2,-1.8 -1.3,0 -2.4,2.6 -3.4,6.1 -1.3,5.8 -3.5,9.6 -6.2,12 2.7,-5.1 1.6,-10.1 -0.8,-9.9 -2.9,0.2 -4.4,3.9 -4.4,5.4 -0.8,-1.2 -2.3,-0.5 -3.2,0.4 -1.2,1.1 -2.2,2.6 -1.4,6 2,5.7 0.9,7.9 0.5,9.9 -0.4,2.1 -1.9,1.9 -1.3,0.3 1,-5.9 -0.7,-7.3 -2,-7.7 -1.3,-0.4 -3.3,1.3 -3.6,3.3 -1.6,-2.1 -3.3,-2.5 -5.5,-0.4 -2.7,2.7 -1.8,5.5 0.9,7.6 -2.6,0.3 -3.3,3.8 -0.6,5.6 3.9,2.7 3.6,3.9 4.1,5.8 0.5,1.9 -0.5,3.4 -0.8,1.7 -0.8,-3.8 -3.4,-5.1 -4.9,-3.8 -1.5,1.3 -1.9,2.8 -1.3,5.1 -2.3,-0.2 -4.1,3.2 -1.1,4.6 2.4,1.6 3.2,3.4 3.4,4.8 l -0.5,0.7 c -0.2,-3 -2,-4.7 -4.2,-3.9 -4.4,1.4 -6.2,6.3 -5.9,8 -1.4,-1 -3.6,0.4 -4.9,1.8 -1.7,1.8 -2.9,4 -1.1,7.5 3.2,4.5 3.3,9.5 0.5,13.9 z"
           id="path53"
           inkscape:connector-curvature="0" /><path
           d="m 193,484.5 c 2.4,-1.3 1.1,-6.4 0.2,-8.1 0.6,1.2 2.6,2.5 4,1.3 2,-1.5 0.5,-6.5 -1.8,-13.1 -1.9,-4.5 -2.9,-8.7 -3.3,-12.5 l -4.7,23.8 c 0.5,5.5 1.9,10.6 5.6,8.6 z"
           id="path55"
           inkscape:connector-curvature="0" /><path
           d="m 174.8,404.7 c -2.5,3.2 -1.8,8.6 0.6,9.8 1.2,0.5 2.8,0.9 5,-0.1 2.1,-1 4.8,-3.4 8.3,-8.2 1.6,-3.1 3.8,-1.2 1.5,2.2 -2.5,3.3 -3.6,8 -14.2,13.5 -2.9,1.8 -4.6,3.7 -5.4,5.5 -0.8,1.8 -0.9,3.5 -0.8,5.2 0.2,2.5 1.4,5.6 4.2,4.9 -2.1,2.2 -5,9.8 -0.7,14 3.3,3.6 11,-2.5 14,-13.6 0.3,3.5 -0.1,7.4 -1,11.6 -0.9,4.3 -2.6,9 -5.6,14.2 -3.1,6.6 -4.5,11.9 -2.7,13.6 1.3,1.3 3.3,0 4,-1.2 -1,1.7 -2.5,7 -0.2,8.3 3.6,2.1 5.2,-3.1 6,-8.6 l 5.3,-24 c 0,0.1 0,0.1 0,0.2 l 0.6,-3.1 1.3,-5.9 c 1.4,8.7 7.2,13.6 10.5,11.2 4.5,-3 3.8,-10 2.2,-12.6 2.5,1.2 4.5,-1.1 5.2,-3.2 0.5,-1.4 0.8,-2.9 0.5,-4.6 -0.3,-1.7 -1.2,-3.8 -3.3,-6.3 -7.1,-7.1 -7.7,-11.7 -8.2,-15.3 l 1.1,-4.9 c 0.5,0.1 0.9,0.8 1,2.1 1,5.5 2.8,8.6 4.5,10.2 1.7,1.6 3.3,1.9 4.7,1.9 2.7,-0.1 4.9,-4.3 4.1,-7.8 4.4,2.5 7.8,2.2 10.3,-2.3 2.9,-5.9 -0.5,-10 -6.8,-12.3 4.6,-1.7 4.2,-8 -1.8,-10.1 -8.1,-2.9 -8.7,-5.1 -10.1,-8.1 l 0.8,-3.7 c 3.1,6.3 8.4,7.3 10.6,4.5 2.4,-2.9 2.5,-5.7 0.3,-9.6 2.2,-0.1 3.8,-1.9 4,-3.8 0.3,-1.9 -0.6,-4 -3.6,-5 -3.7,-1.8 -5.8,-4 -6.9,-6.1 l 1.5,-6.7 c -0.2,0.8 -1,2.2 -2.5,3.4 -0.1,-0.4 -0.4,0.3 -0.4,0.3 -2.3,1.7 -6.1,2.9 -11.9,1.3 -2.9,-1.3 -5.2,-0.2 -6.2,1.6 -1,1.9 -0.9,4.4 0.7,6 -4.1,2 -5.9,4.6 -5.8,8.6 -0.1,4 5.2,6 11.9,2.1 2.9,-1.8 2,1.6 -1.5,3.5 -3.4,1.9 -4.5,4 -13.7,2 -6.2,-1.5 -10.1,4.6 -7.2,8.7 -6.8,-1.1 -11.9,1.5 -12.1,9.4 -0.2,6.2 2.8,8 7.9,7.3 z"
           id="path57"
           inkscape:connector-curvature="0" /><path
           d="m 411.1,157.5 c 4.4,-2.5 9.4,-2.2 13.5,1.3 3.2,2.2 5.3,1.2 7.2,-0.1 1.4,-1 3,-3 2.3,-4.5 1.6,0.6 6.3,-0.5 8.5,-4.4 1.1,-2 0,-4 -2.8,-4.9 l 1.1,-0.3 c 1.2,0.6 2.4,1.8 3.3,4 0.8,3.2 4.3,2.3 4.6,0.1 2,1.2 3.4,1.2 5,0 1.6,-1.1 1.1,-4 -2.3,-5.7 -0.6,-0.3 -0.7,-0.5 -0.5,-0.7 l 0.7,-0.2 c 0.5,0 1,0.1 1.6,0.5 1.7,1 2.9,0.9 4.4,5.5 1,3.1 4.3,3.4 5.3,1.2 1.1,3.3 3.3,5 6.4,3.5 2.4,-1.3 2.6,-3.1 1.3,-5.3 1.8,0.4 4,-0.9 4.1,-2.2 0,-1.3 -0.6,-3.5 -6.3,-4.6 -1.7,-0.1 -1.4,-1.5 0.7,-1.2 2,0.3 4.4,0 8.7,4.2 2.6,2.2 4.3,1.9 5.8,1.3 1.1,-0.4 2.3,-1.5 1.6,-2.8 1.3,0.7 5.1,0.9 6.5,-1.5 1.3,-2 -2.5,-5.4 -8.3,-5 1.6,-0.6 3.6,-1.1 5.8,-1.2 2.2,-0.1 4.7,0.4 7.5,1.4 3.5,0.9 6.1,1.4 6.8,0.3 0.6,-0.8 -0.2,-1.7 -0.9,-1.9 0.9,0.4 3.6,0.7 4.1,-0.5 0.9,-2 -1.8,-2.4 -4.6,-2.4 l 0,-0.3 c 2.7,-0.7 5.3,-1.8 4,-3.5 -0.8,-1.1 -3.4,-0.1 -4.2,0.5 0.6,-0.4 1.1,-1.5 0.4,-2.1 -0.9,-0.9 -3.5,0.2 -6.7,2 -2.5,1.7 -4.8,2.6 -7,3.3 -2.1,0.7 -4.1,0.9 -5.9,0.9 5.5,-1.8 8.3,-6 6.5,-7.6 -2.2,-2 -5.9,-0.4 -6.9,0.8 0.3,-1.4 -1.3,-2 -2.5,-2 -1.6,0 -3.4,0.3 -5.2,3.3 -2.7,5.3 -5,6.1 -6.7,7.3 -1.7,1.2 -2.7,0.1 -1.1,-0.7 4.8,-3.6 4.7,-5.6 4.1,-6.9 -0.6,-1.3 -3.3,-1.4 -4.9,-0.2 0.3,-2.6 -0.6,-4.1 -3.6,-4.2 -3.8,0.1 -5.1,2.6 -4.7,6.1 -2,-1.6 -5.1,0.2 -4.5,3.4 0.9,4.7 -0.2,5.3 -1.3,7 -1,1.7 -2.8,2.1 -1.8,0.7 2.1,-3.3 1.2,-6.1 -0.8,-6.1 -2,-0.1 -3.4,0.7 -4.5,2.7 -1.4,-1.7 -5.1,-0.6 -4,2.5 0.5,2.8 -0.1,4.6 -0.9,5.7 l -0.8,0.2 c 1.9,-2.2 1.9,-4.6 -0.2,-5.7 -4.2,-2.3 -8.8,0.1 -9.8,1.5 -0.3,-1.7 -2.9,-2.2 -4.7,-2.1 -2.4,0.1 -4.9,0.7 -6.1,4.4 -1,5.5 -4.4,9.1 -9.4,10.3 0.1,0.9 0.4,1.8 0.9,2.7 0.3,0.5 0.7,1.4 1.2,2.2 z"
           id="path59"
           inkscape:connector-curvature="0" /><path
           d="m 295.7,235.6 c 2.6,0.8 5.3,-3.7 5.8,-5.6 -0.4,1.3 0,3.6 1.9,3.7 2.5,0.4 4.9,-4.3 8,-10.5 1.8,-4.5 4.1,-8.2 6.5,-11.2 l -20.2,13.5 c -3.4,4.4 -6.1,9 -2,10.1 z"
           id="path61"
           inkscape:connector-curvature="0" /><path
           d="m 402.4,158.1 c 0.3,-0.3 -0.5,-0.1 -0.5,-0.1 -2.8,-0.4 -6.3,-2.2 -9.3,-7.4 -2.3,-6 -9.5,-3.1 -9.3,1.4 -4.3,-1.5 -7.4,-0.8 -10.2,2.1 -2.9,2.8 -0.5,8 6.9,9.9 3.2,0.7 0.3,2.6 -3.5,1.5 -3.8,-1.1 -6.1,-0.5 -11.2,-8.4 -3.3,-5.4 -10.4,-3.8 -11.2,1.2 -2,-2.8 -4.4,-4.6 -7,-5.1 -2.6,-0.5 -5.4,0.4 -8.2,3.1 -4.2,4.5 -3.4,7.8 0.7,10.9 -3.9,0.6 -7.5,4.6 -6.5,7.3 0.9,2.5 3.6,5.5 15.3,3.6 3.3,-1.1 3.6,1.9 -0.5,2.6 -2,0.4 -4.1,1.1 -7.1,1.3 -3,0.2 -6.8,-0.1 -12.5,-1.8 -6.7,-1.4 -9.9,0.6 -12,3.1 -1.6,1.9 -2.9,5 -0.5,6.4 -3,0.1 -10.4,3.5 -10.4,9.3 -0.1,2.4 2.3,3.9 6,4.1 3.7,0.2 8.6,-0.8 13.6,-3.7 -2.3,2.7 -5.2,5.3 -9,7.5 -3.7,2.4 -8.2,4.5 -14,6 -6.9,2.4 -11.7,5.2 -11.5,7.7 0,1.9 2.4,2.3 3.7,2 -1.9,0.5 -6.7,3.2 -6,5.8 1.1,4.1 5.9,1.5 10.3,-1.8 l 20.7,-13.3 c 0,0.1 -0.1,0.1 -0.1,0.2 l 2.6,-1.7 5.2,-3.3 c -2.2,3.1 -3.4,6.2 -3.8,8.8 -0.4,3.6 0.8,6.2 3.1,6.6 5.3,1.1 9.8,-4.4 10.4,-7.3 0.9,2.6 3.9,2.3 5.9,1.4 2.6,-1.3 5.3,-3.1 5.7,-9.7 0,-5.7 0.9,-9.5 2.1,-12.1 1,-2.1 2.2,-3.5 3.2,-4.8 l 3.9,-2.5 c 0.3,0.4 0.2,1.2 -0.7,2.2 -6.2,9.4 -4,13.1 -2.1,14.9 1.9,1.7 6.7,0.6 8.5,-2.5 1.3,4.9 4,7 8.9,5.6 6.1,-2.2 6.8,-7.2 3.9,-13.5 4.4,2 8.6,-2.8 5.8,-8.6 -3.7,-8 -2.4,-9.8 -1.3,-13 l 3.2,-2 c -2.3,6.8 0.8,11.3 4.3,10.8 3.7,-0.4 5.7,-2.4 7,-6.7 3.3,2.9 9.5,-0.1 6.6,-5.8 -1.4,-3.9 -1.3,-7 -0.6,-9.3 l 5.7,-3.7 c -0.7,0.5 -2.3,0.9 -4.2,0.8 z"
           id="path63"
           inkscape:connector-curvature="0" /><path
           d="m 690.1,170 c 0.7,3.8 3,4.4 5.2,4.9 1.7,0.3 4.2,0.1 4.8,-1.5 0.7,1.6 4.7,4.3 9.1,2.9 2.2,-0.6 2.8,-2.8 1.5,-5.2 l 1,0.6 c 0.4,1.2 0.4,2.8 -0.5,5 -1.7,2.8 1.4,4.7 3.2,3.3 0.5,2.2 1.6,3.3 3.5,3.6 1.9,0.4 3.6,-2 2.4,-5.7 -0.2,-0.6 -0.1,-0.8 0.1,-0.8 l 0.7,0.5 c 0.3,0.3 0.6,0.8 0.8,1.4 0.5,1.9 1.4,2.7 -0.8,7 -1.5,2.9 0.7,5.3 3,4.5 -1.5,3.1 -1.3,5.9 2,7.1 2.6,0.8 4,-0.3 4.7,-2.8 1,1.6 3.4,2.3 4.4,1.3 1,-0.9 2,-2.8 -1.2,-7.7 -1.2,-1.3 0.1,-2 1.3,-0.3 1.1,1.7 3.1,3.2 3.3,9.1 0.3,3.4 1.7,4.4 3.1,5 1.1,0.5 2.7,0.6 3.1,-0.8 0.4,1.5 2.9,4.3 5.7,3.5 2.4,-0.5 2,-5.5 -2.3,-9.4 3.2,1.5 6.8,4 9.3,9.5 1.8,3.1 3.4,5.3 4.6,5 0.9,-0.2 1,-1.4 0.8,-2 0.4,0.9 2,3.1 3.3,2.6 2,-0.8 0.4,-3 -1.6,-5 l 0.2,-0.2 c 2.4,1.5 5,2.5 5.3,0.4 0.2,-1.4 -2.3,-2.5 -3.3,-2.6 0.7,0.1 1.9,-0.2 1.8,-1.2 0,-1.3 -2.6,-2.4 -6.1,-3.4 -5.8,-1.3 -9.6,-3.5 -12,-6.2 5.1,2.7 10.1,1.6 9.9,-0.8 -0.2,-2.9 -3.9,-4.4 -5.4,-4.4 1.2,-0.8 0.5,-2.3 -0.4,-3.2 -1.1,-1.2 -2.6,-2.2 -6,-1.4 -5.7,2 -7.9,0.9 -9.9,0.5 -2.1,-0.4 -1.9,-1.9 -0.3,-1.3 5.9,1 7.3,-0.7 7.7,-2 0.4,-1.3 -1.3,-3.3 -3.3,-3.6 2.1,-1.6 2.5,-3.3 0.4,-5.5 -2.7,-2.7 -5.5,-1.8 -7.6,0.9 -0.3,-2.6 -3.8,-3.3 -5.6,-0.6 -2.7,3.9 -3.9,3.6 -5.8,4.1 -1.9,0.5 -3.4,-0.5 -1.7,-0.8 3.8,-0.8 5.1,-3.4 3.8,-4.9 -1.3,-1.5 -2.8,-1.9 -5.1,-1.3 0.2,-2.3 -3.2,-4.1 -4.6,-1.1 -1.6,2.4 -3.4,3.2 -4.8,3.4 0,0 4.1,-2.4 3.2,-4.7 -1.4,-4.4 -6.3,-6.2 -8,-5.9 1,-1.4 -0.4,-3.6 -1.8,-4.9 -1.8,-1.7 -4,-2.9 -7.5,-1.1 -4.6,3.1 -9.5,3.2 -13.9,0.5 -0.6,0.8 -1,1.6 -1.3,2.5 -0.4,0.8 -0.7,1.7 -0.9,2.6 4.9,1.5 8.1,5.2 8.5,10.6 z"
           id="path65"
           inkscape:connector-curvature="0" /><path
           d="m 544.8,134.1 c 1.3,2.4 6.4,1.1 8.1,0.2 -1.2,0.6 -2.5,2.6 -1.3,4 1.5,2 6.5,0.5 13.1,-1.8 4.5,-1.9 8.7,-2.9 12.5,-3.3 l -23.8,-4.7 c -5.6,0.5 -10.7,1.9 -8.6,5.6 z"
           id="path67"
           inkscape:connector-curvature="0" /><path
           d="m 673.3,141.5 c 1.3,-2.9 0.2,-5.2 -1.6,-6.2 -1.9,-1 -4.4,-0.9 -6,0.7 -2,-4.1 -4.6,-5.9 -8.7,-5.8 -4,-0.1 -6,5.2 -2.1,11.9 1.8,2.9 -1.6,2 -3.5,-1.5 -1.9,-3.4 -4,-4.5 -2,-13.7 1.5,-6.2 -4.6,-10.1 -8.7,-7.2 1.1,-6.8 -1.5,-11.9 -9.4,-12.1 -6.1,0.1 -7.9,3.1 -7.2,8.1 -3.2,-2.5 -8.6,-1.8 -9.8,0.6 -0.5,1.2 -0.9,2.8 0.1,5 1,2.2 3.4,4.8 8.2,8.3 3.1,1.6 1.2,3.8 -2.2,1.5 -3.3,-2.5 -8,-3.6 -13.5,-14.2 -1.8,-2.9 -3.7,-4.6 -5.5,-5.4 -1.8,-0.8 -3.5,-0.9 -5.2,-0.8 -2.5,0.2 -5.6,1.4 -4.9,4.2 -2.2,-2.1 -9.8,-5 -14,-0.7 -3.6,3.3 2.5,11 13.6,14 -3.5,0.3 -7.4,-0.1 -11.6,-1 -4.3,-0.9 -9,-2.6 -14.2,-5.6 -6.6,-3.1 -11.9,-4.5 -13.6,-2.7 -1.3,1.3 0,3.3 1.2,4 -1.7,-1 -7,-2.5 -8.3,-0.2 -2.1,3.6 3.1,5.2 8.6,6 l 24,5.3 c -0.1,0 -0.1,0 -0.2,0 l 3.1,0.6 5.9,1.3 c -8.7,1.4 -13.6,7.2 -11.2,10.5 3,4.5 10,3.8 12.6,2.2 -1.2,2.5 1.1,4.5 3.2,5.2 1.4,0.5 2.9,0.8 4.6,0.5 1.7,-0.3 3.8,-1.2 6.3,-3.3 7.1,-7.1 11.7,-7.7 15.3,-8.2 l 4.9,1.1 c -0.1,0.5 -0.8,0.9 -2.1,1 -5.5,1 -8.6,2.8 -10.2,4.5 -1.6,1.7 -1.9,3.3 -1.9,4.7 0.1,2.7 4.3,4.9 7.8,4.1 -2.5,4.4 -2.2,7.8 2.3,10.3 5.9,2.9 10,-0.5 12.3,-6.8 1.7,4.6 8,4.2 10.1,-1.8 2.9,-8.1 5.1,-8.7 8.1,-10.1 l 3.7,0.8 c -6.3,3.1 -7.3,8.4 -4.5,10.6 2.9,2.4 5.7,2.5 9.6,0.3 0.1,2.2 1.9,3.8 3.8,4 1.9,0.3 4,-0.6 5,-3.6 1.8,-3.7 4,-5.8 6.1,-6.9 l 6.7,1.5 c -0.8,-0.2 -2.2,-1 -3.4,-2.5 0.4,-0.1 -0.3,-0.4 -0.3,-0.4 -1.7,-2.5 -2.9,-6.3 -1.3,-12.1 z"
           id="path69"
           inkscape:connector-curvature="0" /><path
           d="m 876.5,350.1 c -0.9,0.1 -1.8,0.4 -2.7,0.9 -0.9,0.3 -1.7,0.7 -2.5,1.2 2.5,4.4 2.2,9.4 -1.3,13.5 -2.2,3.2 -1.2,5.3 0.1,7.2 1,1.4 3,3 4.5,2.3 -0.6,1.6 0.5,6.3 4.4,8.5 2,1.1 4,0 4.9,-2.8 l 0.3,1.1 c -0.6,1.2 -1.8,2.4 -4,3.3 -3.2,0.8 -2.3,4.3 -0.1,4.6 -1.2,2 -1.2,3.4 0,5 1.1,1.6 4,1.1 5.7,-2.3 0.3,-0.6 0.5,-0.7 0.7,-0.5 l 0.2,0.7 c 0,0.5 -0.1,1 -0.5,1.6 -1,1.7 -0.9,2.9 -5.5,4.4 -3.1,1 -3.4,4.3 -1.2,5.3 -3.3,1.1 -5,3.3 -3.5,6.4 1.3,2.4 3.1,2.6 5.3,1.3 -0.4,1.8 0.9,4 2.2,4.1 1.3,0 3.5,-0.6 4.6,-6.3 0.1,-1.7 1.5,-1.4 1.2,0.7 -0.3,2 0,4.4 -4.2,8.7 -2.2,2.6 -1.9,4.3 -1.3,5.8 0.4,1.1 1.5,2.3 2.8,1.6 -0.7,1.3 -0.9,5.1 1.5,6.5 2,1.3 5.3,-2.5 5,-8.3 0.6,1.6 1.1,3.6 1.2,5.8 0.1,2.2 -0.4,4.7 -1.4,7.5 -0.9,3.5 -1.4,6.1 -0.3,6.8 0.8,0.5 1.7,-0.2 1.9,-0.9 -0.4,0.9 -0.7,3.6 0.5,4.1 2,0.9 2.4,-1.8 2.4,-4.6 l 0.3,0 c 0.7,2.7 1.8,5.3 3.5,4 1.1,-0.8 0.1,-3.4 -0.5,-4.2 0.4,0.6 1.5,1.1 2.1,0.4 0.9,-0.9 -0.2,-3.5 -2,-6.7 -1.7,-2.5 -2.6,-4.8 -3.3,-7 -0.7,-2.1 -0.9,-4.1 -0.8,-5.9 1.8,5.5 6,8.3 7.6,6.5 2,-2.2 0.4,-5.9 -0.8,-6.9 1.4,0.3 2,-1.3 2,-2.5 0,-1.6 -0.3,-3.4 -3.3,-5.2 -5.3,-2.7 -6.1,-5 -7.3,-6.7 -1.2,-1.7 -0.1,-2.7 0.7,-1.1 3.6,4.8 5.6,4.7 6.9,4.1 1.3,-0.6 1.4,-3.3 0.2,-4.9 2.6,0.3 4.1,-0.6 4.2,-3.6 -0.1,-3.8 -2.6,-5.1 -6.1,-4.7 1.6,-2 -0.2,-5.1 -3.4,-4.5 -4.7,0.9 -5.3,-0.2 -7,-1.3 -1.7,-1 -2.1,-2.8 -0.7,-1.8 3.3,2.1 6.1,1.2 6.1,-0.8 0.1,-2 -0.7,-3.4 -2.7,-4.5 1.7,-1.4 0.6,-5.1 -2.5,-4 -2.8,0.5 -4.6,-0.1 -5.7,-0.9 l -0.2,-0.8 c 2.2,1.9 4.6,1.9 5.7,-0.2 2.3,-4.2 -0.1,-8.8 -1.5,-9.8 1.7,-0.3 2.2,-2.9 2.1,-4.7 -0.1,-2.4 -0.7,-4.9 -4.4,-6.1 -5.2,-1 -8.8,-4.4 -10.1,-9.4 z"
           id="path71"
           inkscape:connector-curvature="0" /><path
           d="m 792.6,237.2 c -0.8,2.6 3.7,5.3 5.6,5.8 -1.3,-0.4 -3.6,0 -3.7,1.9 -0.4,2.5 4.3,4.9 10.5,8 4.5,1.8 8.2,4.1 11.2,6.5 l -13.5,-20.2 c -4.3,-3.4 -8.9,-6.1 -10.1,-2 z"
           id="path73"
           inkscape:connector-curvature="0" /><path
           d="m 808.1,231.5 c -1.9,0 -2.3,2.4 -2,3.7 -0.5,-1.9 -3.2,-6.7 -5.8,-6 -4.1,1.1 -1.5,5.9 1.8,10.3 l 14.8,23.2 3.4,5.2 c -3.1,-2.2 -6.2,-3.4 -8.8,-3.8 -3.6,-0.4 -6.2,0.8 -6.6,3.1 -1.1,5.3 4.4,9.8 7.3,10.4 -2.6,0.9 -2.3,3.9 -1.4,5.9 1.3,2.6 3.1,5.3 9.7,5.7 5.7,0 9.5,0.9 12.1,2.1 2.1,1 3.5,2.2 4.8,3.2 l 2.5,3.9 c -0.4,0.3 -1.2,0.2 -2.2,-0.7 -9.4,-6.2 -13.1,-4 -14.9,-2.1 -1.7,1.9 -0.6,6.7 2.5,8.5 -4.9,1.3 -7,4 -5.6,8.9 2.2,6.1 7.2,6.8 13.5,3.9 -2,4.4 2.8,8.6 8.6,5.8 8,-3.7 9.8,-2.4 13,-1.2 l 2,3.2 c -6.8,-2.3 -11.3,0.8 -10.8,4.3 0.4,3.7 2.4,5.7 6.7,7 -2.9,3.3 0.1,9.5 5.8,6.6 3.9,-1.4 7,-1.3 9.3,-0.6 l 3.7,5.7 c -0.4,-0.7 -0.8,-2.3 -0.6,-4.2 0.3,0.3 0.1,-0.5 0.1,-0.5 0.4,-2.8 2.2,-6.3 7.4,-9.3 6,-2.3 3.1,-9.5 -1.4,-9.3 1.5,-4.3 0.8,-7.4 -2.1,-10.2 -2.8,-2.9 -8,-0.5 -9.9,6.9 -0.7,3.2 -2.6,0.3 -1.5,-3.5 1.1,-3.8 0.5,-6.1 8.4,-11.2 5.4,-3.3 3.8,-10.4 -1.2,-11.2 2.8,-2 4.6,-4.4 5.1,-7 0.5,-2.6 -0.4,-5.4 -3.1,-8.2 -4.5,-4.2 -7.8,-3.4 -10.9,0.7 -0.6,-3.9 -4.6,-7.5 -7.3,-6.5 -2.5,0.9 -5.5,3.6 -3.6,15.3 1.1,3.3 -1.9,3.6 -2.6,-0.5 -0.4,-2 -1.1,-4.1 -1.3,-7.1 -0.2,-3 0.1,-6.8 1.8,-12.5 1.4,-6.7 -0.6,-9.9 -3.1,-12 -1.9,-1.6 -5,-2.9 -6.4,-0.5 -0.1,-3 -3.5,-10.4 -9.3,-10.4 -2.4,-0.1 -3.9,2.3 -4.1,6 -0.2,3.7 0.8,8.6 3.7,13.6 -2.7,-2.3 -5.3,-5.2 -7.5,-9 -2.4,-3.7 -4.5,-8.2 -6,-14 -2.7,-7 -5.5,-11.7 -8,-11.6 z"
           id="path75"
           inkscape:connector-curvature="0" /><path
           class="st0"
           d="m 176.3,497.2 c -5.2,-1.9 -10.3,-4 -18.1,-5.9 -7.5,-1.8 -14.7,0.1 -19.4,3.9 -4.8,3.8 -7.1,9.3 -5.9,14.7 1.3,5.4 5.6,9.3 11,11 5.4,1.7 11.8,1.3 17.9,-2.3 6.3,-3.7 10.7,-6.8 15.3,-9.4 4.6,-2.6 9.4,-4.9 16.7,-6.7 -7.3,-1.7 -12.4,-3.4 -17.5,-5.3 z"
           id="path77"
           inkscape:connector-curvature="0"
           /><path
           class="st0"
           d="m 254.9,240.6 c 12.4,3.7 18.7,3.4 29.6,9.6 -6.2,-11 -6.1,-17.3 -11,-29.8 -4.8,-12.2 -19.3,-13.6 -26.4,-5.2 -7.1,8.5 -4.2,22 7.8,25.4 z"
           id="path79"
           inkscape:connector-curvature="0"
           /><path
           class="st0"
           d="m 521.8,135.4 c 2.7,-11 7.1,-15.1 12.2,-25.9 5,-10.5 -3.9,-20.2 -14.9,-19.5 -11,0.7 -18.7,11.3 -12.5,21.1 6.4,10.1 11.2,13.7 15.2,24.3 z"
           id="path81"
           inkscape:connector-curvature="0"
           /><path
           class="st0"
           d="m 790.5,217.8 c 4.2,-2.2 8.6,-4.1 14.3,-6.8 5.6,-2.7 8.6,-7.1 9.5,-12 0.8,-4.9 -0.4,-10.4 -4.2,-14.4 -3.8,-4 -9.5,-5.3 -14.8,-3.6 -5.3,1.6 -10.3,6.3 -12.1,13.2 -1.8,7.1 -2.1,12.2 -2.6,17.2 -0.5,5 -1.1,9.8 -2.6,16.2 4.4,-5 8.3,-7.6 12.5,-9.8 z"
           id="path83"
           inkscape:connector-curvature="0"
           /><path
           class="st0"
           d="m 947.9,459.3 c -1.1,-11 -17.8,-17.7 -33,-10.6 -15.7,7.3 -21.2,12.5 -37.8,17.4 17.2,1.7 23.6,5.7 40.4,9.9 16.4,4.1 31.5,-5.8 30.4,-16.7 z"
           id="path85"
           inkscape:connector-curvature="0"
           /><path
           class="st0"
           d="m 828.5,727.5 c -6.1,-1.2 -10.7,-1.7 -15.1,-2.7 -4.4,-0.9 -8.8,-2.3 -14.2,-5.4 3,5.5 4.7,9.7 6.2,14.2 1.5,4.5 2.9,9.2 6,15.3 2.9,6 8.4,9.1 13.6,9.4 5.3,0.3 10.4,-2.2 13.4,-6.8 3,-4.6 3.3,-10.2 1.6,-14.7 -1.9,-4.6 -5.7,-8.2 -11.5,-9.3 z"
           id="path87"
           inkscape:connector-curvature="0"
           /><path
           d="m 565.3,839.9 c -3.4,11.5 -7.9,15.5 -13.7,26.6 -5.6,10.8 2.7,21.6 13.7,21.6 11,0 19.3,-10.8 13.7,-21.6 -5.8,-11.1 -10.4,-15.1 -13.7,-26.6 z"
           id="path89"
           inkscape:connector-curvature="0" /><path
           class="st0"
           d="m 270.4,769.4 c -1.2,5.1 0,10.7 3.8,14.7 3.8,4 9.5,5.2 14.8,3.7 5.3,-1.5 10.4,-5.8 12.6,-12.4 4.4,-13.7 3.9,-20.3 9.3,-32.7 -10.7,8.4 -17.2,9 -29.7,14.4 -6.1,2.5 -9.6,7.2 -10.8,12.3 z"
           id="path91"
           inkscape:connector-curvature="0"
           /></g></g></switch></svg>