<?xml version="1.0" encoding="UTF-8" standalone="no"?>
<svg
   xmlns:dc="http://purl.org/dc/elements/1.1/"
   xmlns:cc="http://creativecommons.org/ns#"
   xmlns:rdf="http://www.w3.org/1999/02/22-rdf-syntax-ns#"
   xmlns:svg="http://www.w3.org/2000/svg"
   xmlns="http://www.w3.org/2000/svg"
   xmlns:sodipodi="http://sodipodi.sourceforge.net/DTD/sodipodi-0.dtd"
   xmlns:inkscape="http://www.inkscape.org/namespaces/inkscape"
   version="1.1"
   id="Layer_1"
   x="0px"
   y="0px"
   viewBox="0 0 1000 1000"
   width="100%"
   height="100%"
   style="enable-background:new 0 0 1000 1000;"
   xml:space="preserve"
   ><style
     type="text/css"
     id="style3">
	.noFillSVG{fill:none;}
</style><switch
     id="switch5"
     transform="translate(-15.2,6.1)"><g
       id="g7"><g
         id="g9"><path
           class="noFillSVG"
           d="m 793.7,659.5 c 0.1,3 -1,7.2 -2.6,11.6 -0.8,2.2 -1.6,4.5 -2,6.8 -0.4,2.5 -0.8,5.1 -0.9,7.9 -0.3,5.5 0,11.4 1,17.2 1.3,7.5 3.6,14.8 6.3,21.2 0.2,-2.7 0.5,-5.4 0.9,-8.2 0.7,-5.9 1.7,-12 2.6,-17.8 0.9,-5.8 1.4,-11.4 1.3,-16.6 -0.1,-5.1 -1,-9.9 -2.2,-13.7 -1.3,-4.3 -3.1,-7.4 -4.4,-9.5 0,0.3 0,0.7 0,1.1 z"
           id="path11"
           inkscape:connector-curvature="0"
           style="fill:none" /><path
           class="noFillSVG"
           d="m 337.9,769.3 c -2.2,-0.8 -4.5,-1.6 -6.8,-2 -2.5,-0.4 -5.1,-0.8 -7.9,-0.9 -5.5,-0.3 -11.4,0 -17.2,1 -7.5,1.3 -14.8,3.6 -21.2,6.3 2.7,0.2 5.4,0.5 8.2,0.9 5.9,0.7 12,1.7 17.8,2.6 5.8,0.9 11.4,1.4 16.6,1.3 5.1,-0.1 9.9,-1 13.7,-2.2 3.6,-1.1 6.4,-2.6 8.4,-3.8 -0.3,-0.2 -0.6,-0.4 -0.9,-0.6 -2.8,0 -6.7,-1.1 -10.7,-2.6 z"
           id="path13"
           inkscape:connector-curvature="0"
           style="fill:none" /><path
           class="noFillSVG"
           d="m 673.5,776.5 c -1.4,2.7 -4.5,5.7 -8.1,8.7 -1.8,1.5 -3.6,3.1 -5.1,4.9 -1.6,2 -3.3,4.1 -4.8,6.4 -3,4.6 -5.7,9.9 -7.7,15.4 -2.6,7.1 -4.2,14.6 -5.2,21.5 1.5,-2.2 3.2,-4.4 4.8,-6.7 3.6,-4.8 7.5,-9.6 11.2,-14.2 3.6,-4.6 6.9,-9.2 9.4,-13.7 2.5,-4.5 4.1,-9 5,-13 0.9,-4.2 1,-7.7 0.9,-10.2 -0.1,0 -0.1,0.1 -0.2,0.1 0.1,0.2 -0.1,0.5 -0.2,0.8 z"
           id="path15"
           inkscape:connector-curvature="0"
           style="fill:none" /><path
           class="noFillSVG"
           d="m 510.9,817.6 c -2.6,1.6 -6.8,2.7 -11.4,3.5 -2.3,0.4 -4.7,0.9 -6.8,1.7 -2.4,0.9 -4.9,1.9 -7.3,3.1 -4.9,2.4 -9.9,5.7 -14.4,9.5 -5.8,4.9 -11,10.5 -15.2,16 2.4,-1.1 4.9,-2.2 7.5,-3.4 5.5,-2.4 11.3,-4.5 16.7,-6.7 5.5,-2.2 10.6,-4.5 15,-7.2 4.4,-2.7 8.1,-5.8 10.8,-8.8 2.7,-2.9 4.4,-5.8 5.6,-7.9 -0.1,0.2 -0.3,0.2 -0.5,0.2 0,0 0,0 0,0 z"
           id="path17"
           inkscape:connector-curvature="0"
           style="fill:none" /><path
           class="noFillSVG"
           d="m 223.8,643.7 c -1.5,-1.8 -3.1,-3.6 -4.9,-5.1 -2,-1.6 -4.1,-3.3 -6.4,-4.8 -4.6,-3 -9.9,-5.7 -15.4,-7.7 -7.1,-2.6 -14.6,-4.2 -21.5,-5.2 2.2,1.5 4.4,3.2 6.7,4.8 4.8,3.6 9.6,7.5 14.2,11.2 4.6,3.6 9.2,6.9 13.7,9.4 4.5,2.5 9,4.1 13,5 3.5,0.8 6.5,0.9 8.8,0.9 -0.2,-0.4 -0.5,-0.9 -0.7,-1.3 -2.3,-1.5 -4.9,-4.2 -7.5,-7.2 z"
           id="path19"
           inkscape:connector-curvature="0"
           style="fill:none" /><path
           class="noFillSVG"
           d="m 798.2,335.5 c 2.7,1.4 5.7,4.5 8.7,8.1 1.5,1.8 3.1,3.6 4.9,5.1 2,1.6 4.1,3.3 6.4,4.8 4.6,3 9.9,5.7 15.4,7.7 7.1,2.6 14.6,4.2 21.5,5.2 -2.2,-1.5 -4.4,-3.2 -6.7,-4.8 -4.8,-3.6 -9.6,-7.5 -14.2,-11.2 -4.6,-3.6 -9.2,-6.9 -13.7,-9.4 -4.5,-2.5 -9,-4.1 -13,-5 -4.4,-1 -8,-1 -10.4,-0.9 0.4,0.1 0.7,0.2 1.1,0.4 z"
           id="path21"
           inkscape:connector-curvature="0"
           style="fill:none" /><path
           class="noFillSVG"
           d="m 187.9,477.8 c -0.4,-2.3 -0.9,-4.7 -1.7,-6.8 -0.9,-2.4 -1.9,-4.9 -3.1,-7.3 -2.4,-4.9 -5.7,-9.9 -9.5,-14.4 -4.9,-5.8 -10.5,-11 -16,-15.2 1.1,2.4 2.2,4.9 3.4,7.5 2.4,5.5 4.5,11.3 6.7,16.7 2.2,5.5 4.5,10.6 7.2,15 2.7,4.4 5.8,8.1 8.8,10.8 2.5,2.3 5,3.9 7,5.1 0,-0.6 0,-1.2 0,-1.8 -1.3,-2.5 -2.2,-5.9 -2.8,-9.6 z"
           id="path23"
           inkscape:connector-curvature="0"
           style="fill:none" /><path
           class="noFillSVG"
           d="m 681.3,215.3 c 3,-0.1 7.2,1 11.6,2.6 2.2,0.8 4.5,1.6 6.8,2 2.5,0.4 5.1,0.8 7.9,0.9 5.5,0.3 11.4,0 17.2,-1 7.5,-1.3 14.8,-3.6 21.2,-6.3 -2.7,-0.2 -5.4,-0.5 -8.2,-0.9 -5.9,-0.7 -12,-1.7 -17.8,-2.6 -5.8,-0.9 -11.4,-1.4 -16.6,-1.3 -5.1,0.1 -9.9,1 -13.7,2.2 -4.1,1.3 -7.1,3 -9.2,4.2 0.1,0 0.1,0.1 0.2,0.1 0.1,0.1 0.3,0.1 0.6,0.1 z"
           id="path25"
           inkscape:connector-curvature="0"
           style="fill:none" /><path
           class="noFillSVG"
           d="m 531.3,166.1 c 2.3,-0.4 4.7,-0.9 6.8,-1.7 2.4,-0.9 4.9,-1.9 7.3,-3.1 4.9,-2.4 9.9,-5.7 14.4,-9.5 5.8,-4.9 11,-10.5 15.2,-16 -2.4,1.1 -4.9,2.2 -7.5,3.4 -5.5,2.4 -11.3,4.5 -16.7,6.7 -5.5,2.2 -10.6,4.5 -15,7.2 -4.4,2.7 -8.1,5.8 -10.8,8.8 -2.7,2.9 -4.4,5.7 -5.6,7.8 0.2,0 0.5,0 0.7,0 2.5,-1.7 6.7,-2.8 11.2,-3.6 z"
           id="path27"
           inkscape:connector-curvature="0"
           style="fill:none" /><path
           class="noFillSVG"
           d="m 239.7,316.1 c 0.8,-2.2 1.6,-4.5 2,-6.8 0.4,-2.5 0.8,-5.1 0.9,-7.9 0.3,-5.5 0,-11.4 -1,-17.2 -1.3,-7.5 -3.6,-14.8 -6.3,-21.2 -0.2,2.7 -0.5,5.4 -0.9,8.2 -0.7,5.9 -1.7,12 -2.6,17.8 -0.9,5.8 -1.4,11.4 -1.3,16.6 0.1,5.1 1,9.9 2.2,13.7 1.1,3.4 2.4,6 3.6,8 0.3,-0.5 0.5,-0.9 0.8,-1.4 0.3,-2.6 1.3,-6.1 2.6,-9.8 z"
           id="path29"
           inkscape:connector-curvature="0"
           style="fill:none" /><path
           class="noFillSVG"
           d="m 365.4,202.1 c 1.8,-1.5 3.6,-3.1 5.1,-4.9 1.6,-2 3.3,-4.1 4.8,-6.4 3,-4.6 5.7,-9.9 7.7,-15.4 2.6,-7.1 4.2,-14.6 5.2,-21.5 -1.5,2.2 -3.2,4.4 -4.8,6.7 -3.5,4.8 -7.5,9.6 -11.2,14.2 -3.7,4.6 -6.9,9.2 -9.4,13.7 -2.5,4.5 -4.1,9 -5,13 -0.8,3.6 -0.9,6.7 -0.9,9.1 0.3,-0.2 0.7,-0.4 1,-0.6 1.4,-2.5 4.3,-5.2 7.5,-7.9 z"
           id="path31"
           inkscape:connector-curvature="0"
           style="fill:none" /><path
           class="noFillSVG"
           d="m 869.9,545.7 c -2.4,-5.5 -4.5,-11.3 -6.7,-16.7 -2.2,-5.5 -4.5,-10.6 -7.2,-15 -2.7,-4.4 -5.8,-8.1 -8.8,-10.8 -3.3,-3 -6.4,-4.8 -8.6,-6 0.2,0.3 0.5,0.6 0.7,1 1.6,2.6 2.7,6.8 3.5,11.4 0.4,2.3 0.9,4.7 1.7,6.8 0.9,2.4 1.9,4.9 3.1,7.3 2.4,4.9 5.7,9.9 9.5,14.4 4.9,5.8 10.5,11 16,15.2 -1,-2.5 -2.1,-5 -3.2,-7.6 z"
           id="path33"
           inkscape:connector-curvature="0"
           style="fill:none" /><path
           class="noFillSVG"
           d="m 514.5,173.9 c -117.1,0 -219.7,63.3 -275.4,157.5 -0.1,0.5 -0.3,0.7 -0.5,0.8 -27.4,46.6 -43.3,100.7 -43.8,158.5 0.2,0.8 0.4,1.4 0.1,1.6 0,0.1 -0.1,0.1 -0.1,0.2 0,0.4 0,0.8 0,1.2 0,57.5 15.3,111.6 42,158.3 0.2,0.3 0.4,0.5 0.4,0.7 55.2,96 158.9,160.8 277.3,160.8 176.3,0 319.7,-143.4 319.7,-319.7 0,-176.3 -143.4,-319.9 -319.7,-319.9 z m 0,628 c -170,0 -308.3,-138.3 -308.3,-308.3 0,-170 138.3,-308.3 308.3,-308.3 170,0 308.3,138.3 308.3,308.3 0,170 -138.3,308.3 -308.3,308.3 z"
           id="path35"
           inkscape:connector-curvature="0"
           style="fill:none" /><circle
           class="noFillSVG"
           cx="514.5"
           cy="493.60001"
           r="306.10001"
           id="circle37"
           style="fill:none" /><path
           d="m 514.5,185.3 c -170,0 -308.3,138.3 -308.3,308.3 0,170 138.3,308.3 308.3,308.3 170,0 308.3,-138.3 308.3,-308.3 0,-170 -138.3,-308.3 -308.3,-308.3 z m 0,614.4 c -168.8,0 -306.1,-137.3 -306.1,-306.1 0,-168.8 137.3,-306.1 306.1,-306.1 168.8,0 306.1,137.3 306.1,306.1 0,168.8 -137.3,306.1 -306.1,306.1 z"
           id="path39"
           inkscape:connector-curvature="0" /><path
           d="m 899.1,570.7 c -1.3,-1.9 -5.5,-8 -10.5,-16.3 -2.5,-4.1 -5.2,-8.9 -8,-13.9 -2.7,-5 -5.4,-10.4 -8.3,-15.8 -2.9,-5.4 -6.1,-10.8 -9.9,-15.4 -3.7,-4.6 -8,-8.2 -12,-10.6 -4,-2.4 -7.8,-3.6 -10.4,-4 -0.6,-0.1 -1,-0.1 -1.5,-0.1 0,-0.3 0,-0.6 0,-1 0,-50 -11.4,-97.4 -31.7,-139.8 1.9,2.1 3.9,4.2 6.2,6.3 4.7,4.1 10.3,7.8 16.3,10.8 12,6 25.2,8.9 35.1,10.2 10,1.4 16.9,1.4 17.5,1.5 0.1,0 0.4,0 0.8,0 l 31.7,-0.2 -28.3,-13.8 c -2.1,-1 -8.7,-4.2 -17.2,-8.8 -4.3,-2.3 -9,-5.1 -13.8,-8 -4.9,-3 -9.8,-6.3 -15.1,-9.6 -5.2,-3.3 -10.7,-6.3 -16.2,-8.4 -5.5,-2.1 -11,-3.1 -15.7,-3.2 -4.7,-0.1 -8.5,0.8 -11,1.8 -0.5,0.2 -0.9,0.4 -1.3,0.6 -24.2,-42.1 -57.5,-78.3 -97.2,-105.8 2.5,0.8 5.1,1.6 7.8,2.1 6.1,1.2 12.8,1.6 19.5,1.2 13.4,-0.9 26.2,-4.9 35.5,-8.7 9.3,-3.8 15.3,-7.2 15.9,-7.5 0.1,-0.1 0.3,-0.2 0.7,-0.4 l 27.4,-16 -31.4,2.2 c -2.3,0.2 -9.6,0.8 -19.3,1 -4.9,0.1 -10.3,0.1 -16,0 -5.7,-0.1 -11.7,-0.5 -17.8,-0.8 -6.1,-0.2 -12.4,-0.1 -18.3,0.9 -5.9,0.9 -11.1,2.8 -15.2,5.1 -4.1,2.3 -7,5 -8.7,7.1 -0.3,0.3 -0.4,0.6 -0.6,0.9 -40.4,-23.7 -86.4,-38.9 -135.5,-43.1 2,-0.5 4,-1 6,-1.7 5.9,-2 11.9,-5 17.5,-8.7 11.2,-7.4 20.3,-17.4 26.4,-25.3 6.2,-8 9.7,-13.9 10,-14.4 0,-0.1 0.2,-0.3 0.4,-0.7 l 15.7,-27.6 -26.1,17.6 c -1.9,1.3 -8,5.5 -16.3,10.5 -4.1,2.5 -8.9,5.2 -13.9,8 -5,2.7 -10.4,5.4 -15.8,8.3 -5.4,2.9 -10.8,6.1 -15.4,9.9 -4.6,3.7 -8.2,8 -10.6,12 -2.4,4 -3.6,7.8 -4,10.4 0,0.2 0,0.4 -0.1,0.6 -0.6,0 -1.2,0 -1.8,0 -48.6,0 -94.8,10.8 -136.2,30 1.2,-1.1 2.3,-2.3 3.4,-3.6 4.1,-4.7 7.8,-10.3 10.8,-16.3 6,-12 8.9,-25.2 10.2,-35.1 1.4,-10 1.4,-16.9 1.5,-17.5 0,-0.1 0,-0.4 0,-0.8 L 404,94.5 390.2,122.8 c -1,2.1 -4.2,8.7 -8.8,17.2 -2.3,4.3 -5.1,9 -8,13.8 -3,4.9 -6.3,9.8 -9.6,15.1 -3.3,5.2 -6.3,10.7 -8.4,16.2 -2.1,5.5 -3.1,11 -3.2,15.7 -0.1,4.7 0.8,8.5 1.8,11 0,0.1 0.1,0.1 0.1,0.2 -41.2,23.6 -76.8,56 -104.2,94.7 0.4,-1.4 0.7,-2.7 1,-4.2 1.2,-6.1 1.6,-12.8 1.2,-19.5 -0.9,-13.4 -4.9,-26.2 -8.7,-35.5 -3.8,-9.3 -7.2,-15.3 -7.5,-15.9 -0.1,-0.1 -0.2,-0.3 -0.4,-0.7 l -16,-27.4 2.2,31.4 c 0.2,2.3 0.8,9.6 1,19.3 0.1,4.8 0.1,10.3 0,16 -0.1,5.7 -0.5,11.7 -0.8,17.8 -0.2,6.1 -0.1,12.4 0.9,18.3 0.9,5.9 2.8,11.1 5.1,15.2 2.3,4.1 4.9,6.9 7,8.6 -23.4,39.9 -38.4,85.2 -42.8,133.6 -0.3,-1.1 -0.6,-2.3 -1.1,-3.4 -2,-5.9 -5,-11.9 -8.7,-17.5 -7.4,-11.2 -17.4,-20.3 -25.3,-26.4 -8,-6.2 -13.9,-9.7 -14.4,-10 -0.1,0 -0.3,-0.2 -0.7,-0.4 l -27.9,-15.5 17.6,26.1 c 1.3,1.9 5.5,8 10.5,16.3 2.5,4.1 5.2,8.9 8,13.9 2.7,5 5.4,10.4 8.3,15.8 2.9,5.4 6.1,10.8 9.9,15.4 3.7,4.6 8,8.2 12,10.6 3.9,2.4 7.6,3.5 10.2,3.9 0,0.3 0,0.7 0,1 0,48.7 10.8,94.9 30.1,136.4 -0.9,-0.9 -1.9,-1.8 -2.9,-2.7 -4.7,-4.1 -10.3,-7.8 -16.3,-10.8 -12,-6 -25.2,-8.9 -35.1,-10.2 -10,-1.4 -16.9,-1.4 -17.5,-1.5 -0.1,0 -0.4,0 -0.8,0 l -31.7,0.2 28.3,13.8 c 2.1,1 8.7,4.2 17.2,8.8 4.3,2.3 9,5.1 13.8,8 4.9,3 9.8,6.3 15.1,9.6 5.2,3.3 10.7,6.3 16.2,8.4 5.5,2.1 11,3.1 15.7,3.2 4.7,0.1 8.5,-0.8 11,-1.8 23.9,41.4 56.7,77.1 95.8,104.3 -1.6,-0.5 -3.3,-0.9 -5.1,-1.2 -6.1,-1.2 -12.8,-1.6 -19.5,-1.2 -13.4,0.9 -26.2,4.9 -35.5,8.7 -9.3,3.8 -15.3,7.2 -15.9,7.5 -0.1,0.1 -0.3,0.2 -0.7,0.4 l -27.4,16 31.4,-2.2 c 2.3,-0.2 9.6,-0.8 19.3,-1 4.8,-0.1 10.3,-0.1 16,0 5.7,0.1 11.7,0.5 17.8,0.8 6.1,0.2 12.4,0.1 18.3,-0.9 5.9,-0.9 11.1,-2.8 15.2,-5.1 4.1,-2.3 7,-5 8.7,-7.1 0.1,-0.1 0.1,-0.2 0.2,-0.3 40.6,23.5 86.7,38.5 135.8,42.5 -1.9,0.5 -3.9,1 -5.9,1.7 -5.9,2 -11.9,5 -17.5,8.7 -11.2,7.4 -20.3,17.4 -26.4,25.3 -6.2,8 -9.7,13.9 -10,14.4 0,0.1 -0.2,0.3 -0.4,0.7 l -15.5,28.1 26.1,-17.6 c 1.9,-1.3 8,-5.5 16.3,-10.5 4.1,-2.5 8.9,-5.2 13.9,-8 5,-2.7 10.4,-5.4 15.8,-8.3 5.4,-2.9 10.8,-6.1 15.4,-9.9 4.6,-3.7 8.2,-8 10.6,-12 2.4,-4 3.6,-7.8 4,-10.4 0,-0.2 0.1,-0.5 0.1,-0.7 0,0 0.1,0 0.1,0 50.1,0 97.5,-11.4 139.9,-31.8 -1.8,1.7 -3.7,3.4 -5.4,5.5 -4.1,4.7 -7.8,10.3 -10.8,16.3 -6,12 -8.9,25.2 -10.2,35.1 -1.4,10 -1.4,16.9 -1.5,17.5 0,0.1 0,0.4 0,0.8 l 0.2,31.7 13.8,-28.3 c 1,-2.1 4.2,-8.7 8.8,-17.2 2.3,-4.3 5.1,-9 8,-13.8 3,-4.9 6.3,-9.8 9.6,-15.1 3.3,-5.2 6.3,-10.7 8.4,-16.2 2.1,-5.5 3.1,-11 3.2,-15.7 0.1,-4.7 -0.8,-8.5 -1.8,-11 -0.2,-0.4 -0.3,-0.7 -0.5,-1.1 42.3,-24.5 78.5,-58.2 106,-98.4 0,0.1 0,0.1 -0.1,0.2 -0.9,2.7 -1.8,5.6 -2.3,8.7 -1.2,6.1 -1.6,12.8 -1.2,19.5 0.9,13.4 4.9,26.2 8.7,35.5 3.8,9.3 7.2,15.3 7.5,15.9 0.1,0.1 0.2,0.3 0.4,0.7 l 16,27.4 -2.2,-31.4 c -0.2,-2.3 -0.8,-9.6 -1,-19.3 -0.1,-4.8 -0.1,-10.3 0,-16 0.1,-5.7 0.5,-11.7 0.8,-17.8 0.2,-6.1 0.1,-12.4 -0.9,-18.3 -0.9,-5.9 -2.8,-11.1 -5.1,-15.2 -2.3,-4.1 -5,-7 -7.1,-8.7 -0.4,-0.3 -0.8,-0.6 -1.2,-0.9 23.9,-41.2 39.1,-88.1 42.8,-138.1 0,0.1 0,0.1 0,0.2 0.6,2.8 1.3,5.7 2.3,8.7 2,5.9 5,11.9 8.7,17.5 7.4,11.2 17.4,20.3 25.3,26.4 8,6.2 13.9,9.7 14.4,10 0.1,0 0.3,0.2 0.7,0.4 L 916.4,597 899.1,570.7 Z M 807.5,335.9 c 4,0.9 8.5,2.5 13,5 4.5,2.5 9.1,5.8 13.7,9.4 4.6,3.6 9.4,7.6 14.2,11.2 2.3,1.7 4.5,3.3 6.7,4.8 -6.9,-0.9 -14.4,-2.5 -21.5,-5.2 -5.5,-2 -10.8,-4.7 -15.4,-7.7 -2.3,-1.5 -4.4,-3.2 -6.4,-4.8 -1.7,-1.5 -3.3,-3.3 -4.9,-5.1 -3,-3.6 -6,-6.7 -8.7,-8.1 -0.4,-0.2 -0.8,-0.4 -1.1,-0.5 2.5,0.1 6.1,0.1 10.4,1 z M 689.5,211 c 3.9,-1.2 8.6,-2.1 13.7,-2.2 5.2,-0.1 10.8,0.5 16.6,1.3 5.8,0.8 11.9,1.9 17.8,2.6 2.8,0.3 5.5,0.6 8.2,0.9 -6.4,2.6 -13.7,5 -21.2,6.3 -5.8,1 -11.7,1.4 -17.2,1 -2.8,-0.1 -5.4,-0.6 -7.9,-0.9 -2.3,-0.4 -4.6,-1.2 -6.8,-2 -4.4,-1.6 -8.6,-2.8 -11.6,-2.6 -0.3,0 -0.5,0 -0.7,0.1 -0.1,0 -0.1,-0.1 -0.2,-0.1 2.3,-1.4 5.3,-3.1 9.3,-4.4 z M 524.9,161.8 c 2.7,-3 6.4,-6.1 10.8,-8.8 4.4,-2.7 9.6,-5 15,-7.2 5.4,-2.2 11.3,-4.3 16.7,-6.7 2.6,-1.1 5.1,-2.2 7.5,-3.4 -4.3,5.5 -9.4,11.2 -15.2,16 -4.5,3.8 -9.4,7 -14.4,9.5 -2.5,1.3 -5,2.2 -7.3,3.1 -2.2,0.8 -4.5,1.2 -6.8,1.7 -4.5,0.8 -8.6,1.9 -11.2,3.4 -0.2,0 -0.5,0 -0.7,0 1.2,-1.9 2.9,-4.7 5.6,-7.6 z m -167.2,39.7 c 0.9,-4 2.5,-8.5 5,-13 2.5,-4.5 5.8,-9.1 9.4,-13.7 3.6,-4.6 7.6,-9.4 11.2,-14.2 1.7,-2.3 3.3,-4.5 4.8,-6.7 -0.9,6.9 -2.5,14.4 -5.2,21.5 -2,5.5 -4.7,10.8 -7.7,15.4 -1.5,2.3 -3.2,4.4 -4.8,6.4 -1.5,1.7 -3.3,3.3 -5.1,4.9 -3.2,2.7 -6.1,5.5 -7.6,7.9 -0.3,0.2 -0.7,0.4 -1,0.6 0.1,-2.4 0.2,-5.5 1,-9.1 z m -124.9,118 c -1.2,-3.9 -2.1,-8.6 -2.2,-13.7 -0.1,-5.2 0.4,-10.8 1.3,-16.6 0.8,-5.8 1.9,-11.9 2.6,-17.8 0.3,-2.8 0.6,-5.5 0.9,-8.2 2.6,6.4 5,13.7 6.3,21.2 1,5.8 1.4,11.7 1,17.2 -0.1,2.8 -0.6,5.4 -0.9,7.9 -0.4,2.3 -1.2,4.6 -2,6.8 -1.3,3.7 -2.3,7.2 -2.5,10 -0.3,0.5 -0.6,0.9 -0.8,1.4 -1.3,-2.2 -2.7,-4.8 -3.7,-8.2 z m -49.2,164.6 c -3,-2.7 -6.1,-6.4 -8.8,-10.8 -2.7,-4.4 -5,-9.6 -7.2,-15 -2.2,-5.4 -4.3,-11.3 -6.7,-16.7 -1.1,-2.6 -2.2,-5.1 -3.4,-7.5 5.5,4.3 11.2,9.4 16,15.2 3.8,4.5 7,9.4 9.5,14.4 1.3,2.5 2.2,5 3.1,7.3 0.8,2.2 1.2,4.5 1.7,6.8 0.7,3.7 1.5,7.1 2.6,9.7 0,0.6 0,1.2 0,1.8 -1.9,-1.2 -4.3,-2.8 -6.8,-5.2 z m 39.7,167.2 c -4,-0.9 -8.5,-2.5 -13,-5 -4.5,-2.5 -9.1,-5.8 -13.7,-9.4 -4.6,-3.6 -9.4,-7.6 -14.2,-11.2 -2.3,-1.7 -4.5,-3.3 -6.7,-4.8 6.9,0.9 14.4,2.5 21.5,5.2 5.5,2 10.8,4.7 15.4,7.7 2.3,1.5 4.4,3.2 6.4,4.8 1.7,1.5 3.3,3.3 4.9,5.1 2.6,3 5.1,5.7 7.5,7.3 0.2,0.4 0.5,0.9 0.7,1.3 -2.4,0 -5.4,-0.2 -8.8,-1 z m 118,125 c -3.9,1.2 -8.6,2.1 -13.7,2.2 -5.2,0.1 -10.8,-0.5 -16.6,-1.3 -5.8,-0.8 -11.9,-1.9 -17.8,-2.6 -2.8,-0.3 -5.5,-0.6 -8.2,-0.9 6.4,-2.6 13.7,-5 21.2,-6.3 5.8,-1 11.7,-1.4 17.2,-1 2.8,0.1 5.4,0.6 7.9,0.9 2.3,0.4 4.6,1.2 6.8,2 4,1.5 7.9,2.5 10.8,2.6 0.3,0.2 0.6,0.4 0.9,0.6 -2.2,1.2 -4.9,2.6 -8.5,3.8 z m 164.6,49.2 c -2.7,3 -6.4,6.1 -10.8,8.8 -4.4,2.7 -9.6,5 -15,7.2 -5.4,2.2 -11.3,4.3 -16.7,6.7 -2.6,1.1 -5.1,2.2 -7.5,3.4 4.3,-5.5 9.4,-11.2 15.2,-16 4.5,-3.8 9.4,-7 14.4,-9.5 2.5,-1.3 5,-2.2 7.3,-3.1 2.2,-0.8 4.5,-1.2 6.8,-1.7 4.6,-0.8 8.8,-1.9 11.4,-3.5 0,0 0,0 0,0 0.2,0 0.4,0 0.6,0 -1.3,1.9 -3,4.7 -5.7,7.7 z m 167.2,-39.7 c -0.9,4 -2.5,8.5 -5,13 -2.5,4.5 -5.8,9.1 -9.4,13.7 -3.6,4.6 -7.6,9.4 -11.2,14.2 -1.7,2.3 -3.3,4.5 -4.8,6.7 0.9,-6.9 2.5,-14.4 5.2,-21.5 2,-5.5 4.7,-10.8 7.7,-15.4 1.5,-2.3 3.2,-4.4 4.8,-6.4 1.5,-1.7 3.3,-3.3 5.1,-4.9 3.6,-3 6.7,-6 8.1,-8.7 0.1,-0.3 0.3,-0.5 0.4,-0.8 0.1,0 0.1,-0.1 0.2,-0.1 -0.1,2.5 -0.2,6 -1.1,10.2 z M 798,667.8 c 1.2,3.9 2.1,8.6 2.2,13.7 0.1,5.2 -0.4,10.8 -1.3,16.6 -0.8,5.8 -1.9,11.9 -2.6,17.8 -0.3,2.8 -0.6,5.5 -0.9,8.2 -2.6,-6.4 -5,-13.7 -6.3,-21.2 -1,-5.8 -1.4,-11.7 -1,-17.2 0.1,-2.8 0.6,-5.4 0.9,-7.9 0.4,-2.3 1.2,-4.6 2,-6.8 1.6,-4.4 2.8,-8.6 2.6,-11.6 0,-0.5 -0.1,-0.9 -0.1,-1.2 1.4,2.2 3.2,5.3 4.5,9.6 z M 514.5,813.3 c -118.5,0 -222.1,-64.8 -277.3,-160.8 0,-0.2 -0.1,-0.4 -0.4,-0.7 -26.7,-46.7 -42,-100.7 -42,-158.3 0,-0.4 0,-0.8 0,-1.2 0.1,-0.1 0.1,-0.1 0.1,-0.2 0.2,-0.2 0.1,-0.7 -0.1,-1.6 0.5,-57.7 16.4,-111.9 43.8,-158.5 0.2,-0.1 0.3,-0.4 0.5,-0.8 55.7,-94.2 158.3,-157.5 275.4,-157.5 176.3,0 319.7,143.4 319.7,319.7 0,176.3 -143.4,319.9 -319.7,319.9 z M 857.2,538 c -3.8,-4.5 -7,-9.4 -9.5,-14.4 -1.3,-2.5 -2.2,-5 -3.1,-7.3 -0.8,-2.2 -1.2,-4.5 -1.7,-6.8 -0.8,-4.6 -1.9,-8.8 -3.5,-11.4 -0.2,-0.4 -0.5,-0.7 -0.7,-1 2.2,1.2 5.3,3 8.6,6 3,2.7 6.1,6.4 8.8,10.8 2.7,4.4 5,9.6 7.2,15 2.2,5.4 4.3,11.3 6.7,16.7 1.1,2.6 2.2,5.1 3.4,7.5 -5.7,-4.1 -11.3,-9.3 -16.2,-15.1 z"
           id="path41"
           inkscape:connector-curvature="0" /><path
           d="m 463,157 c 16.7,0 16.7,-26 0,-26 -16.7,0 -16.8,26 0,26 z"
           id="path43"
           inkscape:connector-curvature="0" /><path
           d="m 572,830.4 c -16.7,0 -16.7,26 0,26 16.7,0 16.8,-26 0,-26 z"
           id="path45"
           inkscape:connector-curvature="0" /><path
           d="m 301.9,229.4 c 14.5,-8.4 1.5,-30.9 -13,-22.5 -14.4,8.3 -1.5,30.8 13,22.5 z"
           id="path47"
           inkscape:connector-curvature="0" /><path
           d="m 733.1,758 c -14.5,8.4 -1.5,30.9 13,22.5 14.4,-8.3 1.5,-30.8 -13,-22.5 z"
           id="path49"
           inkscape:connector-curvature="0" /><path
           d="m 198.6,372.6 c 8.4,-14.5 -14.1,-27.5 -22.5,-13 -8.3,14.5 14.2,27.5 22.5,13 z"
           id="path51"
           inkscape:connector-curvature="0" /><path
           d="m 836.3,614.8 c -8.4,14.5 14.1,27.5 22.5,13 8.4,-14.5 -14.1,-27.5 -22.5,-13 z"
           id="path53"
           inkscape:connector-curvature="0" /><path
           d="m 180.8,548.2 c 0,-16.7 -26,-16.7 -26,0 0,16.7 26,16.8 26,0 z"
           id="path55"
           inkscape:connector-curvature="0" /><path
           d="m 854.2,439.2 c 0,16.7 26,16.7 26,0 0,-16.7 -26,-16.8 -26,0 z"
           id="path57"
           inkscape:connector-curvature="0" /><path
           d="m 253.2,709.3 c -8.4,-14.5 -30.9,-1.5 -22.5,13 8.3,14.4 30.8,1.5 22.5,-13 z"
           id="path59"
           inkscape:connector-curvature="0" /><path
           d="m 781.8,278.1 c 8.4,14.5 30.9,1.5 22.5,-13 -8.3,-14.4 -30.8,-1.5 -22.5,13 z"
           id="path61"
           inkscape:connector-curvature="0" /><path
           d="m 396.4,812.6 c -14.5,-8.4 -27.5,14.1 -13,22.5 14.4,8.3 27.5,-14.2 13,-22.5 z"
           id="path63"
           inkscape:connector-curvature="0" /><path
           d="m 638.6,174.8 c 14.5,8.4 27.5,-14.1 13,-22.5 -14.5,-8.3 -27.5,14.2 -13,22.5 z"
           id="path65"
           inkscape:connector-curvature="0" /></g></g></switch></svg>