<?xml version="1.0" encoding="UTF-8" standalone="no"?>
<svg
   xmlns:dc="http://purl.org/dc/elements/1.1/"
   xmlns:cc="http://creativecommons.org/ns#"
   xmlns:rdf="http://www.w3.org/1999/02/22-rdf-syntax-ns#"
   xmlns:svg="http://www.w3.org/2000/svg"
   xmlns="http://www.w3.org/2000/svg"
   xmlns:sodipodi="http://sodipodi.sourceforge.net/DTD/sodipodi-0.dtd"
   xmlns:inkscape="http://www.inkscape.org/namespaces/inkscape"
   version="1.1"
   id="Layer_1"
   x="0px"
   y="0px"
   viewBox="0 0 1000 1000"
   width="100%"
   height="100%"
   style="enable-background:new 0 0 1000 1000;"
   xml:space="preserve"
    class="withFill"
   ><style
     type="text/css"
     id="style3">
	.noFillSVG{fill:none;}

</style><switch
     id="switch5"
     transform="translate(-46.15,0)"><g
       id="g7"><g
         id="g9"><g
           id="g11"><g
             id="g13"><path
               class="noFillSVG"
               d="m 259.1,271.4 c -5.2,-4.4 -9.5,-8.4 -16.7,-7.6 -9.3,1 -8.2,4.2 -1.1,7.9 7.6,4 17.1,8.4 25.2,6.5 -0.3,-0.3 -0.6,-0.6 -0.9,-0.8 -2,-2 -4.3,-4.1 -6.5,-6 z"
               id="path15"
               inkscape:connector-curvature="0"
               style="fill:none" /></g><g
             id="g17"><path
               class="noFillSVG"
               d="m 222.2,158.1 c -5.8,-5.1 -16.7,-11.7 -24.8,-8.5 -18.6,7.3 1.8,27.8 10.3,33.9 19.4,13.7 39.4,26.1 59.7,38.3 1,0.6 2.1,1.3 3.1,1.9 -4.5,-7.9 -9.6,-15.3 -13.3,-21.1 -9.9,-15.7 -21,-32.1 -35,-44.5 z"
               id="path19"
               inkscape:connector-curvature="0"
               style="fill:none" /></g><g
             id="g21"><path
               class="noFillSVG"
               d="m 299.7,190.4 c -7,3.7 6.8,28.3 8.1,29.7 0.5,0.5 1,1 1.4,1.5 1.6,-12.1 -0.1,-36.2 -9.5,-31.2 z"
               id="path23"
               inkscape:connector-curvature="0"
               style="fill:none" /></g><g
             id="g25"><path
               d="m 348.6,215.5 c -1.4,1.8 -2.5,3.4 -2.6,3.6 -5,7.1 -11.4,11.9 -20.7,11.5 -2.7,-0.1 -5.5,-0.7 -7.4,-2.7 -3.4,-3.5 0.2,-17.5 -0.6,-22.6 -1.1,-7.4 -3.3,-15.3 -8.2,-21.1 -5,-5.9 -10.5,-7.2 -14.9,0.1 -6.1,10.2 -1,26.7 4.5,35.7 2.1,3.4 4.7,6.3 7.7,8.7 -8.9,7.7 -17.5,5.5 -25.9,1 -1.5,-3.5 -3.1,-6.9 -4.6,-9.7 -14.1,-26.3 -39.2,-73.4 -71.8,-80.3 -7.9,-1.7 -18.1,-0.6 -22.3,7.5 -5.9,11.5 5.1,24 12.3,31.8 13.8,15 31.8,25.7 49,36.3 9.8,6.1 19.7,12.1 29.7,18 1.2,0.7 2.5,1.5 3.7,2.2 4.4,10.2 6.6,20.5 3.3,29.2 -1.8,4.7 -4.1,7.9 -6.6,10.1 -0.8,-0.8 -1.6,-1.7 -2.5,-2.5 -6.7,-6.5 -11.9,-13.6 -21.3,-15.3 -5.6,-1 -19.3,-2.1 -23.3,3.8 -10.1,14.8 30.5,26.3 40.1,24.4 2,-0.4 3.8,-0.9 5.5,-1.5 0.3,0.4 0.6,0.7 0.9,1.1 7.2,7 2.9,16.1 -3.9,21.4 -2,1.5 -16.5,7.5 -7.6,10.7 9,3.2 18.1,0.1 22.5,-8.6 5.1,-10 0.8,-19.9 -5.5,-28 11.7,-8.7 10.8,-25.5 6.1,-40.6 4.1,2 8.4,3.5 12.7,3.3 7.7,-0.3 13,-4.2 16.4,-9.8 16.6,8.5 38.3,4.3 41.2,-18.8 0.9,-6.9 -3.1,-2.6 -5.9,1.1 z m -81.1,6.2 c -20.4,-12.2 -40.3,-24.6 -59.7,-38.3 -8.5,-6 -28.9,-26.6 -10.3,-33.9 8.1,-3.2 18.9,3.4 24.8,8.5 14,12.4 25.2,28.8 35.2,44.4 3.7,5.8 8.8,13.2 13.3,21.1 -1.2,-0.5 -2.3,-1.1 -3.3,-1.8 z m -26.2,50 c -7.1,-3.8 -8.2,-6.9 1.1,-7.9 7.2,-0.8 11.5,3.3 16.7,7.6 2.2,1.9 4.5,4 6.6,6 0.3,0.2 0.6,0.5 0.9,0.8 -8.2,1.9 -17.7,-2.5 -25.3,-6.5 z m 67.9,-50.1 c -0.5,-0.5 -1,-1 -1.4,-1.5 -1.3,-1.4 -15.1,-26 -8.1,-29.7 9.4,-5 11.1,19.1 9.5,31.2 z"
               id="path27"
               inkscape:connector-curvature="0" /></g><g
             id="g29"><path
               d="m 250.1,239.7 c 0.7,-3.3 -13.1,-8.9 -13.5,-8.9 -0.4,0 -15.2,-0.3 -15.9,3 -0.7,3.3 13.2,8.9 13.5,8.9 0.4,0.1 15.3,0.3 15.9,-3 z"
               id="path31"
               inkscape:connector-curvature="0" /></g><g
             id="g33"><path
               d="m 279.8,205.7 c 3.3,-0.8 1.7,-17.6 1.6,-18 -0.1,-0.4 -6.9,-15.8 -10.2,-14.9 -3.3,0.8 -1.7,17.6 -1.6,18 0.1,0.3 7,15.7 10.2,14.9 z"
               id="path35"
               inkscape:connector-curvature="0" /></g></g><g
           id="g37"><g
             id="g39"><path
               class="noFillSVG"
               d="m 833.9,271.4 c 5.2,-4.4 9.5,-8.4 16.7,-7.6 9.3,1 8.2,4.2 1.1,7.9 -7.6,4 -17.1,8.4 -25.2,6.5 0.3,-0.3 0.6,-0.6 0.9,-0.8 2,-2 4.4,-4.1 6.5,-6 z"
               id="path41"
               inkscape:connector-curvature="0"
               style="fill:none" /></g><g
             id="g43"><path
               class="noFillSVG"
               d="m 870.9,158.1 c 5.8,-5.1 16.7,-11.7 24.8,-8.5 18.6,7.3 -1.8,27.8 -10.3,33.9 -19.4,13.7 -39.4,26.1 -59.7,38.3 -1,0.6 -2.1,1.3 -3.1,1.9 4.5,-7.9 9.6,-15.3 13.3,-21.1 9.8,-15.7 20.9,-32.1 35,-44.5 z"
               id="path45"
               inkscape:connector-curvature="0"
               style="fill:none" /></g><g
             id="g47"><path
               class="noFillSVG"
               d="m 793.3,190.4 c 7,3.7 -6.8,28.3 -8.1,29.7 -0.5,0.5 -1,1 -1.4,1.5 -1.6,-12.1 0.1,-36.2 9.5,-31.2 z"
               id="path49"
               inkscape:connector-curvature="0"
               style="fill:none" /></g><g
             id="g51"><path
               d="m 738.5,214.6 c 3,23.1 24.6,27.3 41.2,18.8 3.4,5.6 8.7,9.5 16.4,9.8 4.3,0.2 8.6,-1.3 12.7,-3.3 -4.6,15.2 -5.6,32 6.1,40.6 -6.3,8.1 -10.6,17.9 -5.5,28 4.4,8.7 13.5,11.8 22.5,8.6 8.9,-3.2 -5.6,-9.2 -7.6,-10.7 -6.8,-5.2 -11.1,-14.4 -3.9,-21.4 0.3,-0.4 0.6,-0.7 0.9,-1.1 1.7,0.6 3.5,1.1 5.5,1.5 9.5,1.9 50.2,-9.6 40.1,-24.4 -4,-5.9 -17.7,-4.8 -23.3,-3.8 -9.4,1.7 -14.5,8.8 -21.3,15.3 -0.8,0.8 -1.6,1.6 -2.5,2.5 -2.6,-2.2 -4.8,-5.4 -6.6,-10.1 -3.4,-8.7 -1.1,-19.1 3.3,-29.2 1.3,-0.8 2.5,-1.5 3.7,-2.2 10,-5.8 19.9,-11.9 29.7,-18 17.2,-10.6 35.1,-21.4 49,-36.3 7.2,-7.8 18.2,-20.3 12.3,-31.8 -4.1,-8.1 -14.3,-9.1 -22.3,-7.5 -32.6,6.9 -57.7,54 -71.8,80.3 -1.5,2.9 -3.1,6.2 -4.6,9.7 -8.4,4.6 -17,6.7 -25.9,-1 3,-2.5 5.6,-5.3 7.7,-8.7 5.5,-9 10.6,-25.5 4.5,-35.7 -4.4,-7.3 -9.9,-6 -14.9,-0.1 -4.9,5.8 -7.2,13.7 -8.2,21.1 -0.7,5.1 2.8,19 -0.6,22.6 -1.9,1.9 -4.7,2.6 -7.4,2.7 -9.2,0.4 -15.6,-4.5 -20.7,-11.5 -0.1,-0.1 -1.2,-1.8 -2.6,-3.6 -2.8,-3.9 -6.8,-8.2 -5.9,-1.1 z m 83.9,9.1 c 4.5,-7.9 9.6,-15.3 13.3,-21.1 10,-15.7 21.1,-32.1 35.2,-44.4 5.8,-5.1 16.7,-11.7 24.8,-8.5 18.6,7.3 -1.8,27.8 -10.3,33.9 -19.4,13.7 -39.4,26.1 -59.7,38.3 -1.2,0.5 -2.2,1.1 -3.3,1.8 z m 4.1,54.5 c 0.3,-0.3 0.6,-0.6 0.9,-0.8 2,-2 4.4,-4.1 6.6,-6 5.2,-4.4 9.5,-8.4 16.7,-7.6 9.3,1 8.2,4.2 1.1,7.9 -7.7,4 -17.2,8.4 -25.3,6.5 z m -33.2,-87.8 c 7,3.7 -6.8,28.3 -8.1,29.7 -0.5,0.5 -1,1 -1.4,1.5 -1.6,-12.1 0.1,-36.2 9.5,-31.2 z"
               id="path53"
               inkscape:connector-curvature="0" /></g><g
             id="g55"><path
               d="m 842.9,239.7 c -0.7,-3.3 13.1,-8.9 13.5,-8.9 0.3,-0.1 15.2,-0.3 15.9,3 0.7,3.3 -13.2,8.9 -13.5,8.9 -0.4,0.1 -15.3,0.3 -15.9,-3 z"
               id="path57"
               inkscape:connector-curvature="0" /></g><g
             id="g59"><path
               d="m 813.2,205.7 c -3.3,-0.8 -1.7,-17.6 -1.6,-18 0.1,-0.4 6.9,-15.8 10.2,-14.9 3.3,0.8 1.7,17.6 1.6,18 -0.1,0.3 -6.9,15.7 -10.2,14.9 z"
               id="path61"
               inkscape:connector-curvature="0" /></g></g><g
           id="g63"><g
             id="g65"><path
               class="noFillSVG"
               d="m 833.3,728.6 c 5.2,4.4 9.5,8.4 16.7,7.6 9.3,-1 8.2,-4.2 1.1,-7.9 -7.6,-4 -17.1,-8.4 -25.2,-6.5 0.3,0.3 0.6,0.6 0.9,0.8 1.9,2 4.3,4.1 6.5,6 z"
               id="path67"
               inkscape:connector-curvature="0"
               style="fill:none" /></g><g
             id="g69"><path
               class="noFillSVG"
               d="m 870.2,841.9 c 5.8,5.1 16.7,11.7 24.8,8.5 18.6,-7.3 -1.8,-27.8 -10.3,-33.9 -19.4,-13.7 -39.4,-26.1 -59.7,-38.3 -1,-0.6 -2.1,-1.3 -3.1,-1.9 4.5,7.9 9.6,15.3 13.3,21.1 9.8,15.7 20.9,32.1 35,44.5 z"
               id="path71"
               inkscape:connector-curvature="0"
               style="fill:none" /></g><g
             id="g73"><path
               class="noFillSVG"
               d="m 792.6,809.6 c 7,-3.7 -6.8,-28.3 -8.1,-29.7 -0.5,-0.5 -1,-1 -1.4,-1.5 -1.5,12.1 0.2,36.2 9.5,31.2 z"
               id="path75"
               inkscape:connector-curvature="0"
               style="fill:none" /></g><g
             id="g77"><path
               d="m 743.8,784.5 c 1.4,-1.8 2.5,-3.4 2.6,-3.6 5,-7.1 11.4,-11.9 20.7,-11.5 2.7,0.1 5.5,0.7 7.4,2.7 3.4,3.5 -0.2,17.5 0.6,22.6 1.1,7.4 3.3,15.3 8.2,21.1 5,5.9 10.5,7.2 14.9,-0.1 6.1,-10.2 1,-26.7 -4.5,-35.7 -2.1,-3.4 -4.7,-6.3 -7.7,-8.7 8.9,-7.7 17.5,-5.5 25.9,-1 1.5,3.5 3.1,6.9 4.6,9.7 14.1,26.3 39.2,73.4 71.8,80.3 7.9,1.7 18.1,0.6 22.3,-7.5 5.9,-11.5 -5.1,-24 -12.3,-31.8 -13.8,-15 -31.8,-25.7 -49,-36.3 -9.8,-6.1 -19.7,-12.1 -29.7,-18 -1.2,-0.7 -2.5,-1.5 -3.7,-2.2 -4.4,-10.2 -6.6,-20.5 -3.3,-29.2 1.8,-4.7 4.1,-7.9 6.6,-10.1 0.8,0.8 1.6,1.7 2.5,2.5 6.7,6.5 11.9,13.6 21.3,15.3 5.6,1 19.3,2.1 23.3,-3.8 10.1,-14.8 -30.5,-26.3 -40.1,-24.4 -2,0.4 -3.8,0.9 -5.5,1.5 -0.3,-0.4 -0.6,-0.7 -0.9,-1.1 -7.2,-7 -2.9,-16.1 3.9,-21.4 2,-1.5 16.5,-7.5 7.6,-10.7 -9,-3.2 -18.1,-0.1 -22.5,8.6 -5.1,10 -0.8,19.9 5.5,28 -11.7,8.7 -10.8,25.5 -6.1,40.6 -4.1,-2 -8.4,-3.5 -12.7,-3.3 -7.7,0.3 -13,4.2 -16.4,9.8 -16.6,-8.5 -38.3,-4.3 -41.2,18.8 -1,6.9 3,2.6 5.9,-1.1 z m 81.1,-6.2 c 20.4,12.2 40.3,24.6 59.7,38.3 8.5,6 28.9,26.6 10.3,33.9 -8.1,3.2 -18.9,-3.4 -24.8,-8.5 -14,-12.4 -25.2,-28.8 -35.2,-44.4 -3.7,-5.8 -8.8,-13.2 -13.3,-21.1 1.2,0.5 2.2,1.1 3.3,1.8 z m 26.1,-50 c 7.1,3.8 8.2,6.9 -1.1,7.9 -7.2,0.8 -11.5,-3.3 -16.7,-7.6 -2.2,-1.9 -4.5,-4 -6.6,-6 -0.3,-0.2 -0.6,-0.5 -0.9,-0.8 8.3,-1.9 17.7,2.5 25.3,6.5 z m -67.9,50.1 c 0.5,0.5 1,1 1.4,1.5 1.3,1.4 15.1,26 8.1,29.7 -9.3,5 -11,-19.1 -9.5,-31.2 z"
               id="path79"
               inkscape:connector-curvature="0" /></g><g
             id="g81"><path
               d="m 842.2,760.3 c -0.7,3.3 13.1,8.9 13.5,8.9 0.3,0.1 15.2,0.3 15.9,-3 0.7,-3.3 -13.2,-8.9 -13.5,-8.9 -0.4,-0.1 -15.2,-0.3 -15.9,3 z"
               id="path83"
               inkscape:connector-curvature="0" /></g><g
             id="g85"><path
               d="m 812.5,794.3 c -3.3,0.8 -1.7,17.6 -1.6,18 0.1,0.4 6.9,15.8 10.2,14.9 3.3,-0.8 1.7,-17.6 1.6,-18 -0.1,-0.3 -6.9,-15.7 -10.2,-14.9 z"
               id="path87"
               inkscape:connector-curvature="0" /></g></g><g
           id="g89"><g
             id="g91"><path
               class="noFillSVG"
               d="m 258.4,728.6 c -5.2,4.4 -9.5,8.4 -16.7,7.6 -9.3,-1 -8.2,-4.2 -1.1,-7.9 7.6,-4 17.1,-8.4 25.2,-6.5 -0.3,0.3 -0.6,0.6 -0.9,0.8 -2,2 -4.3,4.1 -6.5,6 z"
               id="path93"
               inkscape:connector-curvature="0"
               style="fill:none" /></g><g
             id="g95"><path
               class="noFillSVG"
               d="m 221.5,841.9 c -5.8,5.1 -16.7,11.7 -24.8,8.5 -18.6,-7.3 1.8,-27.8 10.3,-33.9 19.4,-13.7 39.4,-26.1 59.7,-38.3 1,-0.6 2.1,-1.3 3.1,-1.9 -4.5,7.9 -9.6,15.3 -13.3,21.1 -9.9,15.7 -21,32.1 -35,44.5 z"
               id="path97"
               inkscape:connector-curvature="0"
               style="fill:none" /></g><g
             id="g99"><path
               class="noFillSVG"
               d="m 299,809.6 c -7,-3.7 6.8,-28.3 8.1,-29.7 0.5,-0.5 1,-1 1.4,-1.5 1.6,12.1 -0.1,36.2 -9.5,31.2 z"
               id="path101"
               inkscape:connector-curvature="0"
               style="fill:none" /></g><g
             id="g103"><path
               d="m 353.8,785.4 c -3,-23.1 -24.6,-27.3 -41.2,-18.8 -3.4,-5.6 -8.7,-9.5 -16.4,-9.8 -4.3,-0.2 -8.6,1.3 -12.7,3.3 4.6,-15.2 5.6,-32 -6.1,-40.6 6.3,-8.1 10.6,-17.9 5.5,-28 -4.4,-8.7 -13.5,-11.8 -22.5,-8.6 -8.9,3.2 5.6,9.2 7.6,10.7 6.8,5.2 11.1,14.4 3.9,21.4 -0.3,0.4 -0.6,0.7 -0.9,1.1 -1.7,-0.6 -3.5,-1.1 -5.5,-1.5 -9.5,-1.9 -50.2,9.6 -40.1,24.4 4,5.9 17.7,4.8 23.3,3.8 9.4,-1.7 14.5,-8.8 21.3,-15.3 0.8,-0.8 1.6,-1.6 2.5,-2.5 2.6,2.2 4.8,5.4 6.6,10.1 3.4,8.7 1.1,19.1 -3.3,29.2 -1.3,0.8 -2.5,1.5 -3.7,2.2 -10,5.8 -19.9,11.9 -29.7,18 -17.2,10.6 -35.1,21.4 -49,36.3 -7.2,7.8 -18.2,20.3 -12.3,31.8 4.1,8.1 14.3,9.1 22.3,7.5 32.6,-6.9 57.7,-54 71.8,-80.3 1.5,-2.9 3.1,-6.2 4.6,-9.7 8.4,-4.6 17,-6.7 25.9,1 -3,2.5 -5.6,5.3 -7.7,8.7 -5.5,9 -10.6,25.5 -4.5,35.7 4.4,7.3 9.9,6 14.9,0.1 4.9,-5.8 7.2,-13.7 8.2,-21.1 0.7,-5.1 -2.8,-19 0.6,-22.6 1.9,-1.9 4.7,-2.6 7.4,-2.7 9.2,-0.4 15.6,4.5 20.7,11.5 0.1,0.1 1.2,1.8 2.6,3.6 2.8,3.9 6.9,8.2 5.9,1.1 z m -83.9,-9.1 c -4.5,7.9 -9.6,15.3 -13.3,21.1 -10,15.7 -21.1,32.1 -35.2,44.4 -5.8,5.1 -16.7,11.7 -24.8,8.5 -18.6,-7.3 1.8,-27.8 10.3,-33.9 19.4,-13.7 39.4,-26.1 59.7,-38.3 1.2,-0.5 2.3,-1.1 3.3,-1.8 z m -4.1,-54.5 c -0.3,0.3 -0.6,0.6 -0.9,0.8 -2,2 -4.4,4.1 -6.6,6 -5.2,4.4 -9.5,8.4 -16.7,7.6 -9.3,-1 -8.2,-4.2 -1.1,-7.9 7.7,-4 17.2,-8.4 25.3,-6.5 z m 33.2,87.8 c -7,-3.7 6.8,-28.3 8.1,-29.7 0.5,-0.5 1,-1 1.4,-1.5 1.6,12.1 -0.1,36.2 -9.5,31.2 z"
               id="path105"
               inkscape:connector-curvature="0" /></g><g
             id="g107"><path
               d="m 249.5,760.3 c 0.7,3.3 -13.1,8.9 -13.5,8.9 -0.3,0.1 -15.2,0.3 -15.9,-3 -0.7,-3.3 13.2,-8.9 13.5,-8.9 0.3,0 15.2,-0.3 15.9,3 z"
               id="path109"
               inkscape:connector-curvature="0" /></g><g
             id="g111"><path
               d="m 279.1,794.3 c 3.3,0.8 1.7,17.6 1.6,18 -0.1,0.4 -6.9,15.8 -10.2,14.9 -3.3,-0.8 -1.7,-17.6 -1.6,-18 0.1,-0.3 7,-15.7 10.2,-14.9 z"
               id="path113"
               inkscape:connector-curvature="0" /></g></g><g
           id="g115"><path
             class="st0"
             d="m 808.4,763.1 -525.2,0 0,-525.2 525.2,0 0,525.2 z m -518,-7.1 510.9,0 0,-511 -510.9,0 0,511 z"
             id="path117"
             inkscape:connector-curvature="0"
             style="fill:#9e9e9e" /></g></g></g></switch></svg>