<?xml version="1.0" encoding="UTF-8" standalone="no"?>
<svg
   xmlns:dc="http://purl.org/dc/elements/1.1/"
   xmlns:cc="http://creativecommons.org/ns#"
   xmlns:rdf="http://www.w3.org/1999/02/22-rdf-syntax-ns#"
   xmlns:svg="http://www.w3.org/2000/svg"
   xmlns="http://www.w3.org/2000/svg"
   xmlns:sodipodi="http://sodipodi.sourceforge.net/DTD/sodipodi-0.dtd"
   xmlns:inkscape="http://www.inkscape.org/namespaces/inkscape"
   version="1.1"
   id="Layer_1"
   x="0px"
   y="0px"
   viewBox="0 0 1000 1000"
   width="100%"
   height="100%"
   style="enable-background:new 0 0 1000 1000;"
   xml:space="preserve"
   ><style
     type="text/css"
     id="style3">
	.noFillSVG{fill:none;}
</style><switch
     id="switch5"
     transform="translate(27.888935,-10.895714)"><g
       id="g7"><g
         id="g9"><path
           class="noFillSVG"
           d="m 383.5,260.5 c 14.3,-2 13.9,-23.3 -0.8,-24.5 -17.4,-1.5 -16.3,26.9 0.8,24.5 z"
           id="path11"
           inkscape:connector-curvature="0"
           style="fill:none" /><path
           class="noFillSVG"
           d="m 226.3,786 c 2.9,-1.7 4.8,-3.8 5.5,-6.1 0.9,-2.7 0.7,-5.7 -0.3,-8.4 -2,-5.4 -7.4,-9.4 -14.5,-7.6 -4.2,1.1 -6.8,3.6 -7.9,6.6 -0.6,1.5 -0.8,3.1 -0.8,4.7 0,1.6 0.4,3.6 1.1,5.2 1.2,3.3 3.9,6 6.8,7 3,1.1 6.5,0.7 10.1,-1.4 z"
           id="path13"
           inkscape:connector-curvature="0"
           style="fill:none" /><path
           class="noFillSVG"
           d="m 239.6,823.1 c -2.4,-0.9 -5,-1.5 -7.9,-1 -2.8,0.4 -5.7,1.7 -8,4.7 -5.5,7 -0.5,15.4 6.2,17.9 3.3,1.4 7,1.2 9.8,-0.3 2.8,-1.5 4.9,-4.4 5.8,-8.5 1.5,-6.7 -1.3,-10.7 -5.9,-12.8 z"
           id="path15"
           inkscape:connector-curvature="0"
           style="fill:none" /><path
           class="noFillSVG"
           d="m 165.9,541.8 c -6.7,16.1 20.6,23.9 23.6,6.9 2.5,-14.3 -17.9,-20.5 -23.6,-6.9 z"
           id="path17"
           inkscape:connector-curvature="0"
           style="fill:none" /><path
           class="noFillSVG"
           d="m 515.3,183 c 2.5,0.2 5.2,0 7.8,-1.3 2.6,-1.2 5,-3.3 6.3,-6.8 3.3,-8.3 -4,-15 -11.2,-15.4 -3.6,-0.3 -7.1,0.9 -9.3,3.1 -2.3,2.2 -3.4,5.6 -3,9.8 0.7,6.9 4.5,9.9 9.4,10.6 z"
           id="path19"
           inkscape:connector-curvature="0"
           style="fill:none" /><path
           class="noFillSVG"
           d="m 229.5,643.3 c -1.2,1.1 -2,2.4 -2.4,3.7 -0.5,1.3 -0.7,2.7 -0.5,4.1 0.1,1.6 0.4,3.3 1,4.8 2.4,6.2 8.8,10.8 16.5,6.8 3.2,-1.7 5.1,-4.2 6,-6.9 0.4,-1.2 0.6,-3.2 0.5,-4.8 0,-1.7 -0.5,-3.3 -1.1,-4.8 -1.2,-3 -3.5,-5.3 -6.1,-6.4 -2.7,-1.1 -5.9,-1 -9.2,0.4 -2,0.9 -3.6,1.9 -4.7,3.1 z"
           id="path21"
           inkscape:connector-curvature="0"
           style="fill:none" /><path
           class="noFillSVG"
           d="m 282,851.5 c -2.3,0.9 -4.5,2.7 -6.2,5 -1.6,2.3 -2.7,5.3 -2.1,9 0.3,2.2 1.2,4 2.3,5.4 1.2,1.4 2.7,2.5 4.4,3 3.4,1.3 7.4,0.9 10.6,-0.6 3.3,-1.6 5.7,-4.2 6.5,-7.4 0.8,-3.1 0.1,-6.6 -2.2,-9.9 -3.9,-5.8 -8.7,-6.5 -13.3,-4.5 z"
           id="path23"
           inkscape:connector-curvature="0"
           style="fill:none" /><path
           class="noFillSVG"
           d="m 412.6,204.9 c 3.5,-0.5 6.3,-2.4 7.8,-4.1 1.5,-1.9 2.4,-4.1 2.4,-6.6 0.1,-2.5 -0.5,-5.2 -1.9,-7.7 -1.4,-2.4 -3.7,-4.7 -7.3,-5.7 -4.1,-1.2 -8,-0.1 -10.4,2.5 -2.6,2.4 -3.9,6.3 -4,9.7 0.3,6.6 4.8,13.1 13.4,11.9 z"
           id="path25"
           inkscape:connector-curvature="0"
           style="fill:none" /><path
           class="noFillSVG"
           d="m 234.9,724.8 c 12.8,-6.6 5.4,-26.6 -8.8,-22.9 -16.9,4.4 -6.6,30.9 8.8,22.9 z"
           id="path27"
           inkscape:connector-curvature="0"
           style="fill:none" /><path
           class="noFillSVG"
           d="m 448.8,784.1 c -2.4,2.2 -3.9,5 -4,8 -0.1,2.9 1,5.9 3.5,8.5 6,6.3 11.9,5.1 16.6,1.2 2.3,-2 4.3,-4.6 5.1,-7.8 0.8,-3 0.4,-6.6 -2.7,-9.9 -5.1,-5.6 -13.7,-4.4 -18.5,0 z"
           id="path29"
           inkscape:connector-curvature="0"
           style="fill:none" /><path
           class="noFillSVG"
           d="m 466.5,148.3 c -1.5,-1 -3.3,-1.6 -5.1,-1.6 -3.6,-0.2 -7.3,1.3 -9.9,3.7 -1.3,1.2 -2.4,2.7 -3.1,4.2 -0.7,1.5 -1,3.2 -1,4.8 0.1,3.2 1.8,6.3 5,8.9 5.4,4.4 10.3,3.6 14.1,0.3 1.9,-1.6 3.5,-4 4.4,-6.6 0.9,-2.7 1,-5.9 -0.7,-9.2 -0.9,-2.1 -2.2,-3.5 -3.7,-4.5 z"
           id="path31"
           inkscape:connector-curvature="0"
           style="fill:none" /><path
           class="noFillSVG"
           d="m 315.4,337.5 c -6.7,-5.4 -12.5,-3.4 -16.6,1 -2,2.3 -3.6,5.2 -4,8.4 -0.4,3.2 0.5,6.6 4,9.5 5.9,4.8 14.3,2.5 18.4,-2.5 2.1,-2.4 3.1,-5.5 2.9,-8.4 -0.3,-2.9 -1.8,-5.6 -4.7,-8 z"
           id="path33"
           inkscape:connector-curvature="0"
           style="fill:none" /><path
           class="noFillSVG"
           d="m 406.1,807.7 c -12.7,-6.7 -24.9,10.7 -13.8,20.3 13.2,11.4 29.1,-12.2 13.8,-20.3 z"
           id="path35"
           inkscape:connector-curvature="0"
           style="fill:none" /><path
           class="noFillSVG"
           d="m 349.9,835.5 c -12.7,-6.7 -24.9,10.7 -13.8,20.3 13.2,11.4 29.1,-12.2 13.8,-20.3 z"
           id="path37"
           inkscape:connector-curvature="0"
           style="fill:none" /><path
           class="noFillSVG"
           d="m 255.6,351.7 c -9.4,-14.7 -31.4,3.3 -19.1,15.4 10.3,10.1 27,-3.1 19.1,-15.4 z"
           id="path39"
           inkscape:connector-curvature="0"
           style="fill:none" /><path
           class="noFillSVG"
           d="m 709,608.4 c -7.3,2 -10.3,10.2 -8.6,16.5 0.8,3.1 2.7,5.7 5.2,7.2 2.5,1.5 5.7,1.8 9.2,0.8 8.3,-2.4 10,-8.2 8.7,-14.2 -0.7,-3 -2.1,-6 -4.6,-8.1 -2.3,-2.2 -5.6,-3.5 -9.9,-2.2 z"
           id="path41"
           inkscape:connector-curvature="0"
           style="fill:none" /><path
           class="noFillSVG"
           d="m 685.4,350.4 c -4,-17 -30.7,-7.2 -23.1,8.3 6.3,12.9 26.4,6 23.1,-8.3 z"
           id="path43"
           inkscape:connector-curvature="0"
           style="fill:none" /><path
           class="noFillSVG"
           d="m 613,342.8 c 3.1,0.7 6.3,0.3 8.8,-1.3 2.5,-1.6 4.2,-4.2 5,-7.8 1.7,-8.5 -2.7,-12.6 -8.6,-14.2 -3,-0.7 -6.3,-0.8 -9.3,0.3 -3,1.1 -5.6,3.4 -6.6,7.9 -1.5,7.3 4.4,13.8 10.7,15.1 z"
           id="path45"
           inkscape:connector-curvature="0"
           style="fill:none" /><path
           class="noFillSVG"
           d="m 562.2,229.1 c 11.1,-13.5 -12.8,-28.8 -20.6,-13.4 -6.4,13 11.3,24.8 20.6,13.4 z"
           id="path47"
           inkscape:connector-curvature="0"
           style="fill:none" /><path
           class="noFillSVG"
           d="m 209.8,586.6 c -0.8,2 -1.2,3.9 -1,5.6 0.2,1.8 0.5,3.2 1.2,4.5 1.3,2.5 3.6,4.3 6.5,5.4 2.8,1.1 6.2,1.7 9.3,1 3.1,-0.7 6.1,-2.7 7.6,-6.9 2.6,-7.1 -2.4,-14.3 -8.5,-16.5 -5.8,-1.8 -12.3,0.2 -15.1,6.9 z"
           id="path49"
           inkscape:connector-curvature="0"
           style="fill:none" /><path
           class="noFillSVG"
           d="m 507,803.5 c -1.1,17.4 27.3,15.8 24.5,-1.3 -2.4,-14.2 -23.7,-13.3 -24.5,1.3 z"
           id="path51"
           inkscape:connector-curvature="0"
           style="fill:none" /><path
           class="noFillSVG"
           d="m 591.3,284.7 c 11.1,-13.5 -12.8,-28.8 -20.6,-13.4 -6.4,12.9 11.3,24.8 20.6,13.4 z"
           id="path53"
           inkscape:connector-curvature="0"
           style="fill:none" /><path
           class="noFillSVG"
           d="m 193.8,362.1 c -9.4,-14.7 -31.4,3.3 -19.1,15.4 10.3,10.2 27,-3 19.1,-15.4 z"
           id="path55"
           inkscape:connector-curvature="0"
           style="fill:none" /><path
           class="noFillSVG"
           d="m 136.9,490 c -1.4,-0.4 -2.7,-0.5 -4,-0.4 -1.3,0.1 -2.7,0.4 -4.1,0.9 -2.7,1 -5.2,3 -6.7,6.3 -3.4,8.3 1.8,14.2 8.1,16.1 6.4,1.8 13.9,-0.5 15.4,-9 1.3,-7.2 -3.2,-12.3 -8.7,-13.9 z"
           id="path57"
           inkscape:connector-curvature="0"
           style="fill:none" /><path
           class="noFillSVG"
           d="m 747.2,360.9 c -4,-17 -30.7,-7.2 -23.1,8.3 6.4,12.9 26.5,6 23.1,-8.3 z"
           id="path59"
           inkscape:connector-curvature="0"
           style="fill:none" /><path
           class="noFillSVG"
           d="m 730.5,756.4 c 14.9,-9.1 -2.6,-31.5 -15,-19.4 -10.4,10 2.4,27 15,19.4 z"
           id="path61"
           inkscape:connector-curvature="0"
           style="fill:none" /><path
           class="noFillSVG"
           d="m 706.3,674.9 c -10.3,10 2.5,27 15,19.4 15,-9.1 -2.6,-31.4 -15,-19.4 z"
           id="path63"
           inkscape:connector-curvature="0"
           style="fill:none" /><path
           class="noFillSVG"
           d="m 127.6,404.3 c 6.9,0.5 10.5,-2.9 11.8,-7.7 0.7,-2.4 0.6,-5.3 -0.1,-7.9 -0.8,-2.7 -2.5,-5.4 -5.8,-7.2 -1.9,-1.1 -3.8,-1.5 -5.7,-1.5 -1.8,0.1 -3.6,0.6 -5.1,1.5 -3.1,1.9 -5.3,5.3 -6.1,8.7 -0.8,3.5 -0.2,7.1 1.8,9.7 1.9,2.5 5.1,4.1 9.2,4.4 z"
           id="path65"
           inkscape:connector-curvature="0"
           style="fill:none" /><path
           class="noFillSVG"
           d="m 117.8,442.7 c -1.4,-2.1 -3.3,-4.1 -5.9,-5.4 -2.6,-1.3 -5.7,-1.8 -9.2,-0.7 -8.5,2.6 -9.2,12.3 -5.1,18.3 1.9,3 5.1,5 8.2,5.4 3.2,0.4 6.5,-0.8 9.6,-3.7 2.5,-2.3 3.8,-4.7 4,-7.1 0.3,-2.3 -0.4,-4.7 -1.6,-6.8 z"
           id="path67"
           inkscape:connector-curvature="0"
           style="fill:none" /><path
           class="noFillSVG"
           d="m 354.1,316.4 c 1.8,-0.3 3.5,-1 5,-1.9 1.4,-0.9 2.4,-1.8 3.3,-3 1.7,-2.3 2.6,-5.2 2.5,-8.1 -0.1,-5.7 -3.9,-11.3 -11.2,-12 -8.7,-0.7 -12.8,6 -12.6,12.6 0.2,3.1 1.4,6.3 3.4,8.7 2,2.6 5.1,4.3 9.6,3.7 z"
           id="path69"
           inkscape:connector-curvature="0"
           style="fill:none" /><path
           class="noFillSVG"
           d="m 750.5,557.4 c -14.3,-2.1 -20,18.3 -6.3,23.7 16.2,6.4 23.4,-21.1 6.3,-23.7 z"
           id="path71"
           inkscape:connector-curvature="0"
           style="fill:none" /><path
           class="noFillSVG"
           d="m 732.1,796 c -2.9,-1.3 -6.5,-1.1 -10.2,0.8 -6.2,3 -7.5,7.7 -6.3,12.6 0.7,2.4 1.9,4.8 4.1,6.8 2.1,2 4.9,3.4 8.6,3.4 8.9,0 12.4,-9.2 10.2,-16 -1,-3.5 -3.5,-6.3 -6.4,-7.6 z"
           id="path73"
           inkscape:connector-curvature="0"
           style="fill:none" /><path
           class="noFillSVG"
           d="m 794.3,512.6 c -14.3,-2.1 -20,18.3 -6.3,23.7 16.2,6.4 23.4,-21.1 6.3,-23.7 z"
           id="path75"
           inkscape:connector-curvature="0"
           style="fill:none" /><path
           class="noFillSVG"
           d="m 630.5,847.3 c -2.5,0.4 -5,1.7 -7.3,3.5 -2.2,1.9 -3.7,4.7 -3.9,8.4 -0.3,4.3 1.7,7.6 4.7,9.6 1.5,0.9 3.2,1.6 5,1.9 1.8,0.2 3.7,0.2 5.4,-0.2 3.5,-0.8 6.5,-2.9 8,-5.7 1.5,-2.9 1.6,-6.3 0.1,-10.3 -2.5,-6.2 -7,-8.1 -12,-7.2 z"
           id="path77"
           inkscape:connector-curvature="0"
           style="fill:none" /><path
           class="noFillSVG"
           d="m 694.8,843 c -6.5,-2.5 -10.9,-0.3 -13.6,3.9 -1.3,2.1 -2.2,4.8 -2.2,7.6 0,2.8 0.9,5.9 3.4,8.6 1.5,1.6 3.2,2.6 5,3.1 1.7,0.5 3.6,0.5 5.3,0 3.5,-0.9 6.6,-3.5 8.3,-6.5 1.8,-3.1 2.3,-6.7 1.2,-9.7 -1,-3.1 -3.6,-5.6 -7.4,-7 z"
           id="path79"
           inkscape:connector-curvature="0"
           style="fill:none" /><path
           class="noFillSVG"
           d="m 844.1,409.8 c -2.7,-2.3 -6.3,-3.2 -9.4,-2.7 -3.1,0.6 -6,2.7 -8.1,6.3 -3.4,6 -1.9,10.7 1.8,14 2,1.6 4.3,2.9 7.2,3.4 2.8,0.4 6,0 9,-2.1 7.4,-5 5.2,-14.5 -0.5,-18.9 z"
           id="path81"
           inkscape:connector-curvature="0"
           style="fill:none" /><path
           class="noFillSVG"
           d="m 563.1,831.4 c -1.1,17.4 27.3,15.8 24.5,-1.3 -2.3,-14.2 -23.6,-13.4 -24.5,1.3 z"
           id="path83"
           inkscape:connector-curvature="0"
           style="fill:none" /><path
           class="noFillSVG"
           d="m 843.7,472.3 c -0.8,-1.5 -1.9,-2.8 -3.1,-3.7 -2.6,-1.9 -6.1,-2.5 -10.1,-1.6 -6.8,1.5 -9.1,5.7 -9,10.8 0,2.5 0.8,5.2 2.4,7.6 1.6,2.3 4,4.4 7.6,5.2 4.2,0.9 7.9,-0.4 10.2,-3.2 1.2,-1.3 2.1,-2.9 2.7,-4.7 0.5,-1.8 0.8,-3.6 0.6,-5.4 -0.1,-1.8 -0.6,-3.5 -1.3,-5 z"
           id="path85"
           inkscape:connector-curvature="0"
           style="fill:none" /><path
           class="noFillSVG"
           d="m 804.5,366.9 c -1.5,-1 -3.2,-1.8 -4.9,-2.3 -1.8,-0.4 -3.7,-0.4 -5.4,-0.2 -3.6,0.6 -6.7,2.5 -8.3,5.1 -1.7,2.8 -2,6.2 -0.8,10.2 2.1,6.5 6.5,8.7 11.5,8.1 2.5,-0.3 5.1,-1.3 7.3,-3 2.2,-1.8 4.1,-4.3 4.6,-8 0.6,-4.3 -1.2,-7.7 -4,-9.9 z"
           id="path87"
           inkscape:connector-curvature="0"
           style="fill:none" /><path
           d="m 563,235.1 c 8,-6 9.1,-17.5 2.9,-25 -6.4,-7.7 -18,-7.6 -25.5,-1.3 -0.4,0.4 -0.6,0.7 -0.7,1.2 -4.6,5.1 -5.1,13.5 -1.9,19.8 4.8,9.5 16.6,11.7 25.2,5.3 z m -21.4,-19.3 c 7.7,-15.5 31.7,-0.1 20.6,13.4 -9.3,11.3 -27,-0.5 -20.6,-13.4 z"
           id="path89"
           inkscape:connector-curvature="0" /><path
           d="m 568.7,265.6 c -4.6,5.1 -5.1,13.5 -1.9,19.8 4.9,9.5 16.7,11.7 25.2,5.3 8,-6 9.1,-17.5 2.9,-25 -6.4,-7.7 -18,-7.6 -25.5,-1.3 -0.4,0.4 -0.6,0.8 -0.7,1.2 z m 22.6,19.1 c -9.3,11.3 -27,-0.5 -20.6,-13.4 7.8,-15.4 31.7,-0.1 20.6,13.4 z"
           id="path91"
           inkscape:connector-curvature="0" /><path
           d="m 597.4,332.5 c 0.9,4 3.2,8 6.4,11.1 4.9,4.6 11.1,5.9 15.9,4.7 5,-1.3 8.6,-4.9 10.5,-9.9 1.8,-4.7 1.6,-9.4 0.5,-13.4 -1.1,-4 -3.3,-7.1 -6.7,-9.1 -3.5,-2.1 -7.9,-2.5 -12.3,-1.9 -4.5,0.7 -9.1,2.7 -12.4,6.4 -0.4,0.4 -0.5,0.8 -0.5,1.3 -1.7,2.9 -2.3,6.8 -1.4,10.8 z m 4.9,-4.9 c 0.9,-4.4 3.6,-6.7 6.6,-7.9 3,-1.1 6.4,-1 9.3,-0.3 5.9,1.6 10.3,5.8 8.6,14.2 -0.8,3.6 -2.5,6.2 -5,7.8 -2.5,1.6 -5.7,2 -8.8,1.3 -6.3,-1.2 -12.2,-7.7 -10.7,-15.1 z"
           id="path93"
           inkscape:connector-curvature="0" /><path
           d="m 656.4,356.8 c 1.3,6.8 7.6,12.2 14.6,13.5 10.5,1.9 19.4,-6.2 19.5,-16.8 0.1,-10 -8.4,-17.9 -18.2,-17.4 -10.1,0.4 -17,9.8 -16.4,19.5 0.1,0.4 0.3,0.8 0.5,1.2 z m 29,-6.4 c 3.4,14.3 -16.7,21.2 -23.1,8.3 -7.7,-15.6 19,-25.3 23.1,-8.3 z"
           id="path95"
           inkscape:connector-curvature="0" /><path
           d="m 718.3,367.2 c 1.3,6.8 7.6,12.2 14.6,13.5 10.5,1.9 19.4,-6.2 19.5,-16.8 0.1,-10 -8.4,-17.9 -18.2,-17.4 -10.1,0.4 -17,9.8 -16.4,19.5 0,0.5 0.2,0.9 0.5,1.2 z m 28.9,-6.3 c 3.4,14.3 -16.7,21.2 -23.1,8.3 -7.6,-15.6 19.1,-25.4 23.1,-8.3 z"
           id="path97"
           inkscape:connector-curvature="0" /><path
           d="m 798.3,358.8 c -5.9,-1 -11,1 -14.2,4.5 -3.2,3.5 -4.7,8.2 -4.5,13.1 0,0.5 0.2,0.9 0.4,1.3 0.4,3.4 1.9,6.3 3.6,8.9 1.8,2.4 3.9,4.3 6.4,5.4 0.9,0.4 1.8,0.7 2.8,0.8 0.9,0.2 1.9,0.2 2.9,0.2 2,-0.2 4,-0.6 6,-1.5 4,-1.8 8.1,-4.9 10.5,-9.6 1.1,-2.2 1.7,-4.6 1.6,-7 -0.1,-2.4 -0.8,-4.8 -2.1,-7.1 -2.7,-4.4 -7.6,-8.1 -13.4,-9 z m 10.2,18.1 c -0.5,3.7 -2.4,6.3 -4.6,8 -2.2,1.7 -4.9,2.7 -7.3,3 -5,0.6 -9.4,-1.6 -11.5,-8.1 -1.2,-4 -0.9,-7.5 0.8,-10.2 1.7,-2.7 4.8,-4.6 8.3,-5.1 1.8,-0.2 3.6,-0.2 5.4,0.2 1.8,0.4 3.5,1.2 4.9,2.3 2.8,2.1 4.6,5.5 4,9.9 z"
           id="path99"
           inkscape:connector-curvature="0" /><path
           d="m 851.1,409.1 c -0.8,-1.2 -1.7,-2.3 -2.7,-3.3 -1,-0.9 -2.1,-1.7 -3.2,-2.3 -2.2,-1.3 -4.6,-1.8 -7,-1.8 -4.7,-0.1 -9.2,2.1 -12.7,5.5 -0.4,0.4 -0.6,0.8 -0.7,1.2 -2.2,2.6 -3.4,5.7 -4.1,8.7 -0.3,1.5 -0.4,2.9 -0.4,4.4 0.1,1.4 0.3,2.8 0.7,4 0.7,1.9 1.6,3.5 3.2,4.9 1.3,1.4 3.2,2.5 5.2,3.4 4,1.8 9.2,2.6 14.2,1.1 4.7,-1.4 8.5,-5 9.9,-9.9 1.5,-5 0.8,-11 -2.4,-15.9 z m -6.4,19.7 c -3,2.1 -6.2,2.5 -9,2.1 -2.9,-0.4 -5.3,-1.7 -7.2,-3.4 -3.7,-3.3 -5.3,-8.1 -1.8,-14 2.1,-3.6 4.9,-5.8 8.1,-6.3 3.1,-0.6 6.7,0.4 9.4,2.7 5.6,4.3 7.8,13.8 0.5,18.9 z"
           id="path101"
           inkscape:connector-curvature="0" /><path
           d="m 847,467.3 c -3.3,-3.5 -8,-5.3 -12.8,-5.5 -0.5,0 -0.9,0.1 -1.3,0.3 -3.3,0.2 -6.6,1.3 -9.1,2.9 -1.3,0.8 -2.5,1.6 -3.5,2.6 -1,1 -1.9,2 -2.5,3.2 -2,3.4 -1.8,7.5 -0.5,11.7 1.4,4.2 4.3,8.6 8.8,11.3 2.1,1.3 4.4,2 6.8,2.1 2.4,0.1 4.9,-0.4 7.2,-1.5 1.2,-0.6 2.3,-1.2 3.4,-2 1.1,-0.8 2,-1.8 2.9,-2.9 1.8,-2.1 3.1,-4.8 3.9,-7.6 0.7,-2.9 0.7,-5.7 0.1,-8.2 -0.6,-2.5 -1.8,-4.6 -3.4,-6.4 z m -2.6,15.4 c -0.5,1.8 -1.4,3.4 -2.7,4.7 -2.3,2.7 -6,4.1 -10.2,3.2 -3.6,-0.8 -6.1,-2.9 -7.6,-5.2 -1.6,-2.4 -2.4,-5.1 -2.4,-7.6 -0.1,-5 2.2,-9.3 9,-10.8 4,-0.9 7.5,-0.4 10.1,1.6 1.3,1 2.4,2.2 3.1,3.7 0.7,1.5 1.2,3.2 1.3,5 0.2,1.8 -0.1,3.6 -0.6,5.4 z"
           id="path103"
           inkscape:connector-curvature="0" /><path
           d="m 800.5,509.2 c -0.5,-0.3 -0.9,-0.3 -1.3,-0.3 -6.3,-2.8 -14.4,-0.7 -19.4,4.3 -7.6,7.6 -6,19.5 2.7,25.6 8.1,5.7 19.5,3.3 24.7,-5 5.4,-8.5 1.7,-19.5 -6.7,-24.6 z M 788,536.3 c -13.7,-5.4 -7.9,-25.9 6.3,-23.7 17.1,2.6 9.9,30.1 -6.3,23.7 z"
           id="path105"
           inkscape:connector-curvature="0" /><path
           d="m 756.7,554.1 c -0.5,-0.3 -0.9,-0.3 -1.3,-0.3 -6.3,-2.8 -14.4,-0.7 -19.4,4.3 -7.6,7.6 -6,19.5 2.7,25.6 8.1,5.7 19.5,3.3 24.7,-5 5.3,-8.6 1.6,-19.5 -6.7,-24.6 z m -12.6,27 c -13.7,-5.4 -7.9,-25.9 6.3,-23.7 17.2,2.6 10,30.1 -6.3,23.7 z"
           id="path107"
           inkscape:connector-curvature="0" /><path
           d="m 712.7,602.6 c -3.4,-0.3 -7.2,1 -10.3,3.6 -3.2,2.6 -5.6,6.5 -6.9,10.8 -1.8,6.5 -0.2,12.6 3.1,16.3 3.4,3.8 8.3,5.4 13.6,4.8 4.9,-0.6 9.1,-2.9 12.1,-5.7 3,-2.8 4.8,-6.2 5,-10.2 0.3,-4.1 -1.3,-8.1 -4,-11.8 -2.7,-3.7 -6.6,-6.8 -11.4,-8 -0.4,0 -0.8,0.1 -1.2,0.2 z m 10.9,16.1 c 1.3,5.9 -0.4,11.8 -8.7,14.2 -3.5,1 -6.7,0.7 -9.2,-0.8 -2.6,-1.5 -4.4,-4.1 -5.2,-7.2 -1.7,-6.2 1.3,-14.4 8.6,-16.5 4.3,-1.2 7.6,0 10,2.2 2.3,2.1 3.7,5.1 4.5,8.1 z"
           id="path109"
           inkscape:connector-curvature="0" /><path
           d="m 707.4,667.9 c -0.5,0.2 -0.8,0.5 -1.1,0.9 -6,3.3 -9.3,11 -8.3,18.1 1.4,10.6 11.9,16.6 22,13.4 9.5,-3 14.4,-13.5 10.9,-22.7 -3.4,-9.5 -14.4,-13.2 -23.5,-9.7 z m 13.9,26.4 c -12.6,7.6 -25.4,-9.4 -15,-19.4 12.4,-12 30,10.3 15,19.4 z"
           id="path111"
           inkscape:connector-curvature="0" /><path
           d="m 716.5,730 c -0.5,0.2 -0.8,0.5 -1.1,0.9 -6,3.3 -9.3,11 -8.3,18.1 1.4,10.6 11.9,16.6 22,13.4 9.5,-3 14.4,-13.5 10.9,-22.7 -3.4,-9.6 -14.4,-13.3 -23.5,-9.7 z m 14,26.4 c -12.6,7.6 -25.4,-9.4 -15,-19.4 12.3,-12.1 29.9,10.3 15,19.4 z"
           id="path113"
           inkscape:connector-curvature="0" /><path
           d="m 738.1,793.4 c -4,-2.7 -8.9,-3.3 -13.7,-2.4 -0.5,0.1 -0.9,0.3 -1.2,0.6 -1.6,0.5 -3.1,1.2 -4.5,2 -1.4,0.8 -2.7,1.8 -3.7,2.9 -2.2,2.1 -3.7,4.5 -4.4,7 -0.2,1 -0.4,1.9 -0.4,2.9 0,0.9 0.1,1.9 0.3,2.9 0.3,1.9 1.2,3.9 2.3,5.7 2.3,3.7 6,7.4 11.1,9 4.6,1.5 9.8,0.7 13.8,-2.6 4.1,-3.1 6.9,-8.6 7,-14.5 0,-3 -0.6,-5.7 -1.8,-8 -1.2,-2.4 -2.8,-4.2 -4.8,-5.5 z m -9.8,26.2 c -3.7,0.1 -6.5,-1.4 -8.6,-3.4 -2.1,-2 -3.4,-4.4 -4.1,-6.8 -1.2,-4.8 0.1,-9.5 6.3,-12.6 3.7,-1.8 7.3,-2 10.2,-0.8 2.9,1.3 5.3,4.1 6.3,7.5 2.3,6.9 -1.2,16.1 -10.1,16.1 z"
           id="path115"
           inkscape:connector-curvature="0" /><path
           d="m 700.8,840.8 c -0.4,-0.3 -0.8,-0.4 -1.2,-0.5 -2.9,-1.7 -6.2,-2.6 -9.2,-2.7 -1.5,-0.1 -3,0 -4.4,0.3 -1.4,0.2 -2.7,0.7 -3.9,1.3 -3.6,1.8 -5.8,5.2 -6.9,9.5 -1.1,4.3 -1.2,9.4 1,14.2 2.1,4.6 6.2,7.5 11.3,8.3 5,0.7 10.9,-0.8 15.3,-4.8 2.2,-2 3.7,-4.3 4.6,-6.7 0.8,-2.4 1.1,-4.9 0.8,-7.2 -0.7,-4.7 -3.5,-8.8 -7.4,-11.7 z m 0.2,18.9 c -1.8,3.1 -4.9,5.7 -8.3,6.5 -1.7,0.5 -3.6,0.4 -5.3,0 -1.8,-0.5 -3.4,-1.4 -5,-3.1 -2.6,-2.7 -3.4,-5.7 -3.4,-8.6 0,-2.8 0.9,-5.6 2.2,-7.6 2.7,-4.3 7.1,-6.5 13.6,-3.9 3.8,1.5 6.4,3.9 7.4,7 1.1,3 0.6,6.5 -1.2,9.7 z"
           id="path117"
           inkscape:connector-curvature="0" /><path
           d="m 647.7,856.4 c -0.7,-3.4 -2.3,-6.2 -4.2,-8.6 -1.9,-2.3 -4.2,-4.1 -6.7,-5 -0.9,-0.4 -1.9,-0.6 -2.9,-0.6 -1,-0.1 -1.9,-0.1 -2.9,0 -1,0.1 -1.9,0.4 -3.1,0.7 -1.2,0.2 -2.3,0.6 -3.4,1.1 -4.3,2 -7.8,5.8 -9.4,10.9 -1.4,4.8 -0.9,9.6 1.7,13.7 2.8,4.2 7.9,7.5 13.8,8 6,0.6 11,-1.8 13.9,-5.4 3,-3.6 4.1,-8.6 3.6,-13.4 0,-0.7 -0.2,-1 -0.4,-1.4 z m -5.3,8.5 c -1.5,2.8 -4.5,4.9 -8,5.7 -1.7,0.4 -3.6,0.4 -5.4,0.2 -1.8,-0.3 -3.5,-1 -5,-1.9 -3,-2 -5,-5.3 -4.7,-9.6 0.2,-3.7 1.7,-6.5 3.9,-8.4 2.2,-1.8 4.8,-3.1 7.3,-3.5 5,-0.9 9.6,1 12.1,7.3 1.4,3.9 1.4,7.3 -0.2,10.2 z"
           id="path119"
           inkscape:connector-curvature="0" /><path
           d="m 582.5,816.5 c -9.5,-4.8 -20.4,0.3 -23.5,10.5 -2.9,9.5 2.9,19.5 12.4,21.9 9.8,2.5 19.1,-4.5 21.3,-14 0.1,-0.5 0,-1 -0.1,-1.4 0.8,-6.7 -3.7,-13.8 -10.1,-17 z m -19.4,14.9 c 0.9,-14.7 22.1,-15.5 24.5,-1.3 2.9,17.1 -25.5,18.7 -24.5,1.3 z"
           id="path121"
           inkscape:connector-curvature="0" /><path
           d="m 526.4,788.6 c -2.4,-1.2 -4.8,-1.8 -7.2,-1.8 -1.2,0 -2.4,0.1 -3.5,0.3 -1.1,0.2 -2.6,0.5 -3.7,1 -4.7,1.8 -7.9,6 -9.1,11.2 -0.6,2.4 -0.6,4.8 -0.4,7.1 0.3,2.3 0.7,4.3 1.9,6.3 2.3,4 6.1,7.1 10.9,8.3 9.8,2.5 19.1,-4.5 21.3,-14 0.1,-0.5 0,-1 -0.1,-1.4 0.7,-6.7 -3.8,-13.8 -10.1,-17 z M 507,803.5 c 0.9,-14.7 22.2,-15.5 24.5,-1.3 2.8,17.1 -25.6,18.8 -24.5,1.3 z"
           id="path123"
           inkscape:connector-curvature="0" /><path
           d="m 474.2,784.7 c -1.3,-3.1 -4.2,-5.9 -7.9,-7.4 -3.8,-1.6 -8.4,-2 -12.8,-1.1 -6.6,1.4 -11.3,5.6 -13.1,10.3 -1.9,4.7 -0.9,9.9 2,14.3 1.4,2.1 3.1,3.7 4.9,5.1 1.8,1.4 3.8,2.4 5.7,3 3.9,1.4 7.7,1.5 11.3,-0.2 3.7,-1.7 6.6,-4.9 8.6,-9 2,-4.1 3,-9 1.9,-13.8 0,-0.5 -0.3,-0.9 -0.6,-1.2 z m -4.1,9.3 c -0.8,3.2 -2.8,5.8 -5.1,7.8 -4.7,3.9 -10.6,5.1 -16.6,-1.2 -2.5,-2.7 -3.7,-5.6 -3.5,-8.5 0.1,-3 1.6,-5.7 4,-8 4.7,-4.4 13.4,-5.5 18.6,0 3,3.2 3.4,6.8 2.6,9.9 z"
           id="path125"
           inkscape:connector-curvature="0" /><path
           d="m 411.9,805.8 c -5,-4.7 -13.4,-5.4 -19.8,-2.3 -9.6,4.6 -12.1,16.4 -5.9,25.1 5.8,8.1 17.3,9.5 25,3.4 7.9,-6.3 8,-17.9 1.8,-25.4 -0.3,-0.5 -0.7,-0.7 -1.1,-0.8 z M 392.3,828 c -11.1,-9.6 1.1,-27 13.8,-20.3 15.3,8.1 -0.6,31.7 -13.8,20.3 z"
           id="path127"
           inkscape:connector-curvature="0" /><path
           d="m 355.7,833.7 c -5,-4.7 -13.4,-5.4 -19.8,-2.3 -9.6,4.6 -12.1,16.4 -5.9,25.1 5.8,8.1 17.3,9.5 25,3.4 7.9,-6.3 8,-17.9 1.8,-25.4 -0.3,-0.5 -0.7,-0.7 -1.1,-0.8 z m -19.6,22.1 c -11.1,-9.6 1.1,-27 13.8,-20.3 15.3,8.1 -0.6,31.7 -13.8,20.3 z"
           id="path129"
           inkscape:connector-curvature="0" /><path
           d="m 300.7,856.5 c -1.4,-3.1 -3.6,-5.6 -6,-7.4 -1.2,-1 -2.4,-1.7 -3.7,-2.2 -1.3,-0.6 -2.6,-1 -3.9,-1.1 -3.9,-0.5 -7.6,1 -11,3.8 -3.4,2.9 -6.4,7 -7.3,12.3 -0.9,4.9 0.8,9.7 4.6,13.3 3.7,3.5 9.5,5.6 15.3,4.8 3,-0.3 5.6,-1.5 7.7,-2.9 2.1,-1.6 3.7,-3.5 4.7,-5.6 2.1,-4.3 2,-9.3 0.4,-13.9 -0.2,-0.6 -0.5,-0.9 -0.8,-1.1 z m -3.1,9.4 c -0.8,3.2 -3.2,5.8 -6.5,7.4 -3.2,1.5 -7.3,1.9 -10.6,0.6 -1.7,-0.6 -3.2,-1.7 -4.4,-3 -1.2,-1.4 -2,-3.1 -2.3,-5.4 -0.6,-3.7 0.5,-6.7 2.1,-9 1.6,-2.3 3.9,-4.1 6.2,-5 4.6,-2 9.4,-1.3 13.3,4.4 2.3,3.4 3,6.9 2.2,10 z"
           id="path131"
           inkscape:connector-curvature="0" /><path
           d="m 249.2,826.5 c -0.5,-1.3 -1.1,-2.5 -1.9,-3.6 -1.3,-1.6 -2.6,-2.9 -4.4,-3.7 -1.7,-0.9 -3.8,-1.4 -6,-1.7 -4.3,-0.5 -9.5,0.2 -13.9,3.1 -4.1,2.7 -6.6,7.3 -6.5,12.4 -0.1,5.1 2.5,10.7 7,14.4 1.2,0.9 2.4,1.7 3.6,2.3 1.3,0.6 2.5,1 3.8,1.2 2.5,0.5 5,0.3 7.2,-0.4 4.5,-1.4 8.1,-4.8 10.5,-9.1 0.3,-0.5 0.3,-0.9 0.3,-1.3 1.3,-3.2 1.6,-6.4 1.3,-9.5 -0.2,-1.3 -0.5,-2.8 -1,-4.1 z m -3.6,9.4 c -0.9,4.1 -3,7 -5.8,8.5 -2.8,1.5 -6.5,1.6 -9.8,0.3 -6.8,-2.5 -11.8,-10.9 -6.2,-17.9 2.2,-2.9 5.1,-4.2 8,-4.7 2.9,-0.4 5.5,0.1 7.9,1 4.5,2.1 7.3,6.1 5.9,12.8 z"
           id="path133"
           inkscape:connector-curvature="0" /><path
           d="m 224.2,792 c 0.5,-0.1 0.9,-0.4 1.1,-0.7 1.6,-0.6 3,-1.4 4.3,-2.3 1.3,-0.9 2.6,-2 3.5,-3.1 0.9,-1.1 1.9,-2.3 2.5,-3.6 0.3,-0.6 0.6,-1.3 0.8,-1.9 0.3,-0.9 0.5,-1.7 0.6,-2.6 1.7,-10.6 -6.6,-19.3 -17.2,-19.1 -5,0.1 -9.4,2.3 -12.5,5.7 -1.5,1.7 -2.8,3.7 -3.6,5.9 -0.4,1.1 -0.7,2.2 -0.8,3.4 -0.1,0.6 -0.1,1.2 -0.2,1.8 0,0.7 0,1.4 0,2.2 0.2,3 1,5.6 2.3,7.8 1.3,2.2 3,3.9 5.1,5.1 4.4,2.3 9.4,2.6 14.1,1.4 z m -14.9,-11.6 c -0.6,-1.6 -1,-3.6 -1.1,-5.2 -0.1,-1.6 0.2,-3.2 0.8,-4.7 1.2,-3 3.7,-5.5 7.9,-6.6 7.1,-1.8 12.5,2.2 14.5,7.6 1,2.7 1.2,5.7 0.3,8.4 -0.7,2.3 -2.6,4.4 -5.5,6.1 -3.6,2.1 -7.1,2.5 -10.1,1.4 -2.9,-1 -5.6,-3.7 -6.8,-7 z"
           id="path135"
           inkscape:connector-curvature="0" /><path
           d="m 212,715.2 c 0.7,10.1 10.1,16.8 19.9,16 0.5,0 0.9,-0.2 1.3,-0.5 6.7,-1.4 12,-7.9 13.2,-14.9 1.7,-10.6 -6.6,-19.3 -17.2,-19.1 -10.1,0.1 -17.9,8.7 -17.2,18.5 z m 14.1,-13.3 c 14.2,-3.7 21.6,16.3 8.8,22.9 -15.4,8 -25.7,-18.5 -8.8,-22.9 z"
           id="path137"
           inkscape:connector-curvature="0" /><path
           d="m 229.5,637.5 c -1.9,1.3 -3.5,2.8 -4.8,4.3 -1.2,1.6 -2.3,3.3 -2.9,5.1 -0.3,0.9 -0.6,1.8 -0.7,2.8 0,0.5 -0.1,1.1 -0.1,1.6 0,0.6 0,1.2 0,1.8 0.7,10.1 10.1,16.8 19.9,16 0.5,0 0.9,-0.2 1.3,-0.5 3.4,-0.7 6.4,-2.7 8.7,-5.4 1.2,-1.3 2.1,-2.9 2.9,-4.5 0.8,-1.7 1.3,-3.1 1.6,-5.5 0.9,-6.7 -1.5,-12.5 -5.3,-15.8 -3.8,-3.4 -9,-4.2 -14.1,-2.9 -2.4,0.7 -4.6,1.8 -6.5,3 z m 13.9,2.3 c 2.6,1.1 5,3.5 6.1,6.4 0.6,1.5 1,3.1 1.1,4.8 0.1,1.6 -0.1,3.6 -0.5,4.8 -0.9,2.7 -2.8,5.2 -6,6.9 -7.7,4 -14.1,-0.6 -16.5,-6.8 -0.6,-1.5 -0.9,-3.2 -1,-4.8 -0.1,-1.4 0.1,-2.8 0.5,-4.1 0.4,-1.3 1.2,-2.6 2.4,-3.7 1.1,-1.1 2.7,-2.2 4.7,-3 3.4,-1.5 6.5,-1.6 9.2,-0.5 z"
           id="path139"
           inkscape:connector-curvature="0" /><path
           d="m 219.8,573.9 c -4.7,0.4 -9.3,2.9 -12.4,7.2 -3,4 -3.9,8.9 -3.1,13.4 0.2,1.1 0.5,2.2 1,3.3 0.3,1 0.6,1.9 1.1,2.7 0.5,0.8 1,1.6 1.6,2.4 0.6,0.7 1.3,1.4 2.1,2 3.2,2.5 7.4,3.6 12,3.5 4.5,-0.1 9.3,-1.4 13.1,-4.7 0.4,-0.4 0.6,-0.8 0.7,-1.2 2.2,-2.6 3.3,-6.4 2.9,-10.5 -0.2,-2 -0.7,-4.2 -1.5,-6.2 -0.8,-2 -2,-4 -3.4,-5.7 -1,-1.3 -2.2,-2.4 -3.5,-3.3 -0.6,-0.5 -1.2,-0.9 -1.9,-1.3 -0.6,-0.3 -1.1,-0.5 -1.7,-0.7 -2.3,-0.8 -4.7,-1.1 -7,-0.9 z m 13.4,22.3 c -1.5,4.2 -4.5,6.2 -7.6,6.9 -3.1,0.7 -6.5,0.2 -9.3,-1 -2.8,-1.2 -5.1,-3 -6.5,-5.4 -0.6,-1.2 -1,-2.7 -1.2,-4.5 -0.1,-1.7 0.2,-3.6 1,-5.6 2.9,-6.8 9.3,-8.7 14.9,-6.9 6.3,2.1 11.3,9.3 8.7,16.5 z"
           id="path141"
           inkscape:connector-curvature="0" /><path
           d="m 163.5,536.2 c -5.9,8 -3.7,19.4 4.5,24.8 8.4,5.6 19.5,2.1 24.7,-6.1 0.3,-0.5 0.4,-0.9 0.4,-1.3 3,-6.2 1,-14.4 -3.9,-19.5 -7.4,-7.7 -19.4,-6.4 -25.7,2.1 z m 26,12.4 c -3,17 -30.3,9.3 -23.6,-6.9 5.7,-13.5 26.1,-7.3 23.6,6.9 z"
           id="path143"
           inkscape:connector-curvature="0" /><path
           d="m 139.2,485.2 c -1.9,-0.6 -4,-0.6 -6.2,-0.4 -4.3,0.4 -9.2,2.3 -12.9,6.1 -3.4,3.6 -4.8,8.6 -3.6,13.6 0.6,2.6 1.5,4.7 2.7,6.7 1.3,2 2.9,3.7 5,5 8.4,5.6 19.5,2.1 24.7,-6.1 0.3,-0.5 0.4,-0.9 0.4,-1.3 3,-6.2 1,-14.4 -3.9,-19.5 -1.9,-1.9 -4.2,-3.4 -6.2,-4.1 z m 6.4,18.6 c -1.5,8.5 -9.1,10.8 -15.4,9 -6.3,-1.8 -11.6,-7.7 -8.1,-16.1 1.5,-3.3 4.1,-5.3 6.7,-6.3 1.3,-0.5 2.7,-0.8 4.1,-0.9 1.3,-0.1 2.6,0 4,0.4 5.5,1.7 10,6.8 8.7,13.9 z"
           id="path145"
           inkscape:connector-curvature="0" /><path
           d="m 122,455 c 0.7,-1.3 1.3,-2.7 1.7,-4 0.3,-1.3 0.5,-2.7 0.5,-4 -0.1,-2 -0.5,-3.8 -1.5,-5.6 -0.8,-1.7 -2.3,-3.4 -3.9,-4.8 -3.3,-2.9 -7.9,-5.3 -13.2,-5.4 -4.9,-0.1 -9.6,2.3 -12.4,6.5 -3,4.2 -4.1,10.2 -2.5,15.8 0.4,1.4 1,2.8 1.6,4 0.7,1.2 1.5,2.3 2.4,3.2 1.7,1.9 3.9,3.1 6.2,3.8 4.5,1.4 9.4,0.6 13.8,-1.6 0.5,-0.2 0.8,-0.6 1,-0.9 2.8,-1.9 4.8,-4.4 6.3,-7 z m -6.7,1.6 c -3.1,2.8 -6.4,4.1 -9.6,3.7 -3.1,-0.4 -6.3,-2.4 -8.2,-5.4 -4.1,-5.9 -3.4,-15.7 5.1,-18.3 3.5,-1.1 6.6,-0.5 9.2,0.7 2.6,1.3 4.5,3.2 5.9,5.4 1.3,2.1 2,4.5 1.6,6.8 -0.1,2.3 -1.5,4.7 -4,7.1 z"
           id="path147"
           inkscape:connector-curvature="0" /><path
           d="m 122.6,408.1 c 0.5,0.2 0.9,0.2 1.3,0.1 3.2,0.8 6.7,0.6 9.5,-0.2 1.5,-0.3 2.9,-0.9 4.1,-1.5 1.3,-0.6 2.4,-1.4 3.3,-2.4 1.5,-1.4 2.4,-3.1 3,-4.9 0.6,-1.9 0.9,-3.9 0.8,-6.1 -0.2,-4.5 -1.5,-9.3 -5.1,-13.3 -3.3,-3.8 -8.1,-5.4 -13.3,-4.7 -5,0.8 -10.3,4 -13.3,9.1 -1.6,2.6 -2.3,5.3 -2.4,7.8 -0.1,2.6 0.4,5 1.4,7.1 2.1,4.3 6.1,7.4 10.7,9 z m -5.9,-17.9 c 0.8,-3.5 3,-6.9 6.1,-8.7 1.5,-1 3.3,-1.5 5.1,-1.5 1.8,-0.1 3.7,0.4 5.7,1.5 3.2,1.8 5,4.5 5.8,7.2 0.8,2.7 0.8,5.6 0.1,7.9 -1.3,4.8 -4.8,8.2 -11.8,7.7 -4.1,-0.2 -7.3,-1.8 -9.2,-4.4 -2,-2.7 -2.6,-6.2 -1.8,-9.7 z"
           id="path149"
           inkscape:connector-curvature="0" /><path
           d="m 168.7,377.7 c 1.5,2.9 4.4,5.2 7.6,6.6 3.3,1.4 7,1.9 10.5,1.3 10.6,-1.7 16.3,-12.2 12.9,-22.3 -3.2,-9.4 -13.8,-14.1 -22.9,-10.5 -4.7,1.9 -7.9,5.6 -9.5,9.9 -1.7,4.5 -1.3,9.5 0.6,13.9 0.2,0.6 0.5,0.9 0.8,1.1 z m 25.1,-15.6 c 7.9,12.4 -8.8,25.6 -19.1,15.4 -12.3,-12.1 9.7,-30.1 19.1,-15.4 z"
           id="path151"
           inkscape:connector-curvature="0" /><path
           d="m 230.4,367.2 c 3.4,6 11.2,9 18.3,7.9 10.6,-1.7 16.3,-12.2 12.9,-22.3 -3.2,-9.4 -13.8,-14.1 -22.9,-10.5 -9.4,3.7 -12.8,14.8 -9.1,23.8 0.2,0.6 0.5,0.9 0.8,1.1 z m 25.2,-15.5 c 7.9,12.4 -8.8,25.6 -19.1,15.4 -12.3,-12.1 9.7,-30.2 19.1,-15.4 z"
           id="path153"
           inkscape:connector-curvature="0" /><path
           d="m 321.3,336.6 c -3.4,-3.8 -7.6,-5.8 -11.6,-6.6 -4,-0.9 -7.8,-0.3 -11.2,1.7 -3.5,2.2 -5.8,5.7 -7.5,10.1 -1.6,4.4 -1.5,9.4 0.4,13.9 0.2,0.5 0.5,0.8 0.9,1 2.8,6.1 13,8.9 21.4,5.7 6.3,-2.2 10.4,-7.1 11.6,-12 1.1,-4.9 -0.4,-9.9 -4,-13.8 z m -4.1,17.3 c -4.1,5 -12.5,7.3 -18.4,2.5 -3.5,-2.9 -4.4,-6.3 -4,-9.5 0.4,-3.2 2,-6.1 4,-8.4 4.1,-4.5 9.9,-6.4 16.6,-1 2.8,2.3 4.4,5.1 4.6,8 0.3,2.9 -0.7,6 -2.8,8.4 z"
           id="path155"
           inkscape:connector-curvature="0" /><path
           d="m 338.1,312 c 2.2,3.9 5.6,7.6 10.2,9.5 0.5,0.2 1,0.2 1.4,0.1 3.4,0.8 7.2,0 10.7,-2.2 1.7,-1 3.5,-2.7 4.6,-3.8 1.3,-1.3 2.3,-2.7 3.2,-4.3 5.1,-9.4 0.1,-20.4 -10,-23.7 -9.4,-3.2 -19.6,2.5 -22.2,11.9 -0.7,2.6 -0.6,4.4 -0.1,6.5 0.3,2 1.1,4 2.2,6 z m 15.6,-20.5 c 7.3,0.6 11.1,6.2 11.2,12 0.1,2.9 -0.8,5.8 -2.5,8.1 -0.9,1.2 -1.9,2.1 -3.3,3 -1.5,0.9 -3.1,1.6 -5,1.9 -4.5,0.6 -7.6,-1.1 -9.6,-3.5 -2,-2.5 -3.2,-5.6 -3.4,-8.7 -0.2,-6.8 3.9,-13.5 12.6,-12.8 z"
           id="path157"
           inkscape:connector-curvature="0" /><path
           d="m 378.6,265.5 c 0.5,0.1 1,0.1 1.4,-0.1 6.8,0.9 14,-3.5 17.3,-9.8 5.1,-9.4 0.1,-20.4 -10,-23.7 -9.4,-3.1 -19.6,2.5 -22.2,11.9 -2.7,9.8 4,19.2 13.5,21.7 z m 4.2,-29.6 c 14.6,1.2 15,22.5 0.8,24.5 -17.2,2.5 -18.3,-25.9 -0.8,-24.5 z"
           id="path159"
           inkscape:connector-curvature="0" /><path
           d="m 396.3,201.8 c 2.5,3.9 6.6,6.9 11.3,8.1 0.5,0.1 1,0.1 1.4,-0.1 3.4,0.4 6.9,-0.4 10,-2.2 1.5,-0.8 3,-2.1 4.2,-3.2 1.1,-0.9 2,-1.9 2.7,-3.1 2.2,-3.3 2.4,-7.4 1.3,-11.7 -1.2,-4.2 -3.7,-8.8 -8,-11.8 -2,-1.4 -4.3,-2.3 -6.7,-2.5 -2.4,-0.3 -4.9,0 -7.3,1 -2.4,0.9 -4.7,2.4 -6.5,4.5 -2,2 -3.4,4.5 -4.3,7.2 -0.5,1.5 -0.7,2.6 -0.7,3.8 -0.1,1.2 0,2.4 0.2,3.5 0.3,2.4 1.2,4.6 2.4,6.5 z m 6.9,-18.5 c 2.5,-2.6 6.3,-3.7 10.4,-2.5 3.6,1 5.9,3.3 7.3,5.7 1.4,2.5 2.1,5.3 1.9,7.7 0,2.6 -0.9,4.8 -2.4,6.6 -1.5,1.6 -4.3,3.6 -7.8,4.1 -8.6,1.2 -13.1,-5.3 -13.3,-11.9 0,-3.4 1.3,-7.3 3.9,-9.7 z"
           id="path161"
           inkscape:connector-curvature="0" /><path
           d="m 467.8,143.4 c -4.6,-2.2 -10.7,-2.5 -16,-0.1 -2.7,1.2 -4.9,3 -6.5,5 -1.5,2.1 -2.5,4.3 -2.9,6.6 -0.7,4.7 0.8,9.5 3.6,13.5 0.3,0.4 0.7,0.7 1,0.8 2.2,2.5 5.1,4.3 7.9,5.3 1.4,0.6 2.9,0.9 4.2,1 1.4,0.2 2.8,0.2 4.1,-0.1 3.9,-0.7 7.1,-3.2 9.5,-6.9 2.4,-3.8 4,-8.6 3.3,-13.9 -0.5,-4.8 -3.6,-8.9 -8.2,-11.2 z m 3.2,18.5 c -0.9,2.7 -2.5,5 -4.4,6.6 -3.9,3.2 -8.7,4 -14.1,-0.3 -3.2,-2.5 -4.9,-5.7 -5,-8.9 0,-1.6 0.3,-3.3 1,-4.8 0.7,-1.5 1.8,-2.9 3.1,-4.2 2.6,-2.4 6.3,-3.9 9.9,-3.7 1.8,0 3.5,0.6 5.1,1.6 1.5,1 2.8,2.4 3.8,4.4 1.5,3.4 1.4,6.6 0.6,9.3 z"
           id="path163"
           inkscape:connector-curvature="0" /><path
           d="m 503.1,178.8 c 0.6,1.4 1.3,2.6 2.1,3.8 0.4,0.6 0.9,1.1 1.3,1.5 0.5,0.5 0.9,1 1.5,1.4 1.6,1.1 3.3,2 5.3,2.2 1.9,0.4 4,0.3 6.2,-0.1 4.3,-0.7 9,-2.9 12.4,-7 3.2,-3.8 4.2,-8.9 2.7,-13.8 -0.7,-2.5 -2.2,-4.8 -4,-6.9 -1.9,-2 -4.2,-3.8 -7,-4.9 -1.4,-0.6 -2.8,-1 -4.1,-1.2 -1.4,-0.2 -2.7,-0.2 -4,-0.1 -2.5,0.2 -4.9,1.1 -6.8,2.5 -3.9,2.7 -6.3,7 -7.3,11.8 -0.1,0.5 0,1 0.1,1.3 -0.2,3.5 0.5,6.6 1.6,9.5 z m 5.9,-16.1 c 2.2,-2.2 5.7,-3.5 9.3,-3.1 7.2,0.4 14.5,7 11.2,15.4 -1.3,3.4 -3.7,5.5 -6.3,6.8 -2.6,1.2 -5.3,1.5 -7.8,1.3 -4.9,-0.6 -8.8,-3.6 -9.4,-10.5 -0.3,-4.3 0.8,-7.7 3,-9.9 z"
           id="path165"
           inkscape:connector-curvature="0" /><path
           d="m 543.3,247.1 c -2.9,-5.5 -11.4,-1 -8.5,4.5 2.9,5.5 11.4,1 8.5,-4.5 z"
           id="path167"
           inkscape:connector-curvature="0" /><path
           d="m 552,263.6 c -2.9,-5.5 -11.4,-1 -8.5,4.5 2.8,5.5 11.3,1 8.5,-4.5 z"
           id="path169"
           inkscape:connector-curvature="0" /><path
           d="m 560.7,280.3 c -2.9,-5.5 -11.4,-1 -8.5,4.5 2.8,5.4 11.4,1 8.5,-4.5 z"
           id="path171"
           inkscape:connector-curvature="0" /><path
           d="m 569.3,296.7 c -2.9,-5.5 -11.4,-1 -8.5,4.5 2.8,5.5 11.4,1 8.5,-4.5 z"
           id="path173"
           inkscape:connector-curvature="0" /><path
           d="m 578,313.4 c -2.9,-5.5 -11.4,-1 -8.5,4.5 2.9,5.4 11.4,1 8.5,-4.5 z"
           id="path175"
           inkscape:connector-curvature="0" /><path
           d="m 584.6,336.2 c 2.1,-1.2 3.5,-3.6 2.1,-6.3 -2.9,-5.5 -11.4,-1 -8.5,4.5 1.3,2.7 4.3,3 6.4,1.8 z"
           id="path177"
           inkscape:connector-curvature="0" /><path
           d="m 596.4,344.7 c -3.6,-4.3 -11.6,1.1 -7.2,6.4 2.3,2.5 5.2,1.9 6.8,0.2 1.7,-1.8 2.3,-4.5 0.4,-6.6 z"
           id="path179"
           inkscape:connector-curvature="0" /><path
           d="m 609.6,356 c -2.4,-1.6 -5,-0.5 -6.4,1.4 -1.5,1.9 -1.6,4.8 1.3,6.7 2.9,1.8 5.5,0.4 6.6,-1.7 1.1,-2.1 0.9,-4.9 -1.5,-6.4 z"
           id="path181"
           inkscape:connector-curvature="0" /><path
           d="m 619.8,366.4 c -0.9,2.3 -0.1,5.1 3.1,6.1 3.3,0.9 5.4,-1.1 5.9,-3.5 0.5,-2.3 -0.4,-5 -3.2,-5.8 -2.7,-0.8 -5,0.9 -5.8,3.2 z"
           id="path183"
           inkscape:connector-curvature="0" /><path
           d="m 641.7,376.2 c 6.1,1 7.7,-8.5 1.6,-9.5 -6.1,-1.1 -7.7,8.4 -1.6,9.5 z"
           id="path185"
           inkscape:connector-curvature="0" /><path
           d="m 661.9,369.8 c -6.1,-1 -7.7,8.5 -1.6,9.5 6.1,1.1 7.7,-8.4 1.6,-9.5 z"
           id="path187"
           inkscape:connector-curvature="0" /><path
           d="m 680.2,372.9 c -6.1,-1 -7.7,8.5 -1.6,9.5 6.1,1.1 7.7,-8.4 1.6,-9.5 z"
           id="path189"
           inkscape:connector-curvature="0" /><path
           d="m 697.1,385.6 c 6.1,1 7.7,-8.5 1.6,-9.5 -6,-1.1 -7.7,8.4 -1.6,9.5 z"
           id="path191"
           inkscape:connector-curvature="0" /><path
           d="m 715.5,388.7 c 6.1,1 7.7,-8.5 1.6,-9.5 -6.1,-1.1 -7.7,8.4 -1.6,9.5 z"
           id="path193"
           inkscape:connector-curvature="0" /><path
           d="m 734,391.8 c 6.1,1 7.7,-8.5 1.6,-9.5 -6.1,-1 -7.7,8.5 -1.6,9.5 z"
           id="path195"
           inkscape:connector-curvature="0" /><path
           d="m 748.4,389.9 c -0.7,2.3 0.1,5 2.7,6 2.6,0.9 4.9,-0.5 5.9,-2.8 1,-2.1 0.6,-5.2 -2.6,-6.3 -3.1,-1.2 -5.4,0.8 -6,3.1 z"
           id="path197"
           inkscape:connector-curvature="0" /><path
           d="m 766.2,404.1 c 2.2,1.7 4.8,0.9 6.5,-1 1.6,-1.8 2,-4.7 -0.7,-6.7 -2.7,-2 -5.4,-0.8 -6.7,1.2 -1.3,2 -1.4,4.8 0.9,6.5 z"
           id="path199"
           inkscape:connector-curvature="0" /><path
           d="m 785.9,410.3 c -2,-2.6 -4.9,-2.3 -6.7,-0.7 -1.8,1.6 -2.7,4.3 -1,6.5 3.1,4.5 11.6,-0.3 7.7,-5.8 z"
           id="path201"
           inkscape:connector-curvature="0" /><path
           d="m 786.5,431.2 c 1,2.6 3.7,3.3 6,2.6 2.3,-0.7 4.2,-3 3,-6.1 -2.6,-6.2 -11.2,-1.6 -9,3.5 z"
           id="path203"
           inkscape:connector-curvature="0" /><path
           d="m 799.9,446.9 c -0.2,-3.3 -3,-4.5 -5.4,-4.1 -2.4,0.4 -4.4,2.2 -4.2,5 0.3,2.8 2.6,4.2 5.1,4.2 2.3,-0.1 4.8,-1.8 4.5,-5.1 z"
           id="path205"
           inkscape:connector-curvature="0" /><path
           d="m 798.9,466.8 c 0.3,-1.6 -0.1,-2.9 -0.8,-3.9 -0.8,-0.9 -2,-1.5 -3.2,-1.6 -1.2,-0.1 -2.4,0.1 -3.4,0.7 -1,0.6 -1.8,1.5 -2,2.9 -1.3,5.4 7.8,8.5 9.4,1.9 z"
           id="path207"
           inkscape:connector-curvature="0" /><path
           d="m 783.8,481 c -2.7,4.8 5.2,10.3 8.5,4.5 1.5,-3 0,-5.4 -2.3,-6.4 -2.2,-1 -5,-0.7 -6.2,1.9 z"
           id="path209"
           inkscape:connector-curvature="0" /><path
           d="m 780.7,501.6 c 2.2,-2.4 1.5,-5.2 -0.4,-6.7 -1.8,-1.5 -4.6,-2 -6.6,0.1 -4.2,4.3 2.6,11.1 7,6.6 z"
           id="path211"
           inkscape:connector-curvature="0" /><path
           d="m 760.8,508.2 c -4.3,4.4 2.6,11.2 6.9,6.7 4.3,-4.4 -2.6,-11.1 -6.9,-6.7 z"
           id="path213"
           inkscape:connector-curvature="0" /><path
           d="m 747.6,521.6 c -4.3,4.4 2.6,11.2 6.9,6.7 4.3,-4.3 -2.5,-11.1 -6.9,-6.7 z"
           id="path215"
           inkscape:connector-curvature="0" /><path
           d="m 741.5,541.7 c 4.3,-4.4 -2.6,-11.2 -6.9,-6.7 -4.3,4.3 2.6,11.1 6.9,6.7 z"
           id="path217"
           inkscape:connector-curvature="0" /><path
           d="m 728.4,555.1 c 4.3,-4.4 -2.6,-11.2 -6.9,-6.7 -4.3,4.4 2.5,11.1 6.9,6.7 z"
           id="path219"
           inkscape:connector-curvature="0" /><path
           d="m 715.4,568.4 c 4.3,-4.4 -2.6,-11.2 -6.9,-6.7 -4.3,4.4 2.5,11.1 6.9,6.7 z"
           id="path221"
           inkscape:connector-curvature="0" /><path
           d="m 695.3,575.2 c -2.3,2.4 -1.5,5.3 0.4,6.8 1.9,1.5 4.6,1.9 6.6,-0.2 4.1,-4.3 -2.6,-11.2 -7,-6.6 z"
           id="path223"
           inkscape:connector-curvature="0" /><path
           d="m 683.6,591.5 c -1.5,3 0,5.5 2.3,6.4 2.2,0.9 5,0.5 6.3,-2 1.4,-2.5 0,-5 -2,-6.3 -2,-1.3 -4.9,-1.1 -6.6,1.9 z"
           id="path225"
           inkscape:connector-curvature="0" /><path
           d="m 676.9,610.6 c -0.6,3.3 1.6,5.3 4,5.6 2.4,0.3 4.9,-0.9 5.5,-3.7 0.6,-2.8 -1.4,-4.8 -3.7,-5.5 -2.3,-0.7 -5,0.3 -5.8,3.6 z"
           id="path227"
           inkscape:connector-curvature="0" /><path
           d="m 685.4,629.8 c -0.2,-2.8 -2.6,-4.3 -5,-4.3 -2.4,0 -4.8,1.7 -4.6,5.1 0.8,6.8 10.3,4.8 9.6,-0.8 z"
           id="path229"
           inkscape:connector-curvature="0" /><path
           d="m 688,648.2 c -0.9,-6.1 -10.4,-4.7 -9.5,1.4 0.9,6.1 10.4,4.7 9.5,-1.4 z"
           id="path231"
           inkscape:connector-curvature="0" /><path
           d="m 681.2,668 c 0.9,6.1 10.4,4.7 9.5,-1.4 -0.9,-6.1 -10.4,-4.7 -9.5,1.4 z"
           id="path233"
           inkscape:connector-curvature="0" /><path
           d="m 683.9,686.6 c 0.9,6.1 10.4,4.7 9.5,-1.4 -0.9,-6.1 -10.4,-4.7 -9.5,1.4 z"
           id="path235"
           inkscape:connector-curvature="0" /><path
           d="m 686.6,705 c 0.9,6.1 10.4,4.7 9.5,-1.4 -0.9,-6.1 -10.4,-4.7 -9.5,1.4 z"
           id="path237"
           inkscape:connector-curvature="0" /><path
           d="m 689.3,723.6 c 0.9,6.1 10.4,4.7 9.5,-1.4 -0.8,-6.1 -10.4,-4.7 -9.5,1.4 z"
           id="path239"
           inkscape:connector-curvature="0" /><path
           d="m 692.1,742 c 0.2,1.5 1,2.6 1.9,3.1 1,0.6 2.2,0.9 3.4,0.7 1.2,-0.1 2.4,-0.6 3.2,-1.6 0.8,-0.9 1.3,-2.2 1,-3.7 -0.9,-6 -10.4,-4.7 -9.5,1.5 z"
           id="path241"
           inkscape:connector-curvature="0" /><path
           d="m 702.3,760.3 c 0.4,-3.3 -2.2,-5 -4.5,-5.1 -2.5,0 -4.7,1.3 -5.1,4.1 -0.2,2.8 1.8,4.6 4.2,5 2.3,0.5 5.1,-0.7 5.4,-4 z"
           id="path243"
           inkscape:connector-curvature="0" /><path
           d="m 691.3,781.9 c 2.1,1.1 5.1,0.7 6.3,-2.4 1.3,-3.1 -0.6,-5.4 -2.9,-6.1 -2.3,-0.7 -4.9,-0.1 -6,2.5 -1,2.6 0.4,4.8 2.6,6 z"
           id="path245"
           inkscape:connector-curvature="0" /><path
           d="m 687.5,796.7 c 1,-1.3 1.3,-2.7 1,-3.8 -0.3,-1.2 -1.1,-2.2 -2.1,-2.9 -1,-0.7 -2.2,-1 -3.3,-1 -1.2,0.1 -2.3,0.5 -3.2,1.7 -3.5,4.2 3.3,11.1 7.6,6 z"
           id="path247"
           inkscape:connector-curvature="0" /><path
           d="m 667.7,802.5 c -2.3,1.6 -2.2,4.4 -1,6.5 1.3,2.1 3.9,3.2 6.6,1.4 5.3,-4.2 -1.2,-11.3 -5.6,-7.9 z"
           id="path249"
           inkscape:connector-curvature="0" /><path
           d="m 652.4,810.5 c -2.6,1 -3.4,3.6 -2.7,5.9 0.6,2.3 2.9,4.3 6,3.1 3.1,-1.1 3.6,-4.1 2.6,-6.2 -1,-2.2 -3.2,-3.7 -5.9,-2.8 z"
           id="path251"
           inkscape:connector-curvature="0" /><path
           d="m 636.4,823.6 c 3.3,-0.2 4.6,-2.9 4.3,-5.3 -0.3,-2.4 -2.1,-4.5 -4.9,-4.4 -2.8,0.2 -4.2,2.5 -4.3,4.9 0,2.4 1.6,5 4.9,4.8 z"
           id="path253"
           inkscape:connector-curvature="0" /><path
           d="m 622.1,818.1 c 0.3,-2.4 -0.7,-4.9 -3.4,-5.6 -2.7,-0.6 -4.8,1.2 -5.5,3.5 -0.7,2.3 0.1,5.2 3.3,5.9 3.2,0.8 5.2,-1.4 5.6,-3.8 z"
           id="path255"
           inkscape:connector-curvature="0" /><path
           d="m 602.5,806.4 c -5.5,-2.7 -9.8,5.9 -4.3,8.6 2.7,1.4 5.3,-0.1 6.3,-2.3 1,-2.2 0.8,-4.8 -2,-6.3 z"
           id="path257"
           inkscape:connector-curvature="0" /><path
           d="m 581.4,806.7 c 5.5,2.7 9.8,-5.9 4.3,-8.6 -5.6,-2.8 -9.8,5.9 -4.3,8.6 z"
           id="path259"
           inkscape:connector-curvature="0" /><path
           d="m 564.7,798.5 c 5.5,2.7 9.8,-5.9 4.3,-8.6 -5.5,-2.8 -9.8,5.8 -4.3,8.6 z"
           id="path261"
           inkscape:connector-curvature="0" /><path
           d="m 552.2,781.5 c -5.5,-2.7 -9.8,5.9 -4.3,8.6 5.5,2.8 9.8,-5.9 4.3,-8.6 z"
           id="path263"
           inkscape:connector-curvature="0" /><path
           d="m 535.5,773.2 c -5.5,-2.7 -9.8,5.9 -4.3,8.6 5.6,2.8 9.9,-5.8 4.3,-8.6 z"
           id="path265"
           inkscape:connector-curvature="0" /><path
           d="m 514.4,773.5 c 5.5,2.7 9.8,-5.9 4.3,-8.6 -5.6,-2.8 -9.9,5.9 -4.3,8.6 z"
           id="path267"
           inkscape:connector-curvature="0" /><path
           d="m 501.6,756.6 c -3.1,-1.3 -5.5,0.5 -6.2,2.8 -0.7,2.3 -0.1,5 2.6,6.1 5.1,2.3 9.9,-6.1 3.6,-8.9 z"
           id="path269"
           inkscape:connector-curvature="0" /><path
           d="m 481.9,751.6 c -3.4,-0.3 -5.1,2 -5.2,4.5 -0.1,2.4 1.3,4.8 4.1,5.1 2.8,0.4 4.7,-1.8 5.1,-4.1 0.6,-2.4 -0.6,-5.1 -4,-5.5 z"
           id="path271"
           inkscape:connector-curvature="0" /><path
           d="m 458.2,758 c 0.6,2.3 2.6,4.3 5.4,3.8 2.8,-0.4 4,-3 3.8,-5.4 -0.2,-2.4 -2.1,-4.6 -5.5,-4.1 -3.3,0.6 -4.3,3.3 -3.7,5.7 z"
           id="path273"
           inkscape:connector-curvature="0" /><path
           d="m 446.9,767.2 c 2.6,-1.2 3,-4 2.1,-6.2 -0.9,-2.3 -3.3,-3.9 -6.4,-2.4 -5.5,2.7 -1.2,11.3 4.3,8.6 z"
           id="path275"
           inkscape:connector-curvature="0" /><path
           d="m 426,766.8 c -5.5,2.7 -1.3,11.4 4.3,8.6 5.5,-2.7 1.2,-11.3 -4.3,-8.6 z"
           id="path277"
           inkscape:connector-curvature="0" /><path
           d="m 413.4,783.8 c 5.5,-2.7 1.3,-11.4 -4.3,-8.6 -5.5,2.7 -1.2,11.3 4.3,8.6 z"
           id="path279"
           inkscape:connector-curvature="0" /><path
           d="m 396.7,792.1 c 5.5,-2.7 1.3,-11.4 -4.3,-8.6 -5.5,2.7 -1.2,11.3 4.3,8.6 z"
           id="path281"
           inkscape:connector-curvature="0" /><path
           d="m 375.6,791.8 c -5.5,2.7 -1.3,11.4 4.3,8.6 5.5,-2.7 1.3,-11.4 -4.3,-8.6 z"
           id="path283"
           inkscape:connector-curvature="0" /><path
           d="m 359,800 c -5.5,2.7 -1.3,11.4 4.3,8.6 5.5,-2.7 1.2,-11.3 -4.3,-8.6 z"
           id="path285"
           inkscape:connector-curvature="0" /><path
           d="m 342.2,808.3 c -2.5,1.2 -3,3.9 -2.2,6.2 0.9,2.3 3.3,4 6.3,2.6 5.8,-2.9 1.2,-11.4 -4.1,-8.8 z"
           id="path287"
           inkscape:connector-curvature="0" /><path
           d="m 325.9,813.3 c -1.4,0.2 -2.4,0.9 -3,1.9 -0.6,1 -0.9,2.2 -0.8,3.4 0.1,1.2 0.6,2.4 1.5,3.2 0.9,0.8 2.2,1.2 3.8,1 6.7,-1.3 3.9,-10.5 -1.5,-9.5 z"
           id="path289"
           inkscape:connector-curvature="0" /><path
           d="m 308.8,813.6 c -2.8,-0.3 -4.6,1.6 -5.2,4 -0.5,2.3 0.6,5.1 3.9,5.5 3.3,0.5 5.1,-2 5.2,-4.3 0.1,-2.5 -1.2,-4.8 -3.9,-5.2 z"
           id="path291"
           inkscape:connector-curvature="0" /><path
           d="m 288.5,817.8 c 3,1.3 5.4,-0.5 6.2,-2.7 0.8,-2.3 0.2,-5 -2.3,-6.1 -2.6,-1.1 -4.9,0.3 -6.1,2.4 -1.1,2.1 -0.8,5.2 2.2,6.4 z"
           id="path293"
           inkscape:connector-curvature="0" /><path
           d="m 271.6,807.5 c 2.6,2 5.3,1.1 6.7,-0.9 1.4,-1.9 1.6,-4.8 -0.6,-6.5 -4.2,-3.7 -11.2,2.9 -6.1,7.4 z"
           id="path295"
           inkscape:connector-curvature="0" /><path
           d="m 263.1,785.6 c -1.1,-0.2 -2.4,0.1 -3.4,0.7 -1,0.6 -1.9,1.6 -2.2,2.7 -0.3,1.1 -0.1,2.5 0.8,3.9 4,5.4 11.2,-1.1 7.9,-5.5 -0.8,-1.1 -1.9,-1.7 -3.1,-1.8 z"
           id="path297"
           inkscape:connector-curvature="0" /><path
           d="m 258.5,772.1 c -0.9,-2.6 -3.5,-3.5 -5.9,-2.9 -2.3,0.6 -4.4,2.8 -3.3,5.9 0.5,1.6 1.5,2.5 2.6,2.9 1.1,0.4 2.4,0.3 3.5,-0.1 2.4,-1 3.9,-3.1 3.1,-5.8 z"
           id="path299"
           inkscape:connector-curvature="0" /><path
           d="m 251.1,760.1 c 2.4,-0.3 4.5,-1.9 4.5,-4.7 -0.2,-2.8 -2.4,-4.3 -4.8,-4.4 -2.4,-0.1 -5,1.4 -4.8,4.7 0,3.3 2.7,4.7 5.1,4.4 z"
           id="path301"
           inkscape:connector-curvature="0" /><path
           d="m 257.1,737.6 c 0.9,-6.1 -8.6,-7.5 -9.5,-1.4 -0.9,6.1 8.6,7.6 9.5,1.4 z"
           id="path303"
           inkscape:connector-curvature="0" /><path
           d="m 259.8,719.3 c 0.9,-6.1 -8.6,-7.5 -9.5,-1.4 -0.9,6.1 8.6,7.5 9.5,1.4 z"
           id="path305"
           inkscape:connector-curvature="0" /><path
           d="m 262.6,700.6 c 0.9,-6.1 -8.6,-7.5 -9.5,-1.4 -1,6.2 8.6,7.6 9.5,1.4 z"
           id="path307"
           inkscape:connector-curvature="0" /><path
           d="m 265.3,682.3 c 0.9,-6.1 -8.6,-7.5 -9.5,-1.4 -1,6.1 8.6,7.5 9.5,1.4 z"
           id="path309"
           inkscape:connector-curvature="0" /><path
           d="m 258.5,662.2 c -0.9,6.1 8.6,7.5 9.5,1.4 0.9,-6.1 -8.6,-7.5 -9.5,-1.4 z"
           id="path311"
           inkscape:connector-curvature="0" /><path
           d="m 261.2,643.9 c -0.9,6.1 8.6,7.5 9.5,1.4 0.9,-6.1 -8.6,-7.6 -9.5,-1.4 z"
           id="path313"
           inkscape:connector-curvature="0" /><path
           d="m 273,625.9 c 0,-3.4 -2.5,-4.9 -4.9,-4.8 -2.4,0.1 -4.7,1.7 -4.7,4.6 -0.3,5.6 9.2,7.1 9.6,0.2 z"
           id="path315"
           inkscape:connector-curvature="0" /><path
           d="m 261.2,608.5 c 0.7,2.8 3.4,3.7 5.7,3.3 2.4,-0.4 4.4,-2.5 3.6,-5.8 -0.9,-3.2 -3.7,-4 -6,-3.2 -2.2,0.8 -4,3 -3.3,5.7 z"
           id="path317"
           inkscape:connector-curvature="0" /><path
           d="m 255.9,586 c -1.9,1.4 -3.1,4 -1.5,6.4 1.4,2.5 4.3,2.7 6.4,1.6 2.2,-1.1 3.5,-3.7 1.8,-6.6 -1.8,-2.9 -4.7,-2.9 -6.7,-1.4 z"
           id="path319"
           inkscape:connector-curvature="0" /><path
           d="m 243.3,578.7 c 2.2,2.2 4.9,1.6 6.7,0 1.8,-1.6 2.4,-4.5 0.2,-6.7 -4.4,-4.4 -11.2,2.3 -6.9,6.7 z"
           id="path321"
           inkscape:connector-curvature="0" /><path
           d="m 230.1,565.3 c 4.3,4.4 11.2,-2.3 6.9,-6.7 -4.3,-4.5 -11.2,2.3 -6.9,6.7 z"
           id="path323"
           inkscape:connector-curvature="0" /><path
           d="m 217.1,552 c 4.3,4.4 11.2,-2.3 6.9,-6.7 -4.3,-4.5 -11.2,2.3 -6.9,6.7 z"
           id="path325"
           inkscape:connector-curvature="0" /><path
           d="m 210.9,531.8 c -4.3,-4.4 -11.2,2.3 -6.9,6.7 4.3,4.5 11.2,-2.3 6.9,-6.7 z"
           id="path327"
           inkscape:connector-curvature="0" /><path
           d="m 191,525.3 c 4.3,4.4 11.2,-2.3 6.9,-6.7 -4.4,-4.5 -11.2,2.2 -6.9,6.7 z"
           id="path329"
           inkscape:connector-curvature="0" /><path
           d="m 177.8,511.8 c 4.3,4.4 11.2,-2.3 6.9,-6.7 -4.3,-4.4 -11.2,2.3 -6.9,6.7 z"
           id="path331"
           inkscape:connector-curvature="0" /><path
           d="m 164.8,498.2 c 4.5,5 11.1,-2.1 7.4,-6.2 -3.5,-4.4 -11.6,0.9 -7.4,6.2 z"
           id="path333"
           inkscape:connector-curvature="0" /><path
           d="m 163,477.4 c -1,-2.6 -3.9,-3.1 -6.1,-2.3 -2.3,0.8 -4,3.1 -2.7,6.2 2.9,6 11.2,1 8.8,-3.9 z"
           id="path335"
           inkscape:connector-curvature="0" /><path
           d="m 158.5,461 c -0.2,-1.4 -0.9,-2.4 -1.8,-3.1 -0.9,-0.7 -2.1,-1 -3.4,-0.9 -1.2,0.1 -2.4,0.5 -3.3,1.4 -0.8,0.9 -1.3,2.2 -1.1,3.8 1.1,6.7 10.5,4.2 9.6,-1.2 z"
           id="path337"
           inkscape:connector-curvature="0" /><path
           d="m 153.4,447.6 c 2.4,0.2 4.8,-1 5.3,-3.8 0.4,-2.8 -1.5,-4.7 -3.9,-5.2 -2.3,-0.5 -5.2,0.5 -5.6,3.8 -0.6,3.2 1.9,5 4.2,5.2 z"
           id="path339"
           inkscape:connector-curvature="0" /><path
           d="m 157.5,429.7 c 2.2,0.8 5,0.3 6.1,-2.2 2.4,-4.9 -5.8,-10 -8.8,-4 -1.3,3 0.4,5.4 2.7,6.2 z"
           id="path341"
           inkscape:connector-curvature="0" /><path
           d="m 172.9,412.9 c 1.9,-2.1 1.1,-4.8 -0.5,-6.5 -1.7,-1.7 -4.5,-2.2 -6.8,0.2 -4.3,5.3 3.8,10.6 7.3,6.3 z"
           id="path343"
           inkscape:connector-curvature="0" /><path
           d="m 187.6,398.8 c 0.2,-1.1 -0.1,-2.4 -0.6,-3.4 -0.6,-1.1 -1.5,-1.9 -2.7,-2.3 -1.1,-0.4 -2.5,-0.2 -3.9,0.6 -2.8,1.8 -2.6,4.8 -1.1,6.7 1.5,1.9 4,2.9 6.4,1.4 1.2,-0.8 1.7,-1.9 1.9,-3 z"
           id="path345"
           inkscape:connector-curvature="0" /><path
           d="m 204,392.3 c 0.5,-1 0.6,-2.3 0.3,-3.5 -0.3,-1.2 -0.9,-2.3 -1.9,-3 -1,-0.7 -2.3,-0.9 -3.9,-0.5 -3.2,0.9 -3.8,3.9 -3,6.1 0.9,2.3 3,3.9 5.7,3.2 1.4,-0.4 2.3,-1.3 2.8,-2.3 z"
           id="path347"
           inkscape:connector-curvature="0" /><path
           d="m 218.8,391.1 c 6.1,-1 4.5,-10.5 -1.6,-9.5 -6,1 -4.4,10.5 1.6,9.5 z"
           id="path349"
           inkscape:connector-curvature="0" /><path
           d="m 235.8,378.4 c -6.1,1 -4.5,10.5 1.6,9.5 6.1,-1 4.5,-10.5 -1.6,-9.5 z"
           id="path351"
           inkscape:connector-curvature="0" /><path
           d="m 255.7,384.8 c 6.1,-1 4.5,-10.5 -1.6,-9.5 -6.1,1.1 -4.5,10.6 1.6,9.5 z"
           id="path353"
           inkscape:connector-curvature="0" /><path
           d="m 274.3,381.7 c 6.1,-1 4.5,-10.5 -1.6,-9.5 -6.1,1 -4.5,10.5 1.6,9.5 z"
           id="path355"
           inkscape:connector-curvature="0" /><path
           d="m 292.6,378.6 c 6.1,-1 4.5,-10.5 -1.6,-9.5 -6.1,1 -4.5,10.5 1.6,9.5 z"
           id="path357"
           inkscape:connector-curvature="0" /><path
           d="m 309.5,365.9 c -6.1,1 -4.5,10.5 1.6,9.5 6.1,-1 4.5,-10.5 -1.6,-9.5 z"
           id="path359"
           inkscape:connector-curvature="0" /><path
           d="m 324.1,367.9 c 0.6,2.3 2.9,4.2 6.1,3.1 3.2,-1.2 3.7,-4.1 2.7,-6.3 -1,-2.2 -3.3,-3.8 -6,-2.8 -2.8,1 -3.5,3.7 -2.8,6 z"
           id="path361"
           inkscape:connector-curvature="0" /><path
           d="m 348.8,354.6 c -1.6,-1.8 -4.2,-2.7 -6.5,-1 -2.3,1.6 -2.3,4.5 -1,6.5 1.3,2.1 4,3.2 6.7,1.2 2.7,-1.9 2.4,-4.8 0.8,-6.7 z"
           id="path363"
           inkscape:connector-curvature="0" /><path
           d="m 354.7,341.5 c -1.8,2.2 -0.9,4.9 0.8,6.5 1.8,1.6 4.7,2 6.8,-0.6 2,-2.7 0.9,-5.4 -1.1,-6.8 -1.9,-1.2 -4.8,-1.4 -6.5,0.9 z"
           id="path365"
           inkscape:connector-curvature="0" /><path
           d="m 363.9,326 c -2.9,5.5 5.7,9.9 8.5,4.5 2.9,-5.5 -5.6,-10 -8.5,-4.5 z"
           id="path367"
           inkscape:connector-curvature="0" /><path
           d="m 372.5,309.5 c -2.9,5.5 5.7,9.9 8.5,4.5 2.9,-5.5 -5.6,-9.9 -8.5,-4.5 z"
           id="path369"
           inkscape:connector-curvature="0" /><path
           d="m 389.8,297.3 c 2.9,-5.5 -5.7,-9.9 -8.5,-4.5 -2.9,5.5 5.6,10 8.5,4.5 z"
           id="path371"
           inkscape:connector-curvature="0" /><path
           d="m 398.4,280.9 c 2.9,-5.5 -5.7,-9.9 -8.5,-4.5 -2.9,5.5 5.7,10 8.5,4.5 z"
           id="path373"
           inkscape:connector-curvature="0" /><path
           d="m 407.1,264.2 c 2.9,-5.5 -5.7,-9.9 -8.5,-4.5 -2.9,5.5 5.7,10 8.5,4.5 z"
           id="path375"
           inkscape:connector-curvature="0" /><path
           d="m 407.2,243.3 c -2.9,5.5 5.7,9.9 8.5,4.5 2.9,-5.5 -5.6,-10 -8.5,-4.5 z"
           id="path377"
           inkscape:connector-curvature="0" /><path
           d="m 424.6,232 c 3.3,-4.4 -3.8,-10.9 -7.9,-5.6 -1.8,2.8 -0.7,5.4 1.4,6.6 2.1,1.3 5,1.3 6.5,-1 z"
           id="path379"
           inkscape:connector-curvature="0" /><path
           d="m 430.3,212.1 c -2.6,2.1 -2.2,5 -0.5,6.8 1.6,1.7 4.3,2.6 6.5,0.8 4.4,-3.3 -0.6,-11.6 -6,-7.6 z"
           id="path381"
           inkscape:connector-curvature="0" /><path
           d="m 451.1,211 c 2.6,-1 3.2,-3.8 2.5,-6 -0.7,-2.3 -3,-4.1 -6.1,-2.9 -6.2,2.7 -1.4,11.1 3.6,8.9 z"
           id="path383"
           inkscape:connector-curvature="0" /><path
           d="m 467.6,206.9 c 2.8,-0.3 4.1,-2.7 4.1,-5.1 -0.1,-2.4 -1.8,-4.8 -5.1,-4.5 -3.3,0.3 -4.5,3.1 -4,5.4 0.4,2.4 2.2,4.4 5,4.2 z"
           id="path385"
           inkscape:connector-curvature="0" /><path
           d="m 486.5,197.9 c -3.3,-0.6 -5.1,1.7 -5.4,4.1 -0.2,2.4 1,4.9 3.7,5.4 2.8,0.5 4.7,-1.4 5.3,-3.8 0.7,-2.3 -0.3,-5.1 -3.6,-5.7 z"
           id="path387"
           inkscape:connector-curvature="0" /><path
           d="m 501.1,212.6 c 4.9,2.6 10.2,-5.5 4.2,-8.7 -3,-1.4 -5.4,0.2 -6.3,2.5 -0.9,2.2 -0.5,5 2.1,6.2 z"
           id="path389"
           inkscape:connector-curvature="0" /><path
           d="m 521.8,215.1 c -5.1,-4.4 -10.7,3.6 -6.5,7.1 2,1.9 4.8,1.3 6.5,-0.3 1.8,-1.7 2.4,-4.5 0,-6.8 z"
           id="path391"
           inkscape:connector-curvature="0" /><path
           d="m 526.1,235.4 c 2.7,4.8 11.5,0.8 8.2,-5 -3.7,-5.7 -11.2,0.4 -8.2,5 z"
           id="path393"
           inkscape:connector-curvature="0" /></g></g></switch></svg>