<?xml version="1.0" encoding="UTF-8" standalone="no"?>
<svg
   xmlns:dc="http://purl.org/dc/elements/1.1/"
   xmlns:cc="http://creativecommons.org/ns#"
   xmlns:rdf="http://www.w3.org/1999/02/22-rdf-syntax-ns#"
   xmlns:svg="http://www.w3.org/2000/svg"
   xmlns="http://www.w3.org/2000/svg"
   xmlns:sodipodi="http://sodipodi.sourceforge.net/DTD/sodipodi-0.dtd"
   xmlns:inkscape="http://www.inkscape.org/namespaces/inkscape"
   version="1.1"
   id="Layer_1"
   x="0px"
   y="0px"
   viewBox="0 0 1000 1000"
   width="100%"
   height="100%"
   style="enable-background:new 0 0 1000 1000;"
   xml:space="preserve"
   ><switch
     id="switch3"
     transform="translate(29.4,18.5)"><g
       id="g5"><g
         id="g7"><path
           d="m 746.1,489.2 c -0.7,-0.1 -1.4,-0.1 -2.1,0 l -12.4,2.1 c -1.9,0.3 -4,0.4 -5.8,1 -1.1,0.4 -2.1,1.1 -2.3,2.3 -0.3,1.3 0.7,2.3 1.8,2.9 0.8,0.4 1.6,0.8 2.4,1.1 0.6,0.3 1.2,0.5 1.8,0.8 0.2,0.1 0.7,0.4 1.1,0.7 -0.1,0.1 -0.2,0.1 -0.3,0.2 -0.1,0.1 -0.4,0.2 -0.5,0.2 -0.5,0.2 -1,0.4 -1.6,0.5 -0.9,0.2 -1.7,0.4 -2.6,0.7 -1.2,0.4 -2.5,0.9 -2.9,2.2 -0.8,3 4,4 6,4.6 4,1.2 8,2.5 12,3.8 1.8,0.6 3.4,1.1 5.3,0.7 1.2,-0.3 2.5,-0.8 3.4,-1.8 1.1,-1.2 1.2,-3 1,-4.6 -0.2,-1.7 -0.7,-3.4 -0.6,-5.2 0.1,-1.6 0.7,-3.1 1.2,-4.6 0.6,-2.1 0.7,-4.5 -0.9,-6.1 -1,-0.8 -2.5,-1.4 -4,-1.5 z"
           id="path9"
           inkscape:connector-curvature="0" /><path
           d="m 742.6,526.6 c -0.7,-0.2 -1.4,-0.3 -2,-0.2 l -12.6,0.4 c -1.9,0 -4,-0.1 -5.9,0.2 -1.1,0.2 -2.3,0.8 -2.7,1.9 -0.4,1.3 0.5,2.4 1.5,3.1 0.7,0.5 1.5,1 2.3,1.5 0.6,0.3 1.1,0.7 1.7,1.1 0.2,0.1 0.6,0.5 1,0.8 -0.1,0.1 -0.2,0.1 -0.3,0.1 -0.2,0.1 -0.4,0.1 -0.5,0.2 -0.5,0.1 -1.1,0.2 -1.6,0.3 -0.9,0.1 -1.8,0.2 -2.7,0.4 -1.2,0.2 -2.7,0.6 -3.2,1.8 -1.2,2.9 3.4,4.5 5.3,5.4 3.8,1.8 7.6,3.6 11.4,5.5 1.7,0.8 3.2,1.6 5.1,1.4 1.3,-0.1 2.6,-0.4 3.6,-1.3 1.2,-1.1 1.5,-2.8 1.6,-4.4 0.1,-1.7 -0.2,-3.5 0.2,-5.2 0.4,-1.5 1.1,-3 1.7,-4.4 0.8,-2 1.3,-4.4 -0.1,-6.2 -1,-1.3 -2.4,-2 -3.8,-2.4 z"
           id="path11"
           inkscape:connector-curvature="0" /><path
           d="m 734,563.3 c -0.6,-0.3 -1.3,-0.4 -2,-0.5 l -12.5,-1.3 c -1.9,-0.2 -4,-0.7 -5.9,-0.6 -1.2,0.1 -2.4,0.5 -2.9,1.5 -0.6,1.2 0.1,2.4 1,3.3 0.6,0.6 1.4,1.2 2.1,1.8 0.5,0.4 1.1,0.8 1.5,1.3 0.2,0.2 0.6,0.5 0.9,1 -0.1,0 -0.2,0.1 -0.3,0.1 -0.2,0.1 -0.4,0.1 -0.6,0.1 -0.5,0.1 -1.1,0.1 -1.6,0.1 -0.9,0 -1.8,0 -2.7,0 -1.2,0 -2.7,0.2 -3.4,1.3 -1.7,2.7 2.7,4.9 4.5,6 3.5,2.3 7,4.6 10.5,7 1.6,1.1 2.9,2 4.9,2.1 1.3,0.1 2.6,-0.1 3.7,-0.8 1.4,-0.9 2,-2.6 2.3,-4.1 0.3,-1.7 0.4,-3.4 0.9,-5.1 0.5,-1.5 1.5,-2.8 2.3,-4.1 1.1,-1.9 2,-4.2 0.9,-6.1 -1,-1.6 -2.3,-2.5 -3.6,-3 z"
           id="path13"
           inkscape:connector-curvature="0" /><path
           d="m 720.3,598.3 c -0.6,-0.3 -1.2,-0.6 -1.9,-0.8 l -12.2,-3 c -1.9,-0.5 -3.9,-1.2 -5.8,-1.4 -1.2,-0.1 -2.4,0.2 -3.1,1.1 -0.8,1.1 -0.2,2.4 0.5,3.4 0.5,0.7 1.2,1.4 1.8,2 0.5,0.5 0.9,1 1.3,1.5 0.1,0.2 0.5,0.6 0.7,1.1 -0.1,0 -0.2,0 -0.3,0 -0.2,0 -0.4,0 -0.6,0 -0.5,0 -1.1,-0.1 -1.6,-0.1 -0.9,-0.1 -1.8,-0.3 -2.7,-0.4 -1.2,-0.1 -2.7,-0.1 -3.5,0.9 -2,2.4 2,5.2 3.6,6.6 3.2,2.7 6.3,5.5 9.5,8.3 1.4,1.3 2.6,2.4 4.6,2.8 1.2,0.2 2.6,0.3 3.8,-0.3 1.5,-0.7 2.3,-2.3 2.8,-3.7 0.6,-1.6 0.7,-3.4 1.5,-5 0.7,-1.4 1.9,-2.5 2.9,-3.8 1.4,-1.7 2.6,-3.8 1.7,-6 -0.5,-1.3 -1.7,-2.4 -3,-3.2 z"
           id="path15"
           inkscape:connector-curvature="0" /><path
           d="m 702,631.2 c -0.5,-0.4 -1.1,-0.8 -1.8,-1 l -11.7,-4.6 c -1.8,-0.7 -3.6,-1.7 -5.5,-2.1 -1.1,-0.2 -2.4,-0.1 -3.2,0.7 -0.9,1 -0.6,2.3 0,3.4 0.4,0.8 1,1.5 1.5,2.2 0.4,0.5 0.8,1.1 1.1,1.7 0.1,0.2 0.4,0.7 0.6,1.2 -0.1,0 -0.2,0 -0.3,0 -0.2,0 -0.4,0 -0.6,-0.1 -0.5,-0.1 -1.1,-0.2 -1.6,-0.4 -0.9,-0.2 -1.7,-0.5 -2.6,-0.7 -1.2,-0.3 -2.6,-0.5 -3.6,0.4 -2.2,2.2 1.3,5.4 2.7,7 2.8,3.1 5.5,6.3 8.2,9.5 1.2,1.5 2.3,2.7 4.1,3.4 1.2,0.4 2.5,0.7 3.8,0.3 1.5,-0.5 2.7,-1.9 3.3,-3.3 0.8,-1.6 1.2,-3.3 2.2,-4.7 0.9,-1.3 2.2,-2.3 3.4,-3.3 1.7,-1.4 3,-3.5 2.4,-5.7 -0.2,-1.7 -1.2,-3 -2.4,-3.9 z"
           id="path17"
           inkscape:connector-curvature="0" /><path
           d="m 679.5,661.3 c -0.5,-0.5 -1,-0.9 -1.6,-1.3 L 667,653.8 c -1.7,-1 -3.4,-2.2 -5.2,-2.9 -1.1,-0.4 -2.4,-0.5 -3.2,0.3 -1,0.9 -0.9,2.2 -0.4,3.4 0.3,0.8 0.8,1.6 1.2,2.4 0.3,0.6 0.6,1.2 0.9,1.8 0.1,0.2 0.3,0.7 0.4,1.2 -0.1,0 -0.2,0 -0.3,-0.1 -0.2,0 -0.4,-0.1 -0.5,-0.2 -0.5,-0.2 -1,-0.4 -1.5,-0.6 -0.8,-0.4 -1.6,-0.8 -2.5,-1.1 -1.1,-0.4 -2.6,-0.9 -3.6,-0.1 -2.5,1.8 0.6,5.6 1.7,7.4 2.3,3.5 4.6,7 6.8,10.5 1,1.6 1.9,3 3.6,3.9 1.1,0.6 2.4,1 3.8,0.8 1.6,-0.2 2.8,-1.6 3.7,-2.9 1,-1.4 1.6,-3.1 2.8,-4.4 1.1,-1.2 2.5,-1.9 3.8,-2.8 1.8,-1.3 3.4,-3.1 3.1,-5.4 -0.3,-1.3 -1.1,-2.6 -2.1,-3.7 z"
           id="path19"
           inkscape:connector-curvature="0" /><path
           d="m 651.6,686.6 -10,-7.6 c -1.5,-1.2 -3,-2.6 -4.7,-3.6 -1,-0.5 -2.3,-0.8 -3.3,-0.2 -1.1,0.7 -1.1,2.1 -0.8,3.4 0.2,0.9 0.5,1.7 0.8,2.5 0.2,0.6 0.5,1.3 0.6,1.9 0.1,0.2 0.2,0.7 0.2,1.3 -0.1,0 -0.2,0 -0.3,-0.1 -0.2,0 -0.4,-0.2 -0.5,-0.2 -0.5,-0.2 -1,-0.5 -1.4,-0.8 -0.8,-0.5 -1.5,-1 -2.3,-1.4 -1.1,-0.6 -2.4,-1.2 -3.6,-0.6 -2.8,1.5 -0.2,5.6 0.7,7.5 1.8,3.8 3.6,7.6 5.4,11.4 0.8,1.7 1.4,3.2 3.1,4.4 1,0.7 2.3,1.3 3.6,1.3 1.6,-0.1 3,-1.2 4,-2.4 1.2,-1.3 2,-2.8 3.4,-3.9 1.2,-1 2.8,-1.5 4.1,-2.3 1.9,-1 3.8,-2.6 3.9,-4.9 0,-1.5 -0.6,-3 -1.5,-4.2 -0.4,-0.6 -0.9,-1.1 -1.4,-1.5 z"
           id="path21"
           inkscape:connector-curvature="0" /><path
           d="m 622,709.4 -8.9,-8.9 c -1.4,-1.4 -2.7,-3 -4.2,-4.2 -0.9,-0.7 -2.2,-1.1 -3.2,-0.6 -1.2,0.5 -1.4,2 -1.3,3.2 0.1,0.9 0.3,1.8 0.5,2.7 0.1,0.7 0.3,1.3 0.4,2 0,0.2 0.1,0.8 0,1.3 -0.1,0 -0.2,-0.1 -0.3,-0.2 -0.2,-0.1 -0.3,-0.2 -0.5,-0.3 -0.5,-0.3 -0.9,-0.6 -1.3,-1 -0.7,-0.6 -1.4,-1.2 -2.1,-1.7 -1,-0.7 -2.2,-1.5 -3.4,-1.1 -3,1.1 -1,5.5 -0.3,7.5 1.3,4 2.6,8 3.8,12.1 0.6,1.8 1,3.4 2.5,4.7 0.9,0.8 2.1,1.6 3.4,1.7 1.6,0.2 3.1,-0.8 4.3,-1.8 1.3,-1.1 2.4,-2.5 3.9,-3.4 1.4,-0.8 2.9,-1.2 4.4,-1.8 2,-0.7 4.1,-2 4.5,-4.3 0.3,-1.5 -0.2,-3 -0.9,-4.3 -0.4,-0.6 -0.8,-1.1 -1.3,-1.6 z"
           id="path23"
           inkscape:connector-curvature="0" /><path
           d="M 589.6,727.9 582,717.8 c -1.2,-1.6 -2.2,-3.4 -3.6,-4.7 -0.8,-0.8 -2,-1.4 -3.1,-1.1 -1.3,0.3 -1.7,1.7 -1.7,3 0,0.9 0.1,1.8 0.1,2.7 0.1,0.7 0.1,1.3 0.1,2 0,0.2 0,0.8 -0.1,1.3 -0.1,0 -0.2,-0.1 -0.3,-0.2 -0.2,-0.1 -0.3,-0.2 -0.4,-0.3 -0.4,-0.3 -0.8,-0.7 -1.2,-1.1 -0.6,-0.6 -1.2,-1.3 -1.8,-2 -0.9,-0.9 -2,-1.8 -3.3,-1.6 -3.1,0.6 -1.7,5.3 -1.4,7.4 0.7,4.1 1.4,8.3 2.1,12.4 0.3,1.9 0.5,3.5 1.8,5 0.8,1 1.8,1.9 3.1,2.2 1.6,0.4 3.2,-0.3 4.6,-1.1 1.5,-0.9 2.8,-2.1 4.3,-2.8 1.4,-0.7 3,-0.8 4.6,-1.2 2.1,-0.4 4.4,-1.4 5.1,-3.6 0.5,-1.4 0.3,-3 -0.3,-4.4 -0.3,-0.6 -0.6,-1.2 -1,-1.8 z"
           id="path25"
           inkscape:connector-curvature="0" /><path
           d="m 554.9,741.8 -6.1,-10.9 c -0.9,-1.7 -1.7,-3.6 -2.9,-5.2 -0.7,-0.9 -1.8,-1.7 -2.9,-1.5 -1.3,0.2 -1.9,1.5 -2.1,2.7 -0.2,0.9 -0.2,1.8 -0.3,2.7 0,0.7 -0.1,1.3 -0.2,2 0,0.2 -0.1,0.8 -0.3,1.3 -0.1,0 -0.2,-0.1 -0.3,-0.2 -0.1,-0.1 -0.3,-0.3 -0.4,-0.4 -0.4,-0.4 -0.7,-0.8 -1,-1.3 -0.5,-0.7 -1,-1.5 -1.5,-2.2 -0.7,-1 -1.7,-2.1 -3,-1.9 -3.2,0.1 -2.4,5 -2.4,7.1 0.2,4.2 0.3,8.4 0.4,12.6 0,1.9 0,3.6 1.1,5.2 0.7,1.1 1.5,2.1 2.8,2.6 1.5,0.6 3.2,0.1 4.7,-0.5 1.6,-0.7 3,-1.8 4.7,-2.3 1.5,-0.5 3.1,-0.4 4.7,-0.5 2.2,-0.1 4.6,-0.7 5.5,-2.8 0.6,-1.4 0.7,-3 0.3,-4.5 -0.2,-0.7 -0.5,-1.4 -0.8,-2 z"
           id="path27"
           inkscape:connector-curvature="0" /><path
           d="m 518.7,750.8 -4.6,-11.7 c -0.7,-1.8 -1.2,-3.8 -2.2,-5.5 -0.6,-1 -1.5,-1.8 -2.7,-1.8 -1.3,0 -2.1,1.2 -2.5,2.3 -0.3,0.8 -0.4,1.7 -0.6,2.6 -0.1,0.7 -0.3,1.3 -0.5,2 -0.1,0.2 -0.2,0.7 -0.5,1.2 -0.1,-0.1 -0.2,-0.1 -0.2,-0.3 -0.1,-0.1 -0.2,-0.3 -0.3,-0.5 -0.3,-0.5 -0.6,-0.9 -0.8,-1.4 -0.4,-0.8 -0.8,-1.6 -1.2,-2.4 -0.6,-1.1 -1.4,-2.3 -2.7,-2.4 -3.1,-0.2 -3.1,4.7 -3.3,6.8 -0.4,4.2 -0.9,8.3 -1.4,12.5 -0.2,1.9 -0.5,3.5 0.4,5.3 0.5,1.2 1.2,2.3 2.4,3 1.4,0.9 3.2,0.5 4.7,0.1 1.7,-0.5 3.2,-1.4 4.9,-1.6 1.6,-0.2 3.2,0.1 4.7,0.2 2.2,0.2 4.6,-0.3 5.8,-2.2 0.8,-1.3 1.1,-2.9 0.9,-4.3 0.1,-0.6 -0.1,-1.3 -0.3,-1.9 z"
           id="path29"
           inkscape:connector-curvature="0" /><path
           d="m 478.6,742.6 c -0.4,-1.9 -0.7,-4 -1.4,-5.8 -0.4,-1.1 -1.3,-2.1 -2.4,-2.2 -1.3,-0.2 -2.2,0.9 -2.8,2.1 -0.4,0.8 -0.7,1.7 -1,2.5 -0.2,0.6 -0.4,1.3 -0.7,1.9 -0.1,0.2 -0.3,0.7 -0.6,1.1 -0.1,-0.1 -0.1,-0.2 -0.2,-0.3 -0.1,-0.1 -0.2,-0.3 -0.3,-0.5 -0.2,-0.5 -0.4,-1 -0.6,-1.5 -0.3,-0.9 -0.6,-1.7 -0.9,-2.6 -0.5,-1.1 -1.1,-2.5 -2.4,-2.7 -3.1,-0.6 -3.7,4.2 -4.2,6.3 -1,4.1 -2,8.2 -3,12.3 -0.5,1.9 -0.9,3.5 -0.4,5.3 0.4,1.2 0.9,2.4 2,3.2 1.3,1 3.1,1 4.6,0.7 1.7,-0.2 3.4,-0.9 5.1,-0.8 1.6,0 3.1,0.4 4.7,0.8 2.1,0.4 4.6,0.4 6.1,-1.3 1,-1.1 1.4,-2.7 1.5,-4.2 0,-0.7 0,-1.4 -0.2,-2.1 l -2.9,-12.2 z"
           id="path31"
           inkscape:connector-curvature="0" /><path
           d="m 442.9,741.3 c -0.2,-1.9 -0.1,-4 -0.6,-5.9 -0.3,-1.1 -1,-2.2 -2.1,-2.6 -1.3,-0.4 -2.3,0.6 -3,1.6 -0.5,0.7 -0.9,1.6 -1.3,2.4 -0.3,0.6 -0.6,1.2 -1,1.8 -0.1,0.2 -0.4,0.7 -0.8,1 -0.1,-0.1 -0.1,-0.2 -0.1,-0.3 -0.1,-0.2 -0.1,-0.4 -0.2,-0.5 -0.2,-0.5 -0.3,-1 -0.4,-1.6 -0.2,-0.9 -0.3,-1.8 -0.5,-2.6 -0.3,-1.2 -0.8,-2.5 -2,-3 -3,-1.1 -4.2,3.6 -5,5.6 -1.5,3.9 -3.1,7.8 -4.7,11.7 -0.7,1.8 -1.4,3.3 -1.1,5.2 0.2,1.2 0.6,2.5 1.5,3.5 1.1,1.2 2.9,1.4 4.5,1.4 1.7,0.1 3.5,-0.4 5.2,-0.2 1.6,0.2 3,0.9 4.5,1.4 2,0.7 4.5,1.1 6.2,-0.4 1.2,-1 1.8,-2.5 2.1,-4 0.1,-0.7 0.2,-1.4 0.1,-2.1 l -1.3,-12.4 z"
           id="path33"
           inkscape:connector-curvature="0" /><path
           d="m 406.2,726.4 c -1.2,-0.6 -2.4,0.2 -3.2,1.2 -0.6,0.7 -1.1,1.4 -1.6,2.2 -0.4,0.5 -0.8,1.1 -1.2,1.6 -0.1,0.2 -0.5,0.6 -0.9,0.9 -0.1,-0.1 -0.1,-0.2 -0.1,-0.3 -0.1,-0.2 -0.1,-0.4 -0.1,-0.6 -0.1,-0.5 -0.2,-1.1 -0.2,-1.6 -0.1,-0.9 -0.1,-1.8 -0.2,-2.7 -0.1,-1.2 -0.4,-2.7 -1.5,-3.2 -2.8,-1.4 -4.7,3 -5.7,4.9 -2,3.7 -4.1,7.3 -6.2,10.9 -1,1.7 -1.8,3.1 -1.8,5 0,1.3 0.2,2.6 1,3.7 1,1.3 2.7,1.8 4.2,2 1.7,0.2 3.5,0 5.2,0.5 1.5,0.4 2.9,1.3 4.3,2.1 1.9,1.1 4.3,1.6 6.2,0.4 1.3,-0.9 2.1,-2.2 2.6,-3.6 0.2,-0.7 0.3,-1.3 0.4,-2 l 0.4,-12.5 c 0.1,-1.9 0.4,-4 0.2,-5.9 -0.2,-1.3 -0.7,-2.5 -1.8,-3 z"
           id="path35"
           inkscape:connector-curvature="0" /><path
           d="m 373.5,715.4 c -1.1,-0.7 -2.4,0 -3.3,0.8 -0.7,0.6 -1.3,1.2 -1.9,1.9 -0.5,0.5 -0.9,1 -1.4,1.4 -0.2,0.1 -0.6,0.5 -1,0.8 0,-0.1 -0.1,-0.2 -0.1,-0.3 0,-0.2 0,-0.4 0,-0.6 0,-0.5 0,-1.1 0,-1.6 0.1,-0.9 0.2,-1.8 0.2,-2.7 0,-1.2 0,-2.7 -1.1,-3.4 -2.6,-1.8 -5.1,2.4 -6.4,4.1 -2.5,3.4 -5.1,6.7 -7.6,10 -1.2,1.5 -2.2,2.8 -2.5,4.7 -0.2,1.3 -0.1,2.6 0.5,3.8 0.8,1.4 2.5,2.1 4,2.5 1.7,0.4 3.4,0.5 5,1.2 1.5,0.6 2.6,1.8 3.9,2.7 1.8,1.2 4,2.2 6.1,1.2 1.4,-0.7 2.4,-1.9 3,-3.2 0.3,-0.6 0.5,-1.3 0.7,-2 l 2.2,-12.4 c 0.3,-1.9 1,-3.9 1,-5.8 0.1,-1.3 -0.3,-2.5 -1.3,-3.1 z"
           id="path37"
           inkscape:connector-curvature="0" /><path
           d="m 339.2,700.3 c -0.8,0.5 -1.4,1.1 -2.1,1.7 -0.5,0.4 -1,0.8 -1.6,1.2 -0.2,0.1 -0.6,0.4 -1.1,0.6 0,-0.1 0,-0.2 0,-0.3 0,-0.2 0,-0.4 0,-0.6 0.1,-0.5 0.2,-1.1 0.3,-1.6 0.2,-0.9 0.4,-1.8 0.6,-2.6 0.2,-1.2 0.3,-2.7 -0.6,-3.6 -2.3,-2.1 -5.3,1.7 -6.8,3.2 -3,3 -6,6 -9,8.9 -1.4,1.3 -2.6,2.5 -3.1,4.4 -0.3,1.2 -0.5,2.5 0,3.8 0.6,1.5 2.1,2.4 3.6,3 1.6,0.7 3.3,1 4.8,1.9 1.3,0.9 2.4,2 3.6,3.1 1.6,1.5 3.7,2.7 5.9,2 1.5,-0.5 2.6,-1.5 3.5,-2.8 0.4,-0.6 0.7,-1.2 0.9,-1.8 l 3.8,-12 c 0.6,-1.8 1.5,-3.8 1.8,-5.7 0.2,-1.1 0,-2.4 -0.9,-3.1 -1.2,-0.9 -2.6,-0.4 -3.6,0.3 z"
           id="path39"
           inkscape:connector-curvature="0" /><path
           d="m 310.6,680.3 c -0.8,0.4 -1.6,0.9 -2.3,1.3 -0.6,0.4 -1.1,0.7 -1.8,1 -0.2,0.1 -0.7,0.4 -1.2,0.5 0,-0.1 0,-0.2 0,-0.3 0,-0.2 0.1,-0.4 0.1,-0.5 0.1,-0.5 0.3,-1 0.5,-1.6 0.3,-0.9 0.7,-1.7 0.9,-2.6 0.4,-1.2 0.7,-2.6 -0.1,-3.6 -2,-2.5 -5.5,0.9 -7.2,2.2 -3.3,2.6 -6.7,5.1 -10.1,7.6 -1.5,1.1 -2.9,2.1 -3.6,3.9 -0.5,1.2 -0.8,2.5 -0.5,3.8 0.4,1.6 1.8,2.7 3.1,3.5 1.5,0.9 3.1,1.5 4.5,2.6 1.3,1 2.1,2.3 3.1,3.5 1.4,1.7 3.3,3.2 5.5,2.9 1.5,-0.3 2.8,-1.2 3.8,-2.3 0.5,-0.5 0.9,-1.1 1.2,-1.7 l 5.4,-11.4 c 0.9,-1.7 2,-3.5 2.5,-5.4 0.3,-1.1 0.3,-2.4 -0.5,-3.3 -0.7,-0.9 -2.1,-0.6 -3.3,-0.1 z"
           id="path41"
           inkscape:connector-curvature="0" /><path
           d="m 288.4,657.3 c -0.8,-1.1 -2.2,-1 -3.4,-0.6 -0.9,0.3 -1.7,0.6 -2.5,1 -0.6,0.3 -1.2,0.5 -1.9,0.8 -0.2,0.1 -0.7,0.3 -1.3,0.3 0,-0.1 0,-0.2 0.1,-0.3 0,-0.2 0.1,-0.4 0.2,-0.5 0.2,-0.5 0.4,-1 0.7,-1.5 0.4,-0.8 0.9,-1.6 1.2,-2.4 0.5,-1.1 1,-2.5 0.4,-3.6 -1.6,-2.7 -5.5,0.1 -7.4,1.2 -3.6,2.1 -7.3,4.1 -11,6.1 -1.7,0.9 -3.1,1.7 -4.1,3.4 -0.6,1.1 -1.1,2.3 -1,3.7 0.2,1.6 1.4,2.9 2.6,3.9 1.3,1.1 2.9,1.9 4.1,3.1 1.1,1.1 1.8,2.6 2.6,3.9 1.1,1.9 2.8,3.7 5,3.6 1.5,-0.1 3,-0.8 4.1,-1.8 0.5,-0.4 1,-1 1.4,-1.5 l 6.9,-10.5 c 1.1,-1.6 2.4,-3.2 3.2,-5 0.6,-1.1 0.8,-2.4 0.1,-3.3 z"
           id="path43"
           inkscape:connector-curvature="0" /><path
           d="m 265.7,634.1 c 0.6,-1 1,-2.2 0.5,-3.3 -0.6,-1.2 -2,-1.3 -3.2,-1.1 -0.9,0.1 -1.7,0.4 -2.6,0.7 -0.6,0.2 -1.3,0.4 -2,0.5 -0.2,0 -0.8,0.1 -1.3,0.1 0,-0.1 0.1,-0.2 0.1,-0.3 0.1,-0.2 0.2,-0.3 0.3,-0.5 0.3,-0.5 0.6,-0.9 0.9,-1.4 0.5,-0.7 1.1,-1.4 1.5,-2.2 0.7,-1 1.4,-2.3 0.8,-3.5 -1.2,-2.9 -5.5,-0.6 -7.5,0.2 -3.9,1.6 -7.8,3.1 -11.7,4.6 -1.8,0.7 -3.3,1.2 -4.6,2.8 -0.8,1 -1.5,2.2 -1.5,3.5 -0.1,1.6 0.9,3.1 2,4.2 1.2,1.2 2.7,2.2 3.7,3.6 0.9,1.3 1.4,2.8 2,4.3 0.8,2 2.2,4 4.5,4.2 1.5,0.1 3.1,-0.4 4.3,-1.2 0.6,-0.4 1.1,-0.8 1.6,-1.3 l 8.2,-9.4 c 1.4,-1.5 3,-2.9 4,-4.5 z"
           id="path45"
           inkscape:connector-curvature="0" /><path
           d="m 246.8,604.8 c 0.7,-0.9 1.2,-2 0.8,-3.2 -0.4,-1.3 -1.8,-1.6 -3,-1.5 -0.9,0 -1.8,0.2 -2.7,0.3 -0.7,0.1 -1.3,0.2 -2,0.2 -0.2,0 -0.8,0 -1.3,0 0,-0.1 0.1,-0.2 0.2,-0.3 0.1,-0.2 0.2,-0.3 0.3,-0.5 0.3,-0.4 0.7,-0.8 1.1,-1.2 0.6,-0.7 1.3,-1.3 1.8,-2 0.8,-0.9 1.7,-2.1 1.3,-3.3 -0.9,-3 -5.4,-1.3 -7.5,-0.8 -4.1,1 -8.1,2 -12.2,2.9 -1.9,0.4 -3.5,0.8 -4.9,2.1 -0.9,0.9 -1.7,1.9 -2,3.3 -0.3,1.6 0.5,3.2 1.5,4.5 1,1.4 2.4,2.6 3.2,4.1 0.7,1.4 1,3 1.4,4.5 0.5,2.1 1.8,4.2 4,4.8 1.5,0.4 3.1,0 4.4,-0.6 0.6,-0.3 1.2,-0.7 1.7,-1.1 l 9.5,-8.2 c 1.4,-1.4 3.2,-2.5 4.4,-4 z"
           id="path47"
           inkscape:connector-curvature="0" /><path
           d="m 232.1,573.2 c 0.9,-0.8 1.5,-1.9 1.3,-3 -0.3,-1.3 -1.6,-1.8 -2.9,-1.9 -0.9,-0.1 -1.8,-0.1 -2.7,-0.1 -0.7,0 -1.3,0 -2,-0.1 -0.2,0 -0.8,-0.1 -1.3,-0.2 0,-0.1 0.1,-0.2 0.2,-0.3 0.1,-0.1 0.3,-0.3 0.4,-0.4 0.4,-0.4 0.8,-0.7 1.2,-1.1 0.7,-0.6 1.4,-1.1 2.1,-1.7 0.9,-0.8 2,-1.9 1.8,-3.1 -0.5,-3.1 -5.2,-2.1 -7.3,-1.8 -4.2,0.5 -8.4,0.9 -12.5,1.2 -1.9,0.2 -3.5,0.3 -5.1,1.4 -1,0.7 -2,1.7 -2.4,3 -0.5,1.5 0.2,3.2 0.9,4.6 0.8,1.5 2,2.9 2.6,4.5 0.5,1.5 0.5,3.1 0.7,4.7 0.3,2.1 1.2,4.4 3.3,5.3 1.4,0.6 3,0.5 4.4,0 0.7,-0.2 1.3,-0.5 1.9,-0.9 l 10.5,-6.9 c 1.6,-1 3.5,-1.9 4.9,-3.2 z"
           id="path49"
           inkscape:connector-curvature="0" /><path
           d="m 205.1,547.8 11.4,-5.4 c 1.8,-0.8 3.8,-1.5 5.4,-2.6 1,-0.7 1.8,-1.7 1.7,-2.8 -0.1,-1.3 -1.4,-2 -2.6,-2.3 -0.9,-0.2 -1.8,-0.3 -2.7,-0.4 -0.7,-0.1 -1.3,-0.2 -2,-0.3 -0.2,0 -0.8,-0.2 -1.2,-0.4 0.1,-0.1 0.1,-0.2 0.2,-0.2 0.1,-0.1 0.3,-0.2 0.4,-0.4 0.4,-0.3 0.9,-0.6 1.4,-0.9 0.8,-0.5 1.6,-0.9 2.3,-1.4 1,-0.7 2.2,-1.6 2.2,-2.9 0,-3.1 -4.8,-2.8 -7,-2.8 -4.2,-0.1 -8.4,-0.3 -12.6,-0.5 -1.9,-0.1 -3.6,-0.2 -5.3,0.7 -1.1,0.6 -2.2,1.4 -2.8,2.6 -0.7,1.5 -0.3,3.2 0.2,4.7 0.6,1.6 1.5,3.1 1.9,4.8 0.3,1.6 0.2,3.1 0.2,4.7 0,2.2 0.5,4.6 2.5,5.7 1.3,0.7 2.9,0.9 4.4,0.6 0.7,0 1.4,-0.2 2,-0.5 z"
           id="path51"
           inkscape:connector-curvature="0" /><path
           d="m 198.6,511 12,-3.8 c 1.9,-0.6 3.9,-1 5.7,-1.8 1,-0.5 2,-1.4 2.1,-2.6 0.1,-1.3 -1.1,-2.1 -2.2,-2.6 -0.8,-0.3 -1.7,-0.6 -2.6,-0.8 -0.6,-0.2 -1.3,-0.4 -1.9,-0.6 -0.2,-0.1 -0.7,-0.3 -1.2,-0.5 0.1,-0.1 0.2,-0.2 0.3,-0.2 0.1,-0.1 0.3,-0.2 0.5,-0.3 0.5,-0.3 1,-0.5 1.5,-0.7 0.8,-0.4 1.7,-0.7 2.5,-1.1 1.1,-0.5 2.3,-1.3 2.6,-2.5 0.5,-3.1 -4.4,-3.4 -6.5,-3.8 -4.1,-0.7 -8.3,-1.4 -12.4,-2.2 -1.9,-0.3 -3.5,-0.7 -5.3,0 -1.2,0.4 -2.4,1.1 -3.1,2.2 -0.9,1.3 -0.8,3.1 -0.5,4.7 0.3,1.7 1.1,3.3 1.3,5 0.1,1.6 -0.3,3.1 -0.5,4.7 -0.3,2.1 -0.2,4.6 1.6,6 1.2,0.9 2.8,1.3 4.3,1.2 0.5,0 1.1,-0.1 1.8,-0.3 z"
           id="path53"
           inkscape:connector-curvature="0" /><path
           d="m 195.1,473.8 c 0.7,0.1 1.4,0.1 2.1,0 l 12.4,-2.1 c 1.9,-0.3 4,-0.4 5.8,-1 1.1,-0.4 2.1,-1.1 2.3,-2.3 0.3,-1.3 -0.7,-2.3 -1.8,-2.9 -0.8,-0.4 -1.6,-0.8 -2.4,-1.1 -0.6,-0.3 -1.2,-0.5 -1.8,-0.8 -0.2,-0.1 -0.7,-0.4 -1.1,-0.7 0.1,-0.1 0.2,-0.1 0.3,-0.2 0.1,-0.1 0.4,-0.2 0.5,-0.2 0.5,-0.2 1,-0.4 1.6,-0.5 0.9,-0.2 1.7,-0.4 2.6,-0.7 1.2,-0.4 2.5,-0.9 2.9,-2.2 0.8,-3 -4,-4 -6,-4.6 -4,-1.2 -8,-2.5 -12,-3.8 -1.8,-0.6 -3.4,-1.2 -5.3,-0.7 -1.2,0.3 -2.5,0.8 -3.4,1.8 -1.1,1.2 -1.2,3 -1,4.6 0.2,1.7 0.7,3.4 0.6,5.2 -0.1,1.6 -0.7,3.1 -1.2,4.6 -0.6,2.1 -0.7,4.5 0.9,6.1 1,0.7 2.6,1.3 4,1.5 z"
           id="path55"
           inkscape:connector-curvature="0" /><path
           d="m 198.7,436.3 c 0.7,0.2 1.4,0.3 2,0.2 l 12.6,-0.4 c 1.9,0 4,0.1 5.9,-0.2 1.1,-0.2 2.3,-0.8 2.7,-1.9 0.4,-1.3 -0.5,-2.4 -1.5,-3.1 -0.7,-0.5 -1.5,-1 -2.3,-1.5 -0.6,-0.3 -1.1,-0.7 -1.7,-1.1 -0.2,-0.1 -0.6,-0.5 -1,-0.8 0.1,-0.1 0.2,-0.1 0.3,-0.1 0.2,-0.1 0.4,-0.1 0.5,-0.2 0.5,-0.1 1.1,-0.2 1.6,-0.3 0.9,-0.1 1.8,-0.2 2.7,-0.4 1.2,-0.2 2.7,-0.6 3.2,-1.8 1.2,-2.9 -3.4,-4.5 -5.3,-5.4 -3.8,-1.8 -7.6,-3.6 -11.4,-5.5 -1.7,-0.8 -3.2,-1.6 -5.1,-1.4 -1.3,0.1 -2.6,0.4 -3.6,1.3 -1.2,1.1 -1.5,2.8 -1.6,4.4 -0.1,1.7 0.2,3.5 -0.2,5.2 -0.4,1.5 -1.1,3 -1.7,4.4 -0.8,2 -1.3,4.4 0.1,6.2 0.9,1.3 2.3,2 3.8,2.4 z"
           id="path57"
           inkscape:connector-curvature="0" /><path
           d="m 207.3,399.7 c 0.6,0.3 1.3,0.4 2,0.5 l 12.5,1.3 c 1.9,0.2 4,0.7 5.9,0.6 1.2,-0.1 2.4,-0.5 2.9,-1.5 0.6,-1.2 -0.1,-2.4 -1,-3.3 -0.6,-0.6 -1.4,-1.2 -2.1,-1.8 -0.5,-0.4 -1.1,-0.8 -1.5,-1.3 -0.2,-0.2 -0.6,-0.5 -0.9,-1 0.1,0 0.2,-0.1 0.3,-0.1 0.2,-0.1 0.4,-0.1 0.6,-0.1 0.5,-0.1 1.1,-0.1 1.6,-0.1 0.9,0 1.8,0 2.7,0 1.2,0 2.7,-0.2 3.4,-1.3 1.7,-2.7 -2.7,-4.9 -4.5,-6 -3.5,-2.3 -7,-4.6 -10.5,-7 -1.6,-1.1 -2.9,-2 -4.9,-2.1 -1.3,-0.1 -2.6,0.1 -3.7,0.8 -1.4,0.9 -2,2.6 -2.3,4.1 -0.3,1.7 -0.4,3.4 -0.9,5.1 -0.5,1.5 -1.5,2.8 -2.3,4.1 -1.1,1.9 -2,4.2 -0.9,6.1 0.9,1.5 2.2,2.4 3.6,3 z"
           id="path59"
           inkscape:connector-curvature="0" /><path
           d="m 220.9,364.6 c 0.6,0.3 1.2,0.6 1.9,0.8 l 12.2,3 c 1.9,0.5 3.9,1.2 5.8,1.4 1.2,0.1 2.4,-0.2 3.1,-1.1 0.8,-1.1 0.2,-2.4 -0.5,-3.4 -0.5,-0.7 -1.2,-1.4 -1.8,-2 -0.5,-0.5 -0.9,-1 -1.3,-1.5 -0.1,-0.2 -0.5,-0.6 -0.7,-1.1 0.1,0 0.2,0 0.3,0 0.2,0 0.4,0 0.6,0 0.5,0 1.1,0.1 1.6,0.1 0.9,0.1 1.8,0.3 2.7,0.4 1.2,0.1 2.7,0.1 3.5,-0.9 2,-2.4 -2,-5.2 -3.6,-6.6 -3.2,-2.7 -6.3,-5.5 -9.5,-8.3 -1.4,-1.3 -2.6,-2.4 -4.6,-2.8 -1.2,-0.2 -2.6,-0.3 -3.8,0.3 -1.5,0.7 -2.3,2.3 -2.8,3.7 -0.6,1.6 -0.7,3.4 -1.5,5 -0.7,1.4 -1.9,2.5 -2.9,3.8 -1.4,1.7 -2.6,3.8 -1.7,6 0.6,1.4 1.7,2.5 3,3.2 z"
           id="path61"
           inkscape:connector-curvature="0" /><path
           d="m 239.2,331.7 c 0.5,0.4 1.1,0.8 1.8,1 l 11.7,4.6 c 1.8,0.7 3.6,1.7 5.5,2.1 1.1,0.2 2.4,0.1 3.2,-0.7 0.9,-1 0.6,-2.3 0,-3.4 -0.4,-0.8 -1,-1.5 -1.5,-2.2 -0.4,-0.5 -0.8,-1.1 -1.1,-1.7 -0.1,-0.2 -0.4,-0.7 -0.6,-1.2 0.1,0 0.2,0 0.3,0 0.2,0 0.4,0 0.6,0.1 0.5,0.1 1.1,0.2 1.6,0.4 0.9,0.2 1.7,0.5 2.6,0.7 1.2,0.3 2.6,0.5 3.6,-0.4 2.2,-2.2 -1.3,-5.4 -2.7,-7 -2.8,-3.1 -5.5,-6.3 -8.2,-9.5 -1.2,-1.5 -2.3,-2.7 -4.1,-3.4 -1.2,-0.4 -2.5,-0.7 -3.8,-0.3 -1.5,0.5 -2.7,1.9 -3.3,3.3 -0.8,1.6 -1.2,3.3 -2.2,4.7 -0.9,1.3 -2.2,2.3 -3.4,3.3 -1.7,1.4 -3,3.5 -2.4,5.7 0.2,1.8 1.2,3 2.4,3.9 z"
           id="path63"
           inkscape:connector-curvature="0" /><path
           d="m 261.8,301.6 c 0.5,0.5 1,0.9 1.6,1.3 l 10.9,6.2 c 1.7,1 3.4,2.2 5.2,2.9 1.1,0.4 2.4,0.5 3.2,-0.3 1,-0.9 0.9,-2.2 0.4,-3.4 -0.3,-0.8 -0.8,-1.6 -1.2,-2.4 -0.3,-0.6 -0.6,-1.2 -0.9,-1.8 -0.1,-0.2 -0.3,-0.7 -0.4,-1.2 0.1,0 0.2,0 0.3,0.1 0.2,0 0.4,0.1 0.5,0.2 0.5,0.2 1,0.4 1.5,0.6 0.8,0.4 1.6,0.8 2.5,1.1 1.1,0.4 2.6,0.9 3.6,0.1 2.5,-1.8 -0.6,-5.6 -1.7,-7.4 -2.3,-3.5 -4.6,-7 -6.8,-10.5 -1,-1.6 -1.9,-3 -3.6,-3.9 -1.1,-0.6 -2.4,-1 -3.8,-0.8 -1.6,0.2 -2.8,1.6 -3.7,2.9 -1,1.4 -1.6,3.1 -2.8,4.4 -1.1,1.2 -2.5,1.9 -3.8,2.8 -1.8,1.3 -3.4,3.1 -3.1,5.4 0.2,1.3 1,2.7 2.1,3.7 z"
           id="path65"
           inkscape:connector-curvature="0" /><path
           d="m 314.2,274.3 c -1.8,-3.8 -3.6,-7.6 -5.4,-11.4 -0.8,-1.7 -1.4,-3.2 -3.1,-4.4 -1,-0.7 -2.3,-1.3 -3.6,-1.3 -1.6,0.1 -3,1.2 -4,2.4 -1.2,1.3 -2,2.8 -3.4,3.9 -1.2,1 -2.8,1.5 -4.1,2.3 -1.9,1 -3.8,2.6 -3.9,4.9 0,1.5 0.6,3 1.5,4.2 0.4,0.6 0.9,1.1 1.4,1.5 l 10,7.6 c 1.5,1.2 3,2.6 4.7,3.6 1,0.5 2.3,0.8 3.3,0.2 1.1,-0.7 1.1,-2.1 0.8,-3.4 -0.2,-0.9 -0.5,-1.7 -0.8,-2.5 -0.2,-0.6 -0.5,-1.3 -0.6,-1.9 -0.1,-0.2 -0.2,-0.7 -0.2,-1.3 0.1,0 0.2,0 0.3,0.1 0.2,0 0.4,0.2 0.5,0.2 0.5,0.2 1,0.5 1.4,0.8 0.8,0.5 1.5,1 2.3,1.4 1.1,0.6 2.4,1.2 3.6,0.6 2.8,-1.5 0.3,-5.6 -0.7,-7.5 z"
           id="path67"
           inkscape:connector-curvature="0" /><path
           d="m 340.1,242.8 c -0.6,-1.8 -1,-3.4 -2.5,-4.7 -0.9,-0.8 -2.1,-1.6 -3.4,-1.7 -1.6,-0.2 -3.1,0.8 -4.3,1.8 -1.3,1.1 -2.4,2.5 -3.9,3.4 -1.4,0.8 -2.9,1.2 -4.4,1.8 -2,0.7 -4.1,2 -4.5,4.3 -0.3,1.5 0.2,3 0.9,4.3 0.3,0.6 0.7,1.2 1.2,1.7 l 8.9,8.9 c 1.4,1.4 2.7,3 4.2,4.2 0.9,0.7 2.2,1.1 3.2,0.6 1.2,-0.5 1.4,-2 1.3,-3.2 -0.1,-0.9 -0.3,-1.8 -0.5,-2.7 -0.1,-0.7 -0.3,-1.3 -0.4,-2 0,-0.2 -0.1,-0.8 0,-1.3 0.1,0 0.2,0.1 0.3,0.2 0.2,0.1 0.3,0.2 0.5,0.3 0.5,0.3 0.9,0.6 1.3,1 0.7,0.6 1.4,1.2 2.1,1.7 1,0.7 2.2,1.5 3.4,1.1 3,-1.1 1,-5.5 0.3,-7.5 -1.2,-4.1 -2.5,-8.1 -3.7,-12.2 z"
           id="path69"
           inkscape:connector-curvature="0" /><path
           d="m 373.8,227.3 c -0.3,-1.9 -0.5,-3.5 -1.8,-5 -0.8,-1 -1.8,-1.9 -3.1,-2.2 -1.6,-0.4 -3.2,0.3 -4.6,1.1 -1.5,0.9 -2.8,2.1 -4.3,2.8 -1.4,0.7 -3,0.8 -4.6,1.2 -2.1,0.4 -4.4,1.4 -5.1,3.6 -0.5,1.4 -0.3,3 0.3,4.4 0.2,0.6 0.6,1.3 1,1.8 l 7.6,10.1 c 1.2,1.6 2.2,3.4 3.6,4.7 0.8,0.8 2,1.4 3.1,1.1 1.3,-0.3 1.7,-1.7 1.7,-3 0,-0.9 -0.1,-1.8 -0.1,-2.7 -0.1,-0.7 -0.1,-1.3 -0.1,-2 0,-0.2 0,-0.8 0.1,-1.3 0.1,0 0.2,0.1 0.3,0.2 0.2,0.1 0.3,0.2 0.4,0.3 0.4,0.3 0.8,0.7 1.2,1.1 0.6,0.6 1.2,1.3 1.8,2 0.9,0.9 2,1.9 3.3,1.6 3.1,-0.6 1.7,-5.3 1.4,-7.4 -0.7,-4.1 -1.4,-8.2 -2.1,-12.4 z"
           id="path71"
           inkscape:connector-curvature="0" /><path
           d="m 409.3,216.5 c 0,-1.9 0,-3.6 -1.1,-5.2 -0.7,-1.1 -1.5,-2.1 -2.8,-2.6 -1.5,-0.6 -3.2,-0.1 -4.7,0.5 -1.6,0.7 -3,1.8 -4.7,2.3 -1.5,0.5 -3.1,0.4 -4.7,0.5 -2.2,0.1 -4.6,0.7 -5.5,2.8 -0.6,1.4 -0.7,3 -0.3,4.5 0.2,0.7 0.4,1.3 0.7,1.9 l 6.1,10.9 c 0.9,1.7 1.7,3.6 2.9,5.2 0.7,0.9 1.8,1.7 2.9,1.5 1.3,-0.2 1.9,-1.5 2.1,-2.7 0.2,-0.9 0.2,-1.8 0.3,-2.7 0,-0.7 0.1,-1.3 0.2,-2 0,-0.2 0.1,-0.8 0.3,-1.3 0.1,0 0.2,0.1 0.3,0.2 0.1,0.1 0.3,0.3 0.4,0.4 0.4,0.4 0.7,0.8 1,1.3 0.5,0.7 1,1.5 1.5,2.2 0.7,1 1.7,2.1 3,1.9 3.2,-0.1 2.4,-5 2.4,-7.1 0,-4.1 -0.2,-8.3 -0.3,-12.5 z"
           id="path73"
           inkscape:connector-curvature="0" /><path
           d="m 443.2,202.3 c -1.4,-0.9 -3.2,-0.5 -4.7,-0.1 -1.7,0.5 -3.2,1.4 -4.9,1.6 -1.6,0.2 -3.2,-0.1 -4.7,-0.2 -2.2,-0.2 -4.6,0.3 -5.8,2.2 -0.8,1.3 -1.1,2.9 -0.9,4.3 0.1,0.7 0.2,1.4 0.5,2 l 4.6,11.7 c 0.7,1.8 1.2,3.8 2.2,5.5 0.6,1 1.5,1.8 2.7,1.8 1.3,0 2.1,-1.2 2.5,-2.3 0.3,-0.8 0.4,-1.7 0.6,-2.6 0.1,-0.7 0.3,-1.3 0.5,-2 0.1,-0.2 0.2,-0.7 0.5,-1.2 0.1,0.1 0.2,0.1 0.2,0.3 0.1,0.1 0.2,0.3 0.3,0.5 0.3,0.5 0.6,0.9 0.8,1.4 0.4,0.8 0.8,1.6 1.2,2.4 0.6,1.1 1.4,2.3 2.7,2.4 3.1,0.2 3.1,-4.7 3.3,-6.8 0.4,-4.2 0.9,-8.3 1.4,-12.5 0.2,-1.9 0.5,-3.5 -0.4,-5.3 -0.7,-1.2 -1.4,-2.4 -2.6,-3.1 z"
           id="path75"
           inkscape:connector-curvature="0" /><path
           d="m 481.5,201.3 c -1.3,-1 -3.1,-1 -4.6,-0.7 -1.7,0.2 -3.4,0.9 -5.1,0.8 -1.6,0 -3.1,-0.4 -4.7,-0.8 -2.1,-0.4 -4.6,-0.4 -6.1,1.3 -1,1.1 -1.4,2.7 -1.5,4.2 0,0.7 0,1.4 0.2,2.1 l 3,12.2 c 0.4,1.9 0.7,4 1.4,5.8 0.4,1.1 1.3,2.1 2.4,2.2 1.3,0.2 2.2,-0.9 2.8,-2.1 0.4,-0.8 0.7,-1.7 1,-2.5 0.2,-0.6 0.4,-1.3 0.7,-1.9 0.1,-0.2 0.3,-0.7 0.6,-1.1 0.1,0.1 0.1,0.2 0.2,0.3 0.1,0.1 0.2,0.3 0.3,0.5 0.2,0.5 0.4,1 0.6,1.5 0.3,0.9 0.6,1.7 0.9,2.6 0.5,1.1 1.1,2.5 2.4,2.7 3.1,0.6 3.7,-4.2 4.2,-6.3 1,-4.1 2,-8.2 3,-12.3 0.5,-1.9 0.9,-3.5 0.4,-5.3 -0.5,-1.2 -1.1,-2.4 -2.1,-3.2 z"
           id="path77"
           inkscape:connector-curvature="0" /><path
           d="m 519.5,205.3 c -1.1,-1.2 -2.9,-1.4 -4.5,-1.4 -1.7,-0.1 -3.5,0.4 -5.2,0.2 -1.6,-0.2 -3,-0.9 -4.5,-1.4 -2,-0.7 -4.5,-1.1 -6.2,0.4 -1.2,1 -1.8,2.5 -2.1,4 -0.1,0.7 -0.2,1.4 -0.1,2.1 l 1.3,12.5 c 0.2,1.9 0.1,4 0.6,5.9 0.3,1.1 1,2.2 2.1,2.6 1.3,0.4 2.3,-0.6 3,-1.6 0.5,-0.7 0.9,-1.6 1.3,-2.4 0.3,-0.6 0.6,-1.2 1,-1.8 0.1,-0.2 0.4,-0.7 0.8,-1 0.1,0.1 0.1,0.2 0.1,0.3 0.1,0.1 0.1,0.4 0.2,0.5 0.2,0.5 0.3,1 0.4,1.6 0.2,0.9 0.3,1.8 0.5,2.6 0.3,1.2 0.8,2.5 2,3 3,1.1 4.2,-3.6 5,-5.6 1.5,-3.9 3.1,-7.8 4.7,-11.7 0.7,-1.8 1.4,-3.3 1.1,-5.2 -0.1,-1.3 -0.5,-2.6 -1.5,-3.6 z"
           id="path79"
           inkscape:connector-curvature="0" /><path
           d="m 552.4,212.5 c -1.7,-0.2 -3.5,0 -5.2,-0.5 -1.5,-0.4 -2.9,-1.3 -4.3,-2.1 -1.9,-1.1 -4.3,-1.6 -6.2,-0.4 -1.3,0.9 -2.1,2.2 -2.6,3.6 -0.2,0.7 -0.3,1.3 -0.4,2 l -0.4,12.5 c -0.1,1.9 -0.4,4 -0.2,5.9 0.1,1.1 0.7,2.3 1.7,2.8 1.2,0.6 2.4,-0.2 3.2,-1.2 0.6,-0.7 1.1,-1.4 1.6,-2.2 0.4,-0.5 0.8,-1.1 1.2,-1.6 0.1,-0.2 0.5,-0.6 0.9,-0.9 0.1,0.1 0.1,0.2 0.1,0.3 0.1,0.2 0.1,0.4 0.1,0.6 0.1,0.5 0.2,1.1 0.2,1.6 0.1,0.9 0.1,1.8 0.2,2.7 0.1,1.2 0.4,2.7 1.5,3.2 2.8,1.4 4.7,-3 5.7,-4.9 2,-3.7 4.1,-7.3 6.2,-10.9 1,-1.7 1.8,-3.1 1.8,-5 0,-1.3 -0.2,-2.6 -1,-3.7 -0.8,-1.1 -2.5,-1.6 -4.1,-1.8 z"
           id="path81"
           inkscape:connector-curvature="0" /><path
           d="m 588.3,226.2 c -1.7,-0.4 -3.4,-0.5 -5,-1.2 -1.5,-0.6 -2.6,-1.8 -3.9,-2.7 -1.8,-1.2 -4,-2.2 -6.1,-1.2 -1.4,0.7 -2.4,1.9 -3,3.2 -0.3,0.6 -0.5,1.3 -0.7,2 l -2.2,12.4 c -0.3,1.9 -1,3.9 -1,5.8 0,1.2 0.3,2.4 1.3,3 1.1,0.7 2.4,0 3.3,-0.8 0.7,-0.6 1.3,-1.2 1.9,-1.9 0.5,-0.5 0.9,-1 1.4,-1.4 0.2,-0.1 0.6,-0.5 1,-0.8 0,0.1 0.1,0.2 0.1,0.3 0,0.2 0,0.4 0,0.6 0,0.5 0,1.1 0,1.6 -0.1,0.9 -0.2,1.8 -0.2,2.7 0,1.2 0,2.7 1.1,3.4 2.6,1.8 5.1,-2.4 6.4,-4.1 2.5,-3.4 5.1,-6.7 7.6,-10 1.2,-1.5 2.2,-2.8 2.5,-4.7 0.2,-1.3 0.1,-2.6 -0.5,-3.8 -0.8,-1.3 -2.5,-2 -4,-2.4 z"
           id="path83"
           inkscape:connector-curvature="0" /><path
           d="m 602.1,262.7 c 0.8,-0.5 1.4,-1.1 2.1,-1.7 0.5,-0.4 1,-0.8 1.6,-1.2 0.2,-0.1 0.6,-0.4 1.1,-0.6 0,0.1 0,0.2 0,0.3 0,0.2 0,0.4 0,0.6 -0.1,0.5 -0.2,1.1 -0.3,1.6 -0.2,0.9 -0.4,1.8 -0.6,2.6 -0.2,1.2 -0.3,2.7 0.6,3.6 2.3,2.1 5.3,-1.7 6.8,-3.2 3,-3 6,-6 9,-8.9 1.4,-1.3 2.6,-2.5 3.1,-4.4 0.3,-1.2 0.5,-2.5 0,-3.8 -0.6,-1.5 -2.1,-2.4 -3.6,-3 -1.6,-0.7 -3.3,-1 -4.8,-1.9 -1.3,-0.9 -2.4,-2 -3.6,-3.1 -1.6,-1.5 -3.7,-2.7 -5.9,-2 -1.5,0.5 -2.6,1.5 -3.5,2.8 -0.4,0.6 -0.7,1.2 -0.9,1.8 l -3.8,12 c -0.6,1.8 -1.5,3.8 -1.8,5.7 -0.2,1.1 0,2.4 0.9,3.1 1.2,0.8 2.5,0.3 3.6,-0.3 z"
           id="path85"
           inkscape:connector-curvature="0" /><path
           d="m 630.6,282.6 c 0.8,-0.4 1.6,-0.9 2.3,-1.3 0.6,-0.4 1.1,-0.7 1.8,-1 0.2,-0.1 0.7,-0.4 1.2,-0.5 0,0.1 0,0.2 0,0.3 0,0.2 -0.1,0.4 -0.1,0.5 -0.1,0.5 -0.3,1 -0.5,1.6 -0.3,0.9 -0.7,1.7 -0.9,2.6 -0.4,1.2 -0.7,2.6 0.1,3.6 2,2.5 5.5,-0.9 7.2,-2.2 3.3,-2.6 6.7,-5.1 10.1,-7.6 1.5,-1.1 2.9,-2.1 3.6,-3.9 0.5,-1.2 0.8,-2.5 0.5,-3.8 -0.4,-1.6 -1.8,-2.7 -3.1,-3.5 -1.5,-0.9 -3.1,-1.5 -4.5,-2.6 -1.3,-1 -2.1,-2.3 -3.1,-3.5 -1.4,-1.7 -3.3,-3.2 -5.5,-2.9 -1.5,0.3 -2.8,1.2 -3.8,2.3 -0.5,0.5 -0.9,1.1 -1.2,1.7 l -5.4,11.4 c -0.9,1.7 -2,3.5 -2.5,5.4 -0.3,1.1 -0.3,2.4 0.5,3.3 0.8,1 2.2,0.7 3.3,0.1 z"
           id="path87"
           inkscape:connector-curvature="0" /><path
           d="m 652.8,305.7 c 0.8,1.1 2.2,1 3.4,0.6 0.9,-0.3 1.7,-0.6 2.5,-1 0.6,-0.3 1.2,-0.5 1.9,-0.8 0.2,-0.1 0.7,-0.3 1.3,-0.3 0,0.1 0,0.2 -0.1,0.3 0,0.2 -0.1,0.4 -0.2,0.5 -0.2,0.5 -0.4,1 -0.7,1.5 -0.4,0.8 -0.9,1.6 -1.2,2.4 -0.5,1.1 -1,2.5 -0.4,3.6 1.6,2.7 5.5,-0.1 7.4,-1.2 3.6,-2.1 7.3,-4.1 11,-6.1 1.7,-0.9 3.1,-1.7 4.1,-3.4 0.6,-1.1 1.1,-2.3 1,-3.7 -0.2,-1.6 -1.4,-2.9 -2.6,-3.9 -1.3,-1.1 -2.9,-1.9 -4.1,-3.1 -1.1,-1.1 -1.8,-2.6 -2.6,-3.9 -1.1,-1.9 -2.8,-3.7 -5,-3.6 -1.5,0.1 -3,0.8 -4.1,1.8 -0.5,0.4 -1,1 -1.4,1.5 l -6.9,10.5 c -1.1,1.6 -2.4,3.2 -3.2,5 -0.6,1 -0.8,2.3 -0.1,3.3 z"
           id="path89"
           inkscape:connector-curvature="0" /><path
           d="m 675.5,328.8 c -0.6,1 -1,2.2 -0.5,3.3 0.6,1.2 2,1.3 3.2,1.1 0.9,-0.1 1.7,-0.4 2.6,-0.7 0.6,-0.2 1.3,-0.4 2,-0.5 0.2,0 0.8,-0.1 1.3,-0.1 0,0.1 -0.1,0.2 -0.1,0.3 0,0.2 -0.2,0.3 -0.3,0.5 -0.3,0.5 -0.6,0.9 -0.9,1.4 -0.5,0.7 -1.1,1.4 -1.5,2.2 -0.7,1 -1.4,2.3 -0.8,3.5 1.2,2.9 5.5,0.6 7.5,-0.2 3.9,-1.6 7.8,-3.1 11.7,-4.6 1.8,-0.7 3.3,-1.2 4.6,-2.8 0.8,-1 1.5,-2.2 1.5,-3.5 0.1,-1.6 -0.9,-3.1 -2,-4.2 -1.2,-1.2 -2.7,-2.2 -3.7,-3.6 -0.9,-1.3 -1.4,-2.8 -2,-4.3 -0.8,-2 -2.2,-4 -4.5,-4.2 -1.5,-0.1 -3.1,0.4 -4.3,1.2 -0.6,0.4 -1.1,0.8 -1.6,1.3 l -8.2,9.4 c -1.4,1.5 -2.9,2.9 -4,4.5 z"
           id="path91"
           inkscape:connector-curvature="0" /><path
           d="m 694.4,358.2 c -0.7,0.9 -1.2,2 -0.8,3.2 0.4,1.3 1.8,1.6 3,1.5 0.9,0 1.8,-0.2 2.7,-0.3 0.7,-0.1 1.3,-0.2 2,-0.2 0.2,0 0.8,0 1.3,0 0,0.1 -0.1,0.2 -0.2,0.3 -0.1,0.2 -0.2,0.3 -0.3,0.5 -0.3,0.4 -0.7,0.8 -1.1,1.2 -0.6,0.7 -1.3,1.3 -1.8,2 -0.8,0.9 -1.7,2.1 -1.3,3.3 0.9,3 5.4,1.3 7.5,0.8 4.1,-1 8.1,-2 12.2,-2.9 1.9,-0.4 3.5,-0.8 4.9,-2.1 0.9,-0.9 1.7,-2 2,-3.3 0.3,-1.6 -0.5,-3.2 -1.5,-4.5 -1,-1.4 -2.4,-2.6 -3.2,-4.1 -0.7,-1.4 -1,-3 -1.4,-4.5 -0.5,-2.1 -1.8,-4.2 -4,-4.8 -1.5,-0.4 -3.1,0 -4.4,0.6 -0.6,0.3 -1.2,0.7 -1.7,1.1 l -9.5,8.2 c -1.4,1.3 -3.2,2.5 -4.4,4 z"
           id="path93"
           inkscape:connector-curvature="0" /><path
           d="m 709.1,389.8 c -0.9,0.8 -1.5,1.9 -1.3,3 0.3,1.3 1.6,1.8 2.9,1.9 0.9,0.1 1.8,0.1 2.7,0.1 0.7,0 1.3,0 2,0.1 0.2,0 0.8,0.1 1.3,0.2 0,0.1 -0.1,0.2 -0.2,0.3 -0.1,0.1 -0.3,0.3 -0.4,0.4 -0.4,0.4 -0.8,0.7 -1.2,1.1 -0.7,0.6 -1.4,1.1 -2.1,1.7 -0.9,0.8 -2,1.9 -1.8,3.1 0.5,3.1 5.2,2.1 7.3,1.8 4.2,-0.5 8.4,-0.9 12.5,-1.2 1.9,-0.2 3.5,-0.3 5.1,-1.4 1,-0.7 2,-1.7 2.4,-3 0.5,-1.5 -0.2,-3.2 -0.9,-4.6 -0.8,-1.5 -2,-2.9 -2.6,-4.5 -0.5,-1.5 -0.5,-3.1 -0.8,-4.7 -0.3,-2.1 -1.2,-4.4 -3.3,-5.3 -1.4,-0.6 -3,-0.5 -4.4,0 -0.7,0.2 -1.3,0.5 -1.9,0.9 l -10.5,6.9 c -1.5,0.9 -3.4,1.9 -4.8,3.2 z"
           id="path95"
           inkscape:connector-curvature="0" /><path
           d="m 736.1,415.1 -11.4,5.4 c -1.8,0.8 -3.8,1.5 -5.4,2.6 -1,0.7 -1.8,1.7 -1.7,2.8 0.1,1.3 1.4,2 2.6,2.3 0.9,0.2 1.8,0.3 2.7,0.4 0.7,0.1 1.3,0.2 2,0.3 0.2,0 0.8,0.2 1.2,0.4 -0.1,0.1 -0.1,0.2 -0.2,0.2 -0.1,0.1 -0.3,0.2 -0.4,0.4 -0.4,0.3 -0.9,0.6 -1.4,0.9 -0.8,0.5 -1.6,0.9 -2.3,1.4 -1,0.7 -2.2,1.6 -2.2,2.9 0,3.1 4.8,2.8 7,2.8 4.2,0.1 8.4,0.3 12.6,0.5 1.9,0.1 3.6,0.2 5.3,-0.7 1.1,-0.6 2.2,-1.4 2.8,-2.6 0.7,-1.5 0.3,-3.2 -0.2,-4.7 -0.6,-1.6 -1.5,-3.1 -1.9,-4.8 -0.3,-1.6 -0.2,-3.1 -0.2,-4.7 0,-2.2 -0.5,-4.6 -2.5,-5.7 -1.3,-0.8 -2.9,-0.9 -4.4,-0.6 -0.7,0.1 -1.4,0.2 -2,0.5 z"
           id="path97"
           inkscape:connector-curvature="0" /><path
           d="m 742.6,451.9 -12,3.8 c -1.9,0.6 -3.9,1 -5.7,1.8 -1,0.5 -2,1.4 -2.1,2.6 -0.1,1.3 1.1,2.1 2.2,2.6 0.8,0.3 1.7,0.6 2.6,0.8 0.6,0.2 1.3,0.4 1.9,0.6 0.2,0.1 0.7,0.3 1.2,0.5 -0.1,0.1 -0.2,0.2 -0.3,0.2 -0.1,0.1 -0.3,0.2 -0.5,0.3 -0.5,0.3 -1,0.5 -1.5,0.7 -0.8,0.4 -1.7,0.7 -2.5,1.1 -1.1,0.5 -2.3,1.3 -2.6,2.5 -0.5,3.1 4.4,3.4 6.5,3.8 4.1,0.7 8.3,1.4 12.4,2.2 1.9,0.3 3.5,0.7 5.3,0 1.2,-0.4 2.4,-1.1 3.1,-2.2 0.9,-1.3 0.8,-3.1 0.5,-4.7 -0.3,-1.7 -1.1,-3.3 -1.3,-5 -0.1,-1.6 0.3,-3.1 0.5,-4.7 0.3,-2.1 0.2,-4.6 -1.6,-6 -1.2,-0.9 -2.8,-1.3 -4.3,-1.2 -0.4,0 -1.1,0.1 -1.8,0.3 z"
           id="path99"
           inkscape:connector-curvature="0" /></g></g></switch></svg>