<?xml version="1.0" encoding="utf-8"?>
<!-- Generator: Adobe Illustrator 21.1.0, SVG Export Plug-In . SVG Version: 6.00 Build 0)  -->
<svg version="1.1"
	 id="Layer_1" xmlns:cc="http://creativecommons.org/ns#" xmlns:dc="http://purl.org/dc/elements/1.1/" xmlns:inkscape="http://www.inkscape.org/namespaces/inkscape" xmlns:rdf="http://www.w3.org/1999/02/22-rdf-syntax-ns#" xmlns:sodipodi="http://sodipodi.sourceforge.net/DTD/sodipodi-0.dtd" xmlns:svg="http://www.w3.org/2000/svg"
	 xmlns="http://www.w3.org/2000/svg" xmlns:xlink="http://www.w3.org/1999/xlink" x="0px" y="0px" viewBox="118.64447784423828 247.90411376953125 374.693603515625 405.25799560546875"
	 style="enable-background:new 0 0 612 792;" xml:space="preserve">
<sodipodi:namedview  bordercolor="#666666" borderopacity="1" gridtolerance="10" guidetolerance="10" id="namedview17" inkscape:current-layer="Layer_1" inkscape:cx="23.305085" inkscape:cy="500" inkscape:pageopacity="0" inkscape:pageshadow="2" inkscape:window-height="480" inkscape:window-maximized="0" inkscape:window-width="671" inkscape:window-x="0" inkscape:window-y="34" inkscape:zoom="0.236" objecttolerance="10" pagecolor="#ffffff" showgrid="false">
	</sodipodi:namedview>
<path d="M487.9,305c-6.4-17.3-15.9-34.7-32.3-45.8v0c-20-13.6-47-12.6-70.4-8.9c-25.8,4.1-50.7,13.6-77.3,14
	c-24.1,0.3-47.3-7-70.7-12.1c-32.1-6.9-68.9-7.5-92.6,16.7c-15.9,16.2-23.6,38.2-25.5,59.5c-0.9,9.9-0.5,19.9,1.5,29.7
	c12.2,59.4,26.8,118.5,40.2,177.8c6.2,27.4,9.4,57.7,20.9,83.8c7,15.6,20.3,30.1,39.7,32.8c22.2,3.1,37.3-12.8,46.5-28.9
	c6.6-11.6,11.3-24,16.2-36.2c3.7-9.1,7.3-18.3,11.9-27.1c2.5-4.8,6.5-13.9,13.3-11c6.5,2.7,12,22,14.4,27.8
	c5.1,12.2,9.5,24.6,15.2,36.6c7.7,16.2,19,35.5,40.2,38.8c52.2,8.2,59.7-61.9,66.5-91.9c13.5-59.5,26.9-118.9,40.4-178.3
	C492.2,355.1,497.9,331.9,487.9,305z M302.9,493.3c-55.1,0-99.7-44.6-99.7-99.7c0-55.1,44.6-99.7,99.7-99.7
	c55.1,0,99.7,44.6,99.7,99.7C402.6,448.6,357.9,493.3,302.9,493.3z"/>
</svg>
