<?xml version="1.0" encoding="UTF-8" standalone="no"?>
<svg
   xmlns:dc="http://purl.org/dc/elements/1.1/"
   xmlns:cc="http://creativecommons.org/ns#"
   xmlns:rdf="http://www.w3.org/1999/02/22-rdf-syntax-ns#"
   xmlns:svg="http://www.w3.org/2000/svg"
   xmlns="http://www.w3.org/2000/svg"
   xmlns:sodipodi="http://sodipodi.sourceforge.net/DTD/sodipodi-0.dtd"
   xmlns:inkscape="http://www.inkscape.org/namespaces/inkscape"
   version="1.1"
   id="Layer_1"
   x="0px"
   y="0px"
   viewBox="0 0 1000 1000"
   width="100%"
   height="100%"
   style="enable-background:new 0 0 1000 1000;"
   xml:space="preserve"
   ><style
     type="text/css"
     id="style3">
	.noFillSVG{fill:none;}
</style><switch
     id="switch5"
     transform="translate(-74.914883,-10)"><g
       id="g7"><g
         id="g9"><path
           class="noFillSVG"
           d="m 261.6,582.3 13.3,-3.1 c 0,-0.1 -0.1,-0.1 -0.1,-0.2 -4.7,-20.7 -7.3,-41.9 -7.7,-63.1 l -13.5,0.3 c 0.4,22.1 3.1,44.3 8,65.9 0,0 0,0.1 0,0.2 z"
           id="path11"
           inkscape:connector-curvature="0"
           style="fill:none" /><path
           class="noFillSVG"
           d="m 300,623.9 c -6,-14.2 -10.6,-29 -14.3,-43.9 0,-0.1 0,-0.2 0,-0.2 l -33.5,8 c 0,0.1 0.1,0.1 0.1,0.2 1,5 2.6,9.9 3.9,14.8 l 17.5,-5.1 c 2,-0.6 2.8,2.3 0.8,2.9 l -17.5,5.3 c 0.6,2.1 1.2,4.2 2,6.2 l 6.6,-2.1 c 2,-0.6 3,2.3 1,3 l -6.5,2.2 1.8,5.4 6.5,-2.3 c 2,-0.7 3,2.2 1,3 l -6.5,2.4 c 0.8,2.3 1.8,4.6 2.7,6.9 l 6.4,-2.5 c 2,-0.8 3.1,2.1 1.1,2.9 l -6.4,2.6 2.4,6.1 17.6,-7.4 c 1.9,-0.8 3.2,1.9 1.2,2.7 l -17.5,7.6 2.8,6.3 6.3,-2.9 c 1.9,-0.9 3.2,2 1.3,2.8 l -6.2,2.9 c 0.8,1.7 1.6,3.4 2.5,5.1 l 6.2,-3 c 1.9,-0.9 3.3,1.8 1.4,2.8 l -6.2,3.1 3.4,6.6 6.1,-3.2 c 1.8,-1 3.2,1.8 1.5,2.8 l -6.1,3.3 3.7,6.4 17.8,-10.2 c 1.8,-1 3.3,1.5 1.5,2.6 l -17.7,10 c 1,1.6 1.9,3.3 2.9,4.9 L 320.9,665 c -8,-13.2 -15,-26.9 -20.9,-41.1 z"
           id="path13"
           inkscape:connector-curvature="0"
           style="fill:none" /><path
           class="noFillSVG"
           d="m 404.5,782.6 7.2,-11.6 c -0.1,0 -0.2,0 -0.2,-0.1 -18,-11.3 -34.8,-24.4 -50.1,-39.2 l -9.4,9.7 c 16,15.4 33.5,29.1 52.3,40.9 0.1,0.2 0.1,0.3 0.2,0.3 z"
           id="path15"
           inkscape:connector-curvature="0"
           style="fill:none" /><path
           class="noFillSVG"
           d="m 310,675.2 c 0.1,0.1 0.3,0.2 0.4,0.4 l 3.2,5.1 3.7,-2.4 -3.5,-5.4 -3.8,2.3 z"
           id="path17"
           inkscape:connector-curvature="0"
           style="fill:none" /><path
           class="noFillSVG"
           d="m 409.3,245.5 -5.1,3.2 2.4,3.7 5.4,-3.5 -2.4,-3.9 c 0,0.2 -0.1,0.4 -0.3,0.5 z"
           id="path19"
           inkscape:connector-curvature="0"
           style="fill:none" /><path
           class="noFillSVG"
           d="m 504.4,814.2 c 0.2,0 0.3,0 0.5,0 l 5.9,1.4 0.9,-4.4 -6.2,-1.4 -1.1,4.4 z"
           id="path21"
           inkscape:connector-curvature="0"
           style="fill:none" /><path
           class="noFillSVG"
           d="m 461,784.9 c -14.2,-6 -28,-13 -41.2,-21 -0.1,0 -0.1,-0.1 -0.2,-0.2 l -18,29.4 c 0.1,0 0.2,0 0.3,0.1 4.4,2.6 8.8,5.1 13.2,7.7 l 8.8,-16 c 1,-1.8 3.6,-0.4 2.6,1.4 l -8.6,16.1 5.8,3 3.1,-6.1 c 1,-1.9 3.7,-0.4 2.8,1.4 l -3.1,6.2 c 1.7,0.9 3.4,1.8 5.1,2.6 l 3,-6.2 c 0.9,-1.9 3.7,-0.6 2.8,1.3 l -2.9,6.2 6.7,3 2.8,-6.3 c 0.8,-1.9 3.7,-0.6 2.8,1.3 l -2.7,6.3 c 2,0.9 4,1.6 6,2.5 l 7.2,-17.7 c 0.8,-1.9 3.6,-0.8 2.8,1.1 l -7,17.7 6.4,2.5 2.4,-6.5 c 0.7,-1.9 3.6,-0.9 2.9,1.1 l -2.3,6.5 5.4,1.8 2.2,-6.5 c 0.7,-2 3.6,-1 3,1 l -2.2,6.6 c 2.3,0.8 4.6,1.7 7,2.3 l 2,-6.6 c 0.6,-2 3.6,-1.1 3,0.9 l -1.9,6.6 7.1,2 5.3,-19.8 c 0.5,-2 3.4,-1.2 2.9,0.8 l -5.1,19.8 c 1.8,0.5 3.7,0.9 5.6,1.3 l 8,-33.4 C 490,795.5 475.2,790.9 461,784.9 Z"
           id="path23"
           inkscape:connector-curvature="0"
           style="fill:none" /><path
           class="noFillSVG"
           d="m 496.9,187.4 c -5,1 -9.9,2.6 -14.8,3.9 l 5.1,17.5 c 0.6,2 -2.3,2.8 -2.9,0.8 L 479,192.1 c -2.1,0.6 -4.2,1.2 -6.2,2 l 2.1,6.6 c 0.6,2 -2.3,3 -3,1 l -2.2,-6.5 -5.4,1.8 2.3,6.5 c 0.7,2 -2.2,3 -3,1 l -2.4,-6.5 c -2.3,0.8 -4.6,1.8 -6.9,2.7 l 2.5,6.4 c 0.8,2 -2.1,3.1 -2.9,1.1 l -2.6,-6.4 -6.1,2.4 7.4,17.6 c 0.8,1.9 -1.9,3.2 -2.7,1.2 l -7.6,-17.5 -6.3,2.8 2.9,6.3 c 0.9,1.9 -2,3.2 -2.8,1.3 l -2.9,-6.2 c -1.7,0.8 -3.4,1.6 -5.1,2.5 l 3.1,6.2 c 0.9,1.9 -1.8,3.3 -2.8,1.4 l -3.1,-6.2 -6.6,3.4 3.2,6.1 c 1,1.8 -1.8,3.2 -2.8,1.5 l -3.3,-6.1 -6.4,3.7 10.2,17.8 c 1,1.8 -1.5,3.3 -2.6,1.5 l -10.4,-17.7 c -1.6,1 -3.3,1.9 -4.9,2.9 l 17.9,29.3 c 13.2,-8 27,-15 41.2,-20.9 14.2,-6 29,-10.6 43.9,-14.3 0.1,0 0.2,0 0.2,0 l -8,-33.5 c 0.2,0 0.1,0.1 0,0.1 z"
           id="path25"
           inkscape:connector-curvature="0"
           style="fill:none" /><path
           class="noFillSVG"
           d="m 688.8,235.1 c 14.2,6 28,13 41.2,21 0.1,0 0.1,0.1 0.2,0.2 l 18,-29.4 c -0.1,0 -0.2,0 -0.3,-0.1 -4.4,-2.6 -8.8,-5.1 -13.2,-7.7 l -8.8,16 c -1,1.8 -3.6,0.4 -2.6,-1.4 l 8.6,-16.1 -5.8,-3 -3.1,6.1 c -1,1.9 -3.7,0.4 -2.8,-1.4 l 3.1,-6.2 c -1.7,-0.9 -3.4,-1.8 -5.1,-2.6 l -3,6.2 c -0.9,1.9 -3.7,0.6 -2.8,-1.3 l 2.9,-6.2 -6.7,-3 -2.8,6.3 c -0.8,1.9 -3.7,0.6 -2.8,-1.3 l 2.7,-6.3 c -2,-0.9 -4,-1.6 -6,-2.5 l -7.2,17.7 c -0.8,1.9 -3.6,0.8 -2.8,-1.1 l 7,-17.7 -6.4,-2.5 -2.4,6.5 c -0.7,1.9 -3.6,0.9 -2.9,-1.1 l 2.3,-6.5 -5.4,-1.8 -2.2,6.5 c -0.7,2 -3.6,1 -3,-1 l 2.2,-6.5 c -2.3,-0.8 -4.6,-1.7 -7,-2.3 l -2,6.6 c -0.6,2 -3.6,1.1 -3,-0.9 l 1.9,-6.6 -7.1,-2 -5.3,19.8 c -0.5,2 -3.4,1.2 -2.9,-0.8 l 5.1,-19.8 c -1.8,-0.5 -3.7,-0.9 -5.6,-1.3 l -8,33.4 c 14.8,3.5 29.6,8.1 43.8,14.1 z"
           id="path27"
           inkscape:connector-curvature="0"
           style="fill:none" /><path
           class="noFillSVG"
           d="m 300,396.1 c 6,-14.2 13,-28 21,-41.2 0,-0.1 0.1,-0.1 0.2,-0.2 l -29.4,-18 c 0,0.1 0,0.2 -0.1,0.3 -2.6,4.4 -5.1,8.8 -7.7,13.2 l 16,8.8 c 1.8,1 0.4,3.6 -1.4,2.6 l -16.1,-8.6 -3,5.8 6.1,3.1 c 1.9,1 0.4,3.7 -1.4,2.8 l -6.2,-3.1 c -0.8,1.7 -1.8,3.4 -2.6,5.1 l 6.2,3 c 1.9,0.9 0.6,3.7 -1.3,2.8 l -6.2,-2.9 -3,6.7 6.3,2.8 c 1.9,0.8 0.6,3.7 -1.3,2.8 l -6.3,-2.7 c -0.9,2 -1.6,4 -2.5,6 l 17.7,7.2 c 1.9,0.8 0.8,3.6 -1.1,2.8 l -17.7,-7 -2.5,6.4 6.5,2.4 c 1.9,0.7 0.9,3.6 -1.1,2.9 l -6.5,-2.3 -1.8,5.4 6.5,2.2 c 2,0.7 1,3.6 -1,3 l -6.5,-2.2 c -0.8,2.3 -1.7,4.6 -2.3,7 l 6.6,2 c 2,0.6 1.1,3.6 -0.9,3 l -6.6,-1.9 -2,7.1 19.8,5.3 c 2,0.5 1.2,3.4 -0.8,2.9 l -19.8,-5.1 c -0.5,1.8 -0.9,3.7 -1.3,5.6 l 33.4,8 c 3.5,-14.8 8.1,-29.6 14.1,-43.8 z"
           id="path29"
           inkscape:connector-curvature="0"
           style="fill:none" /><path
           class="noFillSVG"
           d="m 745.3,237.4 -7.2,11.6 c 0.1,0 0.2,0 0.2,0.1 18,11.3 34.8,24.4 50.1,39.2 l 9.4,-9.7 c -16,-15.4 -33.5,-29.1 -52.3,-40.9 -0.1,-0.2 -0.1,-0.2 -0.2,-0.3 z"
           id="path31"
           inkscape:connector-curvature="0"
           style="fill:none" /><path
           class="noFillSVG"
           d="m 313.9,346.6 c 11.3,-18 24.4,-34.8 39.2,-50.1 l -9.7,-9.4 c -15.4,16 -29.1,33.5 -40.9,52.3 -0.1,0.1 -0.1,0.1 -0.2,0.2 l 11.6,7.2 c 0,0 0,-0.1 0,-0.2 z"
           id="path33"
           inkscape:connector-curvature="0"
           style="fill:none" /><path
           class="noFillSVG"
           d="m 270.7,440 -1.4,5.9 4.4,0.9 1.4,-6.2 -4.5,-1 c 0.2,0.1 0.2,0.3 0.1,0.4 z"
           id="path35"
           inkscape:connector-curvature="0"
           style="fill:none" /><path
           class="noFillSVG"
           d="m 645.4,205.8 c -0.2,0 -0.3,0 -0.5,0 l -5.8,-1.4 -0.9,4.4 6.2,1.4 1,-4.4 z"
           id="path37"
           inkscape:connector-curvature="0"
           style="fill:none" /><path
           class="noFillSVG"
           d="m 839.8,344.8 c -0.1,-0.1 -0.3,-0.2 -0.4,-0.4 l -3.2,-5.1 -3.7,2.4 3.5,5.4 3.8,-2.3 z"
           id="path39"
           inkscape:connector-curvature="0"
           style="fill:none" /><path
           class="noFillSVG"
           d="m 879.1,580 1.4,-5.8 -4.4,-0.9 -1.4,6.2 4.5,1 c -0.2,-0.2 -0.2,-0.3 -0.1,-0.5 z"
           id="path41"
           inkscape:connector-curvature="0"
           style="fill:none" /><path
           class="noFillSVG"
           d="m 835.9,673.4 c -11.3,18 -24.4,34.8 -39.2,50.1 l 9.7,9.4 c 15.4,-16 29.1,-33.5 40.9,-52.3 0.1,-0.1 0.1,-0.1 0.2,-0.2 l -11.6,-7.2 c 0,0.1 0,0.1 0,0.2 z"
           id="path43"
           inkscape:connector-curvature="0"
           style="fill:none" /><path
           class="noFillSVG"
           d="m 849.8,623.9 c -6,14.2 -13,28 -21,41.2 0,0.1 -0.1,0.1 -0.2,0.2 l 29.4,18 c 0,-0.1 0,-0.2 0.1,-0.3 2.6,-4.4 5.1,-8.8 7.7,-13.2 l -16,-8.8 c -1.8,-1 -0.4,-3.6 1.4,-2.6 l 16.1,8.6 3,-5.8 -6.1,-3.1 c -1.9,-1 -0.4,-3.7 1.4,-2.8 l 6.2,3.1 c 0.8,-1.7 1.8,-3.4 2.6,-5.1 l -6.2,-3 c -1.9,-0.9 -0.6,-3.7 1.3,-2.8 l 6.2,2.9 3,-6.7 -6.3,-2.8 c -1.9,-0.8 -0.6,-3.7 1.3,-2.8 l 6.3,2.7 c 0.9,-2 1.6,-4 2.5,-6 l -17.7,-7.2 c -1.9,-0.8 -0.8,-3.6 1.1,-2.8 l 17.7,7 2.5,-6.4 -6.5,-2.4 c -1.9,-0.7 -0.9,-3.6 1.1,-2.9 l 6.5,2.3 1.8,-5.4 -6.5,-2.2 c -2,-0.7 -1,-3.6 1,-3 l 6.5,2.2 c 0.8,-2.3 1.7,-4.6 2.3,-7 l -6.6,-2 c -2,-0.6 -1.1,-3.6 0.9,-3 l 6.6,1.9 2,-7.1 -19.8,-5.3 c -2,-0.5 -1.2,-3.4 0.8,-2.9 l 19.8,5.1 c 0.5,-1.8 0.9,-3.7 1.3,-5.6 l -33.4,-8 c -3.5,14.8 -8.1,29.6 -14.1,43.8 z"
           id="path45"
           inkscape:connector-curvature="0"
           style="fill:none" /><path
           class="noFillSVG"
           d="m 893.5,417.3 -17.5,5.1 c -2,0.6 -2.8,-2.3 -0.8,-2.9 l 17.5,-5.3 c -0.6,-2.1 -1.2,-4.2 -2,-6.2 l -6.6,2.1 c -2,0.6 -3,-2.3 -1,-3 l 6.5,-2.2 -1.8,-5.4 -6.5,2.3 c -2,0.7 -3,-2.2 -1,-3 l 6.5,-2.4 c -0.8,-2.3 -1.8,-4.6 -2.7,-6.9 l -6.4,2.5 c -2,0.8 -3.1,-2.1 -1.1,-2.9 l 6.4,-2.6 -2.4,-6.1 -17.6,7.6 c -1.9,0.8 -3.2,-1.9 -1.2,-2.7 l 17.5,-7.6 -2.8,-6.3 -6.3,2.9 c -1.9,0.9 -3.2,-2 -1.3,-2.8 l 6.2,-2.9 c -0.8,-1.7 -1.6,-3.4 -2.5,-5.1 l -6.2,3.1 c -1.9,0.9 -3.3,-1.8 -1.4,-2.8 l 6.2,-3.1 -3.4,-6.6 -6.1,3.2 c -1.8,1 -3.2,-1.8 -1.5,-2.8 l 6.1,-3.3 -3.7,-6.4 -17.7,10.2 c -1.8,1 -3.3,-1.5 -1.5,-2.6 L 861.1,342 c -1,-1.6 -1.9,-3.3 -2.9,-4.9 L 828.9,355 c 8,13.2 15,27 20.9,41.2 6,14.2 10.6,29 14.3,43.9 0,0.1 0,0.2 0,0.2 l 33.5,-8 c 0,-0.1 -0.1,-0.1 -0.1,-0.2 -1.1,-5 -2.6,-9.9 -4,-14.8 z"
           id="path47"
           inkscape:connector-curvature="0"
           style="fill:none" /><path
           class="noFillSVG"
           d="m 888.2,437.7 -13.3,3.1 c 0,0.1 0.1,0.1 0.1,0.2 4.7,20.7 7.3,41.9 7.7,63.1 l 13.5,-0.3 c -0.4,-22.1 -3.1,-44.3 -8,-65.9 -0.1,0 0,-0.1 0,-0.2 z"
           id="path49"
           inkscape:connector-curvature="0"
           style="fill:none" /><path
           class="noFillSVG"
           d="m 688.7,784.9 c -14.2,6 -29,10.6 -43.9,14.3 -0.1,0 -0.2,0 -0.2,0 l 8,33.5 c 0.1,0 0.1,-0.1 0.2,-0.1 5,-1 9.9,-2.6 14.8,-3.9 l -5.1,-17.5 c -0.6,-2 2.3,-2.8 2.9,-0.8 l 5.3,17.5 c 2.1,-0.6 4.2,-1.2 6.2,-2 l -2.1,-6.6 c -0.6,-2 2.3,-3 3,-1 l 2.2,6.5 5.4,-1.8 -2.3,-6.5 c -0.7,-2 2.2,-3 3,-1 l 2.4,6.5 c 2.3,-0.8 4.6,-1.8 6.9,-2.7 l -2.5,-6.4 c -0.8,-2 2.1,-3.1 2.9,-1.1 l 2.6,6.4 6.1,-2.4 -7.4,-17.6 c -0.8,-1.9 1.9,-3.2 2.7,-1.2 l 7.6,17.5 6.3,-2.8 -2.9,-6.3 c -0.9,-1.9 2,-3.2 2.8,-1.3 l 2.9,6.2 c 1.7,-0.8 3.4,-1.6 5.1,-2.5 l -3.1,-6.2 c -0.9,-1.9 1.8,-3.3 2.8,-1.4 l 3.1,6.2 6.6,-3.4 -3.2,-6.1 c -1,-1.8 1.8,-3.2 2.8,-1.5 l 3.3,6.1 6.4,-3.7 -10.4,-17.8 c -1,-1.8 1.5,-3.3 2.6,-1.5 l 10.4,17.7 c 1.6,-1 3.3,-1.9 4.9,-2.9 L 729.9,764 c -13.2,8 -27,15 -41.2,20.9 z"
           id="path51"
           inkscape:connector-curvature="0"
           style="fill:none" /><path
           class="noFillSVG"
           d="m 502.9,196.7 c -0.1,0 -0.2,0 -0.3,0 l 3.1,13.3 c 0.1,0 0.1,-0.1 0.2,-0.1 20.7,-4.7 41.9,-7.3 63.1,-7.7 l -0.3,-13.5 c -22.1,0.4 -44.2,3.1 -65.8,8 z"
           id="path53"
           inkscape:connector-curvature="0"
           style="fill:none" /><path
           class="noFillSVG"
           d="m 643.9,810.1 c -20.7,4.7 -41.9,7.3 -63.1,7.7 l 0.3,13.5 c 22.1,-0.4 44.3,-3.1 65.9,-8 0.1,0 0.2,0 0.3,0 L 644.2,810 c -0.2,0 -0.2,0.1 -0.3,0.1 z"
           id="path55"
           inkscape:connector-curvature="0"
           style="fill:none" /><path
           class="noFillSVG"
           d="m 737.7,771 2.4,3.9 c 0.1,-0.1 0.2,-0.3 0.4,-0.4 l 5.1,-3.2 -2.4,-3.7 -5.5,3.4 z"
           id="path57"
           inkscape:connector-curvature="0"
           style="fill:none" /><path
           d="m 899.4,585.3 c -0.2,-0.1 -0.3,-0.2 -0.5,-0.2 l -16.8,-3.9 c 0.1,-0.1 0.2,-0.3 0.2,-0.5 l 1.7,-7.4 c 0.1,-0.7 -0.3,-1.3 -0.8,-1.6 -0.2,-0.1 -0.4,-0.2 -0.7,-0.3 l -2.7,-0.5 1.9,-10.8 0.5,-2.7 0.3,-2.7 0.7,-5.4 c 1.1,-7.2 1.5,-14.5 2,-21.8 0.1,-1.9 -3.1,-2.1 -3.2,-0.2 -0.6,7.2 -0.9,14.4 -2,21.6 l -0.7,5.4 -0.3,2.7 -0.5,2.7 -1.9,10.7 -1.6,-0.4 c -1.1,-0.2 -1.7,0.5 -1.8,1.3 0,0.1 -0.1,0.2 -0.2,0.3 l -1.6,7.1 -8.3,-1.9 c -0.4,-0.1 -0.8,0 -1.1,0.1 l -0.1,0 -0.1,0.1 c -0.3,0.2 -0.5,0.4 -0.6,0.8 l -1.3,5.7 -1.6,5.6 -1.6,5.6 -0.8,2.8 -0.9,2.7 -3.7,11 -4.3,10.8 c -5.9,14.3 -13,28.1 -21,41.4 0,0.1 -0.1,0.2 -0.1,0.2 l -10,-6.1 c -1.8,-1.1 -3.2,1.2 -1.5,2.3 l 18.7,11.7 c -0.1,0.1 -0.1,0.1 -0.2,0.2 -11.2,17.8 -24.2,34.4 -38.7,49.5 l -8,-7.7 c -1.5,-1.4 -3.4,0.6 -1.9,2 l 30.1,29.5 c 1.5,1.5 3.7,-0.9 2.2,-2.3 l -8,-7.7 c 15.5,-16.1 29.4,-33.8 41.3,-52.8 0.1,-0.1 0.1,-0.2 0.1,-0.2 l 18.7,11.7 c 1.8,1.1 3.6,-1.7 1.8,-2.8 l -10,-6.1 c 0.1,-0.1 0.1,-0.1 0.2,-0.2 9.1,-15.1 17.1,-30.9 23.9,-47.2 l 4.9,-12.3 4.2,-12.5 1.1,-3.1 0.9,-3.2 1.8,-6.4 1.8,-6.4 1.5,-6.4 c 0.5,-1.1 -0.5,-1.8 -1.4,-1.8 z m -23.4,-12.1 4.4,0.9 -1.4,5.8 c 0,0.2 0,0.4 0,0.5 l -4.5,-1 1.5,-6.2 z m -28.7,107.4 c -11.8,18.8 -25.5,36.3 -40.9,52.3 l -9.7,-9.4 c 14.7,-15.3 27.9,-32.1 39.2,-50.1 0.1,-0.1 0.1,-0.2 0.1,-0.2 l 11.6,7.2 c -0.2,0.1 -0.2,0.1 -0.3,0.2 z m 48.8,-87 -19.8,-5.1 c -2,-0.5 -2.8,2.3 -0.8,2.9 l 19.8,5.3 -2,7.1 -6.6,-1.9 c -2,-0.6 -2.9,2.4 -0.9,3 l 6.6,2 c -0.6,2.4 -1.5,4.7 -2.3,7 l -6.5,-2.2 c -2,-0.6 -3,2.3 -1,3 l 6.5,2.2 -1.8,5.4 -6.5,-2.3 c -1.9,-0.7 -3,2.2 -1.1,2.9 l 6.5,2.4 -2.5,6.4 -17.7,-7 c -1.9,-0.8 -3,2 -1.1,2.8 l 17.7,7.2 c -0.8,2 -1.5,4.1 -2.5,6 l -6.3,-2.7 c -1.9,-0.8 -3.2,2 -1.3,2.8 l 6.3,2.8 -3,6.7 -6.2,-2.9 c -1.9,-0.9 -3.2,1.9 -1.3,2.8 l 6.2,3 c -0.8,1.7 -1.7,3.4 -2.6,5.1 l -6.2,-3.1 c -1.9,-0.9 -3.3,1.8 -1.4,2.8 l 6.1,3.1 -3,5.8 -16.1,-8.6 c -1.8,-1 -3.3,1.6 -1.4,2.6 l 16,8.8 c -2.6,4.4 -5,8.9 -7.7,13.2 -0.1,0.1 -0.1,0.2 -0.1,0.3 l -29.4,-18 c 0.1,-0.1 0.1,-0.1 0.2,-0.2 8,-13.2 15,-27 21,-41.2 6,-14.2 10.6,-29 14.3,-43.9 l 33.4,8 c -0.6,2 -1,3.8 -1.5,5.7 z"
           id="path59"
           inkscape:connector-curvature="0" /><path
           d="m 779.9,739.4 -8.2,7.1 c -2.8,2.3 -5.7,4.5 -8.5,6.8 l -4.3,3.4 -4.4,3.1 c -3,2.1 -5.9,4.3 -8.9,6.2 l -0.9,-1.3 c -0.6,-0.9 -1.6,-0.9 -2.2,-0.4 -0.1,0 -0.2,0.1 -0.3,0.1 l -6.2,4 -4.5,-7.2 c -0.2,-0.4 -0.5,-0.6 -0.8,-0.7 l -0.1,-0.1 -0.1,0 c -0.3,-0.1 -0.6,-0.1 -1,0.1 -13.2,8.1 -27,15.2 -41.3,21.2 -14.3,6 -29.1,10.7 -44.1,14.4 -0.1,0 -0.1,0.1 -0.2,0.1 l -2.7,-11.4 c -0.5,-2 -3.1,-1.4 -2.6,0.6 l 4.9,21.5 c -0.1,0 -0.2,0 -0.3,0 -20.5,4.7 -41.4,7.2 -62.4,7.6 l -0.2,-11.1 c 0,-2.1 -2.8,-2 -2.8,0.1 l 0.4,42.2 c 0,2.1 3.3,2 3.2,-0.1 l -0.2,-11.1 c 22.4,-0.4 44.7,-3.1 66.5,-8.1 0.1,0 0.2,-0.1 0.2,-0.1 l 4.9,21.5 c 0.5,2 3.7,1.3 3.3,-0.8 l -2.7,-11.4 c 0.1,0 0.2,0 0.3,0 17.1,-4.2 34,-9.5 50.3,-16.4 16.3,-6.9 32,-15 47,-24.2 1,-0.6 0.8,-1.8 0.2,-2.5 0,-0.2 -0.1,-0.4 -0.2,-0.5 l -9.2,-14.7 c 0.2,0 0.3,-0.1 0.5,-0.2 l 6.4,-4.1 c 0.6,-0.4 0.7,-1 0.6,-1.6 0,-0.2 -0.1,-0.4 -0.3,-0.7 l -1.5,-2.2 c 3.1,-2 6,-4.2 9,-6.3 l 4.5,-3.2 4.3,-3.4 c 2.9,-2.3 5.8,-4.5 8.6,-6.8 l 8.3,-7.2 c 1.3,-1 -0.9,-3.4 -2.3,-2.2 z m -133,83.9 c -21.6,4.9 -43.7,7.6 -65.9,8 l -0.3,-13.5 c 21.2,-0.4 42.4,-3 63.1,-7.7 0.1,0 0.1,-0.1 0.2,-0.1 l 3.1,13.3 c 0,0 -0.1,0 -0.2,0 z m 100.9,-30 c -1.6,1 -3.3,1.9 -4.9,2.9 l -10.4,-17.7 c -1.1,-1.8 -3.6,-0.3 -2.6,1.5 l 10.2,17.8 -6.4,3.7 -3.3,-6.1 c -1,-1.8 -3.7,-0.4 -2.8,1.5 l 3.2,6.1 -6.6,3.4 -3.1,-6.2 c -0.9,-1.9 -3.7,-0.5 -2.8,1.4 l 3.1,6.2 c -1.7,0.9 -3.4,1.7 -5.1,2.5 l -2.9,-6.2 c -0.9,-1.9 -3.7,-0.6 -2.8,1.3 l 2.9,6.3 -6.3,2.8 -7.6,-17.5 c -0.8,-1.9 -3.6,-0.7 -2.7,1.2 l 7.4,17.6 -6.1,2.4 -2.6,-6.4 c -0.8,-1.9 -3.7,-0.8 -2.9,1.1 l 2.5,6.4 c -2.3,0.9 -4.6,1.8 -6.9,2.7 l -2.4,-6.5 c -0.7,-2 -3.7,-1 -3,1 l 2.3,6.5 -5.4,1.8 -2.2,-6.5 c -0.7,-2 -3.6,-1 -3,1 l 2.1,6.6 c -2.1,0.7 -4.1,1.4 -6.2,2 l -5.3,-17.5 c -0.6,-2 -3.5,-1.2 -2.9,0.8 l 5.1,17.5 c -4.9,1.4 -9.8,2.9 -14.8,3.9 -0.1,0 -0.2,0.1 -0.2,0.1 l -8,-33.5 c 0.1,0 0.2,0 0.2,0 15,-3.7 29.7,-8.3 43.9,-14.3 14.2,-6 28,-13 41.2,-20.9 l 18.1,29.3 z m -7.3,-18.7 c -0.2,0.1 -0.3,0.2 -0.4,0.4 l -2.4,-3.9 5.4,-3.5 2.4,3.7 -5,3.3 z"
           id="path61"
           inkscape:connector-curvature="0" /><path
           d="m 557.6,817.2 c -7.2,-0.6 -14.4,-0.9 -21.6,-2 l -5.4,-0.7 -2.7,-0.3 -2.7,-0.5 -10.7,-1.9 0.3,-1.6 c 0.2,-1.1 -0.5,-1.7 -1.3,-1.8 -0.1,0 -0.2,-0.1 -0.3,-0.2 l -7.1,-1.6 1.9,-8.3 c 0.1,-0.4 0,-0.8 -0.1,-1.1 l 0,-0.1 -0.1,-0.1 c -0.2,-0.3 -0.4,-0.5 -0.8,-0.6 l -5.7,-1.3 -5.6,-1.6 -5.6,-1.6 -2.8,-0.8 -2.7,-0.9 -11,-3.7 -10.8,-4.3 c -14.3,-5.9 -28.1,-13 -41.4,-21 -0.1,0 -0.2,-0.1 -0.2,-0.1 l 6.1,-10 c 1.1,-1.8 -1.2,-3.2 -2.3,-1.5 l -11.7,18.7 c -0.1,-0.1 -0.1,-0.1 -0.2,-0.2 -17.8,-11.2 -34.4,-24.2 -49.5,-38.7 l 7.7,-8 c 1.4,-1.5 -0.6,-3.4 -2,-1.9 l -29.5,30.1 c -1.5,1.5 0.9,3.7 2.3,2.2 l 7.7,-8 c 16.1,15.5 33.8,29.4 52.8,41.3 0.1,0.1 0.2,0.1 0.2,0.1 L 391.1,804 c -1.1,1.8 1.7,3.6 2.8,1.8 l 6.1,-10 c 0.1,0.1 0.1,0.1 0.2,0.2 15.1,9.1 30.9,17.1 47.2,23.9 l 12.3,4.9 12.5,4.2 3.1,1.1 3.2,0.9 6.4,1.8 6.4,1.8 6.4,1.5 c 1.2,0.3 1.9,-0.7 1.9,-1.6 0.1,-0.2 0.2,-0.3 0.2,-0.5 l 3.9,-16.8 c 0.1,0.1 0.3,0.2 0.5,0.2 l 7.4,1.7 c 0.7,0.1 1.3,-0.3 1.6,-0.8 0.1,-0.2 0.2,-0.4 0.3,-0.7 l 0.5,-2.7 10.8,1.9 2.7,0.5 2.7,0.3 5.4,0.7 c 7.2,1.1 14.5,1.5 21.8,2 2,0.3 2.1,-3 0.2,-3.1 z M 352,741.6 l 9.4,-9.7 c 15.3,14.7 32.1,27.9 50.1,39.2 0.1,0.1 0.2,0.1 0.2,0.1 l -7.2,11.6 c -0.1,-0.1 -0.1,-0.1 -0.2,-0.2 -18.8,-12 -36.3,-25.7 -52.3,-41 z m 144.9,91 c -1.9,-0.4 -3.7,-0.8 -5.6,-1.3 l 5.1,-19.8 c 0.5,-2 -2.3,-2.8 -2.9,-0.8 l -5.3,19.8 -7.1,-2 1.9,-6.6 c 0.6,-2 -2.4,-2.9 -3,-0.9 l -2,6.6 c -2.4,-0.6 -4.7,-1.5 -7,-2.3 l 2.2,-6.6 c 0.6,-2 -2.3,-3 -3,-1 l -2.2,6.5 -5.4,-1.8 2.3,-6.5 c 0.7,-1.9 -2.2,-3 -2.9,-1.1 l -2.4,6.5 -6.4,-2.5 7,-17.7 c 0.8,-1.9 -2,-3 -2.8,-1.1 l -7.2,17.7 c -2,-0.8 -4.1,-1.5 -6,-2.5 l 2.7,-6.3 c 0.8,-1.9 -2,-3.2 -2.8,-1.3 l -2.8,6.3 -6.7,-3 2.9,-6.2 c 0.9,-1.9 -1.9,-3.2 -2.8,-1.3 l -3,6.2 c -1.7,-0.8 -3.4,-1.7 -5.1,-2.6 l 3.1,-6.2 c 0.9,-1.9 -1.8,-3.3 -2.8,-1.4 l -3.1,6.1 -5.8,-3 8.6,-16.1 c 1,-1.8 -1.6,-3.3 -2.6,-1.4 l -8.8,16 c -4.4,-2.6 -8.9,-5 -13.2,-7.7 -0.1,-0.1 -0.2,-0.1 -0.3,-0.1 l 18,-29.4 c 0.1,0.1 0.1,0.1 0.2,0.2 13.2,8 27,15 41.2,21 14.2,6 29,10.6 43.9,14.3 l -8.1,33.3 z m 13.9,-17.1 -5.9,-1.4 c -0.2,0 -0.4,0 -0.5,0 l 1,-4.5 6.2,1.4 -0.8,4.5 z"
           id="path63"
           inkscape:connector-curvature="0" /><path
           d="m 345.5,715 -7.1,-8.2 c -2.3,-2.8 -4.5,-5.7 -6.8,-8.5 l -3.4,-4.3 -3.1,-4.4 c -2.1,-3 -4.3,-5.9 -6.2,-8.9 l 1.3,-0.9 c 0.9,-0.6 0.9,-1.6 0.4,-2.2 0,-0.1 -0.1,-0.2 -0.1,-0.3 l -4,-6.2 7.2,-4.5 c 0.4,-0.2 0.6,-0.5 0.7,-0.8 l 0.1,-0.1 0,-0.1 c 0.1,-0.3 0.1,-0.6 -0.1,-1 -8.1,-13.2 -15.2,-27 -21.2,-41.3 -6,-14.3 -10.7,-29.1 -14.4,-44.1 0,-0.1 -0.1,-0.1 -0.1,-0.2 l 11.4,-2.7 c 2,-0.5 1.4,-3.1 -0.6,-2.6 l -21.5,4.9 c 0,-0.1 0,-0.2 0,-0.3 -4.7,-20.5 -7.2,-41.4 -7.6,-62.4 l 11.1,-0.2 c 2.1,0 2,-2.8 -0.1,-2.8 l -42.2,0.4 c -2.1,0 -2,3.3 0.1,3.2 l 11.1,-0.2 c 0.4,22.4 3.1,44.7 8.1,66.5 0,0.1 0.1,0.2 0.1,0.2 l -21.5,4.9 c -2,0.5 -1.3,3.7 0.8,3.3 l 11.4,-2.7 c 0,0.1 0,0.2 0,0.3 4.2,17.1 9.5,34 16.4,50.3 6.9,16.3 15,32 24.2,47 0.6,1 1.8,0.8 2.5,0.2 0.2,0 0.4,-0.1 0.5,-0.2 l 14.7,-9.2 c 0,0.2 0.1,0.3 0.2,0.5 l 4.1,6.4 c 0.4,0.6 1,0.7 1.6,0.6 0.2,0 0.4,-0.1 0.7,-0.3 l 2.2,-1.5 c 2,3.1 4.2,6 6.3,9 l 3.2,4.5 3.4,4.3 c 2.3,2.9 4.5,5.8 6.8,8.6 l 7.2,8.3 c 1,1.3 3.4,-0.9 2.2,-2.3 z m -91.9,-198.8 13.5,-0.3 c 0.4,21.2 3,42.4 7.7,63.1 0,0.1 0.1,0.1 0.1,0.2 l -13.3,3.1 c 0,-0.1 0,-0.2 0,-0.3 -4.9,-21.6 -7.6,-43.7 -8,-65.8 z m 38,166.8 c -1,-1.6 -1.9,-3.3 -2.9,-4.9 l 17.7,-10.4 c 1.8,-1.1 0.3,-3.6 -1.5,-2.6 l -17.8,10.2 -3.7,-6.4 6.1,-3.3 c 1.8,-1 0.4,-3.7 -1.5,-2.8 l -6,3.2 -3.4,-6.6 6.2,-3.1 c 1.9,-0.9 0.5,-3.7 -1.4,-2.8 l -6.2,3 c -0.9,-1.7 -1.7,-3.4 -2.5,-5.1 l 6.2,-2.9 c 1.9,-0.9 0.6,-3.7 -1.3,-2.8 l -6.3,2.9 -2.8,-6.3 17.5,-7.6 c 1.9,-0.8 0.7,-3.6 -1.2,-2.7 l -17.6,7.4 -2.4,-6.1 6.4,-2.6 c 1.9,-0.8 0.8,-3.7 -1.1,-2.9 l -6.4,2.5 c -0.9,-2.3 -1.8,-4.6 -2.7,-6.9 l 6.5,-2.4 c 2,-0.7 1,-3.7 -1,-3 l -6.5,2.3 -1.8,-5.4 6.5,-2.2 c 2,-0.7 1,-3.6 -1,-3 l -6.6,2.1 c -0.7,-2.1 -1.4,-4.1 -2,-6.2 l 17.5,-5.3 c 2,-0.6 1.2,-3.5 -0.8,-2.9 l -17.5,5.1 c -1.4,-4.9 -2.9,-9.8 -3.9,-14.8 0,-0.1 -0.1,-0.2 -0.1,-0.2 l 33.5,-8 c 0,0.1 0,0.2 0,0.2 3.7,15 8.3,29.7 14.3,43.9 6,14.2 13,28 20.9,41.2 L 291.6,683 Z m 22,-2.3 -3.2,-5.1 c -0.1,-0.2 -0.2,-0.3 -0.4,-0.4 l 3.9,-2.4 3.5,5.4 -3.8,2.5 z"
           id="path65"
           inkscape:connector-curvature="0" /><path
           d="m 250.4,434.7 c 0.2,0.1 0.3,0.2 0.5,0.2 l 16.8,3.9 c -0.1,0.1 -0.2,0.3 -0.2,0.5 l -1.7,7.4 c -0.1,0.7 0.3,1.3 0.8,1.6 0.2,0.1 0.4,0.2 0.7,0.3 l 2.7,0.5 -1.9,10.8 -0.5,2.7 -0.3,2.7 -0.7,5.4 c -1.1,7.2 -1.5,14.5 -2,21.8 -0.1,1.9 3.1,2.1 3.2,0.2 0.6,-7.2 0.9,-14.4 2,-21.6 l 0.7,-5.4 0.3,-2.7 0.5,-2.7 1.9,-10.7 1.6,0.3 c 1.1,0.2 1.7,-0.5 1.8,-1.3 0,-0.1 0.1,-0.2 0.2,-0.3 l 1.6,-7.1 8.3,1.9 c 0.4,0.1 0.8,0 1.1,-0.1 l 0.1,0 0.1,-0.1 c 0.3,-0.2 0.5,-0.4 0.6,-0.8 l 1.3,-5.7 1.6,-5.6 1.6,-5.6 0.8,-2.8 0.9,-2.7 3.7,-11 4.3,-10.8 c 5.9,-14.3 13,-28.1 21,-41.4 0,-0.1 0.1,-0.2 0.1,-0.2 l 10,6.1 c 1.8,1.1 3.2,-1.2 1.5,-2.3 l -18.7,-11.7 c 0.1,-0.1 0.1,-0.1 0.2,-0.2 11.2,-17.8 24.2,-34.4 38.7,-49.5 l 8,7.7 c 1.5,1.4 3.4,-0.6 1.9,-2 l -30.1,-29.5 c -1.5,-1.5 -3.7,0.9 -2.2,2.3 l 8,7.7 c -15.5,16.1 -29.4,33.8 -41.3,52.8 -0.1,0.1 -0.1,0.2 -0.1,0.2 l -18.7,-11.7 c -1.8,-1.1 -3.6,1.7 -1.8,2.8 l 10,6.1 c -0.1,0.1 -0.1,0.1 -0.2,0.2 -9.1,15.1 -17.1,30.9 -23.9,47.2 l -4.9,12.3 -4.2,12.5 -1.1,3.1 -0.9,3.2 -1.8,6.4 -1.8,6.4 -1.5,6.4 c -0.5,1.2 0.5,1.9 1.4,1.9 z m 23.3,12.1 -4.4,-0.9 1.4,-5.9 c 0,-0.2 0,-0.4 0,-0.5 l 4.5,1 -1.5,6.3 z m 28.8,-107.4 c 11.8,-18.8 25.5,-36.3 40.9,-52.3 l 9.7,9.4 c -14.7,15.3 -27.9,32.1 -39.2,50.1 -0.1,0.1 -0.1,0.2 -0.1,0.2 l -11.6,-7.2 c 0.1,-0.1 0.2,-0.1 0.3,-0.2 z m -48.9,87 19.8,5.1 c 2,0.5 2.8,-2.3 0.8,-2.9 l -19.8,-5.3 2,-7.1 6.6,1.9 c 2,0.6 2.9,-2.4 0.9,-3 l -6.6,-2 c 0.6,-2.4 1.5,-4.7 2.3,-7 l 6.5,2.2 c 2,0.6 3,-2.3 1,-3 l -6.5,-2.2 1.8,-5.4 6.5,2.3 c 1.9,0.7 3,-2.2 1.1,-2.9 l -6.5,-2.4 2.5,-6.4 17.7,7 c 1.9,0.8 3,-2 1.1,-2.8 l -17.7,-7.2 c 0.8,-2 1.5,-4.1 2.5,-6 l 6.3,2.7 c 1.9,0.8 3.2,-2 1.3,-2.8 l -6.3,-2.8 3,-6.7 6.2,2.9 c 1.9,0.9 3.2,-1.9 1.3,-2.8 l -6.2,-3 c 0.8,-1.7 1.7,-3.4 2.6,-5.1 l 6.2,3.1 c 1.9,0.9 3.3,-1.8 1.4,-2.8 l -6.1,-3.1 3,-5.8 16.1,8.6 c 1.8,1 3.3,-1.6 1.4,-2.6 l -16,-8.8 c 2.6,-4.4 5,-8.9 7.7,-13.2 0.1,-0.1 0.1,-0.2 0.1,-0.3 l 29.4,18 c -0.1,0.1 -0.1,0.1 -0.2,0.2 -8,13.2 -15,27 -21,41.2 -6,14.2 -10.6,29 -14.3,43.9 l -33.4,-8 c 0.7,-2 1,-3.8 1.5,-5.7 z"
           id="path67"
           inkscape:connector-curvature="0" /><path
           d="m 568.5,174.4 0.2,11.1 c -22.4,0.4 -44.7,3.1 -66.5,8.1 -0.1,0 -0.2,0.1 -0.2,0.1 l -4.9,-21.5 c -0.5,-2 -3.7,-1.3 -3.3,0.8 l 2.7,11.4 c -0.1,0 -0.2,0 -0.3,0 -17.1,4.2 -34,9.5 -50.3,16.4 -16.3,6.9 -32,15 -47,24.2 -1,0.6 -0.8,1.8 -0.2,2.5 0,0.2 0.1,0.4 0.2,0.5 l 9.2,14.7 c -0.2,0 -0.3,0.1 -0.5,0.2 l -6.4,4.1 c -0.6,0.4 -0.7,1 -0.6,1.6 0,0.2 0.1,0.4 0.3,0.7 l 1.5,2.2 c -3.1,2 -6,4.2 -9,6.3 l -4.5,3.2 -4.3,3.4 c -2.9,2.3 -5.8,4.5 -8.6,6.8 l -8.3,7.2 c -1.5,1.3 0.7,3.7 2.2,2.4 l 8.2,-7.1 c 2.8,-2.3 5.7,-4.5 8.5,-6.8 l 4.3,-3.4 4.4,-3.1 c 3,-2.1 5.9,-4.3 8.9,-6.2 l 0.9,1.3 c 0.6,0.9 1.6,0.9 2.2,0.4 0.1,0 0.2,-0.1 0.3,-0.1 l 6.2,-4 4.5,7.2 c 0.2,0.4 0.5,0.6 0.8,0.7 l 0.1,0.1 0.1,0 c 0.3,0.1 0.6,0.1 1,-0.1 13.2,-8.1 27,-15.2 41.3,-21.2 14.3,-6 29.1,-10.7 44.1,-14.4 0.1,0 0.1,-0.1 0.2,-0.1 l 2.7,11.4 c 0.5,2 3.1,1.4 2.6,-0.6 l -4.9,-21.5 c 0.1,0 0.2,0 0.3,0 20.5,-4.7 41.4,-7.2 62.4,-7.6 l 0.2,11.1 c 0,2.1 2.8,2 2.8,-0.1 l -0.4,-42.2 c 0.1,-2.3 -3.2,-2.2 -3.1,-0.1 z m -161.8,78 -2.4,-3.7 5.1,-3.2 c 0.2,-0.1 0.3,-0.2 0.4,-0.4 l 2.4,3.9 -5.5,3.4 z M 505,220.8 c -15,3.7 -29.7,8.3 -43.9,14.3 -14.2,6 -28,13 -41.2,20.9 L 402,226.7 c 1.6,-1 3.3,-1.9 4.9,-2.9 l 10.4,17.7 c 1.1,1.8 3.6,0.3 2.6,-1.5 l -10.2,-17.8 6.4,-3.7 3.3,6.1 c 1,1.8 3.7,0.4 2.8,-1.5 l -3.2,-6.1 6.6,-3.4 3.1,6.2 c 0.9,1.9 3.7,0.5 2.8,-1.4 l -3.1,-6.2 c 1.7,-0.9 3.4,-1.7 5.1,-2.5 l 2.9,6.2 c 0.9,1.9 3.7,0.6 2.8,-1.3 l -2.9,-6.3 6.3,-2.8 7.6,17.5 c 0.8,1.9 3.6,0.7 2.7,-1.2 l -7.4,-17.6 6.1,-2.4 2.6,6.4 c 0.8,1.9 3.7,0.8 2.9,-1.1 l -2.5,-6.4 c 2.3,-0.9 4.6,-1.8 6.9,-2.7 l 2.4,6.5 c 0.7,2 3.7,1 3,-1 l -2.3,-6.5 5.4,-1.8 2.2,6.5 c 0.7,2 3.6,1 3,-1 l -2.1,-6.6 c 2.1,-0.7 4.1,-1.4 6.2,-2 l 5.3,17.5 c 0.6,2 3.5,1.2 2.9,-0.8 l -5.1,-17.5 c 4.9,-1.4 9.8,-2.9 14.8,-3.9 0.1,0 0.2,-0.1 0.2,-0.1 l 8,33.5 c -0.3,0 -0.3,0 -0.4,0 z m 0.9,-10.9 c -0.1,0 -0.1,0.1 -0.2,0.1 l -3.1,-13.3 c 0.1,0 0.2,0 0.3,0 21.6,-4.9 43.7,-7.6 65.9,-8 l 0.3,13.5 c -21.3,0.4 -42.5,3 -63.2,7.7 z"
           id="path69"
           inkscape:connector-curvature="0" /><path
           d="m 592.2,202.8 c 7.2,0.6 14.4,0.9 21.6,2 l 5.4,0.7 2.7,0.3 2.7,0.5 10.7,1.9 -0.3,1.6 c -0.2,1.1 0.5,1.7 1.3,1.8 0.1,0 0.2,0.1 0.3,0.2 l 7.1,1.6 -1.9,8.3 c -0.1,0.4 0,0.8 0.1,1.1 l 0,0.1 0.1,0.1 c 0.2,0.3 0.4,0.5 0.8,0.6 l 5.7,1.3 5.6,1.6 5.6,1.6 2.8,0.8 2.7,0.9 11,3.7 10.8,4.3 c 14.3,5.9 28.1,13 41.4,21 0.1,0 0.2,0 0.2,0.1 l -6.1,10 c -1.1,1.8 1.2,3.2 2.3,1.5 l 11.7,-18.7 c 0.1,0.1 0.1,0.1 0.2,0.2 17.8,11.2 34.4,24.2 49.5,38.7 l -7.7,8 c -1.4,1.5 0.6,3.4 2,1.9 L 810,270.4 c 1.5,-1.5 -0.9,-3.7 -2.3,-2.2 l -7.7,8 c -16.1,-15.5 -33.8,-29.4 -52.8,-41.3 -0.1,-0.1 -0.2,-0.1 -0.2,-0.1 l 11.7,-18.7 c 1.1,-1.8 -1.7,-3.6 -2.8,-1.8 l -6.1,10 c -0.1,-0.1 -0.1,-0.1 -0.2,-0.2 C 734.5,215 718.7,207 702.4,200.2 l -12.3,-4.9 -12.5,-4.2 -3.1,-1.1 -3.2,-0.9 -6.4,-1.8 -6.4,-1.8 -6.4,-1.5 c -1.2,-0.3 -1.9,0.7 -1.9,1.6 -0.1,0.2 -0.2,0.3 -0.2,0.5 l -3.9,16.8 c -0.1,-0.1 -0.3,-0.2 -0.5,-0.2 l -7.4,-1.7 c -0.7,-0.1 -1.3,0.3 -1.6,0.8 -0.1,0.2 -0.2,0.4 -0.3,0.7 l -0.5,2.7 -10.8,-1.9 -2.7,-0.5 -2.7,-0.3 -5.4,-0.7 c -7.2,-1.1 -14.5,-1.5 -21.8,-2 -2,-0.3 -2.1,2.9 -0.2,3 z m 205.6,75.7 -9.4,9.7 c -15.3,-14.7 -32.1,-27.9 -50.1,-39.2 -0.1,-0.1 -0.2,-0.1 -0.2,-0.1 l 7.2,-11.6 c 0.1,0.1 0.1,0.1 0.2,0.2 18.8,11.9 36.3,25.6 52.3,41 z M 652.9,187.4 c 1.9,0.4 3.7,0.8 5.6,1.3 l -5.1,19.8 c -0.5,2 2.3,2.8 2.9,0.8 l 5.3,-19.8 7.1,2 -1.9,6.6 c -0.6,2 2.4,2.9 3,0.9 l 2,-6.6 c 2.4,0.6 4.7,1.5 7,2.3 l -2.2,6.5 c -0.6,2 2.3,3 3,1 l 2.2,-6.5 5.4,1.8 -2.3,6.5 c -0.7,1.9 2.2,3 2.9,1.1 l 2.4,-6.5 6.4,2.5 -7,17.7 c -0.8,1.9 2,3 2.8,1.1 l 7.2,-17.7 c 2,0.8 4.1,1.5 6,2.5 l -2.7,6.3 c -0.8,1.9 2,3.2 2.8,1.3 l 2.8,-6.3 6.7,3 -2.9,6.2 c -0.9,1.9 1.9,3.2 2.8,1.3 l 3,-6.2 c 1.7,0.8 3.4,1.7 5.1,2.6 l -3.1,6.2 c -0.9,1.9 1.8,3.3 2.8,1.4 l 3.1,-6.1 5.8,3 -8.6,16.1 c -1,1.8 1.6,3.3 2.6,1.4 l 8.8,-16 c 4.4,2.6 8.9,5 13.2,7.7 0.1,0.1 0.2,0.1 0.3,0.1 l -18,29.4 c -0.1,-0.1 -0.1,-0.1 -0.2,-0.2 -13.2,-8 -27,-15 -41.2,-21 -14.2,-6 -29,-10.6 -43.9,-14.3 l 8.1,-33.2 z m -13.9,17.1 5.8,1.4 c 0.2,0 0.4,0 0.5,0 l -1,4.5 -6.2,-1.4 0.9,-4.5 z"
           id="path71"
           inkscape:connector-curvature="0" /><path
           d="m 912,428.8 -11.4,2.7 c 0,-0.1 0,-0.2 0,-0.3 -4.2,-17.1 -9.5,-34 -16.4,-50.3 -6.9,-16.3 -15,-32 -24.2,-47 -0.6,-1 -1.8,-0.8 -2.5,-0.2 -0.2,0 -0.4,0.1 -0.5,0.2 l -14.7,9.2 c 0,-0.2 -0.1,-0.3 -0.2,-0.5 l -4.1,-6.4 c -0.4,-0.6 -1,-0.7 -1.6,-0.6 -0.2,0 -0.4,0.1 -0.7,0.3 l -2.2,1.5 c -2,-3.1 -4.2,-6 -6.3,-9 l -3.2,-4.5 -3.4,-4.3 c -2.3,-2.9 -4.5,-5.8 -6.8,-8.6 l -7.2,-8.3 c -1.3,-1.5 -3.7,0.7 -2.4,2.2 l 7.1,8.2 c 2.3,2.8 4.5,5.7 6.8,8.5 l 3.4,4.3 3.1,4.4 c 2.1,3 4.3,5.9 6.2,8.9 l -1.3,0.9 c -0.9,0.6 -0.9,1.6 -0.4,2.2 0,0.1 0.1,0.2 0.1,0.3 l 4,6.2 -7.2,4.5 c -0.4,0.2 -0.6,0.5 -0.7,0.8 l -0.1,0.1 0,0.1 c -0.1,0.3 -0.1,0.6 0.1,1 8.1,13.2 15.2,27 21.2,41.3 6,14.3 10.7,29.1 14.4,44.1 0,0.1 0.1,0.1 0.1,0.2 l -11.4,2.7 c -2,0.5 -1.4,3.1 0.6,2.6 l 21.5,-4.9 c 0,0.1 0,0.2 0,0.2 4.7,20.5 7.2,41.4 7.6,62.4 l -11.1,0.2 c -2.1,0 -2,2.8 0.1,2.8 l 42.2,-0.4 c 2.1,0 2,-3.3 -0.1,-3.2 l -11.1,0.2 c -0.4,-22.4 -3.1,-44.7 -8.1,-66.5 0,-0.1 -0.1,-0.2 -0.1,-0.2 l 21.5,-4.9 c 2.2,-0.3 1.4,-3.5 -0.6,-3.1 z m -79.5,-87 3.7,-2.4 3.2,5.1 c 0.1,0.2 0.2,0.3 0.4,0.4 l -3.9,2.4 -3.4,-5.5 z m 63.7,162.1 -13.5,0.3 c -0.4,-21.2 -3,-42.4 -7.7,-63.1 0,-0.1 -0.1,-0.1 -0.1,-0.2 l 13.3,-3.1 c 0,0.1 0,0.2 0,0.3 4.9,21.5 7.6,43.6 8,65.8 z m -32.1,-63.6 c 0,-0.1 0,-0.2 0,-0.2 -3.7,-15 -8.3,-29.7 -14.3,-43.9 -6,-14.2 -13,-28 -20.9,-41.2 l 29.3,-17.9 c 1,1.6 1.9,3.3 2.9,4.9 l -17.7,10.4 c -1.8,1.1 -0.3,3.6 1.5,2.6 l 17.8,-10.2 3.7,6.4 -6.1,3.3 c -1.8,1 -0.4,3.7 1.5,2.8 l 6.1,-3.2 3.4,6.6 -6.2,3.1 c -1.9,0.9 -0.5,3.7 1.4,2.8 l 6.2,-3.1 c 0.9,1.7 1.7,3.4 2.5,5.1 l -6.2,2.9 c -1.9,0.9 -0.6,3.7 1.3,2.8 l 6.3,-2.9 2.8,6.3 -17.5,7.6 c -1.9,0.8 -0.7,3.6 1.2,2.7 l 17.6,-7.4 2.4,6.1 -6.4,2.6 c -1.9,0.8 -0.8,3.7 1.1,2.9 l 6.4,-2.5 c 0.9,2.3 1.8,4.6 2.7,6.9 l -6.5,2.4 c -2,0.7 -1,3.7 1,3 l 6.5,-2.3 1.8,5.4 -6.5,2.2 c -2,0.7 -1,3.6 1,3 l 6.6,-2.1 c 0.7,2.1 1.4,4.1 2,6.2 l -17.5,5.3 c -2,0.6 -1.2,3.5 0.8,2.9 l 17.5,-5.1 c 1.4,4.9 2.9,9.8 3.9,14.8 0,0.1 0.1,0.2 0.1,0.2 l -33.5,7.8 z"
           id="path73"
           inkscape:connector-curvature="0" /></g></g></switch></svg>