<?xml version="1.0" encoding="UTF-8" standalone="no"?>
<svg
   xmlns:dc="http://purl.org/dc/elements/1.1/"
   xmlns:cc="http://creativecommons.org/ns#"
   xmlns:rdf="http://www.w3.org/1999/02/22-rdf-syntax-ns#"
   xmlns:svg="http://www.w3.org/2000/svg"
   xmlns="http://www.w3.org/2000/svg"
   xmlns:sodipodi="http://sodipodi.sourceforge.net/DTD/sodipodi-0.dtd"
   xmlns:inkscape="http://www.inkscape.org/namespaces/inkscape"
   version="1.1"
   id="l67"
   x="0px"
   y="0px"
   viewBox="0 0 1000 1000"
   width="100%"
   height="100%"
   style="enable-background:new 0 0 1000 1000;"
   xml:space="preserve"
   ><style
     type="text/css"
     id="style3">
	#l67 .st0{fill:#D0AC70;}
	#l67 .st1{fill:#F47878;}
</style><switch
     id="switch5"
     transform="translate(-24.769506,-25.988749)"><g
       id="g7"><g
         id="g9"><path
           class="st0"
           d="m 339.4,715.4 c -7.2,0.6 -16.5,1.3 -25.1,4 -8.5,2.6 -16.1,6.9 -19.2,15.5 -3,8.5 2.2,18.4 10.7,22.6 5.5,2.9 11.6,3.3 17.4,2.2 l 1.7,-0.3 -0.1,1.5 c -0.3,6.7 1.5,13.5 6.3,19 3.4,4 8,6.3 12.5,7 4.5,0.7 9.1,-0.5 12.9,-3.7 6.9,-5.9 8.7,-15.3 9.5,-23.9 1.4,-15.6 -1,-30.3 -3,-44.3 -7.7,-0.1 -15.5,-0.2 -23.6,0.4 z"
           id="path11"
           inkscape:connector-curvature="0"
           style="fill:#d0ac70" /><path
           class="st0"
           d="m 557,773.2 c -5.1,5.9 -10.4,11.5 -15.3,17.9 -4.4,5.8 -10,13.1 -13.8,21.3 -3.7,8.1 -5.6,16.6 -1.4,24.7 4.3,7.9 15.1,10.7 23.9,7.2 2.9,-1.1 5.5,-2.7 7.7,-4.6 2.2,-2 4.1,-4.3 5.6,-6.8 l 0.9,-1.5 1,1 c 2.4,2.3 5.2,4.3 8.3,5.8 3.1,1.4 6.4,2.2 10.1,2.2 5.2,0.2 10.1,-1.7 13.6,-4.6 3.5,-3 5.7,-7.1 5.9,-12 0.2,-9.1 -5.6,-16.7 -11.4,-23.1 -10.8,-11.4 -23.4,-19.5 -35.1,-27.5 z"
           id="path13"
           inkscape:connector-curvature="0"
           style="fill:#d0ac70" /><path
           class="st0"
           d="m 470.2,793.3 c -1.6,-3.5 -3.3,-6.8 -5.1,-10.1 -3.7,-6.3 -7.5,-12.7 -11.3,-18.5 -7,3.1 -14.1,6.3 -21.3,10.2 -6.3,3.3 -14.6,8.2 -21.3,13.8 -6.7,5.8 -11.9,12.9 -11.3,21.9 0.6,9.3 9.5,15.8 18.9,16.4 6.3,0.3 11.9,-1.7 16.8,-5 l 1.4,-1 0.5,1.4 c 2.6,6 6.9,11.9 13.5,14.7 9.6,4.4 20.3,1.4 24.5,-7.4 3.9,-8.1 1.7,-17.7 -1.1,-25.7 -1.1,-3.8 -2.6,-7.3 -4.2,-10.7 z"
           id="path15"
           inkscape:connector-curvature="0"
           style="fill:#d0ac70" /><path
           class="st0"
           d="m 300.2,632.4 c -6.9,-3.1 -14.3,-6.2 -21.7,-9 -6.9,-2.4 -15.7,-5.4 -24.5,-6.5 -8.8,-1.1 -17.7,-0.2 -23.9,6.3 -3.1,3.3 -4.5,7.7 -4.4,12.2 0.2,4.5 2,9.1 4.9,12.8 3.8,4.9 9.4,7.7 15,9.1 l 1.7,0.4 -0.7,1.3 c -2.9,6 -4,12.9 -1.9,19.9 1.7,4.9 4.8,9 8.6,11.4 3.9,2.4 8.7,3.1 13.4,1.8 8.7,-2.6 14.3,-10.6 18.3,-18 3.7,-6.8 6.7,-13.9 9,-20.9 2.4,-7.1 4.3,-14.1 6.2,-20.8 z"
           id="path17"
           inkscape:connector-curvature="0"
           style="fill:#d0ac70" /><path
           class="st0"
           d="m 538.9,270.2 c 2.5,2.7 5,5.3 7.5,7.8 6.2,-4.7 12.5,-9 18.7,-14.4 5.5,-4.6 12.5,-10.8 17.9,-18 5.3,-7 9,-15.1 6.5,-23.8 -1.3,-4.4 -4.4,-7.7 -8.4,-9.8 -2,-1.1 -4.2,-1.8 -6.5,-2.2 -2.3,-0.3 -4.7,-0.3 -7,0 -6.2,0.9 -11.3,4.1 -15.4,8.4 l -1.2,1.3 -0.8,-1.2 c -3.8,-5.5 -9.2,-10.2 -16.2,-11.6 -10.2,-2.4 -20.1,2.9 -22.4,12.3 -2.1,8.7 2,17.6 6.4,25 4,6.7 8.7,12.5 13.6,18.2 2.2,2.8 4.7,5.4 7.3,8 z"
           id="path19"
           inkscape:connector-curvature="0"
           style="fill:#d0ac70" /><path
           class="st0"
           d="m 443.5,291 c 1.9,-3.3 3.8,-6.7 5.7,-10.2 1.9,-3.4 3.8,-6.9 5.6,-10.5 3.1,-6.7 7.1,-15 9.1,-23.7 2,-8.7 2.1,-17.6 -3.7,-24.4 -5.9,-7 -17,-7.3 -24.9,-2.1 -5.3,3.2 -8.6,8.5 -10.6,13.9 l -0.6,1.7 -1.2,-0.8 c -5.7,-3.6 -12.4,-5.3 -19.6,-4 -10.2,2.2 -17.3,10.7 -15.5,20.5 1.7,8.9 9,15.2 15.9,20.1 6.4,4.6 13.1,8.1 19.8,11.1 6.8,3.2 13.4,5.6 20,8.4 z"
           id="path21"
           inkscape:connector-curvature="0"
           style="fill:#d0ac70" /><path
           class="st0"
           d="m 310.6,343.1 c 7.7,1.5 15.1,1.9 22.6,2.1 3.7,0.1 7.4,0 11,-0.1 3.7,-0.1 7.3,-0.2 10.8,-0.3 0.6,-7.8 1.7,-15.3 1.8,-23.6 0.3,-7.1 0.3,-16.6 -1.3,-25.3 -1.7,-8.6 -5.2,-16.8 -13.3,-20.7 -4.2,-2.1 -8.7,-1.9 -12.9,-0.4 -4.2,1.6 -8.2,4.6 -10.7,8.6 -3.4,5.2 -4.5,11.1 -4,17 l 0.2,1.8 -1.4,-0.2 c -6.6,-0.9 -13.7,0 -19.5,4.3 -4.3,3 -7.2,7.2 -8.2,11.7 -1.1,4.5 -0.5,9.1 2.3,13.2 5,7.4 14.2,10.2 22.6,11.9 z"
           id="path23"
           inkscape:connector-curvature="0"
           style="fill:#d0ac70" /><path
           class="st0"
           d="m 229,444.7 c 7.7,4.7 17.4,3.5 25.7,1.6 15.1,-3.6 28.6,-10.3 41.1,-16.6 -2.2,-7.2 -4.9,-14.8 -7.8,-22.2 -2.7,-6.7 -6.6,-15.4 -11.5,-22.6 -5.1,-7.3 -11.6,-13.2 -20.6,-13.5 -9.3,-0.4 -16.7,7.8 -18.3,17.1 -0.9,6.2 0.5,12.1 3.2,17.2 l 0.9,1.5 -1.4,0.4 c -6.3,1.9 -12.5,5.6 -16.1,11.9 -2.5,4.5 -3.7,9.5 -2.8,14.1 0.9,4.5 3.4,8.5 7.6,11.1 z"
           id="path25"
           inkscape:connector-curvature="0"
           style="fill:#d0ac70" /><path
           class="st0"
           d="m 245.7,563.4 c 6.3,-4.7 11.5,-9.9 16.7,-15.4 2.5,-2.7 4.9,-5.5 7.2,-8.2 2.4,-2.8 4.7,-5.5 7,-8.2 -5.3,-5.7 -10.3,-11.5 -16.3,-17.1 -5.2,-5 -12,-11.3 -19.8,-15.9 -7.7,-4.6 -15.9,-7.3 -24.4,-3.9 -8.3,3.4 -12.2,13.9 -9.6,23 1.5,6 5.3,10.8 9.9,14.4 l 1.4,1 -1.1,0.9 c -5.1,4.3 -9.2,10.2 -9.9,17.3 -0.3,2.6 -0.2,5.1 0.3,7.5 0.6,2.4 1.6,4.6 2.9,6.5 2.6,3.8 6.5,6.4 11.3,7.1 9.1,1.2 17.5,-3.9 24.4,-9 z"
           id="path27"
           inkscape:connector-curvature="0"
           style="fill:#d0ac70" /><path
           class="st0"
           d="m 768.1,469.1 c 6.3,4.4 12.5,9.1 19.4,13.4 6.3,3.8 14.1,8.6 22.6,11.5 8.5,2.9 17.2,3.9 24.7,-1.2 7.5,-5.1 9.1,-16.1 4.7,-24.6 -2.7,-5.6 -7.5,-9.5 -12.7,-12 l -1.6,-0.7 0.9,-1.1 c 4.2,-5.3 6.7,-11.8 6.1,-19.1 -0.4,-5.2 -2.8,-9.8 -6.1,-13 -3.3,-3.2 -7.6,-4.9 -12.6,-4.6 -9.1,0.7 -16,7.3 -21.7,13.8 -10.3,11.8 -17,25.1 -23.7,37.6 z"
           id="path29"
           inkscape:connector-curvature="0"
           style="fill:#d0ac70" /><path
           class="st0"
           d="m 774.1,660.6 c -7.9,0.1 -15.4,1.1 -22.6,2.6 -7.5,1.3 -14.3,3.3 -21.2,4.9 0.4,3.8 0.8,7.7 1.4,11.6 0.4,3.9 1,7.8 1.7,11.8 1.4,7.2 3.1,16.3 6.6,24.5 3.5,8.2 8.7,15.4 17.4,17.5 8.8,2.2 18,-4.1 21.4,-12.9 2.4,-5.7 1.9,-12 0.4,-17.5 l -0.5,-1.7 1.5,-0.1 c 6.7,-0.4 13.2,-3 18.2,-8.2 7,-7.8 7.8,-18.8 0.5,-25.6 -6.7,-6.2 -16.4,-7.1 -24.8,-6.9 z"
           id="path31"
           inkscape:connector-curvature="0"
           style="fill:#d0ac70" /><path
           class="st0"
           d="m 772.4,381 c 8.8,-0.8 17.2,-3.4 22,-11.1 5,-7.8 1.6,-18.4 -5.7,-24.4 -4.9,-3.9 -10.7,-5.6 -16.5,-5.8 l -1.8,0 0.4,-1.4 c 1.5,-6.4 1.5,-13.7 -2.3,-19.8 -5.1,-9.2 -15.6,-13.1 -24.2,-8.4 -7.9,4.3 -11.8,13.3 -14.3,21.4 -1.1,3.7 -2,7.4 -2.7,11.1 -0.8,3.8 -1.3,7.5 -1.8,11.2 -0.8,7.3 -1.4,14.7 -1.8,21.7 7.5,1.6 15.2,3.2 23.2,4.3 7.2,1 16.8,1.9 25.5,1.2 z"
           id="path33"
           inkscape:connector-curvature="0"
           style="fill:#d0ac70" /><path
           class="st0"
           d="m 832.6,544.2 c -8.5,-3 -17.8,0.2 -25.5,3.7 -7,3.3 -13.4,7.4 -19.5,11.6 -3.1,2.1 -5.9,4.4 -8.8,6.6 -2.9,2.2 -5.8,4.4 -8.5,6.6 4,6.6 7.7,13.3 12.4,20.1 3.9,5.9 9.5,13.6 16,19.7 6.4,6 14,10.5 23,8.9 4.6,-0.8 8.2,-3.6 10.7,-7.3 2.5,-3.8 3.9,-8.5 3.6,-13.2 -0.3,-6.3 -2.9,-11.7 -6.7,-16.2 l -1.2,-1.3 1.3,-0.7 c 5.8,-3.2 11.1,-8.1 13.2,-15 3.4,-9.9 -0.8,-20.3 -10,-23.5 z"
           id="path35"
           inkscape:connector-curvature="0"
           style="fill:#d0ac70" /><path
           class="st0"
           d="m 697.8,749.9 c -14.3,-6 -29.2,-8.5 -43,-10.7 -2.4,7.1 -4.7,14.9 -6.7,22.5 -1.7,7 -3.7,16.3 -3.9,25.1 -0.1,8.9 1.6,17.6 8.8,23.1 3.6,2.8 8.2,3.8 12.6,3.1 4.4,-0.7 8.8,-2.9 12.2,-6.1 4.4,-4.5 6.7,-10.2 7.5,-15.9 0.1,-0.6 0.2,-1.1 0.2,-1.7 l 1.4,0.5 c 6.2,2.1 13.4,2.8 20,-0.2 4.7,-2.2 8.5,-5.6 10.5,-9.8 2,-4.2 2.2,-8.9 0.4,-13.5 -3.6,-8.3 -12.2,-13 -20,-16.4 z"
           id="path37"
           inkscape:connector-curvature="0"
           style="fill:#d0ac70" /><path
           class="st0"
           d="m 668.3,302.3 c 3.5,-1 7.5,-2.3 11.6,-3.8 4.1,-1.4 8.2,-3.2 12.1,-5.3 7.8,-4.3 14.4,-10.2 15.6,-19.1 0.6,-4.5 -0.8,-8.9 -3.6,-12.5 -2.8,-3.5 -7,-6.2 -11.5,-7.5 -6,-1.7 -12.1,-0.7 -17.5,1.4 l -1.6,0.7 -0.2,-1.5 c -1.2,-6.5 -4.3,-12.9 -10.1,-17.2 -4.2,-3 -9.2,-4.5 -13.7,-4.2 -4.6,0.4 -8.9,2.5 -11.9,6.4 -5.5,7.2 -5.3,16.9 -4.3,25.3 1,7.6 2.7,15.2 5,22.2 2.2,7.1 4.7,14 7.2,20.5 7.5,-1.5 15.2,-3.3 22.9,-5.4 z"
           id="path39"
           inkscape:connector-curvature="0"
           style="fill:#d0ac70" /><path
           class="st1"
           d="m 816.9,542.4 c -9.4,2.5 -17.9,7.6 -25.5,12.7 -7.9,5.2 -14.8,10.9 -21.8,16.4 l -0.9,0.7 0.7,1.2 c 8.2,14 17,30 30.7,42 6.6,5.7 15.7,10.3 24.7,6.9 3.9,-1.4 6.8,-4.3 8.8,-7.8 2,-3.5 3.4,-7.7 3.4,-11.9 0.1,-7.1 -2.4,-13.5 -6.6,-18.6 4.9,-2.9 9.6,-7 12.1,-12.6 1.6,-3.6 2.5,-7.7 2.4,-11.8 -0.2,-4 -1.5,-8 -3.7,-11.1 -5.7,-7.7 -15.9,-8.3 -24.3,-6.1 z m 25.6,25.4 c -2.1,6.9 -7.4,11.8 -13.2,15 l -1.3,0.7 1.2,1.3 c 3.9,4.5 6.4,9.9 6.7,16.2 0.3,4.7 -1.1,9.5 -3.6,13.2 -2.5,3.8 -6.1,6.5 -10.7,7.3 -8.9,1.6 -16.5,-2.9 -23,-8.9 -6.5,-6.1 -12.1,-13.8 -16,-19.7 -4.7,-6.7 -8.4,-13.5 -12.4,-20.1 2.7,-2.2 5.6,-4.4 8.5,-6.6 2.9,-2.2 5.7,-4.4 8.8,-6.6 6.2,-4.3 12.5,-8.3 19.5,-11.6 7.7,-3.6 17,-6.8 25.5,-3.7 9.3,3.1 13.5,13.5 10,23.5 z"
           id="path41"
           inkscape:connector-curvature="0"
           style="fill:#f47878" /><path
           class="st1"
           d="m 785.1,659.5 c -4.8,-0.8 -9.6,-0.8 -14.4,-0.5 -4.9,0.3 -9.6,0.9 -14.1,1.7 -4.6,0.8 -9.1,1.8 -13.5,2.8 -4.5,1 -8.6,2.2 -13,3.3 l -1.1,0.2 0.1,1.4 c 1.9,16.3 3.1,34.3 10.9,50.9 3.7,7.9 10.2,15.8 19.8,16.4 8,0.4 15.6,-5.5 19.2,-13 3.2,-6.3 3.1,-13.4 1.6,-19.7 5.9,-0.5 11.4,-2.5 16.2,-6.6 3.1,-2.5 5.5,-6 6.9,-9.8 1.4,-3.8 2.1,-7.7 1.2,-11.6 -2.2,-9.4 -11.2,-14.1 -19.8,-15.5 z m 13.1,33.7 c -5,5.2 -11.5,7.8 -18.2,8.2 l -1.5,0.1 0.5,1.7 c 1.5,5.5 2,11.8 -0.4,17.5 -3.4,8.8 -12.6,15.1 -21.4,12.9 -8.7,-2.1 -13.9,-9.3 -17.4,-17.5 -3.5,-8.3 -5.2,-17.3 -6.6,-24.5 -0.7,-4 -1.2,-7.9 -1.7,-11.8 -0.5,-3.9 -1,-7.8 -1.4,-11.6 7,-1.7 13.8,-3.6 21.2,-4.9 7.2,-1.5 14.7,-2.5 22.6,-2.6 8.4,-0.2 18.1,0.7 24.7,6.9 7.4,6.7 6.6,17.8 -0.4,25.6 z"
           id="path43"
           inkscape:connector-curvature="0"
           style="fill:#f47878" /><path
           class="st1"
           d="m 708.4,753.5 c -8.2,-5.3 -17.6,-8.1 -26.5,-10.5 -4.6,-1.2 -9,-2 -13.5,-2.9 -4.5,-0.9 -8.9,-1.6 -13.2,-2.3 l -1.1,-0.2 -0.4,1.3 c -5,15.4 -11,32.7 -10.8,50.9 0.2,8.8 2.9,18.6 11.4,23 3.6,1.8 7.8,2.3 11.8,1.4 4,-0.9 7.9,-2.8 11.1,-5.4 5.4,-4.6 8.3,-11 9.4,-17.4 5.4,1.8 11.5,2.2 17.5,0.5 7.5,-2.4 14.6,-8.6 16.1,-16.3 1.8,-9.4 -4.5,-17.3 -11.8,-22.1 z m 8.8,26.3 c -2,4.2 -5.8,7.6 -10.5,9.8 -6.6,2.9 -13.8,2.3 -20,0.2 l -1.4,-0.5 c 0,0.6 -0.1,1.2 -0.2,1.7 -0.8,5.7 -3.1,11.4 -7.5,15.9 -3.4,3.2 -7.8,5.4 -12.2,6.1 -4.5,0.7 -9,-0.3 -12.6,-3.1 -7.1,-5.5 -8.9,-14.2 -8.8,-23.1 0.2,-8.8 2.2,-18 3.9,-25.1 2,-7.7 4.3,-15.4 6.7,-22.5 13.8,2.3 28.7,4.8 43,10.7 7.8,3.3 16.4,8.1 19.8,16.4 2.1,4.6 1.8,9.3 -0.2,13.5 z"
           id="path45"
           inkscape:connector-curvature="0"
           style="fill:#f47878" /><path
           class="st1"
           d="m 580.2,787.9 c -7.4,-6 -14.9,-10.7 -22.3,-15.8 l -1,-0.6 -1,1.1 c -5.4,6.3 -11.3,12.3 -16.7,19.4 -5.4,6.8 -10.4,14.3 -13.9,22.8 -3.4,8 -4.9,18.1 1.1,25.6 5,6.1 14.6,8 22.5,5.5 3.4,-1 6.4,-2.6 9.1,-4.6 2.6,-2.1 4.8,-4.7 6.6,-7.4 4.3,3.9 9.6,7 15.7,7.6 7.9,1.1 16.8,-2 21.4,-8.3 5.6,-7.8 3.1,-17.8 -1.6,-25 -5.2,-7.9 -12.7,-14.8 -19.9,-20.3 z m 17.3,47.9 c -3.5,3 -8.3,4.8 -13.6,4.6 -3.6,0 -7,-0.9 -10.1,-2.2 -3.1,-1.5 -5.8,-3.5 -8.3,-5.8 l -1,-1 -0.9,1.5 c -1.5,2.5 -3.4,4.8 -5.6,6.8 -2.2,1.9 -4.8,3.5 -7.7,4.6 -8.8,3.5 -19.6,0.7 -23.9,-7.2 -4.3,-8 -2.3,-16.5 1.4,-24.7 3.8,-8.2 9.4,-15.5 13.8,-21.3 5,-6.5 10.3,-12.1 15.3,-17.9 11.7,8 24.3,16.1 34.9,27.5 5.8,6.4 11.6,14 11.4,23.1 0,5 -2.2,9 -5.7,12 z"
           id="path47"
           inkscape:connector-curvature="0"
           style="fill:#f47878" /><path
           class="st1"
           d="m 469,787.5 c -2.2,-4.2 -4.5,-8.2 -6.9,-12 -2.4,-3.9 -4.7,-7.7 -7.1,-11.4 l -0.6,-1 -1.3,0.6 c -14.8,6.6 -31.7,13.8 -45,26 -6.4,6 -11.9,14.5 -9.5,23.9 2,8 10.2,13 18.3,14.3 7.1,0.8 13.7,-1 19.2,-4.7 2.3,5.2 6,10.2 11.3,13.4 6.8,4 16.2,5.1 22.9,1 8.3,-4.8 10,-14.9 8.6,-23.5 -1.4,-9.5 -5.7,-18.5 -9.9,-26.6 z m 6.6,42.1 c -4.2,8.8 -15,11.9 -24.5,7.4 -6.6,-2.8 -10.9,-8.7 -13.5,-14.7 l -0.6,-1.3 -1.4,1 c -4.8,3.3 -10.5,5.3 -16.8,5 -9.4,-0.6 -18.3,-7.2 -18.9,-16.4 -0.6,-9 4.6,-16.1 11.3,-21.9 6.7,-5.6 15,-10.6 21.3,-13.8 7.1,-3.8 14.3,-7 21.3,-10.2 3.8,5.9 7.6,12.2 11.3,18.5 1.8,3.2 3.5,6.6 5.1,10.1 1.6,3.4 3.1,6.9 4.4,10.6 2.7,8.1 4.9,17.6 1,25.7 z"
           id="path49"
           inkscape:connector-curvature="0"
           style="fill:#f47878" /><path
           class="st1"
           d="m 366.3,728.1 c -0.6,-4.5 -1.3,-8.9 -1.9,-13.3 l -0.2,-1.1 -1.4,0 c -8.3,0.1 -16.7,-0.1 -25.6,0.6 -8.6,0.5 -17.6,1.9 -26.2,4.9 -8.3,2.9 -16.7,8.4 -18.4,18 -1.2,7.8 3.8,16.2 11,20.4 6,3.8 12.9,4.6 19.4,3.6 -0.1,5.8 1.3,11.8 4.9,16.8 4.4,6.6 12.7,11.1 20.4,10.4 9.6,-1.2 15.3,-9.7 17.5,-18 2.4,-9.2 2.4,-19.4 1.8,-28.4 -0.3,-4.7 -0.7,-9.5 -1.3,-13.9 z m -0.3,31 c -0.8,8.5 -2.6,18 -9.5,23.9 -3.8,3.2 -8.4,4.4 -12.9,3.7 -4.5,-0.7 -9.2,-2.9 -12.5,-7 -4.8,-5.4 -6.5,-12.2 -6.3,-19 l 0.1,-1.5 -1.7,0.3 c -5.7,1 -11.9,0.7 -17.4,-2.2 -8.5,-4.2 -13.7,-14.1 -10.7,-22.6 3.1,-8.5 10.8,-12.9 19.2,-15.5 8.6,-2.7 17.8,-3.4 25.1,-4 8.1,-0.6 15.9,-0.5 23.6,-0.6 1.9,14.2 4.4,28.9 3,44.5 z"
           id="path51"
           inkscape:connector-curvature="0"
           style="fill:#f47878" /><path
           class="st1"
           d="m 301.5,632.9 0.3,-1.1 -1.3,-0.6 c -15,-6.5 -31.2,-14.4 -49.5,-16 -8.8,-0.7 -18.9,0.9 -24.1,8.9 -2.2,3.4 -3,7.4 -2.6,11.6 0.4,4.1 2,8.1 4.3,11.6 3.9,5.9 10.1,9.4 16.3,11.2 -2.5,5.3 -3.4,11.2 -2.4,17.3 0.6,3.9 2.6,7.7 5,10.9 2.5,3.2 5.7,5.7 9.5,6.8 9.2,2.9 17.8,-2.6 23.3,-9.3 6,-7.5 9.9,-16.6 13.2,-25.3 3.2,-8.7 5.8,-17.6 8,-26 z M 266.7,692 c -4.7,1.4 -9.4,0.6 -13.4,-1.8 -3.8,-2.5 -7,-6.5 -8.6,-11.4 -2.1,-7 -0.9,-13.9 1.9,-19.9 l 0.7,-1.3 -1.7,-0.4 c -5.6,-1.4 -11.1,-4.2 -15,-9.1 -2.9,-3.7 -4.7,-8.3 -4.9,-12.8 -0.1,-4.5 1.3,-8.9 4.4,-12.2 6.2,-6.5 15,-7.3 23.9,-6.3 8.8,1.1 17.6,4.1 24.5,6.5 7.5,2.8 14.8,5.9 21.7,9 -1.9,6.8 -3.8,13.8 -6.3,20.8 -2.3,7 -5.3,14.1 -9,20.9 -4,7.5 -9.6,15.5 -18.2,18 z"
           id="path53"
           inkscape:connector-curvature="0"
           style="fill:#f47878" /><path
           class="st1"
           d="m 237.2,570.8 c 8.6,-4.4 16.1,-11.2 22.4,-17.7 6.8,-6.7 12.2,-13.7 18,-20.5 l 0.7,-0.9 -1,-1.1 c -5.7,-6.1 -11,-12.5 -17.6,-18.6 -6.2,-6.1 -13.2,-11.8 -21.2,-16.2 -7.6,-4.2 -17.5,-6.8 -25.6,-1.6 -6.5,4.4 -9.5,13.7 -7.8,21.8 0.6,3.5 1.9,6.7 3.7,9.5 1.8,2.8 4.2,5.3 6.7,7.3 -4.3,3.8 -8,8.8 -9.2,14.8 -0.8,3.8 -0.9,8.1 0.1,12 1.1,3.9 3.1,7.5 5.9,10.1 7,6.5 17.3,5 24.9,1.1 z m -27.1,-5.5 c -1.3,-1.9 -2.3,-4.1 -2.9,-6.5 -0.5,-2.4 -0.6,-4.9 -0.3,-7.5 0.7,-7.2 4.8,-13 9.9,-17.3 l 1.1,-0.9 -1.4,-1 c -4.7,-3.6 -8.4,-8.4 -9.9,-14.4 -2.6,-9.1 1.4,-19.6 9.6,-23 8.5,-3.4 16.7,-0.6 24.4,3.9 7.7,4.6 14.5,10.9 19.8,15.9 6,5.6 11,11.4 16.3,17.1 -2.3,2.7 -4.6,5.5 -7,8.2 -2.3,2.8 -4.7,5.5 -7.2,8.2 -5.2,5.5 -10.5,10.7 -16.7,15.4 -6.9,5.1 -15.3,10.1 -24.2,8.9 -5,-0.6 -8.9,-3.2 -11.5,-7 z"
           id="path55"
           inkscape:connector-curvature="0"
           style="fill:#f47878" /><path
           class="st1"
           d="m 244,449.7 c 9.8,-0.5 18.9,-3.8 27.6,-7.1 4.4,-1.7 8.5,-3.6 12.6,-5.6 4.2,-1.9 8.2,-3.9 12.1,-5.9 l 1,-0.5 -0.5,-1.4 c -5,-15.4 -10.3,-32.9 -21.1,-47.5 -5.3,-7 -13.2,-13.4 -22.7,-11.9 -8.1,1.2 -14,8.7 -16.2,16.7 -1.6,7 -0.3,13.8 2.6,19.6 -5.4,1.8 -10.6,4.9 -14.5,9.8 -4.6,6.4 -6.8,15.5 -3.4,22.7 4,8.8 13.8,11.5 22.5,11.1 z m -19.8,-30.2 c 3.6,-6.3 9.8,-9.9 16.1,-11.9 l 1.4,-0.4 -0.9,-1.5 c -2.7,-5.1 -4.1,-11 -3.2,-17.2 1.7,-9.3 9.1,-17.4 18.3,-17.1 9,0.3 15.5,6.3 20.6,13.5 5,7.2 8.8,15.9 11.5,22.6 2.9,7.4 5.6,15 7.8,22.2 -12.5,6.2 -26.1,13 -41.1,16.6 -8.3,1.9 -18,3.1 -25.7,-1.6 -4.2,-2.6 -6.7,-6.6 -7.6,-11.1 -0.9,-4.6 0.2,-9.5 2.8,-14.1 z"
           id="path57"
           inkscape:connector-curvature="0"
           style="fill:#f47878" /><path
           class="st1"
           d="m 299.5,341.8 c 9,3.4 19.1,4.5 28.1,4.7 9.5,0.5 18.4,-0.1 27.3,-0.4 l 1.1,-0.1 0.1,-1.4 c 1.6,-16.2 4,-34.3 -0.1,-52.1 -2,-8.5 -6.6,-17.6 -16,-20.1 -4,-1.1 -8,-0.5 -11.8,1.1 -3.7,1.7 -7.3,4.3 -9.7,7.6 -4.3,5.7 -6,12.3 -5.6,19 -5.7,-0.6 -11.9,0 -17.2,3.1 -3.4,2 -6.6,4.7 -8.8,8.1 -2.2,3.4 -3.5,7.3 -3.5,11.1 0.1,9.7 8.1,16.3 16.1,19.4 z m -14,-23.9 c 1.1,-4.5 3.9,-8.7 8.2,-11.7 5.8,-4.3 12.9,-5.2 19.5,-4.3 l 1.4,0.2 -0.2,-1.8 c -0.5,-5.9 0.6,-11.8 4,-17 2.5,-4 6.4,-7 10.7,-8.6 4.2,-1.6 8.8,-1.7 12.9,0.4 8.1,4 11.7,12.1 13.3,20.7 1.7,8.7 1.7,18.2 1.3,25.3 -0.1,8.3 -1.2,15.8 -1.8,23.6 -3.5,0.2 -7.1,0.3 -10.8,0.3 -3.6,0.1 -7.2,0.2 -11,0.1 -7.5,-0.2 -14.9,-0.6 -22.6,-2.1 -8.4,-1.7 -17.7,-4.5 -22.8,-12 -2.6,-4 -3.2,-8.6 -2.1,-13.1 z"
           id="path59"
           inkscape:connector-curvature="0"
           style="fill:#f47878" /><path
           class="st1"
           d="m 417.8,281.5 c 4.2,2 8.4,3.9 12.6,5.7 4.2,1.7 8.3,3.3 12.4,5 l 1.1,0.4 0.7,-1.2 c 8,-14.3 17.6,-29.5 21.1,-47.6 1.6,-8.7 1.1,-18.8 -6.3,-24.9 -6.2,-5 -15.9,-4.8 -23.2,-0.8 -6.3,3.2 -10.4,9 -12.8,15 -5,-3 -10.8,-4.7 -17,-4.2 -4,0.3 -8,1.6 -11.4,3.9 -3.4,2.2 -6.3,5.1 -7.8,8.7 -3.8,8.9 0.7,18 6.9,24.2 3.4,3.4 7.3,6.3 11.3,8.8 4.1,2.7 8.3,5 12.4,7 z m -30.1,-30.2 c -1.9,-9.8 5.2,-18.3 15.5,-20.5 7.2,-1.3 13.9,0.4 19.6,4 l 1.2,0.8 0.6,-1.7 c 2,-5.4 5.3,-10.7 10.6,-13.9 8,-5.2 19.1,-4.8 24.9,2.1 5.8,6.8 5.7,15.7 3.7,24.4 -2,8.7 -6,17.1 -9.1,23.7 -1.8,3.7 -3.6,7.1 -5.6,10.5 -1.9,3.5 -3.8,6.9 -5.7,10.2 -6.6,-2.8 -13.2,-5.1 -20.1,-8.5 -6.7,-3.1 -13.4,-6.6 -19.8,-11.1 -6.8,-4.8 -14.2,-11.1 -15.8,-20 z"
           id="path61"
           inkscape:connector-curvature="0"
           style="fill:#f47878" /><path
           class="st1"
           d="m 545.2,278.8 0.8,0.8 1.2,-0.9 c 3.3,-2.4 6.7,-4.9 10.1,-7.4 3.4,-2.5 6.8,-5.3 10.2,-8.1 6.7,-5.5 13.1,-12 18.3,-19.4 5,-7.2 8.6,-16.7 4.3,-25.3 -1.8,-3.6 -5,-6.2 -8.7,-7.9 -3.7,-1.7 -8,-2.5 -12.2,-2.1 -7.1,0.5 -13.1,3.8 -17.8,8.6 -3.4,-4.6 -7.9,-8.9 -13.8,-10.7 -3.7,-1.2 -7.9,-1.7 -11.9,-1.2 -4,0.7 -7.8,2.3 -10.6,4.9 -7.1,6.4 -6.7,16.7 -3.6,24.7 3.5,9.1 9.4,17.1 15.3,24.1 5.8,7.3 12.2,13.5 18.4,19.9 z m -33.8,-59.9 c 2.3,-9.4 12.2,-14.7 22.4,-12.3 7.1,1.4 12.5,6.1 16.2,11.6 l 0.8,1.2 1.2,-1.3 c 4,-4.3 9.2,-7.5 15.4,-8.4 2.3,-0.4 4.7,-0.4 7,0 2.3,0.4 4.5,1.2 6.5,2.2 4,2.1 7.1,5.4 8.4,9.8 2.5,8.7 -1.1,16.7 -6.5,23.8 -5.4,7.2 -12.4,13.4 -17.9,18 -6.2,5.4 -12.5,9.7 -18.7,14.4 -2.5,-2.5 -5,-5.1 -7.5,-7.8 -2.5,-2.6 -5,-5.2 -7.5,-8 -4.9,-5.7 -9.6,-11.6 -13.6,-18.2 -4.2,-7.3 -8.3,-16.2 -6.2,-25 z"
           id="path63"
           inkscape:connector-curvature="0"
           style="fill:#f47878" /><path
           class="st1"
           d="m 644.5,309.1 1.4,-0.3 c 15.9,-3.5 33.8,-6.7 49.5,-16.1 7.5,-4.6 14.7,-11.8 14.2,-21.4 -0.2,-4 -2,-7.8 -4.6,-10.9 -2.8,-3 -6.4,-5.4 -10.3,-6.9 -6.6,-2.5 -13.7,-1.7 -19.7,0.5 -1.1,-5.7 -3.8,-11.1 -8.3,-15.4 -2.8,-2.8 -6.6,-4.7 -10.5,-5.9 -3.9,-1.1 -8,-1.3 -11.7,0 -9.2,3.1 -12.9,12.5 -13.4,21.2 -0.5,9.6 1.8,19.3 4.1,28.2 2.6,8.9 5.7,17.6 8.8,25.7 l 0.5,1.3 z M 633.3,265 c -1,-8.4 -1.2,-18.2 4.3,-25.3 3,-3.9 7.3,-6 11.9,-6.4 4.5,-0.3 9.5,1.2 13.7,4.2 5.8,4.4 8.9,10.7 10.1,17.2 l 0.2,1.5 1.6,-0.7 c 5.3,-2.1 11.5,-3.1 17.5,-1.4 4.5,1.3 8.6,4 11.5,7.5 2.7,3.6 4.2,8 3.6,12.5 -1.2,8.9 -7.9,14.8 -15.6,19.1 -3.9,2.2 -8.1,3.9 -12.1,5.3 -4.1,1.5 -8.1,2.8 -11.6,3.8 -7.7,2.1 -15.5,3.9 -22.9,5.4 -2.5,-6.5 -5,-13.4 -7.2,-20.5 -2.2,-6.9 -4,-14.5 -5,-22.2 z"
           id="path65"
           inkscape:connector-curvature="0"
           style="fill:#f47878" /><path
           class="st1"
           d="m 775.6,382 c 8.7,-1.1 18.2,-4.8 21.7,-13.8 3,-7.6 -0.6,-16.5 -6.4,-22.3 -5.3,-4.8 -11.7,-7.2 -18.3,-7.5 1.2,-5.6 1.2,-11.7 -1.3,-17.4 -1.6,-3.6 -4.1,-7 -7.2,-9.6 -3.1,-2.6 -6.9,-4.3 -10.7,-4.7 -9.5,-1 -16.8,6.2 -20.8,13.9 -4.4,8.7 -6.3,18.4 -7.7,27.5 -0.7,4.7 -1.2,9.3 -1.5,13.7 -0.4,4.5 -0.7,9.1 -0.9,13.4 l -0.1,1.1 1.4,0.3 c 15.9,3.4 33.8,7.5 51.8,5.4 z m -51.7,-6.5 c 0.4,-7 1,-14.4 1.8,-21.7 0.4,-3.7 1,-7.4 1.8,-11.2 0.7,-3.7 1.6,-7.4 2.7,-11.1 2.5,-8.1 6.4,-17.2 14.3,-21.4 8.6,-4.6 19.1,-0.8 24.2,8.4 3.7,6.2 3.7,13.4 2.3,19.8 l -0.4,1.4 1.8,0 c 5.9,0.2 11.6,1.9 16.5,5.8 7.2,6 10.6,16.6 5.7,24.4 -4.8,7.7 -13.2,10.3 -22,11.1 -8.7,0.7 -18.3,-0.3 -25.3,-1.3 -8.2,-1.1 -15.9,-2.7 -23.4,-4.2 z"
           id="path67"
           inkscape:connector-curvature="0"
           style="fill:#f47878" /><path
           class="st1"
           d="m 780.2,444.5 c -2.4,3.9 -4.9,8 -7,11.9 -2.1,4 -4.2,7.9 -6.3,11.8 l -0.5,1 1.2,0.8 c 6.7,4.7 13.4,9.9 21,14.5 7.4,4.6 15.3,8.8 24.1,11.5 8.4,2.5 18.5,3.1 25.4,-3.7 5.6,-5.7 6.4,-15.3 3.2,-23 -2.6,-6.6 -7.8,-11.3 -13.6,-14.3 1.7,-2.3 3.2,-4.9 4.3,-7.7 1,-2.7 1.6,-5.7 1.6,-8.8 0.3,-8 -3.8,-16.5 -10.4,-20.4 -8.5,-4.7 -18,-1.2 -24.7,4.3 -7.5,6.2 -13.5,14.4 -18.3,22.1 z m 33.3,-26.8 c 5,-0.4 9.4,1.3 12.6,4.6 3.2,3.2 5.7,7.8 6.1,13 0.7,7.2 -1.9,13.7 -6.1,19.1 l -0.9,1.1 1.6,0.7 c 5.2,2.6 10.1,6.4 12.7,12 4.4,8.4 2.8,19.5 -4.7,24.6 -7.5,5.1 -16.2,4 -24.7,1.2 -8.5,-2.9 -16.3,-7.7 -22.6,-11.5 -6.9,-4.3 -13.1,-8.9 -19.4,-13.4 6.7,-12.5 13.4,-25.8 23.7,-37.6 5.6,-6.5 12.5,-13 21.7,-13.8 z"
           id="path69"
           inkscape:connector-curvature="0"
           style="fill:#f47878" /></g></g></switch></svg>