<?xml version="1.0" encoding="UTF-8" standalone="no"?>
<svg
   xmlns:dc="http://purl.org/dc/elements/1.1/"
   xmlns:cc="http://creativecommons.org/ns#"
   xmlns:rdf="http://www.w3.org/1999/02/22-rdf-syntax-ns#"
   xmlns:svg="http://www.w3.org/2000/svg"
   xmlns="http://www.w3.org/2000/svg"
   xmlns:sodipodi="http://sodipodi.sourceforge.net/DTD/sodipodi-0.dtd"
   xmlns:inkscape="http://www.inkscape.org/namespaces/inkscape"
   version="1.1"
   id="l68"
   x="0px"
   y="0px"
   viewBox="0 0 1000 1000"
   width="100%"
   height="100%"
   style="enable-background:new 0 0 1000 1000;"
   xml:space="preserve"
   ><style
     type="text/css"
     id="style3">
	#l68 .st0{fill:#D0AC70;}
	#l68 .st1{fill:#F47878;}
</style><switch
     id="switch5"
     transform="translate(-57.257759,0.07521904)"><g
       id="g7"><g
         id="g9"><path
           class="st0"
           d="m 504.6,141.6 c -1.3,0.4 -2.7,0.7 -4,0.9 1.1,-3.1 -3.4,-5.6 -5.3,-2.6 -0.3,-1.1 -0.5,-2.1 -0.8,-3.2 -0.9,-3.8 -6.7,-2.2 -5.8,1.6 0.7,2.9 1.4,5.8 2.1,8.7 0,0.1 0.1,0.2 0.2,0.4 -1,1.7 -1.9,3.4 -2.9,5 -0.2,-0.7 -0.3,-1.3 -0.5,-1.8 -0.8,-2.8 -1.7,-5.6 -2.5,-8.4 -1.1,-3.7 -6.9,-2.1 -5.8,1.6 1.1,3.7 2.3,7.5 3.4,11.2 0.4,1.3 0.7,3 1.4,4.5 -17.9,31.1 -35.5,62.3 -52.8,93.8 -2.1,-1 -4.4,-2 -6.5,-2.2 -3,-0.2 -3.8,2.4 -3.6,4.9 0.4,4.5 0.9,8.9 1.4,13.4 0.1,0.6 0.3,1 0.5,1.4 0.8,1.5 2.7,2.5 4.2,1.4 3.7,-2.8 7.7,-5.1 12,-6.9 1.6,-0.6 3.1,-2.7 1.8,-4.4 -1.4,-1.8 -2.9,-3.2 -4.7,-4.4 17.3,-31.5 35,-62.9 52.9,-94.1 1,-0.2 2,-0.6 2.9,-1 3.6,-1.2 7.2,-2.2 10.8,-3.1 3.8,-0.9 2.2,-6.7 -1.6,-5.8 -2.5,0.6 -5,1.3 -7.5,2 -0.1,0 -0.2,0.1 -0.2,0.1 1.1,-1.9 2.1,-3.8 3.2,-5.6 3.1,-0.2 6.2,-0.7 9.2,-1.6 3.8,-1.1 2.2,-6.9 -1.5,-5.8 z"
           id="path11"
           inkscape:connector-curvature="0"
           style="fill:#d0ac70" /><path
           class="st0"
           d="m 879.9,641.1 c 0.6,-1.3 1.3,-2.4 2,-3.6 1.5,2.9 6.4,1.3 5.5,-2.2 0.9,0.5 1.9,1.1 2.8,1.6 3.4,1.9 6.1,-3.5 2.7,-5.4 -2.6,-1.4 -5.2,-2.9 -7.8,-4.3 -0.1,-0.1 -0.3,-0.1 -0.4,-0.1 -0.6,-1.8 -1.2,-3.7 -1.8,-5.5 0.6,0.3 1.2,0.7 1.7,0.9 2.6,1.3 5.3,2.5 7.9,3.8 3.5,1.7 6.2,-3.7 2.7,-5.4 -3.5,-1.7 -7.1,-3.4 -10.6,-5.1 -1.2,-0.6 -2.7,-1.5 -4.3,-2 -10.9,-34.2 -22.2,-68.2 -33.8,-102.2 2.2,-0.9 4.5,-1.9 6,-3.3 2.2,-2.1 0.8,-4.4 -1.2,-5.9 -3.6,-2.7 -7.2,-5.4 -10.8,-8 -0.5,-0.3 -0.9,-0.5 -1.4,-0.6 -1.6,-0.4 -3.6,0.3 -3.8,2.2 -0.5,4.6 -1.4,9.2 -3,13.5 -0.6,1.6 -0.1,4.1 2.1,4.3 2.2,0.2 4.3,0 6.4,-0.5 11.6,34.1 22.9,68.2 33.9,102.5 -0.5,0.9 -0.9,1.9 -1.3,2.8 -1.5,3.4 -3.2,6.8 -5,10.1 -1.9,3.4 3.5,6.1 5.4,2.7 1.2,-2.3 2.4,-4.5 3.5,-6.9 0,-0.1 0.1,-0.2 0.1,-0.2 0.7,2.1 1.3,4.1 2,6.2 -1.9,2.5 -3.7,5.1 -5,7.9 -1.5,3.5 3.9,6.2 5.5,2.7 z"
           id="path13"
           inkscape:connector-curvature="0"
           style="fill:#d0ac70" /><path
           class="st0"
           d="m 528.7,862 c -0.3,-1.4 -0.4,-2.8 -0.5,-4.1 2.9,1.5 6,-2.7 3.2,-4.9 1.1,-0.1 2.2,-0.2 3.2,-0.4 3.8,-0.4 3,-6.4 -0.9,-6 -3,0.3 -5.9,0.7 -8.9,1 -0.1,0 -0.3,0.1 -0.4,0.1 -1.5,-1.2 -3.1,-2.3 -4.7,-3.5 0.7,-0.1 1.4,-0.2 1.8,-0.3 2.9,-0.5 5.8,-1 8.7,-1.5 3.8,-0.7 2.9,-6.6 -0.9,-6 -3.9,0.7 -7.7,1.3 -11.6,2 -1.4,0.2 -3.1,0.4 -4.7,0.8 -28.7,-21.5 -57.6,-42.8 -86.7,-63.7 1.3,-2 2.6,-4.2 3,-6.2 0.6,-3 -1.9,-4 -4.4,-4.1 -4.5,-0.2 -9,-0.2 -13.5,-0.3 -0.6,0 -1.1,0.1 -1.5,0.4 -1.6,0.6 -2.8,2.3 -1.9,4 2.3,4 4.2,8.3 5.4,12.8 0.5,1.6 2.3,3.4 4.2,2.3 1.9,-1.1 3.5,-2.5 5,-4.1 29.2,21 58.2,42.3 87,63.9 0.1,1 0.4,2 0.6,3 0.8,3.7 1.3,7.4 1.8,11.1 0.4,3.8 6.4,3 6,-0.9 -0.3,-2.6 -0.7,-5.1 -1.1,-7.6 0,-0.1 0,-0.2 -0.1,-0.3 1.7,1.3 3.5,2.6 5.2,3.9 -0.1,3.1 -0.1,6.3 0.5,9.4 1,3.9 6.9,3 6.2,-0.8 z"
           id="path15"
           inkscape:connector-curvature="0"
           style="fill:#d0ac70" /><path
           class="st0"
           d="m 226.1,430.2 c -0.6,1.3 -1.4,2.4 -2.2,3.5 -1.4,-3 -6.4,-1.5 -5.6,1.9 -0.9,-0.6 -1.9,-1.1 -2.8,-1.7 -3.3,-2 -6.3,3.2 -2.9,5.3 2.5,1.5 5.1,3.1 7.6,4.6 0.1,0.1 0.3,0.1 0.4,0.1 0.5,1.9 1,3.7 1.6,5.6 -0.6,-0.4 -1.2,-0.7 -1.6,-0.9 -2.6,-1.4 -5.2,-2.7 -7.8,-4.1 -3.4,-1.8 -6.4,3.4 -2.9,5.3 3.5,1.8 6.9,3.6 10.4,5.5 1.2,0.6 2.7,1.6 4.2,2.2 9.6,34.6 19.4,69 29.6,103.4 -2.2,0.8 -4.6,1.7 -6.1,3.1 -2.3,2 -0.9,4.4 0.9,5.9 3.4,2.9 7,5.6 10.5,8.5 0.5,0.4 0.9,0.5 1.4,0.6 1.6,0.5 3.6,-0.2 3.9,-2 0.7,-4.6 1.8,-9.1 3.5,-13.4 0.6,-1.6 0.3,-4.1 -1.9,-4.4 -2.2,-0.3 -4.3,-0.1 -6.4,0.2 -10.2,-34.5 -20.1,-69.1 -29.7,-103.7 0.5,-0.9 0.9,-1.8 1.4,-2.8 1.6,-3.4 3.5,-6.6 5.4,-9.9 2,-3.3 -3.3,-6.3 -5.3,-2.9 -1.3,2.2 -2.6,4.4 -3.8,6.7 0,0.1 -0.1,0.2 -0.1,0.2 -0.6,-2.1 -1.2,-4.2 -1.7,-6.2 2,-2.4 3.9,-4.9 5.3,-7.7 1.7,-3.4 -3.5,-6.3 -5.3,-2.9 z"
           id="path17"
           inkscape:connector-curvature="0"
           style="fill:#d0ac70" /><g
           id="g19"><path
             class="st1"
             d="m 902.4,531.3 c -6.2,-8.5 -17.4,-9.1 -26.7,-6.7 -10.3,2.7 -19.7,8.3 -28.1,13.8 -8.7,5.6 -16.3,11.8 -24,17.8 l -1,0.8 0.8,1.3 c 9.1,15.3 18.7,32.7 33.9,45.9 7.3,6.3 17.3,11.3 27.2,7.6 4.3,-1.5 7.4,-4.7 9.7,-8.5 2.2,-3.9 3.7,-8.4 3.7,-13 0.1,-7.8 -2.7,-14.7 -7.4,-20.3 5.4,-3.1 10.6,-7.6 13.3,-13.7 1.8,-3.9 2.7,-8.4 2.6,-12.8 -0.1,-4.5 -1.5,-8.8 -4,-12.2 z"
             id="path21"
             inkscape:connector-curvature="0"
             style="fill:#f47878" /><path
             class="st1"
             d="m 841.1,652.1 c -5.2,-0.8 -10.6,-0.9 -15.8,-0.6 -5.3,0.3 -10.6,0.9 -15.5,1.7 -5,0.9 -9.9,1.9 -14.8,3 -4.9,1.1 -9.4,2.4 -14.2,3.5 l -1.2,0.3 0.2,1.5 c 2.2,17.8 3.6,37.5 12.2,55.8 4.1,8.7 11.2,17.4 21.7,18 8.8,0.5 17.1,-6 21,-14.1 3.5,-6.9 3.4,-14.6 1.6,-21.5 6.4,-0.5 12.5,-2.7 17.7,-7.1 3.4,-2.8 6,-6.5 7.6,-10.7 1.6,-4.1 2.3,-8.5 1.3,-12.7 -2.5,-10.3 -12.4,-15.5 -21.8,-17.1 z"
             id="path23"
             inkscape:connector-curvature="0"
             style="fill:#f47878" /><path
             class="st1"
             d="m 757.5,754.6 c -9,-5.9 -19.2,-8.9 -29.1,-11.7 -5,-1.3 -9.9,-2.3 -14.8,-3.3 -4.9,-1 -9.7,-1.8 -14.4,-2.6 l -1.2,-0.2 -0.5,1.5 c -5.3,16.9 -11.8,35.8 -11.5,55.8 0.3,9.7 3.2,20.5 12.6,25.3 3.9,2 8.5,2.5 12.9,1.6 4.4,-0.9 8.6,-3.1 12.1,-5.9 5.9,-5.1 9,-12 10.2,-19 6,2 12.5,2.5 19.1,0.7 8.2,-2.6 15.9,-9.3 17.5,-17.8 2.1,-10.4 -4.9,-19.2 -12.9,-24.4 z"
             id="path25"
             inkscape:connector-curvature="0"
             style="fill:#f47878" /><path
             class="st1"
             d="m 617.8,791.8 c -8.1,-6.6 -16.3,-11.8 -24.3,-17.4 l -1,-0.7 -1,1.2 c -5.9,6.9 -12.2,13.5 -18.1,21.3 -5.9,7.4 -11.3,15.7 -15.2,25.1 -3.7,8.8 -5.4,19.9 1.2,28.2 5.5,6.7 15.9,8.8 24.5,6.1 3.7,-1.1 7,-2.8 9.9,-5.1 2.8,-2.4 5.2,-5.1 7.2,-8.2 4.6,4.3 10.5,7.7 17.2,8.4 8.6,1.2 18.3,-2.1 23.3,-9 6.1,-8.5 3.3,-19.6 -1.8,-27.5 -5.9,-8.8 -14.1,-16.3 -21.9,-22.4 z"
             id="path27"
             inkscape:connector-curvature="0"
             style="fill:#f47878" /><path
             class="st1"
             d="m 496.7,791.3 c -2.3,-4.6 -4.9,-9 -7.4,-13.2 -2.6,-4.3 -5.1,-8.5 -7.7,-12.5 l -0.7,-1 -1.4,0.7 c -16.1,7.3 -34.6,15.3 -49.2,28.8 -7,6.6 -13.1,16 -10.4,26.3 2.1,8.7 11,14.3 19.9,15.7 7.8,0.9 14.9,-1.1 21,-5.2 2.5,5.7 6.5,11.2 12.3,14.7 7.4,4.4 17.6,5.6 25,1.1 9.1,-5.3 10.9,-16.4 9.5,-25.9 -1.7,-10.7 -6.3,-20.5 -10.9,-29.5 z"
             id="path29"
             inkscape:connector-curvature="0"
             style="fill:#f47878" /><path
             class="st1"
             d="m 385.1,726.5 c -0.7,-4.9 -1.3,-9.7 -2,-14.5 l -0.2,-1.2 -1.6,0 c -9,0.2 -18.2,0 -28,0.9 -9.4,0.6 -19.3,2.2 -28.8,5.5 -9.1,3.2 -18.4,9.3 -20.2,19.8 -1.3,8.6 4.1,17.7 11.9,22.3 6.5,4.2 14.1,5 21.3,3.8 -0.1,6.4 1.3,12.9 5.2,18.4 4.8,7.2 13.9,12.1 22.3,11.3 10.6,-1.3 16.8,-10.7 19.3,-19.8 2.7,-10.1 2.8,-21.3 2.1,-31.2 -0.3,-5.2 -0.7,-10.4 -1.3,-15.3 z"
             id="path31"
             inkscape:connector-curvature="0"
             style="fill:#f47878" /><path
             class="st1"
             d="m 314.6,623 0.4,-1.2 -1.4,-0.6 c -16.5,-7 -34.2,-15.6 -54.4,-17.2 -9.7,-0.7 -20.7,1 -26.5,9.8 -2.4,3.7 -3.3,8.1 -2.9,12.6 0.5,4.4 2.2,8.9 4.7,12.6 4.2,6.5 11.1,10.2 17.9,12.1 -2.8,5.8 -3.8,12.2 -2.7,18.9 0.7,4.3 2.8,8.4 5.5,11.9 2.7,3.5 6.2,6.2 10.4,7.4 10.1,3.1 19.6,-2.9 25.6,-10.3 6.7,-8.2 11,-18.2 14.6,-27.7 3.5,-9.5 6.4,-19.1 8.8,-28.3 z"
             id="path33"
             inkscape:connector-curvature="0"
             style="fill:#f47878" /><path
             class="st1"
             d="m 244.1,555.5 c 9.5,-4.8 17.7,-12.2 24.6,-19.3 7.5,-7.3 13.5,-14.9 19.8,-22.3 l 0.8,-1 -1.1,-1.2 c -6.2,-6.6 -12.1,-13.6 -19.4,-20.2 -6.8,-6.6 -14.5,-12.9 -23.4,-17.7 -8.4,-4.6 -19.2,-7.4 -28.2,-1.8 -7.2,4.8 -10.4,14.9 -8.6,23.8 0.7,3.8 2.1,7.3 4,10.3 2,3.1 4.6,5.7 7.4,8 -4.7,4.2 -8.8,9.6 -10.2,16.2 -0.9,4.2 -1,8.8 0.1,13.1 1.2,4.3 3.4,8.2 6.5,11 8,7.1 19.4,5.4 27.7,1.1 z"
             id="path35"
             inkscape:connector-curvature="0"
             style="fill:#f47878" /><path
             class="st1"
             d="m 251.6,423.5 c 10.7,-0.5 20.8,-4.1 30.4,-7.6 4.8,-1.9 9.4,-3.9 13.8,-6 4.6,-2.1 9,-4.2 13.2,-6.3 l 1.1,-0.6 -0.5,-1.5 c -5.5,-16.8 -11.5,-35.9 -23.4,-51.9 -5.9,-7.7 -14.6,-14.7 -25,-13.1 -8.9,1.2 -15.4,9.5 -17.7,18.1 -1.8,7.6 -0.3,15 2.9,21.4 -6,1.9 -11.7,5.3 -15.9,10.7 -5,6.9 -7.4,16.9 -3.7,24.7 4.4,9.6 15.2,12.6 24.8,12.1 z"
             id="path37"
             inkscape:connector-curvature="0"
             style="fill:#f47878" /><path
             class="st1"
             d="m 312,306 c 9.8,3.8 20.9,5 30.8,5.4 10.4,0.6 20.1,0 29.9,-0.2 l 1.2,-0.1 0.1,-1.6 c 1.7,-17.7 4.1,-37.5 -0.4,-57 -2.3,-9.4 -7.4,-19.3 -17.6,-22.2 -4.3,-1.3 -8.7,-0.6 -12.9,1.2 -4.1,1.8 -7.9,4.6 -10.6,8.3 -4.7,6.2 -6.5,13.5 -6,20.8 -6.2,-0.7 -13,-0.1 -18.8,3.3 -3.7,2.1 -7.2,5.1 -9.7,8.8 -2.4,3.7 -3.8,7.9 -3.8,12.2 0.2,10.4 9,17.7 17.8,21.1 z"
             id="path39"
             inkscape:connector-curvature="0"
             style="fill:#f47878" /><path
             class="st1"
             d="m 441,240.6 c 4.6,2.2 9.2,4.3 13.8,6.3 4.6,1.9 9.1,3.7 13.6,5.5 l 1.2,0.5 0.8,-1.3 c 8.6,-15.7 19.1,-32.4 22.9,-52.3 1.8,-9.5 1.1,-20.7 -7,-27.4 -6.8,-5.6 -17.4,-5.3 -25.3,-0.9 -6.9,3.5 -11.3,9.9 -14,16.5 -5.5,-3.4 -11.8,-5.2 -18.5,-4.6 -4.3,0.3 -8.7,1.7 -12.4,4.2 -3.7,2.4 -6.8,5.5 -8.5,9.5 -4.1,9.8 0.9,19.8 7.6,26.6 3.7,3.8 8,6.9 12.4,9.8 4.3,2.8 8.9,5.3 13.4,7.6 z"
             id="path41"
             inkscape:connector-curvature="0"
             style="fill:#f47878" /><path
             class="st1"
             d="m 579.6,237.9 0.9,0.9 1.3,-0.9 c 3.6,-2.7 7.3,-5.4 11,-8.2 3.7,-2.8 7.5,-5.9 11.1,-8.9 7.3,-6 14.3,-13.2 20,-21.4 5.5,-7.9 9.4,-18.3 4.7,-27.9 -2,-4 -5.4,-6.8 -9.5,-8.7 -4.1,-1.9 -8.8,-2.8 -13.3,-2.3 -7.7,0.6 -14.3,4.2 -19.4,9.4 -3.7,-5.1 -8.6,-9.8 -15,-11.8 -4.1,-1.4 -8.7,-1.8 -13,-1.3 -4.4,0.7 -8.5,2.5 -11.6,5.4 -7.8,7 -7.3,18.3 -3.9,27.2 3.8,10 10.3,18.8 16.6,26.5 6.4,8.1 13.4,14.9 20.1,22 z"
             id="path43"
             inkscape:connector-curvature="0"
             style="fill:#f47878" /><path
             class="st1"
             d="m 687.6,270.8 1.5,-0.3 c 17.4,-4 36.9,-7.5 54.1,-17.9 8.3,-5.1 16.2,-13 15.7,-23.5 -0.2,-4.4 -2.1,-8.5 -5,-12 -3,-3.3 -7,-5.9 -11.2,-7.5 -7.3,-2.7 -14.9,-1.8 -21.6,0.6 -1.2,-6.3 -4.1,-12.1 -8.9,-16.9 -3.1,-3.1 -7.2,-5.1 -11.4,-6.4 -4.2,-1.2 -8.7,-1.4 -12.8,0.1 -10,3.4 -14.1,13.8 -14.7,23.4 -0.6,10.6 1.8,21.2 4.4,31 2.8,9.8 6.1,19.3 9.5,28.2 l 0.4,1.2 z"
             id="path45"
             inkscape:connector-curvature="0"
             style="fill:#f47878" /><path
             class="st1"
             d="m 830.7,349.8 c 9.6,-1.3 20,-5.3 23.9,-15.1 3.4,-8.3 -0.5,-18 -6.9,-24.4 -5.8,-5.3 -12.8,-7.8 -20,-8.1 1.3,-6.1 1.3,-12.8 -1.3,-19.1 -1.7,-3.9 -4.5,-7.6 -7.8,-10.5 -3.4,-2.8 -7.5,-4.6 -11.7,-5.1 -10.5,-1 -18.5,6.9 -22.9,15.3 -4.9,9.5 -7,20.2 -8.6,30.1 -0.8,5.1 -1.4,10.1 -1.7,15 -0.4,4.9 -0.8,9.9 -1.1,14.7 l -0.1,1.2 1.5,0.3 c 17.3,3.7 36.9,8.1 56.7,5.7 z"
             id="path47"
             inkscape:connector-curvature="0"
             style="fill:#f47878" /><path
             class="st1"
             d="m 835.5,418 c -2.6,4.3 -5.4,8.7 -7.8,13 -2.3,4.4 -4.7,8.6 -6.9,12.9 l -0.6,1.1 1.3,0.9 c 7.4,5.1 14.7,10.7 23.1,15.7 8.1,5 16.8,9.6 26.5,12.5 9.2,2.8 20.4,3.3 27.9,-4.1 6.2,-6.2 7.1,-16.7 3.5,-25.1 -2.8,-7.2 -8.5,-12.3 -14.9,-15.6 1.9,-2.5 3.5,-5.3 4.7,-8.4 1.1,-3 1.8,-6.2 1.8,-9.6 0.4,-8.7 -4.1,-18 -11.4,-22.2 -9.3,-5.2 -19.8,-1.2 -27.2,4.8 -8.1,6.7 -14.7,15.7 -20,24.1 z"
             id="path49"
             inkscape:connector-curvature="0"
             style="fill:#f47878" /></g></g></g></switch></svg>