<?xml version="1.0" encoding="UTF-8" standalone="no"?>
<svg
   xmlns:dc="http://purl.org/dc/elements/1.1/"
   xmlns:cc="http://creativecommons.org/ns#"
   xmlns:rdf="http://www.w3.org/1999/02/22-rdf-syntax-ns#"
   xmlns:svg="http://www.w3.org/2000/svg"
   xmlns="http://www.w3.org/2000/svg"
   xmlns:sodipodi="http://sodipodi.sourceforge.net/DTD/sodipodi-0.dtd"
   xmlns:inkscape="http://www.inkscape.org/namespaces/inkscape"
   version="1.1"
   id="l7"
   x="0px"
   y="0px"
    class="withFill"
   viewBox="189.6498565673828 318 620.7003173828125 364"
   width="100%"
   height="100%"
   style="enable-background:new 0 0 1000 1000;"
   xml:space="preserve"
  ><style
     type="text/css"
     id="style3">
	#l7 .st0{fill:#9E9E9E;}
	#l7 .st1{fill:#FFFFFF;}
</style><switch
     id="switch5"
     transform="translate(47.449842,0)"><g
       id="g7"><path
         class="st0"
         d="m 704.8,379.5 0,-36 -31.3,0 0,-25.5 -441.8,0 0,25.5 -31.3,0 0,35.9 c -34.5,17.5 -58.2,53.3 -58.2,94.6 l 0,51.7 c 0,41.3 23.7,77.2 58.2,94.7 l 0,36 31.3,0 0,25.6 441.7,0 0,-25.5 31.3,0 0,-36 c 34.5,-17.6 58.2,-53.4 58.2,-94.7 l 0,-51.5 c 0.1,-41.4 -23.6,-77.2 -58.1,-94.8 z"
         id="path9"
         inkscape:connector-curvature="0"
         style="fill:#9e9e9e" /><g
         id="g11"><path
           class="st1"
           d="m 685,389 0,-33.1 -28.9,0 0,-23.5 -407,0 0,23.5 -28.9,0 0,33.1 c -31.8,16.1 -53.7,49.1 -53.7,87.2 l 0,47.7 c 0,38.1 21.9,71.1 53.7,87.3 l 0,33.1 28.9,0 0,23.5 407,0 0,-23.5 28.9,0 0,-33.3 c 31.8,-16.2 53.7,-49.2 53.7,-87.3 l 0,-47.5 c -0.1,-38 -21.9,-71 -53.7,-87.2 z m 49.8,134.7 c 0,35.9 -20.2,67.1 -49.8,83 -1.3,0.7 -2.5,1.3 -3.8,1.9 l 0,4.2 0,27.5 -25.1,0 -3.8,0 0,3.8 0,19.7 -399.4,0 0,-19.7 0,-3.8 -3.8,0 -25.1,0 0,-27.5 0,-4.2 c -1.3,-0.6 -2.6,-1.3 -3.8,-1.9 -29.6,-15.8 -49.8,-47.1 -49.8,-83 l 0,-47.7 c 0,-35.9 20.2,-67.1 49.8,-82.9 1.3,-0.7 2.5,-1.3 3.8,-1.9 l 0,-4.2 0,-27.4 25.1,0 3.8,0 0,-3.8 0,-19.7 399.4,0 0,19.7 0,3.8 3.8,0 25.1,0 0,27.5 0,4.2 c 1.3,0.6 2.6,1.3 3.8,1.9 29.6,15.8 49.8,47.1 49.8,83 l 0,47.5 z"
           id="path13"
           inkscape:connector-curvature="0"
           style="fill:#ffffff" /></g></g></switch></svg>