<?xml version="1.0" encoding="UTF-8" standalone="no"?>
<svg
   xmlns:dc="http://purl.org/dc/elements/1.1/"
   xmlns:cc="http://creativecommons.org/ns#"
   xmlns:rdf="http://www.w3.org/1999/02/22-rdf-syntax-ns#"
   xmlns:svg="http://www.w3.org/2000/svg"
   xmlns="http://www.w3.org/2000/svg"
   xmlns:sodipodi="http://sodipodi.sourceforge.net/DTD/sodipodi-0.dtd"
   xmlns:inkscape="http://www.inkscape.org/namespaces/inkscape"
   version="1.1"
   id="l71"
   x="0px"
   y="0px"
   viewBox="151.10955810546875 175.0463409423828 697.7809448242188 649.9074096679688"
   width="100%"
   height="100%"
   style="enable-background:new 0 0 1000 1000;"
   xml:space="preserve"
   ><style
     type="text/css"
     id="style3">
	#l71 .st0{fill:#D0AC70;}
</style><switch
     id="switch5"
     transform="translate(-41.517859,-18.846338)"><g
       id="g7"><g
         id="g9"><g
           id="g11"><path
             class="st0"
             d="m 487.6,783.3 c 6.8,3.7 19.4,2 23.4,2.7 12.8,2.5 8,19.3 11.7,23.2 -4.8,-2.3 -19.2,7.6 -25.6,-3.8 -2.1,-3.4 -3.7,-15.6 -9.5,-22.1 z"
             id="path13"
             inkscape:connector-curvature="0"
             style="fill:#d0ac70" /></g><g
           id="g15"><path
             class="st0"
             d="m 447,750.1 c 6.7,3.9 19.4,2.7 23.2,3.5 12.7,2.9 7.4,19.5 11,23.5 -4.7,-2.4 -19.4,7.1 -25.5,-4.6 -1.9,-3.5 -3.1,-15.7 -8.7,-22.4 z"
             id="path17"
             inkscape:connector-curvature="0"
             style="fill:#d0ac70" /></g><g
           id="g19"><path
             class="st0"
             d="m 407.8,715.3 c 6.5,4.2 19.2,3.5 23,4.5 12.6,3.3 6.6,19.8 10.1,23.9 -4.6,-2.6 -19.6,6.3 -25.3,-5.6 -1.8,-3.6 -2.5,-15.9 -7.8,-22.8 z"
             id="path21"
             inkscape:connector-curvature="0"
             style="fill:#d0ac70" /></g><g
           id="g23"><path
             class="st0"
             d="m 370.2,678.7 c 6.3,4.5 19.1,4.4 22.8,5.6 12.3,3.9 5.7,20 9,24.3 -4.4,-2.8 -19.9,5.4 -25.1,-6.7 -1.6,-3.7 -1.7,-16 -6.7,-23.2 z"
             id="path25"
             inkscape:connector-curvature="0"
             style="fill:#d0ac70" /></g><g
           id="g27"><path
             class="st0"
             d="m 334.7,640.1 c 6,4.9 18.8,5.5 22.4,6.9 12,4.6 4.6,20.3 7.6,24.8 -4.3,-3 -20.2,4.4 -24.7,-8.1 -1.3,-3.9 -0.8,-16.2 -5.3,-23.6 z"
             id="path29"
             inkscape:connector-curvature="0"
             style="fill:#d0ac70" /></g><g
           id="g31"><path
             class="st0"
             d="m 301.7,599.3 c 5.7,5.3 18.4,6.7 22,8.3 11.6,5.4 3.3,20.5 6,25.2 -4,-3.3 -20.5,3.2 -24.1,-9.6 -1.1,-3.9 0.2,-16.2 -3.9,-23.9 z"
             id="path33"
             inkscape:connector-curvature="0"
             style="fill:#d0ac70" /></g><g
           id="g35"><path
             class="st0"
             d="m 271.7,556.3 c 5.3,5.7 17.9,8 21.3,9.9 11.1,6.2 1.8,20.6 4.2,25.5 -3.8,-3.6 -20.8,1.8 -23.4,-11.3 -0.7,-4 1.4,-16.1 -2.1,-24.1 z"
             id="path37"
             inkscape:connector-curvature="0"
             style="fill:#d0ac70" /></g><g
           id="g39"><path
             class="st0"
             d="m 245.3,511 c 4.7,6.2 17,9.5 20.4,11.6 10.6,7 0.2,20.7 2.3,25.7 -3.5,-3.9 -20.9,0.2 -22.5,-13.1 -0.7,-4 2.4,-15.9 -0.2,-24.2 z"
             id="path41"
             inkscape:connector-curvature="0"
             style="fill:#d0ac70" /></g><g
           id="g43"><path
             class="st0"
             d="m 223.6,463.3 c 3.8,6.8 15.9,11.3 18.8,13.7 9.9,7.9 -2.1,20.6 -0.3,25.8 -3.3,-4 -20.7,-1.9 -21.1,-15.3 -0.1,-4.2 4.1,-15.6 2.6,-24.2 z"
             id="path45"
             inkscape:connector-curvature="0"
             style="fill:#d0ac70" /></g><g
           id="g47"><path
             class="st0"
             d="m 208.9,412.9 c 1.2,3.7 4.9,7.1 8.3,9.9 3.4,2.9 6.8,5.1 8.2,6.5 8.5,9.1 -4.9,19.9 -3.9,25.4 -2.5,-4.5 -20.4,-4.6 -18.8,-18.2 0.2,-4.1 6.4,-14.9 6.2,-23.6 z"
             id="path49"
             inkscape:connector-curvature="0"
             style="fill:#d0ac70" /></g><g
           id="g51"><path
             class="st0"
             d="m 204.5,360.7 c 0.6,3.8 3.2,8 5.8,11.5 2.8,3.5 5.8,6.3 6.7,8 3.1,5.3 1,9.7 -1.9,13.7 -3,4 -6.9,7.5 -6.8,10.2 -1,-2.5 -5.7,-4.4 -9.7,-7.6 -4,-3.1 -7.6,-7.5 -5.2,-14 0.6,-2 3,-5.4 5.3,-9.3 2.4,-3.9 5,-8.2 5.8,-12.5 z"
             id="path53"
             inkscape:connector-curvature="0"
             style="fill:#d0ac70" /></g><g
           id="g55"><path
             class="st0"
             d="m 213.6,309.2 c -1.6,7.7 5.8,18.5 6.7,22 1.7,5.9 -1.3,9.6 -5.3,12.7 -4,3.1 -8.3,5.6 -9,8.2 -0.3,-2.6 -4.6,-5.7 -7.7,-9.8 -3,-4 -5.2,-9.2 -1.5,-15 1.2,-1.8 4.4,-4.4 7.7,-7.6 1.7,-1.6 3.3,-3.3 4.9,-5 1.7,-1.8 3.2,-3.6 4.2,-5.5 z"
             id="path57"
             inkscape:connector-curvature="0"
             style="fill:#d0ac70" /></g><g
           id="g59"><path
             class="st0"
             d="m 238,262.9 c -1.7,3.5 -2,8.4 -1.8,12.7 0.1,4.3 1.3,8.4 1.2,10.2 -0.1,3.1 -1.2,5.1 -2.9,6.6 -1.6,1.6 -3.7,2.7 -6,3.6 -4.6,1.8 -9.7,2.8 -11.2,5.1 0.6,-2.5 -2.4,-6.7 -4.2,-11.5 -0.9,-2.4 -1.5,-5.1 -1.3,-7.7 0.4,-2.5 1.8,-5 4.5,-7.2 1.7,-1.3 5.3,-3.1 9.6,-4.9 4.4,-1.8 9,-3.9 12.1,-6.9 z"
             id="path61"
             inkscape:connector-curvature="0"
             style="fill:#d0ac70" /></g><g
           id="g63"><path
             class="st0"
             d="m 277.3,228.4 c -2.9,2.6 -5.2,6.7 -6.3,11.1 -1.2,4.3 -1.8,8.2 -2.6,9.9 -1.3,2.7 -2.9,4.4 -4.9,5.3 -2,0.9 -4.5,1.1 -7,1.1 -5.1,-0.2 -10,-0.7 -12.1,1 1.4,-2.2 -0.4,-7.4 -0.1,-12.5 0.2,-5 1.6,-10.7 8.4,-12.8 2.1,-0.6 6.3,-0.7 10.8,-1 4.5,-0.5 9.8,-0.4 13.8,-2.1 z"
             id="path65"
             inkscape:connector-curvature="0"
             style="fill:#d0ac70" /></g><g
           id="g67"><path
             class="st0"
             d="m 326.1,209.7 c -3.7,1.2 -7.1,4.8 -9.7,8.4 -2.7,3.6 -4.7,6.8 -5.9,8.3 -4.1,4.7 -8.8,3.6 -13.5,1.8 -4.5,-1.6 -9.1,-4.1 -11.6,-3.3 2.1,-1.6 2.5,-6.7 4.3,-11.7 1.8,-4.9 5.4,-9.1 12.3,-9 2.1,-0.1 6.1,1.5 10.5,2.9 4.4,1.3 9.2,2.5 13.6,2.6 z"
             id="path69"
             inkscape:connector-curvature="0"
             style="fill:#d0ac70" /></g><g
           id="g71"><path
             class="st0"
             d="m 378.4,207.6 c -3.9,0.3 -8.2,2.6 -11.9,5 -3.7,2.4 -6.6,5.4 -8.3,6.2 -2.7,1.5 -5.1,1.5 -7.3,0.8 -2.2,-0.5 -4.2,-1.9 -6.1,-3.4 -3.8,-3.1 -7.3,-7.2 -10,-7.2 2.5,-0.9 4.6,-5.4 7.9,-9.4 1.7,-2 3.6,-3.8 6,-4.9 2.4,-1 5.2,-1 8.4,0.3 2,0.8 5.3,3.2 9,5.8 4,2.8 8.1,5.7 12.3,6.8 z"
             id="path73"
             inkscape:connector-curvature="0"
             style="fill:#d0ac70" /></g><g
           id="g75"><path
             class="st0"
             d="m 429.2,220.6 c -7.7,-1.8 -18.9,4.2 -22.5,5.1 -6,1.1 -9.4,-2.1 -12.2,-6.4 -2.8,-4 -4.9,-8.7 -7.5,-9.5 2.6,-0.1 6,-4 10.4,-7 4.2,-2.7 9.6,-4.6 15.1,-0.2 1.7,1.3 4.1,4.6 7,8.2 2.7,3.7 6,7.3 9.7,9.8 z"
             id="path77"
             inkscape:connector-curvature="0"
             style="fill:#d0ac70" /></g><g
           id="g79"><path
             class="st0"
             d="m 474.8,246.3 c -7,-3.6 -19.4,-0.6 -23.1,-0.7 -6.2,-0.5 -8.6,-4.5 -10.2,-9.4 -1.6,-4.6 -2.4,-9.8 -4.6,-11.3 2.5,0.7 6.8,-2.2 11.8,-3.8 4.8,-1.5 10.4,-1.9 14.5,3.7 1.3,1.7 2.8,5.5 4.6,9.6 1.8,4.3 4.1,8.7 7,11.9 z"
             id="path81"
             inkscape:connector-curvature="0"
             style="fill:#d0ac70" /></g><g
           id="g83"><path
             class="st0"
             d="m 513.8,281.4 c -6.2,-4.8 -18.9,-4.5 -22.6,-5.4 -6,-1.8 -7.5,-6.4 -8,-11.5 -0.6,-4.9 -0.1,-10.1 -2,-12.1 2.3,1.2 7.2,-0.5 12.3,-1 5,-0.4 10.5,0.4 13.3,6.6 1.9,3.7 2.4,16 7,23.4 z"
             id="path85"
             inkscape:connector-curvature="0"
             style="fill:#d0ac70" /></g><g
           id="g87"><path
             class="st0"
             d="m 597.6,251.3 c -5.4,5.7 -5.8,18.6 -7,22.2 -2.2,5.9 -6.9,7.1 -12,7.3 -5,0.2 -10.1,-0.6 -12.2,1.1 2.7,-4.4 -5.5,-20.2 7.3,-25.2 3.9,-1.6 16.2,-1.4 23.9,-5.4 z"
             id="path89"
             inkscape:connector-curvature="0"
             style="fill:#d0ac70" /></g><g
           id="g91"><path
             class="st0"
             d="m 642.2,223.6 c -3.3,2.1 -5.7,6.5 -7.7,10.4 -1.9,4.1 -3.1,7.9 -4.1,9.5 -3.3,5.4 -8.2,5.3 -13.1,4.5 -4.9,-0.9 -9.8,-2.7 -12.2,-1.4 1.8,-2 1.3,-7.1 2.3,-12.2 0.9,-5.1 3.4,-10 10.1,-11.1 2.1,-0.3 6.2,0.2 10.7,0.6 4.7,0.6 9.7,0.7 14,-0.3 z"
             id="path93"
             inkscape:connector-curvature="0"
             style="fill:#d0ac70" /></g><g
           id="g95"><path
             class="st0"
             d="m 692.4,208.4 c -3.7,1.3 -7.3,4.7 -10.2,7.9 -2.9,3.3 -5,6.9 -6.4,8.2 -2.3,2.1 -4.6,2.8 -6.9,2.7 -2.3,0 -4.6,-0.8 -6.9,-1.9 -4.5,-2.2 -8.8,-4.9 -11.4,-4.4 2.2,-1.4 3,-6.6 5.3,-11.2 2.2,-4.6 5.8,-9 12.8,-8 2.1,0.2 5.9,1.7 10.2,3.3 4.3,1.8 9.1,3.4 13.5,3.4 z"
             id="path97"
             inkscape:connector-curvature="0"
             style="fill:#d0ac70" /></g><g
           id="g99"><path
             class="st0"
             d="m 744.8,208.3 c -3.9,0.2 -8.3,2.1 -12,4.6 -3.7,2.5 -6.8,5.1 -8.5,5.9 -5.5,2.5 -9.6,0.4 -13.4,-3 -3.7,-3.5 -7,-7.2 -9.7,-7.4 2.5,-0.7 4.8,-5.7 8.2,-9.3 3.4,-3.7 8.2,-7 14.6,-4.1 1.9,0.8 5.2,3.5 8.8,6.2 3.8,2.5 7.8,5.8 12,7.1 z"
             id="path101"
             inkscape:connector-curvature="0"
             style="fill:#d0ac70" /></g><g
           id="g103"><path
             class="st0"
             d="m 794.8,224 c -7.5,-2.7 -19.2,3.1 -22.6,3.5 -6.1,1 -9.2,-2.5 -11.8,-6.9 -2.6,-4.1 -4.5,-8.9 -7.1,-9.8 2.6,0 6.2,-3.8 10.7,-6.5 4.4,-2.5 9.9,-3.9 15.2,0.5 1.6,1.4 3.9,5 6.5,8.8 2.7,3.5 5.6,7.7 9.1,10.4 z"
             id="path105"
             inkscape:connector-curvature="0"
             style="fill:#d0ac70" /></g><g
           id="g107"><path
             class="st0"
             d="m 836.4,255.7 c -1.5,-1.2 -3.4,-2.2 -5.5,-2.8 -2.2,-0.6 -4.5,-0.9 -6.7,-1.1 -4.4,-0.4 -8.2,-0.4 -10.1,-0.7 -6.1,-0.9 -7.6,-5.6 -8.6,-10.4 -1,-4.7 -1.3,-9.9 -3.4,-11.7 2.5,0.9 7,-1.5 12.2,-2.5 5.2,-1.2 10.6,-0.2 14.2,5.7 1.2,1.7 2,6 3.1,10.5 0.6,2.2 1.2,4.6 2,6.8 0.9,2.1 1.6,4.4 2.8,6.2 z"
             id="path109"
             inkscape:connector-curvature="0"
             style="fill:#d0ac70" /></g><g
           id="g111"><path
             class="st0"
             d="m 863.9,300.3 c -4.3,-6.6 -16.2,-10.6 -19.5,-12.3 -5.2,-3.2 -4.8,-8.1 -4.2,-12.9 0.8,-4.8 2.5,-9.8 1.3,-12.2 1.9,1.8 7,1.3 12.1,2.2 2.5,0.5 5.2,1.3 7.2,2.9 1.9,1.7 3.4,4.1 3.9,7.6 1.1,4.3 -2.7,16.3 -0.8,24.7 z"
             id="path113"
             inkscape:connector-curvature="0"
             style="fill:#d0ac70" /></g><g
           id="g115"><path
             class="st0"
             d="m 876.8,351.1 c -1.1,-3.7 -4.3,-7.5 -7.4,-10.5 -3.3,-3 -6.7,-5.4 -7.9,-6.8 -3.8,-4.8 -2.6,-9.3 -0.3,-13.8 1.2,-2.2 2.6,-4.4 3.6,-6.3 0.9,-1.9 1.6,-3.6 1.3,-4.9 1.4,2.2 6.5,3.3 11,5.8 4.4,2.5 8.9,6.2 7.5,13.1 -0.3,2.1 -2.1,5.8 -3.8,10 -1.9,4.4 -3.9,9.1 -4,13.4 z"
             id="path117"
             inkscape:connector-curvature="0"
             style="fill:#d0ac70" /></g><g
           id="g119"><path
             class="st0"
             d="m 875.8,403.6 c -0.2,-3.9 -2.2,-8.3 -4.6,-12.1 -2.4,-3.8 -5,-6.9 -5.8,-8.6 -2.4,-5.7 -0.2,-9.8 3.4,-13.4 3.6,-3.6 7.4,-6.8 7.7,-9.5 0.6,2.5 5.4,5 9,8.6 3.6,3.5 6.7,8.3 3.7,14.6 -0.9,1.9 -3.6,5 -6.3,8.6 -2.7,3.6 -5.9,7.6 -7.1,11.8 z"
             id="path121"
             inkscape:connector-curvature="0"
             style="fill:#d0ac70" /></g><g
           id="g123"><path
             class="st0"
             d="m 863.6,454.7 c 1.4,-7.7 -5.2,-18.8 -6,-22.5 -1.4,-6.2 2,-9.7 6.3,-12.5 4.1,-2.8 8.8,-4.9 9.7,-7.5 0,2.6 4,6.1 6.8,10.4 2.7,4.2 4.5,9.4 0.5,14.9 -2.6,3.2 -13,9.6 -17.3,17.2 z"
             id="path125"
             inkscape:connector-curvature="0"
             style="fill:#d0ac70" /></g><g
           id="g127"><path
             class="st0"
             d="m 843.3,503.1 c 2.3,-7.5 -2.3,-19.4 -2.7,-23.2 -0.8,-12.6 16.4,-12.4 19.1,-17.2 -0.9,5.1 12.8,16.5 3,26 -2.7,2.9 -14.2,7.4 -19.4,14.4 z"
             id="path129"
             inkscape:connector-curvature="0"
             style="fill:#d0ac70" /></g><g
           id="g131"><path
             class="st0"
             d="m 817.4,548.8 c 3.1,-7.2 -0.2,-19.5 -0.1,-23.4 0.5,-6.4 4.8,-9 9.6,-10.5 4.8,-1.6 10,-2.1 11.5,-4.3 -1.4,5 10.6,17.9 -0.1,26.1 -3.1,2.4 -14.9,5.7 -20.9,12.1 z"
             id="path133"
             inkscape:connector-curvature="0"
             style="fill:#d0ac70" /></g><g
           id="g135"><path
             class="st0"
             d="m 787.5,592 c 3.6,-6.9 1.3,-19.5 1.9,-23.4 1.8,-12.7 18.8,-8.8 22.4,-12.9 -1.9,4.9 8.8,18.8 -2.5,25.9 -3.3,2.2 -15.3,4.5 -21.8,10.4 z"
             id="path137"
             inkscape:connector-curvature="0"
             style="fill:#d0ac70" /></g><g
           id="g139"><path
             class="st0"
             d="m 754.7,633 c 4,-6.7 2.7,-19.4 3.4,-23.3 2.8,-12.5 19.4,-7.5 23.4,-11.2 -2.4,4.7 7.4,19.4 -4.4,25.6 -3.5,2 -15.7,3.3 -22.4,8.9 z"
             id="path141"
             inkscape:connector-curvature="0"
             style="fill:#d0ac70" /></g><g
           id="g143"><path
             class="st0"
             d="m 719.4,671.9 c 4.4,-6.4 3.7,-19.2 4.7,-23 3.5,-12.4 19.9,-6.3 24,-9.9 -2.6,4.6 6.2,19.8 -5.8,25.3 -3.6,1.8 -15.8,2.5 -22.9,7.6 z"
             id="path145"
             inkscape:connector-curvature="0"
             style="fill:#d0ac70" /></g><g
           id="g147"><path
             class="st0"
             d="m 682.2,709 c 4.7,-6.2 4.7,-19 5.9,-22.8 4.1,-12.2 20.2,-5.3 24.5,-8.6 -2.8,4.4 5.2,20.1 -7.1,25 -3.7,1.5 -15.9,1.6 -23.3,6.4 z"
             id="path149"
             inkscape:connector-curvature="0"
             style="fill:#d0ac70" /></g><g
           id="g151"><path
             class="st0"
             d="m 643.3,744.2 c 5,-5.9 5.6,-18.8 7,-22.5 4.8,-12 20.4,-4.3 24.9,-7.4 -3.1,4.3 4.2,20.3 -8.4,24.6 -3.8,1.3 -16,0.9 -23.5,5.3 z"
             id="path153"
             inkscape:connector-curvature="0"
             style="fill:#d0ac70" /></g><g
           id="g155"><path
             class="st0"
             d="m 602.9,777.8 c 5.2,-5.7 6.3,-18.6 7.9,-22.2 5.3,-11.9 20.6,-3.5 25.2,-6.4 -3.3,4.1 3.3,20.4 -9.4,24.2 -3.8,1.2 -16,0.2 -23.7,4.4 z"
             id="path157"
             inkscape:connector-curvature="0"
             style="fill:#d0ac70" /></g><g
           id="g159"><path
             class="st0"
             d="m 561.4,810 c 5.3,-5.6 6.9,-18.3 8.6,-21.9 5.7,-11.7 20.7,-2.8 25.4,-5.5 -3.4,4 2.6,20.5 -10.2,23.8 -3.8,1 -16,-0.4 -23.8,3.6 z"
             id="path161"
             inkscape:connector-curvature="0"
             style="fill:#d0ac70" /></g><g
           id="g163"><path
             class="st0"
             d="m 539.3,341.1 0.2,-0.8 0.2,-0.8 c 0.2,-0.6 0.4,-1.3 0.6,-1.9 0.2,-0.7 0.5,-1.4 0.7,-2.1 0.3,-0.7 0.6,-1.4 0.9,-2.1 l 1,-2.2 1.1,-2.2 c 0.8,-1.4 1.5,-2.9 2.3,-4.3 0.8,-1.4 1.6,-2.7 2.3,-4 0.7,-1.2 1.5,-2.4 2.1,-3.5 0.6,-1.1 1.2,-2.1 1.7,-3 0.2,-0.4 0.5,-0.9 0.7,-1.2 0.2,-0.4 0.3,-0.7 0.5,-1 0.2,-0.5 0.4,-1 0.6,-1.5 0.1,-0.5 0.3,-1 0.4,-1.4 l 0.2,-0.7 0.1,-0.7 c 0.1,-0.4 0.1,-0.9 0.2,-1.3 l 0.1,-0.6 0,-0.6 0,-0.6 0,-0.6 -0.1,-0.5 -0.1,-0.5 -0.1,-0.5 -0.1,-0.5 -0.1,-0.5 -0.2,-0.5 -0.4,-0.9 -0.5,-0.9 -0.5,-0.8 -0.6,-0.8 -0.6,-0.7 -0.7,-0.7 -0.7,-0.7 -1.5,-1.3 -1.5,-1.2 c -1,-0.8 -1.9,-1.5 -2.8,-2.2 l -0.6,-0.5 -0.6,-0.5 -0.5,-0.5 -0.4,-0.5 -0.4,-0.5 -0.2,-0.3 -0.1,-0.3 -0.1,-0.3 -0.1,-0.3 -0.1,-0.3 0,-0.3 -0.1,0.3 -0.1,0.3 -0.3,0.7 -0.1,0.2 0,0 0,0 c -1.3,0 -1.3,0 -1.9,0 l 0,0 0,0 0,0.1 -0.2,0.3 -0.2,0.3 -0.2,0.2 -0.5,0.5 -0.5,0.5 -0.6,0.5 -0.7,0.5 c -0.9,0.6 -1.9,1.2 -3,1.9 l -1.6,1 -0.8,0.6 -0.8,0.6 -0.7,0.6 -0.7,0.6 -0.7,0.7 -0.6,0.7 -0.6,0.8 -0.5,0.8 -0.2,0.4 -0.2,0.4 -0.2,0.5 -0.2,0.5 -0.1,0.5 -0.3,0.5 -0.1,0.5 -0.1,0.5 -0.1,0.5 0,0.6 0,0.6 0,0.6 0.1,0.6 0.1,0.6 0.1,0.6 0.1,0.7 0.2,0.7 0.2,0.7 0,0.1 0,0 0,0 c 0,0 0,-0.1 0,-0.1 l 0,0 0.1,0.2 0.1,0.4 0.3,0.8 c 0.1,0.3 0.3,0.7 0.4,1 0.2,0.4 0.4,0.8 0.6,1.2 0.5,0.9 1,1.9 1.6,3 0.6,1.1 1.3,2.3 1.9,3.5 0.7,1.3 1.4,2.6 2.1,4 0.7,1.4 1.4,2.9 2.1,4.3 l 1,2.2 0.9,2.2 0.8,2.3 0.7,2.2 0.3,1.1 0.3,1.1 0.2,1.1 0.4,1.3 z"
             id="path165"
             inkscape:connector-curvature="0"
             style="fill:#d0ac70" /></g><g
           id="g167"><path
             class="st0"
             d="m 542.1,843.8 -0.1,-0.7 -0.2,-0.7 -0.1,-0.4 -0.1,-0.3 -0.2,-0.6 -0.3,-0.6 -0.3,-0.6 -0.6,-1.1 -0.7,-1.1 -0.8,-1.1 -0.8,-1 -0.8,-1 c -1.2,-1.3 -2.3,-2.5 -3.2,-3.5 -0.5,-0.5 -0.9,-1 -1.3,-1.4 -0.2,-0.2 -0.3,-0.4 -0.5,-0.6 l -0.2,-0.3 -0.2,-0.3 -0.2,-0.4 -0.2,-0.4 -0.2,-0.4 -0.1,-0.4 -0.1,-0.4 0.1,-0.5 -0.1,-0.4 0,-0.4 0,-0.9 0.1,-0.9 0.1,-0.9 0.2,-0.9 0.3,-0.9 0.3,-0.9 0.4,-0.8 0.4,-0.8 0.5,-0.8 0.5,-0.8 1.1,-1.6 1.1,-1.6 1.1,-1.5 c 0.8,-1 1.5,-1.9 2.1,-2.8 0.3,-0.4 0.6,-0.9 0.9,-1.3 l 0.4,-0.6 0.4,-0.6 0.3,-0.6 0.2,-0.5 0.2,-0.5 0.1,-0.2 0,-0.2 0,0.2 0.1,0.2 0.1,0.2 0.1,0.2 0.1,0.1 0,0 0,0 c -0.1,0 -0.1,0 -0.2,0 l 0,0 0,0 0,0.1 0.1,0.3 0.3,0.5 0.4,0.6 0.4,0.6 c 0.3,0.4 0.6,0.8 1,1.2 0.7,0.8 1.5,1.7 2.2,2.7 l 1.2,1.4 1.2,1.5 1.1,1.6 0.5,0.8 0.5,0.8 0.4,0.8 0.4,0.8 0.4,0.8 0.3,0.8 0.2,0.9 0.2,0.9 0.1,0.9 0,0.9 0,0.4 0,0.4 -0.1,0.4 -0.1,0.4 -0.1,0.4 -0.1,0.4 -0.2,0.4 -0.2,0.4 -0.1,0.3 -0.2,0.3 c -0.1,0.2 -0.3,0.4 -0.4,0.6 -0.2,0.2 -0.3,0.5 -0.5,0.7 -0.2,0.2 -0.4,0.5 -0.6,0.8 -0.9,1.1 -1.9,2.3 -3,3.6 l -0.8,1 -0.8,1.1 -0.7,1.1 -0.7,1.2 -0.6,1.2 -0.5,1.3 -0.2,0.7 -0.2,0.7 -0.2,0.7 -0.3,0.9 z"
             id="path169"
             inkscape:connector-curvature="0"
             style="fill:#d0ac70" /></g></g></g></switch></svg>