<?xml version="1.0" encoding="UTF-8" standalone="no"?>
<svg
   xmlns:dc="http://purl.org/dc/elements/1.1/"
   xmlns:cc="http://creativecommons.org/ns#"
   xmlns:rdf="http://www.w3.org/1999/02/22-rdf-syntax-ns#"
   xmlns:svg="http://www.w3.org/2000/svg"
   xmlns="http://www.w3.org/2000/svg"
   xmlns:sodipodi="http://sodipodi.sourceforge.net/DTD/sodipodi-0.dtd"
   xmlns:inkscape="http://www.inkscape.org/namespaces/inkscape"
   version="1.1"
   id="l74"
   x="0px"
   y="0px"
   viewBox="0 0 1000 1000"
   width="100%"
   height="100%"
   style="enable-background:new 0 0 1000 1000;"
   xml:space="preserve"
  ><style
     type="text/css"
     id="style3">
	.noFillSVG{fill:none;}
	#l74 .st1{fill:#D0AC70;}
	#l74 .st2{fill:#F47878;}
</style><switch
     id="switch5"
     transform="translate(34.966339,-10.608284)"><g
       id="g7"><g
         id="g9"><path
           class="noFillSVG"
           d="m 181.6,310 c -2.6,22 0.6,44.4 3.3,66.4 5.4,-22.2 4.3,-45 -3.3,-66.4 z"
           id="path11"
           inkscape:connector-curvature="0"
           style="fill:none" /><path
           class="noFillSVG"
           d="m 250.1,279.9 c 3.2,-8.5 3.3,-18.1 2.3,-27.4 -4.9,16 -13.1,31.1 -14.6,47.9 1,-1.1 2.1,-2.2 3.2,-3.3 3.5,-5.6 6.9,-11.3 9.1,-17.2 z"
           id="path13"
           inkscape:connector-curvature="0"
           style="fill:none" /><path
           class="noFillSVG"
           d="m 240.9,341.1 c 9.8,-2.1 29.3,-8.1 35.1,-18.6 -10.8,2.3 -21.6,4.5 -32.4,6.9 -9.1,2 -18.2,4.1 -25.8,8.9 7.4,1.8 14.2,4.7 23.1,2.8 z"
           id="path15"
           inkscape:connector-curvature="0"
           style="fill:none" /><path
           class="noFillSVG"
           d="m 180.3,506.9 c -8.4,23.6 -15.5,47.5 -13.6,72.7 4.3,-9.8 9.6,-19.2 12.1,-29.9 3.4,-14.2 3.7,-28.5 1.5,-42.8 z"
           id="path17"
           inkscape:connector-curvature="0"
           style="fill:none" /><path
           class="noFillSVG"
           d="m 410.9,177.7 c -12.4,12.1 -28,21.4 -37.1,36.1 16.7,-6.9 29.8,-19.8 37.1,-36.1 z"
           id="path19"
           inkscape:connector-curvature="0"
           style="fill:none" /><path
           class="noFillSVG"
           d="m 269.8,788.4 c 3.5,5.3 11.2,10.4 15,13.1 5.5,3.9 11.4,7.2 17.9,9.1 10,3 19.4,2.3 27.1,-5.4 1.8,-1.8 3.3,-3.5 5,-5.2 -0.2,0 -0.3,0.1 -0.4,0.1 -22.3,0 -43.8,-3.9 -64.6,-11.7 z"
           id="path21"
           inkscape:connector-curvature="0"
           style="fill:none" /><path
           class="noFillSVG"
           d="m 132.6,576 c 3.9,8 7,16.3 10.7,24.6 6.7,15.3 16.4,25.4 29.2,33.8 -5.9,-9.1 -9.4,-19.7 -15.2,-29.1 C 150.6,594.4 141.9,585 132.6,576 Z"
           id="path23"
           inkscape:connector-curvature="0"
           style="fill:none" /><path
           class="noFillSVG"
           d="m 201.8,592.1 c -2.3,23 -8.1,46 -4.3,68.8 2.3,-9.6 6.9,-18.5 9.1,-28.5 3.5,-15 -0.6,-27.2 -4.8,-40.3 z"
           id="path25"
           inkscape:connector-curvature="0"
           style="fill:none" /><path
           class="noFillSVG"
           d="m 702.9,384.3 c 9.6,-18.7 8.2,-37.4 2.2,-57.5 -7.6,16.5 -4.7,39.1 -2.2,57.5 z"
           id="path27"
           inkscape:connector-curvature="0"
           style="fill:none" /><path
           class="noFillSVG"
           d="m 740.2,439.2 c -4,-2.8 -7.9,-5.5 -11.7,-8.2 l -1.3,-0.9 0.5,-1.2 c 3.6,-9.3 7.5,-19.1 12,-28.6 2,-4 4.2,-8.1 6.5,-12 -9.5,-21.1 -21.4,-40.9 -35.2,-59.1 6.1,22.3 6.1,43.4 -7.4,64.1 -1.5,2.2 -4.4,1.1 -4.7,-1.3 -2.7,-22.1 -8.5,-52.4 4.5,-72.5 -16.9,-20.5 -36.4,-38.8 -58,-54.3 8,14.9 10.4,32.2 6.6,49.4 -0.6,2.6 -4,2.1 -4.9,0 -4.5,-11.9 -9,-23.9 -13.5,-35.8 -3.3,-8.7 -7.7,-17.5 -8,-26.9 -5,-3 -10.1,-5.9 -15.3,-8.7 -12.9,5.9 -26.8,9.7 -39.5,13.4 l -1.6,0.5 -0.7,-1.1 c -5,-8.9 -10.3,-17.6 -14.8,-27.3 -1.6,-3.2 -3.1,-6.6 -4.5,-10.2 -26.7,-7.5 -54.8,-11.6 -83.8,-11.6 -11.4,0 -22.6,0.7 -33.7,1.9 19.6,3.4 36.9,12.9 41.2,35 0.4,1.9 -1.8,4.3 -3.7,2.8 -17.7,-12.9 -38.4,-20.9 -55.8,-34.4 -0.3,-0.2 -0.5,-0.5 -0.6,-0.7 -21.2,3.7 -42,9.6 -62,17.6 -3.3,14.8 -9.4,28.9 -14.8,42 l -0.6,1.5 -1.3,-0.2 c -10,-1.6 -20.2,-2.9 -30.6,-5.4 -4.9,-1.1 -10,-2.4 -15,-4.2 -22.3,15.5 -41.8,33.6 -59.9,55.2 -3.1,3.7 -7.2,11.9 -11.2,14.2 17.9,-10.3 43,-11.7 61.6,-15.6 2,-0.4 3.4,1.2 3.1,3.1 -2.1,12 -17.6,18.4 -27.7,22.3 -7,2.7 -15.1,5.2 -22.7,5.3 -7.3,0.1 -12.7,-4 -19.7,-5 -2,1.8 -3.8,3.8 -5.4,6.2 -0.3,0.4 -0.7,0.7 -1,0.9 -9,14.1 -15.9,28.9 -23.2,43.9 -4.1,8.4 -7.6,17.3 -10.6,26.3 12.5,13 20.6,29.3 29,43.9 l 0.8,1.4 -1,0.9 c -7.2,6.9 -15,14 -23.1,20.6 -6.2,4.8 -12.8,9.7 -19.9,13.3 -0.2,5.1 -0.3,10.1 -0.3,15 0,16.9 1.4,33.4 4,49.6 1.3,-23.2 9,-45.6 17.1,-67.6 0.8,-2.2 4.3,-2.6 4.9,0 3.5,15.2 4.3,30.5 1.8,45.9 -2.9,18.3 -12.6,32.1 -18,49.2 4.3,17.1 10.2,33.5 17.3,49.2 0.1,0.1 0.2,0.2 0.3,0.3 0.7,0.6 0.9,1.3 0.8,2 1.9,4.2 3.9,8.3 6.1,12.4 -2.6,-26.2 5.8,-52.4 5.8,-78.8 0,-2.8 4.3,-3.5 4.9,-0.7 3.8,16.7 11.9,30.4 10.4,48.2 -1.4,16.8 -12.4,31.5 -11.7,48.4 2.5,4.2 5.1,8.3 7.8,12.3 19.8,-3.2 40,1 58.3,4 l 1.6,0.3 0.1,1.3 c 0.4,5 0.8,10.1 1.1,15.3 0.4,5.1 0.6,10.3 0.5,15.7 0,9.3 -0.6,19.3 -3.4,28.6 22,18.5 46.5,34 73.1,45.9 0.1,0 0.3,0.1 0.4,0.2 8.9,3.9 17.9,7.5 27.2,10.6 -2.1,-2.3 -4,-4.8 -5.9,-7.5 -9.2,-13.6 -17.8,-26.9 -28.8,-39.2 -1.5,-1.7 -0.1,-5.3 2.4,-4.2 12.3,5.1 24.2,11.6 33.4,21.4 10,10.8 12,27.5 23.4,36.6 17,4.1 34.5,6.9 52.5,8.1 0.2,-0.3 0.3,-0.6 0.4,-0.9 9.8,-17.3 25.8,-30.9 39.7,-43.3 l 1.2,-1.1 1.1,0.7 c 8.3,5.8 16.9,11.4 25.2,18.2 7,5.5 14.2,12.2 19.7,19.7 21.3,-4.8 41.8,-11.7 61.2,-20.7 -7.5,1.9 -15.2,3 -22.8,2.1 -15.2,-1.9 -28,-10.4 -36.8,-22.7 -1.2,-1.7 0.8,-4.5 2.8,-3.7 15.3,6.3 28.7,4.8 44.7,4.9 13.8,0.1 27.5,1.7 41,4.2 13.2,-7.9 25.8,-16.7 37.6,-26.3 -1.8,0.6 -3.7,1.1 -5.7,1.5 -15.6,3.3 -31.6,0.6 -47.1,-2.1 -2.5,-0.4 -2.3,-4.4 0,-4.9 14.8,-3.2 28.3,-8.4 42.3,-13.9 13.4,-5.3 28.6,-4.4 41.5,-10 2.3,-2.4 4.5,-5 6.6,-7.5 -2.7,-7.9 -4.4,-16.3 -5.3,-24.5 -1.3,-10 -1.6,-19.7 -2.2,-29 l -0.1,-1.6 1.3,-0.4 c 9.6,-3 19.6,-6 29.8,-8.4 6.8,-1.5 13.9,-2.8 21,-3.2 17.1,-35.1 27.8,-74 30.4,-115 -3.5,11.7 -7,23.2 -14.5,33.5 -8.5,11.7 -19.8,20.6 -33,26.5 -2.3,1 -4.6,-1.1 -3.4,-3.4 13,-26.4 29.4,-50.6 49.1,-72.4 0.6,-0.6 1.2,-0.8 1.8,-0.8 0,-0.1 0.1,-0.2 0.1,-0.3 0.1,-0.3 0.3,-0.6 0.5,-0.9 0,-0.6 0,-1.2 0,-1.8 0,-13.7 -1,-27.2 -2.7,-40.4 -0.1,-0.4 -0.2,-0.9 -0.3,-1.3 0,-0.2 0,-0.4 0,-0.5 -0.8,-5.7 -1.8,-11.4 -2.9,-17 -5.2,-2.4 -10.2,-5.1 -15.1,-8.1 -3.5,-2.6 -7.6,-5.4 -11.6,-8.2 z"
           id="path29"
           inkscape:connector-curvature="0"
           style="fill:none" /><path
           class="noFillSVG"
           d="m 742.1,291 c -9.9,-2.8 -19.9,-5.5 -30,-7.9 -11.9,-2.8 -27.4,-8.5 -40.1,-6 10.3,6.1 21,11.6 32.7,14.7 9.3,2.4 28.2,5.9 37.4,-0.8 z"
           id="path31"
           inkscape:connector-curvature="0"
           style="fill:none" /><path
           class="noFillSVG"
           d="m 473.3,200.9 c 15.6,-0.4 30.1,-6.4 41.2,-17.3 -14.4,4.6 -30.7,6.7 -41.2,17.3 z"
           id="path33"
           inkscape:connector-curvature="0"
           style="fill:none" /><path
           class="noFillSVG"
           d="m 648.5,303.9 c 1.4,-16.8 -3.5,-33.1 -14,-46.4 -1.2,-0.8 -2.3,-1.5 -3.5,-2.2 1.3,9.1 6,18.1 9.2,26.6 2.7,7.3 5.5,14.7 8.3,22 z"
           id="path35"
           inkscape:connector-curvature="0"
           style="fill:none" /><path
           class="noFillSVG"
           d="m 422.5,212.6 c 13.9,9.6 29.5,16.6 43.6,25.8 -6.8,-18.1 -24.9,-24.2 -43.6,-25.8 z"
           id="path37"
           inkscape:connector-curvature="0"
           style="fill:none" /><path
           class="noFillSVG"
           d="m 620.3,749.7 c 10.9,1.6 22,2.4 32.9,0.2 9.7,-1.9 17.8,-6.9 25.2,-12.9 2,-1.9 3.9,-3.8 5.9,-5.7 -9.6,2.1 -19.7,2.5 -29.1,5.9 -11.9,4.3 -23.1,9 -34.9,12.5 z"
           id="path39"
           inkscape:connector-curvature="0"
           style="fill:none" /><path
           class="noFillSVG"
           d="m 784.9,649 c -0.2,-12.6 -0.3,-25.2 -0.6,-37.8 -0.3,-14.7 -3,-26.5 -9.8,-38.5 -3.4,26.2 0.2,52.2 10.4,76.3 z"
           id="path41"
           inkscape:connector-curvature="0"
           style="fill:none" /><path
           class="noFillSVG"
           d="m 778.5,485 c 3.9,12.1 10.3,23 17.9,33.2 -0.7,-2.1 -1.4,-4.3 -2.2,-6.5 -3.6,-9.8 -9.3,-18.4 -15.7,-26.7 z"
           id="path43"
           inkscape:connector-curvature="0"
           style="fill:none" /><path
           class="noFillSVG"
           d="m 756,562.4 c 7.1,-10.5 10,-22.6 13.6,-34.6 -15.5,18 -28.7,37.6 -39.7,58.6 10.4,-5.9 19.3,-13.9 26.1,-24 z"
           id="path45"
           inkscape:connector-curvature="0"
           style="fill:none" /><path
           class="noFillSVG"
           d="m 571.7,780.6 c -10.3,0.3 -18.7,0.1 -27.6,-2.3 9.1,9 21.3,14.3 34.5,14 11.6,-0.3 23.4,-5 34.6,-9.1 -13.8,-2.1 -27.6,-3.1 -41.5,-2.6 z"
           id="path47"
           inkscape:connector-curvature="0"
           style="fill:none" /><path
           class="noFillSVG"
           d="m 626.7,815.6 c 7.3,-5.3 12.5,-13.7 17.4,-21.1 6.4,-9.7 11.6,-19.6 12.8,-31 -7.9,7.9 -12.3,17.7 -17,27.7 -3.9,8.4 -8.4,16.4 -13.2,24.4 z"
           id="path49"
           inkscape:connector-curvature="0"
           style="fill:none" /><path
           class="noFillSVG"
           d="m 369.1,842.9 c 12,1.9 24.7,3.5 35.2,0.7 9.8,-2.6 16.4,-10.5 24.6,-15.9 -12.8,0.6 -24.5,5.8 -36.9,9.8 -7.5,2.4 -15.2,4.1 -22.9,5.4 z"
           id="path51"
           inkscape:connector-curvature="0"
           style="fill:none" /><path
           class="noFillSVG"
           d="m 344.3,765.4 c 4.9,6 9.7,12.1 14,18.6 6.9,10.4 12.7,22.9 25,27.2 -4.9,-7 -7.1,-15.6 -11.9,-23 -6.6,-10.1 -16.4,-17.3 -27.1,-22.8 z"
           id="path53"
           inkscape:connector-curvature="0"
           style="fill:none" /><path
           class="st1"
           d="m 625.6,251.8 c 0.3,9.4 4.7,18.1 8,26.9 4.5,11.9 9,23.9 13.5,35.8 0.8,2.1 4.3,2.6 4.9,0 3.8,-17.2 1.4,-34.5 -6.6,-49.4 21.6,15.6 41.1,33.8 58,54.3 -13,20.1 -7.2,50.4 -4.5,72.5 0.3,2.4 3.2,3.5 4.7,1.3 13.5,-20.7 13.5,-41.8 7.4,-64.1 13.8,18.2 25.6,38 35.2,59.1 1,-1.7 2.1,-3.4 3.2,-5 -16.9,-36.3 -40.6,-68.9 -69.4,-96.1 11.1,5.7 22.7,10.2 35.2,11.7 10.9,1.3 26.6,1.9 34,-7.9 1,-1.3 -0.1,-3.3 -1.5,-3.7 -15.8,-4.6 -31.8,-8.8 -47.9,-12.3 -11.9,-2.6 -23,-5.7 -34.5,-1.1 -1.6,0.6 -17.2,-13.3 -19.5,-14.9 -9.4,-6.7 -19.5,-12.9 -30,-18.6 -1.8,0.9 -3.6,1.8 -5.4,2.7 5.1,2.9 10.2,5.8 15.2,8.8 z m 77.3,132.5 c -2.5,-18.3 -5.4,-40.9 2.2,-57.5 6,20.1 7.4,38.8 -2.2,57.5 z m 9.3,-101.2 c 10.1,2.4 20,5.1 30,7.9 -9.2,6.7 -28.1,3.2 -37.4,0.7 -11.7,-3.1 -22.3,-8.6 -32.7,-14.7 12.7,-2.5 28.2,3.2 40.1,6.1 z m -77.8,-25.6 c 10.5,13.3 15.4,29.6 14,46.4 -2.8,-7.4 -5.6,-14.7 -8.3,-22.1 -3.2,-8.4 -7.9,-17.4 -9.2,-26.6 1.2,0.8 2.4,1.6 3.5,2.3 z"
           id="path55"
           inkscape:connector-curvature="0"
           style="fill:#d0ac70" /><path
           class="st1"
           d="m 182.7,393.3 c 7.3,-15 14.2,-29.8 23.2,-43.9 0.4,-0.2 0.7,-0.4 1,-0.9 1.6,-2.4 3.4,-4.4 5.4,-6.2 6.9,1.1 12.4,5.2 19.7,5 7.6,-0.1 15.6,-2.6 22.7,-5.3 10.1,-3.9 25.5,-10.4 27.7,-22.3 0.3,-1.9 -1.1,-3.5 -3.1,-3.1 -18.6,3.9 -43.7,5.3 -61.6,15.6 4,-2.3 8.1,-10.6 11.2,-14.2 18,-21.6 37.6,-39.7 59.9,-55.2 -1.9,-0.6 -3.7,-1.4 -5.5,-2.2 -10.2,7.4 -20.1,15.2 -29.3,23.8 1.2,-2.8 2.3,-5.7 2.9,-8.7 2.8,-12.3 0.6,-25.9 -1.2,-38.2 -0.4,-2.4 -4.5,-2.4 -4.9,0 -3.1,23.2 -17.7,43.2 -18.1,67 0,0.5 0.1,0.8 0.3,1.2 -15.4,17.1 -28.9,35.9 -40.2,56.1 2.3,-21.3 -1,-42.6 -10,-62.7 -0.9,-1.9 -4.2,-1.4 -4.6,0.6 -5.5,28.2 -0.4,57 2.8,85.2 -4.6,10.1 -8.8,20.6 -12.3,31.2 1.2,1.1 2.4,2.3 3.6,3.5 2.8,-9 6.3,-17.8 10.4,-26.3 z m 60.8,-63.9 c 10.8,-2.4 21.6,-4.6 32.4,-6.9 -5.8,10.5 -25.3,16.5 -35.1,18.6 -8.9,1.9 -15.6,-1 -23.2,-2.8 7.7,-4.8 16.8,-6.9 25.9,-8.9 z m 9,-76.9 c 0.9,9.3 0.9,18.9 -2.3,27.4 -2.3,6 -5.6,11.6 -9.1,17.2 -1.1,1.1 -2.1,2.2 -3.2,3.3 1.5,-16.9 9.7,-31.9 14.6,-47.9 z M 181.6,310 c 7.7,21.4 8.7,44.2 3.3,66.4 C 182.2,354.3 179,332 181.6,310 Z"
           id="path57"
           inkscape:connector-curvature="0"
           style="fill:#d0ac70" /><path
           class="st1"
           d="m 412.9,211.4 c 0.1,0.3 0.3,0.5 0.6,0.7 17.3,13.5 38,21.5 55.8,34.4 1.9,1.4 4.1,-0.9 3.7,-2.8 -4.4,-22.1 -21.7,-31.6 -41.2,-35 11.1,-1.2 22.3,-1.9 33.7,-1.9 29,0 57.1,4.1 83.8,11.6 -0.8,-1.9 -1.5,-3.8 -2.1,-5.7 -6.3,-1.7 -12.6,-3.2 -18.9,-4.5 -9.2,-1.9 -27.6,-8.1 -36.6,-5.2 13.2,-4.2 24.9,-12.4 33.5,-24.1 1.6,-2.2 -1.4,-4.4 -3.4,-3.4 -18.5,9 -42,8.4 -55.3,25.7 -0.3,0.2 -0.6,0.4 -0.8,0.7 -0.1,0 -0.2,0 -0.2,0 -26.3,0 -51.8,3.3 -76.2,9.4 15.2,-10.3 26.2,-25.9 30.8,-44.4 0.7,-2.9 -3,-4.2 -4.6,-1.9 -14.3,20.2 -39.1,30 -49.5,53.2 -4.7,1.6 -9.4,3.3 -14,5.1 -0.3,1.9 -0.7,3.9 -1.1,5.8 20,-8.1 40.8,-14 62,-17.7 z m 101.6,-27.8 c -11,10.9 -25.5,16.9 -41.2,17.3 10.5,-10.6 26.8,-12.7 41.2,-17.3 z m -48.3,54.8 c -14.2,-9.3 -29.7,-16.2 -43.6,-25.8 18.6,1.6 36.7,7.7 43.6,25.8 z m -55.3,-60.7 c -7.3,16.3 -20.3,29.2 -37.1,36.1 9.1,-14.6 24.7,-24 37.1,-36.1 z"
           id="path59"
           inkscape:connector-curvature="0"
           style="fill:#d0ac70" /><path
           class="st1"
           d="m 209.1,685.2 c -2.7,-4 -5.3,-8.1 -7.8,-12.3 -0.7,-16.9 10.3,-31.6 11.7,-48.4 1.5,-17.7 -6.6,-31.5 -10.4,-48.2 -0.6,-2.8 -4.9,-2.1 -4.9,0.7 0,26.4 -8.4,52.6 -5.8,78.8 -2.1,-4.1 -4.1,-8.2 -6.1,-12.4 0.1,-0.7 0,-1.4 -0.8,-2 -0.1,-0.1 -0.2,-0.2 -0.3,-0.3 -7.1,-15.7 -13,-32.1 -17.3,-49.2 5.3,-17.2 15,-30.9 18,-49.2 2.5,-15.4 1.6,-30.8 -1.8,-45.9 -0.6,-2.6 -4.1,-2.2 -4.9,0 -8.1,22 -15.8,44.4 -17.1,67.6 -2.6,-16.1 -4,-32.7 -4,-49.6 0,-5 0.1,-10 0.3,-15 -1.6,0.8 -3.3,1.5 -5,2.2 -0.2,4.3 -0.4,8.5 -0.4,12.8 0,39.1 7.3,76.4 20.4,111 -5.4,-9.8 -9.3,-20.7 -15.7,-29.7 -9.7,-13.5 -22.1,-24.9 -34.3,-36.1 -2.4,-2.2 -5.5,1.1 -3.6,3.6 11.6,14.9 15.4,33.5 24.5,49.7 8.5,15.2 21.7,23.8 36.8,32 0.2,0.1 0.4,0.1 0.5,0.2 6.6,14.2 14.2,27.9 22.8,41 1.6,-0.5 3.3,-0.9 5,-1.2 0.1,-0.1 0.2,-0.1 0.2,-0.1 z M 180.3,506.9 c 2.2,14.2 1.9,28.6 -1.5,42.8 -2.5,10.7 -7.8,20.1 -12.1,29.9 -1.9,-25.2 5.2,-49.1 13.6,-72.7 z m -37,93.7 c -3.6,-8.3 -6.8,-16.6 -10.7,-24.6 9.2,8.9 18,18.4 24.7,29.4 5.7,9.4 9.3,20 15.2,29.1 C 159.7,626 150,616 143.3,600.6 Z m 58.5,-8.5 c 4.1,13 8.2,25.3 4.9,40.3 -2.2,10 -6.9,18.9 -9.1,28.5 -3.9,-22.8 2,-45.7 4.2,-68.8 z"
           id="path61"
           inkscape:connector-curvature="0"
           style="fill:#d0ac70" /><path
           class="st1"
           d="m 795.4,501.8 c -5.1,-10.3 -12.5,-19.4 -19.8,-28.3 -0.7,-5.3 -1.6,-10.5 -2.5,-15.6 -1.9,-0.7 -3.7,-1.5 -5.5,-2.4 1.1,5.6 2.1,11.3 2.9,17 0,0.2 -0.1,0.3 0,0.5 0.1,0.5 0.2,0.9 0.3,1.3 1.7,13.2 2.7,26.7 2.7,40.4 0,0.6 0,1.2 0,1.8 -0.2,0.2 -0.4,0.5 -0.5,0.9 0,0.1 -0.1,0.2 -0.1,0.3 -0.6,0 -1.3,0.2 -1.8,0.8 -19.7,21.8 -36.2,46 -49.1,72.4 -1.2,2.4 1.1,4.5 3.4,3.4 13.2,-6 24.4,-14.8 33,-26.5 7.5,-10.3 11,-21.8 14.5,-33.5 -2.6,41 -13.2,79.9 -30.4,115 1.9,-0.1 3.7,-0.1 5.6,-0.1 8.5,-17.7 15.4,-36.2 20.4,-55.3 0.3,23.5 6,46.5 17.1,67.9 1.2,2.2 4.7,1.2 4.7,-1.3 -0.5,-33.4 4.5,-68 -15.2,-96.8 -0.1,-0.1 -0.2,-0.2 -0.3,-0.3 2.5,-15.9 3.8,-32.1 3.8,-48.7 0,-5.8 -0.2,-11.5 -0.5,-17.2 6.7,14.3 16.6,27.1 27,39.3 1.8,2.2 5.6,-0.7 4,-3 -7,-9.7 -8.5,-21.5 -13.7,-32 z M 756,562.4 c -6.8,10.1 -15.7,18.1 -26.2,24 11,-21 24.2,-40.6 39.7,-58.6 -3.5,12 -6.4,24.1 -13.5,34.6 z m 28.4,48.8 c 0.2,12.6 0.4,25.2 0.6,37.8 -10.3,-24.1 -13.8,-50.2 -10.4,-76.3 6.7,12 9.5,23.8 9.8,38.5 z M 778.5,485 c 6.4,8.2 12.1,16.8 15.7,26.7 0.8,2.2 1.5,4.4 2.2,6.5 -7.6,-10.2 -14,-21.1 -17.9,-33.2 z"
           id="path63"
           inkscape:connector-curvature="0"
           style="fill:#d0ac70" /><path
           class="st1"
           d="m 697.9,716.5 c -2.2,2.5 -4.4,5 -6.6,7.5 -12.9,5.6 -28.1,4.7 -41.5,10 -14,5.5 -27.5,10.7 -42.3,13.9 -2.3,0.5 -2.5,4.4 0,4.9 15.5,2.7 31.5,5.4 47.1,2.1 1.9,-0.4 3.8,-0.9 5.7,-1.5 -11.8,9.7 -24.4,18.5 -37.6,26.3 -13.6,-2.5 -27.2,-4.1 -41,-4.2 -16,-0.1 -29.4,1.3 -44.7,-4.9 -2,-0.8 -4.1,2 -2.8,3.7 8.8,12.3 21.6,20.8 36.8,22.7 7.7,1 15.3,-0.1 22.8,-2.1 -19.4,8.9 -39.9,15.9 -61.2,20.7 0.8,1.1 1.6,2.1 2.3,3.2 0.3,0.4 0.5,0.9 0.7,1.3 39.4,-9 75.9,-25.5 108.1,-47.9 -9.9,15.2 -16.2,33.8 -25.8,48.7 -1.2,1.8 0.8,4.4 2.8,3.7 11.8,-4 18.5,-14 25.4,-23.8 9,-12.9 16.1,-26.1 16.2,-42.1 0,-0.1 -0.1,-0.2 -0.1,-0.4 6.9,-5.6 13.4,-11.4 19.8,-17.5 6.3,-6 12.2,-12.3 18,-18.8 -0.1,-0.3 -0.3,-0.5 -0.4,-0.8 -0.7,-1.7 -1.2,-3.2 -1.7,-4.7 z m -119.4,75.7 c -13.2,0.4 -25.4,-5 -34.5,-14 9,2.4 17.3,2.7 27.6,2.3 13.9,-0.5 27.7,0.5 41.4,2.6 -11.1,4.1 -22.9,8.8 -34.5,9.1 z m 65.6,2.2 c -4.9,7.4 -10.1,15.8 -17.4,21.1 4.8,-7.9 9.3,-16 13.2,-24.4 4.7,-10 9.1,-19.8 17,-27.7 -1.2,11.5 -6.4,21.4 -12.8,31 z m 34.2,-57.3 c -7.4,6 -15.5,11 -25.2,12.9 -10.9,2.2 -21.9,1.4 -32.9,-0.2 11.8,-3.5 23.1,-8.2 34.8,-12.5 9.4,-3.4 19.5,-3.7 29.1,-5.9 -1.8,1.9 -3.8,3.8 -5.8,5.7 z"
           id="path65"
           inkscape:connector-curvature="0"
           style="fill:#d0ac70" /><path
           class="st1"
           d="m 392.7,814 c -11.4,-9.1 -13.4,-25.8 -23.4,-36.6 -9.2,-9.8 -21.1,-16.3 -33.4,-21.4 -2.5,-1.1 -3.9,2.5 -2.4,4.2 11,12.3 19.6,25.7 28.8,39.2 1.8,2.7 3.8,5.2 5.9,7.5 -9.3,-3.1 -18.3,-6.6 -27.2,-10.6 -0.1,-0.1 -0.3,-0.1 -0.4,-0.2 -26.6,-11.8 -51.1,-27.4 -73.1,-45.9 -0.3,1 -0.5,1.9 -0.8,2.9 -0.3,0.7 -0.6,1.5 -0.9,2.2 5.2,4.3 10.6,8.6 16.1,12.6 7,5.1 14.2,9.9 21.6,14.4 5.5,3.3 16.3,12.3 22.8,12.6 -20.7,-1 -40.6,-5.4 -59.9,-13.2 -1.4,-0.6 -3.3,0.9 -3.2,2.4 1.1,12.9 22.3,25.2 33,29.6 7.1,2.9 15.3,4.7 23,3.3 10.4,-1.8 13.8,-9.4 21.3,-15.4 24.2,10.6 50,18.3 76.9,22.4 -6.2,1.4 -12.3,3.5 -18.5,5.7 -15.5,5.5 -30.7,8.5 -47,10.6 -3.2,0.4 -3.3,4.7 0,5 15.8,1.7 33.9,6.1 49.7,3.8 15.6,-2.3 23.3,-16.8 37.8,-21 0.8,-0.2 1.3,-0.7 1.6,-1.4 0.7,0.1 1.4,0.1 2.1,0.1 0.6,-1.7 1.3,-3.3 2.2,-4.8 -18.1,-1.1 -35.6,-3.9 -52.6,-8 z m -62.9,-8.7 c -7.7,7.7 -17.1,8.4 -27.1,5.4 -6.5,-2 -12.4,-5.2 -17.9,-9.1 -3.8,-2.7 -11.5,-7.9 -15,-13.1 20.7,7.8 42.3,11.7 64.5,11.8 0.2,0 0.3,-0.1 0.4,-0.1 -1.6,1.6 -3.1,3.3 -4.9,5.1 z M 358.3,784 c -4.3,-6.5 -9.1,-12.6 -14,-18.6 10.7,5.5 20.5,12.7 27.1,22.9 4.8,7.4 7,15.9 11.9,23 -12.3,-4.4 -18.1,-16.9 -25,-27.3 z m 46,59.5 c -10.5,2.8 -23.1,1.2 -35.2,-0.7 7.7,-1.3 15.4,-2.9 22.9,-5.4 12.4,-4.1 24,-9.2 36.9,-9.8 -8.2,5.4 -14.9,13.3 -24.6,15.9 z"
           id="path67"
           inkscape:connector-curvature="0"
           style="fill:#d0ac70" /><path
           class="st2"
           d="m 742.4,649.4 c -7.1,0.4 -14.2,1.7 -21,3.2 -10.2,2.4 -20.2,5.4 -29.8,8.4 l -1.3,0.4 0.1,1.6 c 0.6,9.4 0.9,19.1 2.2,29 0.9,8.1 2.6,16.5 5.3,24.5 0.5,1.5 1,3 1.6,4.5 0.1,0.3 0.3,0.5 0.4,0.8 3.7,8.6 10.3,16.8 20.9,17.1 9,0.1 18.1,-6.9 22.4,-15.7 4,-7.4 4.3,-15.5 2.8,-22.8 6.6,-0.8 12.9,-3.5 18.4,-8.4 3.6,-3.1 6.3,-7.3 8.1,-11.7 1.9,-4.4 2.6,-9.2 1.7,-13.6 -2,-10.9 -11.8,-15.9 -21.2,-17 -1.7,-0.2 -3.3,-0.3 -5,-0.3 -1.9,-0.1 -3.7,-0.1 -5.6,0 z"
           id="path69"
           inkscape:connector-curvature="0"
           style="fill:#f47878" /><path
           class="st2"
           d="m 532.4,815.4 c -5.4,-7.5 -12.7,-14.2 -19.7,-19.7 -8.3,-6.8 -16.8,-12.4 -25.2,-18.2 l -1.1,-0.7 -1.2,1.1 c -13.9,12.4 -29.8,25.9 -39.7,43.3 -0.2,0.3 -0.3,0.6 -0.4,0.9 -0.8,1.5 -1.5,3.2 -2.2,4.8 -2.7,7.3 -3.3,15.3 1.9,22.1 5.5,7.4 16.7,9.6 26.2,7.8 8.3,-1.8 14.8,-6.1 19.5,-12 4.7,4.3 10.8,8.2 18,9.1 4.6,0.6 9.6,0.4 14.2,-0.9 4.6,-1.5 8.8,-3.9 11.7,-7.2 6.9,-7.8 5.2,-18.1 0.8,-25.9 -0.2,-0.4 -0.5,-0.9 -0.7,-1.3 -0.4,-1.1 -1.3,-2.1 -2.1,-3.2 z"
           id="path71"
           inkscape:connector-curvature="0"
           style="fill:#f47878" /><path
           class="st2"
           d="m 267.4,750.3 c 2.7,-9.2 3.3,-19.2 3.4,-28.6 0.1,-5.3 -0.2,-10.6 -0.5,-15.7 -0.2,-5.2 -0.6,-10.3 -1.1,-15.3 l -0.1,-1.3 -1.6,-0.3 c -18.4,-3 -38.5,-7.3 -58.3,-4 -0.1,0 -0.1,0 -0.2,0 -1.7,0.3 -3.3,0.7 -5,1.2 -7.8,2.3 -15.1,6.9 -17.2,15.6 -1.1,4.4 -0.4,9.2 1.5,13.7 1.9,4.4 5.2,8.5 8.8,11.7 6.4,5.4 14.2,7.6 21.5,7.8 -0.5,6.4 0.6,13.4 4.2,19.8 2.4,4 5.8,7.7 9.6,10.5 3.9,2.7 8.5,4.4 12.9,4.7 10,0.6 16.9,-6.7 20.4,-14.7 0.3,-0.7 0.7,-1.5 0.9,-2.2 0.4,-0.9 0.5,-1.9 0.8,-2.9 z"
           id="path73"
           inkscape:connector-curvature="0"
           style="fill:#f47878" /><path
           class="st2"
           d="m 177.8,486.5 c 8.2,-6.6 15.9,-13.7 23.1,-20.6 l 1,-0.9 -0.8,-1.4 c -8.4,-14.6 -16.5,-30.9 -29,-43.9 -1.2,-1.2 -2.3,-2.4 -3.6,-3.5 -0.3,-0.3 -0.6,-0.6 -0.9,-0.8 -7.2,-6.4 -17.1,-11.4 -26.9,-6.9 -4.1,1.9 -7.4,5.4 -9.7,9.7 -2.4,4.3 -3.4,9.4 -3.7,14.2 -0.4,8.4 3,15.9 7.3,21.7 -5.5,3.6 -10,8.8 -12.9,15.6 -3.3,8.7 -3.2,19.9 2.2,27.1 6.5,8.9 17.5,9.2 26.5,6.1 0.8,-0.3 1.5,-0.6 2.2,-0.9 1.7,-0.7 3.4,-1.4 5,-2.2 7.4,-3.6 13.9,-8.5 20.2,-13.3 z"
           id="path75"
           inkscape:connector-curvature="0"
           style="fill:#f47878" /><path
           class="st2"
           d="m 303.7,267 c 10.4,2.5 20.5,3.7 30.6,5.4 l 1.3,0.2 0.6,-1.5 c 5.4,-13 11.5,-27.2 14.8,-42 0.4,-1.9 0.8,-3.9 1.1,-5.8 0.5,-2.8 0.8,-5.6 1,-8.4 0.5,-9.7 -1.7,-20.4 -11.4,-25.4 -8.2,-4.3 -19.2,-1.4 -27.1,4.4 -6.7,5.2 -10.7,12 -12.4,19.3 -6.2,-1.9 -13.3,-2.6 -20.2,-0.3 -9,2.6 -17.4,10 -19.9,18.5 -2.8,10.8 3.9,19.5 11.8,24.6 2.9,1.8 6,3.3 9.3,4.6 1.8,0.8 3.6,1.5 5.5,2.2 4.9,1.8 10.1,3.1 15,4.2 z"
           id="path77"
           inkscape:connector-curvature="0"
           style="fill:#f47878" /><path
           class="st2"
           d="m 553.7,228.6 c 4.5,9.7 9.8,18.4 14.8,27.3 l 0.7,1.1 1.6,-0.5 c 12.7,-3.7 26.6,-7.5 39.5,-13.4 1.8,-0.8 3.6,-1.7 5.4,-2.7 3.3,-1.7 6.5,-3.6 9.6,-5.7 7.9,-5.6 14.9,-14.1 12.7,-24.7 -1.7,-9 -10.8,-15.9 -20.3,-18.5 -8.2,-2 -16.1,-0.9 -22.8,2.4 -2.4,-6 -6.2,-12 -12.3,-16 -7.7,-5.4 -18.7,-7.4 -26.9,-4 -10.2,4.4 -12.9,15.2 -11.8,24.6 0.6,4.7 1.8,9.5 3.4,14.2 0.6,1.9 1.4,3.8 2.1,5.7 1.3,3.6 2.8,7 4.3,10.2 z"
           id="path79"
           inkscape:connector-curvature="0"
           style="fill:#f47878" /><path
           class="st2"
           d="m 739.7,400.3 c -4.5,9.5 -8.4,19.2 -12,28.6 l -0.5,1.2 1.3,0.9 c 3.8,2.7 7.8,5.4 11.7,8.2 3.9,2.8 8,5.5 12.3,8.1 4.8,3 9.8,5.8 15.1,8.1 1.8,0.8 3.7,1.6 5.5,2.4 2.1,0.8 4.2,1.5 6.4,2.2 9.2,2.7 20.2,2.9 27.3,-5.4 5.7,-6.9 5.8,-18.4 1.7,-27.4 -3.3,-7.8 -9.5,-13 -16,-16.4 3.5,-5.7 5.2,-12.3 4.8,-19.6 -0.2,-4.7 -1.9,-9.5 -4.1,-13.7 -2.3,-4.2 -5.6,-7.7 -9.6,-9.8 -9.8,-5.2 -19.8,-0.6 -26.5,6 -2.9,2.9 -5.4,6.1 -7.7,9.5 -1.1,1.6 -2.2,3.3 -3.2,5 -2.4,4 -4.5,8 -6.5,12.1 z"
           id="path81"
           inkscape:connector-curvature="0"
           style="fill:#f47878" /></g></g></switch></svg>