<?xml version="1.0" encoding="UTF-8" standalone="no"?>
<svg
   xmlns:dc="http://purl.org/dc/elements/1.1/"
   xmlns:cc="http://creativecommons.org/ns#"
   xmlns:rdf="http://www.w3.org/1999/02/22-rdf-syntax-ns#"
   xmlns:svg="http://www.w3.org/2000/svg"
   xmlns="http://www.w3.org/2000/svg"
   xmlns:sodipodi="http://sodipodi.sourceforge.net/DTD/sodipodi-0.dtd"
   xmlns:inkscape="http://www.inkscape.org/namespaces/inkscape"
   version="1.1"
   id="l77"
   x="0px"
   y="0px"
   viewBox="231.16116333007812 162.59999084472656 537.6776123046875 674.7999877929688"
   width="100%"
   height="100%"
   style="enable-background:new 0 0 1000 1000;"
   xml:space="preserve"
   ><style
     type="text/css"
     id="style3">
	.noFillSVG{fill:none;}
	#l77 .st1{fill:#D0AC70;}
	#l77 .st2{fill:#F47878;}
	#l77 .st3{fill:#FFFFFF;}
</style><switch
     id="switch5"
     transform="translate(-39.062166,-25.6)"><g
       id="g7"><g
         id="g9"><path
           class="noFillSVG"
           d="m 544.9,235.4 c -75.4,0 -136.6,56.5 -136.6,126.2 0,2.9 0.1,5.7 0.3,8.5 14.1,0.7 28,3.3 41.2,7.7 36.3,12 66.1,36.4 89.8,65.9 27,-33.2 61.8,-59.9 104.4,-69.6 12.1,-2.8 24.7,-4.1 37.2,-4 0.2,-2.8 0.3,-5.6 0.3,-8.4 0.1,-69.8 -61.1,-126.3 -136.6,-126.3 z"
           id="path11"
           inkscape:connector-curvature="0"
           style="fill:none" /><path
           class="st1"
           d="m 408.7,370 c -0.2,-2.8 -0.3,-5.6 -0.3,-8.5 0,-69.7 61.2,-126.2 136.6,-126.2 75.4,0 136.6,56.5 136.6,126.2 0,2.8 -0.1,5.6 -0.3,8.4 17.3,0.2 34.5,3.3 50.3,9.5 0.7,-5.9 1,-11.9 1,-17.9 0,-95.7 -84,-173.3 -187.6,-173.3 -103.6,0 -187.6,77.6 -187.6,173.3 0,4.9 0.3,9.7 0.7,14.5 16.2,-4.9 33.5,-6.8 50.6,-6 z"
           id="path13"
           inkscape:connector-curvature="0"
           style="fill:#d0ac70" /><path
           class="st2"
           d="m 781.7,416.9 c -13.1,-17.5 -30.7,-29.8 -50.2,-37.4 -15.9,-6.2 -33.1,-9.3 -50.3,-9.5 -12.5,-0.2 -25.1,1.2 -37.2,4 -42.5,9.7 -77.4,36.3 -104.4,69.6 -23.7,-29.5 -53.4,-53.8 -89.8,-65.9 -13.2,-4.4 -27.1,-6.9 -41.2,-7.7 -17.1,-0.9 -34.4,1.1 -50.6,6 -17.5,5.3 -33.8,14.1 -47.5,26.6 -45.4,41.5 -47.9,109.4 -29.7,164.4 20.2,61 60.3,116 103.4,163 44.1,48 94.7,89.5 147.2,128 2.3,1.7 4.5,3.3 6.8,5 2.8,-2.1 5.7,-4.2 8.5,-6.3 97,-71.4 193.6,-156.2 241.8,-268.7 23.2,-54.2 30.8,-121.1 -6.8,-171.1 z M 606.5,765.5 c -45,0 -90,0 -135,0 -0.8,0.8 -2.5,0.1 -2.2,-1.3 2,-8.3 3.9,-16.6 5.9,-24.9 11.3,-47.8 22.7,-95.5 34,-143.3 -22.6,-11 -38.2,-34.2 -38.2,-61.1 0,-37.5 30.4,-67.9 67.9,-67.9 37.5,0 67.9,30.4 67.9,67.9 0,26.8 -15.6,50 -38.2,61.1 13.3,56.1 26.6,112.1 39.9,168.2 0.5,1.4 -1.2,2.1 -2,1.3 z"
           id="path15"
           inkscape:connector-curvature="0"
           style="fill:#f47878" /></g></g></switch></svg>