<?xml version="1.0" encoding="UTF-8" standalone="no"?>
<svg
   xmlns:dc="http://purl.org/dc/elements/1.1/"
   xmlns:cc="http://creativecommons.org/ns#"
   xmlns:rdf="http://www.w3.org/1999/02/22-rdf-syntax-ns#"
   xmlns:svg="http://www.w3.org/2000/svg"
   xmlns="http://www.w3.org/2000/svg"
   xmlns:sodipodi="http://sodipodi.sourceforge.net/DTD/sodipodi-0.dtd"
   xmlns:inkscape="http://www.inkscape.org/namespaces/inkscape"
   version="1.1"
   id="l78"
   x="0px"
   y="0px"
   viewBox="56.47369384765625 112.52904510498047 887.0526123046875 774.9418334960938"
   width="100%"
   height="100%"
   style="enable-background:new 0 0 1000 1000;"
   xml:space="preserve"
   ><style
     type="text/css"
     id="style3">
	.noFillSVG{fill:none;}
	#l78 .st1{fill:#F58787;}
</style><switch
     id="switch5"
     transform="translate(-24.197799,-19.668116)"><g
       id="g7"><g
         id="g9"><path
           class="noFillSVG"
           d="m 206.8,622.8 c -0.2,-0.1 -0.4,-0.3 -0.7,-0.4 0,0.2 0.1,0.4 0.1,0.6 0.2,0.1 0.4,0.1 0.6,0.2 0,-0.1 0,-0.3 0,-0.4 z"
           id="path11"
           inkscape:connector-curvature="0"
           style="fill:none" /><path
           class="noFillSVG"
           d="m 98.2,397.8 c -0.1,0.2 -0.1,0.4 -0.1,0.6 0.1,0.2 0.3,0.3 0.4,0.4 0,-0.2 0.1,-0.2 0.2,-0.4 -0.2,-0.2 -0.3,-0.4 -0.5,-0.6 z"
           id="path13"
           inkscape:connector-curvature="0"
           style="fill:none" /><path
           class="noFillSVG"
           d="m 793.2,669.6 c -0.1,0.2 -0.2,0.5 -0.2,0.8 0.2,-0.1 0.4,-0.2 0.6,-0.3 0,-0.2 0,-0.4 0.1,-0.6 -0.2,0 -0.3,0 -0.5,0.1 z"
           id="path15"
           inkscape:connector-curvature="0"
           style="fill:none" /><path
           class="noFillSVG"
           d="m 894.6,216.8 c 0,0.2 0,0.3 0.1,0.4 0.2,0.1 0.4,0.3 0.7,0.4 0,-0.2 -0.1,-0.4 -0.2,-0.6 l 0,0 c -0.2,-0.1 -0.4,-0.1 -0.6,-0.2 z"
           id="path17"
           inkscape:connector-curvature="0"
           style="fill:none" /><path
           class="noFillSVG"
           d="m 183.5,178.6 c 0.2,-0.2 0.3,-0.4 0.5,-0.6 -0.2,0 -0.4,0 -0.6,0.1 -0.1,0.2 -0.1,0.4 -0.3,0.5 0.2,0 0.3,0.1 0.4,0 z"
           id="path19"
           inkscape:connector-curvature="0"
           style="fill:none" /><path
           class="noFillSVG"
           d="m 379.6,805.9 c -0.2,-0.1 -0.5,-0.2 -0.8,-0.2 0.1,0.2 0.2,0.4 0.3,0.6 0.2,0 0.4,0 0.6,0.1 -0.1,-0.2 -0.1,-0.3 -0.1,-0.5 z"
           id="path21"
           inkscape:connector-curvature="0"
           style="fill:none" /><path
           class="noFillSVG"
           d="m 611.1,844.5 c -0.1,0.2 -0.3,0.4 -0.4,0.7 0.2,0 0.4,-0.1 0.6,-0.2 0.1,-0.2 0.1,-0.4 0.2,-0.6 -0.1,0.1 -0.3,0.1 -0.4,0.1 z"
           id="path23"
           inkscape:connector-curvature="0"
           style="fill:none" /><path
           class="noFillSVG"
           d="m 662,164.6 c 0.2,-0.2 0.4,-0.3 0.6,-0.6 -0.2,0 -0.4,0 -0.6,0 -0.1,0.2 -0.2,0.3 -0.4,0.5 0.2,0 0.3,0.1 0.4,0.1 z"
           id="path25"
           inkscape:connector-curvature="0"
           style="fill:none" /><path
           class="noFillSVG"
           d="m 423.6,192.7 c 0.2,0.1 0.5,0.1 0.8,0.2 -0.1,-0.2 -0.2,-0.4 -0.3,-0.5 -0.2,0 -0.4,0 -0.6,0 0.1,0 0.1,0.2 0.1,0.3 z"
           id="path27"
           inkscape:connector-curvature="0"
           style="fill:none" /><path
           class="noFillSVG"
           d="m 923.6,455.8 c 0,0.2 0,0.5 0.1,0.8 0.2,-0.2 0.3,-0.3 0.4,-0.5 0,-0.2 -0.1,-0.4 -0.2,-0.6 -0.1,0.1 -0.2,0.2 -0.3,0.3 z"
           id="path29"
           inkscape:connector-curvature="0"
           style="fill:none" /><path
           class="st1"
           d="m 397.1,811.2 c 0.2,-3.4 -1.6,-4.6 -3.5,-5.6 -1.5,-0.7 -3.7,-1.1 -4.5,0.1 -0.3,-1.5 -3.4,-4.8 -7.5,-4.6 -2.1,0 -2.9,1.9 -2.1,4.5 l -0.9,-0.8 c -0.2,-1.2 0,-2.7 1.3,-4.5 2,-2 -0.5,-4.3 -2.3,-3.5 -0.1,-2 -0.9,-3.1 -2.5,-3.8 -1.6,-0.7 -3.5,1 -3,4.4 0.3,1.5 -1,0.5 -1.2,-1.2 -0.2,-1.7 -0.8,-2.6 1.7,-5.8 1.8,-2.2 0.2,-4.8 -2,-4.5 1.8,-2.4 1.9,-4.8 -1,-6.5 -2.3,-1.2 -3.6,-0.5 -4.5,1.6 -0.7,-1.6 -2.8,-2.6 -3.8,-1.9 -1,0.6 -2.1,2.1 0.1,6.8 0.9,1.3 -0.4,1.7 -1.2,0.1 -0.8,-1.6 -2.3,-3.3 -1.9,-8.4 0,-3 -1.1,-4.1 -2.4,-4.8 -0.9,-0.6 -2.4,-0.9 -2.8,0.3 -0.2,-1.3 -2.3,-4.1 -4.8,-3.9 -2.1,0.1 -2.2,4.5 1.2,8.5 -2.8,-1.6 -5.6,-4.4 -7.5,-9.4 -1.4,-2.9 -2.7,-5 -3.8,-4.9 -0.8,0 -1,1.1 -0.8,1.7 -0.3,-0.8 -1.6,-2.9 -2.8,-2.6 -1.8,0.5 -0.5,2.6 1.1,4.5 l 9.4,8.6 -9.6,-8.4 c -2,-1.5 -4.2,-2.7 -4.6,-0.9 -0.3,1.2 1.9,2.4 2.8,2.6 -0.6,-0.2 -1.6,0 -1.6,0.9 -0.1,1.1 2.1,2.3 5.2,3.5 5.1,1.7 8.1,4.3 10.1,6.8 -4.3,-3 -8.7,-2.7 -8.8,-0.6 -0.1,2.5 3,4.3 4.3,4.4 -1.1,0.5 -0.7,1.9 0,2.8 0.9,1.1 2.1,2.2 5.1,2 5.2,-0.9 7,0.5 8.7,1.1 1.8,0.7 1.4,1.9 0.1,1.2 -5,-1.8 -6.4,-0.6 -7,0.4 -0.6,1 0.7,3 2.3,3.6 -2,1 -2.6,2.4 -1.1,4.6 2,2.7 4.4,2.4 6.7,0.4 -0.1,2.2 2.7,3.5 4.7,1.6 3,-2.8 3.9,-2.3 5.7,-2.3 1.8,0 2.9,1.1 1.4,1 -3.5,-0.1 -5,1.9 -4.1,3.4 0.9,1.5 2.1,2.1 4.2,2 -0.6,1.9 2.1,4 3.8,1.8 1.7,-1.5 3.3,-1.9 4.5,-1.9 l 0.7,0.6 c -2.6,-0.4 -4.3,0.6 -4,2.6 0.4,4 4.1,6.6 5.7,6.7 -1.1,0.9 -0.4,3.1 0.5,4.5 1.2,1.8 2.7,3.4 6.1,2.7 4.6,-1.5 8.9,-0.2 12,3.2 0.7,-0.5 1.2,-1 1.7,-1.7 0.6,-0.6 1.1,-1.2 1.4,-1.9 -3.8,-2.5 -5.7,-6.4 -4.9,-11.1 z m -18.3,-5.5 c 0.3,0.1 0.5,0.1 0.8,0.2 0.1,0.1 0.1,0.3 0.1,0.4 -0.2,-0.1 -0.4,0 -0.6,-0.1 -0.1,-0.1 -0.2,-0.3 -0.3,-0.5 z"
           id="path31"
           inkscape:connector-curvature="0"
           style="fill:#f58787" /><path
           class="st1"
           d="m 403.6,827.8 -0.7,-0.6 c 0.2,0.2 0.4,0.4 0.7,0.6 z"
           id="path33"
           inkscape:connector-curvature="0"
           style="fill:#f58787" /><path
           class="st1"
           d="m 499,894.6 c 1.2,0.2 3.2,-0.4 3,-2.1 -0.1,-2.2 -4.7,-3.9 -10.8,-5.7 -10.3,-2.1 -16.7,-6.6 -20.9,-11.3 8.9,5.1 17.5,3.6 17.1,-0.5 -0.2,-4.9 -6.5,-7.7 -9.2,-7.8 2.1,-1.2 1,-3.8 -0.4,-5.4 -1.8,-2.1 -4.3,-4 -10.1,-3 -10,2.5 -13.6,0.1 -17.1,-0.9 -3.5,-1.1 -3.1,-3.5 -0.3,-2.3 10.1,2.8 12.5,0.2 13.5,-1.9 0.9,-2.1 -1.7,-5.8 -5,-6.6 3.7,-2.3 4.7,-5.1 1.7,-9 -4.1,-4.9 -8.8,-4 -13,0.1 0,-4.3 -5.6,-6.5 -9.3,-2.5 -5.5,5.8 -7.5,4.9 -10.9,5.1 -3.4,0.2 -5.7,-1.9 -2.8,-1.9 6.8,-0.2 9.6,-4.2 7.7,-7 -1.8,-2.9 -4.3,-4 -8.3,-3.6 1,-3.7 -4.2,-7.7 -7.5,-3.3 -3.1,3 -6,3.8 -8.3,3.8 l -4.1,-3.3 c 0.6,0.4 1.6,1.5 2.2,3.1 -1.1,-0.2 -2.1,-0.7 -2.7,-1.1 l 3.2,2.4 c 0.5,2.3 0.2,5.4 -2.3,9.2 -3.8,4 1.2,8.4 4.7,6.8 0.4,3.9 2,6.1 5.3,7.3 3.2,1.3 6.7,-2.2 5.5,-8.8 -0.6,-2.8 2,-1.1 2.5,2.3 0.5,3.4 1.8,5 -2.8,11.6 -3.3,4.4 0.2,9.5 4.5,8.6 -3.2,4.9 -3.1,9.7 2.8,12.7 4.8,2.1 7.3,0.5 8.7,-3.6 1.6,3 5.9,4.7 7.8,3.3 1.8,-1.4 3.8,-4.4 -1.3,-13.4 -1.9,-2.4 0.5,-3.4 2.3,-0.3 1.8,3.1 5,6 5,16.2 0.5,5.9 2.9,7.8 5.5,9.1 1.9,1 4.8,1.3 5.5,-0.9 0.8,2.5 5.2,7.8 10.1,6.8 4.1,-0.7 3.3,-9.2 -4,-16.4 5.6,2.8 11.7,7.7 16.6,16.9 3.4,5.4 6.4,9.2 8.6,8.7 1.6,-0.3 1.7,-2.3 1.2,-3.4 0.7,1.6 3.8,5.3 6,4.4 3.4,-1.4 0.4,-5.2 -3.3,-8.5 l -19.5,-15.6 19.8,15.2 c 4.3,2.5 8.9,4.3 9.2,0.7 0.1,-2.1 -4.3,-3.9 -6.1,-4.2 z"
           id="path35"
           inkscape:connector-curvature="0"
           style="fill:#f58787" /><path
           class="st1"
           d="m 225.3,643.5 c -3.3,-3.2 -4.4,-7.5 -2.6,-11.8 0.9,-3.2 -0.5,-4.9 -2.2,-6.2 -1.3,-1 -3.4,-1.9 -4.4,-0.9 0,-1.5 -2.2,-5.4 -6.2,-6.1 -2.1,-0.4 -3.3,1.2 -3.1,3.9 l -0.7,-1 c 0.1,-1.2 0.7,-2.6 2.3,-4 2.4,-1.5 0.5,-4.2 -1.4,-3.9 0.3,-2 -0.2,-3.2 -1.6,-4.2 -1.4,-1 -3.6,0.2 -3.9,3.6 -0.1,1.5 -1.1,0.3 -0.9,-1.4 0.2,-1.7 -0.2,-2.7 3,-5.3 2.2,-1.7 1.3,-4.6 -0.9,-4.8 2.3,-1.9 3,-4.3 0.6,-6.5 -1.9,-1.7 -3.4,-1.3 -4.7,0.5 -0.3,-1.7 -2.1,-3.1 -3.2,-2.8 -1.1,0.4 -2.5,1.5 -1.5,6.7 0.5,1.5 -0.8,1.6 -1.2,-0.2 -0.4,-1.8 -1.5,-3.7 0.2,-8.6 0.7,-2.9 -0.1,-4.2 -1.1,-5.2 -0.8,-0.8 -2.1,-1.4 -2.8,-0.4 0.1,-1.3 -1.2,-4.5 -3.7,-4.8 -2.1,-0.4 -3.2,3.8 -0.9,8.5 -2.2,-2.3 -4.4,-5.6 -5,-10.9 -0.6,-3.2 -1.3,-5.5 -2.4,-5.7 -0.8,-0.2 -1.2,0.8 -1.2,1.4 -0.1,-0.9 -0.8,-3.2 -2,-3.2 -1.9,0 -1.2,2.4 -0.1,4.7 l 7.1,10.5 -7.3,-10.4 c -1.6,-2 -3.4,-3.7 -4.2,-2 -0.6,1.1 1.2,2.8 2,3.2 -0.5,-0.3 -1.6,-0.4 -1.8,0.4 -0.3,1.1 1.5,2.8 4.1,4.7 4.5,2.9 6.9,6.1 8.1,9 -3.5,-3.9 -7.9,-4.7 -8.4,-2.6 -0.7,2.4 1.9,4.8 3.2,5.3 -1.2,0.2 -1.1,1.7 -0.7,2.7 0.6,1.3 1.5,2.6 4.5,3.1 5.3,0.4 6.7,2.1 8.2,3.1 1.5,1.1 0.9,2.2 -0.2,1.2 -4.4,-2.9 -6.1,-2.1 -6.9,-1.2 -0.8,0.9 -0.1,3.1 1.4,4 -2.2,0.5 -3.1,1.7 -2.2,4.2 1.3,3.1 3.7,3.4 6.4,2 -0.6,2.1 1.8,4.1 4.2,2.6 3.6,-2.1 4.4,-1.4 6.1,-1 1.7,0.4 2.6,1.7 1.1,1.3 -3.4,-0.8 -5.3,0.8 -4.8,2.4 0.5,1.7 1.6,2.6 3.6,2.9 -1,1.7 1.1,4.4 3.3,2.6 2,-1.1 3.7,-1.2 4.8,-0.8 l 0.5,0.8 c -2.4,-1 -4.4,-0.4 -4.6,1.7 -0.5,4 2.6,7.3 4.1,7.8 -1.3,0.7 -1.1,3 -0.5,4.5 0.8,2 1.9,4 5.4,4 4.8,-0.5 8.8,1.6 11.1,5.6 0.8,-0.3 1.4,-0.8 2,-1.3 0.8,-0.5 1.4,-1 2,-1.7 z m -19.2,-21.1 c 0.3,0.1 0.5,0.3 0.7,0.4 0,0.1 0,0.3 0,0.4 -0.2,-0.1 -0.4,-0.1 -0.6,-0.2 0,-0.2 -0.1,-0.4 -0.1,-0.6 z"
           id="path37"
           inkscape:connector-curvature="0"
           style="fill:#f58787" /><path
           class="st1"
           d="m 225.7,649.4 -0.8,-0.9 c 0.2,0.2 0.5,0.6 0.8,0.9 z"
           id="path39"
           inkscape:connector-curvature="0"
           style="fill:#f58787" /><path
           class="st1"
           d="m 307.1,731.7 c 1.1,0.3 3.2,0 3.3,-1.6 0.2,-2.2 -4.1,-4.5 -9.8,-7.2 -9.8,-3.7 -15.3,-9.2 -18.7,-14.4 8,6.5 16.6,6.4 16.9,2.2 0.6,-4.8 -5.1,-8.6 -7.7,-9.1 2.3,-0.9 1.6,-3.6 0.5,-5.4 -1.5,-2.3 -3.5,-4.6 -9.4,-4.6 -10.2,0.8 -13.4,-2.2 -16.6,-3.8 -3.3,-1.7 -2.4,-4 0.2,-2.3 9.4,4.5 12.3,2.3 13.6,0.5 1.3,-1.9 -0.6,-6 -3.7,-7.3 4.1,-1.6 5.6,-4.2 3.3,-8.6 -3.2,-5.4 -7.8,-5.5 -12.7,-2.1 0.9,-4.2 -4.2,-7.4 -8.6,-4.2 -6.6,4.7 -8.2,3.4 -11.7,2.9 -3.4,-0.4 -5.2,-3 -2.3,-2.4 6.7,1.1 10.2,-2.3 8.9,-5.4 -1.2,-3.2 -3.4,-4.7 -7.4,-5.1 1.7,-3.4 -2.5,-8.3 -6.6,-4.7 -3.5,2.2 -6.4,2.5 -8.7,2.1 l -3.5,-4.1 c 0.5,0.5 1.2,1.8 1.5,3.5 -1,-0.4 -1.7,-1 -2.3,-1.5 l 2.4,2.7 c 0.1,2.4 -0.8,5.5 -4.2,8.8 -4.5,3.1 -0.6,8.6 3.2,7.6 -0.4,3.9 0.8,6.4 3.8,8.2 3,1.9 7,-0.9 7.1,-7.6 -0.1,-2.9 2.1,-0.7 2,2.7 -0.2,3.4 0.8,5.3 -5,10.8 -4.1,3.7 -1.6,9.4 2.8,9.3 -4.1,4.2 -4.9,9.1 0.5,13 4.3,2.9 7.1,1.8 9.3,-2 1,3.2 5,5.7 7.1,4.7 2,-1 4.5,-3.7 1.1,-13.4 -1.4,-2.7 1.1,-3.3 2.4,0.1 1.2,3.4 3.8,6.8 2,16.9 -0.6,5.9 1.5,8.3 3.8,10 1.8,1.3 4.6,2.1 5.6,0 0.3,2.6 3.9,8.6 8.9,8.4 4.2,0 4.8,-8.6 -1.3,-16.8 5.1,3.7 10.3,9.5 13.6,19.4 2.4,6 4.9,10.1 7.1,9.9 1.7,0 2,-2 1.7,-3.2 0.5,1.7 3,5.8 5.3,5.2 3.6,-0.9 1.2,-5.1 -1.9,-8.9 l -16.3,-18.8 16.7,18.4 c 3.9,3.1 8.1,5.5 9,2 0.6,-1.9 -3.5,-4.3 -5.2,-4.8 z"
           id="path41"
           inkscape:connector-curvature="0"
           style="fill:#f58787" /><path
           class="st1"
           d="m 101.9,426 c 0.8,0 1.6,-0.2 2.4,-0.4 0.8,-0.1 1.6,-0.4 2.3,-0.8 -1.6,-4.3 -0.8,-8.6 2.6,-11.8 2.2,-2.5 1.5,-4.6 0.5,-6.4 -0.7,-1.4 -2.2,-3.1 -3.6,-2.6 0.7,-1.4 0.4,-5.7 -2.9,-8.1 -1.6,-1.2 -3.4,-0.4 -4.4,1.9 l -0.1,-1.2 c 0.6,-0.9 1.7,-1.8 3.7,-2.3 2.8,-0.3 2.3,-3.5 0.4,-4 1.3,-1.6 1.5,-2.9 0.7,-4.5 -0.7,-1.5 -3.2,-1.5 -5.2,1.4 -0.2,0.3 -0.3,0.4 -0.4,0.4 l -0.1,-1.2 c 0.1,-0.3 0.2,-0.6 0.4,-0.9 1,-1.4 1.1,-2.5 5.2,-3.2 2.8,-0.5 3.4,-3.4 1.5,-4.5 3,-0.6 4.6,-2.3 3.6,-5.3 -0.8,-2.3 -2.2,-2.7 -4.3,-1.8 0.6,-1.6 -0.2,-3.7 -1.3,-3.9 -1.1,-0.2 -3,0.1 -4.7,5 -0.3,1.5 -1.5,1 -0.9,-0.8 0.6,-1.7 0.7,-3.9 4.6,-7.2 2.1,-2.1 2.1,-3.6 1.7,-4.9 -0.3,-1 -1.1,-2.2 -2.2,-1.7 0.7,-1.1 1.6,-4.4 -0.4,-5.9 -1.5,-1.4 -5,1.5 -5.4,6.7 -0.8,-3.1 -0.5,-7 1.8,-11.7 1.2,-3 1.9,-5.2 1,-6 -0.6,-0.6 -1.5,0 -1.8,0.5 0.4,-0.8 1.1,-3.1 0.1,-3.7 -1.5,-1 -2.5,1.3 -2.7,3.8 l 0.8,12.5 -1.1,-12.5 c -0.3,-2.5 -0.7,-4.9 -2.4,-4 -1.1,0.6 -0.6,3 -0.2,3.8 -0.3,-0.5 -1.1,-1.2 -1.8,-0.6 -0.9,0.7 -0.3,3.2 0.9,6.2 2.3,4.9 2.2,8.8 1.8,12 -0.9,-5.1 -3.9,-8.2 -5.6,-6.7 -1.9,1.7 -1.3,5.2 -0.3,6.3 -1.2,-0.4 -1.8,0.9 -2,2 -0.2,1.4 -0.1,3.1 2.3,5.1 4.3,3 4.7,5.2 5.4,6.8 0.8,1.7 -0.3,2.4 -0.8,0.9 -2.3,-4.7 -4.2,-4.8 -5.3,-4.5 -1.1,0.4 -1.7,2.8 -0.9,4.3 -2.2,-0.6 -3.6,0 -4.1,2.7 -0.3,3.4 1.8,4.9 4.8,4.9 -1.6,1.6 -0.3,4.6 2.5,4.4 4.1,-0.2 4.5,0.8 5.8,2 1.3,1.1 1.4,2.7 0.3,1.7 -2.6,-2.3 -5,-1.8 -5.3,0 -0.4,1.8 0.1,3.1 1.8,4.3 -1.6,1.1 -0.9,4.4 1.9,3.8 2.5,-0.1 4,0.7 4.9,1.6 l 0.1,0.8 c -1.8,-2.1 -3.9,-2.4 -5,-0.6 -2.2,3.4 -0.9,7.8 0.2,8.9 -1.5,0 -2.3,2.3 -2.4,3.9 -0.1,2.1 0.2,4.4 3.4,5.9 5,1.1 7.7,4.6 8.2,9.2 z M 98,398.4 c 0,-0.2 0.1,-0.4 0.1,-0.6 0.2,0.2 0.3,0.4 0.4,0.7 0,0.1 -0.1,0.2 -0.2,0.4 0,-0.3 -0.1,-0.4 -0.3,-0.5 z"
           id="path43"
           inkscape:connector-curvature="0"
           style="fill:#f58787" /><path
           class="st1"
           d="m 155,533.5 c 1,0.6 3.1,0.9 3.6,-0.7 0.8,-2 -2.5,-5.4 -7.4,-9.5 -8.3,-6.2 -12.2,-13 -13.7,-19 5.5,8.6 14,10.7 15.5,6.9 2,-4.5 -2.4,-9.5 -4.6,-10.8 2.4,-0.2 2.7,-3 2.2,-5 -0.6,-2.6 -2,-5.3 -7.6,-7 -9.9,-2.3 -11.9,-6.1 -14.5,-8.6 -2.6,-2.6 -1,-4.5 0.9,-2.1 7.4,7.1 10.8,5.9 12.7,4.6 1.8,-1.4 1.4,-5.8 -1.1,-8 4.4,-0.3 6.6,-2.2 6,-7 -1,-6 -5.4,-7.4 -11.1,-5.9 2.2,-3.6 -1.5,-8.1 -6.7,-6.6 -7.8,2.2 -8.9,0.4 -11.9,-1.2 -0.3,-0.2 -0.6,-0.4 -0.9,-0.6 l -1.2,-2.8 c 0.2,0.1 0.5,0.2 0.8,0.4 5.8,3.4 10.3,1.3 10.3,-2 0,-3.3 -1.4,-5.5 -5,-7.2 2.8,-2.5 0.9,-8.5 -4.4,-6.6 -3.8,0.7 -6.5,0.1 -8.4,-1 l -2.2,-5.3 c 0.3,0.7 0.5,2.1 0.1,3.8 -0.5,-0.5 -0.8,-0.9 -1.1,-1.4 l 0.9,2.1 c -0.7,2.4 -2.7,5.1 -7.3,7 -5.4,1.2 -3.8,7.9 0.2,8.3 -1.8,3.6 -1.5,6.3 0.6,9.2 2.1,2.9 6.8,1.6 9.4,-4.6 1,-2.7 2.2,0.1 0.9,3.2 -1.4,3.2 -1.2,5.3 -8.6,8.5 -5.1,2.1 -4.6,8.4 -0.4,9.8 -5.3,2.6 -7.5,7 -3.8,12.7 3.2,4.3 6.2,4.1 9.5,1.1 0,3.4 3,7.1 5.3,6.8 2.3,-0.4 5.4,-2.2 5.3,-12.5 -0.5,-3 2.1,-2.8 2.2,0.9 0.1,3.6 1.4,7.7 -3.4,16.8 -2.3,5.5 -0.9,8.4 0.8,10.7 1.3,1.8 3.7,3.5 5.3,1.7 -0.6,2.7 1.2,9.4 6.1,10.7 4.1,1.2 6.9,-6.9 3.7,-16.6 3.6,5.1 7,12 7.4,22.5 0.8,6.3 2,11.1 4.2,11.5 1.6,0.4 2.5,-1.4 2.5,-2.6 0,1.7 1.2,6.4 3.6,6.5 3.7,0.1 2.5,-4.6 0.6,-9.1 l -9.4,-22.9 9.8,22.7 c 2.8,4.1 6.2,7.5 8.1,4.3 0.9,-1.7 -2.3,-5.2 -3.8,-6.1 z"
           id="path45"
           inkscape:connector-curvature="0"
           style="fill:#f58787" /><path
           class="st1"
           d="m 105.2,431.1 -0.8,-1.9 c 0,0.5 0.3,1.2 0.8,1.9 z"
           id="path47"
           inkscape:connector-curvature="0"
           style="fill:#f58787" /><path
           class="st1"
           d="m 174.2,193.8 c 3.2,0.9 4.7,-0.5 6,-2.1 0.9,-1.3 2,-3.1 0.9,-4.3 1.6,0.1 5.5,-1.7 6.5,-5.5 0.5,-1.9 -0.8,-3.2 -3.2,-3.3 l 1.2,-0.5 c 1,0.3 2.2,1 3.3,2.5 1.3,2.5 4.1,0.9 3.9,-1.1 1.9,0.5 3.2,0.3 4.4,-0.9 1.2,-1.1 0.3,-3.3 -2.9,-4.2 l 1.6,-0.7 c 1.6,0.4 2.7,0.3 4.7,3.7 1.4,2.4 4.3,2 4.8,-0.1 1.6,2.5 3.7,3.6 6.1,1.6 1.9,-1.6 1.8,-2.9 0.3,-4.6 1.7,0.1 3.4,-1.2 3.3,-2.4 -0.2,-1.1 -1,-2.8 -6.3,-2.9 -0.6,0.1 -0.9,-0.1 -1,-0.3 l 1.7,-0.7 c 1.8,0 3.9,-0.4 8.1,2.2 2.6,1.4 4.1,0.9 5.2,0.1 0.9,-0.6 1.8,-1.7 1,-2.6 0.6,0.2 1.8,0.1 2.9,-0.1 1.1,-0.3 2.2,-0.8 2.7,-2 0.4,-0.9 -0.3,-2 -1.7,-2.7 -1.1,-0.6 -2.8,-0.9 -4.6,-0.8 l 2.8,-1.2 0.9,-0.4 c 0,0 0,0 -0.1,0 l 10.9,-4.7 c 1.2,-0.5 2.3,-1 3,-1.6 0.7,-0.6 0.9,-1.1 0.3,-1.8 -0.9,-0.9 -3.1,0.4 -3.7,1 0.5,-0.4 0.9,-1.4 0.1,-1.8 -0.9,-0.6 -3.2,0.6 -5.9,2.6 -4.1,3.6 -8,4.5 -11.1,5.2 2.3,-1.3 4,-2.7 4.9,-4.1 0.9,-1.4 0.9,-2.6 0,-3.1 -1.1,-0.7 -2.5,-0.6 -3.7,-0.2 -1.2,0.4 -2.2,1.2 -2.6,1.8 0.1,-1.2 -1.4,-1.5 -2.5,-1.3 -1.5,0.3 -3.1,0.9 -4.3,3.7 -1.6,5 -3.6,5.9 -5,7.2 -1.4,1.2 -2.4,0.5 -1.1,-0.5 3.9,-3.6 3.4,-5.4 2.7,-6.3 -0.7,-0.9 -3.2,-0.7 -4.5,0.5 -0.1,-2.2 -1.2,-3.4 -3.9,-2.9 -3.4,0.9 -4.2,3.3 -3.2,6.2 -2.1,-0.9 -4.5,1.3 -3.4,3.8 1.6,3.8 0.7,4.4 0.1,6.1 -0.6,1.6 -2.1,2.2 -1.5,0.9 1.3,-3.1 0,-5.2 -1.8,-4.9 -1.8,0.3 -3,1.1 -3.5,3.2 -1.6,-1.1 -4.6,0.8 -3,3.1 1.1,2.4 0.8,4.1 0.2,5.3 l -0.7,0.3 c 1.4,-2.4 0.9,-4.5 -1.2,-4.9 -4.1,-0.8 -7.8,2.1 -8.4,3.6 -0.6,-1.3 -3.1,-1.3 -4.6,-0.5 -2,0.8 -4.1,2.1 -4.2,5.5 0.4,4.8 -1.8,8.5 -5.7,11 0.4,0.7 0.9,1.4 1.4,1.9 0.5,0.7 1,1.2 1.7,1.7 2.9,-3.5 7.4,-4.4 11.7,-2.7 z M 184,178 c -0.1,0.2 -0.3,0.5 -0.5,0.6 -0.2,0 -0.3,0 -0.4,0 0.1,-0.2 0.2,-0.4 0.3,-0.5 0.2,-0.1 0.4,-0.1 0.6,-0.1 z"
           id="path49"
           inkscape:connector-curvature="0"
           style="fill:#f58787" /><path
           class="st1"
           d="m 103.5,304.3 c 2.2,-0.8 2.2,-5.3 1.7,-7 0.3,1.1 1.7,2.6 3.1,1.8 2,-1 1.8,-5.5 0.9,-11.7 -0.3,-2.2 -0.4,-4.2 -0.4,-6.2 l -8.4,14.7 c -0.6,4.8 -0.4,9.6 3.1,8.4 z"
           id="path51"
           inkscape:connector-curvature="0"
           style="fill:#f58787" /><path
           class="st1"
           d="m 155,203.9 3.7,-6.1 c -0.5,0.5 -1.5,1.3 -3.1,1.8 l 1.8,-3.2 c -0.6,0.5 -1.5,1.6 -2.1,3.2 -2.5,0.7 -6.2,0.5 -10.6,-2.9 -1.8,-2.1 -4.1,-1.9 -5.7,-0.8 -1.6,1.2 -2.4,3.4 -1.7,5.2 -4.1,0.4 -6.5,2 -8,5.4 -1.6,3.3 2.1,6.6 8.9,5.5 2.9,-0.6 1.1,1.9 -2.4,2.4 -1.8,0.2 -3.1,0.7 -4.8,0.5 -1.7,-0.1 -3.8,-0.8 -7.1,-3 -4.5,-3.1 -9.8,1.1 -8.8,5.5 -2.6,-1.4 -5.2,-1.9 -7.5,-1.2 -2.3,0.7 -4.5,2.5 -5.7,6.1 -1.8,5.5 0.2,7.8 4.6,8.5 -2.9,2.2 -4.2,7.1 -2.5,8.7 1.6,1.6 5.1,2.7 13.5,-3.8 2.2,-2.2 3.5,0 0.6,2.3 -1.4,1.1 -2.8,2.6 -5.1,4.1 -2.3,1.5 -5.7,2.8 -10.6,4.1 -5.7,2 -7.2,5.2 -8,8.1 -0.6,2.2 -0.3,5.2 2.2,5.2 -2.6,1.4 -6.2,7.9 -3.7,12.3 1,1.9 3.5,1.9 6.3,0.2 1.4,-0.8 2.9,-2 4.3,-3.6 0.7,-0.8 1.4,-1.7 2.1,-2.6 0.8,-0.9 1.5,-2 2.2,-3.1 -0.9,3 -1.7,6.4 -3.4,10 -1.7,3.6 -4.3,7.3 -8,11.3 -3.7,5.3 -6.1,9.8 -4.8,11.6 0.9,1.4 2.8,0.5 3.6,-0.4 -1.2,1.3 -3.5,5.7 -1.7,7.3 2.7,2.5 5,-1.9 6.7,-6.5 l 8.9,-14.8 c 0,0.1 0,0.2 0,0.3 l 3.8,-6.6 0.5,-0.8 c 0.2,1.1 0.5,2.2 0.9,3 1.3,2.8 3.3,4.2 5.2,3.5 2.3,-0.8 3.5,-2.7 4.1,-4.8 0.3,-1 0.4,-2.1 0.4,-3.1 0.1,-0.9 0,-1.8 -0.1,-2.3 1.8,1.6 4,0 5.2,-1.5 1.5,-2.1 2.6,-4.5 0.1,-9.8 -1.6,-2.8 -2.4,-5.1 -2.8,-7 l 2.5,-4.1 c 0.4,5.1 2.6,6.3 4.3,6.8 2.3,0.6 5.4,-2.2 5.6,-5.3 2.9,3.2 5.8,3.8 9,0.8 1.8,-2.1 2.6,-3.9 2.2,-5.9 -0.4,-2 -1.9,-4 -4.1,-5.8 4.2,0 5.7,-5.2 1.5,-8.8 -2.5,-2.2 -3.8,-3.8 -4.6,-5.2 l 2,-3.4 c 1.4,3.1 4.1,4.2 6.1,3.1 2.9,-1.5 3.9,-3.7 3.6,-7.6 1.8,0.6 3.6,-0.3 4.5,-1.7 1,-1.3 1.1,-3.3 -1,-5.2 -1.9,-2.2 -2.7,-4.1 -3,-5.9 z"
           id="path53"
           inkscape:connector-curvature="0"
           style="fill:#f58787" /><path
           class="st1"
           d="m 233.1,160.7 c 3.2,0.3 5.6,0.3 6.1,-0.7 0.4,-0.7 -0.4,-1.4 -1,-1.5 0.9,0.2 3.2,0.1 3.6,-1 0.3,-0.9 -0.2,-1.4 -1,-1.6 -0.9,-0.2 -2.1,-0.1 -3.4,0.1 l -10.9,4.4 c 2,-0.1 4.2,-0.1 6.6,0.3 z"
           id="path55"
           inkscape:connector-curvature="0"
           style="fill:#f58787" /><path
           class="st1"
           d="m 405.7,190.2 c 0.4,3.3 2.3,4.3 4.3,4.8 1.5,0.4 3.8,0.5 4.4,-0.9 0.6,1.3 3.9,4.2 7.9,3.5 2,-0.3 2.6,-2.2 1.6,-4.5 l 1,0.8 c 0.3,1.1 0.2,2.5 -0.8,4.3 -1.7,2.2 0.9,4.1 2.6,3.1 0.4,1.9 1.2,3 2.8,3.5 1.6,0.5 3.3,-1.3 2.5,-4.6 -0.1,-0.4 -0.1,-0.6 0,-0.7 l 0.9,0.7 c 0.2,0.3 0.3,0.7 0.4,1.1 0.3,1.7 1,2.5 -1.2,5.9 -1.6,2.3 0.2,4.7 2.3,4.2 -1.6,2.5 -1.5,4.9 1.3,6.3 2.3,1 3.6,0.2 4.3,-1.9 0.7,1.5 2.9,2.4 3.8,1.7 0.9,-0.7 2,-2.2 -0.5,-6.8 -0.9,-1.2 0.3,-1.7 1.2,-0.1 0.9,1.6 2.5,3.1 2.2,8.2 0,3 1.2,4 2.4,4.7 0.9,0.5 2.3,0.8 2.8,-0.3 0.3,1.3 2.3,4.1 4.8,3.7 2.1,-0.2 2.1,-4.5 -1.3,-8.4 2.7,1.6 5.7,4.3 7.6,9.3 1.4,2.9 2.6,5 3.8,4.9 0.8,0 1,-1.1 0.8,-1.6 0.3,0.8 1.6,2.9 2.7,2.6 1.8,-0.4 0.6,-2.6 -1,-4.5 l -9.8,-8 10,7.9 c 2,1.5 4.2,2.8 4.6,1 0.3,-1.2 -1.9,-2.4 -2.7,-2.6 0.6,0.2 1.7,0 1.7,-0.8 0.1,-1.1 -2.2,-2.3 -5.2,-3.6 -5.1,-1.7 -8.2,-4.2 -10.2,-6.7 4.4,2.9 8.9,2.6 8.8,0.5 0.1,-2.5 -3.1,-4.3 -4.5,-4.4 1.1,-0.6 0.6,-1.9 -0.1,-2.8 -0.9,-1.1 -2.2,-2.2 -5.2,-1.9 -5.2,1.1 -7.1,-0.2 -8.9,-0.7 -1.8,-0.6 -1.6,-1.8 -0.1,-1.2 5.2,1.5 6.5,0.3 7,-0.8 0.5,-1.1 -0.9,-3 -2.6,-3.5 1.9,-1.1 2.5,-2.6 0.8,-4.7 -2.2,-2.7 -4.7,-2.2 -6.8,0 -0.1,-2.2 -3.2,-3.3 -5,-1.2 -2.7,3.1 -3.7,2.6 -5.5,2.8 -1.7,0.2 -3,-0.9 -1.5,-0.9 3.5,-0.2 4.8,-2.3 3.7,-3.8 -1.1,-1.5 -2.3,-2 -4.4,-1.7 0.3,-1.9 -2.6,-3.7 -4.1,-1.4 -1.6,1.9 -3.2,2.4 -4.5,2.4 l -0.7,-0.5 c 2.7,0.2 4.4,-1.1 3.8,-3.1 -0.9,-4 -5.1,-6.1 -6.7,-6 1,-1.1 -0.2,-3.1 -1.3,-4.3 -1.5,-1.6 -3.4,-3 -6.6,-1.8 -4.3,2.2 -8.8,1.9 -12.6,-0.9 -0.5,0.6 -1,1.3 -1.3,2 -0.4,0.7 -0.8,1.4 -1,2.2 4.6,1.4 7.3,4.8 7.3,9.5 z m 18.7,2.6 c -0.3,0 -0.5,-0.1 -0.8,-0.2 -0.1,-0.1 -0.1,-0.3 -0.2,-0.4 0.2,0 0.4,0 0.6,0 0.2,0.3 0.3,0.4 0.4,0.6 z"
           id="path57"
           inkscape:connector-curvature="0"
           style="fill:#f58787" /><path
           class="st1"
           d="m 393.3,174.9 3.6,0.8 c -0.6,-0.3 -1.9,-0.8 -3.6,-0.8 z"
           id="path59"
           inkscape:connector-curvature="0"
           style="fill:#f58787" /><path
           class="st1"
           d="m 276.8,152 c -1.5,0.9 -2.1,2.1 -1.1,3.5 1.3,1.7 5.8,0.7 7.3,-0.2 -1,0.6 -2.2,2.2 -1,3.4 1.4,1.7 5.8,0.4 11.7,-1.9 2.6,-1.2 5.1,-1.9 7.5,-2.4 l -18,-4 c -2.5,0.3 -4.9,0.7 -6.4,1.6 z"
           id="path61"
           inkscape:connector-curvature="0"
           style="fill:#f58787" /><path
           class="st1"
           d="m 335.7,162.7 5.5,1.3 c -8,1.8 -8.9,4.9 -8.9,6.9 0.1,2.3 3.7,4.5 6.8,3.8 -2.3,3.7 -2.1,6.5 1.8,8.8 5,2.9 8.8,0.2 11.1,-5.2 1.4,3.8 6.9,4 9.1,-1 2.1,-4.7 3.7,-6.3 5.4,-7.2 l 3.7,0.9 c -4.1,2.4 -4.7,6.1 -2.6,7.8 2.5,2.2 5,2.5 8.6,1 0,1.9 1.5,3.4 3.2,3.7 1.7,0.5 3.6,-0.2 4.7,-2.7 1.7,-2.8 3.5,-4.3 5.3,-5.2 l 6.5,1.6 c -0.7,-0.3 -1.9,-1.1 -2.9,-2.4 0.1,0 0.2,0 0.2,0 l -0.3,-0.1 c -1.5,-2.1 -2.6,-5.5 -0.8,-10.6 1.3,-2.4 0.4,-4.4 -1.2,-5.5 -1.6,-1 -4,-1.1 -5.5,0.1 -1.6,-3.7 -4,-5.4 -7.6,-5.7 -3.7,-0.2 -5.7,4.1 -2.4,10.1 1.4,2.6 -1.5,1.5 -3.1,-1.4 -1.6,-3 -3.5,-4.2 -1.3,-11.9 1.6,-5.2 -3.8,-9.1 -7.8,-6.7 1.2,-5.7 -1.1,-10.2 -8.3,-10.9 -5.7,-0.1 -7.4,2.4 -6.8,6.7 -2.9,-2.1 -7.9,-1.9 -9,0.1 -1.1,2 -1.3,5.6 7.4,11.7 2.8,1.4 1,3.3 -2.1,1.2 -1.5,-1 -3.3,-1.9 -5.3,-3.7 -1,-0.9 -2.1,-2 -3.2,-3.5 -1.1,-1.4 -2.3,-3.1 -3.6,-5.4 -3.4,-5 -6.9,-5.6 -9.9,-5.5 -2.3,0 -5.1,1 -4.5,3.4 -2,-1.9 -9.2,-3.9 -12.9,-0.4 -1.6,1.4 -1,3.8 1.3,6.1 1.2,1.2 2.7,2.3 4.6,3.3 1.9,1 4.2,1.7 6.7,2.5 -1.6,0 -3.3,0 -5,0 -1.8,-0.1 -3.6,-0.3 -5.6,-0.7 -3.9,-0.7 -8.2,-2.5 -13.1,-4.7 -6.1,-2.3 -11.1,-3.5 -12.6,-1.8 -1.2,1.2 0.2,2.8 1.3,3.4 -1.6,-0.8 -6.5,-2 -7.6,0.2 -0.9,1.6 -0.1,2.7 1.5,3.3 1.6,0.7 4.1,1.2 6.6,1.4 l 18.3,4.5 c -0.1,0 -0.2,0 -0.3,0.1 l 6.1,1.4 2.3,0.6 c -1.8,0.6 -3.3,1.4 -4.4,2.3 -2.5,1.9 -3.3,4.2 -2.1,5.8 2.7,4 9,2.9 11.2,1.6 -1.1,2.1 1,3.9 2.9,4.6 2.4,0.9 5.2,1.4 9.7,-2.3 1.8,-1.7 3.5,-3 5,-4 1.5,-0.8 2.8,-1.3 3.9,-1.7 z"
           id="path63"
           inkscape:connector-curvature="0"
           style="fill:#f58787" /><path
           class="st1"
           d="m 637.4,177.7 c 1.9,-1.3 4,-2 6.1,-2 2.1,0 4.2,0.7 6.1,2 3,1.6 4.8,0.6 6.4,-0.8 1.2,-1 2.6,-2.7 1.9,-4 1.5,0.4 5.7,-0.7 7.5,-4.3 0.9,-1.7 -0.2,-3.3 -2.6,-3.8 l 1.2,-0.3 c 1,0.5 2,1.4 2.9,3.1 0.8,2.7 4,1.7 4.1,-0.2 1.8,0.9 3.1,0.8 4.5,-0.2 1.4,-1 0.9,-3.5 -2.3,-4.7 -0.2,-0.1 -0.2,-0.1 -0.2,-0.2 l 1.5,-0.4 c 0.1,0 0.3,0 0.4,0.1 1.6,0.7 2.7,0.7 4.1,4.5 1,2.6 4,2.7 4.8,0.7 1.1,2.8 3,4.1 5.8,2.8 2.2,-1.2 2.3,-2.7 1.1,-4.5 1.6,0.3 3.6,-0.9 3.6,-2 0,-1.1 -0.5,-2.9 -5.7,-3.7 -1.6,0 -1.3,-1.3 0.6,-1 1.8,0.2 4,-0.1 8,3.3 2.4,1.8 3.9,1.5 5.2,0.9 1,-0.4 2.1,-1.3 1.4,-2.3 1.2,0.6 4.6,0.8 5.9,-1.3 1.2,-1.7 -2.1,-4.4 -7.3,-4.2 l 3.4,-0.8 c 2.4,-0.3 5.2,-0.3 8.5,0.8 3.1,0.8 5.5,1.1 6.2,0.3 0.5,-0.6 -0.2,-1.4 -0.8,-1.7 0.8,0.3 3.2,0.7 3.8,-0.3 0.8,-1.7 -1.6,-2.1 -4.2,-2.1 l -12.4,2.8 12.4,-3.1 c 2.5,-0.5 4.9,-1.3 3.8,-2.8 -0.7,-1 -3.1,-0.2 -3.8,0.3 0.5,-0.3 1.1,-1.2 0.4,-1.8 -0.8,-0.8 -3.2,0.1 -6.2,1.7 -4.6,2.8 -8.5,3.7 -11.8,3.6 5.1,-1.5 7.6,-5.2 5.9,-6.5 -2,-1.6 -5.4,-0.3 -6.4,0.7 0.3,-1.2 -1.2,-1.7 -2.3,-1.7 -1.5,0 -3.2,0.4 -4.8,3 -2.4,4.6 -4.5,5.3 -6,6.4 -1.6,1.1 -2.4,0.1 -1,-0.6 4.4,-3.2 4.2,-4.9 3.7,-6 -0.6,-1.1 -3,-1.1 -4.5,-0.1 0.3,-2.2 -0.6,-3.5 -3.4,-3.5 -3.5,0.2 -4.7,2.4 -4.2,5.4 -1.9,-1.2 -4.7,0.5 -4,3.2 0.9,4 -0.1,4.5 -1,6 -0.9,1.5 -2.4,1.9 -1.6,0.7 1.8,-3 0.9,-5.3 -0.9,-5.2 -1.8,0 -3,0.8 -4,2.6 -1.4,-1.4 -4.7,-0.2 -3.6,2.4 0.6,2.5 0,4.1 -0.8,5.1 l -0.8,0 c 1.8,-2.1 1.8,-4.2 -0.3,-5 -3.8,-1.5 -8,0.7 -8.8,2 -0.3,-1.4 -2.7,-1.7 -4.4,-1.5 -2.2,0.3 -4.4,1.1 -5.3,4.4 -0.3,2.4 -1.2,4.3 -2.6,5.9 -1.4,1.6 -3.2,2.9 -5.4,3.7 0.2,0.8 0.5,1.5 0.9,2.2 0.4,0.7 0.8,1.3 1.3,2 z m 25.2,-13.6 c -0.2,0.2 -0.4,0.4 -0.6,0.6 -0.1,0 -0.2,-0.1 -0.4,-0.1 0.2,-0.2 0.2,-0.3 0.4,-0.5 0.2,-0.1 0.4,-0.1 0.6,0 z"
           id="path65"
           inkscape:connector-curvature="0"
           style="fill:#f58787" /><path
           class="st1"
           d="m 542.4,250.3 c -2.8,4.1 -4.8,8.5 -1.2,9 2.3,0.4 4.4,-3.9 4.8,-5.6 -0.2,1.2 0.3,3.2 1.9,3.1 2.2,0 4.3,-4.1 6.5,-10 1.3,-4.1 3,-7.5 4.9,-10.3 l -16.9,13.8 z"
           id="path67"
           inkscape:connector-curvature="0"
           style="fill:#f58787" /><path
           class="st1"
           d="m 630,178.4 2.5,-2 c -0.6,0.2 -1.6,0.9 -2.5,2 z"
           id="path69"
           inkscape:connector-curvature="0"
           style="fill:#f58787" /><path
           class="st1"
           d="m 565.7,231.3 c -3.8,6.8 -2.8,13 0.7,13.1 4.8,0.3 8.4,-5 8.7,-7.6 1,2.2 3.6,1.5 5.4,0.5 2.3,-1.4 4.4,-3.4 4.3,-9.1 -0.6,-7.8 1.1,-11.4 2.7,-14.1 l 4.2,-3.3 c 0,0.4 -0.1,0.9 -0.6,1.6 -4.8,8.9 -2.5,11.9 -0.7,13.2 1.9,1.3 5.9,-0.4 7.3,-3.2 1.6,4 4.1,5.6 8.4,3.8 5.3,-2.6 5.5,-7 2.5,-12.1 2.1,0.6 3.9,-0.3 4.9,-1.9 1,-1.5 1.2,-3.8 -0.3,-6.1 -3.5,-5.8 -3,-7.8 -2.3,-10.3 l 2.7,-2.1 c -1.1,5.7 1.8,8.9 4.8,8.1 3.2,-0.8 5,-2.6 5.8,-6.4 3.1,2.1 8.4,-1.2 5.4,-5.7 -1.4,-3.1 -1.6,-5.6 -1.2,-7.6 l 5,-3.9 c -0.7,0.4 -2,0.9 -3.7,0.9 0.1,-0.2 0.3,-0.4 0.4,-0.6 l -0.7,0.6 c -2.6,0 -5.9,-1.1 -9.1,-5.4 -2.4,-4.9 -8.7,-1.7 -8.3,2.2 -4,-0.8 -6.8,0 -9.1,2.8 -2.3,2.8 0.1,7 6.9,7.7 3,0.3 0.4,2.1 -3,1.7 -3.5,-0.5 -5.5,0.3 -10.6,-5.9 -1.7,-2.1 -4.1,-2.7 -6.1,-2.2 -2,0.6 -3.6,2.3 -3.8,4.5 -3.9,-4.3 -9.1,-5.3 -13.7,0.1 -3.4,4.3 -2.4,7.1 1.4,9.3 -3.5,0.9 -6.2,5 -5.2,7.1 1,2.1 3.6,4.3 13.8,1.3 2.9,-1.3 3.3,1.2 -0.3,2.3 -3.6,1.1 -7,3.6 -17.4,1.8 -6,-0.4 -8.5,1.8 -10.3,4.1 -1.4,1.8 -2.2,4.6 0,5.6 -2.7,0.4 -8.9,4.3 -8.4,9.3 0.2,4.2 9,4.2 17.2,-2 -1.8,2.6 -4.2,5.2 -7.3,7.6 -3.1,2.5 -7,4.8 -11.9,6.8 -5.8,2.9 -10,5.7 -9.7,7.9 0.1,1.6 2.2,1.8 3.4,1.3 -1.6,0.6 -5.6,3.5 -4.9,5.7 1.2,3.5 5.3,0.7 8.9,-2.7 l 17.4,-13.7 c 0,0.1 -0.1,0.1 -0.1,0.2 l 2.4,-1.9 4.1,-3.3 z"
           id="path71"
           inkscape:connector-curvature="0"
           style="fill:#f58787" /><path
           class="st1"
           d="m 757.2,155.6 c 1.1,2.1 5.7,1.2 7.3,0.6 -1.1,0.4 -2.4,2 -1.4,3.3 1.2,1.8 5.8,0.9 11.9,-0.4 2.3,-0.7 4.4,-1.1 6.4,-1.4 l -16.1,-6.4 c -5,-0.1 -9.8,1.1 -8.1,4.3 z"
           id="path73"
           inkscape:connector-curvature="0"
           style="fill:#f58787" /><path
           class="st1"
           d="m 788.3,160.4 1,0.4 c -1.2,0.4 -2.3,0.8 -3.2,1.3 -2.7,1.6 -3.9,3.8 -2.8,5.5 2.2,4.2 8.5,4.2 10.9,3.2 -1.4,1.9 0.5,3.9 2.2,4.8 2.3,1.1 4.9,2 9.9,-1 2.8,-2 5.2,-3.1 7.2,-3.7 l 4.4,1.9 c -2,0.4 -3.5,1 -4.5,1.7 -1.7,1.2 -2.1,2.5 -2.3,3.6 -0.2,2.3 3,4.8 6.1,4.7 -2.8,3.3 -3.1,6.2 0.3,9 4.4,3.5 8.5,1.4 11.6,-3.5 0.6,4.1 6,4.9 9,0.4 2.1,-3 3.6,-4.5 4.9,-5.3 l 3.6,1.5 c -3.2,1.8 -4,4.7 -2.5,6.5 2,2.6 4.3,3.3 8.1,2.5 -0.8,3.7 4.2,7 7.4,2.5 2,-2.1 3.9,-3.2 5.6,-3.7 l 6.6,2.7 c -0.6,-0.4 -1.5,-1.4 -2.2,-2.8 l 3.4,1.4 c -0.5,-0.5 -1.8,-1.3 -3.5,-1.6 -1,-2.4 -1.4,-6 1.5,-10.7 3.7,-4.1 -2.1,-8.5 -5.5,-6.7 -0.9,-4 -2.9,-6.1 -6.5,-7.1 -3.7,-1 -6.4,3 -4.3,9.4 0.9,2.8 -1.8,1.2 -2.8,-2 -1,-3.3 -2.7,-4.8 0.8,-12 2.6,-4.9 -2.4,-9.6 -6.7,-8 2.2,-5.5 0.5,-10.3 -6.7,-12.2 -5.7,-1 -7.8,1.1 -7.9,5.5 -2.6,-2.6 -7.7,-3.1 -9.1,-1.2 -0.7,0.9 -1.2,2.2 -0.6,4.2 0.6,2 2.4,4.6 6.2,8.4 2.5,1.9 0.5,3.4 -2.2,0.9 -2.7,-2.6 -6.6,-4.5 -10.3,-14.2 -2.7,-5.4 -6.1,-6.6 -9.1,-6.8 -2.3,-0.2 -5.3,0.4 -5,2.8 -1.8,-2.2 -8.6,-5.3 -12.8,-2.3 -1.8,1.2 -1.4,3.6 0.6,6.2 2,2.7 5.6,5.3 10.4,7.3 -6.4,-0.5 -13.9,-2.5 -22.9,-8.4 -5.8,-3.3 -10.6,-4.9 -12.3,-3.4 -1.3,1 -0.2,2.8 0.8,3.5 -1.5,-1 -6.2,-2.6 -7.6,-0.6 -2.2,3 2.6,4.4 7.4,5.6 l 16.3,6.8 c -0.1,0 -0.2,0 -0.3,0 l 7.4,3 z"
           id="path75"
           inkscape:connector-curvature="0"
           style="fill:#f58787" /><path
           class="st1"
           d="m 897.8,244.5 c 1.8,1.6 3.3,1.3 4.7,-0.3 0.2,1.6 1.8,3.1 2.9,2.9 1.1,-0.3 2.8,-1.4 2,-6.4 -0.2,-0.7 0,-1.1 0.3,-1.1 l 0.9,1.5 c 0.3,1.7 1.1,3.8 -1.1,8.3 -1.1,2.7 -0.3,4 0.4,5.1 0.6,0.8 1.8,1.6 2.7,0.7 -0.3,1.3 0.4,4.6 2.8,5.2 1.9,0.6 3.5,-2.9 2.4,-7.4 l 1.9,3.1 c 0.8,2.1 1.3,4.5 1.2,7.5 0.2,3.1 0.4,5.6 1.4,5.9 0.8,0.3 1.4,-0.6 1.4,-1.2 -0.1,0.9 0.1,3.3 1.3,3.5 1.9,0.3 1.6,-2.1 1,-4.6 l -6.3,-10.9 6.6,10.8 c 1.1,2.2 2.6,4.3 3.8,2.8 0.7,-1 -0.7,-3 -1.3,-3.6 0.5,0.4 1.5,0.7 1.8,-0.1 0.5,-1 -0.9,-3.1 -3.3,-5.4 -4.2,-3.5 -6,-7 -6.8,-10.1 2.8,4.4 7.1,5.9 7.9,3.9 1.1,-2.3 -1.1,-5.2 -2.4,-5.9 1.2,-0.1 1.3,-1.6 1.1,-2.7 -0.3,-1.4 -1.2,-2.9 -4.2,-3.7 -5.3,-1 -6.4,-2.8 -8,-3.9 -1.5,-1.2 -0.9,-2.3 0.3,-1.1 4.4,3.2 5.9,2.6 6.8,1.8 0.8,-0.8 0.3,-3.3 -1.2,-4.3 2.2,-0.4 3.2,-1.5 2.4,-4.2 -1.3,-3.3 -3.7,-3.8 -6.4,-2.5 0.6,-2.1 -1.9,-4.3 -4.4,-2.8 -3.6,2 -4.4,1.3 -6.1,0.9 -1.7,-0.4 -2.6,-1.7 -1.1,-1.3 3.3,0.9 5.3,-0.7 4.7,-2.4 -0.5,-1.8 -1.7,-2.6 -3.8,-3 0.9,-1.7 -1.3,-4.5 -3.4,-2.6 -2.3,1.4 -4.1,1.3 -5.3,0.9 l -0.4,-0.6 c 0.1,0.2 0.1,0.4 0.2,0.6 -0.3,-0.1 -0.5,-0.2 -0.7,-0.4 0,-0.1 0,-0.3 -0.1,-0.4 0.2,0.1 0.4,0.1 0.6,0.2 l 0,0 c 0,0 0,0 0,0 2.7,1 4.7,0.3 4.8,-1.8 0.2,-4 -3.2,-7.4 -4.8,-7.7 1.3,-0.8 0.7,-3.1 -0.1,-4.6 -1.1,-1.9 -2.5,-3.9 -6,-3.5 -4.8,1.1 -8.9,-0.5 -12,-4 -0.7,0.5 -1.2,1 -1.7,1.7 -0.6,0.5 -1.1,1.2 -1.5,1.9 3.9,2.5 5.5,6.7 4.3,11.1 -0.5,3.2 1,4.6 2.8,5.6 1.3,0.8 3.5,1.4 4.5,0.3 0.2,1.5 2.5,5.1 6.5,5.5 1.9,0.3 3.1,-1.2 2.9,-3.5 l 0.6,1.1 c -0.2,1 -0.7,2.2 -2.1,3.5 -2.3,1.6 -0.5,4.2 1.5,3.8 -0.3,2 0.2,3.1 1.6,4.1 1.3,1 3.4,-0.2 3.9,-3.4 l 0.9,1.5 c -0.2,1.6 0,2.6 -3.1,5 -2.2,1.7 -1.4,4.5 0.8,4.6 -2.3,1.6 -3.2,3.9 -1,6.1 z"
           id="path77"
           inkscape:connector-curvature="0"
           style="fill:#f58787" /><path
           class="st1"
           d="m 934.1,430 c -0.7,-0.4 -1.5,-0.6 -2.3,-0.7 -0.8,-0.3 -1.6,-0.4 -2.4,-0.4 -0.5,4.6 -3.5,7.9 -8,9.1 -3.2,1.2 -3.5,3.3 -3.6,5.4 0,1.6 0.5,3.8 2,4 -1.3,0.9 -3.2,4.9 -1.4,8.5 0.8,1.9 2.9,1.9 4.9,0.3 l -0.4,1.1 c -1,0.6 -2.5,0.9 -4.5,0.4 -2.6,-1 -3.8,2 -2.4,3.4 -1.8,0.9 -2.6,2 -2.6,3.7 -0.1,1.7 2.2,2.8 5.2,1.1 1.3,-0.8 0.9,0.7 -0.7,1.5 -1.6,0.8 -2.2,1.7 -6.2,0.5 -2.7,-0.8 -4.6,1.5 -3.5,3.4 -2.9,-0.8 -5.2,0 -5.7,3.1 -0.3,2.5 0.9,3.5 3.1,3.6 -1.3,1.1 -1.5,3.4 -0.6,4.1 0.9,0.7 2.7,1.2 6.5,-2.5 0.9,-1.3 1.8,-0.3 0.5,1.1 -1.3,1.3 -2.4,3.2 -7.4,4.5 -2.9,1 -3.5,2.4 -3.8,3.7 -0.2,1 0,2.5 1.2,2.5 -1.2,0.7 -3.2,3.4 -2.2,5.6 0.8,1.9 5.1,0.6 7.7,-3.9 -0.6,3.1 -2.5,6.6 -6.6,10 -2.4,2.2 -4,4.1 -3.5,5.1 0.3,0.8 1.3,0.6 1.8,0.2 -0.7,0.5 -2.3,2.4 -1.6,3.4 1,1.6 2.7,-0.3 4,-2.5 l 4.9,-11.6 -4.7,11.8 c -0.8,2.4 -1.3,4.8 0.6,4.6 1.2,-0.1 1.7,-2.5 1.6,-3.4 0,0.6 0.5,1.5 1.3,1.3 1.1,-0.3 1.5,-2.7 1.8,-6 0,-5.3 1.6,-8.9 3.3,-11.6 -1.4,5 0.2,9 2.3,8.4 2.5,-0.7 3.2,-4.2 2.9,-5.5 0.9,0.9 2.1,0 2.7,-0.9 0.8,-1.2 1.5,-2.7 0.2,-5.5 -2.6,-4.5 -1.9,-6.6 -1.8,-8.5 0,-1.9 1.3,-2 1.1,-0.5 0,5.3 1.6,6.1 2.8,6.3 1.2,0.2 2.7,-1.7 2.7,-3.4 1.7,1.5 3.2,1.6 4.8,-0.6 1.8,-2.9 0.7,-5.1 -2,-6.4 2.1,-0.7 2.4,-3.9 -0.2,-5 -3.8,-1.7 -3.6,-2.8 -4.3,-4.4 -0.7,-1.6 0,-3 0.5,-1.6 1.2,3.2 3.6,3.9 4.7,2.5 1.2,-1.4 1.3,-2.8 0.4,-4.6 2,-0.2 2.9,-3.5 0.2,-4.2 -2.2,-1 -3.2,-2.3 -3.5,-3.5 l 0.3,-0.8 c 0.6,2.6 2.2,3.8 4.1,2.8 3.6,-1.9 4.6,-6.4 4.1,-7.9 1.3,0.7 3.1,-0.9 3.9,-2.4 1.1,-1.8 2,-4 0,-6.7 -3.4,-3.4 -3.9,-7.7 -2.2,-12 z m -10.5,26.5 c 0,-0.3 -0.1,-0.5 -0.1,-0.8 0.1,-0.1 0.2,-0.1 0.3,-0.3 0,0.2 0.1,0.4 0.2,0.6 -0.1,0.2 -0.2,0.4 -0.4,0.5 z"
           id="path79"
           inkscape:connector-curvature="0"
           style="fill:#f58787" /><path
           class="st1"
           d="m 930.5,304.3 c -1.7,1.6 0.4,5.7 1.5,7 -0.8,-0.9 -2.7,-1.7 -3.6,-0.4 -0.7,0.8 -0.5,2.3 0.3,4.2 0.8,1.9 1.9,4.3 3.5,7 1.4,2.1 2.6,4.2 3.5,6.2 0.3,0.6 0.5,1.1 0.7,1.7 l 0.6,-19.2 c -1.6,-4.7 -3.8,-9 -6.5,-6.5 z"
           id="path81"
           inkscape:connector-curvature="0"
           style="fill:#f58787" /><path
           class="st1"
           d="m 933.6,422.9 -0.1,3 c 0.2,-0.5 0.3,-1.7 0.1,-3 z"
           id="path83"
           inkscape:connector-curvature="0"
           style="fill:#f58787" /><path
           class="st1"
           d="m 967.6,377 c -0.9,-5.5 -3.7,-6.6 -7.9,-5.3 1.6,-3.2 0.6,-7.9 -1.7,-8.6 -2.3,-0.7 -5.6,-0.2 -10.3,9.3 -1,3 -3.1,1.6 -1.6,-1.7 0.8,-1.6 1.3,-3.6 2.8,-5.8 1.3,-2.3 3.4,-4.9 7.5,-8.2 4.4,-4.2 4.5,-7.6 3.8,-10.5 -0.6,-2.2 -2.2,-4.8 -4.4,-3.7 1.4,-2.3 2.5,-9.6 -1.5,-12.6 -3.3,-2.6 -9.2,4.1 -9.8,14.3 -0.8,-3.1 -1.3,-6.5 -1,-10.5 0.1,-1 0.2,-2 0.3,-3.1 0.1,-1 0.2,-2.1 0.4,-3.2 0.3,-2.2 0.9,-4.6 1.7,-7.2 0.7,-3.2 1.3,-6 1.3,-8.2 -0.1,-2.2 -0.5,-3.7 -1.5,-4.3 -1.4,-0.9 -2.8,0.6 -3.2,1.8 0.5,-1.7 0.7,-6.6 -1.6,-7.4 -3.5,-1.2 -3.8,3.7 -3.3,8.6 l -1,19.5 c 0,-0.1 -0.1,-0.2 -0.1,-0.2 l -0.2,5.2 -0.2,3.5 c -2.9,-5.9 -7.5,-8.4 -9.7,-6.1 -3.6,3.4 -1.7,9.4 0.1,11.3 -2.3,-0.7 -3.6,1.7 -3.9,3.6 -0.4,2.6 -0.5,5.4 4,9.1 4.1,2.9 6.2,5.6 7.5,7.8 0.3,0.6 0.5,1.1 0.7,1.7 l -0.3,5.9 c 0,-0.1 -0.1,-0.2 -0.1,-0.4 -3.3,-9.5 -7.2,-9.7 -9.4,-9.3 -2.2,0.5 -3.8,4.5 -2.5,7.4 -4.1,-1.6 -6.9,-0.8 -8.5,3.5 -1.6,5.5 1.6,8.7 7.4,9.9 -3.7,2.2 -2.6,7.7 2.9,8.7 6.2,1.3 7.7,2.8 9,4.8 l -0.2,3.7 c -3.4,-4.3 -7.6,-4.3 -9,-1.7 -1.7,2.9 -1.4,5.4 0.9,8.6 -3.7,0.9 -4.6,7 0.7,7.9 3.3,1 5.3,2.5 6.5,4.1 l -0.3,6.3 c 0.1,-0.7 0.6,-2.1 1.8,-3.4 0.1,0.3 0.1,0.5 0.2,0.8 l 0,-1 c 1.8,-1.9 4.9,-3.6 10.2,-3.1 5.4,1.5 7,-5.2 3.8,-7.5 3.3,-2.4 4.5,-4.9 4,-8.5 -0.4,-3.5 -5.2,-4.6 -10.5,-0.2 -2.2,2 -1.9,-1.1 0.8,-3.3 2.7,-2.2 3.4,-4.2 11.5,-3.7 5.5,0.5 8.1,-5.5 5,-8.7 5.7,0.1 9.8,-2.9 8.9,-9.9 z"
           id="path85"
           inkscape:connector-curvature="0"
           style="fill:#f58787" /><path
           class="st1"
           d="m 811.2,648.2 c -0.6,-0.6 -1.2,-1 -2,-1.3 -2.4,4 -6.4,5.9 -11.1,5.3 -3.4,-0.1 -4.6,1.7 -5.5,3.6 -0.6,1.5 -1,3.7 0.2,4.5 -1.5,0.4 -4.8,3.4 -4.6,7.4 0.1,2.1 2,2.9 4.6,2 l -0.8,0.9 c -1.2,0.2 -2.7,0 -4.5,-1.2 -2.1,-1.9 -4.3,0.6 -3.5,2.3 -2,0.2 -3.1,1 -3.8,2.6 -0.7,1.6 1.1,3.4 4.5,2.8 1.5,-0.3 0.5,1 -1.2,1.2 -1.8,0.2 -2.6,0.8 -6,-1.6 -2.2,-1.7 -4.9,-0.1 -4.5,2.1 -2.5,-1.7 -4.9,-1.7 -6.5,1.1 -1.2,2.3 -0.4,3.6 1.7,4.4 -1.6,0.7 -2.6,2.8 -1.9,3.8 0.7,0.9 2.2,2 7,-0.3 1.3,-0.9 1.8,0.3 0.1,1.2 -1.6,0.8 -3.3,2.3 -8.5,2 -3,0 -4.1,1.2 -4.8,2.4 -0.6,0.9 -0.9,2.3 0.3,2.8 -1.3,0.3 -4.2,2.3 -3.9,4.7 0.2,2.1 4.6,2.1 8.6,-1.3 -1.6,2.7 -4.5,5.5 -9.5,7.5 -2.9,1.4 -5,2.7 -4.9,3.8 0.1,0.8 1.1,1 1.7,0.8 -0.9,0.3 -2.9,1.6 -2.6,2.8 0.5,1.8 2.7,0.5 4.6,-1.2 l 8.6,-9.4 -8.4,9.6 c -1.5,2 -2.7,4.2 -0.8,4.6 1.2,0.3 2.4,-1.9 2.6,-2.8 -0.2,0.6 0.1,1.6 0.9,1.6 1.1,0 2.3,-2.1 3.5,-5.2 1.6,-5.1 4.2,-8.1 6.8,-10 -3,4.3 -2.7,8.6 -0.5,8.6 2.6,0.1 4.3,-3 4.5,-4.3 0.6,1.1 2,0.6 2.8,0 1.2,-0.9 2.2,-2.1 1.9,-5.1 -0.9,-5.1 0.4,-6.9 1,-8.6 0.6,-1.8 1.9,-1.5 1.2,-0.1 -1.7,5 -0.5,6.3 0.5,6.8 1.1,0.5 3.1,-0.7 3.6,-2.4 1.1,1.9 2.5,2.5 4.7,1 2.7,-2 2.3,-4.5 0.3,-6.6 2.2,0.1 3.5,-2.8 1.5,-4.7 -2.9,-2.9 -2.4,-3.8 -2.5,-5.6 -0.1,-1.7 1.1,-2.8 1,-1.4 0,3.4 2,4.9 3.5,3.9 1.6,-0.9 2.1,-2.1 2,-4.2 1.9,0.5 4,-2.1 1.8,-3.8 -1.6,-1.7 -2,-3.2 -2,-4.4 l 0.6,-0.7 c -0.4,2.5 0.7,4.2 2.8,3.9 4.1,-0.5 6.6,-4.2 6.7,-5.8 1,1.1 3.2,0.3 4.5,-0.7 1.8,-1.2 3.4,-2.8 2.6,-6.1 -1.6,-4.5 -0.4,-8.7 2.9,-11.9 -0.5,-0.3 -1.1,-0.8 -1.8,-1.3 z M 793,670.3 c 0.1,-0.3 0.1,-0.5 0.2,-0.8 0.1,-0.1 0.3,-0.1 0.4,-0.1 -0.1,0.2 0,0.4 -0.1,0.6 -0.1,0.1 -0.3,0.2 -0.5,0.3 z"
           id="path87"
           inkscape:connector-curvature="0"
           style="fill:#f58787" /><path
           class="st1"
           d="m 814.9,645 -0.7,1 c 0.2,-0.2 0.5,-0.6 0.7,-1 z"
           id="path89"
           inkscape:connector-curvature="0"
           style="fill:#f58787" /><path
           class="st1"
           d="m 888.5,545.7 c -1.9,-3.2 -5.2,0.3 -8.2,4.3 l -14.4,20.3 14,-20.5 c 2.1,-4.5 3.2,-9.2 -0.5,-9.1 -2.3,0.1 -3.6,4.6 -3.7,6.3 0,-1.2 -0.8,-3 -2.4,-2.7 -2.2,0.4 -3.4,4.9 -4.4,11.2 -1,10.3 -5,17 -9.3,21.5 4.4,-9.2 2,-17.4 -2.1,-16.6 -4.9,0.7 -7.1,7 -6.9,9.6 -1.4,-1.9 -4,-0.7 -5.5,0.8 -1.9,1.9 -3.6,4.5 -2.1,10.1 3.4,9.6 1.1,13.3 0.4,16.7 -0.8,3.5 -3.4,3.2 -2.3,0.4 2.2,-10 -0.7,-12.2 -2.8,-13 -2.2,-0.8 -5.8,2 -6.3,5.3 -2.6,-3.5 -5.5,-4.3 -9.3,-1.1 -4.6,4.3 -3.5,8.8 1,12.6 -4.3,0.2 -6.2,5.8 -2,9.3 6.2,5.2 5.4,7.1 5.7,10.5 0.4,3.4 -1.7,5.7 -1.8,2.8 -0.4,-6.7 -4.7,-9.2 -7.5,-7.2 -2.9,1.9 -3.9,4.3 -3.3,8.2 -3.7,-0.8 -7.5,4.4 -3,7.5 3,2.8 4,5.5 4.2,7.7 l -3.2,4.4 c 0.4,-0.6 1.5,-1.6 3.1,-2.3 -0.2,1 -0.5,1.8 -0.9,2.5 l 2,-2.9 c 2.4,-0.7 5.6,-0.6 9.7,1.9 4.2,3.6 8.5,-1.6 6.7,-4.9 4,-0.6 6.1,-2.3 7.3,-5.6 1.2,-3.3 -2.5,-6.5 -9.2,-5 -2.9,0.7 -1.2,-1.9 2.2,-2.5 3.4,-0.6 5,-2.1 11.9,2.2 4.6,3 9.6,-0.8 8.5,-5 5.1,2.9 10.1,2.4 12.8,-3.7 1.9,-4.9 0.1,-7.3 -4.2,-8.4 3,-1.8 4.5,-6.2 3,-8 -1.5,-1.7 -4.7,-3.4 -13.6,2.3 -2.3,2 -3.5,-0.2 -0.4,-2.3 3,-2 5.9,-5.2 16.2,-6.1 5.9,-1 7.7,-3.6 8.8,-6.2 0.8,-2 1,-4.9 -1.4,-5.3 2.5,-1 7.5,-6 6,-10.7 -1.1,-4 -9.7,-2.3 -16.3,5.6 2.3,-5.8 6.8,-12.2 15.6,-18 5.1,-4 8.6,-7.4 7.9,-9.5 -0.4,-1.6 -2.5,-1.3 -3.6,-0.7 1.4,-1.2 4.8,-4.7 3.6,-6.7 z"
           id="path91"
           inkscape:connector-curvature="0"
           style="fill:#f58787" /><path
           class="st1"
           d="m 631.2,825.2 c -3.1,3.4 -7.4,4.6 -12,3.1 -3.3,-0.7 -4.9,0.8 -6.1,2.6 -0.9,1.3 -1.7,3.5 -0.6,4.4 -1.5,0.1 -5.4,2.5 -5.9,6.5 -0.3,2.1 1.5,3.2 4.2,2.8 l -0.9,0.7 c -1.2,0 -2.7,-0.5 -4.3,-2 -1.7,-2.3 -4.4,-0.2 -3.9,1.6 -2,-0.2 -3.3,0.4 -4.2,1.9 -1,1.5 0.4,3.5 3.9,3.6 1.5,0 0.3,1.1 -1.4,1 -1.8,-0.1 -2.7,0.4 -5.6,-2.6 -1.9,-2.1 -4.8,-0.9 -4.8,1.3 -2.1,-2.1 -4.5,-2.6 -6.7,-0.1 -1.6,2.1 -1.1,3.5 0.9,4.6 -1.7,0.4 -3,2.3 -2.6,3.4 0.5,1 1.8,2.4 6.9,0.9 1.4,-0.6 1.7,0.6 -0.1,1.2 -1.8,0.5 -3.6,1.7 -8.7,0.5 -3,-0.5 -4.3,0.5 -5.2,1.5 -0.7,0.8 -1.3,2.2 -0.2,2.8 -1.4,0 -4.5,1.5 -4.6,4 -0.2,2.1 4.2,2.8 8.7,0.1 -2.1,2.4 -5.3,4.7 -10.6,5.9 -3.1,0.9 -5.4,1.9 -5.5,3 -0.1,0.8 0.9,1.1 1.5,1 -0.9,0.1 -3.1,1.1 -3,2.3 0.2,1.9 2.5,0.9 4.7,-0.4 l 10.1,-7.8 -10,8 c -1.8,1.7 -3.4,3.7 -1.6,4.4 1.1,0.4 2.7,-1.5 3,-2.3 -0.2,0.6 -0.2,1.6 0.6,1.7 1.1,0.2 2.6,-1.7 4.3,-4.5 2.5,-4.7 5.5,-7.3 8.4,-8.7 -3.7,3.7 -4.1,8.1 -2,8.4 2.5,0.5 4.7,-2.2 5.1,-3.5 0.4,1.2 1.8,1 2.8,0.5 1.3,-0.7 2.6,-1.7 2.8,-4.6 0,-5.2 1.6,-6.7 2.5,-8.3 0.9,-1.6 2.1,-1.1 1.2,0.1 -2.6,4.6 -1.6,6.1 -0.7,6.8 1,0.7 3.2,-0.2 4,-1.7 0.7,2.1 2,2.9 4.4,1.8 3,-1.5 3.1,-3.9 1.4,-6.4 2.2,0.5 4,-2.1 2.3,-4.4 -2.4,-3.3 -1.7,-4.2 -1.4,-5.9 0.3,-1.7 1.6,-2.6 1.3,-1.2 -0.6,3.4 1.1,5.2 2.8,4.5 1.7,-0.6 2.5,-1.7 2.7,-3.7 1.8,0.9 4.3,-1.4 2.4,-3.4 -1.3,-1.9 -1.4,-3.5 -1.1,-4.6 l 0.7,-0.6 c -0.8,2.4 -0.1,4.3 2,4.3 4.1,0.3 7.3,-2.9 7.7,-4.4 0.8,1.3 3.1,0.9 4.6,0.2 2,-0.9 3.8,-2.1 3.7,-5.5 -0.7,-4.7 1.3,-8.6 5.2,-11.1 -0.4,-0.7 -0.8,-1.4 -1.4,-1.9 -0.5,-0.8 -1,-1.3 -1.7,-1.8 z m -20.5,20 c 0.1,-0.3 0.2,-0.5 0.4,-0.7 0.2,0 0.3,0 0.4,0 -0.1,0.2 -0.1,0.4 -0.2,0.6 -0.2,0 -0.4,0 -0.6,0.1 z"
           id="path93"
           inkscape:connector-curvature="0"
           style="fill:#f58787" /><path
           class="st1"
           d="m 637,824.6 -0.7,0.7 c 0.2,-0.2 0.5,-0.4 0.7,-0.7 z"
           id="path95"
           inkscape:connector-curvature="0"
           style="fill:#f58787" /><path
           class="st1"
           d="m 722.5,746.2 -18.7,16.6 18.3,-16.9 c 3.1,-3.8 5.5,-8 1.9,-8.9 -2.3,-0.5 -4.8,3.5 -5.3,5.2 0.3,-1.1 0,-3.2 -1.7,-3.2 -2.2,-0.2 -4.6,4 -7.2,9.7 -3.6,9.7 -9.1,15.3 -14.4,18.7 6.6,-7.9 6.2,-16.4 2.1,-16.7 -4.9,-0.5 -8.7,5.1 -9.1,7.7 -0.9,-2.2 -3.7,-1.6 -5.5,-0.4 -2.3,1.5 -4.6,3.6 -4.5,9.4 1,10 -1.9,13.3 -3.5,16.5 -1.6,3.3 -4,2.4 -2.3,-0.1 4.4,-9.3 2.1,-12.1 0.2,-13.4 -2,-1.2 -6.1,0.8 -7.4,3.8 -1.7,-4 -4.3,-5.4 -8.8,-3.1 -5.5,3.2 -5.4,7.9 -1.9,12.6 -4.3,-0.7 -7.4,4.4 -4,8.6 4.9,6.3 3.7,8 3.3,11.4 -0.3,3.4 -2.9,5.2 -2.3,2.4 1,-6.6 -2.6,-10 -5.8,-8.6 -3.2,1.3 -4.7,3.5 -5,7.4 -3.5,-1.6 -8.3,2.9 -4.5,6.8 2.4,3.5 2.9,6.4 2.5,8.6 l -4,3.5 c 0.5,-0.5 1.8,-1.3 3.5,-1.7 -0.4,1 -1,1.9 -1.5,2.4 l 2.8,-2.6 c 2.4,-0.2 5.5,0.6 8.9,3.8 3.4,4.3 8.6,0.2 7.5,-3.5 4,0.2 6.5,-0.9 8.3,-4 1.8,-3 -1.1,-6.9 -7.9,-6.7 -3,0.1 -0.8,-2.1 2.7,-2 3.5,0.1 5.3,-1 11.1,4.6 3.9,3.9 9.5,1.3 9.4,-3 4.4,3.9 9.2,4.5 13.2,-0.8 2.9,-4.3 1.7,-7 -2.2,-9 3.3,-1 5.7,-5.1 4.6,-7.1 -1.1,-2 -3.8,-4.3 -13.7,-0.8 -2.7,1.4 -3.4,-1 0.1,-2.3 3.4,-1.2 6.8,-3.9 17.1,-2.3 6,0.5 8.4,-1.7 10,-4 1.3,-1.8 2.1,-4.5 -0.1,-5.5 2.7,-0.4 8.7,-3.9 8.4,-8.9 -0.1,-4.2 -8.8,-4.5 -17.1,1.5 3.7,-5 9.5,-10.2 19.5,-13.7 6,-2.5 10.2,-5 10,-7.2 0,-1.6 -2.1,-1.9 -3.3,-1.6 1.7,-0.5 5.9,-3 5.3,-5.3 -0.8,-3.4 -5.1,-1 -9,2.1 z"
           id="path97"
           inkscape:connector-curvature="0"
           style="fill:#f58787" /></g></g></switch></svg>