<?xml version="1.0" encoding="UTF-8" standalone="no"?>
<svg
   xmlns:dc="http://purl.org/dc/elements/1.1/"
   xmlns:cc="http://creativecommons.org/ns#"
   xmlns:rdf="http://www.w3.org/1999/02/22-rdf-syntax-ns#"
   xmlns:svg="http://www.w3.org/2000/svg"
   xmlns="http://www.w3.org/2000/svg"
   xmlns:sodipodi="http://sodipodi.sourceforge.net/DTD/sodipodi-0.dtd"
   xmlns:inkscape="http://www.inkscape.org/namespaces/inkscape"
   version="1.1"
   id="l8"
   x="0px"
    class="withFill"
   y="0px"
   viewBox=" 43.400001525878906 322.1999816894531 913.2000122070312 355.6000061035156"
   width="100%"
   height="100%"
   style="enable-background:new 0 0 1000 1000;"
   xml:space="preserve"
   ><style
     type="text/css"
     id="style3">
	#l8 .st0{fill:#848484;}
	#l8 .st1{fill:#6D6D6D;}
	#l8 .st2{fill:#919191;}
	#l8 .st3{fill:#9E9E9E;}
	#l8 .st4{fill:#FFFFFF;}
</style><switch
     id="switch5"
     transform="translate(-8.8,-11.5)"><g
       id="g7"><g
         id="g9"><polygon
           class="st0"
           points="130.5,565.6 52.2,636.6 294.9,636.6 294.9,636.3 190.8,590.6 190.8,496.5 52.2,496.5 "
           id="polygon11"
           style="fill:#848484" /><path
           class="st0"
           d="m 265.5,590.6 -74.7,0 104.1,45.7 0,-15.3 c -11.3,-9.4 -21.2,-19.6 -29.4,-30.4 z"
           id="path13"
           inkscape:connector-curvature="0"
           style="fill:#6d6d6d" /><polygon
           class="st0"
           points="826.9,590.6 826.9,590.6 722.7,636.3 722.7,636.6 965.4,636.6 887.1,565.6 965.4,496.5 826.9,496.5 "
           id="polygon15"
           style="fill:#848484" /><path
           class="st0"
           d="m 752.2,590.6 c -8.2,10.8 -18.1,21.1 -29.4,30.5 l 0,15.2 104.1,-45.7 -74.7,0 z"
           id="path17"
           inkscape:connector-curvature="0"
           style="fill:#6d6d6d" /><path
           class="st0"
           d="m 752.2,590.6 74.7,0 0,0 0,-94.1 0,-69 -78.5,0 c 20.5,25 32.1,53.6 32.1,83.9 0,28.5 -10.2,55.3 -28.3,79.2 z"
           id="path19"
           inkscape:connector-curvature="0"
           style="fill:#919191" /><path
           class="st0"
           d="m 265.5,590.6 c -18.1,-23.8 -28.4,-50.7 -28.4,-79.1 0,-30.3 11.6,-58.9 32.1,-83.9 l -78.5,0 0,69 0,94.1 74.8,0 z"
           id="path21"
           inkscape:connector-curvature="0"
           style="fill:#919191" /><path
           class="st0"
           d="m 752.2,590.6 c 18.1,-23.8 28.4,-50.7 28.4,-79.1 0,-30.3 -11.6,-58.9 -32.1,-83.9 -45.8,-55.9 -135.9,-93.9 -239.6,-93.9 -103.7,0 -193.8,38 -239.6,93.9 -20.5,25 -32.1,53.6 -32.1,83.9 0,28.4 10.2,55.3 28.4,79.1 8.2,10.8 18.1,21 29.4,30.5 49.7,41.5 127.1,68.2 213.9,68.2 86.8,0 164.2,-26.7 213.9,-68.1 11.3,-9.6 21.1,-19.8 29.4,-30.6 z m -43.7,-160 c 0.7,-0.7 1.9,-0.7 3.4,-0.4 1.4,0.3 3.1,1.1 4.7,1.9 1.6,0.8 3.1,1.8 4.2,2.5 1.1,0.8 1.8,1.4 1.8,1.4 0.1,0.1 1.6,3.3 2.6,6.8 0.9,3.5 1.2,7.2 -0.4,8.2 -1.6,1.1 -4.9,-0.5 -7.7,-2.4 -2.9,-1.8 -5.5,-3.7 -5.5,-3.8 0,-0.1 -0.4,-0.8 -0.8,-2 -0.5,-1.2 -1.1,-2.6 -1.7,-4.2 -0.6,-1.6 -1,-3.3 -1.2,-4.8 -0.2,-1.3 -0.1,-2.5 0.6,-3.2 z m 4.7,156.5 c -1.5,-1.3 -0.6,-4.8 0.2,-8.1 0.9,-3.3 2.2,-6.2 2.2,-6.3 0.1,-0.1 2.5,-2.2 5.3,-4.1 2.7,-1.9 5.8,-3.7 7.5,-2.8 1.7,1 1.6,4.7 0.9,8.2 -0.8,3.5 -2.2,6.8 -2.2,6.9 0,0.2 -2.8,2.4 -5.9,4.3 -3,2 -6.6,3.2 -8,1.9 z m 20,-108.1 c 0.1,-1.7 0.3,-3.4 0.7,-4.8 0.3,-1.4 0.9,-2.5 1.8,-2.8 0.9,-0.4 2.1,0 3.4,0.8 1.2,0.9 2.5,2.2 3.6,3.5 2.4,2.7 4,5.9 4.1,6.1 0,0.1 0.1,1 0.1,2.4 0,1.4 0,3.1 -0.4,4.9 -0.6,3.6 -1.7,7.1 -3.7,7.4 -1.9,0.3 -4.2,-2.5 -6.1,-5.3 -0.9,-1.4 -1.8,-2.7 -2.4,-3.8 -0.7,-1 -1.1,-1.7 -1.1,-1.8 -0.2,-0.1 -0.1,-3.3 0,-6.6 z m 14.3,57 c -0.7,1.2 -1.6,2.7 -2.7,4.2 -2,3 -4.9,5.5 -6.7,4.8 -1.8,-0.6 -2.4,-4.1 -2.9,-7.5 -0.2,-1.7 -0.3,-3.3 -0.4,-4.5 -0.1,-1.2 -0.2,-2 -0.2,-2.1 0,-0.1 1.5,-2.9 3.1,-5.8 1.6,-2.9 3.7,-5.8 5.7,-5.7 2,0.1 3.3,3.5 4.2,7.1 0.8,3.5 0.8,7.1 0.8,7.3 0.1,0.1 -0.3,1 -0.9,2.2 z M 670,399.9 c 1,-1.7 4.7,-1.5 8.2,-0.7 3.4,0.8 6.7,2.1 6.8,2.2 0.1,0 0.7,0.7 1.5,1.7 0.8,1.1 1.9,2.5 2.8,4 0.9,1.5 1.8,3.1 2.2,4.5 0.4,1.4 0.5,2.7 -0.2,3.4 -0.6,0.8 -1.8,1 -3.3,0.9 -1.5,-0.1 -3.2,-0.4 -4.8,-0.8 -1.6,-0.4 -3.2,-1 -4.4,-1.4 -1.2,-0.4 -2,-0.7 -2.1,-0.7 -0.1,-0.1 -2.3,-2.5 -4.2,-5.4 -1.7,-2.9 -3.5,-6.1 -2.5,-7.7 z m -44.3,-21.6 c 0.7,-1.8 4.4,-2.4 7.9,-2.3 3.5,0.1 7,0.7 7.1,0.7 0.4,0 10.9,8.5 9.1,12 -0.9,1.7 -4.5,2 -7.9,1.8 -3.4,-0.2 -6.7,-0.7 -6.8,-0.8 -0.1,-0.1 -2.8,-2 -5.2,-4.4 -2.5,-2.4 -4.9,-5.1 -4.2,-7 z m -33,-17.5 c 0.3,0.1 12.2,6.4 11,10.3 -0.6,1.9 -4.1,2.6 -7.5,3.1 -3.4,0.4 -6.7,0.4 -6.9,0.4 -0.1,-0.1 -3.1,-1.6 -5.9,-3.5 -2.8,-1.9 -5.6,-4.4 -5.2,-6.3 0.7,-3.9 14.2,-4.2 14.5,-4 z M 543,352.5 c 0.3,-0.1 13,4.7 12.4,8.5 -0.6,3.9 -13.4,5.5 -13.7,5.6 -0.1,0 -3.3,-1.1 -6.4,-2.6 -3.1,-1.6 -6.2,-3.4 -6.1,-5.4 0.2,-4 13.5,-6.1 13.8,-6.1 z m -57,1.2 c 3.2,-1.4 6.5,-2.4 6.7,-2.4 0.3,-0.1 13.5,2.8 13.4,6.7 0,2 -3.2,3.8 -6.3,5.1 -3.2,1.3 -6.3,2.3 -6.5,2.3 -0.1,0 -3.4,-0.6 -6.7,-1.7 -3.3,-1.1 -6.6,-2.5 -6.8,-4.5 -0.1,-2 3,-4.1 6.2,-5.5 z m -49.7,6.6 c 3,-2 6.1,-3.3 6.3,-3.3 0.2,0 3.6,0.1 7.1,0.8 3.5,0.8 6.9,2 7.2,4 0.3,1.9 -2.6,4.2 -5.6,5.9 -2.9,1.8 -5.9,3.2 -6.1,3.2 -0.1,0.1 -3.5,-0.2 -6.8,-0.8 -3.4,-0.6 -6.9,-1.6 -7.3,-3.5 -0.5,-1.9 2.3,-4.3 5.2,-6.3 z m -42.4,9.8 c 0.3,-0.1 13.7,-1.3 14.9,2.5 0.6,1.8 -2,4.5 -4.6,6.7 -2.6,2.2 -5.4,4 -5.5,4.1 -0.1,0.1 -3.4,0.4 -6.8,0.4 -3.5,-0.1 -7,-0.5 -7.8,-2.3 -1.7,-3.8 9.4,-11.3 9.8,-11.4 z m -46,21.3 c 0.1,-0.1 3.5,-1.1 7,-1.6 3.5,-0.6 7.2,-0.3 8.1,1.4 0.9,1.8 -1.2,4.7 -3.3,7.4 -2.1,2.7 -4.5,4.9 -4.6,5 -0.2,0 -3.2,1 -6.6,1.6 -3.4,0.5 -7,0.9 -8.1,-0.7 -2.3,-3.3 7.2,-13 7.5,-13.1 z m -40.5,30.9 c 0.1,-0.1 0.8,-0.6 2,-1.2 1.2,-0.6 2.8,-1.4 4.5,-2 1.7,-0.7 3.4,-1.2 4.8,-1.4 1.5,-0.1 2.7,0 3.4,0.8 0.6,0.7 0.6,2 0.3,3.4 -0.3,1.4 -1,3.1 -1.7,4.6 -0.7,1.5 -1.5,3 -2.2,4 -0.6,1.1 -1,1.8 -1.1,1.9 -0.1,0.1 -2.9,1.8 -6,3.2 -3,1.5 -6.4,2.7 -7.9,1.4 -1.5,-1.3 -0.7,-4.9 0.6,-8.2 1.3,-3.4 3.2,-6.4 3.3,-6.5 z m -16.1,41.3 c -0.3,3.3 -1,6.4 -1,6.6 -0.1,0.1 -2,2.6 -4.4,5 -2.2,2.4 -4.9,4.8 -6.8,4.2 -1.9,-0.6 -2.5,-4.2 -2.5,-7.9 0.1,-3.6 0.8,-7.1 0.9,-7.2 0,-0.2 2.3,-3 5,-5.3 2.6,-2.4 6,-4.2 7.6,-3.3 1.6,1 1.4,4.5 1.2,7.9 z m -9.9,86.5 c 1.8,-0.7 4.7,1.5 7.1,3.8 2.5,2.3 4.7,4.6 4.7,4.7 0,0.1 0.2,0.9 0.5,2.1 0.3,1.2 0.6,2.8 0.9,4.4 0.3,1.7 0.4,3.4 0.3,4.9 0,1.4 -0.4,2.6 -1.2,3.2 -0.8,0.6 -2,0.4 -3.4,-0.1 -1.4,-0.6 -2.9,-1.6 -4.3,-2.7 -1.4,-1.1 -2.8,-2.3 -3.7,-3.3 -0.9,-1 -1.5,-1.7 -1.5,-1.8 0,-0.2 -1,-3.6 -1.3,-7.2 -0.2,-3.7 0.1,-7.3 1.9,-8 z m -6.1,-22.2 c -2,0.3 -4.1,-2.6 -5.8,-5.9 -0.4,-0.8 -0.8,-1.6 -1.1,-2.4 -0.3,-0.8 -0.5,-1.5 -0.7,-2.2 -0.4,-1.3 -0.6,-2.2 -0.6,-2.3 0,-0.2 0.5,-3.7 2.1,-7 0.7,-1.7 1.5,-3.3 2.4,-4.5 0.9,-1.2 2,-1.9 3,-1.8 1,0.1 1.8,1 2.5,2.2 0.8,1.2 1.5,2.8 2.1,4.4 1.1,3.1 2.1,6.1 2.1,6.2 0,0.1 -0.2,0.9 -0.5,2 -0.2,0.6 -0.4,1.3 -0.6,2 -0.2,0.7 -0.4,1.5 -0.6,2.3 -1.1,3.3 -2.5,6.7 -4.3,7 z m 52.1,81 c -1.2,1.5 -4.8,0.8 -8.2,-0.3 -3.4,-1.1 -6.4,-2.9 -6.5,-3 -0.1,-0.1 -2.2,-2.9 -3.6,-6.2 -1.4,-3.3 -2.4,-6.8 -1,-8.2 1.4,-1.3 4.9,-0.3 8,1 3.1,1.4 6,2.8 6.1,2.9 0.1,0.1 1.8,2.9 3.5,5.8 1.6,3.1 2.9,6.5 1.7,8 z m 41.9,26 c -0.9,1.8 -4.5,1.9 -8.1,1.5 -1.8,-0.2 -3.5,-0.5 -4.8,-0.8 -1.3,-0.3 -2.2,-0.6 -2.2,-0.6 -0.1,-0.1 -2.7,-2.4 -4.9,-5.2 -2.2,-2.8 -4,-6.1 -3,-7.7 1.1,-1.7 4.6,-1.4 8,-0.9 3.4,0.5 6.6,1.3 6.7,1.4 0.1,0 0.7,0.6 1.6,1.5 0.9,0.9 2.1,2.1 3.2,3.4 2.2,2.6 4.3,5.6 3.5,7.4 z m 46.1,17.4 c -0.5,1.9 -4.1,2.7 -7.7,3 -3.6,0.3 -7,-0.1 -7.1,-0.1 -0.1,-0.1 -3.1,-1.9 -5.8,-4.1 -2.7,-2.4 -5.1,-5.2 -4.4,-7 0.7,-1.8 4.3,-2.4 7.7,-2.4 3.5,-0.2 6.7,0.1 6.9,0.1 0.2,0 2.9,1.9 5.6,4 2.8,2 5.4,4.6 4.8,6.5 z m 34.3,14.9 c -0.3,0 -12.6,-5.5 -11.8,-9.4 0.4,-1.9 3.9,-3 7.3,-3.7 3.4,-0.7 6.7,-0.9 6.8,-0.9 0.1,0 3.2,1.3 6.2,3 3,1.8 5.9,3.9 5.7,5.8 -0.5,4.1 -13.9,5.2 -14.2,5.2 z m 56.9,2.7 c -3.3,1.2 -6.7,2 -6.8,2 -0.3,0.1 -13.2,-3.7 -13,-7.6 0.1,-2 3.4,-3.6 6.7,-4.7 3.3,-1.1 6.5,-1.9 6.6,-1.9 0.1,0 3.3,0.8 6.5,2.2 3.2,1.4 6.4,3 6.4,5 0.2,1.9 -3.1,3.8 -6.4,5 z m 50,-3.1 c -3.1,1.7 -6.4,2.8 -6.5,2.8 -0.2,0 -3.6,-0.3 -7,-1.3 -3.4,-1 -6.8,-2.5 -6.9,-4.5 -0.1,-2 2.9,-4 6,-5.5 3.1,-1.5 6.2,-2.8 6.3,-2.8 0.1,0 3.4,0.4 6.8,1.3 3.3,0.8 6.8,2.1 7.1,4 0.2,2 -2.7,4.2 -5.8,6 z m 43.1,-6.5 c -0.1,0 -3.6,0.1 -7.1,-0.3 -3.5,-0.4 -7.1,-1.5 -7.5,-3.4 -0.4,-1.9 2.3,-4.3 5.1,-6.3 2.8,-2 5.7,-3.6 5.8,-3.6 0.3,0.1 13.2,-0.5 14.5,3.2 1.2,3.6 -10.5,10.5 -10.8,10.4 z m 52.8,-21.9 c -2.4,2.6 -5.2,4.7 -5.3,4.8 -0.2,0 -3.5,0.9 -7.1,0.9 -3.6,0.1 -7.2,-0.3 -7.9,-2.1 -0.7,-1.8 1.5,-4.7 4,-7.1 2.5,-2.4 5,-4.5 5.1,-4.6 0.1,-0.1 3.4,-0.7 6.8,-0.9 3.4,-0.3 7,-0.2 8,1.5 0.9,1.8 -1.2,4.9 -3.6,7.5 z m 42.6,-27 c -1.7,3.2 -4.1,5.7 -4.1,5.9 -0.1,0.1 -3.3,1.6 -6.8,2.4 -3.5,0.8 -7.1,1.2 -8.2,-0.4 -1.1,-1.6 0.6,-4.9 2.4,-7.7 1.9,-2.8 3.8,-5.5 4,-5.5 0.1,-0.1 3.2,-1.3 6.4,-2.3 3.2,-1 6.8,-1.7 8.1,-0.2 1.3,1.3 -0.1,4.7 -1.8,7.8 z"
           id="path23"
           inkscape:connector-curvature="0"
           style="fill:#9e9e9e" /><path
           class="st4"
           d="m 743.5,519.5 c -2,-0.1 -4.1,2.8 -5.7,5.7 -1.7,2.9 -3.2,5.7 -3.1,5.8 0,0.1 0,0.9 0.2,2.1 0.1,1.2 0.1,2.8 0.4,4.5 0.5,3.3 1.1,6.8 2.9,7.5 1.8,0.6 4.7,-1.8 6.7,-4.8 1.1,-1.5 2,-3 2.7,-4.2 0.6,-1.2 1,-2.1 1,-2.1 0,-0.2 0,-3.8 -0.8,-7.3 -1,-3.7 -2.4,-7.1 -4.3,-7.2 z"
           id="path25"
           inkscape:connector-curvature="0"
           style="fill:#ffffff" /><path
           class="st4"
           d="m 727.1,581 c 0.1,-0.1 1.4,-3.4 2.2,-6.9 0.7,-3.6 0.8,-7.3 -0.9,-8.2 -1.7,-1 -4.8,0.8 -7.5,2.8 -2.9,1.9 -5.3,3.9 -5.3,4.1 0,0.2 -1.3,3.1 -2.2,6.3 -0.9,3.3 -1.7,6.8 -0.2,8.1 1.4,1.3 5,0.1 8,-1.8 3.1,-1.9 5.9,-4.2 5.9,-4.4 z"
           id="path27"
           inkscape:connector-curvature="0"
           style="fill:#ffffff" /><path
           class="st4"
           d="m 688.8,603.7 c -3.2,1.1 -6.3,2.2 -6.4,2.3 -0.1,0.1 -2.1,2.7 -4,5.5 -1.9,2.8 -3.5,6.1 -2.4,7.7 1.1,1.6 4.7,1.3 8.2,0.4 3.5,-0.8 6.6,-2.3 6.8,-2.4 0.1,-0.1 2.4,-2.7 4.1,-5.9 1.8,-3.1 3.1,-6.5 1.8,-8 -1.3,-1.3 -4.9,-0.6 -8.1,0.4 z"
           id="path29"
           inkscape:connector-curvature="0"
           style="fill:#ffffff" /><path
           class="st4"
           d="m 648.1,629.5 c -3.4,0.3 -6.7,0.8 -6.8,0.9 -0.2,0 -2.7,2.2 -5.1,4.6 -2.4,2.4 -4.7,5.3 -4,7.1 0.7,1.8 4.4,2.2 7.9,2.1 3.6,-0.1 6.9,-0.9 7.1,-0.9 0.1,-0.1 2.9,-2.2 5.3,-4.8 2.4,-2.7 4.4,-5.7 3.5,-7.4 -0.9,-1.8 -4.5,-1.9 -7.9,-1.6 z"
           id="path31"
           inkscape:connector-curvature="0"
           style="fill:#ffffff" /><path
           class="st4"
           d="m 596,646.6 c -0.1,0 -3,1.6 -5.8,3.6 -2.8,2 -5.5,4.4 -5.1,6.3 0.4,1.9 4,3 7.5,3.4 3.5,0.4 7,0.3 7.1,0.3 0.4,0 12,-6.8 10.8,-10.5 -1.3,-3.6 -14.2,-3 -14.5,-3.1 z"
           id="path33"
           inkscape:connector-curvature="0"
           style="fill:#ffffff" /><path
           class="st4"
           d="m 555.3,656.9 c -3.4,-0.9 -6.6,-1.3 -6.8,-1.3 -0.2,0 -3.2,1.2 -6.3,2.8 -3.1,1.5 -6.1,3.6 -6,5.5 0.1,2 3.5,3.4 6.9,4.5 3.4,1 6.8,1.3 7,1.3 0.2,0 3.4,-1.2 6.5,-2.8 3.1,-1.7 6,-4 5.7,-5.9 -0.2,-2.1 -3.7,-3.3 -7,-4.1 z"
           id="path35"
           inkscape:connector-curvature="0"
           style="fill:#ffffff" /><path
           class="st4"
           d="m 506.7,659.9 c -3.2,-1.3 -6.4,-2.2 -6.5,-2.2 -0.1,0 -3.4,0.8 -6.6,1.9 -3.2,1.1 -6.5,2.7 -6.7,4.7 -0.3,3.9 12.6,7.7 13,7.6 0.2,0 3.5,-0.7 6.8,-2 3.3,-1.2 6.5,-3.1 6.5,-5 -0.1,-2 -3.3,-3.7 -6.5,-5 z"
           id="path37"
           inkscape:connector-curvature="0"
           style="fill:#ffffff" /><path
           class="st4"
           d="m 458.1,656.2 c -3,-1.7 -6,-3 -6.2,-3 -0.2,0 -3.4,0.2 -6.8,0.9 -3.4,0.7 -6.9,1.8 -7.3,3.7 -0.9,3.9 11.4,9.4 11.8,9.4 0.3,0 13.7,-1.1 14.2,-5.1 0.3,-2 -2.7,-4.1 -5.7,-5.9 z"
           id="path39"
           inkscape:connector-curvature="0"
           style="fill:#ffffff" /><path
           class="st4"
           d="m 410.7,645.7 c -2.7,-2.1 -5.5,-4 -5.6,-4 -0.1,-0.1 -3.4,-0.3 -6.9,-0.1 -3.4,0.1 -7,0.6 -7.7,2.4 -0.7,1.8 1.7,4.6 4.4,7 2.7,2.3 5.6,4.1 5.8,4.1 0.2,0 3.6,0.4 7.1,0.1 3.5,-0.3 7.1,-1.1 7.7,-3 0.5,-1.8 -2.1,-4.4 -4.8,-6.5 z"
           id="path41"
           inkscape:connector-curvature="0"
           style="fill:#ffffff" /><path
           class="st4"
           d="m 362.6,624.2 c -0.9,-0.9 -1.5,-1.5 -1.6,-1.5 -0.1,-0.1 -3.3,-0.9 -6.7,-1.4 -3.4,-0.5 -7,-0.7 -8,0.9 -1,1.6 0.7,4.9 3,7.7 2.2,2.7 4.8,5.1 4.9,5.2 0.1,0 0.9,0.3 2.2,0.6 1.3,0.3 3,0.6 4.8,0.8 3.5,0.4 7.2,0.3 8.1,-1.5 0.8,-1.7 -1.2,-4.8 -3.5,-7.4 -1.1,-1.4 -2.3,-2.6 -3.2,-3.4 z"
           id="path43"
           inkscape:connector-curvature="0"
           style="fill:#ffffff" /><path
           class="st4"
           d="m 322.2,595.1 c -0.1,-0.1 -3,-1.6 -6.1,-2.9 -3.1,-1.3 -6.6,-2.4 -8,-1 -1.4,1.3 -0.5,4.9 1,8.2 1.4,3.3 3.5,6.1 3.6,6.2 0.1,0.1 3.1,1.9 6.5,3 3.4,1.2 7,1.9 8.2,0.3 1.2,-1.5 -0.1,-5 -1.7,-7.9 -1.7,-3 -3.3,-5.8 -3.5,-5.9 z"
           id="path45"
           inkscape:connector-curvature="0"
           style="fill:#ffffff" /><path
           class="st4"
           d="m 280.7,565.3 c 0,0.1 0.6,0.8 1.5,1.8 1,1 2.3,2.2 3.7,3.3 1.4,1.1 2.9,2.1 4.3,2.7 1.4,0.6 2.6,0.7 3.4,0.1 0.8,-0.6 1.1,-1.7 1.2,-3.2 0,-1.4 -0.1,-3.2 -0.3,-4.9 -0.2,-1.7 -0.6,-3.2 -0.9,-4.4 -0.2,-1.2 -0.4,-2 -0.5,-2.1 0,-0.1 -2.2,-2.4 -4.7,-4.7 -2.4,-2.3 -5.3,-4.5 -7.1,-3.8 -1.8,0.7 -2.2,4.4 -2,8 0.4,3.6 1.4,7 1.4,7.2 z"
           id="path47"
           inkscape:connector-curvature="0"
           style="fill:#ffffff" /><path
           class="st4"
           d="m 280.6,516.7 c 0.3,-1.2 0.5,-2 0.5,-2 0,-0.1 -1,-3.1 -2.1,-6.2 -0.6,-1.6 -1.3,-3.1 -2.1,-4.4 -0.8,-1.2 -1.6,-2.1 -2.5,-2.2 -1,-0.1 -2,0.6 -3,1.8 -0.9,1.2 -1.7,2.8 -2.4,4.5 -1.5,3.3 -2,6.9 -2.1,7 0,0.1 0.2,1 0.6,2.3 0.2,0.6 0.5,1.4 0.7,2.2 0.3,0.8 0.7,1.6 1.1,2.4 1.7,3.3 3.8,6.2 5.8,5.9 1.8,-0.3 3.3,-3.7 4.2,-6.9 0.2,-0.8 0.4,-1.6 0.6,-2.3 0.4,-0.8 0.6,-1.5 0.7,-2.1 z"
           id="path49"
           inkscape:connector-curvature="0"
           style="fill:#ffffff" /><path
           class="st4"
           d="m 282.4,458.9 c -2.7,2.4 -5,5.2 -5,5.3 -0.1,0.1 -0.7,3.7 -0.9,7.2 0.1,3.7 0.7,7.3 2.5,7.9 1.8,0.6 4.6,-1.8 6.8,-4.2 2.4,-2.4 4.4,-4.8 4.4,-5 0,-0.2 0.6,-3.2 1,-6.6 0.2,-3.4 0.5,-6.9 -1.3,-7.9 -1.5,-1 -4.9,0.8 -7.5,3.3 z"
           id="path51"
           inkscape:connector-curvature="0"
           style="fill:#ffffff" /><path
           class="st4"
           d="m 303.5,436.9 c 1.5,1.3 4.9,0 7.9,-1.4 3.1,-1.4 5.9,-3 6,-3.2 0.1,-0.1 0.5,-0.8 1.1,-1.9 0.6,-1.1 1.4,-2.5 2.2,-4 0.7,-1.5 1.4,-3.2 1.7,-4.6 0.4,-1.4 0.4,-2.6 -0.3,-3.4 -0.6,-0.7 -1.9,-0.9 -3.4,-0.8 -1.5,0.2 -3.2,0.7 -4.8,1.4 -1.7,0.7 -3.3,1.4 -4.5,2 -1.2,0.7 -1.9,1.2 -2,1.2 -0.1,0.1 -2,3.1 -3.3,6.4 -1.3,3.5 -2.1,7.1 -0.6,8.3 z"
           id="path53"
           inkscape:connector-curvature="0"
           style="fill:#ffffff" /><path
           class="st4"
           d="m 348.5,405.2 c 3.4,-0.6 6.5,-1.6 6.6,-1.6 0.1,-0.1 2.5,-2.3 4.6,-5 2.1,-2.7 4.2,-5.6 3.3,-7.4 -0.9,-1.7 -4.6,-1.9 -8.1,-1.4 -3.5,0.5 -6.9,1.5 -7,1.6 -0.3,0.1 -9.8,9.8 -7.5,13.1 1.1,1.6 4.7,1.3 8.1,0.7 z"
           id="path55"
           inkscape:connector-curvature="0"
           style="fill:#ffffff" /><path
           class="st4"
           d="m 391.8,383.8 c 3.4,0.1 6.7,-0.3 6.8,-0.4 0.1,-0.1 2.9,-1.8 5.5,-4.1 2.6,-2.3 5.1,-4.9 4.6,-6.7 -1.1,-3.9 -14.5,-2.7 -14.9,-2.5 -0.3,0.1 -11.5,7.7 -9.9,11.4 0.8,1.8 4.4,2.1 7.9,2.3 z"
           id="path57"
           inkscape:connector-curvature="0"
           style="fill:#ffffff" /><path
           class="st4"
           d="m 438.4,370.1 c 3.4,0.6 6.7,0.8 6.8,0.8 0.1,0 3.2,-1.4 6.1,-3.2 2.9,-1.7 5.8,-4 5.6,-5.9 -0.3,-1.9 -3.7,-3.2 -7.2,-4 -3.5,-0.7 -6.9,-0.8 -7.1,-0.8 -0.1,0.1 -3.3,1.4 -6.3,3.3 -3,2 -5.7,4.4 -5.3,6.3 0.5,1.9 4,3 7.4,3.5 z"
           id="path59"
           inkscape:connector-curvature="0"
           style="fill:#ffffff" /><path
           class="st4"
           d="m 486.6,363.7 c 3.3,1.1 6.5,1.8 6.7,1.7 0.1,0 3.3,-1 6.5,-2.3 3.2,-1.3 6.3,-3.2 6.3,-5.1 0,-3.9 -13.1,-6.9 -13.4,-6.7 -0.2,0 -3.5,1 -6.7,2.4 -3.2,1.5 -6.3,3.6 -6.1,5.5 0.1,1.9 3.4,3.4 6.7,4.5 z"
           id="path61"
           inkscape:connector-curvature="0"
           style="fill:#ffffff" /><path
           class="st4"
           d="m 535.3,364 c 3.1,1.5 6.2,2.6 6.4,2.6 0.3,-0.1 13.1,-1.7 13.7,-5.6 0.6,-3.8 -12.1,-8.6 -12.4,-8.5 -0.3,0 -13.6,2.1 -13.8,6.1 -0.1,2 3,3.8 6.1,5.4 z"
           id="path63"
           inkscape:connector-curvature="0"
           style="fill:#ffffff" /><path
           class="st4"
           d="m 583.5,371.1 c 2.8,1.9 5.8,3.4 5.9,3.5 0.1,0 3.4,0.1 6.9,-0.4 3.4,-0.5 7,-1.2 7.5,-3.1 1.2,-3.9 -10.7,-10.2 -11,-10.3 -0.3,-0.2 -13.8,0.1 -14.5,4 -0.4,1.9 2.3,4.3 5.2,6.3 z"
           id="path65"
           inkscape:connector-curvature="0"
           style="fill:#ffffff" /><path
           class="st4"
           d="m 629.9,385.3 c 2.5,2.4 5.1,4.4 5.2,4.4 0.1,0 3.4,0.5 6.8,0.8 3.4,0.2 7.1,-0.1 7.9,-1.8 1.8,-3.5 -8.8,-12 -9.1,-12 -0.1,-0.1 -3.6,-0.6 -7.1,-0.7 -3.5,-0.1 -7.2,0.5 -7.9,2.3 -0.7,1.9 1.7,4.6 4.2,7 z"
           id="path67"
           inkscape:connector-curvature="0"
           style="fill:#ffffff" /><path
           class="st4"
           d="m 676.9,412.9 c 0.1,0 0.9,0.3 2.1,0.7 1.2,0.4 2.7,1 4.4,1.4 1.6,0.4 3.4,0.8 4.8,0.8 1.5,0.1 2.6,-0.1 3.3,-0.9 0.6,-0.8 0.6,-2 0.2,-3.4 -0.5,-1.4 -1.3,-3 -2.2,-4.5 -0.9,-1.5 -2,-2.9 -2.8,-4 -0.8,-1 -1.5,-1.7 -1.5,-1.7 -0.1,-0.1 -3.4,-1.4 -6.8,-2.2 -3.5,-0.7 -7.2,-0.9 -8.2,0.7 -1,1.7 0.8,4.8 2.7,7.6 1.8,3 3.9,5.4 4,5.5 z"
           id="path69"
           inkscape:connector-curvature="0"
           style="fill:#ffffff" /><path
           class="st4"
           d="m 710.7,442.9 c 0.5,1.2 0.8,1.9 0.8,2 0.1,0.1 2.7,2 5.5,3.8 2.8,1.8 6.1,3.4 7.7,2.4 1.6,-1.1 1.3,-4.7 0.4,-8.2 -0.9,-3.5 -2.5,-6.6 -2.6,-6.8 0,-0.1 -0.8,-0.6 -1.8,-1.4 -1.1,-0.8 -2.6,-1.7 -4.2,-2.5 -1.6,-0.8 -3.2,-1.6 -4.7,-1.9 -1.5,-0.3 -2.7,-0.2 -3.4,0.4 -0.7,0.7 -0.8,1.9 -0.6,3.3 0.2,1.5 0.6,3.2 1.2,4.8 0.6,1.5 1.3,2.9 1.7,4.1 z"
           id="path71"
           inkscape:connector-curvature="0"
           style="fill:#ffffff" /><path
           class="st4"
           d="m 736.6,491.2 c 1.8,2.7 4.2,5.5 6.1,5.3 2,-0.3 3.1,-3.7 3.7,-7.4 0.3,-1.8 0.4,-3.6 0.4,-4.9 0,-1.4 0,-2.3 -0.1,-2.4 -0.1,-0.1 -1.7,-3.3 -4.1,-6.1 -1.2,-1.4 -2.4,-2.7 -3.6,-3.5 -1.3,-0.8 -2.5,-1.2 -3.4,-0.8 -0.9,0.4 -1.4,1.5 -1.8,2.8 -0.4,1.4 -0.6,3.1 -0.7,4.8 -0.1,3.3 -0.2,6.5 -0.1,6.6 0,0.1 0.4,0.8 1.1,1.8 0.7,1.1 1.6,2.4 2.5,3.8 z"
           id="path73"
           inkscape:connector-curvature="0"
           style="fill:#ffffff" /></g></g></switch></svg>