<?xml version="1.0" encoding="utf-8"?>
<!-- Generator: Adobe Illustrator 21.1.0, SVG Export Plug-In . SVG Version: 6.00 Build 0)  -->
<svg version="1.1"
	 id="Layer_1" xmlns:cc="http://creativecommons.org/ns#" xmlns:dc="http://purl.org/dc/elements/1.1/" xmlns:inkscape="http://www.inkscape.org/namespaces/inkscape" xmlns:rdf="http://www.w3.org/1999/02/22-rdf-syntax-ns#" xmlns:sodipodi="http://sodipodi.sourceforge.net/DTD/sodipodi-0.dtd" xmlns:svg="http://www.w3.org/2000/svg"
	 xmlns="http://www.w3.org/2000/svg" xmlns:xlink="http://www.w3.org/1999/xlink" x="0px" y="0px" viewBox="113.56609344482422 148.1897430419922 383.7438049316406 376.24285888671875"
	 style="enable-background:new 0 0 612 792;" xml:space="preserve">
<sodipodi:namedview  bordercolor="#666666" borderopacity="1" gridtolerance="10" guidetolerance="10" id="namedview25" inkscape:current-layer="Layer_1" inkscape:cx="23.305085" inkscape:cy="500" inkscape:pageopacity="0" inkscape:pageshadow="2" inkscape:window-height="480" inkscape:window-maximized="0" inkscape:window-width="671" inkscape:window-x="0" inkscape:window-y="34" inkscape:zoom="0.236" objecttolerance="10" pagecolor="#ffffff" showgrid="false">
	</sodipodi:namedview>
<g id="g7">
	<g id="g9">
		<g id="g11">
			
				<ellipse id="ellipse15" transform="matrix(0.9769 -0.2138 0.2138 0.9769 -62.8447 43.9228)" cx="171.6" cy="312.5" rx="44.9" ry="66.3"/>
			
				<ellipse id="ellipse17" transform="matrix(0.991 -0.1335 0.1335 0.991 -27.128 35.1277)" cx="248.4" cy="219.9" rx="44.9" ry="66.3"/>
			
				<ellipse id="ellipse19" transform="matrix(3.987009e-02 -0.9992 0.9992 3.987009e-02 120.2466 564.8794)" cx="354.1" cy="219.9" rx="66.3" ry="44.9"/>
			
				<ellipse id="ellipse21" transform="matrix(0.1914 -0.9815 0.9815 0.1914 48.6178 685.8899)" cx="440.6" cy="313.4" rx="66.3" ry="44.9"/>
		</g>
		<path d="M449.4,445.1c-5.8-12.1-13.3-23.7-19.9-34.3v0c-18.3-29.4-38.1-58-58.8-85.9c-15.4-20.7-36.3-48.2-65-47.3
			c-31.3,0.9-51.4,29.4-68.2,52.1c-28.3,38.1-57,78-77.8,121.4c-15.7,32.7,1.8,70.5,39.3,73c35.1,2.4,69-9,104.3-8.3
			c30.2,0.6,60.3,4.6,90.4,7.2c23,2,51.6,0.6,61.1-25.1C461.6,479.6,457.3,461.8,449.4,445.1z M306,489.3
			c-44.7,0-80.9-36.2-80.9-80.9s36.2-80.9,80.9-80.9s80.9,36.2,80.9,80.9S350.7,489.3,306,489.3z"/>
	</g>
</g>
</svg>
