<?xml version="1.0" encoding="UTF-8" standalone="no"?>
<svg
   xmlns:dc="http://purl.org/dc/elements/1.1/"
   xmlns:cc="http://creativecommons.org/ns#"
   xmlns:rdf="http://www.w3.org/1999/02/22-rdf-syntax-ns#"
   xmlns:svg="http://www.w3.org/2000/svg"
   xmlns="http://www.w3.org/2000/svg"
   xmlns:sodipodi="http://sodipodi.sourceforge.net/DTD/sodipodi-0.dtd"
   xmlns:inkscape="http://www.inkscape.org/namespaces/inkscape"
   version="1.1"
   id="Layer_1"
   x="0px"
   y="0px"
   viewBox="120.98363494873047 250.65078735351562 756.0645751953125 500.72930908203125"
   width="100%"
   height="100%"
   style="enable-background:new 0 0 1000 1000;"
   xml:space="preserve"
   ><switch
     id="switch3"
     transform="translate(18.85,-0.15101235)"><g
       id="g5"><g
         id="g7"><path
           d="m 121.4,670.4 c 4.6,0.3 9,-1.3 13.6,-1.2 4,0.1 7.9,0.7 11.8,1 3,0.3 6.7,0.1 8,-3.6 0.9,-2.6 0.3,-5.1 -0.7,-7.5 -0.7,-1.7 -1.7,-3.4 -2.6,-4.9 -2.4,-4.2 -5,-8.2 -7.7,-12.2 -2,-2.9 -4.7,-6.8 -8.5,-6.7 -4.1,0.1 -6.7,4.2 -8.9,7.4 -3.7,5.4 -7.4,11.1 -10.2,17.2 -2,4.8 0.3,10.1 5.2,10.5 z"
           id="path9"
           inkscape:connector-curvature="0" /><ellipse
           transform="matrix(0.9845,-0.1752,0.1752,0.9845,-110.1198,29.6033)"
           cx="112.6"
           cy="638.59998"
           rx="8.3000002"
           ry="13.2"
           id="ellipse11" /><path
           d="m 127.7,633.2 c 4.5,-0.7 7.4,-7.1 6.5,-14.3 -0.9,-7.3 -5.3,-12.6 -9.8,-11.9 -4.5,0.7 -7.4,7.1 -6.5,14.3 0.9,7.3 5.3,12.6 9.8,11.9 z"
           id="path13"
           inkscape:connector-curvature="0" /><path
           d="m 146,606.9 c -4.6,-0.2 -8.5,5.6 -8.7,12.9 -0.3,7.3 3.2,13.4 7.8,13.6 4.6,0.2 8.5,-5.6 8.7,-12.9 0.2,-7.3 -3.3,-13.4 -7.8,-13.6 z"
           id="path15"
           inkscape:connector-curvature="0" /><path
           d="m 167.4,640.5 c 1.3,-7.2 -1.3,-13.8 -5.8,-14.7 -4.5,-0.9 -9.1,4.1 -10.4,11.3 -1.3,7.2 1.3,13.8 5.8,14.7 4.4,0.9 9.1,-4.1 10.4,-11.3 z"
           id="path17"
           inkscape:connector-curvature="0" /><path
           d="m 121.4,581.8 c 4.6,0.3 9,-1.3 13.6,-1.2 4,0.1 7.9,0.7 11.8,1 3,0.3 6.7,0.1 8,-3.6 0.9,-2.6 0.3,-5.1 -0.7,-7.5 -0.7,-1.7 -1.7,-3.4 -2.6,-4.9 -2.4,-4.2 -5,-8.2 -7.7,-12.2 -2,-2.9 -4.7,-6.8 -8.5,-6.7 -4.1,0.1 -6.7,4.2 -8.9,7.4 -3.7,5.4 -7.4,11.1 -10.2,17.2 -2,4.7 0.3,10.1 5.2,10.5 z"
           id="path19"
           inkscape:connector-curvature="0" /><path
           d="m 104.6,551.9 c 1.4,7.1 6.2,12.1 10.7,11 4.5,-1.1 6.9,-7.7 5.5,-14.9 -1.4,-7.1 -6.2,-12.1 -10.7,-11 -4.5,1.1 -7,7.7 -5.5,14.9 z"
           id="path21"
           inkscape:connector-curvature="0" /><path
           d="m 124.5,518.3 c -4.5,0.7 -7.4,7.1 -6.5,14.3 0.9,7.3 5.3,12.6 9.8,11.9 4.5,-0.7 7.4,-7.1 6.5,-14.3 -0.9,-7.2 -5.3,-12.5 -9.8,-11.9 z"
           id="path23"
           inkscape:connector-curvature="0" /><path
           d="m 146,518.2 c -4.6,-0.2 -8.5,5.6 -8.7,12.9 -0.3,7.3 3.2,13.4 7.8,13.6 4.6,0.2 8.5,-5.6 8.7,-12.9 0.2,-7.3 -3.3,-13.4 -7.8,-13.6 z"
           id="path25"
           inkscape:connector-curvature="0" /><path
           d="m 161.6,537.1 c -4.5,-0.9 -9.1,4.1 -10.4,11.3 -1.3,7.2 1.3,13.8 5.8,14.7 4.5,0.9 9.1,-4.1 10.4,-11.3 1.2,-7.1 -1.3,-13.7 -5.8,-14.7 z"
           id="path27"
           inkscape:connector-curvature="0" /><path
           d="m 154.1,481.9 c -0.7,-1.7 -1.7,-3.4 -2.6,-4.9 -2.4,-4.2 -5,-8.2 -7.7,-12.2 -2,-2.9 -4.7,-6.8 -8.5,-6.7 -4.1,0.1 -6.7,4.2 -8.9,7.4 -3.7,5.4 -7.4,11.1 -10.2,17.2 -2.1,4.6 0.2,10 5.1,10.4 4.6,0.3 9,-1.3 13.6,-1.2 4,0.1 7.9,0.7 11.8,1 3,0.3 6.7,0.1 8,-3.6 1,-2.5 0.4,-5 -0.6,-7.4 z"
           id="path29"
           inkscape:connector-curvature="0" /><path
           d="m 104.6,463.2 c 1.4,7.1 6.2,12.1 10.7,11 4.5,-1.1 6.9,-7.7 5.5,-14.9 -1.4,-7.1 -6.2,-12.1 -10.7,-11 -4.5,1.1 -7,7.8 -5.5,14.9 z"
           id="path31"
           inkscape:connector-curvature="0" /><path
           d="m 134.3,441.6 c -0.9,-7.3 -5.3,-12.6 -9.8,-11.9 -4.5,0.7 -7.4,7.1 -6.5,14.3 0.9,7.3 5.3,12.6 9.8,11.9 4.4,-0.6 7.4,-7 6.5,-14.3 z"
           id="path33"
           inkscape:connector-curvature="0" /><path
           d="m 146,429.6 c -4.6,-0.2 -8.5,5.6 -8.7,12.9 -0.3,7.3 3.2,13.4 7.8,13.6 4.6,0.2 8.5,-5.6 8.7,-12.9 0.2,-7.4 -3.3,-13.4 -7.8,-13.6 z"
           id="path35"
           inkscape:connector-curvature="0" /><path
           d="m 161.6,448.5 c -4.5,-0.9 -9.1,4.1 -10.4,11.3 -1.3,7.2 1.3,13.8 5.8,14.7 4.5,0.9 9.1,-4.1 10.4,-11.3 1.2,-7.2 -1.3,-13.8 -5.8,-14.7 z"
           id="path37"
           inkscape:connector-curvature="0" /><path
           d="m 126.4,376.8 c -3.7,5.4 -7.4,11.1 -10.2,17.2 -2.1,4.6 0.2,10 5.1,10.4 4.6,0.3 9,-1.3 13.6,-1.2 4,0.1 7.9,0.7 11.8,1 3,0.3 6.7,0.1 8,-3.6 0.9,-2.6 0.3,-5.1 -0.7,-7.5 -0.7,-1.7 -1.7,-3.4 -2.6,-4.9 -2.4,-4.2 -5,-8.2 -7.7,-12.2 -2,-2.9 -4.7,-6.8 -8.5,-6.7 -4,0.3 -6.6,4.3 -8.8,7.5 z"
           id="path39"
           inkscape:connector-curvature="0" /><path
           d="m 110,359.7 c -4.5,1.1 -6.9,7.7 -5.5,14.9 1.4,7.1 6.2,12.1 10.7,11 4.5,-1.1 6.9,-7.7 5.5,-14.9 -1.4,-7.1 -6.2,-12.1 -10.7,-11 z"
           id="path41"
           inkscape:connector-curvature="0" /><path
           d="m 124.5,341 c -4.5,0.7 -7.4,7.1 -6.5,14.3 0.9,7.3 5.3,12.6 9.8,11.9 4.5,-0.7 7.4,-7.1 6.5,-14.3 -0.9,-7.2 -5.3,-12.6 -9.8,-11.9 z"
           id="path43"
           inkscape:connector-curvature="0" /><path
           d="m 145,367.4 c 4.6,0.2 8.5,-5.6 8.7,-12.9 0.3,-7.3 -3.2,-13.4 -7.8,-13.6 -4.6,-0.2 -8.5,5.6 -8.7,12.9 -0.2,7.3 3.2,13.4 7.8,13.6 z"
           id="path45"
           inkscape:connector-curvature="0" /><path
           d="m 161.6,359.8 c -4.5,-0.9 -9.1,4.1 -10.4,11.3 -1.3,7.2 1.3,13.8 5.8,14.7 4.5,0.9 9.1,-4.1 10.4,-11.3 1.2,-7.1 -1.3,-13.7 -5.8,-14.7 z"
           id="path47"
           inkscape:connector-curvature="0" /><path
           d="m 126.4,294.5 c -3.7,5.4 -7.4,11.1 -10.2,17.2 -2.1,4.6 0.2,10 5.1,10.4 4.6,0.3 9,-1.3 13.6,-1.2 4,0.1 7.9,0.7 11.8,1 3,0.3 6.7,0.1 8,-3.6 0.9,-2.6 0.3,-5.1 -0.7,-7.5 -0.7,-1.7 -1.7,-3.4 -2.6,-4.9 -2.4,-4.2 -5,-8.2 -7.7,-12.2 -2,-2.9 -4.7,-6.8 -8.5,-6.7 -4,0.2 -6.6,4.2 -8.8,7.5 z"
           id="path49"
           inkscape:connector-curvature="0" /><path
           d="m 110,277.3 c -4.5,1.1 -6.9,7.7 -5.5,14.9 1.4,7.1 6.2,12.1 10.7,11 4.5,-1.1 6.9,-7.7 5.5,-14.9 -1.4,-7.1 -6.2,-12 -10.7,-11 z"
           id="path51"
           inkscape:connector-curvature="0" /><path
           d="m 124.5,258.6 c -4.5,0.7 -7.4,7.1 -6.5,14.3 0.9,7.3 5.3,12.6 9.8,11.9 4.5,-0.7 7.4,-7.1 6.5,-14.3 -0.9,-7.2 -5.3,-12.5 -9.8,-11.9 z"
           id="path53"
           inkscape:connector-curvature="0" /><path
           d="m 145,285 c 4.6,0.2 8.5,-5.6 8.7,-12.9 0.3,-7.3 -3.2,-13.4 -7.8,-13.6 -4.6,-0.2 -8.5,5.6 -8.7,12.9 -0.2,7.3 3.2,13.4 7.8,13.6 z"
           id="path55"
           inkscape:connector-curvature="0" /><path
           d="m 161.6,277.5 c -4.5,-0.9 -9.1,4.1 -10.4,11.3 -1.3,7.2 1.3,13.8 5.8,14.7 4.5,0.9 9.1,-4.1 10.4,-11.3 1.2,-7.2 -1.3,-13.8 -5.8,-14.7 z"
           id="path57"
           inkscape:connector-curvature="0" /><path
           d="m 198.9,298.2 c 4.1,-2.4 8.1,-5 12,-7.7 2.9,-2 6.7,-4.7 6.6,-8.5 -0.1,-4.1 -4.1,-6.7 -7.3,-8.9 -5.3,-3.7 -10.9,-7.4 -17,-10.2 -4.6,-2.1 -9.8,0.2 -10.2,5.1 -0.3,4.6 1.3,9 1.2,13.6 -0.1,4 -0.6,7.9 -1,11.8 -0.3,3 -0.1,6.7 3.5,8 2.5,0.9 5,0.3 7.4,-0.7 1.7,-0.6 3.3,-1.6 4.8,-2.5 z"
           id="path59"
           inkscape:connector-curvature="0" /><path
           d="m 216.2,267.4 c 7,-1.4 11.9,-6.2 10.8,-10.7 -1,-4.5 -7.6,-6.9 -14.6,-5.5 -7,1.4 -11.9,6.2 -10.8,10.7 1.1,4.5 7.6,7 14.6,5.5 z"
           id="path61"
           inkscape:connector-curvature="0" /><path
           d="m 219.6,274.4 c 0.7,4.5 7,7.4 14.1,6.5 7.1,-0.9 12.4,-5.3 11.7,-9.8 -0.7,-4.5 -7,-7.4 -14.1,-6.5 -7.1,0.9 -12.3,5.3 -11.7,9.8 z"
           id="path63"
           inkscape:connector-curvature="0" /><path
           d="m 245.5,292.7 c 0.2,-4.6 -5.5,-8.5 -12.7,-8.7 -7.2,-0.3 -13.2,3.2 -13.4,7.8 -0.2,4.6 5.5,8.5 12.7,8.7 7.3,0.2 13.2,-3.3 13.4,-7.8 z"
           id="path65"
           inkscape:connector-curvature="0" /><path
           d="m 226.9,308.3 c 0.9,-4.5 -4,-9.1 -11.1,-10.4 -7.1,-1.3 -13.5,1.3 -14.5,5.8 -0.9,4.5 4,9.1 11.1,10.4 7.1,1.3 13.6,-1.3 14.5,-5.8 z"
           id="path67"
           inkscape:connector-curvature="0" /><path
           d="m 286.1,298.2 c 4.1,-2.4 8.1,-5 12,-7.7 2.9,-2 6.7,-4.7 6.6,-8.5 -0.1,-4.1 -4.1,-6.7 -7.3,-8.9 -5.3,-3.7 -10.9,-7.4 -17,-10.2 -4.6,-2.1 -9.8,0.2 -10.2,5.1 -0.3,4.6 1.3,9 1.2,13.6 -0.1,4 -0.6,7.9 -1,11.8 -0.3,3 -0.1,6.7 3.5,8 2.5,0.9 5,0.3 7.4,-0.7 1.6,-0.6 3.3,-1.6 4.8,-2.5 z"
           id="path69"
           inkscape:connector-curvature="0" /><path
           d="m 303.4,267.4 c 7,-1.4 11.9,-6.2 10.8,-10.7 -1.1,-4.5 -7.6,-6.9 -14.6,-5.5 -7,1.4 -11.9,6.2 -10.8,10.7 1,4.5 7.5,7 14.6,5.5 z"
           id="path71"
           inkscape:connector-curvature="0" /><path
           d="m 306.8,274.4 c 0.7,4.5 7,7.4 14.1,6.5 7.1,-0.9 12.4,-5.3 11.7,-9.8 -0.7,-4.5 -7,-7.4 -14.1,-6.5 -7.1,0.9 -12.4,5.3 -11.7,9.8 z"
           id="path73"
           inkscape:connector-curvature="0" /><path
           d="m 332.7,292.7 c 0.2,-4.6 -5.5,-8.5 -12.7,-8.7 -7.2,-0.3 -13.2,3.2 -13.4,7.8 -0.2,4.6 5.5,8.5 12.7,8.7 7.2,0.2 13.2,-3.3 13.4,-7.8 z"
           id="path75"
           inkscape:connector-curvature="0" /><path
           d="m 314.1,308.3 c 0.9,-4.5 -4,-9.1 -11.1,-10.4 -7.1,-1.3 -13.5,1.3 -14.5,5.8 -0.9,4.5 4,9.1 11.1,10.4 7.1,1.3 13.5,-1.3 14.5,-5.8 z"
           id="path77"
           inkscape:connector-curvature="0" /><path
           d="m 373.2,298.2 c 4.1,-2.4 8.1,-5 12,-7.7 2.9,-2 6.7,-4.7 6.6,-8.5 -0.1,-4.1 -4.1,-6.7 -7.3,-8.9 -5.3,-3.7 -10.9,-7.4 -17,-10.2 -4.6,-2.1 -9.8,0.2 -10.2,5.1 -0.3,4.6 1.3,9 1.2,13.6 -0.1,4 -0.6,7.9 -1,11.8 -0.3,3 -0.1,6.7 3.5,8 2.5,0.9 5,0.3 7.4,-0.7 1.7,-0.6 3.3,-1.6 4.8,-2.5 z"
           id="path79"
           inkscape:connector-curvature="0" /><path
           d="m 390.5,267.4 c 7,-1.4 11.9,-6.2 10.8,-10.7 -1,-4.5 -7.6,-6.9 -14.6,-5.5 -7,1.4 -11.9,6.2 -10.8,10.7 1.1,4.5 7.6,7 14.6,5.5 z"
           id="path81"
           inkscape:connector-curvature="0" /><path
           d="m 393.9,274.4 c 0.7,4.5 7,7.4 14.1,6.5 7.1,-0.9 12.4,-5.3 11.7,-9.8 -0.7,-4.5 -7,-7.4 -14.1,-6.5 -7.1,0.9 -12.3,5.3 -11.7,9.8 z"
           id="path83"
           inkscape:connector-curvature="0" /><path
           d="m 419.8,292.7 c 0.2,-4.6 -5.5,-8.5 -12.7,-8.7 -7.2,-0.3 -13.2,3.2 -13.4,7.8 -0.2,4.6 5.5,8.5 12.7,8.7 7.2,0.2 13.2,-3.3 13.4,-7.8 z"
           id="path85"
           inkscape:connector-curvature="0" /><path
           d="m 401.2,308.3 c 0.9,-4.5 -4,-9.1 -11.1,-10.4 -7.1,-1.3 -13.5,1.3 -14.5,5.8 -0.9,4.5 4,9.1 11.1,10.4 7.1,1.3 13.6,-1.3 14.5,-5.8 z"
           id="path87"
           inkscape:connector-curvature="0" /><path
           d="m 460.3,298.2 c 4.1,-2.4 8.1,-5 12,-7.7 2.9,-2 6.7,-4.7 6.6,-8.5 -0.1,-4.1 -4.1,-6.7 -7.3,-8.9 -5.3,-3.7 -10.9,-7.4 -17,-10.2 -4.6,-2.1 -9.8,0.2 -10.2,5.1 -0.3,4.6 1.3,9 1.2,13.6 -0.1,4 -0.6,7.9 -1,11.8 -0.3,3 -0.1,6.7 3.5,8 2.5,0.9 5,0.3 7.4,-0.7 1.7,-0.6 3.3,-1.6 4.8,-2.5 z"
           id="path89"
           inkscape:connector-curvature="0" /><path
           d="m 477.7,267.4 c 7,-1.4 11.9,-6.2 10.8,-10.7 -1,-4.5 -7.6,-6.9 -14.6,-5.5 -7,1.4 -11.9,6.2 -10.8,10.7 1.1,4.5 7.5,7 14.6,5.5 z"
           id="path91"
           inkscape:connector-curvature="0" /><path
           d="m 481.1,274.4 c 0.7,4.5 7,7.4 14.1,6.5 7.1,-0.9 12.4,-5.3 11.7,-9.8 -0.7,-4.5 -7,-7.4 -14.1,-6.5 -7.1,0.9 -12.4,5.3 -11.7,9.8 z"
           id="path93"
           inkscape:connector-curvature="0" /><path
           d="m 507,292.7 c 0.2,-4.6 -5.5,-8.5 -12.7,-8.7 -7.2,-0.3 -13.2,3.2 -13.4,7.8 -0.2,4.6 5.5,8.5 12.7,8.7 7.2,0.2 13.2,-3.3 13.4,-7.8 z"
           id="path95"
           inkscape:connector-curvature="0" /><path
           d="m 488.4,308.3 c 0.9,-4.5 -4,-9.1 -11.1,-10.4 -7.1,-1.3 -13.5,1.3 -14.5,5.8 -0.9,4.5 4,9.1 11.1,10.4 7.1,1.3 13.5,-1.3 14.5,-5.8 z"
           id="path97"
           inkscape:connector-curvature="0" /><path
           d="m 547.5,298.2 c 4.1,-2.4 8.1,-5 12,-7.7 2.9,-2 6.7,-4.7 6.6,-8.5 -0.1,-4.1 -4.1,-6.7 -7.3,-8.9 -5.3,-3.7 -10.9,-7.4 -17,-10.2 -4.6,-2.1 -9.8,0.2 -10.2,5.1 -0.3,4.6 1.3,9 1.2,13.6 -0.1,4 -0.6,7.9 -1,11.8 -0.3,3 -0.1,6.7 3.5,8 2.5,0.9 5,0.3 7.4,-0.7 1.7,-0.6 3.3,-1.6 4.8,-2.5 z"
           id="path99"
           inkscape:connector-curvature="0" /><path
           d="m 564.8,267.4 c 7,-1.4 11.9,-6.2 10.8,-10.7 -1.1,-4.5 -7.6,-6.9 -14.6,-5.5 -7,1.4 -11.9,6.2 -10.8,10.7 1,4.5 7.6,7 14.6,5.5 z"
           id="path101"
           inkscape:connector-curvature="0" /><path
           d="m 568.2,274.4 c 0.7,4.5 7,7.4 14.1,6.5 7.1,-0.9 12.4,-5.3 11.7,-9.8 -0.7,-4.5 -7,-7.4 -14.1,-6.5 -7.1,0.9 -12.4,5.3 -11.7,9.8 z"
           id="path103"
           inkscape:connector-curvature="0" /><path
           d="m 594.1,292.7 c 0.2,-4.6 -5.5,-8.5 -12.7,-8.7 -7.2,-0.3 -13.2,3.2 -13.4,7.8 -0.2,4.6 5.5,8.5 12.7,8.7 7.2,0.2 13.2,-3.3 13.4,-7.8 z"
           id="path105"
           inkscape:connector-curvature="0" /><path
           d="m 575.5,308.3 c 0.9,-4.5 -4,-9.1 -11.1,-10.4 -7.1,-1.3 -13.5,1.3 -14.5,5.8 -0.9,4.5 4,9.1 11.1,10.4 7.1,1.3 13.6,-1.3 14.5,-5.8 z"
           id="path107"
           inkscape:connector-curvature="0" /><path
           d="m 634.6,298.2 c 4.1,-2.4 8.1,-5 12,-7.7 2.9,-2 6.7,-4.7 6.6,-8.5 -0.1,-4.1 -4.1,-6.7 -7.3,-8.9 -5.3,-3.7 -10.9,-7.4 -17,-10.2 -4.6,-2.1 -9.8,0.2 -10.2,5.1 -0.3,4.6 1.3,9 1.2,13.6 -0.1,4 -0.6,7.9 -1,11.8 -0.3,3 -0.1,6.7 3.5,8 2.5,0.9 5,0.3 7.4,-0.7 1.7,-0.6 3.3,-1.6 4.8,-2.5 z"
           id="path109"
           inkscape:connector-curvature="0" /><path
           d="m 651.9,267.4 c 7,-1.4 11.9,-6.2 10.8,-10.7 -1.1,-4.5 -7.6,-6.9 -14.6,-5.5 -7,1.4 -11.9,6.2 -10.8,10.7 1.1,4.5 7.6,7 14.6,5.5 z"
           id="path111"
           inkscape:connector-curvature="0" /><path
           d="m 655.3,274.4 c 0.7,4.5 7,7.4 14.1,6.5 7.1,-0.9 12.4,-5.3 11.7,-9.8 -0.7,-4.5 -7,-7.4 -14.1,-6.5 -7.1,0.9 -12.3,5.3 -11.7,9.8 z"
           id="path113"
           inkscape:connector-curvature="0" /><path
           d="m 681.3,292.7 c 0.2,-4.6 -5.5,-8.5 -12.7,-8.7 -7.2,-0.3 -13.2,3.2 -13.4,7.8 -0.2,4.6 5.5,8.5 12.7,8.7 7.2,0.2 13.2,-3.3 13.4,-7.8 z"
           id="path115"
           inkscape:connector-curvature="0" /><path
           d="m 662.7,308.3 c 0.9,-4.5 -4,-9.1 -11.1,-10.4 -7.1,-1.3 -13.5,1.3 -14.5,5.8 -0.9,4.5 4,9.1 11.1,10.4 7.1,1.3 13.5,-1.3 14.5,-5.8 z"
           id="path117"
           inkscape:connector-curvature="0" /><path
           d="m 721.8,298.2 c 4.1,-2.4 8.1,-5 12,-7.7 2.9,-2 6.7,-4.7 6.6,-8.5 -0.1,-4.1 -4.1,-6.7 -7.3,-8.9 -5.3,-3.7 -10.9,-7.4 -17,-10.2 -4.6,-2.1 -9.8,0.2 -10.2,5.1 -0.3,4.6 1.3,9 1.2,13.6 -0.1,4 -0.6,7.9 -1,11.8 -0.3,3 -0.1,6.7 3.5,8 2.5,0.9 5,0.3 7.4,-0.7 1.7,-0.6 3.3,-1.6 4.8,-2.5 z"
           id="path119"
           inkscape:connector-curvature="0" /><path
           d="m 739.1,267.4 c 7,-1.4 11.9,-6.2 10.8,-10.7 -1.1,-4.5 -7.6,-6.9 -14.6,-5.5 -7,1.4 -11.9,6.2 -10.8,10.7 1.1,4.5 7.6,7 14.6,5.5 z"
           id="path121"
           inkscape:connector-curvature="0" /><path
           d="m 742.5,274.4 c 0.7,4.5 7,7.4 14.1,6.5 7.1,-0.9 12.4,-5.3 11.7,-9.8 -0.7,-4.5 -7,-7.4 -14.1,-6.5 -7.1,0.9 -12.4,5.3 -11.7,9.8 z"
           id="path123"
           inkscape:connector-curvature="0" /><path
           d="m 768.4,292.7 c 0.2,-4.6 -5.5,-8.5 -12.7,-8.7 -7.2,-0.3 -13.2,3.2 -13.4,7.8 -0.2,4.6 5.5,8.5 12.7,8.7 7.2,0.2 13.2,-3.3 13.4,-7.8 z"
           id="path125"
           inkscape:connector-curvature="0" /><path
           d="m 749.8,308.3 c 0.9,-4.5 -4,-9.1 -11.1,-10.4 -7.1,-1.3 -13.5,1.3 -14.5,5.8 -0.9,4.5 4,9.1 11.1,10.4 7.1,1.3 13.6,-1.3 14.5,-5.8 z"
           id="path127"
           inkscape:connector-curvature="0" /><path
           d="m 804.5,298.2 c 4.1,-2.4 8.1,-5 12,-7.7 2.9,-2 6.7,-4.7 6.6,-8.5 -0.1,-4.1 -4.1,-6.7 -7.3,-8.9 -5.3,-3.7 -10.9,-7.4 -17,-10.2 -4.6,-2.1 -9.8,0.2 -10.2,5.1 -0.3,4.6 1.3,9 1.2,13.6 -0.1,4 -0.6,7.9 -1,11.8 -0.3,3 -0.1,6.7 3.5,8 2.5,0.9 5,0.3 7.4,-0.7 1.7,-0.6 3.3,-1.6 4.8,-2.5 z"
           id="path129"
           inkscape:connector-curvature="0" /><path
           d="m 821.8,267.4 c 7,-1.4 11.9,-6.2 10.8,-10.7 -1.1,-4.5 -7.6,-6.9 -14.6,-5.5 -7,1.4 -11.9,6.2 -10.8,10.7 1.1,4.5 7.6,7 14.6,5.5 z"
           id="path131"
           inkscape:connector-curvature="0" /><path
           d="m 825.2,274.4 c 0.7,4.5 7,7.4 14.1,6.5 7.1,-0.9 12.4,-5.3 11.7,-9.8 -0.7,-4.5 -7,-7.4 -14.1,-6.5 -7.1,0.9 -12.3,5.3 -11.7,9.8 z"
           id="path133"
           inkscape:connector-curvature="0" /><path
           d="m 851.2,292.7 c 0.2,-4.6 -5.5,-8.5 -12.7,-8.7 -7.2,-0.3 -13.2,3.2 -13.4,7.8 -0.2,4.6 5.5,8.5 12.7,8.7 7.2,0.2 13.2,-3.3 13.4,-7.8 z"
           id="path135"
           inkscape:connector-curvature="0" /><path
           d="m 832.6,308.3 c 0.9,-4.5 -4,-9.1 -11.1,-10.4 -7.1,-1.3 -13.5,1.3 -14.5,5.8 -0.9,4.5 4,9.1 11.1,10.4 7.1,1.3 13.5,-1.3 14.5,-5.8 z"
           id="path137"
           inkscape:connector-curvature="0" /><path
           d="m 840.9,329.9 c -4.6,-0.3 -9,1.3 -13.6,1.2 -4,-0.1 -7.9,-0.7 -11.8,-1 -3,-0.3 -6.7,-0.1 -8,3.6 -0.9,2.6 -0.3,5.1 0.7,7.5 0.7,1.7 1.7,3.4 2.6,4.9 2.4,4.2 5,8.2 7.7,12.2 2,2.9 4.7,6.8 8.5,6.7 4.1,-0.1 6.7,-4.2 8.9,-7.4 3.7,-5.4 7.4,-11.1 10.2,-17.2 2,-4.7 -0.3,-10.1 -5.2,-10.5 z"
           id="path139"
           inkscape:connector-curvature="0" /><path
           d="m 847,348.8 c -4.5,1.1 -6.9,7.7 -5.5,14.9 1.4,7.1 6.2,12.1 10.7,11 4.5,-1.1 6.9,-7.7 5.5,-14.9 -1.4,-7.2 -6.2,-12.1 -10.7,-11 z"
           id="path141"
           inkscape:connector-curvature="0" /><path
           d="m 834.6,367.1 c -4.5,0.7 -7.4,7.1 -6.5,14.3 0.9,7.3 5.3,12.6 9.8,11.9 4.5,-0.7 7.4,-7.1 6.5,-14.3 -0.9,-7.2 -5.3,-12.6 -9.8,-11.9 z"
           id="path143"
           inkscape:connector-curvature="0" /><path
           d="m 816.3,393.5 c 4.6,0.2 8.5,-5.6 8.7,-12.9 0.2,-7.3 -3.2,-13.4 -7.8,-13.6 -4.6,-0.2 -8.5,5.6 -8.7,12.9 -0.2,7.3 3.3,13.4 7.8,13.6 z"
           id="path145"
           inkscape:connector-curvature="0" /><path
           d="m 794.9,359.8 c -1.3,7.2 1.3,13.8 5.8,14.7 4.5,0.9 9.1,-4.1 10.4,-11.3 1.3,-7.2 -1.3,-13.8 -5.8,-14.7 -4.4,-0.9 -9.1,4.1 -10.4,11.3 z"
           id="path147"
           inkscape:connector-curvature="0" /><path
           d="m 840.9,418.6 c -4.6,-0.3 -9,1.3 -13.6,1.2 -4,-0.1 -7.9,-0.7 -11.8,-1 -3,-0.3 -6.7,-0.1 -8,3.6 -0.9,2.6 -0.3,5.1 0.7,7.5 0.7,1.7 1.7,3.4 2.6,4.9 2.4,4.2 5,8.2 7.7,12.2 2,2.9 4.7,6.8 8.5,6.7 4.1,-0.1 6.7,-4.2 8.9,-7.4 3.7,-5.4 7.4,-11.1 10.2,-17.2 2,-4.8 -0.3,-10.2 -5.2,-10.5 z"
           id="path149"
           inkscape:connector-curvature="0" /><path
           d="m 857.7,448.5 c -1.4,-7.1 -6.2,-12.1 -10.7,-11 -4.5,1.1 -6.9,7.7 -5.5,14.9 1.4,7.1 6.2,12.1 10.7,11 4.5,-1.1 6.9,-7.8 5.5,-14.9 z"
           id="path151"
           inkscape:connector-curvature="0" /><path
           d="m 837.8,482 c 4.5,-0.7 7.4,-7.1 6.5,-14.3 -0.9,-7.3 -5.3,-12.6 -9.8,-11.9 -4.5,0.7 -7.4,7.1 -6.5,14.3 0.9,7.2 5.3,12.6 9.8,11.9 z"
           id="path153"
           inkscape:connector-curvature="0" /><path
           d="m 816.3,482.1 c 4.6,0.2 8.5,-5.6 8.7,-12.9 0.3,-7.3 -3.2,-13.4 -7.8,-13.6 -4.6,-0.2 -8.5,5.6 -8.7,12.9 -0.2,7.3 3.3,13.4 7.8,13.6 z"
           id="path155"
           inkscape:connector-curvature="0" /><path
           d="m 800.7,463.2 c 4.5,0.9 9.1,-4.1 10.4,-11.3 1.3,-7.2 -1.3,-13.8 -5.8,-14.7 -4.5,-0.9 -9.1,4.1 -10.4,11.3 -1.3,7.2 1.3,13.7 5.8,14.7 z"
           id="path157"
           inkscape:connector-curvature="0" /><path
           d="m 808.2,518.5 c 0.7,1.7 1.7,3.4 2.6,4.9 2.4,4.2 5,8.2 7.7,12.2 2,2.9 4.7,6.8 8.5,6.7 4.1,-0.1 6.7,-4.2 8.9,-7.4 3.7,-5.4 7.4,-11.1 10.2,-17.2 2.1,-4.6 -0.2,-10 -5.1,-10.4 -4.6,-0.3 -9,1.3 -13.6,1.2 -4,-0.1 -7.9,-0.7 -11.8,-1 -3,-0.3 -6.7,-0.1 -8,3.6 -1,2.4 -0.4,5 0.6,7.4 z"
           id="path159"
           inkscape:connector-curvature="0" /><path
           d="m 857.7,537.1 c -1.4,-7.1 -6.2,-12.1 -10.7,-11 -4.5,1.1 -6.9,7.7 -5.5,14.9 1.4,7.1 6.2,12.1 10.7,11 4.5,-1.1 6.9,-7.7 5.5,-14.9 z"
           id="path161"
           inkscape:connector-curvature="0" /><path
           d="m 828,558.7 c 0.9,7.3 5.3,12.6 9.8,11.9 4.5,-0.7 7.4,-7.1 6.5,-14.3 -0.9,-7.3 -5.3,-12.6 -9.8,-11.9 -4.4,0.7 -7.4,7.1 -6.5,14.3 z"
           id="path163"
           inkscape:connector-curvature="0" /><path
           d="m 816.3,570.8 c 4.6,0.2 8.5,-5.6 8.7,-12.9 0.3,-7.3 -3.2,-13.4 -7.8,-13.6 -4.6,-0.2 -8.5,5.6 -8.7,12.9 -0.2,7.3 3.3,13.4 7.8,13.6 z"
           id="path165"
           inkscape:connector-curvature="0" /><ellipse
           transform="matrix(0.1566,-0.9877,0.9877,0.1566,145.0707,1247.5706)"
           cx="803"
           cy="538.79999"
           rx="13.2"
           ry="8.3000002"
           id="ellipse167" /><path
           d="m 835.9,623.5 c 3.7,-5.4 7.4,-11.1 10.2,-17.2 2.1,-4.6 -0.2,-10 -5.1,-10.4 -4.6,-0.3 -9,1.3 -13.6,1.2 -4,-0.1 -7.9,-0.7 -11.8,-1 -3,-0.3 -6.7,-0.1 -8,3.6 -0.9,2.6 -0.3,5.1 0.7,7.5 0.7,1.7 1.7,3.4 2.6,4.9 2.4,4.2 5,8.2 7.7,12.2 2,2.9 4.7,6.8 8.5,6.7 3.9,-0.2 6.6,-4.3 8.8,-7.5 z"
           id="path169"
           inkscape:connector-curvature="0" /><path
           d="m 852.3,640.6 c 4.5,-1.1 6.9,-7.7 5.5,-14.9 -1.4,-7.1 -6.2,-12.1 -10.7,-11 -4.5,1.1 -6.9,7.7 -5.5,14.9 1.4,7.1 6.2,12.1 10.7,11 z"
           id="path171"
           inkscape:connector-curvature="0" /><path
           d="m 837.8,659.3 c 4.5,-0.7 7.4,-7.1 6.5,-14.3 -0.9,-7.3 -5.3,-12.6 -9.8,-11.9 -4.5,0.7 -7.4,7.1 -6.5,14.3 0.9,7.2 5.3,12.6 9.8,11.9 z"
           id="path173"
           inkscape:connector-curvature="0" /><path
           d="m 817.3,632.9 c -4.6,-0.2 -8.5,5.6 -8.7,12.9 -0.3,7.3 3.2,13.4 7.8,13.6 4.6,0.2 8.5,-5.6 8.7,-12.9 0.2,-7.3 -3.3,-13.4 -7.8,-13.6 z"
           id="path175"
           inkscape:connector-curvature="0" /><ellipse
           transform="matrix(0.1566,-0.9877,0.9877,0.1566,57.5098,1322.3418)"
           cx="803"
           cy="627.5"
           rx="13.2"
           ry="8.3000002"
           id="ellipse177" /><path
           d="m 835.9,704.1 c 3.7,-5.4 7.4,-11.1 10.2,-17.2 2.1,-4.6 -0.2,-10 -5.1,-10.4 -4.6,-0.3 -9,1.3 -13.6,1.2 -4,-0.1 -7.9,-0.7 -11.8,-1 -3,-0.3 -6.7,-0.1 -8,3.6 -0.9,2.6 -0.3,5.1 0.7,7.5 0.7,1.7 1.7,3.4 2.6,4.9 2.4,4.2 5,8.2 7.7,12.2 2,2.9 4.7,6.8 8.5,6.7 3.9,-0.2 6.6,-4.3 8.8,-7.5 z"
           id="path179"
           inkscape:connector-curvature="0" /><path
           d="m 852.3,721.2 c 4.5,-1.1 6.9,-7.7 5.5,-14.9 -1.4,-7.1 -6.2,-12.1 -10.7,-11 -4.5,1.1 -6.9,7.7 -5.5,14.9 1.4,7.2 6.2,12.1 10.7,11 z"
           id="path181"
           inkscape:connector-curvature="0" /><path
           d="m 837.8,739.9 c 4.5,-0.7 7.4,-7.1 6.5,-14.3 -0.9,-7.3 -5.3,-12.6 -9.8,-11.9 -4.5,0.7 -7.4,7.1 -6.5,14.3 0.9,7.2 5.3,12.6 9.8,11.9 z"
           id="path183"
           inkscape:connector-curvature="0" /><path
           d="m 817.3,713.6 c -4.6,-0.2 -8.5,5.6 -8.7,12.9 -0.3,7.3 3.2,13.4 7.8,13.6 4.6,0.2 8.5,-5.6 8.7,-12.9 0.2,-7.4 -3.3,-13.4 -7.8,-13.6 z"
           id="path185"
           inkscape:connector-curvature="0" /><ellipse
           transform="matrix(0.1566,-0.9877,0.9877,0.1566,-22.1034,1390.3262)"
           cx="803"
           cy="708.09998"
           rx="13.2"
           ry="8.3000002"
           id="ellipse187" /><path
           d="m 779,706.8 c 0.3,-3 0.1,-6.7 -3.5,-8 -2.5,-0.9 -5,-0.3 -7.4,0.7 -1.7,0.7 -3.3,1.7 -4.8,2.6 -4.1,2.4 -8.1,5 -12,7.7 -2.9,2 -6.7,4.7 -6.6,8.5 0.1,4.1 4.1,6.7 7.3,8.9 5.3,3.7 10.9,7.4 17,10.2 4.6,2.1 9.8,-0.2 10.2,-5.1 0.3,-4.6 -1.3,-9 -1.2,-13.6 0.1,-4.1 0.7,-8 1,-11.9 z"
           id="path189"
           inkscape:connector-curvature="0" /><path
           d="m 746.1,732.9 c -7,1.4 -11.9,6.2 -10.8,10.7 1.1,4.5 7.6,6.9 14.6,5.5 7,-1.4 11.9,-6.2 10.8,-10.7 -1.1,-4.5 -7.6,-6.9 -14.6,-5.5 z"
           id="path191"
           inkscape:connector-curvature="0" /><ellipse
           transform="matrix(0.9936,-0.1133,0.1133,0.9936,-77.748,87.3895)"
           cx="729.79999"
           cy="727.5"
           rx="13"
           ry="8.3000002"
           id="ellipse193" /><path
           d="m 729.4,716.4 c 7.2,0.3 13.2,-3.2 13.4,-7.8 0.2,-4.6 -5.5,-8.5 -12.7,-8.7 -7.2,-0.3 -13.2,3.2 -13.4,7.8 -0.1,4.5 5.5,8.4 12.7,8.7 z"
           id="path195"
           inkscape:connector-curvature="0" /><path
           d="m 746.4,702.4 c 7.1,1.3 13.5,-1.3 14.5,-5.8 0.9,-4.5 -4,-9.1 -11.1,-10.4 -7.1,-1.3 -13.5,1.3 -14.5,5.8 -0.9,4.5 4.1,9.2 11.1,10.4 z"
           id="path197"
           inkscape:connector-curvature="0" /><path
           d="m 691.9,706.8 c 0.3,-3 0.1,-6.7 -3.5,-8 -2.5,-0.9 -5,-0.3 -7.4,0.7 -1.7,0.7 -3.3,1.7 -4.8,2.6 -4.1,2.4 -8.1,5 -12,7.7 -2.9,2 -6.7,4.7 -6.6,8.5 0.1,4.1 4.1,6.7 7.3,8.9 5.3,3.7 10.9,7.4 17,10.2 4.6,2.1 9.8,-0.2 10.2,-5.1 0.3,-4.6 -1.3,-9 -1.2,-13.6 0.1,-4.1 0.6,-8 1,-11.9 z"
           id="path199"
           inkscape:connector-curvature="0" /><ellipse
           transform="matrix(0.9833,-0.1821,0.1821,0.9833,-123.8723,132.7088)"
           cx="660.79999"
           cy="741"
           rx="13"
           ry="8.3000002"
           id="ellipse201" /><path
           d="m 655.5,725.9 c -0.7,-4.5 -7,-7.4 -14.1,-6.5 -7.1,0.9 -12.4,5.3 -11.7,9.8 0.7,4.5 7,7.4 14.1,6.5 7.1,-0.9 12.4,-5.3 11.7,-9.8 z"
           id="path203"
           inkscape:connector-curvature="0" /><path
           d="m 642.3,716.4 c 7.2,0.3 13.2,-3.2 13.4,-7.8 0.2,-4.6 -5.5,-8.5 -12.7,-8.7 -7.2,-0.3 -13.2,3.2 -13.4,7.8 -0.2,4.5 5.5,8.4 12.7,8.7 z"
           id="path205"
           inkscape:connector-curvature="0" /><path
           d="m 659.3,702.4 c 7.1,1.3 13.5,-1.3 14.5,-5.8 0.9,-4.5 -4,-9.1 -11.1,-10.4 -7.1,-1.3 -13.5,1.3 -14.5,5.8 -0.9,4.5 4,9.2 11.1,10.4 z"
           id="path207"
           inkscape:connector-curvature="0" /><path
           d="m 604.8,706.8 c 0.3,-3 0.1,-6.7 -3.5,-8 -2.5,-0.9 -5,-0.3 -7.4,0.7 -1.7,0.7 -3.3,1.7 -4.8,2.6 -4.1,2.4 -8.1,5 -12,7.7 -2.9,2 -6.7,4.7 -6.6,8.5 0.1,4.1 4.1,6.7 7.3,8.9 5.3,3.7 10.9,7.4 17,10.2 4.6,2.1 9.8,-0.2 10.2,-5.1 0.3,-4.6 -1.3,-9 -1.2,-13.6 0,-4.1 0.6,-8 1,-11.9 z"
           id="path209"
           inkscape:connector-curvature="0" /><path
           d="m 571.8,732.9 c -7,1.4 -11.9,6.2 -10.8,10.7 1,4.5 7.6,6.9 14.6,5.5 7,-1.4 11.9,-6.2 10.8,-10.7 -1.1,-4.5 -7.6,-6.9 -14.6,-5.5 z"
           id="path211"
           inkscape:connector-curvature="0" /><path
           d="m 568.4,725.9 c -0.7,-4.5 -7,-7.4 -14.1,-6.5 -7.1,0.9 -12.4,5.3 -11.7,9.8 0.7,4.5 7,7.4 14.1,6.5 7.1,-0.9 12.3,-5.3 11.7,-9.8 z"
           id="path213"
           inkscape:connector-curvature="0" /><path
           d="m 555.1,716.4 c 7.2,0.3 13.2,-3.2 13.4,-7.8 0.2,-4.6 -5.5,-8.5 -12.7,-8.7 -7.2,-0.3 -13.2,3.2 -13.4,7.8 -0.1,4.5 5.5,8.4 12.7,8.7 z"
           id="path215"
           inkscape:connector-curvature="0" /><path
           d="m 572.2,702.4 c 7.1,1.3 13.5,-1.3 14.5,-5.8 0.9,-4.5 -4,-9.1 -11.1,-10.4 -7.1,-1.3 -13.5,1.3 -14.5,5.8 -1,4.5 4,9.2 11.1,10.4 z"
           id="path217"
           inkscape:connector-curvature="0" /><path
           d="m 517.6,706.8 c 0.3,-3 0.1,-6.7 -3.5,-8 -2.5,-0.9 -5,-0.3 -7.4,0.7 -1.7,0.7 -3.3,1.7 -4.8,2.6 -4.1,2.4 -8.1,5 -12,7.7 -2.9,2 -6.7,4.7 -6.6,8.5 0.1,4.1 4.1,6.7 7.3,8.9 5.3,3.7 10.9,7.4 17,10.2 4.6,2.1 9.8,-0.2 10.2,-5.1 0.3,-4.6 -1.3,-9 -1.2,-13.6 0.1,-4.1 0.6,-8 1,-11.9 z"
           id="path219"
           inkscape:connector-curvature="0" /><path
           d="m 484.6,732.9 c -7,1.4 -11.9,6.2 -10.8,10.7 1.1,4.5 7.6,6.9 14.6,5.5 7,-1.4 11.9,-6.2 10.8,-10.7 -1,-4.5 -7.5,-6.9 -14.6,-5.5 z"
           id="path221"
           inkscape:connector-curvature="0" /><ellipse
           transform="matrix(0.9936,-0.1133,0.1133,0.9936,-79.4322,57.7613)"
           cx="468.29999"
           cy="727.5"
           rx="13"
           ry="8.3000002"
           id="ellipse223" /><path
           d="m 468,716.4 c 7.2,0.3 13.2,-3.2 13.4,-7.8 0.2,-4.6 -5.5,-8.5 -12.7,-8.7 -7.2,-0.3 -13.2,3.2 -13.4,7.8 -0.2,4.5 5.5,8.4 12.7,8.7 z"
           id="path225"
           inkscape:connector-curvature="0" /><path
           d="m 485,702.4 c 7.1,1.3 13.5,-1.3 14.5,-5.8 0.9,-4.5 -4,-9.1 -11.1,-10.4 -7.1,-1.3 -13.5,1.3 -14.5,5.8 -0.9,4.5 4,9.2 11.1,10.4 z"
           id="path227"
           inkscape:connector-curvature="0" /><path
           d="m 430.5,706.8 c 0.3,-3 0.1,-6.7 -3.5,-8 -2.5,-0.9 -5,-0.3 -7.4,0.7 -1.7,0.7 -3.3,1.7 -4.8,2.6 -4.1,2.4 -8.1,5 -12,7.7 -2.9,2 -6.7,4.7 -6.6,8.5 0.1,4.1 4.1,6.7 7.3,8.9 5.3,3.7 10.9,7.4 17,10.2 4.6,2.1 9.8,-0.2 10.2,-5.1 0.3,-4.6 -1.3,-9 -1.2,-13.6 0,-4.1 0.6,-8 1,-11.9 z"
           id="path229"
           inkscape:connector-curvature="0" /><ellipse
           transform="matrix(0.9833,-0.1821,0.1821,0.9833,-128.2428,85.1053)"
           cx="399.39999"
           cy="741"
           rx="13"
           ry="8.3000002"
           id="ellipse231" /><path
           d="m 394.1,725.9 c -0.7,-4.5 -7,-7.4 -14.1,-6.5 -7.1,0.9 -12.4,5.3 -11.7,9.8 0.7,4.5 7,7.4 14.1,6.5 7.1,-0.9 12.3,-5.3 11.7,-9.8 z"
           id="path233"
           inkscape:connector-curvature="0" /><path
           d="m 380.8,716.4 c 7.2,0.3 13.2,-3.2 13.4,-7.8 0.2,-4.6 -5.5,-8.5 -12.7,-8.7 -7.2,-0.3 -13.2,3.2 -13.4,7.8 -0.1,4.5 5.5,8.4 12.7,8.7 z"
           id="path235"
           inkscape:connector-curvature="0" /><path
           d="m 397.9,702.4 c 7.1,1.3 13.5,-1.3 14.5,-5.8 0.9,-4.5 -4,-9.1 -11.1,-10.4 -7.1,-1.3 -13.5,1.3 -14.5,5.8 -1,4.5 4,9.2 11.1,10.4 z"
           id="path237"
           inkscape:connector-curvature="0" /><path
           d="m 343.3,706.8 c 0.3,-3 0.1,-6.7 -3.5,-8 -2.5,-0.9 -5,-0.3 -7.4,0.7 -1.7,0.7 -3.3,1.7 -4.8,2.6 -4.1,2.4 -8.1,5 -12,7.7 -2.9,2 -6.7,4.7 -6.6,8.5 0.1,4.1 4.1,6.7 7.3,8.9 5.3,3.7 10.9,7.4 17,10.2 4.6,2.1 9.8,-0.2 10.2,-5.1 0.3,-4.6 -1.3,-9 -1.2,-13.6 0.1,-4.1 0.7,-8 1,-11.9 z"
           id="path239"
           inkscape:connector-curvature="0" /><path
           d="m 310.3,732.9 c -7,1.4 -11.9,6.2 -10.8,10.7 1,4.5 7.6,6.9 14.6,5.5 7,-1.4 11.9,-6.2 10.8,-10.7 -1,-4.5 -7.5,-6.9 -14.6,-5.5 z"
           id="path241"
           inkscape:connector-curvature="0" /><ellipse
           transform="matrix(0.9936,-0.1133,0.1133,0.9936,-80.5452,38.0039)"
           cx="294"
           cy="727.5"
           rx="13"
           ry="8.3000002"
           id="ellipse243" /><path
           d="m 293.7,716.4 c 7.2,0.3 13.2,-3.2 13.4,-7.8 0.2,-4.6 -5.5,-8.5 -12.7,-8.7 -7.2,-0.3 -13.2,3.2 -13.4,7.8 -0.2,4.5 5.5,8.4 12.7,8.7 z"
           id="path245"
           inkscape:connector-curvature="0" /><path
           d="m 310.7,702.4 c 7.1,1.3 13.5,-1.3 14.5,-5.8 0.9,-4.5 -4,-9.1 -11.1,-10.4 -7.1,-1.3 -13.5,1.3 -14.5,5.8 -0.9,4.5 4.1,9.2 11.1,10.4 z"
           id="path247"
           inkscape:connector-curvature="0" /><path
           d="m 256.2,706.8 c 0.3,-3 0.1,-6.7 -3.5,-8 -2.5,-0.9 -5,-0.3 -7.4,0.7 -1.7,0.7 -3.3,1.7 -4.8,2.6 -4.1,2.4 -8.1,5 -12,7.7 -2.9,2 -6.7,4.7 -6.6,8.5 0.1,4.1 4.1,6.7 7.3,8.9 5.3,3.7 10.9,7.4 17,10.2 4.6,2.1 9.8,-0.2 10.2,-5.1 0.3,-4.6 -1.3,-9 -1.2,-13.6 0,-4.1 0.6,-8 1,-11.9 z"
           id="path249"
           inkscape:connector-curvature="0" /><path
           d="m 223.2,732.9 c -7,1.4 -11.9,6.2 -10.8,10.7 1.1,4.5 7.6,6.9 14.6,5.5 7,-1.4 11.9,-6.2 10.8,-10.7 -1,-4.5 -7.6,-6.9 -14.6,-5.5 z"
           id="path251"
           inkscape:connector-curvature="0" /><ellipse
           transform="matrix(0.9936,-0.1133,0.1133,0.9936,-81.1165,28.1332)"
           cx="206.89999"
           cy="727.5"
           rx="13"
           ry="8.3000002"
           id="ellipse253" /><path
           d="m 206.5,716.4 c 7.2,0.3 13.2,-3.2 13.4,-7.8 0.2,-4.6 -5.5,-8.5 -12.7,-8.7 -7.2,-0.3 -13.2,3.2 -13.4,7.8 -0.1,4.5 5.5,8.4 12.7,8.7 z"
           id="path255"
           inkscape:connector-curvature="0" /><path
           d="m 223.6,702.4 c 7.1,1.3 13.5,-1.3 14.5,-5.8 0.9,-4.5 -4,-9.1 -11.1,-10.4 -7.1,-1.3 -13.5,1.3 -14.5,5.8 -1,4.5 4,9.2 11.1,10.4 z"
           id="path257"
           inkscape:connector-curvature="0" /><path
           d="m 176.5,706.8 c 0.3,-3 0.1,-6.7 -3.5,-8 -2.5,-0.9 -5,-0.3 -7.4,0.7 -1.7,0.7 -3.3,1.7 -4.8,2.6 -4.1,2.4 -8.1,5 -12,7.7 -2.9,2 -6.7,4.7 -6.6,8.5 0.1,4.1 4.1,6.7 7.3,8.9 5.3,3.7 10.9,7.4 17,10.2 4.6,2.1 9.8,-0.2 10.2,-5.1 0.3,-4.6 -1.3,-9 -1.2,-13.6 0.1,-4.1 0.7,-8 1,-11.9 z"
           id="path259"
           inkscape:connector-curvature="0" /><path
           d="m 143.6,732.9 c -7,1.4 -11.9,6.2 -10.8,10.7 1,4.5 7.6,6.9 14.6,5.5 7,-1.4 11.9,-6.2 10.8,-10.7 -1.1,-4.5 -7.6,-6.9 -14.6,-5.5 z"
           id="path261"
           inkscape:connector-curvature="0" /><ellipse
           transform="matrix(0.9936,-0.1133,0.1133,0.9936,-81.6296,19.1079)"
           cx="127.2"
           cy="727.5"
           rx="13"
           ry="8.3000002"
           id="ellipse263" /><path
           d="m 126.9,716.4 c 7.2,0.3 13.2,-3.2 13.4,-7.8 0.2,-4.6 -5.5,-8.5 -12.7,-8.7 -7.2,-0.3 -13.2,3.2 -13.4,7.8 -0.2,4.5 5.5,8.4 12.7,8.7 z"
           id="path265"
           inkscape:connector-curvature="0" /><path
           d="m 143.9,702.4 c 7.1,1.3 13.5,-1.3 14.5,-5.8 0.9,-4.5 -4,-9.1 -11.1,-10.4 -7.1,-1.3 -13.5,1.3 -14.5,5.8 -0.9,4.5 4.1,9.2 11.1,10.4 z"
           id="path267"
           inkscape:connector-curvature="0" /></g></g></switch></svg>