<?xml version="1.0" encoding="utf-8"?>
<!-- Generator: Adobe Illustrator 21.1.0, SVG Export Plug-In . SVG Version: 6.00 Build 0)  -->
<svg version="1.1"
	 id="Layer_1"  xmlns:cc="http://creativecommons.org/ns#" xmlns:dc="http://purl.org/dc/elements/1.1/" xmlns:inkscape="http://www.inkscape.org/namespaces/inkscape" xmlns:rdf="http://www.w3.org/1999/02/22-rdf-syntax-ns#" xmlns:sodipodi="http://sodipodi.sourceforge.net/DTD/sodipodi-0.dtd" xmlns:svg="http://www.w3.org/2000/svg"
	 xmlns="http://www.w3.org/2000/svg" xmlns:xlink="http://www.w3.org/1999/xlink" x="0px" y="0px" viewBox="83.89999389648438 173.89999389648438 444.1999816894531 444.1999816894531"
	 style="enable-background:new 0 0 612 792;" xml:space="preserve">
<sodipodi:namedview  bordercolor="#666666" borderopacity="1" gridtolerance="10" guidetolerance="10" id="namedview15" inkscape:current-layer="Layer_1" inkscape:cx="23.305085" inkscape:cy="500" inkscape:pageopacity="0" inkscape:pageshadow="2" inkscape:window-height="480" inkscape:window-maximized="0" inkscape:window-width="671" inkscape:window-x="0" inkscape:window-y="34" inkscape:zoom="0.236" objecttolerance="10" pagecolor="#ffffff" showgrid="false">
	</sodipodi:namedview>
<path d="M306,173.9c-122.6,0-222.1,99.4-222.1,222S183.4,618.1,306,618.1S528.1,518.6,528.1,396S428.6,173.9,306,173.9z
	 M494.7,351.5c2.9-1.5,7.1,1.2,9.1,6.3c1,2.5,1.3,5.1,0.9,7.2s-1.5,3.7-2.9,4.3c-3.1,1.2-6.8-1.9-8.8-6.7
	C491.3,357.8,491.8,352.9,494.7,351.5z M465.5,374.2L465.5,374.2c-1.7-0.1-2.9-1-4-2.4s-1.6-3.3-1.5-5.4c0.1-4.2,2.6-7.9,5.8-8.1
	c3.2-0.2,6.1,3.4,5.9,8C471.7,370.8,468.7,374.3,465.5,374.2z M472.6,370.7c0.9-1.6,2.2-2.7,3.8-2.9c1.6-0.2,3.2,0.6,4.5,2
	c1.2,1.5,2,3.5,2.3,6c0.4,4.8-2.3,8.8-5.4,8.9c-1.6,0.1-3.1-0.9-4.2-2.3c-1.1-1.5-1.8-3.4-2-5.7
	C471.2,374.4,471.7,372.3,472.6,370.7z M461.4,417.6L461.4,417.6c0.7-2,2-3.7,3.5-4.7s3.1-1.5,4.7-1.1c3.2,0.9,4.4,5.2,3,9.5
	c-1.7,4.3-5.5,6.7-8.5,5.5c-1.5-0.6-2.6-1.9-3-3.5C460.6,421.6,460.8,419.7,461.4,417.6z M468.9,431.2L468.9,431.2
	c1.2-4.3,4.4-7.4,7.6-6.8c3.1,0.6,5,5,3.7,9.7c-0.6,2.3-1.8,4.3-3.3,5.5s-3.2,1.7-4.7,1.2c-1.6-0.5-2.6-1.8-3.2-3.5
	C468.4,435.4,468.3,433.3,468.9,431.2z M478.2,418.9L478.2,418.9c-1.6-2.8-3.1-5.6-4.6-8.3c-0.6-1-1.2-2.1-1.6-3.2
	c-0.6-1.5-0.9-3.1-0.2-4.7c0.9-2.2,3.6-2.3,5.8-2c2.8,0.3,5.6,0.7,8.4,0.9c3.3,0.2,6.5-0.9,9.7-0.6c3.4,0.3,5.1,4.3,3.3,7.5
	c-1.2,2.1-2.4,4.2-3.9,6.1c-1.4,1.9-3,3.7-4.5,5.3c-1.8,2-4,4.5-7,4.1C480.9,423.8,479.3,420.9,478.2,418.9z M488.6,365.9
	c1.5-0.5,3.2,0.1,4.8,1.3c1.5,1.3,2.7,3.4,3.3,5.9c0.3,1.3,0.5,2.5,0.4,3.7c-0.1,1.2-0.3,2.3-0.6,3.2c-0.7,1.9-2,3.2-3.5,3.5
	c-3.2,0.7-6.5-2.8-7.7-7.5c-0.6-2.4-0.6-4.7,0.1-6.5v0C486,367.8,487,366.3,488.6,365.9z M492.6,345.7L492.6,345.7
	c-0.3,2.4-1,4.7-1.7,7s-1.6,4.4-2.5,6.5c-1.2,2.5-2.5,5.6-5.4,6.1c-2.6,0.6-5-1.7-6.7-3.2c-2.4-2.1-4.8-4.2-7-6.4
	c-0.8-0.8-1.7-1.6-2.6-2.4c-1.1-1.2-1.9-2.6-1.7-4.3c0.2-2.4,2.7-3.3,4.8-3.8c2.8-0.6,5.5-1.1,8.2-1.8c3.2-0.9,5.9-2.9,9-3.7
	C490.5,338.8,493.1,342.1,492.6,345.7z M470,292.9L470,292.9c2.2-2.3,7.2-1.2,10.7,3c3.7,4.1,4.3,9.4,1.8,11.5
	c-2.5,2.1-7,0.4-10.4-3.4c-1.7-2-2.8-4.1-3.1-6.1C468.6,295.9,468.9,294.1,470,292.9z M469,308.5c2.6-2,7.1-0.1,10,4.2
	c2.8,4.4,2.8,9.5-0.1,11.1c-2.8,1.7-7.2-0.4-9.7-4.6C466.5,315.2,466.3,310.5,469,308.5z M464.8,329.9L464.8,329.9
	c-3,1.1-6.9-1.3-8.5-5.5c-1.9-4.1-1-8.6,1.8-10s6.9,0.9,8.9,5.4C468.9,324.2,467.9,328.7,464.8,329.9z M422.2,517.6
	c-3.9,2.5-8.5,1.9-10.1-0.9c-0.9-1.4-0.8-3.1-0.1-4.7c0.7-1.6,1.9-3.2,3.7-4.3c3.7-2.2,8-2.2,10,0.4
	C427.6,510.8,426.1,515.2,422.2,517.6L422.2,517.6z M306,536.9c-77.8,0-140.9-63.1-140.9-140.9S228.2,255.1,306,255.1
	S446.9,318.2,446.9,396S383.8,536.9,306,536.9z M368.7,540c1.1-1.3,2.8-2.3,5-2.8c4.1-1,8.3,0.6,9.3,3.6c0.5,1.5,0.1,3.2-1.1,4.6
	c-0.6,0.7-1.3,1.3-2.2,1.9c-0.9,0.5-1.9,0.9-3.1,1.2c-4.5,1.1-8.6-0.9-9.2-4.1C367,542.8,367.5,541.3,368.7,540L368.7,540z
	 M315.9,555.9c0.4-3.2,4.1-5.3,8.3-4.8c4.2,0.4,7.7,3.3,7.7,6.5c-0.1,3.2-3.9,5.6-8.5,5.1C318.8,562.2,315.5,559.1,315.9,555.9z
	 M321.4,567.3c0.1,1.6-0.8,3.1-2.4,4.2c-0.8,0.6-1.7,1-2.8,1.3c-1,0.3-2.2,0.4-3.4,0.4c-2.4-0.1-4.6-0.7-6.1-1.8
	c-1.5-1.2-2.4-2.7-2.3-4.3s1.1-3,2.6-4c1.6-1,3.6-1.7,5.9-1.6l0,0c2.3,0.1,4.3,0.7,5.9,1.7C320.3,564.3,321.3,565.7,321.4,567.3z
	 M263.8,554.9L263.8,554.9c-0.9-1.7-1-3.4-0.3-4.8c0.7-1.5,2.1-2.4,3.8-2.6c1.7-0.3,3.7-0.1,5.6,0.8c1.9,1,3.5,2.3,4.4,3.9
	c0.9,1.5,1.3,3.2,0.7,4.8c-1.1,3.1-5.6,4.2-9.7,2.2C266.3,558.1,264.7,556.6,263.8,554.9z M265,562.7c-0.9,3.2-5.4,4.5-10,2.9
	c-4.6-1.7-7.2-5.6-6-8.6c1.3-3,5.7-4,9.9-2.5C263.2,556,265.9,559.7,265,562.7z M227.5,538.7c-1,1.2-2.6,1.8-4.5,1.6
	c-0.9-0.1-1.8-0.4-2.8-0.8c-0.9-0.5-1.8-1.1-2.6-1.9c-3.3-3.2-3.9-7.7-1.6-10c2.3-2.2,6.5-1.7,9.5,1.3
	C228.5,531.9,229.6,536.2,227.5,538.7z M213.3,540L213.3,540c-0.9,1.3-2.6,2-4.5,1.9c-1.9-0.1-4-0.9-5.9-2.4c-3.9-3-5-7.7-2.9-10
	c1-1.2,2.8-1.7,4.6-1.6c1.8,0.2,3.8,1,5.6,2.3c1.8,1.4,3,3.2,3.5,5C214.3,537,214.2,538.7,213.3,540z M185.6,505.2
	c-2.7,1.7-6.9-0.2-9-4.3c-1-2.1-1.4-4.2-1.1-6c0.3-1.8,1.3-3.3,2.8-4c2.9-1.3,6.7,0.5,8.6,4.3C188.8,499,188.3,503.5,185.6,505.2z
	 M151.3,506.7c-3.6-3.8-4.2-8.9-1.8-11c1.2-1,3-1.2,4.8-0.7c1.8,0.6,3.7,1.8,5.4,3.6c1.7,1.8,2.7,3.9,3.1,5.8c0.5,1.8,0.2,3.6-1,4.8
	v0C159.7,511.6,154.8,510.7,151.3,506.7z M144.2,407.5L144.2,407.5c-1.6-0.2-2.9-1.2-3.8-2.9c-0.8-1.6-1-3.8-0.7-6.1
	c0.4-2.3,1.5-4.2,2.9-5.4c1.3-1.2,3-1.8,4.6-1.5c3.2,0.7,4.8,4.5,4.1,8.7C150.4,404.7,147.5,407.9,144.2,407.5z M148.4,445.7
	L148.4,445.7c0,1-0.2,2-0.5,2.9c-0.6,1.7-1.7,3.1-3.3,3.5c-1.6,0.5-3.2,0-4.7-1.2c-1.5-1.2-2.7-3.2-3.2-5.5
	c-1.2-4.7,0.7-9.1,3.9-9.7c1.6-0.3,3.2,0.3,4.5,1.6c1.3,1.2,2.5,3.1,3,5.3C148.4,443.6,148.5,444.7,148.4,445.7z M122,360.3
	L122,360.3c-1.7-0.4-2.8-1.7-3.1-3.2c-0.3-1.5,0.1-3.3,1.1-4.8c2.8-3.9,6.6-7,10.1-9.9c2.1-1.7,4.8-3.7,7.6-2.9
	c2.6,0.8,3.5,3.8,4.4,6c1.2,3,2.2,6,3.2,8.9c0.4,1.1,0.9,2.2,1.1,3.4c0.4,1.6,0.4,3.2-0.6,4.6c-1.3,2-3.9,1.7-6,1.1
	c-2.7-0.7-5.4-1.7-8.1-2.3C128.4,360.6,125.1,361.1,122,360.3z M123,396.3c-3.2,0.5-6.2-3.2-6.8-8.5c-0.4-5.2,2.1-9.6,5.3-9.7
	c3.2-0.1,6.1,3.8,6.4,8.6C128.4,391.5,126.3,395.8,123,396.3z M130,387.3c0.6-4.8,3.6-8.4,6.9-7.9v0c3.2,0.5,5.4,4.5,4.9,8.9
	c-0.3,4.5-3.2,8.1-6.4,8C132.1,396.2,129.7,392.2,130,387.3z M148,344.1c1.2-2,2.8-3.4,4.4-4.2c1.7-0.7,3.5-0.7,4.8,0.1
	c2.7,1.7,3.3,5.9,1,9.5c-2,3.7-6.1,5.8-9,4.4c-1.5-0.7-2.3-2.1-2.6-3.9C146.5,348.3,146.8,346.2,148,344.1z M154.4,444
	c3.2-0.4,6.1,2.6,6.7,6.9c0.7,4.2-1.3,8.3-4.4,9c-3.1,0.7-6.4-2.4-7.1-7C149,448.3,151.2,444.4,154.4,444z M161.9,497.9
	c-1.3-2-2-4.2-1.8-6.1c0.1-1.9,0.9-3.4,2.3-4.3c1.4-0.8,3.1-0.7,4.8,0c1.7,0.8,3.3,2.1,4.5,4c2.4,3.8,2.4,8.3-0.2,10.2
	C169,503.7,164.6,502,161.9,497.9z M173.5,295.3c3.5-3,8-3.3,10.1-0.8c2.1,2.5,1.2,6.6-2.1,9.4c-3.1,2.9-7.7,3.5-10,1.2
	C169.2,302.9,170.1,298.4,173.5,295.3z M213.5,257.4c4.3-1.7,8.6-0.5,9.9,2.5c1.2,3.1-1.1,6.5-5,8.2c-2,0.8-4,1-5.8,0.6
	c-1.8-0.4-3.2-1.2-4-2.7C207,263.1,209.3,259.2,213.5,257.4z M257.9,236.7c1.3-1.2,3.4-2,5.7-2.1c4.6-0.3,8.3,2.4,8.4,5.6
	c0.1,3.3-3.2,5.8-7.4,6.1c-4.2,0.2-8.1-1.9-8.6-5.1C255.8,239.5,256.6,237.9,257.9,236.7z M323.6,232.5c1.1,1.5,1.5,3.2,1.1,4.7
	c-0.9,3-4.9,4.7-9,3.4c-4.2-1-7.1-4.4-6.5-7.6c0.3-1.6,1.5-2.8,3.2-3.5c1.7-0.7,3.9-0.9,6.1-0.2
	C320.7,229.9,322.5,231.1,323.6,232.5z M321.2,225c0.4-3.2,4.6-5.4,9.4-4.5c1.2,0.2,2.3,0.6,3.2,1c1,0.5,1.8,1.2,2.4,1.8
	c1.3,1.4,1.9,3,1.6,4.6c-0.7,3.2-4.8,4.8-9.2,4.1C324.2,231.2,320.8,228.3,321.2,225z M375.3,251.5c-1.9,2.6-6,2.6-9.5,0.2v0
	c-1.8-1.2-3.1-2.8-3.7-4.5c-0.7-1.7-0.7-3.4,0.1-4.8c1.6-2.9,6.1-3,10-0.6C375.8,244.6,377.2,248.9,375.3,251.5z M376,238.8
	c0.7-1.5,2.2-2.3,4.1-2.6c1.9-0.2,4.2,0.1,6.2,1.3c2.1,1.2,3.7,2.8,4.5,4.5c0.8,1.8,0.8,3.5,0,4.9c-0.9,1.4-2.4,2.1-4.2,2.3
	c-1.9,0.2-4-0.2-5.9-1.4C376.7,245.7,374.5,241.8,376,238.8z M409,268.7c1.2-1,2.9-1.3,4.7-0.9c1.7,0.5,3.5,1.8,4.9,3.5
	c2.8,3.7,2.6,8.3-0.1,10.2c-1.3,0.9-3,1.1-4.7,0.6c-1.6-0.6-3.2-1.7-4.5-3.4C406.9,275.2,406.6,270.8,409,268.7L409,268.7z
	 M423.3,269.7c2.3-2.3,6.9-1.4,10.2,2.2c3.2,3.6,3.7,8.3,1.2,10.3c-2.5,2-6.9,1-9.9-2.4C421.8,276.5,421.1,272,423.3,269.7z
	 M444.9,308.7c1.5-0.6,3.2-0.3,4.7,0.7c1.5,1,2.8,2.8,3.5,5c1.5,4.3-0.2,8.7-3.3,9.5c-3.2,0.9-6.4-1.6-7.8-5.6
	C440.8,314.2,441.9,310,444.9,308.7z M446.1,466.5c2.8-3.2,6.9-4.7,9.6-2.8c1.3,0.9,2,2.5,2,4.3s-0.9,3.9-2.3,5.6s-3.3,2.9-5.1,3.4
	c-1.8,0.4-3.5,0.1-4.7-0.9C443.1,474,443.5,469.8,446.1,466.5z M458.9,284.3L458.9,284.3c2.9-1.9,6.5,0.4,7.2,3.9
	c0.4,2.4,0.6,4.8,0.6,7.2c0.1,2.3-0.1,4.7-0.2,7c-0.2,2.8-0.5,6-3,7.5c-2.3,1.3-5.3,0.1-7.5-0.8c-2.9-1.3-5.9-2.4-8.7-3.7
	c-1-0.5-2.1-0.9-3.2-1.5c-1.5-0.8-2.7-1.8-3.1-3.5c-0.6-2.3,1.5-4,3.3-5.1c2.4-1.5,4.8-2.8,7.2-4.4
	C454.2,288.9,456.1,286.1,458.9,284.3z M446.1,272L446.1,272c-1,1.2-2.8,1.7-4.7,1.5c-2-0.2-4.1-1.1-6-2.6c-3.8-3-5.6-7.4-3.7-10.1
	s6.7-2.4,10.8,0.7C446.6,264.8,448.2,269.5,446.1,272z M427.7,245.7c1.3-2.9,6.4-3.4,11.1-0.6c2.4,1.3,4.2,3.2,5.1,5.1
	c1,1.9,1.2,3.8,0.3,5.1c-1.7,2.8-6.5,2.8-11,0.1c-2.3-1.3-4-3-5-4.8C427.4,248.8,427,247.1,427.7,245.7z M404.1,256.1
	c1.8-2.1,3.7-4.2,5.3-6.5c2-2.6,2.8-5.9,4.9-8.4c2.1-2.8,6.3-1.8,8.1,1.3c2.3,4.3,3.9,8.8,4.9,13.3c0.7,2.6,1.5,5.8-0.4,8.1
	c-1.7,2-5,1.8-7.3,1.7c-3.2-0.2-6.4-0.5-9.4-0.7c-1.1-0.1-2.3-0.2-3.5-0.4c-1.6-0.4-3.1-1-4-2.4C401.3,260,402.7,257.7,404.1,256.1z
	 M397.2,228.7c1.2,1.6,1.7,3.4,1,4.9c-0.6,1.5-2.1,2.5-3.9,2.9c-1.9,0.4-4.2,0.3-6.5-0.6c-2.3-0.9-4.2-2.1-5.4-3.6
	c-1.2-1.5-1.8-3.2-1.3-4.8c0.9-3.1,5.6-4.5,10.5-2.8C393.9,225.6,396,227.1,397.2,228.7z M372.3,214.6c0.2-1.6,1.4-2.9,3.2-3.7
	c1.8-0.7,4.3-1,7-0.4c5.4,1,9.2,4.8,8.5,8c-0.7,3.2-5.4,4.8-10.3,3.7C375.6,221.1,372,217.8,372.3,214.6z M353.4,232.1
	c1-2.6,2.1-5.2,2.9-7.9c1-3.1,0.7-6.5,1.8-9.5c1.2-3.2,5.4-3.9,8.1-1.4c1.8,1.7,3.4,3.4,4.9,5.2s2.8,3.9,4,5.7
	c1.5,2.3,3.3,5,2.2,7.8c-1,2.4-4.1,3.3-6.4,3.9c-3.1,0.8-6.2,1.7-9.1,2.4c-1.1,0.3-2.3,0.6-3.4,0.8c-1.7,0.2-3.2,0.1-4.6-0.9h0
	C352,236.7,352.6,234.2,353.4,232.1z M340.5,212.9c-0.1,1.6-1.2,3.1-2.8,4c-1.7,1-3.9,1.5-6.3,1.6c-2.4,0-4.7-0.7-6.3-1.7
	c-1.7-1-2.8-2.4-2.8-4c-0.2-3.2,3.8-6.2,9-6.1C336.5,206.6,340.6,209.6,340.5,212.9z M318.1,196L318.1,196
	c5.4-0.6,10.3,1.5,10.6,4.8c0.2,1.7-0.7,3.2-2.2,4.3c-1.6,1.3-3.8,2.2-6.4,2.5c-1.3,0.2-2.5,0.1-3.7,0c-1.2-0.1-2.2-0.4-3.2-0.7
	c-1.9-0.7-3.2-2-3.6-3.6C309.1,200.1,312.7,196.8,318.1,196z M303.7,204.1c1.1,0.4,2.2,1,3.2,1.5s2.1,1.2,3.1,1.8
	c2,1.3,3.9,2.7,5.7,4c2.1,1.7,4.8,3.8,4.7,6.7c-0.1,2.7-2.8,4.4-4.8,5.7c-2.6,1.8-5.3,3.6-7.9,5.3c-1,0.6-2,1.3-3,1.9
	c-1.4,0.7-2.9,1.1-4.6,0.6h0c-2.3-0.9-2.6-3.4-2.5-5.6c0.1-2.8,0.3-5.6,0.2-8.4c-0.1-3.3-1.3-6.4-1.3-9.6
	C296.5,204.4,300.3,202.7,303.7,204.1z M281.5,227c0.3,3.2-3,6.3-7.5,6.9c-4.4,0.8-8.6-1.1-9.3-4.2c-0.7-3.1,2.6-6.5,7.4-7.3
	C277,221.7,281.2,223.8,281.5,227z M279.1,211.9c0.9,3.1-2.2,6.8-6.9,8.3c-4.6,1.6-9.2,0.6-10.5-2.4c-1.3-3,1.7-6.9,6.6-8.7
	C273.4,207.5,278.3,208.8,279.1,211.9z M252.5,203.3c4.9-2.6,10.2-1.8,11.6,1c1.4,2.9-1.3,7-5.9,9.2c-2.3,1.2-4.7,1.7-6.7,1.5
	s-3.7-0.8-4.5-2.2C245.3,210.1,247.6,205.6,252.5,203.3z M241.5,215.5c4.8,0.4,9.4,1.5,13.8,3.1c2.6,0.9,5.7,2,6.5,4.8
	c0.7,2.6-1.2,5.1-2.6,7c-2,2.6-3.9,5.1-5.8,7.5c-0.7,0.9-1.4,1.9-2.3,2.7c-1.2,1.2-2.4,2.1-4.2,2.1c-2.4,0-3.5-2.4-4.2-4.5
	c-0.9-2.7-1.5-5.4-2.5-8.1c-1.2-3.1-3.4-5.6-4.4-8.7C234.8,218.2,237.8,215.2,241.5,215.5z M223.9,241.8c1.9,0.3,3.4,1.2,4.1,2.7
	c0.7,1.5,0.5,3.2-0.4,4.8c-0.9,1.7-2.4,3.2-4.3,4.2c-4,2.1-8.4,1.8-10.2-1c-0.9-1.4-0.7-3.1,0.1-4.8c0.8-1.7,2.4-3.4,4.5-4.5
	C219.8,242,222,241.6,223.9,241.8z M209.7,231.8c2.1-1.6,4.4-2.4,6.4-2.6c2-0.1,3.7,0.5,4.7,1.8c1.9,2.6,0.1,7-3.7,10
	c-1,0.7-2,1.3-3,1.7c-1,0.4-2,0.7-2.9,0.9c-1.9,0.2-3.7-0.2-4.7-1.5C204.2,239.7,205.6,235,209.7,231.8z M192.8,231.4
	c3.8-3.9,9.1-5.1,11.3-2.8s1.1,7.1-2.6,10.6c-3.5,3.7-8.4,5-10.8,3C188.2,240.2,189,235.3,192.8,231.4z M186.4,246.6L186.4,246.6
	c2.3-0.6,4.7-1,7-1.3c2.3-0.2,4.7-0.2,7-0.2c2.7,0,6-0.1,7.7,2.4c1.5,2.1,0.5,5.2-0.2,7.5c-1,3.1-2,6.1-3,9
	c-0.4,1.1-0.7,2.3-1.2,3.3c-0.7,1.5-1.7,2.8-3.2,3.3c-2.3,0.8-4.1-1.1-5.4-2.8c-1.7-2.3-3.2-4.6-5-6.8c-2.1-2.5-5-4.2-7-6.8
	C181,251.4,182.8,247.5,186.4,246.6z M183,278.5c2.3,2.3,1.4,6.7-1.7,10c-0.8,0.8-1.7,1.5-2.5,2s-1.8,0.9-2.6,1.2
	c-1.8,0.4-3.5,0.2-4.8-0.9c-2.4-2-2.1-6.9,1.3-10.3C176.1,276.9,180.8,276.1,183,278.5z M161.7,272.3c1.5-2.1,3.3-3.8,5.2-4.6
	c1.9-0.7,3.7-0.7,5,0.2c2.6,1.9,2.3,6.6-0.3,10.7c-2.8,4-6.9,6.2-9.8,4.5c-1.4-0.8-2.1-2.4-2.2-4.4
	C159.5,276.8,160.2,274.5,161.7,272.3z M145.5,277.4c2.4-4.9,6.9-7.7,9.8-6.3c2.9,1.4,3.3,6.4,1,11c-2.2,4.7-6.2,7.5-9.4,6.4
	C143.9,287.3,143.2,282.4,145.5,277.4z M144.4,293.9L144.4,293.9c2-1.3,4.1-2.5,6.2-3.5c2.2-1,4.4-1.8,6.5-2.5
	c2.5-0.9,5.7-2,8.1-0.2c2.1,1.6,2.1,4.8,2.2,7.2c0.1,3.2,0,6.3,0.1,9.5c0,1.2,0.1,2.4-0.1,3.5c-0.2,1.7-0.7,3.1-2,4.2
	c-1.9,1.5-4.2,0.3-6-0.9c-2.3-1.6-4.5-3.3-6.9-4.8c-2.8-1.7-6.1-2.3-8.8-4.2C140.8,300.2,141.2,295.9,144.4,293.9z M142.5,330.3
	L142.5,330.3c0.5-1.1,1.1-2.1,1.8-2.9c0.7-0.8,1.5-1.5,2.4-2c1.7-0.9,3.4-1.1,4.8-0.4c2.9,1.5,3.5,5.9,1.7,10
	c-1.9,4.1-5.6,6.6-8.6,5.4C141.6,339.4,140.5,334.8,142.5,330.3z M129.3,326.3c1.2-5.1,5.1-8.4,8.3-7.5c1.5,0.5,2.6,1.8,3.2,3.7
	c0.6,1.8,0.6,4.2,0,6.5c-0.6,2.4-1.8,4.3-3.2,5.7c-1.3,1.3-3,2.1-4.6,1.8C129.8,335.9,127.9,331.3,129.3,326.3z M115.7,336.3
	c0.7-5.4,4-9.6,7.3-9.2c1.7,0.2,2.9,1.4,3.7,3.2c0.9,1.8,1.2,4.2,0.9,6.8c-0.4,2.5-1.2,4.8-2.4,6.4c-1.2,1.7-2.8,2.6-4.4,2.6
	C117.4,346.2,115.1,341.8,115.7,336.3z M106.7,401.7c-1.2-5.3,0.7-10.3,3.9-11c3.2-0.7,6.4,3,7.5,8c0.6,2.5,0.4,5-0.2,6.9
	c-0.6,2-1.7,3.4-3.2,3.9C111.6,410.4,107.8,407,106.7,401.7z M115.8,415.4c0.8-2.3,1.8-4.5,2.9-6.6c0.6-1,1.1-2.1,1.7-3.1l1.9-2.9
	c1.5-2.3,3.3-5.1,6.2-5.1c2.7-0.1,4.7,2.4,6.2,4.3c2,2.5,4,5,5.9,7.4c0.7,0.9,1.5,1.8,2.1,2.9c0.8,1.4,1.5,2.9,1,4.5
	c-0.6,2.3-3.2,2.8-5.3,2.9c-2.8,0.1-5.6,0.2-8.4,0.5c-3.2,0.4-6.2,1.9-9.5,2.1C116.9,422.5,114.8,418.9,115.8,415.4z M129.3,471.2
	c-2.6,2-7.1-0.1-10-4.7c-2.8-4.7-2.7-10,0.1-11.7c2.8-1.7,7.2,0.7,9.7,5.1C131.8,464.3,131.9,469.2,129.3,471.2z M128.1,455.5
	c-1.7-1-3.3-2.9-4.3-5.3s-1.3-4.8-1-6.9c0.4-2,1.4-3.5,2.9-4.1c3.1-1.2,6.8,1.7,8.8,6.1c1.8,4.5,1.3,9.1-1.6,10.6
	C131.5,456.7,129.8,456.5,128.1,455.5z M138.9,481.5c-3.2,1.3-6.5-1.3-6.5-5c0-2.4,0.1-4.8,0.5-7.2c0.4-2.4,0.9-4.7,1.5-6.9
	c0.6-2.6,1.5-5.9,4.2-6.9c2.5-1,5.1,0.8,7.2,2c2.8,1.7,5.3,3.4,8,5.1c1,0.6,2,1.3,2.9,2c1.3,1,2.2,2.3,2.4,4c0.2,2.4-2.1,3.7-4,4.5
	c-2.6,1-5.3,2-7.8,3.2C144.2,477.9,141.9,480.2,138.9,481.5L138.9,481.5z M163.3,524.9L163.3,524.9c-1.8,2.7-6.7,2.3-11-1.2
	c-4.1-3.5-5.9-8.6-3.7-11.1c1-1.3,2.8-1.7,4.7-1.3c2,0.3,4.2,1.3,6.1,3c1.9,1.7,3.4,3.6,4.1,5.5
	C164.3,521.7,164.3,523.5,163.3,524.9z M188.3,518.4L188.3,518.4c-2.1,1.8-4.3,3.6-6.4,5.6c-2.3,2.3-3.7,5.3-6.2,7.5
	c-1.3,1.2-2.9,1.3-4.4,0.9c-1.5-0.6-2.8-1.8-3.4-3.5c-1.7-4.5-2.3-9.4-2.7-13.8c-0.3-2.7-0.4-6.1,1.8-7.9c2.1-1.7,5.1-0.9,7.5-0.4
	c3.2,0.7,6.2,1.5,9.2,2.3c1.1,0.2,2.3,0.6,3.4,0.9c1.5,0.6,2.9,1.4,3.5,3C191.7,515,189.9,517,188.3,518.4z M190.7,546.5
	L190.7,546.5c-0.9-1.8-1.1-3.6-0.2-5c1.7-2.8,6.4-2.9,10.7-0.6c2.1,1.2,3.8,2.8,4.8,4.5c1,1.7,1.3,3.4,0.6,4.9
	c-1.3,2.9-6.2,3.5-10.8,1c-1.2-0.6-2.1-1.3-3-2.1C191.8,548.3,191.1,547.4,190.7,546.5z M212.9,564.6L212.9,564.6
	c-0.9,3.1-5.7,4.3-10.8,2.4c-5.1-2-8.3-6.2-7.1-9.3c1.2-3.1,6-3.7,10.8-2c1.2,0.5,2.3,1,3.2,1.7c1,0.7,1.8,1.3,2.4,2.1
	C212.7,561.2,213.3,563,212.9,564.6z M234.4,550.4c-1.4,2.4-2.9,4.8-4.2,7.3c-1.5,2.9-1.8,6.2-3.4,9.1c-1.7,3.1-5.9,2.8-8.2,0
	c-3.1-3.7-5.1-8.1-7-12.2c-1.1-2.5-2.4-5.6-0.9-8.1c1.4-2.3,4.6-2.6,6.9-2.8c3.2-0.4,6.4-0.7,9.4-0.9c1.1-0.1,2.4-0.2,3.5-0.2
	c1.7,0,3.2,0.4,4.3,1.7C236.5,546.2,235.5,548.5,234.4,550.4z M243.9,571.6c0.7-3.2,5.1-5,9.9-4c4.8,0.7,8.4,3.9,8.1,7.1
	c-0.3,3.3-4.7,5.3-9.9,4.5C246.9,578.3,243.3,574.7,243.9,571.6z M270.1,590.2L270.1,590.2c-0.9,0.6-1.9,1-3.1,1.3
	c-1.2,0.2-2.4,0.4-3.8,0.4c-2.7-0.1-5.2-0.9-7-2c-1.8-1.2-2.8-2.8-2.8-4.4c0.1-1.7,1.2-3,2.9-4c0.9-0.5,1.9-0.8,3-1
	c1.1-0.2,2.4-0.4,3.7-0.4c2.6,0.1,4.9,0.8,6.6,1.8c1.7,1,2.9,2.4,2.9,4.1C272.8,587.6,271.8,589.1,270.1,590.2z M288.4,565.6
	c-0.6,2.8-1.2,5.5-1.6,8.3c-0.4,3.2,0.3,6.5-0.2,9.7c-0.6,3.4-4.7,4.6-7.8,2.7c-4.1-2.6-7.5-5.9-10.6-9.3c-1.8-2-4.1-4.5-3.5-7.3
	c0.6-2.6,3.5-3.9,5.6-4.9c2.9-1.2,5.8-2.8,8.6-3.9c1-0.4,2.1-0.9,3.2-1.3c1.6-0.6,3.1-0.7,4.7,0.1
	C289,560.8,288.8,563.5,288.4,565.6z M307.6,586.4L307.6,586.4c-1.8-0.9-3.1-2.2-3.2-3.9c-0.2-1.6,0.6-3.2,2.1-4.4s3.5-2.3,6-2.6
	c4.8-0.7,9.2,0.9,10,4.1c0.7,3.1-2.8,6.7-7.9,7.5C311.9,587.5,309.4,587.2,307.6,586.4z M329.1,595.5c-5.2,1.6-10.3,0.1-11.3-2.9
	c-0.9-3.1,2.4-6.8,7.3-8.1c4.9-1.5,9.7-0.5,11,2.6C337.4,590,334.3,593.8,329.1,595.5z M342,585.2L342,585.2
	c-2.3-0.6-4.6-1.3-6.8-2.2c-2.2-1-4.3-2-6.3-3.1c-2.4-1.2-5.3-2.9-5.6-5.8c-0.3-2.6,2.1-4.8,3.7-6.5c2.3-2.3,4.6-4.3,6.9-6.5
	c0.9-0.8,1.7-1.7,2.7-2.3c1.3-1,2.8-1.6,4.5-1.3c2.4,0.4,3.1,2.9,3.4,5c0.4,2.8,0.6,5.6,1.2,8.4c0.6,3.2,2.4,6.1,2.9,9.3
	C349.1,583.6,345.6,586.1,342,585.2z M360.2,558.8L360.2,558.8c-0.4-1.6,0.1-3.2,1.2-4.7c1.1-1.4,2.9-2.6,5-3.4
	c2.1-0.7,4.3-0.8,6.1-0.3c1.8,0.4,3.2,1.5,3.8,2.9c0.6,1.5,0.2,3.2-0.9,4.8c-1.1,1.5-2.9,2.9-5.3,3.7
	C365.5,563.5,361,561.9,360.2,558.8z M376,574.4c-1.2,0.6-2.3,1.1-3.5,1.3s-2.3,0.3-3.3,0.2c-2-0.2-3.6-1-4.3-2.5
	c-1.4-2.9,1.1-7,5.4-9.2c2.1-1.2,4.4-1.7,6.4-1.5c2,0.1,3.5,0.8,4.4,2.2c0.9,1.3,0.7,3.2-0.1,5C380.1,571.4,378.3,573.1,376,574.4z
	 M392.7,577.5c-2.2,1.6-4.7,2.4-6.8,2.6c-2.1,0.2-3.9-0.5-4.9-1.8c-1.9-2.6,0.2-7,4.3-10.1c4.2-2.9,9-3.7,11.2-1.2
	C398.7,569.5,397.1,574.3,392.7,577.5z M401.5,563.6c-1.2,0.1-2.4,0.2-3.5,0.2c-1.2,0-2.4-0.1-3.6-0.2c-2.4-0.2-4.7-0.5-6.9-0.8
	c-2.7-0.5-6-1-7.2-3.7c-1.2-2.4,0.4-5.3,1.5-7.3c1.5-2.9,2.9-5.7,4.4-8.4c0.6-1,1.1-2.1,1.8-3.1c0.9-1.3,2.1-2.5,3.7-2.8
	c2.4-0.4,3.9,1.8,4.8,3.7c1.3,2.5,2.4,5.1,3.9,7.5c1.7,2.9,4.2,5,5.8,7.8C407.7,559.9,405.1,563.2,401.5,563.6z M410,532.8
	c-1.8-2.7-0.4-6.9,3.2-9.7c3.5-2.8,8.1-3.1,10.2-0.7c2.1,2.5,0.8,7-3,10C416.6,535.4,411.9,535.4,410,532.8z M430.1,542.3
	L430.1,542.3c-3.5,3.9-8.5,5-10.8,2.7c-2.3-2.3-1.3-7,2.1-10.5c3.2-3.7,7.9-4.9,10.3-2.9C434.3,533.6,433.7,538.4,430.1,542.3z
	 M446.9,539.9L446.9,539.9c-1.6,2.2-3.5,3.9-5.5,4.7c-2,0.8-3.9,0.8-5.2-0.1c-2.7-2-2.1-6.7,0.8-11c3-4.2,7.4-6.4,10.2-4.7
	C449.9,530.4,450.1,535.4,446.9,539.9z M450.7,523.9L450.7,523.9c-2.1,1-4.5,1.8-6.8,2.4c-2.3,0.6-4.5,1.1-6.8,1.5
	c-2.7,0.4-6,1-8-1.1c-1.9-1.9-1.3-5.1-1-7.4c0.5-3.1,0.9-6.3,1.5-9.4c0.2-1.1,0.4-2.3,0.7-3.5c0.4-1.6,1.1-3,2.6-3.8
	c2.1-1.1,4.3,0.4,5.8,2c2,2,3.9,4,6.1,5.9c2.5,2.1,5.6,3.3,8,5.6C455.4,518.3,454,522.3,450.7,523.9z M448.8,491.9
	c-2.6-2-2.6-6.5-0.1-10.2c2.4-3.8,6.7-5.6,9.4-3.9c2.8,1.7,3,6.3,0.4,10.4C455.8,492.2,451.5,493.9,448.8,491.9z M470.9,494.4
	L470.9,494.4c-2.2,4.8-6.4,7.5-9.4,6c-2.9-1.4-3.5-6.2-1.5-10.6c1.9-4.5,5.8-7.2,8.9-6.1C472.1,484.9,473,489.6,470.9,494.4z
	 M464.9,479.9c-2.4-1.2-2.9-4.4-3.4-6.7c-0.5-3.1-1.2-6.2-1.7-9.3c-0.2-1.1-0.4-2.3-0.4-3.5c-0.1-1.7,0.1-3.2,1.2-4.5
	c1.7-1.8,4.2-1,6.1-0.1c2.5,1.2,5,2.5,7.6,3.5c3.1,1.2,6.4,1.3,9.4,2.6c3.2,1.4,3.2,5.6,0.7,8.2c-1.7,1.7-3.7,3.1-5.6,4.4
	c-2,1.3-3.9,2.5-6,3.6C470.4,479.6,467.5,481.2,464.9,479.9z M486,486.7c-1.5,5.3-5.6,8.8-8.7,7.8c-3.2-1-4.2-5.7-2.8-10.6
	c0.7-2.5,2-4.5,3.4-5.9c1.4-1.4,3.1-2.1,4.7-1.8C485.8,476.8,487.6,481.5,486,486.7z M493.9,435.9L493.9,435.9
	c-0.6,5.2-3.6,9.2-6.9,8.8c-1.6-0.2-2.9-1.4-3.7-3.1c-0.9-1.7-1.3-4-1.1-6.4c0.3-2.4,1-4.6,2.1-6.2c1.2-1.6,2.6-2.5,4.3-2.5
	C491.9,426.4,494.4,430.7,493.9,435.9z M500.1,433.9L500.1,433.9c-3.2,0.1-5.9-4-6.1-9.1c-0.4-5.1,2-9.5,5.1-10
	c3.2-0.5,6.3,3.4,6.5,8.9c0.2,2.8-0.4,5.3-1.5,7.1C503.2,432.7,501.7,433.9,500.1,433.9z"/>
</svg>
