<?xml version="1.0" encoding="UTF-8" standalone="no"?>
<svg
   xmlns:dc="http://purl.org/dc/elements/1.1/"
   xmlns:cc="http://creativecommons.org/ns#"
   xmlns:rdf="http://www.w3.org/1999/02/22-rdf-syntax-ns#"
   xmlns:svg="http://www.w3.org/2000/svg"
   xmlns="http://www.w3.org/2000/svg"
   xmlns:sodipodi="http://sodipodi.sourceforge.net/DTD/sodipodi-0.dtd"
   xmlns:inkscape="http://www.inkscape.org/namespaces/inkscape"
   version="1.1"
   id="Layer_1"
   x="0px"
   y="0px"
   viewBox="167.24563598632812 336.60003662109375 665.5088500976562 326.79998779296875"
   width="100%"
   height="100%"
   style="enable-background:new 0 0 1000 1000;"
   xml:space="preserve"
   ><style
     type="text/css"
     id="style3">
	.st0{fill:#FFFFFF;}
</style><switch
     id="switch5"
     transform="translate(8.7968455,-16)"><g
       id="g7"><g
         id="g9"><g
           id="g11"><g
             id="g13"><path
               d="m 823.9,596.7 c -1.3,-38.9 -21.5,-72.6 -50.2,-80.8 27.9,-8.5 51.5,-42.1 50.2,-80.6 -1.5,-44.8 -28,-82.7 -63.8,-82.7 -33.4,0 -65.3,38 -63.8,82.7 0.2,4.8 0.6,9.5 1.4,14.1 -137.4,0 -274.8,0 -412.2,0 0.6,-4.6 0.8,-9.3 0.6,-14.1 -1.5,-44.8 -28,-82.7 -63.8,-82.7 -33.4,0 -65.3,38 -63.8,82.7 1.3,38.9 21.5,72.6 50.2,80.8 -27.9,8.5 -51.5,42.1 -50.2,80.6 1.5,44.8 28,82.7 63.8,82.7 33.4,0 65.3,-38 63.8,-82.7 -0.2,-5 -0.7,-9.9 -1.5,-14.7 137.5,0 274.9,0 412.4,0 -0.6,4.8 -0.9,9.7 -0.7,14.7 1.5,44.8 28,82.7 63.8,82.7 33.4,0 65.4,-38 63.8,-82.7 z"
               id="path15"
               inkscape:connector-curvature="0" /></g></g><g
           id="g17"><path
             class="st0"
             d="m 698.7,556.7 -414.9,0 0,-81.3 414.9,0 0,81.3 z m -411.7,-3.2 408.5,0 0,-74.9 -408.5,0 0,74.9 z"
             id="path19"
             inkscape:connector-curvature="0"
             style="fill:#ffffff" /></g></g></g></switch></svg>