<?xml version="1.0" encoding="UTF-8" standalone="no"?>
<svg
   xmlns:dc="http://purl.org/dc/elements/1.1/"
   xmlns:cc="http://creativecommons.org/ns#"
   xmlns:rdf="http://www.w3.org/1999/02/22-rdf-syntax-ns#"
   xmlns:svg="http://www.w3.org/2000/svg"
   xmlns="http://www.w3.org/2000/svg"
   xmlns:sodipodi="http://sodipodi.sourceforge.net/DTD/sodipodi-0.dtd"
   xmlns:inkscape="http://www.inkscape.org/namespaces/inkscape"
   version="1.1"
   id="Layer_1"
   x="0px"
   y="0px"
   viewBox="0 0 1000 1000"
   width="100%"
   height="100%"
   style="enable-background:new 0 0 1000 1000;"
   xml:space="preserve"
   ><switch
     id="switch3"
     transform="translate(-9.95,-15)"><g
       id="g5"><g
         id="g7"><path
           d="m 873.4,548 c -5.2,-0.3 -10.2,0.8 -14.1,2.7 -4.1,1.9 -7.3,4.8 -8.8,8.4 -0.7,-3.8 -3,-7.4 -6.6,-10.1 -3.6,-2.7 -8.3,-4.5 -13.5,-4.8 -6,-0.3 -11.6,0.8 -15.9,3 -4.4,2.2 -7.3,5.4 -7.8,9.4 -0.9,7.4 7.5,16.4 19.4,18.4 1.3,0.2 2.6,0.3 3.9,0.4 -6.1,33.4 -17.9,65.7 -34,95.5 -1.1,-0.7 -2.2,-1.4 -3.4,-2 -10.8,-5.3 -22.7,-5 -26.7,2 -4.1,6.3 0.5,18.2 10.5,24.6 8.8,5.7 19,6.3 25,1.1 -2,7.3 2.1,17.6 10.8,23.1 10.2,6.5 22.7,5.6 28.5,-3.3 5,-8.6 0.7,-21.6 -10.1,-26.8 -1.2,-0.6 -2.3,-1.1 -3.5,-1.5 17.9,-33.1 30.9,-68.9 37.8,-105.9 1.2,0.4 2.4,0.7 3.7,0.9 11.7,1.9 23.4,-3.9 24.8,-14.4 0.6,-4.9 -1.3,-9.9 -4.9,-13.8 -3.8,-4 -9.2,-6.6 -15.1,-6.9 z"
           id="path9"
           inkscape:connector-curvature="0" /><path
           d="m 784.5,755.3 c -8.1,-6.6 -18.3,-8.4 -25.1,-4.6 3.5,-6.8 0.6,-17.4 -7.4,-23.9 -9.3,-7.5 -20.8,-9.6 -26.5,-3.9 -2.6,2.8 -3.4,7.2 -2.6,12 0.8,4.8 3.3,10.1 7.5,14.3 1,0.9 1.9,1.8 3,2.6 -24.6,23.4 -53.1,42.7 -83.7,57.4 -0.4,-1.2 -0.9,-2.4 -1.5,-3.6 -5.6,-10.7 -15.4,-17.3 -22.7,-14.1 -7,2.7 -10.2,15 -6,26.1 3.8,9.8 11.7,16.3 19.5,15.6 -5.8,4.8 -8.6,15.5 -4.8,25 4.4,11.3 15.1,17.9 25,14 9.1,-3.9 13.2,-17.1 7.6,-27.6 -0.6,-1.1 -1.3,-2.2 -2,-3.3 34,-16.3 65.5,-37.6 92.8,-63.5 0.7,1 1.6,2 2.5,2.9 4.3,4.2 9.5,6.9 14.7,7.5 5.2,0.7 10.3,-0.7 13.8,-4.6 6.9,-7 5.3,-20.8 -4.1,-28.3 z"
           id="path11"
           inkscape:connector-curvature="0" /><path
           d="m 573.3,852.4 c 6.8,-3.4 10.7,-13.8 8,-23.7 -3.1,-11.6 -11.2,-20 -19.1,-18.7 -7.3,1.5 -13.3,12.2 -11.6,24.1 0.2,1.3 0.5,2.6 0.9,3.9 -8.4,1.3 -16.9,1.7 -25.4,2.3 -8.5,0.2 -17,0.6 -25.5,0.2 -17,-0.5 -33.9,-2.1 -50.6,-5.4 0.4,-1.2 0.7,-2.5 0.9,-3.8 1.7,-11.9 -2.4,-22.8 -10.1,-24.8 -7.3,-1.5 -17,5.9 -20.1,17.6 -2.6,10 -0.2,20.3 6.6,24.2 -7.6,0.6 -16,7.3 -18.6,17.3 -3,11.5 1.6,23.8 12,26 9.6,2.4 20.7,-6 22.4,-17.9 0.2,-1.3 0.3,-2.5 0.3,-3.8 18.5,3.6 37.3,5.4 56.1,6 18.8,0.7 37.6,-0.3 56.3,-2.7 0,1.2 0.1,2.5 0.3,3.8 1.8,11.8 10.9,21.2 21.3,19.2 9.8,-1.6 16.7,-13.7 13.5,-25.3 -2.8,-10.2 -9.9,-17.5 -17.6,-18.5 z"
           id="path13"
           inkscape:connector-curvature="0" /><path
           d="m 378.8,784.4 c -6.6,-3.4 -18.1,2.2 -23.5,12.7 -0.6,1.2 -1.1,2.4 -1.6,3.6 -29.7,-16.5 -57.1,-37.2 -80.3,-62.1 1,-0.8 2,-1.6 3,-2.6 8.4,-8.6 11.5,-19.8 6.3,-26 -5,-5.5 -17.3,-5.2 -26.7,2.4 -8,6.6 -12.1,16.3 -8.8,23.5 -6.4,-4 -17.2,-3.5 -25.2,3.1 -9.2,7.6 -12.7,20.2 -5.6,28.1 6.4,7.6 20.3,7.3 28.6,-1.3 0.9,-0.9 1.7,-1.9 2.5,-2.9 25.7,27.5 56,50.5 88.9,68.8 -0.7,1 -1.4,2.1 -2,3.2 -5.5,10.8 -3.5,23.2 6,28 9,4.3 21.6,-1.4 25.8,-12.5 3.7,-9.7 2.4,-20.2 -3.4,-25.3 7.7,1 16.7,-4.8 20.4,-14.4 4.4,-11.1 2.9,-22.8 -4.4,-26.3 z"
           id="path15"
           inkscape:connector-curvature="0" /><path
           d="m 233.6,679.8 c 10.1,-6.6 15.7,-16.9 11.9,-24 -3.4,-6.6 -15.9,-8.8 -26.5,-3.5 -1.2,0.6 -2.3,1.3 -3.4,2 -14.4,-30.7 -24.3,-63.6 -28.5,-97.3 1.3,0 2.6,-0.1 3.9,-0.3 11.9,-2 20.9,-9.2 20.4,-17.3 -0.3,-3.8 -3.2,-7.3 -7.3,-9.9 -4.1,-2.6 -9.7,-4.2 -15.6,-3.9 -10.4,0.6 -19.4,6.1 -20.9,13.8 -3,-7 -11.9,-13 -22.2,-12.4 -12,0.7 -22,8.8 -21.1,19.4 0.6,9.9 12.2,17.9 23.9,15.8 1.3,-0.2 2.5,-0.5 3.7,-0.9 4.6,37.4 15.6,73.9 31.5,108 -1.2,0.4 -2.3,0.9 -3.5,1.5 -10.8,5.5 -16.5,16.8 -11.6,26.2 4.7,8.7 18.3,11.5 28.2,5 8.7,-5.7 13.8,-14.9 12,-22.4 5.7,5.2 16.4,5.8 25.1,0.2 z"
           id="path17"
           inkscape:connector-curvature="0" /><path
           d="m 146.5,482 c 5.2,0.3 10.2,-0.8 14.1,-2.7 4.1,-1.9 7.3,-4.8 8.8,-8.4 0.7,3.8 3,7.4 6.6,10.1 3.6,2.7 8.3,4.5 13.5,4.8 6,0.3 11.6,-0.8 15.9,-3 4.4,-2.2 7.3,-5.4 7.8,-9.4 0.9,-7.4 -7.5,-16.4 -19.4,-18.4 -1.3,-0.2 -2.6,-0.3 -3.9,-0.4 6.1,-33.4 17.9,-65.7 34,-95.5 1.1,0.7 2.2,1.4 3.4,2 10.8,5.3 22.7,5 26.7,-2 4.1,-6.3 -0.5,-18.2 -10.5,-24.6 -8.8,-5.7 -19,-6.3 -25,-1.1 2,-7.3 -2.1,-17.6 -10.8,-23.1 -10.2,-6.5 -22.7,-5.6 -28.5,3.3 -5,8.6 -0.7,21.6 10.1,26.8 1.2,0.6 2.3,1.1 3.5,1.5 -17.9,33.1 -30.9,68.9 -37.8,105.9 -1.2,-0.4 -2.4,-0.7 -3.7,-0.9 -11.7,-1.9 -23.4,3.9 -24.8,14.4 -0.6,4.9 1.3,9.9 4.9,13.8 3.8,4 9.2,6.6 15.1,6.9 z"
           id="path19"
           inkscape:connector-curvature="0" /><path
           d="m 380.9,196.8 c 5.8,-4.8 8.6,-15.5 4.8,-25 -4.4,-11.3 -15.1,-17.9 -25,-14 -9.1,3.9 -13.2,17.1 -7.6,27.6 0.6,1.1 1.3,2.2 2,3.3 -34,16.3 -65.5,37.6 -92.8,63.5 -0.7,-1 -1.6,-2 -2.5,-2.9 -4.3,-4.2 -9.5,-6.9 -14.7,-7.5 -5.2,-0.7 -10.3,0.7 -13.8,4.6 -7,7.1 -5.4,20.9 4,28.4 8.1,6.6 18.3,8.4 25.1,4.6 -3.5,6.8 -0.6,17.4 7.4,23.9 9.3,7.5 20.8,9.6 26.5,3.9 2.6,-2.8 3.4,-7.2 2.6,-12 -0.8,-4.8 -3.3,-10.1 -7.5,-14.3 -1,-0.9 -1.9,-1.8 -3,-2.6 24.6,-23.4 53.1,-42.7 83.7,-57.4 0.4,1.2 0.9,2.4 1.5,3.6 5.6,10.7 15.4,17.3 22.7,14.1 7,-2.7 10.2,-15 6,-26.1 -3.7,-9.9 -11.6,-16.4 -19.4,-15.7 z"
           id="path21"
           inkscape:connector-curvature="0" /><path
           d="m 599.2,138.4 c -9.6,-2.4 -20.7,6 -22.4,17.9 -0.2,1.3 -0.3,2.5 -0.3,3.8 -18.5,-3.6 -37.3,-5.4 -56.1,-6 -18.8,-0.7 -37.6,0.3 -56.3,2.7 0,-1.2 -0.1,-2.5 -0.3,-3.8 -1.8,-11.8 -10.9,-21.2 -21.3,-19.2 -9.8,1.6 -16.7,13.7 -13.5,25.3 2.7,10.1 9.8,17.5 17.6,18.4 -6.8,3.4 -10.7,13.8 -8,23.7 3.1,11.6 11.2,20 19.1,18.7 7.3,-1.5 13.3,-12.2 11.6,-24.1 -0.2,-1.3 -0.5,-2.6 -0.9,-3.9 8.4,-1.3 16.9,-1.7 25.4,-2.3 8.5,-0.2 17,-0.6 25.5,-0.2 17,0.5 33.9,2.1 50.6,5.4 -0.4,1.2 -0.7,2.5 -0.9,3.8 -1.7,11.9 2.4,22.8 10.1,24.8 7.3,1.5 17,-5.9 20.1,-17.6 2.6,-10 0.2,-20.3 -6.6,-24.2 7.6,-0.6 16,-7.3 18.6,-17.3 3,-11.4 -1.6,-23.7 -12,-25.9 z"
           id="path23"
           inkscape:connector-curvature="0" /><path
           d="m 641.1,245.6 c 6.6,3.4 18.1,-2.2 23.5,-12.7 0.6,-1.2 1.1,-2.4 1.6,-3.6 29.7,16.5 57.1,37.2 80.3,62.1 -1,0.8 -2,1.6 -3,2.6 -8.4,8.6 -11.5,19.8 -6.3,26 5,5.5 17.3,5.2 26.7,-2.4 8,-6.6 12.1,-16.3 8.8,-23.5 6.4,4 17.2,3.5 25.2,-3.1 9.2,-7.6 12.7,-20.2 5.6,-28.1 -6.4,-7.6 -20.3,-7.3 -28.6,1.3 -0.9,0.9 -1.7,1.9 -2.5,2.9 -25.7,-27.5 -56,-50.5 -88.9,-68.8 0.7,-1 1.4,-2.1 2,-3.2 5.5,-10.8 3.5,-23.2 -6,-28 -9,-4.3 -21.6,1.4 -25.8,12.5 -3.7,9.7 -2.4,20.2 3.4,25.3 -7.7,-1 -16.7,4.8 -20.4,14.4 -4.4,11.1 -2.9,22.8 4.4,26.3 z"
           id="path25"
           inkscape:connector-curvature="0" /><path
           d="m 786.3,350.2 c -10.1,6.6 -15.7,16.9 -11.9,24 3.4,6.6 15.9,8.8 26.5,3.5 1.2,-0.6 2.3,-1.3 3.4,-2 14.4,30.7 24.3,63.6 28.5,97.3 -1.3,0 -2.6,0.1 -3.9,0.3 -11.9,2 -20.9,9.2 -20.4,17.3 0.3,3.8 3.2,7.3 7.3,9.9 4.1,2.6 9.7,4.2 15.6,3.9 10.4,-0.6 19.4,-6.1 20.9,-13.8 3,7 11.9,13 22.2,12.4 12,-0.7 22,-8.8 21.1,-19.4 -0.6,-9.9 -12.2,-17.9 -23.9,-15.8 -1.3,0.2 -2.5,0.5 -3.7,0.9 -4.6,-37.4 -15.6,-73.9 -31.5,-108 1.2,-0.4 2.3,-0.9 3.5,-1.5 10.8,-5.5 16.5,-16.8 11.6,-26.2 -4.7,-8.7 -18.3,-11.5 -28.2,-5 -8.7,5.7 -13.8,14.9 -12,22.4 -5.7,-5.2 -16.4,-5.8 -25.1,-0.2 z"
           id="path27"
           inkscape:connector-curvature="0" /></g></g></switch></svg>