<?xml version="1.0" encoding="UTF-8" standalone="no"?>
<svg
   xmlns:dc="http://purl.org/dc/elements/1.1/"
   xmlns:cc="http://creativecommons.org/ns#"
   xmlns:rdf="http://www.w3.org/1999/02/22-rdf-syntax-ns#"
   xmlns:svg="http://www.w3.org/2000/svg"
   xmlns="http://www.w3.org/2000/svg"
   xmlns:sodipodi="http://sodipodi.sourceforge.net/DTD/sodipodi-0.dtd"
   xmlns:inkscape="http://www.inkscape.org/namespaces/inkscape"
   version="1.1"
   id="l9"
   x="0px"
   y="0px"
    class="withFill"
   viewBox="147.75 153.15000915527344 704.5 693.7000122070312"
   width="100%"
   height="100%"
   style="enable-background:new 0 0 1000 1000;"
   xml:space="preserve"
   ><style
     type="text/css"
     id="style3">
	#l9 .st0{fill:#9E9E9E;}
	#l9 .st1{fill:#FFFFFF;}
</style><switch
     id="switch5"
     transform="translate(24.25,17.85)"><g
       id="g7"><g
         id="g9"><g
           id="g11"><polygon
             class="st0"
             points="705.7,219 728.3,347.2 828,430.8 762.9,543.6 785.5,671.8 663.2,716.3 598.1,829 475.8,784.5 353.4,829 288.3,716.3 166,671.8 188.6,543.6 123.5,430.8 223.3,347.2 245.9,219 376,219 475.8,135.3 575.5,219 "
             id="polygon13"
             style="fill:#9e9e9e" /></g><g
           id="g15"><path
             class="st1"
             d="M 582.6,785.1 475.7,746.2 368.8,785.1 312,686.6 205.1,647.7 l 19.7,-112 -56.9,-98.5 87.1,-73.1 19.7,-112 113.7,0 87.1,-73.1 87.1,73.1 113.7,0 19.7,112 87.1,73.1 -56.9,98.5 19.7,112 -106.9,38.9 -56.4,98.5 z m -372.2,-140.4 104.8,38.1 0.4,0.7 55.3,95.8 104.8,-38.1 0.8,0.3 104,37.8 55.8,-96.6 104.8,-38.1 -19.4,-109.8 0.4,-0.7 55.3,-95.8 -85.4,-71.7 -0.1,-0.8 -19.2,-109 -111.5,0 -0.6,-0.5 -84.8,-71.1 -85.4,71.7 -111.6,0 -19.4,109.8 -0.6,0.5 -84.8,71.1 55.8,96.6 -19.4,109.8 z"
             id="path17"
             inkscape:connector-curvature="0"
             style="fill:#ffffff" /></g></g></g></switch></svg>