<?xml version="1.0" encoding="UTF-8" standalone="no"?>
<svg
   xmlns:dc="http://purl.org/dc/elements/1.1/"
   xmlns:cc="http://creativecommons.org/ns#"
   xmlns:rdf="http://www.w3.org/1999/02/22-rdf-syntax-ns#"
   xmlns:svg="http://www.w3.org/2000/svg"
   xmlns="http://www.w3.org/2000/svg"
   xmlns:sodipodi="http://sodipodi.sourceforge.net/DTD/sodipodi-0.dtd"
   xmlns:inkscape="http://www.inkscape.org/namespaces/inkscape"
   version="1.1"
   id="Layer_1"
   x="0px"
   y="0px"
   viewBox="0 0 1000 1000"
   width="100%"
   height="100%"
   style="enable-background:new 0 0 1000 1000;"
   xml:space="preserve"
   ><switch
     id="switch3"
     transform="translate(-93.5,-25.6)"><g
       id="g5"><path
         d="m 593.5,170.2 c -196.3,0 -355.4,159.1 -355.4,355.4 0,196.3 159.1,355.4 355.4,355.4 196.3,0 355.4,-159.1 355.4,-355.4 0,-196.3 -159.1,-355.4 -355.4,-355.4 z m 277.8,189.7 c 8.8,-5.8 20.9,-3.4 25,4.4 4.3,8.4 -0.7,18.4 -10.3,23.2 -1,0.5 -2.1,0.9 -3.1,1.3 14.2,30.2 23.9,62.6 28,95.7 1.1,-0.3 2.2,-0.6 3.3,-0.8 10.4,-1.8 20.7,5.2 21.2,14 0.8,9.4 -8,16.6 -18.7,17.2 -9.2,0.6 -17.1,-4.7 -19.7,-11 -1.3,6.8 -9.4,11.7 -18.6,12.2 -5.3,0.3 -10.2,-1.1 -13.9,-3.4 -3.6,-2.3 -6.2,-5.4 -6.5,-8.8 -0.4,-7.1 7.5,-13.5 18.1,-15.3 1.2,-0.2 2.3,-0.3 3.5,-0.3 -3.7,-29.9 -12.5,-59 -25.2,-86.3 -1,0.6 -2,1.2 -3,1.8 -9.4,4.7 -20.5,2.8 -23.5,-3.1 -3.4,-6.3 1.6,-15.4 10.5,-21.3 7.7,-5 17.2,-4.4 22.2,0.2 -1.5,-6.5 3,-14.6 10.7,-19.7 z M 705.8,263.4 c 3.3,-8.5 11.3,-13.7 18.1,-12.8 -5.2,-4.5 -6.3,-13.8 -3,-22.4 3.7,-9.9 14.9,-14.9 22.8,-11.1 8.4,4.3 10.2,15.3 5.3,24.8 -0.5,1 -1.1,2 -1.8,2.9 29.2,16.2 56,36.6 78.8,61 0.7,-0.9 1.4,-1.7 2.2,-2.5 7.4,-7.6 19.7,-7.9 25.4,-1.2 6.3,7 3.2,18.2 -5,24.9 -7.1,5.9 -16.6,6.3 -22.4,2.7 2.9,6.3 -0.8,15 -7.8,20.8 -8.3,6.7 -19.2,7 -23.6,2.1 -4.6,-5.5 -1.8,-15.4 5.6,-23 0.8,-0.8 1.7,-1.6 2.6,-2.3 -20.6,-22 -44.9,-40.4 -71.2,-55 -0.4,1.1 -0.9,2.2 -1.4,3.2 -4.9,9.3 -15,14.3 -20.9,11.3 -6.2,-3 -7.5,-13.4 -3.7,-23.4 z m -452,214.7 c 1.2,-9.3 11.6,-14.4 22,-12.8 1.1,0.2 2.2,0.4 3.3,0.8 6.1,-32.8 17.6,-64.6 33.5,-93.9 -1,-0.4 -2.1,-0.8 -3.1,-1.3 -9.5,-4.6 -13.4,-16.2 -8.9,-23.8 5.1,-7.9 16.2,-8.7 25.2,-2.9 7.7,4.9 11.3,14 9.5,20.5 5.3,-4.6 14.3,-4 22.1,1 8.8,5.7 12.9,16.3 9.3,21.8 -3.6,6.2 -14.1,6.5 -23.7,1.7 -1.1,-0.5 -2.1,-1.1 -3,-1.8 -14.3,26.5 -24.7,55.1 -30.1,84.7 1.1,0 2.3,0.2 3.5,0.3 10.5,1.8 18,9.7 17.2,16.3 -0.4,3.6 -3.1,6.4 -6.9,8.3 -3.8,1.9 -8.7,3 -14.1,2.7 -4.6,-0.3 -8.7,-1.9 -11.9,-4.3 -3.1,-2.4 -5.2,-5.6 -5.8,-9 -1.4,3.2 -4.2,5.7 -7.8,7.4 -3.5,1.7 -7.9,2.6 -12.5,2.4 -5.3,-0.3 -10.1,-2.6 -13.3,-6 -3.4,-3.3 -5.1,-7.8 -4.5,-12.1 z m 61.9,213.2 c -8.8,5.8 -20.9,3.4 -25,-4.4 -4.3,-8.4 0.7,-18.4 10.3,-23.2 1,-0.5 2.1,-0.9 3.1,-1.3 -14.2,-30.2 -23.9,-62.6 -28,-95.7 -1.1,0.3 -2.2,0.6 -3.3,0.8 -10.4,1.8 -20.7,-5.2 -21.2,-14 -0.8,-9.4 8,-16.6 18.7,-17.2 9.2,-0.6 17.1,4.7 19.7,11 1.3,-6.8 9.4,-11.7 18.6,-12.2 5.3,-0.3 10.2,1.1 13.9,3.4 3.6,2.3 6.2,5.4 6.5,8.8 0.4,7.1 -7.5,13.5 -18.1,15.3 -1.2,0.2 -2.3,0.3 -3.5,0.3 3.7,29.9 12.5,59 25.2,86.3 1,-0.6 2,-1.2 3,-1.8 9.4,-4.7 20.5,-2.8 23.5,3.1 3.4,6.3 -1.6,15.4 -10.5,21.3 -7.7,5 -17.2,4.4 -22.2,-0.2 1.6,6.4 -3,14.6 -10.7,19.7 z m 165.5,96.5 c -3.3,8.5 -11.3,13.7 -18.1,12.8 5.2,4.5 6.3,13.8 3,22.4 -3.7,9.9 -14.9,14.9 -22.8,11.1 -8.4,-4.3 -10.2,-15.3 -5.3,-24.8 0.5,-1 1.1,-2 1.8,-2.9 -29.2,-16.2 -56,-36.6 -78.8,-61 -0.7,0.9 -1.4,1.7 -2.2,2.5 -7.4,7.6 -19.7,7.9 -25.4,1.2 -6.3,-7 -3.2,-18.2 5,-24.9 7.1,-5.9 16.6,-6.3 22.4,-2.7 -2.9,-6.3 0.8,-15 7.8,-20.8 8.3,-6.7 19.2,-7 23.6,-2.1 4.6,5.5 1.8,15.4 -5.6,23 -0.8,0.8 -1.7,1.6 -2.6,2.3 20.6,22 44.9,40.4 71.2,55 0.4,-1.1 0.9,-2.2 1.4,-3.2 4.9,-9.3 15,-14.3 20.9,-11.3 6.2,3 7.5,13.4 3.7,23.4 z m 10,-507.3 c -6.5,2.8 -15.2,-3 -20.2,-12.5 -0.5,-1.1 -1,-2.1 -1.4,-3.2 -27.1,13 -52.3,30.1 -74.2,50.9 0.9,0.7 1.8,1.5 2.6,2.3 3.7,3.7 5.9,8.4 6.6,12.7 0.7,4.2 -0.1,8.1 -2.3,10.6 -5,5.1 -15.2,3.2 -23.5,-3.5 -7.1,-5.7 -9.7,-15.1 -6.6,-21.2 -6,3.4 -15,1.8 -22.2,-4.1 -8.3,-6.6 -9.7,-18.9 -3.5,-25.1 3.2,-3.4 7.7,-4.7 12.3,-4.1 4.6,0.6 9.2,2.9 13,6.7 0.8,0.8 1.5,1.7 2.2,2.5 24.2,-23 52.1,-41.9 82.2,-56.3 -0.6,-0.9 -1.2,-1.9 -1.7,-2.9 -5,-9.3 -1.3,-21 6.7,-24.5 8.8,-3.4 18.2,2.4 22.2,12.4 3.3,8.4 0.9,18 -4.3,22.2 7,-0.6 13.9,5.1 17.3,13.8 3.8,9.9 0.9,20.9 -5.2,23.3 z m 162.1,582.9 c -9.2,1.8 -17.3,-6.6 -18.9,-17 -0.2,-1.1 -0.3,-2.2 -0.3,-3.3 -16.5,2.1 -33.2,3 -49.9,2.4 -16.7,-0.5 -33.3,-2.1 -49.7,-5.3 0,1.1 -0.1,2.2 -0.3,3.4 -1.5,10.5 -11.3,18 -19.8,15.9 -9.2,-2 -13.3,-12.9 -10.6,-23.1 2.3,-8.9 9.8,-14.9 16.5,-15.3 -6,-3.4 -8.2,-12.6 -5.9,-21.4 2.7,-10.3 11.4,-16.9 17.8,-15.6 6.9,1.7 10.5,11.4 9,21.9 -0.2,1.2 -0.4,2.3 -0.8,3.4 14.8,2.9 29.8,4.3 44.9,4.7 7.5,0.4 15.1,0 22.6,-0.2 7.5,-0.6 15,-0.9 22.5,-2.1 -0.3,-1.1 -0.6,-2.3 -0.8,-3.4 -1.6,-10.6 3.8,-20.1 10.2,-21.4 7,-1.1 14.2,6.3 16.9,16.6 2.3,8.8 -1.1,18 -7.1,21 6.9,0.9 13.2,7.4 15.6,16.3 2.9,10.3 -3.2,21.1 -11.9,22.5 z m 30,-648.6 c -2.3,8.9 -9.8,14.9 -16.5,15.3 6,3.4 8.2,12.6 5.9,21.4 -2.7,10.3 -11.4,16.9 -17.8,15.6 -6.9,-1.7 -10.5,-11.4 -9,-21.9 0.2,-1.2 0.4,-2.3 0.8,-3.4 -14.8,-2.9 -29.8,-4.3 -44.9,-4.7 -7.5,-0.4 -15.1,0 -22.6,0.2 -7.5,0.6 -15,0.9 -22.5,2.1 0.3,1.1 0.6,2.3 0.8,3.4 1.6,10.6 -3.8,20.1 -10.2,21.4 -7,1.1 -14.2,-6.3 -16.9,-16.6 -2.3,-8.8 1.1,-18 7.1,-21 -6.9,-0.9 -13.2,-7.4 -15.6,-16.3 -2.8,-10.2 3.3,-21 12,-22.4 9.2,-1.8 17.3,6.6 18.9,17 0.2,1.1 0.3,2.2 0.3,3.3 16.5,-2.1 33.2,-3 49.9,-2.4 16.7,0.5 33.3,2.1 49.7,5.3 0,-1.1 0.1,-2.2 0.3,-3.4 1.5,-10.5 11.3,-18 19.8,-15.9 9,1.9 13.1,12.8 10.5,23 z m 157.1,548.9 c -3.2,3.4 -7.7,4.7 -12.3,4.1 -4.6,-0.6 -9.2,-2.9 -13,-6.7 -0.8,-0.8 -1.5,-1.7 -2.2,-2.5 -24.2,23 -52.1,41.9 -82.2,56.3 0.6,0.9 1.2,1.9 1.7,2.9 5,9.3 1.3,21 -6.7,24.5 -8.8,3.4 -18.2,-2.4 -22.2,-12.4 -3.3,-8.4 -0.9,-18 4.3,-22.2 -7,0.6 -13.9,-5.1 -17.3,-13.8 -3.8,-9.8 -0.9,-20.7 5.3,-23.1 6.5,-2.8 15.2,3 20.2,12.5 0.5,1.1 1,2.1 1.4,3.2 27.1,-13 52.3,-30.1 74.2,-50.9 -0.9,-0.7 -1.8,-1.5 -2.6,-2.3 -3.7,-3.7 -5.9,-8.4 -6.6,-12.7 -0.7,-4.2 0.1,-8.1 2.3,-10.6 5,-5.1 15.2,-3.2 23.5,3.5 7.1,5.7 9.7,15.1 6.6,21.2 6,-3.4 15,-1.8 22.2,4.1 8.2,6.4 9.6,18.6 3.4,24.9 z m 92.9,-190.6 c -1.2,9.3 -11.6,14.4 -22,12.8 -1.1,-0.2 -2.2,-0.4 -3.3,-0.8 -6.1,32.8 -17.6,64.6 -33.5,93.9 1,0.4 2.1,0.8 3.1,1.3 9.5,4.6 13.4,16.2 8.9,23.8 -5.1,7.9 -16.2,8.7 -25.2,2.9 -7.7,-4.9 -11.3,-14 -9.5,-20.5 -5.3,4.6 -14.3,4 -22.1,-1 -8.8,-5.7 -12.9,-16.3 -9.3,-21.8 3.6,-6.2 14.1,-6.5 23.7,-1.7 1.1,0.5 2.1,1.1 3,1.8 14.3,-26.5 24.7,-55.1 30.1,-84.7 -1.1,0 -2.3,-0.2 -3.5,-0.3 -10.5,-1.8 -18,-9.7 -17.2,-16.3 0.4,-3.6 3.1,-6.4 6.9,-8.3 3.8,-1.9 8.7,-3 14.1,-2.7 4.6,0.3 8.7,1.9 11.9,4.3 3.1,2.4 5.2,5.6 5.8,9 1.4,-3.2 4.2,-5.7 7.8,-7.4 3.5,-1.7 7.9,-2.6 12.5,-2.4 5.3,0.3 10.1,2.6 13.3,6 3.3,3.3 5,7.8 4.5,12.1 z"
         id="path7"
         inkscape:connector-curvature="0" /></g></switch></svg>