<?xml version="1.0" encoding="utf-8"?>
<!-- Generator: Adobe Illustrator 21.1.0, SVG Export Plug-In . SVG Version: 6.00 Build 0)  -->
<svg version="1.1"
	 id="l91" xmlns:cc="http://creativecommons.org/ns#" xmlns:dc="http://purl.org/dc/elements/1.1/" xmlns:inkscape="http://www.inkscape.org/namespaces/inkscape" xmlns:rdf="http://www.w3.org/1999/02/22-rdf-syntax-ns#" xmlns:sodipodi="http://sodipodi.sourceforge.net/DTD/sodipodi-0.dtd" xmlns:svg="http://www.w3.org/2000/svg"
	 xmlns="http://www.w3.org/2000/svg" xmlns:xlink="http://www.w3.org/1999/xlink" x="0px" y="0px" viewBox="148.10000610351562 81.69999694824219 315.8999938964844 452.29998779296875"
	 style="enable-background:new 0 0 612 792;" xml:space="preserve">
<style type="text/css">
	#l91 .st0{fill:#10793E;}
	#l91 .st1{fill:#D0AC70;}
</style>
<sodipodi:namedview  bordercolor="#666666" borderopacity="1" gridtolerance="10" guidetolerance="10" id="namedview25" inkscape:current-layer="Layer_1" inkscape:cx="23.305085" inkscape:cy="500" inkscape:pageopacity="0" inkscape:pageshadow="2" inkscape:window-height="480" inkscape:window-maximized="0" inkscape:window-width="671" inkscape:window-x="0" inkscape:window-y="34" inkscape:zoom="0.236" objecttolerance="10" pagecolor="#ffffff" showgrid="false">
	</sodipodi:namedview>
<g id="g7">
	<g id="g9">
		<g id="g17">
			<g>
				<path class="st0" d="M211.3,382.9c6.5-38.3,36.1-70.3,76.5-78.1c52.1-10,102.4,24.1,112.5,76.1c0.1,0.7,0.2,1.3,0.4,2h28.9
					l-71.3-102.6h39.4L306,148.3l-91.6,131.9h39.4l-71.3,102.6H211.3z"/>
				<path class="st0" d="M402,403.6c-2,43.3-33.3,81.2-77.8,89.8c-52.1,10-102.4-24.1-112.5-76.1c-0.9-4.6-1.4-9.2-1.6-13.7
					l-62,89.3h132.3V534h51.4v-41.1H464L402,403.6z"/>
			</g>
			<path class="st1" d="M306,300.4c-54.3,0-98.6,44.2-98.6,98.6s44.2,98.6,98.6,98.6s98.6-44.2,98.6-98.6
				C404.6,344.6,360.3,300.4,306,300.4z M306,495c-52.9,0-96-43.1-96-96h0c0-52.9,43.1-96,96-96s96,43,96,96
				C402,452,358.9,495,306,495z"/>
		</g>
		<polygon id="polygon23" class="st1" points="327.2,133.2 332.3,162.4 306,148.6 279.7,162.4 284.8,133.2 263.5,112.5 292.9,108.3 
			306,81.7 319.1,108.3 348.5,112.5 		"/>
	</g>
</g>
</svg>
