<?xml version="1.0" encoding="UTF-8" standalone="no"?>
<svg
   xmlns:dc="http://purl.org/dc/elements/1.1/"
   xmlns:cc="http://creativecommons.org/ns#"
   xmlns:rdf="http://www.w3.org/1999/02/22-rdf-syntax-ns#"
   xmlns:svg="http://www.w3.org/2000/svg"
   xmlns="http://www.w3.org/2000/svg"
   xmlns:sodipodi="http://sodipodi.sourceforge.net/DTD/sodipodi-0.dtd"
   xmlns:inkscape="http://www.inkscape.org/namespaces/inkscape"
   version="1.1"
   id="l92"
   x="0px"
   y="0px"
   viewBox="0 0 1000 1000"
   width="100%"
   height="100%"
   style="enable-background:new 0 0 1000 1000;"
   xml:space="preserve"
   ><style
     type="text/css"
     id="style3">
	#l92 .st0{fill:#10793E;}
</style><switch
     id="switch5"
     transform="translate(-33.5,-32.3)"><g
       id="g7"><g
         id="g9"><path
           class="st0"
           d="m 830.5,560.8 c -0.3,3.9 -0.9,7.8 -1.4,11.7 -4.4,-4.2 -8.6,-8.2 -13.1,-12 -4.5,-3.8 -9.1,-7.5 -13.7,-11 -0.3,3.8 -0.5,7.5 -0.9,11.3 -9.8,-7.9 -19.4,-15 -29.7,-21.4 -0.2,10.5 -1.3,21 -2.9,31.4 l -11.5,-1.9 c -0.8,3.8 -1.2,7.7 -2.2,11.4 l 11.3,2.5 -1.8,7.7 c -0.6,2.6 -1.4,5 -2.1,7.6 -1.3,5.1 -3.2,10 -4.8,15 5.8,-1.1 11.7,-2.4 17.7,-3.9 6,-1.5 11.7,-3.3 17.7,-5.2 -1.1,3.6 -1.9,7.3 -3.2,10.8 5.7,-1.5 11.1,-3.3 16.7,-5.3 5.5,-1.9 11.3,-4 16.7,-6.3 -0.8,3.8 -2,7.6 -3,11.4 7.2,-2.7 14.5,-5.6 21.6,-8.9 7.1,-3.3 14.4,-6.9 21.3,-10.8 -10.2,-12.5 -21.3,-23.8 -32.7,-34.1 z"
           id="path11"
           inkscape:connector-curvature="0"
           style="fill:#10793e" /><path
           class="st0"
           d="m 793.6,678 c -2,3.4 -3.8,6.9 -6,10.1 -2.1,-5.5 -4.7,-11.1 -7.2,-16.3 -2.5,-5.3 -5.1,-10.5 -8,-15.6 -1.6,3.4 -3.6,6.6 -5.5,9.9 -5.4,-11.1 -11.7,-21.7 -18.3,-31.6 l -3.6,7 -1.8,3.5 -2,3.4 -3.9,6.8 -4.3,6.6 -9.7,-6.4 c -1,1.7 -2.1,3.3 -3.3,4.8 l -3.4,4.8 9.3,6.9 c -6.3,8.4 -12.9,16.6 -20.3,24.1 11.7,2.9 23.6,4.8 36.1,6.2 l -7.4,8.6 c 5.7,0.8 11.5,1.5 17.4,2 5.9,0.5 11.7,0.8 17.8,1 -2.5,3 -4.7,6.3 -7.4,9.2 15.4,1 31.2,0.9 47.2,-0.5 -2,-7.7 -4.7,-15.4 -7.3,-22.8 -2.2,-7.3 -5.3,-14.7 -8.4,-21.7 z"
           id="path13"
           inkscape:connector-curvature="0"
           style="fill:#10793e" /><path
           class="st0"
           d="m 702.8,759.1 c -0.1,-5.8 -0.5,-11.8 -1,-17.5 -3,2.3 -5.9,4.7 -9,6.9 -0.2,-6.1 -0.7,-12.4 -1.4,-18.4 -0.6,-6.1 -1.4,-12 -2.5,-18 l -3,2.6 -3.1,2.4 c -2.1,1.6 -4.1,3.3 -6.2,4.9 -4.3,3 -8.5,6.2 -13,8.9 l -6.3,-9.8 -4.9,3.2 -5.1,2.9 5.8,10.1 c -4.5,2.7 -9.2,5 -13.9,7.4 -2.4,1.2 -4.8,2.2 -7.2,3.3 -2.4,1.1 -4.8,2.2 -7.2,3.1 4.8,3.8 9.7,7.2 14.7,10.5 5.1,3.4 10.4,6.7 15.7,9.7 -3.3,1.8 -6.8,3.3 -10.2,4.8 9.8,6.3 20.1,11.8 31,17.1 l -10.5,5.4 c 6.8,3.5 13.8,6.9 21.1,10.1 7.2,3 14.6,5.9 22.3,8.6 1.1,-8.1 2,-16 2.6,-23.8 0.5,-7.9 0.8,-15.7 0.8,-23.4 l -9.6,6.8 c 0.2,-6 0.2,-11.9 0.1,-17.8 z"
           id="path15"
           inkscape:connector-curvature="0"
           style="fill:#10793e" /><path
           class="st0"
           d="m 602.9,758.7 -7.6,2.2 -7.7,1.8 -3.8,0.9 -3.9,0.7 -7.7,1.4 -1.7,-11.5 -11.6,1.4 1.1,11.5 -7.9,0.6 -3.9,0.3 -4,0.1 -7.9,0.2 -7.9,-0.2 c 2.9,5.2 5.9,10.6 9.2,15.7 3.3,5.1 6.7,10.2 10.4,15.3 l -11.3,0.3 c 6.4,9.4 13.5,19.2 21.3,28.1 l -5.9,0.4 c -2,0.1 -3.9,0.1 -5.9,0.2 4.8,6.2 9.8,12 15.1,17.8 2.7,2.9 5.4,5.8 8.2,8.7 2.8,2.8 5.7,5.5 8.6,8.3 2.2,-3.4 4.3,-6.8 6.3,-10.2 2,-3.4 3.9,-7 5.8,-10.4 3.7,-7 7.2,-13.8 10.3,-21 -3.8,1 -7.7,1.6 -11.5,2.3 5.3,-10.6 9.8,-21.8 13.7,-32.5 l -11,2.5 c 2.3,-5.8 4.4,-11.6 6.2,-17.4 1.9,-5.8 3.5,-11.8 5,-17.5 z"
           id="path17"
           inkscape:connector-curvature="0"
           style="fill:#10793e" /><path
           class="st0"
           d="m 481.9,761.9 c -2.6,-0.6 -5.1,-1.1 -7.6,-1.9 l 3,-11.2 c -3.7,-1.1 -7.5,-2 -11.1,-3.4 l -3.6,11 -7.5,-2.5 -7.3,-2.9 c -2.5,-0.9 -4.9,-2 -7.2,-3.1 -2.4,-1.1 -4.8,-2.1 -7.2,-3.3 1,11.8 2.6,24.1 5.3,36.1 -3.5,-1.4 -7,-2.7 -10.4,-4.4 0.5,2.9 1,5.8 1.6,8.6 0.6,2.8 1.2,5.7 1.9,8.5 1.4,5.7 2.8,11.6 4.6,17.3 -3.7,-1.3 -7.3,-2.8 -11,-4.2 3.8,15 8.8,29.9 15.1,44.8 6.7,-4.6 13.2,-9.1 19.4,-13.9 6.2,-4.9 12.2,-9.9 17.9,-15 -3.8,-0.8 -7.7,-1.7 -11.5,-2.6 4.6,-3.9 9,-7.8 13.3,-11.8 4.3,-4.1 8.4,-8.3 12.4,-12.5 -3.7,-0.7 -7.4,-1.2 -11.1,-2.1 4.4,-4.3 8.7,-8.9 12.7,-13.4 2,-2.3 4,-4.5 5.9,-6.8 1.9,-2.4 3.8,-4.7 5.7,-7.1 -5.2,-0.5 -10.4,-1.7 -15.5,-2.5 -2.7,-0.5 -5.2,-1.2 -7.8,-1.7 z"
           id="path19"
           inkscape:connector-curvature="0"
           style="fill:#10793e" /><path
           class="st0"
           d="m 394.7,706.1 c -3,-2.5 -5.9,-5.1 -8.9,-7.6 l -7.8,8.6 c -7.7,-7.2 -15.1,-14.6 -21.8,-22.8 -2,5.6 -3.8,11.4 -5.5,17.3 -1.6,5.8 -3,11.8 -4.4,17.9 -2.6,-2.7 -5.2,-5.4 -7.8,-8.2 -2.7,11.1 -5.2,22.9 -6.6,34.6 l -4.3,-4.1 -4.1,-4.2 c -1.4,7.7 -2.3,15.3 -3.1,23.2 -0.4,3.9 -0.7,7.9 -0.9,11.9 -0.2,3.9 -0.3,7.9 -0.4,12 4,-0.7 7.9,-1.4 11.8,-2.2 3.9,-0.8 7.8,-1.7 11.6,-2.7 3.8,-0.9 7.6,-1.9 11.3,-3 3.8,-1.1 7.5,-2.3 11.2,-3.5 -3.2,-2.3 -6.4,-4.5 -9.4,-7 2.9,-0.8 5.7,-1.6 8.5,-2.5 2.9,-0.9 5.7,-1.9 8.5,-2.9 5.6,-2 10.9,-3.9 16.3,-6.3 -3.2,-2 -6.2,-4.3 -9.3,-6.5 5.9,-2.2 11.5,-4.5 17.1,-6.9 5.6,-2.6 11,-5.2 16.3,-8 -8.9,-5.5 -17.5,-11.7 -25.7,-18.3 l 7.4,-8.8 z"
           id="path21"
           inkscape:connector-curvature="0"
           style="fill:#10793e" /><path
           class="st0"
           d="m 305.5,665.9 c 6.2,0.4 12.3,0.6 18.4,0.5 6.2,-0.1 12.1,-0.2 18.1,-0.7 -5.8,-8.7 -11.4,-17.7 -16,-27.1 l 10.4,-5.2 c -1.9,-3.4 -3.4,-7 -5,-10.5 l -10.6,4.7 c -1.1,-2.4 -2.1,-4.8 -3,-7.3 -0.9,-2.4 -2,-4.9 -2.9,-7.3 -1.6,-5 -3.5,-9.9 -4.8,-15 -2.1,2.2 -4.1,4.4 -6.2,6.7 -2,2.3 -3.9,4.5 -5.9,6.9 -3.8,4.7 -7.8,9.6 -11.3,14.6 -1.4,-3.5 -2.5,-7.1 -3.7,-10.7 -3.6,4.5 -7.1,9.2 -10.5,14.1 -3.3,4.8 -6.5,9.8 -9.7,14.9 -1.4,-3.7 -2.9,-7.3 -4.3,-11 -4.2,6.4 -8.2,13 -12.2,19.9 -3.9,6.9 -7.4,13.9 -10.9,21.3 15.7,4 31.2,6.8 46.5,8.3 -1.9,-3.4 -4,-6.8 -5.8,-10.2 5.9,0.8 11.9,1.4 17.8,1.9 5.8,0.5 11.7,0.8 17.5,0.9 l -3.1,-4.8 -2.8,-4.9 z"
           id="path23"
           inkscape:connector-curvature="0"
           style="fill:#10793e" /><path
           class="st0"
           d="m 241.8,554.8 c 10,6.4 20.6,12 30.9,17 l -1.4,-11.2 c 11.2,5.7 22.1,10.7 33.5,14.8 -2,-10.3 -2.9,-20.8 -3.6,-31.3 l 11.6,-0.5 c 0,-3.9 -0.2,-7.8 -0.2,-11.7 l -11.6,0 c 0.2,-5.3 0.1,-10.6 0.6,-15.8 0.2,-2.6 0.4,-5.2 0.6,-7.9 l 1,-7.8 c -5.5,2.3 -11.1,4.8 -16.6,7.5 -5.4,2.7 -10.8,5.6 -16.2,8.8 l 0.9,-11.3 c -5.1,2.7 -10.1,5.6 -15.2,8.6 -5.1,3 -10.1,6.3 -14.9,9.7 l 0.2,-5.9 0.4,-5.9 c -3.2,2.1 -6.6,4.2 -9.8,6.4 -3.2,2.2 -6.3,4.5 -9.5,6.8 -3.2,2.3 -6.3,4.8 -9.5,7.3 -3.1,2.5 -6.1,5 -9.2,7.7 6.3,5 12.6,9.7 19.2,14.1 6.6,4.4 12.9,8.6 19.8,12.4 -0.5,-4 -0.7,-7.9 -1,-11.8 z"
           id="path25"
           inkscape:connector-curvature="0"
           style="fill:#10793e" /><path
           class="st0"
           d="m 254.4,444.2 3.8,-11.2 c 3.4,5 6.9,9.8 10.4,14.5 3.5,4.7 7.4,9.2 11.1,13.6 1.1,-3.6 2,-7.3 3.3,-10.8 3.7,4.8 7.9,9.6 12,14.1 4.1,4.5 8.2,8.8 12.6,13 0.5,-2.6 1.2,-5.1 2,-7.6 0.7,-2.5 1.4,-5.1 2.2,-7.6 1.8,-4.9 3.2,-10 5.3,-14.8 l 10.8,4.2 2.1,-5.4 c 0.7,-1.8 1.6,-3.5 2.4,-5.3 l -10.6,-4.8 c 4.2,-9.6 9.3,-18.8 14.8,-27.8 -6.1,-0.2 -12,-0.1 -18.1,0.1 -6.1,0.2 -12.3,0.6 -18.4,1.3 1.6,-3.4 3.6,-6.7 5.4,-9.9 -11.7,0.7 -23.2,2.2 -35.1,4.3 l 5.4,-10.5 c -7.5,1.2 -15.3,2.5 -23,4.2 -7.6,1.8 -15.4,3.8 -23.1,6.1 3.8,7.2 7.8,14.1 11.8,20.8 4.1,6.8 8.5,13.3 12.9,19.5 z"
           id="path27"
           inkscape:connector-curvature="0"
           style="fill:#10793e" /><path
           class="st0"
           d="m 314.9,337.2 c 2.5,-3 5.3,-5.8 8,-8.7 2,11.7 4.9,23.3 8.1,34.3 l 7.4,-8.6 c 1.6,6.1 3.3,12 5.2,17.7 1.9,5.8 4,11.5 6.2,17.1 l 4.9,-6.2 5.2,-6 c 1.7,-2 3.5,-3.9 5.3,-5.8 1.8,-1.9 3.6,-3.9 5.5,-5.7 l 8.2,8.2 c 2.9,-2.6 5.6,-5.4 8.5,-8 l -7.7,-8.7 c 7.8,-7 16.2,-13.4 24.8,-19.4 -5.4,-2.5 -10.9,-4.9 -16.6,-7.2 -5.7,-2.3 -11.4,-4.2 -17.4,-6.2 3,-2.3 5.9,-4.8 9,-6.9 -5.5,-2.1 -10.9,-3.8 -16.6,-5.6 -5.6,-1.7 -11.5,-3.4 -17.2,-4.7 2.9,-2.6 6.1,-5 9.1,-7.4 -7.4,-2.1 -15.1,-4 -22.7,-5.5 -7.7,-1.5 -15.7,-2.9 -23.6,-3.8 0.5,8.1 1.2,15.9 2.4,23.8 1.1,8.2 2.3,15.7 4,23.3 z"
           id="path29"
           inkscape:connector-curvature="0"
           style="fill:#10793e" /><path
           class="st0"
           d="m 424.4,325.6 c 9.3,-4.8 18.8,-9.4 28.6,-13 l 4.1,10.8 c 3.6,-1.5 7.3,-2.5 11,-3.8 l -3.5,-11 c 10,-3.1 20.2,-5.8 30.5,-7.5 -7.8,-9.3 -16.3,-17.8 -25.5,-26.3 l 11,-2.6 c -4.1,-4 -8.4,-8 -12.9,-11.9 -4.5,-3.9 -9,-7.5 -13.8,-11.2 3.8,-1 7.5,-2.3 11.4,-3.1 -11.8,-9.8 -24.7,-19 -38.5,-27.3 -2.9,7.4 -5.3,15.2 -7.5,22.7 -2.2,7.5 -4.1,15.2 -5.6,22.7 3.6,-1.6 7.1,-3.3 10.8,-4.7 -1.5,5.7 -2.7,11.7 -3.8,17.4 -1.1,5.8 -2,11.4 -2.7,17.3 3.3,-1.8 6.8,-3.2 10.2,-4.8 -1,6.2 -1.9,12.1 -2.5,18.3 -0.7,6 -1.1,12 -1.3,18 z"
           id="path31"
           inkscape:connector-curvature="0"
           style="fill:#10793e" /><path
           class="st0"
           d="m 549.8,297.7 -0.7,11.6 c 3.9,0.4 7.8,0.5 11.6,1 l 1.2,-11.5 c 5.2,0.7 10.4,1.2 15.6,2.3 2.6,0.5 5.2,0.8 7.7,1.5 l 7.7,1.8 c -1.7,-5.7 -3.6,-11.4 -5.7,-17.2 -2.1,-5.7 -4.5,-11.3 -7,-17 3.7,0.7 7.4,1.3 11.1,2.1 -2.1,-5.4 -4.5,-10.6 -7,-16 -1.3,-2.7 -2.5,-5.4 -3.9,-8 -1.3,-2.6 -2.7,-5.2 -4.2,-7.8 3.9,0.4 7.8,1.1 11.6,1.8 -1.7,-3.5 -3.5,-6.9 -5.3,-10.4 -1.9,-3.4 -3.8,-6.7 -5.8,-10.1 -4,-6.8 -8.3,-13.6 -13,-20.1 -11.3,11.4 -21.4,23.7 -30.4,36.1 3.9,-0.2 7.8,0.1 11.8,0.2 -3.7,4.8 -7.2,9.4 -10.6,14.3 -3.3,4.9 -6.5,9.8 -9.5,14.7 l 11.3,-0.3 c -6.9,10.6 -13,20.9 -18.2,31.8 10.6,-1.4 21.2,-1.2 31.7,-0.8 z"
           id="path33"
           inkscape:connector-curvature="0"
           style="fill:#10793e" /><path
           class="st0"
           d="m 638.9,333.8 c 3.5,1.7 6.8,3.7 10.2,5.6 l 5.9,-10 3.4,2 3.3,2.1 6.6,4.3 c 4.2,3.1 8.7,6 12.7,9.3 0.4,-3 0.8,-6 1.1,-9 0.3,-3 0.5,-6 0.7,-9 0.4,-6 0.7,-12.4 0.6,-18.5 3.2,2 6.2,4.3 9.3,6.5 0.2,-5.7 0.3,-11.7 0.2,-17.6 -0.2,-5.8 -0.4,-11.8 -0.9,-17.8 l 9.9,6.4 c -0.3,-7.6 -1,-15.4 -1.8,-23.3 -0.9,-7.8 -2.2,-15.6 -3.6,-23.6 -7.5,2.9 -14.9,6.3 -21.9,9.6 -7.1,3.4 -14,7.2 -20.6,11 l 10.7,4.9 c -10.7,5.8 -20.6,11.7 -30.2,18.4 l 5.3,2.1 5.2,2.3 c -2.6,1.7 -5.2,3.3 -7.7,5 -2.6,1.8 -5.1,3.6 -7.5,5.4 -4.9,3.7 -9.6,7.2 -14.3,11.2 9.8,3.6 19.6,7.6 28.8,12.6 l -5.4,10.1 z"
           id="path35"
           inkscape:connector-curvature="0"
           style="fill:#10793e" /><path
           class="st0"
           d="m 698.7,362.3 c 3.9,3.5 7.4,7.4 11.1,11.2 1.8,1.9 3.5,4 5.2,5.9 1.7,2 3.5,3.9 5,6.1 l -9,7.3 c 2.4,3.1 4.9,6.1 7.1,9.3 l 9.4,-6.8 c 6.3,8.4 11.6,17.5 16.7,26.7 3.2,-5.1 6,-10.3 8.9,-15.8 2.9,-5.5 5.5,-11 8,-16.6 l 3.1,4.8 2.8,4.9 c 2.6,-5.2 5.1,-10.6 7.3,-15.9 2.2,-5.4 4.5,-11 6.5,-16.7 2.2,3.2 4.3,6.6 6.4,9.9 5.7,-14.3 10.4,-29.4 14.1,-45.1 -8.1,-0.3 -16,-0.4 -23.9,-0.1 -8,0.3 -15.6,0.8 -23.3,1.6 2.7,2.9 5.2,5.9 7.8,8.8 -6,0.4 -11.9,1 -17.7,1.7 -5.9,0.8 -11.7,1.7 -17.3,2.8 2.6,2.8 5.3,5.4 7.8,8.2 -12.6,2 -24.4,4.4 -36,7.8 z"
           id="path37"
           inkscape:connector-curvature="0"
           style="fill:#10793e" /><path
           class="st0"
           d="m 789.9,450.5 c -6,-1.7 -12,-3.1 -17.9,-4.4 -6,-1.2 -12,-2.2 -17.9,-3.1 l 2.9,7.3 c 1,2.4 1.7,5 2.6,7.4 1.8,4.9 3.1,10 4.6,15.1 l -11.2,2.9 c 1,3.8 1.7,7.6 2.7,11.3 l 11.4,-2.4 c 1.9,10.3 3.7,20.7 4.2,31.2 4.9,-3.4 10,-7 14.6,-10.8 4.7,-3.8 9.4,-7.7 14.1,-11.9 l 1.4,11.2 c 8.8,-7.4 17.6,-15.4 25.7,-24.1 0.7,3.9 1.4,7.7 1.9,11.6 5.7,-5.4 10.8,-11 16.1,-16.9 5.3,-5.9 10.3,-12.1 15.1,-18.5 -3.6,-1.8 -7.2,-3.5 -10.8,-5.2 -3.7,-1.6 -7.3,-3.2 -11,-4.7 -3.6,-1.5 -7.3,-2.9 -10.9,-4.3 -3.7,-1.3 -7.4,-2.6 -11.1,-3.7 l 1.9,5.6 c 0.6,1.9 1.1,3.8 1.6,5.7 -2.8,-1 -5.6,-2 -8.4,-3 -2.9,-0.9 -5.7,-1.8 -8.5,-2.6 -5.7,-1.7 -11.2,-3.2 -16.9,-4.5 1.4,3.7 2.5,7.3 3.8,10.8 z"
           id="path39"
           inkscape:connector-curvature="0"
           style="fill:#10793e" /></g></g></switch></svg>