<?xml version="1.0" encoding="utf-8"?>
<!-- Generator: Adobe Illustrator 23.0.4, SVG Export Plug-In . SVG Version: 6.00 Build 0)  -->
<svg version="1.1" id="Animal7" xmlns="http://www.w3.org/2000/svg" xmlns:xlink="http://www.w3.org/1999/xlink" x="0px" y="0px"
	 viewBox="0 0 195.5 251.6" style="enable-background:new 0 0 195.5 251.6;" xml:space="preserve">
<style type="text/css">
	#Animal7 .st0{fill:none;}
	#Animal7 .st1{fill:#6B6862;}
	#Animal7 .st2{fill:#F8ECC9;}
	#Animal7 .st3{fill:#DB7A3B;}
	#Animal7 .st4{fill:#FDFAF1;}
	#Animal7 .st5{fill:#E0D2AF;}
	#Animal7 .st6{fill:#67645C;}
	#Animal7 .st7{fill:#C78F8F;}
</style>
<g>
	<path class="st0" d="M98.4,118.4c-22.5,0-40.8,18.3-40.8,40.8s18.3,40.8,40.8,40.8s40.8-18.3,40.8-40.8S120.9,118.4,98.4,118.4z"/>
	<path class="st1" d="M80.7,241.7c-1,0.3-1.2,0.1-2.1,0.1c-0.6-0.1-1.1-0.2-1.7-0.6c-0.9-0.1-1.7,0.1-2.3,0.7
		c-0.8,0.2-1.4,0.3-2,0.3c0.1,0.3,0.1,0.7,0.2,1c0.2,1.2,0,3.5,0.6,4.6c0.3,0.5,1.8,1,2.4,0.7c0.2-0.1,0.2-0.6,0.4-0.7
		c0.3-0.2,0.6-0.5,1.1-0.5c0.6-0.1,0.9,0.5,1.4,0.5c2.3,0.3,3-1.2,3.7-2.9c0.7-1.7,1.3-3.4,1.9-5.1c-0.4,0.1-0.9,0.2-1.3,0.4
		C82,240.7,81.8,241.4,80.7,241.7z"/>
	<path class="st1" d="M67.9,241.3c-1.5,0.5-3.4,0.4-5.1,0c0.7,1.3,1.3,2.5,2,3.8c0.1-0.2,0.3-0.4,0.4-0.7c0.3-0.6,1.3-0.6,1.6,0
		c0.4,0.7,1.2,1.6,2.2,1.1c0.3-0.2,0.7-1.3,0.8-1.6c0.2-0.6,0.4-1.2,0.6-1.7c-0.6-0.1-1.2-0.3-2-0.6
		C68.2,241.4,68.1,241.4,67.9,241.3z"/>
	<path class="st2" d="M145.8,194.4c-0.4-0.2-0.5-0.8-0.1-1.1c0.6-0.5,1.1-1.1,1.6-1.7c-0.6,0.6-1.2,1.2-2,1.7
		c-1,0.6-2.1,1.1-3.3,1.4c-1,0.2-2.8-0.2-3.5,0.2c-1.3,0.7-2,3.6-3.2,5c-1.6,1.9-3.6,3.3-5.9,4.1c-4.6,1.6-9.4,0.3-13-2.6
		c-2.6,6.8-9.1,8.9-15.1,6.5c0,1.6,0.1,3.1,0.3,4.8c0.2,1.2,0.5,2.4,0.9,3.5c0.1,0.4,0.2,0.7,0.3,1.1c0.5,1.5,2.2,3.9,2.7,5.6
		c0.6,2.5-0.7,5,0.2,7.8c1.1,3.5,3.6,6,6.8,7.2c1.5,0.5,3.2,0.8,4.7,0.7c0.4,0,0.7-0.1,1.1,0c0.4,0.1,0.7,0.3,1.1,0.5
		c2.1,1.1,4.3,0.7,6.6,0.7c1,0,2.1,0.1,3.1,0.1c0.2,0,0.5,0,0.7,0c1.7,0,3.3-0.2,4.8-1.4c1.9-1.5,2.5-4.3,3.9-6.2
		c2.3-3,5.3-4.5,2.8-8.8c-0.2-0.3-0.2-0.8,0.1-1c2-1.5,2.7-3.4,3.1-5.4c0.4-2.2,0.4-4.7,0.8-7C145.9,206.8,149.7,196.4,145.8,194.4z
		"/>
	<path class="st3" d="M34.1,82.9c0.1-0.2,0.3-0.5,0.4-0.7c0.3-0.5,0.6-1,0.8-1.5c0.1-0.2,0.2-0.3,0.3-0.5c3.6-6.3,8-12,12.1-17.9
		c2.2-3.2,4.2-6.5,5.6-10.1c0.6-1.6,1.1-3.4,1.5-5.1c0.2-0.9,0.3-1.7,0.4-2.6c0,0,0-0.1,0-0.1c0.6-5.3-4.7-0.6-6.3,0.8
		c-2.5,2.2-4.6,4.7-6.6,7.3c-4,5.4-7.1,11.3-10.6,17c-0.4,0.7-0.8,1.3-1.2,2c-0.5,0.8-1,1.5-1.5,2.3c-3.9,5.7-8,11.2-11.7,17
		c-1.6,2.5-11.1,17-8.8,21.4c0.2,0.4,0.5,0.7,0.9,0.9c0.7-0.2,1.5-0.5,2.4-0.9c9.5-4.4,15-15.3,20-24.9
		C32.3,85.6,33.1,84.1,34.1,82.9z"/>
	<path class="st2" d="M98,211.4c0.2-1.8,0.2-3.5,0.1-5.2c-0.2-0.1-0.4-0.3-0.6-0.4c-0.1-0.1-0.2-0.1-0.3-0.2c-2-1.5-1.8,0-4.5,0.9
		c-1.9,0.7-4.1,0.9-6.1,0.6c-3.6-0.4-6.5-2.2-8.7-5c-2.7,2-5.9,2.7-9.2,2.2c-1.9-0.3-3.7-1-5.3-2c-1.6-1-2.2-2.7-3.6-3.8
		c-1.6-1.3-3.2-0.8-5.2-1.2c-0.9-0.2-1.8-0.5-2.7-0.8c-1.3,2.4,0.1,7,1.2,10.2c0.3,1,0.6,1.9,0.8,2.5c1.2,4.5,0.9,11.1,4.9,13.9
		c0.4,0.3,0.5,0.7,0.3,1.2c-2.6,5,1.4,6,3.7,9c1.3,1.8,2.1,4.1,3.9,5.6c0.4,0.4,0.9,0.6,1.3,0.8c0.7,0.3,1.4,0.5,2.1,0.5
		c0.3,0,0.6,0,0.8,0c0.2,0,0.4-0.1,0.6-0.1c0.3,0,0.5-0.1,0.8-0.1c0-0.1,0-0.2,0-0.2c0.1,0.1,0.1,0.1,0.2,0.2
		c1.1-0.2,2.2-0.5,3.5-0.5c2.3,0,4.4,2.1,6.3-1.1c0.2-0.2,0.4-0.5,0.7-0.4c0.7,0.1,1.4,0.1,2,0c0.6,0,1.1-0.1,1.7-0.3
		c3.8-0.8,7-3.5,8.2-7.6c0.9-2.9-0.6-5.6-0.2-8.2c0-0.1,0-0.2,0.1-0.2c0.2-0.6,0.5-1.3,0.8-2c0.4-0.7,0.8-1.5,1-2.2
		c0.1-0.2,0.1-0.5,0.2-0.7c0.2-0.7,0.4-1.5,0.6-2.2C97.6,213.5,97.9,212.5,98,211.4z"/>
	<path class="st1" d="M119.5,241.7c-0.5-0.2-0.9-0.9-1.4-1.1c-0.4-0.1-0.8-0.2-1.2-0.2c0.7,1.9,1.5,3.8,2.5,5.6
		c0.9,1.7,1.5,2.6,3.7,2.1c0.5-0.1,0.8-0.5,1.3-0.5c0.5,0,0.8,0.3,1.1,0.6c0.2,0.2,0.4,0.9,0.6,1c0.7-0.3,1.4-0.7,2-1l0.2-1.4
		c0.2-1.6,0.2-3.2,0.4-4.8c-0.6,0-1.3-0.1-2.1-0.1C124.2,241.8,121.9,242.6,119.5,241.7z"/>
	<path class="st1" d="M105.7,241.3c0.2,0.7,0.4,1.4,0.7,2.1c0.2,0.5,0.5,0.9,1,1.2c0.7,0.8,1.6,0.5,2.5-0.8
		c-0.2-0.8,0.7-1.6,1.4-1.1c0.6,0.3,1.1,0.7,1.7,1c0.5-1.2,0.9-2.3,1-3.6c-0.4-0.1-0.7-0.2-1.1-0.3
		C111.1,241.2,108.2,241.7,105.7,241.3z"/>
	<path class="st4" d="M24,78.4c2.1-3,4.1-6.1,6-9.1c0.7-1.1,1.4-2.2,2.1-3.4c0.4-0.7,0.9-1.4,1.3-2.2c0.2-0.4,0.5-0.8,0.7-1.2
		c1.6-2.6,3.2-5.3,4.9-7.9c3.8-5.8,8-10.2,13.8-13.9c-1.1-0.7-2.3-0.3-3.2,0.6c-0.2,0.2-0.4,0.1-0.6,0c-6.5,5.1-12.3,10.9-17.8,17.2
		c-0.3,0.4-0.7,0.8-1,1.2c-3.5,4.1-6.8,8.3-10.1,12.5c-4.8,6.2-9.7,12.4-13.5,19.2c-1.9,3.3-3.7,6.8-4.6,10.5
		c-0.9,3.8-1.1,6.5,1.7,9.2c1.4,1.3,2.6,1.9,3.8,2C2.2,107.5,21.5,82.1,24,78.4z"/>
	<path class="st5" d="M66,240.3c-1.3-0.8-2.3-1.8-3.3-3.4c-1-1.5-2-2.8-3.2-4.1c-0.6-0.7-1.2-1.1-1.7-1.9c-1.4-2.2-0.2-4.1-0.7-6.2
		c-0.4-1.7-2.5-3-3.1-4.9c-1.1-3.5-1.1-7.4-2-11c-0.1-0.4-0.2-0.9-0.4-1.4c-0.9-3-2.1-6.3-1.8-9.3c0.1-0.7,0.4-1.5,0.7-2.1
		c-0.7-0.3-1.3-0.7-1.9-1.1c-3.7-2.5-6-6.2-6.7-10.6c0-0.1,0-0.1,0-0.2c-0.5,0-1,0-1.5-0.1c-1,3.3-1.2,6.6,0.7,10
		c0.7,1.3,1.6,2.1,1.8,3.6c-0.1,0.9-0.2,1.9-0.3,2.8c0.3,2.2,1.2,3.8,2.8,4.9c0.2,0.4,0.7,0.7,0.9,1.1c1,2-0.2,4.4,1,6.5
		c0.9,1.6,2.3,2.6,3.1,4.4c1.1,2.7,1.8,5.8,2.6,8.6c0.9,3,1.5,6.5,3.1,9.2c1.1,1.7,3.1,3.4,5.3,4.4c0.2,0,0.4,0,0.5,0.2
		C63.2,240.2,64.7,240.5,66,240.3z"/>
	<path class="st4" d="M116.5,91.4C116.5,91.4,116.6,91.4,116.5,91.4c0.3-0.1,0.4-0.1,0.6-0.2c-0.1,0-0.2,0-0.3,0.1
		C116.8,91.2,116.7,91.3,116.5,91.4z"/>
	<path class="st4" d="M50.7,95.5c-0.3,0.4-0.6,0.7-0.6,0.5c0,0.2,0,0.4,0,0.6c0.4,0.3,0.7,0.7,1.1,1c0.4,0.4,0.8,0.7,1.2,1.1
		c0.5,0.4,0.9,0.8,1.4,1.2c0.2,0.1,0.3,0.3,0.5,0.4c3.8,3,8,5.4,12.3,7.2c10.8,4.6,23.1,5.7,35.2,4.3c14.1-1.6,30.5-5.7,40.7-16.2
		c0.6-0.6,1.2-1.3,1.8-1.9c-1.5-0.8-2.5-2.9-0.9-4.3c-3.2-2.7-0.9-10.1-0.8-13.5c0.1-5.5,0-12.3-3.7-16.5c-1.5-1.7-2.5-3.1-2.8-5.1
		c-2.3,0.7-4.5,0.5-6.5-0.6c-0.8-0.4-1.6-1-2.3-1.8c-0.9,1-1.9,1.9-3.3,2.4c-1.2,0.5-2.9,0.2-4,0.7c-1.2,0.5-1.5,1.9-2.5,2.8
		c-1,1-2.4,1.8-3.8,2.1c-2.5,0.6-1-0.2-2.3,1.5c-0.8,1-1.3,1.9-2.4,2.5c-1.9,1-3.8,1-5.5,0c-0.8,1.6-2.2,2.8-4,3.3
		c-2.7,0.8-3.8-0.4-6.2-1c-2.2-0.6-4,0.3-6.3-1c-1.8-1-2.8-2.5-3.2-4.4c-4,1.4-9.2,2-10.5-2.7c-1.5,0.5-2.9,0.8-4.5,0.6
		c-1.2-0.2-2.5-1.1-3.6-0.8c-1.1,0.3-2.1,1.9-3.4,2.2c-1.4,0.4-2.8,0.3-4.1,0c-0.5,2.7-2.3,4.5-4.9,5.2c1.2,2.9-0.1,4.9-1.6,7.6
		c-0.2,0.4-0.8,0.5-0.9,0.9c0.2-0.1,1.1,2.8,1,2.4c0.3,1.6-0.5,2.6-0.5,4c-0.1,1.9,0.8,3.6,0.8,5.5c0,2.1,0.5,2.7,0.8,4.6
		c0.2,1.2,0,2.6-0.6,3.7C51.7,94.3,51.1,95,50.7,95.5z M120.8,90.2c0.7,1.7-0.5,3.4-2,4.1c-1.4,0.7-3.5,0.7-5,0.2
		c-1.6-0.5-2.1-2.1-1.2-3.4c0.1-0.1,0.2-0.2,0.3-0.3C114.4,88.4,119.6,87.3,120.8,90.2z M110.8,79.8c0.1-0.4,0.6-0.2,0.6,0.1
		c0.1,1.3,0.1,3,1.2,3.9c0.8,0.8,2.1,0.8,3.1,0.3c2.3-1,2.2-3.7,2.7-5.9c0.1-0.6,1-0.5,1.2,0c1.1,3.2-1,7.4-4.5,7.9
		C111.2,86.8,109.8,83,110.8,79.8z M93.7,86.6c1.6,1.2,3.1,3.2,5.2,3.1c2.2-0.1,2.9-2.4,3.9-4c0.2-0.3,0.8-0.2,0.8,0.2
		c-0.2,2-1.3,4.3-3.3,5.1c0.1,1.9-0.6,3.9-0.5,5.7c0,0.4-0.5,0.4-0.6,0.1c-0.5-1.6-1.3-3.8-0.9-5.6c-2.3-0.3-4.2-2.2-5.1-4.2
		C93.1,86.8,93.4,86.4,93.7,86.6z M80.1,97.4c-1.6,0.6-4.4,0.7-6-0.1c-1.3-0.7-1.3-2.5-0.3-3.5c1-1,2.5-1.5,4-1.7
		c0.5-0.1,1-0.2,1.4-0.2c1.5-0.2,3.8-0.3,4.1,1.7C83.7,95.4,81.6,96.9,80.1,97.4z M73.2,80.9c0-0.4,0.5-0.4,0.6,0
		c0.2,2.3,1.3,6.1,4.3,5.8c2.9-0.4,3.1-3.6,3.9-5.7c0.2-0.5,1.1-0.7,1.2,0c0.6,3.3-1.6,7.6-5.3,7.7c-1.7,0.1-3.2-1-4-2.4
		C72.8,84.6,73,82.8,73.2,80.9z"/>
	<path class="st2" d="M42.5,45.6c2.6-2.3,5.4-6.2,9.1-6.8c3.5-0.6,4.8,2.3,4.7,5.2c0,0.2,0,0.3,0,0.5c-0.3,3.6-1.4,6.9-3,10.1
		c-1.9,3.9-4.4,7.6-7,11c-3.6,4.9-6.9,9.9-9.9,15.1c-0.1,0.2-0.3,0.5-0.4,0.7c0.2,0.2,0.4,0.4,0.6,0.6c1.3,1.1,3.1,2,3.9,2.4
		c0.5,0.2,0.5,0.8,0.3,1.2c-0.2,0.5-0.2,0.9-0.3,1.3c-0.2,2.3,1.4,3.6,4.9,4c0.4-0.1,0.7,0.1,0.9,0.4c-0.2,0.4-0.5,0.9-0.6,1.4
		c-0.4,1.2,0.1,2.7,1.3,3.2c1.1,0.5,2.1-0.3,2.6-1.2c0.2-0.3,0.3-0.7,0.4-1.1c0.9-1.2,0.7-2.8-0.5-4.6c-0.2-0.2-0.3-0.5-0.2-0.8
		c0.9-2.2,0.8-4.5-0.4-6.6c-0.1-0.2-0.1-0.5,0-0.7c1.6-2.2,1.5-4.4-0.5-6.6c-0.3-0.3-0.3-0.9,0.1-1.1c3-1.6,4-4.9,2.2-7.8
		c-0.3-0.4,0-1.2,0.5-1.3c2.5,0,4.1-1.7,4.7-4.9c0-0.5,0.6-1.2,1.2-0.9c2.6,1,5.4,0.5,7.2-2c0.3-0.4,0.8-0.6,1.2-0.3
		c2.6,1.6,5.2,1.8,8,0.6c0.4-0.1,0.9,0.2,1,0.5c3,3.4,6.2,4.1,9.4,2c0.5-0.2,1.2-0.1,1.3,0.5c0.5,3.6,4.1,5.7,7.6,4.3
		c0.3-0.1,0.7,0,0.9,0.3c2.5,2.6,7.2,1.8,8.4-1.8c0.2-0.7,1-0.9,1.6-0.4c3.3,1.6,5.4,0.7,6.3-2.6c0-0.5,0.4-0.9,0.9-0.9
		c3.2,0.1,5.9-1.6,7-4.6c0.2-0.5,0.6-0.7,1.1-0.6c3,0.5,5.6-0.4,7.5-2.9c0.4-0.6,1.1-0.6,1.6,0c0.8,1.1,1.8,1.9,3,2.3
		c1.7,0.7,3.5,0.6,5.4-0.3c0.6-0.3,1.4,0.1,1.4,0.8c0,3.9,3.1,4.9,4.6,7.9c1.1,2.2,1.3,5.1,1.6,7.5c0.5,3.6,0.5,7.3,0.2,10.9
		c-0.2,2.5-2.1,8.1,1.2,9.3c0.2,0.1,0.3,0.2,0.4,0.3c-0.5,0.6-0.8,1.2-1.1,1.9c-0.2,0.5,0.2,1,0.7,1.2c1.6,0.6,3,0,4.1-1.1
		c1.7-1.1,3.1-2.7,4.3-4.3c0.2-0.2,0.3-0.5,0.5-0.7c0.4-0.6,0.8-1.2,1.2-1.8c0.2-0.3,0.3-0.5,0.4-0.8c2.2-4.6-0.6-8.9-3.2-12.6
		c-2.6-3.6-5.3-7.2-7.7-11c-2.6-4.1-7-11.3-6.2-16.9c0.1-0.9,0.4-1.7,0.8-2.5c1.9-3.6,6.6-0.2,8.7,1.4c1,0.8,6.5,4.4,6.5,5.5
		c0-0.8,0.3-1.5,0.5-2.4c0.3-1.7,0.6-4-0.2-5.7c-0.6-1.2-2.2-2.1-3.1-3.1c-0.8-0.9-1.2-1.6-1.5-2.7c-0.3-1.2,0.2-1.1-0.1-2.6
		c0.1-0.5,0.1-1.1,0.2-1.6c-1.6-1.4-3.2-2.8-4.8-4.3c-0.8,0.1-1.2-0.9-0.9-1.5c2-3.9-0.7-8.2-4.8-8.8c-0.1,0-0.1-0.1-0.2-0.1
		c0.9-2,0.9-4.6-1.2-5.8c-1-0.5-2.2-0.6-3.2,0c-0.5,0.3-0.9,0.8-1.2,1.3c-0.1-0.1-0.2-0.1-0.3-0.2c-0.6,0.5-1.4-0.2-1.5-0.8
		c-0.5-6.2-7.9-3.6-11.2-2.2c-0.4,0.2-0.7,0.1-1.1-0.1c-2.1-1.9-4.6-2.5-7-2c-1,0.2-2.1,0.6-3.1,1.2c-0.4,0.2-1,0.1-1.2-0.3
		c-0.2-0.5-0.5-0.9-0.9-1.3c-1.3-1.5-3.1-2.2-4.9-2.1c-1.7,0.1-3.4,0.9-4.6,2.3c-0.4,0.5-1,0.2-1.3-0.2c-2.8-3.8-8.6-2.7-10.5,1.2
		c-0.2,0.5-1,0.6-1.3,0.2c-1.4-1.7-2.8-2.2-4.1-2.1c-2.9,0.2-5.8,3.4-9.3,3.4c-5.7-0.1-16.1,0.9-19.7,6.1c-0.4,0.5-0.9,0.6-1.4,0.2
		c-4-3.2-6.8,6.2-8.3,8.4c-2.8,4.2-6.6,7-3.6,12.5c0.2,0.4,0.1,1-0.3,1.2c-4.3,2.4-5.9,7.4-3.8,11.8c0.2,0.4,0.1,0.9-0.3,1.2
		c-3.1,2-4.4,5.6-3.7,8.9C34.6,53,38.4,49.1,42.5,45.6z"/>
	<path class="st4" d="M193.3,101.9c-0.9-3.7-2.7-7.2-4.6-10.5c-3.8-6.8-8.7-13-13.5-19.2c-5.1-6.5-10.3-13-15.9-19
		c-1.2-1.3-2.5-2.6-3.8-3.8c-2.2-2.2-9.3-10.7-13.1-8.5c6.2,2.9,10.8,8.7,14.3,14.4c0,0,0.1,0.1,0.1,0.1c0.4,0.7,0.8,1.3,1.2,2
		c4.4,7.1,8.6,14.2,13.4,21c2.6,3.7,21.9,29.3,16.2,34.8c2.4,0.1,4.6-0.8,5.8-3.9C194.4,107,193.8,104.1,193.3,101.9z"/>
	<path class="st3" d="M166.5,73.6c-3.1-4.5-5.7-9.4-8.6-14.1c-0.5-0.8-1-1.7-1.5-2.5c-3.9-6.2-8.4-11.8-14.8-15.6
		c-0.6,0.6-1.1,1.3-1.3,2c-1.7,5.4,5.3,15.4,7.6,18.8c2.9,4.2,5.9,8.2,8.7,12.4c0.6,0.9,1.2,1.8,1.8,2.8c0.6,0.9,1.1,1.8,1.6,2.7
		c6.1,10.7,11.8,26.4,23.7,32c0.7,0.3,1.4,0.6,2.2,0.8c0.1,0,0.2,0.1,0.3,0.1c4.9-2.7-6.6-20.2-8.3-23
		C174.2,84.4,170.3,79.1,166.5,73.6z"/>
	<path class="st2" d="M146.6,93.9c-0.1,0-0.1,0-0.2,0c-0.2,0.1-0.4,0.2-0.6,0.2c-0.5,0.7-1.1,1.5-1.7,2.1
		c-9.9,11.5-26.8,15.8-41.4,17.5c-5.7,0.7-11.5,0.8-17.2,0.4c-4.2-0.3-8.3-1-12.3-2.1c-4.8-1.3-9.4-3.2-13.7-5.8
		c-2.3-1.4-4.4-3.2-6.6-4.8c-1.6-1.2-3.2-2.4-5.1-3.3c-2.3-1.2-4-2.6-3.4-5.6c-1.7,0.1-3.2-0.6-4.3-2c-0.7-0.8-0.9-1.7-1-2.6
		c-0.1-1-0.1-1.9-0.7-2.7c-0.5-0.8-1.9-1.3-3-2.1c-2.8,3.6-3.7,8.4-1.6,12.9c0.2,0.4,0.1,0.8-0.3,1.1c-5.7,3.7-7.1,11.2-3.3,16.8
		c0.3,0.4,0,0.9-0.3,1.1c-6,4.4-7.3,12.7-3.4,18.8c0.3,0.4,0.1,1.1-0.3,1.3c-8.8,4.8-5,15.2,0.7,20.6c0.3,0.3,0.4,0.8,0.2,1.2
		c-5.9,11.1,1.6,22.4,12.5,25.4c0.4,0.1,0.9,0.2,1.3,0.3c0.7,0.1,1.3,0.2,2,0.3c0.7,0.1,0.7,1,0,1.1c-0.2,0-0.4,0-0.6,0
		c0,0,0,0,0,0.1c1.1,4.8,4.3,8.6,8.5,10.6c0.6,0.3,1.3,0.5,2,0.8c2.1,0.6,4.3,0.9,6.6,0.5c0.3,0,0.7,0,0.8,0.3
		c3.1,6.6,11.6,8.3,17.3,4c0.4-0.3,0.9,0,1.2,0.3c3.8,5.7,11.8,6.4,17,2.3c0.4-0.3,0.8-0.3,1.1,0.1c0.3,0.5,0.6,0.9,0.9,1.3
		c0.1,0.2,0.3,0.3,0.5,0.5c0.3,0.4,0.7,0.7,1.1,1c0.2,0.2,0.4,0.3,0.7,0.5c0.4,0.3,0.8,0.5,1.3,0.7c5.3,2.3,12.1-0.8,13.9-7
		c0.2-0.6,0.9-0.8,1.4-0.4c7,6.4,17.3,3,19.7-6c0.1-0.5,0.7-0.8,1.2-0.7c5.1,1,7.2-1.6,10.1-5c0.6-0.7,1.1-1.3,1.9-1.7
		c0.1-0.1,0.2-0.1,0.3-0.1c0.1-0.1,0.3-0.1,0.5-0.2c2.4-0.9,4.6-0.8,6.8-2.4c3.2-2.5,2.9-5,3.9-8.5c1.1-3.7,4.8-3.3,7.4-5.9
		c3.9-3.9,4.8-10.1,1.9-14.8c-0.2-0.4-0.2-0.9,0.2-1.2c6.5-5.6,7.9-15.3,3.4-22.6c-0.2-0.3-0.2-0.7,0-1c4.3-6.4-1.5-12.6-6.2-16.6
		c-0.3-0.2-0.4-0.7-0.3-1c1.5-5.3-1-11-6.3-13.1c-0.9-0.3-1.1-1.4-0.3-2c3.8-2.5-3-8.1-4.6-9.4C153.8,90.7,150.2,93.6,146.6,93.9z
		 M98.4,200.9c-23,0-41.8-18.7-41.8-41.8c0-23,18.7-41.8,41.8-41.8s41.8,18.7,41.8,41.8C140.2,182.2,121.4,200.9,98.4,200.9z"/>
	<path class="st5" d="M110.5,239.1c-1.2-0.6-2.2-1.3-3.2-2.2c-4.8-4.6-2.8-10.4-4.9-15.9c-0.6-1.7-1.2-3.4-1.7-5.1
		c-0.4-1.5-0.8-3-1-4.5c-0.2,1.3-0.5,2.6-0.8,3.9c-0.4,1.5-0.8,2.9-1.2,4.4c-0.2,0.5-0.3,1.1-0.4,1.6c0.2,1.7,0.4,3.5,0.8,5.2
		c0.3,1.2,0.4,3,1.1,4.1c0.5,0.8,1.7,1.4,2.2,2.2c0.9,1.5,0.2,2.1,0.7,3.7c0.3,0.8,1,1.4,1.9,1.9c0.3,0.2,0.7,0.3,1,0.5
		C106.7,239.5,108.9,239.6,110.5,239.1z"/>
	<path class="st6" d="M193.1,96.7c-3.1-7.3-7.8-13.8-12.5-20.1c-6.8-9-13.7-17.6-21.5-25.3c-0.1-0.4-0.3-0.8-0.5-1.4
		c-0.2-0.5-0.9-0.7-1.1-1.1c-1.2-3,0-3.6,0.2-6.1c0.1-1.1,0-2.2-0.4-3.3c-0.6-1.8-1.8-2.6-3-4c-2.9-3.4-0.9-5.6-2-9
		c-0.8-2.4-2.8-3.6-5.1-3.8c1.2-4.3-1.2-9-5.7-10.1c0.5-4.4-3.7-7.2-7.5-5.3c-1-3-3.9-4.6-7.3-4.4c-2.3,0.2-4.2,1.7-6.5,1.4
		c-1.9-0.3-3.4-1.8-5.6-1.8c-1.5,0-3.6,1.3-4.8,1.1c-0.7-0.2-2.6-2.4-3.6-2.8c-1.7-0.6-3.4-0.7-5-0.2c-1.2,0.3-2.4,1-3.4,1.9
		c-3.4-3.4-9.4-3-12.1,1c-0.7-0.7-1.4-1.1-2.1-1.4c-4.2-1.7-8.4,2.9-13.1,2.8c-6-0.1-15.1,1.4-19.3,6.3c-2.2-1.2-4.7-0.5-6.4,1.6
		c-1.8,2.1-2.3,5.2-3.8,7.5c-1.4,2.1-3.5,3.9-4.4,6.3c-0.8,2-0.7,3.6-0.4,5.7c0.4,2.3,0.1,1.8-1.5,3.6c-2.5,2.8-2.8,6.1-2.4,9.6
		c0.3,2.2,0.3,1.4-1.3,3.4c-1,1.2-1.6,2.7-1.9,4.2c-0.5,2.1-0.1,3.7,0.5,5.3c-4,4.5-7.9,9.2-11.6,14.1c-4.7,6.1-9.4,12.2-13.1,18.9
		c-2.8,5.1-6.6,12.3-4.5,18.3c1.5,4.3,4.2,5.5,7.2,5.1c0.7-0.1,1.4-0.3,2.2-0.6c0,0,0.1,0,0.1,0c5.3-2,10.9-7.7,13.2-10.7
		c3.1-4.1,5.6-8.6,8-13.1c0,0.5-0.1,1,0,1.5c0.1,2.7,1.3,3.4-0.5,5.5c-1.4,1.7-2.7,3.2-3.4,5.3c-0.8,2.4-1.1,5.1-0.5,7.5
		c0.1,0.6,1.4,2.9,1.4,3.5c-0.2,1.1-1.1,1.5-1.9,2.3c-3.2,3.7-4.5,8.9-3.5,13.7c0.2,1,0.9,2.1,1,3c0.1,0.9,0.2,1.2,0.2,1.2
		c-0.1,0-0.3-0.1-1.1,1.1c-1.6,2.5-3.3,4.1-3.8,7.3c-0.4,2.6,0.1,5.2,1.1,7.6c1.2,2.7,4.7,5.4,4.3,8.3c-0.9,6.6-1.8,12.2,2.5,18
		c2.9,3.9,7.1,6.6,11.8,7.4c-0.7,1.6-0.9,3.4-0.9,5.2c0.1,1.5,0.4,3.1,1,4.5c1,2.4,1.5,4.3,1.9,6.9c0.2,1.4,0.4,2.5,1.1,3.7
		c0.3,0.6,0.6,0.7,1,1.3c0.4,0.5,0.8,0.8,1.3,1.2c0.2,1.2,0.3,2.4,0.5,3.6c0.3,3.3,1.8,3.7,3.6,6.5c4.3,6.8,2.6,17.4,9.5,22.7
		c0.8,0.6,1.9,1.2,3.2,1.6c0.5,2.2,1.6,4.5,2.7,6.4c0.3,0.6,1.1,0.6,1.5,0.2c0.3-0.3,0.5-0.5,0.8-0.8c0.9,1,2.1,1.8,3.5,0.8
		c0.9-0.6,1.5-1.7,2-2.8c0.1,0.8,0.1,1.5,0.2,2.3c0.1,1.2,0.2,2.6,1.1,3.5c0.6,0.7,1.6,1.1,2.5,1c0.5-0.1,0.8-0.2,1.2-0.6
		c0.3-0.2,0.6-1.1,0.8-1.1c0.8-0.3,1.9,0.7,2.9,0.5c1.2-0.2,2.1-1.1,2.8-2.1c1.5-2.4,3-5.6,3.5-8.6c2.7-0.6,5.2-1.7,7.2-3.8
		c0.4-0.5,0.8-1,1.1-1.4c1.2-1.8,1.7-3.8,1.9-5.8c0.2,0.9,0.5,1.7,0.8,2.5c0.6,1.4,1.4,2,2.2,3.3c0.9,1.5,0.3,3.2,1.4,4.7
		c0.7,0.9,1.8,1.5,3.2,1.9c0.3,2.4,0.9,4.8,3.2,5.8c1.8,0.8,3.5-0.1,4.2-1.6c0.4,0.3,0.9,0.6,1.3,0.9c0.5,0.3,1.1,0.1,1.4-0.4
		c0.5-1,1-2,1.3-3c0.8,2.2,2,4.3,3.2,5.9c0.7,1,1.6,1.8,2.9,2c0.7,0.1,2.6-1.1,2.7-1.1c0.2,0.1,0.5,1.1,0.7,1.3
		c0.5,0.4,0.8,0.6,1.5,0.7c0.9,0.1,1.9-0.4,2.5-1.1c0.8-1,0.9-2.4,0.9-3.6c0.1-1.6,0.1-3.2,0-4.8c0.9-0.1,1.8-0.3,2.9-0.9
		c2.6-1.2,4.2-2.4,5.5-4.9c1-1.9,1.2-2.6,2.9-4.3c0.7-0.7,1.2-1.2,1.6-2c1.3-2.4,0-4,0.4-6.3c0.2-1.2,1.3-2.3,2.1-3.5
		c0.3-0.5,0.6-1,0.7-1.6c0.9-3.5,0.6-7.5,1.4-11.1c0.7-3.4,2.1-7.3,1.6-10.8c-0.2-1.3-1.4-2.7-1.3-3.5c0-0.3,1.5-2.3,1.7-2.7
		c0.2-0.6,0.4-1.1,0.5-1.7c0.9-0.7,1.8-1.3,3.2-1.9c5-1.9,7.5-3.9,9.4-9.1c0.8-2,1.3-3.8,3.3-5.2c0.8-0.6,1.9-0.9,2.8-1.5
		c1.9-1.4,3.2-3.3,4.2-5.4c0.9-2,1.3-4.1,1.2-6.2c-0.1-1.9-1.7-4.5-1.3-6.1c0.2-0.8,1.6-1.8,2.2-2.6c0.8-1.2,1.5-2.5,2.1-3.8
		c0.9-2.3,1.4-4.8,1.5-7.2c0-2.6-0.4-5.2-1.4-7.6c-1.1-2.6-0.3-3.4,0.2-6c0.5-2.9-0.4-5.8-1.9-8.3c-1.9-3-5.3-4.7-5.5-8.3
		c-0.2-5.4-1.9-9.8-6.6-12.4c2.1-2.4,0.5-5.8-1.8-8.2c-1.3-1.4-2.7-2.7-4.2-3.9c0.9-1.8,1.5-3.6,1.6-5.2c0,0,0,0,0-0.1
		c3.4,6.2,6.3,12.6,10.1,18.6c2.7,4.3,9.9,14.3,16.9,16.1c2.6,0.7,5.2,0.2,7.5-2.3C197.3,108.2,195,101.2,193.1,96.7z M34.7,48
		c0.4-0.3,0.5-0.8,0.3-1.2c-2.2-4.4-0.5-9.4,3.8-11.8c0.4-0.2,0.6-0.8,0.3-1.2c-2.9-5.5,0.8-8.3,3.6-12.5c1.5-2.1,4.3-11.6,8.3-8.4
		c0.5,0.4,1.1,0.3,1.4-0.2c3.7-5.2,14.1-6.2,19.7-6.1c3.5,0,6.3-3.2,9.3-3.4c1.3-0.1,2.6,0.4,4.1,2.1c0.3,0.4,1.1,0.3,1.3-0.2
		c1.9-4,7.6-5.1,10.5-1.2c0.3,0.4,0.9,0.6,1.3,0.2c1.2-1.5,2.9-2.2,4.6-2.3c1.8-0.1,3.7,0.6,4.9,2.1c0.3,0.4,0.6,0.8,0.9,1.3
		c0.2,0.4,0.8,0.5,1.2,0.3c1-0.6,2.1-1,3.1-1.2c2.4-0.5,4.8,0.2,7,2c0.3,0.3,0.7,0.3,1.1,0.1c3.3-1.5,10.7-4.1,11.2,2.2
		c0.1,0.7,0.8,1.3,1.5,0.8c0.1,0.1,0.2,0.2,0.3,0.2c0.3-0.5,0.7-0.9,1.2-1.3c1-0.6,2.2-0.6,3.2,0c2.1,1.2,2.1,3.7,1.2,5.8
		c0.1,0,0.1,0.1,0.2,0.1c4.1,0.6,6.8,4.9,4.8,8.8c-0.3,0.6,0.1,1.6,0.9,1.5c1.6,1.4,3.2,2.8,4.8,4.3c-0.1,0.5-0.1,1.1-0.2,1.6
		c0.2,1.5-0.2,1.4,0.1,2.6c0.3,1.1,0.7,1.9,1.5,2.7c0.9,1,2.5,1.9,3.1,3.1c0.8,1.7,0.5,4,0.2,5.7c-0.2,0.9-0.5,1.6-0.5,2.4
		c0-1.2-5.5-4.8-6.5-5.5c-2-1.6-6.8-5-8.7-1.4c-0.4,0.8-0.6,1.7-0.8,2.5c-0.8,5.6,3.7,12.8,6.2,16.9c2.4,3.8,5.1,7.4,7.7,11
		c2.6,3.7,5.4,8,3.2,12.6c-0.1,0.3-0.3,0.5-0.4,0.8c-0.4,0.6-0.8,1.2-1.2,1.8c-0.2,0.2-0.3,0.5-0.5,0.7c-1.2,1.6-2.6,3.3-4.3,4.3
		c-1.1,1.1-2.5,1.7-4.1,1.1c-0.5-0.2-0.9-0.7-0.7-1.2c0.2-0.7,0.6-1.4,1.1-1.9c-0.1-0.1-0.2-0.2-0.4-0.3c-3.4-1.2-1.5-6.8-1.2-9.3
		c0.3-3.6,0.3-7.3-0.2-10.9c-0.3-2.4-0.5-5.4-1.6-7.5c-1.5-3-4.6-4-4.6-7.9c0-0.8-0.8-1.1-1.4-0.8c-1.8,0.9-3.7,0.9-5.4,0.3
		c-1.1-0.4-2.1-1.2-3-2.3c-0.4-0.6-1.1-0.6-1.6,0c-1.9,2.4-4.5,3.4-7.5,2.9c-0.5-0.1-0.9,0.1-1.1,0.6c-1.1,3.1-3.8,4.7-7,4.6
		c-0.5,0-0.9,0.4-0.9,0.9c-0.9,3.3-3,4.2-6.3,2.6c-0.6-0.5-1.4-0.3-1.6,0.4c-1.2,3.6-5.9,4.4-8.4,1.8c-0.2-0.2-0.6-0.4-0.9-0.3
		c-3.4,1.4-7.1-0.7-7.6-4.3c-0.1-0.6-0.9-0.7-1.3-0.5c-3.2,2-6.4,1.4-9.4-2c-0.1-0.4-0.6-0.7-1-0.5c-2.9,1.1-5.4,1-8-0.6
		c-0.4-0.3-0.9-0.1-1.2,0.3c-1.8,2.5-4.6,3-7.2,2c-0.6-0.2-1.2,0.4-1.2,0.9c-0.6,3.3-2.2,4.9-4.7,4.9c-0.6,0.1-0.8,0.8-0.5,1.3
		c1.8,2.9,0.8,6.2-2.2,7.8c-0.4,0.2-0.4,0.8-0.1,1.1c2,2.1,2.1,4.3,0.5,6.6c-0.1,0.2-0.1,0.5,0,0.7c1.2,2.1,1.4,4.4,0.4,6.6
		c-0.1,0.3,0,0.6,0.2,0.8c1.3,1.8,1.4,3.3,0.5,4.6c-0.1,0.4-0.2,0.8-0.4,1.1c-0.5,1-1.5,1.7-2.6,1.2c-1.2-0.5-1.6-2.1-1.3-3.2
		c0.2-0.5,0.4-0.9,0.6-1.4c-0.2-0.3-0.5-0.5-0.9-0.4c-3.5-0.4-5.1-1.7-4.9-4c0-0.4,0.1-0.8,0.3-1.3c0.2-0.4,0.2-1-0.3-1.2
		c-0.8-0.4-2.6-1.2-3.9-2.4c-0.2-0.2-0.4-0.4-0.6-0.6c0.1-0.2,0.3-0.5,0.4-0.7c3-5.2,6.3-10.2,9.9-15.1c2.5-3.5,5.1-7.1,7-11
		c1.5-3.2,2.6-6.6,3-10.1c0-0.2,0-0.3,0-0.5c0.1-2.9-1.2-5.8-4.7-5.2c-3.7,0.7-6.5,4.5-9.1,6.8C38.4,49.1,34.6,53,31,57
		C30.4,53.6,31.6,50,34.7,48z M52.3,90.7c-0.4-1.9-0.8-2.5-0.8-4.6c0-1.9-0.9-3.6-0.8-5.5c0-1.4,0.8-2.3,0.5-4
		c0.1,0.3-0.8-2.5-1-2.4c0.1-0.4,0.7-0.5,0.9-0.9c1.4-2.8,2.8-4.7,1.6-7.6c2.6-0.7,4.4-2.5,4.9-5.2c1.3,0.4,2.7,0.5,4.1,0
		c1.3-0.4,2.4-2,3.4-2.2c1.1-0.3,2.4,0.6,3.6,0.8c1.6,0.2,3.1-0.1,4.5-0.6c1.4,4.7,6.6,4.1,10.5,2.7c0.5,1.8,1.5,3.3,3.2,4.4
		c2.2,1.3,4.1,0.5,6.3,1c2.3,0.6,3.5,1.8,6.2,1c1.9-0.6,3.2-1.7,4-3.3c1.7,1,3.6,1,5.5,0c1.2-0.6,1.6-1.5,2.4-2.5
		c1.4-1.7-0.2-0.9,2.3-1.5c1.4-0.4,2.7-1.1,3.8-2.1c1-0.9,1.3-2.3,2.5-2.8c1.1-0.5,2.8-0.1,4-0.7c1.4-0.6,2.4-1.4,3.3-2.4
		c0.7,0.7,1.4,1.3,2.3,1.8c1.9,1.1,4.2,1.3,6.5,0.6c0.3,2.1,1.3,3.4,2.8,5.1c3.7,4.2,3.9,11.1,3.7,16.5c-0.1,3.3-2.4,10.8,0.8,13.5
		c-1.6,1.4-0.6,3.5,0.9,4.3c-0.6,0.7-1.1,1.3-1.8,1.9c-10.2,10.5-26.6,14.6-40.7,16.2c-12.1,1.4-24.4,0.2-35.2-4.3
		c-4.4-1.8-8.5-4.2-12.3-7.2c-0.2-0.1-0.3-0.3-0.5-0.4c-0.5-0.4-1-0.8-1.4-1.2c-0.4-0.4-0.8-0.7-1.2-1.1c-0.4-0.3-0.7-0.6-1.1-1
		c0-0.2,0-0.4,0-0.6c0,0.1,0.3-0.2,0.6-0.5c0.5-0.5,1-1.2,1-1.2C52.3,93.3,52.5,91.9,52.3,90.7z M4,111.1c-2.9-2.8-2.7-5.4-1.7-9.2
		c0.9-3.7,2.7-7.2,4.6-10.5c3.8-6.8,8.7-13,13.5-19.2c3.3-4.2,6.6-8.4,10.1-12.5c0.3-0.4,0.7-0.8,1-1.2c5.4-6.2,11.2-12.1,17.8-17.2
		c0.2,0.1,0.4,0.1,0.6,0c0.9-0.8,2.1-1.3,3.2-0.6c-5.8,3.8-10,8.1-13.8,13.9c-1.7,2.6-3.3,5.2-4.9,7.9c-0.2,0.4-0.5,0.8-0.7,1.2
		c-0.4,0.7-0.9,1.4-1.3,2.2c-0.7,1.1-1.4,2.2-2.1,3.4c-1.9,3.1-3.9,6.1-6,9.1c-2.6,3.7-21.8,29.2-16.2,34.8
		C6.6,113,5.4,112.4,4,111.1z M11.9,112.1c-0.9,0.4-1.7,0.7-2.4,0.9c-0.4-0.2-0.7-0.5-0.9-0.9c-2.3-4.4,7.2-18.9,8.8-21.4
		c3.7-5.8,7.8-11.3,11.7-17c0.5-0.8,1-1.5,1.5-2.3c0.4-0.7,0.8-1.3,1.2-2c3.5-5.7,6.6-11.6,10.6-17c2-2.6,4.1-5.1,6.6-7.3
		c1.6-1.4,6.9-6.1,6.3-0.8c0,0,0,0.1,0,0.1c-0.1,0.9-0.3,1.8-0.4,2.6c-0.3,1.7-0.8,3.4-1.5,5.1c-1.4,3.6-3.4,6.9-5.6,10.1
		c-4.1,6-8.5,11.6-12.1,17.9c-0.1,0.2-0.2,0.3-0.3,0.5c-0.3,0.5-0.6,1-0.8,1.5c-0.1,0.2-0.3,0.5-0.4,0.7c-1,1.3-1.8,2.8-2.2,4.3
		C26.9,96.8,21.4,107.7,11.9,112.1z M61.4,239.4c-2.2-1-4.2-2.7-5.3-4.4c-1.7-2.7-2.2-6.2-3.1-9.2c-0.8-2.8-1.5-5.9-2.6-8.6
		c-0.8-1.8-2.2-2.8-3.1-4.4c-1.2-2.1,0-4.5-1-6.5c-0.2-0.4-0.7-0.7-0.9-1.1c-1.6-1.1-2.6-2.8-2.8-4.9c0.1-0.9,0.2-1.9,0.3-2.8
		c-0.2-1.5-1.1-2.3-1.8-3.6c-1.8-3.4-1.7-6.7-0.7-10c0.5,0,1,0.1,1.5,0.1c0,0.1-0.1,0.1,0,0.2c0.7,4.4,3,8.1,6.7,10.6
		c0.6,0.4,1.2,0.8,1.9,1.1c-0.3,0.7-0.6,1.4-0.7,2.1c-0.3,3,0.9,6.4,1.8,9.3c0.1,0.5,0.3,0.9,0.4,1.4c0.9,3.6,0.9,7.5,2,11
		c0.6,1.9,2.7,3.2,3.1,4.9c0.5,2.1-0.7,4,0.7,6.2c0.5,0.8,1,1.2,1.7,1.9c1.2,1.3,2.2,2.7,3.2,4.1c1.1,1.5,2,2.5,3.3,3.4
		c-1.3,0.2-2.7-0.1-4.1-0.6C61.7,239.5,61.6,239.4,61.4,239.4z M69.8,243.9c-0.1,0.3-0.5,1.5-0.8,1.6c-1,0.5-1.8-0.3-2.2-1.1
		c-0.3-0.6-1.3-0.6-1.6,0c-0.1,0.3-0.3,0.5-0.4,0.7c-0.7-1.2-1.3-2.5-2-3.8c1.8,0.4,3.6,0.4,5.1,0c0.1,0.1,0.3,0.1,0.4,0.2
		c0.7,0.3,1.4,0.5,2,0.6C70.2,242.7,70,243.3,69.8,243.9z M82.4,245.1c-0.7,1.7-1.4,3.2-3.7,2.9c-0.5-0.1-0.8-0.6-1.4-0.5
		c-0.4,0-0.7,0.4-1.1,0.5c-0.2,0.1-0.2,0.6-0.4,0.7c-0.6,0.3-2.1-0.2-2.4-0.7c-0.6-1.1-0.5-3.3-0.6-4.6c0-0.3-0.1-0.7-0.2-1
		c0.6,0,1.2-0.2,2-0.3c0.6-0.6,1.4-0.9,2.3-0.7c0.5,0.3,1.1,0.5,1.7,0.6c0.9,0,1.1,0.2,2.1-0.1c1.1-0.3,1.3-1,2.2-1.4
		c0.5-0.2,0.9-0.3,1.3-0.4C83.7,241.7,83.1,243.4,82.4,245.1z M96.6,217.5c-0.2,0.7-0.7,1.4-1,2.2c-0.4,0.7-0.7,1.3-0.8,2
		c0,0.1,0,0.2-0.1,0.2c-0.5,2.6,1.1,5.4,0.2,8.2c-1.2,4.1-4.4,6.7-8.2,7.6c-0.5,0.1-1.1,0.2-1.7,0.3c-0.7,0.1-1.3,0.1-2,0
		c-0.3,0-0.6,0.2-0.7,0.4c-2,3.2-4.1,1.1-6.3,1.1c-1.3,0-2.4,0.3-3.5,0.5c-0.1-0.1-0.1-0.1-0.2-0.2c0,0.1,0,0.2,0,0.2
		c-0.3,0.1-0.5,0.1-0.8,0.1c-0.2,0-0.4,0.1-0.6,0.1c-0.3,0-0.6,0-0.8,0c-0.7,0-1.4-0.2-2.1-0.5c-0.4-0.2-0.8-0.5-1.3-0.8
		c-1.8-1.5-2.5-3.8-3.9-5.6c-2.3-3-6.2-4-3.7-9c0.2-0.4,0.1-0.9-0.3-1.2c-4.1-2.8-3.8-9.4-4.9-13.9c-0.2-0.6-0.4-1.5-0.8-2.5
		c-1.1-3.2-2.6-7.9-1.2-10.2c0.9,0.3,1.8,0.6,2.7,0.8c2,0.4,3.7-0.1,5.2,1.2c1.3,1.1,2,2.8,3.6,3.8c1.6,1,3.4,1.7,5.3,2
		c3.4,0.5,6.6-0.2,9.2-2.2c2.2,2.8,5.1,4.5,8.7,5c2,0.2,4.2,0.1,6.1-0.6c2.6-1,2.5-2.4,4.5-0.9c0.1,0.1,0.2,0.1,0.3,0.2
		c0.2,0.2,0.4,0.3,0.6,0.4c0.1,1.7,0.1,3.4-0.1,5.2c-0.1,1.1-0.3,2.1-0.6,3.2c-0.2,0.8-0.4,1.5-0.6,2.2
		C96.7,217,96.7,217.3,96.6,217.5z M103.9,238.4c-0.9-0.5-1.6-1.1-1.9-1.9c-0.5-1.6,0.2-2.2-0.7-3.7c-0.5-0.9-1.7-1.4-2.2-2.2
		c-0.7-1.1-0.8-2.9-1.1-4.1c-0.4-1.7-0.6-3.5-0.8-5.2c0.1-0.5,0.2-1.1,0.4-1.6c0.5-1.4,0.9-2.9,1.2-4.4c0.3-1.3,0.6-2.6,0.8-3.9
		c0.2,1.5,0.6,3,1,4.5c0.5,1.7,1.1,3.4,1.7,5.1c2.1,5.5,0.2,11.2,4.9,15.9c0.9,0.9,2,1.6,3.2,2.2c-1.7,0.5-3.8,0.4-5.6-0.2
		C104.6,238.7,104.3,238.6,103.9,238.4z M113,243.8c-0.6-0.3-1.1-0.7-1.7-1c-0.8-0.5-1.6,0.3-1.4,1.1c-0.9,1.3-1.8,1.5-2.5,0.8
		c-0.5-0.3-0.8-0.7-1-1.2c-0.3-0.6-0.5-1.4-0.7-2.1c2.6,0.4,5.4-0.1,7.3-1.4c0.4,0.1,0.7,0.2,1.1,0.3
		C113.8,241.4,113.5,242.6,113,243.8z M128.3,246.9l-0.2,1.4c-0.7,0.3-1.4,0.7-2,1c-0.2-0.1-0.4-0.8-0.6-1c-0.3-0.3-0.6-0.6-1.1-0.6
		c-0.5,0-0.8,0.4-1.3,0.5c-2.2,0.6-2.9-0.3-3.7-2.1c-0.9-1.8-1.7-3.7-2.5-5.6c0.4,0,0.8,0.1,1.2,0.2c0.5,0.2,0.9,0.9,1.4,1.1
		c2.3,0.9,4.6,0.1,7.1,0.3c0.8,0.1,1.5,0.1,2.1,0.1C128.6,243.7,128.5,245.3,128.3,246.9z M145.3,209.9c-0.5,2.4-0.4,4.8-0.8,7
		c-0.4,2-1.2,3.9-3.1,5.4c-0.3,0.2-0.3,0.7-0.1,1c2.5,4.3-0.5,5.8-2.8,8.8c-1.4,1.9-2,4.8-3.9,6.2c-1.5,1.1-3.1,1.4-4.8,1.4
		c-0.2,0-0.5,0-0.7,0c-1,0-2.1-0.1-3.1-0.1c-2.3,0-4.5,0.4-6.6-0.7c-0.3-0.2-0.7-0.4-1.1-0.5c-0.4-0.1-0.7,0-1.1,0
		c-1.6,0.1-3.3-0.1-4.7-0.7c-3.2-1.2-5.7-3.7-6.8-7.2c-0.8-2.8,0.5-5.3-0.2-7.8c-0.4-1.6-2.1-4-2.7-5.6c-0.1-0.4-0.2-0.7-0.3-1.1
		c-0.4-1.2-0.7-2.3-0.9-3.5c-0.3-1.6-0.4-3.2-0.3-4.8c6,2.3,12.5,0.2,15.1-6.5c3.7,2.9,8.4,4.2,13,2.6c2.3-0.8,4.3-2.2,5.9-4.1
		c1.1-1.4,1.8-4.2,3.2-5c0.7-0.4,2.5,0,3.5-0.2c1.2-0.3,2.3-0.7,3.3-1.4c0.7-0.5,1.4-1,2-1.7c-0.4,0.6-1,1.2-1.6,1.7
		c-0.3,0.3-0.2,0.9,0.1,1.1C149.7,196.4,145.9,206.8,145.3,209.9z M160.8,96.6c-0.8,0.5-0.6,1.6,0.3,2c5.3,2.1,7.7,7.7,6.3,13.1
		c-0.1,0.3,0,0.8,0.3,1c4.6,4.1,10.4,10.2,6.2,16.6c-0.2,0.3-0.2,0.7,0,1c4.5,7.3,3.1,17-3.4,22.6c-0.3,0.3-0.4,0.9-0.2,1.2
		c2.8,4.7,2,10.9-1.9,14.8c-2.6,2.5-6.3,2.1-7.4,5.9c-1,3.5-0.7,6-3.9,8.5c-2.2,1.7-4.4,1.5-6.8,2.4c-0.2,0.1-0.3,0.1-0.5,0.2
		c-0.1,0-0.2,0.1-0.3,0.1c-0.7,0.4-1.2,1-1.9,1.7c-2.9,3.4-5,6-10.1,5c-0.5-0.1-1,0.1-1.2,0.7c-2.4,9-12.7,12.5-19.7,6
		c-0.4-0.4-1.2-0.2-1.4,0.4c-1.8,6.3-8.6,9.3-13.9,7c-0.4-0.2-0.9-0.4-1.3-0.7c-0.2-0.1-0.4-0.3-0.7-0.5c-0.4-0.3-0.7-0.6-1.1-1
		c-0.2-0.2-0.3-0.3-0.5-0.5c-0.3-0.4-0.6-0.8-0.9-1.3c-0.3-0.4-0.7-0.4-1.1-0.1c-5.2,4.1-13.2,3.4-17-2.3c-0.2-0.3-0.8-0.6-1.2-0.3
		c-5.7,4.3-14.2,2.7-17.3-4c-0.1-0.3-0.5-0.4-0.8-0.3c-2.3,0.4-4.5,0.1-6.6-0.5c-0.7-0.2-1.3-0.5-2-0.8c-4.2-2-7.5-5.8-8.5-10.6
		c0,0,0,0,0-0.1c0.2,0,0.4,0,0.6,0c0.7,0,0.7-1,0-1.1c-0.7-0.1-1.4-0.2-2-0.3c-0.4-0.1-0.9-0.2-1.3-0.3
		c-10.8-2.9-18.4-14.2-12.5-25.4c0.2-0.4,0.2-0.9-0.2-1.2c-5.7-5.5-9.5-15.8-0.7-20.6c0.4-0.2,0.6-0.9,0.3-1.3
		c-4-6.2-2.6-14.4,3.4-18.8c0.3-0.3,0.6-0.7,0.3-1.1c-3.8-5.6-2.3-13.1,3.3-16.8c0.4-0.2,0.5-0.7,0.3-1.1c-2.1-4.4-1.3-9.3,1.6-12.9
		c1,0.7,2.4,1.3,3,2.1C39,86.1,39,87,39.2,88c0.1,0.9,0.3,1.8,1,2.6c1.2,1.4,2.7,2,4.3,2c-0.6,3,1.1,4.4,3.4,5.6
		c1.8,0.9,3.5,2.1,5.1,3.3c2.2,1.6,4.2,3.4,6.6,4.8c4.2,2.6,8.9,4.5,13.7,5.8c4,1.1,8.2,1.8,12.3,2.1c5.7,0.5,11.5,0.3,17.2-0.4
		c14.6-1.8,31.5-6.1,41.4-17.5c0.6-0.7,1.2-1.4,1.7-2.1c0.2,0,0.4-0.1,0.6-0.2c0.1,0,0.1,0,0.2,0c3.6-0.3,7.2-3.2,9.6-6.7
		C157.8,88.5,164.6,94.2,160.8,96.6z M186.1,112.9c-0.1,0-0.2-0.1-0.3-0.1c-0.7-0.2-1.5-0.4-2.2-0.8c-12-5.5-17.6-21.3-23.7-32
		c-0.5-0.9-1.1-1.8-1.6-2.7c-0.6-0.9-1.2-1.8-1.8-2.8c-2.8-4.2-5.8-8.2-8.7-12.4c-2.3-3.4-9.3-13.3-7.6-18.8c0.2-0.8,0.7-1.5,1.3-2
		c6.4,3.8,10.9,9.5,14.8,15.6c0.5,0.8,1,1.6,1.5,2.5c2.9,4.7,5.5,9.6,8.6,14.1c3.7,5.5,7.6,10.8,11.2,16.3
		C179.5,92.7,191,110.2,186.1,112.9z M187.7,113.2c5.7-5.5-13.6-31.1-16.2-34.8c-4.8-6.8-9-13.9-13.4-21c-0.4-0.7-0.8-1.3-1.2-2
		c0,0-0.1-0.1-0.1-0.1c-3.6-5.7-8.1-11.5-14.3-14.4c3.7-2.1,10.8,6.4,13.1,8.5c1.3,1.2,2.5,2.5,3.8,3.8c5.7,6,10.9,12.5,15.9,19
		c4.8,6.2,9.7,12.4,13.5,19.2c1.9,3.3,3.7,6.8,4.6,10.5c0.6,2.2,1.1,5.1,0.2,7.3C192.3,112.3,190,113.3,187.7,113.2z"/>
	<path class="st6" d="M77.9,88.7c3.7-0.1,5.9-4.4,5.3-7.7c-0.1-0.7-1-0.5-1.2,0c-0.8,2.1-1,5.3-3.9,5.7c-3,0.4-4.1-3.4-4.3-5.8
		c0-0.4-0.6-0.4-0.6,0c-0.1,1.9-0.3,3.7,0.7,5.5C74.8,87.7,76.2,88.7,77.9,88.7z"/>
	<path class="st6" d="M115.1,86.2c3.5-0.5,5.6-4.7,4.5-7.9c-0.2-0.5-1-0.6-1.2,0c-0.5,2.1-0.4,4.8-2.7,5.9c-1,0.4-2.3,0.5-3.1-0.3
		c-1-1-1-2.7-1.2-3.9c0-0.3-0.5-0.4-0.6-0.1C109.8,83,111.2,86.8,115.1,86.2z"/>
	<path class="st6" d="M98.3,91.3c-0.4,1.8,0.4,3.9,0.9,5.6c0.1,0.3,0.6,0.3,0.6-0.1c-0.1-1.9,0.6-3.9,0.5-5.7c2-0.8,3.1-3.1,3.3-5.1
		c0-0.4-0.6-0.5-0.8-0.2c-1,1.5-1.7,3.8-3.9,4c-2.2,0.1-3.7-1.9-5.2-3.1c-0.3-0.2-0.6,0.2-0.5,0.5C94.1,89.1,96.1,91,98.3,91.3z"/>
	<path class="st7" d="M79.2,91.9c-0.4,0.1-0.9,0.1-1.4,0.2c-1.5,0.1-3,0.6-4,1.7c-1,1-1,2.8,0.3,3.5c1.6,0.9,4.3,0.7,6,0.1
		c1.5-0.5,3.6-2,3.2-3.9C83,91.6,80.7,91.7,79.2,91.9z"/>
	<path class="st7" d="M113,90.8c-0.1,0.1-0.2,0.2-0.3,0.3c-0.9,1.3-0.4,2.9,1.2,3.4c1.5,0.5,3.5,0.5,5-0.2c1.5-0.7,2.7-2.4,2-4.1
		C119.6,87.3,114.4,88.4,113,90.8z M116.6,91.4C116.6,91.4,116.5,91.4,116.6,91.4c0.1-0.1,0.3-0.2,0.3-0.2c0.1,0,0.2,0,0.3-0.1
		C117,91.2,116.8,91.3,116.6,91.4z"/>
	<path class="st6" d="M98.4,117.4c-23,0-41.8,18.7-41.8,41.8c0,23,18.7,41.8,41.8,41.8s41.8-18.7,41.8-41.8
		C140.2,136.1,121.4,117.4,98.4,117.4z M98.4,199.9c-22.5,0-40.8-18.3-40.8-40.8s18.3-40.8,40.8-40.8s40.8,18.3,40.8,40.8
		S120.9,199.9,98.4,199.9z"/>
</g>
</svg>
