<?xml version="1.0" encoding="utf-8"?>
<!-- Generator: Adobe Illustrator 23.0.4, SVG Export Plug-In . SVG Version: 6.00 Build 0)  -->
<svg version="1.1" id="Animal6" xmlns="http://www.w3.org/2000/svg" xmlns:xlink="http://www.w3.org/1999/xlink" x="0px" y="0px"
	 viewBox="0 0 182.4 216.4" style="enable-background:new 0 0 182.4 216.4;" xml:space="preserve">
<style type="text/css">
	#Animal6 .st0{fill:#E3E3E3;}
		#Animal6 .st1{fill:#B6B6B6;}
		#Animal6 .st2{fill:#B0B2B1;}
		#Animal6 .st3{fill:#F7F7F7;}
		#Animal6 .st4{fill:#302D2E;}
		#Animal6 .st5{fill:#C78F8F;}
		#Animal6 .st6{fill:#FFFFFF;}
</style>
<g>
	<path class="st0" d="M83.7,106.6c-5.9-0.1-14.9-2.7-15.7-9.7c0-0.2,0-0.3,0-0.5c-0.9,1.6-1.3,3.5-1.3,5.3c0,0.9,0.1,1.8,0.6,2.6
		c0.5,0.8,1.2,1.5,2,2c4.1,2.9,9,4.7,14,5c2.3,0.1,4.9-0.1,6.5-1.8c1.4-1.4,1.8-3.6,1.5-5.6c0-0.1,0-0.2-0.1-0.3
		C89.9,106.6,86.4,106.7,83.7,106.6z"/>
	<path class="st1" d="M135.6,87.9c0-0.3,0-0.5-0.1-0.8c-0.8-10.6-3.1-21.1-7.1-30.9c-0.2-0.5-0.4-0.9-0.6-1.4
		c-0.2-0.5-0.4-0.9-0.6-1.4c-0.6-1.4-1.3-2.9-2.1-4.3c-0.7-1.2-1.3-2.5-2.1-3.7c-0.6-1-1.3-2-2-3c-2.9-4.1-6.4-7.8-10.6-10.6
		c-2.8-1.8-5.8-3.1-8.9-4c-6.5-1.8-13.6-1.6-20.3-0.2c-1.5,0.3-3,0.7-4.5,1.1c-0.5,0.1-1,0.3-1.6,0.5c-5.3,1.6-10.4,3.5-15.3,5.9
		c-0.3,0.2-0.6,0.3-0.9,0.5c-2.9,1.5-5.8,3.2-8.5,5c-7,5.4-13.6,11.6-18.2,19c-0.3,0.5-0.7,1.1-1,1.6c-0.8,1.4-1.5,2.9-2.2,4.4
		c-5.3,12.3-4,26.4,3.6,37.6c3.2,4.7,8.4,7,13.6,8.8c1.1,0.4,2.3,0.8,3.4,1.1c0.3,0.1,0.5,0.2,0.8,0.3c4.3,1.4,8.6,2.7,12.9,3.9
		c5.5,1.6,11,3.1,16.5,4.5c1.8,0.5,3.6,0.9,5.3,1.3c3.4,0.8,6.8,1.6,10.2,2.4c0.9,0.2,1.8,0.4,2.7,0.6c5.3,1.2,11.6,2.9,17.5,2.9
		c0.4,0,0.8,0,1.2,0c5.2-0.2,9.9-1.9,13.3-6.7c6.1-8.7,6.1-21.5,5.6-31.6C135.8,89.7,135.7,88.8,135.6,87.9z M75.4,55.2
		c0.9-1.6,3.9-1,5.3-0.6c1.7,0.5,0.5,3-0.9,2.1c-0.8-0.5-1.5-0.8-2.4-0.9c-0.7,0-1.3,0-1.9-0.3C75.4,55.5,75.4,55.3,75.4,55.2z
		 M68.5,70c0.2-1.4,1.7-2.8,2.9-3.4c0.7-0.4,1.9-0.8,2.4,0c0.7,1.1,0.3,2.7-0.1,3.8c-0.3,0.9-0.8,2.1-1.8,2.3c-1,0.2-2-0.1-2.7-0.8
		C68.6,71.4,68.3,70.7,68.5,70z M58.7,82.1c-3.7-1.7-6-4.7-5.1-6.7c0.9-2,4.7-2.3,8.4-0.6c3.7,1.7,6,4.7,5.1,6.7
		C66.2,83.5,62.4,83.8,58.7,82.1z M93.4,91.1c-0.3,2.3-0.6,4.6-1,6.9c-0.3,1.8-0.4,4-1.2,5.7c0,0,0,0,0,0.1c0,0.1,0,0.2,0.1,0.3
		c0.3,2-0.1,4.2-1.5,5.6c-1.6,1.7-4.2,1.9-6.5,1.8c-5-0.3-9.9-2.1-14-5c-0.8-0.6-1.5-1.2-2-2c-0.4-0.8-0.6-1.7-0.6-2.6
		c0-1.8,0.4-3.7,1.3-5.3c-0.5-6.9,5.3-14.1,10.2-18.4c2.2-2,4.9-4.2,8.1-3.6c3.6,0.7,7.7,4.2,8.1,8C94.5,85.4,93.7,88.3,93.4,91.1z
		 M109.9,63.5c-0.1,0.4-0.7,0.2-0.9,0.1c-0.3-0.1-0.6-0.2-0.9-0.2c-0.3,0-0.7,0-1,0c-1.6-0.1-1.3-2.5,0.3-2.2
		c0.7,0.1,1.3,0.6,1.8,1.1C109.4,62.5,110.1,63.1,109.9,63.5z M102.4,83c0.7-0.9,1.5-2.1,2.8-2.2c1.2-0.1,1.4,0.8,1.5,1.8
		c0.1,1.3,0.4,3-0.3,4.2c-0.7,1.2-2.4,1-3.6,0.2c-0.5-0.3-0.9-0.7-1-1.1C101.2,84.8,101.7,83.8,102.4,83z M99.2,94.3
		c0.9-2,4.7-2.3,8.4-0.6c3.7,1.7,6,4.7,5.1,6.7c-0.9,2-4.7,2.3-8.4,0.6C100.5,99.3,98.3,96.3,99.2,94.3z"/>
	<path class="st2" d="M10.5,38.2c-0.4-2.6-1.1-5.2-1.2-7.9c-0.1-6.7,4.4-12.8,10-16.2c4.5-2.8,9.7-4.1,15-5c-3.6,0-7,0.7-9.8,2.1
		c-0.3,0.2-0.6-0.3-0.3-0.5c7.4-4.1,18.6-4.4,25.3,1.2c3.8,3.2,6.3,8.1,8.4,12.5c0.7,1.5,1.3,3.1,1.6,4.7c0.3,1.4,0.5,2.9,0.5,4.4
		c0.8-0.4,1.7-0.8,2.6-1.2c3.2-1.3,6.4-2.6,9.7-3.7c-6-1.5-11.4-6.1-13.7-11.5c-1.2-2.8-1.9-5.8-3.8-8.3c-1.6-2.1-3.8-3.7-6.2-4.9
		c-5.1-2.6-10.8-3.2-16.4-2.9C21,1.7,10.5,7.5,5,17.4c-1.4,2.6-2.6,5.5-2.9,8.5c-0.3,3.2,1.2,5.6,2.7,8.2c2.5,4.4,2.7,9.3,3.8,14.1
		c1,4.5,3,8.2,6.6,9.9c-0.5-0.5-1-1-1.4-1.5C10.1,51.5,11.3,44.5,10.5,38.2z"/>
	<path class="st0" d="M50,40.2c2.8-2.4,5.7-4.4,8.9-6c-0.1-0.6-0.2-1.3-0.4-1.9c-0.7-2.6-1.8-5.1-3-7.5c-1.7-3.5-3.7-7.4-6.4-10.2
		c-3.5-3.6-9.2-5.4-14.7-5.4c-5.3,0.9-10.5,2.2-15,5c-5.7,3.5-10.2,9.6-10,16.2c0.1,2.6,0.8,5.2,1.2,7.9c0.9,6.3-0.4,13.3,3.3,18.5
		c0.4,0.6,0.9,1.1,1.4,1.5c1.3,0.7,2.9,1.1,4.7,1.2c2.8,0.2,5.7-0.3,8.6-0.2c1,0,2,0.1,3,0.3C36.2,51.7,42.8,45.5,50,40.2z"/>
	<path class="st2" d="M109.2,130c-6.4-0.9-12.8-2.6-19.1-4c-3.6-0.9-7.3-1.8-10.9-2.7c-9.7-2.5-19.3-5.3-28.8-8.3
		c-0.2,1.2-0.4,2.3-0.6,3.5c-0.7,3.5-1.8,6.9-2.6,10.3c-1.6,6.6-1.9,13.3-2.4,20c-0.1,1.6-0.2,3.3-0.4,4.9c0,0.5-0.1,1-0.1,1.6
		c-0.8,10.3-1.3,20.7,0.3,30.8c0.8,5.3,2.2,10.5,4.2,15.5c1.2,2.9,2.7,5.6,4.5,8.2c0.7,1.1,1.4,2.2,2.3,3.2c0.1,0.1,0.1,0.2,0.2,0.3
		c0.2,0.2,0.3,0.3,0.5,0.5c1.5,1.4,3.1,1.5,5.2,1.4c2.9-0.1,7.1-0.2,9.5-2c1.3-0.9,1.8-2.1,1.9-3.3c0-0.4,0-0.8,0-1.1
		c-0.1-1.1-0.5-2.3-0.9-3.4c-16-4.2-27.8-18.8-27.8-36.1c0-20.6,16.8-37.4,37.4-37.4c20.6,0,37.4,16.8,37.4,37.4
		c0,17.3-11.9,31.9-27.9,36.1c-0.3,0.9-0.6,1.8-0.8,2.8c0,0,0,0.1,0,0.1c-0.1,0.6-0.1,1.1-0.1,1.6c0.3,3.1,3.4,4.3,6.5,4.8
		c3.4,0.6,7.3,1.3,10-0.9c0.3-0.2,0.5-0.5,0.8-0.8c0.1-0.1,0.2-0.2,0.3-0.3c7.1-9.2,10.3-20.5,11.4-31.9c0.8-8.4,0.3-16.9-0.3-25.4
		c0-0.5-0.1-1.1-0.1-1.6c-0.2-2.5-0.4-4.9-0.6-7.4c-0.1-0.7-0.1-1.4-0.2-2c-0.4-4.7-0.9-9.3-1.8-13.9
		C113.7,130.5,111.4,130.3,109.2,130z"/>
	<path class="st2" d="M179.8,58.8c-1-5.9-4.2-10.3-9.1-13.7c-2.6-1.8-5.3-3.6-8.5-4.1c-3.3-0.5-6.6,0.3-9.8,0.8
		c-2.4,0.4-4.9,1-7.3,1.5c-3.4,0.7-6.8,1.5-10.2,2.1c-0.8,0.1-1.5,0.3-2.3,0.4c-2.6,0.3-5.3,0.4-7.9,0c0.5,0.9,1,1.9,1.5,2.8
		c0.7,1.4,1.4,2.8,2.1,4.3c6-3.3,13-4.7,19.9-5c8.5-0.4,20.9,2.1,21.8,12.6c0,0.3-0.1,0.4-0.3,0.5c0.9,2.4,1.5,5,1.7,7.6
		c0.4,5.1-0.6,10.2-2.3,15c-0.7,2-1.6,4-3.2,5.4c-2.6,2.4-6.4,2.7-9.9,2.1c-3.3-0.6-6.5-2-9.8-2.8c1,0.8,1.9,1.7,2.9,2.4
		c2.5,1.8,5.3,3,8.3,3.7c5.5,1.1,11.8,0.1,15.7-4.1c0.3-0.3,0.5-0.6,0.7-0.8c3.3-4,4.4-9.6,5.4-14.6
		C180.1,69.4,180.7,63.9,179.8,58.8z"/>
	<path class="st0" d="M165.8,88.7c1.6-1.4,2.5-3.4,3.2-5.4c1.7-4.8,2.7-9.9,2.3-15c-0.2-2.6-0.7-5.2-1.7-7.6c-0.2,0-0.5-0.1-0.6-0.3
		c-3.8-9.5-14.1-10.9-23.1-10.3c-5.8,0.4-11.6,1.7-16.9,4.1c1.4,3.2,2.6,6.5,3.6,9.8c2.4,7.3,4,14.8,4.6,22.4c2-0.7,4-1.2,6-0.4
		c1.1,0.5,2.1,1.2,3,2c3.3,0.8,6.5,2.2,9.8,2.8C159.4,91.4,163.2,91.1,165.8,88.7z"/>
	<path class="st2" d="M44,188.8c-2.1-10.4-2.4-21-1.7-31.5c-0.6,0.6-1.1,1.3-1.7,1.9c-1.1,1.3-2.1,2.8-3,4.3c-2.1,3.8-3.3,8-4,12.2
		c-0.8,4.9-0.9,10-1.1,15c-0.1,2.3-0.1,4.5-0.1,6.8c0,1.5,0.2,3.4-0.5,4.8c-1.6,3.1-6.5,0.8-7.7,4.5c-1.8,6,6.4,6.6,10.1,6.1
		c4.1-0.5,7.9-0.8,12-0.3c0.3,0,0.6,0.1,0.9,0.1c2,0.3,4,0.5,6,0.5c-1.7-2.3-2.9-5.3-3.9-7.5C47.1,200.2,45.2,194.7,44,188.8z"/>
	<path class="st3" d="M81.5,206.6c-2,0-4-0.2-5.9-0.5c-0.7-0.1-1.3-0.2-1.9-0.4c0.3,1,0.6,2,0.7,3c0.7-0.1,1.3-0.1,2-0.2
		c0.5-0.1,1-0.1,1.5-0.2c2.2-0.2,4.5-0.2,6.7-0.2c0.7,0,1.5,0,2.2,0c0.7,0,1.3,0,2,0c0.1-0.8,0.3-1.5,0.5-2.3
		c-0.6,0.1-1.1,0.2-1.7,0.3C85.5,206.4,83.5,206.6,81.5,206.6z"/>
	<path class="st2" d="M111.1,210.1c-0.5,0.9-1.1,2-1.8,3c2.3,0,4.6-0.3,7-0.6c3.8-0.5,7.3-0.3,11,0.2c0.3,0,0.7,0.1,1,0.1
		c3.7,0.5,11.9-0.2,10.1-6.1c-1.1-3.7-6-1.3-7.7-4.5c-0.7-1.4-0.5-3.3-0.5-4.8c-0.1-2.3-0.1-4.5-0.1-6.8c-0.1-5-0.2-10-1.1-15
		c-0.7-4.1-1.9-8.3-3.9-12c0-0.1-0.1-0.1-0.1-0.2c-1.2-2.2-2.7-4.1-4.3-5.9c-0.1-0.1-0.2-0.2-0.3-0.4c0.8,12,0.4,24.2-2.7,36
		C116.3,199,114.1,204.9,111.1,210.1z"/>
	<path class="st4" d="M179.6,53.2c-2.3-4.7-6.5-8-10.9-10.6c-5.5-3.4-10.5-2.7-16.6-1.8c-4.1,0.6-8.1,1.2-12.2,1.7
		c-3.8,0.4-7.6,1.2-11.4,1.2c-2,0-3.8-0.2-5.6-0.7c-1.8-2.6-3.7-5.1-6-7.4c-6.3-6.3-14.2-9.6-22.7-10.2c-3.5-0.3-7-0.1-10.5,0.5
		c-2.1,0.3-4.2,0.8-6.2,1.3c-4.6-0.5-9-1.7-12.7-5c-4.1-3.7-5.4-9.1-9-13.1C49.1,1.6,37.7-0.9,28,0.3C17.4,1.6,7.5,7.9,2.7,17.5
		C0.5,21.7-1.1,26.9,1,31.5c1.3,2.8,3.5,5,4.6,8.1c1,2.9,1.2,6,1.9,9c1.1,5,3.4,9.5,8.5,11.5c1.6,0.6,3.3,0.9,5.1,1.1
		c2.1,0.2,4.4,0.2,6.6,0.2c0.9,0,1.9,0,2.8-0.1c-0.1,0.1-0.1,0.2-0.2,0.3c-5.9,10.6-7.4,22.3-3,33.7c1.9,4.9,4.1,9.9,8.4,13.2
		c4.1,3.1,9.1,4.7,14,6.3c-0.2,1.1-0.4,2.2-0.7,3.3c-1,4.2-2.3,8.3-3.3,12.6c-1.4,6.2-1.9,12.5-2.6,18.8c-0.2,1.9-0.4,3.9-0.5,5.8
		c-0.3,0.3-0.7,0.6-1,0.9c-2.1,1.9-4,3.9-5.5,6.5c-2.4,4.1-3.8,8.8-4.5,13.5c-0.8,5.2-0.7,10.5-0.5,15.7c0.1,2.6,1.6,9.9-1.6,11.2
		c-1.6,0.6-3.2,0.1-4.7,1.1c-2.2,1.6-2.5,5-1.2,7.2c1.7,3,5.7,3.8,8.9,3.7c2.9-0.1,5.5-1.2,8.4-1.5c2.2-0.2,4.5-0.1,6.7,0.1
		c0.3,0,0.6,0,0.9,0.1c2,0.2,3.9,0.4,5.9,0.3c1.3,1.4,2.8,2.4,4.8,2.4c2.9,0.1,6-0.4,8.8-0.9c1.9-0.3,3.9-0.8,5.2-2.3
		c0.8-1,1.2-2.1,1.3-3.2c0.8,0,1.6,0,2.4,0c1.7-0.1,3.4-0.3,5-0.3c1.4,0,2.8,0,4.2,0c0.9,0,1.8,0.1,2.7,0.1c0,0.3,0.1,0.7,0.1,1
		c1,4.6,6.7,4.9,10.4,5.2c2.3,0.2,5.2,0.9,7.4-0.1c0.9-0.4,1.6-1.1,2.2-1.9c1.9,0.1,3.9-0.1,5.9-0.3c2.5-0.2,5.1-0.4,7.5-0.1
		c2.8,0.3,5.5,1.3,8.4,1.5c1.4,0.1,3-0.1,4.5-0.5c1.8-0.5,3.4-1.5,4.4-3.2c1.3-2.2,1-5.7-1.2-7.2c-1.5-1-3.1-0.5-4.7-1.1
		c-3.2-1.3-1.7-8.6-1.6-11.2c0.2-5.3,0.3-10.5-0.5-15.7c-0.7-4.7-2.1-9.4-4.5-13.5c-0.8-1.3-1.7-2.5-2.7-3.7
		c-1.2-1.3-2.5-2.6-3.8-3.7c0-0.2,0-0.5-0.1-0.7c-0.6-7.3-1.2-14.7-2.6-21.8c-0.1-0.7-0.3-1.5-0.5-2.2c2.5-0.2,5-0.7,7.3-1.8
		c9.4-4.6,11.5-16.7,12.5-26c0.5-4.8,0.6-9.5,0.3-14.3c0-0.3,0-0.7-0.1-1c0.2-0.1,0.4-0.1,0.6-0.2c2-0.6,3.5-0.3,4.8,0.4
		c1.6,0.8,3,2.3,4.7,3.6c2,1.5,4.2,2.7,6.5,3.6c6.1,2.2,13,1.7,18.2-1.6c2.9-1.8,5.3-4.5,6.7-8C182.5,75.7,184.2,62.6,179.6,53.2z
		 M28.4,59.1c-2.9,0-5.8,0.4-8.6,0.2c-1.8-0.1-3.3-0.5-4.7-1.2c-3.6-1.8-5.6-5.4-6.6-9.9c-1-4.8-1.3-9.7-3.8-14.1
		c-1.5-2.6-3-5.1-2.7-8.2c0.3-3,1.5-5.9,2.9-8.5C10.5,7.5,21,1.7,32.1,1.1C37.8,0.8,43.4,1.5,48.5,4c2.4,1.2,4.6,2.8,6.2,4.9
		c1.9,2.5,2.6,5.4,3.8,8.3c2.3,5.4,7.7,10.1,13.7,11.5c-3.3,1.1-6.5,2.3-9.7,3.7c-0.9,0.4-1.7,0.8-2.6,1.2c0-1.5-0.2-2.9-0.5-4.4
		c-0.4-1.6-0.9-3.2-1.6-4.7c-2.1-4.4-4.6-9.3-8.4-12.5c-6.8-5.6-18-5.3-25.3-1.2c-0.3,0.2,0,0.6,0.3,0.5c2.8-1.4,6.3-2.1,9.8-2.1
		c5.5,0,11.2,1.8,14.7,5.4c2.7,2.8,4.7,6.7,6.4,10.2c1.2,2.4,2.3,4.9,3,7.5c0.2,0.6,0.3,1.3,0.4,1.9c-3.2,1.7-6.1,3.6-8.9,6
		c-7.2,5.4-13.8,11.6-18.6,19.2C30.4,59.2,29.4,59.1,28.4,59.1z M47.4,212.7c-0.3,0-0.6-0.1-0.9-0.1c-4.1-0.5-7.9-0.2-12,0.3
		c-3.7,0.4-11.9-0.2-10.1-6.1c1.1-3.7,6-1.4,7.7-4.5c0.7-1.4,0.5-3.3,0.5-4.8c0.1-2.3,0.1-4.5,0.1-6.8c0.1-5,0.2-10,1.1-15
		c0.7-4.2,2-8.4,4-12.2c0.9-1.6,1.9-3,3-4.3c0.5-0.7,1.1-1.3,1.7-1.9c-0.7,10.5-0.5,21.1,1.7,31.5c1.2,5.8,3.1,11.4,5.5,16.8
		c1,2.2,2.2,5.2,3.9,7.5C51.4,213.1,49.4,212.9,47.4,212.7z M88.6,208.1c-0.7,0-1.3,0-2,0c-0.7,0-1.5,0-2.2,0
		c-2.2,0-4.5,0.1-6.7,0.2c-0.5,0-1,0.1-1.5,0.2c-0.6,0.1-1.3,0.2-2,0.2c-0.1-1-0.3-2-0.7-3c0.6,0.1,1.3,0.3,1.9,0.4
		c1.9,0.3,3.9,0.5,5.9,0.5c2,0,4-0.2,6-0.5c0.6-0.1,1.1-0.2,1.7-0.3C88.9,206.5,88.7,207.3,88.6,208.1z M45.1,169.2
		c0-20,16.3-36.3,36.3-36.3s36.3,16.3,36.3,36.3s-16.3,36.3-36.3,36.3S45.1,189.3,45.1,169.2z M120.5,157.3c0.1,0.1,0.2,0.2,0.3,0.4
		c1.6,1.8,3.1,3.7,4.3,5.9c0,0.1,0.1,0.1,0.1,0.2c2,3.7,3.2,7.8,3.9,12c0.8,4.9,0.9,10,1.1,15c0.1,2.3,0.1,4.5,0.1,6.8
		c0,1.5-0.2,3.4,0.5,4.8c1.6,3.1,6.5,0.8,7.7,4.5c1.8,5.9-6.4,6.6-10.1,6.1c-0.3,0-0.7-0.1-1-0.1c-3.7-0.4-7.3-0.7-11-0.2
		c-2.4,0.3-4.7,0.6-7,0.6c0.7-1,1.3-2.1,1.8-3c2.9-5.2,5.2-11,6.7-16.8C120.9,181.5,121.3,169.3,120.5,157.3z M117.7,144.3
		c0.1,0.7,0.1,1.4,0.2,2c0.2,2.5,0.4,4.9,0.6,7.4c0,0.5,0.1,1.1,0.1,1.6c0.7,8.5,1.1,17,0.3,25.4c-1.1,11.4-4.3,22.7-11.4,31.9
		c-0.1,0.1-0.2,0.2-0.3,0.3c-0.2,0.3-0.5,0.5-0.8,0.8c-2.7,2.2-6.6,1.5-10,0.9c-3.1-0.5-6.2-1.7-6.5-4.8c0-0.5,0-1,0.1-1.6
		c0-0.1,0-0.1,0-0.1c0.2-0.9,0.5-1.9,0.8-2.8c16-4.2,27.9-18.8,27.9-36.1c0-20.6-16.8-37.4-37.4-37.4c-20.6,0-37.4,16.8-37.4,37.4
		c0,17.3,11.8,31.9,27.8,36.1c0.4,1.1,0.8,2.3,0.9,3.4c0,0.4,0.1,0.8,0,1.1c-0.1,1.3-0.6,2.4-1.9,3.3c-2.5,1.8-6.7,1.8-9.5,2
		c-2.1,0.1-3.7,0-5.2-1.4c-0.2-0.2-0.3-0.3-0.5-0.5c-0.1-0.1-0.1-0.2-0.2-0.3c-0.9-1-1.6-2.1-2.3-3.2c-1.7-2.6-3.3-5.3-4.5-8.2
		c-2-5-3.4-10.2-4.2-15.5c-1.6-10.2-1-20.6-0.3-30.8c0-0.5,0.1-1,0.1-1.6c0.1-1.6,0.3-3.3,0.4-4.9c0.5-6.7,0.9-13.4,2.4-20
		c0.8-3.4,1.8-6.9,2.6-10.3c0.2-1.2,0.5-2.3,0.6-3.5c9.5,3.1,19.1,5.8,28.8,8.3c3.6,0.9,7.2,1.8,10.9,2.7c6.3,1.5,12.7,3.1,19.1,4
		c2.2,0.3,4.5,0.5,6.8,0.4C116.8,135,117.4,139.6,117.7,144.3z M130.2,122.3c-3.4,4.8-8.2,6.5-13.3,6.7c-0.4,0-0.8,0-1.2,0
		c-5.9,0-12.2-1.7-17.5-2.9c-0.9-0.2-1.8-0.4-2.7-0.6c-3.4-0.8-6.8-1.6-10.2-2.4c-1.8-0.4-3.6-0.9-5.3-1.3c-5.5-1.4-11-2.9-16.5-4.5
		c-4.3-1.3-8.6-2.5-12.9-3.9c-0.3-0.1-0.5-0.2-0.8-0.3c-1.1-0.4-2.3-0.8-3.4-1.1c-5.2-1.8-10.4-4.1-13.6-8.8
		c-7.6-11.2-8.9-25.2-3.6-37.6c0.6-1.5,1.4-2.9,2.2-4.4c0.3-0.6,0.6-1.1,1-1.6c4.6-7.5,11.2-13.6,18.2-19c2.8-1.8,5.6-3.5,8.5-5
		c0.3-0.2,0.6-0.3,0.9-0.5c4.9-2.4,10-4.4,15.3-5.9c0.5-0.2,1-0.3,1.6-0.5c1.5-0.4,3-0.8,4.5-1.1c6.7-1.4,13.8-1.6,20.3,0.2
		c3.1,0.8,6.1,2.1,8.9,4c4.2,2.8,7.7,6.4,10.6,10.6c0.7,1,1.3,2,2,3c0.7,1.2,1.4,2.4,2.1,3.7c0.7,1.4,1.4,2.9,2.1,4.3
		c0.2,0.5,0.4,0.9,0.6,1.4c0.2,0.5,0.4,0.9,0.6,1.4c4,9.8,6.3,20.3,7.1,30.9c0,0.3,0,0.5,0.1,0.8c0.1,0.9,0.1,1.9,0.2,2.8
		C136.3,100.8,136.3,113.6,130.2,122.3z M173.8,89.1c-0.2,0.3-0.4,0.6-0.7,0.8c-4,4.2-10.3,5.2-15.7,4.1c-3-0.6-5.8-1.9-8.3-3.7
		c-1-0.7-1.9-1.6-2.9-2.4c-0.9-0.8-1.9-1.5-3-2c-1.9-0.8-3.9-0.3-6,0.4c-0.6-7.6-2.3-15.1-4.6-22.4c-1.1-3.3-2.2-6.6-3.6-9.8
		c5.3-2.4,11.1-3.8,16.9-4.1c9-0.6,19.3,0.8,23.1,10.3c0.1,0.3,0.4,0.4,0.6,0.3c0.2,0,0.4-0.2,0.3-0.5c-0.9-10.4-13.3-13-21.8-12.6
		c-6.9,0.3-13.9,1.7-19.9,5c-0.6-1.4-1.3-2.9-2.1-4.3c-0.5-0.9-1-1.9-1.5-2.8c2.6,0.4,5.3,0.3,7.9,0c0.8-0.1,1.6-0.2,2.3-0.4
		c3.4-0.6,6.8-1.4,10.2-2.1c2.4-0.5,4.9-1.1,7.3-1.5c3.2-0.6,6.5-1.3,9.8-0.8c3.2,0.5,5.9,2.3,8.5,4.1c4.9,3.4,8.1,7.8,9.1,13.7
		c0.9,5.2,0.3,10.7-0.7,15.8C178.2,79.5,177.1,85.1,173.8,89.1z"/>
	<path class="st4" d="M86.1,74.6c-3.2-0.6-5.8,1.6-8.1,3.6c-4.8,4.2-10.7,11.5-10.2,18.4c0,0.2,0,0.3,0,0.5c0.8,7,9.8,9.6,15.7,9.7
		c2.7,0.1,6.2,0,7.5-2.8c0,0,0,0,0-0.1c0.7-1.7,0.9-3.9,1.2-5.7c0.4-2.3,0.7-4.6,1-6.9c0.3-2.8,1.2-5.7,0.9-8.6
		C93.9,78.8,89.7,75.2,86.1,74.6z"/>
	<path class="st4" d="M71.8,72.7c1-0.2,1.5-1.4,1.8-2.3c0.4-1.1,0.7-2.8,0.1-3.8c-0.5-0.8-1.8-0.4-2.4,0c-1.2,0.7-2.6,2-2.9,3.4
		c-0.1,0.7,0.2,1.4,0.7,1.9C69.8,72.6,70.9,72.9,71.8,72.7z"/>
	<path class="st4" d="M102.7,87c1.2,0.8,2.9,1,3.6-0.2c0.7-1.2,0.5-2.9,0.3-4.2c-0.1-1-0.3-1.9-1.5-1.8c-1.3,0.1-2.1,1.3-2.8,2.2
		c-0.6,0.8-1.2,1.9-0.7,2.9C101.8,86.3,102.2,86.7,102.7,87z"/>
	<path class="st4" d="M77.4,55.8c0.9,0.1,1.7,0.4,2.4,0.9c1.3,0.9,2.5-1.6,0.9-2.1c-1.4-0.4-4.4-1-5.3,0.6c-0.1,0.1,0,0.3,0.1,0.3
		C76.1,55.9,76.8,55.8,77.4,55.8z"/>
	<path class="st4" d="M107.3,61.1c-1.6-0.3-1.9,2.1-0.3,2.2c0.3,0,0.7,0,1,0c0.3,0,0.6,0.1,0.9,0.2c0.3,0.1,0.8,0.3,0.9-0.1
		c0.2-0.4-0.5-1-0.8-1.3C108.6,61.8,108,61.3,107.3,61.1z"/>
	<path class="st5" d="M62,74.7c-3.7-1.7-7.5-1.4-8.4,0.6c-0.9,2,1.3,5.1,5.1,6.7c3.7,1.7,7.5,1.4,8.4-0.6C68,79.4,65.7,76.4,62,74.7
		z"/>
	<path class="st5" d="M104.3,101c3.7,1.7,7.5,1.4,8.4-0.6c0.9-2-1.3-5.1-5.1-6.7c-3.7-1.7-7.5-1.4-8.4,0.6
		C98.3,96.3,100.5,99.3,104.3,101z"/>
	
		<ellipse transform="matrix(0.9732 -0.2298 0.2298 0.9732 -36.6997 23.2409)" class="st6" cx="81.5" cy="169.2" rx="36.3" ry="36.3"/>
</g>
</svg>
