<?xml version="1.0" encoding="utf-8"?>
<!-- Generator: Adobe Illustrator 23.0.4, SVG Export Plug-In . SVG Version: 6.00 Build 0)  -->
<svg version="1.1" id="Animal10" xmlns="http://www.w3.org/2000/svg" xmlns:xlink="http://www.w3.org/1999/xlink" x="0px" y="0px"
	 viewBox="0 0 306.4 248.3" style="enable-background:new 0 0 306.4 248.3;" xml:space="preserve">
<style type="text/css">
	#Animal10 .st0{fill:none;}
	#Animal10 .st1{fill:#1C0000;}
	#Animal10 .st2{fill:#3F3A37;}
	#Animal10 .st3{fill:#FAF2EC;}
	#Animal10 .st4{fill:#BDAFA4;}
	#Animal10 .st5{fill:#34302D;}
	#Animal10 .st6{fill:#5E5956;}
	#Animal10 .st7{fill:#DDCEC5;}
	#Animal10 .st8{fill:#D5A996;}
	#Animal10 .st9{fill:#FFFFFF;}
</style>
<g>
	<path class="st0" d="M152.3,145.5c0.1-0.4,0.1-0.9,0.2-1.3C152.4,144.6,152.4,145.1,152.3,145.5z"/>
	<path class="st0" d="M146,169.3c-0.1-0.3-0.3-0.5-0.4-0.8C145.7,168.7,145.8,169,146,169.3z"/>
	<path class="st0" d="M146.8,171c-0.1-0.2-0.2-0.3-0.2-0.5C146.6,170.7,146.7,170.8,146.8,171z"/>
	<path class="st0" d="M151.3,185.8C151.3,185.8,151.3,185.8,151.3,185.8C151.3,185.8,151.3,185.8,151.3,185.8L151.3,185.8z"/>
	<path class="st0" d="M148.3,174.6c0,0,0-0.1-0.1-0.1C148.3,174.5,148.3,174.5,148.3,174.6z"/>
	<polygon class="st0" points="150.1,180.1 150.1,180.1 150.1,180.1 	"/>
	<path class="st0" d="M144.3,165.5c-0.1,0.1-0.2,0.2-0.3,0.2C144.1,165.7,144.2,165.6,144.3,165.5L144.3,165.5z"/>
	<path class="st0" d="M152.1,146.9c0-0.1,0-0.1,0-0.2C152.1,146.7,152.1,146.8,152.1,146.9z"/>
	<path class="st0" d="M149,176.4C148.9,176.4,148.9,176.4,149,176.4C148.9,176.4,148.9,176.4,149,176.4z"/>
	<path class="st0" d="M151.8,148.2C151.8,148.2,151.8,148.2,151.8,148.2C151.8,148.2,151.8,148.2,151.8,148.2z"/>
	<path class="st0" d="M147.6,172.8c0-0.1-0.1-0.2-0.1-0.3C147.5,172.6,147.5,172.7,147.6,172.8z"/>
	<path class="st0" d="M145,167.5c-0.3-0.6-0.6-1.1-1-1.7C144.4,166.4,144.7,167,145,167.5z"/>
	<path class="st1" d="M69.1,114.9v0.1c0,1.1,0.2,2.2,0.6,3.1c-0.6,0-1.2,0-1.9-0.3c-0.1,0-0.2,0.1-0.1,0.2c1.7,1.2,3.8,0.6,5.2-0.8
		c0.6-0.6,2-2.1,1.8-3.1c0.4,0.1,0.7,0.1,1.1,0c0.2,0,0.1-0.3,0-0.3c-0.6-0.2-1.2-0.3-1.8-0.5c-0.3-0.1-0.5,0.4-0.2,0.5
		c1.1,0.5-1.3,2.9-1.7,3.2c-0.7,0.6-1.5,0.9-2.3,1c-0.1-0.6-0.2-1.2-0.3-1.7c-0.1-0.5-0.1-0.9-0.2-1.4c0,0,0-0.1,0-0.1
		c0.2-0.1,0.4-0.2,0.6-0.3c1.1-0.7,1.8-2.2,2.5-3c1-1.3,2.5-3.1,2.6-4.7c0.1-3.3-6.8-2.1-8.7-1.6c-1.4,0.4-3.1,1.1-3.8,2.5
		c-0.6,1.3-0.2,2.5,0.7,3.6C64.7,113.1,67.4,114.4,69.1,114.9z"/>
	<path class="st1" d="M53.6,94.7c0.5,0.4,1.2,0.6,1.7,0.1c1.1-1,1.1-3.5,0.1-4.8c0.3,0.4,0.1,1.1-0.5,1.1c-0.9,0-0.9-1.4,0-1.4
		c0.1,0,0.3,0,0.4,0.1c-0.3-0.3-0.7-0.6-1.1-0.7c-2.7-0.6-2.6,3.8-1.4,5.1C53,94.5,53.3,94.6,53.6,94.7z"/>
	<path class="st1" d="M83,84.6c-1.1-0.4-2.3,0.3-2.7,1.3c-0.4,0.9-0.3,2.1,0,3.1c0,0.5,0.2,1.1,0.5,1.5c0.6,0.8,1.8,1.1,2.7,0.6
		c1.1-0.7,1.1-2.3,1-3.5C84.5,86.5,84.2,85,83,84.6z M83.3,86.5c-0.9,0-0.9-1.4,0-1.4C84.2,85.1,84.2,86.5,83.3,86.5z"/>
	<path class="st2" d="M29.5,116.1c-0.3,0.1-0.6,0.2-0.8,0.3c1.5,2.6,3.4,4.9,5.9,6.9c0.1,0.1,0.3,0.2,0.4,0.3
		c0.2-0.1,0.5-0.2,0.7-0.3C33.2,121.2,31.1,118.8,29.5,116.1z"/>
	<path class="st2" d="M40.8,126.2c1.8-1.7,3.7-3.3,5.6-4.9c0.7,0.9,1.6,1.7,2.6,2.4c0.1-0.1,0.3-0.2,0.4-0.3
		c-1.1-0.7-2.1-1.5-2.6-2.4c-0.1-0.2-0.3-0.5-0.3-0.7c-0.1-0.3-0.2-0.7-0.3-1.1c-0.2,0.1-0.5,0.2-0.7,0.3c0.1,0.2,0.1,0.4,0.2,0.6
		c0.1,0.2,0.2,0.4,0.3,0.6c-2,1.7-3.9,3.5-5.7,5.4c-1.5-0.7-2.8-1.5-4.1-2.5c-0.2,0.1-0.5,0.2-0.7,0.3c1.4,1,2.8,1.9,4.3,2.6
		c0.2,0.1,0.3,0.2,0.5,0.2c1,0.4,2,0.8,3,1.2c0.2-0.2,0.4-0.3,0.6-0.5C42.8,127.1,41.8,126.7,40.8,126.2z"/>
	<path class="st2" d="M49.4,111.7c-0.3,0-0.6,0.1-0.9,0.1c-0.2,0.2-0.3,0.4-0.5,0.6c-1.5,1.9-3.2,4.2-2.7,6.6
		c0.3-0.1,0.6-0.2,0.8-0.3c0-0.4,0-0.8,0.1-1.3C46.6,115.1,47.9,113.4,49.4,111.7z"/>
	<path class="st2" d="M79.7,124.9c3.5-1.1,6.9-2.7,9.6-4.8c2.3-1.8,8.7-6.1,10.7-10.4c-0.3,0.1-0.6,0.2-0.9,0.2
		c0,0.1-0.1,0.1-0.1,0.2c-2.5,4.2-8.5,8.9-12.7,11.2c-1.4,0.8-2.9,1.4-4.4,2c-3.6,1.4-7.4,2.3-11.1,2.8c-4,0.6-15.3,0.7-21.1-2.5
		c-0.1,0.1-0.3,0.2-0.4,0.3c4.4,2.7,11.1,3.1,15.3,3.2C69.4,127.1,74.7,126.4,79.7,124.9z"/>
	<path class="st2" d="M100.3,108.9c0.6-1.6,0.5-3.1-0.6-4.5c-0.8-1.1-2.2-1.9-3.7-2.5c-0.2,0.1-0.5,0.3-0.7,0.4
		c3.1,1.6,5.2,3.6,4.2,6.4c-0.1,0.2-0.1,0.4-0.2,0.6c0,0,0,0.1-0.1,0.1c0.5-0.1,1-0.3,1.5-0.4C100.7,109,100.5,109,100.3,108.9z"/>
	<path class="st2" d="M92.2,100.5c-0.8-0.3-1.6-0.6-2.4-0.9c-0.1,0.1-0.2,0.3-0.4,0.4c1.9,0.7,3.9,1.4,5.6,2.2
		c0.2-0.1,0.4-0.3,0.6-0.4C94.4,101.3,93.2,100.9,92.2,100.5z"/>
	<path class="st2" d="M296.5,168.4c-7.5-3.5-16.2-1.8-23.6,1c-0.1,0-0.1,0-0.2,0.1c-0.1,0-0.1,0.1-0.1,0.1c-7.6,3-14.6,6.7-22.3,8.9
		c-0.2,0-0.3,0.1-0.5,0.1c-2.4,0.7-4.9,1.2-7.5,1.5c-5.9,0.6-11.6-0.1-17.4-0.4c-0.3,0-0.6,0-0.9,0c-0.2,0-0.4,0-0.6,0
		c-3.5-0.1-7.1,0.1-10.6,0.4c-1.7,0.2-3.4,0.4-5,0.6c-3.2,0.5-6.4,1-9.6,1.5c-2.8-8.6-7-17-11.2-24.7c-6.8-12.4-15.8-22.9-24.3-34.1
		c-7.7-10.3-13.7-21.4-18.2-33.4c5.1-7.4,7.6-16,5.8-25.1c-0.1-0.3-0.1-0.6-0.2-0.9c-0.1-0.5-0.2-1-0.4-1.5c-0.7-2.6-1.7-5-3-7.4
		c-0.1-0.2-0.2-0.4-0.3-0.7c-4.2-7.7-10.8-13.9-18.5-18.3c5.1-11-2.1-28.2-11-34.5c-6-4.2-12.6,1.2-16.7,5.6
		c-3.1,3.2-5.7,6.9-8.2,10.6c-1.6,2.3-3,4.6-3.6,7.1c-2.9-0.3-5.9-0.5-8.7-0.7c-4-0.2-8.2-0.1-12.3,0.6c-7.3,1.3-14.1,4.2-18.7,9.8
		C46,32,42,30.4,38.4,29.9c-5.6-0.7-11.4-0.4-17,0.2c-2.7,0.3-8.1,0.1-10,2.3c-2,2.3-0.9,8.4-0.6,11.2c0.5,4.4,1.7,8.6,3.4,12.6
		c3,7.1,7.8,14.1,14.2,18.7c-0.6,2.3-1.1,4.5-1.5,6.7c0,0.1,0,0.1,0,0.1c-0.7,3.5-1.2,6.9-1.7,10.2c0,0.3-0.1,0.6-0.1,0.9
		c0,0.1,0,0.3,0,0.4c-0.8,7.7-0.4,15.9,3.2,22.5c0.3-0.1,0.6-0.2,0.8-0.3c-2.6-4.8-3.8-10.5-3.6-16.6c0.1-1.9,0.2-3.8,0.4-5.7
		c6-0.7,10.7-8.3,13.3-13.2c1.7-3.2,3.6-6.4,6.6-8.6c4.3-3.2,10.3-3.5,13.4,1.6c0.5,0.8,0.8,1.6,1.1,2.4c0.1,0.3,0.2,0.5,0.2,0.8
		c1.8,5.8,0.1,12.8-2,18.2c-2.4,6.2-5.9,11.7-9.9,16.9c0.3,0,0.6-0.1,0.9-0.1c0.4-0.5,0.8-0.9,1.1-1.4c1.7-2.2,3.1-4.6,4.5-7
		c2.8-5.1,5.3-10.5,6.2-16.2c0.9-5.6-0.2-12.5-1.9-17.9c-1.4-4.3-4.8-7.1-9.5-6.9c-9,0.5-14.2,16.2-22.4,19.6c0.4-2,0.9-4,1.4-6
		c0.1-0.3,0.1-0.5,0.2-0.8c0.7-2.6,1.4-5.1,2.2-7.5c0,0,0.1,0.1,0.1,0.1c0.1,0.1,0.2,0,0.1-0.1c-0.1-0.1-0.1-0.1-0.2-0.2
		c1.4-4.1,2.9-8,4.7-11.7c4.4-9.4,10.7-18.4,19.5-24.1c5.5-3.6,11.7-5.2,18-5.7c4.6-0.4,9.2-0.2,13.8,0.3
		C109,28,134.4,34.5,145.4,55c-5.4,3.6-12.4,4.4-19,3.9c-1.5-0.1-3.1-0.3-4.5-0.6c-10.4-1.8-20.3-5-30.9-5c-6.5,0-16.7-0.1-21.2,5.7
		c-4.5,5.8-1.5,13.7,0.6,19.8c0.7,2,1.4,3.9,2.3,5.8c2.2,4.8,5.1,9.2,9.5,12.4c1.4,1,4.1,1.9,7,2.9c0.1-0.1,0.2-0.3,0.4-0.4
		c-3.6-1.4-7-2.9-9.9-6.1c-2.9-3.2-5.3-6.9-7-10.9c-0.5-1.1-0.9-2.2-1.2-3.4c-0.2-0.5-0.3-1.1-0.4-1.6c0-0.1,0-0.1,0-0.1
		c-2.1-9.3,3.8-15.5,12.9-16.2c14.5-1.2,28,6.5,42.2,8.3c1.3,0.2,2.6,0.3,3.9,0.3c6.8,0.2,13.5-1.2,19.3-4.4c1.4,8-0.4,16-5.2,23.2
		c-0.1,0.1-0.1,0.2-0.2,0.3c-0.5,0.7-1,1.4-1.6,2.1c-4.7,5.9-10.2,11.2-16.3,15.8c0.5,0,1,0.1,1.6,0.1c4.7-3.6,9-7.6,12.9-11.9
		c1.4-1.6,2.7-3.2,3.9-4.9c3.1,8.5,7.1,16.7,12,24.4c6.1,9.6,13.7,18.1,20.4,27.3c6.6,9,11.9,18.9,16.5,29c0.9,1.9,1.7,3.8,2.4,5.7
		c3.6,9.2,6.3,19.5,5.1,29.5c-0.5,4.1-1.6,8.1-3.2,11.7c-0.1,0.3-0.3,0.6-0.4,0.9c-4.1,8.6-11.1,15.5-19.6,19.7
		c-5,2.5-10.5,3.9-16.3,4.2c2.9-2.7,4.9-6.6,6.8-9.9c3.5-5.8,6.9-11.8,9.6-18c1.3-3.1,4.4-10.1,4.9-16.1c0.2-2.5,0-4.9-0.9-6.7
		c-0.6-1.1-1.5-2-2.7-2.6c-3.5-1.7-7,0.5-9.5,2.9c-4.4,4.2-8.1,9.3-11.4,14.3c-2.6,4.1-5.2,8.2-7.3,12.6c-1.6,3.3-2.8,6.8-3.7,10.4
		c-0.9,3.5-1.7,7.1-0.9,10.7c0,0.1,0,0.3,0.1,0.4c-2.4-0.8-4.7-1.8-7-3c-1.8-1-3.6-2.1-5.3-3.3c11.1-10,18.1-24.4,18.1-40.5
		c0-2.7-0.2-5.4-0.6-8c0,0,0-0.1,0-0.1c-0.1-0.3-0.1-0.6-0.2-1c-0.1-0.7-0.4-1.4-0.5-2.1c0,0,0,0,0,0c-0.2-0.8-0.4-1.7-0.5-2.6
		c0,0,0,0,0,0c-0.3-1.3-0.7-2.5-1.1-3.8c0,0,0,0,0,0c-0.2-0.6-0.4-1.2-0.6-1.8c0,0,0-0.1-0.1-0.1c-0.2-0.6-0.4-1.1-0.7-1.6
		c0-0.1-0.1-0.2-0.1-0.3c-0.2-0.5-0.4-1-0.7-1.5c-0.1-0.2-0.2-0.3-0.2-0.5c-0.2-0.4-0.4-0.8-0.6-1.2c-0.1-0.3-0.3-0.5-0.4-0.8
		c-0.2-0.3-0.3-0.6-0.5-0.9c-0.3-0.6-0.6-1.1-1-1.7c0,0,0,0,0-0.1c0.1-0.1,0.2-0.2,0.3-0.2c0.1-0.3,0.2-0.5,0.5-0.7
		c0.1-0.1,0.3-0.2,0.4-0.3c0,0,0,0,0.1,0c3.5-4,5.5-10.4,6.6-16.3c0,0,0,0,0,0c0.1-0.4,0.2-0.9,0.2-1.3c0-0.1,0-0.1,0-0.2
		c0.1-0.4,0.1-0.8,0.2-1.2c0.1-0.4,0.1-0.9,0.2-1.3c0.3-2.3,0.5-4.5,0.6-6.2c0-0.2-0.4-0.3-0.4-0.1c-0.3,1.3-0.5,2.7-0.7,4.1
		c-1.1,6.4-2.1,13-5,18.7c-0.7,1.4-1.5,2.5-2.4,3.4c-0.2,0.2-0.4,0.4-0.7,0.6c-0.1,0.1-0.2,0.2-0.3,0.3c-0.1,0.1-0.2,0.2-0.4,0.3
		c-0.1,0.1-0.3,0.2-0.4,0.3c-5.6,4-13.3,1.6-19-3.4c-7.9-7-13.9-16.8-23.9-21c0-0.1,0-0.1,0.1-0.1c0-0.1,0.1-0.2,0.1-0.2
		c0-0.1,0.1-0.3,0.1-0.4c0.1-0.2,0.1-0.3,0.2-0.5c0.1-0.2,0.1-0.3,0.2-0.5c0.4-1.2,0.8-2.4,1.2-3.6c3.4,0.2,6.7,1.6,10.1,2.6
		c3.8,1.1,7.7,1.8,11.6,1.8c5.7,0.1,12.2-1,14.5-7c0.1-0.1-0.1-0.2-0.2-0.1c-4.5,8.9-17.9,6.9-25.7,4.5c-3.3-1-6.7-2.6-10-2.8h-0.6
		c-1,0-1.9,0.1-2.9,0.4c-0.2-0.5-0.3-1.1-0.4-1.6c-0.1-0.6-0.2-1.1-0.6-1.6c-0.3-0.4-1.1-0.8-1.6-0.7c-0.9,0.1-0.4,1.3-0.2,1.9
		c-0.5-0.2-1-0.4-1.5-0.5c-2.2-4.4-9.6,0.9-11.2,3.9c-0.1,0-0.3,0.1-0.4,0.1c-0.1,0-0.3,0.1-0.4,0.1c-8.8,1.5-17.4,4.9-24.5,10.4
		c0.1-5.6,0.7-11.2,1.7-16.8c1.4,0,2.8,0,4.2-0.1c1.3-0.1,2.6-0.1,3.8-0.2c15.7-1.3,31.4-6.1,45.4-13.8c0.2-0.1,0.4-0.2,0.6-0.4
		c3.3-1.8,6.5-3.8,9.6-6c1.2-0.9,2.5-1.8,3.7-2.7c-0.5,0-1-0.1-1.6-0.1c-0.4,0.3-0.8,0.5-1.1,0.8c-3.6,2.6-7.4,5-11.4,7.2
		c-3.2-2.9-7-4.8-11.2-6c-0.4,0.1-0.9,0.2-1.3,0.3c4.3,1.2,8.3,3.2,11.8,6c-10.6,5.7-22.1,9.8-33.5,12c-5.4,1.1-11.1,1.9-16.8,2
		c-0.7,0-1.4,0.1-2.2,0.1h-0.3c-5.1,0-10.2-0.6-15.1-2.2c-0.2,0.2-0.4,0.3-0.6,0.5c4.9,1.7,10.2,2.4,15.5,2.4
		c-1.2,5.6-1.8,11.4-1.9,17.2c-0.4,0.3-0.8,0.6-1.2,0.9c-5.3,4.5-14.5,14.6-10.1,22.2c0.4,0.7,0.9,1.3,1.4,1.8
		c-2,4.6-3.3,9.6-4,14.8c-8.5,4.8-15,13.7-19.6,22.8c-2.2-8.1-5.6-15.9-10.2-23c-1.8-2.8-4.3-7.1-8.2-7.1c-3.3,0-5.2,3.2-5.4,6.2
		c-0.3,5.2,3,10.9,5.1,15.6c2.7,5.9,5.9,11.6,9.5,17c1.7,2.6,5.8,10.2,9.8,9.3c0.3-0.1,0.6-0.2,0.8-0.4c4.7,3,10.9,3.6,16.5,2.8
		c4.4-0.6,8.8-1.8,13.1-2.8c10,12.6,25.4,20.6,42.6,20.6c13.7,0,26.2-5.1,35.8-13.4c0.6,0.4,1.3,0.8,1.9,1.2c3.5,2.2,7.1,4.1,11,5.4
		c1.2,0.4,1.3,2,1.9,2.9c2.4,3.2,7.3,2.1,10.3,0.4c0.7-0.4,1.3-0.8,1.9-1.3c5.6-0.2,11-1.4,16-3.6c8.9-3.9,16.4-10.9,20.9-20.1
		c0.2-0.4,0.3-0.7,0.5-1.1c2.3-0.4,4.6-0.7,6.9-1c0.2,0,0.5-0.1,0.7-0.1c1.2-0.1,2.4-0.3,3.5-0.4c3.2-0.4,6.5-0.6,9.8-0.6
		c1.4,0,2.9,0.1,4.3,0.2c2.6,0.3,5,0.9,7.5,1.6c0.2,0.1,0.5,0.1,0.7,0.2c2.7,0.8,5.4,1.7,8.2,2.4c0.5,0.1,1.1,0.3,1.6,0.4
		c5.6,1.2,11.5,0.5,17.2-0.8c0.2-0.1,0.5-0.1,0.7-0.2c3.6-0.8,7.1-1.9,10.5-2.9c3.4-1,6.7-2.1,9.9-3.4c0.2-0.1,0.3-0.1,0.5-0.2
		c5.2-2.2,10.1-4.9,14.5-8.5c5.8-4.9,11.2-11.7,12.2-19.5C307.2,178.8,303.2,171.5,296.5,168.4z M38.7,71.7
		c4.2-4.8,9.6-12.6,16.7-7.6c3.7,2.6,4.9,6.4,5,10.4c-1.7-4.4-5-7.4-10.8-5.7c-5,1.5-8.1,6-10.5,10.4c-2.7,5-7.1,12.9-13.1,13.7
		c0.4-3.8,0.9-7.6,1.7-11.3C32.1,79.7,35.9,75,38.7,71.7z M31,66.2c-2.5-3-4.8-6.1-6.7-9.5c-1.9-3.3-4.4-7.4-4.6-11.3
		c-0.3-6.4,9-5.5,13.1-5.8c3.9-0.2,8.1-0.2,11.1,1.9C38.2,48.6,34,57.2,31,66.2z M122.3,33.3c-7.4-3.3-15.5-5.5-23.7-7
		c1.5-3,3.1-5.9,5-8.6c1.6-2.3,3.2-5,5.3-6.8c4.8-4.2,8.4-0.2,10.7,3.2C123.6,20.1,124.1,26.9,122.3,33.3z M129.6,68.9
		c-2.6-0.1-5.1-0.4-7.7-0.9c-11.4-2.2-22.2-7.2-33.9-7.6c-8.3-0.3-17.8,2.5-18.2,12.2c0,0.6,0,1.2,0,1.8c-0.9-2.8-1.5-5.7-1.4-8.6
		c0.2-6.8,5.2-10,11.3-11c10.7-1.8,21.5-0.5,31.9,2c4.6,1.1,9.9,2.3,15.1,2.7c6.9,0.6,13.7-0.1,19.1-3.8c0,0.1,0.1,0.1,0.1,0.2
		c1.5,2.8,2.5,5.8,3.1,8.7C143.1,67.7,136.5,69.1,129.6,68.9z M45.5,166.7c-0.1-7.1,6-13.9,11.7-18.5c0.2-0.1,0.3-0.2,0.5-0.4
		c0.9-0.7,1.8-1.4,2.7-2c6.6-4.5,14.2-7.1,22-8.7c0.9,1.3,1.7,2.5,2.6,3.8c0,0,0,0,0,0.1c-0.1,0.2-0.2,0.3-0.3,0.5
		c-0.1,0.2-0.3,0.4-0.4,0.6c0,0.1-0.1,0.1-0.1,0.2c0,0,0,0-0.1,0c0,0,0,0,0,0.1c-4.2,6.8-8,13.5-13.5,19.6c-3,3.3-6.2,6.7-9.9,9.2
		c-1.4,1-3.2,1.7-5,2.1c-0.1,0-0.2,0.1-0.3,0.1c-2.5,0.5-5,0.3-6.9-0.8c-0.1-0.1-0.2-0.1-0.3-0.2c0,0-0.1-0.1-0.1-0.1
		c-0.1-0.1-0.3-0.2-0.4-0.3C46.4,170.9,45.6,169.2,45.5,166.7z M25.9,227.3c0.9-0.7,0.8-2.5,0.5-4.2c-0.2-1.9-0.7-3.9-0.9-5h0
		c-0.4-2.4-0.9-4.9-1.5-7.2c3.6-6.1,7.1-12.4,12.2-17.5c2.2-2.2,4.6-4,7.1-5.4c-0.2,1.9-0.3,3.8-0.3,5.8c0,12.5,4.2,24,11.3,33.2
		C45.2,229.1,33.9,232.2,25.9,227.3z M132.9,233.8c-0.2,0.2-0.4,0.3-0.6,0.5c-9.4,8.1-21.6,13-34.9,13c-16.8,0-31.7-7.8-41.5-19.9
		c-0.2-0.2-0.3-0.4-0.5-0.6c-7.1-9.1-11.4-20.5-11.4-32.9c0-2.1,0.1-4.2,0.4-6.3c0-0.3,0.1-0.6,0.1-0.9c0.6-4.7,1.9-9.3,3.7-13.5
		c0.1,0,0.1,0.1,0.2,0.1c1.7,1.2,3.6,1.4,5.6,1.1l2.7-0.8c3.6-1.4,7.2-4.1,9.4-6.2c7.4-6.9,15.2-15.9,19-25.5c0,0,0,0,0,0
		c3.4-0.8,7-1.3,10.7-1.4c0.2,0,0.4,0,0.6,0c0.9,0,1.8,0,2.6,0.4c0.6,0.3,1,0.7,1.5,1.1c0.6,0.4,1.2,0.5,1.8,0.9
		c1.1,0.7,2.1,1.4,3.1,2.1c2,1.5,3.9,3.2,5.7,5c1.8,1.8,3.5,3.7,5.2,5.6c4.9,5.4,10.4,11.9,18,13c3.6,0.5,6.5-0.4,8.9-2.2
		c0,0,0,0.1,0.1,0.1c3.7,6.2,6.2,13.2,7.1,20.7c0.1,1.2,0.3,2.4,0.3,3.6c0.1,1,0.1,2,0.1,3.1C150.9,209.7,143.9,224,132.9,233.8z
		 M200.8,217.3c-0.9,0.1-1.8,0.3-2.8,0.4c3.5-8.3,4-16.9,2.6-25.4c2.3,8,3.6,16.2,3.9,24.5C203.3,216.9,202.1,217.1,200.8,217.3z
		 M230.5,217.4c-4.4-1.2-8.8-1.7-13.2-1.7c-4,0-8,0.4-12.1,0.9c-0.3-9.8-2.2-19.5-5.5-28.8c-0.4-1.7-0.9-3.3-1.4-5
		c4.5-0.7,9.1-1.4,13.6-1.9c3.9-0.4,7.8-0.7,11.7-0.6C228.6,192.3,231.8,204.8,230.5,217.4z M279.6,213c-5.4,2.3-11,3.9-16.6,5.3
		c-1.3,0.3-2.7,0.7-4,1c2-13.8-1.6-27.6-8.2-40c1.2-0.3,2.4-0.6,3.6-1c6.4-2.1,12.4-5.5,18.7-8C281.5,183.3,284.8,198.2,279.6,213z"
		/>
	<path class="st3" d="M26.1,92.9c6-0.8,10.5-8.7,13.1-13.7c2.4-4.4,5.4-8.9,10.5-10.4c5.7-1.7,9.1,1.3,10.8,5.7
		c-0.2-4.1-1.3-7.9-5-10.4c-7.1-4.9-12.5,2.8-16.7,7.6c-2.8,3.2-6.6,7.9-11,9.8C27,85.4,26.4,89.2,26.1,92.9z"/>
	<path class="st4" d="M254.4,178.3c-1.2,0.4-2.4,0.7-3.6,1c6.6,12.3,10.2,26.2,8.2,40c1.3-0.3,2.7-0.7,4-1
		c5.6-1.4,11.3-3.1,16.6-5.3c5.2-14.8,1.8-29.7-6.5-42.7C266.8,172.8,260.8,176.2,254.4,178.3z"/>
	<path class="st4" d="M212,181c-4.5,0.5-9.1,1.3-13.6,1.9c0.5,1.7,1,3.3,1.4,5c3.3,9.2,5.2,19,5.5,28.8c4-0.5,8-0.9,12.1-0.9
		c4.4,0,8.8,0.4,13.2,1.7c1.3-12.6-1.9-25.1-6.8-37C219.8,180.3,215.9,180.5,212,181z"/>
	<path class="st5" d="M198,217.7c0.9-0.2,1.9-0.3,2.8-0.4c1.2-0.2,2.4-0.4,3.7-0.5c-0.3-8.3-1.6-16.5-3.9-24.5
		C202,200.8,201.6,209.4,198,217.7z"/>
	<path class="st4" d="M43.3,188.1c-2.6,1.4-5,3.2-7.1,5.4c-5.1,5.1-8.6,11.3-12.2,17.5c0.6,2.4,1.1,4.8,1.5,7.2h0
		c0.2,1.1,0.8,3.1,0.9,5c0.3,1.7,0.4,3.5-0.5,4.2c8,4.8,19.3,1.8,28.4-0.3c-7.1-9.2-11.3-20.7-11.3-33.2
		C43,191.9,43.1,190,43.3,188.1z"/>
	<path class="st4" d="M141.1,109.1C141.1,109.2,141.1,109.2,141.1,109.1c-0.6-0.1-1.2-0.2-1.8-0.3c-4.1-0.8-8.3-1.3-12.4-1.6
		c-1.2,0.9-2.4,1.8-3.7,2.7c-3.1,2.2-6.3,4.2-9.6,6c-0.2,0.1-0.4,0.3-0.6,0.4c-14,7.7-29.7,12.5-45.4,13.8c-1.3,0.1-2.5,0.2-3.8,0.2
		c-1.4,0.1-2.8,0.1-4.2,0.1c-1.1,5.6-1.6,11.2-1.7,16.8c7.1-5.5,15.7-8.9,24.5-10.4c0.2,0,0.3-0.1,0.4-0.1c0.1,0,0.3-0.1,0.4-0.1
		c1.6-3,9-8.3,11.2-3.9c0.5,0.1,1,0.3,1.5,0.5c-0.2-0.5-0.8-1.8,0.2-1.9c0.5-0.1,1.3,0.3,1.6,0.7c0.3,0.5,0.5,1,0.6,1.6
		c0.1,0.6,0.3,1.1,0.4,1.6c0.9-0.3,1.9-0.4,2.9-0.4h0.6c3.3,0.2,6.8,1.7,10,2.8c7.8,2.4,21.1,4.4,25.7-4.5c0.1-0.1,0.2,0,0.2,0.1
		c-2.3,5.9-8.7,7.1-14.5,7c-3.9-0.1-7.9-0.7-11.6-1.8c-3.4-1-6.7-2.5-10.1-2.6c-0.4,1.2-0.8,2.4-1.2,3.6c-0.1,0.2-0.1,0.3-0.2,0.5
		c-0.1,0.2-0.1,0.3-0.2,0.5c0,0.1-0.1,0.3-0.1,0.4c0,0.1-0.1,0.1-0.1,0.2c0,0,0,0.1-0.1,0.1c10,4.2,15.9,14,23.9,21
		c5.7,5,13.4,7.4,19,3.4c0.1-0.1,0.3-0.2,0.4-0.3c0.1-0.1,0.3-0.2,0.4-0.3c0.1-0.1,0.2-0.2,0.3-0.3c0.2-0.2,0.4-0.4,0.7-0.6
		c0.9-0.9,1.7-2.1,2.4-3.4c2.9-5.7,4-12.3,5-18.7c0.2-1.4,0.5-2.8,0.7-4.1c0.1-0.3,0.4-0.2,0.4,0.1c-0.1,1.8-0.3,3.9-0.6,6.2
		c-0.1,0.4-0.1,0.9-0.2,1.3c-0.1,0.4-0.1,0.8-0.2,1.2c0,0.1,0,0.1,0,0.2c-0.1,0.4-0.2,0.9-0.2,1.3c0,0,0,0,0,0
		c-1.1,6-3.1,12.3-6.6,16.3c0,0,0,0-0.1,0c-0.1,0.1-0.3,0.2-0.4,0.3c-0.2,0.2-0.4,0.4-0.5,0.7l0,0c-0.1,0.1-0.2,0.2-0.3,0.2
		c0,0,0,0,0,0.1c0.3,0.6,0.7,1.1,1,1.7c0.2,0.3,0.3,0.6,0.5,0.9c0.1,0.3,0.3,0.5,0.4,0.8c0.2,0.4,0.4,0.8,0.6,1.2
		c0.1,0.2,0.2,0.3,0.2,0.5c0.2,0.5,0.4,1,0.7,1.5c0,0.1,0.1,0.2,0.1,0.3c0.2,0.5,0.4,1.1,0.7,1.6c0,0,0,0.1,0.1,0.1
		c0.2,0.6,0.4,1.2,0.6,1.8c0,0,0,0,0,0c0.4,1.2,0.8,2.5,1.1,3.8c0,0,0,0,0,0c0,0,0,0,0,0c0.1,0.9,0.3,1.7,0.5,2.6c0,0,0,0,0,0
		c0.1,0.7,0.4,1.4,0.5,2.1c0,0.4,0.1,0.7,0.2,1l0,0c0,0,0,0.1,0,0.1c0.4,2.6,0.6,5.3,0.6,8c0,16.1-7,30.5-18.1,40.5
		c1.7,1.1,3.5,2.3,5.3,3.3c2.2,1.2,4.6,2.2,7,3c0-0.1-0.1-0.3-0.1-0.4c-0.8-3.6,0-7.2,0.9-10.7c0.9-3.6,2.1-7.1,3.7-10.4
		c2.1-4.4,4.6-8.5,7.3-12.6c3.3-5,7.1-10.1,11.4-14.3c2.5-2.4,6.1-4.6,9.5-2.9c1.2,0.6,2.1,1.5,2.7,2.6c1,1.8,1.2,4.2,0.9,6.7
		c-0.6,6-3.6,13-4.9,16.1c-2.7,6.3-6.1,12.2-9.6,18c-2,3.3-4,7.1-6.8,9.9c5.7-0.3,11.3-1.8,16.3-4.2c8.5-4.1,15.5-11.1,19.6-19.7
		c0.2-0.3,0.3-0.6,0.4-0.9c1.6-3.6,2.7-7.6,3.2-11.7c1.2-10-1.5-20.4-5.1-29.5c-0.8-1.9-1.6-3.8-2.4-5.7c-4.6-10.2-9.9-20-16.5-29
		c-6.7-9.2-14.3-17.6-20.4-27.3c-4.9-7.7-8.9-15.8-12-24.4c-1.2,1.7-2.5,3.3-3.9,4.9c-3.9,4.3-8.3,8.3-12.9,11.9
		c4.6,0.3,9.2,1,13.7,2.1C141.1,109,141.1,109.1,141.1,109.1z"/>
	<path class="st6" d="M48,112.4c0.2-0.2,0.3-0.4,0.5-0.6c-6.5,0.7-12.8,2.3-19,4.3c1.6,2.7,3.7,5.1,6.2,7.1c3.1-1.5,6.3-2.9,9.6-4.2
		C44.8,116.6,46.5,114.3,48,112.4z"/>
	<path class="st6" d="M58.7,94.4c2.1-5.4,3.8-12.4,2-18.2c-0.1-0.3-0.2-0.5-0.2-0.8c-0.3-0.8-0.7-1.6-1.1-2.4
		c-3.1-5.1-9.1-4.8-13.4-1.6c-3,2.2-4.8,5.4-6.6,8.6c-2.7,5-7.4,12.5-13.3,13.2c-0.2,1.9-0.3,3.8-0.4,5.7c-0.2,6.1,1,11.8,3.6,16.6
		c6.4-2.1,12.9-3.6,19.6-4.3C52.8,106.1,56.3,100.7,58.7,94.4z M54.2,89.2c0.4,0.1,0.8,0.4,1.1,0.7c0.1,0,0.1,0.1,0.2,0.2
		c1,1.3,1,3.7-0.1,4.8c-0.5,0.5-1.2,0.3-1.7-0.1c-0.3-0.1-0.6-0.2-0.8-0.4C51.5,93,51.5,88.6,54.2,89.2z"/>
	<path class="st6" d="M40.3,126c1.8-1.9,3.7-3.7,5.7-5.4c-0.1-0.2-0.2-0.4-0.3-0.6c-0.1-0.2-0.1-0.4-0.2-0.6
		c-3.1,1.3-6.2,2.6-9.3,4.1C37.4,124.4,38.8,125.3,40.3,126z"/>
	<path class="st7" d="M89.3,120.1c-2.7,2.1-6.1,3.7-9.6,4.8c-5,1.6-10.3,2.2-15.1,2.2c-4.2-0.1-10.9-0.5-15.3-3.2
		c-1.7,1.2-3.3,2.4-5,3.7c4.9,1.5,10,2.1,15.1,2.2h0.3c0.7,0,1.4,0,2.2-0.1c5.7-0.2,11.4-0.9,16.8-2c11.3-2.2,22.8-6.3,33.5-12
		c-3.5-2.9-7.5-4.8-11.8-6c-0.1,0-0.2,0-0.3,0.1C98,113.9,91.7,118.2,89.3,120.1z"/>
	<path class="st7" d="M46.4,121.3c-1.9,1.6-3.7,3.2-5.6,4.9c1,0.4,2,0.8,3.1,1.2c1.7-1.3,3.4-2.5,5.1-3.7
		C48,123,47.1,122.3,46.4,121.3z"/>
	<path class="st6" d="M101.6,109.3c4.2,1.2,8,3.1,11.2,6c4-2.2,7.8-4.6,11.4-7.2c0.4-0.3,0.8-0.5,1.1-0.8c-0.2,0-0.5,0-0.7,0
		C116.9,106.9,109.2,107.6,101.6,109.3z"/>
	<path class="st6" d="M124.4,77.3C124.4,77.3,124.5,77.4,124.4,77.3c-14.2,2.9-25.1,11.9-34.6,22.2c0.8,0.3,1.6,0.6,2.4,0.9
		c1,0.4,2.3,0.8,3.5,1.3c10.4-6,22-10.1,34-11.3c0.1,0,0.2,0.2,0,0.2c-12,1.7-23.2,5.4-33.6,11.3c1.5,0.6,2.9,1.4,3.7,2.5
		c1.1,1.4,1.1,3,0.6,4.5c0.2,0,0.3,0.1,0.5,0.1c7.9-1.8,15.9-2.6,24-2.3c0.4,0,0.7,0,1.1,0c6.1-4.6,11.7-9.9,16.3-15.8
		c0.6-0.7,1.1-1.4,1.6-2.1c0.1-0.1,0.1-0.2,0.2-0.3c4.8-7.2,6.6-15.2,5.2-23.2c-5.8,3.2-12.5,4.6-19.3,4.4c-1.3,0-2.6-0.1-3.9-0.3
		c-14.2-1.8-27.6-9.5-42.2-8.3c-9.1,0.7-14.9,6.9-12.9,16.2c0,0,0,0.1,0,0.1c0.1,0.5,0.3,1,0.4,1.6c0.3,1.1,0.8,2.3,1.2,3.4
		c1.7,4,4.2,7.7,7,10.9c2.8,3.2,6.2,4.7,9.9,6.1C99,89.1,110.2,80.1,124.4,77.3z M83.5,91c-0.9,0.6-2,0.2-2.7-0.6
		c-0.4-0.4-0.5-0.9-0.5-1.5c-0.3-1-0.4-2.2,0-3.1c0.4-1,1.6-1.7,2.7-1.3c1.2,0.4,1.5,1.9,1.6,3C84.7,88.7,84.6,90.3,83.5,91z"/>
	<path class="st3" d="M145.8,55.7c-5.4,3.7-12.2,4.4-19.1,3.8c-5.2-0.4-10.5-1.6-15.1-2.7c-10.5-2.5-21.2-3.8-31.9-2
		c-6.1,1-11.1,4.2-11.3,11c-0.1,3,0.5,5.9,1.4,8.6c0-0.6-0.1-1.2,0-1.8c0.4-9.7,9.9-12.5,18.2-12.2c11.7,0.4,22.6,5.4,33.9,7.6
		c2.6,0.5,5.2,0.8,7.7,0.9c6.9,0.2,13.4-1.2,19.3-4.4c-0.6-2.9-1.6-5.8-3.1-8.7C145.9,55.8,145.8,55.7,145.8,55.7z"/>
	<path class="st8" d="M108.9,10.8c-2.1,1.8-3.7,4.5-5.3,6.8c-1.9,2.8-3.5,5.7-5,8.6c8.2,1.5,16.3,3.7,23.7,7
		c1.8-6.4,1.3-13.2-2.7-19.2C117.3,10.6,113.7,6.7,108.9,10.8z"/>
	<path class="st4" d="M57.1,111c0.2,0,0.2,0.3,0,0.3c-2.6,0-5.2,0.1-7.7,0.4c-1.4,1.7-2.8,3.4-3.2,5.7c-0.1,0.5-0.1,0.9-0.1,1.3
		c2.7-1,5.4-2,8.1-2.9c0.2-0.1,0.3,0.3,0.1,0.3c-2.8,1-5.5,2-8.2,3.1c0.1,0.4,0.1,0.7,0.3,1.1c0.1,0.3,0.2,0.5,0.3,0.7
		c0.6,1,1.5,1.8,2.6,2.4c0.5-0.4,1-0.7,1.5-1.1c0.2-0.1,0.3,0.1,0.1,0.3c-0.5,0.3-0.9,0.7-1.4,1c5.8,3.2,17.1,3.1,21.1,2.5
		c3.7-0.5,7.5-1.4,11.1-2.8c1.5-0.6,3-1.2,4.4-2c4.2-2.3,10.2-7.1,12.7-11.2c0-0.1,0.1-0.1,0.1-0.2c-2.4,0.6-4.7,1.3-7.1,2.1
		c-0.2,0.1-0.3-0.3-0.1-0.3c2.4-0.8,4.9-1.6,7.4-2.2c0,0,0-0.1,0.1-0.1c0.1-0.2,0.2-0.4,0.2-0.6c0.9-2.8-1.2-4.8-4.2-6.4
		c-1.4,0.8-2.7,1.6-4.1,2.5c-0.2,0.1-0.3-0.2-0.2-0.3c1.3-0.8,2.6-1.6,3.9-2.4c-1.7-0.8-3.7-1.6-5.6-2.2c-0.6,0.7-1.2,1.3-1.8,2
		c-1.4,1.5-2.7,3.1-4,4.6c-0.1,0.2-0.4-0.1-0.2-0.2c1.3-1.6,2.6-3.1,4-4.6c0.6-0.6,1.1-1.3,1.7-1.9c-2.9-1-5.6-1.9-7-2.9
		c-4.3-3.2-7.3-7.6-9.5-12.4c-0.9-1.9-1.6-3.8-2.3-5.8c-2.1-6.1-5-14-0.6-19.8c4.5-5.8,14.7-5.7,21.2-5.7c10.7,0,20.5,3.2,30.9,5
		c1.5,0.3,3,0.5,4.5,0.6c6.6,0.5,13.6-0.3,19-3.9C134.4,34.5,109,28,87.6,25.8c-4.6-0.5-9.3-0.7-13.8-0.3c-6.3,0.5-12.4,2.1-18,5.7
		C47,36.9,40.7,45.9,36.3,55.2C34.5,59,33,62.9,31.6,67c0.1,0.1,0.1,0.1,0.2,0.2c0.1,0.1,0,0.2-0.1,0.1c0,0-0.1-0.1-0.1-0.1
		c-0.8,2.5-1.6,5-2.2,7.5c-0.1,0.2-0.1,0.5-0.2,0.8c-0.5,2-1,4-1.4,6c8.2-3.4,13.4-19.1,22.4-19.6c4.6-0.3,8.1,2.5,9.5,6.9
		c1.7,5.4,2.8,12.3,1.9,17.9c-1,5.7-3.4,11.2-6.2,16.2c-1.3,2.4-2.8,4.8-4.5,7c-0.4,0.5-0.8,0.9-1.1,1.4
		C52.1,111.1,54.6,111,57.1,111z M62.7,107.8c0.7-1.4,2.4-2.1,3.8-2.5c1.9-0.5,8.8-1.7,8.7,1.6c-0.1,1.7-1.6,3.5-2.6,4.7
		c-0.7,0.9-1.5,2.3-2.5,3c-0.2,0.1-0.4,0.2-0.6,0.3c0,0,0,0.1,0,0.1c0,0.5,0.1,1,0.2,1.4c0.1,0.6,0.2,1.1,0.3,1.7
		c0.8-0.1,1.6-0.4,2.3-1c0.4-0.3,2.7-2.8,1.7-3.2c-0.3-0.1-0.1-0.6,0.2-0.5c0.6,0.2,1.2,0.3,1.8,0.5c0.1,0.1,0.2,0.3,0,0.3
		c-0.4,0.1-0.8,0-1.1,0c0.2,1-1.2,2.5-1.8,3.1c-1.4,1.4-3.5,2-5.2,0.8c-0.1-0.1,0-0.2,0.1-0.2c0.6,0.2,1.3,0.3,1.9,0.3
		c-0.4-0.9-0.6-2.1-0.6-3.1v-0.1c-1.8-0.6-4.4-1.9-5.8-3.6C62.4,110.3,62,109.1,62.7,107.8z"/>
	<path class="st8" d="M32.9,39.7c-4.2,0.2-13.5-0.7-13.1,5.8c0.2,3.8,2.7,8,4.6,11.3c1.9,3.4,4.3,6.5,6.7,9.5
		c3-9,7.2-17.6,12.9-24.6C41,39.4,36.8,39.5,32.9,39.7z"/>
	<path class="st9" d="M54.9,91.1c0.6,0,0.8-0.7,0.5-1.1c0-0.1-0.1-0.1-0.2-0.2c-0.1-0.1-0.2-0.1-0.4-0.1C54,89.8,54,91.1,54.9,91.1z
		"/>
	<path class="st9" d="M83.3,85.1c-0.9,0-0.9,1.4,0,1.4C84.2,86.5,84.2,85.1,83.3,85.1z"/>
	<path class="st1" d="M83.4,106.3c-0.1,0.2,0.1,0.4,0.2,0.2c1.3-1.6,2.7-3.1,4-4.6c0.6-0.7,1.2-1.4,1.8-2c0.1-0.1,0.2-0.3,0.4-0.4
		c9.5-10.3,20.4-19.3,34.6-22.2c0,0,0-0.1,0-0.1C110.2,80.1,99,89.1,89.5,99.4c-0.1,0.1-0.2,0.3-0.4,0.4c-0.6,0.6-1.1,1.3-1.7,1.9
		C86.1,103.2,84.7,104.8,83.4,106.3z"/>
	<path class="st1" d="M129.7,90.7c0.1,0,0.1-0.2,0-0.2c-12,1.2-23.6,5.3-34,11.3c-0.2,0.1-0.4,0.3-0.6,0.4c-1.3,0.8-2.6,1.6-3.9,2.4
		c-0.2,0.1,0,0.4,0.2,0.3c1.3-0.9,2.7-1.7,4.1-2.5c0.2-0.1,0.5-0.3,0.7-0.4C106.5,96,117.7,92.4,129.7,90.7z"/>
	<path class="st1" d="M100.8,109.1c-0.5,0.1-1,0.2-1.5,0.4c-2.5,0.6-5,1.3-7.4,2.2c-0.2,0.1-0.1,0.4,0.1,0.3
		c2.3-0.8,4.7-1.5,7.1-2.1c0.3-0.1,0.6-0.2,0.9-0.2c0.1,0,0.2,0,0.3-0.1c0.4-0.1,0.8-0.2,1.3-0.3c7.6-1.7,15.3-2.4,23-2.1
		c0.2,0,0.5,0,0.7,0c0.5,0,1,0.1,1.6,0.1c4.2,0.2,8.3,0.8,12.4,1.6c0.6,0.1,1.1,0.2,1.7,0.3c0,0,0.1,0,0.1-0.1c0,0,0-0.1,0-0.1
		c-4.5-1.1-9.1-1.8-13.7-2.1c-0.5,0-1-0.1-1.6-0.1c-0.4,0-0.7,0-1.1,0C116.7,106.5,108.7,107.2,100.8,109.1z"/>
	<path class="st1" d="M48.5,111.8c0.3,0,0.6-0.1,0.9-0.1c2.5-0.3,5.1-0.4,7.7-0.4c0.2,0,0.2-0.3,0-0.3c-2.5,0-5,0.1-7.4,0.3
		c-0.3,0-0.6,0.1-0.9,0.1c-6.6,0.7-13.2,2.2-19.6,4.3c-0.3,0.1-0.6,0.2-0.8,0.3c-7.6,2.5-15.1,5.8-22.3,9.1c-0.1,0,0,0.2,0.1,0.1
		c7.5-3.1,14.9-6.2,22.5-8.8c0.3-0.1,0.6-0.2,0.8-0.3C35.7,114.1,42,112.5,48.5,111.8z"/>
	<path class="st1" d="M45.4,119.4c0.2-0.1,0.5-0.2,0.7-0.3c2.7-1.1,5.4-2.1,8.2-3.1c0.2-0.1,0.1-0.4-0.1-0.3
		c-2.7,0.9-5.5,1.9-8.1,2.9c-0.3,0.1-0.6,0.2-0.8,0.3c-3.2,1.3-6.4,2.7-9.6,4.2c-0.2,0.1-0.5,0.2-0.7,0.3c-4.5,2.2-8.9,4.6-13.1,7.2
		c-0.1,0,0,0.2,0.1,0.1c4.4-2.5,8.9-4.8,13.5-7c0.2-0.1,0.5-0.2,0.7-0.3C39.2,122.1,42.3,120.7,45.4,119.4z"/>
	<path class="st1" d="M49.3,123.9c0.1-0.1,0.3-0.2,0.4-0.3c0.5-0.3,0.9-0.7,1.4-1c0.2-0.1,0-0.4-0.1-0.3c-0.5,0.3-1,0.7-1.5,1.1
		c-0.1,0.1-0.3,0.2-0.4,0.3c-1.7,1.2-3.4,2.4-5.1,3.7c-0.2,0.2-0.4,0.3-0.6,0.5c-7.5,5.8-14.5,12.4-20.5,19.7
		c-0.1,0.1,0,0.2,0.1,0.1c6.4-7.2,13.3-13.8,20.8-19.7c0.2-0.2,0.4-0.3,0.6-0.5C45.9,126.3,47.6,125.1,49.3,123.9z"/>
	<path class="st9" d="M150.9,193.9c0-1,0-2.1-0.1-3.1c-0.1-1.2-0.2-2.4-0.3-3.6c-0.9-7.5-3.4-14.5-7.1-20.7c0,0,0-0.1-0.1-0.1
		c-2.3,1.8-5.3,2.7-8.9,2.2c-7.6-1.1-13.1-7.6-18-13c-1.7-1.9-3.4-3.8-5.2-5.6c-1.8-1.8-3.6-3.5-5.7-5c-1-0.8-2.1-1.5-3.1-2.1
		c-0.6-0.3-1.2-0.5-1.8-0.9c-0.5-0.3-1-0.8-1.5-1.1c-0.8-0.5-1.7-0.4-2.6-0.4c-0.2,0-0.4,0-0.6,0c-3.7,0.1-7.2,0.6-10.7,1.4
		c0,0,0,0,0,0c-3.8,9.6-11.6,18.7-19,25.5c-2.2,2-5.8,4.7-9.4,6.2l0.9-0.3c-0.6,0.2-1.2,0.4-1.8,0.6c-0.5,0.1-1,0.3-1.5,0.4
		c-0.4,0.1-0.8,0.2-1.3,0.3l0.9-0.2c-2,0.3-4,0.1-5.6-1.1c-0.1,0-0.1-0.1-0.2-0.1c-1.8,4.3-3,8.8-3.7,13.5c0,0.3-0.1,0.6-0.1,0.9
		c-0.2,2.1-0.4,4.2-0.4,6.3c0,12.4,4.3,23.9,11.4,32.9c0.2,0.2,0.3,0.4,0.5,0.6c9.8,12.1,24.8,19.9,41.5,19.9
		c13.3,0,25.5-4.9,34.9-13c0.2-0.2,0.4-0.3,0.6-0.5C143.9,224,150.9,209.7,150.9,193.9z"/>
	<path class="st4" d="M48,172.3c0,0,0.1,0.1,0.1,0.1c0.1,0.1,0.2,0.1,0.3,0.2c1.9,1.1,4.4,1.3,6.9,0.8c0.1,0,0.2-0.1,0.3-0.1
		c1.8-0.4,3.6-1.2,5-2.1c3.7-2.5,6.9-5.9,9.9-9.2c5.5-6,9.3-12.8,13.5-19.6c0,0,0,0,0-0.1c0,0,0,0,0.1,0c0-0.1,0.1-0.1,0.1-0.2
		c0.1-0.2,0.3-0.4,0.4-0.6c0.1-0.2,0.2-0.3,0.3-0.5c0,0,0,0,0-0.1c-0.8-1.3-1.7-2.6-2.6-3.8c-7.8,1.6-15.4,4.2-22,8.7
		c-0.9,0.6-1.8,1.2-2.7,2c-0.2,0.1-0.3,0.2-0.5,0.4c-5.7,4.6-11.8,11.4-11.7,18.5c0,2.5,0.8,4.2,2.1,5.3
		C47.8,172.1,47.9,172.2,48,172.3z"/>
	<g>
		<path class="st9" d="M54.4,174.3c0.5-0.1,1-0.3,1.5-0.4c0.6-0.2,1.2-0.4,1.8-0.6l-0.9,0.3l-2.7,0.8l-0.9,0.2
			C53.6,174.5,54,174.4,54.4,174.3z"/>
	</g>
</g>
</svg>
