<?xml version="1.0" encoding="utf-8"?>
<!-- Generator: Adobe Illustrator 23.0.4, SVG Export Plug-In . SVG Version: 6.00 Build 0)  -->
<svg version="1.1" id="Bunny5" xmlns="http://www.w3.org/2000/svg" xmlns:xlink="http://www.w3.org/1999/xlink" x="0px" y="0px"
	 viewBox="0 0 210.9 294.5" style="enable-background:new 0 0 210.9 294.5;" xml:space="preserve">
<style type="text/css">
	#Bunny5 .st0{fill:none;}
	#Bunny5 .st1{fill:#FFFFFF;}
	#Bunny5 .st2{fill:#333232;}
</style>
<g>
	<path class="st0" d="M170.2,109.2c-5-7.2-11.1-13.6-18.2-18.8c-4.4-3.3-9.2-6-14.2-8.3c-4.6-2.1-9.5-3.8-14.6-4.9
		c-3.7-0.8-7.4-1.4-11.3-1.7c-2.1-0.2-4.3-0.3-6.5-0.3c-2.1,0-4.1,0.1-6.1,0.3c-4.3,0.3-8.5,1-12.6,2c-4.5,1.1-8.8,2.5-12.9,4.4
		c-4.9,2.1-9.5,4.8-13.8,7.8c-5.9,4.1-11.2,9.1-15.7,14.6c-11,13.5-17.7,30.8-17.7,49.7c0,10.3,2,20.1,5.6,29.1
		c3.3,8.4,8.1,16,13.9,22.7c4.7,5.3,10,10,15.9,13.9c5.2,3.4,10.9,6.3,16.8,8.4c5.4,1.9,11.2,3.3,17.1,4c3.1,0.4,6.2,0.6,9.4,0.6
		c2.7,0,5.3-0.1,7.9-0.4c4.8-0.5,9.5-1.4,14-2.7c7.9-2.3,15.2-5.7,21.8-10.2c4.6-3.1,8.8-6.6,12.6-10.5c8.4-8.6,14.8-19,18.5-30.7
		c2.5-7.7,3.8-15.8,3.8-24.3C184.1,137.3,179,121.9,170.2,109.2z"/>
	<path class="st1" d="M170.2,109.2c8.8,12.7,13.9,28.1,13.9,44.7c0,8.5-1.4,16.6-3.8,24.3c2,46.6-7.1,88.7-32.8,106.2
		c16.7-10.2,32.6-28.3,38.4-47.7c4.5-14.5,5.9-30.7,5.9-46.9c0.1-35.6-7.9-74.3-21.2-109c-5.2-13.6-11.4-27.2-18.8-39.5
		c-1.1-1.9-2.4-3.9-3.5-5.6c-0.2-0.3-0.4-0.6-0.6-0.9c-2.8-4.2-6.5-9-9.1-12.1c-1.2-1.4-1.6-1.8-3-3.3C128,10.8,118.8,3.9,109,0.9
		c-1.1-0.3-2.3-0.6-3.4-0.9C132.6,8.7,157,55.5,170.2,109.2z"/>
	<path class="st1" d="M174.8,266.8c4.4-3.9,8.3-8,11.7-12.3C245.1,171.9,172.1,6.8,105.7,0C178.3,12,236.7,198.2,174.8,266.8z"/>
	<path class="st1" d="M70.2,16.2c-1.6,1.4-2.1,1.7-3.5,3c-3.1,2.8-7.4,7.2-10.8,11.1c-0.2,0.3-0.5,0.6-0.7,0.9
		c-1.3,1.6-2.8,3.5-4.1,5.2c-8.8,11.5-16.1,24.4-22.3,37.4C13,107.1,3.4,144.9,3.3,180.5c0,16.2,1.6,32.6,6.8,47.6
		c3,8.9,7.2,17.3,12.5,24.9c4.3,5.7,9.6,11.2,16,16.3c-68-69-1.9-252.6,62.9-268.4c1.7-0.4,3.2-0.7,4.2-0.8c-1.3,0.1-2.6,0.3-4,0.5
		C90.2,2.5,79.3,8.4,70.2,16.2z"/>
	<path class="st1" d="M146.6,245.7c-3.9,24.2-12,42.4-23.4,46.9c23.6-8.1,35.4-41.8,38.6-83.8c-3.8,3.9-8,7.4-12.6,10.5
		C148.7,228.6,147.9,237.5,146.6,245.7z"/>
	<path class="st1" d="M121.1,22.7c0.7,1.7,0.9,2.1,1.5,3.7c1.4,3.4,3.2,8.6,4.7,13.1c0.1,0.3,0.2,0.7,0.3,1c0.6,1.8,1.2,4,1.8,6
		c3.3,11.3,6.1,23.4,8.5,35.7c5.1,2.3,9.8,5.1,14.2,8.3c-9.8-43.2-25.5-79-44-89.3c-0.7-0.4-1.6-0.8-2.4-1.1
		c0.6,0.4,1.1,0.8,1.7,1.2C112.4,5.4,117.1,13.3,121.1,22.7z"/>
	<path class="st1" d="M58.5,283.4c2.5,1.5,8.9,3.9,13.1,5.5c-16.8-7.2-28.8-25.5-34.7-48.5c-3.7-14.3-4.9-30.5-4.9-46.7
		c0-3.5,0.1-7.1,0.2-10.7c-3.6-9-5.6-18.8-5.6-29.1c0-18.8,6.6-36.1,17.7-49.7c1.8-6.9,3.8-13.7,5.9-20.4c4.5-13.8,9.7-27.7,16-40.3
		c1-1.9,2-4,3-5.7c0.2-0.3,0.4-0.7,0.5-1c2.4-4.4,5.5-9.3,7.7-12.5c1-1.5,1.3-1.9,2.5-3.5C86.8,11.8,94.5,4.5,102.8,1
		c1-0.4,1.9-0.7,2.8-1C35.5,16.8-19,236.8,58.5,283.4z"/>
	<path class="st1" d="M113.2,237.5c0,1.2-0.1,2.5-0.1,3.7c0,0.4,0,0.7,0,1.1c0,0.7-0.1,1.4-0.1,2c0,0.9-0.1,1.9-0.1,2.8
		c-0.1,2.7-0.2,5.4-0.3,7.9c0,1-0.1,2.1-0.1,3.1c0,1-0.1,2-0.1,2.9c-0.1,1-0.1,2-0.2,3c-0.2,3.9-0.4,7.5-0.7,10.8
		c-0.1,1-0.2,2-0.2,3c0,0.2,0,0.3,0,0.5c0,0.3-0.1,0.6-0.1,0.9c-0.1,0.9-0.2,1.8-0.2,2.6c0,0.1,0,0.2,0,0.4c-0.1,0.7-0.2,1.4-0.2,2
		c-0.1,1.1-0.3,2.2-0.4,3.2c-0.1,0.3-0.1,0.6-0.2,0.9c-0.2,1-0.3,1.8-0.5,2.5c-0.1,0.4-0.2,0.8-0.3,1.2c0,0.2-0.1,0.3-0.2,0.5
		c-0.1,0.3-0.2,0.5-0.2,0.7c-0.1,0.2-0.1,0.3-0.2,0.4c-0.1,0.2-0.2,0.4-0.3,0.5c-0.1,0.1-0.1,0.2-0.2,0.2c-0.1,0.1-0.1,0.1-0.2,0.1
		c10.7-2.7,16.8-29,19.4-64.9c-4.5,1.3-9.2,2.2-14,2.7C113.3,234,113.3,235.8,113.2,237.5z"/>
	<path class="st1" d="M123.2,77.2C119,39.2,112.8,8.8,105.7,0c2.7,11.5,4.8,40.3,6.2,75.5C115.7,75.8,119.5,76.4,123.2,77.2z"/>
	<path class="st1" d="M80.2,247.2c2.5,25.9,13.2,44.1,16.5,46.1c0.2,0.1,3.8,0.8,5.6,1.1c-3.8-4.2-5.6-28.8-6.2-62.3
		c-5.9-0.7-11.6-2.1-17.1-4C79.2,234.7,79.6,241.1,80.2,247.2z"/>
	<path class="st1" d="M96.3,23.3c-0.4,1.7-0.6,2.2-0.9,3.7c-0.8,3.4-2,8.7-2.8,13.3c-0.1,0.3-0.1,0.7-0.2,1c-0.3,1.9-0.7,4.1-1.1,6
		c-1.7,9.6-3.2,19.8-4.5,30.1c4.1-1,8.3-1.7,12.6-2c1.9-38.2,4.3-68.2,6.4-75.5c-0.3,0.4-0.7,0.8-1,1.3
		C101.6,5.6,98.7,13.7,96.3,23.3z"/>
	<path class="st2" d="M137.8,82.2c-2.4-12.2-5.2-24.4-8.5-35.7c-0.6-2-1.2-4.1-1.8-6c-0.1-0.3-0.2-0.7-0.3-1
		c-1.5-4.6-3.3-9.8-4.7-13.1c-0.6-1.6-0.8-2-1.5-3.7c-4-9.4-8.7-17.3-13.7-21.5c-0.6-0.5-1.1-0.9-1.7-1.2
		c7.1,8.8,13.3,39.2,17.5,77.2C128.3,78.4,133.1,80.1,137.8,82.2z"/>
	<path class="st2" d="M185,70.5c-6.3-12.8-13.9-25.3-22.9-36.5c-1.4-1.7-2.9-3.5-4.3-5c-0.2-0.3-0.5-0.6-0.7-0.8
		c-3.5-3.8-7.9-8-11.1-10.7c-1.5-1.2-1.9-1.6-3.6-2.9c-9.5-7.3-20.6-12.8-32.6-14.3c-1.4-0.2-2.8-0.3-4.1-0.3
		c66.5,6.8,139.4,171.9,80.9,254.5c-3.4,4.3-7.3,8.4-11.7,12.3C236.7,198.2,178.3,12,105.7,0c1.1,0.2,2.2,0.5,3.4,0.9
		c9.8,3,19,9.9,26.7,18.5c1.4,1.5,1.8,1.9,3,3.3c2.6,3.1,6.3,7.9,9.1,12.1c0.2,0.3,0.4,0.6,0.6,0.9c1.1,1.7,2.4,3.7,3.5,5.6
		c7.4,12.3,13.6,25.8,18.8,39.5c13.2,34.6,21.2,73.3,21.2,109c0,16.2-1.5,32.4-5.9,46.9c-5.9,19.4-21.8,37.5-38.4,47.7
		c25.7-17.5,34.8-59.6,32.8-106.2c-3.8,11.6-10.2,22.1-18.5,30.7c-3.2,41.9-15,75.7-38.6,83.8c11.4-4.5,19.5-22.7,23.4-46.9
		c1.3-8.2,2.2-17.1,2.6-26.3c-6.6,4.4-14,7.9-21.8,10.2c-2.6,35.9-8.7,62.2-19.4,64.9c0.1,0,0.1-0.1,0.2-0.1c0.1,0,0.1-0.1,0.2-0.2
		c0.1-0.1,0.2-0.3,0.3-0.5c0.1-0.1,0.1-0.2,0.2-0.4c0.1-0.2,0.2-0.5,0.2-0.7c0.1-0.1,0.1-0.3,0.2-0.5c0.1-0.3,0.2-0.7,0.3-1.2
		c0.2-0.7,0.3-1.6,0.5-2.5c0.1-0.3,0.1-0.6,0.2-0.9c0.2-1,0.3-2,0.4-3.2c0.1-0.7,0.2-1.3,0.2-2c0-0.1,0-0.2,0-0.4
		c0.1-0.8,0.2-1.7,0.2-2.6c0-0.3,0.1-0.6,0.1-0.9c0-0.2,0-0.3,0-0.5c0.1-1,0.2-1.9,0.2-3c0.2-3.3,0.5-6.9,0.7-10.8
		c0.1-1,0.1-2,0.2-3c0-0.9,0.1-1.9,0.1-2.9c0-1,0.1-2,0.1-3.1c0.1-2.6,0.2-5.2,0.3-7.9c0-0.9,0.1-1.8,0.1-2.8c0-0.7,0-1.4,0.1-2
		c0-0.4,0-0.7,0-1.1c0-1.2,0.1-2.4,0.1-3.7c0-1.7,0.1-3.5,0.1-5.3c-2.6,0.3-5.3,0.4-7.9,0.4c-3.2,0-6.3-0.2-9.4-0.6
		c0.6,33.4,2.4,58.1,6.2,62.3c-1.8-0.3-5.4-0.9-5.6-1.1c-3.3-2-14-20.2-16.5-46.1c-0.6-6-1-12.5-1.3-19.1c-6-2.1-11.6-5-16.8-8.4
		c0.4,9.1,1.2,17.9,2.5,26c3.7,24,11.5,42.1,22.5,46.9c-15.8-5.5-32-25-37.1-49.1c-2.5-11.6-3.5-24.4-3.8-37.6
		c-5.8-6.7-10.6-14.3-13.9-22.7c-0.1,3.6-0.2,7.2-0.2,10.7c0,16.2,1.1,32.3,4.9,46.7c5.9,23,17.9,41.4,34.7,48.5
		c-4.3-1.6-10.6-4-13.1-5.5C-19,236.8,35.5,16.8,105.7,0c-0.9,0.2-2.5,0.4-4.2,0.8C36.7,16.7-29.4,200.3,38.6,269.3
		c-6.4-5-11.6-10.6-16-16.3c-5.3-7.6-9.5-16-12.5-24.9c-5.2-15-6.8-31.4-6.8-47.6c0.1-35.6,9.6-73.5,25.4-106.7
		c6.2-13,13.5-25.9,22.3-37.4c1.3-1.7,2.8-3.6,4.1-5.2c0.2-0.3,0.5-0.6,0.7-0.9c3.4-3.9,7.7-8.4,10.8-11.1c1.4-1.3,1.9-1.7,3.5-3
		c9.2-7.7,20-13.7,31.6-15.6c1.3-0.2,2.7-0.4,4-0.5C37.6,3.5-22.4,143.5,8.2,227.2c0.2,0.5,0.4,1,0.6,1.6c0.5,1.3,1.1,2.6,1.7,4
		c0.1,0.2,0.1,0.3,0.2,0.5c0.2,0.4,0.3,0.8,0.5,1.1c0.4,0.9,0.8,1.7,1.3,2.7c0.1,0.2,0.2,0.4,0.3,0.6c0.5,1,1,2,1.5,2.9
		c0.1,0.2,0.3,0.5,0.4,0.7c0.1,0.2,0.3,0.5,0.4,0.7c0,0,0,0,0,0.1c0.7,1.2,1.5,2.5,2.2,3.8c0.1,0.1,0.2,0.2,0.2,0.4
		c1.1,1.7,2.1,3.2,3,4.5c0.4,0.6,0.9,1.2,1.5,2.1c0.3,0.4,0.6,0.8,0.9,1.2c0.1,0.1,0.2,0.2,0.2,0.3c0.2,0.3,0.4,0.6,0.6,0.8
		c0.5,0.6,1.2,1.5,2.1,2.6c0.1,0.2,0.2,0.3,0.4,0.5c0.2,0.2,0.3,0.4,0.5,0.6c0.5,0.6,1.2,1.5,2.2,2.5c0.2,0.2,0.4,0.4,0.6,0.7
		c0.7,0.7,1.5,1.5,2.3,2.4c0.8,0.8,1.6,1.6,2.3,2.4c3.7,3.4,8,6.9,12.9,10.1c2.2,1.7,4.5,3.3,7,4.8c0.1,0,0.2,0.1,0.2,0.1
		c5,2.7,6.4,3.3,12.1,5.7l9,3c0.5,0.2,1.1,0.4,1.6,0.5c2.7,0.7,3.5,0.9,6.3,1.5c0.3,0.1,4.6,0.8,6.7,1.1c0,0,0.1,0,0.1,0
		c0.3,0,0.5,0.1,0.7,0.1c0.1,0,0.1,0,0.2,0c0,0,0.1,0,0.1,0c0,0,0.1,0,0.1,0c0.1,0,0.1,0,0.1,0c1.3,0.2,2.8,0.3,4.1,0.4
		c0.4,0,4.9,0.3,6.9,0.4c0,0,0,0,0,0c1.1,0,2.5,0,3.5,0l1.9,0c0.2,0,5.9-0.3,6.1-0.3c0.6,0,1.3-0.1,1.9-0.2c0.5,0,0.9-0.1,1.3-0.1
		c0.7-0.1,1.5-0.2,2.1-0.2c0.1,0,0.2,0,0.3,0c0.4,0,0.7-0.1,1.1-0.2c1.3-0.3,8.7-1.5,10-1.8c1.1-0.2,2.2-0.6,4.2-1.1
		c0.1,0,0.2-0.1,0.3-0.1c0.6-0.2,1.3-0.4,2-0.6h0c0.3-0.1,0.6-0.2,0.9-0.4c2.8-1,9.7-3.5,10.7-4c0.9-0.4,2.1-1,3.9-1.9
		c1.5-0.7,3.4-1.8,4.8-2.6c0.1,0,0.2-0.1,0.4-0.2c0.4-0.2,0.7-0.5,1.1-0.7c1.3-0.8,3.2-2,5.3-3.6c0.5-0.4,1.1-0.8,1.6-1.3
		c3.6-2.5,7-5.2,10.3-8.4c0.2-0.2,0.3-0.3,0.5-0.5l1.5-1.5c0.1-0.1,0.2-0.2,0.3-0.3c0.3-0.3,0.7-0.7,1-1c2.1-2.3,3-3.2,4-4.3
		c0.5-0.6,1-1.2,1.5-1.8c1-1.2,1.9-2.4,2.8-3.6c0.1-0.1,0.2-0.2,0.2-0.3c0.1-0.2,0.2-0.3,0.3-0.4c0-0.1,0.1-0.1,0.1-0.1
		c0,0,0.1-0.1,0.1-0.1c0.3-0.4,0.6-0.7,0.8-1.1c0-0.1,0.1-0.1,0.1-0.1c0,0,0,0,0.1-0.1c0.4-0.6,0.8-1.2,1.4-2.1
		c0.9-1.2,1.7-2.5,2.5-3.9c0.3-0.5,0.6-1,1-1.7c0.4-0.7,0.8-1.4,1.2-2.1c0.1-0.2,0.2-0.4,0.3-0.6c0,0,0,0,0,0c0-0.1,0.1-0.1,0.1-0.2
		c1-1.9,1.4-2.6,2.3-4.3c0.2-0.3,0.3-0.6,0.4-0.8c0.4-0.8,0.9-2,1.5-3.2c0.1-0.1,0.1-0.2,0.2-0.4l1.2-2.9c0.8-1.9,1.5-3.8,2.2-5.7
		c5.4-15.2,7.2-31.7,7.2-47.8C210.9,140.4,201.2,103,185,70.5z"/>
	<path class="st2" d="M152,90.5c7.1,5.2,13.2,11.5,18.2,18.8C157,55.5,132.6,8.7,105.7,0c0.7,0.3,1.7,0.8,2.4,1.1
		C126.5,11.5,142.3,47.3,152,90.5z"/>
	<path class="st2" d="M90.5,22.7c-0.7,1.7-0.9,2.1-1.5,3.7c-1.3,3.4-3.2,8.6-4.6,13.1c-0.1,0.3-0.2,0.7-0.3,1c-0.6,1.8-1.2,4-1.8,6
		c-3.2,11.2-6,23.2-8.4,35.3c4.1-1.8,8.4-3.3,12.9-4.4c1.3-10.3,2.8-20.5,4.5-30.1c0.3-2,0.7-4.2,1.1-6c0.1-0.3,0.1-0.7,0.2-1
		c0.9-4.6,2-9.9,2.8-13.3c0.4-1.6,0.5-2,0.9-3.7c2.4-9.6,5.3-17.7,8.3-22c0.3-0.5,0.7-0.9,1-1.3c-0.6,0.4-1.1,0.8-1.7,1.2
		C99,5.4,94.4,13.3,90.5,22.7z"/>
	<path class="st2" d="M105.4,75.2c2.2,0,4.3,0.1,6.5,0.3c-1.4-35.2-3.5-64-6.2-75.5c-2.1,7.3-4.5,37.2-6.4,75.5
		C101.3,75.3,103.4,75.2,105.4,75.2z"/>
	<path class="st1" d="M46.2,205.7c0.3,13.2,1.4,26.1,3.8,37.6c5,24.2,21.3,43.6,37.1,49.1c-11-4.7-18.8-22.9-22.5-46.9
		c-1.3-8.1-2-16.9-2.5-26C56.2,215.7,50.9,211,46.2,205.7z"/>
	<path class="st1" d="M85,21.8c-1,1.7-1.2,2.1-2,3.6c-1.8,3.3-4.3,8.4-6.3,12.9c-0.1,0.3-0.3,0.6-0.4,1c-0.8,1.8-1.6,3.9-2.4,5.9
		c-5.1,12.9-9.4,27-13,41c-0.3,1.1-0.6,2.3-0.8,3.4c4.3-3,8.9-5.7,13.8-7.8c2.4-12.1,5.1-24.1,8.4-35.3c0.6-2,1.2-4.1,1.8-6
		c0.1-0.3,0.2-0.7,0.3-1c1.5-4.6,3.3-9.8,4.6-13.1c0.6-1.6,0.8-2,1.5-3.7C94.4,13.3,99,5.4,104,1.2c0.6-0.5,1.1-0.9,1.7-1.2
		c-0.7,0.3-1.5,0.7-2.3,1.1C96.7,5,90.4,12.6,85,21.8z"/>
	<path class="st2" d="M80.2,20.7c-1.2,1.6-1.5,2-2.5,3.5c-2.2,3.2-5.3,8.2-7.7,12.5c-0.2,0.3-0.3,0.6-0.5,1c-0.9,1.7-2,3.8-3,5.7
		c-6.3,12.6-11.6,26.5-16,40.3c-2.1,6.7-4.1,13.5-5.9,20.4c4.5-5.6,9.8-10.5,15.7-14.6c0.3-1.1,0.6-2.3,0.8-3.4
		c3.6-14,7.9-28.1,13-41c0.8-1.9,1.6-4.1,2.4-5.9c0.1-0.3,0.3-0.7,0.4-1c2-4.5,4.5-9.6,6.3-12.9c0.8-1.5,1.1-2,2-3.6
		C90.4,12.6,96.7,5,103.4,1.1c0.8-0.4,1.5-0.8,2.3-1.1c-0.9,0.3-1.9,0.6-2.8,1C94.5,4.5,86.8,11.8,80.2,20.7z"/>
</g>
</svg>
