<?xml version="1.0" encoding="utf-8"?>
<!-- Generator: Adobe Illustrator 23.0.4, SVG Export Plug-In . SVG Version: 6.00 Build 0)  -->
<svg version="1.1" id="Christmas4" xmlns="http://www.w3.org/2000/svg" xmlns:xlink="http://www.w3.org/1999/xlink" x="0px" y="0px"
	 viewBox="0 0 132.1 281.7" style="enable-background:new 0 0 132.1 281.7;" xml:space="preserve">
<style type="text/css">
	#Christmas4 .st0{fill:none;}
	#Christmas4 .st1{fill:#333232;}
</style>
<g>
	<path class="st0" d="M68.6,113.5c0.2-0.1,0.3-0.1,0.5-0.2c0.2,0,0.4-0.1,0.6-0.1c0.2,0,0.3,0,0.5-0.1c0.2,0,0.4-0.1,0.5-0.1
		c0.2,0,0.4-0.1,0.6-0.1c0.3-0.1,0.6-0.1,0.9-0.2c0.3-0.1,0.6-0.1,0.9-0.2c0,0,0,0,0,0c0.3-0.1,0.5-0.1,0.8-0.2
		c0.1,0,0.2-0.1,0.3-0.1c0.1-0.1,0.2-0.1,0.3-0.2c0.2-0.1,0.4-0.3,0.6-0.4c0.1-0.1,0.2-0.2,0.3-0.3c0.2-0.2,0.4-0.4,0.6-0.7
		c0.2-0.3,0.3-0.6,0.4-0.9c0-0.2,0.1-0.3,0.1-0.5c0-0.2,0-0.5,0-0.7c0-0.2-0.1-0.3-0.2-0.5c0,0,0-0.1-0.1-0.1c0,0-0.1-0.1-0.1-0.1
		c-0.1,0-0.1-0.1-0.2-0.1c-0.1,0-0.2-0.1-0.4-0.1c-0.1,0-0.3,0-0.4,0c-0.2,0-0.4,0-0.6,0c-0.3,0-0.6,0.1-0.8,0.1
		c-0.4,0.1-0.8,0.2-1.2,0.3c-0.6,0.3-1.1,0.6-1.6,1.1c-0.3,0.3-0.6,0.5-0.8,0.8c-0.3,0.3-0.5,0.6-0.7,0.9c-0.3,0.4-0.5,0.9-0.8,1.3
		c-0.2,0.4-0.4,0.8-0.5,1.2c0,0.1,0,0.1-0.1,0.2c0.1,0,0.2,0,0.3,0C68.4,113.5,68.5,113.5,68.6,113.5z"/>
	<path class="st0" d="M66.1,116c-4.4,0-7.9,3.6-7.9,7.9c0,4.4,3.6,7.9,7.9,7.9c4.4,0,7.9-3.6,7.9-7.9C74.1,119.6,70.5,116,66.1,116z
		"/>
	<path class="st0" d="M65.2,113.4c-0.1-0.1-0.2-0.3-0.3-0.4c-0.2-0.3-0.5-0.6-0.7-1c-0.2-0.3-0.5-0.7-0.8-1c-0.5-0.6-1-1.2-1.6-1.7
		c-0.5-0.4-1-0.8-1.5-1.2c-0.2-0.2-0.5-0.3-0.8-0.5c-0.2-0.1-0.5-0.2-0.8-0.3c-0.3-0.1-0.7-0.2-1-0.3c-0.3-0.1-0.7-0.1-1-0.2
		c-0.2,0-0.4,0-0.6,0c-0.2,0-0.3,0-0.5,0.1c-0.2,0.1-0.4,0.1-0.6,0.2c-0.1,0.1-0.3,0.1-0.4,0.2c-0.1,0.1-0.2,0.2-0.3,0.3
		c0,0-0.1,0.1-0.1,0.1c-0.1,0.2-0.2,0.3-0.2,0.5c0,0.1-0.1,0.3-0.1,0.4c0,0.1,0,0.3,0,0.4c0,0.2,0.1,0.3,0.2,0.5
		c0.2,0.3,0.4,0.6,0.6,0.9c0.2,0.2,0.4,0.4,0.7,0.6c0.2,0.1,0.3,0.2,0.5,0.3c0.1,0.1,0.3,0.1,0.4,0.2c0.2,0.1,0.4,0.1,0.6,0.2
		c0.2,0.1,0.5,0.1,0.7,0.2c0.5,0.1,1,0.2,1.4,0.3c0.5,0.1,0.9,0.2,1.4,0.3c0.5,0.1,0.9,0.2,1.4,0.3c0.4,0.1,0.9,0.2,1.3,0.2
		c0.2,0,0.5,0.1,0.7,0.1c0.2,0,0.4,0.1,0.6,0.1C64.9,113.3,65.1,113.3,65.2,113.4z"/>
	<circle class="st0" cx="66" cy="213.1" r="43"/>
	<path d="M75.6,112.2C75.6,112.2,75.6,112.2,75.6,112.2C75.6,112.2,75.5,112.2,75.6,112.2C75.5,112.2,75.6,112.2,75.6,112.2z"/>
	<path class="st1" d="M80.6,147.7L80.6,147.7c-1.2-0.3-2.3-1.1-3-2.2c0-0.2,0-0.3,0-0.5v-11.5c0-0.7-0.5-1.2-1.2-1.2H66.1H55.9
		c-0.7,0-1.2,0.5-1.2,1.2v11.5c0,0.1,0,0.1,0,0.2c-0.7,1.2-1.9,2.1-3.2,2.4l0,0C22,154.5,0,181.6,0,213.9c0,37.5,29.6,67.8,66,67.8
		s66-30.4,66-67.8C132.1,181.6,110.1,154.5,80.6,147.7z M66,256.2c-23.8,0-43-19.3-43-43c0-23.8,19.3-43,43-43s43,19.3,43,43
		C109.1,236.9,89.8,256.2,66,256.2z"/>
	<path class="st1" d="M76.1,123.9c0-4.6-3.1-8.5-7.4-9.6c0.1,0,0.1,0,0.2,0c0.1,0,0.2-0.1,0.4-0.1c0.1,0,0.2-0.1,0.4-0.1
		c0.2,0,0.5-0.1,0.7-0.1c0.3-0.1,0.5-0.1,0.8-0.2c0.3,0,0.5-0.1,0.8-0.2c0.3,0,0.6-0.1,1-0.2c0.2,0,0.5-0.1,0.7-0.2
		c0.2-0.1,0.5-0.2,0.7-0.3c0.4-0.2,0.8-0.5,1.2-0.8c0.3-0.3,0.7-0.6,0.9-0.9c0.1-0.2,0.3-0.4,0.4-0.6c0.1-0.3,0.3-0.6,0.3-0.9
		c0.1-0.6,0-1.2-0.1-1.8c-0.1-0.2-0.2-0.4-0.3-0.5c-0.1-0.2-0.3-0.3-0.5-0.4c-0.2-0.1-0.4-0.1-0.5-0.2c-0.1,0-0.3,0-0.5,0
		c-0.1,0-0.3,0-0.4,0c-0.1,0-0.3,0-0.4,0c-0.3,0-0.6,0-0.9,0.1c-0.6,0.1-1.1,0.2-1.7,0.5c-0.5,0.3-1,0.6-1.5,1
		c-0.4,0.3-0.8,0.7-1.2,1.1c-0.7,0.7-1.2,1.5-1.6,2.4c-0.2,0.4-0.4,0.8-0.5,1.2c-0.1,0.2-0.2,0.5-0.2,0.7c0,0,0,0-0.1,0
		c0-0.2,0-0.3,0-0.5c-0.1-0.6-0.1-1.1-0.2-1.7c-0.1-0.6-0.1-1.1-0.2-1.7c-0.1-0.6-0.1-1.2-0.2-1.8c-0.1-0.6-0.1-1.2-0.2-1.8
		c-0.1-0.6-0.1-1.2-0.1-1.9c0-0.6-0.1-1.1-0.1-1.7c0-0.6-0.1-1.2-0.1-1.7c0-0.6-0.1-1.2-0.1-1.8c0-0.5-0.1-1.1-0.1-1.6
		c0-0.6-0.1-1.2-0.1-1.8c0-0.6-0.1-1.2-0.1-1.7c0-0.6-0.1-1.2-0.1-1.8c0-0.6-0.1-1.1-0.1-1.7c0-0.6,0-1.3-0.1-1.9
		c0-0.6-0.1-1.1-0.1-1.7c0-0.6-0.1-1.1-0.1-1.7c0-0.6-0.1-1.1-0.1-1.7c0-0.6-0.1-1.2-0.1-1.8c0-0.6-0.1-1.2-0.1-1.8
		c-0.1-1.2-0.2-2.4-0.3-3.6c-0.1-1.3-0.2-2.6-0.3-3.9c-0.1-1.2-0.2-2.4-0.2-3.5c-0.1-1.3-0.2-2.5-0.3-3.8c-0.1-1.2-0.1-2.4-0.2-3.7
		c-0.1-1.2-0.2-2.3-0.2-3.5c-0.1-1.2-0.2-2.4-0.3-3.7c-0.1-1.2-0.2-2.5-0.3-3.7c-0.1-1.2-0.1-2.5-0.2-3.7c-0.1-1.2-0.2-2.4-0.2-3.7
		C62,42,62,40.8,61.9,39.6c0-0.6-0.1-1.1-0.1-1.7c0-0.7-0.1-1.3-0.1-2c-0.1-1.2-0.2-2.5-0.2-3.7c-0.1-1.2-0.1-2.4-0.2-3.5
		c0-0.3,0-0.6,0-0.9c0-0.4,0-0.7,0-1.1c0-0.6,0-1.2,0-1.8c0-1.2,0-2.4,0-3.6c0-2.5,0-4.9,0.1-7.4c0-0.7,0.1-1.4,0.1-2.1
		c0-0.7,0.1-1.4,0.1-2.1c0.1-1.4,0.2-2.8,0.3-4.2C61.9,5,62,4.3,62,3.7c0.1-0.6,0.1-1.3,0.1-1.9c0,0,0,0.1,0,0.1
		c0-0.5,0.1-0.9,0.1-1.4c0-0.1,0-0.2-0.1-0.3C62.2,0.1,62.1,0,61.9,0c0,0-0.1,0-0.1,0c-0.2,0-0.4,0.1-0.4,0.4
		c-0.1,0.5-0.1,1-0.1,1.5c0,0.5-0.1,1-0.1,1.5c0,0,0,0,0,0c0,0,0,0.1,0,0.1c-0.1,1.1-0.2,2.3-0.3,3.4c-0.1,1.3-0.2,2.5-0.2,3.8
		c0,0.6,0,1.1-0.1,1.7c0,0.7-0.1,1.4-0.1,2.1c-0.1,1.1-0.1,2.3-0.1,3.4c0,2.5,0,5.1,0,7.6c0,0.5,0,1.1,0,1.6c0,0.3,0,0.6,0,1
		c0,0.4,0,0.7,0,1.1c0,1.2,0.1,2.4,0.2,3.6c0.1,1.2,0.2,2.5,0.2,3.7c0,0.6,0.1,1.2,0.1,1.8c0,0.6,0.1,1.2,0.1,1.9
		c0.1,1.2,0.1,2.4,0.2,3.6c0.1,1.2,0.2,2.4,0.2,3.7c0.1,2.4,0.3,4.8,0.5,7.2c0.1,1.2,0.2,2.4,0.3,3.7c0.1,1.2,0.1,2.4,0.2,3.6
		c0.1,1.2,0.2,2.5,0.2,3.7c0.1,1.2,0.2,2.4,0.3,3.6c0.1,0.7,0.1,1.3,0.1,2c0,0.6,0.1,1.1,0.1,1.7c0.1,1.3,0.2,2.5,0.3,3.8
		c0.1,1.2,0.2,2.4,0.2,3.5c0,0.6,0.1,1.2,0.1,1.8c0,0.6,0.1,1.2,0.1,1.8c0.1,0.6,0.1,1.2,0.1,1.8c0,0.5,0.1,1.1,0.1,1.6
		c0,0.6,0.1,1.2,0.1,1.9c0,0.6,0,1.1,0.1,1.7c0.1,1.2,0.1,2.4,0.2,3.6c0,0.6,0.1,1.2,0.1,1.8c0,0.6,0.1,1.1,0.1,1.7
		c0,0.6,0.1,1.1,0.1,1.7c0,0.6,0.1,1.1,0.1,1.7c0,0.6,0.1,1.2,0.1,1.8c0,0.6,0.1,1.2,0.1,1.8c0,0.4,0,0.8,0.1,1.3
		c0,0.5,0.1,0.9,0.1,1.4c0,0.5,0.1,0.9,0.1,1.4c0,0.4,0.1,0.9,0.1,1.3c0,0.4,0.1,0.8,0.1,1.2c0,0.4,0.1,0.8,0.1,1.2
		c0,0.1,0,0.1,0,0.2c0,0,0-0.1-0.1-0.1c-0.1-0.2-0.3-0.4-0.4-0.6c-0.2-0.2-0.3-0.4-0.5-0.6c-0.3-0.5-0.7-0.9-1.1-1.3
		c-0.4-0.4-0.8-0.9-1.2-1.3c-0.4-0.4-0.8-0.8-1.2-1.1c-0.4-0.3-0.9-0.7-1.4-0.9c-0.3-0.1-0.5-0.3-0.8-0.4c-0.3-0.1-0.6-0.2-0.9-0.3
		c-0.6-0.2-1.1-0.3-1.7-0.3c-0.2,0-0.5,0-0.7,0c-0.1,0-0.2,0-0.3,0.1c-0.2,0-0.4,0.1-0.5,0.1c-0.1,0-0.3,0.1-0.4,0.2
		c-0.3,0.1-0.5,0.3-0.7,0.6c-0.1,0.1-0.2,0.2-0.2,0.3c-0.4,0.6-0.6,1.3-0.4,2c0.1,0.3,0.1,0.5,0.3,0.8c0.1,0.3,0.3,0.5,0.5,0.7
		c0.2,0.2,0.3,0.4,0.6,0.6c0.2,0.2,0.5,0.4,0.8,0.6c0.5,0.3,1.1,0.5,1.6,0.6c0.3,0.1,0.6,0.1,0.8,0.2c0.3,0.1,0.6,0.1,0.9,0.2
		c0.5,0.1,1.1,0.2,1.6,0.4c0.4,0.1,0.8,0.2,1.3,0.3c0.4,0.1,0.9,0.2,1.3,0.2c0.2,0,0.4,0.1,0.6,0.1c0.2,0,0.4,0.1,0.7,0.1
		c0.2,0,0.3,0.1,0.5,0.1c0,0,0,0,0,0c-4.8,0.7-8.4,4.8-8.4,9.8c0,5.5,4.5,8.4,9.9,8.4C71.6,132.4,76.1,129.4,76.1,123.9z M68,113.4
		c0.2-0.4,0.3-0.8,0.5-1.2c0.2-0.5,0.5-0.9,0.8-1.3c0.2-0.3,0.5-0.6,0.7-0.9c0.3-0.3,0.6-0.6,0.8-0.8c0.5-0.4,1-0.8,1.6-1.1
		c0.4-0.2,0.8-0.3,1.2-0.3c0.3,0,0.6-0.1,0.8-0.1c0.2,0,0.4,0,0.6,0c0.1,0,0.3,0,0.4,0c0.1,0,0.2,0,0.4,0.1c0.1,0,0.1,0.1,0.2,0.1
		c0.1,0,0.1,0.1,0.1,0.1c0,0,0,0.1,0.1,0.1c0.1,0.2,0.1,0.3,0.2,0.5c0,0.2,0.1,0.5,0,0.7c0,0.2,0,0.3-0.1,0.5
		c-0.1,0.3-0.3,0.6-0.4,0.9c-0.2,0.2-0.4,0.5-0.6,0.7c-0.1,0.1-0.2,0.2-0.3,0.3c-0.2,0.2-0.4,0.3-0.6,0.4c-0.1,0.1-0.2,0.1-0.3,0.2
		c-0.1,0-0.2,0.1-0.3,0.1c-0.2,0.1-0.5,0.2-0.8,0.2c0,0,0,0,0,0c-0.3,0.1-0.6,0.1-0.9,0.2c-0.3,0-0.6,0.1-0.9,0.2
		c-0.2,0-0.4,0.1-0.6,0.1c-0.2,0-0.4,0.1-0.5,0.1c-0.2,0-0.3,0-0.5,0.1c-0.2,0-0.4,0.1-0.6,0.1c-0.2,0-0.3,0.1-0.5,0.2
		c-0.1,0-0.2,0.1-0.4,0.1c-0.1,0-0.2,0-0.3,0C67.9,113.5,68,113.5,68,113.4z M64.1,113.1c-0.2,0-0.5-0.1-0.7-0.1
		c-0.5-0.1-0.9-0.2-1.3-0.2c-0.5-0.1-0.9-0.2-1.4-0.3c-0.5-0.1-0.9-0.2-1.4-0.3c-0.5-0.1-1-0.2-1.4-0.3c-0.2,0-0.5-0.1-0.7-0.2
		c-0.2-0.1-0.4-0.1-0.6-0.2c-0.1-0.1-0.3-0.1-0.4-0.2c-0.2-0.1-0.3-0.2-0.5-0.3c-0.2-0.2-0.5-0.4-0.7-0.6c-0.2-0.3-0.4-0.6-0.6-0.9
		c-0.1-0.2-0.1-0.3-0.2-0.5c0-0.1,0-0.3,0-0.4c0-0.1,0-0.3,0.1-0.4c0.1-0.2,0.1-0.3,0.2-0.5c0,0,0.1-0.1,0.1-0.1
		c0.1-0.1,0.2-0.2,0.3-0.3c0.1-0.1,0.3-0.2,0.4-0.2c0.2-0.1,0.4-0.1,0.6-0.2c0.2,0,0.3-0.1,0.5-0.1c0.2,0,0.4,0,0.6,0
		c0.3,0,0.7,0.1,1,0.2c0.3,0.1,0.7,0.2,1,0.3c0.3,0.1,0.5,0.2,0.8,0.3c0.3,0.1,0.5,0.3,0.8,0.5c0.5,0.4,1,0.8,1.5,1.2
		c0.6,0.5,1.1,1.1,1.6,1.7c0.3,0.3,0.5,0.6,0.8,1c0.2,0.3,0.5,0.6,0.7,1c0.1,0.1,0.2,0.3,0.3,0.4c-0.2-0.1-0.4-0.1-0.5-0.1
		C64.5,113.2,64.3,113.2,64.1,113.1z M66.1,131.9c-4.4,0-7.9-3.6-7.9-7.9c0-4.4,3.6-7.9,7.9-7.9c4.4,0,7.9,3.6,7.9,7.9
		C74.1,128.3,70.5,131.9,66.1,131.9z"/>
</g>
</svg>
