<?xml version="1.0" encoding="utf-8"?>
<!-- Generator: Adobe Illustrator 23.0.4, SVG Export Plug-In . SVG Version: 6.00 Build 0)  -->
<svg version="1.1" id="Christmas1" xmlns="http://www.w3.org/2000/svg" xmlns:xlink="http://www.w3.org/1999/xlink" x="0px" y="0px"
	 viewBox="0 0 135 272.2" style="enable-background:new 0 0 135 272.2;" xml:space="preserve">
<style type="text/css">
	#Christmas1 .st0{fill:none;}
	#Christmas1 .st1{fill:#EFDBD5;}
	#Christmas1 .st2{fill:#CC3232;}
	#Christmas1 .st3{fill:#FEF3EF;}
</style>
<g>
	<circle class="st0" cx="65.6" cy="65.6" r="41.1"/>
	<path class="st1" d="M67.5,135c-0.9,0-1.9,0-2.8-0.1v133.6c0,0.4,0.1,0.8,0.2,1.2c0.4,1.4,1.4,2.4,2.7,2.4c1.6,0,2.8-1.6,2.8-3.6
		V135c-0.8,0-1.6,0.1-2.4,0.1C67.8,135,67.7,135,67.5,135z"/>
	<path class="st1" d="M94.3,122.1c-0.4,0.3-0.8,0.5-1.3,0.7c-3,1.7-6,3.1-9.1,4.3c11.6-3.1,21.3-9,29-17.6c3-3.3,5.7-7.1,8.1-11.3
		c3.7-6.5,6.2-13.1,7.5-19.9c-3.1,10.5-8.7,19.9-16.1,27.6C107.6,112.4,101.5,117.7,94.3,122.1z"/>
	<path class="st2" d="M127.6,36.8C116.5,15,93.7,0,67.5,0C30.2,0,0,30.2,0,67.5c0,7.8,1.3,15.3,3.8,22.3c8.9,25.5,32.7,44,60.9,45.2
		c0.9,0,1.9,0.1,2.8,0.1c0.1,0,0.3,0,0.4,0c0.8,0,1.6,0,2.4-0.1c36-1.5,64.7-31.1,64.7-67.4C135,56.5,132.3,46,127.6,36.8z
		 M121.1,98.3c-2.4,4.2-5.1,7.9-8.1,11.3c-7.7,8.5-17.4,14.4-29,17.6c3.1-1.2,6.2-2.6,9.1-4.3c0.4-0.2,0.8-0.5,1.3-0.7
		c7.2-4.3,13.2-9.7,18.1-16.1c2.9-3.8,5.3-7.9,7.4-12.4c5.8-12.9,7-27.4,3.3-40.8c-3.7-13.3-12.1-25-23.6-32.9c-2.9-2-5.9-3.7-9-5.1
		c-6.8-3-14-4.6-21.5-4.6c-0.6,0-1.2,0-1.8,0c-10.5,0.3-20.2,3.7-28.9,10c-7.8,5.7-13.7,12.9-17.4,21.7c-4.1,9.4-5.2,19.1-3.2,28.7
		c2.8,13.9,10.1,24.6,21.9,31.9c11.4,7.1,23.4,8.6,35.6,4.5c1.3-0.4,2.5-0.9,3.6-1.4c16.8-5.5,29-21.4,29-40
		c0-23.2-18.9-42.1-42.1-42.1c-9.1,0-17.5,2.9-24.4,7.8c2.3-2,4.9-3.8,7.7-5.3c12.4-6.7,25.1-7.1,37.8-1.2c15,7,24.1,19,27.1,35.5
		c2.6,14.5-1,28.1-10.7,40.3c-7.5,9.4-17.2,15.6-28.7,18.4c-14,3.4-27.4,1.3-39.8-6.2c-14.9-8.9-24.4-22.4-28.1-40
		c-1.7-8-0.9-16.2,2.3-25.3c7.4-20.4,21.7-33.8,42.5-39.8c11.9-3.4,23.8-3.1,35.4,1c21.1,7.3,34.8,21.9,40.6,43.2
		c2.4,9,2.9,17.9,1.3,26.5C127.3,85.2,124.8,91.9,121.1,98.3z M65.6,24.5c22.7,0,41.1,18.4,41.1,41.1s-18.4,41.1-41.1,41.1
		S24.5,88.2,24.5,65.6S42.9,24.5,65.6,24.5z"/>
	<path class="st3" d="M127.3,51.9c-5.8-21.3-19.4-35.8-40.6-43.2c-11.6-4-23.5-4.4-35.4-1c-20.8,6-35.1,19.4-42.5,39.8
		c-3.3,9-4,17.3-2.3,25.3c3.7,17.6,13.2,31,28.1,40c12.4,7.5,25.8,9.5,39.8,6.2c11.6-2.8,21.2-9,28.7-18.4
		c9.7-12.2,13.3-25.8,10.7-40.3c-3-16.5-12.1-28.4-27.1-35.5c-12.7-5.9-25.4-5.5-37.8,1.2c-2.8,1.5-5.4,3.3-7.7,5.3
		c6.9-4.9,15.3-7.8,24.4-7.8c23.2,0,42.1,18.9,42.1,42.1c0,18.7-12.2,34.5-29,40c-1.2,0.5-2.4,1-3.6,1.4
		c-12.2,4.1-24.1,2.6-35.6-4.5c-11.8-7.3-19.1-18-21.9-31.9c-1.9-9.7-0.8-19.3,3.2-28.7c3.8-8.7,9.6-16,17.4-21.7
		c8.7-6.3,18.4-9.7,28.9-10c0.6,0,1.2,0,1.8,0c7.5,0,14.7,1.5,21.5,4.6c3.1,1.4,6.1,3.1,9,5.1c11.5,7.9,19.9,19.6,23.6,32.9
		c3.7,13.4,2.6,27.9-3.3,40.8c-2,4.5-4.5,8.6-7.4,12.4c7.4-7.7,13-17.1,16.1-27.6C130.2,69.8,129.8,60.9,127.3,51.9z"/>
</g>
</svg>
