<?xml version="1.0" encoding="utf-8"?>
<!-- Generator: Adobe Illustrator 23.0.4, SVG Export Plug-In . SVG Version: 6.00 Build 0)  -->
<svg version="1.1" id="Christmas2" xmlns="http://www.w3.org/2000/svg" xmlns:xlink="http://www.w3.org/1999/xlink" x="0px" y="0px"
	 viewBox="0 0 187.1 186.9" style="enable-background:new 0 0 187.1 186.9;" xml:space="preserve">
<style type="text/css">
	#Christmas2 .st0{fill:#FEF3EF;}
	#Christmas2 .st1{fill:#B22222;}
	#Christmas2 .st2{fill:#FFFFFF;}
</style>
<g>
	<path class="st0" d="M28.1,61c-2.9-4.7-6-9.6-7.1-15.1c-1.3,0.2-2.7,0.4-4.2,0.4c-3.2,0-6.8-0.5-10.9-1.6c-1.5-0.4-3.1-0.9-4.9-1.5
		c0.1,2.1,0.3,4.2,0.6,6.3c1,6.7,4.6,12.8,7.9,18.7c0.9,1.6,1.8,3.2,2.7,4.7l0.4,0.7c5.1,0.5,10.4-0.1,15.5-1.6
		c1.9-0.5,3.6-1.2,5.3-1.9c-0.6-1-1.1-2-1.7-3C30.6,65.1,29.4,63,28.1,61z"/>
	<path class="st0" d="M56.2,31c1.6-2.4,3.5-4.7,5.6-6.7c1.6-1.5,3.4-3,5.4-4.3c1.6-1.1,3.3-2.1,5.1-3.1c-1.4-1.8-2.7-3.3-4.1-4.7
		c-2.6-2.6-5.4-5.3-9.2-7C48.2,0.3,37.1-0.3,27,3.5c0,1,0.1,2,0.2,3.2c0.5,5.8,1.9,11.5,4.1,16.9c1.6-0.8,3.2-1.4,4.9-1.8
		c1.2-0.3,2.4-0.4,3.6-0.4C45.5,21.4,50.9,24.6,56.2,31z"/>
	<path class="st0" d="M181.2,44.7c-4.1,1.1-7.6,1.7-10.9,1.6c-1.5,0-2.9-0.1-4.2-0.4c-1.2,5.5-4.2,10.4-7.1,15.1
		c-1.2,2-2.5,4-3.6,6.1c-0.5,1-1.1,2-1.7,3c1.6,0.7,3.4,1.4,5.3,1.9c5,1.5,10.4,2,15.5,1.6l0.4-0.7c0.9-1.6,1.8-3.2,2.7-4.7
		c3.4-5.9,6.9-12,7.9-18.7c0.3-2.1,0.5-4.2,0.6-6.3C184.2,43.8,182.7,44.3,181.2,44.7z"/>
	<path class="st1" d="M187.1,41.8c0.1-9.2-2.3-17.3-7.3-24.2c-1.3-1.8-2.7-3.5-4.3-5.1c-4.3-4.3-9.1-7.5-14.4-9.6l0,0l-0.3-0.1
		l-0.7-0.3l0,0c-10.2-3.7-21.5-3.1-32.6,1.8c-4,1.8-7,4.7-9.5,7.2c-1.4,1.5-2.8,3.1-4.2,4.9l0,0l-0.3,0.3l-0.4,0.5l0,0
		c-6.1,8.2-10.3,18.1-14.4,27.6C97.9,46.9,97,49,96.1,51l-0.5,1.1l0,0c-0.7,1.6-1.4,3.2-2.1,4.8c-0.7-1.6-1.4-3.2-2.1-4.8l0,0L91,51
		c-0.9-2-1.8-4-2.6-6.1c-4.1-9.5-8.3-19.4-14.4-27.6l0,0l-0.4-0.5l-0.3-0.3l0,0c-1.4-1.9-2.8-3.5-4.2-4.9c-2.5-2.6-5.5-5.5-9.5-7.2
		C48.5-0.7,37.2-1.3,27,2.4l0,0l-0.7,0.3L26,2.8l0,0c-5.3,2.1-10.1,5.3-14.4,9.6c-1.6,1.6-3.1,3.3-4.3,5.1c-5,6.9-7.4,15.1-7.3,24.2
		l0,0l0,0.7c0,0,0,0,0,0l0,0.3l0,0c0.1,2.2,0.3,4.5,0.6,6.8c1.1,6.9,4.6,13.1,8.1,19c0.9,1.5,1.8,3.1,2.7,4.7l0.6,1.2l0,0
		c4.6,8.4,8.3,14.9,11.9,20.8c1.6,2.7,4.2,4.6,7.1,5.3c0.8,0.2,1.6,0.3,2.3,0.3c1.8,0,3.6-0.5,5.3-1.6l0.2-0.2
		c5-3.3,6.6-9.2,3.8-14.7c-1.7-3.5-3.7-6.9-5.6-10.1c-0.8-1.4-1.7-2.9-2.5-4.3l0,0c-0.6-1.1-1.3-2.3-1.9-3.5
		c-1.1-2.1-2.4-4.1-3.6-6.1c-3-4.8-6.1-9.8-7.1-15.3l0,0c-0.2-1.2-0.3-2.3-0.4-3.4c-0.1-3.6,0.8-7.1,2.5-10.1c1.7-2.9,4.2-5.4,7.3-7
		c1.6-0.9,3.4-1.5,5.2-1.9c6.7-1.5,13.1,1.6,19.4,9.4c6.2,7.7,11.4,18.8,15.7,27.8l0,0l0.3,0.7l0.1,0.2l0,0l0.6,1.3
		c1,2.2,2.1,4.5,3.2,7c-21.3,7.4-35.6,27.4-35.6,50c0,12.9,4.7,25.4,13.3,35.1c-2.5,6-5,11.9-7.6,18c-2,4.6-0.1,10.1,4.5,13
		c0.5,0.3,0.9,0.5,1.3,0.7c1.4,0.7,2.9,1,4.4,1c4,0,7.9-2.3,9.7-6.1c1.9-4.1,3.8-8.3,6-13.3c6.7,3,13.9,4.5,21.3,4.5
		c7.7,0,15.1-1.6,22-4.8c2.2,5.1,4.2,9.5,6.1,13.6c2.4,5.2,8.8,7.5,14,5.1c0.4-0.2,0.8-0.4,1.3-0.7c4.6-2.9,6.4-8.4,4.5-13
		c-2.7-6.3-5.3-12.5-7.9-18.7c8.2-9.6,12.7-21.8,12.7-34.4c0-22.2-14-42.1-34.9-49.7c1.1-2.5,2.2-5,3.3-7.3l0.6-1.3l0,0l0.2-0.4
		l0.2-0.5l0,0c4.2-9,9.5-20.1,15.7-27.8c6.4-7.9,12.7-11,19.4-9.4c1.8,0.4,3.5,1.1,5.2,1.9c3.1,1.6,5.6,4.1,7.3,7
		c1.7,3,2.6,6.5,2.5,10.1c0,1.1-0.1,2.3-0.4,3.4l0,0c-1,5.5-4.1,10.5-7.1,15.3c-1.2,2-2.5,4.1-3.6,6.1c-0.6,1.2-1.3,2.3-1.9,3.5l0,0
		c-0.8,1.5-1.7,2.9-2.5,4.3c-1.9,3.3-3.9,6.6-5.6,10.1c-2.7,5.5-1.2,11.4,3.8,14.7l0.2,0.2c1.7,1,3.5,1.6,5.3,1.6
		c0.8,0,1.6-0.1,2.3-0.3c2.9-0.7,5.4-2.6,7.1-5.3c3.6-5.9,7.3-12.4,11.9-20.8l0,0l0.6-1.2c0.8-1.6,1.8-3.2,2.7-4.7
		c3.4-6,7-12.1,8.1-19c0.4-2.3,0.6-4.6,0.6-6.8l0,0l0-0.3L187.1,41.8L187.1,41.8z M177.5,68.2c-0.9,1.6-1.8,3.2-2.7,4.7l-0.4,0.7
		c-5.1,0.5-10.4-0.1-15.5-1.6c-1.9-0.5-3.6-1.2-5.3-1.9c0.6-1,1.1-2,1.7-3c1.1-2,2.4-4.1,3.6-6.1c2.9-4.7,6-9.6,7.1-15.1
		c1.3,0.2,2.7,0.4,4.2,0.4c3.3,0,6.8-0.5,10.9-1.6c1.5-0.4,3.1-0.9,4.9-1.5c-0.1,2.1-0.3,4.2-0.6,6.3
		C184.4,56.2,180.9,62.3,177.5,68.2z M93.1,69.4c27.5,0,49.9,22.4,49.9,49.9s-22.4,49.9-49.9,49.9c-27.5,0-49.9-22.4-49.9-49.9
		S65.6,69.4,93.1,69.4z M110.1,69.2c-0.3-0.1-0.6-0.2-0.9-0.3c-0.3-0.1-0.6-0.2-0.9-0.3c-0.5-0.1-0.9-0.3-1.4-0.4
		c-0.2-0.1-0.4-0.1-0.6-0.2c-0.6-0.2-1.2-0.3-1.8-0.4c-0.1,0-0.1,0-0.2,0c-3.7-0.8-7.4-1.2-11.2-1.2c-4.2,0-8.4,0.5-12.5,1.5
		c-0.1,0-0.1,0-0.2,0.1c-0.6,0.2-1.2,0.3-1.8,0.5c-0.2,0.1-0.5,0.2-0.7,0.2c-0.3,0.1-0.7,0.2-1,0.3c-1.1-2.6-2.2-4.9-3.3-7.1
		l-0.7-1.5c3.8-2.7,7.9-4.8,12.4-6.4c1.8-0.6,3.6-1.2,5.3-1.6c0.8,1.9,1.6,3.7,2.4,5.6l0.7,1.5l0.6-1.3c0.8-1.9,1.7-3.9,2.5-5.8
		c1.7,0.4,3.5,0.9,5.3,1.6c4.4,1.6,8.6,3.7,12.4,6.4l-0.7,1.5C112.4,64.2,111.3,66.7,110.1,69.2z M33.4,70.1
		c-1.6,0.7-3.4,1.4-5.3,1.9c-5,1.5-10.4,2-15.5,1.6l-0.4-0.7c-0.9-1.6-1.8-3.2-2.7-4.7c-3.4-5.9-6.9-12-7.9-18.7
		c-0.3-2.1-0.5-4.2-0.6-6.3c1.8,0.6,3.4,1.1,4.9,1.5c4.1,1.1,7.7,1.7,10.9,1.6c1.5,0,2.9-0.1,4.2-0.4c1.2,5.5,4.2,10.4,7.1,15.1
		c1.2,2,2.5,4,3.6,6.1C32.3,68.1,32.8,69.1,33.4,70.1z M31.3,23.5c-2.2-5.4-3.6-11-4.1-16.9c-0.1-1.2-0.2-2.3-0.2-3.2
		c10.1-3.8,21.2-3.2,32.1,1.7c3.8,1.7,6.6,4.4,9.2,7c1.4,1.4,2.7,2.9,4.1,4.7c-1.8,1-3.5,2-5.1,3.1c-2,1.4-3.8,2.8-5.4,4.3
		c-2.2,2-4.1,4.3-5.6,6.7c-5.4-6.5-10.8-9.7-16.4-9.7c-1.2,0-2.4,0.1-3.6,0.4C34.5,22.2,32.9,22.8,31.3,23.5z M130.8,31
		c-1.6-2.4-3.5-4.7-5.6-6.7c-1.6-1.5-3.4-3-5.4-4.3c-1.6-1.1-3.3-2.1-5.1-3.1c1.4-1.8,2.7-3.3,4.1-4.7c2.6-2.6,5.4-5.3,9.2-7
		c11-4.9,22.1-5.5,32.1-1.7c0,1-0.1,2-0.2,3.2c-0.5,5.8-1.9,11.5-4.1,16.9c-1.6-0.8-3.2-1.4-4.9-1.8C143.8,20.2,137.3,23.2,130.8,31
		z"/>
	<path class="st0" d="M150.8,21.8c1.7,0.4,3.4,1,4.9,1.8c2.2-5.4,3.6-11,4.1-16.9c0.1-1.2,0.2-2.3,0.2-3.2
		c-10.1-3.8-21.2-3.2-32.1,1.7c-3.8,1.7-6.6,4.4-9.2,7c-1.4,1.4-2.7,3-4.1,4.7c1.8,1,3.5,2,5.1,3.1c2,1.4,3.8,2.8,5.4,4.3
		c2.2,2,4.1,4.3,5.6,6.7C137.3,23.2,143.8,20.2,150.8,21.8z"/>
	<path class="st0" d="M114.2,60.3c-3.8-2.7-7.9-4.8-12.4-6.4c-1.8-0.6-3.6-1.2-5.3-1.6c-0.8,1.9-1.7,3.9-2.5,5.8l-0.6,1.3l-0.7-1.5
		c-0.8-1.9-1.6-3.7-2.4-5.6c-1.7,0.4-3.5,0.9-5.3,1.6c-4.4,1.6-8.6,3.7-12.4,6.4l0.7,1.5c1.1,2.2,2.1,4.6,3.3,7.1
		c0.3-0.1,0.7-0.2,1-0.3c0.2-0.1,0.5-0.2,0.7-0.2c0.6-0.2,1.2-0.3,1.8-0.5c0.1,0,0.1,0,0.2-0.1c4.1-1,8.3-1.5,12.5-1.5
		c3.8,0,7.5,0.4,11.2,1.2c0.1,0,0.1,0,0.2,0c0.6,0.1,1.2,0.3,1.8,0.4c0.2,0.1,0.4,0.1,0.6,0.2c0.5,0.1,0.9,0.3,1.4,0.4
		c0.3,0.1,0.6,0.2,0.9,0.3c0.3,0.1,0.6,0.2,0.9,0.3c1.1-2.5,2.3-5,3.4-7.4L114.2,60.3z"/>
	<path class="st2" d="M93.1,169.1c27.5,0,49.9-22.4,49.9-49.9s-22.4-49.9-49.9-49.9c-27.5,0-49.9,22.4-49.9,49.9
		S65.6,169.1,93.1,169.1z"/>
</g>
</svg>
