<?xml version="1.0" encoding="utf-8"?>
<!-- Generator: Adobe Illustrator 23.0.4, SVG Export Plug-In . SVG Version: 6.00 Build 0)  -->
<svg version="1.1" id="Deer2" xmlns="http://www.w3.org/2000/svg" xmlns:xlink="http://www.w3.org/1999/xlink" x="0px" y="0px"
	 viewBox="0 0 311.3 363.9" style="enable-background:new 0 0 311.3 363.9;" xml:space="preserve">
<style type="text/css">
	#Deer2 .st0{fill:#7FCADB;}
</style>
<g>
	<path class="st0" d="M311.1,185.2c-0.3-2.2-1.2-4.4-3-5.7c-2.2-1.6-4.8-1.6-7.3-1.6c-6.6,0-13.3,0.9-19.7,2.5
		c-1,0.3-2.1,0.5-3.1,0.9c-0.6,0.2-2.4,0.4-2.6,0.9c6.3-10.1,7.9-23.3,4.9-34.9c-4.9-19.3-20.6-31.6-34.4-44.6
		c-4.7-4.5-8-12.2-14.1-15c1,0.5,2.1,1,3.1,1.4c5.3,2.5,12,3.2,17.8,3.2c3.7,0,7.4-1.4,7.7-5.5c0.1-2-0.4-4.1-1.3-5.8
		c-3-5.6-10.3-6.8-15.4-9.6c-5.3-2.9-9.8-8.7-15.9-9.3c-1.4-0.3-2.9-0.6-4.3-0.7c-2.9-0.3-5.7,0-8.4,0.7c0.5-0.1,1.8-3.2,2.1-3.8
		c0.8-1.4,1.5-2.5,1.3-4.2c-0.8-5.5-9.5-5.6-9.6,0.2c0,1,0.1,2.1-0.6,3c-4.4-1.6-7.8-7.2-8.4-11.7c-0.5-4-2.5-8.5-6.1-10.7
		c-0.8-0.5-2.9-1.6-3.9-1.1c-1.6,0.7-0.2,2.7,0.2,3.8c0.9,2.3,1,5-0.2,7.2c-0.1,0.3-0.3,0.5-0.5,0.6c-0.3,0.2-0.7,0.1-1,0
		c-3.1-0.7-5.3-3.3-5.6-6.4c-0.9-9.1-1.5-17.6-5.5-26c-0.7-1.4-4.5-9-5.1-3.9c-0.4,2.7,0.1,6,0.7,8.7c1.1,5.1,5.3,12.1,3.5,17.3
		c-0.1,0.3-0.3,0.6-0.5,0.9c-0.5,0.5-1.3,0.6-1.9,0.4c-1.2-0.3-2.4-1.3-3.4-2c-5.3-4.1-7.3-10.6-8.2-17c-0.5-3.3-0.7-6.5-1.1-9.8
		c-0.2-1.3-0.2-7.9-2.3-7.5c-2.4,0.5-2.1,5-2,6.7c0.1,2.8,0.2,5.5-0.2,8.3c-0.1,0.6-0.3,1.3-0.9,1.5c-2.2,0.7-8.1-9.3-9.4-11
		c-1.2-1.6-2.1-3.5-3.7-4.7c-1.9-1.5-3.3-0.3-3.2,1.9c0.1,2.5,1.8,5.2,3.1,7.3c4.5,7,9.4,13.7,14.6,20.2c2.7,3.3,5.4,6.5,8.2,9.6
		c1.4,1.5,2.8,3,4.2,4.5c0.9,0.9,3,2.3,3,3.8c-0.1,2.6-5.5,0.9-6.8,0.5c-3.4-1-6.2-2.9-7.7-6.3c-1.1-2.4-1.6-4.9-2.3-7.4
		c-0.9-2.8-2.1-5.4-4.4-7.4c-1.8-1.5-4.1-2.3-4.6,0.8c-0.5,3,0.7,6.7,2.3,9.2c0.8,1.3,5.1,6.3,1.7,7c-0.7,0.1-1.5-0.1-2.2-0.4
		c-5.6-2.2-10.3-6.6-13.1-12c-2.6-5.2-3.8-11.9-9-15.2c-0.3-0.2-0.6,0-0.8,0.2c-2,2.7-1.4,6.1,0.1,8.9c1.1,2.3,2.7,4.4,3.5,6.8
		c0.2,0.4,0.3,0.9,0.3,1.4c0,0.5-0.3,0.9-0.8,1.1c-0.5,0.2-1,0-1.4-0.3c-3.8-1.9-7-5.1-10.3-7.8c-1.3-1-4.4-4.8-4.4-1.3
		c0,2.6,2,5,3.7,6.7c2.7,2.6,5.8,4.9,8.7,7.2c5.9,4.6,12.1,9,18.9,12.3c6.5,3.2,13.6,5.3,20.8,5.5c8.2,0.2,17-1.7,24.6,2.3
		c3.7,1.9,7.2,4.8,9.8,8.2c0.9,1.2,2.2,2.7,2.5,4.2c0.9,4.9-8.8,2-10.8,1.6c-5.7-1.3-13.8-1.8-18.7,2.2c-3.4,2.7-4.7,8.2-1,11.2
		c3.6,2.9,7.7,0.1,10.8-2c3.7-2.6,11-6.7,15.6-4.6c0.4,0.3-0.5,4.9-0.6,5.4c-0.4,3.2-0.7,6.1-0.4,9.3c0.9,12.4,6.2,23.4,10.1,35
		c2.6,7.9,5.3,17,3.8,25.4c-2.3,12.5-16.9,19.2-27.3,23.8c-8.8,3.8-17.7,7.2-27,9.7c-9,2.5-19.7,2.2-28.3,5.9
		c-1.8,0.8-3.3,1.8-4.6,3c-1.5-0.3-3-0.6-4.5-0.8c-4.7-0.5-9.1,0.5-13.7,1.8c-4.2,1.2-8.6,2.6-13,1.8c-3.8-0.7-7.4-2.7-8.6-6.6
		c-0.2-0.6-1.2-0.7-1.3,0c-0.8,4.3-1.8,9.3,0.7,13.2c1.5,2.4,4.2,4.1,7,3.8l-2.2,3.1c-0.2,0.3,0,0.9,0.4,0.9
		c4.7,0.7,9.4-0.1,13.4-2.6c-0.3,1.1-0.6,2.2-0.9,3.3c-0.1,0.4,0.3,0.8,0.7,0.7c5.3-1.3,10.7-3.7,15.1-7.2
		c-2.1,6.1-3.5,12.4-6.2,18.3c-5.8,12.5-15.4,23.3-29.1,26.7c-3.4,0.8-6.8,1.7-9.3,4.2c-4.9,5-8.3,12.7-12.1,18.6
		c-4.2,6.4-8.5,12.9-13,19.2c-9.1,12.6-20.8,28.3-35.9,33.7c-0.3,0.1-0.4,0.3-0.5,0.5c-0.6,0.3-1.1,0.7-1.5,1.6
		c-0.7,1.3-1.1,2.5-2.3,3.5c-1.2,1.1-2.6,1.8-3.9,2.6c-0.8,0.4-1.9,0.7-2.3,1.5c-0.4,0.8-0.1,2.1,0.1,3c0.2,1.1,0.6,2.2,1.3,3.1
		c0.9,1.1,2.1,1.7,2.8,2.9c0.1,0.2,0.5,0.3,0.7,0c1.9-3.8,5-6.7,8.2-9.4c0.1,0,0.2,0,0.2-0.1c11.6-7.6,22.9-16.6,32.9-26.5
		c10.4-10.3,18.2-22.3,27.9-33.1c0.3-0.3,1.3-1.2,2-1.9c0,0.9,0,1.8-0.1,2.7c-0.4,8.2,2.3,15.3,0.7,23.6
		c-2.4,12.9-9.8,23.5-16.5,34.4c-1.3,2.2-2.5,4.5-3.6,6.7c-0.3,0.5-0.8,1.3-1.2,2.1c-0.3,0.5-0.5,1-0.6,1.6c-0.1,1.4,0.3,2-0.5,3.5
		c-0.4,0.8-1,1.5-1.6,2.2c-1.4,2-4.3,6.1-1,7.7c0.7,0.3,1.4,0.4,2.2,0.6c0.6,0.2,1.4,0.8,2.1,0.6c1-0.3,1.7-2.1,2.3-2.9
		c1.8-2.8,3.2-5.9,4.3-9.1c3.2-3.1,5-7.7,7.1-11.6c4.7-8.5,9.5-17.5,12.5-27c1.6-5,2.7-10.1,3.2-15.3c0.5-5.5-0.2-10.9,1.2-16.3
		c0.6-2.6,2.7-4,5.2-4.7c4.6-1.3,9.6-0.5,14.3-1.2c10.9-1.6,20.8-7.4,28.7-14.8c6.7-6.2,12-13.6,16.9-21.2c1.6-1.6,3.2-3.1,5-4.4
		c9.9-7.5,24.5-7.3,36.4-9.3c3.4-0.6,6.8-1.1,10.3-1.2c3.4-0.1,6.7,0.4,10,0.6c19.1,1.5,38.5-2.2,55.8-10.2c2.3-1.6,4.6-3.1,7-4.6
		c3.5-2.1,7.1-4.2,10.8-5.9c0.4-0.2,0.8-0.4,1.2-0.6c-0.1,1.1-0.2,2.1-0.4,3.2c-1.1,5.8-2.8,11.7-5.3,17.1c-2.4,5.2-5.9,10.2-11,13
		c-1.2,0.7-2.7,1.3-3.5,2.4c-1.6,0.3-3,0.9-4.2,2.4c-2.9,3.6-6.8,4.5-11.3,5c-0.2,0-0.5,0.2-0.4,0.5c0.6,1.4,1.2,2.9,1.7,4.3
		c0.3,0.7,0.5,1.9,1.1,2.4c1.2,1.1,4.3-0.4,5.5-0.8c3.8-1.2,8.2-2.4,11.5-4.9c12.9-4.5,19.2-18.7,22.7-30.9c0.8-2.7,1.4-5.3,2-8.1
		c0,0.1,0,0.2,0,0.3c0,0.5,0,0.9-0.1,1.3c-0.5,11.9-1.4,24.3-6.3,35.2c-3,6.6-7.2,12.7-12.6,17.7c-0.1,0.1-0.1,0.2-0.2,0.3
		c-1.5,0.9-2.2,2-2.5,4.2c-0.6,4.3-5.1,5.2-8,7.5c-0.1,0.1-0.1,0.2-0.1,0.4c0.3,1.9,1.6,3.1,3.2,4.1c0.5,0.3,1.4,1.1,2.1,1
		c0.7,0,1.5-0.9,2-1.3c3.9-3.1,7.3-6.6,10.4-10.4c9.1-8.6,13.8-20.7,17-32.6c2.4-9,4.3-18,5.9-27.1
		C309.5,202.4,312.1,193.3,311.1,185.2z M245.6,189.4c-17.5,0-31.7-14.2-31.7-31.7c0-17.5,14.2-31.7,31.7-31.7s31.7,14.2,31.7,31.7
		C277.3,175.2,263.1,189.4,245.6,189.4z"/>
</g>
</svg>
