<?xml version="1.0" encoding="utf-8"?>
<!-- Generator: Adobe Illustrator 23.0.4, SVG Export Plug-In . SVG Version: 6.00 Build 0)  -->
<svg version="1.1" id="Deer3" xmlns="http://www.w3.org/2000/svg" xmlns:xlink="http://www.w3.org/1999/xlink" x="0px" y="0px"
	 viewBox="0 0 156 159.6" style="enable-background:new 0 0 156 159.6;" xml:space="preserve">
<style type="text/css">
	#Deer3 .st0{fill:#333232;}
</style>
<g>
	<path class="st0" d="M50,31.5c0.4-1.5,1.5-7.1-1.8-5.6c-1.1,0.5-1.7,1.6-2.2,2.6c-1.1,2.6-2,5.2-3.4,7.6c-0.4,0.7-0.9,1.4-1.6,1.7
		c-3.5,1.5-4.9-6.7-5.3-8.6c-1-4.5-0.7-9.2-0.3-13.8c0.3-3.5,1-9.2-1.3-12.2c-2.2-2.9-3.2,1.2-3.5,3c-0.4,2.6-0.6,5.3-0.5,7.9
		c0,1.1,0.2,7.2-2.3,6c-0.5-0.2-0.8-0.7-1.1-1.1c-2.4-3.7-4.2-8-6.3-12c-1.2-2.3-2.5-5.1-4.8-6.5c-1.1-0.7-2.4-1-2.9,0.5
		c-0.4,1.5,0.5,3.7,1,5.1c1.9,5.1,4.6,9.8,7.4,14.4c1.4,2.3,2.9,4.5,4.4,6.7c1.2,1.7,3.6,4.3,3.8,6.5c0.1,1.2-0.8,2.2-2,2.4
		c-0.7,0.1-1.4,0.1-2.1-0.1c-2.3-0.5-4.4-1.7-6.5-2.7c-1.4-0.7-4.5-2.5-6-1.3c-1.3,1,0.1,2.9,0.9,3.9c1.1,1.4,2.8,2.4,4.5,3.1
		c5.3,2.2,11.3,1.2,16.5,3.8c3.2,1.6,4.8,4.3,6.6,7.3c2,3.4,3.8,6.9,5.2,10.5c0.6,1.5,1.1,3,1.7,4.5c0.6,1.5,1.2,3.1,2.1,4.5
		c0.8,1.3,2.6,2.6,4.2,1.9c1.9-0.8,1.4-3.6,0.9-5.1c-2.5-7.6-8.6-14.3-8.6-22.6C46.4,39.5,48.9,35.7,50,31.5z"/>
	<path class="st0" d="M105.9,31.5c-0.4-1.5-1.5-7.1,1.8-5.6c1.1,0.5,1.7,1.6,2.2,2.6c1.1,2.6,2,5.2,3.4,7.6c0.4,0.7,0.9,1.4,1.6,1.7
		c3.5,1.5,4.9-6.7,5.3-8.6c1-4.5,0.7-9.2,0.3-13.8c-0.3-3.5-1-9.2,1.3-12.2c2.2-2.9,3.2,1.2,3.5,3c0.4,2.6,0.6,5.3,0.5,7.9
		c0,1.1-0.2,7.2,2.3,6c0.5-0.2,0.8-0.7,1.1-1.1c2.4-3.7,4.2-8,6.3-12c1.2-2.3,2.5-5.1,4.8-6.5c1.1-0.7,2.4-1,2.9,0.5
		c0.4,1.5-0.5,3.7-1,5.1c-1.9,5.1-4.6,9.8-7.4,14.4c-1.4,2.3-2.9,4.5-4.4,6.7c-1.2,1.7-3.6,4.3-3.8,6.5c-0.1,1.2,0.8,2.2,2,2.4
		c0.7,0.1,1.4,0.1,2.1-0.1c2.3-0.5,4.4-1.7,6.5-2.7c1.4-0.7,4.5-2.5,6-1.3c1.3,1-0.1,2.9-0.9,3.9c-1.1,1.4-2.8,2.4-4.5,3.1
		c-5.3,2.2-11.3,1.2-16.5,3.8c-3.2,1.6-4.8,4.3-6.6,7.3c-2,3.4-3.8,6.9-5.2,10.5c-0.6,1.5-1.1,3-1.7,4.5c-0.6,1.5-1.2,3.1-2.1,4.5
		c-0.8,1.3-2.6,2.6-4.2,1.9c-1.9-0.8-1.4-3.6-0.9-5.1c2.5-7.6,8.6-14.3,8.6-22.6C109.5,39.5,107,35.7,105.9,31.5z"/>
	<path class="st0" d="M36.3,82.9c0.8-1.2,1.6-2.6,2.3-4.1c1.7-3.7,2.6-7.9,0.8-11.6c-0.2-0.4-0.4-0.8-0.7-1.2
		c-2.7-5.3-8.1-9.3-13.5-11.5C16.9,51,8,49.8,0.5,44.8c-0.2-0.2-0.5,0-0.5,0.3c0.1,12.5,0.3,26.6,9.3,36.4c3.3,3.6,7.7,6.5,12.5,7.4
		c0.4,0.1,0.8,0.1,1.2,0.2c2.4,0.3,4.9,0.2,7.1-0.7C32.8,87.4,34.7,85.2,36.3,82.9z"/>
	<path class="st0" d="M155.5,44.8c-7.5,5-16.5,6.2-24.7,9.7c-5.4,2.3-10.8,6.2-13.5,11.5c-0.3,0.4-0.5,0.8-0.7,1.2
		c-1.8,3.6-0.9,7.9,0.8,11.6c0.7,1.5,1.5,2.8,2.3,4.1c1.5,2.3,3.5,4.5,6.2,5.5c2.2,0.9,4.7,1,7.1,0.7c0.4-0.1,0.8-0.1,1.2-0.2
		c4.9-0.9,9.2-3.8,12.5-7.4c9-9.8,9.2-23.9,9.3-36.4C156,44.8,155.7,44.7,155.5,44.8z"/>
	<path class="st0" d="M85.6,64.4c-18.4-3-36,5-46.3,19.1c-4.3,5.9-7.3,12.9-8.6,20.5c-0.1,0.6-0.2,1.1-0.2,1.7
		c-3.2,25.4,14.3,49.1,39.8,53.3c26.1,4.2,50.7-13.6,54.9-39.6C129.5,93.3,111.7,68.6,85.6,64.4z M123.8,119.1
		c-4.1,25.3-28,42.5-53.3,38.4c-25.3-4.1-42.5-28-38.4-53.3c4.1-25.3,28-42.5,53.3-38.4C110.7,69.9,127.9,93.8,123.8,119.1z"/>
</g>
</svg>
