<?xml version="1.0" encoding="utf-8"?>
<!-- Generator: Adobe Illustrator 23.0.4, SVG Export Plug-In . SVG Version: 6.00 Build 0)  -->
<svg version="1.1" id="Easter4" xmlns="http://www.w3.org/2000/svg" xmlns:xlink="http://www.w3.org/1999/xlink" x="0px" y="0px"
	 viewBox="0 0 181 270" style="enable-background:new 0 0 181 270;" xml:space="preserve">
<style type="text/css">
	#Easter4 .st0{fill:none;}
	#Easter4 .st1{fill:#D3D0C6;}
	#Easter4 .st2{fill:#F7F6F1;}
	#Easter4 .st3{fill:#EEBFC9;}
	#Easter4 .st4{fill:#EDEAE5;}
	#Easter4 .st5{fill:#7FCADB;}
	#Easter4 .st6{fill:#DB7A3B;}
	#Easter4 .st7{fill:#E4B859;}
	#Easter4 .st8{fill:#D17FD3;}
</style>
<g>
	<path class="st0" d="M105.4,84.9L105.4,84.9c0-0.3,0-0.7,0-1C105.4,84.2,105.4,84.5,105.4,84.9z"/>
	<path class="st0" d="M38.3,56.1c0.6,2.1,1.1,4.3,1.6,6.4C39.4,60.4,38.9,58.2,38.3,56.1z"/>
	<path class="st0" d="M31.4,48.9c1.1-0.7,2.3-1.4,3.5-1.9C33.7,47.6,32.5,48.2,31.4,48.9z"/>
	<path class="st0" d="M34.5,107c-0.8,1.6-1.6,3.3-2.5,4.8C33,110.3,33.8,108.7,34.5,107z"/>
	<path class="st0" d="M41.1,78c0-1,0-2.1,0-3.1c0-1-0.1-2-0.1-3c0.1,1,0.1,2,0.1,3C41.2,76,41.2,77,41.1,78z"/>
	<path class="st0" d="M125.3,72.9c2.4-2.6,4.7-5.3,6.8-8.2c0.7-1,1.4-1.9,2-2.9c-0.7,1-1.3,2-2,2.9C130,67.6,127.7,70.3,125.3,72.9z
		"/>
	<path class="st0" d="M1.5,124C1.5,124.1,1.5,124.1,1.5,124c0,0.2,0,0.4,0,0.6C1.5,124.5,1.5,124.3,1.5,124
		C1.5,124.1,1.5,124.1,1.5,124z"/>
	<path class="st0" d="M166.1,41.7c3.5-6.4,6.5-12.9,9.1-19.6c0.6-1.4,1.1-2.9,1.6-4.4c-0.5,1.5-1,2.9-1.6,4.4
		C172.6,28.8,169.5,35.4,166.1,41.7z"/>
	<path class="st0" d="M148.3,67.5c1.3-1.5,2.5-2.9,3.7-4.3c1.9-2.4,3.8-4.9,5.6-7.5c-1.8,2.6-3.6,5.1-5.6,7.5
		C150.8,64.6,149.6,66,148.3,67.5z"/>
	<path class="st0" d="M109.8,86.3c0.2-0.2,0.5-0.3,0.7-0.5c0.8-0.5,1.5-1.1,2.3-1.7c-0.8,0.6-1.5,1.1-2.3,1.7
		C110.3,85.9,110,86.1,109.8,86.3z"/>
	<path class="st0" d="M137.6,56c1.2-2.1,2.3-4.2,3.3-6.4c1.1-2.5,2.2-5,3.1-7.6c-0.9,2.6-1.9,5.1-3.1,7.6
		C139.9,51.8,138.8,53.9,137.6,56z"/>
	<path class="st0" d="M177.3,1.8c-0.3-0.1-0.7-0.1-1-0.1c0,0,0,0,0,0c0,0,0,0,0,0C176.6,1.7,176.9,1.7,177.3,1.8z"/>
	<path class="st0" d="M121.7,77.6c1.8-1.7,3.5-3.4,5.1-5.2C125.1,74.1,123.4,75.9,121.7,77.6z"/>
	<path class="st0" d="M49.3,68c-2.6-1.6-5.3-3.1-8.1-4.5c0,0,0,0,0,0c0,0,0,0,0,0C44.1,64.9,46.7,66.4,49.3,68z"/>
	<path class="st0" d="M40.3,65.1c-0.1-0.8-0.2-1.5-0.4-2.2c0,0-0.1,0-0.1,0c0,0,0.1,0,0.1,0C40.1,63.6,40.2,64.4,40.3,65.1z"/>
	<path class="st0" d="M20.2,127.8c2.9-2.9,5.5-6.2,7.5-9.1c0.8-1.1,1.6-2.2,2.3-3.4c-0.7,1.1-1.5,2.3-2.3,3.4
		C25.6,121.6,23.1,124.9,20.2,127.8z"/>
	<path class="st0" d="M155.9,8.9c3.4-1.5,6.9-2.8,10.3-4.1C162.7,6.1,159.3,7.5,155.9,8.9z"/>
	<path class="st0" d="M38.9,185.9c0,4.3,0.5,8.5,1.6,12.4c5.5,21.4,25,37.2,48.1,37.2c24.6,0,45-17.9,49-41.4
		c0.5-2.7,0.7-5.5,0.7-8.3c0-23.2-15.8-42.6-37.3-48.1c-4-1-8.1-1.6-12.4-1.6c-3.1,0-6.2,0.3-9.2,0.9
		C56.3,141.4,38.9,161.6,38.9,185.9z"/>
	<path class="st0" d="M71.3,85.9L71.3,85.9c0-1.1,0.1-2.2,0.1-3.3C71.3,83.7,71.3,84.8,71.3,85.9z"/>
	<path class="st1" d="M110.3,86.8c2-1.4,4-2.9,5.9-4.4c1.9-1.5,3.7-3.2,5.5-4.8s3.5-3.4,5.1-5.2c1.6-1.8,3.2-3.7,4.7-5.6
		c3-3.9,5.6-8,7.9-12.3c2.3-4.3,4.2-8.8,5.8-13.5c0.6-1.9,2-5.4,2.5-8.6c0.1-0.6,0.2-1.2,0.2-1.8c0-0.3,0-0.6,0-0.8
		c0-0.5-0.1-1-0.3-1.5c-0.1-0.2-0.2-0.4-0.3-0.6c-1.4-2.2-5.2-0.5-7.6,0.8c-0.5,0.3-1,0.6-1.4,0.7c-2.9,1.6-5.7,3.6-8.3,5.9
		c-0.5,0.5-1,0.9-1.6,1.4c-1.5,1.4-3,2.9-4.4,4.5c-0.9,1-1.9,2.1-2.7,3.2c-0.5,0.7-1.1,1.4-1.6,2c-1.6,2.1-3.1,4.2-4.4,6.3
		c-0.9,1.3-1.7,2.7-2.4,4.1c-1,1.9-1.9,3.8-2.8,5.8c-0.2,0.4-0.3,0.8-0.5,1.3c-1.6,4.1-2.8,8.4-3.4,12.7c0,0.2-0.1,0.5-0.1,0.7
		c-0.3,2.2-0.5,4.5-0.5,6.7c0,0,0,0.1,0,0.1c0,0.3,0,0.7,0,1c0.1,0.1,0.3,0.2,0.4,0.3c0-1.4,0.1-2.8,0.2-4.2
		c0.1-1.7,0.4-3.4,0.6-5.1c0.4-2.5,1-5,1.8-7.5c0.7-2.4,1.7-4.8,2.7-7.2c0.7-1.6,1.5-3.1,2.3-4.6s1.7-3,2.7-4.5
		c0.5-0.7,1-1.4,1.5-2.2c0.4-0.6,0.9-1.3,1.4-1.9c1.9-2.5,3.9-4.8,6-7.1c0.5-0.6,1.1-1.1,1.6-1.7c0.8-0.8,1.7-1.6,2.6-2.4
		c0.3-0.3,0.5-0.5,0.8-0.8c0.6-0.5,1.2-1,1.8-1.5c0.6-0.5,1.2-1,1.8-1.5c0.8-0.6,1.7-1.3,2.5-1.8c0.4-0.3,0.9-0.6,1.3-0.9
		c1.7-1,3.9-2.4,5.8-2.7c0.2,0,0.5-0.1,0.7-0.1c0.7,0,1.3,0.1,1.7,0.5c0.6,0.5,1.1,1.5,1.2,3.1c0.1,2.1-0.5,4.6-1.3,6.9
		c-0.5,1.4-1,2.7-1.4,3.9c-0.9,2.6-1.9,5.1-3.1,7.6c-1,2.2-2.1,4.3-3.3,6.4c-0.5,0.9-1.1,1.9-1.7,2.8c-0.6,1-1.3,2-1.9,3
		s-1.3,2-2,2.9c-2.1,2.9-4.4,5.6-6.8,8.2c-0.8,0.9-1.6,1.7-2.5,2.5c-1.1,1.1-2.3,2.2-3.4,3.2c-1.4,1.3-2.9,2.5-4.3,3.7
		c-0.7,0.6-1.5,1.2-2.3,1.7c-0.8,0.6-1.5,1.1-2.3,1.7c-0.2,0.2-0.5,0.3-0.7,0.5c-0.4,0.3-0.9,0.6-1.4,0.9c0.2,0.2,0.4,0.3,0.6,0.5
		c0.2-0.1,0.3-0.2,0.5-0.3C109.8,87.1,110,87,110.3,86.8z"/>
	<path class="st1" d="M179.6,0.7c-2.1-1.5-5.2-0.3-7.2,0.4c-0.5,0.1-0.9,0.3-1.3,0.5c-4.4,1.5-8.7,3.2-13,5
		c-16.7,7.1-32.7,17.1-43.6,31.9c-8.8,11.9-15.7,29.4-11.9,44.4c0.1,0.1,0.2,0.1,0.3,0.2c0.2,0.1,0.4,0.2,0.5,0.4
		c-0.8-3.4-1.2-6.9-1.1-10.4c0-0.5,0-1,0.1-1.5c0.1-1.4,0.2-2.9,0.5-4.3c0.2-1.1,0.4-2.1,0.6-3.2c0.7-3,1.6-6,2.7-8.9
		c0.1-0.4,0.3-0.7,0.4-1.1c0.9-2.3,2-4.5,3.2-6.6c0.3-0.5,0.5-0.9,0.8-1.4c0.3-0.6,0.7-1.2,1-1.7c0.2-0.3,0.4-0.6,0.6-0.9
		c0.7-1.2,1.5-2.3,2.3-3.4c0.3-0.4,0.6-0.8,0.9-1.2c2.3-3,4.8-5.8,7.5-8.5c1.1-1.1,2.2-2.1,3.4-3.1c1-0.9,2-1.7,3-2.5
		c0.3-0.3,0.6-0.5,0.9-0.7c0.9-0.7,1.9-1.5,2.9-2.2c1.3-0.9,2.6-1.8,3.9-2.7c3.3-2.2,6.8-4.2,10.4-6.1c0.3-0.2,0.6-0.3,0.9-0.4
		c1.5-0.7,3-1.5,4.5-2.2c1.1-0.5,2.3-1,3.4-1.5c3.4-1.5,6.9-2.8,10.3-4.1c0.9-0.3,1.9-0.7,2.8-1c0.7-0.3,1.5-0.6,2.4-0.9
		c0.4-0.2,0.8-0.3,1.2-0.5s0.8-0.3,1.2-0.4c0.4-0.1,0.9-0.2,1.3-0.3c0.4-0.1,0.7-0.1,1.1-0.1c0,0,0,0,0,0c0.4,0,0.7,0,1,0.1
		s0.6,0.2,0.8,0.3c0.8,0.5,1.2,1.2,1.4,2.1c0.1,0.4,0.1,0.7,0.1,1.1c0,1.2-0.2,2.4-0.4,3.4c-0.2,1.1-0.5,2.3-0.7,3.4
		c-0.2,1-0.5,2-0.8,3c-0.3,0.9-0.5,1.7-0.8,2.6c-0.5,1.5-1,2.9-1.6,4.4c-2.6,6.6-5.6,13.2-9.1,19.6c-0.9,1.6-1.8,3.2-2.7,4.8
		c-0.8,1.3-1.6,2.6-2.4,3.9c-1.1,1.8-2.3,3.5-3.4,5.2c-1.8,2.6-3.6,5.1-5.6,7.5c-1.1,1.4-2.4,2.9-3.7,4.3c-1.5,1.6-3,3.3-4.6,4.9
		c-0.4,0.4-0.7,0.7-1.1,1.1c-0.5,0.5-1.1,1.1-1.7,1.6c-0.8,0.7-1.5,1.4-2.3,2c-0.4,0.3-0.8,0.7-1.2,1c-0.8,0.7-1.6,1.3-2.4,1.9
		c-0.6,0.4-1.2,0.9-1.8,1.3c-0.7,0.5-1.3,0.9-2,1.4c-0.4,0.3-0.9,0.6-1.3,0.8c-1.3,0.8-2.6,1.6-4,2.3c-0.4,0.2-0.9,0.5-1.4,0.7
		c-3.6,1.7-7.4,2.9-11.2,3.5c-0.5,0.1-1,0.1-1.5,0.2c0.3,0.3,0.7,0.6,1,1c0.5-0.1,1-0.1,1.5-0.2c13.6-2.2,26-13,34.7-22.7
		c12-13.5,21.2-30.2,27.6-47.1c1.6-4.2,2.9-8.5,3.7-13C180.9,5.8,181.9,2.4,179.6,0.7z"/>
	<path class="st1" d="M54.4,86.1c-0.9-0.3-1.8-0.6-2.8-0.9c-3-0.9-6.2-2.1-8.3-4.2c-0.2-0.3-0.5-0.5-0.7-0.8c0-0.9,0.1-1.7,0.1-2.6
		c0,0,0,0,0-0.1c0-0.9,0-1.8,0-2.7c-0.1-3.8-0.5-7.6-1.3-11.4c0,0,0,0,0,0c2.8,1.3,5.5,2.8,8.1,4.5c0.9,0.5,1.7,1.1,2.5,1.7
		c0.7,0.5,1.3,0.9,2,1.4c1.3,1,2.6,2,3.8,3c0.6,0.5,1.2,1.1,1.8,1.6c1.2,1.1,2.4,2.2,3.5,3.4c2.4,2.5,4.7,5.2,6.8,8.1
		c0.2-0.1,0.3-0.3,0.5-0.4c-7.4-10.3-17.4-18.6-29.1-23.6c-0.1-0.6-0.3-1.2-0.4-1.8c-0.3-1.2-0.6-2.4-1-3.6
		c-0.2-0.6-0.4-1.2-0.6-1.8c-0.1-0.2-0.2-0.3-0.4-0.3c-0.1,0-0.1,0-0.2,0c-0.2,0-0.3,0.2-0.4,0.3c0,0.1,0,0.1,0,0.2
		c0.6,2.1,1.1,4.3,1.6,6.4c-0.1,0-0.2,0.2-0.1,0.3c0,0,0.1,0,0.1,0c0.1,0.7,0.3,1.5,0.4,2.2c0.1,0.8,0.2,1.5,0.3,2.3
		c0.2,1.5,0.3,3,0.4,4.5c0.1,1,0.1,2,0.1,3c0,1,0,2.1,0,3.1s-0.1,2.1-0.1,3.1c-0.3,4.1-0.9,8.3-1.8,12.3c-0.5,2-1,4-1.7,6
		c-0.3,0.9-0.6,1.7-0.9,2.6c-0.6,1.7-1.3,3.4-2.1,5c-0.8,1.6-1.6,3.3-2.5,4.8c-0.7,1.2-1.4,2.4-2.1,3.5c-0.7,1.1-1.5,2.3-2.3,3.4
		c-2.1,2.9-4.6,6.2-7.5,9.1c-0.7,0.7-1.5,1.4-2.2,2.1c-2.3,2-4.8,3.6-7.4,4.5c-3.4,1.2-5.5,0.4-6.9-1.2c-0.1-0.1-0.2-0.2-0.3-0.4
		c-0.4-0.6-0.8-1.4-1.1-2.2c-0.1-0.3-0.2-0.7-0.3-1c-0.2-0.7-0.3-1.4-0.4-2.1c0-0.2,0-0.4-0.1-0.6c-0.1-0.7-0.1-1.5-0.1-2.2
		c0-0.2,0-0.4,0-0.5c0,0,0,0,0-0.1c0-2.3,0.1-4.6,0.2-7c0.1-2.3,0.2-4.7,0.4-7c0.1-1.2,0.2-2.4,0.3-3.6c0.3-2.4,0.6-4.7,1-7.1
		c0.2-1.2,0.4-2.4,0.6-3.5c0.5-2.3,1-4.7,1.6-7c0.6-2.3,1.3-4.6,2.1-6.9c0.7-1.9,1.4-3.8,2.2-5.6c2.4-5.5,5.4-10.8,9-15.5
		c1.5-2,3.2-4,5.1-6c0.3-0.3,0.7-0.7,1-1c0.6-0.6,1.2-1.1,1.8-1.7c0.1-0.1,0.2-0.2,0.3-0.2c0.6-0.5,1.1-0.9,1.7-1.4
		c0.8-0.6,1.6-1.2,2.5-1.7c1.1-0.7,2.3-1.4,3.5-1.9c1.4-0.6,2.8-1.1,4.3-1.4c0.3-0.1,0.6-0.1,0.9-0.2c0.6-0.1,1.2-0.1,1.9-0.1
		c0.6,0,1.3,0,1.9,0.1c1.3,0.1,2.5,0.4,3.8,0.8c0.6,0.2,1.2,0.4,1.9,0.7c5.8,2.3,11.3,7,15,11.4c0.4,0.5,0.8,0.9,1.1,1.4
		c3.1,4,4.5,8.7,5.2,13.6c0.2,1.8,0.4,3.7,0.4,5.5c0,1.2,0.1,2.5,0,3.7c0,1.1,0,2.2-0.1,3.3c0.4-0.3,0.7-0.5,1.1-0.8
		c0.4-8.2,0.3-17-4.1-24c-4.3-6.8-12.9-13.5-20.6-15.9c-4.6-1.4-9.1-0.9-13.2,0.9C23.2,50.9,14,65,9.6,74.4
		c-4.3,9.3-6.8,19.3-8.1,29.4c-0.7,5.7-1.1,11.4-1.3,17.1c-0.1,3.9-0.9,9.4,1.7,12.8c4.4,5.8,12.2,0.5,16.2-2.9
		c6.6-5.7,12.1-12.7,16.1-20.4c2.5-4.8,4.5-9.8,5.9-14.9c1.3-4.7,2.1-9.5,2.4-14.3c0.2,0.3,0.5,0.6,0.7,0.9c2,2.1,5.2,3.3,8,4.3
		c5.2,2,10.5,3.5,15.9,3.3c0.3-0.3,0.6-0.6,1-0.9C63.4,88.7,58.8,87.6,54.4,86.1z"/>
	<path class="st2" d="M105.4,83.8C105.4,83.8,105.4,83.8,105.4,83.8c0-2.3,0.2-4.6,0.5-6.8c0-0.2,0.1-0.5,0.1-0.7
		c0.7-4.4,1.8-8.6,3.4-12.7c0.2-0.4,0.3-0.8,0.5-1.3c0.8-2,1.7-3.9,2.8-5.8c0.8-1.4,1.6-2.8,2.4-4.1c1.3-2.1,2.8-4.2,4.4-6.3
		c0.5-0.7,1.1-1.4,1.6-2c0.9-1.1,1.8-2.1,2.7-3.2c1.4-1.6,2.9-3.1,4.4-4.5c0.5-0.5,1-0.9,1.6-1.4c2.6-2.3,5.4-4.3,8.3-5.9
		c0.3-0.2,0.8-0.5,1.4-0.7c2.4-1.3,6.2-3,7.6-0.8c0.1,0.2,0.2,0.4,0.3,0.6c0.2,0.4,0.3,0.9,0.3,1.5c0,0.3,0,0.6,0,0.8
		c0,0.6-0.1,1.2-0.2,1.8c-0.5,3.2-1.9,6.7-2.5,8.6c-1.5,4.7-3.5,9.2-5.8,13.5c-2.3,4.3-4.9,8.4-7.9,12.3c-1.5,1.9-3,3.8-4.7,5.6
		c-1.6,1.8-3.3,3.6-5.1,5.2s-3.6,3.3-5.5,4.8c-1.9,1.5-3.9,3-5.9,4.4c-0.3,0.2-0.5,0.3-0.8,0.5c-0.2,0.1-0.3,0.2-0.5,0.3
		c0.4,0.4,0.9,0.7,1.3,1.1c0.5,0.4,1,0.9,1.5,1.4c0.5,0,1-0.1,1.5-0.2c3.9-0.5,7.6-1.8,11.2-3.5c0.5-0.2,0.9-0.4,1.4-0.7
		c1.3-0.7,2.7-1.4,4-2.3c0.4-0.3,0.9-0.5,1.3-0.8c0.7-0.4,1.3-0.9,2-1.4c0.6-0.4,1.2-0.9,1.8-1.3c0.8-0.6,1.6-1.3,2.4-1.9
		c0.4-0.3,0.8-0.7,1.2-1c0.8-0.7,1.6-1.4,2.3-2c0.6-0.5,1.1-1,1.7-1.6c0.4-0.4,0.7-0.7,1.1-1.1c1.6-1.6,3.2-3.3,4.6-4.9
		c1.3-1.5,2.5-2.9,3.7-4.3c1.9-2.4,3.8-4.9,5.6-7.5c1.2-1.7,2.3-3.4,3.4-5.2c0.8-1.3,1.6-2.6,2.4-3.9c0.9-1.6,1.9-3.2,2.7-4.8
		c3.5-6.4,6.5-12.9,9.1-19.6c0.6-1.4,1.1-2.9,1.6-4.4c0.3-0.9,0.6-1.7,0.8-2.6c0.3-1,0.6-2,0.8-3c0.3-1.1,0.5-2.3,0.7-3.4
		c0.2-1,0.4-2.2,0.4-3.4c0-0.4,0-0.8-0.1-1.1c-0.2-0.9-0.6-1.7-1.4-2.1c-0.2-0.1-0.5-0.2-0.8-0.3s-0.7-0.1-1-0.1c0,0,0,0,0,0
		c-0.4,0-0.7,0-1.1,0.1c-0.4,0.1-0.9,0.2-1.3,0.3c-0.4,0.1-0.8,0.3-1.2,0.4s-0.8,0.3-1.2,0.5c-0.8,0.3-1.6,0.7-2.4,0.9
		c-0.9,0.3-1.9,0.7-2.8,1c-3.5,1.3-6.9,2.6-10.3,4.1c-1.1,0.5-2.3,1-3.4,1.5c-1.5,0.7-3,1.4-4.5,2.2c-0.3,0.1-0.6,0.3-0.9,0.4
		c-3.6,1.8-7,3.9-10.4,6.1c-1.3,0.9-2.6,1.8-3.9,2.7c-1,0.7-1.9,1.4-2.9,2.2c-0.3,0.2-0.6,0.5-0.9,0.7c-1,0.8-2,1.7-3,2.5
		c-1.1,1-2.3,2-3.4,3.1c-2.7,2.6-5.2,5.5-7.5,8.5c-0.3,0.4-0.6,0.8-0.9,1.2c-0.8,1.1-1.6,2.2-2.3,3.4c-0.2,0.3-0.4,0.6-0.6,0.9
		c-0.4,0.6-0.7,1.2-1,1.7c-0.3,0.5-0.5,0.9-0.8,1.4c-1.2,2.1-2.2,4.3-3.2,6.6c-0.1,0.4-0.3,0.7-0.4,1.1c-1.1,2.9-2.1,5.9-2.7,8.9
		c-0.2,1.1-0.4,2.1-0.6,3.2c-0.2,1.4-0.4,2.9-0.5,4.3c0,0.5,0,1-0.1,1.5c-0.1,3.5,0.2,7,1.1,10.4c0.7,0.4,1.4,0.9,2,1.4
		C105.4,84.5,105.4,84.2,105.4,83.8z"/>
	<path class="st3" d="M110.5,85.8c0.8-0.5,1.5-1.1,2.3-1.7c0.8-0.6,1.5-1.1,2.3-1.7c1.5-1.2,2.9-2.4,4.3-3.7
		c1.2-1.1,2.3-2.1,3.4-3.2c0.8-0.8,1.7-1.7,2.5-2.5c2.4-2.6,4.7-5.3,6.8-8.2c0.7-1,1.4-1.9,2-2.9s1.3-2,1.9-3
		c0.6-0.9,1.1-1.9,1.7-2.8c1.2-2.1,2.3-4.2,3.3-6.4c1.1-2.5,2.2-5,3.1-7.6c0.4-1.2,0.9-2.5,1.4-3.9c0.8-2.3,1.4-4.8,1.3-6.9
		c-0.1-1.6-0.5-2.5-1.2-3.1c-0.5-0.4-1.1-0.6-1.7-0.5c-0.2,0-0.4,0-0.7,0.1c-1.9,0.3-4.1,1.7-5.8,2.7c-0.4,0.3-0.9,0.6-1.3,0.9
		c-0.9,0.6-1.7,1.2-2.5,1.8c-0.6,0.5-1.2,1-1.8,1.5c-0.6,0.5-1.2,1-1.8,1.5c-0.3,0.2-0.5,0.5-0.8,0.8c-0.9,0.8-1.7,1.6-2.6,2.4
		c-0.6,0.5-1.1,1.1-1.6,1.7c-2.2,2.2-4.2,4.6-6,7.1c-0.5,0.6-0.9,1.2-1.4,1.9c-0.5,0.7-1,1.4-1.5,2.2c-0.9,1.5-1.8,2.9-2.7,4.5
		s-1.6,3.1-2.3,4.6c-1,2.3-2,4.7-2.7,7.2c-0.7,2.4-1.3,4.9-1.8,7.5c-0.3,1.7-0.5,3.4-0.6,5.1c-0.1,1.4-0.2,2.8-0.2,4.2
		c0.5,0.3,0.9,0.7,1.3,1c0.4,0.3,0.9,0.7,1.3,1c0.5-0.3,0.9-0.6,1.4-0.9C110,86.1,110.3,85.9,110.5,85.8z"/>
	<path class="st3" d="M59.5,75.7c-0.6-0.5-1.2-1.1-1.8-1.6c-1.2-1-2.5-2-3.8-3c-0.7-0.5-1.3-0.9-2-1.4c-0.8-0.6-1.7-1.1-2.5-1.7
		c-2.6-1.6-5.3-3.1-8.1-4.5c0,0,0,0,0,0c0.8,3.8,1.2,7.6,1.3,11.4c0,0.9,0,1.8,0,2.7c0,0,0,0,0,0.1c0,0.9,0,1.7-0.1,2.6
		c0.2,0.3,0.5,0.5,0.7,0.8c2.1,2.2,5.3,3.3,8.3,4.2c1,0.3,2,0.6,2.8,0.9c4.5,1.4,9,2.5,13.7,2.5c0.3-0.3,0.6-0.5,0.9-0.8
		c0.3-0.2,0.5-0.5,0.8-0.7c-2.1-2.9-4.3-5.6-6.8-8.1C61.8,77.9,60.7,76.8,59.5,75.7z"/>
	<path class="st2" d="M71.3,78.8c-0.1-1.9-0.2-3.7-0.4-5.5c-0.7-4.9-2.1-9.6-5.2-13.6c-0.4-0.5-0.7-0.9-1.1-1.4
		c-3.8-4.5-9.2-9.1-15-11.4c-0.6-0.2-1.2-0.5-1.9-0.7c-1.2-0.4-2.5-0.6-3.8-0.8c-0.6-0.1-1.3-0.1-1.9-0.1c-0.6,0-1.3,0-1.9,0.1
		c-0.3,0-0.6,0.1-0.9,0.2c-1.5,0.3-2.9,0.8-4.3,1.4c1.4,2.8,2.6,5.7,3.7,8.6c0.1,0,0.1,0,0.2,0c0.2,0,0.3,0.1,0.4,0.3
		c0.2,0.6,0.4,1.2,0.6,1.8c0.4,1.2,0.7,2.4,1,3.6c0.1,0.6,0.3,1.2,0.4,1.8c11.7,5,21.7,13.4,29.1,23.6c0.3-0.3,0.7-0.5,1-0.8
		c0-1.1,0.1-2.2,0.1-3.3C71.4,81.3,71.3,80.1,71.3,78.8z"/>
	<path class="st4" d="M31.4,48.9c-0.8,0.5-1.7,1.1-2.5,1.7c-0.6,0.4-1.2,0.9-1.7,1.4c-0.1,0.1-0.2,0.2-0.3,0.2
		c-0.6,0.5-1.2,1.1-1.8,1.7c-0.3,0.3-0.7,0.7-1,1c-1.9,1.9-3.6,4-5.1,6c-3.7,4.8-6.7,10-9,15.5c-0.8,1.8-1.5,3.7-2.2,5.6
		c-0.8,2.3-1.5,4.5-2.1,6.9c-0.6,2.3-1.1,4.6-1.6,7c-0.2,1.2-0.4,2.3-0.6,3.5c-0.4,2.4-0.7,4.7-1,7.1c-0.1,1.2-0.2,2.4-0.3,3.6
		c-0.2,2.3-0.3,4.7-0.4,7c-0.1,2.3-0.2,4.6-0.2,7c0,0,0,0,0,0.1c0,0.2,0,0.4,0,0.5c0,0.7,0,1.5,0.1,2.2c0,0.2,0,0.4,0.1,0.6
		c0.1,0.7,0.2,1.5,0.4,2.1c0.1,0.3,0.2,0.7,0.3,1c0.3,0.8,0.6,1.6,1.1,2.2c0.1,0.1,0.2,0.2,0.3,0.4c1.4,1.6,3.5,2.4,6.9,1.2
		c2.6-0.9,5.1-2.5,7.4-4.5c0.8-0.7,1.5-1.3,2.2-2.1c2.9-2.9,5.5-6.2,7.5-9.1c0.8-1.1,1.6-2.2,2.3-3.4c0.7-1.1,1.4-2.3,2.1-3.5
		c0.9-1.6,1.7-3.2,2.5-4.8c0.8-1.6,1.5-3.3,2.1-5c0.3-0.8,0.6-1.7,0.9-2.6c0.7-2,1.2-4,1.7-6c1-4,1.6-8.2,1.8-12.3
		c0.1-1,0.1-2.1,0.1-3.1s0-2.1,0-3.1c0-1-0.1-2-0.1-3c-0.1-1.5-0.2-3-0.4-4.5c-0.1-0.8-0.2-1.5-0.3-2.3c-0.1-0.8-0.2-1.5-0.4-2.2
		c0,0-0.1,0-0.1,0c-0.1-0.1-0.1-0.2,0.1-0.3c-0.4-2.2-0.9-4.3-1.6-6.4c0-0.1,0-0.1,0-0.2c0-0.2,0.2-0.3,0.4-0.3
		c-1.1-2.9-2.4-5.8-3.7-8.6C33.7,47.6,32.5,48.2,31.4,48.9z"/>
	<path class="st5" d="M110.3,88.7c-0.4-0.4-0.9-0.7-1.3-1.1c-0.2-0.2-0.4-0.3-0.6-0.5c-0.4-0.3-0.9-0.7-1.3-1
		c-0.4-0.3-0.9-0.7-1.3-1c-0.1-0.1-0.3-0.2-0.4-0.3h0c-0.7-0.5-1.3-0.9-2-1.4c-0.2-0.1-0.4-0.2-0.5-0.4c-0.1-0.1-0.2-0.1-0.3-0.2
		c-7.2-4.5-12.3-7.2-20.4-3.6c-3.5,1.5-6.7,3.5-9.7,5.8c-0.4,0.3-0.7,0.5-1.1,0.8h0c-0.3,0.3-0.7,0.5-1,0.8
		c-0.2,0.1-0.4,0.3-0.5,0.4c-0.3,0.2-0.5,0.5-0.8,0.7c-0.3,0.3-0.6,0.5-0.9,0.8c-0.3,0.3-0.6,0.6-1,0.9c-2.3,2.2-4.4,4.5-6.4,6.9
		c-2.5,3.1-4.7,6.4-6.7,9.8c9.3,4.9,19.6,8.2,29.9,9.5c14.1,1.7,30.7,0.4,42.2-8.6c-3.8-5.9-8.2-11.4-13.2-16.2
		c-0.3-0.3-0.7-0.6-1-1C111.4,89.6,110.8,89.2,110.3,88.7z"/>
	<path class="st6" d="M85.3,118.6c-11.7-1.3-22.5-5-32.3-10.8c-2.7,4.7-5,9.6-7.2,14.6c27.6,15.2,63.7,20.8,87.4-2.5
		c-1.7-3.5-3.6-6.9-5.6-10.3C116,118.6,99.5,120.2,85.3,118.6z"/>
	<path class="st7" d="M138.3,185.9c0,2.8-0.2,5.6-0.7,8.3c4.6-2.6,8.9-5.8,12.6-9.7c-1.2-21.5-6.5-42.7-15.7-62.2
		c-8.8,8.8-21,13.9-33.4,15.5C122.4,143.3,138.3,162.8,138.3,185.9z"/>
	<path class="st7" d="M38.9,185.9c0-24.3,17.4-44.5,40.5-48.8c-12.1-2.2-23.3-7.4-33.9-13.7c-0.8,1.8-1.6,3.7-2.3,5.6
		c-7.8,19.4-14,39.8-16.2,60.5c4,3.6,8.6,6.5,13.5,8.9C39.4,194.4,38.9,190.2,38.9,185.9z"/>
	<path class="st8" d="M76.1,244.5c-17.5-1.8-34.3-7.9-48-18.5c1.1,5.3,2.8,10.5,5.4,15.3c9.7,17.7,30.5,26.7,50.6,28.4
		c20.4,1.8,43.2-4.1,54.7-21.1c4.6-6.8,7-14.7,8.6-22.8C128.5,242.4,100.5,247,76.1,244.5z"/>
	<path class="st7" d="M83.9,115.8c-10.3-1.3-20.6-4.6-29.9-9.5c-0.3,0.5-0.6,1-0.9,1.5c9.8,5.8,20.6,9.5,32.3,10.8
		c14.2,1.6,30.7,0,42.3-9c-0.5-0.8-1-1.6-1.5-2.4C114.5,116.2,98,117.5,83.9,115.8z"/>
	<path class="st5" d="M45.9,122.4c-0.1,0.3-0.3,0.7-0.4,1c10.6,6.3,21.9,11.5,33.9,13.7c3-0.6,6-0.9,9.2-0.9c4.3,0,8.5,0.5,12.4,1.6
		c12.4-1.6,24.6-6.7,33.4-15.5c-0.2-0.5-0.4-1-0.7-1.4c-0.2-0.3-0.4-0.7-0.5-1C109.6,143.3,73.5,137.6,45.9,122.4z"/>
	<path class="st6" d="M88.6,235.6c-23.1,0-42.6-15.8-48.1-37.2c-4.9-2.4-9.4-5.3-13.5-8.9c-0.1,0.5-0.1,1-0.1,1.5
		c-0.7,7.9-0.9,15.9-0.3,23.9c0.2,2.9,0.6,5.9,1.1,8.8c0.1,0.8,0.3,1.6,0.4,2.3c13.7,10.6,30.5,16.7,48,18.5
		c24.3,2.5,52.3-2.1,71.3-18.6c0.2-0.9,0.4-1.9,0.5-2.8c0-0.1,0-0.2,0-0.3c2.1-11.7,2.8-23.7,2.3-35.6c0-0.9-0.1-1.8-0.1-2.7
		c-3.7,3.9-8,7-12.6,9.7C133.6,217.7,113.2,235.6,88.6,235.6z"/>
</g>
</svg>
