<?xml version="1.0" encoding="utf-8"?>
<!-- Generator: Adobe Illustrator 23.0.4, SVG Export Plug-In . SVG Version: 6.00 Build 0)  -->
<svg version="1.1" id="Easter1" xmlns="http://www.w3.org/2000/svg" xmlns:xlink="http://www.w3.org/1999/xlink" x="0px" y="0px"
	 viewBox="0 0 130.9 256.4" style="enable-background:new 0 0 130.9 256.4;" xml:space="preserve">
<style type="text/css">
	#Easter1 .st0{fill:none;}
	#Easter1 .st1{fill:#D17FD3;}
	#Easter1 .st2{fill:#EDC3BE;}
	#Easter1 .st3{fill:#DDD9C0;}
	#Easter1 .st4{fill:#BADCC4;}
	#Easter1 .st5{fill:#7FCADB;}
	#Easter1 .st6{fill:#E2C374;}
	#Easter1 .st7{fill:#C9CB83;}
	#Easter1 .st8{fill:#DB7A3B;}
</style>
<g>
	<path class="st0" d="M129,201.9C129,201.9,129,201.8,129,201.9C129,201.8,129,201.9,129,201.9C129,201.9,129,201.9,129,201.9z"/>
	<path class="st0" d="M79,86.5L79,86.5c0-0.1,0-0.2,0.1-0.3C79,86.3,79,86.4,79,86.5z"/>
	<path class="st0" d="M28.9,114.9c0.1,0,0.2,0,0.3,0c-0.1,0-0.1,0-0.2,0C29,114.9,28.9,114.9,28.9,114.9z"/>
	<path class="st0" d="M116.4,203.6c-0.1,0.1-0.3,0.1-0.4,0.2c0.3-0.1,0.6-0.3,0.9-0.4C116.7,203.4,116.5,203.5,116.4,203.6z"/>
	<path class="st0" d="M24.8,115.7c0,0-0.1,0-0.1,0C24.7,115.7,24.8,115.7,24.8,115.7c0.3-0.1,0.6-0.2,0.9-0.2
		c-0.2,0.1-0.5,0.1-0.7,0.2C25,115.6,24.9,115.7,24.8,115.7z"/>
	<path class="st1" d="M17.8,44c1,4.3,2.3,8.6,4,12.6c1.6,3.8,3.8,7.4,5.6,11.2c1.4,2.9,2.6,5.8,4.2,8.5c1.4,2.5,2.9,4.8,4.4,7.3
		c1.7,2.8,3.2,5.7,4.9,8.6c0.1,0.1,0.1,0.2,0.2,0.3c0.4-0.3,0.8-0.6,1.3-0.9c0.3-0.2,0.6-0.4,0.9-0.6c0.1-0.1,0.2-0.1,0.3-0.2
		c0.2-0.1,0.4-0.3,0.7-0.4c0.2-0.1,0.4-0.2,0.5-0.4c0,0,0,0,0.1,0c0.1,0,0.1-0.1,0.2-0.1c0.1,0,0.1-0.1,0.2-0.1c0,0,0,0,0,0
		c0,0,0.1,0,0.1-0.1c0,0,0.1-0.1,0.1-0.1c0,0,0,0,0,0c0,0,0,0,0,0c0,0,0.1,0,0.1-0.1c0,0,0,0,0,0c0,0,0,0,0,0c0.6-0.4,1.2-0.7,1.7-1
		c0.4-0.2,0.8-0.5,1.3-0.7c0.2-0.1,0.3-0.1,0.4-0.2c0,0,0,0,0,0c0,0,0,0,0,0c0.1,0,0.1,0,0.2-0.1c0,0,0,0,0,0
		c0.9-0.4,1.9-0.8,2.8-1.1c0.1,0,0.2,0,0.2-0.1c0,0,0,0,0,0c0,0,0,0,0,0c0,0,0.1,0,0.1,0c0.1,0,0.1,0,0.2,0c0,0,0,0,0,0
		c0,0,0.1,0,0.1,0c0,0,0,0,0,0c-0.1-3-0.1-6-0.2-9.1c-0.2-8.9-0.7-17.9-1.5-26.8c-0.5-5.3-1.2-10.5-2.1-15.7c0,0,0,0,0,0.1
		c-0.1-1.6-0.5-3.2-0.9-4.8c-0.3-1.4-0.6-2.7-0.9-4c-0.9-3.7-2-7.4-3.6-10.9c0,0,0,0.1,0,0.1c-1.3-3.1-2.9-6.2-5.7-8.3
		c-2.6-2-6-2.4-9.2-2.1c-2.2,0.2-4.4,0.7-6.3,1.8c-1.7,1-3.2,2.4-4.2,4.1c-1.2,1.9-2.1,4.1-2.7,6.3c-0.7,2.6-0.9,5.2-0.9,7.9
		c0.1,3.4,0.4,6.8,1,10.1C16.2,38,17.1,41,17.8,44z"/>
	<path class="st1" d="M72.4,83.9C72.4,83.9,72.4,83.9,72.4,83.9C72.5,83.9,72.5,83.9,72.4,83.9L72.4,83.9
		C72.5,83.9,72.5,83.9,72.4,83.9c0.1,0.1,0.3,0.1,0.3,0.1c0.1,0.1,0.2,0.1,0.4,0.1c0.1,0,0.3,0.1,0.4,0.1c0.4,0.1,0.9,0.3,1.3,0.4
		c0,0,0,0,0.1,0c0.4,0.1,0.7,0.3,1.1,0.4c0,0,0,0,0,0c0.1,0,0.1,0,0.2,0.1c0,0,0,0,0,0c0.2,0.1,0.4,0.2,0.6,0.2c0,0,0,0,0,0
		c0.2,0.1,0.4,0.2,0.6,0.3c0.6,0.3,1.2,0.6,1.8,0.9c0-0.1,0-0.2,0.1-0.3c0,0.1-0.1,0.2-0.1,0.3c0,0,0,0,0,0c0,0,0,0,0,0c0,0,0,0,0,0
		c0,0,0,0,0,0c0,0,0,0,0,0c0,0,0,0,0,0c0,0,0,0,0,0h0c0,0,0,0,0,0c0,0,0,0,0,0c0,0,0,0,0,0c0,0,0,0,0,0.1c0,0,0,0,0,0
		c0.2,0.1,0.6,0.3,0.9,0.4c0.1,0,0.1,0,0.2,0.1s0.1,0,0.1,0c0.2,0.1,0.4,0.2,0.6,0.3c0.2,0.1,0.4,0.2,0.6,0.3
		c0.1,0.1,0.2,0.1,0.3,0.2c0,0,0,0,0,0c0,0,0,0,0,0c0.1,0.1,0.2,0.1,0.3,0.2c0,0,0,0,0.1,0c0.1,0.1,0.2,0.1,0.3,0.2
		c0.1,0,0.1,0.1,0.2,0.1c0.5-0.6,1-1.2,1.4-1.9c0.7-1.2,1.1-2.4,1.6-3.7c1.4-3.7,3.1-7.4,4.5-11.1c0.3-0.7,0.5-1.4,0.8-2.1
		c0,0,0,0,0,0c1.6-3.9,3.2-7.9,4.7-11.8c2-5.1,4-10.1,5.8-15.2c1.7-5,2.8-10,3.3-15.3c0.2-1.5,0.3-3,0.4-4.5
		c0.1-1.6-0.1-3.2-0.2-4.9c-0.3-3.1-0.7-6.4-1.8-9.2c-2-5.2-6.9-9.4-12.7-8.8c-3.4,0.3-6.7,1.9-8.9,4.5c-2.2,2.7-3.5,5.9-4.5,9.2
		c-1.5,4.8-2.6,9.8-3,14.8c-0.3,3.3-0.4,6.6-0.7,9.9c-0.3,3.5-0.5,6.9-0.6,10.4c0,2.6-0.1,5.2-0.1,7.8c0,2.5,0.1,5,0.1,7.5
		c0,4.2-0.3,8.4-0.2,12.6c0.1,2.3,0.1,4.6,0.1,6.9C72.4,83.7,72.4,83.8,72.4,83.9C72.4,83.9,72.4,83.9,72.4,83.9L72.4,83.9z"/>
	<polygon class="st2" points="79,86.5 79,86.5 79,86.5 79,86.5 79,86.5 	"/>
	<path class="st3" d="M52.5,86.2c-0.1,0-0.1,0-0.2,0c0,0-0.1,0-0.1,0c0,0,0,0,0,0c0,0,0,0,0,0C52.3,86.2,52.4,86.2,52.5,86.2
		C52.5,86.2,52.5,86.2,52.5,86.2z"/>
	<path class="st3" d="M44.7,90c-0.2,0.1-0.4,0.2-0.5,0.4C44.4,90.2,44.6,90.1,44.7,90C44.8,90,44.7,90,44.7,90z"/>
	<path class="st3" d="M45.6,89.5C45.6,89.5,45.6,89.5,45.6,89.5c0,0-0.1,0-0.1,0.1c0,0,0,0,0,0c0,0,0,0,0,0
		C45.5,89.5,45.5,89.5,45.6,89.5C45.6,89.5,45.6,89.5,45.6,89.5z"/>
	<path class="st3" d="M45.2,89.7c-0.1,0-0.1,0.1-0.2,0.1C45,89.8,45.1,89.8,45.2,89.7C45.2,89.7,45.2,89.7,45.2,89.7z"/>
	<path class="st4" d="M58,125c-0.1-0.1-0.3-0.1-0.4-0.2C57.7,124.9,57.8,124.9,58,125C58,125,58,125,58,125z"/>
	<path class="st4" d="M84.5,117.5C84.4,117.5,84.4,117.5,84.5,117.5c-0.5,0.5-1,1-1.5,1.5c0.8-0.8,1.6-1.7,2.5-2.5
		C85.1,116.8,84.8,117.2,84.5,117.5z"/>
	<polygon class="st4" points="49.4,120.4 49.4,120.4 49.4,120.4 	"/>
	<path class="st4" d="M49.4,120.4C49.4,120.4,49.3,120.4,49.4,120.4C49.3,120.4,49.4,120.4,49.4,120.4
		C49.4,120.4,49.4,120.4,49.4,120.4z"/>
	<path class="st4" d="M23.3,116.1c0,0,0.1,0,0.1,0c0.4-0.1,0.8-0.3,1.2-0.4c0,0,0.1,0,0.1,0c0.1,0,0.1,0,0.2-0.1
		c0.2-0.1,0.5-0.1,0.7-0.2c0,0,0,0,0,0c1-0.2,2.1-0.4,3.2-0.6c0,0,0,0,0,0c0,0,0.1,0,0.1,0c0.1,0,0.1,0,0.2,0c0,0,0,0,0,0
		c0,0,0.1,0,0.1,0c0,0,0,0,0,0c0.3,0,0.6-0.1,0.9-0.1c-0.8,0-1.5,0.1-2.3,0.3c-1.2,0.2-2.4,0.4-3.5,0.8c-0.6,0.2-1.3,0.4-1.9,0.6
		c0.2,0,0.3-0.1,0.5-0.1c0,0,0.1,0,0.1,0c0,0,0,0,0,0C23.2,116.2,23.2,116.1,23.3,116.1z"/>
	<path class="st4" d="M68.3,127c-0.1,0-0.1,0-0.2,0c0,0,0,0-0.1,0c0,0,0.1,0,0.1,0C68.2,127,68.3,127,68.3,127z"/>
	<path class="st4" d="M69.8,126.9c0.5,0,0.9-0.1,1.3-0.2c1.2-0.2,2.3-0.6,3.4-1.2c0.1-0.1,0.3-0.1,0.4-0.2c0.2-0.1,0.4-0.2,0.5-0.3
		c-1.3,0.7-2.8,1.3-4.3,1.6c-0.5,0.1-1,0.2-1.6,0.2c0,0,0,0,0,0C69.7,126.9,69.7,126.9,69.8,126.9z"/>
	<path class="st4" d="M69,127c0.1,0,0.1,0,0.2,0c-0.1,0-0.2,0-0.3,0C68.9,127,69,127,69,127z"/>
	<path class="st4" d="M21.4,116.8c0.2-0.4,0.4-1,0.7-1.3c-0.4,0.4-0.6,1.2-0.9,1.6c0,0,0,0,0,0c0-0.1,0.1-0.1,0.1-0.1
		c0.1-0.1,0.2-0.2,0.3-0.3C21.6,116.8,21.5,116.8,21.4,116.8z"/>
	<path class="st4" d="M109.6,154.4c-0.1,0-0.3,0-0.4,0.1c0,0,0.1,0,0.1,0C109.4,154.4,109.5,154.4,109.6,154.4z"/>
	<path class="st4" d="M110.3,154.3c0,0-0.1,0-0.1,0c0,0-0.1,0-0.1,0C110.2,154.3,110.3,154.3,110.3,154.3z"/>
	<path class="st4" d="M125.8,157.2C125.8,157.2,125.8,157.2,125.8,157.2c0,0,0-0.1,0-0.1C125.8,157,125.8,157.1,125.8,157.2
		C125.8,157.1,125.8,157.1,125.8,157.2z"/>
	<path class="st4" d="M18.8,162.1C18.8,162.1,18.8,162.1,18.8,162.1c-1.3,0.1-2.6,0.3-3.9,0.5c0,0,0,0,0,0
		C16.2,162.3,17.5,162.1,18.8,162.1z"/>
	<path class="st4" d="M97.7,216.8c0.1-0.1,0.3-0.2,0.4-0.3c-0.7,0.5-1.4,1-2.1,1.5c-0.6,0.4-1.2,0.8-1.7,1.3
		C95.4,218.4,96.6,217.6,97.7,216.8z"/>
	<path class="st4" d="M128.2,200.6c0,0-0.1,0-0.1,0c-0.1,0-0.1,0-0.2,0C128,200.6,128.1,200.6,128.2,200.6z"/>
	<path class="st4" d="M118.3,202.7c-0.1,0.1-0.3,0.1-0.4,0.2c-0.3,0.1-0.7,0.3-1,0.4c-0.3,0.1-0.6,0.3-0.9,0.4
		c-0.1,0.1-0.2,0.1-0.4,0.2c-1.5,0.8-2.9,1.6-4.3,2.6c2.4-1.7,5-3.1,7.8-4.1c-0.1,0-0.2,0.1-0.4,0.1
		C118.6,202.6,118.5,202.7,118.3,202.7z"/>
	<path class="st4" d="M72.5,226.3C72.5,226.3,72.5,226.3,72.5,226.3c0.1,0,0.1,0,0.1,0C72.6,226.3,72.5,226.3,72.5,226.3
		C72.5,226.3,72.5,226.3,72.5,226.3z"/>
	<path class="st4" d="M130.6,201.9C130.6,201.9,130.6,201.9,130.6,201.9C130.6,201.9,130.6,201.9,130.6,201.9
		C130.6,201.9,130.6,201.9,130.6,201.9C130.6,201.9,130.6,201.9,130.6,201.9z"/>
	<path class="st4" d="M23.8,203.8c-0.1,0-0.3,0-0.4,0C23.5,203.8,23.6,203.8,23.8,203.8C23.8,203.8,23.8,203.8,23.8,203.8z"/>
	<path class="st4" d="M83.9,226.1c0.1,0,0.1,0,0.2-0.1c0,0,0,0,0,0C84.1,226.1,84,226.1,83.9,226.1z"/>
	<path class="st4" d="M68.7,226.6c-0.2-0.1-0.3-0.1-0.5-0.2C68.3,226.4,68.5,226.5,68.7,226.6C68.7,226.6,68.7,226.6,68.7,226.6z"/>
	<path class="st4" d="M128.9,201.8C128.9,201.8,128.9,201.8,128.9,201.8C128.9,201.8,128.9,201.8,128.9,201.8c-0.1,0-0.2,0-0.3,0
		C128.8,201.9,128.9,201.9,128.9,201.8C129,201.9,129,201.8,128.9,201.8z"/>
	<polygon class="st4" points="128.9,201.8 128.9,201.8 128.9,201.8 	"/>
	<path class="st4" d="M67.2,225.9C67.1,225.9,67.1,225.9,67.2,225.9C67.1,225.9,67.1,225.9,67.2,225.9
		C67.1,225.9,67.1,225.9,67.2,225.9z"/>
	<polygon class="st5" points="91.5,109.5 91.5,109.5 91.5,109.5 	"/>
	<path class="st5" d="M52.3,86.3c-0.1,0-0.1,0.1-0.2,0.1c-1,0.3-1.9,0.7-2.8,1.1c0,0,0,0,0,0c-0.1,0-0.1,0-0.2,0.1c0,0,0,0,0,0
		c0,0,0,0,0,0c-0.1,0.1-0.3,0.1-0.4,0.2c-0.4,0.2-0.9,0.4-1.3,0.7c-0.6,0.3-1.2,0.7-1.7,1c0,0-0.1,0.1-0.1,0.1c0,0-0.1,0.1-0.1,0.1
		c0,0-0.1,0.1-0.1,0.1c-0.1,0.1-0.2,0.1-0.3,0.2c-0.1,0-0.1,0.1-0.2,0.1c-0.2,0.1-0.4,0.3-0.6,0.4c-0.2,0.1-0.4,0.3-0.7,0.4
		c-0.1,0.1-0.2,0.1-0.3,0.2c-0.3,0.2-0.6,0.4-0.9,0.6c-0.4,0.3-0.8,0.6-1.3,0.9c-0.8,0.5-1.5,1.1-2.3,1.6c-1.6,1.2-3.3,2.4-4.5,3.9
		c-1.1,1.4-2.2,2.8-3.2,4.2c-1.6,2.1-3.2,4.1-4.6,6.4c-1.4,2.2-3,4.4-4.3,6.7c0,0,0.1,0,0.1,0c0,0,0,0,0,0c0.2,0,0.5-0.1,0.7-0.2
		c0,0,0,0,0,0c0.1,0,0.1-0.1,0.2-0.1c0.2-0.1,0.4-0.1,0.6-0.2c0.2-0.1,0.4-0.1,0.6-0.2c0.3-0.1,0.6-0.1,0.8-0.2
		c0.4-0.1,0.7-0.2,1.1-0.3c0,0,0,0,0,0c0,0,0,0,0.1,0c0,0,0,0,0,0c0.8-0.2,1.6-0.3,2.4-0.4c0,0,0,0,0,0c1.4-0.2,2.8-0.3,4.2-0.3
		c0.1,0,0.2,0,0.2,0c0.3,0,0.5,0,0.8,0c0.3,0,0.5,0,0.8,0.1c0,0,0,0,0.1,0c0.1,0,0.3,0,0.4,0.1c0.1,0,0.3,0,0.4,0.1
		c0.3,0,0.5,0.1,0.8,0.1c0.3,0,0.6,0.1,0.8,0.2c0.3,0.1,0.6,0.1,0.8,0.2c0.2,0.1,0.5,0.1,0.7,0.2c0.3,0.1,0.7,0.2,1,0.3
		c0.2,0,0.3,0.1,0.5,0.1c0.4,0.1,0.8,0.3,1.2,0.4c0.1,0,0.2,0.1,0.3,0.1c0.4,0.2,0.9,0.3,1.3,0.5c0.1,0,0.1,0.1,0.2,0.1
		c0.4,0.2,0.8,0.4,1.3,0.6c0.1,0.1,0.3,0.1,0.4,0.2c0,0,0,0,0,0c0.2,0.1,0.4,0.2,0.6,0.3c0.2,0.1,0.4,0.2,0.6,0.3c0,0,0,0,0,0
		c0.1,0.1,0.2,0.1,0.4,0.2c0,0,0,0,0,0c2.9,1.6,5.8,3.4,8.7,5c0,0,0.1,0,0.1,0c0.4,0.2,0.8,0.4,1.2,0.6c0.1,0,0.1,0.1,0.2,0.1
		c0.4,0.2,0.7,0.3,1.1,0.5c0,0,0,0,0.1,0c0,0,0,0,0,0c0.2,0.1,0.4,0.2,0.7,0.3c0.1,0,0.2,0.1,0.3,0.1c0.1,0.1,0.3,0.1,0.4,0.2
		c0.1,0,0.2,0.1,0.3,0.1c0.1,0,0.2,0.1,0.3,0.1c0.1,0,0.1,0,0.2,0.1c3.4,1.1,7.2,1.6,10.7,0.9c0,0,0,0,0,0c0,0,0,0,0,0
		c0.1,0,0.2,0,0.3-0.1c0,0,0.1,0,0.1,0c2.3-0.5,4.2-1.8,6.1-3.2c1.1-0.8,2.1-1.7,3.1-2.6c0,0,0.1-0.1,0.2-0.1
		c0.3-0.2,0.5-0.5,0.8-0.7c0.3-0.3,0.5-0.5,0.7-0.8c0,0,0,0,0-0.1c0,0,0,0,0,0c0,0,0,0,0,0v0c0,0,0,0,0,0c0,0,0,0,0,0c0,0,0,0,0,0
		c0,0,0,0,0,0c0,0,0,0,0,0c0,0,0,0,0,0c0,0,0,0,0,0c0.1-0.1,0.2-0.2,0.4-0.4c0,0,0,0,0,0c0.1-0.1,0.3-0.2,0.4-0.3
		c0.7-0.7,1.4-1.4,2.1-2.2c1.2-1.3,2.5-2.5,3.8-3.6c0,0,0,0,0,0c0.4-0.3,0.8-0.6,1.1-0.9c0,0,0,0,0,0c0.1-0.1,0.1-0.1,0.2-0.2
		c0,0,0.1-0.1,0.1-0.1c-0.1,0-0.1,0.1-0.2,0.1c0.1-0.1,0.2-0.1,0.2-0.2c0.1-0.1,0.1-0.1,0.2-0.1c0.2-0.1,0.4-0.3,0.6-0.4
		c0,0,0,0,0,0c0,0,0,0,0,0c0,0,0,0,0.1,0c0.1-0.1,0.3-0.2,0.4-0.3c-0.1,0.1-0.2,0.1-0.4,0.2c1.8-1.1,3.6-1.9,5.6-2.4c0,0,0,0,0,0
		c-0.5,0.1-1,0.3-1.4,0.5c0.9-0.3,1.7-0.6,2.6-0.8c0,0,0,0,0,0c1.3-0.3,2.6-0.5,3.9-0.7c0,0,0,0,0,0c-0.5-0.8-1.2-1.5-1.8-2.3
		c-1.1-1.4-2.1-2.7-3.3-4c-2.2-2.5-4.6-4.6-7.3-6.5c-2.4-1.7-4.8-3.3-7.4-4.8c-0.1,0-0.1-0.1-0.2-0.1c-0.1-0.1-0.2-0.1-0.3-0.2
		c0,0,0,0-0.1,0c-0.1-0.1-0.2-0.1-0.3-0.2c0,0,0,0,0,0c0,0,0,0,0,0c-0.1-0.1-0.2-0.1-0.3-0.2c-0.2-0.1-0.4-0.2-0.6-0.3
		c-0.2-0.1-0.4-0.2-0.6-0.3c0,0-0.1,0-0.1,0S80,87.1,80,87c-0.3-0.1-0.7-0.3-0.9-0.4c0,0,0,0,0,0c0,0,0,0,0-0.1c0,0,0,0,0,0
		c0,0,0,0,0,0c0,0,0,0,0,0h0c0,0,0,0,0,0c0,0,0,0,0,0c0,0,0,0,0,0c0,0,0,0,0,0h0c-0.6-0.3-1.2-0.6-1.8-0.9c-0.2-0.1-0.4-0.2-0.6-0.3
		c0,0,0,0,0,0c-0.2-0.1-0.4-0.2-0.6-0.2c0,0,0,0,0,0c-0.1,0-0.1,0-0.2-0.1c0,0,0,0,0,0c-0.4-0.1-0.7-0.3-1.1-0.4c0,0,0,0-0.1,0
		c-0.4-0.2-0.8-0.3-1.3-0.4c-0.1,0-0.2-0.1-0.4-0.1c-0.1,0-0.3-0.1-0.4-0.1c0,0-0.2,0-0.2,0c0,0,0,0-0.1,0h0c0,0,0,0,0,0
		c0,0,0,0,0,0h0c0,0-0.1,0-0.1,0c-0.1,0-0.2-0.1-0.3-0.1c-1.7-0.3-3.5-0.3-5.2-0.1c-4.5,0.5-9.1,1.1-13.5,2.2
		c-0.3,0.1-0.5,0.1-0.7,0.2c0,0-0.1,0-0.1,0C52.4,86.2,52.3,86.2,52.3,86.3z"/>
	<path class="st4" d="M98.2,106.7c-0.3,0.1-0.7,0.2-1,0.3c0,0,0,0,0,0c0,0,0,0,0,0c0.2-0.1,0.4-0.1,0.6-0.2
		C97.9,106.8,98.1,106.8,98.2,106.7z"/>
	<path class="st6" d="M3.3,166.6C3.3,166.6,3.3,166.6,3.3,166.6c0.1,0,0.1,0,0.1,0c0.3-0.2,0.5-0.4,0.8-0.6c0.3-0.2,0.5-0.4,0.8-0.6
		c0,0,0,0,0,0c0.3-0.2,0.6-0.4,1-0.6c0.1,0,0.1-0.1,0.2-0.1c0.2-0.1,0.4-0.2,0.6-0.3c0.1-0.1,0.2-0.1,0.3-0.2
		c0.2-0.1,0.5-0.2,0.7-0.4c0,0,0.1,0,0.1-0.1c0.3-0.1,0.5-0.2,0.8-0.3c0,0,0.1,0,0.1,0c0,0,0,0,0,0c0,0,0.1,0,0.1-0.1
		c0.1,0,0.2-0.1,0.3-0.1c0.2-0.1,0.4-0.1,0.5-0.2c0,0,0.1,0,0.1,0c1.8-0.6,3.6-1,5.5-1.3c0.3,0,0.5-0.1,0.8-0.1
		c0.4-0.1,0.7-0.1,1.1-0.2c0.6-0.1,1.2-0.2,1.8-0.2c6.6-19.3,24.8-33.1,46.3-33.1c18.5,0,34.5,10.2,42.9,25.3c0.5-0.1,1-0.1,1.5-0.2
		c1.7-0.2,3.4-0.1,5,0.1c0.5,0.1,1.1,0.2,1.6,0.3c1.8,0.4,3.5,1,5.2,1.7c0.4,0.1,0.7,0.3,1.1,0.5c0.1,0,0.1,0.1,0.2,0.1c0,0,0,0,0,0
		c1,0.4,1.9,0.9,2.8,1.4c0,0,0,0,0,0c0,0,0,0,0,0c0,0,0,0,0,0c0,0,0-0.1,0-0.1c0,0,0,0,0,0c-0.2-0.9-0.4-1.7-0.7-2.6
		c-0.3-1-0.7-2-1-3.1c-0.3-1.1-0.7-2.1-1.1-3.2c-0.4-1.1-0.7-2.3-1-3.4c-0.6-2-1.5-4-2.3-5.9c-0.5-1.2-1-2.4-1.4-3.6
		c-2.7-6.5-5.4-13.2-8.8-19.3c-1.2-2.1-2.6-4.2-4.1-6.1c-0.4-0.5-0.8-1-1.1-1.5c-0.2-0.2-0.3-0.4-0.5-0.6c0,0-0.1-0.1-0.1-0.1
		c-0.1-0.1-0.2-0.1-0.3-0.2c-0.1,0-0.1-0.1-0.3-0.1c-0.1,0-0.1,0-0.2,0c0,0,0,0,0,0c-0.5,0-1,0.1-1.5,0.2c-0.7,0.1-1.3,0.2-2,0.4
		c-1.6,0.3-3.2,0.8-4.7,1.5c-1.8,0.8-3.5,2-5,3.2c0,0-0.1,0.1-0.1,0.1c-0.2,0.2-0.5,0.4-0.7,0.6c-0.7,0.6-1.3,1.2-1.9,1.8
		c-0.3,0.3-0.6,0.6-0.9,0.9c-0.2,0.2-0.4,0.4-0.6,0.6c-0.8,0.8-1.6,1.7-2.5,2.5c0,0,0,0,0,0c-1,1-2.1,2-3.2,2.9
		c-1.3,1.1-2.7,2.2-4.2,3.1c-0.1,0.1-0.2,0.1-0.3,0.2c-0.1,0.1-0.2,0.1-0.3,0.1c-0.1,0.1-0.3,0.1-0.4,0.2c-1.1,0.5-2.2,0.9-3.4,1.2
		c-0.4,0.1-0.9,0.2-1.3,0.2c-0.1,0-0.1,0-0.2,0c0,0,0,0,0,0c-0.1,0-0.3,0-0.4,0c-0.1,0-0.1,0-0.2,0c0,0,0,0-0.1,0
		c-0.1,0-0.1,0-0.2,0c-0.2,0-0.3,0-0.5,0c0,0-0.1,0-0.1,0c0,0-0.1,0-0.1,0c0,0,0,0,0,0c-0.5,0-1.1,0-1.6,0c-2-0.1-4.1-0.5-6-1.1
		c0,0,0,0-0.1,0c-0.4-0.1-0.8-0.2-1.2-0.4c-0.3-0.1-0.6-0.2-0.9-0.3c-0.1,0-0.2-0.1-0.3-0.1c0,0,0,0,0,0c-0.1-0.1-0.2-0.1-0.4-0.2
		c0,0,0,0,0,0c-0.3-0.1-0.6-0.3-0.9-0.4c0,0-0.1,0-0.1,0c-2.5-1.2-4.9-2.6-7.2-4c0,0,0,0,0,0c0,0,0.1,0.1,0.1,0.1c0,0,0,0,0,0
		c0,0,0,0,0,0c0,0-0.1-0.1-0.1-0.1c0,0,0,0,0,0c-2.4-1.6-4.9-3-7.6-3.9c-0.1,0-0.2-0.1-0.4-0.1c-0.2-0.1-0.5-0.2-0.7-0.2
		c-0.2-0.1-0.3-0.1-0.5-0.2c-0.4-0.1-0.8-0.2-1.1-0.3c0,0,0,0,0,0c-1.2-0.3-2.4-0.6-3.6-0.7c-1-0.1-2.1-0.2-3.1-0.2
		c-0.5,0-1,0-1.6,0c-0.5,0-1,0.1-1.4,0.1c0,0,0,0,0,0c0,0-0.1,0-0.1,0c0,0,0,0,0,0c-0.1,0-0.2,0-0.3,0c0,0,0,0,0,0
		c-1.1,0.1-2.1,0.3-3.2,0.6c0,0,0,0,0,0c-0.3,0.1-0.6,0.1-0.9,0.2c0,0-0.1,0-0.1,0c-0.4,0.1-0.8,0.2-1.2,0.4c0,0-0.1,0-0.1,0
		c0,0-0.1,0-0.1,0c0,0,0,0,0,0c-0.3,0.1-0.6,0.2-0.9,0.3c0,0-0.1,0-0.1,0c-0.2,0.1-0.4,0.1-0.5,0.2c0,0,0,0,0,0
		c-0.1,0.1-0.2,0.2-0.3,0.3c0,0-0.1,0.1-0.1,0.1c0,0,0,0,0,0.1c-0.8,1.4-1.4,2.8-2,4.2c0,0,0,0,0-0.1c-1.7,3.7-3.5,7.3-5.2,10.9
		c-1,2.2-1.9,4.4-2.9,6.5c-0.8,1.7-1.6,3.5-2.2,5.3c-0.4,1.1-0.7,2.2-1.1,3.3c-1.1,3.4-1.9,6.8-2.9,10.3c-0.8,3-1.4,6.1-2,9.1
		c0,0,0-0.1,0.1-0.1C3.1,166.7,3.2,166.6,3.3,166.6z"/>
	<path class="st7" d="M130.5,201.9c-0.4-0.2-1.3-0.1-1.6-0.1c0,0,0,0,0,0c0,0,0,0,0,0c0,0,0,0,0,0c0,0,0,0,0,0c0,0,0.1,0,0.1,0
		c0,0,0.1,0,0.1,0c0,0,0,0,0,0c-0.1,0-0.2,0-0.4,0c-2.6,0-5.1,0.4-7.5,1.2c-0.2,0.1-0.4,0.1-0.5,0.2c-0.1,0-0.1,0-0.2,0.1
		c-0.8,0.3-1.7,0.6-2.5,1c-0.8,0.3-1.5,0.7-2.2,1.1c-3.1,1.6-5.8,3.8-8.6,5.9c-0.3,0.2-0.5,0.4-0.8,0.6c-0.4,0.3-0.8,0.6-1.2,0.9
		c-6.7,4.8-13,10.5-21,13.3c0,0,0,0,0,0c0,0-0.1,0-0.1,0c-0.1,0-0.1,0-0.2,0c-0.6,0.2-1.1,0.3-1.7,0.5c-0.2,0.1-0.5,0.1-0.7,0.2
		c-0.6,0.2-1.3,0.3-1.9,0.4c-0.2,0-0.4,0.1-0.6,0.1c-0.6,0.1-1.1,0.1-1.7,0.2c-1.2,0.1-2.4,0.1-3.5,0.1c-0.9,0-1.7-0.1-2.5-0.3
		c-1.4-0.3-2.8-0.8-4.1-1.5c-0.5,0-1,0-1.5,0c-17.2,0-32.2-8.8-41-22.2c-0.2,0-0.5,0-0.7,0.1c0,0,0,0,0,0c0,0,0,0,0,0c0,0,0,0,0,0
		c0,0,0,0,0,0c-0.1,0-0.3,0-0.4,0c-0.2,0-0.5,0.1-0.7,0.1c0,0,0,0,0,0c-1.6,0.2-3.1,0.5-4.6,0.8c-1.2,0.2-2.4,0.5-3.6,0.8
		c0,0,0,0,0,0c-0.4,0.1-0.9,0.3-1.3,0.4c-0.2,0.1-0.5,0.2-0.7,0.3c0,0-0.1,0-0.1,0.1c-0.2,0.1-0.4,0.2-0.5,0.2
		c-0.1,0-0.2,0.1-0.3,0.1c-0.1,0.1-0.3,0.1-0.4,0.2c-0.1,0.1-0.2,0.1-0.3,0.2c-0.1,0.1-0.2,0.1-0.3,0.2c-0.1,0.1-0.2,0.1-0.4,0.2
		c-0.1,0-0.2,0.1-0.3,0.1c-0.1,0.1-0.3,0.2-0.4,0.3c-0.1,0-0.1,0.1-0.2,0.1c-0.2,0.1-0.3,0.2-0.5,0.3c-0.1,0-0.1,0.1-0.2,0.1
		c-0.1,0.1-0.3,0.2-0.4,0.2c0,0,0,0-0.1,0c0,0,0,0-0.1,0c-1.3,0.8-2.5,1.6-3.8,2.4c0,0,0,0-0.1,0c-0.1,0.1-0.7,0.4-0.8,0.6
		c0,0,0,0,0,0c-0.1,0.1,0.1,0.5,0.2,0.7c0.4,1.1,0.8,2.3,1.2,3.4c0-0.1-0.1-0.2-0.1-0.2c1,2.8,2.2,5.4,3.7,8
		c0.8,1.5,1.6,2.9,2.4,4.4c0.9,1.6,1.7,3.3,2.9,4.7c3.7,4.2,8,8.2,12.6,11.3c2.8,1.9,5.6,3.7,8.7,5.2c2.3,1.1,4.8,2,7.3,2.7
		c2.2,0.6,4.5,1.1,6.8,1.7c3.2,0.8,6.4,1.6,9.7,2.1c3.4,0.5,6.8,0.8,10.3,0.6c2.8-0.2,5.7-0.3,8.5-0.6c2.7-0.3,5.4-0.6,8.1-1.3
		c2.1-0.5,4.3-1.2,6.4-1.8c6.4-1.7,12.2-5.1,17.5-9.1c4.5-3.4,8.3-7.5,11.5-12.1c2.3-3.2,4.2-6.5,5.6-10.3c0.8-2.3,1.3-4.7,1.9-7.1
		c0.7-3.2,1.5-6.4,1.9-9.6c0.1-0.4,0.1-0.9,0.2-1.3c0-0.3,0.2-0.9,0.1-1.2C130.6,202,130.5,202,130.5,201.9z"/>
	<path class="st8" d="M4.7,209.8c0.1,0,0.1-0.1,0.2-0.1c0.7-0.5,1.5-1,2.3-1.5c0.2-0.2,0.5-0.3,0.7-0.5c1.9-1.2,3.8-2.3,6-3
		c0.4-0.1,0.9-0.3,1.3-0.4c1.3-0.3,2.5-0.5,3.8-0.8c1.5-0.3,3-0.6,4.5-0.7c0.1,0,0.2,0,0.3,0c0,0,0,0,0,0
		c-4.6-7.5-7.3-16.3-7.3-25.8c0-5.2,0.8-10.2,2.3-14.8c-1.3,0.1-2.6,0.3-3.8,0.5c0,0,0,0,0,0c-2.2,0.4-4.4,0.9-6.5,1.8c0,0,0,0,0,0
		c-0.2,0.1-0.3,0.2-0.5,0.2c-0.1,0-0.2,0.1-0.2,0.1c0,0,0,0,0,0c-0.2,0.1-0.3,0.2-0.4,0.2c0,0-0.1,0-0.1,0.1
		c-0.7,0.4-1.4,0.8-2.1,1.3c-0.7,0.5-1.5,0.9-2.1,1.5c-0.1,0.1-0.2,0.2-0.2,0.3c-0.2,0.4-0.3,1.1-0.4,1.5c-0.2,0.8-0.3,1.6-0.5,2.4
		c-0.7,3.4-1.1,6.7-1.3,10.2c-0.3,4.1-0.6,8.3-0.5,12.5c0,2.7,0.2,5.5,0.7,8.2c0.5,2.7,1.4,5.4,2.3,8c0,0,0,0,0.1,0
		c0.5-0.3,1-0.7,1.5-1C4.6,209.9,4.7,209.8,4.7,209.8z"/>
	<path class="st8" d="M130.8,184.5c-0.3-5-0.8-10-1.9-14.9c-0.5-2.4-1-4.7-1.6-7.1c-0.2-0.9-0.5-1.9-0.7-2.8
		c-0.1-0.2-0.1-0.5-0.2-0.7c0,0,0,0,0,0c-0.1-0.2-0.5-0.3-0.6-0.4c-0.4-0.2-0.7-0.4-1.1-0.6c-2.4-1.3-5-2.4-7.6-3.1
		c-1.4-0.4-2.8-0.6-4.3-0.6c-1.1,0-2.3,0-3.5,0.2c0,0-0.1,0-0.1,0c-0.1,0-0.1,0-0.2,0c3.5,6.7,5.5,14.4,5.5,22.5
		c0,25.5-19.5,46.5-44.5,48.8c0,0,0,0,0.1,0c0.4,0.1,0.8,0.2,1.2,0.3c0,0,0,0,0.1,0c0.1,0,0.2,0,0.3,0.1c0.1,0,0.1,0,0.2,0
		c0.1,0,0.2,0,0.3,0.1c0,0,0,0,0,0c0.1,0,0.1,0,0.2,0c0.1,0,0.2,0,0.2,0c0,0,0,0,0,0c0,0,0.1,0,0.1,0c1.2,0.1,2.4,0.2,3.6,0.1
		c0.5,0,1.1-0.1,1.6-0.1c0.7-0.1,1.4-0.2,2.1-0.3c3-0.5,6-1.8,8.7-3.2c2-1,3.9-2.2,5.7-3.5c0.6-0.4,1.2-0.8,1.7-1.3
		c2.2-1.6,4.4-3.4,6.6-5c0.2-0.1,0.4-0.3,0.6-0.4c0.5-0.4,1-0.7,1.5-1.1c0.5-0.4,1-0.8,1.6-1.1c0.2-0.1,0.3-0.2,0.5-0.4
		c0.6-0.4,1.2-0.9,1.7-1.3c2.2-1.8,4.6-3.4,7.1-4.7c0.1-0.1,0.2-0.1,0.4-0.2c0.1-0.1,0.3-0.1,0.4-0.2c0.2-0.1,0.3-0.2,0.5-0.2
		c0.3-0.2,0.7-0.3,1-0.4c0.1-0.1,0.3-0.1,0.4-0.2c0.2-0.1,0.4-0.1,0.5-0.2c0.1,0,0.2-0.1,0.4-0.1c1.9-0.7,3.8-1.2,5.8-1.5
		c0.7-0.1,1.4-0.2,2.1-0.2c0.1,0,0.1,0,0.2,0c0.2,0,0.4,0,0.6,0c0.1,0,0.1,0,0.2,0c0.1,0,0.3,0,0.4,0c0.3,0,0.7,0,1,0
		c0.3,0,0.7,0.1,1,0.1c0,0,0.2,0,0.2,0c0,0,0,0,0,0c0-0.1,0-0.4,0-0.5c0.1-0.9,0.1-1.8,0.1-2.7C130.9,193.1,131,188.8,130.8,184.5z"
		/>
</g>
</svg>
