<?xml version="1.0" encoding="utf-8"?>
<!-- Generator: Adobe Illustrator 23.0.4, SVG Export Plug-In . SVG Version: 6.00 Build 0)  -->
<svg version="1.1" id="Easter2" xmlns="http://www.w3.org/2000/svg" xmlns:xlink="http://www.w3.org/1999/xlink" x="0px" y="0px"
	 viewBox="0 0 158.1 232.3" style="enable-background:new 0 0 158.1 232.3;" xml:space="preserve">
<style type="text/css">
	#Easter2 .st0{fill:#E4B859;}
	#Easter2 .st1{fill:#9B3B50;}
	#Easter2 .st2{fill:#76533F;}
	#Easter2 .st3{fill:#A3283F;}
</style>
<g>
	<path class="st0" d="M157.7,88c-1.4-18.8-5.6-38.8-15-55.3c-0.6-1-1.2-2-1.8-3c-2.1-3.3-4.6-6.4-7.2-9.1
		c-8.4-8.5-19.3-14-31.8-15.1C91.2,4.6,80.6,7,71.3,12c-5.8,3.1-11.1,7.2-15.7,12.1c-3.1,3.3-5.6,6.8-7.8,10.4
		c-8.3,13.9-10.8,30-12.6,46.4c-1.3,12.2-2.7,25.3-8.3,36.5c-2.2,4.5-5.7,8.8-9.8,11.7c-5,1.1-10.5,0.2-15-2.5
		c-3.4-2-2.1,9.8-1.9,11c1.6,13.8,8.2,27,17.2,37.4c10.3,11.8,24.3,20.2,39.6,23.6c0.3,0.1,0.6,0.1,0.9,0.2c0.2,0,0.4,0.1,0.6,0.1
		c3.1,0.6,6.2,1,9.3,1.2c5.4,0.4,10.6,0.1,15.8-0.7c0.6-0.1,1.2-0.2,1.8-0.3c27.7-5.2,51.5-26.4,62.9-52.1
		C156.6,128.6,159.2,108,157.7,88z M137.4,42.5c2,1.5,2.2,4,0.9,6c-1.3,2-3.7,3.1-6,3.3c-1.8,0.1-3.5-0.6-4.4-2.1
		c-0.3-0.4-0.6-0.9-0.7-1.5C126,43.3,133.8,39.7,137.4,42.5z M120.9,30.8c0.8-1.3,2.7-1.3,4.1-0.8c0.8,0.2,1.7,0.5,2.3,1.1
		c1.7,1.7,1.7,4.1,1.4,6.2c-0.1,0.6-0.8,1.2-1.4,1.4c-2.9,0.7-5.7-1.1-6.6-3.8c-0.1-0.1-0.1-0.3-0.1-0.4c0-0.1-0.1-0.2-0.1-0.3
		c0-0.1-0.1-0.3-0.1-0.4c0-0.1,0-0.2,0-0.3C120.3,32.5,120.4,31.5,120.9,30.8z M34.6,123.8c0-29,23.5-52.5,52.5-52.5
		s52.5,23.5,52.5,52.5c0,29-23.5,52.5-52.5,52.5S34.6,152.8,34.6,123.8z"/>
	<path class="st1" d="M146.7,20.1c0.6-1.3-0.5-3.4-2.1-2.7c-3.5,1.5-7.2,2.3-10.8,3.3c2.7,2.7,5.1,5.8,7.2,9.1
		C143,26.6,145,23.4,146.7,20.1z"/>
	<path class="st2" d="M57.1,198.6c-3,8.8-5.6,17.6-8,26.6c-0.4,1.4-1.5,3.6-1.1,5.2c-0.5,0.2-1,0.4-1.6,0.5c-1,0.2-2.1,0.2-3.1,0.1
		c-0.3,0-0.5,0.5-0.2,0.6c1.7,0.7,4.1,1,5.9,0.1c0.6,0.3,1.2,0.3,1.9,0.3c3.8,0.2,6.6-2.1,10.5-0.7c2.4,0.9,3.4-3,1-3.8
		c-4.3-1.5-6.7,0.6-10.8,1c-1.5,1-1.9,1-1.4-0.2c0.2-0.9,0.4-1.8,0.7-2.7c0.6-2.5,1.3-4.9,2-7.4c1.8-6.5,3.6-13,5.5-19.4
		c-0.2,0-0.4-0.1-0.6-0.1C57.7,198.8,57.4,198.7,57.1,198.6z"/>
	<path class="st2" d="M85.1,222.6c0.2,1.4,0.1,3.6,0.6,5.3c-1.3-0.2-2.6-0.4-3.9-0.5c-0.6,0-0.6,0.8-0.1,1c1.6,0.6,3.2,1.2,4.9,1.6
		c0.1,0,0.2,0,0.4,0c2.3,1.7,8.5,1.3,11.1,1.3c2.4,0,2.2-3.3,0-3.6c-2.8-0.3-8.1,0.8-9.8-1.9c-0.8-1.3-0.6-4.2-0.8-5.6
		c-0.2-1.9-0.5-3.7-0.7-5.6c-0.5-5.1-0.8-10.3-1.3-15.4c-0.6,0.1-1.2,0.2-1.8,0.3C83.4,207.1,84.1,215,85.1,222.6z"/>
	<path class="st3" d="M71.3,12C68.3,5.4,63.6-0.4,57,0c-3.8,0.2-7.6,3.2-7.4,7.3c0.1,2.1,1,3.6,2.3,4.8c-5.1,1.6-9.7,5.3-12.4,9.5
		c-1.5,2.4-1.4,5.1,0.7,7.1c1.1,1,2.4,1.4,3.7,1.5c0,0.4,0.1,0.9,0.3,1.3c0.7,1.7,2.1,2.6,3.7,3c2.2-3.6,4.7-7.1,7.8-10.4
		C60.2,19.2,65.5,15.1,71.3,12z"/>
	<path class="st2" d="M120.3,33.7c0,0.1,0,0.3,0.1,0.4c0,0.1,0,0.2,0.1,0.3c0,0.1,0.1,0.3,0.1,0.4c1,2.7,3.8,4.5,6.6,3.8
		c0.6-0.1,1.3-0.7,1.4-1.4c0.3-2.2,0.3-4.6-1.4-6.2c-0.6-0.6-1.4-1-2.3-1.1c-1.4-0.4-3.3-0.5-4.1,0.8c-0.5,0.8-0.6,1.7-0.5,2.6
		C120.3,33.5,120.3,33.6,120.3,33.7z"/>
	<path class="st1" d="M127.2,48.2c0.1,0.6,0.4,1.1,0.7,1.5c0.9,1.5,2.6,2.2,4.4,2.1c2.3-0.2,4.7-1.3,6-3.3c1.3-2,1.1-4.5-0.9-6
		C133.8,39.7,126,43.3,127.2,48.2z"/>
</g>
</svg>
