<?xml version="1.0" encoding="utf-8"?>
<!-- Generator: Adobe Illustrator 23.0.4, SVG Export Plug-In . SVG Version: 6.00 Build 0)  -->
<svg version="1.1" id="Easter3" xmlns="http://www.w3.org/2000/svg" xmlns:xlink="http://www.w3.org/1999/xlink" x="0px" y="0px"
	 viewBox="0 0 177 334.9" style="enable-background:new 0 0 177 334.9;" xml:space="preserve">
<style type="text/css">
	#Easter3 .st0{fill:none;}
	#Easter3 .st1{fill:#545866;}
	#Easter3 .st2{fill:#F7F6F1;}
	#Easter3 .st3{fill:#C78F8F;}
	#Easter3 .st4{fill:#EEBFC9;}
	#Easter3 .st5{fill:#FFFFFF;}
	#Easter3 .st6{fill:#EDEAE5;}
</style>
<g>
	<path class="st0" d="M46.4,236.6c-1-0.6-2.1-1.2-3.1-1.8C44.3,235.4,45.3,236,46.4,236.6z"/>
	<path class="st0" d="M119.8,232.3c4.3-2.8,8.3-6.1,11.7-9.9C128,226.1,124.1,229.5,119.8,232.3z"/>
	<polygon class="st0" points="50.6,240.3 50.6,240.3 50.6,240.3 	"/>
	<path class="st0" d="M47.8,122c0.1,1.8,0.2,3.6,0.2,5.4c0.5-0.3,0.9-0.6,1.4-0.8c0.1-0.1,0.2-0.1,0.3-0.2c3.1-1.9,6.4-3.5,9.8-4.8
		c-3.4,0.3-6.9,0.4-10.3,0.4C48.7,122,48.2,122,47.8,122z"/>
	<path class="st1" d="M168.8,279.8c-3.4,0.7-4.8,6.2-5.6,8.9c-1.1,3.8-2,7.7-2.8,11.7c-4.2-7.2-11-12.6-18.9-15.4
		c-0.6-0.2-1.2-0.4-1.8-0.6c0.8-6,0.5-12-0.7-17.8c-0.9-4.5-2.3-8.8-4.2-12.9c5.3-1.9,10.1-5.2,13.9-9.3c0.8-0.8,1.4-1.6,2.1-2.5
		c1.1-1.4,2.2-2.8,3.1-4.3c1.6-2.6,2.6-8.1,5.9-9.3c1-0.4,2.2-0.4,3.2-0.9c0.9-0.5,1.6-1.2,2.2-1.9c1.3-1.9,1.4-4.2,0.1-6.1
		c-2.9-4.3-8.3-1-9.2,3.2c-0.1,0-0.2,0-0.3,0.1c-7,5.3-16.6,11.1-26.1,12.2c-2.3,0.3-4.5,0.3-6.8,0c-0.9-0.1-1.8-0.3-2.7-0.5
		c6.9-4.3,13.1-9.8,17.6-16.6c7.9-12.1,10.9-27.4,10.8-41.6c-0.1-14.8-6-27.6-15.4-37.5c-4.5-4.7-9.7-8.7-15.5-12
		c19.6-11.5,35.7-28.7,46.1-48.9c12.3-23.9,15-50.2,11.7-76.5c-0.1-0.6-0.5-1-1.1-0.9c-0.8,0.2-1.6,0.5-2.4,0.7
		c-11.1,3.3-20.4,10.7-28.7,18.6c-9.7,9.2-19.2,19-27.3,29.8c-14.9,20-24.5,46.4-14.4,70.5c-1.3-0.3-2.6-0.7-3.9-1
		c-11.3-2.5-22.8-1.9-33.5,1.3c-0.1-0.1-0.2-0.2-0.3-0.3c2.8-9.1,1.1-19.1-4.6-26.7c-3-4-7-6.9-11.3-9.3c-2.8-1.6-5.9-3.5-9.2-3.7
		c-0.8,0-1.6,0-2.4,0.2c-9.4,2.5-17.2,14.7-21.8,22.4c-6.3,10.4-10.5,22-12.7,34c-2.4,12.8-2.5,26-1.1,39c1.3,11.7,3.3,24.1,8,35.1
		c3,7,8.2,16.3,15,7.5c1.6,2.5,3.4,4.8,5.4,7c5.5,6.2,12.1,10.9,19.2,14.4c-0.3,0.2-0.5,0.3-0.7,0.5c0,0,0,0,0,0c0,0,0,0,0,0
		c0,0,0,0,0,0c0,0,0,0,0,0c0,0,0,0,0,0c0,0,0,0,0,0c-0.3,0.5-0.8,0.4-1.1,0.8c-1.1,0.9-2.2,1.9-3.2,2.9c-2.7,1.8-5.7,2.5-8.8,2.6
		c-3.1,0-6.2-0.6-9.1-1.5c-3.1-1-6.2-2.5-9-4.1c-1.5-0.8-2.9-1.5-4.3-2.5c-1.5-1.1-2.3-2.6-3.6-3.9c-2.1-2.2-5.7-3.5-7,0.3
		c-1.6,4.8,2.8,10,7.8,9c1.3,2.7,2.9,5.2,4.8,7.4c1.8,2.1,3.9,4.1,6.2,5.9c2.6,2,5.3,3.8,8.2,5.5c1.3,0.8,2.7,2,4.2,2.1
		c-2,7.8-2.6,16-2.1,23.2c0.4,5.6,1.8,10.8,4.1,15.6c-1.1,0.3-2,0.9-2.9,1.6c-1.7,1.3-3.1,3-4.3,4.6c-1.8,2.3-3.4,5-4.5,7.8
		c-0.9-3.3-2.1-6.6-3.2-9.5c-1.3-3.4-2.8-8.3-6.7-9.4c-9-2.4-5.8,13.9-5,17.9c0.8,4,3.8,15.8,9.1,17.9c1,0.7,2.2,1,3.8,0.4
		c1.7-0.6,2.6-2,3.2-3.6c6.8,2.9,13.8,4.4,21.4,4c5.5-0.3,14.4-1.5,18.8-5.5c21.5,8,45.3,1.5,60.4-14c6.7,0.4,13.5-2.4,20.4-2.3
		c4.5,0.1,9.9,2.3,14.3,0.4c0.5,2.1,1.9,3.4,4.6,3.1c7.7-0.8,9-13.2,9.8-18.8C174.3,294.7,176.5,278.1,168.8,279.8z M122.5,235
		c2.5,0.5,4.9,0.5,7.4,0.3c9.6-0.9,19.1-6.3,26.4-11.8c0.1-0.1,0.2-0.2,0.2-0.3c0.1-0.3,0.2-0.6,0.4-0.8c0.1-0.3,0.3-0.6,0.5-0.9
		c0.2-0.3,0.3-0.6,0.6-0.9c0.2-0.3,0.4-0.6,0.6-0.8c0.9-1,2-1.8,3.1-1.8c0.6,0,1.3,0.3,2,0.9c2.4,2.2,1.4,5.9-1.4,7.2
		c-1.3,0.6-3.1,0.4-4.2,1.3c-1.4,1.1-2,3.8-2.9,5.3c-0.8,1.2-1.5,2.4-2.3,3.6c-1.6,2.3-3.2,4.6-5.1,6.7c-0.1,0.1-0.3,0.2-0.4,0.4
		c-1.7,1.9-3.6,3.6-5.7,5.1c-0.6,0.4-7.2,4.4-7.5,3.8c-3.1-6.1-7.4-11.6-12.5-16.3c-0.5-0.5-1-1-1.6-1.5
		C120.8,234.7,121.7,234.9,122.5,235z M145.5,20.1c7.2-6.7,15-13,24.2-16.6c1-0.4,1.8-0.7,2.4-0.9c1.3-0.3,2,0.1,2.6,2.4
		c0.6,2.5,0.7,5.5,0.9,8c0.3,4.8,0.4,9.6,0.1,14.4c-1.1,19.7-7.2,39.2-17.5,56c-10.5,17.3-25.3,31.3-42.5,41.7
		c-0.4-0.2-0.8-0.4-1.2-0.6c-1.7-0.9-3.5-1.7-5.3-2.4c12.7-14,25-28.6,35.2-44.6c4-6.3,8.9-13.9,7.9-21.8c-0.6-5-3.8-9.9-9.1-10.5
		c-6.6-0.8-12.3,4.8-16.2,9.4c-5.2,6.2-9.5,13.3-12.8,20.7c-6.2,14-8.8,29.7-7.2,45c0,0.3,0,0.7,0.1,1c-0.2-0.1-0.5-0.2-0.7-0.2
		c-1.4-0.5-2.7-0.9-4.1-1.4C88.1,80.7,118.9,45,145.5,20.1z M108,121.7c-0.2-0.1-0.4-0.1-0.6-0.2c0-0.5,0-0.9-0.1-1.4
		c0-0.1,0-0.1,0-0.2c-0.7-12.6,0.8-25.1,5.1-37.1c2.3-6.4,5.3-12.5,9.1-18.2c3.7-5.6,8.5-12.7,14.7-15.9c6.7-3.4,13.1-0.2,14.2,7.2
		c0.7,4.6-0.9,9-2.9,13.1c-3,6.4-7.3,12.4-11.5,18.2C127.4,99.3,117.5,110.4,108,121.7z M23.1,216.6c-2.6,2.6-5.5,3.8-8.6,0.4
		c-3.1-3.4-4.7-9.3-6-13.6c-1.6-5.1-2.7-10.4-3.7-15.6c-2.1-11.1-3.2-22.5-2.9-33.8c0.7-20.8,6.6-42,19.1-58.9
		c3.3-4.4,7.5-9.8,12.5-12.3c2.1-1.1,4.1-1.4,6.1-1.1c4.4,0.5,8.4,3.6,12.1,6.4c10,7.5,13.9,19.5,11.4,31.5c-0.6-1-1.6-2.2-1.6-2.2
		c-0.9-1.2-1.9-2.3-2.8-3.5c-1.7-2.1-3.4-4.3-5.2-6.4c-2.2-2.8-4.4-5.8-7.8-7c0,0,0,0-0.1,0c0-0.1,0-0.3-0.1-0.4
		c-0.2-1.9-0.5-3.7-0.8-5.5c-0.1-0.4-0.5-0.6-0.8-0.5c-0.3,0.1-0.7,0.3-0.6,0.7c0.6,5,1.2,10,1.6,15.1c0.5,6.2,0.9,12.5,1,18.8
		c0,0.7,0,1.4,0,2.2c0.1,10.4-0.4,20.9-2,31.2c-1.5,10.2-4.1,20.3-7.7,29.9c-1.9,4.9-4.1,9.7-6.6,14.3c-1.2,2.2-3.2,6.3-5.7,9.4
		C23.7,215.9,23.4,216.3,23.1,216.6z M58.9,120.1c-3.3,0.2-6.6,0.6-9.9,1c-0.4,0.1-0.9,0.1-1.3,0.2c-0.2-3.6-0.5-7.1-0.8-10.6
		c-0.3-3.2-0.7-6.4-1.1-9.6c0.1,0,0.1,0.1,0.1,0.1c4.6,2.5,7.7,7.8,10.8,11.7c1.5,1.9,3.4,5.5,5.4,7.1C61,120,60,120.1,58.9,120.1z
		 M59.5,121.5c-3.4,1.3-6.7,2.9-9.8,4.8c-0.1,0.1-0.2,0.1-0.3,0.2c-0.5,0.3-0.9,0.6-1.4,0.8c-0.1-1.8-0.1-3.6-0.2-5.4
		c0.5,0,0.9,0,1.4,0C52.6,121.9,56,121.9,59.5,121.5z M26.3,259.1c-2.7-1.7-5.3-3.4-7.7-5.5c-0.7-0.6-1.3-1.2-2-1.8
		c-2.7-2.5-5.6-5.7-6.7-8.9c-0.3-1-3.7-1-4.9-1.7c-1.7-1-2.6-2.8-2.6-4.7c0-2.8,2.3-4.3,4.8-2.7c0.8,0.5,1.5,1.1,2.1,1.8
		c0.7,1,0.9,2.3,1.8,3.2c1.3,1.1,3.1,2,4.6,2.9c2.7,1.6,5.6,2.9,8.5,3.9c2.9,1,6,1.7,9.1,1.8c0.2,0,0.4,0,0.6,0
		c1.2,0,2.5-0.1,3.7-0.3c1-0.2,3.4-0.5,4-1.4c-4,4.9-6.7,10.9-8.5,17.2C31.2,262.7,27.8,260.1,26.3,259.1z M53.8,331.7
		c-3.6,1-7.3,1.5-11.1,1.7c-6.2,0.2-12.3-0.8-18.1-3c-0.1,0-0.1,0-0.2-0.1c0.3-1.1,0.4-2.2,0.4-3.2c0-2.4-0.5-5-1-7.5
		c1.1-2.8,2.3-5.5,3.9-8.1c1.2-1.9,2.9-4.3,4.9-6.1c0.8-0.7,1.7-1.4,2.6-1.8c5.4,11.1,15.2,19.8,26.9,24.7c0.2,0.1,0.3,0.1,0.5,0.2
		C60.3,329.8,55,331.4,53.8,331.7z M118.7,318.3c-20.5,17.4-53.1,15.9-72.5-2.6c-0.2-0.2-0.5-0.5-0.7-0.7c-5.1-5-9.1-11.2-11.2-18.1
		c-3.2-10.3-2.1-22,0.2-32.4c1.7-7.5,4.6-14.8,9.6-20.5c0.9-0.7,1.8-1.6,2.6-2.7c0.6-0.5,1.2-1,1.8-1.5c0,0,0,0,0,0
		c0.5-0.5,1-1,1.5-1.5c0,0,0,0,0,0c0,0,0,0,0,0c-1.1-0.5-2.1-1-3.1-1.5c-0.2-0.1-0.3-0.2-0.5-0.3c-1-0.6-2.1-1.2-3.1-1.8
		c0,0,0,0,0,0c-1-0.6-1.9-1.2-2.8-1.9c-0.2-0.2-0.4-0.3-0.7-0.5c-0.9-0.7-1.8-1.4-2.7-2.1c-4.7-3.9-8.8-8.5-12.2-13.6
		c6.8-9.2,11.8-20.2,15.4-31c6.2-18.3,8.2-37.3,7.8-56.4c0-0.2,0.2-0.5,0.6-0.8c0.1-0.1,0.3-0.2,0.5-0.4c0.1-0.1,0.2-0.1,0.3-0.2
		c0.1-0.1,0.2-0.2,0.4-0.2c0.2-0.1,0.4-0.2,0.6-0.4c0.4-0.2,0.8-0.4,1.2-0.6c0.4-0.2,0.9-0.4,1.3-0.6c0.3-0.1,0.6-0.3,0.9-0.4
		c0.3-0.1,0.6-0.3,0.8-0.4c0.3-0.1,0.6-0.2,0.8-0.3c1.2-0.5,2.1-0.9,2.4-1c1-0.4,2-0.8,3-1.2c2.4-0.9,4.9-1.7,7.4-2.3
		c7-1.7,14.4-1.8,21.6-1.1c5.1,0.5,10.1,1.7,15.1,3.4c2.7,0.9,5.4,2,8,3.2c8.4,4,16,9.6,21.9,16.6c5.5,6.6,9.5,14.3,11,23.1
		c2.3,13.3,0.4,28.4-4.5,40.9c-0.3,0.8-0.6,1.5-1,2.3c-0.1,0.3-0.2,0.5-0.4,0.8c-0.2,0.5-0.4,1-0.7,1.4c-0.2,0.3-0.3,0.6-0.5,0.9
		c-0.2,0.4-0.4,0.8-0.7,1.2c-0.2,0.3-0.4,0.6-0.6,1c-0.2,0.4-0.4,0.7-0.7,1.1c-0.2,0.3-0.4,0.7-0.7,1c-0.2,0.3-0.4,0.6-0.7,1
		c-0.2,0.3-0.5,0.7-0.7,1c-0.2,0.3-0.4,0.6-0.6,0.8c-0.3,0.4-0.6,0.7-0.9,1.1c-0.2,0.2-0.4,0.5-0.6,0.7c-0.3,0.4-0.7,0.8-1,1.2
		c-0.1,0.2-0.3,0.3-0.4,0.5c-3.4,3.8-7.4,7.1-11.7,9.9c0,0,0,0,0,0c-0.6,0.4-1.3,0.8-1.9,1.2c0,0,0,0,0,0c0.5,0.5,1,1.1,1.1,1.8
		c0,0,0,0,0,0c0.5,0.5,1,1,1.5,1.5c4.9,4.9,8.8,10.4,11.6,16.3c-0.1,0.4,0.1,0.8,0.4,0.9c3.5,7.8,5.1,16.1,4.9,24.4
		C137.2,293.3,131.1,307.8,118.7,318.3z M159.5,307.8c-0.1,0.9-0.2,1.7-0.3,2.5c0,0.7,0,1.3,0,1.9c-4.9,1.6-12.1-0.7-17.3-0.4
		c-5.7,0.4-11.2,2.8-16.9,3.2c7.6-8,13-18.3,14.6-30.2c0.5,0.2,1.1,0.5,1.6,0.7c3.8,1.7,7.2,3.8,10.2,6.5c3.4,3,6.2,6.7,8.4,10.8
		c-0.2,1.6-0.4,3.2-0.6,4.7C159.3,307.6,159.4,307.7,159.5,307.8z"/>
	<path class="st2" d="M35,303.6c-0.9,0.4-1.8,1.1-2.6,1.8c-2,1.8-3.7,4.2-4.9,6.1c-1.7,2.6-2.8,5.3-3.9,8.1c0.6,2.6,1,5.1,1,7.5
		c0,1.1-0.1,2.2-0.4,3.2c0.1,0,0.1,0,0.2,0.1c5.8,2.2,12,3.1,18.1,3c3.8-0.1,7.5-0.7,11.1-1.7c1.3-0.3,6.6-2,8.7-3.2
		c-0.2-0.1-0.4-0.1-0.5-0.2C50.3,323.4,40.5,314.7,35,303.6z"/>
	<path class="st2" d="M151.5,291.9c-3-2.7-6.4-4.8-10.2-6.5c-0.5-0.2-1-0.5-1.6-0.7c-1.6,11.9-7,22.2-14.6,30.2
		c5.6-0.4,11.1-2.8,16.9-3.2c5.1-0.3,12.4,2,17.3,0.4c-0.1-0.6,0-1.2,0-1.9c0-0.8,0.1-1.7,0.3-2.5c-0.1-0.1-0.1-0.2-0.1-0.3
		c0.2-1.6,0.4-3.1,0.6-4.7C157.7,298.6,154.9,294.9,151.5,291.9z"/>
	<path class="st2" d="M121.6,235.9c5.2,4.6,9.5,10.1,12.5,16.3c0.3,0.6,6.9-3.4,7.5-3.8c2.1-1.5,4-3.2,5.7-5.1
		c0.1-0.1,0.3-0.2,0.4-0.4c1.9-2.1,3.5-4.3,5.1-6.7c0.8-1.2,1.6-2.4,2.3-3.6c1-1.5,1.5-4.2,2.9-5.3c1.1-0.9,2.9-0.7,4.2-1.3
		c2.7-1.3,3.8-5,1.4-7.2c-0.7-0.6-1.4-0.9-2-0.9c-1.1,0-2.2,0.8-3.1,1.8c-0.2,0.3-0.4,0.5-0.6,0.8c-0.2,0.3-0.4,0.6-0.6,0.9
		c-0.2,0.3-0.3,0.6-0.5,0.9c-0.1,0.3-0.3,0.6-0.4,0.8c0,0.1-0.1,0.3-0.2,0.3c-7.3,5.5-16.8,10.9-26.4,11.8c-2.5,0.2-5,0.2-7.4-0.3
		c-0.8-0.2-1.7-0.4-2.5-0.6C120.6,234.9,121.1,235.4,121.6,235.9z"/>
	<path class="st2" d="M41.7,245.6c-0.7,0.8-3,1.2-4,1.4c-1.2,0.2-2.5,0.3-3.7,0.3c-0.2,0-0.4,0-0.6,0c-3.1-0.1-6.2-0.8-9.1-1.8
		c-3-1-5.8-2.3-8.5-3.9c-1.5-0.9-3.2-1.8-4.6-2.9c-1-0.9-1.1-2.2-1.8-3.2c-0.5-0.7-1.3-1.3-2.1-1.8c-2.6-1.5-4.9,0-4.8,2.7
		c0,1.9,0.9,3.7,2.6,4.7c1.2,0.7,4.5,0.7,4.9,1.7c1.1,3.3,3.9,6.4,6.7,8.9c0.7,0.6,1.4,1.3,2,1.8c2.4,2,5,3.8,7.7,5.5
		c1.5,0.9,4.9,3.6,6.9,3.6C35,256.5,37.7,250.5,41.7,245.6z"/>
	<path class="st2" d="M106.3,121.1c0.2,0.1,0.5,0.2,0.7,0.2c0-0.3,0-0.6-0.1-1c-1.7-15.3,1-31,7.2-45c3.3-7.4,7.6-14.5,12.8-20.7
		c3.9-4.6,9.6-10.2,16.2-9.4c5.3,0.6,8.5,5.5,9.1,10.5c1,7.9-3.9,15.5-7.9,21.8c-10.2,16-22.5,30.5-35.2,44.6
		c1.8,0.7,3.6,1.5,5.3,2.4c0.4,0.2,0.8,0.4,1.2,0.6c17.2-10.4,32-24.5,42.5-41.7c10.3-16.8,16.4-36.3,17.5-56
		c0.3-4.8,0.2-9.6-0.1-14.4c-0.2-2.6-0.3-5.5-0.9-8c-0.6-2.3-1.2-2.8-2.6-2.4c-0.6,0.2-1.4,0.5-2.4,0.9c-9.2,3.6-17,9.9-24.2,16.6
		c-26.7,24.9-57.5,60.6-43.3,99.7C103.6,120.2,105,120.7,106.3,121.1z"/>
	<path class="st3" d="M56.7,112.8c-3.1-3.9-6.2-9.2-10.8-11.7c-0.1,0-0.1-0.1-0.1-0.1c0.4,3.2,0.8,6.4,1.1,9.6
		c0.4,3.5,0.6,7.1,0.8,10.6c0.4-0.1,0.9-0.1,1.3-0.2c3.3-0.5,6.6-0.9,9.9-1c1-0.1,2.1-0.1,3.1-0.1C60.1,118.4,58.1,114.7,56.7,112.8
		z"/>
	<path class="st3" d="M150.4,55.9c-1.1-7.4-7.5-10.6-14.2-7.2c-6.2,3.2-11,10.3-14.7,15.9c-3.7,5.7-6.7,11.8-9.1,18.2
		c-4.4,12-5.8,24.5-5.1,37.1c0,0,0.1-0.1,0.1-0.1c0,0.1-0.1,0.2-0.1,0.3c0,0.5,0,0.9,0.1,1.4c0.2,0.1,0.4,0.1,0.6,0.2
		c9.5-11.3,19.4-22.4,28-34.5c4.1-5.8,8.5-11.7,11.5-18.2C149.5,64.9,151.1,60.5,150.4,55.9z"/>
	<path class="st4" d="M107.4,119.9c0,0.1,0,0.1,0,0.2c0-0.1,0.1-0.2,0.1-0.3C107.4,119.9,107.4,119.9,107.4,119.9z"/>
	<path class="st2" d="M132.5,254.2c-0.3-0.2-0.5-0.6-0.4-0.9c-2.8-6-6.7-11.5-11.6-16.3c-0.5-0.5-1-1-1.5-1.5c0,0,0,0,0,0
		c-0.2-0.7-0.6-1.3-1.1-1.8c0,0,0,0,0,0c0.6-0.4,1.3-0.8,1.9-1.2c0,0,0,0,0,0c4.3-2.8,8.3-6.1,11.7-9.9c0.1-0.2,0.3-0.3,0.4-0.5
		c0.3-0.4,0.7-0.8,1-1.2c0.2-0.2,0.4-0.5,0.6-0.7c0.3-0.4,0.6-0.7,0.9-1.1c0.2-0.3,0.4-0.6,0.6-0.8c0.3-0.3,0.5-0.7,0.7-1
		c0.2-0.3,0.4-0.6,0.7-1c0.2-0.3,0.4-0.7,0.7-1c0.2-0.4,0.4-0.7,0.7-1.1c0.2-0.3,0.4-0.6,0.6-1c0.2-0.4,0.4-0.8,0.7-1.2
		c0.2-0.3,0.3-0.6,0.5-0.9c0.2-0.5,0.5-0.9,0.7-1.4c0.1-0.3,0.2-0.5,0.4-0.8c0.3-0.7,0.7-1.5,1-2.3c5-12.6,6.8-27.6,4.5-40.9
		c-1.5-8.8-5.5-16.6-11-23.1c-5.9-7-13.5-12.6-21.9-16.6c-2.6-1.2-5.3-2.3-8-3.2c-5-1.7-10-2.8-15.1-3.4c-7.1-0.7-14.6-0.6-21.6,1.1
		c-2.5,0.6-5,1.4-7.4,2.3c-1,0.4-2,0.8-3,1.2c-0.3,0.1-1.3,0.5-2.4,1c-0.3,0.1-0.5,0.2-0.8,0.3c-0.3,0.1-0.6,0.3-0.8,0.4
		c-0.3,0.1-0.6,0.3-0.9,0.4c-0.4,0.2-0.9,0.4-1.3,0.6c-0.4,0.2-0.8,0.4-1.2,0.6c-0.2,0.1-0.4,0.2-0.6,0.4c-0.1,0.1-0.3,0.2-0.4,0.2
		c-0.1,0.1-0.2,0.1-0.3,0.2c-0.2,0.1-0.3,0.3-0.5,0.4c-0.4,0.3-0.6,0.6-0.6,0.8c0.5,19.1-1.6,38.2-7.8,56.4
		c-3.6,10.7-8.6,21.8-15.4,31c3.3,5.1,7.5,9.7,12.2,13.6c0.9,0.7,1.8,1.4,2.7,2.1c0.2,0.2,0.4,0.3,0.7,0.5c0.9,0.6,1.9,1.3,2.8,1.9
		c0,0,0,0,0,0c1,0.6,2,1.2,3.1,1.8c0.2,0.1,0.3,0.2,0.5,0.3c1,0.5,2.1,1.1,3.1,1.5c0,0,0,0,0,0c0,0,0,0,0,0c-0.5,0.5-1,1-1.5,1.5
		c0,0,0,0,0,0c-0.6,0.5-1.2,1-1.8,1.5c-0.8,1-1.7,1.9-2.6,2.7c-5,5.7-7.9,13-9.6,20.5c-2.4,10.4-3.4,22-0.2,32.4
		c2.1,6.9,6.1,13,11.2,18.1c0.2,0.2,0.5,0.5,0.7,0.7c19.4,18.5,52,20,72.5,2.6c12.4-10.5,18.5-25,18.8-39.7
		C137.6,270.3,136,261.9,132.5,254.2z M99.5,137c0.2-0.2,0.4-0.3,0.5-0.5c0.8-0.8,1.9-0.7,2.7-0.1c0.6,0,1.2,0.1,1.7,0.4
		c0.9,0.5,1.6,1.4,2.5,1.9c0.8,0.5,0.1,1.8-0.8,1.3c-0.8-0.5-1.3-0.1-2.1,0.1c-0.5,0.1-1.3,0.1-1.8,0.3
		C100,141.7,97.6,138.7,99.5,137z M101,152.6c2.2,3.2,5,7.8,9.6,7c5.2-0.9,5.4-8,4.6-12c-0.1-0.6,0.7-0.8,0.9-0.2
		c1.8,5.3,2.8,13-3.9,15.4c-6.5,2.4-12-3.5-13.5-9.2C98.3,152.1,100.2,151.4,101,152.6z M115.5,176.1c-1.5,2.5-4.5,4.6-7.4,5.1
		c-2.7,0.5-5.7-0.9-5.7-4c0-1.7,1-3.2,2.2-4.3c1.8-2.2,4.9-3.4,7.7-3.2C115.8,169.9,117.2,173.3,115.5,176.1z M86.1,165.2
		c1.6-0.5,4.6-1,5.9,0.4c1.4,1.4,0,4-0.7,5.4c-1,1.8-2.6,3.3-4.7,2.2c-0.5-0.3-1-0.6-1.4-1c-1.2-0.4-2.2-1.2-2.3-2.6
		C82.6,167.6,84.3,165.8,86.1,165.2z M75.5,173.7c0.4-0.2,0.7,0.4,0.3,0.6c-0.4,0.2-0.7,0.4-1,0.7c7,9.6,20.6,8.8,25.3-2.6
		c0-0.1,0.1-0.2,0.2-0.2c-0.1-0.2-0.2-0.4-0.4-0.6c-0.2-0.2,0.2-0.5,0.4-0.3c0.5,0.5,0.9,1.1,1.3,1.8c0.3,0.6-0.6,0.9-0.7,0.3
		c0-0.1-0.1-0.2-0.1-0.3c-0.9,2.1-2.1,3.9-3.6,5.3c0,0.1,0.1,0.1,0.1,0.3c0.2,2.7,0.1,5.3,0.1,8c0,2,0.4,4.7-0.1,6.6
		c-0.6,2.5-3.6,2.4-5.8,2.8c-2.1,0.3-4,1.1-5.2-0.8c-1.1-1.8-1.3-4.8-1.9-6.8c-0.6-2.2-1.2-4.3-1.6-6.5c-3.3-1-6.2-3.2-8.2-6.7
		c-0.6,0.5-1.1,1.2-1.4,1.9c-0.1,0.3-0.5,0.2-0.4-0.1C73.3,175.5,74.2,174.4,75.5,173.7z M64.5,189.7c-1.1-0.5-2-1.4-2.6-2.4
		c-1.2-1.8-0.4-4.6,0.8-6.3c1.5-2.2,4.1-2.9,6.7-2.5c2.2,0.4,5.2,1.6,5.9,3.9C76.7,187.5,68.5,191.5,64.5,189.7z M53.3,150.1
		c0.7-2.3,1-4.3,2.8-6c1-1,2.7-0.8,3.4,0.4c0.6,1.1,0.1,2.9-1.3,3.1c-1.7,0.3-3.5,0.9-4.1,2.7C53.9,150.8,53.1,150.6,53.3,150.1z
		 M49.9,162.3c0-0.5,0.9-0.5,0.8,0c-0.1,5.9,5.1,11,11.1,9.3c4.7-1.4,7.4-7,7.1-11.6c-0.1-1,1.5-1.2,1.7-0.2
		c1.8,7.1-1.4,14.7-9.5,15.6c-3.3,0.4-6.7-0.6-8.9-3.2C49.8,169.3,49.8,165.9,49.9,162.3z M50.6,240.3
		C50.6,240.3,50.6,240.3,50.6,240.3L50.6,240.3C50.6,240.3,50.6,240.3,50.6,240.3z M87.2,317.5c-23.3,0-42.3-19-42.3-42.3
		c0-23.3,19-42.3,42.3-42.3s42.3,19,42.3,42.3C129.5,298.5,110.6,317.5,87.2,317.5z"/>
	<path class="st5" d="M96.1,187.3c0-2.7-0.1-5.4,0.1-8.1c-1.8,1.4-3.8,2.4-5.9,2.9c1,4.2,2,8.4,2.5,12.7
		C96.4,193.7,96.1,190.6,96.1,187.3z"/>
	<path class="st5" d="M87,193.6c1.3,1.9,2.8,1.8,4.5,1.4c-0.6-4.3-1-8.6-1.7-12.9c-2.1,0.4-4.3,0.4-6.4-0.2c1,2.6,1.7,5.3,2.5,8
		C86.2,191.1,86.4,192.7,87,193.6z"/>
	<path class="st6" d="M44.8,94.6c0.3,1.8,0.6,3.7,0.8,5.5c0,0.1,0.1,0.3,0.1,0.4c3.4,1.2,5.6,4.2,7.8,7c1.7,2.1,3.4,4.3,5.2,6.4
		c0.9,1.2,1.9,2.3,2.8,3.5c0,0,0.9,1.2,1.6,2.2c2.4-12-1.5-24-11.4-31.5c-3.7-2.8-7.8-5.9-12.1-6.4c1.7,4.1,3.1,8.2,4.4,12.4
		C44.4,94,44.8,94.2,44.8,94.6z"/>
	<path class="st2" d="M45.7,100.5C45.7,100.6,45.7,100.6,45.7,100.5c0-0.1,0-0.3-0.1-0.4C45.6,100.3,45.7,100.4,45.7,100.5z"/>
	<path class="st2" d="M36.3,191.9c3.7-9.6,6.2-19.7,7.7-29.9c1.5-10.3,2.1-20.8,2-31.2c0-0.7,0-1.5,0-2.2c-0.1-6.3-0.5-12.5-1-18.8
		c-0.4-5-1-10.1-1.6-15.1c0-0.4,0.3-0.7,0.6-0.7c-1.3-4.2-2.7-8.4-4.4-12.4c-2-0.2-4,0.1-6.1,1.1c-5,2.6-9.2,7.9-12.5,12.3
		C8.5,112,2.6,133.2,1.9,154.1c-0.4,11.3,0.7,22.7,2.9,33.8c1,5.2,2.1,10.5,3.7,15.6c1.3,4.3,2.9,10.2,6,13.6c3.1,3.4,6,2.2,8.6-0.4
		c0.3-0.3,0.6-0.7,1-1.1c2.5-3,4.5-7.2,5.7-9.4C32.3,201.6,34.4,196.8,36.3,191.9z"/>
	<path class="st1" d="M85.2,172.3c0.4,0.4,0.9,0.7,1.4,1c2.1,1.1,3.7-0.4,4.7-2.2c0.8-1.4,2.1-4,0.7-5.4c-1.3-1.4-4.3-0.9-5.9-0.4
		c-1.9,0.6-3.5,2.4-3.3,4.4C83,171.1,84,171.8,85.2,172.3z"/>
	<path class="st1" d="M73.2,177.1c0.3-0.8,0.8-1.4,1.4-1.9c1.9,3.5,4.9,5.7,8.2,6.7c0.4,2.2,1,4.4,1.6,6.5c0.6,2,0.8,5,1.9,6.8
		c1.1,1.9,3.1,1.2,5.2,0.8c2.2-0.3,5.2-0.3,5.8-2.8c0.5-2,0-4.6,0.1-6.6c0-2.7,0.1-5.3-0.1-8c0-0.1-0.1-0.2-0.1-0.3
		c1.5-1.4,2.7-3.2,3.6-5.3c0,0.1,0.1,0.2,0.1,0.3c0.2,0.6,1,0.2,0.7-0.3c-0.3-0.7-0.7-1.3-1.3-1.8c-0.2-0.2-0.6,0.1-0.4,0.3
		c0.1,0.2,0.2,0.4,0.4,0.6c-0.1,0-0.2,0.1-0.2,0.2c-4.7,11.4-18.4,12.2-25.3,2.6c0.3-0.3,0.7-0.5,1-0.7c0.4-0.2,0-0.8-0.3-0.6
		c-1.3,0.7-2.2,1.8-2.7,3.2C72.7,177.2,73.1,177.3,73.2,177.1z M96.2,179.2c-0.1,2.7-0.1,5.4-0.1,8.1c0,3.4,0.3,6.4-3.3,7.4
		c-0.5-4.3-1.5-8.5-2.5-12.7C92.4,181.6,94.4,180.6,96.2,179.2z M89.8,182.1c0.7,4.3,1.1,8.6,1.7,12.9c-1.7,0.4-3.2,0.5-4.5-1.4
		c-0.6-0.9-0.8-2.6-1.1-3.7c-0.8-2.7-1.6-5.4-2.5-8C85.5,182.5,87.7,182.6,89.8,182.1z"/>
	<path class="st3" d="M69.3,178.5c-2.5-0.4-5.1,0.3-6.7,2.5c-1.2,1.7-2,4.4-0.8,6.3c0.6,1,1.5,1.9,2.6,2.4c4,1.8,12.2-2.1,10.7-7.2
		C74.5,180,71.5,178.8,69.3,178.5z"/>
	<path class="st3" d="M112.4,169.6c-2.8-0.2-5.9,1.1-7.7,3.2c-1.2,1.2-2.2,2.6-2.2,4.3c0,3,3,4.5,5.7,4c2.8-0.5,5.9-2.6,7.4-5.1
		C117.2,173.3,115.8,169.9,112.4,169.6z"/>
	<path class="st1" d="M61.2,175.4c8-0.9,11.2-8.5,9.5-15.6c-0.2-0.9-1.8-0.8-1.7,0.2c0.3,4.7-2.4,10.3-7.1,11.6
		c-6,1.7-11.2-3.4-11.1-9.3c0-0.5-0.8-0.5-0.8,0c-0.1,3.6-0.1,7,2.3,9.9C54.5,174.7,57.9,175.7,61.2,175.4z"/>
	<path class="st1" d="M112.2,162.7c6.7-2.4,5.7-10.2,3.9-15.4c-0.2-0.6-1-0.3-0.9,0.2c0.8,4,0.6,11.1-4.6,12c-4.5,0.8-7.4-3.8-9.6-7
		c-0.8-1.1-2.7-0.5-2.3,1C100.3,159.2,105.8,165.1,112.2,162.7z"/>
	<path class="st1" d="M54.1,150.3c0.6-1.8,2.4-2.4,4.1-2.7c1.4-0.2,1.9-2.1,1.3-3.1c-0.7-1.2-2.4-1.4-3.4-0.4
		c-1.7,1.7-2.1,3.8-2.8,6C53.1,150.6,53.9,150.8,54.1,150.3z"/>
	<path class="st1" d="M102.2,140.5c0.5-0.3,1.2-0.2,1.8-0.3c0.8-0.2,1.3-0.6,2.1-0.1c0.8,0.5,1.6-0.8,0.8-1.3
		c-0.9-0.6-1.5-1.4-2.5-1.9c-0.5-0.3-1.1-0.4-1.7-0.4c-0.8-0.6-1.9-0.8-2.7,0.1c-0.2,0.2-0.3,0.4-0.5,0.5
		C97.6,138.7,100,141.7,102.2,140.5z"/>
	<path class="st1" d="M87.2,232.9c-23.3,0-42.3,19-42.3,42.3c0,23.3,19,42.3,42.3,42.3s42.3-19,42.3-42.3
		C129.5,251.9,110.6,232.9,87.2,232.9z M87.2,316.6c-22.8,0-41.3-18.5-41.3-41.3c0-22.8,18.5-41.3,41.3-41.3s41.3,18.5,41.3,41.3
		C128.6,298,110,316.6,87.2,316.6z"/>
</g>
</svg>
