<?xml version="1.0" encoding="utf-8"?>
<!-- Generator: Adobe Illustrator 23.0.4, SVG Export Plug-In . SVG Version: 6.00 Build 0)  -->
<svg version="1.1" id="Halloween6" xmlns="http://www.w3.org/2000/svg" xmlns:xlink="http://www.w3.org/1999/xlink" x="0px" y="0px"
	 viewBox="0 0 256.2 384.8" style="enable-background:new 0 0 256.2 384.8;" xml:space="preserve">
<style type="text/css">
	#Halloween6 .st0{fill:none;}
	#Halloween6 .st1{fill:#EFC731;}
	#Halloween6 .st2{fill:#333232;}
	#Halloween6 .st3{fill:#161514;}
</style>
<g>
	<path class="st0" d="M128.2,228.5c-0.7-0.3-1.4-0.6-2.1-0.8c-5.6-2-11.5-3.4-17.6-4.2c-0.6-0.1-1.2-0.1-1.7-0.2
		c-2.5-0.2-5.1-0.4-7.7-0.4c-8.2,0-16.1,1.2-23.6,3.6c-0.5,0.2-1.1,0.4-1.6,0.5c-4.5,1.5-8.8,3.4-12.8,5.6c-0.6,0.3-1.1,0.7-1.7,1
		c-15.3,8.8-27.3,22.6-34,39.1c-0.3,0.8-0.7,1.7-1,2.6c-3.1,8.5-4.8,17.6-4.8,27.1c0,43.8,35.6,79.4,79.4,79.4s79.4-35.6,79.4-79.4
		c0-11.2-2.3-21.9-6.5-31.5c-0.9-2.1-1.9-4.2-3-6.2C160.1,248.3,145.6,235.4,128.2,228.5z"/>
	<path class="st1" d="M122.9,122.4c-3.9-0.1-7.9-0.2-11.8-0.2c-1.1,0-2.3,0-3.4,0c-0.3,0-0.5,0-0.8,0c3.2,5.6,3,12.2,2.5,18.6
		c-0.5,7.2-1.6,14.5-6.4,19.9c4.2-0.4,8.4-0.7,12.6-1c2.7-0.2,5.3-0.3,7.9,0.2C116.6,148.5,119.4,134.7,122.9,122.4z"/>
	<path class="st1" d="M125.6,196.9c-7.8,0.2-15.6,0.4-23.5,0.3c3.5,4.7,4.7,11.9,5.5,17.2c0.3,2,0.5,4.1,0.7,6.1
		c5.9,0.7,11.5,1.9,16.9,3.7C123.3,215.3,123.4,206,125.6,196.9z"/>
	<path class="st1" d="M75.5,199.7c0-0.1,0.1-0.2,0.1-0.3c-0.7,0.2-1.3,0.3-2,0.5c-5.1,1.2-10.5,1.8-15.7,2.6c-0.3,0-0.6,0.1-0.9,0.1
		c0.2,0.5,0.4,1.1,0.6,1.7c2.3,6.4,3.1,13,3.3,19.9c0,1.6,0.1,3.3,0.2,5c3.9-2,8-3.8,12.2-5.2C72,216.2,73.2,207.6,75.5,199.7z"/>
	<path class="st1" d="M74.4,153.8c-0.8-3.6-1.2-7.3-1.4-11c-0.3-7.1,0.8-13.8,2.6-20.6c0.1-0.4,0.2-0.8,0.3-1.2
		c-3,1.1-6.5,0.9-9.9,1.1c-1.3,0.1-2.6,0.2-3.9,0.6c-1.4,0.4-1.9,0.4-2.2,0.9c-0.2,0.3-0.2,0.8-0.2,1.8c-0.3,4.8,0.8,10,0.8,14.9
		c0.1,8.9-1,17.8-4.4,26.1c2.2-0.4,4.4-0.7,6.6-0.9c4.9-0.6,9.9-0.9,14.8-1C76.6,164.4,74.6,154.8,74.4,153.8z"/>
	<path class="st2" d="M65.6,103.5c12.1,0.5,24.2,1.1,36.3,1.3c13.6,0.3,27.2,0.1,40.7-0.7c0.9,0,1.8-0.1,2.7-0.1c0.2,0,0.5,0,0.7,0
		c6.8-0.4,13.7-1,20.5-1.7c-2.7-1.8-5.2-3.7-7.6-5.3c-10.9-7.3-21.7-15-31.3-24C109.3,55.7,98.2,33.5,91.1,9.7
		c-0.1-0.4-0.2-0.8-0.4-1.2c-3.6,20-13.3,38.4-26.1,54.2c-7.3,9-15.5,17.1-24.1,24.7c-6,5.2-12.1,10.3-18.6,14.7
		c10.6,0,21.1,0.4,31.7,0.8C57.6,103.2,61.6,103.3,65.6,103.5z"/>
	<path class="st2" d="M231.1,51.2c-0.4-0.5-0.7-1.1-1.1-1.6c-0.7-1.1-1.4-2.2-2.1-3.3c-5.2-8.6-9.3-17.8-13.1-27.1
		c-0.9-2.2-1.8-4.4-2.7-6.6c-0.8-1.9-1.6-3.9-2.3-5.8c-0.6,2.2-1.3,4.5-1.9,6.6c-2.6,8.3-6,16.2-10.2,23.8c-1.2,2.2-2.5,4.3-3.8,6.5
		c-0.2,0.3-0.3,0.5-0.5,0.8c-6.2,9.7-13.8,19.3-22.8,26.4c7.8,0,15.6,0,23.4,0.1c0.9,0,1.9,0,2.8,0c1.6,0,3.1,0,4.7,0
		c0.8,0,1.7,0,2.5,0c2.6,0,5.1,0,7.7,0c5.4,0,10.8,0,16.2-0.1c1.1,0,2.1,0,3.2,0c5.9-0.1,11.7-0.1,17.6-0.1
		C241.8,65.3,235.9,58.4,231.1,51.2z"/>
	<path class="st2" d="M162.1,220c-2.5-13.4-5.1-26.8-7.7-40.2c-0.7-3.5-1.4-7-2-10.6c-1-5.3-2-10.6-2.9-15.9c-0.1-0.5-0.2-1-0.3-1.5
		c-1-5.5-1.9-11-2.7-16.6c-1.4-9.4-2.8-18.9-3.5-28.4c-1.6,0.1-3.1,0.1-4.7,0.2c-11.6,0.4-23.1,0.3-34.6,0
		c-12.6-0.3-25.2-0.9-37.8-1.5c-4.9-0.2-9.8-0.5-14.7-0.7c-1.7-0.1-3.4-0.2-5.1-0.3c-0.3,1.4-0.5,2.8-0.7,4.3
		c-0.9,5-1.7,10.1-2.4,15.1c-6.3,45.9-6.4,92.7-15.6,138.2c7.6-13.5,18.8-24.6,32.3-32c0-2-0.1-4-0.2-5.9
		c-0.2-5.6-0.6-11.3-2.3-16.7c-0.5-1.8-1.2-3.5-2-5.2c-0.2-0.5-0.1-1.2,0.5-1.3c0.9-0.2,1.8-0.3,2.7-0.5c5.7-1,11.6-2.3,17.4-2.6
		c0.3-0.1,0.6-0.2,0.9-0.3c0.3-0.1,0.7,0.1,0.9,0.3c0,0,0.1,0.1,0.1,0.1c0.1,0.2,0.2,0.4,0.1,0.6c-2.5,7.9-3.9,16.7-2.6,24.8
		c7.6-2.3,15.7-3.6,24.1-3.6c2.5,0,5,0.1,7.5,0.4c0-0.7-0.1-1.4-0.1-2c-0.5-6-1.5-14.6-5.1-20.2c-0.2-0.3-0.4-0.6-0.6-0.9
		c-0.2-0.3-0.5-0.6-0.7-0.8c-0.3-0.3-0.6-0.6-0.9-0.9c0.1-0.1,0.3-0.2,0.6-0.2c0.3,0,0.5,0,0.8,0c8.8,0,17.5,0.1,26.3-0.2
		c0.6,0,1,0.6,0.9,1.1c-2.5,9.5-2.6,19.3-0.4,28.7c16.9,6.1,31.2,17.6,40.9,32.4c-1.6-12.1-3.6-24.1-5.8-36.1
		C162.2,220.8,162.2,220.4,162.1,220z M78.7,165.9c-5.4,0-10.8,0.3-16.1,1c-2.5,0.3-5,0.7-7.5,1.2c-0.8,0.2-1.3-0.6-1-1.3
		c6.1-13.7,5.2-28.7,3.8-43.2c0-0.4-0.1-0.9-0.1-1.3c0-0.3,0.3-0.8,0.6-0.8c2.5-0.3,5.1-0.9,7.7-1.3c3.7-0.7,7.4-1.2,11-0.8
		c0.5,0.1,1,0.5,0.8,1c-0.2,0.5-0.3,1-0.4,1.5c-4,14.3-3.6,29,2,43C79.6,165.4,79.2,165.9,78.7,165.9z M125.3,162.4
		c-3.9-1.9-8.7-1-12.9-0.7c-4,0.3-8,0.6-11.9,1c-0.8,0.1-1.3-1.1-0.7-1.6c6.3-5.4,7.2-13.4,7.8-21.2c0.4-6.2,0.5-12.5-2.9-17.9
		c-0.2-0.3-0.5-0.7-0.7-1c-0.1-0.1-0.1-0.2-0.1-0.3c0.4,0,0.7,0,1.1,0c0.4,0,0.7,0,1.1,0c0.8,0,1.5,0,2.3,0c5.2,0,10.4,0,15.6-0.1
		c0.6,0,1,0.6,0.8,1.1c-3.4,13-7,27.7,1.8,39.4C127.2,162,126.1,162.8,125.3,162.4z"/>
	<path class="st2" d="M204,72.8c-1.3,0-2.6,0-3.9,0c-1.1,0-2.2,0-3.3,0c0,1.5,0.1,2.9,0.1,4.4c0.1,2.5,0.1,5,0.2,7.5
		c0.1,11.8,1.3,24.9-1.6,36.5c-2.8,11.3-12.1,16.2-21.7,21.3c-7,3.7-14.2,7.1-21.6,9.9c0.9,5,1.8,9.9,2.7,14.9c0.9,5,1.9,10,2.9,15
		c2.3,11.8,4.7,23.7,6.8,35.5c10.8-9.8,21.7-19.7,32.5-29.6c5.9-5.5,11.8-11,17.7-16.6c6.2-5.9,10.3-11.3,10.8-20.1
		c1-16.8,1.1-33.8,1.6-50.6c0.3-9.2,0.4-18.5,0.7-27.8c-5.4,0-10.8-0.1-16.2-0.1C209.1,72.9,206.6,72.9,204,72.8z M218.4,87.1
		c-1.7,8.4-1.7,16.7,0.3,25.1c0.1,0.6-0.3,1.2-0.9,1.2c-4.5,0.2-9,0.9-13.4,2c-0.7,0.2-1.4-0.4-1.1-1.1c2.4-7.5,2.5-15.4,0.5-22.9
		c-0.1-0.3-0.1-0.5-0.2-0.8c-0.1-0.4-0.2-0.7-0.3-1.1c0.1,0,0.3,0,0.4,0c0.2,0,0.4,0,0.6,0c4.6,0.2,9,0.1,12.7-3.3
		C217.6,85.6,218.6,86.2,218.4,87.1z"/>
	<path class="st1" d="M204.9,91.4c2.3,7.1,2.4,14.5,0.5,21.8c3.7-0.9,7.4-1.4,11.2-1.7c-1.6-7.5-1.8-15-0.4-22.5
		C212.9,91.2,208.9,91.7,204.9,91.4z"/>
	<path class="st3" d="M253.4,70.8c-2.8-1.9-5.5-3.9-8.1-6.3c-6.6-6.2-12.1-13.5-16.8-21.2c-4.7-7.9-8.5-16.3-12.2-24.7
		c-1.6-3.6-3.2-7.3-4.7-11c-0.4-1-0.9-2-1.3-3c-0.6-1.5-1.2-3-1.7-4.5c-0.1,0.8-0.3,1.5-0.4,2.3c-0.6,3.1-1.3,6.1-2.2,9.2
		c-2.5,8.5-6,16.8-10.2,24.5c-4.2,7.6-9.1,14.8-14.7,21.4c-4.1,4.9-8.8,9.1-13.4,13.4c-0.4,0.4-0.8,0.7-1.1,1.1
		c0.9,0,1.7,0.1,2.6,0.1c8.3,0.3,16.7,0.6,25,0.7c0.1,2.4,0.2,4.8,0.3,7.2c0,0.5,0,1,0,1.5c0.1,5.7,0.4,11.6,0.4,17.4
		c0,0.3,0,0.6,0,1c0,5.9-0.2,11.8-1.1,17.5c-0.8,5.4-2.7,10.7-6.7,14.6c-4,3.8-9.3,6.4-14.1,9c-6.8,3.7-13.8,6.9-21,9.9
		c-0.8-4.3-1.5-8.7-2.2-13c-1.6-10.3-2.8-20.6-4.1-31c8.1-0.4,16.3-1.1,24.3-2.2c1-0.1,2-0.3,3.1-0.4c-0.4-0.1-0.7-0.2-1.1-0.3
		c-0.4-0.1-0.2-0.7,0.2-0.7c0.3,0,0.6,0.1,0.9,0.1c-0.9-0.5-1.7-1-2.6-1.5c-4.4-2.7-8.6-5.8-12.9-8.6c-10.5-7.1-20.9-14.6-30-23.4
		c-18.9-18.3-29.4-42-36.1-67.1c-0.4-1.4-2.2-0.9-2.3,0.3c-2.7,22.5-13.6,43.1-28,60.5C54.5,71.6,47,79.1,39.1,86.1
		c-6.3,5.6-12.7,11.2-19.6,16.1c0,0,0,0-0.1,0.1c0.3,0,0.6-0.1,0.9-0.1c0.4-0.1,0.6,0.6,0.2,0.7c-0.9,0.2-1.8,0.4-2.6,0.6
		c0.7,0,1.3,0.1,2,0.1c8.1,0.3,16.2,0.7,24.4,1.1c-0.4,1.8-0.7,3.7-1,5.5c-0.8,4.6-1.6,9.3-2.3,13.9c-7.3,49.3-7,99.7-18.7,148.4
		c-3.7,9.3-5.7,19.4-5.7,30c0,45.5,37,82.4,82.4,82.4s82.4-37,82.4-82.4c0-14.3-3.7-27.7-10.1-39.5c-1.6-14.7-4-29.3-6.6-43.8
		c12.2-10,24-20.4,35.5-31.1c6.2-5.7,12.4-11.4,18.4-17.3c4.6-4.6,8-9.5,8.9-16.1c1.1-7.7,0.8-15.8,1.1-23.6
		c0.3-9,0.6-17.9,0.9-26.9c0.4-10.3,1-20.7,1.3-31.1c6.8,0,13.6,0,20.4-0.3c1.6-0.1,3.2-0.1,4.8-0.2C255.2,72,254.3,71.4,253.4,70.8
		z M21.8,102.2c6.6-4.4,12.7-9.5,18.6-14.7c8.7-7.6,16.9-15.8,24.1-24.7C77.4,46.9,87.1,28.6,90.7,8.5c0.1,0.4,0.2,0.8,0.4,1.2
		c7.1,23.7,18.2,46,36.5,63.2c9.6,9,20.4,16.7,31.3,24c2.4,1.6,5,3.5,7.6,5.3c-6.8,0.7-13.6,1.3-20.5,1.7c-0.2,0-0.5,0-0.7,0
		c-0.9,0.1-1.8,0.1-2.7,0.1c-13.5,0.7-27.1,0.9-40.7,0.7c-12.1-0.2-24.2-0.8-36.3-1.3c-4-0.2-8.1-0.4-12.1-0.5
		C43,102.6,32.4,102.2,21.8,102.2z M61,224.3c-0.2-6.9-1-13.5-3.3-19.9c-0.2-0.6-0.4-1.1-0.6-1.7c0.3,0,0.6-0.1,0.9-0.1
		c5.2-0.8,10.5-1.4,15.7-2.6c0.7-0.2,1.3-0.3,2-0.5c0,0.1-0.1,0.2-0.1,0.3c-2.4,7.9-3.5,16.4-2.2,24.4c-4.2,1.4-8.3,3.1-12.2,5.2
		C61.1,227.6,61,225.9,61,224.3z M107.7,214.4c-0.8-5.3-2-12.4-5.5-17.2c7.8,0.1,15.6,0,23.5-0.3c-2.2,9.1-2.3,18.4-0.4,27.3
		c-5.4-1.8-11.1-3.1-16.9-3.7C108.2,218.5,108,216.4,107.7,214.4z M178.5,302.4c0,43.8-35.6,79.4-79.4,79.4s-79.4-35.6-79.4-79.4
		c0-9.5,1.7-18.6,4.8-27.1c0.3-0.9,0.7-1.7,1-2.6c6.7-16.5,18.7-30.3,34-39.1c0.6-0.3,1.1-0.7,1.7-1c4.1-2.2,8.4-4.1,12.8-5.6
		c0.5-0.2,1.1-0.4,1.6-0.5c7.4-2.3,15.4-3.6,23.6-3.6c2.6,0,5.1,0.1,7.7,0.4c0.6,0.1,1.2,0.1,1.7,0.2c6.1,0.7,12,2.1,17.6,4.2
		c0.7,0.3,1.4,0.5,2.1,0.8c17.5,6.9,31.9,19.8,40.8,36.2c1.1,2,2.1,4.1,3,6.2C176.2,280.6,178.5,291.2,178.5,302.4z M168.1,257.3
		c-9.7-14.8-24-26.3-40.9-32.4c-2.2-9.4-2.1-19.2,0.4-28.7c0.1-0.6-0.3-1.2-0.9-1.1c-8.8,0.2-17.5,0.2-26.3,0.2c-0.3,0-0.5,0-0.8,0
		c-0.2,0-0.4,0.1-0.6,0.2c0.3,0.3,0.6,0.6,0.9,0.9c0.2,0.3,0.5,0.6,0.7,0.8c0.2,0.3,0.4,0.6,0.6,0.9c3.7,5.6,4.6,14.3,5.1,20.2
		c0.1,0.7,0.1,1.4,0.1,2c-2.5-0.2-5-0.4-7.5-0.4c-8.4,0-16.5,1.3-24.1,3.6c-1.2-8.1,0.1-16.8,2.6-24.8c0.1-0.2,0-0.5-0.1-0.6
		c0,0,0-0.1-0.1-0.1c-0.2-0.2-0.5-0.4-0.9-0.3c-0.3,0.1-0.6,0.2-0.9,0.3c-5.8,0.4-11.7,1.6-17.4,2.6c-0.9,0.2-1.8,0.3-2.7,0.5
		c-0.6,0.1-0.8,0.8-0.5,1.3c0.8,1.7,1.5,3.4,2,5.2c1.6,5.4,2.1,11,2.3,16.7c0.1,1.9,0.2,3.9,0.2,5.9c-13.5,7.4-24.7,18.6-32.3,32
		c9.3-45.5,9.3-92.2,15.6-138.2c0.7-5,1.5-10.1,2.4-15.1c0.2-1.4,0.5-2.8,0.7-4.3c1.7,0.1,3.4,0.2,5.1,0.3c4.9,0.2,9.8,0.5,14.7,0.7
		c12.6,0.6,25.2,1.1,37.8,1.5c11.5,0.3,23,0.3,34.6,0c1.6-0.1,3.1-0.1,4.7-0.2c0.7,9.5,2.1,19,3.5,28.4c0.8,5.5,1.8,11,2.7,16.6
		c0.1,0.5,0.2,1,0.3,1.5c0.9,5.3,1.9,10.6,2.9,15.9c0.7,3.5,1.3,7,2,10.6c2.6,13.4,5.3,26.8,7.7,40.2c0.1,0.4,0.1,0.8,0.2,1.2
		C164.5,233.2,166.5,245.2,168.1,257.3z M227.2,100.8c-0.5,16.9-0.6,33.8-1.6,50.6c-0.5,8.8-4.7,14.2-10.8,20.1
		c-5.8,5.6-11.7,11.1-17.7,16.6c-10.7,9.9-21.6,19.8-32.5,29.6c-2.2-11.9-4.5-23.7-6.8-35.5c-1-5-1.9-10-2.9-15
		c-0.9-5-1.8-9.9-2.7-14.9c7.4-2.9,14.6-6.3,21.6-9.9c9.6-5,18.9-10,21.7-21.3c2.9-11.6,1.8-24.6,1.6-36.5c0-2.5-0.1-5-0.2-7.5
		c0-1.5,0-2.9-0.1-4.4c1.1,0,2.2,0,3.3,0c1.3,0,2.6,0,3.9,0c2.5,0,5.1,0.1,7.6,0.1c5.4,0,10.8,0.1,16.2,0.1
		C227.5,82.3,227.5,91.6,227.2,100.8z M231.1,70.8c-1.1,0-2.1,0-3.2,0c-5.4,0.1-10.8,0.1-16.2,0.1c-2.6,0-5.1,0-7.7,0
		c-0.8,0-1.7,0-2.5,0c-1.6,0-3.1,0-4.7,0c-0.9,0-1.9,0-2.8,0c-7.8,0-15.6,0-23.4-0.1c9-7.2,16.6-16.7,22.8-26.4
		c0.2-0.3,0.3-0.5,0.5-0.8c1.4-2.2,2.6-4.3,3.8-6.5c4.2-7.6,7.6-15.5,10.2-23.8c0.7-2.1,1.3-4.4,1.9-6.6c0.7,2,1.5,3.9,2.3,5.8
		c0.9,2.2,1.8,4.4,2.7,6.6c3.8,9.3,8,18.5,13.1,27.1c0.7,1.1,1.3,2.2,2.1,3.3c0.4,0.5,0.7,1.1,1.1,1.6c4.8,7.1,10.7,14.1,17.6,19.5
		C242.8,70.7,237,70.8,231.1,70.8z"/>
	<path class="st3" d="M77.4,122c0.1-0.5,0.3-1,0.4-1.5c0.2-0.6-0.3-1-0.8-1c-3.5-0.4-7.3,0.1-11,0.8c-2.6,0.5-5.2,1-7.7,1.3
		c-0.3,0-0.7,0.5-0.6,0.8c0,0.4,0.1,0.9,0.1,1.3c1.4,14.5,2.3,29.6-3.8,43.2c-0.3,0.7,0.2,1.4,1,1.3c2.5-0.5,5-0.9,7.5-1.2
		c5.3-0.7,10.7-1.1,16.1-1c0.5,0,1-0.5,0.8-1C73.9,151,73.4,136.3,77.4,122z M62.7,165.3c-2.2,0.3-4.4,0.6-6.6,0.9
		c3.3-8.3,4.5-17.1,4.4-26.1c0-4.9-1.1-10-0.8-14.9c0.1-0.9,0.1-1.4,0.2-1.8c0.2-0.5,0.8-0.5,2.2-0.9c1.2-0.3,2.6-0.5,3.9-0.6
		c3.4-0.2,6.8-0.1,9.9-1.1c-0.1,0.4-0.2,0.8-0.3,1.2c-1.8,6.8-2.9,13.5-2.6,20.6c0.1,3.7,0.6,7.4,1.4,11c0.2,1.1,2.2,10.6,3.2,10.6
		C72.6,164.4,67.6,164.7,62.7,165.3z"/>
	<path class="st3" d="M124.8,121.8c0.1-0.5-0.3-1.1-0.8-1.1c-5.2,0.1-10.4,0.1-15.6,0.1c-0.8,0-1.5,0-2.3,0c-0.4,0-0.7,0-1.1,0
		c-0.4,0-0.7,0-1.1,0c0,0.1,0.1,0.2,0.1,0.3c0.2,0.3,0.5,0.7,0.7,1c3.4,5.3,3.3,11.7,2.9,17.9c-0.5,7.8-1.5,15.8-7.8,21.2
		c-0.6,0.5-0.1,1.7,0.7,1.6c4-0.4,7.9-0.7,11.9-1c4.2-0.3,9-1.2,12.9,0.7c0.7,0.4,1.9-0.5,1.3-1.3
		C117.8,149.4,121.4,134.8,124.8,121.8z M115.6,159.7c-4.2,0.2-8.4,0.6-12.6,1c4.8-5.5,5.9-12.8,6.4-19.9c0.5-6.4,0.6-13-2.5-18.6
		c0.3,0,0.5,0,0.8,0c1.1,0,2.3,0,3.4,0c3.9,0.1,7.9,0.1,11.8,0.2c-3.4,12.3-6.3,26.1,0.7,37.5C121,159.3,118.4,159.5,115.6,159.7z"
		/>
	<path class="st3" d="M204.2,89.5c-0.2,0-0.4,0-0.6,0c-0.1,0-0.3,0-0.4,0c0.1,0.4,0.2,0.7,0.3,1.1c0.1,0.3,0.2,0.5,0.2,0.8
		c2,7.5,1.9,15.4-0.5,22.9c-0.2,0.7,0.5,1.3,1.1,1.1c4.4-1.1,8.8-1.8,13.4-2c0.6,0,1.1-0.6,0.9-1.2c-1.9-8.4-2-16.7-0.3-25.1
		c0.2-0.9-0.8-1.5-1.5-0.9C213.3,89.7,208.8,89.7,204.2,89.5z M216.6,111.6c-3.8,0.2-7.5,0.8-11.2,1.7c1.9-7.3,1.8-14.7-0.5-21.8
		c4,0.3,8-0.2,11.3-2.4C214.8,96.5,215,104.1,216.6,111.6z"/>
	<path d="M20.4,102.1c-0.3,0-0.6,0.1-0.9,0.1c-4.1,0.6-8.6,1.1-12.4-1c-4.2-2.4-6.7-7-5.3-11.8c1.1-3.7,4.5-6,8-6.1
		c1.9,0.4,3.7,1.2,5.2,2.7c1.6,1.6,1.9,3.9,0.7,5.8c-0.6,0.9-1.4,1.7-2.3,2.1c-0.7,0.3-1.9,0.3-2.4,1c-0.4,0.6,0.2,0.9,0.7,1
		c2.5,0.4,5.7,0.7,7.5-1.5c1.6-1.9,0.8-5-0.1-7c-2.6-5.7-9.9-7.6-14.9-3.9C-0.6,87-1.2,94,2,98.6c3.9,5.5,10,5.9,15.9,4.8
		c0.9-0.2,1.8-0.4,2.6-0.6C21,102.7,20.8,102,20.4,102.1z"/>
	<path d="M172,103.9c0.4,0.1,0.7,0.2,1.1,0.3c6.4,1.5,13.3,1.6,17.5-4.5c3.2-4.6,2.6-11.6-2.1-15c-5.1-3.7-12.3-1.8-14.9,3.9
		c-0.9,2-1.7,5.1-0.1,7c1.7,2.1,5.2,2,7.6,1.4c0.6-0.1,1-1,0.3-1.3c-0.4-0.3-1-0.2-1.4-0.4c-3.4-1.1-5-5.6-2.4-8.3
		c1.5-1.5,3.3-2.3,5.2-2.7c3.5,0.1,6.9,2.3,8,6.1c1.4,4.8-1.1,9.5-5.3,11.8c-3.8,2.1-8.2,1.7-12.3,1c-0.3,0-0.6-0.1-0.9-0.1
		C171.7,103.1,171.5,103.7,172,103.9z"/>
</g>
</svg>
