<?xml version="1.0" encoding="utf-8"?>
<!-- Generator: Adobe Illustrator 23.0.4, SVG Export Plug-In . SVG Version: 6.00 Build 0)  -->
<svg version="1.1" id="Rainbow5" xmlns="http://www.w3.org/2000/svg" xmlns:xlink="http://www.w3.org/1999/xlink" x="0px" y="0px"
	 viewBox="0 0 179.5 185.6" style="enable-background:new 0 0 179.5 185.6;" xml:space="preserve">
<style type="text/css">
	#Rainbow5 .st0{fill:#D17FD3;}
	#Rainbow5 .st1{fill:#E2C374;}
	#Rainbow5 .st2{fill:#7FCADB;}
</style>
<g>
	<path class="st0" d="M146.7,34l-10-5.6l-5.3,2.6c5.8,3.8,11.1,8.5,15.6,13.7l1.1-9.2l7.1,7l6.8-1.3c-4.8-6.6-10.5-12.5-16.9-17.5
		L146.7,34z"/>
	<path class="st0" d="M94.6,173.7l2.6-4c-2.5,0.2-4.9,0.4-7.5,0.4c-8.2,0-16-1.3-23.4-3.7l-0.5,1.8l-2.1-2.6c-1.7-0.6-3.3-1.3-4.9-2
		l-2.9,0.2l0.8-1.1C43,155.8,31.5,145,23.9,131.7l-2.2,3l-2.1-7.5l-7.4-2.5l6.4-4.3c-3-8.1-4.6-16.9-4.6-26.1c0-0.8,0-1.6,0.1-2.4
		l-1.2-0.4l-6,4.9l-0.3-7.8l-6-3.9C0.2,88,0,91.1,0,94.3c0,18.7,5.8,36.1,15.6,50.6l7.2,2.1l6-4.9l0.2,7.8l6.5,4.2l-7.3,2.6
		l-0.6,2.4c16.1,15.5,38,25,62.1,25c0.2,0,0.4,0,0.7,0l1.3-4.3l-4.8-6L94.6,173.7z"/>
	<path class="st0" d="M154.6,150.4l-2.1-7.5l-3.7-1.3c-4.6,5.7-9.9,10.7-15.9,14.9l0,1.1l5.2,3.3l-5.8,2.1l-1.6,5.9l-3.8-4.8
		l-6.1,0.3l1.1-1.6c-7,3.3-14.5,5.5-22.5,6.6l1.8,5.1l7.3,2l-6.1,4.6l0.1,2c25.6-3.7,47.7-18.2,61.6-38.8l-4.9-0.2L154.6,150.4z"/>
	<path class="st0" d="M9.3,74.3l4.8,6.1l1.3-0.1c2.6-14.1,9.2-26.9,18.5-37.1l-3.3-8.6l-6.3-1.5C11.3,46.9,2.8,64.7,0.6,84.3
		l6.7-2.5L9.3,74.3z"/>
	<path class="st0" d="M42,27.8l4,4.7c12.4-8.8,27.5-14,43.8-14c13.7,0,26.5,3.7,37.6,10l1.2-6.3l-8-8.2l7.5-0.9
		c-11.3-5.4-24-8.4-37.3-8.6l2.7,1.5l-5.4,2.4l-1.1,5.8L83,9.8l-5.9,0.7l3-5.1L80,5.1C63.9,6.9,49,12.9,36.6,22l7.8-3.2L42,27.8z"/>
	<path class="st0" d="M38.7,35.4L34.1,43c2.6-2.8,5.4-5.4,8.4-7.8L38.7,35.4z"/>
	<path class="st0" d="M174.4,122.7l-3.9-4.4l-5.9,0.7l3-5.1l-2.5-5.4l5.8,1.3l4.3-4l0.6,5.9l1.8,1c1.2-5.9,1.9-12.1,1.9-18.4
		c0-18.8-5.8-36.3-15.8-50.8l-3.1,6.1l4.8,8.8l-9.9-1.5l0,0c2.8,4.8,5,10,6.6,15.4l2.9,3.2l4.6-0.6l-2.3,4l2,4.2l-4.6-0.9l-0.3,0.3
		c0.6,3.9,0.9,7.8,0.9,11.9c0,13.5-3.6,26.2-9.8,37.2l2.1,1.7l7.4-2.3l-2.7,7.3l3,4.2c5-7.9,8.9-16.7,11.2-26l-1.2,0.5L174.4,122.7z
		"/>
	<path class="st1" d="M62.2,163.4l-0.1-0.1l-0.2,0C62,163.4,62.1,163.4,62.2,163.4z"/>
	<path class="st1" d="M148.8,64.3l-1.6-9.9l-9.1-4.2l8.1-4.2c-4.7-5.5-10.1-10.2-16.2-14.1l-3.6,1.8l0.7-3.5
		c-11-6.4-23.7-10.1-37.4-10.1c-16,0-30.7,5.1-42.9,13.7l1.2,1.4l-3.3,0.2c-6.6,5-12.3,11.1-16.9,18l9,0l5.3-7.7l2.8,8.5
		c6.8-7.5,15.4-13.3,25.1-16.7l0.3-1l-5.7-7.4l9.3,0l5.3-7.7l2.9,8.9l9,2.7l-1.7,1.3c0.1,0,0.2,0,0.4,0c9.6,0,18.6,2.3,26.7,6.2
		l2-7.7l6.2,7.9l10-0.6l-5.6,8.3l0.3,0.7c12.4,10.7,20.3,26.4,20.8,43.9l9-0.8l-5,7.9l3.6,8.6L149,106c-1.6,8.2-4.9,15.9-9.5,22.6
		l0.5,0.3l-1,0.4c-1.9,2.7-4,5.2-6.3,7.5l0,0.1l0-0.1c-11,11-26.1,17.9-42.9,17.9c-33.3,0-60.4-27.1-60.4-60.4c0-0.1,0-0.2,0-0.3
		l-3.2,0.1l3.4-4.8c0.1-1.2,0.2-2.3,0.4-3.5l-2-5.4l2.8,0.9c1.1-4.9,2.7-9.5,4.9-13.9l-5.4,1.9l2.9-8.9l-5.5-7.2
		c-5.3,8-9.1,17.2-11,27l5.1-0.3l-4.3,6.4l2.8,7.2l-4.9-1.4c0,0.7-0.1,1.4-0.1,2.1c0,7.8,1.2,15.3,3.4,22.3l0.1-4l6.1,4.8l7.4-2.3
		l-2.7,7.3l4.5,6.4l-7.8-0.3l-1.6,2.1c7.5,13.3,18.9,24.2,32.8,30.8l1.9-2.8l-2.2-5.7l5.9,1.7l4.7-3.9l0.2,6.1l5.2,3.3l-5.8,2.1
		l-0.7,2.8c7.3,2.4,15,3.7,23.1,3.7c2.8,0,5.7-0.2,8.4-0.5l0.6-0.9l0.3,0.8c8.7-1.1,16.9-3.7,24.4-7.5l0.8-1.2l-2.2-5.7l5.9,1.7
		l4.7-3.9l0.1,3.4c5.5-3.9,10.4-8.5,14.6-13.7l-2.3-0.8l5.8-3.9c0.2-0.3,0.4-0.6,0.6-0.9l0.1-7.3l2.9,2.3c6-10.8,9.5-23.1,9.5-36.3
		c0-3.6-0.3-7.2-0.8-10.7l-1.8,1.8l-0.5-4.6l-4.1-2.2l4.2-1.9l0.4-2c-1.6-5.9-3.9-11.5-6.9-16.7L148.8,64.3z"/>
	<path class="st2" d="M128.9,132.1l-6.1,0.3l3.4-5.1l-1.6-4.2c-4.1,4.9-9.2,9-15,11.8l-2.6,6.7l4.3,6.3l-7.6-0.5l-4.1,5.2
		c12.6-2.1,23.8-8.1,32.3-16.8L128.9,132.1z"/>
	<path class="st2" d="M89.8,153.5c3.1,0,6.1-0.2,9-0.7l-1.7-6.7l-7.2-2.6l6.4-4.1l0-0.4c-2.1,0.3-4.3,0.5-6.5,0.5
		c-8.9,0-17.3-2.6-24.3-7.1l0.7,1.1l-7.8-0.3l-4.7,6.2l-2.1-7.5l-7.4-2.5l6.5-4.3l0.1-7.7c-4-6.8-6.4-14.7-6.4-23.1
		c0-1,0-2.1,0.1-3.1l-4,1.4l-2.1,7.5l-4.7-6.2L30.6,94c0,0.1,0,0.2,0,0.3C30.6,127,57.1,153.5,89.8,153.5z"/>
	<path class="st2" d="M147.6,106.8l-6.1,5.2l-0.5-9.3l-6.3-3.8c-0.9,8.7-4.2,16.6-9.3,23.1l4.5,1.3l4.7-3.9l0.2,6.1l3.6,2.3
		C142.8,121.7,146,114.5,147.6,106.8z"/>
	<path class="st2" d="M45.9,54.6l8,2.4l-7.6,5.5l0.2,9.3l-7.6-5.5l-1.8,0.6c-2.4,4.6-4.3,9.6-5.4,14.9l3.5,1.1l6.1-4.8l0.1,7.8
		l3.4,2.3c3.1-22,22-38.9,44.8-38.9c9.4,0,18.2,2.9,25.5,7.9l-0.2-6l-8.5-5.4l9.4-3.5l0.2-0.8c-8-4-16.9-6.2-26.4-6.2
		c-0.7,0-1.4,0-2.1,0.1l-4.1,3l0.2,9.3L76.3,42l-8.8,3.1l2.1-6.4C60.4,42,52.3,47.5,45.9,54.6z"/>
	<path class="st2" d="M137,130l-2.8,1l-0.9,3.4C134.6,133,135.8,131.5,137,130z"/>
	<path class="st2" d="M117.9,59C128.3,67.3,135,80,135,94.3c0,1,0,1.9-0.1,2.8l6.9-2.7l2.1-9.1l5,6.1c-0.7-15.8-7.7-30.1-18.6-40.3
		l2.4,6.1l-9.6-2.7L117.9,59z"/>
	<polygon class="st0" points="131.9,21.3 130.5,28.1 136.8,25 142.9,28.4 141.8,21.5 146.9,16.8 140.1,15.6 137.1,9.3 133.9,15.5 
		127,16.3 	"/>
	<polygon class="st0" points="157.7,49.7 160.4,44.3 154.5,45.4 150.1,41.2 149.4,47.2 144,50 149.5,52.6 150.5,58.6 154.6,54.1 
		160.7,55 	"/>
	<polygon class="st0" points="123.4,43.1 119.7,38.3 118.1,44.2 112.4,46.3 117.6,49.5 117.8,55.6 122.5,51.7 128.4,53.4 
		126.1,47.7 129.5,42.7 	"/>
	<polygon class="st0" points="76.6,39.8 81.7,43.5 81.6,37.1 86.7,33.4 80.6,31.6 78.6,25.6 75,30.8 68.7,30.8 72.6,35.8 70.6,41.9 
			"/>
	<polygon class="st0" points="32,33 34.3,38.9 37.6,33.5 43.9,33.2 39.8,28.3 41.4,22.2 35.6,24.6 30.3,21.2 30.8,27.5 25.8,31.5 	
		"/>
	<polygon class="st0" points="154.3,105.3 151.8,99.5 155.2,94.2 148.9,94.7 144.9,89.8 143.4,96 137.5,98.3 143,101.6 143.3,107.9 
		148.1,103.7 	"/>
	<polygon class="st0" points="41.5,49.9 37.9,55.1 31.5,55.1 35.4,60.1 33.4,66.2 39.4,64 44.5,67.8 44.4,61.4 49.5,57.7 43.4,55.9 
			"/>
	<polygon class="st0" points="15.6,86.2 18.5,81.9 13.3,82.2 10,78 8.7,83.1 3.7,84.9 8.2,87.8 8.4,93 12.4,89.7 17.5,91.1 	"/>
	<polygon class="st0" points="34.8,92.2 37.9,96.4 39.3,91.3 44.3,89.6 39.9,86.7 39.9,81.4 35.7,84.7 30.7,83.1 32.5,88.1 
		29.5,92.4 	"/>
	<polygon class="st0" points="24.6,119.3 20.4,116 20.4,121.3 16,124.2 21,125.9 22.4,131 25.6,126.8 30.8,127 27.8,122.7 
		29.6,117.7 	"/>
	<polygon class="st0" points="157.5,135 153.4,131.7 153.3,137 148.9,139.9 153.9,141.7 155.3,146.7 158.5,142.5 163.8,142.7 
		160.7,138.4 162.5,133.5 	"/>
	<polygon class="st0" points="56.7,124 52.5,120.7 52.5,126 48.1,128.9 53.1,130.6 54.5,135.7 57.6,131.5 62.9,131.7 59.9,127.4 
		61.7,122.4 	"/>
	<polygon class="st0" points="27.5,150.8 27.3,145.5 23.2,148.8 18.2,147.4 20.1,152.3 17.1,156.6 22.4,156.3 25.6,160.5 
		26.9,155.4 31.9,153.6 	"/>
	<polygon class="st0" points="65.3,165.3 66.4,161.2 70.3,159.8 66.8,157.6 66.6,153.4 63.4,156.1 59.4,154.9 60.9,158.8 
		58.6,162.2 62.8,162 	"/>
	<polygon class="st0" points="131.5,154.2 128.3,156.8 124.3,155.7 125.8,159.6 123.5,163 127.6,162.8 130.2,166.1 131.2,162 
		135.1,160.6 131.6,158.4 	"/>
	<polygon class="st0" points="133.5,126.3 133.4,122.2 130.2,124.8 126.2,123.7 127.7,127.5 125.4,131 129.5,130.7 132.1,134 
		133.1,130 137,128.6 	"/>
	<polygon class="st0" points="162,80.1 162.3,83.3 164.6,81.1 167.7,81.7 166.3,78.9 167.9,76.1 164.8,76.6 162.6,74.2 162.1,77.3 
		159.2,78.6 	"/>
	<polygon class="st0" points="174.2,108.5 171.3,111.2 167.4,110.3 169.1,114 167,117.4 171,116.9 173.7,120 174.4,116 178.1,114.4 
		174.6,112.5 	"/>
	<polygon class="st0" points="79.5,9 83.5,8.5 86.2,11.5 87,7.6 90.6,6 87.1,4 86.8,0 83.8,2.7 79.9,1.9 81.6,5.5 	"/>
	<polygon class="st0" points="105,177.3 100,175.9 98.3,171 95.5,175.3 90.3,175.4 93.5,179.5 92,184.4 96.9,182.6 101.1,185.6 
		100.9,180.4 	"/>
	<polygon class="st0" points="102.9,145.8 108,146.1 105.1,141.8 107,137 102,138.5 98.1,135.2 97.9,140.3 93.5,143.1 98.4,144.9 
		99.7,149.9 	"/>
</g>
</svg>
