<?xml version="1.0" encoding="utf-8"?>
<!-- Generator: Adobe Illustrator 23.0.4, SVG Export Plug-In . SVG Version: 6.00 Build 0)  -->
<svg version="1.1" id="Rainbow3" xmlns="http://www.w3.org/2000/svg" xmlns:xlink="http://www.w3.org/1999/xlink" x="0px" y="0px"
	 viewBox="0 0 179.5 135.5" style="enable-background:new 0 0 179.5 135.5;" xml:space="preserve">
<style type="text/css">
	#Rainbow3 .st0{fill:none;}
	#Rainbow3 .st1{fill:#D17FD3;}
	#Rainbow3 .st2{fill:#E2C374;}
	#Rainbow3 .st3{fill:#7FCADB;}
</style>
<g>
	<path class="st0" d="M89.8,46.5c-23.7,0-43,19.3-43,43s19.3,43,43,43c23.7,0,43-19.3,43-43S113.5,46.5,89.8,46.5z"/>
	<path class="st1" d="M89.8,0C40.4,0,0.2,40.1,0,89.5h14C14.2,47.8,48.1,14,89.8,14s75.6,33.8,75.8,75.5h14
		C179.4,40.1,139.2,0,89.8,0z"/>
	<path class="st2" d="M89.8,15.3c-40.9,0-74.3,33.2-74.4,74.1h14c0.2-33.2,27.2-60.1,60.4-60.1s60.3,26.9,60.4,60.1h14
		C164,48.6,130.7,15.3,89.8,15.3z"/>
	<path class="st3" d="M89.8,30.6c-32.6,0-59,26.4-59.2,58.9h13.2c0,0,0,0,0,0c0,25.4,20.6,46,46,46c25.4,0,46-20.6,46-46
		c0,0,0,0,0,0H149C148.8,57,122.3,30.6,89.8,30.6z M89.8,132.5c-23.7,0-43-19.3-43-43s19.3-43,43-43c23.7,0,43,19.3,43,43
		S113.5,132.5,89.8,132.5z"/>
</g>
</svg>
