<?xml version="1.0" encoding="utf-8"?>
<!-- Generator: Adobe Illustrator 23.0.4, SVG Export Plug-In . SVG Version: 6.00 Build 0)  -->
<svg version="1.1" id="Rainbow1" xmlns="http://www.w3.org/2000/svg" xmlns:xlink="http://www.w3.org/1999/xlink" x="0px" y="0px"
	 viewBox="0 0 179.5 179.5" style="enable-background:new 0 0 179.5 179.5;" xml:space="preserve">
<style type="text/css">
	#Rainbow1 .st0{fill:#B22222;}
	#Rainbow1 .st1{fill:#E2C374;}
	#Rainbow1 .st2{fill:#7FCADB;}
</style>
<g>
	<g>
		<path class="st0" d="M89.8,179.5C40.3,179.5,0,139.3,0,89.8C0,40.3,40.3,0,89.8,0s89.8,40.3,89.8,89.8
			C179.5,139.3,139.3,179.5,89.8,179.5z M89.8,14C48,14,14,48,14,89.8c0,41.8,34,75.8,75.8,75.8s75.8-34,75.8-75.8
			C165.5,48,131.5,14,89.8,14z"/>
	</g>
	<g>
		<path class="st1" d="M89.8,164.2c-41,0-74.4-33.4-74.4-74.4s33.4-74.4,74.4-74.4s74.4,33.4,74.4,74.4S130.8,164.2,89.8,164.2z
			 M89.8,29.3c-33.3,0-60.4,27.1-60.4,60.4s27.1,60.4,60.4,60.4s60.4-27.1,60.4-60.4S123.1,29.3,89.8,29.3z"/>
	</g>
	<g>
		<path class="st2" d="M89.8,149c-32.6,0-59.2-26.6-59.2-59.2c0-32.6,26.6-59.2,59.2-59.2S149,57.1,149,89.8
			C149,122.4,122.4,149,89.8,149z M89.8,44.6c-24.9,0-45.2,20.3-45.2,45.2S64.8,135,89.8,135S135,114.7,135,89.8
			S114.7,44.6,89.8,44.6z"/>
	</g>
</g>
</svg>
