<?xml version="1.0" encoding="utf-8"?>
<!-- Generator: Adobe Illustrator 23.0.4, SVG Export Plug-In . SVG Version: 6.00 Build 0)  -->
<svg version="1.1" id="Santa2" xmlns="http://www.w3.org/2000/svg" xmlns:xlink="http://www.w3.org/1999/xlink" x="0px" y="0px"
	 viewBox="0 0 167.4 191.5" style="enable-background:new 0 0 167.4 191.5;" xml:space="preserve">
<style type="text/css">
	#Santa2 .st0{fill:none;}
	#Santa2 .st1{fill:#FFFFFF;}
	#Santa2 .st2{fill:#B22222;}
	#Santa2 .st3{fill:#7C6957;}
</style>
<g>
	<path class="st0" d="M119.7,82.8c-12.1-15.3-30.9-25.2-51.9-25.2c-23.1,0-43.4,11.9-55.2,29.8c-0.1,0.2-0.2,0.3-0.3,0.5
		C5.5,98.2,1.7,110.5,1.7,123.7c0,36.5,29.7,66.1,66.1,66.1s66.1-29.7,66.1-66.1c0-15.3-5.2-29.3-13.9-40.5
		C119.9,83.1,119.8,82.9,119.7,82.8z"/>
	<path class="st1" d="M166.6,129.9c-0.2-0.6-0.7-1.4-1.3-1.8c-0.2-0.1-0.4-0.3-0.7-0.3c-0.4-0.1-0.9,0.2-1.2,0.1
		c-0.4-0.2-0.3-1.4-0.4-1.7c-0.2-0.7-0.7-1.4-1.3-1.9c-1.1-0.9-2.9-1.6-4.2-1.6c-1,0.1-0.9,0.9-1.7,1.2c-0.4,0.2-1.3-0.1-1.8-0.1
		c-0.9,0-2.1-0.1-2.8,0.1c-0.6,0.2-1,0.2-1.6,0.3c-0.6,0.1-1.1,0.2-1.6,0.5c-1.1,0.6-1.7,1.9-1.3,3.1c0,0,0,0,0,0.1
		c0.1,0.4,0.7,1.2,0.5,1.8c-0.2,0.6-1,1-1.4,1.5c-0.9,1.1-1.6,2.4-1.9,3.8c-0.5,3,1.9,5.8,5,5.8c0.2,0,0.7-0.2,1.1-0.4
		c0.6-0.3,0.3-0.2,0.6,0.4c0.4,1,2.1,1.5,3.1,1.7c2.5,0.5,4.8-1.2,5.8-3.4c0.3-0.6,0.3-1.3,0.6-1.9c0.3-0.6,0.4-0.3,0.9-0.1
		c1,0.4,2.2-0.2,3.1-0.8C166,134.9,167.4,132.3,166.6,129.9C166.6,130,166.6,129.9,166.6,129.9z"/>
	<path class="st2" d="M150.2,123.7c0.2,0,2.9-0.5,2.9-0.4c0-0.5,0-1.1-0.1-1.6c-0.1-0.7-0.1-1.3-0.2-2c-0.1-1.4-0.3-2.8-0.4-4.1
		c-0.4-2.6-0.7-5.2-1-7.8c-0.4-4.4-1-8.7-1.5-13.1c-0.5-4.6-0.9-9.2-1.5-13.8c-1.3-9-2.4-18.1-4.6-26.9c-0.8-3.4-2.4-7.4-4-10.8
		c-0.8-1.7-1.8-3.2-3-4.6c-1.3-1.4-2.8-2.3-4.4-3.4c-6.3-4.1-12.9-7.7-19.3-11.6c-3-1.8-5.5-4-8.1-6.4c-2.4-2.1-5-3.9-7.4-6
		c-2.4-2.1-4.9-4.2-7.5-6.1c-2.5-1.9-5.1-3.5-8.2-3.9c-1.7-0.2-3.5-0.6-5.2-0.7c-1.7-0.1-3.3,0.1-5,0.3c-3.3,0.3-6.9,0.3-10,1.3
		c0,0,0,0-0.1,0C59,2.8,56,4.2,53.2,5.1c-3.3,1-6.7,2-9.9,3.2c-2.1,0.8-4.6,1.9-6.2,3.6c-1.7,1.9-2.8,4.4-3.7,6.8
		c-1.8,4.5-3.9,8.9-6,13.3c-2.5,5.3-3.6,11.3-5.5,16.9c-0.9,2.7-1.8,5.5-2.7,8.3c-0.8,2.6-2,5.3-2.5,8c-0.1,0.3-0.1,0.6-0.1,0.9
		c1.7-0.1,1.9-0.1,2.1-1.8c0.2-1.2,0.5-2.4,0.9-3.5c0.9-2.2,2.1-4,4.6-4.3c1.8-0.2,3.2,0.1,4.7,1.1c0.5,0.3,0.9,0.7,1.4,1
		c0.7,0.4,0.7,0.5,0.9-0.2c0.4-1,0.8-2,1.5-2.8c1.3-1.3,3.6-1.2,5.2-0.6c1,0.4,1.2,0.9,1.9,0c0.7-0.7,1.4-1.5,2.4-1.8
		c1-0.3,2.1-0.2,3,0.1c0.7,0.3,1.7,1.1,2.4,1.1c0.6,0,1.1-1.1,1.3-1.5c0.5-0.8,1.1-1.5,1.8-2.1c1.5-1.2,3.2-1.8,5.1-1.4
		c1,0.2,1.8,0.8,2.6,1.5c0.7,0.6,1.3,1.6,2.1,2c0.8-1.4,1.2-2.7,2.4-3.8c1-1,2.1-1.7,3.4-2c3.1-0.9,5,1.4,6.9,3.5
		c0.5,0.6,1,1.2,1.5,1.9c0.2,0.3,0.4,0.6,0.8,0.6c0.4,0,1.1-0.5,1.4-0.7c0.6-0.4,1.2-0.8,1.8-1.1c1.9-1.1,4.3-1.8,6.4-0.9
		c1.1,0.5,1.9,1.5,2.7,2.4c0.6,0.7,0.6,0.5,1.4,0c2.2-1.2,4.5-1.8,6.7-0.3c0.7,0.5,1.6,2.1,2.5,2c0.3,0,0.8-0.5,1.1-0.6
		c0.6-0.3,1.2-0.7,1.8-0.9c2.3-0.9,4.8-0.3,6.1,1.9c0.5,0.9,0.3,1.6,1.5,1.2c1.1-0.4,2.2-0.8,3.2-0.2c1.1,0.6,1.6,1.5,1.8,2.7
		c0.2,0.8,0.1,1.8,1.2,1.6c1.3-0.2,2.9-0.7,4,0.5c0.6,0.6,0.5,1.3,0.7,2c0.2,0.7,0.6,0.6,1.3,0.7c1.4,0.2,2.4,1,2.8,2.4
		c0.4,1.4,0.5,3.5-0.2,4.8c1,0.4,1.9,1.9,2.2,2.6c0.4,1,0.1,2.2,0.4,3.3c0.3,1.2,0.8,2.4,1.1,3.6c2.2,8.9,5.7,18.4,10.4,26.6
		c0.2,0.4,0.8,1.4,1.2,2.1c1.5,2.8,4,5.8,5.8,8.8c1,1.6,2.1,3.1,3.4,4.5C149,122.8,149.3,123.6,150.2,123.7z"/>
	<path class="st1" d="M123.7,71.1c-0.4-0.4-0.2-0.5,0-1c0.2-0.5,0.2-1.1,0.3-1.6c0-1,0-2.1-0.4-3.1c-0.2-0.4-0.8-1.1-1.4-1.3
		c-0.6-0.2-1.5,0-2-0.4c-0.6-0.4-0.4-1-0.5-1.6c-0.1-0.6-0.5-1.1-1.1-1.4c-1.3-0.6-2.7,0.6-3.8,0.1c-1.2-0.5-0.8-2.6-1.5-3.6
		c-0.8-1.1-2.1-1.1-3.3-0.7c-0.5,0.2-1.3,0.6-1.8,0.2c-0.5-0.3-0.5-1.1-0.8-1.5c-1.8-3.1-5.1-1.9-7.6-0.5c-0.6,0.4-1.1,0.6-1.7,0.2
		c-0.6-0.4-1-1-1.5-1.5c-1-0.9-2.3-1.4-3.6-1.2c0,0,0,0-0.1,0c-1,0.1-2.2,0.7-3.3,1.3c-1.4,0.8-1.7-0.4-2.7-1.4
		c-2.1-2.1-4.7-1.8-7.2-0.5c-1.1,0.6-2.4,2-3.7,2.1c-1.1,0.1-1.9-1.8-2.6-2.6c-1-1.1-2.1-2.5-3.4-3.2c-1.2-0.7-2.7-0.5-3.7,0
		c-1.8,0.8-3.3,2.2-4.1,3.9c-0.4,0.8-0.6,2.2-1.7,1.4c-0.9-0.6-1.6-1.6-2.4-2.3c-1.4-1.2-3.6-1.4-5.2-0.5c-0.9,0.5-1.7,1.2-2.3,2
		c-0.6,0.7-1,1.9-1.7,2.4c-0.7,0.5-1.3,0.1-2-0.3c-0.8-0.4-1.6-0.8-2.5-0.9c-0.9-0.1-1.8,0.2-2.6,0.8c-0.5,0.4-0.9,1.1-1.4,1.5
		c-0.7,0.5-1.1,0.2-1.8-0.1c-0.8-0.4-1.6-0.6-2.5-0.5c-2.1,0-3.1,1.1-3.8,3c-0.3,0.9-0.5,1.6-1.6,1c-0.9-0.5-1.6-1.1-2.5-1.6
		c-1.5-0.8-3.5-0.9-5-0.3c-1.7,0.7-2.7,3.1-3.2,4.7c-0.3,1-0.5,2.1-0.6,3.1C19,66.1,19,66.7,18,66.7c-1.7,0-3.7-0.2-4.9,1.2
		c-1.1,1.3-1,3.2-0.3,4.6c0.3,0.5,1.1,1.2,0.6,1.7c-0.2,0.2-1,0.4-1.3,0.6c-0.5,0.3-0.8,0.6-1.2,1.1c-0.9,1.1-2,3.6-0.3,4.6
		c0.7,0.4,1.7,0.1,2.3,0.4c0.7,0.4-0.2,1.4-0.5,1.8c-0.5,0.8-0.9,2-0.9,3c12.2-18,32.8-29.9,56.2-29.9c21.7,0,41.1,10.3,53.5,26.2
		c0.7-0.5,1.2-1.1,1.3-2c0.1-0.6-0.1-1.2-0.5-1.6c-0.2-0.3-0.9-0.7-0.6-1.2c0.2-0.3,1.2-0.2,1.5-0.2c0.6-0.1,1.2-0.2,1.6-0.6
		c1.8-1.4,1.1-3.5-0.3-4.9C124.2,71.4,123.9,71.3,123.7,71.1z"/>
	<path class="st3" d="M167.1,129.5c-0.4-1.2-1.8-2.8-3.3-2.3c-0.2-2.6-2-4.1-4.3-4.8c-1-0.3-2.2-0.6-3.1,0.1
		c-0.2,0.2-0.4,0.7-0.7,0.8c-0.1,0.1-1-0.1-1.2-0.1c-0.3,0-0.5,0-0.8,0c0.2-0.4-0.1-1.2-0.1-1.6c-0.1-0.6-0.1-1.3-0.2-1.9
		c-0.1-1.2-0.2-2.4-0.4-3.6c-0.3-2.2-0.5-4.4-0.8-6.6c-0.6-4.6-1-9.2-1.6-13.7c-0.6-4.5-0.8-9-1.5-13.5c-0.7-4.4-1.2-8.8-1.9-13.2
		c-1.4-8.9-3.2-17.9-7-26.1c-0.9-1.9-2-3.6-3.5-5.1c-1.5-1.5-3.4-2.6-5.2-3.8c-3.7-2.5-7.7-4.5-11.3-6.7c-3.9-2.4-8-4.5-11.5-7.3
		c-1.7-1.4-3.2-3-5-4.4c-1.6-1.2-3.2-2.4-4.7-3.7C95.9,9.1,92.7,6.2,89,3.8c-1.7-1.1-3.5-2.3-5.5-2.8c-2.1-0.4-4.3-0.8-6.4-0.9
		c-2.2-0.2-4.6,0.2-6.8,0.4c-2.4,0.2-4.9,0.3-7.2,0.8c-2.2,0.4-4.3,1.3-6.4,2.1c-2.2,0.8-4.5,1.4-6.7,2.1c-2.3,0.7-4.6,1.5-6.9,2.4
		c-1.9,0.8-4.1,1.7-5.7,3.1c-3,2.6-4.3,7-5.8,10.5c-1.5,3.4-3,6.8-4.6,10.2c-2,4.2-3,8.7-4.3,13.1c-1.4,4.6-3,9.2-4.5,13.9
		c-0.6,2-1.4,3.9-1.9,6c-0.1,0.3-0.1,1.3-0.3,1.6c-0.2,0.2-1.2,0.2-1.5,0.3c-1,0.3-1.8,1-2.3,2c-0.8,1.8-0.3,4,0.9,5.5
		c-1.8,0.6-3.2,2.1-3.7,3.9c-0.3,0.9-0.2,2,0.6,2.8c0.7,0.7,1.8,0.8,2.7,0.8c-0.8,1.4-2,3.4-1.4,5C4.1,97.2,0,110,0,123.7
		c0,37.4,30.4,67.8,67.8,67.8s67.8-30.4,67.8-67.8c0-15.5-5.2-29.7-13.9-41.1c0.2-0.1,0.4-0.3,0.6-0.5c1.3-1.3,1.2-3.1,0-4.4
		c1.6-0.1,2.9-0.3,3.7-1.8c0.3,1,0.5,1.9,0.8,2.9c1.4,5,3,10.3,4.8,15.3c1.8,4.9,4.1,9.7,6.7,14.1c1.5,2.6,3.5,5.4,5.3,8
		c1.8,2.7,3.6,5.2,5.7,7.6c-1.6,0.3-3,1.5-3.1,3.2c0,0.8,0.4,1.4,0.6,2.1c0.2,0.6-0.1,0.6-0.6,1.1c-2.2,2.2-4,6.3-1.5,9
		c1.2,1.3,2.7,2.2,4.5,2.1c0.3,0,0.9-0.3,1.1-0.3c0.1,0,0.5,0.7,0.6,0.8c0.6,0.5,1.5,0.8,2.2,1.1c3.6,1.1,7.1-1.8,7.7-5.3
		c1.2,0.7,2.9-0.1,3.8-0.8c1.1-0.8,2-1.9,2.4-3.2C167.4,132.3,167.5,130.8,167.1,129.5z M133.9,123.7c0,36.5-29.7,66.1-66.1,66.1
		S1.7,160.2,1.7,123.7c0-13.2,3.9-25.5,10.6-35.8c0.1-0.2,0.2-0.3,0.3-0.5c11.8-17.9,32.2-29.8,55.2-29.8c21,0,39.8,9.9,51.9,25.2
		c0.1,0.1,0.2,0.3,0.3,0.4C128.7,94.4,133.9,108.5,133.9,123.7z M124.7,76.5c-0.5,0.4-1.1,0.5-1.6,0.6c-0.3,0-1.3-0.1-1.5,0.2
		c-0.3,0.4,0.3,0.8,0.6,1.2c0.4,0.5,0.5,1,0.5,1.6c-0.1,0.9-0.6,1.5-1.3,2c-12.4-15.9-31.8-26.2-53.5-26.2
		c-23.3,0-44,11.9-56.2,29.9c-0.1-1,0.4-2.2,0.9-3c0.2-0.4,1.2-1.4,0.5-1.8c-0.6-0.4-1.6,0-2.3-0.4c-1.7-1-0.6-3.4,0.3-4.6
		c0.3-0.4,0.7-0.8,1.2-1.1c0.3-0.2,1.1-0.3,1.3-0.6c0.5-0.6-0.3-1.2-0.6-1.7c-0.7-1.4-0.8-3.3,0.3-4.6c1.2-1.4,3.2-1.2,4.9-1.2
		c1,0,1-0.6,1.1-1.5c0.1-1.1,0.3-2.1,0.6-3.1c0.5-1.7,1.4-4,3.2-4.7c1.5-0.6,3.6-0.5,5,0.3c0.9,0.5,1.6,1.1,2.5,1.6
		c1.1,0.6,1.3-0.1,1.6-1c0.7-1.9,1.7-3,3.8-3c0.9,0,1.7,0.2,2.5,0.5c0.7,0.3,1.1,0.6,1.8,0.1c0.5-0.4,0.9-1.1,1.4-1.5
		c0.7-0.6,1.6-0.8,2.6-0.8c0.9,0.1,1.7,0.5,2.5,0.9c0.6,0.3,1.3,0.7,2,0.3c0.7-0.6,1.2-1.7,1.7-2.4c0.6-0.8,1.4-1.5,2.3-2
		c1.6-0.9,3.8-0.6,5.2,0.5c0.9,0.7,1.5,1.7,2.4,2.3c1.1,0.8,1.3-0.6,1.7-1.4c0.8-1.8,2.3-3.2,4.1-3.9c1-0.5,2.5-0.7,3.7,0
		c1.3,0.7,2.4,2.1,3.4,3.2c0.7,0.8,1.4,2.6,2.6,2.6c1.3-0.1,2.6-1.5,3.7-2.1c2.5-1.3,5.1-1.6,7.2,0.5c1,1,1.3,2.2,2.7,1.4
		c1-0.6,2.2-1.2,3.3-1.3c0,0,0,0,0.1,0c1.3-0.2,2.6,0.3,3.6,1.2c0.5,0.5,1,1.1,1.5,1.5c0.6,0.4,1.1,0.2,1.7-0.2
		c2.5-1.4,5.8-2.6,7.6,0.5c0.3,0.5,0.3,1.2,0.8,1.5c0.6,0.4,1.3-0.1,1.8-0.2c1.2-0.4,2.5-0.4,3.3,0.7c0.7,0.9,0.2,3,1.5,3.6
		c1.2,0.5,2.6-0.6,3.8-0.1c0.6,0.3,1,0.8,1.1,1.4c0.1,0.6-0.1,1.2,0.5,1.6c0.6,0.4,1.4,0.2,2,0.4c0.7,0.2,1.3,0.9,1.4,1.3
		c0.4,1,0.5,2.1,0.4,3.1c0,0.5-0.1,1.1-0.3,1.6c-0.2,0.6-0.4,0.6,0,1c0.2,0.2,0.5,0.3,0.8,0.5C125.9,73,126.6,75.1,124.7,76.5z
		 M148.4,122.1c-1.2-1.4-2.4-2.9-3.4-4.5c-1.9-2.9-4.3-5.9-5.8-8.8c-0.4-0.7-0.9-1.6-1.2-2.1c-4.7-8.2-8.2-17.7-10.4-26.6
		c-0.3-1.2-0.8-2.4-1.1-3.6c-0.3-1.1,0-2.3-0.4-3.3c-0.3-0.7-1.1-2.3-2.2-2.6c0.7-1.3,0.6-3.4,0.2-4.8c-0.4-1.4-1.4-2.2-2.8-2.4
		c-0.7-0.1-1.1,0-1.3-0.7c-0.2-0.8-0.1-1.4-0.7-2c-1.1-1.2-2.8-0.7-4-0.5c-1.1,0.2-1-0.8-1.2-1.6c-0.2-1.2-0.7-2.2-1.8-2.7
		c-1.1-0.5-2.2-0.1-3.2,0.2c-1.2,0.4-0.9-0.3-1.5-1.2c-1.3-2.2-3.8-2.8-6.1-1.9c-0.6,0.2-1.2,0.6-1.8,0.9c-0.3,0.1-0.8,0.6-1.1,0.6
		c-0.9,0.1-1.8-1.5-2.5-2c-2.2-1.5-4.6-1-6.7,0.3c-0.8,0.5-0.8,0.7-1.4,0c-0.8-0.9-1.6-1.9-2.7-2.4c-2.1-1-4.5-0.2-6.4,0.9
		c-0.6,0.3-1.2,0.8-1.8,1.1c-0.3,0.2-1,0.7-1.4,0.7c-0.4,0-0.5-0.3-0.8-0.6c-0.5-0.6-0.9-1.3-1.5-1.9c-1.9-2.1-3.8-4.4-6.9-3.5
		c-1.3,0.4-2.5,1.1-3.4,2c-1.2,1.1-1.6,2.4-2.4,3.8c-0.8-0.5-1.5-1.4-2.1-2c-0.7-0.7-1.6-1.3-2.6-1.5c-1.9-0.4-3.6,0.2-5.1,1.4
		c-0.7,0.6-1.3,1.3-1.8,2.1c-0.3,0.4-0.7,1.5-1.3,1.5c-0.7,0-1.8-0.8-2.4-1.1c-1-0.4-2-0.4-3-0.1c-1,0.3-1.7,1.1-2.4,1.8
		c-0.8,0.8-1,0.4-1.9,0c-1.6-0.6-3.9-0.7-5.2,0.6c-0.8,0.8-1.2,1.8-1.5,2.8C31,59.1,31,59,30.4,58.6c-0.5-0.3-0.9-0.7-1.4-1
		c-1.5-0.9-3-1.2-4.7-1.1c-2.6,0.2-3.7,2-4.6,4.3c-0.5,1.1-0.8,2.3-0.9,3.5c-0.2,1.7-0.4,1.7-2.1,1.8c0-0.3,0.1-0.6,0.1-0.9
		c0.4-2.7,1.6-5.4,2.5-8c0.9-2.8,1.8-5.5,2.7-8.3c1.9-5.6,3-11.6,5.5-16.9c2.1-4.4,4.1-8.8,6-13.3c1-2.4,2-4.8,3.7-6.8
		c1.6-1.7,4.1-2.8,6.2-3.6C46.5,7,49.8,6,53.2,5.1C56,4.2,59,2.8,61.7,2.1c0,0,0.1,0,0.1,0c3.1-1,6.8-1,10-1.3
		c1.6-0.1,3.3-0.4,5-0.3c1.7,0.1,3.5,0.5,5.2,0.7c3.2,0.4,5.7,2.1,8.2,3.9c2.6,1.9,5.1,4,7.5,6.1c2.4,2.1,5,3.9,7.4,6
		c2.6,2.3,5.1,4.5,8.1,6.4c6.5,3.9,13,7.5,19.3,11.6c1.5,1,3.1,2,4.4,3.4c1.3,1.4,2.2,2.9,3,4.6c1.6,3.4,3.1,7.4,4,10.8
		c2.3,8.8,3.4,17.9,4.6,26.9c0.6,4.6,1,9.2,1.5,13.8c0.5,4.4,1.1,8.7,1.5,13.1c0.3,2.6,0.6,5.2,1,7.8c0.2,1.4,0.3,2.7,0.4,4.1
		c0.1,0.7,0.1,1.3,0.2,2c0,0.5,0.1,1.1,0.1,1.6c0-0.1-2.7,0.4-2.9,0.4C149.3,123.6,149,122.8,148.4,122.1z M164.1,136.3
		c-0.8,0.6-2,1.2-3.1,0.8c-0.5-0.2-0.6-0.5-0.9,0.1c-0.3,0.6-0.3,1.3-0.6,1.9c-1.1,2.2-3.3,3.9-5.8,3.4c-1-0.2-2.7-0.7-3.1-1.7
		c-0.2-0.6,0-0.7-0.6-0.4c-0.4,0.2-0.9,0.4-1.1,0.4c-3.1,0-5.5-2.7-5-5.8c0.2-1.4,1-2.7,1.9-3.8c0.4-0.4,1.2-0.9,1.4-1.5
		c0.2-0.6-0.4-1.4-0.5-1.8c0,0,0,0,0-0.1c-0.4-1.2,0.2-2.4,1.3-3.1c0.5-0.3,1.1-0.4,1.6-0.5c0.6-0.1,1-0.2,1.6-0.3
		c0.7-0.2,2-0.1,2.8-0.1c0.4,0,1.4,0.3,1.8,0.1c0.7-0.3,0.6-1.2,1.7-1.2c1.4-0.1,3.2,0.7,4.2,1.6c0.6,0.5,1.1,1.1,1.3,1.9
		c0.1,0.4,0,1.6,0.4,1.7c0.3,0.1,0.8-0.2,1.2-0.1c0.2,0.1,0.5,0.2,0.7,0.3c0.6,0.4,1.1,1.2,1.3,1.8c0,0,0,0,0,0.1
		C167.4,132.3,166,134.9,164.1,136.3z"/>
</g>
</svg>
