<?xml version="1.0" encoding="utf-8"?>
<!-- Generator: Adobe Illustrator 23.0.4, SVG Export Plug-In . SVG Version: 6.00 Build 0)  -->
<svg version="1.1" id="Unicorn6" xmlns="http://www.w3.org/2000/svg" xmlns:xlink="http://www.w3.org/1999/xlink" x="0px" y="0px"
	 viewBox="0 0 161.4 210.2" style="enable-background:new 0 0 161.4 210.2;" xml:space="preserve">
<style type="text/css">
	#Unicorn6 .st0{fill:none;}
	#Unicorn6 .st1{fill:#E585AC;}
	#Unicorn6 .st2{fill:#7FCADB;}
	#Unicorn6 .st3{fill:#DDCB99;}
</style>
<g>
	<g>
		<g>
			<path class="st0" d="M88.3,113.2c-26.2-4.2-50.9,13.6-55.1,39.7C29,179.1,46.8,203.8,73,208c26.2,4.2,50.9-13.6,55.1-39.7
				C132.3,142.1,114.5,117.4,88.3,113.2z"/>
			<path class="st1" d="M83.9,17.2c-0.3-2.2-0.5-4.5-0.8-6.7c0,0,0-0.1,0-0.1c-0.3-2.4-0.7-4.8-1.4-7.1C81.1,1.7,80.2,0,78.5,0
				c-1.4-0.1-2.3,1-2.9,2.3c-1.5,3.4-1.6,7.8-2.1,11.4c-1.2,8.1-2.3,16.2-3.3,24.3c-2.1,16.9-3.8,33.9-5.3,50.9
				c-0.4,4.6-1.1,9.4-1,14c0.3,7.4,11.8,6.8,16.9,6.4c3-0.2,8.6,0.1,10.9-2.6c0.7-0.7,1.1-1.8,1.2-2.9c0.5-3.7-0.3-7.8-0.6-11.4
				c-0.7-8.4-1.5-16.8-2.4-25.2C88.2,50.5,86.3,33.8,83.9,17.2z"/>
			<path class="st1" d="M37.5,130.8c0.8-1.3,1.7-2.7,2.4-4.2c1.8-3.8,2.7-8.2,0.8-12c-0.2-0.4-0.4-0.8-0.7-1.2
				c-2.8-5.5-8.4-9.6-14-11.9c-8.5-3.6-17.7-4.9-25.5-10c-0.2-0.2-0.5,0-0.5,0.3c0.1,12.9,0.3,27.6,9.6,37.7c3.5,3.8,7.9,6.7,13,7.7
				c0.4,0.1,0.8,0.1,1.2,0.2c2.5,0.3,5,0.2,7.3-0.7C33.9,135.5,35.9,133.3,37.5,130.8z"/>
			<path class="st1" d="M160.9,91.4c-7.8,5.2-17,6.4-25.5,10c-5.6,2.4-11.2,6.4-14,11.9c-0.3,0.4-0.5,0.8-0.7,1.2
				c-1.9,3.8-1,8.1,0.8,12c0.7,1.5,1.5,2.9,2.4,4.2c1.6,2.4,3.6,4.7,6.4,5.7c2.3,0.9,4.9,1,7.3,0.7c0.4-0.1,0.8-0.1,1.2-0.2
				c5.1-1,9.5-3.9,13-7.7c9.3-10.1,9.5-24.7,9.6-37.7C161.4,91.5,161.1,91.3,160.9,91.4z"/>
			<path class="st2" d="M88.6,111.7c-19-3.1-37.3,5.2-47.9,19.7c-4.5,6.1-7.6,13.3-8.9,21.3c-0.1,0.6-0.2,1.2-0.2,1.7
				c-3.3,26.3,14.8,50.8,41.2,55.1c27,4.4,52.5-14,56.8-41C133.9,141.6,115.6,116.1,88.6,111.7z M128.1,168.3
				c-4.2,26.2-29,44-55.1,39.7c-26.2-4.2-44-29-39.7-55.1c4.2-26.2,29-44,55.1-39.7C114.5,117.4,132.3,142.1,128.1,168.3z"/>
		</g>
		<path class="st2" d="M62.2,110.5l-2.4-1c-0.7-0.3-1.5-0.1-1.9,0.5l-1.7,2c-0.9,1.1-2.7,0.6-2.9-0.9l-0.3-2.6
			c-0.1-0.7-0.7-1.3-1.4-1.4l-2.6-0.5c-1.4-0.3-1.9-2.1-0.7-3l2.1-1.6c0.6-0.4,0.8-1.2,0.6-1.9L50,97.8c-0.5-1.4,0.9-2.7,2.2-2.1
			l2.4,1c0.7,0.3,1.5,0.1,1.9-0.5l1.7-2c0.9-1.1,2.7-0.6,2.9,0.9l0.3,2.6c0.1,0.7,0.7,1.3,1.4,1.4l2.6,0.5c1.4,0.3,1.9,2.1,0.7,3
			l-2.1,1.6c-0.6,0.4-0.8,1.2-0.6,1.9l0.9,2.4C64.9,109.8,63.6,111.1,62.2,110.5z"/>
		<path class="st2" d="M104.8,110.5l-2.4-1c-0.7-0.3-1.5-0.1-1.9,0.5l-1.7,2c-0.9,1.1-2.7,0.6-2.9-0.9l-0.3-2.6
			c-0.1-0.7-0.7-1.3-1.4-1.4l-2.6-0.5c-1.4-0.3-1.9-2.1-0.7-3l2.1-1.6c0.6-0.4,0.8-1.2,0.6-1.9l-0.9-2.4c-0.5-1.4,0.9-2.7,2.2-2.1
			l2.4,1c0.7,0.3,1.5,0.1,1.9-0.5l1.7-2c0.9-1.1,2.7-0.6,2.9,0.9l0.3,2.6c0.1,0.7,0.7,1.3,1.4,1.4l2.6,0.5c1.4,0.3,1.9,2.1,0.7,3
			l-2.1,1.6c-0.6,0.4-0.8,1.2-0.6,1.9l0.9,2.4C107.5,109.8,106.2,111.1,104.8,110.5z"/>
		<path class="st2" d="M83.5,115.4l-2.4-1c-0.7-0.3-1.5-0.1-1.9,0.5l-1.7,2c-0.9,1.1-2.7,0.6-2.9-0.9l-0.3-2.6
			c-0.1-0.7-0.7-1.3-1.4-1.4l-2.6-0.5c-1.4-0.3-1.9-2.1-0.7-3l2.1-1.6c0.6-0.4,0.8-1.2,0.6-1.9l-0.9-2.4c-0.5-1.4,0.9-2.7,2.2-2.1
			l2.4,1c0.7,0.3,1.5,0.1,1.9-0.5l1.7-2c0.9-1.1,2.7-0.6,2.9,0.9l0.3,2.6c0.1,0.7,0.7,1.3,1.4,1.4l2.6,0.5c1.4,0.3,1.9,2.1,0.7,3
			l-2.1,1.6c-0.6,0.4-0.8,1.2-0.6,1.9l0.9,2.4C86.2,114.6,84.8,115.9,83.5,115.4z"/>
	</g>
	<circle class="st3" cx="57.2" cy="103.1" r="1.7"/>
	<circle class="st3" cx="99.8" cy="103.1" r="1.7"/>
	<circle class="st3" cx="78.5" cy="107.9" r="1.7"/>
</g>
</svg>
