<?xml version="1.0" encoding="UTF-8" standalone="no"?>
<svg
   xmlns:dc="http://purl.org/dc/elements/1.1/"
   xmlns:cc="http://creativecommons.org/ns#"
   xmlns:rdf="http://www.w3.org/1999/02/22-rdf-syntax-ns#"
   xmlns:svg="http://www.w3.org/2000/svg"
   xmlns="http://www.w3.org/2000/svg"
   xmlns:sodipodi="http://sodipodi.sourceforge.net/DTD/sodipodi-0.dtd"
   xmlns:inkscape="http://www.inkscape.org/namespaces/inkscape"
   version="1.1"
   id="l10"
   x="0px"
   y="0px"
   viewBox="158.44810485839844 161.90786743164062 683.1038818359375 676.1842041015625"
   width="100%"
   height="100%"
    class="withFill"
   style="enable-background:new 0 0 1000 1000;"
   xml:space="preserve"
   ><style
     type="text/css"
     id="style3">
	#l10 .st0{fill:#9E9E9E;}
	#l10 .st1{fill:#FFFFFF;}
</style><switch
     id="switch5"
     transform="translate(0.16304799,-0.06713648)"><g
       id="g7"><g
         id="g9"><g
           id="g11"><path
             class="st0"
             d="m 573.9,188.9 0,0 c 20.7,17.4 46.9,26.9 73.9,26.9 l 0,0 c 55.8,0 103.6,40.1 113.2,95 l 0,0 c 4.7,26.6 18.6,50.7 39.3,68.1 l 0,0 c 42.7,35.9 53.6,97.3 25.7,145.6 l 0,0 c -13.5,23.4 -18.4,50.8 -13.7,77.5 l 0,0 c 9.7,55 -21.5,108.9 -73.9,128 l 0,0 c -25.4,9.2 -46.7,27.1 -60.3,50.6 l 0,0 c -27.9,48.3 -86.5,69.6 -138.9,50.6 l 0,0 c -25.4,-9.2 -53.3,-9.2 -78.7,0 l 0,0 c -52.4,19.1 -111,-2.2 -138.9,-50.6 l 0,0 C 308.1,757.2 286.7,739.3 261.3,730 l 0,0 C 208.9,710.9 177.7,656.9 187.4,602 l 0,0 c 4.7,-26.6 -0.1,-54.1 -13.7,-77.5 l 0,0 C 145.8,476.2 156.6,414.8 199.4,378.9 l 0,0 c 20.7,-17.4 34.6,-41.5 39.3,-68.1 l 0,0 c 9.7,-55 57.4,-95 113.2,-95 l 0,0 c 27,0 53.2,-9.5 73.9,-26.9 l 0,0 c 43,-35.9 105.4,-35.9 148.1,0 z"
             id="path13"
             inkscape:connector-curvature="0"
             style="fill:#9e9e9e" /></g><g
           id="g15"><path
             class="st1"
             d="m 427.7,813 c -37.7,0 -73.7,-19.8 -93.5,-54.1 -12.1,-21 -31.3,-37.1 -54,-45.4 -49.4,-18 -78.6,-68.6 -69.5,-120.3 4.2,-23.8 -0.1,-48.5 -12.3,-69.5 -26.3,-45.5 -16.1,-103.1 24.1,-136.8 18.5,-15.6 31.1,-37.3 35.3,-61.1 9.1,-51.8 53.9,-89.3 106.4,-89.3 24.2,0 47.8,-8.6 66.3,-24.1 40.3,-33.8 98.7,-33.8 139,0 l 0,0 c 18.5,15.6 42.1,24.1 66.3,24.1 52.6,0 97.3,37.6 106.4,89.3 4.2,23.8 16.7,45.5 35.3,61.1 40.3,33.8 50.4,91.3 24.1,136.8 -12.1,21 -16.5,45.6 -12.3,69.5 9.1,51.8 -20.1,102.4 -69.5,120.3 -22.7,8.3 -41.9,24.4 -54,45.4 -26.3,45.5 -81.2,65.5 -130.6,47.5 -22.7,-8.3 -47.8,-8.3 -70.6,0 -12.1,4.5 -24.6,6.6 -36.9,6.6 z M 500,191.9 c -23.5,0 -47.1,8.1 -66.3,24.2 -19.4,16.3 -44.1,25.3 -69.5,25.3 -50.2,0 -92.9,35.8 -101.6,85.2 -4.4,25 -17.5,47.7 -37,64 -38.4,32.2 -48.1,87.2 -23,130.6 12.7,22 17.2,47.8 12.8,72.8 -8.7,49.4 19.2,97.7 66.3,114.8 23.8,8.7 44,25.6 56.6,47.5 25.1,43.4 77.5,62.5 124.6,45.4 23.8,-8.7 50.1,-8.7 73.9,0 47.1,17.2 99.5,-1.9 124.6,-45.4 12.7,-22 32.8,-38.8 56.6,-47.5 47.1,-17.2 75,-65.5 66.3,-114.8 -4.4,-25 0.2,-50.8 12.8,-72.8 25.1,-43.4 15.4,-98.4 -23,-130.6 -19.4,-16.3 -32.6,-39 -37,-64 -8.7,-49.4 -51.4,-85.2 -101.6,-85.2 -25.4,0 -50,-9 -69.5,-25.3 l 0,0 C 547.1,200 523.5,191.9 500,191.9 Z"
             id="path17"
             inkscape:connector-curvature="0"
             style="fill:#ffffff" /></g></g></g></switch></svg>