<?xml version="1.0" encoding="UTF-8" standalone="no"?>
<svg
   xmlns:dc="http://purl.org/dc/elements/1.1/"
   xmlns:cc="http://creativecommons.org/ns#"
   xmlns:rdf="http://www.w3.org/1999/02/22-rdf-syntax-ns#"
   xmlns:svg="http://www.w3.org/2000/svg"
   xmlns="http://www.w3.org/2000/svg"
   xmlns:sodipodi="http://sodipodi.sourceforge.net/DTD/sodipodi-0.dtd"
   xmlns:inkscape="http://www.inkscape.org/namespaces/inkscape"
   version="1.1"
   id="Layer_1"
   x="0px"
   y="0px"
   viewBox="0 0 1000 1000"
   width="100%"
   height="100%"
   style="enable-background:new 0 0 1000 1000;"
   xml:space="preserve"
   ><style
     type="text/css"
     id="style3">
	.noFillSVG{fill:none;}
</style><switch
     id="switch5"
     transform="translate(-61.95,-18.4)"><g
       id="g7"><g
         id="g9"><polygon
           class="noFillSVG"
           points="367.1,420.2 351.9,411.5 319.3,420.2 "
           id="polygon11"
           style="fill:none" /><polygon
           class="noFillSVG"
           points="520.1,420.2 492.9,400.2 495,420.2 "
           id="polygon13"
           style="fill:none" /><polygon
           class="noFillSVG"
           points="603.3,420.2 626.5,420.2 628.5,401.8 "
           id="polygon15"
           style="fill:none" /><path
           d="m 228.6,426.4 666.7,0 c 1.7,0 3.1,-1.4 3.1,-3.1 0,-1.7 -1.4,-3.1 -3.1,-3.1 l -56.4,0 -7.3,-12.2 -30,-8 29.6,-17.1 5.4,-20.6 -20.2,-5 -29.6,17.1 8,-30 -10.1,-18.2 -18.5,10.6 -15.7,58.5 -17.1,9.9 10.3,-38.3 -8,-14.6 -14.8,8.4 -15.9,59.5 -49.1,0 4.4,-40.8 33.9,-20 0.6,-72.8 -62.8,37 -0.3,39.7 -55.6,40.7 0,-62.5 44.8,-44.8 -0.1,-17 -16.6,0.3 -28.1,28 0,-19.7 42.9,-42.9 -0.1,-21.3 -20.8,0.4 -22,22 0,-34.1 -15.1,-15 -14.4,15 0,34.1 -22,-22 -20.8,-0.4 -0.1,21.3 42.9,42.9 0,19.7 -28.1,-28 -16.6,-0.3 -0.1,17 44.8,44.8 0,61.9 -57.2,-41.9 -0.3,-39.3 -62.8,-36.9 0.6,72.8 34.2,20.1 4.6,42 -39.6,0 -13.4,-7.8 -16.4,-61.1 -14.8,-8.5 -8,14.6 10.3,38.3 -17.1,-9.9 -15.7,-58.5 -18.5,-10.6 -10,18.3 8,30 -29.6,-17.1 -20.5,5.6 5.8,20 29.6,17.1 -30,8 -10.8,17.8 6.5,3.8 -52.8,0 c -1.7,0 -3.1,1.4 -3.1,3.1 -0.1,1.7 1.3,3.1 3,3.1 z m 397.9,-6.2 -23.2,0 25.2,-18.4 -2,18.4 z m -133.6,-20 27.3,20 -25.2,0 -2.1,-20 z m -141,11.3 15.2,8.7 -47.8,0 32.6,-8.7 z"
           id="path17"
           inkscape:connector-curvature="0" /><path
           d="m 895.3,643 -666.7,0 c -1.7,0 -3.1,1.4 -3.1,3.1 0,1.7 1.4,3.1 3.1,3.1 l 60.4,0 -8.3,4.8 -5.4,20.6 20.2,5 29.6,-17.1 -8,30 10.1,18.2 18.5,-10.6 13.7,-51 14.5,0 -5.6,20.9 8.1,14.6 14.8,-8.5 7.2,-27 61.2,0 -0.9,8.3 -33.9,19.9 -0.6,72.8 62.8,-36.9 0.3,-39.7 33.4,-24.4 15.3,0 0,46.3 -44.8,44.8 0.1,17 16.6,-0.3 28.1,-28.1 0,19.7 -42.9,42.9 0.1,21.3 20.8,-0.4 22,-22 0,34.1 15.1,15 14.4,-15 0,-34.1 22,22 20.8,0.4 0.1,-21.3 -42.9,-42.9 0,-19.7 28.1,28.1 16.6,0.3 0.1,-17 -44.8,-44.8 0,-46.3 28.3,0 35.8,26.2 0.3,39.3 62.8,36.9 -0.6,-72.8 -34.2,-20.1 -1,-9.5 49.2,0 9.8,36.4 14.8,8.4 8.1,-14.6 -8.1,-30.3 11.3,0 3.2,1.8 15.7,58.5 18.5,10.6 10.1,-18.2 -8,-30 29.6,17.1 20.5,-5.6 -5.8,-20 -24.8,-14 94.3,0 c 1.7,0 3.1,-1.4 3.1,-3.1 0,-1.7 -1.4,-3.1 -3.1,-3.1 z"
           id="path19"
           inkscape:connector-curvature="0" /></g></g></switch></svg>