<?xml version="1.0" encoding="utf-8"?>
<!-- Generator: Adobe Illustrator 21.1.0, SVG Export Plug-In . SVG Version: 6.00 Build 0)  -->
<svg version="1.1"
	 id="Layer_1" xmlns:cc="http://creativecommons.org/ns#" xmlns:dc="http://purl.org/dc/elements/1.1/" xmlns:inkscape="http://www.inkscape.org/namespaces/inkscape" xmlns:rdf="http://www.w3.org/1999/02/22-rdf-syntax-ns#" xmlns:sodipodi="http://sodipodi.sourceforge.net/DTD/sodipodi-0.dtd" xmlns:svg="http://www.w3.org/2000/svg"
	 xmlns="http://www.w3.org/2000/svg" xmlns:xlink="http://www.w3.org/1999/xlink" x="0px" y="0px" viewBox="0 0 612 792"
	 style="enable-background:new 0 0 612 792;" xml:space="preserve">
<sodipodi:namedview  bordercolor="#666666" borderopacity="1" gridtolerance="10" guidetolerance="10" id="namedview21" inkscape:current-layer="Layer_1" inkscape:cx="23.305085" inkscape:cy="500" inkscape:pageopacity="0" inkscape:pageshadow="2" inkscape:window-height="480" inkscape:window-maximized="0" inkscape:window-width="671" inkscape:window-x="0" inkscape:window-y="34" inkscape:zoom="0.236" objecttolerance="10" pagecolor="#ffffff" showgrid="false">
	</sodipodi:namedview>
<g id="g15">
	<g>
		<path d="M376,431.6c-14.5,23.3-40.3,38.9-69.7,38.9c-29.5,0-55.4-15.7-69.9-39.2c-1.1,1.7-2.2,3.4-3.3,5.2
			c-3.5,9.4-2.3,17.4,2.3,26.5c5.2,8.8,13,16.2,21,22.2c16.7,12.8,34,23.3,49.7,37.3c15.7-14,33-24.5,49.7-37.3
			c8-6.1,15.8-13.5,21-22.2c4.5-9.1,5.7-17,2.3-26.5C378,434.8,377,433.2,376,431.6z"/>
		<path d="M491.8,67.8c-4-10.1-10.6-21.8-22.6-22.3c-2-0.1-2.9,2.1-2.1,3.7c6.4,13.8,15.2,35.3,12.7,50.9c-0.9,5.6-4.4,11-9.7,12.9
			c-8.3,2.9-14.1-4.5-16.8-11.2c-5.7-14.1-4.1-30.1-1.7-44.7c1.3-7.4,2.1-14.7-3.8-20.3c-1.1-1-2.5-0.9-3.6,0
			c-13.8,11.5-8.6,36.5-8.3,52.1c0.5,21.6,0.7,43.4-2.3,64.9c-2,10.6-5.2,20.9-10.3,30.5c1.2-2.3,1.2-7.9,1.8-10.7
			c1-4.9,1.9-9.8,2.4-14.7c0.6-5.3,1-12.2-2.4-16.6c-9.6-12.1-18.9,22.1-20.3,27.4c-2.8,10.8-6.8,21.5-13.5,30.4
			c-6.9,9.1-16.6,16.2-25,23.8c1.7-7.6,3.2-15.2,4.5-22.8c0.6-2.1,1.2-4.1,1.7-6.2c2.2-8.4,4.1-17.1,4-25.9
			c-0.1-4.7-0.3-11-5.4-13.2c-11.6-4.9-14.6,14.4-16.2,21.1c-2.8,11.6-5.2,23.2-8.6,34.6c-3.4,11.2-7.8,22.2-14.3,31.9
			c-9.7,14.6-24.9,24.8-41.1,12.9c-4.5-3.3-8-8.2-11.1-12.8c-6.5-9.8-11-20.8-14.3-32c-3.4-11.4-5.8-23.1-8.6-34.6
			c-1.7-6.7-4.7-26-16.2-21.1c-5.1,2.1-5.3,8.5-5.4,13.2c-0.1,8.7,1.9,17.5,4,25.9c0.6,2.1,1.1,4.1,1.7,6.2
			c1.2,7.7,2.8,15.2,4.5,22.8c-8.4-7.6-18.1-14.7-25-23.8c-6.7-8.9-10.8-19.6-13.5-30.4c-1.3-5.3-10.6-39.5-20.3-27.4
			c-3.5,4.4-3,11.4-2.4,16.6c0.5,5,1.4,9.9,2.4,14.7c0.6,2.8,0.6,8.4,1.8,10.7c-5.1-9.5-8.3-19.8-10.3-30.5
			c-3-21.5-2.7-43.3-2.3-64.9c0.3-15.5,5.6-40.6-8.3-52.1c-1.1-0.9-2.6-1-3.6,0c-5.8,5.6-5,12.8-3.8,20.3c2.4,14.6,4,30.7-1.7,44.7
			c-2.8,6.8-8.6,14.1-16.8,11.2c-5.3-1.9-8.8-7.3-9.7-12.9c-2.5-15.6,6.2-37,12.7-50.9c0.7-1.6-0.1-3.8-2.1-3.7
			c-12,0.5-18.6,12.2-22.6,22.3c-6.1,15.4-7.7,30.8-3.5,47c4.4,17.3,12.7,35.6,23.1,50.2c8.3,11.8,18.9,22,25.5,34.9
			c-0.2,0.1-0.5,0.1-0.7,0.2c-5.1,1.7-10.1-4.7-14.7-5.9c-2.3-0.6-4.8,0.3-6.6,1.8c-0.6,0.5-1.2,1-1.5,1.8c-1,2.7,3.1,5,4.8,6.4
			c1.7,1.4,3.5,2.8,5.4,4c3.9,2.6,8,4.5,11.9,6.7c14.1,7.8,28.3,15.1,42.9,21.8c13.5,6.2,27.8,12.9,37.9,24.2l4.2,5.3
			c3.2,3,2.6,4.5-1.8,4.4c-5.1,2.1-8-1.5-11.9-4.2c-6.9-4.6-13.4-9.4-20.5-13.6c-13.4-7.9-27.4-14.3-42.1-19.2
			c-1.3-0.4-2.6-0.9-3.9-1.3c-2.6-0.8-5.2,1.4-5.2,4c0.1,18.5,9.4,36.5,19.3,51.7c4,6.1,8.8,11.8,15.1,15.7
			c9,5.6,19.9,6.9,28.9,12.5c7.4,4.7,13.5,11,18.1,18.3c15-17.2,37.1-28,61.6-28v0c24.4,0,46.4,10.8,61.4,27.8
			c4.6-7.2,10.6-13.4,18-18c9-5.8,19.9-7,28.9-12.5c6.3-3.9,11.1-9.7,15.1-15.7c10-15.2,19.3-33.2,19.3-51.7c0-2.6-2.6-4.8-5.2-4
			c-1.3,0.4-2.6,0.9-3.9,1.3c-14.7,5-28.8,11.4-42.1,19.2c-7.1,4.2-13.6,9-20.5,13.6c-4,2.7-6.9,6.3-11.9,4.2
			c-4.4,0.1-5-1.4-1.8-4.4l4.2-5.3c10-11.3,24.4-18,37.9-24.2c14.6-6.8,28.8-14,42.9-21.8c4-2.3,8.1-4.1,11.9-6.7
			c1.8-1.2,3.7-2.6,5.4-4c1.7-1.3,5.8-3.7,4.8-6.4c-0.2-0.7-0.9-1.3-1.5-1.8c-1.8-1.4-4.3-2.4-6.6-1.8c-4.6,1.2-9.5,7.5-14.7,5.9
			c-0.2-0.1-0.5-0.2-0.7-0.2c6.5-13,17.1-23.1,25.5-34.9c10.3-14.6,18.7-32.9,23.1-50.2C499.5,98.6,498,83.2,491.8,67.8z"/>
	</g>
	<path id="path19" inkscape:connector-curvature="0" d="M306.3,302.6c-47.4,0-85.9,38.6-85.9,85.9c0,47.4,38.6,85.9,85.9,85.9
		c47.4,0,85.9-38.6,85.9-85.9S353.7,302.6,306.3,302.6L306.3,302.6z M306.3,470.5c-45.2,0-81.9-36.8-81.9-81.9
		c0-45.2,36.8-81.9,81.9-81.9s81.9,36.8,81.9,81.9S351.5,470.5,306.3,470.5z"/>
</g>
</svg>
