<?xml version="1.0" encoding="UTF-8" standalone="no"?>
<svg
   xmlns:dc="http://purl.org/dc/elements/1.1/"
   xmlns:cc="http://creativecommons.org/ns#"
   xmlns:rdf="http://www.w3.org/1999/02/22-rdf-syntax-ns#"
   xmlns:svg="http://www.w3.org/2000/svg"
   xmlns="http://www.w3.org/2000/svg"
   xmlns:sodipodi="http://sodipodi.sourceforge.net/DTD/sodipodi-0.dtd"
   xmlns:inkscape="http://www.inkscape.org/namespaces/inkscape"
   version="1.1"
   id="Layer_1"
   x="0px"
   y="0px"
   viewBox="79.2447509765625 -104.10777282714844 841.510498046875 793.0194091796875"
   width="100%"
   height="100%"
   style="enable-background:new 0 0 1000 1000;"
   xml:space="preserve"
   ><style
     type="text/css"
     id="style3">
	.noFillSVG{fill:none;}
	.st1{fill:#F70000;}
</style><switch
     id="switch5"
     transform="translate(0,-207.62712)"><g
       id="g7"><g
         id="g9"><g
           id="g11"><path
             class="noFillSVG"
             d="m 499.7,535.3 c -74,0 -134.2,73.2 -134.2,163.1 0,89.9 60.2,163.1 134.2,163.1 74,0 134.2,-73.2 134.2,-163.1 0,-90 -60.2,-163.1 -134.2,-163.1 z"
             id="path13"
             inkscape:connector-curvature="0"
             style="fill:none" /><path
             d="M 499.7,527.1 C 420.5,527.1 356,604 356,698.4 c 0,94.5 64.5,171.3 143.7,171.3 79.2,0 143.7,-76.9 143.7,-171.3 0,-94.5 -64.5,-171.3 -143.7,-171.3 z m 0,334.4 c -74,0 -134.2,-73.2 -134.2,-163.1 0,-89.9 60.2,-163.1 134.2,-163.1 74,0 134.2,73.2 134.2,163.1 0,89.9 -60.2,163.1 -134.2,163.1 z"
             id="path15"
             inkscape:connector-curvature="0" /></g><path
           d="m 428.2,529.4 c 0.2,-1.2 0.2,-2.5 -0.2,-3.7 -0.9,-3.3 -3.5,-6 -5.9,-8.7 C 402.4,495.2 390.9,469.3 376.6,444.8 359.3,415.2 343,385.1 329,354.2 316.6,326.9 311.2,297 311.8,267.3 c 0.5,-28.6 11.2,-60 -6.3,-86.5 -3.1,-4.7 -7.1,-9.1 -12.3,-12.1 -20.5,-11.9 -38.3,5.3 -36.3,23 1.1,10.3 -0.8,36.1 -21.2,27.4 -5,-2.1 -8.7,-6 -12.1,-9.8 -29.9,-33.7 -48.3,-76.4 -92.6,-98.9 -14.4,-7.3 -33.9,-11.5 -45.7,1.6 -14.3,15.7 -0.7,35.3 14.2,46 15.3,11.1 34.3,18 49.1,29.6 8.8,6.9 28,31.4 5.2,35.4 -16.4,2.9 -31.9,-12 -49.2,-10 -14.6,1.7 -22.5,12.4 -20.6,24.4 2.9,18.8 25.2,25.3 43.6,29.9 37.6,9.4 75.5,23.3 104.5,46.4 4.2,3.3 8.3,7 10.4,11.5 5.1,10.8 -1.8,25.7 -15.2,29.2 -19.8,5.2 -33.6,-15.6 -52.6,-16.3 -18.9,-0.7 -30.9,12.6 -27.5,28.4 4.7,21.8 36.3,33.5 56.4,42.6 65.6,29.6 122.2,67.6 146.2,130 0.1,0.1 0.2,0.2 0.3,0.3 3.7,5.5 5.6,11.4 7.2,17.4 -0.3,-1.2 17.8,-7.7 19.7,-8.4 12.8,-5.1 25.8,-7.5 39.3,-10.6 2.7,-0.6 5.5,-1.4 7.8,-2.8 2.4,-1.5 3.7,-3.4 4.1,-5.6 z"
           id="path17"
           inkscape:connector-curvature="0" /><path
           class="st1"
           d="m 504.9,832.2 c -20.3,0 -37.6,14.7 -37.5,32.2 0.1,16.9 15.9,31.2 35.6,32.1 22,0.9 38.2,-14 39.4,-32.1 -1.1,-17.5 -16.2,-32.2 -37.5,-32.2 z"
           id="path19"
           inkscape:connector-curvature="0"
           style="fill:#f70000" /><path
           d="m 246.1,483.1 c 0.7,-4.1 7.4,-3.2 8.7,0 8.8,21.1 26.7,40.8 49.4,52.1 20.4,10.2 47.5,12.5 66.1,25.4 11.8,8.2 8.2,18.2 6.5,30.4 -1.6,11.5 -2.9,23.1 -4.5,34.6 -0.8,5.8 -1.7,11.5 -2.7,17.3 -0.9,4.9 -2.1,9.4 -1.6,14.4 0.3,2.6 -0.8,5.6 -4.5,4.5 -2.6,-0.7 -3.8,-4.4 -5,-6.1 -2.7,-3.7 -6.3,-7.1 -10,-10.1 -7.5,-5.9 -16.6,-10.1 -25.9,-13.6 -19.1,-7.2 -40,-11.3 -57.6,-21.1 -7,-3.9 -13.2,-8.7 -18.2,-14.4 -27.2,-31.7 -6.7,-78.7 -0.7,-113.4 z"
           id="path21"
           inkscape:connector-curvature="0" /><path
           d="m 571.8,529.4 c -0.2,-1.2 -0.2,-2.5 0.2,-3.7 0.9,-3.3 3.5,-6 5.9,-8.7 19.7,-21.8 31.2,-47.7 45.5,-72.2 17.3,-29.6 33.6,-59.7 47.6,-90.6 12.4,-27.3 17.8,-57.2 17.2,-86.9 -0.5,-28.6 -11.2,-60 6.3,-86.5 3.1,-4.7 7.1,-9.1 12.3,-12.1 20.5,-11.9 38.3,5.3 36.3,23 -1.1,10.3 0.8,36.1 21.2,27.4 5,-2.1 8.7,-6 12.1,-9.8 29.9,-33.7 48.3,-76.4 92.6,-98.9 14.4,-7.3 33.9,-11.5 45.7,1.6 14.3,15.7 0.7,35.3 -14.2,46 -15.3,11.1 -34.3,18 -49.1,29.6 -8.8,6.9 -28,31.4 -5.2,35.4 16.4,2.9 31.9,-12 49.2,-10 14.4,1.7 22.3,12.4 20.4,24.4 -2.9,18.8 -25.2,25.3 -43.6,29.9 -37.6,9.4 -75.5,23.3 -104.5,46.4 -4.2,3.3 -8.3,7 -10.4,11.5 -5.1,10.8 1.8,25.7 15.2,29.2 19.8,5.2 33.6,-15.6 52.6,-16.3 18.9,-0.7 30.9,12.6 27.5,28.4 -4.7,21.8 -36.3,33.5 -56.4,42.6 -65.6,29.6 -122.2,67.6 -146.2,130 -0.1,0.1 -0.2,0.2 -0.3,0.3 -3.7,5.5 -5.6,11.4 -7.2,17.4 0.3,-1.2 -17.8,-7.7 -19.7,-8.4 -12.8,-5.1 -25.8,-7.5 -39.3,-10.6 -2.7,-0.6 -5.5,-1.4 -7.8,-2.8 -2.2,-1.5 -3.5,-3.4 -3.9,-5.6 z"
           id="path23"
           inkscape:connector-curvature="0" /><path
           d="m 753.9,483.1 c -0.7,-4.1 -7.4,-3.2 -8.7,0 -8.8,21.1 -26.7,40.8 -49.4,52.1 -20.4,10.2 -47.5,12.5 -66.1,25.4 -11.8,8.2 -8.2,18.2 -6.5,30.4 1.6,11.5 2.9,23.1 4.5,34.6 0.8,5.8 1.7,11.5 2.7,17.3 0.9,4.9 2.1,9.4 1.6,14.4 -0.3,2.6 0.8,5.6 4.5,4.5 2.6,-0.7 3.8,-4.4 5,-6.1 2.7,-3.7 6.3,-7.1 10,-10.1 7.5,-5.9 16.6,-10.1 25.9,-13.6 19.1,-7.2 40,-11.3 57.6,-21.1 7,-3.9 13.2,-8.7 18.2,-14.4 27.2,-31.7 6.7,-78.7 0.7,-113.4 z"
           id="path25"
           inkscape:connector-curvature="0" /><g
           id="g27"><path
             d="m 630.2,542.8 c 0,-1 0,-1.9 0,-2.9 -0.3,-7.2 -3.2,-13.6 -6.5,-20.1 -4.5,-8.9 -8.3,-14.6 -6.3,-24.7 1,-5.1 5.2,-9.6 6.7,-14.6 3,-9.7 2.8,-22 -9.5,-26.8 -14.7,-5.7 -39.8,0.7 -54,5.2 -15.2,4.8 -30,12 -41.7,21.7 -5.1,-3.6 -11.4,-5.7 -18.9,-5 -7.5,-0.7 -13.8,1.4 -18.9,5 -11.8,-9.7 -26.5,-16.9 -41.7,-21.7 -14.1,-4.4 -39.3,-10.9 -54,-5.2 -12.3,4.8 -12.5,17.1 -9.5,26.8 1.6,5 5.7,9.5 6.7,14.6 2,10.1 -1.8,15.9 -6.3,24.7 -3.3,6.5 -6.2,12.9 -6.5,20.1 0,0.9 -0.1,1.9 0,2.9 -28,13.8 -49,37.9 -42.5,67 0.4,1.7 3,2.1 4.3,1 5.4,-4.7 20.8,-18.2 27.6,-9.2 2,2.7 1.7,14.1 1.9,17.2 0.9,13.4 0.2,26.8 -1.3,40.2 -0.4,3.7 6.3,4.2 7.4,0.9 8.7,-26.6 22.9,-51 44,-71.7 20.7,2 45.6,-5 59.8,-12.9 5.4,-3 18,-11.4 19.9,-19.1 3.1,0.6 6.2,0.7 9.2,0.6 3.1,0.2 6.2,0 9.2,-0.6 1.9,7.7 14.4,16 19.8,19.1 14.3,7.9 39.2,14.9 59.9,12.9 21.1,20.7 35.2,45 44,71.7 1.1,3.4 7.8,2.9 7.4,-0.9 -1.6,-13.4 -2.2,-26.8 -1.3,-40.2 0.2,-3.1 -0.1,-14.5 1.8,-17.2 6.8,-8.9 22.2,4.5 27.6,9.2 1.3,1.1 4,0.7 4.3,-1 6.4,-29.1 -14.6,-53.3 -42.6,-67 z m -47,-83.1 c 9.1,-1.1 19.1,-3.7 27,1.9 6.9,5 8.2,13.3 5.5,20.4 -1.7,4.5 -4.4,8.8 -6,13.3 -5,14.1 3.4,24 8.3,36.8 0.7,2 1.3,4.1 1.9,6.2 0.4,1.8 0.8,3.6 1,5.5 1.1,9 -0.1,18.4 -5.4,26.1 -13.3,19 -27.6,5.7 -40.9,-2.5 -9.6,-5.9 -19.2,-11.7 -30.3,-15.6 -3.5,-1.2 -11.4,-3.8 -18.8,-4.8 5.9,-6.9 8,-16.3 9.3,-24.7 11,1.1 20.6,4.9 30.3,9.5 1.7,0.8 3,-1.2 1.5,-2.2 -6.6,-4.3 -13.9,-7.3 -21.6,-9.6 15,-4.8 28.2,-17.6 31.8,-29.9 0.4,-1.3 -1.6,-1.9 -2.4,-0.9 -5.7,7 -12,13.8 -20.3,18.7 -5.9,3.4 -12.4,5.3 -18.8,7.5 -0.2,-11.2 -4.6,-24.4 -13.4,-32.5 18.5,-11.6 37.7,-20.3 61.3,-23.2 z m -204.1,84.1 c 0.2,-1.9 0.6,-3.7 1,-5.5 0.5,-2.1 1.1,-4.2 1.9,-6.2 4.8,-12.8 13.3,-22.7 8.3,-36.8 -1.6,-4.5 -4.3,-8.8 -6,-13.3 -2.6,-7.1 -1.4,-15.4 5.5,-20.4 7.9,-5.7 17.9,-3.1 27,-1.9 23.7,2.9 42.9,11.6 61.3,23.4 -8.7,8.2 -13.2,21.3 -13.4,32.5 -6.4,-2.2 -12.9,-4.1 -18.8,-7.5 -8.3,-4.9 -14.6,-11.7 -20.3,-18.7 -0.9,-1.1 -2.9,-0.5 -2.4,0.9 3.6,12.3 16.8,25 31.8,29.9 -7.7,2.3 -15,5.3 -21.6,9.6 -1.5,0.9 -0.2,3 1.5,2.2 9.7,-4.6 19.3,-8.4 30.3,-9.5 1.3,8.4 3.4,17.8 9.3,24.7 -7.4,0.9 -15.2,3.5 -18.8,4.8 -11,3.9 -20.7,9.6 -30.3,15.6 -13.3,8.2 -27.6,21.5 -40.9,2.5 -5.3,-7.9 -6.6,-17.3 -5.4,-26.3 z m -12.8,96 c -0.9,-14.8 -2.4,-29.6 -4.9,-44.3 -0.1,-0.8 -1.2,-1.1 -1.9,-0.9 -10.9,1.5 -19.6,4.7 -27.9,10.3 -3.8,-26.1 15.3,-43.6 38.6,-56.5 1.6,12.3 7.8,26.1 18.7,33.2 1.9,1.2 3.8,2 5.7,2.4 3.5,1.6 7.3,2.7 11.3,3.4 -17.2,15.2 -30.8,32.7 -39.6,52.4 z m 113.1,-76.2 c -4.4,4.1 -9.8,7.3 -15.5,9.9 -12,5.6 -31.1,10.6 -48.3,10.3 -1.7,0 -3.4,-0.1 -5.1,-0.2 -1.6,-0.1 -3.2,-0.3 -4.8,-0.6 7.6,-2.8 14.9,-9.1 21.3,-13.1 11.8,-7.3 24.2,-14.7 38.5,-17.8 13,-2.8 24.7,1.7 13.9,11.5 z m 20.7,-14.2 c -16.4,-1.6 -26.7,-15.1 -27.8,-28.3 -0.9,-10.9 2.5,-25.5 12.9,-32.7 17.2,-11.9 36.1,2.4 40.5,17.3 2.1,7 1.8,14.3 0.2,21.4 -2.4,11 -10.6,23.7 -25.8,22.3 z m 84.3,34.4 c -17.2,0.3 -36.2,-4.7 -48.3,-10.3 -5.6,-2.6 -11,-5.8 -15.4,-9.9 -10.8,-9.8 0.9,-14.3 13.8,-11.6 14.4,3.1 26.7,10.5 38.5,17.8 6.4,3.9 13.7,10.2 21.3,13.1 -1.6,0.2 -3.2,0.5 -4.8,0.6 -1.7,0.2 -3.4,0.3 -5.1,0.3 z m 83.9,21.1 c -8.2,-5.6 -16.9,-8.9 -27.8,-10.3 -0.7,-0.1 -1.8,0.2 -1.9,0.9 -2.4,14.7 -4,29.5 -4.9,44.3 -8.7,-19.8 -22.4,-37.3 -39.6,-52.4 4.1,-0.7 7.8,-1.8 11.3,-3.4 1.9,-0.5 3.8,-1.2 5.7,-2.4 10.9,-7.1 17.1,-20.8 18.7,-33.2 23.3,13 42.4,30.5 38.5,56.5 z"
             id="path29"
             inkscape:connector-curvature="0" /><path
             class="st1"
             d="m 668.3,604.9 c -8.2,-5.6 -16.9,-8.9 -27.8,-10.3 -0.7,-0.1 -1.8,0.2 -1.9,0.9 -2.4,14.7 -4,29.5 -4.9,44.3 -8.7,-19.8 -22.4,-37.3 -39.6,-52.4 4.1,-0.7 7.8,-1.8 11.3,-3.4 1.9,-0.5 3.8,-1.2 5.7,-2.4 10.9,-7.1 17.1,-20.8 18.7,-33.2 23.3,13 42.4,30.5 38.5,56.5 z"
             id="path31"
             inkscape:connector-curvature="0"
             style="fill:#f70000" /><path
             class="st1"
             d="m 594.3,583 c -1.6,0.2 -3.2,0.5 -4.8,0.6 -1.7,0.2 -3.3,0.2 -5.1,0.2 -17.2,0.3 -36.2,-4.7 -48.3,-10.3 -5.6,-2.6 -11,-5.8 -15.4,-9.9 -10.8,-9.8 0.9,-14.3 13.8,-11.6 14.4,3.1 26.7,10.5 38.5,17.8 6.3,4 13.6,10.3 21.3,13.2 z"
             id="path33"
             inkscape:connector-curvature="0"
             style="fill:#f70000" /><path
             class="st1"
             d="m 615.5,569.9 c -13.3,19 -27.6,5.7 -40.9,-2.5 -9.6,-5.9 -19.2,-11.7 -30.3,-15.6 -3.5,-1.2 -11.4,-3.8 -18.8,-4.8 5.9,-6.9 8,-16.3 9.3,-24.7 11,1.1 20.6,4.9 30.3,9.5 1.7,0.8 3,-1.2 1.5,-2.2 -6.6,-4.3 -13.9,-7.3 -21.6,-9.6 15,-4.8 28.2,-17.6 31.8,-29.9 0.4,-1.3 -1.6,-1.9 -2.4,-0.9 -5.7,7 -12,13.8 -20.3,18.7 -5.9,3.4 -12.4,5.3 -18.8,7.5 -0.2,-11.2 -4.6,-24.4 -13.4,-32.5 18.4,-11.7 37.6,-20.4 61.3,-23.4 9.1,-1.1 19.1,-3.7 27,1.9 6.9,5 8.2,13.3 5.5,20.4 -1.7,4.5 -4.4,8.8 -6,13.3 -5,14.1 3.4,24 8.3,36.8 0.7,2 1.3,4.1 1.9,6.2 0.4,1.8 0.8,3.6 1,5.5 1.2,9.2 -0.1,18.6 -5.4,26.3 z"
             id="path35"
             inkscape:connector-curvature="0"
             style="fill:#f70000" /><path
             class="st1"
             d="m 526,527.1 c -2.5,11.1 -10.7,23.8 -25.9,22.3 -16.4,-1.6 -26.7,-15.1 -27.8,-28.3 -0.9,-10.9 2.5,-25.5 12.9,-32.7 17.2,-11.9 36.1,2.4 40.5,17.3 2.2,6.9 2,14.3 0.3,21.4 z"
             id="path37"
             inkscape:connector-curvature="0"
             style="fill:#f70000" /><path
             class="st1"
             d="m 479.4,563.6 c -4.4,4.1 -9.8,7.3 -15.5,9.9 -12,5.6 -31.1,10.6 -48.3,10.3 -1.7,0 -3.4,-0.1 -5.1,-0.2 -1.6,-0.1 -3.2,-0.3 -4.8,-0.6 7.6,-2.8 14.9,-9.1 21.3,-13.1 11.8,-7.3 24.2,-14.7 38.5,-17.8 13,-2.8 24.7,1.7 13.9,11.5 z"
             id="path39"
             inkscape:connector-curvature="0"
             style="fill:#f70000" /><path
             class="st1"
             d="m 465.1,522.4 c 1.3,8.4 3.4,17.8 9.3,24.7 -7.4,0.9 -15.2,3.5 -18.8,4.8 -11,3.9 -20.7,9.6 -30.3,15.6 -13.3,8.2 -27.6,21.5 -40.9,2.5 -5.3,-7.7 -6.6,-17.1 -5.4,-26.1 0.2,-1.9 0.6,-3.7 1,-5.5 0.5,-2.1 1.1,-4.2 1.9,-6.2 4.8,-12.8 13.3,-22.7 8.3,-36.8 -1.6,-4.5 -4.3,-8.8 -6,-13.3 -2.6,-7.1 -1.4,-15.4 5.5,-20.4 7.9,-5.7 17.9,-3.1 27,-1.9 23.7,2.9 42.9,11.6 61.3,23.4 -8.7,8.2 -13.2,21.3 -13.4,32.5 -6.4,-2.2 -12.9,-4.1 -18.8,-7.5 -8.3,-4.9 -14.6,-11.7 -20.3,-18.7 -0.9,-1.1 -2.9,-0.5 -2.4,0.9 3.6,12.3 16.8,25 31.8,29.9 -7.7,2.3 -15,5.3 -21.6,9.6 -1.5,0.9 -0.2,3 1.5,2.2 9.7,-4.8 19.4,-8.6 30.3,-9.7 z"
             id="path41"
             inkscape:connector-curvature="0"
             style="fill:#f70000" /><path
             class="st1"
             d="m 406,587.4 c -17.3,15.1 -30.9,32.7 -39.6,52.4 -0.9,-14.8 -2.4,-29.6 -4.9,-44.3 -0.1,-0.8 -1.2,-1.1 -1.9,-0.9 -10.9,1.5 -19.6,4.7 -27.9,10.3 -3.8,-26.1 15.3,-43.6 38.6,-56.5 1.6,12.3 7.8,26.1 18.7,33.2 1.9,1.2 3.8,2 5.7,2.4 3.4,1.6 7.2,2.7 11.3,3.4 z"
             id="path43"
             inkscape:connector-curvature="0"
             style="fill:#f70000" /></g></g></g></switch></svg>