<?xml version="1.0" encoding="UTF-8" standalone="no"?>
<svg
   xmlns:dc="http://purl.org/dc/elements/1.1/"
   xmlns:cc="http://creativecommons.org/ns#"
   xmlns:rdf="http://www.w3.org/1999/02/22-rdf-syntax-ns#"
   xmlns:svg="http://www.w3.org/2000/svg"
   xmlns="http://www.w3.org/2000/svg"
   xmlns:sodipodi="http://sodipodi.sourceforge.net/DTD/sodipodi-0.dtd"
   xmlns:inkscape="http://www.inkscape.org/namespaces/inkscape"
   version="1.1"
   id="Layer_1"
   x="0px"
   y="0px"
   viewBox="46.27115249633789 218.13015747070312 907.4575805664062 690.8583984375"
   width="100%"
   height="100%"
   style="enable-background:new 0 0 1000 1000;"
   xml:space="preserve"
   ><style
     type="text/css"
     id="style3">
	.st0{fill:#FFFFFF;}
</style><switch
     id="switch5"
     transform="matrix(1.1203181,0,0,1.1203181,-77.860088,33.501707)"><g
       id="g7"><g
         id="g9"><g
           id="g11"><g
             id="g13"><path
               class="st0"
               d="m 862.6,345.4 c 4.3,3.2 13.1,0.4 10.2,-5.8 -2.7,-1.5 -4.7,-4.2 -5.2,-7.5 -0.1,0 -0.2,0 -0.3,0 -6.9,-1.1 -9.8,9.5 -4.7,13.3 z"
               id="path15"
               inkscape:connector-curvature="0"
               style="fill:#ffffff" /></g><g
             id="g17"><path
               class="st0"
               d="m 864.4,362.2 c 8.8,2.9 8.9,-7.5 6.8,-12.7 0,-0.1 -3.6,0.3 -6.5,0.7 -1.7,0.3 -3.1,0.6 -3.4,0.8 -3.6,3.2 -1,9.8 3.1,11.2 z"
               id="path19"
               inkscape:connector-curvature="0"
               style="fill:#ffffff" /></g><g
             id="g21"><path
               class="st0"
               d="m 872,302.3 c 1.8,-5.1 -3.9,-9 -8,-5.2 -2,1.8 -4,5.5 -2.9,8.2 2.7,6.8 9.2,1.8 10.9,-3 z"
               id="path23"
               inkscape:connector-curvature="0"
               style="fill:#ffffff" /></g><g
             id="g25"><path
               class="st0"
               d="m 868.2,328.6 c 2.8,-1.1 2.9,-4.8 2,-7.2 0,-0.1 0,-0.2 0,-0.3 -1.3,-2.1 -1.9,-4.7 -1.6,-7.1 0.1,-0.5 0.2,-0.9 0.3,-1.3 -0.1,0 -0.2,0 -0.3,0 -5.5,-1.3 -11.2,2.6 -10.4,8.6 0.4,2.9 2.4,5.1 5,6.4 1.4,0.7 3.3,1.5 5,0.9 z"
               id="path27"
               inkscape:connector-curvature="0"
               style="fill:#ffffff" /></g><g
             id="g29"><path
               class="st0"
               d="m 868.3,366 c 0,-0.1 0,-0.2 -0.1,-0.3 -3.2,0.5 -7.3,-2.8 -10,-1.2 -3.5,2.2 -1.3,7.4 0.8,9.8 0.9,1 1.8,1.7 2.7,2 5,2.1 9.2,-5 6.6,-10.3 z"
               id="path31"
               inkscape:connector-curvature="0"
               style="fill:#ffffff" /></g><g
             id="g33"><path
               class="st0"
               d="m 872.5,370.2 c -0.4,2.4 -0.8,5.1 -2.5,7.1 -0.7,0.8 -1.5,1.4 -2.4,1.9 0,0 0,0.1 0,0.1 -1.5,6.1 6.5,7.9 10.7,5.1 0.3,-0.2 0.6,-0.4 0.9,-0.7 2,-2 2.7,-5.5 1.7,-8.1 -1.6,-3.9 -5.1,-3.6 -8.4,-5.4 z"
               id="path35"
               inkscape:connector-curvature="0"
               style="fill:#ffffff" /></g><g
             id="g37"><path
               class="st0"
               d="m 879.4,356.6 c -0.5,-0.1 -0.8,-0.4 -1,-0.7 -0.8,-0.1 -1.5,-0.2 -2.2,-0.5 -0.1,0 -0.2,-0.1 -0.3,-0.1 0.1,2.6 -0.4,5.1 -2.2,7.3 -0.4,0.5 -1,1 -1.5,1.4 0,0 0,0.1 0,0.1 -0.3,4.9 7,4.5 9.7,2.4 3.5,-2.5 1.5,-8.9 -2.5,-9.9 z"
               id="path39"
               inkscape:connector-curvature="0"
               style="fill:#ffffff" /></g><g
             id="g41"><path
               class="st0"
               d="m 875.4,300.2 c -0.9,2.6 0.1,5.6 2.3,7.2 4.3,3.1 10.7,-0.5 10.2,-5.8 -0.7,-6.5 -10.4,-7.6 -12.5,-1.4 z"
               id="path43"
               inkscape:connector-curvature="0"
               style="fill:#ffffff" /></g><g
             id="g45"><path
               class="st0"
               d="m 885.4,343.3 c -1.4,-0.8 -9,-3.1 -8.9,-2.5 0.2,2 -0.3,3.9 -1.4,5.6 0.7,2.5 -0.8,4.9 2.6,6.1 2.9,1 8.1,0.2 9.3,-3 0.8,-2 0.1,-4.4 -1.4,-6 -0.1,-0.1 -0.1,-0.1 -0.2,-0.2 z"
               id="path47"
               inkscape:connector-curvature="0"
               style="fill:#ffffff" /></g><g
             id="g49"><path
               class="st0"
               d="m 879,313 c -3.4,-1.9 -8.1,-1.5 -7.2,3.5 0.4,2.4 1.9,4.8 4.2,5.7 5.5,2.1 8.4,-4.8 4.3,-8.3 -0.3,-0.3 -0.8,-0.6 -1.3,-0.9 z"
               id="path51"
               inkscape:connector-curvature="0"
               style="fill:#ffffff" /></g><g
             id="g53"><path
               class="st0"
               d="m 875.3,293.8 c 2.3,-0.1 4.5,-1.7 5.2,-3.9 0.9,-2.8 -1.2,-7.6 -4.3,-8.3 -1.3,-0.3 -2.8,0 -4.6,0.6 -7,2.4 -2.2,11.7 3.7,11.6 z"
               id="path55"
               inkscape:connector-curvature="0"
               style="fill:#ffffff" /></g><g
             id="g57"><path
               class="st0"
               d="m 874,325.7 c -1.6,-0.4 -3.1,7.2 -2.3,8.7 1.7,3.2 6.1,4.1 9,2 2.2,-1.7 2.2,-4.7 0.6,-6.8 -1.6,-2.4 -4.7,-3.3 -7.3,-3.9 z"
               id="path59"
               inkscape:connector-curvature="0"
               style="fill:#ffffff" /></g><g
             id="g61"><path
               d="m 886.6,339.9 c -1.1,-0.9 -2.3,-1.2 -3.5,-1.4 2.6,-2.3 3.3,-6 1.8,-9.2 -0.8,-1.8 -2.1,-3.2 -3.7,-4.2 1.6,-0.7 2.9,-1.8 3.6,-3.5 1.6,-3.5 0.4,-7.1 -2,-9.8 0.4,-0.1 0.8,-0.2 1.2,-0.3 5,-1.6 8.3,-6.8 6.7,-12 -1,-3.2 -4.3,-6.1 -7.9,-6.6 4.8,-8.5 -3,-16.3 -11.6,-13.9 -5.5,1.5 -8.2,6.4 -5.6,11.8 0.3,0.6 0.7,1.2 1.1,1.8 -1.8,0 -3.6,0.6 -5.2,2.3 -3.1,3.2 -5.4,8.3 -3.1,12.6 0.7,1.3 1.5,2.2 2.5,3 -5.5,2.9 -8.3,10.1 -4.2,16.1 1,1.5 2.6,2.9 4.4,4 -5,3.7 -6.3,12.9 -1.1,17.2 -2.3,1.4 -3.5,4.5 -3.5,7.3 -0.1,2.1 0.5,4.2 1.6,6.1 -7.8,2.7 -5,14.5 1.6,18 1.3,0.7 2.7,1 4.2,1 0,4.7 -0.1,9.5 -0.2,14.2 -0.5,15.5 -1.7,30.9 -3.7,46.2 -0.3,2.1 3,2.4 3.2,0.3 1.8,-14.4 3,-28.8 3.6,-43.3 0.1,-3.5 0.3,-7 0.3,-10.5 3.8,2.8 10.3,2.8 14,-0.5 4.2,-3.7 4.4,-12.3 0.3,-16 0.9,-0.3 1.8,-0.8 2.6,-1.4 4.6,-3.5 3.5,-10 -0.3,-13.5 1.3,-0.3 2.6,-0.9 3.7,-1.6 3.3,-2.2 4.2,-6.1 2.6,-9.6 -0.8,-1.7 -2,-3.4 -3.4,-4.6 z m -5.3,-10.4 c 1.6,2.2 1.6,5.1 -0.6,6.8 -2.9,2.2 -7.3,1.3 -9,-2 -0.8,-1.5 0.8,-9 2.3,-8.7 2.6,0.7 5.7,1.6 7.3,3.9 z m -5.3,-7.3 c -2.3,-0.9 -3.8,-3.3 -4.2,-5.7 -0.9,-5 3.8,-5.4 7.2,-3.5 0.5,0.3 0.9,0.6 1.3,0.9 4.1,3.5 1.2,10.4 -4.3,8.3 z m 11.9,-20.6 c 0.5,5.3 -5.9,8.9 -10.2,5.8 -2.2,-1.6 -3.2,-4.7 -2.3,-7.2 2.1,-6.2 11.8,-5.1 12.5,1.4 z m -16.3,-19.4 c 1.8,-0.6 3.3,-0.9 4.6,-0.6 3,0.7 5.2,5.5 4.3,8.3 -0.7,2.2 -2.9,3.8 -5.2,3.9 -5.9,0.1 -10.7,-9.2 -3.7,-11.6 z m -7.6,14.9 c 4.1,-3.7 9.8,0.1 8,5.2 -1.7,4.8 -8.2,9.8 -10.9,3 -1.1,-2.7 0.9,-6.4 2.9,-8.2 z m -5.8,24.1 c -0.9,-6.1 4.8,-9.9 10.4,-8.6 0.1,0 0.2,0 0.3,0 -0.1,0.4 -0.2,0.8 -0.3,1.3 -0.3,2.4 0.3,5 1.6,7.1 0,0.1 0,0.2 0,0.3 0.9,2.4 0.9,6.1 -2,7.2 -1.7,0.7 -3.6,-0.2 -5.1,-0.9 -2.6,-1.3 -4.5,-3.4 -4.9,-6.4 z m 9.1,11 c 0.1,0 0.2,0 0.3,0 0.5,3.2 2.5,6 5.2,7.5 2.9,6.2 -5.9,9 -10.2,5.8 -5.1,-3.9 -2.2,-14.5 4.7,-13.3 z m -6,18.8 c 0.3,-0.2 1.7,-0.5 3.4,-0.8 2.9,-0.5 6.5,-0.8 6.5,-0.7 2.1,5.2 1.9,15.6 -6.8,12.7 -4.1,-1.4 -6.7,-8 -3.1,-11.2 z m 0.5,25.3 c -0.9,-0.4 -1.8,-1 -2.7,-2 -2.2,-2.4 -4.4,-7.6 -0.8,-9.8 2.6,-1.6 6.8,1.7 10,1.2 0,0.1 0,0.2 0.1,0.3 2.5,5.3 -1.7,12.4 -6.6,10.3 z m 17.3,7.4 c -0.3,0.3 -0.6,0.5 -0.9,0.7 -4.2,2.8 -12.1,1 -10.7,-5.1 0,0 0,-0.1 0,-0.1 0.9,-0.4 1.7,-1 2.4,-1.9 1.6,-2 2.1,-4.7 2.5,-7.1 3.3,1.8 6.8,1.5 8.4,5.4 1.1,2.7 0.4,6.1 -1.7,8.1 z m 2.9,-17.1 c -2.7,2.1 -10,2.4 -9.7,-2.4 0,0 0,-0.1 0,-0.1 0.6,-0.4 1.1,-0.9 1.5,-1.4 1.8,-2.2 2.3,-4.7 2.2,-7.3 0.1,0 0.2,0.1 0.3,0.1 0.7,0.2 1.4,0.4 2.2,0.5 0.2,0.3 0.5,0.6 1,0.7 3.9,0.9 5.9,7.3 2.5,9.9 z m 5,-17.2 c -1.2,3.3 -6.4,4 -9.3,3 -3.4,-1.2 -1.9,-3.6 -2.6,-6.1 1.1,-1.6 1.6,-3.6 1.4,-5.6 -0.1,-0.6 7.5,1.7 8.9,2.5 0.1,0 0.1,0.1 0.2,0.1 1.5,1.7 2.2,4.1 1.4,6.1 z"
               id="path63"
               inkscape:connector-curvature="0" /></g></g><g
           id="g65"><g
             id="g67"><path
               class="st0"
               d="m 791,429.5 c 4.3,3.2 13.1,0.4 10.2,-5.8 -2.7,-1.5 -4.7,-4.2 -5.2,-7.5 -0.1,0 -0.2,0 -0.3,0 -6.8,-1.1 -9.7,9.5 -4.7,13.3 z"
               id="path69"
               inkscape:connector-curvature="0"
               style="fill:#ffffff" /></g><g
             id="g71"><path
               class="st0"
               d="m 792.9,446.3 c 8.8,2.9 8.9,-7.5 6.8,-12.7 0,-0.1 -3.6,0.3 -6.5,0.7 -1.7,0.3 -3.1,0.6 -3.4,0.8 -3.7,3.2 -1.1,9.8 3.1,11.2 z"
               id="path73"
               inkscape:connector-curvature="0"
               style="fill:#ffffff" /></g><g
             id="g75"><path
               class="st0"
               d="m 800.4,386.4 c 1.8,-5.1 -3.9,-9 -8,-5.2 -2,1.8 -4,5.5 -2.9,8.2 2.7,6.8 9.3,1.8 10.9,-3 z"
               id="path77"
               inkscape:connector-curvature="0"
               style="fill:#ffffff" /></g><g
             id="g79"><path
               class="st0"
               d="m 796.6,412.6 c 2.8,-1.1 2.9,-4.8 2,-7.2 0,-0.1 0,-0.2 0,-0.3 -1.3,-2.1 -1.9,-4.7 -1.6,-7.1 0.1,-0.5 0.2,-0.9 0.3,-1.3 -0.1,0 -0.2,0 -0.3,0 -5.5,-1.3 -11.2,2.6 -10.4,8.6 0.4,2.9 2.4,5.1 5,6.4 1.4,0.8 3.4,1.6 5,0.9 z"
               id="path81"
               inkscape:connector-curvature="0"
               style="fill:#ffffff" /></g><g
             id="g83"><path
               class="st0"
               d="m 796.8,450.1 c 0,-0.1 0,-0.2 -0.1,-0.3 -3.2,0.5 -7.3,-2.8 -10,-1.2 -3.5,2.2 -1.3,7.4 0.8,9.8 0.9,1 1.8,1.7 2.7,2 5,2 9.1,-5 6.6,-10.3 z"
               id="path85"
               inkscape:connector-curvature="0"
               style="fill:#ffffff" /></g><g
             id="g87"><path
               class="st0"
               d="m 800.9,454.3 c -0.4,2.4 -0.8,5.1 -2.5,7.1 -0.7,0.8 -1.5,1.4 -2.4,1.9 0,0 0,0.1 0,0.1 -1.5,6.1 6.5,7.9 10.7,5.1 0.3,-0.2 0.6,-0.4 0.9,-0.7 2,-2 2.7,-5.5 1.7,-8.1 -1.5,-3.9 -5,-3.6 -8.4,-5.4 z"
               id="path89"
               inkscape:connector-curvature="0"
               style="fill:#ffffff" /></g><g
             id="g91"><path
               class="st0"
               d="m 807.9,440.7 c -0.5,-0.1 -0.8,-0.4 -1,-0.7 -0.8,-0.1 -1.5,-0.2 -2.2,-0.5 -0.1,0 -0.2,-0.1 -0.3,-0.1 0.1,2.6 -0.4,5.1 -2.2,7.3 -0.4,0.5 -1,1 -1.5,1.4 0,0 0,0.1 0,0.1 -0.3,4.9 7,4.5 9.7,2.4 3.4,-2.6 1.5,-8.9 -2.5,-9.9 z"
               id="path93"
               inkscape:connector-curvature="0"
               style="fill:#ffffff" /></g><g
             id="g95"><path
               class="st0"
               d="m 803.8,384.3 c -0.9,2.6 0.1,5.6 2.3,7.2 4.3,3.1 10.7,-0.5 10.2,-5.8 -0.6,-6.5 -10.3,-7.6 -12.5,-1.4 z"
               id="path97"
               inkscape:connector-curvature="0"
               style="fill:#ffffff" /></g><g
             id="g99"><path
               class="st0"
               d="m 813.8,427.4 c -1.4,-0.8 -9,-3.1 -8.9,-2.5 0.2,2 -0.3,3.9 -1.4,5.6 0.7,2.5 -0.8,4.9 2.6,6.1 2.9,1 8.1,0.2 9.3,-3 0.8,-2 0.1,-4.4 -1.4,-6 0,-0.1 -0.1,-0.1 -0.2,-0.2 z"
               id="path101"
               inkscape:connector-curvature="0"
               style="fill:#ffffff" /></g><g
             id="g103"><path
               class="st0"
               d="m 807.5,397.1 c -3.4,-1.9 -8.1,-1.5 -7.2,3.5 0.4,2.4 1.9,4.8 4.2,5.7 5.5,2.1 8.4,-4.8 4.3,-8.3 -0.4,-0.3 -0.8,-0.6 -1.3,-0.9 z"
               id="path105"
               inkscape:connector-curvature="0"
               style="fill:#ffffff" /></g><g
             id="g107"><path
               class="st0"
               d="m 803.7,377.9 c 2.3,-0.1 4.5,-1.7 5.2,-3.9 0.9,-2.8 -1.2,-7.6 -4.3,-8.3 -1.3,-0.3 -2.8,0 -4.6,0.6 -6.9,2.3 -2.2,11.7 3.7,11.6 z"
               id="path109"
               inkscape:connector-curvature="0"
               style="fill:#ffffff" /></g><g
             id="g111"><path
               class="st0"
               d="m 802.5,409.8 c -1.6,-0.4 -3.1,7.2 -2.3,8.7 1.7,3.2 6.1,4.1 9,2 2.2,-1.7 2.2,-4.7 0.6,-6.8 -1.7,-2.4 -4.7,-3.3 -7.3,-3.9 z"
               id="path113"
               inkscape:connector-curvature="0"
               style="fill:#ffffff" /></g><g
             id="g115"><path
               d="m 815.1,424 c -1.1,-0.9 -2.3,-1.2 -3.5,-1.4 2.6,-2.3 3.3,-6 1.8,-9.2 -0.8,-1.8 -2.1,-3.2 -3.7,-4.2 1.6,-0.7 2.9,-1.8 3.6,-3.5 1.6,-3.5 0.4,-7.1 -2,-9.8 0.4,-0.1 0.8,-0.2 1.2,-0.3 5,-1.6 8.3,-6.8 6.7,-12 -1,-3.2 -4.3,-6.1 -7.9,-6.6 4.8,-8.5 -3,-16.3 -11.6,-13.9 -5.5,1.5 -8.2,6.4 -5.6,11.8 0.3,0.6 0.7,1.2 1.1,1.8 -1.8,0 -3.6,0.6 -5.2,2.3 -3.1,3.2 -5.4,8.3 -3.1,12.6 0.7,1.3 1.5,2.2 2.5,3 -5.5,2.9 -8.3,10.1 -4.2,16.1 1,1.5 2.6,2.9 4.4,4 -5,3.7 -6.3,12.9 -1.1,17.2 -2.3,1.4 -3.5,4.5 -3.5,7.3 -0.1,2.1 0.5,4.2 1.6,6.1 -7.8,2.7 -5,14.5 1.6,18 1.3,0.7 2.7,1 4.2,1 0,4.7 -0.1,9.5 -0.2,14.2 -0.5,15.5 -1.7,30.9 -3.7,46.2 -0.3,2.1 3,2.4 3.2,0.3 1.8,-14.4 3,-28.8 3.6,-43.3 0.1,-3.5 0.3,-7 0.3,-10.5 3.8,2.8 10.3,2.8 14,-0.5 4.2,-3.7 4.4,-12.3 0.3,-16 0.9,-0.3 1.8,-0.8 2.6,-1.4 4.6,-3.5 3.5,-10 -0.3,-13.5 1.3,-0.3 2.6,-0.9 3.7,-1.6 3.3,-2.2 4.2,-6.1 2.6,-9.6 -0.9,-1.8 -2,-3.4 -3.4,-4.6 z m -5.3,-10.4 c 1.6,2.2 1.6,5.1 -0.6,6.8 -2.9,2.2 -7.3,1.3 -9,-2 -0.8,-1.5 0.8,-9 2.3,-8.7 2.6,0.7 5.6,1.6 7.3,3.9 z m -5.3,-7.3 c -2.3,-0.9 -3.8,-3.3 -4.2,-5.7 -0.9,-5 3.8,-5.4 7.2,-3.5 0.5,0.3 0.9,0.6 1.3,0.9 4.1,3.5 1.2,10.4 -4.3,8.3 z m 11.8,-20.6 c 0.5,5.3 -5.9,8.9 -10.2,5.8 -2.2,-1.6 -3.2,-4.7 -2.3,-7.2 2.2,-6.2 11.9,-5.1 12.5,1.4 z M 800,366.3 c 1.8,-0.6 3.3,-0.9 4.6,-0.6 3,0.7 5.2,5.5 4.3,8.3 -0.7,2.2 -2.9,3.8 -5.2,3.9 -5.9,0.1 -10.6,-9.3 -3.7,-11.6 z m -7.6,14.9 c 4.1,-3.7 9.8,0.1 8,5.2 -1.7,4.8 -8.2,9.8 -10.9,3 -1.1,-2.8 0.9,-6.4 2.9,-8.2 z m -5.8,24.1 c -0.9,-6.1 4.8,-9.9 10.4,-8.6 0.1,0 0.2,0 0.3,0 -0.1,0.4 -0.2,0.8 -0.3,1.3 -0.3,2.4 0.3,5 1.6,7.1 0,0.1 0,0.2 0,0.3 0.9,2.4 0.9,6.1 -2,7.2 -1.7,0.7 -3.6,-0.2 -5.1,-0.9 -2.5,-1.3 -4.4,-3.4 -4.9,-6.4 z m 9.1,11 c 0.1,0 0.2,0 0.3,0 0.5,3.2 2.5,6 5.2,7.5 2.9,6.2 -5.9,9 -10.2,5.8 -5,-3.9 -2.1,-14.5 4.7,-13.3 z m -5.9,18.8 c 0.3,-0.2 1.7,-0.5 3.4,-0.8 2.9,-0.5 6.5,-0.8 6.5,-0.7 2.1,5.2 1.9,15.6 -6.8,12.7 -4.2,-1.4 -6.8,-8 -3.1,-11.2 z m 0.4,25.3 c -0.9,-0.4 -1.8,-1 -2.7,-2 -2.2,-2.4 -4.4,-7.6 -0.8,-9.8 2.6,-1.6 6.8,1.7 10,1.2 0,0.1 0,0.2 0.1,0.3 2.5,5.3 -1.6,12.3 -6.6,10.3 z m 17.4,7.4 c -0.3,0.3 -0.6,0.5 -0.9,0.7 -4.2,2.8 -12.1,1 -10.7,-5.1 0,0 0,-0.1 0,-0.1 0.9,-0.4 1.7,-1 2.4,-1.9 1.6,-2 2.1,-4.7 2.5,-7.1 3.3,1.8 6.8,1.5 8.4,5.4 1,2.6 0.3,6.1 -1.7,8.1 z m 2.8,-17.1 c -2.7,2.1 -10,2.4 -9.7,-2.4 0,0 0,-0.1 0,-0.1 0.6,-0.4 1.1,-0.9 1.5,-1.4 1.8,-2.2 2.3,-4.7 2.2,-7.3 0.1,0 0.2,0.1 0.3,0.1 0.7,0.2 1.4,0.4 2.2,0.5 0.2,0.3 0.5,0.6 1,0.7 4,0.9 5.9,7.2 2.5,9.9 z m 5.1,-17.2 c -1.2,3.3 -6.4,4 -9.3,3 -3.4,-1.2 -1.9,-3.6 -2.6,-6.1 1.1,-1.6 1.6,-3.6 1.4,-5.6 -0.1,-0.6 7.5,1.7 8.9,2.5 0.1,0 0.1,0.1 0.2,0.1 1.4,1.7 2.1,4.1 1.4,6.1 z"
               id="path117"
               inkscape:connector-curvature="0" /></g></g><g
           id="g119"><g
             id="g121"><path
               class="st0"
               d="m 281.2,349 c 3.1,2.3 9.4,0.3 7.3,-4.2 -1.9,-1.1 -3.4,-3 -3.7,-5.4 -0.1,0 -0.1,0 -0.2,0 -4.9,-0.7 -7,6.9 -3.4,9.6 z"
               id="path123"
               inkscape:connector-curvature="0"
               style="fill:#ffffff" /></g><g
             id="g125"><path
               class="st0"
               d="m 282.5,361 c 6.3,2.1 6.4,-5.4 4.9,-9.1 0,-0.1 -2.6,0.2 -4.7,0.5 -1.2,0.2 -2.3,0.4 -2.4,0.6 -2.6,2.3 -0.7,7 2.2,8 z"
               id="path127"
               inkscape:connector-curvature="0"
               style="fill:#ffffff" /></g><g
             id="g129"><path
               class="st0"
               d="m 288,318.1 c 1.3,-3.7 -2.8,-6.4 -5.7,-3.8 -1.4,1.3 -2.9,3.9 -2.1,5.9 1.9,4.9 6.6,1.3 7.8,-2.1 z"
               id="path131"
               inkscape:connector-curvature="0"
               style="fill:#ffffff" /></g><g
             id="g133"><path
               class="st0"
               d="m 285.2,336.9 c 2,-0.8 2.1,-3.4 1.4,-5.2 0,-0.1 0,-0.1 0,-0.2 -0.9,-1.5 -1.4,-3.4 -1.2,-5.1 0,-0.3 0.1,-0.6 0.2,-0.9 -0.1,0 -0.1,0 -0.2,0 -4,-0.9 -8.1,1.8 -7.4,6.2 0.3,2.1 1.7,3.6 3.6,4.6 1.1,0.5 2.5,1.1 3.6,0.6 z"
               id="path135"
               inkscape:connector-curvature="0"
               style="fill:#ffffff" /></g><g
             id="g137"><path
               class="st0"
               d="m 285.3,363.8 c 0,-0.1 0,-0.1 -0.1,-0.2 -2.3,0.4 -5.3,-2 -7.2,-0.9 -2.5,1.6 -0.9,5.3 0.6,7 0.7,0.7 1.3,1.2 1.9,1.5 3.7,1.4 6.7,-3.6 4.8,-7.4 z"
               id="path139"
               inkscape:connector-curvature="0"
               style="fill:#ffffff" /></g><g
             id="g141"><path
               class="st0"
               d="m 288.3,366.8 c -0.3,1.7 -0.6,3.6 -1.8,5.1 -0.5,0.6 -1.1,1 -1.7,1.3 0,0 0,0 0,0.1 -1.1,4.4 4.7,5.7 7.7,3.7 0.2,-0.1 0.4,-0.3 0.6,-0.5 1.5,-1.4 2,-3.9 1.2,-5.8 -1.1,-2.8 -3.6,-2.6 -6,-3.9 z"
               id="path143"
               inkscape:connector-curvature="0"
               style="fill:#ffffff" /></g><g
             id="g145"><path
               class="st0"
               d="m 293.3,357.1 c -0.3,-0.1 -0.6,-0.3 -0.7,-0.5 -0.5,-0.1 -1.1,-0.2 -1.6,-0.3 -0.1,0 -0.1,-0.1 -0.2,-0.1 0.1,1.8 -0.3,3.7 -1.6,5.2 -0.3,0.4 -0.7,0.7 -1.1,1 0,0 0,0 0,0.1 -0.2,3.5 5,3.2 7,1.8 2.5,-2 1.1,-6.5 -1.8,-7.2 z"
               id="path147"
               inkscape:connector-curvature="0"
               style="fill:#ffffff" /></g><g
             id="g149"><path
               class="st0"
               d="m 290.4,316.6 c -0.6,1.8 0.1,4 1.6,5.2 3.1,2.2 7.7,-0.4 7.3,-4.2 -0.4,-4.7 -7.4,-5.5 -8.9,-1 z"
               id="path151"
               inkscape:connector-curvature="0"
               style="fill:#ffffff" /></g><g
             id="g153"><path
               class="st0"
               d="m 297.6,347.5 c -1,-0.6 -6.5,-2.2 -6.4,-1.8 0.2,1.4 -0.2,2.8 -1,4 0.5,1.8 -0.6,3.5 1.9,4.4 2.1,0.7 5.8,0.2 6.7,-2.2 0.5,-1.4 0.1,-3.2 -1,-4.3 -0.1,0 -0.2,0 -0.2,-0.1 z"
               id="path155"
               inkscape:connector-curvature="0"
               style="fill:#ffffff" /></g><g
             id="g157"><path
               class="st0"
               d="m 293,325.8 c -2.4,-1.4 -5.8,-1.1 -5.2,2.5 0.3,1.7 1.3,3.4 3,4.1 3.9,1.5 6,-3.4 3.1,-5.9 -0.2,-0.3 -0.5,-0.5 -0.9,-0.7 z"
               id="path159"
               inkscape:connector-curvature="0"
               style="fill:#ffffff" /></g><g
             id="g161"><path
               class="st0"
               d="m 290.3,312 c 1.7,0 3.2,-1.2 3.7,-2.8 0.6,-2 -0.9,-5.5 -3.1,-6 -0.9,-0.2 -2,0 -3.3,0.4 -4.9,1.8 -1.5,8.5 2.7,8.4 z"
               id="path163"
               inkscape:connector-curvature="0"
               style="fill:#ffffff" /></g><g
             id="g165"><path
               class="st0"
               d="m 289.4,334.9 c -1.1,-0.3 -2.2,5.1 -1.7,6.2 1.2,2.3 4.4,3 6.5,1.4 1.6,-1.2 1.6,-3.4 0.4,-4.9 -1.1,-1.6 -3.3,-2.3 -5.2,-2.7 z"
               id="path167"
               inkscape:connector-curvature="0"
               style="fill:#ffffff" /></g><g
             id="g169"><path
               d="m 298.4,345.1 c -0.8,-0.6 -1.6,-0.9 -2.5,-1 1.9,-1.7 2.4,-4.3 1.3,-6.6 -0.6,-1.3 -1.5,-2.3 -2.7,-3 1.1,-0.5 2.1,-1.3 2.6,-2.5 1.1,-2.5 0.3,-5.1 -1.4,-7 0.3,-0.1 0.5,-0.1 0.8,-0.2 3.6,-1.2 6,-4.9 4.8,-8.6 -0.7,-2.3 -3.1,-4.3 -5.6,-4.8 3.5,-6.1 -2.1,-11.7 -8.3,-10 -4,1.1 -5.9,4.6 -4,8.4 0.2,0.5 0.5,0.9 0.8,1.3 -1.3,0 -2.6,0.4 -3.8,1.6 -2.2,2.3 -3.9,6 -2.2,9 0.5,0.9 1.1,1.6 1.8,2.1 -3.9,2.1 -6,7.2 -3,11.6 0.7,1.1 1.9,2.1 3.2,2.8 -3.6,2.7 -4.5,9.2 -0.8,12.3 -1.6,1 -2.5,3.2 -2.5,5.2 0,1.5 0.4,3 1.1,4.3 -5.6,1.9 -3.6,10.4 1.1,12.9 0.9,0.5 2,0.7 3,0.8 0,3.4 -0.1,6.8 -0.2,10.2 -0.3,11.1 -1.2,22.1 -2.6,33.1 -0.2,1.5 2.1,1.7 2.3,0.2 1.3,-10.3 2.2,-20.7 2.5,-31 0.1,-2.5 0.2,-5 0.2,-7.5 2.7,2 7.4,2 10.1,-0.4 3,-2.7 3.1,-8.8 0.3,-11.4 0.7,-0.2 1.3,-0.6 1.8,-1 3.3,-2.5 2.5,-7.2 -0.2,-9.7 1,-0.2 1.9,-0.6 2.6,-1.1 2.4,-1.6 3,-4.3 1.8,-6.9 -0.4,-1.1 -1.2,-2.3 -2.3,-3.1 z m -3.7,-7.5 c 1.1,1.5 1.2,3.7 -0.4,4.9 -2.1,1.6 -5.2,0.9 -6.5,-1.4 -0.6,-1.1 0.6,-6.5 1.7,-6.2 1.8,0.4 4,1.1 5.2,2.7 z m -3.8,-5.2 c -1.7,-0.6 -2.7,-2.4 -3,-4.1 -0.7,-3.6 2.7,-3.9 5.2,-2.5 0.3,0.2 0.7,0.4 1,0.7 2.8,2.4 0.7,7.4 -3.2,5.9 z m 8.5,-14.8 c 0.4,3.8 -4.2,6.4 -7.3,4.2 -1.6,-1.1 -2.3,-3.3 -1.6,-5.2 1.4,-4.5 8.4,-3.7 8.9,1 z m -11.7,-13.9 c 1.3,-0.4 2.4,-0.6 3.3,-0.4 2.2,0.5 3.7,4 3.1,6 -0.5,1.6 -2.1,2.7 -3.7,2.8 -4.3,0 -7.7,-6.7 -2.7,-8.4 z m -5.5,10.6 c 2.9,-2.7 7,0.1 5.7,3.8 -1.2,3.4 -5.9,7 -7.8,2.2 -0.8,-2 0.7,-4.6 2.1,-6 z m -4.1,17.4 c -0.6,-4.4 3.5,-7.1 7.4,-6.2 0.1,0 0.1,0 0.2,0 -0.1,0.3 -0.2,0.6 -0.2,0.9 -0.2,1.7 0.2,3.6 1.2,5.1 0,0.1 0,0.1 0,0.2 0.7,1.7 0.6,4.4 -1.4,5.2 -1.2,0.5 -2.6,-0.1 -3.6,-0.7 -2,-0.9 -3.3,-2.4 -3.6,-4.5 z m 6.5,7.8 c 0.1,0 0.1,0 0.2,0 0.4,2.3 1.8,4.3 3.7,5.4 2.1,4.5 -4.2,6.5 -7.3,4.2 -3.6,-2.8 -1.5,-10.4 3.4,-9.6 z m -4.3,13.5 c 0.2,-0.2 1.2,-0.4 2.4,-0.6 2,-0.3 4.6,-0.6 4.7,-0.5 1.5,3.7 1.4,11.2 -4.9,9.1 -2.9,-1 -4.8,-5.7 -2.2,-8 z m 0.3,18.2 c -0.6,-0.3 -1.3,-0.7 -1.9,-1.5 -1.5,-1.7 -3.1,-5.5 -0.6,-7 1.9,-1.2 4.9,1.2 7.2,0.9 0,0.1 0,0.1 0.1,0.2 1.8,3.8 -1.2,8.8 -4.8,7.4 z m 12.5,5.3 c -0.2,0.2 -0.4,0.4 -0.6,0.5 -3,2 -8.7,0.7 -7.7,-3.7 0,0 0,0 0,-0.1 0.6,-0.3 1.2,-0.7 1.7,-1.3 1.2,-1.4 1.5,-3.3 1.8,-5.1 2.4,1.3 4.9,1.1 6,3.8 0.8,2 0.3,4.4 -1.2,5.9 z m 2,-12.3 c -1.9,1.5 -7.2,1.8 -7,-1.8 0,0 0,0 0,-0.1 0.4,-0.3 0.8,-0.6 1.1,-1 1.3,-1.5 1.6,-3.4 1.6,-5.2 0.1,0 0.1,0.1 0.2,0.1 0.5,0.2 1,0.3 1.6,0.3 0.2,0.2 0.4,0.4 0.7,0.5 2.9,0.8 4.3,5.3 1.8,7.2 z m 3.6,-12.3 c -0.9,2.3 -4.6,2.9 -6.7,2.2 -2.5,-0.9 -1.4,-2.6 -1.9,-4.4 0.8,-1.2 1.1,-2.6 1,-4 0,-0.4 5.4,1.2 6.4,1.8 0.1,0 0.1,0.1 0.1,0.1 1.2,1.1 1.7,2.8 1.1,4.3 z"
               id="path171"
               inkscape:connector-curvature="0" /></g></g><g
           id="g173"><g
             id="g175"><path
               class="st0"
               d="m 222.5,434.9 c 4.3,2.1 11.7,-1.8 8,-6.8 -2.6,-0.9 -4.8,-2.9 -5.8,-5.7 -0.1,0 -0.2,0.1 -0.3,0.1 -6.2,0.1 -7,9.9 -1.9,12.4 z"
               id="path177"
               inkscape:connector-curvature="0"
               style="fill:#ffffff" /></g><g
             id="g179"><path
               class="st0"
               d="m 226.9,449.4 c 8.2,1.1 6.6,-8.1 3.9,-12.4 -0.1,-0.1 -3.2,0.9 -5.6,1.7 -1.5,0.5 -2.7,1 -2.9,1.3 -2.6,3.5 0.8,8.9 4.6,9.4 z"
               id="path181"
               inkscape:connector-curvature="0"
               style="fill:#ffffff" /></g><g
             id="g183"><path
               class="st0"
               d="m 223.6,395.3 c 0.7,-4.8 -5,-7.3 -8,-3.3 -1.5,2 -2.6,5.5 -1.2,7.8 3.6,5.5 8.5,0 9.2,-4.5 z"
               id="path185"
               inkscape:connector-curvature="0"
               style="fill:#ffffff" /></g><g
             id="g187"><path
               class="st0"
               d="m 224.6,419.1 c 2.3,-1.5 1.7,-4.7 0.5,-6.7 0,-0.1 -0.1,-0.2 -0.1,-0.2 -1.5,-1.7 -2.5,-3.9 -2.6,-6 0,-0.4 0,-0.8 0,-1.2 -0.1,0 -0.1,0 -0.2,0 -5.1,-0.2 -9.5,4.1 -7.7,9.4 0.9,2.5 2.9,4.1 5.5,4.8 1.4,0.3 3.3,0.8 4.6,-0.1 z"
               id="path189"
               inkscape:connector-curvature="0"
               style="fill:#ffffff" /></g><g
             id="g191"><path
               class="st0"
               d="m 231,452.2 c -0.1,-0.1 -0.1,-0.2 -0.1,-0.2 -2.7,1 -7,-1.2 -9,0.6 -2.8,2.5 0.1,6.7 2.4,8.5 1,0.7 1.9,1.2 2.7,1.3 4.7,0.9 7.2,-6 4,-10.2 z"
               id="path193"
               inkscape:connector-curvature="0"
               style="fill:#ffffff" /></g><g
             id="g195"><path
               class="st0"
               d="m 235.4,455.2 c 0.1,2.2 0.1,4.6 -1,6.7 -0.5,0.8 -1.1,1.5 -1.8,2 0,0 0,0.1 0,0.1 -0.3,5.7 7.1,5.9 10.3,2.7 0.2,-0.2 0.5,-0.5 0.6,-0.8 1.5,-2.1 1.5,-5.3 0.1,-7.5 -1.9,-3 -4.9,-2.2 -8.2,-3.2 z"
               id="path197"
               inkscape:connector-curvature="0"
               style="fill:#ffffff" /></g><g
             id="g199"><path
               class="st0"
               d="m 239.3,442 c -0.4,0 -0.8,-0.2 -1,-0.5 -0.7,0 -1.4,0 -2,0 -0.1,0 -0.2,0 -0.3,-0.1 0.5,2.3 0.5,4.6 -0.7,6.8 -0.3,0.6 -0.7,1 -1.1,1.5 0,0 0,0.1 0,0.1 0.6,4.4 7,2.8 9,0.5 2.6,-2.8 -0.2,-8.1 -3.9,-8.3 z"
               id="path201"
               inkscape:connector-curvature="0"
               style="fill:#ffffff" /></g><g
             id="g203"><path
               class="st0"
               d="m 226.2,392.8 c -0.3,2.4 1,5 3.2,6 4.3,2 9.4,-2.2 8,-6.9 -1.6,-5.6 -10.3,-4.9 -11.2,0.9 z"
               id="path205"
               inkscape:connector-curvature="0"
               style="fill:#ffffff" /></g><g
             id="g207"><path
               class="st0"
               d="m 242.3,429.3 c -1.4,-0.5 -8.5,-1.2 -8.3,-0.7 0.5,1.7 0.4,3.5 -0.3,5.2 1,2.1 0.1,4.5 3.3,4.9 2.7,0.4 7.2,-1.1 7.7,-4.2 0.3,-1.9 -0.7,-3.9 -2.3,-5 0.1,-0.2 0,-0.2 -0.1,-0.2 z"
               id="path209"
               inkscape:connector-curvature="0"
               style="fill:#ffffff" /></g><g
             id="g211"><path
               class="st0"
               d="m 231.6,403.5 c -3.3,-1.1 -7.4,0 -5.8,4.3 0.8,2 2.4,3.9 4.7,4.3 5.2,0.9 6.6,-5.7 2.4,-8.1 -0.4,-0.1 -0.8,-0.3 -1.3,-0.5 z"
               id="path213"
               inkscape:connector-curvature="0"
               style="fill:#ffffff" /></g><g
             id="g215"><path
               class="st0"
               d="m 225,387.2 c 2,-0.4 3.7,-2.2 3.9,-4.3 0.3,-2.6 -2.4,-6.5 -5.2,-6.6 -1.2,0 -2.5,0.5 -4,1.3 -5.6,3.2 0.2,10.7 5.3,9.6 z"
               id="path217"
               inkscape:connector-curvature="0"
               style="fill:#ffffff" /></g><g
             id="g219"><path
               class="st0"
               d="m 229.3,415.6 c -1.4,-0.1 -1.6,6.9 -0.6,8.1 2.1,2.6 6.1,2.6 8.3,0.2 1.7,-1.9 1.2,-4.5 -0.6,-6.2 -1.9,-1.7 -4.7,-2 -7.1,-2.1 z"
               id="path221"
               inkscape:connector-curvature="0"
               style="fill:#ffffff" /></g><g
             id="g223"><path
               d="m 242.8,426 c -1.1,-0.6 -2.2,-0.7 -3.3,-0.7 1.9,-2.5 1.9,-5.8 0.1,-8.4 -1,-1.5 -2.4,-2.4 -4,-3.1 1.3,-0.9 2.2,-2.1 2.6,-3.7 0.8,-3.4 -0.9,-6.4 -3.4,-8.3 0.3,-0.1 0.6,-0.3 1,-0.5 4.2,-2.3 6.2,-7.4 3.9,-11.8 -1.4,-2.7 -4.9,-4.6 -8.1,-4.6 2.8,-8.3 -5.4,-13.9 -12.6,-10.3 -4.6,2.3 -6.2,7 -2.9,11.3 0.4,0.5 0.8,1 1.3,1.4 -1.6,0.3 -3.1,1.2 -4.3,2.9 -2.2,3.3 -3.4,8.3 -0.6,11.7 0.8,1 1.7,1.7 2.7,2.2 -4.3,3.5 -5.6,10.3 -1,14.9 1.1,1.1 2.8,2.1 4.6,2.8 -3.8,4.1 -3.4,12.4 1.9,15.4 -1.8,1.6 -2.3,4.5 -1.9,7 0.3,1.9 1.2,3.7 2.4,5.1 -6.5,3.7 -1.9,13.7 4.4,15.6 1.2,0.4 2.6,0.4 3.9,0.2 0.8,4.2 1.5,8.4 2.2,12.6 2.2,13.7 3.7,27.6 4.5,41.5 0.1,1.9 3,1.6 2.9,-0.2 -0.8,-13 -2.2,-26 -4.1,-38.8 -0.5,-3.1 -0.9,-6.2 -1.5,-9.3 3.8,1.8 9.6,0.8 12.3,-2.8 3.1,-4 1.8,-11.6 -2.4,-14.2 0.8,-0.5 1.5,-1 2,-1.6 3.4,-3.9 1.4,-9.4 -2.6,-11.9 1.1,-0.5 2.2,-1.2 3,-2 2.6,-2.5 2.7,-6.1 0.7,-8.9 -0.9,-1.4 -2.2,-2.7 -3.7,-3.5 z m -6.4,-8.3 c 1.8,1.6 2.3,4.3 0.6,6.2 -2.2,2.4 -6.2,2.4 -8.3,-0.2 -1,-1.2 -0.8,-8.1 0.6,-8.1 2.4,0.1 5.2,0.4 7.1,2.1 z m -5.9,-5.5 c -2.2,-0.4 -3.9,-2.3 -4.7,-4.3 -1.7,-4.3 2.4,-5.4 5.8,-4.3 0.5,0.2 0.9,0.4 1.3,0.6 4.2,2.3 2.8,8.9 -2.4,8 z m 7,-20.2 c 1.4,4.6 -3.7,8.9 -8,6.9 -2.2,-1 -3.6,-3.6 -3.2,-6 0.8,-5.9 9.5,-6.6 11.2,-0.9 z m -17.7,-14.4 c 1.5,-0.8 2.8,-1.4 4,-1.3 2.8,0.1 5.5,4 5.2,6.6 -0.3,2.1 -1.9,3.9 -3.9,4.3 -5.2,1.1 -11,-6.4 -5.3,-9.6 z m -4.2,14.4 c 3,-4 8.7,-1.5 8,3.3 -0.7,4.5 -5.6,10 -9.1,4.5 -1.5,-2.3 -0.3,-5.8 1.1,-7.8 z m -1.1,22.3 c -1.8,-5.2 2.6,-9.6 7.7,-9.4 0.1,0 0.2,0 0.2,0 0,0.4 -0.1,0.8 0,1.2 0.1,2.2 1.1,4.3 2.6,6 0,0.1 0,0.2 0.1,0.2 1.2,2 1.8,5.2 -0.5,6.7 -1.4,0.9 -3.2,0.4 -4.6,0 -2.5,-0.6 -4.6,-2.2 -5.5,-4.7 z m 9.9,8.1 c 0.1,0 0.2,0 0.3,-0.1 1,2.8 3.2,4.9 5.8,5.7 3.7,5 -3.7,9 -8,6.8 -5.1,-2.4 -4.3,-12.2 1.9,-12.4 z m -2.1,17.7 c 0.2,-0.2 1.4,-0.7 2.9,-1.3 2.4,-0.9 5.6,-1.8 5.6,-1.7 2.7,4.3 4.3,13.5 -3.9,12.4 -3.8,-0.6 -7.2,-6 -4.6,-9.4 z m 4.7,22.3 c -0.8,-0.2 -1.8,-0.6 -2.7,-1.3 -2.3,-1.8 -5.2,-6 -2.4,-8.5 2.1,-1.9 6.3,0.4 9,-0.6 0,0.1 0.1,0.2 0.1,0.2 3.2,4.2 0.7,11.1 -4,10.2 z m 16.6,3.6 c -0.2,0.3 -0.4,0.5 -0.6,0.8 -3.2,3.2 -10.6,2.9 -10.3,-2.7 0,0 0,-0.1 0,-0.1 0.7,-0.5 1.3,-1.2 1.8,-2 1.1,-2 1.1,-4.5 1,-6.7 3.2,1 6.3,0.2 8.3,3.3 1.3,2.1 1.2,5.3 -0.2,7.4 z m -0.4,-15.6 c -2,2.3 -8.4,3.8 -9,-0.5 0,0 0,-0.1 0,-0.1 0.4,-0.5 0.8,-0.9 1.1,-1.5 1.2,-2.2 1.2,-4.5 0.7,-6.8 0.1,0 0.2,0 0.3,0.1 0.6,0.1 1.3,0.1 2,0 0.3,0.3 0.6,0.4 1,0.5 3.7,0.1 6.5,5.4 3.9,8.3 z m 1.6,-16 c -0.5,3.1 -5,4.6 -7.7,4.2 -3.2,-0.5 -2.3,-2.9 -3.3,-4.9 0.7,-1.6 0.8,-3.5 0.3,-5.2 -0.2,-0.5 7,0.3 8.3,0.7 0.1,0 0.1,0.1 0.2,0.1 1.5,1.1 2.5,3.2 2.2,5.1 z"
               id="path225"
               inkscape:connector-curvature="0" /></g></g><g
           id="g227"><g
             id="g229"><path
               d="m 780.6,310 c -0.1,0.2 -0.1,0.4 -0.2,0.5 0,0 0,0.1 0,0.1 -1.9,5.9 -3.4,11.9 -4.5,17.9 -6.9,27 -14.2,53.8 -24.1,79.8 -11.8,31.2 -28.2,58.8 -46.9,86.3 -8.3,12.3 -16.4,24.7 -22.7,38.1 -4.9,10.3 -10.4,22.9 -9.4,34.6 0.8,8.9 6.8,16.5 15.3,19.3 6.5,2.2 15.3,1.7 21.3,-2.3 8.4,-5.5 7.1,-16.8 10.1,-25.4 2.8,-8.2 6.7,-15.9 11.2,-23.3 12.8,-21.1 28.2,-40 35.6,-64 14.1,-45.7 4.4,-94.6 13.2,-141 1.7,-6.5 3.3,-13 4.9,-19.5 0.5,-2.1 -3.1,-3.2 -3.8,-1.1 z m -13.9,142.9 c -4.7,26 -17,46.6 -31.4,68.2 -5.8,8.7 -11.5,17.5 -16,27 -1.9,4 -3.5,8.1 -4.8,12.4 -3.1,10.2 -3.5,20.7 -16,23 -10.7,1.9 -20.8,-5.7 -21.8,-16.6 -1.1,-13.2 6.2,-27.4 12.1,-38.8 12.3,-23.5 29.3,-44.1 42.6,-67 18.7,-32.2 30.7,-67.5 40.7,-103.2 -2,31.6 0.3,63.7 -5.4,95 z"
               id="path231"
               inkscape:connector-curvature="0" /></g><g
             id="g233"><path
               class="st0"
               d="m 772.3,357.9 c -2.2,31.6 0.1,63.7 -5.5,95 -4.7,26 -17,46.6 -31.4,68.2 -5.8,8.7 -11.5,17.5 -16,27 -1.9,4 -3.5,8.1 -4.8,12.4 -3.1,10.2 -3.5,20.7 -16,23 -10.7,1.9 -20.8,-5.7 -21.8,-16.6 -1.1,-13.2 6.2,-27.4 12.1,-38.8 12.3,-23.5 29.3,-44.1 42.6,-67 18.7,-32.2 30.8,-67.4 40.8,-103.2 z"
               id="path235"
               inkscape:connector-curvature="0"
               style="fill:#ffffff" /></g></g><g
           id="g237"><g
             id="g239"><path
               d="m 816.3,389 c -0.1,0.1 -0.2,0.3 -0.3,0.4 0,0 -0.1,0 0,0.1 -3.4,4.2 -6.5,8.5 -9.4,12.9 -14.2,19.5 -28.7,38.7 -45,56.4 -19.5,21.3 -41.5,38.1 -65.4,54.3 -10.6,7.2 -21.1,14.5 -30.5,23.3 -7.2,6.7 -15.7,15 -18.7,24.8 -2.2,7.4 0.2,15.4 6.1,20.4 4.5,3.9 11.7,6.3 17.9,5 8.5,-1.7 11.2,-11.2 16.3,-17.1 4.9,-5.7 10.5,-10.7 16.5,-15.1 17,-12.8 35.6,-23.1 49.2,-39.9 26,-32.2 33.9,-74.6 55.9,-109.1 3.4,-4.7 6.8,-9.4 10.2,-14.1 1,-1.6 -1.6,-3.8 -2.8,-2.3 z m -57.1,110.4 c -12.1,19.4 -28.6,31.9 -47.1,44.7 -7.5,5.1 -14.9,10.4 -21.5,16.6 -2.8,2.6 -5.4,5.4 -7.8,8.4 -5.8,7.2 -9.5,15.5 -20.3,13.3 -9.2,-1.9 -14.9,-11.3 -12.2,-20.3 3.3,-10.9 13.8,-20 22.2,-27.3 17.5,-14.9 37.8,-26 55.8,-40.1 25.3,-19.9 46.4,-44.3 65.9,-69.9 -11.9,24.7 -20.4,51.2 -35,74.6 z"
               id="path241"
               inkscape:connector-curvature="0" /></g><g
             id="g243"><path
               class="st0"
               d="m 794.2,424.8 c -11.9,24.7 -20.4,51.2 -35,74.5 -12.1,19.4 -28.6,31.9 -47.1,44.7 -7.5,5.1 -14.9,10.4 -21.5,16.6 -2.8,2.6 -5.4,5.4 -7.8,8.4 -5.8,7.2 -9.5,15.5 -20.3,13.3 -9.2,-1.9 -14.9,-11.3 -12.2,-20.3 3.3,-10.9 13.8,-20 22.2,-27.3 17.5,-14.9 37.8,-26 55.8,-40.1 25.4,-19.8 46.4,-44.2 65.9,-69.8 z"
               id="path245"
               inkscape:connector-curvature="0"
               style="fill:#ffffff" /></g></g><g
           id="g247"><g
             id="g249"><path
               d="m 757.9,445 c -0.1,0.1 -0.2,0.2 -0.2,0.3 0,0 0,0 0,0 -2.7,2.9 -5.3,5.9 -7.6,8.9 -11.5,13.5 -23.2,26.7 -36.2,38.8 -15.5,14.5 -32.6,25.6 -51,36.1 -8.2,4.7 -16.3,9.5 -23.7,15.3 -5.7,4.5 -12.4,10.1 -15.1,17.1 -2,5.3 -0.7,11.3 3.3,15.3 3.1,3.1 8.3,5.3 12.8,4.7 6.4,-0.8 8.8,-7.6 12.9,-11.6 3.9,-3.9 8.3,-7.2 12.9,-10.2 13.2,-8.4 27.4,-14.9 38.3,-26.5 20.9,-22.1 29.1,-52.7 47.2,-76.8 2.8,-3.3 5.5,-6.5 8.3,-9.8 0.8,-1 -1,-2.7 -1.9,-1.6 z m -48.1,77.6 c -10,13.5 -22.8,21.8 -37.1,30.1 -5.8,3.3 -11.5,6.8 -16.7,10.9 -2.2,1.8 -4.3,3.6 -6.2,5.7 -4.6,4.9 -7.8,10.8 -15.6,8.6 -6.6,-1.9 -10.3,-9.1 -7.8,-15.6 3.1,-7.8 11.3,-13.9 17.8,-18.7 13.6,-9.9 29.1,-16.9 43.2,-26.3 19.7,-13.1 36.5,-29.8 52.2,-47.5 -10.1,17.6 -17.8,36.5 -29.8,52.8 z"
               id="path251"
               inkscape:connector-curvature="0" /></g><g
             id="g253"><path
               class="st0"
               d="m 739.6,469.9 c -10.1,17.4 -17.8,36.3 -29.9,52.6 -10,13.5 -22.8,21.8 -37.1,30.1 -5.8,3.3 -11.5,6.8 -16.7,10.9 -2.2,1.8 -4.3,3.6 -6.2,5.7 -4.6,4.9 -7.8,10.8 -15.6,8.6 -6.6,-1.9 -10.3,-9.1 -7.8,-15.6 3.1,-7.8 11.3,-13.9 17.8,-18.7 13.6,-9.9 29.1,-16.9 43.2,-26.3 19.8,-12.9 36.6,-29.6 52.3,-47.3 z"
               id="path255"
               inkscape:connector-curvature="0"
               style="fill:#ffffff" /></g></g><g
           id="g257"><g
             id="g259"><path
               d="m 795.8,429.6 c 0,0.1 -0.1,0.2 -0.1,0.3 0,0 0,0 0,0 -1.6,3.3 -2.9,6.7 -4.1,10.1 -6.3,15.2 -12.8,30.2 -20.7,44.6 -9.5,17.2 -21.4,32 -34.5,46.5 -5.8,6.5 -11.6,13 -16.5,20.3 -3.7,5.6 -8,12.5 -8.4,19.4 -0.3,5.2 2.6,10.2 7.3,12.5 3.6,1.8 8.8,2.3 12.6,0.4 5.4,-2.5 5.6,-9.2 8,-14 2.3,-4.5 5.2,-8.7 8.5,-12.7 9.2,-11.2 19.8,-21 26.1,-34.4 12,-25.5 10.4,-54.8 19.4,-81.2 1.5,-3.7 3,-7.3 4.5,-11 0.5,-1 -1.5,-2 -2.1,-0.8 z m -20,82.2 c -4.9,14.8 -13.8,25.8 -24,37.2 -4.1,4.6 -8.2,9.3 -11.6,14.5 -1.4,2.2 -2.7,4.5 -3.8,6.8 -2.7,5.7 -3.8,11.8 -11.3,12.1 -6.4,0.2 -11.7,-5.1 -11.3,-11.5 0.4,-7.8 5.9,-15.5 10.3,-21.6 9.1,-12.7 20.8,-23.3 30.5,-35.6 13.6,-17.3 23.6,-36.8 32.3,-56.9 -3.9,18.3 -5.2,37.2 -11.1,55 z"
               id="path261"
               inkscape:connector-curvature="0" /></g><g
             id="g263"><path
               class="st0"
               d="m 786.9,456.8 c -3.9,18.3 -5.2,37.2 -11.1,55 -4.9,14.8 -13.8,25.8 -24,37.2 -4.1,4.6 -8.2,9.3 -11.6,14.5 -1.4,2.2 -2.7,4.5 -3.8,6.8 -2.7,5.7 -3.8,11.8 -11.3,12.1 -6.4,0.2 -11.7,-5.1 -11.3,-11.5 0.4,-7.8 5.9,-15.5 10.3,-21.6 9.1,-12.7 20.8,-23.3 30.5,-35.6 13.5,-17.2 23.5,-36.8 32.3,-56.9 z"
               id="path265"
               inkscape:connector-curvature="0"
               style="fill:#ffffff" /></g></g><g
           id="g267"><g
             id="g269"><path
               d="m 752.8,476 c 0,0.1 0,0.1 0,0.2 0,0 0,0 0,0 -0.1,2.4 -0.1,4.7 0.1,7 0.1,10.6 0,21.1 -1.1,31.6 -1.3,12.6 -4.7,24.3 -8.8,36.2 -1.8,5.3 -3.6,10.6 -4.7,16.2 -0.8,4.3 -1.6,9.4 -0.1,13.6 1.1,3.2 4.1,5.4 7.5,5.6 2.6,0.2 5.8,-0.9 7.6,-2.9 2.6,-2.8 1,-6.9 1.2,-10.3 0.2,-3.3 0.9,-6.5 1.8,-9.6 2.6,-9 6.5,-17.4 6.9,-26.9 0.7,-18.1 -7.5,-35.1 -8.8,-53 0,-2.6 -0.1,-5.1 -0.1,-7.6 0,-0.8 -1.4,-0.9 -1.5,-0.1 z m 8.8,53.8 c 0.8,10 -1.7,18.7 -4.9,28.1 -1.3,3.7 -2.5,7.5 -3.2,11.5 -0.3,1.6 -0.5,3.3 -0.6,5 -0.2,4 0.7,7.9 -3.7,10 -3.7,1.7 -8.2,-0.1 -9.6,-4 -1.7,-4.7 -0.4,-10.7 0.7,-15.4 2.2,-9.8 6.5,-19 9.1,-28.7 3.7,-13.6 4.7,-27.7 4.9,-41.8 2.4,11.7 6.3,23.3 7.3,35.3 z"
               id="path271"
               inkscape:connector-curvature="0" /></g><g
             id="g273"><path
               class="st0"
               d="m 754.4,494.4 c 2.3,11.8 6.2,23.3 7.2,35.4 0.8,10 -1.7,18.7 -4.9,28.1 -1.3,3.7 -2.5,7.5 -3.2,11.5 -0.3,1.6 -0.5,3.3 -0.6,5 -0.2,4 0.7,7.9 -3.7,10 -3.7,1.7 -8.2,-0.1 -9.6,-4 -1.7,-4.7 -0.4,-10.7 0.7,-15.4 2.2,-9.8 6.5,-19 9.1,-28.7 3.8,-13.7 4.8,-27.8 5,-41.9 z"
               id="path275"
               inkscape:connector-curvature="0"
               style="fill:#ffffff" /></g></g><g
           id="g277"><g
             id="g279"><path
               d="m 842.3,324.5 c 0,0.2 0,0.3 0,0.5 0,0 0,0.1 0,0.1 -0.5,5.6 -0.7,11.1 -0.6,16.6 -1,25 -2.4,50 -6.2,74.8 -4.6,29.7 -13.8,57 -25.1,84.7 -5,12.3 -9.8,24.8 -12.9,37.8 -2.4,10 -4.9,22.1 -1.8,32.3 2.3,7.7 9.1,13.2 17.1,14.1 6.2,0.7 13.8,-1.4 18.3,-6 6.4,-6.4 3.1,-16.1 4.1,-24.2 0.9,-7.7 2.9,-15.3 5.5,-22.6 7.3,-20.9 17.4,-40.5 19.4,-63 3.9,-42.9 -13.8,-84.1 -14.8,-126.6 0.2,-6 0.5,-12.1 0.7,-18.1 -0.1,-2 -3.5,-2.4 -3.7,-0.4 z m 14.5,128.4 c 0.7,23.8 -6.2,44.1 -14.8,65.9 -3.5,8.7 -6.9,17.6 -9,26.8 -0.9,3.9 -1.6,7.8 -1.9,11.8 -0.8,9.6 0.8,18.9 -9.8,23.2 -9.1,3.7 -19.4,-1.2 -22.3,-10.5 -3.5,-11.4 0.3,-25.3 3.4,-36.4 6.4,-23 17.6,-44.3 25,-67 10.4,-31.8 14.4,-65.1 16.5,-98.5 4,28.2 12,56 12.9,84.7 z"
               id="path281"
               inkscape:connector-curvature="0" /></g><g
             id="g283"><path
               class="st0"
               d="m 843.9,368.2 c 4,28.2 12,56 12.9,84.6 0.7,23.8 -6.2,44.1 -14.8,65.9 -3.5,8.7 -6.9,17.6 -9,26.8 -0.9,3.9 -1.6,7.8 -1.9,11.8 -0.8,9.6 0.8,18.9 -9.8,23.2 -9.1,3.7 -19.4,-1.2 -22.3,-10.5 -3.5,-11.4 0.3,-25.3 3.4,-36.4 6.4,-23 17.6,-44.3 25,-67 10.4,-31.8 14.5,-65 16.5,-98.4 z"
               id="path285"
               inkscape:connector-curvature="0"
               style="fill:#ffffff" /></g></g><g
           id="g287"><g
             id="g289"><path
               d="m 898.6,362.6 c -0.1,0.1 -0.1,0.3 -0.2,0.4 0,0 0,0 0,0.1 -2.5,4.8 -4.6,9.7 -6.5,14.6 -9.8,22 -20,43.8 -32.3,64.5 -14.7,24.9 -32.7,45.9 -52.7,66.7 -8.8,9.2 -17.7,18.6 -25,29.1 -5.7,8.1 -12.3,18 -13.1,28.2 -0.6,7.7 3.4,15 10.2,18.7 5.3,2.8 12.8,3.7 18.5,1.2 8,-3.5 8.6,-13.3 12.3,-20.1 3.6,-6.6 8.1,-12.6 13,-18.2 14,-16.1 30,-30 39.8,-49.3 18.8,-36.9 17.7,-80 32,-118.3 2.4,-5.3 4.7,-10.6 7.1,-15.9 0.7,-1.9 -2.2,-3.4 -3.1,-1.7 z m -32.9,119.8 c -7.8,21.5 -21.3,37.2 -36.8,53.5 -6.2,6.6 -12.4,13.2 -17.6,20.7 -2.2,3.1 -4.2,6.4 -5.9,9.8 -4.2,8.2 -6,17.1 -17.1,17.2 -9.4,0.1 -16.9,-8 -16.1,-17.3 1,-11.4 9.4,-22.5 16.1,-31.3 14,-18.2 31.5,-33.3 46.2,-50.9 20.7,-24.7 36.1,-53 49.9,-82 -6.5,26.8 -9.3,54.4 -18.7,80.3 z"
               id="path291"
               inkscape:connector-curvature="0" /></g><g
             id="g293"><path
               class="st0"
               d="m 884.4,402.2 c -6.5,26.6 -9.3,54.3 -18.7,80.2 -7.8,21.5 -21.3,37.2 -36.8,53.5 -6.2,6.6 -12.4,13.2 -17.6,20.7 -2.2,3.1 -4.2,6.4 -5.9,9.8 -4.2,8.2 -6,17.1 -17.1,17.2 -9.4,0.1 -16.9,-8 -16.1,-17.3 1,-11.4 9.4,-22.5 16.1,-31.3 14,-18.2 31.5,-33.3 46.2,-50.9 20.6,-24.6 36.1,-52.8 49.9,-81.9 z"
               id="path295"
               inkscape:connector-curvature="0"
               style="fill:#ffffff" /></g></g><g
           id="g297"><g
             id="g299"><path
               d="m 853,429.5 c -0.1,0.1 -0.1,0.2 -0.2,0.3 0,0 0,0 0,0 -2.1,3.4 -3.9,6.8 -5.6,10.3 -8.5,15.6 -17.2,31 -27.3,45.5 -12.2,17.4 -26.6,31.8 -42.4,45.9 -7,6.3 -14,12.6 -20,19.9 -4.6,5.6 -10,12.5 -11.2,19.9 -0.9,5.6 1.6,11.2 6.4,14.3 3.7,2.4 9.2,3.4 13.5,1.9 6.1,-2.1 7,-9.2 10.2,-14.1 3,-4.6 6.6,-8.8 10.5,-12.6 11.2,-11 23.7,-20.3 32,-33.9 15.8,-26 17.5,-57.6 30.2,-84.9 2,-3.8 4.1,-7.5 6.1,-11.3 0.6,-1.1 -1.4,-2.4 -2.2,-1.2 z m -30.9,85.9 c -7,15.3 -17.7,26 -30,37.2 -4.9,4.5 -9.8,9 -14.1,14.2 -1.8,2.2 -3.4,4.5 -4.9,6.9 -3.5,5.8 -5.4,12.2 -13.5,11.7 -6.9,-0.5 -11.9,-6.8 -10.8,-13.6 1.4,-8.3 8.1,-15.9 13.5,-22 11.3,-12.6 25,-22.6 36.8,-34.7 16.5,-16.9 29.5,-36.8 41.2,-57.3 -6.2,19.1 -9.8,39.2 -18.2,57.6 z"
               id="path301"
               inkscape:connector-curvature="0" /></g><g
             id="g303"><path
               class="st0"
               d="m 840.4,457.7 c -6.3,19.1 -9.9,39.3 -18.3,57.7 -7,15.3 -17.7,26 -30,37.2 -4.9,4.5 -9.8,9 -14.1,14.2 -1.8,2.2 -3.4,4.5 -4.9,6.9 -3.5,5.8 -5.4,12.2 -13.5,11.7 -6.9,-0.5 -11.9,-6.8 -10.8,-13.6 1.4,-8.3 8.1,-15.9 13.5,-22 11.3,-12.6 25,-22.6 36.8,-34.7 16.6,-17.1 29.6,-36.9 41.3,-57.4 z"
               id="path305"
               inkscape:connector-curvature="0"
               style="fill:#ffffff" /></g></g><g
           id="g307"><g
             id="g309"><path
               d="m 886.9,418.8 c 0,0.1 0,0.2 -0.1,0.3 0,0 0,0 0,0 -0.9,3.6 -1.5,7.1 -2,10.7 -3,16.1 -6.2,32.2 -11,47.9 -5.7,18.8 -14.2,35.7 -24.1,52.6 -4.4,7.5 -8.7,15.2 -11.9,23.3 -2.5,6.3 -5.2,13.9 -4.2,20.8 0.8,5.2 4.7,9.4 9.8,10.7 3.9,1 9.1,0.4 12.5,-2.2 4.7,-3.6 3.5,-10.2 4.9,-15.3 1.3,-4.9 3.3,-9.6 5.6,-14.2 6.7,-12.9 15,-24.7 18.4,-39.1 6.5,-27.5 -1.2,-55.8 2.1,-83.5 0.7,-3.9 1.4,-7.8 2.1,-11.7 0.4,-1.1 -1.8,-1.6 -2.1,-0.3 z m -2.5,84.6 c -1.7,15.5 -8.1,28.1 -15.7,41.4 -3.1,5.3 -6.1,10.8 -8.3,16.5 -0.9,2.4 -1.7,4.9 -2.3,7.5 -1.4,6.1 -1.2,12.3 -8.5,14.2 -6.2,1.6 -12.5,-2.5 -13.5,-8.9 -1.2,-7.7 2.6,-16.4 5.6,-23.3 6.3,-14.3 15.5,-27.1 22.4,-41.1 9.7,-19.7 15.4,-40.9 19.8,-62.4 0,18.6 2.6,37.4 0.5,56.1 z"
               id="path311"
               inkscape:connector-curvature="0" /></g><g
             id="g313"><path
               class="st0"
               d="m 883.9,447.3 c 0,18.7 2.6,37.4 0.5,56.1 -1.7,15.5 -8.1,28.1 -15.7,41.4 -3.1,5.3 -6.1,10.8 -8.3,16.5 -0.9,2.4 -1.7,4.9 -2.3,7.5 -1.4,6.1 -1.2,12.3 -8.5,14.2 -6.2,1.6 -12.5,-2.5 -13.5,-8.9 -1.2,-7.7 2.6,-16.4 5.6,-23.3 6.3,-14.3 15.5,-27.1 22.4,-41.1 9.7,-19.8 15.4,-41 19.8,-62.4 z"
               id="path315"
               inkscape:connector-curvature="0"
               style="fill:#ffffff" /></g></g><g
           id="g317"><g
             id="g319"><path
               d="m 912.5,486.3 c 0,0.1 -0.1,0.1 -0.1,0.2 0,0 0,0 0,0 -1.1,2.1 -2,4.3 -2.8,6.4 -4.2,9.7 -8.6,19.3 -13.8,28.5 -6.3,11 -14.1,20.3 -22.7,29.5 -3.8,4.1 -7.6,8.3 -10.8,12.9 -2.5,3.6 -5.3,7.9 -5.6,12.4 -0.2,3.4 1.6,6.6 4.6,8.1 2.3,1.2 5.6,1.6 8.1,0.4 3.5,-1.6 3.7,-5.9 5.3,-8.9 1.5,-2.9 3.5,-5.6 5.6,-8.1 6.1,-7.1 13,-13.3 17.2,-21.8 8,-16.3 7.3,-35.2 13.4,-52 1,-2.3 2,-4.7 3,-7 0.3,-0.7 -1,-1.3 -1.4,-0.6 z M 898.7,539 c -3.3,9.5 -9.2,16.4 -15.9,23.7 -2.7,2.9 -5.4,5.9 -7.6,9.2 -0.9,1.4 -1.8,2.8 -2.5,4.3 -1.8,3.6 -2.6,7.5 -7.4,7.6 -4.1,0.1 -7.5,-3.4 -7.2,-7.5 0.4,-5 4,-9.9 6.9,-13.8 6,-8.1 13.6,-14.8 20,-22.5 8.9,-10.9 15.6,-23.4 21.5,-36.2 -2.7,11.7 -3.8,23.8 -7.8,35.2 z"
               id="path321"
               inkscape:connector-curvature="0" /></g><g
             id="g323"><path
               class="st0"
               d="m 906.5,503.8 c -2.7,11.7 -3.8,23.8 -7.8,35.2 -3.3,9.5 -9.2,16.4 -15.9,23.7 -2.7,2.9 -5.4,5.9 -7.6,9.2 -0.9,1.4 -1.8,2.8 -2.5,4.3 -1.8,3.6 -2.6,7.5 -7.4,7.6 -4.1,0.1 -7.5,-3.4 -7.2,-7.5 0.4,-5 4,-9.9 6.9,-13.8 6,-8.1 13.6,-14.8 20,-22.5 9,-11 15.6,-23.4 21.5,-36.2 z"
               id="path325"
               inkscape:connector-curvature="0"
               style="fill:#ffffff" /></g></g><g
           id="g327"><g
             id="g329"><path
               d="m 251.2,311.2 c 1.6,6.5 3.3,13 4.9,19.5 8.8,46.5 -0.9,95.3 13.2,141 7.4,23.9 22.8,42.9 35.6,64 4.5,7.4 8.4,15.1 11.2,23.3 2.9,8.6 1.7,19.8 10.1,25.4 6,4 14.8,4.5 21.3,2.3 8.4,-2.8 14.5,-10.4 15.3,-19.3 1,-11.8 -4.5,-24.3 -9.4,-34.6 -6.3,-13.4 -14.5,-25.8 -22.7,-38.1 -18.7,-27.5 -35,-55.1 -46.9,-86.3 -9.9,-26 -17.2,-52.9 -24.1,-79.8 -1.2,-6 -2.7,-12 -4.5,-17.9 0,0 0,-0.1 0,-0.1 -0.1,-0.2 -0.1,-0.4 -0.2,-0.5 -0.7,-2.2 -4.3,-1.1 -3.8,1.1 z m 12.1,46.7 c 10,35.8 22,71 40.7,103.2 13.3,22.9 30.3,43.5 42.6,67 5.9,11.3 13.3,25.6 12.1,38.8 -0.9,10.8 -11.1,18.5 -21.8,16.6 -12.5,-2.3 -12.9,-12.8 -16,-23 -1.3,-4.2 -2.9,-8.4 -4.8,-12.4 -4.4,-9.5 -10.2,-18.3 -16,-27 -14.4,-21.7 -26.7,-42.2 -31.4,-68.2 -5.5,-31.3 -3.2,-63.4 -5.4,-95 z"
               id="path331"
               inkscape:connector-curvature="0" /></g><g
             id="g333"><path
               class="st0"
               d="m 263.3,357.9 c 2.2,31.6 -0.1,63.7 5.5,95 4.7,26 17,46.6 31.4,68.2 5.8,8.7 11.5,17.5 16,27 1.9,4 3.5,8.1 4.8,12.4 3.1,10.2 3.5,20.7 16,23 10.7,1.9 20.8,-5.7 21.8,-16.6 1.1,-13.2 -6.2,-27.4 -12.1,-38.8 -12.3,-23.5 -29.3,-44.1 -42.6,-67 -18.7,-32.2 -30.8,-67.4 -40.8,-103.2 z"
               id="path335"
               inkscape:connector-curvature="0"
               style="fill:#ffffff" /></g></g><g
           id="g337"><g
             id="g339"><path
               d="m 216.6,391.2 c 3.4,4.7 6.8,9.4 10.2,14.1 22,34.5 29.9,76.9 55.9,109.1 13.6,16.9 32.1,27.1 49.2,39.9 6,4.5 11.6,9.5 16.5,15.1 5.1,5.9 7.7,15.4 16.3,17.1 6.1,1.3 13.3,-1.1 17.9,-5 5.9,-5 8.3,-13 6.1,-20.4 -3,-9.8 -11.5,-18.1 -18.7,-24.8 -9.4,-8.7 -19.9,-16.1 -30.5,-23.3 -23.8,-16.1 -45.8,-33 -65.4,-54.3 -16.3,-17.7 -30.8,-37 -45,-56.4 -2.9,-4.4 -6,-8.8 -9.4,-12.9 0,0 0,-0.1 0,-0.1 -0.1,-0.1 -0.2,-0.3 -0.3,-0.4 -1.3,-1.4 -3.9,0.8 -2.8,2.3 z m 24.8,33.6 c 19.5,25.5 40.5,50 65.9,69.9 18,14.1 38.4,25.2 55.8,40.1 8.4,7.2 18.9,16.3 22.2,27.3 2.7,9 -3,18.4 -12.2,20.3 -10.8,2.2 -14.5,-6.1 -20.3,-13.3 -2.4,-3 -5,-5.8 -7.8,-8.4 -6.6,-6.2 -14.1,-11.5 -21.5,-16.6 -18.5,-12.8 -35,-25.3 -47.1,-44.7 -14.6,-23.4 -23.1,-49.9 -35,-74.6 z"
               id="path341"
               inkscape:connector-curvature="0" /></g><g
             id="g343"><path
               class="st0"
               d="m 241.4,424.8 c 11.9,24.7 20.4,51.2 35,74.5 12.1,19.4 28.6,31.9 47.1,44.7 7.5,5.1 14.9,10.4 21.5,16.6 2.8,2.6 5.4,5.4 7.8,8.4 5.8,7.2 9.5,15.5 20.3,13.3 9.2,-1.9 14.9,-11.3 12.2,-20.3 -3.3,-10.9 -13.8,-20 -22.2,-27.3 -17.5,-14.9 -37.8,-26 -55.8,-40.1 -25.4,-19.8 -46.4,-44.2 -65.9,-69.8 z"
               id="path345"
               inkscape:connector-curvature="0"
               style="fill:#ffffff" /></g></g><g
           id="g347"><g
             id="g349"><path
               d="m 275.9,446.7 c 2.8,3.3 5.5,6.5 8.3,9.8 18.1,24 26.3,54.6 47.2,76.8 10.9,11.6 25.1,18 38.3,26.5 4.6,3 9,6.3 12.9,10.2 4.1,4.1 6.5,10.9 12.9,11.6 4.6,0.6 9.7,-1.6 12.8,-4.7 4,-4 5.3,-10 3.3,-15.3 -2.7,-7 -9.4,-12.6 -15.1,-17.1 -7.4,-5.9 -15.5,-10.7 -23.7,-15.3 -18.4,-10.5 -35.5,-21.6 -51,-36.1 -12.9,-12.1 -24.7,-25.3 -36.2,-38.8 -2.4,-3.1 -4.9,-6.1 -7.6,-8.9 0,0 0,0 0,0 -0.1,-0.1 -0.2,-0.2 -0.2,-0.3 -1,-1.2 -2.8,0.5 -1.9,1.6 z m 20.1,23.2 c 15.7,17.6 32.5,34.3 52.2,47.5 14,9.3 29.5,16.3 43.2,26.3 6.6,4.8 14.8,10.9 17.8,18.7 2.5,6.4 -1.1,13.7 -7.8,15.6 -7.8,2.2 -11,-3.7 -15.6,-8.6 -1.9,-2.1 -4,-4 -6.2,-5.7 -5.2,-4.2 -11,-7.6 -16.7,-10.9 -14.3,-8.3 -27.1,-16.6 -37.1,-30.1 -12,-16.4 -19.7,-35.3 -29.8,-52.8 z"
               id="path351"
               inkscape:connector-curvature="0" /></g><g
             id="g353"><path
               class="st0"
               d="m 296,469.9 c 10.1,17.4 17.8,36.3 29.9,52.6 10,13.5 22.8,21.8 37.1,30.1 5.8,3.3 11.5,6.8 16.7,10.9 2.2,1.8 4.3,3.6 6.2,5.7 4.6,4.9 7.8,10.8 15.6,8.6 6.6,-1.9 10.3,-9.1 7.8,-15.6 -3.1,-7.8 -11.3,-13.9 -17.8,-18.7 -13.6,-9.9 -29.1,-16.9 -43.2,-26.3 -19.8,-12.9 -36.6,-29.6 -52.3,-47.3 z"
               id="path355"
               inkscape:connector-curvature="0"
               style="fill:#ffffff" /></g></g><g
           id="g357"><g
             id="g359"><path
               d="m 237.7,430.6 c 1.5,3.7 3,7.3 4.5,11 9,26.4 7.4,55.7 19.4,81.2 6.3,13.4 16.9,23.1 26.1,34.4 3.2,3.9 6.1,8.1 8.5,12.7 2.4,4.8 2.6,11.4 8,14 3.8,1.8 9,1.4 12.6,-0.4 4.7,-2.4 7.6,-7.3 7.3,-12.5 -0.4,-7 -4.7,-13.8 -8.4,-19.4 -4.8,-7.3 -10.6,-13.9 -16.5,-20.3 -13.2,-14.5 -25,-29.2 -34.5,-46.5 -7.9,-14.4 -14.4,-29.4 -20.7,-44.6 -1.2,-3.4 -2.6,-6.8 -4.1,-10.1 0,0 0,0 0,0 0,-0.1 -0.1,-0.2 -0.1,-0.3 -0.5,-1.4 -2.6,-0.4 -2.1,0.8 z m 11,26.2 c 8.8,20.1 18.8,39.6 32.3,56.9 9.7,12.3 21.3,22.9 30.5,35.6 4.4,6.1 9.9,13.9 10.3,21.6 0.3,6.4 -4.9,11.7 -11.3,11.5 -7.5,-0.3 -8.6,-6.4 -11.3,-12.1 -1.1,-2.4 -2.4,-4.6 -3.8,-6.8 -3.4,-5.2 -7.5,-9.9 -11.6,-14.5 -10.2,-11.4 -19.1,-22.4 -24,-37.2 -5.9,-17.8 -7.2,-36.7 -11.1,-55 z"
               id="path361"
               inkscape:connector-curvature="0" /></g><g
             id="g363"><path
               class="st0"
               d="m 248.7,456.8 c 3.9,18.3 5.2,37.2 11.1,55 4.9,14.8 13.8,25.8 24,37.2 4.1,4.6 8.2,9.3 11.6,14.5 1.4,2.2 2.7,4.5 3.8,6.8 2.7,5.7 3.8,11.8 11.3,12.1 6.4,0.2 11.7,-5.1 11.3,-11.5 -0.4,-7.8 -5.9,-15.5 -10.3,-21.6 C 302.4,536.6 290.7,526 281,513.7 267.5,496.5 257.5,476.9 248.7,456.8 Z"
               id="path365"
               inkscape:connector-curvature="0"
               style="fill:#ffffff" /></g></g><g
           id="g367"><g
             id="g369"><path
               d="m 281.3,476.1 c 0,2.5 -0.1,5.1 -0.1,7.6 -1.3,17.9 -9.6,34.9 -8.8,53 0.4,9.5 4.2,17.9 6.9,26.9 0.9,3.1 1.6,6.4 1.8,9.6 0.2,3.4 -1.3,7.4 1.2,10.3 1.8,2 5,3.1 7.6,2.9 3.4,-0.2 6.3,-2.4 7.5,-5.6 1.5,-4.2 0.7,-9.4 -0.1,-13.6 -1,-5.5 -2.8,-10.9 -4.7,-16.2 -4.2,-11.9 -7.5,-23.6 -8.8,-36.2 -1.1,-10.5 -1.2,-21.1 -1.1,-31.6 0.1,-2.3 0.2,-4.7 0.1,-7 0,0 0,0 0,0 0,-0.1 0,-0.1 0,-0.2 -0.1,-0.8 -1.5,-0.7 -1.5,0.1 z m -0.1,18.3 c 0.2,14.1 1.2,28.2 4.9,41.8 2.7,9.7 6.9,18.9 9.1,28.7 1.1,4.7 2.4,10.7 0.7,15.4 -1.4,3.9 -5.8,5.7 -9.6,4 -4.4,-2 -3.5,-5.9 -3.7,-10 -0.1,-1.7 -0.3,-3.4 -0.6,-5 -0.7,-3.9 -2,-7.7 -3.2,-11.5 -3.2,-9.3 -5.7,-18.1 -4.9,-28.1 1.1,-11.9 5,-23.5 7.3,-35.3 z"
               id="path371"
               inkscape:connector-curvature="0" /></g><g
             id="g373"><path
               class="st0"
               d="m 281.2,494.4 c -2.3,11.8 -6.2,23.3 -7.2,35.4 -0.8,10 1.7,18.7 4.9,28.1 1.3,3.7 2.5,7.5 3.2,11.5 0.3,1.6 0.5,3.3 0.6,5 0.2,4 -0.7,7.9 3.7,10 3.7,1.7 8.2,-0.1 9.6,-4 1.7,-4.7 0.4,-10.7 -0.7,-15.4 -2.2,-9.8 -6.5,-19 -9.1,-28.7 -3.8,-13.7 -4.8,-27.8 -5,-41.9 z"
               id="path375"
               inkscape:connector-curvature="0"
               style="fill:#ffffff" /></g></g><g
           id="g377"><g
             id="g379"><path
               d="m 189.7,324.8 c 0.2,6 0.4,12.1 0.7,18.1 -1,42.5 -18.6,83.7 -14.8,126.6 2,22.4 12.1,42 19.4,63 2.6,7.3 4.5,14.9 5.5,22.6 1,8.1 -2.3,17.8 4.1,24.2 4.6,4.6 12.2,6.7 18.3,6 8,-0.9 14.7,-6.5 17.1,-14.1 3.1,-10.2 0.6,-22.2 -1.8,-32.3 -3,-13 -7.9,-25.4 -12.9,-37.8 -11.3,-27.7 -20.5,-55 -25.1,-84.7 -3.8,-24.8 -5.2,-49.7 -6.2,-74.8 0.1,-5.5 -0.1,-11 -0.6,-16.6 0,0 0,-0.1 0,-0.1 0,-0.2 0,-0.3 0,-0.5 -0.3,-1.9 -3.7,-1.5 -3.7,0.4 z m 2,43.4 c 2.1,33.4 6.1,66.6 16.5,98.5 7.4,22.7 18.5,44 25,67 3.1,11.1 6.9,25 3.4,36.4 -2.9,9.3 -13.2,14.2 -22.3,10.5 -10.6,-4.3 -9,-13.7 -9.8,-23.2 -0.3,-4 -1,-7.9 -1.9,-11.8 -2.1,-9.2 -5.5,-18 -9,-26.8 C 185,497 178,476.7 178.8,452.9 c 0.9,-28.7 8.9,-56.5 12.9,-84.7 z"
               id="path381"
               inkscape:connector-curvature="0" /></g><g
             id="g383"><path
               class="st0"
               d="m 191.7,368.2 c -4,28.2 -12,56 -12.9,84.6 -0.7,23.8 6.2,44.1 14.8,65.9 3.5,8.7 6.9,17.6 9,26.8 0.9,3.9 1.6,7.8 1.9,11.8 0.8,9.6 -0.8,18.9 9.8,23.2 9.1,3.7 19.4,-1.2 22.3,-10.5 3.5,-11.4 -0.3,-25.3 -3.4,-36.4 -6.4,-23 -17.6,-44.3 -25,-67 -10.4,-31.8 -14.5,-65 -16.5,-98.4 z"
               id="path385"
               inkscape:connector-curvature="0"
               style="fill:#ffffff" /></g></g><g
           id="g387"><g
             id="g389"><path
               d="m 134,364.2 c 2.3,5.3 4.7,10.6 7.1,15.9 14.3,38.3 13.3,81.4 32,118.3 9.8,19.3 25.8,33.2 39.8,49.3 4.9,5.6 9.4,11.7 13,18.2 3.8,6.9 4.3,16.7 12.3,20.1 5.7,2.5 13.3,1.6 18.5,-1.2 6.8,-3.7 10.8,-11 10.2,-18.7 -0.9,-10.2 -7.4,-20.1 -13.1,-28.2 -7.4,-10.5 -16.2,-19.9 -25,-29.1 -20,-20.7 -38,-41.8 -52.7,-66.7 -12.2,-20.7 -22.4,-42.5 -32.3,-64.5 -1.9,-4.9 -4,-9.8 -6.5,-14.6 0,0 0,-0.1 0,-0.1 -0.1,-0.1 -0.1,-0.3 -0.2,-0.4 -1,-1.6 -3.9,-0.1 -3.1,1.7 z m 17.2,38 c 13.8,29 29.3,57.3 49.9,82 14.7,17.6 32.3,32.6 46.2,50.9 6.7,8.8 15.1,19.9 16.1,31.3 0.8,9.4 -6.7,17.4 -16.1,17.3 -11,-0.1 -12.9,-9 -17.1,-17.2 -1.7,-3.4 -3.7,-6.7 -5.9,-9.8 -5.2,-7.5 -11.4,-14.1 -17.6,-20.7 -15.5,-16.4 -29,-32.1 -36.8,-53.5 -9.4,-26 -12.2,-53.6 -18.7,-80.3 z"
               id="path391"
               inkscape:connector-curvature="0" /></g><g
             id="g393"><path
               class="st0"
               d="m 151.2,402.2 c 6.5,26.6 9.3,54.3 18.7,80.2 7.8,21.5 21.3,37.2 36.8,53.5 6.2,6.6 12.4,13.2 17.6,20.7 2.2,3.1 4.2,6.4 5.9,9.8 4.2,8.2 6,17.1 17.1,17.2 9.4,0.1 16.9,-8 16.1,-17.3 -1,-11.4 -9.4,-22.5 -16.1,-31.3 -14,-18.2 -31.5,-33.3 -46.2,-50.9 -20.6,-24.6 -36.1,-52.8 -49.9,-81.9 z"
               id="path395"
               inkscape:connector-curvature="0"
               style="fill:#ffffff" /></g></g><g
           id="g397"><g
             id="g399"><path
               d="m 180.4,430.8 c 2,3.8 4,7.5 6.1,11.3 12.7,27.3 14.3,58.9 30.2,84.9 8.3,13.6 20.8,22.9 32,33.9 3.9,3.9 7.5,8 10.5,12.6 3.1,4.8 4.1,12 10.2,14.1 4.3,1.5 9.8,0.5 13.5,-1.9 4.8,-3.1 7.3,-8.7 6.4,-14.3 -1.2,-7.4 -6.6,-14.3 -11.2,-19.9 -6,-7.3 -13,-13.7 -20,-19.9 -15.8,-14.1 -30.2,-28.5 -42.4,-45.9 -10.2,-14.5 -18.9,-29.9 -27.3,-45.5 -1.7,-3.5 -3.5,-7 -5.6,-10.3 0,0 0,0 0,0 -0.1,-0.1 -0.1,-0.2 -0.2,-0.3 -0.8,-1.3 -2.8,0 -2.2,1.2 z m 14.8,26.9 c 11.7,20.5 24.7,40.3 41.2,57.3 11.8,12.1 25.5,22.1 36.8,34.7 5.4,6.1 12.2,13.7 13.5,22 1.1,6.8 -3.9,13.1 -10.8,13.6 -8.1,0.6 -10,-5.9 -13.5,-11.7 -1.4,-2.4 -3.1,-4.7 -4.9,-6.9 -4.2,-5.2 -9.1,-9.7 -14.1,-14.2 -12.3,-11.1 -23,-21.9 -30,-37.2 -8.3,-18.3 -11.9,-38.4 -18.2,-57.6 z"
               id="path401"
               inkscape:connector-curvature="0" /></g><g
             id="g403"><path
               class="st0"
               d="m 195.2,457.7 c 6.3,19.1 9.9,39.3 18.3,57.7 7,15.3 17.7,26 30,37.2 4.9,4.5 9.8,9 14.1,14.2 1.8,2.2 3.4,4.5 4.9,6.9 3.5,5.8 5.4,12.2 13.5,11.7 6.9,-0.5 11.9,-6.8 10.8,-13.6 -1.4,-8.3 -8.1,-15.9 -13.5,-22 C 262,537.2 248.3,527.2 236.5,515.1 219.9,498 207,478.2 195.2,457.7 Z"
               id="path405"
               inkscape:connector-curvature="0"
               style="fill:#ffffff" /></g></g><g
           id="g407"><g
             id="g409"><path
               d="m 146.4,419.3 c 0.7,3.9 1.4,7.8 2.1,11.7 3.3,27.7 -4.3,56 2.1,83.5 3.4,14.4 11.7,26.1 18.4,39.1 2.3,4.5 4.3,9.2 5.6,14.2 1.4,5.2 0.2,11.7 4.9,15.3 3.4,2.6 8.5,3.2 12.5,2.2 5.1,-1.3 8.9,-5.6 9.8,-10.7 1.1,-6.9 -1.7,-14.5 -4.2,-20.8 -3.2,-8.1 -7.5,-15.8 -11.9,-23.3 -9.9,-16.9 -18.4,-33.8 -24.1,-52.6 -4.8,-15.7 -8,-31.8 -11,-47.9 -0.5,-3.6 -1.1,-7.2 -2,-10.7 0,0 0,0 0,0 0,-0.1 0,-0.2 -0.1,-0.3 -0.1,-1.5 -2.3,-1 -2.1,0.3 z m 5.3,28 c 4.4,21.4 10.1,42.7 19.8,62.4 6.9,14 16.1,26.8 22.4,41.1 3,6.9 6.8,15.6 5.6,23.3 -1,6.3 -7.3,10.4 -13.5,8.9 -7.3,-1.8 -7.1,-8 -8.5,-14.2 -0.6,-2.5 -1.4,-5 -2.3,-7.5 -2.2,-5.8 -5.2,-11.2 -8.3,-16.5 -7.6,-13.3 -14,-25.9 -15.7,-41.4 -2.1,-18.7 0.5,-37.5 0.5,-56.1 z"
               id="path411"
               inkscape:connector-curvature="0" /></g><g
             id="g413"><path
               class="st0"
               d="m 151.7,447.3 c 0,18.7 -2.6,37.4 -0.5,56.1 1.7,15.5 8.1,28.1 15.7,41.4 3.1,5.3 6.1,10.8 8.3,16.5 0.9,2.4 1.7,4.9 2.3,7.5 1.4,6.1 1.2,12.3 8.5,14.2 6.2,1.6 12.5,-2.5 13.5,-8.9 1.2,-7.7 -2.6,-16.4 -5.6,-23.3 -6.3,-14.3 -15.5,-27.1 -22.4,-41.1 -9.7,-19.8 -15.4,-41 -19.8,-62.4 z"
               id="path415"
               inkscape:connector-curvature="0"
               style="fill:#ffffff" /></g></g><g
           id="g417"><g
             id="g419"><path
               d="m 121.8,487 c 1,2.3 2,4.7 3,7 6.1,16.9 5.4,35.7 13.4,52 4.2,8.5 11.1,14.7 17.2,21.8 2.1,2.5 4,5.2 5.6,8.1 1.6,3 1.8,7.3 5.3,8.9 2.5,1.1 5.8,0.8 8.1,-0.4 3,-1.6 4.8,-4.8 4.6,-8.1 -0.3,-4.5 -3.2,-8.8 -5.6,-12.4 -3.2,-4.6 -7,-8.8 -10.8,-12.9 -8.6,-9.2 -16.4,-18.5 -22.7,-29.5 -5.3,-9.2 -9.6,-18.8 -13.8,-28.5 -0.8,-2.2 -1.7,-4.3 -2.8,-6.4 0,0 0,0 0,0 0,-0.1 -0.1,-0.1 -0.1,-0.2 -0.5,-0.8 -1.8,-0.2 -1.4,0.6 z m 7.3,16.8 c 5.9,12.8 12.5,25.3 21.5,36.2 6.4,7.8 14,14.5 20,22.5 2.9,3.9 6.5,8.8 6.9,13.8 0.3,4.1 -3,7.6 -7.2,7.5 -4.8,-0.1 -5.6,-4 -7.4,-7.6 -0.7,-1.5 -1.6,-3 -2.5,-4.3 -2.2,-3.3 -4.9,-6.3 -7.6,-9.2 -6.7,-7.2 -12.5,-14.2 -15.9,-23.7 -4,-11.4 -5.1,-23.5 -7.8,-35.2 z"
               id="path421"
               inkscape:connector-curvature="0" /></g><g
             id="g423"><path
               class="st0"
               d="m 129.1,503.8 c 2.7,11.7 3.8,23.8 7.8,35.2 3.3,9.5 9.2,16.4 15.9,23.7 2.7,2.9 5.4,5.9 7.6,9.2 0.9,1.4 1.8,2.8 2.5,4.3 1.8,3.6 2.6,7.5 7.4,7.6 4.1,0.1 7.5,-3.4 7.2,-7.5 -0.4,-5 -4,-9.9 -6.9,-13.8 -6,-8.1 -13.6,-14.8 -20,-22.5 -8.9,-11 -15.6,-23.4 -21.5,-36.2 z"
               id="path425"
               inkscape:connector-curvature="0"
               style="fill:#ffffff" /></g></g><g
           id="g427"><path
             d="m 518.5,586.4 c -116.2,0 -210.8,-94.6 -210.8,-210.8 0,-116.2 94.6,-210.8 210.8,-210.8 116.2,0 210.8,94.6 210.8,210.8 0,116.2 -94.6,210.8 -210.8,210.8 z m 0,-407.7 c -108.6,0 -197,88.4 -197,197 0,108.6 88.4,197 197,197 108.6,0 197,-88.4 197,-197 0,-108.6 -88.4,-197 -197,-197 z"
             id="path429"
             inkscape:connector-curvature="0" /></g><g
           id="g431"><g
             id="g433"><path
               d="m 701.9,375.7 c -0.6,76.2 -48.4,146 -120.4,172.3 -72.1,26.3 -154.9,3.9 -204,-55 -49.3,-59.2 -56,-145.7 -16.3,-211.7 39.8,-66.2 119.1,-100.9 194.7,-85.1 84.6,17.5 145.3,93.7 146,179.5 0,1.9 3,1.9 3,0 C 704.3,298.1 655.6,227.3 582.4,200.6 509,173.8 424.3,197 374.7,257.3 c -49.8,60.5 -56.1,148.5 -15.2,215.4 40.3,65.9 119,100.5 194.8,85.9 86.9,-16.8 150,-94.9 150.7,-182.9 -0.2,-1.9 -3.1,-1.9 -3.1,0 z"
               id="path435"
               inkscape:connector-curvature="0" /></g></g><g
           id="g437"><path
             d="m 907.4,593.3 -777.8,0 c -3.8,0 -6.9,-3.1 -6.9,-6.9 0,-3.8 3.1,-6.9 6.9,-6.9 l 777.8,0 c 3.8,0 6.9,3.1 6.9,6.9 0,3.8 -3.1,6.9 -6.9,6.9 z"
             id="path439"
             inkscape:connector-curvature="0" /></g><g
           id="g441"><path
             d="m 907.4,754.7 -777.8,0 c -3.8,0 -6.9,-3.1 -6.9,-6.9 0,-3.8 3.1,-6.9 6.9,-6.9 l 777.8,0 c 3.8,0 6.9,3.1 6.9,6.9 0,3.8 -3.1,6.9 -6.9,6.9 z"
             id="path443"
             inkscape:connector-curvature="0" /></g><g
           id="g445"><circle
             cx="124.2"
             cy="586.40002"
             r="13.4"
             id="circle447" /></g><g
           id="g449"><circle
             cx="907.40002"
             cy="586.40002"
             r="13.4"
             id="circle451" /></g><g
           id="g453"><circle
             cx="124.2"
             cy="747.79999"
             r="13.4"
             id="circle455" /></g><g
           id="g457"><circle
             cx="907.40002"
             cy="747.79999"
             r="13.4"
             id="circle459" /></g><g
           id="g461"><g
             id="g463"><g
               id="g465"><path
                 d="m 834.9,754 -2.5,0 -2.2,1 c -0.4,0.2 -0.9,0.4 -1.4,0.7 -0.9,0.5 -1.8,1 -2,1.2 -4.2,2.9 -6.3,5.4 -7.4,6.4 -2.2,2 -7.1,11.5 -3.1,16.1 2.5,2.9 6.5,2.4 8.5,0.6 1.8,-1.6 3.2,-5.6 0.6,-8.5 -1.8,-2 -3.7,-1.7 -3.7,-1.7 0,0 1,-9.7 19.3,-11.6 0,0 -8.4,1.9 -6.6,7.7 1.7,5.7 7.3,5.2 12.5,0.6 2.1,-1.9 5,-3.4 8.8,-4.7 l 0,-7.8 -20.8,0 z"
                 id="path467"
                 inkscape:connector-curvature="0" /></g><g
               id="g469"><path
                 d="m 855.6,761.7 c 6.8,-2.3 16.6,-3.7 30.4,-5.2 l 0.3,0 0,-2.5 -30.7,0 0,7.7 z"
                 id="path471"
                 inkscape:connector-curvature="0" /></g></g><g
             id="g473"><g
               id="g475"><g
                 id="g477"><path
                   d="m 767.4,755.7 c -0.1,0 -0.2,0 -0.2,0.1 l -4,0.7 c -13.8,1.5 -23.6,3 -30.4,5.2 l 0,-7.7 38.2,0 -2.2,1 c -0.4,0.2 -0.9,0.4 -1.4,0.7 z"
                   id="path479"
                   inkscape:connector-curvature="0" /></g><g
                 id="g481"><path
                   d="m 785.3,766.4 c -5.1,4.6 -10.8,5.1 -12.5,-0.6 -1.8,-5.8 6.6,-7.7 6.6,-7.7 -18.3,2 -19.3,11.6 -19.3,11.6 0,0 1.9,-0.3 3.7,1.7 2.6,2.9 1.2,6.9 -0.6,8.5 -2,1.9 -6,2.3 -8.5,-0.6 -4,-4.7 0.9,-14.1 3.1,-16.1 1.1,-1 3.2,-3.6 7.4,-6.4 0.2,-0.1 1.1,-0.7 2,-1.2 0.5,-0.3 1,-0.6 1.4,-0.7 l 2.2,-1 2.5,0 20.7,0 0,7.7 c -3.7,1.4 -6.6,2.9 -8.7,4.8 z"
                   id="path483"
                   inkscape:connector-curvature="0" /></g></g><g
               id="g485"><g
                 id="g487"><path
                   d="m 828.8,755.7 c -0.1,0 -0.2,0 -0.2,0.1 l -4,0.7 c -13.8,1.5 -23.6,3 -30.4,5.2 l 0,-7.7 38.3,0 -2.2,1 c -0.4,0.2 -1,0.4 -1.5,0.7 z"
                   id="path489"
                   inkscape:connector-curvature="0" /></g><g
                 id="g491"><path
                   d="m 846.8,766.4 c -5.1,4.6 -10.8,5.1 -12.5,-0.6 -1.8,-5.8 6.6,-7.7 6.6,-7.7 -18.3,2 -19.3,11.6 -19.3,11.6 0,0 1.9,-0.3 3.7,1.7 2.6,2.9 1.2,6.9 -0.6,8.5 -2,1.9 -6,2.3 -8.5,-0.6 -4,-4.7 0.9,-14.1 3.1,-16.1 1.1,-1 3.2,-3.6 7.4,-6.4 0.2,-0.1 1.1,-0.7 2,-1.2 0.5,-0.3 1,-0.6 1.4,-0.7 l 2.2,-1 2.5,0 20.7,0 0,7.7 c -3.7,1.4 -6.6,2.9 -8.7,4.8 z"
                   id="path493"
                   inkscape:connector-curvature="0" /></g></g></g><g
             id="g495"><g
               id="g497"><g
                 id="g499"><path
                   d="m 705.9,755.7 c -0.1,0 -0.2,0 -0.2,0.1 l -4,0.7 c -13.8,1.5 -23.6,3 -30.4,5.2 l 0,-7.7 38.3,0 -2.2,1 c -0.5,0.2 -1,0.4 -1.5,0.7 z"
                   id="path501"
                   inkscape:connector-curvature="0" /></g><g
                 id="g503"><path
                   d="m 723.8,766.4 c -5.1,4.6 -10.8,5.1 -12.5,-0.6 -1.8,-5.8 6.6,-7.7 6.6,-7.7 -18.3,2 -19.3,11.6 -19.3,11.6 0,0 1.9,-0.3 3.7,1.7 2.6,2.9 1.2,6.9 -0.6,8.5 -2,1.9 -6,2.3 -8.5,-0.6 -4,-4.7 0.9,-14.1 3.1,-16.1 1.1,-1 3.2,-3.6 7.4,-6.4 0.2,-0.1 1.1,-0.7 2,-1.2 0.5,-0.3 1,-0.6 1.4,-0.7 l 2.2,-1 2.5,0 20.7,0 0,7.7 c -3.7,1.4 -6.5,2.9 -8.7,4.8 z"
                   id="path505"
                   inkscape:connector-curvature="0" /></g></g><g
               id="g507"><g
                 id="g509"><path
                   d="m 767.4,755.7 c -0.1,0 -0.2,0 -0.2,0.1 l -4,0.7 c -13.8,1.5 -23.6,3 -30.4,5.2 l 0,-7.7 38.2,0 -2.2,1 c -0.4,0.2 -0.9,0.4 -1.4,0.7 z"
                   id="path511"
                   inkscape:connector-curvature="0" /></g><g
                 id="g513"><path
                   d="m 785.3,766.4 c -5.1,4.6 -10.8,5.1 -12.5,-0.6 -1.8,-5.8 6.6,-7.7 6.6,-7.7 -18.3,2 -19.3,11.6 -19.3,11.6 0,0 1.9,-0.3 3.7,1.7 2.6,2.9 1.2,6.9 -0.6,8.5 -2,1.9 -6,2.3 -8.5,-0.6 -4,-4.7 0.9,-14.1 3.1,-16.1 1.1,-1 3.2,-3.6 7.4,-6.4 0.2,-0.1 1.1,-0.7 2,-1.2 0.5,-0.3 1,-0.6 1.4,-0.7 l 2.2,-1 2.5,0 20.7,0 0,7.7 c -3.7,1.4 -6.6,2.9 -8.7,4.8 z"
                   id="path515"
                   inkscape:connector-curvature="0" /></g></g></g><g
             id="g517"><g
               id="g519"><g
                 id="g521"><path
                   d="m 644.4,755.7 c -0.1,0 -0.2,0 -0.2,0.1 l -4,0.7 c -13.8,1.5 -23.6,3 -30.4,5.2 l 0,-7.7 38.2,0 -2.2,1 c -0.4,0.2 -0.9,0.4 -1.4,0.7 z"
                   id="path523"
                   inkscape:connector-curvature="0" /></g><g
                 id="g525"><path
                   d="m 662.4,766.4 c -5.1,4.6 -10.8,5.1 -12.5,-0.6 -1.8,-5.8 6.6,-7.7 6.6,-7.7 -18.3,2 -19.3,11.6 -19.3,11.6 0,0 1.9,-0.3 3.7,1.7 2.6,2.9 1.2,6.9 -0.6,8.5 -2,1.9 -6,2.3 -8.5,-0.6 -4,-4.7 0.9,-14.1 3.1,-16.1 1.1,-1 3.2,-3.6 7.4,-6.4 0.2,-0.1 1.1,-0.7 2,-1.2 0.5,-0.3 1,-0.6 1.4,-0.7 l 2.2,-1 2.5,0 20.7,0 0,7.7 c -3.7,1.4 -6.6,2.9 -8.7,4.8 z"
                   id="path527"
                   inkscape:connector-curvature="0" /></g></g><g
               id="g529"><g
                 id="g531"><path
                   d="m 705.9,755.7 c -0.1,0 -0.2,0 -0.2,0.1 l -4,0.7 c -13.8,1.5 -23.6,3 -30.4,5.2 l 0,-7.7 38.3,0 -2.2,1 c -0.5,0.2 -1,0.4 -1.5,0.7 z"
                   id="path533"
                   inkscape:connector-curvature="0" /></g><g
                 id="g535"><path
                   d="m 723.8,766.4 c -5.1,4.6 -10.8,5.1 -12.5,-0.6 -1.8,-5.8 6.6,-7.7 6.6,-7.7 -18.3,2 -19.3,11.6 -19.3,11.6 0,0 1.9,-0.3 3.7,1.7 2.6,2.9 1.2,6.9 -0.6,8.5 -2,1.9 -6,2.3 -8.5,-0.6 -4,-4.7 0.9,-14.1 3.1,-16.1 1.1,-1 3.2,-3.6 7.4,-6.4 0.2,-0.1 1.1,-0.7 2,-1.2 0.5,-0.3 1,-0.6 1.4,-0.7 l 2.2,-1 2.5,0 20.7,0 0,7.7 c -3.7,1.4 -6.5,2.9 -8.7,4.8 z"
                   id="path537"
                   inkscape:connector-curvature="0" /></g></g></g><g
             id="g539"><g
               id="g541"><g
                 id="g543"><path
                   d="m 582.9,755.7 c -0.1,0 -0.2,0 -0.2,0.1 l -4,0.7 c -13.8,1.5 -23.6,3 -30.4,5.2 l 0,-7.7 38.3,0 -2.2,1 c -0.4,0.2 -0.9,0.4 -1.5,0.7 z"
                   id="path545"
                   inkscape:connector-curvature="0" /></g><g
                 id="g547"><path
                   d="m 600.9,766.4 c -5.1,4.6 -10.8,5.1 -12.5,-0.6 -1.8,-5.8 6.6,-7.7 6.6,-7.7 -18.3,2 -19.3,11.6 -19.3,11.6 0,0 1.9,-0.3 3.7,1.7 2.6,2.9 1.2,6.9 -0.6,8.5 -2,1.9 -6,2.3 -8.5,-0.6 -4,-4.7 0.9,-14.1 3.1,-16.1 1.1,-1 3.2,-3.6 7.4,-6.4 0.2,-0.1 1.1,-0.7 2,-1.2 0.5,-0.3 1,-0.6 1.4,-0.7 l 2.2,-1 2.5,0 20.7,0 0,7.7 c -3.7,1.4 -6.6,2.9 -8.7,4.8 z"
                   id="path549"
                   inkscape:connector-curvature="0" /></g></g><g
               id="g551"><g
                 id="g553"><path
                   d="m 644.4,755.7 c -0.1,0 -0.2,0 -0.2,0.1 l -4,0.7 c -13.8,1.5 -23.6,3 -30.4,5.2 l 0,-7.7 38.2,0 -2.2,1 c -0.4,0.2 -0.9,0.4 -1.4,0.7 z"
                   id="path555"
                   inkscape:connector-curvature="0" /></g><g
                 id="g557"><path
                   d="m 662.4,766.4 c -5.1,4.6 -10.8,5.1 -12.5,-0.6 -1.8,-5.8 6.6,-7.7 6.6,-7.7 -18.3,2 -19.3,11.6 -19.3,11.6 0,0 1.9,-0.3 3.7,1.7 2.6,2.9 1.2,6.9 -0.6,8.5 -2,1.9 -6,2.3 -8.5,-0.6 -4,-4.7 0.9,-14.1 3.1,-16.1 1.1,-1 3.2,-3.6 7.4,-6.4 0.2,-0.1 1.1,-0.7 2,-1.2 0.5,-0.3 1,-0.6 1.4,-0.7 l 2.2,-1 2.5,0 20.7,0 0,7.7 c -3.7,1.4 -6.6,2.9 -8.7,4.8 z"
                   id="path559"
                   inkscape:connector-curvature="0" /></g></g></g><g
             id="g561"><g
               id="g563"><g
                 id="g565"><path
                   d="m 521.5,755.7 c -0.1,0 -0.2,0 -0.2,0.1 l -4,0.7 c -13.8,1.5 -23.6,3 -30.4,5.2 l 0,-7.7 38.3,0 -2.2,1 c -0.5,0.2 -1,0.4 -1.5,0.7 z"
                   id="path567"
                   inkscape:connector-curvature="0" /></g><g
                 id="g569"><path
                   d="m 539.4,766.4 c -5.1,4.6 -10.8,5.1 -12.5,-0.6 -1.8,-5.8 6.6,-7.7 6.6,-7.7 -18.3,2 -19.3,11.6 -19.3,11.6 0,0 1.9,-0.3 3.7,1.7 2.6,2.9 1.2,6.9 -0.6,8.5 -2,1.9 -6,2.3 -8.5,-0.6 -4,-4.7 0.9,-14.1 3.1,-16.1 1.1,-1 3.2,-3.6 7.4,-6.4 0.2,-0.1 1.1,-0.7 2,-1.2 0.5,-0.3 1,-0.6 1.4,-0.7 l 2.2,-1 2.5,0 20.7,0 0,7.7 c -3.7,1.4 -6.6,2.9 -8.7,4.8 z"
                   id="path571"
                   inkscape:connector-curvature="0" /></g></g><g
               id="g573"><g
                 id="g575"><path
                   d="m 582.9,755.7 c -0.1,0 -0.2,0 -0.2,0.1 l -4,0.7 c -13.8,1.5 -23.6,3 -30.4,5.2 l 0,-7.7 38.3,0 -2.2,1 c -0.4,0.2 -0.9,0.4 -1.5,0.7 z"
                   id="path577"
                   inkscape:connector-curvature="0" /></g><g
                 id="g579"><path
                   d="m 600.9,766.4 c -5.1,4.6 -10.8,5.1 -12.5,-0.6 -1.8,-5.8 6.6,-7.7 6.6,-7.7 -18.3,2 -19.3,11.6 -19.3,11.6 0,0 1.9,-0.3 3.7,1.7 2.6,2.9 1.2,6.9 -0.6,8.5 -2,1.9 -6,2.3 -8.5,-0.6 -4,-4.7 0.9,-14.1 3.1,-16.1 1.1,-1 3.2,-3.6 7.4,-6.4 0.2,-0.1 1.1,-0.7 2,-1.2 0.5,-0.3 1,-0.6 1.4,-0.7 l 2.2,-1 2.5,0 20.7,0 0,7.7 c -3.7,1.4 -6.6,2.9 -8.7,4.8 z"
                   id="path581"
                   inkscape:connector-curvature="0" /></g></g></g><g
             id="g583"><g
               id="g585"><g
                 id="g587"><path
                   d="m 460,755.7 c -0.1,0 -0.2,0 -0.2,0.1 l -4,0.7 c -13.8,1.5 -23.6,3 -30.4,5.2 l 0,-7.7 38.3,0 -2.2,1 c -0.5,0.2 -1,0.4 -1.5,0.7 z"
                   id="path589"
                   inkscape:connector-curvature="0" /></g><g
                 id="g591"><path
                   d="m 478,766.4 c -5.1,4.6 -10.8,5.1 -12.5,-0.6 -1.8,-5.8 6.6,-7.7 6.6,-7.7 -18.3,2 -19.3,11.6 -19.3,11.6 0,0 1.9,-0.3 3.7,1.7 2.6,2.9 1.2,6.9 -0.6,8.5 -2,1.9 -6,2.3 -8.5,-0.6 -4,-4.7 0.9,-14.1 3.1,-16.1 1.1,-1 3.2,-3.6 7.4,-6.4 0.2,-0.1 1.1,-0.7 2,-1.2 0.5,-0.3 1,-0.6 1.4,-0.7 l 2.2,-1 2.5,0 20.7,0 0,7.7 c -3.7,1.4 -6.6,2.9 -8.7,4.8 z"
                   id="path593"
                   inkscape:connector-curvature="0" /></g></g><g
               id="g595"><g
                 id="g597"><path
                   d="m 521.5,755.7 c -0.1,0 -0.2,0 -0.2,0.1 l -4,0.7 c -13.8,1.5 -23.6,3 -30.4,5.2 l 0,-7.7 38.3,0 -2.2,1 c -0.5,0.2 -1,0.4 -1.5,0.7 z"
                   id="path599"
                   inkscape:connector-curvature="0" /></g><g
                 id="g601"><path
                   d="m 539.4,766.4 c -5.1,4.6 -10.8,5.1 -12.5,-0.6 -1.8,-5.8 6.6,-7.7 6.6,-7.7 -18.3,2 -19.3,11.6 -19.3,11.6 0,0 1.9,-0.3 3.7,1.7 2.6,2.9 1.2,6.9 -0.6,8.5 -2,1.9 -6,2.3 -8.5,-0.6 -4,-4.7 0.9,-14.1 3.1,-16.1 1.1,-1 3.2,-3.6 7.4,-6.4 0.2,-0.1 1.1,-0.7 2,-1.2 0.5,-0.3 1,-0.6 1.4,-0.7 l 2.2,-1 2.5,0 20.7,0 0,7.7 c -3.7,1.4 -6.6,2.9 -8.7,4.8 z"
                   id="path603"
                   inkscape:connector-curvature="0" /></g></g></g><g
             id="g605"><g
               id="g607"><g
                 id="g609"><path
                   d="m 398.5,755.7 c -0.1,0 -0.2,0 -0.2,0.1 l -4,0.7 c -13.8,1.5 -23.6,3 -30.4,5.2 l 0,-7.7 38.3,0 -2.2,1 c -0.4,0.2 -1,0.4 -1.5,0.7 z"
                   id="path611"
                   inkscape:connector-curvature="0" /></g><g
                 id="g613"><path
                   d="m 416.5,766.4 c -5.1,4.6 -10.8,5.1 -12.5,-0.6 -1.8,-5.8 6.6,-7.7 6.6,-7.7 -18.3,2 -19.3,11.6 -19.3,11.6 0,0 1.9,-0.3 3.7,1.7 2.6,2.9 1.2,6.9 -0.6,8.5 -2,1.9 -6,2.3 -8.5,-0.6 -4,-4.7 0.9,-14.1 3.1,-16.1 1.1,-1 3.2,-3.6 7.4,-6.4 0.2,-0.1 1.1,-0.7 2,-1.2 0.5,-0.3 1,-0.6 1.4,-0.7 l 2.2,-1 2.5,0 20.7,0 0,7.7 c -3.7,1.4 -6.6,2.9 -8.7,4.8 z"
                   id="path615"
                   inkscape:connector-curvature="0" /></g></g><g
               id="g617"><g
                 id="g619"><path
                   d="m 460,755.7 c -0.1,0 -0.2,0 -0.2,0.1 l -4,0.7 c -13.8,1.5 -23.6,3 -30.4,5.2 l 0,-7.7 38.3,0 -2.2,1 c -0.5,0.2 -1,0.4 -1.5,0.7 z"
                   id="path621"
                   inkscape:connector-curvature="0" /></g><g
                 id="g623"><path
                   d="m 478,766.4 c -5.1,4.6 -10.8,5.1 -12.5,-0.6 -1.8,-5.8 6.6,-7.7 6.6,-7.7 -18.3,2 -19.3,11.6 -19.3,11.6 0,0 1.9,-0.3 3.7,1.7 2.6,2.9 1.2,6.9 -0.6,8.5 -2,1.9 -6,2.3 -8.5,-0.6 -4,-4.7 0.9,-14.1 3.1,-16.1 1.1,-1 3.2,-3.6 7.4,-6.4 0.2,-0.1 1.1,-0.7 2,-1.2 0.5,-0.3 1,-0.6 1.4,-0.7 l 2.2,-1 2.5,0 20.7,0 0,7.7 c -3.7,1.4 -6.6,2.9 -8.7,4.8 z"
                   id="path625"
                   inkscape:connector-curvature="0" /></g></g></g><g
             id="g627"><g
               id="g629"><g
                 id="g631"><path
                   d="m 337.1,755.7 c -0.1,0 -0.2,0 -0.2,0.1 l -4,0.7 c -13.8,1.5 -23.6,3 -30.4,5.2 l 0,-7.7 38.3,0 -2.2,1 c -0.5,0.2 -1,0.4 -1.5,0.7 z"
                   id="path633"
                   inkscape:connector-curvature="0" /></g><g
                 id="g635"><path
                   d="m 355,766.4 c -5.1,4.6 -10.8,5.1 -12.5,-0.6 -1.8,-5.8 6.6,-7.7 6.6,-7.7 -18.3,2 -19.3,11.6 -19.3,11.6 0,0 1.9,-0.3 3.7,1.7 2.6,2.9 1.2,6.9 -0.6,8.5 -2,1.9 -6,2.3 -8.5,-0.6 -4,-4.7 0.9,-14.1 3.1,-16.1 1.1,-1 3.2,-3.6 7.4,-6.4 0.2,-0.1 1.1,-0.7 2,-1.2 0.5,-0.3 1,-0.6 1.4,-0.7 l 2.2,-1 2.5,0 20.7,0 0,7.7 c -3.7,1.4 -6.6,2.9 -8.7,4.8 z"
                   id="path637"
                   inkscape:connector-curvature="0" /></g></g><g
               id="g639"><g
                 id="g641"><path
                   d="m 398.5,755.7 c -0.1,0 -0.2,0 -0.2,0.1 l -4,0.7 c -13.8,1.5 -23.6,3 -30.4,5.2 l 0,-7.7 38.3,0 -2.2,1 c -0.4,0.2 -1,0.4 -1.5,0.7 z"
                   id="path643"
                   inkscape:connector-curvature="0" /></g><g
                 id="g645"><path
                   d="m 416.5,766.4 c -5.1,4.6 -10.8,5.1 -12.5,-0.6 -1.8,-5.8 6.6,-7.7 6.6,-7.7 -18.3,2 -19.3,11.6 -19.3,11.6 0,0 1.9,-0.3 3.7,1.7 2.6,2.9 1.2,6.9 -0.6,8.5 -2,1.9 -6,2.3 -8.5,-0.6 -4,-4.7 0.9,-14.1 3.1,-16.1 1.1,-1 3.2,-3.6 7.4,-6.4 0.2,-0.1 1.1,-0.7 2,-1.2 0.5,-0.3 1,-0.6 1.4,-0.7 l 2.2,-1 2.5,0 20.7,0 0,7.7 c -3.7,1.4 -6.6,2.9 -8.7,4.8 z"
                   id="path647"
                   inkscape:connector-curvature="0" /></g></g></g><g
             id="g649"><g
               id="g651"><g
                 id="g653"><path
                   d="m 275.6,755.7 c -0.1,0 -0.2,0 -0.2,0.1 l -4,0.7 c -13.8,1.5 -23.6,3 -30.4,5.2 l 0,-7.7 38.3,0 -2.2,1 c -0.5,0.2 -1,0.4 -1.5,0.7 z"
                   id="path655"
                   inkscape:connector-curvature="0" /></g><g
                 id="g657"><path
                   d="m 293.5,766.4 c -5.1,4.6 -10.8,5.1 -12.5,-0.6 -1.8,-5.8 6.6,-7.7 6.6,-7.7 -18.3,2 -19.3,11.6 -19.3,11.6 0,0 1.9,-0.3 3.7,1.7 2.6,2.9 1.2,6.9 -0.6,8.5 -2,1.9 -6,2.3 -8.5,-0.6 -4,-4.7 0.9,-14.1 3.1,-16.1 1.1,-1 3.2,-3.6 7.4,-6.4 0.2,-0.1 1.1,-0.7 2,-1.2 0.5,-0.3 1,-0.6 1.4,-0.7 l 2.2,-1 2.5,0 20.7,0 0,7.7 c -3.6,1.4 -6.5,2.9 -8.7,4.8 z"
                   id="path659"
                   inkscape:connector-curvature="0" /></g></g><g
               id="g661"><g
                 id="g663"><path
                   d="m 337.1,755.7 c -0.1,0 -0.2,0 -0.2,0.1 l -4,0.7 c -13.8,1.5 -23.6,3 -30.4,5.2 l 0,-7.7 38.3,0 -2.2,1 c -0.5,0.2 -1,0.4 -1.5,0.7 z"
                   id="path665"
                   inkscape:connector-curvature="0" /></g><g
                 id="g667"><path
                   d="m 355,766.4 c -5.1,4.6 -10.8,5.1 -12.5,-0.6 -1.8,-5.8 6.6,-7.7 6.6,-7.7 -18.3,2 -19.3,11.6 -19.3,11.6 0,0 1.9,-0.3 3.7,1.7 2.6,2.9 1.2,6.9 -0.6,8.5 -2,1.9 -6,2.3 -8.5,-0.6 -4,-4.7 0.9,-14.1 3.1,-16.1 1.1,-1 3.2,-3.6 7.4,-6.4 0.2,-0.1 1.1,-0.7 2,-1.2 0.5,-0.3 1,-0.6 1.4,-0.7 l 2.2,-1 2.5,0 20.7,0 0,7.7 c -3.7,1.4 -6.6,2.9 -8.7,4.8 z"
                   id="path669"
                   inkscape:connector-curvature="0" /></g></g></g><g
             id="g671"><g
               id="g673"><g
                 id="g675"><path
                   d="m 214.1,755.7 c -0.1,0 -0.2,0 -0.2,0.1 l -4,0.7 c -13.8,1.5 -23.6,3 -30.4,5.2 l 0,-7.7 38.3,0 -2.2,1 c -0.5,0.2 -1,0.4 -1.5,0.7 z"
                   id="path677"
                   inkscape:connector-curvature="0" /></g><g
                 id="g679"><path
                   d="m 232.1,766.4 c -5.1,4.6 -10.8,5.1 -12.5,-0.6 -1.8,-5.8 6.6,-7.7 6.6,-7.7 -18.3,2 -19.3,11.6 -19.3,11.6 0,0 1.9,-0.3 3.7,1.7 2.6,2.9 1.2,6.9 -0.6,8.5 -2,1.9 -6,2.3 -8.5,-0.6 -4,-4.7 0.9,-14.1 3.1,-16.1 1.1,-1 3.2,-3.6 7.4,-6.4 0.2,-0.1 1.1,-0.7 2,-1.2 0.5,-0.3 1,-0.6 1.4,-0.7 l 2.2,-1 2.5,0 20.7,0 0,7.7 c -3.7,1.4 -6.6,2.9 -8.7,4.8 z"
                   id="path681"
                   inkscape:connector-curvature="0" /></g></g><g
               id="g683"><g
                 id="g685"><path
                   d="m 275.6,755.7 c -0.1,0 -0.2,0 -0.2,0.1 l -4,0.7 c -13.8,1.5 -23.6,3 -30.4,5.2 l 0,-7.7 38.3,0 -2.2,1 c -0.5,0.2 -1,0.4 -1.5,0.7 z"
                   id="path687"
                   inkscape:connector-curvature="0" /></g><g
                 id="g689"><path
                   d="m 293.5,766.4 c -5.1,4.6 -10.8,5.1 -12.5,-0.6 -1.8,-5.8 6.6,-7.7 6.6,-7.7 -18.3,2 -19.3,11.6 -19.3,11.6 0,0 1.9,-0.3 3.7,1.7 2.6,2.9 1.2,6.9 -0.6,8.5 -2,1.9 -6,2.3 -8.5,-0.6 -4,-4.7 0.9,-14.1 3.1,-16.1 1.1,-1 3.2,-3.6 7.4,-6.4 0.2,-0.1 1.1,-0.7 2,-1.2 0.5,-0.3 1,-0.6 1.4,-0.7 l 2.2,-1 2.5,0 20.7,0 0,7.7 c -3.7,1.4 -6.5,2.9 -8.7,4.8 z"
                   id="path691"
                   inkscape:connector-curvature="0" /></g></g></g><g
             id="g693"><g
               id="g695"><g
                 id="g697"><path
                   d="m 158.7,754 -2.5,0 -2.2,1 c -0.4,0.2 -0.9,0.4 -1.4,0.7 -0.9,0.5 -1.8,1 -2,1.2 -4.2,2.9 -6.3,5.4 -7.4,6.4 -2.2,2 -7.1,11.5 -3.1,16.1 2.5,2.9 6.5,2.4 8.5,0.6 1.8,-1.6 3.2,-5.6 0.6,-8.5 -1.8,-2 -3.7,-1.7 -3.7,-1.7 0,0 1,-9.7 19.3,-11.6 0,0 -8.4,1.9 -6.6,7.7 1.7,5.7 7.3,5.2 12.5,0.6 2.1,-1.9 5,-3.4 8.8,-4.7 l 0,-7.8 -20.8,0 z"
                   id="path699"
                   inkscape:connector-curvature="0" /></g><g
                 id="g701"><path
                   d="m 179.4,761.7 c 6.8,-2.3 16.6,-3.7 30.4,-5.2 l 0.3,0 0,-2.5 -30.7,0 0,7.7 z"
                   id="path703"
                   inkscape:connector-curvature="0" /></g></g></g></g></g></g></switch></svg>