<?xml version="1.0" encoding="UTF-8" standalone="no"?>
<svg
   xmlns:dc="http://purl.org/dc/elements/1.1/"
   xmlns:cc="http://creativecommons.org/ns#"
   xmlns:rdf="http://www.w3.org/1999/02/22-rdf-syntax-ns#"
   xmlns:svg="http://www.w3.org/2000/svg"
   xmlns="http://www.w3.org/2000/svg"
   xmlns:sodipodi="http://sodipodi.sourceforge.net/DTD/sodipodi-0.dtd"
   xmlns:inkscape="http://www.inkscape.org/namespaces/inkscape"
   version="1.1"
   id="Layer_1"
   x="0px"
   y="0px"
   viewBox="0 0 1000 1000"
   width="100%"
   height="100%"
   style="enable-background:new 0 0 1000 1000;"
   xml:space="preserve"
   ><style
     type="text/css"
     id="style3">
	.noFillSVG{fill:none;}
	.st1{fill:#F47878;}
	.st2{fill:#FFF7EC;}
</style><switch
     id="switch5"
     transform="translate(1.7230446,12.328724)"><g
       id="g7"><g
         id="g9"><path
           class="noFillSVG"
           d="m 212.1,681.5 c 0,0.1 -0.1,0.2 -0.2,0.3 0.2,0 0.4,0.1 0.6,0.1 -0.2,-0.2 -0.3,-0.3 -0.4,-0.4 z"
           id="path11"
           inkscape:connector-curvature="0"
           style="fill:none" /><path
           class="noFillSVG"
           d="m 512.8,821.6 c 0.1,-0.2 0.3,-0.3 0.4,-0.5 -0.2,0.1 -0.4,0.2 -0.6,0.2 0.1,0.1 0.1,0.2 0.2,0.3 z"
           id="path13"
           inkscape:connector-curvature="0"
           style="fill:none" /><path
           class="noFillSVG"
           d="m 280.4,216.1 c 0,0.2 0,0.4 -0.1,0.6 0.1,-0.2 0.2,-0.4 0.3,-0.5 0,0 -0.1,0 -0.2,-0.1 z"
           id="path15"
           inkscape:connector-curvature="0"
           style="fill:none" /><path
           class="noFillSVG"
           d="m 159.2,434 c -0.1,0 -0.2,0.1 -0.3,0.1 0.1,0.2 0.2,0.3 0.3,0.5 0,-0.2 0,-0.4 0,-0.6 z"
           id="path17"
           inkscape:connector-curvature="0"
           style="fill:none" /><path
           class="noFillSVG"
           d="m 739.7,717.7 c 0,-0.2 0,-0.4 0,-0.6 -0.1,0.2 -0.2,0.4 -0.3,0.5 0.1,0 0.2,0.1 0.3,0.1 z"
           id="path19"
           inkscape:connector-curvature="0"
           style="fill:none" /><path
           class="noFillSVG"
           d="m 839.2,491.6 c 0.1,0 0.2,-0.1 0.3,-0.1 -0.2,-0.2 -0.3,-0.3 -0.4,-0.4 0,0.2 0.1,0.4 0.1,0.5 z"
           id="path21"
           inkscape:connector-curvature="0"
           style="fill:none" /><path
           class="noFillSVG"
           d="m 463.9,851 c -0.1,0 -0.2,0 -0.3,0.1 -0.3,0.1 -0.7,0.2 -1,0.3 0.3,-0.1 0.7,-0.2 1,-0.3 0.2,0 0.3,0 0.3,-0.1 z"
           id="path23"
           inkscape:connector-curvature="0"
           style="fill:none" /><path
           class="noFillSVG"
           d="m 745.2,260.4 c -0.2,0 -0.4,0 -0.6,-0.1 0.2,0.1 0.4,0.2 0.5,0.3 0.1,0 0.1,-0.1 0.1,-0.2 z"
           id="path25"
           inkscape:connector-curvature="0"
           style="fill:none" /><path
           class="noFillSVG"
           d="m 518.8,147 c -0.2,0.1 -0.3,0.3 -0.5,0.4 0.2,0 0.4,-0.1 0.6,-0.1 -0.1,-0.1 -0.1,-0.2 -0.1,-0.3 z"
           id="path27"
           inkscape:connector-curvature="0"
           style="fill:none" /><path
           class="st1"
           d="m 883.6,516.1 c -0.6,-1.7 -1.3,-3.1 -2.5,-4.4 -0.4,-0.4 -0.8,-0.8 -1.2,-1.2 -0.8,-0.6 -2.5,-1 -0.9,-1.4 0.2,0 0.3,-0.1 0.5,-0.1 2.1,-0.6 1.3,-4.4 -0.9,-3.9 -0.2,0 -0.3,0.1 -0.5,0.1 0,0 0,0 0,0 -1.1,0.3 -3,-1.6 -4.2,-1.8 -0.2,0 -0.5,0 -0.8,0 0.2,-1.1 -0.6,-2.3 -2,-2.1 -2.4,0.3 -4.3,1 -6.2,2.3 -0.7,0.1 -1.4,0.2 -1.9,0.4 2.1,3.2 2.6,6.9 1.5,10.6 -0.1,0.4 -0.3,0.6 -0.6,0.8 0.1,0.2 0.2,0.5 0.3,0.7 1.5,2.7 4.7,3.6 6.4,6.2 0.9,1.5 3.3,0.8 3.5,-0.8 0.5,-0.2 1,-0.4 1.5,-0.5 1.4,1.6 4.4,0.3 3.5,-1.9 0.5,-0.3 1,-0.6 1.5,-0.8 1.3,1.5 3.6,-0.5 3,-2.2 z"
           id="path29"
           inkscape:connector-curvature="0"
           style="fill:#f47878" /><path
           class="st1"
           d="m 844,606 c 0,0.1 0,0.1 0.1,0.2 -0.1,1.5 0.2,3.1 0.7,4.4 0.7,1.8 2.9,1.7 3.3,3.9 0.2,1.3 1.7,2.5 3,1.5 0.3,0.2 0.6,0.4 1,0.7 0,0.4 0,0.8 0.1,1.2 0.3,1.7 2.2,2.5 3.5,1.2 0,0 0,0 0.1,-0.1 0.2,0.3 0.5,0.5 0.6,0.8 0.9,1.2 3.3,1.1 3.6,-0.6 1.4,0.4 3.3,-1 2.5,-2.6 -0.2,-0.5 -0.4,-1 -0.6,-1.4 1.2,-0.5 1.9,-2.2 0.6,-3.3 -0.7,-0.6 -1.4,-1.3 -2.1,-1.9 0,0 -0.1,0 -0.1,-0.1 -0.5,-0.6 -0.6,-1.3 0.3,-1.8 1.2,-0.7 1.2,-3 -0.2,-3.5 -1,-0.4 -1.9,-0.8 -2.7,-1.3 0.4,-1 0.1,-2.3 -1.3,-2.5 0.6,-1.2 -0.2,-3 -1.8,-2.8 -1.5,0.2 -3.1,0.4 -4.6,0.6 -0.7,-0.5 -1.5,-1 -2.2,-1.5 -0.1,3.1 -1.1,5.8 -3,8.3 -0.3,0.4 -0.5,0.5 -0.8,0.6 z"
           id="path31"
           inkscape:connector-curvature="0"
           style="fill:#f47878" /><path
           class="st1"
           d="m 847.7,398.6 c 0.7,0.7 1.5,1.4 2.3,2 0.8,2.5 3.5,4.2 6.1,4.9 0.9,0.2 1.7,-0.3 2.1,-1.1 0.7,0.8 2.1,1 2.9,0.3 2,0 4,-0.5 5.2,-2.1 1.7,0.5 3.3,-1.3 2.2,-3 -0.2,-0.3 -1,-1 -1.9,-1.8 -0.5,-1.1 -1.2,-2 -2,-2.9 0,-1 -0.6,-2 -1.6,-2 0.5,-1.3 -0.2,-2.9 -2,-2.7 -0.8,0.1 -1.6,0.1 -2.4,0.1 -0.2,-0.9 -1.2,-1.6 -2.2,-1.6 0.1,-0.2 0.1,-0.5 0.2,-0.8 0.4,-1.5 -1.7,-2.8 -2.9,-1.8 -1.3,1.1 -2.4,2.3 -3.4,3.7 -1.6,0.2 -3.3,0.7 -4.2,1.7 0.2,0.3 0.4,0.7 0.5,1 1.4,1.8 1.8,4 1.1,6.1 z"
           id="path33"
           inkscape:connector-curvature="0"
           style="fill:#f47878" /><path
           class="st1"
           d="m 861.5,543.3 c 0.1,0 0.1,0.1 0.2,0.1 0,0 0.1,0.1 0.1,0.1 0.1,0.1 0.1,0.1 0.2,0.2 0,0.1 0.1,0.1 0.1,0.2 0.2,0.3 0.3,0.6 0.3,1 0.2,1.5 0,3 -0.6,4.4 0,0.1 0,0.3 -0.1,0.4 -0.1,0.6 -0.4,1 -0.9,1.2 0,0 -0.1,0.1 -0.1,0.2 -0.5,0.6 -1.3,0.7 -2,0.3 0.1,0.3 0.3,0.5 0.5,0.7 1.4,1.2 2.4,0.3 2.7,2.9 0.2,1.6 2,2.3 3.2,1.2 0,0.2 0.1,0.4 0.1,0.6 0.2,1.2 1.3,2.1 2.5,1.6 0.1,0 0.4,-0.2 0.8,-0.4 0.1,0.9 0.5,2.2 0.7,3 0.4,1.8 3.3,1.4 3.5,-0.2 0,-0.2 0,-0.3 0.1,-0.5 1.2,1 3.2,0.3 3.1,-1.4 0,-0.1 0,-0.1 0,-0.2 1.3,0 2.1,-1.7 1.5,-3 -0.4,-0.8 -0.8,-1.6 -1.1,-2.4 0.7,-0.6 0.9,-1.5 0.3,-2.4 -0.9,-1.5 -1.8,-2.2 -3.4,-2.8 0,0 0,0 0,0 0.2,0 0.3,0 0.5,0 1.8,0.1 2.4,-2.9 0.7,-3.5 -0.3,-0.1 -0.6,-0.2 -1,-0.2 0.4,-1.3 -0.8,-3 -2.3,-2.4 -0.8,0.3 -1.5,0.6 -2.3,0.9 0.7,-1.3 -0.4,-3 -2.1,-2.5 -1.2,0.3 -2.4,0.8 -3.4,1.4 -0.2,0 -0.4,0 -0.6,0 -0.1,0 -0.2,-0.1 -0.3,-0.1 -0.7,-0.2 -1.3,-0.3 -1.8,-0.2 0.2,0.2 0.4,0.4 0.5,0.8 0.2,0.3 0.3,0.6 0.4,1 z"
           id="path35"
           inkscape:connector-curvature="0"
           style="fill:#f47878" /><path
           class="st1"
           d="m 858,455.5 c 1.2,2.4 0.3,5 -0.7,7.3 -0.1,0.3 -0.4,0.6 -0.7,0.8 0.9,1 2,2 3.2,2.7 0.8,0.9 2,1.4 3.7,2 0.4,0.1 0.8,0.1 1.2,0.1 0.3,0.1 0.6,0.1 0.9,0.2 0.7,1.6 3,1.6 3.6,0.2 1.2,0.5 2.8,0 2.9,-1.3 0.2,-0.2 0.5,-0.5 0.7,-0.7 1.5,0.8 3.9,-0.3 2.9,-2.3 -0.1,0 -0.3,0 -0.4,0 1.2,-0.4 2,-2 1.1,-3.1 -1.2,-1.5 -2.5,-2.7 -4.2,-3.7 -0.6,-0.3 -4.2,-2.3 -4.4,-2.1 2,-1.5 -0.1,-4.4 -2.3,-3.2 -0.3,0.2 -0.5,0.3 -0.8,0.4 0,-1.4 -1.7,-2.8 -2.9,-1.6 -1,1 -2.1,1.9 -3.1,2.9 -0.5,-0.1 -1,-0.1 -1.4,-0.1 -0.2,0 -0.5,0 -0.7,0.1 0.6,0.1 1,0.7 1.4,1.4 z"
           id="path37"
           inkscape:connector-curvature="0"
           style="fill:#f47878" /><path
           class="st2"
           d="m 857.6,547.6 c 0,0 0,0.1 0,0.2 0.1,0 0,-0.1 0,-0.2 0,0 0,0 0,0 z"
           id="path39"
           inkscape:connector-curvature="0"
           style="fill:#fff7ec" /><path
           class="st1"
           d="m 848.9,477.5 c 0,0 0,0 0,0 -2.5,-0.5 -5,0 -7.2,1.3 -1.4,-0.2 -2.7,-0.3 -4.2,-0.3 -1,0 -1.7,1 -1.7,1.9 -1.4,1.5 -1.3,3.6 -0.5,5.4 -1.1,0.9 -1.6,2.4 -1.2,4 0.1,0.5 0.4,0.9 0.6,1.4 0.1,0.3 0.2,0.4 0.2,0.4 0,0.1 -0.1,0.1 -0.1,0.3 -0.4,1.3 -1.2,1.5 -1.1,3.1 0.1,1.1 1.2,1.9 2.2,1.8 0.9,-0.1 1.8,-0.3 2.7,-0.5 0.1,0.4 0.2,0.8 0.3,1.3 0.3,0.8 1.3,1.4 2.1,1.3 1,-0.1 1.8,-0.4 2.6,-1.1 0.4,-0.4 0.8,-1.2 1.3,-1.5 -0.1,-0.1 -0.2,-0.2 -0.3,-0.3 0.2,0.2 0.5,0.3 0.7,0.4 0.9,-0.2 1.6,0 2.6,-0.6 0.4,-0.3 2.6,-2.5 2.2,-2.9 1.3,0.9 3.1,0.3 3.4,-1.3 0.1,-0.9 0.2,-1.4 0.2,-2.1 -0.5,-0.2 -0.9,-0.5 -1.2,-1 -0.7,-1.3 -1.1,-2.8 -1.3,-4.3 -0.2,0 -0.4,-0.2 -0.5,-0.3 -0.7,-0.9 -0.7,-1.9 -0.3,-2.7 -0.3,-1.1 -0.4,-2.2 -0.4,-3.3 -0.2,-0.1 -0.5,-0.1 -0.8,-0.2 -0.1,-0.2 -0.2,-0.2 -0.3,-0.2 z m -9.7,14.1 c 0,-0.1 -0.1,-0.3 -0.2,-0.6 0.2,0.1 0.3,0.3 0.4,0.4 0,0.2 -0.1,0.2 -0.2,0.2 z"
           id="path41"
           inkscape:connector-curvature="0"
           style="fill:#f47878" /><path
           class="st1"
           d="m 828.7,339.1 c 0.1,0 0.1,0.1 0.2,0.1 1,1.1 2.4,2 3.7,2.5 1.8,0.7 3.2,-1 5.1,0.2 1.1,0.7 3,0.4 3.2,-1.2 0.4,-0.1 0.8,-0.1 1.2,-0.2 0.3,0.2 0.6,0.5 1,0.8 1.4,0.9 3.3,0.1 3.2,-1.8 0,0 0,-0.1 0,-0.1 0.3,0 0.7,0 1,0.1 1.5,0.1 3,-1.7 2,-3 1.3,-0.8 1.6,-3.1 -0.1,-3.6 -0.5,-0.2 -1,-0.3 -1.5,-0.5 0.5,-1.2 -0.2,-2.9 -2,-2.7 -0.9,0.1 -1.9,0.2 -2.8,0.2 0,0 -0.1,0 -0.1,0 -0.8,-0.1 -1.4,-0.5 -1.2,-1.4 0.3,-1.4 -1.4,-2.9 -2.7,-2.2 -0.9,0.5 -1.9,0.8 -2.8,1.1 -0.5,-1 -1.6,-1.6 -2.7,-0.7 -0.5,-1.2 -2.4,-1.9 -3.3,-0.6 -0.9,1.3 -1.8,2.5 -2.7,3.8 -0.9,0.2 -1.8,0.4 -2.6,0.6 2.2,2.2 3.5,4.8 4.1,7.8 0,0.2 -0.1,0.5 -0.2,0.8 z"
           id="path43"
           inkscape:connector-curvature="0"
           style="fill:#f47878" /><path
           class="st1"
           d="m 847.5,563.2 c -0.9,-1.5 -2.2,-2.7 -3.8,-3.7 -0.8,-0.4 -1.7,-0.1 -2.2,0.6 -0.8,-0.3 -1.6,0.1 -2.1,0.7 -0.3,-0.2 -0.5,-0.4 -0.8,-0.7 -0.9,-0.9 -2.5,-0.4 -3,0.6 -0.2,0.4 -0.4,0.8 -0.5,1.2 -0.9,-0.1 -1.8,0.5 -2.2,1.5 0,0.1 -0.6,3.2 -0.2,3.2 -1.6,0.2 -2.5,2.4 -1.1,3.5 0.2,0.5 0.3,0.9 0.5,1.4 -0.4,1.1 0,2.7 1.4,2.8 0.8,0.1 1.5,0.1 2.2,0.2 0.8,2.2 3.4,3.4 5.2,2.2 1.4,0.6 2.8,0.5 4.2,0 0.8,0.5 2,0.4 2.7,-0.3 0.1,-0.1 0.1,-0.2 0.2,-0.2 0.2,-0.7 0.5,-1.5 0.7,-2.2 -0.4,-0.2 -0.8,-0.5 -1,-0.9 -0.8,-0.8 -0.8,-2.2 -0.5,-3.4 0,-1.8 0.6,-3.5 1.6,-5.1 -0.3,-0.6 -0.8,-1.1 -1.3,-1.4 z"
           id="path45"
           inkscape:connector-curvature="0"
           style="fill:#f47878" /><path
           class="st1"
           d="m 837.3,424.4 c -1.8,-0.9 -3.9,-1.2 -6,-1.2 -1.5,0 -2,1.9 -1.3,2.9 0,0 0,0 0,0 -0.2,0.1 -0.5,0.3 -0.7,0.5 -1.2,1 -1.1,1.9 -0.9,2.9 -0.8,0.1 -1.7,0.3 -2.4,0.7 -1.3,0.8 -1.4,2.9 -2.5,2.6 -2.5,-0.6 -3,2.9 -1.1,4 1.1,0.6 2.2,1.1 3.3,1.5 -0.5,1.4 0.7,2.9 2.2,2.8 0.6,0 1.3,-0.1 1.9,-0.1 0.3,0.7 0.8,1.3 1.8,1.7 0.7,0.3 1.5,0.2 2.1,-0.2 0.6,-0.5 1.1,-1 1.6,-1.6 0.7,0.7 1.4,1.3 2.8,1.3 2.4,-0.1 5.2,-1.5 7.3,-2.5 1.9,-1 1.4,-3.5 -0.2,-3.9 0.2,-0.2 0.3,-0.4 0.5,-0.6 -0.2,-0.1 -0.3,-0.1 -0.5,-0.3 -1.5,-1.3 -2.4,-3 -2.7,-4.7 -0.8,-1.8 -1.3,-3.8 -1.6,-5.8 -1.2,-0.3 -2.4,-0.3 -3.6,0 z"
           id="path47"
           inkscape:connector-curvature="0"
           style="fill:#f47878" /><path
           class="st1"
           d="m 822.8,358.6 c -1.8,-0.7 -3.7,-1.1 -5.7,-1.2 -1.1,0 -2.1,0.7 -2.2,1.8 -0.1,0 -0.3,0 -0.4,-0.1 -1,-0.1 -2.2,0.6 -2.3,1.7 -0.1,0.6 -0.1,1.5 0.2,2.1 -0.4,0 -0.8,0.2 -1.1,0.2 -0.8,0.3 -1.4,0.7 -1.9,1.4 -0.3,0.5 -0.5,3.2 -0.8,3.3 -2.3,0.5 -2.5,3.6 -0.1,4.1 0.7,0.1 1.4,0.3 2.1,0.4 -0.3,0.5 -0.6,1.1 -0.9,1.6 -0.6,1.1 0.2,2.3 1.1,2.8 1.5,0.8 3.2,-0.7 3.4,1.7 0.1,1.3 1.6,2.2 2.9,1.8 1.1,-0.4 2,-1 2.8,-1.7 0.9,0.6 2,1 3.2,0.6 0.9,-0.3 1.6,-1 2.2,-1.8 0.1,-0.2 0.3,-0.6 0.4,-0.9 0.1,0 0.3,0 0.6,0.1 3.8,0.8 4.9,-4.7 3.8,-7.8 0,0 0,-0.1 0.1,-0.1 0.1,-0.3 0.2,-0.6 0.3,-0.8 -0.5,0.1 -0.9,0 -1.3,-0.4 0,0 0,0 0,0 -0.3,-0.1 -0.6,-0.3 -0.9,-0.7 -0.4,-0.5 -0.8,-1.1 -1.2,-1.7 -1.3,-1.8 -2.2,-3.8 -2.7,-6 -0.4,0 -0.7,0 -1.1,0.1 -0.2,-0.3 -0.3,-0.4 -0.5,-0.5 z"
           id="path49"
           inkscape:connector-curvature="0"
           style="fill:#f47878" /><path
           class="st1"
           d="m 825.6,615 c -0.7,-1.8 -1.7,-3.4 -3,-4.9 -0.7,-0.9 -1.9,-1 -2.8,-0.4 -0.1,-0.1 -0.2,-0.2 -0.2,-0.4 -0.6,-0.9 -1.9,-1.2 -2.8,-0.5 -0.5,0.4 -1.2,0.9 -1.4,1.5 -0.3,-0.2 -0.6,-0.5 -0.9,-0.6 -0.7,-0.4 -1.5,-0.6 -2.3,-0.4 -0.5,0.1 -2.7,1.8 -2.9,1.7 -1.9,-1.3 -4.4,0.6 -3.1,2.7 0.4,0.6 0.8,1.2 1.1,1.9 -0.6,0.1 -1.2,0.3 -1.8,0.4 -1.2,0.3 -1.5,1.7 -1.3,2.7 0.4,1.7 2.7,1.9 1.1,3.6 -0.9,1 -0.5,2.7 0.7,3.3 1.1,0.5 2.1,0.8 3.1,0.9 0.2,1.1 0.6,2.1 1.8,2.8 0.9,0.5 1.8,0.5 2.8,0.4 0.2,0 0.6,-0.2 0.9,-0.3 0.1,0.1 0.2,0.2 0.3,0.5 2,3.3 6.7,0.3 8.3,-2.6 0,0 0.1,0 0.1,0 0.3,-0.1 0.6,-0.2 0.8,-0.3 -0.4,-0.3 -0.6,-0.7 -0.6,-1.2 l 0,0 c -0.1,-0.3 -0.2,-0.7 -0.1,-1.1 0.1,-0.7 0.3,-1.4 0.5,-2 0.4,-2.2 1.3,-4.2 2.6,-6.1 -0.2,-0.3 -0.5,-0.5 -0.8,-0.8 0,-0.4 0,-0.6 -0.1,-0.8 z"
           id="path51"
           inkscape:connector-curvature="0"
           style="fill:#f47878" /><path
           class="st1"
           d="m 813.4,660.5 c 0,1 0,2 0.1,3 -1.3,2.3 -0.7,5.4 0.6,7.8 0.4,0.8 1.4,1 2.2,0.7 -0.1,1.1 0.7,2.2 1.8,2.3 1.4,1.5 3.1,2.6 5,2.4 0.7,1.6 3.2,1.5 3.7,-0.4 0.1,-0.4 0.1,-1.5 0,-2.6 0.4,-1.1 0.7,-2.3 0.7,-3.4 0.7,-0.7 1,-1.8 0.4,-2.6 1.3,-0.5 1.9,-2.1 0.6,-3.3 -0.6,-0.5 -1.2,-1.1 -1.7,-1.7 0.5,-0.8 0.4,-2 -0.3,-2.7 0.2,-0.1 0.4,-0.3 0.7,-0.4 1.3,-0.7 0.9,-3.2 -0.7,-3.3 -1.7,-0.1 -3.4,-0.2 -5,0 -1.3,-1.1 -2.8,-2 -4.1,-1.9 -0.1,0.4 -0.2,0.7 -0.4,1.1 -0.3,2.2 -1.6,4 -3.6,5 z"
           id="path53"
           inkscape:connector-curvature="0"
           style="fill:#f47878" /><path
           class="st1"
           d="m 799.7,307.4 c -1.7,-0.4 -3.5,-0.3 -5.3,0.3 -0.8,0.2 -1.2,1.2 -1.1,2 -0.7,0.4 -1,1.2 -0.9,2 -0.3,0 -0.6,0.1 -1,0.1 -1.2,0 -2,1.5 -1.6,2.6 0.2,0.4 0.3,0.8 0.5,1.2 -0.7,0.6 -0.9,1.7 -0.4,2.6 0.1,0.1 2,2.6 2.2,2.3 -1,1.3 0,3.5 1.7,3.2 0.5,0.2 0.9,0.4 1.4,0.6 0.5,1.1 2,1.8 3,0.9 0.6,-0.5 1.1,-1 1.6,-1.5 2.2,0.9 4.8,-0.1 5.1,-2.3 1.3,-0.6 2.3,-1.7 2.8,-3.1 0.9,-0.2 1.7,-1.2 1.6,-2.2 0,-0.1 0,-0.2 0,-0.3 -0.4,-0.7 -0.7,-1.4 -1.1,-2 -0.4,0.2 -0.9,0.2 -1.3,0.2 -1.1,0 -2.1,-0.9 -2.8,-2 -1.3,-1.3 -2.2,-2.8 -2.7,-4.7 -0.5,-0.1 -1.1,-0.1 -1.7,0.1 z"
           id="path55"
           inkscape:connector-curvature="0"
           style="fill:#f47878" /><path
           class="st2"
           d="m 795.2,289.4 c 0,0 0.1,0.1 0.1,0.1 0,-0.1 0,-0.1 -0.1,-0.1 0,-0.1 0,0 0,0 z"
           id="path57"
           inkscape:connector-curvature="0"
           style="fill:#fff7ec" /><path
           class="st1"
           d="m 793.7,283 c 0.3,0.1 0.7,0.3 1,0.5 0.1,0 0.1,0 0.2,0 0,0 0.1,0 0.1,0 0.1,0 0.2,0 0.3,0 0.1,0 0.1,0 0.2,0 0.3,0 0.7,0.2 1,0.5 1.3,0.9 2.2,2 2.8,3.4 0.1,0.1 0.2,0.2 0.2,0.3 0.4,0.5 0.4,1 0.2,1.4 0,0.1 0,0.1 0,0.2 0.1,0.8 -0.4,1.4 -1.1,1.7 0.3,0.1 0.6,0.1 0.9,0.1 1.8,-0.2 1.8,-1.6 4,0 1.3,0.9 3,0.1 3.1,-1.5 0.2,0.1 0.4,0.2 0.5,0.3 1,0.7 2.4,0.5 2.9,-0.7 0.1,-0.1 0.2,-0.4 0.2,-0.8 0.8,0.6 1.9,1.1 2.7,1.5 1.6,0.9 3.3,-1.4 2.2,-2.8 -0.1,-0.1 -0.2,-0.3 -0.3,-0.4 1.5,-0.2 2.4,-2.2 1,-3.2 -0.1,0 -0.1,-0.1 -0.2,-0.1 0.9,-1 0.2,-2.7 -1.1,-3.1 -0.8,-0.2 -1.7,-0.5 -2.5,-0.8 0,-0.9 -0.5,-1.7 -1.5,-1.9 -1.8,-0.4 -2.8,-0.1 -4.3,0.6 0,0 0,0 0,0 0.1,-0.1 0.2,-0.2 0.4,-0.3 1.3,-1.3 -0.5,-3.8 -2.1,-2.9 -0.3,0.2 -0.6,0.3 -0.8,0.6 -0.6,-1.2 -2.8,-1.4 -3.3,0.1 -0.3,0.8 -0.6,1.5 -0.9,2.3 -0.4,-1.4 -2.5,-1.8 -3.3,-0.2 -0.5,1.1 -1,2.3 -1.3,3.5 -0.1,0.1 -0.3,0.3 -0.4,0.4 -0.1,0.1 -0.2,0.1 -0.3,0.1 -0.6,0.4 -1.1,0.8 -1.4,1.2 0.2,-0.1 0.5,-0.1 0.9,0 z"
           id="path59"
           inkscape:connector-curvature="0"
           style="fill:#f47878" /><path
           class="st1"
           d="m 787.4,670.5 c -0.6,-1.9 -1.7,-3.7 -3.2,-5.2 -1,-1.1 -2.7,-0.2 -3,1 0,0 0,0 0,0 -0.2,-0.1 -0.5,-0.1 -0.8,-0.2 -1.5,-0.2 -2.2,0.5 -2.7,1.3 -0.6,-0.6 -1.3,-1 -2.2,-1.3 -1.4,-0.4 -3.1,0.9 -3.6,-0.1 -1.2,-2.2 -4.2,-0.3 -3.7,1.9 0.3,1.2 0.7,2.4 1.2,3.4 -1.3,0.6 -1.7,2.5 -0.5,3.6 0.4,0.4 0.9,0.9 1.4,1.3 -0.3,0.7 -0.4,1.5 0,2.5 0.2,0.7 0.8,1.3 1.6,1.4 0.8,0.1 1.5,0.1 2.3,0.1 -0.1,1 0,1.9 1,2.9 1.7,1.7 4.6,2.8 6.8,3.6 2,0.7 3.5,-1.3 2.7,-2.8 0.2,0 0.5,0 0.8,-0.1 -0.1,-0.2 -0.1,-0.3 -0.1,-0.5 0,-2 0.5,-3.8 1.6,-5.2 0.8,-1.9 1.9,-3.6 3.2,-5.1 -0.9,-1 -1.8,-1.9 -2.8,-2.5 z"
           id="path61"
           inkscape:connector-curvature="0"
           style="fill:#f47878" /><path
           class="st1"
           d="m 779.2,261.9 c 0.2,0.4 0.1,0.7 0,1 0.2,0.1 0.5,0.2 0.7,0.3 2.9,1.1 5.9,-0.4 8.9,0.6 1.6,0.5 3.1,-1.6 2.1,-2.9 0.3,-0.5 0.5,-0.9 0.8,-1.4 2.1,0.3 3.6,-2.6 1.4,-3.7 0.2,-0.5 0.4,-1.1 0.6,-1.6 2.1,0.2 2.5,-2.8 0.9,-3.8 -1.5,-0.9 -3,-1.5 -4.8,-1.7 -0.5,-0.1 -1.1,-0.1 -1.7,-0.1 -1,0 -2.5,0.9 -1.6,-0.4 0.1,-0.1 0.2,-0.2 0.3,-0.4 1.2,-1.9 -1.8,-4.2 -3.2,-2.3 -0.1,0.1 -0.2,0.3 -0.3,0.4 0,0 0,0 0,0 -0.6,0.9 -3.3,0.7 -4.3,1.4 -0.2,0.1 -0.4,0.3 -0.6,0.5 -0.6,-0.9 -1.9,-1.4 -2.9,-0.3 -1.6,1.8 -2.6,3.6 -3.2,5.8 -0.5,0.5 -0.9,1 -1.2,1.6 3.8,1 6.6,3.5 8.1,7 z"
           id="path63"
           inkscape:connector-curvature="0"
           style="fill:#f47878" /><path
           d="m 864.3,514.7 c 1.1,-3.6 0.7,-7.4 -1.5,-10.6 0,-0.1 -0.1,-0.1 -0.1,-0.2 -0.6,-0.8 -1.5,-0.9 -2.3,-0.5 -1.1,-13.3 -3.5,-26.6 -5.3,-39.7 0.5,0.1 1,0 1.5,-0.3 0.3,-0.2 0.5,-0.4 0.7,-0.8 1,-2.3 1.9,-4.9 0.7,-7.3 -0.3,-0.7 -0.8,-1.3 -1.4,-1.6 -0.2,-0.1 -0.4,-0.2 -0.6,-0.3 -0.6,-1.1 -1.3,-2.2 -1.8,-2.9 -0.3,-0.4 -0.7,-0.6 -1.2,-0.6 -2.6,-17 -5.5,-33.9 -9.4,-50.7 0.3,0.3 0.5,0.5 0.8,0.8 0.9,0.8 2.4,0.4 2.9,-0.7 0.1,-0.3 0.2,-0.5 0.3,-0.8 0.6,-2.1 0.2,-4.3 -1,-6.1 -0.1,-0.4 -0.3,-0.7 -0.5,-1 -0.4,-0.6 -0.9,-1.1 -1.5,-1.4 -0.1,-0.5 -0.2,-0.9 -0.3,-1.4 -0.3,-1.7 -3,-2 -3.2,-0.1 -4.2,-16.5 -9.5,-33 -16.3,-48.8 0.2,0 0.5,0 0.7,0 0.2,0.1 0.5,0.3 0.7,0.4 0.9,0.4 2,-0.1 2.4,-1 0.1,-0.3 0.2,-0.6 0.1,-0.9 -0.6,-3.1 -1.9,-5.7 -4.1,-7.8 -0.2,-0.2 -0.5,-0.5 -0.7,-0.7 -0.5,-0.4 -1.3,-0.5 -2,-0.2 -0.2,-0.1 -0.4,-0.1 -0.6,-0.1 -0.1,-0.2 -0.3,-0.4 -0.4,-0.6 -0.4,-0.6 -1,-0.7 -1.6,-0.6 -6.7,-13.8 -14.7,-26.8 -24.3,-38.7 l 0,0 c 0,0 0,0 0,0 0,0 0.1,0.1 0.1,0.1 0.2,0.2 0.5,0.4 0.8,0.6 0.1,0.1 0.2,0.1 0.3,0.1 0.2,0.2 0.4,0.4 0.7,0.6 0.5,0.3 1,0.4 1.5,0.2 0.7,-0.2 1.2,-0.8 1.1,-1.7 0,-0.1 0,-0.1 0,-0.2 0.2,-0.4 0.1,-1 -0.2,-1.4 -0.1,-0.1 -0.2,-0.2 -0.2,-0.3 -0.6,-1.4 -1.5,-2.5 -2.8,-3.4 -0.3,-0.3 -0.6,-0.5 -1,-0.5 -0.1,0 -0.1,0 -0.2,0 -0.1,0 -0.2,0 -0.3,0 0,0 -0.1,0 -0.1,0 -0.1,0 -0.2,0 -0.2,0 -0.3,-0.2 -0.6,-0.3 -1,-0.5 -0.3,-0.1 -0.7,-0.2 -1,-0.1 -0.9,0.1 -1.4,1 -1.4,1.9 -1.8,-2.1 -3.6,-4.1 -5.5,-6.1 0.6,0.5 1.6,-0.4 1.2,-1.2 -3.1,-4.7 -6.5,-9.1 -10.2,-13.3 0.1,0 0.2,0 0.3,-0.1 0.8,0.1 1.9,-0.4 2.1,-1.2 0.1,-0.3 0.1,-0.6 0,-1 -1.5,-3.5 -4.3,-6.1 -8,-7.1 -0.1,0 -0.1,0 -0.2,-0.1 -1,-0.3 -1.8,0.3 -2.1,1.1 -9.5,-9.4 -19.9,-18 -29.8,-26.7 0.5,-0.2 0.8,-0.7 0.9,-1.2 0.1,-0.3 0.1,-0.7 0,-1 -0.7,-2.4 -1.7,-5 -4.2,-6 -0.7,-0.3 -1.4,-0.4 -2.1,-0.4 -0.2,0 -0.4,0.1 -0.6,0.1 -1.2,-0.5 -2.4,-0.8 -3.3,-1 -0.4,-0.1 -0.9,0 -1.3,0.3 -13,-11.2 -26.2,-22.2 -40,-32.5 0.4,0 0.7,0.1 1.1,0 1.2,0 2.1,-1.3 1.8,-2.5 -0.1,-0.3 -0.2,-0.5 -0.3,-0.8 -0.9,-2 -2.6,-3.4 -4.7,-4 -0.3,-0.2 -0.7,-0.3 -1.1,-0.4 -0.7,-0.2 -1.4,-0.3 -2.1,-0.1 -0.4,-0.3 -0.8,-0.6 -1.2,-0.9 -1.4,-1.1 -3.6,0.4 -2.5,2 -13.9,-9.9 -28.7,-19 -44.1,-26.6 0.2,-0.1 0.4,-0.3 0.5,-0.5 0.3,-0.1 0.5,-0.1 0.8,-0.2 1,-0.3 1.5,-1.4 1.2,-2.3 -0.1,-0.3 -0.2,-0.6 -0.5,-0.8 -2.4,-2 -5.1,-3.1 -8.2,-3.3 -0.3,0 -0.7,0 -1,-0.1 -0.7,0 -1.3,0.5 -1.6,1.1 -0.2,0.1 -0.3,0.2 -0.5,0.3 -0.2,-0.1 -0.5,-0.1 -0.7,-0.2 -0.7,-0.2 -1.2,0.1 -1.6,0.5 -14,-6.1 -28.6,-10.8 -43.6,-13.6 l 0,0 0,0 c 0.1,0 0.1,0 0.2,0 0.3,0 0.7,0 1,0 0.1,0 0.2,-0.1 0.4,-0.1 0.3,0 0.6,0 0.9,0 0.6,0 1,-0.4 1.3,-0.8 0.4,-0.6 0.4,-1.4 -0.2,-2 -0.1,0 -0.1,-0.1 -0.2,-0.1 -0.2,-0.4 -0.5,-0.8 -1.1,-0.9 -0.1,0 -0.3,0 -0.4,-0.1 -1.3,-0.7 -2.8,-0.9 -4.3,-0.8 -0.4,0 -0.8,0 -1.1,0.2 -0.1,0 -0.1,0.1 -0.2,0.1 -0.1,0.1 -0.1,0.1 -0.2,0.2 0,0 -0.1,0.1 -0.1,0.1 0,0.1 -0.1,0.1 -0.1,0.2 -0.3,0.1 -0.7,0.1 -1.1,0.2 -0.4,0.1 -0.6,0.3 -0.8,0.5 -0.6,0.6 -0.4,1.7 0.2,2.3 -4.3,-0.7 -8.6,-1.2 -12.9,-1.5 0.3,-0.4 0.3,-1.2 -0.4,-1.4 -5.4,-1.4 -10.9,-2.3 -16.5,-3 0.1,-0.1 0.1,-0.2 0.2,-0.3 0.7,-0.5 1.1,-1.5 0.8,-2.3 -0.1,-0.3 -0.3,-0.5 -0.7,-0.7 -3.5,-1.6 -7.3,-1.6 -10.7,0.1 -0.1,0 -0.1,0.1 -0.2,0.1 -0.9,0.5 -1.1,1.4 -0.8,2.2 -13.4,-0.6 -26.9,0.1 -40,0.4 0.2,-0.5 0.1,-1 -0.1,-1.5 -0.1,-0.3 -0.4,-0.6 -0.7,-0.8 -2.1,-1.3 -4.6,-2.5 -7.1,-1.6 -0.7,0.3 -1.4,0.7 -1.8,1.2 -0.1,0.2 -0.3,0.3 -0.4,0.5 -1.2,0.4 -2.3,1 -3.1,1.4 -0.4,0.2 -0.7,0.6 -0.8,1.1 -17.2,0.4 -34.3,1.3 -51.4,3 0.3,-0.2 0.6,-0.5 0.9,-0.7 0.9,-0.8 0.7,-2.4 -0.3,-3 -0.2,-0.1 -0.5,-0.3 -0.7,-0.4 -2,-0.9 -4.3,-0.8 -6.2,0.2 -0.4,0.1 -0.7,0.2 -1.1,0.4 -0.6,0.3 -1.2,0.7 -1.6,1.3 -0.5,0.1 -1,0.1 -1.5,0.1 -1.8,0.1 -2.4,2.7 -0.5,3.2 -16.9,2.1 -34,5.3 -50.5,10.1 0.1,-0.2 0.1,-0.5 0,-0.7 0.2,-0.2 0.3,-0.4 0.5,-0.7 0.5,-0.8 0.2,-2 -0.6,-2.5 -0.3,-0.2 -0.6,-0.2 -0.9,-0.2 -3.1,0.2 -5.9,1.2 -8.3,3.1 -0.3,0.2 -0.5,0.4 -0.8,0.7 -0.5,0.5 -0.6,1.3 -0.4,1.9 -0.1,0.2 -0.1,0.4 -0.2,0.5 -0.2,0.1 -0.4,0.2 -0.7,0.3 -0.6,0.3 -0.9,0.9 -0.8,1.5 -14.5,5 -28.4,11.3 -41.4,19.3 l 0,0 c 0,0 0,0 0,0 0,0 0.1,-0.1 0.1,-0.1 0.3,-0.2 0.5,-0.4 0.7,-0.7 0.1,-0.1 0.1,-0.2 0.2,-0.3 0.2,-0.2 0.4,-0.4 0.6,-0.6 0.4,-0.4 0.5,-1 0.4,-1.5 -0.1,-0.7 -0.7,-1.3 -1.5,-1.3 -0.1,0 -0.1,0 -0.2,0 -0.4,-0.2 -0.9,-0.3 -1.5,0.1 -0.1,0.1 -0.2,0.1 -0.3,0.2 -1.4,0.4 -2.7,1.2 -3.7,2.3 -0.3,0.2 -0.5,0.5 -0.6,0.9 0,0 0,0.1 0,0.2 0,0.1 0,0.2 0,0.3 0,0 0,0.1 0,0.1 0,0.1 0,0.1 0,0.2 -0.2,0.3 -0.4,0.6 -0.6,0.9 -0.2,0.3 -0.3,0.6 -0.3,0.9 0,0.9 0.8,1.5 1.7,1.6 -2.8,1.8 -5.5,3.8 -8.2,5.8 -0.2,-0.1 -0.4,-0.1 -0.6,0.1 -4.8,2.9 -9.3,6.2 -13.6,9.8 0,-0.1 0,-0.2 -0.1,-0.3 0.1,-0.8 -0.3,-1.9 -1.1,-2.2 -0.3,-0.1 -0.6,-0.1 -1,0 -3.6,1.4 -6.2,4.1 -7.3,7.8 0,0.1 -0.1,0.1 -0.1,0.2 -0.3,1 0.3,1.8 1.1,2.1 -9.7,9.2 -18.7,19.3 -27.6,29 -0.2,-0.5 -0.6,-0.8 -1.1,-1 -0.3,-0.1 -0.7,-0.1 -1,0 -2.4,0.6 -5,1.5 -6.1,4 -0.3,0.7 -0.5,1.4 -0.4,2.1 0,0.2 0,0.4 0.1,0.6 -0.5,1.2 -0.9,2.3 -1.1,3.3 -0.1,0.4 0,0.9 0.2,1.3 -11.6,12.6 -23,25.5 -33.7,39 0,-0.4 0.1,-0.7 0.1,-1.1 0,-1.2 -1.2,-2.2 -2.4,-1.8 -0.3,0.1 -0.5,0.2 -0.8,0.3 -2,0.8 -3.5,2.5 -4.1,4.6 -0.2,0.3 -0.3,0.7 -0.5,1.1 -0.2,0.7 -0.3,1.4 -0.2,2.1 -0.3,0.4 -0.6,0.8 -0.9,1.1 -1.2,1.3 0.3,3.6 2,2.6 -10.3,13.6 -19.9,28 -27.9,43.2 -0.1,-0.2 -0.3,-0.4 -0.5,-0.5 0,-0.3 -0.1,-0.5 -0.1,-0.8 -0.2,-1 -1.4,-1.5 -2.3,-1.3 -0.3,0.1 -0.6,0.2 -0.8,0.5 -2.1,2.4 -3.2,5 -3.6,8.1 0,0.3 -0.1,0.7 -0.1,1 0,0.7 0.4,1.3 1.1,1.7 0.1,0.2 0.1,0.4 0.3,0.5 -0.1,0.2 -0.1,0.5 -0.2,0.7 -0.2,0.7 0,1.2 0.5,1.6 -6.5,13.8 -11.7,28.2 -15,43.2 0,0 0,0 0,0 0,0 0,0 0,0 0,0 0,-0.1 0,-0.1 0,-0.3 0,-0.7 0,-1 0,-0.1 -0.1,-0.2 -0.1,-0.4 0,-0.3 0,-0.6 0,-0.9 0,-0.6 -0.3,-1 -0.8,-1.3 -0.6,-0.4 -1.4,-0.4 -2,0.2 0,0 -0.1,0.1 -0.1,0.2 -0.4,0.2 -0.8,0.5 -1,1.1 0,0.1 -0.1,0.3 -0.1,0.4 -0.7,1.3 -1,2.8 -0.9,4.3 0,0.4 0,0.8 0.2,1.1 0,0 0.1,0.1 0.1,0.1 0.1,0.1 0.1,0.2 0.2,0.2 0,0 0.1,0.1 0.1,0.1 0.1,0 0.1,0.1 0.2,0.1 0.1,0.4 0.1,0.7 0.2,1.1 0.1,0.4 0.3,0.6 0.5,0.8 0.6,0.6 1.6,0.5 2.3,-0.1 -0.5,2.7 -0.9,5.4 -1.3,8.2 0,-0.8 -1.4,-1.1 -1.6,-0.2 -1.7,5.3 -3,10.7 -4,16.2 -0.1,-0.1 -0.2,-0.1 -0.3,-0.2 -0.5,-0.7 -1.5,-1.2 -2.3,-0.9 -0.3,0.1 -0.6,0.3 -0.8,0.7 -1.8,3.4 -2.1,7.1 -0.5,10.7 0,0.1 0,0.1 0.1,0.2 0.4,0.9 1.4,1.2 2.2,0.9 -1.5,13.3 -1.6,26.8 -2.2,40 -0.5,-0.2 -1,-0.2 -1.5,0 -0.3,0.1 -0.6,0.3 -0.8,0.6 -1.4,2 -2.8,4.4 -2.1,7 0.2,0.8 0.6,1.4 1,1.9 0.2,0.2 0.3,0.3 0.5,0.4 0.4,1.2 0.8,2.4 1.3,3.2 0.2,0.4 0.6,0.7 1,0.8 -0.7,17.2 -0.9,34.3 -0.3,51.5 -0.2,-0.3 -0.4,-0.6 -0.7,-0.9 -0.8,-0.9 -2.3,-0.9 -3,0.1 -0.2,0.2 -0.3,0.5 -0.4,0.7 -1,2 -1,4.2 -0.2,6.2 0.1,0.4 0.2,0.8 0.3,1.1 0.3,0.7 0.7,1.2 1.2,1.7 0,0.5 0,1 0,1.5 0,1.8 2.6,2.5 3.2,0.7 0,0 0,0 0,0 1,17 3.1,34.2 6.8,51 -0.2,-0.1 -0.5,-0.1 -0.7,-0.1 -0.2,-0.2 -0.4,-0.4 -0.6,-0.5 -0.8,-0.6 -2,-0.3 -2.6,0.5 -0.2,0.2 -0.3,0.5 -0.3,0.9 0,3.1 0.8,5.9 2.5,8.5 0.2,0.3 0.4,0.6 0.6,0.8 0.4,0.5 1.2,0.7 1.9,0.6 0.2,0.1 0.3,0.2 0.5,0.2 0.1,0.2 0.2,0.4 0.3,0.7 0.3,0.7 0.8,0.9 1.4,0.9 4,14.8 9.4,29.1 16.6,42.6 l 0,0 c 0,0 0,0 0,0 0,-0.1 -0.1,-0.1 -0.1,-0.1 -0.2,-0.3 -0.4,-0.5 -0.7,-0.8 -0.1,-0.1 -0.2,-0.1 -0.3,-0.2 -0.2,-0.2 -0.3,-0.5 -0.5,-0.7 -0.4,-0.4 -0.9,-0.6 -1.4,-0.5 -0.7,0.1 -1.4,0.6 -1.4,1.4 0,0.1 0,0.1 0,0.2 -0.2,0.4 -0.3,0.9 0,1.5 0.1,0.1 0.1,0.2 0.2,0.3 0.3,1.4 1,2.7 2.1,3.8 0.2,0.3 0.5,0.6 0.8,0.7 0.1,0 0.1,0 0.2,0.1 0.1,0 0.2,0 0.3,0 0,0 0.1,0 0.2,0 0.1,0 0.1,0 0.2,0 0.3,0.2 0.5,0.5 0.9,0.7 0.3,0.2 0.6,0.3 0.9,0.3 0.9,0 1.6,-0.7 1.7,-1.6 2.2,3.7 4.5,7.4 6.9,11 -0.5,0 -1.1,0.5 -0.8,1.2 2.3,5.1 5,10 8,14.7 -0.1,0 -0.2,0 -0.3,0 -0.8,-0.2 -1.9,0.1 -2.3,0.9 -0.1,0.3 -0.2,0.6 -0.1,1 0.9,3.7 3.3,6.7 6.8,8.2 0.1,0 0.1,0.1 0.2,0.1 0.9,0.4 1.8,0 2.2,-0.8 7.9,10.8 16.9,20.9 25.3,31 -0.5,0.2 -0.9,0.5 -1.1,1 -0.1,0.3 -0.2,0.6 -0.2,1 0.3,2.5 0.9,5.2 3.2,6.6 0.7,0.4 1.4,0.6 2,0.7 0.2,0 0.4,0 0.7,0 1.1,0.7 2.2,1.2 3.1,1.5 0.4,0.2 0.9,0.1 1.3,-0.1 11.1,13.1 22.4,26 34.5,38.3 -0.4,-0.1 -0.7,-0.2 -1.1,-0.2 -1.2,-0.2 -2.3,0.9 -2.1,2.1 0,0.3 0.1,0.5 0.2,0.8 0.6,2.1 2.1,3.8 4.1,4.7 0.3,0.2 0.6,0.4 1,0.6 0.6,0.3 1.3,0.5 2,0.4 0.3,0.3 0.7,0.7 1,1.1 1.2,1.3 3.6,0.1 2.8,-1.6 3.7,3.6 7.5,7.2 11.4,10.6 2.5,2.3 5.1,4.5 7.6,6.7 6.6,5.6 13.3,10.9 20.4,15.8 -0.2,0.1 -0.4,0.2 -0.6,0.4 -0.3,0 -0.5,0 -0.8,0 -1,0.1 -1.7,1.2 -1.6,2.1 0,0.3 0.2,0.6 0.4,0.8 2.1,2.3 4.6,3.8 7.6,4.6 0.3,0.1 0.7,0.2 1,0.2 0.7,0.1 1.4,-0.3 1.8,-0.9 0.2,0 0.4,-0.1 0.5,-0.2 0.2,0.1 0.4,0.2 0.7,0.3 0.6,0.3 1.2,0.1 1.6,-0.3 12.9,8.2 26.6,15.1 41,20.3 l 0,0 0,0 c 0,0 -0.1,0 -0.1,0 -0.3,-0.1 -0.6,-0.1 -1,-0.1 -0.1,0 -0.2,0 -0.4,0.1 -0.3,0 -0.6,-0.1 -0.8,-0.1 -0.6,-0.1 -1.1,0.2 -1.4,0.6 -0.5,0.5 -0.6,1.3 -0.1,2 0,0 0.1,0.1 0.1,0.1 0.1,0.5 0.4,0.9 1,1.1 0.1,0 0.2,0.1 0.4,0.1 1.2,0.9 2.6,1.3 4.1,1.4 0.4,0.1 0.8,0.1 1.1,-0.1 0.1,0 0.1,-0.1 0.2,-0.1 0.1,0 0.2,-0.1 0.2,-0.2 0,0 0.1,-0.1 0.1,-0.1 0,-0.1 0.1,-0.1 0.1,-0.2 0.4,0 0.7,0 1.1,-0.1 0.4,-0.1 0.7,-0.2 0.9,-0.4 0.7,-0.5 0.7,-1.6 0.2,-2.3 4.3,1.4 8.6,2.6 13,3.6 0.4,0.1 0.7,-0.3 0.7,-0.6 0,-0.2 -0.1,-0.4 -0.4,-0.5 -11.6,-3.5 -22.7,-8 -33.4,-13.2 0,0 0,-0.1 0,-0.1 0.6,-0.6 0.9,-1.7 0.2,-2.4 -0.1,-0.2 -0.3,-0.3 -0.5,-0.4 -1.4,-1.3 -3,-2.2 -4.7,-2.6 -1.2,-0.6 -2.5,-0.8 -3.5,-0.2 -0.4,0.2 -0.8,0.5 -1.1,0.8 -0.7,-0.4 -1.3,-0.8 -2,-1.1 -12.9,-7.2 -25.1,-15.6 -36.7,-24.8 1,0 1.7,-0.8 1.8,-1.7 0.6,-0.5 0.8,-1.3 0.2,-2 -0.2,-0.2 -0.4,-0.3 -0.5,-0.5 -1.6,-1.6 -3.4,-2.9 -5.5,-3.7 -0.6,-0.3 -1.2,-0.6 -1.9,-0.9 -0.4,-0.2 -0.8,-0.2 -1.1,-0.1 l 0,0 c -0.5,-0.1 -1,0.1 -1.3,0.4 -0.3,0.3 -0.6,0.6 -0.7,1.1 -1.9,-1.7 -3.8,-3.3 -5.7,-5 -5.7,-5.1 -11.2,-10.4 -16.6,-15.8 -6.4,-6.5 -12.7,-13.3 -18.8,-20.2 0.7,0.3 1.4,0.5 2.1,0.7 1.5,0.4 3,-1.1 1.9,-2.5 -0.2,-0.3 -0.5,-0.6 -0.7,-0.9 -1.3,-1.6 -2.7,-3 -4.4,-4.2 -1.2,-1.3 -2.8,-2.3 -4.8,-2.6 -0.2,0 -0.4,0 -0.6,0 -0.1,0 -0.2,0 -0.2,0.1 -0.4,0 -0.8,0.2 -1.1,0.5 -6.4,-7.4 -12.7,-14.9 -19,-22.5 -2.5,-3.1 -5.1,-6.1 -7.6,-9.2 0.4,0.1 0.9,0.2 1.3,0.3 1,0.1 2.1,-1 1.6,-2 -0.2,-0.4 -0.5,-0.9 -0.8,-1.3 -0.6,-0.9 -1.3,-1.8 -2.1,-2.6 -0.1,-0.9 -0.6,-1.8 -1.7,-2.2 -0.2,-0.1 -0.4,-0.1 -0.6,0 -0.9,-1.2 -2,-2.2 -3.3,-3 -0.5,-0.3 -1.1,-0.4 -1.5,-0.3 -0.5,0.1 -0.9,0.4 -1.2,0.8 -8.7,-10.9 -17.1,-22.1 -24.8,-33.9 0.4,-0.1 0.7,-0.4 0.5,-0.8 -0.1,-0.1 -0.1,-0.2 -0.2,-0.4 -6.1,-10.3 -11.3,-21 -15.6,-31.9 0,0 0,-0.1 0.1,-0.1 0.9,0 1.8,-0.7 1.8,-1.7 0,-0.2 0,-0.4 -0.1,-0.7 -0.2,-1.9 -0.7,-3.6 -1.8,-5.1 -0.5,-1.2 -1.3,-2.2 -2.4,-2.5 -0.4,-0.2 -0.9,-0.2 -1.3,-0.1 -0.2,-0.7 -0.5,-1.5 -0.7,-2.2 -4.6,-14 -8,-28.4 -10.4,-43 0.7,0.7 1.7,0.6 2.4,0 0.8,0 1.5,-0.4 1.5,-1.3 0,-0.3 0,-0.5 0,-0.8 -0.1,-2.3 -0.6,-4.4 -1.5,-6.4 -0.2,-0.6 -0.5,-1.3 -0.8,-1.9 -0.2,-0.4 -0.5,-0.6 -0.8,-0.8 l 0,0 c -0.3,-0.4 -0.7,-0.6 -1.2,-0.6 -0.4,0 -0.9,0.1 -1.2,0.3 -1.2,-10.1 -2,-20.3 -2.4,-30.5 -0.4,-9.2 -0.4,-18.4 -0.3,-27.6 0.3,0.7 0.7,1.4 1.1,1.9 0.9,1.3 2.9,1.2 3.1,-0.5 0.1,-0.4 0.1,-0.8 0.1,-1.2 0.1,-2 0,-4.1 -0.4,-6 0,-1.8 -0.6,-3.6 -1.8,-5.2 -0.1,-0.1 -0.3,-0.3 -0.4,-0.4 -0.1,-0.1 -0.1,-0.1 -0.2,-0.1 -0.4,-0.2 -0.8,-0.4 -1.2,-0.4 0.3,-9.8 0.7,-19.6 1.1,-29.4 0.2,-4 0.4,-7.9 0.6,-11.9 0.2,0.4 0.5,0.7 0.8,1.1 0.7,0.8 2.2,0.6 2.5,-0.5 0.1,-0.5 0.2,-1 0.3,-1.4 0.2,-1.1 0.2,-2.3 0.2,-3.4 0.6,-0.7 0.7,-1.7 0.2,-2.7 -0.1,-0.2 -0.3,-0.3 -0.5,-0.4 0.1,-1.5 0,-3 -0.5,-4.4 -0.2,-0.6 -0.5,-1 -0.9,-1.3 -0.4,-0.2 -0.9,-0.3 -1.4,-0.2 0.9,-14 2.2,-27.8 4.5,-41.7 -0.2,1.5 -0.4,3.1 -0.6,4.6 -0.1,0.7 1.1,0.8 1.2,0.2 2,-11.9 5.1,-23.5 9,-34.8 0,0 0.1,0 0.1,0 0.7,0.5 1.8,0.6 2.5,-0.1 0.1,-0.2 0.2,-0.4 0.4,-0.5 1.1,-1.5 1.8,-3.2 1.9,-5 0.4,-1.2 0.5,-2.6 -0.2,-3.5 -0.2,-0.4 -0.5,-0.7 -0.9,-0.9 0.3,-0.7 0.6,-1.4 0.9,-2.2 5.6,-13.7 12.3,-26.8 20.1,-39.5 0.1,1 1,1.6 1.9,1.6 0.6,0.5 1.4,0.7 2,0 0.2,-0.2 0.3,-0.4 0.5,-0.6 1.4,-1.8 2.4,-3.7 3,-5.9 0.2,-0.6 0.4,-1.3 0.6,-2 0.1,-0.4 0.1,-0.8 0,-1.1 0,0 0,-0.1 0,-0.1 0,-0.5 -0.2,-0.8 -0.5,-1.1 -0.3,-0.3 -0.7,-0.5 -1.1,-0.5 5.6,-8.5 11.6,-16.7 17.9,-24.8 5.7,-7.2 11.6,-14.3 17.7,-21.2 -0.2,0.8 -0.3,1.5 -0.4,2.2 -0.2,1.6 1.4,2.8 2.7,1.6 0.3,-0.3 0.6,-0.5 0.8,-0.8 1.4,-1.4 2.6,-3.1 3.6,-4.9 1.2,-1.4 1.9,-3.1 2,-5.1 0,-0.2 0,-0.4 -0.1,-0.5 0,-0.1 0,-0.2 -0.1,-0.2 -0.1,-0.4 -0.3,-0.8 -0.7,-1.1 6.6,-7.3 13.2,-14.5 20,-21.6 2.7,-2.9 5.4,-5.8 8.2,-8.7 0,0.4 -0.1,0.9 -0.1,1.3 0,1 1.3,1.9 2.2,1.3 0.4,-0.3 0.8,-0.6 1.2,-0.9 0.9,-0.7 1.6,-1.5 2.3,-2.4 0.9,-0.2 1.7,-0.8 2,-1.9 0,-0.2 0,-0.4 -0.1,-0.6 1,-1 1.9,-2.3 2.5,-3.7 0.3,-0.6 0.3,-1.1 0.1,-1.6 -0.2,-0.5 -0.5,-0.8 -0.9,-1.1 9.8,-10.1 19.9,-19.8 30.7,-28.9 0.2,-0.1 0.3,-0.2 0.5,-0.3 9.1,-6.1 18.6,-11.4 28.4,-16 0,0 0.1,0 0.1,0.1 0.1,0.9 0.8,1.8 1.8,1.7 0.2,0 0.4,-0.1 0.7,-0.1 1.9,-0.3 3.6,-1 5,-2.1 1.2,-0.6 2.2,-1.4 2.3,-2.6 0.1,-0.4 0.1,-0.9 0,-1.3 0.7,-0.3 1.4,-0.6 2.2,-0.9 13.7,-5.5 27.8,-9.8 42.3,-13.1 -0.6,0.8 -0.4,1.8 0.2,2.4 0,0.8 0.5,1.5 1.4,1.4 0.3,0 0.5,-0.1 0.8,-0.1 2.3,-0.2 4.4,-0.9 6.3,-1.9 0.6,-0.3 1.2,-0.6 1.9,-0.9 0.4,-0.2 0.6,-0.5 0.8,-0.8 0.4,-0.3 0.6,-0.8 0.6,-1.3 0,-0.4 -0.1,-0.8 -0.4,-1.2 10,-1.9 20.1,-3.3 30.3,-4.4 9.1,-0.9 18.3,-1.6 27.5,-2.1 -0.7,0.4 -1.3,0.8 -1.9,1.2 -1.3,0.9 -1,3 0.7,3.1 0.4,0 0.8,0 1.2,0 2,0 4.1,-0.3 6,-0.8 1.8,-0.1 3.5,-0.8 5,-2.1 0.1,-0.1 0.2,-0.3 0.3,-0.4 0,-0.1 0.1,-0.1 0.1,-0.2 0.2,-0.4 0.3,-0.8 0.3,-1.2 9.8,-0.4 19.6,-0.6 29.4,-0.8 4,-0.1 7.9,-0.1 11.9,-0.2 -0.3,0.3 -0.7,0.5 -1,0.8 -0.8,0.7 -0.5,2.3 0.6,2.5 0.5,0.1 1,0.1 1.5,0.2 1.1,0.1 2.3,0.1 3.4,0 0.8,0.5 1.8,0.6 2.8,0.1 0.2,-0.1 0.3,-0.3 0.4,-0.5 1.5,0 3,-0.2 4.4,-0.7 0.6,-0.2 1,-0.6 1.2,-1 0.2,-0.4 0.2,-0.9 0.1,-1.4 14,0 28,0.4 42,1.8 -0.2,0.3 -0.1,0.9 0.3,0.9 12,1.7 23.7,4.3 35.1,7.9 0,0 0,0.1 0,0.1 -0.5,0.8 -0.6,1.9 0.2,2.5 0.2,0.1 0.4,0.2 0.6,0.4 1.6,1.1 3.3,1.7 5.1,1.8 1.3,0.4 2.6,0.4 3.5,-0.3 0.4,-0.2 0.7,-0.6 0.9,-1 0.7,0.3 1.5,0.5 2.2,0.8 13.8,5.1 27.2,11.5 40.1,18.8 -1,0.1 -1.5,1 -1.5,1.9 -0.5,0.6 -0.6,1.4 0.1,2 0.2,0.2 0.4,0.3 0.6,0.4 1.8,1.4 3.8,2.3 6,2.8 0.6,0.2 1.3,0.4 2,0.5 0.4,0.1 0.8,0 1.1,-0.1 0.5,0 0.9,-0.2 1.3,-0.5 0.3,-0.3 0.5,-0.7 0.5,-1.2 8.7,5.3 17.1,11.1 25.3,17.2 7.4,5.5 14.6,11.1 21.7,17 -0.8,-0.2 -1.5,-0.3 -2.2,-0.4 -1.6,-0.2 -2.8,1.5 -1.5,2.8 0.3,0.3 0.6,0.5 0.9,0.8 1.5,1.4 3.2,2.5 5,3.4 1.4,1.1 3.2,1.8 5.2,1.8 0.2,0 0.4,0 0.5,-0.1 0.1,0 0.2,-0.1 0.2,-0.1 0.4,-0.1 0.8,-0.4 1,-0.7 7.5,6.3 14.9,12.8 22.3,19.3 3,2.6 5.9,5.3 8.9,7.9 -0.4,0 -0.9,-0.1 -1.3,-0.1 -1,0 -1.9,1.3 -1.2,2.3 0.3,0.4 0.6,0.8 0.9,1.1 0.8,0.8 1.6,1.6 2.5,2.2 0.2,0.9 0.9,1.7 2,1.9 0.2,0 0.4,0 0.6,-0.1 1.1,1 2.3,1.8 3.7,2.4 0.6,0.2 1.1,0.2 1.6,0 0.5,-0.2 0.8,-0.5 1,-0.9 10.3,9.4 20.3,19.1 29.7,29.5 -1.1,-1.1 -2.1,-2.2 -3.2,-3.3 -0.5,-0.5 -1.3,0.3 -0.9,0.8 8.1,9 15.2,18.7 21.6,28.8 0,0 0,0.1 0,0.1 -0.9,0.2 -1.7,1 -1.5,2 0.1,0.2 0.1,0.4 0.2,0.6 0.5,1.8 1.4,3.4 2.7,4.7 0.7,1.1 1.7,2 2.8,2 0.4,0.1 0.9,0 1.3,-0.2 0.4,0.7 0.7,1.4 1.1,2 7.2,12.9 13.2,26.4 18.3,40.3 -0.8,-0.5 -1.8,-0.2 -2.4,0.5 -0.8,0.1 -1.4,0.7 -1.3,1.6 0,0.3 0.1,0.5 0.2,0.7 0.5,2.2 1.4,4.2 2.7,6 0.3,0.6 0.7,1.2 1.2,1.7 0.3,0.3 0.6,0.5 0.9,0.7 0,0 0,0 0,0 0.4,0.3 0.8,0.4 1.3,0.4 0.4,-0.1 0.8,-0.3 1.1,-0.6 3.1,9.7 5.8,19.5 8.1,29.5 2.1,9 3.9,18 5.5,27 -0.5,-0.6 -1,-1.2 -1.4,-1.7 -1.1,-1.2 -3.1,-0.6 -3,1.1 0,0.4 0.1,0.8 0.1,1.2 0.2,2 0.8,4 1.6,5.8 0.3,1.8 1.2,3.4 2.7,4.7 0.2,0.1 0.3,0.2 0.5,0.3 0.1,0 0.2,0.1 0.2,0.1 0.4,0.2 0.8,0.2 1.3,0.1 1.6,9.7 3,19.4 4.4,29.1 0.6,3.9 1.1,7.9 1.6,11.8 -0.3,-0.3 -0.6,-0.6 -0.9,-0.9 -0.8,-0.7 -2.3,-0.2 -2.4,0.9 0,0.5 0,1 0,1.5 0,1.1 0.2,2.3 0.4,3.3 -0.4,0.8 -0.4,1.8 0.3,2.7 0.1,0.2 0.3,0.3 0.5,0.3 0.2,1.5 0.6,2.9 1.3,4.3 0.3,0.5 0.7,0.9 1.2,1 0.5,0.2 1,0.1 1.4,0 1.6,12.7 2.8,25.5 3.3,38.4 -0.1,0.1 -0.2,0.2 -0.2,0.4 -0.1,1.3 -0.3,2.6 -0.4,3.9 -1.2,10.7 -3.3,21.2 -6,31.5 0,0 -0.1,0 -0.1,0 -0.8,-0.5 -1.9,-0.5 -2.4,0.3 -0.1,0.2 -0.2,0.4 -0.3,0.6 -1,1.6 -1.5,3.3 -1.6,5.1 -0.3,1.3 -0.3,2.6 0.5,3.4 0.2,0.4 0.6,0.7 1,0.9 -0.2,0.7 -0.5,1.5 -0.7,2.2 -4.6,14 -10.3,27.7 -17.1,40.8 -0.2,-1 -1.1,-1.5 -2,-1.4 -0.6,-0.5 -1.4,-0.6 -2,0.1 -0.2,0.2 -0.3,0.4 -0.4,0.6 -1.3,1.9 -2.1,3.9 -2.6,6.1 -0.2,0.7 -0.4,1.3 -0.5,2 -0.1,0.4 0,0.8 0.1,1.1 l 0,0 c 0,0.5 0.2,0.9 0.6,1.2 0.3,0.3 0.7,0.4 1.2,0.4 -5,8.9 -10.4,17.5 -16.1,26 -5.1,7.6 -10.5,15.1 -16,22.4 0.1,-0.8 0.2,-1.5 0.3,-2.2 0.1,-1.6 -1.6,-2.7 -2.9,-1.4 -0.3,0.3 -0.5,0.6 -0.8,0.9 -1.3,1.5 -2.4,3.3 -3.2,5.1 -1.1,1.5 -1.7,3.2 -1.6,5.2 0,0.2 0.1,0.4 0.1,0.5 0,0.1 0.1,0.2 0.1,0.2 0.1,0.4 0.4,0.8 0.7,1 -6,7.8 -12.1,15.4 -18.3,23 -2.5,3.1 -5,6.2 -7.5,9.2 0,-0.4 0,-0.9 0,-1.3 -0.1,-1 -1.4,-1.8 -2.3,-1.1 -0.4,0.3 -0.7,0.6 -1.1,1 -0.8,0.8 -1.5,1.7 -2.1,2.6 -0.9,0.3 -1.6,0.9 -1.8,2.1 0,0.2 0,0.4 0.1,0.6 -1,1.1 -1.7,2.4 -2.2,3.8 -0.2,0.6 -0.2,1.1 0,1.6 0.2,0.4 0.6,0.8 1,1 -9,10.7 -18.2,21.1 -28.2,30.9 1.1,-1.1 2.1,-2.2 3.1,-3.4 0.5,-0.5 -0.4,-1.3 -0.9,-0.8 -8.7,8.4 -18,16 -27.8,22.8 0,0 -0.1,0 -0.1,0 -0.2,-0.9 -1.1,-1.6 -2,-1.4 -0.2,0.1 -0.4,0.2 -0.6,0.2 -1.8,0.6 -3.3,1.5 -4.5,2.9 -1.1,0.8 -1.9,1.8 -1.9,2.9 -0.1,0.5 0,0.9 0.2,1.3 -0.7,0.4 -1.3,0.8 -2,1.2 -12.6,7.7 -25.8,14.3 -39.5,20 0.5,-0.9 0.2,-1.8 -0.6,-2.4 -0.1,-0.7 -0.7,-1.4 -1.6,-1.2 -0.2,0 -0.5,0.1 -0.7,0.2 -2.2,0.6 -4.2,1.6 -5.9,3 -0.6,0.4 -1.1,0.8 -1.7,1.2 -0.3,0.3 -0.5,0.6 -0.6,0.9 -0.3,0.3 -0.4,0.6 -0.4,1 0,0.1 0,0.2 0,0.3 0.1,0.4 0.3,0.8 0.6,1.1 -9.5,3.5 -19.3,6.6 -29.1,9.3 -8.9,2.5 -17.8,4.6 -26.8,6.6 0.6,-0.5 1.2,-1 1.6,-1.5 1.1,-1.1 0.5,-3.1 -1.3,-2.9 -0.4,0 -0.8,0.1 -1.2,0.2 -2,0.3 -4,0.9 -5.8,1.8 -1.7,0.4 -3.3,1.4 -4.6,2.9 -0.1,0.2 -0.2,0.3 -0.3,0.5 0,0.1 -0.1,0.2 -0.1,0.2 -0.2,0.4 -0.2,0.8 -0.1,1.3 -9.6,2 -19.2,3.9 -28.9,5.6 -3.9,0.7 -7.8,1.4 -11.7,2.1 0.3,-0.3 0.6,-0.6 0.8,-1 0.6,-0.8 0.1,-2.3 -1,-2.3 -0.5,0 -1,0 -1.5,0 -1.1,0.1 -2.2,0.3 -3.3,0.6 -0.9,-0.4 -1.9,-0.3 -2.7,0.4 -0.2,0.2 -0.3,0.4 -0.3,0.6 -1.5,0.2 -2.9,0.7 -4.2,1.4 -0.5,0.3 -0.9,0.7 -1,1.2 -0.1,0.5 -0.1,1 0.1,1.4 -13.9,2.3 -27.8,4.3 -42,5.2 -0.8,0.1 -0.9,1.2 -0.3,1.6 -10.1,1.1 -20.2,1.5 -30.2,1.3 0,0 0,-0.1 0,-0.1 0.3,-0.9 0.1,-1.9 -0.8,-2.3 -0.2,-0.1 -0.4,-0.1 -0.6,-0.2 -0.9,-0.3 -1.8,-0.5 -2.7,-0.5 -0.9,-0.1 -1.8,0 -2.7,0.2 -1,0 -1.9,0.2 -2.6,0.7 -0.2,0.2 -0.4,0.3 -0.6,0.6 -0.3,0.3 -0.5,0.7 -0.6,1.2 -0.8,0 -1.6,-0.1 -2.3,-0.2 -6.7,-0.5 -16,-2.2 -25.4,-4.1 -9.4,-1.9 -18.7,-4 -25.2,-5.6 -2,0.7 -1.6,0.5 -3.7,1 5.8,1.4 20.1,7 26,8.1 -0.2,0.2 -0.3,0.4 -0.3,0.6 -0.2,0.1 -0.5,0.2 -0.7,0.4 -0.9,0.5 -1.1,1.8 -0.6,2.6 0.2,0.3 0.4,0.5 0.7,0.6 0.2,0.1 0.4,0.2 0.6,0.2 2.7,1 5.4,1.3 8.1,0.7 0.3,-0.1 0.7,-0.1 1,-0.2 0.7,-0.2 1.1,-0.8 1.3,-1.5 0.2,-0.1 0.3,-0.2 0.4,-0.4 0.2,0 0.5,0 0.7,0 0.7,0 1.2,-0.4 1.4,-0.9 15.2,2 30.5,2.7 45.7,1.3 l 0,0 c 0,0 0,0 0,0 0,0 -0.1,0 -0.1,0 -0.3,0.1 -0.6,0.2 -0.9,0.3 -0.1,0.1 -0.2,0.1 -0.3,0.2 -0.3,0.1 -0.6,0.1 -0.8,0.2 -0.5,0.2 -0.9,0.6 -1,1.1 0,0.2 -0.1,0.3 -0.1,0.5 0,0.2 0,0.3 0.1,0.5 0.1,0.3 0.4,0.6 0.7,0.8 0,0 0.1,0 0.1,0 0,0 0,0 0.1,0 0.2,0.3 0.5,0.5 0.9,0.6 0.1,0 0.3,0 0.4,0 0.1,0 0.3,0 0.4,0 0.7,0.1 1.4,0.2 2.2,0.1 0.1,0 0.1,0 0.2,0 0.3,0 0.7,-0.1 1,-0.2 0.3,-0.1 0.7,-0.2 1,-0.3 0.1,0 0.2,0 0.3,-0.1 0.3,-0.1 0.5,-0.2 0.7,-0.4 0,0 0.1,-0.1 0.1,-0.2 0,-0.1 0.1,-0.1 0.1,-0.2 0,0 0,0 0,-0.1 0,0 0,-0.1 0,-0.1 0,0 0,0 0,0 0,-0.1 0,-0.1 0.1,-0.2 0.3,-0.2 0.6,-0.3 0.9,-0.5 0.1,-0.1 0.2,-0.2 0.3,-0.2 0.1,-0.2 0.3,-0.3 0.4,-0.5 0.4,-0.8 0,-1.7 -0.8,-2.2 2.6,-0.3 5.1,-0.7 7.7,-1.1 1.9,-0.3 3.7,-0.7 5.6,-1 0.1,0 0.1,-0.1 0.2,-0.1 3.7,0.1 7.3,0.1 11,-0.1 0,0.1 -0.1,0.2 -0.1,0.3 -0.6,0.6 -0.8,1.7 -0.4,2.4 0.2,0.3 0.4,0.5 0.8,0.6 3.7,1 7.4,0.4 10.5,-1.9 0.1,0 0.1,-0.1 0.2,-0.1 0.8,-0.6 0.8,-1.6 0.4,-2.3 13.3,-1.6 26.5,-4.6 39.4,-7 -0.1,0.5 0,1 0.3,1.5 0.2,0.3 0.5,0.5 0.8,0.6 2.3,0.9 4.9,1.7 7.3,0.4 0.7,-0.4 1.2,-0.9 1.6,-1.5 0.1,-0.2 0.2,-0.4 0.3,-0.6 1.1,-0.6 2.1,-1.3 2.8,-1.9 0.3,-0.3 0.5,-0.7 0.6,-1.2 16.9,-3.3 33.6,-7 50.2,-11.5 -0.3,0.3 -0.5,0.6 -0.7,0.9 -0.7,1 -0.3,2.5 0.8,2.9 0.3,0.1 0.5,0.2 0.8,0.2 2.1,0.5 4.3,0.1 6,-1.3 0.4,-0.1 0.7,-0.4 1,-0.6 0.6,-0.4 1.1,-0.9 1.4,-1.6 0.5,-0.1 0.9,-0.3 1.4,-0.4 1.7,-0.4 1.9,-3.1 -0.1,-3.3 16.3,-4.9 32.6,-10.9 48.1,-18.3 0,0.2 0,0.5 0.1,0.7 -0.1,0.2 -0.3,0.5 -0.4,0.7 -0.4,0.9 0.2,2 1.1,2.4 0.3,0.1 0.6,0.1 0.9,0.1 3.1,-0.7 5.6,-2.1 7.7,-4.4 0.2,-0.2 0.5,-0.5 0.7,-0.8 0.4,-0.5 0.4,-1.3 0.1,-2 0.1,-0.2 0.1,-0.4 0.1,-0.6 0.2,-0.1 0.4,-0.3 0.6,-0.4 0.6,-0.4 0.7,-1 0.5,-1.6 13.5,-7.3 26.2,-15.8 37.6,-25.9 l 0,0 c 0,0 0,0 0,0 0,0 -0.1,0.1 -0.1,0.1 -0.2,0.3 -0.4,0.5 -0.6,0.8 -0.1,0.1 -0.1,0.2 -0.1,0.4 -0.2,0.2 -0.4,0.4 -0.5,0.7 -0.3,0.5 -0.3,1 -0.2,1.5 0.2,0.7 0.9,1.2 1.7,1 0.1,0 0.1,0 0.2,0 0.5,0.1 1,0.1 1.4,-0.3 0.1,-0.1 0.2,-0.2 0.3,-0.3 1.3,-0.6 2.4,-1.6 3.3,-2.9 0.3,-0.3 0.4,-0.6 0.5,-1 0,-0.1 0,-0.1 0,-0.2 0,-0.1 0,-0.2 0,-0.3 0,0 0,-0.1 0,-0.1 0,-0.1 0,-0.1 -0.1,-0.2 0.2,-0.3 0.3,-0.6 0.4,-1 0.1,-0.3 0.2,-0.7 0.1,-1 -0.2,-0.9 -1,-1.4 -1.9,-1.3 2,-1.9 4,-3.8 5.9,-5.8 -0.5,0.7 0.5,1.6 1.2,1.1 4.5,-3.3 8.8,-6.9 12.8,-10.7 0,0.1 0,0.2 0.1,0.3 0,0.8 0.5,1.8 1.3,2.1 0.3,0.1 0.6,0.1 1,-0.1 3.4,-1.6 5.9,-4.6 6.7,-8.3 0,-0.1 0,-0.1 0,-0.2 0.2,-1 -0.4,-1.8 -1.2,-2 9,-9.9 17.2,-20.7 25.4,-30.9 0.2,0.5 0.7,0.8 1.2,0.9 0.3,0.1 0.7,0.1 1,0 2.4,-0.8 4.9,-1.9 5.8,-4.4 0.3,-0.7 0.4,-1.5 0.3,-2.1 0,-0.2 -0.1,-0.4 -0.2,-0.6 0.4,-1.2 0.7,-2.4 0.9,-3.3 0.1,-0.4 -0.1,-0.9 -0.3,-1.3 10.7,-13.5 21.1,-27.1 30.7,-41.3 0,0.4 0,0.8 0,1.1 0.1,1.2 1.4,2.1 2.5,1.7 0.3,-0.1 0.5,-0.2 0.8,-0.3 2,-1 3.3,-2.8 3.8,-4.9 0.2,-0.3 0.3,-0.7 0.4,-1.1 0.2,-0.7 0.2,-1.4 0,-2.1 0.3,-0.4 0.5,-0.8 0.8,-1.2 1.1,-1.4 -0.6,-3.6 -2.2,-2.4 9.2,-14.4 17.7,-29.4 24.7,-45.1 0.1,0.2 0.3,0.4 0.5,0.5 0.1,0.3 0.1,0.5 0.2,0.8 0.3,1 1.5,1.4 2.4,1.1 0.3,-0.1 0.5,-0.3 0.7,-0.5 1.9,-2.5 2.9,-5.3 3,-8.3 0,-0.3 0,-0.7 0,-1 0,-0.7 -0.5,-1.3 -1.2,-1.6 -0.1,-0.2 -0.2,-0.3 -0.3,-0.5 0.1,-0.2 0.1,-0.5 0.2,-0.7 0.2,-0.7 -0.1,-1.2 -0.6,-1.6 5.5,-14.3 9.6,-29 11.8,-44.2 0,0 0,0 0,0 0,0 0,0 0,0 0,0 0,0.1 0,0.1 0,0.4 0,0.7 0.1,1 0,0.1 0.1,0.2 0.1,0.4 0,0.3 0,0.6 0,0.9 0.1,0.6 0.4,1 0.9,1.3 0.6,0.3 1.4,0.3 2,-0.3 0,-0.1 0.1,-0.1 0.1,-0.2 0.4,-0.2 0.8,-0.5 0.9,-1.2 0,-0.1 0,-0.3 0.1,-0.4 0.6,-1.3 0.8,-2.8 0.6,-4.4 0,-0.4 -0.1,-0.8 -0.3,-1 0,-0.1 -0.1,-0.1 -0.1,-0.2 -0.1,-0.1 -0.1,-0.1 -0.2,-0.2 0,0 -0.1,-0.1 -0.1,-0.1 -0.1,0 -0.1,-0.1 -0.2,-0.1 -0.1,-0.3 -0.2,-0.7 -0.3,-1 -0.1,-0.4 -0.3,-0.6 -0.5,-0.8 -0.7,-0.5 -1.7,-0.4 -2.3,0.2 0.3,-3.1 0.6,-6.3 0.8,-9.4 0.4,0.1 0.9,-0.1 1,-0.7 0.7,-5.5 0.9,-11.1 0.9,-16.7 0.1,0.1 0.2,0.1 0.3,0.2 0.6,0.6 1.7,0.9 2.4,0.5 -0.7,0.7 -0.5,0.4 -0.4,0 z"
           id="path65"
           inkscape:connector-curvature="0" /><path
           class="st1"
           d="m 778.7,706.7 c -0.9,2.5 -3.5,3.6 -5.8,4.4 -0.4,0.1 -0.7,0.1 -1,0 -0.1,1.4 0,2.8 0.2,4.2 -0.1,1.2 0.3,2.4 1.1,4.1 0.2,0.4 0.4,0.7 0.7,0.9 0.1,0.3 0.3,0.5 0.5,0.8 -0.7,1.6 0.9,3.3 2.3,2.8 0.4,1.2 1.9,2.1 2.9,1.2 0.3,0 0.7,0 1,0 0.4,1.7 2.8,2.6 3.7,0.6 -0.1,-0.1 -0.2,-0.2 -0.3,-0.3 1.1,0.6 2.8,0.1 3,-1.3 0.2,-1.9 0.3,-3.7 -0.1,-5.6 -0.1,-0.7 -1.2,-4.6 -1.5,-4.7 2.5,0.4 3.1,-3.1 0.8,-3.8 -0.3,-0.1 -0.6,-0.2 -0.9,-0.3 1,-1 0.9,-3.1 -0.8,-3.3 -1.4,-0.1 -2.8,-0.2 -4.2,-0.3 -0.3,-0.4 -0.6,-0.8 -0.9,-1.1 -0.2,-0.2 -0.4,-0.3 -0.5,-0.5 0.1,0.7 0.1,1.5 -0.2,2.2 z"
           id="path67"
           inkscape:connector-curvature="0"
           style="fill:#f47878" /><path
           class="st1"
           d="m 739.6,751.7 c -0.4,0.2 -0.7,0.2 -1,0.1 -0.1,0.2 -0.2,0.5 -0.3,0.7 -1,2.9 0.6,5.9 -0.2,8.9 -0.4,1.7 1.7,3 3,2 0.5,0.2 1,0.5 1.4,0.7 -0.2,2.1 2.7,3.5 3.7,1.3 0.5,0.2 1.1,0.3 1.6,0.5 -0.1,2.1 2.9,2.4 3.8,0.7 0.8,-1.6 1.4,-3.1 1.5,-4.9 0,-0.6 0.1,-1.1 0,-1.7 -0.1,-1 -1,-2.5 0.4,-1.6 0.1,0.1 0.3,0.2 0.4,0.3 1.9,1.1 4.1,-2 2.2,-3.3 -0.1,-0.1 -0.3,-0.2 -0.4,-0.3 l 0,0 c -1,-0.6 -0.9,-3.3 -1.6,-4.3 -0.1,-0.2 -0.3,-0.4 -0.5,-0.6 0.9,-0.6 1.3,-2 0.2,-2.9 -1.8,-1.5 -3.7,-2.5 -6,-3 -0.5,-0.5 -1.1,-0.9 -1.6,-1.1 -0.7,3.9 -3.2,6.8 -6.6,8.5 z"
           id="path69"
           inkscape:connector-curvature="0"
           style="fill:#f47878" /><path
           class="st1"
           d="m 743.3,243.6 c 0,0 0,0 0,0 -2.2,1.2 -3.8,3.3 -4.6,5.6 -1.2,0.7 -2.3,1.5 -3.4,2.5 -0.7,0.7 -0.6,1.8 0,2.5 -0.1,2.1 1.4,3.6 3.1,4.5 -0.2,1.4 0.3,2.9 1.7,3.9 0.4,0.3 0.9,0.4 1.3,0.6 0.2,0.1 0.4,0.2 0.4,0.1 0,0.1 0,0.1 0.1,0.3 0.5,1.2 0.1,2 1.1,3 0.8,0.8 2.1,0.7 2.9,-0.1 0.6,-0.7 1.2,-1.4 1.7,-2.2 0.3,0.3 0.7,0.5 1.1,0.8 0.8,0.5 1.9,0.3 2.5,-0.4 0.7,-0.8 1.1,-1.4 1.2,-2.5 0.1,-0.5 -0.2,-1.4 0,-1.9 -0.1,0 -0.3,0 -0.4,-0.1 0.3,0 0.5,-0.1 0.8,-0.2 0.5,-0.7 1.2,-1 1.6,-2.1 0.1,-0.5 0.3,-3.6 -0.2,-3.6 1.5,-0.1 2.5,-1.8 1.7,-3.2 -0.5,-0.8 -0.8,-1.2 -1.2,-1.7 -0.4,0.2 -1,0.2 -1.6,0 -1.4,-0.6 -2.7,-1.4 -3.7,-2.4 -0.2,0.1 -0.4,0.1 -0.6,0.1 -1.1,-0.2 -1.7,-1 -2,-1.9 -0.9,-0.6 -1.7,-1.4 -2.5,-2.2 -0.2,0.1 -0.5,0.2 -0.7,0.3 -0.1,0.2 -0.2,0.3 -0.3,0.3 z m 1.9,16.8 c 0,0.1 -0.1,0.2 -0.1,0.3 -0.1,-0.1 -0.3,-0.2 -0.5,-0.3 0.2,0 0.4,0 0.6,0 z"
           id="path71"
           inkscape:connector-curvature="0"
           style="fill:#f47878" /><path
           class="st1"
           d="m 756.4,715.1 c 0,-0.1 0,-0.1 0,0 -1.3,-2.2 -3.5,-3.7 -5.8,-4.4 -0.8,-1.2 -1.6,-2.2 -2.7,-3.3 -0.7,-0.7 -1.8,-0.5 -2.5,0.1 -2.1,0 -3.6,1.5 -4.4,3.3 -1.4,-0.2 -2.9,0.4 -3.8,1.8 -0.3,0.4 -0.4,0.9 -0.6,1.3 -0.1,0.3 -0.1,0.4 -0.1,0.4 -0.1,0 -0.1,0.1 -0.3,0.1 -1.2,0.5 -1.9,0.1 -3,1.3 -0.7,0.8 -0.6,2.2 0.2,2.9 0.7,0.6 1.5,1.1 2.2,1.6 -0.2,0.3 -0.5,0.7 -0.7,1.1 -0.4,0.8 -0.2,1.9 0.5,2.5 0.8,0.7 1.5,1 2.5,1.1 0.6,0 1.4,-0.2 1.9,-0.1 0,-0.1 0.1,-0.3 0.1,-0.4 0,0.3 0.1,0.5 0.2,0.8 0.8,0.5 1.1,1.2 2.2,1.5 0.5,0.1 3.6,0.2 3.6,-0.3 0.2,1.5 1.9,2.5 3.3,1.6 0.8,-0.5 1.2,-0.8 1.7,-1.3 -0.2,-0.4 -0.2,-1 0,-1.6 0.5,-1.4 1.3,-2.7 2.2,-3.8 -0.1,-0.2 -0.2,-0.4 -0.1,-0.6 0.2,-1.1 0.9,-1.8 1.8,-2.1 0.6,-0.9 1.3,-1.8 2.1,-2.6 -0.1,-0.2 -0.2,-0.5 -0.4,-0.7 0,-0.1 -0.1,-0.2 -0.1,-0.2 z m -16.7,2.6 c -0.1,0 -0.2,-0.1 -0.3,-0.1 0.1,-0.1 0.2,-0.3 0.3,-0.5 0,0.2 0,0.4 0,0.6 z"
           id="path73"
           inkscape:connector-curvature="0"
           style="fill:#f47878" /><path
           class="st1"
           d="m 735.9,221 c 2.5,1 3.5,3.6 4.2,6 0.1,0.4 0.1,0.7 0,1 1.4,0.2 2.8,0.2 4.2,0 1.2,0.1 2.4,-0.3 4.1,-1 0.4,-0.2 0.7,-0.4 0.9,-0.7 0.3,-0.1 0.5,-0.3 0.8,-0.5 1.6,0.8 3.3,-0.7 2.8,-2.2 1.2,-0.3 2.1,-1.8 1.4,-2.9 0,-0.3 0,-0.7 0,-1 1.7,-0.3 2.7,-2.7 0.8,-3.6 -0.1,0.1 -0.2,0.2 -0.3,0.3 0.7,-1.1 0.2,-2.8 -1.2,-3 -1.9,-0.3 -3.7,-0.4 -5.6,-0.1 -0.7,0.1 -4.7,1 -4.7,1.3 0.5,-2.5 -3,-3.3 -3.8,-0.9 -0.1,0.3 -0.2,0.6 -0.3,0.8 -0.9,-1.1 -3.1,-1 -3.3,0.7 -0.2,1.4 -0.3,2.8 -0.5,4.2 -0.5,0.3 -0.8,0.6 -1.1,0.8 -0.2,0.2 -0.3,0.3 -0.5,0.5 0.7,-0.1 1.4,0 2.1,0.3 z"
           id="path75"
           inkscape:connector-curvature="0"
           style="fill:#f47878" /><path
           class="st1"
           d="m 700.1,210.8 c -2,0.5 -3.7,1.6 -5.3,3 -1.1,1 -0.3,2.7 0.9,3.1 0,0 0,0 0,0 -0.1,0.2 -0.2,0.5 -0.2,0.8 -0.2,1.5 0.4,2.2 1.2,2.8 -0.6,0.6 -1.1,1.3 -1.3,2.1 -0.5,1.4 0.7,3.1 -0.3,3.6 -2.3,1.1 -0.4,4.2 1.7,3.8 1.2,-0.2 2.4,-0.6 3.5,-1 0.5,1.4 2.4,1.8 3.5,0.7 0.5,-0.4 0.9,-0.9 1.4,-1.3 0.7,0.4 1.5,0.4 2.5,0.1 0.7,-0.2 1.3,-0.8 1.4,-1.5 0.2,-0.8 0.2,-1.5 0.2,-2.3 1,0.1 1.9,0.1 2.9,-0.9 1.8,-1.6 3,-4.5 3.9,-6.7 0.8,-2 -1.2,-3.6 -2.7,-2.8 0,-0.2 0,-0.5 0,-0.8 -0.2,0 -0.3,0.1 -0.5,0.1 -2,0 -3.8,-0.7 -5.2,-1.8 -1.8,-0.9 -3.5,-2 -5,-3.4 -1,0.6 -1.9,1.4 -2.6,2.4 z"
           id="path77"
           inkscape:connector-curvature="0"
           style="fill:#f47878" /><path
           class="st2"
           d="m 712.9,768.8 c 0,0 0,0.1 -0.1,0.1 0,0 0.1,0 0.1,-0.1 0,0 0,0 0,0 z"
           id="path79"
           inkscape:connector-curvature="0"
           style="fill:#fff7ec" /><path
           class="st1"
           d="m 719.1,767 c -0.1,0.3 -0.3,0.7 -0.4,1 0,0.1 0,0.1 0.1,0.2 0,0 0,0.1 0,0.1 0,0.1 0,0.2 0,0.3 0,0.1 0,0.1 0,0.2 0,0.3 -0.2,0.7 -0.5,1 -0.8,1.3 -1.9,2.3 -3.3,2.9 -0.1,0.1 -0.2,0.2 -0.3,0.3 -0.5,0.4 -1,0.4 -1.4,0.3 -0.1,0 -0.1,0 -0.2,0 -0.8,0.1 -1.5,-0.4 -1.7,-1 -0.1,0.3 -0.1,0.6 0,0.9 0.3,1.8 1.7,1.8 0.2,4 -0.9,1.3 0.1,3 1.6,3 -0.1,0.2 -0.2,0.4 -0.3,0.6 -0.6,1 -0.4,2.4 0.8,2.9 0.1,0 0.4,0.1 0.8,0.2 -0.5,0.8 -1,2 -1.4,2.7 -0.9,1.6 1.5,3.2 2.9,2.1 0.1,-0.1 0.2,-0.2 0.4,-0.3 0.2,1.5 2.3,2.3 3.3,0.9 0,-0.1 0.1,-0.1 0.1,-0.2 1,0.9 2.7,0.1 3.1,-1.3 0.2,-0.9 0.4,-1.7 0.7,-2.5 0.9,0 1.6,-0.5 1.8,-1.6 0.3,-1.8 0,-2.8 -0.8,-4.3 l 0,0 c 0.1,0.1 0.2,0.2 0.4,0.4 1.3,1.2 3.7,-0.7 2.8,-2.2 -0.2,-0.3 -0.4,-0.6 -0.6,-0.8 1.1,-0.7 1.3,-2.9 -0.2,-3.3 -0.8,-0.2 -1.6,-0.5 -2.3,-0.8 1.4,-0.5 1.7,-2.5 0.1,-3.3 -1.1,-0.5 -2.3,-0.9 -3.6,-1.1 -0.1,-0.1 -0.3,-0.3 -0.4,-0.4 0,-0.1 -0.1,-0.2 -0.2,-0.3 -0.4,-0.6 -0.8,-1.1 -1.2,-1.3 -0.1,0.1 -0.2,0.4 -0.3,0.7 z"
           id="path81"
           inkscape:connector-curvature="0"
           style="fill:#f47878" /><path
           class="st1"
           d="m 691.2,184.4 c 1,0.1 2,0.1 3,0 2.2,1.4 5.4,0.9 7.8,-0.3 0.8,-0.4 1.1,-1.4 0.8,-2.2 1.1,0.1 2.3,-0.6 2.4,-1.7 1.6,-1.3 2.7,-2.9 2.6,-4.9 1.6,-0.7 1.6,-3.1 -0.3,-3.7 -0.4,-0.1 -1.4,-0.1 -2.6,-0.1 -1,-0.5 -2.2,-0.8 -3.4,-0.9 -0.6,-0.7 -1.8,-1.1 -2.6,-0.5 -0.5,-1.3 -2.1,-2 -3.2,-0.8 -0.6,0.6 -1.1,1.1 -1.7,1.7 -0.7,-0.6 -2,-0.4 -2.7,0.2 -0.1,-0.2 -0.3,-0.4 -0.4,-0.7 -0.7,-1.4 -3.2,-1 -3.4,0.5 -0.2,1.7 -0.3,3.3 -0.2,5 -1.1,1.2 -2.1,2.7 -2.1,4 0.4,0.1 0.7,0.2 1.1,0.4 2.3,0.5 4,2 4.9,4 z"
           id="path83"
           inkscape:connector-curvature="0"
           style="fill:#f47878" /><path
           class="st1"
           d="m 694.5,768.8 c -0.3,-0.8 -1.2,-1.2 -2,-1 -0.4,-0.7 -1.2,-1 -2.1,-0.8 -0.1,-0.3 -0.1,-0.6 -0.2,-1 -0.1,-1.3 -1.6,-1.9 -2.6,-1.5 -0.4,0.2 -0.8,0.4 -1.1,0.6 -0.6,-0.7 -1.7,-0.8 -2.7,-0.2 -0.1,0.1 -2.6,2.1 -2.2,2.3 -1.3,-0.9 -3.5,0.1 -3.1,1.9 -0.2,0.5 -0.3,0.9 -0.5,1.4 -1,0.5 -1.7,2 -0.8,3.1 0.5,0.5 1.1,1.1 1.6,1.6 -0.8,2.2 0.3,4.8 2.5,5 0.7,1.3 1.8,2.2 3.2,2.7 0.2,0.9 1.3,1.6 2.2,1.5 0.1,0 0.2,0 0.3,-0.1 0.7,-0.4 1.3,-0.8 2,-1.2 -0.2,-0.4 -0.3,-0.9 -0.2,-1.3 0,-1.1 0.8,-2.2 1.9,-2.9 1.2,-1.3 2.7,-2.3 4.5,-2.9 0,-0.6 0,-1.2 -0.2,-1.8 0.3,-1.9 0.2,-3.6 -0.5,-5.4 z"
           id="path85"
           inkscape:connector-curvature="0"
           style="fill:#f47878" /><path
           class="st1"
           d="m 665.5,804.5 c -0.3,0.1 -0.6,0 -0.9,-0.1 0,0.1 -0.1,0.1 -0.1,0.2 -1,1.1 -1.9,2.5 -2.3,3.8 -0.6,1.8 1.1,3.1 0,5.1 -0.7,1.2 -0.3,3 1.3,3.1 0.1,0.4 0.2,0.8 0.3,1.1 -0.2,0.3 -0.5,0.6 -0.7,1 -0.8,1.5 0,3.3 1.9,3.2 0,0 0.1,0 0.1,0 0,0.3 0,0.7 0,1 -0.1,1.5 1.8,2.9 3.1,1.9 0.8,1.3 3.2,1.4 3.6,-0.3 0.1,-0.5 0.3,-1 0.4,-1.5 1.3,0.4 2.9,-0.4 2.7,-2.1 -0.1,-0.9 -0.2,-1.9 -0.4,-2.8 0,0 0,-0.1 0,-0.1 0.1,-0.8 0.4,-1.4 1.4,-1.3 1.4,0.2 2.9,-1.5 2.1,-2.8 -0.5,-0.9 -0.9,-1.8 -1.2,-2.8 1,-0.5 1.6,-1.7 0.6,-2.7 1.2,-0.5 1.8,-2.4 0.4,-3.3 -1.3,-0.8 -2.6,-1.7 -3.9,-2.5 -0.2,-0.9 -0.5,-1.7 -0.7,-2.6 -2.1,2.3 -4.6,3.8 -7.7,4.5 z"
           id="path87"
           inkscape:connector-curvature="0"
           style="fill:#f47878" /><path
           class="st1"
           d="m 646.3,170.2 c -1.9,0.6 -3.5,1.6 -5.1,2.8 -0.9,0.7 -1.1,1.9 -0.5,2.7 -0.1,0.1 -0.2,0.1 -0.4,0.2 -0.9,0.5 -1.3,1.9 -0.6,2.8 0.3,0.5 0.8,1.2 1.5,1.5 -0.3,0.3 -0.5,0.6 -0.6,0.9 -0.4,0.7 -0.7,1.4 -0.5,2.3 0.1,0.5 1.7,2.8 1.5,3 -1.4,1.8 0.5,4.4 2.6,3.2 0.6,-0.4 1.3,-0.7 1.9,-1.1 0.1,0.6 0.2,1.2 0.4,1.8 0.2,1.2 1.6,1.6 2.6,1.4 1.7,-0.3 2,-2.6 3.7,-0.9 1,0.9 2.7,0.7 3.3,-0.5 0.6,-1 0.9,-2 1,-3.1 1.1,-0.1 2.2,-0.5 2.8,-1.6 0.5,-0.9 0.6,-1.8 0.5,-2.8 0,-0.2 -0.2,-0.6 -0.2,-0.9 0.1,-0.1 0.2,-0.2 0.5,-0.3 3.4,-1.8 0.6,-6.7 -2.2,-8.4 0,-0.1 0,-0.1 0,-0.2 -0.1,-0.3 -0.2,-0.6 -0.3,-0.8 -0.3,0.3 -0.7,0.6 -1.3,0.5 -0.3,0.1 -0.7,0.2 -1.1,0.1 -0.7,-0.1 -1.4,-0.3 -2,-0.5 -2.2,-0.5 -4.2,-1.5 -6,-2.8 -0.3,0.2 -0.5,0.5 -0.8,0.8 -0.3,-0.2 -0.5,-0.1 -0.7,-0.1 z"
           id="path89"
           inkscape:connector-curvature="0"
           style="fill:#f47878" /><path
           class="st1"
           d="m 638.1,151.5 c 0.1,0 0.2,0 0.2,-0.1 1.5,0.1 3.1,0 4.4,-0.5 1.8,-0.7 1.8,-2.8 4,-3.1 1.3,-0.2 2.6,-1.6 1.7,-3 0.2,-0.3 0.5,-0.6 0.7,-0.9 0.4,0 0.8,0 1.2,-0.1 1.7,-0.3 2.6,-2.1 1.3,-3.4 0,0 0,0 -0.1,-0.1 0.3,-0.2 0.5,-0.4 0.8,-0.6 1.3,-0.9 1.2,-3.2 -0.5,-3.6 0.5,-1.4 -0.8,-3.4 -2.4,-2.6 -0.5,0.2 -1,0.4 -1.5,0.6 -0.4,-1.3 -2.1,-2 -3.3,-0.8 -0.7,0.7 -1.3,1.3 -2,2 0,0 0,0 -0.1,0.1 -0.7,0.4 -1.4,0.5 -1.8,-0.3 -0.7,-1.2 -3,-1.3 -3.5,0.1 -0.4,1 -0.9,1.8 -1.5,2.6 -1,-0.4 -2.3,-0.2 -2.5,1.2 -1.2,-0.6 -3,0.1 -2.9,1.7 0.1,1.5 0.3,3.1 0.4,4.6 -0.6,0.7 -1.1,1.4 -1.6,2.2 3.1,0.2 5.8,1.3 8.2,3.3 0.5,0.1 0.7,0.4 0.8,0.7 z"
           id="path91"
           inkscape:connector-curvature="0"
           style="fill:#f47878" /><path
           class="st1"
           d="m 644.8,799.3 c 0.6,-1.9 0.9,-3.7 0.9,-5.7 0,-1.1 -0.8,-2.1 -1.9,-2.1 0,-0.2 0,-0.3 0,-0.4 0.1,-1 -0.7,-2.1 -1.8,-2.2 -0.6,0 -1.5,-0.1 -2.1,0.3 0,-0.4 -0.2,-0.8 -0.3,-1 -0.3,-0.8 -0.7,-1.4 -1.5,-1.8 -0.5,-0.3 -3.2,-0.4 -3.3,-0.6 -0.6,-2.2 -3.7,-2.3 -4.1,0.1 -0.1,0.7 -0.2,1.4 -0.3,2.1 -0.5,-0.3 -1.1,-0.6 -1.7,-0.8 -1.1,-0.5 -2.3,0.3 -2.7,1.2 -0.8,1.6 0.8,3.1 -1.5,3.5 -1.3,0.2 -2.2,1.7 -1.6,2.9 0.5,1.1 1.1,2 1.8,2.7 -0.6,1 -0.9,2 -0.4,3.3 0.3,0.9 1,1.6 1.9,2.1 0.2,0.1 0.6,0.2 0.9,0.4 0,0.1 0,0.3 -0.1,0.6 -0.6,3.8 4.9,4.7 8,3.4 0,0 0.1,0 0.1,0.1 0.3,0.1 0.6,0.2 0.8,0.3 0,-0.1 0,-0.2 0,-0.3 0,-0.4 0.1,-0.7 0.4,-1 0.1,-0.3 0.3,-0.7 0.6,-0.9 0.5,-0.5 1.1,-0.9 1.7,-1.2 1.7,-1.4 3.7,-2.4 5.9,-3 0,-0.4 -0.1,-0.7 -0.1,-1.1 0.2,-0.6 0.3,-0.7 0.4,-0.9 z"
           id="path93"
           inkscape:connector-curvature="0"
           style="fill:#f47878" /><path
           class="st1"
           d="m 606,825.9 c -0.7,0.7 -1.3,1.5 -1.9,2.4 -2.4,0.9 -4,3.7 -4.6,6.3 -0.2,0.9 0.4,1.7 1.2,2 -0.8,0.8 -0.9,2.2 -0.1,2.9 0.1,2 0.6,4 2.3,5.1 -0.5,1.7 1.5,3.2 3.1,2.1 0.3,-0.2 1,-1.1 1.7,-1.9 1,-0.5 2,-1.3 2.8,-2.1 1,-0.1 1.9,-0.7 2,-1.7 1.3,0.4 2.9,-0.4 2.6,-2.1 -0.1,-0.8 -0.2,-1.6 -0.2,-2.4 0.9,-0.2 1.6,-1.3 1.5,-2.2 0.3,0 0.5,0.1 0.8,0.1 1.5,0.3 2.7,-1.9 1.6,-3 -1.2,-1.2 -2.4,-2.3 -3.8,-3.3 -0.2,-1.6 -0.8,-3.3 -1.9,-4.1 -0.3,0.2 -0.6,0.4 -1,0.6 -1.8,1.4 -4,1.8 -6.1,1.3 z"
           id="path95"
           inkscape:connector-curvature="0"
           style="fill:#f47878" /><path
           class="st1"
           d="m 595.5,146.2 c -1.6,0.8 -2.8,2 -3.9,3.6 -0.5,0.7 -0.2,1.7 0.5,2.2 -0.3,0.8 0,1.6 0.6,2.1 -0.2,0.2 -0.4,0.5 -0.7,0.7 -0.9,0.8 -0.5,2.4 0.5,3 0.4,0.2 0.8,0.4 1.2,0.5 -0.2,0.9 0.4,1.9 1.4,2.2 0.1,0 3.2,0.7 3.2,0.3 0.1,1.6 2.3,2.6 3.4,1.3 0.5,-0.1 0.9,-0.3 1.4,-0.5 1.1,0.5 2.7,0.1 2.9,-1.3 0.1,-0.7 0.2,-1.5 0.2,-2.2 2.2,-0.7 3.6,-3.2 2.5,-5.1 0.6,-1.3 0.6,-2.8 0.1,-4.2 0.6,-0.8 0.5,-2 -0.2,-2.7 -0.1,-0.1 -0.2,-0.1 -0.2,-0.2 -0.7,-0.3 -1.5,-0.6 -2.2,-0.8 -0.2,0.4 -0.5,0.7 -0.9,1 -0.9,0.7 -2.2,0.7 -3.5,0.3 -1.8,-0.1 -3.5,-0.7 -5.1,-1.8 -0.5,0.6 -0.9,1.1 -1.2,1.6 z"
           id="path97"
           inkscape:connector-curvature="0"
           style="fill:#f47878" /><path
           class="st2"
           d="m 580.3,135.4 c 0.1,0 0.1,0 0.2,0 -0.1,0 -0.1,0 -0.2,0 l 0,0 z"
           id="path99"
           inkscape:connector-curvature="0"
           style="fill:#fff7ec" /><path
           class="st1"
           d="m 576.1,131.3 c 0,-0.1 0.1,-0.1 0.1,-0.2 0,0 0,-0.1 0.1,-0.1 0.1,-0.1 0.1,-0.1 0.2,-0.2 0.1,0 0.1,-0.1 0.2,-0.1 0.3,-0.2 0.6,-0.3 1.1,-0.2 1.5,-0.2 3,0.1 4.3,0.8 0.1,0 0.3,0 0.4,0.1 0.6,0.1 1,0.5 1.1,0.9 0.1,0.1 0.1,0.1 0.2,0.1 0.6,0.6 0.6,1.4 0.2,2 0.3,-0.1 0.5,-0.3 0.7,-0.5 1.3,-1.3 0.4,-2.4 3,-2.6 1.6,-0.1 2.4,-1.9 1.4,-3.1 0.2,0 0.4,-0.1 0.6,-0.1 1.2,-0.1 2.1,-1.2 1.7,-2.4 0,-0.1 -0.2,-0.4 -0.3,-0.8 0.9,-0.1 2.2,-0.4 3,-0.6 1.8,-0.3 1.6,-3.2 -0.1,-3.6 -0.2,0 -0.3,-0.1 -0.5,-0.1 1.1,-1.1 0.4,-3.2 -1.3,-3.2 -0.1,0 -0.1,0 -0.2,0 0.1,-1.3 -1.6,-2.2 -2.9,-1.6 -0.8,0.4 -1.6,0.7 -2.4,1 -0.5,-0.7 -1.4,-1 -2.4,-0.5 -1.6,0.9 -2.3,1.7 -2.9,3.3 l 0,0 c 0,-0.2 0,-0.3 0,-0.5 0.1,-1.8 -2.8,-2.5 -3.5,-0.8 -0.1,0.3 -0.2,0.6 -0.3,1 -1.2,-0.5 -3.1,0.7 -2.5,2.2 0.3,0.8 0.6,1.6 0.8,2.3 -1.2,-0.8 -3,0.2 -2.6,1.9 0.3,1.2 0.7,2.4 1.3,3.5 0,0.2 -0.1,0.4 -0.1,0.6 0,0.1 -0.1,0.2 -0.1,0.3 -0.2,0.7 -0.3,1.3 -0.3,1.8 0.2,-0.2 0.5,-0.4 0.8,-0.5 0.5,0.1 0.9,0 1.2,-0.1 z"
           id="path101"
           inkscape:connector-curvature="0"
           style="fill:#f47878" /><path
           class="st1"
           d="m 579.7,816.6 c 0.8,-1.8 1.1,-3.9 0.9,-6 -0.1,-1.5 -1.9,-2 -3,-1.2 0,0 0,0 0,0 -0.1,-0.2 -0.3,-0.5 -0.5,-0.7 -1,-1.1 -2,-1 -2.9,-0.7 -0.1,-0.8 -0.3,-1.7 -0.8,-2.4 -0.8,-1.2 -2.9,-1.3 -2.7,-2.4 0.5,-2.5 -3,-2.9 -4,-1 -0.6,1.1 -1,2.2 -1.3,3.4 -1.4,-0.4 -2.9,0.8 -2.7,2.3 0.1,0.6 0.1,1.3 0.2,1.9 -0.7,0.3 -1.3,0.9 -1.6,1.9 -0.2,0.7 -0.2,1.5 0.3,2.1 0.5,0.6 1.1,1.1 1.7,1.5 -0.7,0.7 -1.2,1.4 -1.1,2.8 0.2,2.4 1.7,5.1 2.9,7.2 1,1.9 3.6,1.3 3.9,-0.4 0.2,0.2 0.4,0.3 0.6,0.4 0.1,-0.2 0.1,-0.3 0.3,-0.5 1.3,-1.6 2.9,-2.5 4.6,-2.9 1.8,-0.9 3.8,-1.5 5.8,-1.8 -0.2,-1.1 -0.3,-2.3 -0.6,-3.5 z"
           id="path103"
           inkscape:connector-curvature="0"
           style="fill:#f47878" /><path
           class="st1"
           d="m 549.6,838.6 c -2.4,1.3 -5,0.5 -7.3,-0.4 -0.3,-0.1 -0.6,-0.4 -0.8,-0.6 -1,1 -1.9,2.1 -2.6,3.3 -0.8,0.9 -1.3,2.1 -1.8,3.8 -0.1,0.4 -0.1,0.8 0,1.2 0,0.3 -0.1,0.6 -0.1,0.9 -1.6,0.8 -1.5,3.1 0,3.6 -0.5,1.2 0.1,2.8 1.4,2.8 0.2,0.2 0.5,0.4 0.8,0.6 -0.8,1.5 0.5,3.8 2.4,2.8 0,-0.1 0,-0.3 0,-0.4 0.4,1.2 2.1,1.9 3.1,0.9 1.4,-1.3 2.6,-2.7 3.6,-4.4 0.3,-0.6 2.1,-4.3 1.9,-4.5 1.6,2 4.4,-0.3 3.1,-2.4 -0.2,-0.3 -0.3,-0.5 -0.4,-0.8 1.4,-0.1 2.7,-1.8 1.5,-3 -1,-1 -2,-2 -3,-2.9 0,-0.5 0.1,-1 0,-1.4 0,-0.2 -0.1,-0.5 -0.1,-0.7 -0.5,0.7 -1,1.2 -1.7,1.6 z"
           id="path105"
           inkscape:connector-curvature="0"
           style="fill:#f47878" /><path
           class="st1"
           d="m 544.9,125.3 c 0.4,0.2 0.6,0.4 0.7,0.7 0.2,-0.1 0.5,-0.2 0.7,-0.3 2.9,-1.1 4.1,-4.2 6.9,-5.5 1.6,-0.7 1.2,-3.2 -0.4,-3.6 -0.1,-0.5 -0.2,-1.1 -0.3,-1.6 1.8,-1.2 0.9,-4.3 -1.4,-3.7 -0.2,-0.5 -0.4,-1.1 -0.6,-1.6 1.7,-1.3 -0.1,-3.8 -1.9,-3.4 -1.7,0.4 -3.3,0.9 -4.7,1.9 -0.4,0.3 -0.9,0.7 -1.3,1.1 -0.7,0.7 -1.3,2.4 -1.5,0.7 0,-0.2 0,-0.3 0,-0.5 -0.4,-2.2 -4.2,-1.8 -3.9,0.4 0,0.2 0,0.3 0.1,0.5 0,0.1 0,0.1 0,0.1 0,1.1 -2,2.7 -2.3,3.8 -0.1,0.2 -0.1,0.5 -0.1,0.8 -1.1,-0.3 -2.3,0.3 -2.4,1.7 0,2.4 0.5,4.4 1.5,6.5 0,0.7 0,1.4 0.2,2 3.4,-1.6 7.2,-1.6 10.7,0 z"
           id="path107"
           inkscape:connector-curvature="0"
           style="fill:#f47878" /><path
           class="st1"
           d="m 527.2,830.4 c 0,0 0,0 0,0 0.4,-2.5 -0.2,-5 -1.6,-7.1 0.2,-1.4 0.2,-2.8 0.1,-4.3 -0.1,-1 -1,-1.6 -2,-1.6 -1.6,-1.3 -3.7,-1.2 -5.5,-0.3 -1,-1 -2.5,-1.5 -4.1,-1.1 -0.5,0.1 -0.8,0.4 -1.3,0.6 -0.3,0.1 -0.4,0.2 -0.4,0.3 -0.1,0 -0.2,0 -0.3,-0.1 -1.3,-0.4 -1.6,-1.2 -3.1,-1 -1.1,0.1 -1.9,1.2 -1.7,2.3 0.2,0.9 0.4,1.8 0.7,2.7 -0.4,0.1 -0.8,0.2 -1.3,0.4 -0.8,0.3 -1.4,1.3 -1.2,2.2 0.2,1 0.5,1.7 1.2,2.5 0.4,0.4 1.2,0.7 1.5,1.2 0.1,-0.1 0.2,-0.2 0.3,-0.3 -0.2,0.2 -0.3,0.5 -0.3,0.7 0.3,0.9 0,1.6 0.7,2.5 0.3,0.4 2.6,2.5 2.9,2 -0.9,1.3 -0.2,3.1 1.5,3.3 0.9,0.1 1.4,0.1 2.1,0.1 0.1,-0.5 0.5,-0.9 1,-1.2 1.3,-0.7 2.7,-1.2 4.2,-1.4 0,-0.2 0.1,-0.4 0.3,-0.6 0.9,-0.7 1.9,-0.7 2.7,-0.4 1.1,-0.3 2.2,-0.5 3.3,-0.6 0.1,-0.2 0.1,-0.5 0.2,-0.8 0,0.2 0.1,0.1 0.1,0 z m -14.4,-8.8 c 0,-0.1 -0.1,-0.2 -0.1,-0.3 0.1,0 0.3,-0.1 0.6,-0.2 -0.3,0.2 -0.4,0.3 -0.5,0.5 z"
           id="path109"
           inkscape:connector-curvature="0"
           style="fill:#f47878" /><path
           class="st1"
           d="m 506,135.9 c 0,0 0,0.1 0,0 -0.8,2.4 -0.6,5 0.4,7.3 -0.4,1.3 -0.7,2.7 -0.8,4.2 -0.1,1 0.8,1.8 1.7,1.9 1.4,1.6 3.5,1.8 5.3,1.2 0.8,1.2 2.2,1.9 3.9,1.7 0.5,-0.1 0.9,-0.3 1.4,-0.4 0.3,-0.1 0.4,-0.1 0.4,-0.2 0.1,0 0.1,0.1 0.2,0.1 1.2,0.6 1.4,1.4 2.9,1.5 1.1,0 2.1,-0.9 2.1,-2 0,-0.9 -0.1,-1.8 -0.2,-2.7 0.4,0 0.9,-0.1 1.3,-0.2 0.9,-0.2 1.6,-1.1 1.6,-2 0,-1 -0.2,-1.8 -0.7,-2.7 -0.3,-0.5 -1.1,-0.9 -1.3,-1.4 -0.1,0.1 -0.2,0.1 -0.4,0.2 0.2,-0.2 0.4,-0.4 0.4,-0.7 -0.1,-0.9 0.2,-1.6 -0.3,-2.6 -0.2,-0.5 -2.2,-2.9 -2.6,-2.5 1.1,-1.1 0.7,-3 -0.9,-3.5 -0.9,-0.3 -1.4,-0.4 -2.1,-0.5 -0.2,0.4 -0.6,0.8 -1.2,1 -1.4,0.5 -2.9,0.8 -4.4,0.7 -0.1,0.2 -0.2,0.4 -0.4,0.5 -1,0.6 -2,0.4 -2.8,-0.1 -1.1,0.1 -2.2,0.1 -3.4,0 -0.1,0.2 -0.2,0.5 -0.3,0.7 0.3,0.4 0.3,0.4 0.2,0.5 z m 12.8,11.1 c 0,0.1 0.1,0.2 0.1,0.3 -0.2,0 -0.4,0 -0.6,0.1 0.1,-0.1 0.3,-0.2 0.5,-0.4 z"
           id="path111"
           inkscape:connector-curvature="0"
           style="fill:#f47878" /><path
           class="st1"
           d="m 490.6,847.4 c -0.4,-0.1 -0.7,-0.3 -0.8,-0.6 -0.2,0.1 -0.5,0.2 -0.7,0.4 -2.6,1.6 -3.3,4.9 -5.9,6.6 -1.4,1 -0.7,3.4 1,3.5 0.2,0.5 0.4,1 0.6,1.5 -1.5,1.5 -0.2,4.4 2,3.4 0.3,0.5 0.6,1 0.9,1.5 -1.4,1.6 0.7,3.7 2.4,3 1.7,-0.6 3.1,-1.5 4.3,-2.7 0.4,-0.4 0.8,-0.8 1.1,-1.3 0.6,-0.8 0.9,-2.5 1.3,-1 0,0.2 0.1,0.3 0.1,0.5 0.7,2.1 4.4,1.1 3.8,-1.1 0,-0.2 -0.1,-0.3 -0.1,-0.5 0,0 0,0 0,0 -0.4,-1.1 1.4,-3 1.6,-4.3 0,-0.2 0,-0.5 0,-0.8 1.1,0.1 2.3,-0.7 2,-2.1 -0.4,-2.4 -1.2,-4.3 -2.6,-6.1 -0.1,-0.7 -0.2,-1.3 -0.5,-1.9 -3,2.3 -6.8,3 -10.5,2 z"
           id="path113"
           inkscape:connector-curvature="0"
           style="fill:#f47878" /><path
           class="st1"
           d="m 492.4,125.8 c 0.3,0.2 0.5,0.5 0.7,0.8 1.1,-0.8 2.2,-1.8 3.1,-2.9 1,-0.7 1.6,-1.8 2.4,-3.5 0.2,-0.4 0.2,-0.8 0.2,-1.1 0.1,-0.3 0.2,-0.6 0.3,-0.9 1.7,-0.5 2,-2.8 0.6,-3.6 0.7,-1.1 0.4,-2.8 -0.9,-3 -0.2,-0.3 -0.4,-0.5 -0.6,-0.7 1,-1.4 0.2,-3.9 -1.9,-3.2 0,0.1 0,0.3 0,0.4 -0.2,-1.2 -1.7,-2.2 -2.9,-1.5 -1.6,1.1 -3,2.2 -4.2,3.7 -0.4,0.5 -2.8,3.9 -2.6,4.1 -1.3,-2.2 -4.4,-0.4 -3.4,1.8 0.1,0.3 0.2,0.6 0.3,0.9 -1.4,-0.2 -3,1.3 -2,2.7 0.8,1.1 1.6,2.3 2.5,3.4 -0.1,0.5 -0.2,1 -0.3,1.4 0,0.2 0,0.5 0,0.7 0.4,-0.5 1,-0.9 1.8,-1.2 2.3,-0.8 4.8,0.4 6.9,1.7 z"
           id="path115"
           inkscape:connector-curvature="0"
           style="fill:#f47878" /><path
           class="st2"
           d="m 459.9,847.1 c 0,0 -0.1,0.1 -0.1,0.1 0,0 0,-0.1 0.1,-0.1 0,0 0,0 0,0 z"
           id="path117"
           inkscape:connector-curvature="0"
           style="fill:#fff7ec" /><path
           class="st1"
           d="m 466,849.4 c -0.3,0.2 -0.6,0.4 -0.9,0.5 0,0 0,0.1 -0.1,0.1 0,0 0,0 0,0.1 0,0 0,0.1 0,0.1 0,0 0,0 0,0.1 0,0.1 -0.1,0.1 -0.1,0.2 0,0.1 -0.1,0.1 -0.1,0.2 -0.2,0.2 -0.4,0.3 -0.7,0.4 -0.1,0 -0.2,0.1 -0.3,0.1 -0.3,0.1 -0.7,0.2 -1,0.3 -0.3,0.1 -0.7,0.1 -1,0.2 -0.1,0 -0.1,0 -0.2,0 -0.7,0.1 -1.4,0 -2.2,-0.1 -0.1,0 -0.3,0 -0.4,0 -0.2,0 -0.3,0 -0.4,0 -0.4,-0.1 -0.7,-0.3 -0.9,-0.6 0,0 0,0 -0.1,0 0,0 -0.1,0 -0.1,0 -0.4,-0.2 -0.6,-0.5 -0.7,-0.8 -0.1,-0.2 -0.1,-0.3 -0.1,-0.5 0,-0.2 0,-0.4 0.1,-0.5 -0.2,0.2 -0.4,0.4 -0.6,0.7 -0.9,1.6 0.3,2.4 -2.2,3.3 -1.5,0.5 -1.7,2.5 -0.5,3.4 -0.2,0.1 -0.4,0.2 -0.6,0.3 -1.1,0.4 -1.7,1.7 -1,2.8 0.1,0.1 0.3,0.4 0.5,0.7 -0.9,0.3 -2,1 -2.8,1.4 -1.7,0.8 -0.7,3.5 1.1,3.4 0.2,0 0.3,0 0.5,0 -0.7,1.4 0.4,3.2 2.1,2.7 0.1,0 0.1,-0.1 0.2,-0.1 0.3,1.3 2.2,1.7 3.2,0.8 0.7,-0.6 1.3,-1.1 2,-1.6 0.7,0.5 1.6,0.5 2.4,-0.2 1.3,-1.2 1.7,-2.3 1.9,-3.9 0,0.2 0.1,0.3 0.1,0.5 0.3,1.8 3.4,1.7 3.6,-0.1 0,-0.3 0,-0.7 0,-1 1.3,0.1 2.8,-1.5 1.8,-2.8 -0.5,-0.7 -0.9,-1.4 -1.4,-2 1.4,0.4 2.9,-1.1 2,-2.6 -0.6,-1.1 -1.3,-2.1 -2.2,-3 0,-0.2 0,-0.4 -0.1,-0.6 0,-0.1 0,-0.2 0,-0.3 0,-0.7 0,-1.3 -0.2,-1.8 -0.1,0.2 -0.2,0.3 -0.4,0.5 0,-0.5 -0.1,-0.4 -0.2,-0.3 z"
           id="path119"
           inkscape:connector-curvature="0"
           style="fill:#f47878" /><path
           class="st1"
           d="m 451.9,140.8 c -1.1,1.7 -1.7,3.7 -1.9,5.8 -0.2,1.5 1.6,2.3 2.7,1.7 0,0 0,0 0,0 0.1,0.2 0.2,0.5 0.4,0.7 0.8,1.3 1.8,1.3 2.8,1.2 -0.1,0.8 0,1.7 0.4,2.5 0.6,1.4 2.6,1.8 2.2,2.8 -0.9,2.4 2.5,3.4 3.8,1.6 0.7,-1 1.3,-2 1.9,-3.1 1.3,0.7 3,-0.3 3.1,-1.9 0,-0.6 0.1,-1.3 0.1,-1.9 0.7,-0.2 1.4,-0.7 1.9,-1.6 0.3,-0.6 0.4,-1.5 0,-2.1 -0.4,-0.7 -0.9,-1.2 -1.4,-1.8 0.8,-0.6 1.5,-1.2 1.6,-2.6 0.2,-2.4 -0.8,-5.4 -1.6,-7.6 -0.7,-2 -3.3,-1.8 -3.9,-0.2 -0.2,-0.2 -0.3,-0.4 -0.5,-0.5 -0.1,0.2 -0.2,0.3 -0.3,0.4 -1.5,1.3 -3.2,2 -5,2.1 -1.9,0.6 -3.9,0.9 -6,0.8 -0.3,1.3 -0.4,2.5 -0.3,3.7 z"
           id="path121"
           inkscape:connector-curvature="0"
           style="fill:#f47878" /><path
           class="st1"
           d="m 445.1,836.3 c 0.2,-0.8 -0.3,-1.7 -1.1,-2 0.1,-0.8 -0.4,-1.5 -1.2,-1.8 0.1,-0.3 0.3,-0.6 0.5,-0.9 0.7,-1.1 -0.1,-2.5 -1.3,-2.8 -0.4,-0.1 -0.9,-0.2 -1.3,-0.2 -0.1,-0.9 -0.9,-1.7 -2,-1.8 -0.1,0 -3.3,0.1 -3.1,0.6 -0.5,-1.6 -2.9,-1.9 -3.6,-0.3 -0.4,0.3 -0.8,0.6 -1.2,0.8 -1.2,-0.2 -2.6,0.6 -2.4,2 0.1,0.7 0.2,1.5 0.4,2.2 -1.9,1.3 -2.6,4.1 -1,5.5 -0.2,1.5 0.1,2.9 1,4.1 -0.3,0.9 0.1,2.1 0.9,2.5 0.1,0 0.2,0.1 0.3,0.1 0.8,0.1 1.6,0.1 2.3,0.2 0.1,-0.4 0.3,-0.9 0.6,-1.2 0.2,-0.2 0.4,-0.4 0.6,-0.6 0.7,-0.5 1.7,-0.7 2.6,-0.7 0.9,-0.2 1.8,-0.3 2.7,-0.2 0.9,0.1 1.8,0.2 2.7,0.5 0.4,-0.5 0.7,-1 0.9,-1.6 1.3,-1.1 2.1,-2.6 2.7,-4.4 z"
           id="path123"
           inkscape:connector-curvature="0"
           style="fill:#f47878" /><path
           class="st1"
           d="m 427.6,127.3 c 0.8,-0.6 1.6,-1.3 2.3,-2 2.5,-0.5 4.6,-3 5.6,-5.5 0.3,-0.8 -0.1,-1.7 -0.9,-2.2 0.9,-0.6 1.3,-2 0.6,-2.8 0.3,-2 0,-4 -1.4,-5.4 0.7,-1.6 -0.9,-3.4 -2.7,-2.6 -0.3,0.2 -1.2,0.9 -2,1.6 -1.1,0.3 -2.2,0.9 -3.1,1.6 -0.9,-0.1 -2,0.4 -2.2,1.4 -1.2,-0.6 -2.9,-0.1 -2.9,1.6 0,0.8 -0.1,1.6 -0.2,2.4 -0.9,0.1 -1.8,1 -1.9,1.9 -0.2,-0.1 -0.5,-0.1 -0.7,-0.2 -1.4,-0.6 -3,1.4 -2.1,2.7 1,1.4 2,2.7 3.2,3.9 0,1.7 0.3,3.4 1.2,4.4 0.3,-0.2 0.7,-0.3 1.1,-0.4 1.8,-1.2 4.1,-1.3 6.1,-0.4 z"
           id="path125"
           inkscape:connector-curvature="0"
           style="fill:#f47878" /><path
           class="st1"
           d="m 401.3,848.2 c -0.2,-0.1 -0.4,-0.2 -0.6,-0.2 -0.3,-0.1 -0.5,-0.3 -0.7,-0.6 -0.1,0 -0.1,0.1 -0.2,0.1 -1.5,0.3 -3,0.9 -4.1,1.7 -1.6,1.1 -1,3.2 -3,4.1 -1.2,0.6 -2,2.3 -0.8,3.3 -0.1,0.3 -0.3,0.7 -0.4,1.1 -0.4,0.1 -0.8,0.2 -1.2,0.4 -1.5,0.7 -1.9,2.7 -0.3,3.7 0,0 0.1,0 0.1,0 -0.2,0.3 -0.4,0.6 -0.6,0.8 -1,1.2 -0.3,3.4 1.4,3.3 -0.1,1.5 1.7,3 3.1,1.9 0.4,-0.3 0.8,-0.7 1.2,-0.9 0.8,1.1 2.5,1.4 3.4,-0.1 0.4,-0.8 0.9,-1.7 1.4,-2.5 0,0 0,-0.1 0,-0.1 0.5,-0.6 1.2,-0.9 1.8,-0.2 1,1 3.2,0.5 3.4,-1 0.1,-1.1 0.3,-2 0.7,-2.9 1.1,0.2 2.2,-0.4 2.1,-1.8 1.3,0.3 2.9,-0.9 2.3,-2.4 -0.6,-1.4 -1.1,-2.9 -1.7,-4.4 0.3,-0.8 0.7,-1.7 0.9,-2.5 -2.9,0.4 -5.6,0.2 -8.2,-0.8 z"
           id="path127"
           inkscape:connector-curvature="0"
           style="fill:#f47878" /><path
           class="st1"
           d="m 384.9,147.1 c -0.9,1.7 -1.5,3.5 -1.9,5.5 -0.2,1.1 0.4,2.2 1.5,2.4 0,0.1 -0.1,0.3 -0.1,0.4 -0.3,1 0.3,2.2 1.4,2.5 0.6,0.1 1.4,0.3 2.1,0.1 0,0.4 0,0.8 0.1,1.1 0.2,0.8 0.5,1.5 1.1,2 0.4,0.3 3.1,0.9 3.1,1.2 0.2,2.3 3.3,2.9 4.1,0.6 0.2,-0.7 0.5,-1.4 0.7,-2.1 0.5,0.4 1,0.7 1.5,1.1 1,0.7 2.3,0.1 2.9,-0.7 1,-1.4 -0.3,-3.2 2.1,-3.2 1.4,0 2.4,-1.3 2.1,-2.6 -0.3,-1.2 -0.7,-2.1 -1.3,-3 0.7,-0.8 1.2,-1.9 1,-3.1 -0.2,-1 -0.8,-1.7 -1.5,-2.4 -0.2,-0.2 -0.5,-0.3 -0.8,-0.5 0,-0.1 0.1,-0.3 0.2,-0.5 1.3,-3.6 -4.1,-5.4 -7.3,-4.7 0,0 -0.1,-0.1 -0.1,-0.1 -0.3,-0.2 -0.5,-0.3 -0.8,-0.4 0,0.5 -0.2,0.9 -0.6,1.3 -0.1,0.3 -0.4,0.6 -0.8,0.8 -0.6,0.4 -1.2,0.7 -1.9,0.9 -1.9,1.1 -4.1,1.7 -6.3,1.9 0,0.4 -0.1,0.7 -0.1,1.1 -0.2,0 -0.3,0.2 -0.4,0.4 z"
           id="path129"
           inkscape:connector-curvature="0"
           style="fill:#f47878" /><path
           class="st1"
           d="m 366.2,138.7 c 0,-0.1 0.1,-0.1 0.1,-0.2 1.2,-0.9 2.3,-2.1 2.9,-3.4 0.9,-1.7 -0.6,-3.3 0.8,-5 0.8,-1 0.8,-2.9 -0.8,-3.3 0,-0.4 0,-0.8 -0.1,-1.2 0.3,-0.3 0.6,-0.5 0.9,-0.9 1.1,-1.3 0.5,-3.3 -1.3,-3.4 0,0 -0.1,0 -0.1,0 0.1,-0.3 0.1,-0.7 0.2,-1 0.3,-1.5 -1.3,-3.2 -2.8,-2.4 -0.6,-1.4 -2.9,-1.9 -3.6,-0.3 -0.2,0.5 -0.4,1 -0.7,1.4 -1.2,-0.6 -2.9,-0.1 -3,1.6 0,0.9 -0.1,1.9 -0.1,2.8 l 0,0.1 c -0.2,0.8 -0.6,1.3 -1.6,1 -1.3,-0.5 -3.1,1 -2.5,2.4 0.4,1 0.6,2 0.7,2.9 -1.1,0.4 -1.8,1.4 -1.1,2.6 -1.3,0.3 -2.1,2.1 -1,3.2 1.1,1 2.3,2.1 3.5,3.1 0.1,0.9 0.2,1.8 0.3,2.7 2.4,-1.9 5.2,-2.9 8.3,-3.1 0.4,0.2 0.7,0.3 1,0.4 z"
           id="path131"
           inkscape:connector-curvature="0"
           style="fill:#f47878" /><path
           class="st2"
           d="m 355.4,830.9 c 0,0 -0.1,0 -0.2,0 0,0 0.1,0.1 0.2,0 l 0,0 z"
           id="path133"
           inkscape:connector-curvature="0"
           style="fill:#fff7ec" /><path
           class="st1"
           d="m 358.8,835.6 c 0,0.1 -0.1,0.1 -0.1,0.2 0,0 -0.1,0.1 -0.1,0.1 -0.1,0.1 -0.1,0.1 -0.2,0.2 -0.1,0 -0.1,0.1 -0.2,0.1 -0.3,0.1 -0.7,0.1 -1.1,0.1 -1.5,-0.1 -2.9,-0.6 -4.1,-1.4 -0.1,0 -0.2,-0.1 -0.4,-0.1 -0.6,-0.2 -0.9,-0.6 -1,-1.1 0,0 -0.1,-0.1 -0.1,-0.1 -0.5,-0.7 -0.4,-1.5 0.1,-2 -0.3,0.1 -0.6,0.2 -0.8,0.4 -1.5,1.1 -0.7,2.3 -3.4,2.1 -1.6,-0.2 -2.6,1.5 -1.8,2.9 -0.2,0 -0.4,0 -0.6,0 -1.2,-0.1 -2.3,0.8 -2.1,2.1 0,0.1 0.1,0.4 0.2,0.8 -0.9,-0.1 -2.2,0.1 -3.1,0.1 -1.9,0 -2.1,2.9 -0.5,3.5 0.2,0.1 0.3,0.1 0.5,0.2 -1.2,0.9 -0.9,3.1 0.8,3.3 0.1,0 0.1,0 0.2,0 -0.3,1.3 1.2,2.4 2.6,2 0.8,-0.2 1.7,-0.4 2.5,-0.6 0.4,0.8 1.3,1.2 2.3,0.8 1.7,-0.6 2.5,-1.4 3.4,-2.8 0,0 0,0 0,0 0,0.2 -0.1,0.3 -0.1,0.5 -0.4,1.8 2.4,3 3.3,1.4 0.2,-0.3 0.3,-0.6 0.4,-0.9 1.1,0.7 3.1,-0.2 2.8,-1.8 -0.2,-0.8 -0.3,-1.6 -0.4,-2.4 1.1,1 3,0.2 2.9,-1.5 -0.1,-1.2 -0.3,-2.5 -0.7,-3.7 0.1,-0.2 0.1,-0.4 0.1,-0.6 0.1,-0.1 0.1,-0.2 0.2,-0.3 0.3,-0.7 0.5,-1.2 0.6,-1.7 -0.2,0.2 -0.5,0.3 -0.9,0.4 -0.4,-0.2 -0.8,-0.2 -1.2,-0.2 z"
           id="path135"
           inkscape:connector-curvature="0"
           style="fill:#f47878" /><path
           class="st1"
           d="m 331.1,163.6 c -0.6,1.7 -0.7,3.4 -0.4,5.3 0.1,0.9 1,1.4 1.8,1.3 0.3,0.8 1.1,1.2 1.9,1.1 0,0.3 0,0.7 0,1 -0.1,1.2 1.2,2.2 2.4,1.9 0.4,-0.1 0.8,-0.2 1.2,-0.4 0.5,0.8 1.6,1.1 2.6,0.7 0.1,-0.1 2.9,-1.6 2.5,-1.9 1.2,1.1 3.4,0.4 3.4,-1.3 0.2,-0.4 0.5,-0.9 0.7,-1.3 1.1,-0.4 2,-1.7 1.3,-2.9 -0.4,-0.6 -0.8,-1.2 -1.3,-1.8 1.1,-2 0.5,-4.8 -1.6,-5.4 -0.4,-1.4 -1.4,-2.5 -2.7,-3.2 -0.1,-1 -1,-1.8 -2,-1.8 -0.1,0 -0.2,0 -0.3,0 -0.7,0.3 -1.4,0.6 -2.2,0.9 0.1,0.4 0.1,0.9 0,1.3 -0.2,1.1 -1.1,2 -2.3,2.6 -1.4,1.1 -3.1,1.8 -5,2.1 -0.1,0.5 -0.1,1.1 0,1.8 z"
           id="path137"
           inkscape:connector-curvature="0"
           style="fill:#f47878" /><path
           class="st1"
           d="m 346.4,814.9 c 0.6,-0.7 0.4,-1.6 -0.1,-2.3 0.4,-0.7 0.2,-1.6 -0.3,-2.2 0.2,-0.2 0.5,-0.4 0.8,-0.6 1,-0.7 0.9,-2.3 0,-3 -0.3,-0.3 -0.7,-0.5 -1.1,-0.7 0.3,-0.9 -0.1,-1.9 -1.1,-2.5 -0.1,-0.1 -3.1,-1.2 -3.1,-0.8 0.2,-1.6 -1.8,-3 -3.2,-1.8 -0.5,0.1 -1,0.2 -1.5,0.2 -1,-0.6 -2.6,-0.5 -3,0.8 -0.2,0.7 -0.4,1.4 -0.6,2.2 -2.3,0.4 -4,2.6 -3.2,4.6 -0.8,1.2 -1.1,2.7 -0.8,4.1 -0.7,0.7 -0.8,1.9 -0.2,2.7 0.1,0.1 0.1,0.2 0.2,0.2 0.7,0.4 1.3,0.8 2,1.1 0.2,-0.4 0.6,-0.7 1.1,-0.8 1,-0.6 2.3,-0.3 3.5,0.2 1.8,0.4 3.4,1.3 4.7,2.6 0.6,-0.3 1.1,-0.6 1.5,-1.1 1.7,-0.5 3.2,-1.5 4.4,-2.9 z"
           id="path139"
           inkscape:connector-curvature="0"
           style="fill:#f47878" /><path
           class="st2"
           d="m 312.7,165.8 c 0,0 0.1,-0.1 0.1,-0.1 -0.1,0 -0.1,0 -0.1,0.1 0,0 0,0 0,0 z"
           id="path141"
           inkscape:connector-curvature="0"
           style="fill:#fff7ec" /><path
           class="st1"
           d="m 306.8,165.6 c 0,-0.1 0,-0.1 0,-0.2 0,0 0,-0.1 0,-0.1 0,-0.1 0,-0.2 0,-0.3 0,-0.1 0,-0.1 0,-0.2 0.1,-0.3 0.3,-0.6 0.6,-0.9 1,-1.2 2.3,-2 3.7,-2.3 0.1,-0.1 0.2,-0.1 0.3,-0.2 0.5,-0.3 1,-0.3 1.5,-0.1 0.1,0 0.1,0 0.2,0 0.8,0 1.4,0.6 1.5,1.3 0.1,-0.3 0.2,-0.6 0.2,-0.9 0,-1.9 -1.3,-2 0.5,-3.9 1.1,-1.1 0.4,-3 -1.1,-3.2 0.1,-0.2 0.2,-0.3 0.4,-0.5 0.8,-0.9 0.8,-2.3 -0.3,-3 -0.1,-0.1 -0.4,-0.2 -0.8,-0.3 0.7,-0.7 1.3,-1.8 1.8,-2.5 1.1,-1.5 -1,-3.4 -2.5,-2.6 -0.1,0.1 -0.3,0.2 -0.4,0.2 0,-1.5 -1.8,-2.7 -3.1,-1.4 0,0 -0.1,0.1 -0.1,0.1 -0.8,-1 -2.7,-0.5 -3.2,0.7 -0.3,0.8 -0.7,1.6 -1.1,2.4 -0.9,-0.1 -1.7,0.3 -2.1,1.3 -0.6,1.7 -0.5,2.8 0,4.4 -0.1,-0.1 -0.2,-0.3 -0.3,-0.4 -1.1,-1.4 -3.8,0 -3.2,1.7 0.1,0.3 0.3,0.6 0.5,0.9 -1.2,0.5 -1.8,2.6 -0.3,3.3 0.7,0.4 1.5,0.8 2.1,1.2 -1.5,0.3 -2.1,2.2 -0.6,3.2 1,0.7 2.1,1.3 3.3,1.7 0.1,0.2 0.2,0.3 0.3,0.5 0,0.1 0.1,0.2 0.1,0.3 0.3,0.7 0.6,1.2 1,1.5 0,-0.3 0.1,-0.6 0.3,-0.9 0.4,-0.2 0.6,-0.5 0.8,-0.8 z"
           id="path143"
           inkscape:connector-curvature="0"
           style="fill:#f47878" /><path
           class="st1"
           d="m 301.2,806.9 c -0.2,-0.2 -0.3,-0.5 -0.4,-0.8 -0.1,0 -0.1,0 -0.2,0 -1.4,-0.4 -3.1,-0.4 -4.4,-0.2 -1.9,0.4 -2.2,2.5 -4.4,2.5 -1.3,0 -2.8,1.2 -2.1,2.7 -0.3,0.2 -0.6,0.5 -0.9,0.8 -0.4,-0.1 -0.8,-0.1 -1.2,-0.1 -1.7,0 -2.9,1.7 -1.8,3.2 0,0 0,0 0,0.1 -0.3,0.2 -0.6,0.3 -0.9,0.5 -1.4,0.7 -1.7,3 -0.1,3.6 -0.7,1.3 0.3,3.5 2,3 0.5,-0.1 1,-0.2 1.5,-0.3 0.2,1.3 1.7,2.3 3.1,1.3 0.8,-0.6 1.5,-1.1 2.3,-1.7 0,0 0,0 0.1,-0.1 0.7,-0.3 1.4,-0.3 1.8,0.6 0.5,1.3 2.7,1.8 3.5,0.4 0.5,-0.9 1.2,-1.7 1.9,-2.4 0.9,0.6 2.2,0.6 2.7,-0.7 1.1,0.8 3,0.3 3.1,-1.2 0.1,-1.6 0.2,-3.1 0.3,-4.7 0.7,-0.6 1.3,-1.3 1.9,-1.9 -3.2,-0.8 -5.8,-2.3 -7.8,-4.6 z"
           id="path145"
           inkscape:connector-curvature="0"
           style="fill:#f47878" /><path
           class="st1"
           d="m 295.6,786.3 c 2,-0.4 3.7,-1 5.5,-2 1,-0.5 1.4,-1.7 0.9,-2.6 0.1,0 0.3,-0.1 0.4,-0.2 1,-0.4 1.5,-1.6 1.1,-2.6 -0.3,-0.5 -0.7,-1.3 -1.2,-1.7 0.3,-0.2 0.6,-0.5 0.8,-0.8 0.5,-0.6 0.9,-1.3 0.9,-2.2 0,-0.5 -1.2,-3 -1,-3.2 1.7,-1.6 0.2,-4.4 -2.1,-3.6 -0.7,0.2 -1.4,0.5 -2.1,0.8 0,-0.6 0,-1.2 -0.1,-1.9 0,-1.2 -1.3,-1.8 -2.4,-1.8 -1.8,0.1 -2.4,2.2 -3.8,0.4 -0.8,-1.1 -2.5,-1.1 -3.4,0 -0.7,1 -1.2,1.9 -1.5,2.9 -1.1,-0.1 -2.2,0.2 -3.1,1.2 -0.6,0.8 -0.9,1.7 -0.9,2.7 0,0.2 0.1,0.6 0.1,1 -0.1,0 -0.3,0.1 -0.5,0.2 -3.6,1.3 -1.7,6.6 0.9,8.6 0,0 0,0.1 0,0.2 0,0.3 0.1,0.6 0.2,0.9 0.4,-0.3 0.8,-0.5 1.3,-0.4 l 0,0 c 0.3,-0.1 0.7,-0.1 1.1,0.1 0.7,0.2 1.3,0.5 1.9,0.9 2.1,0.8 3.9,2.1 5.5,3.7 0.3,-0.2 0.6,-0.4 0.9,-0.6 0.2,0 0.4,0 0.6,0 z"
           id="path147"
           inkscape:connector-curvature="0"
           style="fill:#f47878" /><path
           class="st1"
           d="m 263.6,217.5 c 0,0 0,0 0,0 1.1,2.2 3.2,3.9 5.5,4.8 0.7,1.2 1.4,2.3 2.4,3.5 0.7,0.8 1.8,0.7 2.5,0.1 2.1,0.1 3.7,-1.2 4.6,-3 1.4,0.3 2.9,-0.2 3.9,-1.6 0.3,-0.4 0.4,-0.9 0.7,-1.3 0.1,-0.2 0.2,-0.4 0.1,-0.4 0.1,0 0.2,0 0.3,-0.1 1.2,-0.4 2,0 3.1,-1 0.8,-0.7 0.8,-2.1 0,-2.9 -0.7,-0.7 -1.4,-1.2 -2.1,-1.8 0.3,-0.3 0.5,-0.7 0.8,-1.1 0.5,-0.7 0.3,-1.9 -0.3,-2.5 -0.7,-0.7 -1.4,-1.1 -2.4,-1.3 -0.6,-0.1 -1.4,0.1 -1.9,-0.1 0,0.1 -0.1,0.3 -0.1,0.4 0,-0.3 0,-0.5 -0.2,-0.8 -0.7,-0.5 -1,-1.3 -2.1,-1.6 -0.5,-0.2 -3.6,-0.4 -3.6,0.1 -0.1,-1.6 -1.7,-2.6 -3.1,-1.8 -0.8,0.5 -1.3,0.7 -1.8,1.2 0.2,0.4 0.2,1 -0.1,1.6 -0.6,1.4 -1.5,2.6 -2.5,3.7 0.1,0.2 0.1,0.4 0.1,0.6 -0.3,1.1 -1,1.7 -2,1.9 -0.7,0.9 -1.5,1.7 -2.3,2.4 0.1,0.2 0.2,0.5 0.3,0.7 0.1,0.1 0.1,0.2 0.2,0.3 z m 16.8,-1.4 c 0.1,0.1 0.2,0.1 0.3,0.1 -0.1,0.1 -0.2,0.3 -0.3,0.5 0,-0.2 0,-0.4 0,-0.6 z"
           id="path149"
           inkscape:connector-curvature="0"
           style="fill:#f47878" /><path
           class="st1"
           d="m 283,182.2 c 0.4,-0.2 0.7,-0.1 1,0 0.1,-0.2 0.2,-0.5 0.3,-0.7 1.2,-2.9 -0.2,-5.9 0.9,-8.8 0.6,-1.6 -1.5,-3.1 -2.9,-2.2 -0.5,-0.3 -0.9,-0.6 -1.4,-0.9 0.4,-2.1 -2.5,-3.7 -3.6,-1.5 -0.5,-0.2 -1.1,-0.4 -1.6,-0.6 0.2,-2.1 -2.8,-2.6 -3.7,-1 -0.9,1.5 -1.6,3 -1.9,4.7 -0.1,0.5 -0.2,1.1 -0.2,1.7 0,1 0.8,2.6 -0.5,1.6 l 0,0 c -0.1,-0.1 -0.2,-0.2 -0.4,-0.3 -1.8,-1.3 -4.2,1.7 -2.4,3.1 0.1,0.1 0.3,0.2 0.4,0.3 l 0,0 c 0.9,0.6 0.6,3.3 1.2,4.4 0.1,0.2 0.3,0.4 0.5,0.6 -1,0.6 -1.4,1.9 -0.4,2.9 1.7,1.7 3.5,2.7 5.7,3.4 0.5,0.5 1,0.9 1.6,1.3 1.2,-3.9 3.9,-6.6 7.4,-8 z"
           id="path151"
           inkscape:connector-curvature="0"
           style="fill:#f47878" /><path
           class="st1"
           d="m 253.5,765.3 c -1,-0.2 -2,-0.4 -3,-0.5 -2,-1.7 -5.2,-1.7 -7.8,-0.9 -0.9,0.3 -1.3,1.2 -1.2,2 -1.1,-0.3 -2.3,0.2 -2.6,1.3 -1.7,1 -3.2,2.5 -3.3,4.5 -1.7,0.4 -2.1,2.8 -0.3,3.7 0.3,0.2 1.4,0.4 2.5,0.5 0.9,0.7 2.1,1.1 3.2,1.4 0.5,0.8 1.6,1.3 2.4,0.9 0.3,1.3 1.7,2.3 3.1,1.3 0.6,-0.5 1.3,-1 2,-1.4 0.6,0.7 1.9,0.7 2.7,0.2 0.1,0.2 0.2,0.5 0.3,0.7 0.5,1.5 3,1.5 3.4,0 0.5,-1.6 0.8,-3.3 1,-4.9 1.3,-1 2.5,-2.3 2.7,-3.7 -0.3,-0.2 -0.7,-0.4 -1,-0.6 -2.1,-0.7 -3.5,-2.4 -4.1,-4.5 z"
           id="path153"
           inkscape:connector-curvature="0"
           style="fill:#f47878" /><path
           class="st1"
           d="m 254.5,735.7 c 1.2,-0.8 0.8,-2.7 -0.4,-3.2 0,0 0,0 0,0 0.1,-0.2 0.3,-0.5 0.4,-0.8 0.5,-1.4 -0.1,-2.2 -0.8,-2.9 0.7,-0.5 1.3,-1.1 1.7,-1.9 0.7,-1.3 -0.3,-3.2 0.8,-3.5 2.4,-0.8 1.1,-4.1 -1.1,-4 -1.3,0.1 -2.4,0.2 -3.6,0.5 -0.3,-1.4 -2.1,-2.1 -3.4,-1.2 -0.5,0.4 -1,0.7 -1.6,1.1 -0.6,-0.5 -1.4,-0.7 -2.4,-0.5 -0.7,0.1 -1.4,0.6 -1.7,1.3 -0.3,0.7 -0.4,1.5 -0.5,2.2 -1,-0.3 -1.9,-0.4 -3,0.4 -2,1.3 -3.7,4 -4.9,6 -1.1,1.8 0.6,3.7 2.2,3.2 0,0.2 -0.1,0.5 -0.1,0.7 0.2,0 0.4,0 0.6,0 2,0.3 3.6,1.3 4.8,2.6 1.7,1.1 3.1,2.5 4.4,4.2 1.1,-0.5 2.1,-1.1 3,-2 1.9,-0.3 3.8,-1 5.6,-2.2 z"
           id="path155"
           inkscape:connector-curvature="0"
           style="fill:#f47878" /><path
           class="st1"
           d="m 240.7,224.2 c 1.1,-2.4 3.7,-3.3 6.1,-4 0.4,-0.1 0.7,0 1,0 0.2,-1.4 0.2,-2.8 0.1,-4.2 0.2,-1.2 -0.2,-2.4 -0.8,-4.1 -0.2,-0.4 -0.4,-0.7 -0.7,-0.9 -0.1,-0.3 -0.3,-0.6 -0.4,-0.8 0.8,-1.5 -0.6,-3.4 -2.1,-2.9 -0.3,-1.2 -1.7,-2.2 -2.8,-1.5 -0.3,-0.1 -0.6,-0.1 -1,-0.1 -0.3,-1.7 -2.6,-2.8 -3.6,-0.9 0.1,0.1 0.2,0.2 0.3,0.3 -1,-0.7 -2.8,-0.3 -3.1,1.1 -0.3,1.9 -0.5,3.7 -0.3,5.6 0.1,0.7 0.9,4.7 1.1,4.8 -2.5,-0.6 -3.3,2.9 -1,3.7 0.3,0.1 0.6,0.2 0.8,0.4 -1.1,0.9 -1.1,3.1 0.6,3.3 1.4,0.2 2.8,0.4 4.1,0.6 0.3,0.5 0.5,0.9 0.8,1.2 0.2,0.2 0.3,0.3 0.5,0.5 -0.1,-0.7 0.1,-1.4 0.4,-2.1 z"
           id="path157"
           inkscape:connector-curvature="0"
           style="fill:#f47878" /><path
           class="st1"
           d="m 229.4,259.7 c 0.4,2 1.4,3.8 2.8,5.4 0.9,1.1 2.7,0.4 3.1,-0.8 0,0 0,0 0,0 0.2,0.1 0.5,0.2 0.8,0.2 1.5,0.3 2.2,-0.3 2.8,-1.1 0.6,0.6 1.2,1.1 2.1,1.4 1.4,0.5 3.1,-0.6 3.6,0.4 1.1,2.3 4.2,0.6 3.8,-1.6 -0.2,-1.2 -0.5,-2.4 -0.9,-3.5 1.4,-0.5 1.9,-2.4 0.8,-3.5 -0.4,-0.5 -0.9,-1 -1.3,-1.4 0.4,-0.7 0.5,-1.5 0.2,-2.5 -0.2,-0.7 -0.7,-1.3 -1.5,-1.5 -0.8,-0.2 -1.5,-0.2 -2.3,-0.2 0.1,-1 0.1,-1.9 -0.8,-3 -1.5,-1.8 -4.4,-3.1 -6.5,-4.1 -1.9,-0.9 -3.6,1.1 -2.9,2.6 -0.2,0 -0.5,0 -0.8,0 0,0.2 0.1,0.3 0.1,0.5 -0.1,2 -0.8,3.7 -2,5.1 -0.9,1.8 -2.1,3.4 -3.6,4.9 0.7,1 1.5,2 2.5,2.7 z"
           id="path159"
           inkscape:connector-curvature="0"
           style="fill:#f47878" /><path
           class="st1"
           d="m 211.8,715.6 c 0,-0.4 0,-0.7 0.2,-1 -1.3,-0.4 -2.8,-0.6 -4.2,-0.6 -1.1,-0.3 -2.4,-0.1 -4.2,0.3 -0.4,0.1 -0.8,0.3 -1,0.5 -0.3,0.1 -0.6,0.2 -0.9,0.3 -1.4,-1 -3.4,0.2 -3.2,1.8 -1.3,0.2 -2.4,1.5 -1.8,2.6 -0.1,0.3 -0.2,0.6 -0.2,1 -1.7,0.1 -3.1,2.3 -1.3,3.5 0.1,-0.1 0.2,-0.1 0.3,-0.2 -0.8,0.9 -0.6,2.8 0.7,3.2 1.8,0.6 3.6,1 5.5,1 0.7,0 4.8,-0.3 4.9,-0.5 -0.9,2.4 2.4,3.7 3.6,1.5 0.2,-0.3 0.3,-0.5 0.5,-0.8 0.8,1.2 2.9,1.5 3.4,-0.2 0.4,-1.4 0.8,-2.7 1.1,-4 0.5,-0.2 0.9,-0.4 1.3,-0.7 0.2,-0.1 0.4,-0.3 0.5,-0.4 -0.7,0 -1.4,-0.3 -2,-0.7 -2.3,-1.5 -2.9,-4.2 -3.2,-6.6 z"
           id="path161"
           inkscape:connector-curvature="0"
           style="fill:#f47878" /><path
           class="st1"
           d="m 211.2,698.7 c 0,-0.1 0,-0.1 0,0 2.4,-0.9 4.3,-2.7 5.4,-4.9 1.3,-0.5 2.5,-1.1 3.8,-2 0.8,-0.6 0.9,-1.7 0.4,-2.5 0.4,-2 -0.8,-3.8 -2.4,-4.9 0.4,-1.4 0.1,-2.9 -1,-4.1 -0.4,-0.4 -0.8,-0.5 -1.2,-0.8 -0.2,-0.2 -0.3,-0.2 -0.4,-0.2 0,-0.1 0,-0.2 0,-0.3 -0.3,-1.3 0.2,-1.9 -0.7,-3.2 -0.6,-0.9 -2,-1 -2.9,-0.4 -0.7,0.6 -1.4,1.2 -2,1.9 -0.3,-0.3 -0.6,-0.6 -0.9,-0.9 -0.7,-0.6 -1.8,-0.5 -2.5,0 -0.8,0.6 -1.3,1.2 -1.6,2.2 -0.2,0.5 0,1.4 -0.3,1.9 0.1,0 0.3,0.1 0.4,0.1 -0.3,0 -0.5,0 -0.8,0.1 -0.6,0.7 -1.4,0.8 -1.9,1.8 -0.2,0.5 -0.9,3.5 -0.3,3.6 -1.6,-0.1 -2.8,1.4 -2.2,2.9 0.4,0.9 0.6,1.3 0.9,1.9 0.5,-0.1 1,0 1.5,0.3 1.3,0.8 2.4,1.8 3.3,3 0.2,-0.1 0.4,-0.1 0.6,0 1,0.4 1.6,1.2 1.7,2.2 0.8,0.8 1.5,1.7 2.1,2.6 0.2,0 0.5,-0.1 0.7,-0.2 0.1,-0.1 0.2,-0.1 0.3,-0.1 z m 0.9,-17.2 c 0.1,0.1 0.3,0.3 0.4,0.4 -0.2,0 -0.4,-0.1 -0.6,-0.1 0.1,-0.1 0.1,-0.2 0.2,-0.3 z"
           id="path163"
           inkscape:connector-curvature="0"
           style="fill:#f47878" /><path
           class="st1"
           d="m 187.1,312.2 c 0.6,1.9 1.5,3.5 2.6,5.1 0.7,0.9 1.9,1.2 2.7,0.6 0.1,0.1 0.1,0.2 0.2,0.4 0.5,0.9 1.8,1.3 2.7,0.7 0.5,-0.3 1.2,-0.8 1.5,-1.4 0.3,0.3 0.6,0.5 0.8,0.7 0.7,0.5 1.4,0.7 2.3,0.6 0.5,-0.1 2.8,-1.6 3,-1.4 1.8,1.5 4.4,-0.3 3.3,-2.5 -0.3,-0.6 -0.7,-1.3 -1,-1.9 0.6,-0.1 1.2,-0.2 1.8,-0.3 1.2,-0.2 1.7,-1.6 1.5,-2.6 -0.3,-1.7 -2.5,-2.1 -0.8,-3.7 1,-0.9 0.7,-2.6 -0.4,-3.3 -1,-0.6 -2,-1 -3.1,-1.1 -0.1,-1.1 -0.5,-2.2 -1.6,-2.9 -0.8,-0.5 -1.8,-0.7 -2.8,-0.6 -0.2,0 -0.6,0.1 -0.9,0.2 -0.1,-0.1 -0.2,-0.3 -0.3,-0.5 -1.7,-3.4 -6.7,-0.8 -8.5,2 0,0 -0.1,0 -0.2,0 -0.3,0.1 -0.6,0.2 -0.8,0.3 0.3,0.3 0.5,0.7 0.5,1.1 0,0 0,0.1 0,0.1 0.1,0.3 0.2,0.7 0,1.1 -0.2,0.7 -0.4,1.3 -0.6,2 -0.6,2.1 -1.6,4.1 -3,5.9 0.2,0.3 0.5,0.6 0.8,0.8 0.3,0.2 0.3,0.4 0.3,0.6 z"
           id="path165"
           inkscape:connector-curvature="0"
           style="fill:#f47878" /><path
           class="st1"
           d="m 202.7,267.8 c 0.1,-1 0.1,-2 0.1,-3 1.4,-2.2 1.1,-5.4 0,-7.8 -0.4,-0.8 -1.3,-1.1 -2.2,-0.9 0.2,-1.1 -0.5,-2.3 -1.6,-2.4 -1.2,-1.6 -2.9,-2.8 -4.9,-2.7 -0.6,-1.6 -3.1,-1.7 -3.8,0.2 -0.1,0.3 -0.2,1.4 -0.2,2.6 -0.5,1 -0.8,2.2 -1,3.4 -0.7,0.6 -1.1,1.7 -0.6,2.5 -1.3,0.4 -2.1,2 -0.9,3.2 0.6,0.6 1.1,1.2 1.6,1.8 -0.6,0.7 -0.5,1.9 0.1,2.7 -0.2,0.1 -0.4,0.2 -0.7,0.3 -1.4,0.6 -1.1,3.1 0.4,3.4 1.7,0.3 3.3,0.4 5,0.4 1.2,1.2 2.6,2.2 4,2.2 0.1,-0.4 0.3,-0.7 0.5,-1.1 0.7,-2.3 2.2,-4 4.2,-4.8 z"
           id="path167"
           inkscape:connector-curvature="0"
           style="fill:#f47878" /><path
           class="st1"
           d="m 178.6,675 c -0.1,-0.4 0,-0.7 0.1,-1 -0.2,-0.2 -0.4,-0.3 -0.7,-0.4 -2.7,-1.5 -5.9,-0.6 -8.7,-2 -1.5,-0.8 -3.3,1.1 -2.6,2.6 -0.3,0.4 -0.7,0.8 -1,1.3 -2,-0.6 -3.9,2 -2,3.4 -0.3,0.5 -0.5,1 -0.8,1.5 -2.1,-0.5 -2.9,2.4 -1.5,3.6 1.4,1.1 2.8,2 4.5,2.5 0.5,0.2 1.1,0.3 1.7,0.3 1,0.1 2.6,-0.5 1.5,0.7 -0.1,0.1 -0.2,0.2 -0.4,0.4 -1.5,1.7 1.2,4.4 2.8,2.8 0.1,-0.1 0.2,-0.2 0.4,-0.4 0.4,-0.4 1.2,-0.5 2.1,-0.5 0.9,0 1.8,0 2.4,-0.2 0.2,-0.1 0.5,-0.2 0.7,-0.4 0.5,1 1.7,1.6 2.8,0.8 1.9,-1.5 3.2,-3.1 4.1,-5.3 0.6,-0.4 1,-0.9 1.4,-1.4 -3.5,-1.7 -5.9,-4.6 -6.8,-8.3 z"
           id="path169"
           inkscape:connector-curvature="0"
           style="fill:#f47878" /><path
           class="st1"
           d="m 161.5,362.2 c 0.8,1.6 1.9,2.9 3.5,4 0.7,0.5 1.7,0.2 2.2,-0.4 0.8,0.3 1.6,0.1 2.1,-0.6 0.2,0.2 0.5,0.4 0.7,0.7 0.8,0.9 2.4,0.6 3,-0.4 0.2,-0.4 0.4,-0.8 0.6,-1.1 0.9,0.2 1.9,-0.4 2.3,-1.4 0,-0.1 0.8,-3.2 0.4,-3.2 1.6,0 2.7,-2.2 1.4,-3.4 -0.1,-0.5 -0.3,-0.9 -0.4,-1.4 0.5,-1 0.2,-2.7 -1.2,-2.9 -0.7,-0.1 -1.5,-0.2 -2.2,-0.3 -0.7,-2.2 -3.1,-3.7 -5,-2.6 -1.3,-0.7 -2.8,-0.7 -4.2,-0.3 -0.8,-0.6 -2,-0.6 -2.7,0.1 -0.1,0.1 -0.1,0.2 -0.2,0.2 -0.3,0.7 -0.6,1.4 -0.9,2.2 0.4,0.2 0.7,0.5 0.9,0.9 0.7,0.9 0.6,2.2 0.2,3.5 -0.2,1.8 -0.8,3.5 -1.9,5 0.5,0.6 0.9,1 1.4,1.4 z"
           id="path171"
           inkscape:connector-curvature="0"
           style="fill:#f47878" /><path
           class="st1"
           d="m 168.2,319.8 c 0,-0.1 0,-0.2 -0.1,-0.2 0.2,-1.5 0.1,-3.1 -0.4,-4.4 -0.6,-1.8 -2.7,-1.9 -3,-4.1 -0.1,-1.3 -1.6,-2.6 -2.9,-1.8 -0.3,-0.2 -0.6,-0.5 -0.9,-0.7 0,-0.4 0,-0.8 0,-1.2 -0.2,-1.7 -2,-2.7 -3.4,-1.4 0,0 0,0 -0.1,0.1 -0.2,-0.3 -0.4,-0.6 -0.6,-0.9 -0.8,-1.3 -3.2,-1.3 -3.6,0.3 -1.4,-0.5 -3.4,0.7 -2.7,2.4 0.2,0.5 0.4,1 0.5,1.5 -1.3,0.4 -2.1,2 -0.9,3.3 0.6,0.7 1.3,1.4 2,2.1 0,0 0,0 0.1,0 0.4,0.7 0.5,1.4 -0.4,1.8 -1.3,0.6 -1.4,2.9 0,3.5 1,0.4 1.8,0.9 2.6,1.5 -0.5,1 -0.3,2.3 1.1,2.6 -0.7,1.2 0,3 1.6,2.9 1.6,-0.1 3.1,-0.2 4.7,-0.3 0.7,0.6 1.4,1.1 2.1,1.7 0.3,-3.1 1.5,-5.7 3.6,-8.1 0.1,-0.4 0.4,-0.6 0.7,-0.6 z"
           id="path173"
           inkscape:connector-curvature="0"
           style="fill:#f47878" /><path
           class="st1"
           d="m 150.3,567.7 c 1.7,1 3.4,1.7 5.3,2.2 1.1,0.3 2.2,-0.3 2.5,-1.3 0.1,0 0.3,0.1 0.4,0.1 1,0.3 2.2,-0.2 2.6,-1.2 0.2,-0.6 0.4,-1.4 0.2,-2.1 0.4,0 0.8,0 1.1,0 0.8,-0.1 1.5,-0.4 2.1,-1 0.4,-0.4 1.1,-3.1 1.4,-3.1 2.3,0 3.1,-3.1 0.9,-4 -0.7,-0.3 -1.3,-0.5 -2,-0.8 0.4,-0.5 0.8,-0.9 1.2,-1.4 0.8,-0.9 0.2,-2.3 -0.5,-2.9 -1.3,-1.1 -3.3,0.1 -3,-2.3 0.1,-1.4 -1.1,-2.5 -2.5,-2.3 -1.2,0.2 -2.2,0.6 -3.1,1.1 -0.8,-0.8 -1.8,-1.3 -3.1,-1.2 -1,0.1 -1.8,0.6 -2.5,1.4 -0.2,0.2 -0.4,0.5 -0.6,0.8 -0.1,0 -0.3,-0.1 -0.5,-0.2 -3.5,-1.5 -5.6,3.7 -5.2,7 0,0 -0.1,0.1 -0.1,0.1 -0.2,0.2 -0.3,0.5 -0.5,0.8 0.5,0 0.9,0.2 1.2,0.6 l 0,0 c 0.3,0.2 0.6,0.4 0.8,0.8 0.3,0.6 0.6,1.3 0.8,1.9 0.9,2 1.5,4.2 1.5,6.4 0.4,0.1 0.7,0.1 1.1,0.1 0.2,0.3 0.4,0.4 0.5,0.5 z"
           id="path175"
           inkscape:connector-curvature="0"
           style="fill:#f47878" /><path
           class="st1"
           d="m 148.4,500.4 c 1.6,1.2 3.6,1.9 5.6,2.3 1.4,0.2 2.4,-1.4 1.8,-2.6 0,0 0,0 0,0 0.2,-0.1 0.5,-0.2 0.8,-0.3 1.3,-0.8 1.4,-1.7 1.4,-2.7 0.8,0.1 1.7,0 2.5,-0.3 1.4,-0.5 2,-2.5 3,-2.1 2.3,1 3.5,-2.3 1.9,-3.7 -1,-0.8 -2,-1.5 -3,-2.1 0.7,-1.3 -0.1,-3 -1.7,-3.2 -0.6,-0.1 -1.3,-0.2 -1.9,-0.2 -0.2,-0.8 -0.6,-1.4 -1.5,-2 -0.6,-0.4 -1.4,-0.5 -2.1,-0.2 -0.7,0.4 -1.3,0.8 -1.9,1.3 -0.5,-0.8 -1.1,-1.5 -2.5,-1.8 -2.4,-0.4 -5.4,0.5 -7.6,1.1 -2.1,0.6 -2,3.2 -0.5,3.9 -0.2,0.1 -0.4,0.3 -0.6,0.5 0.2,0.1 0.3,0.2 0.4,0.4 1.2,1.6 1.8,3.4 1.8,5.2 0.4,2 0.6,4 0.4,6 1.3,0.4 2.5,0.6 3.7,0.5 z"
           id="path177"
           inkscape:connector-curvature="0"
           style="fill:#f47878" /><path
           class="st2"
           d="m 164.4,641 c -0.1,0 -0.1,-0.1 -0.1,-0.1 0,0 0,0 0.1,0.1 0,0 0,0 0,0 z"
           id="path179"
           inkscape:connector-curvature="0"
           style="fill:#fff7ec" /><path
           class="st1"
           d="m 163.8,646.8 c -0.1,0 -0.1,0 -0.2,0 0,0 -0.1,0 -0.2,0 -0.1,0 -0.2,0 -0.3,0 -0.1,0 -0.1,0 -0.2,-0.1 -0.3,-0.1 -0.6,-0.3 -0.8,-0.7 -1.1,-1.1 -1.8,-2.4 -2.1,-3.8 -0.1,-0.1 -0.1,-0.2 -0.2,-0.3 -0.3,-0.5 -0.2,-1.1 0,-1.5 0,-0.1 0,-0.1 0,-0.2 0,-0.8 0.7,-1.3 1.4,-1.4 -0.3,-0.1 -0.6,-0.2 -0.9,-0.2 -1.8,-0.2 -2.1,1.2 -3.9,-0.7 -1.1,-1.2 -3,-0.6 -3.3,0.9 -0.2,-0.1 -0.3,-0.3 -0.5,-0.4 -0.8,-0.8 -2.3,-0.9 -3,0.2 -0.1,0.1 -0.2,0.4 -0.4,0.8 -0.6,-0.7 -1.7,-1.4 -2.3,-2 -1.4,-1.2 -3.5,0.7 -2.7,2.3 0.1,0.1 0.1,0.3 0.2,0.4 -1.5,-0.1 -2.8,1.7 -1.6,3 0,0 0.1,0.1 0.1,0.1 -1.1,0.8 -0.7,2.6 0.5,3.3 0.8,0.4 1.5,0.8 2.3,1.2 -0.2,0.8 0.1,1.7 1.1,2.1 1.7,0.7 2.8,0.7 4.4,0.2 -0.1,0.1 -0.3,0.2 -0.4,0.3 -1.5,1 -0.2,3.8 1.5,3.3 0.3,-0.1 0.6,-0.2 0.9,-0.4 0.4,1.3 2.5,2 3.3,0.5 0.4,-0.7 0.9,-1.4 1.3,-2.1 0.2,1.5 2.1,2.2 3.2,0.8 0.7,-1 1.4,-2.1 1.9,-3.2 0.2,-0.1 0.3,-0.2 0.5,-0.3 0.1,0 0.2,-0.1 0.3,-0.1 0.7,-0.2 1.2,-0.6 1.6,-0.9 -0.3,0 -0.6,-0.1 -0.9,-0.3 0,-0.4 -0.3,-0.6 -0.6,-0.8 z"
           id="path181"
           inkscape:connector-curvature="0"
           style="fill:#f47878" /><path
           class="st1"
           d="m 163.3,622.4 c 1.6,0.7 3.4,0.9 5.3,0.7 0.9,-0.1 1.4,-0.9 1.4,-1.7 0.8,-0.3 1.2,-1 1.2,-1.8 0.3,0 0.7,0 1,0.1 1.2,0.2 2.2,-1.1 2,-2.2 -0.1,-0.4 -0.2,-0.9 -0.3,-1.2 0.8,-0.5 1.2,-1.5 0.9,-2.5 0,-0.1 -1.4,-3 -1.8,-2.7 1.2,-1.1 0.6,-3.4 -1.1,-3.5 -0.4,-0.3 -0.8,-0.5 -1.3,-0.8 -0.3,-1.1 -1.6,-2.1 -2.8,-1.5 -0.7,0.4 -1.3,0.8 -1.9,1.2 -2,-1.3 -4.8,-0.8 -5.5,1.2 -1.4,0.4 -2.6,1.3 -3.4,2.5 -1,0 -1.9,0.9 -1.9,1.8 0,0.1 0,0.2 0,0.3 0.2,0.7 0.5,1.5 0.7,2.2 0.4,-0.1 0.9,-0.1 1.3,0.1 1.1,0.2 1.9,1.3 2.4,2.5 1,1.5 1.6,3.2 1.8,5.1 0.8,0.2 1.4,0.3 2,0.2 z"
           id="path183"
           inkscape:connector-curvature="0"
           style="fill:#f47878" /><path
           class="st1"
           d="m 147,446.1 c 0,0 0,0 0,0 2.3,1 5,0.9 7.3,0.1 1.3,0.5 2.6,0.8 4.1,1.1 1,0.1 1.8,-0.6 2,-1.5 1.6,-1.3 2,-3.3 1.5,-5.3 1.2,-0.7 2.1,-2.1 2,-3.7 0,-0.5 -0.2,-0.9 -0.3,-1.4 0,-0.3 -0.1,-0.4 -0.2,-0.4 0,-0.1 0.1,-0.1 0.2,-0.2 0.7,-1.1 1.5,-1.3 1.7,-2.8 0.1,-1.1 -0.8,-2.1 -1.9,-2.2 -0.9,-0.1 -1.9,0 -2.8,0 0,-0.4 0,-0.9 -0.1,-1.3 -0.1,-0.9 -1,-1.6 -1.8,-1.7 -1,-0.1 -1.8,0 -2.7,0.6 -0.5,0.3 -1,1 -1.5,1.2 0.1,0.1 0.1,0.2 0.2,0.4 -0.2,-0.2 -0.4,-0.4 -0.6,-0.5 -0.9,0.1 -1.6,-0.3 -2.6,0.1 -0.5,0.2 -3,2 -2.7,2.4 -1.1,-1.1 -3,-0.9 -3.6,0.7 -0.3,0.9 -0.5,1.4 -0.6,2 0.4,0.2 0.8,0.7 0.9,1.3 0.4,1.4 0.6,2.9 0.5,4.4 0.2,0.1 0.4,0.2 0.5,0.4 0.5,1 0.3,2 -0.2,2.7 0.1,1.1 0,2.2 -0.2,3.4 0.2,0.1 0.5,0.2 0.7,0.3 0,-0.2 0.1,-0.1 0.2,-0.1 z M 159.2,434 c 0,0.2 0,0.4 0,0.6 -0.1,-0.2 -0.2,-0.4 -0.3,-0.5 0.1,0 0.2,-0.1 0.3,-0.1 z"
           id="path185"
           inkscape:connector-curvature="0"
           style="fill:#f47878" /><path
           class="st2"
           d="m 150.3,377 c 0,0 0,-0.1 0,-0.2 -0.1,0.1 -0.1,0.2 0,0.2 0,0 0,0 0,0 z"
           id="path187"
           inkscape:connector-curvature="0"
           style="fill:#fff7ec" /><path
           class="st1"
           d="m 140.8,585.8 c -0.1,0 -0.1,-0.1 -0.2,-0.1 -0.8,-1.2 -2,-2.4 -3.2,-3.1 -1.7,-1 -3.3,0.4 -4.9,-1.1 -1,-0.9 -2.9,-1 -3.4,0.6 -0.4,0 -0.8,0 -1.2,0 -0.2,-0.3 -0.5,-0.6 -0.8,-0.9 -1.3,-1.1 -3.3,-0.7 -3.5,1.1 0,0 0,0.1 0,0.1 -0.3,0 -0.7,-0.1 -1,-0.2 -1.5,-0.4 -3.3,1.1 -2.5,2.6 -1.4,0.5 -2.1,2.8 -0.5,3.6 0.5,0.2 0.9,0.5 1.4,0.8 -0.7,1.1 -0.3,2.9 1.4,3.1 0.9,0.1 1.9,0.2 2.8,0.3 0,0 0.1,0 0.1,0 0.8,0.2 1.3,0.7 0.9,1.6 -0.6,1.3 0.8,3.1 2.3,2.7 1,-0.3 2,-0.5 3,-0.5 0.3,1.1 1.3,1.9 2.5,1.2 0.2,1.3 2,2.3 3.1,1.2 1.1,-1.1 2.2,-2.2 3.3,-3.3 0.9,0 1.8,0 2.7,-0.1 -1.7,-2.5 -2.6,-5.3 -2.5,-8.5 -0.1,-0.5 0,-0.8 0.2,-1.1 z"
           id="path189"
           inkscape:connector-curvature="0"
           style="fill:#f47878" /><path
           class="st1"
           d="m 138.9,406.6 c 0.2,-0.4 0.5,-0.6 0.8,-0.7 -0.1,-0.3 -0.1,-0.5 -0.2,-0.8 -1,-2.9 -4,-4.4 -5.1,-7.3 -0.6,-1.6 -3.1,-1.4 -3.6,0.2 -0.5,0.1 -1.1,0.2 -1.6,0.2 -1.1,-1.8 -4.3,-1.2 -3.8,1.2 -0.5,0.2 -1.1,0.4 -1.6,0.5 -1.2,-1.7 -3.8,-0.2 -3.5,1.6 0.2,1.7 0.7,3.3 1.6,4.8 0.3,0.5 0.6,0.9 1,1.4 0.7,0.8 2.3,1.4 0.6,1.5 -0.2,0 -0.3,0 -0.5,0 -2.2,0.2 -2.1,4 0.2,3.9 0.2,0 0.3,0 0.5,0 0,0 0,0 0.1,0 1.1,0 2.6,2.1 3.7,2.5 0.2,0.1 0.5,0.1 0.8,0.2 -0.4,1.1 0.1,2.3 1.5,2.4 2.4,0.2 4.4,-0.2 6.6,-1.1 0.7,0.1 1.4,0 2,-0.1 -1.6,-3.2 -1.3,-7 0.5,-10.4 z"
           id="path191"
           inkscape:connector-curvature="0"
           style="fill:#f47878" /><path
           class="st1"
           d="m 136.1,459 c 0.2,-0.3 0.5,-0.5 0.8,-0.6 -0.7,-1.2 -1.6,-2.3 -2.7,-3.3 -0.6,-1 -1.7,-1.7 -3.3,-2.6 -0.4,-0.2 -0.8,-0.3 -1.1,-0.3 -0.3,-0.1 -0.6,-0.2 -0.9,-0.3 -0.4,-1.7 -2.7,-2.1 -3.5,-0.8 -1,-0.7 -2.8,-0.5 -3.1,0.7 -0.3,0.2 -0.5,0.4 -0.8,0.6 -1.3,-1.1 -3.8,-0.4 -3.3,1.7 0.1,0 0.3,0 0.4,0 -1.2,0.1 -2.3,1.6 -1.6,2.8 1,1.7 2,3.2 3.4,4.5 0.5,0.4 3.6,2.9 3.9,2.9 -2.3,1.1 -0.7,4.4 1.6,3.5 0.3,-0.1 0.6,-0.2 0.9,-0.3 -0.2,1.4 1.1,3.1 2.6,2.2 1.2,-0.8 2.4,-1.5 3.5,-2.2 0.5,0.2 1,0.3 1.4,0.4 0.2,0 0.5,0 0.7,0 -0.5,-0.5 -0.8,-1.1 -1,-1.9 -0.8,-2.6 0.6,-4.9 2.1,-7 z"
           id="path193"
           inkscape:connector-curvature="0"
           style="fill:#f47878" /><path
           class="st1"
           d="m 146.1,381.1 c -0.1,0 -0.1,-0.1 -0.2,-0.1 0,0 -0.1,-0.1 -0.1,-0.1 -0.1,-0.1 -0.1,-0.1 -0.2,-0.2 0,0 -0.1,-0.1 -0.1,-0.1 -0.2,-0.3 -0.2,-0.7 -0.2,-1.1 -0.1,-1.5 0.2,-3 0.9,-4.3 0,-0.1 0,-0.3 0.1,-0.4 0.1,-0.6 0.5,-0.9 1,-1.1 0,0 0.1,-0.1 0.1,-0.2 0.6,-0.6 1.4,-0.6 2,-0.2 -0.1,-0.3 -0.3,-0.5 -0.5,-0.7 -1.3,-1.3 -2.4,-0.4 -2.5,-3.1 0,-1.6 -1.9,-2.4 -3.1,-1.5 0,-0.2 0,-0.4 -0.1,-0.6 -0.1,-1.2 -1.1,-2.2 -2.4,-1.8 -0.1,0 -0.4,0.1 -0.8,0.3 0,-0.9 -0.4,-2.2 -0.5,-3 -0.3,-1.8 -3.1,-1.7 -3.6,0 0,0.2 -0.1,0.3 -0.1,0.5 -1.1,-1.1 -3.2,-0.5 -3.2,1.2 0,0.1 0,0.1 0,0.2 -1.3,-0.1 -2.3,1.5 -1.7,2.8 0.4,0.8 0.7,1.6 0.9,2.4 -0.7,0.5 -1,1.4 -0.5,2.4 0.8,1.6 1.7,2.3 3.2,3 l 0,0 c -0.2,0 -0.3,0 -0.5,-0.1 -1.8,-0.2 -2.6,2.7 -1,3.5 0.3,0.1 0.6,0.2 1,0.3 -0.5,1.2 0.6,3.1 2.2,2.5 0.8,-0.3 1.6,-0.5 2.4,-0.7 -0.8,1.2 0.1,3 1.9,2.7 1.2,-0.2 2.4,-0.6 3.5,-1.2 0.2,0 0.4,0.1 0.6,0.1 0.1,0 0.2,0.1 0.3,0.1 0.7,0.3 1.3,0.4 1.8,0.3 -0.2,-0.2 -0.4,-0.5 -0.5,-0.8 0,-0.3 -0.1,-0.7 -0.1,-1 z"
           id="path195"
           inkscape:connector-curvature="0"
           style="fill:#f47878" /><path
           class="st1"
           d="m 133.3,523.8 c -0.6,-0.8 -1.2,-1.6 -1.9,-2.4 -0.3,-2.6 -2.7,-4.8 -5.1,-5.9 -0.8,-0.4 -1.7,0 -2.2,0.7 -0.6,-0.9 -1.9,-1.4 -2.8,-0.8 -2,-0.4 -4,-0.3 -5.5,1.1 -1.5,-0.8 -3.5,0.7 -2.8,2.6 0.1,0.3 0.8,1.2 1.5,2.1 0.3,1.1 0.8,2.2 1.4,3.2 -0.1,1 0.3,2 1.2,2.3 -0.7,1.2 -0.3,2.9 1.4,3 0.8,0.1 1.6,0.2 2.4,0.3 0,0.9 0.9,1.8 1.8,2 -0.1,0.2 -0.2,0.5 -0.3,0.7 -0.6,1.4 1.2,3.1 2.5,2.3 1.5,-0.9 2.8,-1.8 4.1,-3 1.6,0.1 3.4,0 4.4,-0.9 -0.1,-0.3 -0.3,-0.7 -0.3,-1.1 -0.8,-2 -0.8,-4.2 0.2,-6.2 z"
           id="path197"
           inkscape:connector-curvature="0"
           style="fill:#f47878" /></g></g></switch></svg>