<?xml version="1.0" encoding="UTF-8" standalone="no"?>
<svg
   xmlns:dc="http://purl.org/dc/elements/1.1/"
   xmlns:cc="http://creativecommons.org/ns#"
   xmlns:rdf="http://www.w3.org/1999/02/22-rdf-syntax-ns#"
   xmlns:svg="http://www.w3.org/2000/svg"
   xmlns="http://www.w3.org/2000/svg"
   xmlns:sodipodi="http://sodipodi.sourceforge.net/DTD/sodipodi-0.dtd"
   xmlns:inkscape="http://www.inkscape.org/namespaces/inkscape"
   version="1.1"
   id="l11"
   x="0px"
   y="0px"
   viewBox="84.79994201660156 208.84999084472656 830.4000244140625 582.300048828125"
   width="100%"
   height="100%"
   style="enable-background:new 0 0 1000 1000;"
   xml:space="preserve"
    class="withFill"
   ><style
     type="text/css"
     id="style3">
	#l11 .st0{fill:#9E9E9E;}
	#l11 .st1{fill:#FFFFFF;}
</style><switch
     id="switch5"
     transform="translate(47.8,-10.15)"><g
       id="g7"><g
         id="g9"><g
           id="g11"><path
             class="st0"
             d="m 853.1,510.1 c -26.2,-15 -47.6,-37.7 -47.5,-70 0.1,-22.7 10.8,-43.5 18.6,-64.3 9.9,-26.5 13,-52.8 -0.6,-78.7 -26.9,-51.2 -86.7,-66.8 -140.4,-60.9 -30.3,3.3 -59.4,12.1 -88.4,21.1 -26.5,8.2 -54.3,16.3 -82.4,13 -24,-2.8 -47.4,-15.8 -60,-35.7 -16.5,26.7 -53,38.6 -84.7,36 -27.1,-2.3 -52.7,-11.9 -78.6,-19.6 -29.8,-8.9 -60.7,-16.1 -92,-16.1 -52.2,0.1 -111.2,27.3 -124,82.7 -11.3,48.8 34.9,89.4 24.1,137.8 -5.5,24.9 -24.1,42.6 -45.9,54.8 26.2,15 47.6,37.7 47.5,70 -0.1,22.7 -10.8,43.5 -18.6,64.3 -9.9,26.5 -13,52.8 0.6,78.7 26.9,51.2 86.7,66.8 140.4,60.9 30.3,-3.3 59.4,-12.1 88.4,-21.1 26.5,-8.2 54.3,-16.3 82.4,-13 24,2.8 47.4,15.8 60,35.7 16.5,-26.7 53,-38.6 84.7,-36 27.1,2.3 52.7,11.9 78.6,19.6 29.8,8.9 60.7,16.1 92,16.1 52.2,-0.1 111.2,-27.3 124,-82.7 11.3,-48.9 -34.8,-89.4 -24.1,-137.9 5.5,-24.9 24.1,-42.5 45.9,-54.7 z"
             id="path13"
             inkscape:connector-curvature="0"
             style="fill:#9e9e9e" /><path
             class="st0"
             d="m 859.8,513.7 c 2.5,-1.3 5,-2.6 7.6,-3.7 -2.4,-1.2 -4.8,-2.4 -7.2,-3.7 -33.7,-18.6 -56.7,-49.2 -43.4,-92.4 11.9,-38.7 33.4,-72.9 15.6,-113.6 -15.1,-34.6 -49.2,-59.3 -85.5,-67.7 -48.6,-11.3 -98.6,1.1 -145.1,15.6 -30.8,9.6 -64.9,21.6 -97.5,14.1 -19.9,-4.6 -38.9,-16.8 -48.3,-34.5 -1.5,-2.8 -2.8,-5.8 -3.8,-8.8 -1,3 -2.2,5.8 -3.6,8.6 -8,15.2 -23.1,26.5 -39.7,32.3 -27.8,9.6 -58.2,2.8 -85.5,-5.2 -48.2,-14.1 -96.6,-31.1 -147.7,-25.1 -38.9,4.6 -76.1,24.3 -97.1,58.2 -22.8,36.9 -11.6,71.7 2.9,109.2 10.4,26.7 16.8,54.8 -1.1,80 -9.1,12.8 -21.8,22.4 -35.8,29.7 -2.5,1.3 -5,2.6 -7.6,3.7 2.4,1.2 4.8,2.4 7.2,3.7 33.7,18.6 56.7,49.2 43.4,92.4 C 75.7,645.1 54.2,679.3 72,720 c 15.1,34.6 49.2,59.3 85.4,67.7 48.6,11.3 98.6,-1.1 145.1,-15.6 30.8,-9.6 64.9,-21.6 97.5,-14.1 19.9,4.6 38.9,16.8 48.3,34.5 1.5,2.8 2.8,5.8 3.8,8.8 1,-3 2.2,-5.8 3.6,-8.6 8,-15.2 23.1,-26.5 39.7,-32.3 27.8,-9.6 58.2,-2.8 85.5,5.2 48.2,14.1 96.6,31.1 147.7,25.1 38.9,-4.6 76.1,-24.3 97.1,-58.2 22.8,-36.9 11.6,-71.7 -2.9,-109.2 -10.4,-26.7 -16.8,-54.8 1.1,-80 9.2,-12.7 21.9,-22.3 35.9,-29.6 z m -28.5,189 c -12.8,55.4 -71.8,82.6 -124,82.7 -31.3,0.1 -62.1,-7.1 -92,-16.1 -25.8,-7.7 -51.5,-17.3 -78.6,-19.6 -31.6,-2.7 -68.2,9.2 -84.7,36 -12.5,-20 -36,-32.9 -60,-35.7 -28,-3.3 -55.9,4.8 -82.4,13 -29,9 -58.1,17.8 -88.4,21.1 C 167.5,790 107.6,774.3 80.8,723.2 67.2,697.3 70.2,671 80.2,644.5 88,623.8 98.7,602.9 98.8,580.2 c 0.1,-32.3 -21.2,-55 -47.5,-70 21.8,-12.3 40.3,-29.9 45.9,-54.8 10.8,-48.5 -35.4,-89 -24.1,-137.9 12.8,-55.4 71.8,-82.6 124,-82.7 31.3,-0.1 62.1,7.1 92,16.1 25.8,7.7 51.5,17.3 78.6,19.6 31.6,2.7 68.2,-9.2 84.7,-36 12.5,20 36,32.9 60,35.7 28,3.3 55.9,-4.8 82.4,-13 29,-9 58.1,-17.8 88.4,-21.1 53.7,-5.9 113.6,9.8 140.4,60.9 13.6,25.9 10.6,52.2 0.6,78.7 -7.8,20.7 -18.5,41.6 -18.6,64.3 -0.1,32.3 21.2,55 47.5,70 -21.8,12.3 -40.3,29.9 -45.9,54.8 -10.8,48.5 35.4,89.1 24.1,137.9 z"
             id="path15"
             inkscape:connector-curvature="0"
             style="fill:#9e9e9e" /></g><path
           class="st1"
           d="m 831.5,513.3 c 2.3,-1.1 4.7,-2.2 7,-3.3 -2.3,-1 -4.5,-2.1 -6.7,-3.2 -31.4,-16.3 -52.7,-43.2 -40.4,-81.2 11,-34 31.1,-64.1 14.5,-99.9 -14.1,-30.4 -45.8,-52.1 -79.5,-59.5 -45.3,-9.9 -91.8,1 -135.1,13.7 -28.7,8.4 -60.4,19 -90.8,12.4 -18.5,-4 -36.2,-14.8 -45,-30.4 -1.4,-2.5 -2.6,-5.1 -3.5,-7.8 -0.9,2.6 -2,5.1 -3.4,7.5 -7.5,13.4 -21.5,23.3 -37,28.4 -25.9,8.5 -54.1,2.5 -79.6,-4.6 -44.9,-12.4 -89.9,-27.3 -137.4,-22 -36.2,4 -70.9,21.4 -90.4,51.2 -21.2,32.4 -10.8,63 2.7,96 9.6,23.5 15.6,48.2 -1.1,70.3 -8.5,11.3 -20.3,19.7 -33.3,26.1 -2.3,1.1 -4.7,2.2 -7.1,3.3 2.3,1 4.5,2.1 6.7,3.2 31.4,16.3 52.7,43.2 40.4,81.2 -11,34 -31.1,64.1 -14.5,99.9 14.1,30.4 45.8,52.1 79.5,59.5 45.3,9.9 91.8,-1 135.1,-13.7 28.7,-8.4 60.4,-19 90.8,-12.4 18.5,4 36.2,14.8 45,30.4 1.4,2.5 2.6,5.1 3.5,7.8 0.9,-2.6 2,-5.1 3.4,-7.5 7.5,-13.4 21.5,-23.3 37,-28.4 25.9,-8.5 54.1,-2.5 79.6,4.6 44.9,12.4 89.9,27.3 137.4,22 36.2,-4 70.9,-21.4 90.4,-51.2 21.2,-32.4 10.8,-63 -2.7,-96 -9.7,-23.5 -15.6,-48.2 1.1,-70.3 8.6,-11.3 20.4,-19.7 33.4,-26.1 z M 805,679.5 c -11.9,48.7 -66.8,72.7 -115.4,72.8 -29.1,0.1 -57.8,-6.3 -85.6,-14.1 -24,-6.8 -47.9,-15.2 -73.1,-17.2 -29.5,-2.3 -63.4,8.1 -78.8,31.6 -11.6,-17.6 -33.5,-28.9 -55.8,-31.4 -26.1,-2.9 -52,4.2 -76.6,11.4 -27,7.9 -54.1,15.6 -82.3,18.6 -50,5.2 -105.7,-8.6 -130.7,-53.6 -12.7,-22.8 -9.8,-45.9 -0.6,-69.2 7.2,-18.2 17.2,-36.6 17.3,-56.5 0.1,-28.4 -19.8,-48.4 -44.2,-61.6 20.3,-10.8 37.6,-26.3 42.7,-48.2 10,-42.6 -32.9,-78.3 -22.4,-121.2 11.9,-48.7 66.8,-72.7 115.4,-72.8 29.1,-0.1 57.8,6.3 85.6,14.1 24,6.8 47.9,15.2 73.1,17.2 29.5,2.3 63.4,-8.1 78.8,-31.6 11.6,17.6 33.5,28.9 55.8,31.4 26.1,2.9 52,-4.2 76.6,-11.4 27,-7.9 54.1,-15.6 82.3,-18.6 50,-5.2 105.7,8.6 130.7,53.6 12.7,22.8 9.8,45.9 0.6,69.2 -7.2,18.2 -17.2,36.6 -17.3,56.5 -0.1,28.4 19.8,48.4 44.2,61.6 -20.3,10.8 -37.6,26.3 -42.7,48.2 -10.1,42.6 32.9,78.2 22.4,121.2 z"
           id="path17"
           inkscape:connector-curvature="0"
           style="fill:#ffffff" /></g></g></switch></svg>