<?xml version="1.0" encoding="UTF-8" standalone="no"?>
<svg
   xmlns:dc="http://purl.org/dc/elements/1.1/"
   xmlns:cc="http://creativecommons.org/ns#"
   xmlns:rdf="http://www.w3.org/1999/02/22-rdf-syntax-ns#"
   xmlns:svg="http://www.w3.org/2000/svg"
   xmlns="http://www.w3.org/2000/svg"
   xmlns:sodipodi="http://sodipodi.sourceforge.net/DTD/sodipodi-0.dtd"
   xmlns:inkscape="http://www.inkscape.org/namespaces/inkscape"
   version="1.1"
   id="l12"
   x="0px"
   y="0px"
   viewBox="0 0 1000 1000"
   width="100%"
    class="withFill"
   height="100%"
   style="enable-background:new 0 0 1000 1000;"
   xml:space="preserve"
   ><style
     type="text/css"
     id="style3">
	#l12 .st0{fill:#9E9E9E;}
	#l12 .st1{fill:#FFFFFF;}
</style><switch
     id="switch5"
     transform="translate(26,-15.200012)"><g
       id="g7"><g
         id="g9"><circle
           class="st0"
           cx="474"
           cy="515.20001"
           r="332.79999"
           id="circle11"
           style="fill:#9e9e9e" /><g
           id="g13"><path
             class="st1"
             d="m 773.7,523.2 c -0.1,3.5 5.5,3.8 5.5,0.1 0.1,-3.5 -5.4,-3.6 -5.5,-0.1 z"
             id="path15"
             inkscape:connector-curvature="0"
             style="fill:#ffffff" /><path
             class="st1"
             d="m 773.3,533.8 c -0.3,3.5 5.3,3.9 5.5,0.3 0.3,-3.5 -5.3,-3.8 -5.5,-0.3 z"
             id="path17"
             inkscape:connector-curvature="0"
             style="fill:#ffffff" /><path
             class="st1"
             d="m 772.4,544.6 c -0.1,1.8 1.1,2.8 2.5,2.9 1.4,0.1 2.9,-0.6 3,-2.4 0.3,-3.6 -5.2,-4 -5.5,-0.5 z"
             id="path19"
             inkscape:connector-curvature="0"
             style="fill:#ffffff" /><path
             class="st1"
             d="m 771.2,555.2 c -0.4,3.5 5,4.3 5.5,0.7 0.4,-3.6 -5.1,-4.2 -5.5,-0.7 z"
             id="path21"
             inkscape:connector-curvature="0"
             style="fill:#ffffff" /><path
             class="st1"
             d="m 769.6,565.8 c -0.6,3.5 4.8,4.5 5.5,0.9 0.6,-3.5 -4.9,-4.4 -5.5,-0.9 z"
             id="path23"
             inkscape:connector-curvature="0"
             style="fill:#ffffff" /><path
             class="st1"
             d="m 767.6,576.3 c -0.8,3.4 4.6,4.6 5.4,1.1 0.8,-3.6 -4.7,-4.6 -5.4,-1.1 z"
             id="path25"
             inkscape:connector-curvature="0"
             style="fill:#ffffff" /><path
             class="st1"
             d="m 765.2,586.8 c -0.8,3.4 4.6,4.8 5.4,1.3 0.8,-3.5 -4.6,-4.8 -5.4,-1.3 z"
             id="path27"
             inkscape:connector-curvature="0"
             style="fill:#ffffff" /><path
             class="st1"
             d="m 762.5,597 c -1,3.4 4.3,5 5.3,1.5 1,-3.4 -4.3,-4.9 -5.3,-1.5 z"
             id="path29"
             inkscape:connector-curvature="0"
             style="fill:#ffffff" /><path
             class="st1"
             d="m 759.4,607.4 c -1.1,3.3 4.1,5.1 5.3,1.7 1.1,-3.5 -4.2,-5.1 -5.3,-1.7 z"
             id="path31"
             inkscape:connector-curvature="0"
             style="fill:#ffffff" /><path
             class="st1"
             d="m 756,617.4 c -1.2,3.3 4,5.3 5.2,1.9 1.2,-3.4 -4.1,-5.2 -5.2,-1.9 z"
             id="path33"
             inkscape:connector-curvature="0"
             style="fill:#ffffff" /><path
             class="st1"
             d="m 752.1,627.5 c -1.3,3.3 3.8,5.4 5.1,2.1 1.3,-3.4 -3.8,-5.4 -5.1,-2.1 z"
             id="path35"
             inkscape:connector-curvature="0"
             style="fill:#ffffff" /><path
             class="st1"
             d="m 747.9,637.3 c -1.5,3.2 3.6,5.6 5.1,2.3 1.5,-3.4 -3.6,-5.6 -5.1,-2.3 z"
             id="path37"
             inkscape:connector-curvature="0"
             style="fill:#ffffff" /><path
             class="st1"
             d="m 747.1,645.9 c -1.2,-0.6 -2.9,-0.4 -3.7,1.2 -1.6,3.1 3.3,5.7 5,2.4 0.8,-1.6 -0.1,-3 -1.3,-3.6 z"
             id="path39"
             inkscape:connector-curvature="0"
             style="fill:#ffffff" /><path
             class="st1"
             d="m 738.5,656.5 c -0.8,1.6 0,3 1.2,3.7 1.2,0.7 2.9,0.6 3.7,-1.1 1.7,-3.2 -3.3,-5.7 -4.9,-2.6 z"
             id="path41"
             inkscape:connector-curvature="0"
             style="fill:#ffffff" /><path
             class="st1"
             d="m 733.2,665.9 c -1.8,3.1 3,5.9 4.8,2.8 1.8,-3.2 -3,-5.9 -4.8,-2.8 z"
             id="path43"
             inkscape:connector-curvature="0"
             style="fill:#ffffff" /><path
             class="st1"
             d="m 727.7,675 c -1.9,3 2.7,6 4.7,3 2,-3.1 -2.8,-6 -4.7,-3 z"
             id="path45"
             inkscape:connector-curvature="0"
             style="fill:#ffffff" /><path
             class="st1"
             d="m 725.7,683.4 c -1.2,-0.8 -2.7,-0.8 -3.8,0.7 -2,2.9 2.5,6.1 4.6,3.1 1,-1.5 0.3,-3.1 -0.8,-3.8 z"
             id="path47"
             inkscape:connector-curvature="0"
             style="fill:#ffffff" /><path
             class="st1"
             d="m 715.7,692.7 c -2,2.9 2.4,6.2 4.5,3.3 2.1,-3 -2.5,-6.2 -4.5,-3.3 z"
             id="path49"
             inkscape:connector-curvature="0"
             style="fill:#ffffff" /><path
             class="st1"
             d="m 709.1,701.2 c -2.2,2.8 2.1,6.3 4.3,3.4 2.3,-2.8 -2.1,-6.2 -4.3,-3.4 z"
             id="path51"
             inkscape:connector-curvature="0"
             style="fill:#ffffff" /><path
             class="st1"
             d="m 702.4,709.4 c -2.3,2.7 1.9,6.3 4.2,3.6 2.4,-2.7 -1.9,-6.2 -4.2,-3.6 z"
             id="path53"
             inkscape:connector-curvature="0"
             style="fill:#ffffff" /><path
             class="st1"
             d="m 695.3,717.6 c -2.4,2.5 1.6,6.4 4.1,3.7 2.4,-2.7 -1.7,-6.4 -4.1,-3.7 z"
             id="path55"
             inkscape:connector-curvature="0"
             style="fill:#ffffff" /><path
             class="st1"
             d="m 687.9,725.3 c -2.4,2.5 1.5,6.5 4,3.9 2.5,-2.7 -1.5,-6.5 -4,-3.9 z"
             id="path57"
             inkscape:connector-curvature="0"
             style="fill:#ffffff" /><path
             class="st1"
             d="m 680.2,732.8 c -2.5,2.4 1.2,6.5 3.8,4 2.7,-2.5 -1.2,-6.5 -3.8,-4 z"
             id="path59"
             inkscape:connector-curvature="0"
             style="fill:#ffffff" /><path
             class="st1"
             d="m 672.4,740 c -2.7,2.3 0.9,6.5 3.7,4.2 2.7,-2.4 -1,-6.5 -3.7,-4.2 z"
             id="path61"
             inkscape:connector-curvature="0"
             style="fill:#ffffff" /><path
             class="st1"
             d="m 664.2,747 c -2.8,2.2 0.7,6.5 3.5,4.3 2.8,-2.3 -0.8,-6.6 -3.5,-4.3 z"
             id="path63"
             inkscape:connector-curvature="0"
             style="fill:#ffffff" /><path
             class="st1"
             d="m 655.9,753.6 c -2.8,2.2 0.5,6.6 3.4,4.4 2.8,-2.2 -0.6,-6.6 -3.4,-4.4 z"
             id="path65"
             inkscape:connector-curvature="0"
             style="fill:#ffffff" /><path
             class="st1"
             d="m 647.2,759.9 c -2.9,2 0.3,6.6 3.2,4.5 2.9,-2 -0.3,-6.5 -3.2,-4.5 z"
             id="path67"
             inkscape:connector-curvature="0"
             style="fill:#ffffff" /><path
             class="st1"
             d="m 638.4,766 c -3,1.9 0,6.6 3,4.6 3.1,-2 0,-6.5 -3,-4.6 z"
             id="path69"
             inkscape:connector-curvature="0"
             style="fill:#ffffff" /><path
             class="st1"
             d="m 629.3,771.8 c -3.1,1.8 -0.3,6.5 2.9,4.7 3.1,-1.9 0.1,-6.6 -2.9,-4.7 z"
             id="path71"
             inkscape:connector-curvature="0"
             style="fill:#ffffff" /><path
             class="st1"
             d="m 620.1,777.1 c -3.1,1.8 -0.4,6.6 2.7,4.8 3.2,-1.8 0.4,-6.6 -2.7,-4.8 z"
             id="path73"
             inkscape:connector-curvature="0"
             style="fill:#ffffff" /><path
             class="st1"
             d="m 610.6,782.1 c -3.1,1.6 -0.7,6.6 2.5,4.9 3.3,-1.6 0.7,-6.5 -2.5,-4.9 z"
             id="path75"
             inkscape:connector-curvature="0"
             style="fill:#ffffff" /><path
             class="st1"
             d="m 601.1,786.8 c -3.2,1.5 -0.9,6.5 2.4,5 3.2,-1.4 0.8,-6.4 -2.4,-5 z"
             id="path77"
             inkscape:connector-curvature="0"
             style="fill:#ffffff" /><path
             class="st1"
             d="m 591.3,791.3 c -3.3,1.3 -1.2,6.5 2.2,5.1 3.2,-1.5 1,-6.6 -2.2,-5.1 z"
             id="path79"
             inkscape:connector-curvature="0"
             style="fill:#ffffff" /><path
             class="st1"
             d="m 581.4,795.2 c -3.3,1.3 -1.4,6.5 2,5.2 3.3,-1.3 1.3,-6.5 -2,-5.2 z"
             id="path81"
             inkscape:connector-curvature="0"
             style="fill:#ffffff" /><path
             class="st1"
             d="m 571.2,798.9 c -3.3,1.1 -1.6,6.4 1.8,5.2 3.5,-1.1 1.6,-6.4 -1.8,-5.2 z"
             id="path83"
             inkscape:connector-curvature="0"
             style="fill:#ffffff" /><path
             class="st1"
             d="m 561.1,802.2 c -3.4,1 -1.9,6.3 1.6,5.3 1.7,-0.5 2.2,-2.1 1.8,-3.4 -0.4,-1.3 -1.7,-2.4 -3.4,-1.9 z"
             id="path85"
             inkscape:connector-curvature="0"
             style="fill:#ffffff" /><path
             class="st1"
             d="m 550.8,805.1 c -1.7,0.5 -2.2,2 -1.9,3.4 0.3,1.4 1.6,2.5 3.3,2 3.5,-1 2,-6.3 -1.4,-5.4 z"
             id="path87"
             inkscape:connector-curvature="0"
             style="fill:#ffffff" /><path
             class="st1"
             d="m 540.4,807.6 c -3.4,0.8 -2.3,6.2 1.2,5.4 3.6,-0.8 2.3,-6.2 -1.2,-5.4 z"
             id="path89"
             inkscape:connector-curvature="0"
             style="fill:#ffffff" /><path
             class="st1"
             d="m 529.9,809.8 c -3.5,0.6 -2.5,6.1 1,5.5 3.6,-0.7 2.5,-6.1 -1,-5.5 z"
             id="path91"
             inkscape:connector-curvature="0"
             style="fill:#ffffff" /><path
             class="st1"
             d="m 519.4,811.7 c -3.5,0.4 -2.8,5.9 0.8,5.5 3.6,-0.7 2.7,-6.1 -0.8,-5.5 z"
             id="path93"
             inkscape:connector-curvature="0"
             style="fill:#ffffff" /><path
             class="st1"
             d="m 508.7,813 c -3.5,0.4 -3,6 0.6,5.5 3.6,-0.4 2.9,-5.9 -0.6,-5.5 z"
             id="path95"
             inkscape:connector-curvature="0"
             style="fill:#ffffff" /><path
             class="st1"
             d="m 498.1,814 c -3.5,0.3 -3.2,5.8 0.4,5.5 3.7,-0.2 3.2,-5.7 -0.4,-5.5 z"
             id="path97"
             inkscape:connector-curvature="0"
             style="fill:#ffffff" /><path
             class="st1"
             d="m 487.4,814.7 c -3.5,0.1 -3.4,5.6 0.2,5.5 1.8,0 2.6,-1.5 2.6,-2.9 -0.1,-1.3 -1,-2.6 -2.8,-2.6 z"
             id="path99"
             inkscape:connector-curvature="0"
             style="fill:#ffffff" /><path
             class="st1"
             d="m 476.7,815 c -3.5,0.1 -3.6,5.6 0,5.5 3.7,0 3.6,-5.6 0,-5.5 z"
             id="path101"
             inkscape:connector-curvature="0"
             style="fill:#ffffff" /><path
             class="st1"
             d="m 466,814.9 c -3.5,-0.1 -3.8,5.5 -0.1,5.5 3.5,0.1 3.6,-5.4 0.1,-5.5 z"
             id="path103"
             inkscape:connector-curvature="0"
             style="fill:#ffffff" /><path
             class="st1"
             d="m 455.3,814.4 c -3.5,-0.3 -3.9,5.3 -0.3,5.5 3.6,0.4 3.9,-5.2 0.3,-5.5 z"
             id="path105"
             inkscape:connector-curvature="0"
             style="fill:#ffffff" /><path
             class="st1"
             d="m 444.6,813.6 c -1.8,-0.1 -2.8,1.1 -2.9,2.5 -0.1,1.4 0.6,2.9 2.4,3 3.6,0.3 4,-5.2 0.5,-5.5 z"
             id="path107"
             inkscape:connector-curvature="0"
             style="fill:#ffffff" /><path
             class="st1"
             d="m 434,812.4 c -3.5,-0.4 -4.3,5 -0.7,5.5 3.6,0.4 4.2,-5.1 0.7,-5.5 z"
             id="path109"
             inkscape:connector-curvature="0"
             style="fill:#ffffff" /><path
             class="st1"
             d="m 423.4,810.7 c -3.5,-0.6 -4.5,4.8 -0.9,5.5 3.5,0.6 4.4,-4.8 0.9,-5.5 z"
             id="path111"
             inkscape:connector-curvature="0"
             style="fill:#ffffff" /><path
             class="st1"
             d="m 412.9,808.8 c -3.4,-0.8 -4.6,4.6 -1.1,5.4 3.5,0.8 4.6,-4.7 1.1,-5.4 z"
             id="path113"
             inkscape:connector-curvature="0"
             style="fill:#ffffff" /><path
             class="st1"
             d="m 402.4,806.4 c -3.4,-0.8 -4.8,4.6 -1.3,5.4 3.5,0.8 4.8,-4.6 1.3,-5.4 z"
             id="path115"
             inkscape:connector-curvature="0"
             style="fill:#ffffff" /><path
             class="st1"
             d="m 392.2,803.7 c -3.4,-1 -5,4.3 -1.5,5.3 3.4,1 4.8,-4.4 1.5,-5.3 z"
             id="path117"
             inkscape:connector-curvature="0"
             style="fill:#ffffff" /><path
             class="st1"
             d="m 381.8,800.6 c -3.3,-1.1 -5.1,4.1 -1.7,5.3 3.5,1.1 5.1,-4.2 1.7,-5.3 z"
             id="path119"
             inkscape:connector-curvature="0"
             style="fill:#ffffff" /><path
             class="st1"
             d="m 371.8,797.2 c -3.3,-1.2 -5.3,4 -1.9,5.2 3.4,1.2 5.2,-4.1 1.9,-5.2 z"
             id="path121"
             inkscape:connector-curvature="0"
             style="fill:#ffffff" /><path
             class="st1"
             d="m 361.7,793.3 c -3.3,-1.3 -5.4,3.8 -2.1,5.1 3.4,1.3 5.4,-3.8 2.1,-5.1 z"
             id="path123"
             inkscape:connector-curvature="0"
             style="fill:#ffffff" /><path
             class="st1"
             d="m 351.9,789.1 c -3.2,-1.5 -5.6,3.6 -2.3,5.1 3.4,1.5 5.6,-3.6 2.3,-5.1 z"
             id="path125"
             inkscape:connector-curvature="0"
             style="fill:#ffffff" /><path
             class="st1"
             d="m 342.2,784.6 c -3.1,-1.6 -5.7,3.3 -2.4,5 1.6,0.8 3,0 3.6,-1.3 0.5,-1.3 0.3,-2.9 -1.2,-3.7 z"
             id="path127"
             inkscape:connector-curvature="0"
             style="fill:#ffffff" /><path
             class="st1"
             d="m 332.7,779.7 c -1.6,-0.8 -3,0 -3.7,1.2 -0.7,1.2 -0.6,2.9 1.1,3.7 3.2,1.7 5.7,-3.3 2.6,-4.9 z"
             id="path129"
             inkscape:connector-curvature="0"
             style="fill:#ffffff" /><path
             class="st1"
             d="m 323.3,774.4 c -3.1,-1.8 -5.9,3 -2.8,4.8 3.2,1.8 5.9,-3 2.8,-4.8 z"
             id="path131"
             inkscape:connector-curvature="0"
             style="fill:#ffffff" /><path
             class="st1"
             d="m 314.2,768.9 c -3,-1.9 -6,2.7 -3,4.7 3.1,2 6,-2.8 3,-4.7 z"
             id="path133"
             inkscape:connector-curvature="0"
             style="fill:#ffffff" /><path
             class="st1"
             d="m 305.2,763.1 c -2.9,-2 -6.1,2.5 -3.1,4.6 1.5,1.1 3,0.4 3.8,-0.8 0.7,-1.2 0.7,-2.8 -0.7,-3.8 z"
             id="path135"
             inkscape:connector-curvature="0"
             style="fill:#ffffff" /><path
             class="st1"
             d="m 296.5,756.9 c -2.9,-2 -6.2,2.4 -3.3,4.5 3,2 6.2,-2.5 3.3,-4.5 z"
             id="path137"
             inkscape:connector-curvature="0"
             style="fill:#ffffff" /><path
             class="st1"
             d="m 288,750.3 c -2.8,-2.2 -6.3,2.1 -3.4,4.3 2.8,2.3 6.2,-2.1 3.4,-4.3 z"
             id="path139"
             inkscape:connector-curvature="0"
             style="fill:#ffffff" /><path
             class="st1"
             d="m 276.2,747.8 c 2.7,2.4 6.3,-1.9 3.6,-4.2 -2.7,-2.3 -6.4,1.8 -3.6,4.2 z"
             id="path141"
             inkscape:connector-curvature="0"
             style="fill:#ffffff" /><path
             class="st1"
             d="m 267.9,740.6 c 2.7,2.4 6.4,-1.7 3.7,-4.1 -2.5,-2.4 -6.3,1.6 -3.7,4.1 z"
             id="path143"
             inkscape:connector-curvature="0"
             style="fill:#ffffff" /><path
             class="st1"
             d="m 260.1,733.1 c 2.6,2.5 6.4,-1.5 3.9,-4 -2.6,-2.4 -6.6,1.5 -3.9,4 z"
             id="path145"
             inkscape:connector-curvature="0"
             style="fill:#ffffff" /><path
             class="st1"
             d="m 252.4,725.3 c 2.5,2.6 6.5,-1.3 4,-3.8 -2.4,-2.6 -6.5,1.1 -4,3.8 z"
             id="path147"
             inkscape:connector-curvature="0"
             style="fill:#ffffff" /><path
             class="st1"
             d="m 245.1,717.3 c 2.4,2.7 6.5,-1 4.2,-3.7 -2.4,-2.7 -6.6,0.9 -4.2,3.7 z"
             id="path149"
             inkscape:connector-curvature="0"
             style="fill:#ffffff" /><path
             class="st1"
             d="m 237.9,709 c 2.3,2.8 6.6,-0.8 4.3,-3.5 -2.2,-2.8 -6.5,0.6 -4.3,3.5 z"
             id="path151"
             inkscape:connector-curvature="0"
             style="fill:#ffffff" /><path
             class="st1"
             d="m 231.2,700.4 c 2.2,2.8 6.6,-0.6 4.4,-3.4 -2.2,-2.7 -6.6,0.6 -4.4,3.4 z"
             id="path153"
             inkscape:connector-curvature="0"
             style="fill:#ffffff" /><path
             class="st1"
             d="m 224.7,691.6 c 2.1,2.9 6.6,-0.3 4.5,-3.2 -2,-2.9 -6.6,0.2 -4.5,3.2 z"
             id="path155"
             inkscape:connector-curvature="0"
             style="fill:#ffffff" /><path
             class="st1"
             d="m 218.6,682.7 c 2,3 6.5,-0.1 4.6,-3 -1.9,-3.1 -6.5,-0.1 -4.6,3 z"
             id="path157"
             inkscape:connector-curvature="0"
             style="fill:#ffffff" /><path
             class="st1"
             d="m 212.7,673.4 c 1.9,3 6.6,0.1 4.7,-2.9 -1.7,-3 -6.5,-0.2 -4.7,2.9 z"
             id="path159"
             inkscape:connector-curvature="0"
             style="fill:#ffffff" /><path
             class="st1"
             d="m 212.1,661.3 c -1.8,-3.1 -6.6,-0.4 -4.8,2.7 1.8,3.1 6.6,0.4 4.8,-2.7 z"
             id="path161"
             inkscape:connector-curvature="0"
             style="fill:#ffffff" /><path
             class="st1"
             d="m 207.1,651.8 c -1.6,-3.1 -6.6,-0.7 -4.9,2.5 1.6,3.3 6.5,0.6 4.9,-2.5 z"
             id="path163"
             inkscape:connector-curvature="0"
             style="fill:#ffffff" /><path
             class="st1"
             d="m 202.4,642.3 c -1.5,-3.2 -6.5,-0.9 -5,2.4 1.4,3.2 6.4,0.8 5,-2.4 z"
             id="path165"
             inkscape:connector-curvature="0"
             style="fill:#ffffff" /><path
             class="st1"
             d="m 197.9,632.5 c -1.3,-3.3 -6.5,-1.2 -5.1,2.2 1.5,3.2 6.6,1 5.1,-2.2 z"
             id="path167"
             inkscape:connector-curvature="0"
             style="fill:#ffffff" /><path
             class="st1"
             d="m 194,622.6 c -1.3,-3.3 -6.5,-1.4 -5.2,2 1.3,3.3 6.5,1.2 5.2,-2 z"
             id="path169"
             inkscape:connector-curvature="0"
             style="fill:#ffffff" /><path
             class="st1"
             d="m 190.3,612.4 c -1.1,-3.3 -6.4,-1.6 -5.2,1.8 1.1,3.5 6.4,1.6 5.2,-1.8 z"
             id="path171"
             inkscape:connector-curvature="0"
             style="fill:#ffffff" /><path
             class="st1"
             d="m 187,602.3 c -1,-3.4 -6.3,-1.9 -5.3,1.6 0.5,1.7 2.1,2.2 3.4,1.8 1.3,-0.4 2.4,-1.7 1.9,-3.4 z"
             id="path173"
             inkscape:connector-curvature="0"
             style="fill:#ffffff" /><path
             class="st1"
             d="m 184.1,592 c -0.5,-1.7 -2,-2.2 -3.4,-1.9 -1.4,0.3 -2.5,1.6 -2,3.3 1,3.5 6.3,2 5.4,-1.4 z"
             id="path175"
             inkscape:connector-curvature="0"
             style="fill:#ffffff" /><path
             class="st1"
             d="m 181.6,581.6 c -0.8,-3.4 -6.2,-2.3 -5.4,1.2 0.8,3.6 6.2,2.3 5.4,-1.2 z"
             id="path177"
             inkscape:connector-curvature="0"
             style="fill:#ffffff" /><path
             class="st1"
             d="m 179.4,571.1 c -0.6,-3.5 -6.1,-2.5 -5.5,1 0.7,3.6 6.1,2.5 5.5,-1 z"
             id="path179"
             inkscape:connector-curvature="0"
             style="fill:#ffffff" /><path
             class="st1"
             d="m 177.5,560.6 c -0.4,-3.5 -5.9,-2.8 -5.5,0.8 0.7,3.6 6.1,2.7 5.5,-0.8 z"
             id="path181"
             inkscape:connector-curvature="0"
             style="fill:#ffffff" /><path
             class="st1"
             d="m 176.2,549.9 c -0.4,-3.5 -6,-3 -5.5,0.6 0.4,3.6 5.9,2.9 5.5,-0.6 z"
             id="path183"
             inkscape:connector-curvature="0"
             style="fill:#ffffff" /><path
             class="st1"
             d="m 175.2,539.3 c -0.3,-3.5 -5.8,-3.2 -5.5,0.4 0.2,3.7 5.7,3.1 5.5,-0.4 z"
             id="path185"
             inkscape:connector-curvature="0"
             style="fill:#ffffff" /><path
             class="st1"
             d="m 174.5,528.6 c -0.1,-3.5 -5.6,-3.4 -5.5,0.2 0,1.8 1.5,2.6 2.9,2.6 1.3,-0.1 2.6,-1 2.6,-2.8 z"
             id="path187"
             inkscape:connector-curvature="0"
             style="fill:#ffffff" /><path
             class="st1"
             d="m 174.2,517.9 c -0.1,-3.5 -5.6,-3.6 -5.5,0 0,3.7 5.6,3.6 5.5,0 z"
             id="path189"
             inkscape:connector-curvature="0"
             style="fill:#ffffff" /><path
             class="st1"
             d="m 174.3,507.2 c 0.1,-3.5 -5.5,-3.8 -5.5,-0.1 -0.1,3.5 5.4,3.6 5.5,0.1 z"
             id="path191"
             inkscape:connector-curvature="0"
             style="fill:#ffffff" /><path
             class="st1"
             d="m 174.8,496.5 c 0.3,-3.5 -5.3,-3.9 -5.5,-0.3 -0.4,3.6 5.2,3.9 5.5,0.3 z"
             id="path193"
             inkscape:connector-curvature="0"
             style="fill:#ffffff" /><path
             class="st1"
             d="m 175.6,485.8 c 0.1,-1.8 -1.1,-2.8 -2.5,-2.9 -1.4,-0.1 -2.9,0.6 -3,2.4 -0.3,3.6 5.2,4 5.5,0.5 z"
             id="path195"
             inkscape:connector-curvature="0"
             style="fill:#ffffff" /><path
             class="st1"
             d="m 176.8,475.2 c 0.4,-3.5 -5,-4.3 -5.5,-0.7 -0.4,3.6 5.1,4.2 5.5,0.7 z"
             id="path197"
             inkscape:connector-curvature="0"
             style="fill:#ffffff" /><path
             class="st1"
             d="m 178.5,464.6 c 0.6,-3.5 -4.8,-4.5 -5.5,-0.9 -0.7,3.5 4.8,4.4 5.5,0.9 z"
             id="path199"
             inkscape:connector-curvature="0"
             style="fill:#ffffff" /><path
             class="st1"
             d="m 180.4,454.1 c 0.8,-3.4 -4.6,-4.6 -5.4,-1.1 -0.8,3.5 4.7,4.6 5.4,1.1 z"
             id="path201"
             inkscape:connector-curvature="0"
             style="fill:#ffffff" /><path
             class="st1"
             d="m 182.8,443.6 c 0.8,-3.4 -4.6,-4.8 -5.4,-1.3 -0.8,3.5 4.6,4.8 5.4,1.3 z"
             id="path203"
             inkscape:connector-curvature="0"
             style="fill:#ffffff" /><path
             class="st1"
             d="m 185.5,433.3 c 1,-3.4 -4.3,-5 -5.3,-1.5 -1,3.5 4.4,4.9 5.3,1.5 z"
             id="path205"
             inkscape:connector-curvature="0"
             style="fill:#ffffff" /><path
             class="st1"
             d="m 188.6,423 c 1.1,-3.3 -4.1,-5.1 -5.3,-1.7 -1.1,3.5 4.2,5.1 5.3,1.7 z"
             id="path207"
             inkscape:connector-curvature="0"
             style="fill:#ffffff" /><path
             class="st1"
             d="m 192,413 c 1.2,-3.3 -4,-5.3 -5.2,-1.9 -1.2,3.4 4.1,5.2 5.2,1.9 z"
             id="path209"
             inkscape:connector-curvature="0"
             style="fill:#ffffff" /><path
             class="st1"
             d="m 195.9,402.9 c 1.3,-3.3 -3.8,-5.4 -5.1,-2.1 -1.3,3.4 3.8,5.4 5.1,2.1 z"
             id="path211"
             inkscape:connector-curvature="0"
             style="fill:#ffffff" /><path
             class="st1"
             d="m 200.1,393.1 c 1.5,-3.2 -3.6,-5.6 -5.1,-2.3 -1.5,3.4 3.6,5.5 5.1,2.3 z"
             id="path213"
             inkscape:connector-curvature="0"
             style="fill:#ffffff" /><path
             class="st1"
             d="m 200.9,384.5 c 1.2,0.6 2.9,0.4 3.7,-1.2 1.6,-3.1 -3.3,-5.7 -5,-2.4 -0.8,1.6 0.1,3 1.3,3.6 z"
             id="path215"
             inkscape:connector-curvature="0"
             style="fill:#ffffff" /><path
             class="st1"
             d="m 209.5,373.9 c 0.8,-1.6 0,-3 -1.2,-3.7 -1.2,-0.7 -2.9,-0.6 -3.7,1.1 -1.7,3.2 3.3,5.7 4.9,2.6 z"
             id="path217"
             inkscape:connector-curvature="0"
             style="fill:#ffffff" /><path
             class="st1"
             d="m 214.8,364.5 c 1.8,-3.1 -3,-5.9 -4.8,-2.8 -1.8,3.2 3,5.9 4.8,2.8 z"
             id="path219"
             inkscape:connector-curvature="0"
             style="fill:#ffffff" /><path
             class="st1"
             d="m 220.3,355.4 c 1.9,-3 -2.7,-6 -4.7,-3 -2,3.1 2.8,6 4.7,3 z"
             id="path221"
             inkscape:connector-curvature="0"
             style="fill:#ffffff" /><path
             class="st1"
             d="m 226.1,346.4 c 2,-2.9 -2.5,-6.1 -4.6,-3.1 -1.1,1.5 -0.4,3 0.8,3.8 1.2,0.7 2.8,0.7 3.8,-0.7 z"
             id="path223"
             inkscape:connector-curvature="0"
             style="fill:#ffffff" /><path
             class="st1"
             d="m 232.3,337.7 c 2,-2.9 -2.4,-6.2 -4.5,-3.3 -2,3 2.5,6.2 4.5,3.3 z"
             id="path225"
             inkscape:connector-curvature="0"
             style="fill:#ffffff" /><path
             class="st1"
             d="m 238.9,329.2 c 2.2,-2.8 -2.1,-6.3 -4.3,-3.4 -2.3,2.8 2.1,6.1 4.3,3.4 z"
             id="path227"
             inkscape:connector-curvature="0"
             style="fill:#ffffff" /><path
             class="st1"
             d="m 241.4,317.3 c -2.4,2.7 1.9,6.3 4.2,3.6 2.3,-2.6 -1.8,-6.3 -4.2,-3.6 z"
             id="path229"
             inkscape:connector-curvature="0"
             style="fill:#ffffff" /><path
             class="st1"
             d="m 248.6,309.1 c -2.4,2.7 1.7,6.4 4.1,3.7 2.4,-2.5 -1.6,-6.3 -4.1,-3.7 z"
             id="path231"
             inkscape:connector-curvature="0"
             style="fill:#ffffff" /><path
             class="st1"
             d="m 256.1,301.2 c -2.5,2.6 1.5,6.4 4,3.9 2.4,-2.5 -1.5,-6.5 -4,-3.9 z"
             id="path233"
             inkscape:connector-curvature="0"
             style="fill:#ffffff" /><path
             class="st1"
             d="m 263.9,293.6 c -2.6,2.5 1.3,6.5 3.8,4 2.6,-2.4 -1.1,-6.5 -3.8,-4 z"
             id="path235"
             inkscape:connector-curvature="0"
             style="fill:#ffffff" /><path
             class="st1"
             d="m 271.9,286.3 c -2.7,2.4 1,6.5 3.7,4.2 2.7,-2.4 -0.9,-6.6 -3.7,-4.2 z"
             id="path237"
             inkscape:connector-curvature="0"
             style="fill:#ffffff" /><path
             class="st1"
             d="m 280.2,279.1 c -2.8,2.3 0.8,6.6 3.5,4.3 2.8,-2.2 -0.6,-6.5 -3.5,-4.3 z"
             id="path239"
             inkscape:connector-curvature="0"
             style="fill:#ffffff" /><path
             class="st1"
             d="m 288.8,272.4 c -2.8,2.2 0.6,6.6 3.4,4.4 2.7,-2.2 -0.6,-6.6 -3.4,-4.4 z"
             id="path241"
             inkscape:connector-curvature="0"
             style="fill:#ffffff" /><path
             class="st1"
             d="m 297.6,265.9 c -2.9,2.1 0.3,6.6 3.2,4.5 2.9,-2 -0.2,-6.6 -3.2,-4.5 z"
             id="path243"
             inkscape:connector-curvature="0"
             style="fill:#ffffff" /><path
             class="st1"
             d="m 306.5,259.8 c -3,2 0.1,6.5 3,4.6 3.1,-1.9 0.1,-6.6 -3,-4.6 z"
             id="path245"
             inkscape:connector-curvature="0"
             style="fill:#ffffff" /><path
             class="st1"
             d="m 315.8,253.9 c -3,1.9 -0.1,6.6 2.9,4.7 3,-1.7 0.2,-6.5 -2.9,-4.7 z"
             id="path247"
             inkscape:connector-curvature="0"
             style="fill:#ffffff" /><path
             class="st1"
             d="m 325.2,248.5 c -3.1,1.8 -0.4,6.6 2.7,4.8 3,-1.7 0.4,-6.6 -2.7,-4.8 z"
             id="path249"
             inkscape:connector-curvature="0"
             style="fill:#ffffff" /><path
             class="st1"
             d="m 334.9,243.3 c -3.2,1.6 -0.6,6.5 2.5,4.9 3.1,-1.5 0.7,-6.5 -2.5,-4.9 z"
             id="path251"
             inkscape:connector-curvature="0"
             style="fill:#ffffff" /><path
             class="st1"
             d="m 344.6,238.5 c -3.3,1.5 -0.9,6.5 2.4,5 3.1,-1.4 0.9,-6.5 -2.4,-5 z"
             id="path253"
             inkscape:connector-curvature="0"
             style="fill:#ffffff" /><path
             class="st1"
             d="m 354.6,234 c -3.3,1.5 -1,6.6 2.2,5.1 3.2,-1.3 1.1,-6.5 -2.2,-5.1 z"
             id="path255"
             inkscape:connector-curvature="0"
             style="fill:#ffffff" /><path
             class="st1"
             d="m 364.6,230 c -3.4,1.3 -1.3,6.5 2,5.2 3.3,-1.3 1.4,-6.5 -2,-5.2 z"
             id="path257"
             inkscape:connector-curvature="0"
             style="fill:#ffffff" /><path
             class="st1"
             d="m 375,226.3 c -3.4,1.2 -1.5,6.4 1.8,5.2 3.3,-1.1 1.6,-6.4 -1.8,-5.2 z"
             id="path259"
             inkscape:connector-curvature="0"
             style="fill:#ffffff" /><path
             class="st1"
             d="m 385.3,222.9 c -1.7,0.5 -2.2,2.1 -1.8,3.4 0.4,1.3 1.7,2.4 3.4,1.9 3.4,-1 1.8,-6.3 -1.6,-5.3 z"
             id="path261"
             inkscape:connector-curvature="0"
             style="fill:#ffffff" /><path
             class="st1"
             d="m 399.1,221.9 c -0.3,-1.4 -1.6,-2.5 -3.3,-2 -3.5,1 -2,6.3 1.4,5.4 1.7,-0.5 2.2,-2.1 1.9,-3.4 z"
             id="path263"
             inkscape:connector-curvature="0"
             style="fill:#ffffff" /><path
             class="st1"
             d="m 406.4,217.4 c -3.5,0.8 -2.2,6.2 1.2,5.4 3.4,-0.8 2.3,-6.2 -1.2,-5.4 z"
             id="path265"
             inkscape:connector-curvature="0"
             style="fill:#ffffff" /><path
             class="st1"
             d="m 417.1,215.1 c -3.6,0.6 -2.4,6.1 1,5.5 3.5,-0.6 2.5,-6.1 -1,-5.5 z"
             id="path267"
             inkscape:connector-curvature="0"
             style="fill:#ffffff" /><path
             class="st1"
             d="m 427.8,213.2 c -3.6,0.6 -2.6,6.1 0.8,5.5 3.5,-0.4 2.7,-5.9 -0.8,-5.5 z"
             id="path269"
             inkscape:connector-curvature="0"
             style="fill:#ffffff" /><path
             class="st1"
             d="m 438.6,211.9 c -3.6,0.5 -2.9,6 0.6,5.5 3.6,-0.5 3,-6 -0.6,-5.5 z"
             id="path271"
             inkscape:connector-curvature="0"
             style="fill:#ffffff" /><path
             class="st1"
             d="m 449.4,210.8 c -3.6,0.3 -3.1,5.8 0.4,5.5 3.6,-0.2 3.2,-5.7 -0.4,-5.5 z"
             id="path273"
             inkscape:connector-curvature="0"
             style="fill:#ffffff" /><path
             class="st1"
             d="m 460.4,210.1 c -1.8,0 -2.6,1.5 -2.6,2.9 0.1,1.4 1,2.7 2.8,2.7 3.5,-0.1 3.4,-5.7 -0.2,-5.6 z"
             id="path275"
             inkscape:connector-curvature="0"
             style="fill:#ffffff" /><path
             class="st1"
             d="m 471.2,209.8 c -3.6,0.1 -3.5,5.6 0.1,5.5 3.5,0 3.5,-5.6 -0.1,-5.5 z"
             id="path277"
             inkscape:connector-curvature="0"
             style="fill:#ffffff" /><path
             class="st1"
             d="m 482.2,210 c -3.6,-0.1 -3.7,5.5 -0.1,5.5 3.4,0.1 3.7,-5.4 0.1,-5.5 z"
             id="path279"
             inkscape:connector-curvature="0"
             style="fill:#ffffff" /><path
             class="st1"
             d="m 493,210.4 c -3.6,-0.3 -3.9,5.3 -0.3,5.5 3.5,0.3 3.9,-5.2 0.3,-5.5 z"
             id="path281"
             inkscape:connector-curvature="0"
             style="fill:#ffffff" /><path
             class="st1"
             d="m 503.9,211.2 c -3.6,-0.3 -4.1,5.3 -0.5,5.5 1.8,0.1 2.8,-1.1 2.9,-2.5 0.2,-1.3 -0.6,-2.8 -2.4,-3 z"
             id="path283"
             inkscape:connector-curvature="0"
             style="fill:#ffffff" /><path
             class="st1"
             d="m 514.7,212.5 c -3.6,-0.5 -4.2,5.1 -0.7,5.5 3.5,0.5 4.3,-5 0.7,-5.5 z"
             id="path285"
             inkscape:connector-curvature="0"
             style="fill:#ffffff" /><path
             class="st1"
             d="m 525.5,214.2 c -3.6,-0.6 -4.4,4.8 -0.9,5.5 3.5,0.6 4.5,-4.9 0.9,-5.5 z"
             id="path287"
             inkscape:connector-curvature="0"
             style="fill:#ffffff" /><path
             class="st1"
             d="m 536.2,216.1 c -3.5,-0.7 -4.6,4.8 -1.1,5.4 3.4,0.8 4.6,-4.6 1.1,-5.4 z"
             id="path289"
             inkscape:connector-curvature="0"
             style="fill:#ffffff" /><path
             class="st1"
             d="m 546.9,218.6 c -3.5,-0.8 -4.8,4.6 -1.3,5.4 3.4,0.8 4.8,-4.6 1.3,-5.4 z"
             id="path291"
             inkscape:connector-curvature="0"
             style="fill:#ffffff" /><path
             class="st1"
             d="m 557.4,221.4 c -3.5,-1 -4.9,4.4 -1.5,5.3 3.3,1 4.9,-4.3 1.5,-5.3 z"
             id="path293"
             inkscape:connector-curvature="0"
             style="fill:#ffffff" /><path
             class="st1"
             d="m 567.9,224.5 c -3.4,-1.2 -5,4.1 -1.7,5.3 3.3,1.1 5.1,-4.1 1.7,-5.3 z"
             id="path295"
             inkscape:connector-curvature="0"
             style="fill:#ffffff" /><path
             class="st1"
             d="m 578.1,228 c -3.4,-1.2 -5.2,4.1 -1.9,5.2 3.3,1.2 5.3,-3.9 1.9,-5.2 z"
             id="path297"
             inkscape:connector-curvature="0"
             style="fill:#ffffff" /><path
             class="st1"
             d="m 588.4,232 c -3.4,-1.3 -5.4,3.8 -2.1,5.1 3.3,1.3 5.4,-3.8 2.1,-5.1 z"
             id="path299"
             inkscape:connector-curvature="0"
             style="fill:#ffffff" /><path
             class="st1"
             d="m 598.3,236.2 c -3.3,-1.5 -5.5,3.6 -2.3,5.1 3.3,1.4 5.6,-3.6 2.3,-5.1 z"
             id="path301"
             inkscape:connector-curvature="0"
             style="fill:#ffffff" /><path
             class="st1"
             d="m 608.3,240.8 c -1.6,-0.8 -3,0 -3.6,1.3 -0.6,1.2 -0.4,2.9 1.2,3.7 3.1,1.6 5.6,-3.3 2.4,-5 z"
             id="path303"
             inkscape:connector-curvature="0"
             style="fill:#ffffff" /><path
             class="st1"
             d="m 617.9,245.8 c -3.2,-1.6 -5.8,3.3 -2.6,4.9 1.6,0.8 3,0 3.7,-1.2 0.7,-1.2 0.5,-2.9 -1.1,-3.7 z"
             id="path305"
             inkscape:connector-curvature="0"
             style="fill:#ffffff" /><path
             class="st1"
             d="m 627.5,251.2 c -3.1,-1.8 -5.9,3 -2.8,4.8 3,1.7 5.9,-3 2.8,-4.8 z"
             id="path307"
             inkscape:connector-curvature="0"
             style="fill:#ffffff" /><path
             class="st1"
             d="m 636.7,256.8 c -3,-1.9 -5.9,2.8 -3,4.7 3.1,1.9 6.1,-2.8 3,-4.7 z"
             id="path309"
             inkscape:connector-curvature="0"
             style="fill:#ffffff" /><path
             class="st1"
             d="m 645.9,262.8 c -1.5,-1.1 -3,-0.4 -3.8,0.8 -0.8,1.2 -0.8,2.7 0.7,3.8 2.9,2 6.1,-2.5 3.1,-4.6 z"
             id="path311"
             inkscape:connector-curvature="0"
             style="fill:#ffffff" /><path
             class="st1"
             d="m 654.8,269 c -2.9,-2.1 -6.2,2.4 -3.3,4.5 2.9,2.1 6.2,-2.4 3.3,-4.5 z"
             id="path313"
             inkscape:connector-curvature="0"
             style="fill:#ffffff" /><path
             class="st1"
             d="m 663.5,275.7 c -2.8,-2.2 -6.2,2.2 -3.4,4.3 2.7,2.2 6.2,-2 3.4,-4.3 z"
             id="path315"
             inkscape:connector-curvature="0"
             style="fill:#ffffff" /><path
             class="st1"
             d="m 671.8,282.6 c -2.7,-2.4 -6.3,1.9 -3.6,4.2 2.7,2.3 6.4,-1.8 3.6,-4.2 z"
             id="path317"
             inkscape:connector-curvature="0"
             style="fill:#ffffff" /><path
             class="st1"
             d="m 680.1,289.8 c -2.7,-2.4 -6.4,1.7 -3.7,4.1 2.5,2.4 6.3,-1.6 3.7,-4.1 z"
             id="path319"
             inkscape:connector-curvature="0"
             style="fill:#ffffff" /><path
             class="st1"
             d="m 688,297.3 c -2.6,-2.5 -6.4,1.5 -3.9,4 2.5,2.4 6.5,-1.5 3.9,-4 z"
             id="path321"
             inkscape:connector-curvature="0"
             style="fill:#ffffff" /><path
             class="st1"
             d="m 695.6,305.1 c -2.5,-2.6 -6.5,1.3 -4,3.8 2.4,2.6 6.5,-1.1 4,-3.8 z"
             id="path323"
             inkscape:connector-curvature="0"
             style="fill:#ffffff" /><path
             class="st1"
             d="m 702.9,313.1 c -2.4,-2.7 -6.5,1 -4.2,3.7 2.4,2.7 6.6,-0.9 4.2,-3.7 z"
             id="path325"
             inkscape:connector-curvature="0"
             style="fill:#ffffff" /><path
             class="st1"
             d="m 710.1,321.4 c -2.3,-2.8 -6.6,0.8 -4.3,3.5 2.2,2.8 6.5,-0.6 4.3,-3.5 z"
             id="path327"
             inkscape:connector-curvature="0"
             style="fill:#ffffff" /><path
             class="st1"
             d="m 716.8,330 c -2.2,-2.8 -6.6,0.6 -4.4,3.4 2.2,2.7 6.6,-0.6 4.4,-3.4 z"
             id="path329"
             inkscape:connector-curvature="0"
             style="fill:#ffffff" /><path
             class="st1"
             d="m 723.3,338.8 c -2.1,-2.9 -6.6,0.3 -4.5,3.2 2,2.9 6.6,-0.3 4.5,-3.2 z"
             id="path331"
             inkscape:connector-curvature="0"
             style="fill:#ffffff" /><path
             class="st1"
             d="m 729.4,347.7 c -2,-3 -6.5,0.1 -4.6,3 1.9,3.1 6.6,0.1 4.6,-3 z"
             id="path333"
             inkscape:connector-curvature="0"
             style="fill:#ffffff" /><path
             class="st1"
             d="m 735.3,357 c -1.9,-3 -6.6,-0.1 -4.7,2.9 1.7,3 6.5,0.2 4.7,-2.9 z"
             id="path335"
             inkscape:connector-curvature="0"
             style="fill:#ffffff" /><path
             class="st1"
             d="m 735.9,369.1 c 1.8,3.1 6.6,0.4 4.8,-2.7 -1.8,-3.2 -6.6,-0.4 -4.8,2.7 z"
             id="path337"
             inkscape:connector-curvature="0"
             style="fill:#ffffff" /><path
             class="st1"
             d="m 740.9,378.6 c 1.6,3.1 6.6,0.7 4.9,-2.5 -1.6,-3.3 -6.5,-0.7 -4.9,2.5 z"
             id="path339"
             inkscape:connector-curvature="0"
             style="fill:#ffffff" /><path
             class="st1"
             d="m 745.6,388.1 c 1.5,3.2 6.5,0.9 5,-2.4 -1.4,-3.2 -6.4,-0.8 -5,2.4 z"
             id="path341"
             inkscape:connector-curvature="0"
             style="fill:#ffffff" /><path
             class="st1"
             d="m 750.1,397.9 c 1.3,3.3 6.5,1.2 5.1,-2.2 -1.5,-3.2 -6.6,-1 -5.1,2.2 z"
             id="path343"
             inkscape:connector-curvature="0"
             style="fill:#ffffff" /><path
             class="st1"
             d="m 754,407.8 c 1.3,3.3 6.5,1.4 5.2,-2 -1.3,-3.3 -6.5,-1.3 -5.2,2 z"
             id="path345"
             inkscape:connector-curvature="0"
             style="fill:#ffffff" /><path
             class="st1"
             d="m 757.7,418 c 1.1,3.3 6.4,1.6 5.2,-1.8 -1.1,-3.5 -6.4,-1.6 -5.2,1.8 z"
             id="path347"
             inkscape:connector-curvature="0"
             style="fill:#ffffff" /><path
             class="st1"
             d="m 761,428.1 c 1,3.4 6.3,1.9 5.3,-1.6 -0.5,-1.7 -2.1,-2.2 -3.4,-1.8 -1.3,0.4 -2.4,1.7 -1.9,3.4 z"
             id="path349"
             inkscape:connector-curvature="0"
             style="fill:#ffffff" /><path
             class="st1"
             d="m 763.9,438.4 c 0.5,1.7 2,2.2 3.4,1.9 1.4,-0.3 2.5,-1.6 2,-3.3 -1,-3.5 -6.3,-2 -5.4,1.4 z"
             id="path351"
             inkscape:connector-curvature="0"
             style="fill:#ffffff" /><path
             class="st1"
             d="m 766.4,448.8 c 0.8,3.4 6.2,2.3 5.4,-1.2 -0.8,-3.6 -6.2,-2.3 -5.4,1.2 z"
             id="path353"
             inkscape:connector-curvature="0"
             style="fill:#ffffff" /><path
             class="st1"
             d="m 768.6,459.3 c 0.6,3.5 6.1,2.5 5.5,-1 -0.7,-3.6 -6.1,-2.5 -5.5,1 z"
             id="path355"
             inkscape:connector-curvature="0"
             style="fill:#ffffff" /><path
             class="st1"
             d="m 770.5,469.8 c 0.4,3.5 5.9,2.8 5.5,-0.8 -0.7,-3.6 -6.1,-2.7 -5.5,0.8 z"
             id="path357"
             inkscape:connector-curvature="0"
             style="fill:#ffffff" /><path
             class="st1"
             d="m 771.8,480.5 c 0.4,3.5 6,3 5.5,-0.6 -0.4,-3.6 -5.9,-2.9 -5.5,0.6 z"
             id="path359"
             inkscape:connector-curvature="0"
             style="fill:#ffffff" /><path
             class="st1"
             d="m 772.8,491.1 c 0.3,3.5 5.8,3.2 5.5,-0.4 -0.2,-3.7 -5.7,-3.2 -5.5,0.4 z"
             id="path361"
             inkscape:connector-curvature="0"
             style="fill:#ffffff" /><path
             class="st1"
             d="m 773.6,501.8 c 0.1,3.5 5.6,3.4 5.5,-0.2 0,-1.8 -1.5,-2.6 -2.9,-2.6 -1.4,0.1 -2.7,1 -2.6,2.8 z"
             id="path363"
             inkscape:connector-curvature="0"
             style="fill:#ffffff" /><path
             class="st1"
             d="m 773.8,512.4 c 0.1,3.5 5.6,3.6 5.5,-0.1 0,-3.5 -5.6,-3.4 -5.5,0.1 z"
             id="path365"
             inkscape:connector-curvature="0"
             style="fill:#ffffff" /></g></g></g></switch></svg>