<?xml version="1.0" encoding="UTF-8" standalone="no"?>
<svg
   xmlns:dc="http://purl.org/dc/elements/1.1/"
   xmlns:cc="http://creativecommons.org/ns#"
   xmlns:rdf="http://www.w3.org/1999/02/22-rdf-syntax-ns#"
   xmlns:svg="http://www.w3.org/2000/svg"
   xmlns="http://www.w3.org/2000/svg"
   xmlns:sodipodi="http://sodipodi.sourceforge.net/DTD/sodipodi-0.dtd"
   xmlns:inkscape="http://www.inkscape.org/namespaces/inkscape"
   version="1.1"
   id="l13"
   x="0px"
   y="0px"
   viewBox="0 0 1000 1000"
   width="100%"
   height="100%"
    class="withFill"
   style="enable-background:new 0 0 1000 1000;"
   xml:space="preserve"
   ><style
     type="text/css"
     id="style3">
	#l13 .st0{fill:#9E9E9E;}
	#l13 .st1{fill:#FFFFFF;}
</style><switch
     id="switch5"
     transform="translate(26.95,21.4)"><g
       id="g7"><g
         id="g9"><g
           id="g11"><path
             class="st0"
             d="m 836.2,500.8 c 0.2,-0.2 2.7,-8.9 5.9,-12.3 0.1,-3.3 0.1,-6.6 0.1,-10 0,-5.9 -0.2,-11.7 -0.4,-17.6 -1.2,-1.3 -2.3,-3.2 -3.3,-5.2 -1.7,-3.3 -2.8,-6.7 -2.8,-6.9 0,-0.2 0.6,-3.7 1.7,-7.2 0.6,-2.1 1.4,-4.3 2.4,-5.7 -1.1,-9.2 -2.4,-18.3 -4.2,-27.2 -1.4,-1.1 -2.8,-2.9 -4,-4.7 -2.2,-3.1 -3.8,-6.2 -3.8,-6.4 0,-0.2 0,-3.7 0.6,-7.4 0.4,-2.2 0.9,-4.4 1.6,-6 -2.4,-8.9 -5,-17.7 -8,-26.4 -1.5,-0.9 -3.2,-2.5 -4.7,-4.1 -2.5,-2.8 -4.6,-5.6 -4.7,-5.8 -0.1,-0.1 -0.5,-3.7 -0.5,-7.4 0,-1.9 0.2,-3.8 0.6,-5.3 0.1,-0.3 0.1,-0.5 0.2,-0.8 -3.6,-8.5 -7.5,-16.8 -11.7,-24.9 -1.6,-0.6 -3.5,-2 -5.2,-3.4 -2.8,-2.4 -5.4,-4.9 -5.4,-5.1 -0.1,-0.1 -1,-3.6 -1.5,-7.3 -0.3,-2.2 -0.4,-4.5 -0.1,-6.2 -4.8,-7.9 -9.8,-15.5 -15.1,-23 -1.7,-0.4 -3.8,-1.5 -5.7,-2.7 -3.1,-2 -6,-4.1 -6.1,-4.3 -0.1,-0.1 -1.5,-3.4 -2.6,-7 -0.6,-2.1 -1.1,-4.4 -1,-6.1 -5.8,-7.1 -11.9,-14 -18.3,-20.6 -4.6,-0.4 -12.3,-5.1 -12.6,-5.2 -0.1,-0.1 -2,-3.1 -3.5,-6.5 -0.9,-2 -1.7,-4.2 -1.8,-5.9 -6.8,-6.2 -13.8,-12.2 -21,-17.9 -4.7,0.3 -12.9,-3.3 -13.2,-3.3 -0.1,-0.1 -2.4,-2.8 -4.4,-5.9 -1.2,-1.9 -2.2,-3.9 -2.7,-5.6 -7.6,-5.2 -15.3,-10.1 -23.3,-14.7 -4.6,1 -13.3,-1.5 -13.5,-1.4 -0.1,-0.1 -2.8,-2.4 -5.2,-5.2 -1.4,-1.7 -2.8,-3.5 -3.5,-5.2 -8.2,-4 -16.6,-7.8 -25.2,-11.2 -1.7,0.6 -4,0.8 -6.2,0.9 -3.7,0 -7.2,-0.4 -7.4,-0.4 -0.2,-0.1 -3.1,-2 -5.9,-4.4 -1.7,-1.5 -3.3,-3.1 -4.2,-4.6 -8.7,-2.8 -17.5,-5.3 -26.5,-7.5 -1.6,0.8 -3.8,1.4 -6,1.8 -3.7,0.6 -7.2,0.7 -7.3,0.6 -0.1,-0.1 -3.4,-1.5 -6.5,-3.5 -1.9,-1.2 -3.7,-2.6 -4.8,-4 -9,-1.5 -18.1,-2.7 -27.3,-3.6 -1.4,1 -3.5,1.9 -5.7,2.6 -3.5,1.1 -7,1.8 -7.2,1.7 -0.2,-0.2 -8.9,-2.7 -12.3,-5.9 -3.3,-0.1 -6.6,-0.1 -10,-0.1 -5.9,0 -11.7,0.2 -17.6,0.4 -1.3,1.2 -3.2,2.3 -5.2,3.3 -3.3,1.7 -6.7,2.8 -6.9,2.8 -0.2,0 -3.7,-0.6 -7.2,-1.7 -2.1,-0.6 -4.3,-1.4 -5.7,-2.4 -9.2,1.1 -18.3,2.4 -27.2,4.2 -1.1,1.4 -2.9,2.8 -4.7,4 -3.1,2.2 -6.2,3.8 -6.4,3.8 -0.2,0 -3.7,0 -7.4,-0.6 -2.2,-0.4 -4.4,-0.9 -6,-1.6 -8.9,2.4 -17.7,5 -26.4,8 -0.9,1.5 -2.5,3.2 -4.1,4.7 -2.8,2.5 -5.6,4.6 -5.8,4.7 -0.1,0.1 -3.7,0.5 -7.4,0.5 -1.9,0 -3.8,-0.2 -5.3,-0.6 -0.3,-0.1 -0.5,-0.1 -0.8,-0.2 -8.5,3.6 -16.8,7.5 -24.9,11.7 -0.6,1.6 -2,3.5 -3.4,5.2 -2.4,2.8 -4.9,5.4 -5.1,5.4 -0.1,0.1 -3.6,1 -7.3,1.5 -2.2,0.3 -4.5,0.4 -6.2,0.1 -7.9,4.8 -15.5,9.8 -23,15.1 -0.4,1.7 -1.5,3.8 -2.7,5.7 -2,3.1 -4.1,6 -4.3,6.1 -0.1,0.1 -3.4,1.5 -7,2.6 -2.1,0.6 -4.4,1 -6.1,1 -7.1,5.8 -14,11.9 -20.6,18.3 -0.4,4.6 -5.1,12.3 -5.2,12.6 -0.1,0.1 -3.1,2 -6.5,3.5 -2,0.9 -4.2,1.7 -5.9,1.8 -6.2,6.8 -12.2,13.8 -17.9,21 0.3,4.7 -3.3,12.9 -3.3,13.2 -0.1,0.1 -2.8,2.4 -5.9,4.4 -1.9,1.2 -3.9,2.2 -5.6,2.7 -5.2,7.6 -10.1,15.3 -14.7,23.3 1,4.6 -1.5,13.3 -1.4,13.5 -0.1,0.1 -2.4,2.8 -5.2,5.2 -1.7,1.4 -3.5,2.8 -5.2,3.5 -4,8.2 -7.8,16.6 -11.2,25.2 0.6,1.7 0.8,4 0.9,6.2 0,3.7 -0.4,7.2 -0.4,7.4 -0.1,0.2 -2,3.1 -4.4,5.9 -1.5,1.7 -3.1,3.3 -4.6,4.2 -2.8,8.7 -5.3,17.5 -7.5,26.5 0.8,1.6 1.4,3.8 1.8,6 0.6,3.7 0.7,7.2 0.6,7.4 -0.1,0.1 -1.5,3.4 -3.5,6.5 -1.2,1.9 -2.6,3.7 -4,4.8 -1.5,9 -2.7,18.1 -3.6,27.3 1,1.4 1.9,3.5 2.6,5.7 1.1,3.5 1.8,7 1.7,7.2 -0.2,0.2 -2.7,8.9 -5.9,12.3 -0.1,3.3 -0.1,6.6 -0.1,10 0,5.9 0.2,11.7 0.4,17.6 1.2,1.3 2.3,3.2 3.3,5.2 1.7,3.3 2.8,6.7 2.8,6.9 0,0.2 -0.6,3.7 -1.7,7.2 -0.6,2.1 -1.4,4.3 -2.4,5.7 1.1,9.2 2.4,18.3 4.2,27.2 1.4,1.1 2.8,2.9 4,4.7 2.2,3.1 3.8,6.2 3.8,6.4 0,0.2 0,3.7 -0.6,7.4 -0.4,2.2 -0.9,4.4 -1.6,6 2.4,8.9 5,17.7 8,26.4 1.5,0.9 3.2,2.5 4.7,4.1 2.5,2.8 4.6,5.6 4.7,5.8 0.1,0.1 0.5,3.7 0.5,7.4 0,1.9 -0.2,3.8 -0.6,5.3 -0.1,0.3 -0.1,0.5 -0.2,0.8 3.6,8.5 7.5,16.8 11.7,24.9 1.6,0.6 3.5,2 5.2,3.4 2.8,2.4 5.4,4.9 5.4,5.1 0.1,0.1 1,3.6 1.5,7.3 0.3,2.2 0.4,4.5 0.1,6.2 4.8,7.9 9.8,15.5 15.1,23 1.7,0.4 3.8,1.5 5.7,2.7 3.1,2 6,4.1 6.1,4.3 0.1,0.1 1.5,3.4 2.6,7 0.6,2.1 1.1,4.4 1,6.1 5.8,7.1 11.9,14 18.3,20.6 4.6,0.4 12.3,5.1 12.6,5.2 0.1,0.1 2,3.1 3.5,6.5 0.9,2 1.7,4.2 1.8,5.9 6.8,6.2 13.8,12.2 21,17.9 4.7,-0.3 12.9,3.3 13.2,3.3 0.1,0.1 2.4,2.8 4.4,5.9 1.2,1.9 2.2,3.9 2.7,5.6 7.6,5.2 15.3,10.1 23.3,14.7 4.6,-1 13.3,1.5 13.5,1.4 0.1,0.1 2.8,2.4 5.2,5.2 1.4,1.7 2.8,3.5 3.5,5.2 8.2,4 16.6,7.8 25.2,11.2 1.7,-0.6 4,-0.8 6.2,-0.9 3.7,0 7.2,0.4 7.4,0.4 0.2,0.1 3.1,2 5.9,4.4 1.7,1.5 3.3,3.1 4.2,4.6 8.7,2.8 17.5,5.3 26.5,7.5 1.6,-0.8 3.8,-1.4 6,-1.8 3.7,-0.6 7.2,-0.7 7.3,-0.6 0.1,0.1 3.4,1.5 6.5,3.5 1.9,1.2 3.7,2.6 4.8,4 9,1.5 18.1,2.7 27.3,3.6 1.4,-1 3.5,-1.9 5.7,-2.6 3.5,-1.1 7,-1.8 7.2,-1.7 0.2,0.2 8.9,2.7 12.3,5.9 3.3,0.1 6.6,0.1 10,0.1 5.9,0 11.7,-0.2 17.6,-0.4 1.3,-1.2 3.2,-2.3 5.2,-3.3 3.3,-1.7 6.7,-2.8 6.9,-2.8 0.2,0 3.7,0.6 7.2,1.7 2.1,0.6 4.3,1.4 5.7,2.4 9.2,-1.1 18.3,-2.4 27.2,-4.2 1.1,-1.4 2.9,-2.8 4.7,-4 3.1,-2.2 6.2,-3.8 6.4,-3.8 0.2,0 3.7,0 7.4,0.6 2.2,0.4 4.4,0.9 6,1.6 8.9,-2.4 17.7,-5 26.4,-8 0.9,-1.5 2.5,-3.2 4.1,-4.7 2.8,-2.5 5.6,-4.6 5.8,-4.7 0.1,-0.1 3.7,-0.5 7.4,-0.5 1.9,0 3.8,0.2 5.3,0.6 0.3,0.1 0.5,0.1 0.8,0.2 8.5,-3.6 16.8,-7.5 24.9,-11.7 0.6,-1.6 2,-3.5 3.4,-5.2 2.4,-2.8 4.9,-5.4 5.1,-5.4 0.1,-0.1 3.6,-1 7.3,-1.5 2.2,-0.3 4.5,-0.4 6.2,-0.1 7.9,-4.8 15.5,-9.8 23,-15.1 0.4,-1.7 1.5,-3.8 2.7,-5.7 2,-3.1 4.1,-6 4.3,-6.1 0.1,-0.1 3.4,-1.5 7,-2.6 2.1,-0.6 4.4,-1.1 6.1,-1 7.1,-5.8 14,-11.9 20.6,-18.3 0.4,-4.6 5.1,-12.3 5.2,-12.6 0.1,-0.1 3.1,-2 6.5,-3.5 2,-0.9 4.2,-1.7 5.9,-1.8 6.2,-6.8 12.2,-13.8 17.9,-21 -0.3,-4.7 3.3,-12.9 3.3,-13.2 0.1,-0.1 2.8,-2.4 5.9,-4.4 1.9,-1.2 3.9,-2.2 5.6,-2.7 5.2,-7.6 10.1,-15.3 14.7,-23.3 -1,-4.6 1.5,-13.3 1.4,-13.5 0.1,-0.1 2.4,-2.8 5.2,-5.2 1.7,-1.4 3.5,-2.8 5.2,-3.5 4,-8.2 7.8,-16.6 11.2,-25.2 -0.6,-1.7 -0.8,-4 -0.9,-6.2 0,-3.7 0.4,-7.2 0.4,-7.4 0.1,-0.2 2,-3.1 4.4,-5.9 1.5,-1.7 3.1,-3.3 4.6,-4.2 2.8,-8.7 5.3,-17.5 7.5,-26.5 -0.8,-1.6 -1.4,-3.8 -1.8,-6 -0.6,-3.7 -0.7,-7.2 -0.6,-7.3 0.1,-0.1 1.5,-3.4 3.5,-6.5 1.2,-1.9 2.6,-3.7 4,-4.8 1.5,-9 2.7,-18.1 3.6,-27.3 -1,-1.4 -1.9,-3.5 -2.6,-5.7 -1.1,-3.6 -1.7,-7.1 -1.7,-7.3 z"
             id="path13"
             inkscape:connector-curvature="0"
             style="fill:#9e9e9e" /></g><g
           id="g15"><path
             class="st1"
             d="m 806.9,486.5 c -0.3,-0.1 -0.5,-0.2 -0.8,-0.2 -3.9,0 -7.3,12 -7.5,12.2 0,0.1 0.5,3.3 1.6,6.4 1,3.2 2.5,6.4 4.5,6.6 0.2,0 0.5,0 0.7,-0.1 3.6,-1 7.2,-11.8 7.2,-12.1 0.2,-0.2 -2.2,-11.3 -5.7,-12.8 z"
             id="path17"
             inkscape:connector-curvature="0"
             style="fill:#ffffff" /><path
             class="st1"
             d="m 795.7,538.8 c -1.8,2.8 -3.1,5.7 -3.1,5.8 0,0.1 0,3.3 0.6,6.6 0.5,3.3 1.5,6.7 3.4,7.1 0.2,0.1 0.5,0.1 0.7,0 3.7,-0.5 8.9,-10.7 8.9,-11 0.1,-0.3 -0.7,-11.7 -3.9,-13.6 -0.2,-0.1 -0.5,-0.2 -0.7,-0.3 -1.8,-0.1 -4.1,2.6 -5.9,5.4 z"
             id="path19"
             inkscape:connector-curvature="0"
             style="fill:#ffffff" /><path
             class="st1"
             d="m 783.9,584.2 c -2.2,2.5 -3.9,5.2 -4,5.3 0,0.2 -0.4,3.3 -0.3,6.6 0.1,3.3 0.5,6.8 2.3,7.6 0.2,0.1 0.5,0.1 0.7,0.1 3.8,0 10.4,-9.2 10.4,-9.6 0.1,-0.3 1.1,-11.7 -1.9,-14 -0.2,-0.2 -0.4,-0.3 -0.6,-0.3 -1.8,-0.6 -4.4,1.8 -6.6,4.3 z"
             id="path21"
             inkscape:connector-curvature="0"
             style="fill:#ffffff" /><path
             class="st1"
             d="m 765.7,627.3 c -2.5,2.2 -4.6,4.6 -4.7,4.7 0,0.3 -3.4,12.3 0,14.3 0.2,0.1 0.5,0.2 0.7,0.2 3.7,0.5 11.7,-7.6 11.6,-8 0.1,-0.3 2.8,-11.4 0.2,-14.1 -0.2,-0.2 -0.4,-0.3 -0.6,-0.4 -1.7,-0.8 -4.7,1.2 -7.2,3.3 z"
             id="path23"
             inkscape:connector-curvature="0"
             style="fill:#ffffff" /><path
             class="st1"
             d="m 741.5,667.4 c -2.8,1.8 -5.2,3.8 -5.3,4 0,0.3 -5.1,11.7 -2.1,14.2 0.2,0.2 0.4,0.3 0.7,0.3 3.6,1.1 12.6,-5.9 12.6,-6.2 0.2,-0.2 4.4,-10.9 2.2,-14 -0.1,-0.2 -0.3,-0.4 -0.5,-0.5 -1.6,-1.1 -4.8,0.5 -7.6,2.2 z"
             id="path25"
             inkscape:connector-curvature="0"
             style="fill:#ffffff" /><path
             class="st1"
             d="m 711.9,703.7 c -3,1.4 -5.7,3.1 -5.8,3.2 -0.1,0.3 -6.7,10.9 -4.1,13.7 0.2,0.2 0.4,0.3 0.6,0.4 3.4,1.6 13.3,-4.1 13.4,-4.4 0.2,-0.2 5.9,-10.2 4.2,-13.5 -0.1,-0.2 -0.2,-0.4 -0.4,-0.6 -1.5,-1.2 -4.9,-0.2 -7.9,1.2 z"
             id="path27"
             inkscape:connector-curvature="0"
             style="fill:#ffffff" /><path
             class="st1"
             d="m 677.4,735.4 c -3.2,0.9 -6.1,2.2 -6.2,2.3 -0.1,0.1 -2,2.7 -3.8,5.4 -1.8,2.8 -3.3,6 -2.1,7.6 0.2,0.2 0.4,0.4 0.6,0.5 1.5,0.9 4.5,0.6 7.4,-0.2 3.4,-0.8 6.3,-2.2 6.5,-2.3 0.2,-0.2 7.3,-9.2 6,-12.8 -0.1,-0.2 -0.2,-0.4 -0.3,-0.6 -1.4,-1.3 -4.9,-0.8 -8.1,0.1 z"
             id="path29"
             inkscape:connector-curvature="0"
             style="fill:#ffffff" /><path
             class="st1"
             d="m 638.8,761.9 c -3.3,0.4 -6.4,1.3 -6.5,1.4 -0.1,0 -2.4,2.4 -4.5,4.9 -2.1,2.5 -4.1,5.5 -3.2,7.2 0.1,0.2 0.3,0.4 0.5,0.6 1.3,1.1 4.4,1.2 7.4,0.9 3.4,-0.3 6.6,-1.3 6.7,-1.4 0.3,-0.2 8.6,-8.1 7.8,-11.8 0,-0.2 -0.1,-0.5 -0.3,-0.7 -1.1,-1.5 -4.6,-1.5 -7.9,-1.1 z"
             id="path31"
             inkscape:connector-curvature="0"
             style="fill:#ffffff" /><path
             class="st1"
             d="m 601.6,783.2 c -1.4,-0.3 -3.1,-0.5 -4.8,-0.5 -3.3,0 -6.5,0.4 -6.6,0.4 -0.1,0 -2.7,2 -5.2,4.2 -2.5,2.2 -4.8,4.8 -4.2,6.6 0.1,0.2 0.2,0.5 0.4,0.7 1.2,1.3 4.2,1.8 7.2,2 3.4,0.1 6.7,-0.4 6.8,-0.4 0.3,-0.1 9.6,-6.7 9.4,-10.5 0,-0.2 -0.1,-0.5 -0.2,-0.7 -0.4,-1 -1.5,-1.5 -2.8,-1.8 z"
             id="path33"
             inkscape:connector-curvature="0"
             style="fill:#ffffff" /><path
             class="st1"
             d="m 552.2,797.2 c -3.3,-0.5 -6.5,-0.6 -6.6,-0.6 -0.1,0 -3,1.5 -5.7,3.4 -2.8,1.8 -5.5,4.1 -5.1,6 0,0.2 0.2,0.5 0.3,0.7 1,1.5 3.9,2.5 6.8,3 3.3,0.5 6.7,0.6 6.8,0.5 0.3,-0.1 10.5,-5.2 10.8,-9.1 0,-0.3 0,-0.5 -0.1,-0.7 -0.5,-1.8 -3.9,-2.6 -7.2,-3.2 z"
             id="path35"
             inkscape:connector-curvature="0"
             style="fill:#ffffff" /><path
             class="st1"
             d="m 506.1,805.2 c -3.2,-1 -6.4,-1.6 -6.5,-1.6 -0.1,0 -3.2,1 -6.2,2.5 -3,1.6 -6,3.3 -5.9,5.3 0,0.2 0.1,0.5 0.2,0.7 1.5,3.6 12.7,5.4 13,5.4 0.1,0 3.3,-1 6.4,-2.5 2.6,-1.4 5.1,-3.2 5.6,-4.9 0.1,-0.3 0.1,-0.5 0.1,-0.8 -0.3,-1.8 -3.5,-3.2 -6.7,-4.1 z"
             id="path37"
             inkscape:connector-curvature="0"
             style="fill:#ffffff" /><path
             class="st1"
             d="m 453,804.2 c -0.1,0 -3.3,0.5 -6.4,1.6 -3.2,1 -6.4,2.5 -6.6,4.5 0,0.2 0,0.5 0.1,0.7 1,3.6 11.8,7.2 12.1,7.2 0.3,0.2 11.3,-2.2 12.9,-5.7 0.1,-0.3 0.2,-0.5 0.2,-0.8 0,-3.9 -12,-7.3 -12.3,-7.5 z"
             id="path39"
             inkscape:connector-curvature="0"
             style="fill:#ffffff" /><path
             class="st1"
             d="m 412.7,801.3 c -2.8,-1.8 -5.7,-3.1 -5.8,-3.1 -0.1,0 -3.3,0 -6.6,0.6 -3.3,0.5 -6.7,1.5 -7.1,3.4 -0.1,0.2 -0.1,0.5 0,0.7 0.5,3.7 10.7,8.9 11,8.9 0.3,0.1 11.7,-0.7 13.6,-3.9 0.1,-0.2 0.2,-0.5 0.3,-0.7 0.1,-1.9 -2.6,-4.2 -5.4,-5.9 z"
             id="path41"
             inkscape:connector-curvature="0"
             style="fill:#ffffff" /><path
             class="st1"
             d="m 367.4,789.4 c -2.5,-2.2 -5.2,-3.9 -5.3,-4 -0.2,0 -3.3,-0.4 -6.6,-0.3 -3.3,0.1 -6.8,0.5 -7.6,2.3 -0.1,0.2 -0.1,0.5 -0.1,0.7 0,3.8 9.2,10.4 9.6,10.4 0.3,0.1 11.7,1.1 14,-1.9 0.2,-0.2 0.3,-0.4 0.3,-0.6 0.5,-1.8 -1.8,-4.4 -4.3,-6.6 z"
             id="path43"
             inkscape:connector-curvature="0"
             style="fill:#ffffff" /><path
             class="st1"
             d="m 324.2,771.2 c -2.2,-2.5 -4.6,-4.6 -4.7,-4.7 -0.3,0 -12.3,-3.4 -14.3,0 -0.1,0.2 -0.2,0.5 -0.2,0.7 -0.5,3.7 7.6,11.7 8,11.6 0.3,0.1 11.4,2.8 14.1,0.2 0.2,-0.2 0.3,-0.4 0.4,-0.6 0.8,-1.7 -1.1,-4.7 -3.3,-7.2 z"
             id="path45"
             inkscape:connector-curvature="0"
             style="fill:#ffffff" /><path
             class="st1"
             d="m 284.1,747 c -1.8,-2.8 -3.8,-5.2 -4,-5.3 -0.3,0 -11.7,-5.1 -14.2,-2.1 -0.2,0.2 -0.3,0.4 -0.3,0.7 -1.1,3.6 5.9,12.6 6.2,12.6 0.2,0.2 10.9,4.4 14,2.2 0.2,-0.1 0.4,-0.3 0.5,-0.5 1.1,-1.5 -0.4,-4.8 -2.2,-7.6 z"
             id="path47"
             inkscape:connector-curvature="0"
             style="fill:#ffffff" /><path
             class="st1"
             d="m 247.8,717.4 c -1.4,-3 -3.1,-5.7 -3.2,-5.8 -0.3,-0.1 -10.9,-6.7 -13.7,-4.1 -0.2,0.2 -0.3,0.4 -0.4,0.6 -1.6,3.4 4.1,13.3 4.4,13.4 0.2,0.2 10.2,5.9 13.5,4.2 0.2,-0.1 0.4,-0.2 0.6,-0.4 1.2,-1.5 0.2,-4.9 -1.2,-7.9 z"
             id="path49"
             inkscape:connector-curvature="0"
             style="fill:#ffffff" /><path
             class="st1"
             d="m 216.1,682.9 c -0.9,-3.2 -2.2,-6.1 -2.3,-6.2 -0.1,-0.1 -2.7,-2 -5.4,-3.8 -2.8,-1.8 -6,-3.3 -7.6,-2.1 -0.2,0.2 -0.4,0.4 -0.5,0.6 -0.9,1.5 -0.6,4.5 0.2,7.4 0.8,3.4 2.2,6.3 2.3,6.5 0.2,0.2 9.2,7.3 12.8,6 0.2,-0.1 0.4,-0.2 0.6,-0.3 1.3,-1.3 0.8,-4.9 -0.1,-8.1 z"
             id="path51"
             inkscape:connector-curvature="0"
             style="fill:#ffffff" /><path
             class="st1"
             d="m 189.6,644.3 c -0.4,-3.3 -1.3,-6.4 -1.4,-6.5 0,-0.1 -2.4,-2.4 -4.9,-4.5 -2.5,-2.1 -5.5,-4.1 -7.2,-3.2 -0.2,0.1 -0.4,0.3 -0.6,0.5 -1.1,1.3 -1.2,4.4 -0.9,7.4 0.3,3.4 1.3,6.6 1.4,6.7 0.2,0.3 8.1,8.6 11.8,7.8 0.2,0 0.5,-0.1 0.7,-0.3 1.6,-1 1.5,-4.6 1.1,-7.9 z"
             id="path53"
             inkscape:connector-curvature="0"
             style="fill:#ffffff" /><path
             class="st1"
             d="m 168.3,607.1 c 0.3,-1.4 0.5,-3.1 0.5,-4.8 0,-3.3 -0.4,-6.5 -0.4,-6.6 0,-0.1 -2,-2.7 -4.2,-5.2 -2.2,-2.5 -4.8,-4.8 -6.6,-4.2 -0.2,0.1 -0.5,0.2 -0.7,0.4 -1.3,1.2 -1.8,4.2 -2,7.2 -0.1,3.4 0.4,6.7 0.4,6.8 0.1,0.3 6.7,9.6 10.5,9.4 0.2,0 0.5,-0.1 0.7,-0.2 1,-0.4 1.5,-1.5 1.8,-2.8 z"
             id="path55"
             inkscape:connector-curvature="0"
             style="fill:#ffffff" /><path
             class="st1"
             d="m 154.3,557.7 c 0.5,-3.3 0.6,-6.5 0.6,-6.6 0,-0.1 -1.5,-3 -3.4,-5.7 -1.8,-2.8 -4.1,-5.5 -6,-5.1 -0.2,0 -0.5,0.2 -0.7,0.3 -1.5,1 -2.5,3.9 -3,6.8 -0.5,3.3 -0.6,6.7 -0.5,6.8 0.1,0.3 5.2,10.5 9.1,10.8 0.3,0 0.5,0 0.7,-0.1 1.9,-0.5 2.6,-3.8 3.2,-7.2 z"
             id="path57"
             inkscape:connector-curvature="0"
             style="fill:#ffffff" /><path
             class="st1"
             d="m 146.3,511.6 c 1,-3.2 1.6,-6.4 1.6,-6.5 0,-0.1 -1,-3.2 -2.5,-6.2 -1.6,-3 -3.3,-6 -5.3,-5.9 -0.2,0 -0.5,0.1 -0.7,0.2 -3.6,1.5 -5.4,12.7 -5.4,13 0,0.1 1,3.3 2.5,6.4 1.4,2.6 3.2,5.1 4.9,5.6 0.3,0.1 0.5,0.1 0.8,0.1 1.9,-0.3 3.2,-3.5 4.1,-6.7 z"
             id="path59"
             inkscape:connector-curvature="0"
             style="fill:#ffffff" /><path
             class="st1"
             d="m 147.3,458.5 c 0,-0.1 -0.5,-3.3 -1.6,-6.4 -1,-3.2 -2.5,-6.4 -4.5,-6.6 -0.2,0 -0.5,0 -0.7,0.1 -3.6,1 -7.2,11.8 -7.2,12.1 -0.2,0.3 2.2,11.3 5.7,12.9 0.3,0.1 0.5,0.2 0.8,0.2 3.9,0 7.3,-12 7.5,-12.3 z"
             id="path61"
             inkscape:connector-curvature="0"
             style="fill:#ffffff" /><path
             class="st1"
             d="m 150.3,418.2 c 1.8,-2.8 3.1,-5.7 3.1,-5.8 0,-0.1 0,-3.3 -0.6,-6.6 -0.5,-3.3 -1.5,-6.7 -3.4,-7.1 -0.2,-0.1 -0.5,-0.1 -0.7,0 -3.7,0.5 -8.9,10.7 -8.9,11 -0.1,0.3 0.7,11.7 3.9,13.6 0.2,0.1 0.5,0.2 0.7,0.3 1.8,0.1 4.1,-2.6 5.9,-5.4 z"
             id="path63"
             inkscape:connector-curvature="0"
             style="fill:#ffffff" /><path
             class="st1"
             d="m 155.4,377.2 c 1.8,0.6 4.5,-1.8 6.7,-4.3 2.2,-2.5 3.9,-5.2 4,-5.3 0,-0.2 0.4,-3.3 0.3,-6.6 -0.1,-3.3 -0.5,-6.8 -2.3,-7.6 -0.2,-0.1 -0.5,-0.1 -0.7,-0.1 -3.8,0 -10.4,9.2 -10.4,9.6 -0.1,0.3 -1.1,11.7 1.9,14 0.1,0.1 0.3,0.2 0.5,0.3 z"
             id="path65"
             inkscape:connector-curvature="0"
             style="fill:#ffffff" /><path
             class="st1"
             d="m 180.3,329.7 c 2.5,-2.2 4.6,-4.6 4.7,-4.7 0,-0.3 3.4,-12.3 0,-14.3 -0.2,-0.1 -0.5,-0.2 -0.7,-0.2 -3.7,-0.5 -11.7,7.6 -11.6,8 -0.1,0.3 -2.8,11.4 -0.2,14.1 0.2,0.2 0.4,0.3 0.6,0.4 1.7,0.9 4.7,-1.1 7.2,-3.3 z"
             id="path67"
             inkscape:connector-curvature="0"
             style="fill:#ffffff" /><path
             class="st1"
             d="m 204.5,289.6 c 2.8,-1.8 5.2,-3.8 5.3,-4 0,-0.3 5.1,-11.7 2.1,-14.2 -0.2,-0.2 -0.4,-0.3 -0.7,-0.3 -3.6,-1.1 -12.6,5.9 -12.6,6.2 -0.2,0.2 -4.4,10.9 -2.2,14 0.1,0.2 0.3,0.4 0.5,0.5 1.6,1.1 4.8,-0.4 7.6,-2.2 z"
             id="path69"
             inkscape:connector-curvature="0"
             style="fill:#ffffff" /><path
             class="st1"
             d="m 234.1,253.3 c 3,-1.4 5.7,-3.1 5.8,-3.2 0.1,-0.3 6.7,-10.9 4.1,-13.7 -0.2,-0.2 -0.4,-0.3 -0.6,-0.4 -3.4,-1.6 -13.3,4.1 -13.4,4.4 -0.2,0.2 -5.9,10.2 -4.2,13.5 0.1,0.2 0.2,0.4 0.4,0.6 1.5,1.2 4.9,0.2 7.9,-1.2 z"
             id="path71"
             inkscape:connector-curvature="0"
             style="fill:#ffffff" /><path
             class="st1"
             d="m 268.6,221.6 c 3.2,-0.9 6.1,-2.2 6.2,-2.3 0.1,-0.1 2,-2.7 3.8,-5.4 1.8,-2.8 3.3,-6 2.1,-7.6 -0.2,-0.2 -0.4,-0.4 -0.6,-0.5 -1.5,-0.9 -4.5,-0.6 -7.4,0.2 -3.4,0.8 -6.3,2.2 -6.5,2.3 -0.2,0.2 -7.3,9.2 -6,12.8 0.1,0.2 0.2,0.4 0.3,0.6 1.4,1.4 4.9,0.8 8.1,-0.1 z"
             id="path73"
             inkscape:connector-curvature="0"
             style="fill:#ffffff" /><path
             class="st1"
             d="m 307.2,195.1 c 3.3,-0.4 6.4,-1.3 6.5,-1.4 0.1,0 2.4,-2.4 4.5,-4.9 2.1,-2.5 4.1,-5.5 3.2,-7.2 -0.1,-0.2 -0.3,-0.4 -0.5,-0.6 -1.3,-1.1 -4.4,-1.2 -7.4,-0.9 -3.4,0.3 -6.6,1.3 -6.7,1.4 -0.3,0.2 -8.6,8.1 -7.8,11.8 0,0.2 0.1,0.5 0.3,0.7 1.1,1.6 4.6,1.5 7.9,1.1 z"
             id="path75"
             inkscape:connector-curvature="0"
             style="fill:#ffffff" /><path
             class="st1"
             d="m 344.5,173.9 c 1.4,0.3 3.1,0.5 4.8,0.5 3.3,0 6.5,-0.4 6.6,-0.4 0.1,0 2.7,-2 5.2,-4.2 2.5,-2.2 4.8,-4.8 4.2,-6.6 -0.1,-0.2 -0.2,-0.5 -0.4,-0.7 -1.2,-1.3 -4.2,-1.8 -7.2,-2 -3.4,-0.1 -6.7,0.4 -6.8,0.4 -0.3,0.1 -9.6,6.7 -9.4,10.5 0,0.2 0.1,0.5 0.2,0.7 0.3,0.9 1.4,1.4 2.8,1.8 z"
             id="path77"
             inkscape:connector-curvature="0"
             style="fill:#ffffff" /><path
             class="st1"
             d="m 393.8,159.8 c 3.3,0.5 6.5,0.6 6.6,0.6 0.1,0 3,-1.5 5.7,-3.4 2.8,-1.8 5.5,-4.1 5.1,-6 0,-0.2 -0.2,-0.5 -0.3,-0.7 -1,-1.5 -3.9,-2.5 -6.8,-3 -3.3,-0.5 -6.7,-0.6 -6.8,-0.5 -0.3,0.1 -10.5,5.2 -10.8,9.1 0,0.3 0,0.5 0.1,0.7 0.5,1.9 3.9,2.6 7.2,3.2 z"
             id="path79"
             inkscape:connector-curvature="0"
             style="fill:#ffffff" /><path
             class="st1"
             d="m 439.9,151.8 c 3.2,1 6.4,1.6 6.5,1.6 0.1,0 3.2,-1 6.2,-2.5 3,-1.6 6,-3.3 5.9,-5.3 0,-0.2 -0.1,-0.5 -0.2,-0.7 -1.5,-3.6 -12.7,-5.4 -13,-5.4 -0.1,0 -3.3,1 -6.4,2.5 -2.6,1.4 -5.1,3.2 -5.6,4.9 -0.1,0.3 -0.1,0.5 -0.1,0.8 0.3,1.9 3.5,3.2 6.7,4.1 z"
             id="path81"
             inkscape:connector-curvature="0"
             style="fill:#ffffff" /><path
             class="st1"
             d="m 493,152.9 c 0.1,0 3.3,-0.5 6.4,-1.6 3.2,-1 6.4,-2.5 6.6,-4.5 0,-0.2 0,-0.5 -0.1,-0.7 -1,-3.6 -11.8,-7.2 -12.1,-7.2 -0.3,-0.2 -11.3,2.2 -12.9,5.7 -0.1,0.3 -0.2,0.5 -0.2,0.8 0,3.9 12.1,7.3 12.3,7.5 z"
             id="path83"
             inkscape:connector-curvature="0"
             style="fill:#ffffff" /><path
             class="st1"
             d="m 533.3,155.8 c 2.8,1.8 5.7,3.1 5.8,3.1 0.1,0 3.3,0 6.6,-0.6 3.3,-0.5 6.7,-1.5 7.1,-3.4 0.1,-0.2 0.1,-0.5 0,-0.7 -0.5,-3.7 -10.7,-8.9 -11,-8.9 -0.3,-0.1 -11.7,0.7 -13.6,3.9 -0.1,0.2 -0.2,0.5 -0.3,0.7 -0.1,1.8 2.6,4.1 5.4,5.9 z"
             id="path85"
             inkscape:connector-curvature="0"
             style="fill:#ffffff" /><path
             class="st1"
             d="m 574.3,160.9 c -0.6,1.8 1.8,4.5 4.3,6.7 2.5,2.2 5.2,3.9 5.3,4 0.2,0 3.3,0.4 6.6,0.3 3.3,-0.1 6.8,-0.5 7.6,-2.3 0.1,-0.2 0.1,-0.5 0.1,-0.7 0,-3.8 -9.2,-10.4 -9.6,-10.4 -0.3,-0.1 -11.7,-1.1 -14,1.9 -0.1,0.1 -0.2,0.3 -0.3,0.5 z"
             id="path87"
             inkscape:connector-curvature="0"
             style="fill:#ffffff" /><path
             class="st1"
             d="m 621.8,185.8 c 2.2,2.5 4.6,4.6 4.7,4.7 0.3,0 12.3,3.4 14.3,0 0.1,-0.2 0.2,-0.5 0.2,-0.7 0.5,-3.7 -7.6,-11.7 -8,-11.6 -0.3,-0.1 -11.4,-2.8 -14.1,-0.2 -0.2,0.2 -0.3,0.4 -0.4,0.6 -0.8,1.7 1.1,4.7 3.3,7.2 z"
             id="path89"
             inkscape:connector-curvature="0"
             style="fill:#ffffff" /><path
             class="st1"
             d="m 661.9,210 c 1.8,2.8 3.8,5.2 4,5.3 0.3,0 11.7,5.1 14.2,2.1 0.2,-0.2 0.3,-0.4 0.3,-0.7 1.1,-3.6 -5.9,-12.6 -6.2,-12.6 -0.2,-0.2 -10.9,-4.4 -14,-2.2 -0.2,0.1 -0.4,0.3 -0.5,0.5 -1.1,1.6 0.4,4.8 2.2,7.6 z"
             id="path91"
             inkscape:connector-curvature="0"
             style="fill:#ffffff" /><path
             class="st1"
             d="m 698.2,239.7 c 1.4,3 3.1,5.7 3.2,5.8 0.3,0.1 10.9,6.7 13.7,4.1 0.2,-0.2 0.3,-0.4 0.4,-0.6 1.6,-3.4 -4.1,-13.3 -4.4,-13.4 -0.2,-0.2 -10.2,-5.9 -13.5,-4.2 -0.2,0.1 -0.4,0.2 -0.6,0.4 -1.2,1.4 -0.2,4.8 1.2,7.9 z"
             id="path93"
             inkscape:connector-curvature="0"
             style="fill:#ffffff" /><path
             class="st1"
             d="m 729.9,274.1 c 0.9,3.2 2.2,6.1 2.3,6.2 0.1,0.1 2.7,2 5.4,3.8 2.8,1.8 6,3.3 7.6,2.1 0.2,-0.2 0.4,-0.4 0.5,-0.6 0.9,-1.5 0.6,-4.5 -0.2,-7.4 -0.8,-3.4 -2.2,-6.3 -2.3,-6.5 -0.2,-0.2 -9.2,-7.3 -12.8,-6 -0.2,0.1 -0.4,0.2 -0.6,0.3 -1.3,1.4 -0.8,4.9 0.1,8.1 z"
             id="path95"
             inkscape:connector-curvature="0"
             style="fill:#ffffff" /><path
             class="st1"
             d="m 756.4,312.8 c 0.4,3.3 1.3,6.4 1.4,6.5 0,0.1 2.4,2.4 4.9,4.5 2.5,2.1 5.5,4.1 7.2,3.2 0.2,-0.1 0.4,-0.3 0.6,-0.5 1.1,-1.3 1.2,-4.4 0.9,-7.4 -0.3,-3.4 -1.3,-6.6 -1.4,-6.7 -0.2,-0.3 -8.1,-8.6 -11.8,-7.8 -0.2,0 -0.5,0.1 -0.7,0.3 -1.6,1 -1.5,4.5 -1.1,7.9 z"
             id="path97"
             inkscape:connector-curvature="0"
             style="fill:#ffffff" /><path
             class="st1"
             d="m 777.7,350 c -0.3,1.4 -0.5,3.1 -0.5,4.8 0,3.3 0.4,6.5 0.4,6.6 0,0.1 2,2.7 4.2,5.2 2.2,2.5 4.8,4.8 6.6,4.2 0.2,-0.1 0.5,-0.2 0.7,-0.4 1.3,-1.2 1.8,-4.2 2,-7.2 0.1,-3.4 -0.4,-6.7 -0.4,-6.8 -0.1,-0.3 -6.7,-9.6 -10.5,-9.4 -0.2,0 -0.5,0.1 -0.7,0.2 -1,0.3 -1.5,1.4 -1.8,2.8 z"
             id="path99"
             inkscape:connector-curvature="0"
             style="fill:#ffffff" /><path
             class="st1"
             d="m 791.7,399.3 c -0.5,3.3 -0.6,6.5 -0.6,6.6 0,0.1 1.5,3 3.4,5.7 1.8,2.8 4.1,5.5 6,5.1 0.2,0 0.5,-0.2 0.7,-0.3 1.5,-1 2.5,-3.9 3,-6.8 0.5,-3.3 0.6,-6.7 0.5,-6.8 -0.1,-0.3 -5.2,-10.5 -9.1,-10.8 -0.3,0 -0.5,0 -0.7,0.1 -1.9,0.5 -2.6,3.9 -3.2,7.2 z"
             id="path101"
             inkscape:connector-curvature="0"
             style="fill:#ffffff" /><path
             class="st1"
             d="m 799.7,445.5 c -1,3.2 -1.6,6.4 -1.6,6.5 0,0.1 1,3.2 2.5,6.2 1.6,3 3.3,6 5.3,5.9 0.2,0 0.5,-0.1 0.7,-0.2 3.6,-1.5 5.4,-12.7 5.4,-13 0,-0.1 -1,-3.3 -2.5,-6.4 -1.4,-2.6 -3.2,-5.1 -4.9,-5.6 -0.3,-0.1 -0.5,-0.1 -0.8,-0.1 -1.9,0.2 -3.2,3.5 -4.1,6.7 z"
             id="path103"
             inkscape:connector-curvature="0"
             style="fill:#ffffff" /></g></g></g></switch></svg>