<?xml version="1.0" encoding="UTF-8" standalone="no"?>
<svg
   xmlns:dc="http://purl.org/dc/elements/1.1/"
   xmlns:cc="http://creativecommons.org/ns#"
   xmlns:rdf="http://www.w3.org/1999/02/22-rdf-syntax-ns#"
   xmlns:svg="http://www.w3.org/2000/svg"
   xmlns="http://www.w3.org/2000/svg"
   xmlns:sodipodi="http://sodipodi.sourceforge.net/DTD/sodipodi-0.dtd"
   xmlns:inkscape="http://www.inkscape.org/namespaces/inkscape"
   version="1.1"
   id="Layer_1"
   x="0px"
    class="withFill"
   y="0px"
   viewBox="131.1479949951172 184.8000030517578 737.7042846679688 630.4000244140625"
   width="100%"
   height="100%"
   style="enable-background:new 0 0 1000 1000;"
   xml:space="preserve"
   ><style
     type="text/css"
     id="style3">
	.st0{fill:#B9921D;}
	.st1{fill:#231F20;}
</style><switch
     id="switch5"
     transform="translate(-40.052005,40.3)"><g
       id="g7"><g
         id="g9"><path
           class="st1"
           d="m 906.8,548.2 c -0.9,2.9 -1.5,5.9 -2,9 -2.1,5.1 -5.6,9.5 -9.3,13.7 -6.6,7.7 -13.8,14.9 -21.3,21.6 -3.5,3.1 -7.2,6.3 -10.4,9.8 -3.9,3.7 -9.6,9.9 -8.5,15 -0.2,0.8 -0.3,1.6 -0.4,2.4 -3.4,2.1 -7.1,4 -11.1,5.7 -11.7,4.8 -24.2,7.9 -35.4,14 11.8,-14.3 21.8,-30.2 28.5,-47.4 0.5,0.2 1.1,-0.2 0.9,-0.8 -0.1,-0.2 -0.2,-0.5 -0.3,-0.7 0.1,-0.2 0.2,-0.4 0.3,-0.6 12.8,-8.9 20.3,-24.4 20.2,-39.9 -0.1,-9.7 -3.5,-18.7 -6.7,-27.7 -3.9,-10.9 -7.9,-21.7 -11.7,-32.6 -0.5,-1.3 -2.5,-0.7 -2.3,0.7 2.8,18.2 5.8,36.9 2,55.2 -2.9,14.3 -9.6,29.4 -3.8,43.7 0,0.1 0,0.2 0,0.2 -6.9,17.6 -16.9,33.9 -29,48.5 2.4,-6.8 3.5,-14.4 4.2,-21.3 0.2,-2.3 0.4,-4.6 0.5,-7 0.3,-0.1 0.5,-0.4 0.3,-0.7 -0.1,-0.1 -0.2,-0.2 -0.3,-0.3 0,-0.6 0,-1.2 0,-1.9 0.3,0 0.6,-0.1 0.9,-0.4 7,-10 7.1,-22.2 4.3,-33.7 -3.3,-13.9 -9.2,-27.3 -14,-40.7 -0.3,-0.9 -1.9,-0.7 -1.9,0.3 -0.3,16.4 -0.6,32.7 -0.8,49.1 -0.1,5.4 -0.3,11 1.3,16.3 1.6,5.3 5.2,7 8.4,10.5 -0.1,3.1 -0.2,6.3 -0.6,9.4 -0.9,7.9 -3.2,15.4 -4.7,23.1 -4.8,5.6 -10,11 -15.4,16.1 -7,6.6 -15.3,12.8 -23.6,19.2 5.9,-9.6 9.3,-20.3 11.2,-31.4 0.6,0 1.2,-0.1 1.9,-0.4 6.8,-2.4 11,-11.2 12.6,-17.7 2.2,-9.3 0.4,-18.8 -2.1,-27.8 -3.2,-11.3 -7.1,-22.5 -10.6,-33.8 -0.2,-0.8 -0.5,-1.6 -0.8,-2.5 -0.4,-1.1 -2,-0.3 -1.6,0.7 5.9,17.2 -4,33.8 -7.7,50.4 -1.6,7.1 -2.3,14.8 0,21.9 1.1,3.4 2.8,7.7 6.4,8.8 0,0 0.1,0 0.1,0.1 -2.2,12.2 -5.9,23.9 -13.2,34.2 0,-7.7 -1,-15.3 -3,-22.7 6.2,-10.1 1,-23.4 -3.3,-33.5 -6.6,-15.5 -15.8,-29.7 -27.1,-42.2 -0.8,-0.9 -2.4,0 -1.8,1.1 7.9,15.6 6.4,33.3 9.6,50.1 2.1,11 7.5,27.4 20.9,28 0.2,0 0.3,0 0.4,-0.1 1.7,6.9 2.5,13.9 2.4,21.2 -18.6,14.6 -36.5,29.9 -38.1,54.5 0,0.7 2.6,0.7 2.6,0 2,-19.1 13.6,-32.2 27.7,-44.1 8.6,-3.3 17.1,-6.1 26.4,-7.1 3.9,-0.4 7.7,-0.5 11.5,-0.3 1.2,2.7 3.8,5.3 5.4,7 3.7,3.7 8.2,6.5 13.1,8.4 9.9,3.8 21.1,3.4 30.5,-1.6 11.3,-6.1 18.9,-16.9 25.6,-27.5 0.6,-0.9 -0.1,-2.3 -1.2,-2 -3.9,0.7 -7,2.8 -10.6,4.3 -4.2,1.7 -8.6,2.2 -13.1,2 -7.9,-0.4 -15.6,-2.7 -23.5,-3.6 -5,-0.5 -11.7,-0.3 -16.9,1.8 -3.6,1 -9.1,3.4 -9.9,7.5 -0.1,0.3 0,0.6 0,0.9 -11.4,-0.1 -23.2,2.4 -33,7 0,0 0,0 0.1,0 14.5,-11.6 29.1,-22.7 42,-36.2 2.8,-2.9 5.6,-6 8.2,-9.1 13.9,-7.1 29.1,-10.4 43.2,-17 1.8,-0.8 3.6,-1.8 5.4,-2.7 0,0.5 0.9,0.5 0.9,0 0,-0.2 0,-0.3 0,-0.5 0.6,-0.3 1.1,-0.6 1.7,-1 0.4,0.4 1,0.7 1.6,1.1 9,5.1 20.7,4.1 29,-1.8 19.5,-13.8 15.8,-40.6 19,-62.2 1.1,-2.9 1.9,-5.9 1.9,-9 0.1,-1.7 -1.7,-2.4 -2.1,-1 z"
           id="path11"
           inkscape:connector-curvature="0"
           style="fill:#b9921d" /><g
           id="g13"><polygon
             class="st0"
             points="353.2,144.5 171.2,459.7 352.2,773.2 353.2,774.9 717.2,774.9 740.4,734.7 732.5,734.7 713.2,768 357.2,768 179.2,459.7 357.2,151.3 713.2,151.3 891.3,459.7 868.8,498.6 876.7,498.6 898.2,461.4 899.2,459.7 718.2,146.2 717.2,144.5 "
             id="polygon15"
             style="fill:#231f20" /></g><g
           id="g17"><polygon
             class="st0"
             points="361.3,158.5 187.8,459.1 187.5,459.7 361,760.3 361.3,760.9 709.1,760.9 724.2,734.7 721.6,734.7 707.8,758.6 362.7,758.6 190.1,459.7 362.7,160.8 707.8,160.8 880.3,459.7 857.9,498.6 860.5,498.6 882.6,460.3 883,459.7 709.4,159.1 709.1,158.5 "
             id="polygon19"
             style="fill:#231f20" /></g></g></g></switch></svg>