<?xml version="1.0" encoding="UTF-8" standalone="no"?>
<svg
   xmlns:dc="http://purl.org/dc/elements/1.1/"
   xmlns:cc="http://creativecommons.org/ns#"
   xmlns:rdf="http://www.w3.org/1999/02/22-rdf-syntax-ns#"
   xmlns:svg="http://www.w3.org/2000/svg"
   xmlns="http://www.w3.org/2000/svg"
   xmlns:sodipodi="http://sodipodi.sourceforge.net/DTD/sodipodi-0.dtd"
   xmlns:inkscape="http://www.inkscape.org/namespaces/inkscape"
   version="1.1"
   id="Layer_1"
   x="0px"
   y="0px"
    class="withFill"
   viewBox="157.15000915527344 341.96142578125 685.7000732421875 316.0771179199219"
   width="100%"
   height="100%"
   style="enable-background:new 0 0 1000 1000;"
   xml:space="preserve"
   ><style
     type="text/css"
     id="style3">
	.st0{fill:#B9921D;}
	.st1{fill:#231F20;}
</style><switch
     id="switch5"
     transform="translate(-29.55,53.946975)"><g
       id="g7"><g
         id="g9"><g
           id="g11"><g
             id="g13"><path
               class="st1"
               d="m 437.2,373.2 -247.3,0 c -1.8,0 -3.2,1.4 -3.2,3.2 0,1.8 1.4,3.2 3.2,3.2 l 247.3,0 0,-6.4 z"
               id="path15"
               inkscape:connector-curvature="0"
               style="fill:#b9921d" /><path
               class="st1"
               d="m 869.2,373.2 -232.9,0 0,6.4 232.9,0 c 1.8,0 3.2,-1.4 3.2,-3.2 0,-1.8 -1.4,-3.2 -3.2,-3.2 z"
               id="path17"
               inkscape:connector-curvature="0"
               style="fill:#b9921d" /></g><g
             id="g19"><path
               class="st1"
               d="m 331.2,557.9 -141.3,0 c -1.8,0 -3.2,1.4 -3.2,3.2 0,1.8 1.4,3.2 3.2,3.2 l 141.3,0 0,-6.4 z"
               id="path21"
               inkscape:connector-curvature="0"
               style="fill:#b9921d" /><path
               class="st1"
               d="m 869.2,557.9 -190,0 0,6.4 190,0 c 1.8,0 3.2,-1.4 3.2,-3.2 0,-1.8 -1.4,-3.2 -3.2,-3.2 z"
               id="path23"
               inkscape:connector-curvature="0"
               style="fill:#b9921d" /></g><g
             id="g25"><path
               class="st0"
               d="m 462.7,546.5 c 27.5,8.9 48.3,1.7 48.3,1.7 27.1,-10.9 42.7,-31.9 50.8,-60 2.1,-6.7 2.9,-13.3 2.5,-20.4 -0.4,-12.1 0,-13.7 12.9,-13.7 5.4,0 10.8,-0.4 16.2,-1.7 17.9,-4.2 31.2,-14.6 37.5,-32 4.6,-12.5 0.8,-25 -9.6,-31.2 -11.2,-7.5 -23.7,-9.2 -37,-5.8 -9.2,2.1 -14.1,10.4 -13.3,20 0.4,2.5 1.2,5 3.7,6.2 2.1,1.2 4.2,2.5 6.2,3.3 3.3,1.7 6.2,-0.4 5.4,-3.7 -1.7,-5 -1.2,-8.7 2.5,-12.1 5.8,-5 12.5,-5.8 19.6,-4.2 2.5,0.8 4.2,2.5 5,5 2.5,6.7 1.2,12.5 -2.9,18.3 -4.6,6.2 -10.4,10 -17.5,13.3 -8.7,3.7 -17.9,4.2 -27.5,4.2 -10.4,-0.4 -20.8,-0.8 -31.2,-0.4 -11.2,0 -20.4,5.4 -27.9,14.1 -5.4,6.2 -7.5,13.7 -6.7,22.1 1.2,13.3 11.7,22.1 25.4,20.8 0.8,0 2.1,-0.8 2.1,-1.2 0.4,-0.8 0.4,-2.1 0,-2.9 -1.7,-1.7 -4.2,-2.9 -5.4,-5 -6.7,-7.1 -6.2,-15 0.8,-22.1 6.2,-6.2 14.1,-8.3 22.9,-7.5 3.3,0.4 5.4,2.5 5.4,6.2 0,16.2 -1.7,32.5 -9.6,47 -6.2,12.1 -15,22.1 -26.6,29.5 -16.2,10 -33.3,5 -41.6,-12.5 -2.1,-4.2 -2.9,-8.7 -4.2,-12.9 -2.1,-10.8 0,-21.6 2.5,-32 7.9,-30.8 26.2,-53.7 51.6,-71.6 3.3,-2.1 6.7,-4.2 10,-6.7 2.5,-1.7 2.5,-5.8 -0.4,-7.5 -4.2,-2.5 -8.7,-4.6 -12.9,-6.7 -9.6,-5 -13.7,-12.9 -11.7,-23.3 0.4,-2.5 0.4,-5 1.2,-7.5 6.7,-20 19.1,-35.4 37,-46.2 1.7,-1.2 3.3,-2.1 5.4,-2.5 14.1,-5 25.8,1.2 28.7,16.2 1.2,5.8 1.7,11.7 0.4,17.5 l -2.5,10 c -1.2,4.2 1.7,5.4 4.2,6.7 2.5,-1.2 2.1,0.4 3.3,0 8.7,-8.7 9.6,-20 8.7,-31.6 -0.4,-6.7 -2.9,-12.5 -7.1,-17.5 -15,-17.5 -42.9,-23.3 -63.7,-13.3 -10.4,5.4 -20,12.5 -27.9,21.2 -10,11.2 -17.9,23.7 -20.8,38.7 -2.5,11.2 0.8,20.4 9.6,27.9 3.3,3.3 10.4,4.6 10.8,9.2 0,6.2 -7.5,7.1 -11.7,10 -16.2,11.2 -30.8,23.3 -40.8,39.9 -10.8,18.3 -18.3,37.4 -16.6,59.1 2,17.6 11.4,39.4 36.5,47.6 z"
               id="path27"
               inkscape:connector-curvature="0"
               style="fill:#231f20" /></g></g><g
           id="g29"><path
             class="st0"
             d="m 401.9,530.8 c -0.6,0 -0.9,0.7 -0.7,1.2 0.8,2.5 2.4,5.1 4,7.3 0.9,1.2 1.1,2 1.4,3.5 0.3,1.2 0.8,2 1.8,2.8 0.2,0.2 0.6,0.3 0.9,0.3 1.3,3.9 2.6,7.8 3.5,11.8 -2.8,-2.5 -5.4,-5.2 -8.2,-7.8 -1.8,-1.7 -3.6,-3.2 -5.6,-4.6 -1.7,-4.6 -4.6,-8.6 -8.5,-11.5 0,0 0,-0.1 0,-0.1 -0.3,-0.4 -0.7,-0.7 -1,-1 -0.6,-0.7 -1.2,-1.4 -1.8,-2.1 0,-0.2 0,-0.4 0,-0.7 -0.6,-1.5 -1.2,-2.7 -2.5,-3.7 -2.3,-1.8 -5.3,-1.1 -7.8,0 -0.7,0.3 -0.9,1.2 -0.3,1.7 0.8,0.7 1.5,0.9 2.4,1.3 1.3,0.6 2.1,1.8 3.3,2.5 1.1,0.7 1.8,0.6 2.9,0.8 2.5,0.6 4.7,2.3 6.4,4 1.1,1.1 2.1,2.3 3,3.5 0.6,0.9 1.3,3.2 2.1,3.8 -2.1,-1.4 -4.3,-2.7 -6.6,-3.8 -1.7,-0.8 -3.1,-1 -4.4,-2.4 -1.4,-1.5 -2.8,-3.8 -4.5,-5.1 -1.2,-0.9 -2.6,-1.7 -4.1,-2.1 -2.9,-0.7 -5.3,0.2 -7.8,1.6 -0.6,0.3 -0.3,1.3 0.3,1.3 1.4,0.1 3.4,0.2 4.6,1.1 1.1,0.8 1.7,2.2 2.7,3.1 1.4,1.2 3,1.1 4.8,1.3 2.1,0.2 3.8,0.2 5.7,1.2 1.3,0.7 2.6,1.5 3.9,2.3 1.1,0.7 2.6,2.2 3.7,2.5 -1.7,-0.5 -3.4,-0.8 -5.1,-1.1 -0.9,-0.1 -3.6,0 -4.3,-0.7 -1.4,-1.3 -1.2,-1.3 -3.2,-1.3 -1.9,0 -3.7,-1 -5.6,-1.1 -1.7,-0.1 -3.8,0.4 -5.5,0.7 -0.6,0.1 -1.5,0.2 -1.7,1 -1,4.9 9.4,4.2 11.8,3.4 1.6,-0.5 3.1,-1.2 4.8,-1.4 1.6,-0.2 3.3,0.2 4.9,0.5 2.1,0.5 4.3,1 6.2,2 4.1,2.1 6.8,6.1 10.2,9.2 -3.9,-1.5 -7.8,-2.9 -11.7,-4.4 -0.4,-0.2 -0.9,-0.3 -1.2,-0.6 -0.3,-0.2 -0.4,-0.6 -0.7,-0.8 -0.9,-0.8 -2.3,-0.5 -3.3,-1 -1,-0.4 -1.6,-1.4 -2.4,-1.9 -1.5,-0.9 -3.3,-0.4 -5,0.1 -1,0.3 -2.1,0.6 -3.1,0.9 -0.2,0.1 -0.5,0.2 -0.7,0.3 -0.5,0.6 0,1.5 0.6,2 1.6,1.3 3.6,2.2 5.7,2.3 2.9,0.2 5.7,-0.9 8.6,-0.6 1.5,0.2 3,0.8 4.4,1.4 6.4,2.6 12.9,5.4 17.8,10.2 -10.5,-1.9 -21,-4.4 -31.2,-7.5 -1.4,-0.4 -2.7,-0.8 -4,-1.6 -0.9,-0.6 -1.8,-1.3 -2.6,-2 -2.8,-2.5 -5.5,-5 -8.2,-7.6 -0.7,-0.6 -1.3,-1.3 -1.8,-2 -0.6,-0.9 -1.7,-2.7 -2.1,-3.7 -0.2,-0.7 0,-1.6 -0.2,-2.3 -0.6,-1.8 -2.2,-3.2 -4,-4 -3.3,-1.5 -7.6,-0.5 -10.7,1.1 -0.5,0.2 -0.5,0.8 0,1.1 1.1,0.6 2.1,0.7 3.3,1 2.1,0.5 3.5,1.5 5,3 2.1,2 4.5,2.4 7.2,3 3.2,4.2 6.7,8.1 10.7,11.5 -5.2,-1.8 -10.2,-3.9 -15.2,-6.1 0.1,-0.3 0,-0.6 -0.2,-0.9 -2.1,-2.7 -6.6,-4.8 -10,-4.9 -3.6,-0.2 -6.3,0.8 -8.9,3.3 -0.3,0.3 -0.1,0.9 0.4,1 5.8,0.6 11.4,2.2 17.2,2.6 0.5,0 0.9,-0.2 1.2,-0.5 6,2.9 12.1,5.5 18.4,7.9 0.1,0.1 0.2,0.1 0.3,0.1 6.9,2.6 14,4.8 21.2,6.7 -3,0.8 -6,1.4 -9,1.9 -5.4,-2.7 -11,-4.4 -17,-5.3 -0.1,-0.4 -0.4,-0.8 -0.9,-0.9 -1.1,-0.3 -1.2,-1.9 -1.7,-2.7 -0.7,-1.1 -1.8,-1.8 -3.1,-2.1 -2.2,-0.6 -4.8,-0.3 -6.6,0.9 -0.5,0.4 -0.6,1.2 -0.1,1.6 0.9,0.7 1.7,1 2.6,1.5 1.2,0.6 2.1,1.6 3.3,2.2 1.6,0.8 3.6,1.4 5.4,1.1 0.3,0 0.5,-0.2 0.7,-0.3 5.2,0.8 10.2,2.3 15,4.5 -6.7,0.9 -13.4,0.9 -20.1,0 -2.7,-2.5 -5.6,-4.8 -8.6,-6.9 0.2,-0.5 0.1,-1 -0.3,-1.5 -2.2,-2 -2.4,-5.3 -5.3,-6.7 -3.2,-1.6 -5.5,0.7 -8.7,0.6 -0.6,0 -1.2,0.7 -0.6,1.2 3.9,2.9 8.7,5.2 13.2,7.2 0.4,0.2 0.8,0.1 1.1,0 2.5,1.9 4.9,3.8 7.3,5.9 -4.3,-0.7 -8.5,-1.7 -12.8,-3.1 0.1,-0.4 -0.1,-0.8 -0.5,-1 -1.8,-0.8 -3.5,-1.1 -5.2,-2.1 -1.6,-1 -3,-1.7 -4.9,-1.8 -3.9,-0.3 -7.2,1.6 -10.7,2.8 -0.2,0.1 -0.3,0.3 -0.1,0.4 0.9,1.1 0.9,0.9 2.3,1.1 2.5,0.4 4.7,0.9 7.1,1.6 4.3,1.4 7,-0.1 11.3,-0.4 0.2,0 0.3,-0.1 0.5,-0.2 4.7,2 9.6,3.4 14.7,4.3 -4.4,0.2 -8.7,0.2 -13.1,0.1 0,0 0,-0.1 -0.1,-0.1 -1.7,-1.8 -4.4,-2 -6.6,-1.9 -3.3,0.1 -5,2.1 -7.8,3.6 -0.6,0.3 -0.5,1.4 0.3,1.2 3,-0.6 5.7,1.1 8.6,1.5 2.9,0.4 4.3,-1.5 5.7,-3.7 0,0 0,-0.1 0,-0.1 0.3,-0.8 6.9,0.3 7.6,0.3 1.7,0.1 3.4,0.3 5.1,0.1 1.7,-0.2 3.1,-0.8 4.8,-0.6 2.1,0.2 4.1,0.5 6.3,0.5 3.2,0 6.5,-0.2 9.7,-0.6 -1,0.1 -2.6,1.6 -3.6,2.1 -1.4,0.8 -2.9,1.5 -4.4,2.1 -1.6,0.7 -3.1,1.5 -4.9,1.9 -1.7,0.4 -3.2,0.1 -5,0.5 -1.9,0.4 -3.8,0.2 -5.7,1 -3.2,1.2 -7.5,4.1 -7.6,7.9 0,0.4 0.5,0.7 0.9,0.5 1.4,-0.6 2.6,-1.7 4.1,-2.3 2,-0.9 3.5,-0.4 5.5,-0.4 1.6,0 3.1,-0.9 4,-2.2 0.8,-1.3 1.3,-2.9 2.7,-3.8 1.6,-1.1 3.9,-1.3 5.7,-1.9 4,-1.4 7.9,-3.3 11.4,-5.8 3.6,-0.7 7.1,-1.6 10.5,-2.9 10.7,2.6 21.6,4.4 32.6,5.1 -1.5,1.5 -3.2,3 -4.8,4.4 -0.5,-0.8 -2.5,-1 -3.1,-1.1 -2.2,-0.5 -4.3,-0.9 -6.5,-1.1 -3.4,-0.4 -6.9,-0.4 -10.3,-0.1 -0.1,-0.8 -0.6,-1.5 -1.5,-1.6 -1.3,-0.2 -2.4,-0.9 -3.7,-1.1 -1.4,-0.2 -2.8,0 -4.1,0.6 -1.8,0.9 -3.4,2.8 -4.6,4.3 -0.2,0.2 -0.1,0.6 0.1,0.8 1.6,1.6 3.7,0.3 5.7,0.3 2.7,0 5.2,0.5 7.5,-1.4 0.3,-0.3 0.5,-0.6 0.7,-1 5.7,-0.2 11.8,0.1 17.2,1.9 1,0.3 1.3,0.3 1.3,0.8 -3.2,2.4 -6.5,4.5 -10,6.3 -5.7,-0.2 -11.5,-0.5 -17.2,-0.6 -0.2,-0.2 -0.3,-0.4 -0.6,-0.5 -2.1,-0.9 -4.3,-3 -6.7,-2.8 -2.8,0.2 -4.4,2.6 -7.1,2.9 -0.8,0.1 -1,1 -0.5,1.5 1.9,1.8 4.6,1.4 7.1,1.8 2.2,0.4 5.6,1 7.5,-0.5 0.4,-0.3 0.6,-0.8 0.7,-1.3 4.9,0.2 9.7,0.4 14.6,0.6 -1,0 -2.9,1.3 -3.9,1.7 -1.4,0.6 -2.9,1.1 -4.3,1.5 -2.8,0.9 -5.6,1.6 -8.5,2.1 0.3,-0.1 -0.7,-0.9 -0.8,-1 -0.7,-0.5 -1.5,-0.3 -2.3,-0.4 -1.3,-0.2 -2,-1.5 -3.2,-1.8 -1.4,-0.4 -3,-0.2 -4.2,0.5 -2.4,1.3 -3.3,3.6 -4.6,5.9 -0.2,0.4 0.3,0.9 0.7,0.7 1.9,-0.8 3.9,-1.1 5.9,-1.2 1.4,0 2.6,-0.8 4,-1.1 1.1,-0.3 3.4,0.1 4.2,-0.9 5.9,-0.6 11.6,-2 16.9,-4.3 -3.7,3.2 -7.3,6.5 -10.8,9.9 -0.3,-0.4 -0.9,-0.6 -1.4,-0.4 -1.2,0.5 -2.2,0.3 -3.4,0.7 -1.2,0.3 -2.3,1.2 -3.1,2.1 -1.8,2.1 -1.5,4.4 -1.6,7 0,1.3 1.7,1.2 2.2,0.4 0.6,-0.9 1.4,-1.7 2.3,-2.3 0.8,-0.5 1.8,-0.7 2.6,-1.3 1.7,-1.2 2.2,-3.4 2.6,-5.2 0,-0.1 0,-0.3 0,-0.4 4.9,-3.8 9.6,-7.9 14.3,-12.1 0.1,-0.1 0.1,-0.1 0.1,-0.2 2.8,-1.4 5.5,-3.1 8,-5 -0.2,0.4 -0.3,0.7 -0.4,1.1 -0.5,1.4 -1.1,2.8 -1.8,4.2 -1.3,2.4 -2.8,4.7 -4.5,6.8 -2,-1.6 -5.1,1.3 -6.5,2.6 -1.6,1.5 -3.9,3.2 -4.4,5.4 -0.1,0.4 0.4,0.7 0.7,0.6 1.5,-0.4 2.6,-1.3 4.3,-1.2 1.3,0.1 2.5,0.1 3.7,-0.6 1.6,-1 4,-4.3 2.6,-6.3 2.3,-2.5 4.4,-5.2 6,-8.3 0.6,-1.2 2.3,-3.9 2.6,-6 2.3,-1.8 4.4,-3.9 6.5,-6 9.1,0.5 18.3,0.3 27.4,-0.8 0.8,-0.1 0.7,-1.3 -0.1,-1.3 -15.2,0.4 -30.2,0 -45.1,-2.1 0,0 -0.1,-0.1 -0.1,-0.1 -2.7,-1.6 -5.2,-3.5 -7.5,-5.5 -1,-4.6 -2.2,-9.3 -4,-13.6 0.2,-0.2 0.3,-0.4 0.3,-0.7 0.2,-2.9 1,-6.5 -0.3,-9.2 -1.8,-3.6 -5.5,-5.2 -8.7,-5.2 z"
             id="path31"
             inkscape:connector-curvature="0"
             style="fill:#231f20" /><path
             class="st0"
             d="m 604.7,530.8 c 0.6,0 0.9,0.7 0.7,1.2 -0.8,2.5 -2.4,5.1 -4,7.3 -0.9,1.2 -1.1,2 -1.4,3.5 -0.3,1.2 -0.8,2 -1.8,2.8 -0.2,0.2 -0.6,0.3 -0.9,0.3 -1.3,3.9 -2.6,7.8 -3.5,11.8 2.8,-2.5 5.4,-5.2 8.2,-7.8 1.8,-1.7 3.6,-3.2 5.6,-4.6 1.7,-4.6 4.6,-8.6 8.5,-11.5 0,0 0,-0.1 0,-0.1 0.3,-0.4 0.7,-0.7 1,-1 0.6,-0.7 1.2,-1.4 1.8,-2.1 0,-0.2 0,-0.4 0,-0.7 0.6,-1.5 1.2,-2.7 2.5,-3.7 2.3,-1.8 5.3,-1.1 7.8,0 0.7,0.3 0.9,1.2 0.3,1.7 -0.8,0.7 -1.5,0.9 -2.4,1.3 -1.3,0.6 -2.1,1.8 -3.3,2.5 -1.1,0.7 -1.8,0.6 -2.9,0.8 -2.5,0.6 -4.7,2.3 -6.4,4 -1.1,1.1 -2.1,2.3 -3,3.5 -0.6,0.9 -1.3,3.2 -2.1,3.8 2.1,-1.4 4.3,-2.7 6.6,-3.8 1.7,-0.8 3.1,-1 4.4,-2.4 1.4,-1.5 2.8,-3.8 4.5,-5.1 1.2,-0.9 2.6,-1.7 4.1,-2.1 2.9,-0.7 5.3,0.2 7.8,1.6 0.6,0.3 0.3,1.3 -0.3,1.3 -1.4,0.1 -3.4,0.2 -4.6,1.1 -1.1,0.8 -1.7,2.2 -2.7,3.1 -1.4,1.2 -3,1.1 -4.8,1.3 -2.1,0.2 -3.8,0.2 -5.7,1.2 -1.3,0.7 -2.6,1.5 -3.9,2.3 -1.1,0.7 -2.6,2.2 -3.7,2.5 1.7,-0.5 3.4,-0.8 5.1,-1.1 0.9,-0.1 3.6,0 4.3,-0.7 1.4,-1.3 1.2,-1.3 3.2,-1.3 1.9,0 3.7,-1 5.6,-1.1 1.7,-0.1 3.8,0.4 5.5,0.7 0.6,0.1 1.5,0.2 1.7,1 1,4.9 -9.4,4.2 -11.8,3.4 -1.6,-0.5 -3.1,-1.2 -4.8,-1.4 -1.6,-0.2 -3.3,0.2 -4.9,0.5 -2.1,0.5 -4.3,1 -6.2,2 -4.1,2.1 -6.8,6.1 -10.2,9.2 3.9,-1.5 7.8,-2.9 11.7,-4.4 0.4,-0.2 0.9,-0.3 1.2,-0.6 0.3,-0.2 0.4,-0.6 0.7,-0.8 0.9,-0.8 2.3,-0.5 3.3,-1 1,-0.4 1.6,-1.4 2.4,-1.9 1.5,-0.9 3.3,-0.4 5,0.1 1,0.3 2.1,0.6 3.1,0.9 0.2,0.1 0.5,0.2 0.7,0.3 0.5,0.6 0,1.5 -0.6,2 -1.6,1.3 -3.6,2.2 -5.7,2.3 -2.9,0.2 -5.7,-0.9 -8.6,-0.6 -1.5,0.2 -3,0.8 -4.4,1.4 -6.4,2.6 -12.9,5.4 -17.8,10.2 10.5,-1.9 21,-4.4 31.2,-7.5 1.4,-0.4 2.7,-0.8 4,-1.6 0.9,-0.6 1.8,-1.3 2.6,-2 2.8,-2.5 5.5,-5 8.2,-7.6 0.7,-0.6 1.3,-1.3 1.8,-2 0.6,-0.9 1.7,-2.7 2.1,-3.7 0.2,-0.7 0,-1.6 0.2,-2.3 0.6,-1.8 2.2,-3.2 4,-4 3.3,-1.5 7.6,-0.5 10.7,1.1 0.5,0.2 0.5,0.8 0,1.1 -1.1,0.6 -2.1,0.7 -3.3,1 -2.1,0.5 -3.5,1.5 -5,3 -2.1,2 -4.5,2.4 -7.2,3 -3.2,4.2 -6.7,8.1 -10.7,11.5 5.2,-1.8 10.2,-3.9 15.2,-6.1 -0.1,-0.3 0,-0.6 0.2,-0.9 2.1,-2.7 6.6,-4.8 10,-4.9 3.6,-0.2 6.3,0.8 8.9,3.3 0.3,0.3 0.1,0.9 -0.4,1 -5.8,0.6 -11.4,2.2 -17.2,2.6 -0.5,0 -0.9,-0.2 -1.2,-0.5 -6,2.9 -12.1,5.5 -18.4,7.9 -0.1,0.1 -0.2,0.1 -0.3,0.1 -6.9,2.6 -14,4.8 -21.2,6.7 3,0.8 6,1.4 9,1.9 5.4,-2.7 11,-4.4 17,-5.3 0.1,-0.4 0.4,-0.8 0.9,-0.9 1.1,-0.3 1.2,-1.9 1.7,-2.7 0.7,-1.1 1.8,-1.8 3.1,-2.1 2.2,-0.6 4.8,-0.3 6.6,0.9 0.5,0.4 0.6,1.2 0.1,1.6 -0.9,0.7 -1.7,1 -2.6,1.5 -1.2,0.6 -2.1,1.6 -3.3,2.2 -1.6,0.8 -3.6,1.4 -5.4,1.1 -0.3,0 -0.5,-0.2 -0.7,-0.3 -5.2,0.8 -10.2,2.3 -15,4.5 6.7,0.9 13.4,0.9 20.1,0 2.7,-2.5 5.6,-4.8 8.6,-6.9 -0.2,-0.5 -0.1,-1 0.3,-1.5 2.2,-2 2.4,-5.3 5.3,-6.7 3.2,-1.6 5.5,0.7 8.7,0.6 0.6,0 1.2,0.7 0.6,1.2 -3.9,2.9 -8.7,5.2 -13.2,7.2 -0.4,0.2 -0.8,0.1 -1.1,0 -2.5,1.9 -4.9,3.8 -7.3,5.9 4.3,-0.7 8.5,-1.7 12.8,-3.1 -0.1,-0.4 0.1,-0.8 0.5,-1 1.8,-0.8 3.5,-1.1 5.2,-2.1 1.6,-1 3,-1.7 4.9,-1.8 3.9,-0.3 7.2,1.6 10.7,2.8 0.2,0.1 0.3,0.3 0.1,0.4 -0.9,1.1 -0.9,0.9 -2.3,1.1 -2.5,0.4 -4.7,0.9 -7.1,1.6 -4.3,1.4 -7,-0.1 -11.3,-0.4 -0.2,0 -0.3,-0.1 -0.5,-0.2 -4.7,2 -9.6,3.4 -14.7,4.3 4.4,0.2 8.7,0.2 13.1,0.1 0,0 0,-0.1 0.1,-0.1 1.7,-1.8 4.4,-2 6.6,-1.9 3.3,0.1 5,2.1 7.8,3.6 0.6,0.3 0.5,1.4 -0.3,1.2 -3,-0.6 -5.7,1.1 -8.6,1.5 -2.9,0.4 -4.3,-1.5 -5.7,-3.7 0,0 0,-0.1 0,-0.1 -0.3,-0.8 -6.9,0.3 -7.6,0.3 -1.7,0.1 -3.4,0.3 -5.1,0.1 -1.7,-0.2 -3.1,-0.8 -4.8,-0.6 -2.1,0.2 -4.1,0.5 -6.3,0.5 -3.2,0 -6.5,-0.2 -9.7,-0.6 1,0.1 2.6,1.6 3.6,2.1 1.4,0.8 2.9,1.5 4.4,2.1 1.6,0.7 3.1,1.5 4.9,1.9 1.7,0.4 3.2,0.1 5,0.5 1.9,0.4 3.8,0.2 5.7,1 3.2,1.2 7.5,4.1 7.6,7.9 0,0.4 -0.5,0.7 -0.9,0.5 -1.4,-0.6 -2.6,-1.7 -4.1,-2.3 -2,-0.9 -3.5,-0.4 -5.5,-0.4 -1.6,0 -3.1,-0.9 -4,-2.2 -0.8,-1.3 -1.3,-2.9 -2.7,-3.8 -1.6,-1.1 -3.9,-1.3 -5.7,-1.9 -4,-1.4 -7.9,-3.3 -11.4,-5.8 -3.6,-0.7 -7.1,-1.6 -10.5,-2.9 -10.7,2.6 -21.6,4.4 -32.6,5.1 1.5,1.5 3.2,3 4.8,4.4 0.5,-0.8 2.5,-1 3.1,-1.1 2.2,-0.5 4.3,-0.9 6.5,-1.1 3.4,-0.4 6.9,-0.4 10.3,-0.1 0.1,-0.8 0.6,-1.5 1.5,-1.6 1.3,-0.2 2.4,-0.9 3.7,-1.1 1.4,-0.2 2.8,0 4.1,0.6 1.8,0.9 3.4,2.8 4.7,4.3 0.2,0.2 0.1,0.6 -0.1,0.8 -1.6,1.6 -3.7,0.3 -5.7,0.3 -2.7,0 -5.2,0.5 -7.5,-1.4 -0.3,-0.3 -0.5,-0.6 -0.7,-1 -5.7,-0.2 -11.8,0.1 -17.2,1.9 -1,0.3 -1.3,0.3 -1.3,0.8 3.2,2.4 6.5,4.5 10,6.3 5.7,-0.2 11.5,-0.5 17.2,-0.6 0.2,-0.2 0.3,-0.4 0.6,-0.5 2.1,-0.9 4.3,-3 6.7,-2.8 2.8,0.2 4.4,2.6 7.1,2.9 0.8,0.1 1,1 0.5,1.5 -1.9,1.8 -4.6,1.4 -7.1,1.8 -2.2,0.4 -5.6,1 -7.5,-0.5 -0.4,-0.3 -0.6,-0.8 -0.7,-1.3 -4.9,0.2 -9.7,0.4 -14.6,0.6 1,0 2.9,1.3 3.9,1.7 1.4,0.6 2.9,1.1 4.3,1.5 2.8,0.9 5.6,1.6 8.5,2.1 -0.3,-0.1 0.7,-0.9 0.8,-1 0.7,-0.5 1.5,-0.3 2.3,-0.4 1.3,-0.2 2,-1.5 3.2,-1.8 1.4,-0.4 3,-0.2 4.2,0.5 2.4,1.3 3.3,3.6 4.6,5.9 0.2,0.4 -0.3,0.9 -0.7,0.7 -1.9,-0.8 -3.9,-1.1 -5.9,-1.2 -1.4,0 -2.6,-0.8 -4,-1.1 -1.1,-0.3 -3.4,0.1 -4.2,-0.9 -5.9,-0.6 -11.6,-2 -16.9,-4.3 3.7,3.2 7.3,6.5 10.8,9.9 0.3,-0.4 0.9,-0.6 1.4,-0.4 1.2,0.5 2.2,0.3 3.4,0.7 1.2,0.3 2.3,1.2 3.1,2.1 1.8,2.1 1.5,4.4 1.6,7 0,1.3 -1.7,1.2 -2.2,0.4 -0.6,-0.9 -1.4,-1.7 -2.3,-2.3 -0.8,-0.5 -1.8,-0.7 -2.6,-1.3 -1.7,-1.2 -2.2,-3.4 -2.6,-5.2 0,-0.1 0,-0.3 0,-0.4 -4.9,-3.8 -9.6,-7.9 -14.3,-12.1 -0.1,-0.1 -0.1,-0.1 -0.1,-0.2 -2.8,-1.4 -5.5,-3.1 -8,-5 0.2,0.4 0.3,0.7 0.4,1.1 0.5,1.4 1.1,2.8 1.8,4.2 1.3,2.4 2.8,4.7 4.5,6.8 2,-1.6 5.1,1.3 6.5,2.6 1.6,1.5 3.9,3.2 4.4,5.4 0.1,0.4 -0.4,0.7 -0.7,0.6 -1.5,-0.4 -2.6,-1.3 -4.3,-1.2 -1.3,0.1 -2.5,0.1 -3.7,-0.6 -1.6,-1 -4,-4.3 -2.6,-6.3 -2.3,-2.5 -4.4,-5.2 -6,-8.3 -0.6,-1.2 -2.3,-3.9 -2.6,-6 -2.3,-1.8 -4.4,-3.9 -6.5,-6 -9.1,0.5 -18.3,0.3 -27.4,-0.8 -0.8,-0.1 -0.7,-1.3 0.1,-1.3 15.2,0.4 30.2,0 45.1,-2.1 0,0 0.1,-0.1 0.1,-0.1 2.7,-1.6 5.2,-3.5 7.5,-5.5 1,-4.6 2.2,-9.3 4,-13.6 -0.2,-0.2 -0.3,-0.4 -0.3,-0.7 -0.2,-2.9 -1,-6.5 0.3,-9.2 1.7,-3.6 5.4,-5.2 8.6,-5.2 z"
             id="path33"
             inkscape:connector-curvature="0"
             style="fill:#231f20" /></g><g
           id="g35"><path
             class="st0"
             d="m 503.6,573.5 c 9.2,0 9.2,-14.3 0,-14.3 -9.2,0 -9.2,14.3 0,14.3 l 0,0 z"
             id="path37"
             inkscape:connector-curvature="0"
             style="fill:#231f20" /></g><g
           id="g39"><path
             class="st0"
             d="m 487.1,569.9 c 4.1,0 4.1,-6.4 0,-6.4 -4.1,0 -4.1,6.4 0,6.4 l 0,0 z"
             id="path41"
             inkscape:connector-curvature="0"
             style="fill:#231f20" /></g><g
           id="g43"><path
             class="st0"
             d="m 520.8,569.9 c 4.1,0 4.1,-6.4 0,-6.4 -4.1,0 -4.1,6.4 0,6.4 l 0,0 z"
             id="path45"
             inkscape:connector-curvature="0"
             style="fill:#231f20" /></g></g></g></switch></svg>