<?xml version="1.0" encoding="UTF-8" standalone="no"?>
<svg
   xmlns:dc="http://purl.org/dc/elements/1.1/"
   xmlns:cc="http://creativecommons.org/ns#"
   xmlns:rdf="http://www.w3.org/1999/02/22-rdf-syntax-ns#"
   xmlns:svg="http://www.w3.org/2000/svg"
   xmlns="http://www.w3.org/2000/svg"
   xmlns:sodipodi="http://sodipodi.sourceforge.net/DTD/sodipodi-0.dtd"
   xmlns:inkscape="http://www.inkscape.org/namespaces/inkscape"
   version="1.1"
   id="Layer_1"
   x="0px"
   y="0px"
   viewBox="0 0 1000 1000"
   width="100%"
   height="100%"
    class="withFill"
   style="enable-background:new 0 0 1000 1000;"
   xml:space="preserve"
  ><style
     type="text/css"
     id="style3">
	.noFillSVG{fill:none;}
	.st0{fill:#231F20;}
</style><switch
     id="switch5"
     transform="translate(-22.899655,98.180848)"><g
       id="g7"><g
         id="g9"><path
           class="noFillSVG"
           d="m 290.9,563.9 c 0.3,0.2 0.6,0.3 0.9,0.5 l -0.2,-0.4 c -0.3,0.1 -0.5,0 -0.7,-0.1 z"
           id="path11"
           inkscape:connector-curvature="0"
           style="fill:none" /><path
           class="noFillSVG"
           d="m 332.4,565.2 c -0.1,-2.7 -0.3,-5.7 -1.4,-8 -3.5,-7 -14,0.3 -15.1,6.7 -0.3,2 -0.3,4 -0.2,6 0.2,4.6 1.7,8.9 3.2,13.1 2,5.8 5.2,11 8.4,16.3 l 0.3,0.3 c 1.1,-7.8 1.7,-15.4 3.2,-22.8 0.7,-3.8 1.7,-7.9 1.6,-11.6 z"
           id="path13"
           inkscape:connector-curvature="0"
           style="fill:none" /><path
           class="noFillSVG"
           d="m 319.5,600.1 c -3.1,-1.8 -6.5,-3.4 -9.7,-5 -3.3,-1.6 -6.6,-3.2 -10.2,-4.7 -4.5,-2 -8.7,-4.2 -13.4,-5.9 -2.7,-0.9 -8,-4.3 -10.7,-2.3 -3,2.3 -2.7,5.9 -0.8,9.1 1.9,3.2 5.1,6.2 7.4,7.6 5.6,3.5 12.6,4.4 18.5,5.9 8.7,1.9 16.9,1.5 25.3,0.5 l -0.7,-0.5 c -2.1,-1.4 -3.9,-3.1 -5.7,-4.7 z"
           id="path15"
           inkscape:connector-curvature="0"
           style="fill:none" /><path
           class="noFillSVG"
           d="m 301.3,539.5 c 0.1,-1.9 -0.1,-3.8 -0.7,-5.6 -0.6,-1.9 -1.9,-2.2 -3.8,-0.8 -4.2,1.3 -4.3,4.7 -4.9,8.5 -0.4,2.5 -0.4,5 -0.4,7.5 0.1,3.4 0.7,6.9 1.3,10.3 l 0.3,0.6 c 3.8,-3.2 5.9,-7.8 7.1,-12.6 0.7,-2.6 1.1,-5.3 1.1,-7.9 z"
           id="path17"
           inkscape:connector-curvature="0"
           style="fill:none" /><path
           class="noFillSVG"
           d="m 243.3,354.7 c 0.4,-7.1 0,-14 -3.5,-16.8 -1.3,1.1 -2.3,2.4 -3,3.8 -0.7,1.4 -1.1,2.9 -1.4,4.4 -0.5,3.1 -0.2,6.4 0.4,9.8 1.5,6.7 4.4,13.4 5.5,18.7 -0.1,-0.7 0.2,-1.4 1,-1.5 -0.2,-1.9 0.1,-4.7 0.4,-8 0.1,-3.2 0.3,-6.8 0.6,-10.4 z"
           id="path19"
           inkscape:connector-curvature="0"
           style="fill:none" /><path
           class="noFillSVG"
           d="m 241.6,375.8 0.1,-0.4 c -0.2,-0.1 -0.4,-0.3 -0.5,-0.5 0.2,0.3 0.3,0.6 0.4,0.9 z"
           id="path21"
           inkscape:connector-curvature="0"
           style="fill:none" /><path
           class="noFillSVG"
           d="m 221.6,445.3 c -11.5,1.6 0.9,15.3 4.4,17.6 3.6,2.4 7.6,3.9 11.6,5.2 6.9,2.3 14,4.2 21.3,3.5 -5.5,-4.1 -10.6,-8.9 -16.2,-13.3 -5.1,-3.9 -13.9,-13.9 -21.1,-13 z"
           id="path23"
           inkscape:connector-curvature="0"
           style="fill:none" /><path
           class="noFillSVG"
           d="m 290.4,562 c -1.4,-1.3 -3,-3.7 -4.9,-6.3 -1.9,-2.6 -4,-5.6 -6.1,-8.5 -2.1,-2.9 -4.4,-5.5 -6.7,-7.5 -2.3,-1.9 -4.5,-3.2 -6.8,-3.2 -1.1,6.9 3.3,12.1 8.4,16.4 5.5,4.2 11.9,7.5 16.2,10.8 -0.4,-0.4 -0.6,-1.2 -0.1,-1.7 z"
           id="path25"
           inkscape:connector-curvature="0"
           style="fill:none" /><path
           class="noFillSVG"
           d="m 272.2,402.6 c 1.6,-2.1 3.6,-4.6 4.1,-7.1 1.7,-7.6 -11,-8.8 -15.9,-4.6 -1.5,1.3 -2.8,2.9 -4,4.4 -1.3,1.8 -2.5,3.8 -3.5,5.8 -0.9,2 -1.7,4.2 -2.5,6.3 -1,2.9 -1.9,5.8 -2.5,8.8 -0.6,3 -1,6 -1.5,9.1 l 0.1,0.4 c 5.8,-5.3 11,-10.6 17.1,-15.4 3,-2.3 6.3,-4.8 8.6,-7.7 z"
           id="path27"
           inkscape:connector-curvature="0"
           style="fill:none" /><path
           class="noFillSVG"
           d="m 345.7,626.9 c -1.6,0.1 -3.7,0 -5.9,0 -2.2,-0.1 -4.6,-0.2 -6.9,-0.1 -4.7,0.2 -9.2,1 -11.7,3.7 -7.6,8.5 10.3,11.3 14.8,10.6 4.2,-0.4 8.3,-1.8 12.1,-3.3 6.7,-2.7 13.6,-6 18.6,-11.1 -3.4,0.2 -7,0.3 -10.5,0.2 -3.4,-0.1 -6.9,-0.1 -10.5,0 z"
           id="path29"
           inkscape:connector-curvature="0"
           style="fill:none" /><path
           class="noFillSVG"
           d="m 501.4,680.6 c -4.2,-6.4 -8.5,-12.9 -12.2,-19.5 -1.9,-3.3 -3.8,-7 -6.2,-9.9 -1.8,-2.1 -3.9,-4.2 -6.3,-5.2 -7.2,-3.1 -10.5,9.1 -7.3,14.8 1,1.7 2.3,3.4 3.7,4.7 3.1,3.2 7,5.7 10.9,8.1 2.7,1.4 5.4,2.7 8.3,3.9 2.8,1.2 5.7,2.3 8.7,3.1 l 0.4,0 z"
           id="path31"
           inkscape:connector-curvature="0"
           style="fill:none" /><path
           class="noFillSVG"
           d="m 532.9,689.9 c -2.4,2.1 -6.4,5.2 -9.9,8.2 -3.5,3.1 -6.4,6.6 -6.6,10.3 -0.2,5.7 3.6,6.2 7.8,4.9 4.2,-1.3 8.8,-4.8 10.3,-6.3 2.9,-3 5.2,-6.6 7.1,-10.3 3.4,-6.5 6.5,-13.3 7.1,-20.5 -2.5,2.4 -5.2,4.6 -7.9,6.9 -2.5,2.2 -5.3,4.4 -7.9,6.8 z"
           id="path33"
           inkscape:connector-curvature="0"
           style="fill:none" /><path
           class="noFillSVG"
           d="m 450.4,676.9 c 0.3,-0.1 0.6,-0.1 1,-0.2 l -0.4,-0.2 c -0.2,0.2 -0.4,0.3 -0.6,0.4 z"
           id="path35"
           inkscape:connector-curvature="0"
           style="fill:none" /><path
           class="noFillSVG"
           d="m 495.6,686.3 c -7.1,1.2 -14.1,3.3 -21.5,5.3 -4.7,1.3 -9.4,2.7 -14.1,4.1 -2.6,0.9 -8.9,1.9 -9.6,5.2 -1.8,7.4 10.5,9.5 15.8,8.5 6.5,-1.1 12.5,-4.5 18,-7.4 3.9,-2 7.4,-4.5 10.6,-7.1 3.2,-2.7 6.2,-5.8 9.1,-8.8 l -0.8,0.1 c -2.6,0.1 -5.1,0.2 -7.5,0.1 z"
           id="path37"
           inkscape:connector-curvature="0"
           style="fill:none" /><path
           class="noFillSVG"
           d="m 367.2,599.6 c -1.5,-3.1 -3.1,-6.3 -4.8,-9.2 -0.9,-1.6 -2.4,-4.1 -4.1,-6.3 -1.7,-2.2 -3.6,-4.1 -5.9,-4.2 -5.8,-0.3 -6.8,2.8 -5.9,6.4 0.8,3.6 3.3,7.7 4,8.9 2.3,3.6 4.9,7.3 7.7,10.6 2.2,2.6 4.8,4.9 7.2,7.3 2.5,2.4 5.1,4.6 7.3,7.3 l 0.3,0.1 c -0.3,-3.8 -1.1,-7.4 -2.1,-10.8 -1,-3.5 -2.2,-6.9 -3.7,-10.1 z"
           id="path39"
           inkscape:connector-curvature="0"
           style="fill:none" /><path
           class="noFillSVG"
           d="m 449,672.2 0.6,0.2 c 0.8,-5 -0.5,-9.7 -2.7,-14.1 -1.2,-2.4 -2.6,-4.9 -4.2,-6.9 -1.1,-1.6 -2.5,-2.9 -4.1,-3.8 -1.7,-1 -2.9,-0.4 -3.5,1.9 -2.4,3.7 -0.3,6.3 1.8,9.5 1.3,2.1 2.8,4.1 4.5,6.1 2.2,2.8 4.9,4.8 7.6,7.1 z"
           id="path41"
           inkscape:connector-curvature="0"
           style="fill:none" /><path
           class="noFillSVG"
           d="m 448.8,675.7 c -1.9,-0.2 -4.7,-0.9 -7.8,-1.6 -3.1,-0.9 -6.6,-1.9 -10.1,-2.6 -7,-1.5 -13.7,-2.6 -17.2,0.6 3.7,5.7 10.2,7.4 17,7.1 3.4,-0.1 6.9,-0.5 10.2,-1 3.3,-0.6 6.4,-1.1 9.2,-1.1 -0.7,-0.1 -1.4,-0.7 -1.3,-1.4 z"
           id="path43"
           inkscape:connector-curvature="0"
           style="fill:none" /><path
           class="noFillSVG"
           d="m 412.3,159.2 c 7,3.3 13.9,4.7 21,5.4 3.5,0.3 6.9,0.4 10.4,0.4 1.9,0 4.8,0 7.5,-0.4 2.7,-0.4 5.3,-1.1 6.6,-3 3.2,-4.8 1,-7.2 -2.6,-8.4 -3.5,-1.2 -8.3,-1.1 -9.7,-0.9 -4.3,0.2 -8.8,0.5 -13.1,1.4 -3.3,0.6 -6.6,1.6 -10,2.5 -3.3,1.1 -6.5,2.1 -10,2.7 l -0.1,0.3 z"
           id="path45"
           inkscape:connector-curvature="0"
           style="fill:none" /><path
           class="noFillSVG"
           d="m 453.5,130.2 -0.4,0.2 c 6.2,4.6 12.4,9.3 18.1,14.1 2.9,2.5 6,5.5 9.2,7.3 2.4,1.3 5.1,2.6 7.6,2.7 7.8,0.6 6.8,-12.1 1.8,-16.4 -1.5,-1.3 -3.3,-2.3 -5.1,-3.3 -4,-1.9 -8.5,-3 -13,-3.8 -3,-0.6 -6,-0.7 -9.1,-0.9 -2.9,0 -6,-0.2 -9.1,0.1 z"
           id="path47"
           inkscape:connector-curvature="0"
           style="fill:none" /><path
           class="noFillSVG"
           d="m 456.7,123 c 3.1,-1.8 6.2,-3.8 9.2,-5.9 3,-2.1 6.1,-4.1 9.2,-6.4 2,-1.4 3.9,-2.9 5.9,-4.3 2,-1.4 4,-2.8 5.9,-4.4 2.2,-1.7 7.7,-4.9 7.3,-8.2 -0.9,-7.6 -13.1,-5.2 -17.8,-2.6 -5.8,3.3 -10.2,8.5 -14.4,13.1 -6,6.6 -9.7,13.8 -13.1,21.6 l 0.7,-0.3 c 2.4,-0.9 4.7,-1.9 7.1,-2.6 z"
           id="path49"
           inkscape:connector-curvature="0"
           style="fill:none" /><path
           class="noFillSVG"
           d="m 522.2,651.2 c -3.6,-1.3 -10.9,-4.2 -14.4,-1.6 -4.6,3.4 -3.4,6.4 -0.4,8.7 1.5,1.1 3.3,2.1 5,2.9 1.7,0.7 3.1,1.1 3.8,1.3 4.1,1.3 8.4,2.6 12.8,3.2 3.4,0.5 6.8,0.8 10.3,1 3.4,0.1 6.9,0.3 10.3,0.9 l 0.2,-0.1 c -5.4,-5.4 -11.4,-9.2 -17.9,-12.3 -3.3,-1.5 -6.5,-2.7 -9.7,-4 z"
           id="path51"
           inkscape:connector-curvature="0"
           style="fill:none" /><path
           class="noFillSVG"
           d="m 415.1,141.5 c 1.8,-3 3.6,-6 5.3,-9.1 2.9,-6 11.3,-16 9.1,-23.1 -1.7,-5.4 -5.5,-4.6 -9.1,-2 -3.5,2.7 -6.6,7.5 -7.5,9.5 -1.7,3.9 -2.6,8 -3.2,12.1 -1,7.3 -1.6,14.7 0.4,21.7 1.6,-3 3.3,-6 5,-9.1 z"
           id="path53"
           inkscape:connector-curvature="0"
           style="fill:none" /><path
           class="noFillSVG"
           d="m 504.6,120.4 c 0.9,4.9 3.8,9 7.3,12.3 1.9,1.9 4.1,3.7 6.4,5.1 1.6,1.1 3.3,1.8 5.2,2.1 2,0.4 2.8,-0.6 2.6,-3 1,-4.3 -1.9,-6.1 -4.9,-8.4 -2,-1.5 -4.1,-2.9 -6.3,-4.2 -3,-1.8 -6.3,-2.8 -9.5,-4 l -0.8,0.1 z"
           id="path55"
           inkscape:connector-curvature="0"
           style="fill:none" /><path
           class="noFillSVG"
           d="m 329.1,199.7 c 3.9,3.2 8.7,4.5 13.6,4.8 2.7,0.2 5.4,0.1 8,-0.3 2,-0.1 3.7,-0.7 5.4,-1.6 1.8,-1 1.8,-2.3 0.1,-4 -2,-3.9 -5.3,-3.4 -9.2,-3.3 -2.5,0.1 -5,0.4 -7.5,0.8 -3.3,0.7 -6.5,2 -9.8,3.1 l -0.6,0.5 z"
           id="path57"
           inkscape:connector-curvature="0"
           style="fill:none" /><path
           class="noFillSVG"
           d="m 504.2,117.1 c 1.9,-0.4 4.7,-0.9 7.9,-1.1 3.2,-0.2 6.9,-0.5 10.4,-1 7.1,-0.9 13.7,-2.2 15.9,-6.4 -5.4,-4.1 -12.1,-3.5 -18.4,-0.8 -3.2,1.3 -6.3,2.9 -9.2,4.4 -2.9,1.7 -5.7,3.2 -8.2,4.2 0.7,-0.3 1.5,-0.1 1.6,0.7 z"
           id="path59"
           inkscape:connector-curvature="0"
           style="fill:none" /><path
           class="noFillSVG"
           d="m 502.4,116.5 c -0.3,0.2 -0.6,0.3 -0.8,0.5 l 0.4,0 c 0,-0.2 0.2,-0.4 0.4,-0.5 z"
           id="path61"
           inkscape:connector-curvature="0"
           style="fill:none" /><path
           class="noFillSVG"
           d="m 293.6,284.9 c 3.3,-1.6 6.2,-3.4 9.1,-5.5 2.9,-2 5.7,-4.1 8.3,-6.3 2.8,-2.5 9.2,-7.2 8.6,-11.6 -0.6,-5.7 -3.8,-6.1 -7.4,-4.7 -3.4,1.4 -6.9,4.7 -7.9,5.5 -3.4,2.8 -6.3,6.1 -9.1,9.4 -2.3,2.6 -4.1,5.5 -6,8.4 -1.9,2.9 -3.9,5.7 -6,8.4 l 0,0.3 c 1.8,-0.5 3.6,-1.1 5.3,-1.8 1.8,-0.6 3.5,-1.3 5.1,-2.1 z"
           id="path63"
           inkscape:connector-curvature="0"
           style="fill:none" /><path
           class="noFillSVG"
           d="m 267.6,470.8 0.2,0.2 c 2.1,-3.1 3.9,-6.4 5.4,-9.7 1.5,-3.3 2.5,-6.6 3.5,-10.1 1,-3.4 1.8,-6.8 2.3,-10.1 0.5,-3.7 2.5,-11.4 -0.9,-14.5 -4.1,-4 -6.9,-2.2 -8.7,1.1 -1.7,3.3 -2.3,8 -2.5,9.3 -0.8,4.3 -0.9,8.7 -0.9,13.1 -0.1,3.4 0.4,6.8 0.8,10.2 0.4,3.6 0.6,7.1 0.8,10.5 z"
           id="path65"
           inkscape:connector-curvature="0"
           style="fill:none" /><path
           class="noFillSVG"
           d="m 262,267.3 c 3.8,6.1 8.1,12.2 14.1,16.4 -1.6,-6.7 -2.3,-13.6 -3.9,-20.6 -1.3,-6.3 -1.7,-19.6 -7.8,-23.5 -9.9,-6.2 -9.2,12.2 -7.9,16.4 1.2,4 3.3,7.8 5.5,11.3 z"
           id="path67"
           inkscape:connector-curvature="0"
           style="fill:none" /><path
           class="noFillSVG"
           d="m 239.9,421 c -0.6,-1.7 -1.4,-3.4 -2.1,-5.1 -0.7,-1.7 -1.4,-3.4 -2.1,-5 -1.5,-3.4 -3.1,-6.7 -4.8,-10.2 -2,-4.4 -4,-8.8 -6.5,-13.1 -1.4,-2.4 -3.3,-8.4 -6.7,-8.6 -3.8,-0.2 -5.8,2.8 -6.5,6.4 -0.6,3.7 0,8 0.8,10.6 1.9,6.2 6.8,11.5 10.4,16.4 2.5,3.5 5.6,6.5 8.9,9.2 3.2,2.7 6.6,5.1 10.1,7.5 l -0.2,-0.8 c -0.5,-2.5 -0.9,-4.9 -1.3,-7.3 z"
           id="path69"
           inkscape:connector-curvature="0"
           style="fill:none" /><path
           class="noFillSVG"
           d="m 264.9,362.8 c 1.3,-1.4 2.4,-2.9 3.1,-4.7 0.8,-1.9 -0.1,-2.9 -2.4,-3.1 -4.1,-1.7 -6.3,0.8 -9.2,3.4 -1.9,1.7 -3.5,3.5 -5.1,5.5 -2.1,2.7 -3.9,5.7 -5.6,8.7 l -0.1,0.7 c 5,-0.1 9.5,-2.2 13.5,-5.1 2.1,-1.6 4.2,-3.4 5.8,-5.4 z"
           id="path71"
           inkscape:connector-curvature="0"
           style="fill:none" /><path
           class="noFillSVG"
           d="m 326.6,197.4 c 2.3,-3.1 7.8,-8.3 12.7,-13.4 4.7,-5.4 9.1,-10.5 8.1,-15.2 -3.4,0.1 -6.3,1.4 -8.7,3.4 -2.4,2 -4.3,4.8 -5.9,7.8 -3.4,5.9 -5.2,13.1 -7.9,17.8 0.3,-0.5 1.1,-0.9 1.7,-0.4 z"
           id="path73"
           inkscape:connector-curvature="0"
           style="fill:none" /><path
           class="noFillSVG"
           d="m 324.8,198.1 c -0.1,0.3 -0.2,0.6 -0.3,0.9 l 0.3,-0.2 c -0.1,-0.2 -0.1,-0.4 0,-0.7 z"
           id="path75"
           inkscape:connector-curvature="0"
           style="fill:none" /><path
           class="noFillSVG"
           d="m 290.4,239 c 1.2,-2.2 2.4,-4.3 3.7,-6.5 1.1,-3.5 2.3,-6.9 3.3,-10.4 1,-3.5 1.8,-7.2 2.9,-10.9 1.3,-4.6 2.5,-9.4 3.5,-14.3 0.6,-2.7 2.8,-8.6 0.4,-10.9 -5.6,-5.3 -13.5,4.3 -15.3,9.4 -1.2,3.1 -1.8,6.3 -2.1,9.6 -0.3,3.3 -0.3,6.6 -0.5,9.6 -0.6,8.7 1.6,17 3.8,25 l 0.3,-0.6 z"
           id="path77"
           inkscape:connector-curvature="0"
           style="fill:none" /><path
           class="noFillSVG"
           d="m 296,240.5 c 7.8,-0.4 15.3,-1 23,-0.8 3.9,0.1 8,0.3 11.6,-0.4 2.7,-0.5 5.7,-1.2 7.7,-2.8 3.1,-2.4 2.4,-5.8 0.2,-8.6 -2.3,-2.8 -6.1,-5.1 -9.4,-5.2 -2,0 -4,0.4 -5.9,0.9 -4.3,1.1 -8.6,3 -12.4,5.4 -2.6,1.6 -5.1,3.3 -7.6,5.1 -2.4,1.9 -4.7,3.9 -7,6 l -0.2,0.4 z"
           id="path79"
           inkscape:connector-curvature="0"
           style="fill:none" /><path
           class="noFillSVG"
           d="m 651.7,143.7 c 3.6,0.7 7.2,1.1 10.8,1.4 3.7,0.3 7.3,0.8 11.2,1 2.4,0.2 4.9,0.3 7.3,0.5 2.4,0.2 4.8,0.4 7.3,0.4 2.8,0.1 9,1.2 10.8,-1.6 4.2,-6.4 -6.7,-12.4 -11.9,-13.4 -6.6,-1.2 -13.3,-0.1 -19.4,0.8 -8.8,1.1 -16.3,4.3 -23.9,8.1 l 0.8,0.2 c 2.3,0.9 4.7,1.6 7,2.6 z"
           id="path81"
           inkscape:connector-curvature="0"
           style="fill:none" /><path
           class="noFillSVG"
           d="m 750,292.6 c 5.2,2.3 7.3,-0.3 7.8,-4 0.4,-3.6 -0.6,-8.3 -0.8,-9.7 -0.7,-4.3 -2.2,-8.5 -3.6,-12.6 -1.1,-3.3 -2.8,-6.2 -4.3,-9.3 -0.8,-1.5 -1.5,-3.1 -2.2,-4.7 -0.8,-1.5 -1.5,-3.1 -2.1,-4.7 l -0.2,-0.1 c -1.8,7.3 -2.4,14.6 -1.6,21.6 0.3,3.5 0.6,7 1.3,10.3 0.7,3.6 1.4,11.6 5.7,13.2 z"
           id="path83"
           inkscape:connector-curvature="0"
           style="fill:none" /><path
           class="noFillSVG"
           d="m 787.8,284.9 c 1.2,1.4 2.4,2.7 3.7,4 1.2,1.4 2.4,2.7 3.7,4 2.5,2.7 5.3,5.2 8,7.9 3.4,3.4 6.8,6.9 10.6,10.1 2.1,1.8 6,6.8 9.2,5.8 3.7,-1.1 4.4,-4.5 3.9,-8.3 -0.6,-3.7 -2.7,-7.6 -4.4,-9.7 -4,-5.2 -10.3,-8.5 -15.4,-11.9 -3.6,-2.4 -7.5,-4.2 -11.5,-5.6 -4,-1.4 -8,-2.5 -12,-3.5 l 0.4,0.7 c 1.3,2.2 2.5,4.3 3.8,6.5 z"
           id="path85"
           inkscape:connector-curvature="0"
           style="fill:none" /><path
           class="noFillSVG"
           d="m 787.8,341 c -1.5,2.2 -2.8,4.7 -3.7,7.1 -0.9,1.8 -1.3,3.6 -1.3,5.5 -0.1,2 1,2.7 3.4,2 4.4,0.2 5.7,-2.9 7.5,-6.3 1.2,-2.2 2.3,-4.5 3,-6.9 1.1,-3.3 1.6,-6.7 2.3,-10.1 l -0.1,-0.7 c -4.8,1.8 -8.3,5.3 -11.1,9.4 z"
           id="path87"
           inkscape:connector-curvature="0"
           style="fill:none" /><path
           class="noFillSVG"
           d="m 796.6,255.7 c 5.1,-2.7 3.6,-6.2 0.3,-9.2 -3.3,-3 -8.3,-5.3 -10.6,-5.8 -4.1,-1 -8.5,-1.1 -12.6,-1 -7.2,0.2 -14.7,0.9 -21.3,4.1 6.8,1.9 12.9,4.8 19.9,6.9 6.1,2 17.8,8.4 24.3,5 z"
           id="path89"
           inkscape:connector-curvature="0"
           style="fill:none" /><path
           class="noFillSVG"
           d="m 763.7,313.2 c -0.9,2.6 -1.8,5.5 -1.5,8 1,7.7 13.3,4.5 16.5,-1.1 1,-1.7 1.7,-3.6 2.2,-5.5 0.6,-2.2 1.1,-4.4 1.3,-6.7 0.2,-2.3 0.2,-4.5 0.2,-6.7 0,-3 -0.2,-6.1 -0.6,-9.1 -0.5,-3 -1.1,-6 -1.7,-9 l -0.2,-0.4 c -3.6,7 -6.7,13.8 -10.8,20.3 -2,3.3 -4.2,6.7 -5.4,10.2 z"
           id="path91"
           inkscape:connector-curvature="0"
           style="fill:none" /><path
           class="noFillSVG"
           d="m 704.1,589.9 c -3.6,0.4 -7,1.1 -10.5,2 -3.4,0.9 -6.7,2 -9.9,3.2 -3.6,1.2 -11,3.8 -12.1,8 -1.4,5.6 1.6,7.1 5.3,7 3.8,0 8.1,-2 9.4,-2.5 4.1,-1.6 8.1,-3.5 11.8,-5.8 6,-3.3 11,-8.3 17,-11.7 l 0.1,-0.3 c -3.8,-0.3 -7.5,-0.3 -11.1,0.1 z"
           id="path93"
           inkscape:connector-curvature="0"
           style="fill:none" /><path
           class="noFillSVG"
           d="m 802.3,328.7 c -0.2,-0.3 -0.4,-0.5 -0.7,-0.7 l 0.1,0.4 c 0.2,0 0.4,0.1 0.6,0.3 z"
           id="path95"
           inkscape:connector-curvature="0"
           style="fill:none" /><path
           class="noFillSVG"
           d="m 802,330.6 c 3.1,7.1 5.9,29.3 14.2,32.3 3.4,-6.1 1.2,-12.5 -2.3,-18.3 -3.5,-5.8 -8.7,-11.1 -11.5,-15.7 0.4,0.6 0.3,1.4 -0.4,1.7 z"
           id="path97"
           inkscape:connector-curvature="0"
           style="fill:none" /><path
           class="noFillSVG"
           d="m 720.2,597.1 c -0.9,6.7 -2.3,13.8 -3.4,20.7 -0.5,3.2 -1.7,8 -2.3,12.7 -0.7,4.6 -0.7,9.2 1.6,12.1 3.5,4.5 6.8,2.5 9.2,-1.2 2.3,-3.8 3.7,-9.3 3.8,-11.5 0.4,-4.2 -0.3,-8.5 -1.2,-12.6 -1.6,-7.1 -3.5,-14.3 -7.7,-20.2 z"
           id="path99"
           inkscape:connector-curvature="0"
           style="fill:none" /><path
           class="noFillSVG"
           d="m 828.5,445.7 c -2.5,-3.4 -5.8,-6.3 -9,-8.8 -2.8,-2.2 -5.8,-4.4 -8.9,-6.3 -3.2,-1.9 -6.5,-3.4 -10,-4.3 3.9,5.8 6.8,12 10.8,18 3.4,5.5 8.3,17.8 15.4,19.4 5.6,1.2 6.7,-2.5 6.1,-6.9 -0.6,-4.3 -2.9,-9.3 -4.4,-11.1 z"
           id="path101"
           inkscape:connector-curvature="0"
           style="fill:none" /><path
           class="noFillSVG"
           d="m 777,439.5 c -2,2.9 -4,5.8 -5.6,8.7 -1.6,3.3 -6.2,9.9 -4.1,13.9 2.6,5.2 5.8,4.4 8.5,1.9 2.7,-2.5 4.9,-6.7 5.6,-7.9 2.2,-3.8 3.7,-7.9 5.3,-12 1.3,-3.2 1.8,-6.6 2.7,-9.9 0.8,-3.4 1.7,-6.7 2.7,-10 l -0.1,-0.3 c -6,4.5 -11.2,9.7 -15,15.6 z"
           id="path103"
           inkscape:connector-curvature="0"
           style="fill:none" /><path
           class="noFillSVG"
           d="m 804.4,517.2 c 0.5,2.8 0.2,9 3.3,10.4 3.5,1.5 6.3,-0.6 8.3,-3.8 1.8,-3.3 2.8,-7.6 2.9,-10.2 0.3,-6.5 -2.5,-13.2 -4.1,-19 -2.5,-8.4 -7.3,-15.4 -12.1,-22.1 l -0.1,0.8 c -0.4,2.5 -0.8,4.9 -1.3,7.3 0.2,7.3 0.6,14.4 1.6,22.1 0.3,4.7 0.7,9.6 1.5,14.5 z"
           id="path105"
           inkscape:connector-curvature="0"
           style="fill:none" /><path
           class="noFillSVG"
           d="m 784.2,522.4 -0.2,0.4 c 0.2,0.2 0.2,0.4 0.3,0.6 -0.1,-0.4 -0.1,-0.7 -0.1,-1 z"
           id="path107"
           inkscape:connector-curvature="0"
           style="fill:none" /><path
           class="noFillSVG"
           d="m 782.8,524.7 c -0.6,1.8 -1.8,4.4 -3.1,7.4 -1.3,3 -2.8,6.3 -4.3,9.5 -1.4,3.3 -2.6,6.6 -3.1,9.5 -0.6,2.9 -0.6,5.5 0.7,7.5 6.5,-2.5 8.9,-8.8 10,-15.5 1,-6.8 0.4,-14.1 1.3,-19.4 -0.2,0.6 -0.8,1.2 -1.5,1 z"
           id="path109"
           inkscape:connector-curvature="0"
           style="fill:none" /><path
           class="noFillSVG"
           d="m 764.6,486.8 c -2.2,1.4 -4.9,3.1 -6.2,5.2 -4.2,6.5 7.3,12 13.4,9.7 1.9,-0.7 3.6,-1.7 5.3,-2.8 1.9,-1.2 3.7,-2.7 5.3,-4.3 1.6,-1.6 3.1,-3.3 4.5,-5 4,-4.7 7,-10 9.9,-15.4 l 0.1,-0.4 c -7.3,3 -14,6.2 -21.3,8.6 -3.9,1.2 -7.8,2.4 -11,4.4 z"
           id="path111"
           inkscape:connector-curvature="0"
           style="fill:none" /><path
           class="noFillSVG"
           d="m 779.7,523.4 c -4.7,-1.7 -9.7,-1.2 -14.5,0.1 -2.6,0.7 -5.2,1.7 -7.4,3 -1.8,0.8 -3.3,1.9 -4.5,3.3 -1.3,1.5 -0.9,2.7 1.3,3.7 3.2,3 6.2,1.4 9.8,0 2.4,-0.9 4.6,-2 6.7,-3.4 2.9,-1.8 5.5,-4 8.3,-6.2 l 0.3,-0.5 z"
           id="path113"
           inkscape:connector-curvature="0"
           style="fill:none" /><path
           class="noFillSVG"
           d="m 641.1,658.2 0.6,-0.2 c -2.6,-4.3 -6.6,-7.1 -11.1,-9.1 -2.5,-1.1 -5.1,-2.1 -7.7,-2.6 -1.9,-0.5 -3.7,-0.6 -5.6,-0.2 -2,0.3 -2.4,1.5 -1.4,3.7 0.6,4.4 3.9,5.1 7.5,6.2 2.4,0.8 4.8,1.3 7.3,1.7 3.6,0.6 6.9,0.5 10.4,0.5 z"
           id="path115"
           inkscape:connector-curvature="0"
           style="fill:none" /><path
           class="noFillSVG"
           d="m 644.2,147 c 1.8,7.4 3.6,15.1 4.8,22.5 0.6,3.8 1.1,8 2.4,11.5 1,2.5 2.2,5.3 4.1,7 5.6,5.5 13,-4.9 11.9,-11.4 -0.3,-2 -1,-3.9 -1.8,-5.7 -1.8,-4.1 -4.6,-7.7 -7.5,-11.3 -2,-2.4 -4.2,-4.4 -6.4,-6.5 -2.3,-2 -4.6,-4.1 -7.1,-5.9 l -0.4,-0.2 z"
           id="path117"
           inkscape:connector-curvature="0"
           style="fill:none" /><path
           class="noFillSVG"
           d="m 691.9,169.7 c 3.5,1.6 9.4,6.4 15.4,10.1 5.9,4 12,7 16.3,5.4 -0.7,-3.4 -2.5,-5.9 -4.9,-7.9 -2.4,-2 -5.3,-3.5 -8.7,-4.5 -3.3,-1.1 -6.7,-1.8 -9.9,-2.5 -3.2,-0.7 -6.4,-1.2 -9,-2.1 0.7,0.1 1.2,0.8 0.8,1.5 z"
           id="path119"
           inkscape:connector-curvature="0"
           style="fill:none" /><path
           class="noFillSVG"
           d="m 690.9,168 c -0.3,-0.1 -0.6,-0.1 -1,-0.2 l 0.3,0.3 c 0.2,-0.1 0.5,-0.1 0.7,-0.1 z"
           id="path121"
           inkscape:connector-curvature="0"
           style="fill:none" /><path
           class="noFillSVG"
           d="m 630,123.2 c 4.3,-1.7 8.3,-4 9.7,-7.4 2.2,-5.3 -1.3,-7.1 -5.7,-7.3 -4.5,-0.1 -9.9,1.5 -11.9,2.4 -3.8,1.9 -7.1,4.4 -10.3,7.3 -5.4,4.9 -10.7,10.2 -13.7,16.8 6.3,-2.7 13.1,-4.9 19.6,-7.4 3.2,-1.3 8,-2.8 12.3,-4.4 z"
           id="path123"
           inkscape:connector-curvature="0"
           style="fill:none" /><path
           class="noFillSVG"
           d="m 627.6,174 c 5.5,-1.6 5.4,-4.9 3.4,-8.1 -1,-1.6 -2.4,-3.1 -3.7,-4.4 -1.3,-1.2 -2.6,-2.1 -3.1,-2.5 -3.4,-2.6 -7,-5.3 -10.9,-7.4 -3,-1.6 -6.1,-3.1 -9.3,-4.5 -3.2,-1.3 -6.4,-2.6 -9.4,-4.3 l -0.3,0 c 3.2,7 7.6,12.5 12.6,17.6 2.5,2.5 5.1,4.7 7.7,7 3,2.5 8.8,7.7 13,6.6 z"
           id="path125"
           inkscape:connector-curvature="0"
           style="fill:none" /><path
           class="noFillSVG"
           d="m 693.2,177.4 c -0.8,-1.5 -1.7,-3 -2.6,-4.4 l -0.5,-0.4 c -2.5,4.4 -2.8,9.2 -2.3,14.1 0.3,2.7 0.8,5.5 1.6,7.9 0.5,1.9 1.4,3.5 2.6,4.9 1.2,1.6 2.5,1.4 3.8,-0.6 3.5,-2.6 2.6,-6 1.7,-9.6 -0.6,-2.4 -1.3,-4.8 -2.2,-7.2 -0.6,-1.6 -1.3,-3.2 -2.1,-4.7 z"
           id="path127"
           inkscape:connector-curvature="0"
           style="fill:none" /><path
           class="noFillSVG"
           d="m 685.9,639.1 c -4.7,5.5 -8.7,11.6 -13.1,17.8 -2.7,4 -5.5,8.1 -8.1,12.2 -1.4,2.4 -5.6,7.2 -4.1,10.2 3.4,6.8 14.1,0.5 17.6,-3.7 4.3,-5.1 6.7,-11.5 9,-17.2 1.7,-4.1 2.8,-8.2 3.6,-12.2 0.7,-4.2 1,-8.4 1.3,-12.6 l -0.6,0.6 c -1.9,1.6 -3.7,3.3 -5.6,4.9 z"
           id="path129"
           inkscape:connector-curvature="0"
           style="fill:none" /><path
           class="noFillSVG"
           d="m 686.4,631.2 0.3,-0.3 c -7.4,-2.2 -14.8,-4.4 -21.9,-7.1 -3.6,-1.4 -7.4,-3 -11.1,-3.6 -2.7,-0.4 -5.7,-0.7 -8.1,0.1 -7.5,2.2 -2.2,13.7 4,16 1.9,0.7 3.9,1.1 5.9,1.3 4.4,0.4 9,-0.1 13.5,-0.8 3,-0.6 5.9,-1.4 8.8,-2.3 1.5,-0.5 2.9,-0.9 4.4,-1.5 l 4.2,-1.8 z"
           id="path131"
           inkscape:connector-curvature="0"
           style="fill:none" /><path
           class="noFillSVG"
           d="m 645.2,660.9 c 0.2,-0.3 0.4,-0.5 0.6,-0.8 l -0.4,0.1 c 0,0.3 -0.1,0.5 -0.2,0.7 z"
           id="path133"
           inkscape:connector-curvature="0"
           style="fill:none" /><path
           class="noFillSVG"
           d="m 643.2,660.9 c -1.6,1 -4.1,2.4 -7,3.8 -3,1.3 -6.3,2.8 -9.4,4.5 -6.3,3.3 -12.1,6.8 -12.8,11.5 6.5,1.9 12.5,-0.8 17.6,-5.6 2.5,-2.3 4.9,-4.9 7.2,-7.3 2.2,-2.6 4.3,-5 6.3,-6.8 -0.6,0.5 -1.4,0.6 -1.9,-0.1 z"
           id="path135"
           inkscape:connector-curvature="0"
           style="fill:none" /><path
           class="st0"
           d="m 836.1,451.9 c -2,-4.8 -5.8,-9.2 -8.5,-12 -3.2,-3.3 -7.6,-7.6 -12.8,-10.9 -5.2,-3.3 -10.7,-5.5 -15.8,-5.1 -2,-8.1 -5.4,-16 -10.4,-21.9 -1.3,-1.5 -4.2,-0.7 -3.7,1.3 0.8,3.2 1.9,6.4 3.2,9.6 1.3,3.2 2.4,6.5 3.6,9.8 -8.6,4.7 -14.6,11.7 -19.6,18.9 -2.4,3.2 -5.5,8 -7.8,12.8 -1.1,2.4 -1.8,4.9 -1.7,7.3 0,2.4 0.6,4.7 2.3,6.8 3,3.7 6.7,4 10.2,2.6 3.5,-1.3 6.8,-4.3 8.4,-6.7 2,-2.8 3.8,-5.8 5.4,-8.9 1.4,-3.2 2.5,-6.5 3.3,-9.9 1.2,-5.3 1,-10.6 2,-15.7 0.6,2.2 1.1,4.4 1.6,6.6 2.3,11.3 2.5,22.9 1.5,34.6 -11.8,3.8 -24.5,5.4 -34.6,10.5 -3.2,1.7 -6.8,4.9 -8.9,8.4 -2,3.5 -2.4,7.6 0.7,11.5 5.5,7.1 17.8,3.7 23.4,-0.1 3.7,-2.4 7.2,-5.3 10.1,-8.8 2.9,-3.5 5.8,-7.3 7.7,-11.5 -2.7,14 -7.5,27.9 -14.8,40.2 -6.6,-2.1 -13.2,-0.9 -19.6,1.1 -5.4,1.8 -15.1,3.8 -13.3,11.1 1.3,5.7 5.7,6.8 11.1,5.4 5.4,-1.4 11.9,-5.4 16.7,-9.5 -1.3,1.8 -2.6,3.7 -3.9,5.5 -1.4,1.7 -2.9,3.4 -4.3,5.1 -0.9,1 0.7,2.6 1.6,1.6 1.5,-1.7 3.1,-3.4 4.6,-5 -2.4,4.2 -4.3,8.6 -5.3,13.1 -1.1,4.4 -1,8.8 1,13.2 0.4,0.9 1.7,1.4 2.5,0.9 3.3,-2.1 6,-4.9 8.3,-8.2 2.1,-3.4 3.7,-7.2 4.8,-11.1 1.1,-3.9 1.5,-8.2 1.6,-12.2 0.1,-4 -0.3,-8 -1.1,-11.7 2.4,-3.9 4.7,-7.8 6.6,-12 1.9,-4.1 3.8,-8.3 5.2,-12.7 -0.1,6 -0.2,12 1,18.2 0.7,3.7 1.4,8.9 3.5,13 2.1,4.1 5.3,7.2 10.6,6.1 4.9,-1.1 7.4,-6.3 8,-12.3 0.7,-6 0.2,-12.4 -0.4,-16.2 -1.5,-13.1 -7.2,-26.5 -17,-34.6 0.5,-5.8 0.9,-11.5 0.6,-17.2 -0.1,-2.9 -0.3,-5.7 -0.5,-8.5 -0.4,-2.8 -0.8,-5.7 -1.3,-8.4 -0.2,-1.2 -0.5,-2.5 -0.7,-3.7 2.4,4 4.8,8.2 6.8,12.6 2.4,5.8 4,12.5 7.7,18 4.2,6.1 14.7,11.7 20.6,3.5 2.6,-4.4 1.8,-9.7 -0.2,-14.5 z m -46.6,-17.7 c -0.8,3.3 -1.4,6.7 -2.7,9.9 -1.6,4.1 -3.1,8.2 -5.3,12 -0.7,1.2 -2.9,5.4 -5.6,7.9 -2.7,2.5 -6,3.2 -8.5,-1.9 -2.2,-4 2.4,-10.6 4.1,-13.9 1.6,-3 3.6,-5.9 5.6,-8.7 3.8,-5.9 9,-11.1 15.1,-15.5 l 0.1,0.3 c -1.2,3.2 -2,6.6 -2.8,9.9 z m -5.3,88.2 c 0,0.3 0,0.7 0,1 0,-0.2 -0.1,-0.5 -0.3,-0.6 l 0.3,-0.4 z m -13.1,7.8 c -2.1,1.3 -4.3,2.5 -6.7,3.4 -3.6,1.4 -6.6,3 -9.8,0 -2.2,-1 -2.6,-2.2 -1.3,-3.7 1.2,-1.4 2.8,-2.5 4.5,-3.3 2.2,-1.3 4.8,-2.3 7.4,-3 4.7,-1.3 9.7,-1.8 14.5,-0.1 l -0.4,0.6 c -2.7,2 -5.3,4.3 -8.2,6.1 z m 11.8,12.9 c -1.1,6.7 -3.5,13 -10,15.5 -1.2,-2 -1.3,-4.6 -0.7,-7.5 0.5,-3 1.7,-6.3 3.1,-9.5 1.5,-3.3 3,-6.6 4.3,-9.5 1.3,-3 2.5,-5.5 3.1,-7.4 0.7,0.2 1.3,-0.4 1.4,-1 -0.7,5.3 -0.2,12.6 -1.2,19.4 z m 13.8,-68.9 c -2.9,5.4 -5.9,10.8 -9.9,15.4 -1.4,1.7 -2.9,3.4 -4.5,5 -1.6,1.6 -3.4,3 -5.3,4.3 -1.6,1.1 -3.4,2.1 -5.3,2.8 -6.1,2.2 -17.6,-3.2 -13.4,-9.7 1.4,-2.2 4,-3.8 6.2,-5.2 3.1,-1.9 7.1,-3.2 10.8,-4.4 7.3,-2.4 14,-5.6 21.3,-8.6 l 0.1,0.4 z m 5.9,-1 0.1,-0.8 c 4.8,6.7 9.6,13.7 12.1,22.1 1.6,5.8 4.4,12.4 4.1,19 -0.1,2.7 -1,7 -2.9,10.2 -2,3.2 -4.8,5.3 -8.3,3.8 -3.1,-1.3 -2.8,-7.6 -3.3,-10.4 -0.8,-4.9 -1.2,-9.8 -1.6,-14.6 -1,-7.7 -1.3,-14.8 -1.6,-22.1 0.5,-2.3 1,-4.8 1.4,-7.2 z m 24.2,-9.4 c -7.2,-1.6 -12,-14 -15.4,-19.4 -4,-6.1 -6.9,-12.3 -10.8,-18 3.5,0.9 6.9,2.4 10,4.3 3.1,1.8 6,4 8.9,6.3 3.3,2.5 6.5,5.4 9,8.8 1.4,1.8 3.7,6.8 4.4,11.2 0.6,4.3 -0.5,8.1 -6.1,6.8 z"
           id="path137"
           inkscape:connector-curvature="0"
           style="fill:#231f20" /><path
           class="st0"
           d="m 744.9,565.8 c -5.2,6.6 5.9,15.7 11.5,8.6 5.3,-7.2 -6.6,-15.4 -11.5,-8.6 z"
           id="path139"
           inkscape:connector-curvature="0"
           style="fill:#231f20" /><path
           class="st0"
           d="m 729.2,608.3 c -1.7,-5.7 -4.6,-11.1 -8.7,-14.1 1.7,-3.8 3.3,-7.7 4.4,-11.6 1,-4 1.6,-8 1.6,-11.9 0,-2 -2.8,-3.3 -3.7,-1.4 -1.4,3 -2.5,6.2 -3.7,9.4 -1.2,3.2 -2.3,6.5 -3.5,9.9 -4.8,-1 -9.6,-1.2 -14.1,-0.7 -4.5,0.5 -8.9,1.4 -13.2,2.5 -3.7,1.1 -9.5,2.5 -14.2,4.9 -4.7,2.5 -8.6,5.6 -8.6,11.2 -0.1,4.7 2.6,7.4 6.1,8.5 3.5,1.2 7.8,0.9 10.8,0.2 3.4,-0.7 6.6,-2 9.8,-3.4 1.6,-0.7 3.1,-1.5 4.7,-2.4 1.5,-0.9 2.9,-1.9 4.2,-3 2.1,-1.7 4.1,-3.5 6,-5.3 1.8,-1.9 3.7,-3.8 5.6,-5.5 -0.9,2.1 -1.9,4.1 -3,6.1 -5.7,9.9 -12.7,19.3 -21.2,27.4 -11.3,-4.3 -22.3,-11.8 -33.2,-14 -3.7,-0.8 -8.4,-0.8 -12.2,0.7 -3.8,1.4 -6.8,4.1 -6.9,9.2 -0.2,9.1 11.1,14.1 18.1,15 4.3,0.5 8.8,0.3 13.4,-0.3 4.6,-0.7 9,-2.2 13.3,-3.8 -10.9,9.2 -23.8,16.3 -37.2,21.3 -3.8,-6 -9.6,-9.2 -15.7,-11.7 -2.7,-1.1 -6.2,-2.8 -9.4,-3.4 -1.6,-0.3 -3.2,-0.3 -4.5,0.2 -1.4,0.5 -2.5,1.4 -3.4,3 -2.6,5.1 0,8.8 5.1,11.3 5.1,2.6 12.5,3.3 18.9,3.5 -4.4,1.1 -8.7,2.1 -13.1,2.8 -1.3,0.2 -1.2,2.3 0.2,2.2 2.2,-0.3 4.4,-0.7 6.7,-1 -2.2,0.9 -4.4,1.9 -6.5,3 -2.1,1 -4.1,2.2 -5.9,3.6 -1.8,1.4 -3.4,2.9 -4.7,4.8 -1.3,1.8 -2.4,3.7 -3,6 -0.3,0.9 0.4,2.2 1.4,2.3 3.9,0.7 7.8,0.1 11.6,-1 3.8,-1.1 7.5,-2.9 10.8,-5.4 3.3,-2.5 6.5,-5.1 9.1,-8.3 2.6,-3.1 4.9,-6.4 6.6,-9.6 4.3,-1.4 8.5,-3.2 12.7,-5 4.2,-1.8 8.1,-4.1 12.1,-6.4 -4.1,4.3 -7.7,9.3 -11,14.6 -1.9,3.1 -4.5,7.9 -5.6,12.3 -1.1,4.4 -0.6,8.8 4.2,11.4 4.5,2.5 9.6,-0.3 14,-4.3 4.5,-4 8,-9.6 10.1,-12.7 3.7,-5.4 6.5,-11.8 8.2,-18.1 1.7,-6.4 2.1,-13.1 0.9,-19.4 4.2,-3.9 7.9,-8.4 11.6,-12.8 3.4,-4.7 6.7,-9.2 9.5,-14.2 0.6,-1.1 1.2,-2.2 1.8,-3.3 -0.7,4.7 -1.5,9.5 -2.9,14 -0.9,3 -2.2,6.1 -3.2,9.2 -1.1,3.1 -2.1,6.2 -2.5,9.5 -0.7,7.5 3.9,18.5 13.5,15.9 2.4,-0.7 4.4,-2.1 6,-4 1.5,-1.9 2.6,-4.3 3.3,-6.9 1.4,-5.1 1.6,-10.6 1.3,-14.5 -0.3,-4.5 -1,-10.8 -2.8,-16.5 z m -98.4,49.4 c -2.5,-0.4 -4.9,-1 -7.3,-1.7 -3.6,-1.1 -6.9,-1.8 -7.5,-6.2 -1,-2.2 -0.5,-3.3 1.4,-3.7 1.8,-0.4 3.7,-0.3 5.6,0.2 2.6,0.5 5.2,1.4 7.7,2.6 4.4,1.9 8.5,4.7 11.1,9.1 l -0.6,0.2 c -3.6,0 -6.9,0.1 -10.4,-0.5 z m 7.9,10.2 c -2.2,2.5 -4.6,5 -7.2,7.3 -5,4.7 -11.1,7.5 -17.6,5.6 0.7,-4.7 6.5,-8.2 12.8,-11.5 3.2,-1.7 6.5,-3.2 9.4,-4.5 2.9,-1.4 5.4,-2.7 7,-3.8 0.4,0.7 1.3,0.6 1.8,0.2 -1.9,1.7 -4,4.1 -6.2,6.7 z m 6.5,-7 c 0.1,-0.2 0.2,-0.4 0.2,-0.6 l 0.4,-0.1 c -0.2,0.2 -0.4,0.4 -0.6,0.7 z m 32.5,-26.5 c -2.9,0.9 -5.9,1.7 -8.8,2.3 -4.5,0.7 -9.1,1.3 -13.5,0.8 -1.9,-0.2 -4,-0.6 -5.9,-1.3 -6.2,-2.3 -11.5,-13.8 -4,-16 2.4,-0.8 5.4,-0.5 8.1,-0.1 3.7,0.6 7.5,2.3 11.1,3.6 7,2.7 14.5,4.9 21.9,7.1 l -0.3,0.3 -4.2,1.8 c -1.4,0.6 -2.9,1.1 -4.4,1.5 z m 13,11.8 c -0.8,4.1 -1.9,8.2 -3.6,12.2 -2.3,5.7 -4.7,12.1 -9,17.2 -3.5,4.1 -14.2,10.5 -17.6,3.7 -1.5,-3 2.6,-7.8 4.1,-10.2 2.6,-4.1 5.4,-8.2 8.1,-12.2 4.4,-6.2 8.4,-12.4 13.1,-17.8 1.9,-1.6 3.8,-3.2 5.6,-4.9 l 0.6,-0.6 c -0.2,4.2 -0.6,8.4 -1.3,12.6 z m 24.4,-56.1 c -6,3.4 -11,8.4 -17,11.7 -3.7,2.3 -7.7,4.2 -11.8,5.8 -1.3,0.5 -5.6,2.4 -9.4,2.5 -3.7,0.1 -6.7,-1.4 -5.3,-7 1.1,-4.2 8.5,-6.7 12.1,-8 3.2,-1.2 6.4,-2.3 9.9,-3.2 3.5,-0.9 6.9,-1.6 10.5,-2 3.6,-0.4 7.3,-0.4 11.1,-0.1 l -0.1,0.3 z m 14,39.8 c -0.2,2.2 -1.5,7.6 -3.8,11.5 -2.4,3.8 -5.7,5.7 -9.2,1.2 -2.3,-2.9 -2.2,-7.5 -1.6,-12.1 0.6,-4.7 1.8,-9.5 2.3,-12.7 1.1,-6.9 2.5,-14 3.4,-20.7 4.2,5.9 6.2,13.1 7.7,20.2 0.8,4.1 1.5,8.4 1.2,12.6 z"
           id="path141"
           inkscape:connector-curvature="0"
           style="fill:#231f20" /><path
           class="st0"
           d="m 587.9,668.2 c -8.2,1.9 -5.6,16 3.2,14 8.8,-2.1 4.9,-15.9 -3.2,-14 z"
           id="path143"
           inkscape:connector-curvature="0"
           style="fill:#231f20" /><path
           class="st0"
           d="m 568.7,656.7 c -3,1.5 -6,3 -8.9,4.8 -3,1.7 -5.9,3.7 -9,5.3 -3,-3.9 -6.6,-7 -10.3,-9.5 -3.7,-2.5 -7.7,-4.8 -11.7,-6.6 -3.6,-1.5 -8.9,-4.4 -14,-5.4 -5.2,-1.2 -10.2,-1.2 -13.8,3 -3.1,3.5 -2.7,7.3 -0.8,10.5 1.9,3.1 5.4,5.7 8.1,7 3.1,1.6 6.4,2.8 9.8,3.7 3.4,0.8 6.8,1.7 10.3,1.6 5.4,0 10.6,-0.5 15.8,-0.8 -2,1 -4.1,2.1 -6.2,2.8 -10.7,3.9 -22.2,6.6 -33.8,7.3 -5.9,-10.5 -9.5,-23.4 -16.5,-32 -2.3,-3 -5.9,-6.1 -9.8,-7.3 -3.8,-1.4 -7.9,-1.2 -11.2,2.6 -6,6.8 -0.5,17.9 4.2,23.1 3,3.2 6.6,5.9 10.5,8.4 3.9,2.4 8.3,4.1 12.7,5.6 -14.3,0 -28.7,-2.8 -42.2,-7.5 1,-7 -1.4,-13.2 -4.5,-19.1 -1.3,-2.6 -2.9,-6.2 -5,-8.7 -2.1,-2.5 -4.7,-3.9 -8.2,-2.5 -5.3,2.2 -5.7,6.7 -3.4,11.9 2.3,5.2 7.5,10.6 12.3,14.8 -4.1,-1.9 -8,-4 -11.8,-6.3 -1.1,-0.7 -2.4,1.1 -1.3,1.9 1.9,1.2 3.8,2.3 5.8,3.5 -2.3,-0.7 -4.6,-1.4 -6.9,-1.9 -2.3,-0.6 -4.6,-1 -6.8,-1.1 -4.5,-0.2 -8.9,0.7 -12.8,3.3 -0.8,0.5 -1.1,1.9 -0.4,2.7 2.5,3 5.9,5 9.5,6.7 1.8,0.8 3.7,1.4 5.7,1.9 2,0.4 4,0.7 6.1,0.9 8.2,0.8 16.8,-1 23.6,-3.6 4.2,1.7 8.6,3 12.9,4.4 4.4,1.2 8.9,2.1 13.4,2.9 -5.9,0.6 -11.9,2.2 -17.8,4.1 -3.5,1.2 -8.5,3.1 -12.2,5.8 -3.7,2.7 -6.2,6.3 -4.1,11.5 1.9,4.7 7.6,5.9 13.5,5.7 6,-0.2 12.3,-2.2 15.9,-3.2 6.3,-1.8 12.5,-4.9 17.9,-8.6 5.4,-3.8 10,-8.8 13.2,-14.2 5.8,-0.2 11.5,-1.3 17.1,-2.4 5.6,-1.1 11.1,-2.9 16.4,-4.7 1.2,-0.4 2.4,-0.9 3.6,-1.4 -3.6,3.2 -7.2,6.1 -11.2,8.8 -5.3,3.7 -11.6,6 -16.4,10.7 -5.3,5.3 -8.9,16.7 0.1,20.9 4.6,2.1 9.7,0.8 14,-2.3 4.4,-3 8,-7.2 10.3,-10.3 2.7,-3.7 6.1,-9.1 8.5,-14.6 2.4,-5.6 3.6,-11.4 2.4,-16.4 3.8,-1.6 7.5,-3.9 10.9,-6.1 1.7,-1.2 3.3,-2.4 4.8,-3.7 1.5,-1.4 2.9,-2.8 4.1,-4.4 0.8,-1.7 -0.5,-4.4 -2.4,-3.5 z m -127.3,8.5 c -1.7,-1.9 -3.1,-4 -4.5,-6.1 -2,-3.2 -4.1,-5.8 -1.8,-9.5 0.6,-2.3 1.7,-3 3.5,-1.9 1.6,0.9 3,2.2 4.1,3.8 1.7,2 3,4.5 4.2,6.9 2.2,4.4 3.5,9.1 2.7,14.1 l -0.6,-0.2 c -2.7,-2.4 -5.4,-4.4 -7.6,-7.1 z m -0.5,12.8 c -3.3,0.5 -6.8,0.9 -10.2,1 -6.9,0.3 -13.3,-1.4 -17,-7.1 3.5,-3.2 10.2,-2.1 17.2,-0.6 3.5,0.8 7,1.8 10.1,2.6 3.2,0.7 5.9,1.4 7.8,1.6 -0.1,0.8 0.6,1.3 1.3,1.3 -2.7,0.2 -5.9,0.7 -9.2,1.2 z m 9.5,-1.1 c 0.2,-0.1 0.4,-0.2 0.6,-0.4 l 0.4,0.2 c -0.4,0.1 -0.7,0.1 -1,0.2 z m 41.9,0.6 c -2.8,-1.2 -5.6,-2.4 -8.3,-3.9 -3.9,-2.3 -7.7,-4.9 -10.9,-8.1 -1.4,-1.3 -2.7,-3 -3.7,-4.7 -3.2,-5.7 0.1,-17.9 7.3,-14.8 2.4,0.9 4.5,3.1 6.3,5.2 2.4,2.9 4.3,6.6 6.2,9.9 3.7,6.5 8,13.1 12.2,19.5 l -0.4,0 c -3,-0.8 -5.9,-1.9 -8.7,-3.1 z m 2.4,17.4 c -3.2,2.6 -6.7,5.1 -10.6,7.1 -5.5,2.9 -11.4,6.3 -18,7.4 -5.3,1 -17.6,-1.1 -15.8,-8.5 0.8,-3.3 7,-4.3 9.6,-5.2 4.7,-1.5 9.4,-2.8 14.1,-4.1 7.3,-1.9 14.4,-4.1 21.5,-5.3 2.5,0.1 5,0 7.4,-0.1 l 0.8,-0.1 c -2.8,3 -5.8,6.1 -9,8.8 z m 47,1.8 c -2,3.7 -4.2,7.3 -7.1,10.3 -1.5,1.6 -6.1,5 -10.3,6.3 -4.2,1.3 -8.1,0.8 -7.8,-4.9 0.1,-3.7 3.1,-7.2 6.6,-10.3 3.5,-3 7.4,-6.1 9.9,-8.2 2.6,-2.4 5.4,-4.6 8.1,-6.8 2.7,-2.3 5.3,-4.6 7.9,-6.9 -0.8,7.2 -3.9,14 -7.3,20.5 z m 7.8,-29.2 c -3.4,-0.6 -6.9,-0.7 -10.3,-0.9 -3.4,-0.3 -6.9,-0.5 -10.3,-1 -4.3,-0.6 -8.6,-1.9 -12.8,-3.2 -0.6,-0.2 -2.1,-0.6 -3.8,-1.3 -1.7,-0.7 -3.5,-1.7 -5,-2.9 -3,-2.3 -4.2,-5.3 0.4,-8.7 3.5,-2.5 10.9,0.4 14.4,1.6 3.2,1.2 6.4,2.5 9.6,3.9 6.5,3.1 12.5,6.8 17.9,12.3 l -0.1,0.2 z"
           id="path145"
           inkscape:connector-curvature="0"
           style="fill:#231f20" /><path
           class="st0"
           d="m 401.8,645.6 c -7.5,-3.8 -14.5,8.7 -6.5,12.8 8,4.1 13.9,-9 6.5,-12.8 z"
           id="path147"
           inkscape:connector-curvature="0"
           style="fill:#231f20" /><path
           class="st0"
           d="m 394.5,624.5 c -3.3,-0.8 -6.5,-1.5 -9.9,-2.1 -3.4,-0.6 -6.9,-1 -10.3,-1.7 0.2,-5 -0.5,-9.6 -1.8,-13.9 -1.2,-4.5 -2.9,-8.6 -4.8,-12.5 -1.6,-3.6 -4,-9 -7.2,-13.2 -3.1,-4.4 -7.2,-7.3 -12.5,-6.6 -4.7,0.7 -6.8,3.8 -7.3,7.5 -0.6,3.8 0.4,7.9 1.7,10.6 2.7,6.4 6.8,12.2 11.9,17 4.2,3.5 8.5,6.3 12.6,9.5 -2.2,-0.5 -4.4,-1.1 -6.5,-1.9 -5.4,-1.9 -10.7,-4.1 -15.8,-6.9 -5.2,-2.6 -10.1,-5.8 -14.8,-9.2 1.1,-5.9 3.2,-12 4.8,-17.9 1.7,-5.9 3,-11.6 3.3,-17.3 0.1,-7.4 -3.3,-18.6 -13.2,-17.1 -4.4,0.7 -7.5,4 -9.3,8.1 -1.9,4.1 -2.4,8.8 -2.2,12.3 0.1,2.2 0.4,4.4 0.8,6.7 0.5,2.2 1.1,4.4 1.9,6.5 0.8,2.2 1.6,4.3 2.6,6.4 1,2.1 2.2,4.1 3.5,6 -10.8,-9.2 -20.4,-20.4 -27.5,-32.9 2.6,-2.4 4.4,-5.1 5.8,-8.1 1.4,-3 2.3,-6.2 3.1,-9.5 0.6,-2.8 1.6,-6.5 1.6,-9.8 0.1,-3.3 -0.9,-6.2 -4.6,-7.2 -5.6,-1.7 -8.8,1.5 -10.2,7 -0.7,2.7 -1,5.9 -1.1,9.3 0,3.4 0.5,6.8 1,9.9 -1.9,-4.1 -3.7,-8.1 -5.1,-12.4 -0.4,-1.3 -2.5,-0.7 -2.1,0.6 0.7,2.2 1.3,4.3 2.1,6.5 -2.5,-4.1 -5.3,-8.1 -8.7,-11.1 -3.3,-3.1 -7.1,-5.3 -11.9,-5.7 -1,-0.1 -2.1,0.8 -2,1.8 0.2,3.9 1.1,7.7 3,11.2 1.9,3.5 4.3,6.8 7.2,9.7 6,5.7 13.4,10.1 20.5,12.3 1.1,2 2.2,4 3.3,6 1.2,1.9 2.5,3.8 3.8,5.7 1.3,1.9 2.6,3.7 4,5.6 1.4,1.8 2.9,3.5 4.4,5.2 -5.1,-3.1 -10.4,-6.1 -16.3,-8.3 -3.5,-1.3 -8.5,-3.1 -13.1,-3.4 -4.6,-0.3 -8.9,0.9 -10.6,6.1 -1.6,4.8 1.8,9.5 6.6,13.1 2.4,1.8 5.1,3.4 7.5,4.7 2.5,1.3 4.9,2.3 6.7,3 3,1.3 6.2,2.4 9.4,3.3 3.3,0.8 6.6,1.4 9.9,1.6 3.3,0.3 6.6,0.3 9.8,-0.1 3.3,-0.4 6.4,-1.2 9.4,-2.3 2.4,1.7 4.7,3.3 7.1,4.9 2.5,1.5 5,2.9 7.5,4.3 4.9,2.8 10.3,4.9 15.6,6.9 1.2,0.4 2.3,0.9 3.6,1.3 -4.8,0.1 -9.4,0 -14.3,-0.5 -6.4,-0.6 -12.7,-2.9 -19.5,-2.3 -7.4,0.6 -17.5,6.9 -13.3,16.1 2.2,4.5 7,6.7 12.3,7.3 5.3,0.5 10.8,-0.4 14.6,-1.3 4.4,-1 10.5,-3 15.9,-5.7 5.4,-2.8 10.1,-6.5 12.3,-11 3.9,1.2 8.2,1.9 12.2,2.3 2,0.2 4,0.3 6,0.3 2,-0.1 4,-0.3 5.9,-0.7 2,-0.5 2.7,-3.5 0.7,-4 z M 274.4,553 c -5.2,-4.3 -9.6,-9.5 -8.4,-16.4 2.3,-0.1 4.6,1.2 6.8,3.2 2.3,1.9 4.6,4.6 6.7,7.5 2.1,2.9 4.2,5.8 6.1,8.5 1.9,2.6 3.5,5 4.9,6.3 -0.6,0.5 -0.4,1.3 0.2,1.8 -4.5,-3.5 -10.8,-6.8 -16.3,-10.9 z m 16.5,10.9 c 0.2,0.1 0.4,0.1 0.7,0.1 l 0.2,0.4 c -0.3,-0.2 -0.6,-0.3 -0.9,-0.5 z m 1.9,-4.5 c -0.6,-3.4 -1.2,-6.8 -1.3,-10.3 -0.1,-2.5 0,-5 0.4,-7.5 0.6,-3.8 0.7,-7.2 4.9,-8.5 1.9,-1.4 3.2,-1.1 3.8,0.8 0.6,1.8 0.8,3.7 0.7,5.6 0,2.6 -0.4,5.3 -1.1,8 -1.2,4.8 -3.3,9.3 -7.1,12.6 l -0.3,-0.7 z m 7.7,45.4 c -5.8,-1.5 -12.9,-2.5 -18.5,-5.9 -2.3,-1.4 -5.5,-4.4 -7.4,-7.6 -1.9,-3.2 -2.2,-6.8 0.8,-9.1 2.7,-2 8,1.3 10.7,2.3 4.7,1.7 8.9,3.9 13.4,5.9 3.5,1.5 6.9,3.1 10.2,4.7 3.3,1.6 6.6,3.2 9.7,5 1.9,1.6 3.7,3.3 5.7,4.8 l 0.7,0.5 c -8.4,0.9 -16.5,1.3 -25.3,-0.6 z m 27,-5.2 -0.3,-0.3 c -3.1,-5.3 -6.4,-10.5 -8.4,-16.3 -1.5,-4.3 -3,-8.5 -3.2,-13.1 -0.1,-2 -0.1,-4 0.2,-6 1.1,-6.4 11.6,-13.7 15.1,-6.7 1.1,2.3 1.3,5.3 1.4,8 0.1,3.7 -0.8,7.8 -1.6,11.6 -1.4,7.5 -2.1,15 -3.2,22.8 z m 20.5,38.2 c -3.8,1.5 -7.9,2.9 -12.1,3.3 -4.5,0.8 -22.4,-2.1 -14.8,-10.6 2.5,-2.7 7,-3.5 11.7,-3.7 2.3,-0.1 4.7,0 6.9,0.1 2.2,0 4.3,0.1 5.9,0 3.6,-0.1 7.1,-0.1 10.5,0 3.5,0 7,-0.1 10.5,-0.2 -5,5.1 -11.8,8.4 -18.6,11.1 z m 24.7,-17.3 c -2.2,-2.7 -4.8,-4.9 -7.3,-7.3 -2.5,-2.4 -5,-4.8 -7.2,-7.3 -2.8,-3.4 -5.4,-7 -7.7,-10.6 -0.7,-1.1 -3.2,-5.3 -4,-8.9 -0.8,-3.6 0.1,-6.7 5.9,-6.4 2.2,0.1 4.2,1.9 5.9,4.2 1.7,2.2 3.2,4.7 4.1,6.3 1.7,2.9 3.2,6.1 4.8,9.2 1.5,3.2 2.8,6.6 3.7,10 1,3.4 1.7,7 2.1,10.8 l -0.3,0 z"
           id="path149"
           inkscape:connector-curvature="0"
           style="fill:#231f20" /><path
           class="st0"
           d="m 273.6,508.7 c -3.1,-7.8 -16.6,-2.7 -13.2,5.6 3.7,8.3 16.7,2.1 13.2,-5.6 z"
           id="path151"
           inkscape:connector-curvature="0"
           style="fill:#231f20" /><path
           class="st0"
           d="m 269.1,483 c 2.9,2.9 6.1,5.4 9.5,7.4 1.7,1 4.2,-0.8 3,-2.5 -1.9,-2.7 -4,-5.3 -6.3,-7.9 -2.2,-2.6 -4.5,-5.3 -6.7,-7.9 1.6,-1.8 3,-3.7 4.3,-5.7 1.3,-2 2.4,-4 3.4,-6.1 1.9,-4.1 3.1,-8.4 4.4,-12.7 1,-3.8 2.5,-9.4 3,-14.7 0.2,-2.7 -0.1,-5.2 -0.9,-7.5 -0.7,-2.3 -2.1,-4.2 -4.5,-5.6 -4.1,-2.5 -7.6,-1.5 -10.4,1 -2.8,2.4 -4.9,6.4 -5.6,9.2 -0.9,3.3 -1.6,6.8 -2,10.2 -0.4,3.5 -0.2,7 0.3,10.4 0.6,5.4 2.6,10.3 3.5,15.4 -1.3,-1.8 -2.6,-3.7 -3.7,-5.6 -3.1,-4.9 -5.3,-10.1 -7.7,-15.4 -2.1,-5.4 -3.9,-10.9 -5.4,-16.6 9.7,-7.6 21.2,-13.4 28.9,-21.7 1.2,-1.4 2.4,-3.1 3.3,-5 1,-1.9 1.8,-3.9 2.2,-6 0.7,-4 -0.4,-8 -4.6,-10.6 -7.6,-4.8 -18,2.6 -22,8.2 -5.4,7 -8.6,16.1 -9.8,25.2 -2.2,-14 -2.5,-28.8 0.1,-42.9 3.5,-0.1 6.6,-1.1 9.6,-2.5 3,-1.4 5.8,-3.3 8.5,-5.3 2.3,-1.7 5.4,-4 7.5,-6.5 2.2,-2.5 3.2,-5.3 1.2,-8.5 -3.2,-4.9 -7.7,-4.4 -12.3,-1.2 -2.3,1.6 -4.6,3.9 -6.8,6.5 -2.1,2.6 -4,5.5 -5.6,8.2 1.1,-4.3 2.3,-8.6 4.1,-12.7 0.5,-1.2 -1.5,-2.2 -2,-0.9 -0.9,2.1 -1.8,4.2 -2.6,6.3 0.7,-4.7 1.2,-9.6 0.5,-14.1 -0.6,-4.5 -2,-8.6 -5.4,-12 -0.7,-0.7 -2.1,-0.7 -2.7,0 -2.4,3.1 -4.1,6.6 -5,10.5 -0.8,3.9 -1,8 -0.7,12.1 1,8.2 3.7,16.3 7.8,22.6 -0.9,4.5 -1.8,8.9 -2.1,13.5 -0.3,4.5 -0.8,9.1 -0.5,13.7 -1,-2.9 -2,-5.7 -3.1,-8.5 -1.1,-2.8 -2.5,-5.6 -4.1,-8.3 -1.9,-3.2 -4.4,-7.8 -7.8,-11 -3.3,-3.2 -7.4,-5 -12,-2.1 -4.2,2.7 -4.8,8.5 -3.3,14.3 1.4,5.9 4,11.7 5.9,15 5.8,11.8 15.9,22.5 27.8,26.7 3,11.2 7,22 12.9,31.7 0.6,1.1 1.3,2.2 1.9,3.3 -3.6,-3 -7.4,-6 -10.7,-9.5 -4.2,-4.7 -8.1,-10.4 -13.3,-14.3 -6,-4.3 -17.9,-6 -20.6,3.7 -1.5,4.9 1.2,9.6 4.8,13.4 3.5,3.8 8.5,6.7 12,8.4 4.2,2 9.9,4.5 15.7,5.9 6,1.3 12,1.5 16.6,-0.6 2.2,3.4 4.6,6.7 7.5,9.6 z m -2.3,-45.9 c 0.2,-1.4 0.9,-6.1 2.5,-9.3 1.8,-3.3 4.6,-5.1 8.7,-1.1 3.4,3 1.4,10.8 0.9,14.5 -0.5,3.3 -1.3,6.7 -2.3,10.1 -0.9,3.4 -2,6.8 -3.5,10.1 -1.5,3.3 -3.4,6.5 -5.4,9.7 l -0.2,-0.2 c -0.2,-3.4 -0.4,-6.9 -0.8,-10.3 -0.4,-3.4 -0.9,-6.8 -0.8,-10.2 0.1,-4.5 0.1,-8.9 0.9,-13.3 z m -21.2,-64.5 c 1.8,-3 3.5,-6 5.6,-8.7 1.6,-2 3.2,-3.8 5.1,-5.5 2.9,-2.6 5.2,-5.1 9.2,-3.4 2.4,0.2 3.2,1.2 2.4,3.1 -0.7,1.8 -1.8,3.3 -3.1,4.7 -1.7,2 -3.7,3.8 -5.9,5.4 -4,2.9 -8.6,5 -13.5,5.1 l 0.2,-0.7 z m -14.3,49 c -3.3,-2.7 -6.3,-5.7 -8.9,-9.2 -3.6,-4.9 -8.4,-10.2 -10.4,-16.4 -0.8,-2.5 -1.4,-6.9 -0.8,-10.6 0.7,-3.7 2.7,-6.6 6.5,-6.4 3.4,0.2 5.2,6.2 6.7,8.6 2.5,4.3 4.5,8.8 6.5,13.1 1.7,3.4 3.4,6.8 4.8,10.2 0.7,1.7 1.4,3.4 2.1,5 0.7,1.7 1.4,3.4 2.1,5.1 0.4,2.4 0.8,4.9 1.3,7.3 l 0.2,0.8 c -3.5,-2.4 -6.9,-4.8 -10.1,-7.5 z m 10.3,-45.8 c -0.1,-0.3 -0.2,-0.6 -0.4,-0.9 0.1,0.2 0.2,0.4 0.5,0.5 l -0.1,0.4 z m 0.6,-2.7 c -0.8,0 -1.1,0.8 -1,1.5 -1.2,-5.3 -4,-12 -5.5,-18.7 -0.6,-3.3 -0.9,-6.7 -0.4,-9.8 0.3,-1.5 0.7,-3 1.4,-4.4 0.8,-1.4 1.8,-2.7 3,-3.8 3.5,2.9 4,9.7 3.5,16.8 -0.3,3.6 -0.5,7.2 -0.7,10.4 -0.2,3.3 -0.5,6.1 -0.3,8 z m 4.2,52.2 c 0.4,-3.1 0.9,-6.1 1.5,-9.1 0.7,-3 1.5,-5.9 2.5,-8.8 0.8,-2.1 1.5,-4.2 2.5,-6.3 1,-2 2.2,-4 3.5,-5.8 1.2,-1.6 2.5,-3.2 4,-4.4 4.9,-4.2 17.6,-3 15.9,4.6 -0.5,2.5 -2.5,4.9 -4.1,7.1 -2.3,2.9 -5.6,5.4 -8.6,7.8 -6.1,4.8 -11.3,10.1 -17.1,15.4 l -0.1,-0.5 z m -8.8,42.9 c -3.9,-1.3 -8,-2.9 -11.6,-5.2 -3.6,-2.4 -16,-16 -4.4,-17.6 7.2,-0.9 16,9.1 21.1,13 5.7,4.4 10.7,9.2 16.2,13.3 -7.3,0.7 -14.4,-1.3 -21.3,-3.5 z"
           id="path153"
           inkscape:connector-curvature="0"
           style="fill:#231f20" /><path
           class="st0"
           d="m 263.5,321.5 c 2.6,-8 -11,-12.8 -13.8,-4.2 -2.4,8.7 11.6,12.3 13.8,4.2 z"
           id="path155"
           inkscape:connector-curvature="0"
           style="fill:#231f20" /><path
           class="st0"
           d="m 255.4,261.6 c 1.9,4.2 4.6,9.8 8.3,14.6 3.7,4.9 8.2,8.9 13.1,10.3 -0.9,8.3 -0.4,16.9 2.3,24.1 0.7,1.9 3.7,2.1 4,0 0.3,-3.3 0.4,-6.7 0.3,-10.1 -0.1,-3.5 0,-6.9 -0.1,-10.4 4.8,-0.7 9.2,-2.2 13.4,-4.1 4.2,-1.9 7.8,-4.4 11.5,-6.9 3.2,-2.2 8,-5.6 11.7,-9.4 3.6,-3.9 6.1,-8.3 4.3,-13.4 -3,-9.1 -13.8,-5.9 -18.9,-2.5 -2.8,2 -5.5,4.2 -8.1,6.6 -2.6,2.4 -4.6,5.2 -6.5,8.1 -3,4.5 -4.6,9.6 -7.3,14.1 0.2,-2.2 0.4,-4.5 0.8,-6.7 0.8,-5.7 2.4,-11.2 4,-16.8 1.8,-5.5 4,-10.9 6.5,-16.2 6.1,0.2 12.4,1 18.4,1.6 6.1,0.6 12.1,1.1 17.6,0.3 7.3,-1.1 17.8,-6.5 14.6,-15.9 -1.5,-4.3 -5.2,-6.7 -9.6,-7.8 -4.3,-1.1 -9.3,-1 -12.5,-0.1 -4.2,1 -8.5,2.6 -12.6,4.8 -3.9,2.3 -7.8,5 -11.2,8.1 7.3,-12.2 16.7,-23.5 27.7,-32.7 5.6,4.3 12.2,5.4 18.8,5.7 2.8,0.1 6.8,0.5 10,-0.1 3.3,-0.5 5.8,-2.1 6.3,-5.8 0.8,-5.7 -3,-8.3 -8.6,-8.9 -5.5,-0.4 -13,1.1 -18.9,3.3 3.6,-2.7 7.5,-4.9 11.3,-7.1 1.2,-0.6 0.2,-2.6 -1,-2 -2,1.1 -4,2.2 -6,3.2 7.1,-6.5 13.7,-13.7 13,-23.2 -0.1,-0.9 -1.1,-1.9 -2.1,-1.7 -7.6,1.7 -14.2,6.9 -18.8,13.7 -1.2,1.7 -2.3,3.4 -3.2,5.2 -0.9,1.9 -1.7,3.8 -2.4,5.7 -1.4,3.8 -2.5,7.6 -3,11.3 -3.5,2.9 -7,5.8 -10.3,9 -3.2,3.3 -6.3,6.6 -9.2,10.1 2.3,-5.5 4.2,-11.3 5.3,-17.5 0.7,-3.6 1.7,-8.8 1.1,-13.5 -0.5,-4.6 -2.5,-8.6 -7.9,-9.3 -5,-0.7 -8.9,3.5 -11.8,8.8 -2.7,5.4 -4.3,11.7 -5.2,15.3 -1.4,6.5 -2.2,13.2 -1.5,19.9 0.7,6.7 2.5,13 5.6,18.5 -4.9,10.5 -8.8,21.3 -10.5,32.6 -0.2,1.2 -0.4,2.5 -0.6,3.7 -0.8,-4.6 -1.8,-9.4 -2,-14.2 -0.2,-6.3 0.5,-13.2 -1,-19.5 -1.8,-7.2 -9.9,-16 -18.2,-10.4 -4.3,2.8 -5.3,8.2 -5,13.3 0.5,5.4 2.5,10.8 4.1,14.3 z m 84,-65.4 c 2.5,-0.5 5,-0.7 7.5,-0.8 3.8,-0.1 7.1,-0.6 9.2,3.3 1.7,1.7 1.7,3 -0.1,4 -1.6,1 -3.4,1.5 -5.4,1.6 -2.6,0.4 -5.4,0.5 -8,0.3 -4.9,-0.3 -9.7,-1.6 -13.6,-4.8 l 0.5,-0.4 c 3.4,-1.3 6.6,-2.5 9.9,-3.2 z m -6.6,-16.1 c 1.7,-3 3.5,-5.8 5.9,-7.8 2.4,-2 5.3,-3.3 8.7,-3.4 1,4.6 -3.4,9.8 -8.1,15.2 -4.9,5.1 -10.4,10.3 -12.7,13.4 -0.6,-0.5 -1.4,-0.1 -1.7,0.4 2.7,-4.7 4.5,-12 7.9,-17.8 z m -8,18 c -0.1,0.2 -0.1,0.4 0,0.7 l -0.3,0.2 c 0.1,-0.3 0.2,-0.5 0.3,-0.9 z m -21.6,36 c 2.5,-1.8 5,-3.6 7.6,-5.1 3.8,-2.4 8.1,-4.3 12.4,-5.4 1.9,-0.5 3.9,-0.9 5.9,-0.9 3.3,0 7.2,2.3 9.4,5.2 2.2,2.8 2.9,6.2 -0.2,8.6 -2,1.6 -5,2.3 -7.7,2.8 -3.7,0.7 -7.7,0.6 -11.6,0.4 -7.7,-0.2 -15.2,0.4 -23,0.8 l 0.2,-0.4 c 2.3,-2.1 4.6,-4.1 7,-6 z m -17,-19.3 c 0.2,-3 0.2,-6.3 0.5,-9.6 0.3,-3.3 1,-6.5 2.1,-9.6 1.8,-5.1 9.7,-14.7 15.3,-9.4 2.4,2.3 0.2,8.2 -0.4,10.9 -1,4.8 -2.2,9.6 -3.5,14.3 -1,3.6 -1.8,7.4 -2.9,10.9 -1,3.5 -2.2,6.9 -3.3,10.4 -1.3,2.1 -2.5,4.3 -3.7,6.5 l -0.4,0.7 c -2.1,-8.2 -4.3,-16.4 -3.7,-25.1 z m -2.9,73.7 c 2.1,-2.7 4.1,-5.5 6,-8.4 1.9,-2.9 3.7,-5.8 6,-8.4 2.9,-3.3 5.7,-6.6 9.1,-9.4 1,-0.9 4.5,-4.1 7.9,-5.5 3.5,-1.4 6.8,-0.9 7.4,4.7 0.6,4.4 -5.8,9.2 -8.6,11.6 -2.5,2.2 -5.3,4.3 -8.3,6.3 -2.9,2 -5.9,3.9 -9.1,5.5 -1.6,0.8 -3.3,1.5 -5.1,2.1 -1.7,0.7 -3.4,1.3 -5.3,1.8 l 0,-0.3 z m -18.9,-49 c 6.1,3.9 6.5,17.2 7.8,23.5 1.6,7 2.3,13.9 3.9,20.6 -6.1,-4.1 -10.3,-10.2 -14.1,-16.4 -2.2,-3.5 -4.3,-7.3 -5.5,-11.4 -1.3,-4.1 -2,-22.5 7.9,-16.3 z"
           id="path157"
           inkscape:connector-curvature="0"
           style="fill:#231f20" /><path
           class="st0"
           d="m 376.2,171.6 c 7.1,-4.5 -0.3,-16.9 -7.9,-12 -3.8,2.4 -3.6,6.7 -1.5,9.6 2.1,3 5.8,4.7 9.4,2.4 z"
           id="path159"
           inkscape:connector-curvature="0"
           style="fill:#231f20" /><path
           class="st0"
           d="m 398.1,175.8 c 1.2,-1.2 2.3,-2.4 3.4,-3.7 1.1,-1.2 2.2,-2.5 3.3,-3.8 2.2,-2.6 4.3,-5.5 6.6,-8.1 4.2,2.7 8.6,4.4 12.9,5.4 4.4,1.1 8.9,1.8 13.2,2.1 3.8,0.2 9.8,1.1 15,0.3 5.3,-0.5 10,-2.4 11.9,-7.5 1.7,-4.3 0.1,-7.7 -2.8,-10.1 -2.9,-2.3 -7,-3.5 -10,-3.8 -1.7,-0.2 -3.5,-0.3 -5.2,-0.4 -1.7,0 -3.5,0.1 -5.2,0.2 -3.4,0.4 -7,0.8 -10.2,2 -5.1,1.8 -9.8,4.2 -14.6,6.2 1.6,-1.6 3.1,-3.4 4.9,-4.7 4.4,-3.6 8.9,-7.3 13.9,-10.2 2.5,-1.5 5,-3 7.5,-4.5 2.6,-1.3 5.2,-2.6 7.9,-3.8 4.6,4 8.8,8.6 13.1,13.1 4.3,4.5 8.6,8.5 13.3,11.5 3.1,2 7.6,3.6 11.7,3.5 4.1,0.1 7.8,-1.5 9.6,-6.3 3.4,-8.5 -5.6,-17 -11.8,-20.2 -7.8,-4 -17.3,-5.8 -26.5,-5.3 13.4,-4.9 27.9,-7.2 42.2,-7.2 1.5,6.9 5.8,11.9 10.8,16.4 2.1,2 4.9,4.8 7.7,6.4 2.9,1.6 5.8,2.1 8.6,-0.4 4.3,-3.9 3.1,-8.3 -0.9,-12.4 -3.9,-4.1 -10.6,-7.3 -16.6,-9.7 4.5,0.5 8.9,1.1 13.3,1.8 1.3,0.2 1.9,-1.8 0.6,-2.2 -2.2,-0.4 -4.4,-0.9 -6.6,-1.3 2.4,-0.1 4.8,-0.3 7.2,-0.6 2.3,-0.2 4.6,-0.7 6.8,-1.3 4.3,-1.3 8.2,-3.8 10.9,-7.5 0.6,-0.8 0.4,-2.2 -0.5,-2.7 -3.4,-2 -7.3,-2.7 -11.2,-3 -2,-0.1 -4,-0.1 -6,0.1 -2,0.3 -4,0.7 -6,1.3 -4,1.2 -7.8,2.6 -11.4,4.7 -3.5,2.1 -6.8,4.4 -9.5,6.8 -9.1,-0.3 -18.2,0.4 -27.2,2.1 5.3,-2.7 10.4,-6.1 15.3,-9.9 2.9,-2.3 6.9,-5.9 9.5,-9.6 2.6,-3.8 3.6,-8.1 0,-12.2 -3.4,-3.9 -9.1,-3 -14.7,-0.8 -5.6,2.1 -10.8,6.3 -13.8,8.4 -10.6,7.8 -19.4,19.4 -21.5,32.1 -10.6,4.6 -20.4,10.9 -29,18.1 -0.9,0.8 -1.9,1.7 -2.9,2.5 2.2,-4.3 4.7,-8.2 7.5,-12.1 3.7,-5.3 8.9,-9.6 11.7,-15.7 1.6,-3.4 2.3,-8.1 1.3,-12 -1,-4 -3.6,-7.2 -8.6,-7.6 -5,-0.3 -9.4,2.6 -12.4,7 -3.1,4.3 -5.1,9.5 -6.2,13.2 -1.3,4.4 -2.7,10.6 -3,16.7 -0.3,6 0.5,12 3.4,16.2 -5.9,6 -11.2,12.5 -13.7,20.1 -0.6,1.8 1.6,4 3,2.4 z m 116.7,-51.4 c 2.2,1.2 4.3,2.6 6.3,4.2 3,2.3 5.9,4.1 4.9,8.4 0.2,2.4 -0.6,3.4 -2.6,3 -1.9,-0.3 -3.6,-1 -5.2,-2.1 -2.2,-1.3 -4.4,-3.1 -6.4,-5.1 -3.5,-3.3 -6.4,-7.4 -7.3,-12.3 l 0.7,0 c 3.4,1.1 6.6,2.1 9.6,3.9 z m -3.9,-12.3 c 2.9,-1.5 6.1,-3.1 9.2,-4.4 6.3,-2.7 13,-3.3 18.4,0.8 -2.2,4.2 -8.9,5.5 -15.9,6.4 -3.5,0.5 -7.2,0.8 -10.4,1 -3.2,0.3 -6,0.7 -7.9,1.1 -0.2,-0.8 -1,-1 -1.6,-0.8 2.5,-0.8 5.2,-2.4 8.2,-4.1 z m -8.5,4.4 c -0.2,0.1 -0.3,0.3 -0.4,0.5 l -0.4,0 c 0.2,-0.2 0.5,-0.3 0.8,-0.5 z m -39.7,13.6 c 3.1,0.2 6.1,0.3 9.1,0.9 4.4,0.8 8.9,1.9 13,3.8 1.8,0.9 3.5,2 5.1,3.3 5,4.2 6,17 -1.8,16.4 -2.5,-0.1 -5.2,-1.4 -7.6,-2.7 -3.2,-1.8 -6.3,-4.8 -9.2,-7.3 -5.7,-4.9 -11.9,-9.5 -18.1,-14.1 l 0.4,-0.2 c 3,-0.3 6.1,-0.1 9.1,-0.1 z m -0.6,-25.8 c 4.2,-4.5 8.6,-9.7 14.4,-13.1 4.7,-2.6 16.9,-5 17.8,2.6 0.4,3.3 -5.2,6.5 -7.3,8.2 -1.9,1.5 -3.9,3 -5.9,4.4 -2,1.4 -4,2.9 -5.9,4.3 -3.1,2.3 -6.2,4.3 -9.2,6.4 -3,2.1 -6.1,4.1 -9.2,5.9 -2.4,0.7 -4.7,1.6 -7,2.6 L 449,126 c 3.4,-7.9 7.1,-15.1 13.1,-21.7 z m -39.7,52 c 3.3,-0.9 6.6,-1.9 10,-2.5 4.3,-0.9 8.7,-1.2 13.1,-1.4 1.3,-0.1 6.1,-0.2 9.7,0.9 3.6,1.1 5.8,3.5 2.6,8.4 -1.2,1.9 -3.8,2.6 -6.6,3 -2.7,0.4 -5.6,0.4 -7.5,0.4 -3.4,-0.1 -6.9,-0.2 -10.4,-0.4 -7.1,-0.7 -14,-2.1 -21,-5.4 l 0.2,-0.2 c 3.4,-0.7 6.7,-1.7 9.9,-2.8 z M 409.8,129 c 0.6,-4.1 1.5,-8.3 3.2,-12.1 0.9,-2 4,-6.8 7.5,-9.5 3.5,-2.7 7.3,-3.5 9.1,2 2.2,7.1 -6.2,17.1 -9.1,23.1 -1.7,3.2 -3.5,6.1 -5.3,9.1 -1.7,3.1 -3.5,6.1 -5,9.2 -2,-7.1 -1.4,-14.6 -0.4,-21.8 z"
           id="path161"
           inkscape:connector-curvature="0"
           style="fill:#231f20" /><path
           class="st0"
           d="m 558.8,129.2 c 8.3,1.1 10.7,-13.1 1.7,-14.3 -4.4,-0.6 -7,2.8 -7.3,6.4 -0.4,3.6 1.4,7.3 5.6,7.9 z"
           id="path163"
           inkscape:connector-curvature="0"
           style="fill:#231f20" /><path
           class="st0"
           d="m 633.6,177.5 c 4.1,-2.2 5.1,-5.8 4.3,-9.6 -0.7,-3.6 -3.2,-7.2 -5.2,-9.4 -2.4,-2.6 -5,-4.8 -7.9,-6.8 -2.9,-2 -5.8,-3.9 -9.1,-5 -5.1,-1.9 -10.2,-3.1 -15.1,-4.7 2.2,-0.2 4.5,-0.5 6.8,-0.5 11.4,0 23.1,1.3 34.3,4.7 1.9,11.9 0.9,25.2 4.4,35.8 1.1,3.6 3.5,7.7 6.7,10.2 3.1,2.7 7,3.8 11.4,1.4 8,-4.3 6.6,-16.6 3.9,-23.1 -3.4,-8.1 -9.5,-15.5 -16.9,-21.1 13.4,4.9 26,12.4 37,21.6 -3.3,6.3 -3.1,12.8 -2.3,19.5 0.7,5.8 1.2,15.4 8.6,15.1 5.8,-0.3 7.7,-4.4 7.2,-10 -0.3,-5.7 -3.4,-12.5 -6.5,-18.1 3.1,3.2 6.2,6.4 9,9.9 0.8,1.1 2.6,-0.2 1.8,-1.3 -1.3,-1.9 -2.8,-3.6 -4.2,-5.3 7.6,5.9 15.9,11.1 25.1,8.8 0.9,-0.2 1.7,-1.4 1.3,-2.4 -0.7,-1.8 -1.6,-3.5 -2.7,-5.2 -1.1,-1.6 -2.5,-3 -3.9,-4.4 -2.9,-2.7 -6.2,-5.1 -10.1,-6.7 -3.8,-1.7 -7.8,-2.9 -11.7,-3.7 -4,-0.7 -8,-1 -11.7,-0.9 -6.8,-6.1 -14.2,-11.4 -22.2,-15.9 5.8,1.3 11.9,2 18.1,2.3 3.7,0.1 9.1,-0.1 13.5,-1.3 4.4,-1.3 8,-3.9 7.8,-9.4 -0.1,-5.2 -5,-8.2 -10.7,-10 -5.6,-2 -12.3,-2.1 -16,-2.4 -13.1,-0.9 -27.4,2.4 -37.1,10.8 -5.5,-1.7 -11.2,-2.7 -16.9,-3.6 -5.7,-0.8 -11.4,-1.1 -17,-1.2 -1.2,0 -2.5,0.1 -3.8,0.1 4.4,-1.8 8.9,-3.3 13.6,-4.4 6.2,-1.6 13,-1.7 19.1,-4.5 6.8,-3.2 14.1,-12.6 7,-19.7 -3.6,-3.5 -8.9,-4 -14,-2.6 -5.1,1.3 -10,4 -13.2,6.1 -3.8,2.6 -8.9,6.4 -13,10.9 -4.1,4.4 -7.3,9.5 -7.8,14.6 -8.3,0.8 -16.6,2.4 -23.4,6.6 -1.7,1 -1.4,4.1 0.7,3.9 3.3,-0.4 6.7,-1 10,-1.5 3.4,-0.7 6.8,-1.3 10.3,-2 3,9.5 9,16.4 15.2,22.7 2.8,2.6 6.8,7.1 11.3,9.9 4.5,2.8 9.2,4.5 14,1.8 z m 63.9,11.8 c 0.9,3.7 1.8,7 -1.7,9.6 -1.4,2 -2.6,2.2 -3.8,0.6 -1.2,-1.4 -2.1,-3.1 -2.6,-4.9 -0.9,-2.5 -1.4,-5.2 -1.6,-7.9 -0.5,-4.9 -0.1,-9.7 2.3,-14.1 l 0.5,0.4 c 0.9,1.5 1.8,2.9 2.6,4.4 0.8,1.5 1.5,3.1 2.1,4.7 0.9,2.4 1.7,4.8 2.2,7.2 z m 2.7,-19.1 c 3.2,0.7 6.7,1.5 9.9,2.5 3.3,1 6.2,2.5 8.7,4.5 2.4,2 4.2,4.5 4.9,7.9 -4.3,1.7 -10.5,-1.4 -16.3,-5.4 -6.1,-3.8 -11.9,-8.5 -15.4,-10.1 0.4,-0.7 -0.1,-1.4 -0.8,-1.6 2.5,1 5.7,1.5 9,2.2 z m -9.3,-2.2 c -0.2,0 -0.5,0 -0.7,0.1 l -0.3,-0.3 c 0.3,0.1 0.6,0.2 1,0.2 z m -39.2,-15 c 2.2,2.1 4.5,4.1 6.4,6.5 2.9,3.5 5.6,7.2 7.5,11.3 0.8,1.8 1.5,3.8 1.8,5.7 1.1,6.4 -6.3,16.9 -11.9,11.4 -1.9,-1.7 -3.1,-4.4 -4.1,-7 -1.3,-3.5 -1.8,-7.7 -2.4,-11.5 -1.2,-7.4 -3,-15 -4.8,-22.5 l 0.4,0.1 c 2.6,1.9 4.9,4 7.1,6 z m 16.1,-20.1 c 6.1,-0.8 12.9,-1.9 19.4,-0.8 5.2,1.1 16.2,7 11.9,13.4 -1.8,2.7 -8.1,1.6 -10.8,1.6 -2.5,-0.1 -4.9,-0.2 -7.3,-0.4 -2.4,-0.2 -4.9,-0.3 -7.3,-0.5 -3.8,-0.2 -7.5,-0.7 -11.2,-1 -3.7,-0.3 -7.3,-0.8 -10.8,-1.4 -2.3,-1 -4.7,-1.7 -7,-2.5 l -0.8,-0.2 c 7.6,-3.9 15.1,-7.1 23.9,-8.2 z m -55.9,-14.8 c 3.1,-2.9 6.4,-5.4 10.3,-7.3 2,-1 7.4,-2.6 11.9,-2.4 4.4,0.2 7.8,2.1 5.7,7.3 -1.4,3.4 -5.4,5.7 -9.7,7.4 -4.3,1.7 -9.1,3.2 -12.1,4.4 -6.6,2.6 -13.3,4.7 -19.6,7.4 2.8,-6.6 8.1,-11.9 13.5,-16.8 z m -4.9,42.4 c -5,-5.2 -9.4,-10.6 -12.6,-17.6 l 0.3,0 c 3,1.7 6.2,3.1 9.4,4.3 3.2,1.4 6.3,2.8 9.3,4.5 3.9,2 7.4,4.7 10.9,7.4 0.5,0.4 1.8,1.3 3.1,2.5 1.3,1.3 2.7,2.8 3.7,4.4 2,3.2 2.2,6.4 -3.4,8.1 -4.2,1.2 -10,-4.1 -12.9,-6.5 -2.7,-2.4 -5.3,-4.6 -7.8,-7.1 z"
           id="path165"
           inkscape:connector-curvature="0"
           style="fill:#231f20" /><path
           class="st0"
           d="m 725.9,214.1 c 3,3 7,2.3 9.7,-0.1 2.7,-2.4 4,-6.5 0.8,-9.7 -6.2,-6.6 -16.3,3.7 -10.5,9.8 z"
           id="path167"
           inkscape:connector-curvature="0"
           style="fill:#231f20" /><path
           class="st0"
           d="m 752.2,299.2 c 4.6,0.9 7.7,-1.3 9.5,-4.5 1.8,-3.2 2.4,-7.7 2.1,-10.6 -0.3,-3.4 -0.8,-6.9 -1.6,-10.3 -0.9,-3.4 -2.2,-6.6 -3.8,-9.7 -2.5,-4.8 -6,-8.8 -8.5,-13.3 1.8,1.3 3.7,2.6 5.4,4 9,7.2 16.7,16 23.4,25.6 -6.5,10.5 -15.3,19.9 -19.7,30.3 -0.7,1.7 -1.2,3.7 -1.4,5.8 -0.3,2.1 -0.4,4.3 0,6.3 0.4,2 1.1,3.8 2.5,5.3 1.2,1.5 3,2.6 5.5,3.1 4.4,0.9 8.4,-1.2 11.5,-4.4 3.2,-3.2 5.4,-7.5 6.4,-10.8 2.7,-8.4 2.6,-18 0.6,-27 6.9,12.4 12.1,26.2 14.5,40.3 -6.4,2.6 -10.8,7.8 -14.4,13.5 -2.9,4.8 -9.1,12.6 -3,17 4.7,3.5 8.8,1.6 12,-3 3.2,-4.5 5.7,-11.8 6.6,-18 0.2,2.2 0.4,4.5 0.5,6.7 0,2.2 0,4.5 0,6.7 0,1.3 2.1,1.5 2.2,0.2 0.1,-2.3 0.2,-4.5 0.3,-6.8 0.9,4.7 2.2,9.4 4.3,13.4 2,4 4.9,7.4 9.2,9.5 0.9,0.4 2.2,0 2.5,-1 1.2,-3.7 1.5,-7.6 1.1,-11.6 -0.6,-3.9 -1.8,-7.9 -3.5,-11.6 -1.6,-3.8 -4.1,-7.2 -6.7,-10.4 -2.5,-3.2 -5.4,-5.9 -8.3,-8.2 -1.2,-9 -3.6,-17.9 -6.8,-26.4 3.8,4.7 7.6,9.3 12.5,13.3 2.8,2.4 6.8,5.9 11,7.7 4.2,1.8 8.7,2.2 12,-2.2 3,-4 1.6,-9.6 -1.7,-14.6 -3.3,-5 -7.8,-9.6 -10.7,-12.2 -9.5,-9.1 -22.6,-15.7 -35.3,-15.6 -3.4,-4.7 -6.7,-9.4 -10.7,-13.6 -1.9,-2.1 -3.9,-4.2 -5.9,-6.2 -2.1,-1.9 -4.3,-3.8 -6.4,-5.6 -1,-0.8 -1.9,-1.6 -2.9,-2.4 4.4,1.6 8.9,3.2 13.3,5.3 5.6,2.9 11.1,7 17.4,8.9 7.1,2 18.8,-0.5 18.1,-10.6 -0.4,-5.1 -4.4,-8.6 -9.1,-11 -4.6,-2.4 -10.3,-3.3 -14.2,-3.7 -4.6,-0.4 -10.7,-0.9 -16.8,-0.1 -6.1,0.8 -11.8,2.7 -15.4,6.2 -6.7,-4.9 -14.4,-8.8 -22.1,-10.1 -2,-0.3 -3.7,2.2 -1.9,3.4 5.3,3.9 11.7,6.9 17.7,10.5 -3.6,9.1 -3.7,18.3 -2.8,27.1 0.2,4 0.9,9.7 2.3,14.9 0.7,2.5 1.8,4.9 3.4,6.7 1.2,2 3.1,3.3 5.8,3.8 z m 50.3,29.7 c 2.7,4.7 7.9,9.9 11.5,15.7 3.5,5.8 5.7,12.2 2.3,18.3 -8.3,-3 -11.1,-25.2 -14.2,-32.3 0.6,-0.3 0.7,-1.1 0.4,-1.7 z m -0.2,-0.2 c -0.2,-0.2 -0.4,-0.3 -0.6,-0.3 l -0.1,-0.4 c 0.2,0.2 0.4,0.4 0.7,0.7 z m -3.4,3.6 c -0.7,3.4 -1.2,6.8 -2.3,10.1 -0.7,2.4 -1.8,4.7 -3,6.9 -1.8,3.4 -3.1,6.5 -7.5,6.3 -2.3,0.6 -3.4,0 -3.4,-2 0,-1.9 0.5,-3.7 1.3,-5.5 0.9,-2.4 2.2,-4.8 3.7,-7.1 2.8,-4.1 6.3,-7.6 11,-9.4 l 0.2,0.7 z m -3.3,-51 c 4,1.4 7.9,3.2 11.5,5.6 5,3.4 11.4,6.7 15.4,11.9 1.6,2.1 3.8,6 4.4,9.7 0.6,3.7 -0.2,7.2 -3.9,8.3 -3.2,1 -7.1,-4 -9.2,-5.8 -3.8,-3.2 -7.2,-6.7 -10.6,-10.1 -2.7,-2.7 -5.5,-5.2 -8,-7.9 -1.3,-1.3 -2.5,-2.7 -3.7,-4 -1.3,-1.3 -2.5,-2.7 -3.7,-4 -1.2,-2.2 -2.4,-4.3 -3.7,-6.4 l -0.4,-0.7 c 3.9,0.9 7.9,2 11.9,3.4 z m -15.4,1.7 c 0.6,3 1.2,6 1.7,9 0.4,3 0.6,6.1 0.6,9.1 0,2.2 0,4.5 -0.2,6.7 -0.3,2.3 -0.7,4.5 -1.3,6.7 -0.6,1.9 -1.2,3.8 -2.2,5.5 -3.2,5.6 -15.5,8.9 -16.5,1.1 -0.3,-2.5 0.6,-5.5 1.5,-8 1.1,-3.5 3.4,-7 5.4,-10.3 4.1,-6.5 7.1,-13.3 10.8,-20.3 l 0.2,0.5 z m -6.5,-43.3 c 4.1,-0.1 8.5,0 12.6,1 2.3,0.5 7.2,2.8 10.6,5.8 3.3,3 4.8,6.5 -0.3,9.2 -6.5,3.3 -18.2,-3 -24.3,-5 -6.9,-2.1 -13.1,-5 -19.9,-6.9 6.6,-3.1 14.1,-3.9 21.3,-4.1 z m -30.9,29.4 c -0.8,-7 -0.2,-14.3 1.6,-21.6 l 0.2,0.1 c 0.6,1.6 1.3,3.2 2.1,4.7 0.7,1.6 1.5,3.1 2.2,4.7 1.5,3.1 3.3,6.1 4.3,9.3 1.4,4.2 2.9,8.3 3.6,12.6 0.2,1.3 1.3,6 0.8,9.7 -0.5,3.7 -2.5,6.3 -7.8,4 -4.2,-1.7 -4.9,-9.6 -5.8,-13.2 -0.5,-3.3 -0.9,-6.8 -1.2,-10.3 z"
           id="path169"
           inkscape:connector-curvature="0"
           style="fill:#231f20" /><path
           class="st0"
           d="m 799.5,386.5 c 0.3,8.4 14.6,8.3 14.4,-0.8 -0.8,-9 -15.1,-7.6 -14.4,0.8 z"
           id="path171"
           inkscape:connector-curvature="0"
           style="fill:#231f20" /></g></g></switch></svg>