<?xml version="1.0" encoding="UTF-8" standalone="no"?>
<svg
   xmlns:dc="http://purl.org/dc/elements/1.1/"
   xmlns:cc="http://creativecommons.org/ns#"
   xmlns:rdf="http://www.w3.org/1999/02/22-rdf-syntax-ns#"
   xmlns:svg="http://www.w3.org/2000/svg"
   xmlns="http://www.w3.org/2000/svg"
   xmlns:sodipodi="http://sodipodi.sourceforge.net/DTD/sodipodi-0.dtd"
   xmlns:inkscape="http://www.inkscape.org/namespaces/inkscape"
   version="1.1"
   id="Layer_1"
   x="0px"
   y="0px"
   viewBox="0 0 1000 1000"
   width="100%"
   height="100%"
   style="enable-background:new 0 0 1000 1000;"
   xml:space="preserve"
   ><style
     type="text/css"
     id="style3">
	.st0{fill:#C19E37;}
</style><switch
     id="switch5"
     transform="translate(-70.25,40.252221)"><g
       id="g7"><g
         id="g9"><g
           id="g11"><g
             id="g13"><path
               class="st0"
               d="m 937.3,458.6 c -0.1,3.4 1.6,2.2 1.9,2.7 -0.5,-5.7 -2.3,-2.5 -1.9,-2.7 z"
               id="path15"
               inkscape:connector-curvature="0"
               style="fill:#c19e37" /></g><g
             id="g17"><polygon
               class="st0"
               points="926.5,395.8 928.8,402.8 929.6,403.6 "
               id="polygon19"
               style="fill:#c19e37" /></g><g
             id="g21"><path
               class="st0"
               d="m 916.8,351.7 c -1.5,5.6 5.9,18.1 6.8,27.5 l -0.3,1.6 3.2,3.6 c -1.5,-5.5 -3.3,-11.8 -5.2,-17.6 -2,-5.7 -3.7,-11.2 -4.5,-15.1 z"
               id="path23"
               inkscape:connector-curvature="0"
               style="fill:#c19e37" /></g><g
             id="g25"><path
               class="st0"
               d="m 913.2,323 c -0.4,2.1 -3.2,-5.4 2.1,6.3 -0.1,-0.6 -0.1,-0.8 -0.2,-1.2 -0.4,-1.1 -1,-2.5 -1.9,-5.1 z"
               id="path27"
               inkscape:connector-curvature="0"
               style="fill:#c19e37" /></g><g
             id="g29"><path
               class="st0"
               d="m 915.1,328.1 c 2.2,5.2 -0.4,-3.8 0,0 l 0,0 z"
               id="path31"
               inkscape:connector-curvature="0"
               style="fill:#c19e37" /></g><g
             id="g33"><path
               class="st0"
               d="m 904.4,304.5 4,6.3 c 0,-1.7 -2.6,-7.8 -1.2,-5.7 -3.6,-6.8 -3.6,-5 -2.8,-0.6 z"
               id="path35"
               inkscape:connector-curvature="0"
               style="fill:#c19e37" /></g><g
             id="g37"><path
               class="st0"
               d="m 899.5,299.1 c 0.7,1.1 1.4,2.1 2,3.2 0.1,-0.7 -0.2,-1.7 -2,-3.2 z"
               id="path39"
               inkscape:connector-curvature="0"
               style="fill:#c19e37" /></g><g
             id="g41"><path
               class="st0"
               d="m 905.7,309.3 -4.2,-7 c 0,1.2 -0.8,1.7 1.8,3.2 -0.9,-0.2 0.5,0.9 2.4,3.8 z"
               id="path43"
               inkscape:connector-curvature="0"
               style="fill:#c19e37" /></g><g
             id="g45"><path
               class="st0"
               d="m 907.2,313.7 c 1.2,4 2.7,9.1 -1,2.7 2.9,6.4 4.5,9 4.8,8.3 0.2,-0.7 -0.7,-4.7 -3.8,-11 z"
               id="path47"
               inkscape:connector-curvature="0"
               style="fill:#c19e37" /></g><g
             id="g49"><path
               class="st0"
               d="m 913.1,350.1 c 0.3,1.8 0.6,3.6 0.8,5.4 l 2.2,4.2 c -0.6,-1.1 -1.1,-3.6 -1.6,-5.9 -0.4,-2.2 -1,-4 -1.4,-3.7 z"
               id="path51"
               inkscape:connector-curvature="0"
               style="fill:#c19e37" /></g><g
             id="g53"><path
               class="st0"
               d="m 883.7,263.2 c -0.8,-0.1 -0.1,3 -0.4,3.8 1.2,1.4 2.3,2.8 3.4,4.3 -1,-2.6 -3.6,-7.3 -3,-8.1 z"
               id="path55"
               inkscape:connector-curvature="0"
               style="fill:#c19e37" /></g><g
             id="g57"><path
               class="st0"
               d="m 883.3,267.1 -5.3,-6.3 c 3.8,6.2 5,7 5.3,6.3 z"
               id="path59"
               inkscape:connector-curvature="0"
               style="fill:#c19e37" /></g><g
             id="g61"><path
               class="st0"
               d="m 896,299.3 c 2.8,3.6 5.1,7.4 7.6,11.1 -2.9,-4.5 -5.7,-9 -8.8,-13.3 l 1.2,2.2 z"
               id="path63"
               inkscape:connector-curvature="0"
               style="fill:#c19e37" /></g><g
             id="g65"><path
               class="st0"
               d="m 866.1,237.3 3.9,2.9 c -2.2,-1.9 -4.4,-3.6 -6.7,-5.3 l 2.8,2.4 z"
               id="path67"
               inkscape:connector-curvature="0"
               style="fill:#c19e37" /></g><g
             id="g69"><path
               class="st0"
               d="m 853,221.2 c 3.2,1.8 -1.6,-4.9 1.4,-2.6 -3.9,-4.1 -7.8,-7.2 -11.4,-9.8 3.5,3.1 6.5,7 10,12.4 z"
               id="path71"
               inkscape:connector-curvature="0"
               style="fill:#c19e37" /></g><g
             id="g73"><path
               class="st0"
               d="m 837,204.5 c 1.8,1.5 3.8,2.8 6,4.4 -1.9,-1.6 -3.9,-3.1 -6,-4.4 z"
               id="path75"
               inkscape:connector-curvature="0"
               style="fill:#c19e37" /></g><g
             id="g77"><path
               class="st0"
               d="m 870.5,249.1 c -0.1,-0.7 0,-2.3 -2.3,-6.3 l 0.4,3.6 c 0.7,0.9 1.3,1.8 1.9,2.7 z"
               id="path79"
               inkscape:connector-curvature="0"
               style="fill:#c19e37" /></g><g
             id="g81"><path
               class="st0"
               d="m 868.7,246.6 0,-0.1 c -2,-2.9 -3.3,-4.8 -3.9,-5.7 0.5,0.7 1.7,2.5 3.9,5.8 z"
               id="path83"
               inkscape:connector-curvature="0"
               style="fill:#c19e37" /></g><g
             id="g85"><path
               class="st0"
               d="m 871,249.8 c -0.2,-0.2 -0.3,-0.4 -0.5,-0.7 0.1,0.4 0.1,0.6 0.5,0.7 z"
               id="path87"
               inkscape:connector-curvature="0"
               style="fill:#c19e37" /></g><g
             id="g89"><path
               class="st0"
               d="m 887.5,279.9 c -3.2,-3.7 -9,-11.6 -5.6,-2.6 2.8,2.3 0.8,-2.9 5.6,2.6 z"
               id="path91"
               inkscape:connector-curvature="0"
               style="fill:#c19e37" /></g><g
             id="g93"><path
               class="st0"
               d="m 871.5,254.3 c 1.5,2.4 2.9,4.9 4.4,7.4 0.3,-0.4 0,-2.1 1.7,-0.3 -2.1,-2.4 -4,-4.9 -6.1,-7.1 z"
               id="path95"
               inkscape:connector-curvature="0"
               style="fill:#c19e37" /></g><g
             id="g97"><polygon
               class="st0"
               points="869.8,251.6 868.6,251.1 871.5,254.3 "
               id="polygon99"
               style="fill:#c19e37" /></g><g
             id="g101"><path
               class="st0"
               d="m 845.8,216.6 c -3,-2.4 -5.7,-5.4 -9.1,-8.6 3.2,3.8 6.5,7.7 9.6,11.4 0.9,0.2 3,1.1 -0.5,-2.8 z"
               id="path103"
               inkscape:connector-curvature="0"
               style="fill:#c19e37" /></g><g
             id="g105"><path
               class="st0"
               d="m 857.2,231 c -0.2,-0.2 -0.4,-0.4 -0.6,-0.6 0.2,0.5 0.4,0.8 0.6,0.6 z"
               id="path107"
               inkscape:connector-curvature="0"
               style="fill:#c19e37" /></g><g
             id="g109"><path
               class="st0"
               d="m 803.8,176.9 c 0.1,0.2 0.2,0.5 0.3,0.7 0.1,0 0.2,-0.1 0.3,-0.1 l -0.6,-0.6 z"
               id="path111"
               inkscape:connector-curvature="0"
               style="fill:#c19e37" /></g><g
             id="g113"><path
               class="st0"
               d="m 846.6,220.2 c 2.2,3 3.9,4.4 5.7,5.7 -1.9,-2 -4,-4.1 -6,-6.5 -0.4,-0.1 -0.5,0 0.3,0.8 z"
               id="path115"
               inkscape:connector-curvature="0"
               style="fill:#c19e37" /></g><g
             id="g117"><path
               class="st0"
               d="m 827.5,196 c 1.2,1.6 2.5,3.4 3.9,5.2 -0.9,-1.8 -3.1,-5.1 -3.9,-5.2 z"
               id="path119"
               inkscape:connector-curvature="0"
               style="fill:#c19e37" /></g><g
             id="g121"><path
               class="st0"
               d="m 856.2,229.1 c 0.1,0.1 0.3,0.2 0.4,0.4 -0.4,-1.2 -0.5,-1 -0.4,-0.4 z"
               id="path123"
               inkscape:connector-curvature="0"
               style="fill:#c19e37" /></g><g
             id="g125"><path
               class="st0"
               d="m 856.2,229.1 c -1.4,-1.3 -2.6,-2.3 -3.9,-3.2 1.5,1.7 2.9,3.2 4.3,4.5 -0.2,-0.4 -0.3,-0.9 -0.4,-1.3 z"
               id="path127"
               inkscape:connector-curvature="0"
               style="fill:#c19e37" /></g><g
             id="g129"><path
               class="st0"
               d="m 786.2,177.2 c 1.4,-0.8 10.1,3.6 15.1,10.5 6.9,4.4 6.5,-3 2.9,-10.1 -0.7,0.4 -1,0.7 -8.3,-3.7 1.9,2.4 13,13.6 6.7,10.1 -4.4,-3.4 -6.2,-4.8 -7.2,-6.1 -1,-1.2 -1.3,-2.2 -3.2,-4.2 2.4,4.4 -12.9,-6.4 -12.8,-2.4 2.9,1.5 5.6,3.3 8.3,5 -0.1,0.4 -3.3,-1.1 -1.5,0.9 z"
               id="path131"
               inkscape:connector-curvature="0"
               style="fill:#c19e37" /></g><g
             id="g133"><path
               class="st0"
               d="m 816.3,188.4 2.7,2.3 c -2.7,-3 -4.4,-5.3 -7.6,-9.8 -5,-3.2 -6.3,-3.6 -6.9,-3.4 4.3,3.9 8.7,7.6 12.8,11.6 l -1,-0.7 z"
               id="path135"
               inkscape:connector-curvature="0"
               style="fill:#c19e37" /></g><g
             id="g137"><path
               class="st0"
               d="m 830.3,201.6 c -3.1,-0.8 -9.8,-5.9 -7.3,-1.1 7.3,7 6,4.1 10.8,7.9 -11.7,-11.7 4,2.8 -3.6,-6.6 2.5,2.2 4.6,4.2 6.5,6.2 -1.9,-2.3 -3.7,-4.6 -5.4,-6.8 0.1,0.1 0.1,0.2 0.2,0.4 l 0.1,0.1 0,0 c 0.3,0.7 0.4,0.9 -0.1,0.3 -0.1,0 -0.2,-0.2 -0.3,-0.2 -0.2,0 -0.6,-0.1 -0.9,-0.2 -3.1,-3.7 -0.2,-0.9 1,0.1 0.1,0 0.3,0 0.3,0 0,0 0,0 0,-0.1 -4,-3.8 -8.4,-7.3 -12.6,-10.9 2.3,2.6 5.6,5.5 11.3,10.9 z"
               id="path139"
               inkscape:connector-curvature="0"
               style="fill:#c19e37" /></g><g
             id="g141"><path
               class="st0"
               d="m 874.3,271.7 c -0.1,-0.5 0,-0.6 0.1,-0.7 -0.8,-0.7 -1.2,-0.9 -0.1,0.7 z"
               id="path143"
               inkscape:connector-curvature="0"
               style="fill:#c19e37" /></g><g
             id="g145"><path
               class="st0"
               d="m 871.5,265.5 c 0.8,0.9 2,1.3 3.9,4.7 1.4,3.1 -0.7,0.4 -1.1,0.9 1.7,1.7 5.4,6.2 2.3,-0.4 l -0.8,-0.8 c -3,-5.8 -5.8,-14.2 -5,-13.4 -0.3,2.5 -0.3,4.5 0.7,9 z"
               id="path147"
               inkscape:connector-curvature="0"
               style="fill:#c19e37" /></g><g
             id="g149"><path
               class="st0"
               d="m 852,232.6 c -3,-3.5 -6.2,-6.7 -9.4,-9.9 l 3.4,6.2 0.5,-0.9 c 4.6,6.2 4.3,4.3 5.5,4.6 z"
               id="path151"
               inkscape:connector-curvature="0"
               style="fill:#c19e37" /></g><g
             id="g153"><path
               class="st0"
               d="m 803.2,175.2 2.6,-0.2 c -2.6,-1.1 -5.3,-2 -7.9,-3 l 5.3,3.2 z"
               id="path155"
               inkscape:connector-curvature="0"
               style="fill:#c19e37" /></g><g
             id="g157"><path
               class="st0"
               d="m 788.8,164.2 1.5,-0.9 c -1.5,-0.7 -3,-1.3 -4.5,-2 l 3,2.9 z"
               id="path159"
               inkscape:connector-curvature="0"
               style="fill:#c19e37" /></g><g
             id="g161"><path
               class="st0"
               d="m 265,640.1 2.3,3.1 c -1,-1.5 -1.7,-2.4 -2.3,-3.1 z"
               id="path163"
               inkscape:connector-curvature="0"
               style="fill:#c19e37" /></g><g
             id="g165"><path
               class="st0"
               d="m 251.8,615.5 -1,-0.3 c 0.9,1 1.5,1.3 1,0.3 z"
               id="path167"
               inkscape:connector-curvature="0"
               style="fill:#c19e37" /></g><g
             id="g169"><path
               class="st0"
               d="m 371.9,146.1 c -5.8,1.9 -12.7,3.6 -11.1,4.7 l 2.5,0.5 c 3.3,-2.5 6.1,-4 8.6,-5.2 z"
               id="path171"
               inkscape:connector-curvature="0"
               style="fill:#c19e37" /></g><g
             id="g173"><path
               class="st0"
               d="m 213.8,390.5 c 0.3,-0.5 0.5,-1 0.8,-1.6 -0.3,-1.5 -0.5,-2.9 -0.8,-4.2 0,1.8 -0.1,3.7 0,5.8 z"
               id="path175"
               inkscape:connector-curvature="0"
               style="fill:#c19e37" /></g><g
             id="g177"><path
               class="st0"
               d="m 220.2,395.9 -2.4,7.2 c 0.7,-1.7 1.5,-4 2.4,-7.2 z"
               id="path179"
               inkscape:connector-curvature="0"
               style="fill:#c19e37" /></g><g
             id="g181"><path
               class="st0"
               d="m 369.6,749.2 c 1.6,0.4 3.1,0.8 4.7,1 -5.8,-3.9 -3.7,-1.5 -4.7,-1 z"
               id="path183"
               inkscape:connector-curvature="0"
               style="fill:#c19e37" /></g><g
             id="g185"><path
               class="st0"
               d="m 619.6,94.9 c -5,-1.3 -9,-2.1 -12.6,-2.7 6.1,1.8 10.8,4 12.6,2.7 z"
               id="path187"
               inkscape:connector-curvature="0"
               style="fill:#c19e37" /></g><g
             id="g189"><path
               class="st0"
               d="m 243.1,639.6 c 1.5,2 2.4,2.7 2.7,2.5 -1.6,-2 -2.6,-3.1 -2.7,-2.5 z"
               id="path191"
               inkscape:connector-curvature="0"
               style="fill:#c19e37" /></g><g
             id="g193"><path
               class="st0"
               d="m 592.3,91 c 0.9,0.2 1.8,0.4 2.7,0.6 3.8,0 7.6,-0.1 12.1,0.6 -4.5,-1.3 -9.7,-2 -14.8,-1.2 z"
               id="path195"
               inkscape:connector-curvature="0"
               style="fill:#c19e37" /></g><g
             id="g197"><path
               class="st0"
               d="m 857.5,657.4 c 0.3,-0.3 0.6,-0.7 0.9,-0.9 -0.2,-0.3 -0.5,0.1 -0.9,0.9 z"
               id="path199"
               inkscape:connector-curvature="0"
               style="fill:#c19e37" /></g><g
             id="g201"><path
               class="st0"
               d="m 931.8,510.4 c -0.1,1.7 -0.4,4.4 -0.7,6.9 0.3,-1.2 0.5,-3.3 0.7,-6.9 z"
               id="path203"
               inkscape:connector-curvature="0"
               style="fill:#c19e37" /></g><g
             id="g205"><path
               class="st0"
               d="m 727.1,125.9 c 3.5,1.6 0.6,0.1 0,0 l 0,0 z"
               id="path207"
               inkscape:connector-curvature="0"
               style="fill:#c19e37" /></g><g
             id="g209"><path
               class="st0"
               d="m 740.4,140.5 c -0.8,-0.2 -1.5,-0.2 -1.7,0.1 0.4,-0.2 1,-0.2 1.7,-0.1 z"
               id="path211"
               inkscape:connector-curvature="0"
               style="fill:#c19e37" /></g><g
             id="g213"><path
               class="st0"
               d="m 554.5,101.4 c -0.1,0 -0.2,0 -0.3,0 1.1,0.3 0.9,0.2 0.3,0 z"
               id="path215"
               inkscape:connector-curvature="0"
               style="fill:#c19e37" /></g><g
             id="g217"><path
               class="st0"
               d="m 731.9,129.2 c -1.2,-0.8 -2.6,-1.8 -4.1,-2.7 0.6,0.5 1.9,1.3 4.1,2.7 z"
               id="path219"
               inkscape:connector-curvature="0"
               style="fill:#c19e37" /></g><g
             id="g221"><path
               class="st0"
               d="m 731.6,128.1 c 1.1,0.7 2,1.2 2.9,1.7 0.6,0 0.3,-0.4 -2.9,-1.7 z"
               id="path223"
               inkscape:connector-curvature="0"
               style="fill:#c19e37" /></g><g
             id="g225"><path
               class="st0"
               d="m 722.2,123.8 c 2,0.9 3.8,1.8 5.6,2.7 -0.6,-0.4 -0.9,-0.6 -0.7,-0.6 -1,-0.4 -2.5,-1 -4.9,-2.1 z"
               id="path227"
               inkscape:connector-curvature="0"
               style="fill:#c19e37" /></g><g
             id="g229"><path
               class="st0"
               d="m 613.5,813.4 c 0.2,0 0.5,0 0.8,0.1 3.6,-1.2 2,-0.9 -0.8,-0.1 z"
               id="path231"
               inkscape:connector-curvature="0"
               style="fill:#c19e37" /></g><g
             id="g233"><path
               class="st0"
               d="m 308.7,221.7 c 0.1,-0.1 0.1,-0.2 0.2,-0.4 -0.1,0.1 -0.3,0.2 -0.4,0.3 l 0.2,0.1 z"
               id="path235"
               inkscape:connector-curvature="0"
               style="fill:#c19e37" /></g><g
             id="g237"><path
               class="st0"
               d="m 301,232.4 c 2,-5.6 4.2,-8 7.5,-10.6 -2.2,-0.1 -4.5,-0.2 -6.7,-0.3 l -0.8,10.9 z"
               id="path239"
               inkscape:connector-curvature="0"
               style="fill:#c19e37" /></g><g
             id="g241"><path
               class="st0"
               d="m 304.8,693.7 -4.8,-7.9 c 9.1,6.6 13.6,13 9.7,5.2 -2.4,1.3 -8.5,-5.1 -14.1,-11.9 -2.8,-3.4 -5.5,-6.8 -8,-9.3 -2.3,-2.5 -4.2,-4 -5.5,-3.5 l -2.5,-5.6 c 1,1.4 1.4,1.5 2.3,2.9 -4.6,-11 -8.3,-4.8 -15.9,-18 -2.4,-4.7 -3.4,-8.4 -1.1,-5.6 l -7,-9.5 c -1.6,-3 -0.3,-2.8 1.3,0.2 -3.1,-5.1 -5.8,-10.5 -8.7,-15.7 l 0.2,0 c -2,-1.9 -5.5,-6.7 -7.2,-9 -1.2,-4.5 1.5,1.9 1.6,0.5 -1.7,-2.9 -3.6,-5.7 -5.3,-8.6 -0.1,-2.2 1,-1.5 2.3,0.6 1.5,2 3.3,5.3 4.6,8.5 0.6,-5.4 -0.5,-7 -2.5,-9.9 -1.8,-2.9 -4.5,-7 -6.5,-16.8 1.2,2.9 2.7,5.6 4,8.4 0.4,-3.4 -0.5,-6.6 -1.4,-10.3 -0.9,-3.8 -2.1,-8 -2.9,-13.2 -0.2,2.6 2.1,21.5 -2.7,11.8 -0.6,-3 -1.7,-6.8 -4.5,-12 1.9,-0.6 -0.1,-5.9 -2.2,-12.7 l 2.7,-0.2 c -2.8,-7.1 -3.7,-6.3 -5.9,-10.4 -1.7,-8.4 -0.1,-10.5 1.3,-12.8 -2,-13.4 -1.5,9.9 -4.8,-5.9 -0.3,-2.8 -0.6,-5.4 -1,-8 -0.3,-2.5 -0.7,-5 -1.2,-7.5 -1,-5 -2.4,-10.3 -3.6,-17.1 0.3,-8 1.7,1.3 2.2,-1.6 l -2.6,-6.9 c -0.1,-1.7 0.6,-1.2 0.9,-0.9 -1.1,-5.9 -2.7,-0.3 -3.6,-9.8 -1.4,-1.2 -0.7,-6.1 0.4,-12.1 1.2,-6 2.1,-13 0.9,-18.9 1,-2.8 1.5,1.5 2.6,0.7 -0.9,-16 -0.7,-13.7 -1.8,-27.1 1,-3.6 2,-7.3 3.3,-10.8 -3.4,7.8 -3.8,-2.9 -4,-12.5 -1.4,2.7 -2.7,5.1 -3.4,6.7 0.4,-5 0.8,-10.1 1.6,-15 0.8,-1.7 1.4,0 1.9,2.6 0,-1 0,-2 0,-2.8 2.1,-5 3,-1.9 3.6,2.1 -0.9,1.6 -1.9,3.3 -2.8,4.9 0.9,3.9 2,7.6 3.7,7.2 -0.1,-1 -0.1,-2.9 0.2,-4.9 0.3,1 0.5,1.7 0.9,1.3 0.4,-0.4 0,-2.1 -0.1,-4.5 l 3.6,-2.6 -0.9,-1 c 2,-6.1 4,-12.2 6.4,-18.1 0.2,-3.5 0.3,-6.9 0.5,-10.4 0.3,-3.5 0.6,-7 1,-10.8 0.4,-3.8 1,-7.9 2.2,-12.2 1.1,-4.3 2.3,-9.2 4.3,-14.4 -0.3,5.9 2.7,2.4 4.9,3.7 -2.5,2.2 -3.7,6.3 -5,11 -0.6,2.4 -1.3,4.9 -2,7.6 -0.6,2.6 -1.4,5.3 -2.4,8 2.2,-5.5 2.9,-3.9 2.8,-2.3 1.2,-6.6 3.1,-13.1 4.8,-19.7 1.7,1.2 3,-3.4 6,-7.8 -2.7,1 -1.8,-2.7 0.1,-7.7 1.8,-5 5.2,-11 6.4,-15 1.4,0.2 1.8,2.6 -3.1,11.3 7.8,-8.3 2,-15 9.9,-23.2 -1.2,2.1 -2,3.2 -1.9,4.4 0.9,-2.8 3.3,-7.1 5.4,-10.3 2.1,-3.2 4.1,-5.1 3.7,-3.4 l -1.3,2.1 c 2.3,-3.4 5.1,-7.6 8,-12.2 3,-4.5 6.3,-9.2 9.2,-13.7 6,-8.7 10.8,-16.4 10.3,-18.4 0.4,0.2 1.8,4.3 1.8,5.5 3.2,-9.8 6.6,-19.8 10.8,-29.6 0.4,3.9 12.2,1.8 4.2,12.6 3,-2.4 6.5,-5.7 11.6,-12.1 -2.2,1.5 -7.8,1.5 -5.4,-1.2 9.6,-4.4 6.2,-3.6 17.1,-9.7 -3.4,2.1 -3.2,-4.2 1.7,-8.3 -0.3,1.2 3.4,3.2 2,5 2.9,-4.6 5.8,-9.1 9,-13.5 -2.6,3.1 1.9,3.5 5.4,2.3 -0.9,0.1 1.7,-1.9 5,-4.4 3.3,-2.4 7.3,-5 8.8,-6.4 l -6,2.9 c 14.6,-9.6 10.5,-15.3 25.8,-24.4 -1.4,1.9 -1.5,7.6 6.4,3.7 2.2,-4.1 10.2,-18.9 24.1,-27.2 l 3.3,0 c 3.5,-2.1 7,-4.3 10.6,-6.2 -2.9,2.9 -8.4,8.5 -14.2,14 -5.8,5.6 -11.6,11.7 -15.9,15.5 6.3,-2.1 2.4,0.6 11,-4 3.6,-0.4 -3.9,4.1 -6.4,5.5 6.8,-3.2 13.6,-6.5 20.6,-9.2 -1,-1 2.6,-3.4 6.4,-5.8 3.8,-2.2 7.7,-4.3 6.9,-5.2 -7.4,3.7 -14.4,8.3 -21.5,12.4 -1,-1 1.4,-4.2 6,-8 2.3,-1.9 5.1,-4 8.5,-5.8 3.3,-1.8 7,-3.5 10.9,-4.9 4.2,-0.5 -1.2,5.7 -0.5,6.4 0.8,-0.8 4.2,-2.8 7.7,-4.2 3.5,-1.4 7,-2.7 7.8,-2.6 l -6,3.6 c 4.4,-0.9 7.6,-3 11.1,-4.9 3.5,-1.9 7.4,-3.4 12.9,-3.7 3.6,-1 11.6,0.6 11.9,-1.1 -6.6,-1.7 -10.3,-10.8 -6.8,-14 0.7,0 5.8,-0.4 11.3,-0.8 5.5,-0.4 11.4,-0.1 13.7,0.2 6.6,1.3 -8.2,7.4 -2.6,8.5 0.1,-0.8 3.3,-2.3 4.6,-2.8 4,-0.1 -1.2,2.6 7.1,0.7 1,-3 17.3,-2 3.7,-2.8 8.3,-1.7 8.9,-0.8 18.7,-1.7 -3.3,-1.5 8.4,-7 16.9,-8 -0.5,0.7 1.5,1.6 2.4,2 4.4,0 8.2,0 11.8,0 3.6,0.2 6.9,0.5 10.2,0.7 3.3,0.3 6.5,0.5 9.9,0.8 3.4,0.4 7,0.7 11.1,1.1 1.4,0.8 9.1,2.2 5.7,3.1 2.3,-0.2 4.6,-0.9 9.5,-0.3 9.2,3.6 -11,-1 -4.1,2.8 0.8,-1.5 13,-0.8 20.1,-0.3 -0.9,-1.4 -4.9,-2.4 -9.6,-2.7 -4.7,-0.3 -10.1,-0.2 -13.7,-0.1 0.2,-1.7 3.4,-3.1 8.8,-3.9 2.7,-0.4 6,-0.8 9.6,-0.8 3.6,0 7.7,0.2 12,0.6 13.6,1.8 5.4,3.4 7.8,3.3 6.2,1.6 10.7,2.3 14.4,2.6 3.6,0.5 6.3,0.5 8.8,0.6 5.1,0.1 9.7,0.2 19.5,5 7.3,4.8 -1.1,4.2 0.2,6.3 -5.4,-1.4 -9.2,-3.1 -12.7,-4.7 -3.5,-1.5 -6.6,-2.9 -10.2,-3.9 l 8.6,3.5 c -3.6,-0.3 -10.8,-1.7 -14.5,-3.4 1.6,1 4.9,2.2 9.4,3.6 2.2,0.7 4.7,1.5 7.4,2.3 2.6,0.9 5.4,1.9 8.3,2.9 2.9,1 5.9,2 8.9,3.1 2.9,1.2 5.9,2.4 8.8,3.6 5.8,2.3 11,5 15.3,7.4 3.5,0.8 9.3,2.5 7.1,0.6 l -5.8,-2.3 c -4.5,-4 11.7,2.6 4.9,-1.4 4.1,1.1 8.4,2.6 13,4.3 2.3,0.9 4.7,1.9 7.1,3.1 2.4,1.3 4.8,2.8 7.2,4.5 l 0.7,3.3 c 0.2,-0.7 -6,-5.2 -9.2,-6.1 4.8,1.6 14.1,11.7 20.2,12.1 -2,-2 -4,-4 -6.2,-5.9 4,1.5 8.5,3.4 13.1,5.5 4.7,2 9.3,4.7 13.4,8.2 -2.5,-4.8 -2.1,-1.2 -6.7,-7.9 3.6,6.5 -22.9,-14.8 -16,-6 -2.5,-3.4 -5.2,-5.4 -8.2,-7.4 -3,-2.1 -6.3,-4.3 -10.2,-7.8 -0.1,0.9 2.5,3 -5.3,-1.4 -0.5,0 -1.5,-0.1 -2.1,-0.2 -0.2,-0.1 -0.3,-0.2 -0.5,-0.3 0.1,0.1 0.3,0.2 0.4,0.3 -0.4,-0.1 -0.4,-0.1 0.1,0.1 1.7,1.3 3.1,2.5 3.5,3.2 -2.4,-0.1 -6.7,-1.9 -11.1,-3.6 -4.4,-1.6 -8.8,-3.4 -11.2,-3.9 -4.6,-2.5 2.4,0 0.1,-2 -2.4,-0.6 -4.7,-1.1 -7.1,-1.4 0.1,-1.9 -12,-8 0.1,-4.4 l -10.5,-4.2 c -5.9,-3.2 -14.5,-6.5 -20.1,-7.5 -5,-1.8 -13.5,-1.7 -8.7,-1.8 -2.9,-0.6 -5.8,-1.3 -8.7,-1.8 l -8.7,-1.4 -0.1,-0.5 c -8.4,-2.3 -17.5,-2.9 -26.6,-4.2 -9.3,-0.8 -18.7,-2.2 -28.5,-4.4 -2.9,0 -5.9,0 -9.4,-0.1 -3.5,0 -7.4,0 -12.3,-0.4 l -1.9,-1.6 c -3.8,0.1 -9.4,-0.1 -14.6,-0.2 -5.1,-0.1 -9.8,-0.2 -11.3,0.9 -2.1,-0.9 -5.5,-1.3 -9.5,-1.2 -4.1,0 -8.8,0.4 -13.7,1.2 -4.9,0.8 -9.9,1.5 -14.5,2.4 -4.6,1 -8.8,1.8 -12.1,2.2 l -0.1,2.1 c -4.5,0.6 -8.8,2 -13.4,3.2 -2.3,0.7 -4.6,1.4 -7.1,2.1 -2.4,0.8 -4.9,1.8 -7.6,2.7 l 1.2,1.6 c -4.5,2.1 -10.6,3.3 -17.3,5.2 -3.4,0.9 -6.9,1.8 -10.5,2.8 -3.6,1.1 -7.2,2.4 -10.8,3.9 0.7,-1 4.4,-2.3 7.1,-2.9 -4.6,0.7 -9.2,2.2 -13.6,4 -4.4,1.9 -8.6,4.3 -12.7,6.7 -4.2,2.3 -8.1,5 -12.1,7.2 -4,2.2 -7.9,4.1 -11.9,5.6 -3.3,2.7 -6,3.9 -8.8,5 0.3,-0.2 0.6,-0.4 0.8,-0.6 -0.4,0.2 -0.9,0.5 -1.5,0.8 -1.8,0.6 -3.6,1.3 -5.4,2.2 1.7,-0.6 3.3,-1.2 4.6,-1.7 -2.8,1.6 -6.7,4.5 -10.5,7.5 l -2.8,-0.5 c -0.3,0.2 -0.6,0.4 -0.9,0.6 -4.4,1.9 -2.6,2.8 0.3,2.7 -1.9,1.5 -3.4,3.2 -4.5,4.5 -4.9,-0.3 -9.6,7.9 -15.6,8.5 -0.8,1.6 -5.3,5.6 -9.6,9.6 -4.1,4.3 -8,8.6 -7.8,10.7 -0.4,-0.2 -1.6,0.5 0.3,-1.2 -4.3,3.1 -8.3,6.5 -11.1,10.4 l -3.4,-0.3 c -2,3.4 -4,6.9 -5.8,10.5 -5.9,4 -8.6,5.5 -5.2,-0.9 -2.4,3.6 -4.1,6 -5.4,7.9 -1.3,1.9 -2.2,3.2 -3.2,4.5 -1.8,2.5 -3.5,4.8 -6.9,11.1 l -0.8,-1.6 c -3.1,4.1 -6.4,11.8 -9.4,13.4 -2.3,1.8 -5.5,5.6 -9.3,10.6 -3.9,4.9 -7.8,11.5 -12.4,18.3 -8.4,14 -17.1,30.5 -24.2,43.4 3.4,-1.6 1.4,1.2 -0.9,4.9 -2.2,3.7 -4.8,8.2 -3.3,9.4 -1.7,1.2 -3.8,4.8 -2.9,0 -2.4,7.2 -4.3,12.5 -6.2,17.2 -1.9,4.7 -3,9.1 -3,14.5 -1.6,1.4 -0.7,-3.6 -1.8,-2.3 -0.1,1.2 -0.4,4.9 -1.4,6.2 -1.1,1.3 -0.3,-2.4 -0.1,-4.8 -1,3.7 -1.6,6.7 -1.8,9 -0.1,2.4 0,4.1 0.4,5.5 0.7,2.7 2.2,3.7 3.7,4.6 -1.6,3.6 -2.6,6.3 -3.1,8.9 -0.3,2.6 -0.2,5 0.4,8 -1.5,2.4 -3.4,6.7 -2.1,-2.7 -0.3,1.3 -0.9,4 -1.6,7.2 -0.3,1.6 -0.7,3.4 -1.1,5.2 -0.3,1.9 -0.5,3.8 -0.8,5.6 -1,7.5 -1.6,14.4 -0.2,14.8 -0.8,1.6 -0.8,7.4 -0.6,8.8 -0.6,5.9 -0.9,9.2 -0.9,12.4 -0.1,3.2 -0.2,6.4 -0.2,12.3 l 0.5,-3.2 c 2.9,4.6 0.7,9.7 1.3,19.1 l -0.3,-0.3 c -0.5,5.4 -0.4,8.7 -0.3,10.9 0.1,2.2 0.3,3.4 0.5,4.5 0.2,1.1 0.4,2.3 0.5,4.5 0,2.2 0.1,5.4 0.2,10.8 l 1.8,-1.4 c 2.2,0.7 2.2,5.5 2,11.6 0,6.1 0.1,13.5 2,19.5 l 0.3,-4.6 c 1.2,3.2 0.9,8 0.4,13.1 -0.5,5 -1.4,10.2 -0.7,13.5 0.1,1.5 -1.3,-2.1 -2,-4.1 2.4,18.1 3.1,1.6 7.3,14.3 -0.6,2.8 -4.4,-2 -1.9,6.7 0.2,2.3 3.3,8.2 6.7,15 3.7,6.7 7.2,14.4 8.7,20.5 -0.1,-2.9 -0.3,-5.8 3,-0.4 4,8.5 7.4,25.1 14.7,30.9 0.3,1.2 0.3,1.7 0.1,1.9 2.2,2.9 5.3,8 8.7,12.4 3.4,4.4 6.7,8.4 8.6,9.8 -0.6,2.4 1.1,5.7 3.6,9.5 2.6,3.8 6,8 9.6,11.8 3.6,3.8 6.9,7.5 9.3,10.3 2.4,2.8 3.5,4.9 2.3,5.9 2.5,2.8 4.9,5.6 7.5,8.3 l 7.8,8 -0.9,0 c 4.7,5.4 8.6,8.4 11.6,10.6 3,2.2 5.3,3.4 7.7,4.5 2.2,2.5 0,1.3 -0.4,1.4 7.5,7.3 11.6,11.3 16,14.3 4.4,3 8.6,5.6 16.7,9.3 l 0.3,2.7 c 4.3,2 23.2,19.8 42.7,27.1 -0.3,0.1 -0.8,0.3 -2.4,-0.2 10.8,4.3 22.6,11.5 33.5,16.7 10.8,5.3 20.6,8.6 25.7,6.5 4.9,1.2 10,1.7 15,2.6 -18.6,-5.9 3.7,-2.3 -3.7,-5.6 3.7,0.8 8.3,2.7 10.8,4.1 2.6,1.3 3,2.3 -1.6,1.2 l -1.3,-0.8 c -4.4,3.1 23.2,7 22.2,9.2 37.9,7.2 75.9,10.6 112.2,6.9 -1.5,-0.8 -3,-1.6 -4.5,-2.5 4.2,-0.3 8.3,-0.9 12.5,-1.4 3.4,0.3 4.7,1.7 -4.2,2.8 5,1.1 14.8,-3.3 14.9,-4.2 17.6,-1.9 -6.2,4.6 -0.9,3.8 l 7.2,-1.5 -1.7,-0.1 c 2.8,-1.1 4.3,-2 6.4,-2.9 2.1,-0.8 4.8,-1.6 10.1,-2.8 6.8,-1 3.8,1 6.5,0.5 0,0.2 1,0.1 4.1,-0.9 5.2,-1.3 10.3,-2.7 15.5,-4.1 l -6.8,-0.5 c 6.5,-3 14.4,-4 6.6,-4.5 5.7,0.4 20,-3.8 33.2,-9.3 6.7,-2.6 12.9,-5.8 18.1,-8.1 5.1,-2.4 8.9,-4.4 10.5,-4.9 2,-1.5 4,-2.9 6.1,-4.3 2.1,-1.4 4.2,-2.8 6.3,-4.2 4.4,-2.7 9.2,-5.3 14.2,-8.6 -2.8,1.2 -5.7,-0.1 3.2,-5.4 -0.1,3.3 4.3,1.4 9.7,-1.9 5.3,-3.4 11.9,-7.5 16.4,-8.7 -3.8,1.3 2,-3.4 7.2,-7.9 5.2,-4.5 9.5,-9.1 4,-6.6 6.8,-5.3 1.7,1.2 7.5,-2.1 14.1,-15.2 34.1,-30.6 49.3,-51.5 -0.3,-0.7 -3.8,1.9 -1.3,-3 3.8,-2.7 7.3,-5.8 10.9,-8.8 2.6,-4.4 -0.5,-6 6.5,-12.4 -1.2,0.8 -3,1.9 -1.4,-1.1 15.1,-20 26.4,-43.3 35.4,-67.3 9,-24.1 15.8,-48.8 23.1,-73.5 -2.6,6.6 -1.9,2 -1,-3.2 -0.9,3.3 -1.7,-0.3 -2.8,0.2 1.8,-6.9 3.7,-13.8 5.3,-20.8 -1.2,-2.1 -0.8,-7.8 -0.4,-13.2 0.4,-5.5 0.3,-10.8 -0.9,-11.9 l 0.3,6.7 c -1.4,-4.5 -3.1,-1.4 -5.1,2.5 -2.1,3.9 -4.4,8.7 -6.3,7.9 0.7,2.5 0.6,5.3 0.1,8.4 -0.6,3.1 -1.6,6.4 -2.6,9.9 -1.8,7 -4.2,14.6 -3.2,22.9 -1.4,3.3 -0.7,-3.2 -1.9,-1.5 1,4.3 0.2,9.1 -2.6,17.7 l -0.2,-1.1 c -1.2,6.2 -3,11.4 -4.4,16.2 -1.4,4.8 -3.1,9.1 -4.9,13.5 -1.7,4.4 -3.5,8.8 -5.9,13.7 -2.3,4.9 -4.6,10.4 -7.9,16.7 l 2.6,-1.1 c -2.7,5.5 -3.8,6.4 -5.4,8.8 -0.2,7.6 7.2,-15.5 7.5,-8.4 -1.7,1.5 -3.7,4.6 -5.8,8.6 -2.1,4 -4.6,8.7 -7,13.3 -2.3,4.7 -5.1,9 -7.4,12.5 -2.4,3.4 -4.4,5.9 -6.2,6.5 -5.1,7.8 3.4,-1.1 -1.7,6.7 l -2.4,1.4 0,2.8 c -3.5,5.1 -6.7,6.6 -7.6,6.2 1,-1.1 2.2,-3.6 3.1,-4.9 -2.9,2.8 -6,7.4 -8.7,11.6 -2.7,4.1 -5.2,7.6 -6.1,8.6 l 6.1,-6.6 c -14.3,21.3 -36.9,42.8 -54.2,60.4 l 2,-0.5 c -3.3,3.5 -5.8,5.7 -7.9,7.3 -2.1,1.6 -3.7,2.7 -5.4,3.8 -3.3,2.3 -7.1,4.4 -15.3,10.7 l 0.5,-0.6 c -2.8,3.2 -7.3,6.6 -12.2,9.6 3.8,-3.7 -9.4,3.6 -4.2,-1.1 -8.2,6.1 -10.4,7.5 -11.5,8.9 -1.2,1.3 -1.4,2.5 -6.7,7.1 l -3.5,0.1 c -3.5,3.2 -3.4,4.4 -12.8,9.1 7.2,-4.7 -7,0.6 1,-4.8 -5.3,1.5 -9.7,3.2 -13.5,5 -3.8,1.7 -7.1,3.3 -10.1,4.9 -5.9,3.1 -10.6,5.1 -16.1,4.4 -4.1,3.6 0.6,2.6 5.6,1.1 5.1,-1.4 10.4,-4 7.9,-2.5 2.4,-0.2 0.8,1.3 -2.3,3.1 -3.1,1.7 -7.8,3.6 -11.1,4.5 -3.3,1.1 -6.6,0.8 -11.1,0.6 -2.3,0 -4.8,0 -7.8,0.4 -1.5,0.2 -3.2,0.4 -4.9,0.8 -1.8,0.3 -3.8,0.7 -5.9,1.2 1.7,-0.4 1.7,-0.7 3.4,-1.1 -3.3,0.2 -6.3,1.3 -9.6,2.3 -1.6,0.5 -3.3,1 -5.1,1.4 -1.8,0.3 -3.7,0.5 -5.7,0.4 -4,3.3 -10.2,1.7 -11,5.1 l 15.7,-3.6 c -4.4,1.2 -8.5,3.1 -13.5,4.9 -5,1.7 -10.9,2.8 -18.5,2.9 1.1,-0.8 5.5,-2.2 8.4,-3.1 -4.5,-0.5 -8.3,1.8 -13,1.2 0.5,-1.6 5.3,-2.3 11.2,-3.2 2.9,-0.4 6.1,-0.8 9.2,-1.4 3,-0.7 5.9,-1.5 8.2,-2.6 -2.4,-0.3 -6.8,1.2 -10.1,2 -3.3,0.7 -5.5,1.1 -3.3,-1 -3.2,2.6 -7.5,3 -12.3,3.4 -4.9,0.1 -10.4,0.1 -16.2,2.3 l 0.7,-2 c -1.8,0.5 -5.7,1.5 -9.1,1.5 l 6.1,-2.7 c -9.4,2.3 -18.3,-1.2 -27.4,-0.5 9.5,0.2 10.6,0.8 10.3,1.5 -0.3,0.8 -2,1.8 2.1,2.4 -23.8,2.2 -13.5,-4.9 -39.7,-6 3.5,0.1 13.2,2.2 7.6,2.7 -5,-0.7 -11.5,-2.2 -14.4,-3.7 -17.3,-1.8 2.4,2.3 -5.1,2.6 -5.6,-3 -8.6,-0.4 -16.4,-0.9 l 0.3,-1.9 c -4.9,-1.1 -7.6,-1.6 -9.4,-1.8 -1.7,-0.1 -2.4,0.3 -3.1,0.6 -1.3,0.7 -2.3,1.5 -10.9,-1.3 l 8.1,-0.9 c -3.1,-0.5 -6.2,-0.9 -9.3,-1.5 l 2.4,-1.7 c -5.1,-0.5 -8.4,-1.2 -11.6,-2.1 -3.2,-0.9 -6.3,-2 -10.9,-4 1.8,2.1 -2.3,3 -10.8,0.2 -5.3,-3.2 3.8,-0.5 -8,-4.8 3.1,-0.2 6.4,-0.3 11,3.1 0.7,-0.4 3,-0.3 3.8,-0.7 -5.7,-3.2 -15.1,-5.9 -19.3,-7.5 1.6,0.7 3.5,1.6 4.4,2.2 l -8.9,-2.1 -8.8,-2.5 c -2.3,-1.9 0,-1.5 2.3,-1.1 -3.4,-1.4 -6.2,-1.4 -11.1,-3.7 2,-0.8 2.3,-2.3 9.6,0.1 -5.5,-1.7 -10.8,-3.9 -16.2,-6 -0.7,-1.1 -6.9,-5.8 -4.7,-5.2 -3.9,-2.8 -9.3,-5 -15,-7.5 -5.6,-2.8 -11.7,-5.6 -16.5,-9.8 -0.7,-0.1 -2,-0.6 -4.3,-2 -2.4,-1.8 -4.6,-3.6 -6.8,-5.5 -2.2,-1.9 -4.3,-3.8 -6.5,-5.8 -2.2,-1.9 -4.6,-3.8 -7.1,-5.7 -2.5,-2 -5.1,-3.9 -8.2,-5.8 -1.4,-2.5 -2.8,-4.8 -4.1,-7.4 -8.4,-7.1 5.4,10.1 -8.7,-1.8 -10.1,-8.4 -1.8,-5.1 -4.5,-8.9 -2.7,-1.8 -6.6,-4.3 -10.6,-7.6 -4,-3.3 -7.8,-7.8 -10.9,-13 3,2.2 4.7,4.8 7.3,7.4 z M 235,577.4 c 0.6,1.2 1.6,2.9 2.5,4.6 0.9,1.7 1.6,3.3 1.4,4.4 -3.3,-1.9 -3.2,-4.5 -3.9,-9 z M 222,371.3 c 0.1,2.1 -0.9,5 -2.4,8.2 0.5,-2.4 1.1,-5.2 2.4,-8.2 z M 687.7,111.6 c -0.1,0 -0.2,0 -0.3,0 -5.7,-2.8 -3.7,-1.8 0.3,0 z m 11.8,5.2 c 1.3,0.2 1.3,-0.1 0.9,-0.5 -1,0.1 -3.7,-0.9 -6.8,-2.2 0.7,0.7 2.1,1.7 5.9,2.7 z m -44.3,702.3 -2.6,0.1 c 5.4,-1.9 3.9,-1 2.6,-0.1 z"
               id="path243"
               inkscape:connector-curvature="0"
               style="fill:#c19e37" /></g><g
             id="g245"><path
               class="st0"
               d="m 219.5,395.2 c -0.5,0.7 -0.9,0.8 -1.3,0.9 0.2,1.1 0.6,1.2 1.3,-0.9 z"
               id="path247"
               inkscape:connector-curvature="0"
               style="fill:#c19e37" /></g><g
             id="g249"><path
               class="st0"
               d="m 368.7,749 0.3,0.3 c 0.3,0 0.4,0 0.5,-0.1 l -0.8,-0.2 z"
               id="path251"
               inkscape:connector-curvature="0"
               style="fill:#c19e37" /></g><g
             id="g253"><path
               class="st0"
               d="m 506,114.2 c -2.5,0.2 -4,0.1 -5,-0.1 -0.1,0.4 1.1,0.6 5,0.1 z"
               id="path255"
               inkscape:connector-curvature="0"
               style="fill:#c19e37" /></g><g
             id="g257"><path
               class="st0"
               d="m 762.4,144.2 c -2.4,-1.4 -4.9,-2.6 -7.4,-3.8 3.5,1.9 4.6,3 6.1,4.4 0.1,-0.5 -0.9,-2 1.3,-0.6 z"
               id="path259"
               inkscape:connector-curvature="0"
               style="fill:#c19e37" /></g><g
             id="g261"><path
               class="st0"
               d="m 811.6,196.9 c 1,0.6 1.8,1.7 2.8,2.3 l 0.4,-0.9 c -3.7,-3.4 -6.7,-5.3 -3.2,-1.4 z"
               id="path263"
               inkscape:connector-curvature="0"
               style="fill:#c19e37" /></g><g
             id="g265"><path
               class="st0"
               d="m 765.3,153.9 c -0.4,1.8 4.4,3.9 9.1,7 -0.3,-0.2 -0.6,-0.4 -0.8,-0.6 2.8,-0.9 -2.7,-3.9 -8.3,-6.4 z"
               id="path267"
               inkscape:connector-curvature="0"
               style="fill:#c19e37" /></g><g
             id="g269"><path
               class="st0"
               d="m 775.6,161.6 c 1.5,1 3,2 4.3,3 1.1,-0.3 -1.6,-1.3 -4.3,-3 z"
               id="path271"
               inkscape:connector-curvature="0"
               style="fill:#c19e37" /></g><g
             id="g273"><path
               class="st0"
               d="m 715.1,122 c 2.3,1.5 2.4,-1.2 3.6,0 3.6,-0.7 -17.9,-5.1 -3.6,0 z"
               id="path275"
               inkscape:connector-curvature="0"
               style="fill:#c19e37" /></g><g
             id="g277"><polygon
               class="st0"
               points="762.1,157.8 766.2,160.9 765.6,158.1 "
               id="polygon279"
               style="fill:#c19e37" /></g><g
             id="g281"><path
               class="st0"
               d="m 728.3,137.3 7.8,4.6 c 0,-0.4 1.2,0 2.5,0.5 -4.9,-2.6 -10.2,-5.8 -10.3,-5.1 z"
               id="path283"
               inkscape:connector-curvature="0"
               style="fill:#c19e37" /></g><g
             id="g285"><path
               class="st0"
               d="m 738.6,142.4 c 2.6,1.4 4.9,2.8 6.5,3.3 -1.4,-0.8 -4.3,-2.5 -6.5,-3.3 z"
               id="path287"
               inkscape:connector-curvature="0"
               style="fill:#c19e37" /></g><g
             id="g289"><path
               class="st0"
               d="m 755.5,154.8 -2,-1.8 -5.4,-3.3 c 2.4,1.7 5,3.2 7.4,5.1 z"
               id="path291"
               inkscape:connector-curvature="0"
               style="fill:#c19e37" /></g><g
             id="g293"><path
               class="st0"
               d="m 636.4,105.6 -9.8,-1.2 c -1.1,0.5 1.5,1.4 5.1,1.8 2.4,0 6,0.4 4.7,-0.6 z"
               id="path295"
               inkscape:connector-curvature="0"
               style="fill:#c19e37" /></g><g
             id="g297"><path
               class="st0"
               d="m 664,118 c -2.4,-1.1 -2.5,-1.6 -3.7,-2.7 l -0.9,2.4 4.6,0.3 z"
               id="path299"
               inkscape:connector-curvature="0"
               style="fill:#c19e37" /></g><g
             id="g301"><path
               class="st0"
               d="m 636.2,111.9 c -1.1,0.5 -14.2,-0.5 -2.1,1.5 1.1,-0.6 10.8,0.8 2.1,-1.5 z"
               id="path303"
               inkscape:connector-curvature="0"
               style="fill:#c19e37" /></g><g
             id="g305"><polygon
               class="st0"
               points="491.1,105.7 489.9,110.2 492.3,109.7 "
               id="polygon307"
               style="fill:#c19e37" /></g><g
             id="g309"><path
               class="st0"
               d="m 375.7,168.8 c 10.1,-5.2 0.9,-3.7 10.2,-8.1 1.7,-2.3 -7.7,3.6 -5.8,1.4 -5.2,4.7 -8.5,6.1 -4.4,6.7 z"
               id="path311"
               inkscape:connector-curvature="0"
               style="fill:#c19e37" /></g><g
             id="g313"><path
               class="st0"
               d="m 380.1,162.2 c 0.8,-0.7 1.7,-1.5 2.6,-2.4 -1.5,1.2 -2.2,1.9 -2.6,2.4 z"
               id="path315"
               inkscape:connector-curvature="0"
               style="fill:#c19e37" /></g><g
             id="g317"><path
               class="st0"
               d="m 936.8,482.6 c 0.5,-2.5 0.8,-5.1 1.2,-7.7 l -1.5,4.9 c 0.1,1 0.2,1.9 0.3,2.8 z"
               id="path319"
               inkscape:connector-curvature="0"
               style="fill:#c19e37" /></g><g
             id="g321"><path
               class="st0"
               d="m 934.2,467.7 2.7,-1.8 -2.3,-4.6 c 0.1,1.8 0.2,5.1 -0.4,6.4 z"
               id="path323"
               inkscape:connector-curvature="0"
               style="fill:#c19e37" /></g><g
             id="g325"><path
               class="st0"
               d="m 234,556.5 -0.8,-0.4 c -0.4,1.3 0.1,2.9 0.9,6.2 l -0.1,-5.8 z"
               id="path327"
               inkscape:connector-curvature="0"
               style="fill:#c19e37" /></g><g
             id="g329"><polygon
               class="st0"
               points="270.8,649.1 272,646.6 271.1,645.1 "
               id="polygon331"
               style="fill:#c19e37" /></g><g
             id="g333"><path
               class="st0"
               d="m 325.9,708.4 c -2.4,-2.3 -5.5,-4.8 -7.7,-7.3 5.3,5.1 6.3,10.1 7.7,7.3 z"
               id="path335"
               inkscape:connector-curvature="0"
               style="fill:#c19e37" /></g></g><g
           id="g337"><path
             class="st0"
             d="M 570.1,799.7 C 382.4,799.7 229.8,647 229.8,459.4 c 0,-187.7 152.7,-340.3 340.3,-340.3 187.7,0 340.3,152.7 340.3,340.3 0,187.6 -152.6,340.3 -340.3,340.3 z m 0,-676.6 c -185.4,0 -336.3,150.8 -336.3,336.3 0,185.5 150.8,336.3 336.3,336.3 185.5,0 336.3,-150.8 336.3,-336.3 0,-185.5 -150.9,-336.3 -336.3,-336.3 z"
             id="path339"
             inkscape:connector-curvature="0"
             style="fill:#c19e37" /></g></g></g></switch></svg>