<?xml version="1.0" encoding="UTF-8" standalone="no"?>
<svg
   xmlns:dc="http://purl.org/dc/elements/1.1/"
   xmlns:cc="http://creativecommons.org/ns#"
   xmlns:rdf="http://www.w3.org/1999/02/22-rdf-syntax-ns#"
   xmlns:svg="http://www.w3.org/2000/svg"
   xmlns="http://www.w3.org/2000/svg"
   xmlns:sodipodi="http://sodipodi.sourceforge.net/DTD/sodipodi-0.dtd"
   xmlns:inkscape="http://www.inkscape.org/namespaces/inkscape"
   version="1.1"
   id="l15"
   x="0px"
   y="0px"
   viewBox="110.66515350341797 303.8499450683594 778.6698608398438 392.3001403808594"
   width="100%"
   height="100%"
   style="enable-background:new 0 0 1000 1000;"
   xml:space="preserve"
    class="withFill"
   ><style
     type="text/css"
     id="style3">
	#l15 .st0{fill:#9E9E9E;}
	#l15 .st1{fill:#FFFFFF;}
</style><switch
     id="switch5"
     transform="translate(-0.01,-26.55)"><g
       id="g7"><g
         id="g9"><path
           class="st0"
           d="m 689.3,684.5 c 2.8,-0.2 5.6,-0.3 8.4,-0.5 2.8,-0.4 5.7,-0.8 8.6,-1.1 1.4,-0.3 2.9,-0.6 4.3,-0.9 0.7,-0.2 1.5,-0.3 2.2,-0.5 0.7,-0.2 1.4,-0.4 2.2,-0.6 1.5,-0.4 2.9,-0.8 4.4,-1.2 1.5,-0.5 2.9,-1 4.4,-1.5 23,-8.3 43.2,-23.8 58.8,-41.2 4,-4.3 7.5,-8.9 11,-13.4 3.3,-4.6 6.6,-9.2 9.4,-13.9 15.1,-23.8 23.7,-47.8 25.7,-71.9 2.7,-31.5 -5.8,-63.1 -25.7,-94.6 -2.9,-4.7 -6.1,-9.2 -9.4,-13.9 -3.4,-4.5 -7,-9.1 -11,-13.4 -15.6,-17.5 -35.8,-32.9 -58.8,-41.2 -1.5,-0.5 -3,-1 -4.4,-1.5 -1.5,-0.4 -2.9,-0.8 -4.4,-1.2 -0.7,-0.2 -1.5,-0.4 -2.2,-0.6 -0.7,-0.2 -1.5,-0.3 -2.2,-0.5 -1.5,-0.3 -2.9,-0.6 -4.3,-0.9 -2.9,-0.4 -5.8,-0.8 -8.6,-1.1 -2.9,-0.2 -5.7,-0.3 -8.4,-0.5 -11.1,-0.2 -21.7,1 -31.7,2.8 -10.1,1.8 -19.7,4.1 -29,6.6 -9.4,2.5 -18.5,5.1 -27.8,7.6 -9.3,2.5 -18.6,5 -28.4,7 -2.4,0.6 -4.9,0.9 -7.4,1.4 -2.5,0.5 -5,0.9 -7.6,1.3 -5.2,0.7 -10.5,1.2 -16.1,1.1 -5.5,-0.1 -11.3,-0.9 -16.9,-2.9 -5.6,-1.9 -10.9,-5.2 -15.6,-9.3 -3.4,-3 -6.4,-6.4 -9.2,-10.1 -2.8,3.7 -5.9,7.1 -9.2,10.1 -4.7,4.1 -9.9,7.3 -15.6,9.3 -5.6,2 -11.4,2.8 -16.9,2.9 -5.6,0.1 -10.9,-0.4 -16.1,-1.1 -2.6,-0.3 -5.1,-0.8 -7.6,-1.3 -2.5,-0.5 -5,-0.9 -7.4,-1.4 -9.8,-2 -19.1,-4.5 -28.4,-7 -9.3,-2.5 -18.4,-5.1 -27.8,-7.6 -9.4,-2.5 -18.9,-4.8 -29,-6.6 -10.1,-1.8 -20.6,-3 -31.7,-2.8 -2.8,0.2 -5.6,0.3 -8.4,0.5 -2.8,0.4 -5.7,0.8 -8.6,1.1 -1.4,0.3 -2.9,0.6 -4.3,0.9 -0.7,0.2 -1.5,0.3 -2.2,0.5 -0.7,0.2 -1.4,0.4 -2.2,0.6 -1.5,0.4 -2.9,0.8 -4.4,1.2 -1.5,0.5 -2.9,1 -4.4,1.5 -43,15.5 -75.2,52.5 -93.5,93.5 -34.6,77.9 14.3,181.2 93.4,209.8 1.5,0.5 3,1 4.4,1.5 1.5,0.4 2.9,0.8 4.4,1.2 0.7,0.2 1.5,0.4 2.2,0.6 0.7,0.2 1.5,0.3 2.2,0.5 1.5,0.3 2.9,0.6 4.3,0.9 2.9,0.4 5.8,0.8 8.6,1.1 2.9,0.2 5.7,0.3 8.4,0.5 11.1,0.2 21.7,-1 31.7,-2.8 10.1,-1.8 19.7,-4.1 29,-6.6 9.4,-2.5 18.5,-5.1 27.8,-7.6 9.3,-2.5 18.6,-5 28.4,-7 2.4,-0.6 4.9,-0.9 7.4,-1.4 2.5,-0.5 5,-0.9 7.6,-1.3 5.2,-0.7 10.5,-1.2 16.1,-1.1 5.5,0.1 11.3,0.9 16.9,2.9 5.6,1.9 10.9,5.2 15.6,9.3 3.4,3 6.4,6.4 9.2,10.1 2.8,-3.7 5.9,-7.1 9.2,-10.1 4.7,-4.1 9.9,-7.3 15.6,-9.3 5.6,-2 11.4,-2.8 16.9,-2.9 5.6,-0.1 10.9,0.4 16.1,1.1 2.6,0.3 5.1,0.8 7.6,1.3 2.5,0.5 5,0.9 7.4,1.4 9.8,2 19.1,4.5 28.4,7 9.3,2.5 18.4,5.1 27.8,7.6 9.4,2.5 18.9,4.8 29,6.6 10.1,1.9 20.7,3.2 31.8,3 z"
           id="path11"
           inkscape:connector-curvature="0"
           style="fill:#9e9e9e" /><path
           class="st0"
           d="m 888.4,509.1 c -0.8,-7.8 -2.3,-15.7 -4.2,-23.7 -2.3,-9.1 -5.2,-19.2 -9.3,-30.1 -4.1,-10.9 -9.2,-22.5 -15.8,-34.3 -3.3,-5.9 -7,-11.8 -11,-17.7 -4.2,-5.8 -8.6,-11.7 -13.6,-17.3 -4.9,-5.7 -10.3,-11 -16.1,-16.2 -3,-2.5 -5.8,-5.1 -9,-7.4 -1.6,-1.2 -3.1,-2.4 -4.7,-3.6 -1.6,-1.1 -3.2,-2.2 -4.9,-3.4 -1.6,-1.2 -3.3,-2.2 -5,-3.2 -1.7,-1 -3.4,-2.1 -5.1,-3.1 -3.5,-1.9 -7,-3.9 -10.7,-5.5 -3.6,-1.8 -7.4,-3.2 -11.2,-4.7 -1.9,-0.8 -3.8,-1.3 -5.8,-2 -1.9,-0.6 -3.8,-1.3 -5.8,-1.7 -2,-0.5 -4,-1 -6,-1.5 -2,-0.4 -4,-0.8 -6,-1.2 -1,-0.2 -2,-0.4 -2.9,-0.5 -1,-0.1 -2,-0.3 -3,-0.4 -2,-0.2 -3.9,-0.5 -5.8,-0.7 -3.8,-0.2 -7.6,-0.4 -11.3,-0.5 -3.7,0.1 -7.3,0.2 -10.8,0.3 -14.1,1 -26.8,3.7 -38.5,6.9 -11.7,3.2 -22.4,6.9 -32.7,10.7 -10.2,3.9 -20.1,7.6 -30.1,11.4 -9.9,3.7 -19.9,7.3 -30.3,10.3 -10.5,2.9 -21.3,6.1 -33,6.6 -5.8,0.3 -11.8,-0.2 -17.7,-1.8 -5.9,-1.6 -11.7,-4.7 -16.9,-8.8 -3.9,-3 -7.5,-6.6 -10.8,-10.6 -0.3,-0.3 -0.6,-0.7 -0.9,-1 -0.3,0.4 -0.6,0.7 -0.9,1 -3.4,4 -7,7.6 -10.8,10.6 -5.3,4.1 -11,7.2 -16.9,8.8 -5.9,1.7 -11.9,2.1 -17.7,1.8 -11.6,-0.5 -22.5,-3.7 -33,-6.6 -10.4,-3.1 -20.4,-6.7 -30.3,-10.3 -10,-3.8 -19.9,-7.5 -30.1,-11.4 -10.3,-3.8 -21,-7.5 -32.7,-10.7 -11.7,-3.2 -24.3,-5.9 -38.5,-6.9 -3.5,-0.1 -7.1,-0.3 -10.8,-0.3 -3.7,0.2 -7.5,0.3 -11.3,0.5 -1.9,0.2 -3.9,0.5 -5.8,0.7 -1,0.1 -2,0.2 -3,0.4 -1,0.2 -2,0.4 -2.9,0.5 -2,0.4 -4,0.7 -6,1.2 -2,0.5 -4,1 -6,1.5 -2,0.5 -3.9,1.1 -5.8,1.7 -1.9,0.7 -3.9,1.2 -5.8,2 -3.8,1.5 -7.6,2.9 -11.2,4.7 -3.7,1.6 -7.2,3.6 -10.7,5.5 -1.8,1 -3.4,2 -5.1,3.1 -1.7,1 -3.4,2.1 -5,3.2 -1.6,1.1 -3.3,2.2 -4.9,3.4 -1.6,1.1 -3.1,2.4 -4.7,3.6 -3.2,2.3 -6,4.9 -9,7.4 -5.7,5.2 -11.2,10.5 -16.1,16.2 -5,5.6 -9.4,11.5 -13.6,17.3 -4,5.9 -7.8,11.8 -11,17.7 -6.6,11.8 -11.7,23.4 -15.8,34.3 -17.9,48 -17.9,94.6 0,142.5 4.1,10.9 9.2,22.5 15.8,34.3 3.3,5.9 7,11.8 11,17.7 4.2,5.8 8.6,11.7 13.6,17.3 4.9,5.7 10.3,11 16.1,16.2 3,2.5 5.8,5.1 9,7.4 1.6,1.2 3.1,2.4 4.7,3.6 1.6,1.1 3.2,2.2 4.9,3.4 1.6,1.2 3.3,2.2 5,3.2 1.7,1 3.4,2.1 5.1,3.1 3.5,1.9 7,3.9 10.7,5.5 3.6,1.8 7.4,3.2 11.2,4.7 1.9,0.8 3.8,1.3 5.8,2 1.9,0.6 3.8,1.3 5.8,1.7 2,0.5 4,1 6,1.5 2,0.4 4,0.8 6,1.2 1,0.2 2,0.4 2.9,0.5 1,0.1 2,0.2 3,0.4 2,0.2 3.9,0.5 5.8,0.7 3.8,0.2 7.6,0.4 11.3,0.5 3.7,-0.1 7.3,-0.2 10.8,-0.3 14.1,-1 26.8,-3.7 38.5,-6.9 11.7,-3.2 22.4,-6.9 32.7,-10.7 10.2,-3.9 20.1,-7.6 30.1,-11.4 9.9,-3.7 19.9,-7.3 30.3,-10.3 10.5,-2.9 21.3,-6.1 33,-6.6 5.8,-0.3 11.8,0.2 17.7,1.8 5.9,1.6 11.7,4.7 16.9,8.8 3.9,3 7.5,6.6 10.8,10.6 0.3,0.3 0.6,0.7 0.9,1 0.3,-0.4 0.6,-0.7 0.9,-1 3.4,-4 7,-7.6 10.8,-10.6 5.3,-4.1 11,-7.2 16.9,-8.8 5.9,-1.7 11.9,-2.1 17.7,-1.8 11.6,0.5 22.5,3.7 33,6.6 10.4,3.1 20.4,6.7 30.3,10.3 10,3.8 19.9,7.5 30.1,11.4 10.3,3.8 21,7.5 32.7,10.7 11.7,3.2 24.3,5.9 38.5,6.9 3.5,0.1 7.1,0.3 10.8,0.3 3.7,-0.2 7.5,-0.3 11.3,-0.5 1.9,-0.2 3.9,-0.5 5.8,-0.7 1,-0.1 2,-0.2 3,-0.4 1,-0.2 2,-0.4 2.9,-0.5 2,-0.4 4,-0.7 6,-1.2 2,-0.5 4,-1 6,-1.5 2,-0.5 3.9,-1.1 5.8,-1.7 1.9,-0.7 3.9,-1.2 5.8,-2 3.8,-1.5 7.6,-2.9 11.2,-4.7 3.7,-1.6 7.2,-3.6 10.7,-5.5 1.8,-1 3.4,-2 5.1,-3.1 1.7,-1 3.4,-2.1 5,-3.2 1.6,-1.1 3.3,-2.2 4.9,-3.4 1.6,-1.1 3.1,-2.4 4.7,-3.6 3.2,-2.3 6,-4.9 9,-7.4 5.7,-5.2 11.2,-10.5 16.1,-16.2 5,-5.6 9.4,-11.5 13.6,-17.3 4,-5.9 7.8,-11.8 11,-17.7 6.6,-11.8 11.7,-23.4 15.8,-34.3 4.1,-10.9 7.1,-21 9.3,-30.1 4.9,-19.9 6.3,-39.2 4.2,-58.6 z M 688.8,702.2 c -12.7,-0.9 -24,-3.3 -34.5,-6.2 -10.5,-2.9 -20.1,-6.2 -29.3,-9.6 -9.1,-3.5 -18.1,-6.8 -27,-10.2 -8.9,-3.3 -17.8,-6.5 -27.2,-9.3 -9.4,-2.6 -19.1,-5.5 -29.6,-5.9 -5.2,-0.3 -10.6,0.1 -15.9,1.6 -5.3,1.5 -10.5,4.2 -15.2,7.9 -3.5,2.7 -6.7,6 -9.7,9.5 -0.3,0.3 -0.5,0.6 -0.8,0.9 -0.3,-0.3 -0.5,-0.6 -0.8,-0.9 -3,-3.6 -6.2,-6.8 -9.7,-9.5 -4.7,-3.7 -9.9,-6.4 -15.2,-7.9 -5.3,-1.5 -10.7,-1.9 -15.9,-1.6 -10.5,0.5 -20.2,3.3 -29.6,5.9 -9.4,2.7 -18.3,6 -27.2,9.3 -8.9,3.4 -17.8,6.8 -27,10.2 -9.2,3.4 -18.9,6.7 -29.3,9.6 -10.5,2.9 -21.9,5.3 -34.5,6.2 -3.2,0.1 -6.4,0.2 -9.7,0.3 -3.3,-0.1 -6.7,-0.3 -10.1,-0.5 -1.7,-0.2 -3.5,-0.4 -5.2,-0.6 -0.9,-0.1 -1.8,-0.2 -2.7,-0.3 -0.9,-0.2 -1.8,-0.3 -2.6,-0.5 -1.8,-0.3 -3.6,-0.6 -5.4,-1 -1.8,-0.5 -3.6,-0.9 -5.4,-1.4 -1.8,-0.4 -3.5,-1 -5.2,-1.6 -1.7,-0.6 -3.5,-1.1 -5.2,-1.8 -3.4,-1.3 -6.8,-2.6 -10,-4.2 -3.3,-1.5 -6.5,-3.2 -9.6,-4.9 -1.6,-0.9 -3.1,-1.8 -4.6,-2.8 -1.5,-0.9 -3.1,-1.8 -4.5,-2.9 -1.5,-1 -2.9,-2 -4.4,-3 -1.4,-1 -2.8,-2.1 -4.2,-3.2 -2.8,-2.1 -5.4,-4.4 -8.1,-6.7 -5.1,-4.6 -10,-9.4 -14.4,-14.5 -4.5,-5 -8.4,-10.3 -12.2,-15.5 -3.6,-5.3 -7,-10.6 -9.9,-15.9 -5.9,-10.6 -10.5,-21 -14.2,-30.8 -16.1,-43 -16.1,-84.8 0,-127.9 3.7,-9.8 8.3,-20.2 14.2,-30.8 2.9,-5.3 6.3,-10.6 9.9,-15.9 3.8,-5.2 7.7,-10.5 12.2,-15.5 4.4,-5.1 9.3,-9.9 14.4,-14.5 2.6,-2.2 5.2,-4.6 8.1,-6.7 1.4,-1.1 2.8,-2.2 4.2,-3.2 1.5,-1 2.9,-2 4.4,-3 1.4,-1 3,-1.9 4.5,-2.9 1.5,-0.9 3,-1.9 4.6,-2.8 3.2,-1.7 6.3,-3.5 9.6,-4.9 3.2,-1.6 6.6,-2.9 10,-4.2 1.7,-0.7 3.4,-1.2 5.2,-1.8 1.7,-0.6 3.4,-1.2 5.2,-1.6 1.8,-0.5 3.6,-0.9 5.4,-1.4 1.8,-0.4 3.6,-0.7 5.4,-1 0.9,-0.2 1.8,-0.3 2.6,-0.5 0.9,-0.1 1.8,-0.2 2.7,-0.3 1.8,-0.2 3.5,-0.4 5.2,-0.6 3.5,-0.2 6.8,-0.3 10.1,-0.5 3.3,0.1 6.5,0.2 9.7,0.3 12.7,0.9 24,3.3 34.5,6.2 10.5,2.9 20.1,6.2 29.3,9.6 9.1,3.5 18.1,6.8 27,10.2 8.9,3.3 17.8,6.5 27.2,9.3 9.4,2.6 19.1,5.5 29.6,5.9 5.2,0.3 10.6,-0.1 15.9,-1.6 5.3,-1.5 10.5,-4.2 15.2,-7.9 3.5,-2.7 6.7,-6 9.7,-9.5 0.3,-0.3 0.5,-0.6 0.8,-0.9 0.3,0.3 0.5,0.6 0.8,0.9 3,3.6 6.2,6.8 9.7,9.5 4.7,3.7 9.9,6.4 15.2,7.9 5.3,1.5 10.7,1.9 15.9,1.6 10.5,-0.5 20.2,-3.3 29.6,-5.9 9.4,-2.7 18.3,-6 27.2,-9.3 8.9,-3.4 17.8,-6.8 27,-10.2 9.2,-3.4 18.9,-6.7 29.3,-9.6 10.5,-2.9 21.9,-5.3 34.5,-6.2 3.2,-0.1 6.4,-0.2 9.7,-0.3 3.3,0.1 6.7,0.3 10.1,0.5 1.7,0.2 3.5,0.4 5.2,0.6 0.9,0.1 1.8,0.2 2.7,0.3 0.9,0.2 1.8,0.3 2.6,0.5 1.8,0.3 3.6,0.6 5.4,1 1.8,0.5 3.6,0.9 5.4,1.4 1.8,0.4 3.5,1 5.2,1.6 1.7,0.6 3.5,1.1 5.2,1.8 3.4,1.3 6.8,2.6 10,4.2 3.3,1.5 6.5,3.2 9.6,4.9 1.6,0.9 3.1,1.8 4.6,2.8 1.5,0.9 3.1,1.8 4.5,2.9 1.5,1 2.9,2 4.4,3 1.4,1 2.8,2.1 4.2,3.2 2.8,2.1 5.4,4.4 8.1,6.7 5.1,4.6 10,9.4 14.4,14.5 4.5,5 8.4,10.3 12.2,15.5 3.6,5.3 7,10.6 9.9,15.9 5.9,10.6 10.5,21 14.2,30.8 3.6,9.8 6.3,18.9 8.4,27 1.8,7.2 3,14.2 3.8,21.3 1.9,17.5 0.6,34.7 -3.8,52.6 -2,8.1 -4.7,17.3 -8.4,27 -3.7,9.8 -8.3,20.2 -14.2,30.8 -2.9,5.3 -6.3,10.6 -9.9,15.9 -3.7,5.2 -7.7,10.5 -12.2,15.5 -4.4,5.1 -9.3,9.9 -14.4,14.5 -2.6,2.2 -5.2,4.6 -8.1,6.7 -1.4,1.1 -2.8,2.2 -4.2,3.2 -1.5,1 -2.9,2 -4.4,3 -1.4,1 -3,1.9 -4.5,2.9 -1.5,0.9 -3,1.9 -4.6,2.8 -3.2,1.7 -6.3,3.5 -9.6,4.9 -3.2,1.6 -6.6,2.9 -10,4.2 -1.7,0.7 -3.4,1.2 -5.2,1.8 -1.7,0.6 -3.4,1.2 -5.2,1.6 -1.8,0.5 -3.6,0.9 -5.4,1.4 -1.8,0.4 -3.6,0.7 -5.4,1 -0.9,0.2 -1.8,0.3 -2.6,0.5 -0.9,0.1 -1.8,0.2 -2.7,0.3 -1.8,0.2 -3.5,0.4 -5.2,0.6 -3.5,0.2 -6.8,0.3 -10.1,0.5 -3.3,-0.1 -6.5,-0.2 -9.7,-0.3 z"
           id="path13"
           inkscape:connector-curvature="0"
           style="fill:#9e9e9e" /><path
           class="st1"
           d="m 708.7,702 c 1.7,-0.2 3.5,-0.4 5.2,-0.6 0.9,-0.1 1.8,-0.2 2.7,-0.3 0.9,-0.2 1.8,-0.3 2.6,-0.5 1.8,-0.3 3.6,-0.6 5.4,-1 1.8,-0.5 3.6,-0.9 5.4,-1.4 1.8,-0.4 3.5,-1 5.2,-1.6 1.7,-0.6 3.5,-1.1 5.2,-1.8 3.4,-1.3 6.8,-2.6 10,-4.2 3.3,-1.5 6.5,-3.2 9.6,-4.9 1.6,-0.9 3.1,-1.8 4.6,-2.8 1.5,-0.9 3.1,-1.8 4.5,-2.9 1.5,-1 2.9,-2 4.4,-3 1.4,-1 2.8,-2.1 4.2,-3.2 2.8,-2.1 5.4,-4.4 8.1,-6.7 5.1,-4.6 10,-9.4 14.4,-14.5 4.5,-5 8.4,-10.3 12.2,-15.5 3.6,-5.3 7,-10.6 9.9,-15.9 5.9,-10.6 10.5,-21 14.2,-30.8 3.6,-9.8 6.3,-18.9 8.4,-27 4.4,-17.8 5.7,-35.1 3.8,-52.6 -0.8,-7 -2,-14.1 -3.8,-21.3 -2,-8.1 -4.7,-17.3 -8.4,-27 -3.7,-9.8 -8.3,-20.2 -14.2,-30.8 -2.9,-5.3 -6.3,-10.6 -9.9,-15.9 -3.7,-5.2 -7.7,-10.5 -12.2,-15.5 -4.4,-5.1 -9.3,-9.9 -14.4,-14.5 -2.6,-2.2 -5.2,-4.6 -8.1,-6.7 -1.4,-1.1 -2.8,-2.2 -4.2,-3.2 -1.5,-1 -2.9,-2 -4.4,-3 -1.4,-1 -3,-1.9 -4.5,-2.9 -1.5,-0.9 -3,-1.9 -4.6,-2.8 -3.2,-1.7 -6.3,-3.5 -9.6,-4.9 -3.2,-1.6 -6.6,-2.9 -10,-4.2 -1.7,-0.7 -3.4,-1.2 -5.2,-1.8 -1.7,-0.6 -3.4,-1.2 -5.2,-1.6 -1.8,-0.5 -3.6,-0.9 -5.4,-1.4 -1.8,-0.4 -3.6,-0.7 -5.4,-1 -0.9,-0.2 -1.8,-0.3 -2.6,-0.5 -0.9,-0.1 -1.8,-0.2 -2.7,-0.3 -1.8,-0.2 -3.5,-0.4 -5.2,-0.6 -3.5,-0.2 -6.8,-0.3 -10.1,-0.5 -3.3,0.1 -6.5,0.2 -9.7,0.3 -12.7,0.9 -24,3.3 -34.5,6.2 -10.5,2.9 -20.1,6.2 -29.3,9.6 -9.1,3.5 -18.1,6.8 -27,10.2 -8.9,3.3 -17.8,6.5 -27.2,9.3 -9.4,2.6 -19.1,5.5 -29.6,5.9 -5.2,0.3 -10.6,-0.1 -15.9,-1.6 -5.3,-1.5 -10.5,-4.2 -15.2,-7.9 -3.5,-2.7 -6.7,-5.9 -9.7,-9.5 -0.3,-0.3 -0.5,-0.6 -0.8,-0.9 -0.3,0.3 -0.5,0.6 -0.8,0.9 -3,3.6 -6.2,6.8 -9.7,9.5 -4.7,3.7 -9.9,6.4 -15.2,7.9 -5.3,1.5 -10.7,1.9 -15.9,1.6 -10.5,-0.5 -20.2,-3.3 -29.6,-5.9 -9.4,-2.7 -18.3,-6 -27.2,-9.3 -8.9,-3.4 -17.8,-6.8 -27,-10.2 -9.2,-3.4 -18.9,-6.7 -29.3,-9.6 -10.5,-2.9 -21.9,-5.3 -34.5,-6.2 -3.2,-0.1 -6.4,-0.2 -9.7,-0.3 -3.3,0.1 -6.7,0.3 -10.1,0.5 -1.7,0.2 -3.5,0.4 -5.2,0.6 -0.9,0.1 -1.8,0.2 -2.7,0.3 -0.9,0.2 -1.8,0.3 -2.6,0.5 -1.8,0.3 -3.6,0.6 -5.4,1 -1.8,0.5 -3.6,0.9 -5.4,1.4 -1.8,0.4 -3.5,1 -5.2,1.6 -1.7,0.6 -3.5,1.1 -5.2,1.8 -3.4,1.3 -6.8,2.6 -10,4.2 -3.3,1.5 -6.5,3.2 -9.6,4.9 -1.6,0.9 -3.1,1.8 -4.6,2.8 -1.5,0.9 -3.1,1.8 -4.5,2.9 -1.5,1 -2.9,2 -4.4,3 -1.4,1 -2.8,2.1 -4.2,3.2 -2.8,2.1 -5.4,4.4 -8.1,6.7 -5.1,4.6 -10,9.4 -14.4,14.5 -4.5,5 -8.4,10.3 -12.2,15.5 -3.6,5.3 -7,10.6 -9.9,15.9 -5.9,10.6 -10.5,21 -14.2,30.8 -16.1,43.1 -16.1,84.9 0,127.9 3.6,9.8 8.3,20.2 14.2,30.8 2.9,5.3 6.3,10.6 9.9,15.9 3.8,5.2 7.7,10.5 12.2,15.5 4.4,5.1 9.3,9.9 14.4,14.5 2.6,2.2 5.2,4.6 8.1,6.7 1.4,1.1 2.8,2.2 4.2,3.2 1.5,1 2.9,2 4.4,3 1.4,1 3,1.9 4.5,2.9 1.5,0.9 3,1.9 4.6,2.8 3.2,1.7 6.3,3.5 9.6,4.9 3.2,1.6 6.6,2.9 10,4.2 1.7,0.7 3.4,1.2 5.2,1.8 1.7,0.6 3.4,1.2 5.2,1.6 1.8,0.5 3.6,0.9 5.4,1.4 1.8,0.4 3.6,0.7 5.4,1 0.9,0.2 1.8,0.3 2.6,0.5 0.9,0.1 1.8,0.2 2.7,0.3 1.8,0.2 3.5,0.4 5.2,0.6 3.5,0.2 6.8,0.3 10.1,0.5 3.3,-0.1 6.5,-0.2 9.7,-0.3 12.7,-0.9 24,-3.3 34.5,-6.2 10.5,-2.9 20.1,-6.2 29.3,-9.6 9.1,-3.5 18.1,-6.8 27,-10.2 8.9,-3.3 17.8,-6.5 27.2,-9.3 9.4,-2.6 19.1,-5.5 29.6,-5.9 5.2,-0.3 10.6,0.1 15.9,1.6 5.3,1.5 10.5,4.2 15.2,7.9 3.5,2.7 6.7,5.9 9.7,9.5 0.3,0.3 0.5,0.6 0.8,0.9 0.3,-0.3 0.5,-0.6 0.8,-0.9 3,-3.6 6.2,-6.8 9.7,-9.5 4.7,-3.7 9.9,-6.4 15.2,-7.9 5.3,-1.5 10.7,-1.9 15.9,-1.6 10.5,0.5 20.2,3.3 29.6,5.9 9.4,2.7 18.3,6 27.2,9.3 8.9,3.4 17.8,6.8 27,10.2 9.2,3.4 18.9,6.7 29.3,9.6 10.5,2.9 21.9,5.3 34.5,6.2 3.2,0.1 6.4,0.2 9.7,0.3 3.3,-0.2 6.6,-0.3 10.1,-0.5 z M 600.8,667.5 c -9.3,-2.5 -18.6,-5 -28.4,-7 -2.4,-0.6 -4.9,-0.9 -7.4,-1.4 -2.5,-0.5 -5,-0.9 -7.6,-1.3 -5.2,-0.7 -10.5,-1.2 -16.1,-1.1 -5.5,0.1 -11.3,0.9 -16.9,2.9 -5.6,1.9 -10.9,5.2 -15.6,9.3 -3.4,3 -6.4,6.4 -9.2,10.1 -2.8,-3.7 -5.9,-7.1 -9.2,-10.1 -4.7,-4.1 -9.9,-7.3 -15.6,-9.3 -5.6,-2 -11.4,-2.8 -16.9,-2.9 -5.6,-0.1 -10.9,0.4 -16.1,1.1 -2.6,0.3 -5.1,0.8 -7.6,1.3 -2.5,0.5 -5,0.9 -7.4,1.4 -9.8,2 -19.1,4.5 -28.4,7 -9.3,2.5 -18.4,5.1 -27.8,7.6 -9.4,2.5 -18.9,4.8 -29,6.6 -10.1,1.8 -20.6,3 -31.7,2.8 -2.8,-0.2 -5.6,-0.3 -8.4,-0.5 -2.8,-0.4 -5.7,-0.8 -8.6,-1.1 -1.4,-0.3 -2.9,-0.6 -4.3,-0.9 -0.7,-0.2 -1.5,-0.3 -2.2,-0.5 -0.7,-0.2 -1.4,-0.4 -2.2,-0.6 -1.5,-0.4 -2.9,-0.8 -4.4,-1.2 -1.5,-0.5 -2.9,-1 -4.4,-1.5 C 196.3,649.6 147.3,546.3 182,468.4 c 18.2,-41 50.5,-77.9 93.5,-93.5 1.5,-0.5 3,-1 4.4,-1.5 1.5,-0.4 2.9,-0.8 4.4,-1.2 0.7,-0.2 1.5,-0.4 2.2,-0.6 0.7,-0.2 1.5,-0.3 2.2,-0.5 1.5,-0.3 2.9,-0.6 4.3,-0.9 2.9,-0.4 5.8,-0.8 8.6,-1.1 2.9,-0.2 5.7,-0.3 8.4,-0.5 11.1,-0.2 21.7,1 31.7,2.8 10.1,1.8 19.7,4.1 29,6.6 9.4,2.5 18.5,5.1 27.8,7.6 9.3,2.5 18.6,5 28.4,7 2.4,0.6 4.9,0.9 7.4,1.4 2.5,0.5 5,0.9 7.6,1.3 5.2,0.7 10.5,1.2 16.1,1.1 5.5,-0.1 11.3,-0.9 16.9,-2.9 5.6,-1.9 10.9,-5.2 15.6,-9.3 3.4,-3 6.4,-6.4 9.2,-10.1 2.8,3.7 5.9,7.1 9.2,10.1 4.7,4.1 9.9,7.3 15.6,9.3 5.6,2 11.4,2.8 16.9,2.9 5.6,0.1 10.9,-0.4 16.1,-1.1 2.6,-0.3 5.1,-0.8 7.6,-1.3 2.5,-0.5 5,-0.9 7.4,-1.4 9.8,-2 19.1,-4.5 28.4,-7 9.3,-2.5 18.4,-5.1 27.8,-7.6 9.4,-2.5 18.9,-4.8 29,-6.6 10.1,-1.8 20.6,-3 31.7,-2.8 2.8,0.2 5.6,0.3 8.4,0.5 2.8,0.4 5.7,0.8 8.6,1.1 1.4,0.3 2.9,0.6 4.3,0.9 0.7,0.2 1.5,0.3 2.2,0.5 0.7,0.2 1.4,0.4 2.2,0.6 1.5,0.4 2.9,0.8 4.4,1.2 1.5,0.5 2.9,1 4.4,1.5 23,8.3 43.2,23.8 58.8,41.2 4,4.3 7.5,8.9 11,13.4 3.3,4.6 6.6,9.2 9.4,13.9 19.9,31.5 28.4,63.1 25.7,94.6 -2.1,24 -10.7,48 -25.7,71.9 -2.9,4.7 -6.1,9.2 -9.4,13.9 -3.4,4.5 -7,9.1 -11,13.4 -15.6,17.5 -35.8,32.9 -58.8,41.2 -1.5,0.5 -3,1 -4.4,1.5 -1.5,0.4 -2.9,0.8 -4.4,1.2 -0.7,0.2 -1.5,0.4 -2.2,0.6 -0.7,0.2 -1.5,0.3 -2.2,0.5 -1.5,0.3 -2.9,0.6 -4.3,0.9 -2.9,0.4 -5.8,0.8 -8.6,1.1 -2.9,0.2 -5.7,0.3 -8.4,0.5 -11.1,0.2 -21.7,-1 -31.7,-2.8 -10.1,-1.8 -19.7,-4.1 -29,-6.6 -9.6,-2.7 -18.7,-5.3 -27.9,-7.8 z"
           id="path15"
           inkscape:connector-curvature="0"
           style="fill:#ffffff" /></g></g></switch></svg>