<?xml version="1.0" encoding="UTF-8" standalone="no"?>
<svg
   xmlns:dc="http://purl.org/dc/elements/1.1/"
   xmlns:cc="http://creativecommons.org/ns#"
   xmlns:rdf="http://www.w3.org/1999/02/22-rdf-syntax-ns#"
   xmlns:svg="http://www.w3.org/2000/svg"
   xmlns="http://www.w3.org/2000/svg"
   xmlns:sodipodi="http://sodipodi.sourceforge.net/DTD/sodipodi-0.dtd"
   xmlns:inkscape="http://www.inkscape.org/namespaces/inkscape"
   version="1.1"
   id="Layer_1"
   x="0px"
   y="0px"
   viewBox="0 0 1000 1000"
   width="100%"
   height="100%"
   style="enable-background:new 0 0 1000 1000;"
   xml:space="preserve"
   ><style
     type="text/css"
     id="style3">
	.st0{fill:#B9921D;}
</style><switch
     id="switch5"
     transform="translate(-40.6,11.65)"><g
       id="g7"><g
         id="g9"><g
           id="g11"><path
             class="st0"
             d="M 540.6,880.2 148.8,488.3 540.6,96.5 932.4,488.3 540.6,880.2 Z m -367,-391.9 367.1,367.1 367.1,-367.1 -367.2,-367 -367,367 z"
             id="path13"
             inkscape:connector-curvature="0"
             style="fill:#b9921d" /></g><g
           id="g15"><rect
             x="161.2"
             y="482.5"
             class="st0"
             width="758.90002"
             height="11.7"
             id="rect17"
             style="fill:#b9921d" /></g><g
           id="g19"><rect
             x="252.8"
             y="292.79999"
             transform="matrix(0.3941,-0.9191,0.9191,0.3941,3.8273,603.0041)"
             class="st0"
             width="412.89999"
             height="11.7"
             id="rect21"
             style="fill:#b9921d" /></g><g
           id="g23"><rect
             x="453.39999"
             y="471.60001"
             transform="matrix(0.9191,-0.3941,0.3941,0.9191,-230.0657,235.8883)"
             class="st0"
             width="11.7"
             height="412.89999"
             id="rect25"
             style="fill:#b9921d" /></g><g
           id="g27"><rect
             x="619.79999"
             y="104.2"
             transform="matrix(0.8902,-0.4556,0.4556,0.8902,-71.3482,318.8288)"
             class="st0"
             width="11.7"
             height="406.5"
             id="rect29"
             style="fill:#b9921d" /></g><g
           id="g31"><rect
             x="419.89999"
             y="672.20001"
             transform="matrix(0.4238,-0.9057,0.9057,0.4238,-251.4744,960.7864)"
             class="st0"
             width="419"
             height="11.7"
             id="rect33"
             style="fill:#b9921d" /></g></g></g></switch></svg>