<?xml version="1.0" encoding="UTF-8" standalone="no"?>
<svg
   xmlns:dc="http://purl.org/dc/elements/1.1/"
   xmlns:cc="http://creativecommons.org/ns#"
   xmlns:rdf="http://www.w3.org/1999/02/22-rdf-syntax-ns#"
   xmlns:svg="http://www.w3.org/2000/svg"
   xmlns="http://www.w3.org/2000/svg"
   xmlns:sodipodi="http://sodipodi.sourceforge.net/DTD/sodipodi-0.dtd"
   xmlns:inkscape="http://www.inkscape.org/namespaces/inkscape"
   version="1.1"
   id="Layer_1"
   x="0px"
   y="0px"
   viewBox="0 0 1000 1000"
   width="100%"
   height="100%"
   style="enable-background:new 0 0 1000 1000;"
   xml:space="preserve"
   ><style
     type="text/css"
     id="style3">
	.st0{fill:#B9921D;}
	.st1{fill:#FFFFFF;}
</style><switch
     id="switch5"
     transform="translate(0,23.600006)"><g
       id="g7"><g
         id="g9"><circle
           class="st0"
           cx="500"
           cy="476.39999"
           r="444.60001"
           id="circle11"
           style="fill:#b9921d" /><g
           id="g13"><g
             id="g15"><path
               class="st1"
               d="m 641.8,787.1 -283.6,0 -176.8,-221.8 63.1,-276.5 255.5,-123 255.5,123 63.1,276.5 -176.8,221.8 z m -275.2,-17.4 266.8,0 L 799.8,561.1 740.4,300.9 500,185.1 259.6,300.9 200.2,561.1 366.6,769.7 Z"
               id="path17"
               inkscape:connector-curvature="0"
               style="fill:#ffffff" /></g><g
             id="g19"><rect
               x="377.10001"
               y="261.70001"
               transform="matrix(0.8794,-0.4761,0.4761,0.8794,-209.314,247.0587)"
               class="st1"
               width="11.6"
               height="549.79999"
               id="rect21"
               style="fill:#ffffff" /></g><g
             id="g23"><rect
               x="362.29999"
               y="530.79999"
               transform="matrix(0.436,-0.8999,0.8999,0.436,-127.1294,870.3867)"
               class="st1"
               width="537.20001"
               height="11.6"
               id="rect25"
               style="fill:#ffffff" /></g></g></g></g></switch></svg>