<?xml version="1.0" encoding="UTF-8" standalone="no"?>
<svg
   xmlns:dc="http://purl.org/dc/elements/1.1/"
   xmlns:cc="http://creativecommons.org/ns#"
   xmlns:rdf="http://www.w3.org/1999/02/22-rdf-syntax-ns#"
   xmlns:svg="http://www.w3.org/2000/svg"
   xmlns="http://www.w3.org/2000/svg"
   xmlns:sodipodi="http://sodipodi.sourceforge.net/DTD/sodipodi-0.dtd"
   xmlns:inkscape="http://www.inkscape.org/namespaces/inkscape"
   version="1.1"
   id="Layer_1"
   x="0px"
   y="0px"
   viewBox="0 0 1000 1000"
   width="100%"
   height="100%"
   style="enable-background:new 0 0 1000 1000;"
   xml:space="preserve"
   ><style
     type="text/css"
     id="style3">
	.noFillSVG{fill:none;}
	.st1{fill:#B9921D;}
</style><switch
     id="switch5"
     transform="translate(-25.8,13.1)"><g
       id="g7"><g
         id="g9"><path
           class="noFillSVG"
           d="m 521.9,912.8 c 0,0 0.1,-0.1 0.1,-0.1 0.2,-0.1 0.3,-0.1 0.5,-0.2 0.2,-0.1 0.3,-0.1 0.5,-0.1 l -1.7,-1.7 c 0.3,0.7 0.4,1.4 0.6,2.1 z"
           id="path11"
           inkscape:connector-curvature="0"
           style="fill:none" /><path
           class="noFillSVG"
           d="m 530.5,61.1 c 0,0 -0.1,0.1 -0.1,0.1 -0.2,0.1 -0.3,0.1 -0.5,0.2 -0.1,0 -0.1,0 -0.2,0 l 1.3,1.3 c -0.2,-0.5 -0.4,-1 -0.5,-1.6 z"
           id="path13"
           inkscape:connector-curvature="0"
           style="fill:none" /><path
           class="noFillSVG"
           d="m 100.3,483.4 c 0.1,0.1 0,0.3 0.1,0.4 l 1.6,-1.6 c -0.6,0.2 -1.3,0.4 -1.9,0.5 0,0 0.1,0.1 0.1,0.1 0,0.3 0.1,0.4 0.1,0.6 z"
           id="path15"
           inkscape:connector-curvature="0"
           style="fill:none" /><path
           class="noFillSVG"
           d="m 523.9,60.1 c -0.2,0.1 -0.4,0.1 -0.6,0.1 -0.1,0.3 -0.2,0.6 -0.3,0.9 l 1.2,-1.2 c -0.1,0.1 -0.2,0.2 -0.3,0.2 z"
           id="path17"
           inkscape:connector-curvature="0"
           style="fill:none" /><path
           class="noFillSVG"
           d="m 525.5,915 c 0,0 0.1,0 0,0 l 0,-0.1 c 0,0 0,0 0,0.1 z"
           id="path19"
           inkscape:connector-curvature="0"
           style="fill:none" /><path
           class="noFillSVG"
           d="m 98.4,488.1 c 0.2,0.4 0.5,0.8 0.7,1.3 0.1,0.2 0.1,0.4 0.1,0.6 0.7,0.2 1.4,0.5 2.1,0.8 l -3,-3 c 0,0 0.1,0.2 0.1,0.3 z"
           id="path21"
           inkscape:connector-curvature="0"
           style="fill:none" /><path
           class="noFillSVG"
           d="M 101.9,486.8 526.3,911.2 950.7,486.8 526.2,62.4 101.9,486.8 Z M 523.6,872.6 137.8,486.8 523.7,100.9 909.6,486.8 523.6,872.6 Z"
           id="path23"
           inkscape:connector-curvature="0"
           style="fill:none" /><path
           class="noFillSVG"
           d="m 952.4,483.7 c -0.3,-0.1 -0.5,-0.2 -0.8,-0.3 l 1,1 c 0,-0.1 -0.1,-0.1 -0.1,-0.2 0,-0.1 -0.1,-0.3 -0.1,-0.5 z"
           id="path25"
           inkscape:connector-curvature="0"
           style="fill:none" /><path
           class="noFillSVG"
           d="m 528.5,913.7 c 0.2,-0.1 0.4,-0.1 0.6,-0.1 0.1,-0.4 0.3,-0.8 0.5,-1.3 l -1.9,1.9 c 0.2,-0.2 0.5,-0.3 0.8,-0.5 z"
           id="path27"
           inkscape:connector-curvature="0"
           style="fill:none" /><rect
           x="253.89999"
           y="217.10001"
           transform="matrix(0.7071,-0.7071,0.7071,0.7071,-190.8213,512.829)"
           class="noFillSVG"
           width="539.40002"
           height="539.40002"
           id="rect29"
           style="fill:none" /><path
           class="noFillSVG"
           d="m 951.4,490.4 -0.6,0.6 c 0.3,-0.1 0.6,-0.2 0.8,-0.2 0,0 -0.1,-0.1 -0.1,-0.1 0,-0.1 -0.1,-0.2 -0.1,-0.3 z"
           id="path31"
           inkscape:connector-curvature="0"
           style="fill:none" /><path
           class="noFillSVG"
           d="m 309,265.7 c 0,0.1 0.1,0.1 0.1,0.2 0,-0.1 0,-0.1 0,-0.2 0,0 0,0 -0.1,0 z"
           id="path33"
           inkscape:connector-curvature="0"
           style="fill:none" /><path
           class="noFillSVG"
           d="m 265.6,228.1 c -0.4,5.1 4.1,10.9 7.7,14 3.9,3.4 8.4,6.2 12.8,8.9 7,4.2 14.6,6.9 21.9,10.3 -5.1,-10.9 -10.3,-22.2 -18.1,-31.4 -4.7,-5.5 -23.1,-17 -24.3,-1.8 z m 9.5,6.1 c -2.5,0 -4.6,-2.1 -4.6,-4.6 0,-2.5 2.1,-4.6 4.6,-4.6 2.5,0 4.6,2.1 4.6,4.6 0,2.5 -2.1,4.6 -4.6,4.6 z"
           id="path35"
           inkscape:connector-curvature="0"
           style="fill:none" /><path
           class="noFillSVG"
           d="m 785.2,226.7 c -5.1,-0.4 -10.9,4.1 -14,7.7 -3.4,3.9 -6.2,8.4 -8.9,12.8 -4.2,7 -6.9,14.6 -10.3,21.9 10.9,-5.1 22.2,-10.3 31.4,-18.1 5.5,-4.7 17,-23.1 1.8,-24.3 z m -6.1,9.5 c 0,-2.5 2.1,-4.6 4.6,-4.6 2.5,0 4.6,2.1 4.6,4.6 0,2.5 -2.1,4.6 -4.6,4.6 -2.5,0 -4.6,-2.1 -4.6,-4.6 z"
           id="path37"
           inkscape:connector-curvature="0"
           style="fill:none" /><path
           class="noFillSVG"
           d="m 747.6,270.1 c -0.1,0 -0.1,0.1 -0.2,0.1 0.1,0 0.1,0 0.2,0 -0.1,0 -0.1,0 0,-0.1 z"
           id="path39"
           inkscape:connector-curvature="0"
           style="fill:none" /><path
           class="noFillSVG"
           d="m 267.2,747.2 c 5.1,0.4 10.9,-4.1 14,-7.7 3.4,-3.9 6.2,-8.4 8.9,-12.8 4.2,-7 6.9,-14.6 10.3,-21.9 -10.9,5.1 -22.2,10.3 -31.4,18.1 -5.5,4.7 -17,23.1 -1.8,24.3 z m 6.1,-9.5 c 0,2.5 -2.1,4.6 -4.6,4.6 -2.5,0 -4.6,-2.1 -4.6,-4.6 0,-2.5 2.1,-4.6 4.6,-4.6 2.5,0 4.6,2.1 4.6,4.6 z"
           id="path41"
           inkscape:connector-curvature="0"
           style="fill:none" /><path
           class="noFillSVG"
           d="m 786.1,745.6 c 0.4,-5.1 -4.1,-10.9 -7.7,-14 -3.9,-3.4 -8.4,-6.2 -12.8,-8.9 -7,-4.2 -14.6,-6.9 -21.9,-10.3 5.1,10.9 10.3,22.2 18.1,31.4 4.6,5.5 23,17 24.3,1.8 z m -9.6,-6.2 c 2.5,0 4.6,2.1 4.6,4.6 0,2.5 -2.1,4.6 -4.6,4.6 -2.5,0 -4.6,-2.1 -4.6,-4.6 0,-2.5 2.1,-4.6 4.6,-4.6 z"
           id="path43"
           inkscape:connector-curvature="0"
           style="fill:none" /><path
           class="noFillSVG"
           d="m 742.6,707.9 c 0,-0.1 -0.1,-0.1 -0.1,-0.2 0,0.1 0,0.1 0,0.2 0,0 0.1,0 0.1,0 z"
           id="path45"
           inkscape:connector-curvature="0"
           style="fill:none" /><path
           class="noFillSVG"
           d="m 304.8,703.8 c 0.1,0 0.1,-0.1 0.2,-0.1 -0.1,0 -0.1,0 -0.2,0 0.1,0 0,0 0,0.1 z"
           id="path47"
           inkscape:connector-curvature="0"
           style="fill:none" /><path
           class="st1"
           d="m 724.8,124.8 c 0.2,4.3 3.5,7.9 7.9,7.9 4.1,0 8.1,-3.6 7.9,-7.9 -0.2,-4.3 -3.5,-7.9 -7.9,-7.9 -4.2,0 -8.1,3.6 -7.9,7.9 z"
           id="path49"
           inkscape:connector-curvature="0"
           style="fill:#b9921d" /><path
           class="st1"
           d="m 731.1,109.5 c 8.6,0 8.6,-13.3 0,-13.3 -8.6,0 -8.6,13.3 0,13.3 z"
           id="path51"
           inkscape:connector-curvature="0"
           style="fill:#b9921d" /><path
           class="st1"
           d="m 728.7,88.7 c 1.5,0 3,-0.8 3.7,-2.1 1.1,-1.8 0.5,-3.7 -0.7,-5.2 -0.1,-0.1 -0.1,-0.1 -0.2,-0.2 -1.2,-1.6 -4.5,-1.6 -5.7,0 -0.1,0.1 -0.1,0.1 -0.2,0.2 -1.1,1.4 -1.6,3 -0.9,4.7 0.8,1.5 2.3,2.6 4,2.6 z"
           id="path53"
           inkscape:connector-curvature="0"
           style="fill:#b9921d" /><path
           class="st1"
           d="m 891.9,290.6 c 9.4,0 9.4,-14.6 0,-14.6 -9.3,0 -9.3,14.6 0,14.6 z"
           id="path55"
           inkscape:connector-curvature="0"
           style="fill:#b9921d" /><path
           class="st1"
           d="m 915.5,287.6 c 7.5,0 7.5,-11.7 0,-11.7 -7.5,0 -7.6,11.7 0,11.7 z"
           id="path57"
           inkscape:connector-curvature="0"
           style="fill:#b9921d" /><path
           class="st1"
           d="m 937.5,285.6 c 3,0 5.9,-3.2 4.8,-6.3 -0.1,-0.2 -0.1,-0.3 -0.2,-0.5 -1.7,-4.5 -7.5,-4.5 -9.2,0 -0.1,0.2 -0.1,0.3 -0.2,0.5 -1.2,3.1 1.7,6.3 4.8,6.3 z"
           id="path59"
           inkscape:connector-curvature="0"
           style="fill:#b9921d" /><circle
           class="st1"
           cx="783.70001"
           cy="236.2"
           r="4.5999999"
           id="circle61"
           style="fill:#b9921d" /><path
           class="st1"
           d="m 769.2,213.8 c -1,1.3 -1.1,3.1 -0.6,4.7 1.3,3.9 6.7,3.9 8,0 0.5,-1.5 0.4,-3.3 -0.6,-4.7 -1.7,-2.5 -4.9,-2.5 -6.8,0 z"
           id="path63"
           inkscape:connector-curvature="0"
           style="fill:#b9921d" /><path
           class="st1"
           d="m 785.1,213.5 c 0.1,2.6 2.1,4.8 4.8,4.8 2.5,0 4.9,-2.2 4.8,-4.8 -0.1,-2.6 -2.1,-4.8 -4.8,-4.8 -2.5,0 -4.9,2.2 -4.8,4.8 z"
           id="path65"
           inkscape:connector-curvature="0"
           style="fill:#b9921d" /><path
           class="st1"
           d="m 804.1,217 c -5.5,0 -5.5,8.6 0,8.6 5.5,0 5.5,-8.6 0,-8.6 z"
           id="path67"
           inkscape:connector-curvature="0"
           style="fill:#b9921d" /><path
           class="st1"
           d="m 810.7,237 c 0,-0.1 0,-0.3 0,-0.4 0.1,-4.6 -7.1,-4.6 -7.1,0 0,0.1 0,0.3 0,0.4 0.1,4.5 7.1,4.5 7.1,0 z"
           id="path69"
           inkscape:connector-curvature="0"
           style="fill:#b9921d" /><path
           class="st1"
           d="m 801.7,252 c 4.2,0 4.2,-6.5 0,-6.5 -4.2,0 -4.2,6.5 0,6.5 z"
           id="path71"
           inkscape:connector-curvature="0"
           style="fill:#b9921d" /><path
           class="st1"
           d="m 982.3,489.7 c 2.1,-1.8 4,-3.4 2,-6.2 -1.3,-1.9 -3.4,-3.2 -5.3,-4.6 -0.4,-0.3 -0.9,-0.7 -1.4,-1 1.8,-2 3.1,-4.5 3.7,-7.5 1.8,-8.1 -2.1,-17.1 -10.9,-18.6 -6.2,-1.1 -13.4,1.6 -14.2,8.5 -0.2,1.5 1.6,3.3 3.1,3.1 5.1,-0.6 7,3.7 6.4,8.6 -0.4,2.8 -2.6,5.4 -4.9,6.9 -4.4,2.9 -8.8,1.4 -13.4,0.5 l -199.7,-200 c 4.3,1.2 9.4,0.3 13.8,0.3 0.8,0 1.7,0.1 2.5,0.1 6.3,0.8 12.8,0.9 19.1,0.9 2.8,0.1 5.6,0.2 8.4,0.1 0.1,0 0.1,0 0.2,0 0.2,0 0.4,0 0.5,0 28.8,0.6 62.2,0.2 83.9,22.5 6.8,7 11.5,16.3 11.5,26 -0.1,18.3 -18.1,30.6 -35.2,24.3 -6.6,-2.4 -12.1,-7.2 -16,-13 -1.6,-2.4 -2.9,-5.2 -2.4,-8 0.8,-4.1 5.1,-4.5 8.5,-4.4 3.8,0.1 7.1,1.1 10,3.5 2.1,1.7 4.6,6.6 6.8,2.1 10.3,-21.8 -22.6,-32 -31.1,-10.6 -10.8,27.4 30.2,48.2 51,34.3 26.6,-17.7 14.8,-56.1 -6,-72.8 -2.9,-2.3 -5.9,-4.3 -9.1,-6 14.6,-3 28,-11.2 35.4,-25 9.6,-17.9 3.7,-42.5 -16,-50.6 -15.7,-6.4 -37.9,2.2 -36.9,21.6 0.9,15.7 23.4,27.2 31.2,9.9 0.9,-1.9 -0.4,-5.5 -2.9,-5.1 -0.8,0.1 -1.5,0.5 -2.3,0.7 -5.1,1.2 -13.3,-3.2 -14.5,-8.5 -1.8,-8.3 10.9,-11.5 16.9,-10.6 16.3,2.5 21.4,20.9 16.7,34.9 -6.8,20.2 -27.4,25.9 -46.6,24.8 -19.7,-1.1 -39.2,-1.6 -58.9,-0.7 -7.7,0.4 -15.6,-0.2 -23.4,-0.4 10,-4.9 20,-10.4 27.3,-18 6.5,-6.9 11.9,-20.7 3.1,-28.1 -18.7,-15.8 -39.8,22.6 -44.8,42.2 0.9,-15.3 -4.4,-68.2 -4.9,-74.3 -1.2,-16.1 1.8,-34.1 9.7,-48.3 4.9,-8.9 12.7,-19.9 23.7,-21.2 9.9,-1.2 19.3,5.6 24.7,13.4 3.4,4.9 5.1,11.2 4.2,17.1 -1,6.8 -7.1,13.8 -13.3,16.5 -7.3,3.2 -11.9,-2.2 -12.7,-9.1 -0.2,-1.9 2.5,-15.5 -2.1,-13.2 -15.4,8 -6.8,29.1 7.4,33 23,6.3 40.2,-19.1 34.5,-39.6 -6.3,-23 -32.3,-33.2 -53.8,-25.8 -14.9,5.1 -23.6,19.5 -27.4,35 -0.7,2 -1.3,3.9 -1.7,5.7 -0.1,0.4 -0.2,0.8 -0.3,1.3 -2.5,-7.5 -6.1,-14.5 -11.3,-20.6 -18.7,-22 -71.6,-25.3 -76.1,10.8 -1.8,14.4 4.7,30.8 15.5,40.6 10.1,9.1 28,13.7 38.2,1.9 19.4,-22.6 -25.6,-57.9 -35,-29.5 -0.5,1.4 1.5,2.1 2.3,1 7.5,-10.8 21.1,-2.1 23.3,8.3 0.4,2.1 0.5,4.3 -0.3,6.3 -5.9,16 -30.7,-4.7 -34.5,-12.4 -3.7,-7.4 -3.8,-16.8 0.6,-23.9 6.4,-10.5 20.2,-13.9 31.7,-12.9 18.3,1.5 32.5,16.9 38.7,33.3 3.9,10.4 3.3,21.4 3.5,32.4 0.2,13.4 2.2,26.8 2.2,40 0,13.2 0.9,26.8 4.6,39.6 l -205,-205 c 1,-1.4 0.6,-1.9 0.3,-3.7 -0.5,-3.3 -0.2,-6.8 0.8,-10 0.8,-2.8 2,-6.7 4.8,-8.1 2.4,-1.2 5.7,-1.5 7.1,1.2 2.9,5.6 11.4,2.8 11.4,-3.1 0.1,-13.9 -17.7,-15.7 -26.3,-8.2 -0.2,0.2 -0.4,0.4 -0.7,0.6 0.8,-0.8 -2.2,-4.1 -2.6,-4.7 -1.8,-2.1 -3.4,-4 -6.2,-2 -1.9,1.3 -3.2,3.4 -4.6,5.3 -0.3,0.4 -0.7,0.9 -1,1.4 -2,-1.8 -4.5,-3.1 -7.5,-3.7 -8.1,-1.8 -17.1,2.1 -18.6,10.9 -1.1,6.2 1.6,13.4 8.5,14.2 1.5,0.2 3.3,-1.6 3.1,-3.1 -0.6,-5.1 3.7,-7 8.6,-6.4 2.8,0.4 5.4,2.6 6.9,4.9 2.9,4.4 1.4,8.9 0.4,13.5 L 318.2,266 c 1.4,-4.3 0.4,-9.6 0.5,-14.2 0,-0.8 0.1,-1.7 0.1,-2.5 0.8,-6.3 0.9,-12.8 0.9,-19.1 0.1,-2.8 0.2,-5.6 0.1,-8.4 0,-0.1 0,-0.1 0,-0.2 0,-0.2 0,-0.4 0,-0.5 0.6,-28.8 0.2,-62.2 22.5,-83.9 7,-6.8 16.3,-11.5 26,-11.5 18.3,0.1 30.6,18.1 24.3,35.2 -2.4,6.6 -7.2,12.1 -13,16 -2.4,1.6 -5.2,2.9 -8,2.4 -4.1,-0.8 -4.5,-5.1 -4.4,-8.5 0.1,-3.8 1.1,-7.1 3.5,-10 1.7,-2.1 6.6,-4.6 2.1,-6.8 -21.8,-10.3 -32,22.6 -10.6,31.1 27.4,10.8 48.2,-30.2 34.3,-51 -17.7,-26.6 -56.1,-14.8 -72.8,6 -2.3,2.9 -4.3,5.9 -6,9.1 -3,-14.6 -11.2,-28 -25,-35.4 -17.9,-9.6 -42.5,-3.7 -50.6,16 -6.4,15.7 2.2,37.9 21.6,36.9 15.7,-0.9 27.2,-23.4 9.9,-31.2 -1.9,-0.9 -5.5,0.4 -5.1,2.9 0.1,0.8 0.5,1.5 0.7,2.3 1.2,5.1 -3.2,13.3 -8.5,14.5 -8.3,1.8 -11.5,-10.9 -10.6,-16.9 2.5,-16.3 20.9,-21.4 34.9,-16.7 20.2,6.8 25.9,27.4 24.8,46.6 -1.1,19.7 -1.6,39.2 -0.7,58.9 0.4,7.7 -0.2,15.6 -0.4,23.4 -4.9,-10 -10.4,-20 -18,-27.3 -6.9,-6.5 -20.7,-11.9 -28.1,-3.1 -15.8,18.7 22.6,39.8 42.2,44.8 -15.3,-0.9 -68.2,4.4 -74.3,4.9 -16.1,1.2 -34.1,-1.8 -48.3,-9.7 -8.9,-4.9 -19.9,-12.7 -21.2,-23.7 -1.2,-9.9 5.6,-19.3 13.4,-24.7 4.9,-3.4 11.2,-5.1 17.1,-4.2 6.8,1 13.8,7.1 16.5,13.3 3.2,7.3 -2.2,11.9 -9.1,12.7 -1.9,0.2 -15.5,-2.5 -13.2,2.1 8,15.4 29.1,6.8 33,-7.4 6.3,-23 -19.1,-40.2 -39.6,-34.5 -23,6.3 -33.2,32.3 -25.8,53.8 5.1,14.9 19.5,23.6 35,27.4 2,0.7 3.9,1.3 5.7,1.7 0.4,0.1 0.8,0.2 1.3,0.3 -7.5,2.5 -14.5,6.1 -20.6,11.3 -22,18.7 -25.3,71.6 10.8,76.1 14.4,1.8 30.8,-4.7 40.6,-15.5 9.1,-10.1 13.7,-28 1.9,-38.2 -22.6,-19.4 -57.9,25.6 -29.5,35 1.4,0.5 2.1,-1.5 1,-2.3 -10.8,-7.5 -2.1,-21.1 8.3,-23.3 2.1,-0.4 4.3,-0.5 6.3,0.3 16,5.9 -4.7,30.7 -12.4,34.5 -7.4,3.7 -16.8,3.8 -23.9,-0.6 -10.5,-6.4 -13.9,-20.2 -12.9,-31.7 1.5,-18.3 16.9,-32.5 33.3,-38.7 10.4,-3.9 21.4,-3.3 32.4,-3.5 13.4,-0.2 26.8,-2.2 40,-2.2 13.3,0 27.1,-0.9 39.9,-4.7 L 105.4,478.8 c -1.5,-1.1 -2,-0.7 -3.8,-0.4 -3.3,0.5 -6.8,0.2 -10,-0.8 -2.8,-0.8 -6.7,-2 -8.1,-4.8 -1.2,-2.4 -1.5,-5.7 1.2,-7.1 5.6,-2.9 2.8,-11.4 -3.1,-11.4 -13.9,-0.1 -15.7,17.7 -8.2,26.3 0.2,0.2 0.4,0.4 0.6,0.7 -0.8,-0.8 -4.1,2.2 -4.7,2.6 -2.1,1.8 -4,3.4 -2,6.2 1.3,1.9 3.4,3.2 5.3,4.6 0.4,0.3 0.9,0.7 1.4,1 -1.8,2 -3.1,4.5 -3.7,7.5 -1.8,8.1 2.1,17.1 10.9,18.6 6.2,1.1 13.4,-1.6 14.2,-8.5 0.2,-1.5 -1.6,-3.3 -3.1,-3.1 -5.1,0.6 -7,-3.7 -6.4,-8.6 0.4,-2.8 2.6,-5.4 4.9,-6.9 4.7,-3.1 9.5,-1.2 14.5,-0.3 l 200,200 c -4.4,-1.5 -9.7,-0.5 -14.3,-0.5 -0.8,0 -1.7,-0.1 -2.5,-0.1 -6.3,-0.8 -12.8,-0.9 -19.1,-0.9 -2.8,-0.1 -5.6,-0.2 -8.4,-0.1 -0.1,0 -0.1,0 -0.2,0 -0.2,0 -0.4,0 -0.5,0 -28.8,-0.6 -62.2,-0.2 -83.9,-22.5 -6.8,-7 -11.5,-16.3 -11.5,-26 0.1,-18.3 18.1,-30.6 35.2,-24.3 6.6,2.4 12.1,7.2 16,13 1.6,2.4 2.9,5.2 2.4,8 -0.8,4.1 -5.1,4.5 -8.5,4.4 -3.8,-0.1 -7.1,-1.1 -10,-3.5 -2.1,-1.7 -4.6,-6.6 -6.8,-2.1 -10.3,21.8 22.6,32 31.1,10.6 10.8,-27.4 -30.2,-48.2 -51,-34.3 -26.6,17.7 -14.8,56.1 6,72.8 2.9,2.3 5.9,4.3 9.1,6 -14.6,3 -28,11.2 -35.4,25 -9.6,17.9 -3.7,42.5 16,50.6 15.7,6.4 37.9,-2.2 36.9,-21.6 -0.9,-15.7 -23.4,-27.2 -31.2,-9.9 -0.9,1.9 0.4,5.5 2.9,5.1 0.8,-0.1 1.5,-0.5 2.3,-0.7 5.1,-1.2 13.3,3.2 14.5,8.5 1.8,8.3 -10.9,11.5 -16.9,10.6 -16.3,-2.5 -21.4,-20.9 -16.7,-34.9 6.8,-20.2 27.4,-25.9 46.6,-24.8 19.7,1.1 39.2,1.6 58.9,0.7 7.7,-0.4 15.6,0.2 23.4,0.4 -10,4.9 -20,10.4 -27.3,18 -6.5,6.9 -11.9,20.7 -3.1,28.1 18.7,15.8 39.8,-22.6 44.8,-42.2 -0.9,15.3 4.4,68.2 4.9,74.3 1.2,16.1 -1.8,34.1 -9.7,48.3 -4.9,8.9 -12.7,19.9 -23.7,21.2 -9.9,1.2 -19.3,-5.6 -24.7,-13.4 -3.4,-4.9 -5.1,-11.2 -4.2,-17.1 1,-6.8 7.1,-13.8 13.3,-16.5 7.3,-3.2 11.9,2.2 12.7,9.1 0.2,1.9 -2.5,15.5 2.1,13.2 15.4,-8 6.8,-29.1 -7.4,-33 -23,-6.3 -40.2,19.1 -34.5,39.6 6.3,23 32.3,33.2 53.8,25.8 14.9,-5.1 23.6,-19.5 27.4,-35 0.7,-2 1.3,-3.9 1.7,-5.7 0.1,-0.4 0.2,-0.8 0.3,-1.3 2.5,7.5 6.1,14.5 11.3,20.6 18.7,22 71.6,25.3 76.1,-10.8 1.8,-14.4 -4.7,-30.8 -15.5,-40.6 -10.1,-9.1 -28,-13.7 -38.2,-1.9 -19.4,22.6 25.6,57.9 35,29.5 0.5,-1.4 -1.5,-2.1 -2.3,-1 -7.5,10.8 -21.1,2.1 -23.3,-8.3 -0.4,-2.1 -0.5,-4.3 0.3,-6.3 5.9,-16 30.7,4.7 34.5,12.4 3.7,7.4 3.8,16.8 -0.6,23.9 -6.4,10.5 -20.2,13.9 -31.7,12.9 -18.3,-1.5 -32.5,-16.9 -38.7,-33.3 -3.9,-10.4 -3.3,-21.4 -3.5,-32.4 -0.2,-13.4 -2.2,-26.8 -2.2,-40 0,-13.4 -0.9,-27.2 -4.7,-40.1 L 518,907.4 c 0,0 0,0 0,0 -1.2,1.5 -0.7,2 -0.4,3.9 0.5,3.3 0.2,6.8 -0.8,10 -0.8,2.8 -2,6.7 -4.8,8.1 -2.4,1.2 -5.7,1.5 -7.1,-1.2 -2.9,-5.6 -11.4,-2.8 -11.4,3.1 -0.1,13.9 17.7,15.7 26.3,8.2 0.2,-0.2 0.4,-0.4 0.7,-0.6 -0.8,0.8 2.2,4.1 2.6,4.7 1.8,2.1 3.4,4 6.2,2 1.9,-1.3 3.2,-3.4 4.6,-5.3 0.3,-0.4 0.7,-0.9 1,-1.4 2,1.8 4.5,3.1 7.5,3.7 8.1,1.8 17.1,-2.1 18.6,-10.9 1.1,-6.2 -1.6,-13.4 -8.5,-14.2 -1.5,-0.2 -3.3,1.6 -3.1,3.1 0.6,5.1 -3.7,7 -8.6,6.4 -2.8,-0.4 -5.4,-2.6 -6.9,-4.9 -3,-4.5 -1.3,-9.1 -0.4,-13.8 L 733,708.8 c -1,4.1 -0.1,8.9 -0.2,13.1 0,0.8 -0.1,1.7 -0.1,2.5 -0.8,6.3 -0.9,12.8 -0.9,19.1 -0.1,2.8 -0.2,5.6 -0.1,8.4 0,0.1 0,0.1 0,0.2 0,0.2 0,0.4 0,0.5 -0.6,28.8 -0.2,62.2 -22.5,83.9 -7,6.8 -16.3,11.5 -26,11.5 -18.3,-0.1 -30.6,-18.1 -24.3,-35.2 2.4,-6.6 7.2,-12.1 13,-16 2.4,-1.6 5.2,-2.9 8,-2.4 4.1,0.8 4.5,5.1 4.4,8.5 -0.1,3.8 -1.1,7.1 -3.5,10 -1.7,2.1 -6.6,4.6 -2.1,6.8 21.8,10.3 32,-22.6 10.6,-31.1 -27.4,-10.8 -48.2,30.2 -34.3,51 17.7,26.6 56.1,14.8 72.8,-6 2.3,-2.9 4.3,-5.9 6,-9.1 3,14.6 11.2,28 25,35.4 17.9,9.6 42.5,3.7 50.6,-16 6.4,-15.7 -2.2,-37.9 -21.6,-36.9 -15.7,0.9 -27.2,23.4 -9.9,31.2 1.9,0.9 5.5,-0.4 5.1,-2.9 -0.1,-0.8 -0.5,-1.5 -0.7,-2.3 -1.2,-5.1 3.2,-13.3 8.5,-14.5 8.3,-1.8 11.5,10.9 10.6,16.9 -2.5,16.3 -20.9,21.4 -34.9,16.7 -20.2,-6.8 -25.9,-27.4 -24.8,-46.6 1.1,-19.7 1.6,-39.2 0.7,-58.9 -0.4,-7.7 0.2,-15.6 0.4,-23.4 4.9,10 10.4,20 18,27.3 6.9,6.5 20.7,11.9 28.1,3.1 15.8,-18.7 -22.6,-39.8 -42.2,-44.8 15.3,0.9 68.2,-4.4 74.3,-4.9 16.1,-1.2 34.1,1.8 48.3,9.7 8.9,4.9 19.9,12.7 21.2,23.7 1.2,9.9 -5.6,19.3 -13.4,24.7 -4.9,3.4 -11.2,5.1 -17.1,4.2 -6.8,-1 -13.8,-7.1 -16.5,-13.3 -3.2,-7.3 2.2,-11.9 9.1,-12.7 1.9,-0.2 15.5,2.5 13.2,-2.1 -8,-15.4 -29.1,-6.8 -33,7.4 -6.3,23 19.1,40.2 39.6,34.5 23,-6.3 33.2,-32.3 25.8,-53.8 -5.1,-14.9 -19.5,-23.6 -35,-27.4 -2,-0.7 -3.9,-1.3 -5.7,-1.7 -0.4,-0.1 -0.8,-0.2 -1.3,-0.3 7.5,-2.5 14.5,-6.1 20.6,-11.3 22,-18.7 25.3,-71.6 -10.8,-76.1 -14.4,-1.8 -30.8,4.7 -40.6,15.5 -9.1,10.1 -13.7,28 -1.9,38.2 22.6,19.4 57.9,-25.6 29.5,-35 -1.4,-0.5 -2.1,1.5 -1,2.3 10.8,7.5 2.1,21.1 -8.3,23.3 -2.1,0.4 -4.3,0.5 -6.3,-0.3 -16,-5.9 4.7,-30.7 12.4,-34.5 7.4,-3.7 16.8,-3.8 23.9,0.6 10.5,6.4 13.9,20.2 12.9,31.7 -1.5,18.3 -16.9,32.5 -33.3,38.7 -10.4,3.9 -21.4,3.3 -32.4,3.5 -13.4,0.2 -26.8,2.2 -40,2.2 -12.9,0 -26.3,0.8 -38.8,4.3 L 946.6,495.4 c 1.1,0.7 1.7,0.3 3.3,0.1 3.3,-0.5 6.8,-0.2 10,0.8 2.8,0.8 6.7,2 8.1,4.8 1.2,2.4 1.5,5.7 -1.2,7.1 -5.6,2.9 -2.8,11.4 3.1,11.4 13.9,0.1 15.7,-17.7 8.2,-26.3 -0.2,-0.2 -0.4,-0.4 -0.6,-0.7 0.9,0.5 4.2,-2.4 4.8,-2.9 z m -220,-242.5 c 2.6,-4.5 5.5,-8.9 8.9,-12.8 3.1,-3.6 8.9,-8.1 14,-7.7 15.2,1.3 3.7,19.7 -1.8,24.3 -9.2,7.8 -20.5,13 -31.4,18.1 3.4,-7.3 6.1,-14.9 10.3,-21.9 z M 286.1,251 c -4.5,-2.6 -8.9,-5.5 -12.8,-8.9 -3.6,-3.1 -8.1,-8.9 -7.7,-14 1.3,-15.2 19.7,-3.7 24.3,1.8 7.8,9.2 13,20.5 18.1,31.4 -7.3,-3.4 -14.9,-6.2 -21.9,-10.3 z m 22.9,14.7 c 0,0 0.1,0 0.1,0 0,0.1 0,0.1 0,0.2 0.1,-0.1 0,-0.1 -0.1,-0.2 z m -18.9,461 c -2.6,4.5 -5.5,8.9 -8.9,12.8 -3.1,3.6 -8.9,8.1 -14,7.7 -15.2,-1.3 -3.7,-19.7 1.8,-24.3 9.2,-7.8 20.5,-13 31.4,-18.1 -3.4,7.3 -6.2,14.9 -10.3,21.9 z m 14.7,-22.9 c 0,0 0,-0.1 0,-0.1 0.1,0 0.1,0 0.2,0 0,0 -0.1,0 -0.2,0.1 z m 460.7,18.9 c 4.5,2.6 8.9,5.5 12.8,8.9 3.6,3.1 8.1,8.9 7.7,14 -1.3,15.2 -19.7,3.7 -24.3,-1.8 -7.8,-9.2 -13,-20.5 -18.1,-31.4 7.3,3.4 14.9,6.1 21.9,10.3 z m -22.9,-14.8 c 0,0 -0.1,0 -0.1,0 0,-0.1 0,-0.1 0,-0.2 0,0.1 0.1,0.1 0.1,0.2 z m 5,-437.8 c 0,0 0,0.1 0,0.1 -0.1,0 -0.1,0 -0.2,0 0,0 0.1,0 0.2,-0.1 z M 529.9,61.4 c 0.2,-0.1 0.3,-0.1 0.5,-0.2 0,0 0.1,-0.1 0.1,-0.1 0.1,0.5 0.3,1.1 0.4,1.6 l -1.3,-1.3 c 0.1,0 0.2,0 0.3,0 z m -6.5,-1.1 c 0.2,0 0.4,0 0.6,-0.1 0.1,-0.1 0.2,-0.1 0.3,-0.2 l -1.2,1.2 c 0,-0.3 0.2,-0.6 0.3,-0.9 z m -421.4,422 -1.6,1.6 c 0,-0.1 0,-0.3 -0.1,-0.4 -0.1,-0.2 -0.1,-0.3 -0.2,-0.5 0,0 -0.1,-0.1 -0.1,-0.1 0.7,-0.3 1.3,-0.4 2,-0.6 z m -2.8,7.6 c 0,-0.2 0,-0.4 -0.1,-0.6 -0.2,-0.4 -0.5,-0.8 -0.7,-1.3 0,-0.1 0,-0.2 0,-0.4 l 3,3 c -0.8,-0.2 -1.5,-0.5 -2.2,-0.7 z m 423.3,422.6 c -0.2,0.1 -0.3,0.1 -0.5,0.2 0,0 -0.1,0.1 -0.1,0.1 -0.2,-0.7 -0.4,-1.4 -0.6,-2.1 l 1.7,1.7 c -0.1,0 -0.3,0 -0.5,0.1 z m 3,2.5 c 0,0 0,-0.1 0,-0.1 l 0,0.1 c 0.1,0 0,0 0,0 z m 3.5,-1.4 c -0.2,0 -0.4,0 -0.6,0.1 -0.3,0.1 -0.6,0.3 -0.8,0.4 l 1.9,-1.9 c -0.1,0.6 -0.3,1 -0.5,1.4 z M 526.2,911.2 101.9,486.8 526.2,62.4 950.6,486.8 526.2,911.2 Z m 424.6,-420.1 0.6,-0.6 c 0,0.1 0.1,0.2 0.1,0.3 0,0 0.1,0.1 0.1,0.1 -0.3,0 -0.6,0.1 -0.8,0.2 z m 0.8,-7.7 c 0.3,0.1 0.5,0.2 0.8,0.3 0,0.2 0,0.4 0.1,0.6 0,0.1 0.1,0.1 0.1,0.2 l -1,-1.1 z"
           id="path73"
           inkscape:connector-curvature="0"
           style="fill:#b9921d" /><path
           class="st1"
           d="m 880.1,693 c 0,4.1 3.6,8.1 7.9,7.9 4.3,-0.2 7.9,-3.5 7.9,-7.9 0,-4.1 -3.6,-8.1 -7.9,-7.9 -4.3,0.2 -7.9,3.5 -7.9,7.9 z"
           id="path75"
           inkscape:connector-curvature="0"
           style="fill:#b9921d" /><path
           class="st1"
           d="m 903.3,691.4 c 0,8.6 13.3,8.6 13.3,0 0,-8.5 -13.3,-8.6 -13.3,0 z"
           id="path77"
           inkscape:connector-curvature="0"
           style="fill:#b9921d" /><path
           class="st1"
           d="m 931.4,686 c -1.4,-1.1 -3,-1.6 -4.7,-0.9 -1.6,0.7 -2.6,2.2 -2.6,3.9 0,1.5 0.8,3 2.1,3.7 1.8,1.1 3.7,0.5 5.2,-0.7 0.1,-0.1 0.1,-0.1 0.2,-0.2 1.6,-1.2 1.6,-4.5 0,-5.7 -0.1,0 -0.1,0 -0.2,-0.1 z"
           id="path79"
           inkscape:connector-curvature="0"
           style="fill:#b9921d" /><path
           class="st1"
           d="m 736.7,852.3 c 0,-9.4 -14.6,-9.4 -14.6,0 0,9.4 14.6,9.4 14.6,0 z"
           id="path81"
           inkscape:connector-curvature="0"
           style="fill:#b9921d" /><path
           class="st1"
           d="m 736.8,875.8 c 0,-7.5 -11.7,-7.5 -11.7,0 0,7.6 11.7,7.6 11.7,0 z"
           id="path83"
           inkscape:connector-curvature="0"
           style="fill:#b9921d" /><path
           class="st1"
           d="m 733.8,893.2 c -0.2,-0.1 -0.3,-0.1 -0.5,-0.2 -3.1,-1.1 -6.3,1.8 -6.3,4.8 0,3 3.2,5.9 6.3,4.8 0.2,-0.1 0.3,-0.1 0.5,-0.2 4.6,-1.7 4.6,-7.5 0,-9.2 z"
           id="path85"
           inkscape:connector-curvature="0"
           style="fill:#b9921d" /><circle
           class="st1"
           cx="776.5"
           cy="744"
           r="4.5999999"
           id="circle87"
           style="fill:#b9921d" /><path
           class="st1"
           d="m 798.9,736.4 c 2.5,-1.8 2.5,-5 0,-6.9 -1.3,-1 -3.1,-1.1 -4.7,-0.6 -3.9,1.3 -3.9,6.7 0,8 1.6,0.6 3.4,0.5 4.7,-0.5 z"
           id="path89"
           inkscape:connector-curvature="0"
           style="fill:#b9921d" /><path
           class="st1"
           d="m 799.3,755.1 c 2.6,-0.1 4.8,-2.1 4.8,-4.8 0,-2.5 -2.2,-4.9 -4.8,-4.8 -2.6,0.1 -4.8,2.1 -4.8,4.8 0,2.5 2.2,4.9 4.8,4.8 z"
           id="path91"
           inkscape:connector-curvature="0"
           style="fill:#b9921d" /><path
           class="st1"
           d="m 787.1,764.4 c 0,5.5 8.6,5.5 8.6,0 0,-5.5 -8.6,-5.5 -8.6,0 z"
           id="path93"
           inkscape:connector-curvature="0"
           style="fill:#b9921d" /><path
           class="st1"
           d="m 775.7,764 c -4.5,0.1 -4.6,7 0,7.1 0.1,0 0.3,0 0.4,0 4.6,0.1 4.6,-7.1 0,-7.1 -0.1,0 -0.2,0 -0.4,0 z"
           id="path95"
           inkscape:connector-curvature="0"
           style="fill:#b9921d" /><path
           class="st1"
           d="m 760.7,762 c 0,4.2 6.5,4.2 6.5,0 0,-4.1 -6.5,-4.1 -6.5,0 z"
           id="path97"
           inkscape:connector-curvature="0"
           style="fill:#b9921d" /><path
           class="st1"
           d="m 327.6,849.1 c -0.2,-4.3 -3.5,-7.9 -7.9,-7.9 -4.1,0 -8.1,3.6 -7.9,7.9 0.2,4.3 3.5,7.9 7.9,7.9 4.2,0 8.1,-3.6 7.9,-7.9 z"
           id="path99"
           inkscape:connector-curvature="0"
           style="fill:#b9921d" /><path
           class="st1"
           d="m 321.3,864.4 c -8.6,0 -8.6,13.3 0,13.3 8.6,0 8.6,-13.3 0,-13.3 z"
           id="path101"
           inkscape:connector-curvature="0"
           style="fill:#b9921d" /><path
           class="st1"
           d="m 323.7,885.2 c -1.5,0 -3,0.8 -3.7,2.1 -1.1,1.8 -0.5,3.7 0.7,5.2 0.1,0.1 0.1,0.1 0.2,0.2 1.2,1.6 4.5,1.6 5.7,0 0.1,-0.1 0.1,-0.1 0.2,-0.2 1.1,-1.4 1.6,-3 0.9,-4.7 -0.8,-1.5 -2.3,-2.6 -4,-2.6 z"
           id="path103"
           inkscape:connector-curvature="0"
           style="fill:#b9921d" /><path
           class="st1"
           d="m 160.5,683.3 c -9.4,0 -9.4,14.6 0,14.6 9.3,0 9.3,-14.6 0,-14.6 z"
           id="path105"
           inkscape:connector-curvature="0"
           style="fill:#b9921d" /><path
           class="st1"
           d="m 136.9,686.3 c -7.5,0 -7.5,11.7 0,11.7 7.5,0 7.6,-11.7 0,-11.7 z"
           id="path107"
           inkscape:connector-curvature="0"
           style="fill:#b9921d" /><path
           class="st1"
           d="m 114.9,688.3 c -3,0 -5.9,3.2 -4.8,6.3 0.1,0.2 0.1,0.3 0.2,0.5 1.7,4.5 7.5,4.5 9.2,0 0.1,-0.2 0.1,-0.3 0.2,-0.5 1.2,-3.1 -1.7,-6.3 -4.8,-6.3 z"
           id="path109"
           inkscape:connector-curvature="0"
           style="fill:#b9921d" /><circle
           class="st1"
           cx="268.70001"
           cy="737.70001"
           r="4.5999999"
           id="circle111"
           style="fill:#b9921d" /><path
           class="st1"
           d="m 283.2,760.1 c 1,-1.3 1.1,-3.1 0.6,-4.7 -1.3,-3.9 -6.7,-3.9 -8,0 -0.5,1.5 -0.4,3.3 0.6,4.7 1.7,2.5 4.9,2.5 6.8,0 z"
           id="path113"
           inkscape:connector-curvature="0"
           style="fill:#b9921d" /><path
           class="st1"
           d="m 267.2,760.4 c -0.1,-2.6 -2.1,-4.8 -4.8,-4.8 -2.5,0 -4.9,2.2 -4.8,4.8 0.1,2.6 2.1,4.8 4.8,4.8 2.6,0 5,-2.2 4.8,-4.8 z"
           id="path115"
           inkscape:connector-curvature="0"
           style="fill:#b9921d" /><path
           class="st1"
           d="m 248.3,756.9 c 5.5,0 5.5,-8.6 0,-8.6 -5.5,0 -5.5,8.6 0,8.6 z"
           id="path117"
           inkscape:connector-curvature="0"
           style="fill:#b9921d" /><path
           class="st1"
           d="m 241.7,736.9 c 0,0.1 0,0.3 0,0.4 -0.1,4.6 7.1,4.6 7.1,0 0,-0.1 0,-0.3 0,-0.4 -0.1,-4.5 -7.1,-4.5 -7.1,0 z"
           id="path119"
           inkscape:connector-curvature="0"
           style="fill:#b9921d" /><path
           class="st1"
           d="m 250.7,721.9 c -4.2,0 -4.2,6.5 0,6.5 4.2,0 4.2,-6.5 0,-6.5 z"
           id="path121"
           inkscape:connector-curvature="0"
           style="fill:#b9921d" /><path
           class="st1"
           d="m 171.6,280.6 c 0,-4.1 -3.6,-8.1 -7.9,-7.9 -4.3,0.2 -7.9,3.5 -7.9,7.9 0,4.1 3.6,8.1 7.9,7.9 4.3,-0.2 7.9,-3.5 7.9,-7.9 z"
           id="path123"
           inkscape:connector-curvature="0"
           style="fill:#b9921d" /><path
           class="st1"
           d="m 148.4,282.2 c 0,-8.6 -13.3,-8.6 -13.3,0 0,8.6 13.3,8.6 13.3,0 z"
           id="path125"
           inkscape:connector-curvature="0"
           style="fill:#b9921d" /><path
           class="st1"
           d="m 120.3,287.6 c 1.4,1.1 3,1.6 4.7,0.9 1.6,-0.7 2.6,-2.2 2.6,-3.9 0,-1.5 -0.8,-3 -2.1,-3.7 -1.8,-1.1 -3.7,-0.5 -5.2,0.7 -0.1,0.1 -0.1,0.1 -0.2,0.2 -1.6,1.2 -1.6,4.5 0,5.7 0,0 0.1,0 0.2,0.1 z"
           id="path127"
           inkscape:connector-curvature="0"
           style="fill:#b9921d" /><path
           class="st1"
           d="m 314.9,121.3 c 0,9.4 14.6,9.4 14.6,0 0,-9.3 -14.6,-9.3 -14.6,0 z"
           id="path129"
           inkscape:connector-curvature="0"
           style="fill:#b9921d" /><path
           class="st1"
           d="m 314.8,97.8 c 0,7.5 11.7,7.5 11.7,0 0,-7.5 -11.7,-7.5 -11.7,0 z"
           id="path131"
           inkscape:connector-curvature="0"
           style="fill:#b9921d" /><path
           class="st1"
           d="m 317.8,80.4 c 0.2,0.1 0.3,0.1 0.5,0.2 3.1,1.1 6.3,-1.8 6.3,-4.8 0,-3 -3.2,-5.9 -6.3,-4.8 -0.2,0.1 -0.3,0.1 -0.5,0.2 -4.5,1.7 -4.5,7.6 0,9.2 z"
           id="path133"
           inkscape:connector-curvature="0"
           style="fill:#b9921d" /><circle
           class="st1"
           cx="275.10001"
           cy="229.60001"
           r="4.5999999"
           id="circle135"
           style="fill:#b9921d" /><path
           class="st1"
           d="m 252.7,237.2 c -2.5,1.8 -2.5,5 0,6.9 1.3,1 3.1,1.1 4.7,0.6 3.9,-1.3 3.9,-6.7 0,-8 -1.5,-0.6 -3.3,-0.5 -4.7,0.5 z"
           id="path137"
           inkscape:connector-curvature="0"
           style="fill:#b9921d" /><path
           class="st1"
           d="m 252.4,218.6 c -2.6,0.1 -4.8,2.1 -4.8,4.8 0,2.5 2.2,4.9 4.8,4.8 2.6,-0.1 4.8,-2.1 4.8,-4.8 -0.1,-2.5 -2.3,-4.9 -4.8,-4.8 z"
           id="path139"
           inkscape:connector-curvature="0"
           style="fill:#b9921d" /><path
           class="st1"
           d="m 264.5,209.2 c 0,-5.5 -8.6,-5.5 -8.6,0 0,5.6 8.6,5.6 8.6,0 z"
           id="path141"
           inkscape:connector-curvature="0"
           style="fill:#b9921d" /><path
           class="st1"
           d="m 275.9,209.6 c 4.5,-0.1 4.6,-7 0,-7.1 -0.1,0 -0.3,0 -0.4,0 -4.6,-0.1 -4.6,7.1 0,7.1 0.1,0 0.3,0 0.4,0 z"
           id="path143"
           inkscape:connector-curvature="0"
           style="fill:#b9921d" /><path
           class="st1"
           d="m 290.9,211.6 c 0,-4.2 -6.5,-4.2 -6.5,0 0,4.1 6.5,4.2 6.5,0 z"
           id="path145"
           inkscape:connector-curvature="0"
           style="fill:#b9921d" /><path
           class="st1"
           d="M 137.8,486.8 523.7,872.7 909.6,486.8 523.6,100.9 137.8,486.8 Z M 523.6,868.2 142.2,486.8 523.6,105.4 905,486.8 523.6,868.2 Z"
           id="path147"
           inkscape:connector-curvature="0"
           style="fill:#b9921d" /></g></g></switch></svg>