<?xml version="1.0" encoding="UTF-8" standalone="no"?>
<svg
   xmlns:dc="http://purl.org/dc/elements/1.1/"
   xmlns:cc="http://creativecommons.org/ns#"
   xmlns:rdf="http://www.w3.org/1999/02/22-rdf-syntax-ns#"
   xmlns:svg="http://www.w3.org/2000/svg"
   xmlns="http://www.w3.org/2000/svg"
   xmlns:sodipodi="http://sodipodi.sourceforge.net/DTD/sodipodi-0.dtd"
   xmlns:inkscape="http://www.inkscape.org/namespaces/inkscape"
   version="1.1"
   id="Layer_1"
   x="0px"
   y="0px"
   viewBox="160.50001525878906 266.3000183105469 679 467.3999938964844"
   width="100%"
   height="100%"
   style="enable-background:new 0 0 1000 1000;"
   xml:space="preserve"
  ><style
     type="text/css"
     id="style3">
	.noFillSVG{fill:none;}
	.st1{fill:#B9921D;}
	.st2{fill:#FFFFFF;}
</style><switch
     id="switch5"
     transform="translate(-13.7,0)"><g
       id="g7"><g
         id="g9"><g
           id="g11"><path
             class="noFillSVG"
             d="m 811,452.3 0,96.5 c -1.4,0.4 -2.7,0.8 -4,1.2 -38.2,12.3 -70.9,43.3 -73.1,80.7 -0.1,1.3 -0.1,2.6 -0.1,3.9 l -103.4,0 c -21.4,35.9 -65,60.6 -115.2,60.6 -50.2,0 -93.8,-24.7 -115.2,-60.6 l -111.8,0 c 0,-1.3 -0.1,-2.6 -0.1,-3.9 -2.1,-35.6 -31.8,-65.4 -67.7,-78.8 -1.4,-0.5 -2.7,-1 -4.1,-1.4 l 0,-99.4 c 1.4,-0.4 2.7,-0.8 4.1,-1.2 38.2,-12.3 70.9,-43.3 73.1,-80.7 0.1,-1.3 0.1,-2.5 0.1,-3.8 l 103.4,0 c 21.4,-35.9 65,-60.6 115.2,-60.6 50.2,0 93.8,24.6 115.2,60.6 l 101.8,0 c 0,1.3 0.1,2.6 0.1,3.8 2.3,38.9 37.6,70.9 77.7,82.1 1.3,0.4 2.7,0.7 4,1 z"
             id="path13"
             inkscape:connector-curvature="0"
             style="fill:none" /><path
             class="st1"
             d="m 848.5,441.7 c -45.9,-13.4 -86.1,-51.7 -88.7,-98.3 -0.1,-1.5 -0.1,-3.1 -0.1,-4.6 l -116.3,0 c -24.4,-43 -74.2,-72.5 -131.5,-72.5 -57.3,0 -107,29.5 -131.5,72.5 l -118,0 c 0,1.5 -0.1,3.1 -0.2,4.6 -2.5,44.8 -39.8,81.9 -83.4,96.6 -1.5,0.5 -3.1,1 -4.6,1.5 l 0,119 c 1.5,0.5 3.1,1.1 4.6,1.7 40.9,16 74.9,51.7 77.2,94.4 0.1,1.5 0.2,3.1 0.2,4.6 l 127.8,0 c 24.4,43 74.2,72.5 131.5,72.5 57.3,0 107,-29.5 131.5,-72.5 l 118,0 c 0,-1.5 0.1,-3.1 0.2,-4.6 2.5,-44.8 39.8,-81.9 83.4,-96.6 1.5,-0.5 3.1,-1 4.6,-1.5 l 0,-115.5 c -1.7,-0.4 -3.2,-0.9 -4.7,-1.3 z m 0,113.5 c -46,15 -85.6,54.2 -88.1,101.4 l -116.2,0 c -0.8,1.5 -1.7,3.1 -2.6,4.6 -24.1,40.4 -71.6,67.9 -126.2,67.9 -54.6,0 -102.1,-27.5 -126.2,-67.9 -0.9,-1.5 -1.8,-3.1 -2.6,-4.6 l -125.7,0 c -2.4,-45 -38.6,-82.8 -81.9,-99.2 l 0,-112.6 c 46,-15.1 85.6,-54.2 88.1,-101.4 l 116.1,0 c 0.8,-1.5 1.7,-3.1 2.6,-4.6 24.1,-40.3 71.6,-67.9 126.1,-67.9 54.6,0 102.1,27.5 126.2,67.9 0.9,1.5 1.8,3.1 2.6,4.6 l 114.4,0 c 2.6,48.9 45.1,89.3 93.4,103 l 0,108.8 z"
             id="path15"
             inkscape:connector-curvature="0"
             style="fill:#b9921d" /><path
             class="st1"
             d="m 755.1,343.4 -114.4,0 c -0.8,-1.5 -1.7,-3.1 -2.6,-4.6 -24.1,-40.3 -71.6,-67.9 -126.2,-67.9 -54.6,0 -102.1,27.5 -126.1,67.9 -0.9,1.5 -1.8,3.1 -2.6,4.6 l -116.2,0 c -2.5,47.2 -42.1,86.3 -88.1,101.4 l 0,112.5 c 43.4,16.4 79.6,54.2 81.9,99.2 l 125.8,0 c 0.8,1.5 1.7,3.1 2.6,4.6 24.1,40.4 71.6,67.9 126.2,67.9 54.6,0 102.1,-27.5 126.2,-67.9 0.9,-1.5 1.8,-3.1 2.6,-4.6 l 116.1,0 c 2.5,-47.1 42.1,-86.3 88.1,-101.4 l 0,-108.7 c -48.2,-13.7 -90.7,-54 -93.3,-103 z M 811,548.9 c -1.4,0.4 -2.7,0.8 -4,1.2 -38.2,12.3 -70.9,43.3 -73.1,80.7 -0.1,1.3 -0.1,2.6 -0.1,3.9 l -103.4,0 c -21.4,35.9 -65,60.6 -115.2,60.6 -50.2,0 -93.8,-24.7 -115.2,-60.6 l -111.8,0 c 0,-1.3 -0.1,-2.6 -0.1,-3.9 -2.1,-35.6 -31.8,-65.4 -67.7,-78.8 -1.4,-0.5 -2.7,-1 -4.1,-1.4 l 0,-99.4 c 1.4,-0.4 2.7,-0.8 4.1,-1.2 38.2,-12.3 70.9,-43.3 73.1,-80.7 0.1,-1.3 0.1,-2.5 0.1,-3.8 l 103.4,0 c 21.4,-35.9 65,-60.6 115.2,-60.6 50.2,0 93.8,24.6 115.2,60.6 l 101.8,0 c 0,1.3 0.1,2.6 0.1,3.8 2.3,38.9 37.6,70.9 77.7,82.1 1.3,0.4 2.7,0.7 4,1 l 0,96.5 z"
             id="path17"
             inkscape:connector-curvature="0"
             style="fill:#b9921d" /></g><g
           id="g19"><path
             class="noFillSVG"
             d="m 725.2,369.2 -95.7,0 -4.5,0 c -0.7,-1.3 -1.5,-2.6 -2.3,-3.9 -21.1,-33.7 -62.7,-56.7 -110.5,-56.7 -47.8,0 -89.5,23 -110.5,56.7 -0.8,1.3 -1.6,2.5 -2.3,3.9 l -4.5,0 -97.2,0 c -2.2,39.4 -36.8,72.1 -77.2,84.7 l 0,94 c 38,13.7 69.7,45.3 71.8,82.9 l 105.7,0 4.5,0 c 0.7,1.3 1.5,2.6 2.3,3.9 21.1,33.7 62.7,56.7 110.5,56.7 47.8,0 89.5,-23 110.5,-56.7 0.8,-1.3 1.6,-2.5 2.3,-3.9 l 4.5,0 97.2,0 c 2.2,-39.4 36.8,-72.1 77.2,-84.7 l 0,-90.8 c -42.2,-11.5 -79.5,-45.2 -81.8,-86.1 z"
             id="path21"
             inkscape:connector-curvature="0"
             style="fill:none" /><path
             class="st1"
             d="m 807,451.3 c -40.2,-11.2 -75.4,-43.2 -77.7,-82.1 -0.1,-1.3 -0.1,-2.5 -0.1,-3.8 l -101.8,0 c -21.4,-35.9 -65,-60.6 -115.2,-60.6 -50.2,0 -93.8,24.6 -115.2,60.6 l -103.4,0 c 0,1.3 -0.1,2.6 -0.1,3.8 -2.2,37.4 -34.9,68.4 -73.1,80.7 -1.4,0.5 -2.7,0.8 -4.1,1.2 l 0,99.4 c 1.4,0.5 2.7,0.9 4.1,1.4 35.8,13.4 65.6,43.2 67.7,78.8 0.1,1.3 0.1,2.6 0.1,3.9 l 111.8,0 c 21.4,35.9 65,60.6 115.2,60.6 50.2,0 93.8,-24.7 115.2,-60.6 l 103.4,0 c 0,-1.3 0.1,-2.6 0.1,-3.9 2.2,-37.4 34.9,-68.4 73.1,-80.7 1.3,-0.4 2.7,-0.8 4,-1.2 l 0,-96.5 c -1.3,-0.3 -2.6,-0.6 -4,-1 z m 0,94.8 c -40.3,12.6 -75,45.3 -77.2,84.7 l -101.7,0 c -0.7,1.3 -1.5,2.6 -2.3,3.9 -21.1,33.7 -62.7,56.7 -110.6,56.7 -47.9,0 -89.5,-23 -110.5,-56.7 -0.8,-1.3 -1.6,-2.6 -2.3,-3.9 l -110.2,0 c -2.1,-37.6 -33.8,-69.2 -71.8,-82.9 l 0,-94 c 40.3,-12.6 75,-45.3 77.2,-84.7 l 101.7,0 c 0.7,-1.3 1.5,-2.6 2.3,-3.8 21.1,-33.7 62.7,-56.7 110.5,-56.7 47.8,0 89.5,23 110.6,56.7 0.8,1.3 1.6,2.5 2.3,3.8 l 100.2,0 c 2.3,40.9 39.6,74.6 81.8,86 l 0,90.9 z"
             id="path23"
             inkscape:connector-curvature="0"
             style="fill:#b9921d" /></g><g
           id="g25"><path
             class="noFillSVG"
             d="m 736.4,358.6 -100.7,0 -4.8,0 c -0.8,-1.4 -1.6,-2.8 -2.4,-4.2 -22.2,-36.4 -66,-61.3 -116.4,-61.3 -50.4,0 -94.2,24.9 -116.4,61.3 -0.8,1.4 -1.7,2.8 -2.4,4.2 l -4.8,0 -102.3,0 c -2.3,42.6 -38.8,78 -81.3,91.6 l 0,101.6 c 40,14.8 73.4,48.9 75.6,89.6 l 111.3,0 4.8,0 c 0.8,1.4 1.6,2.8 2.4,4.2 22.2,36.4 66,61.3 116.4,61.3 50.4,0 94.2,-24.9 116.4,-61.3 0.8,-1.4 1.7,-2.8 2.4,-4.2 l 4.8,0 102.3,0 c 2.3,-42.6 38.8,-77.9 81.3,-91.6 l 0,-98.2 c -44.6,-12.4 -83.8,-48.8 -86.2,-93 z"
             id="path27"
             inkscape:connector-curvature="0"
             style="fill:none" /><path
             class="st2"
             d="m 822.5,447.3 c -42.3,-12.1 -79.4,-46.7 -81.8,-88.7 -0.1,-1.4 -0.1,-2.7 -0.1,-4.1 l -107.2,0 C 610.8,315.6 565,289 512.1,289 c -52.9,0 -98.7,26.6 -121.3,65.5 l -108.8,0 c 0,1.4 -0.1,2.8 -0.1,4.1 -2.3,40.4 -36.7,73.9 -76.9,87.2 -1.4,0.5 -2.8,0.9 -4.3,1.3 l 0,107.5 c 1.4,0.5 2.8,1 4.3,1.6 37.7,14.4 69,46.7 71.2,85.2 0.1,1.4 0.1,2.8 0.1,4.2 l 117.7,0 c 22.5,38.8 68.4,65.5 121.3,65.5 52.9,0 98.7,-26.7 121.3,-65.5 l 108.8,0 c 0,-1.4 0.1,-2.8 0.1,-4.2 2.3,-40.4 36.7,-73.9 76.9,-87.2 1.4,-0.5 2.8,-0.9 4.2,-1.3 l 0,-104.4 c -1.3,-0.4 -2.7,-0.8 -4.1,-1.2 z m 0,102.5 c -42.5,13.6 -78.9,49 -81.3,91.6 l -107.1,0 c -0.8,1.4 -1.6,2.8 -2.4,4.2 -22.2,36.4 -66,61.3 -116.4,61.3 -50.4,0 -94.1,-24.9 -116.3,-61.4 -0.9,-1.4 -1.7,-2.8 -2.5,-4.2 l -116,0 C 278.3,600.6 244.9,566.5 205,551.7 l 0,-101.5 c 42.4,-13.6 78.9,-49 81.2,-91.6 l 107.1,0 c 0.8,-1.4 1.6,-2.8 2.5,-4.1 22.2,-36.5 66,-61.3 116.3,-61.3 50.3,0 94.2,24.8 116.4,61.3 0.8,1.4 1.7,2.7 2.4,4.1 l 105.5,0 c 2.4,44.2 41.6,80.6 86.1,93 l 0,98.2 z"
             id="path29"
             inkscape:connector-curvature="0"
             style="fill:#ffffff" /></g></g></g></switch></svg>