<?xml version="1.0" encoding="utf-8"?>
<svg version="1.1" id="Layer_1"
	 xmlns="http://www.w3.org/2000/svg" xmlns:xlink="http://www.w3.org/1999/xlink" x="0px" y="0px" viewBox="0 0 1000 1000"
	 width="100%" height="100%"
	 style="enable-background:new 0 0 1000 1000;" xml:space="preserve">
<style type="text/css">
	.noFillSVG{fill:none;}
</style>
<switch>
	<g>
		<g>
			<path class="noFillSVG" d="M562,237.3c-1,0.5-2.1,1-3.1,1.6c19.4,25.6,34.4,54.5,43,85.3c15.8-4.1,32.2-6.3,48.5-6.7
				c15.3-0.4,30.7,0.5,46.1,2.7c0-2.4,0-4.9-0.1-7.3c-0.4-13.3-1.5-26.8-3.3-40.2c-19.1-0.3-38.3,0.2-57.2,3.3
				c-0.8,0.1-1.4,0.1-2.1-0.1c-1.4-0.3-2.7-1.2-3.2-2.9c-6.1-18.4-15-35.8-25-52.4C590.8,225.1,576.1,230.6,562,237.3z"/>
			<path class="noFillSVG" d="M255.3,406c10.3-5.6,21.1-10.3,32.6-14.2c5-1.7,10.1-3.4,15.2-4.9c-1.1-4.1-2-8.1-2.9-12.2
				c-2.9-13.3-4.8-26.2-5.2-39.4c-19.4,2.7-38.6,7.3-57,14.1C241.7,368.6,247.6,387.7,255.3,406z"/>
			<path class="noFillSVG" d="M507.9,276.8c14.3,14.8,27,31.4,35.7,50.1c9.6,20.6,14.7,42.8,19.1,65c26.1-9.5,52.9-18.1,80.9-18
				c15.3,0,30.6,2.2,45.6,5.6c0.5-2.2,1-4.5,1.5-6.7c3.1-14.7,5.1-29.3,5.8-44.2c-31.9-4.9-64.5-4-95.3,4.6c-3,0.8-5-1.4-5.3-3.7
				c-0.9-0.5-1.6-1.3-1.9-2.5c-4.6-16.4-11-32.2-19-47.2c-6.8-12.8-14.8-25.2-23.7-36.9c-13.7,7.8-25.8,17.4-37.6,28.4
				C511.7,273.1,509.8,275,507.9,276.8z"/>
			<path class="noFillSVG" d="M311.4,384.6c18.1-4.7,36.8-7.5,55.5-6.8c25.4,1,49.8,8.5,73.7,16.5c5.2-26.7,11.2-53.5,24.6-77.4
				c8.3-14.7,18.9-28,30.6-40.2c-3.4-3.4-7-6.7-10.5-9.9c-9.3-8.3-18.9-15.6-29.2-21.9c-20.3,27.9-35.7,59.5-44.8,92
				c-0.4,1.5-1.3,2.4-2.4,2.8c-0.8,0.4-1.7,0.5-2.8,0.2c-16.7-4.2-33.8-6.6-51-7.4c-16.9-0.8-34.3-0.3-51.6,1.6
				c0.4,15.4,3,30.5,6.8,45.8C310.6,381.6,311,383.1,311.4,384.6z"/>
			<path class="noFillSVG" d="M404.2,330.7c4.7-15.8,10.9-31.2,18.2-46c7.5-15.1,16.4-29.9,26.4-43.9c-3.5-1.9-7-3.7-10.7-5.4
				c-10.2-4.7-20.7-9-31.4-12.8c-9.5,16.9-18.4,34.2-25.6,52.2c-0.5,1.3-1.5,2.1-2.6,2.6c-0.8,0.4-1.7,0.6-2.7,0.5
				c-21.7-3-44.1-2.1-66-0.8c-3,14.3-5.2,28.8-6.2,43.4c-0.1,1.7-0.2,3.4-0.2,5C337.2,321.5,371.7,323.2,404.2,330.7z"/>
			<path class="noFillSVG" d="M720.5,388.5c10.4,3.5,20.2,8,29.5,13.2c6-17.6,10.4-35.8,13-54.2c-18.5-7.7-38-13.7-58-17.4
				c-0.7,17.3-3.6,34.6-7.6,51.4C705.2,383.6,712.9,385.9,720.5,388.5z"/>
			<path class="noFillSVG" d="M767.5,652.1c-3-20.3-8.3-40.4-15.8-59.8c-12.6,7-25.7,12.4-39.7,17.1c-3.8,1.3-7.6,2.4-11.5,3.6
				c1,3.8,1.9,7.5,2.7,11.3c3.5,15.6,5.6,30.8,5.7,46.5C729.1,666.6,748.8,660.3,767.5,652.1z"/>
			<path class="noFillSVG" d="M495.8,723.1c-14.1-14.6-26.6-30.9-35.3-49.2c-9.9-20.8-15.1-43.3-19.5-65.9c-25.5,9.3-51.6,17.6-78.9,18
				c-16,0.2-32-2-47.6-5.6c-1,4.1-1.8,8.3-2.6,12.4c-2.5,13-4,25.8-4.4,38.8c33.2,3,67,0.1,98.5-8.6c1.4-0.4,2.6-0.1,3.5,0.6
				c0.8,0.5,1.5,1.3,1.8,2.4c4.5,16.4,10.8,32.2,18.4,47.4c7.3,14.5,16,28.8,25.8,42.2c12.9-8.1,24.6-17.7,35.9-28.3
				C492.9,725.9,494.3,724.5,495.8,723.1z"/>
			<path class="noFillSVG" d="M503.4,194.1c-15.4,12.9-29.6,27.7-42.1,43.9c13.6,8.4,25.8,18.6,37.5,29.8c1,1,2,1.9,3,2.9
				c3.9-3.8,7.9-7.5,11.9-11.1c10.2-9.1,20.7-16.8,32.1-23.5C533.3,220.7,519,206.5,503.4,194.1z"/>
			<path class="noFillSVG" d="M665.5,439.4c10-15.8,16.8-33.4,21.6-51.5c-17.5-4-35.5-6.2-53.4-5c-24.3,1.6-47.6,9.6-70.3,17.9
				c-1.3,2.3-4.6,3.1-6.5,1.6c-2.4-0.8-3.4-4.1-2.1-6.4c-4.9-25.4-10.6-51-23.2-73.8c-8-14.4-18.3-27.3-29.7-39.2
				c-13.1,13.7-24.8,28.8-33.1,45.8c-10.9,22.4-15.9,47.1-20.5,71.3c-0.3,1.7-1.4,2.7-2.7,3c-0.9,0.9-2.3,1.3-3.9,0.8
				c-27.7-9.4-56.1-18.4-85.7-17.4c-14.3,0.5-28.4,2.9-42.2,6.5c5.8,19.7,14,38.7,26.1,55.4c13.7,18.9,31.4,34.3,49,49.3
				c1.4,1.2,1.6,2.7,1.2,4c0.4,1.3,0.2,2.7-1.2,3.9c-19.2,17.3-38.4,35.1-52,57.3c-9.3,15.2-15.6,32-20.2,49.2
				c17.5,4,35.5,6.2,53.4,5c24.3-1.6,47.6-9.6,70.3-17.9c1.3-2.3,4.6-3.1,6.5-1.6c2.4,0.8,3.4,4.1,2.1,6.4c5,26,10.9,52.2,24.1,75.4
				c7.8,13.8,17.8,26.2,28.8,37.6c13.5-14.1,25.5-29.8,33.9-47.5c10.4-21.9,15.2-46,19.7-69.7c0.3-1.7,1.4-2.7,2.7-3
				c0.9-0.9,2.3-1.3,3.9-0.8c26.7,9.1,54.2,17.9,82.7,17.5c15.3-0.2,30.4-2.7,45.2-6.6c-5.8-19.7-14-38.7-26.1-55.4
				c-13.7-18.9-31.4-34.3-49-49.3c-1.4-1.2-1.6-2.7-1.2-4c-0.4-1.3-0.2-2.7,1.2-3.9C633.4,477.7,652,460.6,665.5,439.4z"/>
			<path class="noFillSVG" d="M502.7,806.1c15.7-12.3,30.2-26.5,42.9-42.1c-14-8.5-26.7-18.6-38.8-30c-1.7-1.6-3.4-3.2-5.1-4.9
				c-3.2,3.2-6.5,6.3-9.8,9.3c-10,9-20.3,17-31.3,24C473.1,778.5,487.2,793.3,502.7,806.1z"/>
			<path class="noFillSVG" d="M693.7,730.5c3.2-16.2,5.6-32.7,6.5-49.2c-33.4,6-67.7,6.3-100.2-1.1c-4.6,15.4-10.7,30.2-18.2,44.4
				c-6.8,12.8-14.6,25.1-23.4,36.8c3.3,1.8,6.7,3.5,10.1,5.2c11.5,5.5,23.4,10.6,35.6,15.1c9.6-16.1,18.1-33,24-50.8
				c0.5-1.4,1.4-2.3,2.5-2.7c0.8-0.4,1.7-0.5,2.8-0.3C653.2,731.8,673.7,731.8,693.7,730.5z"/>
			<path class="noFillSVG" d="M308.3,610c5.6-21.1,13.9-41.7,26.4-59.7c12.8-18.3,29.1-33.8,45.6-48.7c-19.6-16.8-39-34.4-53-56.3
				c-9.8-15.4-16.8-32.5-22-50.1c-9,2.6-17.8,5.7-26.4,8.9c-7,2.7-13.8,5.9-20.3,9.6c14.5,31.9,34.6,61.4,58.7,85.6
				c1.1,1.1,1.4,2.4,1.2,3.6c-0.1,0.9-0.4,1.7-1.2,2.5c-11.9,12.7-22.4,26.5-31.7,41.2c-9.1,14.4-17.4,29.9-24.4,46.1
				c10.8,5.3,21.9,9.7,33.7,13.4C299.3,607.5,303.8,608.8,308.3,610z"/>
			<path class="noFillSVG" d="M761.5,418.8c-2.3-1.5-4.5-3-6.8-4.4c-11.7,31.6-28.8,61.1-51,85.7c11.2,11.7,21.3,24.6,30,38.3
				c8.4,13.1,15.8,27,22.1,41.5c4.2-2.6,8.3-5.3,12.3-8.2c8.2-5.8,16.3-11.9,24.2-18.4c-9.3-17.7-19.4-35.4-31.9-51
				c-0.6-0.7-0.9-1.5-1-2.3c-0.3-1.2,0-2.6,1-3.8c13.4-15.8,24.6-33.4,34.4-51.7C784.1,435.4,773.1,426.7,761.5,418.8z"/>
			<path class="noFillSVG" d="M770.7,414.8c9.6,6.9,19.1,14.2,28.3,21.8c9.1-18,16.9-36.9,21.5-56.6c-12.7-9.5-26.3-17.7-40.6-24.7
				c-3-1.5-6-2.9-9.1-4.3c-2.7,18.6-7.1,37.2-13.2,55.2C762,408.8,766.3,411.7,770.7,414.8z"/>
			<path class="noFillSVG" d="M306.2,618.4c-7.5-2-14.8-4.2-22.1-6.6c-9.1-3.1-17.8-6.7-26.2-10.9c-7.3,18.3-12.9,37.4-16.1,56.8
				c18.3,6.4,37.5,10.7,57,13.1c0.5-17.4,3.2-34.6,7.2-51.6C306.1,618.8,306.2,618.6,306.2,618.4z"/>
			<path class="noFillSVG" d="M242.4,582.2c3.7,2.3,7.4,4.5,11.1,6.5c13.4-31.7,32.2-61.3,54.9-86.2c-11.4-11.8-21.7-24.8-30.9-38.4
				c-9.7-14.4-18.6-29.9-26.1-46.1c-6.3,3.9-12.4,8.1-18.3,12.5c-8.2,6.1-16.2,12.4-24.1,19.1c10.5,17.6,22.3,34.5,36,49.7
				c0.1,0.1,0.2,0.2,0.3,0.4c1.3,1.2,1.8,3,0.4,4.8c-13.1,17.4-23.4,37.1-32.9,56.7C222.3,568.7,232.2,575.7,242.4,582.2z"/>
			<path class="noFillSVG" d="M448,760c-19.5-26.6-34.6-56.5-43.8-87.7c-15.5,4-31.4,6.6-47.4,7.9c-16.2,1.3-32.8,1.3-49.4-0.1
				c0,3.6,0.1,7.1,0.4,10.8c0.8,13,2.2,26.2,4.2,39.4c21.4-0.9,42.9-3.4,63.9-8.2c1.8-0.4,3.3,0.3,4.2,1.4c0.4,0.4,0.8,1,1.1,1.6
				c7.4,18.5,16.6,36.4,26.4,53.7c12.4-4.9,24.7-10.3,36.5-16.5C445.4,761.5,446.7,760.8,448,760z"/>
			<path class="noFillSVG" d="M693,618c-0.2-0.9-0.5-1.8-0.7-2.7c-18.7,4.9-38.1,7.7-57.4,6.7c-24.7-1.3-48.5-8.6-71.8-16.4
				c-5.1,26.4-11.1,52.9-24.2,76.6c-8.3,15-19.1,28.6-31.1,41c4.1,4,8.3,7.9,12.6,11.7c9.7,8.6,19.8,15.9,30.6,22.3
				c19-24.9,33.6-53.2,41.9-83.2c0.4-1.5,1.4-2.4,2.5-2.8c0.8-0.4,1.7-0.5,2.8-0.2c16.5,4.1,33.5,5.9,50.5,6
				c17.1,0.1,34.5-1.5,51.8-4.6C700.6,653.9,697.6,636,693,618z"/>
			<path class="noFillSVG" d="M759.1,588c7.7,19.4,13.4,39.8,16.6,60.4c17-8.1,33-18,47.5-29.5c-8.3-19.6-17.3-39-27-58
				c-10.2,8.4-20.8,16.4-31.8,23.7C762.7,585.8,760.9,586.9,759.1,588z"/>
			<path class="noFillSVG" d="M553.2,768.3c-12.8,16-27.5,30.6-43.5,43.3c15.3,11.7,31.9,21.4,49.7,28.5c0,0,0,0,0,0
				c15.1-14.7,28-31.7,39.4-49.5c0.4-0.6,0.7-1.2,1.1-1.8c-15-5.5-29.9-11.8-44.1-19.1C554.9,769.3,554,768.8,553.2,768.3z"/>
			<path class="noFillSVG" d="M453.2,766.9c-3.1,1.8-6.2,3.5-9.4,5.1c-10.3,5.2-20.9,10-31.7,14.5c10.6,18.1,21.9,35.9,34.5,52.7
				c14.9-6.1,29-13.9,42.3-23c2.4-1.6,4.7-3.3,7.1-5C480.3,798.2,465.9,783.2,453.2,766.9z"/>
			<path class="noFillSVG" d="M635.2,736.9c-5.9,16.6-13.7,32.6-22.7,47.8c20.2,7.1,41.1,12.8,61.9,16.4c0-0.2,0.1-0.4,0.1-0.5
				c7.5-19.9,13-40.6,17.4-61.4c0,0,0,0,0-0.1C673,740.3,653.9,740.1,635.2,736.9z"/>
			<path class="noFillSVG" d="M233.7,586.8c-8.4-5.5-16.7-11.3-24.9-17.4c-9,19.1-17.4,38.5-25.1,58.2c12.7,9.4,26.6,17.2,41.1,23.4
				c3,1.3,6.1,2.5,9.2,3.7c3.4-19.7,8.8-39.2,16.2-58C244.6,593.7,239.1,590.4,233.7,586.8z"/>
			<path class="noFillSVG" d="M298.8,679.3c-19.8-2.2-39.5-6.4-58.3-12.8c-2.5,19.6-2.5,39.3,0.7,58.6c20.3,5.2,41.7,6,62.5,5.5
				c-2.6-16.1-4.4-32.4-4.9-48.6C298.8,681,298.8,680.1,298.8,679.3z"/>
			<path class="noFillSVG" d="M708.7,684.3c-1,15.1-3,30.3-5.7,45.4c0,0,0,0,0,0c22.1-1.9,44.2-5.5,65.5-11.8c0,0,0-0.1,0-0.1
				c2.3-16.7,2.4-33.6,0.9-50.4c-0.2-2.3-0.4-4.6-0.7-6.9c-19,8.2-39.2,14.7-59.8,19C708.8,681.2,708.8,682.7,708.7,684.3z"/>
			<path class="noFillSVG" d="M693.6,499.6c0.1-0.9,0.4-1.7,1.2-2.5c11.7-12.4,21.7-26.3,30.3-41c8.5-14.5,15.9-30,21.9-46.2
				c-11.5-6.4-23.4-11.5-36.4-15.6c-5-1.6-10.1-3.1-15.3-4.4c-5.8,21.7-14.3,42.8-27.4,61.1c-12.7,17.7-28.5,32.7-44.6,47.3
				c19.2,16.4,38.1,33.5,52,54.8c10.3,15.7,17.6,33.4,22.9,51.6c7-2.1,14-4.4,20.9-6.9c10.3-3.7,20-8.3,29.3-13.6
				c-12.8-30.2-30.9-58.1-53.6-81C693.7,502.1,693.4,500.8,693.6,499.6z"/>
			<path class="noFillSVG" d="M809.1,457.1c-2.5-2.3-5-4.6-7.6-6.8c-9.3,17.3-20.1,33.9-32.6,49.1c11.6,15.1,21.2,31.6,30.1,48.4
				c18.1-15.3,35-32.1,49.8-50.2C836.5,483.2,823,469.8,809.1,457.1z"/>
			<path class="noFillSVG" d="M374.5,731.2c-20,4.3-40.6,6.7-61,7.6c3.8,21.4,9.4,42.6,17.1,62.6c19.4-3.4,38.5-8.9,57.1-15.3
				c3.9-1.3,7.9-2.8,11.8-4.2C390.3,765.5,381.7,748.6,374.5,731.2z"/>
			<path class="noFillSVG" d="M553.6,232c2.8-1.5,5.7-2.9,8.7-4.3c12.5-5.6,25.4-10.6,38.6-15c-0.3-0.5-0.6-1-0.9-1.5
				c-11.7-18.4-25-36.2-40.6-51.4c-15.7,6.3-30.4,14.9-44,25c-1.8,1.3-3.5,2.7-5.3,4C526,201.5,540.7,216,553.6,232z"/>
			<path class="noFillSVG" d="M454,233.8c12.5-16.5,26.6-31.7,42.2-45c-15.4-11.3-32.1-20.8-49.7-28.1c-12.8,17-24.3,35.1-34.9,53.5
				c-0.2,0.4-0.4,0.7-0.6,1.1c13.4,4.7,26.7,10.1,39.4,16.5C451.6,232.4,452.8,233.1,454,233.8z"/>
			<path class="noFillSVG" d="M691.9,263.6c-3.3-20.8-8.5-41.3-15.9-60.6c-19.3,3.2-38.4,7.9-57.2,13.4c-1.5,0.5-3.1,0.9-4.6,1.4
				c9.3,15.6,17.6,32,23.6,49.2C655.5,264.3,673.7,263.4,691.9,263.6z"/>
			<path class="noFillSVG" d="M764.1,338.5c2.1-20.5,1.8-41.2-1.3-61.3c-20.4-2.2-40.8-3.8-61.3-4.4c2.3,16.1,3.7,32.4,3.7,48.7
				C725.3,325,745.1,330.7,764.1,338.5z"/>
			<path class="noFillSVG" d="M247.9,410.2c-8-18.5-14.3-37.9-18.2-57.6c-18.4,7.6-35.8,17.4-51.2,29.8c5.6,21.1,15.3,41.1,26.1,59.9
				c10.1-8.6,20.5-16.8,31.3-24.4C239.9,415.2,243.9,412.6,247.9,410.2z"/>
			<path class="noFillSVG" d="M236.5,502.7c-12.8-14.6-24.1-30.7-34.1-47.4c-17.9,15.7-34.8,32.8-49.6,51.1c12.5,14.5,26.8,27.6,41.4,39.9
				c3.9,3.3,7.7,6.5,11.7,9.6C214.7,537.5,224.4,519.2,236.5,502.7z"/>
			<path class="noFillSVG" d="M374.3,269c6.9-16.9,15.2-33.3,24.2-49.3c-22.2-7.4-45.1-13-67.8-16.7c-6.8,18.6-12.4,37.8-17,57.1
				c-0.7,2.7-1.3,5.5-1.9,8.2C332.6,267.1,353.6,266.6,374.3,269z"/>
			<path class="noFillSVG" d="M295.5,315.2c1.1-12.6,2.9-25.1,5.3-37.6c-22,1.5-44,3.7-65.9,6.8c-2,16.3-1.6,32.9,0.5,49.2
				c0.3,2.5,0.7,5.1,1.1,7.6c18.7-6.8,38.4-11.7,58.4-14.6C295,322.8,295.2,319.1,295.5,315.2z"/>
			<path d="M857.4,494.4c-15.6-18.6-33.1-36.2-51.7-52.2c10.2-19.9,19-41,23.7-62.9c0.3-1.5-0.1-2.8-0.9-3.7c-0.3-0.4-0.6-0.8-1-1.1
				c-17-13-35.7-23.9-55.5-32.7c0.6-5.3,1.1-10.7,1.4-16c1.1-17.8,0.3-35.7-2.6-53.3c-0.3-1.9-1.6-2.9-3-3.1
				c-0.5-0.3-1.1-0.5-1.7-0.5c-21.6-2.4-43.8-4.6-65.9-5.2c-0.2-1-0.3-1.9-0.5-2.9c-3.6-21.7-8.6-43.4-16.9-63.8
				c-0.4-1.1-1.2-1.8-2-2.3c-0.9-0.6-2-0.9-3.3-0.7c-22.9,3.6-45.8,8.9-68.2,15.9c-0.6-1-1.3-2.1-1.9-3.1
				c-12.7-19.9-27.1-39.3-44.3-55.5c-2-1.9-4.4-1.3-5.9,0.1c0,0,0,0,0,0c-19.5,7.8-37.6,18.7-54.1,31.8c-3.4-2.5-6.8-5-10.3-7.4
				c-14.4-9.8-29.8-18-46-24.4c-1.9-0.7-3.3-0.1-4.2,1.1c-0.5,0.3-0.9,0.7-1.3,1.2c-13.9,18.3-26.3,37.8-37.8,57.7
				c-0.2,0.4-0.4,0.7-0.6,1.1c-3.2-1.1-6.4-2.1-9.6-3.1c-20.9-6.5-42.4-11.9-64-15.3c-1-0.2-2,0-2.7,0.4c-1.1,0.4-2,1.2-2.5,2.6
				c-8.7,23.1-16,47.3-21.2,71.8c-24.1,1.6-48.2,4.1-72.1,7.5c-0.8,0.1-1.4,0.4-1.9,0.8c-0.8,0.5-1.4,1.3-1.6,2.7
				c-2.9,21.4-2.2,43.1,1.3,64.5c-3.7,1.5-7.4,3-11,4.7c-16,7.2-31.1,16.3-44.8,27.3c0,0,0,0,0,0c-2,0.6-3.7,2.5-3,5.1
				c5.6,23.1,16.3,45,28.1,65.5c0.2,0.3,0.4,0.7,0.6,1c-3.6,3.2-7.2,6.4-10.7,9.7C172,472,157.1,487,144.1,503.5
				c-0.6,0.8-0.9,1.7-1,2.5c-0.2,1.2,0.1,2.4,1,3.5c16.8,20.1,36.7,38.3,57.7,54.6c-9.9,20.8-18.9,41.9-27.2,63.4
				c-0.7,1.7-0.2,3.1,0.8,4c0.3,0.6,0.7,1.1,1.3,1.6c17,12.9,35.9,23,56,30.6c-0.5,3.7-0.9,7.3-1.3,11c-1.7,17.6-1.3,35.3,1.6,52.7
				c0,0,0,0,0,0c-0.5,2,0.3,4.4,2.9,5.1c22.4,6.3,46.3,7.2,69.4,6.5c0.3,1.7,0.6,3.5,1,5.2c4.1,21.4,9.4,42.8,17.5,63
				c0.4,1.1,1.1,1.8,2,2.2c0.9,0.6,2,1,3.3,0.8c25.3-4,50.7-11.2,75-20.6c11.3,19.5,23.4,38.6,37.1,56.5c0.4,0.5,0.8,0.9,1.3,1.1
				c0.9,1.2,2.4,1.8,4.2,1.1c20-8,38.9-18.7,56.3-31.6c2.7,2.1,5.5,4.2,8.3,6.2c14.3,10.3,29.6,18.8,45.9,25.3c0,0,0,0,0,0
				c1.5,1.4,4,2,5.9,0.1c16.7-15.7,30.8-34.3,43.1-53.6c0.7-1,1.3-2.1,2-3.2c2,0.7,4.1,1.4,6.1,2.1c20.6,6.9,41.8,13,63.3,16.4
				c4.1,0.7,6.4-4,4.9-6.7c0.1-0.2,0.3-0.5,0.4-0.8c7.8-20.7,14-42.4,18.5-64.4c0.6,0,1.1-0.1,1.7-0.1c23.9-2.1,48-5.9,70.9-13.1
				c2.6-0.8,3.3-3.2,2.8-5.3c2.9-20.9,2.8-42.1,0.2-63.1c3.1-1.5,6.2-2.9,9.3-4.5c16-8,31.1-17.6,45-28.9c1.6-1.3,1.7-2.9,1.1-4.2
				c0-0.5-0.1-1.1-0.4-1.7c-8.9-21.1-18.5-42-29-62.4c3.5-3,6.9-6,10.3-9c15.7-14.1,31-29.1,44.1-45.7c0.6-0.8,0.9-1.7,1-2.5
				C858.6,496.8,858.4,495.5,857.4,494.4z M779.9,355.2c14.2,7,27.8,15.3,40.6,24.7c-4.6,19.7-12.4,38.6-21.5,56.6
				c-9.2-7.6-18.7-15-28.3-21.8c-4.3-3.1-8.7-5.9-13.1-8.7c6.1-18,10.5-36.6,13.2-55.2C773.8,352.3,776.9,353.7,779.9,355.2z
				 M760.4,496.3c-1,1.2-1.2,2.5-1,3.8c0.1,0.8,0.4,1.6,1,2.3c12.5,15.6,22.6,33.3,31.9,51c-7.9,6.4-16,12.6-24.2,18.4
				c-4.1,2.9-8.2,5.6-12.3,8.2c-6.3-14.5-13.7-28.4-22.1-41.5c-8.8-13.7-18.8-26.6-30-38.3c22.2-24.5,39.2-54.1,51-85.7
				c2.3,1.4,4.6,2.9,6.8,4.4c11.6,7.9,22.7,16.6,33.4,25.7C785.1,462.8,773.9,480.5,760.4,496.3z M633.5,727.9c-1.1-0.2-2,0-2.8,0.3
				c-1.1,0.4-2,1.3-2.5,2.7c-5.9,17.8-14.3,34.7-24,50.8c-12.2-4.6-24.1-9.6-35.6-15.1c-3.5-1.6-6.8-3.4-10.1-5.2
				c8.8-11.7,16.6-24,23.4-36.8c7.5-14.2,13.6-29,18.2-44.4c32.5,7.4,66.8,7.1,100.2,1.1c-0.9,16.5-3.3,32.9-6.5,49.2
				C673.7,731.8,653.2,731.8,633.5,727.9z M648.8,676.9c-17-0.1-34-1.9-50.5-6c-1.1-0.3-2-0.1-2.8,0.2c-1.1,0.4-2,1.3-2.5,2.8
				c-8.3,30-22.9,58.3-41.9,83.2c-10.8-6.4-20.9-13.8-30.6-22.3c-4.3-3.8-8.5-7.7-12.6-11.7c11.9-12.4,22.8-26,31.1-41
				c13.1-23.7,19.1-50.2,24.2-76.6c23.3,7.9,47.1,15.1,71.8,16.4c19.3,1,38.7-1.8,57.4-6.7c0.2,0.9,0.5,1.8,0.7,2.7
				c4.6,18,7.6,35.9,7.5,54.3C683.3,675.4,665.9,677,648.8,676.9z M407.6,778.8c-9.8-17.3-19.1-35.2-26.4-53.7
				c-0.3-0.7-0.6-1.2-1.1-1.6c-0.9-1.1-2.4-1.8-4.2-1.4c-20.9,4.8-42.4,7.2-63.9,8.2c-2-13.2-3.4-26.4-4.2-39.4
				c-0.2-3.6-0.3-7.2-0.4-10.8c16.6,1.4,33.2,1.4,49.4,0.1c16-1.3,31.9-3.8,47.4-7.9c9.2,31.2,24.3,61.1,43.8,87.7
				c-1.3,0.7-2.6,1.5-4,2.2C432.3,768.5,420,773.9,407.6,778.8z M241.9,657.6c3.2-19.4,8.8-38.5,16.1-56.8
				c8.4,4.2,17.1,7.8,26.2,10.9c7.3,2.4,14.6,4.7,22.1,6.6c-0.1,0.2-0.1,0.5-0.2,0.7c-3.9,17-6.7,34.2-7.2,51.6
				C279.4,668.3,260.2,664,241.9,657.6z M245.6,504.6c1.4-1.9,0.9-3.7-0.4-4.8c-0.1-0.1-0.2-0.2-0.3-0.4
				c-13.7-15.2-25.5-32.1-36-49.7c7.9-6.6,16-13,24.1-19.1c6-4.4,12.1-8.7,18.3-12.5c7.5,16.2,16.4,31.7,26.1,46.1
				c9.2,13.6,19.5,26.5,30.9,38.4c-22.7,24.9-41.5,54.5-54.9,86.2c-3.7-2.1-7.4-4.2-11.1-6.5c-10.2-6.5-20.1-13.5-29.7-20.9
				C222.2,541.7,232.5,522.1,245.6,504.6z M285.6,546.7c9.3-14.7,19.8-28.5,31.7-41.2c0.7-0.8,1.1-1.7,1.2-2.5
				c0.2-1.2-0.1-2.5-1.2-3.6c-24.1-24.2-44.2-53.7-58.7-85.6c6.5-3.7,13.2-6.9,20.3-9.6c8.7-3.3,17.5-6.3,26.4-8.9
				c5.2,17.6,12.1,34.7,22,50.1c14,21.9,33.4,39.5,53,56.3c-16.5,15-32.7,30.4-45.6,48.7c-12.6,17.9-20.8,38.6-26.4,59.7
				c-4.5-1.2-9-2.5-13.4-3.8c-11.8-3.7-22.9-8-33.7-13.4C268.2,576.6,276.5,561.1,285.6,546.7z M295,335.3
				c0.4,13.2,2.3,26.1,5.2,39.4c0.9,4.1,1.9,8.1,2.9,12.2c-5.1,1.5-10.2,3.1-15.2,4.9c-11.5,4-22.2,8.6-32.6,14.2
				c-7.7-18.3-13.6-37.4-17.3-56.6C256.3,342.6,275.6,338,295,335.3z M309.9,277c21.9-1.3,44.3-2.2,66,0.8c1,0.1,1.9-0.1,2.7-0.5
				c1.1-0.4,2-1.2,2.6-2.6c7.1-18,16-35.3,25.6-52.2c10.7,3.8,21.2,8.1,31.4,12.8c3.7,1.7,7.2,3.5,10.7,5.4
				c-10,14-18.9,28.8-26.4,43.9c-7.4,14.8-13.5,30.2-18.2,46c-32.5-7.6-67-9.3-100.8-5.3c0.1-1.7,0.1-3.4,0.2-5
				C304.7,305.8,307,291.3,309.9,277z M355,332.6c17.2,0.8,34.3,3.2,51,7.4c1.1,0.3,2,0.1,2.8-0.2c1.1-0.4,2-1.3,2.4-2.8
				c9-32.5,24.5-64.1,44.8-92c10.3,6.3,19.8,13.6,29.2,21.9c3.6,3.2,7.1,6.5,10.5,9.9C484,289,473.4,302.3,465.2,317
				c-13.4,23.9-19.5,50.7-24.6,77.4c-23.9-8.1-48.3-15.5-73.7-16.5c-18.6-0.8-37.3,2.1-55.5,6.8c-0.4-1.5-0.8-3.1-1.2-4.6
				c-3.8-15.3-6.4-30.3-6.8-45.8C320.7,332.3,338.1,331.8,355,332.6z M630.7,272.8c0.6,1.7,1.8,2.6,3.2,2.9c0.6,0.2,1.3,0.3,2.1,0.1
				c18.8-3.1,38.1-3.6,57.2-3.3c1.8,13.5,2.9,26.9,3.3,40.2c0.1,2.4,0.1,4.9,0.1,7.3c-15.3-2.2-30.8-3.2-46.1-2.7
				c-16.4,0.5-32.7,2.6-48.5,6.7c-8.6-30.7-23.6-59.7-43-85.3c1-0.5,2-1.1,3.1-1.6c14.1-6.7,28.8-12.1,43.6-16.9
				C615.7,237,624.6,254.5,630.7,272.8z M763,347.5c-2.5,18.4-6.9,36.6-13,54.2c-9.4-5.2-19.1-9.7-29.5-13.2c-7.6-2.6-15.3-4.9-23-7
				c4-16.9,6.8-34.1,7.6-51.4C724.9,333.9,744.5,339.8,763,347.5z M574.9,279.8c8,15,14.4,30.8,19,47.2c0.3,1.2,1,2,1.9,2.5
				c0.3,2.4,2.3,4.5,5.3,3.7c30.8-8.6,63.4-9.5,95.3-4.6c-0.6,14.8-2.6,29.5-5.8,44.2c-0.5,2.2-1,4.5-1.5,6.7
				c-15-3.4-30.3-5.6-45.6-5.6c-28-0.1-54.8,8.5-80.9,18c-4.3-22.2-9.4-44.4-19.1-65c-8.7-18.6-21.4-35.2-35.7-50.1
				c1.9-1.9,3.8-3.7,5.7-5.5c11.8-11,23.9-20.6,37.6-28.4C560.1,254.7,568.1,267,574.9,279.8z M614.9,494.4
				c-1.3,1.2-1.6,2.7-1.2,3.9c-0.4,1.3-0.2,2.8,1.2,4c17.6,15,35.4,30.4,49,49.3c12.1,16.7,20.2,35.7,26.1,55.4
				c-14.8,3.8-30,6.3-45.2,6.6c-28.6,0.4-56-8.4-82.7-17.5c-1.6-0.6-3-0.1-3.9,0.8c-1.3,0.3-2.3,1.2-2.7,3
				c-4.5,23.7-9.3,47.8-19.7,69.7c-8.4,17.7-20.4,33.4-33.9,47.5c-11-11.4-20.9-23.8-28.8-37.6C459.8,656.2,454,630,449,604
				c1.3-2.3,0.3-5.7-2.1-6.4c-1.9-1.6-5.2-0.7-6.5,1.6c-22.7,8.4-46,16.3-70.3,17.9c-17.9,1.2-35.9-1-53.4-5
				c4.6-17.2,10.9-34,20.2-49.2c13.6-22.2,32.8-40,52-57.3c1.3-1.2,1.6-2.7,1.2-3.9c0.4-1.3,0.2-2.8-1.2-4
				c-17.6-15-35.4-30.4-49-49.3c-12.1-16.7-20.2-35.7-26.1-55.4c13.8-3.6,28-6,42.2-6.5c29.6-1.1,58,8,85.7,17.4
				c1.6,0.6,3,0.1,3.9-0.8c1.3-0.3,2.3-1.2,2.7-3c4.6-24.3,9.6-49,20.5-71.3c8.3-17,20-32.1,33.1-45.8
				c11.4,11.9,21.7,24.8,29.7,39.2c12.6,22.8,18.3,48.4,23.2,73.8c-1.3,2.3-0.3,5.7,2.1,6.4c1.9,1.6,5.2,0.7,6.5-1.6
				c22.7-8.4,46-16.3,70.3-17.9c17.9-1.2,35.9,1,53.4,5c-4.8,18.1-11.6,35.7-21.6,51.5C652,460.6,633.4,477.7,614.9,494.4z
				 M513.8,259.6c-4,3.6-8,7.3-11.9,11.1c-1-1-2-2-3-2.9c-11.7-11.2-23.9-21.4-37.5-29.8c12.5-16.2,26.6-31,42.1-43.9
				c15.7,12.3,30,26.5,42.5,42C534.5,242.8,524,250.6,513.8,259.6z M429.8,713.3c-7.7-15.2-13.9-31-18.4-47.4c-0.3-1.2-1-2-1.8-2.4
				c-0.9-0.7-2.1-0.9-3.5-0.6c-31.5,8.8-65.3,11.6-98.5,8.6c0.4-13,1.9-25.8,4.4-38.8c0.8-4.1,1.7-8.3,2.6-12.4
				c15.6,3.6,31.6,5.8,47.6,5.6c27.3-0.3,53.4-8.7,78.9-18c4.4,22.5,9.6,45,19.5,65.9c8.7,18.3,21.2,34.6,35.3,49.2
				c-1.5,1.4-2.9,2.8-4.4,4.2c-11.3,10.6-23,20.2-35.9,28.3C445.7,742.1,437.1,727.9,429.8,713.3z M492,738.4c3.3-3,6.6-6.1,9.8-9.3
				c1.7,1.6,3.4,3.3,5.1,4.9c12.1,11.4,24.8,21.5,38.8,30c-12.7,15.6-27.2,29.8-42.9,42.1c-15.6-12.8-29.7-27.7-42.1-43.7
				C471.7,755.4,482,747.4,492,738.4z M703.3,624.2c-0.8-3.8-1.8-7.5-2.7-11.3c3.9-1.1,7.7-2.3,11.5-3.6
				c13.9-4.6,27.1-10.1,39.7-17.1c7.5,19.3,12.8,39.5,15.8,59.8c-18.7,8.2-38.5,14.5-58.5,18.6C708.9,655.1,706.8,639.8,703.3,624.2
				z M719.2,597.8c-6.9,2.5-13.8,4.8-20.9,6.9c-5.3-18.1-12.6-35.8-22.9-51.6c-14-21.3-32.8-38.4-52-54.8
				c16.1-14.6,31.9-29.6,44.6-47.3c13.1-18.3,21.7-39.4,27.4-61.1c5.1,1.4,10.2,2.8,15.3,4.4c13,4.1,24.9,9.2,36.4,15.6
				c-6.1,16.2-13.4,31.7-21.9,46.2c-8.6,14.7-18.7,28.6-30.3,41c-0.7,0.8-1.1,1.7-1.2,2.5c-0.2,1.2,0.1,2.5,1.2,3.6
				c22.7,22.9,40.9,50.8,53.6,81C739.1,589.5,729.5,594.1,719.2,597.8z M762.8,277.2c3.1,20.1,3.4,40.7,1.3,61.3
				c-19-7.7-38.8-13.5-58.9-17c0-16.3-1.4-32.6-3.7-48.7C722,273.4,742.4,275,762.8,277.2z M618.7,216.4
				c18.8-5.5,37.9-10.2,57.2-13.4c7.4,19.3,12.6,39.8,15.9,60.6c-18.2-0.2-36.3,0.7-54.2,3.4c-6-17.1-14.3-33.5-23.6-49.2
				C615.6,217.3,617.2,216.9,618.7,216.4z M515.3,184.7c13.6-10.1,28.3-18.7,44-25c15.7,15.3,28.9,33,40.6,51.4
				c0.3,0.5,0.6,1,0.9,1.5c-13.2,4.4-26.1,9.4-38.6,15c-3,1.3-5.9,2.8-8.7,4.3c-12.9-16-27.6-30.5-43.5-43.2
				C511.8,187.4,513.6,186,515.3,184.7z M411.6,214.2c10.7-18.4,22.2-36.5,34.9-53.5c17.6,7.2,34.2,16.7,49.7,28.1
				c-15.7,13.3-29.8,28.6-42.2,45c-1.2-0.7-2.4-1.3-3.7-2c-12.7-6.4-25.9-11.8-39.4-16.5C411.2,214.9,411.4,214.5,411.6,214.2z
				 M330.7,203c22.8,3.8,45.7,9.3,67.8,16.7c-8.9,16-17.3,32.4-24.2,49.3c-20.7-2.4-41.7-1.9-62.6-0.7c0.6-2.8,1.3-5.5,1.9-8.2
				C318.3,240.8,323.9,221.6,330.7,203z M235.5,333.6c-2.1-16.3-2.5-32.9-0.5-49.2c21.9-3,43.8-5.3,65.9-6.8
				c-2.4,12.5-4.2,25.1-5.3,37.6c-0.3,3.8-0.5,7.6-0.6,11.3c-20,2.9-39.6,7.8-58.4,14.6C236.2,338.6,235.8,336.1,235.5,333.6z
				 M178.5,382.4c15.4-12.4,32.7-22.2,51.2-29.8c3.9,19.7,10.2,39.1,18.2,57.6c-4,2.4-8,5-12,7.8c-10.8,7.6-21.2,15.8-31.3,24.4
				C193.9,423.5,184.1,403.5,178.5,382.4z M152.7,506.4c14.8-18.3,31.7-35.4,49.6-51.1c10,16.7,21.3,32.7,34.1,47.4
				c-12.1,16.5-21.7,34.8-30.7,53.2c-3.9-3.1-7.8-6.4-11.7-9.6C179.5,534,165.3,520.9,152.7,506.4z M224.8,651
				c-14.5-6.2-28.3-14.1-41.1-23.4c7.7-19.7,16-39.1,25.1-58.2c8.2,6.1,16.5,11.9,24.9,17.4c5.4,3.6,11,6.9,16.6,10
				c-7.4,18.8-12.8,38.3-16.2,58C230.9,653.6,227.8,652.4,224.8,651z M241.2,725.1c-3.2-19.3-3.2-39.1-0.7-58.6
				c18.8,6.4,38.5,10.6,58.3,12.8c0,0.9,0,1.8,0,2.7c0.5,16.3,2.3,32.5,4.9,48.6C282.9,731.1,261.5,730.3,241.2,725.1z M330.6,801.4
				c-7.7-19.9-13.3-41.1-17.1-62.6c20.5-0.9,41-3.3,61-7.6c7.2,17.4,15.8,34.3,25,50.7c-3.9,1.4-7.8,2.9-11.8,4.2
				C369.1,792.5,350,798,330.6,801.4z M488.9,816.3c-13.3,9.1-27.5,16.9-42.3,23c-12.6-16.8-23.9-34.6-34.5-52.7
				c10.8-4.4,21.5-9.3,31.7-14.5c3.2-1.6,6.4-3.4,9.4-5.1c12.7,16.3,27,31.3,42.7,44.4C493.6,813,491.3,814.7,488.9,816.3z
				 M598.7,790.7c-11.3,17.8-24.2,34.8-39.4,49.5c0,0,0,0,0,0c-17.8-7.1-34.4-16.8-49.7-28.5c16-12.7,30.7-27.3,43.5-43.3
				c0.9,0.5,1.7,1,2.6,1.4c14.2,7.4,29,13.6,44.1,19.1C599.5,789.5,599.1,790.1,598.7,790.7z M692,739.2
				c-4.4,20.8-10,41.5-17.4,61.4c-0.1,0.2-0.1,0.4-0.1,0.5c-20.8-3.6-41.7-9.3-61.9-16.4c9-15.2,16.9-31.1,22.7-47.8
				C653.9,740.1,673,740.3,692,739.2C692,739.2,692,739.2,692,739.2z M769.4,667.4c1.5,16.7,1.4,33.7-0.9,50.4c0,0,0,0.1,0,0.1
				c-21.3,6.4-43.4,9.9-65.5,11.8c0,0,0,0,0,0c2.8-15.1,4.7-30.3,5.7-45.4c0.1-1.6,0.2-3.2,0.2-4.7c20.6-4.3,40.8-10.8,59.8-19
				C768.9,662.9,769.2,665.1,769.4,667.4z M823.3,618.9c-14.5,11.5-30.5,21.3-47.5,29.5c-3.2-20.6-8.9-41-16.6-60.4
				c1.8-1.1,3.6-2.2,5.3-3.4c11-7.3,21.6-15.3,31.8-23.7C806,579.9,814.9,599.3,823.3,618.9z M799.1,547.8
				c-8.9-16.8-18.6-33.3-30.1-48.4c12.5-15.2,23.2-31.8,32.6-49.1c2.5,2.2,5.1,4.5,7.6,6.8c14,12.7,27.5,26.1,39.8,40.4
				C834.1,515.7,817.1,532.5,799.1,547.8z"/>
		</g>
	</g>
</switch>
</svg>
