<?xml version="1.0" encoding="UTF-8" standalone="no"?>
<svg
   xmlns:dc="http://purl.org/dc/elements/1.1/"
   xmlns:cc="http://creativecommons.org/ns#"
   xmlns:rdf="http://www.w3.org/1999/02/22-rdf-syntax-ns#"
   xmlns:svg="http://www.w3.org/2000/svg"
   xmlns="http://www.w3.org/2000/svg"
   xmlns:sodipodi="http://sodipodi.sourceforge.net/DTD/sodipodi-0.dtd"
   xmlns:inkscape="http://www.inkscape.org/namespaces/inkscape"
   version="1.1"
   id="Layer_1"
   x="0px"
   y="0px"
   viewBox="0 0 1000 1000"
   width="100%"
   height="100%"
   style="enable-background:new 0 0 1000 1000;"
   xml:space="preserve"
   ><style
     type="text/css"
     id="style3">
	.noFillSVG{fill:none;}
</style><switch
     id="switch5"
     transform="translate(8.6,-2.1)"><g
       id="g7"><g
         id="g9"><path
           class="noFillSVG"
           d="m 652.5,603.3 c -4.9,0 -4.9,7.6 0,7.6 4.9,0 4.9,-7.6 0,-7.6 z"
           id="path11"
           inkscape:connector-curvature="0"
           style="fill:none" /><path
           class="noFillSVG"
           d="m 671.6,615.4 c -4.9,0 -4.9,7.6 0,7.6 4.9,0 4.9,-7.6 0,-7.6 z"
           id="path13"
           inkscape:connector-curvature="0"
           style="fill:none" /><path
           class="noFillSVG"
           d="m 608.6,674.6 c -4.9,0 -4.9,7.6 0,7.6 4.9,0 4.9,-7.6 0,-7.6 z"
           id="path15"
           inkscape:connector-curvature="0"
           style="fill:none" /><path
           class="noFillSVG"
           d="m 595.9,655.5 -0.6,0 c -2,0 -3.9,1.8 -3.8,3.8 0.1,2.1 1.7,3.8 3.8,3.8 l 0.6,0 c 2,0 3.9,-1.8 3.8,-3.8 -0.1,-2.1 -1.7,-3.8 -3.8,-3.8 z"
           id="path17"
           inkscape:connector-curvature="0"
           style="fill:none" /><path
           class="noFillSVG"
           d="m 790.8,525.8 c -14.8,6.2 -33.5,11.3 -55.4,11.9 12.3,8.8 17.9,17.8 18.2,18.4 l 0.7,1.1 -1.1,0.6 c -0.2,0.1 -15.6,8.8 -38,8.8 -6.2,0 -13.1,-0.7 -20.2,-2.4 -36.5,-8.8 -46.6,-31.1 -47,-32 l -0.4,-1 0.9,-0.6 c 0.9,-0.6 23.1,-15 56.4,-6.9 11,2.7 19.9,6.9 27,11.4 22.3,0 41.4,-4.9 56.5,-11.1 -8.8,-5.7 -18.8,-11 -30.2,-15.2 -5.8,-2 -11.9,-3.7 -18.3,-5.3 l 0.3,-1.4 0,-0.2 -0.4,-1.6 c 3.1,-0.8 6.2,-1.6 9.2,-2.4 15.5,-4.8 28.6,-11.5 39.6,-19 -14.4,-5.8 -33.6,-10.8 -56.8,-10.8 l 0,-0.1 c -6.5,3.9 -14.7,7.5 -25,9.9 -7.1,1.7 -14,2.4 -20.2,2.4 -22.4,0 -37.8,-8.7 -38,-8.8 l -1.1,-0.7 0.7,-1.1 c 0.6,-1 14.9,-24.1 48.9,-32.3 33.3,-8 55.4,6.3 56.4,6.9 l 0.9,0.6 -0.4,1 c -0.3,0.6 -4.8,10.5 -18.2,19.6 22.7,0.5 41.5,5.7 55.5,11.5 27.8,-19.7 41.2,-43.4 43.5,-47.9 -6,-4 -50.9,-31.9 -107.8,-21.9 -2.7,0.5 -5.5,1.1 -8.3,1.8 -0.1,0.1 -0.2,0.1 -0.3,0.2 l -0.1,-0.1 c -0.1,0 -0.3,0.1 -0.4,0.1 l -0.3,-1.1 -0.6,-1 c 0.1,-0.1 0.2,-0.1 0.3,-0.2 l 0,-0.1 c 0.1,0 0.2,-0.1 0.3,-0.1 2.5,-1.6 5,-3.2 7.4,-4.8 47.2,-33.2 59.1,-84.5 60.5,-91.6 -4.8,-1.5 -31,-8.8 -64.6,-3.1 -5.9,14 -15.4,31 -31.1,47.4 16,-3 26.1,0.8 26.8,1 l 1,0.4 -0.2,1 c -0.2,1.1 -5.8,26.9 -35,44.7 -17.5,10.7 -33.9,13 -44.6,13 -7.6,0 -12.4,-1.1 -12.9,-1.2 l -1.3,-0.3 0.4,-1.2 c 0.1,-0.3 7.8,-28.1 36.7,-45.7 9.1,-5.5 17.4,-8.8 24.7,-10.7 l 0,-0.1 c 16.1,-16.1 26.2,-33 32.5,-47.8 -13,2.5 -27,7 -41.3,14.5 -2.8,1.5 -5.6,3.1 -8.4,4.8 l -0.8,-1.3 -0.3,-0.2 -0.8,-0.5 -0.3,-0.2 c 3.4,-5.6 6.4,-11.2 9.2,-16.7 5,-11.1 8.4,-21.9 10.6,-32.1 -15,6.4 -32,16.4 -47.7,32.1 -1.8,8.2 -5.1,17.5 -11,27.2 -17.9,29.2 -43.7,34.7 -44.8,35 l -1,0.2 -0.4,-1 c -0.4,-1 -8.9,-23.9 10.6,-55.9 17.6,-28.8 45.4,-36.6 45.7,-36.6 l 1.2,-0.4 0.3,1.3 c 0.2,0.7 2.6,11 0.2,25.9 15.8,-15.1 32.7,-24.7 47.5,-30.8 6.7,-35.3 -0.6,-63 -2.1,-68 -6.8,1.5 -53.9,13 -87.8,55.6 -3.4,4.7 -6.8,9.5 -10,14.8 0,0.1 -0.1,0.2 -0.1,0.3 l -0.1,0 c -0.1,0.1 -0.2,0.2 -0.2,0.3 l -1,-0.6 -0.8,-0.2 -0.3,-0.1 c 0,-0.1 0.1,-0.3 0.1,-0.4 l -0.1,-0.1 c 0.1,-0.1 0.1,-0.2 0.2,-0.3 1.4,-5.9 2.5,-11.8 3.4,-17.5 6.2,-54.1 -19,-95.6 -22.8,-101.4 -4.6,2.5 -29.3,16.8 -49.5,46.6 6.2,14.8 11.3,33.5 11.9,55.4 8.8,-12.3 17.8,-17.9 18.4,-18.2 l 1.1,-0.7 0.6,1.1 c 0.2,0.3 14.4,25.4 6.4,58.2 -8.8,36.5 -31.1,46.6 -32,47 l -1,0.4 -0.6,-0.9 c -0.6,-0.9 -15,-23.1 -6.9,-56.4 2.7,-11 6.9,-19.9 11.4,-27 0,-22.3 -4.9,-41.4 -11.1,-56.5 -5.7,8.8 -11,18.8 -15.2,30.2 -2,5.8 -3.7,11.9 -5.3,18.3 l -1.4,-0.3 -0.2,-0.1 -1.6,0.4 c -0.7,-2.9 -1.5,-5.8 -2.3,-8.5 -4.8,-15.8 -11.6,-29.1 -19.2,-40.3 -5.8,14.4 -10.8,33.6 -10.8,56.9 l -0.1,0 c 3.9,6.5 7.5,14.7 9.9,25 7.9,32.8 -6.3,58 -6.4,58.2 l -0.7,1.1 -1.1,-0.7 c -1,-0.6 -24.1,-14.9 -32.3,-48.9 -8,-33.3 6.3,-55.4 6.9,-56.4 l 0.6,-0.9 1,0.4 c 0.6,0.3 10.5,4.8 19.6,18.2 0.5,-22.7 5.7,-41.5 11.5,-55.5 -19.7,-27.8 -43.4,-41.2 -47.9,-43.5 -4,6 -31.9,50.9 -21.9,107.7 0.5,2.8 1.1,5.5 1.8,8.4 0.1,0.1 0.1,0.2 0.2,0.3 l -0.1,0.1 c 0,0.1 0.1,0.3 0.1,0.4 l -1.1,0.3 -1,0.6 c -0.1,-0.1 -0.1,-0.2 -0.2,-0.3 l -0.1,0 c 0,-0.1 -0.1,-0.2 -0.1,-0.3 -1.6,-2.5 -3.1,-4.9 -4.7,-7.3 -33.1,-47.2 -84.5,-59.1 -91.6,-60.6 -1.5,4.8 -8.8,31 -3.1,64.6 14,5.9 31,15.4 47.4,31.1 -3,-16 0.8,-26.1 1,-26.7 l 0.4,-1 1,0.2 c 1.1,0.2 26.9,5.8 44.7,35 18.3,29.9 12,56.3 11.7,57.5 l -0.3,1.2 -1.2,-0.3 c -0.3,-0.1 -28.1,-7.8 -45.7,-36.7 -5.5,-9.1 -8.8,-17.4 -10.7,-24.7 l -0.1,0.1 c -16.4,-16.4 -33.5,-26.5 -47.8,-32.6 2.5,13 7,27.1 14.6,41.4 1.5,2.7 3.1,5.5 4.8,8.3 l -1.3,0.8 -0.2,0.3 -0.5,0.8 -0.2,0.3 c -5.7,-3.5 -11.4,-6.6 -17,-9.3 -11,-5 -21.7,-8.3 -31.8,-10.4 6.4,15 16.3,32 32.1,47.7 8.2,1.8 17.5,5.1 27.2,11 29.2,17.9 34.7,43.7 35,44.8 l 0.2,1 -1,0.4 c -0.5,0.2 -5.8,2.2 -14.7,2.2 -9.9,0 -24.3,-2.5 -41.2,-12.8 -28.8,-17.6 -36.6,-45.4 -36.6,-45.7 l -0.4,-1.2 1.3,-0.3 c 0.7,-0.2 11,-2.6 25.9,-0.2 -15.1,-15.8 -24.7,-32.7 -30.8,-47.5 -35.3,-6.7 -63,0.6 -68,2.1 1.5,6.8 13,53.9 55.6,87.8 4.7,3.4 9.5,6.8 14.8,10 0.1,0 0.2,0.1 0.3,0.1 l 0,0.1 c 0.1,0.1 0.2,0.2 0.3,0.2 l -0.6,1 -0.3,1.1 c -0.1,0 -0.3,-0.1 -0.4,-0.1 l -0.1,0.1 c -0.1,-0.1 -0.2,-0.1 -0.3,-0.2 -2.8,-0.7 -5.6,-1.2 -8.3,-1.8 -56.9,-10 -101.8,17.9 -107.8,21.9 2.3,4.5 15.8,28.2 43.5,47.9 14,-5.8 32.8,-11 55.5,-11.5 -13.4,-9.2 -17.9,-19 -18.2,-19.6 l -0.4,-1 0.9,-0.6 c 0.9,-0.6 23.1,-15 56.4,-6.9 34,8.2 48.3,31.3 48.9,32.3 l 0.7,1.1 -1.1,0.7 c -0.2,0.1 -15.6,8.8 -38,8.8 -6.3,0 -13.1,-0.7 -20.2,-2.4 -10.3,-2.5 -18.5,-6.1 -25,-9.9 l 0,0.1 c -23.2,0 -42.4,5 -56.8,10.8 11,7.5 24.1,14.2 39.6,19 3,0.9 6.1,1.7 9.2,2.4 l -0.4,1.6 0.1,0.2 0.3,1.4 c -6.4,1.6 -12.4,3.3 -18.3,5.3 -11.4,4.2 -21.4,9.5 -30.2,15.2 15.1,6.1 34.2,11.1 56.5,11.1 7.1,-4.5 16,-8.8 27,-11.4 33.3,-8 55.4,6.3 56.4,6.9 l 0.9,0.6 -0.4,1 c -0.4,0.9 -10.6,23.2 -47,32 -7.1,1.7 -14,2.4 -20.2,2.4 -22.4,0 -37.8,-8.7 -38,-8.8 l -1.1,-0.6 0.7,-1.1 c 0.4,-0.6 6,-9.7 18.2,-18.4 -21.9,-0.5 -40.6,-5.6 -55.4,-11.9 -29.7,20.2 -44.1,45 -46.6,49.5 5.9,3.8 47.4,29 101.4,22.8 5.7,-0.8 11.5,-1.9 17.5,-3.4 0.1,-0.1 0.2,-0.1 0.3,-0.2 l 0.1,0.1 c 0.1,0 0.3,-0.1 0.4,-0.1 l 0.1,0.3 0.2,0.8 0.6,1 c -0.1,0.1 -0.2,0.1 -0.3,0.2 l 0,0.1 c -0.1,0 -0.2,0.1 -0.3,0.1 -5.2,3.2 -10.1,6.5 -14.8,10 -42.6,33.9 -54.1,81 -55.6,87.8 5,1.5 32.7,8.8 68,2.1 6.1,-14.8 15.7,-31.7 30.8,-47.5 -4.9,0.8 -9.3,1.1 -13.1,1.1 -7.6,0 -12.4,-1.1 -12.9,-1.3 l -1.3,-0.3 0.4,-1.2 c 0.1,-0.3 7.8,-28.1 36.6,-45.7 32,-19.5 54.9,-11 55.9,-10.6 l 1,0.4 -0.2,1 c -0.2,1.1 -5.8,26.9 -35,44.8 -9.7,5.9 -19,9.2 -27.2,11 -15.8,15.8 -25.7,32.7 -32.1,47.7 10.2,-2.2 21,-5.5 32.1,-10.6 5.5,-2.7 11.1,-5.8 16.7,-9.2 l 0.2,0.3 0.5,0.8 0.2,0.3 1.3,0.8 c -1.7,2.8 -3.3,5.5 -4.8,8.3 -7.6,14.3 -12.1,28.3 -14.6,41.4 14.3,-6.1 31.4,-16.2 47.8,-32.6 l 0.1,0 c 1.8,-7.3 5.1,-15.6 10.7,-24.7 17.6,-28.9 45.4,-36.6 45.7,-36.7 l 1.2,-0.3 0.3,1.2 c 0.3,1.1 6.5,27.6 -11.7,57.5 -17.8,29.2 -43.6,34.7 -44.7,35 l -1,0.2 -0.4,-1 c -0.2,-0.6 -4,-10.8 -1,-26.8 -16.4,15.7 -33.4,25.3 -47.4,31.1 -5.7,33.5 1.6,59.8 3.1,64.6 7,-1.4 58.4,-13.4 91.6,-60.5 1.6,-2.4 3.2,-4.8 4.7,-7.3 0,-0.1 0.1,-0.2 0.1,-0.3 l 0.1,0 c 0.1,-0.1 0.2,-0.2 0.2,-0.3 l 1,0.6 1.1,0.3 c 0,0.1 -0.1,0.3 -0.1,0.4 l 0.1,0.1 c -0.1,0.1 -0.1,0.2 -0.2,0.3 -0.7,2.8 -1.3,5.6 -1.8,8.4 -10,56.9 17.9,101.7 21.9,107.7 4.5,-2.4 28.2,-15.8 47.9,-43.5 -5.8,-14 -11,-32.8 -11.5,-55.5 -9.2,13.4 -19,17.9 -19.6,18.2 l -1,0.4 -0.6,-0.9 c -0.6,-0.9 -15,-23.1 -6.9,-56.4 8.2,-34 31.3,-48.3 32.3,-48.9 l 1.1,-0.7 0.7,1.1 c 0.2,0.3 14.4,25.4 6.4,58.2 -2.5,10.3 -6.1,18.5 -9.9,25 l 0.1,0 c 0,23.2 5,42.4 10.8,56.8 7.5,-11 14.2,-24.1 19,-39.6 0.9,-3 1.7,-6.1 2.4,-9.2 l 1.6,0.4 0.2,0 1.4,-0.3 c 1.6,6.4 3.3,12.5 5.3,18.3 4.3,11.4 9.5,21.4 15.2,30.2 6.1,-15.1 11.1,-34.2 11.1,-56.5 -4.5,-7.1 -8.8,-16 -11.4,-27 -8,-33.3 6.3,-55.4 6.9,-56.4 l 0.6,-0.9 1,0.4 c 0.9,0.4 23.2,10.6 32,47 7.9,32.8 -6.3,58 -6.4,58.2 l -0.6,1.1 -1.1,-0.7 c -0.6,-0.4 -9.7,-6 -18.4,-18.2 -0.5,21.9 -5.6,40.6 -11.9,55.4 20.2,29.7 45,44.1 49.5,46.6 3.8,-5.9 29,-47.4 22.8,-101.4 -0.8,-5.7 -1.9,-11.5 -3.4,-17.5 -0.1,-0.1 -0.1,-0.2 -0.2,-0.3 l 0.1,-0.1 c 0,-0.1 -0.1,-0.3 -0.1,-0.4 l 0.3,-0.1 0.8,-0.2 1,-0.6 c 0.1,0.1 0.1,0.2 0.2,0.3 l 0.1,0 c 0,0.1 0.1,0.2 0.1,0.3 3.2,5.2 6.5,10.1 10,14.8 33.9,42.6 81,54.1 87.8,55.5 1.5,-5 8.8,-32.7 2.1,-67.9 -14.8,-6.1 -31.7,-15.7 -47.5,-30.8 2.4,14.9 0,25.2 -0.2,25.9 l -0.3,1.3 -1.2,-0.4 c -0.3,-0.1 -28.1,-7.8 -45.7,-36.7 -19.5,-32 -11,-54.9 -10.6,-55.9 l 0.4,-1 1,0.2 c 1.1,0.2 26.9,5.8 44.8,35 5.9,9.7 9.2,19 11,27.2 15.8,15.8 32.7,25.8 47.7,32.1 -2.2,-10.2 -5.5,-21 -10.6,-32.1 -2.7,-5.5 -5.8,-11.1 -9.2,-16.7 l 0.3,-0.2 0.8,-0.5 0.3,-0.2 0.8,-1.4 c 2.8,1.7 5.6,3.3 8.3,4.8 14.2,7.5 28.3,12 41.3,14.5 -6.1,-14.3 -16.2,-31.4 -32.6,-47.8 l 0.1,-0.1 c -7.3,-1.9 -15.7,-5.1 -24.7,-10.7 C 631.8,619 624.1,591.2 624,590.9 l -0.4,-1.2 1.3,-0.3 c 1.1,-0.3 27.6,-6.5 57.5,11.7 29.2,17.8 34.7,43.6 35,44.7 l 0.2,1 -1,0.4 c -0.5,0.2 -5.8,2.2 -14.7,2.2 -3.5,0 -7.6,-0.3 -12.1,-1.2 15.7,16.4 25.3,33.4 31.1,47.4 33.5,5.7 59.8,-1.6 64.6,-3.1 -1.4,-7 -13.4,-58.4 -60.6,-91.6 -2.4,-1.6 -4.8,-3.2 -7.3,-4.7 -0.1,0 -0.2,-0.1 -0.3,-0.1 l 0,-0.1 c -0.1,-0.1 -0.2,-0.2 -0.3,-0.2 l 0.6,-1 0.2,-0.8 0.1,-0.3 c 0.1,0 0.3,0.1 0.4,0.1 l 0.1,-0.1 c 0.1,0.1 0.2,0.1 0.3,0.2 5.9,1.4 11.7,2.5 17.4,3.4 54.1,6.2 95.6,-19 101.5,-22.8 -2.7,-3.8 -17.1,-28.6 -46.8,-48.7 z M 628.7,469.5 c 9.2,-2.2 15.4,1.8 15.6,1.9 l 0.7,0.4 -0.3,0.7 c -0.1,0.3 -3,6.5 -13.1,9 -2,0.5 -3.9,0.7 -5.7,0.7 -6.1,0 -10.2,-2.3 -10.5,-2.5 l -0.8,-0.5 0.5,-0.8 c 0.2,-0.2 4.2,-6.6 13.6,-8.9 z m -7.5,-54.9 -0.2,0.8 c -0.1,0.3 -1.6,7.5 -9.7,12.4 -4.8,2.9 -9.3,3.6 -12.3,3.6 -2.1,0 -3.5,-0.3 -3.6,-0.4 l -0.9,-0.2 0.3,-0.9 c 0.1,-0.3 2.2,-7.8 10.1,-12.7 8.9,-5.4 15.3,-3 15.6,-2.9 l 0.7,0.3 z M 593,386.1 c 11.2,-11.2 24.4,-11.7 25,-11.7 l 1.3,0 0,1.3 c 0,0.5 -0.1,13.4 -11.7,25 -10.5,10.6 -22,11 -24.1,11 l -0.3,0 -1.1,0 -0.1,-1.1 c -0.1,-0.4 -1.5,-12 11,-24.5 z m -27.1,-3.8 c 4.9,-8.1 12.1,-9.6 12.4,-9.7 l 0.8,-0.2 0.3,0.7 c 0.1,0.3 2.5,6.7 -2.9,15.6 -4.9,8 -12.3,10.1 -12.7,10.1 l -0.9,0.3 -0.2,-0.9 c -0.1,-0.2 -1.8,-7.6 3.2,-15.9 z m -54.9,-20.6 0,0 c 2.4,-10.1 8.7,-13 9,-13.1 l 0.7,-0.3 0.4,0.7 c 0.2,0.3 4.2,6.4 1.9,15.6 -2.3,9.4 -8.7,13.4 -9,13.5 l -0.8,0.5 -0.5,-0.8 c -0.1,-0.3 -3.9,-7.1 -1.7,-16.1 z m -21,-39.6 0.9,-0.9 0.9,0.9 c 0.4,0.4 9.4,10.1 9.4,26 0,17.7 -9.1,24.8 -9.5,25.1 l -0.8,0.6 -0.8,-0.7 c -0.4,-0.4 -9.4,-9 -9.4,-25.1 -0.1,-16.3 9,-25.5 9.3,-25.9 z m -29.3,26.8 0.4,-0.7 0.7,0.3 c 0.3,0.1 6.5,3 9,13.1 2.2,9.1 -1.6,15.8 -1.8,16.1 l -0.5,0.8 -0.8,-0.5 c -0.3,-0.2 -6.7,-4.1 -9,-13.5 -2.1,-9.1 1.9,-15.3 2,-15.6 z m -57.2,23.9 0.3,-0.7 0.8,0.2 c 0.3,0.1 7.5,1.6 12.4,9.7 5,8.3 3.3,15.6 3.2,15.9 l -0.2,0.9 -0.9,-0.3 c -0.3,-0.1 -7.8,-2.2 -12.7,-10.1 -5.4,-8.9 -3,-15.4 -2.9,-15.6 z m -38.6,1.2 c 0.5,0 13.4,0.1 25,11.7 11.4,11.4 11.1,23.9 11,24.4 l 0,1.1 -1.1,0.1 c -0.1,0 -0.6,0.1 -1.5,0.1 -3.6,0 -13,-1.1 -23.1,-11.1 -11.2,-11.2 -11.7,-24.4 -11.7,-25 l 0,-1.3 1.4,0 z m -2.4,39.8 c 0.3,-0.1 6.7,-2.5 15.6,2.9 8,4.9 10.1,12.3 10.1,12.7 l 0.3,0.9 -0.9,0.2 c -0.1,0 -1.5,0.3 -3.6,0.3 -3,0 -7.5,-0.6 -12.3,-3.6 -8.1,-4.9 -9.6,-12.1 -9.7,-12.4 l -0.2,-0.8 0.7,-0.2 z m -24.3,57.7 c 0.3,-0.2 6.4,-4.2 15.6,-1.9 9.4,2.3 13.4,8.7 13.5,9 l 0.5,0.8 -0.8,0.5 c -0.2,0.1 -4.4,2.5 -10.5,2.5 -1.7,0 -3.6,-0.2 -5.7,-0.7 -10.1,-2.4 -13,-8.7 -13.1,-9 l -0.3,-0.7 0.8,-0.5 z m -26.8,31.1 -0.9,-0.9 0.9,-0.9 c 0.4,-0.4 9.5,-9.4 26,-9.4 16.1,0 24.7,9.1 25.1,9.4 l 0.7,0.8 -0.6,0.8 c -0.3,0.4 -7.5,9.5 -25.1,9.5 -16,0.1 -25.7,-8.9 -26.1,-9.3 z m 42.4,31.2 c -2,0.5 -3.8,0.7 -5.5,0.7 -6.1,0 -9.9,-2.5 -10.1,-2.6 l -0.7,-0.4 0.3,-0.7 c 0.1,-0.3 3,-6.5 13.1,-9 9.1,-2.2 15.8,1.6 16.1,1.8 l 0.8,0.5 -0.5,0.8 c -0.1,0.2 -4.1,6.6 -13.5,8.9 z m 7.9,56.1 0.2,-0.8 c 0.1,-0.3 1.6,-7.5 9.7,-12.4 8.3,-5 15.6,-3.3 15.9,-3.2 l 0.9,0.2 -0.3,0.9 c -0.1,0.3 -2.2,7.8 -10.1,12.7 -4.6,2.8 -8.6,3.5 -11.4,3.5 -2.5,0 -4,-0.6 -4.2,-0.6 l -0.7,-0.3 z m 28.2,28.4 c -11.5,11.5 -24.2,11.7 -25,11.7 0,0 0,0 0,0 l -1.3,0 0,-1.3 c 0,-0.6 0.5,-13.7 11.7,-25 12.5,-12.5 24,-11.1 24.5,-11 l 1.1,0.1 0,1.1 c 0.1,0.6 0.4,13 -11,24.4 z m 27.1,3.8 c -4.9,8.1 -12.1,9.6 -12.4,9.7 l -0.8,0.2 -0.3,-0.7 c -0.1,-0.3 -2.5,-6.7 2.9,-15.6 4.9,-8 12.3,-10.1 12.7,-10.1 l 0.9,-0.3 0.2,0.9 c 0.1,0.3 1.9,7.7 -3.2,15.9 z m 53.9,20.3 c -2.4,10.1 -8.7,13 -9,13.1 l -0.7,0.3 -0.4,-0.7 c -0.2,-0.3 -4.2,-6.4 -1.9,-15.6 2.3,-9.4 8.7,-13.4 9,-13.5 l 0.8,-0.5 0.5,0.8 c 0,0.2 3.9,7 1.7,16.1 z m 21,39.4 -0.9,0.9 -0.9,-0.9 c -0.4,-0.4 -9.4,-9.5 -9.4,-26 0,-16.1 9.1,-24.7 9.4,-25.1 l 0.8,-0.7 0.8,0.6 c 0.4,0.3 9.5,7.5 9.5,25.1 0,16.1 -9,25.7 -9.3,26.1 z m 29.2,-26.7 -0.4,0.7 -0.7,-0.3 c -0.3,-0.1 -6.5,-3 -9,-13.1 -2.2,-9.1 1.6,-15.8 1.8,-16.1 l 0.5,-0.8 0.8,0.5 c 0.3,0.2 6.7,4.1 9,13.5 2.2,9.2 -1.8,15.3 -2,15.6 z m 58.4,-24.3 -0.3,0.7 -0.8,-0.2 c -0.3,-0.1 -7.5,-1.6 -12.4,-9.7 -5,-8.3 -3.3,-15.6 -3.2,-15.9 l 0.2,-0.9 0.9,0.3 c 0.3,0.1 7.8,2.2 12.7,10.1 5.4,8.9 3,15.3 2.9,15.6 z m -89.2,-6.2 c -67.6,0 -122.6,-55 -122.6,-122.6 0,-67.6 55,-122.6 122.6,-122.6 67.6,0 122.6,55 122.6,122.6 0,67.6 -55,122.6 -122.6,122.6 z m 129,5 -1.3,0 c -0.6,0 -13.7,-0.5 -25,-11.7 -12.5,-12.5 -11.1,-24 -11,-24.5 l 0.1,-1.1 1.1,0 c 0.5,0 13,-0.4 24.4,11 11.7,11.6 11.7,24.5 11.7,25 l 0,1.3 z m 1.2,-39.9 c -0.1,0 -1.7,0.6 -4.2,0.6 -2.8,0 -6.8,-0.7 -11.4,-3.5 -8,-4.9 -10.1,-12.3 -10.1,-12.7 l -0.3,-0.9 0.9,-0.2 c 0.3,-0.1 7.7,-1.8 15.9,3.2 8.1,4.9 9.6,12.1 9.7,12.4 l 0.2,0.8 -0.7,0.3 z m 23.8,-57.8 c -0.2,0.1 -4,2.6 -10.1,2.6 -1.7,0 -3.5,-0.2 -5.5,-0.7 -9.4,-2.3 -13.4,-8.7 -13.5,-9 l -0.5,-0.8 0.8,-0.5 c 0.3,-0.2 7.1,-4 16.1,-1.8 10.1,2.4 13,8.7 13.1,9 l 0.3,0.7 -0.7,0.5 z m -24.3,-29.4 -0.6,-0.8 0.7,-0.8 c 0.4,-0.4 9,-9.4 25.1,-9.4 16.5,0 25.6,9 26,9.4 l 0.9,0.9 -0.9,0.9 c -0.4,0.4 -10.1,9.4 -26,9.4 -17.7,-0.1 -24.9,-9.2 -25.2,-9.6 z"
           id="path19"
           inkscape:connector-curvature="0"
           style="fill:none" /><path
           class="noFillSVG"
           d="m 690.7,626.8 c -4.9,0 -4.9,7.6 0,7.6 4.9,0.1 4.9,-7.6 0,-7.6 z"
           id="path21"
           inkscape:connector-curvature="0"
           style="fill:none" /><path
           class="noFillSVG"
           d="m 714.4,646.1 c -1.4,-5.1 -8.6,-26.8 -33.5,-42 -25.3,-15.4 -48.5,-12.7 -54.2,-11.7 1.9,5.6 10.7,28 35.1,42.9 27.2,16.6 47.8,12.2 52.6,10.8 z m -19.7,-2.3 c -7.2,-0.2 -18.6,-2 -32,-10.2 -23.1,-14.1 -29.3,-36.4 -29.4,-36.6 l -0.2,-0.6 0.6,-0.2 c 0.2,-0.1 22.1,-5.2 46,9.4 23.4,14.3 28,35.6 28,35.8 l 0.1,0.5 -0.5,0.2 c -0.2,0.1 -4.4,1.7 -11.7,1.7 l -0.9,0 z"
           id="path23"
           inkscape:connector-curvature="0"
           style="fill:none" /><path
           class="noFillSVG"
           d="m 584.4,594.8 c 0,3.1 1,11.9 10.4,21.2 8.4,8.4 18.3,10.4 21.9,10.8 -0.4,-3.5 -2.2,-13.1 -10.9,-21.8 -8.7,-8.5 -18.1,-9.9 -21.4,-10.2 z m 27.9,27.8 -0.7,0 c -0.4,0 -8.6,-0.3 -15.7,-7.4 -7.9,-7.9 -7,-15.1 -6.9,-15.4 l 0.1,-0.5 0.5,0 c 0.3,0 8.2,-0.2 15.3,6.9 7.3,7.3 7.4,15.4 7.4,15.7 l 0,0.7 z"
           id="path25"
           inkscape:connector-curvature="0"
           style="fill:none" /><path
           class="noFillSVG"
           d="m 622.8,501.8 c 2.2,2.1 9.1,7.7 22.3,7.7 11.9,0 20.3,-5.6 23.1,-7.8 -2.8,-2.2 -10.8,-7.7 -23.1,-7.7 -12.2,-0.1 -19.8,5.6 -22.3,7.8 z m 38.9,-0.6 0.5,0.5 -0.5,0.4 c -0.3,0.3 -6.3,5.9 -16.3,5.9 -11.1,0 -15.6,-5.7 -15.8,-6 l -0.3,-0.4 0.4,-0.4 c 0.2,-0.3 5.6,-5.9 15.8,-5.9 10.2,0 15.9,5.7 16.2,5.9 z"
           id="path27"
           inkscape:connector-curvature="0"
           style="fill:none" /><circle
           class="noFillSVG"
           cx="490.29999"
           cy="502"
           r="116"
           id="circle29"
           style="fill:none" /><path
           class="noFillSVG"
           d="m 490.3,381.9 c -66.2,0 -120.1,53.9 -120.1,120.1 0,66.2 53.9,120.1 120.1,120.1 66.2,0 120.1,-53.9 120.1,-120.1 0,-66.2 -53.9,-120.1 -120.1,-120.1 z m 0,237.4 C 425.6,619.3 373,566.7 373,502 c 0,-64.7 52.6,-117.3 117.3,-117.3 64.7,0 117.3,52.7 117.3,117.3 0,64.7 -52.6,117.3 -117.3,117.3 z"
           id="path31"
           inkscape:connector-curvature="0"
           style="fill:none" /><path
           class="noFillSVG"
           d="m 631.2,523.6 c -6.4,-1.6 -11.7,0.2 -13.8,1.1 1.4,1.7 5.1,5.7 11.7,7.3 6.6,1.6 11.5,-0.3 13.4,-1.3 -1.1,-1.6 -4.2,-5.4 -11.3,-7.1 z"
           id="path33"
           inkscape:connector-curvature="0"
           style="fill:none" /><path
           class="noFillSVG"
           d="m 610.4,577.9 c -5.8,-3.6 -11.2,-3.4 -13.4,-3.2 0.8,2.1 3.3,7.1 8.9,10.5 6.2,3.8 11.2,3.4 13.1,3 -0.7,-2 -2.8,-6.8 -8.6,-10.3 z"
           id="path35"
           inkscape:connector-curvature="0"
           style="fill:none" /><path
           class="noFillSVG"
           d="m 372.6,686.6 c 4.9,0 4.9,-7.6 0,-7.6 -4.9,0 -4.9,7.6 0,7.6 z"
           id="path37"
           inkscape:connector-curvature="0"
           style="fill:none" /><path
           class="noFillSVG"
           d="m 459.4,661.7 c -4.7,3.4 -23.1,17.9 -30.1,46.6 -6.8,28.4 3.4,48.8 6,53.4 4.4,-2.4 22.1,-13.9 29.6,-44.8 6.7,-27.8 -2.9,-49.9 -5.5,-55.2 z m 3.7,54.6 c -3.7,15.2 -10.4,24.7 -15.4,29.9 -5.4,5.7 -10,7.7 -10.2,7.8 l -0.5,0.2 -0.3,-0.4 c -0.1,-0.2 -12,-18.5 -5.5,-45.1 6.6,-27.3 25.7,-39.1 25.9,-39.2 l 0.5,-0.3 0.3,0.6 c 0.2,0 11.6,20.1 5.2,46.5 z"
           id="path39"
           inkscape:connector-curvature="0"
           style="fill:none" /><path
           class="noFillSVG"
           d="m 383.4,668.2 c 4.9,0 4.9,-7.6 0,-7.6 -4.9,0 -4.9,7.6 0,7.6 z"
           id="path41"
           inkscape:connector-curvature="0"
           style="fill:none" /><path
           class="noFillSVG"
           d="m 451.5,689.2 c -4.9,0 -4.9,7.6 0,7.6 4.9,0 4.9,-7.6 0,-7.6 z"
           id="path43"
           inkscape:connector-curvature="0"
           style="fill:none" /><path
           class="noFillSVG"
           d="m 564.4,607.3 c -0.3,2.2 -0.4,7.6 3.2,13.4 3.5,5.8 8.4,7.9 10.3,8.6 0.4,-1.9 0.8,-6.8 -3,-13.1 -3.4,-5.7 -8.4,-8.1 -10.5,-8.9 z"
           id="path45"
           inkscape:connector-curvature="0"
           style="fill:none" /><path
           class="noFillSVG"
           d="m 446.4,709.5 c -4.9,0 -4.9,7.6 0,7.6 4.9,0.1 4.9,-7.6 0,-7.6 z"
           id="path47"
           inkscape:connector-curvature="0"
           style="fill:none" /><path
           class="noFillSVG"
           d="m 389.2,691.7 c 15.4,-25.2 12.7,-48.5 11.7,-54.2 -5.6,1.9 -28,10.7 -42.9,35.1 -16.5,27.1 -12.1,47.8 -10.8,52.6 5.1,-1.4 26.8,-8.6 42,-33.5 z M 359.6,673.4 C 373.7,650.3 396,644.1 396.2,644 l 0.6,-0.2 0.2,0.6 c 0.1,0.2 5.2,22.1 -9.4,46 -14.3,23.4 -35.6,28 -35.8,28 l -0.5,0.1 -0.2,-0.5 c -0.1,-0.2 -1.8,-4.8 -1.7,-12.7 0.2,-7.1 2.1,-18.5 10.2,-31.9 z"
           id="path49"
           inkscape:connector-curvature="0"
           style="fill:none" /><path
           class="noFillSVG"
           d="m 363.1,703.8 c 4.9,0 4.9,-7.6 0,-7.6 -4.9,0 -4.9,7.6 0,7.6 z"
           id="path51"
           inkscape:connector-curvature="0"
           style="fill:none" /><path
           class="noFillSVG"
           d="m 442.6,731.2 c -4.9,0 -4.9,7.6 0,7.6 4.9,0 4.9,-7.6 0,-7.6 z"
           id="path53"
           inkscape:connector-curvature="0"
           style="fill:none" /><path
           class="noFillSVG"
           d="m 532.3,705.1 c -4.9,0 -4.9,7.6 0,7.6 4.9,0 4.9,-7.6 0,-7.6 z"
           id="path55"
           inkscape:connector-curvature="0"
           style="fill:none" /><path
           class="noFillSVG"
           d="m 526.6,682.8 c -4.9,0 -4.9,7.6 0,7.6 4.9,0 4.9,-7.6 0,-7.6 z"
           id="path57"
           inkscape:connector-curvature="0"
           style="fill:none" /><path
           class="noFillSVG"
           d="m 582.7,636.2 c -1.4,4.8 -5.8,25.5 10.8,52.6 14.9,24.4 37.3,33.2 42.9,35.1 1,-5.7 3.7,-29 -11.7,-54.2 -15.2,-24.9 -36.9,-32.1 -42,-33.5 z m 50,80.8 -0.2,0.6 -0.6,-0.2 c -0.2,-0.1 -22.6,-6.3 -36.7,-29.5 -8.2,-13.4 -10.1,-24.9 -10.3,-32.1 -0.2,-7.9 1.6,-12.5 1.7,-12.7 l 0.2,-0.5 0.5,0.1 c 0.2,0.1 21.6,4.6 35.9,28.1 14.7,24 9.5,46 9.5,46.2 z"
           id="path59"
           inkscape:connector-curvature="0"
           style="fill:none" /><path
           class="noFillSVG"
           d="m 538.6,728 c -4.9,0 -4.9,7.6 0,7.6 4.9,0 5,-7.6 0,-7.6 z"
           id="path61"
           inkscape:connector-curvature="0"
           style="fill:none" /><path
           class="noFillSVG"
           d="m 620.7,699.3 c 4.9,0 4.9,-7.6 0,-7.6 -4.9,0 -4.9,7.6 0,7.6 z"
           id="path63"
           inkscape:connector-curvature="0"
           style="fill:none" /><path
           class="noFillSVG"
           d="m 545.5,761.5 c 2.6,-5.3 12.2,-27.4 5.5,-55.2 -7.5,-30.9 -25.2,-42.4 -29.6,-44.8 -2.6,4.6 -12.9,25 -6,53.4 7,28.8 25.4,43.3 30.1,46.6 z m -28.2,-46.8 c -6.5,-26.7 5.4,-45.1 5.5,-45.3 l 0.3,-0.5 0.5,0.2 c 0.2,0.1 4.7,2.1 10.2,7.8 5,5.2 11.8,14.7 15.5,29.9 6.4,26.4 -5,46.6 -5.1,46.8 l -0.3,0.6 -0.6,-0.3 c -0.3,0 -19.4,-11.8 -26,-39.2 z"
           id="path65"
           inkscape:connector-curvature="0"
           style="fill:none" /><path
           class="noFillSVG"
           d="m 597,429.3 c 2.2,0.3 7.6,0.4 13.4,-3.2 5.8,-3.5 7.9,-8.4 8.6,-10.3 -1.9,-0.4 -6.8,-0.8 -13.1,3 -5.6,3.4 -8.1,8.4 -8.9,10.5 z"
           id="path67"
           inkscape:connector-curvature="0"
           style="fill:none" /><path
           class="noFillSVG"
           d="m 709.1,711.4 c -8.2,0 -8.2,12.7 0,12.7 8.2,0.1 8.2,-12.7 0,-12.7 z"
           id="path69"
           inkscape:connector-curvature="0"
           style="fill:none" /><path
           class="noFillSVG"
           d="m 490.3,799.9 c -8.2,0 -8.2,12.7 0,12.7 8.2,0 8.2,-12.7 0,-12.7 z"
           id="path71"
           inkscape:connector-curvature="0"
           style="fill:none" /><path
           class="noFillSVG"
           d="m 631.2,479.8 c 7.1,-1.7 10.3,-5.5 11.3,-7.1 -1.8,-0.9 -6.8,-2.8 -13.4,-1.3 -6.7,1.6 -10.4,5.5 -11.7,7.3 2.1,0.8 7.3,2.6 13.8,1.1 z"
           id="path73"
           inkscape:connector-curvature="0"
           style="fill:none" /><path
           class="noFillSVG"
           d="m 275.9,710.8 c -8.2,0 -8.2,12.7 0,12.7 8.2,0 8.2,-12.7 0,-12.7 z"
           id="path75"
           inkscape:connector-curvature="0"
           style="fill:none" /><path
           class="noFillSVG"
           d="m 293.1,627.5 c -4.9,0 -4.9,7.6 0,7.6 4.9,0 4.9,-7.6 0,-7.6 z"
           id="path77"
           inkscape:connector-curvature="0"
           style="fill:none" /><path
           class="noFillSVG"
           d="m 616.7,377.1 c -3.6,0.5 -13.4,2.4 -21.9,10.8 -9.4,9.4 -10.4,18.2 -10.4,21.2 3.2,-0.2 12.7,-1.6 21.3,-10.3 8.8,-8.6 10.6,-18.2 11,-21.7 z m -26.9,27.6 -0.2,0 -0.5,0 -0.1,-0.5 c -0.1,-0.3 -0.9,-7.5 6.9,-15.4 7.1,-7.1 15.3,-7.4 15.7,-7.4 l 0.7,0 0,0.7 c 0,0.3 -0.1,8.4 -7.4,15.7 -6.6,6.6 -13.8,6.9 -15.1,6.9 z"
           id="path79"
           inkscape:connector-curvature="0"
           style="fill:none" /><path
           class="noFillSVG"
           d="m 799.5,507.9 c 8.2,0 8.2,-12.7 0,-12.7 -8.2,0 -8.2,12.7 0,12.7 z"
           id="path81"
           inkscape:connector-curvature="0"
           style="fill:none" /><path
           class="noFillSVG"
           d="m 188.8,495.2 c -8.2,0 -8.2,12.7 0,12.7 8.1,0 8.2,-12.7 0,-12.7 z"
           id="path83"
           inkscape:connector-curvature="0"
           style="fill:none" /><path
           class="noFillSVG"
           d="m 709.1,291.6 c 8.2,0 8.2,-12.7 0,-12.7 -8.1,0 -8.2,12.7 0,12.7 z"
           id="path85"
           inkscape:connector-curvature="0"
           style="fill:none" /><path
           class="noFillSVG"
           d="m 574.9,387.8 c 3.8,-6.2 3.4,-11.2 3,-13.1 -1.9,0.7 -6.8,2.8 -10.3,8.6 -3.6,5.8 -3.4,11.2 -3.2,13.4 2.1,-0.8 7.1,-3.2 10.5,-8.9 z"
           id="path87"
           inkscape:connector-curvature="0"
           style="fill:none" /><path
           class="noFillSVG"
           d="m 275.9,293.5 c 8.2,0 8.2,-12.7 0,-12.7 -8.1,0 -8.2,12.7 0,12.7 z"
           id="path89"
           inkscape:connector-curvature="0"
           style="fill:none" /><path
           class="noFillSVG"
           d="m 490.9,201.9 c 8.2,0 8.2,-12.7 0,-12.7 -8.1,0 -8.1,12.7 0,12.7 z"
           id="path91"
           inkscape:connector-curvature="0"
           style="fill:none" /><path
           class="noFillSVG"
           d="m 418.6,396.3 c 0.3,-2.2 0.4,-7.6 -3.2,-13.4 -3.5,-5.8 -8.4,-7.9 -10.3,-8.6 -0.4,1.9 -0.8,6.8 3,13.1 3.4,5.6 8.4,8.1 10.5,8.9 z"
           id="path93"
           inkscape:connector-curvature="0"
           style="fill:none" /><path
           class="noFillSVG"
           d="m 408.1,616.7 c -3.8,6.2 -3.4,11.2 -3,13.1 1.9,-0.7 6.8,-2.8 10.3,-8.6 3.6,-5.8 3.4,-11.2 3.2,-13.4 -2.1,0.8 -7.1,3.2 -10.5,8.9 z"
           id="path95"
           inkscape:connector-curvature="0"
           style="fill:none" /><path
           class="noFillSVG"
           d="m 521.2,364.1 c 1.6,-6.6 -0.3,-11.5 -1.2,-13.4 -1.6,1.1 -5.4,4.2 -7.1,11.3 l 0,0 c -1.6,6.4 0.2,11.7 1.1,13.8 1.7,-1.3 5.6,-5.1 7.2,-11.7 z"
           id="path97"
           inkscape:connector-curvature="0"
           style="fill:none" /><path
           class="noFillSVG"
           d="m 314.2,501.7 c 2.8,2.2 11.2,7.8 23.1,7.8 13.3,0 20.2,-5.5 22.3,-7.7 -2.5,-2.1 -10.2,-7.8 -22.3,-7.8 -12.2,-0.1 -20.3,5.4 -23.1,7.7 z m 38.7,-0.4 0.4,0.4 -0.3,0.4 c -0.2,0.3 -4.7,6 -15.8,6 -10,0 -16.1,-5.6 -16.3,-5.9 l -0.5,-0.4 0.5,-0.5 c 0.2,-0.2 6,-5.9 16.3,-5.9 10.1,-0.1 15.5,5.6 15.7,5.9 z"
           id="path99"
           inkscape:connector-curvature="0"
           style="fill:none" /><path
           class="noFillSVG"
           d="m 351.4,523.6 c -7.1,1.7 -10.3,5.5 -11.3,7.1 1.8,0.9 6.8,2.8 13.4,1.3 6.7,-1.6 10.4,-5.5 11.7,-7.3 -2.2,-0.9 -7.4,-2.7 -13.8,-1.1 z"
           id="path101"
           inkscape:connector-curvature="0"
           style="fill:none" /><path
           class="noFillSVG"
           d="m 460.6,639.9 c -1.6,6.6 0.3,11.5 1.2,13.4 1.6,-1.1 5.4,-4.2 7.1,-11.3 l 0,0 c 1.6,-6.4 -0.2,-11.7 -1.1,-13.8 -1.6,1.3 -5.6,5.1 -7.2,11.7 z"
           id="path103"
           inkscape:connector-curvature="0"
           style="fill:none" /><path
           class="noFillSVG"
           d="m 483.2,655.9 c 0,12.3 5.5,20.4 7.7,23.1 2.2,-2.8 7.8,-11.2 7.8,-23.1 0,-13.2 -5.5,-20.2 -7.7,-22.3 -2.1,2.4 -7.8,10.1 -7.8,22.3 z m 14.1,0.2 c 0,10 -5.6,16.1 -5.9,16.3 l -0.4,0.5 -0.5,-0.5 c -0.2,-0.3 -5.9,-6 -5.9,-16.3 0,-10.1 5.7,-15.5 5.9,-15.8 l 0.4,-0.4 0.4,0.3 c 0.3,0.3 6,4.8 6,15.9 z"
           id="path105"
           inkscape:connector-curvature="0"
           style="fill:none" /><path
           class="noFillSVG"
           d="m 366.3,627.4 c 3.5,-0.4 13.1,-2.2 21.8,-10.9 8.6,-8.7 10,-18.1 10.3,-21.3 -3.1,0 -11.9,1 -21.2,10.4 -8.5,8.4 -10.4,18.2 -10.9,21.8 z m 27.1,-27.7 0.5,0.1 0,0.5 c 0,0.3 0.2,8.2 -6.9,15.3 -3.6,3.6 -7.4,5.5 -10.4,6.4 -3,0.9 -5.1,1 -5.3,1 l -0.7,0 0,-0.7 c 0,-0.4 0.3,-8.6 7.4,-15.7 7.9,-7.8 15.1,-6.9 15.4,-6.9 z"
           id="path107"
           inkscape:connector-curvature="0"
           style="fill:none" /><path
           class="noFillSVG"
           d="m 514,628.2 c -0.9,2.1 -2.7,7.3 -1.1,13.8 l 0,0 c 1.7,7.1 5.5,10.3 7.1,11.3 0.9,-1.8 2.8,-6.8 1.3,-13.4 -1.7,-6.6 -5.6,-10.4 -7.3,-11.7 z"
           id="path109"
           inkscape:connector-curvature="0"
           style="fill:none" /><path
           class="noFillSVG"
           d="m 467.9,375.9 c 0.9,-2.1 2.7,-7.3 1.1,-13.8 l 0,0 c -1.7,-7.1 -5.5,-10.3 -7.1,-11.3 -0.9,1.8 -2.8,6.8 -1.3,13.4 1.6,6.5 5.6,10.3 7.3,11.7 z"
           id="path111"
           inkscape:connector-curvature="0"
           style="fill:none" /><path
           class="noFillSVG"
           d="m 498.7,348.1 c 0,-11.9 -5.6,-20.3 -7.8,-23.1 -2.2,2.7 -7.7,10.8 -7.7,23.1 0,12.2 5.7,19.9 7.8,22.3 2.2,-2.1 7.7,-9.1 7.7,-22.3 z m -8.2,15.6 c -0.3,-0.2 -5.9,-5.6 -5.9,-15.8 0,-10.4 5.7,-16.1 5.9,-16.3 l 0.5,-0.5 0.4,0.5 c 0.3,0.3 5.9,6.3 5.9,16.3 0,11.1 -5.7,15.6 -6,15.8 l -0.4,0.3 -0.4,-0.3 z"
           id="path113"
           inkscape:connector-curvature="0"
           style="fill:none" /><path
           class="noFillSVG"
           d="m 351.4,479.8 c 6.5,1.6 11.7,-0.2 13.8,-1.1 -1.4,-1.7 -5.1,-5.7 -11.7,-7.3 -6.6,-1.6 -11.5,0.3 -13.4,1.2 1,1.7 4.1,5.5 11.3,7.2 z"
           id="path115"
           inkscape:connector-curvature="0"
           style="fill:none" /><path
           class="noFillSVG"
           d="m 398.4,408.8 c -0.2,-3.3 -1.6,-12.7 -10.3,-21.3 -8.8,-8.7 -18.3,-10.5 -21.8,-10.9 0.5,3.6 2.4,13.4 10.8,21.9 9.4,9.3 18.2,10.3 21.3,10.3 z m -27.7,-27.8 0.7,0 c 0.5,0 8.5,0.1 15.7,7.4 7.2,7.2 6.9,15 6.9,15.3 l 0,0.5 -0.5,0.1 c -0.1,0 -0.4,0.1 -0.9,0.1 -2.2,0 -8.1,-0.7 -14.5,-7 -7.1,-7.1 -7.4,-15.4 -7.4,-15.7 l 0,-0.7 z"
           id="path117"
           inkscape:connector-curvature="0"
           style="fill:none" /><path
           class="noFillSVG"
           d="m 372.6,425.7 c 5.8,3.5 11.2,3.4 13.4,3.2 -0.8,-2.1 -3.3,-7.1 -8.9,-10.5 -6.2,-3.8 -11.2,-3.4 -13.1,-3 0.7,1.9 2.8,6.8 8.6,10.3 z"
           id="path119"
           inkscape:connector-curvature="0"
           style="fill:none" /><path
           class="noFillSVG"
           d="m 386,575.2 c -2.2,-0.3 -7.6,-0.4 -13.4,3.2 -5.8,3.5 -7.9,8.4 -8.6,10.3 1.9,0.4 6.8,0.8 13.1,-3 5.6,-3.5 8.1,-8.4 8.9,-10.5 z"
           id="path121"
           inkscape:connector-curvature="0"
           style="fill:none" /><path
           class="noFillSVG"
           d="m 539.3,277.6 c 4.9,0 4.9,-7.6 0,-7.6 -4.9,0 -4.9,7.6 0,7.6 z"
           id="path123"
           inkscape:connector-curvature="0"
           style="fill:none" /><path
           class="noFillSVG"
           d="m 534.2,297.9 c 4.9,0 4.9,-7.6 0,-7.6 -4.9,0 -4.9,7.6 0,7.6 z"
           id="path125"
           inkscape:connector-curvature="0"
           style="fill:none" /><path
           class="noFillSVG"
           d="m 620.7,305 c -4.9,0 -4.9,7.6 0,7.6 4.9,0 4.9,-7.6 0,-7.6 z"
           id="path127"
           inkscape:connector-curvature="0"
           style="fill:none" /><path
           class="noFillSVG"
           d="m 528.5,315.1 c 4.9,0 4.9,-7.6 0,-7.6 -4.9,0 -4.9,7.6 0,7.6 z"
           id="path129"
           inkscape:connector-curvature="0"
           style="fill:none" /><path
           class="noFillSVG"
           d="m 608.6,322.8 c -4.9,0 -4.9,7.6 0,7.6 4.9,0 4.9,-7.6 0,-7.6 z"
           id="path131"
           inkscape:connector-curvature="0"
           style="fill:none" /><path
           class="noFillSVG"
           d="m 595.9,341.2 c -4.9,0 -4.9,7.6 0,7.6 4.9,0 4.9,-7.6 0,-7.6 z"
           id="path133"
           inkscape:connector-curvature="0"
           style="fill:none" /><path
           class="noFillSVG"
           d="m 521.4,342.5 c 4.4,-2.4 22.1,-13.9 29.6,-44.8 6.7,-27.8 -2.9,-49.9 -5.5,-55.2 -4.7,3.3 -23.1,17.8 -30.1,46.6 -6.8,28.4 3.4,48.8 6,53.4 z m -4.1,-53.2 c 6.6,-27.4 25.8,-39.2 26,-39.3 l 0.6,-0.3 0.3,0.6 c 0.1,0.2 11.5,20.4 5.1,46.8 -3.7,15.3 -10.5,24.7 -15.5,29.9 -5.5,5.7 -10,7.7 -10.2,7.8 l -0.5,0.2 -0.3,-0.5 c -0.1,-0.1 -12,-18.4 -5.5,-45.2 z"
           id="path135"
           inkscape:connector-curvature="0"
           style="fill:none" /><path
           class="noFillSVG"
           d="m 313.5,616.7 -0.6,0 c -2,0 -3.9,1.8 -3.8,3.8 0.1,2.1 1.7,3.8 3.8,3.8 l 0.6,0 c 2,0 3.9,-1.8 3.8,-3.8 -0.1,-2.1 -1.7,-3.8 -3.8,-3.8 z"
           id="path137"
           inkscape:connector-curvature="0"
           style="fill:none" /><path
           class="noFillSVG"
           d="m 400.8,366.6 c 1,-5.7 3.7,-29 -11.7,-54.2 -15.2,-24.9 -36.9,-32.1 -42,-33.5 -1.4,4.8 -5.8,25.5 10.8,52.6 15,24.4 37.3,33.2 42.9,35.1 z m -49.7,-80.7 0.2,-0.5 0.5,0.1 c 0.2,0.1 21.5,4.6 35.8,28 14.6,23.9 9.5,45.8 9.4,46 l -0.2,0.6 -0.6,-0.2 c -0.2,-0.1 -22.5,-6.3 -36.6,-29.4 -8.2,-13.4 -10.1,-24.8 -10.2,-32 -0.1,-7.8 1.6,-12.4 1.7,-12.6 z"
           id="path139"
           inkscape:connector-curvature="0"
           style="fill:none" /><path
           class="noFillSVG"
           d="m 361.8,298.6 c -4.9,0 -4.9,7.6 0,7.6 4.9,0 4.9,-7.6 0,-7.6 z"
           id="path141"
           inkscape:connector-curvature="0"
           style="fill:none" /><path
           class="noFillSVG"
           d="m 451.5,314.5 c 4.9,0 4.9,-7.6 0,-7.6 -4.9,0 -4.9,7.6 0,7.6 z"
           id="path143"
           inkscape:connector-curvature="0"
           style="fill:none" /><path
           class="noFillSVG"
           d="m 445.8,293.5 c 4.9,0 4.9,-7.6 0,-7.6 -4.9,0 -4.9,7.6 0,7.6 z"
           id="path145"
           inkscape:connector-curvature="0"
           style="fill:none" /><path
           class="noFillSVG"
           d="m 441.3,272.5 c 4.9,0 4.9,-7.6 0,-7.6 -4.9,0 -4.9,7.6 0,7.6 z"
           id="path147"
           inkscape:connector-curvature="0"
           style="fill:none" /><path
           class="noFillSVG"
           d="m 435.3,242.3 c -2.6,4.6 -12.9,25 -6,53.4 6.9,28.7 25.3,43.2 30.1,46.6 2.6,-5.3 12.2,-27.4 5.5,-55.2 -7.4,-30.8 -25.2,-42.4 -29.6,-44.8 z m 27.8,45.4 c 6.4,26.3 -5,46.5 -5.1,46.7 l -0.3,0.6 -0.5,-0.4 c -0.2,-0.1 -19.3,-11.9 -25.9,-39.2 -6.4,-26.7 5.4,-45 5.5,-45.1 l 0.3,-0.4 0.5,0.2 c 0.2,0.1 4.7,2.1 10.2,7.8 4.9,5.2 11.6,14.6 15.3,29.8 z"
           id="path149"
           inkscape:connector-curvature="0"
           style="fill:none" /><path
           class="noFillSVG"
           d="m 723.8,553 c 4.9,0 4.9,-7.6 0,-7.6 -4.9,0 -4.9,7.6 0,7.6 z"
           id="path151"
           inkscape:connector-curvature="0"
           style="fill:none" /><path
           class="noFillSVG"
           d="m 697.6,440.1 c -28.7,6.9 -43.2,25.3 -46.6,30.1 5.3,2.6 27.4,12.2 55.2,5.5 30.8,-7.4 42.4,-25.2 44.8,-29.5 -4.7,-2.7 -25.1,-13 -53.4,-6.1 z m 45.6,8.2 c -0.1,0.2 -2.1,4.7 -7.8,10.2 -5.2,5 -14.6,11.8 -29.9,15.4 -5.8,1.4 -11.2,1.9 -16.2,1.9 -17.9,0 -30.3,-6.9 -30.5,-7 l -0.6,-0.3 0.3,-0.6 c 0.1,-0.2 11.9,-19.3 39.2,-25.9 26.7,-6.4 45,5.4 45.1,5.5 l 0.4,0.3 0,0.5 z"
           id="path153"
           inkscape:connector-curvature="0"
           style="fill:none" /><path
           class="noFillSVG"
           d="m 678,534 c -4.9,0 -4.9,7.6 0,7.6 4.9,0 4.9,-7.6 0,-7.6 z"
           id="path155"
           inkscape:connector-curvature="0"
           style="fill:none" /><path
           class="noFillSVG"
           d="m 701.5,548.6 c 4.9,0 4.9,-7.6 0,-7.6 -4.9,0 -4.9,7.6 0,7.6 z"
           id="path157"
           inkscape:connector-curvature="0"
           style="fill:none" /><path
           class="noFillSVG"
           d="m 650.8,532.2 c 2.4,4.4 13.9,22.1 44.8,29.6 27.8,6.7 49.9,-2.9 55.2,-5.5 -3.3,-4.7 -17.8,-23.1 -46.6,-30 -28.4,-6.9 -48.8,3.3 -53.4,5.9 z m 92.5,21.8 0.3,0.6 -0.6,0.3 c -0.2,0.1 -12.5,7.1 -30.6,7.1 -5,0 -10.5,-0.6 -16.3,-1.9 -15.3,-3.7 -24.7,-10.5 -29.9,-15.5 -5.7,-5.5 -7.7,-10 -7.8,-10.2 l -0.2,-0.5 0.5,-0.3 c 0.2,-0.1 18.5,-12 45.3,-5.5 27.3,6.5 39.2,25.7 39.3,25.9 z"
           id="path159"
           inkscape:connector-curvature="0"
           style="fill:none" /><path
           class="noFillSVG"
           d="m 668.4,388.3 c 4.9,0 4.9,-7.6 0,-7.6 -4.9,0 -4.9,7.6 0,7.6 z"
           id="path161"
           inkscape:connector-curvature="0"
           style="fill:none" /><path
           class="noFillSVG"
           d="m 650.6,401.6 c 4.9,0 4.9,-7.6 0,-7.6 -4.9,0 -4.9,7.6 0,7.6 z"
           id="path163"
           inkscape:connector-curvature="0"
           style="fill:none" /><path
           class="noFillSVG"
           d="m 593.5,315.3 c -16.5,27.1 -12.2,47.7 -10.8,52.6 5.1,-1.4 26.8,-8.6 42,-33.5 15.4,-25.2 12.7,-48.5 11.7,-54.2 -5.6,1.8 -28,10.7 -42.9,35.1 z m 29.8,17.9 c -14.4,23.5 -35.7,28 -35.9,28.1 l -0.5,0.1 -0.2,-0.5 c -0.1,-0.2 -1.8,-4.9 -1.7,-12.7 0.2,-7.3 2.1,-18.7 10.3,-32.1 14.2,-23.2 36.5,-29.4 36.7,-29.5 l 0.6,-0.2 0.2,0.6 c -0.1,0.3 5.1,22.2 -9.5,46.2 z"
           id="path165"
           inkscape:connector-curvature="0"
           style="fill:none" /><path
           class="noFillSVG"
           d="m 687.5,378.7 c 4.9,0 4.9,-7.6 0,-7.6 -4.9,0 -4.9,7.6 0,7.6 z"
           id="path167"
           inkscape:connector-curvature="0"
           style="fill:none" /><path
           class="noFillSVG"
           d="m 626.7,411.6 c 5.7,1 29,3.7 54.2,-11.7 24.9,-15.2 32.1,-36.9 33.5,-42 -4.8,-1.4 -25.5,-5.8 -52.6,10.8 -24.4,14.9 -33.2,37.3 -35.1,42.9 z m 36,-41.2 c 13.4,-8.2 24.8,-10.1 32,-10.2 7.9,-0.2 12.5,1.6 12.7,1.7 l 0.5,0.2 -0.1,0.5 c 0,0.2 -4.6,21.5 -28,35.8 -14,8.5 -27.3,10.3 -36,10.3 -6.2,0 -10,-0.9 -10.1,-0.9 l -0.6,-0.2 0.2,-0.6 c 0,-0.2 6.2,-22.5 29.4,-36.6 z"
           id="path169"
           inkscape:connector-curvature="0"
           style="fill:none" /><path
           class="noFillSVG"
           d="m 724.4,448.7 c -4.9,0 -4.9,7.6 0,7.6 4.9,0 4.9,-7.6 0,-7.6 z"
           id="path171"
           inkscape:connector-curvature="0"
           style="fill:none" /><path
           class="noFillSVG"
           d="m 678,459.5 c -2,0.1 -3.9,1.3 -4.3,3.4 -0.3,2 0.5,4.2 2.7,4.7 1.5,0.3 3.3,-0.2 4.2,-1.6 0.8,-0.7 1.3,-1.6 1.2,-2.7 -0.1,-1.9 -1.7,-3.9 -3.8,-3.8 z"
           id="path173"
           inkscape:connector-curvature="0"
           style="fill:none" /><path
           class="noFillSVG"
           d="m 702.8,455.1 c -4.9,0 -4.9,7.6 0,7.6 4.9,0 4.9,-7.6 0,-7.6 z"
           id="path175"
           inkscape:connector-curvature="0"
           style="fill:none" /><path
           class="noFillSVG"
           d="m 302.8,463.5 0.6,-0.6 c 1.5,-1.5 1.5,-3.9 0,-5.4 -1.5,-1.5 -3.9,-1.5 -5.4,0 -0.2,0.2 -0.4,0.4 -0.6,0.6 -1.5,1.5 -1.5,3.9 0,5.4 1.5,1.5 3.9,1.5 5.4,0 z"
           id="path177"
           inkscape:connector-curvature="0"
           style="fill:none" /><path
           class="noFillSVG"
           d="m 286.9,561.8 c 30.8,-7.5 42.4,-25.2 44.8,-29.6 -4.6,-2.6 -25,-12.8 -53.4,-6 -28.8,6.9 -43.3,25.3 -46.6,30 5.3,2.7 27.4,12.3 55.2,5.6 z M 239.2,554 c 0.1,-0.2 12,-19.4 39.3,-26 26.7,-6.5 45.1,5.4 45.3,5.5 l 0.5,0.3 -0.2,0.5 c -0.1,0.2 -2.1,4.7 -7.8,10.2 -5.2,5 -14.7,11.8 -29.9,15.5 -5.8,1.4 -11.2,1.9 -16.3,1.9 -18,0 -30.4,-7 -30.6,-7.1 l -0.6,-0.3 0.3,-0.5 z"
           id="path179"
           inkscape:connector-curvature="0"
           style="fill:none" /><path
           class="noFillSVG"
           d="m 291.8,374.3 c 4.9,0 4.9,-7.6 0,-7.6 -4.9,0 -4.9,7.6 0,7.6 z"
           id="path181"
           inkscape:connector-curvature="0"
           style="fill:none" /><path
           class="noFillSVG"
           d="m 269.4,356.9 c 1.9,5.6 10.7,28 35.1,42.9 27.1,16.6 47.8,12.2 52.6,10.8 -1.4,-5.1 -8.6,-26.8 -33.5,-42 -25.3,-15.5 -48.5,-12.7 -54.2,-11.7 z m 53.1,13.1 c 23.5,14.4 28,35.7 28.1,35.9 l 0.1,0.5 -0.5,0.2 c -0.2,0.1 -4.5,1.7 -11.7,1.7 l -1,0 C 330.2,408.1 318.8,406.2 305.4,398 282.2,383.8 276,361.5 275.9,361.3 l -0.2,-0.6 0.6,-0.2 c 0.2,0 22.1,-5.2 46.2,9.5 z"
           id="path183"
           inkscape:connector-curvature="0"
           style="fill:none" /><path
           class="noFillSVG"
           d="m 325.5,395.3 c 4.9,0 4.9,-7.6 0,-7.6 -4.9,0 -4.9,7.6 0,7.6 z"
           id="path185"
           inkscape:connector-curvature="0"
           style="fill:none" /><path
           class="noFillSVG"
           d="m 302.6,543.5 c 4.9,0 4.9,-7.6 0,-7.6 -4.9,0 -4.9,7.6 0,7.6 z"
           id="path187"
           inkscape:connector-curvature="0"
           style="fill:none" /><path
           class="noFillSVG"
           d="m 331.5,470.1 c -3.3,-4.7 -17.8,-23.1 -46.6,-30.1 -28.4,-6.8 -48.8,3.4 -53.4,6 2.4,4.4 13.9,22.1 44.8,29.6 27.9,6.8 50,-2.8 55.2,-5.5 z m -92.2,-21.8 -0.2,-0.5 0.4,-0.3 c 0.2,-0.1 18.5,-12 45.1,-5.5 27.3,6.6 39.1,25.7 39.2,25.9 l 0.4,0.6 -0.6,0.3 c -0.2,0.1 -12.5,7 -30.5,7 -5,0 -10.5,-0.5 -16.2,-1.9 -15.2,-3.7 -24.7,-10.4 -29.9,-15.4 -5.6,-5.5 -7.6,-10 -7.7,-10.2 z"
           id="path189"
           inkscape:connector-curvature="0"
           style="fill:none" /><path
           class="noFillSVG"
           d="m 282.3,548.6 c 4.9,0 4.9,-7.6 0,-7.6 -4.9,0 -4.9,7.6 0,7.6 z"
           id="path191"
           inkscape:connector-curvature="0"
           style="fill:none" /><path
           class="noFillSVG"
           d="m 258.7,553 c 4.9,0 4.9,-7.6 0,-7.6 -4.9,0 -4.9,7.6 0,7.6 z"
           id="path193"
           inkscape:connector-curvature="0"
           style="fill:none" /><path
           class="noFillSVG"
           d="m 331.3,605.8 c -4.9,0 -4.9,7.6 0,7.6 4.9,0.1 4.9,-7.6 0,-7.6 z"
           id="path195"
           inkscape:connector-curvature="0"
           style="fill:none" /><path
           class="noFillSVG"
           d="m 256.2,448.1 c -4.9,0 -4.9,7.6 0,7.6 4.9,0 4.9,-7.6 0,-7.6 z"
           id="path197"
           inkscape:connector-curvature="0"
           style="fill:none" /><path
           class="noFillSVG"
           d="m 308.4,384.5 c 4.9,0 4.9,-7.6 0,-7.6 -4.9,-0.1 -4.9,7.6 0,7.6 z"
           id="path199"
           inkscape:connector-curvature="0"
           style="fill:none" /><path
           class="noFillSVG"
           d="m 357.1,593.5 c -4.8,-1.4 -25.5,-5.8 -52.6,10.8 -24.4,14.9 -33.3,37.3 -35.1,42.9 5.7,1 29,3.7 54.2,-11.7 24.9,-15.2 32.1,-36.9 33.5,-42 z M 322.5,634 c -14,8.6 -27.4,10.4 -36.1,10.4 -6.2,0 -10,-0.9 -10.1,-0.9 l -0.6,-0.2 0.2,-0.6 c 0.1,-0.2 6.3,-22.6 29.5,-36.7 13.4,-8.2 24.9,-10.1 32.1,-10.3 7.9,-0.1 12.5,1.6 12.7,1.7 l 0.5,0.2 -0.1,0.5 c -0.1,0.2 -4.6,21.6 -28.1,35.9 z"
           id="path201"
           inkscape:connector-curvature="0"
           style="fill:none" /><path
           class="noFillSVG"
           d="m 277.8,452.5 c -4.9,0 -4.9,7.6 0,7.6 4.9,0.1 4.9,-7.6 0,-7.6 z"
           id="path203"
           inkscape:connector-curvature="0"
           style="fill:none" /><path
           class="noFillSVG"
           d="m 385.3,343.7 c 4.9,0 4.9,-7.6 0,-7.6 -4.9,0 -4.9,7.6 0,7.6 z"
           id="path205"
           inkscape:connector-curvature="0"
           style="fill:none" /><path
           class="noFillSVG"
           d="m 372.6,322.8 c 4.9,0 4.9,-7.6 0,-7.6 -4.9,-0.1 -4.9,7.6 0,7.6 z"
           id="path207"
           inkscape:connector-curvature="0"
           style="fill:none" /><path
           d="m 831.4,548 c -8.6,-7.6 -20.2,-16.5 -34.8,-24.8 20.5,-9.6 32.2,-20.4 32.4,-20.6 l 0.9,-0.9 -0.9,-0.9 c -0.4,-0.4 -8.9,-8.9 -25.2,-17.6 -1.9,-1 -3.9,-2 -6.1,-3 42.5,-24.5 61.6,-55.5 61.9,-55.9 l 0.7,-1.1 -1.1,-0.6 c -0.6,-0.3 -58,-32.7 -134.3,-17.2 64.9,-43 82.6,-106.5 82.8,-107.2 l 0.3,-1.3 -1.2,-0.3 c -0.2,0 -16.9,-4.1 -42.4,-2.6 -11.2,0.7 -25.2,2.5 -40.9,6.8 0.8,-2.2 1.5,-4.4 2.1,-6.4 5.4,-17.7 5.4,-29.8 5.4,-30.3 l 0,-1.3 -1.3,0.1 c -0.3,0 -16.2,0.6 -37.5,8.3 13.2,-48 4.7,-84 4.6,-84.5 l -0.3,-1.2 -1.2,0.3 c -0.7,0.2 -64.1,17.9 -107.2,82.8 15.5,-76.3 -16.9,-133.7 -17.2,-134.3 l -0.7,-1.1 -1.1,0.7 c -0.2,0.1 -14.9,9.1 -31.8,28.2 -7.6,8.6 -16.5,20.2 -24.8,34.8 -9.6,-20.5 -20.4,-32.2 -20.6,-32.4 l -0.9,-0.9 -0.9,0.9 c -0.4,0.4 -8.9,8.9 -17.6,25.2 -1,1.9 -2,3.9 -3,6.1 C 445,153.3 414,134.2 413.6,133.9 l -1.1,-0.7 -0.6,1.1 c -0.3,0.6 -32.7,58 -17.2,134.3 -43,-64.9 -106.5,-82.6 -107.2,-82.8 l -1.3,-0.3 -0.3,1.2 c 0,0.2 -4.1,16.9 -2.6,42.4 0.7,11.2 2.5,25.2 6.8,40.9 -2.2,-0.8 -4.4,-1.5 -6.4,-2.1 -17.7,-5.4 -29.8,-5.4 -30.3,-5.4 l -1.4,0 0.1,1.3 c 0,0.3 0.6,16.2 8.3,37.5 -48,-13.2 -84,-4.7 -84.5,-4.6 l -1.2,0.3 0.3,1.3 c 0.2,0.7 17.9,64.1 82.8,107.2 -76.3,-15.5 -133.7,16.9 -134.3,17.2 l -1.1,0.6 0.7,1.1 c 0.1,0.2 9.1,14.9 28.2,31.8 8.4,7.4 19.6,16 33.7,24.1 -2.2,1 -4.2,2 -6.1,3 -16.3,8.7 -24.9,17.3 -25.2,17.6 l -0.9,0.9 0.9,0.9 c 0.2,0.2 11.9,11 32.4,20.6 -43.2,24.6 -62.7,56.1 -63,56.5 l -0.7,1.1 1.1,0.7 c 0.5,0.3 38,21.4 92.5,21.4 13,0 27,-1.2 41.8,-4.2 -64.9,43 -82.6,106.5 -82.8,107.2 l -0.3,1.2 1.2,0.3 c 0.2,0 12,2.9 31,2.9 3.6,0 7.4,-0.1 11.4,-0.4 11.5,-0.7 25.9,-2.6 42.1,-7.1 -7.7,21.3 -8.3,37.2 -8.3,37.4 l -0.1,1.3 1.3,0 c 0,0 0.1,0 0.1,0 1,0 13,-0.1 30.3,-5.4 2,-0.6 4.2,-1.3 6.5,-2.1 -12.7,47.4 -4.4,82.8 -4.2,83.3 l 0.3,1.2 1.3,-0.3 c 0.7,-0.2 64.1,-17.9 107.2,-82.8 -15.5,76.3 16.9,133.7 17.2,134.3 l 0.6,1.1 1.1,-0.7 c 0.2,-0.1 14.9,-9.1 31.8,-28.1 7.4,-8.4 16,-19.6 24.1,-33.7 1,2.2 2,4.2 3,6.1 8.7,16.3 17.3,24.9 17.6,25.2 l 0.9,0.9 0.9,-0.9 c 0.2,-0.2 11,-11.9 20.6,-32.4 24.6,43.3 56.1,62.7 56.5,63 l 1.1,0.7 0.7,-1.1 c 0.3,-0.6 32.7,-58 17.2,-134.3 43,64.9 106.5,82.6 107.2,82.8 l 1.2,0.3 0.3,-1.2 c 0,-0.2 4.1,-16.9 2.6,-42.4 -0.7,-11.5 -2.6,-25.9 -7.1,-42.1 21.3,7.7 37.2,8.3 37.5,8.3 l 1.3,0 0,-1.3 c 0,-0.5 0,-12.6 -5.4,-30.3 -0.6,-2 -1.3,-4.2 -2.1,-6.5 20.4,5.4 38.6,7 52.7,7 18.7,0 30.3,-2.7 30.6,-2.8 l 1.2,-0.3 -0.3,-1.2 c -0.2,-0.7 -17.9,-64.1 -82.8,-107.2 14.7,3 28.7,4.2 41.8,4.2 54.6,0 92.1,-21.1 92.5,-21.4 l 1.1,-0.7 -0.7,-1.1 c -0.2,-0.1 -9.2,-14.8 -28.3,-31.7 z m -31.9,-52.8 c 8.2,0 8.2,12.7 0,12.7 -8.2,0 -8.2,-12.7 0,-12.7 z M 709.1,278.9 c 8.2,0 8.2,12.7 0,12.7 -8.2,0 -8.1,-12.7 0,-12.7 z M 490.9,189.2 c 8.2,0 8.2,12.7 0,12.7 -8.1,0 -8.1,-12.7 0,-12.7 z m -215,91.6 c 8.2,0 8.2,12.7 0,12.7 -8.2,0 -8.1,-12.7 0,-12.7 z m -87.1,214.4 c 8.2,0 8.2,12.7 0,12.7 -8.2,0 -8.2,-12.7 0,-12.7 z m 87.1,228.3 c -8.2,0 -8.2,-12.7 0,-12.7 8.2,0 8.2,12.7 0,12.7 z m 214.4,89.1 c -8.2,0 -8.2,-12.7 0,-12.7 8.2,0 8.2,12.7 0,12.7 z m 218.8,-88.4 c -8.2,0 -8.2,-12.7 0,-12.7 8.2,-0.1 8.2,12.7 0,12.7 z M 736,598.1 c -5.7,-0.8 -11.5,-1.9 -17.4,-3.4 -0.1,-0.1 -0.2,-0.1 -0.3,-0.2 l -0.1,0.1 c -0.1,0 -0.3,-0.1 -0.4,-0.1 l -0.1,0.3 -0.2,0.8 -0.6,1 c 0.1,0.1 0.2,0.1 0.3,0.2 l 0,0.1 c 0.1,0 0.2,0.1 0.3,0.1 2.5,1.5 4.9,3.1 7.3,4.7 47.2,33.2 59.1,84.6 60.6,91.6 -4.8,1.5 -31.1,8.8 -64.6,3.1 -5.9,-14 -15.5,-31 -31.1,-47.4 4.5,0.9 8.5,1.2 12.1,1.2 8.9,0 14.2,-2 14.7,-2.2 l 1,-0.4 -0.2,-1 c -0.2,-1.1 -5.8,-26.9 -35,-44.7 -29.9,-18.3 -56.3,-12 -57.5,-11.7 l -1.3,0.3 0.4,1.2 c 0.1,0.3 7.8,28.1 36.7,45.7 9.1,5.5 17.4,8.8 24.7,10.7 l -0.1,0.1 c 16.4,16.4 26.5,33.5 32.6,47.8 -13,-2.5 -27.1,-7 -41.3,-14.5 -2.8,-1.5 -5.5,-3.1 -8.3,-4.8 l -0.8,1.4 -0.3,0.2 -0.8,0.5 -0.3,0.2 c 3.4,5.6 6.5,11.2 9.2,16.7 5,11 8.4,21.9 10.6,32.1 -15,-6.3 -32,-16.3 -47.7,-32.1 -1.8,-8.2 -5.1,-17.5 -11,-27.2 -17.9,-29.2 -43.7,-34.7 -44.8,-35 l -1,-0.2 -0.4,1 c -0.4,1 -8.9,23.9 10.6,55.9 17.6,28.9 45.4,36.6 45.7,36.7 l 1.2,0.4 0.3,-1.3 c 0.2,-0.7 2.6,-11 0.2,-25.9 15.8,15.1 32.7,24.7 47.5,30.8 6.7,35.3 -0.6,63 -2.1,67.9 -6.8,-1.5 -53.9,-13 -87.8,-55.5 -3.4,-4.7 -6.8,-9.5 -10,-14.8 0,-0.1 -0.1,-0.2 -0.1,-0.3 l -0.1,0 c -0.1,-0.1 -0.2,-0.2 -0.2,-0.3 l -1,0.6 -0.8,0.2 -0.3,0.1 c 0,0.1 0.1,0.3 0.1,0.4 l -0.1,0.1 c 0.1,0.1 0.1,0.2 0.2,0.3 1.4,5.9 2.5,11.8 3.4,17.5 6.2,54.1 -19,95.6 -22.8,101.4 -4.6,-2.5 -29.4,-16.8 -49.5,-46.6 6.2,-14.8 11.3,-33.5 11.9,-55.4 8.8,12.3 17.8,17.9 18.4,18.2 l 1.1,0.7 0.6,-1.1 c 0.2,-0.3 14.4,-25.4 6.4,-58.2 -8.8,-36.5 -31.1,-46.6 -32,-47 l -1,-0.4 -0.6,0.9 c -0.6,0.9 -15,23.1 -6.9,56.4 2.7,11 6.9,19.9 11.4,27 0,22.3 -4.9,41.3 -11.1,56.5 -5.7,-8.8 -11,-18.8 -15.2,-30.2 -2,-5.8 -3.7,-11.9 -5.3,-18.3 l -1.4,0.3 -0.2,0 -1.6,-0.4 c -0.7,3.1 -1.6,6.2 -2.4,9.2 -4.8,15.4 -11.5,28.6 -19,39.6 -5.8,-14.4 -10.8,-33.6 -10.8,-56.8 l -0.1,0 c 3.9,-6.5 7.5,-14.7 9.9,-25 7.9,-32.9 -6.3,-58 -6.4,-58.2 l -0.7,-1.1 -1.1,0.7 c -1,0.6 -24.1,14.9 -32.3,48.9 -8,33.3 6.3,55.4 6.9,56.4 l 0.6,0.9 1,-0.4 c 0.6,-0.3 10.5,-4.8 19.6,-18.2 0.5,22.7 5.7,41.5 11.5,55.5 -19.7,27.8 -43.4,41.1 -47.9,43.5 -4,-6 -31.9,-50.8 -21.9,-107.7 0.5,-2.7 1.1,-5.5 1.8,-8.4 0.1,-0.1 0.1,-0.2 0.2,-0.3 l -0.1,-0.1 c 0,-0.1 0.1,-0.3 0.1,-0.4 l -1.1,-0.3 -1,-0.6 c -0.1,0.1 -0.1,0.2 -0.2,0.3 l -0.1,0 c 0,0.1 -0.1,0.2 -0.1,0.3 -1.6,2.5 -3.1,5 -4.7,7.3 -33.2,47.2 -84.5,59.1 -91.6,60.5 -1.5,-4.8 -8.8,-31.1 -3.1,-64.6 14,-5.9 31,-15.4 47.4,-31.1 -3,16 0.8,26.1 1,26.8 l 0.4,1 1,-0.2 c 1.1,-0.2 26.9,-5.8 44.7,-35 18.3,-29.9 12,-56.3 11.7,-57.5 l -0.3,-1.2 -1.2,0.3 c -0.3,0.1 -28.1,7.8 -45.7,36.7 -5.5,9.1 -8.8,17.4 -10.7,24.7 l -0.1,0 c -16.4,16.4 -33.5,26.5 -47.8,32.6 2.5,-13.1 7,-27.1 14.6,-41.4 1.5,-2.7 3.1,-5.5 4.8,-8.3 l -1.3,-0.8 -0.2,-0.3 -0.5,-0.8 -0.2,-0.3 c -5.6,3.4 -11.2,6.5 -16.7,9.2 -11.1,5 -21.9,8.4 -32.1,10.6 6.4,-15 16.3,-32 32.1,-47.7 8.2,-1.8 17.5,-5.1 27.2,-11 29.2,-17.9 34.7,-43.7 35,-44.8 l 0.2,-1 -1,-0.4 c -1,-0.4 -23.9,-8.9 -55.9,10.6 -28.8,17.6 -36.6,45.4 -36.6,45.7 l -0.4,1.2 1.3,0.3 c 0.5,0.1 5.3,1.3 12.9,1.3 3.7,0 8.2,-0.3 13.1,-1.1 -15.1,15.8 -24.7,32.7 -30.8,47.5 -35.3,6.7 -63,-0.6 -68,-2.1 1.5,-6.8 13,-53.9 55.6,-87.8 4.7,-3.4 9.5,-6.8 14.8,-10 0.1,0 0.2,-0.1 0.3,-0.1 l 0,-0.1 c 0.1,-0.1 0.2,-0.2 0.3,-0.2 l -0.6,-1 -0.2,-0.8 -0.1,-0.3 c -0.1,0 -0.3,0.1 -0.4,0.1 l -0.1,-0.1 c -0.1,0.1 -0.2,0.1 -0.3,0.2 -6,1.4 -11.8,2.5 -17.5,3.4 -54,6.2 -95.5,-19 -101.4,-22.8 2.5,-4.6 16.8,-29.4 46.6,-49.5 14.8,6.2 33.5,11.3 55.4,11.9 -12.3,8.8 -17.9,17.8 -18.2,18.4 l -0.7,1.1 1.1,0.6 c 0.2,0.1 15.6,8.8 38,8.8 6.3,0 13.1,-0.7 20.2,-2.4 36.5,-8.8 46.6,-31.1 47,-32 l 0.4,-1 -0.9,-0.6 c -0.9,-0.6 -23.1,-15 -56.4,-6.9 -11,2.7 -19.9,6.9 -27,11.4 -22.3,0 -41.3,-4.9 -56.5,-11.1 8.8,-5.7 18.8,-11 30.2,-15.2 5.8,-2 11.9,-3.7 18.3,-5.3 l -0.3,-1.4 -0.1,-0.2 0.4,-1.6 c -3.1,-0.7 -6.2,-1.6 -9.2,-2.4 -15.5,-4.8 -28.6,-11.5 -39.6,-19 14.4,-5.8 33.6,-10.8 56.8,-10.8 l 0,-0.1 c 6.5,3.9 14.7,7.5 25,9.9 7.2,1.7 14,2.4 20.2,2.4 22.4,0 37.8,-8.7 38,-8.8 l 1.1,-0.7 -0.7,-1.1 c -0.6,-1 -14.9,-24.1 -48.9,-32.3 -33.3,-8 -55.4,6.3 -56.4,6.9 l -0.9,0.6 0.4,1 c 0.3,0.6 4.8,10.5 18.2,19.6 -22.7,0.5 -41.5,5.7 -55.5,11.5 -27.8,-19.7 -41.2,-43.4 -43.5,-47.9 6,-4 50.9,-31.9 107.8,-21.9 2.7,0.6 5.5,1.1 8.3,1.8 0.1,0.1 0.2,0.1 0.3,0.2 l 0.1,-0.1 c 0.1,0 0.3,0.1 0.4,0.1 l 0.3,-1.1 0.6,-1 c -0.1,-0.1 -0.2,-0.1 -0.3,-0.2 l 0,-0.1 c -0.1,0 -0.2,-0.1 -0.3,-0.1 -5.2,-3.2 -10.1,-6.5 -14.8,-10 -42.6,-33.9 -54.1,-81 -55.6,-87.8 5,-1.5 32.7,-8.9 68,-2.1 6.1,14.9 15.7,31.7 30.8,47.5 -14.9,-2.4 -25.2,0 -25.9,0.2 l -1.3,0.3 0.4,1.2 c 0.1,0.3 7.8,28.1 36.6,45.7 16.9,10.3 31.2,12.8 41.2,12.8 8.9,0 14.2,-2 14.7,-2.2 l 1,-0.4 -0.2,-1 c -0.2,-1.1 -5.8,-26.9 -35,-44.8 -9.7,-5.9 -19,-9.2 -27.2,-11 -15.8,-15.8 -25.7,-32.7 -32.1,-47.7 10.1,2.1 20.8,5.4 31.8,10.4 5.6,2.8 11.2,5.9 17,9.3 l 0.2,-0.3 0.5,-0.8 0.2,-0.3 1.3,-0.8 c -1.7,-2.8 -3.3,-5.5 -4.8,-8.3 -7.6,-14.3 -12.1,-28.3 -14.6,-41.4 14.3,6.1 31.4,16.2 47.8,32.6 l 0.1,-0.1 c 1.8,7.3 5.1,15.7 10.7,24.7 17.6,28.9 45.4,36.6 45.7,36.7 l 1.2,0.3 0.3,-1.2 c 0.3,-1.1 6.5,-27.6 -11.7,-57.5 -17.8,-29.2 -43.6,-34.7 -44.7,-35 l -1,-0.2 -0.4,1 c -0.2,0.6 -4,10.8 -1,26.7 -16.4,-15.7 -33.4,-25.3 -47.4,-31.1 -5.7,-33.6 1.6,-59.8 3.1,-64.6 7,1.4 58.4,13.4 91.6,60.6 1.6,2.4 3.2,4.8 4.7,7.3 0,0.1 0.1,0.2 0.1,0.3 l 0.1,0 c 0.1,0.1 0.2,0.2 0.2,0.3 l 1,-0.6 1.1,-0.3 c 0,-0.1 -0.1,-0.3 -0.1,-0.4 l 0.1,-0.1 c -0.1,-0.1 -0.1,-0.2 -0.2,-0.3 -0.7,-2.8 -1.3,-5.6 -1.8,-8.4 -10,-56.9 17.9,-101.7 21.9,-107.7 4.5,2.3 28.2,15.8 47.9,43.5 -5.8,14 -11,32.8 -11.5,55.5 -9.2,-13.4 -19,-17.9 -19.6,-18.2 l -1,-0.4 -0.6,0.9 c -0.6,0.9 -15,23.1 -6.9,56.4 8.2,34 31.3,48.3 32.3,48.9 l 1.1,0.7 0.7,-1.1 c 0.2,-0.3 14.4,-25.4 6.4,-58.2 -2.5,-10.3 -6.1,-18.5 -9.9,-25 l 0.1,0 c 0,-23.2 5,-42.4 10.8,-56.9 7.6,11.2 14.4,24.5 19.2,40.3 0.8,2.8 1.6,5.6 2.3,8.5 l 1.6,-0.4 0.2,0.1 1.4,0.3 c 1.6,-6.4 3.3,-12.5 5.3,-18.3 4.3,-11.4 9.5,-21.4 15.2,-30.2 6.1,15.1 11.1,34.2 11.1,56.5 -4.5,7.1 -8.8,16 -11.4,27 -8,33.3 6.3,55.4 6.9,56.4 l 0.6,0.9 1,-0.4 c 0.9,-0.4 23.2,-10.6 32,-47 7.9,-32.8 -6.3,-58 -6.4,-58.2 l -0.6,-1.1 -1.1,0.7 c -0.6,0.4 -9.7,6 -18.4,18.2 -0.5,-21.9 -5.6,-40.6 -11.9,-55.4 20.2,-29.7 45,-44.1 49.5,-46.6 3.8,5.9 29,47.4 22.8,101.4 -0.8,5.7 -1.9,11.5 -3.4,17.5 -0.1,0.1 -0.1,0.2 -0.2,0.3 l 0.1,0.1 c 0,0.1 -0.1,0.3 -0.1,0.4 l 0.3,0.1 0.8,0.2 1,0.6 c 0.1,-0.1 0.1,-0.2 0.2,-0.3 l 0.1,0 c 0,-0.1 0.1,-0.2 0.1,-0.3 3.2,-5.2 6.5,-10.1 10,-14.8 33.9,-42.5 81,-54.1 87.8,-55.6 1.5,5 8.8,32.7 2.1,68 -14.8,6.1 -31.7,15.7 -47.5,30.8 2.4,-14.9 0,-25.2 -0.2,-25.9 l -0.3,-1.3 -1.2,0.4 c -0.3,0.1 -28.1,7.8 -45.7,36.6 -19.5,32 -11,54.9 -10.6,55.9 l 0.4,1 1,-0.2 c 1.1,-0.2 26.9,-5.8 44.8,-35 5.9,-9.7 9.2,-19 11,-27.2 15.8,-15.7 32.7,-25.7 47.7,-32.1 -2.2,10.2 -5.5,21 -10.6,32.1 -2.7,5.5 -5.8,11.1 -9.2,16.7 l 0.3,0.2 0.8,0.5 0.3,0.2 0.8,1.3 c 2.8,-1.7 5.6,-3.3 8.4,-4.8 14.2,-7.5 28.2,-12 41.3,-14.5 -6.3,14.8 -16.4,31.7 -32.5,47.8 l 0,0.1 c -7.3,1.8 -15.6,5.1 -24.7,10.7 -28.9,17.6 -36.6,45.4 -36.7,45.7 l -0.4,1.2 1.3,0.3 c 0.5,0.1 5.3,1.2 12.9,1.2 10.7,0 27.1,-2.3 44.6,-13 29.2,-17.8 34.7,-43.6 35,-44.7 l 0.2,-1 -1,-0.4 c -0.6,-0.2 -10.8,-4 -26.8,-1 C 705.4,339 715,322 720.8,308 c 33.6,-5.7 59.8,1.6 64.6,3.1 -1.4,7 -13.3,58.4 -60.5,91.6 -2.4,1.6 -4.8,3.2 -7.4,4.8 -0.1,0 -0.2,0.1 -0.3,0.1 l 0,0.1 c -0.1,0.1 -0.2,0.2 -0.3,0.2 l 0.6,1 0.3,1.1 c 0.1,0 0.3,-0.1 0.4,-0.1 l 0.1,0.1 c 0.1,-0.1 0.2,-0.1 0.3,-0.2 2.8,-0.7 5.5,-1.2 8.3,-1.8 56.9,-10.1 101.8,17.9 107.8,21.9 -2.3,4.5 -15.8,28.2 -43.5,47.9 -14,-5.8 -32.8,-11 -55.5,-11.5 13.4,-9.2 17.9,-19 18.2,-19.6 l 0.4,-1 -0.9,-0.6 c -0.9,-0.6 -23.1,-15 -56.4,-6.9 -34,8.2 -48.3,31.3 -48.9,32.3 l -0.7,1.1 1.1,0.7 c 0.2,0.1 15.6,8.8 38,8.8 6.3,0 13.1,-0.7 20.2,-2.4 10.3,-2.5 18.5,-6.1 25,-9.9 l 0,0.1 c 23.2,0 42.4,5 56.8,10.8 -11,7.5 -24.1,14.2 -39.6,19 -3,0.9 -6.1,1.7 -9.2,2.4 l 0.4,1.6 0,0.2 -0.3,1.4 c 6.4,1.6 12.5,3.3 18.3,5.3 11.4,4.2 21.4,9.5 30.2,15.2 -15.1,6.1 -34.2,11.1 -56.5,11.1 -7.1,-4.5 -16,-8.8 -27,-11.4 -33.3,-8 -55.4,6.3 -56.4,6.9 l -0.9,0.6 0.4,1 c 0.4,0.9 10.6,23.2 47,32 7.2,1.7 14,2.4 20.2,2.4 22.4,0 37.8,-8.7 38,-8.8 l 1.1,-0.6 -0.7,-1.1 c -0.4,-0.6 -6,-9.7 -18.2,-18.4 21.9,-0.5 40.6,-5.6 55.4,-11.9 29.7,20.2 44.1,45 46.6,49.5 -5.8,3 -47.3,28.2 -101.3,22 z m -74.1,37.2 c -24.4,-14.9 -33.2,-37.3 -35.1,-42.9 5.7,-1 28.9,-3.7 54.2,11.7 24.9,15.2 32.1,36.9 33.5,42 -4.9,1.4 -25.5,5.8 -52.6,-10.8 z m -25.5,88.6 c -5.6,-1.9 -28,-10.7 -42.9,-35.1 -16.5,-27.1 -12.2,-47.8 -10.8,-52.6 5.1,1.4 26.8,8.6 42,33.5 15.4,25.2 12.7,48.5 11.7,54.2 z m -121,-9 c -6.8,-28.3 3.4,-48.8 6,-53.4 4.4,2.4 22.1,13.9 29.6,44.8 6.7,27.8 -2.9,49.9 -5.5,55.2 -4.7,-3.3 -23.1,-17.8 -30.1,-46.6 z m -80.1,46.8 c -2.6,-4.6 -12.8,-25 -6,-53.4 6.9,-28.7 25.3,-43.2 30.1,-46.6 2.6,5.3 12.2,27.4 5.5,55.2 -7.4,30.8 -25.2,42.4 -29.6,44.8 z m -77.4,-89.1 c 14.9,-24.4 37.3,-33.2 42.9,-35.1 1,5.7 3.7,29 -11.7,54.2 -15.2,24.9 -36.9,32.1 -42,33.5 -1.3,-4.8 -5.7,-25.5 10.8,-52.6 z m -88.5,-25.4 c 1.9,-5.6 10.7,-28 35.1,-42.9 27.1,-16.5 47.8,-12.1 52.6,-10.8 -1.4,5.1 -8.6,26.8 -33.5,42 -25.3,15.4 -48.5,12.7 -54.2,11.7 z m 8.9,-121 c 28.3,-6.9 48.8,3.4 53.4,6 -2.4,4.4 -13.9,22.1 -44.8,29.6 -27.8,6.7 -49.9,-2.9 -55.2,-5.5 3.4,-4.8 17.8,-23.1 46.6,-30.1 z m -46.7,-80.1 c 4.6,-2.6 25,-12.8 53.4,-6 28.7,6.9 43.2,25.3 46.6,30.1 -5.3,2.6 -27.3,12.2 -55.2,5.5 -30.9,-7.5 -42.4,-25.2 -44.8,-29.6 z m 92,-77.5 c 24.9,15.2 32.1,36.9 33.5,42 -4.8,1.4 -25.4,5.8 -52.6,-10.8 -24.4,-14.9 -33.3,-37.3 -35.1,-42.9 5.7,-1 28.9,-3.8 54.2,11.7 z m 23.6,-89.8 c 5.1,1.4 26.8,8.6 42,33.5 15.4,25.2 12.7,48.5 11.7,54.2 -5.6,-1.9 -28,-10.7 -42.9,-35.1 -16.6,-27.1 -12.2,-47.7 -10.8,-52.6 z m 117.7,8.3 c 6.7,27.8 -2.9,49.9 -5.5,55.2 -4.7,-3.3 -23.1,-17.8 -30.1,-46.6 -6.8,-28.3 3.4,-48.8 6,-53.4 4.4,2.4 22.2,14 29.6,44.8 z m 80.6,-44.6 c 2.6,5.3 12.2,27.3 5.5,55.2 -7.5,30.8 -25.2,42.4 -29.6,44.8 -2.6,-4.6 -12.9,-25 -6,-53.4 7,-28.8 25.4,-43.3 30.1,-46.6 z m 79.2,91.8 c -15.2,24.9 -36.9,32.1 -42,33.5 -1.4,-4.8 -5.8,-25.5 10.8,-52.6 14.9,-24.4 37.3,-33.2 42.9,-35.1 1,5.8 3.7,29 -11.7,54.2 z m 89.7,23.6 c -1.4,5.1 -8.6,26.8 -33.5,42 -25.2,15.4 -48.5,12.7 -54.2,11.7 1.9,-5.6 10.7,-28 35.1,-42.9 27.1,-16.6 47.8,-12.1 52.6,-10.8 z m -8.2,117.7 c -27.8,6.7 -49.9,-2.9 -55.2,-5.5 3.4,-4.7 17.9,-23.1 46.6,-30.1 28.3,-6.8 48.8,3.4 53.4,6 -2.5,4.5 -14,22.2 -44.8,29.6 z m 44.6,80.6 c -5.3,2.6 -27.4,12.2 -55.2,5.5 -30.8,-7.5 -42.4,-25.2 -44.8,-29.6 4.6,-2.6 25,-12.8 53.4,-6 28.7,7 43.2,25.4 46.6,30.1 z"
           id="path209"
           inkscape:connector-curvature="0" /><path
           d="m 490.1,373.2 0.8,0.7 0.8,-0.6 c 0.4,-0.3 9.5,-7.5 9.5,-25.1 0,-15.9 -9,-25.5 -9.4,-26 l -0.9,-0.9 -0.9,0.9 c -0.4,0.4 -9.4,9.5 -9.4,26 0,16 9.1,24.6 9.5,25 z m 0.8,-48.2 c 2.2,2.8 7.8,11.2 7.8,23.1 0,13.2 -5.5,20.1 -7.7,22.3 -2.2,-2.5 -7.8,-10.2 -7.8,-22.3 0,-12.3 5.5,-20.4 7.7,-23.1 z"
           id="path211"
           inkscape:connector-curvature="0" /><path
           d="m 497.3,348 c 0,-10 -5.6,-16.1 -5.9,-16.3 l -0.4,-0.5 -0.5,0.5 c -0.2,0.2 -5.9,6 -5.9,16.3 0,10.1 5.7,15.5 5.9,15.8 l 0.4,0.4 0.4,-0.3 c 0.3,-0.4 6,-4.9 6,-15.9 z"
           id="path213"
           inkscape:connector-curvature="0" /><path
           d="m 522.8,334.6 0.3,0.5 0.5,-0.2 c 0.2,-0.1 4.7,-2.1 10.2,-7.8 5,-5.2 11.8,-14.7 15.5,-29.9 6.4,-26.4 -5,-46.6 -5.1,-46.8 l -0.3,-0.6 -0.6,0.3 c -0.2,0.1 -19.4,12 -26,39.3 -6.5,26.7 5.4,45 5.5,45.2 z M 539.3,270 c 4.9,0 4.9,7.6 0,7.6 -4.9,0 -4.9,-7.6 0,-7.6 z m -5.1,20.3 c 4.9,0 4.9,7.6 0,7.6 -4.9,0 -4.9,-7.6 0,-7.6 z m -5.7,17.2 c 4.9,0 4.9,7.6 0,7.6 -4.9,0 -4.9,-7.6 0,-7.6 z"
           id="path215"
           inkscape:connector-curvature="0" /><path
           d="m 437,249.9 -0.3,0.4 c -0.1,0.2 -12,18.5 -5.5,45.1 6.6,27.3 25.7,39.1 25.9,39.2 l 0.5,0.4 0.3,-0.6 c 0.1,-0.2 11.5,-20.4 5.1,-46.7 -3.7,-15.2 -10.4,-24.7 -15.4,-29.9 -5.4,-5.7 -10,-7.7 -10.2,-7.8 l -0.4,-0.1 z m 14.5,64.6 c -4.9,0 -4.9,-7.6 0,-7.6 4.9,0 4.9,7.6 0,7.6 z m -5.7,-21 c -4.9,0 -4.9,-7.6 0,-7.6 4.9,0 4.9,7.6 0,7.6 z m -4.5,-28.6 c 4.9,0 4.9,7.6 0,7.6 -4.9,0 -4.9,-7.6 0,-7.6 z"
           id="path217"
           inkscape:connector-curvature="0" /><path
           d="m 467.8,378.1 0.8,0.5 0.5,-0.8 c 0.2,-0.3 4,-7.1 1.8,-16.1 -2.4,-10.1 -8.7,-13 -9,-13.1 l -0.7,-0.3 -0.4,0.7 c -0.2,0.3 -4.2,6.4 -1.9,15.6 2.2,9.4 8.6,13.4 8.9,13.5 z m -5.9,-27.3 c 1.6,1.1 5.4,4.2 7.1,11.3 l 0,0 c 1.6,6.4 -0.2,11.7 -1.1,13.8 -1.7,-1.4 -5.7,-5.1 -7.3,-11.7 -1.5,-6.6 0.4,-11.6 1.3,-13.4 z"
           id="path219"
           inkscape:connector-curvature="0" /><path
           d="m 513.3,378.6 0.8,-0.5 c 0.3,-0.2 6.7,-4.1 9,-13.5 2.2,-9.2 -1.8,-15.4 -1.9,-15.6 l -0.4,-0.7 -0.7,0.3 c -0.3,0.1 -6.5,3 -9,13.1 l 0,0 c -2.2,9.1 1.6,15.8 1.8,16.1 l 0.4,0.8 z m -0.5,-16.5 0,0 c 1.7,-7.1 5.5,-10.3 7.1,-11.3 0.9,1.8 2.8,6.8 1.2,13.4 -1.6,6.6 -5.5,10.4 -7.3,11.7 -0.7,-2.1 -2.5,-7.4 -1,-13.8 z"
           id="path221"
           inkscape:connector-curvature="0" /><path
           d="m 491.7,630.8 -0.8,-0.6 -0.8,0.7 c -0.4,0.4 -9.4,9 -9.4,25.1 0,16.5 9,25.6 9.4,26 l 0.9,0.9 0.9,-0.9 c 0.4,-0.4 9.4,-10.1 9.4,-26 -0.1,-17.8 -9.2,-24.9 -9.6,-25.2 z m -0.8,48.2 c -2.2,-2.7 -7.7,-10.8 -7.7,-23.1 0,-12.2 5.7,-19.9 7.8,-22.3 2.1,2.2 7.7,9.1 7.7,22.3 0,11.9 -5.6,20.2 -7.8,23.1 z"
           id="path223"
           inkscape:connector-curvature="0" /><path
           d="m 490.5,640.3 c -0.3,0.2 -5.9,5.6 -5.9,15.8 0,10.4 5.7,16.1 5.9,16.3 l 0.5,0.5 0.4,-0.5 c 0.3,-0.3 5.9,-6.3 5.9,-16.3 0,-11.1 -5.7,-15.6 -6,-15.8 l -0.4,-0.3 -0.4,0.3 z"
           id="path225"
           inkscape:connector-curvature="0" /><path
           d="m 543.8,754.4 0.3,-0.6 c 0.1,-0.2 11.5,-20.4 5.1,-46.8 -3.7,-15.3 -10.5,-24.7 -15.5,-29.9 -5.5,-5.7 -10,-7.7 -10.2,-7.8 l -0.5,-0.2 -0.3,0.5 c -0.1,0.2 -12,18.5 -5.5,45.3 6.6,27.4 25.8,39.2 26,39.3 l 0.6,0.2 z m -17.2,-71.6 c 4.9,0 4.9,7.6 0,7.6 -4.9,0 -4.9,-7.6 0,-7.6 z m 5.7,29.9 c -4.9,0 -4.9,-7.6 0,-7.6 4.9,0 4.9,7.6 0,7.6 z m 6.3,22.9 c -4.9,0 -4.9,-7.6 0,-7.6 5,0 4.9,7.6 0,7.6 z"
           id="path227"
           inkscape:connector-curvature="0" /><path
           d="m 458,669.6 -0.3,-0.6 -0.5,0.3 c -0.2,0.1 -19.3,11.9 -25.9,39.2 -6.4,26.7 5.4,45 5.5,45.1 l 0.3,0.4 0.5,-0.2 c 0.2,-0.1 4.7,-2.1 10.2,-7.8 5,-5.2 11.8,-14.6 15.4,-29.9 6.3,-26.2 -5.1,-46.3 -5.2,-46.5 z m -15.4,69.2 c -4.9,0 -4.9,-7.6 0,-7.6 4.9,0 4.9,7.6 0,7.6 z m 3.8,-21.6 c -4.9,0 -4.9,-7.6 0,-7.6 4.9,-0.1 4.9,7.6 0,7.6 z m 5.1,-20.4 c -4.9,0 -4.9,-7.6 0,-7.6 4.9,0 4.9,7.6 0,7.6 z"
           id="path229"
           inkscape:connector-curvature="0" /><path
           d="m 468.6,625.4 -0.8,0.5 c -0.3,0.2 -6.7,4.1 -9,13.5 -2.2,9.2 1.8,15.4 1.9,15.6 l 0.4,0.7 0.7,-0.3 c 0.3,-0.1 6.5,-3 9,-13.1 2.2,-9.1 -1.6,-15.8 -1.8,-16.1 l -0.4,-0.8 z m 0.4,16.5 0,0 c -1.7,7.1 -5.5,10.3 -7.1,11.3 -0.9,-1.8 -2.8,-6.8 -1.2,-13.4 1.6,-6.6 5.5,-10.4 7.3,-11.7 0.8,2.1 2.6,7.4 1,13.8 z"
           id="path231"
           inkscape:connector-curvature="0" /><path
           d="m 514.1,625.9 -0.8,-0.5 -0.5,0.8 c -0.2,0.3 -4,7.1 -1.8,16.1 2.4,10.1 8.7,13 9,13.1 l 0.7,0.3 0.4,-0.7 c 0.2,-0.3 4.2,-6.4 1.9,-15.6 -2.2,-9.4 -8.6,-13.3 -8.9,-13.5 z m 5.9,27.3 c -1.6,-1.1 -5.4,-4.2 -7.1,-11.3 l 0,0 c -1.6,-6.4 0.2,-11.7 1.1,-13.8 1.7,1.4 5.7,5.1 7.3,11.7 1.5,6.7 -0.4,11.6 -1.3,13.4 z"
           id="path233"
           inkscape:connector-curvature="0" /><path
           d="m 672,501.7 -0.9,-0.9 c -0.4,-0.4 -9.5,-9.4 -26,-9.4 -16.1,0 -24.7,9.1 -25.1,9.4 l -0.7,0.8 0.6,0.8 c 0.3,0.4 7.5,9.5 25.1,9.5 15.9,0 25.5,-9 26,-9.4 l 1,-0.8 z m -26.9,7.8 c -13.2,0 -20.1,-5.5 -22.3,-7.7 2.5,-2.2 10.2,-7.8 22.3,-7.8 12.3,0 20.4,5.5 23.1,7.7 -2.8,2.2 -11.1,7.8 -23.1,7.8 z"
           id="path235"
           inkscape:connector-curvature="0" /><path
           d="m 629.6,501.3 -0.4,0.4 0.3,0.4 c 0.2,0.3 4.7,6 15.8,6 10,0 16.1,-5.6 16.3,-5.9 l 0.5,-0.4 -0.5,-0.5 c -0.3,-0.2 -6,-5.9 -16.3,-5.9 -10.1,-0.1 -15.5,5.6 -15.7,5.9 z"
           id="path237"
           inkscape:connector-curvature="0" /><path
           d="m 658.7,533.6 -0.5,0.3 0.2,0.5 c 0.1,0.2 2.1,4.7 7.8,10.2 5.2,5 14.7,11.8 29.9,15.5 5.8,1.4 11.2,1.9 16.3,1.9 18,0 30.4,-7 30.6,-7.1 l 0.6,-0.3 -0.3,-0.6 c -0.1,-0.2 -12,-19.4 -39.3,-26 -26.8,-6.4 -45.1,5.4 -45.3,5.6 z m 19.3,8 c -4.9,0 -4.9,-7.6 0,-7.6 4.9,0 4.9,7.6 0,7.6 z m 45.8,3.8 c 4.9,0 4.9,7.6 0,7.6 -4.9,0 -4.9,-7.6 0,-7.6 z m -22.3,3.2 c -4.9,0 -4.9,-7.6 0,-7.6 4.9,0 4.9,7.6 0,7.6 z"
           id="path239"
           inkscape:connector-curvature="0" /><path
           d="m 697.8,442 c -27.3,6.6 -39.1,25.7 -39.2,25.9 l -0.3,0.6 0.6,0.3 c 0.2,0.1 12.5,7 30.5,7 5,0 10.5,-0.5 16.2,-1.9 15.2,-3.7 24.7,-10.4 29.9,-15.4 5.7,-5.4 7.7,-10 7.8,-10.2 l 0.2,-0.5 -0.4,-0.3 c -0.3,-0.1 -18.6,-12 -45.3,-5.5 z m -17.3,24.1 c -0.9,1.3 -2.7,1.9 -4.2,1.6 -2.1,-0.5 -3,-2.7 -2.7,-4.7 0.4,-2.1 2.3,-3.3 4.3,-3.4 2.1,-0.1 3.7,1.9 3.8,3.8 0.1,1.1 -0.4,2 -1.2,2.7 z m 22.3,-3.4 c -4.9,0 -4.9,-7.6 0,-7.6 4.9,0 4.9,7.6 0,7.6 z m 21.6,-6.4 c -4.9,0 -4.9,-7.6 0,-7.6 4.9,0 4.9,7.6 0,7.6 z"
           id="path241"
           inkscape:connector-curvature="0" /><path
           d="m 615.1,478.5 -0.5,0.8 0.8,0.5 c 0.2,0.1 4.4,2.5 10.5,2.5 1.7,0 3.6,-0.2 5.7,-0.7 10.1,-2.4 13,-8.7 13.1,-9 l 0.3,-0.7 -0.7,-0.4 c -0.3,-0.2 -6.4,-4.2 -15.6,-1.9 -9.4,2.2 -13.4,8.6 -13.6,8.9 z m 14,-7.1 c 6.6,-1.6 11.5,0.3 13.4,1.3 -1.1,1.6 -4.2,5.4 -11.3,7.1 -6.4,1.6 -11.7,-0.2 -13.8,-1.1 1.4,-1.8 5.1,-5.7 11.7,-7.3 z"
           id="path243"
           inkscape:connector-curvature="0" /><path
           d="m 631.6,521.7 c -9.1,-2.2 -15.8,1.6 -16.1,1.8 l -0.8,0.5 0.5,0.8 c 0.2,0.3 4.1,6.7 13.5,9 2,0.5 3.8,0.7 5.5,0.7 6.1,0 9.9,-2.5 10.1,-2.6 l 0.7,-0.4 -0.3,-0.7 c -0.1,-0.4 -3,-6.6 -13.1,-9.1 z m -2.5,10.3 c -6.6,-1.6 -10.4,-5.5 -11.7,-7.3 2.1,-0.9 7.3,-2.7 13.8,-1.1 7.1,1.7 10.3,5.5 11.3,7.1 -1.8,0.9 -6.8,2.9 -13.4,1.3 z"
           id="path245"
           inkscape:connector-curvature="0" /><path
           d="m 362.5,502.5 0.6,-0.8 -0.7,-0.8 c -0.4,-0.4 -9,-9.4 -25.1,-9.4 -16.5,0 -25.6,9 -26,9.4 l -0.9,0.9 0.9,0.9 c 0.4,0.4 10.1,9.4 26,9.4 17.7,-0.1 24.9,-9.2 25.2,-9.6 z m -25.1,7 c -11.9,0 -20.3,-5.6 -23.1,-7.8 2.8,-2.2 10.8,-7.7 23.1,-7.7 12.2,0 19.9,5.7 22.3,7.8 -2.2,2.1 -9,7.7 -22.3,7.7 z"
           id="path247"
           inkscape:connector-curvature="0" /><path
           d="m 320.9,501.2 -0.5,0.5 0.5,0.4 c 0.3,0.3 6.3,5.9 16.3,5.9 11.1,0 15.6,-5.7 15.8,-6 l 0.3,-0.4 -0.4,-0.4 c -0.2,-0.3 -5.6,-5.9 -15.8,-5.9 -10.3,0 -16,5.7 -16.2,5.9 z"
           id="path249"
           inkscape:connector-curvature="0" /><path
           d="m 270,562 c 5,0 10.5,-0.6 16.3,-1.9 15.3,-3.7 24.7,-10.5 29.9,-15.5 5.7,-5.5 7.7,-10 7.8,-10.2 l 0.2,-0.5 -0.5,-0.3 c -0.2,-0.1 -18.5,-12 -45.3,-5.5 -27.4,6.6 -39.2,25.8 -39.3,26 l -0.3,0.6 0.6,0.3 c 0.2,0 12.6,7 30.6,7 z m 32.6,-26.1 c 4.9,0 4.9,7.6 0,7.6 -4.9,0 -4.9,-7.6 0,-7.6 z m -20.3,5.1 c 4.9,0 4.9,7.6 0,7.6 -4.9,0 -4.9,-7.6 0,-7.6 z m -23.6,4.4 c 4.9,0 4.9,7.6 0,7.6 -4.9,0 -4.9,-7.6 0,-7.6 z"
           id="path251"
           inkscape:connector-curvature="0" /><path
           d="m 293.2,475.8 c 17.9,0 30.3,-6.9 30.5,-7 l 0.6,-0.3 -0.4,-0.6 c -0.1,-0.2 -11.9,-19.3 -39.2,-25.9 -26.7,-6.4 -45,5.4 -45.1,5.5 l -0.4,0.3 0.2,0.5 c 0.1,0.2 2.1,4.7 7.8,10.2 5.2,5 14.6,11.8 29.9,15.4 5.6,1.4 11.1,1.9 16.1,1.9 z m 4.2,-17.7 c 0.2,-0.2 0.4,-0.4 0.6,-0.6 1.5,-1.5 3.9,-1.5 5.4,0 1.5,1.5 1.5,3.9 0,5.4 l -0.6,0.6 c -1.5,1.5 -3.9,1.5 -5.4,0 -1.4,-1.5 -1.4,-3.9 0,-5.4 z m -41.2,-2.4 c -4.9,0 -4.9,-7.6 0,-7.6 4.9,0 4.9,7.6 0,7.6 z m 21.6,-3.2 c 4.9,0 4.9,7.6 0,7.6 -4.9,0.1 -4.9,-7.6 0,-7.6 z"
           id="path253"
           inkscape:connector-curvature="0" /><path
           d="m 350.9,481.6 c 2,0.5 3.9,0.7 5.7,0.7 6.1,0 10.2,-2.3 10.5,-2.5 l 0.8,-0.5 -0.5,-0.8 c -0.2,-0.3 -4.1,-6.7 -13.5,-9 -9.2,-2.2 -15.4,1.8 -15.6,1.9 l -0.7,0.4 0.3,0.7 c 0,0.4 2.9,6.7 13,9.1 z m 2.5,-10.2 c 6.6,1.6 10.4,5.5 11.7,7.3 -2.1,0.9 -7.3,2.7 -13.8,1.1 -7.1,-1.7 -10.3,-5.5 -11.3,-7.1 1.8,-1 6.8,-2.9 13.4,-1.3 z"
           id="path255"
           inkscape:connector-curvature="0" /><path
           d="m 367.4,524.8 0.5,-0.8 -0.8,-0.5 c -0.3,-0.2 -7,-4 -16.1,-1.8 -10.1,2.4 -13,8.7 -13.1,9 l -0.3,0.7 0.7,0.4 c 0.2,0.1 4,2.6 10.1,2.6 1.7,0 3.5,-0.2 5.5,-0.7 9.3,-2.2 13.3,-8.6 13.5,-8.9 z m -14,7.2 c -6.6,1.6 -11.5,-0.3 -13.4,-1.3 1.1,-1.6 4.2,-5.4 11.3,-7.1 6.4,-1.6 11.7,0.2 13.8,1.1 -1.4,1.8 -5.1,5.7 -11.7,7.3 z"
           id="path257"
           inkscape:connector-curvature="0" /><path
           d="m 583.2,592.3 -1.1,0 -0.1,1.1 c -0.1,0.5 -1.5,12 11,24.5 11.2,11.2 24.4,11.7 25,11.7 l 1.3,0 0,-1.3 c 0,-0.5 -0.1,-13.4 -11.7,-25 -11.4,-11.4 -23.9,-11 -24.4,-11 z m 11.6,23.8 c -9.3,-9.3 -10.3,-18.2 -10.4,-21.2 3.3,0.2 12.7,1.6 21.3,10.3 8.7,8.7 10.5,18.3 10.9,21.8 -3.5,-0.5 -13.4,-2.5 -21.8,-10.9 z"
           id="path259"
           inkscape:connector-curvature="0" /><path
           d="m 589.6,599.3 -0.5,0 -0.1,0.5 c -0.1,0.3 -0.9,7.5 6.9,15.4 7.1,7 15.3,7.4 15.7,7.4 l 0.7,0 0,-0.7 c 0,-0.3 -0.1,-8.4 -7.4,-15.7 -7.1,-7.1 -15,-6.9 -15.3,-6.9 z"
           id="path261"
           inkscape:connector-curvature="0" /><path
           d="m 587.3,642.7 -0.5,-0.1 -0.2,0.5 c -0.1,0.2 -1.8,4.9 -1.7,12.7 0.2,7.3 2.1,18.7 10.3,32.1 14.2,23.2 36.5,29.4 36.7,29.5 l 0.6,0.2 0.2,-0.6 c 0.1,-0.2 5.2,-22.1 -9.4,-46.2 -14.4,-23.5 -35.8,-28 -36,-28.1 z m 8.6,20.4 -0.6,0 c -2.1,0 -3.7,-1.7 -3.8,-3.8 -0.1,-2.1 1.8,-3.8 3.8,-3.8 l 0.6,0 c 2.1,0 3.7,1.7 3.8,3.8 0.1,2 -1.8,3.8 -3.8,3.8 z m 12.7,19.1 c -4.9,0 -4.9,-7.6 0,-7.6 4.9,0 4.9,7.6 0,7.6 z m 12.1,17.1 c -4.9,0 -4.9,-7.6 0,-7.6 4.9,0 4.9,7.6 0,7.6 z"
           id="path263"
           inkscape:connector-curvature="0" /><path
           d="m 707.9,641.9 -0.1,-0.5 c 0,-0.2 -4.6,-21.5 -28,-35.8 -24,-14.6 -45.8,-9.5 -46,-9.4 l -0.6,0.2 0.2,0.6 c 0.1,0.2 6.3,22.5 29.4,36.6 13.4,8.2 24.8,10.1 32,10.2 l 1,0 c 7.3,0 11.5,-1.6 11.7,-1.7 l 0.4,-0.2 z m -55.4,-31 c -4.9,0 -4.9,-7.6 0,-7.6 4.9,0 4.9,7.6 0,7.6 z m 19.1,12.1 c -4.9,0 -4.9,-7.6 0,-7.6 4.9,0 4.9,7.6 0,7.6 z m 19.1,11.5 c -4.9,0 -4.9,-7.6 0,-7.6 4.9,-0.1 4.9,7.6 0,7.6 z"
           id="path265"
           inkscape:connector-curvature="0" /><path
           d="m 611.4,576.2 c -8.3,-5 -15.6,-3.3 -15.9,-3.2 l -0.9,0.2 0.3,0.9 c 0.1,0.3 2.2,7.8 10.1,12.7 4.6,2.8 8.6,3.5 11.4,3.5 2.5,0 4.1,-0.6 4.2,-0.6 l 0.7,-0.3 -0.2,-0.8 c -0.1,-0.2 -1.6,-7.4 -9.7,-12.4 z m -5.5,9 c -5.6,-3.4 -8.1,-8.4 -8.9,-10.5 2.2,-0.3 7.6,-0.4 13.4,3.2 5.8,3.5 7.9,8.4 8.6,10.3 -1.9,0.4 -6.9,0.8 -13.1,-3 z"
           id="path267"
           inkscape:connector-curvature="0" /><path
           d="m 563.9,605.1 -0.9,-0.3 -0.2,0.9 c -0.1,0.3 -1.8,7.7 3.2,15.9 4.9,8.1 12.1,9.6 12.4,9.7 l 0.8,0.2 0.3,-0.7 c 0.1,-0.3 2.5,-6.7 -2.9,-15.6 -4.9,-8 -12.4,-10.1 -12.7,-10.1 z m 14,24.1 c -1.9,-0.7 -6.8,-2.8 -10.3,-8.6 -3.6,-5.8 -3.4,-11.2 -3.2,-13.4 2.1,0.8 7.1,3.3 10.5,8.9 3.8,6.3 3.4,11.3 3,13.1 z"
           id="path269"
           inkscape:connector-curvature="0" /><path
           d="m 375.4,400.3 c 10.1,10 19.5,11.1 23.1,11.1 0.9,0 1.4,-0.1 1.5,-0.1 l 1.1,-0.1 0,-1.1 c 0,-0.5 0.4,-13 -11,-24.4 C 378.5,374 365.6,374 365.1,374 l -1.3,0 0,1.3 c -0.1,0.5 0.3,13.7 11.6,25 z m 12.8,-12.8 c 8.6,8.6 10,18.1 10.3,21.3 -3.1,0 -11.9,-1 -21.2,-10.4 -8.4,-8.4 -10.4,-18.3 -10.8,-21.9 3.3,0.5 12.9,2.2 21.7,11 z"
           id="path271"
           inkscape:connector-curvature="0" /><path
           d="m 392.5,404.3 c 0.5,0 0.9,-0.1 0.9,-0.1 l 0.5,-0.1 0,-0.5 c 0,-0.3 0.2,-8.2 -6.9,-15.3 -7.3,-7.3 -15.2,-7.4 -15.7,-7.4 l -0.7,0 0,0.7 c 0,0.3 0.3,8.6 7.4,15.7 6.4,6.4 12.3,7 14.5,7 z"
           id="path273"
           inkscape:connector-curvature="0" /><path
           d="m 275.6,360.7 0.2,0.6 c 0.1,0.2 6.3,22.6 29.5,36.7 13.4,8.2 24.9,10.1 32.1,10.3 l 1,0 c 7.3,0 11.5,-1.6 11.7,-1.7 l 0.5,-0.2 -0.1,-0.5 c -0.1,-0.2 -4.6,-21.6 -28.1,-35.9 -24,-14.7 -46,-9.5 -46.2,-9.4 l -0.6,0.1 z m 49.9,27 c 4.9,0 4.9,7.6 0,7.6 -4.9,0 -4.9,-7.6 0,-7.6 z m -17.1,-10.9 c 4.9,0 4.9,7.6 0,7.6 -4.9,0.1 -4.9,-7.6 0,-7.6 z m -16.6,-10.1 c 4.9,0 4.9,7.6 0,7.6 -4.9,0 -4.9,-7.6 0,-7.6 z"
           id="path275"
           inkscape:connector-curvature="0" /><path
           d="m 396.3,360 0.6,0.2 0.2,-0.6 c 0.1,-0.2 5.2,-22.1 -9.4,-46 -14.3,-23.4 -35.6,-28 -35.8,-28 l -0.5,-0.1 -0.2,0.5 c -0.1,0.2 -1.8,4.8 -1.7,12.7 0.2,7.2 2,18.6 10.2,32 14.1,23 36.4,29.2 36.6,29.3 z m -11,-23.9 c 4.9,0 4.9,7.6 0,7.6 -4.9,0 -4.9,-7.6 0,-7.6 z m -12.7,-21 c 4.9,0 4.9,7.6 0,7.6 -4.9,0.1 -4.9,-7.6 0,-7.6 z m -10.8,-16.5 c 4.9,0 4.9,7.6 0,7.6 -4.9,0 -4.9,-7.6 0,-7.6 z"
           id="path277"
           inkscape:connector-curvature="0" /><path
           d="m 419.1,398.5 0.9,0.3 0.2,-0.9 c 0.1,-0.3 1.8,-7.7 -3.2,-15.9 -4.9,-8.1 -12.1,-9.6 -12.4,-9.7 l -0.8,-0.2 -0.3,0.7 c -0.1,0.3 -2.5,6.7 2.9,15.6 4.9,7.9 12.4,10 12.7,10.1 z m -14,-24.2 c 1.9,0.6 6.8,2.8 10.3,8.6 3.6,5.8 3.4,11.2 3.2,13.4 -2.1,-0.8 -7.1,-3.3 -10.5,-8.9 -3.9,-6.3 -3.4,-11.2 -3,-13.1 z"
           id="path279"
           inkscape:connector-curvature="0" /><path
           d="m 371.6,427.3 c 4.8,2.9 9.3,3.6 12.3,3.6 2.1,0 3.5,-0.3 3.6,-0.3 l 0.9,-0.2 -0.3,-0.9 c -0.1,-0.3 -2.2,-7.8 -10.1,-12.7 -8.9,-5.4 -15.3,-3 -15.6,-2.9 l -0.7,0.3 0.2,0.8 c 0.1,0.2 1.6,7.4 9.7,12.3 z m 5.5,-9 c 5.6,3.4 8.1,8.4 8.9,10.5 -2.2,0.2 -7.6,0.4 -13.4,-3.2 -5.8,-3.5 -7.9,-8.4 -8.6,-10.3 1.9,-0.3 6.8,-0.8 13.1,3 z"
           id="path281"
           inkscape:connector-curvature="0" /><path
           d="m 401,592.9 -1.1,-0.1 c -0.5,-0.1 -12,-1.5 -24.5,11 -11.2,11.2 -11.7,24.4 -11.7,25 l 0,1.3 1.3,0 c 0,0 0,0 0,0 0.8,0 13.5,-0.2 25,-11.7 11.4,-11.4 11.1,-23.9 11,-24.4 l 0,-1.1 z m -12.8,23.7 c -8.7,8.7 -18.3,10.5 -21.8,10.9 0.4,-3.6 2.4,-13.4 10.8,-21.9 9.3,-9.3 18.2,-10.3 21.2,-10.4 -0.2,3.3 -1.6,12.7 -10.2,21.4 z"
           id="path283"
           inkscape:connector-curvature="0" /><path
           d="m 370.7,623 0.7,0 c 0.3,0 2.4,0 5.3,-1 3,-0.9 6.7,-2.8 10.4,-6.4 7.2,-7.2 6.9,-15 6.9,-15.3 l 0,-0.5 -0.5,-0.1 c -0.3,-0.1 -7.5,-0.9 -15.4,6.9 -7.1,7.1 -7.4,15.3 -7.4,15.7 l 0,0.7 z"
           id="path285"
           inkscape:connector-curvature="0" /><path
           d="m 350.7,597.5 -0.5,-0.2 c -0.2,-0.1 -4.9,-1.8 -12.7,-1.7 -7.3,0.2 -18.7,2.1 -32.1,10.3 -23.2,14.2 -29.4,36.5 -29.5,36.7 l -0.2,0.6 0.6,0.2 c 0.1,0 3.9,0.9 10.1,0.9 8.7,0 22,-1.8 36.1,-10.4 23.5,-14.4 28,-35.7 28.1,-36 l 0.1,-0.4 z m -57.6,37.6 c -4.9,0 -4.9,-7.6 0,-7.6 4.9,0 4.9,7.6 0,7.6 z m 20.4,-10.8 -0.6,0 c -2.1,0 -3.7,-1.7 -3.8,-3.8 -0.1,-2.1 1.8,-3.8 3.8,-3.8 l 0.6,0 c 2.1,0 3.7,1.7 3.8,3.8 0.1,2 -1.9,3.8 -3.8,3.8 z m 17.8,-10.8 c -4.9,0 -4.9,-7.6 0,-7.6 4.9,-0.1 4.9,7.6 0,7.6 z"
           id="path287"
           inkscape:connector-curvature="0" /><path
           d="m 351.3,718.6 0.5,-0.1 c 0.2,0 21.5,-4.6 35.8,-28 14.6,-24 9.5,-45.8 9.4,-46 l -0.2,-0.6 -0.6,0.2 c -0.2,0.1 -22.5,6.3 -36.6,29.4 -8.2,13.4 -10.1,24.8 -10.2,32 -0.2,7.9 1.6,12.5 1.7,12.7 l 0.2,0.4 z m 32.1,-58 c 4.9,0 4.9,7.6 0,7.6 -4.9,0 -4.9,-7.6 0,-7.6 z M 372.6,679 c 4.9,0 4.9,7.6 0,7.6 -4.9,0 -4.9,-7.6 0,-7.6 z m -9.5,17.2 c 4.9,0 4.9,7.6 0,7.6 -4.9,0 -4.9,-7.6 0,-7.6 z"
           id="path289"
           inkscape:connector-curvature="0" /><path
           d="m 420,605.3 -0.9,0.3 c -0.3,0.1 -7.8,2.2 -12.7,10.1 -5.4,8.9 -3,15.3 -2.9,15.6 l 0.3,0.7 0.8,-0.2 c 0.3,-0.1 7.5,-1.6 12.4,-9.7 5,-8.3 3.3,-15.6 3.2,-15.9 l -0.2,-0.9 z m -4.6,15.8 c -3.5,5.8 -8.4,7.9 -10.3,8.6 -0.4,-1.9 -0.8,-6.8 3,-13.1 3.4,-5.6 8.4,-8.1 10.5,-8.9 0.2,2.2 0.4,7.6 -3.2,13.4 z"
           id="path291"
           inkscape:connector-curvature="0" /><path
           d="m 378.1,587.3 c 8,-4.9 10.1,-12.3 10.1,-12.7 l 0.3,-0.9 -0.9,-0.2 c -0.3,-0.1 -7.7,-1.8 -15.9,3.2 -8.1,4.9 -9.6,12.1 -9.7,12.4 l -0.2,0.8 0.7,0.3 c 0.1,0 1.7,0.6 4.2,0.6 2.7,0 6.7,-0.7 11.4,-3.5 z m -14.1,1.4 c 0.7,-1.9 2.8,-6.8 8.6,-10.3 5.8,-3.6 11.2,-3.4 13.4,-3.2 -0.8,2.1 -3.3,7.1 -8.9,10.5 -6.3,3.8 -11.2,3.3 -13.1,3 z"
           id="path293"
           inkscape:connector-curvature="0" /><path
           d="m 582.1,411.7 1.1,0 0.3,0 c 2.1,0 13.6,-0.5 24.1,-11 11.7,-11.6 11.7,-24.5 11.7,-25 l 0,-1.3 -1.3,0 c -0.6,0 -13.7,0.5 -25,11.7 -12.5,12.5 -11.1,24 -11,24.5 l 0.1,1.1 z m 12.7,-23.8 c 8.4,-8.4 18.3,-10.4 21.9,-10.8 -0.4,3.5 -2.2,13.1 -10.9,21.8 -8.7,8.6 -18.1,10 -21.3,10.3 -0.1,-3.1 0.9,-11.9 10.3,-21.3 z"
           id="path295"
           inkscape:connector-curvature="0" /><path
           d="m 612.3,381.4 -0.7,0 c -0.4,0 -8.6,0.3 -15.7,7.4 -7.9,7.9 -7,15.1 -6.9,15.4 l 0.1,0.5 0.5,0 0.2,0 c 1.3,0 8.5,-0.3 15.1,-6.9 7.3,-7.3 7.4,-15.4 7.4,-15.7 l 0,-0.7 z"
           id="path297"
           inkscape:connector-curvature="0" /><path
           d="m 632.5,286.4 -0.6,0.2 c -0.2,0.1 -22.6,6.3 -36.7,29.5 -8.2,13.4 -10.1,24.9 -10.3,32.1 -0.2,7.9 1.6,12.5 1.7,12.7 l 0.2,0.5 0.5,-0.1 c 0.2,-0.1 21.6,-4.6 35.9,-28.1 14.7,-24 9.5,-46 9.4,-46.2 l -0.1,-0.6 z m -36.6,62.4 c -4.9,0 -4.9,-7.6 0,-7.6 4.9,0 4.9,7.6 0,7.6 z m 12.7,-18.4 c -4.9,0 -4.9,-7.6 0,-7.6 4.9,0 4.9,7.6 0,7.6 z m 12.1,-17.8 c -4.9,0 -4.9,-7.6 0,-7.6 4.9,0 4.9,7.6 0,7.6 z"
           id="path299"
           inkscape:connector-curvature="0" /><path
           d="m 633.1,407.7 0.6,0.2 c 0.1,0 3.9,0.9 10.1,0.9 8.7,0 22,-1.8 36,-10.3 23.4,-14.3 28,-35.6 28,-35.8 l 0.1,-0.5 -0.5,-0.2 c -0.2,-0.1 -4.8,-1.8 -12.7,-1.7 -7.2,0.2 -18.6,2 -32,10.2 -23.1,14.1 -29.3,36.4 -29.4,36.6 l -0.2,0.6 z m 54.4,-36.6 c 4.9,0 4.9,7.6 0,7.6 -4.9,0 -4.9,-7.6 0,-7.6 z m -19.1,9.6 c 4.9,0 4.9,7.6 0,7.6 -4.9,0 -4.9,-7.6 0,-7.6 z M 650.6,394 c 4.9,0 4.9,7.6 0,7.6 -4.9,0 -4.9,-7.6 0,-7.6 z"
           id="path301"
           inkscape:connector-curvature="0" /><path
           d="m 604.9,417.2 c -8,4.9 -10.1,12.3 -10.1,12.7 l -0.3,0.9 0.9,0.2 c 0.1,0 1.5,0.4 3.6,0.4 3,0 7.5,-0.6 12.3,-3.6 8.1,-4.9 9.6,-12.1 9.7,-12.4 l 0.2,-0.8 -0.7,-0.3 c -0.3,-0.1 -6.7,-2.5 -15.6,2.9 z m 14.1,-1.4 c -0.6,1.9 -2.8,6.8 -8.6,10.3 -5.8,3.5 -11.2,3.4 -13.4,3.2 0.8,-2.1 3.3,-7.1 8.9,-10.5 6.2,-3.8 11.2,-3.4 13.1,-3 z"
           id="path303"
           inkscape:connector-curvature="0" /><path
           d="m 562.9,399.2 0.9,-0.3 c 0.3,-0.1 7.8,-2.2 12.7,-10.1 5.4,-8.9 3,-15.3 2.9,-15.6 l -0.3,-0.7 -0.8,0.2 c -0.3,0.1 -7.5,1.6 -12.4,9.7 -5,8.3 -3.3,15.6 -3.2,15.9 l 0.2,0.9 z m 4.7,-15.9 c 3.5,-5.8 8.4,-7.9 10.3,-8.6 0.4,1.9 0.8,6.8 -3,13.1 -3.4,5.6 -8.4,8.1 -10.5,8.9 -0.3,-2.1 -0.4,-7.5 3.2,-13.4 z"
           id="path305"
           inkscape:connector-curvature="0" /><path
           d="m 490.3,379.4 c -67.6,0 -122.6,55 -122.6,122.6 0,67.6 55,122.6 122.6,122.6 67.6,0 122.6,-55 122.6,-122.6 0,-67.6 -55,-122.6 -122.6,-122.6 z m 0,242.7 c -66.2,0 -120.1,-53.9 -120.1,-120.1 0,-66.2 53.9,-120.1 120.1,-120.1 66.2,0 120.1,53.9 120.1,120.1 0,66.2 -53.9,120.1 -120.1,120.1 z"
           id="path307"
           inkscape:connector-curvature="0" /><path
           d="M 490.3,384.8 C 425.6,384.8 373,437.4 373,502 c 0,64.7 52.6,117.3 117.3,117.3 64.7,0 117.3,-52.6 117.3,-117.3 0,-64.6 -52.6,-117.2 -117.3,-117.2 z m 0,233.2 c -64,0 -116,-52 -116,-116 0,-64 52,-116 116,-116 64,0 116,52 116,116 0,64 -52,116 -116,116 z"
           id="path309"
           inkscape:connector-curvature="0" /></g></g></switch></svg>