<?xml version="1.0" encoding="UTF-8" standalone="no"?>
<svg
   xmlns:dc="http://purl.org/dc/elements/1.1/"
   xmlns:cc="http://creativecommons.org/ns#"
   xmlns:rdf="http://www.w3.org/1999/02/22-rdf-syntax-ns#"
   xmlns:svg="http://www.w3.org/2000/svg"
   xmlns="http://www.w3.org/2000/svg"
   xmlns:sodipodi="http://sodipodi.sourceforge.net/DTD/sodipodi-0.dtd"
   xmlns:inkscape="http://www.inkscape.org/namespaces/inkscape"
   version="1.1"
   id="Layer_1"
   x="0px"
   y="0px"
   viewBox="0 0 1000 1000"
   width="100%"
   height="100%"
   style="enable-background:new 0 0 1000 1000;"
   xml:space="preserve"
   ><style
     type="text/css"
     id="style3">
	.noFillSVG{fill:none;}
</style><switch
     id="switch5"
     transform="translate(16.8,0)"><g
       id="g7"><g
         id="g9"><path
           class="noFillSVG"
           d="m 301.1,720.9 c 2.4,0.5 5.2,1.8 7.6,2 -0.9,-13.7 -1.3,-27.3 -1.1,-41 -3,5 -6.8,9.5 -10.5,14.1 -6.1,7.5 -11.7,15.2 -17,23.3 7,-0.4 14,0.1 21,1.6 z"
           id="path11"
           inkscape:connector-curvature="0"
           style="fill:none" /><path
           class="noFillSVG"
           d="m 208.9,464.4 c -1.8,-0.2 -3.2,-0.4 -4.3,-0.2 9.3,10.7 19.1,20.9 29.3,30.8 0.2,-10 1,-19.9 2.4,-29.7 -9.2,0.6 -18.3,0.3 -27.4,-0.9 z"
           id="path13"
           inkscape:connector-curvature="0"
           style="fill:none" /><path
           class="noFillSVG"
           d="m 317.4,715.3 c 4.8,-5.9 10.1,-11.3 15.8,-16.3 -8,-6 -15.6,-12.5 -22.7,-19.4 -0.3,14.3 0.1,28.5 1,42.8 0.3,-0.1 0.5,-0.3 0.8,-0.5 1.9,-1.6 3.5,-4.6 5.1,-6.6 z"
           id="path15"
           inkscape:connector-curvature="0"
           style="fill:none" /><path
           class="noFillSVG"
           d="m 186.9,622.7 c 26.2,13.1 56.1,13.7 84.4,8.5 -14.1,-22.6 -24.6,-47.6 -30.9,-74.2 -23.6,16.4 -44.3,38 -53.5,65.7 z"
           id="path17"
           inkscape:connector-curvature="0"
           style="fill:none" /><path
           class="noFillSVG"
           d="m 277,719.5 c 0,-0.2 0,-0.5 0.2,-0.8 4.7,-7.1 9.6,-14 14.9,-20.7 5.4,-6.9 11.4,-13.4 15.4,-21.4 -0.3,-0.3 -0.6,-0.6 -1,-1 -7.9,3.9 -14.4,9.9 -21.4,15.4 -6.7,5.3 -13.6,10.2 -20.7,14.9 -0.3,0.2 -0.6,0.2 -0.8,0.2 -0.5,5.6 -1.6,11.1 -3.1,16.5 5.4,-1.5 10.9,-2.5 16.5,-3.1 z"
           id="path19"
           inkscape:connector-curvature="0"
           style="fill:none" /><path
           class="noFillSVG"
           d="m 488.1,749.2 c 9.9,10.2 20.1,20 30.8,29.4 0.4,-1.5 -0.1,-3.3 -0.4,-5.6 -1,-8.7 -1.2,-17.4 -0.8,-26.1 -9.7,1.3 -19.6,2.1 -29.6,2.3 z"
           id="path21"
           inkscape:connector-curvature="0"
           style="fill:none" /><path
           class="noFillSVG"
           d="m 426.1,742.7 c -26.6,-6.3 -51.6,-16.8 -74.2,-30.8 -5.2,28.4 -4.6,58.2 8.5,84.4 27.8,-9.2 49.3,-29.9 65.7,-53.6 z"
           id="path23"
           inkscape:connector-curvature="0"
           style="fill:none" /><path
           class="noFillSVG"
           d="m 267.8,665.8 c -1.5,1.3 -6.7,4.1 -7.5,5.8 0,0 0,0.1 0,0.1 14.4,1 28.8,1.3 43.3,1.1 -6.9,-7.2 -13.4,-14.8 -19.4,-22.7 -5.1,5.6 -10.5,10.9 -16.4,15.7 z"
           id="path25"
           inkscape:connector-curvature="0"
           style="fill:none" /><path
           class="noFillSVG"
           d="m 263.8,703 c 8,-5.3 15.8,-11 23.3,-17 4.6,-3.7 9.1,-7.5 14.1,-10.5 -13.8,0.2 -27.5,-0.1 -41.3,-1.1 0.3,2.6 1.8,5.6 2.2,7.6 1.6,7 2.1,14 1.7,21 z"
           id="path27"
           inkscape:connector-curvature="0"
           style="fill:none" /><path
           class="noFillSVG"
           d="m 195.7,523.8 c 2.3,3.1 3.9,6.6 6,9.7 0.2,0.3 0.4,0.5 0.6,0.8 9,-10.3 18.4,-20.2 28.2,-29.7 -5.7,1.4 -11.5,1.9 -17.4,2.5 -9.6,1 -19.1,2.5 -28.5,4.4 4,3.7 7.8,7.7 11.1,12.3 z"
           id="path29"
           inkscape:connector-curvature="0"
           style="fill:none" /><path
           class="noFillSVG"
           d="m 317.4,284.7 c -1.3,-1.5 -4.1,-6.7 -5.8,-7.5 0,0 -0.1,0 -0.1,0 -1,14.4 -1.3,28.8 -1.1,43.3 7.2,-6.9 14.8,-13.4 22.7,-19.4 -5.6,-5.1 -10.9,-10.5 -15.7,-16.4 z"
           id="path31"
           inkscape:connector-curvature="0"
           style="fill:none" /><path
           class="noFillSVG"
           d="m 301.1,279.1 c -7,1.5 -14,2 -21,1.6 5.3,8 11,15.8 17,23.3 3.7,4.6 7.5,9.1 10.5,14.1 -0.2,-13.8 0.1,-27.5 1.1,-41.3 -2.5,0.3 -5.5,1.8 -7.6,2.3 z"
           id="path33"
           inkscape:connector-curvature="0"
           style="fill:none" /><path
           class="noFillSVG"
           d="m 260.5,277.3 c 1.5,5.5 2.6,11 3.1,16.6 0.2,0 0.5,0 0.8,0.2 7.1,4.7 14,9.6 20.7,14.9 6.9,5.4 13.4,11.4 21.4,15.4 0.3,-0.3 0.6,-0.6 1,-1 -3.9,-7.9 -9.9,-14.4 -15.4,-21.4 -5.3,-6.7 -10.2,-13.6 -14.9,-20.7 -0.2,-0.3 -0.2,-0.6 -0.2,-0.8 -5.5,-0.6 -11.1,-1.7 -16.5,-3.2 z"
           id="path35"
           inkscape:connector-curvature="0"
           style="fill:none" /><path
           class="noFillSVG"
           d="m 301.3,324.5 c -5,-3 -9.5,-6.8 -14.1,-10.5 -7.5,-6.1 -15.2,-11.7 -23.3,-17 0.4,7 -0.1,14 -1.6,21 -0.5,2.4 -1.8,5.2 -2,7.6 13.6,-0.9 27.3,-1.3 41,-1.1 z"
           id="path37"
           inkscape:connector-curvature="0"
           style="fill:none" /><path
           class="noFillSVG"
           d="m 184.5,488.5 c 9.4,1.9 18.9,3.4 28.5,4.4 5.9,0.6 11.7,1.1 17.4,2.5 -9.8,-9.5 -19.2,-19.4 -28.2,-29.7 -0.4,0.5 -0.7,1 -1.1,1.7 -1.6,3 -3.5,6 -5.5,8.8 -3.2,4.5 -7,8.6 -11.1,12.3 z"
           id="path39"
           inkscape:connector-curvature="0"
           style="fill:none" /><path
           class="noFillSVG"
           d="m 186.9,377.3 c 9.2,27.7 29.9,49.3 53.6,65.7 6.3,-26.6 16.8,-51.6 30.9,-74.2 -28.5,-5.2 -58.3,-4.6 -84.5,8.5 z"
           id="path41"
           inkscape:connector-curvature="0"
           style="fill:none" /><path
           class="noFillSVG"
           d="m 506.9,787.5 c 3.1,-2.3 6.6,-3.9 9.7,-6 0.3,-0.2 0.5,-0.4 0.8,-0.6 -10.3,-9 -20.2,-18.4 -29.7,-28.2 1.4,5.7 1.9,11.5 2.5,17.4 1,9.6 2.5,19.1 4.4,28.5 3.7,-4.1 7.8,-7.8 12.3,-11.1 z"
           id="path43"
           inkscape:connector-curvature="0"
           style="fill:none" /><path
           class="noFillSVG"
           d="m 182.2,509.4 c 0.2,-0.2 0.4,-0.3 0.6,-0.4 8.3,-1.7 16.7,-3.2 25.2,-4.2 8.7,-1 17.5,-1.4 25.8,-4.2 0,-0.2 0,-0.5 0,-0.7 0,-0.2 0,-0.5 0,-0.7 -8.4,-2.8 -17.1,-3.2 -25.8,-4.2 -8.5,-1 -16.8,-2.4 -25.2,-4.2 -0.3,-0.1 -0.5,-0.2 -0.7,-0.4 -4.3,3.6 -9,6.7 -13.9,9.4 5,2.9 9.7,6.1 14,9.6 z"
           id="path45"
           inkscape:connector-curvature="0"
           style="fill:none" /><path
           class="noFillSVG"
           d="m 210.2,535.4 c 8.7,-1 17.4,-1.2 26.1,-0.8 -1.4,-9.7 -2.2,-19.6 -2.4,-29.7 -10.2,9.8 -20,20.1 -29.3,30.8 1.5,0.4 3.2,0 5.6,-0.3 z"
           id="path47"
           inkscape:connector-curvature="0"
           style="fill:none" /><path
           class="noFillSVG"
           d="m 698.4,665.8 c -5.9,-4.8 -11.3,-10.2 -16.3,-15.8 -6,8 -12.5,15.6 -19.4,22.8 14.3,0.3 28.6,-0.1 42.9,-1 -0.1,-0.3 -0.3,-0.5 -0.5,-0.8 -1.6,-2 -4.7,-3.6 -6.7,-5.2 z"
           id="path49"
           inkscape:connector-curvature="0"
           style="fill:none" /><path
           class="noFillSVG"
           d="m 756.1,464.6 c -8.7,1 -17.4,1.2 -26.2,0.8 1.4,9.7 2.2,19.7 2.4,29.7 10.2,-9.9 20.1,-20.1 29.4,-30.9 -1.5,-0.3 -3.2,0.1 -5.6,0.4 z"
           id="path51"
           inkscape:connector-curvature="0"
           style="fill:none" /><circle
           class="noFillSVG"
           cx="483.10001"
           cy="500"
           r="239.3"
           id="circle53"
           style="fill:none" /><path
           class="noFillSVG"
           d="m 485.1,253.5 c -0.1,0 -0.2,0 -0.4,0 -0.5,0 -1.1,0 -1.6,0 -0.5,0 -1,0 -1.5,0 -0.1,0 -0.3,0 -0.4,0 -66.6,0.5 -126.9,27.5 -171.1,71 0,0 0,0 -0.1,0.1 -0.8,0.8 -1.6,1.6 -2.4,2.4 0,0 0,0 -0.1,0.1 -43.5,44.1 -70.5,104.4 -71,170.9 0.1,0.3 0.1,0.5 0,0.8 0,0.4 0,0.9 0,1.3 0,0.4 0,0.9 0,1.3 0.1,0.3 0.1,0.5 0,0.8 0.6,66.5 27.6,126.8 71,170.9 0,0 0,0 0.1,0.1 0.8,0.8 1.6,1.6 2.4,2.4 0,0 0,0 0.1,0.1 44.1,43.5 104.5,70.5 171.1,71 0.1,0 0.3,0 0.4,0 0.5,0 1,0 1.5,0 0.5,0 1.1,0 1.6,0 0.1,0 0.2,0 0.4,0 135,-1.1 244.6,-111.2 244.6,-246.5 0,-135.3 -109.6,-245.7 -244.6,-246.7 z m -2,487.2 c -132.7,0 -240.7,-108 -240.7,-240.7 0,-132.7 108,-240.7 240.7,-240.7 132.7,0 240.7,108 240.7,240.7 0,132.7 -108,240.7 -240.7,240.7 z"
           id="path55"
           inkscape:connector-curvature="0"
           style="fill:none" /><path
           class="noFillSVG"
           d="m 770.6,476.2 c -2.3,-3.1 -3.9,-6.5 -6,-9.7 -0.2,-0.3 -0.4,-0.5 -0.6,-0.8 -9,10.3 -18.4,20.2 -28.2,29.7 5.7,-1.4 11.5,-1.9 17.4,-2.5 9.6,-1 19.1,-2.5 28.5,-4.4 -4,-3.7 -7.8,-7.8 -11.1,-12.3 z"
           id="path57"
           inkscape:connector-curvature="0"
           style="fill:none" /><path
           class="noFillSVG"
           d="m 459.4,787.5 c 4.5,3.3 8.6,7.1 12.3,11.2 1.9,-9.4 3.4,-18.9 4.4,-28.5 0.6,-5.9 1.1,-11.7 2.5,-17.4 -9.5,9.8 -19.4,19.2 -29.7,28.2 0.5,0.4 1,0.7 1.7,1.1 3.1,1.5 6,3.4 8.8,5.4 z"
           id="path59"
           inkscape:connector-curvature="0"
           style="fill:none" /><path
           class="noFillSVG"
           d="m 784.1,490.5 c -0.2,0.2 -0.4,0.3 -0.7,0.4 -8.3,1.7 -16.7,3.1 -25.2,4.2 -8.7,1 -17.5,1.4 -25.9,4.2 0,0.2 0,0.5 0,0.7 0,0.2 0,0.5 0,0.7 8.4,2.8 17.2,3.2 25.9,4.2 8.5,1 16.8,2.4 25.2,4.2 0.3,0.1 0.5,0.2 0.6,0.4 4.3,-3.6 9,-6.7 13.9,-9.5 -4.8,-2.8 -9.5,-5.9 -13.8,-9.5 z"
           id="path61"
           inkscape:connector-curvature="0"
           style="fill:none" /><path
           class="noFillSVG"
           d="m 757.4,535.6 c 1.8,0.2 3.2,0.4 4.3,0.2 -9.4,-10.7 -19.2,-21 -29.4,-30.8 -0.2,10.1 -1,20 -2.4,29.7 9.3,-0.6 18.4,-0.3 27.5,0.9 z"
           id="path63"
           inkscape:connector-curvature="0"
           style="fill:none" /><path
           class="noFillSVG"
           d="m 781.8,511.5 c -9.4,-1.9 -18.9,-3.4 -28.5,-4.4 -5.9,-0.6 -11.7,-1.1 -17.4,-2.5 9.8,9.5 19.2,19.4 28.2,29.7 0.4,-0.5 0.7,-1 1.1,-1.7 1.6,-3.1 3.5,-6 5.5,-8.8 3.2,-4.6 7,-8.6 11.1,-12.3 z"
           id="path65"
           inkscape:connector-curvature="0"
           style="fill:none" /><path
           class="noFillSVG"
           d="m 779.4,622.7 c -9.2,-27.8 -29.9,-49.3 -53.6,-65.7 -6.3,26.6 -16.8,51.6 -30.9,74.2 28.4,5.2 58.3,4.6 84.5,-8.5 z"
           id="path67"
           inkscape:connector-curvature="0"
           style="fill:none" /><path
           class="noFillSVG"
           d="m 492.2,800.3 c -1.7,-8.3 -3.1,-16.7 -4.2,-25.2 -1,-8.7 -1.4,-17.5 -4.2,-25.9 -0.2,0 -0.5,0 -0.7,0 -0.2,0 -0.4,0 -0.7,0 -2.8,8.4 -3.2,17.1 -4.2,25.9 -1,8.5 -2.4,16.8 -4.2,25.2 -0.1,0.3 -0.2,0.5 -0.4,0.7 3.6,4.3 6.7,9 9.4,13.9 2.8,-4.9 5.9,-9.6 9.5,-13.9 -0.1,-0.2 -0.2,-0.4 -0.3,-0.7 z"
           id="path69"
           inkscape:connector-curvature="0"
           style="fill:none" /><path
           class="noFillSVG"
           d="m 648.9,715.3 c 1.3,1.5 4.1,6.7 5.8,7.5 0,0 0.1,0 0.1,0 1,-14.4 1.3,-28.9 1.1,-43.4 -7.2,6.9 -14.8,13.4 -22.8,19.4 5.7,5.2 11,10.6 15.8,16.5 z"
           id="path71"
           inkscape:connector-curvature="0"
           style="fill:none" /><path
           class="noFillSVG"
           d="m 478.2,749.2 c -10.1,-0.2 -20,-1 -29.7,-2.4 0.5,9.2 0.3,18.3 -0.9,27.4 -0.2,1.8 -0.4,3.2 -0.2,4.3 10.7,-9.3 21,-19.1 30.8,-29.3 z"
           id="path73"
           inkscape:connector-curvature="0"
           style="fill:none" /><path
           class="noFillSVG"
           d="m 267.8,334.2 c 5.9,4.8 11.2,10.1 16.3,15.8 6,-8 12.5,-15.5 19.4,-22.7 -14.3,-0.3 -28.5,0.1 -42.8,1 0.1,0.3 0.3,0.5 0.5,0.8 1.6,1.9 4.7,3.5 6.6,5.1 z"
           id="path75"
           inkscape:connector-curvature="0"
           style="fill:none" /><path
           class="noFillSVG"
           d="m 614.4,711.8 c -22.6,14.1 -47.6,24.6 -74.2,30.9 16.4,23.7 37.9,44.4 65.7,53.6 13.1,-26.2 13.7,-56.1 8.5,-84.5 z"
           id="path77"
           inkscape:connector-curvature="0"
           style="fill:none" /><path
           class="noFillSVG"
           d="m 665,675.5 c 5,3 9.5,6.8 14.1,10.5 7.5,6.1 15.3,11.7 23.3,17 -0.4,-7 0.1,-14 1.6,-21 0.5,-2.4 1.8,-5.2 2,-7.6 -13.6,0.9 -27.3,1.3 -41,1.1 z"
           id="path79"
           inkscape:connector-curvature="0"
           style="fill:none" /><path
           class="noFillSVG"
           d="m 665.2,720.9 c 7,-1.5 14,-2 21,-1.6 -5.3,-8 -10.9,-15.8 -17,-23.3 -3.7,-4.6 -7.5,-9.1 -10.5,-14.1 0.2,13.8 -0.1,27.5 -1.1,41.3 2.5,-0.3 5.5,-1.8 7.6,-2.3 z"
           id="path81"
           inkscape:connector-curvature="0"
           style="fill:none" /><path
           class="noFillSVG"
           d="m 705.9,722.7 c -1.5,-5.4 -2.6,-11 -3.1,-16.5 -0.3,0 -0.5,0 -0.8,-0.2 -7.1,-4.7 -14,-9.6 -20.7,-14.9 -6.9,-5.5 -13.4,-11.4 -21.4,-15.4 -0.3,0.3 -0.6,0.6 -0.9,0.9 3.9,8 9.9,14.5 15.4,21.4 5.3,6.7 10.2,13.6 14.9,20.7 0.2,0.3 0.2,0.5 0.2,0.8 5.4,0.6 10.9,1.6 16.4,3.2 z"
           id="path83"
           inkscape:connector-curvature="0"
           style="fill:none" /><path
           class="noFillSVG"
           d="m 690.7,362.2 c 0.9,1.3 1.8,2.7 2.6,4 29.6,-5.5 60.8,-4.9 88.1,9 0.3,0.1 0.6,0.3 0.8,0.5 0,0 0,0 0,0 0,0 0,0.1 0.1,0.1 0.2,0.4 0.2,0.9 -0.1,1.3 -9.4,29.1 -31,51.6 -55.9,68.6 0.4,1.6 0.7,3.2 1,4.7 0,0 0,0 0.1,0 17.6,-3.7 29.9,-17.3 40.9,-30.7 11.9,-14.5 23.3,-30 26.5,-49 -15,-10.7 -33.2,-13.8 -51.1,-15.7 -17.8,-1.9 -37.1,-3.3 -52.8,7 0,0.2 -0.1,0.2 -0.2,0.2 z"
           id="path85"
           inkscape:connector-curvature="0"
           style="fill:none" /><path
           class="noFillSVG"
           d="m 238.1,546.2 c -0.6,-2.9 -1.1,-5.9 -1.5,-8.9 0,0 0,0 0,0 -11.4,-0.6 -22.7,0 -34,1.9 -0.6,0.1 -1.3,0 -1.5,-0.6 -7.7,-16.5 -20.3,-29 -36.3,-37.5 -0.5,-0.3 -0.7,-0.8 -0.7,-1.2 0,-0.4 0.1,-0.9 0.7,-1.1 16,-8.4 28.7,-20.9 36.3,-37.4 0.3,-0.6 1,-0.7 1.5,-0.6 11.3,1.9 22.5,2.5 34,1.9 0,0 0,0 0,0 0.4,-3 1,-5.9 1.5,-8.9 -10.3,0.2 -20.6,-0.5 -30.8,-2.2 -2.7,-0.5 -5.9,-2 -8.3,-0.2 -1.2,0.9 -3,4.9 -3.9,6.2 -2.8,4.5 -5.8,8.8 -9.1,13 -10,13 -22.4,24 -38,29.5 15.5,5.5 27.9,16.3 38,29.4 3.2,4.2 6.2,8.6 9.1,13 0.9,1.5 2.3,5.3 3.9,6.2 2.8,1.8 6.5,0.1 9.6,-0.4 9.7,-1.6 19.6,-2.2 29.5,-2.1 z"
           id="path87"
           inkscape:connector-curvature="0"
           style="fill:none" /><path
           class="noFillSVG"
           d="m 238.8,450.5 c 0.3,-1.6 0.7,-3.2 1,-4.8 -24.8,-17 -46.4,-39.5 -55.8,-68.6 -0.2,-0.4 -0.3,-0.9 -0.1,-1.3 0,-0.1 0,-0.1 0.1,-0.2 0,0 0,0 0,0 0.2,-0.2 0.5,-0.4 0.8,-0.5 27.3,-13.9 58.4,-14.5 88,-9 0.9,-1.4 1.8,-2.7 2.7,-4.1 0,0 -0.1,0 -0.1,0 -15.7,-10.3 -34.9,-8.8 -52.8,-7 -18,1.9 -36.1,5 -51.1,15.7 3.2,18.9 14.6,34.4 26.5,49 10.8,13.5 23.1,27.2 40.8,30.8 0,0 0,0 0,0 z"
           id="path89"
           inkscape:connector-curvature="0"
           style="fill:none" /><path
           class="noFillSVG"
           d="m 537.3,256.7 c 17,-24.8 39.5,-46.4 68.6,-55.9 0.4,-0.2 0.9,-0.3 1.3,-0.1 0.1,0 0.1,0 0.2,0.1 0,0 0,0 0,0 0.2,0.2 0.4,0.5 0.5,0.8 13.9,27.3 14.5,58.5 9,88.1 1.4,0.9 2.7,1.8 4,2.7 0,-0.1 0,-0.1 0.1,-0.2 10.3,-15.7 8.8,-34.9 7,-52.8 -1.9,-18 -5,-36.1 -15.7,-51.1 -18.9,3.2 -34.4,14.6 -49,26.5 -13.4,10.9 -27,23.2 -30.7,40.9 0,0 0,0 0,0 1.6,0.3 3.1,0.6 4.7,1 z"
           id="path91"
           inkscape:connector-curvature="0"
           style="fill:none" /><path
           class="noFillSVG"
           d="m 436.9,255 c 2.9,-0.6 5.9,-1.1 8.9,-1.5 0,0 0,0 0,0 0.6,-11.4 0,-22.7 -1.9,-34 -0.1,-0.6 0,-1.3 0.6,-1.5 16.5,-7.7 29,-20.4 37.4,-36.3 0.3,-0.5 0.8,-0.7 1.2,-0.7 0.4,0 0.9,0.1 1.1,0.7 8.4,16 21,28.7 37.5,36.3 0.6,0.3 0.7,1 0.6,1.5 -1.9,11.3 -2.5,22.5 -1.9,34 0,0 0,0 0,0.1 3,0.5 5.9,1 8.9,1.5 -0.2,-10.4 0.5,-20.7 2.2,-30.9 0.5,-2.7 2,-5.9 0.2,-8.3 -0.9,-1.2 -4.9,-3 -6.2,-3.9 -4.5,-2.8 -8.8,-5.8 -13,-9.1 -13.1,-10 -23.9,-22.4 -29.4,-38 -5.5,15.5 -16.5,28 -29.5,38 -4.2,3.2 -8.6,6.2 -13,9.1 -1.5,0.9 -5.3,2.3 -6.2,3.9 -1.8,2.8 -0.1,6.5 0.4,9.6 1.7,9.7 2.3,19.6 2.1,29.5 z"
           id="path93"
           inkscape:connector-curvature="0"
           style="fill:none" /><path
           class="noFillSVG"
           d="m 335.3,700.6 c 0,0 0,0.1 -0.1,0.1 -8.5,7.6 -16.1,16 -22.7,25.3 -0.3,0.5 -0.9,0.8 -1.5,0.6 -17.1,-6.2 -34.8,-6.1 -52.2,-0.8 -0.5,0.2 -0.9,0 -1.2,-0.3 0,0 0,0 -0.1,-0.1 0,0 -0.1,-0.1 -0.1,-0.1 -0.3,-0.3 -0.4,-0.7 -0.3,-1.2 5.3,-17.3 5.5,-35 -0.7,-52.1 -0.2,-0.6 0.2,-1.2 0.6,-1.5 9.3,-6.6 17.7,-14.2 25.3,-22.7 0,0 0.1,0 0.1,-0.1 -1.8,-2.4 -3.5,-4.9 -5.2,-7.4 -6.5,6.7 -13.5,13 -21,18.5 -2.1,1.5 -5,2.9 -6.8,4.7 -2.5,2.6 -1.3,4.7 -0.5,8 1.2,5.1 2.2,10.2 2.9,15.4 2.5,17 1.7,34.4 -5.7,49.9 15.6,-7.5 32.8,-8.3 49.8,-5.8 5.6,0.8 11.1,2 16.6,3.2 4,0.9 4.6,1.1 7.4,-1.8 1.6,-1.6 2.7,-4 4.1,-5.8 5.6,-7.5 11.8,-14.5 18.5,-21 -2.3,-1.4 -4.7,-3.2 -7.2,-5 z"
           id="path95"
           inkscape:connector-curvature="0"
           style="fill:none" /><path
           class="noFillSVG"
           d="m 345.4,292.3 c 1.3,-0.9 2.7,-1.8 4.1,-2.7 -5.5,-29.6 -4.9,-60.8 9,-88.1 0.1,-0.3 0.3,-0.6 0.5,-0.8 0,0 0,0 0,0 0,0 0.1,0 0.1,-0.1 0.4,-0.2 0.9,-0.2 1.3,0.1 29.1,9.4 51.6,31 68.6,55.8 1.6,-0.4 3.2,-0.7 4.7,-1 0,0 0,0 0,0 -3.7,-17.6 -17.3,-29.9 -30.7,-40.9 -14.5,-11.9 -30,-23.3 -49,-26.5 -10.7,15 -13.8,33.2 -15.7,51.1 -1.9,17.8 -3.3,37.1 7,52.8 0,0.3 0,0.3 0.1,0.3 z"
           id="path97"
           inkscape:connector-curvature="0"
           style="fill:none" /><path
           class="noFillSVG"
           d="m 277.3,359.5 c 1.7,-2.5 3.4,-4.9 5.2,-7.4 0,0 -0.1,0 -0.1,-0.1 -7.6,-8.5 -16,-16.1 -25.3,-22.7 -0.5,-0.3 -0.8,-0.9 -0.6,-1.5 6.2,-17.1 6.1,-34.8 0.8,-52.2 -0.2,-0.5 0,-0.9 0.3,-1.2 0,0 0,0 0.1,-0.1 0,0 0.1,-0.1 0.1,-0.1 0.3,-0.3 0.7,-0.4 1.2,-0.3 17.3,5.3 35,5.5 52.1,-0.7 0.6,-0.2 1.2,0.2 1.5,0.6 6.6,9.3 14.2,17.7 22.7,25.3 0,0 0.1,0.1 0.1,0.1 2.4,-1.8 4.9,-3.5 7.4,-5.2 -6.7,-6.5 -13,-13.5 -18.5,-21 -1.5,-2.1 -2.9,-5 -4.7,-6.8 -2.6,-2.5 -4.7,-1.3 -8,-0.5 -5.1,1.2 -10.2,2.2 -15.4,2.9 -17,2.5 -34.4,1.7 -49.9,-5.7 7.5,15.6 8.3,32.8 5.8,49.8 -0.8,5.6 -2,11.1 -3.2,16.6 -0.9,4 -1.1,4.6 1.8,7.4 1.6,1.6 4,2.7 5.8,4.1 7.3,5.8 14.3,12 20.8,18.7 z"
           id="path99"
           inkscape:connector-curvature="0"
           style="fill:none" /><path
           class="noFillSVG"
           d="m 275.5,637.8 c -0.9,-1.3 -1.8,-2.7 -2.7,-4.1 -29.6,5.5 -60.7,4.9 -88,-9 -0.3,-0.1 -0.6,-0.3 -0.8,-0.5 0,0 0,0 0,0 0,0 0,-0.1 -0.1,-0.1 -0.2,-0.4 -0.2,-0.9 0.1,-1.3 9.4,-29.1 31,-51.6 55.8,-68.6 -0.4,-1.6 -0.7,-3.2 -1,-4.8 0,0 0,0 0,0 -17.6,3.7 -29.9,17.3 -40.9,30.7 -11.9,14.5 -23.3,30 -26.5,49 15,10.7 33.2,13.8 51.1,15.7 17.8,1.9 37.1,3.3 52.8,-7 0.1,0 0.1,0 0.2,0 z"
           id="path101"
           inkscape:connector-curvature="0"
           style="fill:none" /><path
           class="noFillSVG"
           d="m 429,743.3 c -17,24.8 -39.5,46.4 -68.6,55.8 -0.4,0.2 -0.9,0.3 -1.3,0.1 -0.1,0 -0.1,0 -0.2,-0.1 0,0 0,0 0,0 -0.2,-0.2 -0.4,-0.5 -0.5,-0.8 -13.9,-27.3 -14.5,-58.4 -9,-88.1 -1.4,-0.9 -2.7,-1.8 -4.1,-2.7 0,0 0,0.1 -0.1,0.1 -10.3,15.7 -8.8,34.9 -7,52.8 1.9,18 5,36.1 15.7,51.1 18.9,-3.2 34.4,-14.6 49,-26.5 13.4,-10.9 27,-23.2 30.7,-40.9 0,0 0,0 0,0 -1.5,-0.1 -3.1,-0.4 -4.6,-0.8 z"
           id="path103"
           inkscape:connector-curvature="0"
           style="fill:none" /><path
           class="noFillSVG"
           d="m 351.9,288.1 c 22.6,-14 47.6,-24.6 74.2,-30.8 -16.4,-23.7 -37.9,-44.4 -65.7,-53.6 -13.1,26.2 -13.7,56.1 -8.5,84.4 z"
           id="path105"
           inkscape:connector-curvature="0"
           style="fill:none" /><path
           class="noFillSVG"
           d="m 780.2,470.6 c -3.2,-4.2 -6.2,-8.6 -9.1,-13 -0.9,-1.5 -2.3,-5.3 -3.9,-6.2 -2.8,-1.8 -6.5,-0.1 -9.6,0.4 -9.8,1.6 -19.7,2.2 -29.7,2 0.6,2.9 1.1,5.9 1.5,8.9 0,0 0.1,0 0.1,0 11.4,0.6 22.7,0 34,-1.9 0.6,-0.1 1.3,0 1.5,0.6 7.7,16.5 20.4,29 36.3,37.4 0.5,0.3 0.7,0.8 0.7,1.2 0,0.4 -0.2,0.9 -0.7,1.1 -16,8.4 -28.7,21 -36.3,37.5 -0.3,0.6 -1,0.7 -1.5,0.6 -11.3,-1.9 -22.5,-2.5 -34,-1.9 0,0 -0.1,0 -0.1,0 -0.5,3 -1,5.9 -1.5,8.9 10.4,-0.2 20.7,0.5 30.9,2.2 2.7,0.5 5.9,2 8.3,0.2 1.2,-0.9 3,-4.9 3.9,-6.2 2.8,-4.5 5.8,-8.8 9.1,-13 10,-13.1 22.4,-23.9 38,-29.4 -15.4,-5.4 -27.9,-16.4 -37.9,-29.4 z"
           id="path107"
           inkscape:connector-curvature="0"
           style="fill:none" /><path
           class="noFillSVG"
           d="m 529.4,745 c -2.9,0.6 -5.9,1.1 -8.9,1.5 0,0 0,0 0,0.1 -0.6,11.4 0,22.7 1.9,34 0.1,0.6 0,1.3 -0.6,1.5 -16.5,7.7 -29,20.3 -37.5,36.3 -0.3,0.5 -0.8,0.7 -1.2,0.7 -0.4,0 -0.9,-0.1 -1.1,-0.7 -8.4,-16 -20.9,-28.7 -37.4,-36.3 -0.6,-0.3 -0.7,-1 -0.6,-1.5 1.9,-11.3 2.5,-22.5 1.9,-34 0,0 0,0 0,0 -3,-0.4 -5.9,-1 -8.9,-1.5 0.2,10.3 -0.5,20.7 -2.2,30.9 -0.5,2.7 -2,5.9 -0.2,8.3 0.9,1.2 4.9,3 6.2,3.9 4.5,2.8 8.8,5.8 13,9.1 13,10 24,22.4 29.5,38 5.5,-15.5 16.3,-27.9 29.4,-38 4.2,-3.2 8.6,-6.2 13,-9.1 1.5,-0.9 5.3,-2.3 6.2,-3.9 1.8,-2.8 0.1,-6.5 -0.4,-9.6 -1.7,-9.9 -2.3,-19.8 -2.1,-29.7 z"
           id="path109"
           inkscape:connector-curvature="0"
           style="fill:none" /><path
           class="noFillSVG"
           d="m 689,640.4 c -1.7,2.5 -3.4,4.9 -5.2,7.4 0.1,0 0.1,0.1 0.2,0.1 7.6,8.5 16,16.1 25.3,22.7 0.5,0.3 0.8,0.9 0.6,1.5 -6.2,17.1 -6.1,34.8 -0.7,52.1 0.2,0.5 0,0.9 -0.3,1.2 0,0 0,0 0,0 -0.1,0.1 -0.1,0.1 -0.2,0.2 -0.3,0.3 -0.7,0.4 -1.2,0.3 -17.3,-5.3 -35.1,-5.4 -52.2,0.8 -0.6,0.2 -1.2,-0.2 -1.5,-0.6 -6.6,-9.3 -14.2,-17.7 -22.7,-25.3 -0.1,0 -0.1,-0.1 -0.1,-0.2 -2.4,1.8 -4.9,3.5 -7.4,5.2 6.8,6.5 13,13.5 18.6,21 1.5,2.1 2.9,5 4.7,6.8 2.6,2.5 4.7,1.3 8,0.5 5.1,-1.2 10.2,-2.2 15.4,-2.9 17.1,-2.5 34.3,-1.7 49.8,5.8 -7.4,-15.6 -8.2,-32.9 -5.7,-49.9 0.8,-5.6 2,-11.1 3.2,-16.6 0.9,-4 1.1,-4.6 -1.8,-7.4 -1.6,-1.6 -4,-2.7 -5.8,-4.1 -7.5,-5.6 -14.5,-11.8 -21,-18.6 z"
           id="path111"
           inkscape:connector-curvature="0"
           style="fill:none" /><path
           class="noFillSVG"
           d="m 620.9,707.6 c -1.3,0.9 -2.7,1.8 -4,2.7 5.5,29.6 4.9,60.8 -9,88.1 -0.1,0.3 -0.3,0.6 -0.5,0.8 0,0 0,0 0,0 0,0 -0.1,0 -0.1,0.1 -0.4,0.2 -0.9,0.2 -1.3,-0.1 -29.1,-9.4 -51.6,-31 -68.6,-55.9 -1.6,0.4 -3.2,0.7 -4.7,1 0,0 0,0 0,0 3.7,17.6 17.3,29.9 30.7,40.9 14.5,11.9 30,23.3 49,26.5 10.7,-15 13.8,-33.2 15.7,-51.1 1.9,-17.8 3.3,-37.1 -7,-52.8 -0.1,-0.1 -0.1,-0.1 -0.2,-0.2 z"
           id="path113"
           inkscape:connector-curvature="0"
           style="fill:none" /><path
           class="noFillSVG"
           d="m 727.5,549.4 c -0.3,1.6 -0.7,3.2 -1,4.7 24.8,17 46.5,39.5 55.9,68.6 0.2,0.4 0.3,0.9 0.1,1.3 0,0.1 0,0.1 -0.1,0.2 0,0 0,0 0,0 -0.2,0.2 -0.5,0.4 -0.8,0.5 -27.3,13.9 -58.5,14.5 -88.1,9 -0.9,1.4 -1.8,2.7 -2.6,4 0.1,0 0.1,0 0.2,0.1 15.7,10.3 34.9,8.8 52.8,7 18,-1.9 36.1,-5 51.1,-15.7 -3.2,-18.9 -14.6,-34.4 -26.5,-49 -11,-13.3 -23.3,-27 -41,-30.7 0,0 0,0 0,0 z"
           id="path115"
           inkscape:connector-curvature="0"
           style="fill:none" /><path
           class="noFillSVG"
           d="m 506.9,212.5 c -4.5,-3.3 -8.6,-7 -12.3,-11.1 -1.9,9.4 -3.4,18.9 -4.4,28.5 -0.6,5.9 -1.1,11.7 -2.5,17.4 9.5,-9.8 19.4,-19.2 29.7,-28.2 -0.5,-0.4 -1,-0.7 -1.7,-1.1 -3.1,-1.6 -6,-3.5 -8.8,-5.5 z"
           id="path117"
           inkscape:connector-curvature="0"
           style="fill:none" /><path
           class="noFillSVG"
           d="m 459.4,212.5 c -3.1,2.3 -6.5,3.9 -9.7,6 -0.3,0.2 -0.5,0.4 -0.8,0.6 10.3,9 20.2,18.4 29.7,28.2 -1.4,-5.7 -1.9,-11.5 -2.5,-17.4 -1,-9.6 -2.5,-19.1 -4.4,-28.5 -3.7,4 -7.8,7.8 -12.3,11.1 z"
           id="path119"
           inkscape:connector-curvature="0"
           style="fill:none" /><path
           class="noFillSVG"
           d="m 698.4,334.2 c 1.5,-1.3 6.7,-4.1 7.5,-5.8 0,0 0,-0.1 0,-0.1 -14.4,-1 -28.9,-1.3 -43.4,-1.1 6.9,7.2 13.4,14.8 19.4,22.8 5.3,-5.6 10.7,-10.9 16.5,-15.8 z"
           id="path121"
           inkscape:connector-curvature="0"
           style="fill:none" /><path
           class="noFillSVG"
           d="m 478.2,250.8 c -9.9,-10.2 -20.1,-20 -30.8,-29.4 -0.4,1.5 0.1,3.3 0.4,5.6 1,8.7 1.2,17.4 0.8,26.1 9.6,-1.3 19.6,-2.1 29.6,-2.3 z"
           id="path123"
           inkscape:connector-curvature="0"
           style="fill:none" /><path
           class="noFillSVG"
           d="m 474.1,199.7 c 1.7,8.3 3.2,16.7 4.2,25.2 1,8.7 1.4,17.5 4.2,25.9 0.2,0 0.4,0 0.7,0 0.2,0 0.5,0 0.7,0 2.8,-8.4 3.2,-17.1 4.2,-25.9 1,-8.5 2.4,-16.8 4.2,-25.2 0.1,-0.3 0.2,-0.5 0.4,-0.6 -3.6,-4.3 -6.7,-9 -9.5,-13.9 -2.7,4.9 -5.9,9.6 -9.4,13.9 0,0.1 0.2,0.3 0.3,0.6 z"
           id="path125"
           inkscape:connector-curvature="0"
           style="fill:none" /><path
           class="noFillSVG"
           d="m 630.9,299.4 c 0,-0.1 0.1,-0.1 0.1,-0.2 8.5,-7.6 16.1,-16 22.7,-25.3 0.3,-0.5 0.9,-0.8 1.5,-0.6 17.1,6.2 34.8,6.1 52.1,0.7 0.5,-0.2 0.9,0 1.2,0.3 0,0 0,0 0,0 0.1,0.1 0.1,0.1 0.2,0.2 0.3,0.3 0.4,0.7 0.3,1.2 -5.3,17.3 -5.4,35.1 0.8,52.2 0.2,0.6 -0.2,1.2 -0.6,1.5 -9.3,6.6 -17.7,14.2 -25.3,22.7 -0.1,0.1 -0.1,0.1 -0.2,0.1 1.8,2.4 3.5,4.9 5.2,7.4 6.5,-6.8 13.5,-13 21,-18.6 2.1,-1.5 5,-2.9 6.8,-4.7 2.5,-2.6 1.3,-4.7 0.5,-8 -1.2,-5.1 -2.2,-10.2 -2.9,-15.4 -2.5,-17.1 -1.7,-34.3 5.8,-49.8 -15.6,7.4 -32.9,8.2 -49.9,5.7 -5.6,-0.8 -11.1,-2 -16.6,-3.2 -4,-0.9 -4.6,-1.1 -7.4,1.8 -1.6,1.6 -2.7,4 -4.1,5.8 -5.6,7.5 -11.8,14.5 -18.6,21 2.6,1.7 5,3.4 7.4,5.2 z"
           id="path127"
           inkscape:connector-curvature="0"
           style="fill:none" /><path
           class="noFillSVG"
           d="m 488.1,250.8 c 10.1,0.2 20,1 29.7,2.4 -0.5,-9.2 -0.3,-18.3 0.9,-27.4 0.2,-1.8 0.4,-3.2 0.2,-4.3 -10.7,9.3 -21,19.1 -30.8,29.3 z"
           id="path129"
           inkscape:connector-curvature="0"
           style="fill:none" /><path
           class="noFillSVG"
           d="m 540.2,257.3 c 26.6,6.3 51.6,16.8 74.2,30.9 5.2,-28.4 4.6,-58.3 -8.5,-84.5 -27.8,9.2 -49.4,29.9 -65.7,53.6 z"
           id="path131"
           inkscape:connector-curvature="0"
           style="fill:none" /><path
           class="noFillSVG"
           d="m 779.4,377.3 c -26.2,-13.1 -56.1,-13.7 -84.5,-8.5 14.1,22.6 24.6,47.6 30.9,74.2 23.7,-16.4 44.4,-38 53.6,-65.7 z"
           id="path133"
           inkscape:connector-curvature="0"
           style="fill:none" /><path
           class="noFillSVG"
           d="m 665.2,279.1 c -2.4,-0.5 -5.2,-1.8 -7.6,-2 0.9,13.7 1.3,27.3 1.1,41 3,-5 6.8,-9.5 10.5,-14.1 6.1,-7.5 11.7,-15.3 17,-23.3 -7,0.4 -14,-0.1 -21,-1.6 z"
           id="path135"
           inkscape:connector-curvature="0"
           style="fill:none" /><path
           class="noFillSVG"
           d="m 702.4,297 c -8,5.3 -15.8,10.9 -23.3,17 -4.6,3.7 -9.1,7.5 -14.1,10.5 13.8,-0.2 27.5,0.1 41.3,1.1 C 706,323 704.5,320 704,317.9 702.5,311 702.1,304 702.4,297 Z"
           id="path137"
           inkscape:connector-curvature="0"
           style="fill:none" /><path
           class="noFillSVG"
           d="m 648.9,284.7 c -4.8,5.9 -10.2,11.3 -15.8,16.3 8,6 15.6,12.5 22.8,19.4 0.3,-14.3 -0.1,-28.6 -1,-42.9 -0.3,0.1 -0.5,0.3 -0.8,0.5 -2,1.7 -3.6,4.7 -5.2,6.7 z"
           id="path139"
           inkscape:connector-curvature="0"
           style="fill:none" /><path
           class="noFillSVG"
           d="m 689.3,280.4 c 0,0.3 0,0.5 -0.2,0.8 -4.7,7.1 -9.6,14 -14.9,20.7 -5.5,6.9 -11.4,13.4 -15.4,21.4 0.3,0.3 0.6,0.6 0.9,0.9 8,-3.9 14.5,-9.9 21.4,-15.4 6.7,-5.3 13.6,-10.2 20.7,-14.9 0.3,-0.2 0.5,-0.2 0.8,-0.2 0.5,-5.6 1.6,-11.1 3.1,-16.6 -5.3,1.7 -10.9,2.8 -16.4,3.3 z"
           id="path141"
           inkscape:connector-curvature="0"
           style="fill:none" /><path
           d="m 483.1,259.3 c -132.7,0 -240.7,108 -240.7,240.7 0,132.7 108,240.7 240.7,240.7 132.7,0 240.7,-108 240.7,-240.7 0,-132.7 -108,-240.7 -240.7,-240.7 z m 0,480 c -132,0 -239.3,-107.4 -239.3,-239.3 0,-131.9 107.4,-239.3 239.3,-239.3 131.9,0 239.3,107.3 239.3,239.3 0,132 -107.3,239.3 -239.3,239.3 z"
           id="path143"
           inkscape:connector-curvature="0" /><path
           d="m 351.1,179.8 c 30,4 53.4,23.9 74.4,44.2 0.5,0.4 1.4,0 1.1,-0.7 -0.9,-2.3 -2.2,-5 -2.8,-7.4 -1,-4.2 -0.2,-6.1 2.9,-8.9 3.2,-2.9 7.7,-4.9 11.3,-7.3 7.1,-4.9 14,-10.1 20.3,-15.9 11,-10.2 19.6,-22.3 24.9,-36.3 5.2,14 14,26.1 24.9,36.3 6,5.6 12.5,10.6 19.3,15.2 4,2.8 8.5,5 12.3,8 6,4.8 2.3,10.4 0.1,16.3 -0.2,0.7 0.7,1.1 1.1,0.7 21,-20.3 44.4,-40.3 74.4,-44.2 0.9,-0.1 0.9,-1.5 0,-1.4 -15.8,2.1 -30.3,8.5 -43.3,17.4 -6.5,4.4 -12.6,9.4 -18.5,14.6 -3.4,3 -6.8,6 -10,9.2 -1.5,1.5 -1.5,2.7 -1,0.4 0.5,-2.4 2.1,-4.6 2.6,-7 0.9,-4.8 -3.1,-6.1 -6.8,-8.4 -8.2,-5.2 -16.2,-10.7 -23.7,-16.9 -13.7,-11.4 -24.8,-25.3 -30.7,-42.2 0,0 0,0 0,0 -0.1,-0.1 -0.1,-0.2 -0.3,-0.3 0,0 0,0 -0.1,-0.1 -0.1,0 -0.2,0 -0.3,0 -0.1,0 -0.2,0 -0.3,0 0,0 -0.1,0 -0.1,0.1 -0.1,0.1 -0.2,0.2 -0.3,0.3 0,0 0,0 0,0 -5.9,17 -17,30.8 -30.7,42.2 -7.1,6 -14.8,11.2 -22.7,16.3 -3.8,2.5 -8.8,3.9 -7.8,9.1 0.4,1.9 1.4,3.9 2.1,5.8 1.2,3.1 1.9,3.3 -0.6,0.9 -2.9,-2.9 -6,-5.7 -9,-8.4 -6.2,-5.5 -12.6,-10.7 -19.4,-15.4 -13.1,-8.9 -27.6,-15.3 -43.3,-17.4 -0.9,-0.3 -0.9,1.1 0,1.2 z"
           id="path145"
           inkscape:connector-curvature="0" /><path
           d="m 615.2,820.2 c -30,-4 -53.4,-23.9 -74.4,-44.2 -0.5,-0.4 -1.4,0 -1.1,0.7 0.9,2.3 2.2,5 2.8,7.4 1,4.2 0.2,6.1 -2.9,8.9 -3.2,2.9 -7.7,4.9 -11.3,7.3 -7.1,4.9 -14,10.1 -20.3,15.9 -11,10.2 -19.7,22.3 -24.9,36.3 -5.2,-14 -13.9,-26.1 -24.9,-36.3 -6,-5.6 -12.5,-10.6 -19.3,-15.2 -4,-2.8 -8.5,-5 -12.3,-8 -6,-4.8 -2.3,-10.4 -0.1,-16.3 0.2,-0.7 -0.7,-1.1 -1.1,-0.7 -21,20.3 -44.4,40.3 -74.4,44.2 -0.9,0.1 -0.9,1.5 0,1.4 15.8,-2.1 30.3,-8.5 43.3,-17.4 6.5,-4.4 12.6,-9.4 18.5,-14.6 3.4,-3 6.8,-6 10,-9.2 1.5,-1.5 1.5,-2.7 1,-0.4 -0.5,2.4 -2.1,4.6 -2.6,7 -0.9,4.8 3.1,6.1 6.8,8.4 8.2,5.2 16.2,10.7 23.7,16.9 13.7,11.4 24.8,25.3 30.7,42.2 0,0 0,0 0,0 0.1,0.1 0.1,0.2 0.3,0.3 0,0 0,0 0.1,0.1 0.1,0 0.2,0 0.3,0 0.1,0 0.2,0 0.3,0 0,0 0.1,0 0.1,-0.1 0.1,-0.1 0.2,-0.2 0.3,-0.3 0,0 0,0 0,0 5.9,-17 17.1,-30.8 30.7,-42.2 7.1,-6 14.8,-11.2 22.7,-16.3 3.8,-2.5 8.8,-3.9 7.8,-9.1 -0.4,-1.9 -1.4,-3.9 -2.1,-5.8 -1.2,-3.1 -1.9,-3.3 0.6,-0.9 2.9,2.9 6,5.7 9,8.4 6.2,5.5 12.6,10.7 19.4,15.4 13.1,8.9 27.6,15.3 43.3,17.4 0.9,0.3 0.9,-1.1 0,-1.2 z"
           id="path147"
           inkscape:connector-curvature="0" /><path
           d="m 637.5,264 c 0,0.6 1,1 1.3,0.3 2.4,-5.1 3.6,-12 10.5,-11.7 4.5,0.2 9.5,2.1 13.9,3 8.1,1.5 16.3,2.7 24.5,3.1 15.5,0.8 30.6,-1.6 44.7,-8.1 -6.4,14.1 -8.8,29.3 -8,44.8 0.4,8.2 1.6,16.4 3.1,24.5 0.8,4.1 2.4,8.5 2.7,12.7 0.2,4.4 -0.5,6 -4.2,8.5 -2.1,1.4 -4.9,2.3 -7.2,3.3 -0.6,0.3 -0.3,1.3 0.3,1.3 29.3,0.5 59.9,3 84,21.4 0.7,0.5 1.4,-0.6 0.7,-1.2 -12.2,-9.4 -26.6,-15 -41.7,-18 -7.7,-1.5 -15.6,-2.4 -23.4,-2.9 -4.8,-0.3 -9.6,-0.6 -14.3,-0.6 -6.4,0 2.9,-2.2 4.7,-3.2 4.1,-2.4 3.4,-4.5 2.4,-8.9 -2,-9.2 -4,-18.4 -5,-27.8 -2,-18.8 -0.5,-37.6 7.8,-54.7 0,0 0,0 0,0 0.1,-0.1 0.1,-0.3 0,-0.5 0,0 0,0 0,-0.1 0,-0.1 -0.1,-0.1 -0.2,-0.2 -0.1,-0.1 -0.1,-0.1 -0.2,-0.2 0,0 0,0 -0.1,0 -0.2,-0.1 -0.3,0 -0.5,0 0,0 0,0 0,0 -16.8,8.1 -35,9.9 -53.4,8 -9.4,-1 -18.6,-2.8 -27.8,-4.8 -5,-1.1 -7.3,-2.3 -10.2,2.2 -1.3,2 -3.2,11 -3.2,4.7 0,-4.3 -0.3,-8.7 -0.5,-13 -0.5,-7.9 -1.3,-15.7 -2.7,-23.5 -2.9,-15.5 -8.6,-30.3 -18.3,-42.9 -0.5,-0.7 -1.7,0 -1.2,0.7 18.6,23.9 21,54.5 21.5,83.8 z"
           id="path149"
           inkscape:connector-curvature="0" /><path
           d="m 328.8,736 c 0,-0.6 -1,-1 -1.3,-0.3 -2.4,5.1 -3.6,12 -10.5,11.7 -4.5,-0.2 -9.5,-2.1 -13.9,-3 -8.1,-1.5 -16.3,-2.7 -24.5,-3.1 -15.5,-0.8 -30.7,1.6 -44.8,8 6.4,-14.1 8.8,-29.2 8.1,-44.7 -0.4,-8.2 -1.6,-16.4 -3.1,-24.5 -0.8,-4.1 -2.4,-8.5 -2.7,-12.7 -0.2,-4.4 0.5,-6 4.2,-8.5 2.1,-1.4 4.9,-2.3 7.2,-3.3 0.6,-0.3 0.3,-1.3 -0.3,-1.3 -29.3,-0.5 -59.9,-3 -84,-21.4 -0.7,-0.5 -1.4,0.6 -0.7,1.2 12.2,9.4 26.6,15 41.7,18 7.7,1.5 15.6,2.4 23.4,2.9 4.8,0.3 9.6,0.6 14.3,0.6 6.4,0 -2.9,2.2 -4.7,3.2 -4.1,2.4 -3.4,4.5 -2.4,8.9 2,9.2 4,18.4 5,27.8 2.1,18.8 0.4,37.5 -7.9,54.7 0,0 0,0 0,0 -0.1,0.1 -0.1,0.3 0,0.5 0,0 0,0 0,0.1 0,0.1 0.1,0.1 0.2,0.2 0.1,0.1 0.1,0.1 0.2,0.2 0,0 0,0 0.1,0 0.2,0.1 0.3,0 0.5,0 0,0 0,0 0,0 16.8,-8.1 35.1,-9.8 53.5,-7.9 9.4,1 18.6,2.8 27.8,4.8 5,1.1 7.3,2.3 10.2,-2.2 1.3,-2 3.2,-11 3.2,-4.7 0,4.3 0.3,8.7 0.5,13 0.5,7.9 1.3,15.7 2.7,23.5 2.9,15.5 8.6,30.3 18.3,42.9 0.5,0.7 1.7,0 1.2,-0.7 -18.6,-24 -21,-54.6 -21.5,-83.9 z"
           id="path151"
           inkscape:connector-curvature="0" /><path
           d="m 823.4,499 c -0.1,-0.1 -0.2,-0.1 -0.3,-0.2 0,0 -0.1,0 -0.1,0 -25.7,-7.2 -41.5,-29.2 -54.6,-51 -0.3,-0.5 -0.9,-0.8 -1.5,-0.6 -10.3,2.3 -20.7,3.5 -31.2,3.8 14.3,-5.5 25,-17.4 34.7,-29.2 12.2,-15 24,-30.9 27.2,-50.4 0.1,-0.6 -0.2,-1 -0.5,-1.3 0.1,-0.5 -0.1,-1 -0.6,-1.3 -15.4,-11.1 -34.2,-14.2 -52.7,-16.2 -15.8,-1.7 -32.7,-2.9 -47.4,3.7 7.6,-7.2 15.9,-13.7 24.8,-19.4 0.5,-0.3 0.8,-0.9 0.6,-1.5 -6.2,-24.7 -10.4,-51.1 2.6,-74.4 0.1,-0.2 0.2,-0.4 0.2,-0.6 0,-0.1 0,-0.2 0,-0.3 0,0 0,-0.1 0,-0.1 0,-0.1 -0.1,-0.3 -0.2,-0.4 0,0 0,0 0,-0.1 -0.1,-0.1 -0.1,-0.2 -0.2,-0.2 -0.1,-0.1 -0.2,-0.1 -0.2,-0.2 0,0 0,0 -0.1,0 -0.1,-0.1 -0.3,-0.1 -0.4,-0.2 0,0 -0.1,0 -0.1,0 -0.1,0 -0.2,0 -0.3,0 -0.2,0 -0.4,0.1 -0.6,0.2 -23.2,13 -49.9,8.7 -74.5,2.5 -0.6,-0.2 -1.2,0.1 -1.5,0.6 -5.7,8.9 -12.2,17.1 -19.4,24.8 6.5,-14.7 5.3,-31.5 3.7,-47.4 -2,-18.5 -5.1,-37.3 -16.2,-52.7 -0.4,-0.5 -0.9,-0.6 -1.3,-0.6 -0.3,-0.4 -0.8,-0.6 -1.3,-0.5 -19.5,3.2 -35.5,15 -50.4,27.2 -11.8,9.6 -23.7,20.4 -29.2,34.7 0.3,-10.5 1.5,-20.9 3.8,-31.2 0.1,-0.6 -0.1,-1.2 -0.6,-1.5 -21.9,-13.1 -43.6,-28.9 -50.8,-54.6 0,0 0,-0.1 0,-0.1 0,-0.1 -0.1,-0.2 -0.2,-0.3 -0.3,-0.4 -0.7,-0.6 -1.1,-0.5 -0.4,0 -0.8,0.1 -1.1,0.5 -0.1,0.1 -0.1,0.2 -0.2,0.3 0,0 0,0.1 0,0.1 -7.2,25.7 -29.2,41.5 -51,54.6 -0.5,0.3 -0.8,0.9 -0.6,1.5 2.3,10.3 3.5,20.7 3.8,31.2 -5.5,-14.3 -17.4,-25 -29.2,-34.7 -15,-12.2 -30.9,-24 -50.4,-27.2 -0.6,-0.1 -1,0.2 -1.3,0.5 -0.5,-0.1 -1,0.1 -1.3,0.6 -11.1,15.4 -14.2,34.2 -16.2,52.7 -1.7,15.8 -2.9,32.7 3.7,47.4 -7.2,-7.6 -13.7,-15.9 -19.4,-24.8 -0.3,-0.5 -0.9,-0.8 -1.5,-0.6 -24.6,6.1 -51.3,10.4 -74.5,-2.5 0,0 -0.1,0 -0.1,-0.1 0,0 0,0 0,0 0,0 0,0 0,0 -0.2,-0.1 -0.3,-0.1 -0.5,-0.2 -0.1,0 -0.2,0 -0.3,0 0,0 -0.1,0 -0.1,0 -0.1,0 -0.3,0.1 -0.4,0.2 0,0 0,0 -0.1,0 -0.1,0.1 -0.2,0.1 -0.2,0.2 -0.1,0.1 -0.1,0.2 -0.2,0.3 0,0 0,0 0,0.1 -0.1,0.1 -0.1,0.3 -0.2,0.4 0,0 0,0.1 0,0.1 0,0.1 0,0.2 0,0.3 0,0.2 0.1,0.4 0.2,0.6 13,23.3 8.8,49.7 2.6,74.4 -0.2,0.6 0.1,1.2 0.6,1.5 8.9,5.7 17.1,12.2 24.8,19.4 -14.7,-6.5 -31.5,-5.3 -47.4,-3.7 -18.5,2 -37.3,5.1 -52.7,16.2 -0.5,0.4 -0.6,0.9 -0.6,1.3 -0.4,0.3 -0.6,0.8 -0.5,1.3 3.2,19.5 15,35.5 27.2,50.4 9.6,11.8 20.4,23.7 34.7,29.2 -10.5,-0.3 -20.9,-1.5 -31.2,-3.8 -0.6,-0.1 -1.2,0.1 -1.5,0.6 -13.1,21.8 -28.9,43.8 -54.6,51 0,0 -0.1,0 -0.1,0 -0.1,0 -0.2,0.1 -0.3,0.2 -0.4,0.3 -0.6,0.7 -0.5,1.1 0,0.4 0.1,0.8 0.5,1.1 0.1,0.1 0.2,0.1 0.3,0.2 0,0 0.1,0 0.1,0 25.8,7.2 41.5,28.9 54.6,50.8 0.3,0.5 0.9,0.8 1.5,0.6 10.3,-2.3 20.7,-3.5 31.2,-3.8 -14.3,5.5 -25,17.4 -34.7,29.2 -12.2,15 -24,30.9 -27.2,50.4 -0.1,0.6 0.2,1 0.5,1.3 -0.1,0.5 0.1,1 0.6,1.3 15.4,11.1 34.2,14.2 52.7,16.2 15.8,1.7 32.7,2.9 47.4,-3.7 -7.6,7.2 -15.9,13.7 -24.8,19.4 -0.5,0.3 -0.8,0.9 -0.6,1.5 6.1,24.6 10.4,51.3 -2.5,74.5 0,0 0,0.1 -0.1,0.1 0,0 0,0 0,0 0,0 0,0 0,0 -0.1,0.2 -0.1,0.3 -0.2,0.5 0,0.1 0,0.2 0,0.3 0,0 0,0.1 0,0.1 0,0.1 0.1,0.3 0.2,0.4 0,0 0,0 0,0.1 0.1,0.1 0.1,0.2 0.2,0.2 0.1,0.1 0.2,0.1 0.3,0.2 0,0 0,0 0.1,0 0.1,0.1 0.3,0.1 0.4,0.2 0,0 0.1,0 0.1,0 0.1,0 0.2,0 0.3,0 0.2,0 0.4,-0.1 0.6,-0.2 23.3,-13 49.7,-8.8 74.4,-2.6 0.6,0.2 1.2,-0.1 1.5,-0.6 5.7,-8.9 12.2,-17.1 19.4,-24.8 -6.5,14.7 -5.3,31.5 -3.7,47.4 2,18.5 5.1,37.3 16.2,52.7 0.4,0.5 0.9,0.6 1.3,0.6 0.3,0.4 0.8,0.6 1.3,0.5 19.5,-3.2 35.5,-15 50.4,-27.2 11.8,-9.6 23.7,-20.4 29.2,-34.7 -0.3,10.5 -1.5,20.9 -3.8,31.2 -0.1,0.6 0.1,1.2 0.6,1.5 21.8,13.1 43.8,28.9 51,54.6 0,0 0,0.1 0,0.1 0,0.1 0.1,0.2 0.2,0.3 0.3,0.4 0.7,0.6 1.1,0.5 0.4,0 0.8,-0.1 1.1,-0.5 0.1,-0.1 0.1,-0.2 0.2,-0.3 0,0 0,-0.1 0,-0.1 7.2,-25.8 28.9,-41.5 50.8,-54.6 0.5,-0.3 0.8,-0.9 0.6,-1.5 -2.3,-10.3 -3.5,-20.7 -3.8,-31.2 5.5,14.3 17.4,25 29.2,34.7 15,12.2 30.9,24 50.4,27.2 0.6,0.1 1,-0.2 1.3,-0.5 0.5,0.1 1,-0.1 1.3,-0.6 11.1,-15.4 14.2,-34.2 16.2,-52.7 1.7,-15.8 2.9,-32.7 -3.7,-47.4 7.2,7.6 13.7,15.9 19.4,24.8 0.3,0.5 0.9,0.8 1.5,0.6 24.7,-6.2 51.1,-10.4 74.4,2.7 0.2,0.1 0.4,0.2 0.6,0.2 0.1,0 0.2,0 0.3,0 0,0 0.1,0 0.1,0 0.1,0 0.3,-0.1 0.4,-0.2 0,0 0,0 0.1,0 0.1,-0.1 0.2,-0.1 0.2,-0.2 0.1,-0.1 0.1,-0.2 0.2,-0.2 0,0 0,0 0,-0.1 0.1,-0.1 0.1,-0.3 0.2,-0.4 0,0 0,-0.1 0,-0.1 0,-0.1 0,-0.2 0,-0.3 0,-0.2 -0.1,-0.4 -0.2,-0.6 -13,-23.2 -8.7,-49.9 -2.5,-74.5 0.2,-0.6 -0.1,-1.2 -0.6,-1.5 -8.9,-5.7 -17.1,-12.2 -24.8,-19.4 14.7,6.5 31.5,5.3 47.4,3.7 18.5,-2 37.3,-5.1 52.7,-16.2 0.5,-0.4 0.6,-0.9 0.6,-1.3 0.4,-0.3 0.6,-0.8 0.5,-1.3 -3.2,-19.5 -15,-35.5 -27.2,-50.4 -9.6,-11.8 -20.4,-23.7 -34.7,-29.2 10.5,0.3 20.9,1.5 31.2,3.8 0.6,0.1 1.2,-0.1 1.5,-0.6 13.1,-21.9 28.9,-43.6 54.6,-50.8 0,0 0.1,0 0.1,0 0.1,0 0.2,-0.1 0.3,-0.2 0.4,-0.3 0.6,-0.7 0.5,-1.1 0.1,-0.5 -0.1,-1 -0.5,-1.2 z m -91.1,5.9 c 10.2,9.9 20,20.1 29.4,30.8 -1.1,0.2 -2.4,0.1 -4.3,-0.2 -9.1,-1.2 -18.3,-1.4 -27.5,-0.9 1.4,-9.7 2.2,-19.6 2.4,-29.7 z m 32.8,27.6 c -0.4,0.7 -0.7,1.2 -1.1,1.7 -9,-10.3 -18.4,-20.2 -28.2,-29.7 5.7,1.4 11.5,1.9 17.4,2.5 9.6,1 19.1,2.5 28.5,4.4 -4.1,3.7 -7.8,7.7 -11.1,12.3 -2,2.9 -3.8,5.8 -5.5,8.8 z m 19,-23.1 c -0.2,-0.2 -0.4,-0.3 -0.6,-0.4 -8.3,-1.7 -16.7,-3.1 -25.2,-4.2 -8.7,-1.1 -17.5,-1.4 -25.9,-4.2 0,-0.2 0,-0.5 0,-0.7 0,-0.2 0,-0.5 0,-0.7 8.4,-2.8 17.2,-3.2 25.9,-4.2 8.5,-1 16.8,-2.4 25.2,-4.2 0.3,-0.1 0.5,-0.2 0.7,-0.4 4.3,3.6 9,6.7 13.9,9.4 -5,2.9 -9.7,6.1 -14,9.6 z m -30.8,-16.5 c -5.9,0.6 -11.7,1.1 -17.4,2.5 9.8,-9.5 19.2,-19.4 28.2,-29.7 0.2,0.2 0.4,0.5 0.6,0.8 2.1,3.1 3.7,6.6 6,9.7 3.3,4.5 7.1,8.6 11.2,12.3 -9.5,1.9 -19,3.4 -28.6,4.4 z m -21,2.2 c -0.2,-10.1 -1,-20 -2.4,-29.7 8.7,0.5 17.5,0.3 26.2,-0.8 2.3,-0.3 4.1,-0.8 5.6,-0.4 -9.3,10.8 -19.1,21 -29.4,30.9 z m -2.6,4.9 c 0,135.3 -109.5,245.5 -244.6,246.5 -0.1,0 -0.2,0 -0.4,0 -0.5,0 -1.1,0 -1.6,0 -0.5,0 -1,0 -1.5,0 -0.1,0 -0.3,0 -0.4,0 -66.6,-0.5 -126.9,-27.5 -171.1,-71 0,0 0,0 -0.1,-0.1 -0.8,-0.8 -1.6,-1.6 -2.4,-2.4 0,0 0,-0.1 -0.1,-0.1 C 264,628.8 237,568.5 236.5,502 c 0.1,-0.3 0.1,-0.5 0,-0.8 0,-0.4 0,-0.9 0,-1.3 0,-0.4 0,-0.9 0,-1.3 0.1,-0.3 0.1,-0.5 0,-0.8 0.6,-66.5 27.6,-126.8 71,-170.9 0,0 0,0 0.1,-0.1 0.8,-0.8 1.6,-1.6 2.4,-2.4 0,0 0,0 0.1,-0.1 44.1,-43.5 104.5,-70.5 171.1,-71 0.1,0 0.3,0 0.4,0 0.5,0 1,0 1.5,0 0.5,0 1.1,0 1.6,0 0.1,0 0.2,0 0.4,0 135,1.2 244.6,111.4 244.6,246.7 z m -3.9,57 c 23.7,16.4 44.4,38 53.6,65.7 -26.2,13.1 -56.1,13.7 -84.5,8.5 14.1,-22.6 24.6,-47.6 30.9,-74.2 z m -69.9,122.5 c 0.3,14.5 -0.1,28.9 -1.1,43.4 0,0 -0.1,0 -0.1,0 -1.7,-0.9 -4.6,-6 -5.8,-7.5 -4.8,-5.9 -10.2,-11.3 -15.8,-16.3 8,-6.2 15.6,-12.7 22.8,-19.6 z m 2.7,2.4 c 3,5 6.8,9.5 10.5,14.1 6.1,7.5 11.7,15.2 17,23.3 -7,-0.4 -14,0.1 -21,1.6 -2,0.4 -5.1,1.9 -7.7,2.3 1.1,-13.8 1.4,-27.5 1.2,-41.3 z m 30.5,36.9 c -4.7,-7.1 -9.6,-14 -14.9,-20.7 -5.5,-6.9 -11.4,-13.4 -15.4,-21.4 0.3,-0.3 0.6,-0.6 0.9,-0.9 8,3.9 14.5,9.9 21.4,15.4 6.7,5.3 13.6,10.2 20.7,14.9 0.3,0.2 0.6,0.2 0.8,0.2 0.5,5.6 1.6,11.1 3.1,16.5 -5.5,-1.5 -11,-2.6 -16.6,-3.1 0.2,-0.4 0.2,-0.7 0,-0.9 z M 702.5,703 c -8,-5.3 -15.8,-11 -23.3,-17 -4.6,-3.7 -9.1,-7.5 -14.1,-10.5 13.7,0.2 27.4,-0.1 41,-1.1 -0.1,2.5 -1.4,5.3 -2,7.6 -1.5,7 -2,14 -1.6,21 z m -39.8,-30.3 c 6.9,-7.2 13.4,-14.8 19.4,-22.8 5.1,5.7 10.5,11 16.3,15.8 2,1.6 5,3.2 6.6,5.1 0.2,0.2 0.3,0.5 0.5,0.8 -14.3,1.1 -28.5,1.4 -42.8,1.1 z m -56.8,123.6 c -27.8,-9.2 -49.3,-29.9 -65.7,-53.6 26.6,-6.3 51.6,-16.8 74.2,-30.9 5.2,28.4 4.6,58.3 -8.5,84.5 z m -122.8,18.6 c -2.7,-4.9 -5.9,-9.6 -9.4,-13.9 0.2,-0.2 0.3,-0.4 0.4,-0.7 1.7,-8.3 3.1,-16.7 4.2,-25.2 1,-8.7 1.4,-17.5 4.2,-25.9 0.2,0 0.4,0 0.7,0 0.2,0 0.5,0 0.7,0 2.8,8.4 3.2,17.2 4.2,25.9 1,8.5 2.4,16.8 4.2,25.2 0.1,0.3 0.2,0.5 0.4,0.6 -3.7,4.4 -6.8,9.1 -9.6,14 z m -35.7,-36.3 c -0.2,-1.1 -0.1,-2.4 0.2,-4.3 1.2,-9.1 1.4,-18.3 0.9,-27.4 9.7,1.4 19.6,2.2 29.7,2.4 -9.8,10.1 -20.1,19.9 -30.8,29.3 z m 31.2,-25.9 c -1.4,5.7 -1.9,11.5 -2.5,17.4 -1,9.6 -2.5,19.1 -4.4,28.5 -3.7,-4.1 -7.7,-7.9 -12.3,-11.2 -2.8,-2 -5.7,-3.9 -8.8,-5.5 -0.7,-0.4 -1.2,-0.7 -1.7,-1.1 10.3,-8.9 20.2,-18.3 29.7,-28.1 z m 16.1,45.9 c -1.9,-9.4 -3.4,-18.9 -4.4,-28.5 -0.6,-5.9 -1.1,-11.7 -2.5,-17.4 9.5,9.8 19.4,19.2 29.7,28.2 -0.2,0.2 -0.5,0.4 -0.8,0.6 -3.1,2.1 -6.6,3.7 -9.7,6 -4.6,3.3 -8.7,7 -12.3,11.1 z M 518.5,773 c 0.3,2.3 0.8,4.1 0.4,5.6 -10.7,-9.3 -21,-19.1 -30.8,-29.4 10.1,-0.2 20,-1 29.7,-2.4 -0.5,8.8 -0.3,17.5 0.7,26.2 z m -158.1,23.3 c -13.1,-26.2 -13.7,-56.1 -8.5,-84.4 22.6,14 47.6,24.6 74.2,30.8 -16.4,23.7 -37.9,44.4 -65.7,53.6 z M 303.6,672.7 c -14.4,0.3 -28.9,-0.1 -43.3,-1.1 0,0 0,-0.1 0,-0.1 0.9,-1.7 6,-4.6 7.5,-5.8 5.9,-4.8 11.2,-10.1 16.3,-15.8 6.1,8.1 12.5,15.7 19.5,22.8 z m -2.3,2.8 c -5,3 -9.5,6.8 -14.1,10.5 -7.5,6.1 -15.3,11.7 -23.3,17 0.4,-7 -0.1,-14 -1.6,-21 -0.4,-2 -1.9,-5.1 -2.2,-7.6 13.6,0.9 27.4,1.3 41.2,1.1 z m -37.7,30.6 c 0.3,0 0.5,0 0.8,-0.2 7.1,-4.7 14,-9.6 20.7,-14.9 6.9,-5.4 13.4,-11.4 21.4,-15.4 0.3,0.3 0.6,0.6 1,1 -3.9,7.9 -9.9,14.4 -15.4,21.4 -5.3,6.7 -10.2,13.6 -14.9,20.7 -0.2,0.3 -0.2,0.5 -0.2,0.8 -5.6,0.5 -11.1,1.6 -16.6,3.1 1.6,-5.4 2.6,-10.9 3.2,-16.5 z M 297.1,696 c 3.7,-4.6 7.5,-9.1 10.5,-14.1 -0.2,13.7 0.1,27.4 1.1,41 -2.5,-0.1 -5.3,-1.4 -7.6,-2 -7,-1.5 -14,-2 -21,-1.6 5.3,-8 11,-15.8 17,-23.3 z m 14.3,26.4 c -1,-14.2 -1.3,-28.5 -1,-42.8 7.2,6.9 14.8,13.4 22.7,19.4 -5.6,5.1 -11,10.5 -15.8,16.3 -1.6,2 -3.2,5 -5.1,6.6 -0.2,0.2 -0.5,0.3 -0.8,0.5 z m -40.1,-91.1 c -28.4,5.2 -58.2,4.6 -84.4,-8.5 9.2,-27.7 29.9,-49.3 53.6,-65.7 6.2,26.6 16.7,51.6 30.8,74.2 z M 233.9,495 c -10.2,-9.8 -20,-20.1 -29.3,-30.8 1.1,-0.2 2.4,-0.1 4.3,0.2 9.1,1.2 18.2,1.4 27.4,0.9 -1.4,9.8 -2.2,19.7 -2.4,29.7 z m -32.7,-27.5 c 0.4,-0.7 0.7,-1.2 1.1,-1.7 9,10.3 18.4,20.2 28.2,29.7 -5.7,-1.4 -11.5,-1.9 -17.4,-2.5 -9.6,-1 -19.1,-2.5 -28.5,-4.4 4.1,-3.7 7.9,-7.7 11.2,-12.3 1.9,-2.9 3.7,-5.8 5.4,-8.8 z m -19,23 c 0.2,0.2 0.4,0.3 0.7,0.4 8.3,1.7 16.7,3.1 25.2,4.2 8.7,1 17.5,1.4 25.8,4.2 0,0.2 0,0.5 0,0.7 0,0.2 0,0.5 0,0.7 -8.4,2.8 -17.1,3.2 -25.8,4.2 -8.5,1 -16.8,2.4 -25.2,4.2 -0.3,0.1 -0.5,0.2 -0.6,0.4 -4.3,-3.6 -9,-6.7 -13.9,-9.5 4.8,-2.8 9.5,-5.9 13.8,-9.5 z m 30.8,16.6 c 5.9,-0.6 11.7,-1.1 17.4,-2.5 -9.8,9.5 -19.2,19.4 -28.2,29.7 -0.2,-0.2 -0.4,-0.5 -0.6,-0.8 -2.1,-3.1 -3.7,-6.6 -6,-9.7 -3.3,-4.5 -7,-8.6 -11.1,-12.3 9.5,-1.9 18.9,-3.4 28.5,-4.4 z m 20.9,-2.1 c 0.2,10 1,19.9 2.4,29.7 -8.7,-0.5 -17.4,-0.3 -26.1,0.8 -2.3,0.3 -4.1,0.8 -5.6,0.4 9.3,-10.8 19.1,-21.1 29.3,-30.9 z m 6.5,-62.1 c -23.7,-16.4 -44.3,-37.9 -53.6,-65.7 26.2,-13.1 56.1,-13.7 84.4,-8.5 -14,22.6 -24.5,47.6 -30.8,74.2 z m 70,-122.5 c -0.3,-14.4 0.1,-28.9 1.1,-43.3 0,0 0.1,0 0.1,0 1.7,0.9 4.6,6 5.8,7.5 4.8,5.9 10.1,11.3 15.8,16.3 -8,6.1 -15.6,12.6 -22.8,19.5 z m -2.7,-2.3 c -3,-5 -6.8,-9.5 -10.5,-14.1 -6.1,-7.5 -11.7,-15.3 -17,-23.3 7,0.4 14,-0.1 21,-1.6 2,-0.4 5.1,-1.9 7.6,-2.2 -1,13.7 -1.3,27.4 -1.1,41.2 z m -30.5,-36.9 c 4.7,7.1 9.6,14 14.9,20.7 5.4,6.9 11.4,13.4 15.4,21.4 -0.3,0.3 -0.6,0.6 -1,1 -7.9,-3.9 -14.4,-9.9 -21.4,-15.4 -6.7,-5.3 -13.6,-10.2 -20.7,-14.9 -0.3,-0.2 -0.5,-0.2 -0.8,-0.2 -0.5,-5.6 -1.6,-11.1 -3.1,-16.6 5.4,1.5 11,2.6 16.5,3.1 0,0.4 0,0.6 0.2,0.9 z M 263.8,297 c 8,5.3 15.8,10.9 23.3,17 4.6,3.7 9.1,7.5 14.1,10.5 -13.7,-0.2 -27.4,0.1 -41,1.1 0.1,-2.5 1.4,-5.3 2,-7.6 1.6,-7 2,-14 1.6,-21 z m 39.8,30.3 c -6.9,7.2 -13.4,14.8 -19.4,22.7 -5.1,-5.6 -10.5,-11 -16.3,-15.8 -2,-1.6 -5,-3.2 -6.6,-5.1 -0.2,-0.2 -0.3,-0.5 -0.5,-0.8 14.2,-1 28.5,-1.3 42.8,-1 z m 56.8,-123.6 c 27.7,9.2 49.3,29.9 65.7,53.6 -26.6,6.3 -51.6,16.8 -74.2,30.8 -5.2,-28.3 -4.6,-58.2 8.5,-84.4 z m 122.7,-18.6 c 2.8,4.9 5.9,9.6 9.5,13.9 -0.2,0.2 -0.3,0.4 -0.4,0.6 -1.7,8.3 -3.1,16.7 -4.2,25.2 -1,8.7 -1.4,17.5 -4.2,25.9 -0.2,0 -0.5,0 -0.7,0 -0.2,0 -0.4,0 -0.7,0 -2.8,-8.4 -3.2,-17.2 -4.2,-25.9 -1,-8.5 -2.4,-16.8 -4.2,-25.2 -0.1,-0.3 -0.2,-0.5 -0.4,-0.7 3.6,-4.2 6.8,-8.9 9.5,-13.8 z m 35.8,36.3 c 0.2,1.1 0.1,2.4 -0.2,4.3 -1.2,9.1 -1.4,18.3 -0.9,27.4 -9.7,-1.4 -19.6,-2.2 -29.7,-2.4 9.8,-10.1 20.1,-19.9 30.8,-29.3 z m -31.2,25.9 c 1.4,-5.7 1.9,-11.5 2.5,-17.4 1,-9.6 2.5,-19.1 4.4,-28.5 3.7,4.1 7.7,7.8 12.3,11.1 2.8,2 5.7,3.9 8.8,5.5 0.7,0.4 1.2,0.7 1.7,1.1 -10.3,9 -20.2,18.4 -29.7,28.2 z m -16.1,-46 c 1.9,9.4 3.4,18.9 4.4,28.5 0.6,5.9 1.1,11.7 2.5,17.4 -9.5,-9.8 -19.4,-19.2 -29.7,-28.2 0.2,-0.2 0.5,-0.4 0.8,-0.6 3.1,-2.1 6.6,-3.7 9.7,-6 4.6,-3.2 8.7,-7 12.3,-11.1 z M 447.8,227 c -0.3,-2.3 -0.8,-4.1 -0.4,-5.6 10.7,9.3 21,19.1 30.8,29.4 -10.1,0.2 -20,1 -29.7,2.3 0.5,-8.7 0.3,-17.4 -0.7,-26.1 z m 158.1,-23.3 c 13.1,26.2 13.7,56.1 8.5,84.5 -22.6,-14.1 -47.6,-24.6 -74.2,-30.9 16.3,-23.7 37.9,-44.4 65.7,-53.6 z m 56.8,123.6 c 14.5,-0.3 28.9,0.1 43.4,1.1 0,0 0,0.1 0,0.1 -0.9,1.7 -6,4.6 -7.5,5.8 -5.9,4.8 -11.3,10.2 -16.3,15.8 -6.2,-8 -12.7,-15.6 -19.6,-22.8 z m 2.3,-2.8 c 5,-3 9.5,-6.8 14.1,-10.5 7.5,-6.1 15.2,-11.7 23.3,-17 -0.4,7 0.1,14 1.6,21 0.4,2 1.9,5.1 2.3,7.7 -13.7,-1 -27.5,-1.4 -41.3,-1.2 z m 37.7,-30.6 c -0.2,0 -0.5,0 -0.8,0.2 -7.1,4.7 -14,9.6 -20.7,14.9 -6.9,5.5 -13.4,11.4 -21.4,15.4 -0.3,-0.3 -0.6,-0.6 -0.9,-0.9 3.9,-8 9.9,-14.5 15.4,-21.4 5.3,-6.7 10.2,-13.6 14.9,-20.7 0.2,-0.3 0.2,-0.6 0.2,-0.8 5.6,-0.5 11.1,-1.6 16.5,-3.1 -1.6,5.2 -2.7,10.8 -3.2,16.4 z M 669.2,304 c -3.7,4.6 -7.5,9.1 -10.5,14.1 0.2,-13.7 -0.1,-27.4 -1.1,-41 2.5,0.1 5.3,1.4 7.6,2 7,1.5 14,2 21,1.6 -5.3,8 -11,15.8 -17,23.3 z m -14.3,-26.4 c 1,14.3 1.3,28.6 1,42.9 -7.2,-6.9 -14.8,-13.4 -22.8,-19.4 5.7,-5.1 11,-10.5 15.8,-16.3 1.6,-2 3.2,-5 5.1,-6.6 0.3,-0.3 0.6,-0.4 0.9,-0.6 z m 40,91.1 c 28.4,-5.2 58.3,-4.6 84.5,8.5 -9.2,27.8 -29.9,49.3 -53.6,65.7 -6.3,-26.5 -16.8,-51.5 -30.9,-74.2 z m 48.8,-13.5 c 18,1.9 36.1,5 51.1,15.7 -3.2,18.9 -14.6,34.4 -26.5,49 -10.9,13.4 -23.2,27 -40.9,30.7 0,0 0,0 -0.1,0 -0.3,-1.6 -0.7,-3.2 -1,-4.7 24.8,-17 46.5,-39.5 55.9,-68.6 0.2,-0.4 0.3,-0.9 0.1,-1.3 0,0 0,-0.1 -0.1,-0.1 0,0 0,0 0,0 -0.2,-0.2 -0.5,-0.4 -0.8,-0.5 -27.3,-13.9 -58.5,-14.5 -88.1,-9 -0.9,-1.4 -1.8,-2.7 -2.6,-4 0.1,0 0.1,0 0.2,-0.1 15.7,-10.4 35,-9 52.8,-7.1 z M 642.1,273.1 c 1.3,-1.8 2.5,-4.1 4.1,-5.8 2.8,-2.9 3.4,-2.7 7.4,-1.8 5.5,1.3 11,2.4 16.6,3.2 17,2.5 34.4,1.7 49.9,-5.7 -7.5,15.5 -8.3,32.8 -5.8,49.8 0.8,5.2 1.8,10.3 2.9,15.4 0.8,3.3 2,5.4 -0.5,8 -1.8,1.8 -4.7,3.2 -6.8,4.7 -7.6,5.6 -14.5,11.8 -21,18.6 -1.7,-2.5 -3.4,-4.9 -5.2,-7.4 0.1,0 0.1,-0.1 0.2,-0.1 7.6,-8.5 16,-16.1 25.3,-22.7 0.5,-0.3 0.8,-0.9 0.6,-1.5 -6.2,-17.1 -6.1,-34.8 -0.8,-52.2 0.2,-0.5 0,-0.9 -0.3,-1.2 0,-0.1 -0.1,-0.1 -0.2,-0.2 0,0 0,0 0,0 -0.3,-0.3 -0.7,-0.4 -1.2,-0.3 -17.3,5.3 -35,5.5 -52.1,-0.7 -0.6,-0.2 -1.2,0.2 -1.5,0.6 -6.6,9.3 -14.2,17.7 -22.7,25.3 -0.1,0 -0.1,0.1 -0.1,0.2 -2.4,-1.8 -4.9,-3.5 -7.4,-5.2 6.8,-6.4 13.1,-13.4 18.6,-21 z m -78.8,-58.3 c 14.5,-11.9 30,-23.3 49,-26.5 10.7,15 13.8,33.2 15.7,51.1 1.9,17.8 3.3,37.1 -7,52.8 0,0.1 0,0.1 -0.1,0.2 -1.3,-0.9 -2.7,-1.8 -4,-2.7 5.5,-29.6 4.9,-60.8 -9,-88.1 -0.1,-0.3 -0.3,-0.6 -0.5,-0.8 0,0 0,0 0,0 0,0 -0.1,0 -0.2,-0.1 -0.4,-0.2 -0.9,-0.2 -1.3,0.1 -29.1,9.4 -51.6,31 -68.6,55.9 -1.6,-0.4 -3.2,-0.7 -4.7,-1 0,0 0,0 0,0 3.6,-17.7 17.3,-30 30.7,-40.9 z m -128.9,1 c 1,-1.5 4.8,-2.9 6.2,-3.9 4.5,-2.8 8.8,-5.8 13,-9.1 13,-10 24,-22.4 29.5,-38 5.5,15.5 16.3,27.9 29.4,38 4.2,3.2 8.6,6.2 13,9.1 1.3,0.8 5.3,2.6 6.2,3.9 1.8,2.4 0.2,5.7 -0.2,8.3 -1.7,10.2 -2.4,20.5 -2.2,30.9 -2.9,-0.6 -5.9,-1.1 -8.9,-1.5 0,0 0,0 0,-0.1 -0.6,-11.4 0,-22.7 1.9,-34 0.1,-0.6 -0.1,-1.3 -0.6,-1.5 -16.5,-7.7 -29,-20.3 -37.5,-36.3 -0.3,-0.5 -0.7,-0.7 -1.1,-0.7 -0.5,-0.1 -0.9,0.1 -1.2,0.7 -8.4,16 -20.9,28.7 -37.4,36.3 -0.6,0.3 -0.7,1 -0.6,1.5 1.9,11.3 2.5,22.5 1.9,34 0,0 0,0 0,0 -3,0.4 -5.9,1 -8.9,1.5 0.2,-9.9 -0.4,-19.8 -2,-29.6 -0.5,-2.9 -2.2,-6.7 -0.5,-9.5 z m -96.1,23.6 c 1.9,-18 5,-36.1 15.7,-51.1 18.9,3.2 34.4,14.6 49,26.5 13.4,10.9 27,23.2 30.7,40.9 0,0 0,0 0,0 -1.6,0.3 -3.2,0.7 -4.7,1 -17,-24.8 -39.5,-46.4 -68.6,-55.8 -0.4,-0.2 -0.9,-0.3 -1.3,-0.1 0,0 -0.1,0 -0.1,0.1 0,0 0,0 0,0 -0.2,0.2 -0.4,0.5 -0.5,0.8 -13.9,27.3 -14.5,58.4 -9,88.1 -1.4,0.9 -2.7,1.8 -4.1,2.7 0,0 0,-0.1 -0.1,-0.1 -10.3,-15.9 -8.8,-35.1 -7,-53 z m -87.8,97.5 c -2.9,-2.8 -2.7,-3.4 -1.8,-7.4 1.3,-5.5 2.4,-11 3.2,-16.6 2.5,-17.1 1.7,-34.3 -5.8,-49.8 15.6,7.4 32.9,8.2 49.9,5.7 5.2,-0.8 10.3,-1.8 15.4,-2.9 3.3,-0.8 5.4,-2 8,0.5 1.8,1.8 3.2,4.7 4.7,6.8 5.6,7.5 11.8,14.5 18.5,21 -2.5,1.7 -4.9,3.4 -7.4,5.2 0,0 0,-0.1 -0.1,-0.1 -8.5,-7.6 -16.1,-16 -22.7,-25.3 -0.3,-0.5 -0.9,-0.8 -1.5,-0.6 -17.1,6.2 -34.8,6.1 -52.1,0.7 -0.5,-0.2 -0.9,0 -1.2,0.3 -0.1,0 -0.1,0.1 -0.1,0.1 0,0 0,0 -0.1,0.1 -0.3,0.3 -0.4,0.7 -0.3,1.2 5.3,17.3 5.4,35.1 -0.8,52.2 -0.2,0.6 0.2,1.2 0.6,1.5 9.3,6.6 17.7,14.2 25.3,22.7 0,0 0.1,0 0.1,0.1 -1.8,2.4 -3.5,4.9 -5.2,7.4 -6.5,-6.7 -13.5,-13 -21,-18.5 -1.6,-1.5 -3.9,-2.7 -5.6,-4.3 z m -52.6,83 c -11.9,-14.5 -23.3,-30 -26.5,-49 15,-10.7 33.2,-13.8 51.1,-15.7 17.8,-1.9 37.1,-3.3 52.8,7 0,0 0.1,0 0.1,0 -0.9,1.3 -1.8,2.7 -2.7,4.1 -29.6,-5.5 -60.7,-4.9 -88,9 -0.3,0.1 -0.6,0.3 -0.8,0.5 0,0 0,0 0,0 0,0 0,0.1 -0.1,0.2 -0.2,0.4 -0.2,0.9 0.1,1.3 9.4,29.1 31,51.6 55.8,68.6 -0.4,1.6 -0.7,3.2 -1,4.8 0,0 0,0 0,0 -17.6,-3.8 -29.9,-17.5 -40.8,-30.8 z m 1.1,128.8 c -1.5,-1 -2.9,-4.8 -3.9,-6.2 -2.8,-4.5 -5.8,-8.8 -9.1,-13 -10,-13.1 -22.4,-23.9 -38,-29.4 15.5,-5.5 28,-16.5 38,-29.5 3.2,-4.2 6.2,-8.6 9.1,-13 0.8,-1.3 2.6,-5.3 3.9,-6.2 2.4,-1.8 5.7,-0.2 8.3,0.2 10.2,1.7 20.5,2.4 30.8,2.2 -0.6,2.9 -1.1,5.9 -1.5,8.9 0,0 0,0 0,0 -11.4,0.6 -22.7,0 -34,-1.9 -0.6,-0.1 -1.3,0.1 -1.5,0.6 -7.7,16.5 -20.4,29 -36.3,37.4 -0.5,0.3 -0.7,0.7 -0.7,1.1 -0.1,0.5 0.1,0.9 0.7,1.2 16,8.4 28.7,21 36.3,37.5 0.3,0.6 1,0.7 1.5,0.6 11.3,-1.9 22.5,-2.5 34,-1.9 0,0 0,0 0,0 0.4,3 1,5.9 1.5,8.9 -9.9,-0.2 -19.8,0.4 -29.6,2 -3,0.6 -6.7,2.3 -9.5,0.5 z m 23.6,96.1 c -18,-1.9 -36.1,-5 -51.1,-15.7 3.2,-18.9 14.6,-34.4 26.5,-49 10.9,-13.4 23.2,-27 40.9,-30.7 0,0 0,0 0,0 0.3,1.6 0.7,3.2 1,4.8 -24.8,17 -46.4,39.5 -55.8,68.6 -0.2,0.4 -0.3,0.9 -0.1,1.3 0,0 0,0.1 0.1,0.1 0,0 0,0 0,0 0.2,0.2 0.5,0.4 0.8,0.5 27.3,13.9 58.4,14.5 88,9 0.9,1.4 1.8,2.7 2.7,4.1 0,0 -0.1,0 -0.1,0 -15.8,10.3 -35.1,8.9 -52.9,7 z m 101.6,82.1 c -1.3,1.8 -2.5,4.1 -4.1,5.8 -2.8,2.9 -3.4,2.7 -7.4,1.8 -5.5,-1.3 -11,-2.4 -16.6,-3.2 -17.1,-2.5 -34.3,-1.7 -49.8,5.8 7.4,-15.6 8.2,-32.9 5.7,-49.9 -0.8,-5.2 -1.8,-10.3 -2.9,-15.4 -0.8,-3.3 -2,-5.4 0.5,-8 1.8,-1.8 4.7,-3.2 6.8,-4.7 7.5,-5.6 14.5,-11.8 21,-18.5 1.7,2.5 3.4,4.9 5.2,7.4 0,0 -0.1,0 -0.1,0.1 -7.6,8.5 -16,16.1 -25.3,22.7 -0.5,0.3 -0.8,0.9 -0.6,1.5 6.2,17.1 6.1,34.8 0.7,52.1 -0.2,0.5 0,0.9 0.3,1.2 0,0.1 0.1,0.1 0.1,0.1 0,0 0,0 0.1,0.1 0.3,0.3 0.7,0.4 1.2,0.3 17.3,-5.3 35.1,-5.4 52.2,0.8 0.6,0.2 1.2,-0.2 1.5,-0.6 6.6,-9.3 14.2,-17.7 22.7,-25.3 0,0 0.1,-0.1 0.1,-0.1 2.4,1.8 4.9,3.5 7.4,5.2 -6.9,6.3 -13.2,13.2 -18.7,20.8 z m 78.8,58.3 c -14.5,11.9 -30,23.3 -49,26.5 -10.7,-15 -13.8,-33.2 -15.7,-51.1 -1.9,-17.8 -3.3,-37.1 7,-52.8 0,0 0,-0.1 0.1,-0.1 1.3,0.9 2.7,1.8 4.1,2.7 -5.5,29.6 -4.9,60.8 9,88.1 0.1,0.3 0.3,0.6 0.5,0.8 0,0 0,0 0,0 0,0 0.1,0 0.2,0.1 0.4,0.2 0.9,0.2 1.3,-0.1 29.1,-9.4 51.6,-31 68.6,-55.8 1.6,0.4 3.2,0.7 4.7,1 0,0 0,0 0,0 -3.8,17.5 -17.4,29.8 -30.8,40.7 z m 128.9,-1 c -1,1.5 -4.8,2.9 -6.2,3.9 -4.5,2.8 -8.8,5.8 -13,9.1 -13.1,10 -23.9,22.4 -29.4,38 -5.5,-15.5 -16.5,-28 -29.5,-38 -4.2,-3.2 -8.6,-6.2 -13,-9.1 -1.3,-0.8 -5.3,-2.6 -6.2,-3.9 -1.8,-2.4 -0.2,-5.7 0.2,-8.3 1.7,-10.2 2.4,-20.5 2.2,-30.9 2.9,0.6 5.9,1.1 8.9,1.5 0,0 0,0 0,0 0.6,11.4 0,22.7 -1.9,34 -0.1,0.6 0.1,1.3 0.6,1.5 16.5,7.7 29,20.4 37.4,36.3 0.3,0.5 0.7,0.7 1.1,0.7 0.5,0.1 0.9,-0.1 1.2,-0.7 8.4,-16 21,-28.7 37.5,-36.3 0.6,-0.3 0.7,-1 0.6,-1.5 -1.9,-11.3 -2.5,-22.5 -1.9,-34 0,0 0,0 0,-0.1 3,-0.5 5.9,-1 8.9,-1.5 -0.2,9.9 0.4,19.8 2,29.6 0.5,3.1 2.2,6.9 0.5,9.7 z M 628,760.6 c -1.9,18 -5,36.1 -15.7,51.1 -18.9,-3.2 -34.4,-14.6 -49,-26.5 -13.4,-10.9 -27,-23.2 -30.7,-40.9 0,0 0,0 0,0 1.6,-0.3 3.2,-0.7 4.7,-1 17,24.8 39.5,46.4 68.6,55.9 0.4,0.2 0.9,0.3 1.3,0.1 0,0 0.1,0 0.1,-0.1 0,0 0,0 0,0 0.2,-0.2 0.4,-0.5 0.5,-0.8 13.9,-27.3 14.5,-58.5 9,-88.1 1.4,-0.9 2.7,-1.8 4,-2.7 0,0.1 0,0.1 0.1,0.2 10.4,15.7 8.9,34.9 7.1,52.8 z m 87.8,-97.5 c 2.9,2.8 2.7,3.4 1.8,7.4 -1.3,5.5 -2.4,11 -3.2,16.6 -2.5,17 -1.7,34.4 5.7,49.9 -15.5,-7.5 -32.8,-8.3 -49.8,-5.8 -5.2,0.8 -10.3,1.8 -15.4,2.9 -3.3,0.8 -5.4,2 -8,-0.5 -1.8,-1.8 -3.2,-4.7 -4.7,-6.8 -5.6,-7.5 -11.8,-14.5 -18.6,-21 2.5,-1.7 4.9,-3.5 7.4,-5.2 0,0.1 0.1,0.1 0.1,0.2 8.5,7.6 16.1,16 22.7,25.3 0.3,0.5 0.9,0.8 1.5,0.6 17.1,-6.2 34.8,-6.1 52.2,-0.8 0.5,0.2 0.9,0 1.2,-0.3 0.1,0 0.1,-0.1 0.2,-0.2 0,0 0,0 0,0 0.3,-0.3 0.4,-0.7 0.3,-1.2 -5.3,-17.3 -5.5,-35 0.7,-52.1 0.2,-0.6 -0.2,-1.2 -0.6,-1.5 -9.3,-6.6 -17.7,-14.2 -25.3,-22.7 -0.1,-0.1 -0.1,-0.1 -0.2,-0.1 1.8,-2.4 3.5,-4.9 5.2,-7.4 6.5,6.8 13.5,13 21,18.6 1.8,1.3 4.1,2.5 5.8,4.1 z m 52.6,-83 c 11.9,14.5 23.3,30 26.5,49 -15,10.7 -33.2,13.8 -51.1,15.7 -17.8,1.9 -37.1,3.3 -52.8,-7 -0.1,0 -0.1,0 -0.2,-0.1 0.9,-1.3 1.8,-2.7 2.6,-4 29.6,5.5 60.8,4.9 88.1,-9 0.3,-0.1 0.6,-0.3 0.8,-0.5 0,0 0,0 0,0 0,0 0,-0.1 0.1,-0.2 0.2,-0.4 0.2,-0.9 -0.1,-1.3 -9.4,-29.1 -31,-51.6 -55.9,-68.6 0.4,-1.6 0.7,-3.2 1,-4.7 0,0 0,0 0.1,0 17.7,3.7 30,17.4 40.9,30.7 z m 11.8,-50.7 c -3.2,4.2 -6.2,8.6 -9.1,13 -0.8,1.3 -2.6,5.3 -3.9,6.2 -2.4,1.8 -5.7,0.2 -8.3,-0.2 -10.2,-1.7 -20.5,-2.4 -30.9,-2.2 0.6,-2.9 1.1,-5.9 1.5,-8.9 0,0 0.1,0 0.1,0 11.4,-0.6 22.7,0 34,1.9 0.6,0.1 1.3,-0.1 1.5,-0.6 7.7,-16.5 20.3,-29 36.3,-37.5 0.5,-0.3 0.7,-0.7 0.7,-1.1 0.1,-0.5 -0.1,-0.9 -0.7,-1.2 -16,-8.4 -28.7,-20.9 -36.3,-37.4 -0.3,-0.6 -1,-0.7 -1.5,-0.6 -11.3,1.9 -22.5,2.5 -34,1.9 0,0 -0.1,0 -0.1,0 -0.5,-3 -1,-5.9 -1.5,-8.9 9.9,0.2 19.9,-0.4 29.7,-2 3,-0.5 6.8,-2.2 9.6,-0.4 1.5,1 2.9,4.8 3.9,6.2 2.8,4.5 5.8,8.8 9.1,13 10,13 22.4,24 38,29.5 -15.6,5.4 -28,16.3 -38.1,29.3 z"
           id="path153"
           inkscape:connector-curvature="0" /><path
           d="m 838.2,500 c 0,-0.1 0,-0.2 0,-0.3 0,0 0,-0.1 -0.1,-0.1 -0.1,-0.1 -0.2,-0.2 -0.3,-0.3 0,0 0,0 0,0 -17,-5.9 -30.8,-17 -42.2,-30.7 -6,-7.1 -11.2,-14.8 -16.3,-22.7 -2.5,-3.8 -3.9,-8.8 -9.1,-7.8 -1.9,0.4 -3.9,1.4 -5.8,2.1 -3.1,1.2 -3.3,1.9 -0.9,-0.6 2.9,-2.9 5.7,-6 8.4,-9 5.5,-6.2 10.7,-12.6 15.4,-19.4 8.9,-13.1 15.3,-27.6 17.4,-43.3 0.1,-0.9 -1.2,-0.9 -1.4,0 -4,30 -23.9,53.4 -44.2,74.4 -0.4,0.5 0,1.4 0.7,1.1 2.3,-0.9 5,-2.2 7.4,-2.8 4.2,-1 6.1,-0.3 8.9,2.9 2.9,3.2 4.9,7.7 7.3,11.3 4.9,7.1 10.1,14 15.9,20.3 10.2,11 22.3,19.6 36.3,24.9 -14,5.2 -26.1,14 -36.3,24.9 -5.6,6 -10.6,12.5 -15.2,19.3 -2.8,4 -5,8.5 -8,12.3 -4.8,6 -10.4,2.3 -16.3,0.1 -0.7,-0.2 -1.1,0.7 -0.7,1.1 20.3,21 40.3,44.4 44.2,74.4 0.1,0.9 1.5,0.9 1.4,0 -2.1,-15.8 -8.5,-30.3 -17.4,-43.3 -4.4,-6.5 -9.4,-12.6 -14.6,-18.5 -3,-3.4 -6,-6.8 -9.2,-10 -1.5,-1.5 -2.7,-1.5 -0.4,-1 2.4,0.5 4.6,2.1 7,2.6 4.8,0.9 6.1,-3.1 8.4,-6.8 5.2,-8.2 10.7,-16.2 16.9,-23.7 11.4,-13.7 25.3,-24.8 42.2,-30.7 0,0 0,0 0,0 0.1,-0.1 0.2,-0.1 0.3,-0.3 0,0 0,0 0.1,-0.1 0.2,-0.2 0.2,-0.3 0.2,-0.3 z"
           id="path155"
           inkscape:connector-curvature="0" /><path
           d="m 162.9,632.1 c 4,-30 23.9,-53.4 44.2,-74.4 0.4,-0.5 0,-1.4 -0.7,-1.1 -2.3,0.9 -5,2.2 -7.4,2.8 -4.2,1 -6.1,0.2 -8.9,-2.9 -2.9,-3.2 -4.9,-7.7 -7.3,-11.3 -4.9,-7.1 -10.1,-14 -15.9,-20.3 -10.2,-11 -22.3,-19.7 -36.3,-24.9 14,-5.2 26.1,-13.9 36.3,-24.9 5.6,-6 10.6,-12.5 15.2,-19.3 2.8,-4 5,-8.5 8,-12.3 4.8,-6 10.4,-2.3 16.3,-0.1 0.7,0.2 1.1,-0.7 0.7,-1.1 -20.3,-21 -40.3,-44.4 -44.2,-74.4 -0.1,-0.9 -1.5,-0.9 -1.4,0 2.1,15.8 8.5,30.3 17.4,43.3 4.4,6.5 9.4,12.6 14.6,18.5 3,3.4 6,6.8 9.2,10 1.5,1.5 2.7,1.5 0.4,1 -2.4,-0.5 -4.6,-2.1 -7,-2.6 -4.8,-0.9 -6.1,3.1 -8.4,6.8 -5.2,8.2 -10.7,16.2 -16.9,23.7 -11.4,13.7 -25.3,24.8 -42.2,30.7 0,0 0,0 0,0 -0.1,0.1 -0.2,0.1 -0.3,0.3 0,0 0,0 -0.1,0.1 0,0.1 0,0.2 0,0.3 0,0.1 0,0.2 0,0.3 0,0 0,0.1 0.1,0.1 0.1,0.1 0.2,0.2 0.3,0.3 0,0 0,0 0,0 17,5.9 30.8,17.1 42.2,30.7 6,7.1 11.2,14.8 16.3,22.7 2.5,3.8 3.9,8.8 9.1,7.8 1.9,-0.4 3.9,-1.4 5.8,-2.1 3.1,-1.2 3.3,-1.9 0.9,0.6 -2.9,2.9 -5.7,6 -8.4,9 -5.5,6.2 -10.7,12.6 -15.4,19.4 -8.9,13.1 -15.3,27.6 -17.4,43.3 -0.2,0.8 1.1,0.8 1.2,0 z"
           id="path157"
           inkscape:connector-curvature="0" /><path
           d="m 803.1,632.9 c -24.1,18.5 -54.7,21 -84,21.4 -0.6,0 -1,1 -0.3,1.3 5.1,2.4 12,3.6 11.7,10.5 -0.2,4.5 -2.1,9.5 -3,13.9 -1.5,8.1 -2.7,16.3 -3.1,24.5 -0.8,15.5 1.6,30.6 8.1,44.7 -14.1,-6.4 -29.3,-8.8 -44.8,-8 -8.2,0.4 -16.4,1.6 -24.5,3.1 -4.1,0.8 -8.5,2.4 -12.7,2.7 -4.4,0.2 -6,-0.5 -8.5,-4.2 -1.4,-2.1 -2.3,-4.9 -3.3,-7.2 -0.3,-0.6 -1.3,-0.3 -1.3,0.3 -0.5,29.3 -3,59.9 -21.4,84 -0.5,0.7 0.6,1.4 1.2,0.7 9.4,-12.2 15,-26.6 18,-41.7 1.5,-7.7 2.4,-15.6 2.9,-23.4 0.3,-4.8 0.6,-9.6 0.6,-14.3 0,-6.4 2.2,2.9 3.2,4.7 2.4,4.1 4.5,3.4 8.9,2.4 9.2,-2 18.4,-4 27.8,-5 18.8,-2.1 37.6,-0.5 54.7,7.8 0,0 0,0 0,0 0.1,0.1 0.3,0.1 0.5,0 0,0 0,0 0.1,0 0.1,0 0.1,-0.1 0.2,-0.2 0.1,-0.1 0.1,-0.1 0.2,-0.2 0,0 0,0 0,-0.1 0.1,-0.2 0,-0.3 0,-0.5 0,0 0,0 0,0 -8.1,-16.8 -9.9,-35 -8,-53.4 1,-9.4 2.8,-18.6 4.8,-27.8 1.1,-5 2.3,-7.3 -2.2,-10.2 -2,-1.3 -11,-3.2 -4.7,-3.2 4.3,0 8.7,-0.3 13,-0.5 7.9,-0.5 15.7,-1.3 23.5,-2.7 15.5,-2.9 30.3,-8.6 42.9,-18.3 0.9,-0.4 0.2,-1.6 -0.5,-1.1 z"
           id="path159"
           inkscape:connector-curvature="0" /><path
           d="m 163.2,367.1 c 24.1,-18.5 54.7,-21 84,-21.4 0.6,0 1,-1 0.3,-1.3 -5.1,-2.4 -12,-3.6 -11.7,-10.5 0.2,-4.5 2.1,-9.5 3,-13.9 1.5,-8.1 2.7,-16.3 3.1,-24.5 0.8,-15.5 -1.6,-30.7 -8,-44.8 14.1,6.4 29.2,8.8 44.7,8.1 8.2,-0.4 16.4,-1.6 24.5,-3.1 4.1,-0.8 8.5,-2.4 12.7,-2.7 4.4,-0.2 6,0.5 8.5,4.2 1.4,2.1 2.3,4.9 3.3,7.2 0.3,0.6 1.3,0.3 1.3,-0.3 0.5,-29.3 3,-59.9 21.4,-84 0.5,-0.7 -0.6,-1.4 -1.2,-0.7 -9.4,12.2 -15,26.6 -18,41.7 -1.5,7.7 -2.4,15.6 -2.9,23.4 -0.3,4.8 -0.6,9.6 -0.6,14.3 0,6.4 -2.2,-2.9 -3.2,-4.7 -2.4,-4.1 -4.5,-3.4 -8.9,-2.4 -9.2,2 -18.4,4 -27.8,5 -18.8,2.1 -37.5,0.4 -54.7,-7.9 0,0 0,0 0,0 -0.1,-0.1 -0.3,-0.1 -0.5,0 0,0 0,0 -0.1,0 -0.1,0 -0.1,0.1 -0.2,0.2 -0.1,0.1 -0.1,0.1 -0.2,0.2 0,0 0,0 0,0.1 -0.1,0.2 0,0.3 0,0.5 0,0 0,0 0,0 8.1,16.8 9.8,35.1 7.9,53.5 -1,9.4 -2.8,18.6 -4.8,27.8 -1.1,5 -2.3,7.3 2.2,10.2 2,1.3 11,3.2 4.7,3.2 -4.3,0 -8.7,0.3 -13,0.5 -7.9,0.5 -15.7,1.3 -23.5,2.7 -15.5,2.9 -30.3,8.6 -42.9,18.3 -0.8,0.4 -0.1,1.6 0.6,1.1 z"
           id="path161"
           inkscape:connector-curvature="0" /></g></g></switch></svg>