<?xml version="1.0" encoding="UTF-8" standalone="no"?>
<svg
   xmlns:dc="http://purl.org/dc/elements/1.1/"
   xmlns:cc="http://creativecommons.org/ns#"
   xmlns:rdf="http://www.w3.org/1999/02/22-rdf-syntax-ns#"
   xmlns:svg="http://www.w3.org/2000/svg"
   xmlns="http://www.w3.org/2000/svg"
   xmlns:sodipodi="http://sodipodi.sourceforge.net/DTD/sodipodi-0.dtd"
   xmlns:inkscape="http://www.inkscape.org/namespaces/inkscape"
   version="1.1"
   id="Layer_1"
   x="0px"
   y="0px"
   viewBox="0 0 1000 1000"
   width="100%"
   height="100%"
   style="enable-background:new 0 0 1000 1000;"
   xml:space="preserve"
   ><style
     type="text/css"
     id="style3">
	.noFillSVG{fill:none;}
</style><switch
     id="switch5"
     transform="translate(0.01877709,-2.85)"><g
       id="g7"><g
         id="g9"><path
           class="noFillSVG"
           d="m 547.2,372.8 c -4.5,8.7 -13.2,15.8 -22.9,18.6 -10.6,3.1 -22.9,2.8 -33.2,-1.4 -3,-1.2 -5.7,-2.8 -8.3,-4.7 -3.3,1.6 -7.1,2 -11.2,0.7 -7.9,-2.5 -13.3,-12.2 -9.8,-20.2 1,-2.2 3.1,-4.1 5.6,-3 3.7,1.6 10.5,22.9 15.8,19.9 6.2,-3.6 8.8,-11.6 9.8,-18.4 2.8,-17.6 -2.1,-34.7 -2.1,-52.2 0,0 0,-0.1 0,-0.1 -16.9,5.6 -21.7,25.1 -27.7,40 -4.6,11.4 -12.2,24.4 -25.3,27.2 -0.1,0 -0.2,0 -0.2,0 2.2,11.1 3.4,23.1 -1.1,33.9 -6,14.1 -19.1,17.8 -32.9,17.9 -1.5,3.6 -4.3,6.7 -8.6,8.3 -7.2,2.8 -16.9,-0.7 -19.8,-8.3 -1.2,-3.3 0.5,-6.5 4.3,-5.9 2.8,0.5 21.5,7.3 22.7,3.7 2.7,-8.1 -3.1,-17.3 -8.1,-23.4 -9.4,-11.5 -21.6,-19.8 -32.7,-29.4 -1.4,-1.2 -2.9,-2.6 -4.3,-4 -8.1,15.9 2.2,33.2 8.5,48 4.9,11.4 8.6,25.9 1.3,37.2 -1.2,1.9 -2.8,3.6 -4.7,5.1 8.6,6.2 14.9,16.3 18.2,26.5 3,9.2 3.9,19.4 1.3,28.8 -0.3,1 -0.6,1.9 -1,2.9 4.6,4.2 7,10.1 4.9,16.7 -2.5,7.9 -12.2,13.3 -20.2,9.8 -3.7,-1.6 -4.1,-5.1 -1.1,-7.6 5.1,-4.2 8.9,-9.3 12.1,-15.1 0.6,-1.1 1.1,-2.1 1.6,-3.3 -4,-3 -9.4,-4.4 -14.1,-5.2 -17.6,-2.8 -34.7,2.1 -52.2,2.1 -0.5,0 -1,0 -1.5,0 0,0.1 -0.1,0.2 -0.1,0.3 5,17.8 25.1,22.8 40.3,28.9 11.4,4.6 24.4,12.2 27.2,25.3 0.2,0.9 0.3,1.8 0.4,2.7 11.2,-1.9 24.1,-0.7 30.1,1.3 9.1,3 17.3,9.4 20.8,18.5 1.4,3.7 2.2,7.7 2.4,11.7 3.8,1.5 6.9,4.3 8.6,8.7 2.8,7.2 -0.7,16.9 -8.3,19.8 -9.5,3.5 -2.7,-14 -2.6,-18.1 0,-1 0.2,-9 -0.3,-9.1 -7.9,-2.2 -16.7,3.4 -22.7,8.3 -11.5,9.4 -19.8,21.6 -29.4,32.7 -1.3,1.5 -2.7,3 -4.2,4.5 16.3,9.3 34,-1.4 49.2,-7.9 11.4,-4.9 25.9,-8.6 37.2,-1.3 2.4,1.6 4.6,3.7 6.2,6.3 6.2,-5.2 14.7,-8.3 22.4,-9.6 6.5,-1.1 13,-1.2 19.5,-0.9 3.9,-7.4 11.4,-12.5 20.1,-9.7 7.9,2.5 13.3,12.2 9.8,20.2 -0.9,2 -2.7,3.3 -5,2.8 -2.6,-0.7 -2.5,-2.6 -3.2,-4.6 -1.6,-4.2 -5.2,-4.7 -9.2,-5.2 -3.7,-0.4 -7.4,-0.8 -11.1,-1.1 -1.3,3.1 -2.1,6.5 -2.6,9.6 -2.8,17.6 2.1,34.7 2.1,52.2 0,0.3 0,0.6 0,0.9 18.3,-4.7 23.3,-25.1 29.5,-40.5 4.6,-11.4 12.2,-24.4 25.3,-27.2 2.7,-0.6 5.7,-0.6 8.6,0 0,-1.7 0,-3.4 0.1,-5.1 0.5,-10.7 3,-21.4 8,-31 5.2,-9.8 13.4,-17.9 23.1,-22.6 0.2,-6.2 3.4,-12 9.9,-14.6 7.2,-2.8 16.9,0.7 19.8,8.3 0.9,2.3 0.5,5 -2.1,5.8 -2.5,0.8 -4.3,-1.3 -6.5,-1.8 -1.9,-0.4 -4.4,0 -6.4,0.2 -4.4,0.5 -8.6,1.7 -12.6,3.5 0.5,6.5 4.8,13.1 8.7,17.8 9.4,11.5 21.6,19.8 32.7,29.4 1.5,1.3 2.9,2.6 4.3,4.1 8.4,-16 -2,-33.4 -8.4,-48.3 -4.9,-11.4 -8.6,-25.9 -1.3,-37.2 0.8,-1.2 1.8,-2.4 2.9,-3.5 -9.3,-4.6 -17.1,-11.7 -21.2,-22 -3.1,-7.9 -3.5,-16.8 -0.1,-24.7 0.6,-1.5 1.4,-2.8 2.2,-4.2 -4.9,-4.2 -7.5,-10.3 -5.4,-17.1 2.5,-7.9 12.2,-13.3 20.2,-9.8 6.8,3 -1,10 -3,13.6 -2.3,4.2 -5.3,7.9 -8,11.8 -0.3,0.4 -0.5,0.8 -0.8,1.2 3.9,2.6 8.9,3.9 13.3,4.6 17.6,2.8 34.7,-2.1 52.2,-2.1 0.3,0 0.7,0 1.1,0 -0.4,-0.1 -0.7,-0.3 -0.8,-0.8 -4.4,-18.9 -25.1,-23.9 -40.7,-30.1 -11.4,-4.6 -24.4,-12.2 -27.2,-25.3 -0.2,-0.9 -0.3,-1.8 -0.4,-2.7 -10,3.4 -21.2,4.1 -30.9,2.4 -8.8,-1.6 -17.1,-6.8 -19.1,-16 -0.8,-3.8 -0.8,-7.9 -0.8,-11.9 -5,-1 -9.3,-4.1 -11.4,-9.5 -2.8,-7.2 0.7,-16.9 8.3,-19.8 6.8,-2.5 5.6,4.2 5.1,8.2 -0.7,6.4 0.1,12.9 0.2,19.4 7.3,0.6 14.9,-4.3 20.3,-8.7 11.5,-9.4 19.8,-21.6 29.4,-32.7 1.3,-1.5 2.7,-3 4.2,-4.5 -16.2,-9 -33.8,1.6 -48.9,8.1 -10.3,4.4 -23.3,7.9 -34.1,3 z"
           id="path11"
           inkscape:connector-curvature="0"
           style="fill:none" /><path
           class="noFillSVG"
           d="m 570.7,382.9 c -0.3,0 -0.5,0.2 -0.8,0.3 -4.2,2.9 -6.5,8.3 -5.6,13.3 0.9,5 4.9,9.4 9.8,10.6 0,0 0.6,-10.3 0.5,-11.2 -0.1,-0.9 -0.3,-4.2 -0.9,-7.2 -0.7,-3 -1.6,-5.8 -3,-5.8 z"
           id="path13"
           inkscape:connector-curvature="0"
           style="fill:none" /><path
           class="noFillSVG"
           d="m 694.5,493.6 c -0.1,0 -0.1,0 -0.2,0 0,0.1 0.1,0.1 0.2,0 0,0.1 0,0 0,0 z"
           id="path15"
           inkscape:connector-curvature="0"
           style="fill:none" /><path
           class="noFillSVG"
           d="m 634.4,466 c -1.5,0 -2.9,0.1 -4.3,0.6 -2,0.6 -3.5,1.4 -5,2.8 -3.8,3.3 -5.4,8.7 -4,13.6 0.8,2.9 2.4,5.2 4.5,6.9 2.1,-3.2 4.7,-6 6.8,-9.1 1.4,-2.1 7.9,-14.6 2,-14.8 z"
           id="path17"
           inkscape:connector-curvature="0"
           style="fill:none" /><path
           class="noFillSVG"
           d="m 644.2,637.2 c -2.9,2.7 -7.1,7.3 -8,11.3 -1.7,8.2 4.6,17.8 13.7,13.3 7.4,-3.6 8.3,-12.3 5.6,-19.2 -2.5,-6.4 -5.5,-10.8 -11.3,-5.4 z"
           id="path19"
           inkscape:connector-curvature="0"
           style="fill:none" /><path
           class="noFillSVG"
           d="m 707.2,522.3 c 9.9,-0.5 10.6,-13.3 5.4,-19.3 -4.3,-4.9 -10.2,-6.8 -16.7,-7.2 -1.1,3.2 -1.9,6.5 -2,9.7 -0.5,7.6 4.3,17.2 13.3,16.8 z"
           id="path21"
           inkscape:connector-curvature="0"
           style="fill:none" /><path
           class="noFillSVG"
           d="m 625.8,573.5 c 2.5,-0.7 4.1,-1.9 2.1,-4 -1,-1.1 -2.2,-2 -3.4,-2.7 -1.2,-0.7 -2.7,-1.2 -4.1,-1.5 -5.2,-0.9 -10.6,1.6 -13.5,6 -1.3,2 -1.9,4.1 -2.1,6.2 0.2,-2.5 10.7,-2.9 12.4,-3.1 1.2,0 5.6,-0.1 8.6,-0.9 z"
           id="path23"
           inkscape:connector-curvature="0"
           style="fill:none" /><path
           class="noFillSVG"
           d="m 360.6,305.3 c 1.7,7.8 6.3,15.4 13.6,19.2 8.3,4.2 16.8,1.5 22.1,-5.9 10.2,-14.3 0.5,-31.1 -11.4,-40.7 -4.4,-3.6 -9.1,-6.3 -14.1,-8.4 -8.1,10.1 -13.2,22.5 -10.2,35.8 z m 30,3.8 c 1.8,1.3 3.5,2.7 5.2,4.2 1.1,1 -0.5,2.5 -1.6,1.6 -1.5,-1.4 -3.1,-2.6 -4.7,-3.8 -1.2,-0.9 0,-2.9 1.1,-2 z m -10.2,-7.4 c 5.8,0 5.8,9 0,9 -5.7,0 -5.7,-9 0,-9 z m -15.9,-6.4 c 2.6,1.2 5.2,2.5 7.8,3.7 1.3,0.6 0.2,2.5 -1.1,1.9 -2.6,-1.2 -5.2,-2.5 -7.8,-3.7 -1.3,-0.6 -0.1,-2.6 1.1,-1.9 z"
           id="path25"
           inkscape:connector-curvature="0"
           style="fill:none" /><path
           class="noFillSVG"
           d="m 261.5,469.6 c 6.8,4.3 15.3,6.5 23.2,4 8.8,-2.8 13,-10.8 11.5,-19.8 -2.9,-17.3 -21.6,-22.3 -36.8,-20.8 -5.6,0.6 -10.9,2 -15.9,4 1.3,13 6.5,25.3 18,32.6 z m 25.1,-17.7 c 2,-0.3 4.1,-0.5 6.2,-0.7 1.4,-0.1 1.4,2.1 0,2.2 -1.9,0.1 -3.7,0.3 -5.6,0.6 -1.4,0.3 -2,-1.9 -0.6,-2.1 z m -8.4,-2.5 c 5.8,0 5.8,9 0,9 -5.7,0 -5.7,-9 0,-9 z m -20,11.9 c 4.4,-1.8 8.7,-3.9 13.5,-4.8 1.4,-0.3 2,1.9 0.6,2.2 -4.7,0.9 -9.1,2.9 -13.5,4.8 -1.3,0.5 -1.9,-1.7 -0.6,-2.2 z"
           id="path27"
           inkscape:connector-curvature="0"
           style="fill:none" /><path
           class="noFillSVG"
           d="m 464.7,653.9 c -2.1,2.1 -3.7,4.6 -4.7,7.4 -0.7,2 -2.5,5.9 -0.5,7.7 2.3,2.1 5.8,-1 6.5,-3.1 0.4,-1.2 0.6,-2.5 0.7,-3.7 0.1,-2.2 -0.4,-4.5 -1.2,-6.6 -0.3,-0.7 -0.5,-1.2 -0.8,-1.7 z"
           id="path29"
           inkscape:connector-curvature="0"
           style="fill:none" /><path
           class="noFillSVG"
           d="m 301.6,655.9 c 7.8,-1.7 15.4,-6.3 19.2,-13.6 4.2,-8.3 1.5,-16.8 -5.9,-22.1 -14.3,-10.2 -31.1,-0.5 -40.7,11.4 -3.6,4.4 -6.3,9.1 -8.4,14.1 10.1,8.1 22.6,13.1 35.8,10.2 z m 1.1,-32.1 c 0.8,-1.5 1.6,-2.9 2.4,-4.4 0.7,-1.3 2.6,-0.1 1.9,1.1 -0.8,1.5 -1.6,2.9 -2.4,4.4 -0.7,1.3 -2.6,0.2 -1.9,-1.1 z m -1.3,3.9 c 5.8,0 5.8,9 0,9 -5.8,0 -5.8,-9 0,-9 z m -6.3,24.4 c 2.2,-4 3.7,-8.3 4.8,-12.7 0.3,-1.4 2.5,-0.8 2.2,0.6 -1.1,4.7 -2.8,9.1 -5,13.3 -0.8,1.2 -2.7,0.1 -2,-1.2 z"
           id="path31"
           inkscape:connector-curvature="0"
           style="fill:none" /><path
           class="noFillSVG"
           d="m 531.9,646.5 c 2,1.5 3.9,2.1 3.9,-1 0,-1.5 -0.1,-2.9 -0.6,-4.3 -0.6,-2 -1.4,-3.5 -2.8,-5 -3.3,-3.8 -8.7,-5.4 -13.6,-4 -4.3,1.2 -7.2,4.2 -9.2,7.9 2.6,0.2 5.3,0.5 7.9,0.7 2.9,0.3 6.6,0.4 9.4,1.6 0.9,0.5 3,2.7 5,4.1 z"
           id="path33"
           inkscape:connector-curvature="0"
           style="fill:none" /><path
           class="noFillSVG"
           d="m 434.5,631 c 1.1,-0.8 2.2,-2.5 2.8,-3.7 0.7,-1.2 1.2,-2.7 1.5,-4.1 0.9,-5.2 -1.6,-10.6 -6,-13.5 -0.4,-0.2 -0.8,-0.4 -1.1,-0.6 0.1,5.4 -0.7,10.7 -0.9,16.1 0,0.8 -0.1,2.2 0.1,3.4 0.2,1 0.5,1.9 1.1,2.4 0.7,0.7 1.8,0.5 2.5,0 z"
           id="path35"
           inkscape:connector-curvature="0"
           style="fill:none" /><path
           class="noFillSVG"
           d="m 391.1,430.2 c -1,-0.1 -6,-0.4 -9.2,0.2 -2.5,0.4 -4,1.4 -2.1,3.4 1,1.1 2.2,2 3.4,2.7 1.2,0.7 2.7,1.2 4.1,1.5 5.2,0.9 10.6,-1.6 13.5,-6 0.2,-0.3 0.4,-0.7 0.6,-1 -0.5,0.7 -9.2,-0.7 -10.3,-0.8 z"
           id="path37"
           inkscape:connector-curvature="0"
           style="fill:none" /><path
           class="noFillSVG"
           d="m 473.1,375.8 c -0.6,-0.8 -3.4,-4.3 -5.9,-6.3 -2.1,-1.7 -4,-2.2 -4.1,1.2 0,1.5 0.1,2.9 0.6,4.3 0.6,2 1.4,3.5 2.8,5 3.3,3.8 8.7,5.4 13.6,4 0.3,-0.1 0.6,-0.2 0.8,-0.3 -1.3,0.5 -6.9,-6.8 -7.8,-7.9 z"
           id="path39"
           inkscape:connector-curvature="0"
           style="fill:none" /><path
           class="noFillSVG"
           d="m 661.4,546 c 5.2,0.4 5.6,-5.4 1,-6.9 -1.2,-0.4 -2.5,-0.6 -3.7,-0.6 -2.2,-0.1 -4.5,0.4 -6.6,1.2 -1.5,0.6 -3,1.4 -4.3,2.3 2.3,-1.8 10.8,3.8 13.6,4 z"
           id="path41"
           inkscape:connector-curvature="0"
           style="fill:none" /><path
           class="noFillSVG"
           d="m 355.7,639.1 c -8.2,-1.7 -17.8,4.6 -13.3,13.7 3.6,7.4 12.3,8.3 19.2,5.6 3.1,-1.2 6,-3.1 8.6,-5.3 -3.1,-6.9 -7.7,-12.6 -14.5,-14 z"
           id="path43"
           inkscape:connector-curvature="0"
           style="fill:none" /><path
           class="noFillSVG"
           d="m 426.2,362.9 c -1.7,-0.8 -3.8,-0.2 -5.7,-0.7 -3.7,-1 -4.5,2.1 -3.5,5.1 1.2,3.4 4,6.3 7.2,7.9 0.1,0.1 0.2,0.1 0.3,0.2 3.2,1.6 6.8,2.1 10.4,1.9 -0.9,-3.2 -1.8,-6.4 -3.6,-9.2 -1,-1.9 -3,-4.2 -5.1,-5.2 z"
           id="path45"
           inkscape:connector-curvature="0"
           style="fill:none" /><path
           class="noFillSVG"
           d="m 584.2,651.3 c 0,-0.8 -0.2,-1.6 -0.6,-2.3 -0.4,-1.2 -1,-2.1 -1.7,-3.2 -1.5,-2 -3.5,-3.6 -5.8,-4.7 -0.7,-0.4 -1.5,-0.7 -2.2,-0.9 0.3,3.7 1.2,8.1 3.1,11.3 1.7,2.7 7.4,5.1 7.2,-0.2 z"
           id="path47"
           inkscape:connector-curvature="0"
           style="fill:none" /><path
           class="noFillSVG"
           d="m 479.6,718.3 c 0.5,9.9 13.3,10.6 19.3,5.4 4.9,-4.3 6.8,-10.2 7.2,-16.7 -3.2,-1.1 -6.5,-1.9 -9.7,-2 -7.7,-0.5 -17.3,4.3 -16.8,13.3 z"
           id="path49"
           inkscape:connector-curvature="0"
           style="fill:none" /><path
           class="noFillSVG"
           d="m 363.8,593.8 c 0.8,0 1.6,-0.2 2.3,-0.6 1.2,-0.4 2.1,-1 3.2,-1.7 2,-1.5 3.6,-3.5 4.7,-5.8 1.1,-2.3 1.8,-4.8 2,-7.3 -4.1,0.9 -8.5,2.3 -11.7,5.2 -2.1,1.9 -6.7,10.4 -0.5,10.2 z"
           id="path51"
           inkscape:connector-curvature="0"
           style="fill:none" /><path
           class="noFillSVG"
           d="m 502.6,311.3 c 7.7,0.4 17.3,-4.3 16.8,-13.3 -0.5,-9.9 -13.3,-10.6 -19.3,-5.4 -4.9,4.3 -6.8,10.2 -7.2,16.6 0.3,0 0.6,0.1 0.8,0.3 3,0.9 6,1.6 8.9,1.8 z"
           id="path53"
           inkscape:connector-curvature="0"
           style="fill:none" /><path
           class="noFillSVG"
           d="m 542,271.2 c -4.3,6.8 -6.5,15.3 -4,23.2 2.8,8.8 10.8,13 19.8,11.5 17.3,-2.9 22.3,-21.6 20.8,-36.8 -0.6,-5.6 -2,-10.9 -4,-15.9 -13,1.3 -25.3,6.6 -32.6,18 z m 14.8,31.7 c 0,1.4 -2.2,1.4 -2.2,0 0,-2 0,-4 0,-6 0,-1.4 2.2,-1.4 2.2,0 0,2 0,4 0,6 z M 555,292.1 c -5.8,0 -5.8,-9 0,-9 5.7,0 5.7,9 0,9 z M 551,268 c 1.5,3.5 2.4,7.2 2.7,11 0.1,1.4 -2.2,1.4 -2.2,0 -0.2,-3.4 -1,-6.7 -2.3,-9.9 -0.7,-1.3 1.3,-2.4 1.8,-1.1 z"
           id="path55"
           inkscape:connector-curvature="0"
           style="fill:none" /><path
           class="noFillSVG"
           d="m 456.3,755.2 c 4.3,-6.8 6.5,-15.3 4,-23.2 -2.8,-8.8 -10.8,-13 -19.8,-11.5 -17.3,2.9 -22.3,21.6 -20.8,36.8 0.6,5.6 2,10.9 4,15.9 12.9,-1.3 25.3,-6.6 32.6,-18 z m -18.7,-29 c 0.1,3.1 0.7,6.1 1.6,9 0.4,1.4 -1.7,2 -2.2,0.6 -1,-3.1 -1.6,-6.3 -1.7,-9.6 0,-1.5 2.3,-1.5 2.3,0 z m 2.8,21.5 c -5.8,0 -5.8,-9 0,-9 5.7,0.1 5.7,9 0,9 z m 9.1,10 c -1.6,-2.4 -2.9,-5 -3.8,-7.7 -0.5,-1.4 1.7,-2 2.2,-0.6 0.9,2.6 2.1,5 3.6,7.2 0.8,1.2 -1.2,2.3 -2,1.1 z"
           id="path57"
           inkscape:connector-curvature="0"
           style="fill:none" /><path
           class="noFillSVG"
           d="m 358.3,368.8 c 6.5,-3.1 11.8,-7.6 13.2,-14.1 1.7,-8.2 -4.6,-17.8 -13.7,-13.3 -7.4,3.6 -8.3,12.3 -5.6,19.2 1.1,2.8 2.7,5.4 4.7,7.8 0.4,-0.2 1,0 1.4,0.4 z"
           id="path59"
           inkscape:connector-curvature="0"
           style="fill:none" /><path
           class="noFillSVG"
           d="m 297.7,489.4 c -9.9,0.5 -10.6,13.3 -5.4,19.3 4.3,4.9 10.2,6.8 16.7,7.2 1.1,-3.2 1.9,-6.5 2,-9.7 0.5,-7.7 -4.3,-17.3 -13.3,-16.8 z"
           id="path61"
           inkscape:connector-curvature="0"
           style="fill:none" /><path
           class="noFillSVG"
           d="m 371.4,534.8 c -0.6,0.8 -1.6,2.1 -2.4,3.6 -1.4,2.6 -2.9,7.1 1.5,7.3 1.5,0 2.9,-0.1 4.3,-0.6 2,-0.6 3.5,-1.4 5,-2.8 3.8,-3.3 5.4,-8.7 4,-13.6 -0.7,-2.5 -2.1,-4.6 -3.8,-6.3 -1.1,2.5 -2.5,5 -4.3,7.2 -1.3,1.9 -2.9,3.4 -4.3,5.2 z"
           id="path63"
           inkscape:connector-curvature="0"
           style="fill:none" /><path
           class="noFillSVG"
           d="m 635.5,427.1 c 1.8,-1.2 11.9,-11.2 3.8,-10.9 -0.8,0 -1.6,0.2 -2.3,0.6 -1.2,0.4 -2.1,1 -3.2,1.7 -2,1.5 -3.6,3.5 -4.7,5.8 -1.1,2.3 -1.8,4.8 -2,7.3 0.1,-0.4 7.6,-3.9 8.4,-4.5 z"
           id="path65"
           inkscape:connector-curvature="0"
           style="fill:none" /><path
           class="noFillSVG"
           d="m 548.1,358.8 c -0.2,-4.2 -1,-10.5 -5.4,-12.5 -0.7,-0.3 -2.1,-0.3 -2.8,0 -1.6,0.6 -2,1.7 -2.5,3.2 -0.4,1.2 -0.6,2.5 -0.7,3.7 -0.1,2.2 0.4,4.5 1.2,6.6 1.6,4.3 4.6,7.7 8.5,9.9 0.4,0.3 1.8,-9.9 1.7,-10.9 z"
           id="path67"
           inkscape:connector-curvature="0"
           style="fill:none" /><path
           class="noFillSVG"
           d="m 647.3,376.1 c 8.2,1.7 17.8,-4.6 13.3,-13.7 -3.6,-7.4 -12.3,-8.3 -19.2,-5.6 -3.1,1.2 -6,3.1 -8.6,5.3 3.1,6.9 7.7,12.6 14.5,14 z"
           id="path69"
           inkscape:connector-curvature="0"
           style="fill:none" /><path
           class="noFillSVG"
           d="m 345.5,464.1 c 1.2,0.4 2.5,0.6 3.7,0.6 2.2,0.1 4.5,-0.4 6.6,-1.2 1,-0.4 1.8,-0.8 2.7,-1.3 -3.3,-1.9 -7.8,-3.3 -11.6,-3.7 -5.2,-0.6 -6.9,3.8 -1.4,5.6 z"
           id="path71"
           inkscape:connector-curvature="0"
           style="fill:none" /><path
           class="noFillSVG"
           d="m 743.5,545.3 c -6.8,-4.3 -15.3,-6.5 -23.2,-4 -8.8,2.8 -13,10.8 -11.5,19.8 2.9,17.3 21.6,22.3 36.8,20.8 5.6,-0.6 10.9,-2 15.9,-4 -1.3,-13 -6.6,-25.3 -18,-32.6 z m -23.7,16.9 c -2.1,0.3 -4.2,0.4 -6.3,0.3 -1.4,-0.1 -1.4,-2.4 0,-2.2 1.9,0.2 3.8,0.1 5.7,-0.2 1.4,-0.3 2,1.8 0.6,2.1 z m 9,2.9 c -5.8,0 -5.8,-9 0,-9 5.7,0 5.7,9 0,9 z m 16,-13.8 c -3,1.2 -6,2.5 -9,3.7 -1.3,0.6 -1.9,-1.6 -0.6,-2.2 3,-1.2 6,-2.5 9,-3.7 1.3,-0.5 1.9,1.7 0.6,2.2 z"
           id="path73"
           inkscape:connector-curvature="0"
           style="fill:none" /><path
           class="noFillSVG"
           d="m 648.3,698.5 c -1.7,-7.8 -6.3,-15.4 -13.6,-19.2 -8.3,-4.2 -16.8,-1.5 -22.1,5.9 -10.2,14.3 -0.5,31.1 11.4,40.7 4.4,3.6 9.1,6.3 14.1,8.4 8.1,-10.2 13.2,-22.6 10.2,-35.8 z m -28.6,-1.7 c -2.5,-1.1 -4.8,-2.8 -6.7,-4.8 -1,-1 0.6,-2.6 1.6,-1.6 1.8,1.9 3.9,3.4 6.3,4.4 1.3,0.7 0.2,2.6 -1.2,2 z m 7.6,7.8 c -5.8,0 -5.8,-9 0,-9 5.8,0 5.8,9 0,9 z m 10.3,-1.3 c 1.7,1.2 3.6,2 5.7,2.4 1.4,0.2 0.8,2.4 -0.6,2.2 -2.3,-0.4 -4.4,-1.3 -6.3,-2.6 -1.1,-0.9 0,-2.9 1.2,-2 z"
           id="path75"
           inkscape:connector-curvature="0"
           style="fill:none" /><path
           class="noFillSVG"
           d="m 695.2,367 c -7.8,1.7 -15.4,6.3 -19.2,13.6 -4.2,8.3 -1.5,16.8 5.9,22.1 14.3,10.2 31.1,0.5 40.7,-11.4 3.6,-4.4 6.3,-9.1 8.4,-14.1 -10.2,-8.1 -22.6,-13.1 -35.8,-10.2 z m -4.2,30.9 c -1.1,1.4 -2.2,2.7 -3.3,4.1 -0.9,1.1 -2.5,-0.5 -1.6,-1.6 1.1,-1.4 2.2,-2.7 3.3,-4.1 1,-1.1 2.5,0.5 1.6,1.6 z m 4.2,-4.4 c -5.8,0 -5.8,-9 0,-9 5.8,0 5.8,9 0,9 z M 707,370.6 c -1.8,4 -3.9,7.9 -6.3,11.6 -0.8,1.2 -2.7,0.1 -1.9,-1.1 2.4,-3.7 4.6,-7.5 6.3,-11.6 0.6,-1.4 2.5,-0.2 1.9,1.1 z"
           id="path77"
           inkscape:connector-curvature="0"
           style="fill:none" /><path
           d="m 471.4,214.4 c -14.6,9.1 -28.8,18.6 -37.1,34.2 -7.2,13.6 -11.2,32 -5.3,46.8 6.2,15.4 22.6,18 37.3,18.9 2.9,0.2 2.9,-4.3 0,-4.5 -7.8,-0.5 -16,-1.1 -23,-4.8 -8.4,-4.4 -11.8,-13.3 -12.4,-22.3 -1,-16.7 5.9,-34 17.5,-45.9 16.2,-16.6 43.5,-25.4 56.3,-45 4.4,5.1 9.8,9.4 15.4,13.6 12.2,9.1 26.5,15.1 38,25.3 5.9,5.2 10.8,11.3 14.3,18.1 -3.1,0.4 -6.2,1 -9.3,1.9 -14.1,4.2 -26.7,15 -29.9,29.9 -2.9,13.2 3.3,28.1 17.8,29.8 13.7,1.7 25.5,-7.5 29.9,-20.1 4.1,-11.8 2.9,-25.8 -1.6,-37.6 2.8,-0.1 5.5,-0.1 8.2,0.1 18.8,1.2 36.5,8.4 54.9,11.9 16.4,3.1 33.3,3.9 49.9,1.3 30.6,-4.8 59.5,-23.2 71.5,-52.3 0,0 0,0 0,0 8.6,0 8.7,-13.4 0,-13.4 -6.9,0 -8.3,8.5 -4.2,11.9 -13.4,32.6 -48.6,49.6 -82.7,50.8 -20.9,0.7 -40.6,-4.1 -60.7,-9.3 -12.6,-3.3 -25.8,-6.1 -38.8,-5.4 -0.2,-0.5 -0.4,-0.9 -0.6,-1.4 -7.6,-14.9 -21.4,-25.4 -35.6,-33.5 -11.6,-6.5 -25.6,-14.4 -34,-25.6 -1.1,-1.4 -2.1,-2.9 -3,-4.5 -0.7,1.6 -1.5,3 -2.4,4.5 -7,11.4 -19.1,19.5 -30.4,26.6 z M 578.6,269 c 1.6,15.2 -3.4,33.9 -20.8,36.8 -9,1.5 -16.9,-2.6 -19.8,-11.5 -2.5,-7.8 -0.3,-16.4 4,-23.2 7.3,-11.4 19.6,-16.6 32.5,-18.1 2.1,5.1 3.5,10.4 4.1,16 z"
           id="path79"
           inkscape:connector-curvature="0" /><path
           d="m 807.8,760.5 c -2.4,0 -4.1,1 -5.2,2.5 -32.8,-13.3 -49.8,-48.6 -51,-82.8 -0.7,-20.9 4.1,-40.6 9.3,-60.7 3.3,-12.6 6.1,-25.8 5.4,-38.8 0.5,-0.2 0.9,-0.4 1.4,-0.6 14.9,-7.6 25.4,-21.4 33.5,-35.6 6.5,-11.6 14.4,-25.6 25.6,-34 1.4,-1.1 2.9,-2.1 4.5,-3 -1.6,-0.7 -3,-1.5 -4.5,-2.4 -11.4,-6.9 -19.5,-19 -26.6,-30.3 -9.1,-14.6 -18.6,-28.8 -34.2,-37.1 -13.6,-7.2 -32,-11.2 -46.8,-5.3 -15.4,6.2 -18,22.6 -18.9,37.3 -0.2,2.9 4.3,2.9 4.5,0 0.5,-7.8 1.1,-16 4.8,-23 4.4,-8.4 13.3,-11.8 22.3,-12.4 16.7,-1 34,5.9 45.9,17.5 16.6,16.2 25.4,43.5 45,56.3 -5.1,4.4 -9.4,9.8 -13.6,15.4 -9.1,12.2 -15.1,26.5 -25.3,38 -5.2,5.9 -11.3,10.8 -18.1,14.3 -0.4,-3.1 -1,-6.2 -1.9,-9.3 -4.2,-14.1 -15,-26.7 -29.9,-29.9 -13.2,-2.9 -28.1,3.3 -29.8,17.8 -1.7,13.7 7.5,25.5 20.1,29.9 11.8,4.1 25.8,2.9 37.6,-1.6 0.1,2.8 0.1,5.5 -0.1,8.2 -1.2,18.8 -8.4,36.5 -11.9,54.9 -3.1,16.4 -3.9,33.3 -1.3,49.9 4.8,30.7 23.4,59.7 52.7,71.6 0,3.3 2.2,6.7 6.5,6.7 8.7,-0.1 8.7,-13.5 0,-13.5 z M 745.7,581.8 c -15.2,1.6 -33.9,-3.4 -36.8,-20.8 -1.5,-9 2.6,-16.9 11.5,-19.8 7.8,-2.5 16.4,-0.3 23.2,4 11.4,7.3 16.6,19.6 18.1,32.5 -5.1,2.2 -10.4,3.6 -16,4.1 z"
           id="path81"
           inkscape:connector-curvature="0" /><path
           d="m 536.7,894.2 c -0.2,0 -0.3,0 -0.5,0 -13.8,-32.6 -0.8,-69.6 22.5,-94.7 14.3,-15.3 31.6,-25.8 49.5,-36.3 11.2,-6.6 22.6,-13.9 31.3,-23.6 0.5,0.2 0.9,0.3 1.4,0.5 15.9,5.2 33.1,2.9 48.9,-1.5 12.8,-3.6 28.3,-7.9 42.2,-6 1.8,0.3 3.6,0.6 5.3,1.1 -0.6,-1.6 -1.1,-3.2 -1.5,-4.9 -3.2,-13 -0.4,-27.2 2.6,-40.2 3.9,-16.8 7.2,-33.5 2,-50.4 -4.5,-14.7 -14.7,-30.6 -29.3,-36.8 -15.3,-6.5 -28.7,3.3 -39.7,13 -2.2,1.9 1,5.1 3.2,3.2 5.8,-5.1 12.1,-10.6 19.6,-12.9 9.1,-2.8 17.8,1 24.6,7 12.6,11.1 19.9,28.2 20.1,44.9 0.3,23.2 -12.8,48.7 -8,71.7 -6.7,-0.5 -13.6,0.3 -20.5,1.3 -15.1,2.2 -29.5,8.1 -44.8,9 -7.9,0.5 -15.6,-0.4 -22.9,-2.7 1.9,-2.5 3.7,-5.1 5.2,-8 7,-13 8.2,-29.5 0,-42.3 -7.3,-11.4 -22.2,-17.5 -33.7,-8.5 -10.9,8.5 -12.7,23.3 -6.9,35.3 5.4,11.3 16.2,20.3 27.7,25.4 -1.9,2 -3.8,4 -5.9,5.7 -14.2,12.4 -31.8,19.9 -47.2,30.5 -13.8,9.5 -26.4,20.8 -36.2,34.3 -18.3,25 -25.7,58.6 -13.5,87.6 -3.6,3.7 -2.1,11.6 4.6,11.6 8.5,0.1 8.6,-13.3 -0.1,-13.3 z M 624,725.8 c -11.9,-9.6 -21.5,-26.4 -11.4,-40.7 5.3,-7.4 13.8,-10.1 22.1,-5.9 7.3,3.7 11.8,11.4 13.6,19.2 2.9,13.2 -2.1,25.7 -10.2,35.8 -5,-2 -9.7,-4.8 -14.1,-8.4 z"
           id="path83"
           inkscape:connector-curvature="0" /><path
           d="m 564,777.7 c 7.2,-13.6 11.2,-32 5.3,-46.8 -6.2,-15.4 -22.6,-18 -37.3,-18.9 -2.9,-0.2 -2.9,4.3 0,4.5 7.8,0.5 16,1.1 23,4.8 8.4,4.4 11.8,13.3 12.4,22.3 1,16.7 -5.9,34 -17.5,45.9 -16.2,16.6 -43.5,25.4 -56.3,45 -4.4,-5.1 -9.8,-9.4 -15.4,-13.6 -12.2,-9.1 -26.5,-15.1 -38,-25.3 -5.9,-5.2 -10.8,-11.3 -14.3,-18.1 3.1,-0.4 6.2,-1 9.3,-1.9 14.1,-4.2 26.7,-15 29.9,-29.9 2.9,-13.2 -3.3,-28.1 -17.8,-29.8 -13.7,-1.7 -25.5,7.5 -29.9,20.1 -4.1,11.8 -2.9,25.8 1.6,37.6 -2.8,0.1 -5.5,0.1 -8.2,-0.1 -18.8,-1.2 -36.5,-8.4 -54.9,-11.9 -16.4,-3.1 -33.3,-3.9 -49.9,-1.3 -30,4.7 -58.4,22.6 -70.8,50.7 -0.1,0 -0.2,0 -0.3,0 -8.6,0 -8.7,13.4 0,13.4 6.7,0 8.2,-8.1 4.4,-11.7 13.8,-31.7 48.5,-48.2 82.1,-49.4 20.9,-0.7 40.6,4.1 60.7,9.3 12.6,3.3 25.8,6.1 38.8,5.4 0.2,0.5 0.4,0.9 0.6,1.4 7.6,14.9 21.4,25.4 35.6,33.5 11.6,6.5 25.6,14.4 34,25.6 1.1,1.4 2.1,2.9 3,4.5 0.7,-1.6 1.5,-3 2.4,-4.5 6.9,-11.4 19,-19.5 30.3,-26.6 14.7,-9.1 28.8,-18.6 37.2,-34.2 z M 419.7,757.4 c -1.6,-15.2 3.4,-33.9 20.8,-36.8 9,-1.5 16.9,2.6 19.8,11.5 2.5,7.8 0.3,16.4 -4,23.2 -7.3,11.4 -19.6,16.6 -32.5,18.1 -2.1,-5.1 -3.5,-10.4 -4.1,-16 z"
           id="path85"
           inkscape:connector-curvature="0" /><path
           d="m 200.4,566.3 c 15.3,14.3 25.8,31.6 36.3,49.5 6.6,11.2 13.9,22.6 23.6,31.3 -0.2,0.5 -0.3,0.9 -0.5,1.4 -5.2,15.9 -2.9,33.1 1.5,48.9 3.6,12.8 7.9,28.3 6,42.2 -0.3,1.8 -0.6,3.6 -1.1,5.3 1.6,-0.6 3.2,-1.1 4.9,-1.5 13,-3.2 27.2,-0.4 40.2,2.6 16.8,3.9 33.5,7.2 50.4,2 14.7,-4.5 30.6,-14.7 36.8,-29.3 6.5,-15.3 -3.3,-28.7 -13,-39.7 -1.9,-2.2 -5.1,1 -3.2,3.2 5.1,5.8 10.6,12.1 12.9,19.6 2.8,9.1 -1,17.8 -7,24.6 -11.1,12.6 -28.2,19.9 -44.9,20.1 -23.2,0.3 -48.7,-12.8 -71.7,-8 0.5,-6.7 -0.3,-13.6 -1.3,-20.5 -2.2,-15.1 -8.1,-29.5 -9,-44.8 -0.5,-7.9 0.4,-15.6 2.7,-22.9 2.5,1.9 5.1,3.7 8,5.2 13,7 29.5,8.2 42.3,0 11.4,-7.3 17.5,-22.2 8.5,-33.7 -8.5,-10.9 -23.3,-12.7 -35.3,-6.9 -11.3,5.4 -20.3,16.2 -25.4,27.7 -2,-1.9 -4,-3.8 -5.7,-5.9 -12.4,-14.2 -19.9,-31.8 -30.5,-47.2 -9.5,-13.8 -20.8,-26.4 -34.3,-36.2 -24.6,-17.9 -57.3,-25.4 -85.9,-14.2 -1.1,-1.1 -2.6,-1.9 -4.7,-1.9 -8.6,0 -8.7,13.4 0,13.4 4.6,0 6.8,-3.9 6.4,-7.4 32.3,-12.7 68.5,0.2 93,23.1 z m 73.8,65.3 c 9.6,-11.9 26.4,-21.5 40.7,-11.4 7.4,5.3 10.1,13.8 5.9,22.1 -3.7,7.3 -11.4,11.8 -19.2,13.6 -13.2,2.9 -25.7,-2.1 -35.8,-10.2 2.1,-5 4.9,-9.7 8.4,-14.1 z"
           id="path87"
           inkscape:connector-curvature="0" /><path
           d="m 198.4,254.6 c 2.2,0 3.9,-0.9 4.9,-2.2 32.1,13.7 48.8,48.6 50,82.4 0.7,20.9 -4.1,40.6 -9.3,60.7 -3.3,12.6 -6.1,25.8 -5.4,38.8 -0.5,0.2 -0.9,0.4 -1.4,0.6 -14.9,7.6 -25.4,21.4 -33.5,35.6 -6.5,11.6 -14.4,25.6 -25.6,34 -1.4,1.1 -2.9,2.1 -4.5,3 1.6,0.7 3,1.5 4.5,2.4 11.4,6.9 19.5,19 26.6,30.3 9.1,14.6 18.6,28.8 34.2,37.1 13.6,7.2 32,11.2 46.8,5.3 15.4,-6.2 18,-22.6 18.9,-37.3 0.2,-2.9 -4.3,-2.9 -4.5,0 -0.5,7.8 -1.1,16 -4.8,23 -4.4,8.4 -13.3,11.8 -22.3,12.4 -16.7,1 -34,-5.9 -45.9,-17.5 -16.6,-16.2 -25.4,-43.5 -45,-56.3 5.1,-4.4 9.4,-9.8 13.6,-15.4 9.1,-12.2 15.1,-26.5 25.3,-38 5.2,-5.9 11.3,-10.8 18.1,-14.3 0.4,3.1 1,6.2 1.9,9.3 4.2,14.1 15,26.7 29.9,29.9 13.2,2.9 28.1,-3.3 29.8,-17.8 1.7,-13.7 -7.5,-25.5 -20.1,-29.9 -11.8,-4.1 -25.8,-2.9 -37.6,1.6 -0.1,-2.8 -0.1,-5.5 0.1,-8.2 1.2,-18.8 8.4,-36.5 11.9,-54.9 3.1,-16.4 3.9,-33.3 1.3,-49.9 -4.7,-30.3 -22.9,-59 -51.4,-71.1 0.1,-3.4 -2,-7 -6.5,-7 -8.6,-0.1 -8.6,13.4 0,13.4 z m 60.9,178.5 c 15.2,-1.6 33.9,3.4 36.8,20.8 1.5,9 -2.6,16.9 -11.5,19.8 -7.8,2.5 -16.4,0.3 -23.2,-4 -11.4,-7.3 -16.6,-19.6 -18.1,-32.5 5.1,-2.2 10.4,-3.5 16,-4.1 z"
           id="path89"
           inkscape:connector-curvature="0" /><path
           d="m 297.8,402.3 c 15.3,6.5 28.7,-3.3 39.7,-13 2.2,-1.9 -1,-5.1 -3.2,-3.2 -5.8,5.1 -12.1,10.6 -19.6,12.9 -9.1,2.8 -17.8,-1 -24.6,-7 -12.6,-11.1 -19.9,-28.2 -20.1,-44.9 -0.3,-23.2 12.8,-48.7 8,-71.7 6.7,0.5 13.6,-0.3 20.5,-1.3 15.1,-2.2 29.5,-8.1 44.8,-9 7.9,-0.5 15.6,0.4 22.9,2.7 -1.9,2.5 -3.7,5.1 -5.2,8 -7,13 -8.2,29.5 0,42.3 7.3,11.4 22.2,17.5 33.7,8.5 10.9,-8.5 12.7,-23.3 6.9,-35.3 -5.4,-11.3 -16.2,-20.3 -27.7,-25.4 1.9,-2 3.8,-4 5.9,-5.7 14.2,-12.4 31.8,-19.9 47.2,-30.5 13.8,-9.5 26.4,-20.8 36.2,-34.3 18.6,-25.4 25.9,-59.7 12.9,-89 2.3,-4 0.5,-10.4 -5.5,-10.4 -8.6,0 -8.7,13.4 0,13.4 0.7,0 1.3,-0.1 1.8,-0.2 14,32.7 1.1,69.9 -22.3,95.1 -14.3,15.3 -31.6,25.8 -49.5,36.3 -11.2,6.6 -22.6,13.9 -31.3,23.6 -0.5,-0.2 -0.9,-0.3 -1.4,-0.5 -15.9,-5.2 -33.1,-2.9 -48.9,1.5 -12.8,3.6 -28.3,7.9 -42.2,6 -1.8,-0.3 -3.6,-0.6 -5.3,-1.1 0.6,1.6 1.1,3.2 1.5,4.9 3.2,13 0.4,27.2 -2.6,40.2 -3.9,16.8 -7.2,33.5 -2,50.4 4.6,14.6 14.8,30.5 29.4,36.7 z m 73,-132.8 c 5,2.1 9.7,4.8 14.1,8.4 11.9,9.6 21.5,26.4 11.4,40.7 -5.3,7.4 -13.8,10.1 -22.1,5.9 -7.3,-3.7 -11.8,-11.4 -13.6,-19.2 -3,-13.3 2.1,-25.7 10.2,-35.8 z"
           id="path91"
           inkscape:connector-curvature="0" /><path
           d="m 582.1,367.1 c -10,4.4 -21.8,8.2 -32.6,4.2 -0.4,-0.2 -0.9,-0.4 -1.3,-0.6 1.9,-4.5 2.8,-9.4 2.2,-14.2 -0.5,-4 -1.2,-11.8 -4.8,-14.4 -3.4,-2.4 -7.5,1.1 -9.2,4 -5,8.6 0,20 7.7,25 0.4,0.3 0.8,0.5 1.3,0.7 -0.3,0.7 -0.7,1.4 -1,2 -5,8.8 -14.3,14.1 -24,16.1 -10.2,2.2 -21.8,1.4 -31.2,-3.4 -1.5,-0.8 -2.9,-1.7 -4.3,-2.6 3.3,-2.2 5.9,-5.6 7.5,-9.5 5,-11.7 3.9,-26 2.8,-38.3 -0.7,-7.2 -2.6,-16.3 -2.5,-24.8 4.5,1.6 9.2,2.5 13.8,2 8,-0.9 16.3,-8 14.9,-16.8 -1.4,-8.4 -11.4,-11.6 -18.6,-8.5 -8,3.5 -11.3,12.1 -12,20.4 -10.4,-4.2 -20.3,-12.4 -25.8,-20.7 -7.7,-11.5 -8.8,-25.9 -1.2,-37.6 10.9,-17 32.4,-25.7 39.8,-45 7.4,17.2 28.6,23.7 35.4,41.4 0.5,1.3 2.7,0.8 2.2,-0.6 -7.2,-18.7 -30.6,-25.1 -36.6,-44.3 -0.3,-1.1 -1.8,-1.1 -2.2,0 -5.8,19.7 -26.6,28.8 -38.4,44.2 -14.3,18.7 -6.8,42 10.8,55.5 4.2,3.2 9.2,6.5 14.5,8.8 -17.2,6.1 -22.3,25.9 -28.5,41.3 -4.2,10.3 -10.5,21.2 -21.6,25.1 -0.7,0.3 -1.5,0.4 -2.2,0.6 0.9,-0.2 -4.4,-11 -5.1,-11.9 -1.5,-2 -3.8,-3.4 -6.1,-4.5 -1.7,-0.8 -5.9,-3.3 -7.7,-3 -4.1,0.7 -4.5,6 -3.6,9.3 2.3,8.8 12.2,13.4 20.9,12.6 0.4,2.3 0.8,4.5 1,6.5 1.4,9.8 1.4,20.4 -3.6,29.3 -6,10.5 -17,13.4 -28.6,13.6 1,-3.7 0.8,-7.8 -0.6,-11.7 C 399.7,406 389.5,396.7 380.7,389.2 374,383.4 365,377.9 358.6,371 c 6.2,-2.8 12,-7 14.3,-13.4 2.3,-6.4 0.5,-15.1 -6.1,-18.2 -7.6,-3.6 -16.1,2.6 -18,10.1 -2,7.8 1.5,15.1 6.5,20.9 -6.9,2.7 -14.6,4 -20.3,4.4 -13.6,0.9 -28.4,-3.8 -35.9,-15.8 -13.3,-21.2 1.9,-48.2 -7.9,-70.6 17.4,6.9 36.9,-3.4 54.3,4.2 1.3,0.6 2.4,-1.4 1.1,-1.9 -18.4,-8 -39.3,3.8 -57.2,-5.5 -1,-0.5 -2.1,0.5 -1.5,1.5 11.4,21.1 -1.9,45.8 6.3,67.5 8.7,23.1 36.2,26.2 56.9,19.7 1,-0.3 2.1,-0.7 3.2,-1.1 -6.9,15.6 2.1,32.3 8.5,46.9 4.4,10 8.2,21.8 4.2,32.6 -1.4,3.7 -3.7,6.8 -6.8,9 -0.1,0.1 -8.6,-3.8 -9.7,-4 -3.1,-0.7 -9.4,-3.9 -12.3,-1.6 -3.7,2.9 1,8.1 3.6,9.6 5.8,3.4 13,2.2 18.5,-1.4 10.3,7.1 17.2,20.4 19.6,32.4 1.5,7.6 1.4,15.7 -1.1,23 -1.4,-1 -3,-1.9 -4.7,-2.7 -11.7,-5 -26,-3.9 -38.3,-2.8 -7.2,0.7 -16.3,2.6 -24.8,2.5 1.6,-4.5 2.5,-9.2 2,-13.8 -0.9,-8 -8,-16.3 -16.8,-14.9 -8.4,1.4 -11.6,11.4 -8.5,18.6 3.4,7.9 11.8,11.2 19.9,11.9 0.1,0.2 0.1,0.4 0.2,0.6 -4.3,10.2 -12.3,19.8 -20.5,25.3 -11.5,7.7 -25.9,8.8 -37.6,1.2 -17,-10.9 -25.7,-32.4 -45,-39.8 17.2,-7.4 23.7,-28.6 41.4,-35.4 1.3,-0.5 0.8,-2.7 -0.6,-2.2 -18.7,7.2 -25.1,30.6 -44.3,36.6 -1.1,0.3 -1.1,1.8 0,2.2 19.7,5.8 28.8,26.6 44.2,38.4 18.7,14.3 42,6.8 55.5,-10.8 2.8,-3.6 5.6,-7.9 7.9,-12.4 6.3,16.8 25.8,21.8 41.1,28 10.3,4.2 21.2,10.5 25.1,21.6 0.5,1.5 0.8,3.1 0.9,4.7 -4,0.9 -8.2,2.2 -11.6,4.6 -3,2.2 -8.8,7.6 -8,11.8 0.7,4.1 6,4.5 9.3,3.6 7.8,-2.1 12.3,-10.1 12.7,-17.9 2.7,-0.5 5.3,-0.8 7.4,-1 9.5,-1 19.4,-0.2 27.9,4.4 10.5,5.7 14.3,14.7 15.3,24.7 -3.5,-0.7 -7.2,-0.4 -10.8,0.8 -11.3,3.9 -20.6,14.1 -28.1,22.9 -5.8,6.7 -11.3,15.7 -18.2,22.1 -2.8,-6.2 -7,-12 -13.4,-14.3 -6.4,-2.3 -15.1,-0.5 -18.2,6.1 -3.6,7.6 2.6,16.1 10.1,18 7.8,2 15.1,-1.5 20.9,-6.5 2.7,6.9 4,14.6 4.4,20.3 0.9,13.6 -3.8,28.4 -15.8,35.9 -21.2,13.3 -48.2,-1.9 -70.6,7.9 6.9,-17.4 -3.4,-36.9 4.2,-54.3 0.6,-1.3 -1.4,-2.4 -1.9,-1.1 -8,18.4 3.8,39.3 -5.5,57.2 -0.5,1 0.5,2.1 1.5,1.5 21.1,-11.4 45.8,1.9 67.5,-6.3 23.1,-8.7 26.2,-36.2 19.7,-56.9 -0.3,-0.9 -0.6,-1.8 -0.9,-2.7 15.8,7.6 32.9,-1.6 47.7,-8.2 10,-4.4 21.8,-8.2 32.6,-4.2 4.1,1.5 7.5,4.3 9.8,7.9 -0.3,-0.4 -5.4,7.8 -5.7,8.7 -1,2.9 -3.1,7.4 -1.7,10.6 2.4,5.5 8.6,1.6 10.7,-2 3,-5.3 2.4,-11.6 -0.4,-16.9 7.7,-6.6 19.9,-9.6 29.4,-10.2 3.5,-0.2 7,-0.2 10.4,0 -4.8,11.6 -3.7,25.6 -2.6,37.8 0.7,7.2 2.6,16.3 2.5,24.8 -4.5,-1.6 -9.2,-2.5 -13.8,-2 -8,0.9 -16.3,8 -14.9,16.8 1.4,8.4 11.4,11.6 18.6,8.5 8,-3.5 11.3,-12.1 12,-20.4 10.4,4.2 20.3,12.4 25.8,20.7 7.7,11.5 8.8,25.9 1.2,37.6 -10.9,17 -32.4,25.7 -39.8,45 -7.4,-17.2 -28.6,-23.7 -35.4,-41.4 -0.5,-1.3 -2.7,-0.8 -2.2,0.6 7.2,18.7 30.6,25.1 36.6,44.3 0.3,1.1 1.8,1.1 2.2,0 5.8,-19.7 26.6,-28.8 38.4,-44.2 14.3,-18.7 6.8,-42 -10.8,-55.5 -3.9,-3 -8.5,-6.1 -13.5,-8.4 17.8,-5.7 23,-25.9 29.3,-41.5 4.2,-10.3 10.5,-21.2 21.6,-25.1 3.3,-1.1 6.8,-1.2 10.2,-0.5 0.5,6.5 2.2,12.8 6.9,17.4 0.8,1.3 2.2,2.2 4.1,1.9 4.1,-0.7 4.5,-6 3.6,-9.3 -1.6,-6 -6.7,-10 -12.5,-11.7 -0.1,-2.2 0,-4.4 0.1,-6.5 0.6,-10 3,-20 7.7,-28.9 4.8,-9.1 12.3,-16.6 21.2,-21.3 0.2,1.7 0.5,3.5 1.1,5.2 3.9,11.3 14.1,20.6 22.9,28.1 6.7,5.8 15.7,11.3 22.1,18.2 -6.2,2.8 -12,7 -14.3,13.4 -2.3,6.4 -0.5,15.1 6.1,18.2 7.6,3.6 16.1,-2.6 18,-10.1 2,-7.8 -1.5,-15.1 -6.5,-20.9 6.9,-2.7 14.6,-4 20.3,-4.4 13.6,-0.9 28.4,3.8 35.9,15.8 13.3,21.2 -1.9,48.2 7.9,70.6 -17.4,-6.9 -36.9,3.4 -54.3,-4.2 -1.3,-0.6 -2.4,1.4 -1.1,1.9 18.4,8 39.3,-3.8 57.2,5.5 1,0.5 2.1,-0.5 1.5,-1.5 -11.4,-21.1 1.9,-45.8 -6.3,-67.5 -8.7,-23.1 -36.2,-26.2 -56.9,-19.7 -1,0.3 -2,0.7 -3,1 7,-15.6 -2,-32.4 -8.5,-47 -4.4,-10 -8.2,-21.8 -4.2,-32.6 1.1,-3 2.9,-5.6 5.2,-7.7 0.4,-0.4 14.4,5.2 16.2,5.4 2.3,0.3 5.6,0.7 7.4,-1.1 3.2,-3.3 -0.7,-7.9 -3.6,-9.6 -6.5,-3.7 -14.6,-1.9 -20.3,2.7 -10.6,-5.1 -19.4,-13.4 -22.4,-25.6 -1.9,-7.9 -0.5,-15.3 3.3,-22.1 1.3,0.9 2.7,1.7 4.2,2.3 11.7,5 26,3.9 38.3,2.8 7.2,-0.7 16.3,-2.6 24.8,-2.5 -1.6,4.5 -2.5,9.2 -2,13.8 0.9,8 8,16.3 16.8,14.9 8.4,-1.4 11.6,-11.4 8.5,-18.6 -3.5,-8 -12.1,-11.3 -20.4,-12 4.2,-10.4 12.4,-20.3 20.7,-25.8 11.5,-7.7 25.9,-8.8 37.6,-1.2 17,10.9 25.7,32.4 45,39.8 -17.2,7.4 -23.7,28.6 -41.4,35.4 -1.3,0.5 -0.8,2.7 0.6,2.2 18.7,-7.2 25.1,-30.6 44.3,-36.6 1.1,-0.3 1.1,-1.8 0,-2.2 -19.7,-5.8 -28.8,-26.6 -44.2,-38.4 -18.7,-14.3 -42,-6.8 -55.5,10.8 -3.1,4.1 -6.3,8.9 -8.6,14 -4.8,-19.4 -25.9,-24.7 -42.1,-31.3 -10.3,-4.2 -21.2,-10.5 -25.1,-21.6 -0.6,-1.6 -0.8,-3.3 -0.9,-5 3.6,-1.4 7.1,-3.2 10.3,-5.5 3,-2.1 9.9,-6.3 9.4,-10.6 -0.4,-4.2 -6.2,-4.5 -9.3,-3.7 -8,2.1 -12.4,10.4 -12.7,18.3 -9.8,3.5 -20.8,4.1 -30.2,2.5 -11.1,-1.9 -17.8,-9.1 -18.1,-20.4 -0.1,-1.7 -0.1,-3.3 -0.1,-5 2.8,0.2 5.7,-0.2 8.5,-1.1 11.3,-3.9 20.6,-14.1 28.1,-22.9 5.8,-6.7 11.3,-15.7 18.2,-22.1 2.8,6.2 7,12 13.4,14.3 6.4,2.3 15.1,0.5 18.2,-6.1 3.6,-7.6 -2.6,-16.1 -10.1,-18 -7.8,-2 -15,1.5 -20.9,6.5 -2.7,-6.9 -4,-14.6 -4.4,-20.3 -0.9,-13.6 3.8,-28.4 15.8,-35.9 21.2,-13.3 48.2,1.9 70.6,-7.9 -6.9,17.4 3.4,36.9 -4.2,54.3 -0.6,1.3 1.4,2.4 1.9,1.1 8,-18.4 -3.8,-39.3 5.5,-57.2 0.5,-1 -0.5,-2.1 -1.5,-1.5 -21.1,11.4 -45.8,-1.9 -67.5,6.3 -23.1,8.7 -26.2,36.2 -19.7,56.9 0.3,0.9 0.6,1.8 0.9,2.7 -15.8,-7.4 -32.7,1.8 -47.4,8.3 z m -81.9,-74.6 c 5.9,-5.2 18.8,-4.5 19.3,5.4 0.5,9 -9.1,13.8 -16.8,13.3 -2.9,-0.2 -5.9,-0.8 -8.9,-1.8 -0.2,-0.2 -0.4,-0.3 -0.8,-0.3 0.4,-6.4 2.3,-12.3 7.2,-16.6 z m -75.5,82.9 c -0.1,-0.1 -0.2,-0.1 -0.3,-0.2 -3.3,-1.7 -6,-4.5 -7.2,-7.9 -1.1,-3 -0.2,-6.1 3.5,-5.1 1.9,0.5 3.9,-0.2 5.7,0.7 2.1,1 4,3.3 5.2,5.2 1.7,2.8 2.7,6 3.6,9.2 -3.7,0.2 -7.3,-0.3 -10.5,-1.9 z m -68.9,88.2 c -2.1,0.8 -4.3,1.2 -6.6,1.2 -1.3,0 -2.5,-0.3 -3.7,-0.6 -5.5,-1.8 -3.7,-6.2 1.4,-5.6 3.8,0.4 8.3,1.8 11.6,3.7 -0.9,0.4 -1.8,0.9 -2.7,1.3 z m 5.7,194.8 c -6.9,2.7 -15.6,1.8 -19.2,-5.6 -4.5,-9.1 5.2,-15.4 13.3,-13.7 6.8,1.4 11.4,7.2 14.5,14 -2.6,2.2 -5.4,4 -8.6,5.3 z m 137.3,65.3 c -5.9,5.2 -18.8,4.5 -19.3,-5.4 -0.5,-9 9.1,-13.8 16.8,-13.3 3.2,0.2 6.4,0.9 9.7,2 -0.4,6.5 -2.2,12.4 -7.2,16.7 z m 77.3,-82.6 c 2.3,1.1 4.3,2.7 5.8,4.7 0.8,1 1.3,2 1.7,3.2 0.4,0.7 0.5,1.5 0.6,2.3 0.2,5.3 -5.5,2.9 -7.2,0.1 -2,-3.2 -2.8,-7.6 -3.1,-11.3 0.7,0.3 1.5,0.6 2.2,1 z M 652,539.6 c 2.1,-0.8 4.3,-1.2 6.6,-1.2 1.3,0 2.5,0.3 3.7,0.6 4.6,1.5 4.2,7.3 -1,6.9 -2.8,-0.2 -11.3,-5.8 -13.6,-4.2 1.4,-0.8 2.8,-1.6 4.3,-2.1 z M 629.1,424.3 c 1.1,-2.3 2.7,-4.3 4.7,-5.8 1,-0.8 2,-1.3 3.2,-1.7 0.7,-0.4 1.5,-0.5 2.3,-0.6 8.1,-0.3 -2,9.7 -3.8,10.9 -0.9,0.6 -8.4,4.1 -8.4,4.5 0.2,-2.5 0.9,-5 2,-7.3 z m 12.4,-67.5 c 6.9,-2.7 15.6,-1.8 19.2,5.6 4.5,9.1 -5.2,15.4 -13.3,13.7 -6.8,-1.4 -11.4,-7.2 -14.5,-14 2.6,-2.2 5.4,-4 8.6,-5.3 z m -103.6,3 c -0.8,-2.1 -1.2,-4.3 -1.2,-6.6 0,-1.3 0.3,-2.5 0.7,-3.7 0.5,-1.5 1,-2.6 2.5,-3.2 0.7,-0.3 2.1,-0.3 2.8,0 4.4,2 5.2,8.3 5.4,12.5 0,1 -1.4,11.2 -1.8,11 -3.8,-2.3 -6.8,-5.7 -8.4,-10 z m -185.8,0.8 c -2.7,-6.9 -1.8,-15.6 5.6,-19.2 9.1,-4.5 15.4,5.2 13.7,13.3 -1.4,6.5 -6.7,11 -13.2,14.1 -0.3,-0.4 -1,-0.6 -1.5,-0.4 -1.9,-2.3 -3.5,-4.9 -4.6,-7.8 z M 380,522.5 c 1.7,1.7 3.1,3.7 3.8,6.3 1.4,4.9 -0.2,10.2 -4,13.6 -1.5,1.3 -3,2.2 -5,2.8 -1.4,0.4 -2.8,0.6 -4.3,0.6 -4.4,-0.1 -2.9,-4.7 -1.5,-7.3 0.8,-1.5 1.7,-2.8 2.4,-3.6 1.4,-1.8 3,-3.3 4.4,-5.1 1.7,-2.4 3.1,-4.8 4.2,-7.3 z m -87.7,-13.9 c -5.2,-5.9 -4.5,-18.8 5.4,-19.3 9,-0.5 13.8,9.1 13.3,16.8 -0.2,3.2 -0.9,6.4 -2,9.7 -6.5,-0.4 -12.4,-2.2 -16.7,-7.2 z m 81.7,77.1 c -1.1,2.3 -2.7,4.3 -4.7,5.8 -1,0.8 -2,1.3 -3.2,1.7 -0.7,0.4 -1.5,0.5 -2.3,0.6 -6.2,0.2 -1.6,-8.3 0.5,-10.2 3.2,-2.9 7.6,-4.3 11.7,-5.2 -0.2,2.5 -0.8,5 -2,7.3 z m 92.6,76.4 c 0,1.3 -0.3,2.5 -0.7,3.7 -0.7,2.1 -4.2,5.2 -6.5,3.1 -1.9,-1.8 -0.2,-5.7 0.5,-7.7 1,-2.8 2.7,-5.3 4.7,-7.4 0.3,0.5 0.5,1.1 0.7,1.6 0.9,2.2 1.4,4.5 1.3,6.7 z m 188.9,-19.4 c 2.7,6.9 1.8,15.6 -5.6,19.2 -9.1,4.5 -15.4,-5.2 -13.7,-13.3 0.9,-4.1 5.1,-8.6 8,-11.3 5.8,-5.5 8.8,-1.1 11.3,5.4 z M 625.6,489.8 c -2.1,-1.8 -3.7,-4.1 -4.5,-6.9 -1.4,-4.9 0.2,-10.2 4,-13.6 1.5,-1.3 3,-2.2 5,-2.8 1.4,-0.4 2.8,-0.6 4.3,-0.6 5.9,0.2 -0.6,12.8 -1.9,14.7 -2.2,3.3 -4.7,6.1 -6.9,9.2 z m 70.3,6 c 6.5,0.4 12.4,2.3 16.7,7.2 5.2,5.9 4.5,18.8 -5.4,19.3 -9,0.5 -13.8,-9.1 -13.3,-16.8 0.2,-3.2 0.9,-6.5 2,-9.7 z m -1.4,-2.2 c 0,0 0,0.1 0,0 -0.1,0 -0.1,0 -0.2,0 0.1,0.1 0.1,0.1 0.2,0 z M 630.3,361.7 c -1.5,1.4 -2.9,2.9 -4.2,4.5 -9.6,11.2 -17.9,23.3 -29.4,32.7 -5.4,4.4 -13,9.3 -20.3,8.7 -0.1,-6.4 -0.9,-12.9 -0.2,-19.4 0.4,-4 1.6,-10.7 -5.1,-8.2 -7.6,2.8 -11.1,12.5 -8.3,19.8 2.1,5.4 6.4,8.5 11.4,9.5 -0.1,4 -0.1,8 0.8,11.9 2,9.2 10.4,14.4 19.1,16 9.7,1.7 20.9,1.1 30.9,-2.4 0.1,0.9 0.2,1.8 0.4,2.7 2.8,13 15.8,20.7 27.2,25.3 15.6,6.3 36.3,11.3 40.7,30.1 0.1,0.5 0.5,0.7 0.8,0.8 -0.4,0 -0.7,0 -1.1,0 -17.5,0.1 -34.6,4.9 -52.2,2.1 -4.4,-0.7 -9.4,-2 -13.3,-4.6 0.3,-0.4 0.5,-0.8 0.8,-1.2 2.7,-3.9 5.7,-7.6 8,-11.8 2,-3.6 9.8,-10.6 3,-13.6 -7.9,-3.5 -17.7,1.9 -20.2,9.8 -2.1,6.9 0.5,13 5.4,17.1 -0.8,1.3 -1.6,2.7 -2.2,4.2 -3.4,7.8 -3,16.8 0.1,24.7 4,10.3 11.9,17.3 21.2,22 -1.1,1.1 -2.1,2.2 -2.9,3.5 -7.3,11.3 -3.5,25.8 1.3,37.2 6.4,14.9 16.8,32.3 8.4,48.3 -1.4,-1.5 -2.9,-2.8 -4.3,-4.1 -11.2,-9.6 -23.3,-17.9 -32.7,-29.4 -3.9,-4.8 -8.2,-11.3 -8.7,-17.8 4,-1.8 8.2,-3 12.6,-3.5 1.9,-0.2 4.4,-0.6 6.4,-0.2 2.3,0.5 4,2.6 6.5,1.8 2.6,-0.8 3,-3.5 2.1,-5.8 -2.8,-7.6 -12.5,-11.1 -19.8,-8.3 -6.5,2.6 -9.7,8.3 -9.9,14.6 -9.7,4.7 -17.9,12.8 -23.1,22.6 -5,9.5 -7.5,20.3 -8,31 -0.1,1.7 -0.1,3.4 -0.1,5.1 -2.9,-0.5 -5.8,-0.6 -8.6,0 -13,2.8 -20.7,15.8 -25.3,27.2 -6.2,15.4 -11.2,35.7 -29.5,40.5 0,-0.3 0,-0.6 0,-0.9 -0.1,-17.5 -4.9,-34.6 -2.1,-52.2 0.5,-3.1 1.3,-6.5 2.6,-9.6 3.7,0.2 7.4,0.6 11.1,1.1 4.1,0.5 7.7,1 9.2,5.2 0.8,2 0.6,4 3.2,4.6 2.2,0.6 4.1,-0.8 5,-2.8 3.5,-7.9 -1.9,-17.7 -9.8,-20.2 -8.7,-2.7 -16.2,2.3 -20.1,9.7 -6.5,-0.4 -13.1,-0.3 -19.5,0.9 -7.8,1.3 -16.3,4.5 -22.4,9.6 -1.7,-2.5 -3.8,-4.7 -6.2,-6.3 -11.3,-7.3 -25.8,-3.5 -37.2,1.3 -15.2,6.5 -32.9,17.2 -49.2,7.9 1.5,-1.4 2.9,-2.9 4.2,-4.5 9.6,-11.2 17.9,-23.3 29.4,-32.7 6,-4.9 14.7,-10.4 22.7,-8.3 0.5,0.1 0.3,8.1 0.3,9.1 -0.1,4.1 -6.9,21.6 2.6,18.1 7.6,-2.8 11.1,-12.5 8.3,-19.8 -1.7,-4.4 -4.9,-7.2 -8.6,-8.7 -0.3,-4 -1,-8 -2.4,-11.7 -3.5,-9.1 -11.7,-15.5 -20.8,-18.5 -6,-2 -19,-3.2 -30.1,-1.3 -0.1,-0.9 -0.2,-1.9 -0.4,-2.7 -2.8,-13 -15.8,-20.7 -27.2,-25.3 -15.2,-6.1 -35.3,-11.1 -40.3,-28.9 0,-0.1 0.1,-0.2 0.1,-0.3 0.5,0 1,0 1.5,0 17.5,-0.1 34.6,-4.9 52.2,-2.1 4.7,0.7 10.1,2.2 14.1,5.2 -0.5,1.1 -1,2.2 -1.6,3.3 -3.3,5.8 -7.1,10.8 -12.1,15.1 -3.1,2.6 -2.6,6 1.1,7.6 7.9,3.5 17.7,-1.9 20.2,-9.8 2.1,-6.6 -0.4,-12.5 -4.9,-16.7 0.4,-1 0.7,-1.9 1,-2.9 2.6,-9.4 1.7,-19.6 -1.3,-28.8 -3.3,-10.1 -9.6,-20.2 -18.2,-26.5 1.8,-1.5 3.4,-3.2 4.7,-5.1 7.3,-11.3 3.5,-25.8 -1.3,-37.2 -6.3,-14.8 -16.7,-32.1 -8.5,-48 1.4,1.5 2.8,2.8 4.3,4 11.2,9.6 23.3,17.9 32.7,29.4 5,6.1 10.8,15.3 8.1,23.4 -1.2,3.6 -19.9,-3.3 -22.7,-3.7 -3.8,-0.6 -5.5,2.6 -4.3,5.9 2.8,7.6 12.5,11.1 19.8,8.3 4.3,-1.7 7.1,-4.7 8.6,-8.3 13.8,-0.1 26.9,-3.8 32.9,-17.9 4.6,-10.7 3.3,-22.7 1.1,-33.9 0.1,0 0.2,0 0.2,0 13,-2.8 20.7,-15.8 25.3,-27.2 6,-14.9 10.8,-34.4 27.7,-40 0,0 0,0.1 0,0.1 0.1,17.5 4.9,34.6 2.1,52.2 -1.1,6.7 -3.6,14.8 -9.8,18.4 -5.3,3 -12,-18.2 -15.8,-19.9 -2.5,-1.1 -4.6,0.7 -5.6,3 -3.5,7.9 1.9,17.7 9.8,20.2 4.1,1.3 7.9,0.9 11.2,-0.7 2.6,1.9 5.3,3.5 8.3,4.7 10.2,4.2 22.6,4.5 33.2,1.4 9.7,-2.8 18.3,-9.9 22.9,-18.6 10.8,4.9 23.8,1.4 34.1,-3 15.1,-6.4 32.7,-17.1 48.9,-8.1 z M 574,407.1 c -4.9,-1.3 -8.9,-5.6 -9.8,-10.6 -0.9,-5 1.4,-10.4 5.6,-13.3 0.2,-0.2 0.5,-0.3 0.8,-0.3 1.4,0 2.4,2.8 3,5.8 0.6,3 0.8,6.3 0.9,7.2 0.1,1 -0.5,11.2 -0.5,11.2 z m 30.7,170.5 c 0.2,-2.1 0.8,-4.2 2.1,-6.2 2.8,-4.4 8.3,-6.9 13.5,-6 1.4,0.3 2.9,0.8 4.1,1.5 1.3,0.7 2.4,1.6 3.4,2.7 2,2.2 0.5,3.3 -2.1,4 -3,0.8 -7.4,0.9 -8.6,1 -1.6,0.1 -12.1,0.5 -12.4,3 z m -95,62.5 c 2,-3.7 4.9,-6.7 9.2,-7.9 4.9,-1.4 10.2,0.2 13.6,4 1.3,1.5 2.2,3 2.8,5 0.4,1.4 0.6,2.8 0.6,4.3 -0.1,3.1 -1.9,2.5 -3.9,1 -2,-1.4 -4.1,-3.7 -4.9,-4.1 -2.8,-1.2 -6.5,-1.3 -9.4,-1.6 -2.7,-0.2 -5.4,-0.5 -8,-0.7 z m -78.9,-14.9 c 0.2,-5.4 1,-10.7 0.9,-16.1 0.4,0.2 0.8,0.4 1.1,0.6 4.4,2.8 6.9,8.3 6,13.5 -0.3,1.4 -0.8,2.9 -1.5,4.1 -0.6,1.2 -1.7,2.9 -2.8,3.7 -0.7,0.5 -1.8,0.7 -2.5,0.1 -0.6,-0.5 -0.9,-1.4 -1.1,-2.4 -0.2,-1.3 -0.1,-2.6 -0.1,-3.5 z M 401.3,430.9 c -0.2,0.3 -0.3,0.7 -0.6,1 -2.8,4.4 -8.3,6.9 -13.5,6 -1.4,-0.3 -2.9,-0.8 -4.1,-1.5 -1.3,-0.7 -2.4,-1.6 -3.4,-2.7 -1.9,-2 -0.4,-3 2.1,-3.4 3.3,-0.6 8.2,-0.3 9.2,-0.2 1.2,0.2 9.9,1.6 10.3,0.8 z m 79.6,-47.2 c -0.3,0.1 -0.5,0.2 -0.8,0.3 -4.9,1.4 -10.2,-0.2 -13.6,-4 -1.3,-1.5 -2.2,-3 -2.8,-5 -0.4,-1.4 -0.6,-2.8 -0.6,-4.3 0.1,-3.3 2,-2.8 4.1,-1.2 2.5,1.9 5.3,5.5 5.9,6.3 0.9,1.1 6.5,8.4 7.8,7.9 z"
           id="path93"
           inkscape:connector-curvature="0" /><path
           d="m 380.4,310.7 c 5.8,0 5.8,-9 0,-9 -5.7,0 -5.7,9 0,9 z"
           id="path95"
           inkscape:connector-curvature="0" /><path
           d="m 555,292.1 c 5.8,0 5.8,-9 0,-9 -5.8,0 -5.8,9 0,9 z"
           id="path97"
           inkscape:connector-curvature="0" /><path
           d="m 695.2,384.5 c -5.8,0 -5.8,9 0,9 5.8,0 5.8,-9 0,-9 z"
           id="path99"
           inkscape:connector-curvature="0" /><path
           d="m 728.8,556.1 c -5.8,0 -5.8,9 0,9 5.7,0 5.7,-9 0,-9 z"
           id="path101"
           inkscape:connector-curvature="0" /><path
           d="m 627.3,695.6 c -5.8,0 -5.8,9 0,9 5.8,0 5.8,-9 0,-9 z"
           id="path103"
           inkscape:connector-curvature="0" /><path
           d="m 440.4,738.8 c -5.8,0 -5.8,9 0,9 5.7,-0.1 5.7,-9 0,-9 z"
           id="path105"
           inkscape:connector-curvature="0" /><path
           d="m 301.4,636.7 c 5.8,0 5.8,-9 0,-9 -5.8,0 -5.8,9 0,9 z"
           id="path107"
           inkscape:connector-curvature="0" /><path
           d="m 278.2,458.4 c 5.8,0 5.8,-9 0,-9 -5.7,0 -5.7,9 0,9 z"
           id="path109"
           inkscape:connector-curvature="0" /><path
           d="m 352.8,443.5 c -5.8,0 -5.8,9 0,9 5.8,-0.1 5.8,-9 0,-9 z"
           id="path111"
           inkscape:connector-curvature="0" /><path
           d="m 438.6,349.5 c -5.8,0 -5.8,9 0,9 5.8,-0.1 5.8,-9 0,-9 z"
           id="path113"
           inkscape:connector-curvature="0" /><path
           d="m 566.2,348.7 c -5.8,0 -5.8,9 0,9 5.7,0 5.7,-9 0,-9 z"
           id="path115"
           inkscape:connector-curvature="0" /><path
           d="m 652.7,443.5 c 5.8,0 5.8,-9 0,-9 -5.8,0 -5.8,9 0,9 z"
           id="path117"
           inkscape:connector-curvature="0" /><path
           d="m 655.7,567.3 c 5.8,0 5.8,-9 0,-9 -5.8,0.1 -5.8,9 0,9 z"
           id="path119"
           inkscape:connector-curvature="0" /><path
           d="m 560.5,666.4 c 5.8,0 5.8,-9 0,-9 -5.8,0 -5.8,9 0,9 z"
           id="path121"
           inkscape:connector-curvature="0" /><path
           d="m 443.8,661.3 c 5.8,0 5.8,-9 0,-9 -5.7,0 -5.7,9 0,9 z"
           id="path123"
           inkscape:connector-curvature="0" /><path
           d="m 358,566.6 c -5.8,0 -5.8,9 0,9 5.8,-0.1 5.8,-9 0,-9 z"
           id="path125"
           inkscape:connector-curvature="0" /><path
           d="m 487.8,108.6 c 5.8,0 5.8,-9 0,-9 -5.7,0 -5.7,9 0,9 z"
           id="path127"
           inkscape:connector-curvature="0" /><path
           d="m 495.3,129.4 c 5.8,0 5.8,-9 0,-9 -5.8,0.1 -5.8,9 0,9 z"
           id="path129"
           inkscape:connector-curvature="0" /><path
           d="m 496,150.3 c -5.8,0 -5.8,9 0,9 5.8,0 5.8,-9 0,-9 z"
           id="path131"
           inkscape:connector-curvature="0" /><path
           d="m 490.1,177.9 c -5.8,0 -5.8,9 0,9 5.7,0 5.7,-9 0,-9 z"
           id="path133"
           inkscape:connector-curvature="0" /><path
           d="m 778.8,213.7 c 5.8,0 5.8,-9 0,-9 -5.8,0.1 -5.8,9 0,9 z"
           id="path135"
           inkscape:connector-curvature="0" /><path
           d="m 769.8,234.6 c 5.8,0 5.8,-9 0,-9 -5.8,0.1 -5.8,9 0,9 z"
           id="path137"
           inkscape:connector-curvature="0" /><path
           d="m 748.9,256.2 c 5.8,0 5.8,-9 0,-9 -5.7,0.1 -5.7,9 0,9 z"
           id="path139"
           inkscape:connector-curvature="0" /><path
           d="m 723.6,271.9 c 5.8,0 5.8,-9 0,-9 -5.8,0.1 -5.8,9 0,9 z"
           id="path141"
           inkscape:connector-curvature="0" /><path
           d="m 901.1,486.7 c -5.8,0 -5.8,9 0,9 5.8,0 5.8,-9 0,-9 z"
           id="path143"
           inkscape:connector-curvature="0" /><path
           d="m 874.2,495.7 c -5.8,0 -5.8,9 0,9 5.8,-0.1 5.8,-9 0,-9 z"
           id="path145"
           inkscape:connector-curvature="0" /><path
           d="m 850.4,497.2 c -5.8,0 -5.8,9 0,9 5.7,-0.1 5.7,-9 0,-9 z"
           id="path147"
           inkscape:connector-curvature="0" /><path
           d="m 831,500.2 c 5.8,0 5.8,-9 0,-9 -5.8,0 -5.8,9 0,9 z"
           id="path149"
           inkscape:connector-curvature="0" /><path
           d="m 800.4,776.9 c -5.8,0 -5.8,9 0,9 5.7,0 5.8,-9 0,-9 z"
           id="path151"
           inkscape:connector-curvature="0" /><path
           d="m 773.5,765 c -5.8,0 -5.8,9 0,9 5.8,-0.1 5.8,-9 0,-9 z"
           id="path153"
           inkscape:connector-curvature="0" /><path
           d="m 754.1,744.1 c -5.8,0 -5.8,9 0,9 5.8,-0.1 5.8,-9 0,-9 z"
           id="path155"
           inkscape:connector-curvature="0" /><path
           d="m 743.7,718 c -5.8,0 -5.8,9 0,9 5.8,-0.1 5.8,-9 0,-9 z"
           id="path157"
           inkscape:connector-curvature="0" /><path
           d="m 520.7,900.7 c -5.8,0 -5.8,9 0,9 5.7,0 5.7,-9 0,-9 z"
           id="path159"
           inkscape:connector-curvature="0" /><path
           d="m 515.4,879.9 c -5.8,0 -5.8,9 0,9 5.8,-0.1 5.8,-9 0,-9 z"
           id="path161"
           inkscape:connector-curvature="0" /><path
           d="m 515.4,859.7 c 5.8,0 5.8,-9 0,-9 -5.7,0.1 -5.7,9 0,9 z"
           id="path163"
           inkscape:connector-curvature="0" /><path
           d="m 522.2,824.7 c -5.8,0 -5.8,9 0,9 5.7,-0.1 5.7,-9 0,-9 z"
           id="path165"
           inkscape:connector-curvature="0" /><path
           d="m 225.3,798.5 c -5.8,0 -5.8,9 0,9 5.7,0 5.7,-9 0,-9 z"
           id="path167"
           inkscape:connector-curvature="0" /><path
           d="m 240.2,787.4 c 5.8,0 5.8,-9 0,-9 -5.8,0 -5.8,9 0,9 z"
           id="path169"
           inkscape:connector-curvature="0" /><path
           d="m 258.8,767.2 c 5.8,0 5.8,-9 0,-9 -5.7,0.1 -5.7,9 0,9 z"
           id="path171"
           inkscape:connector-curvature="0" /><path
           d="m 284.2,756 c 5.8,0 5.8,-9 0,-9 -5.8,0.1 -5.8,9 0,9 z"
           id="path173"
           inkscape:connector-curvature="0" /><path
           d="m 102.2,534.5 c 5.8,0 5.8,-9 0,-9 -5.8,0 -5.8,9 0,9 z"
           id="path175"
           inkscape:connector-curvature="0" /><path
           d="m 121.6,528.5 c 5.8,0 5.8,-9 0,-9 -5.8,0.1 -5.8,9 0,9 z"
           id="path177"
           inkscape:connector-curvature="0" /><path
           d="m 149.9,529.3 c 5.8,0 5.8,-9 0,-9 -5.7,0 -5.7,9 0,9 z"
           id="path179"
           inkscape:connector-curvature="0" /><path
           d="m 178.3,536.7 c 5.8,0 5.8,-9 0,-9 -5.8,0.1 -5.8,9 0,9 z"
           id="path181"
           inkscape:connector-curvature="0" /><path
           d="m 205.9,238.3 c 5.8,0 5.8,-9 0,-9 -5.8,0.1 -5.8,9 0,9 z"
           id="path183"
           inkscape:connector-curvature="0" /><path
           d="m 224.5,248.8 c 5.8,0 5.8,-9 0,-9 -5.7,0 -5.7,9 0,9 z"
           id="path185"
           inkscape:connector-curvature="0" /><path
           d="m 244.7,263.7 c 5.8,0 5.8,-9 0,-9 -5.8,0.1 -5.8,9 0,9 z"
           id="path187"
           inkscape:connector-curvature="0" /><path
           d="m 258.8,286.1 c 5.8,0 5.8,-9 0,-9 -5.7,0 -5.7,9 0,9 z"
           id="path189"
           inkscape:connector-curvature="0" /><path
           d="m 317.4,321.5 c 8.6,0 8.7,-13.4 0,-13.4 -8.6,0 -8.7,13.4 0,13.4 z"
           id="path191"
           inkscape:connector-curvature="0" /><path
           d="m 502,232 c -8.6,0 -8.7,13.4 0,13.4 8.7,0 8.7,-13.4 0,-13.4 z"
           id="path193"
           inkscape:connector-curvature="0" /><path
           d="m 694.5,323.8 c 8.6,0 8.7,-13.4 0,-13.4 -8.7,-0.1 -8.7,13.4 0,13.4 z"
           id="path195"
           inkscape:connector-curvature="0" /><path
           d="m 772.8,501.7 c -8.6,0 -8.7,13.4 0,13.4 8.6,0 8.6,-13.4 0,-13.4 z"
           id="path197"
           inkscape:connector-curvature="0" /><path
           d="m 696.7,690.8 c -8.6,0 -8.7,13.4 0,13.4 8.6,0 8.7,-13.4 0,-13.4 z"
           id="path199"
           inkscape:connector-curvature="0" /><path
           d="m 496.4,791.5 c 8.6,0 8.7,-13.4 0,-13.4 -8.6,-0.1 -8.6,13.4 0,13.4 z"
           id="path201"
           inkscape:connector-curvature="0" /><path
           d="m 308.4,693 c -8.6,0 -8.7,13.4 0,13.4 8.7,0 8.7,-13.4 0,-13.4 z"
           id="path203"
           inkscape:connector-curvature="0" /><path
           d="m 234.6,510.6 c 8.6,0 8.7,-13.4 0,-13.4 -8.6,0 -8.7,13.4 0,13.4 z"
           id="path205"
           inkscape:connector-curvature="0" /><path
           d="m 333.1,336.1 c 7.2,0 7.2,-11.2 0,-11.2 -7.2,0 -7.3,11.2 0,11.2 z"
           id="path207"
           inkscape:connector-curvature="0" /><path
           d="m 502,266.7 c 7.2,0 7.2,-11.2 0,-11.2 -7.2,0 -7.2,11.2 0,11.2 z"
           id="path209"
           inkscape:connector-curvature="0" /><path
           d="m 679.9,338.3 c 7.2,0 7.2,-11.2 0,-11.2 -7.2,0 -7.2,11.2 0,11.2 z"
           id="path211"
           inkscape:connector-curvature="0" /><path
           d="m 749.3,516.2 c 7.2,0 7.2,-11.2 0,-11.2 -7.2,0 -7.2,11.2 0,11.2 z"
           id="path213"
           inkscape:connector-curvature="0" /><path
           d="m 682.2,676.2 c -7.2,0 -7.2,11.2 0,11.2 7.2,0 7.2,-11.2 0,-11.2 z"
           id="path215"
           inkscape:connector-curvature="0" /><path
           d="m 496.4,757.9 c -7.2,0 -7.2,11.2 0,11.2 7.2,0 7.2,-11.2 0,-11.2 z"
           id="path217"
           inkscape:connector-curvature="0" /><path
           d="m 324.1,677.3 c -7.2,0 -7.2,11.2 0,11.2 7.2,0 7.2,-11.2 0,-11.2 z"
           id="path219"
           inkscape:connector-curvature="0" /><path
           d="m 258.1,499.4 c -7.2,0 -7.2,11.2 0,11.2 7.2,0 7.2,-11.2 0,-11.2 z"
           id="path221"
           inkscape:connector-curvature="0" /><path
           d="m 344.2,346.1 c 5.8,0 5.8,-9 0,-9 -5.7,0.1 -5.7,9 0,9 z"
           id="path223"
           inkscape:connector-curvature="0" /><path
           d="m 504.3,283.5 c 5.8,0 5.8,-9 0,-9 -5.8,0 -5.8,9 0,9 z"
           id="path225"
           inkscape:connector-curvature="0" /><path
           d="m 669.8,354 c 5.8,0 5.8,-9 0,-9 -5.7,0 -5.7,9 0,9 z"
           id="path227"
           inkscape:connector-curvature="0" /><path
           d="m 729.2,516.2 c 5.8,0 5.8,-9 0,-9 -5.8,0.1 -5.8,9 0,9 z"
           id="path229"
           inkscape:connector-curvature="0" /><path
           d="m 668.7,660.5 c -5.8,0 -5.8,9 0,9 5.8,0 5.8,-9 0,-9 z"
           id="path231"
           inkscape:connector-curvature="0" /><path
           d="m 494.2,737.8 c -5.8,0 -5.8,9 0,9 5.7,-0.1 5.8,-9 0,-9 z"
           id="path233"
           inkscape:connector-curvature="0" /><path
           d="m 337.5,662.8 c -5.8,0 -5.8,9 0,9 5.8,-0.1 5.8,-9 0,-9 z"
           id="path235"
           inkscape:connector-curvature="0" /><path
           d="m 276,499.4 c -5.8,0 -5.8,9 0,9 5.8,0 5.8,-9 0,-9 z"
           id="path237"
           inkscape:connector-curvature="0" /><path
           d="m 363.4,297.2 c 2.6,1.2 5.2,2.5 7.8,3.7 1.3,0.6 2.4,-1.3 1.1,-1.9 -2.6,-1.2 -5.2,-2.5 -7.8,-3.7 -1.2,-0.7 -2.4,1.3 -1.1,1.9 z"
           id="path239"
           inkscape:connector-curvature="0" /><path
           d="m 394.2,314.8 c 1.1,1 2.7,-0.6 1.6,-1.6 -1.6,-1.5 -3.4,-2.9 -5.2,-4.2 -1.2,-0.8 -2.3,1.1 -1.1,1.9 1.6,1.3 3.2,2.6 4.7,3.9 z"
           id="path241"
           inkscape:connector-curvature="0" /><path
           d="m 551.5,279 c 0.1,1.4 2.3,1.4 2.2,0 -0.2,-3.8 -1.1,-7.5 -2.7,-11 -0.6,-1.3 -2.5,-0.2 -1.9,1.1 1.4,3.2 2.2,6.5 2.4,9.9 z"
           id="path243"
           inkscape:connector-curvature="0" /><path
           d="m 554.6,296.9 c 0,2 0,4 0,6 0,1.4 2.2,1.4 2.2,0 0,-2 0,-4 0,-6 0,-1.4 -2.2,-1.4 -2.2,0 z"
           id="path245"
           inkscape:connector-curvature="0" /><path
           d="m 700.7,382.1 c 2.4,-3.7 4.6,-7.5 6.3,-11.6 0.6,-1.3 -1.4,-2.4 -1.9,-1.1 -1.8,4 -3.9,7.9 -6.3,11.6 -0.9,1.2 1.1,2.3 1.9,1.1 z"
           id="path247"
           inkscape:connector-curvature="0" /><path
           d="m 689.5,396.4 c -1.1,1.4 -2.2,2.7 -3.3,4.1 -0.9,1.1 0.7,2.7 1.6,1.6 1.1,-1.4 2.2,-2.7 3.3,-4.1 0.8,-1.2 -0.7,-2.8 -1.6,-1.6 z"
           id="path249"
           inkscape:connector-curvature="0" /><path
           d="m 744.2,549.2 c -3,1.2 -6,2.5 -9,3.7 -1.3,0.5 -0.7,2.7 0.6,2.2 3,-1.2 6,-2.5 9,-3.7 1.3,-0.6 0.7,-2.8 -0.6,-2.2 z"
           id="path251"
           inkscape:connector-curvature="0" /><path
           d="m 719.2,560 c -1.9,0.3 -3.8,0.3 -5.7,0.2 -1.4,-0.1 -1.4,2.1 0,2.2 2.1,0.2 4.2,0.1 6.3,-0.3 1.4,-0.2 0.8,-2.3 -0.6,-2.1 z"
           id="path253"
           inkscape:connector-curvature="0" /><path
           d="m 643.3,705.6 c -2.1,-0.4 -4,-1.1 -5.7,-2.4 -1.2,-0.8 -2.3,1.1 -1.1,1.9 1.9,1.3 4,2.2 6.3,2.6 1.3,0.3 1.9,-1.8 0.5,-2.1 z"
           id="path255"
           inkscape:connector-curvature="0" /><path
           d="m 620.9,694.9 c -2.4,-1.1 -4.5,-2.5 -6.3,-4.4 -1,-1 -2.6,0.5 -1.6,1.6 1.9,2 4.2,3.6 6.7,4.8 1.4,0.5 2.5,-1.4 1.2,-2 z"
           id="path257"
           inkscape:connector-curvature="0" /><path
           d="m 447.9,749.4 c -0.5,-1.4 -2.6,-0.8 -2.2,0.6 0.9,2.8 2.2,5.3 3.8,7.7 0.8,1.2 2.7,0.1 1.9,-1.1 -1.5,-2.2 -2.7,-4.6 -3.5,-7.2 z"
           id="path259"
           inkscape:connector-curvature="0" /><path
           d="m 439.3,735.2 c -0.9,-3 -1.5,-6 -1.6,-9 -0.1,-1.4 -2.3,-1.4 -2.2,0 0.1,3.3 0.7,6.5 1.7,9.6 0.3,1.4 2.5,0.8 2.1,-0.6 z"
           id="path261"
           inkscape:connector-curvature="0" /><path
           d="m 297,653.2 c 2.3,-4.2 3.9,-8.6 5,-13.3 0.3,-1.4 -1.8,-2 -2.2,-0.6 -1,4.5 -2.6,8.7 -4.8,12.7 -0.6,1.4 1.3,2.5 2,1.2 z"
           id="path263"
           inkscape:connector-curvature="0" /><path
           d="m 304.6,624.9 c 0.8,-1.5 1.6,-2.9 2.4,-4.4 0.7,-1.3 -1.2,-2.4 -1.9,-1.1 -0.8,1.5 -1.6,2.9 -2.4,4.4 -0.7,1.3 1.2,2.4 1.9,1.1 z"
           id="path265"
           inkscape:connector-curvature="0" /><path
           d="m 258.8,463.4 c 4.4,-1.8 8.7,-3.9 13.5,-4.8 1.4,-0.3 0.8,-2.4 -0.6,-2.2 -4.7,0.9 -9.1,2.9 -13.5,4.8 -1.3,0.6 -0.7,2.8 0.6,2.2 z"
           id="path267"
           inkscape:connector-curvature="0" /><path
           d="m 287.2,454.1 c 1.9,-0.3 3.7,-0.5 5.6,-0.6 1.4,-0.1 1.4,-2.3 0,-2.2 -2.1,0.1 -4.1,0.4 -6.2,0.7 -1.4,0.1 -0.8,2.3 0.6,2.1 z"
           id="path269"
           inkscape:connector-curvature="0" /><path
           d="m 897.7,471.1 c -4.8,0 -6.9,4.2 -6.4,7.9 -32.7,14 -69.9,1.1 -95,-22.3 C 781,442.3 770.5,425 760,407.1 c -6.6,-11.2 -13.9,-22.6 -23.6,-31.3 0.2,-0.5 0.3,-0.9 0.5,-1.4 5.2,-15.9 2.9,-33.1 -1.5,-48.9 -3.6,-12.8 -7.9,-28.3 -6,-42.2 0.3,-1.8 0.6,-3.6 1.1,-5.3 -1.6,0.6 -3.2,1.1 -4.9,1.5 -13,3.2 -27.2,0.4 -40.2,-2.6 -16.8,-3.9 -33.5,-7.2 -50.4,-2 -14.7,4.5 -30.6,14.7 -36.8,29.3 -6.5,15.3 3.3,28.7 13,39.7 1.9,2.2 5.1,-1 3.2,-3.2 -5.1,-5.8 -10.6,-12.1 -12.9,-19.6 -2.8,-9.1 1,-17.8 7,-24.6 11.1,-12.6 28.2,-19.9 44.9,-20.1 23.2,-0.3 48.7,12.8 71.7,8 -0.5,6.7 0.3,13.6 1.3,20.5 2.2,15.1 8.1,29.5 9,44.8 0.5,7.9 -0.4,15.6 -2.7,22.9 -2.5,-1.9 -5.1,-3.7 -8,-5.2 -13,-7 -29.5,-8.2 -42.3,0 -11.4,7.3 -17.5,22.2 -8.5,33.7 8.5,10.9 23.3,12.7 35.3,6.9 11.3,-5.4 20.3,-16.2 25.4,-27.7 2,1.9 4,3.8 5.7,5.9 12.4,14.2 19.9,31.8 30.5,47.2 9.5,13.8 20.8,26.4 34.3,36.2 25.2,18.4 59.1,25.8 88.3,13.2 1.1,1 2.5,1.6 4.3,1.6 8.7,0.1 8.7,-13.3 0,-13.3 z M 722.5,391.3 c -9.6,11.9 -26.4,21.5 -40.7,11.4 -7.4,-5.3 -10.1,-13.8 -5.9,-22.1 3.7,-7.3 11.4,-11.8 19.2,-13.6 13.2,-2.9 25.7,2.1 35.8,10.2 -2,5 -4.8,9.7 -8.4,14.1 z"
           id="path271"
           inkscape:connector-curvature="0" /><path
           d="m 166.8,504.7 c 0.1,0 0.3,0 0.4,-0.1 13.6,-7.5 22.6,-21.7 31.4,-35.4 7.2,-11.3 14.6,-23 24.5,-30.6 3.2,-2.4 6.4,-4.8 9.7,-7 l 0.4,-0.3 0,-0.5 c -0.2,-5.4 0,-10.9 0.5,-16.3 0.4,-4 1.1,-10.1 3.5,-20.8 1.8,-8 3,-11.9 4.1,-15.4 1,-3.2 2,-6.2 3.1,-11.7 1.3,-6 3.3,-15.1 3.6,-27.4 0.5,-23.2 -8.4,-47.8 -24,-65.7 -5.3,-6.2 -11.6,-9.5 -18.3,-13.1 -1.2,-0.7 -2.5,-1.3 -3.8,-2 -0.4,-0.2 -0.9,-0.1 -1.1,0.3 -0.2,0.4 -0.1,0.9 0.3,1.1 1.3,0.7 2.5,1.4 3.8,2 6.5,3.5 12.7,6.8 17.8,12.7 15.3,17.6 24.1,41.8 23.6,64.6 -0.3,12.1 -2.2,21.1 -3.5,27 -1.2,5.4 -2.1,8.4 -3.1,11.6 -1.1,3.5 -2.4,7.5 -4.2,15.6 -2.4,10.8 -3.1,16.9 -3.5,21 -0.5,5.3 -0.6,10.7 -0.5,16 -3.2,2.2 -6.3,4.4 -9.4,6.8 -10.1,7.7 -17.7,19.6 -24.9,31 -8.6,13.5 -17.5,27.5 -30.8,34.8 -0.4,0.2 -0.6,0.7 -0.3,1.1 0.2,0.6 0.5,0.7 0.7,0.7 z"
           id="path273"
           inkscape:connector-curvature="0" /><path
           d="m 270.2,263 c 4.9,1.4 9.9,2 15,2 10.6,0 21.5,-2.4 32.2,-4.8 13.1,-2.9 26.6,-5.9 39,-4.2 4,0.5 7.9,1.2 11.8,1.9 l 0.5,0.1 0.3,-0.3 c 3.7,-3.9 7.7,-7.7 11.9,-11.2 3.1,-2.6 7.9,-6.3 17.1,-12.2 6.9,-4.4 10.6,-6.3 13.8,-8 3,-1.6 5.8,-3 10.5,-6.1 4.9,-3.1 13,-8.4 21.9,-16.8 16.8,-16 27.8,-39.8 29.5,-63.4 0.6,-8.1 -1.5,-15 -3.7,-22.2 -0.4,-1.3 -0.8,-2.7 -1.2,-4.1 -0.1,-0.4 -0.6,-0.7 -1,-0.6 -0.4,0.1 -0.7,0.6 -0.6,1 0.4,1.4 0.8,2.8 1.2,4.1 2.1,7.1 4.2,13.8 3.6,21.6 -1.7,23.3 -12.5,46.6 -29,62.3 -8.7,8.3 -16.5,13.3 -21.6,16.6 -4.7,3 -7.5,4.5 -10.4,6 -3.3,1.7 -7,3.7 -14,8.1 -9.3,5.9 -14.2,9.7 -17.3,12.3 -4.1,3.4 -8,7.1 -11.7,11 -3.8,-0.7 -7.6,-1.3 -11.5,-1.8 -12.7,-1.7 -26.3,1.3 -39.6,4.3 -15.6,3.5 -31.8,7.1 -46.4,2.9 -0.4,-0.1 -0.9,0.1 -1,0.6 0,0.3 0.3,0.8 0.7,0.9 z"
           id="path275"
           inkscape:connector-curvature="0" /><path
           d="m 543.1,209.7 c 11.3,7.2 23,14.6 30.6,24.5 2.4,3.2 4.8,6.4 7,9.7 l 0.3,0.4 0.5,0 c 5.4,-0.2 10.9,0 16.3,0.5 4,0.4 10.1,1.1 20.8,3.5 8,1.8 11.9,3 15.4,4.1 3.2,1 6.2,2 11.7,3.1 5.7,1.2 15.1,3.3 27.4,3.6 0.6,0 1.3,0 1.9,0 22.6,0 46.4,-8.9 63.8,-24 6.2,-5.3 9.5,-11.6 13.1,-18.3 0.7,-1.2 1.3,-2.5 2,-3.7 0.2,-0.4 0.1,-0.9 -0.3,-1.1 -0.4,-0.2 -0.9,-0.1 -1.1,0.3 -0.7,1.3 -1.4,2.5 -2,3.8 -3.5,6.5 -6.8,12.7 -12.7,17.8 -17.6,15.3 -41.8,24.1 -64.6,23.6 -12.1,-0.3 -21.1,-2.2 -27,-3.5 -5.4,-1.2 -8.4,-2.1 -11.6,-3.1 -3.5,-1.1 -7.5,-2.4 -15.6,-4.2 -10.8,-2.4 -16.9,-3.1 -21,-3.5 -5.3,-0.5 -10.7,-0.6 -16,-0.5 -2.2,-3.2 -4.5,-6.3 -6.8,-9.4 -7.7,-10.1 -19.6,-17.7 -31,-24.9 -13.5,-8.6 -27.5,-17.5 -34.8,-30.8 -0.2,-0.4 -0.7,-0.5 -1.1,-0.3 -0.4,0.2 -0.6,0.7 -0.3,1.1 7.3,13.6 21.5,22.6 35.1,31.3 z"
           id="path277"
           inkscape:connector-curvature="0" /><path
           d="m 774.5,416.7 c -1.7,-3.3 -3.7,-7 -8.1,-14 -5.9,-9.3 -9.7,-14.2 -12.3,-17.3 -3.4,-4.1 -7.1,-8 -11,-11.7 0.7,-3.8 1.3,-7.6 1.8,-11.5 1.7,-12.7 -1.3,-26.3 -4.3,-39.6 -3.5,-15.6 -7.1,-31.8 -2.9,-46.4 0.1,-0.4 -0.1,-0.9 -0.6,-1 -0.4,-0.1 -0.9,0.1 -1,0.6 -4.3,15 -0.7,31.4 2.8,47.2 2.9,13.1 5.9,26.6 4.2,39 -0.5,4 -1.2,7.9 -1.9,11.8 l -0.1,0.5 0.3,0.3 c 3.9,3.7 7.7,7.7 11.2,11.9 2.6,3.1 6.3,7.9 12.2,17.1 4.4,6.9 6.3,10.6 8,13.8 1.6,3 3,5.8 6.1,10.5 3.1,4.9 8.4,13 16.8,21.9 16,16.8 39.8,27.8 63.4,29.5 0.9,0.1 1.9,0.1 2.8,0.1 7,0 13,-1.8 19.4,-3.8 1.3,-0.4 2.7,-0.8 4.1,-1.2 0.4,-0.1 0.7,-0.6 0.6,-1 -0.1,-0.4 -0.6,-0.7 -1,-0.6 -1.4,0.4 -2.8,0.8 -4.1,1.2 -7.1,2.1 -13.8,4.2 -21.6,3.6 -23.3,-1.7 -46.6,-12.5 -62.3,-29 -8.3,-8.7 -13.3,-16.5 -16.6,-21.6 -2.9,-4.6 -4.3,-7.4 -5.9,-10.3 z"
           id="path279"
           inkscape:connector-curvature="0" /><path
           d="m 835.8,511.7 c -13.6,7.5 -22.6,21.7 -31.4,35.4 -7.2,11.3 -14.6,23 -24.6,30.6 -3.2,2.4 -6.4,4.8 -9.7,7 l -0.4,0.3 0,0.5 c 0.2,5.4 0,10.9 -0.5,16.3 -0.4,4 -1.1,10.1 -3.5,20.8 -1.8,8 -3,11.9 -4.1,15.4 -1,3.2 -2,6.2 -3.1,11.7 -1.2,5.7 -3.3,15.1 -3.6,27.4 -0.5,23.2 8.4,47.8 24,65.7 5.3,6.2 11.6,9.5 18.3,13.1 1.2,0.7 2.5,1.3 3.7,2 0.1,0.1 0.3,0.1 0.4,0.1 0.3,0 0.6,-0.2 0.7,-0.4 0.2,-0.4 0.1,-0.9 -0.3,-1.1 -1.3,-0.7 -2.5,-1.4 -3.8,-2 -6.5,-3.5 -12.7,-6.8 -17.8,-12.7 -15.3,-17.6 -24.1,-41.8 -23.6,-64.6 0.3,-12.1 2.2,-21.1 3.5,-27 1.2,-5.4 2.1,-8.4 3.1,-11.6 1.1,-3.5 2.4,-7.5 4.2,-15.6 2.4,-10.8 3.1,-16.9 3.5,-21 0.5,-5.3 0.6,-10.7 0.5,-16 3.2,-2.2 6.3,-4.4 9.4,-6.8 10.1,-7.7 17.7,-19.6 24.9,-31 8.6,-13.5 17.5,-27.5 30.8,-34.8 0.4,-0.2 0.6,-0.7 0.3,-1.1 0.1,-0.6 -0.5,-0.8 -0.9,-0.6 z"
           id="path281"
           inkscape:connector-curvature="0" /><path
           d="m 739.6,739.7 c -15,-4.3 -31.4,-0.7 -47.2,2.8 -13.1,2.9 -26.6,5.9 -39,4.2 -4,-0.5 -7.9,-1.2 -11.8,-1.9 l -0.5,-0.1 -0.3,0.3 c -3.7,3.9 -7.7,7.7 -11.9,11.2 -3.1,2.6 -7.9,6.3 -17.1,12.2 -6.9,4.4 -10.6,6.3 -13.8,8 -3,1.6 -5.8,3 -10.5,6.1 -4.9,3.1 -13,8.4 -21.9,16.8 -16.8,16 -27.8,39.8 -29.5,63.4 -0.6,8.1 1.5,15 3.7,22.2 0.4,1.3 0.8,2.7 1.2,4.1 0.1,0.4 0.4,0.6 0.8,0.6 0.1,0 0.2,0 0.2,0 0.4,-0.1 0.7,-0.6 0.6,-1 -0.4,-1.4 -0.8,-2.8 -1.2,-4.1 -2.1,-7.1 -4.2,-13.8 -3.6,-21.6 1.7,-23.3 12.5,-46.6 29,-62.3 8.7,-8.3 16.5,-13.3 21.6,-16.6 4.7,-3 7.5,-4.5 10.4,-6 3.3,-1.7 7,-3.7 14,-8.1 9.3,-5.9 14.2,-9.7 17.3,-12.3 4.1,-3.4 8,-7.1 11.7,-11 3.8,0.7 7.6,1.3 11.5,1.8 12.6,1.7 26.3,-1.3 39.6,-4.3 15.6,-3.5 31.8,-7.1 46.4,-2.9 0.5,0.1 0.9,-0.1 1,-0.6 0,-0.3 -0.2,-0.8 -0.7,-0.9 z"
           id="path283"
           inkscape:connector-curvature="0" /><path
           d="m 456.4,816.9 c -11.3,-7.2 -23,-14.6 -30.6,-24.5 -2.4,-3.2 -4.8,-6.4 -7,-9.7 l -0.3,-0.4 -0.5,0 c -5.4,0.2 -10.9,0 -16.3,-0.5 -4,-0.4 -10,-1.1 -20.8,-3.5 -8,-1.8 -11.9,-3 -15.4,-4.1 -3.2,-1 -6.2,-2 -11.7,-3.1 -5.7,-1.2 -15.1,-3.3 -27.4,-3.6 -23.2,-0.5 -47.8,8.4 -65.7,24 -6.2,5.3 -9.5,11.6 -13.1,18.3 -0.7,1.2 -1.3,2.5 -2,3.8 -0.2,0.4 -0.1,0.9 0.3,1.1 0.4,0.2 0.9,0.1 1.1,-0.3 0.7,-1.3 1.4,-2.5 2,-3.8 3.5,-6.5 6.8,-12.7 12.7,-17.8 17.6,-15.3 41.8,-24.1 64.6,-23.6 12.1,0.3 21.1,2.2 27,3.5 5.4,1.2 8.4,2.1 11.6,3.1 3.5,1.1 7.5,2.4 15.6,4.2 10.8,2.4 16.9,3.1 21,3.5 5.3,0.5 10.7,0.6 16,0.5 2.2,3.2 4.4,6.3 6.8,9.4 7.7,10.1 19.6,17.7 31,24.9 13.5,8.6 27.5,17.5 34.8,30.8 0.2,0.3 0.4,0.4 0.7,0.4 0.1,0 0.3,0 0.4,-0.1 0.4,-0.2 0.6,-0.7 0.3,-1.1 -7.3,-13.7 -21.5,-22.7 -35.1,-31.4 z"
           id="path285"
           inkscape:connector-curvature="0" /><path
           d="m 231,620.2 c 5.9,9.3 9.7,14.2 12.3,17.3 3.4,4.1 7.1,8 11,11.7 -0.7,3.8 -1.3,7.6 -1.8,11.5 -1.7,12.6 1.3,26.3 4.3,39.6 3.5,15.6 7.1,31.8 2.9,46.4 -0.1,0.4 0.1,0.9 0.6,1 0.1,0 0.2,0 0.2,0 0.4,0 0.7,-0.2 0.8,-0.6 4.3,-15 0.7,-31.4 -2.8,-47.2 -2.9,-13.1 -5.9,-26.6 -4.2,-39 0.5,-4 1.2,-7.9 1.9,-11.8 l 0.1,-0.5 -0.3,-0.3 c -3.9,-3.7 -7.7,-7.7 -11.2,-11.9 -2.6,-3.1 -6.3,-7.9 -12.2,-17.1 -4.4,-6.9 -6.3,-10.6 -8,-13.8 -1.6,-3 -3,-5.8 -6.1,-10.5 -3.1,-4.9 -8.4,-13 -16.8,-21.9 -16,-16.8 -39.8,-27.8 -63.4,-29.5 -8.1,-0.6 -15,1.5 -22.2,3.7 -1.3,0.4 -2.7,0.8 -4.1,1.2 -0.4,0.1 -0.7,0.6 -0.6,1 0.1,0.4 0.6,0.7 1,0.6 1.4,-0.4 2.8,-0.8 4.1,-1.2 7.1,-2.1 13.8,-4.2 21.6,-3.6 23.3,1.7 46.6,12.5 62.3,29 8.3,8.7 13.3,16.5 16.6,21.6 3,4.7 4.5,7.5 6,10.4 1.6,3.2 3.6,6.9 8,13.9 z"
           id="path287"
           inkscape:connector-curvature="0" /></g></g></switch></svg>