<?xml version="1.0" encoding="UTF-8" standalone="no"?>
<svg
   xmlns:dc="http://purl.org/dc/elements/1.1/"
   xmlns:cc="http://creativecommons.org/ns#"
   xmlns:rdf="http://www.w3.org/1999/02/22-rdf-syntax-ns#"
   xmlns:svg="http://www.w3.org/2000/svg"
   xmlns="http://www.w3.org/2000/svg"
   xmlns:sodipodi="http://sodipodi.sourceforge.net/DTD/sodipodi-0.dtd"
   xmlns:inkscape="http://www.inkscape.org/namespaces/inkscape"
   version="1.1"
   id="Layer_1"
   x="0px"
   y="0px"
   viewBox="206.579833984375 108.9500732421875 586.8402709960938 782.0999755859375"
   width="100%"
   height="100%"
   style="enable-background:new 0 0 1000 1000;"
   xml:space="preserve"
   ><style
     type="text/css"
     id="style3">
	.noFillSVG{fill:none;}
</style><switch
     id="switch5"
     transform="translate(3.7170855,14.75)"><g
       id="g7"><g
         id="g9"><path
           class="noFillSVG"
           d="m 407.1,639.1 c 0,-0.2 0.1,-0.3 0.2,-0.4 0,0 0,0 -0.1,0 -18.1,-0.1 -33.8,11.5 -39,28.8 16.4,-3.6 33.7,-11.1 38.9,-28.4 z"
           id="path11"
           inkscape:connector-curvature="0"
           style="fill:none" /><path
           class="noFillSVG"
           d="m 404.5,637 c -16.9,-10.3 -32,-23.4 -44.6,-38.6 9.1,19.7 3.6,44.1 -14.8,57.8 4.5,2.4 9.1,4.7 13.5,7.2 2.6,1.4 5.2,2.9 7.8,4.3 5,-17.5 20.2,-29.6 38.1,-30.7 z"
           id="path13"
           inkscape:connector-curvature="0"
           style="fill:none" /><path
           class="noFillSVG"
           d="m 405.2,647.6 c -7.6,12.3 -22.1,18.3 -36.1,21.5 13.3,7.5 26.5,15.4 39.2,23.9 -5.9,-14.5 -7,-30.4 -3.1,-45.4 z"
           id="path15"
           inkscape:connector-curvature="0"
           style="fill:none" /><path
           class="noFillSVG"
           d="m 342.7,654.9 c -3.9,-21.9 -4.5,-45.2 6.5,-65.1 -16,19.7 -42.4,29.6 -67.6,24.9 5.7,5.9 12.2,11.2 18.8,15.8 13.4,9.4 27.9,16.9 42.3,24.4 z"
           id="path17"
           inkscape:connector-curvature="0"
           style="fill:none" /><path
           class="noFillSVG"
           d="m 306.5,452.8 c 5.6,1.5 10.7,4.4 14.2,8.8 0.8,-6.2 2,-12.2 3.4,-18.1 -4,5.4 -10.5,8.4 -17.6,9.3 z"
           id="path19"
           inkscape:connector-curvature="0"
           style="fill:none" /><path
           class="noFillSVG"
           d="m 282.1,613.1 c 24.9,4.6 51.2,-5.5 66.7,-25.4 -25.2,-5.3 -54.6,0.5 -66.7,25.4 z"
           id="path21"
           inkscape:connector-curvature="0"
           style="fill:none" /><path
           class="noFillSVG"
           d="m 320.2,523.2 c 1.6,1.3 2.9,2.7 4,4.3 -1.4,-5.6 -2.5,-11.2 -3.3,-17 -4.2,3.2 -9.1,5.6 -14.2,7 4.9,0.7 9.6,2.6 13.5,5.7 z"
           id="path23"
           inkscape:connector-curvature="0"
           style="fill:none" /><path
           class="noFillSVG"
           d="m 265.2,472 c -0.4,0.2 -0.7,0.4 -1.1,0.7 8.9,-3.4 18.4,-5.3 27.8,-4.7 10.5,0.6 23.2,5.9 27.2,16.4 0,-6.9 0.5,-13.6 1.2,-20.3 -5.8,-8.6 -19.2,-12.7 -29,-9.9 -10,2.8 -17.4,12.3 -26.1,17.8 z"
           id="path25"
           inkscape:connector-curvature="0"
           style="fill:none" /><path
           class="noFillSVG"
           d="m 266.6,500 c 7.3,6.9 14.6,13.7 24.7,16.1 10.2,2.5 21.2,-1.3 29.3,-7.6 -0.6,-4.6 -1,-9.2 -1.3,-13.8 -2.7,6.9 -10.8,11.6 -17.9,12.5 -5.3,0.6 -11,-0.5 -14.8,-4.6 -2.9,-3.2 -4.5,-8 -2.8,-12.1 3.2,-7.6 17.2,-8.1 15.9,1.9 -0.1,1.1 -1.8,0.6 -1.7,-0.5 1,-7.5 -8.1,-6.1 -11,-3.2 -2.8,2.8 -2.7,7.1 -0.8,10.4 3.5,6.2 11.1,7.3 17.4,5.8 5.3,-1.2 10.4,-4.5 13.1,-9.2 3.5,-6.1 0.7,-12.7 -3.9,-17.4 -17.1,-17.5 -47.9,-6.8 -65.6,4.8 6.8,5.5 13.3,11.1 19.4,16.9 z"
           id="path27"
           inkscape:connector-curvature="0"
           style="fill:none" /><path
           class="noFillSVG"
           d="m 491.6,298.9 c -5.8,-6.8 -12.4,-12.8 -19.8,-17.7 -5.1,-3.4 -10.9,-6.6 -17.2,-6.3 -7.6,0.3 -14.8,6.3 -12.6,14.5 1.4,5.2 6.9,9 11.6,4.9 1.7,-1.5 2.8,-3.3 4.8,-4.4 3.6,-2 8,-1.8 11.8,-0.7 10.1,3 19.7,10.7 27.5,17.8 0,0 0,0 0,0 -2.3,-2.4 -4.3,-5.2 -6.1,-8.1 z"
           id="path29"
           inkscape:connector-curvature="0"
           style="fill:none" /><path
           class="noFillSVG"
           d="m 344.4,654.5 c 21,-15.7 24.2,-45.9 7.4,-65.7 -12,19.9 -11.4,43.6 -7.4,65.7 z"
           id="path31"
           inkscape:connector-curvature="0"
           style="fill:none" /><path
           class="noFillSVG"
           d="m 412.1,641.4 c -0.9,-0.5 -1.8,-1 -2.7,-1.5 -6.6,16.9 -6.5,35.8 0.4,52.6 13,-14.4 13.9,-35.7 2.3,-51.1 z"
           id="path33"
           inkscape:connector-curvature="0"
           style="fill:none" /><path
           class="noFillSVG"
           d="m 711.2,357.1 c -24.9,-4.6 -51.2,5.5 -66.7,25.4 25.2,5.3 54.5,-0.4 66.7,-25.4 z"
           id="path35"
           inkscape:connector-curvature="0"
           style="fill:none" /><path
           class="noFillSVG"
           d="m 527.3,290.2 c 3.8,-0.9 8.1,-0.7 11.4,1.6 2.2,1.5 3.6,4.6 6.3,5.4 4.4,1.2 8,-3.4 8.8,-7.1 1.6,-7.7 -5.2,-13.3 -12.4,-13.5 -6.6,-0.2 -12.7,3.3 -17.9,6.9 -6.7,4.6 -12.8,10.1 -18.1,16.3 -1.6,2.5 -3.3,4.9 -5.3,7.1 0,0 0.1,0.1 0.1,0.1 3.9,-3.4 8,-6.6 12.4,-9.5 4.5,-2.9 9.4,-6.1 14.7,-7.3 z"
           id="path37"
           inkscape:connector-curvature="0"
           style="fill:none" /><path
           class="noFillSVG"
           d="m 650.6,315.3 c 3.9,21.9 4.5,45.2 -6.5,65.1 16,-19.7 42.4,-29.6 67.6,-24.9 -5.7,-5.9 -12.2,-11.2 -18.8,-15.8 -13.4,-9.4 -27.9,-16.9 -42.3,-24.4 z"
           id="path39"
           inkscape:connector-curvature="0"
           style="fill:none" /><path
           class="noFillSVG"
           d="m 675.5,482.7 c 6.2,-11.6 20.4,-15.6 32.7,-14.7 7.4,0.5 14.7,2.2 21.6,4.8 -2.6,-1.6 -5.1,-3.2 -7.5,-5.1 -7.6,-5.8 -14.6,-13.9 -24.8,-14.3 -8.6,-0.3 -18.8,3 -23.9,10.3 0.8,6.6 1.2,13.4 1.3,20.2 0.2,-0.4 0.3,-0.8 0.6,-1.2 z"
           id="path41"
           inkscape:connector-curvature="0"
           style="fill:none" /><path
           class="noFillSVG"
           d="m 586.1,331.1 c 0,0 0,0 0,0 0.1,0.2 0.3,0.3 0.5,0.4 17.8,-0.2 33.2,-11.7 38.3,-28.8 -16.2,3.6 -33.5,11.1 -38.8,28.4 z"
           id="path43"
           inkscape:connector-curvature="0"
           style="fill:none" /><path
           class="noFillSVG"
           d="m 589.4,333.1 c 16.3,10 30.9,22.5 43.3,37 -8.1,-19.4 -2.4,-42.8 15.6,-56.1 -4.5,-2.4 -9.1,-4.7 -13.5,-7.2 -2.6,-1.4 -5.2,-2.9 -7.8,-4.3 -5.1,17.3 -20,29.3 -37.6,30.6 z"
           id="path45"
           inkscape:connector-curvature="0"
           style="fill:none" /><path
           class="noFillSVG"
           d="m 648.9,315.7 c -19.6,14.7 -23.7,42 -10.4,61.7 0.8,1.1 1.7,2.2 2.5,3.3 0.2,0.2 0.4,0.4 0.5,0.7 11.9,-19.9 11.4,-43.6 7.4,-65.7 z"
           id="path47"
           inkscape:connector-curvature="0"
           style="fill:none" /><path
           class="noFillSVG"
           d="m 687.6,517.4 c -5.1,-1.2 -10,-3.5 -14.5,-6.8 -0.7,5 -1.6,10 -2.8,14.8 4.2,-4.8 10.5,-7.3 17.3,-8 z"
           id="path49"
           inkscape:connector-curvature="0"
           style="fill:none" /><path
           class="noFillSVG"
           d="m 656.9,293.2 c -1.1,1.1 -2.2,2.1 -3.5,3 -8.4,5.9 -18.8,6.7 -27.7,3.6 9.2,5.1 18.4,10.1 27.7,15 4.9,2.6 9.9,5.2 14.8,7.8 -6.8,-6.3 -12.8,-14.8 -12.3,-24.1 0,-1.8 0.4,-3.6 1,-5.3 z"
           id="path51"
           inkscape:connector-curvature="0"
           style="fill:none" /><path
           class="noFillSVG"
           d="m 573.7,235.3 c 9.7,4.2 6.8,17.8 -1.6,21.6 -4.2,1.8 -8.3,1.5 -12,-0.2 17.2,13.9 35.8,26 54.9,37.1 -5.3,-4.6 -9,-11 -9.7,-18.8 -0.7,-7.1 0.7,-14.2 1,-21.3 0.3,-8.2 -1.3,-15.9 -6,-22.7 -8.1,-11.8 -24.6,-20.1 -38,-11.8 -6,3.7 -10.4,10.2 -11.2,17.3 -0.8,7.7 2.7,16.1 10.4,18.9 7.4,2.7 16.6,-1.6 16.7,-10.2 0.1,-4.3 -3.2,-9 -7.9,-9 -5,0.1 -7.3,7.9 -1.9,9.4 1.1,0.3 0.6,2 -0.5,1.7 -3.6,-1 -5.1,-4.9 -4,-8.3 1.3,-4.2 6,-5.4 9.8,-3.7 z"
           id="path53"
           inkscape:connector-curvature="0"
           style="fill:none" /><path
           class="noFillSVG"
           d="m 643.7,384.2 c 0,0.1 0,0.2 -0.1,0.3 9.2,13.4 16.6,28 21.9,43.6 0.2,-2.3 0.6,-4.7 1.3,-6.9 2.6,-8.5 8.2,-16.8 17.2,-19.4 8.2,-2.4 17.4,0.9 20.2,9.3 2.3,7 -1.5,14.3 -9.1,15.5 -6.9,1 -13.7,-5.1 -10.2,-12 0.5,-1 2,-0.1 1.5,0.9 -4.7,9.4 9.3,11.6 14.2,6.6 5,-5 2.1,-13.6 -3.2,-17.1 -12.7,-8.4 -25.6,5.5 -28.9,16.8 -1.2,3.8 -1.7,8 -1.2,12 0.5,1.8 1.1,3.6 1.5,5.4 0.3,0.7 0.6,1.3 1,1.9 3.2,5 8.8,8.1 14.4,9.5 10.6,2.8 22.1,-0.1 31,-6.3 17.7,-12.2 22,-35.6 16.6,-55.4 -3.4,-12.1 -10.2,-22.7 -18.7,-31.9 -12.2,26.6 -43.1,32.8 -69.4,27.2 z"
           id="path55"
           inkscape:connector-curvature="0"
           style="fill:none" /><path
           class="noFillSVG"
           d="m 687.3,452.9 c -5.2,-0.8 -10.1,-2.6 -14.2,-5.9 -1.1,-0.9 -2.1,-1.9 -3,-2.9 1.3,5.6 2.4,11.3 3.2,17.1 3.6,-4.1 8.7,-6.8 14,-8.3 z"
           id="path57"
           inkscape:connector-curvature="0"
           style="fill:none" /><path
           class="noFillSVG"
           d="m 406.6,322.3 c -3.9,-15.2 -3,-31.3 2.8,-46 -2.9,2 -5.8,3.9 -8.7,5.8 -9.9,6.4 -20.1,12.4 -30.4,18.2 14.2,3.4 28.7,9.6 36.3,22 z"
           id="path59"
           inkscape:connector-curvature="0"
           style="fill:none" /><path
           class="noFillSVG"
           d="m 613.9,677.1 c -18.7,11 -37,22.9 -53.9,36.6 5.7,-2.5 12.6,-1.8 16.9,3.4 5.1,6.3 3.2,18.7 -6.6,18.6 -7.1,0 -9.5,-10.8 -2.4,-12.8 1.1,-0.3 1.5,1.4 0.5,1.7 -6.3,1.8 -2.1,11.8 4.8,8.7 4.4,-2 5.9,-6.9 4.5,-11.3 -3.1,-9.7 -15.6,-9.9 -21.9,-3.4 -12.8,13.5 1.1,35 17.4,35.8 15,0.7 28.6,-12.1 32.2,-26.1 3.5,-13.7 -3.5,-28.3 2,-41.7 1.4,-3.7 3.7,-6.9 6.5,-9.5 z"
           id="path61"
           inkscape:connector-curvature="0"
           style="fill:none" /><path
           class="noFillSVG"
           d="m 580.7,637.5 c 0.4,-0.4 0.8,-0.3 1.1,0 53.4,-29.9 89.6,-87 89.6,-152.4 0,-96.2 -78.3,-174.5 -174.5,-174.5 -30.5,0 -59.2,7.9 -84.1,21.7 -0.1,0.1 -0.2,0.2 -0.3,0.3 -0.2,0.3 -0.5,0.3 -0.7,0.2 -53.3,29.9 -89.3,86.9 -89.3,152.2 0,96.2 78.3,174.5 174.5,174.5 29.9,0 58.1,-7.6 82.8,-20.9 0.3,-0.3 0.5,-0.7 0.9,-1.1 z M 335.8,485.1 c 0,-88.9 72.3,-161.2 161.2,-161.2 88.9,0 161.2,72.3 161.2,161.2 0,88.9 -72.3,161.2 -161.2,161.2 -88.9,0 -161.2,-72.3 -161.2,-161.2 z"
           id="path63"
           inkscape:connector-curvature="0"
           style="fill:none" /><circle
           transform="matrix(0.7071,-0.7071,0.7071,0.7071,-197.4651,493.5218)"
           class="noFillSVG"
           cx="497"
           cy="485.10001"
           id="ellipse65"
           r="159.5"
           style="fill:none" /><path
           class="noFillSVG"
           d="m 501.6,671.3 c 5.8,6.8 12.4,12.8 19.8,17.7 5.1,3.4 10.9,6.6 17.2,6.3 7.6,-0.3 14.8,-6.3 12.6,-14.5 -1.4,-5.2 -6.9,-9 -11.6,-4.9 -1.7,1.5 -2.8,3.3 -4.8,4.4 -3.6,2 -8,1.8 -11.8,0.7 -10.1,-3 -19.7,-10.7 -27.5,-17.8 0,0 0,0 0,0 2.3,2.5 4.4,5.2 6.1,8.1 z"
           id="path67"
           inkscape:connector-curvature="0"
           style="fill:none" /><path
           class="noFillSVG"
           d="m 466,680 c -3.8,0.9 -8.1,0.7 -11.4,-1.6 -2.2,-1.5 -3.6,-4.6 -6.3,-5.4 -4.4,-1.2 -8,3.4 -8.8,7.1 -1.6,7.7 5.2,13.3 12.4,13.5 6.6,0.2 12.7,-3.3 17.9,-6.9 6.7,-4.6 12.8,-10.1 18.1,-16.3 1.6,-2.5 3.3,-4.9 5.3,-7.1 0,0 -0.1,-0.1 -0.1,-0.1 -3.9,3.4 -8,6.6 -12.4,9.5 -4.5,2.9 -9.4,6.1 -14.7,7.3 z"
           id="path69"
           inkscape:connector-curvature="0"
           style="fill:none" /><path
           class="noFillSVG"
           d="m 703.2,520.1 c -9.3,-2.7 -20.1,-2 -28.1,3.8 -3.2,2.3 -5.2,5.2 -6.5,8.4 -0.3,1.1 -0.6,2.1 -0.9,3.2 -1.4,6.8 0.6,14.6 4.2,20.7 5.5,9.4 20.5,17 28.7,6.2 3.6,-4.8 4,-12.2 -1.7,-15.6 -5.3,-3.2 -16.5,-0.3 -12.4,8 0.5,1 -1,1.9 -1.5,0.9 -4.2,-8.5 5.9,-14.2 13.2,-11.2 7.8,3.3 8.5,12.9 3.7,19.1 -6.5,8.4 -18.9,6.6 -26.1,0.2 -5.7,-5.1 -9.6,-13.3 -10.3,-21.4 -5.1,15.1 -12.3,29.3 -21,42.2 26.5,-5.5 57.4,0.7 70.2,26.9 11.1,-12.6 19,-27.9 19.5,-45 0.5,-20.5 -10.6,-40.4 -31,-46.4 z"
           id="path71"
           inkscape:connector-curvature="0"
           style="fill:none" /><path
           class="noFillSVG"
           d="m 667.1,648.2 c -5.5,3 -11.1,5.8 -16.4,8.6 0,0 0,0 0,0 -0.1,0.5 -0.7,0.7 -1.2,0.6 -4.3,2.2 -8.5,4.4 -12.6,6.6 -3.4,1.9 -6.8,3.7 -10.2,5.6 0,0.1 0,0.1 -0.1,0.2 10.5,-3 22.5,-1 30.4,7.1 -1.5,-4.2 -1.6,-8.9 0,-13.5 1.9,-5.5 5.6,-10.7 10.1,-15.2 z"
           id="path73"
           inkscape:connector-curvature="0"
           style="fill:none" /><path
           class="noFillSVG"
           d="m 757,477.6 c -2.6,1.5 -5,3.2 -7.5,5.1 3.7,2.5 7.3,5.3 11.4,7.1 5,2.2 10.2,1.8 15.1,-0.6 3.2,-1.6 7.3,-4.1 8.7,-7.5 2.8,-6.8 -7.9,-9 -12.4,-8.8 -5.5,0 -10.7,1.9 -15.3,4.7 z"
           id="path75"
           inkscape:connector-curvature="0"
           style="fill:none" /><path
           class="noFillSVG"
           d="m 735.3,413.3 c -2.5,18.7 -15.4,34.9 -34,39.1 4.5,1 8.6,3.2 12.7,6.3 7.5,5.8 14.6,11.5 22.8,16.3 3.7,2.2 7.4,4.3 11,6.6 4.8,-3.8 10,-7.1 15.3,-9 -3.5,-0.3 -7.1,-1.7 -10.3,-4.6 -5,-4.3 -8.5,-11.2 -7.7,-17.9 0.7,-6.2 5.5,-10.8 11.7,-11.4 4.9,-0.5 10.7,2.1 10.9,7.7 0.2,5 -5.5,7.5 -9.3,4.5 -0.9,-0.7 0.4,-1.9 1.2,-1.2 5.1,4 8,-4.9 3.6,-7.9 -1.5,-1 -3.4,-1.4 -5.2,-1.4 -3.9,0.1 -7.8,2 -9.7,5.5 -4.3,7.7 0.9,17.8 7.6,22.3 16.3,11 31.5,-9.3 32,-24.2 1.1,-31.7 -31.6,-50.1 -56.6,-61.5 3.8,9.6 5.5,20.1 4,30.8 z"
           id="path77"
           inkscape:connector-curvature="0"
           style="fill:none" /><path
           class="noFillSVG"
           d="m 348.7,383.9 c -15.9,-20.5 -43,-30.9 -68.6,-26.2 12.5,25.6 42.7,31.6 68.6,26.2 z"
           id="path79"
           inkscape:connector-curvature="0"
           style="fill:none" /><path
           class="noFillSVG"
           d="m 419.6,735 c -9.7,-4.2 -6.8,-17.8 1.6,-21.6 4.2,-1.8 8.3,-1.5 12,0.2 -17.2,-13.9 -35.8,-26 -54.9,-37.1 5.3,4.6 9,11 9.7,18.8 0.7,7.1 -0.7,14.2 -1,21.3 -0.3,8.2 1.3,15.9 6,22.7 8.1,11.8 24.6,20.1 38,11.8 6,-3.7 10.4,-10.2 11.2,-17.3 0.8,-7.7 -2.7,-16.1 -10.4,-18.9 -7.4,-2.7 -16.6,1.6 -16.7,10.2 -0.1,4.3 3.2,9 7.9,9 5,-0.1 7.3,-7.9 1.9,-9.4 -1.1,-0.3 -0.6,-2 0.5,-1.7 3.6,1 5.1,4.9 4,8.3 -1.3,4.1 -6,5.3 -9.8,3.7 z"
           id="path81"
           inkscape:connector-curvature="0"
           style="fill:none" /><path
           class="noFillSVG"
           d="m 588.1,322.6 c 7.6,-12.3 22.1,-18.3 36.1,-21.5 -13.3,-7.5 -26.5,-15.4 -39.2,-23.9 5.9,14.5 7,30.4 3.1,45.4 z"
           id="path83"
           inkscape:connector-curvature="0"
           style="fill:none" /><path
           class="noFillSVG"
           d="m 407.6,331.4 c 0.3,-0.2 0.7,-0.4 1,-0.6 -5.4,-17.7 -23.2,-25.3 -39.9,-29 5.2,17.4 20.8,29.2 38.9,29.6 z"
           id="path85"
           inkscape:connector-curvature="0"
           style="fill:none" /><path
           class="noFillSVG"
           d="m 410.7,329.6 c 1.2,-0.7 2.5,-1.4 3.7,-2 11.1,-15.7 10,-37 -3.1,-51.5 -6.9,17.1 -7.1,36.2 -0.6,53.5 z"
           id="path87"
           inkscape:connector-curvature="0"
           style="fill:none" /><path
           class="noFillSVG"
           d="m 345.5,313.9 c 17.8,13.6 23.4,37 15.6,56.6 12.5,-14.7 27.2,-27.5 43.8,-37.5 -17.7,-1.4 -32.7,-13.5 -37.9,-30.7 -7.1,3.9 -14.3,7.8 -21.5,11.6 z"
           id="path89"
           inkscape:connector-curvature="0"
           style="fill:none" /><path
           class="noFillSVG"
           d="m 281.5,355.7 c 25.3,-4 51.6,6.1 67.7,26 -11.3,-20.1 -10.8,-43.8 -6.9,-66.1 -19.1,10.1 -38.8,19.8 -55,34.4 -2,1.8 -3.9,3.7 -5.8,5.7 z"
           id="path91"
           inkscape:connector-curvature="0"
           style="fill:none" /><path
           class="noFillSVG"
           d="m 379.4,293.1 c 18.8,-11 37,-22.9 53.9,-36.6 -5.7,2.5 -12.6,1.8 -16.9,-3.4 -5.1,-6.3 -3.2,-18.7 6.6,-18.6 7.1,0 9.5,10.8 2.4,12.8 -1.1,0.3 -1.5,-1.4 -0.5,-1.7 6.3,-1.8 2.1,-11.8 -4.8,-8.7 -4.4,2 -5.9,6.9 -4.5,11.3 3.1,9.7 15.6,9.9 21.9,3.4 12.8,-13.5 -1.1,-35 -17.4,-35.8 -15,-0.7 -28.6,12.1 -32.2,26.1 -3.5,13.7 3.5,28.3 -2,41.7 -1.4,3.7 -3.7,6.9 -6.5,9.5 z"
           id="path93"
           inkscape:connector-curvature="0"
           style="fill:none" /><path
           class="noFillSVG"
           d="m 349.6,586 c 0,-0.3 0.2,-0.6 0.5,-0.8 -9.4,-13.8 -16.9,-28.9 -22.2,-45.1 0,2.9 -0.5,5.9 -1.4,8.8 -2.6,8.5 -8.2,16.8 -17.2,19.4 -8.2,2.4 -17.4,-0.9 -20.2,-9.3 -2.3,-7 1.5,-14.3 9.1,-15.5 6.9,-1 13.7,5.1 10.2,12 -0.5,1 -2,0.1 -1.5,-0.9 4.7,-9.4 -9.3,-11.6 -14.2,-6.6 -5,5 -2.1,13.6 3.2,17.1 12.7,8.4 25.6,-5.5 28.9,-16.8 1.9,-6.3 2.3,-13.6 -1.4,-19.4 -3.2,-5 -8.8,-8.1 -14.4,-9.5 -10.6,-2.8 -22.1,0.1 -31,6.3 -17.7,12.2 -22,35.6 -16.6,55.4 3.4,12.1 10.2,22.7 18.7,31.9 12.3,-26.4 43.2,-32.5 69.5,-27 z"
           id="path95"
           inkscape:connector-curvature="0"
           style="fill:none" /><path
           class="noFillSVG"
           d="m 264.5,593.5 c -0.5,-0.9 -0.9,-1.9 -1.3,-2.8 0,0.2 -0.1,0.3 -0.3,0.4 0.6,0.8 1.1,1.5 1.6,2.4 z"
           id="path97"
           inkscape:connector-curvature="0"
           style="fill:none" /><path
           class="noFillSVG"
           d="m 336.4,677 c 1.1,-1.1 2.2,-2.1 3.5,-3 8.4,-5.9 18.8,-6.7 27.7,-3.6 -9.2,-5.1 -18.4,-10.1 -27.7,-15 -4.9,-2.6 -9.9,-5.2 -14.8,-7.8 6.8,6.3 12.8,14.8 12.3,24.1 0,1.8 -0.4,3.6 -1,5.3 z"
           id="path99"
           inkscape:connector-curvature="0"
           style="fill:none" /><path
           class="noFillSVG"
           d="m 326.2,322 c 5.5,-3 11.1,-5.8 16.4,-8.6 0,0 0,0 0,0 0.1,-0.5 0.7,-0.7 1.2,-0.6 4.3,-2.2 8.5,-4.4 12.6,-6.6 3.4,-1.9 6.8,-3.7 10.2,-5.6 0,-0.1 0,-0.1 0.1,-0.2 -10.5,3 -22.5,1 -30.4,-7.1 1.5,4.2 1.6,8.9 0,13.5 -1.9,5.5 -5.6,10.8 -10.1,15.2 z"
           id="path101"
           inkscape:connector-curvature="0"
           style="fill:none" /><path
           class="noFillSVG"
           d="m 290.1,450.1 c 9.3,2.7 20.1,2 28.1,-3.8 10.6,-7.6 9.2,-22.1 3.2,-32.3 -5.5,-9.4 -20.5,-17 -28.7,-6.2 -3.6,4.8 -4,12.2 1.7,15.6 5.3,3.2 16.5,0.3 12.4,-8 -0.5,-1 1,-1.9 1.5,-0.9 4.2,8.5 -5.9,14.2 -13.2,11.2 -7.8,-3.3 -8.5,-12.9 -3.7,-19.1 6.5,-8.4 18.9,-6.6 26.1,-0.2 6.2,5.5 10.2,14.7 10.4,23.3 5.2,-15.7 12.5,-30.5 21.6,-44 0,-0.1 0,-0.2 0,-0.3 -26.6,5.7 -57.9,-0.4 -70.8,-26.7 -11.1,12.6 -19,27.9 -19.5,45 -0.6,20.5 10.5,40.4 30.9,46.4 z"
           id="path103"
           inkscape:connector-curvature="0"
           style="fill:none" /><path
           class="noFillSVG"
           d="m 344.1,315.1 c -4.1,22.8 -4.7,47.1 7.6,67.5 1.4,-1.9 2.8,-3.9 4.3,-5.8 12.3,-20.1 7.7,-47.1 -11.9,-61.7 z"
           id="path105"
           inkscape:connector-curvature="0"
           style="fill:none" /><path
           class="noFillSVG"
           d="m 385.6,724 c 0,0 0,0 0,0 0,0 0,0 0,0 0,0 0,0 0,0 z"
           id="path107"
           inkscape:connector-curvature="0"
           style="fill:none" /><path
           class="noFillSVG"
           d="m 335.3,674.7 c 2.1,-9 -3.2,-17.6 -9.2,-23.9 -5.2,-5.4 -11.8,-10.6 -19.3,-12.1 -8.4,-1.7 -15.7,2.6 -23.3,5.1 -2,0.7 -4.1,1.2 -6.2,1.7 -8.5,9.4 -5.5,24.6 6.6,29.3 6.8,2.6 14.8,0.9 17.2,-6.6 0.7,-2.1 0.8,-4.3 0.8,-6.5 0,-1.8 0.1,-3.5 -1.3,-5.1 -0.9,-1.1 -2.1,-1.7 -3.4,-1.8 -2.5,-1.2 -4.1,0.2 -4.9,3.9 0.6,0.9 -0.9,1.8 -1.5,0.9 -1.6,-2.5 -0.5,-5.2 2.1,-6.4 3.3,-1.5 7.9,0.1 9.8,3.2 1,1.7 1.2,3.9 1.1,6.2 2.8,-4.1 7.4,-6.6 12.9,-4.5 6.9,2.7 7.2,12.6 0.2,15.4 -1,0.4 -1.5,-1.3 -0.5,-1.7 6.4,-2.5 4.1,-11.1 -1.7,-12.4 -5.6,-1.2 -10.2,3.1 -11.5,8.2 -2.2,8.5 4.2,17.3 12.3,19.4 8.4,2.1 17.9,-3.8 19.8,-12.3 z"
           id="path109"
           inkscape:connector-curvature="0"
           style="fill:none" /><path
           class="noFillSVG"
           d="m 474.8,720.6 c -0.4,-11.2 1.4,-22.6 5.2,-33.2 1.2,-3.5 2.7,-7.1 4.4,-10.6 -5.2,5.3 -11,10 -17.3,13.8 -8.4,5 -23,8.3 -28.3,-2.9 -1.9,-4.1 -1.4,-9.3 1.4,-12.9 2.7,-3.3 7.3,-4.8 10.9,-2.2 3.1,2.3 4.4,5.3 8.6,6.1 4.5,0.8 8.9,-1 12.8,-3.1 6.5,-3.5 12.6,-7.8 18.2,-12.6 -27.1,-0.9 -52.6,-8 -75.3,-19.7 10.2,16 8.5,37.1 -5,51.4 1.3,0.9 2.5,1.7 3.8,2.6 14.5,10.2 28.4,21.4 41.1,33.8 0.3,-0.1 0.5,0 0.8,0.2 0.8,0.9 1.5,1.9 2.3,2.8 13.5,13.7 25.5,28.9 35.1,45.8 -2.8,-9.4 -7.5,-18.3 -11.3,-27.4 -4.5,-10.3 -7,-20.8 -7.4,-31.9 z"
           id="path111"
           inkscape:connector-curvature="0"
           style="fill:none" /><path
           class="noFillSVG"
           d="m 440.2,719.4 c 1.7,2.2 2.9,4.8 3.4,7.5 2.1,10.4 -3.6,21.1 -12.8,26.2 -5.6,3.1 -11.7,3.6 -17.6,2.3 2.1,1.3 3.6,3.5 4.1,6.2 0.1,0.5 0.1,1 0.1,1.5 2.6,-4.1 6.5,-7.3 11.8,-8.9 7.1,-2.2 15.5,-0.4 20.9,4.9 5,4.9 7.4,13.8 2.4,19.6 -3.9,4.6 -13.2,6.2 -15.7,-0.8 -1.7,-4.7 3.9,-9.1 7.7,-5.5 0.8,0.8 -0.4,2 -1.2,1.2 -5.1,2.2 -6.1,4.1 -2.8,5.7 0.7,0.9 1.6,1.4 2.7,1.4 1,0.2 2,0.2 2.9,-0.1 2,-0.5 3.8,-1.7 5.1,-3.2 3,-3.4 2.8,-8.3 1.1,-12.2 -3.1,-7 -10.7,-10.6 -18.1,-10.2 -13.6,0.8 -21.8,15.8 -18,28.2 1.9,6.2 6.2,11.7 11.8,15 7.2,4.2 14.5,3.5 21.9,0.2 11.7,-5.2 21.1,-15.3 21.6,-28.6 C 472,756.5 465,745 457,735 c -5.5,-5.6 -11.1,-10.7 -16.8,-15.6 z"
           id="path113"
           inkscape:connector-curvature="0"
           style="fill:none" /><path
           class="noFillSVG"
           d="m 414.5,758.9 c -1.2,-1.9 -3.1,-2.7 -5.2,-2.9 -1,0 -1.9,0.1 -2.9,0.2 -2.3,0.2 -2,1.7 0.9,4.5 0.8,-0.7 2.1,0.5 1.2,1.2 -2.6,2.3 -6.6,1.1 -6.7,-2.7 -0.1,-4.2 4.1,-5.1 7.5,-5 0,0 0,0 0,0 -3.2,-1.2 -6.2,-2.8 -8.9,-4.8 -7.8,-5.8 -12.6,-14 -14.3,-23 -7.5,12.4 -7.7,28.9 3.5,39.3 5.9,5.5 14.1,7.9 21.5,3.7 3.8,-2.2 6.2,-6.3 3.4,-10.5 z"
           id="path115"
           inkscape:connector-curvature="0"
           style="fill:none" /><path
           class="noFillSVG"
           d="m 385.3,716.5 c 0.3,-7.3 1.8,-14.7 0.9,-22.1 -0.9,-7.8 -5.1,-14.6 -11.6,-19 -11.5,-7.8 -28.5,-7 -38,3.7 -10.5,11.7 -5.4,33.4 12.1,33.5 7,0.1 12.9,-5.2 14.4,-11.9 0.8,-3.8 0.1,-8 -2.5,-11.1 -1.8,-2 -4,-3.2 -6.7,-3.2 -3.6,0.1 -6.8,2.9 -6.1,6.9 0.2,1.1 -1.5,1.6 -1.7,0.5 -0.8,-4.4 2.3,-8.7 6.8,-9.2 4.8,-0.6 9.2,3.1 11,7.3 1.6,3.6 1.5,7.4 0.3,11 3.6,-3.9 9.5,-6 13.2,-0.5 3.1,4.7 -2.1,11.2 -6.7,6.8 -0.8,-0.8 0.4,-2 1.2,-1.2 4.6,-3.6 4.7,-5.9 0.4,-7 -2.4,-0.5 -4.4,0.1 -6.2,1.8 -1.2,1.1 -2.1,2.8 -2.8,4.2 -1.8,3.8 -2.1,7.8 0,11.5 2.2,3.7 6,5.8 10.2,6.3 3,0.4 10.1,0.2 11.5,-3.3 0,-0.1 0.1,-0.1 0.1,-0.2 0.2,-1.5 0.1,-3.1 0.2,-4.8 z"
           id="path117"
           inkscape:connector-curvature="0"
           style="fill:none" /><path
           class="noFillSVG"
           d="m 236.3,468.1 c 6.7,-4.5 11.9,-14.6 7.6,-22.3 -1.9,-3.5 -5.8,-5.5 -9.7,-5.5 -1.8,0 -3.7,0.4 -5.2,1.4 -4.4,3 -1.5,11.9 3.6,7.9 0.9,-0.7 2.1,0.5 1.2,1.2 -4.7,3.7 -10.9,-1 -8.9,-6.6 2.1,-5.9 9.7,-6.7 14.7,-4.5 14.2,6.2 6.1,25.9 -4.5,31.2 -1.7,0.8 -3.4,1.4 -5.1,1.7 5.6,1.9 10.6,5.2 15.2,8.8 0.2,0.2 0.4,0.3 0.6,0.5 5.8,-3.6 11.6,-7 17.4,-10.6 7.7,-4.8 14,-11.7 21.8,-16.2 2.3,-1.3 4.9,-2.3 7.7,-2.8 -4.1,-0.8 -8,-2.1 -11.3,-3.8 -18.7,-9.9 -26.2,-31.4 -23.3,-51.6 0.7,-4.9 1.8,-9.4 3.4,-13.8 -25.2,11.5 -58.3,28.6 -57.2,60.9 0.5,14.8 15.6,35.1 32,24.1 z"
           id="path119"
           inkscape:connector-curvature="0"
           style="fill:none" /><path
           class="noFillSVG"
           d="m 262.3,380.9 c 0.3,-0.7 0.5,-1.4 0.8,-2.1 -0.7,1 -1.6,1.9 -2.6,2.8 0.5,-0.2 0.9,-0.4 1.4,-0.6 0.2,-0.1 0.3,-0.1 0.4,-0.1 z"
           id="path121"
           inkscape:connector-curvature="0"
           style="fill:none" /><path
           class="noFillSVG"
           d="m 260.8,588.8 c 0.7,0.3 1.3,0.7 2,1 -4.3,-10.3 -6.3,-21.4 -4.8,-32.8 2.5,-18.5 15.2,-34.6 33.6,-39 -6.3,-1.4 -12.2,-4.6 -17.2,-8.6 -7.2,-5.7 -13.5,-12.5 -20.5,-18.4 -2.6,-2.3 -5.3,-4.7 -8.1,-6.9 -2,1.2 -3.9,2.5 -5.8,3.8 -3.1,2.1 -6.3,3.7 -9.6,4.6 2.7,0.5 5.4,1.8 8,3.9 9.5,7.9 14.1,30.6 -2.9,32.5 -5.1,0.6 -10.8,-2.5 -11,-8.1 -0.2,-5.1 5.3,-8.3 9.3,-4.9 0.9,0.7 -0.4,1.9 -1.2,1.2 -5.1,-4.3 -6.7,3.2 -5.9,5.6 0.3,1 0.9,1.9 1.7,2.5 1.4,1.3 3.4,1.9 5.3,2 3.7,0.1 7.5,-1.7 9.5,-4.8 4.5,-6.8 1.6,-16.4 -3.3,-22.1 -10.6,-12.4 -26.2,-4.4 -32.1,8.1 -5.1,10.9 -4.2,23.6 0.1,34.6 7.7,19.7 25.7,31.8 43.9,41.4 3.2,0.4 6.3,1.9 9,4.4 z"
           id="path123"
           inkscape:connector-curvature="0"
           style="fill:none" /><path
           class="noFillSVG"
           d="m 305.7,636.8 c 0.5,0.1 1,0.2 1.5,0.3 -9.8,-6.2 -19.1,-13.1 -27.2,-21.6 -6,-6.3 -11.2,-13.5 -15.1,-21.2 3,6.8 0.2,14.8 -7.3,18.5 -7.2,3.6 -17.4,-3.1 -12.5,-11.2 4.2,-7 14.6,-0.9 11,6.1 -0.5,1 -2,0.1 -1.5,-0.9 2.3,-4.5 -3.7,-8.6 -7.2,-5.2 -1.6,1.5 -2.4,4 -1.6,6.2 2.1,6.1 9.7,5 13.6,1.7 6.6,-5.6 6.2,-13.8 0.3,-19.2 -3,-1.5 -6.1,-3 -9.2,-4.6 -12.3,-2.1 -23.5,11.1 -24.7,23.4 -1.3,13.1 7.1,25 18.2,31.1 13.1,7.2 28.9,6 42.4,0.9 6.4,-2.5 12.5,-5.3 19.3,-4.3 z"
           id="path125"
           inkscape:connector-curvature="0"
           style="fill:none" /><path
           class="noFillSVG"
           d="m 239,486.2 c 1.7,-1.2 3.5,-2.3 5.3,-3.4 -4.7,-3.7 -9.7,-6.9 -15.3,-8.7 -5.2,-1.6 -11.9,-2.4 -16.8,0.6 -5.8,3.4 -3.1,8.5 1.1,11.7 3.6,2.7 8,4.9 12.6,4.9 4.9,0 9.1,-2.4 13.1,-5.1 z"
           id="path127"
           inkscape:connector-curvature="0"
           style="fill:none" /><path
           class="noFillSVG"
           d="m 513.4,722.6 c 0.3,-10.7 -1.3,-21.5 -4.7,-31.6 -2,-6.1 -4.7,-12.6 -8.3,-18.4 -2.1,-2.5 -4.1,-5.1 -6,-7.8 -1.7,2.4 -3.5,4.6 -5.4,6.9 -3.8,6.1 -6.5,13.1 -8.5,19.6 -3.2,10.4 -4.5,21.4 -3.8,32.2 0.8,11.8 4.2,22.4 9,33.1 4.2,9.5 8.9,18.9 10.9,29.1 2.2,-10.6 6.4,-20.6 10,-30.8 3.8,-10.5 6.5,-21.1 6.8,-32.3 z"
           id="path129"
           inkscape:connector-curvature="0"
           style="fill:none" /><path
           class="noFillSVG"
           d="m 730.1,591.4 c 0.5,-0.6 1,-1.3 1.6,-1.8 -0.3,0.2 -0.7,0.3 -1,0.5 -0.2,0.4 -0.4,0.9 -0.6,1.3 z"
           id="path131"
           inkscape:connector-curvature="0"
           style="fill:none" /><path
           class="noFillSVG"
           d="m 731.3,592.7 c -4.8,6.7 -1.7,16.2 6.2,18.9 4.5,1.5 10.8,-1 10.1,-6.6 -0.3,-2.5 -1.8,-4.2 -4.2,-4.6 -3.3,-0.6 -6.3,3.1 -4.7,6.4 0.5,1 -1,1.9 -1.5,0.9 -1.8,-3.5 0.1,-8.1 4.1,-9.2 4,-1.1 7.5,2.4 8,6.2 0.7,4.5 -2.7,8.2 -7,9 -5,1 -9.5,-2.1 -12.4,-5.9 -2.7,-3.6 -3.3,-7.5 -2.4,-11.1 -9,16.9 -24.4,29.7 -41.5,40.5 10.7,-1.8 20.1,4.5 30.9,6.8 14.1,2.9 29.5,0.4 40.1,-9.7 9.6,-9.1 13.3,-22.9 7.5,-35.1 -5.9,-12.7 -23.7,-19.8 -33.2,-6.5 z"
           id="path133"
           inkscape:connector-curvature="0"
           style="fill:none" /><path
           class="noFillSVG"
           d="m 715.9,645.4 c -5.8,-1.4 -11.2,-3.7 -16.9,-5.6 -7.5,-2.5 -15.2,-1 -21.9,2.7 -0.4,0.2 -0.7,0.4 -1.1,0.6 -6.8,4.1 -12.5,10.4 -15.9,17.2 -3.7,7.3 -3.9,16.2 2.4,22.2 5.4,5.1 13.8,6.5 20.2,2.2 6.2,-4.2 8.4,-12.8 5.4,-19.7 -2.1,-4.9 -8.4,-8.3 -13,-4.2 -3.5,3 -2.5,9.2 1.8,10.9 1,0.4 0.6,2.1 -0.5,1.7 -8.5,-3.3 -5.5,-15.9 3.4,-16.1 4,-0.1 6.9,1.8 8.7,4.6 0.2,-2 0.9,-4 2.2,-5.7 2.1,-2.8 6.3,-4.7 9.7,-3.1 2.6,1.2 3.7,3.9 2.1,6.4 -0.6,0.9 -2.1,0.1 -1.5,-0.9 -1.1,-4.2 -3.3,-5.4 -6.5,-3.5 -0.6,0.5 -1.2,0.9 -1.8,1.4 -1.6,1.6 -2.4,4.1 -2.5,6.3 -0.2,3.1 1,6.4 3.1,8.7 4.4,5.1 11.9,5.4 17.7,2.5 11,-5.4 13.1,-19.7 4.9,-28.6 0.1,0 0.1,0 0,0 z"
           id="path135"
           inkscape:connector-curvature="0"
           style="fill:none" /><path
           class="noFillSVG"
           d="m 580.8,328.2 c 1.1,0.6 2.1,1.2 3.2,1.8 6.5,-16.9 6.3,-35.6 -0.5,-52.3 -12.9,14.3 -13.8,35.2 -2.7,50.5 z"
           id="path137"
           inkscape:connector-curvature="0"
           style="fill:none" /><path
           class="noFillSVG"
           d="m 648.6,673.2 c -12.9,-6.3 -30.1,-2 -37.8,10.3 -7.3,11.6 -2.3,25.2 -2.8,38 0,0 0.1,0.1 0.1,0.1 1.6,3.8 9.5,3.8 12.8,3.2 3.7,-0.8 7,-2.9 8.9,-6.2 2.3,-3.9 1.8,-8.1 -0.3,-12.1 -1,-1.9 -2.1,-3.5 -4,-4.5 -1.3,-1.1 -2.9,-1.4 -4.7,-0.9 -4.3,1.1 -4.2,3.4 0.4,7 0.8,-0.8 2,0.4 1.2,1.2 -4.5,4.4 -9.8,-2.1 -6.7,-6.8 3.7,-5.5 9.6,-3.4 13.3,0.5 -1.5,-4.5 -1.3,-9.5 1.6,-13.5 2.6,-3.6 7.5,-6.1 11.9,-4.2 3.5,1.5 5.2,5 4.6,8.6 -0.2,1.1 -1.9,0.6 -1.7,-0.5 0.9,-5.3 -4.5,-8 -8.8,-6.5 -2.6,0.9 -4.6,3.1 -5.7,5.6 -1.6,3.4 -1.3,7.3 0,10.7 3.1,7.7 11.3,11.2 19.1,8.5 8.2,-2.7 12.9,-10.7 12.3,-19.1 -0.6,-8.6 -6.1,-15.7 -13.7,-19.4 z"
           id="path139"
           inkscape:connector-curvature="0"
           style="fill:none" /><path
           class="noFillSVG"
           d="m 486.2,815.6 c 0,0.1 -0.1,0.2 -0.1,0.3 -3.3,11 -5.7,22.8 -4.3,34.2 0.7,5.6 2.3,11 5.5,15.7 1.6,2.4 3.6,4.5 5.8,6.3 1.1,0.9 2,1.5 2.9,1.5 0.8,0.1 1.6,-0.2 2.6,-1 1.9,-1.4 3.4,-3.2 4.9,-5 2,-2.4 3.7,-5.1 4.9,-8.1 2.5,-5.7 3.4,-12.1 3.3,-18.3 -0.2,-11.5 -3.3,-22.9 -7.2,-33.6 -2.3,-6.2 -4.9,-12.3 -7.8,-18.2 -4.2,8.5 -7.8,17.2 -10.5,26.2 z"
           id="path141"
           inkscape:connector-curvature="0"
           style="fill:none" /><path
           class="noFillSVG"
           d="m 537.3,731.2 c 0.2,-0.3 0.5,-0.3 0.8,-0.2 13.2,-13 27.7,-24.6 43,-35.1 -13.1,-14.2 -15,-34.9 -5.6,-51 -23.4,11.5 -49.6,18.1 -77.3,18.2 5.6,4.9 11.6,9.2 18.1,12.9 3.8,2.1 7.9,4.2 12.4,4.2 5,-0.1 7.1,-2.9 10.5,-5.9 3.4,-3 8,-2.3 11.1,0.8 3.6,3.6 4.3,9.5 2.3,14 -5.4,11.8 -20.7,8.2 -29.3,2.9 -6.5,-3.9 -12.4,-8.8 -17.7,-14.2 1.6,3.3 3,6.7 4.2,10 3.7,10.2 5.7,21.1 5.7,31.9 0,11.2 -2.1,22.1 -5.8,32.7 -3.2,9.2 -7,18.2 -9.6,27.6 1.7,-3 3.5,-6.1 5.4,-9 8.6,-13.5 18.7,-25.7 29.8,-37 0.4,-0.9 1.2,-1.9 2,-2.8 z"
           id="path143"
           inkscape:connector-curvature="0"
           style="fill:none" /><path
           class="noFillSVG"
           d="m 262,377.5 c 4.8,-6.7 1.7,-16.2 -6.2,-18.9 -4.5,-1.5 -10.8,1 -10.1,6.6 0.3,2.5 1.8,4.2 4.2,4.6 3.3,0.6 6.3,-3.1 4.7,-6.4 -0.5,-1 1,-1.9 1.5,-0.9 1.8,3.5 -0.1,8.1 -4.1,9.2 -4,1.1 -7.5,-2.4 -8,-6.2 -0.7,-4.5 2.7,-8.2 7,-9 5,-1 9.5,2.1 12.4,5.9 2.7,3.6 3.3,7.5 2.4,11.1 9,-16.9 24.4,-29.7 41.5,-40.5 -10.7,1.8 -20.1,-4.5 -30.9,-6.8 -14.1,-2.9 -29.5,-0.4 -40.1,9.7 -9.6,9.1 -13.3,22.9 -7.5,35.1 5.9,12.7 23.7,19.8 33.2,6.5 z"
           id="path145"
           inkscape:connector-curvature="0"
           style="fill:none" /><path
           class="noFillSVG"
           d="m 580.5,755.2 c -8.4,2.2 -17.3,0.5 -24.5,-7.2 -6.9,-7.5 -9.2,-19.4 -3.4,-28.2 -5.6,4.8 -11,9.9 -16.3,15.2 -9.2,11.6 -17.3,25.9 -13.4,41.1 3.1,12 14.8,21.1 26.5,24.2 14.2,3.8 27.9,-8.7 28.8,-22.6 0.9,-13.2 -10.8,-25.1 -24.1,-22.5 -6.8,1.3 -12.9,6.3 -14,13.4 -0.6,4.1 0.7,8.4 4.4,10.7 1.4,0.9 3.1,1.5 4.8,1.4 1.7,0 2.3,-0.5 3.6,-1.6 2.5,-1 2.3,-2.2 -0.5,-3.5 -0.7,-0.7 -1.5,-1.5 -2.2,-2.2 -0.8,0.8 -2,-0.4 -1.2,-1.2 4.8,-4.7 10.6,2.9 6.3,7.7 -5.5,6.1 -14.9,0.7 -16.6,-6 -2,-7.6 3.1,-15.3 9.8,-18.6 6.8,-3.4 15.3,-2.9 21.6,1.5 3.2,2.2 5.5,5 7.1,8 -0.3,-0.9 -0.4,-2 -0.3,-3 0,-2.4 1.4,-5 3.6,-6.6 z"
           id="path147"
           inkscape:connector-curvature="0"
           style="fill:none" /><path
           class="noFillSVG"
           d="m 585,753.7 c 3.2,0.1 6.8,2.2 6.5,5.8 -0.3,3.6 -4.2,4.6 -6.7,2.4 -0.8,-0.7 0.4,-2 1.2,-1.2 2.1,-3.7 1.6,-5.5 -1.4,-5.3 -1.7,0.2 -3.1,0.9 -4.2,2.1 -1.6,1.7 -2.6,4.3 -2,6.6 0.9,3.5 5,6 8.2,6.9 7,2.1 14.3,-2.1 18.9,-7.2 9.4,-10.6 8.8,-25.6 1.9,-37.2 -2.2,11.7 -11.5,22.5 -22.4,27.1 z"
           id="path149"
           inkscape:connector-curvature="0"
           style="fill:none" /><path
           class="noFillSVG"
           d="m 764.9,493.6 c -7,0 -12.8,5.3 -15.8,11.2 -3,6.2 -4.1,15.6 2.4,20.1 2.6,1.8 6.1,2.7 9.2,1.8 1.7,-0.5 3.4,-1.7 4.3,-3.2 1,-1.6 0.7,-2.3 0.3,-4.2 0.2,-2.3 -0.8,-3.1 -3.1,-2.3 -0.9,0 -1.7,-0.1 -2.6,-0.1 -0.8,0.7 -2.1,-0.5 -1.2,-1.2 5.2,-4.4 10.9,1.9 8.8,7.5 -2.3,5.9 -9.6,6.8 -14.7,4.4 -14.6,-7 -5.7,-29 5.8,-34.2 1.4,-0.6 2.7,-1 4.1,-1.3 -5.1,-1.6 -9.6,-5.2 -14.2,-8.2 -0.1,0.1 -0.2,0.1 -0.3,0.1 -4.6,3.7 -9,7.7 -13.2,11.5 -6.4,5.7 -12.2,12.2 -19.4,16.9 -4.6,3 -9.5,4.8 -14.5,5.5 4.1,0.8 8,2.1 11.2,3.8 18.7,9.9 26.2,31.4 23.3,51.6 -0.7,5.1 -2,9.8 -3.6,14.3 11.7,-5.7 23.6,-11.5 33.7,-19.8 17.6,-14.4 31,-42.1 16.9,-63.5 -3.9,-5.6 -10.2,-10.7 -17.4,-10.7 z"
           id="path151"
           inkscape:connector-curvature="0"
           style="fill:none" /><path
           class="noFillSVG"
           d="m 644.6,586.4 c 15.9,20.5 43,30.9 68.6,26.2 -12.5,-25.7 -42.7,-31.6 -68.6,-26.2 z"
           id="path153"
           inkscape:connector-curvature="0"
           style="fill:none" /><path
           class="noFillSVG"
           d="m 732.3,495.2 c 4,-3.6 8.6,-8.1 13.7,-12.2 -17.6,-11.4 -48.4,-22 -65.3,-4.5 -4.5,4.7 -7.3,11.2 -3.9,17.4 2.8,5 8.3,8.2 13.8,9.3 6.6,1.3 14.2,-0.3 17.2,-6.9 1.4,-3.2 1.3,-6.9 -1.2,-9.5 -3,-3 -12,-4.2 -11,3.2 0.1,1.1 -1.5,1.6 -1.7,0.5 -1.5,-11.2 16,-9.1 16.6,1.2 0.8,12.4 -14.2,15.7 -23.5,12.4 -5.6,-2 -10.4,-6.2 -12.4,-11.3 -0.3,4.7 -0.7,9.4 -1.3,14 9.4,7.2 21.7,10.4 33.1,6.2 10.5,-4 17.9,-12.6 25.9,-19.8 z"
           id="path155"
           inkscape:connector-curvature="0"
           style="fill:none" /><path
           class="noFillSVG"
           d="m 711.8,614.5 c -25.3,4 -51.6,-6.1 -67.7,-26 11.3,20.1 10.8,43.8 6.9,66.1 19.1,-10.1 38.8,-19.8 55,-34.4 2,-1.8 3.9,-3.7 5.8,-5.7 z"
           id="path157"
           inkscape:connector-curvature="0"
           style="fill:none" /><path
           class="noFillSVG"
           d="m 277.3,324.8 c 5.8,1.4 11.2,3.7 16.9,5.6 7.5,2.5 15.2,1 21.9,-2.7 0.4,-0.2 0.7,-0.4 1.1,-0.6 6.8,-4.1 12.5,-10.4 15.9,-17.2 3.7,-7.3 3.9,-16.2 -2.4,-22.2 -5.4,-5.1 -13.8,-6.5 -20.2,-2.2 -6.2,4.2 -8.5,12.8 -5.4,19.7 2.1,4.9 8.4,8.3 13,4.2 3.5,-3 2.5,-9.2 -1.8,-10.9 -1,-0.4 -0.6,-2.1 0.5,-1.7 8.5,3.3 5.5,15.9 -3.4,16.1 -4,0.1 -6.9,-1.8 -8.7,-4.6 -0.2,2 -0.9,4 -2.2,5.7 -2.1,2.8 -6.3,4.7 -9.7,3.1 -2.6,-1.2 -3.7,-3.9 -2.1,-6.4 0.6,-0.9 2.1,-0.1 1.5,0.9 1.1,4.2 3.3,5.4 6.5,3.5 0.6,-0.5 1.2,-0.9 1.8,-1.4 1.6,-1.6 2.4,-4.1 2.5,-6.3 0.2,-3.1 -1,-6.4 -3.1,-8.7 -4.4,-5.1 -11.9,-5.4 -17.7,-2.5 -10.9,5.4 -13,19.7 -4.9,28.6 0,0 0,0 0,0 z"
           id="path159"
           inkscape:connector-curvature="0"
           style="fill:none" /><path
           class="noFillSVG"
           d="m 687.6,333.4 c -0.5,-0.1 -1,-0.2 -1.5,-0.3 9.8,6.2 19.1,13.1 27.2,21.6 6,6.3 11.2,13.5 15.1,21.2 -3,-6.8 -0.2,-14.8 7.3,-18.5 7.2,-3.6 17.4,3.1 12.5,11.2 -4.2,7 -14.6,0.9 -11,-6.1 0.5,-1 2,-0.1 1.5,0.9 -2.3,4.5 3.7,8.6 7.2,5.2 1.6,-1.5 2.4,-4 1.6,-6.2 -2.1,-6.1 -9.7,-5 -13.6,-1.7 -7.2,6.2 -6,15.4 1.5,20.8 14.8,10.5 30.5,-5.6 32,-20.3 1.3,-13.1 -7.1,-25 -18.2,-31.1 -13.1,-7.2 -28.9,-6 -42.4,-0.9 -6.3,2.5 -12.4,5.2 -19.2,4.2 z"
           id="path161"
           inkscape:connector-curvature="0"
           style="fill:none" /><path
           class="noFillSVG"
           d="m 586.5,638.8 c -0.6,0.3 -1.1,0.6 -1.7,1 5.6,17.4 23.2,25 39.8,28.6 -5.1,-17.1 -20.3,-28.9 -38.1,-29.6 z"
           id="path163"
           inkscape:connector-curvature="0"
           style="fill:none" /><path
           class="noFillSVG"
           d="m 647.8,656.3 c -17.3,-13.2 -23.1,-35.7 -16.2,-55 -12.2,14.1 -26.6,26.3 -42.6,36 17.4,1.7 32.1,13.6 37.2,30.7 7.2,-4 14.4,-7.9 21.6,-11.7 z"
           id="path165"
           inkscape:connector-curvature="0"
           style="fill:none" /><path
           class="noFillSVG"
           d="m 581.9,694.2 c 7,-17 7.2,-36 0.8,-53.2 -1.4,0.8 -2.8,1.5 -4.3,2.3 -10.6,15.6 -9.4,36.5 3.5,50.9 z"
           id="path167"
           inkscape:connector-curvature="0"
           style="fill:none" /><path
           class="noFillSVG"
           d="m 649.2,655.1 c 4.1,-22.6 4.7,-46.6 -7.3,-66.9 -2,2.9 -4.2,5.6 -6.4,8.4 -9.9,19.7 -4.9,44.6 13.7,58.5 z"
           id="path169"
           inkscape:connector-curvature="0"
           style="fill:none" /><path
           class="noFillSVG"
           d="m 658,295.5 c -2.1,9 3.2,17.6 9.2,23.9 5.2,5.4 11.8,10.6 19.3,12.1 8.4,1.7 15.7,-2.6 23.3,-5.1 2,-0.7 4.1,-1.2 6.2,-1.7 8.5,-9.4 5.5,-24.6 -6.6,-29.3 -6.8,-2.6 -14.8,-0.9 -17.2,6.6 -0.7,2.1 -0.8,4.3 -0.8,6.5 0,1.8 -0.1,3.5 1.3,5.1 0.9,1.1 2.1,1.7 3.4,1.8 2.5,1.2 4.1,-0.2 4.9,-3.9 -0.6,-0.9 0.9,-1.8 1.5,-0.9 1.6,2.5 0.5,5.2 -2.1,6.4 -3.3,1.5 -7.9,-0.1 -9.8,-3.2 -1,-1.7 -1.2,-3.9 -1.1,-6.2 -2.8,4.1 -7.4,6.6 -12.9,4.5 -6.9,-2.7 -7.2,-12.6 -0.2,-15.4 1,-0.4 1.5,1.3 0.5,1.7 -6.4,2.5 -4.1,11.1 1.7,12.4 5.6,1.2 10.2,-3.1 11.5,-8.2 2.2,-8.5 -4.2,-17.3 -12.3,-19.4 -8.4,-2.1 -17.9,3.8 -19.8,12.3 z"
           id="path171"
           inkscape:connector-curvature="0"
           style="fill:none" /><path
           class="noFillSVG"
           d="m 586.7,647.9 c 3.9,15.2 3,31.3 -2.8,46 2.9,-2 5.8,-3.9 8.7,-5.8 9.9,-6.4 20.1,-12.4 30.4,-18.2 -14.2,-3.4 -28.7,-9.6 -36.3,-22 z"
           id="path173"
           inkscape:connector-curvature="0"
           style="fill:none" /><path
           class="noFillSVG"
           d="m 728.8,376.8 c 0.6,1.2 1.1,2.4 1.6,3.6 0.2,0 0.3,0 0.5,0.1 0.2,0.1 0.5,0.2 0.7,0.3 -0.1,-0.1 -0.1,-0.1 -0.2,-0.2 -1,-1.3 -1.9,-2.5 -2.6,-3.8 z"
           id="path175"
           inkscape:connector-curvature="0"
           style="fill:none" /><path
           class="noFillSVG"
           d="m 479.9,247.6 c -0.3,10.7 1.3,21.5 4.7,31.6 2,6.1 4.7,12.6 8.3,18.4 2.1,2.5 4.1,5.1 6,7.8 1.7,-2.4 3.5,-4.6 5.4,-6.9 3.8,-6.1 6.5,-13.1 8.5,-19.6 3.2,-10.4 4.5,-21.4 3.8,-32.2 -0.8,-11.8 -4.2,-22.4 -9,-33.1 -4.2,-9.5 -8.9,-18.9 -10.9,-29.1 -2.2,10.6 -6.4,20.6 -10,30.8 -3.9,10.5 -6.5,21.2 -6.8,32.3 z"
           id="path177"
           inkscape:connector-curvature="0"
           style="fill:none" /><path
           class="noFillSVG"
           d="m 408.3,216.5 c -3.2,-0.1 -6.8,-2.2 -6.5,-5.8 0.3,-3.6 4.2,-4.6 6.7,-2.4 0.8,0.7 -0.4,2 -1.2,1.2 -2.1,3.7 -1.6,5.5 1.4,5.3 1.7,-0.2 3.1,-0.9 4.2,-2.1 1.6,-1.7 2.6,-4.3 2,-6.6 -0.9,-3.5 -5,-6 -8.2,-6.9 -7,-2.1 -14.3,2.1 -18.9,7.2 -9.4,10.6 -8.8,25.6 -1.9,37.2 2.1,-11.7 11.5,-22.5 22.4,-27.1 z"
           id="path179"
           inkscape:connector-curvature="0"
           style="fill:none" /><path
           class="noFillSVG"
           d="m 456,239 c -0.2,0.3 -0.5,0.3 -0.8,0.2 -13.2,13 -27.7,24.6 -43,35.1 13.3,14.4 15.1,35.3 5.3,51.5 23.4,-11.7 49.8,-18.4 77.7,-18.7 -5.6,-4.9 -11.6,-9.3 -18.1,-12.9 -3.8,-2.1 -7.9,-4.2 -12.4,-4.2 -5,0.1 -7.1,2.9 -10.5,5.9 -3.4,3 -8,2.3 -11.1,-0.8 -3.6,-3.6 -4.3,-9.5 -2.3,-14 5.4,-11.8 20.7,-8.2 29.3,-2.9 6.5,3.9 12.4,8.8 17.7,14.2 -1.6,-3.3 -3,-6.7 -4.2,-10 -3.7,-10.2 -5.7,-21.1 -5.7,-31.9 0,-11.2 2.1,-22.1 5.8,-32.7 3.2,-9.2 7,-18.2 9.6,-27.6 -1.7,3 -3.5,6.1 -5.4,9 -8.6,13.5 -18.7,25.7 -29.8,37 -0.5,1 -1.3,1.9 -2.1,2.8 z"
           id="path181"
           inkscape:connector-curvature="0"
           style="fill:none" /><path
           class="noFillSVG"
           d="m 412.8,215 c 8.4,-2.2 17.3,-0.5 24.5,7.2 6.9,7.5 9.2,19.4 3.4,28.2 5.6,-4.8 11,-9.9 16.3,-15.2 9.2,-11.6 17.3,-25.9 13.4,-41.1 -3.1,-12 -14.8,-21.1 -26.5,-24.2 -14.1,-3.8 -27.9,8.7 -28.8,22.6 -0.9,13.2 10.8,25.1 24.1,22.5 6.8,-1.3 12.9,-6.3 14,-13.4 0.6,-4.1 -0.7,-8.4 -4.4,-10.7 -1.4,-0.9 -3.1,-1.5 -4.8,-1.4 -1.7,0 -2.3,0.5 -3.6,1.6 -2.5,1 -2.3,2.2 0.5,3.5 0.7,0.7 1.5,1.5 2.2,2.2 0.8,-0.8 2,0.4 1.2,1.2 -4.8,4.7 -10.6,-2.9 -6.3,-7.7 5.5,-6.1 14.9,-0.7 16.6,6 2,7.6 -3.1,15.3 -9.8,18.6 -6.8,3.4 -15.3,2.9 -21.6,-1.5 -3.2,-2.2 -5.5,-5 -7.1,-8 0.3,0.9 0.4,2 0.3,3 0,2.4 -1.5,5 -3.6,6.6 z"
           id="path183"
           inkscape:connector-curvature="0"
           style="fill:none" /><path
           class="noFillSVG"
           d="m 608,253.7 c -0.3,7.3 -1.8,14.7 -0.9,22.1 0.9,7.8 5.1,14.6 11.6,19 11.5,7.8 28.4,7 38,-3.7 10.5,-11.7 5.4,-33.4 -12.1,-33.5 -7,-0.1 -12.9,5.2 -14.4,11.9 -0.8,3.8 -0.1,8 2.5,11.1 1.8,2 4,3.2 6.7,3.2 3.6,-0.1 6.8,-2.9 6.1,-6.9 -0.2,-1.1 1.5,-1.6 1.7,-0.5 0.8,4.4 -2.3,8.7 -6.8,9.2 -4.8,0.6 -9.2,-3.1 -11,-7.3 -1.6,-3.6 -1.5,-7.4 -0.3,-11 -3.6,3.9 -9.5,6 -13.2,0.5 -3.1,-4.7 2.1,-11.2 6.7,-6.8 0.8,0.8 -0.4,2 -1.2,1.2 -4.6,3.6 -4.7,5.9 -0.4,7 2.4,0.5 4.4,-0.1 6.2,-1.8 1.2,-1.1 2.1,-2.8 2.8,-4.2 1.8,-3.8 2.1,-7.8 0,-11.5 -2.2,-3.7 -6,-5.8 -10.2,-6.3 -3,-0.4 -10.1,-0.2 -11.5,3.3 0,0.1 -0.1,0.1 -0.1,0.2 -0.2,1.5 -0.1,3.1 -0.2,4.8 z"
           id="path185"
           inkscape:connector-curvature="0"
           style="fill:none" /><path
           class="noFillSVG"
           d="m 507.1,154.6 c 0,-0.1 0.1,-0.2 0.1,-0.3 3.4,-11.2 5.9,-23.4 4.2,-35.2 -0.8,-5.7 -2.7,-11.3 -6.2,-15.9 -2.3,-3.1 -4.8,-6.1 -7.9,-6 -1.2,0 -2.5,0.5 -4,1.8 -18.4,15.5 -11.6,44.1 -4.6,63.5 2.3,6.2 4.9,12.3 7.8,18.2 4.3,-8.4 7.9,-17.1 10.6,-26.1 z"
           id="path187"
           inkscape:connector-curvature="0"
           style="fill:none" /><path
           class="noFillSVG"
           d="m 607.6,246.2 c 0,0 0,0.1 0,0 0.1,0 0.1,0 0,0 0.1,0 0.1,0 0,0 z"
           id="path189"
           inkscape:connector-curvature="0"
           style="fill:none" /><path
           class="noFillSVG"
           d="m 578.8,211.3 c 1.2,1.9 3.1,2.7 5.2,2.9 1,0 1.9,-0.1 2.9,-0.2 2.3,-0.2 2,-1.7 -0.9,-4.5 -0.8,0.7 -2.1,-0.5 -1.2,-1.2 2.6,-2.3 6.6,-1.1 6.7,2.7 0.1,4.2 -4.1,5.1 -7.5,5 0,0 0,0 0,0 3.2,1.2 6.2,2.8 8.9,4.8 7.8,5.8 12.6,14 14.3,23 7.5,-12.4 7.7,-28.9 -3.5,-39.3 -5.9,-5.5 -14.1,-7.9 -21.5,-3.7 -3.8,2.3 -6.2,6.3 -3.4,10.5 z"
           id="path191"
           inkscape:connector-curvature="0"
           style="fill:none" /><path
           class="noFillSVG"
           d="m 553.1,250.8 c -1.7,-2.2 -2.9,-4.8 -3.4,-7.5 -2.1,-10.4 3.6,-21.1 12.8,-26.2 5.6,-3.1 11.7,-3.6 17.6,-2.3 -2.1,-1.3 -3.6,-3.5 -4.1,-6.2 -0.1,-0.5 -0.1,-1 -0.1,-1.5 -2.6,4.1 -6.5,7.3 -11.8,8.9 -7.1,2.2 -15.5,0.4 -20.9,-4.9 -5,-4.9 -7.4,-13.8 -2.4,-19.6 3.9,-4.6 13.2,-6.2 15.7,0.8 1.7,4.7 -3.9,9.1 -7.7,5.5 -0.8,-0.8 0.4,-2 1.2,-1.2 5.1,-2.2 6.1,-4.1 2.8,-5.7 -0.7,-0.9 -1.6,-1.4 -2.7,-1.4 -1,-0.2 -2,-0.2 -2.9,0.1 -2,0.5 -3.8,1.7 -5.1,3.2 -3,3.4 -2.8,8.3 -1.1,12.2 3.1,7 10.7,10.6 18.1,10.2 13.6,-0.8 21.8,-15.8 18,-28.2 -1.9,-6.2 -6.2,-11.7 -11.8,-15 -7.2,-4.2 -14.5,-3.5 -21.9,-0.2 -11.7,5.2 -21.1,15.3 -21.6,28.6 -0.5,13.3 6.5,24.8 14.5,34.8 5.5,5.6 11.1,10.7 16.8,15.6 z"
           id="path193"
           inkscape:connector-curvature="0"
           style="fill:none" /><path
           class="noFillSVG"
           d="m 344.6,297 c 12.9,6.3 30.1,2 37.8,-10.3 7.3,-11.6 2.3,-25.2 2.8,-38 0,0 -0.1,-0.1 -0.1,-0.1 -1.6,-3.8 -9.5,-3.8 -12.8,-3.2 -3.7,0.8 -7,2.9 -8.9,6.2 -2.3,3.9 -1.8,8.1 0.3,12.1 1,1.9 2.1,3.5 4,4.5 1.3,1.1 2.9,1.4 4.7,0.9 4.3,-1.1 4.2,-3.4 -0.4,-7 -0.8,0.8 -2,-0.4 -1.2,-1.2 4.5,-4.4 9.8,2.1 6.7,6.8 -3.7,5.5 -9.6,3.4 -13.3,-0.5 1.5,4.5 1.3,9.5 -1.6,13.5 -2.6,3.6 -7.5,6.1 -11.9,4.2 -3.5,-1.5 -5.2,-5 -4.6,-8.6 0.2,-1.1 1.9,-0.6 1.7,0.5 -0.9,5.3 4.5,8 8.8,6.5 2.6,-0.9 4.6,-3.1 5.7,-5.6 1.6,-3.4 1.3,-7.3 0,-10.7 -3.1,-7.7 -11.3,-11.2 -19.1,-8.5 -8.2,2.7 -12.9,10.7 -12.3,19.1 0.6,8.6 6.1,15.8 13.7,19.4 z"
           id="path195"
           inkscape:connector-curvature="0"
           style="fill:none" /><path
           class="noFillSVG"
           d="m 518.5,249.6 c 0.4,11.2 -1.4,22.6 -5.2,33.2 -1.2,3.5 -2.7,7.1 -4.4,10.6 5.2,-5.3 11,-10 17.3,-13.8 8.4,-5 23,-8.3 28.3,2.9 1.9,4.1 1.4,9.3 -1.4,12.9 -2.7,3.3 -7.3,4.8 -10.9,2.2 -3.1,-2.3 -4.4,-5.3 -8.6,-6.1 -4.5,-0.8 -8.9,1 -12.8,3.1 -6.5,3.5 -12.6,7.8 -18.2,12.6 26.9,0.8 52.4,7.7 75,19.2 -9.8,-16 -8,-36.7 5.3,-50.8 -1.3,-0.9 -2.5,-1.7 -3.8,-2.6 -14.5,-10.2 -28.4,-21.4 -41.1,-33.8 -0.3,0.1 -0.5,0 -0.8,-0.2 -0.8,-0.9 -1.5,-1.9 -2.3,-2.8 -13.5,-13.7 -25.5,-28.9 -35.1,-45.8 2.8,9.4 7.5,18.3 11.3,27.4 4.5,10.2 7,20.7 7.4,31.8 z"
           id="path197"
           inkscape:connector-curvature="0"
           style="fill:none" /><path
           d="m 658.2,485.1 c 0,-88.9 -72.3,-161.2 -161.2,-161.2 -88.9,0 -161.2,72.3 -161.2,161.2 0,88.9 72.3,161.2 161.2,161.2 88.9,0 161.2,-72.3 161.2,-161.2 z M 497,644.6 c -87.9,0 -159.5,-71.5 -159.5,-159.5 0,-88 71.6,-159.4 159.5,-159.4 87.9,0 159.5,71.5 159.5,159.5 0,88 -71.6,159.4 -159.5,159.4 z"
           id="path199"
           inkscape:connector-curvature="0" /><path
           d="m 788.9,516.5 c -1.8,-9.4 -8.8,-20.6 -18.2,-23.8 5.7,-0.9 12.4,-4.6 15.3,-9.6 3.1,-5.3 -2,-9.9 -6.9,-11.4 -2.1,-0.6 -4.1,-0.9 -6.2,-0.9 6,-2.7 11.2,-8.1 14,-14.3 6.1,-14 1.6,-30.5 -7.3,-42.3 -9.2,-12.3 -22.4,-20.8 -36.1,-27.8 5.6,0.5 11.3,-1.4 16,-5.4 7.8,-6.8 11.3,-18 9.3,-28.1 -2.2,-11 -10.4,-20.2 -20.3,-25 -9.2,-4.5 -19.6,-5.3 -29.6,-3.6 4.9,-6.7 5.7,-15.9 0.8,-23 -4.9,-7 -15.1,-11.3 -23.2,-7 -1.7,0.9 -3.1,2.3 -4,3.9 0,-0.3 0,-0.6 -0.1,-0.9 -1.1,-9.1 -9.7,-16.6 -18.9,-16.1 -4.3,0.2 -8.2,2 -11.3,4.8 2.4,-5.2 3,-11.2 1.1,-16.8 -3,-8.7 -12.4,-14.7 -21.6,-13 -3.7,0.7 -6.9,2.7 -9.3,5.6 1.9,-6.4 -0.4,-13.1 -6.8,-16.4 -4.2,-2.2 -13.3,-3.1 -17.4,0.7 0,0 0,0 0,0 7.1,-10.7 8.9,-24.6 2.3,-36 -5.6,-9.6 -17.1,-16.3 -27.9,-11.1 -1.5,0.7 -2.9,1.6 -4,2.7 2.4,-8 1,-17.3 -4.4,-24.2 -5.2,-6.6 -13.6,-11.2 -22.2,-9.9 -8.7,1.3 -17.5,6.7 -23.4,13.1 -12.9,14.2 -8.7,31.8 0.2,46.4 -11.8,-13.1 -22.2,-27.6 -30.4,-43.3 0,-0.1 0,-0.1 -0.1,-0.2 -0.2,-0.3 -0.3,-0.7 -0.5,-1 6.8,-13.4 12,-27.6 14.9,-42.4 3.2,-16.2 0.7,-36.6 -14.7,-45.9 0,0 -0.1,0 -0.1,0 -0.1,0 -0.1,0 -0.2,-0.1 -0.1,0 -0.1,0 -0.2,0 -0.1,0 -0.1,0 -0.2,0 -0.1,0 -0.1,0 -0.2,0.1 0,0 -0.1,0 -0.1,0 -13.5,8.1 -18.6,25.3 -17.1,40.3 1.7,16.4 8,32.9 15.6,47.7 -0.1,0.1 -0.1,0.2 -0.1,0.3 -0.1,0.4 -0.2,0.8 -0.3,1.2 -6,11.5 -13.3,22.4 -21.3,32.6 -2.8,3.5 -5.7,6.8 -8.6,10.1 7.5,-12.5 11.7,-27.1 3.6,-40.6 -4.5,-7.5 -12,-12.9 -19.9,-16.2 -8.8,-3.6 -17.4,-2.9 -24.9,3.1 -9.3,7.3 -12.7,20.2 -8.5,30.5 -1.4,-2.1 -3.6,-3.8 -5.9,-4.9 -10.4,-5 -21.8,3.1 -26.8,12.1 -6.3,11.3 -4.4,24.9 2.6,35.4 0,0 0,0 0.1,0.1 -4.1,-3.8 -13.2,-2.9 -17.4,-0.7 -6.3,3.3 -8.7,9.9 -6.8,16.3 -0.8,-0.9 -1.6,-1.7 -2.5,-2.5 -7.6,-5.9 -18.9,-3.2 -24.8,3.8 -5.4,6.4 -5.7,15.5 -2.5,22.9 -1.4,-1.3 -3.1,-2.4 -5,-3.2 -8.3,-3.7 -18.2,-0.3 -22.3,7.9 -1.2,2.4 -1.8,5.4 -1.7,8.4 -1.6,-2.3 -3.8,-4.3 -6.4,-5.3 -8.1,-3.2 -17.6,1 -22.2,8.1 -4.6,7.1 -3.7,16 1.1,22.6 -0.8,-0.1 -1.6,-0.3 -2.4,-0.4 -6.2,-0.8 -12.5,-0.6 -18.6,0.9 -21.6,5.2 -38.1,29.6 -24.8,50.3 4.6,7.2 13,12.4 21.5,11.3 -12.5,6.1 -24.7,13.2 -34.1,23.5 -10.1,11 -16.4,26.8 -12.6,41.7 2,8 8.1,16 15.7,19.5 -5.3,0.4 -12.3,2.6 -12.5,8.6 -0.2,5.7 7.5,10 11.9,11.8 1.4,0.6 2.7,1 4.1,1.2 -7.9,2.2 -14.9,9.8 -17.9,17.9 -5.6,15.2 -1,32.8 8.2,45.6 8.8,12.2 21.3,20.7 34.4,27.8 -4.8,0.2 -9.6,2 -13.5,5.5 -7.8,6.8 -11.3,18 -9.3,28.1 2.2,11 10.4,20.2 20.3,25 9.2,4.5 19.6,5.3 29.6,3.6 -4.9,6.7 -5.7,15.9 -0.8,23 4.9,7 15.1,11.3 23.2,7 1.7,-0.9 3.1,-2.3 4,-3.9 0,0.3 0,0.6 0.1,0.9 1.1,9.1 9.7,16.6 18.9,16.1 4.3,-0.2 8.2,-2 11.3,-4.8 -2.4,5.2 -3,11.2 -1.1,16.8 3,8.7 12.4,14.7 21.6,13 3.7,-0.7 6.9,-2.7 9.3,-5.6 -1.9,6.4 0.4,13.1 6.8,16.4 4.2,2.2 13.3,3.1 17.4,-0.7 0,0 0,0 0,0 -7.1,10.7 -8.9,24.6 -2.3,36 5.6,9.6 17.1,16.3 27.9,11.1 1.5,-0.7 2.9,-1.6 4,-2.7 -2.4,8 -1,17.3 4.4,24.2 5.2,6.6 13.6,11.2 22.2,9.9 8.7,-1.3 17.5,-6.7 23.4,-13.1 12.9,-14.2 8.7,-31.8 -0.2,-46.4 11.8,13.1 22.2,27.6 30.4,43.3 0,0.1 0,0.1 0.1,0.2 0.2,0.3 0.3,0.7 0.5,1 -6.8,13.4 -12,27.6 -14.9,42.4 -3.2,16.2 -0.7,36.6 14.7,45.9 0,0 0.1,0 0.1,0 0.1,0 0.1,0 0.2,0.1 0.1,0 0.1,0 0.2,0 0.1,0 0.1,0 0.2,0 0.1,0 0.1,0 0.2,-0.1 0,0 0.1,0 0.1,0 13.5,-8.1 18.6,-25.3 17.1,-40.3 -1.7,-16.4 -8,-32.9 -15.6,-47.7 0.1,-0.1 0.1,-0.2 0.1,-0.3 0.1,-0.4 0.2,-0.8 0.3,-1.2 6,-11.5 13.3,-22.4 21.3,-32.6 2.8,-3.5 5.7,-6.8 8.6,-10.1 -7.5,12.5 -11.7,27.1 -3.6,40.6 4.5,7.5 12,12.9 19.9,16.2 8.8,3.6 17.4,2.9 24.9,-3.1 9.3,-7.3 12.7,-20.2 8.5,-30.5 1.4,2.1 3.6,3.8 5.9,4.9 10.4,5 21.8,-3.1 26.8,-12.1 6.3,-11.3 4.4,-24.9 -2.6,-35.4 0,0 0,0 -0.1,-0.1 4.1,3.8 13.2,2.9 17.4,0.7 6.3,-3.3 8.7,-9.9 6.8,-16.3 0.8,0.9 1.6,1.7 2.5,2.5 7.6,5.9 18.9,3.2 24.8,-3.8 5.4,-6.4 5.7,-15.5 2.5,-22.9 1.4,1.3 3.1,2.4 5,3.2 8.3,3.7 18.2,0.3 22.3,-7.9 1.2,-2.4 1.8,-5.4 1.7,-8.4 1.6,2.3 3.8,4.3 6.4,5.3 8.1,3.2 17.6,-1 22.2,-8.1 4.6,-7.1 3.7,-16 -1.1,-22.6 0.8,0.1 1.6,0.3 2.4,0.4 6.2,0.8 12.5,0.6 18.6,-0.9 21.6,-5.2 38.1,-29.6 24.8,-50.3 -4.6,-7.1 -12.8,-12.3 -21.1,-11.4 11.9,-6.2 23.4,-13.2 32.3,-23.4 9.9,-12 15.9,-28.5 13,-44.1 z m -4.2,-34.9 c -1.4,3.5 -5.5,5.9 -8.7,7.5 -4.8,2.4 -10.1,2.8 -15.1,0.6 -4.1,-1.8 -7.7,-4.6 -11.4,-7.1 2.4,-1.8 4.9,-3.6 7.5,-5.1 4.7,-2.7 9.9,-4.6 15.3,-4.8 4.5,-0.2 15.2,2 12.4,8.9 z m 3.2,-37.7 c -0.5,14.9 -15.7,35.2 -32,24.2 -6.7,-4.5 -11.9,-14.6 -7.6,-22.3 1.9,-3.5 5.8,-5.5 9.7,-5.5 1.8,0 3.7,0.4 5.2,1.4 4.4,3 1.5,11.9 -3.6,7.9 -0.9,-0.7 -2.1,0.5 -1.2,1.2 3.8,2.9 9.5,0.5 9.3,-4.5 -0.2,-5.6 -6,-8.2 -10.9,-7.7 -6.2,0.6 -11,5.2 -11.7,11.4 -0.8,6.7 2.7,13.6 7.7,17.9 3.2,2.8 6.8,4.2 10.3,4.6 -5.4,1.9 -10.5,5.2 -15.3,9 -3.6,-2.3 -7.3,-4.4 -11,-6.6 -8.2,-4.8 -15.3,-10.4 -22.8,-16.3 -4.1,-3.2 -8.2,-5.3 -12.7,-6.3 18.6,-4.2 31.5,-20.4 34,-39.1 1.5,-10.7 -0.2,-21.2 -4,-30.9 25,11.6 57.7,30 56.6,61.6 z m -73.3,167.6 c -12.8,-26.1 -43.7,-32.3 -70.2,-26.9 8.8,-13 15.9,-27.2 21,-42.2 0.7,8 4.6,16.3 10.3,21.4 7.2,6.4 19.6,8.1 26.1,-0.2 4.8,-6.2 4.1,-15.8 -3.7,-19.1 -7.3,-3 -17.4,2.7 -13.2,11.2 0.5,1 2,0.1 1.5,-0.9 -4.1,-8.4 7.1,-11.2 12.4,-8 5.7,3.4 5.3,10.8 1.7,15.6 -8.2,10.8 -23.2,3.2 -28.7,-6.2 -3.6,-6.2 -5.5,-13.9 -4.2,-20.7 0.3,-1.1 0.6,-2.1 0.9,-3.2 1.2,-3.2 3.3,-6.1 6.5,-8.4 8,-5.8 18.9,-6.5 28.1,-3.8 20.4,6 31.5,25.9 30.9,46.4 -0.4,17.1 -8.3,32.4 -19.4,45 z M 657,677 c -7.9,-8.1 -19.9,-10.1 -30.4,-7.1 0,-0.1 0.1,-0.1 0.1,-0.2 3.4,-1.9 6.8,-3.8 10.2,-5.6 4,-2.2 8.2,-4.4 12.6,-6.6 0.4,0.2 1.1,-0.1 1.2,-0.6 0,0 0,0 0,0 5.4,-2.8 10.9,-5.6 16.4,-8.6 -4.5,4.4 -8.2,9.7 -10.1,15.3 -1.6,4.5 -1.5,9.3 0,13.4 z m -51.7,51.3 c -3.6,14 -17.2,26.8 -32.2,26.1 -16.3,-0.8 -30.2,-22.3 -17.4,-35.8 6.3,-6.6 18.8,-6.3 21.9,3.4 1.4,4.4 -0.1,9.3 -4.5,11.3 -6.8,3.1 -11.1,-7 -4.8,-8.7 1.1,-0.3 0.6,-2 -0.5,-1.7 -7.1,2 -4.7,12.8 2.4,12.8 9.9,0.1 11.7,-12.3 6.6,-18.6 -4.2,-5.3 -11.1,-5.9 -16.9,-3.4 16.8,-13.6 35.1,-25.6 53.9,-36.6 -2.8,2.6 -5.1,5.8 -6.6,9.6 -5.4,13.3 1.6,27.9 -1.9,41.6 z M 322.5,485.1 c 0,-65.3 36.1,-122.3 89.3,-152.2 0.2,0.1 0.5,0 0.7,-0.2 0.1,-0.1 0.2,-0.2 0.3,-0.3 25,-13.8 53.6,-21.7 84.1,-21.7 96.2,0 174.5,78.3 174.5,174.5 0,65.4 -36.2,122.5 -89.6,152.4 -0.3,-0.3 -0.8,-0.4 -1.1,0 -0.3,0.4 -0.6,0.7 -0.9,1.1 C 555.2,652 527,659.6 497,659.6 400.8,659.6 322.5,581.3 322.5,485.1 Z M 523.1,681 c 3.8,1.1 8.2,1.3 11.8,-0.7 2,-1.1 3.1,-2.9 4.8,-4.4 4.7,-4.1 10.2,-0.3 11.6,4.9 2.2,8.2 -4.9,14.2 -12.6,14.5 -6.3,0.2 -12.1,-3 -17.2,-6.3 -7.4,-4.9 -14.1,-10.9 -19.8,-17.7 -1.8,-2.9 -3.8,-5.6 -6.1,-8 0,0 0,0 0,0 7.8,7 17.4,14.7 27.5,17.7 z m -30,-17.7 c -2,2.2 -3.7,4.5 -5.3,7.1 -5.3,6.2 -11.3,11.7 -18.1,16.3 -5.3,3.6 -11.3,7.1 -17.9,6.9 -7.2,-0.2 -14,-5.8 -12.4,-13.5 0.8,-3.7 4.4,-8.3 8.8,-7.1 2.6,0.7 4.1,3.9 6.3,5.4 3.3,2.3 7.6,2.5 11.4,1.6 5.3,-1.3 10.2,-4.5 14.7,-7.4 4.4,-2.9 8.5,-6 12.4,-9.5 0.1,0.1 0.1,0.2 0.1,0.2 z m -67.7,59.6 c -1.1,-0.3 -1.5,1.4 -0.5,1.7 5.4,1.5 3.1,9.4 -1.9,9.4 -4.7,0.1 -8,-4.6 -7.9,-9 0.2,-8.6 9.3,-12.9 16.7,-10.2 7.6,2.8 11.2,11.2 10.4,18.9 -0.7,7.1 -5.2,13.6 -11.2,17.3 -13.4,8.4 -29.9,0.1 -38,-11.8 -4.7,-6.8 -6.4,-14.5 -6,-22.7 0.3,-7.1 1.7,-14.2 1,-21.3 -0.7,-7.8 -4.4,-14.2 -9.7,-18.8 19.1,11.1 37.7,23.3 54.9,37.1 -3.6,-1.7 -7.8,-2 -12,-0.2 -8.5,3.8 -11.3,17.4 -1.6,21.6 3.8,1.6 8.4,0.5 9.8,-3.7 1.1,-3.4 -0.4,-7.3 -4,-8.3 z M 325.2,647.5 c 4.9,2.7 9.9,5.2 14.8,7.8 9.2,4.9 18.5,9.8 27.7,15 -9,-3.1 -19.3,-2.3 -27.7,3.6 -1.3,0.9 -2.4,1.9 -3.5,3 0.6,-1.7 1,-3.5 1.1,-5.4 0.4,-9.2 -5.6,-17.7 -12.4,-24 z m -60.7,-54 c -0.4,-0.8 -1,-1.6 -1.5,-2.4 0.1,-0.1 0.2,-0.3 0.3,-0.4 0.3,0.9 0.7,1.8 1.2,2.8 z m -3,-12.2 c -5.5,-19.8 -1.1,-43.2 16.6,-55.4 8.9,-6.1 20.4,-9.1 31,-6.3 5.6,1.5 11.2,4.5 14.4,9.5 3.7,5.8 3.2,13.1 1.4,19.4 -3.4,11.3 -16.3,25.1 -28.9,16.8 -5.3,-3.5 -8.2,-12.1 -3.2,-17.1 4.9,-5 18.9,-2.8 14.2,6.6 -0.5,1 1,1.9 1.5,0.9 3.4,-7 -3.4,-13.1 -10.2,-12 -7.5,1.1 -11.4,8.4 -9.1,15.5 2.8,8.5 12,11.7 20.2,9.3 8.9,-2.6 14.6,-10.9 17.2,-19.4 0.9,-2.9 1.4,-5.9 1.4,-8.8 5.3,16.2 12.8,31.3 22.2,45.1 -0.3,0.2 -0.5,0.5 -0.5,0.8 -26.2,-5.6 -57.2,0.6 -69.4,27.1 -8.7,-9.3 -15.5,-19.9 -18.8,-32 z m 17.2,-222.6 c 12.9,26.3 44.2,32.4 70.8,26.7 0,0.1 0,0.2 0,0.3 -9.1,13.5 -16.4,28.3 -21.6,44 -0.2,-8.6 -4.2,-17.8 -10.4,-23.3 -7.2,-6.4 -19.6,-8.1 -26.1,0.2 -4.8,6.2 -4.1,15.8 3.7,19.1 7.3,3 17.4,-2.7 13.2,-11.2 -0.5,-1 -2,-0.1 -1.5,0.9 4.1,8.4 -7.1,11.2 -12.4,8 -5.7,-3.4 -5.3,-10.8 -1.7,-15.6 8.2,-10.8 23.2,-3.2 28.7,6.2 6,10.2 7.4,24.7 -3.2,32.3 -8,5.8 -18.9,6.5 -28.1,3.8 -20.4,-6 -31.5,-25.9 -30.9,-46.4 0.5,-17.1 8.4,-32.4 19.5,-45 z m 57.5,-65.5 c 7.9,8.1 19.9,10.1 30.4,7.1 0,0.1 -0.1,0.1 -0.1,0.2 -3.4,1.9 -6.8,3.8 -10.2,5.6 -4,2.2 -8.2,4.4 -12.6,6.6 -0.4,-0.2 -1.1,0.1 -1.2,0.6 0,0 0,0 0,0 -5.4,2.8 -10.9,5.6 -16.4,8.6 4.5,-4.4 8.2,-9.7 10.1,-15.3 1.6,-4.5 1.6,-9.2 0,-13.4 z M 388,241.9 c 3.6,-14 17.2,-26.8 32.2,-26.1 16.3,0.8 30.2,22.3 17.4,35.8 -6.3,6.6 -18.8,6.3 -21.9,-3.4 -1.4,-4.4 0.1,-9.3 4.5,-11.3 6.8,-3.1 11.1,7 4.8,8.7 -1.1,0.3 -0.6,2 0.5,1.7 7.1,-2 4.7,-12.8 -2.4,-12.8 -9.9,-0.1 -11.7,12.3 -6.6,18.6 4.2,5.3 11.1,5.9 16.9,3.4 -16.8,13.6 -35.1,25.6 -53.9,36.6 2.8,-2.6 5.1,-5.8 6.6,-9.6 5.4,-13.3 -1.6,-27.9 1.9,-41.6 z m 12.7,40.2 c 2.9,-1.9 5.8,-3.8 8.7,-5.8 -5.8,14.7 -6.7,30.8 -2.8,46 -7.6,-12.4 -22.1,-18.7 -36.3,-22 10.3,-5.7 20.5,-11.8 30.4,-18.2 z m 10.7,-6.1 c 13.1,14.5 14.2,35.8 3.1,51.5 -1.2,0.7 -2.5,1.3 -3.7,2 -6.6,-17.2 -6.4,-36.3 0.6,-53.5 z m -2.8,54.8 c -0.3,0.2 -0.7,0.4 -1,0.6 -18.1,-0.4 -33.7,-12.2 -38.9,-29.6 16.7,3.7 34.4,11.3 39.9,29 z m -3.7,2.2 c -16.6,10.1 -31.4,22.8 -43.8,37.5 7.8,-19.6 2.2,-43 -15.6,-56.6 7.2,-3.8 14.4,-7.7 21.5,-11.7 5.1,17.3 20.2,29.3 37.9,30.8 z M 356,376.8 c -1.5,1.9 -2.9,3.8 -4.3,5.8 -12.3,-20.4 -11.7,-44.7 -7.6,-67.5 19.6,14.6 24.2,41.6 11.9,61.7 z m -13.7,-61.2 c -3.9,22.3 -4.4,45.9 6.9,66.1 -16.1,-19.9 -42.4,-30 -67.7,-26 1.9,-2 3.8,-3.9 5.8,-5.7 16.1,-14.6 35.9,-24.3 55,-34.4 z m 6.4,68.3 c -25.9,5.4 -56.1,-0.5 -68.6,-26.2 25.6,-4.8 52.7,5.6 68.6,26.2 z m -28,77.6 c -3.5,-4.4 -8.6,-7.3 -14.2,-8.8 7.1,-0.9 13.6,-3.8 17.6,-9.4 -1.5,6 -2.6,12.1 -3.4,18.2 z m 0.2,48.9 c 0.8,5.8 1.9,11.4 3.3,17 -1.1,-1.6 -2.4,-3 -4,-4.3 -3.9,-3.1 -8.6,-4.9 -13.5,-5.8 5.1,-1.3 10,-3.7 14.2,-6.9 z m -0.6,-46.3 c -0.8,6.7 -1.2,13.4 -1.2,20.3 -4,-10.5 -16.7,-15.8 -27.2,-16.4 -9.3,-0.6 -18.8,1.3 -27.8,4.7 0.4,-0.2 0.7,-0.4 1.1,-0.7 8.7,-5.5 16.1,-15 26.1,-17.8 9.8,-2.8 23.3,1.2 29,9.9 z m -7.3,14.4 c 4.5,4.6 7.3,11.3 3.9,17.4 -2.7,4.8 -7.8,8 -13.1,9.2 -6.3,1.4 -14,0.3 -17.4,-5.8 -1.9,-3.3 -2,-7.6 0.8,-10.4 2.9,-3 12,-4.3 11,3.2 -0.1,1.1 1.5,1.6 1.7,0.5 1.3,-10 -12.7,-9.5 -15.9,-1.9 -1.8,4.1 -0.1,9 2.8,12.1 3.7,4.1 9.5,5.2 14.8,4.6 7.1,-0.9 15.2,-5.6 17.9,-12.5 0.2,4.7 0.7,9.3 1.3,13.8 -8.1,6.4 -19.1,10.1 -29.3,7.6 -10,-2.4 -17.4,-9.3 -24.7,-16.1 -6.2,-5.8 -12.6,-11.4 -19.2,-16.8 17.5,-11.7 48.3,-22.4 65.4,-4.9 z m 38.8,110.4 c 16.8,19.8 13.6,50 -7.4,65.7 -4,-22.2 -4.6,-45.9 7.4,-65.7 z m -3,-1.3 c -15.5,20 -41.8,30 -66.7,25.4 12.1,-24.8 41.5,-30.6 66.7,-25.4 z m 0.4,2.2 c -11.1,19.8 -10.5,43.2 -6.5,65.1 -14.4,-7.5 -28.9,-15 -42.2,-24.3 -6.6,-4.6 -13.1,-9.9 -18.8,-15.8 25.1,4.6 51.5,-5.2 67.5,-25 z m 17.2,77.9 c -2.6,-1.5 -5.2,-2.9 -7.8,-4.3 -4.5,-2.4 -9,-4.8 -13.5,-7.2 18.5,-13.7 23.9,-38 14.8,-57.8 12.6,15.2 27.7,28.3 44.6,38.6 -17.9,1.1 -33.1,13.2 -38.1,30.7 z m 40.9,-29 c 0,0 0.1,0 0,0 0,0.1 -0.1,0.2 -0.2,0.4 -5.2,17.3 -22.5,24.8 -38.8,28.4 5.2,-17.3 20.9,-28.9 39,-28.8 z m -2.1,8.9 c -3.9,15 -2.8,30.9 3,45.4 -12.7,-8.5 -25.8,-16.4 -39.2,-23.9 14.1,-3.1 28.6,-9.2 36.2,-21.5 z m 4.2,-7.7 c 0.9,0.5 1.8,1 2.7,1.5 11.6,15.3 10.7,36.6 -2.2,51.1 -6.9,-16.8 -7,-35.6 -0.5,-52.6 z m 60.8,-350.7 c -3.8,-1.1 -8.2,-1.3 -11.8,0.7 -2,1.1 -3.1,2.9 -4.8,4.4 -4.7,4.1 -10.2,0.3 -11.6,-4.9 -2.2,-8.2 4.9,-14.2 12.6,-14.5 6.3,-0.2 12.1,3 17.2,6.3 7.4,4.9 14.1,10.9 19.8,17.7 1.8,2.9 3.8,5.6 6.1,8 0,0 0,0 0,0 -7.8,-6.9 -17.4,-14.7 -27.5,-17.7 z m 29.9,17.7 c 2,-2.2 3.7,-4.5 5.3,-7.1 5.3,-6.2 11.3,-11.7 18.1,-16.3 5.3,-3.6 11.3,-7.1 17.9,-6.9 7.2,0.2 14,5.8 12.4,13.5 -0.8,3.7 -4.4,8.3 -8.8,7.1 -2.6,-0.7 -4.1,-3.9 -6.3,-5.4 -3.3,-2.3 -7.6,-2.5 -11.4,-1.6 -5.3,1.3 -10.2,4.5 -14.7,7.4 -4.4,2.9 -8.5,6 -12.4,9.5 0,-0.1 0,-0.1 -0.1,-0.2 z m 67.8,-59.6 c 1.1,0.3 1.5,-1.4 0.5,-1.7 -5.4,-1.5 -3.1,-9.4 1.9,-9.4 4.7,-0.1 8,4.6 7.9,9 -0.2,8.6 -9.3,12.9 -16.7,10.2 -7.6,-2.8 -11.2,-11.2 -10.4,-18.9 0.7,-7.1 5.2,-13.6 11.2,-17.3 13.4,-8.4 29.9,-0.1 38,11.8 4.7,6.8 6.4,14.5 6,22.7 -0.3,7.1 -1.7,14.2 -1,21.3 0.7,7.8 4.4,14.2 9.7,18.8 -19.1,-11.1 -37.7,-23.3 -54.9,-37.1 3.6,1.7 7.8,2 12,0.2 8.5,-3.8 11.3,-17.4 1.6,-21.6 -3.8,-1.6 -8.4,-0.5 -9.8,3.7 -1.1,3.5 0.4,7.3 4,8.3 z m 100.2,75.4 c -4.9,-2.7 -9.9,-5.2 -14.8,-7.8 -9.2,-4.9 -18.5,-9.8 -27.7,-15 9,3.1 19.3,2.3 27.7,-3.6 1.3,-0.9 2.4,-1.9 3.5,-3 -0.6,1.7 -1,3.5 -1.1,5.4 -0.4,9.2 5.6,17.7 12.4,24 z m 63.7,66.2 c 5.5,19.8 1.1,43.2 -16.6,55.4 -8.9,6.1 -20.4,9.1 -31,6.3 -5.6,-1.5 -11.2,-4.5 -14.4,-9.5 -0.4,-0.6 -0.7,-1.3 -1,-1.9 -0.5,-1.8 -1,-3.6 -1.5,-5.4 -0.5,-4 0.1,-8.2 1.2,-12 3.4,-11.3 16.3,-25.1 28.9,-16.8 5.3,3.5 8.2,12.1 3.2,17.1 -4.9,5 -18.9,2.8 -14.2,-6.6 0.5,-1 -1,-1.9 -1.5,-0.9 -3.4,7 3.4,13.1 10.2,12 7.5,-1.1 11.4,-8.4 9.1,-15.5 -2.8,-8.5 -12,-11.7 -20.2,-9.3 -8.9,2.6 -14.6,10.9 -17.2,19.4 -0.7,2.3 -1.1,4.6 -1.3,6.9 -5.3,-15.6 -12.7,-30.3 -21.9,-43.6 0,-0.1 0.1,-0.2 0.1,-0.3 26.2,5.6 57.2,-0.6 69.4,-27.1 8.5,9.1 15.4,19.7 18.7,31.8 z m -61.7,55.3 c 0.9,1 1.8,2 3,2.9 4.1,3.2 9.1,5.1 14.2,5.9 -5.4,1.4 -10.5,4.1 -14,8.4 -0.8,-5.9 -1.8,-11.6 -3.2,-17.2 z m 17.5,73.2 c -6.8,0.7 -13.1,3.3 -17.3,8.1 1.1,-4.9 2.1,-9.8 2.8,-14.8 4.5,3.2 9.4,5.5 14.5,6.7 z m 9.9,-64 c 10.2,0.4 17.2,8.6 24.8,14.3 2.4,1.8 4.9,3.5 7.5,5.1 -6.9,-2.6 -14.2,-4.3 -21.6,-4.8 -12.3,-0.8 -26.5,3.1 -32.7,14.7 -0.2,0.4 -0.4,0.8 -0.6,1.2 0,-6.8 -0.5,-13.6 -1.3,-20.2 5.1,-7.3 15.3,-10.7 23.9,-10.3 z m -56,-72 c -0.2,-0.2 -0.4,-0.4 -0.5,-0.7 -0.8,-1.1 -1.6,-2.2 -2.5,-3.3 -13.3,-19.7 -9.2,-47 10.4,-61.7 4,22.1 4.5,45.8 -7.4,65.7 z m 3,1.2 c 15.5,-20 41.8,-30 66.7,-25.4 -12.2,24.9 -41.5,30.6 -66.7,25.4 z m -0.4,-2.2 c 11.1,-19.8 10.5,-43.2 6.5,-65.1 14.4,7.5 28.9,15 42.2,24.3 6.6,4.6 13.1,9.9 18.8,15.8 -25.1,-4.6 -51.5,5.2 -67.5,25 z m -17.3,-77.9 c 2.6,1.5 5.2,2.9 7.8,4.3 4.5,2.4 9,4.8 13.5,7.2 -18,13.3 -23.6,36.7 -15.6,56.1 -12.3,-14.5 -26.9,-27.1 -43.3,-37 17.8,-1.3 32.7,-13.3 37.6,-30.6 z m -40.2,29 c -0.2,-0.1 -0.4,-0.2 -0.5,-0.3 0,0 0,-0.1 0,-0.1 5.2,-17.3 22.5,-24.8 38.8,-28.4 -5.1,17.1 -20.5,28.6 -38.3,28.8 z m 1.5,-8.9 c 3.9,-15 2.8,-30.9 -3,-45.4 12.7,8.5 25.8,16.4 39.2,23.9 -14.1,3.1 -28.6,9.2 -36.2,21.5 z M 584,330 c -1.1,-0.6 -2.1,-1.2 -3.2,-1.8 -11.1,-15.3 -10.1,-36.2 2.7,-50.5 6.8,16.7 6.9,35.4 0.5,52.3 z m 57.9,258.2 c 11.9,20.3 11.3,44.4 7.3,66.9 -18.6,-13.9 -23.6,-38.9 -13.6,-58.6 2.2,-2.6 4.3,-5.4 6.3,-8.3 z M 582.7,641 c 6.4,17.2 6.2,36.2 -0.8,53.2 -12.9,-14.3 -14.1,-35.3 -3.5,-50.9 1.4,-0.8 2.9,-1.5 4.3,-2.3 z m 9.9,47.1 c -2.9,1.9 -5.8,3.8 -8.7,5.8 5.8,-14.7 6.7,-30.8 2.8,-46 7.6,12.4 22.1,18.7 36.3,22 -10.3,5.7 -20.5,11.8 -30.4,18.2 z m -7.8,-48.3 c 0.6,-0.3 1.1,-0.6 1.7,-1 17.8,0.7 33,12.4 38.1,29.6 -16.6,-3.6 -34.2,-11.2 -39.8,-28.6 z m 4.3,-2.5 c 16,-9.7 30.4,-21.9 42.6,-36 -6.9,19.3 -1.1,41.8 16.2,55 -7.2,3.8 -14.4,7.7 -21.5,11.7 -5.2,-17.1 -19.9,-29 -37.3,-30.7 z m 61.9,17.3 c 3.9,-22.3 4.4,-45.9 -6.9,-66.1 16.1,19.9 42.4,30 67.7,26 -1.9,2 -3.8,3.9 -5.8,5.7 -16.2,14.6 -35.9,24.3 -55,34.4 z m -6.4,-68.2 c 25.9,-5.4 56.1,0.5 68.6,26.2 -25.6,4.7 -52.7,-5.7 -68.6,-26.2 z m 28.8,-77.7 c 0.6,-4.6 1.1,-9.3 1.3,-14 2,5.1 6.8,9.3 12.4,11.3 9.3,3.2 24.2,0 23.5,-12.4 -0.6,-10.3 -18.1,-12.4 -16.6,-1.2 0.1,1.1 1.8,0.6 1.7,-0.5 -1,-7.3 8,-6.2 11,-3.2 2.5,2.6 2.7,6.3 1.2,9.5 -3,6.6 -10.6,8.3 -17.2,6.9 -5.5,-1.1 -11,-4.4 -13.8,-9.3 -3.4,-6.1 -0.7,-12.7 3.9,-17.4 16.9,-17.5 47.6,-6.9 65.3,4.5 -5,4.1 -9.6,8.6 -13.7,12.2 -8.1,7.2 -15.5,15.8 -25.9,19.7 -11.4,4.3 -23.8,1.1 -33.1,-6.1 z M 731,380.4 c -0.2,-0.1 -0.4,-0.1 -0.5,-0.1 -0.5,-1.2 -1,-2.4 -1.6,-3.6 0.7,1.3 1.5,2.6 2.7,3.7 0.1,0.1 0.1,0.1 0.2,0.2 -0.3,0 -0.6,-0.1 -0.8,-0.2 z m 18.1,-50.2 c 11.1,6.1 19.5,18 18.2,31.1 -1.4,14.6 -17.1,30.7 -32,20.3 -7.6,-5.3 -8.8,-14.6 -1.5,-20.8 3.8,-3.3 11.5,-4.3 13.6,1.7 0.8,2.2 0,4.6 -1.6,6.2 -3.5,3.4 -9.5,-0.7 -7.2,-5.2 0.5,-1 -1,-1.9 -1.5,-0.9 -3.6,7 6.8,13 11,6.1 4.9,-8.1 -5.3,-14.8 -12.5,-11.2 -7.5,3.7 -10.2,11.7 -7.3,18.5 -3.9,-7.7 -9.1,-14.9 -15.1,-21.2 -8.1,-8.5 -17.3,-15.4 -27.2,-21.6 0.5,0.1 1,0.2 1.5,0.3 6.8,1 12.9,-1.8 19.1,-4.1 13.6,-5.3 29.4,-6.4 42.5,0.8 z m -71.3,-46.9 c 8.2,2.1 14.5,10.9 12.3,19.4 -1.3,5.1 -5.9,9.5 -11.5,8.2 -5.9,-1.3 -8.2,-9.9 -1.7,-12.4 1,-0.4 0.6,-2.1 -0.5,-1.7 -6.9,2.7 -6.7,12.7 0.2,15.4 5.5,2.1 10.2,-0.4 12.9,-4.5 -0.1,2.2 0.1,4.5 1.1,6.2 1.9,3.1 6.4,4.7 9.8,3.2 2.6,-1.2 3.7,-3.9 2.1,-6.4 -0.6,-0.9 -2.1,-0.1 -1.5,0.9 -0.8,3.8 -2.4,5.1 -4.9,3.9 -1.4,-0.1 -2.5,-0.7 -3.4,-1.8 -1.3,-1.6 -1.2,-3.3 -1.3,-5.1 0,-2.2 0.1,-4.4 0.8,-6.5 2.4,-7.4 10.4,-9.2 17.2,-6.6 12.1,4.7 15.1,19.8 6.6,29.3 -2.1,0.5 -4.2,1 -6.2,1.7 -7.7,2.5 -15,6.9 -23.3,5.1 -7.5,-1.6 -14.1,-6.7 -19.3,-12.1 -6,-6.2 -11.3,-14.9 -9.2,-23.9 1.9,-8.6 11.4,-14.5 19.8,-12.3 z M 608,248.7 c 1.4,-3.5 8.5,-3.7 11.5,-3.3 4.2,0.5 8,2.6 10.2,6.3 2.2,3.7 1.8,7.7 0,11.5 -0.7,1.5 -1.6,3.1 -2.8,4.2 -1.7,1.7 -3.8,2.3 -6.2,1.8 -4.3,-1.1 -4.2,-3.4 0.4,-7 0.8,0.8 2,-0.4 1.2,-1.2 -4.5,-4.4 -9.8,2.1 -6.7,6.8 3.7,5.5 9.6,3.4 13.2,-0.5 -1.2,3.5 -1.3,7.4 0.3,11 1.8,4.2 6.2,7.9 11,7.3 4.6,-0.5 7.6,-4.8 6.8,-9.2 -0.2,-1.1 -1.9,-0.6 -1.7,0.5 0.7,3.9 -2.5,6.8 -6.1,6.9 -2.6,0.1 -4.9,-1.2 -6.7,-3.2 -2.7,-3 -3.4,-7.2 -2.5,-11.1 1.5,-6.8 7.3,-12 14.4,-11.9 17.6,0.2 22.6,21.8 12.1,33.5 -9.6,10.7 -26.5,11.5 -38,3.7 -6.5,-4.4 -10.7,-11.1 -11.6,-19 -0.9,-7.3 0.6,-14.7 0.9,-22.1 0.1,-1.6 0,-3.2 -0.1,-4.8 0.4,-0.1 0.4,-0.2 0.4,-0.2 z m -0.4,-2.5 c 0.1,0 0.1,0 0,0 0.1,0 0.1,0 0,0 0,0.1 0,0 0,0 z m -25.3,-45.4 c 7.4,-4.2 15.6,-1.8 21.5,3.7 11.2,10.4 11,26.9 3.5,39.3 -1.8,-9.1 -6.6,-17.2 -14.3,-23 -2.7,-2 -5.7,-3.7 -8.9,-4.8 0,0 0,0 0,0 3.3,0.1 7.6,-0.8 7.5,-5 -0.1,-3.8 -4.2,-4.9 -6.7,-2.7 -0.8,0.7 0.4,2 1.2,1.2 2.9,2.8 3.2,4.3 0.9,4.5 -1,0.2 -1.9,0.2 -2.9,0.2 -2.2,-0.2 -4,-1 -5.2,-2.9 -2.9,-4.2 -0.5,-8.2 3.4,-10.5 z M 522,200.6 c 0.5,-13.3 9.9,-23.4 21.6,-28.6 7.4,-3.3 14.6,-4.1 21.9,0.2 5.6,3.3 9.9,8.8 11.8,15 3.8,12.4 -4.4,27.4 -18,28.2 -7.4,0.4 -15.1,-3.2 -18.1,-10.2 -1.7,-3.9 -1.9,-8.8 1.1,-12.2 1.3,-1.5 3.1,-2.8 5.1,-3.2 1,-0.2 2,-0.2 2.9,-0.1 1.1,0 2,0.5 2.7,1.4 3.3,1.6 2.4,3.5 -2.8,5.7 -0.8,-0.8 -2,0.4 -1.2,1.2 3.8,3.7 9.4,-0.7 7.7,-5.5 -2.5,-7 -11.8,-5.4 -15.7,-0.8 -5,5.8 -2.6,14.7 2.4,19.6 5.4,5.3 13.8,7 20.9,4.9 5.3,-1.6 9.2,-4.9 11.8,-8.9 0,0.5 0,1 0.1,1.5 0.4,2.7 1.9,4.9 4.1,6.2 -5.9,-1.3 -12.1,-0.8 -17.6,2.3 -9.2,5.1 -14.9,15.7 -12.8,26.2 0.6,2.7 1.8,5.3 3.4,7.5 -5.7,-4.9 -11.2,-10 -16.6,-15.4 -8.2,-10.2 -15.2,-21.8 -14.7,-35 z m 13,35.6 c 0.8,1 1.5,1.9 2.3,2.8 0.2,0.3 0.5,0.3 0.8,0.2 12.6,12.4 26.5,23.7 41.1,33.8 1.3,0.9 2.5,1.7 3.8,2.6 -13.3,14.1 -15.1,34.9 -5.3,50.8 -22.6,-11.6 -48.1,-18.4 -75,-19.2 5.6,-4.8 11.7,-9.2 18.2,-12.6 3.9,-2.1 8.3,-3.9 12.8,-3.1 4.3,0.8 5.5,3.8 8.6,6.1 3.6,2.6 8.3,1.1 10.9,-2.2 2.8,-3.5 3.3,-8.8 1.4,-12.9 -5.3,-11.2 -19.9,-7.9 -28.3,-2.9 -6.3,3.8 -12.1,8.5 -17.3,13.8 1.7,-3.5 3.1,-7.1 4.4,-10.6 3.7,-10.6 5.5,-22 5.2,-33.2 -0.4,-11.1 -2.9,-21.6 -7.2,-31.8 -3.8,-9.1 -8.5,-17.9 -11.3,-27.4 9.4,16.9 21.4,32.1 34.9,45.8 z m -46.2,-73.7 c -7.1,-19.5 -13.8,-48 4.6,-63.5 1.4,-1.2 2.8,-1.7 4,-1.8 3,-0.1 5.5,2.9 7.9,6 3.5,4.6 5.4,10.2 6.2,15.9 1.7,11.8 -0.8,23.9 -4.2,35.2 0,0.1 -0.1,0.2 -0.1,0.3 -2.7,9 -6.3,17.7 -10.5,26.1 -3,-5.9 -5.6,-12 -7.9,-18.2 z m 7.9,22.1 c 2,10.2 6.7,19.7 10.9,29.1 4.8,10.7 8.3,21.3 9,33.1 0.7,10.9 -0.6,21.8 -3.8,32.2 -2,6.4 -4.8,13.4 -8.5,19.6 -1.9,2.2 -3.7,4.5 -5.4,6.9 -1.9,-2.7 -3.9,-5.3 -6,-7.8 -3.6,-5.8 -6.3,-12.3 -8.3,-18.4 -3.4,-10.2 -5,-20.9 -4.7,-31.6 0.3,-11.2 3,-21.8 6.7,-32.3 3.7,-10.2 7.9,-20.2 10.1,-30.8 z m -8.6,14.6 c 1.9,-2.9 3.7,-6 5.4,-9 -2.6,9.4 -6.4,18.4 -9.6,27.6 -3.6,10.6 -5.8,21.4 -5.8,32.7 0,10.9 2,21.7 5.7,31.9 1.2,3.3 2.6,6.7 4.2,10 -5.3,-5.4 -11.2,-10.3 -17.7,-14.2 -8.7,-5.2 -23.9,-8.8 -29.3,2.9 -2.1,4.5 -1.3,10.4 2.3,14 3.1,3.1 7.7,3.9 11.1,0.8 3.4,-3 5.5,-5.8 10.5,-5.9 4.5,0 8.6,2 12.4,4.2 6.5,3.7 12.5,8 18.1,12.9 -27.9,0.3 -54.2,7 -77.7,18.7 9.8,-16.2 7.9,-37.2 -5.3,-51.5 15.3,-10.5 29.8,-22.2 43,-35.1 0.3,0.1 0.5,0 0.8,-0.2 0.8,-0.9 1.6,-1.9 2.3,-2.9 11,-11.2 21,-23.5 29.6,-36.9 z m -71.8,6.1 c 1.6,3 3.9,5.8 7.1,8 6.3,4.4 14.7,4.9 21.6,1.5 6.7,-3.3 11.8,-11 9.8,-18.6 -1.7,-6.6 -11.2,-12 -16.6,-6 -4.3,4.8 1.5,12.4 6.3,7.7 0.8,-0.8 -0.4,-2 -1.2,-1.2 -0.7,-0.7 -1.5,-1.5 -2.2,-2.2 -2.8,-1.3 -3,-2.5 -0.5,-3.5 1.4,-1.1 2,-1.6 3.6,-1.6 1.7,0 3.4,0.6 4.8,1.4 3.7,2.3 5,6.6 4.4,10.7 -1.1,7.1 -7.2,12.1 -14,13.4 -13.4,2.6 -25,-9.3 -24.1,-22.5 0.9,-13.9 14.6,-26.4 28.8,-22.6 11.7,3.1 23.3,12.2 26.5,24.2 4,15.2 -4.1,29.5 -13.4,41.1 -5.2,5.3 -10.6,10.4 -16.3,15.2 5.8,-8.8 3.5,-20.7 -3.4,-28.2 -7.1,-7.7 -16.1,-9.3 -24.5,-7.2 2.1,-1.6 3.6,-4.1 3.8,-6.7 0,-1 -0.2,-2 -0.5,-2.9 z m -28.6,1.1 c 4.6,-5.1 11.9,-9.3 18.9,-7.2 3.2,1 7.3,3.4 8.2,6.9 0.6,2.3 -0.4,4.9 -2,6.6 -1.1,1.2 -2.5,2 -4.2,2.1 -3,0.2 -3.5,-1.6 -1.4,-5.3 0.8,0.7 2.1,-0.5 1.2,-1.2 -2.5,-2.2 -6.4,-1.2 -6.7,2.4 -0.3,3.5 3.3,5.7 6.5,5.8 -11,4.6 -20.3,15.4 -22.4,27.1 -6.9,-11.6 -7.5,-26.7 1.9,-37.2 z M 331,277.6 c -0.6,-8.4 4.2,-16.4 12.3,-19.1 7.8,-2.6 16,0.8 19.1,8.5 1.3,3.4 1.6,7.3 0,10.7 -1.2,2.5 -3.1,4.6 -5.7,5.6 -4.3,1.5 -9.7,-1.2 -8.8,-6.5 0.2,-1.1 -1.5,-1.6 -1.7,-0.5 -0.7,3.6 1.1,7.1 4.6,8.6 4.4,1.9 9.3,-0.6 11.9,-4.2 2.9,-4 3.1,-9 1.6,-13.5 3.6,3.9 9.5,6.1 13.3,0.5 3.1,-4.7 -2.1,-11.2 -6.7,-6.8 -0.8,0.8 0.4,2 1.2,1.2 4.6,3.6 4.7,5.9 0.4,7 -1.8,0.5 -3.4,0.2 -4.7,-0.9 -1.9,-1.1 -3,-2.6 -4,-4.5 -2,-3.9 -2.6,-8.1 -0.3,-12.1 1.9,-3.3 5.2,-5.4 8.9,-6.2 3.3,-0.7 11.2,-0.6 12.8,3.2 0,0 0,0.1 0.1,0.1 -0.5,12.8 4.5,26.4 -2.8,38 -7.8,12.3 -24.9,16.6 -37.8,10.3 -7.7,-3.6 -13.2,-10.8 -13.7,-19.4 z m -48.7,18.5 c 5.8,-2.9 13.3,-2.5 17.7,2.5 2.1,2.3 3.2,5.6 3.1,8.7 -0.1,2.2 -0.9,4.7 -2.5,6.3 -0.6,0.5 -1.2,0.9 -1.8,1.4 -3.2,1.9 -5.4,0.7 -6.5,-3.5 0.6,-0.9 -0.9,-1.8 -1.5,-0.9 -1.6,2.5 -0.5,5.2 2.1,6.4 3.4,1.6 7.6,-0.3 9.7,-3.1 1.3,-1.8 2,-3.7 2.2,-5.7 1.8,2.8 4.7,4.7 8.7,4.6 8.9,-0.2 11.9,-12.7 3.4,-16.1 -1,-0.4 -1.5,1.3 -0.5,1.7 4.3,1.7 5.2,7.9 1.8,10.9 -4.7,4.1 -10.9,0.7 -13,-4.2 -3,-6.8 -0.8,-15.4 5.4,-19.7 6.3,-4.3 14.8,-2.9 20.2,2.2 6.3,6 6.1,14.9 2.4,22.2 -3.4,6.8 -9.1,13.1 -15.9,17.2 -0.4,0.2 -0.7,0.4 -1.1,0.6 -6.7,3.7 -14.4,5.2 -21.9,2.7 -5.7,-1.9 -11.1,-4.2 -16.9,-5.6 0,0 0,0 0,0 -8.2,-8.8 -6.1,-23.1 4.9,-28.6 z m -53.6,75 c -5.8,-12.2 -2,-26 7.5,-35.1 10.7,-10.1 26.1,-12.7 40.1,-9.7 10.8,2.2 20.2,8.6 30.9,6.8 -17.1,10.8 -32.5,23.6 -41.5,40.5 0.9,-3.6 0.4,-7.5 -2.4,-11.1 -2.9,-3.8 -7.4,-6.9 -12.4,-5.9 -4.3,0.9 -7.6,4.5 -7,9 0.6,3.8 4,7.2 8,6.2 4,-1.1 5.9,-5.6 4.1,-9.2 -0.5,-1 -2,-0.1 -1.5,0.9 1.7,3.3 -1.3,6.9 -4.7,6.4 -2.4,-0.4 -3.9,-2.2 -4.2,-4.6 -0.8,-5.6 5.5,-8.2 10.1,-6.6 7.9,2.7 11,12.2 6.2,18.9 -9.4,13.2 -27.2,6.1 -33.2,-6.5 z m 34.4,7.7 c -0.3,0.7 -0.6,1.4 -0.8,2.1 -0.1,0 -0.3,0 -0.4,0.1 -0.5,0.2 -0.9,0.4 -1.4,0.6 1,-0.9 1.9,-1.8 2.6,-2.8 z m -58.8,65.1 c -1.2,-32.3 32,-49.4 57.2,-60.9 -1.6,4.3 -2.7,8.9 -3.4,13.8 -2.8,20.2 4.7,41.7 23.3,51.6 3.3,1.7 7.1,3.1 11.3,3.8 -2.7,0.5 -5.3,1.4 -7.7,2.8 -7.8,4.5 -14.1,11.4 -21.8,16.2 -5.8,3.6 -11.7,7 -17.4,10.6 -0.2,-0.2 -0.4,-0.3 -0.6,-0.5 -4.6,-3.7 -9.7,-7 -15.2,-8.8 1.7,-0.3 3.4,-0.8 5.1,-1.7 10.6,-5.3 18.7,-25 4.5,-31.2 -5,-2.2 -12.6,-1.5 -14.7,4.5 -2,5.6 4.2,10.3 8.9,6.6 0.9,-0.7 -0.4,-1.9 -1.2,-1.2 -5.1,4 -8,-4.9 -3.6,-7.9 1.5,-1 3.4,-1.4 5.2,-1.4 3.9,0.1 7.8,2 9.7,5.5 4.3,7.7 -0.9,17.9 -7.6,22.3 -16.4,11.1 -31.5,-9.2 -32,-24.1 z m 9,42.4 c -4.2,-3.2 -6.8,-8.2 -1.1,-11.7 4.9,-2.9 11.6,-2.2 16.8,-0.6 5.7,1.8 10.6,5 15.3,8.7 -1.8,1.1 -3.5,2.2 -5.3,3.4 -4,2.7 -8.2,5.1 -13.2,5 -4.5,0.1 -8.9,-2.1 -12.5,-4.8 z m -5.4,56.5 c -4.3,-11 -5.3,-23.7 -0.1,-34.6 5.9,-12.5 21.6,-20.5 32.1,-8.1 4.9,5.8 7.8,15.3 3.3,22.1 -2,3.1 -5.9,4.9 -9.5,4.8 -1.9,-0.1 -3.9,-0.7 -5.3,-2 -0.7,-0.7 -1.3,-1.6 -1.7,-2.5 -0.9,-2.5 0.8,-9.9 5.9,-5.6 0.8,0.7 2.1,-0.5 1.2,-1.2 -4,-3.4 -9.5,-0.2 -9.3,4.9 0.2,5.7 5.9,8.7 11,8.1 17.1,-2 12.5,-24.6 2.9,-32.5 -2.6,-2.2 -5.3,-3.4 -8,-3.9 3.3,-0.8 6.5,-2.5 9.6,-4.6 1.9,-1.3 3.9,-2.5 5.8,-3.8 2.8,2.3 5.5,4.6 8.1,6.9 7,6 13.3,12.7 20.5,18.4 5,4 10.9,7.3 17.2,8.6 -18.3,4.3 -31.1,20.5 -33.6,39 -1.6,11.4 0.4,22.6 4.8,32.8 -0.7,-0.3 -1.3,-0.7 -2,-1 -2.7,-2.4 -5.8,-3.9 -9,-4.6 -18.2,-9.4 -36.2,-21.5 -43.9,-41.2 z m 36.3,97.3 C 233.1,634 224.7,622.1 226,609 c 1.2,-12.2 12.4,-25.5 24.7,-23.4 3,1.6 6.1,3.1 9.2,4.6 5.8,5.4 6.3,13.6 -0.3,19.2 -3.8,3.3 -11.5,4.3 -13.6,-1.7 -0.8,-2.2 0,-4.6 1.6,-6.2 3.5,-3.4 9.5,0.7 7.2,5.2 -0.5,1 1,1.9 1.5,0.9 3.6,-7 -6.8,-13 -11,-6.1 -4.9,8.1 5.3,14.8 12.5,11.2 7.5,-3.7 10.2,-11.7 7.3,-18.5 3.9,7.7 9.1,14.9 15.1,21.2 8.1,8.5 17.3,15.4 27.2,21.6 -0.5,-0.1 -1,-0.2 -1.5,-0.3 -6.8,-1 -12.9,1.8 -19.1,4.1 -13.7,5.3 -29.5,6.4 -42.6,-0.7 z m 71.3,46.8 c -8.2,-2.1 -14.5,-10.9 -12.3,-19.4 1.3,-5.1 5.9,-9.5 11.5,-8.2 5.9,1.3 8.2,9.9 1.7,12.4 -1,0.4 -0.6,2.1 0.5,1.7 6.9,-2.7 6.7,-12.7 -0.2,-15.4 -5.5,-2.1 -10.2,0.4 -12.9,4.5 0.1,-2.2 -0.1,-4.5 -1.1,-6.2 -1.9,-3.1 -6.4,-4.7 -9.8,-3.2 -2.6,1.2 -3.7,3.9 -2.1,6.4 0.6,0.9 2.1,0.1 1.5,-0.9 0.8,-3.8 2.4,-5.1 4.9,-3.9 1.4,0.1 2.5,0.7 3.4,1.8 1.3,1.6 1.2,3.3 1.3,5.1 0,2.2 -0.1,4.4 -0.8,6.5 -2.4,7.4 -10.4,9.2 -17.2,6.6 -12.1,-4.7 -15.1,-19.8 -6.6,-29.3 2.1,-0.5 4.2,-1 6.2,-1.7 7.7,-2.5 15,-6.9 23.3,-5.1 7.5,1.6 14.1,6.7 19.3,12.1 6,6.2 11.3,14.9 9.2,23.9 -1.9,8.6 -11.4,14.5 -19.8,12.3 z m 69.7,34.7 c -1.4,3.5 -8.5,3.7 -11.5,3.3 -4.2,-0.5 -8,-2.6 -10.2,-6.3 -2.2,-3.7 -1.8,-7.7 0,-11.5 0.7,-1.5 1.6,-3.1 2.8,-4.2 1.7,-1.7 3.8,-2.3 6.2,-1.8 4.3,1.1 4.2,3.4 -0.4,7 -0.8,-0.8 -2,0.4 -1.2,1.2 4.5,4.4 9.8,-2.1 6.7,-6.8 -3.7,-5.5 -9.6,-3.4 -13.2,0.5 1.2,-3.5 1.3,-7.4 -0.3,-11 -1.8,-4.2 -6.2,-7.9 -11,-7.3 -4.6,0.5 -7.6,4.8 -6.8,9.2 0.2,1.1 1.9,0.6 1.7,-0.5 -0.7,-3.9 2.5,-6.8 6.1,-6.9 2.6,-0.1 4.9,1.2 6.7,3.2 2.7,3 3.4,7.2 2.5,11.1 -1.5,6.8 -7.3,12 -14.4,11.9 -17.6,-0.2 -22.6,-21.8 -12.1,-33.5 9.6,-10.7 26.5,-11.5 38,-3.7 6.5,4.4 10.7,11.1 11.6,19 0.9,7.3 -0.6,14.7 -0.9,22.1 -0.1,1.6 0,3.2 0.1,4.8 -0.3,0 -0.3,0.1 -0.4,0.2 z m 0.4,2.4 c 0,0 0,0 0,0 0,0 0,0 0,0 0,0 0,0 0,0 z m 25.4,45.4 c -7.4,4.2 -15.6,1.8 -21.5,-3.7 -11.2,-10.4 -11,-26.9 -3.5,-39.3 1.8,9.1 6.6,17.2 14.3,23 2.7,2 5.7,3.7 8.9,4.8 0,0 0,0 0,0 -3.3,-0.1 -7.6,0.8 -7.5,5 0.1,3.8 4.2,4.9 6.7,2.7 0.8,-0.7 -0.4,-2 -1.2,-1.2 -2.9,-2.8 -3.2,-4.3 -0.9,-4.5 1,-0.2 1.9,-0.2 2.9,-0.2 2.2,0.2 4,1 5.2,2.9 2.9,4.2 0.5,8.3 -3.4,10.5 z m 60.3,0.2 c -0.5,13.3 -9.9,23.4 -21.6,28.6 -7.4,3.3 -14.6,4.1 -21.9,-0.2 -5.6,-3.3 -9.9,-8.8 -11.8,-15 -3.8,-12.4 4.4,-27.4 18,-28.2 7.4,-0.4 15.1,3.2 18.1,10.2 1.7,3.9 1.9,8.8 -1.1,12.2 -1.3,1.5 -3.1,2.8 -5.1,3.2 -1,0.2 -2,0.2 -2.9,0.1 -1.1,0 -2,-0.5 -2.7,-1.4 -3.3,-1.6 -2.4,-3.5 2.8,-5.7 0.8,0.8 2,-0.4 1.2,-1.2 -3.8,-3.7 -9.4,0.7 -7.7,5.5 2.5,7 11.8,5.4 15.7,0.8 5,-5.8 2.6,-14.7 -2.4,-19.6 -5.4,-5.3 -13.8,-7 -20.9,-4.9 -5.3,1.6 -9.2,4.9 -11.8,8.9 0,-0.5 0,-1 -0.1,-1.5 -0.4,-2.7 -1.9,-4.9 -4.1,-6.2 5.9,1.3 12.1,0.8 17.6,-2.3 9.2,-5.1 14.9,-15.7 12.8,-26.2 -0.6,-2.7 -1.8,-5.3 -3.4,-7.5 5.7,4.9 11.2,10 16.6,15.4 8.2,10.2 15.2,21.8 14.7,35 z m -13,-35.6 c -0.8,-1 -1.5,-1.9 -2.3,-2.8 -0.2,-0.3 -0.5,-0.3 -0.8,-0.2 -12.6,-12.4 -26.5,-23.7 -41.1,-33.8 -1.3,-0.9 -2.5,-1.7 -3.8,-2.6 13.4,-14.3 15.1,-35.3 5,-51.4 22.7,11.8 48.3,18.8 75.3,19.7 -5.6,4.8 -11.7,9.2 -18.2,12.6 -3.9,2.1 -8.3,3.9 -12.8,3.1 -4.3,-0.8 -5.5,-3.8 -8.6,-6.1 -3.6,-2.6 -8.3,-1.1 -10.9,2.2 -2.8,3.5 -3.3,8.8 -1.4,12.9 5.3,11.2 19.9,7.9 28.3,2.9 6.3,-3.8 12.1,-8.5 17.3,-13.8 -1.7,3.5 -3.1,7.1 -4.4,10.6 -3.7,10.6 -5.5,22 -5.2,33.2 0.4,11.1 2.9,21.6 7.2,31.8 3.8,9.1 8.5,17.9 11.3,27.4 -9.4,-16.8 -21.4,-32 -34.9,-45.7 z m 46.2,73.7 c 3.9,10.8 7,22.1 7.2,33.6 0.1,6.2 -0.8,12.5 -3.3,18.3 -1.2,2.9 -2.9,5.6 -4.9,8.1 -1.5,1.8 -3,3.6 -4.9,5 -1,0.8 -1.8,1.1 -2.6,1 -0.9,-0.1 -1.7,-0.6 -2.9,-1.5 -2.2,-1.8 -4.2,-3.9 -5.8,-6.3 -3.2,-4.7 -4.8,-10.2 -5.5,-15.7 -1.4,-11.5 1,-23.3 4.3,-34.2 0,-0.1 0.1,-0.2 0.1,-0.3 2.7,-9 6.3,-17.7 10.5,-26.1 2.9,5.8 5.5,11.9 7.8,18.1 z m -7.9,-22.1 c -2,-10.2 -6.7,-19.7 -10.9,-29.1 -4.8,-10.7 -8.3,-21.3 -9,-33.1 -0.7,-10.9 0.6,-21.8 3.8,-32.2 2,-6.4 4.8,-13.4 8.5,-19.6 1.9,-2.2 3.7,-4.5 5.4,-6.9 1.9,2.7 3.9,5.3 6,7.8 3.6,5.8 6.3,12.3 8.3,18.4 3.4,10.2 5,20.9 4.7,31.6 -0.3,11.2 -3,21.8 -6.7,32.3 -3.7,10.2 -7.9,20.2 -10.1,30.8 z m 8.6,-14.6 c -1.9,2.9 -3.7,6 -5.4,9 2.6,-9.4 6.4,-18.4 9.6,-27.6 3.6,-10.6 5.8,-21.4 5.8,-32.7 0,-10.9 -2,-21.7 -5.7,-31.9 -1.2,-3.3 -2.6,-6.7 -4.2,-10 5.3,5.4 11.2,10.3 17.7,14.2 8.7,5.2 23.9,8.8 29.3,-2.9 2.1,-4.5 1.3,-10.4 -2.3,-14 -3.1,-3.1 -7.7,-3.9 -11.1,-0.8 -3.4,3 -5.5,5.8 -10.5,5.9 -4.5,0 -8.6,-2 -12.4,-4.2 -6.5,-3.6 -12.5,-8 -18.1,-12.9 27.7,-0.2 54,-6.7 77.3,-18.2 -9.4,16.1 -7.5,36.8 5.6,51 -15.3,10.5 -29.8,22.2 -43,35.1 -0.3,-0.1 -0.5,0 -0.8,0.2 -0.8,0.9 -1.6,1.9 -2.3,2.9 -10.9,11.2 -20.9,23.5 -29.5,36.9 z m 71.7,-6.1 c -1.6,-3 -3.9,-5.8 -7.1,-8 -6.3,-4.4 -14.7,-4.9 -21.6,-1.5 -6.7,3.3 -11.8,11 -9.8,18.6 1.7,6.6 11.2,12 16.6,6 4.3,-4.8 -1.5,-12.4 -6.3,-7.7 -0.8,0.8 0.4,2 1.2,1.2 0.7,0.7 1.5,1.5 2.2,2.2 2.8,1.3 3,2.5 0.5,3.5 -1.4,1.1 -2,1.6 -3.6,1.6 -1.7,0 -3.4,-0.6 -4.8,-1.4 -3.7,-2.3 -5,-6.6 -4.4,-10.7 1.1,-7.1 7.2,-12.1 14,-13.4 13.4,-2.6 25,9.3 24.1,22.5 -0.9,13.9 -14.6,26.4 -28.8,22.6 -11.7,-3.1 -23.3,-12.2 -26.5,-24.2 -4,-15.2 4.1,-29.5 13.4,-41.1 5.2,-5.3 10.6,-10.4 16.3,-15.2 -5.8,8.8 -3.5,20.7 3.4,28.2 7.1,7.7 16.1,9.3 24.5,7.2 -2.1,1.6 -3.6,4.1 -3.8,6.7 0.1,1 0.2,2 0.5,2.9 z m 28.6,-1.1 c -4.6,5.1 -11.9,9.3 -18.9,7.2 -3.2,-1 -7.3,-3.4 -8.2,-6.9 -0.6,-2.3 0.4,-4.9 2,-6.6 1.1,-1.2 2.5,-2 4.2,-2.1 3,-0.2 3.5,1.6 1.4,5.3 -0.8,-0.7 -2.1,0.5 -1.2,1.2 2.5,2.2 6.4,1.2 6.7,-2.4 0.3,-3.5 -3.3,-5.7 -6.5,-5.8 11,-4.6 20.3,-15.4 22.4,-27.1 7,11.6 7.6,26.7 -1.9,37.2 z m 56.8,-71.2 c 0.6,8.4 -4.2,16.4 -12.3,19.1 -7.8,2.6 -16,-0.8 -19.1,-8.5 -1.3,-3.4 -1.6,-7.3 0,-10.7 1.2,-2.5 3.1,-4.6 5.7,-5.6 4.3,-1.5 9.7,1.2 8.8,6.5 -0.2,1.1 1.5,1.6 1.7,0.5 0.7,-3.6 -1.1,-7.1 -4.6,-8.6 -4.4,-1.9 -9.3,0.6 -11.9,4.2 -2.9,4 -3.1,9 -1.6,13.5 -3.6,-3.9 -9.5,-6.1 -13.3,-0.5 -3.1,4.7 2.1,11.2 6.7,6.8 0.8,-0.8 -0.4,-2 -1.2,-1.2 -4.6,-3.6 -4.7,-5.9 -0.4,-7 1.8,-0.5 3.4,-0.2 4.7,0.9 1.9,1.1 3,2.6 4,4.5 2,3.9 2.6,8.1 0.3,12.1 -1.9,3.3 -5.2,5.4 -8.9,6.2 -3.3,0.7 -11.2,0.6 -12.8,-3.2 0,0 0,-0.1 -0.1,-0.1 0.5,-12.8 -4.5,-26.4 2.8,-38 7.8,-12.3 24.9,-16.6 37.8,-10.3 7.6,3.7 13.1,10.8 13.7,19.4 z M 711,674.1 c -5.8,2.9 -13.3,2.5 -17.7,-2.5 -2.1,-2.3 -3.2,-5.6 -3.1,-8.7 0.1,-2.2 0.9,-4.7 2.5,-6.3 0.6,-0.5 1.2,-0.9 1.8,-1.4 3.2,-1.9 5.4,-0.7 6.5,3.5 -0.6,0.9 0.9,1.8 1.5,0.9 1.6,-2.5 0.5,-5.2 -2.1,-6.4 -3.4,-1.6 -7.6,0.3 -9.7,3.1 -1.3,1.8 -2,3.7 -2.2,5.7 -1.8,-2.8 -4.7,-4.7 -8.7,-4.6 -8.9,0.2 -11.9,12.7 -3.4,16.1 1,0.4 1.5,-1.3 0.5,-1.7 -4.3,-1.7 -5.2,-7.9 -1.8,-10.9 4.7,-4.1 10.9,-0.7 13,4.2 3,6.8 0.8,15.4 -5.4,19.7 -6.3,4.3 -14.8,2.9 -20.2,-2.2 -6.3,-6 -6.1,-14.9 -2.4,-22.2 3.4,-6.8 9.1,-13.1 15.9,-17.2 0.4,-0.2 0.7,-0.4 1.1,-0.6 6.7,-3.7 14.4,-5.2 21.9,-2.7 5.7,1.9 11.1,4.2 16.9,5.6 0,0 0,0 0,0 8.2,8.8 6.1,23.1 -4.9,28.6 z m 53.6,-74.9 c 5.8,12.2 2,26 -7.5,35.1 -10.7,10.1 -26.1,12.7 -40.1,9.7 -10.8,-2.2 -20.2,-8.6 -30.9,-6.8 17.1,-10.8 32.5,-23.6 41.5,-40.5 -0.9,3.6 -0.4,7.5 2.4,11.1 2.9,3.8 7.4,6.9 12.4,5.9 4.3,-0.9 7.6,-4.5 7,-9 -0.6,-3.8 -4,-7.2 -8,-6.2 -4,1.1 -5.9,5.6 -4.1,9.2 0.5,1 2,0.1 1.5,-0.9 -1.7,-3.3 1.3,-6.9 4.7,-6.4 2.4,0.4 3.9,2.2 4.2,4.6 0.8,5.6 -5.5,8.2 -10.1,6.6 -7.9,-2.7 -11,-12.2 -6.2,-18.9 9.4,-13.3 27.2,-6.2 33.2,6.5 z m -34.5,-7.8 c 0.2,-0.4 0.3,-0.9 0.5,-1.3 0.3,-0.2 0.7,-0.3 1,-0.5 -0.5,0.6 -1,1.2 -1.5,1.8 z m 35.2,-23.5 c -10.1,8.3 -22,14.1 -33.7,19.8 1.7,-4.5 2.9,-9.3 3.6,-14.3 2.8,-20.2 -4.7,-41.7 -23.3,-51.6 -3.3,-1.7 -7.1,-3.1 -11.2,-3.8 5,-0.7 9.9,-2.5 14.5,-5.5 7.2,-4.7 13.1,-11.2 19.4,-16.9 4.3,-3.8 8.6,-7.9 13.2,-11.5 0.1,0 0.2,-0.1 0.3,-0.1 4.5,3 9.1,6.6 14.2,8.2 -1.3,0.2 -2.7,0.7 -4.1,1.3 -11.5,5.2 -20.4,27.2 -5.8,34.2 5.1,2.4 12.4,1.5 14.7,-4.4 2.1,-5.6 -3.6,-11.8 -8.8,-7.5 -0.9,0.7 0.4,1.9 1.2,1.2 0.9,0 1.7,0.1 2.6,0.1 2.3,-0.8 3.3,0 3.1,2.3 0.4,1.9 0.7,2.6 -0.3,4.2 -0.9,1.6 -2.6,2.7 -4.3,3.2 -3.1,0.9 -6.6,0 -9.2,-1.8 -6.4,-4.5 -5.4,-13.9 -2.4,-20.1 3,-6 8.8,-11.2 15.8,-11.2 7.2,0 13.5,5.1 17.3,10.8 14.2,21.2 0.8,49 -16.8,63.4 z"
           id="path201"
           inkscape:connector-curvature="0" /></g></g></switch></svg>