<?xml version="1.0" encoding="UTF-8" standalone="no"?>
<svg
   xmlns:dc="http://purl.org/dc/elements/1.1/"
   xmlns:cc="http://creativecommons.org/ns#"
   xmlns:rdf="http://www.w3.org/1999/02/22-rdf-syntax-ns#"
   xmlns:svg="http://www.w3.org/2000/svg"
   xmlns="http://www.w3.org/2000/svg"
   xmlns:sodipodi="http://sodipodi.sourceforge.net/DTD/sodipodi-0.dtd"
   xmlns:inkscape="http://www.inkscape.org/namespaces/inkscape"
   version="1.1"
   id="l19"
   x="0px"
   y="0px"
   viewBox="0 0 1000 1000"
   width="100%"
   height="100%"
   style="enable-background:new 0 0 1000 1000;"
   xml:space="preserve"
    class="withFill"
   ><style
     type="text/css"
     id="style3">
	#l19 .st0{fill:#9E9E9E;}
	#l19 .st1{fill:#FFFFFF;}
</style><switch
     id="switch5"
     transform="translate(-0.04998779,-14.449997)"><g
       id="g7"><g
         id="g9"><rect
           x="162.89999"
           y="177.3"
           class="st0"
           width="674.29999"
           height="674.29999"
           id="rect11"
           style="fill:#9e9e9e" /><g
           id="g13"><path
             class="st1"
             d="m 198.5,749.3 c 0,14.8 21.2,14.8 21.2,0 0,-14.8 -21.2,-14.8 -21.2,0 z"
             id="path15"
             inkscape:connector-curvature="0"
             style="fill:#ffffff" /><path
             class="st1"
             d="m 198.5,704.8 c 0,14.8 21.2,14.8 21.2,0 0,-14.8 -21.2,-14.8 -21.2,0 z"
             id="path17"
             inkscape:connector-curvature="0"
             style="fill:#ffffff" /><path
             class="st1"
             d="m 198.5,659.8 c 0,14.8 21.2,14.8 21.2,0 0,-14.8 -21.2,-14.8 -21.2,0 z"
             id="path19"
             inkscape:connector-curvature="0"
             style="fill:#ffffff" /><path
             class="st1"
             d="m 198.5,615.3 c 0,14.8 21.2,14.8 21.2,0 0,-14.7 -21.2,-14.8 -21.2,0 z"
             id="path21"
             inkscape:connector-curvature="0"
             style="fill:#ffffff" /><path
             class="st1"
             d="m 198.5,570.3 c 0,14.8 21.2,14.8 21.2,0 0,-14.7 -21.2,-14.8 -21.2,0 z"
             id="path23"
             inkscape:connector-curvature="0"
             style="fill:#ffffff" /><path
             class="st1"
             d="m 198.5,525.9 c 0,14.8 21.2,14.8 21.2,0 0,-14.8 -21.2,-14.8 -21.2,0 z"
             id="path25"
             inkscape:connector-curvature="0"
             style="fill:#ffffff" /><path
             class="st1"
             d="m 198.5,480.9 c 0,14.8 21.2,14.8 21.2,0 0,-14.8 -21.2,-14.8 -21.2,0 z"
             id="path27"
             inkscape:connector-curvature="0"
             style="fill:#ffffff" /><path
             class="st1"
             d="m 198.5,436.4 c 0,14.8 21.2,14.8 21.2,0 0,-14.8 -21.2,-14.8 -21.2,0 z"
             id="path29"
             inkscape:connector-curvature="0"
             style="fill:#ffffff" /><path
             class="st1"
             d="m 198.5,391.4 c 0,14.8 21.2,14.8 21.2,0 0,-14.8 -21.2,-14.8 -21.2,0 z"
             id="path31"
             inkscape:connector-curvature="0"
             style="fill:#ffffff" /><path
             class="st1"
             d="m 198.5,346.9 c 0,14.8 21.2,14.8 21.2,0 0,-14.7 -21.2,-14.8 -21.2,0 z"
             id="path33"
             inkscape:connector-curvature="0"
             style="fill:#ffffff" /><path
             class="st1"
             d="m 198.5,301.9 c 0,14.8 21.2,14.8 21.2,0 0,-14.7 -21.2,-14.8 -21.2,0 z"
             id="path35"
             inkscape:connector-curvature="0"
             style="fill:#ffffff" /><path
             class="st1"
             d="m 198.5,257.5 c 0,14.8 21.2,14.8 21.2,0 0,-14.8 -21.2,-14.8 -21.2,0 z"
             id="path37"
             inkscape:connector-curvature="0"
             style="fill:#ffffff" /><path
             class="st1"
             d="m 265.1,212.9 c -14.8,0 -14.8,21.2 0,21.2 14.8,0 14.8,-21.2 0,-21.2 z"
             id="path39"
             inkscape:connector-curvature="0"
             style="fill:#ffffff" /><path
             class="st1"
             d="m 309.6,212.9 c -14.8,0 -14.8,21.2 0,21.2 14.8,0 14.8,-21.2 0,-21.2 z"
             id="path41"
             inkscape:connector-curvature="0"
             style="fill:#ffffff" /><path
             class="st1"
             d="m 354.6,212.9 c -14.8,0 -14.8,21.2 0,21.2 14.8,0 14.8,-21.2 0,-21.2 z"
             id="path43"
             inkscape:connector-curvature="0"
             style="fill:#ffffff" /><path
             class="st1"
             d="m 399.1,212.9 c -14.8,0 -14.8,21.2 0,21.2 14.7,0 14.8,-21.2 0,-21.2 z"
             id="path45"
             inkscape:connector-curvature="0"
             style="fill:#ffffff" /><path
             class="st1"
             d="m 444.1,212.9 c -14.8,0 -14.8,21.2 0,21.2 14.7,0 14.7,-21.2 0,-21.2 z"
             id="path47"
             inkscape:connector-curvature="0"
             style="fill:#ffffff" /><path
             class="st1"
             d="m 488.5,212.9 c -14.8,0 -14.8,21.2 0,21.2 14.8,0 14.8,-21.2 0,-21.2 z"
             id="path49"
             inkscape:connector-curvature="0"
             style="fill:#ffffff" /><path
             class="st1"
             d="m 533.5,212.9 c -14.8,0 -14.8,21.2 0,21.2 14.8,0 14.8,-21.2 0,-21.2 z"
             id="path51"
             inkscape:connector-curvature="0"
             style="fill:#ffffff" /><path
             class="st1"
             d="m 578,212.9 c -14.8,0 -14.8,21.2 0,21.2 14.8,0 14.8,-21.2 0,-21.2 z"
             id="path53"
             inkscape:connector-curvature="0"
             style="fill:#ffffff" /><path
             class="st1"
             d="m 623,212.9 c -14.8,0 -14.8,21.2 0,21.2 14.8,0 14.8,-21.2 0,-21.2 z"
             id="path55"
             inkscape:connector-curvature="0"
             style="fill:#ffffff" /><path
             class="st1"
             d="m 667.5,212.9 c -14.8,0 -14.8,21.2 0,21.2 14.7,0 14.7,-21.2 0,-21.2 z"
             id="path57"
             inkscape:connector-curvature="0"
             style="fill:#ffffff" /><path
             class="st1"
             d="m 712.5,212.9 c -14.8,0 -14.8,21.2 0,21.2 14.7,0 14.7,-21.2 0,-21.2 z"
             id="path59"
             inkscape:connector-curvature="0"
             style="fill:#ffffff" /><path
             class="st1"
             d="m 756.9,212.9 c -14.8,0 -14.8,21.2 0,21.2 14.8,0 14.8,-21.2 0,-21.2 z"
             id="path61"
             inkscape:connector-curvature="0"
             style="fill:#ffffff" /><path
             class="st1"
             d="m 801.5,279.5 c 0,-14.8 -21.2,-14.8 -21.2,0 0,14.8 21.2,14.8 21.2,0 z"
             id="path63"
             inkscape:connector-curvature="0"
             style="fill:#ffffff" /><path
             class="st1"
             d="m 780.3,324 c 0,14.8 21.2,14.8 21.2,0 0,-14.8 -21.2,-14.8 -21.2,0 z"
             id="path65"
             inkscape:connector-curvature="0"
             style="fill:#ffffff" /><path
             class="st1"
             d="m 780.3,369 c 0,14.8 21.2,14.8 21.2,0 0,-14.8 -21.2,-14.8 -21.2,0 z"
             id="path67"
             inkscape:connector-curvature="0"
             style="fill:#ffffff" /><path
             class="st1"
             d="m 780.3,413.5 c 0,14.8 21.2,14.8 21.2,0 0,-14.8 -21.2,-14.8 -21.2,0 z"
             id="path69"
             inkscape:connector-curvature="0"
             style="fill:#ffffff" /><path
             class="st1"
             d="m 780.3,458.4 c 0,14.8 21.2,14.8 21.2,0 0,-14.7 -21.2,-14.7 -21.2,0 z"
             id="path71"
             inkscape:connector-curvature="0"
             style="fill:#ffffff" /><path
             class="st1"
             d="m 780.3,502.9 c 0,14.8 21.2,14.8 21.2,0 0,-14.8 -21.2,-14.8 -21.2,0 z"
             id="path73"
             inkscape:connector-curvature="0"
             style="fill:#ffffff" /><path
             class="st1"
             d="m 780.3,547.9 c 0,14.8 21.2,14.8 21.2,0 0,-14.8 -21.2,-14.8 -21.2,0 z"
             id="path75"
             inkscape:connector-curvature="0"
             style="fill:#ffffff" /><path
             class="st1"
             d="m 780.3,592.4 c 0,14.8 21.2,14.8 21.2,0 0,-14.8 -21.2,-14.8 -21.2,0 z"
             id="path77"
             inkscape:connector-curvature="0"
             style="fill:#ffffff" /><path
             class="st1"
             d="m 780.3,637.4 c 0,14.8 21.2,14.8 21.2,0 0,-14.8 -21.2,-14.8 -21.2,0 z"
             id="path79"
             inkscape:connector-curvature="0"
             style="fill:#ffffff" /><path
             class="st1"
             d="m 780.3,681.8 c 0,14.8 21.2,14.8 21.2,0 0,-14.7 -21.2,-14.7 -21.2,0 z"
             id="path81"
             inkscape:connector-curvature="0"
             style="fill:#ffffff" /><path
             class="st1"
             d="m 780.3,726.8 c 0,14.8 21.2,14.8 21.2,0 0,-14.7 -21.2,-14.8 -21.2,0 z"
             id="path83"
             inkscape:connector-curvature="0"
             style="fill:#ffffff" /><path
             class="st1"
             d="m 780.3,771.3 c 0,14.8 21.2,14.8 21.2,0 0,-14.8 -21.2,-14.8 -21.2,0 z"
             id="path85"
             inkscape:connector-curvature="0"
             style="fill:#ffffff" /><path
             class="st1"
             d="m 734.9,794.7 c -14.8,0 -14.8,21.2 0,21.2 14.7,0 14.8,-21.2 0,-21.2 z"
             id="path87"
             inkscape:connector-curvature="0"
             style="fill:#ffffff" /><path
             class="st1"
             d="m 690.4,794.7 c -14.8,0 -14.8,21.2 0,21.2 14.8,0 14.8,-21.2 0,-21.2 z"
             id="path89"
             inkscape:connector-curvature="0"
             style="fill:#ffffff" /><path
             class="st1"
             d="m 645.4,794.7 c -14.8,0 -14.8,21.2 0,21.2 14.8,0 14.8,-21.2 0,-21.2 z"
             id="path91"
             inkscape:connector-curvature="0"
             style="fill:#ffffff" /><path
             class="st1"
             d="m 600.9,794.7 c -14.8,0 -14.8,21.2 0,21.2 14.8,0 14.8,-21.2 0,-21.2 z"
             id="path93"
             inkscape:connector-curvature="0"
             style="fill:#ffffff" /><path
             class="st1"
             d="m 555.9,794.7 c -14.8,0 -14.8,21.2 0,21.2 14.8,0 14.8,-21.2 0,-21.2 z"
             id="path95"
             inkscape:connector-curvature="0"
             style="fill:#ffffff" /><path
             class="st1"
             d="m 511.5,794.7 c -14.8,0 -14.8,21.2 0,21.2 14.7,0 14.8,-21.2 0,-21.2 z"
             id="path97"
             inkscape:connector-curvature="0"
             style="fill:#ffffff" /><path
             class="st1"
             d="m 466.5,794.7 c -14.8,0 -14.8,21.2 0,21.2 14.7,0 14.8,-21.2 0,-21.2 z"
             id="path99"
             inkscape:connector-curvature="0"
             style="fill:#ffffff" /><path
             class="st1"
             d="m 422,794.7 c -14.8,0 -14.8,21.2 0,21.2 14.8,0 14.8,-21.2 0,-21.2 z"
             id="path101"
             inkscape:connector-curvature="0"
             style="fill:#ffffff" /><path
             class="st1"
             d="m 377,794.7 c -14.8,0 -14.8,21.2 0,21.2 14.8,0 14.8,-21.2 0,-21.2 z"
             id="path103"
             inkscape:connector-curvature="0"
             style="fill:#ffffff" /><path
             class="st1"
             d="m 332.5,794.7 c -14.8,0 -14.8,21.2 0,21.2 14.8,0 14.8,-21.2 0,-21.2 z"
             id="path105"
             inkscape:connector-curvature="0"
             style="fill:#ffffff" /><path
             class="st1"
             d="m 287.5,794.7 c -14.8,0 -14.8,21.2 0,21.2 14.8,0 14.8,-21.2 0,-21.2 z"
             id="path107"
             inkscape:connector-curvature="0"
             style="fill:#ffffff" /><path
             class="st1"
             d="m 243.1,794.7 c -14.8,0 -14.8,21.2 0,21.2 14.7,0 14.8,-21.2 0,-21.2 z"
             id="path109"
             inkscape:connector-curvature="0"
             style="fill:#ffffff" /></g><g
           id="g111"><path
             class="st1"
             d="m 221,236.4 c 18.1,0 18.1,-28.1 0,-28.1 -18.1,0 -18.1,28.1 0,28.1 l 0,0 z"
             id="path113"
             inkscape:connector-curvature="0"
             style="fill:#ffffff" /></g><g
           id="g115"><path
             class="st1"
             d="m 789.7,252.1 c 18.1,0 18.1,-28.1 0,-28.1 -18.1,0 -18.1,28.1 0,28.1 l 0,0 z"
             id="path117"
             inkscape:connector-curvature="0"
             style="fill:#ffffff" /></g><g
           id="g119"><path
             class="st1"
             d="m 775.5,819.2 c 18.1,0 18.1,-28.1 0,-28.1 -18,0 -18.1,28.1 0,28.1 l 0,0 z"
             id="path121"
             inkscape:connector-curvature="0"
             style="fill:#ffffff" /></g><g
           id="g123"><path
             class="st1"
             d="m 205.3,812.9 c 18.1,0 18.1,-28.1 0,-28.1 -18.1,0.1 -18.1,28.1 0,28.1 l 0,0 z"
             id="path125"
             inkscape:connector-curvature="0"
             style="fill:#ffffff" /></g></g></g></switch></svg>