<?xml version="1.0" encoding="UTF-8" standalone="no"?>
<svg
   xmlns:dc="http://purl.org/dc/elements/1.1/"
   xmlns:cc="http://creativecommons.org/ns#"
   xmlns:rdf="http://www.w3.org/1999/02/22-rdf-syntax-ns#"
   xmlns:svg="http://www.w3.org/2000/svg"
   xmlns="http://www.w3.org/2000/svg"
   xmlns:sodipodi="http://sodipodi.sourceforge.net/DTD/sodipodi-0.dtd"
   xmlns:inkscape="http://www.inkscape.org/namespaces/inkscape"
   version="1.1"
   id="Layer_1"
   x="0px"
   y="0px"
   viewBox="72.84747314453125 268.79998779296875 854.3050537109375 462.4000244140625"
   width="100%"
   height="100%"
   style="enable-background:new 0 0 1000 1000;"
   xml:space="preserve"
  ><style
     type="text/css"
     id="style3">
	.noFillSVG{fill:none;}
</style><switch
     id="switch5"
     transform="translate(44.252527,9.7)"><g
       id="g7"><g
         id="g9"><path
           class="noFillSVG"
           d="m 454.3,284.2 c -119.1,0 -216,96.9 -216,216 0,119.1 96.9,216 216,216 119.1,0 216,-96.9 216,-216 0,-119.1 -97,-216 -216,-216 z m 0,429.1 c -117.5,0 -213.1,-95.6 -213.1,-213.1 0,-117.5 95.6,-213.1 213.1,-213.1 117.5,0 213.1,95.6 213.1,213.1 0,117.5 -95.6,213.1 -213.1,213.1 z"
           id="path11"
           inkscape:connector-curvature="0"
           style="fill:none" /><circle
           class="noFillSVG"
           cx="454.29999"
           cy="500.20001"
           r="211.3"
           id="circle13"
           style="fill:none" /><path
           class="noFillSVG"
           d="m 771.6,624.1 c 3.9,-0.9 8.3,-1.5 12.8,-1.2 -2.7,-3 -2.8,-6.5 -2,-8.6 0.8,-2.2 2.1,-2.8 2.2,-2.7 0.2,0.2 -0.7,1.1 -1,3 -0.1,0.9 -0.1,2.1 0.3,3.3 0.4,1.2 1.2,2.5 2.4,3.4 2.4,1.9 6.5,2.4 10.3,1 3.8,-1.3 7.2,-4.4 9.1,-8.2 0.9,-1.9 1.5,-4 1.7,-6 0.2,-2 -0.1,-4 -0.8,-5.8 -1.3,-3.7 -3.9,-6.5 -6.5,-8.2 -2.7,-1.7 -5.2,-2.2 -7,-2.4 -1.9,-0.1 -3.1,0.1 -3.2,0.1 -0.3,0 -4.8,0.3 -10.9,3.7 -6.1,3.4 -13.5,9.2 -19.4,16.5 -2.4,2.9 -4.6,6.1 -6.4,9.2 -0.2,1.6 -0.6,3.8 -1.4,6.5 -0.4,1.6 -1,3.4 -1.7,5.3 1.8,-1.5 4.3,-3.1 7.4,-4.5 3.8,-1.8 8.7,-3.2 14.1,-4.4 z m 32.3,-12.6 c -0.6,1.1 -2.1,0.1 -1.6,-0.8 0.4,-1 2.2,-0.4 1.6,0.8 z m -0.6,-3.9 c 0.1,-1 1.9,-1.1 1.8,0.2 -0.3,1.3 -2,0.8 -1.8,-0.2 z m 1.6,-3.6 c 0.2,1.3 -1.6,1.4 -1.8,0.4 -0.2,-1 1.5,-1.7 1.8,-0.4 z m -1.5,-3.5 c 0.7,1.1 -0.9,1.9 -1.5,1 -0.6,-0.8 0.7,-2.1 1.5,-1 z m -1.7,14.1 c -0.9,0.9 -2,-0.6 -1.3,-1.3 0.7,-0.8 2.1,0.3 1.3,1.3 z m -1,-16.8 c 1,0.8 -0.2,2.1 -1,1.5 -0.9,-0.7 -0.1,-2.3 1,-1.5 z m -2,19 c -1.1,0.6 -1.8,-1.1 -0.9,-1.6 0.9,-0.5 2,0.9 0.9,1.6 z M 797.4,596 c 1.2,0.5 0.4,2.1 -0.6,1.7 -1.1,-0.3 -0.7,-2.1 0.6,-1.7 z m -2.3,22.1 c -1.3,0.2 -1.4,-1.6 -0.4,-1.7 1,-0.3 1.7,1.4 0.4,1.7 z m -1.4,-22.9 c 1.3,0.2 0.9,1.9 -0.2,1.8 -1,-0.1 -1.1,-1.9 0.2,-1.8 z m -2.3,23.2 c -1.3,-0.2 -0.8,-1.9 0.2,-1.8 1,0.1 1.1,1.9 -0.2,1.8 z M 790,595.3 c 1.2,-0.1 1.3,1.6 0.3,1.8 -1.1,0.2 -1.5,-1.6 -0.3,-1.8 z m -1.5,20.4 c 0.9,0.4 0.3,2.2 -0.9,1.5 -1.1,-0.7 0.1,-2.1 0.9,-1.5 z m -2.1,-19.5 c 1.2,-0.4 1.6,1.4 0.6,1.7 -1.1,0.4 -1.7,-1.3 -0.6,-1.7 z m -0.1,17.3 c 0.5,0.8 -0.7,2.1 -1.5,0.9 -0.6,-1.2 1.1,-1.7 1.5,-0.9 z m -3.2,-15.9 c 1.1,-0.5 1.8,1.1 0.8,1.6 -1,0.5 -1.9,-1.1 -0.8,-1.6 z m -3.2,1.8 c 1,-0.6 1.9,0.9 1,1.5 -0.9,0.6 -2,-0.9 -1,-1.5 z m -2.9,2 c 1,-0.7 2,0.8 1.1,1.4 -0.9,0.7 -2,-0.7 -1.1,-1.4 z m -2.8,2.2 c 0.9,-0.7 2,0.7 1.1,1.4 -0.8,0.7 -2,-0.7 -1.1,-1.4 z m -2.7,2.3 c 0.9,-0.8 2.1,0.6 1.2,1.3 -0.8,0.8 -2,-0.5 -1.2,-1.3 z m -2.5,2.4 c 0.8,-0.8 2.1,0.5 1.3,1.3 -0.8,0.8 -2.2,-0.4 -1.3,-1.3 z m -2.4,2.6 c 0.8,-0.9 2.1,0.3 1.4,1.2 -0.8,0.9 -2.2,-0.3 -1.4,-1.2 z m -2.3,2.8 c 0.7,-0.9 2.1,0.2 1.4,1.1 -0.6,0.9 -2.1,-0.1 -1.4,-1.1 z m -2,2.9 c 0.7,-1 2.1,0 1.5,1 -0.6,0.9 -2.2,0 -1.5,-1 z m -1.9,3.1 c 0.6,-1 2.1,-0.1 1.6,0.9 -0.5,0.9 -2.1,0.1 -1.6,-0.9 z m -1.5,3.2 c 0.5,-1.1 2.1,-0.3 1.6,0.7 -0.4,1 -2.1,0.4 -1.6,-0.7 z"
           id="path15"
           inkscape:connector-curvature="0"
           style="fill:none" /><path
           class="noFillSVG"
           d="m 126.4,620.9 c 1.2,-0.9 1.9,-2.2 2.4,-3.4 0.4,-1.2 0.4,-2.4 0.3,-3.3 -0.3,-1.9 -1.2,-2.8 -1,-3 0.1,-0.1 1.4,0.5 2.2,2.7 0.7,2 0.6,5.6 -2,8.6 4.5,-0.3 8.8,0.4 12.8,1.2 5.4,1.2 10.3,2.7 14.3,4.5 3.1,1.4 5.6,3 7.4,4.5 -0.7,-1.9 -1.2,-3.7 -1.7,-5.3 -0.7,-2.7 -1.1,-4.9 -1.4,-6.5 -1.8,-3.2 -4,-6.3 -6.4,-9.2 -5.8,-7.2 -13.3,-13.1 -19.4,-16.5 -6.1,-3.4 -10.6,-3.7 -10.9,-3.7 -0.2,0 -1.4,-0.2 -3.2,-0.1 -1.9,0.1 -4.4,0.6 -7,2.4 -2.6,1.7 -5.2,4.5 -6.5,8.2 -0.6,1.8 -0.9,3.8 -0.8,5.8 0.2,2 0.8,4.1 1.7,6 1.9,3.8 5.3,6.9 9.1,8.2 3.6,1.3 7.7,0.8 10.1,-1.1 z m 28.1,2.1 c 0.5,1.1 -1.2,1.7 -1.6,0.7 -0.5,-1 1.1,-1.8 1.6,-0.7 z m -1.6,-3.2 c 0.6,1 -1,1.8 -1.6,0.9 -0.5,-1 1.1,-1.9 1.6,-0.9 z m -1.8,-3.1 c 0.6,1 -0.9,1.9 -1.5,1 -0.6,-0.9 0.9,-2 1.5,-1 z m -2,-2.9 c 0.7,0.9 -0.8,2 -1.4,1.1 -0.7,-0.9 0.7,-2 1.4,-1.1 z m -2.2,-2.7 c 0.8,0.9 -0.6,2 -1.4,1.2 -0.7,-0.9 0.6,-2.1 1.4,-1.2 z m -2.4,-2.6 c 0.8,0.9 -0.5,2.1 -1.3,1.3 -0.8,-0.9 0.4,-2.1 1.3,-1.3 z m -2.6,-2.5 c 0.9,0.8 -0.4,2.1 -1.2,1.3 -0.8,-0.7 0.3,-2.1 1.2,-1.3 z m -2.7,-2.3 c 0.9,0.8 -0.3,2.1 -1.1,1.4 -0.9,-0.7 0.2,-2.1 1.1,-1.4 z m -2.8,-2.1 c 0.9,0.7 -0.1,2.1 -1.1,1.4 -0.8,-0.7 0.2,-2.1 1.1,-1.4 z m -2.9,-2 c 1,0.6 0,2.1 -1,1.5 -0.9,-0.6 0,-2.2 1,-1.5 z m -3.1,-1.8 c 1.1,0.6 0.2,2.1 -0.8,1.6 -1,-0.5 -0.3,-2.1 0.8,-1.6 z m -1.8,16.6 c -0.8,1.1 -2.1,-0.2 -1.5,-0.9 0.4,-0.9 2.1,-0.3 1.5,0.9 z m -1.5,-18 c 1.1,0.4 0.4,2.1 -0.6,1.7 -1,-0.3 -0.5,-2.1 0.6,-1.7 z m -2.1,19.1 c 0.8,-0.5 2,0.8 0.9,1.5 -1.2,0.6 -1.8,-1.1 -0.9,-1.5 z m -1.4,-20 c 1.2,0.2 0.8,1.9 -0.3,1.8 -1,-0.1 -1,-1.9 0.3,-1.8 z m -1.6,20.9 c 1,-0.1 1.5,1.6 0.2,1.8 -1.3,0 -1.2,-1.8 -0.2,-1.8 z m -11.3,-12 c -0.2,1 -2,0.9 -1.8,-0.4 0.3,-1.2 2,-0.5 1.8,0.4 z m -1.9,3.4 c -0.1,-1.3 1.7,-1.2 1.8,-0.2 0.1,1 -1.6,1.5 -1.8,0.2 z m 1.1,3.6 c -0.5,-1.2 1.2,-1.7 1.6,-0.8 0.4,0.8 -1,1.9 -1.6,0.8 z m 0.5,-10.8 c 0.8,-1 2.1,0.2 1.5,1 -0.5,0.9 -2.2,0.1 -1.5,-1 z m 1.7,13.8 c -0.9,-0.9 0.6,-2 1.3,-1.3 0.7,0.7 -0.4,2.2 -1.3,1.3 z m 2,-15 c -0.8,0.6 -2.1,-0.7 -1,-1.5 1,-0.7 1.8,0.9 1,1.5 z m 0.9,17.2 c -1.1,-0.6 0,-2.1 0.9,-1.6 0.9,0.5 0.2,2.2 -0.9,1.6 z m 1.9,-18.7 c -1,0.4 -1.8,-1.2 -0.6,-1.7 1.2,-0.3 1.6,1.4 0.6,1.7 z m 1.6,20 c -1.2,-0.3 -0.6,-2 0.4,-1.7 1,0.1 0.8,1.9 -0.4,1.7 z m 1.4,-22.5 c 1.2,-0.1 1.2,1.7 0.2,1.8 -1.1,0.2 -1.4,-1.6 -0.2,-1.8 z"
           id="path17"
           inkscape:connector-curvature="0"
           style="fill:none" /><path
           d="m 675.6,500.2 c 0,-122 -99.3,-221.3 -221.3,-221.3 -122,0 -221.3,99.3 -221.3,221.3 0,122 99.3,221.3 221.3,221.3 122,0 221.3,-99.3 221.3,-221.3 z M 454.3,716.1 c -119.1,0 -216,-96.9 -216,-216 0,-119.1 96.9,-216 216,-216 119.1,0 216,96.9 216,216 0,119.1 -97,216 -216,216 z"
           id="path19"
           inkscape:connector-curvature="0" /><path
           d="m 454.3,287.1 c -117.5,0 -213.1,95.6 -213.1,213.1 0,117.5 95.6,213.1 213.1,213.1 117.5,0 213.1,-95.6 213.1,-213.1 0,-117.5 -95.6,-213.1 -213.1,-213.1 z m 0,424.4 C 337.8,711.5 243,616.7 243,500.2 c 0,-116.5 94.8,-211.3 211.3,-211.3 116.5,0 211.3,94.8 211.3,211.3 0,116.5 -94.8,211.3 -211.3,211.3 z"
           id="path21"
           inkscape:connector-curvature="0" /><path
           d="m 733,686.6 c -3.1,0 -134,1.4 -134,3.1 0,1.7 130.9,3.1 134,3.1 3.1,0 133.9,-1.4 133.9,-3.1 0,-1.7 -130.8,-3.1 -133.9,-3.1 z"
           id="path23"
           inkscape:connector-curvature="0" /><path
           d="m 684.8,592.9 c -0.7,3 -0.9,6.1 -0.4,9.1 0.5,3.1 2,6 3.9,8.2 1.9,2.3 4.3,4.1 6.7,5.4 5,2.7 10.6,3.7 15.7,2.8 2.6,-0.4 5,-1.3 7.1,-2.7 2.1,-1.4 3.7,-3.2 4.8,-5.2 2.3,-3.9 2.6,-8.6 0.9,-12 -1.7,-3.4 -4.7,-5.2 -7.1,-5.8 -2.5,-0.7 -4.6,-0.3 -5.9,0.2 -1.3,0.5 -1.8,1.1 -1.7,1.2 0.1,0.1 0.7,-0.3 1.9,-0.6 1.2,-0.3 3.1,-0.4 5.3,0.4 2.1,0.8 4.7,2.5 5.9,5.4 1.2,2.9 0.8,6.8 -1.3,10 -1,1.6 -2.5,3.1 -4.2,4.2 -1.8,1.1 -3.9,1.8 -6.1,2.1 -4.4,0.6 -9.4,-0.5 -13.6,-2.9 -4.2,-2.4 -7.8,-6.5 -8.5,-11.4 -0.4,-2.4 -0.2,-5 0.5,-7.5 0.6,-2.5 1.8,-4.8 3.3,-7 6,-8.6 17.5,-12.8 27,-11.3 4.8,0.8 9.3,2.8 12.9,5.6 3.7,2.7 6.6,6 8.8,9.4 4.5,6.8 6,13.7 6.4,18.6 0.4,5 -0.1,8 -0.1,8.5 -0.1,0.5 -0.2,3.6 -1.4,8.5 -1.2,4.9 -3.6,11.6 -8.1,18.7 -4.5,7 -10.9,14.5 -19.4,20.6 -1.6,1.2 -3.3,2.3 -5,3.4 0.4,-0.5 0.8,-1 1.2,-1.6 1.8,-2.6 3.3,-5.6 4.2,-8.5 0.9,-3 1.3,-6 1.2,-8.6 -0.2,-5.2 -2,-8.6 -2.1,-8.9 -0.1,-0.1 -0.5,-1.1 -1.5,-2.4 -0.9,-1.3 -2.5,-3.1 -4.7,-4.7 -2.2,-1.5 -5.2,-2.7 -8.4,-3.2 -3.2,-0.4 -6.7,-0.2 -9.9,1.1 -3.2,1.2 -6,3.3 -7.8,5.9 -1.9,2.5 -2.7,5.6 -2.4,8.2 0.3,2.5 1.5,4.4 2.5,5.3 1,1 1.9,1.2 2,1 0.1,-0.2 -0.4,-0.7 -1,-1.8 -0.6,-1 -1.2,-2.7 -1.1,-4.7 0.1,-1.9 1,-4.1 2.7,-5.9 1.7,-1.8 4,-3.2 6.5,-3.9 2.5,-0.7 5.2,-0.7 7.6,-0.2 2.4,0.6 4.5,1.6 5.9,2.8 2.9,2.4 3.9,5.1 4,5.2 0.1,0.2 1.5,2.5 2,6.6 0.2,2 0.2,4.4 -0.4,6.9 -0.6,2.5 -1.6,5.1 -3,7.6 -1.9,3.4 -4.4,6.6 -7,9 -0.6,0.3 -1.2,0.5 -1.9,0.8 0.4,-0.8 -0.9,-1.7 -1.5,-0.9 -0.4,0.5 0,1.2 0.5,1.4 -3.8,1.6 -7.8,2.9 -11.9,3.9 -10.7,2.8 -22,3.1 -32.2,1.5 -2.6,-0.4 -5,-1 -7.5,-1.6 -2.4,-0.6 -4.7,-1.4 -6.8,-2.4 -4.2,-1.9 -7.7,-4.7 -9.5,-8.2 -1.9,-3.4 -2.2,-7.3 -1,-10.2 1.1,-2.9 3.7,-4.6 5.9,-5.3 2.2,-0.7 4.1,-0.5 5.3,-0.1 1.2,0.4 1.8,0.9 1.8,0.7 0,0 -0.4,-0.7 -1.6,-1.3 -1.2,-0.6 -3.3,-1.1 -5.9,-0.5 -2.5,0.6 -5.6,2.3 -7.2,5.8 -1.6,3.4 -1.4,8 0.6,12 1.9,4.1 5.9,7.5 10.4,9.7 2.3,1.1 4.7,2 7.2,2.8 2.5,0.6 5.1,1.4 7.7,1.9 10.6,2 22.4,2 33.7,-0.7 11.4,-2.4 22.2,-7.4 31.2,-13.7 3.4,-2.3 6.5,-4.9 9.3,-7.5 0.6,-0.2 1.3,-0.4 2,-0.6 3.3,-0.8 6.8,-0.2 8.8,1 2.1,1.1 2.9,2.4 3,2.5 0.1,0.1 1.2,1.1 1.7,3.3 0.6,2.1 0.3,5.6 -1.7,7.9 -1,1.2 -2.3,2 -3.6,2.2 -0.6,0.1 -1.2,0.1 -1.8,-0.1 -0.4,-0.1 -0.9,-0.5 -1.2,-0.9 -0.7,-0.9 -0.8,-1.9 -0.7,-2.6 0.1,-0.7 0.4,-1.1 0.3,-1.3 -0.1,-0.2 -0.7,-0.1 -1.4,0.7 -0.6,0.8 -1,2.5 -0.4,4.2 0.3,0.9 1,1.8 2,2.4 0.9,0.6 2.1,0.9 3.3,0.9 2.4,0 4.7,-1 6.5,-2.6 3.7,-3.2 4.8,-8.4 4.2,-12 -0.5,-3.8 -2.5,-6 -2.6,-6.2 -0.1,-0.1 -1.9,-2.4 -5.4,-3.7 -2.1,-0.9 -4.8,-1.3 -7.5,-1.1 2.4,-2.8 4.5,-5.6 6.4,-8.3 2.8,-4.3 4.9,-8.6 6.5,-12.4 0.1,-0.1 0.2,-0.1 0.3,-0.2 2,-1.5 5,-3.2 9,-4.6 3.9,-1.4 8.8,-2.5 14.1,-3.3 5.2,-0.8 10.9,-1.2 16,0.3 2.5,0.7 4.8,2 6.6,3.7 1.8,1.7 3.1,3.8 4,6.1 0.4,1 0.7,2.1 1,3.1 0,2 0.3,4.5 0.9,7.4 0.1,0.5 0.3,1.1 0.4,1.6 0,0.6 0.1,1.1 0.1,1.7 0.1,4.2 -0.5,7.6 -1.2,9.9 -0.7,2.3 -1.4,3.5 -1.5,3.8 -0.1,0.2 -0.7,1.6 -2.1,3.5 -1.4,1.9 -3.7,4.4 -7.2,6.4 -3.4,2 -8,3.2 -12.8,2.5 -4.8,-0.6 -9.5,-3.3 -12.1,-7.8 -1.3,-2.2 -2,-4.7 -2.1,-7.2 -0.1,-2.5 0.7,-4.8 2,-6.9 1.3,-2 3.1,-3.7 5,-4.7 1.9,-1.1 4.1,-1.4 6,-1.3 1.9,0.1 3.6,0.8 4.8,1.8 1,0.8 1.5,1.9 1.8,2.9 -0.9,0 -1.1,1.2 -0.5,1.6 0.2,0.2 0.5,0.2 0.7,0.1 0,1.5 -0.6,2.4 -0.4,2.5 0.1,0.1 0.4,-0.2 0.8,-0.8 0.4,-0.6 0.8,-1.6 0.7,-3 0,-1.4 -0.5,-3.1 -1.9,-4.6 -1.3,-1.5 -3.4,-2.5 -5.7,-2.9 -2.3,-0.4 -5,-0.1 -7.5,1 -2.5,1.1 -4.8,3 -6.6,5.4 -1.7,2.4 -3,5.5 -3,8.7 -0.1,3.2 0.7,6.5 2.2,9.3 1.5,2.9 3.7,5.4 6.4,7.2 2.7,1.8 5.7,3 8.7,3.5 6,1.1 11.9,-0.3 16.3,-2.6 4.4,-2.3 7.4,-5.3 9.3,-7.7 1.9,-2.4 2.7,-4.1 2.8,-4.4 0.1,-0.3 1,-2 1.8,-4.9 0.2,-0.5 0.3,-1.2 0.4,-1.8 2.6,3.9 6.1,7.5 10.4,10.1 4.6,2.8 9.9,4.4 15.1,4.7 2.6,0.1 5.1,0 7.5,-0.5 2.4,-0.5 4.6,-1.3 6.5,-2.1 3.9,-1.8 6.7,-4.4 8.4,-6.5 1.7,-2.2 2.4,-3.8 2.5,-4 0.1,-0.2 0.9,-1.8 1.4,-4.4 0.5,-2.6 0.8,-6.5 -0.5,-10.8 -1.3,-4.3 -4.5,-8.7 -9.1,-11.4 -4.5,-2.8 -10.7,-3.9 -16.1,-2.1 -2.7,0.9 -5.2,2.4 -7.1,4.5 -1.9,2.1 -3.1,5 -3.2,7.6 -0.2,2.7 0.5,5.3 1.9,7.4 1.3,2.1 3.5,3.5 5.6,3.9 4.3,0.8 7.6,-1.3 9,-3.1 1.5,-1.9 1.2,-3.4 1.1,-3.4 -0.1,0 -0.3,0.3 -0.6,0.9 -0.2,-0.2 -0.5,-0.4 -0.8,-0.3 -0.4,0.1 -0.6,0.6 -0.5,1 0,0.2 0.1,0.4 0.3,0.6 -0.1,0.1 -0.2,0.2 -0.3,0.3 -0.7,0.7 -1.8,1.3 -3.1,1.7 -1.3,0.4 -2.9,0.5 -4.4,0 -1.5,-0.4 -2.9,-1.5 -3.7,-3.1 -0.9,-1.6 -1.3,-3.6 -1,-5.5 0.3,-2 1.1,-3.8 2.6,-5.3 1.5,-1.5 3.4,-2.5 5.5,-3 4.2,-1.1 8.8,0 12.2,2.3 3.5,2.3 5.6,5.7 6.4,8.7 0.9,3.1 0.5,6 0.1,7.9 -0.5,1.9 -1.1,3 -1.1,3.2 -0.1,0.2 -0.5,1.3 -1.7,2.9 -1.1,1.6 -3.2,3.6 -6.2,5.2 -1.5,0.8 -3.2,1.5 -5.1,1.9 -1.9,0.4 -4,0.7 -6.1,0.7 -4.3,0 -9,-1.2 -13.1,-3.4 -4.1,-2.2 -7.6,-5.5 -10.3,-9.1 -0.6,-0.8 -1.1,-1.7 -1.7,-2.5 0.1,-1.5 0.1,-3.1 0,-4.7 -0.1,-2.4 -0.4,-4.8 -0.9,-7.4 -0.5,-2.6 -1.2,-5.4 -2.4,-8.1 -1.2,-2.7 -3,-5.5 -5.5,-7.6 -0.8,-0.7 -1.6,-1.2 -2.5,-1.8 0.7,-0.1 1.4,-0.2 2.1,-0.4 4.8,-1.3 9.2,-4.8 11.8,-9.4 1.3,-2.3 2.2,-4.9 2.6,-7.6 0.4,-2.7 0.1,-5.4 -0.7,-7.9 -1.5,-5 -4.7,-8.9 -8.2,-11.3 -3.4,-2.5 -7.1,-3.4 -9.7,-3.7 -2.6,-0.2 -4.2,0 -4.4,0 -0.2,0 -1.8,0.2 -4.2,0.9 -1.2,0.3 -2.5,0.8 -4,1.5 -0.1,0 -0.2,-0.1 -0.3,-0.1 -3.7,-1.4 -8,-5.2 -9.4,-10 -1.5,-4.8 0.2,-10 2.4,-13.1 2.2,-3.2 4.5,-4.5 4.6,-4.6 0.1,-0.1 0.6,-0.5 1.6,-1.1 1,-0.6 2.4,-1.2 4.1,-1.6 1.7,-0.3 3.7,-0.2 5.4,0.8 1.7,1 3.3,3 4.1,5.3 0.8,2.3 0.8,4.9 0.1,7 -0.4,1 -0.9,1.9 -1.7,2.6 -0.7,0.6 -1.5,1 -2.4,1.1 -1.8,0.3 -3.3,-0.4 -4.1,-1.1 -0.8,-0.7 -1.1,-1.4 -1.3,-1.4 -0.2,0 -0.4,0.9 0.3,2.1 0.7,1.3 2.6,2.6 5.1,2.7 1.2,0.1 2.8,-0.3 4,-1.2 1.2,-0.8 2.3,-2.1 3,-3.5 1.4,-2.8 1.7,-6.3 0.9,-9.5 -0.8,-3.2 -2.6,-6.3 -5.4,-8.3 -2.8,-2.1 -6.3,-2.4 -8.9,-2.1 -2.7,0.3 -4.7,1.2 -6.1,1.9 -1.4,0.7 -2.2,1.3 -2.3,1.4 -0.2,0.2 -3.3,2.2 -5.8,6.6 -1.2,2.2 -2.4,4.9 -2.8,8 -0.4,3.1 -0.1,6.4 1.1,9.5 2.1,5.2 6.6,8.7 10.6,10.2 -0.6,0.3 -1.2,0.6 -1.8,1 -6.6,4 -14.2,10.7 -20,18.7 -0.9,1.2 -1.7,2.4 -2.4,3.6 0,-1.2 -0.1,-2.6 -0.2,-4.3 -0.6,-5.6 -2.5,-13.5 -7.7,-21.2 -2.6,-3.8 -6,-7.6 -10.3,-10.7 -4.1,-2.9 -9,-5.2 -14.5,-6.1 -2.3,-2.3 -4.3,-5.5 -4.8,-9 -0.8,-4.9 1.9,-9.7 4.7,-12 2.8,-2.4 5.3,-2.6 5.4,-2.7 0.2,0 2.5,-0.9 5.8,0.4 1.6,0.6 3.5,1.8 5,3.5 1.5,1.7 2.6,4 2.8,6.3 0.3,2.4 -0.4,4.9 -1.7,6.4 -1.3,1.6 -3.6,2.2 -5.1,1.7 -1.6,-0.5 -2.6,-1.9 -2.9,-2.9 -0.3,-1 -0.2,-1.8 -0.4,-1.9 -0.2,-0.1 -0.8,0.5 -0.8,2 0,1.4 0.7,3.7 3.2,5 2.4,1.2 5.9,0.8 8.4,-1.5 2.5,-2.2 3.7,-5.7 3.7,-9.1 0,-3.4 -1.3,-6.7 -3.1,-9.3 -1.8,-2.6 -4.3,-4.4 -6.7,-5.6 -2.4,-1.2 -4.8,-1.5 -6.4,-1.5 -1.7,0 -2.7,0.2 -2.9,0.2 -0.1,0.1 -1.2,0.2 -2.7,0.9 -1.5,0.6 -3.5,1.8 -5.4,3.6 -1.8,1.8 -3.6,4.3 -4.6,7.3 -0.5,1.5 -0.8,3.1 -1,4.7 -0.1,1.6 0.1,3.4 0.5,5 0.8,3 2.3,5.7 4.2,7.8 -4.6,0 -9.2,0.9 -13.4,2.8 -5.5,2.4 -10.5,6.2 -13.9,11.3 -1.9,2.9 -3.2,5.7 -3.9,8.7 z m 66.7,34.9 c 0.7,-2.7 1.1,-4.9 1.4,-6.5 1.8,-3.2 4,-6.3 6.4,-9.2 5.8,-7.2 13.3,-13.1 19.4,-16.5 6.1,-3.4 10.6,-3.7 10.9,-3.7 0.2,0 1.4,-0.2 3.2,-0.1 1.9,0.1 4.4,0.6 7,2.4 2.6,1.7 5.2,4.5 6.5,8.2 0.6,1.8 0.9,3.8 0.8,5.8 -0.2,2 -0.8,4.1 -1.7,6 -1.9,3.8 -5.3,6.9 -9.1,8.2 -3.8,1.4 -7.8,0.9 -10.3,-1 -1.2,-0.9 -1.9,-2.2 -2.4,-3.4 -0.4,-1.2 -0.4,-2.4 -0.3,-3.3 0.3,-1.9 1.2,-2.8 1,-3 -0.1,-0.1 -1.4,0.5 -2.2,2.7 -0.7,2 -0.6,5.6 2,8.6 -4.5,-0.3 -8.8,0.4 -12.8,1.2 -5.4,1.2 -10.3,2.7 -14.3,4.5 -3.1,1.4 -5.6,3 -7.4,4.5 0.9,-2 1.5,-3.8 1.9,-5.4 z"
           id="path25"
           inkscape:connector-curvature="0" /><path
           d="m 746.2,540.4 c 0,0.1 1,2.1 1.7,4.3 0.8,2.2 1.4,4.5 2.2,4.6 0.8,0.1 1.8,-2.4 2.1,-5.1 0.3,-2.7 -0.1,-5.4 -0.2,-5.5 0,-0.1 -1.1,-2.7 -2.8,-4.8 -1.7,-2.1 -3.8,-3.7 -4.4,-3.2 -0.7,0.5 0.1,2.8 0.6,5.1 0.5,2.3 0.8,4.5 0.8,4.6 z"
           id="path27"
           inkscape:connector-curvature="0" /><path
           d="m 760.3,544.5 c 0.8,0.2 2.2,-2.9 3.3,-6 1.1,-3.2 1.9,-6.5 2,-6.6 0,-0.2 0.2,-3.5 0,-6.9 -0.2,-3.4 -0.7,-6.7 -1.5,-6.7 -0.8,-0.1 -1.9,3.1 -2.8,6.3 -0.9,3.2 -1.7,6.4 -1.7,6.5 0,0.1 -0.1,3.4 -0.2,6.7 -0.1,3.2 0,6.5 0.9,6.7 z"
           id="path29"
           inkscape:connector-curvature="0" /><path
           d="m 765.7,552.3 c 1.3,1.1 7.9,-4.4 8,-4.6 0.1,-0.2 4.6,-7.5 3.4,-8.6 -1.2,-1.1 -7.9,4.4 -8,4.6 -0.2,0.1 -4.7,7.5 -3.4,8.6 z"
           id="path31"
           inkscape:connector-curvature="0" /><path
           d="m 816.9,619.1 c 0.8,0.2 2.2,-2 3.4,-4.2 1.2,-2.2 2.4,-4.4 2.4,-4.5 0,-0.1 0.5,-2.5 0.9,-5 0.4,-2.5 0.7,-5 0,-5.4 -0.8,-0.4 -2.5,1.6 -4,3.8 -1.5,2.2 -2.7,4.5 -2.7,4.6 0,0.1 -0.6,2.7 -0.8,5.3 -0.2,2.6 0,5.2 0.8,5.4 z"
           id="path33"
           inkscape:connector-curvature="0" /><path
           d="m 822.5,622.8 c 1.2,1.2 6.8,-2.6 6.9,-2.7 0.1,-0.1 3.8,-5.8 2.6,-7 -1.2,-1.2 -6.8,2.6 -6.9,2.7 -0.1,0.1 -3.8,5.8 -2.6,7 z"
           id="path35"
           inkscape:connector-curvature="0" /><path
           d="m 827.7,627.8 c 0.5,1.6 8.8,0.7 9,0.6 0.2,-0.1 7.8,-3.6 7.3,-5.3 -0.5,-1.6 -8.8,-0.7 -9,-0.6 -0.1,0.1 -7.7,3.7 -7.3,5.3 z"
           id="path37"
           inkscape:connector-curvature="0" /><path
           d="m 872.7,682.7 c 0.2,-0.1 6.1,-4.8 5.3,-6.3 -0.8,-1.5 -8,0.9 -8.2,1 -0.2,0.1 -6.1,4.8 -5.3,6.3 0.8,1.5 8,-0.9 8.2,-1 z"
           id="path39"
           inkscape:connector-curvature="0" /><path
           d="m 880,688.6 c -1.5,-0.6 -3.1,-0.8 -3.1,-0.8 -0.1,0 -1.6,0.4 -3,1.2 -1.4,0.7 -2.7,1.7 -2.6,2.6 0.2,0.8 1.7,1.3 3.1,1.7 1.4,0.4 2.8,0.7 2.8,0.6 0.1,0 1.4,-0.4 2.8,-1 1.4,-0.5 2.8,-1.2 2.9,-2 0,-0.8 -1.4,-1.7 -2.9,-2.3 z"
           id="path41"
           inkscape:connector-curvature="0" /><path
           d="m 866.7,697.6 c -1.2,1.2 2.4,6.6 2.5,6.7 0.1,0.1 5.6,3.5 6.7,2.3 1.2,-1.2 -2.4,-6.6 -2.5,-6.7 -0.1,-0.1 -5.5,-3.5 -6.7,-2.3 z"
           id="path43"
           inkscape:connector-curvature="0" /><path
           d="m 44.5,689.2 c 0,1.7 131.4,3.1 134.5,3.1 3.1,0 134.6,-1.4 134.6,-3.1 0,-1.7 -131.5,-3.1 -134.6,-3.1 -3.1,0.1 -134.5,1.4 -134.5,3.1 z"
           id="path45"
           inkscape:connector-curvature="0" /><path
           d="m 56.2,662.1 c 0.1,0.2 0.8,1.8 2.5,4 1.7,2.2 4.5,4.7 8.4,6.5 2,0.9 4.1,1.7 6.5,2.1 2.4,0.5 4.9,0.6 7.5,0.5 5.2,-0.3 10.4,-1.9 15.1,-4.7 4.3,-2.6 7.9,-6.3 10.4,-10.1 0.1,0.6 0.3,1.2 0.4,1.8 0.8,2.9 1.7,4.6 1.8,4.9 0.2,0.3 0.9,2 2.8,4.4 1.8,2.4 4.9,5.4 9.3,7.7 4.4,2.3 10.2,3.6 16.3,2.6 3,-0.5 6,-1.7 8.7,-3.5 2.7,-1.8 4.9,-4.4 6.4,-7.2 1.5,-2.9 2.3,-6.1 2.2,-9.3 -0.1,-3.2 -1.3,-6.3 -3,-8.7 -1.8,-2.4 -4.1,-4.3 -6.6,-5.4 -2.5,-1.1 -5.2,-1.4 -7.5,-1 -2.3,0.4 -4.4,1.5 -5.7,2.9 -1.4,1.5 -1.9,3.2 -1.9,4.6 0,1.4 0.4,2.4 0.7,3 0.4,0.6 0.7,0.8 0.8,0.8 0.2,-0.1 -0.7,-1.4 -0.3,-3.7 0.2,-1.1 0.8,-2.4 2,-3.4 1.1,-1 2.8,-1.7 4.8,-1.8 1.9,-0.1 4,0.2 6,1.3 2,1 3.7,2.7 5,4.7 1.3,2 2,4.4 2,6.9 0,2.5 -0.8,5 -2.1,7.2 -2.6,4.5 -7.3,7.2 -12.1,7.8 -4.8,0.6 -9.4,-0.6 -12.8,-2.5 -3.4,-1.9 -5.8,-4.4 -7.2,-6.4 -1.4,-1.9 -2,-3.3 -2.1,-3.5 -0.1,-0.2 -0.8,-1.5 -1.5,-3.8 -0.7,-2.3 -1.3,-5.7 -1.2,-9.9 0,-0.5 0,-1.1 0.1,-1.7 0.1,-0.5 0.3,-1.1 0.4,-1.6 0.6,-2.9 0.8,-5.4 0.9,-7.4 0.3,-1.1 0.6,-2.1 1,-3.1 0.9,-2.3 2.2,-4.4 4,-6.1 1.8,-1.7 4.1,-2.9 6.6,-3.7 5.1,-1.4 10.8,-1.1 16,-0.3 5.2,0.9 10.1,1.9 14.1,3.3 4,1.4 7,3.2 9,4.6 0.1,0.1 0.2,0.1 0.3,0.2 1.6,3.8 3.7,8.1 6.5,12.4 1.8,2.7 4,5.6 6.4,8.3 -2.7,-0.2 -5.4,0.2 -7.5,1.1 -3.5,1.3 -5.3,3.6 -5.4,3.7 -0.1,0.1 -2.1,2.4 -2.6,6.2 -0.6,3.7 0.6,8.8 4.2,12 1.8,1.6 4.1,2.6 6.5,2.6 1.2,0 2.4,-0.3 3.3,-0.9 1,-0.7 1.7,-1.6 2,-2.4 0.7,-1.7 0.3,-3.4 -0.4,-4.2 -0.7,-0.8 -1.3,-0.9 -1.4,-0.7 -0.1,0.2 0.2,0.6 0.3,1.3 0.1,0.7 0,1.7 -0.7,2.6 -0.3,0.4 -0.8,0.8 -1.2,0.9 -0.5,0.2 -1.1,0.2 -1.8,0.1 -1.3,-0.2 -2.7,-1.1 -3.6,-2.2 -2,-2.3 -2.4,-5.8 -1.7,-7.9 0.6,-2.2 1.7,-3.2 1.7,-3.3 0.1,-0.1 0.9,-1.4 3,-2.5 2,-1.1 5.5,-1.8 8.8,-1 0.7,0.1 1.3,0.4 2,0.6 2.8,2.7 5.9,5.2 9.3,7.5 9.1,6.3 19.8,11.3 31.2,13.7 11.3,2.7 23.1,2.7 33.7,0.7 2.7,-0.5 5.2,-1.2 7.7,-1.9 2.5,-0.8 4.9,-1.6 7.2,-2.8 4.5,-2.2 8.4,-5.6 10.4,-9.7 2,-4 2.2,-8.6 0.6,-12 -1.6,-3.5 -4.7,-5.2 -7.2,-5.8 -2.5,-0.6 -4.7,-0.1 -5.9,0.5 -1.2,0.7 -1.6,1.3 -1.6,1.3 0.1,0.1 0.7,-0.3 1.8,-0.7 1.2,-0.4 3.1,-0.6 5.3,0.1 2.1,0.7 4.7,2.4 5.9,5.3 1.2,2.9 0.9,6.8 -1,10.2 -1.8,3.5 -5.3,6.3 -9.5,8.2 -2.1,1 -4.4,1.7 -6.8,2.4 -2.4,0.5 -4.9,1.2 -7.5,1.6 -10.2,1.6 -21.5,1.3 -32.2,-1.5 -3.7,-0.9 -7.3,-2.1 -10.8,-3.5 0.4,-0.3 0.6,-0.8 0.2,-1.2 -0.6,-0.7 -1.6,-0.1 -1.6,0.7 -0.9,-0.4 -1.8,-0.7 -2.6,-1.1 -2.5,-2.4 -5,-5.6 -7,-9 -1.4,-2.5 -2.4,-5.1 -3,-7.6 -0.6,-2.5 -0.6,-4.9 -0.4,-6.9 0.5,-4 1.9,-6.4 2,-6.6 0.1,-0.1 1.1,-2.9 4,-5.2 1.5,-1.2 3.6,-2.2 5.9,-2.8 2.4,-0.5 5.1,-0.5 7.6,0.2 2.5,0.7 4.8,2.1 6.5,3.9 1.7,1.8 2.6,4 2.7,5.9 0.1,1.3 -0.2,2.5 -0.5,3.4 -0.1,-1.3 -1.8,-0.8 -1.8,0.1 0,0.6 0.9,1.1 1.5,0.7 -0.1,0.2 -0.2,0.3 -0.2,0.5 -0.6,1.1 -1.1,1.6 -1,1.8 0.1,0.2 0.9,0 2,-1 1,-1 2.2,-2.8 2.5,-5.3 0.3,-2.5 -0.5,-5.6 -2.4,-8.2 -1.8,-2.5 -4.6,-4.7 -7.8,-5.9 -3.2,-1.2 -6.7,-1.5 -9.9,-1.1 -3.2,0.5 -6.1,1.6 -8.4,3.2 -2.3,1.5 -3.8,3.3 -4.7,4.7 -1,1.3 -1.4,2.3 -1.5,2.4 -0.1,0.3 -1.9,3.7 -2.1,8.9 -0.1,2.6 0.2,5.6 1.2,8.6 0.9,3 2.4,5.9 4.2,8.5 0.4,0.5 0.8,1.1 1.2,1.6 -1.7,-1.1 -3.4,-2.2 -5,-3.4 -8.4,-6.1 -14.8,-13.6 -19.4,-20.6 -4.4,-7.1 -6.9,-13.8 -8.1,-18.7 -1.2,-4.9 -1.3,-8 -1.4,-8.5 0,-0.5 -0.4,-3.6 -0.1,-8.5 0.4,-4.9 1.9,-11.8 6.4,-18.6 2.2,-3.4 5.1,-6.7 8.8,-9.4 3.6,-2.7 8.1,-4.8 12.9,-5.6 9.6,-1.5 21,2.7 27,11.3 1.4,2.1 2.7,4.5 3.3,7 0.7,2.5 0.9,5.1 0.5,7.5 -0.7,4.9 -4.2,8.9 -8.5,11.4 -4.2,2.5 -9.2,3.5 -13.6,2.9 -2.2,-0.3 -4.3,-1 -6.1,-2.1 -1.8,-1.1 -3.2,-2.6 -4.2,-4.2 -2.1,-3.3 -2.5,-7.2 -1.3,-10 1.2,-2.9 3.7,-4.6 5.9,-5.4 2.2,-0.8 4.1,-0.7 5.3,-0.4 1.2,0.3 1.8,0.7 1.9,0.6 0,0 -0.4,-0.6 -1.7,-1.2 -1.2,-0.5 -3.4,-0.9 -5.9,-0.2 -2.5,0.7 -5.5,2.4 -7.1,5.8 -1.6,3.4 -1.4,8.1 0.9,12 1.1,2 2.7,3.8 4.8,5.2 2.1,1.4 4.5,2.3 7.1,2.7 5.1,0.8 10.7,-0.1 15.7,-2.8 2.5,-1.3 4.8,-3.1 6.7,-5.4 1.9,-2.3 3.4,-5.2 3.9,-8.2 0.6,-3.1 0.4,-6.2 -0.4,-9.1 -0.6,-3 -2,-5.8 -3.7,-8.4 -3.4,-5.1 -8.4,-9 -13.9,-11.3 -4.3,-1.8 -8.9,-2.8 -13.4,-2.8 1.9,-2.1 3.4,-4.8 4.2,-7.8 0.4,-1.6 0.5,-3.3 0.5,-5 -0.1,-1.6 -0.4,-3.3 -1,-4.7 -1,-3 -2.8,-5.5 -4.6,-7.3 -1.8,-1.8 -3.8,-3 -5.4,-3.6 -1.5,-0.7 -2.6,-0.8 -2.7,-0.9 -0.2,0 -1.2,-0.2 -2.9,-0.2 -1.7,0 -4,0.3 -6.4,1.5 -2.4,1.1 -4.9,3 -6.7,5.6 -1.9,2.5 -3.2,5.9 -3.1,9.3 0,3.4 1.2,6.8 3.7,9.1 2.5,2.2 6,2.7 8.4,1.5 2.5,-1.3 3.2,-3.6 3.2,-5 0,-1.5 -0.7,-2.1 -0.8,-2 -0.1,0 -0.1,0.2 -0.1,0.4 0,-0.1 -0.1,-0.1 -0.1,-0.1 0,0 0,0.2 0.1,0.4 0,0.1 0,0.3 -0.1,0.4 -0.1,-0.4 -0.3,-0.7 -0.3,-0.7 -0.1,0 0.1,0.5 0.3,1 0,0.2 -0.1,0.3 -0.1,0.5 -0.3,1 -1.3,2.5 -2.9,2.9 -1.6,0.5 -3.8,-0.1 -5.1,-1.7 -1.4,-1.6 -2,-4.1 -1.7,-6.4 0.2,-2.4 1.3,-4.6 2.8,-6.3 1.5,-1.8 3.3,-2.9 5,-3.5 3.4,-1.3 5.7,-0.4 5.8,-0.4 0.1,0.1 2.6,0.2 5.4,2.7 2.8,2.3 5.5,7.1 4.7,12 -0.5,3.5 -2.5,6.7 -4.8,9 -5.4,0.9 -10.4,3.1 -14.5,6.1 -4.3,3.1 -7.7,6.8 -10.3,10.7 -5.2,7.7 -7.1,15.6 -7.7,21.2 -0.1,1.6 -0.2,3 -0.2,4.3 -0.8,-1.2 -1.6,-2.4 -2.4,-3.6 -5.8,-8.1 -13.4,-14.7 -20,-18.7 -0.6,-0.4 -1.2,-0.7 -1.8,-1 4,-1.5 8.5,-5 10.6,-10.2 1.2,-3.1 1.5,-6.4 1.1,-9.5 -0.4,-3.1 -1.5,-5.8 -2.8,-8 -2.5,-4.4 -5.6,-6.4 -5.8,-6.6 -0.1,-0.1 -0.9,-0.6 -2.3,-1.4 -1.4,-0.7 -3.5,-1.5 -6.1,-1.9 -2.6,-0.3 -6.1,0.1 -8.9,2.1 -2.8,2 -4.7,5.1 -5.4,8.3 -0.8,3.2 -0.5,6.7 0.9,9.5 0.7,1.4 1.8,2.7 3,3.5 1.3,0.9 2.8,1.2 4,1.2 2.6,-0.1 4.4,-1.5 5.1,-2.7 0.7,-1.3 0.5,-2.1 0.3,-2.1 -0.2,-0.1 -0.5,0.7 -1.3,1.4 -0.8,0.7 -2.3,1.4 -4.1,1.1 -0.9,-0.1 -1.7,-0.5 -2.4,-1.1 -0.7,-0.7 -1.3,-1.5 -1.7,-2.6 -0.8,-2.1 -0.7,-4.7 0.1,-7 0.8,-2.3 2.3,-4.3 4.1,-5.3 1.7,-1 3.7,-1.1 5.4,-0.8 1.7,0.3 3.1,1 4.1,1.6 1,0.6 1.5,1 1.6,1.1 0.1,0.1 2.4,1.4 4.6,4.6 2.2,3.1 3.8,8.3 2.4,13.1 -1.4,4.8 -5.7,8.6 -9.4,10 -0.1,0 -0.2,0.1 -0.3,0.1 -1.5,-0.6 -2.8,-1.1 -4,-1.5 -2.4,-0.7 -4,-0.9 -4.2,-0.9 -0.3,0 -1.8,-0.3 -4.4,0 -2.6,0.2 -6.3,1.2 -9.7,3.7 -3.4,2.4 -6.7,6.3 -8.2,11.3 -0.7,2.5 -1,5.2 -0.7,7.9 0.4,2.7 1.3,5.2 2.6,7.6 2.6,4.6 7.1,8.1 11.8,9.4 0.7,0.2 1.4,0.3 2.1,0.4 -0.9,0.5 -1.7,1.1 -2.5,1.8 -2.5,2.1 -4.3,4.9 -5.5,7.6 -1.2,2.8 -2,5.5 -2.4,8.1 -0.5,2.6 -0.8,5.1 -0.9,7.4 -0.1,1.7 -0.1,3.2 0,4.7 -0.5,0.8 -1.1,1.7 -1.7,2.5 -2.6,3.6 -6.1,6.9 -10.3,9.1 -4.1,2.2 -8.8,3.4 -13.1,3.4 -2.2,0 -4.2,-0.2 -6.1,-0.7 -1.9,-0.5 -3.6,-1.2 -5.1,-1.9 -3,-1.6 -5.1,-3.6 -6.2,-5.2 -1.1,-1.6 -1.6,-2.7 -1.7,-2.9 -0.1,-0.2 -0.6,-1.2 -1.1,-3.2 -0.5,-1.9 -0.8,-4.8 0.1,-7.9 0.8,-3.1 3,-6.5 6.4,-8.7 3.4,-2.3 8,-3.4 12.2,-2.3 2.1,0.5 4.1,1.6 5.5,3 1.5,1.5 2.4,3.3 2.6,5.3 0.3,2 -0.1,4 -1,5.5 -0.9,1.6 -2.2,2.7 -3.7,3.1 -1.5,0.5 -3.1,0.4 -4.4,0 -1,-0.3 -1.9,-0.8 -2.6,-1.3 0.3,-0.1 0.5,-0.4 0.5,-0.6 0,-0.5 -0.2,-0.9 -0.6,-1 -0.4,-0.1 -0.8,0.1 -1.1,0.5 0,0 0,0 0,0.1 -0.9,-1.1 -1.1,-1.9 -1.3,-1.9 -0.1,0 -0.4,1.5 1.1,3.4 1.4,1.9 4.7,3.9 9,3.1 2.1,-0.4 4.3,-1.8 5.6,-3.9 1.4,-2.1 2.1,-4.7 1.9,-7.4 -0.1,-2.7 -1.3,-5.5 -3.2,-7.6 -1.9,-2.2 -4.4,-3.7 -7.1,-4.5 -5.5,-1.8 -11.6,-0.7 -16.1,2.1 -4.6,2.7 -7.8,7.1 -9.1,11.4 -1.4,4.3 -1.1,8.1 -0.5,10.8 0.1,2.2 0.9,3.8 1,4 z m 59.9,-40.2 c -3.8,-1.3 -7.2,-4.4 -9.1,-8.2 -0.9,-1.9 -1.5,-4 -1.7,-6 -0.2,-2 0.1,-4 0.8,-5.8 1.3,-3.7 3.9,-6.5 6.5,-8.2 2.7,-1.7 5.2,-2.2 7,-2.4 1.9,-0.1 3.1,0.1 3.2,0.1 0.3,0 4.8,0.3 10.9,3.7 6.1,3.4 13.5,9.2 19.4,16.5 2.4,2.9 4.6,6.1 6.4,9.2 0.2,1.6 0.6,3.8 1.4,6.5 0.4,1.6 1,3.4 1.7,5.3 -1.8,-1.5 -4.3,-3.1 -7.4,-4.5 -4,-1.8 -8.9,-3.3 -14.3,-4.5 -3.9,-0.9 -8.3,-1.5 -12.8,-1.2 2.7,-3 2.8,-6.5 2,-8.6 -0.8,-2.2 -2.1,-2.8 -2.2,-2.7 -0.2,0.2 0.7,1.1 1,3 0.1,0.9 0.1,2.1 -0.3,3.3 -0.4,1.2 -1.2,2.5 -2.4,3.4 -2.2,2 -6.3,2.5 -10.1,1.1 z"
           id="path47"
           inkscape:connector-curvature="0" /><path
           d="m 162.4,548.8 c 0.8,-0.1 1.4,-2.5 2.2,-4.6 0.8,-2.2 1.7,-4.2 1.7,-4.3 0,-0.1 0.3,-2.3 0.8,-4.6 0.5,-2.3 1.2,-4.6 0.6,-5.1 -0.7,-0.5 -2.8,1 -4.4,3.2 -1.7,2.1 -2.8,4.7 -2.8,4.8 0,0.1 -0.5,2.9 -0.2,5.5 0.3,2.8 1.3,5.2 2.1,5.1 z"
           id="path49"
           inkscape:connector-curvature="0" /><path
           d="m 149,538 c 1.1,3.2 2.5,6.2 3.3,6 0.8,-0.2 0.9,-3.5 0.9,-6.8 0,-3.3 -0.1,-6.6 -0.2,-6.7 0,-0.1 -0.8,-3.3 -1.7,-6.5 -0.9,-3.2 -1.9,-6.3 -2.8,-6.3 -0.8,0.1 -1.3,3.4 -1.5,6.7 -0.2,3.4 0,6.7 0,6.9 0,0.3 0.8,3.5 2,6.7 z"
           id="path51"
           inkscape:connector-curvature="0" /><path
           d="m 146.9,551.8 c 1.3,-1.1 -3.2,-8.4 -3.4,-8.6 -0.1,-0.2 -6.7,-5.7 -8,-4.6 -1.3,1.1 3.2,8.4 3.4,8.6 0.1,0.2 6.7,5.7 8,4.6 z"
           id="path53"
           inkscape:connector-curvature="0" /><path
           d="m 89.9,610 c 0,0.1 1.2,2.3 2.4,4.5 1.2,2.2 2.6,4.4 3.4,4.2 0.8,-0.2 0.9,-2.8 0.7,-5.4 -0.2,-2.6 -0.8,-5.2 -0.8,-5.3 0,-0.1 -1.2,-2.5 -2.7,-4.6 -1.5,-2.2 -3.2,-4.1 -4,-3.8 -0.8,0.4 -0.4,2.9 0,5.4 0.4,2.5 0.9,4.9 1,5 z"
           id="path55"
           inkscape:connector-curvature="0" /><path
           d="m 90.1,622.4 c 1.2,-1.2 -2.5,-6.8 -2.6,-7 -0.1,-0.1 -5.7,-3.9 -6.9,-2.7 -1.2,1.2 2.5,6.8 2.6,7 0.1,0.1 5.7,3.9 6.9,2.7 z"
           id="path57"
           inkscape:connector-curvature="0" /><path
           d="m 75.8,628 c 0.2,0.1 8.5,1 9,-0.6 0.5,-1.6 -7.2,-5.2 -7.3,-5.3 -0.2,-0.1 -8.5,-1 -9,0.6 -0.5,1.7 7.1,5.3 7.3,5.3 z"
           id="path59"
           inkscape:connector-curvature="0" /><path
           d="m 38.7,682.3 c 0.2,0.1 7.4,2.4 8.2,1 0.8,-1.5 -5.1,-6.2 -5.3,-6.3 -0.2,-0.1 -7.4,-2.4 -8.2,-1 -0.8,1.4 5.2,6.2 5.3,6.3 z"
           id="path61"
           inkscape:connector-curvature="0" /><path
           d="m 40.1,691.1 c 0.2,-0.8 -1.1,-1.8 -2.6,-2.6 -1.4,-0.7 -3,-1.2 -3,-1.2 -0.1,0 -1.6,0.3 -3.1,0.8 -1.5,0.6 -2.9,1.4 -2.8,2.3 0.1,0.8 1.5,1.5 2.9,2 1.4,0.5 2.7,1 2.8,1 0.1,0 1.4,-0.3 2.9,-0.6 1.3,-0.4 2.8,-0.9 2.9,-1.7 z"
           id="path63"
           inkscape:connector-curvature="0" /><path
           d="m 38,699.5 c -0.1,0.1 -3.7,5.5 -2.5,6.7 1.2,1.2 6.7,-2.2 6.8,-2.3 0.1,-0.1 3.7,-5.5 2.5,-6.7 -1.2,-1.2 -6.7,2.2 -6.8,2.3 z"
           id="path65"
           inkscape:connector-curvature="0" /><path
           d="m 225.8,514.7 c 0,-0.2 -2.7,-9.4 -6.1,-9.4 -3.4,0 -6.1,9.2 -6.1,9.4 0,0.2 2.7,9.4 6.1,9.4 3.3,0.1 6.1,-9.1 6.1,-9.4 z"
           id="path67"
           inkscape:connector-curvature="0" /><path
           d="m 219.7,493.7 c 1.7,-0.1 3.1,-2.5 4.1,-4.7 1.1,-2.2 1.9,-4.4 1.9,-4.5 0,-0.1 -0.6,-2.3 -1.5,-4.6 -0.9,-2.3 -2.1,-4.8 -3.7,-5 -1.7,-0.3 -3.5,1.9 -4.9,4.2 -1.3,2.3 -2.1,4.8 -2.1,4.9 0,0.1 0.6,2.7 1.7,5.1 1.1,2.4 2.8,4.7 4.5,4.6 z"
           id="path69"
           inkscape:connector-curvature="0" /><path
           d="m 221.5,464.1 c 1.7,0 3.2,-2.1 4.5,-3.9 1.2,-1.9 2.2,-3.7 2.2,-3.8 0,-0.1 -0.4,-2.1 -1,-4.3 -0.7,-2.2 -1.5,-4.6 -3.1,-5.1 -1.6,-0.5 -3.7,1.2 -5.3,3.2 -1.6,2 -2.6,4.3 -2.6,4.4 0,0.1 0.3,2.6 1.3,5 0.7,2.3 2.3,4.5 4,4.5 z"
           id="path71"
           inkscape:connector-curvature="0" /><path
           d="m 227.7,434.5 c 1.6,0.4 3.6,-1.5 5.3,-3.4 1.6,-1.9 2.9,-3.9 2.9,-4 0,-0.1 0,-2.4 -0.3,-4.9 -0.4,-2.5 -1,-5.1 -2.6,-5.7 -1.6,-0.6 -3.8,1.1 -5.6,3 -1.8,1.9 -3.1,4.1 -3.2,4.2 0,0.1 -0.1,2.7 0.4,5.2 0.4,2.7 1.4,5.3 3.1,5.6 z"
           id="path73"
           inkscape:connector-curvature="0" /><path
           d="m 238.5,406.8 c 1.6,0.6 4,-1.5 6.1,-3.6 2.1,-2.1 4,-4.2 4,-4.3 0.1,-0.1 0.7,-2.9 1.1,-5.8 0.4,-2.9 0.7,-6.1 -0.7,-7 -1.4,-0.9 -4.3,0.6 -6.8,2.7 -2.5,2 -4.5,4.5 -4.6,4.6 -0.1,0.1 -0.9,3.2 -1.1,6.4 0,3.1 0.4,6.4 2,7 z"
           id="path75"
           inkscape:connector-curvature="0" /><path
           d="m 255.3,374.4 c 1.5,0.8 4,-0.7 6.2,-2.1 2.2,-1.5 4.2,-3 4.2,-3.1 0.1,-0.1 0.9,-2.4 1.6,-5 0.7,-2.6 1.3,-5.4 0,-6.6 -1.2,-1.2 -4.1,-0.3 -6.7,1 -2.6,1.4 -4.8,3.2 -4.8,3.3 -0.1,0.1 -1.2,2.8 -1.6,5.6 -0.5,3.1 -0.3,6.1 1.1,6.9 z"
           id="path77"
           inkscape:connector-curvature="0" /><path
           d="m 280,348.3 c 2.5,-1.2 4.7,-2.6 4.8,-2.7 0.1,-0.1 1.3,-2.4 2.2,-5 0.9,-2.6 1.7,-5.5 0.5,-6.7 -1.2,-1.2 -4.1,-0.5 -6.7,0.7 -2.6,1.1 -4.9,2.7 -5,2.8 -0.1,0.1 -1.4,2.6 -2.3,5.3 -0.9,2.7 -1.3,5.7 0,6.8 1.2,1 4,0 6.5,-1.2 z"
           id="path79"
           inkscape:connector-curvature="0" /><path
           d="m 300.3,325.9 c 2.1,-0.5 4,-1.1 4.1,-1.1 0.1,-0.1 1.1,-1.7 2.1,-3.7 0.9,-2 1.9,-4.3 1.1,-5.7 -0.8,-1.5 -3.4,-1.8 -5.9,-1.5 -2.5,0.3 -4.7,1.2 -4.8,1.3 -0.1,0.1 -1.5,2 -2.4,4.4 -0.9,2.3 -1.2,4.9 0,6.1 1.2,1 3.6,0.7 5.8,0.2 z"
           id="path81"
           inkscape:connector-curvature="0" /><path
           d="m 322.3,309.3 c 2.3,-0.5 4.3,-1 4.4,-1.1 0.1,-0.1 1.3,-1.8 2.5,-3.7 1.2,-2 2.4,-4.3 1.7,-5.8 -0.7,-1.5 -3.4,-1.9 -6.1,-1.6 -2.6,0.3 -5.1,1.1 -5.2,1.2 -0.1,0.1 -1.8,2.1 -2.9,4.5 -1.1,2.4 -1.7,5.1 -0.5,6.3 1.3,1 3.8,0.6 6.1,0.2 z"
           id="path83"
           inkscape:connector-curvature="0" /><path
           d="m 351.1,293.8 c 0.2,-0.1 7.1,-7.3 5.4,-10.3 -1.7,-2.9 -11.4,-0.4 -11.6,-0.3 -0.2,0.1 -7.1,7.4 -5.4,10.3 1.8,2.9 11.4,0.4 11.6,0.3 z"
           id="path85"
           inkscape:connector-curvature="0" /><path
           d="m 376.5,282.7 c 3.1,0.7 6.3,0.7 6.4,0.7 0.1,0 3,-1.3 5.6,-3.2 2.6,-1.9 4.8,-4.3 4.2,-5.9 -0.6,-1.6 -3.7,-2.1 -6.6,-2.4 -2.9,-0.3 -5.6,-0.4 -5.8,-0.4 -0.1,0 -2.6,1.3 -5.1,2.7 -2.5,1.5 -5.1,3.2 -5,4.9 0.2,1.6 3.1,3 6.3,3.6 z"
           id="path87"
           inkscape:connector-curvature="0" /><path
           d="m 412.4,272.8 c 2.6,0.2 5,0.4 5.1,0.4 0.1,0 2.2,-1.2 4.4,-2.6 2.2,-1.4 4.7,-2.9 4.7,-4.6 0,-1.7 -2.7,-3.2 -5.7,-4 -3,-0.8 -6.1,-0.8 -6.2,-0.7 -0.1,0 -2.9,1.4 -5.3,3.4 -2.4,2 -4.1,4.6 -3.4,6.1 0.9,1.4 3.8,1.7 6.4,2 z"
           id="path89"
           inkscape:connector-curvature="0" /><path
           d="m 446.4,271.3 c 0.2,0 9.9,-2.7 9.9,-6.1 0,-3.4 -9.6,-6.1 -9.9,-6.1 -0.2,0 -9.9,2.7 -9.9,6.1 0,3.4 9.7,6.1 9.9,6.1 z"
           id="path91"
           inkscape:connector-curvature="0" /><path
           d="m 470.5,270.5 c 2.2,1.2 4.3,2.2 4.4,2.2 0.1,0 2.4,-0.4 4.8,-1.2 2.4,-0.7 4.9,-1.8 5.3,-3.4 0.4,-1.6 -1.6,-3.6 -3.9,-5.1 -2.2,-1.5 -4.7,-2.4 -4.8,-2.5 -0.1,0 -2.7,0.4 -5.2,1.3 -2.5,0.9 -4.9,2.4 -4.9,4.1 -0.1,1.8 2.1,3.3 4.3,4.6 z"
           id="path93"
           inkscape:connector-curvature="0" /><path
           d="m 503.4,274.6 c 1.7,1.1 3.1,2 3.2,2 0.1,0 1.7,-0.4 3.7,-0.9 1.9,-0.5 4.3,-1 5.1,-2.5 0.8,-1.5 -0.4,-3.9 -2.4,-5.7 -1.9,-1.8 -4.5,-2.9 -4.6,-2.9 -0.1,0 -2.8,0.3 -5.2,1.5 -2.4,1.2 -4.3,3.1 -4,4.8 0.4,1.4 2.6,2.6 4.2,3.7 z"
           id="path95"
           inkscape:connector-curvature="0" /><path
           d="m 532.9,283.5 c 1.6,1.5 3.2,2.8 3.2,2.8 0.1,0 2.1,0 4.3,-0.3 2.2,-0.2 4.7,-0.6 5.5,-2.1 0.8,-1.5 -0.3,-3.9 -2,-5.8 -1.7,-2 -3.8,-3.4 -3.9,-3.4 -0.1,0 -2.6,-0.2 -5.1,0.4 -2.5,0.5 -4.9,1.7 -5.1,3.4 -0.3,1.7 1.5,3.5 3.1,5 z"
           id="path97"
           inkscape:connector-curvature="0" /><path
           d="m 565.9,300.5 c 0.1,0 1.9,0.2 4.1,0.5 2.1,0.2 4.6,0.7 5.9,-0.4 1.3,-1.1 0.8,-3.9 -0.6,-6.4 -1.4,-2.5 -3.6,-4.4 -3.7,-4.5 -0.1,-0.1 -2.9,-0.7 -5.8,-0.4 -2.9,0.3 -5.4,1.5 -5.6,3.2 -0.2,1.7 1.6,3.4 3.1,5.1 1.4,1.5 2.6,2.9 2.6,2.9 z"
           id="path99"
           inkscape:connector-curvature="0" /><path
           d="m 589.2,316.6 c 0.1,0.1 2.2,1 4.6,1.4 2.4,0.5 4.9,0.4 5.9,-1 1,-1.4 0.3,-3.8 -0.6,-5.8 -0.9,-2.1 -1.9,-3.8 -1.9,-3.9 -0.1,-0.1 -2,-0.8 -4.2,-1.3 -2.2,-0.5 -4.6,-0.9 -5.9,0.3 -1.2,1.2 -0.8,3.7 0,6 0.8,2.3 2,4.3 2.1,4.3 z"
           id="path101"
           inkscape:connector-curvature="0" /><path
           d="m 616.6,337.4 c 0.1,0.1 1.9,0.8 3.9,2 2,1.1 4.3,2.6 5.9,2.1 1.6,-0.5 2.1,-3.7 1.4,-6.8 -0.7,-3.1 -2.5,-5.9 -2.6,-6 -0.1,-0.1 -2.9,-1.9 -6.1,-2.5 -3.2,-0.7 -6.3,0 -6.8,1.6 -0.5,1.6 1.1,3.8 2.3,5.8 1.1,1.9 1.9,3.7 2,3.8 z"
           id="path103"
           inkscape:connector-curvature="0" /><path
           d="m 643.6,365.5 c 2.7,-2 -0.8,-11.4 -0.9,-11.6 -0.1,-0.2 -8.1,-6.4 -10.8,-4.5 -2.7,2 0.8,11.5 0.9,11.6 0.2,0.2 8.1,6.5 10.8,4.5 z"
           id="path105"
           inkscape:connector-curvature="0" /><path
           d="m 651.4,388.7 c 0.1,0.1 1.9,2.4 4.1,4.5 2.2,2.1 4.7,4.2 6.2,3.6 1.6,-0.6 1.9,-3.9 1.7,-7.1 -0.2,-3.2 -1,-6.2 -1,-6.4 -0.1,-0.1 -2,-2.6 -4.4,-4.7 -2.4,-2.1 -5.2,-3.9 -6.6,-3 -1.5,0.9 -1.3,4.1 -1,7.1 0.3,3.1 0.9,5.9 1,6 z"
           id="path107"
           inkscape:connector-curvature="0" /><path
           d="m 666.3,420.4 c 1.5,1.8 3.4,3.6 5,3.3 1.7,-0.3 2.8,-2.7 3.4,-5.2 0.6,-2.5 0.6,-4.9 0.6,-5 0,-0.1 -1.3,-2.2 -3.1,-4 -1.8,-1.8 -4,-3.4 -5.5,-2.8 -1.6,0.6 -2.2,3.1 -2.7,5.4 -0.4,2.3 -0.5,4.5 -0.5,4.6 0.1,0.2 1.3,1.9 2.8,3.7 z"
           id="path109"
           inkscape:connector-curvature="0" /><path
           d="m 672.4,445.3 c 0,0.1 0.9,2.1 1.9,4.2 1.1,2.1 2.3,4.5 4,4.7 1.7,0.2 3.5,-2 4.6,-4.6 1.2,-2.5 1.6,-5.3 1.6,-5.4 0,-0.1 -0.9,-2.8 -2.5,-5.1 -1.6,-2.3 -3.7,-4.2 -5.3,-3.7 -1.6,0.5 -2.4,3.1 -3.1,5.4 -0.7,2.3 -1.2,4.4 -1.2,4.5 z"
           id="path111"
           inkscape:connector-curvature="0" /><path
           d="m 682.1,465.9 c -1.7,0.3 -2.7,3.1 -3.4,5.6 -0.7,2.6 -1.2,5.1 -1.2,5.2 0,0.1 0.9,2.5 2.1,4.9 1.2,2.4 2.7,4.9 4.4,4.9 1.7,0 3.3,-2.5 4.3,-5.2 1,-2.7 1.5,-5.5 1.4,-5.7 0,-0.1 -0.9,-2.8 -2.4,-5.3 -1.6,-2.5 -3.6,-4.7 -5.2,-4.4 z"
           id="path113"
           inkscape:connector-curvature="0" /><path
           d="m 683.9,500.9 c -1.7,0.1 -3.1,2.3 -4.3,4.3 -1.2,2 -2.1,4 -2.1,4 0,0.1 0.5,2.2 1.1,4.4 0.7,2.2 1.6,4.7 3.2,5.1 1.6,0.5 3.7,-1.3 5.2,-3.5 1.5,-2.1 2.5,-4.6 2.5,-4.7 0,-0.1 -0.4,-2.7 -1.4,-5.1 -0.9,-2.4 -2.5,-4.6 -4.2,-4.5 z"
           id="path115"
           inkscape:connector-curvature="0" /><path
           d="m 682.1,550.2 c 3.3,0.5 7.4,-7.8 7.5,-8 0,-0.2 -1.3,-9.4 -4.6,-9.9 -3.3,-0.5 -7.4,7.8 -7.5,8 0,0.2 1.3,9.3 4.6,9.9 z"
           id="path117"
           inkscape:connector-curvature="0" /><path
           d="m 224.8,558.3 c 3.3,-0.6 4.2,-10.7 4.2,-11 0,-0.3 -4.5,-9.4 -7.8,-8.8 -3.3,0.6 -4.2,10.7 -4.2,11 0,0.2 4.5,9.4 7.8,8.8 z"
           id="path119"
           inkscape:connector-curvature="0" /><path
           d="m 229.6,581.8 c 2.1,1.7 4.7,2.7 6,1.7 1.4,-1 1.5,-3.5 1.6,-5.7 0.1,-2.2 0.1,-4.1 0.1,-4.2 0,-0.1 -1.3,-1.5 -2.8,-3.1 -1.5,-1.6 -3.3,-3.4 -5,-3.2 -1.7,0.2 -2.9,2.6 -3.4,5.3 -0.5,2.6 -0.2,5.3 -0.2,5.4 0,0 1.5,2.1 3.7,3.8 z"
           id="path121"
           inkscape:connector-curvature="0" /><path
           d="m 669.8,569.2 c 0,0.1 -0.4,2.2 -0.6,4.5 -0.2,2.3 -0.3,4.9 1.1,6 1.3,1 4,0.1 6.2,-1.3 2.2,-1.4 4,-3.4 4.1,-3.5 0.1,-0.1 0.6,-2.7 0.5,-5.3 -0.1,-2.7 -0.8,-5.4 -2.4,-5.9 -1.6,-0.5 -3.7,1 -5.5,2.5 -1.8,1.5 -3.3,2.9 -3.4,3 z"
           id="path123"
           inkscape:connector-curvature="0" /><path
           d="m 186.6,648.2 c -0.6,-1 -2.1,-0.1 -1.5,0.9 0.5,1 2.1,0 1.5,-0.9 z"
           id="path125"
           inkscape:connector-curvature="0" /><path
           d="m 184.8,645.2 c -0.6,-1 -2.1,-0.1 -1.5,0.9 0.6,1 2.1,0.1 1.5,-0.9 z"
           id="path127"
           inkscape:connector-curvature="0" /><path
           d="m 183.1,642.2 c -0.5,-1 -2.1,-0.1 -1.6,0.9 0.6,1 2.2,0.1 1.6,-0.9 z"
           id="path129"
           inkscape:connector-curvature="0" /><path
           d="m 181.5,639.2 c -0.5,-1 -2.1,-0.2 -1.6,0.8 0.6,1 2.1,0.2 1.6,-0.8 z"
           id="path131"
           inkscape:connector-curvature="0" /><path
           d="m 180,636.1 c -0.5,-1 -2.1,-0.3 -1.6,0.8 0.5,1 2.1,0.2 1.6,-0.8 z"
           id="path133"
           inkscape:connector-curvature="0" /><path
           d="m 178.7,633 c -0.4,-1 -2.1,-0.4 -1.7,0.7 0.4,1 2.1,0.3 1.7,-0.7 z"
           id="path135"
           inkscape:connector-curvature="0" /><path
           d="m 177.4,629.8 c -0.4,-1.1 -2.1,-0.5 -1.7,0.6 0.4,1.1 2.1,0.4 1.7,-0.6 z"
           id="path137"
           inkscape:connector-curvature="0" /><path
           d="m 176.4,626.6 c -0.3,-1.1 -2,-0.6 -1.7,0.5 0.3,1.1 2,0.5 1.7,-0.5 z"
           id="path139"
           inkscape:connector-curvature="0" /><path
           d="m 175.6,623.3 c -0.2,-1.1 -2,-0.8 -1.8,0.4 0.3,1.1 2,0.7 1.8,-0.4 z"
           id="path141"
           inkscape:connector-curvature="0" /><path
           d="m 174.9,620 c -0.1,-1.1 -1.9,-0.9 -1.8,0.3 0.3,1.1 2,0.8 1.8,-0.3 z"
           id="path143"
           inkscape:connector-curvature="0" /><path
           d="m 174.6,616.6 c 0,-1.1 -1.8,-1.1 -1.8,0.1 0.1,1.2 1.9,1 1.8,-0.1 z"
           id="path145"
           inkscape:connector-curvature="0" /><path
           d="m 174.6,613.2 c 0,-1.1 -1.8,-1.2 -1.8,0 -0.1,1.2 1.7,1.1 1.8,0 z"
           id="path147"
           inkscape:connector-curvature="0" /><path
           d="m 173,609.6 c -0.1,1.2 1.7,1.3 1.8,0.2 0.1,-1 -1.6,-1.3 -1.8,-0.2 z"
           id="path149"
           inkscape:connector-curvature="0" /><path
           d="m 173.6,606.2 c -0.2,1.2 1.5,1.5 1.8,0.4 0.2,-1.1 -1.6,-1.6 -1.8,-0.4 z"
           id="path151"
           inkscape:connector-curvature="0" /><path
           d="m 174.5,602.7 c -0.3,1.1 1.4,1.6 1.7,0.5 0.3,-1 -1.4,-1.6 -1.7,-0.5 z"
           id="path153"
           inkscape:connector-curvature="0" /><path
           d="m 175.7,599.4 c -0.4,1.1 1.2,1.7 1.7,0.7 0.4,-1 -1.3,-1.7 -1.7,-0.7 z"
           id="path155"
           inkscape:connector-curvature="0" /><path
           d="m 177.2,596.2 c -0.5,1 1.1,1.8 1.6,0.8 0.5,-0.9 -1,-1.8 -1.6,-0.8 z"
           id="path157"
           inkscape:connector-curvature="0" /><path
           d="m 180.5,594.2 c 0.6,-0.9 -0.8,-2 -1.5,-1 -0.7,1 0.9,1.9 1.5,1 z"
           id="path159"
           inkscape:connector-curvature="0" /><path
           d="m 182.5,591.5 c 0.7,-0.8 -0.6,-2 -1.4,-1.1 -0.8,0.8 0.7,1.9 1.4,1.1 z"
           id="path161"
           inkscape:connector-curvature="0" /><path
           d="m 184.7,589 c 0.8,-0.7 -0.4,-2.1 -1.2,-1.3 -0.9,0.9 0.5,2.1 1.2,1.3 z"
           id="path163"
           inkscape:connector-curvature="0" /><path
           d="m 187.3,586.9 c 0.9,-0.6 0,-2.1 -1,-1.5 -1,0.8 0.1,2.2 1,1.5 z"
           id="path165"
           inkscape:connector-curvature="0" /><path
           d="m 190.1,585.3 c 1,-0.4 0.3,-2.1 -0.8,-1.6 -1,0.5 -0.1,2.1 0.8,1.6 z"
           id="path167"
           inkscape:connector-curvature="0" /><path
           d="m 193.2,584.1 c 1,-0.2 0.7,-2 -0.4,-1.7 -1.2,0.3 -0.6,2 0.4,1.7 z"
           id="path169"
           inkscape:connector-curvature="0" /><path
           d="m 196.3,581.9 c -1.2,0.1 -0.9,1.9 0.1,1.8 1.1,-0.1 1.1,-1.9 -0.1,-1.8 z"
           id="path171"
           inkscape:connector-curvature="0" /><path
           d="m 199.9,582 c -1.2,-0.2 -1.3,1.6 -0.3,1.8 1.1,0.2 1.6,-1.5 0.3,-1.8 z"
           id="path173"
           inkscape:connector-curvature="0" /><path
           d="m 203.4,583.1 c -1.1,-0.5 -1.7,1.3 -0.7,1.6 0.9,0.4 1.8,-1.1 0.7,-1.6 z"
           id="path175"
           inkscape:connector-curvature="0" /><path
           d="m 205.5,586.4 c 0.8,0.7 2,-0.6 1.1,-1.4 -1,-0.8 -2,0.7 -1.1,1.4 z"
           id="path177"
           inkscape:connector-curvature="0" /><path
           d="m 209.2,587.4 c -0.8,-0.9 -2.1,0.4 -1.4,1.2 0.7,0.8 2.1,-0.3 1.4,-1.2 z"
           id="path179"
           inkscape:connector-curvature="0" /><path
           d="m 209.7,591.3 c 0.5,0.9 2.1,0.1 1.5,-0.9 -0.6,-1.1 -2,0 -1.5,0.9 z"
           id="path181"
           inkscape:connector-curvature="0" /><path
           d="m 211.2,594.2 c 0.4,1 2.1,0.5 1.7,-0.6 -0.5,-1.2 -2.1,-0.4 -1.7,0.6 z"
           id="path183"
           inkscape:connector-curvature="0" /><path
           d="m 212,597.3 c 0.1,1 1.9,0.9 1.8,-0.3 -0.2,-1.1 -1.9,-0.7 -1.8,0.3 z"
           id="path185"
           inkscape:connector-curvature="0" /><path
           d="m 214,600.7 c 0,-1.2 -1.8,-1.1 -1.8,-0.1 -0.1,1 1.7,1.3 1.8,0.1 z"
           id="path187"
           inkscape:connector-curvature="0" /><path
           d="m 212.7,603.1 c -0.4,-0.1 -0.9,0 -1.1,0.5 -0.4,0.9 1.1,1.8 1.7,0.7 0.1,-0.6 -0.2,-1 -0.6,-1.2 z"
           id="path189"
           inkscape:connector-curvature="0" /><path
           d="m 209.9,606.2 c -0.7,0.6 0.3,2.1 1.3,1.2 0.8,-1 -0.7,-2 -1.3,-1.2 z"
           id="path191"
           inkscape:connector-curvature="0" /><path
           d="m 208,609.5 c 1.2,-0.5 0.3,-2.1 -0.6,-1.7 -1,0.3 -0.7,2 0.6,1.7 z"
           id="path193"
           inkscape:connector-curvature="0" /><path
           d="m 204.4,608.2 c -1,-0.1 -1.3,1.7 -0.1,1.8 0.6,0 0.9,-0.5 0.9,-0.9 -0.1,-0.4 -0.3,-0.8 -0.8,-0.9 z"
           id="path195"
           inkscape:connector-curvature="0" /><path
           d="m 201.4,607.6 c -0.8,-0.4 -1.9,1 -0.7,1.6 0.6,0.3 1,-0.1 1.2,-0.5 0,-0.4 -0.1,-0.9 -0.5,-1.1 z"
           id="path197"
           inkscape:connector-curvature="0" /><path
           d="m 199,605.8 c -0.3,-0.4 -0.8,-0.4 -1.2,-0.1 -0.4,0.2 -0.6,0.8 -0.2,1.2 0.9,1 2.1,-0.4 1.4,-1.1 z"
           id="path199"
           inkscape:connector-curvature="0" /><path
           d="m 196.1,603.4 c 0.3,1.3 2,0.6 1.8,-0.3 -0.1,-0.5 -0.5,-0.7 -1,-0.7 -0.4,0 -0.9,0.4 -0.8,1 z"
           id="path201"
           inkscape:connector-curvature="0" /><path
           d="m 198.1,600.1 c 0.3,-0.9 -1.3,-1.7 -1.7,-0.5 -0.3,1.3 1.5,1.5 1.7,0.5 z"
           id="path203"
           inkscape:connector-curvature="0" /><path
           d="m 198.1,596.3 c -0.8,1 0.8,1.9 1.4,1.2 0.6,-0.7 -0.5,-2.2 -1.4,-1.2 z"
           id="path205"
           inkscape:connector-curvature="0" /><path
           d="m 201.2,594.1 c -1.2,0.5 -0.2,2.1 0.6,1.7 0.9,-0.3 0.7,-2.1 -0.6,-1.7 z"
           id="path207"
           inkscape:connector-curvature="0" /><path
           d="m 132.6,655.9 c 0.8,-0.4 0.2,-2.2 -1,-1.5 -0.6,0.4 -0.5,1 -0.2,1.3 0.3,0.3 0.8,0.5 1.2,0.2 z"
           id="path209"
           inkscape:connector-curvature="0" /><path
           d="m 135.3,655.1 c 0.9,0.1 1.4,-1.7 0,-1.8 -1.4,0.1 -0.9,1.9 0,1.8 z"
           id="path211"
           inkscape:connector-curvature="0" /><path
           d="m 139.1,654.2 c -1.2,-0.5 -1.7,1.2 -0.8,1.6 0.8,0.5 1.9,-0.9 0.8,-1.6 z"
           id="path213"
           inkscape:connector-curvature="0" /><path
           d="m 140.7,656.6 c -0.3,0.3 -0.5,0.8 -0.2,1.2 0.5,0.8 2.2,0.1 1.5,-1 -0.4,-0.6 -0.9,-0.5 -1.3,-0.2 z"
           id="path215"
           inkscape:connector-curvature="0" /><path
           d="m 143.4,660.4 c -0.2,-1.3 -1.9,-0.8 -1.8,0.1 0,1 1.8,1.3 1.8,-0.1 z"
           id="path217"
           inkscape:connector-curvature="0" /><path
           d="m 141.1,663.6 c -0.4,0.9 1.2,1.8 1.7,0.6 0.4,-1.2 -1.4,-1.6 -1.7,-0.6 z"
           id="path219"
           inkscape:connector-curvature="0" /><path
           d="m 139.5,666.3 c -0.7,0.7 0.4,2.1 1.3,1.2 0.9,-1 -0.7,-2 -1.3,-1.2 z"
           id="path221"
           inkscape:connector-curvature="0" /><path
           d="m 137,668.2 c -0.9,0.4 -0.4,2.1 0.8,1.6 1.2,-0.6 0.1,-2.1 -0.8,-1.6 z"
           id="path223"
           inkscape:connector-curvature="0" /><path
           d="m 134.2,670.9 c 1.3,-0.2 0.8,-1.9 -0.2,-1.8 -1,0.1 -1.1,1.9 0.2,1.8 z"
           id="path225"
           inkscape:connector-curvature="0" /><path
           d="m 130.8,668.9 c -1,-0.2 -1.6,1.5 -0.4,1.8 1.3,0.2 1.4,-1.6 0.4,-1.8 z"
           id="path227"
           inkscape:connector-curvature="0" /><path
           d="m 126.9,669.5 c 1.1,0.5 1.8,-1.2 0.8,-1.6 -0.9,-0.5 -1.9,1 -0.8,1.6 z"
           id="path229"
           inkscape:connector-curvature="0" /><path
           d="m 125,666.1 c -0.8,-0.7 -2.1,0.5 -1.2,1.4 1,0.7 2,-0.8 1.2,-1.4 z"
           id="path231"
           inkscape:connector-curvature="0" /><path
           d="m 122.8,663.6 c -0.6,-0.9 -2.2,0 -1.4,1.1 0.7,1 2,-0.2 1.4,-1.1 z"
           id="path233"
           inkscape:connector-curvature="0" /><path
           d="m 121,660.8 c -0.5,-1 -2.1,-0.3 -1.6,0.8 0.6,1 2.1,0.1 1.6,-0.8 z"
           id="path235"
           inkscape:connector-curvature="0" /><path
           d="m 119.8,657.6 c -0.3,-1.1 -2.1,-0.6 -1.7,0.5 0.4,1.2 2,0.5 1.7,-0.5 z"
           id="path237"
           inkscape:connector-curvature="0" /><path
           d="m 119,654.3 c -0.2,-1.1 -2,-0.9 -1.8,0.3 0.2,1.2 2,0.8 1.8,-0.3 z"
           id="path239"
           inkscape:connector-curvature="0" /><path
           d="m 118.6,650.9 c 0,-1.1 -1.8,-1.2 -1.8,0.1 0.1,1.2 1.9,1 1.8,-0.1 z"
           id="path241"
           inkscape:connector-curvature="0" /><path
           d="m 117,647.3 c -0.1,1.2 1.6,1.3 1.8,0.3 0.1,-1.1 -1.6,-1.5 -1.8,-0.3 z"
           id="path243"
           inkscape:connector-curvature="0" /><path
           d="m 119.6,644.4 c 0.4,-1 -1.2,-1.8 -1.7,-0.6 -0.4,1.1 1.3,1.6 1.7,0.6 z"
           id="path245"
           inkscape:connector-curvature="0" /><path
           d="m 119.7,640.5 c -0.7,1.1 0.9,1.9 1.5,1 0.6,-0.8 -0.8,-2 -1.5,-1 z"
           id="path247"
           inkscape:connector-curvature="0" /><path
           d="m 122.2,637.7 c -0.9,0.8 0.4,2.1 1.2,1.3 0.8,-0.7 -0.3,-2.1 -1.2,-1.3 z"
           id="path249"
           inkscape:connector-curvature="0" /><path
           d="m 126,637.1 c 1,-0.5 0.2,-2.1 -0.9,-1.5 -1,0.6 0,2.1 0.9,1.5 z"
           id="path251"
           inkscape:connector-curvature="0" /><path
           d="m 129.1,635.6 c 1,-0.4 0.5,-2.1 -0.6,-1.7 -1.2,0.5 -0.4,2.1 0.6,1.7 z"
           id="path253"
           inkscape:connector-curvature="0" /><path
           d="m 131.9,632.9 c -1.2,0.3 -0.7,2 0.4,1.7 1.1,-0.2 0.8,-2 -0.4,-1.7 z"
           id="path255"
           inkscape:connector-curvature="0" /><path
           d="m 135.7,634.1 c 1.1,-0.1 1,-1.9 -0.2,-1.8 -1.2,0.1 -0.9,1.9 0.2,1.8 z"
           id="path257"
           inkscape:connector-curvature="0" /><path
           d="m 139.1,633.9 c 1.1,0 1.2,-1.8 0,-1.8 -1.2,0 -1.1,1.8 0,1.8 z"
           id="path259"
           inkscape:connector-curvature="0" /><path
           d="m 142.5,634.1 c 1.1,0.1 1.4,-1.6 0.2,-1.8 -1.2,-0.1 -1.3,1.7 -0.2,1.8 z"
           id="path261"
           inkscape:connector-curvature="0" /><path
           d="m 145.9,634.6 c 1.1,0.2 1.5,-1.5 0.4,-1.8 -1.2,-0.2 -1.5,1.6 -0.4,1.8 z"
           id="path263"
           inkscape:connector-curvature="0" /><path
           d="m 149.3,635.5 c 1.1,0.3 1.7,-1.4 0.5,-1.7 -1.2,-0.4 -1.6,1.4 -0.5,1.7 z"
           id="path265"
           inkscape:connector-curvature="0" /><path
           d="m 152.5,636.6 c 1,0.4 1.8,-1.2 0.7,-1.7 -1.1,-0.4 -1.8,1.3 -0.7,1.7 z"
           id="path267"
           inkscape:connector-curvature="0" /><path
           d="m 155.6,638.1 c 1,0.5 1.9,-1 0.8,-1.6 -1,-0.5 -1.8,1.1 -0.8,1.6 z"
           id="path269"
           inkscape:connector-curvature="0" /><path
           d="m 158.5,639.9 c 0.9,0.6 2,-0.8 1,-1.5 -1,-0.7 -1.9,0.9 -1,1.5 z"
           id="path271"
           inkscape:connector-curvature="0" /><path
           d="m 127.1,613.4 c -0.5,0.8 0.8,2 1.5,0.9 0.6,-1.1 -1.1,-1.7 -1.5,-0.9 z"
           id="path273"
           inkscape:connector-curvature="0" /><path
           d="m 125.9,617 c 1.1,-0.7 -0.1,-2.1 -0.9,-1.5 -0.9,0.4 -0.3,2.1 0.9,1.5 z"
           id="path275"
           inkscape:connector-curvature="0" /><path
           d="m 122.2,618.2 c 1.3,-0.2 0.8,-1.9 -0.2,-1.8 -1,0 -1.1,1.8 0.2,1.8 z"
           id="path277"
           inkscape:connector-curvature="0" /><path
           d="m 118.9,616.2 c -1,-0.3 -1.6,1.4 -0.4,1.7 1.2,0.2 1.4,-1.6 0.4,-1.7 z"
           id="path279"
           inkscape:connector-curvature="0" /><path
           d="m 115.9,615 c -0.9,-0.5 -1.9,0.9 -0.9,1.6 1.1,0.6 1.8,-1.1 0.9,-1.6 z"
           id="path281"
           inkscape:connector-curvature="0" /><path
           d="m 112.1,614.4 c 0.9,0.9 2,-0.6 1.3,-1.3 -0.8,-0.7 -2.2,0.4 -1.3,1.3 z"
           id="path283"
           inkscape:connector-curvature="0" /><path
           d="m 109.9,611.4 c 0.6,1.1 2.1,0.1 1.6,-0.8 -0.4,-0.9 -2.2,-0.4 -1.6,0.8 z"
           id="path285"
           inkscape:connector-curvature="0" /><path
           d="m 110.5,607.6 c -0.1,-1 -1.9,-1 -1.8,0.2 0.3,1.3 2,0.8 1.8,-0.2 z"
           id="path287"
           inkscape:connector-curvature="0" /><path
           d="m 110.7,604.4 c 0.3,-1 -1.4,-1.6 -1.8,-0.4 -0.2,1.3 1.6,1.4 1.8,0.4 z"
           id="path289"
           inkscape:connector-curvature="0" /><path
           d="m 110.4,600.6 c -0.7,1.1 1,1.8 1.5,1 0.6,-0.8 -0.7,-2 -1.5,-1 z"
           id="path291"
           inkscape:connector-curvature="0" /><path
           d="m 113,597.9 c -1,0.8 0.2,2.1 1,1.5 0.9,-0.6 0.1,-2.2 -1,-1.5 z"
           id="path293"
           inkscape:connector-curvature="0" /><path
           d="m 116.3,596.2 c -1.2,0.4 -0.4,2.1 0.6,1.7 1,-0.3 0.6,-2 -0.6,-1.7 z"
           id="path295"
           inkscape:connector-curvature="0" /><path
           d="m 119.9,595.4 c -1.2,0.1 -0.9,1.9 0.2,1.8 1,0 1.1,-1.8 -0.2,-1.8 z"
           id="path297"
           inkscape:connector-curvature="0" /><path
           d="m 123.3,597.3 c 1,0.2 1.5,-1.6 0.3,-1.8 -1.3,-0.1 -1.3,1.7 -0.3,1.8 z"
           id="path299"
           inkscape:connector-curvature="0" /><path
           d="m 126.5,598.1 c 1,0.4 1.7,-1.3 0.6,-1.7 -1.1,-0.4 -1.6,1.4 -0.6,1.7 z"
           id="path301"
           inkscape:connector-curvature="0" /><path
           d="m 129.6,599.4 c 1,0.5 1.9,-1 0.8,-1.6 -1.1,-0.5 -1.8,1.1 -0.8,1.6 z"
           id="path303"
           inkscape:connector-curvature="0" /><path
           d="m 132.6,601.1 c 0.9,0.6 2,-0.9 1,-1.5 -1.1,-0.7 -2,0.9 -1,1.5 z"
           id="path305"
           inkscape:connector-curvature="0" /><path
           d="m 136.4,601.6 c -0.9,-0.7 -2,0.8 -1.1,1.4 1,0.7 2.1,-0.7 1.1,-1.4 z"
           id="path307"
           inkscape:connector-curvature="0" /><path
           d="m 139.2,603.7 c -0.9,-0.7 -2,0.7 -1.1,1.4 0.9,0.7 2,-0.6 1.1,-1.4 z"
           id="path309"
           inkscape:connector-curvature="0" /><path
           d="m 141.9,606 c -0.9,-0.8 -2.1,0.6 -1.2,1.3 0.8,0.8 2.1,-0.5 1.2,-1.3 z"
           id="path311"
           inkscape:connector-curvature="0" /><path
           d="m 144.5,608.5 c -0.8,-0.8 -2.1,0.5 -1.3,1.3 0.8,0.8 2.1,-0.5 1.3,-1.3 z"
           id="path313"
           inkscape:connector-curvature="0" /><path
           d="m 146.9,611.1 c -0.8,-0.9 -2.1,0.3 -1.4,1.2 0.7,0.8 2.1,-0.3 1.4,-1.2 z"
           id="path315"
           inkscape:connector-curvature="0" /><path
           d="m 149.1,613.8 c -0.7,-0.9 -2.1,0.2 -1.4,1.1 0.6,0.9 2.1,-0.1 1.4,-1.1 z"
           id="path317"
           inkscape:connector-curvature="0" /><path
           d="m 151.1,616.7 c -0.6,-1 -2.1,0 -1.5,1 0.6,0.9 2.2,0 1.5,-1 z"
           id="path319"
           inkscape:connector-curvature="0" /><path
           d="m 151.4,620.7 c 0.5,1 2.1,0.2 1.6,-0.9 -0.6,-1 -2.2,-0.1 -1.6,0.9 z"
           id="path321"
           inkscape:connector-curvature="0" /><path
           d="m 152.9,623.7 c 0.5,1 2.1,0.4 1.6,-0.7 -0.5,-1.1 -2.1,-0.3 -1.6,0.7 z"
           id="path323"
           inkscape:connector-curvature="0" /><path
           d="m 78.3,651.3 c -0.4,0.2 -0.4,0.7 -0.3,1.1 0.1,0.4 0.6,0.8 1.3,0.4 0.6,-0.4 0.5,-1 0.2,-1.3 -0.4,-0.3 -0.9,-0.4 -1.2,-0.2 z"
           id="path325"
           inkscape:connector-curvature="0" /><path
           d="m 79.7,649 c -0.1,0.4 0.2,0.8 0.7,1 0.4,0.2 1,0 1.1,-0.7 0.1,-1.4 -1.7,-1.1 -1.8,-0.3 z"
           id="path327"
           inkscape:connector-curvature="0" /><path
           d="m 79.5,645.2 c -0.3,0.3 -0.5,0.8 -0.3,1.2 0.2,0.4 0.7,0.5 1.1,0.3 0.4,-0.1 0.8,-0.6 0.4,-1.2 -0.3,-0.7 -0.9,-0.6 -1.2,-0.3 z"
           id="path329"
           inkscape:connector-curvature="0" /><path
           d="m 77.7,642.8 c -1.3,-0.5 -1.6,1.3 -0.7,1.6 0.8,0.5 1.9,-1 0.7,-1.6 z"
           id="path331"
           inkscape:connector-curvature="0" /><path
           d="m 74.1,644.1 c 0.9,-0.1 1.1,-1.9 -0.2,-1.8 -1.3,0.2 -0.7,1.9 0.2,1.8 z"
           id="path333"
           inkscape:connector-curvature="0" /><path
           d="m 71.3,645.1 c 0.8,-0.5 0.2,-2.2 -1,-1.5 -1,0.8 0.2,2.1 1,1.5 z"
           id="path335"
           inkscape:connector-curvature="0" /><path
           d="m 69,647.2 c 0.6,-0.8 -0.6,-2.1 -1.4,-1.1 -0.7,1.2 0.9,2 1.4,1.1 z"
           id="path337"
           inkscape:connector-curvature="0" /><path
           d="m 67.7,650.1 c 0.3,-0.9 -1.3,-1.7 -1.7,-0.5 -0.3,1.2 1.5,1.4 1.7,0.5 z"
           id="path339"
           inkscape:connector-curvature="0" /><path
           d="m 65.6,653.3 c 0.2,1.3 1.9,0.8 1.8,-0.2 -0.1,-1 -1.9,-1.1 -1.8,0.2 z"
           id="path341"
           inkscape:connector-curvature="0" /><path
           d="m 68.3,656 c -0.4,-0.9 -2.2,-0.3 -1.5,0.9 0.7,1.1 2.1,-0.1 1.5,-0.9 z"
           id="path343"
           inkscape:connector-curvature="0" /><path
           d="m 70.4,658.3 c -0.8,-0.7 -2.1,0.6 -1.1,1.4 0.9,0.8 1.9,-0.8 1.1,-1.4 z"
           id="path345"
           inkscape:connector-curvature="0" /><path
           d="m 72.3,661.7 c 1.1,0.5 1.8,-1.2 0.8,-1.6 -1,-0.5 -1.9,1 -0.8,1.6 z"
           id="path347"
           inkscape:connector-curvature="0" /><path
           d="m 75.6,663 c 1.1,0.3 1.5,-1.4 0.5,-1.7 -1,-0.4 -1.7,1.3 -0.5,1.7 z"
           id="path349"
           inkscape:connector-curvature="0" /><path
           d="m 79.1,663.7 c 1.2,0.2 1.3,-1.6 0.3,-1.8 -1.1,-0.1 -1.5,1.7 -0.3,1.8 z"
           id="path351"
           inkscape:connector-curvature="0" /><path
           d="m 82.6,662.2 c -1.1,0 -1.2,1.8 0,1.8 1.2,0 1,-1.8 0,-1.8 z"
           id="path353"
           inkscape:connector-curvature="0" /><path
           d="m 86.1,663.7 c 1.2,-0.2 0.8,-2 -0.3,-1.8 -1,0.2 -0.9,2 0.3,1.8 z"
           id="path355"
           inkscape:connector-curvature="0" /><path
           d="m 89,661.2 c -1,0.3 -0.6,2 0.5,1.7 1.2,-0.4 0.5,-2.1 -0.5,-1.7 z"
           id="path357"
           inkscape:connector-curvature="0" /><path
           d="m 92.1,660 c -1,0.5 -0.3,2.1 0.8,1.6 1,-0.6 0.1,-2.2 -0.8,-1.6 z"
           id="path359"
           inkscape:connector-curvature="0" /><path
           d="m 94.8,658.3 c -0.9,0.6 0.1,2.1 1,1.5 1,-0.8 -0.1,-2.2 -1,-1.5 z"
           id="path361"
           inkscape:connector-curvature="0" /><path
           d="m 98.6,657.4 c 0.8,-0.8 -0.5,-2 -1.3,-1.3 -0.7,0.8 0.4,2.1 1.3,1.3 z"
           id="path363"
           inkscape:connector-curvature="0" /><path
           d="m 100.9,654.8 c 0.7,-1 -0.8,-1.9 -1.4,-1.1 -0.7,0.8 0.7,2 1.4,1.1 z"
           id="path365"
           inkscape:connector-curvature="0" /><path
           d="m 101.3,650.9 c -0.5,0.9 1,1.9 1.6,0.8 0.5,-1 -1.1,-1.7 -1.6,-0.8 z"
           id="path367"
           inkscape:connector-curvature="0" /><path
           d="m 104.3,648.5 c 0.4,-1.1 -1.4,-1.6 -1.7,-0.6 -0.4,1 1.2,1.7 1.7,0.6 z"
           id="path369"
           inkscape:connector-curvature="0" /><path
           d="m 225.5,645.4 c -0.8,-1.1 -2,0.3 -1.5,1 0.4,0.7 2.2,0.1 1.5,-1 z"
           id="path371"
           inkscape:connector-curvature="0" /><path
           d="m 221.8,644.3 c 0.8,0.6 2,-0.8 1,-1.5 -1.1,-0.6 -1.9,1 -1,1.5 z"
           id="path373"
           inkscape:connector-curvature="0" /><path
           d="m 219,642.9 c 0.9,0.4 1.7,-1.2 0.6,-1.7 -1.1,-0.4 -1.6,1.4 -0.6,1.7 z"
           id="path375"
           inkscape:connector-curvature="0" /><path
           d="m 215.9,642.1 c 1,0.2 1.4,-1.6 0.3,-1.8 -1.2,-0.1 -1.3,1.7 -0.3,1.8 z"
           id="path377"
           inkscape:connector-curvature="0" /><path
           d="m 212.8,642 c 1,-0.1 1,-1.9 -0.2,-1.8 -1.2,0.2 -0.8,2 0.2,1.8 z"
           id="path379"
           inkscape:connector-curvature="0" /><path
           d="m 209.9,642.8 c 0.9,-0.4 0.4,-2.1 -0.7,-1.6 -1.2,0.6 -0.2,2.1 0.7,1.6 z"
           id="path381"
           inkscape:connector-curvature="0" /><path
           d="m 207.4,644.6 c 0.7,-0.7 -0.4,-2.1 -1.3,-1.2 -0.8,0.9 0.7,1.9 1.3,1.2 z"
           id="path383"
           inkscape:connector-curvature="0" /><path
           d="m 205.8,647.1 c 0.4,-0.9 -1.1,-1.8 -1.6,-0.7 -0.5,1.1 1.2,1.6 1.6,0.7 z"
           id="path385"
           inkscape:connector-curvature="0" /><path
           d="m 203.1,649.8 c -0.2,1.2 1.6,1.3 1.8,0.3 0.2,-1 -1.5,-1.5 -1.8,-0.3 z"
           id="path387"
           inkscape:connector-curvature="0" /><path
           d="m 204.7,653.3 c 0,-1 -1.8,-1.1 -1.8,0 0,1.2 1.8,1 1.8,0 z"
           id="path389"
           inkscape:connector-curvature="0" /><path
           d="m 204.9,656.5 c -0.1,-1 -1.9,-0.9 -1.8,0.3 0.2,1.1 2,0.7 1.8,-0.3 z"
           id="path391"
           inkscape:connector-curvature="0" /><path
           d="m 205.6,659.7 c -0.2,-1 -2,-0.7 -1.7,0.4 0.2,1.1 2,0.6 1.7,-0.4 z"
           id="path393"
           inkscape:connector-curvature="0" /><path
           d="m 206.5,662.8 c -0.3,-1 -2.1,-0.5 -1.7,0.6 0.4,1 2.1,0.4 1.7,-0.6 z"
           id="path395"
           inkscape:connector-curvature="0" /><path
           d="m 207.8,665.8 c -0.5,-1 -2.1,-0.3 -1.6,0.8 0.5,1 2.1,0.1 1.6,-0.8 z"
           id="path397"
           inkscape:connector-curvature="0" /><path
           d="m 209.3,668.6 c -0.5,-0.9 -2.1,-0.1 -1.6,0.9 0.6,1 2.1,0.1 1.6,-0.9 z"
           id="path399"
           inkscape:connector-curvature="0" /><path
           d="m 211,671.4 c -0.6,-0.9 -2.1,0.1 -1.5,1 0.7,1 2.2,-0.1 1.5,-1 z"
           id="path401"
           inkscape:connector-curvature="0" /><path
           d="m 173.7,673.8 c -0.4,-0.2 -0.8,0.1 -1.1,0.4 -0.3,0.4 -0.3,0.9 0.4,1.2 1.3,0.5 1.4,-1.3 0.7,-1.6 z"
           id="path403"
           inkscape:connector-curvature="0" /><path
           d="m 170.3,672.8 c 0.2,0.6 0.8,0.6 1.2,0.4 0.4,-0.3 0.6,-0.7 0.5,-1 -0.3,-0.8 -2.1,-0.7 -1.7,0.6 z"
           id="path405"
           inkscape:connector-curvature="0" /><path
           d="m 171.5,668.6 c -0.4,-0.3 -0.9,-0.3 -1.2,0.3 -0.3,0.6 0.2,1 0.6,1.1 0.4,0.1 0.9,0 1.1,-0.4 0.1,-0.3 -0.1,-0.8 -0.5,-1 z"
           id="path407"
           inkscape:connector-curvature="0" /><path
           d="m 172.9,666.2 c -1.1,0.7 0.1,2 0.8,1.6 0.8,-0.3 0.4,-2.1 -0.8,-1.6 z"
           id="path409"
           inkscape:connector-curvature="0" /><path
           d="m 176.6,667.1 c 1,0 1.1,-1.8 -0.1,-1.8 -1.2,0.2 -0.9,1.9 0.1,1.8 z"
           id="path411"
           inkscape:connector-curvature="0" /><path
           d="m 179.6,667.3 c 1,0.2 1.4,-1.6 0.3,-1.8 -1.1,-0.2 -1.3,1.6 -0.3,1.8 z"
           id="path413"
           inkscape:connector-curvature="0" /><path
           d="m 182.6,668.1 c 0.8,0.4 1.8,-1.1 0.7,-1.6 -1.1,-0.5 -1.6,1.2 -0.7,1.6 z"
           id="path415"
           inkscape:connector-curvature="0" /><path
           d="m 184.9,669.7 c 0.5,0.7 2.2,-0.1 1.4,-1.2 -1,-0.9 -2,0.6 -1.4,1.2 z"
           id="path417"
           inkscape:connector-curvature="0" /><path
           d="m 125.4,573.4 c 0.8,0.1 1.1,-0.5 1,-0.9 -0.1,-0.4 -0.4,-0.8 -0.7,-0.9 -0.3,0 -0.7,0.2 -0.9,0.6 -0.3,0.4 -0.2,1.1 0.6,1.2 z"
           id="path419"
           inkscape:connector-curvature="0" /><path
           d="m 122.4,570.4 c 0.2,0.7 0.8,0.9 1.1,0.6 0.4,-0.2 0.7,-0.6 0.6,-1 -0.1,-0.4 -0.5,-0.7 -1,-0.7 -0.3,0 -0.8,0.4 -0.7,1.1 z"
           id="path421"
           inkscape:connector-curvature="0" /><path
           d="m 124.7,567.2 c 0.5,-0.8 -0.8,-2.1 -1.6,-0.9 -0.3,0.6 0,1.1 0.4,1.2 0.5,0.2 0.9,0.1 1.2,-0.3 z"
           id="path423"
           inkscape:connector-curvature="0" /><path
           d="m 126.8,565.3 c 0.4,-0.2 0.6,-0.6 0.5,-1.1 -0.1,-0.4 -0.5,-0.8 -1.2,-0.6 -0.7,0.3 -0.7,0.9 -0.4,1.2 0.2,0.4 0.6,0.6 1.1,0.5 z"
           id="path425"
           inkscape:connector-curvature="0" /><path
           d="m 130.1,563.4 c -0.7,-0.2 -1.1,0.3 -1.1,0.7 0,0.5 0.2,0.9 0.6,1 1,0.3 1.8,-1.3 0.5,-1.7 z"
           id="path427"
           inkscape:connector-curvature="0" /><path
           d="m 132.4,566.6 c 0.8,0.7 2.1,-0.5 1.1,-1.4 -1,-0.8 -1.9,0.8 -1.1,1.4 z"
           id="path429"
           inkscape:connector-curvature="0" /><path
           d="m 134.5,569.1 c 0.5,0.9 2.2,0.3 1.6,-0.9 -0.7,-1.1 -2.1,0 -1.6,0.9 z"
           id="path431"
           inkscape:connector-curvature="0" /><path
           d="m 135.8,572.1 c 0.2,1.1 2,0.8 1.7,-0.4 -0.4,-1.2 -2,-0.6 -1.7,0.4 z"
           id="path433"
           inkscape:connector-curvature="0" /><path
           d="m 138,575.5 c 0,-1.3 -1.8,-1.1 -1.8,0 -0.1,1.1 1.7,1.3 1.8,0 z"
           id="path435"
           inkscape:connector-curvature="0" /><path
           d="m 137.5,579.2 c 0.3,-1.3 -1.5,-1.5 -1.7,-0.4 -0.3,1 1.4,1.7 1.7,0.4 z"
           id="path437"
           inkscape:connector-curvature="0" /><path
           d="m 134.6,582 c -0.5,0.9 1,2 1.6,0.8 0.6,-1.2 -1.1,-1.8 -1.6,-0.8 z"
           id="path439"
           inkscape:connector-curvature="0" /><path
           d="m 132.7,584.7 c -0.7,0.8 0.4,2.1 1.3,1.2 0.9,-1 -0.6,-2 -1.3,-1.2 z"
           id="path441"
           inkscape:connector-curvature="0" /><path
           d="m 180.2,558.1 c -0.2,-1 -2,-0.9 -1.7,0.5 0.4,1.3 2,0.5 1.7,-0.5 z"
           id="path443"
           inkscape:connector-curvature="0" /><path
           d="m 180.2,555.1 c 0.1,-0.5 -0.2,-0.9 -0.6,-1.1 -0.4,-0.2 -1,-0.1 -1.2,0.6 -0.3,1.4 1.6,1.4 1.8,0.5 z"
           id="path445"
           inkscape:connector-curvature="0" /><path
           d="m 180.7,551.2 c -0.6,0.4 -0.4,1 -0.1,1.3 0.3,0.3 0.8,0.4 1.2,0.1 0.7,-0.5 0.2,-2.2 -1.1,-1.4 z"
           id="path447"
           inkscape:connector-curvature="0" /><path
           d="m 184.7,550.1 c -0.7,0 -1,0.4 -1,0.9 0,0.4 0.3,0.9 0.8,0.9 0.9,0.1 1.6,-1.6 0.2,-1.8 z"
           id="path449"
           inkscape:connector-curvature="0" /><path
           d="m 188.4,551.5 c -1.1,-0.8 -1.9,0.9 -1.1,1.4 0.8,0.7 2.2,-0.5 1.1,-1.4 z"
           id="path451"
           inkscape:connector-curvature="0" /><path
           d="m 189.4,555.4 c 0.5,0.9 2.2,0.4 1.6,-0.8 -0.7,-1.2 -2.2,-0.1 -1.6,0.8 z"
           id="path453"
           inkscape:connector-curvature="0" /><path
           d="m 190.5,558.6 c 0.2,1.1 2,0.9 1.8,-0.4 -0.4,-1.2 -2.1,-0.7 -1.8,0.4 z"
           id="path455"
           inkscape:connector-curvature="0" /><path
           d="m 190.9,562 c 0.1,1.2 1.9,1.1 1.8,-0.1 -0.1,-1.2 -1.9,-1.1 -1.8,0.1 z"
           id="path457"
           inkscape:connector-curvature="0" /><path
           d="m 192.7,565.7 c 0.1,-1.3 -1.7,-1.2 -1.8,-0.1 -0.1,1 1.7,1.3 1.8,0.1 z"
           id="path459"
           inkscape:connector-curvature="0" /><path
           d="m 190.2,568.7 c -0.4,0.9 1,1.9 1.6,0.7 0.5,-1.2 -1.2,-1.6 -1.6,-0.7 z"
           id="path461"
           inkscape:connector-curvature="0" /><path
           d="m 727.2,648.3 c -0.6,1 0.9,1.9 1.5,0.9 0.6,-1 -0.9,-1.9 -1.5,-0.9 z"
           id="path463"
           inkscape:connector-curvature="0" /><path
           d="m 729,645.3 c -0.6,1 1,1.9 1.5,0.9 0.6,-1 -1,-1.9 -1.5,-0.9 z"
           id="path465"
           inkscape:connector-curvature="0" /><path
           d="m 730.7,642.3 c -0.5,1 1,1.9 1.6,0.9 0.5,-1 -1.1,-1.9 -1.6,-0.9 z"
           id="path467"
           inkscape:connector-curvature="0" /><path
           d="m 732.3,639.3 c -0.5,1 1.1,1.8 1.6,0.8 0.5,-1 -1.1,-1.8 -1.6,-0.8 z"
           id="path469"
           inkscape:connector-curvature="0" /><path
           d="m 733.8,636.2 c -0.5,1 1.1,1.8 1.6,0.8 0.5,-1.1 -1.2,-1.8 -1.6,-0.8 z"
           id="path471"
           inkscape:connector-curvature="0" /><path
           d="m 736.8,633.8 c 0.4,-1.1 -1.2,-1.7 -1.7,-0.7 -0.4,1 1.2,1.7 1.7,0.7 z"
           id="path473"
           inkscape:connector-curvature="0" /><path
           d="m 738.1,630.5 c 0.4,-1.1 -1.3,-1.7 -1.7,-0.6 -0.4,1 1.3,1.7 1.7,0.6 z"
           id="path475"
           inkscape:connector-curvature="0" /><path
           d="m 739.1,627.1 c 0.3,-1.1 -1.4,-1.6 -1.7,-0.5 -0.3,1.1 1.4,1.7 1.7,0.5 z"
           id="path477"
           inkscape:connector-curvature="0" /><path
           d="m 740,623.7 c 0.3,-1.1 -1.5,-1.5 -1.8,-0.4 -0.2,1.1 1.5,1.5 1.8,0.4 z"
           id="path479"
           inkscape:connector-curvature="0" /><path
           d="m 740.6,620.2 c 0.2,-1.2 -1.6,-1.4 -1.8,-0.3 -0.1,1.2 1.6,1.5 1.8,0.3 z"
           id="path481"
           inkscape:connector-curvature="0" /><path
           d="m 741,616.7 c 0.1,-1.2 -1.7,-1.2 -1.8,-0.1 -0.1,1.1 1.7,1.3 1.8,0.1 z"
           id="path483"
           inkscape:connector-curvature="0" /><path
           d="m 739.3,613.2 c 0,1.1 1.8,1.1 1.8,0 -0.1,-1.2 -1.9,-1.1 -1.8,0 z"
           id="path485"
           inkscape:connector-curvature="0" /><path
           d="m 739,609.8 c 0.1,1.1 1.9,1 1.8,-0.2 -0.2,-1.2 -1.9,-0.9 -1.8,0.2 z"
           id="path487"
           inkscape:connector-curvature="0" /><path
           d="m 738.5,606.5 c 0.2,1.1 2,0.8 1.8,-0.4 -0.3,-1.1 -2.1,-0.7 -1.8,0.4 z"
           id="path489"
           inkscape:connector-curvature="0" /><path
           d="m 737.6,603.2 c 0.3,1.1 2,0.6 1.7,-0.5 -0.4,-1.2 -2,-0.6 -1.7,0.5 z"
           id="path491"
           inkscape:connector-curvature="0" /><path
           d="m 736.5,600 c 0.4,1 2.1,0.4 1.7,-0.7 -0.6,-1 -2.2,-0.3 -1.7,0.7 z"
           id="path493"
           inkscape:connector-curvature="0" /><path
           d="m 735,597 c 0.5,1 2.1,0.2 1.6,-0.8 -0.6,-1.1 -2.1,-0.2 -1.6,0.8 z"
           id="path495"
           inkscape:connector-curvature="0" /><path
           d="m 733.3,594.1 c 0.6,0.9 2.1,0 1.5,-1 -0.7,-1 -2.1,0 -1.5,1 z"
           id="path497"
           inkscape:connector-curvature="0" /><path
           d="m 731.3,591.3 c 0.7,0.9 2.1,-0.2 1.4,-1.1 -0.8,-0.9 -2.1,0.3 -1.4,1.1 z"
           id="path499"
           inkscape:connector-curvature="0" /><path
           d="m 729,588.9 c 0.8,0.8 2.1,-0.5 1.2,-1.3 -0.8,-0.8 -2,0.5 -1.2,1.3 z"
           id="path501"
           inkscape:connector-curvature="0" /><path
           d="m 726.4,586.7 c 0.9,0.6 2,-0.8 1,-1.5 -1,-0.6 -1.9,0.9 -1,1.5 z"
           id="path503"
           inkscape:connector-curvature="0" /><path
           d="m 723.6,585.1 c 1,0.5 1.9,-1.1 0.8,-1.6 -1.2,-0.6 -1.8,1.1 -0.8,1.6 z"
           id="path505"
           inkscape:connector-curvature="0" /><path
           d="m 720.4,583.9 c 1,0.3 1.6,-1.4 0.4,-1.7 -1.1,-0.3 -1.4,1.5 -0.4,1.7 z"
           id="path507"
           inkscape:connector-curvature="0" /><path
           d="m 717.2,583.4 c 1.1,0.1 1.3,-1.7 0.1,-1.8 -1.2,0 -1.2,1.8 -0.1,1.8 z"
           id="path509"
           inkscape:connector-curvature="0" /><path
           d="m 713.9,583.6 c 1,-0.1 0.9,-1.9 -0.3,-1.8 -1.2,0.3 -0.7,2 0.3,1.8 z"
           id="path511"
           inkscape:connector-curvature="0" /><path
           d="m 710.1,582.9 c -1.1,0.5 -0.2,2.1 0.7,1.6 1,-0.4 0.4,-2.1 -0.7,-1.6 z"
           id="path513"
           inkscape:connector-curvature="0" /><path
           d="m 708,586.2 c 0.9,-0.6 -0.1,-2.2 -1.1,-1.4 -1,0.7 0.2,2 1.1,1.4 z"
           id="path515"
           inkscape:connector-curvature="0" /><path
           d="m 704.2,587.3 c -0.8,0.9 0.7,2 1.4,1.2 0.7,-0.9 -0.5,-2.1 -1.4,-1.2 z"
           id="path517"
           inkscape:connector-curvature="0" /><path
           d="m 702.1,590.2 c -0.6,1 1,1.9 1.5,0.9 0.6,-0.9 -0.8,-1.9 -1.5,-0.9 z"
           id="path519"
           inkscape:connector-curvature="0" /><path
           d="m 702.2,594.1 c 0.4,-1 -1.2,-1.8 -1.7,-0.6 -0.4,1.1 1.3,1.6 1.7,0.6 z"
           id="path521"
           inkscape:connector-curvature="0" /><path
           d="m 701.3,597.3 c 0.2,-1 -1.5,-1.5 -1.8,-0.3 -0.1,1.2 1.7,1.4 1.8,0.3 z"
           id="path523"
           inkscape:connector-curvature="0" /><path
           d="m 701.1,600.6 c 0,-1 -1.8,-1.1 -1.8,0.1 0.2,1.2 1.9,0.9 1.8,-0.1 z"
           id="path525"
           inkscape:connector-curvature="0" /><path
           d="m 701.8,603.7 c -0.2,-0.5 -0.7,-0.6 -1.1,-0.5 -0.4,0.1 -0.8,0.6 -0.5,1.2 0.5,1.2 2.1,0.2 1.6,-0.7 z"
           id="path527"
           inkscape:connector-curvature="0" /><path
           d="m 703.5,606.3 c -0.6,-0.8 -2.2,0.3 -1.3,1.2 1,1 2,-0.5 1.3,-1.2 z"
           id="path529"
           inkscape:connector-curvature="0" /><path
           d="m 705.5,609.7 c 1.3,0.4 1.6,-1.4 0.6,-1.7 -0.9,-0.4 -1.8,1.2 -0.6,1.7 z"
           id="path531"
           inkscape:connector-curvature="0" /><path
           d="m 709.3,610.3 c 1.3,-0.1 1,-1.9 -0.1,-1.8 -0.5,0 -0.8,0.4 -0.8,0.9 0,0.4 0.2,0.9 0.9,0.9 z"
           id="path533"
           inkscape:connector-curvature="0" /><path
           d="m 712.3,607.8 c -0.5,0.2 -0.6,0.7 -0.4,1.1 0.1,0.4 0.6,0.8 1.2,0.5 1.1,-0.6 0.1,-2.1 -0.8,-1.6 z"
           id="path535"
           inkscape:connector-curvature="0" /><path
           d="m 714.7,605.9 c -0.3,0.4 -0.2,0.9 0.1,1.2 0.3,0.3 0.9,0.5 1.3,-0.1 0.4,-0.5 0.2,-1.1 -0.2,-1.3 -0.4,-0.1 -0.9,-0.1 -1.2,0.2 z"
           id="path537"
           inkscape:connector-curvature="0" /><path
           d="m 717.7,603.4 c 0.1,-0.7 -0.4,-1 -0.8,-1 -0.4,0 -0.9,0.2 -1,0.7 -0.2,1 1.5,1.7 1.8,0.3 z"
           id="path539"
           inkscape:connector-curvature="0" /><path
           d="m 715.7,600.1 c 0.2,1 2,0.8 1.7,-0.5 -0.4,-1.3 -2,-0.5 -1.7,0.5 z"
           id="path541"
           inkscape:connector-curvature="0" /><path
           d="m 714.3,597.3 c 0.6,0.8 2.2,-0.1 1.4,-1.2 -1,-0.9 -2.1,0.5 -1.4,1.2 z"
           id="path543"
           inkscape:connector-curvature="0" /><path
           d="m 712.4,593.9 c -1.3,-0.4 -1.5,1.4 -0.6,1.7 0.9,0.4 1.9,-1.2 0.6,-1.7 z"
           id="path545"
           inkscape:connector-curvature="0" /><path
           d="m 778.3,653.1 c -1.4,0.1 -1,1.9 0,1.8 1,0 1.4,-1.7 0,-1.8 z"
           id="path547"
           inkscape:connector-curvature="0" /><path
           d="m 775.2,655.6 c 0.9,-0.4 0.4,-2.2 -0.8,-1.6 -1.2,0.7 0,2.1 0.8,1.6 z"
           id="path549"
           inkscape:connector-curvature="0" /><path
           d="m 772.7,656.4 c -0.3,-0.3 -0.9,-0.4 -1.3,0.2 -0.8,1.2 0.9,1.9 1.5,1 0.2,-0.4 0.1,-0.9 -0.2,-1.2 z"
           id="path551"
           inkscape:connector-curvature="0" /><path
           d="m 771.8,660.5 c 0.1,-1 -1.6,-1.5 -1.8,-0.1 0,1.4 1.8,1.1 1.8,0.1 z"
           id="path553"
           inkscape:connector-curvature="0" /><path
           d="m 772.3,663.7 c -0.3,-1 -2.1,-0.7 -1.7,0.6 0.5,1.2 2,0.3 1.7,-0.6 z"
           id="path555"
           inkscape:connector-curvature="0" /><path
           d="m 773.9,666.4 c -0.7,-0.8 -2.2,0.2 -1.3,1.2 0.9,1 2,-0.4 1.3,-1.2 z"
           id="path557"
           inkscape:connector-curvature="0" /><path
           d="m 775.6,670 c 1.2,0.6 1.7,-1.2 0.8,-1.6 -0.8,-0.5 -1.9,1 -0.8,1.6 z"
           id="path559"
           inkscape:connector-curvature="0" /><path
           d="m 779.4,671.1 c 1.3,0.1 1.2,-1.7 0.2,-1.8 -1.1,-0.1 -1.5,1.6 -0.2,1.8 z"
           id="path561"
           inkscape:connector-curvature="0" /><path
           d="m 783.2,670.9 c 1.3,-0.3 0.7,-2 -0.4,-1.8 -1,0.2 -0.9,2 0.4,1.8 z"
           id="path563"
           inkscape:connector-curvature="0" /><path
           d="m 786,668.1 c -1,0.5 -0.4,2.1 0.8,1.6 1.1,-0.6 0.1,-2.1 -0.8,-1.6 z"
           id="path565"
           inkscape:connector-curvature="0" /><path
           d="m 788.7,666.2 c -0.8,0.7 0.2,2.2 1.2,1.4 0.9,-0.9 -0.4,-2.1 -1.2,-1.4 z"
           id="path567"
           inkscape:connector-curvature="0" /><path
           d="m 791,663.7 c -0.7,0.9 0.7,2.1 1.4,1.1 0.8,-1 -0.8,-2 -1.4,-1.1 z"
           id="path569"
           inkscape:connector-curvature="0" /><path
           d="m 792.8,660.9 c -0.5,1 1,1.9 1.6,0.8 0.5,-1.2 -1.2,-1.9 -1.6,-0.8 z"
           id="path571"
           inkscape:connector-curvature="0" /><path
           d="m 795.7,658.2 c 0.4,-1.2 -1.4,-1.6 -1.7,-0.5 -0.3,1 1.3,1.7 1.7,0.5 z"
           id="path573"
           inkscape:connector-curvature="0" /><path
           d="m 796.6,654.7 c 0.2,-1.2 -1.6,-1.4 -1.8,-0.3 -0.2,1 1.6,1.5 1.8,0.3 z"
           id="path575"
           inkscape:connector-curvature="0" /><path
           d="m 797,651 c 0,-1.2 -1.8,-1.2 -1.8,-0.1 -0.1,1.1 1.7,1.3 1.8,0.1 z"
           id="path577"
           inkscape:connector-curvature="0" /><path
           d="m 795,647.5 c 0.1,1.1 1.9,1 1.8,-0.3 -0.2,-1.1 -1.9,-0.7 -1.8,0.3 z"
           id="path579"
           inkscape:connector-curvature="0" /><path
           d="m 794.2,644.3 c 0.4,1 2.1,0.6 1.7,-0.6 -0.5,-1.2 -2.1,-0.4 -1.7,0.6 z"
           id="path581"
           inkscape:connector-curvature="0" /><path
           d="m 792.6,641.4 c 0.6,0.9 2.2,0 1.5,-1 -0.8,-1.1 -2.1,0.1 -1.5,1 z"
           id="path583"
           inkscape:connector-curvature="0" /><path
           d="m 790.4,638.9 c 0.8,0.7 2.1,-0.5 1.2,-1.3 -1,-0.9 -2,0.6 -1.2,1.3 z"
           id="path585"
           inkscape:connector-curvature="0" /><path
           d="m 788.6,635.4 c -1.1,-0.6 -1.9,1 -0.9,1.5 0.9,0.6 1.9,-0.9 0.9,-1.5 z"
           id="path587"
           inkscape:connector-curvature="0" /><path
           d="m 785.2,633.8 c -1.2,-0.4 -1.7,1.3 -0.6,1.7 1,0.3 1.8,-1.3 0.6,-1.7 z"
           id="path589"
           inkscape:connector-curvature="0" /><path
           d="m 781.7,632.7 c -1.2,-0.3 -1.5,1.5 -0.4,1.7 1.1,0.3 1.6,-1.4 0.4,-1.7 z"
           id="path591"
           inkscape:connector-curvature="0" /><path
           d="m 778.1,632.1 c -1.2,-0.1 -1.3,1.7 -0.2,1.8 1.1,0.1 1.4,-1.7 0.2,-1.8 z"
           id="path593"
           inkscape:connector-curvature="0" /><path
           d="m 774.5,631.9 c -1.2,0 -1.1,1.8 0,1.8 1.1,0 1.2,-1.8 0,-1.8 z"
           id="path595"
           inkscape:connector-curvature="0" /><path
           d="m 770.8,632.1 c -1.2,0.1 -0.9,1.9 0.2,1.8 1.1,-0.1 1,-1.9 -0.2,-1.8 z"
           id="path597"
           inkscape:connector-curvature="0" /><path
           d="m 767.6,634.4 c 1.1,-0.2 0.8,-2 -0.4,-1.8 -1.1,0.3 -0.7,2.1 0.4,1.8 z"
           id="path599"
           inkscape:connector-curvature="0" /><path
           d="m 764.2,635.3 c 1.1,-0.3 0.6,-2.1 -0.5,-1.7 -1.1,0.3 -0.5,2 0.5,1.7 z"
           id="path601"
           inkscape:connector-curvature="0" /><path
           d="m 761,636.4 c 1,-0.4 0.4,-2.1 -0.7,-1.7 -1.1,0.6 -0.3,2.2 0.7,1.7 z"
           id="path603"
           inkscape:connector-curvature="0" /><path
           d="m 757,636.3 c -1.1,0.6 -0.1,2.1 0.8,1.6 1.1,-0.5 0.3,-2.1 -0.8,-1.6 z"
           id="path605"
           inkscape:connector-curvature="0" /><path
           d="m 753.9,638.2 c -1,0.7 0.1,2.1 1,1.5 1,-0.6 0,-2.2 -1,-1.5 z"
           id="path607"
           inkscape:connector-curvature="0" /><path
           d="m 786.3,613.5 c -0.4,-0.8 -2.2,-0.3 -1.5,0.9 0.8,1.2 2.1,-0.1 1.5,-0.9 z"
           id="path609"
           inkscape:connector-curvature="0" /><path
           d="m 787.6,617.2 c 1.2,0.6 1.8,-1.1 0.9,-1.5 -0.8,-0.6 -2,0.8 -0.9,1.5 z"
           id="path611"
           inkscape:connector-curvature="0" /><path
           d="m 791.4,618.4 c 1.3,0.1 1.2,-1.7 0.2,-1.8 -1.1,-0.1 -1.5,1.6 -0.2,1.8 z"
           id="path613"
           inkscape:connector-curvature="0" /><path
           d="m 795.1,618.1 c 1.2,-0.3 0.6,-2 -0.4,-1.7 -1,0.2 -0.8,2 0.4,1.7 z"
           id="path615"
           inkscape:connector-curvature="0" /><path
           d="m 798.7,616.8 c 1.1,-0.6 0.1,-2.1 -0.9,-1.6 -0.9,0.5 -0.3,2.2 0.9,1.6 z"
           id="path617"
           inkscape:connector-curvature="0" /><path
           d="m 800.4,613.3 c -0.8,0.7 0.3,2.1 1.3,1.3 0.8,-1 -0.6,-2.1 -1.3,-1.3 z"
           id="path619"
           inkscape:connector-curvature="0" /><path
           d="m 802.3,610.7 c -0.5,0.9 1,1.9 1.6,0.8 0.6,-1.2 -1.2,-1.8 -1.6,-0.8 z"
           id="path621"
           inkscape:connector-curvature="0" /><path
           d="m 803.3,607.6 c -0.2,1 1.6,1.5 1.8,0.2 0.1,-1.2 -1.7,-1.2 -1.8,-0.2 z"
           id="path623"
           inkscape:connector-curvature="0" /><path
           d="m 803.1,604.4 c 0.2,1 2,0.9 1.8,-0.4 -0.3,-1.3 -2,-0.6 -1.8,0.4 z"
           id="path625"
           inkscape:connector-curvature="0" /><path
           d="m 803.4,600.5 c -0.8,-1.1 -2.1,0.2 -1.5,1 0.5,0.9 2.2,0.1 1.5,-1 z"
           id="path627"
           inkscape:connector-curvature="0" /><path
           d="m 800.7,597.8 c -1.1,-0.7 -1.9,0.9 -1,1.5 0.7,0.5 2,-0.8 1,-1.5 z"
           id="path629"
           inkscape:connector-curvature="0" /><path
           d="m 796.7,597.7 c 1,0.4 1.8,-1.2 0.6,-1.7 -1.2,-0.4 -1.6,1.4 -0.6,1.7 z"
           id="path631"
           inkscape:connector-curvature="0" /><path
           d="m 793.5,597 c 1.1,0.1 1.4,-1.6 0.2,-1.8 -1.3,-0.1 -1.2,1.7 -0.2,1.8 z"
           id="path633"
           inkscape:connector-curvature="0" /><path
           d="m 790.2,597.1 c 1.1,-0.1 1,-1.9 -0.3,-1.8 -1.1,0.2 -0.7,2 0.3,1.8 z"
           id="path635"
           inkscape:connector-curvature="0" /><path
           d="m 787,597.9 c 1,-0.3 0.6,-2.1 -0.6,-1.7 -1.1,0.4 -0.5,2.1 0.6,1.7 z"
           id="path637"
           inkscape:connector-curvature="0" /><path
           d="m 783.9,599.2 c 1,-0.5 0.3,-2.1 -0.8,-1.6 -1.1,0.5 -0.2,2.1 0.8,1.6 z"
           id="path639"
           inkscape:connector-curvature="0" /><path
           d="m 780.9,600.9 c 1,-0.6 0.1,-2.1 -1,-1.5 -1,0.6 0.1,2.1 1,1.5 z"
           id="path641"
           inkscape:connector-curvature="0" /><path
           d="m 778.1,602.8 c 0.9,-0.7 -0.1,-2.1 -1.1,-1.4 -0.9,0.7 0.2,2.1 1.1,1.4 z"
           id="path643"
           inkscape:connector-curvature="0" /><path
           d="m 775.3,604.9 c 0.9,-0.7 -0.2,-2.1 -1.1,-1.4 -0.9,0.8 0.3,2.2 1.1,1.4 z"
           id="path645"
           inkscape:connector-curvature="0" /><path
           d="m 772.7,607.2 c 0.8,-0.7 -0.3,-2.1 -1.2,-1.3 -0.8,0.8 0.4,2.1 1.2,1.3 z"
           id="path647"
           inkscape:connector-curvature="0" /><path
           d="m 770.2,609.6 c 0.8,-0.8 -0.4,-2.1 -1.3,-1.3 -0.8,0.9 0.6,2.1 1.3,1.3 z"
           id="path649"
           inkscape:connector-curvature="0" /><path
           d="m 767.9,612.1 c 0.7,-0.8 -0.6,-2.1 -1.4,-1.2 -0.7,0.9 0.7,2.1 1.4,1.2 z"
           id="path651"
           inkscape:connector-curvature="0" /><path
           d="m 765.7,614.8 c 0.7,-0.9 -0.7,-2 -1.4,-1.1 -0.7,1 0.8,2 1.4,1.1 z"
           id="path653"
           inkscape:connector-curvature="0" /><path
           d="m 763.8,617.6 c 0.6,-0.9 -0.9,-2 -1.5,-1 -0.7,1 0.9,1.9 1.5,1 z"
           id="path655"
           inkscape:connector-curvature="0" /><path
           d="m 762,620.6 c 0.5,-1 -1,-1.9 -1.6,-0.9 -0.5,1 1.1,1.8 1.6,0.9 z"
           id="path657"
           inkscape:connector-curvature="0" /><path
           d="m 760.5,623.6 c 0.5,-1 -1.2,-1.8 -1.6,-0.7 -0.5,1.1 1.2,1.7 1.6,0.7 z"
           id="path659"
           inkscape:connector-curvature="0" /><path
           d="m 834.5,652.6 c 0.6,0.4 1.1,0 1.2,-0.4 0.1,-0.4 0.1,-0.9 -0.3,-1.1 -0.3,-0.2 -0.8,-0.1 -1.1,0.3 -0.3,0.3 -0.4,0.8 0.2,1.2 z"
           id="path661"
           inkscape:connector-curvature="0" /><path
           d="m 832.4,649.3 c 0.1,0.7 0.7,0.8 1.1,0.6 0.4,-0.2 0.7,-0.5 0.7,-0.9 -0.2,-0.8 -2,-1.1 -1.8,0.3 z"
           id="path663"
           inkscape:connector-curvature="0" /><path
           d="m 834.6,646.4 c 0.2,-0.4 0,-0.8 -0.3,-1.1 -0.3,-0.3 -0.9,-0.4 -1.2,0.2 -0.7,1.3 1.1,1.6 1.5,0.9 z"
           id="path665"
           inkscape:connector-curvature="0" /><path
           d="m 836.7,644.7 c 0.8,-0.3 0.5,-2.1 -0.7,-1.6 -1.2,0.5 -0.1,2 0.7,1.6 z"
           id="path667"
           inkscape:connector-curvature="0" /><path
           d="m 839.7,642.5 c -1.3,-0.1 -1.1,1.7 -0.2,1.8 0.8,0.1 1.4,-1.6 0.2,-1.8 z"
           id="path669"
           inkscape:connector-curvature="0" /><path
           d="m 842.2,645.3 c 0.8,0.6 2,-0.8 1,-1.5 -1.1,-0.6 -1.8,1 -1,1.5 z"
           id="path671"
           inkscape:connector-curvature="0" /><path
           d="m 844.4,647.4 c 0.5,0.8 2.1,0 1.4,-1.1 -0.8,-1 -2,0.3 -1.4,1.1 z"
           id="path673"
           inkscape:connector-curvature="0" /><path
           d="m 845.7,650.1 c 0.2,0.9 2,0.7 1.7,-0.5 -0.4,-1.2 -2,-0.4 -1.7,0.5 z"
           id="path675"
           inkscape:connector-curvature="0" /><path
           d="m 847.8,653.3 c 0.1,-1.3 -1.7,-1.1 -1.8,-0.2 -0.2,0.9 1.6,1.4 1.8,0.2 z"
           id="path677"
           inkscape:connector-curvature="0" /><path
           d="m 845.1,655.9 c -0.5,0.8 0.8,2 1.5,0.9 0.6,-1.1 -1.1,-1.7 -1.5,-0.9 z"
           id="path679"
           inkscape:connector-curvature="0" /><path
           d="m 843.1,658.2 c -0.8,0.6 0.2,2.1 1.1,1.4 1,-0.9 -0.4,-2.1 -1.1,-1.4 z"
           id="path681"
           inkscape:connector-curvature="0" /><path
           d="m 841.2,661.5 c 1.1,-0.5 0.1,-2.1 -0.8,-1.6 -0.9,0.4 -0.3,2.1 0.8,1.6 z"
           id="path683"
           inkscape:connector-curvature="0" /><path
           d="m 837.9,662.7 c 1.1,-0.4 0.5,-2 -0.5,-1.7 -1,0.3 -0.6,2.1 0.5,1.7 z"
           id="path685"
           inkscape:connector-curvature="0" /><path
           d="m 834.2,661.7 c -1,0.1 -0.9,1.9 0.3,1.8 1.2,-0.2 0.8,-1.9 -0.3,-1.8 z"
           id="path687"
           inkscape:connector-curvature="0" /><path
           d="m 831,662 c -1.1,0 -1.2,1.8 0,1.8 1.2,0 1.1,-1.8 0,-1.8 z"
           id="path689"
           inkscape:connector-curvature="0" /><path
           d="m 827.8,661.7 c -1,-0.2 -1.4,1.6 -0.3,1.8 1.2,0.1 1.3,-1.6 0.3,-1.8 z"
           id="path691"
           inkscape:connector-curvature="0" /><path
           d="m 824.6,661 c -1,-0.3 -1.7,1.3 -0.5,1.7 1.1,0.3 1.6,-1.4 0.5,-1.7 z"
           id="path693"
           inkscape:connector-curvature="0" /><path
           d="m 820.8,661.4 c 1.1,0.5 1.8,-1.1 0.8,-1.6 -0.9,-0.5 -1.8,1 -0.8,1.6 z"
           id="path695"
           inkscape:connector-curvature="0" /><path
           d="m 817.8,659.5 c 1,0.7 1.9,-0.8 1,-1.5 -0.7,-0.6 -1.9,0.8 -1,1.5 z"
           id="path697"
           inkscape:connector-curvature="0" /><path
           d="m 816.4,656 c -0.7,-0.8 -2.1,0.4 -1.3,1.3 0.9,0.8 2.1,-0.6 1.3,-1.3 z"
           id="path699"
           inkscape:connector-curvature="0" /><path
           d="m 814.3,653.5 c -0.6,-0.8 -2.1,0.1 -1.4,1.1 0.7,1 2,-0.2 1.4,-1.1 z"
           id="path701"
           inkscape:connector-curvature="0" /><path
           d="m 810.9,651.7 c 0.6,1 2.1,0.1 1.6,-0.8 -0.5,-1 -2.1,-0.3 -1.6,0.8 z"
           id="path703"
           inkscape:connector-curvature="0" /><path
           d="m 811.2,647.9 c -0.3,-1 -2.1,-0.5 -1.7,0.6 0.4,1.1 2.1,0.3 1.7,-0.6 z"
           id="path705"
           inkscape:connector-curvature="0" /><path
           d="m 687.2,649 c 0.1,1.3 1.9,0.8 1.8,0 0,-0.8 -1.7,-1.3 -1.8,0 z"
           id="path707"
           inkscape:connector-curvature="0" /><path
           d="m 689.8,646.5 c 0.5,-0.7 -0.7,-2 -1.5,-1 -0.7,1.1 1.1,1.7 1.5,1 z"
           id="path709"
           inkscape:connector-curvature="0" /><path
           d="m 691.9,644.5 c 0.8,-0.5 0,-2.1 -1,-1.5 -1,0.7 0.2,2 1,1.5 z"
           id="path711"
           inkscape:connector-curvature="0" /><path
           d="m 694.7,643.1 c 0.9,-0.3 0.5,-2.1 -0.6,-1.7 -1.2,0.5 -0.4,2.1 0.6,1.7 z"
           id="path713"
           inkscape:connector-curvature="0" /><path
           d="m 697.4,640.6 c -1.2,0.2 -0.7,1.9 0.3,1.8 1,-0.2 0.9,-2 -0.3,-1.8 z"
           id="path715"
           inkscape:connector-curvature="0" /><path
           d="m 700.9,640.5 c -1.2,-0.1 -1.2,1.7 -0.2,1.8 1,0.1 1.4,-1.7 0.2,-1.8 z"
           id="path717"
           inkscape:connector-curvature="0" /><path
           d="m 704.4,641.4 c -1.1,-0.5 -1.6,1.3 -0.7,1.6 0.8,0.4 1.8,-1.1 0.7,-1.6 z"
           id="path719"
           inkscape:connector-curvature="0" /><path
           d="m 706,644.7 c 0.6,0.7 2.1,-0.3 1.3,-1.2 -0.9,-0.9 -2,0.6 -1.3,1.2 z"
           id="path721"
           inkscape:connector-curvature="0" /><path
           d="m 707.6,647.2 c 0.4,0.9 2.1,0.4 1.6,-0.7 -0.5,-1.1 -2,-0.2 -1.6,0.7 z"
           id="path723"
           inkscape:connector-curvature="0" /><path
           d="m 708.5,650.1 c 0.1,1 1.9,0.9 1.8,-0.3 -0.3,-1.1 -2,-0.6 -1.8,0.3 z"
           id="path725"
           inkscape:connector-curvature="0" /><path
           d="m 708.7,653.3 c 0,1 1.8,1.2 1.8,0 0,-1.1 -1.8,-1 -1.8,0 z"
           id="path727"
           inkscape:connector-curvature="0" /><path
           d="m 710.2,656.7 c 0.2,-1.1 -1.6,-1.3 -1.8,-0.3 -0.1,1.1 1.6,1.4 1.8,0.3 z"
           id="path729"
           inkscape:connector-curvature="0" /><path
           d="m 707.8,659.6 c -0.3,1 1.4,1.5 1.7,0.4 0.3,-1 -1.5,-1.4 -1.7,-0.4 z"
           id="path731"
           inkscape:connector-curvature="0" /><path
           d="m 706.8,662.7 c -0.4,1 1.3,1.7 1.7,0.6 0.4,-1.1 -1.3,-1.6 -1.7,-0.6 z"
           id="path733"
           inkscape:connector-curvature="0" /><path
           d="m 707.2,666.4 c 0.5,-1 -1.2,-1.7 -1.6,-0.8 -0.5,1 1.1,1.9 1.6,0.8 z"
           id="path735"
           inkscape:connector-curvature="0" /><path
           d="m 704.1,668.5 c -0.5,0.9 1,1.9 1.6,0.9 0.5,-1 -1.1,-1.8 -1.6,-0.9 z"
           id="path737"
           inkscape:connector-curvature="0" /><path
           d="m 702.4,671.3 c -0.6,0.9 0.8,1.9 1.5,1 0.6,-0.9 -1,-1.9 -1.5,-1 z"
           id="path739"
           inkscape:connector-curvature="0" /><path
           d="m 740,674 c -0.4,0.2 -0.5,0.6 -0.5,1.1 0.1,0.4 0.5,0.8 1.1,0.6 0.6,-0.3 0.6,-0.9 0.4,-1.2 -0.2,-0.4 -0.6,-0.6 -1,-0.5 z"
           id="path741"
           inkscape:connector-curvature="0" /><path
           d="m 741.8,672.2 c -0.2,0.4 0.1,0.8 0.4,1.1 0.4,0.3 1,0.2 1.2,-0.4 0.2,-0.6 -0.2,-1.1 -0.6,-1.1 -0.3,-0.2 -0.8,0 -1,0.4 z"
           id="path743"
           inkscape:connector-curvature="0" /><path
           d="m 742.2,668.5 c -0.4,0.3 -0.6,0.7 -0.4,1.1 0.2,0.4 0.6,0.5 1.1,0.4 0.4,-0.1 0.8,-0.5 0.6,-1.2 -0.3,-0.6 -0.9,-0.6 -1.3,-0.3 z"
           id="path745"
           inkscape:connector-curvature="0" /><path
           d="m 740.7,666 c -1.2,-0.5 -1.6,1.2 -0.8,1.6 0.8,0.5 2,-0.9 0.8,-1.6 z"
           id="path747"
           inkscape:connector-curvature="0" /><path
           d="m 737.2,665.1 c -1.2,-0.1 -1.1,1.7 -0.1,1.8 0.9,0.1 1.3,-1.7 0.1,-1.8 z"
           id="path749"
           inkscape:connector-curvature="0" /><path
           d="m 733.9,667.1 c 1,-0.1 0.9,-1.9 -0.3,-1.8 -1.1,0.2 -0.7,1.9 0.3,1.8 z"
           id="path751"
           inkscape:connector-curvature="0" /><path
           d="m 730.2,666.2 c -1.1,0.5 -0.2,2.1 0.7,1.6 0.9,-0.3 0.4,-2 -0.7,-1.6 z"
           id="path753"
           inkscape:connector-curvature="0" /><path
           d="m 727.2,668.4 c -0.8,1.1 0.8,1.9 1.4,1.2 0.5,-0.7 -0.5,-2.2 -1.4,-1.2 z"
           id="path755"
           inkscape:connector-curvature="0" /><path
           d="m 788,571.9 c -0.4,0.1 -0.7,0.4 -0.8,0.9 -0.1,0.4 0.2,1 1,0.9 0.8,-0.1 1,-0.8 0.8,-1.2 -0.3,-0.4 -0.6,-0.7 -1,-0.6 z"
           id="path757"
           inkscape:connector-curvature="0" /><path
           d="m 789.6,570.1 c -0.1,0.5 0.2,0.8 0.6,1.1 0.4,0.2 1,0.1 1.2,-0.7 0.1,-0.7 -0.3,-1.1 -0.8,-1.1 -0.5,-0.1 -0.9,0.2 -1,0.7 z"
           id="path759"
           inkscape:connector-curvature="0" /><path
           d="m 789.1,567.1 c 0.2,0.4 0.7,0.5 1.2,0.4 0.4,-0.1 0.8,-0.6 0.4,-1.3 -0.8,-1.2 -2.1,0.1 -1.6,0.9 z"
           id="path761"
           inkscape:connector-curvature="0" /><path
           d="m 787.6,563.4 c -0.7,-0.3 -1.1,0.1 -1.2,0.5 -0.1,0.5 0.1,0.9 0.5,1.1 0.5,0.2 0.9,0 1.2,-0.4 0.2,-0.3 0.2,-0.9 -0.5,-1.2 z"
           id="path763"
           inkscape:connector-curvature="0" /><path
           d="m 784.5,563.9 c 0,-0.4 -0.4,-0.9 -1.1,-0.7 -1.3,0.4 -0.5,2 0.5,1.7 0.5,-0.1 0.7,-0.6 0.6,-1 z"
           id="path765"
           inkscape:connector-curvature="0" /><path
           d="m 779.9,565 c -1,0.9 0.3,2.1 1.1,1.4 0.9,-0.6 0,-2.2 -1.1,-1.4 z"
           id="path767"
           inkscape:connector-curvature="0" /><path
           d="m 777.3,568.1 c -0.6,1.2 1.1,1.9 1.6,0.9 0.5,-0.9 -0.9,-2.1 -1.6,-0.9 z"
           id="path769"
           inkscape:connector-curvature="0" /><path
           d="m 777.6,572.1 c 0.3,-1.1 -1.4,-1.7 -1.7,-0.4 -0.3,1.2 1.5,1.5 1.7,0.4 z"
           id="path771"
           inkscape:connector-curvature="0" /><path
           d="m 775.4,575.5 c 0,1.3 1.8,1.1 1.8,0 0,-1.1 -1.8,-1.3 -1.8,0 z"
           id="path773"
           inkscape:connector-curvature="0" /><path
           d="m 777.6,578.9 c -0.2,-1.1 -2,-0.9 -1.7,0.4 0.3,1.2 2,0.6 1.7,-0.4 z"
           id="path775"
           inkscape:connector-curvature="0" /><path
           d="m 778.8,582.1 c -0.5,-1 -2.2,-0.3 -1.6,0.8 0.6,1.1 2.1,0.1 1.6,-0.8 z"
           id="path777"
           inkscape:connector-curvature="0" /><path
           d="m 779.4,586 c 0.9,0.9 2.1,-0.4 1.3,-1.2 -0.7,-0.8 -2.2,0.2 -1.3,1.2 z"
           id="path779"
           inkscape:connector-curvature="0" /><path
           d="m 730.1,562.4 c 0.1,0 0.7,-1.6 0.6,-1.7 -0.1,0 -0.7,1.7 -0.6,1.7 z"
           id="path781"
           inkscape:connector-curvature="0" /><path
           d="m 731,560.9 c -0.1,0 -0.7,1.6 -0.6,1.7 0.1,0 0.8,-1.7 0.6,-1.7 z"
           id="path783"
           inkscape:connector-curvature="0" /><path
           d="m 735.3,558.6 c 0.3,-1.4 -1.5,-1.5 -1.7,-0.5 -0.3,1 1.3,1.8 1.7,0.5 z"
           id="path785"
           inkscape:connector-curvature="0" /><path
           d="m 735.4,554.5 c -0.2,-0.7 -0.8,-0.8 -1.2,-0.6 -0.4,0.2 -0.7,0.6 -0.6,1.1 0.2,1 2.1,0.9 1.8,-0.5 z"
           id="path787"
           inkscape:connector-curvature="0" /><path
           d="m 733.2,552.3 c 0.3,-0.3 0.5,-0.9 -0.1,-1.3 -0.6,-0.4 -1.1,-0.2 -1.3,0.2 -0.2,0.4 -0.1,0.9 0.2,1.2 0.3,0.3 0.8,0.2 1.2,-0.1 z"
           id="path789"
           inkscape:connector-curvature="0" /><path
           d="m 729.9,550.7 c 0,-0.4 -0.3,-0.9 -1,-0.9 -1.5,0.2 -0.8,2 0.2,1.8 0.5,0 0.8,-0.4 0.8,-0.9 z"
           id="path791"
           inkscape:connector-curvature="0" /><path
           d="m 725,551.4 c -1.1,0.9 0.3,2.1 1.1,1.4 0.9,-0.6 0.1,-2.2 -1.1,-1.4 z"
           id="path793"
           inkscape:connector-curvature="0" /><path
           d="m 724,555.3 c 0.5,-0.9 -0.9,-2 -1.6,-0.8 -0.6,1.2 1.2,1.7 1.6,0.8 z"
           id="path795"
           inkscape:connector-curvature="0" /><path
           d="m 722.9,558.5 c 0.2,-1.1 -1.5,-1.6 -1.8,-0.4 -0.2,1.3 1.6,1.5 1.8,0.4 z"
           id="path797"
           inkscape:connector-curvature="0" /><path
           d="m 720.7,561.9 c -0.1,1.2 1.7,1.3 1.8,0.1 0.1,-1.2 -1.7,-1.4 -1.8,-0.1 z"
           id="path799"
           inkscape:connector-curvature="0" /><path
           d="m 722.5,565.6 c -0.1,-1.1 -1.8,-1.2 -1.8,0.1 0.1,1.3 1.9,1 1.8,-0.1 z"
           id="path801"
           inkscape:connector-curvature="0" /><path
           d="m 723.2,568.8 c -0.4,-1 -2.1,-0.6 -1.6,0.7 0.6,1.3 2,0.2 1.6,-0.7 z"
           id="path803"
           inkscape:connector-curvature="0" /></g></g></switch></svg>