<?xml version="1.0" encoding="UTF-8" standalone="no"?>
<svg
   xmlns:dc="http://purl.org/dc/elements/1.1/"
   xmlns:cc="http://creativecommons.org/ns#"
   xmlns:rdf="http://www.w3.org/1999/02/22-rdf-syntax-ns#"
   xmlns:svg="http://www.w3.org/2000/svg"
   xmlns="http://www.w3.org/2000/svg"
   xmlns:sodipodi="http://sodipodi.sourceforge.net/DTD/sodipodi-0.dtd"
   xmlns:inkscape="http://www.inkscape.org/namespaces/inkscape"
   version="1.1"
   id="Layer_1"
   x="0px"
   y="0px"
   viewBox="0 0 1000 1000"
   width="100%"
   height="100%"
   style="enable-background:new 0 0 1000 1000;"
   xml:space="preserve"
   ><style
     type="text/css"
     id="style3">
	.noFillSVG{fill:none;}
</style><switch
     id="switch5"
     transform="translate(36.8,-7.2775957)"><g
       id="g7"><g
         id="g9"><path
           class="noFillSVG"
           d="m 257.2,580.4 c 6.2,0.8 11.9,3.5 17.6,5.9 6.7,2.8 13.3,4.9 20.5,5.5 1.8,-9.5 -3.2,-19.2 -8.7,-26.7 -5.5,-7.4 -12.6,-13.6 -20.6,-18 -5.7,-3.2 -12.1,-5.6 -18.7,-7 -0.7,2.2 -1.4,4.5 -2,6.8 -3.3,12.8 -1,27.1 11.9,33.5 z"
           id="path11"
           inkscape:connector-curvature="0"
           style="fill:none" /><path
           class="noFillSVG"
           d="m 242.6,534.3 c -4.7,-0.6 -9.4,-0.6 -14.2,-0.2 -11.8,1.2 -24.9,5.9 -32.2,15.6 -4,5.3 -5.9,12.3 -4,18.7 1,3.5 3.2,7.1 6.6,8.7 2,1 4.6,1.1 6.6,-0.1 1.5,-0.9 2.4,-2.5 2.3,-4.2 0,-0.6 -0.2,-1.2 -0.4,-1.8 -0.1,-0.3 -0.3,-0.6 -0.5,-0.8 -0.1,-0.1 -0.6,-0.9 -0.7,-0.5 -0.1,0.3 0.1,0.7 0,1 0,0.3 -0.1,0.7 -0.3,1 -0.3,0.6 -0.8,1.1 -1.3,1.5 -1.3,0.8 -2.9,0.8 -4.2,0 -0.1,0 -0.2,-0.1 -0.3,-0.2 -4,-2.5 -4.7,-8.3 -3.9,-12.6 2.3,-11.4 14.6,-18.7 25,-21.4 6.7,-1.7 13.5,-2.1 20.3,-1.4 0.5,-1 0.8,-2.1 1.2,-3.3 z"
           id="path13"
           inkscape:connector-curvature="0"
           style="fill:none" /><path
           class="noFillSVG"
           d="m 251.3,580.2 c 1,-0.1 1.9,-0.1 2.9,-0.1 -5.6,-3.6 -9.6,-9.2 -11.1,-15.9 -1.6,-7.2 -0.2,-14.9 2.1,-21.8 0.8,-2.4 1.7,-4.9 2.5,-7.3 1.9,-5.3 3.7,-10.7 4.5,-16.3 0.2,-1.3 0.4,-2.7 0.5,-4 0.4,-5.9 -0.4,-11.8 -2,-17.5 -3.2,-11.5 -9.9,-23 -20.1,-29.6 -11.1,-7.2 -26.3,-6.7 -36.4,2.1 -7.6,6.6 -10.8,18.1 -3.6,26.2 3.2,3.6 8.2,6 13,4.7 2.7,-0.7 5.6,-2.7 6.2,-5.6 0.3,-1.7 -0.3,-3.6 -1.5,-4.9 -0.7,-0.7 -2.3,-1.5 -3.4,-1.1 -1.3,0.5 -0.9,1.8 -0.4,3.2 0.4,0.9 0.6,0.7 0.8,1.7 0.1,0.7 0,1.3 -0.3,1.9 -1.1,2.2 -4,2.9 -6.3,2.6 -6.3,-0.9 -8.8,-7.6 -8.1,-13.2 1.8,-14.9 18.6,-19.4 31.2,-15.9 11.9,3.3 21.7,13.1 25.1,25 2,7.1 2.2,14.5 1.3,21.8 -0.4,3.4 -1.1,6.8 -1.9,10.1 -0.4,1.6 -0.8,3.2 -1.2,4.7 -2,7.5 -5.4,14.8 -6.7,22.5 -0.4,2.3 -0.5,4.6 -0.4,7 0.6,8.4 4.4,17.1 13.1,19.6 0.1,-0.1 0.2,0 0.2,0.1 z"
           id="path15"
           inkscape:connector-curvature="0"
           style="fill:none" /><path
           class="noFillSVG"
           d="m 482.2,268.9 c -3.5,0.8 -6.7,-1.3 -8.2,-4.4 -0.4,-0.7 -0.6,-1.5 -0.7,-2.3 -2.1,5.6 -5.5,11.1 -11.1,10.7 -0.1,0 -0.2,0 -0.3,-0.1 -2.4,-0.2 -4,-1.5 -5.9,-3.8 -1.7,-2.1 -2.9,-4.5 -3.9,-7 -0.9,5.1 -6.1,9.4 -11.3,5.8 -2.8,-1.9 -4,-5.8 -1.9,-8.6 1.8,-2.4 3.9,-1.8 6.2,-0.8 0.4,0.2 0.5,-0.3 0.4,-0.5 -0.4,-1.1 -2.9,-1.4 -3.7,-1.2 -2.6,0.5 -4.9,2.8 -6,5.1 -1.1,2.3 -1.3,4.9 -1,7.5 0.7,5.4 3.9,9.7 7.8,13.2 6.6,6 15.2,10.1 20.4,17.7 5.2,-7.7 13.7,-11.8 20.3,-18 3.9,-3.7 7.2,-8.2 7.5,-13.7 0.2,-2.5 -0.2,-5.1 -1.4,-7.3 -0.5,-1 -1.2,-1.9 -2,-2.6 -1.7,-1.6 -4.9,-2.2 -6.9,-0.9 -0.5,0.3 -1,1.5 0,1.6 0.5,0.1 1,-0.8 1.4,-1.1 2.2,-1.4 4.7,0.3 5.5,2.4 1.4,3.6 -1.6,7.5 -5.2,8.3 z"
           id="path17"
           inkscape:connector-curvature="0"
           style="fill:none" /><path
           class="noFillSVG"
           d="m 387.6,287.4 c -4,-5.5 -7.1,-11.7 -8.9,-18.3 -2.8,-10.4 -2.6,-24.7 6.1,-32.4 3.2,-2.8 8.6,-5.1 12.8,-2.9 0.1,0 0.2,0.1 0.3,0.1 1.3,0.8 2.1,2.1 2,3.6 0,0.7 -0.2,1.3 -0.6,1.9 -0.2,0.3 -0.4,0.5 -0.7,0.8 -0.3,0.2 -0.6,0.2 -0.9,0.5 -0.3,0.3 0.6,0.4 0.8,0.4 0.3,0 0.6,0 1,0 0.6,0 1.2,-0.2 1.8,-0.5 1.5,-0.8 2.5,-2.4 2.5,-4.1 0,-2.3 -1.3,-4.5 -3.2,-5.7 -3.1,-2.1 -7.3,-2.3 -10.9,-1.4 -6.5,1.6 -11.6,6.8 -14.2,12.8 -4.8,11.2 -2.3,24.9 2.5,35.7 1.9,4.3 4.4,8.4 7.2,12.2 0.7,-0.9 1.6,-1.8 2.4,-2.7 z"
           id="path19"
           inkscape:connector-curvature="0"
           style="fill:none" /><path
           class="noFillSVG"
           d="m 357.1,315.6 c 5.7,-1.5 11.2,-3.7 16.1,-7 1.1,-0.7 2.2,-1.6 3.3,-2.4 4.4,-3.5 8.2,-7.7 11.9,-12 1.7,-2 3.4,-3.9 5.1,-5.8 4.8,-5.4 10.9,-10.5 17.9,-12.7 6.5,-2 13.4,-1.4 19.3,1.7 -0.5,-0.8 -0.9,-1.7 -1.3,-2.5 -0.1,0 -0.3,0 -0.4,-0.2 -6.5,-6.3 -15.9,-5.3 -23.5,-1.6 -2.1,1 -4,2.3 -5.8,3.8 -6.1,4.9 -10.6,11.5 -16.2,17 -1.2,1.1 -2.3,2.3 -3.5,3.4 -2.5,2.4 -5.1,4.6 -7.8,6.7 -5.8,4.4 -12.4,8 -19.5,9.7 -12,3 -25.3,-0.7 -34.1,-9.3 -9.3,-9.1 -13.8,-26 -1.8,-35 4.5,-3.4 11.6,-4.6 15.5,0.4 1.4,1.8 2.3,4.7 0.9,6.7 -0.4,0.5 -0.8,0.9 -1.5,1.2 -1,0.4 -0.9,0 -1.9,0.2 -1.5,0.2 -2.8,0.5 -2.6,1.9 0.2,1.1 1.7,2.1 2.7,2.4 1.7,0.5 3.7,0.1 5,-1.1 2.2,-1.9 2.5,-5.5 1.8,-8.1 -1.3,-4.9 -5.8,-8 -10.6,-9 -10.6,-2.2 -19,6.3 -20.9,16.2 -2.6,13.2 4.6,26.6 16.4,32.6 4.6,2.4 9.7,3.7 14.9,4.3 l 11.8,0 c 2.8,-0.2 5.9,-0.8 8.8,-1.5 z"
           id="path21"
           inkscape:connector-curvature="0"
           style="fill:none" /><path
           class="noFillSVG"
           d="m 286.4,632.8 c 0,-0.2 0.1,-0.3 0.2,-0.4 2,-5.1 2.8,-10.8 3.4,-16.2 1,-7.9 2.6,-15.4 6.1,-22.6 0,-0.1 0.1,-0.2 0.1,-0.3 0,-0.1 0.1,-0.1 0.1,-0.2 -0.1,0 -0.1,0 -0.2,0 -0.1,0 -0.2,0 -0.3,0 -8,-0.6 -15.2,-3 -22.6,-6.1 -5,-2.1 -10.3,-4.4 -15.8,-5.2 -0.1,0 -0.3,0 -0.5,0 0,0 -0.1,0 -0.1,0 -3.5,-0.5 -7,-0.3 -10.5,0.8 -8.8,2.8 -14.6,14.5 -7.1,21.9 3.8,3.7 10.7,4.1 13.5,-0.9 1.4,-2.5 1.2,-5.6 -1.1,-7.5 -1.2,-1 -2.3,-1.4 -3.8,-1.4 -0.9,-0.1 -1.7,0 -2.4,0.5 -0.9,0.6 -1.7,1.6 -1.7,2.7 0,0.6 0.2,1.2 0.5,1.6 0.4,0.6 1.1,0.7 1.7,1.1 0.5,0.3 2.6,2 1.4,2.7 -4.4,2.5 -7.8,-2.2 -7.3,-6.3 0.6,-5.6 5.7,-9.5 10.8,-10.9 14.3,-3.9 26.3,9.3 40.1,9.8 0,0 0,0 0.1,0 0.2,0 0.4,0.1 0.4,0.3 0.1,0.2 0.1,0.3 0,0.6 0,0 0,0 0,0.1 -6.6,12.1 -1.5,29.5 -12.3,39.6 -3.7,3.4 -9.2,5.5 -14.1,3.7 -2,-0.8 -3.8,-2.5 -4.4,-4.6 -0.3,-1 -0.3,-2 0.1,-3 0.3,-0.7 1.6,-2.5 2.6,-2.2 0.2,0.1 0.4,0.2 0.5,0.4 0.4,0.5 1.3,2.2 0.7,2.8 -0.2,0.2 -0.4,0.3 -0.7,0.3 -0.7,0.2 -0.7,0.4 -0.3,1.1 0.3,0.6 0.9,1.1 1.5,1.2 1.4,0.2 3.9,0.2 5,-1 1,-1.1 1.5,-2.7 1.4,-4.2 -0.1,-3.2 -3,-5.4 -6.1,-5.4 -5.9,-0.1 -8.9,6 -7.6,11.2 2.6,10.2 15.7,11 22.5,4.9 2.7,-2.5 4.6,-5.4 5.9,-8.7 0.3,-0.1 0.3,-0.2 0.3,-0.2 z"
           id="path23"
           inkscape:connector-curvature="0"
           style="fill:none" /><path
           class="noFillSVG"
           d="m 663.3,539.8 c -10.6,4.7 -21.7,12.7 -29.2,22.8 l -5.7,9.9 c -2.4,5.8 -3.6,11.9 -2.8,18.4 0,0.2 0,0.3 -0.1,0.4 0,0.1 -0.1,0.2 -0.3,0.3 -6.7,2.9 -11.9,7.9 -15.8,13.8 l -2.9,5 c -1.7,3.3 -3,6.8 -4.1,10.4 -4,13.8 -4,28.9 0.3,42.5 1.2,-0.2 2.4,-0.5 3.6,-0.7 -1.2,-3.5 -2.1,-7.1 -2.7,-10.7 -1.8,-11.2 -0.6,-22.9 3.3,-33.6 3.7,-9.9 10.1,-20.9 20.5,-24.6 -0.1,-0.1 -0.1,-0.2 -0.2,-0.3 -0.1,-0.3 -0.1,-0.6 0.1,-0.7 0.1,-0.2 0.3,-0.4 0.6,-0.5 0.1,0 0.2,0 0.4,0 -2.3,-12.3 5.9,-25 14,-33.5 9.2,-9.7 21.7,-16.7 34.9,-19.5 -0.4,-1.2 -0.8,-2.3 -1.2,-3.5 -4.2,0.9 -8.5,2.3 -12.7,4.1 z"
           id="path25"
           inkscape:connector-curvature="0"
           style="fill:none" /><path
           class="noFillSVG"
           d="m 265.6,611.7 c -0.9,-2 -1.9,-3 -4.3,-3.6 -3,-0.8 -6.2,-0.8 -9.2,-0.3 -5.5,0.8 -10.7,2.9 -16.1,4 -9.4,2.1 -18.7,-0.1 -25.4,-7.1 -3.3,4.6 -1.9,11.1 3.7,13.3 3.2,1.3 6.6,0.3 9.9,1 5.4,1.1 6.3,7.2 1.9,10.3 -6.1,4.5 -13.6,-1.9 -20,-1.7 -5.6,0.2 -9.6,5.1 -11,10.2 -0.6,2.3 -0.8,4.8 -0.8,7.2 0,1.2 0.1,2.4 0.2,3.6 0.1,0.8 0,1.7 0.1,2.5 0.2,0.9 1,1.2 1.7,1.6 1.8,1.1 3.6,2.2 5.5,3.1 3.6,1.8 7.9,3.3 12,2.7 3.1,-0.5 5.6,-2.3 7.2,-4.9 3.5,-5.5 1.7,-15.6 9,-18.3 4.9,-1.8 9.3,2 7.6,7 -1.1,3.2 -3.6,5.7 -4.1,9 -0.9,5.9 4.1,10.4 9.7,9.9 -2.6,-8.9 -0.1,-17.8 6,-24.7 3.5,-4 7.6,-7.2 11.1,-11.2 2.7,-3.2 7,-9 5.3,-13.6 z m -52.8,38.7 c -4.2,1.9 -9,0.9 -12.4,-1.9 0,0 0,0 0,0 0,0 -0.1,-0.1 -0.1,-0.1 0,0 0,-0.1 -0.1,-0.1 0,0 0,0 0,-0.1 -0.7,-4.4 0.9,-9 4.6,-11.7 4.6,-3.3 10.8,-2.1 15.7,-0.3 0.2,0.1 0.3,0.2 0.4,0.4 0.1,0.1 0.2,0.3 0.1,0.5 -1,5 -3,11 -8.2,13.3 z m 44.9,-31.2 c -0.9,2.3 -2.3,4.3 -3.7,6.3 -3.5,4.8 -7.4,9.1 -11.8,13 -0.4,0.3 -0.9,0.6 -1.3,0.4 -0.4,-0.3 -0.2,-0.8 -0.1,-1.2 0.6,-2 0.7,-4.1 0.4,-6.2 -0.2,-1.3 -0.9,-2.8 -2.2,-3.1 -0.6,-0.1 -1.2,0.1 -1.7,0 -1.7,-0.1 -0.9,-1.1 -0.5,-2 0.5,-1 0.6,-2.1 0.1,-3.1 -0.6,-1.3 -1.7,-2.3 -3,-3 -1.3,-0.7 -2.7,-1.1 -4,-1.6 -0.5,-0.2 -1.1,-0.6 -0.9,-1.1 0.1,-0.2 0.4,-0.4 0.6,-0.4 6.7,-2.3 13.7,-3.7 20.8,-3.9 1.8,-0.1 3.6,-0.1 5.3,0.4 0.7,0.2 1.4,0.5 1.9,1 0.4,0.4 0.6,0.8 0.7,1.3 0.1,0.9 -0.2,2.1 -0.6,3.2 z"
           id="path27"
           inkscape:connector-curvature="0"
           style="fill:none" /><path
           class="noFillSVG"
           d="m 251,593.8 c 5.7,2.7 4.6,9.4 0.6,12.7 2.7,-0.4 5.4,-0.5 8,-0.1 3,0.5 4.8,1.2 6.2,3.2 0.1,0 0.2,0.1 0.2,0.2 3.2,4.6 0.1,10.3 -3.7,14.9 0.7,-0.3 1.5,-0.5 2.3,-0.5 3.4,-0.3 6.9,1.5 7.9,4.9 1.1,3.5 -0.8,8 -4.7,8.7 -2.3,0.4 -5,-1 -4.9,-3.6 0,-0.4 0.5,-1.4 0.2,-1.8 -0.6,-0.8 -1.4,0.2 -1.4,0.8 -0.1,2.4 2,4.9 4.2,5.6 1,0.3 2.2,0.5 3.3,0.5 2.5,0 5,-1 7.1,-2.4 4.6,-3.1 6.9,-8.2 8.1,-13.4 2.1,-8.9 1.4,-18.3 5.5,-26.6 -9.1,-0.7 -16.9,-6.1 -25.5,-8.8 -5,-1.6 -10.4,-2.3 -15.4,-0.2 -2.4,1 -4.5,2.5 -6,4.6 -1.5,2.1 -2.3,5.2 -1.4,7.7 0.3,0.8 1.8,2.9 2.9,2.6 0.3,-0.1 0.6,-0.3 0.3,-0.6 -2,-1.5 -3.6,-3.1 -2.4,-5.8 1.6,-3.2 5.5,-4 8.6,-2.6 z"
           id="path29"
           inkscape:connector-curvature="0"
           style="fill:none" /><path
           class="noFillSVG"
           d="m 206.9,636.6 c -2.1,1 -3.7,2.8 -4.6,4.8 -0.5,1 -0.8,2.1 -0.9,3.3 -0.1,0.8 -0.3,1.8 0,2.6 0,0.1 0.1,0.2 0.1,0.3 0.5,0.7 1.6,1.2 2.3,1.5 2.2,1 4.7,1.2 7,0.6 1,-0.3 2,-0.7 2.9,-1.3 3.7,-2.4 5.1,-7.2 5.9,-11.3 -4,-1.4 -8.7,-2.4 -12.7,-0.5 z"
           id="path31"
           inkscape:connector-curvature="0"
           style="fill:none" /><path
           class="noFillSVG"
           d="m 256.4,615.4 c -2.3,-1.8 -12.5,-0.4 -14,-0.2 -3.7,0.5 -7.3,1.5 -10.8,2.6 4,1.5 8.5,4.8 6.3,9.1 4.7,0.1 5.2,5.5 4.5,9.7 2.6,-2.4 5.1,-4.9 7.3,-7.6 1.4,-1.8 9.1,-10.9 6.9,-13.3 -0.1,-0.1 -0.1,-0.2 -0.2,-0.3 z"
           id="path33"
           inkscape:connector-curvature="0"
           style="fill:none" /><path
           class="noFillSVG"
           d="m 638.4,565.3 c -5.5,7.4 -10.6,17.2 -8.7,26.7 7.2,-0.6 13.8,-2.7 20.5,-5.5 5.7,-2.4 11.4,-5.1 17.6,-5.9 12.9,-6.4 15.3,-20.6 12,-33.6 -0.6,-2.3 -1.3,-4.5 -2,-6.8 -6.6,1.4 -13,3.8 -18.7,7 -8.1,4.6 -15.2,10.7 -20.7,18.1 z"
           id="path35"
           inkscape:connector-curvature="0"
           style="fill:none" /><path
           class="noFillSVG"
           d="m 433.3,278.9 c 0,0 0,0.1 0,0 0.2,0.2 0.3,0.3 0.3,0.4 3.4,4.3 8,7.8 12.4,11.1 6.4,4.8 12.1,9.9 16.6,16.5 0.1,0.1 0.1,0.1 0.2,0.2 0,0.1 0.1,0.1 0.1,0.2 0,-0.1 0.1,-0.1 0.1,-0.2 0,-0.1 0.1,-0.2 0.2,-0.2 4.5,-6.6 10.2,-11.7 16.6,-16.5 4.4,-3.3 8.9,-6.8 12.4,-11.1 0,-0.1 0.1,-0.3 0.3,-0.4 0,0 0.1,0 0.1,-0.1 2.1,-2.8 3.8,-5.9 4.6,-9.5 2,-9 -5.3,-20 -15.4,-17.1 -5.1,1.5 -8.9,7.2 -5.9,12.2 1.6,2.7 4.8,4 7.7,2.5 1.3,-0.7 2.5,-1.9 2.9,-3.3 0.5,-1.5 -0.7,-3.7 -1.6,-4.8 -0.4,-0.5 -1.1,-0.7 -1.8,-0.7 -0.8,0 -1,0.1 -0.8,0.8 0.1,0.3 0.1,0.5 0.1,0.8 -0.2,0.8 -2.1,0.9 -2.8,0.8 -0.2,0 -0.4,-0.1 -0.6,-0.2 -0.8,-0.6 0.2,-2.7 0.6,-3.3 0.6,-0.8 1.5,-1.3 2.5,-1.6 2.1,-0.5 4.5,0.2 6.1,1.6 4.1,3.3 5,9.1 3.8,14 -3.3,14.4 -21,18.6 -28.2,30.4 0,0 0,0 0,0 -0.2,0.2 -0.4,0.3 -0.5,0.3 -0.2,0 -0.3,-0.1 -0.5,-0.2 0,0 -0.1,0 -0.1,-0.1 -7.3,-11.7 -24.8,-15.6 -28.5,-29.9 -1.3,-5.1 -0.4,-11.4 4.1,-14.8 3.4,-2.5 9.1,-1.9 9.1,3.2 0,1.3 -2.5,0.4 -3,0.1 -0.6,-0.3 -1.1,-0.9 -1.8,-0.9 -0.6,0 -1.2,0.1 -1.7,0.4 -1,0.6 -1.5,1.7 -1.5,2.8 0,0.9 0.2,1.7 0.8,2.3 0.7,1.3 1.7,2.1 3.1,2.6 2.8,1 5.6,-0.4 7,-2.8 3,-5 -0.8,-10.8 -5.9,-12.2 -10.2,-2.8 -17.4,8.1 -15.4,17.1 0.5,3.7 2.1,6.8 4.3,9.6 z"
           id="path37"
           inkscape:connector-curvature="0"
           style="fill:none" /><path
           class="noFillSVG"
           d="m 549.6,273.2 c 3.8,-11 5.3,-24.9 -1.5,-35.1 -3.3,-4.9 -8.7,-8.7 -14.7,-9.2 -3.6,-0.3 -8,0.5 -10.2,3.7 -1.1,1.5 -1.7,3.6 -1.1,5.4 0.5,1.5 2.2,3 3.8,3.2 1.7,0.2 1.3,-0.6 0.6,-1.6 -0.6,-0.8 -1,-1.6 -0.8,-2.7 0.3,-1.7 1.6,-3 3.2,-3.5 5.5,-1.7 11.3,2 14.5,6.3 6.8,9.3 5.9,23.2 2.1,33.4 -1.9,5.1 -4.5,9.8 -7.6,14.2 0.8,1 1.7,1.9 2.5,2.8 4,-5.1 7.1,-10.7 9.2,-16.9 z"
           id="path39"
           inkscape:connector-curvature="0"
           style="fill:none" /><path
           class="noFillSVG"
           d="m 547.7,306.6 c -3.8,-3.2 -7.1,-6.9 -10.4,-10.6 0,0 0,0 0,0.1 -9.3,10.2 -21.8,17.4 -35.1,21 l 67.3,0 c -7.9,-1.8 -15.5,-5.3 -21.8,-10.5 z"
           id="path41"
           inkscape:connector-curvature="0"
           style="fill:none" /><path
           class="noFillSVG"
           d="m 373.6,309.8 c -5.1,3.3 -11.2,5.8 -17.8,7.3 l 67.6,0 c -1.5,-0.4 -2.9,-0.8 -4.3,-1.3 -11.5,-3.9 -22.3,-10.9 -30.7,-19.9 -4.5,5.2 -9.1,10.2 -14.8,13.9 z"
           id="path43"
           inkscape:connector-curvature="0"
           style="fill:none" /><path
           class="noFillSVG"
           d="m 462.8,312.6 c -2.8,2 -5.7,3.5 -8.8,4.6 l 17.5,0 c -3,-1.1 -5.9,-2.6 -8.7,-4.6 z"
           id="path45"
           inkscape:connector-curvature="0"
           style="fill:none" /><path
           class="noFillSVG"
           d="m 533.2,291.3 c -2.5,-2.8 -5,-5.4 -7.8,-7.9 -9.2,-7.8 -21.7,-10.6 -32.1,-3.5 -0.9,1.2 -1.9,2.3 -2.9,3.3 -4.2,4.2 -9.2,7.5 -13.9,11.2 -4.7,3.7 -8.7,7.9 -12,12.8 8.4,7.3 21.6,7 31.9,5.1 14.1,-2.7 27.3,-10.2 36.8,-21 z"
           id="path47"
           inkscape:connector-curvature="0"
           style="fill:none" /><path
           class="noFillSVG"
           d="m 407.8,304.1 c 7.9,4.7 16.8,7.8 25.9,8.9 9.2,1.1 20.1,0.6 27.5,-5.7 -4.1,-6 -9.2,-10.7 -15,-15.1 -4.9,-3.7 -10.1,-7.4 -13.9,-12.3 -12,-8 -25.5,-3 -35,6.4 -1.7,1.6 -3.3,3.4 -4.9,5.1 4.5,5 9.8,9.3 15.4,12.7 z"
           id="path49"
           inkscape:connector-curvature="0"
           style="fill:none" /><path
           class="noFillSVG"
           d="m 462.8,219 c 3.2,-2.8 6.6,-6.4 6.9,-10.8 0.1,-1.1 0,-2.2 -0.3,-3.2 -0.6,-2.3 -2.1,-4.4 -4,-5.8 -0.6,-0.4 -1.6,-1.2 -2.5,-1.3 -0.1,0 -0.2,0 -0.3,0 -0.8,0.2 -1.6,0.8 -2.3,1.3 -0.9,0.7 -1.7,1.5 -2.4,2.4 -1.3,1.9 -2,4.1 -1.9,6.4 0.3,4.6 3.6,8.2 6.8,11 z"
           id="path51"
           inkscape:connector-curvature="0"
           style="fill:none" /><path
           class="noFillSVG"
           d="m 462.3,261.7 c 0.1,0 0.2,0 0.3,0 3.1,0.7 7.2,-10.5 8,-12.6 1.3,-3.3 2.2,-6.7 3,-10.1 -3.2,2.7 -8.2,4.9 -10.6,0.9 -2.6,4 -7.7,1.8 -11,-0.9 0.8,3.6 1.8,7.2 3.1,10.7 0.6,1.4 4.5,10.9 7.2,12 z"
           id="path53"
           inkscape:connector-curvature="0"
           style="fill:none" /><path
           class="noFillSVG"
           d="m 607.9,619.9 c -4.7,13.6 -4.8,28.8 -0.2,42.5 3.6,-0.8 7.2,-1.6 10.7,-2.9 11.3,-4.1 20,-13.5 19.1,-26.1 -0.6,-1.4 -1.1,-2.8 -1.5,-4.2 -1.6,-5.8 -1.9,-11.7 -2.8,-17.6 -0.9,-5.9 -2.5,-11.5 -5.1,-16.8 -10.5,3.6 -16.8,15.2 -20.2,25.1 z"
           id="path55"
           inkscape:connector-curvature="0"
           style="fill:none" /><path
           class="noFillSVG"
           d="m 496.4,274.8 c -0.4,0.9 -0.9,1.7 -1.4,2.6 6.9,-3.6 15,-3.8 22.3,-0.6 5.4,2.3 9.9,6.2 13.8,10.4 7.9,8.2 14.7,18.1 24.9,23.6 5.3,2.8 11,4.7 16.9,5.8 1.6,0.3 3.2,0.5 4.8,0.7 l 11.4,0 c 6.6,-0.7 13.1,-2.7 18.6,-6.4 11.5,-7.7 17.1,-24.2 10.7,-37 -4.1,-8.3 -13.7,-12.7 -22.4,-8.6 -3.9,1.9 -7.2,5.7 -7.3,10.2 0,2.7 1,5.6 3.7,6.6 1.6,0.6 3.4,0.5 4.8,-0.5 0.9,-0.6 2.4,-2.5 1.1,-3.4 -0.6,-0.4 -1.5,-0.4 -2.2,-0.3 -0.3,0.1 -0.7,0.1 -1,0.1 -0.4,0 -0.8,-0.1 -1.2,-0.3 -0.8,-0.4 -1.4,-1.1 -1.7,-1.9 -1,-2.7 0.6,-5.7 2.7,-7.3 5.8,-4.7 13.8,-0.6 17.7,4.5 8.6,11.3 1.4,26.7 -8.7,34.3 -10.5,7.9 -24.3,9.3 -36.4,4.6 -7.4,-2.9 -13.9,-7.5 -19.8,-12.8 -5.1,-4.6 -9.7,-10.1 -14.3,-15.1 -4.6,-5 -9.7,-9.8 -16.1,-12.2 -7,-2.6 -14.9,-2.6 -20.5,2.9 -0.1,0.1 -0.3,0.1 -0.4,0.1 z"
           id="path57"
           inkscape:connector-curvature="0"
           style="fill:none" /><path
           class="noFillSVG"
           d="m 613.6,598.3 c 3,-3.1 6.6,-5.7 10.7,-7.5 -0.5,-4.4 0,-8.7 1.1,-12.9 l -11.8,20.4 z"
           id="path59"
           inkscape:connector-curvature="0"
           style="fill:none" /><path
           class="noFillSVG"
           d="m 458.4,269.6 c 1.7,1.7 3.1,2.1 5.3,1.9 4.8,-0.8 7.7,-7.4 9.1,-11.5 1.7,-5 2.5,-10.2 4.2,-15.2 3,-8.7 9.5,-15.3 18.5,-17.5 -2.3,-5.2 -8.7,-7.2 -13.4,-3.5 -2.7,2.1 -3.6,5.6 -5.8,8.1 -3.5,4 -9,2.1 -9.9,-3.1 -1.3,-7.7 8.3,-11.2 11.3,-16.9 1.4,-2.7 1.8,-5.8 0.7,-8.7 -1.5,-3.9 -5,-6.8 -8.3,-9.1 -1.7,-1.2 -3.5,-2.2 -5.4,-3.2 -0.7,-0.4 -1.4,-1 -2.2,-0.7 -0.8,0.3 -1.5,0.8 -2.2,1.1 -1.1,0.5 -2.1,1.1 -3.2,1.7 -2.1,1.2 -4.1,2.5 -5.8,4.2 -3.7,3.7 -6,9.6 -3.4,14.6 3,5.7 12.2,9 11.4,16.5 -0.6,5.4 -6.3,7.6 -9.9,3.5 -2.2,-2.5 -3.1,-6 -5.8,-8.1 -4.7,-3.7 -11,-1.7 -13.4,3.5 9.4,2.3 15.9,9.3 18.8,18.5 1.7,5.3 2.4,10.8 4.5,16 1.2,2.9 2.7,5.7 4.9,7.9 z m -3.7,-63.2 c 0.5,-4.6 3.7,-8.2 7.9,-9.8 0,0 0,0 0.1,0 0,0 0.1,0 0.2,0 0.1,0 0.1,0 0.2,0 0,0 0,0 0.1,0 4.2,1.6 7.4,5.3 7.9,9.8 0.6,5.7 -3.6,10.4 -7.6,13.8 -0.2,0.1 -0.3,0.2 -0.5,0.2 -0.2,0 -0.4,0 -0.5,-0.2 -4.2,-3.4 -8.4,-8.1 -7.8,-13.8 z m -4.2,30.4 c 0.3,-0.4 1,-0.1 1.4,0.2 1.1,0.9 2.2,1.9 3.4,2.7 1.2,0.8 2.7,1.3 4.1,1.1 1.1,-0.1 2,-0.8 2.6,-1.7 0.5,-0.8 1,-2 1.9,-0.6 0.3,0.5 0.5,1.1 0.8,1.5 0.9,1 2.5,0.9 3.8,0.4 2,-0.7 3.8,-1.9 5.2,-3.4 0.3,-0.3 0.7,-0.7 1.1,-0.5 0.4,0.2 0.4,0.8 0.3,1.3 -1.2,5.8 -3,11.4 -5.4,16.7 -1,2.2 -2.1,4.4 -3.6,6.3 -0.7,0.9 -1.6,1.7 -2.6,2.1 -0.5,0.2 -1,0.2 -1.5,0.1 -0.7,-0.2 -1.3,-0.6 -1.8,-1.2 -1.2,-1.3 -2.1,-2.8 -3,-4.4 -3.3,-6.3 -5.6,-13 -6.9,-20 0.1,-0.1 0,-0.4 0.2,-0.6 z"
           id="path61"
           inkscape:connector-curvature="0"
           style="fill:none" /><path
           class="noFillSVG"
           d="m 296.8,655.5 c -6.4,-4.8 -10.2,-11.8 -10.5,-19.6 -0.5,0.9 -1,1.7 -1.5,2.5 0.1,0.1 0.1,0.3 0.1,0.4 -1.9,7.6 2,14.4 7.7,19.2 5.3,4.4 12,6.5 18.6,7.9 6.7,1.5 13.7,2.7 20.2,4.9 7.5,2.4 14.8,5.8 20.9,10.7 10.2,8.2 15.8,20.8 14.2,33.9 -1.6,12.6 -11.3,26.5 -25.4,24.7 -6.4,-0.8 -13.9,-5.7 -12.8,-13.1 0.4,-2.6 2.2,-5.5 5,-6 0.9,-0.1 1.8,0 2.5,0.5 0.3,0.2 0.6,0.6 0.8,0.9 0.2,0.3 0.3,0.6 0.5,0.9 0.3,0.7 0.7,1.4 1.4,1.8 1.5,0.7 2.3,-1.5 2.4,-2.6 0.1,-1.7 -0.7,-3.4 -2,-4.4 -2.2,-1.8 -5.3,-1.3 -7.6,0.1 -3.9,2.3 -5.6,7 -5.2,11.4 0.8,9.6 9.4,15.7 18.6,15.1 14.2,-0.8 25.8,-13.8 26.7,-27.7 0.8,-12.1 -4.8,-24 -12.4,-33.1 -3.8,-4.6 -8.4,-8.6 -13.5,-11.8 -9.9,-6.1 -21.8,-7.1 -32.9,-9.8 -5.5,-1.3 -11.1,-3.3 -15.8,-6.8 z"
           id="path63"
           inkscape:connector-curvature="0"
           style="fill:none" /><path
           class="noFillSVG"
           d="m 640.3,638.7 c -0.5,-0.8 -1.1,-1.6 -1.5,-2.5 -0.3,7.8 -4.2,14.9 -10.5,19.6 -4.7,3.5 -10.3,5.5 -15.9,6.8 -11.1,2.7 -23,3.7 -32.9,9.8 -5.1,3.1 -9.6,7.2 -13.5,11.8 -7.6,9.1 -13.3,21 -12.4,33.1 1,13.9 12.5,26.9 26.7,27.7 9.2,0.5 17.8,-5.6 18.6,-15.1 0.4,-4.3 -1.3,-9.1 -5.2,-11.4 -2.3,-1.4 -5.4,-1.9 -7.6,-0.1 -1.3,1.1 -2.1,2.7 -2,4.4 0.1,1.1 1,3.3 2.4,2.6 0.7,-0.3 1.1,-1.1 1.4,-1.8 0.1,-0.3 0.3,-0.6 0.5,-0.9 0.2,-0.3 0.5,-0.6 0.8,-0.9 0.8,-0.5 1.6,-0.6 2.5,-0.5 2.8,0.4 4.6,3.4 5,6 1.2,7.4 -6.3,12.3 -12.8,13.1 -14.1,1.8 -23.8,-12.1 -25.4,-24.7 -1.6,-13.1 4,-25.7 14.2,-33.9 6.2,-5 13.4,-8.3 20.9,-10.7 6.6,-2.1 13.6,-3.4 20.2,-4.9 6.6,-1.5 13.3,-3.5 18.6,-7.9 5.7,-4.8 9.7,-11.6 7.7,-19.2 0.1,-0.2 0.2,-0.3 0.2,-0.4 z"
           id="path65"
           inkscape:connector-curvature="0"
           style="fill:none" /><path
           class="noFillSVG"
           d="m 711.4,648.7 c 0.9,0.6 1.9,1 2.9,1.3 2.3,0.6 4.8,0.3 7,-0.6 0.7,-0.3 1.9,-0.8 2.3,-1.5 0.1,-0.1 0.1,-0.2 0.1,-0.3 0.3,-0.8 0.1,-1.8 0,-2.6 -0.1,-1.1 -0.4,-2.2 -0.9,-3.3 -0.9,-2.1 -2.6,-3.8 -4.6,-4.8 -4,-1.9 -8.7,-0.8 -12.7,0.5 0.8,4.1 2.2,8.8 5.9,11.3 z"
           id="path67"
           inkscape:connector-curvature="0"
           style="fill:none" /><path
           class="noFillSVG"
           d="m 668.5,615.9 c -2.1,2.3 5.5,11.5 6.9,13.3 2.2,2.8 4.7,5.3 7.3,7.6 -0.7,-4.1 -0.2,-9.5 4.5,-9.7 -2.2,-4.2 2.3,-7.5 6.3,-9.1 -3.5,-1.2 -7.1,-2.1 -10.8,-2.6 -1.5,-0.2 -11.8,-1.6 -14,0.2 0,0.1 -0.1,0.2 -0.2,0.3 z"
           id="path69"
           inkscape:connector-curvature="0"
           style="fill:none" /><path
           class="noFillSVG"
           d="m 663.8,608.3 c -2.3,0.6 -3.3,1.6 -4.3,3.6 -1.8,4.6 2.6,10.4 5.5,13.7 3.4,4 7.6,7.2 11.1,11.2 6.1,6.9 8.5,15.8 6,24.7 5.6,0.5 10.6,-4 9.7,-9.9 -0.5,-3.4 -3,-5.9 -4.1,-9 -1.7,-5 2.6,-8.8 7.6,-7 7.3,2.7 5.6,12.8 9,18.3 1.6,2.6 4.1,4.4 7.2,4.9 4.1,0.6 8.3,-0.9 12,-2.7 1.9,-0.9 3.7,-2 5.5,-3.1 0.7,-0.4 1.5,-0.7 1.7,-1.6 0.2,-0.8 0.1,-1.7 0.1,-2.5 0.1,-1.2 0.1,-2.4 0.2,-3.6 0,-2.4 -0.1,-4.8 -0.8,-7.2 -1.4,-5.1 -5.4,-10 -11,-10.2 -6.4,-0.2 -13.9,6.1 -20,1.7 -4.4,-3.2 -3.5,-9.3 1.9,-10.3 3.3,-0.6 6.7,0.3 9.9,-1 5.5,-2.2 6.9,-8.8 3.7,-13.3 -6.7,7 -16,9.1 -25.4,7.1 -5.4,-1.2 -10.6,-3.3 -16.1,-4 -3.3,-0.5 -6.4,-0.6 -9.4,0.2 z m 40.4,28.4 c 0.1,-0.2 0.2,-0.3 0.4,-0.4 5,-1.7 11.1,-3 15.7,0.3 3.7,2.7 5.3,7.3 4.6,11.7 0,0 0,0 0,0.1 0,0.1 0,0.1 -0.1,0.1 0,0.1 -0.1,0.1 -0.1,0.1 0,0 0,0 0,0 -3.4,2.9 -8.2,3.8 -12.4,1.9 -5.2,-2.3 -7.2,-8.3 -8.2,-13.5 0,0 0,-0.2 0.1,-0.3 z m -29.4,-23.3 c 7.1,0.3 14.1,1.6 20.8,3.9 0.2,0.1 0.5,0.2 0.6,0.4 0.2,0.5 -0.4,0.9 -0.9,1.1 -1.4,0.5 -2.8,0.9 -4,1.6 -1.3,0.7 -2.5,1.7 -3,3 -0.4,1 -0.4,2.1 0.1,3.1 0.4,0.8 1.2,1.8 -0.5,2 -0.6,0 -1.2,-0.1 -1.7,0 -1.3,0.2 -2,1.7 -2.2,3.1 -0.4,2.1 -0.2,4.2 0.4,6.2 0.1,0.4 0.2,1 -0.1,1.2 -0.4,0.3 -0.9,0 -1.3,-0.4 -4.4,-3.9 -8.4,-8.3 -11.8,-13 -1.4,-2 -2.8,-4 -3.7,-6.3 -0.4,-1 -0.7,-2.3 -0.5,-3.3 0.1,-0.5 0.3,-0.9 0.7,-1.3 0.5,-0.5 1.2,-0.8 1.9,-1 1.6,-0.3 3.4,-0.3 5.2,-0.3 z"
           id="path71"
           inkscape:connector-curvature="0"
           style="fill:none" /><path
           class="noFillSVG"
           d="m 157.2,321 306,530 306,-530 -612,0 z m 22,12.7 568,0 -284,491.9 -284,-491.9 z"
           id="path73"
           inkscape:connector-curvature="0"
           style="fill:none" /><path
           class="noFillSVG"
           d="m 587.1,667.3 c 4.7,-1.7 9.5,-2.8 14.3,-3.7 0,0 0,0 0,-0.1 -4.3,-13.5 -4.2,-28.4 -0.5,-42.1 0.3,-0.9 0.5,-1.9 0.8,-2.8 L 562.9,686 c 6.2,-8.3 14.6,-15.1 24.2,-18.7 z"
           id="path75"
           inkscape:connector-curvature="0"
           style="fill:none" /><path
           class="noFillSVG"
           d="m 605.1,669.3 c 2.5,5.8 5.8,11.4 10.1,16.3 7.6,8.8 19,17 31.2,16.2 5.9,-0.4 11.9,-3.2 15.3,-8.1 2.1,-3 3.5,-7.2 1.8,-10.7 -0.8,-1.7 -2.2,-3.2 -4.2,-3.6 -1.6,-0.3 -3.7,0.5 -4.7,1.7 -1.1,1.4 -0.1,1.5 1.2,1.3 1,-0.1 1.9,0 2.7,0.6 1.3,1.1 1.8,2.9 1.4,4.6 -1.2,5.7 -7.3,8.8 -12.6,9.4 -11.4,1.3 -23,-6.4 -30,-14.8 -3.5,-4.2 -6.3,-8.8 -8.5,-13.7 -1.3,0.3 -2.5,0.6 -3.7,0.8 z"
           id="path77"
           inkscape:connector-curvature="0"
           style="fill:none" /><path
           class="noFillSVG"
           d="m 731,470 c -10.2,-8.8 -25.4,-9.3 -36.4,-2.1 -10.2,6.6 -16.9,18.1 -20.1,29.6 -1.6,5.7 -2.3,11.6 -2,17.5 0.1,1.4 0.2,2.7 0.5,4 0.8,5.6 2.6,11 4.5,16.3 0.9,2.4 1.7,4.9 2.5,7.3 2.3,6.9 3.7,14.6 2.1,21.8 -1.5,6.7 -5.4,12.3 -11.1,15.9 1,0 1.9,0 2.9,0.1 0.1,-0.1 0.2,-0.2 0.4,-0.3 8.7,-2.5 12.5,-11.2 13.1,-19.6 0.2,-2.3 0,-4.7 -0.4,-7 -1.3,-7.7 -4.7,-15 -6.7,-22.5 -0.4,-1.6 -0.8,-3.2 -1.2,-4.7 -0.8,-3.3 -1.5,-6.7 -1.9,-10.1 -0.9,-7.3 -0.7,-14.7 1.3,-21.8 3.4,-11.9 13.2,-21.6 25.1,-25 12.6,-3.5 29.4,1 31.2,15.9 0.7,5.6 -1.8,12.4 -8.1,13.2 -2.2,0.3 -5.2,-0.3 -6.3,-2.6 -0.3,-0.6 -0.4,-1.2 -0.3,-1.9 0.1,-1 0.4,-0.8 0.8,-1.7 0.5,-1.4 0.9,-2.7 -0.4,-3.2 -1.1,-0.4 -2.7,0.4 -3.4,1.1 -1.2,1.2 -1.9,3.1 -1.5,4.9 0.6,2.9 3.5,4.9 6.2,5.6 4.9,1.3 9.8,-1.1 13,-4.7 7,-7.9 3.8,-19.4 -3.8,-26 z"
           id="path79"
           inkscape:connector-curvature="0"
           style="fill:none" /><path
           class="noFillSVG"
           d="m 703.9,539.5 c 10.4,2.7 22.7,10.1 25,21.4 0.8,4.2 0.1,10 -3.9,12.6 -0.1,0.1 -0.2,0.1 -0.3,0.2 -1.3,0.7 -2.9,0.8 -4.2,0 -0.6,-0.4 -1,-0.9 -1.3,-1.5 -0.1,-0.3 -0.2,-0.7 -0.3,-1 0,-0.3 0.1,-0.7 0,-1 -0.1,-0.4 -0.6,0.4 -0.7,0.5 -0.2,0.3 -0.3,0.5 -0.5,0.8 -0.3,0.6 -0.4,1.2 -0.4,1.8 0,1.7 0.9,3.3 2.3,4.2 2,1.2 4.5,1.1 6.6,0.1 3.4,-1.7 5.6,-5.2 6.6,-8.7 1.8,-6.5 -0.1,-13.5 -4,-18.7 -7.4,-9.8 -20.5,-14.4 -32.2,-15.6 -4.7,-0.5 -9.5,-0.4 -14.2,0.2 0.4,1.2 0.7,2.4 1.1,3.5 6.9,-1 13.8,-0.5 20.4,1.2 z"
           id="path81"
           inkscape:connector-curvature="0"
           style="fill:none" /><path
           class="noFillSVG"
           d="m 660.4,624.5 c 0.8,0.1 1.6,0.3 2.3,0.5 -3.8,-4.6 -6.9,-10.3 -3.7,-14.9 0.1,-0.1 0.1,-0.2 0.2,-0.2 1.4,-2 3.3,-2.7 6.2,-3.2 2.7,-0.4 5.4,-0.3 8,0.1 -4,-3.3 -5.1,-10 0.6,-12.7 3.1,-1.5 7,-0.6 8.4,2.7 1.2,2.7 -0.4,4.3 -2.4,5.8 -0.3,0.2 0,0.5 0.3,0.6 1.1,0.2 2.6,-1.8 2.9,-2.6 0.9,-2.5 0,-5.6 -1.4,-7.7 -1.5,-2.1 -3.6,-3.6 -6,-4.6 -5,-2.1 -10.4,-1.4 -15.4,0.2 -8.5,2.7 -16.4,8.2 -25.5,8.8 4.1,8.3 3.4,17.7 5.5,26.6 1.2,5.2 3.6,10.3 8.1,13.4 2.1,1.4 4.6,2.4 7.1,2.4 1.1,0 2.2,-0.1 3.3,-0.5 2.2,-0.7 4.3,-3.2 4.2,-5.6 0,-0.6 -0.8,-1.6 -1.4,-0.8 -0.3,0.4 0.2,1.3 0.2,1.8 0.1,2.6 -2.6,4 -4.9,3.6 -3.9,-0.6 -5.8,-5.2 -4.7,-8.7 1.2,-3.6 4.7,-5.3 8.1,-5 z"
           id="path83"
           inkscape:connector-curvature="0"
           style="fill:none" /><path
           class="noFillSVG"
           d="m 668.2,581.9 c 0,0 0,0 0,0 -0.3,0.1 -0.4,0.1 -0.6,0.1 -5.4,0.8 -10.7,3.1 -15.8,5.2 -7.3,3.1 -14.6,5.5 -22.6,6.1 -0.1,0 -0.2,0 -0.3,0 -0.1,0 -0.1,0 -0.2,0 0,0.1 0.1,0.1 0.1,0.2 0.1,0.1 0.1,0.2 0.1,0.3 3.5,7.2 5.1,14.7 6.1,22.6 0.7,5.4 1.4,11.1 3.4,16.2 0.1,0.1 0.2,0.2 0.2,0.4 0,0 0,0.1 0,0.1 1.3,3.2 3.2,6.2 5.9,8.7 6.8,6.2 19.9,5.4 22.5,-4.9 1.3,-5.2 -1.8,-11.3 -7.6,-11.2 -3.1,0 -5.9,2.2 -6.1,5.4 -0.1,1.5 0.4,3.1 1.4,4.2 1.1,1.2 3.5,1.3 5,1 0.6,-0.1 1.2,-0.6 1.5,-1.2 0.4,-0.7 0.4,-0.9 -0.3,-1.1 -0.3,-0.1 -0.5,-0.2 -0.7,-0.3 -0.6,-0.6 0.3,-2.3 0.7,-2.8 0.1,-0.2 0.3,-0.3 0.5,-0.4 0.9,-0.4 2.2,1.5 2.6,2.2 0.4,0.9 0.4,2 0.1,3 -0.6,2.1 -2.4,3.8 -4.4,4.6 -4.9,1.9 -10.4,-0.2 -14.1,-3.7 -10.8,-10.1 -5.7,-27.4 -12.3,-39.6 0,0 0,0 0,-0.1 -0.1,-0.2 -0.1,-0.4 0,-0.6 0.1,-0.2 0.2,-0.3 0.4,-0.3 0.1,0 0.1,0 0.1,0 13.8,-0.5 25.9,-13.7 40.1,-9.8 5.1,1.4 10.1,5.3 10.8,10.9 0.5,4.1 -2.9,8.8 -7.3,6.3 -1.1,-0.6 0.9,-2.3 1.4,-2.7 0.6,-0.4 1.3,-0.5 1.7,-1.1 0.3,-0.5 0.5,-1.1 0.5,-1.6 0,-1.1 -0.7,-2.1 -1.7,-2.7 -0.8,-0.5 -1.6,-0.6 -2.4,-0.5 -1.5,0 -2.7,0.4 -3.8,1.4 -2.2,1.9 -2.5,5 -1.1,7.5 2.8,5.1 9.7,4.7 13.5,0.9 7.5,-7.4 1.7,-19.1 -7.1,-21.9 -3.2,-1.2 -6.7,-1.3 -10.2,-0.8 z"
           id="path85"
           inkscape:connector-curvature="0"
           style="fill:none" /><path
           class="noFillSVG"
           d="m 612.4,496.9 c 0,24.9 -6.1,48.4 -17,69 L 720.6,349 482.8,349 c 73,9.7 129.6,72.3 129.6,147.9 z"
           id="path87"
           inkscape:connector-curvature="0"
           style="fill:none" /><path
           class="noFillSVG"
           d="m 300.8,590.5 c 5.8,2.6 10.5,6.7 14.3,11.7 l -17,-29.4 c 2.3,5.5 3.4,11.5 2.7,17.7 z"
           id="path89"
           inkscape:connector-curvature="0"
           style="fill:none" /><path
           class="noFillSVG"
           d="m 299.9,591.5 c -0.2,-0.1 -0.2,-0.2 -0.3,-0.3 -0.1,-0.1 -0.1,-0.2 -0.1,-0.4 2.6,-23 -18.4,-42.7 -37.7,-51.2 -4.1,-1.8 -8.5,-3.2 -12.9,-4.2 -0.4,1.2 -0.8,2.3 -1.2,3.5 13.2,2.8 25.7,9.8 34.9,19.5 8.1,8.5 16.3,21.2 14,33.5 0.1,0 0.2,0 0.4,0 0.3,0 0.5,0.2 0.6,0.5 0.2,0.2 0.2,0.4 0.1,0.7 -0.1,0.1 -0.1,0.2 -0.2,0.3 10.4,3.7 16.8,14.8 20.5,24.6 4,10.7 5.1,22.4 3.3,33.6 -0.6,3.6 -1.5,7.2 -2.7,10.7 1.2,0.2 2.4,0.5 3.6,0.7 4.3,-13.6 4.3,-28.7 0.3,-42.5 -3.4,-12.1 -10.6,-23.8 -22.6,-29 z"
           id="path91"
           inkscape:connector-curvature="0"
           style="fill:none" /><path
           class="noFillSVG"
           d="m 389.2,295.1 c 3,3.3 6.4,6.4 10.1,9.1 8,5.9 18.3,10.8 28.9,13 l 21.6,0 c 4.5,-1.1 8.7,-3 12.6,-5.8 0.1,-0.1 0.3,-0.1 0.4,-0.1 0.1,0 0.3,0 0.4,0.1 4,2.9 8.4,4.8 13,5.8 l 20.4,0 c 1.1,-0.2 2.1,-0.4 3.2,-0.7 14,-3.4 27,-10.9 36.7,-21.5 -0.8,-0.9 -1.6,-1.9 -2.4,-2.8 -2.4,2.8 -5.1,5.3 -8,7.7 -8.9,7.1 -19.6,12 -30.8,13.9 -10.4,1.7 -23.1,1.7 -31.6,-5.5 -0.1,0.1 -0.1,0.2 -0.2,0.3 -0.2,0.3 -0.4,0.3 -0.7,0.3 -0.2,0.1 -0.5,0 -0.7,-0.3 -0.1,-0.1 -0.1,-0.2 -0.2,-0.3 -9.6,8.1 -24.6,7.3 -36.1,4.6 -13,-3.2 -25.3,-10.5 -34.3,-20.6 -0.7,0.9 -1.5,1.8 -2.3,2.8 z"
           id="path93"
           inkscape:connector-curvature="0"
           style="fill:none" /><circle
           transform="matrix(0.9871,-0.1602,0.1602,0.9871,-73.6207,80.6143)"
           class="noFillSVG"
           cx="463.20001"
           cy="496.89999"
           id="ellipse95"
           r="147.89999"
           style="fill:none" /><path
           class="noFillSVG"
           d="m 307.8,682 c -7,8.4 -18.6,16.1 -30,14.8 -5.3,-0.6 -11.4,-3.8 -12.6,-9.4 -0.4,-1.6 0.1,-3.5 1.4,-4.6 0.8,-0.7 1.7,-0.8 2.7,-0.6 1.3,0.2 2.2,0.1 1.2,-1.3 -1,-1.3 -3.1,-2 -4.7,-1.7 -1.9,0.4 -3.4,1.9 -4.2,3.6 -1.7,3.5 -0.2,7.7 1.8,10.7 3.4,4.9 9.4,7.7 15.3,8.1 12.2,0.8 23.6,-7.4 31.2,-16.2 4.3,-4.9 7.6,-10.4 10.1,-16.3 -1.2,-0.3 -2.5,-0.5 -3.7,-0.8 -2.2,4.9 -5,9.5 -8.5,13.7 z"
           id="path97"
           inkscape:connector-curvature="0"
           style="fill:none" /><path
           class="noFillSVG"
           d="M 314,496.9 C 314,421.3 370.5,358.7 443.6,349 L 205.8,349 331,566 c -10.8,-20.7 -17,-44.2 -17,-69.1 z"
           id="path99"
           inkscape:connector-curvature="0"
           style="fill:none" /><path
           class="noFillSVG"
           d="m 183.7,336.3 279.6,484.2 279.6,-484.2 -559.2,0 z m 279.5,461.2 -0.6,-1 -259.1,-448.7 519.3,0 -0.6,1 -259,448.7 z"
           id="path101"
           inkscape:connector-curvature="0"
           style="fill:none" /><path
           class="noFillSVG"
           d="m 637.5,556.8 c 1.8,-2 3.7,-3.9 5.7,-5.6 9.1,-8 20.6,-13.9 32.6,-16.7 -2.2,-6.4 -4.3,-12.9 -4.7,-19.7 -0.4,-7.1 0.9,-15.1 3.7,-22.6 l -37.3,64.6 z"
           id="path103"
           inkscape:connector-curvature="0"
           style="fill:none" /><path
           class="noFillSVG"
           d="m 289.1,629 c -0.4,1.4 -0.9,2.8 -1.5,4.2 -0.9,12.6 7.7,22 19.1,26.1 3.5,1.3 7.1,2.1 10.7,2.9 4.6,-13.6 4.5,-28.8 -0.2,-42.5 -3.4,-9.9 -9.8,-21.4 -20.3,-25.1 -2.6,5.3 -4.2,10.9 -5.1,16.8 -0.8,5.8 -1.1,11.8 -2.7,17.6 z"
           id="path105"
           inkscape:connector-curvature="0"
           style="fill:none" /><path
           class="noFillSVG"
           d="m 463.2,646.1 c -53,0 -99.6,-27.8 -126.1,-69.6 L 463.2,795 589.3,576.6 c -26.5,41.7 -73.1,69.5 -126.1,69.5 z"
           id="path107"
           inkscape:connector-curvature="0"
           style="fill:none" /><path
           d="m 179.2,333.7 284,491.9 284,-491.9 -568,0 z m 4.5,2.6 559.1,0 L 463.2,820.5 183.7,336.3 Z"
           id="path109"
           inkscape:connector-curvature="0" /><path
           d="m 203.5,347.8 259.1,448.8 0.6,1 259.1,-448.8 0.6,-1 -519.4,0 z m 240.1,1.3 C 370.6,358.7 314,421.4 314,497 c 0,24.9 6.1,48.4 17,69 l -125.2,-216.9 237.8,0 z m 19.6,0 c 81.5,0 147.9,66.3 147.9,147.9 0,81.6 -66.3,147.9 -147.9,147.9 -81.5,0 -147.9,-66.3 -147.9,-147.9 0,-81.6 66.4,-147.9 147.9,-147.9 z M 337.1,576.6 c 26.5,41.8 73.1,69.6 126.1,69.6 53,0 99.6,-27.8 126.1,-69.5 L 463.2,795 337.1,576.6 Z m 258.3,-10.7 c 10.8,-20.6 17,-44.1 17,-69 0,-75.6 -56.5,-138.2 -129.6,-147.9 l 237.8,0 -125.2,216.9 z"
           id="path111"
           inkscape:connector-curvature="0" /><path
           d="m 462.3,220.2 c 0.2,0.1 0.3,0.2 0.5,0.2 0.2,0 0.4,0 0.5,-0.2 4,-3.5 8.2,-8.1 7.6,-13.8 -0.5,-4.6 -3.7,-8.2 -7.9,-9.8 0,0 0,0 -0.1,0 -0.1,0 -0.1,0 -0.2,0 -0.1,0 -0.1,0 -0.2,0 0,0 0,0 -0.1,0 -4.2,1.6 -7.4,5.2 -7.9,9.8 -0.4,5.7 3.8,10.4 7.8,13.8 z m -4.4,-18.4 c 0.7,-0.9 1.5,-1.7 2.4,-2.4 0.7,-0.5 1.4,-1.2 2.3,-1.3 0.1,0 0.2,0 0.3,0 0.8,0 1.9,0.8 2.5,1.3 1.9,1.4 3.4,3.4 4,5.8 0.3,1 0.4,2.1 0.3,3.2 -0.3,4.4 -3.7,8 -6.9,10.8 -3.2,-2.8 -6.5,-6.4 -6.8,-10.8 -0.2,-2.5 0.5,-4.8 1.9,-6.6 z"
           id="path113"
           inkscape:connector-curvature="0" /><path
           d="m 460.3,261.9 c 0.5,0.5 1.1,1 1.8,1.2 0.5,0.1 1,0.1 1.5,-0.1 1,-0.3 1.9,-1.2 2.6,-2.1 1.5,-1.9 2.6,-4.1 3.6,-6.3 2.4,-5.4 4.2,-11 5.4,-16.7 0.1,-0.5 0.1,-1.1 -0.3,-1.3 -0.4,-0.2 -0.8,0.2 -1.1,0.5 -1.4,1.5 -3.2,2.7 -5.2,3.4 -1.3,0.5 -2.9,0.6 -3.8,-0.4 -0.4,-0.4 -0.5,-1 -0.8,-1.5 -1,-1.4 -1.4,-0.2 -1.9,0.6 -0.6,0.9 -1.5,1.5 -2.6,1.7 -1.4,0.2 -2.9,-0.3 -4.1,-1.1 -1.2,-0.8 -2.3,-1.8 -3.4,-2.7 -0.4,-0.3 -1.1,-0.6 -1.4,-0.2 -0.2,0.2 -0.1,0.5 -0.1,0.8 1.3,6.9 3.6,13.7 6.9,20 0.8,1.4 1.7,2.9 2.9,4.2 z m -8.3,-23 c 3.3,2.7 8.4,4.9 11,0.9 2.4,4 7.4,1.7 10.6,-0.9 -0.7,3.5 -1.7,6.8 -3,10.1 -0.8,2.1 -4.9,13.3 -8,12.6 -0.1,0 -0.2,0 -0.3,0 -2.6,-1.1 -6.6,-10.6 -7.1,-12.1 -1.4,-3.3 -2.4,-6.9 -3.2,-10.6 z"
           id="path115"
           inkscape:connector-curvature="0" /><path
           d="m 716.6,462.1 c -12.9,-2.3 -23.8,3.4 -31.7,12.6 l 91,-157.5 -179.8,0 c 9.2,-2.3 17.6,-7.5 22.3,-16.1 7,-12.9 5,-36.3 -13,-38.5 -7.9,-1 -17.3,3.7 -17.9,12.4 -0.2,3.6 1.4,7.6 5.2,8.5 3,0.8 8.5,-1.3 7.9,-5.3 -0.2,-1.4 -1.7,-1.7 -2.9,-1.9 -1.7,-0.3 -3.8,2.8 -4.5,-2.2 -0.1,-0.9 0.5,-2.3 0.9,-2.9 1.3,-2.2 3.9,-3.4 6.3,-3.5 4.7,-0.2 9.2,3.1 11.7,6.9 9.4,14 -4,30.9 -17,36.2 -12.9,5.2 -26.4,1.9 -37.7,-5.6 -5.9,-4 -11.2,-8.9 -16,-14.1 7,-9.3 11.6,-20.5 12.4,-32.1 1,-12.6 -3.9,-27.5 -17.5,-30.9 -5.6,-1.4 -13.7,-0.1 -15.5,6.4 -0.7,2.5 0.2,5.3 2.3,6.9 1,0.7 2.2,1.1 3.5,1.1 0.8,0 1.6,-0.2 2.2,-0.8 0.4,-0.3 1.5,-1.7 0.4,-1.9 -2.1,-0.3 -4.5,-2.9 0.1,-5.1 0.6,-0.3 1.5,-0.3 2.1,-0.3 1.3,-0.1 2.7,0.2 3.9,0.6 2.9,1 5.3,3.1 7.1,5.5 3.1,4.1 4.3,9.4 4.7,14.4 0.6,9.7 -2.3,19 -7.2,27.3 -0.8,1.4 -1.8,2.8 -2.7,4.2 -2.9,-3.4 -5.8,-6.9 -9.2,-9.7 -8.2,-6.9 -21.5,-11.2 -30.6,-4.1 1.8,-4.9 2,-10.1 -1,-14.7 -4.3,-6.9 -14.5,-9.8 -20.6,-3.3 -0.1,0.1 -0.1,0.2 -0.2,0.2 0,0 0,-0.1 0,-0.1 1.4,-5.8 2.6,-11.8 6.1,-16.7 3.5,-4.9 8.8,-8.2 14.7,-9.5 0.3,-0.1 0.6,-0.5 0.5,-0.8 -2.3,-6.1 -9.2,-9 -14.9,-5.4 -2.8,1.8 -3.9,4.7 -5.7,7.4 -1.4,2.1 -3.6,4.4 -6.3,2.8 -3.1,-1.8 -2.8,-6 -1.3,-8.6 3.8,-6.7 12.6,-9.3 11.3,-18.4 -0.7,-4.7 -3.6,-8.4 -7.3,-11.2 -1.5,-1.1 -3.1,-2.1 -4.8,-3 -0.8,-0.5 -1.7,-0.9 -2.5,-1.3 -0.9,-0.5 -1.9,-1.4 -3,-0.9 -1,0.5 -2.1,1 -3.1,1.5 -2.1,1.1 -4.1,2.2 -6,3.5 -3.6,2.6 -6.6,6 -7.6,10.5 -0.8,3.5 -0.1,6.9 2,9.7 2.5,3.4 6.6,5.6 8.8,9.2 1.4,2.3 2.1,5.2 0.4,7.6 -2.6,3.7 -6,1.3 -7.8,-1.4 -1.7,-2.6 -2.9,-5.6 -5.7,-7.4 -5.7,-3.6 -12.7,-0.7 -14.9,5.4 -0.1,0.3 0.1,0.7 0.5,0.8 6.1,1.3 11.4,4.7 15,9.9 3.3,4.8 4.5,10.7 5.9,16.3 -4.7,-5.4 -13.7,-4.4 -18.7,0.7 -4.8,4.9 -5,11.4 -2.9,17.4 -8.2,-6.4 -19.9,-3.5 -28,2 -4.6,3.2 -8.1,7.7 -11.8,11.9 -5.9,-8.1 -9.7,-17.6 -10,-27.6 -0.2,-5.6 0.7,-11.6 3.5,-16.5 1.5,-2.6 3.7,-5 6.4,-6.5 1.4,-0.8 2.9,-1.3 4.6,-1.4 0.6,-0.1 1.1,-0.1 1.7,0 2.2,0.2 5,4.9 1.7,5.5 -0.5,0.1 -0.5,0.7 -0.3,1.1 0.1,0.3 0.3,0.8 0.7,1 0.3,0.2 0.7,0.3 1.1,0.4 0.7,0.2 1.4,0.2 2.1,0.2 1.4,-0.2 2.6,-0.9 3.6,-1.9 1.1,-1.2 1.6,-2.8 1.5,-4.4 -0.3,-5.7 -6.3,-8.4 -11.3,-8.4 -13.7,0 -21.4,13.8 -22,26 -0.6,14 4.4,26.9 12.6,37.5 -3.6,3.8 -7.4,7.5 -11.5,10.8 -10.8,8.6 -24.4,14.1 -38.2,10.3 -13.1,-3.6 -27.7,-17.5 -23.5,-32.4 1.3,-4.4 4.2,-8.4 8.3,-10.6 2.3,-1.2 5,-1.9 7.5,-1.2 2.5,0.6 5.9,3.2 5.5,6.2 -0.3,2.8 -4.8,2 -6.5,3.1 -4,2.6 3.6,6.8 6.2,6.5 3.2,-0.4 5.3,-2.9 5.9,-5.9 1.6,-7.8 -5.4,-14 -12.5,-15.1 -8.1,-1.3 -15.4,3 -19.2,10.1 -3.9,7.3 -3.8,16.2 -1,23.9 4.1,11.3 13.1,17.8 23.7,20.5 l -178.6,0 140.8,243.9 c -2.8,-3.7 -6.1,-7.2 -9.5,-10.2 -9.1,-8 -20.6,-13.9 -32.6,-16.7 2.2,-6.4 4.3,-12.9 4.7,-19.7 1.4,-24.3 -17.2,-57.7 -45.5,-52.6 -8.1,1.4 -15.8,5.7 -20.2,12.8 -4.2,6.8 -4.3,15.3 0.8,21.7 4.5,5.6 13.4,8.6 19.3,3.3 2.3,-2 3.4,-5.1 2.2,-8.1 -1,-2.4 -8.5,-6.9 -8.7,-2.1 -0.1,2.1 2.9,5.5 0.6,7.2 -2.4,1.8 -6.3,0.1 -8.1,-1.7 -1.8,-1.9 -2.6,-4.6 -2.7,-7.1 -0.1,-4.6 1.9,-9.1 5,-12.4 10.8,-11.1 30.1,-5.4 39.8,4.2 10.1,10.1 12.2,24.6 10.1,38.3 -0.8,5.2 -2.1,10.3 -3.6,15.3 -13.3,-1.8 -27,0.3 -38.8,7.8 -10.3,6.5 -18.5,20.1 -11.6,32 2.5,4.4 7.8,8.2 13,5.6 1.4,-0.7 2.6,-2 3.1,-3.5 0.4,-1.3 0.4,-2.8 -0.1,-4 -0.3,-0.7 -0.7,-1.3 -1.2,-1.8 -0.3,-0.3 -0.6,-0.5 -0.9,-0.7 -0.3,-0.2 -0.8,-0.2 -1.2,-0.1 -0.4,0.1 -0.9,0.3 -0.7,0.8 1.2,3.1 -4.3,3 -5.6,1.2 -0.3,-0.5 -0.6,-1 -0.8,-1.5 -0.7,-1.5 -1,-3 -1,-4.7 -0.1,-3.1 0.9,-6.1 2.4,-8.7 2.9,-4.9 7.6,-8.6 12.6,-11.3 8.8,-4.7 18.9,-6.1 28.9,-5.1 -1.8,5.3 -4,10.6 -4.4,16.2 -0.8,9.8 2.5,21.4 12.2,25.3 -6.2,1.1 -11.8,4.6 -13.6,11.2 -1.9,6.8 1.7,15.1 8.7,16.5 -5.5,1.6 -11.2,3.5 -17,3 -6.2,-0.5 -11.8,-3.5 -16,-8.1 -0.2,-0.2 -0.7,-0.3 -0.9,0 -4.1,5 -3.2,12.5 2.8,15.6 2.9,1.5 6.1,1.1 9.2,1.2 3.2,0.2 7,1.9 5.1,6 -1.2,2.6 -4.1,3.5 -6.8,3.5 -4.3,-0.1 -8.1,-2.5 -12.4,-3 -3.5,-0.4 -6.8,0.7 -9.4,3.1 -3.3,3.1 -4.9,7.4 -5.3,11.8 -0.2,2.3 -0.2,4.6 -0.1,7 0.1,1.1 0.1,2.3 0.2,3.4 0.1,1.2 1.4,1.6 2.3,2.1 0.8,0.5 1.6,1 2.4,1.5 1.6,1 3.3,1.9 5,2.6 4.3,1.8 9,2.5 13.4,0.8 8.5,-3.3 6.4,-12.3 10.3,-18.9 1.5,-2.6 5,-5 8.1,-3.2 2.7,1.6 1.8,4.7 0.7,6.9 -1.4,2.8 -3.4,5.3 -3.6,8.6 -0.3,6.7 5.7,11.3 12.1,10.2 0.3,-0.1 0.6,-0.5 0.5,-0.8 -1.8,-5.7 -1.6,-11.9 0.9,-17.5 2.5,-5.5 7.2,-9.5 11.4,-13.6 0,0 0.1,-0.1 0.1,-0.1 0,0.1 -0.1,0.2 -0.1,0.3 -2.6,8.5 5,15.9 13.1,16.2 5.5,0.2 9.9,-2.5 13.2,-6.5 -1.6,11.4 8.8,20.8 18.8,24.5 4.1,1.5 8.6,2.3 13,3.1 -0.7,1.5 -1.4,3 -2.3,4.5 -4.7,8.3 -11.4,15.6 -20.1,19.8 -4.5,2.2 -9.7,3.7 -14.8,3.1 -3,-0.3 -6,-1.4 -8.3,-3.4 -1,-0.9 -1.9,-1.9 -2.5,-3.1 -0.3,-0.6 -0.7,-1.4 -0.8,-2 -0.3,-5.1 3.1,-4.2 4.4,-2.6 0.7,0.8 1.3,-0.8 1.4,-1.3 0.1,-0.8 -0.1,-1.6 -0.4,-2.3 -0.6,-1.1 -1.5,-2 -2.7,-2.5 -2.4,-1 -5.3,-0.4 -7.1,1.4 -4.8,4.7 -1.9,12.4 2.2,16.6 9.8,10.1 25.1,6.9 35.5,-0.2 9.6,-6.6 17,-16.1 21.6,-26.8 6.9,1.7 13.8,3.7 20.2,6.9 12.1,6 21.7,16.1 23.6,29.9 1.9,13.9 -6.1,34 -22.9,32.8 -4.5,-0.3 -9.6,-2.5 -11.8,-6.7 -1.1,-2.2 -1.3,-5 -0.1,-7.2 0.3,-0.6 1.3,-1.9 2.1,-2.2 4.7,-1.9 3.1,1.5 4.2,2.8 0.8,0.9 1.7,2 3,1.5 3.7,-1.4 2.8,-7.3 0.6,-9.5 -2.7,-2.8 -7,-2.3 -10,-0.3 -7.3,4.9 -6.7,15.3 -1.9,21.7 10.9,14.5 32.2,4.6 39.9,-7.9 7,-11.4 5,-25.5 -0.9,-36.9 -6.2,-12 -16.7,-22.4 -29.5,-27.2 -4.7,-1.7 -9.5,-2.8 -14.3,-3.7 0,0 0,0 0,-0.1 4.3,-13.5 4.2,-28.4 0.5,-42.1 -0.8,-2.9 -1.8,-5.8 -3.1,-8.6 L 462.7,859.5 556,698.1 c -4.5,10.7 -5.5,23.1 0.8,33.3 7.7,12.5 29,22.4 39.9,7.9 4.8,-6.4 5.4,-16.8 -1.9,-21.7 -3,-2 -7.3,-2.5 -10,0.3 -2.1,2.2 -3.1,8.1 0.6,9.5 1.4,0.5 2.3,-0.6 3,-1.5 1.1,-1.3 -0.5,-4.7 4.2,-2.8 0.8,0.3 1.7,1.6 2.1,2.2 1.2,2.2 1,5 -0.1,7.2 -2.2,4.2 -7.3,6.4 -11.8,6.7 -16.8,1.2 -24.8,-18.8 -22.9,-32.8 1.9,-13.8 11.5,-23.9 23.6,-29.9 6.4,-3.2 13.3,-5.2 20.2,-6.9 4.6,10.7 12,20.2 21.6,26.8 10.5,7.1 25.7,10.3 35.5,0.2 4,-4.1 6.9,-11.9 2.2,-16.6 -1.8,-1.8 -4.7,-2.5 -7.1,-1.4 -1.2,0.5 -2.1,1.4 -2.7,2.5 -0.3,0.7 -0.6,1.5 -0.4,2.3 0.1,0.5 0.8,2.1 1.4,1.3 1.3,-1.6 4.8,-2.5 4.4,2.6 0,0.6 -0.5,1.4 -0.8,2 -0.6,1.2 -1.5,2.2 -2.5,3.1 -2.3,2 -5.3,3.1 -8.3,3.4 -5.1,0.6 -10.3,-0.9 -14.8,-3.1 -8.7,-4.3 -15.3,-11.5 -20.1,-19.8 -0.8,-1.5 -1.6,-2.9 -2.3,-4.5 4.4,-0.8 8.9,-1.6 13,-3.1 10.1,-3.7 20.4,-13.1 18.8,-24.5 3.3,4 7.8,6.8 13.2,6.5 8.1,-0.3 15.7,-7.7 13.1,-16.2 0,-0.1 -0.1,-0.2 -0.1,-0.3 0,0 0.1,0.1 0.1,0.1 4.3,4.1 8.9,8.1 11.4,13.6 2.5,5.5 2.7,11.7 0.9,17.5 -0.1,0.3 0.1,0.7 0.5,0.8 6.4,1.1 12.4,-3.5 12.1,-10.2 -0.1,-3.3 -2.1,-5.8 -3.6,-8.6 -1.1,-2.2 -2,-5.3 0.7,-6.9 3.1,-1.8 6.6,0.6 8.1,3.2 3.9,6.6 1.8,15.6 10.3,18.9 4.4,1.7 9.1,1 13.4,-0.8 1.7,-0.7 3.4,-1.6 5,-2.6 0.8,-0.5 1.6,-1 2.4,-1.5 0.9,-0.6 2.2,-0.9 2.3,-2.1 0.1,-1.1 0.1,-2.3 0.2,-3.4 0.1,-2.3 0.1,-4.7 -0.1,-7 -0.4,-4.4 -1.9,-8.7 -5.3,-11.8 -2.6,-2.4 -5.9,-3.5 -9.4,-3.1 -4.2,0.5 -8.1,2.9 -12.4,3 -2.7,0.1 -5.6,-0.8 -6.8,-3.5 -1.9,-4.1 1.9,-5.8 5.1,-6 3.1,-0.2 6.3,0.3 9.2,-1.2 5.9,-3.1 6.9,-10.6 2.8,-15.6 -0.2,-0.3 -0.7,-0.2 -0.9,0 -4.2,4.6 -9.8,7.5 -16,8.1 -5.8,0.5 -11.5,-1.4 -17,-3 7,-1.4 10.6,-9.7 8.7,-16.5 -1.8,-6.6 -7.4,-10.1 -13.6,-11.2 9.6,-3.9 13,-15.5 12.2,-25.3 -0.4,-5.6 -2.6,-10.9 -4.4,-16.2 10,-1 20.1,0.4 28.9,5.1 5,2.7 9.7,6.3 12.6,11.3 1.5,2.6 2.5,5.7 2.4,8.7 0,1.6 -0.3,3.2 -1,4.7 -0.2,0.5 -0.5,1 -0.8,1.5 -1.3,1.8 -6.8,1.9 -5.6,-1.2 0.2,-0.5 -0.3,-0.8 -0.7,-0.8 -0.3,-0.1 -0.9,-0.1 -1.2,0.1 -0.3,0.2 -0.6,0.5 -0.9,0.7 -0.5,0.5 -0.9,1.1 -1.2,1.8 -0.5,1.3 -0.6,2.7 -0.1,4 0.5,1.5 1.7,2.8 3.1,3.5 5.1,2.6 10.4,-1.2 13,-5.6 6.9,-11.9 -1.3,-25.5 -11.6,-32 -11.8,-7.5 -25.5,-9.6 -38.8,-7.8 -1.5,-5 -2.8,-10.1 -3.6,-15.3 -2.1,-13.7 0,-28.2 10.1,-38.3 9.6,-9.6 29,-15.3 39.8,-4.2 3.2,3.3 5.2,7.8 5,12.4 -0.1,2.6 -0.8,5.3 -2.7,7.1 -1.8,1.9 -5.7,3.5 -8.1,1.7 -2.3,-1.7 0.7,-5.1 0.6,-7.2 -0.2,-4.7 -7.7,-0.2 -8.7,2.1 -1.2,2.9 -0.1,6 2.2,8.1 5.9,5.3 14.8,2.2 19.3,-3.3 5.1,-6.4 5,-14.9 0.8,-21.7 -4.1,-7.1 -11.8,-11.4 -19.9,-12.8 z m -45.5,52.6 c 0.4,6.9 2.5,13.3 4.7,19.7 -12,2.8 -23.4,8.7 -32.6,16.7 -2,1.7 -3.9,3.6 -5.7,5.6 l 37.3,-64.6 c -2.7,7.6 -4.1,15.5 -3.7,22.6 z m -28.6,43.9 c -8.1,8.5 -16.3,21.2 -14,33.5 -0.1,0 -0.2,0 -0.4,0 -0.3,0 -0.5,0.2 -0.6,0.5 -0.2,0.2 -0.2,0.4 -0.1,0.7 0.1,0.1 0.1,0.2 0.2,0.3 -10.4,3.7 -16.8,14.8 -20.5,24.6 -4,10.7 -5.1,22.4 -3.3,33.6 0.6,3.6 1.5,7.2 2.7,10.7 -1.2,0.2 -2.4,0.5 -3.6,0.7 -4.3,-13.6 -4.3,-28.7 -0.3,-42.5 1,-3.5 2.4,-7 4.1,-10.4 l 2.9,-5 c 3.9,-5.9 9.1,-10.8 15.8,-13.8 0.2,-0.1 0.2,-0.2 0.3,-0.3 0.1,-0.1 0.1,-0.2 0.1,-0.4 -0.7,-6.5 0.4,-12.7 2.8,-18.4 l 5.7,-9.9 c 7.4,-10.1 18.6,-18.2 29.2,-22.8 4.1,-1.8 8.5,-3.2 12.9,-4.2 0.4,1.2 0.8,2.3 1.2,3.5 -13.4,2.8 -25.9,9.8 -35.1,19.6 z m 35.3,-18.3 c 0.7,2.2 1.4,4.5 2,6.8 3.3,12.9 1,27.2 -12,33.6 -6.2,0.8 -11.9,3.5 -17.6,5.9 -6.7,2.8 -13.3,4.9 -20.5,5.5 -1.8,-9.5 3.2,-19.2 8.7,-26.7 5.5,-7.4 12.6,-13.6 20.6,-18 5.8,-3.3 12.2,-5.7 18.8,-7.1 z m -44.6,71.3 c 0.9,5.9 1.2,11.9 2.8,17.6 0.4,1.4 0.9,2.8 1.5,4.2 0.9,12.6 -7.7,22 -19.1,26.1 -3.5,1.3 -7.1,2.1 -10.7,2.9 -4.6,-13.6 -4.5,-28.8 0.2,-42.5 3.4,-9.9 9.8,-21.4 20.3,-25.1 2.5,5.3 4.1,10.9 5,16.8 z m -8.9,-20.9 c -4.1,1.8 -7.6,4.4 -10.7,7.5 l 11.8,-20.4 c -1.1,4.2 -1.6,8.5 -1.1,12.9 z M 425.9,312.9 c 11.4,2.8 26.5,3.6 36.1,-4.6 0.1,0.1 0.1,0.2 0.2,0.3 0.2,0.3 0.4,0.3 0.7,0.3 0.2,0.1 0.5,0 0.7,-0.3 0.1,-0.1 0.1,-0.2 0.2,-0.3 8.4,7.2 21.2,7.2 31.6,5.5 11.2,-1.9 21.9,-6.7 30.8,-13.9 2.9,-2.3 5.5,-4.9 8,-7.7 0.8,0.9 1.6,1.8 2.4,2.8 -9.7,10.5 -22.7,18 -36.7,21.5 -1,0.3 -2.1,0.5 -3.2,0.7 l -20.4,0 c -4.6,-1 -9,-2.9 -13,-5.8 -0.1,-0.1 -0.3,-0.1 -0.4,-0.1 -0.1,0 -0.3,0 -0.4,0.1 -3.9,2.9 -8.1,4.7 -12.6,5.8 l -21.6,0 c -10.6,-2.2 -20.9,-7.2 -28.9,-13 -3.7,-2.7 -7,-5.7 -10.1,-9.1 0.8,-0.9 1.6,-1.8 2.4,-2.7 8.9,10 21.1,17.3 34.2,20.5 z m -33.5,-21.6 c 1.6,-1.8 3.2,-3.5 4.9,-5.1 9.6,-9.3 23.1,-14.4 35,-6.4 3.8,5 8.9,8.6 13.9,12.3 5.8,4.4 10.9,9.1 15,15.1 -7.3,6.3 -18.3,6.8 -27.5,5.7 -9.1,-1.1 -18,-4.2 -25.9,-8.9 -5.6,-3.3 -10.9,-7.6 -15.4,-12.7 z m 72,16 c 3.3,-4.9 7.4,-9.1 12,-12.8 4.7,-3.7 9.7,-7 13.9,-11.2 1,-1 2,-2.1 2.9,-3.3 10.4,-7.1 23,-4.3 32.1,3.5 2.8,2.4 5.4,5.1 7.8,7.9 -9.5,10.8 -22.7,18.3 -36.9,21 -10.2,1.9 -23.4,2.1 -31.8,-5.1 z m -45.3,8.6 c 1.4,0.5 2.9,0.9 4.3,1.3 l -67.6,0 c 6.6,-1.5 12.7,-4 17.8,-7.3 5.7,-3.8 10.3,-8.8 14.8,-13.9 8.4,9 19.2,15.9 30.7,19.9 z m 43.7,-3.3 c 2.7,2 5.7,3.5 8.8,4.6 l -17.6,0 c 3.1,-1.1 6.1,-2.6 8.8,-4.6 z m 74.5,-16.5 c 0,0 0.1,0 0,0 3.3,3.7 6.6,7.4 10.4,10.5 6.2,5.2 13.9,8.7 21.8,10.5 l -67.3,0 c 13.3,-3.6 25.8,-10.8 35.1,-21 z m 8.3,-23 c 3.8,-10.2 4.7,-24.1 -2.1,-33.4 -3.2,-4.3 -9,-8 -14.5,-6.3 -1.6,0.5 -2.9,1.8 -3.2,3.5 -0.2,1 0.2,1.9 0.8,2.7 0.8,1 1.2,1.9 -0.6,1.6 -1.6,-0.2 -3.3,-1.7 -3.8,-3.2 -0.6,-1.9 0,-3.9 1.1,-5.4 2.2,-3.2 6.6,-4 10.2,-3.7 6,0.5 11.4,4.3 14.7,9.2 6.8,10.2 5.3,24.1 1.5,35.1 -2.1,6.1 -5.2,11.8 -9.1,16.9 -0.8,-0.9 -1.7,-1.9 -2.5,-2.8 3.1,-4.4 5.7,-9.2 7.5,-14.2 z m -28.3,-1.3 c 6.5,2.4 11.6,7.2 16.1,12.2 4.6,5.1 9.2,10.5 14.3,15.1 5.8,5.3 12.4,9.9 19.8,12.8 12.1,4.7 25.9,3.4 36.4,-4.6 10.1,-7.6 17.3,-23 8.7,-34.3 -3.9,-5.2 -11.9,-9.2 -17.7,-4.5 -2,1.6 -3.7,4.7 -2.7,7.3 0.3,0.8 0.9,1.5 1.7,1.9 0.4,0.2 0.8,0.2 1.2,0.3 0.3,0 0.7,0 1,-0.1 0.7,-0.1 1.6,-0.1 2.2,0.3 1.4,0.9 -0.2,2.8 -1.1,3.4 -1.4,0.9 -3.3,1.1 -4.8,0.5 -2.7,-1 -3.8,-3.9 -3.7,-6.6 0.1,-4.5 3.3,-8.3 7.3,-10.2 8.7,-4.1 18.3,0.3 22.4,8.6 6.4,12.7 0.9,29.2 -10.7,37 -5.5,3.7 -12,5.7 -18.6,6.4 l -11.4,0 c -1.6,-0.2 -3.2,-0.4 -4.8,-0.7 -5.9,-1.1 -11.6,-3 -16.9,-5.8 -10.2,-5.5 -17.1,-15.4 -24.9,-23.6 -4,-4.2 -8.5,-8.1 -13.8,-10.4 -7.3,-3.1 -15.4,-3 -22.3,0.6 0.5,-0.8 1,-1.7 1.4,-2.6 0.1,0 0.3,-0.1 0.4,-0.2 5.6,-5.4 13.5,-5.4 20.5,-2.8 z m -68.3,-26 c -2.9,-9.2 -9.4,-16.2 -18.8,-18.5 2.3,-5.1 8.7,-7.2 13.4,-3.5 2.7,2.1 3.6,5.6 5.8,8.1 3.6,4.2 9.3,1.9 9.9,-3.5 0.8,-7.5 -8.4,-10.8 -11.4,-16.5 -2.6,-5 -0.3,-10.9 3.4,-14.6 1.7,-1.7 3.7,-3.1 5.8,-4.2 1,-0.6 2.1,-1.1 3.2,-1.7 0.7,-0.4 1.4,-0.9 2.2,-1.1 0.8,-0.3 1.5,0.3 2.2,0.7 1.8,1 3.7,2 5.4,3.2 3.4,2.3 6.8,5.2 8.3,9.1 1.1,2.9 0.8,6 -0.7,8.7 -3,5.7 -12.7,9.2 -11.3,16.9 0.9,5.2 6.4,7.1 9.9,3.1 2.2,-2.5 3.1,-6 5.8,-8.1 4.7,-3.7 11,-1.7 13.4,3.5 -9,2.2 -15.5,8.8 -18.5,17.5 -1.7,5 -2.5,10.2 -4.2,15.2 -1.4,4.1 -4.3,10.8 -9.1,11.5 -2.2,0.2 -3.6,-0.2 -5.3,-1.9 -2.2,-2.2 -3.7,-5 -4.9,-7.8 -2,-5.3 -2.8,-10.8 -4.5,-16.1 z m 38.4,14.7 c -0.8,-2.1 -3.3,-3.8 -5.5,-2.4 -0.4,0.2 -0.9,1.1 -1.4,1.1 -1,-0.1 -0.5,-1.3 0,-1.6 2,-1.3 5.2,-0.7 6.9,0.9 0.8,0.7 1.5,1.6 2,2.6 1.2,2.2 1.6,4.8 1.4,7.3 -0.4,5.5 -3.6,10 -7.5,13.7 -6.7,6.2 -15.2,10.3 -20.3,18 -5.1,-7.6 -13.7,-11.6 -20.4,-17.7 -3.9,-3.6 -7.2,-7.9 -7.8,-13.2 -0.3,-2.5 -0.1,-5.1 1,-7.5 1.1,-2.3 3.4,-4.6 6,-5.1 0.9,-0.2 3.4,0.1 3.7,1.2 0.1,0.3 0,0.7 -0.4,0.5 -2.3,-1 -4.4,-1.6 -6.2,0.8 -2.1,2.9 -0.9,6.7 1.9,8.6 5.2,3.6 10.5,-0.7 11.3,-5.8 1,2.5 2.2,4.9 3.9,7 1.9,2.3 3.4,3.6 5.9,3.8 0.1,0 0.2,0.1 0.3,0.1 5.6,0.4 9,-5.1 11.1,-10.7 0.1,0.8 0.3,1.5 0.7,2.3 1.5,3.1 4.7,5.2 8.2,4.4 3.6,-0.7 6.6,-4.6 5.2,-8.3 z m -43.3,-8.1 c 5.1,1.4 8.9,7.2 5.9,12.2 -1.5,2.5 -4.3,3.8 -7,2.8 -1.4,-0.5 -2.4,-1.3 -3.1,-2.6 -0.5,-0.7 -0.8,-1.5 -0.8,-2.3 0,-1.1 0.5,-2.2 1.5,-2.8 0.5,-0.3 1.1,-0.4 1.7,-0.4 0.8,0 1.2,0.6 1.8,0.9 0.6,0.3 3,1.2 3,-0.1 0,-5.1 -5.8,-5.7 -9.1,-3.2 -4.5,3.3 -5.4,9.6 -4.1,14.8 3.7,14.3 21.2,18.2 28.5,29.9 0,0 0,0 0.1,0.1 0.1,0.2 0.3,0.2 0.5,0.2 0.2,0 0.4,-0.1 0.5,-0.3 0,0 0,0 0,0 7.2,-11.7 24.9,-16 28.2,-30.4 1.1,-4.9 0.2,-10.7 -3.8,-14 -1.6,-1.4 -4,-2 -6.1,-1.6 -1,0.2 -1.9,0.7 -2.5,1.6 -0.5,0.6 -1.4,2.7 -0.6,3.3 0.2,0.1 0.4,0.2 0.6,0.2 0.7,0.1 2.5,0.1 2.8,-0.8 0.1,-0.3 0,-0.5 -0.1,-0.8 -0.2,-0.7 0,-0.8 0.8,-0.8 0.7,0 1.4,0.2 1.8,0.7 0.9,1.1 2.1,3.3 1.6,4.8 -0.5,1.4 -1.6,2.6 -2.9,3.3 -2.9,1.5 -6.1,0.1 -7.7,-2.5 -3,-5 0.8,-10.7 5.9,-12.2 10.2,-2.9 17.4,8.1 15.4,17.1 -0.8,3.6 -2.4,6.7 -4.6,9.5 0,0 -0.1,0 -0.1,0.1 -0.1,0.1 -0.2,0.2 -0.3,0.4 -3.4,4.3 -8,7.8 -12.4,11.1 -6.4,4.8 -12.1,9.9 -16.6,16.5 -0.1,0.1 -0.1,0.1 -0.2,0.2 0,0.1 -0.1,0.1 -0.1,0.2 0,-0.1 -0.1,-0.1 -0.1,-0.2 0,-0.1 -0.1,-0.2 -0.2,-0.2 -4.5,-6.6 -10.2,-11.7 -16.6,-16.5 -4.4,-3.3 -8.9,-6.8 -12.4,-11.1 0,-0.1 -0.1,-0.3 -0.3,-0.4 0,0 -0.1,0 -0.1,-0.1 -2.1,-2.8 -3.8,-5.9 -4.6,-9.5 -1.6,-9.1 5.7,-19.9 15.8,-17.1 z m -66.2,25.5 c -4.8,-10.8 -7.3,-24.5 -2.5,-35.7 2.6,-6.1 7.7,-11.2 14.2,-12.8 3.6,-0.9 7.8,-0.7 10.9,1.4 1.9,1.3 3.2,3.4 3.2,5.7 0,1.7 -1,3.3 -2.5,4.1 -0.5,0.3 -1.1,0.5 -1.8,0.5 -0.3,0 -0.6,0 -1,0 -0.2,0 -1.1,-0.1 -0.8,-0.4 0.2,-0.2 0.6,-0.3 0.9,-0.5 0.3,-0.2 0.5,-0.5 0.7,-0.8 0.4,-0.6 0.6,-1.2 0.6,-1.9 0.1,-1.5 -0.8,-2.9 -2,-3.6 -0.1,-0.1 -0.2,-0.1 -0.3,-0.1 -4.2,-2.2 -9.6,0.1 -12.8,2.9 -8.7,7.6 -9,22 -6.1,32.4 1.8,6.6 4.9,12.8 8.9,18.3 -0.8,0.9 -1.7,1.8 -2.5,2.7 -2.7,-3.8 -5.2,-7.8 -7.1,-12.2 z m -56.5,35 c -11.7,-6 -18.9,-19.4 -16.4,-32.6 1.9,-9.9 10.3,-18.4 20.9,-16.2 4.7,1 9.3,4.1 10.6,9 0.7,2.7 0.5,6.2 -1.8,8.1 -1.3,1.2 -3.3,1.6 -5,1.1 -1,-0.3 -2.5,-1.3 -2.7,-2.4 -0.2,-1.4 1.1,-1.7 2.6,-1.9 1,-0.1 0.9,0.2 1.9,-0.2 0.6,-0.3 1.1,-0.6 1.5,-1.2 1.4,-2 0.5,-4.9 -0.9,-6.7 -3.9,-5 -11,-3.8 -15.5,-0.4 -12,9 -7.5,25.8 1.8,35 8.8,8.6 22.2,12.2 34.1,9.3 7.1,-1.8 13.7,-5.3 19.5,-9.7 2.7,-2.1 5.3,-4.3 7.8,-6.7 1.2,-1.1 2.3,-2.3 3.5,-3.4 5.5,-5.5 10.1,-12.1 16.2,-17 1.8,-1.5 3.8,-2.8 5.8,-3.8 7.6,-3.7 17,-4.7 23.5,1.6 0.1,0.1 0.3,0.2 0.4,0.2 0.4,0.9 0.9,1.7 1.3,2.5 -5.9,-3.1 -12.8,-3.7 -19.3,-1.7 -7,2.2 -13.1,7.2 -17.9,12.7 -1.7,1.9 -3.4,3.9 -5.1,5.8 -3.7,4.3 -7.5,8.5 -11.9,12 -1.1,0.8 -2.1,1.7 -3.3,2.4 -4.9,3.3 -10.4,5.5 -16.1,7 -2.9,0.7 -5.9,1.3 -9,1.6 l -11.8,0 c -5,-0.7 -10.1,-2.1 -14.7,-4.4 z M 221.2,539.2 c -10.4,2.7 -22.7,10.1 -25,21.4 -0.8,4.2 -0.1,10 3.9,12.6 0.1,0.1 0.2,0.1 0.3,0.2 1.3,0.7 2.9,0.8 4.2,0 0.6,-0.4 1,-0.9 1.3,-1.5 0.1,-0.3 0.2,-0.7 0.3,-1 0,-0.3 -0.1,-0.7 0,-1 0.1,-0.4 0.6,0.4 0.7,0.5 0.2,0.3 0.3,0.5 0.5,0.8 0.3,0.6 0.4,1.2 0.4,1.8 0,1.7 -0.9,3.3 -2.3,4.2 -2,1.2 -4.5,1.1 -6.6,0.1 -3.4,-1.7 -5.6,-5.2 -6.6,-8.7 -1.8,-6.5 0.1,-13.5 4,-18.7 7.4,-9.8 20.5,-14.4 32.2,-15.6 4.7,-0.5 9.5,-0.4 14.2,0.2 -0.4,1.2 -0.7,2.4 -1.1,3.5 -6.9,-0.9 -13.8,-0.5 -20.4,1.2 z m 16.7,21.2 c -0.2,-2.3 0,-4.7 0.4,-7 1.3,-7.7 4.7,-15 6.7,-22.5 0.4,-1.6 0.8,-3.2 1.2,-4.7 0.8,-3.3 1.5,-6.7 1.9,-10.1 0.9,-7.3 0.7,-14.7 -1.3,-21.8 -3.4,-11.9 -13.2,-21.6 -25.1,-25 -12.6,-3.5 -29.4,1 -31.2,15.9 -0.7,5.6 1.8,12.4 8.1,13.2 2.2,0.3 5.2,-0.3 6.3,-2.6 0.3,-0.6 0.4,-1.2 0.3,-1.9 -0.1,-1 -0.4,-0.8 -0.8,-1.7 -0.5,-1.4 -0.9,-2.7 0.4,-3.2 1.1,-0.4 2.7,0.4 3.4,1.1 1.2,1.2 1.9,3.1 1.5,4.9 -0.6,2.9 -3.5,4.9 -6.2,5.6 -4.9,1.3 -9.8,-1.1 -13,-4.7 -7.2,-8.1 -4,-19.6 3.6,-26.2 10.2,-8.8 25.4,-9.3 36.4,-2.1 10.2,6.6 16.9,18.1 20.1,29.6 1.6,5.7 2.3,11.6 2,17.5 -0.1,1.4 -0.2,2.7 -0.5,4 -0.8,5.6 -2.6,11 -4.5,16.3 -0.9,2.4 -1.7,4.9 -2.5,7.3 -2.3,6.9 -3.7,14.6 -2.1,21.8 1.5,6.7 5.4,12.3 11.1,15.9 -1,0 -1.9,0 -2.9,0.1 -0.1,-0.1 -0.2,-0.2 -0.4,-0.3 -8.5,-2.3 -12.3,-11 -12.9,-19.4 z M 266,547 c 8,4.5 15.1,10.7 20.6,18 5.5,7.4 10.6,17.2 8.7,26.7 -7.2,-0.6 -13.8,-2.7 -20.5,-5.5 -5.7,-2.4 -11.4,-5.1 -17.6,-5.9 -12.9,-6.4 -15.3,-20.6 -12,-33.6 0.6,-2.3 1.3,-4.5 2,-6.8 6.7,1.5 13.1,3.9 18.8,7.1 z m -16.9,89.6 c -6.1,6.9 -8.5,15.8 -6,24.7 -5.6,0.5 -10.6,-4 -9.7,-9.9 0.5,-3.4 3,-5.9 4.1,-9 1.7,-5 -2.6,-8.8 -7.6,-7 -7.3,2.7 -5.6,12.8 -9,18.3 -1.6,2.6 -4.1,4.4 -7.2,4.9 -4.1,0.6 -8.3,-0.9 -12,-2.7 -1.9,-0.9 -3.7,-2 -5.5,-3.1 -0.7,-0.4 -1.5,-0.7 -1.7,-1.6 -0.2,-0.8 -0.1,-1.7 -0.1,-2.5 -0.1,-1.2 -0.1,-2.4 -0.2,-3.6 0,-2.4 0.1,-4.8 0.8,-7.2 1.4,-5.1 5.4,-10 11,-10.2 6.4,-0.2 13.9,6.1 20,1.7 4.4,-3.2 3.5,-9.3 -1.9,-10.3 -3.3,-0.6 -6.7,0.3 -9.9,-1 -5.5,-2.2 -6.9,-8.8 -3.7,-13.3 6.7,7 16,9.1 25.4,7.1 5.4,-1.2 10.6,-3.3 16.1,-4 3,-0.4 6.2,-0.5 9.2,0.3 2.3,0.6 3.3,1.6 4.3,3.6 1.8,4.6 -2.6,10.4 -5.5,13.7 -3.3,3.8 -7.5,7.1 -10.9,11.1 z M 245,602.2 c 0.3,0.2 0,0.5 -0.3,0.6 -1.1,0.2 -2.6,-1.8 -2.9,-2.6 -0.9,-2.5 0,-5.6 1.4,-7.7 1.5,-2.1 3.6,-3.6 6,-4.6 5,-2.1 10.4,-1.4 15.4,0.2 8.5,2.7 16.4,8.2 25.5,8.8 -4.1,8.3 -3.4,17.7 -5.5,26.6 -1.2,5.2 -3.6,10.3 -8.1,13.4 -2.1,1.4 -4.6,2.4 -7.1,2.4 -1.1,0 -2.2,-0.1 -3.3,-0.5 -2.2,-0.7 -4.3,-3.2 -4.2,-5.6 0,-0.6 0.8,-1.6 1.4,-0.8 0.3,0.4 -0.2,1.3 -0.2,1.8 -0.1,2.6 2.6,4 4.9,3.6 3.9,-0.6 5.8,-5.2 4.7,-8.7 -1,-3.4 -4.5,-5.1 -7.9,-4.9 -0.8,0.1 -1.6,0.3 -2.3,0.5 3.8,-4.6 6.9,-10.3 3.7,-14.9 -0.1,-0.1 -0.1,-0.2 -0.2,-0.2 -1.4,-2 -3.3,-2.7 -6.2,-3.2 -2.7,-0.4 -5.4,-0.3 -8,0.1 4,-3.3 5.1,-10 -0.6,-12.7 -3.1,-1.5 -7,-0.6 -8.4,2.7 -1.4,2.7 0.2,4.2 2.2,5.7 z m 35.4,39.4 c -6.8,6.2 -19.9,5.4 -22.5,-4.9 -1.3,-5.2 1.8,-11.3 7.6,-11.2 3.1,0 5.9,2.2 6.1,5.4 0.1,1.5 -0.4,3.1 -1.4,4.2 -1.1,1.2 -3.5,1.3 -5,1 -0.6,-0.1 -1.2,-0.6 -1.5,-1.2 -0.4,-0.7 -0.4,-0.9 0.3,-1.1 0.3,-0.1 0.5,-0.2 0.7,-0.3 0.6,-0.6 -0.3,-2.3 -0.7,-2.8 -0.1,-0.2 -0.3,-0.3 -0.5,-0.4 -0.9,-0.4 -2.2,1.5 -2.6,2.2 -0.4,0.9 -0.4,2 -0.1,3 0.6,2.1 2.4,3.8 4.4,4.6 4.9,1.9 10.4,-0.2 14.1,-3.7 10.8,-10.1 5.7,-27.4 12.3,-39.6 0,0 0,0 0,-0.1 0.1,-0.2 0.1,-0.4 0,-0.6 -0.1,-0.2 -0.2,-0.3 -0.4,-0.3 -0.1,0 -0.1,0 -0.1,0 -13.8,-0.5 -25.9,-13.7 -40.1,-9.8 -5.1,1.4 -10.1,5.3 -10.8,10.9 -0.5,4.1 2.9,8.8 7.3,6.3 1.1,-0.6 -0.9,-2.3 -1.4,-2.7 -0.6,-0.4 -1.3,-0.5 -1.7,-1.1 -0.3,-0.5 -0.5,-1.1 -0.5,-1.6 0,-1.1 0.7,-2.1 1.7,-2.7 0.8,-0.5 1.6,-0.6 2.4,-0.5 1.5,0 2.7,0.4 3.8,1.4 2.2,1.9 2.5,5 1.1,7.5 -2.8,5.1 -9.7,4.7 -13.5,0.9 -7.5,-7.4 -1.7,-19.1 7.1,-21.9 3.5,-1.1 7,-1.2 10.5,-0.8 0,0 0.1,0 0.1,0 0.2,0.1 0.3,0.1 0.5,0 5.4,0.8 10.7,3.1 15.8,5.2 7.3,3.1 14.6,5.5 22.6,6.1 0.1,0 0.2,0 0.3,0 0.1,0 0.1,0 0.2,0 0,0.1 -0.1,0.1 -0.1,0.2 -0.1,0.1 -0.1,0.2 -0.1,0.3 -3.5,7.2 -5.1,14.7 -6.1,22.6 -0.7,5.4 -1.4,11.1 -3.4,16.2 -0.1,0.1 -0.2,0.2 -0.2,0.4 0,0 0,0.1 0,0.1 -1.6,3.3 -3.5,6.3 -6.2,8.8 z M 297,594.5 c 10.5,3.7 16.8,15.2 20.3,25.1 4.7,13.6 4.8,28.8 0.2,42.5 -3.6,-0.8 -7.2,-1.6 -10.7,-2.9 -11.3,-4.1 -20,-13.5 -19.1,-26.1 0.6,-1.4 1.1,-2.8 1.5,-4.2 1.6,-5.8 1.9,-11.7 2.8,-17.6 0.8,-5.8 2.4,-11.4 5,-16.8 z m 12.9,90.8 c -7.6,8.8 -19,17 -31.2,16.2 -5.9,-0.4 -11.9,-3.2 -15.3,-8.1 -2.1,-3 -3.5,-7.2 -1.8,-10.7 0.8,-1.7 2.2,-3.2 4.2,-3.6 1.6,-0.3 3.7,0.5 4.7,1.7 1.1,1.4 0.1,1.5 -1.2,1.3 -1,-0.1 -1.9,0 -2.7,0.6 -1.3,1.1 -1.8,2.9 -1.4,4.6 1.2,5.7 7.3,8.8 12.6,9.4 11.4,1.3 23,-6.4 30,-14.8 3.5,-4.2 6.3,-8.8 8.5,-13.7 1.2,0.2 2.5,0.5 3.7,0.8 -2.5,5.9 -5.8,11.4 -10.1,16.3 z m 35.7,-13.1 c 5.1,3.1 9.6,7.2 13.5,11.8 7.6,9.1 13.3,21 12.4,33.1 -1,13.9 -12.5,26.9 -26.7,27.7 -9.2,0.5 -17.8,-5.6 -18.6,-15.1 -0.4,-4.3 1.3,-9.1 5.2,-11.4 2.3,-1.4 5.4,-1.9 7.6,-0.1 1.3,1.1 2.1,2.7 2,4.4 -0.1,1.1 -1,3.3 -2.4,2.6 -0.7,-0.3 -1.1,-1.1 -1.4,-1.8 -0.1,-0.3 -0.3,-0.6 -0.5,-0.9 -0.2,-0.3 -0.5,-0.6 -0.8,-0.9 -0.8,-0.5 -1.6,-0.6 -2.5,-0.5 -2.8,0.4 -4.6,3.4 -5,6 -1.2,7.4 6.3,12.3 12.8,13.1 14.1,1.8 23.8,-12.1 25.4,-24.7 1.6,-13.1 -4,-25.7 -14.2,-33.9 -6.2,-5 -13.4,-8.3 -20.9,-10.7 -6.6,-2.1 -13.6,-3.4 -20.2,-4.9 -6.6,-1.5 -13.3,-3.5 -18.6,-7.9 -5.7,-4.8 -9.7,-11.6 -7.7,-19.2 0,-0.2 0,-0.3 -0.1,-0.4 0.5,-0.8 1.1,-1.6 1.5,-2.5 0.3,7.8 4.2,14.9 10.5,19.6 4.7,3.5 10.3,5.5 15.9,6.8 11,2.7 22.9,3.7 32.8,9.8 z m -23.3,-9.1 c -1.2,-0.2 -2.4,-0.5 -3.6,-0.7 1.2,-3.5 2.1,-7.1 2.7,-10.7 1.8,-11.2 0.6,-22.9 -3.3,-33.6 -3.7,-9.9 -10.1,-20.9 -20.5,-24.6 0.1,-0.1 0.1,-0.2 0.2,-0.3 0.1,-0.3 0.1,-0.6 -0.1,-0.7 -0.1,-0.2 -0.3,-0.4 -0.6,-0.5 -0.1,0 -0.2,0 -0.4,0 2.3,-12.3 -5.9,-25 -14,-33.5 -9.2,-9.7 -21.7,-16.7 -34.9,-19.5 0.4,-1.2 0.8,-2.3 1.2,-3.5 4.4,1 8.7,2.4 12.9,4.2 19.3,8.5 40.4,28.2 37.7,51.2 0,0.2 0,0.3 0.1,0.4 0,0.1 0.1,0.2 0.3,0.3 12,5.2 19.2,16.9 22.7,29.1 3.9,13.7 3.9,28.7 -0.4,42.4 z m -21.5,-72.6 c 0.7,-6.2 -0.5,-12.2 -2.7,-17.7 l 17,29.4 c -3.8,-5 -8.5,-9.1 -14.3,-11.7 z M 157.2,321 769.1,321 463.1,851 157.2,321 Z m 444.6,297.7 c -0.3,0.9 -0.6,1.8 -0.8,2.8 -3.7,13.6 -3.8,28.5 0.5,42.1 0,0 0,0 0,0.1 -4.9,1 -9.7,2 -14.3,3.7 -9.6,3.6 -18,10.4 -24.2,18.7 l 38.8,-67.4 z m 15.5,63.5 c 7,8.4 18.6,16.1 30,14.8 5.3,-0.6 11.4,-3.8 12.6,-9.4 0.4,-1.6 -0.1,-3.5 -1.4,-4.6 -0.8,-0.7 -1.7,-0.8 -2.7,-0.6 -1.3,0.2 -2.2,0.1 -1.2,-1.3 1,-1.3 3.1,-2 4.7,-1.7 1.9,0.4 3.4,1.9 4.2,3.6 1.7,3.5 0.2,7.7 -1.8,10.7 -3.4,4.9 -9.4,7.7 -15.3,8.1 -12.2,0.8 -23.6,-7.4 -31.2,-16.2 -4.3,-4.9 -7.6,-10.4 -10.1,-16.3 1.2,-0.3 2.5,-0.5 3.7,-0.8 2.2,5 5,9.6 8.5,13.7 z m 15.3,-23.9 c -5.3,4.4 -12,6.5 -18.6,7.9 -6.7,1.5 -13.7,2.7 -20.2,4.9 -7.5,2.4 -14.8,5.8 -20.9,10.7 -10.2,8.2 -15.8,20.8 -14.2,33.9 1.6,12.6 11.3,26.5 25.4,24.7 6.4,-0.8 13.9,-5.7 12.8,-13.1 -0.4,-2.6 -2.2,-5.5 -5,-6 -0.9,-0.1 -1.8,0 -2.5,0.5 -0.3,0.2 -0.6,0.6 -0.8,0.9 -0.2,0.3 -0.3,0.6 -0.5,0.9 -0.3,0.7 -0.7,1.4 -1.4,1.8 -1.5,0.7 -2.3,-1.5 -2.4,-2.6 -0.1,-1.7 0.7,-3.4 2,-4.4 2.2,-1.8 5.3,-1.3 7.6,0.1 3.9,2.3 5.6,7 5.2,11.4 -0.8,9.6 -9.4,15.7 -18.6,15.1 -14.2,-0.8 -25.8,-13.8 -26.7,-27.7 -0.8,-12.1 4.8,-24 12.4,-33.1 3.8,-4.6 8.4,-8.6 13.5,-11.8 9.9,-6.1 21.8,-7.1 32.9,-9.8 5.6,-1.4 11.2,-3.3 15.9,-6.8 6.4,-4.8 10.2,-11.8 10.5,-19.6 0.5,0.9 1,1.7 1.5,2.5 -0.1,0.1 -0.1,0.3 -0.1,0.4 1.8,7.6 -2.1,14.4 -7.8,19.2 z M 689.1,612 c 9.4,2.1 18.7,-0.1 25.4,-7.1 3.3,4.6 1.9,11.1 -3.7,13.3 -3.2,1.3 -6.6,0.3 -9.9,1 -5.4,1.1 -6.3,7.2 -1.9,10.3 6.1,4.5 13.6,-1.9 20,-1.7 5.6,0.2 9.6,5.1 11,10.2 0.6,2.3 0.8,4.8 0.8,7.2 0,1.2 -0.1,2.4 -0.2,3.6 -0.1,0.8 0,1.7 -0.1,2.5 -0.2,0.9 -1,1.2 -1.7,1.6 -1.8,1.1 -3.6,2.2 -5.5,3.1 -3.6,1.8 -7.9,3.3 -12,2.7 -3.1,-0.5 -5.6,-2.3 -7.2,-4.9 -3.5,-5.5 -1.7,-15.6 -9,-18.3 -4.9,-1.8 -9.3,2 -7.6,7 1.1,3.2 3.6,5.7 4.1,9 0.9,5.9 -4.1,10.4 -9.7,9.9 2.6,-8.9 0.1,-17.8 -6,-24.7 -3.5,-4 -7.6,-7.2 -11.1,-11.2 -2.9,-3.3 -7.2,-9.1 -5.5,-13.7 0.9,-2 1.9,-3 4.3,-3.6 3,-0.8 6.2,-0.8 9.2,-0.3 5.7,0.9 10.9,3 16.3,4.1 z m -31.9,26 c 2.3,0.4 5,-1 4.9,-3.6 0,-0.4 -0.5,-1.4 -0.2,-1.8 0.6,-0.8 1.4,0.2 1.4,0.8 0.1,2.4 -2,4.9 -4.2,5.6 -1,0.3 -2.2,0.5 -3.3,0.5 -2.5,0 -5,-1 -7.1,-2.4 -4.6,-3.1 -6.9,-8.2 -8.1,-13.4 -2.1,-8.9 -1.4,-18.3 -5.5,-26.6 9.1,-0.7 16.9,-6.1 25.5,-8.8 5,-1.6 10.4,-2.3 15.4,-0.2 2.4,1 4.5,2.5 6,4.6 1.5,2.1 2.3,5.2 1.4,7.7 -0.3,0.8 -1.8,2.9 -2.9,2.6 -0.3,-0.1 -0.6,-0.3 -0.3,-0.6 2,-1.5 3.6,-3.1 2.4,-5.8 -1.4,-3.3 -5.4,-4.1 -8.4,-2.7 -5.7,2.7 -4.6,9.4 -0.6,12.7 -2.7,-0.4 -5.4,-0.5 -8,-0.1 -3,0.5 -4.8,1.2 -6.2,3.2 -0.1,0 -0.2,0.1 -0.2,0.2 -3.2,4.6 -0.1,10.3 3.7,14.9 -0.7,-0.3 -1.5,-0.5 -2.3,-0.5 -3.4,-0.3 -6.9,1.5 -7.9,4.9 -1.3,3.7 0.6,8.2 4.5,8.8 z m 21.5,-55.4 c 8.8,2.8 14.6,14.5 7.1,21.9 -3.8,3.7 -10.7,4.1 -13.5,-0.9 -1.4,-2.5 -1.2,-5.6 1.1,-7.5 1.2,-1 2.3,-1.4 3.8,-1.4 0.9,-0.1 1.7,0 2.4,0.5 0.9,0.6 1.7,1.6 1.7,2.7 0,0.6 -0.2,1.2 -0.5,1.6 -0.4,0.6 -1.1,0.7 -1.7,1.1 -0.5,0.3 -2.6,2 -1.4,2.7 4.4,2.5 7.8,-2.2 7.3,-6.3 -0.6,-5.6 -5.7,-9.5 -10.8,-10.9 -14.3,-3.9 -26.3,9.3 -40.1,9.8 0,0 0,0 -0.1,0 -0.2,0 -0.4,0.1 -0.4,0.3 -0.1,0.2 -0.1,0.3 0,0.6 0,0 0,0 0,0.1 6.6,12.1 1.5,29.5 12.3,39.6 3.7,3.4 9.2,5.5 14.1,3.7 2,-0.8 3.8,-2.5 4.4,-4.6 0.3,-1 0.3,-2 -0.1,-3 -0.3,-0.7 -1.6,-2.5 -2.6,-2.2 -0.2,0.1 -0.4,0.2 -0.5,0.4 -0.4,0.5 -1.3,2.2 -0.7,2.8 0.2,0.2 0.4,0.3 0.7,0.3 0.7,0.2 0.7,0.4 0.3,1.1 -0.3,0.6 -0.9,1.1 -1.5,1.2 -1.4,0.2 -3.9,0.2 -5,-1 -1,-1.1 -1.5,-2.7 -1.4,-4.2 0.1,-3.2 3,-5.4 6.1,-5.4 5.9,-0.1 8.9,6 7.6,11.2 -2.6,10.2 -15.7,11 -22.5,4.9 -2.7,-2.5 -4.6,-5.4 -5.9,-8.7 0,0 0,-0.1 0,-0.1 0,-0.2 -0.1,-0.3 -0.2,-0.4 -2,-5.1 -2.8,-10.8 -3.4,-16.2 -1,-7.9 -2.6,-15.4 -6.1,-22.6 0,-0.1 -0.1,-0.2 -0.1,-0.3 0,-0.1 -0.1,-0.1 -0.1,-0.2 0.1,0 0.1,0 0.2,0 0.1,0 0.2,0 0.3,0 8,-0.6 15.2,-3 22.6,-6.1 5,-2.1 10.3,-4.4 15.8,-5.2 0.1,0 0.3,0 0.5,0 0,0 0.1,0 0.1,0 3.2,-0.5 6.7,-0.4 10.2,0.7 z m 18,-48.2 c 11.8,1.2 24.9,5.9 32.2,15.6 4,5.3 5.9,12.3 4,18.7 -1,3.5 -3.2,7.1 -6.6,8.7 -2,1 -4.6,1.1 -6.6,-0.1 -1.5,-0.9 -2.4,-2.5 -2.3,-4.2 0,-0.6 0.2,-1.2 0.4,-1.8 0.1,-0.3 0.3,-0.6 0.5,-0.8 0.1,-0.1 0.6,-0.9 0.7,-0.5 0.1,0.3 -0.1,0.7 0,1 0,0.3 0.1,0.7 0.3,1 0.3,0.6 0.8,1.1 1.3,1.5 1.3,0.8 2.9,0.8 4.2,0 0.1,0 0.2,-0.1 0.3,-0.2 4,-2.5 4.7,-8.3 3.9,-12.6 -2.3,-11.4 -14.6,-18.7 -25,-21.4 -6.7,-1.7 -13.5,-2.1 -20.3,-1.4 -0.4,-1.2 -0.7,-2.4 -1.1,-3.5 4.6,-0.4 9.4,-0.5 14.1,0 z m 37.9,-38.1 c -3.2,3.6 -8.2,6 -13,4.7 -2.7,-0.7 -5.6,-2.7 -6.2,-5.6 -0.3,-1.7 0.3,-3.6 1.5,-4.9 0.7,-0.7 2.3,-1.5 3.4,-1.1 1.3,0.5 0.9,1.8 0.4,3.2 -0.4,0.9 -0.6,0.7 -0.8,1.7 -0.1,0.7 0,1.3 0.3,1.9 1.1,2.2 4,2.9 6.3,2.6 6.3,-0.9 8.8,-7.6 8.1,-13.2 -1.8,-14.9 -18.6,-19.4 -31.2,-15.9 -11.9,3.3 -21.7,13.1 -25.1,25 -2,7.1 -2.2,14.5 -1.3,21.8 0.4,3.4 1.1,6.8 1.9,10.1 0.4,1.6 0.8,3.2 1.2,4.7 2,7.5 5.4,14.8 6.7,22.5 0.4,2.3 0.5,4.6 0.4,7 -0.6,8.4 -4.4,17.1 -13.1,19.6 -0.2,0.1 -0.3,0.2 -0.4,0.3 -1,-0.1 -1.9,-0.1 -2.9,-0.1 5.6,-3.6 9.6,-9.2 11.1,-15.9 1.6,-7.2 0.2,-14.9 -2.1,-21.8 -0.8,-2.4 -1.7,-4.9 -2.5,-7.3 -1.9,-5.3 -3.7,-10.7 -4.5,-16.3 -0.2,-1.3 -0.4,-2.7 -0.5,-4 -0.4,-5.9 0.4,-11.8 2,-17.5 3.2,-11.5 9.9,-23 20.1,-29.6 11.1,-7.2 26.3,-6.7 36.4,2.1 7.8,6.3 11,17.8 3.8,26 z"
           id="path117"
           inkscape:connector-curvature="0" /><path
           d="m 712.3,650.7 c 4.2,1.9 9,0.9 12.4,-1.9 0,0 0,0 0,0 0,0 0.1,-0.1 0.1,-0.1 0,0 0,-0.1 0.1,-0.1 0,0 0,0 0,-0.1 0.7,-4.4 -0.9,-9 -4.6,-11.7 -4.6,-3.3 -10.8,-2.1 -15.7,-0.3 -0.2,0.1 -0.3,0.2 -0.4,0.4 -0.1,0.1 -0.2,0.3 -0.1,0.5 1,5 3,10.9 8.2,13.3 z m 5.9,-13.9 c 2.1,1 3.7,2.8 4.6,4.8 0.5,1 0.8,2.1 0.9,3.3 0.1,0.8 0.3,1.8 0,2.6 0,0.1 -0.1,0.2 -0.1,0.3 -0.5,0.7 -1.6,1.2 -2.3,1.5 -2.2,1 -4.7,1.2 -7,0.6 -1,-0.3 -2,-0.7 -2.9,-1.3 -3.7,-2.4 -5.1,-7.2 -5.9,-11.3 4,-1.3 8.7,-2.4 12.7,-0.5 z"
           id="path119"
           inkscape:connector-curvature="0" /><path
           d="m 667.6,614.8 c -0.4,0.4 -0.6,0.8 -0.7,1.3 -0.2,1.1 0.1,2.3 0.5,3.3 0.9,2.3 2.3,4.3 3.7,6.3 3.5,4.8 7.4,9.1 11.8,13 0.4,0.3 0.9,0.6 1.3,0.4 0.4,-0.3 0.2,-0.8 0.1,-1.2 -0.6,-2 -0.7,-4.1 -0.4,-6.2 0.2,-1.3 0.9,-2.8 2.2,-3.1 0.6,-0.1 1.2,0.1 1.7,0 1.7,-0.1 0.9,-1.1 0.5,-2 -0.5,-1 -0.6,-2.1 -0.1,-3.1 0.6,-1.3 1.7,-2.3 3,-3 1.3,-0.7 2.7,-1.1 4,-1.6 0.5,-0.2 1.1,-0.6 0.9,-1.1 -0.1,-0.2 -0.4,-0.4 -0.6,-0.4 -6.7,-2.3 -13.7,-3.7 -20.8,-3.9 -1.8,-0.1 -3.6,-0.1 -5.3,0.4 -0.6,0.1 -1.3,0.4 -1.8,0.9 z m 15.1,0.6 c 3.7,0.5 7.3,1.5 10.8,2.6 -4,1.5 -8.5,4.8 -6.3,9.1 -4.7,0.1 -5.2,5.5 -4.5,9.7 -2.6,-2.4 -5.1,-4.9 -7.3,-7.6 -1.4,-1.8 -9.1,-10.9 -6.9,-13.3 0.1,-0.1 0.1,-0.2 0.1,-0.3 2.3,-1.7 12.6,-0.4 14.1,-0.2 z"
           id="path121"
           inkscape:connector-curvature="0" /><path
           d="m 220.5,636 c -5,-1.7 -11.1,-3 -15.7,0.3 -3.7,2.7 -5.3,7.3 -4.6,11.7 0,0 0,0 0,0.1 0,0.1 0,0.1 0.1,0.1 0,0.1 0.1,0.1 0.1,0.1 0,0 0,0 0,0 3.4,2.9 8.2,3.8 12.4,1.9 5.2,-2.3 7.2,-8.3 8.2,-13.5 0,-0.2 0,-0.4 -0.1,-0.5 -0.1,0.1 -0.2,-0.1 -0.4,-0.2 z m -6.8,12.4 c -0.9,0.6 -1.9,1 -2.9,1.3 -2.3,0.6 -4.8,0.3 -7,-0.6 -0.7,-0.3 -1.9,-0.8 -2.3,-1.5 -0.1,-0.1 -0.1,-0.2 -0.1,-0.3 -0.3,-0.8 -0.1,-1.8 0,-2.6 0.1,-1.1 0.4,-2.2 0.9,-3.3 0.9,-2.1 2.6,-3.8 4.6,-4.8 4,-1.9 8.7,-0.8 12.7,0.5 -0.8,4.2 -2.2,8.9 -5.9,11.3 z"
           id="path123"
           inkscape:connector-curvature="0" /><path
           d="m 257.5,614.6 c -0.5,-0.5 -1.2,-0.8 -1.9,-1 -1.7,-0.5 -3.5,-0.5 -5.3,-0.4 -7.1,0.3 -14.1,1.6 -20.8,3.9 -0.2,0.1 -0.5,0.2 -0.6,0.4 -0.2,0.5 0.4,0.9 0.9,1.1 1.4,0.5 2.8,0.9 4,1.6 1.3,0.7 2.5,1.7 3,3 0.4,1 0.4,2.1 -0.1,3.1 -0.4,0.8 -1.2,1.8 0.5,2 0.6,0 1.2,-0.1 1.7,0 1.3,0.2 2,1.7 2.2,3.1 0.4,2.1 0.2,4.2 -0.4,6.2 -0.1,0.4 -0.2,1 0.1,1.2 0.4,0.3 0.9,0 1.3,-0.4 4.4,-3.9 8.4,-8.3 11.8,-13 1.4,-2 2.8,-4 3.7,-6.3 0.4,-1 0.7,-2.3 0.5,-3.3 0,-0.4 -0.2,-0.9 -0.6,-1.2 z m -7.8,14.3 c -2.2,2.8 -4.7,5.3 -7.3,7.6 0.7,-4.1 0.2,-9.5 -4.5,-9.7 2.2,-4.2 -2.3,-7.5 -6.3,-9.1 3.5,-1.2 7.1,-2.1 10.8,-2.6 1.5,-0.2 11.8,-1.6 14,0.2 0,0.1 0.1,0.2 0.1,0.3 2.2,2.4 -5.4,11.5 -6.8,13.3 z"
           id="path125"
           inkscape:connector-curvature="0" /></g></g></switch></svg>