<?xml version="1.0" encoding="UTF-8" standalone="no"?>
<svg
   xmlns:dc="http://purl.org/dc/elements/1.1/"
   xmlns:cc="http://creativecommons.org/ns#"
   xmlns:rdf="http://www.w3.org/1999/02/22-rdf-syntax-ns#"
   xmlns:svg="http://www.w3.org/2000/svg"
   xmlns="http://www.w3.org/2000/svg"
   xmlns:sodipodi="http://sodipodi.sourceforge.net/DTD/sodipodi-0.dtd"
   xmlns:inkscape="http://www.inkscape.org/namespaces/inkscape"
   version="1.1"
   id="Layer_1"
   x="0px"
   y="0px"
   viewBox="0 0 1000 1000"
   width="100%"
   height="100%"
   style="enable-background:new 0 0 1000 1000;"
   xml:space="preserve"
  ><style
     type="text/css"
     id="style3">
	.noFillSVG{fill:none;}
</style><switch
     id="switch5"
     transform="translate(-2.4462774,22.8)"><g
       id="g7"><g
         id="g9"><path
           class="noFillSVG"
           d="m 236.9,314.8 c 2.5,7.2 1.4,15.5 -2,22.5 5.5,-7.4 11.3,-14.8 17.5,-22.2 -4.8,2.3 -10.7,2.3 -15.5,-0.3 z"
           id="path11"
           inkscape:connector-curvature="0"
           style="fill:none" /><path
           class="noFillSVG"
           d="m 233.4,308.3 c 0.5,0.6 0.9,1.2 1.3,1.8 3.5,4 8.8,6.1 14.7,4 5.9,-2.1 10.4,-8.2 9.3,-14.6 -1.4,-7.8 -12.1,-12.5 -15.9,-3.8 -0.6,1.3 -2.5,0.2 -1.9,-1.1 2.1,-4.8 7.8,-7.1 12.8,-5.3 5.8,2.2 8.4,9.1 7.3,14.8 -0.1,0.5 -0.2,0.9 -0.4,1.4 6.5,-7.5 13.3,-15.1 20.4,-22.6 -0.5,0.2 -1,0.2 -1.4,-0.4 -1.9,-3.8 -2.8,-7.8 -3.2,-12 -0.1,0 -0.1,-0.1 -0.2,-0.1 -8.1,-0.3 -16.8,1.3 -23.5,3.2 -10.1,3 -20.3,10.2 -22.4,21.2 -0.8,4.6 0.3,9.6 2.9,13.4 0,-0.1 0.1,0 0.2,0.1 z"
           id="path13"
           inkscape:connector-curvature="0"
           style="fill:none" /><path
           class="noFillSVG"
           d="m 290.9,271.3 c 0.3,0.1 0.4,0.3 0.5,0.5 1,-1 1.9,-2 2.9,-3 6,-6.1 12.1,-11.9 18.2,-17.6 -0.4,0.1 -0.7,0.2 -1.1,0.3 -5.7,1.2 -12.7,-1.2 -14.9,-6.9 -2,-4.9 0.2,-10.6 5,-12.9 1.3,-0.6 2.4,1.3 1.1,1.9 -9.3,4.4 -2.9,15.8 5.5,16 6.2,0.1 11.6,-4.7 13.2,-10.5 1.6,-5.7 -0.6,-10.6 -4.5,-13.9 -0.6,-0.4 -1.1,-0.7 -1.7,-1.1 -0.1,-0.1 -0.3,-0.2 -0.3,-0.4 -3.9,-2.5 -9,-3.5 -13.6,-2.6 -11.3,2.4 -18.2,13.3 -20.8,23.8 -1.7,6.7 -2.9,15.3 -2.3,23.3 4.4,0.4 8.7,1.2 12.8,3.1 z"
           id="path15"
           inkscape:connector-curvature="0"
           style="fill:none" /><path
           class="noFillSVG"
           d="m 271.1,261.9 c -1.4,-3.1 -1.9,-6.7 -3.9,-9.4 -2.3,-3.1 -6.8,-4.5 -10.2,-6.1 -2.4,-1.1 -4.7,-2.2 -7.1,-3.3 1.7,6 3.6,14 7.9,17.6 3.9,3.3 10.3,4.5 15.8,5.8 -0.9,-1.4 -1.8,-2.9 -2.5,-4.6 z"
           id="path17"
           inkscape:connector-curvature="0"
           style="fill:none" /><path
           class="noFillSVG"
           d="m 290,273.3 c -0.1,0 -0.1,0 -0.2,-0.1 -3.4,-1.6 -7.3,-2.5 -11.4,-2.8 0.5,4 1.4,7.7 3.1,10.9 0.2,0.3 0.2,0.6 0.1,0.9 2.6,-3 5.5,-5.9 8.4,-8.9 z"
           id="path19"
           inkscape:connector-curvature="0"
           style="fill:none" /><path
           class="noFillSVG"
           d="m 237.2,639.6 c 4.3,-2.4 9.5,-2.6 14,-0.9 -5.2,-6.3 -10.2,-12.7 -14.9,-19 2.5,6.3 3.1,13.5 0.9,19.9 z"
           id="path21"
           inkscape:connector-curvature="0"
           style="fill:none" /><path
           class="noFillSVG"
           d="m 315.5,730.1 c 0.5,-0.4 1.1,-0.8 1.6,-1.1 4,-3.4 6.2,-8.6 4.3,-14.6 -0.7,-2 -1.8,-3.8 -3.2,-5.3 -0.7,-0.6 -1.4,-1.3 -2.1,-1.9 -2.6,-1.9 -5.8,-2.9 -9.1,-2.4 -7.9,1.1 -12.7,11.8 -4.2,15.8 1.3,0.6 0.2,2.5 -1.1,1.9 -4.8,-2.2 -7,-7.9 -5,-12.9 2.2,-5.6 8.9,-8 14.5,-7 -5.4,-5.1 -10.8,-10.3 -16.2,-15.7 -1.3,-1.3 -2.6,-2.7 -3.9,-4 -4,1.9 -8.3,2.7 -12.7,3 -0.6,8.3 0.7,17.3 2.6,24.2 2.7,10.1 9.7,20.6 20.6,22.9 4.7,1 9.7,-0.1 13.6,-2.6 0.1,-0.1 0.2,-0.2 0.3,-0.3 z"
           id="path23"
           inkscape:connector-curvature="0"
           style="fill:none" /><path
           class="noFillSVG"
           d="m 258.1,693.6 c -4.3,3.5 -6.1,11.6 -7.9,17.6 2.7,-1.3 5.4,-2.5 8,-3.8 3.3,-1.5 7,-2.7 9.3,-5.7 2.1,-2.6 2.6,-6.5 4,-9.5 0.7,-1.6 1.5,-3.1 2.4,-4.5 -5.5,1.3 -11.9,2.6 -15.8,5.9 z"
           id="path25"
           inkscape:connector-curvature="0"
           style="fill:none" /><path
           class="noFillSVG"
           d="m 276.4,684 c 0.1,0 0.1,-0.1 0.2,-0.1 0.4,-4.2 1.2,-8.2 3.2,-12 0.1,-0.2 0.2,-0.3 0.4,-0.4 -6.6,-7 -12.9,-14 -19,-21.1 1,5.7 -1.6,12.5 -7.3,14.6 -5,1.9 -10.6,-0.4 -12.8,-5.3 -0.6,-1.3 1.3,-2.4 1.9,-1.1 4.1,9.3 15.8,3.4 16.1,-5.1 0.2,-6.2 -4.4,-11.7 -10.2,-13.5 -5.7,-1.8 -10.6,0.3 -14,4.1 -0.4,0.6 -0.8,1.2 -1.3,1.8 -0.1,0.1 -0.2,0.2 -0.3,0.3 -2.5,3.9 -3.7,8.8 -2.8,13.4 2.1,11.3 12.9,18.6 23.3,21.4 6.5,1.9 14.8,3.3 22.6,3 z"
           id="path27"
           inkscape:connector-curvature="0"
           style="fill:none" /><path
           class="noFillSVG"
           d="m 289.5,681.3 c -2.7,-2.7 -5.3,-5.4 -7.9,-8.2 -1.6,3.2 -2.6,6.9 -3,10.8 4,-0.3 7.7,-1.1 10.9,-2.6 z"
           id="path29"
           inkscape:connector-curvature="0"
           style="fill:none" /><path
           class="noFillSVG"
           d="m 725.9,265.3 c -4.1,0.4 -8.1,1.3 -11.4,3 0,0 -0.1,0 -0.1,0 0.7,0.7 1.3,1.3 2,2 2.2,2.2 4.4,4.4 6.5,6.7 -0.1,-0.2 -0.1,-0.5 0.1,-0.8 1.6,-3.2 2.5,-6.9 2.9,-10.9 z"
           id="path31"
           inkscape:connector-curvature="0"
           style="fill:none" /><path
           class="noFillSVG"
           d="m 322,726.8 c 5.4,-1.7 11.4,-1.4 17,0.3 -5.2,-4.3 -10.3,-8.8 -15.5,-13.4 1.2,4.3 0.8,9.1 -1.5,13.1 z"
           id="path33"
           inkscape:connector-curvature="0"
           style="fill:none" /><path
           class="noFillSVG"
           d="m 728.1,265.2 c -0.1,0 -0.1,0.1 -0.2,0.1 -0.3,4.2 -1.1,8.2 -3,12 -0.3,0.5 -0.7,0.6 -1.2,0.5 7.1,7.4 13.9,14.8 20.4,22.2 -0.1,-0.4 -0.3,-0.9 -0.4,-1.3 -1.2,-5.7 1.4,-12.6 7.1,-14.9 5,-1.9 10.6,0.3 12.8,5.1 0.6,1.3 -1.3,2.4 -1.9,1.1 -4.2,-9.3 -15.7,-3.1 -16,5.3 -0.2,6.2 4.6,11.6 10.3,13.3 5.7,1.7 10.6,-0.5 14,-4.3 0.4,-0.6 0.8,-1.3 1.3,-1.9 0.1,-0.1 0.2,-0.2 0.3,-0.3 2.5,-3.9 3.6,-8.8 2.7,-13.4 -2.2,-11.3 -13.1,-18.4 -23.5,-21.1 -6.6,-1.5 -14.9,-2.8 -22.7,-2.4 z"
           id="path35"
           inkscape:connector-curvature="0"
           style="fill:none" /><path
           class="noFillSVG"
           d="m 767.9,309.2 c -4.8,2.7 -10.7,2.8 -15.5,0.5 6.3,7.5 12.3,14.9 17.9,22.4 -3.6,-7.1 -4.9,-15.6 -2.4,-22.9 z"
           id="path37"
           inkscape:connector-curvature="0"
           style="fill:none" /><path
           class="noFillSVG"
           d="m 322.6,242 c 6,-5.4 12.1,-10.6 18.1,-15.6 -6.1,2.4 -13,3 -19.1,1.1 2.6,4.5 2.8,9.9 1,14.5 z"
           id="path39"
           inkscape:connector-curvature="0"
           style="fill:none" /><path
           class="noFillSVG"
           d="m 746.4,255.4 c 4.2,-3.6 6,-11.7 7.6,-17.7 -2.7,1.3 -5.3,2.6 -8,3.9 -3.5,1.7 -7.4,2.9 -9.5,6.4 -2.5,4.3 -3.8,9 -6.1,13.5 5.5,-1.4 12,-2.7 16,-6.1 z"
           id="path41"
           inkscape:connector-curvature="0"
           style="fill:none" /><path
           class="noFillSVG"
           d="m 688.7,219.4 c -0.6,0.5 -1.2,0.9 -1.8,1.2 -4,3.5 -6.2,8.7 -4.2,14.7 2.1,6 8.1,10.4 14.5,9.5 7.9,-1.2 12.6,-11.9 4,-15.8 -1.3,-0.6 -0.2,-2.5 1.1,-1.9 4.8,2.2 7,7.8 5.1,12.8 -2.2,5.7 -9.2,8.3 -14.9,7.1 -0.3,-0.1 -0.5,-0.1 -0.7,-0.2 7.1,6.5 14.1,13.2 21.1,20.1 0.1,-0.2 0.2,-0.3 0.4,-0.5 4,-2 8.3,-2.8 12.7,-3.1 0.5,-8.3 -0.9,-17.3 -2.9,-24.2 -2.8,-10.1 -9.9,-20.5 -20.9,-22.6 -4.6,-0.9 -9.6,0.2 -13.4,2.7 0,0 0,0.1 -0.1,0.2 z"
           id="path43"
           inkscape:connector-curvature="0"
           style="fill:none" /><path
           class="noFillSVG"
           d="m 354.3,215.4 c 4.7,-3.7 9.4,-7.2 14.1,-10.6 -0.6,-0.1 -1.2,-0.3 -1.9,-0.6 -3.9,-2 -3.6,-7.6 0.2,-9.5 1.3,-0.6 2.4,1.3 1.1,1.9 -2.7,2.4 -2.6,4.4 0.3,5.8 1.7,-0.7 3.3,-1.4 5,-2.1 1.7,-1.8 0.6,-5.6 -0.4,-7.3 -2,-3.4 -5.7,-5 -9.6,-4.2 -5.8,1.3 -8.9,6.5 -10.4,11.9 3.2,4.4 4,9.8 1.6,14.7 z"
           id="path45"
           inkscape:connector-curvature="0"
           style="fill:none" /><path
           class="noFillSVG"
           d="m 636.4,200.4 c -0.4,0.2 -0.9,0.3 -1.3,0.4 4.7,3.3 9.4,6.8 14.1,10.3 -2.3,-4.8 -1.6,-10.2 1.4,-14.5 -1.5,-5.3 -4.6,-10.5 -10.5,-11.7 -4.3,-0.9 -9,1.5 -10.4,5.8 -0.1,0.8 -0.3,1.6 -0.4,2.4 -0.1,3.1 1.1,4.7 3.8,4.8 1.6,1.1 2.7,0.9 3.3,-0.8 1.8,-1.4 1.5,-2.9 -0.9,-4.4 -1.3,-0.6 -0.2,-2.5 1.1,-1.9 4.2,1.8 4.1,7.9 -0.2,9.6 z"
           id="path47"
           inkscape:connector-curvature="0"
           style="fill:none" /><path
           class="noFillSVG"
           d="m 681.2,237.2 c -1.8,-4.6 -1.5,-9.9 1,-14.3 -6,2 -12.7,1.5 -18.8,-0.7 5.9,4.8 11.8,9.8 17.8,15 z"
           id="path49"
           inkscape:connector-curvature="0"
           style="fill:none" /><path
           class="noFillSVG"
           d="m 215.7,590 c 0.2,1 0.1,2.1 -0.3,3.2 -1.6,4.5 -7.8,4.7 -9.8,0.4 -0.6,-1.3 1.3,-2.4 1.9,-1.1 2.6,3.2 3.9,2.8 3.8,-1.2 2.1,-3.2 0.9,-4.9 -3.3,-5 -1.5,-0.1 -3.3,0.6 -4.6,1.4 -3.4,2.2 -4.5,6.2 -3.6,9.9 1.3,5.5 6.4,8.5 11.4,10 4.8,-3.3 11,-3.6 16.2,-0.1 -4.1,-5.8 -8,-11.7 -11.7,-17.5 z"
           id="path51"
           inkscape:connector-curvature="0"
           style="fill:none" /><path
           class="noFillSVG"
           d="m 773.2,647.7 c -0.5,-0.6 -0.9,-1.2 -1.3,-1.8 -3.6,-4 -8.8,-6.1 -14.7,-3.9 -5.9,2.1 -10.4,8.3 -9.2,14.6 1.4,7.8 12.1,12.4 15.9,3.7 0.6,-1.3 2.5,-0.2 1.9,1.1 -2.1,4.8 -7.8,7.1 -12.7,5.3 -5.8,-2.1 -8.4,-9 -7.3,-14.8 0.1,-0.3 0.2,-0.6 0.2,-0.9 -6.4,7.4 -13.1,14.8 -19.9,22 0.4,-0.1 0.8,0 1.1,0.5 1.9,3.8 2.8,7.8 3.2,12 0.1,0 0.1,0.1 0.2,0.1 8.1,0.3 16.8,-1.3 23.5,-3.3 10.1,-3 20.3,-10.2 22.3,-21.2 0.8,-4.6 -0.4,-9.6 -2.9,-13.4 -0.1,0.1 -0.2,0.1 -0.3,0 z"
           id="path53"
           inkscape:connector-curvature="0"
           style="fill:none" /><circle
           class="noFillSVG"
           cx="503.89999"
           cy="477.5"
           r="223.3"
           id="circle55"
           style="fill:none" /><path
           class="noFillSVG"
           d="m 754.8,640.7 c 4.7,-2.1 10.3,-2 14.9,0.5 -2.3,-6.6 -1.6,-14.2 1.2,-20.9 -5.1,6.8 -10.5,13.6 -16.1,20.4 z"
           id="path57"
           inkscape:connector-curvature="0"
           style="fill:none" /><path
           class="noFillSVG"
           d="m 832.6,476.2 c 0.1,0 0.2,0 0.3,0 -0.2,-52.8 -45.3,-131 -118.1,-204.4 -74.3,-74.9 -157,-123.3 -210.7,-123.3 -53.5,0 -133.3,46.7 -208.2,122 -74.6,74.9 -120.8,154.2 -120.6,206.8 0.2,53.7 46.7,133.4 121.4,208.1 6.7,6.7 13.5,13.2 20.3,19.5 1.4,0.9 2.5,2 3.5,3.2 8.8,8 17.6,15.6 26.4,22.7 1.6,1 3.1,2.2 4.4,3.5 0.1,0.1 0.2,0.2 0.3,0.4 6.6,5.3 13.3,10.3 19.8,15 1.3,0.4 2.4,1.2 3.2,2.3 48.4,34.4 94.3,54.1 129,54.1 0.1,0 0.2,0 0.3,0 115.4,-0.4 326.5,-211.1 328.8,-327.7 -0.1,0 -0.2,0 -0.3,0 -1.3,0 -1.3,-2.2 0.2,-2.2 z M 504.1,797.9 c -0.1,0 -0.2,0 -0.3,0 -52.1,0 -129.5,-45 -202.1,-117.6 -72.7,-72.7 -118,-150.5 -118.2,-203 -0.2,-51.5 44.8,-128.9 117.4,-201.8 73,-73.3 150.8,-118.8 203.2,-118.8 53.4,0 132.2,46 205.6,120.1 71.4,72 115.4,148.8 115,200.5 C 823.8,590.8 617,797.5 504.1,797.9 Z"
           id="path59"
           inkscape:connector-curvature="0"
           style="fill:none" /><path
           class="noFillSVG"
           d="m 504.1,158.4 c -52,0 -129.4,45.3 -202,118.3 -72.3,72.7 -117.2,149.5 -116.9,200.7 0.2,52.1 45.3,129.4 117.7,201.9 72.3,72.3 149.2,117.1 200.9,117.1 0.1,0 0.2,0 0.3,0 112.3,-0.4 318,-206.1 319,-319 C 823.5,426.1 779.7,349.8 708.6,278.1 636.5,205.3 556.2,158.4 504.1,158.4 Z m -31.3,61.4 c 1.9,-7.6 12,-10.3 16.8,-3.6 1.7,2.3 2.7,6.6 0.6,9.1 -1.8,2.1 -4.3,1.6 -5.6,-0.5 -0.7,-1.2 1.2,-2.3 1.9,-1.1 2.9,-2.4 3,-4.8 0.4,-7.2 -1.4,-1.5 -3.1,-2.1 -5,-1.7 -3.5,0.1 -6.1,2.3 -7,5.7 -1.5,5.6 2.5,11.7 7.8,13.3 8.8,2.8 17.7,-4.8 18.7,-13.3 0,-9.9 0,-19.8 0,-29.7 -1.5,-2.7 -4.3,-6.1 -4.4,-9.2 -0.1,-2.8 2.8,-5.2 4.5,-7.1 0.4,-0.9 1.8,-0.8 2.1,0.1 1.8,1.7 4.4,4.6 4.4,7.2 0,2.8 -2.8,6.6 -4.3,8.9 0,9.9 0,19.8 0,29.7 1.1,8.5 9.9,16.1 18.7,13.3 5.3,-1.7 9.2,-7.8 7.8,-13.3 -1,-3.8 -4.8,-6.7 -8.8,-5.7 -1.1,0.6 -2.1,1.2 -3.2,1.8 -2.6,2.3 -2.5,4.7 0.4,7.2 0.7,-1.2 2.6,-0.1 1.9,1.1 -1.3,2.3 -3.9,2.6 -5.7,0.4 -2,-2.5 -0.9,-6.7 0.7,-9 4.8,-6.8 14.8,-4 16.8,3.6 2.3,8.9 -5.7,17 -14.3,16.6 -7.2,-0.3 -13,-5.3 -15.5,-11.7 -2.5,6.4 -8.3,11.3 -15.5,11.7 -8.6,0.5 -16.3,-7.8 -14.2,-16.6 z M 257.1,497.5 c 0.4,8.8 -7.8,16.5 -16.6,14.3 -7.6,-1.9 -10.3,-12 -3.6,-16.8 2.3,-1.7 6.6,-2.7 9.1,-0.6 2.1,1.8 1.6,4.3 -0.5,5.6 -1.2,0.7 -2.3,-1.2 -1.1,-1.9 -2.4,-2.9 -4.8,-3 -7.2,-0.4 -1.5,1.4 -2.1,3.1 -1.7,5 0.1,3.5 2.3,6.1 5.7,7 5.6,1.5 11.7,-2.5 13.3,-7.8 2.8,-8.8 -4.8,-17.7 -13.3,-18.7 -9.9,0 -19.8,0 -29.7,0 -2.7,1.5 -6.1,4.3 -9.2,4.4 -2.8,0.1 -5.2,-2.8 -7.1,-4.5 -0.9,-0.4 -0.8,-1.8 0.1,-2.1 1.7,-1.8 4.6,-4.4 7.2,-4.4 2.8,0 6.5,2.8 8.9,4.3 9.9,0 19.8,0 29.7,0 8.5,-1.1 16.1,-9.9 13.3,-18.7 -1.7,-5.3 -7.8,-9.2 -13.3,-7.8 -3.8,1 -6.7,4.8 -5.7,8.8 0.6,1.1 1.2,2.1 1.8,3.2 2.3,2.6 4.7,2.5 7.2,-0.4 -1.2,-0.7 -0.1,-2.6 1.1,-1.9 2.3,1.3 2.6,3.9 0.4,5.7 -2.5,2 -6.7,0.9 -9,-0.7 -6.8,-4.8 -4,-14.8 3.6,-16.8 8.9,-2.3 17,5.7 16.6,14.3 -0.3,7.2 -5.3,13 -11.7,15.5 6.4,2.4 11.3,8.2 11.7,15.4 z m 275.3,246.7 c -1.9,7.6 -12,10.3 -16.8,3.6 -1.7,-2.3 -2.7,-6.6 -0.6,-9.1 1.8,-2.1 4.3,-1.6 5.6,0.5 0.7,1.2 -1.2,2.3 -1.9,1.1 -2.9,2.4 -3,4.8 -0.4,7.2 1.4,1.5 3.1,2.1 5,1.7 3.5,-0.1 6.1,-2.3 7,-5.7 1.5,-5.6 -2.5,-11.7 -7.8,-13.3 -8.8,-2.8 -17.7,4.8 -18.7,13.3 0,9.9 0,19.8 0,29.7 1.5,2.7 4.3,6.1 4.4,9.2 0.1,2.8 -2.8,5.2 -4.5,7.1 -0.4,0.9 -1.8,0.8 -2.1,-0.1 -1.8,-1.7 -4.4,-4.6 -4.4,-7.2 0,-2.8 2.8,-6.5 4.3,-8.9 0,-9.9 0,-19.8 0,-29.7 -1.1,-8.5 -9.9,-16.1 -18.7,-13.3 -5.3,1.7 -9.2,7.8 -7.8,13.3 1,3.8 4.8,6.7 8.8,5.7 1.1,-0.6 2.1,-1.2 3.2,-1.8 2.6,-2.3 2.5,-4.7 -0.4,-7.2 -0.7,1.2 -2.6,0.1 -1.9,-1.1 1.3,-2.3 3.9,-2.6 5.7,-0.4 2,2.5 0.9,6.7 -0.7,9 -4.8,6.8 -14.8,4 -16.8,-3.6 -2.3,-8.9 5.7,-17 14.3,-16.6 7.2,0.3 13,5.3 15.5,11.7 2.5,-6.4 8.3,-11.3 15.5,-11.7 8.7,-0.5 16.4,7.7 14.2,16.6 z M 748.2,466.5 c -0.4,-8.8 7.8,-16.5 16.6,-14.3 7.6,1.9 10.3,12 3.6,16.8 -2.3,1.7 -6.6,2.7 -9.1,0.6 -2.1,-1.8 -1.6,-4.3 0.5,-5.6 1.2,-0.7 2.3,1.2 1.1,1.9 2.4,2.9 4.8,3 7.2,0.4 1.5,-1.4 2.1,-3.1 1.7,-5 -0.1,-3.5 -2.3,-6.1 -5.7,-7 -5.6,-1.5 -11.7,2.5 -13.3,7.8 -2.8,8.8 4.8,17.7 13.3,18.7 9.9,0 19.8,0 29.7,0 2.7,-1.5 6.1,-4.3 9.2,-4.4 2.8,-0.1 5.2,2.8 7.1,4.5 0.9,0.4 0.8,1.8 -0.1,2.1 -1.7,1.8 -4.6,4.4 -7.2,4.4 -2.8,0 -6.6,-2.8 -8.9,-4.3 -9.9,0 -19.8,0 -29.7,0 -8.5,1.1 -16.1,9.9 -13.3,18.7 1.7,5.3 7.8,9.2 13.3,7.8 3.8,-1 6.7,-4.8 5.7,-8.8 -0.6,-1.1 -1.2,-2.1 -1.8,-3.2 -2.3,-2.6 -4.7,-2.5 -7.2,0.4 1.2,0.7 0.1,2.6 -1.1,1.9 -2.3,-1.3 -2.6,-3.9 -0.4,-5.7 2.5,-2 6.7,-0.9 9,0.7 6.8,4.8 4,14.8 -3.6,16.8 -8.9,2.3 -17,-5.7 -16.6,-14.3 0.3,-7.2 5.3,-13 11.7,-15.5 -6.4,-2.4 -11.3,-8.2 -11.7,-15.4 z M 503.9,713.9 c -130.4,0 -236.4,-106.1 -236.4,-236.4 0,-130.3 106.1,-236.4 236.4,-236.4 130.3,0 236.4,106.1 236.4,236.4 0,130.3 -106.1,236.4 -236.4,236.4 z"
           id="path61"
           inkscape:connector-curvature="0"
           style="fill:none" /><path
           class="noFillSVG"
           d="m 503.9,245.6 c -127.9,0 -232,104.1 -232,232 0,127.9 104.1,232 232,232 127.9,0 232,-104.1 232,-232 0,-127.9 -104.1,-232 -232,-232 z m 0,457.5 C 379.5,703.1 278.4,601.9 278.4,477.6 278.4,353.3 379.5,252 503.9,252 c 124.4,0 225.5,101.2 225.5,225.5 0,124.3 -101.2,225.6 -225.5,225.6 z"
           id="path63"
           inkscape:connector-curvature="0"
           style="fill:none" /><path
           class="noFillSVG"
           d="m 371.1,752.9 c -1.5,-1.5 -2.7,-1.5 -3.6,0 -2,1.2 -1.7,2.8 0.8,4.8 1.3,0.6 0.2,2.5 -1.1,1.9 -4.1,-2 -4,-8 0.3,-9.7 0.1,-0.1 0.3,-0.1 0.4,-0.1 -4.2,-3.1 -8.4,-6.2 -12.6,-9.5 1.6,4.5 0.7,9.3 -2.1,13.2 1.5,5.4 4.5,10.6 10.4,11.9 4.3,1 9,-1.3 10.5,-5.6 0.1,-0.8 0.3,-1.6 0.4,-2.4 0.2,-1.6 -0.2,-2.8 -1,-3.5 -0.2,-0.1 -0.3,-0.2 -0.5,-0.3 -0.6,-0.5 -1.2,-0.7 -1.9,-0.7 z"
           id="path65"
           inkscape:connector-curvature="0"
           style="fill:none" /><path
           class="noFillSVG"
           d="m 779,609.3 c 5.2,-3.7 11.6,-3.4 16.6,-0.1 5.1,-1.5 9.9,-4.5 11.4,-10 1.1,-4.1 -0.7,-8.7 -4.7,-10.4 -2.2,-1 -3.4,-0.9 -5.6,0 -3.7,0.7 -3.8,3.1 -0.3,7.4 1,-0.7 2,-1.4 2.9,-2.1 0.6,-1.3 2.5,-0.2 1.9,1.1 -1.9,4.3 -8.4,4.1 -9.8,-0.5 -0.4,-1.1 -0.4,-2.2 -0.2,-3.2 -3.9,5.9 -8,11.9 -12.2,17.8 z"
           id="path67"
           inkscape:connector-curvature="0"
           style="fill:none" /><path
           class="noFillSVG"
           d="m 684.3,713.6 c -6.4,5.7 -12.9,11.2 -19.4,16.6 6.4,-2.8 13.8,-3.6 20.2,-1.6 -2.6,-4.6 -2.8,-10.3 -0.8,-15 z"
           id="path69"
           inkscape:connector-curvature="0"
           style="fill:none" /><path
           class="noFillSVG"
           d="m 716.8,682.7 c 0,0 0.1,0 0.1,0 3.4,1.6 7.3,2.5 11.4,2.8 -0.5,-4 -1.4,-7.7 -3.1,-10.9 -0.1,-0.2 -0.1,-0.5 -0.1,-0.7 -2.7,3.1 -5.5,6 -8.3,8.8 z"
           id="path71"
           inkscape:connector-curvature="0"
           style="fill:none" /><path
           class="noFillSVG"
           d="m 653,739.7 c -5.1,4 -10.3,7.8 -15.5,11.6 0.9,0 1.8,0.2 2.8,0.7 3.9,2 3.7,7.6 -0.2,9.5 -1.3,0.6 -2.4,-1.3 -1.1,-1.9 2.7,-2.4 2.6,-4.4 -0.4,-5.8 -1.7,0.7 -3.3,1.4 -5,2.1 -1.7,1.8 -0.6,5.6 0.4,7.3 2,3.3 5.7,5 9.6,4.1 5.8,-1.3 8.9,-6.5 10.3,-11.9 -3.2,-4.6 -3.9,-10.5 -0.9,-15.7 z"
           id="path73"
           inkscape:connector-curvature="0"
           style="fill:none" /><path
           class="noFillSVG"
           d="m 715.8,684.7 c -0.3,-0.1 -0.4,-0.3 -0.5,-0.5 -7,7 -14.1,13.9 -21.3,20.6 0.4,-0.1 0.8,-0.3 1.3,-0.4 5.7,-1.2 12.7,1.2 15,6.9 2,4.9 -0.2,10.6 -5,12.9 -1.3,0.6 -2.4,-1.3 -1.1,-1.9 9.2,-4.4 2.8,-15.8 -5.6,-16 -6.2,-0.1 -11.6,4.7 -13.2,10.5 -1.6,5.7 0.6,10.6 4.5,13.8 0.6,0.3 1.1,0.7 1.7,1.1 0.1,0.1 0.3,0.2 0.3,0.4 3.9,2.5 9,3.5 13.6,2.5 11.3,-2.4 18.2,-13.4 20.8,-23.8 1.7,-6.7 2.9,-15.3 2.3,-23.3 -4.4,-0.1 -8.8,-0.9 -12.8,-2.8 z"
           id="path75"
           inkscape:connector-curvature="0"
           style="fill:none" /><path
           class="noFillSVG"
           d="m 735.6,694 c 1.4,3.1 1.9,6.7 3.9,9.4 2.3,3.1 6.8,4.5 10.2,6.1 2.4,1.1 4.7,2.2 7.1,3.3 -1.7,-6 -3.6,-14 -7.9,-17.6 -3.9,-3.2 -10.3,-4.5 -15.8,-5.8 0.9,1.5 1.7,3 2.5,4.6 z"
           id="path77"
           inkscape:connector-curvature="0"
           style="fill:none" /><path
           d="M 503.9,252 C 379.5,252 278.4,353.2 278.4,477.5 278.4,601.8 379.6,703 503.9,703 628.2,703 729.4,601.8 729.4,477.5 729.4,353.2 628.2,252 503.9,252 Z m 0,448.8 c -123.1,0 -223.3,-100.2 -223.3,-223.3 0,-123.1 100.2,-223.3 223.3,-223.3 123.1,0 223.3,100.2 223.3,223.3 0,123.1 -100.2,223.3 -223.3,223.3 z"
           id="path79"
           inkscape:connector-curvature="0" /><path
           d="m 503.9,241.1 c -130.4,0 -236.4,106.1 -236.4,236.4 0,130.3 106.1,236.4 236.4,236.4 130.3,0 236.4,-106.1 236.4,-236.4 0,-130.3 -106.1,-236.4 -236.4,-236.4 z m 0,468.4 c -127.9,0 -232,-104.1 -232,-232 0,-127.9 104.1,-232 232,-232 127.9,0 232,104.1 232,232 0,127.9 -104.1,232 -232,232 z"
           id="path81"
           inkscape:connector-curvature="0" /><path
           d="m 504.1,156.7 c -52.4,0 -130.2,45.5 -203.2,118.8 -72.6,73 -117.6,150.3 -117.4,201.8 0.2,52.5 45.5,130.3 118.2,203 72.6,72.6 149.9,117.6 202.1,117.6 0.1,0 0.2,0 0.3,0 C 617,797.5 823.7,590.8 824.7,477.3 825.1,425.6 781.1,348.8 709.7,276.8 636.3,202.7 557.5,156.7 504.1,156.7 Z m 0,639.6 c -0.1,0 -0.2,0 -0.3,0 -51.7,0 -128.6,-44.8 -200.9,-117.1 -72.4,-72.4 -117.5,-149.8 -117.7,-201.9 -0.2,-51.1 44.6,-128 116.9,-200.7 72.7,-73 150.1,-118.3 202,-118.3 52.1,0 132.4,47 204.4,119.6 71.1,71.7 115,148.1 114.5,199.3 -0.9,113 -206.6,318.7 -318.9,319.1 z"
           id="path83"
           inkscape:connector-curvature="0" /><path
           d="m 487.2,236.4 c 7.2,-0.4 13,-5.3 15.5,-11.7 2.5,6.4 8.3,11.4 15.5,11.7 8.7,0.4 16.6,-7.8 14.3,-16.6 -2,-7.6 -12,-10.4 -16.8,-3.6 -1.6,2.3 -2.7,6.5 -0.7,9 1.8,2.2 4.3,1.8 5.7,-0.4 0.7,-1.2 -1.2,-2.3 -1.9,-1.1 -2.9,-2.4 -3,-4.8 -0.4,-7.2 1.1,-0.6 2.1,-1.2 3.2,-1.8 4,-1 7.8,1.9 8.8,5.7 1.4,5.6 -2.5,11.7 -7.8,13.3 -8.8,2.8 -17.7,-4.8 -18.7,-13.3 0,-9.9 0,-19.8 0,-29.7 1.5,-2.4 4.3,-6.1 4.3,-8.9 0,-2.6 -2.6,-5.5 -4.4,-7.2 -0.3,-1 -1.7,-1 -2.1,-0.1 -1.7,1.9 -4.6,4.3 -4.5,7.1 0.1,3.1 2.9,6.5 4.4,9.2 0,9.9 0,19.8 0,29.7 -1.1,8.5 -9.9,16.1 -18.7,13.3 -5.3,-1.7 -9.3,-7.8 -7.8,-13.3 0.9,-3.4 3.5,-5.6 7,-5.7 1.9,-0.4 3.6,0.2 5,1.7 2.6,2.3 2.5,4.7 -0.4,7.2 -0.7,-1.2 -2.6,-0.1 -1.9,1.1 1.3,2.2 3.8,2.7 5.6,0.5 2.1,-2.5 1,-6.7 -0.6,-9.1 -4.7,-6.7 -14.9,-4.1 -16.8,3.6 -2.3,8.8 5.4,17.1 14.2,16.6 z"
           id="path85"
           inkscape:connector-curvature="0" /><path
           d="m 852.2,477.3 c 6.4,-2.5 11.4,-8.3 11.7,-15.5 0.4,-8.7 -7.8,-16.6 -16.6,-14.3 -7.6,2 -10.4,12 -3.6,16.8 2.3,1.6 6.5,2.7 9,0.7 2.2,-1.8 1.8,-4.3 -0.4,-5.7 -1.2,-0.7 -2.3,1.2 -1.1,1.9 -2.4,2.9 -4.8,3 -7.2,0.4 -0.6,-1.1 -1.2,-2.1 -1.8,-3.2 -1,-4 1.9,-7.8 5.7,-8.8 5.6,-1.4 11.7,2.5 13.3,7.8 2.8,8.8 -4.8,17.7 -13.3,18.7 -0.1,0 -0.2,0 -0.4,0 0,0 -0.1,0 -0.1,0 -4.1,0 -8.2,0 -12.2,0 -0.1,-36.8 -21.7,-85.6 -59,-136.6 6.6,9 17.9,-1.9 25.4,4.5 3.1,2.6 5.1,6.9 4.3,10.9 -0.8,4.1 -5.7,7 -9.7,6.3 -7,-1.2 -1.8,-9.7 1.3,-6.6 0.7,0.7 1.5,2 2.4,1.4 0.5,-0.4 0.4,-1.2 0.1,-1.8 -1.7,-3.1 -6.7,-3.5 -8.8,-0.7 -2.4,3.2 -0.2,8.3 3.5,9.8 4.1,1.7 9.2,-0.1 11.7,-3.8 2.5,-3.7 2.5,-8.7 0.4,-12.7 -2.1,-3.9 -6,-6.7 -10.3,-7.9 3.4,-4.4 6,-10 5,-15.5 -1,-5.5 -6.8,-10.2 -12.2,-8.5 -4.6,1.5 -6.7,8 -3.9,12 1,1.4 2.5,2.4 4.2,2.6 1.7,0.1 3.5,-0.8 4,-2.4 0.3,-0.9 -0.3,-2.4 -1.2,-2.1 -0.5,0.1 -0.7,0.7 -1.1,1 -0.8,0.8 -2.2,0.9 -3.2,0.3 -1,-0.6 -1.6,-1.7 -1.8,-2.9 -0.5,-3.2 2.1,-6.5 5.3,-6.6 4.4,-0.2 7.5,4.6 7.7,9 0.2,4.7 -2,9.3 -5.5,12.3 -0.1,0 -0.2,-0.1 -0.3,-0.1 -0.9,-0.2 -1.5,0.6 -1.4,1.3 -3.2,2 -7.1,2.7 -10.9,1 -11.3,-5.3 -15.6,-23.6 -9.6,-34.3 0.2,-0.3 0.5,-0.5 0.7,-0.8 9.3,-11.4 3,-26.5 -7.9,-34 -7.2,-5 -16,-6.9 -24.7,-7.6 -2.6,-0.2 -5.2,-0.4 -7.9,-0.5 3.3,-1 6.5,-2 9.8,-3 2.5,-0.8 5.2,-1.4 7.1,-3.3 1.9,-1.9 2.6,-4.7 3.5,-7.2 1.6,-4.6 3.2,-9.2 4.6,-13.8 0.3,-1 -0.8,-1.6 -1.6,-1.3 -3.8,1.8 -7.5,3.6 -11.3,5.4 -2.9,1.4 -6.2,2.6 -8.4,5 -1.7,1.9 -2.3,4.3 -3.1,6.6 -1.1,3.4 -2.5,6.5 -4.3,9.5 0,-3.4 -0.3,-6.9 -0.6,-10.2 -0.8,-8.6 -2.7,-17.4 -7.6,-24.7 -7.5,-10.9 -22.6,-17.2 -34,-7.9 -0.3,0.2 -0.5,0.5 -0.7,0.7 -10.6,5.9 -29.3,1.8 -34.3,-9.6 -3.1,-7.2 2.6,-15.2 9.5,-17.4 4.8,-1.5 12,-0.8 13.8,5 0.9,2.9 -0.7,5.9 -3.5,7.2 -1.7,0.6 -3.2,0.4 -4.5,-0.6 -2,-0.5 -2.4,-2 -1.1,-4.3 1.4,0 1.4,-2.2 0,-2.2 -3.6,0 -4.5,3.6 -2.6,6.4 2.4,3.5 7.9,4.1 11.2,1.7 3.8,-2.7 3.6,-8.2 1,-11.7 -3.6,-4.9 -10.4,-5.2 -15.7,-3.3 -2.7,1 -4.9,2.5 -6.7,4.3 -1.9,-5.5 -5.5,-10.5 -11.6,-11.9 -6,-1.3 -12.5,2.5 -13.5,8.8 -0.2,1.3 -0.1,2.7 0.3,4 -46.1,-31.4 -89.7,-49.2 -123.4,-49.2 -0.1,0 -0.2,0 -0.3,0 0,-4.6 0,-9.1 0,-13.7 0,-0.1 0,-0.1 0,-0.1 0,-0.1 0,-0.2 0,-0.4 1.1,-8.5 9.9,-16.1 18.7,-13.3 5.3,1.7 9.3,7.8 7.8,13.3 -0.9,3.4 -3.5,5.6 -7,5.7 -1.9,0.4 -3.6,-0.2 -5,-1.7 -2.6,-2.3 -2.5,-4.7 0.4,-7.2 0.7,1.2 2.6,0.1 1.9,-1.1 -1.3,-2.2 -3.8,-2.7 -5.6,-0.5 -2.1,2.5 -1,6.7 0.6,9.1 4.7,6.7 14.9,4.1 16.8,-3.6 2.2,-8.8 -5.6,-17.1 -14.3,-16.6 -7.2,0.4 -13,5.3 -15.5,11.7 -2.5,-6.4 -8.3,-11.4 -15.5,-11.7 -8.7,-0.4 -16.6,7.8 -14.3,16.6 2,7.6 12,10.4 16.8,3.6 1.6,-2.3 2.7,-6.5 0.7,-9 -1.8,-2.2 -4.3,-1.8 -5.7,0.4 -0.7,1.2 1.2,2.3 1.9,1.1 2.9,2.4 3,4.8 0.4,7.2 -1.1,0.6 -2.1,1.2 -3.2,1.8 -4,1 -7.8,-1.9 -8.8,-5.7 -1.4,-5.6 2.5,-11.7 7.8,-13.3 8.8,-2.8 17.7,4.8 18.7,13.3 0,0.1 0,0.2 0,0.4 0,0 0,0.1 0,0.1 0,4.6 0,9.2 0,13.8 -34.4,0.9 -78.8,20.1 -125.7,53.1 0.4,-1.3 0.6,-2.7 0.3,-4 -1,-6 -7,-9.8 -12.9,-8.8 -6.4,1.1 -10.2,6.3 -12.2,12.1 -2,-2 -4.5,-3.5 -7.4,-4.4 -5.2,-1.6 -11.6,-0.9 -15,3.7 -2.6,3.6 -2.7,9 1.2,11.7 3.1,2.2 8.1,1.8 10.6,-1.1 2.4,-2.7 2.1,-7.2 -2.1,-7.1 -1.4,0 -1.4,2.2 0,2.2 0.1,3.9 -1.2,5.5 -3.9,5 -1.3,0.3 -2.3,-0.1 -3.2,-1.2 -3.2,-2.3 -2.6,-6.8 0.1,-9.3 3.6,-3.5 10,-2.9 14.2,-0.7 6.8,3.6 10.6,11.9 5.7,18.6 -6.8,9.5 -22.6,13.2 -32.9,7.6 -0.2,-0.2 -0.4,-0.4 -0.7,-0.6 -11.5,-9.1 -26.5,-2.7 -33.9,8.3 -4.9,7.3 -6.7,16.1 -7.4,24.7 -0.3,3.4 -0.5,6.8 -0.5,10.3 -1.7,-2.7 -3.1,-5.5 -4.2,-8.6 -0.9,-2.6 -1.5,-5.3 -3.4,-7.4 -2,-2.2 -4.9,-3.3 -7.5,-4.5 -4.1,-1.9 -8.2,-3.8 -12.3,-5.7 -0.8,-0.4 -2,0.3 -1.6,1.3 1.5,4.6 3.1,9.2 4.8,13.8 0.9,2.5 1.7,5.2 3.6,7.1 1.9,1.9 4.6,2.5 7.1,3.2 3.3,1 6.5,1.9 9.8,2.9 -2.6,0.1 -5.3,0.4 -7.8,0.6 -8.6,0.9 -17.4,2.9 -24.6,7.9 -10.8,7.7 -16.9,22.8 -7.5,34.1 0.2,0.3 0.5,0.5 0.7,0.7 6,10.5 2.2,29.3 -9.2,34.4 -3.8,1.7 -7.7,1.1 -10.9,-0.9 0.1,-0.7 -0.5,-1.5 -1.4,-1.3 -0.1,0 -0.2,0.1 -0.3,0.1 -2.2,-1.9 -4,-4.4 -5,-7.2 -1.4,-4.1 -1.2,-11.4 3.7,-13.3 3.3,-1.3 6.8,-0.5 8.4,2.9 0.5,1.4 0.4,2.8 -0.5,4 -0.3,2.4 -1.7,2.9 -4.4,1.6 0,-1.4 -2.2,-1.4 -2.2,0 0.1,3.6 3.7,4.5 6.4,2.6 3.5,-2.4 4.1,-7.9 1.6,-11.2 -2.8,-3.8 -8.2,-3.5 -11.7,-0.9 -4.8,3.6 -5.1,10.5 -3.1,15.7 1,2.7 2.5,4.9 4.4,6.6 -5.5,2 -10.4,5.7 -11.7,11.7 -1.3,6.1 2.6,12.5 8.9,13.4 5.1,0.7 10.7,-3.3 8.9,-8.9 -1.5,-4.6 -7.9,-4.9 -9.8,-0.5 -0.6,1.3 1.3,2.4 1.9,1.1 1,-0.7 2,-1.4 2.9,-2.1 3.5,4.3 3.4,6.8 -0.3,7.4 -2.2,0.9 -3.4,0.9 -5.6,0 -3.9,-1.8 -5.8,-6.4 -4.7,-10.5 1.5,-5.5 6.3,-8.5 11.4,-10 5.3,3.6 12.3,3.7 17.7,-0.9 -35.1,49 -55.3,95.5 -55.6,130.6 -0.1,0 -0.2,-0.1 -0.4,-0.1 -4.9,0 -9.9,0 -14.8,0 -0.1,0 -0.1,0 -0.1,0 -0.1,0 -0.2,0 -0.4,0 -8.5,-1.1 -16.1,-9.9 -13.3,-18.7 1.7,-5.3 7.8,-9.3 13.3,-7.8 3.4,0.9 5.6,3.5 5.7,7 0.4,1.9 -0.2,3.6 -1.7,5 -2.3,2.6 -4.7,2.5 -7.2,-0.4 1.2,-0.7 0.1,-2.6 -1.1,-1.9 -2.2,1.3 -2.7,3.8 -0.5,5.6 2.5,2.1 6.7,1 9.1,-0.6 6.7,-4.7 4.1,-14.9 -3.6,-16.8 -8.8,-2.2 -17.1,5.6 -16.6,14.3 0.4,7.2 5.3,13 11.7,15.5 -6.4,2.5 -11.4,8.3 -11.7,15.5 -0.4,8.7 7.8,16.6 16.6,14.3 7.6,-2 10.4,-12 3.6,-16.8 -2.3,-1.6 -6.5,-2.7 -9,-0.7 -2.2,1.8 -1.8,4.3 0.4,5.7 1.2,0.7 2.3,-1.2 1.1,-1.9 2.4,-2.9 4.8,-3 7.2,-0.4 0.6,1.1 1.2,2.1 1.8,3.2 1,4 -1.9,7.8 -5.7,8.8 -5.6,1.4 -11.7,-2.5 -13.3,-7.8 -2.8,-8.8 4.8,-17.7 13.3,-18.7 0.1,0 0.2,0 0.4,0 0,0 0.1,0 0.1,0 4.9,0 9.9,0 14.8,0 0.1,0 0.3,0 0.4,-0.1 0.4,29.9 14.8,67.5 40,107.7 -1.8,-1.4 -4.3,-2.1 -6.6,-1.8 -6.1,0.9 -9.9,6.8 -9,12.7 1,6.4 6.1,10.4 11.8,12.4 -1.8,1.7 -3.3,3.9 -4.3,6.6 -2,5.2 -1.7,12 3,15.7 3.5,2.7 8.9,3 11.7,-0.7 2.4,-3.2 2.1,-8.4 -1,-11 -2.7,-2.2 -6.8,-1.8 -6.9,2.2 0,1.4 2.2,1.4 2.2,0 2.6,-1.3 4.1,-0.8 4.4,1.6 0.7,0.9 0.9,1.9 0.6,2.9 -0.3,4.7 -5.1,5.3 -8.5,4 -5,-2 -5,-9.1 -3.7,-13.3 0.9,-2.8 2.7,-5.3 4.9,-7.2 0.1,0 0.2,0.1 0.3,0.1 0.9,0.2 1.5,-0.6 1.4,-1.3 3.2,-2 7.2,-2.7 10.9,-0.8 11.2,5.4 15.3,23.8 9.2,34.4 -0.2,0.3 -0.5,0.5 -0.7,0.8 -9.4,11.3 -3.3,26.5 7.5,34.1 7.2,5.1 16,7 24.6,7.9 2.6,0.3 5.2,0.5 7.8,0.6 -3.3,1 -6.5,1.9 -9.8,2.9 -2.5,0.7 -5.2,1.3 -7.1,3.2 -1.9,1.9 -2.7,4.7 -3.6,7.1 -1.7,4.6 -3.3,9.2 -4.8,13.8 -0.3,1 0.8,1.6 1.6,1.3 3.8,-1.8 7.6,-3.5 11.3,-5.3 2.9,-1.4 6.3,-2.5 8.5,-4.9 1.7,-1.9 2.4,-4.3 3.2,-6.6 1.2,-3.4 2.6,-6.4 4.5,-9.4 0,3.4 0.2,6.9 0.5,10.2 0.7,8.6 2.5,17.4 7.4,24.7 7.4,11 22.4,17.4 34,8.3 0.2,-0.2 0.4,-0.4 0.7,-0.6 7.5,-4.1 18,-3.3 25.7,1.2 1.9,1.6 3.9,3.1 5.8,4.6 0.5,0.5 1,1.1 1.4,1.7 3.1,4.4 2.8,9.3 0.3,13.2 -0.7,-0.1 -1.5,0.5 -1.3,1.4 0,0.1 0.1,0.2 0.1,0.3 -1.3,1.5 -2.9,2.8 -4.8,3.7 -4.2,2.1 -10.5,2.8 -14.2,-0.7 -2,-1.9 -2.8,-5.6 -1.7,-8.2 1.2,-1.8 2.8,-2.6 4.8,-2.3 2.7,-0.5 4,1.2 3.9,5 -1.4,0 -1.4,2.2 0,2.2 4.1,0 4.5,-4.5 2.1,-7.1 -2.6,-2.9 -7.5,-3.3 -10.6,-1.1 -3.9,2.7 -3.7,8.1 -1.2,11.7 3.3,4.7 9.9,5.3 15,3.7 3,-0.9 5.5,-2.5 7.4,-4.5 1.8,5.6 5.4,10.6 11.5,12 6,1.4 12.5,-2.4 13.5,-8.7 0.2,-1 0.1,-1.9 0,-2.9 46.7,32.6 90.9,51.6 125.1,52.4 0,4.6 0,9.2 0,13.7 0,0.1 0,0.1 0,0.1 0,0.1 0,0.2 0,0.4 -1.1,8.5 -9.9,16.1 -18.7,13.3 -5.3,-1.7 -9.3,-7.8 -7.8,-13.3 0.9,-3.4 3.5,-5.6 7,-5.7 1.9,-0.4 3.6,0.2 5,1.7 2.6,2.3 2.5,4.7 -0.4,7.2 -0.7,-1.2 -2.6,-0.1 -1.9,1.1 1.3,2.2 3.8,2.7 5.6,0.5 2.1,-2.5 1,-6.7 -0.6,-9.1 -4.7,-6.7 -14.9,-4.1 -16.8,3.6 -2.2,8.8 5.6,17.1 14.3,16.6 7.2,-0.4 13,-5.3 15.5,-11.7 2.5,6.4 8.3,11.4 15.5,11.7 8.7,0.4 16.6,-7.8 14.3,-16.6 -2,-7.6 -12,-10.4 -16.8,-3.6 -1.6,2.3 -2.7,6.5 -0.7,9 1.8,2.2 4.3,1.8 5.7,-0.4 0.7,-1.2 -1.2,-2.3 -1.9,-1.1 -2.9,-2.4 -3,-4.8 -0.4,-7.2 1.1,-0.6 2.1,-1.2 3.2,-1.8 4,-1 7.8,1.9 8.8,5.7 1.4,5.6 -2.5,11.7 -7.8,13.3 -8.8,2.8 -17.7,-4.8 -18.7,-13.3 0,-0.1 0,-0.2 0,-0.4 0,0 0,-0.1 0,-0.1 0,-4.6 0,-9.1 0,-13.7 0.1,0 0.2,0 0.3,0 36.2,-0.1 81.7,-20.8 127.3,-52.8 -0.7,1.6 -1.1,3.4 -0.8,5.1 1,6 7,9.8 12.9,8.7 6.4,-1.1 10.2,-6.3 12.1,-12.1 2,2 4.5,3.5 7.4,4.4 5.2,1.6 11.6,0.9 14.9,-3.8 2.6,-3.6 2.7,-9 -1.2,-11.7 -3.1,-2.2 -8.1,-1.8 -10.6,1.1 -2.3,2.7 -2,7.2 2.1,7.1 1.4,0 1.4,-2.2 0,-2.2 -0.1,-3.9 1.2,-5.5 3.9,-5 1.3,-0.3 2.3,0.1 3.2,1.2 3.2,2.3 2.6,6.8 -0.1,9.3 -3.6,3.5 -10,3 -14.2,0.8 -1.9,-1 -3.5,-2.3 -4.8,-3.8 0,-0.1 0,-0.2 0.1,-0.3 0.2,-0.9 -0.6,-1.4 -1.3,-1.4 -2.5,-3.9 -2.9,-8.8 0.2,-13.2 6.8,-9.5 22.6,-13.3 32.9,-7.6 0.2,0.2 0.4,0.4 0.7,0.6 11.5,9.1 26.5,2.7 33.9,-8.4 4.9,-7.3 6.6,-16.1 7.3,-24.8 0.3,-3.4 0.5,-6.8 0.5,-10.3 1.7,2.7 3.1,5.5 4.2,8.6 1,2.6 1.6,5.3 3.4,7.4 2,2.2 4.9,3.2 7.5,4.5 4.1,1.9 8.2,3.8 12.3,5.7 0.8,0.4 2,-0.3 1.6,-1.3 -1.5,-4.6 -3.1,-9.2 -4.8,-13.8 -0.9,-2.5 -1.7,-5.2 -3.6,-7.1 -1.9,-1.9 -4.6,-2.5 -7.1,-3.2 -3.3,-1 -6.6,-1.9 -9.8,-2.9 2.6,-0.1 5.3,-0.4 7.8,-0.6 8.6,-0.9 17.4,-2.9 24.5,-8 10.8,-7.7 16.9,-22.8 7.5,-34.1 -0.2,-0.3 -0.5,-0.5 -0.7,-0.7 -6,-10.5 -2.3,-29.3 9.1,-34.5 3.8,-1.7 7.7,-1.1 10.9,0.8 -0.1,0.7 0.5,1.5 1.4,1.3 0.1,0 0.2,-0.1 0.3,-0.1 2.2,1.8 4,4.4 5,7.2 1.4,4.1 1.2,11.4 -3.6,13.4 -3.3,1.3 -6.8,0.5 -8.4,-2.8 -0.5,-1.4 -0.4,-2.8 0.5,-4 0.3,-2.4 1.7,-2.9 4.4,-1.6 0,1.4 2.2,1.4 2.2,0 -0.1,-3.6 -3.7,-4.5 -6.4,-2.6 -3.5,2.4 -4,7.9 -1.6,11.2 2.8,3.8 8.2,3.5 11.7,0.9 4.8,-3.6 5.1,-10.5 3.1,-15.7 -1,-2.7 -2.5,-4.9 -4.4,-6.6 5.5,-2 10.4,-5.7 11.7,-11.8 1.2,-6.1 -2.6,-12.5 -9,-13.3 -2.3,-0.3 -4.8,0.4 -6.6,1.8 25,-39.3 40.8,-77.6 41.4,-109.1 4.1,0 8.2,0 12.3,0 0.1,0 0.1,0 0.1,0 0.1,0 0.2,0 0.4,0 8.5,1.1 16.1,9.9 13.3,18.7 -1.7,5.3 -7.8,9.3 -13.3,7.8 -3.4,-0.9 -5.6,-3.5 -5.7,-7 -0.4,-1.9 0.2,-3.6 1.7,-5 2.3,-2.6 4.7,-2.5 7.2,0.4 -1.2,0.7 -0.1,2.6 1.1,1.9 2.2,-1.3 2.7,-3.8 0.5,-5.6 -2.5,-2.1 -6.7,-1 -9.1,0.6 -6.7,4.7 -4.1,14.9 3.6,16.8 8.8,2.2 17.1,-5.6 16.6,-14.3 -0.3,-6.8 -5.2,-12.6 -11.6,-15.1 z M 770.3,332 c -5.7,-7.4 -11.6,-14.9 -17.9,-22.4 4.8,2.3 10.7,2.3 15.5,-0.5 -2.5,7.4 -1.2,15.9 2.4,22.9 z m -19.6,-64.2 c 10.4,2.7 21.3,9.8 23.5,21.1 0.9,4.5 -0.2,9.5 -2.7,13.4 -0.1,0.1 -0.2,0.1 -0.3,0.3 -0.5,0.6 -0.9,1.2 -1.3,1.9 -3.3,3.9 -8.3,6 -14,4.3 -5.8,-1.7 -10.6,-7.1 -10.3,-13.3 0.3,-8.4 11.8,-14.6 16,-5.3 0.6,1.3 2.5,0.2 1.9,-1.1 -2.2,-4.8 -7.8,-7 -12.8,-5.1 -5.7,2.2 -8.3,9.2 -7.1,14.9 0.1,0.5 0.2,0.9 0.4,1.3 -6.5,-7.4 -13.3,-14.9 -20.4,-22.2 0.4,0.1 0.9,0 1.2,-0.5 1.9,-3.8 2.7,-7.9 3,-12 0.1,0 0.1,-0.1 0.2,-0.1 7.9,-0.6 16.2,0.7 22.7,2.4 z m -27.8,9.2 c -2.1,-2.2 -4.3,-4.5 -6.5,-6.7 -0.7,-0.7 -1.3,-1.3 -2,-2 0,0 0.1,0 0.1,0 3.3,-1.7 7.3,-2.6 11.4,-3 -0.4,3.9 -1.3,7.7 -2.9,10.9 -0.1,0.3 -0.1,0.5 -0.1,0.8 z m 13.6,-29 c 2,-3.5 5.9,-4.7 9.5,-6.4 2.7,-1.3 5.3,-2.6 8,-3.9 -1.7,6 -3.4,14.1 -7.6,17.7 -3.9,3.4 -10.4,4.7 -16,6.1 2.3,-4.5 3.6,-9.2 6.1,-13.5 z m -34.2,-31.6 c 11,2.2 18,12.5 20.9,22.6 1.9,6.9 3.4,15.9 2.9,24.2 -4.4,0.3 -8.7,1.1 -12.7,3.1 -0.2,0.1 -0.4,0.3 -0.4,0.5 -7,-7 -14.1,-13.7 -21.1,-20.1 0.3,0.1 0.5,0.2 0.7,0.2 5.7,1.2 12.6,-1.4 14.9,-7.1 1.9,-5 -0.3,-10.6 -5.1,-12.8 -1.3,-0.6 -2.4,1.3 -1.1,1.9 8.6,3.9 3.9,14.7 -4,15.8 -6.4,0.9 -12.4,-3.4 -14.5,-9.5 -2,-5.9 0.1,-11.2 4.2,-14.7 0.6,-0.4 1.2,-0.8 1.8,-1.2 0.1,-0.1 0.2,-0.2 0.2,-0.2 3.8,-2.4 8.7,-3.6 13.3,-2.7 z m -20.2,6.5 c -2.5,4.4 -2.7,9.7 -1,14.3 -5.9,-5.2 -11.9,-10.2 -17.8,-15 6.1,2.2 12.9,2.6 18.8,0.7 z m -45.5,-32.2 c -1.3,-0.6 -2.4,1.3 -1.1,1.9 2.4,1.5 2.7,3 0.9,4.4 -0.6,1.7 -1.7,2 -3.3,0.8 -2.6,-0.1 -3.9,-1.7 -3.8,-4.8 0.1,-0.8 0.3,-1.6 0.4,-2.4 1.4,-4.3 6.1,-6.7 10.4,-5.8 5.9,1.3 9,6.4 10.5,11.7 -3,4.3 -3.7,9.7 -1.4,14.5 -4.7,-3.6 -9.4,-7 -14.1,-10.3 0.4,-0.1 0.8,-0.2 1.3,-0.4 4.3,-1.6 4.4,-7.7 0.2,-9.6 z m -283.8,10.1 c 1.5,-5.4 4.5,-10.6 10.4,-11.9 3.9,-0.9 7.6,0.8 9.6,4.2 2.4,4 1.4,8.4 -3.7,9.1 -1.4,0.2 -3,-0.6 -3.2,-1.9 -0.2,-1.2 0.7,-2.3 1.6,-3.1 0.4,-0.4 0.9,-0.8 0.9,-1.3 0,-0.6 -0.6,-1.1 -1.2,-1.1 -0.6,0 -1.2,0.3 -1.6,0.7 -2.7,2.4 -2.4,7.1 0.9,8.8 0.6,0.3 1.3,0.5 1.9,0.6 -4.7,3.4 -9.4,7 -14.1,10.6 2.4,-5 1.6,-10.4 -1.5,-14.7 z m -12.1,25.6 c -6,5 -12.1,10.2 -18.1,15.6 1.8,-4.6 1.6,-10.1 -1,-14.5 6.1,1.9 13,1.3 19.1,-1.1 z m -60.3,18.7 c 2.6,-10.5 9.5,-21.4 20.8,-23.8 4.6,-1 9.6,0.1 13.6,2.6 0.1,0.1 0.2,0.3 0.3,0.4 0.5,0.4 1.1,0.8 1.7,1.1 3.9,3.3 6.1,8.2 4.5,13.9 -1.6,5.8 -7,10.7 -13.2,10.5 -8.4,-0.2 -14.8,-11.6 -5.5,-16 1.3,-0.6 0.2,-2.5 -1.1,-1.9 -4.8,2.2 -7,7.9 -5,12.9 2.3,5.7 9.2,8.2 14.9,6.9 0.4,-0.1 0.7,-0.2 1.1,-0.3 -6.1,5.7 -12.2,11.6 -18.2,17.6 -1,1 -1.9,2 -2.9,3 -0.1,-0.2 -0.2,-0.4 -0.5,-0.5 -4,-1.9 -8.3,-2.7 -12.8,-3 -0.6,-8.1 0.7,-16.7 2.3,-23.4 z m 1,36.2 c -1.6,-3.2 -2.6,-6.9 -3.1,-10.9 4.1,0.3 8.1,1.2 11.4,2.8 0.1,0 0.1,0 0.2,0.1 -2.9,3 -5.7,5.9 -8.5,8.9 0.1,-0.3 0.1,-0.6 0,-0.9 z m -23.6,-20.5 c -4.3,-3.6 -6.1,-11.6 -7.9,-17.6 2.4,1.1 4.7,2.2 7.1,3.3 3.5,1.6 7.9,2.9 10.2,6.1 2,2.7 2.6,6.3 3.9,9.4 0.7,1.6 1.5,3.1 2.4,4.6 -5.4,-1.3 -11.8,-2.6 -15.7,-5.8 z m -27.6,33.9 c 2,-11 12.3,-18.2 22.4,-21.2 6.7,-2 15.4,-3.5 23.5,-3.2 0.1,0 0.1,0.1 0.2,0.1 0.4,4.2 1.2,8.2 3.2,12 0.3,0.6 0.9,0.7 1.4,0.4 -7.1,7.5 -13.9,15.1 -20.4,22.6 0.1,-0.4 0.3,-0.9 0.4,-1.4 1.1,-5.7 -1.5,-12.6 -7.3,-14.8 -5,-1.9 -10.6,0.4 -12.8,5.3 -0.6,1.3 1.3,2.4 1.9,1.1 3.8,-8.7 14.5,-4 15.9,3.8 1.1,6.4 -3.3,12.5 -9.3,14.6 -5.9,2.1 -11.2,0 -14.7,-4 -0.4,-0.6 -0.8,-1.2 -1.3,-1.8 -0.1,-0.1 -0.2,-0.2 -0.3,-0.2 -2.4,-3.8 -3.6,-8.7 -2.8,-13.3 z m 6.7,20.1 c 4.8,2.7 10.7,2.6 15.4,0.3 -6.1,7.4 -12,14.8 -17.5,22.2 3.5,-7 4.6,-15.4 2.1,-22.5 z m -25.6,292.9 c -5.1,-1.5 -10.1,-4.5 -11.4,-10 -0.9,-3.7 0.2,-7.7 3.6,-9.9 1.3,-0.8 3.1,-1.5 4.6,-1.4 4.3,0.1 5.4,1.7 3.3,5 0,4 -1.2,4.4 -3.8,1.2 -0.6,-1.3 -2.5,-0.2 -1.9,1.1 1.9,4.3 8.2,4.1 9.8,-0.4 0.4,-1.1 0.5,-2.2 0.3,-3.2 3.7,5.8 7.7,11.6 11.8,17.5 -5.3,-3.5 -11.5,-3.2 -16.3,0.1 z m 25,11.9 c 4.7,6.3 9.7,12.7 14.9,19 -4.5,-1.7 -9.7,-1.5 -14,0.9 2.2,-6.3 1.6,-13.5 -0.9,-19.9 z m 17.5,61.5 c -10.4,-2.9 -21.2,-10.1 -23.3,-21.4 -0.8,-4.6 0.3,-9.5 2.8,-13.4 0.1,-0.1 0.2,-0.1 0.3,-0.3 0.5,-0.6 0.9,-1.2 1.3,-1.8 3.4,-3.8 8.3,-5.9 14,-4.1 5.8,1.8 10.4,7.2 10.2,13.5 -0.3,8.5 -12,14.4 -16.1,5.1 -0.6,-1.3 -2.5,-0.2 -1.9,1.1 2.1,4.8 7.8,7.1 12.8,5.3 5.7,-2.1 8.3,-8.9 7.3,-14.6 6.1,7 12.4,14.1 19,21.1 -0.1,0.1 -0.3,0.2 -0.4,0.4 -1.9,3.8 -2.8,7.8 -3.2,12 -0.1,0 -0.1,0.1 -0.2,0.1 -7.8,0.2 -16.1,-1.2 -22.6,-3 z m 35.7,0.2 c -3.2,1.5 -7,2.3 -10.9,2.6 0.5,-3.9 1.4,-7.6 3,-10.8 2.6,2.7 5.3,5.5 7.9,8.2 z m -18,10.9 c -1.4,3 -1.9,6.9 -4,9.5 -2.3,2.9 -6,4.1 -9.3,5.7 -2.7,1.3 -5.4,2.5 -8,3.8 1.7,-6 3.6,-14.1 7.9,-17.6 3.9,-3.3 10.3,-4.5 15.8,-5.8 -0.9,1.4 -1.7,2.9 -2.4,4.4 z m 30.1,40.8 c -10.9,-2.3 -17.9,-12.7 -20.6,-22.9 -1.9,-6.9 -3.2,-15.9 -2.6,-24.2 4.4,-0.2 8.7,-1 12.7,-3 1.3,1.3 2.6,2.7 3.9,4 5.4,5.4 10.8,10.6 16.2,15.7 -5.6,-1 -12.3,1.4 -14.5,7 -2,4.9 0.2,10.6 5,12.9 1.3,0.6 2.4,-1.3 1.1,-1.9 -8.6,-4 -3.7,-14.7 4.2,-15.8 3.3,-0.4 6.5,0.5 9.1,2.4 0.7,0.6 1.4,1.3 2.1,1.9 1.4,1.5 2.5,3.3 3.2,5.3 1.9,5.9 -0.3,11.1 -4.3,14.6 -0.6,0.3 -1.1,0.7 -1.6,1.1 -0.1,0.1 -0.2,0.2 -0.3,0.3 -3.9,2.5 -8.9,3.6 -13.6,2.6 z m 20.4,-6.2 c 2.3,-4 2.7,-8.8 1.5,-13.1 5.2,4.6 10.3,9.1 15.5,13.4 -5.6,-1.7 -11.7,-2 -17,-0.3 z m 52.4,30.5 c -0.1,0.8 -0.3,1.6 -0.4,2.4 -1.5,4.3 -6.2,6.6 -10.5,5.6 -5.8,-1.3 -8.9,-6.5 -10.4,-11.9 2.8,-3.9 3.7,-8.7 2.1,-13.2 4.2,3.3 8.4,6.4 12.6,9.5 -0.1,0 -0.3,0.1 -0.4,0.1 -4.3,1.7 -4.5,7.7 -0.3,9.7 1.3,0.6 2.4,-1.3 1.1,-1.9 -2.5,-2 -2.7,-3.6 -0.8,-4.8 0.9,-1.5 2.1,-1.5 3.6,0 0.7,0.1 1.3,0.3 1.8,0.6 0.2,0.1 0.3,0.2 0.5,0.3 0.9,0.8 1.3,2 1.1,3.6 z m 279.6,-2 c -1.4,5.4 -4.5,10.6 -10.3,11.9 -3.9,0.9 -7.6,-0.8 -9.6,-4.1 -1,-1.7 -2.1,-5.5 -0.4,-7.3 1.7,-0.7 3.3,-1.4 5,-2.1 2.9,1.4 3.1,3.4 0.4,5.8 -1.3,0.6 -0.2,2.5 1.1,1.9 3.8,-1.8 4.1,-7.5 0.2,-9.5 -1,-0.5 -1.9,-0.7 -2.8,-0.7 5.2,-3.7 10.3,-7.6 15.5,-11.6 -3.1,5.3 -2.4,11.2 0.9,15.7 z m 10.9,-25.1 c 6.5,-5.4 13,-10.9 19.4,-16.6 -2,4.7 -1.9,10.4 0.8,15 -6.4,-2 -13.8,-1.2 -20.2,1.6 z M 726.3,711 c -2.6,10.5 -9.5,21.4 -20.8,23.8 -4.6,1 -9.6,-0.1 -13.6,-2.5 -0.1,-0.1 -0.2,-0.3 -0.3,-0.4 -0.5,-0.4 -1.1,-0.8 -1.7,-1.1 -3.9,-3.3 -6.1,-8.2 -4.5,-13.8 1.6,-5.8 7,-10.7 13.2,-10.5 8.4,0.2 14.8,11.6 5.6,16 -1.3,0.6 -0.2,2.5 1.1,1.9 4.8,-2.3 7,-7.9 5,-12.9 -2.3,-5.7 -9.3,-8.1 -15,-6.9 -0.4,0.1 -0.9,0.3 -1.3,0.4 7.2,-6.7 14.4,-13.6 21.3,-20.6 0.1,0.2 0.2,0.4 0.5,0.5 4,1.9 8.4,2.7 12.8,2.9 0.6,7.8 -0.7,16.4 -2.3,23.2 z m -1,-36.3 c 1.6,3.2 2.6,6.9 3.1,10.9 -4.1,-0.3 -8.1,-1.2 -11.4,-2.8 0,0 -0.1,0 -0.1,0 2.8,-2.9 5.6,-5.8 8.4,-8.7 -0.1,0.2 -0.1,0.4 0,0.6 z m 23.6,20.5 c 4.3,3.6 6.2,11.6 7.9,17.6 -2.4,-1.1 -4.7,-2.2 -7.1,-3.3 -3.5,-1.6 -7.9,-2.9 -10.2,-6.1 -2,-2.7 -2.6,-6.3 -3.9,-9.4 -0.7,-1.6 -1.6,-3.1 -2.5,-4.6 5.5,1.3 11.9,2.6 15.8,5.8 z m 27.5,-33.9 c -2,11 -12.2,18.2 -22.3,21.2 -6.7,2 -15.4,3.6 -23.5,3.3 -0.1,-0.1 -0.1,-0.1 -0.2,-0.1 -0.4,-4.2 -1.3,-8.2 -3.2,-12 -0.3,-0.5 -0.7,-0.6 -1.1,-0.5 6.8,-7.2 13.5,-14.6 19.9,-22 -0.1,0.3 -0.2,0.6 -0.2,0.9 -1.1,5.7 1.5,12.6 7.3,14.8 5,1.9 10.6,-0.5 12.7,-5.3 0.6,-1.3 -1.3,-2.4 -1.9,-1.1 -3.8,8.7 -14.5,4.1 -15.9,-3.7 -1.1,-6.4 3.3,-12.5 9.2,-14.6 5.9,-2.1 11.2,0 14.7,3.9 0.4,0.6 0.8,1.2 1.3,1.8 0.1,0.1 0.2,0.2 0.3,0.2 2.5,3.6 3.7,8.5 2.9,13.2 z m -6.7,-20.1 c -4.6,-2.5 -10.2,-2.6 -14.9,-0.5 5.6,-6.7 10.9,-13.5 16.1,-20.4 -2.8,6.6 -3.5,14.2 -1.2,20.9 z m 21.7,-46.5 c 1.5,4.6 7.9,4.9 9.8,0.5 0.6,-1.3 -1.3,-2.4 -1.9,-1.1 -1,0.7 -2,1.4 -2.9,2.1 -3.5,-4.3 -3.4,-6.8 0.3,-7.4 2.2,-0.9 3.4,-0.9 5.6,0 3.9,1.8 5.8,6.4 4.7,10.4 -1.5,5.5 -6.3,8.5 -11.4,10 -4.9,-3.4 -11.3,-3.7 -16.6,0.1 4.2,-5.9 8.3,-11.9 12.2,-17.8 -0.2,1 -0.2,2.1 0.2,3.2 z M 504.1,806.1 c -0.1,0 -0.2,0 -0.3,0 -34.8,0 -80.7,-19.7 -129,-54.1 -0.8,-1.1 -1.9,-1.9 -3.2,-2.3 -6.6,-4.8 -13.2,-9.8 -19.8,-15 -0.1,-0.1 -0.2,-0.2 -0.3,-0.4 -1.3,-1.3 -2.8,-2.4 -4.4,-3.5 -8.8,-7.1 -17.6,-14.7 -26.4,-22.7 -1,-1.2 -2.1,-2.3 -3.5,-3.2 -6.8,-6.3 -13.6,-12.8 -20.3,-19.5 C 222,610.7 175.5,531 175.3,477.3 c -0.2,-52.7 46,-131.9 120.6,-206.8 74.9,-75.2 154.7,-122 208.2,-122 53.7,0 136.4,48.4 210.7,123.3 72.8,73.4 117.9,151.5 118.1,204.4 -0.1,0 -0.2,0 -0.3,0 -1.4,0 -1.4,2.2 0,2.2 0.1,0 0.2,0 0.3,0 C 830.6,595 619.5,805.7 504.1,806.1 Z"
           id="path87"
           inkscape:connector-curvature="0" /><path
           d="m 518.1,727.5 c -7.2,0.4 -13,5.3 -15.5,11.7 -2.5,-6.4 -8.3,-11.4 -15.5,-11.7 -8.7,-0.4 -16.6,7.8 -14.3,16.6 2,7.6 12,10.4 16.8,3.6 1.6,-2.3 2.7,-6.5 0.7,-9 -1.8,-2.2 -4.3,-1.8 -5.7,0.4 -0.7,1.2 1.2,2.3 1.9,1.1 2.9,2.4 3,4.8 0.4,7.2 -1.1,0.6 -2.1,1.2 -3.2,1.8 -4,1 -7.8,-1.9 -8.8,-5.7 -1.4,-5.6 2.5,-11.7 7.8,-13.3 8.8,-2.8 17.7,4.8 18.7,13.3 0,9.9 0,19.8 0,29.7 -1.5,2.4 -4.3,6.1 -4.3,8.9 0,2.6 2.6,5.5 4.4,7.2 0.3,1 1.7,1 2.1,0.1 1.7,-1.9 4.6,-4.3 4.5,-7.1 -0.1,-3.1 -2.9,-6.5 -4.4,-9.2 0,-9.9 0,-19.8 0,-29.7 1.1,-8.5 9.9,-16.1 18.7,-13.3 5.3,1.7 9.3,7.8 7.8,13.3 -0.9,3.4 -3.5,5.6 -7,5.7 -1.9,0.4 -3.6,-0.2 -5,-1.7 -2.6,-2.3 -2.5,-4.7 0.4,-7.2 0.7,1.2 2.6,0.1 1.9,-1.1 -1.3,-2.2 -3.8,-2.7 -5.6,-0.5 -2.1,2.5 -1,6.7 0.6,9.1 4.7,6.7 14.9,4.1 16.8,-3.6 2.3,-8.8 -5.4,-17 -14.2,-16.6 z"
           id="path89"
           inkscape:connector-curvature="0" /><path
           d="m 748.2,497.5 c -0.4,8.7 7.8,16.6 16.6,14.3 7.6,-2 10.4,-12 3.6,-16.8 -2.3,-1.6 -6.5,-2.7 -9,-0.7 -2.2,1.8 -1.8,4.3 0.4,5.7 1.2,0.7 2.3,-1.2 1.1,-1.9 2.4,-2.9 4.8,-3 7.2,-0.4 0.6,1.1 1.2,2.1 1.8,3.2 1,4 -1.9,7.8 -5.7,8.8 -5.6,1.4 -11.7,-2.5 -13.3,-7.8 -2.8,-8.8 4.8,-17.7 13.3,-18.7 9.9,0 19.8,0 29.7,0 2.4,1.5 6.1,4.3 8.9,4.3 2.6,0 5.5,-2.6 7.2,-4.4 1,-0.3 1,-1.7 0.1,-2.1 -1.9,-1.7 -4.3,-4.6 -7.1,-4.5 -3.1,0.1 -6.5,2.9 -9.2,4.4 -9.9,0 -19.8,0 -29.7,0 -8.5,-1.1 -16.1,-9.9 -13.3,-18.7 1.7,-5.3 7.8,-9.3 13.3,-7.8 3.4,0.9 5.6,3.5 5.7,7 0.4,1.9 -0.2,3.6 -1.7,5 -2.3,2.6 -4.7,2.5 -7.2,-0.4 1.2,-0.7 0.1,-2.6 -1.1,-1.9 -2.2,1.3 -2.7,3.8 -0.5,5.6 2.5,2.1 6.7,1 9.1,-0.6 6.7,-4.7 4.1,-14.9 -3.6,-16.8 -8.8,-2.2 -17.1,5.6 -16.6,14.3 0.4,7.2 5.3,13 11.7,15.5 -6.4,2.4 -11.4,8.2 -11.7,15.4 z"
           id="path91"
           inkscape:connector-curvature="0" /><path
           d="m 257.1,466.5 c 0.4,-8.7 -7.8,-16.6 -16.6,-14.3 -7.6,2 -10.4,12 -3.6,16.8 2.3,1.6 6.5,2.7 9,0.7 2.2,-1.8 1.8,-4.3 -0.4,-5.7 -1.2,-0.7 -2.3,1.2 -1.1,1.9 -2.4,2.9 -4.8,3 -7.2,0.4 -0.6,-1.1 -1.2,-2.1 -1.8,-3.2 -1,-4 1.9,-7.8 5.7,-8.8 5.6,-1.4 11.7,2.5 13.3,7.8 2.8,8.8 -4.8,17.7 -13.3,18.7 -9.9,0 -19.8,0 -29.7,0 -2.4,-1.5 -6.1,-4.3 -8.9,-4.3 -2.6,0 -5.5,2.6 -7.2,4.4 -1,0.3 -1,1.7 -0.1,2.1 1.9,1.7 4.3,4.6 7.1,4.5 3.1,-0.1 6.5,-2.9 9.2,-4.4 9.9,0 19.8,0 29.7,0 8.5,1.1 16.1,9.9 13.3,18.7 -1.7,5.3 -7.8,9.3 -13.3,7.8 -3.4,-0.9 -5.6,-3.5 -5.7,-7 -0.4,-1.9 0.2,-3.6 1.7,-5 2.3,-2.6 4.7,-2.5 7.2,0.4 -1.2,0.7 -0.1,2.6 1.1,1.9 2.2,-1.3 2.7,-3.8 0.5,-5.6 -2.5,-2.1 -6.7,-1 -9.1,0.6 -6.7,4.7 -4.1,14.9 3.6,16.8 8.8,2.2 17.1,-5.6 16.6,-14.3 -0.4,-7.2 -5.3,-13 -11.7,-15.5 6.4,-2.4 11.4,-8.2 11.7,-15.4 z"
           id="path93"
           inkscape:connector-curvature="0" /></g></g></switch></svg>