<?xml version="1.0" encoding="UTF-8" standalone="no"?>
<svg
   xmlns:dc="http://purl.org/dc/elements/1.1/"
   xmlns:cc="http://creativecommons.org/ns#"
   xmlns:rdf="http://www.w3.org/1999/02/22-rdf-syntax-ns#"
   xmlns:svg="http://www.w3.org/2000/svg"
   xmlns="http://www.w3.org/2000/svg"
   xmlns:sodipodi="http://sodipodi.sourceforge.net/DTD/sodipodi-0.dtd"
   xmlns:inkscape="http://www.inkscape.org/namespaces/inkscape"
   version="1.1"
   id="Layer_1"
   x="0px"
   y="0px"
   viewBox="0 0 1000 1000"
   width="100%"
   height="100%"
   style="enable-background:new 0 0 1000 1000;"
   xml:space="preserve"
  ><style
     type="text/css"
     id="style3">
	.noFillSVG{fill:none;}
</style><switch
     id="switch5"
     transform="translate(43.144475,27.872753)"><g
       id="g7"><g
         id="g9"><path
           class="noFillSVG"
           d="m 733.6,493.2 c -17.8,0.8 -29.6,16.8 -31.2,33.5 -1.1,11.9 2.4,26.4 12.3,33.7 0.5,0 1.1,0.1 1.7,0.1 3.4,0.2 7.6,-0.1 11.5,-1.4 3.9,-1.2 7,-3.3 7.9,-4.9 1,-1.5 0.7,-2.1 0.8,-2.2 0,-0.1 0.3,-0.3 0.6,-1.1 0.4,-0.8 0.7,-2.4 0.8,-4.6 0,-1.1 -0.1,-2.6 -0.1,-3.4 -0.1,-0.9 0,-1.1 0.1,-1.4 0.1,-0.8 -1.5,-2 -3,-2.1 -1.5,-0.2 -3.2,0.4 -4.7,1.1 0,0.1 0,0.2 0,0.3 -0.1,1.3 -1.7,1.7 -2.4,1 -0.9,0.4 -1.6,0.7 -2.1,0.4 -0.8,-0.3 -1.2,-1.9 -0.5,-4.3 0.7,-2.3 2.6,-5.7 6.8,-7.9 4.1,-1.9 9.8,-2.3 14.9,1.4 2.6,1.9 4.3,4.7 5.2,6.8 0.9,2.2 1.4,3.8 1.9,5.6 1,3.5 1.3,7.2 1,10.1 -0.3,2.9 -1,4.9 -1.1,5.1 -0.1,0.2 -0.5,1.3 -1.7,3 -1.1,1.7 -3,3.8 -5.4,5.5 -4.9,3.6 -11.7,5.2 -17.8,4.8 -5,-0.2 -9.8,-1.6 -13.4,-3.7 3.5,5.6 6,11.9 7.4,17.8 5.6,23.4 -1.4,47.6 -15.8,66.4 -13.2,17.2 -34.4,34.9 -57.1,35.6 0.6,2 1,4 1.4,6.1 29.6,7.7 64.9,-6.7 87.6,-25.2 44.3,-36 56.4,-101 28,-150.7 -6.9,-12.5 -17.7,-26 -33.6,-25.4 z m 36.8,67.3 c 0.1,-6.3 0,-10.6 0.7,-10.7 0.6,-0.1 1.9,4 2.9,10.5 1,6.5 1.4,15.3 0.8,24.1 -0.8,8.8 -2.3,17.7 -4.2,24.2 -0.8,3.3 -1.8,6 -2.5,8 -0.7,2 -1.1,3.2 -1.2,3.4 -0.1,0.2 -0.6,1.3 -1.5,3.2 -0.9,1.9 -2.1,4.5 -3.8,7.5 -3.2,6 -8.3,13.4 -13.8,20.3 -5.7,6.8 -12.1,12.8 -17.4,16.7 -5.2,3.9 -9.1,6 -9.4,5.5 -0.4,-0.6 2.6,-3.6 7,-8.2 4.3,-4.6 9.7,-11.1 14.5,-18 4.6,-7 8.8,-14.3 11.4,-20.2 1.5,-2.9 2.3,-5.4 3.1,-7.2 0.7,-1.8 1.2,-2.9 1.3,-3.1 0.1,-0.2 0.5,-1.3 1.2,-3.1 0.7,-1.8 1.9,-4.3 2.8,-7.3 2.3,-6 4.3,-14.2 5.9,-22.5 1.5,-8.3 2.1,-16.8 2.2,-23.1 z"
           id="path11"
           inkscape:connector-curvature="0"
           style="fill:none" /><path
           class="noFillSVG"
           d="m 182.8,466.4 c 17.8,-0.8 29.6,-16.8 31.2,-33.5 0.5,-4.8 0.1,-9.9 -1,-14.9 -0.9,-1.1 -1.9,-3 -3.5,-5.1 -1.4,-1.8 -2.9,-4 -4.6,-6.2 -1.6,-2.1 -3.4,-3.7 -4.8,-4.1 -2.9,-1.1 -8.3,-0.5 -11.3,0.8 -3.2,1.2 -4.9,2.7 -5.1,2.8 -0.1,0.1 -3.9,1.4 -6.5,4.8 -0.6,0.8 -1.1,1.7 -1.5,2.6 -0.3,0.9 -0.5,1.6 -0.4,2.7 0.1,1 0.4,2.1 1,3 0.5,0.9 1.1,1.5 1.9,2 1.7,1.1 4.5,0.6 6.3,-0.4 0.5,-0.3 1,-0.6 1.4,-0.8 0.1,-0.3 0.1,-0.6 0.2,-0.9 0.1,-1.8 2.9,-1.8 2.8,0 0,0 0,0.1 0,0.1 0.6,0.7 0.9,2.5 -0.3,5.1 -0.7,1.5 -2,3.2 -3.9,4.6 -1.9,1.4 -4.8,2.5 -7.9,2.4 -2.8,-0.1 -6,-1.2 -8.4,-3.1 -2.5,-1.8 -4.4,-4.3 -5.7,-7.1 -0.7,-1.4 -1.1,-2.9 -1.5,-4.5 -0.3,-1.5 -0.4,-3.3 -0.4,-4.7 0.1,-3 0.9,-5.9 1.9,-8.3 2.1,-4.9 5.1,-8.2 7.4,-10.3 2.4,-2.2 4.1,-3.1 4.3,-3.3 0.3,-0.1 4.4,-2.4 10.7,-3.4 3.1,-0.5 6.8,-0.5 10.7,0.1 0.9,0.2 1.9,0.4 2.9,0.6 -2.4,-4.6 -4.2,-9.4 -5.3,-14 -5.6,-23.4 1.4,-47.6 15.8,-66.4 13.2,-17.2 34.4,-34.9 57.1,-35.6 -0.6,-2 -1,-4 -1.4,-6.1 -29.6,-7.7 -64.9,6.7 -87.6,25.2 -44.3,36 -56.4,101 -28,150.7 6.9,12.3 17.7,25.8 33.5,25.2 z m -39.5,-69.2 c -0.6,0.1 -1.9,-3.9 -2.4,-10.3 -0.5,-6.3 0,-15 1.9,-23.4 3.6,-16.9 12,-32.3 12.3,-33 0.5,-0.6 8.8,-15.9 21.3,-28 6.2,-6 13.5,-10.9 19.4,-13.3 5.9,-2.5 10.2,-2.9 10.4,-2.3 0.2,0.7 -3.6,2.3 -8.7,5.6 -5.1,3.2 -11.2,8.5 -16.3,14.6 -10.4,12.3 -17.5,27.4 -17.9,28 -0.3,0.7 -9.1,14.7 -14.1,30.2 -2.6,7.7 -4,15.6 -4.7,21.7 -0.6,6 -0.5,10.1 -1.2,10.2 z"
           id="path13"
           inkscape:connector-curvature="0"
           style="fill:none" /><path
           class="noFillSVG"
           d="m 713,314.8 c 12.4,20 16.3,45.5 7.3,67.6 -1.1,2.7 -2.4,5.4 -3.9,8 4.7,-2.8 9.9,-4.5 14.6,-4.9 3.4,-0.3 6.8,0 9.3,0.7 2.5,0.7 4.1,1.6 4.3,1.7 0.2,0.1 1.8,1.1 3.6,3 1.9,1.9 3.8,4.6 5.1,7.8 1.4,3.2 2.5,7.2 2.4,11.7 0,2.3 -0.3,4.6 -1.1,7 -0.7,2.3 -2,4.8 -3.6,6.7 -3.2,3.9 -7.7,6.4 -12.6,6.7 -4.9,0.3 -9,-2.2 -11.1,-5 -2.1,-2.7 -2.6,-5.7 -2.2,-7.6 0.4,-1.9 1.3,-2.6 1.9,-2.5 0.6,0.1 1.1,1 1.7,1.9 0.7,-0.1 1.5,0.4 1.6,1.3 0,0.1 0,0.3 0.1,0.4 0.5,0.4 1.2,0.8 1.9,1.2 3.2,1.5 6.4,-0.4 7.8,-3.9 1.1,-3 -0.3,-7.3 -2.3,-10 -1,-1.4 -1.8,-2 -2.3,-2.3 -0.5,-0.3 -0.6,-0.2 -0.6,-0.3 0,0 -0.1,-0.2 -0.6,-0.4 -0.4,-0.3 -1.4,-0.7 -3.1,-0.9 -3.3,-0.5 -8.4,0.3 -13.2,2.9 -4.7,2.5 -8.9,7 -11.7,10.7 -1.5,1.9 -2.7,3.6 -3.7,4.7 -1.3,8.8 0,18.2 3.3,25.6 6.6,14.4 23.4,24.1 38.9,17.5 13.4,-5.6 21.7,-20.3 27.4,-32.9 11.8,-26.1 13.7,-56.6 5.6,-84 -7.8,-26.3 -25.2,-48.9 -48,-64 -21.5,-14.2 -52.1,-24.9 -77.9,-18.2 -0.4,2.1 -0.8,4.1 -1.4,6.1 25.6,0.9 49.8,23.1 62.5,43.7 z m -1,-32.1 c 0.4,-0.5 4.2,1.7 9.7,5.4 5.4,3.8 12.5,9.2 19.1,15.4 6.6,6.1 12.6,13.2 16.6,19.1 3.9,5.9 6.1,10.3 6.3,10.7 0.1,0.4 2.2,4.9 4.2,11.7 2,6.8 3.7,15.9 3.8,25.1 0.2,9.1 -1.1,18.1 -2.9,24.6 -1.8,6.5 -3.8,10.5 -4.4,10.3 -0.7,-0.2 0.1,-4.5 0.8,-10.9 0.6,-6.4 0.8,-15 -0.2,-23.5 -0.9,-8.5 -3.2,-16.8 -5.4,-22.8 -2.2,-6.1 -4.3,-10 -4.5,-10.4 -0.2,-0.4 -1.9,-4.4 -5.1,-10.1 -3.3,-5.6 -8.3,-12.6 -14,-19.1 -11.4,-13 -24.9,-24.4 -24,-25.5 z"
           id="path15"
           inkscape:connector-curvature="0"
           style="fill:none" /><path
           d="m 492.2,199.7 c -7.2,6 -14.3,12 -18.6,20.4 -0.8,1.6 1.6,3 2.4,1.4 6.3,-12.4 19.6,-21.6 30.5,-29.8 3.3,-2.5 6.7,-4.8 10.1,-6.9 0,0 0,0 0,0 0.4,1.3 2.6,1.8 5.3,2.7 2.7,0.9 6,2.2 8.8,4.1 5.7,3.5 9.2,9.1 9.5,9.3 0.1,0.1 1.5,1.1 3.4,2.9 2,1.8 4.3,4.3 6.9,7.6 2.6,3.3 5.9,7 9.2,8.9 3.3,2 6.1,1.9 6.6,0.8 0.6,-1.2 -0.4,-3.1 -1.2,-5.7 -0.9,-2.6 -1.7,-6.1 -2.8,-10.1 -1.1,-4.1 -3.1,-8.8 -4.9,-11.9 -1.9,-3.3 -3.6,-5.3 -3.8,-5.5 -0.2,-0.1 -2.2,-1.9 -5.5,-4 -3.3,-2 -8.2,-4.2 -13.3,-4.9 -2.4,-0.4 -4.8,-0.4 -7,-0.2 4.3,-2 8.8,-3.6 13.4,-4.9 17.4,-4.7 36.3,-4.2 53.3,1.7 -0.8,0.8 -1.1,2.5 -0.6,4.7 0.5,2.5 1.9,5.3 2.2,7.3 0.3,1.9 0,3.4 -0.1,4.9 -0.2,1.5 -0.3,2.7 -0.3,2.8 0,0.1 0.4,1.3 1,3.2 0.6,2 1.4,4.7 2.4,7.4 2,5.4 4.7,10.6 7.2,10.5 2.6,-0.1 4.6,-5.7 6,-11.2 0.7,-2.8 1.2,-5.5 1.6,-7.7 0.3,-2.2 0.4,-4 0.4,-4.2 0,-0.2 -0.4,-1.8 -1.5,-4.4 -0.5,-1.3 -1.2,-2.8 -2.2,-4.4 -0.4,-0.7 -0.9,-1.3 -1.4,-2 1.9,1.1 3.7,2.2 5.4,3.5 20,14.2 33.7,37.7 35,62.3 0.3,5 0.1,10.1 -0.7,15.2 -0.2,0.3 -0.2,0.6 -0.1,1 -0.4,2.3 -1,4.6 -1.6,6.9 -1,0.3 -1.3,1.6 -0.7,2.3 -0.7,2 -1.4,3.9 -2.3,5.7 -0.5,0.2 -0.7,0.8 -0.7,1.3 -1.4,2.8 -3.1,5.4 -5.1,7.9 -9,10.8 -23.7,16.4 -37.3,11.4 -8.7,-3.2 -17.1,-9.9 -22,-18.3 -0.2,-0.7 -0.5,-1.5 -0.7,-2.3 -0.9,-3.2 -1.5,-7.4 -0.9,-11 0.6,-3.6 2.3,-6.7 4,-8.6 1.7,-2 3,-2.9 3.1,-3 0.1,-0.1 1,-1.5 2.8,-3.1 0.3,-0.3 0.7,-0.6 1,-0.9 0.2,-0.2 0.5,-0.4 1.1,-0.6 1.3,-0.4 3.5,-0.5 5.3,-0.4 3.9,0.2 8,1.4 11.2,2.8 3.1,1.3 5.5,2.6 6.5,1.9 1,-0.7 0.7,-3.6 -1.6,-7.3 -2.3,-3.6 -6.8,-7.8 -12.5,-10.2 -2.9,-1.2 -5.8,-2.1 -9.2,-2.4 -1.7,-0.1 -3.7,0 -5.6,0.4 -1.8,0.4 -3.3,1 -4.6,1.5 -4.9,2.2 -7.6,4.9 -7.8,5 -0.2,0.2 -2.7,3 -4.9,7.7 -1,2.4 -1.9,5.2 -2.4,8.3 -0.4,3.1 -0.4,6.5 0.3,9.6 1.2,6.4 4.8,11.6 8.2,14.4 2.7,2.3 5.2,3.1 6.4,2.8 5.7,8 14.5,14.2 23.5,16.9 13.2,4 27.3,-1.3 36.5,-11.2 2.9,-3.1 5.2,-6.4 7.1,-10 14.4,0.9 31.5,12.9 39.9,23.9 4.7,6.1 8.1,13.7 7.8,21.6 -0.2,4.4 -1.3,9.4 -4.8,12.4 -1.8,1.5 -4.7,2.7 -7.1,2.7 -2.9,0.2 -4.8,-1 -5.8,-3.5 -3.4,-3.2 -1.9,-5.9 4.5,-8.1 1.4,1.1 3.3,-0.9 1.9,-1.9 -7.9,-6.2 -13.8,5.2 -9.2,11.9 6.2,9 18.5,2.9 21.7,-5.3 4.9,-12.4 -1.9,-26.6 -10.5,-35.6 -9.1,-9.5 -23.5,-19.3 -37.2,-20.7 0.8,-1.7 1.5,-3.5 2.1,-5.3 22.3,0.4 43.2,18.1 56,35.1 13.1,17.4 19.9,39.6 15.4,61.3 -2.2,10.5 -7,21.2 -14.9,28.7 -10.6,10 -26,8.4 -35.4,-2.4 -0.7,-0.8 -1.4,-1.7 -2,-2.6 0.8,0.2 1.4,0.1 1.7,-0.3 1,-0.9 0.2,-3.3 -0.3,-6.5 -0.6,-3.1 -0.7,-7 0.4,-9.8 1.1,-2.8 3.3,-4.7 4.6,-5.1 0.7,-0.2 1.1,-0.2 1.5,-0.2 0.4,0 0.7,0 0.7,0 0.1,0 1.1,-0.7 3.9,-0.9 0.7,0 1.4,-0.1 2.1,0 0.6,0 1.6,0.2 1.7,0.1 0.6,-0.1 1.6,0.1 2.3,0.8 0.6,0.6 0.9,1.5 0.9,2.5 0,0.5 0,1 -0.2,1.6 -0.2,0.7 -0.5,1.4 -0.7,2 -1.1,2.6 -2,4.6 -1.2,5.6 0.7,0.9 2.9,0.7 6,-0.9 0.8,-0.4 1.6,-0.9 2.4,-1.6 0.9,-0.7 1.9,-1.8 2.7,-3 1.7,-2.4 2.8,-5.6 2.4,-9 -0.4,-4.1 -3,-8.1 -6.7,-10.6 -2.1,-1.4 -3.4,-2.1 -5,-2.8 -1.5,-0.7 -3.1,-1.1 -4.4,-1.4 -5.4,-1.4 -10.3,-0.7 -10.6,-0.6 -0.2,0 -1.2,0.3 -2.9,1.1 -1.6,0.7 -4,2.1 -6.1,4.1 -4.3,4 -7.3,10.7 -6.9,17.3 0.3,6.7 3.5,11.8 6.5,14.6 0.2,0.2 0.4,0.4 0.7,0.6 1.9,4.2 4.7,7.9 8.1,10.6 7.4,5.9 17.3,8.4 26.3,4.9 1.3,-0.5 2.6,-1.2 3.8,-1.9 -1.5,2.9 -2.5,5.8 -3,8.3 -1,4.7 -0.7,8 0.2,9 -0.1,0.6 -0.2,1.2 -0.2,1.8 -1.3,16.3 5.5,33.8 20.7,41.3 36.3,18 58.2,-34 63.2,-61.2 6.5,-35.5 -2.6,-72.9 -26.1,-100.5 -12.7,-14.9 -29,-26.6 -47.1,-34.2 -17.5,-7.3 -39,-12.1 -57.9,-7.6 0.6,-5.2 0.7,-10.6 0.2,-15.9 0.1,0.2 0.2,0.4 0.3,0.7 0.6,1.4 1.3,2.7 1.9,3.8 1.3,2.1 2.5,3.5 2.6,3.6 0.1,0.1 1.6,1.1 3.9,2.1 2.3,1 5.4,2 8.5,2.3 3.1,0.3 6.2,0 8.4,-0.9 2.2,-0.8 3.5,-2.1 3.5,-3.4 0,-1.3 -1.1,-2.5 -2.5,-3.9 -1.4,-1.3 -3.1,-2.8 -4.5,-4.2 -1.4,-1.5 -2.6,-3 -3.5,-4.1 -0.8,-1.1 -1.3,-1.9 -1.3,-2 0,-0.1 -0.9,-0.4 -2.1,-1 -0.6,-0.3 -1.3,-0.7 -2,-1.2 -0.8,-0.5 -1.5,-0.9 -2.5,-1.8 -1.9,-1.7 -4.6,-4.2 -7.6,-5 -1.5,-0.4 -2.8,-0.3 -3.7,0.1 -0.9,0.4 -1.2,1.1 -1.3,1.7 0,1.3 0.7,2.6 0.6,4 -2.1,-9.9 -5.8,-19.3 -10.6,-27.3 -1.2,-2.1 -2.6,-4 -4,-6 1.9,1.5 4.2,3.1 6.6,4 3.2,1.2 5.5,1.6 5.7,1.6 0.2,0 2.6,-0.1 5.7,-0.9 3.1,-0.8 6.8,-2.5 9.8,-4.8 3.1,-2.2 5.5,-5 6.8,-7.4 1.3,-2.4 1.6,-4.4 0.7,-5.4 -1.8,-1.9 -7.6,0.3 -12.9,0.6 -2.6,0.2 -5,0.1 -6.6,-0.2 -1.6,-0.3 -2.5,-0.6 -2.6,-0.6 -0.1,0 -1,0.2 -2.5,0.4 -1.3,0.2 -3.7,-0.1 -6.9,-0.9 -3.2,-0.7 -7.2,-1.4 -10.4,-0.7 -2.1,0.5 -3.5,1.4 -4,2.4 -16,-15 -37.3,-23.6 -59.8,-23.7 -17.5,-0.1 -34.8,4.6 -49.8,13.7 -8.1,4.8 -15.9,11.2 -23.7,17.7 z m 159.7,65.4 c 25.9,-6.7 56.4,4 77.9,18.2 22.8,15.1 40.3,37.7 48,64 8.1,27.4 6.2,57.9 -5.6,84 -5.7,12.7 -14,27.3 -27.4,32.9 -15.5,6.5 -32.3,-3.1 -38.9,-17.5 -3.4,-7.4 -4.7,-16.8 -3.3,-25.6 1,-1.2 2.2,-2.8 3.7,-4.7 2.9,-3.7 7,-8.1 11.7,-10.7 4.7,-2.7 9.9,-3.4 13.2,-2.9 1.7,0.2 2.7,0.6 3.1,0.9 0.5,0.3 0.5,0.4 0.6,0.4 0,0 0.2,0 0.6,0.3 0.5,0.2 1.3,0.9 2.3,2.3 2,2.7 3.4,7 2.3,10 -1.4,3.5 -4.6,5.4 -7.8,3.9 -0.7,-0.3 -1.3,-0.7 -1.9,-1.2 0,-0.1 0,-0.3 -0.1,-0.4 -0.1,-0.9 -0.9,-1.4 -1.6,-1.3 -0.7,-0.9 -1.1,-1.8 -1.7,-1.9 -0.6,-0.1 -1.5,0.6 -1.9,2.5 -0.4,1.9 0.1,4.9 2.2,7.6 2,2.8 6.2,5.3 11.1,5 4.9,-0.3 9.5,-2.9 12.6,-6.7 1.6,-1.9 2.8,-4.4 3.6,-6.7 0.8,-2.3 1,-4.7 1.1,-7 0,-4.5 -1.1,-8.5 -2.4,-11.7 -1.4,-3.2 -3.3,-6 -5.1,-7.8 -1.8,-1.9 -3.4,-2.8 -3.6,-3 -0.2,-0.1 -1.8,-1 -4.3,-1.7 -2.5,-0.7 -5.8,-1.1 -9.3,-0.7 -4.7,0.3 -9.9,2.1 -14.6,4.9 1.5,-2.6 2.8,-5.3 3.9,-8 9,-22.1 5.1,-47.6 -7.3,-67.6 -12.7,-20.6 -36.9,-42.7 -62.5,-43.6 0.6,-2.1 1.1,-4.1 1.4,-6.2 z"
           id="path17"
           inkscape:connector-curvature="0" /><path
           d="m 601.1,278 c -1.9,0.5 -3.4,1.1 -4,2.3 -0.6,1.2 0,2.8 1.4,4.6 1.4,1.7 3.7,3.4 6,4.8 2.3,1.4 4.5,2.5 6.1,3.3 1.6,0.8 2.6,1.3 2.7,1.3 0.2,0.1 4.3,-0.1 8.2,0 2,0.1 4,0.3 5.7,0.4 1.8,0.2 3.4,0.3 4.5,-0.4 1,-0.7 1.4,-2.5 0.6,-4.8 -0.7,-2.3 -2.5,-4.9 -4.7,-7 -2.2,-2.1 -4.7,-3.7 -6.6,-4.8 -1.9,-1.1 -3.3,-1.6 -3.4,-1.7 -0.3,-0.1 -5.7,-0.1 -10.2,0.6 -2.2,0.5 -4.4,0.9 -6.3,1.4 z"
           id="path19"
           inkscape:connector-curvature="0" /><path
           d="m 147.2,443.4 c 8,13.7 20.4,27.6 37.8,25.6 23.4,-2.6 36.2,-30.3 31.2,-52 0,0 0,-0.1 0,-0.1 0.4,-1.6 0.4,-3.9 0,-6.5 -0.2,-1.3 -0.5,-2.7 -0.9,-4 0,-0.2 -0.1,-0.3 -0.1,-0.5 6.3,3.4 13.8,4.2 22,0.5 6,-2.7 11.3,-8.2 14.5,-14.5 1.1,-0.5 2.4,-1.4 3.6,-2.8 2.9,-3.1 5.6,-8.9 5.2,-15.5 -0.3,-6.7 -3.9,-12.9 -7.9,-16.5 -3.9,-3.7 -7.9,-5 -8.2,-5.1 -0.3,-0.1 -5.8,-1.7 -12.5,0.3 -6.6,1.8 -14,7.4 -15.7,16 -0.6,3.1 0,6.1 1.1,8.3 1.1,2.2 2.6,3.8 4.1,4.8 1.7,1.1 3.2,1.5 4.3,1.3 0.6,0.3 1.2,0.6 1.9,0.9 1.7,0.5 2.4,-2.1 0.7,-2.7 -0.5,-0.2 -0.9,-0.3 -1.3,-0.5 -0.2,-0.8 -0.7,-1.8 -0.9,-3 -0.5,-2 -0.2,-4.6 1.1,-5.7 0.8,-0.7 2.3,-1.9 3.7,-2.3 1.5,-0.5 3,-0.7 4.2,-0.6 2.6,0.2 3.7,1.1 3.8,1.1 0.1,0.1 1.2,0 3,0.8 1.8,0.8 4.2,2.7 5.5,5.4 1.5,2.7 1.7,6.6 1.3,9.7 -0.3,3.1 -1.1,5.5 -0.2,6.4 0,0 0.1,0 0.1,0.1 -0.9,1.7 -2,3.3 -3.2,4.6 -8.4,9.6 -21.3,11.8 -31.5,5.4 0,-0.1 0,-0.1 0,-0.1 -1.1,-3.1 -2.8,-7 -6.6,-10.2 -1.7,-1.4 -3.6,-2.5 -5.4,-3.2 -3.2,-5.7 -5.4,-11.9 -6.7,-18.1 -4.5,-21.7 2.2,-43.9 15.4,-61.3 12.8,-17 33.9,-34.8 56.2,-35.1 0.6,1.8 1.3,3.6 2.1,5.3 -13.3,1.3 -27.5,10.7 -36.6,19.9 -9,9 -16.3,23.6 -11.3,36.4 3.2,8.2 15.2,14.3 21.6,5.5 4.8,-6.7 -1.1,-18.3 -9.1,-12.1 -1.4,1.1 0.6,3 1.9,1.9 0.1,-0.1 12.2,7.8 0.7,11 -2.9,0.8 -4.6,0.4 -7.2,-1 -4.6,-2.5 -6.5,-7.5 -6.8,-12.5 -0.5,-8.2 2.9,-16.2 7.8,-22.6 8.5,-11.1 25.6,-23.1 40.1,-23.9 0.1,0.2 0.2,0.4 0.3,0.6 6.7,12.5 19.7,22.2 34.3,22 13.2,-0.2 26.2,-9 33.3,-19.8 0.5,-0.8 1,-1.6 1.4,-2.4 1.2,0.1 3.3,-1.2 5.3,-4 2.4,-3.3 4.4,-8.7 4.2,-14.6 0,-5.9 -2.5,-12 -5.3,-15.9 -2.8,-3.9 -5.5,-5.9 -5.7,-6.1 -0.2,-0.1 -3.1,-2 -7.7,-3.2 -2.3,-0.6 -5,-1.1 -8,-1 -3,0 -6.2,0.6 -9,1.7 -5.7,2.2 -10.2,6.6 -11.8,10.8 -1.6,4.2 -0.5,7.1 0.7,7.3 1.3,0.2 2.8,-1.7 5.2,-3 2.3,-1.4 5.7,-2.3 8.9,-2.2 1.6,0.1 3,0.4 4.3,0.9 1.4,0.5 2.5,1.1 3.5,1.7 1.9,1.2 3,2.4 3.1,2.5 0.1,0.1 1.5,0.7 3.4,2 1.8,1.4 3.9,3.6 5.3,6.7 1.4,3.1 2,6.9 2,10 0,1.2 0,2.2 0.1,3.1 -2.8,5.7 -7.2,10.8 -12.3,14.6 -12.3,9.3 -27.4,10.8 -40.4,1.8 -5.6,-3.9 -9.8,-9.1 -12.8,-15 0,-0.4 -0.2,-0.8 -0.6,-1.1 -0.9,-1.9 -1.7,-3.8 -2.4,-5.9 0.6,-0.7 0.3,-1.9 -0.7,-2.2 -0.7,-2.3 -1.3,-4.7 -1.7,-7.1 0,-0.3 0,-0.5 -0.2,-0.8 -0.3,-1.9 -0.5,-3.8 -0.7,-5.6 -1.7,-24.2 8.8,-48.4 26.5,-64.9 4.2,-4 8.9,-7.4 13.8,-10.3 -0.5,0.6 -0.9,1.2 -1.3,1.8 -1,1.6 -1.7,3.1 -2.2,4.4 -1,2.6 -1.4,4.3 -1.5,4.4 0,0.1 0.1,1.9 0.4,4.2 0.3,2.2 0.9,4.9 1.6,7.7 1.4,5.5 3.4,11.1 6,11.2 2.6,0.1 5.2,-5.1 7.2,-10.5 1,-2.7 1.8,-5.4 2.4,-7.4 0.6,-1.8 1,-3 1,-3.2 0,-0.1 -0.1,-1.3 -0.3,-2.8 -0.1,-1.6 -0.4,-3.1 -0.1,-4.9 0.4,-2 1.7,-4.8 2.2,-7.3 0.5,-2.1 0.2,-3.8 -0.5,-4.6 13.8,-4.8 28.9,-6.1 43.5,-3.8 8.1,1.3 15.8,3.7 23.1,7 -2.2,-0.2 -4.5,-0.1 -6.9,0.2 -5,0.7 -9.9,2.8 -13.3,4.9 -3.4,2 -5.4,3.8 -5.5,4 -0.1,0.2 -1.9,2.3 -3.8,5.5 -1.9,3.2 -3.9,7.9 -4.9,11.9 -1.1,4.1 -1.9,7.5 -2.8,10.1 -0.8,2.6 -1.8,4.5 -1.2,5.7 0.6,1.1 3.3,1.2 6.6,-0.8 3.3,-1.9 6.6,-5.7 9.2,-8.9 2.6,-3.3 4.9,-5.7 6.9,-7.6 2,-1.8 3.3,-2.8 3.4,-2.9 0.2,-0.2 3.8,-5.8 9.5,-9.3 2.8,-1.8 6.1,-3.2 8.8,-4.1 2.7,-0.9 4.9,-1.5 5.3,-2.7 0,0 0,0 0,-0.1 1.7,1.1 3.4,2.2 5.1,3.3 12.4,8.6 28.5,19.6 35.5,33.4 0.8,1.6 3.2,0.2 2.4,-1.4 -3.6,-7 -9,-12.3 -14.9,-17.4 -7,-5.9 -14,-11.8 -21.6,-17.1 -12.9,-8.9 -27.2,-14.8 -42.7,-16.9 -26.7,-3.5 -53.8,4.6 -73.1,22.9 -0.6,-0.9 -1.9,-1.9 -4,-2.4 -3.2,-0.8 -7.2,0 -10.4,0.7 -3.3,0.7 -5.7,1.1 -6.9,0.9 -1.5,-0.2 -2.4,-0.4 -2.5,-0.4 -0.1,0 -1,0.4 -2.6,0.6 -1.6,0.3 -4,0.4 -6.6,0.2 -5.3,-0.3 -11.1,-2.5 -12.9,-0.6 -0.9,0.9 -0.6,2.9 0.7,5.4 1.3,2.4 3.7,5.2 6.8,7.4 3,2.3 6.7,4 9.8,4.8 3.1,0.9 5.5,0.9 5.7,0.9 0.2,0 2.5,-0.4 5.7,-1.6 2.4,-0.9 4.7,-2.4 6.6,-4 -6.9,9.6 -12.1,20.9 -14.6,32.8 0.1,-1.2 0.6,-2.3 0.6,-3.5 0,-0.6 -0.4,-1.3 -1.3,-1.7 -0.9,-0.4 -2.2,-0.5 -3.7,-0.1 -3,0.8 -5.6,3.3 -7.6,5 -1,0.9 -1.7,1.3 -2.5,1.8 -0.7,0.5 -1.5,0.9 -2,1.2 -1.2,0.6 -2.1,1 -2.1,1 -0.1,0 -0.5,0.8 -1.3,2 -0.8,1.1 -2,2.6 -3.5,4.1 -1.4,1.5 -3.1,2.9 -4.5,4.2 -1.4,1.3 -2.6,2.5 -2.5,3.9 0,1.3 1.3,2.6 3.5,3.4 2.2,0.9 5.3,1.2 8.4,0.9 3.1,-0.3 6.2,-1.3 8.5,-2.3 2.3,-1 3.7,-2 3.9,-2.1 0.1,-0.1 1.3,-1.4 2.6,-3.6 0.6,-1.1 1.3,-2.4 1.9,-3.8 0.1,-0.2 0.1,-0.3 0.2,-0.5 -0.5,5.3 -0.4,10.5 0.3,15.7 -16.7,-3.9 -35.4,-0.5 -51.3,5.1 -16.2,5.7 -31.3,14.8 -43.9,26.5 -26.9,24.9 -40.5,60.9 -37.7,97.4 2,18.4 7.4,36.5 16.6,52.4 z m 29.9,-153.1 c 22.8,-18.5 58,-32.9 87.6,-25.2 0.4,2 0.8,4.1 1.4,6.1 -22.7,0.7 -43.9,18.4 -57.1,35.6 -14.4,18.8 -21.5,43 -15.8,66.4 1.1,4.6 2.9,9.4 5.3,14 -1,-0.3 -2,-0.5 -2.9,-0.6 -3.8,-0.6 -7.5,-0.6 -10.7,-0.1 -6.3,0.9 -10.4,3.2 -10.7,3.4 -0.2,0.1 -1.9,1.1 -4.3,3.3 -2.4,2.1 -5.3,5.5 -7.4,10.3 -1,2.4 -1.8,5.3 -1.9,8.3 -0.1,1.5 0,3.2 0.4,4.7 0.3,1.6 0.8,3.1 1.5,4.5 1.3,2.8 3.2,5.2 5.7,7.1 2.4,1.9 5.6,3 8.4,3.1 3.1,0.1 6,-1 7.9,-2.4 2,-1.4 3.2,-3.1 3.9,-4.6 1.2,-2.6 0.9,-4.4 0.3,-5.1 0,0 0,-0.1 0,-0.1 0.1,-1.8 -2.7,-1.8 -2.8,0 0,0.3 -0.1,0.6 -0.2,0.9 -0.4,0.3 -0.9,0.6 -1.4,0.8 -1.8,1 -4.6,1.5 -6.3,0.4 -0.8,-0.5 -1.4,-1.1 -1.9,-2 -0.5,-0.8 -0.9,-2 -1,-3 -0.1,-1.1 0.1,-1.9 0.4,-2.7 0.4,-0.9 0.8,-1.8 1.5,-2.6 2.6,-3.3 6.4,-4.7 6.5,-4.8 0.2,-0.1 1.9,-1.5 5.1,-2.8 3,-1.2 8.4,-1.9 11.3,-0.8 1.4,0.4 3.2,2 4.8,4.1 1.7,2.3 3.3,4.4 4.6,6.2 1.6,2.1 2.7,3.9 3.5,5.1 1.1,5 1.5,10.1 1,14.9 -1.6,16.6 -13.3,32.7 -31.2,33.5 -15.8,0.7 -26.7,-12.9 -33.8,-25.3 -28.1,-49.6 -16.1,-114.6 28.3,-150.6 z"
           id="path21"
           inkscape:connector-curvature="0" /><path
           d="m 288.7,282.6 c -2.2,2.1 -4,4.7 -4.7,7 -0.7,2.3 -0.4,4.1 0.6,4.8 1.1,0.8 2.7,0.6 4.5,0.4 1.8,-0.2 3.8,-0.4 5.7,-0.4 3.9,-0.1 8.1,0.1 8.2,0 0.1,0 1.1,-0.5 2.7,-1.3 1.6,-0.8 3.8,-2 6.1,-3.3 2.3,-1.4 4.6,-3.1 6,-4.8 1.4,-1.7 2,-3.4 1.4,-4.6 -0.6,-1.2 -2.1,-1.8 -4,-2.3 -1.9,-0.5 -4.1,-0.9 -6.4,-1.3 -4.6,-0.8 -9.9,-0.7 -10.2,-0.6 -0.1,0 -1.5,0.6 -3.4,1.7 -1.8,1 -4.3,2.6 -6.5,4.7 z"
           id="path23"
           inkscape:connector-curvature="0" /><path
           d="m 442.8,739.5 c 0.8,-1.6 -1.6,-3 -2.4,-1.4 -6.3,12.4 -19.6,21.6 -30.5,29.8 -3.3,2.5 -6.7,4.8 -10.1,6.9 0,0 0,0 0,0 -0.4,-1.3 -2.6,-1.8 -5.3,-2.7 -2.7,-0.9 -6,-2.2 -8.8,-4.1 -5.7,-3.5 -9.2,-9.1 -9.5,-9.3 -0.1,-0.1 -1.5,-1.1 -3.4,-2.9 -2,-1.8 -4.3,-4.3 -6.9,-7.6 -2.6,-3.3 -5.9,-7 -9.2,-8.9 -3.3,-2 -6.1,-1.9 -6.6,-0.8 -0.6,1.2 0.4,3.1 1.2,5.7 0.9,2.6 1.7,6.1 2.8,10.1 1.1,4.1 3.1,8.8 4.9,11.9 1.9,3.3 3.6,5.3 3.8,5.5 0.2,0.1 2.2,1.9 5.5,4 3.3,2 8.2,4.2 13.3,4.9 2.4,0.4 4.8,0.4 7,0.2 -4.3,2 -8.8,3.6 -13.4,4.9 -17.4,4.7 -36.3,4.2 -53.3,-1.7 0.8,-0.8 1.1,-2.5 0.6,-4.7 -0.5,-2.5 -1.9,-5.3 -2.2,-7.3 -0.3,-1.9 0,-3.4 0.1,-4.9 0.2,-1.5 0.3,-2.7 0.3,-2.8 0,-0.1 -0.4,-1.3 -1,-3.2 -0.6,-2 -1.4,-4.7 -2.4,-7.4 -2,-5.4 -4.7,-10.6 -7.2,-10.5 -2.6,0.1 -4.6,5.7 -6,11.2 -0.7,2.8 -1.2,5.5 -1.6,7.7 -0.3,2.2 -0.4,4 -0.4,4.2 0,0.2 0.4,1.8 1.5,4.4 0.5,1.3 1.2,2.8 2.2,4.4 0.4,0.7 0.9,1.3 1.4,2 -1.9,-1.1 -3.7,-2.2 -5.4,-3.5 -20,-14.2 -33.7,-37.7 -35,-62.3 -0.3,-5 -0.1,-10.1 0.7,-15.2 0.2,-0.3 0.2,-0.6 0.1,-1 0.4,-2.3 1,-4.6 1.6,-6.9 1.1,-0.3 1.3,-1.6 0.7,-2.3 0.7,-2 1.4,-3.9 2.3,-5.7 0.5,-0.2 0.7,-0.8 0.7,-1.3 1.4,-2.8 3.1,-5.4 5.1,-7.9 9,-10.8 23.7,-16.4 37.3,-11.4 13.9,5.2 27.1,19.2 26,34.8 -0.6,7.9 -5,16 -12.6,19 -7.7,2.9 -16.6,0.4 -20.9,-6.7 -0.9,-1.5 -3.3,-0.1 -2.4,1.4 5.6,9.4 18.4,12.1 27.7,6.3 9.8,-6.1 12.9,-19.2 10,-29.8 -3.7,-13.2 -16.1,-24.4 -29.1,-28.3 -13.2,-4 -27.3,1.3 -36.5,11.2 -2.9,3.1 -5.2,6.4 -7.1,10 -14.4,-0.9 -31.5,-12.9 -39.9,-23.9 -0.4,-0.5 -0.7,-1 -1.1,-1.5 1.4,-2.2 0.1,-9.1 0.4,-15.7 0,-3.6 0.9,-6.2 1.7,-6.8 0.7,-0.6 1.2,-0.5 1.2,-0.6 0,0 0.1,-0.6 0.7,-1.3 0.3,-0.7 2,-1.5 3.8,-1.2 l 0.3,0.1 c 0,0.4 -0.1,0.8 -0.2,1.2 0,0 0,0.1 -0.1,0.1 -0.4,0.2 -0.8,0.4 -1.3,0.5 -1.4,-1.1 -3.3,0.9 -1.9,1.9 0.4,0.4 0.9,0.6 1.3,0.9 0.2,0.6 0.8,1.5 1.9,2 1.2,0.6 3.2,0.7 5.1,-0.2 2,-0.9 3.9,-3.2 5,-4.9 0.3,-0.5 0.6,-0.7 1,-1.6 0.2,-0.5 0.4,-1.1 0.6,-1.9 0.1,-0.8 0.1,-1.9 -0.1,-2.8 -0.5,-1.9 -1.3,-3.1 -2,-3.9 -0.7,-0.9 -1.1,-1.3 -1.7,-1.9 -4.6,-4.6 -11.8,-6 -17.3,-4.6 -5.3,1.3 -8.1,4.2 -8.4,4.4 -0.1,0.1 -0.8,0.9 -1.7,2.3 -0.9,1.4 -2.1,3.6 -2.6,6.1 -0.6,2.6 -0.7,5.4 -0.3,8 0.4,2.6 1.2,5 2.1,7.1 1.8,4.2 4.2,8 6.5,10.4 0.9,1 1.9,1.8 2.7,2.3 1.7,2.7 3.7,5.3 5.9,7.5 9.1,9.5 23.5,19.3 37.2,20.7 -0.8,1.7 -1.5,3.5 -2.1,5.3 -22.3,-0.4 -43.2,-18.1 -56,-35.1 -13.1,-17.4 -19.9,-39.6 -15.4,-61.3 2.2,-10.5 7,-21.2 14.9,-28.7 10.6,-10 26,-8.4 35.4,2.4 2.7,3.1 4.7,7.2 5.8,11.4 -0.6,1 -0.8,2.8 -1.3,5 -0.6,2.9 -1.8,6.5 -3.6,8.7 -0.9,1.1 -1.9,1.7 -2.7,2.1 -0.8,0.3 -1.7,0.5 -2.7,0.6 -1.9,0.2 -3.3,0 -3.3,0 -0.1,0 -1.3,0.4 -3,0.5 -0.8,0 -1.7,0 -2.6,-0.2 -0.9,-0.3 -2,-0.8 -2.8,-1.5 -0.8,-0.7 -1.5,-1.6 -1.9,-2.6 -0.4,-1.1 -0.4,-2.4 -0.2,-3.5 0.2,-1.9 1.2,-3.4 1.4,-4.6 1.2,-0.8 0.5,-3 -1.1,-2.5 -0.5,0.2 -1,0.4 -1.4,0.7 -1.3,0.1 -3,0.6 -4.7,2 -1.8,1.4 -3.5,3.7 -4.4,6.7 -0.9,3.1 -0.7,6.7 0.4,9.8 1.1,3.2 3.1,6 5.5,8.2 2.5,2.2 5.2,3.6 7.6,4.4 4.9,1.6 8.4,1.4 8.7,1.4 0.3,-0.1 3.7,-0.4 8.1,-2.6 2.2,-1.1 4.8,-2.8 7,-5.3 2.2,-2.4 3.7,-5.5 4.5,-8.5 1.5,-6 0.2,-11.5 -1.5,-14.9 -1.1,-2.3 -2.4,-3.7 -3.5,-4.3 -1.6,-6.3 -5.1,-12.4 -10.1,-16.4 -7.4,-5.9 -17.3,-8.4 -26.3,-4.9 -10.4,4.1 -17.3,14.8 -21.4,24.7 -9,22.1 -5.1,47.6 7.3,67.6 12.7,20.6 36.9,42.7 62.5,43.6 -0.6,2 -1,4 -1.4,6.1 -25.9,6.7 -56.4,-4 -77.9,-18.2 -22.8,-15.1 -40.3,-37.7 -48,-64 -8.1,-27.4 -6.2,-57.9 5.6,-84 5.7,-12.7 14,-27.3 27.4,-32.9 15.5,-6.5 32.3,3.1 38.9,17.5 7.3,15.8 5,40.8 -12.1,49.6 -3.6,1.8 -7.5,2.5 -11.2,2.2 -0.6,-1 -2,-2.1 -3.6,-3.5 -2.1,-1.9 -4.5,-4.3 -6.1,-7 -1.6,-2.7 -2.3,-5.5 -2.5,-7.4 -0.1,-1.9 0.3,-2.5 0.2,-2.6 0,0 -0.2,-0.5 -0.4,-0.9 -0.2,-0.2 -0.6,-0.7 -0.3,-1.5 0.1,-0.1 0.1,-0.3 0.2,-0.4 0.2,-0.1 0.1,-0.3 0.6,-0.4 0.7,-0.3 2,-0.6 3,-0.8 2.1,-0.5 3.3,-0.9 4.5,-0.8 1.3,0.1 2.5,0.7 3.2,1.4 0.2,1.2 1.6,1.5 2.3,0.8 0.7,-0.4 1.4,-1.3 1.7,-2.8 0.3,-1.9 -0.3,-4.6 -2.6,-6.9 -1.1,-1.1 -2.7,-2.1 -4.2,-2.7 -1.6,-0.7 -3.2,-1.1 -4.6,-1.4 -1.4,-0.3 -2.7,-0.6 -4.4,-0.7 -0.8,-0.1 -2.1,0 -3.1,0.1 -1.1,0.1 -2.2,0.4 -3.2,0.7 -5.3,1.8 -8.8,6.5 -10.2,10.1 -1.4,3.6 -1.3,5.9 -1.4,6.1 0,0.3 0.2,4.1 2.2,8.2 1.8,4 5.4,8.5 9.7,11.4 4.3,3 9.3,4.3 13,4.3 1.8,0 3.2,-0.3 4.3,-0.7 1.3,0.2 2.6,0.3 3.9,0.3 16.8,-0.7 26.1,-17.2 27.4,-32.3 1.3,-16.3 -5.5,-33.8 -20.7,-41.3 -36.3,-18 -58.2,34 -63.2,61.2 -6.5,35.5 2.6,72.9 26.1,100.5 12.7,14.9 29,26.6 47.1,34.2 17.5,7.3 39,12.1 57.9,7.6 -0.6,5.2 -0.7,10.6 -0.2,15.9 -0.1,-0.2 -0.2,-0.4 -0.3,-0.7 -0.6,-1.4 -1.3,-2.7 -1.9,-3.8 -1.3,-2.1 -2.5,-3.5 -2.6,-3.6 -0.1,-0.1 -1.6,-1.1 -3.9,-2.1 -2.3,-1 -5.4,-2 -8.5,-2.3 -3.1,-0.3 -6.2,0 -8.4,0.9 -2.2,0.8 -3.5,2.1 -3.5,3.4 0,1.3 1.1,2.5 2.5,3.9 1.4,1.3 3.1,2.8 4.5,4.2 1.4,1.5 2.6,3 3.5,4.1 0.8,1.1 1.3,1.9 1.3,2 0,0.1 0.9,0.4 2.1,1 0.6,0.3 1.3,0.7 2,1.2 0.8,0.5 1.5,0.9 2.5,1.8 1.9,1.7 4.6,4.2 7.6,5 1.5,0.4 2.8,0.3 3.7,-0.1 0.9,-0.4 1.2,-1.1 1.3,-1.7 0,-1.3 -0.7,-2.6 -0.6,-4 2.1,9.9 5.8,19.3 10.6,27.3 1.2,2.1 2.6,4 4,6 -1.9,-1.5 -4.2,-3.1 -6.6,-4 -3.2,-1.2 -5.5,-1.6 -5.7,-1.6 -0.2,0 -2.6,0.1 -5.7,0.9 -3.1,0.8 -6.8,2.5 -9.8,4.8 -3.1,2.2 -5.5,5 -6.8,7.4 -1.3,2.4 -1.6,4.4 -0.7,5.4 1.8,1.9 7.6,-0.3 12.9,-0.6 2.6,-0.2 5,-0.1 6.6,0.2 1.6,0.3 2.5,0.6 2.6,0.6 0.1,0 1,-0.2 2.5,-0.4 1.3,-0.2 3.7,0.1 6.9,0.9 3.2,0.7 7.2,1.4 10.4,0.7 2.1,-0.5 3.5,-1.4 4,-2.4 16,15 37.3,23.6 59.8,23.7 17.5,0.1 34.8,-4.6 49.8,-13.7 8.6,-5.2 16.4,-11.6 24.2,-18 6.9,-5.9 14,-11.8 18.3,-20.3 z"
           id="path25"
           inkscape:connector-curvature="0" /><path
           d="m 315.4,681.6 c 1.9,-0.5 3.4,-1.1 4,-2.3 0.6,-1.2 0,-2.8 -1.4,-4.6 -1.4,-1.7 -3.7,-3.4 -6,-4.8 -2.3,-1.4 -4.5,-2.5 -6.1,-3.3 -1.6,-0.8 -2.6,-1.3 -2.7,-1.3 -0.2,-0.1 -4.3,0.1 -8.2,0 -2,-0.1 -4,-0.3 -5.7,-0.4 -1.8,-0.2 -3.4,-0.3 -4.5,0.4 -1,0.7 -1.4,2.5 -0.6,4.8 0.7,2.3 2.5,4.9 4.7,7 2.2,2.1 4.7,3.7 6.6,4.8 1.9,1.1 3.3,1.6 3.4,1.7 0.3,0.1 5.7,0.1 10.2,-0.6 2.2,-0.5 4.4,-0.9 6.3,-1.4 z"
           id="path27"
           inkscape:connector-curvature="0" /><path
           d="m 769.2,516.2 c -8,-13.7 -20.4,-27.6 -37.8,-25.6 -30.7,3.5 -43.2,50 -21.1,69.7 -0.2,0.1 -0.4,0.2 -0.5,0.3 -7.8,-8.3 -18.3,-12.8 -30.6,-7.3 -8.3,3.7 -15.2,12.8 -17.3,22.2 -1,0.8 -2,2.3 -2.7,4.2 -0.7,2 -1,4.3 -1.1,6.5 0,1.2 -0.1,2.3 0,3.4 0,1.2 0.1,2.6 0.5,4.2 0.4,1.6 1.2,3.4 2.1,4.9 0.9,1.5 2.1,2.7 3.2,3.8 2.3,2.1 4.4,3.5 6.5,4.5 4.2,2.1 7.5,2.5 7.8,2.6 0.3,0 3.6,0.3 8.5,-1.3 2.4,-0.8 5.3,-2.2 7.7,-4.5 2.4,-2.2 4.6,-5.6 5.2,-8.9 1.5,-6.7 -1.2,-12.6 -4.3,-15.5 -1.8,-1.6 -3.5,-2.3 -4.8,-2.4 -0.6,-0.3 -1.2,-0.6 -1.8,-0.8 -1.7,-0.5 -2.4,2.1 -0.7,2.7 0.1,0 0.2,0.1 0.4,0.1 0.1,1.1 0.7,2.6 0.8,4.3 0.3,2.4 -0.4,5.6 -1.9,7.1 -0.7,0.8 -1.4,0.8 -2.2,1.1 -0.8,0.2 -1.5,0.2 -2.3,0.1 -1.5,-0.2 -2.8,-0.6 -2.9,-0.6 -0.1,0 -1.3,0.2 -3.3,0 -0.9,-0.1 -2.3,-0.4 -3.2,-0.8 -0.5,-0.2 -0.9,-0.3 -1.3,-0.5 -0.4,-0.2 -0.7,-0.2 -1.1,-0.6 -0.8,-0.7 -1.7,-3 -2.5,-4.6 -0.8,-1.6 -1.5,-3.1 -2,-4.3 -0.9,-2 -1.1,-3.8 -1.8,-4.8 1,-4.6 3.1,-9.1 6.1,-12.5 9.5,-10.8 24.8,-12.3 35.4,-2.4 7.9,7.4 12.7,18.3 14.9,28.7 4.5,21.7 -2.2,43.9 -15.4,61.3 -12.8,17 -33.9,34.8 -56.2,35.1 -0.6,-1.8 -1.3,-3.6 -2.1,-5.3 13.3,-1.3 27.5,-10.7 36.6,-19.9 9,-9 16.3,-23.6 11.3,-36.4 -3.2,-8.2 -15.2,-14.3 -21.6,-5.5 -4.8,6.7 1.1,18.3 9.1,12.1 1.4,-1.1 -0.6,-3 -1.9,-1.9 -0.1,0.1 -12.2,-7.8 -0.7,-11 2.9,-0.8 4.6,-0.4 7.2,1 4.6,2.5 6.5,7.5 6.8,12.5 0.5,8.2 -2.9,16.2 -7.8,22.6 -8.5,11.1 -25.6,23.1 -40.1,23.9 -0.1,-0.2 -0.2,-0.4 -0.3,-0.6 -6.7,-12.5 -19.7,-22.2 -34.3,-22 -13.2,0.2 -26.2,9 -33.3,19.8 -7.4,11.2 -8.2,27.4 2.2,37.1 9.1,8.5 24.4,6.9 30.9,-3.8 0.9,-1.5 -1.5,-2.9 -2.4,-1.4 -8.5,14.2 -27.9,7.6 -32.4,-6.2 -4.4,-13.4 3.4,-26.7 14,-34.7 12.3,-9.3 27.4,-10.8 40.4,-1.8 5.6,3.9 9.8,9.1 12.8,15 0,0.4 0.2,0.8 0.6,1.1 0.9,1.9 1.7,3.8 2.4,5.9 -0.6,0.7 -0.3,1.9 0.7,2.2 0.7,2.3 1.3,4.7 1.7,7.1 0,0.3 0,0.5 0.2,0.8 0.3,1.9 0.5,3.8 0.7,5.6 1.7,24.2 -8.8,48.4 -26.5,64.9 -4.2,4 -8.9,7.4 -13.8,10.3 0.5,-0.6 0.9,-1.2 1.3,-1.8 1,-1.6 1.7,-3.1 2.2,-4.4 1,-2.6 1.4,-4.3 1.5,-4.4 0,-0.1 -0.1,-1.9 -0.4,-4.2 -0.3,-2.2 -0.9,-4.9 -1.6,-7.7 -1.4,-5.6 -3.4,-11.1 -6,-11.2 -2.6,-0.1 -5.2,5.1 -7.2,10.5 -1,2.7 -1.8,5.4 -2.4,7.4 -0.6,1.8 -1,3 -1,3.2 0,0.1 0.1,1.3 0.3,2.8 0.1,1.6 0.4,3.1 0.1,4.9 -0.4,2 -1.7,4.8 -2.2,7.3 -0.5,2.1 -0.2,3.8 0.5,4.6 -13.8,4.8 -28.9,6.1 -43.5,3.8 -8.1,-1.3 -15.8,-3.7 -23.1,-7 2.2,0.2 4.5,0.1 6.9,-0.2 5,-0.7 9.9,-2.8 13.3,-4.9 3.4,-2 5.4,-3.8 5.5,-4 0.1,-0.2 1.9,-2.3 3.8,-5.5 1.9,-3.2 3.9,-7.9 4.9,-11.9 1.1,-4.1 1.9,-7.5 2.8,-10.1 0.8,-2.6 1.8,-4.5 1.2,-5.7 -0.6,-1.1 -3.3,-1.2 -6.6,0.8 -3.3,1.9 -6.6,5.7 -9.2,8.9 -2.6,3.3 -4.9,5.7 -6.9,7.6 -2,1.8 -3.3,2.8 -3.4,2.9 -0.2,0.2 -3.8,5.8 -9.5,9.3 -2.8,1.8 -6.1,3.2 -8.8,4.1 -2.7,0.9 -4.9,1.5 -5.3,2.7 0,0 0,0 0,0.1 -1.7,-1.1 -3.4,-2.2 -5.1,-3.3 -12.4,-8.6 -28.5,-19.6 -35.5,-33.4 -0.8,-1.6 -3.2,-0.2 -2.4,1.4 3.6,7 9,12.3 14.9,17.4 7,5.9 14,11.8 21.6,17.1 12.9,8.9 27.2,14.8 42.7,16.9 26.7,3.5 53.8,-4.6 73.1,-22.9 0.6,0.9 1.9,1.9 4,2.4 3.2,0.8 7.2,0 10.4,-0.7 3.3,-0.7 5.7,-1.1 6.9,-0.9 1.5,0.2 2.4,0.4 2.5,0.4 0.1,0 1,-0.4 2.6,-0.6 1.6,-0.3 4,-0.4 6.6,-0.2 5.2,0.3 11.1,2.5 12.9,0.6 0.9,-0.9 0.6,-2.9 -0.7,-5.4 -1.3,-2.4 -3.7,-5.2 -6.8,-7.4 -3,-2.3 -6.7,-4 -9.8,-4.8 -3.1,-0.9 -5.5,-0.9 -5.7,-0.9 -0.2,0 -2.5,0.4 -5.7,1.6 -2.4,0.9 -4.7,2.4 -6.6,4 6.9,-9.6 12.1,-20.9 14.6,-32.8 -0.1,1.2 -0.6,2.3 -0.6,3.5 0.1,0.6 0.4,1.3 1.3,1.7 0.9,0.4 2.2,0.5 3.7,0.1 3,-0.8 5.6,-3.3 7.6,-5 1,-0.9 1.7,-1.3 2.5,-1.8 0.7,-0.5 1.5,-0.9 2,-1.2 1.2,-0.6 2.1,-1 2.1,-1 0.1,0 0.5,-0.8 1.3,-2 0.8,-1.1 2,-2.6 3.5,-4.1 1.4,-1.5 3.1,-2.9 4.5,-4.2 1.4,-1.3 2.6,-2.5 2.5,-3.9 0,-1.3 -1.3,-2.6 -3.5,-3.4 -2.2,-0.9 -5.3,-1.2 -8.4,-0.9 -3.1,0.3 -6.2,1.3 -8.5,2.3 -2.3,1 -3.7,2 -3.9,2.1 -0.1,0.1 -1.3,1.4 -2.6,3.6 -0.6,1.1 -1.3,2.4 -1.9,3.8 -0.1,0.2 -0.1,0.3 -0.2,0.5 0.5,-5.3 0.4,-10.5 -0.3,-15.7 16.7,3.9 35.4,0.5 51.3,-5.1 16.2,-5.7 31.3,-14.8 43.9,-26.5 26.9,-24.9 40.5,-60.9 37.7,-97.4 -1.7,-18.6 -7.1,-36.7 -16.4,-52.6 z m -29.8,153.1 c -22.8,18.5 -58,32.9 -87.6,25.2 -0.4,-2 -0.8,-4.1 -1.4,-6.1 22.7,-0.7 43.9,-18.4 57.1,-35.6 14.4,-18.8 21.5,-43 15.8,-66.4 -1.4,-5.9 -4,-12.2 -7.4,-17.8 3.5,2 8.3,3.5 13.4,3.7 6.1,0.3 12.9,-1.3 17.8,-4.8 2.4,-1.7 4.3,-3.8 5.4,-5.5 1.1,-1.7 1.6,-2.8 1.7,-3 0.1,-0.2 0.8,-2.2 1.1,-5.1 0.3,-2.9 0,-6.6 -1,-10.1 -0.5,-1.8 -1,-3.4 -1.9,-5.6 -0.9,-2.1 -2.6,-4.9 -5.2,-6.8 -5.1,-3.7 -10.8,-3.4 -14.9,-1.4 -4.3,2.2 -6.1,5.5 -6.8,7.9 -0.7,2.4 -0.3,3.9 0.5,4.3 0.5,0.2 1.2,0 2.1,-0.4 0.7,0.7 2.3,0.4 2.4,-1 0,-0.1 0,-0.2 0,-0.3 1.5,-0.7 3.2,-1.3 4.7,-1.1 1.5,0.2 3.1,1.3 3,2.1 -0.1,0.3 -0.2,0.5 -0.1,1.4 0,0.8 0.1,2.3 0.1,3.4 0,2.3 -0.4,3.9 -0.8,4.6 -0.4,0.8 -0.6,1 -0.6,1.1 -0.1,0.1 0.2,0.7 -0.8,2.2 -1,1.5 -4,3.7 -7.9,4.9 -3.9,1.3 -8.2,1.6 -11.5,1.4 -0.6,0 -1.2,-0.1 -1.7,-0.1 -9.8,-7.3 -13.4,-21.7 -12.3,-33.7 1.6,-16.6 13.3,-32.7 31.2,-33.5 15.8,-0.7 26.7,12.9 33.8,25.3 28.2,49.8 16.2,114.8 -28.2,150.8 z"
           id="path29"
           inkscape:connector-curvature="0" /><path
           d="m 617.7,683.5 c 0.1,0 1.5,-0.6 3.4,-1.7 1.9,-1.1 4.4,-2.7 6.6,-4.8 2.2,-2.1 4,-4.7 4.7,-7 0.7,-2.3 0.4,-4.1 -0.6,-4.8 -1.1,-0.8 -2.7,-0.6 -4.5,-0.4 -1.8,0.2 -3.8,0.4 -5.7,0.4 -3.9,0.1 -8.1,-0.1 -8.2,0 -0.1,0 -1.1,0.5 -2.7,1.3 -1.6,0.8 -3.8,2 -6.1,3.3 -2.3,1.4 -4.6,3.1 -6,4.8 -1.4,1.7 -2,3.4 -1.4,4.6 0.6,1.2 2.1,1.8 4,2.3 1.9,0.5 4.1,0.9 6.4,1.3 4.5,0.8 9.9,0.8 10.1,0.7 z"
           id="path31"
           inkscape:connector-curvature="0" /><path
           d="m 145.6,482.8 c -4.5,1 -8.5,3.6 -8.6,3.8 -0.1,0.1 -2.6,4.2 -3.5,8.7 -1,4.6 -0.3,9.1 2.2,10 2.4,0.9 5.9,-1.2 8.9,-2.8 3.1,-1.6 5.8,-2.8 5.9,-2.9 0.1,-0.1 1.3,-2.8 2.8,-6 1.4,-3.1 3.5,-6.6 2.5,-9 -1.1,-2.4 -5.7,-2.9 -10.2,-1.8 z"
           id="path33"
           inkscape:connector-curvature="0" /><path
           d="m 157.5,471.6 c 2.8,-4.3 -4.7,-14.3 -4.9,-14.4 -0.2,-0.1 -12.3,-3 -15.2,1.3 -2.8,4.3 4.7,14.3 4.9,14.4 0.2,0.1 12.3,3 15.2,-1.3 z"
           id="path35"
           inkscape:connector-curvature="0" /><path
           d="m 762.6,478 c -0.1,-0.1 -4.3,-1.4 -8.5,-1.1 -4.2,0.2 -8.1,2.1 -8.4,4.7 -0.3,2.6 2.1,5.3 3.7,7.8 0.9,1.2 1.6,2.3 2.2,3.2 0.5,0.8 0.9,1.4 0.9,1.4 0,0 0.7,0.1 1.7,0.2 1,0.1 2.3,0.3 3.8,0.6 2.9,0.4 6.5,1.4 8.6,0 2.2,-1.4 2.2,-5.6 0.6,-9.5 -1.5,-4.1 -4.5,-7.2 -4.6,-7.3 z"
           id="path37"
           inkscape:connector-curvature="0" /><path
           d="m 775.5,470.2 c 0.1,-0.1 1.8,-2.7 3.2,-5.9 1.4,-3.1 2.7,-6.7 1.3,-8.9 -1.4,-2.2 -5.4,-2.4 -9,-1.8 -3.7,0.5 -7,1.8 -7.1,1.9 -0.1,0.1 -2.1,3 -3.5,6.5 -1.4,3.5 -2,7.4 -0.2,9.2 1.8,1.9 5.6,1.5 9,0.8 3.2,-0.7 6.1,-1.7 6.3,-1.8 z"
           id="path39"
           inkscape:connector-curvature="0" /><path
           d="m 430.7,198 c 0.1,0.2 3.9,4.9 7.7,9.7 3.9,4.8 7.8,10 10.3,9.3 2.5,-0.7 3,-7.5 2,-14.4 -0.9,-6.8 -3.3,-13.4 -3.5,-13.7 -0.2,-0.3 -4.4,-5.9 -9.6,-10.3 -5.2,-4.5 -11.2,-7.8 -13.1,-6.1 -1.9,1.7 0.3,7.8 2.2,13.7 2,5.9 3.8,11.6 4,11.8 z"
           id="path41"
           inkscape:connector-curvature="0" /><path
           d="m 445.6,175.9 c 2.4,3.8 5.5,7.5 8.1,7.1 5.1,-0.8 6.2,-18 6.1,-18.4 0,-0.1 -1.1,-2.4 -2.6,-5.2 -1.5,-2.8 -3.6,-6 -5.7,-7.9 l -9.3,-8.8 2,9.2 c 0.1,0.4 0.2,0.7 0.4,1.1 l -0.3,0 c -1.2,2.6 -2,6.4 -2.4,9.4 -0.5,3.1 -0.6,5.5 -0.6,5.7 0,0.1 1.8,4 4.3,7.8 z"
           id="path43"
           inkscape:connector-curvature="0" /><path
           d="m 461.7,218.8 c 2.5,0.7 6.3,-3.6 9.8,-7.8 3.5,-4.3 6.7,-8.4 6.8,-8.6 0.1,-0.2 1.4,-5.3 2.5,-10.7 1.1,-5.4 2.2,-11 0,-12.5 -2.1,-1.5 -7.2,1.7 -11.5,5.9 -4.3,4.1 -7.8,8.9 -8,9.2 -0.1,0.2 -1.7,6 -2.2,12 -0.5,5.8 0.1,11.8 2.6,12.5 z"
           id="path45"
           inkscape:connector-curvature="0" /><path
           d="m 449.1,771.2 c 0.2,-0.2 2.9,-6.2 4.5,-12.5 1.7,-6.3 2.4,-12.8 0,-14 -2.3,-1.2 -7.1,3.1 -11.5,7.3 -4.4,4.3 -8.6,8.6 -8.7,8.8 -0.2,0.2 -2.5,5.7 -4.7,11.4 -2.2,5.7 -4.2,11.8 -2.2,13.5 2,1.7 7.7,-1.5 12.9,-5.5 5.1,-4 9.6,-8.8 9.7,-9 z"
           id="path47"
           inkscape:connector-curvature="0" /><path
           d="m 459.9,768.5 c -5.2,0 -9.4,11.2 -9.4,11.5 0,0.3 4.2,11.5 9.4,11.5 5.2,0 9.4,-11.2 9.4,-11.5 -0.1,-0.3 -4.3,-11.5 -9.4,-11.5 z"
           id="path49"
           inkscape:connector-curvature="0" /><path
           d="m 484.6,756.3 c -0.1,-0.2 -4.2,-3.4 -8.9,-5.7 -4.7,-2.3 -9.8,-3.4 -11.4,-1.4 -1.6,2 0.3,6.6 2,10.8 1.8,4.2 3.6,8.1 3.7,8.2 0.1,0.2 3.6,2.7 7.3,5.2 3.8,2.5 7.9,5.2 10.2,4 2.3,-1.2 2.2,-6.4 0.8,-11.4 -1.1,-4.9 -3.5,-9.5 -3.7,-9.7 z"
           id="path51"
           inkscape:connector-curvature="0" /><path
           d="m 163.3,335.1 c 0.5,-0.6 7.5,-15.7 17.9,-28 5.1,-6.2 11.2,-11.4 16.3,-14.6 5,-3.3 8.9,-4.9 8.7,-5.6 -0.1,-0.6 -4.4,-0.2 -10.4,2.3 -6,2.4 -13.3,7.3 -19.4,13.3 -12.5,12.1 -20.9,27.4 -21.3,28 -0.3,0.7 -8.7,16 -12.3,33 -1.9,8.4 -2.4,17 -1.9,23.4 0.5,6.4 1.8,10.4 2.4,10.3 0.7,-0.1 0.6,-4.2 1.3,-10.3 0.6,-6 2,-14 4.7,-21.7 4.9,-15.4 13.7,-29.4 14,-30.1 z"
           id="path53"
           inkscape:connector-curvature="0" /><path
           d="m 162.2,630.7 c -2.6,-5.1 -4,-8.8 -4.2,-9.1 -0.1,-0.3 -1.9,-3.9 -4.1,-9.2 -2.3,-5.3 -4.6,-12.5 -6.6,-19.8 -1.8,-7.3 -3,-14.8 -3.7,-20.5 -0.7,-5.7 -1.1,-9.5 -1.8,-9.5 -0.6,0 -1.4,3.8 -1.9,9.6 -0.4,5.9 -0.2,13.7 0.9,21.6 1.2,7.8 3,15.7 5,21.5 1.9,5.8 3.6,9.7 3.7,10.1 0.2,0.3 2,4.2 5.2,9.4 3.1,5.3 7.8,11.8 12.9,17.9 5.2,6 11,11.3 15.7,14.9 4.7,3.5 8.1,5.4 8.5,4.9 0.4,-0.5 -2.2,-3.4 -6,-7.6 -3.8,-4.2 -8.6,-10.1 -12.9,-16.3 -4.3,-6.2 -8.2,-12.7 -10.7,-17.9 z"
           id="path55"
           inkscape:connector-curvature="0" /><path
           d="m 736.1,308.2 c 5.8,6.5 10.8,13.5 14,19.1 3.2,5.6 4.9,9.7 5.1,10.1 0.1,0.4 2.3,4.3 4.5,10.4 2.2,6.1 4.5,14.3 5.4,22.8 1,8.5 0.8,17.1 0.2,23.5 -0.6,6.4 -1.5,10.7 -0.8,10.9 0.6,0.2 2.6,-3.8 4.4,-10.3 1.8,-6.5 3,-15.5 2.9,-24.6 -0.1,-9.1 -1.9,-18.3 -3.8,-25.1 -2,-6.8 -4,-11.3 -4.2,-11.7 -0.2,-0.4 -2.3,-4.8 -6.3,-10.7 -4,-5.9 -9.9,-12.9 -16.6,-19.1 -6.6,-6.2 -13.7,-11.6 -19.1,-15.4 -5.5,-3.8 -9.3,-5.9 -9.7,-5.4 -1,1.1 12.5,12.5 24,25.5 z"
           id="path57"
           inkscape:connector-curvature="0" /><path
           d="m 759.6,613.4 c -0.7,1.8 -1.2,2.9 -1.2,3.1 -0.1,0.2 -0.5,1.3 -1.3,3.1 -0.8,1.8 -1.6,4.4 -3.1,7.2 -2.6,5.9 -6.8,13.2 -11.4,20.2 -4.8,6.9 -10.2,13.4 -14.5,18 -4.3,4.6 -7.4,7.6 -7,8.2 0.3,0.5 4.2,-1.6 9.4,-5.5 5.2,-3.9 11.6,-9.9 17.4,-16.7 5.6,-6.9 10.7,-14.3 13.8,-20.3 1.8,-2.9 2.9,-5.6 3.8,-7.5 0.9,-1.9 1.4,-3 1.5,-3.2 0.1,-0.2 0.5,-1.4 1.2,-3.4 0.6,-2 1.7,-4.7 2.5,-8 1.9,-6.6 3.4,-15.4 4.2,-24.2 0.6,-8.8 0.2,-17.6 -0.8,-24.1 -1,-6.5 -2.4,-10.6 -2.9,-10.5 -0.7,0.1 -0.6,4.4 -0.7,10.7 -0.1,6.3 -0.7,14.8 -2.1,23.1 -1.6,8.3 -3.6,16.5 -5.9,22.5 -1,3 -2.2,5.4 -2.9,7.3 z"
           id="path59"
           inkscape:connector-curvature="0" /><path
           d="m 381,153.8 c 2,-1.6 1.3,-5.9 1.2,-6 -0.1,-0.1 -4.1,-1.8 -6.1,-0.2 -2,1.6 -1.3,5.9 -1.2,6 0.1,0.1 4.1,1.8 6.1,0.2 z"
           id="path61"
           inkscape:connector-curvature="0" /><path
           d="m 388.2,154.8 c 0.4,0.1 0.9,0.3 1.4,0.4 1.1,0.3 2.6,0.6 3.8,0 1.2,-0.5 1.8,-2 1.9,-3.4 0.1,-0.7 0.1,-1.4 0,-1.9 -0.1,-0.5 -0.1,-0.8 -0.2,-0.9 0,0 -0.3,-0.2 -0.8,-0.4 -0.5,-0.2 -1.1,-0.5 -1.8,-0.6 -1.4,-0.3 -3,-0.2 -3.8,0.8 -0.9,0.9 -1.1,2.4 -1.2,3.6 0,0.6 -0.1,1.1 -0.1,1.5 0,0.4 0,0.6 0,0.6 0.2,0.1 0.4,0.1 0.8,0.3 z"
           id="path63"
           inkscape:connector-curvature="0" /><path
           d="m 384.5,168 c 1.1,-0.1 2.4,-0.3 3.5,-1.1 1,-0.8 1.4,-2.2 1.4,-3.5 0,-0.6 -0.1,-1.2 -0.2,-1.6 -0.1,-0.4 -0.2,-0.7 -0.2,-0.7 0,0 -0.3,-0.1 -0.7,-0.2 -0.4,-0.1 -1,-0.1 -1.7,0 -1.3,0.1 -2.6,0.7 -3.3,1.8 -0.7,1.1 -0.7,2.5 -0.7,3.5 0,1.1 0.1,1.9 0.1,1.9 0,0 0.7,0 1.8,-0.1 z"
           id="path65"
           inkscape:connector-curvature="0" /><path
           d="m 397.1,170 c 0,0 0.7,-0.1 1.8,-0.2 1,-0.1 2.4,-0.1 3.5,-0.8 1.1,-0.7 1.6,-2.1 1.5,-3.6 -0.1,-0.7 -0.2,-1.4 -0.4,-1.9 -0.2,-0.5 -0.4,-0.8 -0.4,-0.8 0,0 -0.4,-0.1 -0.9,-0.2 -0.5,-0.1 -1.2,-0.1 -1.9,0 -1.4,0.2 -2.8,0.9 -3.2,2.2 -0.4,1.2 -0.1,2.6 -0.1,3.6 0,1 0.1,1.7 0.1,1.7 z"
           id="path67"
           inkscape:connector-curvature="0" /><path
           d="m 505.1,163.5 c 1.2,0.4 2.7,-0.4 4,-1.2 0.6,-0.4 1.2,-0.8 1.6,-1.1 0.4,-0.3 0.7,-0.5 0.7,-0.6 0,0 0,-0.4 0,-0.9 0,-0.5 0,-1.2 -0.1,-1.9 -0.1,-1.5 -0.4,-3.2 -1.4,-3.9 -1.1,-0.7 -2.8,-0.3 -4.3,0.5 -1.5,0.8 -2.6,1.9 -2.7,2 0,0.1 -0.2,1.7 0,3.3 0.3,1.7 1,3.4 2.2,3.8 z"
           id="path69"
           inkscape:connector-curvature="0" /><path
           d="m 513.4,171 c 2.4,1 6,-2.2 6.1,-2.3 0,-0.1 -0.2,-4.9 -2.6,-5.9 -2.4,-1 -6,2.2 -6.1,2.3 -0.1,0.1 0.2,4.9 2.6,5.9 z"
           id="path71"
           inkscape:connector-curvature="0" /><path
           d="m 493.9,178.6 c 2.4,0.9 5.8,-2 5.8,-2.1 0,-0.1 -0.6,-4.5 -3,-5.4 -2.4,-0.9 -5.8,2 -5.8,2.1 0,0 0.6,4.4 3,5.4 z"
           id="path73"
           inkscape:connector-curvature="0" /><path
           d="m 499.7,186.9 c 2.3,1.2 6.1,-1.6 6.2,-1.7 0,-0.1 0.1,-4.8 -2.2,-6 -2.3,-1.2 -6.1,1.6 -6.2,1.7 -0.1,0.1 -0.1,4.8 2.2,6 z"
           id="path75"
           inkscape:connector-curvature="0" /><path
           d="m 118.3,479.4 c -0.2,0 -5.2,3.2 -4.5,5.7 0.3,1.3 1.9,2.1 3.3,2.7 0.7,0.3 1.4,0.5 1.9,0.7 0.5,0.1 0.9,0.2 0.9,0.2 0,0 0.3,-0.2 0.8,-0.5 0.4,-0.3 1,-0.7 1.6,-1.2 1.1,-1 2.3,-2.3 2.2,-3.6 -0.3,-2.7 -6.1,-4.1 -6.2,-4 z"
           id="path77"
           inkscape:connector-curvature="0" /><path
           d="m 124.5,466.1 c -0.5,-0.4 -0.9,-0.8 -1.2,-1 -0.3,-0.3 -0.5,-0.4 -0.5,-0.4 0,0 -0.3,0.1 -0.6,0.3 -0.3,0.2 -0.8,0.5 -1.4,0.8 -1.1,0.7 -2.4,1.5 -2.8,2.7 -0.4,1.2 0.3,2.7 1.4,3.8 0.5,0.5 1.1,1 1.6,1.3 0.5,0.3 0.8,0.5 0.8,0.5 0,0 0.4,-0.1 0.9,-0.3 0.5,-0.2 1.2,-0.5 1.8,-1 1.3,-0.9 2.3,-2.2 2.1,-3.5 -0.1,-1.3 -1.2,-2.4 -2.1,-3.2 z"
           id="path79"
           inkscape:connector-curvature="0" /><path
           d="m 107.9,469.4 c -0.2,0 -4.7,2.6 -4.2,5.2 0.2,1.3 1.5,2.3 2.6,3 0.6,0.4 1.2,0.7 1.6,0.9 0.4,0.2 0.7,0.3 0.7,0.3 0,0 0.3,-0.2 0.7,-0.4 0.4,-0.3 0.9,-0.6 1.4,-1.1 1,-0.9 2.1,-2.1 2.1,-3.4 0.1,-2.7 -4.7,-4.6 -4.9,-4.5 z"
           id="path81"
           inkscape:connector-curvature="0" /><path
           d="m 788.2,479.5 c -0.5,-0.4 -0.9,-0.7 -1.2,-1 -0.3,-0.2 -0.5,-0.4 -0.6,-0.4 0,0 -0.2,0.1 -0.6,0.4 -0.3,0.2 -0.8,0.5 -1.2,0.9 -0.9,0.8 -2,1.8 -2.2,3.1 -0.2,1.3 0.6,2.6 1.7,3.5 0.5,0.5 1,0.8 1.4,1.1 0.4,0.3 0.7,0.4 0.7,0.4 0,0 0.3,-0.1 0.7,-0.4 0.4,-0.2 1,-0.6 1.5,-1 1,-0.9 1.9,-2.2 1.8,-3.5 -0.1,-1.2 -1.1,-2.3 -2,-3.1 z"
           id="path83"
           inkscape:connector-curvature="0" /><path
           d="m 790.9,465.5 c -0.2,-0.1 -5.5,1.8 -5.4,4.4 0,1.3 1.2,2.5 2.3,3.4 0.6,0.5 1.1,0.8 1.5,1.1 0.4,0.3 0.7,0.4 0.7,0.4 0,0 0.3,-0.1 0.8,-0.3 0.5,-0.2 1.1,-0.5 1.7,-0.8 1.3,-0.7 2.6,-1.6 2.9,-2.9 0.5,-2.5 -4.4,-5.3 -4.5,-5.3 z"
           id="path85"
           inkscape:connector-curvature="0" /><path
           d="m 807.9,473.9 c -0.7,-0.5 -1.3,-0.9 -1.9,-1.2 -0.5,-0.3 -0.9,-0.4 -1,-0.4 0,0 -0.4,0.1 -1,0.4 -0.6,0.2 -1.3,0.6 -1.9,1.1 -1.4,0.9 -2.5,2.3 -2.2,3.6 0.2,1.3 1.6,2.2 2.7,3 0.6,0.4 1.1,0.7 1.6,0.9 0.4,0.2 0.7,0.4 0.7,0.4 0,0 0.3,-0.1 0.7,-0.3 0.4,-0.2 1,-0.5 1.6,-0.9 1.2,-0.7 2.6,-1.6 2.8,-2.9 0.3,-1.3 -0.8,-2.7 -2.1,-3.7 z"
           id="path87"
           inkscape:connector-curvature="0" /><path
           d="m 407.5,779.3 c -0.1,0.1 -1.7,5.4 0.3,7 2,1.6 6.9,-1 6.9,-1.1 0.1,-0.1 1.7,-5.4 -0.3,-7 -2,-1.6 -6.8,1 -6.9,1.1 z"
           id="path89"
           inkscape:connector-curvature="0" /><path
           d="m 449,795.6 c -0.2,-1.4 -0.6,-3.1 -1.7,-3.8 -1.1,-0.7 -2.8,-0.2 -4.2,0.7 -1.4,0.9 -2.5,2.1 -2.5,2.2 0,0.1 -0.1,1.7 0.3,3.3 0.4,1.7 1.3,3.2 2.5,3.5 1.3,0.3 2.7,-0.7 3.8,-1.5 0.6,-0.4 1.1,-0.9 1.5,-1.2 0.4,-0.3 0.6,-0.5 0.6,-0.6 0,0 0,-0.3 0,-0.8 -0.1,-0.4 -0.2,-1.1 -0.3,-1.8 z"
           id="path91"
           inkscape:connector-curvature="0" /><path
           d="m 479.5,786.5 c -1.8,1.8 0.2,6.8 0.3,6.9 0.1,0.1 5.1,2 6.9,0.2 1.8,-1.8 -0.2,-6.8 -0.3,-6.9 -0.1,-0.1 -5.1,-2 -6.9,-0.2 z"
           id="path93"
           inkscape:connector-curvature="0" /><path
           d="m 511.7,778.4 c -0.3,-0.6 -0.5,-1 -0.6,-1 0,0 -0.4,-0.2 -1.1,-0.4 -0.6,-0.2 -1.5,-0.3 -2.3,-0.3 -1.7,0 -3.4,0.8 -3.7,2 -0.3,1.3 0.3,2.7 0.6,3.8 0.2,0.6 0.3,1.1 0.4,1.4 0.1,0.4 0.2,0.6 0.2,0.6 0,0 0.2,0 0.6,0.1 0.4,0 0.9,0.1 1.5,0.1 1.2,0.1 2.7,0.4 3.9,-0.2 1.2,-0.6 1.6,-2.3 1.3,-4 -0.2,-0.7 -0.5,-1.6 -0.8,-2.1 z"
           id="path95"
           inkscape:connector-curvature="0" /></g></g></switch></svg>