<?xml version="1.0" encoding="UTF-8" standalone="no"?>
<svg
   xmlns:dc="http://purl.org/dc/elements/1.1/"
   xmlns:cc="http://creativecommons.org/ns#"
   xmlns:rdf="http://www.w3.org/1999/02/22-rdf-syntax-ns#"
   xmlns:svg="http://www.w3.org/2000/svg"
   xmlns="http://www.w3.org/2000/svg"
   xmlns:sodipodi="http://sodipodi.sourceforge.net/DTD/sodipodi-0.dtd"
   xmlns:inkscape="http://www.inkscape.org/namespaces/inkscape"
   version="1.1"
   id="l25"
   x="0px"
   y="0px"
   viewBox="0 0 1000 1000"
   width="100%"
   height="100%"
   style="enable-background:new 0 0 1000 1000;"
   xml:space="preserve"
    class="withFill"
   ><style
     type="text/css"
     id="style3">
	#l25 .st0{fill:#9E9E9E;}
	#l25 .st1{fill:#FFFFFF;}
</style><switch
     id="switch5"
     transform="translate(-30.7,0)"><g
       id="g7"><g
         id="g9"><path
           class="st0"
           d="m 530.7,217.6 c -156,0 -282.4,126.4 -282.4,282.4 0,156 126.4,282.4 282.4,282.4 156,0 282.4,-126.4 282.4,-282.4 0,-156 -126.4,-282.4 -282.4,-282.4 z m 0,501.9 c -121.2,0 -219.5,-98.3 -219.5,-219.5 0,-121.2 98.3,-219.5 219.5,-219.5 121.2,0 219.5,98.3 219.5,219.5 0,121.2 -98.3,219.5 -219.5,219.5 z"
           id="path11"
           inkscape:connector-curvature="0"
           style="fill:#9e9e9e" /><g
           id="g13"><path
             class="st1"
             d="m 783.8,521 c -2.8,-0.2 -5.6,0.4 -7.8,1.9 -2.2,1.5 -3.9,3.8 -4.3,7.1 -0.4,3.3 0.7,5.9 2.5,7.9 1.8,2 4.4,3.3 7.1,3.7 2.7,0.5 5.6,0.1 8,-1.4 2.3,-1.4 4,-4 4.5,-7.6 0.5,-3.6 -0.6,-6.4 -2.6,-8.4 -1.9,-1.8 -4.6,-2.9 -7.4,-3.2 z"
             id="path15"
             inkscape:connector-curvature="0"
             style="fill:#ffffff" /><path
             class="st1"
             d="m 777,562.2 c -5.3,-1.3 -11.6,0.5 -13.4,6.9 -0.8,3.2 -0.4,6 1.1,8.2 1.4,2.2 3.8,4 6.4,4.9 2.6,0.9 5.5,1 8.1,-0.1 2.5,-1 4.8,-3.2 5.7,-6.7 2,-7 -2.4,-11.9 -7.9,-13.2 z"
             id="path17"
             inkscape:connector-curvature="0"
             style="fill:#ffffff" /><path
             class="st1"
             d="m 763.3,602.1 c -2.5,-1.1 -5.4,-1.5 -8,-0.8 -2.6,0.7 -4.8,2.4 -6.3,5.3 -5.9,11.6 13.3,22.9 20,9.8 1.6,-3.2 1.4,-6.4 0.3,-8.8 -1.3,-2.5 -3.4,-4.4 -6,-5.5 z"
             id="path19"
             inkscape:connector-curvature="0"
             style="fill:#ffffff" /><path
             class="st1"
             d="m 743.4,638.8 c -4.7,-3 -11,-3.2 -14.9,2.1 -3.7,5.4 -1.6,11.3 2.8,14.8 4.3,3.4 11.1,4.1 15.3,-1.9 4.3,-5.9 1.5,-12 -3.2,-15 z"
             id="path21"
             inkscape:connector-curvature="0"
             style="fill:#ffffff" /><path
             class="st1"
             d="m 702.5,671.8 c -9.4,9 5.1,25.9 15.7,15.7 10.2,-10.7 -6.7,-25.2 -15.7,-15.7 z"
             id="path23"
             inkscape:connector-curvature="0"
             style="fill:#ffffff" /><path
             class="st1"
             d="m 680.1,695.8 c -1.3,-0.3 -2.6,-0.3 -4,-0.1 -1.4,0.2 -2.8,0.8 -4.1,1.8 -2.7,1.9 -3.9,4.5 -4.2,7.2 -0.3,2.6 0.5,5.4 2.1,7.8 1.6,2.4 3.8,4.2 6.5,4.9 2.7,0.8 5.6,0.3 8.6,-1.8 1.5,-1 2.6,-2.2 3.3,-3.5 0.7,-1.3 1.1,-2.7 1.1,-4.1 0.1,-2.8 -0.9,-5.5 -2.6,-7.7 -1.7,-2.2 -4.1,-3.8 -6.7,-4.5 z"
             id="path25"
             inkscape:connector-curvature="0"
             style="fill:#ffffff" /><path
             class="st1"
             d="m 637.4,718.3 c -2.9,1.5 -4.7,3.7 -5.3,6.3 -0.7,2.6 -0.3,5.5 0.8,8 1.1,2.5 3,4.7 5.5,5.9 2.5,1.1 5.6,1.4 8.8,-0.3 13.1,-6.7 1.8,-25.9 -9.8,-19.9 z"
             id="path27"
             inkscape:connector-curvature="0"
             style="fill:#ffffff" /><path
             class="st1"
             d="m 608.5,733.8 c -2.3,-1.5 -5,-1.9 -8.2,-1 -6.3,1.8 -8.2,8.1 -6.8,13.5 1.3,5.5 6.2,9.8 13.2,7.9 3.5,-0.9 5.6,-3.2 6.7,-5.8 1,-2.6 1,-5.5 0.1,-8.1 -1.1,-2.7 -2.8,-5.1 -5,-6.5 z"
             id="path29"
             inkscape:connector-curvature="0"
             style="fill:#ffffff" /><path
             class="st1"
             d="m 568.7,743.5 c -2,-1.8 -4.6,-2.9 -7.9,-2.5 -3.3,0.4 -5.6,2.1 -7.1,4.3 -1.5,2.2 -2.1,5 -1.9,7.8 0.2,2.8 1.3,5.5 3.3,7.4 2,2 4.8,3 8.4,2.6 3.6,-0.5 6.1,-2.2 7.5,-4.5 1.4,-2.4 1.8,-5.3 1.4,-8 -0.4,-2.8 -1.7,-5.4 -3.7,-7.1 z"
             id="path31"
             inkscape:connector-curvature="0"
             style="fill:#ffffff" /><path
             class="st1"
             d="m 520.9,742.7 c -3.3,0 -5.9,1 -7.7,3 -1.8,2 -2.9,4.7 -3.1,7.4 -0.2,2.8 0.4,5.6 2.1,7.8 1.6,2.2 4.3,3.9 7.9,3.9 14.6,0.5 13.9,-21.8 0.8,-22.1 z"
             id="path33"
             inkscape:connector-curvature="0"
             style="fill:#ffffff" /><path
             class="st1"
             d="m 480.8,737.8 c -12.7,-2.9 -18.9,18.5 -4.5,21.8 7.2,1.4 11.6,-3.5 12.5,-9 0.9,-5.6 -1.5,-11.6 -8,-12.8 z"
             id="path35"
             inkscape:connector-curvature="0"
             style="fill:#ffffff" /><path
             class="st1"
             d="m 446.4,728.9 c -1,-1 -2.2,-1.9 -3.7,-2.5 -3.1,-1.2 -5.9,-0.8 -8.3,0.4 -2.3,1.2 -4.2,3.4 -5.4,6 -1.1,2.5 -1.4,5.5 -0.6,8.1 0.8,2.6 2.8,4.9 6.2,6.2 1.7,0.7 3.3,0.9 4.8,0.8 1.5,-0.1 2.8,-0.6 4,-1.3 2.4,-1.4 4.1,-3.7 5,-6.4 0.9,-2.6 1,-5.5 0.1,-8 -0.5,-1.2 -1.2,-2.3 -2.1,-3.3 z"
             id="path37"
             inkscape:connector-curvature="0"
             style="fill:#ffffff" /><path
             class="st1"
             d="m 406.4,708.7 c -1.5,-0.8 -2.8,-1.3 -4.2,-1.5 -1.4,-0.2 -2.7,0 -4,0.4 -2.5,0.8 -4.8,2.7 -6.3,5 -1.5,2.3 -2.3,5.1 -1.9,7.8 0.2,1.4 0.7,2.7 1.5,3.9 0.8,1.3 2,2.4 3.6,3.3 12.6,7.5 22.6,-12.4 11.3,-18.9 z"
             id="path39"
             inkscape:connector-curvature="0"
             style="fill:#ffffff" /><path
             class="st1"
             d="m 373.9,685.5 c -5,-4.3 -11.3,-2.4 -15,1.6 -3.8,4.1 -4.9,10.6 0.6,15.4 2.7,2.4 5.8,2.9 8.5,2.4 2.7,-0.5 5.1,-2.2 6.8,-4.4 1.7,-2.2 2.7,-4.9 2.7,-7.6 0,-2.6 -1.1,-5.2 -3.6,-7.4 z"
             id="path41"
             inkscape:connector-curvature="0"
             style="fill:#ffffff" /><path
             class="st1"
             d="m 337.9,653.4 c -2.7,0 -5.4,1 -7.6,2.7 -2.2,1.7 -3.8,4.1 -4.4,6.8 -0.5,2.7 0,5.8 2.4,8.5 2.4,2.7 5.2,3.9 7.9,3.8 2.7,0 5.4,-1.3 7.4,-3.2 2.1,-1.9 3.5,-4.4 3.9,-7 0.4,-2.7 -0.1,-5.5 -2.3,-8 -2,-2.5 -4.6,-3.6 -7.3,-3.6 z"
             id="path43"
             inkscape:connector-curvature="0"
             style="fill:#ffffff" /><path
             class="st1"
             d="m 303,636 c 1.8,3.1 4.6,4.6 7.2,5 2.7,0.4 5.5,-0.4 7.8,-1.9 2.3,-1.5 4.2,-3.8 5,-6.3 0.9,-2.6 0.6,-5.3 -1,-8.2 -6.4,-11.3 -26.3,-1.4 -19,11.4 z"
             id="path45"
             inkscape:connector-curvature="0"
             style="fill:#ffffff" /><path
             class="st1"
             d="m 304,596.6 c 1.2,-2.4 1.7,-5.2 0.4,-8.3 -1.2,-3.1 -3.4,-4.9 -5.9,-5.8 -2.5,-0.9 -5.4,-0.8 -8,0.1 -2.6,0.9 -5,2.6 -6.4,5 -1.4,2.4 -1.7,5.4 -0.4,8.8 1.3,3.4 3.6,5.4 6.2,6.2 2.7,0.8 5.6,0.5 8.1,-0.6 2.6,-1.1 4.8,-3 6,-5.4 z"
             id="path47"
             inkscape:connector-curvature="0"
             style="fill:#ffffff" /><path
             class="st1"
             d="m 293,550.1 c -1.3,-6.5 -7.3,-8.8 -12.8,-8 -5.5,0.9 -10.4,5.4 -9,12.5 3.3,14.4 24.7,8.2 21.8,-4.5 z"
             id="path49"
             inkscape:connector-curvature="0"
             style="fill:#ffffff" /><path
             class="st1"
             d="m 277.6,520.9 c 2.8,-0.2 5.5,-1.3 7.4,-3.1 1,-0.9 1.8,-2 2.3,-3.3 0.3,-0.6 0.4,-1.3 0.6,-2.1 0.1,-0.7 0.2,-1.5 0.2,-2.3 -0.3,-13 -22.6,-13.8 -22.2,0.9 0,0.9 0.1,1.7 0.3,2.5 0.2,0.8 0.5,1.5 0.9,2.2 0.7,1.3 1.7,2.4 2.8,3.2 2.1,1.6 4.9,2.2 7.7,2 z"
             id="path51"
             inkscape:connector-curvature="0"
             style="fill:#ffffff" /><path
             class="st1"
             d="m 270.2,475.9 c 1.9,2 4.6,3.1 7.4,3.3 2.8,0.2 5.6,-0.4 7.8,-1.9 1.1,-0.7 2,-1.7 2.8,-2.9 0.8,-1.2 1.3,-2.6 1.5,-4.2 0.4,-3.3 -0.7,-5.9 -2.5,-7.9 -1.8,-2 -4.4,-3.3 -7.1,-3.7 -2.7,-0.5 -5.6,0 -8,1.4 -2.3,1.4 -4,4 -4.5,7.6 -0.2,1.8 -0.1,3.4 0.4,4.8 0.4,1.3 1.2,2.5 2.2,3.5 z"
             id="path53"
             inkscape:connector-curvature="0"
             style="fill:#ffffff" /><path
             class="st1"
             d="m 284.4,437.6 c 5.3,1.3 11.6,-0.5 13.5,-6.9 0.8,-3.2 0.4,-5.9 -1.1,-8.2 -1.4,-2.2 -3.8,-4 -6.4,-4.9 -2.6,-0.9 -5.5,-1 -8.1,0.1 -2.5,1 -4.8,3.2 -5.8,6.7 -2,7 2.4,11.8 7.9,13.2 z"
             id="path55"
             inkscape:connector-curvature="0"
             style="fill:#ffffff" /><path
             class="st1"
             d="m 298,398.1 c 5.1,2.2 11.5,1.4 14.3,-4.6 5.9,-11.6 -13.3,-22.9 -20,-9.8 -3.1,6.7 0.6,12.2 5.7,14.4 z"
             id="path57"
             inkscape:connector-curvature="0"
             style="fill:#ffffff" /><path
             class="st1"
             d="m 333,358.9 c 1.9,-2.7 2.2,-5.6 1.6,-8.1 -0.6,-2.6 -2.3,-5 -4.5,-6.7 -2.2,-1.7 -4.9,-2.7 -7.7,-2.6 -2.8,0.1 -5.5,1.5 -7.6,4.5 -2.1,3 -2.6,5.9 -1.8,8.6 0.8,2.7 2.6,4.9 4.9,6.4 2.3,1.5 5.1,2.3 7.8,2.1 2.8,-0.3 5.4,-1.5 7.3,-4.2 z"
             id="path59"
             inkscape:connector-curvature="0"
             style="fill:#ffffff" /><path
             class="st1"
             d="m 343,312.7 c -10.1,10.6 6.7,25.2 15.7,15.7 9.5,-9 -5.1,-25.9 -15.7,-15.7 z"
             id="path61"
             inkscape:connector-curvature="0"
             style="fill:#ffffff" /><path
             class="st1"
             d="m 393.7,295.2 c 0.3,-2.6 -0.5,-5.4 -2.1,-7.8 -1.5,-2.3 -3.8,-4.2 -6.4,-4.9 -2.7,-0.8 -5.6,-0.3 -8.6,1.8 -3,2.1 -4.3,4.8 -4.5,7.6 -0.1,2.8 0.9,5.5 2.6,7.7 1.7,2.2 4.1,3.9 6.7,4.5 2.6,0.6 5.4,0.3 8.1,-1.7 2.8,-2 4,-4.6 4.2,-7.2 z"
             id="path63"
             inkscape:connector-curvature="0"
             style="fill:#ffffff" /><path
             class="st1"
             d="m 428.3,267.5 c -1.1,-2.5 -3,-4.7 -5.5,-5.9 -1.2,-0.6 -2.6,-0.9 -4.1,-0.9 -1.5,0 -3.1,0.3 -4.7,1.2 -13.1,6.7 -1.8,25.9 9.8,20 1.5,-0.8 2.6,-1.7 3.5,-2.7 0.9,-1.1 1.5,-2.3 1.8,-3.6 0.7,-2.7 0.3,-5.6 -0.8,-8.1 z"
             id="path65"
             inkscape:connector-curvature="0"
             style="fill:#ffffff" /><path
             class="st1"
             d="m 468.2,253.7 c -1.3,-5.5 -6.2,-9.9 -13.2,-7.9 -3.5,0.9 -5.6,3.2 -6.7,5.8 -1,2.6 -1,5.5 -0.1,8.1 0.9,2.6 2.6,5 4.9,6.4 2.3,1.5 5,1.9 8.2,1 6.4,-1.7 8.2,-8 6.9,-13.4 z"
             id="path67"
             inkscape:connector-curvature="0"
             style="fill:#ffffff" /><path
             class="st1"
             d="m 497.6,237 c -3.6,0.5 -6.1,2.1 -7.5,4.5 -1.4,2.4 -1.8,5.3 -1.4,8 0.5,2.7 1.8,5.3 3.7,7.1 2,1.8 4.7,2.9 7.9,2.5 6.5,-0.9 9.4,-6.5 9,-12.1 -0.4,-5.6 -4.4,-11 -11.7,-10 z"
             id="path69"
             inkscape:connector-curvature="0"
             style="fill:#ffffff" /><path
             class="st1"
             d="m 546.3,236.3 c -0.7,-0.4 -1.4,-0.7 -2.2,-0.9 -0.8,-0.2 -1.6,-0.3 -2.5,-0.3 -14.7,-0.4 -14,21.9 -0.9,22.2 0.8,0 1.6,0 2.3,-0.2 0.7,-0.1 1.4,-0.3 2.1,-0.6 1.3,-0.5 2.4,-1.3 3.3,-2.3 1.8,-2 2.9,-4.7 3.1,-7.4 0.2,-2.8 -0.4,-5.6 -2,-7.8 -0.8,-1 -1.9,-2 -3.2,-2.7 z"
             id="path71"
             inkscape:connector-curvature="0"
             style="fill:#ffffff" /><path
             class="st1"
             d="m 584.8,240.4 c -14.5,-2.6 -17.4,19.4 -4.5,21.8 12.7,2.9 18.9,-18.5 4.5,-21.8 z"
             id="path73"
             inkscape:connector-curvature="0"
             style="fill:#ffffff" /><path
             class="st1"
             d="m 633.3,259.2 c -0.8,-2.6 -2.8,-4.9 -6.2,-6.2 -3.4,-1.3 -6.4,-1 -8.8,0.4 -2.4,1.4 -4.1,3.7 -5,6.4 -0.9,2.6 -1,5.5 -0.1,8 0.9,2.5 2.7,4.7 5.8,5.9 3.1,1.2 5.9,0.8 8.3,-0.4 2.3,-1.2 4.3,-3.4 5.4,-6 1,-2.5 1.4,-5.4 0.6,-8.1 z"
             id="path75"
             inkscape:connector-curvature="0"
             style="fill:#ffffff" /><path
             class="st1"
             d="m 671.2,279.3 c -0.2,-1.4 -0.7,-2.7 -1.5,-3.9 -0.8,-1.3 -2,-2.4 -3.6,-3.3 -6.3,-3.6 -12.1,-0.6 -14.7,4.4 -2.6,4.9 -2.4,11.5 3.3,14.7 1.5,0.8 2.9,1.3 4.2,1.4 1.4,0.2 2.7,0 4,-0.4 2.5,-0.9 4.8,-2.7 6.3,-5 1.6,-2.4 2.4,-5.2 2,-7.9 z"
             id="path77"
             inkscape:connector-curvature="0"
             style="fill:#ffffff" /><path
             class="st1"
             d="m 702.6,313 c 1.9,-2 3.2,-4.7 3.2,-7.4 0,-2.7 -1.1,-5.5 -3.8,-7.9 -2.7,-2.4 -5.8,-3 -8.5,-2.4 -2.7,0.5 -5.1,2.2 -6.8,4.4 -1.7,2.2 -2.7,4.9 -2.7,7.6 0,2.7 1.1,5.2 3.6,7.5 2.5,2.2 5.3,2.7 8,2.3 2.7,-0.6 5.1,-2 7,-4.1 z"
             id="path79"
             inkscape:connector-curvature="0"
             style="fill:#ffffff" /><path
             class="st1"
             d="m 735.3,336.9 c 0.5,-2.7 0,-5.8 -2.5,-8.5 -2.4,-2.7 -5.2,-3.9 -7.9,-3.8 -2.7,0.1 -5.4,1.3 -7.4,3.2 -2.1,1.9 -3.5,4.4 -3.9,7 -0.4,2.7 0.1,5.5 2.3,8 2.2,2.5 4.8,3.6 7.5,3.6 2.7,0 5.4,-1 7.6,-2.7 2.1,-1.7 3.7,-4.1 4.3,-6.8 z"
             id="path81"
             inkscape:connector-curvature="0"
             style="fill:#ffffff" /><path
             class="st1"
             d="m 739.4,375.6 c 6.5,11.3 26.4,1.4 19.1,-11.4 -0.9,-1.6 -2,-2.7 -3.3,-3.5 -1.2,-0.8 -2.6,-1.3 -3.9,-1.5 -2.7,-0.4 -5.5,0.4 -7.8,1.9 -2.3,1.5 -4.2,3.8 -5,6.3 -0.4,1.3 -0.6,2.6 -0.4,4 0,1.4 0.5,2.8 1.3,4.2 z"
             id="path83"
             inkscape:connector-curvature="0"
             style="fill:#ffffff" /><path
             class="st1"
             d="m 757.3,403.2 c -1.2,2.3 -1.7,5.2 -0.4,8.3 2.5,6.1 8.6,7.5 14,5.7 5.2,-1.8 9.5,-7.1 6.8,-13.8 -1.4,-3.4 -3.6,-5.4 -6.2,-6.2 -2.7,-0.8 -5.6,-0.5 -8.1,0.6 -2.7,1.1 -4.9,3 -6.1,5.4 z"
             id="path85"
             inkscape:connector-curvature="0"
             style="fill:#ffffff" /><path
             class="st1"
             d="m 768.5,450.1 c 1.2,6.5 7.3,8.8 12.8,8 5.5,-0.9 10.4,-5.3 9,-12.5 -3.4,-14.4 -24.8,-8.2 -21.8,4.5 z"
             id="path87"
             inkscape:connector-curvature="0"
             style="fill:#ffffff" /><path
             class="st1"
             d="m 783.8,478.8 c -2.8,0.2 -5.5,1.3 -7.4,3.1 -1,0.9 -1.8,2 -2.3,3.3 -0.3,0.6 -0.4,1.3 -0.5,2.1 -0.1,0.7 -0.2,1.5 -0.2,2.3 0.3,13 22.6,13.8 22.2,-0.9 0,-0.9 -0.1,-1.7 -0.3,-2.5 -0.2,-0.8 -0.5,-1.5 -0.9,-2.2 -0.7,-1.3 -1.7,-2.4 -2.8,-3.2 -2.2,-1.5 -5,-2.2 -7.8,-2 z"
             id="path89"
             inkscape:connector-curvature="0"
             style="fill:#ffffff" /></g></g></g></switch></svg>