<?xml version="1.0" encoding="UTF-8" standalone="no"?>
<svg
   xmlns:dc="http://purl.org/dc/elements/1.1/"
   xmlns:cc="http://creativecommons.org/ns#"
   xmlns:rdf="http://www.w3.org/1999/02/22-rdf-syntax-ns#"
   xmlns:svg="http://www.w3.org/2000/svg"
   xmlns="http://www.w3.org/2000/svg"
   xmlns:sodipodi="http://sodipodi.sourceforge.net/DTD/sodipodi-0.dtd"
   xmlns:inkscape="http://www.inkscape.org/namespaces/inkscape"
   version="1.1"
   id="l26"
   x="0px"
   y="0px"
   viewBox="0 0 1000 1000"
   width="100%"
   height="100%"
   style="enable-background:new 0 0 1000 1000;"
   xml:space="preserve"
  ><style
     type="text/css"
     id="style3">
	#l26 .noFillSVG{fill:none;}
</style><switch
     id="switch5"
     transform="translate(-84.35,0)"><g
       id="g7"><g
         id="g9"><circle
           class="noFillSVG"
           cx="584.40002"
           cy="500"
           r="334.79999"
           id="circle11"
           style="fill:none" /><path
           class="noFillSVG"
           d="m 584.4,142.8 c -197,0 -357.2,160.2 -357.2,357.2 0,197 160.2,357.2 357.2,357.2 197,0 357.2,-160.2 357.2,-357.2 0,-197 -160.3,-357.2 -357.2,-357.2 z m 0,696.6 C 397.2,839.4 245,687.1 245,500 245,312.9 397.3,160.6 584.4,160.6 c 187.1,0 339.4,152.2 339.4,339.4 0,187.2 -152.3,339.4 -339.4,339.4 z"
           id="path13"
           inkscape:connector-curvature="0"
           style="fill:none" /><path
           d="M 584.4,160.6 C 397.2,160.6 245,312.9 245,500 245,687.1 397.3,839.4 584.4,839.4 771.5,839.4 923.8,687.2 923.8,500 923.8,312.8 771.5,160.6 584.4,160.6 Z m 0,674.2 C 399.8,834.8 249.6,684.6 249.6,500 249.6,315.4 399.8,165.2 584.4,165.2 769,165.2 919.2,315.4 919.2,500 919.2,684.6 769,834.8 584.4,834.8 Z"
           id="path15"
           inkscape:connector-curvature="0" /><path
           d="M 584.4,131.3 C 381,131.3 215.6,296.7 215.6,500 215.6,703.3 381,868.7 584.4,868.7 787.8,868.7 953.1,703.3 953.1,500 953.1,296.7 787.7,131.3 584.4,131.3 Z m 0,725.9 C 387.4,857.2 227.2,697 227.2,500 c 0,-197 160.2,-357.2 357.2,-357.2 197,0 357.2,160.2 357.2,357.2 0,197 -160.3,357.2 -357.2,357.2 z"
           id="path17"
           inkscape:connector-curvature="0" /></g></g></switch></svg>