<?xml version="1.0" encoding="UTF-8" standalone="no"?>
<svg
   xmlns:dc="http://purl.org/dc/elements/1.1/"
   xmlns:cc="http://creativecommons.org/ns#"
   xmlns:rdf="http://www.w3.org/1999/02/22-rdf-syntax-ns#"
   xmlns:svg="http://www.w3.org/2000/svg"
   xmlns="http://www.w3.org/2000/svg"
   xmlns:sodipodi="http://sodipodi.sourceforge.net/DTD/sodipodi-0.dtd"
   xmlns:inkscape="http://www.inkscape.org/namespaces/inkscape"
   version="1.1"
   id="Layer_1"
   x="0px"
   y="0px"
   viewBox="0 0 1000 1000"
   width="100%"
   height="100%"
   style="enable-background:new 0 0 1000 1000;"
   xml:space="preserve"
  ><style
     type="text/css"
     id="style3">
	.noFillSVG{fill:none;}
</style><switch
     id="switch5"
     transform="translate(-14.695492,0.25)"><g
       id="g7"><g
         id="g9"><circle
           transform="matrix(0.7071,-0.7071,0.7071,0.7071,-202.9167,510.1157)"
           class="noFillSVG"
           cx="514.29999"
           cy="500"
           id="ellipse11"
           r="319.60001"
           style="fill:none" /><path
           d="m 890.7,474.7 c -0.6,-8.1 -3.9,-14 -8.9,-17.4 -4.9,-3.5 -11,-4.6 -16.8,-3.9 -5.8,0.8 -11.4,3.4 -15.3,7.5 -0.9,1 -1.8,2.2 -2.6,3.4 -2.2,-20.4 -6.2,-40.2 -11.9,-59.3 1.2,0.8 2.4,1.5 3.7,2.1 5.2,2.3 11.4,2.6 17.1,1.1 5.7,-1.5 10.8,-4.9 14,-10 1.6,-2.5 2.6,-5.5 3,-8.8 0.4,-3.3 -0.2,-6.9 -1.5,-10.8 -1.3,-3.9 -3.1,-7 -5.4,-9.4 -2.3,-2.4 -5,-4.1 -7.7,-5.1 -5.6,-2.1 -11.7,-1.7 -17.1,0.6 -5.4,2.2 -10.2,6.3 -12.9,11.3 -0.7,1.3 -1.3,2.6 -1.7,4 -7.5,-19.4 -16.7,-37.8 -27.4,-55.3 1.4,0.5 2.9,0.9 4.3,1.1 5.6,0.9 11.6,-0.4 16.7,-3.4 5.1,-2.9 9.2,-7.6 11,-13.3 1.7,-5.7 0.8,-12.4 -3.6,-19.3 -4.7,-6.7 -10.7,-10 -16.5,-10.6 -6,-0.6 -11.8,1.5 -16.5,5.1 -4.7,3.6 -8.1,8.6 -9.4,14.2 -0.4,1.5 -0.6,2.9 -0.6,4.5 -12,-16.4 -25.4,-31.7 -40.1,-45.6 1.5,0.1 2.9,0.1 4.4,0 5.7,-0.7 11.2,-3.5 15.4,-7.7 4.2,-4.2 6.9,-9.6 7.1,-15.6 0.1,-3 -0.5,-6 -1.8,-9.1 -0.7,-1.5 -1.5,-3.1 -2.6,-4.5 -1.1,-1.4 -2.4,-2.8 -4,-4.2 -3.1,-2.7 -6.3,-4.4 -9.4,-5.4 -3.2,-0.9 -6.3,-1 -9.3,-0.6 -5.9,1 -11,4.4 -14.6,9.1 -3.6,4.7 -5.7,10.5 -5.5,16.2 0,1.5 0.2,3 0.6,4.4 -16,-13 -33.2,-24.5 -51.4,-34.4 0.1,0 0.1,0 0.2,0 1.4,-0.2 2.8,-0.6 4.1,-1.1 5.3,-2 9.9,-6.2 12.8,-11.3 2.9,-5.1 4.2,-11.1 2.9,-17 -0.3,-1.5 -0.8,-2.9 -1.5,-4.3 -0.7,-1.4 -1.6,-2.7 -2.6,-3.9 -2.1,-2.5 -5,-4.8 -8.6,-6.7 -0.9,-0.5 -1.8,-0.9 -2.7,-1.2 -0.9,-0.3 -1.8,-0.6 -2.7,-0.8 -1.8,-0.4 -3.5,-0.6 -5.1,-0.7 -3.3,-0.1 -6.4,0.6 -9,1.8 -5.4,2.3 -9.5,7.2 -11.7,12.6 -2.3,5.5 -2.7,11.5 -1.1,17.1 0.4,1.4 0.9,2.8 1.6,4.1 -18.3,-8.1 -37.5,-14.7 -57.3,-19.4 1.3,-0.6 2.5,-1.4 3.7,-2.2 4.6,-3.5 7.9,-8.5 9.5,-14.2 1.5,-5.6 1.2,-12 -1.6,-17.1 -1.4,-2.6 -3.4,-4.9 -6.1,-6.9 -1.3,-1 -2.8,-1.8 -4.5,-2.6 -1.7,-0.7 -3.5,-1.4 -5.5,-1.7 -8,-1.4 -14.6,0.3 -19.2,4.1 -4.6,3.9 -7.3,9.4 -8.1,15.3 -0.8,5.8 0.4,11.9 3.3,16.7 0.7,1.2 1.6,2.4 2.6,3.4 -17,-2.7 -34.5,-4.1 -52.2,-4.1 -3.1,0 -6.1,0 -9.1,0.1 1.1,-0.9 2,-1.9 2.9,-3 3.6,-4.5 5.5,-10.4 5.5,-16.3 0,-5.9 -1.9,-11.7 -6,-16 -2,-2.2 -4.6,-3.9 -7.7,-5.1 -1.5,-0.6 -3.2,-1.1 -5,-1.4 -1.8,-0.2 -3.7,-0.3 -5.7,-0.1 -8.1,0.6 -14,3.9 -17.4,8.9 -3.5,4.9 -4.6,11 -3.9,16.8 0.8,5.8 3.4,11.4 7.5,15.3 1,0.9 2.2,1.8 3.4,2.6 -20.4,2.2 -40.2,6.2 -59.3,11.9 0.8,-1.2 1.5,-2.4 2.1,-3.7 2.3,-5.2 2.6,-11.4 1.1,-17.1 -1.5,-5.7 -4.9,-10.8 -10,-14 -2.5,-1.6 -5.5,-2.6 -8.8,-3 -3.3,-0.4 -6.9,0.2 -10.8,1.5 -3.9,1.3 -7,3.1 -9.4,5.4 -2.4,2.3 -4.1,5 -5.1,7.7 -2.1,5.6 -1.7,11.7 0.6,17.1 2.2,5.4 6.3,10.2 11.3,12.9 1.3,0.7 2.6,1.3 4,1.7 -19.3,7.5 -37.8,16.7 -55.3,27.4 0.5,-1.4 0.9,-2.9 1.1,-4.3 0.9,-5.6 -0.4,-11.6 -3.4,-16.7 -2.9,-5.1 -7.6,-9.2 -13.3,-11 -5.7,-1.7 -12.4,-0.8 -19.3,3.6 -6.7,4.7 -10,10.7 -10.6,16.5 -0.6,6 1.5,11.8 5.1,16.5 3.6,4.7 8.6,8.1 14.2,9.4 1.5,0.4 2.9,0.6 4.5,0.6 -16.4,12 -31.7,25.4 -45.6,40.1 0.1,-1.5 0.1,-2.9 0,-4.4 -0.7,-5.7 -3.5,-11.2 -7.7,-15.4 -4.2,-4.2 -9.6,-6.9 -15.6,-7.1 -3,-0.1 -6,0.5 -9.1,1.8 -1.5,0.7 -3.1,1.5 -4.5,2.6 -1.4,1.1 -2.8,2.4 -4.2,4 -2.7,3.1 -4.4,6.3 -5.4,9.4 -0.9,3.2 -1,6.3 -0.6,9.3 1,5.9 4.4,11 9.1,14.6 4.7,3.6 10.5,5.7 16.2,5.5 1.5,0 3,-0.2 4.4,-0.6 -13,16 -24.5,33.2 -34.4,51.4 0,-0.1 0,-0.1 0,-0.2 -0.2,-1.4 -0.6,-2.8 -1.1,-4.1 -2,-5.3 -6.2,-9.9 -11.3,-12.8 -5.1,-2.9 -11.1,-4.2 -17,-2.9 -1.5,0.3 -2.9,0.8 -4.3,1.5 -1.4,0.7 -2.7,1.6 -3.9,2.6 -2.5,2.1 -4.8,5 -6.7,8.6 -0.5,0.9 -0.9,1.8 -1.2,2.7 -0.3,0.9 -0.6,1.8 -0.8,2.7 -0.4,1.8 -0.6,3.5 -0.7,5.1 -0.1,3.3 0.6,6.4 1.8,9 2.3,5.4 7.2,9.5 12.6,11.7 5.5,2.3 11.5,2.7 17.1,1.1 1.4,-0.4 2.8,-0.9 4.1,-1.6 -8.1,18.3 -14.7,37.5 -19.4,57.3 -0.6,-1.3 -1.4,-2.5 -2.2,-3.7 -3.5,-4.6 -8.5,-7.9 -14.2,-9.5 -5.6,-1.5 -12,-1.2 -17.1,1.6 -2.6,1.4 -4.9,3.4 -6.9,6.1 -1,1.3 -1.8,2.8 -2.6,4.5 -0.7,1.7 -1.4,3.5 -1.7,5.5 -1.4,8 0.3,14.6 4.1,19.2 3.9,4.6 9.4,7.3 15.3,8.1 5.8,0.8 11.9,-0.4 16.7,-3.3 1.2,-0.7 2.4,-1.6 3.4,-2.6 -2.7,17 -4.1,34.5 -4.1,52.2 0,3.1 0,6.1 0.1,9.1 -0.9,-1.1 -1.9,-2 -3,-2.9 -4.5,-3.6 -10.4,-5.5 -16.3,-5.5 -5.9,0 -11.7,1.9 -16,6 -2.2,2 -3.9,4.6 -5.1,7.7 -0.6,1.5 -1.1,3.2 -1.4,5 -0.2,1.8 -0.3,3.7 -0.1,5.7 0.6,8.1 3.9,14 8.9,17.4 4.9,3.5 11,4.6 16.8,3.9 5.8,-0.8 11.4,-3.4 15.3,-7.5 0.9,-1 1.8,-2.2 2.6,-3.4 2.2,20.4 6.2,40.2 11.9,59.3 -1.2,-0.8 -2.4,-1.5 -3.7,-2.1 -5.2,-2.3 -11.4,-2.6 -17.1,-1.1 -5.7,1.5 -10.8,4.9 -14,10 -1.6,2.5 -2.6,5.5 -3,8.8 -0.4,3.3 0.2,6.9 1.5,10.8 1.3,3.9 3.1,7 5.4,9.4 2.3,2.4 5,4.1 7.7,5.1 5.6,2.1 11.7,1.7 17.1,-0.6 5.4,-2.2 10.2,-6.3 12.9,-11.3 0.7,-1.3 1.3,-2.6 1.7,-4 7.5,19.3 16.7,37.8 27.4,55.3 -1.4,-0.5 -2.9,-0.9 -4.3,-1.1 -5.6,-0.9 -11.6,0.4 -16.7,3.4 -5.1,2.9 -9.2,7.6 -11,13.3 -1.7,5.7 -0.8,12.4 3.6,19.3 4.7,6.7 10.7,10 16.5,10.6 6,0.6 11.8,-1.5 16.5,-5.1 4.7,-3.6 8.1,-8.6 9.4,-14.2 0.4,-1.5 0.6,-2.9 0.6,-4.5 12,16.4 25.4,31.7 40.1,45.6 -1.5,-0.1 -2.9,-0.1 -4.4,0 -5.7,0.7 -11.2,3.5 -15.4,7.7 -4.2,4.2 -6.9,9.6 -7.1,15.6 -0.1,3 0.5,6 1.8,9.1 0.7,1.5 1.5,3.1 2.6,4.5 1.1,1.4 2.4,2.8 4,4.2 3.1,2.7 6.3,4.4 9.4,5.4 3.2,0.9 6.3,1 9.3,0.6 5.9,-1 11,-4.4 14.6,-9.1 3.6,-4.7 5.7,-10.5 5.5,-16.2 0,-1.5 -0.2,-3 -0.6,-4.4 16,13 33.2,24.5 51.4,34.4 -0.1,0 -0.1,0 -0.2,0 -1.4,0.2 -2.8,0.6 -4.1,1.1 -5.3,2 -9.9,6.2 -12.8,11.3 -2.9,5.1 -4.2,11.1 -2.9,17 0.3,1.5 0.8,2.9 1.5,4.3 0.7,1.4 1.6,2.7 2.6,3.9 2.1,2.5 5,4.8 8.6,6.7 0.9,0.5 1.8,0.9 2.7,1.2 0.9,0.3 1.8,0.6 2.7,0.8 1.8,0.4 3.5,0.6 5.1,0.7 3.3,0.1 6.4,-0.6 9,-1.8 5.4,-2.3 9.5,-7.2 11.7,-12.6 2.3,-5.5 2.7,-11.5 1.1,-17.1 -0.4,-1.4 -0.9,-2.8 -1.6,-4.1 18.3,8.1 37.5,14.7 57.3,19.4 -1.3,0.6 -2.5,1.4 -3.7,2.2 -4.6,3.5 -7.9,8.5 -9.5,14.2 -1.5,5.6 -1.2,12 1.6,17.1 1.4,2.6 3.4,4.9 6.1,6.9 1.3,1 2.8,1.8 4.5,2.6 1.7,0.7 3.5,1.4 5.5,1.7 8,1.4 14.6,-0.3 19.2,-4.1 4.6,-3.9 7.3,-9.4 8.1,-15.3 0.8,-5.8 -0.4,-11.9 -3.3,-16.7 -0.7,-1.2 -1.6,-2.4 -2.6,-3.4 17,2.7 34.5,4.1 52.2,4.1 3.1,0 6.1,0 9.1,-0.1 -1.1,0.9 -2,1.9 -2.9,3 -3.6,4.5 -5.5,10.4 -5.4,16.3 0,5.9 1.9,11.7 6,16 2,2.2 4.6,3.9 7.7,5.1 1.5,0.6 3.2,1.1 5,1.4 1.8,0.2 3.7,0.3 5.8,0.1 8.1,-0.6 14,-3.9 17.4,-8.9 3.5,-4.9 4.6,-11 3.9,-16.8 -0.8,-5.8 -3.4,-11.4 -7.5,-15.3 -1,-0.9 -2.2,-1.8 -3.4,-2.6 20.4,-2.2 40.2,-6.2 59.3,-11.9 -0.8,1.2 -1.5,2.4 -2.1,3.7 -2.3,5.2 -2.6,11.4 -1.1,17.1 1.5,5.7 4.9,10.8 10,14 2.5,1.6 5.5,2.6 8.8,3 3.3,0.4 6.9,-0.2 10.8,-1.5 3.9,-1.3 7,-3.1 9.4,-5.4 2.4,-2.3 4.1,-5 5.1,-7.7 2.1,-5.6 1.7,-11.7 -0.6,-17.1 -2.2,-5.4 -6.3,-10.2 -11.3,-12.9 -1.3,-0.7 -2.6,-1.3 -4,-1.7 19.3,-7.5 37.8,-16.7 55.3,-27.4 -0.5,1.4 -0.9,2.9 -1.1,4.3 -0.9,5.6 0.4,11.6 3.4,16.7 2.9,5.1 7.6,9.2 13.3,11 5.7,1.7 12.4,0.8 19.3,-3.6 6.7,-4.7 10,-10.7 10.6,-16.5 0.6,-6 -1.5,-11.8 -5.1,-16.5 -3.6,-4.7 -8.6,-8.1 -14.2,-9.4 -1.5,-0.4 -2.9,-0.6 -4.5,-0.6 16.4,-12 31.7,-25.4 45.6,-40.1 -0.1,1.5 -0.1,2.9 0,4.4 0.7,5.7 3.5,11.2 7.7,15.4 4.2,4.2 9.6,6.9 15.6,7.1 3,0.1 6,-0.5 9.1,-1.8 1.5,-0.7 3.1,-1.5 4.5,-2.6 1.4,-1.1 2.8,-2.4 4.2,-4 2.7,-3.1 4.4,-6.3 5.4,-9.4 0.9,-3.2 1,-6.3 0.6,-9.3 -1,-5.9 -4.4,-11 -9.1,-14.6 -4.7,-3.6 -10.5,-5.7 -16.2,-5.5 -1.5,0 -3,0.2 -4.4,0.6 13,-16 24.5,-33.2 34.4,-51.4 0,0.1 0,0.1 0,0.2 0.2,1.4 0.6,2.8 1.1,4.1 2,5.3 6.2,9.9 11.3,12.8 5.1,2.9 11.1,4.2 17,2.9 1.5,-0.3 2.9,-0.8 4.3,-1.5 1.4,-0.7 2.7,-1.6 4,-2.6 2.5,-2.1 4.8,-5 6.7,-8.6 0.5,-0.9 0.9,-1.8 1.2,-2.7 0.3,-0.9 0.6,-1.8 0.8,-2.7 0.4,-1.8 0.6,-3.5 0.7,-5.1 0.1,-3.3 -0.6,-6.4 -1.8,-9 -2.3,-5.4 -7.2,-9.5 -12.6,-11.7 -5.5,-2.3 -11.5,-2.7 -17.1,-1.1 -1.4,0.4 -2.8,0.9 -4.1,1.6 8.1,-18.3 14.7,-37.5 19.4,-57.3 0.6,1.3 1.4,2.5 2.2,3.7 3.5,4.6 8.5,7.9 14.2,9.5 5.6,1.5 12,1.2 17.1,-1.6 2.6,-1.4 4.9,-3.4 6.9,-6.1 1,-1.3 1.8,-2.8 2.6,-4.5 0.7,-1.7 1.4,-3.5 1.7,-5.5 1.4,-8 -0.3,-14.6 -4.1,-19.2 -3.9,-4.6 -9.4,-7.3 -15.3,-8.1 -5.8,-0.8 -11.9,0.4 -16.7,3.3 -1.2,0.7 -2.4,1.6 -3.4,2.6 2.7,-17 4.1,-34.5 4.1,-52.2 0,-3.1 0,-6.1 -0.1,-9.1 0.9,1.1 1.9,2 3,2.9 4.5,3.6 10.4,5.5 16.3,5.4 5.9,0 11.7,-1.9 16,-6 2.2,-2 3.9,-4.6 5.1,-7.7 0.6,-1.5 1.1,-3.2 1.4,-5 -0.1,-1.6 -0.1,-3.6 -0.2,-5.6 z M 514.3,819.6 C 338.1,819.6 194.7,676.2 194.7,500 c 0,-176.2 143.4,-319.6 319.6,-319.6 176.2,0 319.6,143.4 319.6,319.6 0,176.2 -143.4,319.6 -319.6,319.6 z"
           id="path13"
           inkscape:connector-curvature="0" /></g></g></switch></svg>