<?xml version="1.0" encoding="utf-8"?>
<!-- Generator: Adobe Illustrator 21.1.0, SVG Export Plug-In . SVG Version: 6.00 Build 0)  -->
<svg version="1.1"
	 id="Layer_1"  xmlns:cc="http://creativecommons.org/ns#" xmlns:dc="http://purl.org/dc/elements/1.1/" xmlns:inkscape="http://www.inkscape.org/namespaces/inkscape" xmlns:rdf="http://www.w3.org/1999/02/22-rdf-syntax-ns#" xmlns:sodipodi="http://sodipodi.sourceforge.net/DTD/sodipodi-0.dtd" xmlns:svg="http://www.w3.org/2000/svg"
	 xmlns="http://www.w3.org/2000/svg" xmlns:xlink="http://www.w3.org/1999/xlink" x="0px" y="0px" viewBox="87.60000610351562 177.6999969482422 436.8999328613281 436.699951171875"
	 style="enable-background:new 0 0 612 792;" xml:space="preserve">
<sodipodi:namedview  bordercolor="#666666" borderopacity="1" gridtolerance="10" guidetolerance="10" id="namedview137" inkscape:current-layer="Layer_1" inkscape:cx="23.305085" inkscape:cy="500" inkscape:pageopacity="0" inkscape:pageshadow="2" inkscape:window-height="480" inkscape:window-maximized="0" inkscape:window-width="671" inkscape:window-x="0" inkscape:window-y="34" inkscape:zoom="0.236" objecttolerance="10" pagecolor="#ffffff" showgrid="false">
	</sodipodi:namedview>
<g id="g7">
	<g id="g9">
		<g id="g11">
			<path id="path13" inkscape:connector-curvature="0" d="M310.9,614.3c-1.7,0-3-1.3-3-2.9c-0.1-1.7,1.3-3.1,2.9-3.1
				c3.3-0.1,6.7-0.2,10-0.4c1.7-0.1,3.1,1.2,3.2,2.8c0.1,1.7-1.2,3.1-2.8,3.2c-3.4,0.2-6.9,0.4-10.2,0.5
				C311,614.3,310.9,614.3,310.9,614.3L310.9,614.3z M300.8,614.3L300.8,614.3c-3.5-0.1-6.9-0.2-10.3-0.5c-1.7-0.1-2.9-1.6-2.8-3.2
				s1.5-2.9,3.2-2.8c3.3,0.2,6.6,0.4,10,0.5c1.7,0.1,3,1.4,2.9,3.1C303.8,613,302.5,614.3,300.8,614.3z M331,612.9
				c-1.5,0-2.8-1.2-3-2.7c-0.2-1.7,1-3.2,2.6-3.4c3.3-0.4,6.6-0.9,9.9-1.4c1.7-0.2,3.2,0.9,3.5,2.5c0.2,1.7-0.9,3.2-2.5,3.5
				c-3.4,0.6-6.7,1-10.2,1.4C331.3,612.9,331.2,612.9,331,612.9L331,612.9z M280.7,612.9c-0.1,0-0.2,0-0.4,0
				c-3.4-0.4-6.8-0.9-10.2-1.4c-1.7-0.2-2.8-1.8-2.5-3.5s1.8-2.8,3.5-2.5c3.2,0.6,6.5,1,9.9,1.4c1.7,0.2,2.9,1.7,2.6,3.4
				C283.5,611.7,282.2,612.9,280.7,612.9L280.7,612.9z M351,609.6c-1.4,0-2.6-1-2.9-2.4c-0.4-1.7,0.7-3.2,2.3-3.6
				c3.2-0.7,6.5-1.5,9.7-2.3c1.6-0.4,3.3,0.6,3.7,2.1c0.4,1.6-0.6,3.3-2.1,3.7c-3.3,0.9-6.6,1.7-10,2.4
				C351.4,609.6,351.2,609.6,351,609.6z M260.7,609.6c-0.2,0-0.4,0-0.6-0.1c-3.3-0.7-6.7-1.5-10-2.4c-1.6-0.4-2.6-2.1-2.1-3.7
				c0.4-1.6,2.1-2.6,3.7-2.1c3.2,0.9,6.4,1.6,9.7,2.3c1.7,0.4,2.7,2,2.3,3.6C263.4,608.6,262.1,609.6,260.7,609.6L260.7,609.6z
				 M370.5,604.5c-1.3,0-2.5-0.9-2.9-2.1c-0.5-1.6,0.4-3.3,2-3.8c3.2-1,6.3-2.1,9.4-3.2c1.6-0.6,3.3,0.2,3.9,1.8
				c0.6,1.6-0.2,3.3-1.8,3.9c-3.2,1.2-6.4,2.3-9.7,3.3C371.1,604.4,370.8,604.5,370.5,604.5L370.5,604.5z M241.2,604.4
				c-0.3,0-0.6-0.1-0.9-0.1c-3.2-1-6.5-2.1-9.7-3.3c-1.6-0.6-2.4-2.3-1.8-3.9c0.6-1.6,2.3-2.4,3.9-1.8c3.1,1.2,6.3,2.2,9.4,3.2
				c1.6,0.5,2.5,2.2,2,3.8C243.7,603.7,242.5,604.4,241.2,604.4L241.2,604.4z M389.4,597.6c-1.2,0-2.3-0.7-2.8-1.8
				c-0.7-1.5,0.1-3.3,1.6-4c3.1-1.3,6.1-2.6,9.1-4.1c1.5-0.7,3.3-0.1,4,1.4c0.7,1.5,0.1,3.3-1.4,4c-3.1,1.5-6.2,2.9-9.3,4.2
				C390.2,597.5,389.8,597.6,389.4,597.6L389.4,597.6z M222.2,597.5c-0.4,0-0.8-0.1-1.2-0.2c-3.1-1.3-6.3-2.8-9.4-4.2
				c-1.5-0.7-2.1-2.5-1.4-4s2.5-2.1,4-1.4c3,1.4,6.1,2.8,9.1,4.1c1.5,0.7,2.3,2.4,1.6,4C224.5,596.8,223.4,597.5,222.2,597.5
				L222.2,597.5z M407.7,588.9c-1.1,0-2.1-0.6-2.7-1.6c-0.8-1.5-0.2-3.3,1.2-4.1c2.9-1.5,5.8-3.2,8.6-4.9c1.4-0.9,3.3-0.4,4.2,1
				c0.9,1.4,0.4,3.3-1,4.2c-2.9,1.8-5.9,3.4-8.9,5C408.6,588.8,408.1,588.9,407.7,588.9L407.7,588.9z M204,588.7
				c-0.5,0-1-0.1-1.4-0.4c-3-1.6-6-3.3-8.9-5.1c-1.4-0.9-1.9-2.8-1-4.2s2.7-1.9,4.2-1c2.8,1.7,5.8,3.4,8.7,5c1.5,0.8,2,2.6,1.2,4.1
				C206.1,588.2,205,588.7,204,588.7z M424.9,578.5c-1,0-2-0.5-2.5-1.3c-0.9-1.4-0.6-3.3,0.9-4.2c2.8-1.8,5.5-3.7,8.1-5.7
				c1.3-1,3.2-0.7,4.2,0.7c1,1.3,0.7,3.2-0.7,4.2c-2.8,2-5.6,4-8.4,5.9C426.1,578.4,425.5,578.5,424.9,578.5L424.9,578.5z
				 M186.6,578.3c-0.6,0-1.2-0.2-1.7-0.5c-2.8-1.9-5.7-3.9-8.4-5.9c-1.3-1-1.7-2.9-0.6-4.2c1-1.3,2.9-1.7,4.2-0.6
				c2.6,2,5.4,3.9,8.1,5.7c1.4,0.9,1.8,2.8,0.9,4.2C188.6,577.8,187.6,578.3,186.6,578.3L186.6,578.3z M441.2,566.6
				c-0.9,0-1.8-0.4-2.4-1.1c-1-1.3-0.9-3.2,0.4-4.3c2.6-2.1,5.1-4.2,7.6-6.4c1.2-1.1,3.2-1,4.3,0.2s1,3.2-0.2,4.3
				c-2.5,2.3-5.1,4.5-7.8,6.6C442.5,566.4,441.9,566.6,441.2,566.6z M170.4,566.3c-0.7,0-1.3-0.2-1.9-0.7c-2.6-2.1-5.3-4.3-7.8-6.6
				c-1.2-1.1-1.3-3-0.2-4.3c1.1-1.2,3-1.3,4.3-0.2c2.5,2.2,5,4.4,7.6,6.5c1.3,1,1.5,2.9,0.4,4.3C172.1,566,171.2,566.3,170.4,566.3
				L170.4,566.3z M456.3,553.2c-0.8,0-1.6-0.3-2.1-0.9c-1.2-1.2-1.2-3.1,0.1-4.3c2.4-2.3,4.7-4.7,7-7.1c1.2-1.2,3.1-1.3,4.3-0.1
				s1.3,3.1,0.1,4.3c-2.3,2.5-4.7,5-7.2,7.3C457.8,552.9,457,553.2,456.3,553.2z M155.3,552.9c-0.8,0-1.5-0.3-2.1-0.9
				c-2.4-2.4-4.8-4.8-7.2-7.3c-1.2-1.2-1-3.1,0.2-4.3c1.2-1.2,3.1-1,4.3,0.2c2.3,2.4,4.6,4.8,7,7.2c1.2,1.2,1.2,3.1,0.1,4.3
				C156.9,552.5,156.1,552.9,155.3,552.9L155.3,552.9z M470.1,538.4c-0.7,0-1.4-0.2-2-0.7c-1.3-1.1-1.4-3-0.4-4.3
				c2.1-2.5,4.2-5.1,6.3-7.7c1-1.3,2.9-1.6,4.2-0.6c1.3,1,1.6,2.9,0.6,4.2c-2.1,2.7-4.3,5.4-6.4,8
				C471.8,538,470.9,538.4,470.1,538.4L470.1,538.4z M141.6,538.1c-0.9,0-1.7-0.4-2.3-1.1c-2.2-2.6-4.3-5.3-6.4-8
				c-1-1.3-0.8-3.2,0.6-4.2c1.3-1,3.2-0.8,4.2,0.6c2,2.6,4.1,5.2,6.2,7.8c1.1,1.3,0.9,3.2-0.4,4.3
				C142.9,537.9,142.2,538.1,141.6,538.1z M482.4,522.4c-0.6,0-1.2-0.2-1.7-0.6c-1.3-1-1.7-2.9-0.7-4.2c1.9-2.7,3.7-5.5,5.5-8.3
				c0.9-1.4,2.8-1.8,4.2-0.9s1.8,2.8,0.9,4.2c-1.8,2.9-3.7,5.8-5.7,8.5C484.3,521.9,483.4,522.4,482.4,522.4z M129.2,522.1
				c-1,0-1.9-0.4-2.5-1.3c-2-2.8-3.9-5.6-5.6-8.5c-0.9-1.4-0.5-3.3,0.9-4.2c1.4-0.9,3.3-0.5,4.2,0.9c1.8,2.8,3.6,5.6,5.5,8.3
				c1,1.3,0.6,3.2-0.7,4.2C130.4,521.9,129.8,522.1,129.2,522.1L129.2,522.1z M493.2,505.3c-0.5,0-1-0.1-1.5-0.4
				c-1.5-0.9-2-2.7-1.2-4.2c1.7-2.9,3.2-5.8,4.7-8.8c0.7-1.5,2.6-2.1,4.1-1.3c1.5,0.7,2.1,2.6,1.3,4.1c-1.5,3.1-3.2,6.1-4.8,9.1
				C495.3,504.8,494.3,505.3,493.2,505.3L493.2,505.3z M118.5,505.1c-1,0-2.1-0.6-2.6-1.5c-1.7-2.9-3.3-6-4.8-9
				c-0.7-1.5-0.2-3.3,1.3-4.1c1.5-0.7,3.3-0.2,4.1,1.3c1.5,2.9,3.1,5.9,4.7,8.8c0.8,1.5,0.3,3.3-1.2,4.2
				C119.5,504.9,119,505.1,118.5,505.1L118.5,505.1z M502.4,487.3c-0.4,0-0.9-0.1-1.2-0.2c-1.5-0.7-2.2-2.5-1.5-4
				c1.3-3,2.7-6.1,3.9-9.2c0.6-1.5,2.4-2.3,3.9-1.7s2.3,2.4,1.7,3.9c-1.2,3.2-2.6,6.4-4,9.5C504.7,486.6,503.6,487.3,502.4,487.3z
				 M109.4,487.1c-1.2,0-2.3-0.7-2.8-1.8c-1.4-3.1-2.7-6.2-4-9.4c-0.6-1.5,0.2-3.3,1.7-3.9s3.3,0.2,3.9,1.7c1.2,3.1,2.5,6.2,3.9,9.2
				c0.7,1.5,0,3.3-1.5,4C110.2,486.9,109.8,487.1,109.4,487.1L109.4,487.1z M509.9,468.5c-0.3,0-0.7-0.1-1-0.2
				c-1.6-0.6-2.4-2.3-1.9-3.9c1-3.1,2.1-6.3,3-9.5c0.5-1.6,2.1-2.5,3.7-2.1c1.6,0.5,2.5,2.1,2.1,3.7c-0.9,3.2-2,6.5-3.1,9.8
				C512.2,467.7,511.1,468.5,509.9,468.5L509.9,468.5z M102,468.3c-1.3,0-2.4-0.8-2.9-2.1c-1.1-3.2-2.1-6.5-3.1-9.8
				c-0.5-1.6,0.5-3.3,2.1-3.7c1.6-0.5,3.3,0.5,3.7,2.1c0.9,3.2,1.9,6.4,3,9.5c0.6,1.6-0.3,3.3-1.9,3.9
				C102.6,468.2,102.3,468.3,102,468.3z M515.4,449.1c-0.2,0-0.5,0-0.7-0.1c-1.7-0.4-2.6-2-2.3-3.7c0.7-3.2,1.5-6.5,2.1-9.7
				c0.3-1.7,1.9-2.8,3.5-2.4c1.7,0.3,2.8,1.9,2.4,3.5c-0.6,3.4-1.3,6.7-2.1,10C518.1,448.1,516.8,449.1,515.4,449.1z M96.4,448.9
				c-1.3,0-2.6-0.9-2.9-2.3c-0.8-3.3-1.5-6.7-2.1-10c-0.3-1.7,0.8-3.2,2.4-3.5s3.2,0.8,3.5,2.4c0.6,3.2,1.3,6.5,2.1,9.7
				c0.4,1.7-0.6,3.2-2.3,3.7C96.9,448.8,96.6,448.9,96.4,448.9z M519.2,429.2c-0.1,0-0.3,0-0.4,0c-1.7-0.2-2.8-1.8-2.6-3.4
				c0.5-3.3,0.9-6.6,1.2-9.9c0.2-1.7,1.7-2.9,3.3-2.8c1.7,0.2,2.9,1.7,2.8,3.3c-0.3,3.4-0.7,6.8-1.2,10.2
				C522,428.1,520.7,429.2,519.2,429.2z M92.7,429c-1.5,0-2.8-1.1-3-2.6c-0.5-3.4-0.9-6.8-1.2-10.2c-0.2-1.7,1.1-3.1,2.8-3.3
				c1.7-0.2,3.1,1.1,3.3,2.8c0.3,3.3,0.7,6.6,1.2,9.9c0.2,1.7-0.9,3.2-2.6,3.4C93,429,92.8,429,92.7,429z M521.1,409.1
				c-0.1,0-0.1,0-0.1,0c-1.7-0.1-2.9-1.5-2.9-3.2c0.1-3.3,0.2-6.7,0.2-10c0-1.7,1.3-3.1,3.1-3.1c1.7,0,3.1,1.3,3.1,3.1
				c0,3.4-0.1,6.9-0.2,10.2C524,407.9,522.6,409.1,521.1,409.1z M90.8,408.9c-1.6,0-2.9-1.3-3-2.9c-0.1-3.3-0.2-6.7-0.2-10v-0.2
				c0-1.7,1.3-3.1,3.1-3.1c1.7,0,3.1,1.3,3.1,3.1v0.2c0,3.2,0.1,6.5,0.2,9.7c0.1,1.7-1.2,3.1-2.9,3.2
				C90.9,408.9,90.9,408.9,90.8,408.9z M521.1,389.3c-1.6,0-2.9-1.3-3-2.9c-0.1-3.3-0.4-6.7-0.7-9.9c-0.1-1.7,1.1-3.1,2.8-3.3
				s3.1,1.1,3.3,2.8c0.3,3.4,0.6,6.8,0.7,10.2c0.1,1.7-1.2,3.1-2.9,3.2C521.1,389.3,521.1,389.3,521.1,389.3z M90.8,388.7
				c-0.1,0-0.1,0-0.1,0c-1.7-0.1-2.9-1.5-2.9-3.2c0.2-3.4,0.4-6.9,0.7-10.2c0.2-1.7,1.7-2.9,3.3-2.8c1.7,0.2,2.9,1.7,2.8,3.3
				c-0.3,3.3-0.6,6.6-0.7,9.9C93.8,387.4,92.5,388.7,90.8,388.7L90.8,388.7z M519.2,369.3c-1.5,0-2.8-1.1-3-2.6
				c-0.4-3.3-1-6.6-1.6-9.9c-0.3-1.7,0.8-3.2,2.4-3.5s3.2,0.8,3.5,2.4c0.6,3.3,1.2,6.7,1.7,10.1c0.2,1.7-0.9,3.2-2.6,3.4
				C519.5,369.3,519.3,369.3,519.2,369.3L519.2,369.3z M92.7,368.6c-0.1,0-0.3,0-0.4,0c-1.7-0.2-2.8-1.8-2.6-3.4
				c0.5-3.4,1-6.7,1.7-10.1c0.3-1.7,1.9-2.8,3.5-2.4c1.7,0.3,2.8,1.9,2.4,3.5c-0.6,3.2-1.2,6.5-1.7,9.9
				C95.5,367.5,94.2,368.6,92.7,368.6z M515.5,349.4c-1.3,0-2.6-0.9-2.9-2.3c-0.7-3.2-1.6-6.5-2.5-9.6c-0.5-1.6,0.5-3.3,2.1-3.7
				c1.6-0.5,3.3,0.5,3.7,2.1c0.9,3.2,1.8,6.6,2.6,9.9c0.4,1.7-0.6,3.2-2.3,3.7C516,349.4,515.7,349.4,515.5,349.4L515.5,349.4z
				 M96.5,348.8c-0.2,0-0.5,0-0.7-0.1c-1.7-0.4-2.6-2-2.3-3.7c0.8-3.3,1.7-6.7,2.6-9.9c0.5-1.6,2.1-2.5,3.7-2.1
				c1.6,0.5,2.5,2.1,2.1,3.7c-0.9,3.2-1.8,6.4-2.6,9.6C99.1,347.8,97.9,348.8,96.5,348.8z M510,330c-1.3,0-2.4-0.8-2.9-2.1
				c-1-3.1-2.2-6.3-3.4-9.4c-0.6-1.5,0.2-3.3,1.7-3.9s3.3,0.2,3.9,1.7c1.2,3.2,2.4,6.4,3.5,9.6c0.6,1.6-0.3,3.3-1.9,3.9
				C510.6,329.9,510.3,330,510,330L510,330z M102.1,329.4c-0.3,0-0.7-0.1-1-0.2c-1.6-0.6-2.4-2.3-1.9-3.9c1.1-3.2,2.3-6.5,3.5-9.6
				c0.6-1.5,2.4-2.3,3.9-1.7s2.3,2.4,1.7,3.9c-1.2,3.1-2.4,6.2-3.4,9.4C104.5,328.6,103.4,329.4,102.1,329.4z M502.6,311.2
				c-1.2,0-2.3-0.7-2.8-1.8c-1.3-3-2.8-6.1-4.3-9c-0.7-1.5-0.2-3.3,1.3-4.1c1.5-0.7,3.3-0.2,4.1,1.3c1.5,3,3,6.1,4.4,9.2
				c0.7,1.5,0,3.3-1.5,4C503.4,311.1,503,311.2,502.6,311.2L502.6,311.2z M109.5,310.6c-0.4,0-0.9-0.1-1.2-0.2
				c-1.5-0.7-2.2-2.5-1.5-4c1.4-3.1,2.9-6.2,4.5-9.2c0.7-1.5,2.6-2.1,4.1-1.3c1.5,0.7,2.1,2.6,1.3,4.1c-1.5,2.9-2.9,6-4.3,9
				C111.8,309.9,110.7,310.6,109.5,310.6z M493.5,293.2c-1,0-2.1-0.6-2.6-1.5c-1.6-2.9-3.3-5.8-5.1-8.6c-0.9-1.4-0.5-3.3,1-4.2
				c1.4-0.9,3.3-0.5,4.2,1c1.8,2.9,3.5,5.8,5.3,8.8c0.8,1.5,0.3,3.3-1.2,4.1C494.6,293.1,494,293.2,493.5,293.2L493.5,293.2z
				 M118.7,292.5c-0.5,0-1-0.1-1.5-0.4c-1.5-0.9-2-2.7-1.1-4.2c1.7-2.9,3.5-5.9,5.3-8.8c0.9-1.4,2.8-1.8,4.2-0.9s1.8,2.8,0.9,4.2
				c-1.8,2.8-3.5,5.7-5.1,8.6C120.8,292,119.8,292.5,118.7,292.5L118.7,292.5z M482.8,276.1c-1,0-1.9-0.4-2.5-1.3
				c-1.9-2.7-3.9-5.4-5.9-8c-1-1.3-0.8-3.2,0.6-4.2c1.3-1,3.2-0.8,4.2,0.6c2.1,2.7,4.1,5.4,6.1,8.3c1,1.3,0.6,3.2-0.7,4.2
				C484,275.9,483.4,276.1,482.8,276.1L482.8,276.1z M129.6,275.4c-0.6,0-1.2-0.2-1.7-0.6c-1.3-1-1.7-2.9-0.7-4.2
				c2-2.8,4-5.6,6.1-8.3c1-1.3,2.9-1.6,4.2-0.6c1.3,1,1.6,2.9,0.6,4.2c-2,2.6-4,5.3-5.9,8C131.5,275,130.5,275.4,129.6,275.4
				L129.6,275.4z M470.5,260.1c-0.9,0-1.7-0.4-2.3-1.1c-2.1-2.5-4.3-5-6.6-7.5c-1.2-1.2-1-3.1,0.2-4.3s3.1-1,4.3,0.2
				c2.3,2.5,4.6,5.1,6.8,7.6c1.1,1.3,0.9,3.2-0.4,4.3C471.9,259.9,471.2,260.1,470.5,260.1z M141.9,259.5c-0.7,0-1.4-0.2-2-0.7
				c-1.3-1.1-1.4-3-0.4-4.3c2.2-2.6,4.5-5.1,6.9-7.6c1.2-1.2,3.1-1.3,4.3-0.1c1.2,1.2,1.3,3.1,0.1,4.3c-2.3,2.4-4.5,4.9-6.6,7.4
				C143.6,259.1,142.8,259.5,141.9,259.5L141.9,259.5z M456.7,245.3c-0.8,0-1.5-0.3-2.1-0.9c-2.4-2.3-4.8-4.6-7.3-6.8
				c-1.2-1.1-1.3-3.1-0.2-4.3s3.1-1.3,4.3-0.2c2.5,2.3,5,4.6,7.5,7c1.2,1.2,1.2,3.1,0.1,4.3C458.3,245,457.5,245.3,456.7,245.3
				L456.7,245.3z M155.8,244.7c-0.8,0-1.6-0.3-2.1-0.9c-1.2-1.2-1.2-3.1,0.1-4.3c2.4-2.4,5-4.7,7.5-7c1.2-1.1,3.2-1,4.3,0.2
				c1.1,1.2,1,3.2-0.2,4.3c-2.4,2.2-5,4.5-7.3,6.8C157.3,244.4,156.5,244.7,155.8,244.7z M441.7,231.9c-0.7,0-1.3-0.2-1.9-0.7
				c-2.6-2.1-5.2-4.2-7.9-6.1c-1.3-1-1.7-2.9-0.6-4.2c1-1.3,2.9-1.7,4.2-0.6c2.8,2,5.4,4.1,8.1,6.3c1.3,1,1.5,2.9,0.4,4.3
				C443.5,231.5,442.5,231.9,441.7,231.9L441.7,231.9z M170.9,231.3c-0.9,0-1.8-0.4-2.4-1.1c-1-1.3-0.9-3.2,0.4-4.3
				c2.6-2.1,5.4-4.2,8.1-6.2c1.3-1,3.2-0.7,4.2,0.7c1,1.3,0.7,3.2-0.7,4.2c-2.7,2-5.3,4-7.9,6.1
				C172.2,231.1,171.5,231.3,170.9,231.3z M425.4,219.9c-0.6,0-1.2-0.2-1.7-0.5c-2.8-1.8-5.6-3.6-8.4-5.3c-1.4-0.9-1.9-2.8-1-4.2
				c0.9-1.4,2.8-1.9,4.2-1c2.9,1.8,5.8,3.6,8.6,5.5c1.4,0.9,1.8,2.8,0.9,4.2C427.4,219.4,426.4,219.9,425.4,219.9z M187.1,219.4
				c-1,0-2-0.5-2.5-1.3c-0.9-1.4-0.6-3.3,0.9-4.2c2.8-1.9,5.8-3.7,8.6-5.4c1.4-0.9,3.3-0.4,4.2,1s0.4,3.3-1,4.2
				c-2.8,1.7-5.6,3.5-8.4,5.3C188.3,219.3,187.7,219.4,187.1,219.4L187.1,219.4z M408.1,209.4c-0.5,0-1-0.1-1.4-0.4
				c-2.9-1.6-5.9-3.1-8.9-4.5c-1.5-0.7-2.1-2.5-1.4-4s2.5-2.1,4-1.4c3.1,1.5,6.1,3.1,9.1,4.7c1.5,0.8,2,2.6,1.2,4.1
				C410.2,208.9,409.2,209.4,408.1,209.4z M204.5,209c-1.1,0-2.1-0.6-2.7-1.6c-0.8-1.5-0.2-3.3,1.2-4.1c3-1.6,6.1-3.2,9.1-4.6
				c1.5-0.7,3.3-0.1,4,1.4c0.7,1.5,0.1,3.3-1.4,4c-3,1.4-5.9,2.9-8.9,4.5C205.4,208.9,204.9,209,204.5,209L204.5,209z M389.8,200.6
				c-0.4,0-0.8-0.1-1.2-0.2c-3.1-1.3-6.2-2.5-9.3-3.7c-1.6-0.6-2.4-2.3-1.8-3.9c0.6-1.6,2.3-2.4,3.9-1.8c3.2,1.2,6.4,2.4,9.5,3.8
				c1.5,0.7,2.3,2.4,1.6,4C392.2,200,391.1,200.6,389.8,200.6L389.8,200.6z M222.6,200.4c-1.2,0-2.3-0.7-2.8-1.8
				c-0.7-1.5,0.1-3.3,1.6-4c3.1-1.3,6.3-2.6,9.5-3.7c1.6-0.6,3.3,0.2,3.9,1.8s-0.2,3.3-1.8,3.9c-3.1,1.2-6.2,2.3-9.2,3.6
				C223.4,200.3,223,200.4,222.6,200.4z M370.9,193.7c-0.3,0-0.6-0.1-0.9-0.1c-3.1-1-6.4-1.9-9.5-2.8c-1.6-0.4-2.6-2.1-2.1-3.7
				c0.4-1.6,2.1-2.6,3.7-2.1c3.3,0.9,6.6,1.8,9.9,2.9c1.6,0.5,2.5,2.2,2,3.8C373.4,192.8,372.2,193.7,370.9,193.7z M241.6,193.5
				c-1.3,0-2.5-0.9-2.9-2.1c-0.5-1.6,0.4-3.3,2-3.8c3.2-1,6.5-2,9.9-2.8c1.7-0.4,3.3,0.6,3.7,2.1c0.4,1.6-0.6,3.3-2.1,3.7
				c-3.2,0.9-6.4,1.8-9.5,2.8C242.2,193.4,241.9,193.5,241.6,193.5z M351.3,188.5c-0.2,0-0.4,0-0.6-0.1c-3.2-0.7-6.5-1.3-9.8-1.8
				c-1.7-0.2-2.8-1.8-2.5-3.5s1.8-2.8,3.5-2.5c3.4,0.6,6.7,1.2,10,1.9c1.7,0.4,2.7,2,2.3,3.6C354,187.5,352.8,188.5,351.3,188.5
				L351.3,188.5z M261.1,188.3c-1.4,0-2.6-1-2.9-2.4c-0.4-1.7,0.7-3.2,2.3-3.6c3.3-0.7,6.7-1.3,10-1.9c1.7-0.2,3.2,0.9,3.5,2.5
				c0.2,1.7-0.9,3.2-2.5,3.5c-3.3,0.6-6.5,1.2-9.8,1.8C261.5,188.3,261.3,188.3,261.1,188.3L261.1,188.3z M331.5,185.2
				c-0.1,0-0.2,0-0.4,0c-3.3-0.4-6.6-0.7-9.9-0.9c-1.7-0.1-2.9-1.6-2.8-3.2c0.1-1.7,1.6-2.9,3.2-2.8c3.4,0.2,6.8,0.6,10.2,1
				c1.7,0.2,2.9,1.7,2.6,3.4C334.3,184.1,332.9,185.2,331.5,185.2z M281,185.1c-1.5,0-2.8-1.2-3-2.7c-0.2-1.7,1-3.2,2.7-3.4
				c3.4-0.4,6.8-0.7,10.2-0.9c1.7-0.1,3.1,1.2,3.2,2.8s-1.2,3.1-2.8,3.2c-3.3,0.2-6.7,0.6-9.9,0.9
				C281.3,185.1,281.2,185.1,281,185.1z M311.3,183.8L311.3,183.8c-1.8-0.1-3.7-0.1-5.4-0.1c-1.5,0-3.1,0-4.5,0.1
				c-1.7,0.1-3.1-1.3-3.1-2.9c-0.1-1.7,1.3-3.1,2.9-3.1c1.6-0.1,3.2-0.1,4.8-0.1c1.8,0,3.7,0,5.4,0.1c1.7,0.1,3,1.4,2.9,3.1
				C314.3,182.4,312.9,183.8,311.3,183.8L311.3,183.8z"/>
		</g>
		<path d="M305.9,196.7c-110.1,0-199.3,89.2-199.3,199.3s89.2,199.3,199.3,199.3S505.3,506.1,505.3,396S416,196.7,305.9,196.7z
			 M474.1,339.8c1.2,0.4,2.3,1.2,3.2,2.2c0.9,1,1.6,2.4,2.1,4c0.5,1.7,0.6,3.1,0.4,4.5c-0.2,1.3-0.8,2.5-1.5,3.5
			c-1.5,2.1-3.8,3.4-6.2,4c-2.5,0.6-5.1,0.4-7.3-0.7c-1.1-0.6-2-1.3-2.9-2.2c-0.9-1-1.5-2.1-1.9-3.5s-0.4-2.8-0.2-4s0.6-2.3,1.3-3.4
			c1.3-2,3.4-3.7,5.8-4.5S471.8,338.8,474.1,339.8z M445.4,310.9c0.8-2.3,2.5-4.3,4.7-5.6c2.1-1.3,4.7-2,7.2-1.7
			c2.5,0.4,4.8,2,6.5,4.8c0.9,1.5,1.2,2.9,1.3,4.3c0.1,1.3-0.1,2.6-0.6,3.8c-0.9,2.3-2.9,4.2-5.1,5.3c-2.3,1.1-5,1.5-7.3,1
			c-1.2-0.2-2.3-0.7-3.3-1.5h0c-1-0.7-1.8-1.8-2.6-3C444.6,315.8,444.6,313.1,445.4,310.9z M423.1,282.1c0.3-2.4,1.6-4.8,3.4-6.6
			c1.8-1.8,4.2-3,6.7-3.1c1.2-0.1,2.5,0.1,3.8,0.7c1.2,0.6,2.5,1.3,3.6,2.6c2.2,2.5,2.9,5.3,2.4,7.7h0c-0.4,2.5-2,4.7-3.9,6.3
			c-2,1.6-4.5,2.6-6.9,2.6c-2.4,0-4.8-0.8-6.8-3.1c-1-1.2-1.7-2.3-2-3.5C423,284.6,422.9,283.3,423.1,282.1z M396.4,251.7
			c1.3-2.1,3.4-3.9,5.8-4.6c1.2-0.4,2.5-0.4,3.9-0.2c1.3,0.2,2.8,0.8,4.1,1.8c1.3,1,2.4,2.1,3.1,3.2c0.7,1.2,1,2.4,1,3.7
			c0.1,2.5-0.8,5-2.4,7c-1.6,2-3.8,3.5-6.2,4.1c-1.2,0.3-2.4,0.4-3.6,0.1c-1.2-0.2-2.4-0.7-3.7-1.5s-2.1-1.9-2.7-3
			c-0.6-1-1-2.2-1.1-3.4C394.4,256.4,395,253.8,396.4,251.7z M362.2,235.2c0.9-2.4,2.4-4.5,4.7-5.8c2.1-1.2,5-1.5,8.1-0.2
			c1.6,0.6,2.8,1.6,3.7,2.6c0.9,1,1.5,2.1,1.9,3.4c0.7,2.4,0.3,5-0.8,7.3c-1.1,2.3-2.9,4.3-5.1,5.4c-1.1,0.6-2.3,0.9-3.5,0.9
			c-1.2,0.1-2.5-0.2-3.9-0.7c-2.8-1.1-4.4-3.1-5.1-5.4C361.3,240.2,361.4,237.6,362.2,235.2z M324.9,226.7c0.3-2.5,1.3-5,3.2-6.6
			c0.9-0.9,2-1.5,3.4-1.9c0.6-0.2,1.3-0.3,2.1-0.4c0.7,0,1.5,0.1,2.3,0.2c1.7,0.3,3.1,0.9,4.2,1.7c1.1,0.7,2,1.7,2.6,2.8
			c1.2,2.2,1.4,4.9,0.9,7.3c-0.6,2.5-1.9,4.8-3.7,6.3c-1,0.7-2,1.3-3.2,1.7c-1.2,0.4-2.5,0.4-4,0.2c-0.7-0.1-1.4-0.4-2-0.6
			c-0.6-0.2-1.2-0.5-1.7-0.9c-1-0.7-1.9-1.6-2.5-2.6C325.2,231.8,324.6,229.2,324.9,226.7z M288.6,219.5c1.5-2,3.9-3.5,7.2-3.7h0
			c3.4-0.2,5.9,1.1,7.5,2.9c1.7,1.8,2.4,4.4,2.4,6.9s-0.8,5.1-2.3,7c-1.5,2-3.7,3.2-6.6,3.4c-2.9,0.2-5.3-0.9-7-2.6
			c-1.7-1.8-2.7-4.1-3-6.7C286.6,224.2,287.1,221.5,288.6,219.5z M249.5,227.9c0.4-1.2,1.2-2.3,2.2-3.2c1-1,2.4-1.6,4-2.1
			c1.7-0.5,3.1-0.6,4.5-0.4c1.3,0.1,2.5,0.7,3.5,1.5c2.1,1.5,3.4,3.8,4,6.3c0.6,2.5,0.4,5.1-0.7,7.3c-1,2.1-2.8,4-5.7,4.8
			c-1.4,0.4-2.8,0.4-4,0.2c-1.2-0.2-2.3-0.6-3.4-1.3c-2-1.3-3.6-3.5-4.5-5.9C248.7,232.8,248.5,230.2,249.5,227.9z M213.8,244.5
			c0.4-2.5,2-4.8,4.8-6.5c1.5-0.9,2.9-1.2,4.3-1.3c1.3-0.1,2.6,0.1,3.8,0.6c2.3,0.9,4.1,2.9,5.2,5.1c1.1,2.3,1.5,5,1,7.3h0
			c-0.2,1.2-0.7,2.3-1.3,3.4c-0.7,1-1.8,1.8-3.1,2.6c-2.6,1.5-5.2,1.5-7.5,0.6s-4.3-2.6-5.6-4.7C214.1,249.6,213.4,247,213.8,244.5z
			 M182.9,265.3c0.2-0.7,0.6-1.3,1-1.9c0.2-0.3,0.5-0.6,0.7-0.9c0.2-0.3,0.6-0.6,0.9-0.9c2.5-2.2,5.3-2.9,7.7-2.5
			c2.5,0.4,4.7,2,6.3,3.9c1.6,2,2.6,4.5,2.6,6.9c0.1,2.4-0.8,4.8-3.1,6.8h0c-0.3,0.2-0.6,0.4-0.8,0.8c-0.3,0.2-0.6,0.4-0.9,0.6
			c-0.6,0.4-1.2,0.6-1.8,0.8c-1.2,0.4-2.4,0.5-3.6,0.3c-2.4-0.3-4.8-1.6-6.6-3.4c-1.8-1.8-3.1-4.2-3.2-6.7
			C182.1,267.9,182.3,266.6,182.9,265.3z M156.9,295.6c0.3-1.3,0.9-2.7,1.8-4c1-1.3,2.1-2.4,3.2-3.1c1.2-0.7,2.4-1,3.7-1
			c2.5-0.1,5,0.9,7,2.4c2,1.6,3.5,3.8,4,6.1c0.2,1.2,0.3,2.4,0.1,3.6c-0.2,1.2-0.7,2.4-1.5,3.7s-1.9,2.1-3,2.7c-1,0.6-2.2,1-3.4,1.1
			c-2.4,0.2-5-0.5-7.2-1.8c-2.1-1.3-3.9-3.4-4.6-5.8C156.8,298.3,156.7,297,156.9,295.6z M139.1,327.2c0.6-1.5,1.5-2.8,2.5-3.7
			c1-0.9,2.1-1.5,3.4-1.9c2.4-0.7,5-0.3,7.3,0.8c2.3,1.1,4.3,2.9,5.4,5.1c0.6,1,0.9,2.3,0.9,3.5c0.1,1.2-0.2,2.5-0.7,3.9
			c-1.1,2.8-3.1,4.3-5.4,5.1c-2.3,0.8-5,0.7-7.3-0.1v0c-2.4-0.9-4.5-2.4-5.7-4.7C138.1,333.1,137.9,330.3,139.1,327.2z M127.9,365.8
			c0.3-1.7,0.9-3.1,1.7-4.2c0.4-0.6,0.8-1,1.3-1.5s1-0.8,1.6-1.1c2.2-1.2,4.9-1.4,7.3-0.9c2.5,0.6,4.8,1.8,6.3,3.7
			c0.4,0.5,0.7,1,1,1.5c0.3,0.6,0.6,1.1,0.7,1.7c0.4,1.2,0.4,2.5,0.2,4s-0.8,2.7-1.5,3.7c-0.7,1-1.6,1.9-2.6,2.5
			c-2.1,1.3-4.7,1.8-7.2,1.5c-2.5-0.3-5-1.3-6.6-3.2c-0.9-0.9-1.5-2-2-3.4C127.7,368.9,127.6,367.4,127.9,365.8z M125.7,406.4
			c-0.1-0.9,0-1.7,0.1-2.4c0.1-0.7,0.4-1.5,0.6-2.1c0.5-1.3,1.3-2.3,2.2-3.2c1.8-1.7,4.4-2.4,6.9-2.4s5.1,0.8,7,2.3
			c1,0.7,1.8,1.7,2.4,2.8c0.3,0.6,0.5,1.1,0.7,1.8c0.1,0.7,0.2,1.3,0.3,2.1c0.2,2.9-0.9,5.3-2.6,7c-1.8,1.7-4.2,2.8-6.7,3.1l0,0
			c-2.5,0.3-5.1-0.2-7.2-1.6C127.4,412.2,125.9,409.8,125.7,406.4z M137.8,452.2c-1.2-0.4-2.3-1.2-3.2-2.2c-0.9-1-1.6-2.4-2.1-4
			c-0.5-1.7-0.6-3.1-0.4-4.5c0.2-1.3,0.8-2.5,1.5-3.5c1.5-2.1,3.8-3.4,6.2-4c2.5-0.6,5.1-0.4,7.3,0.7c1.1,0.6,2,1.3,2.9,2.2
			c0.9,1,1.5,2.1,1.9,3.5c0.4,1.4,0.4,2.8,0.2,4s-0.6,2.3-1.3,3.4c-1.3,2-3.5,3.6-5.8,4.5C142.7,453,140.1,453.2,137.8,452.2z
			 M166.5,481.1c-0.8,2.3-2.5,4.3-4.7,5.6c-2.1,1.3-4.7,2-7.2,1.7c-2.5-0.4-4.8-2-6.5-4.8c-0.9-1.5-1.2-2.9-1.3-4.3
			c-0.1-1.3,0.1-2.6,0.6-3.8c0.9-2.3,2.9-4.2,5.1-5.3c2.3-1.1,5-1.5,7.3-1c1.2,0.2,2.3,0.7,3.3,1.5v0c1,0.7,1.8,1.7,2.6,3
			C167.3,476.2,167.3,478.9,166.5,481.1z M188.9,509.8c-0.3,2.4-1.6,4.8-3.4,6.6c-1.8,1.8-4.2,3-6.7,3.1c-1.2,0.1-2.5-0.1-3.8-0.7
			c-1.2-0.6-2.5-1.3-3.6-2.6c-2.2-2.5-2.9-5.3-2.4-7.7c0.4-2.5,2-4.7,3.9-6.3c2-1.6,4.5-2.6,6.9-2.6c2.4,0,4.8,0.8,6.8,3.1v0
			c0.9,1.2,1.7,2.3,2,3.5C188.9,507.4,189,508.6,188.9,509.8z M215.5,540.2c-1.3,2.1-3.4,3.9-5.8,4.6c-1.2,0.4-2.5,0.4-3.9,0.2
			c-1.3-0.2-2.8-0.8-4.1-1.8c-1.3-1-2.4-2.1-3.1-3.2c-0.7-1.2-1-2.4-1-3.7c-0.1-2.5,0.8-5,2.4-7s3.8-3.5,6.1-4
			c1.2-0.3,2.4-0.4,3.6-0.1c1.2,0.2,2.4,0.7,3.7,1.5s2.1,1.9,2.7,3s1,2.3,1.2,3.4C217.6,535.5,216.9,538.1,215.5,540.2z
			 M249.6,556.8c-0.9,2.4-2.4,4.5-4.7,5.8c-2.1,1.2-5,1.5-8.1,0.2c-1.6-0.6-2.8-1.6-3.7-2.6c-0.9-1-1.5-2.1-1.9-3.4
			c-0.7-2.4-0.3-5,0.8-7.3c1.1-2.3,2.9-4.3,5.1-5.4c1.1-0.6,2.3-0.9,3.5-0.9c1.2-0.1,2.5,0.2,3.9,0.7h0c2.8,1.1,4.4,3.1,5.1,5.4
			C250.5,551.8,250.4,554.4,249.6,556.8z M287,565.3c-0.3,2.5-1.3,5-3.2,6.6c-0.9,0.9-2,1.5-3.4,1.9c-0.6,0.2-1.3,0.3-2.1,0.4
			c-0.7,0-1.5-0.1-2.3-0.2c-1.7-0.3-3.1-0.9-4.2-1.7c-1.1-0.8-2-1.7-2.6-2.9c-1.2-2.2-1.4-4.9-0.9-7.3c0.6-2.5,1.9-4.8,3.7-6.3
			c1-0.7,2-1.3,3.2-1.7c1.2-0.4,2.5-0.4,4-0.2c0.7,0.1,1.4,0.4,2,0.6s1.2,0.5,1.7,0.9c1,0.7,1.8,1.6,2.4,2.7
			C286.7,560.2,287.3,562.8,287,565.3z M323.3,572.5c-1.5,2-3.9,3.5-7.2,3.7c-3.4,0.2-5.9-1.1-7.6-2.9s-2.4-4.4-2.4-6.9
			c0-2.5,0.8-5.1,2.3-7c1.5-2,3.7-3.2,6.6-3.4c2.9-0.2,5.3,0.9,7,2.6c1.7,1.8,2.8,4.1,3.1,6.7C325.3,567.8,324.8,570.5,323.3,572.5z
			 M362.4,564.1c-0.4,1.2-1.2,2.3-2.2,3.2c-1,1-2.4,1.6-4,2.1c-1.7,0.5-3.1,0.6-4.5,0.4c-1.3-0.1-2.5-0.7-3.5-1.5
			c-2.1-1.5-3.4-3.8-4-6.2c-0.6-2.5-0.4-5.1,0.7-7.3c1-2.1,2.8-4,5.7-4.8c1.4-0.4,2.8-0.4,4-0.2s2.3,0.6,3.4,1.3v0
			c2,1.3,3.6,3.4,4.5,5.8C363.2,559.2,363.3,561.8,362.4,564.1z M398,547.5c-0.4,2.5-2,4.8-4.8,6.5c-1.5,0.9-2.9,1.2-4.3,1.3
			c-1.3,0.1-2.6-0.1-3.8-0.6c-2.3-0.9-4.1-2.9-5.2-5.1c-1.1-2.3-1.5-5-1-7.3c0.2-1.2,0.7-2.3,1.5-3.3c0.7-1,1.8-1.8,3.1-2.6
			c2.6-1.5,5.2-1.5,7.5-0.6v0c2.3,0.8,4.3,2.5,5.5,4.7C397.7,542.4,398.4,545,398,547.5z M305.8,540.3
			c-79.7,0-144.3-64.6-144.3-144.3s64.6-144.3,144.3-144.3S450.1,316.3,450.1,396S385.5,540.3,305.8,540.3z M429,526.7
			c-0.2,0.7-0.6,1.3-1,1.9c-0.2,0.3-0.5,0.6-0.7,0.9c-0.2,0.3-0.6,0.6-0.9,0.9c-2.5,2.1-5.3,2.9-7.7,2.4c-2.5-0.4-4.7-2-6.3-3.9
			c-1.6-2-2.6-4.5-2.6-6.9c-0.1-2.4,0.8-4.8,3.1-6.8c0.3-0.2,0.6-0.5,0.9-0.7c0.3-0.2,0.6-0.4,0.9-0.6c0.6-0.4,1.2-0.6,1.8-0.8
			c1.2-0.4,2.4-0.5,3.6-0.3c2.4,0.3,4.8,1.6,6.6,3.4h0c1.8,1.8,3.1,4.2,3.1,6.6C429.7,524.2,429.5,525.4,429,526.7z M454.9,496.3
			c-0.3,1.3-0.9,2.7-1.8,4s-2.1,2.4-3.2,3.1c-1.2,0.7-2.4,1-3.7,1c-2.5,0.1-5-0.9-7-2.4c-2-1.6-3.5-3.8-4-6.1
			c-0.2-1.2-0.3-2.4-0.1-3.6c0.2-1.2,0.7-2.4,1.5-3.7s1.9-2.1,3-2.7c1-0.6,2.2-1,3.4-1.1c2.4-0.2,5,0.5,7.2,1.8h0
			c2.1,1.4,3.9,3.4,4.5,5.8C455,493.6,455.1,495,454.9,496.3z M472.7,464.9c-0.6,1.5-1.5,2.8-2.5,3.7c-1,0.9-2.1,1.5-3.4,1.9
			c-2.4,0.7-5,0.3-7.3-0.8c-2.3-1.1-4.3-2.9-5.4-5.1c-0.6-1-0.9-2.3-0.9-3.5c-0.1-1.2,0.2-2.5,0.7-3.9c1.1-2.8,3.1-4.3,5.4-5.1
			c2.3-0.8,5-0.7,7.3,0.1l0,0c2.4,0.8,4.6,2.4,5.7,4.7C473.7,458.9,473.9,461.7,472.7,464.9z M484,426.2c-0.3,1.7-0.9,3.1-1.7,4.2
			c-0.4,0.6-0.8,1-1.3,1.5c-0.5,0.4-1,0.8-1.6,1.1c-2.2,1.2-4.8,1.4-7.3,0.9c-2.5-0.6-4.8-1.8-6.3-3.7c-0.4-0.5-0.7-1-1-1.5
			c-0.3-0.6-0.6-1.1-0.7-1.7c-0.4-1.2-0.4-2.5-0.2-4c0.2-1.5,0.8-2.7,1.5-3.7c0.7-1,1.6-1.9,2.6-2.5c2.1-1.3,4.7-1.8,7.2-1.5
			c2.5,0.3,5,1.3,6.6,3.2l0,0c0.9,0.9,1.5,2.1,2,3.4C484.2,423.1,484.3,424.5,484,426.2z M485.4,390.1c-0.5,1.3-1.3,2.3-2.2,3.2
			c-1.8,1.7-4.4,2.4-6.9,2.4c-2.5,0-5.1-0.8-7-2.3c-1-0.7-1.8-1.7-2.4-2.8c-0.3-0.6-0.5-1.1-0.7-1.8c-0.1-0.7-0.2-1.3-0.3-2.1
			c-0.2-2.9,0.9-5.3,2.6-7c1.8-1.7,4.2-2.8,6.7-3.1c2.5-0.3,5.2,0.2,7.2,1.7c2,1.4,3.5,3.8,3.7,7.2v0c0.1,0.9,0,1.7-0.1,2.4
			C485.9,388.7,485.7,389.5,485.4,390.1z"/>
	</g>
</g>
</svg>
