<?xml version="1.0" encoding="UTF-8" standalone="no"?>
<svg
   xmlns:dc="http://purl.org/dc/elements/1.1/"
   xmlns:cc="http://creativecommons.org/ns#"
   xmlns:rdf="http://www.w3.org/1999/02/22-rdf-syntax-ns#"
   xmlns:svg="http://www.w3.org/2000/svg"
   xmlns="http://www.w3.org/2000/svg"
   xmlns:sodipodi="http://sodipodi.sourceforge.net/DTD/sodipodi-0.dtd"
   xmlns:inkscape="http://www.inkscape.org/namespaces/inkscape"
   version="1.1"
   id="Layer_1"
   x="0px"
   y="0px"
   viewBox="0 0 1000 1000"
   width="100%"
   height="100%"
   style="enable-background:new 0 0 1000 1000;"
   xml:space="preserve"
    class="withFill"
   ><style
     type="text/css"
     id="style3">
	.st0{fill:#9E9E9E;}
	.st1{fill:#FFFFFF;}
</style><switch
     id="switch5"
     transform="translate(30.7,18.4)"><g
       id="g7"><g
         id="g9"><g
           id="g11"><path
             d="m 469.3,174.9 c -169.1,0 -306.7,137.6 -306.7,306.7 0,169.1 137.6,306.7 306.7,306.7 C 638.4,788.3 776,650.7 776,481.6 776,312.5 638.4,174.9 469.3,174.9 Z m 0,605.9 c -165,0 -299.2,-134.2 -299.2,-299.2 0,-165 134.2,-299.2 299.2,-299.2 165,0 299.2,134.2 299.2,299.2 0,165 -134.2,299.2 -299.2,299.2 z"
             id="path13"
             inkscape:connector-curvature="0" /><path
             class="st0"
             d="m 469.3,182.4 c -165,0 -299.2,134.2 -299.2,299.2 0,165 134.2,299.2 299.2,299.2 165,0 299.2,-134.2 299.2,-299.2 0,-165 -134.2,-299.2 -299.2,-299.2 z m 0,519.1 c -121.3,0 -219.9,-98.6 -219.9,-219.9 0,-121.3 98.6,-219.9 219.9,-219.9 121.3,0 219.9,98.6 219.9,219.9 0,121.3 -98.6,219.9 -219.9,219.9 z"
             id="path15"
             inkscape:connector-curvature="0"
             style="fill:#9e9e9e" /></g><g
           id="g17"><path
             d="m 469.3,261.7 c -121.3,0 -219.9,98.6 -219.9,219.9 0,121.3 98.6,219.9 219.9,219.9 121.3,0 219.9,-98.6 219.9,-219.9 0,-121.3 -98.6,-219.9 -219.9,-219.9 z m 0,432.3 c -117.1,0 -212.4,-95.3 -212.4,-212.4 0,-117.1 95.3,-212.4 212.4,-212.4 117.1,0 212.4,95.3 212.4,212.4 0,117.1 -95.2,212.4 -212.4,212.4 z"
             id="path19"
             inkscape:connector-curvature="0" /></g><g
           id="g21"><path
             d="M 469.3,686.9 C 356.1,686.9 264,594.8 264,481.6 c 0,-113.2 92.1,-205.3 205.3,-205.3 113.2,0 205.3,92.1 205.3,205.3 0,113.2 -92.1,205.3 -205.3,205.3 z m 0,-407.5 C 357.8,279.4 267,370.1 267,481.7 267,593.3 357.7,684 469.3,684 580.9,684 671.6,593.3 671.6,481.7 671.6,370.1 580.9,279.4 469.3,279.4 Z"
             id="path23"
             inkscape:connector-curvature="0" /></g><g
           id="g25"><path
             class="st1"
             d="m 744.3,516.6 c -2.6,-2.9 -6.4,-4.6 -10.4,-5 -3.9,-0.4 -8,0.3 -11.3,2.3 -1.6,1 -3,2.3 -4.1,3.9 -1,1.6 -1.9,3.5 -2.3,5.8 -0.4,2.3 -0.3,4.4 0.3,6.3 0.3,0.9 0.7,1.8 1.1,2.7 0.4,0.8 1,1.6 1.6,2.4 2.4,2.9 6,5 9.8,5.9 3.9,0.9 8,0.6 11.5,-1.3 0.9,-0.5 1.7,-1 2.5,-1.7 0.7,-0.7 1.4,-1.5 2,-2.3 1.2,-1.8 2.1,-3.9 2.5,-6.5 0.5,-2.6 0.4,-4.9 -0.3,-7 -0.5,-2.3 -1.5,-4.1 -2.9,-5.5 z"
             id="path27"
             inkscape:connector-curvature="0"
             style="fill:#ffffff" /><path
             class="st1"
             d="m 720.8,569.3 c -3.7,-1.3 -7.9,-1.5 -11.4,-0.2 -3.6,1.2 -6.8,3.7 -8.5,8 -0.8,2.2 -1.3,4.2 -1.2,6.1 0.1,1.9 0.6,3.8 1.5,5.5 1.7,3.4 4.8,6.2 8.4,8 3.6,1.7 7.7,2.3 11.4,1.2 1.9,-0.5 3.7,-1.5 5.3,-2.9 1.6,-1.4 3.1,-3.3 4,-5.8 1.9,-4.9 1.5,-9.2 -0.4,-12.7 -2,-3.4 -5.3,-5.8 -9.1,-7.2 z"
             id="path29"
             inkscape:connector-curvature="0"
             style="fill:#ffffff" /><path
             class="st1"
             d="m 694.8,623.4 c -3.4,-2.1 -7.4,-3.2 -11.2,-2.8 -1.9,0.2 -3.7,0.7 -5.4,1.7 -1.7,1 -3.3,2.3 -4.7,4.2 -1.3,1.9 -2.1,3.8 -2.4,5.8 -0.4,1.9 -0.3,3.8 0.1,5.6 0.9,3.7 3.2,7.1 6.3,9.6 3.1,2.5 7,4 10.9,3.8 2,-0.1 4,-0.6 5.9,-1.6 1.8,-1.1 3.6,-2.6 5.1,-4.8 1.5,-2.1 2.4,-4.3 2.8,-6.4 0.3,-2.1 0.2,-4.2 -0.4,-6.1 -1,-3.7 -3.6,-6.9 -7,-9 z"
             id="path31"
             inkscape:connector-curvature="0"
             style="fill:#ffffff" /><path
             class="st1"
             d="m 657.9,669.8 c -2.8,-2.8 -6.5,-4.8 -10.3,-5.3 -1.9,-0.2 -3.8,-0.1 -5.7,0.4 -0.9,0.3 -1.8,0.7 -2.7,1.2 -0.4,0.3 -0.9,0.6 -1.3,0.9 -0.5,0.3 -0.9,0.7 -1.3,1 -3.5,3 -4.8,6.8 -4.7,10.7 0,3.8 1.6,7.6 4,10.7 2.5,3.1 5.9,5.4 9.9,6.1 3.8,0.6 8.1,-0.4 12.1,-3.9 0.5,-0.4 1,-0.9 1.4,-1.3 0.4,-0.5 0.8,-0.9 1.1,-1.4 0.7,-1 1.2,-1.9 1.6,-2.9 0.8,-2 1.1,-4 1,-5.9 -0.4,-3.8 -2.3,-7.5 -5.1,-10.3 z"
             id="path33"
             inkscape:connector-curvature="0"
             style="fill:#ffffff" /><path
             class="st1"
             d="m 602.1,699.9 c -3.6,-1.3 -7.6,-1.3 -11.6,1 -2,1.2 -3.6,2.5 -4.7,4.1 -1.2,1.6 -1.9,3.3 -2.3,5.2 -0.8,3.7 -0.1,7.9 1.6,11.5 1.7,3.6 4.6,6.6 8.2,8.1 1.8,0.7 3.8,1.1 6,1 2.1,-0.1 4.4,-0.7 6.7,-2 4.5,-2.6 7,-6.3 7.6,-10.1 0.6,-3.9 -0.4,-8 -2.6,-11.3 -2.2,-3.6 -5.3,-6.3 -8.9,-7.5 z"
             id="path35"
             inkscape:connector-curvature="0"
             style="fill:#ffffff" /><path
             class="st1"
             d="m 550.6,723.8 c -1.6,-1 -3.4,-1.7 -5.3,-2 -1.9,-0.2 -4,-0.2 -6.3,0.4 -4.5,1.3 -7.3,4.2 -8.9,7.5 -1.6,3.4 -1.9,7.6 -1,11.4 0.9,3.9 3,7.5 6.2,9.8 1.6,1.1 3.5,2.1 5.6,2.3 2.1,0.3 4.4,0.2 7,-0.6 2.5,-0.7 4.6,-1.8 6.2,-3.2 1.6,-1.5 2.7,-3.2 3.5,-5 1.5,-3.6 1.4,-7.8 0,-11.5 -1.4,-3.7 -3.8,-7 -7,-9.1 z"
             id="path37"
             inkscape:connector-curvature="0"
             style="fill:#ffffff" /><path
             class="st1"
             d="m 494.3,735.8 c -2.7,-2.8 -6.3,-4.5 -10.9,-4.1 -4.6,0.2 -8,2.2 -10.4,5.3 -2.3,3 -3.5,7 -3.6,11 0,4 1.2,7.9 3.9,10.8 2.6,2.9 6.6,4.9 11.8,4.6 5.2,-0.4 9,-2.7 11.2,-5.8 2.3,-3.2 3.1,-7.4 2.6,-11.3 -0.3,-4 -1.9,-7.7 -4.6,-10.5 z"
             id="path39"
             inkscape:connector-curvature="0"
             style="fill:#ffffff" /><path
             class="st1"
             d="m 433.6,730.9 c -0.8,-0.5 -1.7,-1 -2.7,-1.4 -1,-0.4 -2,-0.7 -3.2,-0.9 -2.3,-0.4 -4.4,-0.3 -6.3,0.3 -1.9,0.5 -3.6,1.5 -5,2.7 -2.9,2.4 -5,6 -5.9,9.8 -0.9,3.9 -0.5,8 1.4,11.5 0.9,1.8 2.3,3.3 4,4.5 1.8,1.2 3.9,2.1 6.5,2.5 1.3,0.2 2.5,0.3 3.7,0.3 1.2,-0.1 2.3,-0.3 3.3,-0.6 2.1,-0.6 3.8,-1.6 5.3,-3 2.9,-2.6 4.6,-6.4 5,-10.4 0.4,-3.9 -0.3,-8 -2.3,-11.3 -0.9,-1.5 -2.2,-2.9 -3.8,-4 z"
             id="path41"
             inkscape:connector-curvature="0"
             style="fill:#ffffff" /><path
             class="st1"
             d="m 373.5,713.1 c -2.2,-0.8 -4.2,-1.3 -6.1,-1.2 -1.9,0.1 -3.8,0.6 -5.5,1.5 -3.4,1.7 -6.3,4.8 -8,8.4 -1.7,3.6 -2.3,7.7 -1.2,11.4 0.5,1.9 1.5,3.7 2.9,5.3 1.4,1.6 3.3,3.1 5.7,4 4.9,1.9 9.2,1.5 12.7,-0.3 3.5,-2 6,-5.3 7.3,-9.1 1.3,-3.7 1.5,-7.9 0.2,-11.4 -1.2,-3.8 -3.7,-6.9 -8,-8.6 z"
             id="path43"
             inkscape:connector-curvature="0"
             style="fill:#ffffff" /><path
             class="st1"
             d="m 329,690.7 c -1,-1.7 -2.3,-3.3 -4.2,-4.7 -1.9,-1.3 -3.8,-2.1 -5.8,-2.4 -1.9,-0.4 -3.8,-0.3 -5.7,0.2 -3.7,0.9 -7.1,3.2 -9.6,6.3 -2.5,3.1 -4,7 -3.8,10.9 0.1,2 0.6,4 1.7,5.8 1.1,1.8 2.6,3.6 4.8,5.1 2.1,1.5 4.3,2.5 6.4,2.8 2.1,0.3 4.2,0.2 6.1,-0.4 3.8,-1.1 6.9,-3.8 9.1,-7.2 2.1,-3.4 3.2,-7.4 2.8,-11.2 -0.3,-1.7 -0.9,-3.5 -1.8,-5.2 z"
             id="path45"
             inkscape:connector-curvature="0"
             style="fill:#ffffff" /><path
             class="st1"
             d="m 282.6,648.5 c -3,-3.5 -6.8,-4.8 -10.7,-4.8 -3.8,0 -7.6,1.5 -10.7,4 -3.1,2.5 -5.4,5.9 -6.1,9.8 -0.7,3.9 0.4,8.1 3.9,12.1 1.7,2 3.7,3.3 5.6,4.1 2,0.8 4,1.1 5.9,1 3.9,-0.2 7.6,-2.1 10.4,-4.9 2.8,-2.8 4.8,-6.5 5.3,-10.3 0.3,-1.9 0.1,-3.8 -0.4,-5.7 -0.6,-1.7 -1.7,-3.5 -3.2,-5.3 z"
             id="path47"
             inkscape:connector-curvature="0"
             style="fill:#ffffff" /><path
             class="st1"
             d="m 246.2,598.4 c -1.6,-1.2 -3.3,-1.9 -5.2,-2.3 -3.7,-0.8 -7.9,-0.1 -11.4,1.6 -3.6,1.7 -6.6,4.6 -8.1,8.2 -0.7,1.8 -1.1,3.8 -1,6 0.1,2.1 0.7,4.4 2,6.7 2.6,4.5 6.2,7 10.1,7.6 3.9,0.6 8,-0.5 11.3,-2.6 3.4,-2.1 6.1,-5.3 7.3,-8.8 1.3,-3.6 1.3,-7.6 -1,-11.6 -1.1,-2.1 -2.4,-3.7 -4,-4.8 z"
             id="path49"
             inkscape:connector-curvature="0"
             style="fill:#ffffff" /><path
             class="st1"
             d="m 227.1,562.5 c 1,-1.6 1.7,-3.4 2,-5.3 0.3,-1.9 0.3,-4 -0.4,-6.3 -0.6,-2.2 -1.7,-4 -3,-5.5 -1.3,-1.5 -2.8,-2.6 -4.5,-3.4 -3.4,-1.6 -7.6,-1.9 -11.4,-1 -3.9,0.9 -7.5,3 -9.8,6.2 -1.1,1.6 -2,3.5 -2.3,5.6 -0.3,2.1 -0.2,4.4 0.6,7 0.7,2.5 1.8,4.6 3.2,6.2 1.5,1.6 3.2,2.7 5,3.5 3.6,1.5 7.8,1.4 11.5,0.1 3.6,-1.4 7,-3.9 9.1,-7.1 z"
             id="path51"
             inkscape:connector-curvature="0"
             style="fill:#ffffff" /><path
             class="st1"
             d="m 204.7,511.7 c 4,-0.4 7.7,-2.1 10.4,-4.7 2.8,-2.7 4.5,-6.3 4.1,-10.9 -0.1,-1.2 -0.3,-2.2 -0.5,-3.2 -0.3,-1 -0.6,-1.9 -1.1,-2.8 -0.9,-1.7 -2.2,-3.2 -3.7,-4.3 -3,-2.3 -7,-3.5 -11,-3.5 -4,0 -7.9,1.3 -10.8,3.9 -1.5,1.3 -2.7,3 -3.5,4.9 -0.4,1 -0.7,2.1 -0.9,3.2 -0.2,1.2 -0.3,2.4 -0.2,3.7 0.4,5.2 2.7,9 5.8,11.2 3.3,2.2 7.5,2.9 11.4,2.5 z"
             id="path53"
             inkscape:connector-curvature="0"
             style="fill:#ffffff" /><path
             class="st1"
             d="m 194.3,446.7 c 2.6,2.9 6.4,4.6 10.4,5 3.9,0.4 8,-0.3 11.3,-2.3 1.6,-1 3,-2.3 4.1,-3.9 1,-1.6 1.9,-3.5 2.3,-5.8 0.4,-2.3 0.3,-4.4 -0.3,-6.3 -0.3,-0.9 -0.7,-1.8 -1.1,-2.7 -0.4,-0.8 -1,-1.6 -1.6,-2.4 -2.4,-2.9 -6,-5 -9.8,-5.9 -3.9,-0.9 -8,-0.6 -11.5,1.3 -0.9,0.5 -1.7,1 -2.5,1.7 -0.7,0.7 -1.4,1.5 -2,2.3 -1.2,1.8 -2.1,3.9 -2.5,6.5 -0.5,2.6 -0.4,4.9 0.3,7 0.6,2.2 1.6,4 2.9,5.5 z"
             id="path55"
             inkscape:connector-curvature="0"
             style="fill:#ffffff" /><path
             class="st1"
             d="m 217.8,393.9 c 3.7,1.3 7.9,1.5 11.4,0.2 3.6,-1.2 6.8,-3.7 8.5,-8 0.8,-2.2 1.3,-4.2 1.2,-6.1 -0.1,-1.9 -0.6,-3.8 -1.5,-5.5 -1.7,-3.4 -4.8,-6.2 -8.4,-8 -3.6,-1.7 -7.7,-2.3 -11.4,-1.2 -1.9,0.5 -3.7,1.5 -5.3,2.9 -1.6,1.4 -3.1,3.3 -4,5.8 -1.9,4.9 -1.5,9.2 0.4,12.7 2,3.4 5.4,5.9 9.1,7.2 z"
             id="path57"
             inkscape:connector-curvature="0"
             style="fill:#ffffff" /><path
             class="st1"
             d="m 260.4,341 c 1.7,-1 3.3,-2.3 4.7,-4.2 1.3,-1.9 2.1,-3.8 2.4,-5.8 0.4,-1.9 0.3,-3.8 -0.1,-5.6 -0.9,-3.7 -3.2,-7.1 -6.3,-9.6 -3.1,-2.5 -7,-4 -10.9,-3.8 -2,0.1 -4,0.6 -5.9,1.6 -1.8,1.1 -3.6,2.6 -5.1,4.8 -1.5,2.1 -2.4,4.3 -2.8,6.4 -0.3,2.1 -0.2,4.2 0.4,6.1 1.1,3.8 3.8,7 7.2,9.1 3.4,2.1 7.4,3.2 11.2,2.8 1.7,-0.3 3.5,-0.8 5.2,-1.8 z"
             id="path59"
             inkscape:connector-curvature="0"
             style="fill:#ffffff" /><path
             class="st1"
             d="m 302.2,295.1 c 3.5,-3 4.8,-6.8 4.7,-10.7 0,-3.8 -1.6,-7.6 -4,-10.7 -2.5,-3.1 -5.9,-5.4 -9.9,-6.1 -3.8,-0.6 -8.1,0.4 -12.1,3.9 -0.5,0.4 -1,0.9 -1.4,1.3 -0.4,0.5 -0.8,0.9 -1.1,1.4 -0.7,1 -1.2,1.9 -1.6,2.9 -0.8,2 -1.1,4 -1,5.9 0.2,3.9 2.1,7.6 4.9,10.4 2.8,2.8 6.5,4.8 10.3,5.3 1.9,0.2 3.8,0.1 5.7,-0.4 0.9,-0.3 1.8,-0.7 2.7,-1.2 0.4,-0.3 0.9,-0.6 1.3,-0.9 0.6,-0.4 1,-0.7 1.5,-1.1 z"
             id="path61"
             inkscape:connector-curvature="0"
             style="fill:#ffffff" /><path
             class="st1"
             d="m 355.2,253.1 c 0.8,-3.7 0.1,-7.9 -1.6,-11.5 -1.7,-3.6 -4.6,-6.6 -8.2,-8.1 -1.8,-0.7 -3.8,-1.1 -6,-1 -2.1,0.1 -4.4,0.7 -6.7,2 -4.5,2.6 -7,6.3 -7.6,10.1 -0.6,3.9 0.4,8 2.6,11.3 2.1,3.4 5.3,6.1 8.8,7.3 3.6,1.3 7.6,1.3 11.6,-1 2,-1.2 3.6,-2.5 4.7,-4.1 1.3,-1.3 2,-3.1 2.4,-5 z"
             id="path63"
             inkscape:connector-curvature="0"
             style="fill:#ffffff" /><path
             class="st1"
             d="m 403.4,212.3 c -1.6,-1.1 -3.5,-2.1 -5.6,-2.3 -2.1,-0.3 -4.4,-0.2 -7,0.6 -2.5,0.7 -4.6,1.8 -6.2,3.2 -1.6,1.5 -2.7,3.1 -3.5,5 -1.5,3.6 -1.4,7.8 0,11.5 1.3,3.7 3.8,7.1 7,9.2 1.6,1 3.4,1.7 5.3,2 1.9,0.2 4,0.2 6.3,-0.4 4.5,-1.3 7.3,-4.2 8.9,-7.5 1.6,-3.4 1.9,-7.6 1,-11.4 -0.9,-4 -3,-7.6 -6.2,-9.9 z"
             id="path65"
             inkscape:connector-curvature="0"
             style="fill:#ffffff" /><path
             class="st1"
             d="m 453.5,199.8 c -5.2,0.4 -9,2.7 -11.2,5.8 -2.3,3.2 -3.1,7.4 -2.6,11.3 0.4,4 2.1,7.7 4.7,10.5 2.7,2.8 6.3,4.5 10.9,4.1 4.6,-0.2 8,-2.2 10.4,-5.3 2.3,-3 3.5,-7 3.6,-11 0,-4 -1.2,-7.9 -3.9,-10.8 -2.7,-2.8 -6.7,-4.8 -11.9,-4.6 z"
             id="path67"
             inkscape:connector-curvature="0"
             style="fill:#ffffff" /><path
             class="st1"
             d="m 522.7,205.9 c -1.8,-1.2 -3.9,-2.1 -6.5,-2.5 -1.3,-0.2 -2.5,-0.3 -3.7,-0.3 -1.2,0.1 -2.3,0.3 -3.3,0.6 -2.1,0.6 -3.8,1.6 -5.3,3 -2.9,2.6 -4.6,6.4 -5,10.4 -0.4,3.9 0.3,8 2.3,11.3 1,1.6 2.3,3 3.9,4.1 0.8,0.5 1.7,1 2.7,1.4 1,0.4 2,0.7 3.2,0.9 2.3,0.4 4.4,0.3 6.3,-0.3 1.9,-0.5 3.6,-1.5 5,-2.7 2.9,-2.4 5,-6 5.9,-9.8 0.9,-3.8 0.5,-8 -1.4,-11.5 -1,-1.9 -2.3,-3.4 -4.1,-4.6 z"
             id="path69"
             inkscape:connector-curvature="0"
             style="fill:#ffffff" /><path
             class="st1"
             d="m 586,230.1 c -0.5,-1.9 -1.5,-3.7 -2.9,-5.3 -1.4,-1.6 -3.3,-3.1 -5.7,-4 -4.9,-1.9 -9.2,-1.5 -12.7,0.3 -3.5,2 -6,5.3 -7.3,9.1 -1.3,3.7 -1.5,7.9 -0.2,11.4 1.2,3.7 3.7,6.8 8,8.5 2.2,0.8 4.2,1.3 6.1,1.2 1.9,-0.1 3.8,-0.6 5.5,-1.5 3.4,-1.7 6.3,-4.8 8,-8.4 1.7,-3.5 2.3,-7.6 1.2,-11.3 z"
             id="path71"
             inkscape:connector-curvature="0"
             style="fill:#ffffff" /><path
             class="st1"
             d="m 635,273.1 c 2.5,-3.1 4,-7 3.8,-10.9 -0.1,-2 -0.6,-4 -1.7,-5.8 -1.1,-1.8 -2.6,-3.6 -4.8,-5.1 -2.1,-1.5 -4.3,-2.5 -6.4,-2.8 -2.1,-0.3 -4.2,-0.2 -6.1,0.4 -3.8,1.1 -6.9,3.8 -9.1,7.2 -2.1,3.4 -3.2,7.4 -2.8,11.2 0.2,1.9 0.7,3.7 1.7,5.4 1,1.7 2.3,3.3 4.2,4.7 1.9,1.3 3.8,2.1 5.8,2.4 1.9,0.4 3.8,0.3 5.7,-0.2 3.7,-1.1 7.2,-3.4 9.7,-6.5 z"
             id="path73"
             inkscape:connector-curvature="0"
             style="fill:#ffffff" /><path
             class="st1"
             d="m 683.6,305.6 c 0.7,-3.9 -0.4,-8.1 -3.9,-12.1 -1.7,-2 -3.7,-3.3 -5.6,-4.1 -2,-0.8 -4,-1.1 -5.9,-1 -3.9,0.2 -7.6,2.1 -10.4,4.9 -2.8,2.8 -4.8,6.5 -5.3,10.3 -0.3,1.9 -0.1,3.8 0.4,5.7 0.6,1.9 1.7,3.6 3.1,5.4 3,3.5 6.8,4.8 10.7,4.8 3.8,0 7.6,-1.5 10.7,-4 3.1,-2.5 5.5,-6 6.2,-9.9 z"
             id="path75"
             inkscape:connector-curvature="0"
             style="fill:#ffffff" /><path
             class="st1"
             d="m 692.5,364.9 c 1.6,1.2 3.3,1.9 5.2,2.3 3.7,0.8 7.9,0.1 11.4,-1.6 3.6,-1.7 6.6,-4.6 8.1,-8.2 0.7,-1.8 1.1,-3.8 1,-6 -0.1,-2.1 -0.7,-4.4 -2,-6.7 -2.6,-4.5 -6.2,-7 -10.1,-7.6 -3.9,-0.6 -8,0.5 -11.3,2.6 -3.4,2.1 -6.1,5.3 -7.3,8.8 -1.3,3.6 -1.3,7.6 1,11.6 1.1,2 2.4,3.6 4,4.8 z"
             id="path77"
             inkscape:connector-curvature="0"
             style="fill:#ffffff" /><path
             class="st1"
             d="m 711.6,400.7 c -1,1.6 -1.7,3.4 -2,5.3 -0.3,1.9 -0.3,4 0.4,6.3 0.6,2.2 1.7,4 3,5.5 1.3,1.5 2.8,2.6 4.5,3.4 3.4,1.6 7.6,1.9 11.4,1 3.9,-0.9 7.5,-3 9.8,-6.2 1.1,-1.6 2,-3.5 2.3,-5.6 0.3,-2.1 0.2,-4.4 -0.6,-7 -0.7,-2.5 -1.8,-4.6 -3.2,-6.2 -1.5,-1.6 -3.2,-2.7 -5,-3.5 -3.6,-1.5 -7.8,-1.4 -11.5,-0.1 -3.7,1.3 -7,3.9 -9.1,7.1 z"
             id="path79"
             inkscape:connector-curvature="0"
             style="fill:#ffffff" /><path
             class="st1"
             d="m 751.1,465.4 c -0.4,-5.2 -2.7,-9 -5.8,-11.2 -3.2,-2.3 -7.4,-3.1 -11.3,-2.6 -4,0.4 -7.7,2.1 -10.4,4.7 -2.8,2.7 -4.5,6.3 -4.1,10.9 0.1,1.2 0.3,2.2 0.5,3.2 0.3,1 0.6,1.9 1.1,2.8 0.9,1.7 2.2,3.2 3.7,4.3 3,2.3 7,3.5 11,3.5 4,0 7.9,-1.3 10.8,-3.9 1.5,-1.3 2.7,-3 3.5,-4.9 0.4,-1 0.7,-2.1 0.9,-3.2 0.1,-1.1 0.2,-2.3 0.1,-3.6 z"
             id="path81"
             inkscape:connector-curvature="0"
             style="fill:#ffffff" /></g></g></g></switch></svg>