<?xml version="1.0" encoding="UTF-8" standalone="no"?>
<svg
   xmlns:dc="http://purl.org/dc/elements/1.1/"
   xmlns:cc="http://creativecommons.org/ns#"
   xmlns:rdf="http://www.w3.org/1999/02/22-rdf-syntax-ns#"
   xmlns:svg="http://www.w3.org/2000/svg"
   xmlns="http://www.w3.org/2000/svg"
   xmlns:sodipodi="http://sodipodi.sourceforge.net/DTD/sodipodi-0.dtd"
   xmlns:inkscape="http://www.inkscape.org/namespaces/inkscape"
   version="1.1"
   id="Layer_1"
   x="0px"
   y="0px"
   viewBox="0 0 1000 1000"
   width="100%"
   height="100%"
   style="enable-background:new 0 0 1000 1000;"
   xml:space="preserve"
  ><switch
     id="switch3"
     transform="translate(-56.6,15.35)"><g
       id="g5"><g
         id="g7"><path
           d="m 940.8,490.1 c -5.1,4.8 -10.1,9.5 -15.2,14 -6.8,-1.3 -13.6,-2.6 -20.4,-3.9 2.9,5.9 5.3,11.8 8,18 -1.7,2.8 -3.6,5.5 -5.5,8.2 l -5.7,8 c 6.9,0 13.8,0 20.7,0 2.1,2.7 4.3,5.4 6.4,8.2 2,2.7 4,5.5 6,8.4 2.5,-6.6 4.4,-13.3 6.5,-20.1 6.5,-2.5 13.1,-5.2 19.4,-8.1 -5.8,-4 -11.7,-7.8 -17.5,-11.5 -0.6,-7.3 -1.8,-14.3 -2.7,-21.2 z"
           id="path9"
           inkscape:connector-curvature="0" /><path
           d="m 933.7,567.2 0.3,-5.3 0.1,-5.3 c -5.6,3.9 -11.6,7.6 -17.5,11.1 -6.4,-2.5 -12.9,-4.9 -19.4,-7.3 1.7,6.2 3.5,12.6 4.8,19.1 -4.6,4.8 -8.9,9.5 -13.8,14 6.8,1.3 13.6,2.5 20.4,3.6 3.2,6 6.3,12.1 9.4,18.5 l 5,-9.3 c 1.6,-3.1 3.4,-6.2 4.9,-9.4 6.8,-1.4 13.6,-2.9 20.4,-4.6 -5,-4.9 -9.9,-9.7 -15.2,-14.4 l 0.6,-10.7 z"
           id="path11"
           inkscape:connector-curvature="0" /><path
           d="m 915.9,621.2 c -6.4,2.8 -12.7,5.5 -19.1,7.9 -5.9,-3.6 -11.9,-7.1 -17.8,-10.6 0.7,6.5 0.9,12.9 1.4,19.6 -5.3,4 -10.8,7.7 -16.1,11.3 6.4,2.4 12.9,4.8 19.4,7.1 2.3,6.6 4.1,13.1 6,19.8 2.2,-2.7 4.5,-5.4 6.7,-8.2 l 6.3,-8.5 c 6.9,-0.2 14.1,-0.4 21,-0.9 -4.1,-5.8 -8.3,-11.4 -12.5,-16.9 1.9,-6.8 3.2,-13.8 4.7,-20.6 z"
           id="path13"
           inkscape:connector-curvature="0" /><path
           d="m 886.7,681.5 c -6.7,1.7 -13.6,3.1 -20.3,4.4 -5.2,-4.6 -10.4,-9.1 -15.7,-13.5 l -0.8,9.8 -1.3,9.7 -8.8,4.4 -9,4 c 5.9,3.5 11.9,7 17.9,10.4 0.9,6.7 2,13.7 2.5,20.6 5.4,-4.5 10.4,-9.4 15.7,-14.2 6.8,1 13.7,1.9 20.7,2.6 -3,-6.4 -6.1,-12.6 -9.3,-18.7 2.9,-6.6 5.9,-13 8.4,-19.5 z"
           id="path15"
           inkscape:connector-curvature="0" /><path
           d="m 847.4,735.7 c -7,0.5 -13.7,0.9 -20.7,0.8 -4.3,-5.4 -8.7,-10.7 -13.1,-16 -1.7,6.2 -3.4,12.6 -5.4,18.9 -6.4,1.8 -12.6,3.7 -19,5.2 5.3,4.5 10.6,9 15.9,13.4 -0.2,6.8 -0.6,13.6 -1.2,20.6 5.9,-3.7 12.1,-7.2 17.9,-11.3 6.6,2.2 13.3,4.3 20,6.3 -1.8,-6.7 -3.9,-13.5 -6,-20.1 l 5.9,-8.8 c 2,-3 3.9,-6 5.7,-9 z"
           id="path17"
           inkscape:connector-curvature="0" /><path
           d="m 768.7,761.6 -2,4.5 -2.2,4.4 -4.5,8.8 c -1.6,0.2 -3.2,0.4 -4.9,0.6 l -4.9,0.4 -9.7,0.8 c 4.4,5.3 8.8,10.6 13.3,15.8 -0.7,3.4 -1.4,6.8 -2.1,10.1 -0.8,3.3 -1.7,6.7 -2.5,10 6.7,-2.3 13.1,-5.2 19.6,-8 3.1,1.7 6.2,3.3 9.3,5 3.1,1.6 6.2,3.1 9.4,4.7 -0.7,-7 -1.5,-14 -2.4,-20.8 2.5,-2.4 4.9,-5.1 7.3,-7.7 l 7.1,-7.8 c -7,-0.8 -13.8,-1.7 -20.5,-2.7 -3.4,-6.1 -6.8,-12.1 -10.3,-18.1 z"
           id="path19"
           inkscape:connector-curvature="0" /><path
           d="m 717.4,794.2 c -3.7,5.3 -7.4,10.8 -11.5,15.9 -6.6,-0.4 -13.1,-0.7 -19.6,-1.6 3.4,6 6.9,12 10.4,18 -2.5,6.3 -5.2,12.7 -8.1,19.1 6.8,-1.5 13.8,-2.8 20.7,-4.5 5.4,4.3 11,8.5 16.6,12.6 0.6,-7 1.1,-13.8 1.3,-20.9 l 8.5,-6.3 4.2,-3.1 4.1,-3.3 c -6.6,-1.8 -13.3,-4.1 -19.7,-6.3 -2.3,-6.6 -4.5,-13.1 -6.9,-19.6 z"
           id="path21"
           inkscape:connector-curvature="0" /><path
           d="m 661.3,817.5 c -4.5,4.6 -9.3,9 -14.1,13.6 -6.5,-1.6 -12.8,-3.3 -19,-5 2.3,6.5 4.6,13 7.1,19.4 -3.5,6 -7.4,11.5 -11.3,17.3 l 10.6,-0.1 10.6,-0.7 c 4.6,5.2 9.3,10.5 14.2,15.5 1.8,-6.9 3.4,-13.7 4.9,-20.5 3.2,-1.6 6.4,-2.9 9.5,-4.6 l 9.3,-5 c -6.3,-3.1 -12.3,-6.2 -18.3,-9.6 -1.2,-6.6 -2.3,-13.4 -3.5,-20.3 z"
           id="path23"
           inkscape:connector-curvature="0" /><path
           d="m 601.9,830.5 -8,5.7 c -2.7,1.9 -5.5,3.5 -8.3,5.3 l -9,-3.9 c -3,-1.3 -5.9,-2.9 -8.8,-4.3 1.1,6.8 2.3,13.6 3.6,20.4 -4.5,5.1 -9.2,10.1 -14.1,15.2 6.9,1 13.9,2 20.9,2.9 3.6,5.9 7.4,11.7 11.3,17.6 2.9,-6.4 5.7,-12.7 8.4,-19.1 6.8,-2.1 13.6,-3.9 20.2,-6.2 -5.6,-4 -11.1,-8.5 -16.4,-12.7 0,-7.1 0.1,-14 0.2,-20.9 z"
           id="path25"
           inkscape:connector-curvature="0" /><path
           d="m 541.1,833.1 c -5.9,2.9 -11.8,5.3 -18,8 -2.8,-1.7 -5.5,-3.6 -8.2,-5.5 l -8,-5.7 c 0,6.9 0,13.8 0,20.7 -2.7,2.1 -5.4,4.3 -8.2,6.4 -2.7,2 -5.5,4 -8.4,6 6.6,2.5 13.3,4.4 20.1,6.5 2.5,6.5 5.2,13.1 8.1,19.4 4,-5.8 7.8,-11.7 11.5,-17.6 7,-0.5 14,-1.7 21,-2.6 -4.8,-5.1 -9.5,-10.1 -14,-15.2 1.5,-6.7 2.8,-13.6 4.1,-20.4 z"
           id="path27"
           inkscape:connector-curvature="0" /><path
           d="m 480.8,825.2 c -6.2,1.7 -12.6,3.5 -19.1,4.8 -4.8,-4.6 -9.5,-8.9 -14,-13.8 -1.3,6.8 -2.5,13.6 -3.6,20.4 -6,3.2 -12.1,6.3 -18.5,9.4 l 9.3,5 c 3.1,1.6 6.2,3.4 9.4,4.9 1.4,6.8 2.9,13.6 4.6,20.4 4.9,-5 9.7,-9.9 14.4,-15.2 l 10.6,0.7 5.3,0.3 5.3,0.1 c -3.9,-5.6 -7.6,-11.6 -11.1,-17.5 2.5,-6.6 5,-13.1 7.4,-19.5 z"
           id="path29"
           inkscape:connector-curvature="0" /><path
           d="m 403.2,808.2 c -4,-5.3 -7.7,-10.8 -11.3,-16.1 -2.4,6.4 -4.8,12.9 -7.1,19.4 -6.6,2.3 -13.1,4.1 -19.8,6 2.7,2.2 5.4,4.5 8.2,6.7 l 8.5,6.3 c 0.2,6.9 0.4,14.1 0.9,21 5.8,-4.1 11.4,-8.3 16.9,-12.5 6.8,2 13.8,3.3 20.6,4.8 -2.8,-6.4 -5.5,-12.7 -7.9,-19.1 3.6,-5.9 7.1,-11.9 10.6,-17.8 -6.5,0.7 -12.9,0.9 -19.6,1.3 z"
           id="path31"
           inkscape:connector-curvature="0" /><path
           d="m 368.9,778.7 -9.8,-0.8 -9.7,-1.3 -4.4,-8.8 -4,-9 c -3.5,5.9 -7,11.9 -10.4,17.9 -6.7,0.9 -13.7,2 -20.6,2.5 4.5,5.4 9.4,10.4 14.2,15.7 -1,6.8 -1.9,13.7 -2.6,20.7 6.4,-3 12.6,-6.1 18.7,-9.3 6.6,2.8 12.9,5.7 19.5,8.2 -1.7,-6.7 -3.1,-13.6 -4.4,-20.3 4.6,-5 9.1,-10.3 13.5,-15.5 z"
           id="path33"
           inkscape:connector-curvature="0" /><path
           d="m 320.7,741.6 c -6.2,-1.7 -12.6,-3.4 -18.9,-5.4 -1.8,-6.4 -3.7,-12.6 -5.2,-19 -4.5,5.3 -9,10.6 -13.4,15.9 -6.8,-0.2 -13.6,-0.6 -20.6,-1.2 3.7,5.9 7.2,12.1 11.3,17.9 -2.2,6.6 -4.3,13.3 -6.3,20 6.7,-1.8 13.5,-3.9 20.1,-6 l 8.8,5.9 c 3,1.9 6,3.7 9,5.5 -0.5,-7 -0.9,-13.7 -0.8,-20.7 5.4,-4.1 10.7,-8.5 16,-12.9 z"
           id="path35"
           inkscape:connector-curvature="0" /><path
           d="m 275.1,694.7 -4.4,-2.2 -8.8,-4.5 c -0.2,-1.6 -0.4,-3.2 -0.6,-4.9 l -0.4,-4.9 -0.8,-9.7 c -5.3,4.4 -10.6,8.8 -15.8,13.3 -3.4,-0.7 -6.8,-1.4 -10.1,-2.1 -3.3,-0.8 -6.7,-1.7 -10,-2.5 2.3,6.7 5.2,13.1 8,19.6 -1.7,3.1 -3.3,6.2 -5,9.3 -1.6,3.1 -3.1,6.2 -4.7,9.4 7,-0.7 14,-1.5 20.8,-2.4 2.4,2.5 5.1,4.9 7.7,7.3 l 7.8,7.1 c 0.8,-7 1.7,-13.8 2.7,-20.5 6.1,-3.3 12.1,-6.7 18.1,-10.2 l -4.5,-2.1 z"
           id="path37"
           inkscape:connector-curvature="0" /><path
           d="m 247,645.4 c -5.3,-3.7 -10.8,-7.4 -15.9,-11.5 0.4,-6.6 0.7,-13.1 1.6,-19.6 -6,3.4 -12,6.9 -18,10.4 -6.3,-2.5 -12.7,-5.2 -19.1,-8.1 1.5,6.8 2.8,13.8 4.5,20.7 -4.3,5.4 -8.5,11 -12.6,16.6 7,0.6 13.8,1.1 20.9,1.3 l 6.3,8.5 3.1,4.2 3.3,4.1 c 1.8,-6.6 4.1,-13.3 6.3,-19.7 6.6,-2.3 13.1,-4.6 19.6,-6.9 z"
           id="path39"
           inkscape:connector-curvature="0" /><path
           d="m 193.7,610.9 c 3.1,-6.3 6.2,-12.3 9.6,-18.3 6.8,-1.1 13.6,-2.1 20.4,-3.3 -4.6,-4.5 -9,-9.3 -13.6,-14.1 1.6,-6.5 3.3,-12.8 5,-19 -6.5,2.3 -13,4.6 -19.4,7.1 -6,-3.5 -11.5,-7.4 -17.3,-11.3 l 0.1,10.6 0.7,10.6 c -5.2,4.6 -10.5,9.3 -15.5,14.2 6.9,1.8 13.7,3.4 20.5,4.9 1.6,3.2 2.9,6.4 4.6,9.5 l 4.9,9.1 z"
           id="path41"
           inkscape:connector-curvature="0" /><path
           d="m 177.3,545.9 c 4,-5.6 8.5,-11.1 12.7,-16.4 6.9,0.2 13.8,0.3 20.7,0.3 l -5.7,-8 c -1.9,-2.7 -3.5,-5.5 -5.3,-8.3 l 3.9,-9 c 1.3,-3 2.9,-5.9 4.3,-8.8 -6.8,1.1 -13.6,2.3 -20.4,3.6 -5.1,-4.5 -10.1,-9.2 -15.2,-14.1 -1,6.9 -2,13.9 -2.9,20.9 -5.9,3.6 -11.7,7.4 -17.6,11.3 6.4,2.9 12.7,5.7 19.1,8.4 2.3,6.7 4.1,13.5 6.4,20.1 z"
           id="path43"
           inkscape:connector-curvature="0" /><path
           d="m 172.5,479.1 c 5.1,-4.8 10.1,-9.5 15.2,-14 6.8,1.3 13.6,2.6 20.4,3.9 -2.9,-5.9 -5.3,-11.8 -8,-18 1.7,-2.8 3.6,-5.5 5.5,-8.2 l 5.7,-8 c -6.9,0 -13.8,0 -20.7,0 -2.1,-2.7 -4.3,-5.4 -6.4,-8.2 -2,-2.7 -4,-5.5 -6,-8.4 -2.5,6.6 -4.4,13.3 -6.5,20.1 -6.5,2.5 -13.1,5.2 -19.4,8.1 5.8,4 11.7,7.8 17.5,11.5 0.5,7.3 1.8,14.3 2.7,21.2 z"
           id="path45"
           inkscape:connector-curvature="0" /><path
           d="m 179.6,401.9 -0.3,5.3 -0.1,5.3 c 5.6,-3.9 11.6,-7.6 17.5,-11.1 6.4,2.5 12.9,4.9 19.4,7.3 -1.7,-6.2 -3.5,-12.6 -4.8,-19.1 4.6,-4.8 8.9,-9.5 13.8,-14 -6.8,-1.3 -13.6,-2.5 -20.4,-3.6 -3.2,-6 -6.3,-12.1 -9.4,-18.5 l -5,9.3 c -1.6,3.1 -3.4,6.2 -4.9,9.4 -6.8,1.4 -13.6,2.9 -20.4,4.6 5,4.9 9.9,9.7 15.2,14.4 l -0.6,10.7 z"
           id="path47"
           inkscape:connector-curvature="0" /><path
           d="m 197.4,348 c 6.4,-2.8 12.7,-5.5 19.1,-7.9 5.9,3.6 11.9,7.1 17.8,10.6 -0.7,-6.5 -0.9,-12.9 -1.4,-19.6 5.3,-4 10.8,-7.7 16.1,-11.3 -6.4,-2.4 -12.9,-4.8 -19.4,-7.1 -2.3,-6.6 -4.1,-13.1 -6,-19.8 -2.2,2.7 -4.5,5.4 -6.7,8.2 l -6.3,8.5 c -6.9,0.2 -14.1,0.4 -21,0.9 4.1,5.8 8.3,11.4 12.5,16.9 -1.9,6.8 -3.2,13.8 -4.7,20.6 z"
           id="path49"
           inkscape:connector-curvature="0" /><path
           d="m 226.6,287.7 c 6.7,-1.7 13.6,-3.1 20.3,-4.4 5.2,4.6 10.4,9.1 15.7,13.5 l 0.8,-9.8 1.3,-9.7 8.8,-4.4 9,-4 c -5.9,-3.5 -11.9,-7 -17.9,-10.4 -0.9,-6.7 -2,-13.7 -2.5,-20.6 -5.4,4.5 -10.4,9.4 -15.7,14.2 -6.8,-1 -13.7,-1.9 -20.7,-2.6 3,6.4 6.1,12.6 9.3,18.7 -2.9,6.6 -5.9,13 -8.4,19.5 z"
           id="path51"
           inkscape:connector-curvature="0" /><path
           d="m 265.9,233.5 c 7,-0.5 13.7,-0.9 20.7,-0.8 4.3,5.4 8.7,10.7 13.1,16 1.7,-6.2 3.4,-12.6 5.4,-18.9 6.4,-1.8 12.6,-3.7 19,-5.2 -5.3,-4.5 -10.6,-9 -15.9,-13.4 0.2,-6.8 0.6,-13.6 1.2,-20.6 -5.9,3.7 -12.1,7.2 -17.9,11.3 -6.6,-2.2 -13.3,-4.3 -20,-6.3 1.8,6.7 3.9,13.5 6,20.1 l -5.9,8.8 c -2.1,2.9 -3.9,6 -5.7,9 z"
           id="path53"
           inkscape:connector-curvature="0" /><path
           d="m 344.5,207.6 2,-4.5 2.2,-4.4 4.5,-8.8 c 1.6,-0.2 3.2,-0.4 4.9,-0.6 l 4.9,-0.4 9.7,-0.8 c -4.4,-5.3 -8.8,-10.6 -13.3,-15.8 0.7,-3.4 1.4,-6.8 2.1,-10.1 0.8,-3.3 1.7,-6.7 2.5,-10 -6.7,2.3 -13.1,5.2 -19.6,8 -3.1,-1.7 -6.2,-3.3 -9.3,-5 -3.1,-1.6 -6.2,-3.1 -9.4,-4.7 0.7,7 1.5,14 2.4,20.8 -2.5,2.4 -4.9,5 -7.3,7.7 l -7.1,7.8 c 7,0.8 13.8,1.7 20.5,2.7 3.5,6.1 6.9,12.1 10.3,18.1 z"
           id="path55"
           inkscape:connector-curvature="0" /><path
           d="m 395.8,174.9 c 3.7,-5.3 7.4,-10.8 11.5,-15.9 6.6,0.4 13.1,0.7 19.6,1.6 -3.4,-6 -6.9,-12 -10.4,-18 2.5,-6.3 5.2,-12.7 8.1,-19.1 -6.8,1.5 -13.8,2.8 -20.7,4.5 -5.4,-4.3 -11,-8.5 -16.6,-12.6 -0.6,7 -1.1,13.8 -1.3,20.9 l -8.5,6.3 -4.2,3.1 -4.1,3.3 c 6.6,1.8 13.3,4.1 19.7,6.3 2.3,6.6 4.6,13.1 6.9,19.6 z"
           id="path57"
           inkscape:connector-curvature="0" /><path
           d="m 478.8,106.4 -10.6,0.7 c -4.6,-5.2 -9.3,-10.5 -14.2,-15.5 -1.8,6.9 -3.4,13.7 -4.9,20.5 -3.2,1.6 -6.4,2.9 -9.5,4.6 l -9.3,5 c 6.3,3.1 12.3,6.2 18.3,9.6 1.1,6.8 2.1,13.6 3.3,20.4 4.5,-4.6 9.3,-9 14.1,-13.6 6.5,1.6 12.8,3.3 19,5 -2.3,-6.5 -4.6,-13 -7.1,-19.4 3.5,-6 7.4,-11.5 11.3,-17.3 l -10.4,0 z"
           id="path59"
           inkscape:connector-curvature="0" /><path
           d="m 523.9,79.9 c -2.9,6.4 -5.7,12.7 -8.4,19.1 -6.8,2.1 -13.6,3.9 -20.2,6.2 5.6,4 11.1,8.5 16.4,12.7 -0.2,6.9 -0.3,13.8 -0.3,20.7 l 8,-5.7 c 2.7,-1.9 5.5,-3.5 8.3,-5.3 l 9,3.9 c 3,1.3 5.9,2.9 8.8,4.3 -1.1,-6.8 -2.3,-13.6 -3.6,-20.4 4.5,-5.1 9.2,-10.1 14.1,-15.2 -6.9,-1 -13.9,-2 -20.9,-2.9 -3.5,-5.7 -7.3,-11.6 -11.2,-17.4 z"
           id="path61"
           inkscape:connector-curvature="0" /><path
           d="m 594.6,80.3 c -4,5.8 -7.8,11.7 -11.5,17.5 -7,0.5 -14,1.7 -21,2.6 4.8,5.1 9.5,10.1 14,15.2 -1.3,6.8 -2.6,13.6 -3.9,20.4 5.9,-2.9 11.8,-5.3 18,-8 2.8,1.7 5.5,3.6 8.2,5.5 l 8,5.7 c 0,-6.9 0,-13.8 0,-20.7 2.7,-2.1 5.4,-4.3 8.2,-6.4 2.7,-2 5.5,-4 8.4,-6 -6.6,-2.5 -13.3,-4.4 -20.1,-6.5 -2.7,-6.4 -5.4,-13 -8.3,-19.3 z"
           id="path63"
           inkscape:connector-curvature="0" /><path
           d="m 632.5,144 c 6.2,-1.7 12.6,-3.5 19.1,-4.8 4.8,4.6 9.5,8.9 14,13.8 1.3,-6.8 2.5,-13.6 3.6,-20.4 6,-3.2 12.1,-6.3 18.5,-9.4 l -9.3,-5 c -3.1,-1.6 -6.2,-3.4 -9.4,-4.9 -1.4,-6.8 -2.9,-13.6 -4.6,-20.4 -4.9,5 -9.7,9.9 -14.4,15.2 l -10.6,-0.7 -5.3,-0.3 -5.3,-0.1 c 3.9,5.6 7.6,11.6 11.1,17.5 -2.6,6.6 -5,13.1 -7.4,19.5 z"
           id="path65"
           inkscape:connector-curvature="0" /><path
           d="m 710.1,160.9 c 4,5.3 7.7,10.8 11.3,16.1 2.4,-6.4 4.8,-12.9 7.1,-19.4 6.6,-2.3 13.1,-4.1 19.8,-6 -2.7,-2.2 -5.4,-4.5 -8.2,-6.7 l -8.5,-6.3 c -0.2,-6.9 -0.4,-14.1 -0.9,-21 -5.8,4.1 -11.4,8.3 -16.9,12.5 -6.8,-2 -13.8,-3.3 -20.6,-4.8 2.8,6.4 5.5,12.7 7.9,19.1 -3.6,5.9 -7.1,11.9 -10.6,17.8 6.4,-0.6 12.9,-0.9 19.6,-1.3 z"
           id="path67"
           inkscape:connector-curvature="0" /><path
           d="m 744.3,190.5 9.8,0.8 9.7,1.3 4.4,8.8 4,9 c 3.5,-5.9 7,-11.9 10.4,-17.9 6.7,-0.9 13.7,-2 20.6,-2.5 -4.5,-5.4 -9.4,-10.4 -14.2,-15.7 1,-6.8 1.9,-13.7 2.6,-20.7 -6.4,3 -12.6,6.1 -18.7,9.3 -6.6,-2.8 -12.9,-5.7 -19.5,-8.2 1.7,6.7 3.1,13.6 4.4,20.3 -4.5,5 -9,10.3 -13.5,15.5 z"
           id="path69"
           inkscape:connector-curvature="0" /><path
           d="m 792.6,227.6 c 6.2,1.7 12.6,3.4 18.9,5.4 1.8,6.4 3.7,12.6 5.2,19 4.5,-5.3 9,-10.6 13.4,-15.9 6.8,0.2 13.6,0.6 20.6,1.2 -3.7,-5.9 -7.2,-12.1 -11.3,-17.9 2.2,-6.6 4.3,-13.3 6.3,-20 -6.7,1.8 -13.5,3.9 -20.1,6 l -8.8,-5.9 c -3,-1.9 -6,-3.7 -9,-5.5 0.5,7 0.9,13.7 0.8,20.7 -5.4,4.1 -10.7,8.5 -16,12.9 z"
           id="path71"
           inkscape:connector-curvature="0" /><path
           d="m 838.1,274.5 4.4,2.2 8.8,4.5 c 0.2,1.6 0.4,3.2 0.6,4.9 l 0.4,4.9 0.8,9.7 c 5.3,-4.4 10.6,-8.8 15.8,-13.3 3.4,0.7 6.8,1.4 10.1,2.1 3.3,0.8 6.7,1.7 10,2.5 -2.3,-6.7 -5.2,-13.1 -8,-19.6 1.7,-3.1 3.3,-6.2 5,-9.3 1.6,-3.1 3.1,-6.2 4.7,-9.4 -7,0.7 -14,1.5 -20.8,2.4 -2.4,-2.5 -5.1,-4.9 -7.7,-7.3 l -7.8,-7.1 c -0.8,7 -1.7,13.8 -2.7,20.5 -6.1,3.3 -12.1,6.7 -18.1,10.2 l 4.5,2.1 z"
           id="path73"
           inkscape:connector-curvature="0" /><path
           d="m 866.3,323.8 c 5.3,3.7 10.8,7.4 15.9,11.5 -0.4,6.6 -0.7,13.1 -1.6,19.6 6,-3.4 12,-6.9 18,-10.4 6.3,2.5 12.7,5.2 19.1,8.1 -1.5,-6.8 -2.8,-13.8 -4.5,-20.7 4.3,-5.4 8.5,-11 12.6,-16.6 -7,-0.6 -13.8,-1.1 -20.9,-1.3 l -6.3,-8.5 -3.1,-4.2 -3.3,-4.1 c -1.8,6.6 -4.1,13.3 -6.3,19.7 -6.6,2.3 -13.1,4.6 -19.6,6.9 z"
           id="path75"
           inkscape:connector-curvature="0" /><path
           d="m 919.6,358.3 c -3.1,6.3 -6.2,12.3 -9.6,18.3 -6.8,1.1 -13.6,2.1 -20.4,3.3 4.6,4.5 9,9.3 13.6,14.1 -1.6,6.5 -3.3,12.8 -5,19 6.5,-2.3 13,-4.6 19.4,-7.1 6,3.5 11.5,7.4 17.3,11.3 l -0.1,-10.6 -0.7,-10.6 c 5.2,-4.6 10.5,-9.3 15.5,-14.2 -6.9,-1.8 -13.7,-3.4 -20.5,-4.9 -1.6,-3.2 -2.9,-6.4 -4.6,-9.5 l -4.9,-9.1 z"
           id="path77"
           inkscape:connector-curvature="0" /><path
           d="m 905.3,473.5 c 6.8,-1.1 13.6,-2.3 20.4,-3.6 5.1,4.5 10.1,9.2 15.2,14.1 1,-6.9 2,-13.9 2.9,-20.9 5.9,-3.6 11.7,-7.4 17.6,-11.3 -6.4,-2.9 -12.7,-5.7 -19.1,-8.4 -2.1,-6.8 -3.9,-13.6 -6.2,-20.2 -4,5.6 -8.5,11.1 -12.7,16.4 -6.9,-0.2 -13.8,-0.3 -20.7,-0.3 l 5.7,8 c 1.9,2.7 3.5,5.5 5.3,8.3 l -3.9,9 c -1.5,3 -3.1,6 -4.5,8.9 z"
           id="path79"
           inkscape:connector-curvature="0" /></g></g></switch></svg>