<?xml version="1.0" encoding="UTF-8" standalone="no"?>
<svg
   xmlns:dc="http://purl.org/dc/elements/1.1/"
   xmlns:cc="http://creativecommons.org/ns#"
   xmlns:rdf="http://www.w3.org/1999/02/22-rdf-syntax-ns#"
   xmlns:svg="http://www.w3.org/2000/svg"
   xmlns="http://www.w3.org/2000/svg"
   xmlns:sodipodi="http://sodipodi.sourceforge.net/DTD/sodipodi-0.dtd"
   xmlns:inkscape="http://www.inkscape.org/namespaces/inkscape"
   version="1.1"
   id="Layer_1"
   x="0px"
   y="0px"
   viewBox="0 0 1000 1000"
   width="100%"
   height="100%"
   style="enable-background:new 0 0 1000 1000;"
   xml:space="preserve"
   ><style
     type="text/css"
     id="style3">
	.noFillSVG{fill:none;}
</style><switch
     id="switch5"
     transform="translate(-0.05,-0.05)"><g
       id="g7"><g
         id="g9"><path
           class="noFillSVG"
           d="m 674.5,738.8 c 3.8,-0.4 7.7,-0.9 11.5,-1.4 l 11.5,-2 5.9,-1.1 5.8,-1.3 11.8,-2.8 3.2,-11.7 1.5,-5.7 1.2,-5.8 2.3,-11.5 c 0.6,-3.8 1.2,-7.7 1.7,-11.5 10,10.2 19.8,20.6 29.5,31.1 52.5,-60.1 85.7,-137.5 89.8,-222.4 -17.2,2.3 -34.5,4.2 -51.7,5.8 4.4,-6.5 7.9,-13.1 11.8,-20.1 l 1.4,-2.6 1.3,-2.6 2.6,-5.3 c 1.7,-3.6 3.6,-7.2 5.1,-10.9 l -7.1,-9.7 c -1.2,-1.6 -2.3,-3.2 -3.6,-4.7 l -3.8,-4.6 c -2.5,-3 -5,-6 -7.5,-8.9 l -7.9,-8.5 c 17.6,-1.8 35.2,-3.3 53,-4.4 0.5,-0.8 1.1,-1.6 1.6,-2.4 -13.9,-82 -55.1,-154.7 -114,-208.5 -0.7,0.1 -1.4,0.1 -2.1,0.2 -4.4,0.4 -8.8,1 -13.1,1.6 -9.1,15.2 -18.5,30.2 -28.2,44.9 l -4,-10.8 -2.1,-5.5 -2.3,-5.3 -4.9,-10.9 -5.5,-10.7 -6,-0.4 c -2,-0.1 -4,-0.1 -6,-0.1 l -11.8,-0.1 c -3.9,0.1 -7.9,0.3 -11.7,0.5 -3.9,0.2 -7.6,0.3 -11.5,0.8 9.6,-15 19.4,-29.7 29.6,-44.2 -1.2,-4.3 -2.6,-8.4 -4,-12.5 -0.7,-1.9 -1.4,-3.9 -2.1,-5.8 -48.5,-23.8 -103,-37.2 -160.6,-37.2 -21.9,0 -43.3,1.9 -64.1,5.6 -1.8,2.7 -3.7,5.3 -5.4,7.9 -2.4,3.8 -4.7,7.5 -6.9,11.3 6.2,16.6 12.1,33.3 17.6,50.1 l -10.9,-3.6 c -1.8,-0.6 -3.7,-1.3 -5.6,-1.8 l -5.6,-1.5 c -3.8,-1 -7.6,-2 -11.5,-3 l -11.8,-2.4 -4,4.4 -3.9,4.6 -7.5,9.2 c -2.4,3.2 -4.7,6.4 -7,9.5 l -3.4,4.7 c -1.1,1.6 -2.1,3.2 -3.2,4.9 -5.7,-16.8 -11.2,-33.7 -16.2,-50.7 -4.1,-1.8 -8.1,-3.2 -12.3,-4.7 -2.6,-0.9 -5.3,-1.8 -7.9,-2.7 -69.4,36.5 -125.8,94.7 -159.9,165.6 1.4,4.3 2.9,8.5 4.4,12.7 16.8,5.5 33.7,11.4 50.2,17.5 l -5,3 -4.8,3.2 -9.7,6.7 c -3.1,2.3 -6.2,4.8 -9.3,7.2 -3.1,2.5 -6.4,5 -9.3,7.7 l 2.1,11.8 c 0.3,1.9 0.8,3.9 1.3,5.8 l 1.4,5.8 1.4,5.7 c 0.5,1.9 0.9,3.7 1.5,5.6 l 3.4,11.1 c -16.6,-6 -33.2,-12.3 -49.6,-18.9 -2.5,1.4 -5.1,2.9 -7.6,4.4 -4.3,22.3 -6.5,45.2 -6.5,68.7 0,60.8 14.9,118.2 41.3,168.7 13.7,-9 27.8,-17.8 41.9,-26.3 -0.2,1.9 -0.5,3.8 -0.7,5.8 l -0.4,5.7 -0.8,11.7 -0.2,11.8 0,6.1 0.3,6 10.5,5.8 c 3.6,1.8 7.2,3.5 10.8,5.2 l 5.3,2.5 c 1.8,0.8 3.6,1.5 5.4,2.3 l 10.7,4.3 c -13.1,8.1 -26.4,15.9 -39.9,23.6 50.7,61.1 120.9,105.5 201,123.6 1.3,-13.3 2.9,-26.6 4.6,-39.9 5.4,5.3 11,10.9 17,15.9 3,2.5 6,5.2 9.1,7.7 l 9.6,7.3 5.6,-2.2 5.5,-2.5 10.8,-5 c 3.5,-1.7 7,-3.7 10.4,-5.5 l 5.1,-2.8 2.5,-1.4 2.5,-1.5 c -1.6,13 -3.4,25.9 -5.4,38.8 1,0 2.1,0 3.1,0 81.8,0 157.4,-27 218.3,-72.6 -9.7,-10 -19.4,-19.7 -28.9,-29.5 z"
           id="path11"
           inkscape:connector-curvature="0"
           style="fill:none" /><path
           d="m 892.9,422.9 c -5.8,-18.4 -13.4,-36 -21.7,-52.9 -5,10.1 -10.4,19.7 -16.2,29 -15.5,-75.6 -53.7,-143.1 -107.1,-194.9 2.8,-0.1 5.5,-0.3 8.2,-0.3 4.5,-0.1 9,0 13.6,0 -11,-15.3 -23.6,-29.8 -37,-43.6 1.1,-8.9 2,-18.1 2.6,-27.3 0.6,-9.1 0.9,-18.3 1,-27.7 -4.2,1.9 -8.4,3.9 -12.5,5.9 -4.2,2.1 -8.3,4.2 -12.4,6.4 -8.1,4.3 -16.1,8.8 -23.8,13.4 l -13.7,-4.7 c -2.3,-0.8 -4.5,-1.6 -6.8,-2.3 l -6.9,-2 c -4.6,-1.3 -9.1,-2.7 -13.7,-3.8 l -13.8,-3.2 c 1.9,4.2 3.8,8.4 5.5,12.5 0.4,1 0.8,2 1.3,3 -47.2,-21.2 -99.4,-33 -154.4,-33 -18.4,0 -36.5,1.3 -54.2,3.9 0,0 0.1,-0.1 0.1,-0.1 2.8,-3.5 5.6,-7.1 8.5,-10.6 C 430,90 420.6,90.3 411,90.4 c -4.8,0.1 -9.5,0.5 -14.3,0.8 l -7.2,0.5 c -2.4,0.2 -4.8,0.5 -7.2,0.8 -6.3,-6.4 -12.9,-12.8 -19.7,-19.1 -6.8,-6.1 -13.8,-12.1 -21,-18 -1.1,4.5 -2.2,9 -3.2,13.5 -1,4.6 -1.9,9.1 -2.7,13.6 -1.7,9.1 -3.1,18 -4.3,26.9 -16.4,10.1 -32.1,21.1 -46.7,33 5,1.3 10,2.6 14.8,3.9 -63.2,35.9 -115.1,89.4 -149,153.9 -2,-7.2 -3.7,-14.5 -5.4,-22.1 -6,7.3 -12.2,14.5 -17.8,22.2 -5.9,7.6 -11.1,15.6 -16.5,23.6 -9,0.9 -17.9,2.2 -27,3.6 -9.1,1.5 -18.3,3.1 -27.3,5.2 5.7,7.4 11.6,14.6 17.5,21.5 5.9,6.9 12.3,13.7 18.5,20.2 -1.5,9.5 -2,19.1 -2.8,28.6 -0.3,4.8 -0.3,9.5 -0.5,14.3 l -0.2,7.1 c 0,2.4 0.1,4.7 0.1,7.1 7,-5.6 14.7,-10.9 22,-15.9 0.4,-0.3 0.8,-0.5 1.2,-0.8 -3.1,19.6 -4.8,39.6 -4.8,60 0,59.8 14,116.4 38.9,166.8 -4.5,-1.6 -8.9,-3.4 -13.5,-5.2 -8.3,-3.4 -16.4,-7.2 -24.7,-11.2 3.5,18.5 8.4,37 14.5,55.3 -4.9,7.6 -9.5,15.4 -14,23.4 -2.3,4 -4.5,8.1 -6.7,12.2 -2.1,4.1 -4.2,8.2 -6.3,12.4 9.3,0.1 18.6,0.1 27.7,-0.2 9.3,-0.4 18.4,-1 27.4,-1.9 1.7,1.7 3.3,3.5 5,5.2 l 5.2,5 c 3.5,3.3 6.8,6.7 10.4,9.8 l 10.8,9.3 c 1.8,1.6 3.6,3 5.5,4.5 l 5.6,4.4 c 0.1,-4.6 0.2,-9.1 0.4,-13.6 0.2,-4.5 0.6,-9.1 1,-13.5 0.4,-4.5 0.8,-8.9 1.3,-13.2 0.3,-2 0.5,-4 0.8,-5.9 52.5,62.1 124.7,107 206.8,125.2 0,0.3 -0.1,0.5 -0.1,0.8 -3.6,2.4 -7.3,4.8 -11.1,7.1 -3.8,2.4 -7.6,4.4 -11.5,6.7 -7.8,4.3 -15.9,8.7 -24.2,12.3 l 6.3,3.4 6.4,3.1 c 4.3,2 8.6,4.1 12.9,6.1 l 13.2,5.5 c 2.2,0.9 4.4,1.9 6.7,2.7 l 6.8,2.4 c 2.9,8.5 6.1,17.2 9.5,25.7 3.4,8.4 7.1,16.9 11.1,25.3 3,-3.6 5.9,-7.2 8.7,-10.7 2.8,-3.7 5.6,-7.4 8.4,-11.1 5.4,-7.4 10.6,-14.9 15.6,-22.4 4.8,-0.5 9.6,-1.1 14.3,-1.7 l 7.1,-0.9 c 2.4,-0.3 4.7,-0.8 7.1,-1.2 l 14,-2.5 13.9,-3.2 c -7.1,-6 -13.9,-11.6 -20.3,-18 -3.2,-3.1 -6.4,-6.2 -9.5,-9.4 -1.5,-1.6 -3.1,-3.1 -4.6,-4.7 l -4.4,-4.9 c 0.1,-0.6 0.2,-1.1 0.3,-1.7 1.7,0 3.3,0.1 5,0.1 85.1,0 163.8,-28.3 227,-76.1 -1.6,17.3 -4.5,35 -8.8,52.8 17.2,-7.6 34.4,-16.2 50.7,-26.4 4.3,1.6 8.6,3.1 12.9,4.5 4.3,1.4 8.6,2.7 13,4.1 8.8,2.6 17.7,5 26.9,7.3 -2,-9.2 -4.1,-18.2 -6.5,-27.1 -1.2,-4.4 -2.4,-8.8 -3.7,-13.1 -1.3,-4.4 -2.7,-8.8 -4.2,-13.1 10.7,-16 19.8,-32.9 27.9,-49.9 -2.2,0.5 -4.4,1 -6.7,1.4 L 807,718 c -4.5,0.8 -8.9,1.5 -13.3,2.1 -4.3,0.7 -8.8,1.1 -13.2,1.6 -3.5,0.3 -7,0.6 -10.5,0.9 52,-59.7 85.5,-135.9 91.7,-219.6 2.7,2.8 5.4,5.7 8.2,8.7 5.9,6.6 11.6,13.6 17.4,20.8 2.2,-9.1 4.8,-18.3 6.4,-27.7 0.9,-4.7 1.9,-9.4 2.6,-14.1 l 2,-14.3 c 7.9,-4.7 15.3,-9.7 22.9,-14.9 7.5,-5.2 15.1,-10.7 22.4,-16.5 -17,-8.4 -33.5,-15.8 -50.7,-22.1 z M 482.1,840.4 c 2,-12.9 3.8,-25.8 5.4,-38.8 l -2.5,1.5 -2.5,1.4 -5.1,2.8 c -3.4,1.8 -6.9,3.8 -10.4,5.5 l -10.8,5 -5.5,2.5 -5.6,2.2 -9.6,-7.3 c -3.1,-2.5 -6.1,-5.2 -9.1,-7.7 -6,-5 -11.6,-10.6 -17,-15.9 -1.7,13.2 -3.3,26.5 -4.6,39.9 -80.1,-18 -150.3,-62.4 -201,-123.6 13.5,-7.7 26.8,-15.5 39.9,-23.6 L 233,680 c -1.8,-0.7 -3.7,-1.5 -5.4,-2.3 l -5.3,-2.5 c -3.5,-1.7 -7.2,-3.4 -10.8,-5.2 l -10.5,-5.8 -0.3,-6 0,-6.1 0.2,-11.8 0.8,-11.7 0.4,-5.7 c 0.2,-1.9 0.5,-3.9 0.7,-5.8 -14.1,8.5 -28.1,17.3 -41.9,26.3 -26.4,-50.5 -41.3,-107.9 -41.3,-168.7 0,-23.5 2.3,-46.4 6.5,-68.7 2.6,-1.5 5.1,-3 7.6,-4.4 16.5,6.7 33,13 49.6,18.9 l -3.4,-11.1 c -0.6,-1.9 -1.1,-3.7 -1.5,-5.6 l -1.4,-5.7 -1.4,-5.8 c -0.5,-1.9 -0.9,-3.9 -1.3,-5.8 l -2.1,-11.8 c 2.9,-2.7 6.2,-5.2 9.3,-7.7 3.2,-2.5 6.2,-4.9 9.3,-7.2 l 9.7,-6.7 4.8,-3.2 5,-3 c -16.6,-6.2 -33.4,-12.1 -50.2,-17.5 -1.6,-4.2 -3,-8.4 -4.4,-12.7 34.1,-70.9 90.5,-129.1 159.9,-165.6 2.7,0.9 5.3,1.8 7.9,2.7 4.2,1.5 8.2,2.9 12.3,4.7 5,16.9 10.4,33.9 16.2,50.7 1,-1.6 2.1,-3.3 3.2,-4.9 l 3.4,-4.7 c 2.3,-3.1 4.6,-6.3 7,-9.5 l 7.5,-9.2 3.9,-4.6 4,-4.4 11.8,2.4 c 3.9,1 7.8,2 11.5,3 l 5.6,1.5 c 1.9,0.5 3.7,1.2 5.6,1.8 l 10.9,3.6 c -5.5,-16.8 -11.4,-33.5 -17.6,-50.1 2.2,-3.7 4.6,-7.5 6.9,-11.3 1.8,-2.6 3.6,-5.3 5.4,-7.9 20.8,-3.7 42.2,-5.6 64.1,-5.6 57.6,0 112.1,13.4 160.6,37.2 0.7,1.9 1.4,3.9 2.1,5.8 1.4,4.2 2.8,8.2 4,12.5 -10.1,14.5 -20,29.2 -29.6,44.2 3.9,-0.5 7.6,-0.6 11.5,-0.8 3.9,-0.2 7.8,-0.4 11.7,-0.5 l 11.8,0.1 c 2,0 4,0.1 6,0.1 l 6,0.4 5.5,10.7 4.9,10.9 2.3,5.3 2.1,5.5 4,10.8 c 9.7,-14.7 19.1,-29.7 28.2,-44.9 4.3,-0.6 8.7,-1.2 13.1,-1.6 0.7,-0.1 1.4,-0.1 2.1,-0.2 58.9,53.8 100.1,126.6 114,208.5 -0.5,0.8 -1.1,1.6 -1.6,2.4 -17.7,1.1 -35.4,2.6 -53,4.4 l 7.9,8.5 c 2.5,2.9 5,5.9 7.5,8.9 l 3.8,4.6 c 1.3,1.5 2.4,3.1 3.6,4.7 l 7.1,9.7 c -1.5,3.7 -3.4,7.4 -5.1,10.9 l -2.6,5.3 -1.3,2.6 -1.4,2.6 c -3.9,6.9 -7.5,13.6 -11.8,20.1 17.2,-1.6 34.5,-3.5 51.7,-5.8 -4.1,84.9 -37.3,162.3 -89.8,222.4 -9.7,-10.5 -19.5,-21 -29.5,-31.1 -0.5,3.8 -1.1,7.6 -1.7,11.5 l -2.3,11.5 -1.2,5.8 -1.5,5.7 -3.2,11.7 -11.8,2.8 -5.8,1.3 -5.9,1.1 -11.5,2 c -3.9,0.5 -7.7,0.9 -11.5,1.4 9.5,9.8 19.2,19.5 29,29.1 C 642.6,813 567,840 485.3,840 c -1.2,0.4 -2.2,0.4 -3.2,0.4 z"
           id="path13"
           inkscape:connector-curvature="0" /></g></g></switch></svg>