<?xml version="1.0" encoding="UTF-8" standalone="no"?>
<svg
   xmlns:dc="http://purl.org/dc/elements/1.1/"
   xmlns:cc="http://creativecommons.org/ns#"
   xmlns:rdf="http://www.w3.org/1999/02/22-rdf-syntax-ns#"
   xmlns:svg="http://www.w3.org/2000/svg"
   xmlns="http://www.w3.org/2000/svg"
   xmlns:sodipodi="http://sodipodi.sourceforge.net/DTD/sodipodi-0.dtd"
   xmlns:inkscape="http://www.inkscape.org/namespaces/inkscape"
   version="1.1"
   id="Layer_1"
   x="0px"
   y="0px"
   viewBox="0 0 1000 1000"
   width="100%"
   height="100%"
   style="enable-background:new 0 0 1000 1000;"
   xml:space="preserve"
   ><switch
     id="switch3"
     transform="translate(-43.146958,-18.911898)"><g
       id="g5"><g
         id="g7"><g
           id="g9"><path
             d="m 909.7,569.8 c -0.7,-2.7 -6.9,-3.2 -12.8,-3.1 -6,0.1 -11.8,0.8 -12.1,0.9 -0.1,0 -1.5,0.8 -3.5,1.9 -2,1.1 -4.7,2.6 -7.2,4.1 -5.1,3.2 -10,6.7 -9.3,9.1 0.6,2.5 6.6,3.5 12.6,3.8 6,0.3 11.8,-0.1 12.1,-0.2 0.3,-0.1 5.6,-2.6 10.8,-6.1 5.3,-3.3 10.3,-7.6 9.4,-10.4 z"
             id="path11"
             inkscape:connector-curvature="0" /><path
             d="m 889.6,606.2 c -0.7,-1.3 -1.4,-2.4 -2,-3.4 -1.2,-2 -2.1,-3.3 -2.2,-3.4 -0.2,-0.2 -5.1,-3.6 -10.4,-6.4 -5.3,-2.8 -11,-5 -12.8,-3.1 -0.9,0.9 -0.7,2.7 0.1,5 0.7,2.3 2.2,5 3.5,7.6 2.7,5.3 5.9,10.3 6.1,10.5 0.2,0.2 4.9,3.8 10,7.1 5.1,3.2 10.6,6 12.5,4.1 1.9,-2 -0.1,-8.2 -2.7,-13.8 -0.7,-1.6 -1.4,-3 -2.1,-4.2 z"
             id="path13"
             inkscape:connector-curvature="0" /><path
             d="m 847.6,628.8 c 0.3,1.3 0.7,2.6 1.1,3.7 0.8,2.2 1.9,3.8 3.2,3.9 5.4,0.8 11.5,-21.7 11.3,-22.2 0,-0.3 -0.8,-6.2 -2.4,-11.8 -0.4,-1.4 -0.8,-2.8 -1.3,-4.1 -0.5,-1.3 -1.1,-2.5 -1.7,-3.6 -1.2,-2.1 -2.4,-3.4 -3.7,-3.4 -4.9,0.1 -9.3,21.3 -9.5,21.8 0,0.3 0.7,5.8 1.9,11.5 0.4,1.4 0.8,2.8 1.1,4.2 z"
             id="path15"
             inkscape:connector-curvature="0" /><path
             d="m 823.8,559.3 c 2.6,4.7 5.6,9.2 5.8,9.4 0.2,0.2 4.8,3.6 9.7,6.8 5,3.2 10.4,6.1 12.3,4.7 2,-1.5 0.1,-7.1 -2.4,-12.2 -0.6,-1.3 -1.3,-2.5 -1.9,-3.7 -0.7,-1.2 -1.3,-2.2 -1.9,-3.1 -1.2,-1.8 -2,-3 -2.1,-3.1 -0.2,-0.2 -4.9,-3.5 -10.1,-6.2 -5.2,-2.7 -10.8,-4.9 -12.6,-3.5 -1.7,1.4 0.5,6.2 3.2,10.9 z"
             id="path17"
             inkscape:connector-curvature="0" /><path
             d="m 851,586.4 c -1.2,-2.2 -7.3,-1.7 -13.1,-0.9 -5.8,0.9 -11.4,2.1 -11.6,2.2 -0.1,0 -1.3,0.8 -3,1.9 -1.8,1.1 -4.1,2.6 -6.2,4.2 -4.4,3.2 -8.3,6.6 -7.3,8.7 1,2.1 7.1,2.4 13,2.1 5.9,-0.3 11.5,-1.4 11.7,-1.5 0.2,-0.1 5,-3 9.5,-6.6 4.4,-3.5 8.2,-7.9 7,-10.1 z"
             id="path19"
             inkscape:connector-curvature="0" /><path
             d="m 867.9,568.1 c 3,-5 5.3,-10.4 5.4,-10.7 0,-0.3 0.5,-6.1 -0.2,-12 -0.6,-5.9 -1.8,-11.8 -4.5,-12.2 -2.5,-0.4 -5.8,4.7 -8.5,9.8 -1.3,2.5 -2.5,5.1 -3.4,7 -1,1.9 -1.5,3.3 -1.6,3.4 -0.1,0.2 -0.3,5.8 0,11.4 0.1,5.6 0.8,11.4 3.3,12.2 2.5,0.7 6.3,-3.9 9.5,-8.9 z"
             id="path21"
             inkscape:connector-curvature="0" /><path
             d="m 855.4,690.6 c -5.6,-2.1 -11.4,-3.5 -11.7,-3.6 -0.3,0 -6.2,0.6 -12.1,1.7 -2.9,0.6 -5.9,1.2 -8.2,2 -2.3,0.8 -3.8,1.8 -4,3.1 -0.3,2.5 4.9,5.7 10.4,8.1 5.4,2.5 11.1,4.2 11.4,4.2 0.3,0 6.3,-0.4 12.4,-1.7 6,-1.4 12.1,-3.6 12.5,-6.4 0.4,-2.6 -5.1,-5.3 -10.7,-7.4 z"
             id="path23"
             inkscape:connector-curvature="0" /><path
             d="m 832.8,716.8 c -0.1,-0.3 -3.4,-5.2 -7.3,-9.7 -3.9,-4.5 -8.5,-8.6 -10.8,-7.6 -2.3,1 -2.1,7 -1.4,13 0.8,6 1.8,11.8 1.9,12 0.1,0.2 3.1,5.3 6.7,10.1 3.6,4.8 7.7,9.4 10.2,8.3 1.3,-0.5 2,-2.5 2.4,-5 0.2,-1.3 0.3,-2.7 0.3,-4.2 0,-1.5 -0.1,-3.1 -0.2,-4.7 -0.4,-6.1 -1.7,-12 -1.8,-12.2 z"
             id="path25"
             inkscape:connector-curvature="0" /><path
             d="m 806.7,697.9 c -2.4,-0.9 -6.5,3.2 -9.9,7.7 -3.7,4.3 -6.8,8.9 -6.9,9.1 -0.1,0.1 -0.4,1.6 -0.8,3.7 -0.5,2.1 -1.1,4.9 -1.6,7.7 -1,5.7 -1.4,11.9 0.8,13.1 2.3,1.3 6.9,-2.8 11,-7.1 1,-1.1 2,-2.2 2.9,-3.3 0.9,-1.1 1.6,-2.1 2.3,-3.1 1.3,-1.8 2.2,-3.1 2.3,-3.2 0.1,-0.1 0.4,-1.6 0.9,-3.8 0.5,-2.2 1,-5.1 1.2,-8 0.5,-5.9 0.3,-11.8 -2.2,-12.8 z"
             id="path27"
             inkscape:connector-curvature="0" /><path
             d="m 808.7,663.1 c -0.1,-0.2 -3.2,-5 -7.1,-9.5 -3.9,-4.5 -8.4,-8.5 -10.6,-7.8 -1.1,0.3 -1.5,1.8 -1.6,3.9 -0.1,2.1 0.1,4.7 0.5,7.4 0.4,2.7 0.9,5.3 1.3,7.4 0.4,2 0.7,3.4 0.8,3.6 0.1,0.2 3.1,5.1 6.5,9.8 3.4,4.8 7.4,9.5 9.8,8.8 1.2,-0.3 1.9,-2 2.3,-4.2 0.2,-1.1 0.3,-2.4 0.3,-3.7 0,-1.4 -0.1,-2.8 -0.2,-4.2 -0.6,-5.9 -1.9,-11.2 -2,-11.5 z"
             id="path29"
             inkscape:connector-curvature="0" /><path
             d="m 795.1,699.2 c 5.4,-1.8 10.8,-4.4 10.4,-6.8 -0.4,-2.5 -6.1,-4.2 -11.9,-5.6 -5.8,-1.3 -11.5,-2.2 -11.7,-2.2 -0.3,0 -5.6,1 -10.8,2.4 -5.3,1.3 -10.3,3.1 -10.1,5.4 0.3,2.3 5.7,4.8 11.3,6.6 5.6,1.8 11.3,2.9 11.5,2.9 0.1,0 1.6,-0.2 3.7,-0.7 2.3,-0.4 4.9,-1.1 7.6,-2 z"
             id="path31"
             inkscape:connector-curvature="0" /><path
             d="m 829.8,655.1 c -4.5,3.7 -8.3,7.7 -8.5,7.9 -0.1,0.1 -0.6,1.4 -1.4,3.4 -0.8,1.9 -1.9,4.5 -2.8,7.2 -0.9,2.7 -1.7,5.4 -2,7.8 -0.4,2.3 -0.3,4.1 0.7,4.8 1,0.8 2.8,0.5 5,-0.5 2.2,-1 4.6,-2.6 6.9,-4.4 4.7,-3.6 9,-7.7 9,-7.9 0.1,-0.2 2.5,-5.6 4.2,-11.3 1.6,-5.7 2.3,-11.8 0.1,-13 -2.1,-1.3 -6.9,2.3 -11.2,6 z"
             id="path33"
             inkscape:connector-curvature="0" /><path
             d="m 771.9,791 c -4.5,-3.9 -9.3,-7.4 -9.6,-7.5 -0.2,-0.1 -6.1,-1.7 -11.9,-2.8 -2.9,-0.6 -5.9,-1 -8.3,-1 -2.4,0 -4.2,0.3 -4.8,1.4 -1.2,2.2 2.6,7 6.8,11.3 4.2,4.3 8.9,8 9.1,8.1 0.1,0.1 1.6,0.6 3.9,1.2 2.2,0.6 5.2,1.2 8.2,1.7 6.1,0.9 12.7,1.1 14,-1.4 1.3,-2.5 -2.9,-7 -7.4,-11 z"
             id="path35"
             inkscape:connector-curvature="0" /><path
             d="m 730.7,784.6 c -1.3,0.1 -2.3,1.6 -3.3,3.8 -1,2.1 -1.9,5 -2.6,7.9 -1.5,5.8 -2.5,11.7 -2.5,12 0,0.3 1,6.1 2.6,11.9 1.6,5.8 3.7,11.5 6.5,11.5 2.8,0 5.5,-6.1 7.3,-12.1 1.8,-6 2.8,-11.9 2.7,-12.2 0,-0.3 -1.3,-6.1 -3.4,-11.7 -2,-5.8 -4.8,-11.2 -7.3,-11.1 z"
             id="path37"
             inkscape:connector-curvature="0" /><path
             d="m 723.9,780.4 c -1.8,-1.6 -7.2,0.7 -12.1,3.5 -1.2,0.7 -2.4,1.5 -3.5,2.2 -1.1,0.7 -2.2,1.3 -3.1,1.9 -1.8,1.1 -3,1.9 -3.1,2 -0.1,0.1 -0.9,1.3 -2.1,3.1 -1.2,1.8 -2.7,4.3 -4.2,6.8 -3,4.9 -5.7,10.4 -4,12.4 1.6,1.9 7.5,0 12.9,-2.6 5.3,-2.8 10.2,-6.1 10.4,-6.2 0.1,-0.1 1,-1.3 2.2,-3.2 1.2,-1.9 2.7,-4.5 4,-7.1 1.3,-2.6 2.5,-5.4 3.1,-7.6 0.5,-2.5 0.4,-4.4 -0.5,-5.2 z"
             id="path39"
             inkscape:connector-curvature="0" /><path
             d="m 735,737.1 c -2,-5.5 -4.7,-10.9 -7,-11.1 -1.2,-0.1 -2.1,1.1 -3,3.1 -0.8,1.9 -1.4,4.6 -2.1,7.1 -1.2,5.2 -2.1,10.6 -2.1,10.9 0,0.1 0.3,1.6 0.7,3.8 0.5,2.2 1.1,5 1.9,7.8 1.5,5.7 3.4,11.4 5.9,11.7 1.2,0.1 2.5,-1.1 3.6,-3.1 1.1,-2 2.1,-4.8 2.9,-7.5 0.8,-2.7 1.4,-5.5 1.8,-7.5 0.4,-2.1 0.5,-3.6 0.5,-3.7 0.2,-0.3 -1.1,-6 -3.1,-11.5 z"
             id="path41"
             inkscape:connector-curvature="0" /><path
             d="m 701.2,775.8 c 0.2,0.1 5.7,1.1 11.4,1.4 2.8,0.1 5.8,0.2 8,-0.3 2.2,-0.4 3.8,-1.2 4.1,-2.4 0.6,-2.4 -4.2,-6.2 -9.1,-9.5 -2.4,-1.6 -4.9,-3.1 -6.8,-4.3 -1.9,-1.2 -3.2,-1.9 -3.3,-2 -0.2,-0.1 -5.7,-1.1 -11,-1.7 -5.3,-0.4 -10.7,-0.9 -11.3,1.4 -0.6,2.2 3.6,6.6 8.2,10.3 4.6,4 9.6,7.1 9.8,7.1 z"
             id="path43"
             inkscape:connector-curvature="0" /><path
             d="m 749.5,772.4 c 1.4,-0.4 2.8,-0.8 4.2,-1.3 1.3,-0.5 2.5,-1 3.5,-1.4 2.1,-0.9 3.4,-1.5 3.6,-1.6 0.1,-0.1 1.2,-1.2 2.7,-2.8 1.5,-1.6 3.5,-3.8 5.2,-6.2 3.5,-4.8 6.5,-10 4.9,-12 -1.6,-2 -7.5,-0.5 -12.8,1.5 -1.3,0.5 -2.7,1 -3.9,1.5 -1.3,0.5 -2.4,0.9 -3.4,1.3 -2,0.8 -3.3,1.4 -3.4,1.5 -0.1,0.1 -1.1,1.1 -2.6,2.6 -1.4,1.5 -3.3,3.7 -5.1,5.8 -3.7,4.3 -7.1,9.1 -5.7,11.3 1.2,2.3 7.1,1.4 12.8,-0.2 z"
             id="path45"
             inkscape:connector-curvature="0" /><path
             d="m 651.6,844.1 c -0.1,-0.1 -1.3,-1 -3.2,-2.3 -0.9,-0.6 -2,-1.4 -3.2,-2.1 -1.2,-0.8 -2.4,-1.6 -3.7,-2.4 -5.1,-3.2 -10.4,-6 -12.4,-4.4 -1.9,1.7 -0.2,7.5 2.2,13 2.4,5.5 5.4,10.6 5.5,10.8 0.2,0.2 4.9,3.9 10.3,7 2.7,1.6 5.6,3.1 8,3.8 2.4,0.7 4.5,0.9 5.5,-0.1 2.1,-1.9 -0.2,-7.6 -2.9,-12.9 -2.7,-5.2 -5.9,-10.2 -6.1,-10.4 z"
             id="path47"
             inkscape:connector-curvature="0" /><path
             d="m 621.7,833.7 c -2.4,-0.8 -6.2,3.8 -9.7,8.8 -3.5,4.8 -6.6,9.8 -6.7,10.1 -0.1,0.2 -1.2,6.1 -1.9,12.1 -0.6,6 -0.7,12.2 1.9,13.1 2.6,0.9 7.3,-3.7 11.2,-8.5 3.9,-5 6.8,-10.3 6.9,-10.5 0.1,-0.3 1,-6.1 1.1,-12.1 0.2,-6.1 -0.4,-12.2 -2.8,-13 z"
             id="path49"
             inkscape:connector-curvature="0" /><path
             d="m 616.9,827.2 c -0.6,-1.1 -2.3,-1.6 -4.6,-1.7 -1.1,0 -2.4,0.1 -3.8,0.2 -1.4,0.1 -2.8,0.2 -4.2,0.4 -5.6,0.7 -11,2.1 -11.3,2.2 -0.2,0.1 -4.9,3.1 -9.5,6.8 -2.3,1.8 -4.5,3.8 -6.1,5.6 -1.6,1.7 -2.5,3.3 -2.1,4.6 0.4,1.2 2.2,2 4.5,2.3 2.4,0.3 5.4,0.2 8.4,-0.1 3,-0.3 5.9,-0.6 8.2,-1.1 2.2,-0.5 3.7,-0.9 3.8,-0.9 0.2,-0.1 5.2,-3.4 9.6,-7.3 4.5,-4 8.3,-8.7 7.1,-11 z"
             id="path51"
             inkscape:connector-curvature="0" /><path
             d="m 635.6,812.5 c 3.5,-4.5 6.1,-9.5 6.2,-9.7 0.1,-0.2 1,-5.9 1.1,-11.8 0.2,-5.8 -0.4,-11.9 -2.5,-12.8 -2.1,-1 -5.4,3.1 -8.4,7.6 -0.7,1.1 -1.5,2.3 -2.1,3.4 -0.7,1.1 -1.3,2.1 -1.9,2.9 -1.1,1.7 -1.8,3 -1.8,3.1 -0.1,0.2 -1.1,5.8 -1.8,11.7 -0.6,5.9 -0.9,12 1.3,13.1 2.2,1.1 6.4,-3 9.9,-7.5 z"
             id="path53"
             inkscape:connector-curvature="0" /><path
             d="m 597.4,814.8 c 0.2,0.2 4.9,3.2 10.1,5.6 5.2,2.2 10.9,3.9 12.3,1.8 1.4,-2 -1.7,-7.3 -5.1,-12.2 -3.4,-4.9 -7,-9.3 -7.1,-9.5 -0.2,-0.2 -4.8,-2.9 -9.6,-5.5 -4.8,-2.6 -9.6,-4.6 -11,-2.7 -1.4,1.8 1,7.5 3.9,12.5 2.8,5.2 6.3,9.8 6.5,10 z"
             id="path55"
             inkscape:connector-curvature="0" /><path
             d="m 662.7,811.1 c -5.8,-0.2 -11.2,0.3 -11.5,0.2 -0.2,0.1 -5.3,2.2 -10.3,5 -2.5,1.5 -4.9,2.8 -6.7,4.3 -1.8,1.4 -2.9,2.9 -2.7,4.1 0.4,2.5 6.3,4 12.2,4.5 5.8,0.4 11.7,0.2 12,0.1 0.1,0 1.6,-0.6 3.6,-1.6 2,-1 4.6,-2.5 7.1,-4 2.5,-1.6 5,-3.2 6.7,-4.9 1.7,-1.7 2.6,-3.3 2.2,-4.5 -0.9,-2.5 -6.8,-2.9 -12.6,-3.2 z"
             id="path57"
             inkscape:connector-curvature="0" /><path
             d="m 526.4,860.6 c -0.1,-0.2 -3.3,-5.3 -6.9,-10.1 -1.8,-2.4 -3.7,-4.7 -5.4,-6.3 -0.9,-0.8 -1.7,-1.4 -2.5,-1.8 -0.8,-0.4 -1.5,-0.6 -2,-0.4 -2.4,0.8 -2.8,6.9 -2.6,12.9 0.2,6 1.2,11.9 1.3,12.1 0.1,0.3 3.1,5.4 7.1,10.2 3.9,4.8 8.6,9.4 11.3,8.4 2.6,-1 2.6,-7.1 1.9,-13.1 -0.8,-5.9 -2.1,-11.7 -2.2,-11.9 z"
             id="path59"
             inkscape:connector-curvature="0" /><path
             d="m 490.1,844.7 c -5,3.2 -9.7,6.9 -9.9,7.1 -0.2,0.2 -3.3,5.2 -6.1,10.6 -2.7,5.3 -5,11 -2.9,12.9 2.1,1.8 8.2,-0.9 13.5,-4.1 2.7,-1.6 5.2,-3.3 7.1,-4.7 1.9,-1.4 3.1,-2.4 3.2,-2.5 0.2,-0.2 3.1,-5.4 5.4,-10.9 2.3,-5.5 3.9,-11.5 2,-13 -2,-1.7 -7.3,1.5 -12.3,4.6 z"
             id="path61"
             inkscape:connector-curvature="0" /><path
             d="m 489.7,839.9 c 2.8,-1.1 5.4,-2.2 7.4,-3.6 2,-1.4 3.2,-2.7 3.1,-4 -0.1,-1.3 -1.6,-2.3 -3.7,-3.2 -2.1,-0.9 -4.9,-1.7 -7.6,-2.3 -2.8,-0.6 -5.5,-1.1 -7.6,-1.4 -2.1,-0.4 -3.5,-0.6 -3.7,-0.6 -0.3,0 -5.7,1.2 -11.3,3 -5.5,1.7 -11.2,3.8 -11.3,6.4 0,1.3 1.3,2.6 3.4,3.7 1.1,0.6 2.3,1.2 3.6,1.7 1.3,0.5 2.8,0.9 4.2,1.3 5.8,1.6 11.6,2.5 11.9,2.5 0.3,0 6.1,-1.4 11.6,-3.5 z"
             id="path63"
             inkscape:connector-curvature="0" /><path
             d="m 529.2,799.1 c -4.4,3 -8.7,6.4 -8.8,6.6 -0.2,0.2 -3.2,5.1 -5.9,10.4 -2.7,5.2 -5.1,10.7 -3.5,12.6 1.6,2 7.1,-0.6 12,-3.5 2.4,-1.5 4.7,-3.1 6.4,-4.3 1.7,-1.3 2.8,-2.3 2.9,-2.4 0.2,-0.2 3.1,-5.2 5.3,-10.7 2.3,-5.4 3.9,-11.2 2.3,-12.9 -1.7,-1.7 -6.3,1.1 -10.7,4.2 z"
             id="path65"
             inkscape:connector-curvature="0" /><path
             d="m 501,804.2 c -0.1,-0.2 -3.4,-4.7 -7,-8.7 -1.8,-2 -3.6,-3.9 -5.3,-5.2 -1.6,-1.3 -3.1,-2 -4,-1.4 -2,1.2 -1.8,7.3 -0.9,13.1 0.9,5.9 2.5,11.4 2.6,11.6 0.1,0.2 3.4,4.7 7.4,8.8 4,4.2 8.7,7.5 10.8,6.2 2.1,-1.4 1,-7.4 -0.4,-13.1 -1.3,-5.7 -3.1,-11.1 -3.2,-11.3 z"
             id="path67"
             inkscape:connector-curvature="0" /><path
             d="m 548.8,833.7 c -1.3,-0.5 -2.6,-1 -3.9,-1.5 -1.2,-0.5 -2.4,-1 -3.4,-1.3 -2,-0.8 -3.4,-1.2 -3.5,-1.2 -0.1,0 -1.6,0 -3.7,0.2 -2.1,0.1 -4.9,0.6 -7.7,0.8 -5.6,0.6 -11.3,1.9 -11.8,4.4 -0.5,2.5 4.4,5.8 9.7,8.5 1.3,0.7 2.7,1.3 3.9,1.9 1.3,0.5 2.5,1 3.5,1.3 2.1,0.8 3.6,1.2 3.7,1.2 0.1,0 1.7,0 3.9,-0.2 2.2,-0.2 5.2,-0.4 8.1,-1.1 5.8,-1.2 11.6,-3.1 11.7,-5.6 0.1,-2.4 -5.3,-5.2 -10.5,-7.4 z"
             id="path69"
             inkscape:connector-curvature="0" /><path
             d="m 394.7,807.3 c -2.5,-0.1 -5.2,5.4 -7.1,11.1 -2,5.6 -3.2,11.4 -3.2,11.7 0,0.3 1,6.2 2.8,12.2 1.9,5.9 4.7,11.7 7.5,11.8 2.8,0.1 5,-5.7 6.5,-11.5 1.5,-5.8 2.5,-11.7 2.5,-11.9 0,-0.3 -1.2,-6.1 -2.9,-11.8 -1.6,-5.8 -3.5,-11.6 -6.1,-11.6 z"
             id="path71"
             inkscape:connector-curvature="0" /><path
             d="m 388.7,802.9 c -1.2,-2.2 -7.2,-1.4 -13.1,-0.1 -1.5,0.3 -2.9,0.7 -4.3,1 -1.3,0.3 -2.6,0.6 -3.7,0.9 -2.2,0.6 -3.7,1 -3.8,1 -0.2,0.1 -5,3.6 -9.5,7.6 -4.5,4 -8.7,8.5 -7.4,10.9 0.7,1.2 2.6,1.8 5.2,1.9 2.6,0.1 5.7,-0.1 8.8,-0.7 6.2,-1.1 11.9,-2.9 12.2,-3.1 0.2,-0.1 4.9,-3.8 9,-8.1 4.1,-4.1 7.8,-9 6.6,-11.3 z"
             id="path73"
             inkscape:connector-curvature="0" /><path
             d="m 354.8,790.6 c 1.2,0.9 2.4,1.8 3.5,2.6 1.1,0.8 2.3,1.5 3.2,2 1.9,1.2 3.3,1.9 3.4,1.9 0.3,0.1 6.1,1 12,1 6,-0.1 11.9,-0.8 12.6,-3.3 0.7,-2.5 -3.9,-6.1 -8.6,-9.2 -4.6,-3.3 -9.5,-5.9 -9.8,-6 -0.1,-0.1 -1.6,-0.2 -3.7,-0.5 -2.1,-0.3 -5,-0.6 -7.9,-0.8 -2.9,-0.2 -5.9,-0.3 -8.3,0 -2.4,0.3 -4.1,0.8 -4.6,2 -1,2.4 3.4,6.6 8.2,10.3 z"
             id="path75"
             inkscape:connector-curvature="0" /><path
             d="m 400.9,795.4 c 0.4,1.2 2.1,1.7 4.4,1.8 2.3,0.1 5.1,-0.1 7.9,-0.7 5.6,-1.1 10.9,-2.8 11.1,-2.9 0.2,-0.1 4.7,-3.6 8.8,-7.9 4.1,-4.3 7.7,-9.1 6.8,-11.3 -0.4,-1.1 -2,-1.3 -4.1,-1.2 -2.1,0.1 -4.7,0.6 -7.3,1.2 -2.6,0.6 -5.2,1.4 -7.2,2 -2,0.6 -3.3,1 -3.4,1.1 -0.2,0.1 -4.8,3.5 -9.2,7.4 -4.4,3.8 -8.7,8.2 -7.8,10.5 z"
             id="path77"
             inkscape:connector-curvature="0" /><path
             d="m 390.8,748.9 c -2.3,0.5 -4.3,6.1 -5.6,11.9 -1.3,5.7 -1.8,11.5 -1.8,11.7 0,0.1 0.4,1.5 1,3.6 0.3,1 0.7,2.2 1.1,3.5 0.4,1.3 1,2.5 1.6,3.8 2.3,5.2 5.4,10.3 7.8,9.7 2.4,-0.5 3.7,-6.5 4.5,-12.4 0.8,-5.9 1.1,-11.6 1.1,-11.8 0,-0.3 -1.6,-5.4 -3.4,-10.5 -1.8,-5.1 -4,-10 -6.3,-9.5 z"
             id="path79"
             inkscape:connector-curvature="0" /><path
             d="m 434.3,813.9 c -4.1,-4.1 -8.4,-7.6 -8.6,-7.7 -0.1,-0.1 -1.5,-0.4 -3.5,-1.1 -2,-0.7 -4.7,-1.5 -7.4,-2.1 -2.7,-0.7 -5.6,-1.1 -7.9,-1.3 -2.3,-0.2 -4.1,0.1 -4.8,1.2 -1.4,2.1 1.9,7.3 6,11.5 4,4.3 8.5,8.2 8.7,8.3 0.2,0.1 5.9,1.9 11.7,3 1.5,0.3 2.9,0.6 4.3,0.7 1.4,0.1 2.8,0.1 4,0.1 2.4,-0.1 4.2,-0.6 4.7,-1.8 0.5,-1.2 -0.2,-2.9 -1.6,-4.7 -1.5,-2.1 -3.6,-4 -5.6,-6.1 z"
             id="path81"
             inkscape:connector-curvature="0" /><path
             d="m 300.3,733.4 c -2.3,-1 -6.8,3.2 -10.6,7.8 -3.9,4.6 -7.1,9.6 -7.2,9.8 -0.1,0.2 -1.4,6.2 -1.7,12.3 -0.4,6.2 0.1,12.7 2.7,13.8 2.6,1.1 6.7,-3.5 10.2,-8.3 3.5,-4.9 6.5,-10 6.6,-10.3 0.1,-0.3 1.1,-6.2 1.7,-12.1 0.3,-3 0.4,-6 0.2,-8.3 -0.3,-2.4 -0.8,-4.2 -1.9,-4.7 z"
             id="path83"
             inkscape:connector-curvature="0" /><path
             d="m 296.2,727.2 c -0.2,-1.3 -1.8,-2.1 -4,-2.9 -2.2,-0.8 -5.1,-1.4 -8.1,-1.9 -3,-0.5 -5.9,-0.8 -8.2,-1.1 -2.3,-0.2 -3.8,-0.4 -4,-0.3 -0.3,0 -5.9,1.6 -11.6,3.7 -5.6,2.1 -11.1,4.8 -10.8,7.5 0.2,1.4 1.8,2.6 4.1,3.7 2.4,1 5.5,1.8 8.6,2.5 6.1,1.2 12.1,1.6 12.4,1.6 0.1,0 1.6,-0.5 3.8,-1.3 2.1,-0.8 4.9,-1.9 7.6,-3.2 5.4,-2.6 10.6,-5.9 10.2,-8.3 z"
             id="path85"
             inkscape:connector-curvature="0" /><path
             d="m 276.1,713.3 c 0.1,0.1 1.4,0.9 3.4,1.9 2,1 4.7,2.2 7.5,3.3 5.5,2.1 11.3,3.6 12.8,1.5 1.5,-2 -1.3,-7.1 -4.6,-11.7 -1.7,-2.3 -3.4,-4.5 -4.6,-6.2 -1.3,-1.7 -2.2,-2.8 -2.3,-2.9 -0.1,-0.1 -1.4,-0.8 -3.3,-1.8 -1.9,-1 -4.4,-2.2 -7.1,-3.6 -5.2,-2.5 -10.9,-4.7 -12.7,-2.9 -1.8,1.8 0.7,7.4 3.8,12.6 3.2,5 6.9,9.6 7.1,9.8 z"
             id="path87"
             inkscape:connector-curvature="0" /><path
             d="m 354.3,719.1 c 0,-1.2 -1.3,-2 -3.3,-2.7 -1,-0.3 -2.2,-0.6 -3.4,-0.8 -1.3,-0.2 -2.5,-0.5 -3.9,-0.7 -5.3,-0.8 -10.8,-1.1 -11,-1 -0.2,0 -5.8,1.7 -11.3,3.6 -5.5,2 -11.1,4.5 -11.1,7 0,1.2 1.3,2.4 3.4,3.3 2.1,0.9 4.9,1.6 7.7,2.2 5.6,1.1 11.1,1.4 11.4,1.3 0.3,0 5.8,-1.8 11.1,-4.3 5.3,-2.4 10.4,-5.6 10.4,-7.9 z"
             id="path89"
             inkscape:connector-curvature="0" /><path
             d="m 314.2,710.4 c 1.4,-2.6 2.7,-5.1 3.7,-7.2 1,-2 1.6,-3.4 1.6,-3.5 0.1,-0.2 0.6,-5.7 0.6,-11.1 0,-2.6 0,-5.4 -0.3,-7.4 -0.3,-2.1 -1,-3.5 -2.1,-3.7 -2.3,-0.4 -6.2,4.2 -9.5,9.1 -3.3,4.9 -5.9,10.1 -5.9,10.4 -0.1,0.3 -0.7,5.8 -0.4,11.5 0.1,2.8 0.4,5.7 1,8 0.6,2.2 1.6,3.7 2.8,3.9 2.4,0.3 5.7,-4.9 8.5,-10 z"
             id="path91"
             inkscape:connector-curvature="0" /><path
             d="m 331.3,746.8 c -1,-1.9 -1.7,-3.2 -1.8,-3.3 -0.1,-0.1 -1.2,-1 -2.9,-2.3 -1.7,-1.2 -3.9,-2.9 -6.2,-4.6 -4.6,-3.3 -9.7,-6.2 -11.8,-4.7 -2.1,1.5 -0.6,7.3 1.5,12.8 2,5.6 5.1,10.6 5.2,10.8 0.2,0.2 4.6,4 9.7,7.1 5.1,3 10.6,5.5 12.5,3.7 1.8,-1.8 -0.2,-7.5 -2.7,-12.6 -1.3,-2.5 -2.6,-5.1 -3.5,-6.9 z"
             id="path93"
             inkscape:connector-curvature="0" /><path
             d="m 225.9,633.9 c -5.3,2.9 -10,6.3 -10.2,6.5 -0.2,0.2 -3.4,5.2 -6,10.9 -1.3,2.8 -2.5,5.8 -3,8.3 -0.6,2.5 -0.4,4.5 0.6,5.5 2.1,1.9 7.5,-0.9 12.6,-4.1 5,-3.3 9.6,-7 9.8,-7.1 0.1,-0.1 0.9,-1.4 2,-3.4 1.1,-2 2.6,-4.6 4,-7.3 2.7,-5.4 5,-10.9 3.2,-12.7 -2,-1.8 -7.7,0.5 -13,3.4 z"
             id="path95"
             inkscape:connector-curvature="0" /><path
             d="m 212.5,627.2 c 0.3,0.1 6.2,0.4 12.2,0 6,-0.4 12,-1.6 12.5,-4 0.3,-1.2 -0.8,-2.7 -2.7,-4.2 -1.8,-1.5 -4.5,-3.1 -7,-4.6 -5.1,-3 -10.4,-5.7 -10.7,-5.8 -0.3,-0.1 -6.2,-0.7 -12.2,-0.7 -6,-0.1 -12.2,0.4 -12.8,3.1 -0.6,2.7 4.4,7 9.6,10.4 1.3,0.8 2.6,1.7 3.9,2.4 1.3,0.7 2.5,1.3 3.5,1.9 2.1,0.8 3.6,1.5 3.7,1.5 z"
             id="path97"
             inkscape:connector-curvature="0" /><path
             d="m 239.9,594.2 c -0.1,-0.2 -3.6,-4.6 -7.7,-8.8 -1,-1.1 -2.1,-2.1 -3.1,-3.1 -1,-1 -2,-1.8 -2.9,-2.6 -1.9,-1.4 -3.6,-2.2 -4.7,-1.7 -5,2.2 1.6,24.5 2.1,24.9 0.1,0.2 3.9,4.8 8.2,8.8 1.1,1 2.1,2 3.3,2.8 1.1,0.9 2.3,1.6 3.3,2.2 2.1,1.2 3.9,1.7 5,1 3.9,-2.6 -3.4,-23 -3.5,-23.5 z"
             id="path99"
             inkscape:connector-curvature="0" /><path
             d="m 259.6,635 c 2.3,1.5 4.9,2.8 6.8,3.8 1.9,0.9 3.3,1.5 3.4,1.5 0.3,0.1 6,0.4 11.8,0 5.8,-0.4 11.7,-1.5 12.6,-3.7 0.8,-2.2 -3.6,-5.1 -8.4,-7.7 -2.4,-1.3 -4.7,-2.5 -6.6,-3.4 -1.8,-0.9 -3.1,-1.5 -3.3,-1.5 -0.2,-0.1 -5.9,-0.6 -11.9,-0.7 -5.9,-0.1 -12.1,0.2 -12.9,2.5 -0.8,2.3 3.8,6.1 8.5,9.2 z"
             id="path101"
             inkscape:connector-curvature="0" /><path
             d="m 248.5,620.2 c 2.2,1.2 7.1,-2.4 11.6,-6.2 4.5,-3.8 8.6,-7.8 8.7,-8 0.1,-0.1 0.7,-1.4 1.5,-3.2 0.9,-1.9 2.1,-4.4 3.1,-6.9 2.1,-5 3.6,-10 1.7,-11.2 -2,-1.2 -7.3,1.6 -12.2,5 -4.8,3.4 -9,7.2 -9.2,7.5 -0.2,0.2 -2.7,5.1 -4.6,10.6 -1.8,5.4 -2.7,11.1 -0.6,12.4 z"
             id="path103"
             inkscape:connector-curvature="0" /><path
             d="m 256.8,672.8 c 1.8,1.5 3.5,2.3 4.7,1.8 1.2,-0.5 1.8,-2.3 2,-4.6 0.3,-2.4 0.2,-5.3 0.1,-8.2 -0.2,-2.9 -0.5,-5.7 -0.8,-7.8 -0.3,-2.1 -0.4,-3.6 -0.5,-3.7 -0.1,-0.2 -2.7,-5.1 -6,-9.7 -3.1,-4.7 -6.7,-9.3 -9.2,-8.6 -2.5,0.7 -3.3,6.6 -3.4,12.5 0.1,5.8 1,11.7 1,11.9 0,0.1 0.8,1.5 1.9,3.4 1.1,1.9 2.9,4.3 4.7,6.7 1.8,2.5 3.8,4.8 5.5,6.3 z"
             id="path105"
             inkscape:connector-curvature="0" /><path
             d="m 211.1,522.9 c 2.2,-2 4.3,-4.1 5.8,-6 1.5,-1.9 2.3,-3.5 1.8,-4.7 -1,-2.3 -7.2,-2.2 -13.1,-1.4 -5.9,0.8 -11.7,2.3 -11.9,2.4 -0.1,0.1 -1.4,1 -3.3,2.4 -1.9,1.4 -4.2,3.4 -6.4,5.6 -4.4,4.3 -8.5,9.5 -7.3,12 1.2,2.5 7.3,1.9 13.2,0.7 5.9,-1.2 11.6,-3 11.8,-3.1 0.3,-0.2 5,-3.9 9.4,-7.9 z"
             id="path107"
             inkscape:connector-curvature="0" /><path
             d="m 195.3,499.7 c 0.2,0.2 5.7,2.6 11.4,4.4 5.7,1.8 11.8,2.8 13.2,0.7 0.7,-1.1 0.1,-2.8 -1,-4.9 -1.1,-2.1 -2.9,-4.5 -4.7,-6.8 -3.7,-4.7 -7.8,-9.1 -8,-9.2 -0.2,-0.2 -5.5,-2.8 -11,-5.1 -5.6,-2.2 -11.5,-4 -13.1,-1.7 -1.7,2.3 1.6,8.1 5.3,13.1 3.6,5.1 7.7,9.4 7.9,9.5 z"
             id="path109"
             inkscape:connector-curvature="0" /><path
             d="m 228.8,467.8 c -2.1,-5.4 -4.8,-10.8 -7.4,-10.7 -1.3,0.1 -2.4,1.6 -3.4,3.8 -0.5,1.1 -0.9,2.4 -1.3,3.8 -0.4,1.4 -0.8,2.8 -1,4.3 -1,5.9 -1.4,11.8 -1.3,12.1 0,0.1 0.4,1.6 1.2,3.7 0.8,2.1 2,4.8 3.3,7.5 2.6,5.3 5.9,10.2 8.5,9.7 2.5,-0.5 3.8,-6.2 4.5,-11.8 0.2,-1.4 0.3,-2.8 0.4,-4.1 0.1,-1.3 0.3,-2.5 0.4,-3.6 0.2,-2.1 0.3,-3.6 0.2,-3.7 0,-0.3 -1.8,-5.6 -4.1,-11 z"
             id="path111"
             inkscape:connector-curvature="0" /><path
             d="m 244.1,532.7 c 0.1,0.1 1.5,0.7 3.5,1.6 2.1,0.8 4.8,1.9 7.6,2.8 5.6,1.8 11.6,2.9 13.1,1.1 1.6,-1.8 -1.8,-6 -5,-10.2 -3.4,-4.1 -7.3,-8.1 -7.5,-8.2 -0.2,-0.1 -5.4,-2.7 -10.8,-4.9 -5.4,-2.2 -11.2,-4.1 -12.9,-2.3 -0.9,0.9 -0.6,2.7 0.3,4.8 0.9,2.1 2.6,4.5 4.3,6.8 3.3,4.4 7.2,8.3 7.4,8.5 z"
             id="path113"
             inkscape:connector-curvature="0" /><path
             d="m 236.7,494.8 c -1.8,2.2 -3.6,4.5 -4.7,6.6 -1,2 -1.3,3.8 -0.5,4.8 1.6,1.9 7.5,0.4 13,-1.6 5.5,-1.9 10.8,-4.2 11.1,-4.3 0.2,-0.1 4.3,-3.9 8,-7.8 3.5,-4 7.1,-8 5.7,-9.9 -1.4,-1.8 -7.4,-1.1 -13.1,0.3 -5.7,1.4 -11.2,3.5 -11.4,3.6 -0.3,0.2 -4.4,3.9 -8.1,8.3 z"
             id="path115"
             inkscape:connector-curvature="0" /><path
             d="m 215.7,534.9 c -0.5,2.2 -0.8,3.7 -0.9,3.8 0,0.3 0.9,6.1 2.4,11.8 1.7,5.7 4.2,11.2 6.8,11.1 2.6,-0.1 4.8,-5.7 6.4,-11.1 1.8,-5.5 3.1,-10.9 3.1,-11.2 0,-0.3 -0.9,-5.7 -2,-11.2 -1.2,-5.5 -3.1,-11.1 -5.6,-11.4 -2.6,-0.3 -5.4,4.9 -7.5,10.5 -1.1,2.7 -2.1,5.6 -2.7,7.7 z"
             id="path117"
             inkscape:connector-curvature="0" /><path
             d="m 208,404.5 c 5.9,1 11.8,1.4 12.1,1.3 0.3,0 5.9,-1.8 11.5,-4 5.7,-2.1 11.2,-4.7 11,-7.2 -0.2,-2.5 -5.9,-4.7 -11.7,-6.1 -5.8,-1.4 -11.7,-2.1 -11.9,-2.1 -0.3,0 -6.1,1.5 -11.9,3.9 -1.4,0.6 -2.9,1.3 -4.2,1.9 -1.3,0.7 -2.5,1.4 -3.6,2.2 -2.1,1.5 -3.4,3.1 -3.3,4.5 0.2,3 6.1,4.6 12,5.6 z"
             id="path119"
             inkscape:connector-curvature="0" /><path
             d="m 225.4,374.6 c 0.1,0.2 4.3,4.5 9,8.2 4.7,3.7 9.9,6.9 12,5.5 2.1,-1.4 0.7,-7.3 -1.1,-13 -1.8,-5.7 -3.8,-11.2 -4,-11.5 -0.1,-0.2 -4.1,-4.6 -8.5,-8.8 -4.4,-4.1 -9.3,-7.9 -11.6,-6.3 -2.3,1.6 -1.5,8.1 0,14.1 1.7,6 4.1,11.6 4.2,11.8 z"
             id="path121"
             inkscape:connector-curvature="0" /><path
             d="m 254.5,388.4 c 1.3,0.2 2.7,-0.9 4.1,-2.7 1.4,-1.8 2.8,-4.3 4.2,-6.7 2.8,-4.9 5,-10.1 5,-10.3 0,-0.3 0.4,-5.8 0.3,-11.7 -0.1,-2.9 -0.3,-5.9 -0.7,-8.2 -0.4,-2.3 -1.1,-4 -2.4,-4.4 -5.1,-1.7 -15.3,19.2 -15.2,19.8 -0.1,0.3 -0.4,6.2 0.1,12 0.7,5.9 2,11.7 4.6,12.2 z"
             id="path123"
             inkscape:connector-curvature="0" /><path
             d="m 267.6,430.9 c 4.6,3.7 9.8,6.8 11.8,5.7 0.5,-0.3 0.8,-0.8 0.9,-1.5 0.2,-0.7 0.1,-1.6 0,-2.6 -0.3,-2 -1,-4.6 -1.9,-7.1 -0.9,-2.5 -1.9,-5.1 -2.7,-7 -0.7,-1.9 -1.3,-3.2 -1.3,-3.3 -0.1,-0.2 -4,-4.4 -8.2,-8.5 -4.3,-4.1 -9,-7.9 -11.2,-6.9 -2.2,1.1 -1.5,7 -0.1,12.4 1.6,5.5 3.9,10.6 4,10.8 0.2,0.2 4.2,4.4 8.7,8 z"
             id="path125"
             inkscape:connector-curvature="0" /><path
             d="m 300.3,385.4 c -0.7,-2.2 -6.5,-3.7 -12.3,-4.4 -5.8,-0.7 -11.6,-0.7 -11.8,-0.7 -0.1,0 -1.5,0.5 -3.5,1.3 -2,0.8 -4.7,1.9 -7.1,3.3 -4.9,2.8 -9.7,6.3 -8.9,8.7 0.7,2.4 6.9,3 12.8,3.3 5.9,0.2 11.6,0.1 11.9,0 0.1,0 1.5,-0.5 3.3,-1.3 1.9,-0.8 4.4,-1.9 6.8,-3 4.9,-2.3 9.5,-4.9 8.8,-7.2 z"
             id="path127"
             inkscape:connector-curvature="0" /><path
             d="m 242.9,402.9 c -1,0.7 -2,1.5 -3.1,2.5 -1,1 -2,2 -3,3.1 -3.9,4.4 -7.3,9.2 -7.4,9.5 -0.2,0.2 -1.3,6 -1.9,11.9 -0.7,5.9 -0.2,12 2.2,12.8 1.2,0.4 2.8,-0.5 4.6,-2 0.9,-0.8 1.8,-1.7 2.7,-2.8 1,-1 1.9,-2.1 2.8,-3.2 3.6,-4.5 6.7,-9.1 6.8,-9.3 0,-0.2 1.5,-5.6 2.2,-11.2 0.2,-1.4 0.3,-2.8 0.4,-4.2 0.1,-1.4 0.2,-2.6 0.2,-3.8 0,-2.3 -0.5,-4.1 -1.6,-4.6 -1.2,-0.6 -2.9,0 -4.9,1.3 z"
             id="path129"
             inkscape:connector-curvature="0" /><path
             d="m 271.6,290.4 c 5.2,3.1 10.6,5.6 10.8,5.6 0.3,0.1 6.2,0.5 12.2,0.5 3,0 5.9,-0.2 8.3,-0.5 2.4,-0.4 4.1,-1 4.5,-2.2 0.8,-2.4 -3.8,-6.5 -8.7,-9.9 -4.9,-3.4 -10.2,-6.2 -10.4,-6.3 -0.1,0 -1.7,-0.2 -4,-0.4 -1.2,-0.1 -2.5,-0.2 -4,-0.2 -1.4,0 -3,0 -4.5,0 -6.2,0.2 -12.6,1.3 -13.5,4 -0.8,2.7 4.2,6.3 9.3,9.4 z"
             id="path131"
             inkscape:connector-curvature="0" /><path
             d="m 304.1,279.7 c 3.1,5.2 6.8,10.1 9.2,9.4 2.4,-0.7 3.3,-6.5 3.7,-12.5 0.2,-3 0.3,-6 0.3,-8.3 0,-2.3 0.1,-3.8 0,-3.9 0,-0.3 -2.1,-5.8 -4.7,-11.2 -2.6,-5.4 -5.8,-10.7 -8.5,-10.1 -1.4,0.3 -2.4,2 -3.3,4.4 -0.8,2.4 -1.3,5.6 -1.7,8.7 -0.7,6.2 -0.5,12.2 -0.4,12.5 0,0.4 2.3,5.8 5.4,11 z"
             id="path133"
             inkscape:connector-curvature="0" /><path
             d="m 320.8,292.1 c 2.2,1.4 7,-2 11.2,-5.7 2.1,-1.9 4.3,-3.7 5.8,-5.2 1.6,-1.5 2.6,-2.5 2.7,-2.6 0.2,-0.2 2.3,-5.5 4.4,-10.8 2,-5.4 3.6,-11.3 1.7,-12.9 -2,-1.6 -7.3,1.4 -12.2,5 -4.8,3.6 -8.9,7.9 -9.1,8.1 -0.1,0.2 -2.7,5.5 -4.2,11.3 -1.6,5.6 -2.5,11.5 -0.3,12.8 z"
             id="path135"
             inkscape:connector-curvature="0" /><path
             d="m 325.2,313.4 c -2.5,-5.3 -5.5,-10.6 -8,-10.4 -1.2,0.1 -2.2,1.6 -3,3.7 -0.8,2.1 -1.2,5.1 -1.5,7.9 -0.6,5.7 -0.4,11.2 -0.3,11.4 0.1,0.3 2.4,5.6 5.3,10.7 3,5.1 6.6,9.9 8.9,9.6 2.4,-0.2 2.8,-5.7 3.1,-10.9 0.3,-5.3 0,-10.8 0,-11.1 0,-0.1 -0.6,-1.5 -1.4,-3.6 -0.7,-2 -1.9,-4.6 -3.1,-7.3 z"
             id="path137"
             inkscape:connector-curvature="0" /><path
             d="m 340.2,292.4 c -2.1,0.1 -4.9,0.3 -7.7,0.7 -5.6,0.8 -11.4,2.3 -11.5,4.8 -0.1,2.5 5.3,5.3 10.7,7.6 2.7,1.1 5.4,2.2 7.5,3 2.1,0.8 3.5,1.3 3.6,1.3 0.3,0 5.8,0 11.1,-0.4 5.4,-0.4 10.7,-1.1 10.9,-3.5 0.2,-2.3 -4.7,-5.8 -9.9,-8.6 -5.2,-2.8 -10.6,-4.9 -10.8,-4.9 -0.3,0 -1.8,0 -3.9,0 z"
             id="path139"
             inkscape:connector-curvature="0" /><path
             d="m 309.7,302 c -1.8,-2 -7.3,0 -12.6,2.6 -2.6,1.3 -5.2,2.7 -7.1,4 -1.9,1.2 -3.1,2.1 -3.2,2.2 -0.2,0.2 -3.5,5 -6.2,10.3 -2.5,5.4 -4.5,11.1 -2.5,12.8 2,1.7 7.4,-0.9 12.3,-3.9 2.4,-1.5 4.9,-2.9 6.7,-4.1 1.8,-1.2 3,-2 3.1,-2.1 0.2,-0.1 3.1,-4.9 6.1,-9.7 2.7,-4.8 5,-10.2 3.4,-12.1 z"
             id="path141"
             inkscape:connector-curvature="0" /><path
             d="m 380.1,216.1 c 0.1,0.1 1.5,0.7 3.6,1.7 2.1,1 4.8,2.2 7.6,3.3 5.6,2.2 11.3,3.9 12.9,2 1.6,-1.9 -1.2,-7.4 -4.6,-12.3 -3.3,-5 -7.3,-9.5 -7.5,-9.6 -0.2,-0.2 -5.5,-2.9 -11.4,-5 -5.8,-2 -12.3,-3.5 -14,-1.2 -1.7,2.2 1.6,7.4 5.3,12.1 3.8,4.6 7.9,8.9 8.1,9 z"
             id="path143"
             inkscape:connector-curvature="0" /><path
             d="m 411.4,220.9 c 2.5,0.4 5.3,-5.1 7.9,-10.4 2.5,-5.4 4.7,-11 4.7,-11.2 0,-0.3 0.1,-6.2 -0.4,-12.2 -0.5,-6 -1.5,-12 -4.3,-12.5 -2.7,-0.4 -6.5,5.1 -9.4,10.6 -2.9,5.4 -4.9,11.3 -4.9,11.5 0,0.3 0.2,6.2 1.1,12.1 1.1,5.9 2.8,11.8 5.3,12.1 z"
             id="path145"
             inkscape:connector-curvature="0" /><path
             d="m 417.3,226.4 c 0.8,1 2.6,1.1 4.8,0.7 2.3,-0.3 5,-1.1 7.7,-2 2.7,-0.9 5.3,-2 7.2,-2.8 2,-0.8 3.3,-1.3 3.4,-1.4 0.2,-0.1 4.2,-4 8,-8.5 3.8,-4.4 7.5,-9.1 6.3,-11.4 -0.6,-1.1 -2.5,-1.5 -4.9,-1.4 -1.2,0.1 -2.6,0.2 -4,0.5 -1.4,0.3 -2.8,0.7 -4.3,1.1 -5.8,1.7 -11.2,3.9 -11.4,4.1 -0.2,0.2 -4.4,4.4 -8,9.1 -3.5,4.5 -6.3,9.9 -4.8,12 z"
             id="path147"
             inkscape:connector-curvature="0" /><path
             d="m 410.1,235.1 c -2.4,-0.7 -5.7,4.2 -8.3,9.2 -1.3,2.5 -2.4,5 -3.1,7.1 -0.7,2 -1.2,3.4 -1.2,3.5 0,0.3 0.2,6 1.1,11.8 0.9,5.8 2.6,11.6 4.9,12.2 2.3,0.6 4.7,-4.1 6.8,-9.1 2.2,-4.9 4,-10 4,-10.2 0,-0.2 0,-6 -0.4,-11.9 -0.6,-5.9 -1.4,-11.9 -3.8,-12.6 z"
             id="path149"
             inkscape:connector-curvature="0" /><path
             d="m 438.8,235 c -0.2,-0.1 -5.4,-2.2 -10.9,-3.6 -1.4,-0.3 -2.8,-0.7 -4.2,-0.9 -1.3,-0.2 -2.6,-0.3 -3.8,-0.3 -2.3,0 -4,0.5 -4.5,1.6 -1,2.3 3,6.9 7.2,11 4.2,4.1 8.5,7.8 8.7,7.9 0.1,0.1 1.4,0.6 3.4,1.3 2,0.7 4.5,1.6 7.1,2.4 2.6,0.8 5.2,1.4 7.2,1.6 2.1,0.3 3.6,0.1 4.2,-1 1,-2.1 -2.3,-7.1 -6.1,-11.6 -3.8,-4.5 -8.1,-8.3 -8.3,-8.4 z"
             id="path151"
             inkscape:connector-curvature="0" /><path
             d="m 367.2,251.4 c 2.4,0.1 5.3,-0.3 8.1,-0.7 2.8,-0.4 5.6,-1.1 7.7,-1.5 2.1,-0.4 3.5,-0.7 3.7,-0.8 0.2,-0.1 4.8,-3.2 9.1,-6.9 4.4,-3.5 8.6,-7.5 7.8,-10 -0.9,-2.4 -6.8,-2.6 -12.8,-2.2 -5.9,0.5 -11.5,2 -11.8,2.1 -0.2,0.1 -5.2,3.3 -9.5,7.4 -4.4,4.1 -8.3,8.6 -7,10.9 0.5,1.3 2.3,1.6 4.7,1.7 z"
             id="path153"
             inkscape:connector-curvature="0" /><path
             d="m 500.2,177 c 0.1,0.2 4.3,4.6 8.7,8.6 2.2,1.9 4.5,4 6.5,5.3 2,1.3 3.7,2 4.8,1.3 2.2,-1.3 1.5,-7.3 0.2,-13.2 -1.3,-5.8 -3.3,-11.4 -3.5,-11.6 -0.1,-0.2 -4.1,-4.8 -8.8,-8.9 -4.7,-4 -10.2,-7.5 -12.6,-6.1 -2.4,1.4 -1.2,7.4 0.5,13.2 1.8,5.7 4.1,11.2 4.2,11.4 z"
             id="path155"
             inkscape:connector-curvature="0" /><path
             d="m 527.6,192.7 c 2.2,1.2 6.8,-2.5 11.2,-6.7 2.2,-2.1 4.2,-4.3 5.8,-5.9 1.6,-1.6 2.6,-2.8 2.7,-2.9 0.1,-0.2 2.3,-5.7 4,-11.4 1.7,-5.8 2.9,-11.8 0.5,-13.2 -1.2,-0.7 -3.2,-0.2 -5.4,1.1 -2.3,1.2 -4.8,3.3 -7.1,5.3 -4.7,4.2 -8.6,8.7 -8.7,9 -0.1,0.2 -2.1,5.8 -3.3,11.6 -1.4,5.8 -1.9,11.9 0.3,13.1 z"
             id="path157"
             inkscape:connector-curvature="0" /><path
             d="m 563,185.3 c -6,-0.5 -11.9,-0.2 -12.1,-0.1 -0.3,0.1 -5.7,2.2 -10.7,5.5 -5,3.2 -9.7,6.9 -8.9,9.4 0.7,2.5 6.5,3.2 12.1,3.3 5.7,0.2 11.2,0.1 11.5,0 0.1,0 1.5,-0.6 3.4,-1.6 1,-0.5 2.1,-1 3.3,-1.6 1.2,-0.6 2.5,-1.2 3.8,-1.8 5.1,-2.6 10.3,-5.9 9.9,-8.4 -0.4,-2.7 -6.4,-4.1 -12.3,-4.7 z"
             id="path159"
             inkscape:connector-curvature="0" /><path
             d="m 516.5,206.3 c -1,0.5 -2.1,1.2 -3.2,2 -1.1,0.8 -2.2,1.8 -3.2,2.7 -4.2,3.9 -7.8,8.1 -7.9,8.3 -0.1,0.3 -2.1,5.5 -3.3,11.4 -1.2,5.8 -1.8,11.8 0.1,13.2 0.9,0.7 2.4,0.1 4.1,-1.1 1.7,-1.1 3.7,-2.9 5.6,-4.8 1.9,-1.9 3.7,-3.9 5.1,-5.5 1.4,-1.6 2.3,-2.7 2.4,-2.8 0.1,-0.2 2.2,-5.5 3.9,-11.1 1.7,-5.6 3.1,-11.6 1.1,-13.1 -1,-0.7 -2.7,-0.3 -4.7,0.8 z"
             id="path161"
             inkscape:connector-curvature="0" /><path
             d="m 554.3,239.8 c 1.7,-1.6 0.4,-7.5 -1.5,-13 -1.9,-5.5 -4.5,-10.8 -4.7,-11 -0.1,-0.1 -1.1,-1.1 -2.7,-2.6 -1.6,-1.4 -3.8,-3.1 -6.2,-4.7 -4.7,-3.2 -10,-6 -11.8,-4.2 -1.8,1.8 0.3,7.5 2.7,12.8 2.4,5.4 5.1,10.5 5.3,10.7 0.2,0.2 4.2,3.9 8.5,7.1 4.2,3.5 8.7,6.5 10.4,4.9 z"
             id="path163"
             inkscape:connector-curvature="0" /><path
             d="m 475.3,205.2 c 1.1,0.4 2.3,0.8 3.7,1.2 1.4,0.3 2.8,0.7 4.1,1 5.6,1.3 11.1,2 11.4,2 0.1,0 1.5,-0.4 3.6,-0.9 2.1,-0.5 4.8,-1.2 7.4,-2.1 2.7,-0.9 5.4,-1.9 7.4,-3.1 2,-1 3.4,-2.2 3.4,-3.5 0,-1.3 -1.3,-2.6 -3.4,-3.7 -2.1,-1.2 -4.9,-2.1 -7.7,-2.9 -5.7,-1.6 -11.5,-2.6 -11.8,-2.4 -0.3,0 -6,1.5 -11.5,3.5 -2.8,1 -5.5,2.3 -7.4,3.7 -2,1.4 -3.2,2.7 -3,4 0.1,1.3 1.6,2.3 3.8,3.2 z"
             id="path165"
             inkscape:connector-curvature="0" /><path
             d="m 627.8,187.4 c 0.5,1 1,2.2 1.6,3.5 0.6,1.3 1.2,2.7 1.9,4 2.7,5.4 5.7,10.6 8.2,10.2 2.5,-0.4 4.1,-6.3 5,-12.2 0.9,-5.9 1,-11.8 0.9,-12.1 0,-0.3 -2.1,-5.9 -5,-11.4 -1.5,-2.7 -3.1,-5.5 -4.8,-7.4 -1.7,-1.9 -3.4,-3.1 -4.8,-2.9 -2.8,0.5 -3.8,6.5 -4.3,12.5 -0.4,6 -0.3,11.9 -0.2,12.1 0,0.2 0.5,1.7 1.5,3.7 z"
             id="path167"
             inkscape:connector-curvature="0" /><path
             d="m 659.1,205.9 c 5.5,-2.2 10.8,-4.9 11,-5 0.2,-0.2 4.2,-4.5 7.9,-9.3 3.7,-4.8 7,-10 5.2,-12.1 -1.8,-2.1 -8.2,-0.7 -14,1.4 -5.9,2.2 -11.2,5.1 -11.4,5.3 -0.2,0.2 -4.1,4.7 -7.3,9.7 -3.3,5 -6,10.5 -4.3,12.4 1.6,2 7.3,0 12.9,-2.4 z"
             id="path169"
             inkscape:connector-curvature="0" /><path
             d="m 691.6,222.9 c 0.3,-1.3 -0.8,-2.8 -2.7,-4.3 -1.9,-1.5 -4.5,-3 -7.2,-4.3 -2.7,-1.3 -5.4,-2.5 -7.5,-3.4 -2.1,-0.8 -3.6,-1.2 -3.7,-1.2 -0.3,0 -6.2,0.2 -12,1.2 -5.8,1.1 -11.5,3.1 -11.8,5.6 -0.1,1.3 1.1,2.6 3,3.8 1,0.6 2.1,1.2 3.3,1.8 1.2,0.6 2.5,1.3 3.8,1.8 5.2,2.3 10.5,4 10.7,4 0.2,0 5.8,-0.1 11.6,-0.8 6.1,-0.8 12,-1.7 12.5,-4.2 z"
             id="path171"
             inkscape:connector-curvature="0" /><path
             d="m 623.2,219.1 c -5.3,2 -10.2,4.9 -10.4,5 -0.2,0.2 -4,4.5 -7.1,9.4 -3.2,4.8 -5.9,10.3 -4.6,12.2 1.3,2 6.2,0.3 11.1,-2 1.2,-0.6 2.4,-1.2 3.6,-1.7 1.1,-0.5 2.2,-1.1 3.1,-1.5 1.8,-0.9 3.1,-1.6 3.2,-1.7 0.2,-0.2 4,-4.4 7.7,-9 3.6,-4.7 7.1,-9.7 5.8,-11.8 -1.3,-2.2 -7.1,-0.9 -12.4,1.1 z"
             id="path173"
             inkscape:connector-curvature="0" /><path
             d="m 641.8,219.1 c -2.3,1 -2.4,7.1 -2.1,13 0.3,5.9 1,11.6 1.1,11.8 0.1,0.3 2.6,5 5.3,9.8 2.7,4.7 5.8,8.9 8,8.1 2.1,-0.8 3.1,-6.9 3.3,-12.7 0.2,-5.8 -0.4,-11.6 -0.4,-11.8 -0.1,-0.2 -2.5,-5.3 -5.6,-10.1 -3.4,-4.7 -7.4,-9.1 -9.6,-8.1 z"
             id="path175"
             inkscape:connector-curvature="0" /><path
             d="m 592.9,201.1 c 1.7,1.6 4.1,3.4 6.5,5 4.8,3.2 9.7,5.7 9.9,5.9 0.2,0.1 5.7,0.9 11.4,1.1 2.9,0 5.7,0.2 8,-0.1 2.3,-0.3 4,-0.9 4.5,-2.1 1,-2.3 -3.2,-6.7 -8,-10.2 -4.7,-3.4 -9.9,-6.3 -10.1,-6.4 -0.1,0 -1.6,-0.3 -3.9,-0.5 -2.2,-0.2 -5.2,-0.3 -8.2,-0.3 -3,0 -5.9,0.2 -8.3,0.7 -2.3,0.6 -4,1.5 -4.3,2.7 -0.3,1.1 0.7,2.6 2.5,4.2 z"
             id="path177"
             inkscape:connector-curvature="0" /><path
             d="m 745.8,260.4 c 2.5,0.6 6.1,-4.4 9,-9.6 3,-5.2 5.2,-10.7 5.3,-10.9 0,-0.1 0.1,-1.7 0,-4 -0.1,-2.3 -0.1,-5.5 -0.6,-8.5 -0.8,-6.1 -2.5,-12.4 -5.2,-13 -2.7,-0.6 -5.9,4.6 -8.5,10.1 -2.6,5.4 -4.6,11 -4.6,11.3 0,0.3 0.1,6.3 0.6,12.2 0.7,5.8 1.6,11.9 4,12.4 z"
             id="path179"
             inkscape:connector-curvature="0" /><path
             d="m 751,265.8 c 0.9,2.3 6.8,2.7 12.8,2.5 3,-0.1 6,-0.3 8.3,-0.5 2.2,-0.1 3.8,-0.3 3.9,-0.3 0.3,-0.1 5.6,-2.6 10.7,-5.7 5.1,-3.1 10.1,-6.8 9.2,-9.4 -0.9,-2.6 -7.2,-3.8 -13.6,-3.8 -6.3,-0.1 -12.2,0.7 -12.5,0.7 -0.3,0.1 -5.4,2.8 -10.3,6.4 -4.8,3.6 -9.3,7.7 -8.5,10.1 z"
             id="path181"
             inkscape:connector-curvature="0" /><path
             d="m 767.5,293.1 c 2.1,0.6 4.8,1.5 7.6,2.3 5.6,1.5 11.6,2.6 13.1,0.4 1.4,-2.1 -2.1,-7.1 -6.1,-11.6 -1.9,-2.3 -4.2,-4.2 -5.9,-5.8 -1.7,-1.5 -2.9,-2.5 -3,-2.5 -0.1,-0.1 -1.6,-0.6 -3.7,-1.3 -1.1,-0.3 -2.3,-0.7 -3.6,-1 -1.4,-0.3 -2.8,-0.6 -4.3,-0.9 -5.9,-1.1 -11.8,-1.4 -12.9,0.9 -1.1,2.3 2.6,6.8 6.7,10.6 4,4 8.2,7.6 8.5,7.7 0.1,0.1 1.5,0.5 3.6,1.2 z"
             id="path183"
             inkscape:connector-curvature="0" /><path
             d="m 706.5,286.5 c 5.3,-0.2 10.8,-1 11.1,-1.1 0.3,-0.1 5.3,-2.6 10.4,-5.6 5.1,-3 10.1,-6.5 9.7,-8.9 -0.4,-2.4 -6.2,-3.5 -11.9,-3.4 -5.7,0 -11.2,0.7 -11.4,0.8 -0.1,0.1 -1.4,0.7 -3.4,1.9 -1.9,1.1 -4.4,2.7 -6.8,4.4 -4.8,3.4 -9.3,7.5 -8.8,9.8 0.4,2.3 5.8,2.3 11.1,2.1 z"
             id="path185"
             inkscape:connector-curvature="0" /><path
             d="m 733.1,297 c 0,0.3 0.5,5.7 1.4,11 0.9,5.4 2.1,10.6 4.4,10.5 2.3,0 5.4,-5.3 7.6,-10.7 2.3,-5.4 3.9,-11 3.9,-11.2 0,-0.1 -0.1,-1.6 -0.3,-3.7 -0.2,-2.2 -0.7,-4.9 -1.4,-7.6 -0.6,-2.8 -1.5,-5.5 -2.5,-7.6 -0.5,-1 -1,-1.9 -1.6,-2.5 -0.6,-0.6 -1.2,-0.9 -1.8,-0.9 -2.5,0.1 -4.8,5.8 -6.6,11.3 -1.7,5.6 -3.1,11.2 -3.1,11.4 z"
             id="path187"
             inkscape:connector-curvature="0" /><path
             d="m 715.3,255.8 c 0.1,0.1 1.4,0.8 3.3,1.7 1.9,0.9 4.3,2.3 6.9,3.4 2.6,1.2 5.3,2.2 7.5,2.8 2.3,0.5 4,0.6 4.9,-0.3 0.9,-0.9 0.8,-2.8 0,-5 -0.8,-2.2 -2.2,-4.8 -3.8,-7.3 -1.6,-2.5 -3.3,-4.9 -4.6,-6.7 -1.4,-1.8 -2.4,-2.9 -2.5,-3 -0.2,-0.2 -5.4,-3 -10.9,-5.2 -5.6,-2 -11.5,-3.4 -13,-1.3 -1.5,2.1 1.6,7.3 5,11.8 3.4,4.7 6.9,9 7.2,9.1 z"
             id="path189"
             inkscape:connector-curvature="0" /><path
             d="m 825.2,350.3 c 2.1,1.4 7.2,-1.9 11.9,-5.7 4.6,-3.8 8.7,-8.1 8.9,-8.3 0.2,-0.3 2.4,-5.8 3.9,-11.8 1.5,-6 2.3,-12.6 -0.1,-14.1 -2.4,-1.5 -7.2,2.2 -11.6,6.4 -4.3,4.1 -8.2,8.6 -8.3,8.8 -0.1,0.2 -2.2,5.9 -3.9,11.6 -1.7,5.9 -2.8,11.7 -0.8,13.1 z"
             id="path191"
             inkscape:connector-curvature="0" /><path
             d="m 828,357.2 c 0,1.3 1.3,2.5 3.4,3.6 2.1,1.1 4.8,2.3 7.6,3.3 5.6,2 11.4,3.6 11.7,3.6 0.3,0 6.2,-0.5 12.1,-1.5 5.9,-1 11.8,-2.7 12,-5.4 0.2,-2.8 -5.6,-6 -11.4,-8.4 -2.9,-1.2 -5.8,-2.2 -8,-2.8 -2.2,-0.7 -3.8,-1 -3.9,-1 -0.3,0 -6.2,0.7 -12,2.3 -5.7,1.6 -11.4,3.8 -11.5,6.3 z"
             id="path193"
             inkscape:connector-curvature="0" /><path
             d="m 840,393.4 c 4.6,3.4 9.8,6.7 11.9,5.2 1.1,-0.7 1.2,-2.6 0.9,-5 -0.4,-2.4 -1.1,-5.3 -2.3,-8.1 -2.2,-5.6 -5,-10.8 -5.2,-11 -0.1,-0.2 -4.8,-4 -9.8,-7.1 -2.5,-1.6 -5.1,-3 -7.3,-3.8 -2.3,-0.8 -4.1,-0.9 -5.1,0 -3.6,3.4 7.5,22.1 7.6,22.6 0.2,0.2 4.5,3.8 9.3,7.2 z"
             id="path195"
             inkscape:connector-curvature="0" /><path
             d="m 779.2,360.5 c 5,1.7 10.3,3 10.6,3.1 0.2,0 6,-0.5 11.8,-1.5 5.8,-1 11.7,-2.4 12.2,-4.8 0.6,-2.5 -4.7,-5.3 -10,-7.5 -2.6,-1 -5.3,-1.9 -7.3,-2.5 -2.1,-0.6 -3.5,-0.9 -3.6,-0.9 -0.3,0 -6,0.7 -11.7,2.2 -5.7,1.5 -11.3,3.6 -11.7,6 -0.4,2.3 4.5,4.2 9.7,5.9 z"
             id="path197"
             inkscape:connector-curvature="0" /><path
             d="m 817.5,362.2 c -2.4,-0.8 -6.6,3.6 -10.3,8.2 -3.7,4.6 -6.9,9.2 -7.1,9.4 -0.1,0.2 -1.7,5.6 -2.7,10.8 -0.6,2.6 -0.9,5.2 -1,7.3 -0.1,2.1 0.3,3.6 1.4,4 2.2,0.8 6.9,-3 11,-7.2 2.1,-2.1 4,-4.3 5.4,-6 1.4,-1.7 2.3,-2.9 2.3,-3 0.1,-0.2 1.7,-5.5 2.5,-11.2 1,-5.6 0.9,-11.4 -1.5,-12.3 z"
             id="path199"
             inkscape:connector-curvature="0" /><path
             d="m 795,324 c 1.5,5.5 3.2,10.8 3.3,11.1 0.1,0.2 3.7,4.4 7.7,8.5 3.9,4.1 8.4,7.9 10.7,6.8 2.3,-1.1 2,-7 1,-12.9 -0.5,-2.9 -1.3,-5.7 -1.9,-7.9 -0.7,-2.1 -1.2,-3.6 -1.2,-3.7 -0.1,-0.1 -1,-1.3 -2.5,-3 -0.7,-0.8 -1.6,-1.8 -2.6,-2.8 -1,-1 -2.1,-2 -3.2,-3 -4.5,-3.9 -9.4,-7.4 -11.5,-6 -2.2,1.4 -1.3,7.4 0.2,12.9 z"
             id="path201"
             inkscape:connector-curvature="0" /><path
             d="m 866.7,462.9 c 1.5,2.1 7.5,0.9 13.2,-1 5.7,-1.8 11,-4.4 11.2,-4.5 0.2,-0.2 4.4,-4.5 8,-9.6 0.9,-1.3 1.8,-2.6 2.6,-3.9 0.7,-1.3 1.4,-2.6 1.9,-3.7 1,-2.4 1.3,-4.4 0.5,-5.5 -1.6,-2.3 -7.5,-0.6 -13.1,1.7 -5.6,2.3 -10.8,5.1 -11,5.2 -0.2,0.2 -4.1,4.6 -7.7,9.4 -3.8,4.8 -7.1,9.8 -5.6,11.9 z"
             id="path203"
             inkscape:connector-curvature="0" /><path
             d="m 901.6,478.8 c -4.6,-4.3 -9.6,-7.8 -9.8,-7.9 -0.2,-0.1 -6,-1.6 -11.9,-2.3 -5.9,-0.7 -12,-0.7 -13.1,1.7 -1,2.3 3.2,6.6 7.8,10.5 1.1,1 2.3,1.9 3.4,2.8 1.1,0.9 2.1,1.7 2.9,2.4 1.8,1.4 3,2.3 3.1,2.4 0.2,0.1 5.9,1.8 11.8,3 5.9,1.2 12,1.8 13.2,-0.7 0.6,-1.3 -0.2,-3.2 -1.6,-5.3 -1.4,-2.1 -3.4,-4.5 -5.8,-6.6 z"
             id="path205"
             inkscape:connector-curvature="0" /><path
             d="m 874.1,517.5 c 2.5,-0.6 3.2,-6.7 3.3,-12.7 0,-1.5 0,-3 0,-4.4 -0.1,-1.4 -0.2,-2.7 -0.4,-3.8 -0.2,-2.2 -0.5,-3.8 -0.5,-3.9 -0.1,-0.2 -2.8,-5.5 -6.4,-10.2 -3.6,-4.7 -7.8,-9 -10.2,-8 -2.4,0.9 -2.5,6.7 -2.2,12.4 0.2,5.7 1,11.2 1.1,11.4 0,0.1 0.8,1.4 1.9,3.3 1,1.9 2.5,4.3 4,6.8 3.2,4.8 7,9.7 9.4,9.1 z"
             id="path207"
             inkscape:connector-curvature="0" /><path
             d="m 813.3,446.5 c -0.3,0.5 -0.3,1.1 0,1.8 0.2,0.7 0.7,1.4 1.4,2.2 1.3,1.6 3.3,3.4 5.4,5.1 2.1,1.7 4.3,3.3 6,4.6 1.6,1.2 2.8,2.1 2.9,2.1 0.2,0.1 5.7,1.7 11.5,2.9 5.8,1.2 11.9,2 13.2,-0.1 1.3,-2.1 -2.3,-6.7 -6.5,-10.6 -4.3,-3.9 -8.9,-7 -9.1,-7.1 -0.2,-0.1 -5.8,-1.5 -11.6,-2.2 -6,-0.7 -12.1,-0.6 -13.2,1.3 z"
             id="path209"
             inkscape:connector-curvature="0" /><path
             d="m 832.6,481.3 c -0.1,0.1 -1,1.2 -2.1,2.9 -1.2,1.7 -2.6,3.9 -4.2,6.2 -3,4.5 -5.5,9.2 -3.8,10.8 1.8,1.6 7.5,-0.3 12.8,-2.7 5.3,-2.4 10.2,-5.5 10.4,-5.7 0.1,-0.1 1,-1.2 2.3,-3 1.3,-1.7 2.9,-4.1 4.2,-6.6 2.7,-4.9 4.9,-10.5 3.1,-12.1 -1.9,-1.6 -7.4,1 -12.6,3.9 -5.2,3 -10,6.1 -10.1,6.3 z"
             id="path211"
             inkscape:connector-curvature="0" /><path
             d="m 858.7,459.7 c 1.3,-0.1 2.4,-1.6 3.4,-3.7 0.5,-1.1 0.9,-2.4 1.3,-3.7 0.4,-1.4 0.6,-2.8 0.9,-4.2 1,-5.8 1.3,-11.7 1.3,-12 0.1,-0.3 -2,-5.8 -4.6,-11.1 -2.5,-5.4 -6.2,-10.3 -8.6,-9.7 -1.3,0.3 -2.2,1.9 -2.8,4.1 -0.3,1.1 -0.6,2.4 -0.8,3.7 -0.3,1.4 -0.5,2.8 -0.7,4.2 -0.8,5.7 -0.9,11.2 -0.9,11.5 0.1,0.2 1.7,5.5 4,10.7 2.4,5.2 4.9,10.4 7.5,10.2 z"
             id="path213"
             inkscape:connector-curvature="0" /></g><circle
           cx="543.20001"
           cy="518.90002"
           r="266.29999"
           id="circle215" /></g></g></switch></svg>