<?xml version="1.0" encoding="UTF-8" standalone="no"?>
<svg
   xmlns:dc="http://purl.org/dc/elements/1.1/"
   xmlns:cc="http://creativecommons.org/ns#"
   xmlns:rdf="http://www.w3.org/1999/02/22-rdf-syntax-ns#"
   xmlns:svg="http://www.w3.org/2000/svg"
   xmlns="http://www.w3.org/2000/svg"
   xmlns:sodipodi="http://sodipodi.sourceforge.net/DTD/sodipodi-0.dtd"
   xmlns:inkscape="http://www.inkscape.org/namespaces/inkscape"
   version="1.1"
   id="Layer_1"
   x="0px"
   y="0px"
   viewBox="0 0 1000 1000"
   width="100%"
   height="100%"
   style="enable-background:new 0 0 1000 1000;"
   xml:space="preserve"
   ><switch
     id="switch3"
     transform="translate(-41.85,1.55)"><g
       id="g5"><g
         id="g7"><path
           d="m 895.7,529.2 -1.1,-11 c -0.4,-3.7 -1,-7.3 -1.6,-10.9 -2.8,2.5 -5.6,4.9 -8.4,7.3 -2.8,2.4 -5.8,4.7 -8.7,6.9 -7.5,-1.5 -14.9,-3 -22.4,-4.4 l 4.4,9.2 2.2,4.7 2,4.7 c -4.2,5.6 -8.1,11 -12.6,16.2 7.6,0.3 15.2,0.6 22.9,0.8 4.5,5.7 9.1,11.6 13.4,17.8 1.4,-3.4 2.6,-6.9 3.9,-10.3 l 1.9,-5.2 0.9,-2.6 0.8,-2.6 c 7.1,-2.4 14.3,-5.1 21.5,-7.9 -3.1,-2.2 -6.3,-4.3 -9.4,-6.4 -3.2,-2.2 -6.5,-4.3 -9.7,-6.3 z"
           id="path9"
           inkscape:connector-curvature="0" /><path
           d="m 868.4,628.1 c -3.5,1.4 -6.9,2.7 -10.4,4 -3.5,1.2 -7.1,2.4 -10.6,3.5 -6.5,-4 -13,-8 -19.5,-11.9 0.7,6.7 1.4,13.6 1.6,20.4 l -8.6,5.6 -8.8,5.2 c 7,3 14.1,5.9 21.1,8.7 2.3,6.9 4.6,14.1 6.4,21.3 1.2,-1.4 2.5,-2.7 3.7,-4.1 l 3.5,-4.2 7.1,-8.5 c 7.5,0.2 15.1,0.2 22.8,0 -4.4,-6.3 -8.8,-12.4 -13.6,-18.4 2.1,-7.3 4,-14.3 5.3,-21.6 z"
           id="path11"
           inkscape:connector-curvature="0" /><path
           d="m 816,570 1.4,4.5 2.7,9.2 c -2.3,2.1 -4.9,4.1 -7.4,6.1 -2.5,2 -4.9,3.9 -7.4,5.8 7.4,1.8 14.8,3.6 22.2,5.2 1.9,3 3.6,6 5.3,9.1 1.7,3.1 3.4,6.2 5.1,9.4 l 5.4,-8.5 c 0.9,-1.4 1.8,-2.9 2.6,-4.3 l 2.5,-4.4 c 7.4,-0.8 15,-1.8 22.4,-3 -5.6,-5.2 -11.2,-10.2 -16.9,-15 l 0.4,-5 0.2,-5.1 0.4,-10.1 c -6.4,3.4 -12.7,6.6 -19,9.6 -7.1,-2.8 -14.3,-5.5 -21.4,-8.1 0.5,1.6 1.1,3.1 1.5,4.6 z"
           id="path13"
           inkscape:connector-curvature="0" /><path
           d="m 773.2,653.9 c -0.5,0.7 -0.1,1.8 0.8,2.5 l 70.1,47.8 c 0.9,0.6 2.3,0.4 2.9,-0.5 0.6,-1 0.4,-2.3 -0.6,-2.9 l -70.7,-47 c -0.9,-0.7 -2.1,-0.7 -2.5,0.1 z"
           id="path15"
           inkscape:connector-curvature="0" /><path
           d="m 744.4,692.7 c -0.8,-0.8 -2,-0.9 -2.6,-0.3 -0.6,0.6 -0.4,1.8 0.4,2.6 l 60.6,59.5 c 0.8,0.8 2.1,0.8 2.9,-0.1 0.8,-0.8 0.8,-2.2 -0.1,-3 l -61.2,-58.7 z"
           id="path17"
           inkscape:connector-curvature="0" /><path
           d="M 854.7,749.1 761,673.9 c -0.9,-0.7 -2.1,-0.7 -2.6,-0.1 -0.5,0.6 -0.3,1.8 0.6,2.6 l 92.9,76.2 c 0.9,0.7 2.2,0.5 3,-0.5 0.8,-0.9 0.7,-2.3 -0.2,-3 z"
           id="path19"
           inkscape:connector-curvature="0" /><path
           d="m 761.8,751 c -4.2,-6.4 -8.4,-12.7 -12.7,-19 -2.2,6.3 -4.4,12.9 -7.1,19.2 l -10.2,1.5 -10.2,1 c 5.1,5.6 10.3,11.2 15.6,16.8 -0.8,7.2 -1.7,14.8 -3.1,22 1.7,-0.7 3.4,-1.4 5.1,-2.1 l 5,-2.4 10,-4.8 c 6.8,3.3 13.7,6.5 20.7,9.6 -1.4,-7.6 -2.8,-14.9 -4.6,-22.4 l 7,-8.6 1.7,-2.1 1.6,-2.2 3.3,-4.4 c -3.7,-0.2 -7.4,-0.5 -11.1,-0.8 -3.6,-0.4 -7.3,-0.8 -11,-1.3 z"
           id="path21"
           inkscape:connector-curvature="0" /><path
           d="m 661,811.6 c -1.7,-7.4 -3.6,-14.8 -5.4,-22.2 l -3.2,4 c -1.1,1.3 -2.1,2.7 -3.3,3.9 l -6.8,7.7 -5,-1 c -1.7,-0.4 -3.4,-0.8 -5,-1.2 l -9.9,-2.5 c 2.9,7 5.8,14.1 8.8,21.1 -1.6,3.3 -3.3,6.7 -5.1,9.9 -1.8,3.2 -3.6,6.4 -5.5,9.7 3.7,-0.2 7.4,-0.3 11,-0.7 l 11,-1.1 c 2.6,2.8 5.3,5.5 8,8.3 2.7,2.7 5.4,5.3 8.2,8 1.3,-7.6 2.5,-15.1 3.4,-22.6 1.6,-0.9 3.2,-1.9 4.8,-2.8 l 4.7,-2.9 4.7,-2.9 2.3,-1.4 2.3,-1.6 c -3.4,-1.4 -6.8,-3 -10.2,-4.6 -3.2,-1.8 -6.5,-3.5 -9.8,-5.1 z"
           id="path23"
           inkscape:connector-curvature="0" /><path
           d="m 701.6,761.3 c -1.7,-0.6 -3.3,-1.2 -5,-1.8 -3.1,-7 -6.2,-13.9 -9.4,-20.8 l -4.3,8.3 c -1.5,2.8 -2.9,5.7 -4.6,8.4 l -9.5,-0.8 c -1.6,-0.2 -3.1,-0.3 -4.7,-0.5 l -4.7,-0.7 c 3.9,6.5 8,13 12,19.5 -1.7,6.7 -3.6,13.6 -5.7,20.5 3.3,-0.7 6.5,-1.5 9.8,-2.3 3.3,-0.8 6.6,-1.5 9.8,-2.5 5.8,4.6 11.8,9.2 17.9,13.7 -0.2,-7.4 -0.7,-15.1 -1.3,-22.5 2.6,-2.2 5.1,-4.4 7.6,-6.6 l 7.3,-7 c -3.5,-1 -6.9,-2.1 -10.2,-3.2 l -5,-1.7 z"
           id="path25"
           inkscape:connector-curvature="0" /><path
           d="m 597.5,773.7 c -0.2,-1.1 -1.1,-1.9 -2,-1.8 -0.9,0.2 -1.4,1.2 -1.2,2.3 l 15.8,83.4 c 0.2,1.1 1.3,1.9 2.4,1.7 1.1,-0.2 1.9,-1.3 1.6,-2.4 l -16.6,-83.2 z"
           id="path27"
           inkscape:connector-curvature="0" /><path
           d="m 546.1,777 c -0.9,0 -1.6,1 -1.6,2.1 l 0.8,84.9 c 0,1.2 1,2.1 2.1,2 1.2,0 2.1,-1 2,-2.1 L 547.7,779 c 0,-1.1 -0.7,-2 -1.6,-2 z"
           id="path29"
           inkscape:connector-curvature="0" /><path
           d="m 571,775.6 c -0.9,0.1 -1.5,1.1 -1.4,2.2 l 11.7,119.6 c 0.1,1.1 1.2,2 2.5,1.9 1.3,-0.2 2.2,-1.2 2,-2.4 L 572.7,777.4 c -0.1,-1.1 -0.9,-1.9 -1.7,-1.8 z"
           id="path31"
           inkscape:connector-curvature="0" /><path
           d="m 518.8,832.6 c 1.5,-7.5 3,-14.9 4.4,-22.4 l -9.2,4.4 -4.7,2.2 -4.7,2 c -5.6,-4.2 -11,-8.1 -16.2,-12.6 -0.4,7.6 -0.6,15.2 -0.8,22.9 -5.7,4.5 -11.6,9.1 -17.8,13.4 3.4,1.4 6.9,2.6 10.3,3.9 l 5.2,1.9 2.6,0.9 2.6,0.8 c 2.4,7.1 5.1,14.3 7.9,21.5 2.2,-3.1 4.3,-6.3 6.4,-9.4 2.1,-3.2 4.1,-6.5 6.1,-9.7 l 11,-1.1 c 3.7,-0.4 7.3,-1 10.9,-1.6 -2.5,-2.8 -4.9,-5.6 -7.3,-8.4 -2.1,-2.8 -4.4,-5.8 -6.7,-8.7 z"
           id="path33"
           inkscape:connector-curvature="0" /><path
           d="m 396.2,786.2 -5.6,-8.6 -5.2,-8.8 c -3,7 -5.9,14.1 -8.7,21.1 -6.9,2.3 -14.1,4.6 -21.3,6.4 1.4,1.2 2.7,2.5 4.1,3.7 l 4.2,3.5 8.5,7.1 c -0.2,7.5 -0.2,15.1 0,22.8 6.3,-4.4 12.4,-8.8 18.4,-13.6 7.2,1.8 14.3,3.8 21.5,5.1 -1.4,-3.5 -2.7,-6.9 -4,-10.4 -1.2,-3.5 -2.4,-7.1 -3.5,-10.6 4,-6.5 8,-13 11.9,-19.5 -6.5,0.9 -13.4,1.6 -20.3,1.8 z"
           id="path35"
           inkscape:connector-curvature="0" /><path
           d="m 466.7,792.5 c 2.8,-7.1 5.5,-14.3 8.1,-21.4 -1.5,0.5 -3,1.1 -4.5,1.6 l -4.5,1.4 -9.2,2.7 c -2.1,-2.3 -4.1,-4.9 -6.1,-7.4 -2,-2.5 -3.9,-4.9 -5.8,-7.4 -1.8,7.4 -3.6,14.8 -5.2,22.2 -3,1.9 -6,3.6 -9.1,5.3 -3.1,1.7 -6.2,3.4 -9.4,5.1 l 8.5,5.4 c 1.4,0.9 2.9,1.8 4.3,2.6 l 4.4,2.5 c 0.8,7.4 1.8,15 3,22.4 5.2,-5.6 10.2,-11.2 15,-16.9 l 5,0.4 5.1,0.2 10.1,0.4 c -3.5,-6.5 -6.7,-12.8 -9.7,-19.1 z"
           id="path37"
           inkscape:connector-curvature="0" /><path
           d="m 386.4,729.8 c -0.7,-0.5 -1.8,-0.1 -2.5,0.8 l -47.8,70.1 c -0.6,0.9 -0.4,2.3 0.5,2.9 1,0.6 2.3,0.4 2.9,-0.6 l 47,-70.7 c 0.7,-0.9 0.7,-2.1 -0.1,-2.5 z"
           id="path39"
           inkscape:connector-curvature="0" /><path
           d="M 288.8,762.3 347.6,701 c 0.8,-0.8 0.9,-2 0.3,-2.6 -0.6,-0.6 -1.8,-0.4 -2.6,0.4 l -59.5,60.6 c -0.8,0.8 -0.8,2.1 0.1,2.9 0.8,0.8 2.1,0.8 2.9,0 z"
           id="path41"
           inkscape:connector-curvature="0" /><path
           d="m 366.5,714.9 c -0.7,-0.5 -1.8,-0.3 -2.6,0.6 l -76.2,92.9 c -0.7,0.9 -0.5,2.2 0.5,3 1,0.8 2.4,0.7 3.1,-0.2 l 75.2,-93.7 c 0.6,-0.9 0.7,-2 0,-2.6 z"
           id="path43"
           inkscape:connector-curvature="0" /><path
           d="m 288.1,729.5 c 0.4,-3.7 0.8,-7.4 1.2,-11 6.4,-4.2 12.7,-8.4 19,-12.7 -6.3,-2.2 -12.9,-4.4 -19.2,-7.1 l -1.5,-10.2 -1,-10.2 c -5.6,5.1 -11.2,10.3 -16.8,15.6 -7.2,-0.8 -14.8,-1.7 -22,-3.1 0.7,1.7 1.4,3.4 2.1,5.1 l 2.4,5 4.8,10 c -3.3,6.8 -6.5,13.7 -9.6,20.7 7.6,-1.4 14.9,-2.8 22.4,-4.6 l 8.6,7 2.1,1.7 2.2,1.6 4.4,3.3 c 0.3,-3.8 0.6,-7.5 0.9,-11.1 z"
           id="path45"
           inkscape:connector-curvature="0" /><path
           d="m 247,609 c -1.3,-1.1 -2.7,-2.1 -3.9,-3.3 l -7.7,-6.8 1,-5 c 0.4,-1.7 0.8,-3.4 1.2,-5 l 2.5,-9.9 c -7,2.9 -14.1,5.8 -21.1,8.8 -3.3,-1.6 -6.7,-3.3 -9.9,-5.1 -3.2,-1.8 -6.4,-3.6 -9.7,-5.5 0.2,3.7 0.3,7.4 0.7,11 l 1.1,11 c -2.8,2.6 -5.5,5.3 -8.3,8 -2.7,2.7 -5.3,5.4 -8,8.2 7.6,1.3 15.1,2.5 22.6,3.4 0.8,1.6 1.9,3.2 2.8,4.8 l 2.9,4.7 2.9,4.7 1.4,2.3 1.6,2.3 c 1.4,-3.4 3,-6.8 4.6,-10.2 1.6,-3.4 3.2,-6.7 4.9,-9.9 7.4,-1.7 14.8,-3.6 22.2,-5.4 L 247,609 Z"
           id="path47"
           inkscape:connector-curvature="0" /><path
           d="m 260.6,658.5 c 2.2,2.6 4.4,5.1 6.6,7.6 l 7,7.3 c 1,-3.5 2.1,-6.9 3.2,-10.2 l 1.7,-5 c 0.6,-1.7 1.2,-3.3 1.8,-5 7,-3.1 13.9,-6.2 20.8,-9.4 l -8.3,-4.3 c -2.8,-1.5 -5.7,-2.9 -8.4,-4.6 l 0.8,-9.5 c 0.2,-1.6 0.3,-3.1 0.5,-4.7 L 287,616 c -6.5,3.9 -13,8 -19.5,12 -6.7,-1.7 -13.6,-3.6 -20.5,-5.7 0.7,3.3 1.5,6.5 2.3,9.8 0.8,3.3 1.5,6.6 2.5,9.8 -4.6,5.8 -9.2,11.8 -13.7,17.9 7.4,-0.2 15.1,-0.7 22.5,-1.3 z"
           id="path49"
           inkscape:connector-curvature="0" /><path
           d="m 268.4,552.1 c -0.2,-0.9 -1.2,-1.4 -2.3,-1.2 l -83.4,15.8 c -1.1,0.2 -1.9,1.3 -1.7,2.4 0.2,1.1 1.3,1.9 2.4,1.6 L 266.6,554 c 1.2,-0.1 2,-1 1.8,-1.9 z"
           id="path51"
           inkscape:connector-curvature="0" /><path
           d="m 176.3,501.9 c -1.2,0 -2.1,1 -2,2.1 0,1.2 1,2.1 2.1,2 l 84.9,-1.7 c 1.2,0 2.1,-0.8 2,-1.6 0,-0.9 -1,-1.6 -2.1,-1.6 l -84.9,0.8 z"
           id="path53"
           inkscape:connector-curvature="0" /><path
           d="m 264.7,527.6 c -0.1,-0.9 -1.1,-1.5 -2.2,-1.4 l -119.6,11.7 c -1.1,0.1 -2,1.2 -1.9,2.5 0.2,1.3 1.2,2.2 2.4,2 l 119.5,-13.1 c 1.1,-0.1 1.9,-0.9 1.8,-1.7 z"
           id="path55"
           inkscape:connector-curvature="0" /><path
           d="m 188,467.7 1.1,11 c 0.4,3.7 1,7.3 1.6,10.9 2.8,-2.5 5.6,-4.9 8.4,-7.3 2.8,-2.4 5.8,-4.7 8.7,-6.9 7.5,1.5 14.9,3 22.4,4.4 l -4.4,-9.2 -2.2,-4.7 -2,-4.7 c 4.2,-5.6 8.1,-11 12.6,-16.2 -7.6,-0.4 -15.2,-0.6 -22.9,-0.8 -4.5,-5.7 -9.1,-11.6 -13.4,-17.8 -1.4,3.4 -2.6,6.9 -3.9,10.3 l -1.9,5.2 -0.9,2.6 -0.8,2.6 c -7.1,2.4 -14.3,5.1 -21.5,7.9 3.1,2.2 6.3,4.3 9.4,6.4 3.2,2.2 6.5,4.3 9.7,6.3 z"
           id="path57"
           inkscape:connector-curvature="0" /><path
           d="m 215.3,368.8 c 3.5,-1.4 6.9,-2.7 10.4,-4 3.5,-1.2 7.1,-2.4 10.6,-3.5 6.5,4 13,8 19.5,11.9 -0.7,-6.7 -1.4,-13.6 -1.6,-20.4 l 8.6,-5.6 8.8,-5.2 c -7,-3 -14.1,-5.9 -21.1,-8.7 -2.3,-6.9 -4.6,-14.1 -6.4,-21.3 -1.2,1.4 -2.5,2.7 -3.7,4.1 l -3.5,4.2 -7.1,8.5 c -7.5,-0.2 -15.1,-0.2 -22.8,0 4.4,6.3 8.8,12.4 13.6,18.4 -2.1,7.3 -4,14.3 -5.3,21.6 z"
           id="path59"
           inkscape:connector-curvature="0" /><path
           d="m 278.4,401.4 c -7.4,-1.8 -14.8,-3.6 -22.2,-5.2 -1.9,-3 -3.6,-6 -5.3,-9.1 -1.7,-3.1 -3.4,-6.2 -5.1,-9.4 l -5.4,8.5 c -0.9,1.4 -1.8,2.9 -2.6,4.3 l -2.5,4.4 c -7.4,0.8 -15,1.8 -22.4,3 5.6,5.2 11.2,10.2 16.9,15 l -0.4,5 -0.2,5.1 -0.4,10 c 6.4,-3.4 12.7,-6.6 19,-9.6 7.1,2.8 14.3,5.5 21.4,8.1 -0.5,-1.5 -1.1,-3 -1.6,-4.5 l -1.4,-4.5 -2.7,-9.2 c 2.3,-2.1 4.9,-4.1 7.4,-6.1 2.6,-2 5,-4 7.5,-5.8 z"
           id="path61"
           inkscape:connector-curvature="0" /><path
           d="m 239.6,292.7 c -0.9,-0.6 -2.3,-0.4 -2.9,0.5 -0.6,1 -0.4,2.3 0.6,2.9 l 70.7,47 c 1,0.6 2.1,0.6 2.6,-0.2 0.5,-0.7 0.1,-1.8 -0.8,-2.5 l -70.2,-47.7 z"
           id="path63"
           inkscape:connector-curvature="0" /><path
           d="m 339.3,304.2 c 0.8,0.8 2,0.9 2.6,0.3 0.6,-0.6 0.4,-1.8 -0.4,-2.6 l -60.6,-59.5 c -0.8,-0.8 -2.1,-0.8 -2.9,0.1 -0.8,0.8 -0.8,2.2 0.1,3 l 61.2,58.7 z"
           id="path65"
           inkscape:connector-curvature="0" /><path
           d="m 322.8,323 c 0.9,0.7 2.1,0.7 2.6,0.1 0.5,-0.7 0.3,-1.8 -0.6,-2.6 l -92.9,-76.2 c -0.9,-0.7 -2.2,-0.5 -3,0.5 -0.8,1 -0.7,2.4 0.2,3.1 l 93.7,75.1 z"
           id="path67"
           inkscape:connector-curvature="0" /><path
           d="m 321.9,245.9 c 4.2,6.4 8.4,12.7 12.7,19 2.2,-6.3 4.4,-12.9 7.1,-19.2 l 10.2,-1.5 10.2,-1 c -5.1,-5.6 -10.3,-11.2 -15.6,-16.8 0.8,-7.2 1.7,-14.8 3.1,-22 -1.7,0.7 -3.4,1.4 -5.1,2.1 l -5,2.4 -10,4.8 c -6.8,-3.3 -13.7,-6.5 -20.7,-9.6 1.4,7.6 2.8,14.9 4.6,22.4 l -7,8.6 -1.7,2.1 -1.6,2.2 -3.3,4.4 c 3.7,0.2 7.4,0.5 11.1,0.8 3.6,0.4 7.3,0.8 11,1.3 z"
           id="path69"
           inkscape:connector-curvature="0" /><path
           d="m 422.7,185.3 c 1.7,7.4 3.6,14.9 5.4,22.2 l 3.2,-4 c 1.1,-1.3 2.1,-2.7 3.3,-3.9 l 6.8,-7.7 5,1 c 1.7,0.4 3.4,0.8 5,1.2 l 9.9,2.5 c -2.9,-7 -5.8,-14.1 -8.8,-21.1 1.6,-3.3 3.3,-6.7 5.1,-9.9 1.8,-3.2 3.6,-6.4 5.5,-9.7 -3.7,0.2 -7.4,0.3 -11,0.7 l -11,1.1 c -2.6,-2.8 -5.3,-5.5 -8,-8.3 -2.7,-2.7 -5.4,-5.3 -8.2,-8 -1.3,7.6 -2.5,15.1 -3.4,22.6 -1.6,0.9 -3.2,1.9 -4.8,2.8 l -4.7,2.9 -4.7,2.9 -2.3,1.4 -2.3,1.6 c 3.4,1.4 6.8,3 10.2,4.6 3.2,1.9 6.5,3.5 9.8,5.1 z"
           id="path71"
           inkscape:connector-curvature="0" /><path
           d="m 412.2,224.1 c 1.7,-6.7 3.6,-13.6 5.7,-20.5 -3.3,0.7 -6.5,1.5 -9.8,2.3 -3.3,0.8 -6.6,1.5 -9.8,2.5 -5.8,-4.6 -11.8,-9.2 -17.9,-13.7 0.2,7.4 0.7,15.1 1.3,22.5 -2.6,2.2 -5.1,4.4 -7.6,6.6 l -7.3,7 c 3.5,1 6.9,2.1 10.2,3.2 l 5,1.7 c 1.7,0.6 3.3,1.2 5,1.8 3.1,7 6.2,13.9 9.4,20.8 l 4.3,-8.3 c 1.5,-2.8 2.9,-5.7 4.6,-8.4 l 9.5,0.8 c 1.6,0.2 3.1,0.3 4.7,0.5 l 4.7,0.7 c -3.9,-6.6 -7.9,-13.1 -12,-19.5 z"
           id="path73"
           inkscape:connector-curvature="0" /><path
           d="m 486.2,223.2 c 0.2,1.1 1.1,1.9 2,1.8 0.9,-0.1 1.4,-1.2 1.2,-2.3 l -15.8,-83.4 c -0.2,-1.1 -1.3,-1.9 -2.4,-1.7 -1.1,0.2 -1.9,1.3 -1.6,2.4 l 16.6,83.2 z"
           id="path75"
           inkscape:connector-curvature="0" /><path
           d="m 536.3,130.9 c -1.2,0 -2.1,1 -2,2.1 l 1.7,84.9 c 0,1.2 0.8,2.1 1.6,2 0.9,0 1.6,-1 1.6,-2.1 l -0.8,-84.9 c 0,-1.1 -1,-2.1 -2.1,-2 z"
           id="path77"
           inkscape:connector-curvature="0" /><path
           d="m 512.7,221.3 c 0.9,-0.1 1.5,-1.1 1.4,-2.2 L 502.4,99.5 c -0.1,-1.1 -1.2,-2 -2.5,-1.9 -1.3,0.2 -2.2,1.2 -2,2.4 L 511,219.5 c 0.1,1.1 0.9,1.9 1.7,1.8 z"
           id="path79"
           inkscape:connector-curvature="0" /><path
           d="m 569.7,182.3 4.7,-2.2 4.7,-2 c 5.6,4.2 11,8.1 16.2,12.6 0.4,-7.6 0.6,-15.2 0.8,-22.9 5.7,-4.5 11.6,-9.1 17.8,-13.4 -3.4,-1.4 -6.9,-2.6 -10.3,-3.9 l -5.2,-1.9 -2.6,-0.9 -2.6,-0.8 c -2.4,-7.1 -5.1,-14.3 -7.9,-21.5 -2.2,3.1 -4.3,6.3 -6.4,9.4 -2.1,3.2 -4.1,6.5 -6.1,9.7 l -11,1.1 c -3.7,0.4 -7.3,1 -10.9,1.6 2.5,2.8 4.9,5.6 7.3,8.4 2.4,2.8 4.7,5.8 6.9,8.7 -1.5,7.5 -3,14.9 -4.4,22.4 l 9,-4.4 z"
           id="path81"
           inkscape:connector-curvature="0" /><path
           d="m 687.5,210.7 5.6,8.6 5.2,8.8 c 3,-7 5.9,-14.1 8.7,-21.1 6.9,-2.3 14.1,-4.6 21.3,-6.4 -1.4,-1.2 -2.7,-2.5 -4.1,-3.7 l -4.2,-3.5 -8.5,-7.1 c 0.2,-7.5 0.2,-15.1 0,-22.8 -6.3,4.4 -12.4,8.8 -18.4,13.6 -7.2,-1.8 -14.3,-3.8 -21.5,-5.1 1.4,3.5 2.7,6.9 4,10.4 1.2,3.5 2.4,7.1 3.5,10.6 -4,6.5 -8,13 -11.9,19.5 6.5,-0.9 13.4,-1.6 20.3,-1.8 z"
           id="path83"
           inkscape:connector-curvature="0" /><path
           d="m 633.1,227.6 c 2,2.5 3.9,4.9 5.8,7.4 1.8,-7.4 3.6,-14.8 5.2,-22.2 3,-1.9 6,-3.6 9.1,-5.3 3.1,-1.7 6.2,-3.4 9.4,-5.1 l -8.5,-5.4 c -1.4,-0.9 -2.9,-1.8 -4.3,-2.6 l -4.4,-2.5 c -0.8,-7.4 -1.8,-15 -3,-22.4 -5.2,5.6 -10.2,11.2 -15,16.9 l -5,-0.4 -5.1,-0.2 -10.1,-0.4 c 3.4,6.4 6.6,12.7 9.6,19 -2.8,7.1 -5.5,14.3 -8.1,21.4 1.5,-0.5 3,-1.1 4.5,-1.6 l 4.5,-1.4 9.2,-2.7 c 2.3,2.5 4.2,5.1 6.2,7.5 z"
           id="path85"
           inkscape:connector-curvature="0" /><path
           d="m 697.3,267.1 c 0.7,0.5 1.8,0.1 2.5,-0.8 l 47.8,-70.1 c 0.6,-0.9 0.4,-2.3 -0.5,-2.9 -1,-0.6 -2.3,-0.4 -2.9,0.6 l -47,70.7 c -0.7,0.9 -0.7,2.1 0.1,2.5 z"
           id="path87"
           inkscape:connector-curvature="0" /><path
           d="m 794.9,234.6 -58.8,61.3 c -0.8,0.8 -0.9,2 -0.3,2.6 0.6,0.6 1.8,0.4 2.6,-0.4 l 59.5,-60.6 c 0.8,-0.8 0.8,-2.1 -0.1,-2.9 -0.8,-0.8 -2.1,-0.8 -2.9,0 z"
           id="path89"
           inkscape:connector-curvature="0" /><path
           d="m 795.6,185.4 c -1,-0.8 -2.4,-0.7 -3.1,0.2 l -75.2,93.7 c -0.7,0.9 -0.7,2.1 -0.1,2.6 0.7,0.5 1.8,0.3 2.6,-0.6 L 796,188.4 c 0.8,-0.8 0.6,-2.2 -0.4,-3 z"
           id="path91"
           inkscape:connector-curvature="0" /><path
           d="m 795.7,267.4 c -0.4,3.7 -0.8,7.4 -1.2,11 -6.4,4.2 -12.7,8.4 -19,12.7 6.3,2.2 12.9,4.4 19.2,7.1 l 1.5,10.2 1,10.2 c 5.6,-5.1 11.2,-10.3 16.8,-15.6 7.2,0.8 14.8,1.7 22,3.1 -0.7,-1.7 -1.4,-3.4 -2.1,-5.1 l -2.4,-5 -4.8,-10 c 3.3,-6.8 6.5,-13.7 9.6,-20.7 -7.6,1.4 -14.9,2.8 -22.4,4.6 l -8.6,-7 -2.1,-1.7 -2.2,-1.6 -4.4,-3.3 c -0.4,3.8 -0.7,7.5 -0.9,11.1 z"
           id="path93"
           inkscape:connector-curvature="0" /><path
           d="m 836.7,387.9 c 1.3,1.1 2.7,2.1 3.9,3.3 l 7.7,6.8 -1,5 c -0.4,1.7 -0.8,3.4 -1.2,5 l -2.5,9.9 c 7,-2.9 14.1,-5.8 21.1,-8.8 3.3,1.6 6.7,3.3 9.9,5.1 3.2,1.8 6.4,3.6 9.7,5.5 -0.2,-3.7 -0.3,-7.4 -0.7,-11 l -1.1,-11 c 2.8,-2.6 5.5,-5.3 8.3,-8 2.7,-2.7 5.3,-5.4 8,-8.2 -7.6,-1.3 -15.1,-2.5 -22.6,-3.4 -0.9,-1.6 -1.9,-3.2 -2.8,-4.8 l -2.9,-4.7 -2.9,-4.7 -1.4,-2.3 -1.6,-2.3 c -1.4,3.4 -3,6.8 -4.6,10.2 -1.6,3.4 -3.2,6.7 -4.9,9.9 -7.4,1.7 -14.8,3.6 -22.2,5.4 l 3.8,3.1 z"
           id="path95"
           inkscape:connector-curvature="0" /><path
           d="m 823.1,338.4 c -2.2,-2.6 -4.4,-5.1 -6.6,-7.6 l -7,-7.3 c -1,3.5 -2.1,6.9 -3.2,10.2 l -1.7,5 c -0.6,1.7 -1.2,3.3 -1.8,5 -7,3.1 -13.9,6.2 -20.8,9.4 l 8.3,4.3 c 2.8,1.5 5.7,2.9 8.4,4.6 l -0.8,9.5 c -0.2,1.6 -0.3,3.1 -0.5,4.7 l -0.7,4.7 c 6.5,-3.9 13,-8 19.5,-12 6.7,1.7 13.6,3.6 20.5,5.7 -0.7,-3.3 -1.5,-6.5 -2.3,-9.8 -0.8,-3.3 -1.5,-6.6 -2.5,-9.8 4.6,-5.8 9.2,-11.8 13.7,-17.9 -7.4,0.2 -15.1,0.7 -22.5,1.3 z"
           id="path97"
           inkscape:connector-curvature="0" /><path
           d="m 815.3,444.8 c 0.2,0.9 1.2,1.4 2.3,1.2 L 901,430.2 c 1.1,-0.2 1.9,-1.3 1.7,-2.4 -0.2,-1.1 -1.3,-1.9 -2.4,-1.6 l -83.2,16.7 c -1.2,0.2 -2,1 -1.8,1.9 z"
           id="path99"
           inkscape:connector-curvature="0" /><path
           d="m 907.4,495 c 1.2,0 2.1,-1 2,-2.1 0,-1.2 -1,-2.1 -2.1,-2 l -84.9,1.7 c -1.2,0 -2.1,0.8 -2,1.6 0.1,0.8 1,1.6 2.1,1.6 l 84.9,-0.8 z"
           id="path101"
           inkscape:connector-curvature="0" /><path
           d="m 942.7,456.5 c -0.2,-1.3 -1.2,-2.2 -2.4,-2 l -119.5,13.1 c -1.1,0.1 -2,0.9 -1.9,1.8 0.1,0.9 1.1,1.5 2.2,1.4 L 940.8,459 c 1.1,-0.1 2,-1.2 1.9,-2.5 z"
           id="path103"
           inkscape:connector-curvature="0" /></g></g></switch></svg>