<?xml version="1.0" encoding="UTF-8" standalone="no"?>
<svg
   xmlns:dc="http://purl.org/dc/elements/1.1/"
   xmlns:cc="http://creativecommons.org/ns#"
   xmlns:rdf="http://www.w3.org/1999/02/22-rdf-syntax-ns#"
   xmlns:svg="http://www.w3.org/2000/svg"
   xmlns="http://www.w3.org/2000/svg"
   xmlns:sodipodi="http://sodipodi.sourceforge.net/DTD/sodipodi-0.dtd"
   xmlns:inkscape="http://www.inkscape.org/namespaces/inkscape"
   version="1.1"
   id="Layer_1"
   x="0px"
   y="0px"
   viewBox="0 0 1000 1000"
   width="100%"
   height="100%"
   style="enable-background:new 0 0 1000 1000;"
   xml:space="preserve"
  ><switch
     id="switch3"
     transform="translate(23.75,5.3)"><g
       id="g5"><g
         id="g7"><path
           d="m 813,536 c 1.5,-6.3 2.4,-12.7 3.4,-19.2 -5.6,3.4 -11.1,6.6 -16.6,9.6 -5,-4.1 -10,-7.9 -15,-11.6 0.1,5.9 0.3,11.9 0,17.8 -6.1,1.8 -12.2,3.4 -18.3,5 l 4.1,2.4 4,2.5 c 2.7,1.7 5.3,3.4 8,5.1 l -2.4,8.6 c -0.8,2.8 -1.8,5.6 -2.7,8.4 3,-1 5.9,-2.1 8.9,-3.3 l 4.5,-1.7 4.4,-1.8 3.4,3.4 3.3,3.5 c 2.2,2.3 4.3,4.7 6.5,7.1 0.4,-3.2 1,-6.4 1.3,-9.6 l 0.9,-9.7 c 3.1,-0.9 6.2,-1.8 9.4,-2.7 l 4.7,-1.4 4.6,-1.5 C 823.9,543 818.5,539.5 813,536 Z"
           id="path9"
           inkscape:connector-curvature="0" /><polygon
           points="832.3,574.4 831.4,580.6 825.7,581.9 830.2,585.8 828,591.6 833.6,589.4 837.2,594.2 838.4,587.9 844.1,586.5 839.7,582.6 841.6,576.5 836.1,579 "
           id="polygon11" /><path
           d="m 854.6,518.6 -5,-3 c 0.4,-2.1 0.5,-4.2 0.7,-6.3 l -4.8,3.4 -4.6,-3.8 c 0.1,2.1 0.3,4.2 0.2,6.2 l -5.4,2.3 5,3 -1,6.2 5,-3.2 4.4,4 0,-6.4 5.5,-2.4 z"
           id="path13"
           inkscape:connector-curvature="0" /><path
           d="m 785.7,594.7 c -5.1,-1.6 -10.4,0.9 -12,5.5 -0.4,1.2 -0.5,2.4 -0.4,3.6 0.1,1.2 0.4,2.3 0.9,3.4 1,2.1 2.9,4 5.4,4.9 2.5,1 5.1,0.9 7.3,-0.1 1.1,-0.5 2.2,-1.2 3,-2.1 0.9,-0.9 1.5,-2 1.9,-3.2 1.7,-5.1 -1.1,-10.4 -6.1,-12 z"
           id="path15"
           inkscape:connector-curvature="0" /><path
           d="m 781.1,662.8 c -1.8,-2.6 -3.7,-5.2 -5.7,-7.8 l 5.1,-8.2 2.6,-4.1 2.4,-4.2 c -3.2,0.6 -6.3,1.1 -9.5,1.6 -3.2,0.5 -6.4,0.9 -9.6,1.3 -1.6,-2.8 -3.1,-5.5 -4.7,-8.2 -1.6,-2.7 -3.3,-5.4 -5,-8.1 l -1.5,4.2 -1.7,4.1 -3.3,8.3 c -3.1,-0.2 -6.3,-0.6 -9.5,-0.9 -3.2,-0.4 -6.3,-0.7 -9.4,-1.1 3.9,4.9 7.7,10 11.5,15.2 -1.7,2.4 -3.6,4.7 -5.4,7.1 -1.8,2.3 -3.6,4.7 -5.5,7 6.3,0.2 12.5,0.1 18.9,0 2.5,5.8 5.1,11.8 7.3,17.9 1.6,-2.8 3.1,-5.7 4.6,-8.6 1.5,-2.9 3.1,-5.7 4.5,-8.6 6.4,0.6 12.8,1.1 19.3,1.5 -1.7,-3.1 -3.5,-5.8 -5.4,-8.4 z"
           id="path17"
           inkscape:connector-curvature="0" /><path
           d="m 781.4,703.3 c -0.6,-1.9 -1.2,-3.7 -1.9,-5.6 -1,1.8 -2.1,3.6 -3.2,5.4 l -5.8,-0.9 2.7,5.2 -4,4.8 5.9,-0.1 1.7,5.8 3.3,-5.5 5.8,0.8 -2.7,-5.2 c 1.3,-1.7 2.8,-3.3 4,-5 -1.8,0.1 -3.9,0.2 -5.8,0.3 z"
           id="path19"
           inkscape:connector-curvature="0" /><path
           d="m 819.9,643.4 -5.8,1.4 -2.9,-5.2 -2.1,5.9 -5.8,0.2 3.7,4.6 -1.5,2.7 -1.6,2.7 c 2,-0.4 3.9,-0.7 5.9,-1.1 0.9,1.8 1.8,3.5 2.6,5.3 l 1.2,-3 1.1,-3 5.9,-0.3 -3.6,-4.7 2.9,-5.5 z"
           id="path21"
           inkscape:connector-curvature="0" /><path
           d="m 729.9,713 c 1.7,-2 2.5,-4.5 2.2,-6.9 -0.3,-2.4 -1.5,-4.8 -3.5,-6.4 -2.1,-1.7 -4.5,-2.4 -6.9,-2.2 -2.4,0.1 -4.7,1.1 -6.3,3 -3.2,3.7 -2.7,9.7 1.2,13.2 3.9,3.6 9.8,3.2 13.3,-0.7 z"
           id="path23"
           inkscape:connector-curvature="0" /><path
           d="m 690.7,717.4 -5.8,6.7 -6.2,6.4 c -5.7,-2.8 -11.3,-5.6 -16.8,-8.6 1.8,6 3.5,12.1 5.1,18.2 -4.9,3.3 -10.1,6.2 -15.2,9.2 5.8,2.4 11.7,4.7 17.7,6.9 0.3,6.3 0.4,12.7 0.3,19.2 5,-4.2 10,-8.3 14.7,-12.8 5.7,2.9 11.6,5.7 17.6,8.5 -1.4,-6.3 -3.1,-12.7 -4.8,-18.9 l 7.9,-5.7 7.6,-6.1 c -6.4,-1.3 -12.6,-2.6 -18.7,-4.1 -1,-6.5 -2.2,-12.8 -3.4,-18.9 z"
           id="path25"
           inkscape:connector-curvature="0" /><polygon
           points="680.8,797.4 675.7,794.5 676.4,800.3 670.9,803.3 676.4,805.3 675.9,811.3 681,807.4 686.2,810.3 685.6,804.5 691.1,801.2 685.4,799.4 685.6,793.4 "
           id="polygon27" /><path
           d="m 737,756.7 c -0.2,-1.9 -0.6,-4 -0.8,-5.9 -1.3,1.6 -2.7,3.2 -4.1,4.7 l -5.6,-1.9 1.7,5.6 -4.8,3.9 5.8,1 0.6,6 4.3,-4.8 5.6,1.9 -1.7,-5.6 c 1.7,-1.3 3.3,-2.7 4.9,-4.1 -2,-0.3 -3.9,-0.5 -5.9,-0.8 z"
           id="path29"
           inkscape:connector-curvature="0" /><path
           d="m 631.8,772.4 c -2.3,-0.7 -4.7,-0.4 -6.9,0.6 -4.4,2.2 -6,7.9 -3.7,12.7 2.3,4.8 8.1,6.7 12.8,4.3 2.4,-1.1 3.9,-3.4 4.5,-5.7 0.6,-2.4 0.3,-5 -1,-7.3 -1.3,-2.4 -3.4,-3.9 -5.7,-4.6 z"
           id="path31"
           inkscape:connector-curvature="0" /><path
           d="m 595.8,779.9 -7.9,4 -4,2 c -1.3,0.7 -2.7,1.2 -4,1.8 -4.3,-4.7 -8.5,-9.4 -12.6,-14.2 -0.2,3.2 -0.5,6.3 -0.8,9.5 -0.3,3.2 -0.6,6.3 -1,9.4 -5.9,1 -11.6,2.3 -17.5,3 2.3,2.2 4.6,4.4 6.9,6.6 2.3,2.2 4.7,4.2 7.1,6.3 -1,3 -2.1,6.1 -3.2,9.1 -1.1,3 -2.3,6 -3.5,8.9 6.2,-1.9 12.3,-4.3 18.3,-6.6 2.2,2.4 4.4,4.9 6.6,7.2 2.2,2.3 4.4,4.7 6.7,7 0.9,-6.5 1.7,-12.9 2.4,-19.3 1.6,-0.4 3.2,-0.7 4.7,-1.2 l 4.7,-1.4 9.3,-2.8 c -5.5,-3.5 -10.9,-7.1 -16,-10.7 1.5,-6.3 2.7,-12.5 3.8,-18.6 z"
           id="path33"
           inkscape:connector-curvature="0" /><path
           d="m 563.5,848.9 -6,1.9 -3.7,-4.5 -1.5,5.7 c -2.1,0.3 -4.1,0.5 -6.2,0.7 l 4.5,4 -2.7,5.3 c 2.1,-0.5 4.1,-1.1 6.2,-1.7 l 3.8,4.5 1.5,-5.7 6.3,-1 -4.7,-3.8 2.5,-5.4 z"
           id="path35"
           inkscape:connector-curvature="0" /><path
           d="m 626.1,827.3 -5.5,3 c -1.5,-1.2 -3,-2.5 -4.5,-3.7 l -0.4,5.8 -6,1.8 5.1,3.1 -1.6,5.7 5.8,-2.8 4.6,3.8 c 0.2,-2 0.3,-4 0.5,-5.9 l 6,-2.2 -5.2,-2.8 1.2,-5.8 z"
           id="path37"
           inkscape:connector-curvature="0" /><path
           d="m 514.3,807.8 c -2.5,0.3 -4.6,1.7 -6,3.6 -1.5,1.9 -2.3,4.3 -2,7 0.2,2.6 1.5,5 3.4,6.6 1.9,1.6 4.3,2.3 7,2 5.2,-0.7 8.8,-5.5 8,-10.7 -0.8,-5.4 -5.5,-9.1 -10.4,-8.5 z"
           id="path39"
           inkscape:connector-curvature="0" /><path
           d="m 479.9,827.6 c -1.8,-2.6 -3.6,-5.2 -5.4,-7.9 1.8,-2.6 3.5,-5.3 5.2,-8 1.7,-2.7 3.4,-5.4 5,-8.1 -2.9,0.3 -5.9,0.7 -8.8,1 l -8.9,0.6 c -2.3,-5.9 -4.6,-11.7 -6.6,-17.7 -2.7,5.6 -5.5,11.3 -8.5,16.9 l -4.4,-0.7 c -1.5,-0.3 -2.9,-0.5 -4.4,-0.8 l -8.7,-1.9 c 2.6,5.7 5.4,11.4 8.4,17.1 -4.1,4.8 -8.3,9.6 -12.7,14.4 l 9.7,0.4 c 1.6,0.1 3.2,0 4.9,0 l 4.9,0 c 2.3,6 4.7,12.1 7.3,18.1 3.2,-5.7 6.3,-11.5 9.2,-17.2 l 9.7,1.1 c 3.2,0.2 6.5,0.4 9.7,0.6 -1.9,-2.7 -3.8,-5.3 -5.6,-7.9 z"
           id="path41"
           inkscape:connector-curvature="0" /><polygon
           points="418.2,855.4 412.2,853.8 414.9,859.1 410.5,863.1 416.9,863.8 418.7,869.4 422.2,864.6 428.5,865.9 425.5,860.7 429.7,856.5 423.4,856.2 421.6,850.6 "
           id="polygon43" /><path
           d="m 495.8,859 c -2.1,0.3 -4.1,0.5 -6.2,0.7 l -2.8,-5.2 -2.5,5.3 -6.2,-0.3 3.6,4.7 -3.6,4.8 6.4,-0.6 2.9,5.2 2.6,-5.3 c 2.1,0.1 4.3,0.2 6.4,0.3 -1.3,-1.5 -2.6,-3.1 -3.9,-4.6 1,-1.8 2.2,-3.3 3.3,-5 z"
           id="path45"
           inkscape:connector-curvature="0" /><path
           d="m 398.6,800.5 c -4.8,-1.2 -9.8,1.7 -11.3,6.8 -1.5,5.1 1.4,10.5 6.5,11.8 5.1,1.2 10.2,-2.1 11.4,-7.2 1.2,-5.1 -1.8,-10.3 -6.6,-11.4 z"
           id="path47"
           inkscape:connector-curvature="0" /><path
           d="m 355.3,781.1 c 0,-6.4 0.1,-12.8 0.3,-19.1 -4.6,4.3 -9.3,8.6 -14.1,12.9 l -7.5,-4.8 c -2.5,-1.6 -5,-3.1 -7.4,-4.9 l 0.3,4.8 0.4,4.7 c 0.3,3.1 0.6,6.3 1,9.4 -2.8,1.5 -5.6,3.1 -8.5,4.6 l -4.3,2.2 -4.3,2.1 c 2.9,1.4 6,2.6 9,3.8 l 9,3.7 c 0,6.4 0.1,12.8 0.3,19.4 5,-4.1 9.9,-8.3 14.7,-12.6 l 8.7,4.3 c 2.9,1.4 5.8,3 8.8,4.2 l -1.3,-4.6 -1.2,-4.7 c -0.8,-3.1 -1.5,-6.3 -2.2,-9.4 2.6,-1.8 5.2,-3.6 7.7,-5.5 l 3.8,-2.8 3.8,-2.9 c -2.9,-0.6 -5.7,-1.6 -8.5,-2.3 l -8.5,-2.5 z"
           id="path49"
           inkscape:connector-curvature="0" /><path
           d="m 296.4,812.6 0.3,-5.9 -4.9,3.2 c -1.7,-1.2 -3.4,-2.3 -5.1,-3.5 0.2,2 0.4,3.9 0.7,5.9 -1.8,0.7 -3.7,1.5 -5.6,2.2 1.9,1 3.8,1.9 5.8,2.8 l -0.3,5.9 5,-3.2 5.3,3.6 -0.9,-6 5.4,-2.4 -5.7,-2.6 z"
           id="path51"
           inkscape:connector-curvature="0" /><path
           d="m 356.8,839.9 -0.8,-5.8 -4.3,4.1 c -1.9,-0.8 -3.8,-1.8 -5.6,-2.7 l 1.7,5.8 -5.1,3.1 c 2,0.6 4.1,1.3 6.1,1.8 l 0.8,5.8 4.3,-4.1 5.9,2.5 -2,-5.7 4.9,-3.3 -5.9,-1.5 z"
           id="path53"
           inkscape:connector-curvature="0" /><path
           d="m 295.4,764.8 c 2.9,-4.4 2,-10.3 -2,-13.1 -2,-1.4 -4.5,-1.9 -6.9,-1.4 -2.4,0.5 -4.6,1.7 -6.2,3.8 -1.6,2.1 -2.3,4.7 -1.9,7.1 0.4,2.4 1.7,4.6 3.8,6.2 4.4,3 10.3,1.9 13.2,-2.6 z"
           id="path55"
           inkscape:connector-curvature="0" /><path
           d="m 260.1,718 c 2.2,-5.9 4.5,-11.7 7.1,-17.6 -5.8,2.4 -11.7,4.6 -17.7,6.8 l -2.8,-3.5 c -0.9,-1.2 -1.7,-2.4 -2.6,-3.6 l -5.2,-7.2 c -1.8,5.9 -3.6,12 -5.2,18.2 -6.3,0.8 -12.6,1.6 -19.1,2.1 l 7,6.8 c 1.2,1.1 2.3,2.3 3.5,3.4 l 3.6,3.2 c -2.4,6 -4.6,12.1 -6.8,18.3 6.1,-2 12.3,-4.2 18.4,-6.5 l 6.5,7.3 c 2.2,2.4 4.5,4.7 6.8,7 0.3,-3.2 0.7,-6.4 1.1,-9.6 l 0.6,-4.7 0.7,-4.8 4.6,-1.1 4.6,-1.2 c 3.1,-0.8 6.1,-1.7 9.1,-2.6 -2.4,-1.7 -4.8,-3.4 -7.2,-5.2 l -7,-5.5 z"
           id="path57"
           inkscape:connector-curvature="0" /><path
           d="m 193.7,726.2 2.4,-5.4 -5.7,1.2 -3.5,-5.2 -1.5,5.7 -6,0 4.3,4.7 -2.4,5.4 5.7,-1.2 c 1.2,1.8 2.5,3.4 3.8,5.2 l 1.3,-5.8 6,-0.3 c -1.5,-1.4 -3,-2.8 -4.4,-4.3 z"
           id="path59"
           inkscape:connector-curvature="0" /><path
           d="m 241.6,767.7 -5.4,2.2 -4.4,-4.4 -0.4,5.9 -5.9,1.1 5.1,3.8 -1.4,5.7 5.5,-2.2 c 1.5,1.5 3,3.1 4.5,4.5 0,-2 0.1,-4 0.2,-6 1.9,-0.4 3.8,-0.8 5.8,-1.4 -1.7,-1.1 -3.4,-2.4 -5.1,-3.6 l 1.5,-5.6 z"
           id="path61"
           inkscape:connector-curvature="0" /><path
           d="m 212.9,668.3 c -2.7,-4.2 -8.5,-5.3 -13,-2.5 -4.5,2.8 -5.9,8.6 -3,13.1 0.7,1.1 1.6,2 2.6,2.7 1.1,0.7 2.2,1.1 3.4,1.3 2.4,0.4 5,-0.1 7.2,-1.6 2.2,-1.5 3.5,-3.7 4,-6.1 0.2,-1.2 0.3,-2.3 0,-3.5 -0.2,-1.3 -0.6,-2.4 -1.2,-3.4 z"
           id="path63"
           inkscape:connector-curvature="0" /><path
           d="m 203.3,639.9 -4.8,-7.5 c -0.8,-1.3 -1.6,-2.5 -2.4,-3.8 l -2.2,-3.9 c 4.3,-4.7 8.6,-9.4 13,-13.8 -6.4,0.2 -12.6,0.1 -19,0 l -2.5,-8.5 c -0.8,-2.8 -1.4,-5.8 -2.1,-8.6 -2,2.4 -3.9,4.9 -5.9,7.5 l -2.9,3.8 -2.7,3.8 -4.7,-1.1 -4.6,-1.2 c -3.1,-0.8 -6.2,-1.7 -9.3,-2.6 1.3,3 2.5,6 4,8.9 l 4.3,8.7 c -4.4,4.7 -8.8,9.6 -12.9,14.6 6.5,0.3 13,0.5 19.5,0.6 l 1.6,4.6 c 0.6,1.5 1.2,3 1.8,4.5 l 3.7,9 c 3,-5.8 6,-11.4 9.1,-16.9 6.5,0.7 12.8,1.4 19,1.9 z"
           id="path65"
           inkscape:connector-curvature="0" /><polygon
           points="122.6,602.1 117,600 119.3,605.9 115.2,610.1 121,611.1 122.6,617.3 125.9,612.3 131.5,614.2 129.1,608.5 133.2,604.3 127.4,603.4 126.1,597.3 "
           id="polygon67" /><path
           d="m 158.7,664.5 -5.8,0.1 -2.4,-5.8 -2.6,5.4 -5.9,-1.1 3.3,5.5 -3.4,4.9 c 2,0 3.9,0 5.9,-0.1 l 2.7,5.8 2.3,-5.5 5.9,0.8 -3.5,-5.2 c 1.2,-1.6 2.4,-3.2 3.5,-4.8 z"
           id="path69"
           inkscape:connector-curvature="0" /><path
           d="m 163.9,555.8 c -2,-1.3 -4.5,-1.9 -7.1,-1.4 -2.6,0.5 -4.8,1.9 -6.2,4 -0.7,1 -1.2,2.1 -1.5,3.4 -0.2,1.2 -0.2,2.5 0.1,3.8 1.2,5.1 6.3,8.3 11.5,7 5.1,-1.3 8.4,-6.2 7.3,-11 -0.3,-1.2 -0.8,-2.3 -1.5,-3.3 -0.8,-1.1 -1.6,-1.9 -2.6,-2.5 z"
           id="path71"
           inkscape:connector-curvature="0" /><path
           d="m 152.5,522.8 c 2.8,1.5 5.5,3 8.3,4.5 2.9,1.4 5.7,2.9 8.5,4.2 l -1,-4.3 c -0.3,-1.4 -0.5,-2.9 -0.8,-4.4 L 166,514 c 2.8,-1.4 5.6,-2.8 8.5,-4.2 2.9,-1.4 5.8,-2.7 8.7,-4 -5.9,-2.2 -11.8,-4.5 -17.7,-6.9 l 0.3,-4.4 0.5,-4.4 1,-8.8 c -5.4,3.2 -10.7,6.5 -16.1,10 -5.2,-3.6 -10.4,-7.4 -15.6,-11.3 l 0.6,9.7 0.3,4.8 0.5,4.8 c -5.8,2.8 -11.5,5.8 -17.3,8.9 3,1.3 5.9,2.6 8.9,3.9 3,1.3 6,2.5 9,3.7 l -0.1,9.7 c 0,1.6 -0.1,3.3 0,4.9 l 0.2,4.9 c 2.4,-2.2 4.8,-4.3 7.2,-6.3 2.5,-2.1 5.1,-4.2 7.6,-6.2 z"
           id="path73"
           inkscape:connector-curvature="0" /><path
           d="m 102.9,474.9 c -0.3,2.1 -0.5,4.2 -0.7,6.3 l 4.8,-3.4 4.6,3.8 c -0.1,-2.1 -0.2,-4.2 -0.3,-6.2 l 5.4,-2.3 -5,-3 1,-6.2 -5,3.2 -4.4,-4 0,6.4 -5.4,2.4 5,3 z"
           id="path75"
           inkscape:connector-curvature="0" /><path
           d="m 114,541.5 4.9,-3.3 -5.5,-2 c -0.1,-2.1 -0.2,-4.1 -0.2,-6.2 -1.5,1.3 -3,2.7 -4.4,4 -1.7,-1 -3.4,-2.1 -5.1,-3.1 0.3,2.1 0.8,4.2 1.2,6.3 l -4.9,3.3 5.5,2.1 0.3,6.4 4.2,-4.3 5.2,2.9 -1.2,-6.1 z"
           id="path77"
           inkscape:connector-curvature="0" /><path
           d="m 156.7,434.9 c -5.2,-1 -10.2,2.4 -11.1,7.6 -0.8,5.2 3,10 8.3,10.6 5.3,0.6 10,-2.8 10.7,-7.7 0.9,-4.8 -2.7,-9.5 -7.9,-10.5 z"
           id="path79"
           inkscape:connector-curvature="0" /><path
           d="m 138.8,378.5 c 4.6,4.6 9.2,9.1 13.9,13.5 -0.7,1.5 -1.2,3 -1.8,4.5 l -1.7,4.5 c -1.1,3 -2.3,6.1 -3.4,9.1 6.1,-2.3 12.2,-4.4 18.2,-6.3 4.1,4.9 8.2,9.6 12.5,14.2 0.5,-2.9 1.1,-5.8 1.6,-8.7 l 0.8,-4.4 c 0.3,-1.5 0.5,-2.9 0.9,-4.4 6.4,-0.6 12.7,-1.1 19,-1.5 -2.4,-2.1 -4.7,-4.2 -7.1,-6.3 -2.4,-2.1 -4.7,-4.3 -7,-6.5 l 4,-7.9 2,-4 c 0.7,-1.3 1.5,-2.6 2.2,-3.9 -3.1,0.5 -6.3,1 -9.4,1.6 -3.1,0.6 -6.2,1.2 -9.3,1.9 -1.8,-2.6 -3.6,-5.3 -5.4,-8 -1.8,-2.7 -3.4,-5.4 -5.1,-8.2 -0.5,1.5 -1.1,3.1 -1.6,4.6 l -1.4,4.7 -2.8,9.3 c -3.3,0.3 -6.4,0.6 -9.6,0.9 -3,0.5 -6.2,0.9 -9.5,1.3 z"
           id="path81"
           inkscape:connector-curvature="0" /><path
           d="m 132.2,347 5.8,-1.4 2.9,5.2 2.1,-5.9 5.8,-0.2 -3.7,-4.6 c 1,-1.8 2,-3.7 3.1,-5.4 -2,0.4 -3.9,0.7 -5.8,1.2 -0.9,-1.8 -1.8,-3.6 -2.7,-5.3 -0.9,1.9 -1.5,4 -2.3,6 l -5.9,0.3 3.6,4.7 -2.9,5.4 z"
           id="path83"
           inkscape:connector-curvature="0" /><path
           d="m 111.3,411.6 5.4,-2.5 3.8,4.6 0.9,-6.2 5.7,-1.3 c -1.5,-1.3 -3,-2.6 -4.4,-3.9 l 2.2,-5.9 -5.6,2.2 -3.6,-4.8 -1.3,6.3 c -1.9,0.4 -3.8,0.9 -5.7,1.4 l 4.5,3.9 -1.9,6.2 z"
           id="path85"
           inkscape:connector-curvature="0" /><path
           d="m 190.5,339.4 c 4.7,2.5 10.5,1.1 12.9,-3.2 1.2,-2.1 1.4,-4.6 0.8,-7 -0.6,-2.3 -2.1,-4.4 -4.3,-5.8 -2.3,-1.4 -4.9,-1.8 -7.3,-1.3 -2.4,0.6 -4.5,2.1 -5.8,4.4 -2.6,4.7 -1,10.4 3.7,12.9 z"
           id="path87"
           inkscape:connector-curvature="0" /><path
           d="m 224.6,315.1 2.2,-3.8 1.1,-1.9 1.2,-1.9 4.8,-7.5 c 3.1,0.8 6.1,1.7 9.1,2.6 3,0.9 6.1,1.9 9.1,2.9 -2.9,-5.6 -5.7,-11.2 -8.4,-17 1.1,-1 2.1,-2.1 3.2,-3.1 l 3.4,-2.9 6.7,-5.8 c -6.1,-1.3 -12.3,-2.4 -18.6,-3.5 -1.4,-6.2 -2.7,-12.5 -3.9,-18.9 l -6.1,7.6 -3,3.8 c -1,1.3 -1.9,2.6 -2.9,3.9 -6.2,-1.8 -12.4,-3.5 -18.8,-5.1 1.3,3 2.6,5.9 3.9,8.9 1.4,3 2.8,5.9 4.2,8.8 l -6.6,7.1 -1.7,1.8 -1.6,1.9 -3.1,3.7 c 6.5,0.1 12.8,0.2 19.2,0.7 1.9,5.8 4.2,11.9 6.6,17.7 z"
           id="path89"
           inkscape:connector-curvature="0" /><path
           d="m 214.8,233.4 0.9,5.9 c 1.3,-1.6 2.6,-3.2 4,-4.8 l 5.6,1.9 -1.7,-5.6 4.8,-3.9 -5.8,-1 -0.6,-6 -4.3,4.8 -5.6,-1.9 1.7,5.6 c -1.7,1.3 -3.2,2.8 -4.8,4.2 l 5.8,0.8 z"
           id="path91"
           inkscape:connector-curvature="0" /><polygon
           points="177,285.2 182.8,286.1 180,280.9 184,276.1 178.1,276.2 176.5,270.4 173.1,275.9 167.3,275.1 170,280.3 165.9,285.3 171.9,285 173.8,290.6 "
           id="polygon93" /><path
           d="m 267.1,233.4 c -4.2,3.2 -4.6,9.4 -1.1,13.4 3.5,4.1 9.2,4.6 13.1,1.6 3.9,-3 4.4,-9 1.3,-13.2 -3.2,-4.3 -9.1,-5.1 -13.3,-1.8 z"
           id="path95"
           inkscape:connector-curvature="0" /><path
           d="m 320.6,225.5 c 5.1,3.8 10.1,7.7 15,11.6 -0.7,-6.3 -1.3,-12.5 -1.7,-18.8 l 8.2,-3.3 8.4,-2.9 c -5.2,-3.4 -10.6,-6.9 -16.1,-10.1 0.9,-6.3 2,-12.5 3.2,-18.9 l -8.5,4.7 -8.3,5.1 c -5.1,-3.9 -10.4,-7.8 -15.7,-11.5 0.3,6.6 0.7,13 1.3,19.5 -5.9,2.6 -11.6,5.8 -17.4,8.8 6,2.4 11.9,4.9 17.7,7.5 -0.2,6.4 -0.3,12.8 -0.2,19 4.6,-3.6 9.2,-7.4 14.1,-10.7 z"
           id="path97"
           inkscape:connector-curvature="0" /><path
           d="m 325.4,162.4 5.5,-3 4.5,3.7 c 0.1,-2 0.3,-3.9 0.4,-5.8 l 6,-1.8 -5.1,-3.1 1.6,-5.7 -5.7,2.8 c -1.5,-1.3 -3,-2.6 -4.6,-3.8 l -0.4,5.9 -6,2.2 5.3,2.8 -1.5,5.8 z"
           id="path99"
           inkscape:connector-curvature="0" /><path
           d="m 268.2,189.2 -0.2,6 c 1.6,-1.3 3.2,-2.7 4.8,-4 l 5.1,2.9 -0.7,-5.8 5.5,-2.9 -5.6,-2.1 0.5,-6 -5.1,3.9 -5.2,-2.9 0.6,5.8 c -1.9,1 -3.7,2.2 -5.5,3.2 l 5.8,1.9 z"
           id="path101"
           inkscape:connector-curvature="0" /><path
           d="m 387.3,181.9 c -1.4,-5.1 -6.7,-8.1 -11.8,-6.6 -5,1.7 -7.6,7.1 -5.9,12.1 1.8,5 7,7.8 11.6,6.2 4.8,-1.4 7.5,-6.5 6.1,-11.7 z"
           id="path103"
           inkscape:connector-curvature="0" /><path
           d="m 418.3,174.8 c -1.3,2.9 -2.5,5.8 -3.7,8.7 -0.6,1.5 -1.2,2.9 -1.8,4.4 l -1.7,4.5 c 2.8,-1 5.7,-1.7 8.5,-2.5 l 8.6,-2.4 c 3.4,5.4 6.6,10.9 9.8,16.4 1.6,-6.1 3.4,-12.2 5.2,-18.3 3,-0.1 5.9,0.1 8.9,0.1 3,0.1 5.9,0.1 8.9,0.2 -3.6,-5.1 -7.4,-10.1 -11.4,-15.1 3.1,-5.5 6.4,-11.1 9.8,-16.6 -3.2,0.4 -6.4,1 -9.6,1.5 -3.2,0.5 -6.4,1 -9.6,1.6 -3.3,-5.5 -6.8,-10.9 -10.4,-16.3 -2.1,6.2 -4.1,12.3 -5.9,18.4 l -9.7,0.9 c -3.2,0.3 -6.5,0.5 -9.7,1.1 l 3.5,3.3 c 1.2,1.1 2.3,2.3 3.5,3.4 2.3,2.1 4.6,4.4 6.8,6.7 z"
           id="path105"
           inkscape:connector-curvature="0" /><path
           d="m 455.7,130.4 c 2.1,-0.4 4.1,-0.5 6.2,-0.7 l 2.8,5.2 2.5,-5.3 6.2,0.3 -3.6,-4.7 3.6,-4.8 -6.4,0.6 -2.9,-5.2 -2.5,5.3 c -2.1,-0.1 -4.3,-0.3 -6.4,-0.2 1.3,1.5 2.6,3 3.9,4.5 -1.2,1.6 -2.3,3.3 -3.4,5 z"
           id="path107"
           inkscape:connector-curvature="0" /><path
           d="m 390.2,140 6,-1.9 3.7,4.5 1.5,-5.7 c 2.1,-0.3 4.1,-0.5 6.2,-0.7 l -4.4,-4 2.7,-5.3 c -2.1,0.6 -4.1,1 -6.2,1.7 l -3.8,-4.5 -1.5,5.7 -6.3,1 4.6,3.8 -2.5,5.4 z"
           id="path109"
           inkscape:connector-curvature="0" /><path
           d="m 497.7,160.6 c -1.3,-0.1 -2.6,0.1 -3.7,0.5 -1.2,0.4 -2.2,1.1 -3.1,2 -1.8,1.7 -2.9,4.1 -3,6.7 -0.1,2.6 0.9,5.1 2.4,6.9 0.8,0.9 1.7,1.6 2.8,2.1 1,0.6 2.2,0.9 3.4,1 4.9,0.4 9.3,-3.6 9.8,-8.9 0.5,-5.2 -3.3,-9.9 -8.6,-10.3 z"
           id="path111"
           inkscape:connector-curvature="0" /><path
           d="m 557.2,194.4 c 5.5,2.2 11.1,4.1 16.4,6.7 -0.8,-3.1 -1.6,-6.1 -2.4,-9.2 -0.9,-3.1 -1.8,-6 -2.7,-9.1 2.4,-2 5,-4.1 7.5,-6.1 2.5,-1.9 5.1,-3.9 7.7,-5.8 -6.3,-1.7 -12.7,-2.7 -19,-4 -0.6,-3.2 -1.2,-6.4 -1.8,-9.6 -0.7,-3.1 -1.3,-6.3 -2.1,-9.5 -4.2,5 -8.3,10.1 -12.2,15.2 -1.5,-0.5 -3.1,-1 -4.6,-1.5 l -4.7,-1.3 -9.4,-2.5 c 2.8,5.9 5.5,11.7 8,17.5 -4.5,4.6 -8.8,9.2 -12.9,13.8 l 8.8,0.7 4.4,0.4 c 1.5,0.1 2.9,0.4 4.4,0.6 1.2,6.3 2.3,12.5 3.2,18.7 1.8,-2.6 3.7,-5.1 5.6,-7.7 1.9,-2.3 3.9,-4.8 5.8,-7.3 z"
           id="path113"
           inkscape:connector-curvature="0" /><path
           d="m 594.7,149 0.8,5.8 4.2,-4.1 c 1.9,0.8 3.8,1.7 5.7,2.6 l -1.7,-5.8 5,-3.1 c -2,-0.6 -4.1,-1.3 -6.1,-1.8 l -0.8,-5.8 -4.3,4.1 -5.9,-2.5 2,5.7 -4.9,3.4 6,1.5 z"
           id="path115"
           inkscape:connector-curvature="0" /><path
           d="m 530.3,133.2 c 0.6,1.8 1.2,3.7 1.8,5.6 l 3.4,-4.7 6,1.6 -2.7,-5.3 4.4,-4 -6.4,-0.6 -1.9,-5.6 c -1.2,1.5 -2.3,3.2 -3.5,4.8 l -6.3,-1.3 3,5.2 -4.2,4.2 6.4,0.1 z"
           id="path117"
           inkscape:connector-curvature="0" /><path
           d="m 621.2,203.6 c 2.4,-4.7 0.6,-10.6 -4.3,-12.7 -4.8,-2.2 -10.4,0 -12.5,4.9 -2.1,4.9 -0.1,10.5 4.4,12.5 4.6,1.9 10,0 12.4,-4.7 z"
           id="path119"
           inkscape:connector-curvature="0" /><path
           d="m 660.1,243.9 c 2.3,1.9 4.4,4 6.5,6 l 6.4,6.1 c 0.7,-6.2 1.3,-12.4 1.7,-18.8 6,-2 12.2,-3.9 18.5,-5.7 l -8.1,-5.4 c -2.7,-1.8 -5.4,-3.6 -8.2,-5.2 1.2,-6.3 2.3,-12.7 3.3,-19.1 -5.7,3.1 -11.3,6.3 -16.8,9.7 -5.2,-3.9 -10.2,-8 -15.6,-11.6 0.3,3.2 0.5,6.4 0.7,9.6 0.2,3.2 0.3,6.5 0.4,9.6 -2.9,1.3 -5.7,2.6 -8.6,3.9 -2.9,1.4 -5.7,2.8 -8.5,4.3 5.4,2.3 10.6,5.2 15.9,7.9 -1.1,6.2 -2.4,12.5 -3.8,18.6 5.3,-3.3 10.7,-6.6 16.2,-9.9 z"
           id="path121"
           inkscape:connector-curvature="0" /><path
           d="m 710.1,220.8 5.4,-2.2 4.4,4.4 0.4,-5.9 5.9,-1.2 -5.1,-3.8 1.3,-5.8 -5.5,2.2 c -1.5,-1.5 -3,-3 -4.6,-4.5 0,2 -0.1,3.9 -0.2,6 -1.9,0.4 -3.9,0.9 -5.8,1.4 1.8,1.1 3.4,2.4 5.1,3.6 l -1.3,5.8 z"
           id="path123"
           inkscape:connector-curvature="0" /><path
           d="m 657.2,177.2 -0.3,5.8 4.9,-3.2 c 1.7,1.2 3.5,2.3 5.1,3.6 -0.2,-2 -0.4,-4 -0.6,-5.9 1.9,-0.8 3.7,-1.5 5.6,-2.2 -1.9,-1 -3.8,-1.9 -5.7,-2.8 l 0.3,-5.9 -5,3.2 -5.3,-3.6 0.9,6 -5.4,2.4 5.5,2.6 z"
           id="path125"
           inkscape:connector-curvature="0" /><path
           d="m 716.6,275.6 c 3.9,-3.6 4.2,-9.5 0.5,-13.4 -1.8,-1.9 -4.2,-2.9 -6.7,-2.9 -2.5,0.1 -4.9,1.1 -6.8,2.9 -1.9,1.9 -2.8,4.3 -2.8,6.7 0,2.4 0.7,4.8 2.4,6.6 3.5,3.6 9.4,3.7 13.4,0.1 z"
           id="path127"
           inkscape:connector-curvature="0" /><path
           d="m 724,308.1 c 2,2.2 3.9,4.5 5.8,6.7 -3.3,5.4 -6.7,10.7 -10.1,16 6.1,-1.3 12.3,-2.4 18.6,-3.4 l 2,3.9 c 0.7,1.3 1.4,2.6 2,4 l 3.7,8.1 c 2.9,-5.5 5.8,-11.2 8.5,-17 6.3,0.3 12.7,0.8 19.1,1.5 l -5.6,-8 c -0.9,-1.3 -1.9,-2.6 -2.9,-3.9 l -3,-3.9 c 3.4,-5.5 6.8,-11 10.1,-16.7 -6.5,0.9 -12.9,1.9 -19.3,3.1 -1.7,-2.8 -3.2,-5.6 -5,-8.3 l -5.4,-8.1 c -1.8,6.2 -3.8,12.3 -5.8,18.3 -6.4,0.4 -12.8,0.9 -19,1.5 l 6.3,6.2 z"
           id="path129"
           inkscape:connector-curvature="0" /><path
           d="m 793.4,323.7 5.8,-0.1 2.4,5.8 2.6,-5.4 5.9,1.1 -3.3,-5.4 3.4,-4.9 c -1.9,0 -3.9,0.1 -5.9,0.1 l -2.7,-5.8 -2.3,5.5 -5.9,-0.8 3.5,5.2 c -1.3,1.5 -2.4,3.1 -3.5,4.7 z"
           id="path131"
           inkscape:connector-curvature="0" /><path
           d="m 759.6,264 -2.4,5.4 5.7,-1.2 3.5,5.2 1.5,-5.7 6,0 -4.3,-4.7 2.4,-5.4 -5.8,1.1 c -1.2,-1.8 -2.4,-3.5 -3.7,-5.2 l -1.3,5.8 -6,0.3 c 1.6,1.4 3.1,2.8 4.4,4.4 z"
           id="path133"
           inkscape:connector-curvature="0" /><path
           d="m 767.2,372.3 c 1.8,4.6 7.3,6.8 12.2,4.9 5,-1.9 7.4,-7.4 5.5,-12.3 -2.1,-4.8 -7.8,-6.9 -12.6,-4.7 -4.8,2.2 -7.1,7.6 -5.1,12.1 z"
           id="path135"
           inkscape:connector-curvature="0" /><path
           d="m 774.6,410.2 1.6,4.1 c 0.5,1.4 1.1,2.8 1.5,4.2 -5.1,3.9 -10.2,7.6 -15.4,11.2 6.2,1 12.6,2.2 18.7,3.5 l 0.7,8.9 0.4,4.4 c 0.2,1.5 0.1,3 0.2,4.4 4.9,-4.1 9.4,-8.3 14,-12.7 5.8,2.6 11.8,5.3 17.4,8.3 -0.4,-1.6 -0.6,-3.2 -1.1,-4.8 l -1.3,-4.7 -2.5,-9.4 c 5.2,-3.9 10.2,-7.8 15.3,-11.9 -6.3,-1.5 -12.7,-2.9 -18.9,-4.2 -0.2,-1.6 -0.5,-3.2 -0.8,-4.8 l -0.9,-4.8 c -0.6,-3.2 -1.2,-6.4 -1.9,-9.6 -3.9,5.1 -8.1,10.2 -12.2,15 -6.1,-2 -12,-3.8 -18.1,-5.5 1.2,2.8 2.3,5.6 3.3,8.4 z"
           id="path137"
           inkscape:connector-curvature="0" /><path
           d="m 838.4,446.6 -4.9,3.3 5.5,2 c 0.1,2.1 0.2,4.2 0.3,6.2 1.5,-1.3 2.9,-2.7 4.3,-4.1 1.7,1 3.5,2.1 5.1,3.1 -0.4,-2.1 -0.8,-4.2 -1.2,-6.3 l 4.9,-3.3 -5.5,-2 -0.3,-6.4 -4.2,4.3 -5.1,-2.9 1.1,6.1 z"
           id="path139"
           inkscape:connector-curvature="0" /><path
           d="m 825.5,387 1.2,6.1 3.6,-4.8 5.5,2.2 -2.2,-6 c 1.4,-1.4 2.8,-2.8 4.2,-4.2 l -5.9,-1 -1.6,-6.2 -3.3,5 -5.6,-1.9 2.5,5.7 -4.1,4.1 c 1.9,0.3 3.8,0.6 5.7,1 z"
           id="path141"
           inkscape:connector-curvature="0" /><path
           d="m 800.9,476.1 c -2.7,0.2 -4.9,1.3 -6.6,3 -1.7,1.7 -2.7,4 -2.7,6.5 0.1,4.9 4.5,9 9.8,9 5.3,0 9.5,-4.2 9.4,-9.5 -0.1,-2.6 -1.2,-5 -3,-6.6 -1.8,-1.6 -4.3,-2.5 -6.9,-2.4 z"
           id="path143"
           inkscape:connector-curvature="0" /></g></g></switch></svg>