<?xml version="1.0" encoding="UTF-8" standalone="no"?>
<svg
   xmlns:dc="http://purl.org/dc/elements/1.1/"
   xmlns:cc="http://creativecommons.org/ns#"
   xmlns:rdf="http://www.w3.org/1999/02/22-rdf-syntax-ns#"
   xmlns:svg="http://www.w3.org/2000/svg"
   xmlns="http://www.w3.org/2000/svg"
   xmlns:sodipodi="http://sodipodi.sourceforge.net/DTD/sodipodi-0.dtd"
   xmlns:inkscape="http://www.inkscape.org/namespaces/inkscape"
   version="1.1"
   id="Layer_1"
   x="0px"
   y="0px"
   viewBox="0 0 1000 1000"
   width="100%"
   height="100%"
   style="enable-background:new 0 0 1000 1000;"
   xml:space="preserve"
  ><switch
     id="switch3"
     transform="translate(48.65,32.9)"><g
       id="g5"><g
         id="g7"><path
           d="m 809.7,511.8 c 0.6,-2.9 1.3,-5.9 1.8,-8.8 l 1.4,-8.9 c 0.5,-3 1,-6 1.4,-8.9 l 1,-9 c -4.8,3.3 -9.5,6.5 -14.3,9.6 -4.9,3.1 -9.9,6 -14.8,8.8 -4.4,-3.6 -8.9,-7 -13.3,-10.3 -4.5,-3.3 -9.2,-6.5 -13.8,-9.5 l 0.5,7.7 c 0.1,2.6 0.1,5.1 0.2,7.7 l 0.1,7.7 c 0,2.6 -0.1,5.1 -0.2,7.7 -10.9,3.1 -21.5,5.7 -32.5,7.9 4.7,2.8 9.5,5.7 14.2,8.7 4.7,3 9.5,6.1 14,9.3 l -2.4,7.3 -1.2,3.7 -0.6,1.8 -0.7,1.8 -2.8,7.2 -1.4,3.6 -0.7,1.8 -0.8,1.8 c 2.7,-0.7 5.4,-1.4 8,-2.2 2.6,-0.8 5.3,-1.6 8,-2.4 5.3,-1.7 10.7,-3.4 16.1,-5.3 3.7,4.2 7.3,8.6 10.9,13.1 1.8,2.2 3.6,4.5 5.4,6.8 1.8,2.3 3.5,4.7 5.2,7 l 0.5,-2.2 0.4,-2.2 0.9,-4.4 1.8,-8.9 0.4,-2.2 0.3,-2.2 0.7,-4.5 1.3,-8.9 c 5.7,-1.4 11.1,-3 16.7,-4.6 5.6,-1.7 11.1,-3.4 16.7,-5.3 -9.1,-7.2 -18.8,-13.9 -28.4,-20.3 z"
           id="path9"
           inkscape:connector-curvature="0" /><path
           d="m 780.6,620 c -0.7,1.2 -1.5,2.6 -2.3,4 -0.8,1.4 -1.7,2.8 -2.7,4.3 -1.8,3 -3.8,6.3 -5.7,9.5 -1.9,3.2 -4.1,6.4 -6,9.4 -2,3 -3.7,5.8 -5.3,8.2 -3.3,4.7 -5.6,8 -5.8,8.3 -0.1,0.1 -0.6,1.1 -1.5,2.6 -0.9,1.5 -2.2,3.6 -3.7,6 -3.1,4.8 -7.1,11.3 -11.5,17.4 -2.2,3.1 -4.2,6.3 -6.3,9.1 -2.1,2.8 -4,5.5 -5.6,7.8 -1.6,2.3 -2.9,4.3 -3.8,5.8 -0.9,1.4 -1.3,2.3 -1,2.6 0.3,0.3 1.2,-0.2 2.5,-1.2 1.4,-1 3.1,-2.6 5.2,-4.5 2.1,-1.9 4.5,-4.3 7,-6.8 2.5,-2.5 5,-5.5 7.6,-8.3 5.2,-5.7 9.9,-11.8 13.6,-16.5 1.8,-2.3 3.3,-4.3 4.3,-5.8 1,-1.5 1.7,-2.4 1.8,-2.5 0.2,-0.3 2.3,-3.8 5.3,-8.9 1.5,-2.5 3,-5.6 4.7,-8.9 1.6,-3.3 3.5,-6.7 5,-10.2 1.6,-3.5 3.1,-7.1 4.5,-10.4 0.7,-1.7 1.4,-3.2 2,-4.8 0.5,-1.6 1,-3 1.5,-4.4 1.8,-5.4 2.7,-9.2 2.1,-9.4 -0.8,-0.4 -3,2.7 -5.9,7.6 z"
           id="path11"
           inkscape:connector-curvature="0" /><path
           d="m 735.4,655.7 c 0.9,-1.4 1.5,-2.2 1.6,-2.3 0.2,-0.3 2.1,-3.5 4.8,-8.3 1.4,-2.4 2.7,-5.2 4.3,-8.2 1.5,-3 3.2,-6.1 4.6,-9.4 1.4,-3.3 2.8,-6.5 4.1,-9.6 0.6,-1.5 1.2,-3 1.8,-4.4 0.5,-1.4 0.9,-2.8 1.3,-4.1 1.6,-5 2.4,-8.5 1.8,-8.7 -0.6,-0.3 -2.7,2.6 -5.4,7.1 -0.7,1.1 -1.4,2.3 -2.1,3.6 -0.8,1.3 -1.6,2.6 -2.5,4 -1.7,2.8 -3.5,5.7 -5.3,8.7 -1.8,3 -3.8,5.8 -5.6,8.6 -1.8,2.7 -3.4,5.4 -4.9,7.5 -3.1,4.3 -5.2,7.3 -5.3,7.6 -0.1,0.1 -0.6,1 -1.4,2.4 -0.8,1.4 -2,3.3 -3.4,5.5 -2.9,4.5 -6.5,10.4 -10.5,16.1 -2,2.8 -3.8,5.8 -5.8,8.4 -1.9,2.6 -3.7,5.1 -5.1,7.3 -1.5,2.1 -2.6,4 -3.4,5.4 -0.8,1.3 -1.1,2.2 -0.9,2.4 0.2,0.2 1.1,-0.2 2.4,-1 1.3,-0.9 2.9,-2.4 4.9,-4.1 1.9,-1.8 4.2,-3.9 6.5,-6.2 2.4,-2.3 4.6,-5 7,-7.6 4.9,-5.2 9.2,-10.9 12.6,-15.2 1.6,-2.3 3,-4.1 3.9,-5.5 z"
           id="path13"
           inkscape:connector-curvature="0" /><path
           d="m 718.8,610.4 c -1.6,2.7 -3.5,5.3 -5.1,7.8 -1.7,2.5 -3.1,4.9 -4.5,6.8 -2.8,3.9 -4.8,6.7 -4.9,6.9 -0.1,0.1 -0.5,0.9 -1.3,2.2 -0.7,1.3 -1.8,3 -3.1,5.1 -2.6,4.1 -5.9,9.6 -9.5,14.7 -1.8,2.6 -3.5,5.3 -5.2,7.7 -1.7,2.4 -3.3,4.7 -4.6,6.7 -1.3,2 -2.3,3.7 -3.1,4.9 -0.7,1.2 -1,2 -0.8,2.3 0.2,0.3 1.1,-0.1 2.3,-0.9 1.2,-0.8 2.7,-2.1 4.5,-3.7 1.8,-1.6 3.9,-3.5 6,-5.6 2.2,-2.1 4.3,-4.6 6.5,-6.9 4.5,-4.7 8.4,-9.9 11.6,-13.8 1.6,-1.9 2.9,-3.6 3.7,-4.9 0.9,-1.2 1.4,-2 1.5,-2.1 0.2,-0.3 1.9,-3.2 4.4,-7.6 1.3,-2.2 2.5,-4.8 3.9,-7.5 1.3,-2.8 2.9,-5.6 4.2,-8.6 1.2,-3 2.5,-6 3.7,-8.8 0.6,-1.4 1.1,-2.7 1.6,-4.1 0.4,-1.3 0.8,-2.6 1.2,-3.7 1.4,-4.6 2.1,-7.8 1.5,-8.1 -0.6,-0.3 -2.6,2.3 -5.1,6.4 -0.6,1 -1.3,2.1 -2,3.3 -0.7,1.1 -1.5,2.4 -2.3,3.6 -1.8,2.5 -3.4,5.2 -5.1,7.9 z"
           id="path15"
           inkscape:connector-curvature="0" /><path
           d="m 668.6,723.3 c -0.6,-5.7 -1.3,-11.2 -2.2,-16.7 -0.8,-5.5 -1.9,-11.1 -3,-16.5 -1.7,1.9 -3.3,3.9 -5.1,5.8 l -5.3,5.6 c -1.8,1.8 -3.5,3.8 -5.4,5.6 l -5.6,5.3 c -4.9,-2.7 -9.7,-5.5 -14.5,-8.4 -4.8,-2.9 -9.5,-6 -14.1,-9 1.4,5.4 2.7,10.8 3.9,16.3 1.2,5.5 2.2,10.9 3.2,16.4 -4.6,2.4 -9.1,4.8 -13.9,6.8 l -7,3.2 c -2.3,1.1 -4.8,1.9 -7.1,2.9 9.6,5.8 19.4,10.8 29.7,15.7 -0.8,11.2 -1.9,22.9 -3.8,34.2 2.6,-1.6 5.2,-3.1 7.7,-4.8 l 7.5,-5.1 c 5,-3.3 9.8,-7 14.5,-10.7 4.9,2.9 10.1,5.9 15.1,8.6 5.1,2.7 10.3,5.4 15.5,8 -0.7,-5.8 -1.6,-11.6 -2.5,-17.3 -1,-5.7 -2.1,-11.5 -3.2,-17.1 l 7.5,-5 c 2.5,-1.7 4.9,-3.5 7.3,-5.3 l 7.3,-5.4 c 2.4,-1.8 4.7,-3.8 7.1,-5.7 -5.8,-1 -11.3,-2 -17,-3.4 -5.6,-1.1 -11.1,-2.5 -16.6,-4 z"
           id="path17"
           inkscape:connector-curvature="0" /><path
           d="m 576.1,808.1 c -2.8,0.6 -6,1.4 -9.4,2.3 -1.7,0.4 -3.5,0.9 -5.3,1.4 -0.9,0.2 -1.8,0.5 -2.7,0.7 -0.9,0.2 -1.8,0.4 -2.8,0.6 -14.7,3.5 -29.7,6 -30.4,6.2 -0.3,0.1 -4.2,1 -9.8,2.3 -2.8,0.6 -6.1,1.4 -9.5,2.2 -3.5,0.6 -7.2,1.3 -10.9,2 -7.4,1.6 -14.9,2.4 -20.4,3.5 -5.6,1.1 -9.3,1.7 -9.3,2.5 0,0.7 3.8,1.4 9.5,1.5 5.7,0.1 13.4,0.3 21,-0.3 3.8,-0.3 7.7,-0.6 11.3,-0.8 3.6,-0.5 7,-0.9 9.9,-1.3 5.9,-0.8 9.9,-1.4 10.3,-1.5 0.7,-0.2 15.9,-3.9 30.4,-9.3 0.9,-0.3 1.8,-0.6 2.7,-1 0.9,-0.4 1.8,-0.7 2.7,-1.1 1.7,-0.7 3.5,-1.4 5.1,-2.1 3.3,-1.4 6.4,-2.7 9,-4 5.1,-2.6 8.4,-4.7 8.1,-5.3 -0.3,-0.7 -4.1,0.1 -9.5,1.5 z"
           id="path19"
           inkscape:connector-curvature="0" /><path
           d="m 492.6,804.1 c 3.5,-0.2 7.1,-0.5 10.4,-0.7 3.3,-0.4 6.5,-0.8 9.2,-1.2 5.4,-0.7 9.1,-1.2 9.5,-1.4 0.6,-0.2 14.6,-3.6 27.9,-8.7 0.8,-0.3 1.7,-0.6 2.5,-0.9 0.8,-0.3 1.6,-0.7 2.4,-1 1.6,-0.7 3.2,-1.4 4.7,-2 3,-1.3 5.8,-2.6 8.2,-3.7 4.7,-2.5 7.7,-4.4 7.4,-5 -0.3,-0.7 -3.7,0 -8.8,1.3 -2.6,0.5 -5.5,1.2 -8.7,2 -1.6,0.4 -3.2,0.8 -4.9,1.2 -0.8,0.2 -1.7,0.4 -2.5,0.6 -0.8,0.2 -1.7,0.4 -2.5,0.5 -13.5,3.2 -27.3,5.4 -27.9,5.6 -0.3,0.1 -3.9,0.9 -9,2.1 -2.6,0.6 -5.6,1.3 -8.8,2 -3.2,0.6 -6.6,1.3 -10,1.9 -6.8,1.5 -13.7,2.3 -18.8,3.4 -5.1,1.1 -8.6,1.7 -8.5,2.4 0,0.7 3.5,1.4 8.8,1.5 5.3,0.4 12.4,0.7 19.4,0.1 z"
           id="path21"
           inkscape:connector-curvature="0" /><path
           d="m 489.1,775.3 c 3.2,-0.2 6.5,-0.4 9.6,-0.6 3,-0.4 5.9,-0.7 8.4,-1 5,-0.6 8.4,-1.1 8.7,-1.2 0.6,-0.2 13.4,-3.4 25.5,-8.1 l 2.3,-0.8 c 0.7,-0.3 1.5,-0.6 2.2,-0.9 1.5,-0.6 2.9,-1.3 4.3,-1.9 2.8,-1.2 5.3,-2.4 7.5,-3.4 4.3,-2.3 7,-4.1 6.7,-4.8 -0.3,-0.7 -3.4,-0.1 -8,1.1 -2.3,0.5 -5.1,1.1 -7.9,1.8 -1.4,0.4 -2.9,0.7 -4.4,1.1 -0.8,0.2 -1.5,0.4 -2.3,0.6 l -2.3,0.5 c -12.4,2.8 -25,4.8 -25.5,5 -0.3,0.1 -3.5,0.9 -8.2,1.9 -2.4,0.6 -5.1,1.2 -8,1.9 -2.9,0.6 -6,1.2 -9.2,1.8 -6.2,1.4 -12.5,2.2 -17.1,3.2 -4.7,1.1 -7.8,1.6 -7.8,2.4 0,0.7 3.2,1.4 8,1.6 4.6,0 11.1,0.3 17.5,-0.2 z"
           id="path23"
           inkscape:connector-curvature="0" /><path
           d="m 443.6,774.8 -7.7,0.5 c -2.6,0.1 -5.1,0.1 -7.7,0.2 l -7.7,0.1 c -2.6,0 -5.1,-0.1 -7.7,-0.2 -3.1,-10.9 -5.7,-21.5 -7.9,-32.5 -2.8,4.7 -5.7,9.5 -8.7,14.2 -3,4.7 -6.1,9.5 -9.3,14 l -7.3,-2.4 -3.7,-1.2 -1.8,-0.6 -1.8,-0.7 -7.2,-2.8 -3.6,-1.4 -1.8,-0.7 -1.8,-0.8 c 0.7,2.7 1.4,5.4 2.2,8 0.8,2.6 1.6,5.3 2.4,8 1.7,5.3 3.4,10.7 5.3,16.1 -4.2,3.7 -8.6,7.3 -13.1,10.9 -2.2,1.8 -4.5,3.6 -6.8,5.4 -2.3,1.8 -4.7,3.5 -7,5.2 l 2.2,0.5 2.2,0.4 4.4,0.9 8.9,1.8 2.2,0.4 2.2,0.3 4.5,0.7 8.9,1.3 c 1.4,5.7 3,11.1 4.6,16.7 1.7,5.6 3.4,11.1 5.3,16.7 7.1,-9.1 13.9,-18.8 20.2,-28.4 2.9,0.6 5.9,1.3 8.8,1.8 l 8.9,1.4 c 3,0.5 6,1 8.9,1.4 l 9,1 c -3.3,-4.8 -6.5,-9.5 -9.6,-14.3 -3.1,-4.9 -6,-9.9 -8.8,-14.8 3.6,-4.4 7,-8.9 10.3,-13.3 3.4,-4.6 6.6,-9.2 9.6,-13.8 z"
           id="path25"
           inkscape:connector-curvature="0" /><path
           d="m 298.4,796.4 c -1.2,-0.7 -2.6,-1.5 -4,-2.3 -1.4,-0.8 -2.8,-1.7 -4.4,-2.7 -3,-1.8 -6.3,-3.8 -9.5,-5.7 -3.2,-1.9 -6.4,-4.1 -9.4,-6 -3,-2 -5.8,-3.7 -8.2,-5.3 -4.7,-3.3 -8,-5.6 -8.3,-5.8 -0.1,-0.1 -1.1,-0.6 -2.6,-1.5 -1.5,-0.9 -3.6,-2.2 -6,-3.7 -4.8,-3.1 -11.3,-7.1 -17.4,-11.5 -3.1,-2.2 -6.3,-4.2 -9.1,-6.3 -2.8,-2.1 -5.5,-4 -7.8,-5.6 -2.3,-1.6 -4.3,-2.9 -5.8,-3.8 -1.4,-0.9 -2.3,-1.3 -2.6,-1 -0.2,0.3 0.2,1.2 1.2,2.5 1,1.4 2.6,3.1 4.5,5.2 1.9,2.1 4.3,4.5 6.8,7 2.5,2.5 5.5,5 8.3,7.6 5.7,5.2 11.8,9.9 16.5,13.6 2.3,1.8 4.3,3.3 5.8,4.3 1.5,1 2.4,1.7 2.5,1.8 0.3,0.2 3.8,2.3 8.9,5.3 2.5,1.5 5.6,3 8.9,4.7 3.3,1.6 6.7,3.5 10.2,5 3.5,1.6 7.1,3.1 10.4,4.5 1.7,0.7 3.2,1.4 4.8,2 1.6,0.5 3,1 4.4,1.5 5.4,1.8 9.2,2.7 9.4,2.1 0.6,-0.9 -2.6,-3.1 -7.5,-5.9 z"
           id="path27"
           inkscape:connector-curvature="0" /><path
           d="m 310.7,770.1 c -1.1,-0.7 -2.3,-1.4 -3.6,-2.1 -1.3,-0.8 -2.6,-1.6 -4,-2.5 -2.8,-1.7 -5.7,-3.5 -8.7,-5.3 -3,-1.8 -5.8,-3.8 -8.6,-5.6 -2.7,-1.8 -5.4,-3.4 -7.5,-4.9 -4.3,-3.1 -7.3,-5.2 -7.6,-5.3 -0.1,-0.1 -1,-0.6 -2.4,-1.4 -1.4,-0.8 -3.3,-2 -5.5,-3.4 -4.5,-2.9 -10.4,-6.5 -16.1,-10.5 -2.8,-2 -5.8,-3.8 -8.4,-5.8 -2.6,-1.9 -5.1,-3.7 -7.3,-5.1 -2.1,-1.5 -4,-2.6 -5.4,-3.4 -1.3,-0.8 -2.2,-1.1 -2.4,-0.9 -0.2,0.3 0.2,1.1 1,2.4 0.9,1.3 2.3,2.9 4.1,4.9 1.8,1.9 3.9,4.2 6.2,6.5 2.3,2.4 5,4.6 7.6,7 5.2,4.9 10.9,9.2 15.2,12.6 2.1,1.7 4,3.1 5.4,4 1.4,0.9 2.2,1.5 2.3,1.6 0.3,0.2 3.5,2.1 8.3,4.8 2.4,1.4 5.2,2.7 8.2,4.3 3,1.5 6.1,3.2 9.4,4.6 3.3,1.4 6.5,2.8 9.6,4.1 1.5,0.6 3,1.2 4.4,1.8 1.4,0.5 2.8,0.9 4.1,1.3 5,1.6 8.5,2.4 8.7,1.8 0.3,-0.8 -2.6,-2.9 -7,-5.5 z"
           id="path29"
           inkscape:connector-curvature="0" /><path
           d="m 322.9,743.7 c -1,-0.6 -2.1,-1.3 -3.3,-2 -1.1,-0.7 -2.4,-1.5 -3.6,-2.3 -2.5,-1.6 -5.2,-3.3 -7.9,-4.9 -2.7,-1.6 -5.3,-3.5 -7.8,-5.1 -2.5,-1.7 -4.9,-3.1 -6.8,-4.5 -3.9,-2.8 -6.7,-4.8 -6.9,-4.9 -0.1,-0.1 -0.9,-0.5 -2.2,-1.3 -1.3,-0.7 -3,-1.8 -5.1,-3.1 -4.1,-2.6 -9.6,-5.9 -14.7,-9.5 -2.6,-1.8 -5.3,-3.5 -7.7,-5.2 -2.4,-1.7 -4.7,-3.3 -6.7,-4.6 -2,-1.3 -3.7,-2.3 -4.9,-3.1 -1.2,-0.7 -2,-1 -2.3,-0.8 -0.2,0.3 0.1,1.1 0.9,2.3 0.8,1.2 2.1,2.7 3.7,4.5 1.6,1.8 3.5,3.9 5.6,6 2.1,2.2 4.6,4.3 6.9,6.5 4.7,4.5 9.9,8.4 13.8,11.6 1.9,1.6 3.6,2.9 4.9,3.7 1.2,0.9 2,1.4 2.1,1.5 0.3,0.2 3.2,1.9 7.6,4.4 2.2,1.3 4.8,2.5 7.5,3.9 2.8,1.3 5.6,2.9 8.6,4.2 3,1.2 6,2.5 8.8,3.7 1.4,0.6 2.7,1.1 4.1,1.6 1.3,0.4 2.6,0.8 3.7,1.2 4.6,1.4 7.8,2.1 8.1,1.5 0.3,-0.8 -2.4,-2.8 -6.4,-5.3 z"
           id="path31"
           inkscape:connector-curvature="0" /><path
           d="m 228.3,679.2 c -1.9,-1.7 -3.9,-3.3 -5.8,-5.1 l -5.6,-5.3 c -1.8,-1.8 -3.8,-3.5 -5.6,-5.4 l -5.3,-5.6 c 2.7,-4.9 5.5,-9.7 8.4,-14.5 2.9,-4.8 6,-9.5 9,-14.1 -5.4,1.4 -10.8,2.7 -16.3,3.9 -5.5,1.2 -10.9,2.2 -16.4,3.2 -2.4,-4.6 -4.8,-9.1 -6.8,-13.9 l -3.2,-7 c -1.1,-2.3 -1.9,-4.8 -2.9,-7.1 -5.8,9.6 -10.8,19.4 -15.7,29.7 -11.2,-0.8 -22.9,-1.9 -34.2,-3.8 1.6,2.6 3.1,5.2 4.8,7.7 l 5.1,7.5 c 3.3,5 7,9.8 10.7,14.5 -2.9,4.9 -5.9,10.1 -8.6,15.1 -2.7,5.1 -5.4,10.3 -8,15.5 5.8,-0.7 11.6,-1.6 17.3,-2.5 5.7,-1 11.5,-2.1 17.1,-3.2 l 5,7.5 c 1.7,2.5 3.5,4.9 5.3,7.3 l 5.4,7.3 c 1.8,2.4 3.8,4.7 5.7,7.1 1,-5.8 2,-11.3 3.4,-17 1.3,-5.6 2.7,-11.2 4.2,-16.6 5.7,-0.6 11.2,-1.3 16.7,-2.2 5.3,-0.8 10.9,-1.9 16.3,-3 z"
           id="path33"
           inkscape:connector-curvature="0" /><path
           d="m 108,582.4 c -0.4,-1.7 -0.9,-3.5 -1.4,-5.3 -0.2,-0.9 -0.5,-1.8 -0.7,-2.7 -0.2,-0.9 -0.4,-1.8 -0.6,-2.8 -3.5,-14.7 -6,-29.7 -6.2,-30.4 -0.1,-0.3 -1,-4.2 -2.3,-9.8 -0.6,-2.8 -1.4,-6.1 -2.2,-9.5 -0.6,-3.5 -1.3,-7.2 -2,-10.9 -1.6,-7.4 -2.4,-14.9 -3.5,-20.4 -1.1,-5.6 -1.7,-9.3 -2.5,-9.3 -0.7,0 -1.4,3.8 -1.5,9.5 -0.1,5.7 -0.3,13.4 0.3,21 0.3,3.8 0.6,7.7 0.8,11.3 0.5,3.6 0.9,7 1.3,9.9 0.8,5.9 1.4,9.9 1.5,10.3 0.2,0.7 3.9,15.9 9.3,30.4 0.3,0.9 0.6,1.8 1,2.7 0.4,0.9 0.7,1.8 1.1,2.7 0.7,1.7 1.4,3.5 2.1,5.1 1.4,3.3 2.7,6.4 4,9 2.6,5.1 4.7,8.4 5.3,8.1 0.7,-0.3 -0.1,-4 -1.6,-9.5 -0.5,-2.8 -1.3,-6 -2.2,-9.4 z"
           id="path35"
           inkscape:connector-curvature="0" /><path
           d="m 130.1,575 c 1.3,3 2.6,5.8 3.7,8.2 2.5,4.7 4.4,7.7 5,7.4 0.7,-0.3 0,-3.7 -1.3,-8.8 -0.5,-2.6 -1.2,-5.5 -2,-8.7 -0.4,-1.6 -0.8,-3.2 -1.2,-4.9 -0.2,-0.8 -0.4,-1.7 -0.6,-2.5 -0.2,-0.8 -0.4,-1.7 -0.5,-2.5 -3.2,-13.5 -5.4,-27.3 -5.6,-27.9 -0.1,-0.3 -0.9,-3.9 -2.1,-9 -0.6,-2.6 -1.3,-5.6 -2,-8.8 -0.6,-3.2 -1.3,-6.6 -1.9,-10 -1.5,-6.8 -2.3,-13.7 -3.4,-18.8 -1.1,-5.1 -1.7,-8.6 -2.4,-8.5 -0.7,0 -1.4,3.5 -1.5,8.8 -0.1,5.3 -0.4,12.3 0.2,19.4 0.2,3.5 0.5,7.1 0.7,10.4 0.4,3.3 0.8,6.5 1.2,9.2 0.7,5.4 1.2,9.1 1.4,9.5 0.2,0.6 3.6,14.6 8.7,27.9 0.3,0.8 0.6,1.7 0.9,2.5 0.3,0.8 0.7,1.6 1,2.4 0.4,1.6 1.1,3.2 1.7,4.7 z"
           id="path37"
           inkscape:connector-curvature="0" /><path
           d="m 161.9,559.5 c -0.2,-0.8 -0.4,-1.5 -0.6,-2.3 l -0.5,-2.3 c -2.8,-12.4 -4.8,-25 -5,-25.5 -0.1,-0.3 -0.9,-3.5 -1.9,-8.2 -0.6,-2.4 -1.2,-5.1 -1.9,-8 -0.6,-2.9 -1.2,-6 -1.8,-9.2 -1.4,-6.2 -2.2,-12.5 -3.2,-17.1 -1.1,-4.7 -1.6,-7.8 -2.4,-7.8 -0.7,0 -1.4,3.2 -1.6,8 -0.2,4.8 -0.5,11.3 0,17.8 0.2,3.2 0.4,6.5 0.6,9.6 0.4,3 0.7,5.9 1,8.4 0.6,5 1.1,8.4 1.2,8.7 0.2,0.6 3.4,13.4 8.1,25.5 l 0.8,2.3 c 0.3,0.7 0.6,1.5 0.9,2.2 0.6,1.5 1.3,2.9 1.9,4.3 1.2,2.8 2.4,5.3 3.4,7.5 2.3,4.3 4.1,7 4.8,6.7 0.7,-0.3 0.1,-3.4 -1.1,-8 -0.5,-2.3 -1.1,-5.1 -1.8,-7.9 -0.1,-1.7 -0.5,-3.2 -0.9,-4.7 z"
           id="path39"
           inkscape:connector-curvature="0" /><path
           d="m 91.2,431.2 -1.4,8.9 c -0.5,3 -1,6 -1.4,8.9 l -1,9 c 4.8,-3.3 9.5,-6.5 14.3,-9.6 4.9,-3.1 9.9,-6 14.8,-8.8 4.4,3.6 8.9,7 13.3,10.3 4.5,3.3 9.2,6.5 13.8,9.5 l -0.5,-7.7 c -0.1,-2.6 -0.1,-5.1 -0.2,-7.7 l -0.1,-7.7 c 0,-2.6 0.1,-5.1 0.2,-7.7 10.9,-3.1 21.5,-5.7 32.5,-7.9 -4.7,-2.8 -9.5,-5.7 -14.2,-8.7 -4.7,-3 -9.5,-6.1 -14,-9.3 l 2.4,-7.3 1.2,-3.7 0.6,-1.8 0.7,-1.8 2.8,-7.2 1.4,-3.6 0.7,-1.8 0.8,-1.8 c -2.7,0.7 -5.4,1.4 -8,2.2 -2.6,0.8 -5.3,1.6 -8,2.4 -5.3,1.7 -10.7,3.4 -16.1,5.3 -3.7,-4.2 -7.3,-8.6 -10.9,-13.1 -1.8,-2.2 -3.6,-4.5 -5.4,-6.8 -1.8,-2.3 -3.5,-4.7 -5.2,-7 l -0.5,2.2 -0.4,2.2 -0.9,4.4 -1.8,8.9 -0.4,2.2 -0.3,2.2 -0.7,4.5 -1.3,8.9 c -5.7,1.4 -11.1,3 -16.7,4.6 -5.6,1.7 -11.1,3.4 -16.7,5.3 9.1,7.1 18.8,13.9 28.4,20.2 -0.6,3 -1.3,5.9 -1.8,8.9 z"
           id="path41"
           inkscape:connector-curvature="0" /><path
           d="m 122.1,314.2 c 0.7,-1.2 1.5,-2.6 2.3,-4 0.8,-1.4 1.7,-2.8 2.7,-4.4 1.8,-3 3.8,-6.3 5.7,-9.5 1.9,-3.2 4.1,-6.4 6,-9.4 2,-3 3.7,-5.8 5.3,-8.2 3.3,-4.7 5.6,-8 5.8,-8.3 0.1,-0.1 0.6,-1.1 1.5,-2.6 0.9,-1.5 2.2,-3.6 3.7,-6 3.1,-4.8 7.1,-11.3 11.5,-17.4 2.2,-3.1 4.2,-6.3 6.3,-9.1 2.1,-2.8 4,-5.5 5.6,-7.8 1.6,-2.3 2.9,-4.3 3.8,-5.8 0.9,-1.4 1.3,-2.3 1,-2.6 -0.3,-0.2 -1.2,0.2 -2.5,1.2 -1.4,1 -3.1,2.6 -5.2,4.5 -2.1,2 -4.5,4.3 -7,6.8 -2.5,2.5 -5,5.5 -7.6,8.3 -5.2,5.7 -9.9,11.8 -13.6,16.5 -1.8,2.3 -3.3,4.3 -4.3,5.8 -1,1.5 -1.7,2.4 -1.8,2.5 -0.2,0.3 -2.3,3.8 -5.3,8.9 -1.5,2.5 -3,5.6 -4.7,8.9 -1.6,3.3 -3.5,6.7 -5,10.2 -1.6,3.5 -3.1,7.1 -4.5,10.4 -0.7,1.7 -1.4,3.2 -2,4.8 -0.5,1.6 -1,3 -1.5,4.4 -1.8,5.4 -2.7,9.2 -2.1,9.4 0.8,0.5 3,-2.7 5.9,-7.5 z"
           id="path43"
           inkscape:connector-curvature="0" /><path
           d="m 167.3,278.5 c -0.9,1.4 -1.5,2.2 -1.6,2.3 -0.2,0.3 -2.1,3.5 -4.8,8.3 -1.4,2.4 -2.7,5.2 -4.3,8.2 -1.5,3 -3.2,6.1 -4.6,9.4 -1.4,3.3 -2.8,6.5 -4.1,9.6 -0.6,1.5 -1.2,3 -1.8,4.4 -0.5,1.4 -0.9,2.8 -1.3,4.1 -1.6,5 -2.4,8.5 -1.8,8.7 0.6,0.3 2.7,-2.6 5.4,-7.1 0.7,-1.1 1.4,-2.3 2.1,-3.6 0.8,-1.3 1.6,-2.6 2.5,-4 1.7,-2.8 3.5,-5.7 5.3,-8.7 1.8,-3 3.8,-5.8 5.6,-8.6 1.8,-2.7 3.4,-5.4 4.9,-7.5 3.1,-4.3 5.2,-7.3 5.3,-7.6 0.1,-0.1 0.6,-1 1.4,-2.4 0.8,-1.4 2,-3.3 3.4,-5.5 2.9,-4.5 6.5,-10.4 10.5,-16.1 2,-2.8 3.8,-5.8 5.8,-8.4 1.9,-2.6 3.7,-5.1 5.1,-7.3 1.5,-2.1 2.6,-4 3.4,-5.3 0.8,-1.3 1.1,-2.2 0.9,-2.4 -0.3,-0.2 -1.1,0.2 -2.4,1 -1.3,0.9 -2.9,2.4 -4.9,4.1 -1.9,1.8 -4.2,3.9 -6.5,6.2 -2.4,2.3 -4.7,5 -7,7.6 -4.9,5.2 -9.2,10.9 -12.6,15.2 -1.6,2.2 -3,4 -3.9,5.4 z"
           id="path45"
           inkscape:connector-curvature="0" /><path
           d="m 223.7,259.5 c -1.2,0.8 -2.7,2.1 -4.5,3.7 -1.8,1.6 -3.9,3.5 -6,5.6 -2.2,2.1 -4.3,4.6 -6.5,6.9 -4.5,4.7 -8.4,9.9 -11.6,13.8 -1.6,1.9 -2.9,3.6 -3.7,4.9 -0.9,1.2 -1.4,2 -1.5,2.1 -0.2,0.3 -1.9,3.2 -4.4,7.6 -1.3,2.2 -2.5,4.8 -3.9,7.5 -1.3,2.8 -2.9,5.6 -4.2,8.6 -1.2,3 -2.5,6 -3.7,8.8 -0.6,1.4 -1.1,2.7 -1.6,4 -0.4,1.3 -0.8,2.6 -1.2,3.7 -1.4,4.6 -2.1,7.8 -1.5,8.1 0.6,0.3 2.6,-2.3 5.1,-6.4 0.6,-1 1.3,-2.1 2,-3.3 0.7,-1.1 1.5,-2.4 2.3,-3.6 1.6,-2.5 3.3,-5.2 4.9,-7.9 1.6,-2.7 3.5,-5.3 5.1,-7.8 1.7,-2.5 3.1,-4.9 4.5,-6.8 2.8,-3.9 4.8,-6.7 4.9,-6.9 0.1,-0.1 0.5,-0.9 1.3,-2.2 0.7,-1.3 1.8,-3 3.1,-5.1 2.6,-4.1 5.9,-9.6 9.5,-14.7 1.8,-2.6 3.5,-5.3 5.2,-7.7 1.7,-2.4 3.3,-4.7 4.6,-6.7 1.3,-2 2.3,-3.7 3.1,-4.9 0.7,-1.2 1,-2 0.8,-2.3 0,-0.1 -0.8,0.3 -2.1,1 z"
           id="path47"
           inkscape:connector-curvature="0" /><path
           d="m 234,210.9 c 0.6,5.7 1.3,11.2 2.2,16.7 0.8,5.5 1.9,11.1 3,16.5 1.7,-1.9 3.3,-3.9 5.1,-5.8 l 5.3,-5.6 c 1.8,-1.8 3.5,-3.8 5.4,-5.6 l 5.6,-5.3 c 4.9,2.7 9.7,5.5 14.5,8.4 4.8,2.9 9.5,6 14.1,9 -1.4,-5.4 -2.7,-10.8 -3.9,-16.3 -1.2,-5.5 -2.2,-10.9 -3.2,-16.4 4.6,-2.4 9.1,-4.8 13.9,-6.8 l 7,-3.2 c 2.3,-1.1 4.8,-1.9 7.1,-2.9 -9.6,-5.8 -19.4,-10.8 -29.7,-15.7 0.8,-11.2 1.9,-22.9 3.8,-34.2 -2.6,1.6 -5.2,3.1 -7.7,4.8 l -7.5,5.1 c -5,3.3 -9.8,7 -14.5,10.7 -4.9,-2.9 -10.1,-5.9 -15.1,-8.6 -5.1,-2.7 -10.3,-5.4 -15.5,-8 0.7,5.8 1.6,11.6 2.5,17.3 1,5.7 2.1,11.5 3.2,17.1 l -7.5,5 c -2.5,1.7 -4.9,3.5 -7.3,5.3 l -7.3,5.4 c -2.4,1.8 -4.7,3.8 -7.1,5.7 5.8,1 11.3,2 17,3.4 5.7,1.1 11.2,2.5 16.6,4 z"
           id="path49"
           inkscape:connector-curvature="0" /><path
           d="m 326.6,126 c 2.8,-0.6 6,-1.4 9.4,-2.3 1.7,-0.4 3.5,-0.9 5.3,-1.4 0.9,-0.2 1.8,-0.5 2.7,-0.7 0.9,-0.2 1.8,-0.4 2.8,-0.6 14.7,-3.5 29.7,-6 30.4,-6.2 0.3,-0.1 4.2,-1 9.8,-2.3 2.8,-0.6 6.1,-1.4 9.5,-2.2 3.5,-0.6 7.2,-1.3 10.9,-2 7.4,-1.6 14.9,-2.4 20.4,-3.5 5.6,-1.1 9.3,-1.7 9.3,-2.5 0,-0.7 -3.8,-1.4 -9.5,-1.5 -5.7,-0.1 -13.4,-0.3 -21,0.3 -3.8,0.3 -7.7,0.6 -11.3,0.8 -3.6,0.5 -7,0.9 -9.9,1.3 -5.9,0.8 -9.9,1.4 -10.3,1.5 -0.7,0.2 -15.9,3.9 -30.4,9.3 -0.9,0.3 -1.8,0.6 -2.7,1 -0.9,0.4 -1.8,0.7 -2.7,1.1 -1.7,0.7 -3.5,1.4 -5.1,2.1 -3.3,1.4 -6.4,2.7 -9,4 -5.1,2.6 -8.4,4.7 -8.1,5.3 0.3,0.8 4,0 9.5,-1.5 z"
           id="path51"
           inkscape:connector-curvature="0" /><path
           d="m 350.1,150 c 0.8,-0.2 1.7,-0.4 2.5,-0.6 0.8,-0.2 1.7,-0.4 2.5,-0.5 13.5,-3.2 27.3,-5.4 27.9,-5.6 0.3,-0.1 3.9,-0.9 9,-2.1 2.6,-0.6 5.6,-1.3 8.8,-2 3.2,-0.6 6.6,-1.3 10,-1.9 6.8,-1.5 13.7,-2.3 18.8,-3.4 5.1,-1.1 8.6,-1.7 8.5,-2.4 0,-0.7 -3.5,-1.4 -8.8,-1.5 -5.3,-0.1 -12.3,-0.4 -19.4,0.2 -3.5,0.2 -7.1,0.5 -10.4,0.7 -3.3,0.4 -6.5,0.8 -9.2,1.2 -5.4,0.7 -9.1,1.2 -9.5,1.4 -0.6,0.2 -14.6,3.6 -27.9,8.7 -0.8,0.3 -1.7,0.6 -2.5,0.9 -0.8,0.3 -1.6,0.7 -2.4,1 -1.6,0.7 -3.2,1.4 -4.7,2 -3,1.3 -5.8,2.6 -8.2,3.7 -4.7,2.5 -7.7,4.4 -7.4,5 0.3,0.7 3.7,0 8.8,-1.3 2.6,-0.5 5.5,-1.2 8.7,-2 1.6,-0.6 3.3,-1.1 4.9,-1.5 z"
           id="path53"
           inkscape:connector-curvature="0" /><path
           d="m 354.5,178.8 c 1.4,-0.4 2.9,-0.7 4.4,-1.1 0.8,-0.2 1.5,-0.4 2.3,-0.6 l 2.3,-0.5 c 12.4,-2.8 25,-4.8 25.5,-5 0.3,-0.1 3.5,-0.9 8.2,-1.9 2.4,-0.6 5.1,-1.2 8,-1.9 2.9,-0.6 6,-1.2 9.2,-1.8 6.2,-1.4 12.5,-2.2 17.1,-3.2 4.7,-1.1 7.8,-1.6 7.8,-2.4 0,-0.7 -3.2,-1.4 -8,-1.6 -4.8,-0.2 -11.3,-0.5 -17.8,0 -3.2,0.2 -6.5,0.4 -9.6,0.6 -3,0.4 -5.9,0.7 -8.4,1 -5,0.6 -8.4,1.1 -8.7,1.2 -0.6,0.2 -13.4,3.4 -25.5,8.1 l -2.3,0.8 c -0.7,0.3 -1.5,0.6 -2.2,0.9 -1.5,0.6 -2.9,1.3 -4.3,1.9 -2.8,1.2 -5.3,2.4 -7.5,3.4 -4.3,2.3 -7,4.1 -6.7,4.8 0.3,0.7 3.4,0.1 8,-1.1 2.6,-0.3 5.3,-0.9 8.2,-1.6 z"
           id="path55"
           inkscape:connector-curvature="0" /><path
           d="m 459,159.4 7.7,-0.5 c 2.6,-0.1 5.1,-0.1 7.7,-0.2 l 7.7,-0.1 c 2.6,0 5.1,0.1 7.7,0.2 3.1,10.9 5.7,21.5 7.9,32.5 2.8,-4.8 5.7,-9.5 8.7,-14.2 3,-4.7 6.1,-9.5 9.3,-14 l 7.3,2.4 3.7,1.2 1.8,0.6 1.8,0.7 7.2,2.8 3.6,1.4 1.8,0.7 1.8,0.8 c -0.7,-2.7 -1.4,-5.4 -2.2,-8 -0.8,-2.6 -1.6,-5.3 -2.4,-8 -1.7,-5.3 -3.4,-10.7 -5.3,-16.1 4.2,-3.7 8.6,-7.3 13.1,-10.9 2.2,-1.8 4.5,-3.6 6.8,-5.4 2.3,-1.8 4.7,-3.5 7,-5.2 l -2.2,-0.5 -2.2,-0.4 -4.4,-0.9 -8.9,-1.8 -2.2,-0.4 -2.2,-0.3 -4.5,-0.7 -8.9,-1.3 c -1.4,-5.7 -3,-11.1 -4.6,-16.7 -1.7,-5.6 -3.4,-11.1 -5.3,-16.7 -7.1,9.1 -13.9,18.8 -20.2,28.4 -2.9,-0.6 -5.9,-1.3 -8.8,-1.8 l -8.9,-1.4 c -3,-0.5 -6,-1 -8.9,-1.4 l -9,-1 c 3.3,4.8 6.5,9.5 9.6,14.3 3.1,4.9 6,9.9 8.8,14.8 -3.6,4.4 -7,8.9 -10.3,13.3 -3.3,4.5 -6.5,9.2 -9.6,13.8 z"
           id="path57"
           inkscape:connector-curvature="0" /><path
           d="m 604.3,137.8 c 1.2,0.7 2.6,1.5 4,2.3 1.4,0.8 2.8,1.7 4.4,2.7 3,1.8 6.3,3.8 9.5,5.7 3.2,1.9 6.4,4.1 9.4,6 3,2 5.8,3.7 8.2,5.3 4.7,3.3 8,5.6 8.3,5.8 0.1,0.1 1.1,0.6 2.6,1.5 1.5,0.9 3.6,2.2 6,3.7 4.8,3.1 11.3,7.1 17.4,11.5 3.1,2.2 6.3,4.2 9.1,6.3 2.8,2.1 5.5,4 7.8,5.6 2.3,1.6 4.3,2.9 5.8,3.8 1.4,0.9 2.3,1.3 2.6,1 0.2,-0.3 -0.2,-1.2 -1.2,-2.5 -1,-1.4 -2.6,-3.1 -4.5,-5.2 -2,-2.1 -4.3,-4.5 -6.8,-7 -2.5,-2.5 -5.5,-5 -8.3,-7.6 -5.7,-5.2 -11.8,-9.9 -16.5,-13.6 -2.3,-1.8 -4.3,-3.3 -5.8,-4.3 -1.5,-1 -2.4,-1.7 -2.5,-1.8 -0.3,-0.2 -3.8,-2.3 -8.9,-5.3 -2.5,-1.5 -5.6,-3 -8.9,-4.7 -3.3,-1.6 -6.7,-3.5 -10.2,-5 -3.5,-1.6 -7.1,-3.1 -10.4,-4.5 -1.7,-0.7 -3.2,-1.4 -4.8,-2 -1.6,-0.5 -3,-1 -4.4,-1.5 -5.4,-1.8 -9.2,-2.7 -9.4,-2.1 -0.6,0.9 2.6,3 7.5,5.9 z"
           id="path59"
           inkscape:connector-curvature="0" /><path
           d="m 592,164.1 c 1.1,0.7 2.3,1.4 3.6,2.1 1.3,0.8 2.6,1.6 4,2.5 2.8,1.7 5.7,3.5 8.7,5.3 3,1.8 5.8,3.8 8.6,5.6 2.7,1.8 5.4,3.4 7.5,4.9 4.3,3.1 7.3,5.2 7.6,5.3 0.1,0.1 1,0.6 2.4,1.4 1.4,0.8 3.3,2 5.5,3.4 4.5,2.9 10.4,6.5 16.1,10.5 2.8,2 5.8,3.8 8.4,5.8 2.6,1.9 5.1,3.7 7.3,5.1 2.1,1.5 4,2.6 5.4,3.4 1.3,0.8 2.2,1.1 2.4,0.9 0.2,-0.3 -0.2,-1.1 -1,-2.4 -0.9,-1.3 -2.3,-2.9 -4.1,-4.9 -1.8,-1.9 -3.9,-4.2 -6.2,-6.5 -2.3,-2.4 -5,-4.6 -7.6,-7 -5.2,-4.9 -10.9,-9.2 -15.2,-12.6 -2.1,-1.7 -4,-3.1 -5.4,-4 -1.4,-0.9 -2.2,-1.5 -2.3,-1.6 -0.3,-0.2 -3.5,-2.1 -8.3,-4.8 -2.4,-1.4 -5.2,-2.7 -8.2,-4.3 -3,-1.5 -6.1,-3.2 -9.4,-4.6 -3.3,-1.4 -6.5,-2.8 -9.6,-4.1 -1.5,-0.6 -3,-1.2 -4.4,-1.8 -1.4,-0.5 -2.8,-0.9 -4.1,-1.3 -5,-1.6 -8.5,-2.4 -8.7,-1.8 -0.3,0.8 2.6,2.8 7,5.5 z"
           id="path61"
           inkscape:connector-curvature="0" /><path
           d="m 602.4,204.7 c 2.5,1.7 4.9,3.1 6.8,4.5 3.9,2.8 6.7,4.8 6.9,4.9 0.1,0.1 0.9,0.5 2.2,1.3 1.3,0.7 3,1.8 5.1,3.1 4.1,2.6 9.6,5.9 14.7,9.5 2.6,1.8 5.3,3.5 7.7,5.2 2.4,1.7 4.7,3.3 6.7,4.6 2,1.3 3.7,2.3 4.9,3.1 1.2,0.7 2,1 2.3,0.8 0.2,-0.3 -0.1,-1.1 -0.9,-2.3 -0.8,-1.2 -2.1,-2.7 -3.7,-4.5 -1.6,-1.8 -3.5,-3.9 -5.6,-6 -2.1,-2.2 -4.6,-4.3 -6.9,-6.5 -4.7,-4.5 -9.9,-8.4 -13.8,-11.6 -1.9,-1.6 -3.6,-2.9 -4.9,-3.7 -1.2,-0.9 -2,-1.4 -2.1,-1.5 -0.3,-0.2 -3.2,-1.9 -7.6,-4.4 -2.2,-1.3 -4.8,-2.5 -7.5,-3.9 -2.8,-1.3 -5.6,-2.9 -8.6,-4.2 -3,-1.2 -6,-2.5 -8.8,-3.7 -1.4,-0.6 -2.7,-1.1 -4.1,-1.6 -1.3,-0.4 -2.6,-0.8 -3.7,-1.2 -4.6,-1.4 -7.8,-2.1 -8.1,-1.5 -0.3,0.6 2.3,2.6 6.4,5.1 1,0.6 2.1,1.3 3.3,2 1.1,0.7 2.4,1.5 3.6,2.3 2.5,1.6 5.2,3.3 7.9,4.9 2.7,1.8 5.3,3.7 7.8,5.3 z"
           id="path63"
           inkscape:connector-curvature="0" /><path
           d="m 674.4,254.9 c 1.9,1.7 3.9,3.3 5.8,5.1 l 5.6,5.3 c 1.8,1.8 3.8,3.5 5.6,5.4 l 5.3,5.6 c -2.7,4.9 -5.5,9.7 -8.4,14.5 -2.9,4.8 -6,9.5 -9,14.1 5.4,-1.4 10.8,-2.7 16.3,-3.9 5.5,-1.2 10.9,-2.2 16.4,-3.2 2.4,4.6 4.8,9.1 6.8,13.9 l 3.2,7 c 1.1,2.3 1.9,4.8 2.9,7.1 5.8,-9.6 10.8,-19.4 15.7,-29.7 11.2,0.8 22.9,1.9 34.2,3.8 -1.6,-2.6 -3.1,-5.2 -4.8,-7.7 l -5.1,-7.5 c -3.3,-5 -7,-9.8 -10.7,-14.5 2.9,-4.9 5.9,-10.1 8.6,-15.1 2.7,-5.1 5.4,-10.3 8,-15.5 -5.8,0.7 -11.6,1.6 -17.3,2.5 -5.7,1 -11.5,2.1 -17.1,3.2 l -5,-7.5 c -1.7,-2.5 -3.5,-4.9 -5.3,-7.3 l -5.4,-7.3 c -1.8,-2.4 -3.8,-4.7 -5.7,-7.1 -1,5.8 -2,11.3 -3.4,17 -1.3,5.6 -2.7,11.2 -4.2,16.6 -5.7,0.6 -11.2,1.3 -16.7,2.2 -5.3,0.8 -10.9,2 -16.3,3 z"
           id="path65"
           inkscape:connector-curvature="0" /><path
           d="m 794.7,351.8 c 0.4,1.7 0.9,3.5 1.4,5.3 0.2,0.9 0.5,1.8 0.7,2.7 0.2,0.9 0.4,1.8 0.6,2.8 3.5,14.7 6,29.7 6.2,30.4 0.1,0.3 1,4.2 2.3,9.8 0.6,2.8 1.4,6.1 2.2,9.5 0.6,3.5 1.3,7.2 2,10.9 1.6,7.4 2.4,14.9 3.5,20.4 1.1,5.6 1.7,9.3 2.5,9.3 0.7,0 1.4,-3.8 1.5,-9.5 0.1,-5.7 0.3,-13.4 -0.3,-21 -0.3,-3.8 -0.6,-7.7 -0.8,-11.3 -0.5,-3.6 -0.9,-7 -1.3,-9.9 -0.8,-5.9 -1.4,-9.9 -1.5,-10.3 -0.2,-0.7 -3.9,-15.9 -9.3,-30.4 -0.3,-0.9 -0.6,-1.8 -1,-2.7 -0.4,-0.9 -0.7,-1.8 -1.1,-2.7 -0.7,-1.7 -1.4,-3.5 -2.1,-5.1 -1.4,-3.3 -2.7,-6.4 -4,-9 -2.6,-5.1 -4.7,-8.4 -5.3,-8.1 -0.7,0.3 0.1,4 1.6,9.5 0.5,2.7 1.3,5.9 2.2,9.4 z"
           id="path67"
           inkscape:connector-curvature="0" /><path
           d="m 772.5,359.2 c -1.3,-3 -2.6,-5.8 -3.7,-8.2 -2.5,-4.7 -4.4,-7.7 -5,-7.4 -0.7,0.3 0,3.7 1.3,8.8 0.5,2.6 1.2,5.5 2,8.7 0.4,1.6 0.8,3.2 1.2,4.9 0.2,0.8 0.4,1.7 0.6,2.5 0.2,0.8 0.4,1.7 0.5,2.5 3.2,13.5 5.4,27.3 5.6,27.9 0.1,0.3 0.9,3.9 2.1,9 0.6,2.6 1.3,5.6 2,8.8 0.6,3.2 1.3,6.6 1.9,10 1.5,6.8 2.3,13.7 3.4,18.8 1.1,5.1 1.7,8.6 2.4,8.5 0.7,0 1.4,-3.5 1.5,-8.8 0.1,-5.3 0.4,-12.3 -0.2,-19.4 -0.2,-3.5 -0.5,-7.1 -0.7,-10.4 -0.4,-3.3 -0.8,-6.5 -1.2,-9.2 -0.7,-5.4 -1.2,-9.1 -1.4,-9.5 -0.2,-0.6 -3.6,-14.6 -8.7,-27.9 -0.3,-0.8 -0.6,-1.7 -0.9,-2.5 -0.3,-0.8 -0.7,-1.6 -1,-2.4 -0.3,-1.6 -1,-3.2 -1.7,-4.7 z"
           id="path69"
           inkscape:connector-curvature="0" /><path
           d="m 757.9,411.4 c -0.6,-5 -1.1,-8.4 -1.2,-8.7 -0.2,-0.6 -3.4,-13.4 -8.1,-25.5 l -0.8,-2.3 c -0.3,-0.7 -0.6,-1.5 -0.9,-2.2 -0.6,-1.5 -1.3,-2.9 -1.9,-4.3 -1.2,-2.8 -2.4,-5.3 -3.4,-7.5 -2.3,-4.3 -4.1,-7 -4.8,-6.7 -0.7,0.3 -0.1,3.4 1.1,8 0.5,2.3 1.1,5.1 1.8,7.9 0.4,1.4 0.7,2.9 1.1,4.4 0.2,0.8 0.4,1.5 0.6,2.3 l 0.5,2.3 c 2.8,12.4 4.8,25 5,25.5 0.1,0.3 0.9,3.5 1.9,8.2 0.6,2.4 1.2,5.1 1.9,8 0.6,2.9 1.2,6 1.8,9.2 1.4,6.2 2.2,12.5 3.2,17.1 1.1,4.7 1.6,7.8 2.4,7.8 0.7,0 1.4,-3.2 1.6,-8 0.2,-4.8 0.5,-11.3 0,-17.8 -0.2,-3.2 -0.4,-6.5 -0.6,-9.6 -0.5,-2.8 -0.9,-5.7 -1.2,-8.1 z"
           id="path71"
           inkscape:connector-curvature="0" /></g></g></switch></svg>