<?xml version="1.0" encoding="UTF-8" standalone="no"?>
<svg
   xmlns:dc="http://purl.org/dc/elements/1.1/"
   xmlns:cc="http://creativecommons.org/ns#"
   xmlns:rdf="http://www.w3.org/1999/02/22-rdf-syntax-ns#"
   xmlns:svg="http://www.w3.org/2000/svg"
   xmlns="http://www.w3.org/2000/svg"
   xmlns:sodipodi="http://sodipodi.sourceforge.net/DTD/sodipodi-0.dtd"
   xmlns:inkscape="http://www.inkscape.org/namespaces/inkscape"
   version="1.1"
   id="Layer_1"
   x="0px"
   y="0px"
   viewBox="0 0 1000 1000"
   width="100%"
   height="100%"
   style="enable-background:new 0 0 1000 1000;"
   xml:space="preserve"
   ><style
     type="text/css"
     id="style3">
	.st0{fill:#FFFFFF;}
</style><switch
     id="switch5"
     transform="translate(-17.728107,0.05)"><g
       id="g7"><g
         id="g9"><path
           d="m 841.9,500 c -0.1,17.1 -1.4,34 -4,50.9 -1.4,9.2 -3.3,18.3 -5.5,27.3 27.1,7.9 54.2,16 81.1,24.5 8.6,-33.6 12.9,-68.2 13,-102.7 -0.2,-37.4 -5,-75.1 -15.5,-111.3 -26.9,9.1 -53.9,17.8 -81,26.3 7.7,27.4 11.8,55.9 11.9,85 z"
           id="path11"
           inkscape:connector-curvature="0" /><path
           d="m 863.9,717.5 3.2,-5 c 1,-1.7 2,-3.4 3,-5.1 l 5.9,-10.3 c 2,-3.4 3.7,-7 5.5,-10.5 1.8,-3.5 3.6,-7 5.3,-10.6 6.7,-14.4 12.9,-28.9 17.9,-44 -26.3,-10.5 -52.6,-20.6 -79,-30.5 -8.7,26 -20.7,50.7 -35.5,73.5 24.4,14.4 48.9,28.6 73.7,42.5 z"
           id="path13"
           inkscape:connector-curvature="0" /><path
           d="m 652.7,794.6 c 10.8,26.1 21.2,52.4 31.5,78.8 3.9,-1.8 7.9,-3.5 11.8,-5.4 l 11.6,-5.9 c 1.9,-1 3.9,-2 5.8,-3 l 5.6,-3.2 c 3.8,-2.2 7.5,-4.3 11.2,-6.5 l 10.9,-7 5.4,-3.5 5.3,-3.7 10.6,-7.5 10.2,-8 5.5,-4.4 5.3,-4.6 c 3.5,-3.1 7.1,-6.1 10.6,-9.3 l 10.2,-9.7 2.5,-2.4 2.4,-2.5 4.9,-5.1 c 6.6,-6.7 12.6,-13.9 18.7,-21 3,-3.6 5.8,-7.4 8.7,-11 1.4,-1.9 2.9,-3.7 4.3,-5.6 l 4.1,-5.7 c -23.9,-15.4 -47.5,-31 -71,-46.9 -32.5,43.9 -76,79.9 -126.1,103.1 z"
           id="path15"
           inkscape:connector-curvature="0" /><path
           d="m 550.8,822.5 c 4,28 8.2,55.9 12.7,83.8 31.4,-3.5 62.5,-10.7 92.3,-21.4 -8.2,-27 -16.7,-54 -25.4,-80.9 -15.9,5.9 -32.3,10.6 -49.1,14 -10.2,2 -20.4,3.5 -30.5,4.5 z"
           id="path17"
           inkscape:connector-curvature="0" /><path
           d="m 830.6,500 c -0.1,-16.5 -1.2,-32.9 -3.8,-49.2 C 806.5,323.6 707,219.4 580.7,193.4 452.1,166.9 317.4,226.2 249.6,338.5 c -67.8,112.4 -57,260 27,361 83.7,100.8 224.6,139.3 347.9,94.8 C 747.4,749.9 830.1,630.1 830.6,500 Z"
           id="path19"
           inkscape:connector-curvature="0" /><path
           d="m 371.8,788.8 c -13.8,24.8 -27.9,49.6 -42.3,74.1 3.9,2 7.7,4 11.6,5.9 l 11.8,5.4 5.9,2.6 6,2.4 12.1,4.7 12.3,4.2 6.2,2.1 c 2.1,0.7 4.2,1.2 6.2,1.8 l 12.5,3.5 c 4.2,1.1 8.4,2 12.6,3 9.1,2.3 18.4,3.7 27.7,5.4 4.6,0.7 9.3,1.2 14,1.8 l 7,0.9 c 2.3,0.2 4.7,0.4 7,0.6 l 14,1 14,0.4 7,0.2 7,-0.1 14,-0.4 c -2.8,-28.2 -5.4,-56.3 -7.6,-84.5 -55.3,2 -110.2,-10.4 -159,-35 z"
           id="path21"
           inkscape:connector-curvature="0" /><path
           d="m 228.7,789.2 c 22.4,22.3 47.3,42 74.2,58.7 16.1,-23.4 32.1,-47 47.7,-70.7 -23.3,-14 -45,-30.8 -64.3,-50.3 -19.4,20.5 -38.6,41.3 -57.6,62.3 z"
           id="path23"
           inkscape:connector-curvature="0" /><path
           d="m 200.6,566 c -28,4.6 -56,9 -84,13.1 l 0.6,3.2 0.7,3.2 1.4,6.3 c 1,4.2 1.9,8.5 3.1,12.6 2.4,8.3 4.6,16.7 7.5,24.9 1.4,4.1 2.7,8.2 4.2,12.3 l 4.8,12.1 c 0.8,2 1.6,4 2.4,6 l 2.7,5.9 5.4,11.8 c 8.3,16.9 17.5,33.3 28,48.9 2.5,4 5.4,7.7 8.1,11.6 l 4.1,5.7 c 1.4,1.9 2.9,3.7 4.3,5.6 l 8.7,11.1 9.2,10.7 C 232,751.2 252.4,731.7 273,712.3 260.8,698.4 249.7,683.3 240,667.1 220.8,635.5 207.7,601.2 200.6,566 Z"
           id="path25"
           inkscape:connector-curvature="0" /><path
           d="m 196.6,460.5 c -28.3,-2.3 -56.7,-4.4 -85.1,-6.1 -3.6,31.4 -3.3,63 0.4,94.4 28.3,-1.9 56.6,-4.2 84.8,-6.7 -3.4,-27.1 -3.5,-54.5 -0.1,-81.6 z"
           id="path27"
           inkscape:connector-curvature="0" /><path
           d="m 267.8,293.5 c 0.1,-0.2 0.3,-0.3 0.4,-0.5 -21,-18.9 -41.8,-38 -62.4,-57.3 -1.4,1.6 -2.8,3.3 -4.2,4.9 l -4,5.1 c -2.7,3.4 -5.4,6.8 -8,10.2 l -7.5,10.6 c -1.2,1.8 -2.5,3.5 -3.7,5.3 l -3.5,5.5 -7,10.9 -6.5,11.2 -3.2,5.6 -3,5.8 -5.9,11.6 -5.8,12.9 c -0.9,2.2 -2,4.3 -2.8,6.5 l -2.6,6.6 c -1.7,4.4 -3.5,8.7 -5.1,13.2 l -4.5,13.4 c -5.6,18 -10.4,36.2 -13.4,54.8 28.2,3.5 56.4,7.2 84.6,11.3 9.6,-53.4 32.6,-104.5 68.1,-147.6 z"
           id="path29"
           inkscape:connector-curvature="0" /><path
           d="m 348.2,224 c -15.8,-23.5 -31.8,-46.9 -48.1,-70.1 l -10,6.4 c -3.3,2.2 -6.5,4.5 -9.7,6.8 -3.2,2.3 -6.5,4.5 -9.6,7 l -9.3,7.3 c -1.5,1.2 -3.1,2.4 -4.6,3.7 l -4.5,3.9 -8.9,7.8 c -2.9,2.7 -5.7,5.4 -8.6,8.1 -2.8,2.8 -5.8,5.4 -8.5,8.3 19.1,20.8 38.4,41.4 58,61.8 19.1,-19.8 40.6,-36.9 63.8,-51 z"
           id="path31"
           inkscape:connector-curvature="0" /><path
           d="m 523.9,176.1 c 1.7,-28.2 3.6,-56.5 5.8,-84.7 -4.3,-0.1 -8.6,-0.2 -12.9,-0.3 l -12.9,0.3 -6.5,0.2 c -2.2,0.1 -4.3,0.3 -6.5,0.4 L 478,93 c -4.3,0.4 -8.6,1 -12.9,1.5 l -6.4,0.8 -3.2,0.4 -3.2,0.6 c -8.5,1.5 -17.1,2.9 -25.5,5 -36.8,8.2 -72.3,21.9 -105.3,39.9 14.9,24.2 29.5,48.6 43.8,73.1 48.7,-25.7 103.5,-38.9 158.6,-38.2 z"
           id="path33"
           inkscape:connector-curvature="0" /><path
           d="m 652.7,114 c -29.9,-10.4 -61,-17.4 -92.5,-20.7 -4.3,28 -8.3,56 -12.1,84 27,2.4 53.8,8.2 79.8,17.6 8.5,-26.8 16.8,-53.8 24.8,-80.9 z"
           id="path35"
           inkscape:connector-curvature="0" /><path
           d="m 774.5,303.2 c 23.2,-16.4 46.6,-32.6 70.2,-48.6 l -8,-10.2 c -1.3,-1.7 -2.7,-3.4 -4,-5.1 l -4.2,-4.9 c -2.8,-3.3 -5.6,-6.5 -8.5,-9.8 l -8.9,-9.4 -4.5,-4.7 -4.7,-4.5 -9.4,-8.9 -9.8,-8.5 -4.9,-4.2 -5.1,-4 c -14.6,-11.9 -30.2,-22.3 -46.3,-32.1 l -12.2,-7 c -4.1,-2.3 -8.3,-4.4 -12.5,-6.5 l -6.3,-3.2 -6.4,-2.9 c -4.3,-1.9 -8.6,-3.9 -12.9,-5.8 -9.6,26.6 -19.6,53 -29.7,79.4 51.2,22.4 95,57.5 128.1,100.9 z"
           id="path37"
           inkscape:connector-curvature="0" /><path
           d="m 903.6,364.9 c -10.4,-29.9 -24.4,-58.5 -41.5,-85.2 -24.7,14.1 -49.3,28.5 -73.7,43.2 14.9,22.8 27,47.4 35.9,73.3 26.5,-10.2 53,-20.6 79.3,-31.3 z"
           id="path39"
           inkscape:connector-curvature="0" /><path
           class="st0"
           d="m 837.9,550.9 c 2.6,-16.9 3.9,-33.8 4,-50.9 -0.1,-29.1 -4.2,-57.6 -11.8,-85 -1.8,-6.3 -3.7,-12.6 -5.8,-18.8 -8.9,-25.9 -21,-50.5 -35.9,-73.3 -4.4,-6.8 -9.1,-13.3 -14,-19.7 -33.1,-43.3 -76.9,-78.5 -128.3,-100.8 -5.4,-2.3 -10.8,-4.5 -16.4,-6.6 -0.7,-0.2 -1.3,-0.5 -2,-0.7 -26,-9.4 -52.8,-15.2 -79.8,-17.6 -8.1,-0.7 -16.1,-1.1 -24.2,-1.2 -55.1,-0.8 -109.9,12.5 -158.6,38.2 -5.8,3.1 -11.5,6.3 -17.2,9.7 -23.2,14.1 -44.7,31.1 -63.8,50.9 -5.6,5.8 -11,11.8 -16.2,18.1 -0.1,0.2 -0.3,0.3 -0.4,0.5 -35.5,43.1 -58.5,94.2 -68.2,147.6 -1.2,6.5 -2.2,13 -3,19.5 -3.3,27.1 -3.3,54.5 0.1,81.6 1,8 2.3,16 3.9,23.9 7.1,35.2 20.2,69.5 39.3,101.2 9.7,16.2 20.8,31.2 33,45.2 4.3,5 8.8,9.8 13.4,14.4 19.3,19.5 40.9,36.4 64.3,50.3 6.9,4.1 14,8 21.2,11.7 48.9,24.6 103.7,37 159.3,35 6.6,-0.2 13.1,-0.7 19.7,-1.3 10.2,-1 20.3,-2.5 30.5,-4.5 16.9,-3.3 33.3,-8 49.1,-14 7.6,-2.8 15,-6 22.4,-9.4 50.1,-23.3 93.6,-59.2 126.2,-103.4 3.9,-5.3 7.6,-10.7 11.2,-16.2 14.8,-22.8 26.8,-47.5 35.5,-73.5 2.5,-7.6 4.8,-15.4 6.8,-23.3 2.4,-9.3 4.3,-18.4 5.7,-27.6 z M 276.6,699.5 c -83.9,-101 -94.7,-248.6 -27,-361 67.8,-112.4 202.5,-171.6 331.1,-145.1 126.2,26 225.8,130.2 246.1,257.4 2.6,16.3 3.7,32.7 3.8,49.2 -0.5,130.1 -83.3,249.9 -206.1,294.3 -123.3,44.5 -264.2,5.9 -347.9,-94.8 z"
           id="path41"
           inkscape:connector-curvature="0"
           style="fill:#ffffff" /></g></g></switch></svg>