<?xml version="1.0" encoding="UTF-8" standalone="no"?>
<svg
   xmlns:dc="http://purl.org/dc/elements/1.1/"
   xmlns:cc="http://creativecommons.org/ns#"
   xmlns:rdf="http://www.w3.org/1999/02/22-rdf-syntax-ns#"
   xmlns:svg="http://www.w3.org/2000/svg"
   xmlns="http://www.w3.org/2000/svg"
   xmlns:sodipodi="http://sodipodi.sourceforge.net/DTD/sodipodi-0.dtd"
   xmlns:inkscape="http://www.inkscape.org/namespaces/inkscape"
   version="1.1"
   id="Layer_1"
   x="0px"
   y="0px"
   viewBox="0 0 1000 1000"
   width="100%"
   height="100%"
   style="enable-background:new 0 0 1000 1000;"
   xml:space="preserve"
   ><switch
     id="switch3"
     transform="translate(-41.65,-7.6)"><g
       id="g5"><g
         id="g7"><g
           id="g9"><path
             d="m 789.1,556.4 c -0.4,2.5 -1.1,5 -1.6,7.4 -0.6,2.5 -1.1,5 -1.7,7.4 24.4,5.5 48.7,10.7 73.1,15.8 l 1.9,-8.1 c 0.6,-2.7 1.3,-5.4 1.7,-8.1 l 1.5,-8.2 c 0.5,-2.7 1,-5.4 1.3,-8.2 -24.5,-4.6 -49.1,-8.9 -73.7,-13.1 -0.5,5.1 -1.6,10.1 -2.5,15.1 z"
             id="path11"
             inkscape:connector-curvature="0" /><path
             d="m 774.7,604.1 c -0.7,2 -1.7,3.9 -2.6,5.9 l -2.6,5.8 c -1.8,3.8 -3.9,7.6 -5.8,11.4 21.6,12.6 42.9,25.3 64.2,38.3 1.6,-2.6 2.8,-5.4 4.2,-8 l 4.1,-8.1 3.8,-8.3 1.9,-4.1 0.9,-2.1 0.8,-2.1 c 2.4,-6.1 5,-12.2 7,-18.5 l 3.2,-9.4 2.7,-9.5 c -24.3,-5.7 -48.5,-11.6 -72.7,-17.7 -2.3,9 -5.6,17.8 -9.1,26.4 z"
             id="path13"
             inkscape:connector-curvature="0" /><path
             d="m 751.7,647.3 c -1.3,2.2 -2.9,4.2 -4.4,6.3 -1.5,2 -2.9,4.2 -4.5,6.2 20.4,14.4 40.9,28.7 61.5,42.6 3.2,-4.5 6.5,-9 9.5,-13.6 l 4.5,-7 c 1.5,-2.3 3,-4.6 4.4,-7.1 -20.9,-13.7 -41.9,-27.1 -63,-40.4 -2.4,4.6 -5.4,8.7 -8,13 z"
             id="path15"
             inkscape:connector-curvature="0" /><path
             d="m 736.5,667.8 c -0.7,0.9 -1.5,1.8 -2.3,2.7 l -4.6,5.3 c -1.5,1.8 -3.2,3.4 -4.8,5.1 l -4.8,5.1 -9.3,8.8 c -3.3,2.8 -6.4,5.6 -9.7,8.3 15.1,19.8 30,39.8 44.8,59.9 l 3.6,-2.8 c 1.2,-1 2.3,-2 3.4,-3 l 6.9,-5.9 c 2.3,-1.9 4.4,-4.1 6.7,-6.2 l 6.6,-6.3 c 9.1,-9.4 18.1,-19.1 26.1,-29.6 -20.2,-14.6 -40.4,-29.3 -60.3,-44.2 l -2.3,2.8 z"
             id="path17"
             inkscape:connector-curvature="0" /><path
             d="m 688.4,712.7 c -2.1,1.5 -4.1,3 -6.2,4.4 l -6.4,4.1 -3.2,2.1 -3.3,1.9 c 13.3,21.1 26.9,42 40.6,62.9 4.7,-2.9 9.3,-5.9 14,-8.9 4.6,-3.1 9,-6.4 13.5,-9.6 -14.1,-20.6 -28.4,-41.1 -42.9,-61.4 -1.9,1.7 -4.1,3.1 -6.1,4.5 z"
             id="path19"
             inkscape:connector-curvature="0" /><path
             d="m 657.2,731.8 -6.2,3.2 -6.4,2.9 -3.2,1.4 -1.6,0.7 -1.6,0.6 -5.9,2.3 c -2,0.8 -3.9,1.6 -6,2.2 l -6.1,2 c -2,0.7 -4,1.4 -6.1,1.9 6.4,24.1 12.5,48.3 18.4,72.5 11.7,-3.3 23.1,-7.4 34.3,-12 1.5,-0.6 3,-1.2 4.5,-1.9 l 4.5,-2 c 3,-1.4 6,-2.7 9,-4.1 l 8.8,-4.5 c 1.5,-0.8 2.9,-1.5 4.4,-2.3 l 4.3,-2.5 c -13.2,-21.2 -26.1,-42.5 -38.9,-63.9 -2,1.5 -4.2,2.4 -6.2,3.5 z"
             id="path21"
             inkscape:connector-curvature="0" /><path
             d="m 598.8,753.3 c -2.5,0.5 -4.9,1.2 -7.4,1.7 l -7.5,1.3 -3.7,0.7 -3.8,0.5 c 4.2,24.6 8.6,49.1 13.3,73.7 5.5,-0.8 10.9,-1.9 16.4,-2.8 5.4,-1.1 10.8,-2.4 16.2,-3.7 -5.1,-24.4 -10.4,-48.8 -16,-73.1 -2.6,0.7 -5.1,1.1 -7.5,1.7 z"
             id="path23"
             inkscape:connector-curvature="0" /><path
             d="m 562.7,758.9 -7,0.5 c -4.7,0.2 -9.4,0.2 -14,0.4 l -12.8,-0.3 -12.8,-1 c -3.3,24.7 -6.8,49.4 -10.6,74 3,0.4 6,0.6 9,0.8 l 9.1,0.7 c 6,0.3 12.1,0.4 18.1,0.5 l 9.8,-0.2 c 3.3,-0.1 6.6,-0.1 9.8,-0.4 6.6,-0.5 13.1,-0.8 19.6,-1.8 -4,-24.6 -7.8,-49.3 -11.3,-73.9 -2.3,0.5 -4.6,0.5 -6.9,0.7 z"
             id="path25"
             inkscape:connector-curvature="0" /><path
             d="m 492.8,755.1 c -2.5,-0.4 -5,-1.1 -7.4,-1.6 -2.5,-0.6 -5,-1.1 -7.4,-1.7 -5.5,24.4 -10.7,48.7 -15.8,73.1 l 8.1,1.9 c 2.7,0.6 5.4,1.3 8.1,1.7 l 8.2,1.5 c 2.7,0.5 5.4,1 8.2,1.3 4.6,-24.5 8.9,-49.1 13.1,-73.7 -5.1,-0.5 -10.1,-1.6 -15.1,-2.5 z"
             id="path27"
             inkscape:connector-curvature="0" /><path
             d="m 445.1,740.7 c -2,-0.7 -3.9,-1.7 -5.9,-2.6 l -5.8,-2.6 c -3.8,-1.8 -7.6,-3.9 -11.4,-5.8 -12.6,21.6 -25.3,42.9 -38.3,64.2 2.6,1.6 5.4,2.8 8,4.2 l 8.1,4.1 8.3,3.8 4.1,1.9 2.1,0.9 2.1,0.8 c 6.1,2.4 12.2,5 18.5,7 l 9.4,3.2 9.5,2.7 c 5.7,-24.3 11.6,-48.5 17.7,-72.7 -9,-2.4 -17.8,-5.6 -26.4,-9.1 z"
             id="path29"
             inkscape:connector-curvature="0" /><path
             d="m 401.9,717.6 c -2.2,-1.3 -4.2,-2.9 -6.3,-4.4 -2,-1.5 -4.2,-2.9 -6.2,-4.5 -14.4,20.4 -28.7,40.9 -42.6,61.5 4.5,3.2 9,6.5 13.6,9.5 l 7,4.5 c 2.3,1.5 4.6,3 7.1,4.4 13.7,-20.9 27.1,-41.9 40.4,-63 -4.5,-2.3 -8.7,-5.3 -13,-8 z"
             id="path31"
             inkscape:connector-curvature="0" /><path
             d="m 381.4,702.5 c -0.9,-0.7 -1.8,-1.5 -2.7,-2.3 l -5.3,-4.6 c -1.8,-1.5 -3.4,-3.2 -5.1,-4.8 l -5.1,-4.8 -8.8,-9.3 c -2.8,-3.3 -5.6,-6.4 -8.3,-9.7 -19.8,15.1 -39.8,30 -59.9,44.8 l 2.8,3.6 c 1,1.2 2,2.3 3,3.4 l 5.9,6.9 c 1.9,2.3 4.1,4.4 6.2,6.7 l 6.3,6.6 c 9.4,9.1 19.1,18.1 29.6,26.1 14.6,-20.3 29.3,-40.4 44.2,-60.3 l -2.8,-2.3 z"
             id="path33"
             inkscape:connector-curvature="0" /><path
             d="m 336.5,654.4 c -1.5,-2.1 -3,-4.1 -4.4,-6.2 l -4.1,-6.4 -2.1,-3.2 -1.9,-3.3 c -21.1,13.3 -42,26.9 -62.9,40.6 2.9,4.7 5.9,9.3 8.9,14 3.1,4.6 6.4,9 9.6,13.5 20.6,-14.1 41.1,-28.4 61.4,-42.9 -1.6,-2 -3,-4.1 -4.5,-6.1 z"
             id="path35"
             inkscape:connector-curvature="0" /><path
             d="m 317.4,623.2 -3.2,-6.2 -2.9,-6.4 -1.4,-3.2 -0.7,-1.6 -0.6,-1.6 -2.3,-5.9 c -0.8,-2 -1.6,-3.9 -2.2,-6 l -2,-6.1 c -0.7,-2 -1.4,-4 -1.9,-6.1 -24.1,6.4 -48.3,12.5 -72.5,18.4 3.3,11.7 7.4,23.1 12,34.3 0.6,1.5 1.2,3 1.9,4.5 l 2,4.5 c 1.4,3 2.7,6 4.1,9 l 4.5,8.8 c 0.8,1.5 1.5,2.9 2.3,4.4 l 2.5,4.3 c 21.2,-13.2 42.5,-26.1 63.9,-38.9 -1.5,-2 -2.4,-4.2 -3.5,-6.2 z"
             id="path37"
             inkscape:connector-curvature="0" /><path
             d="m 295.9,564.8 c -0.5,-2.5 -1.2,-4.9 -1.7,-7.4 l -1.3,-7.5 -0.7,-3.7 -0.5,-3.8 c -24.6,4.2 -49.1,8.6 -73.7,13.3 0.8,5.5 1.9,10.9 2.8,16.4 1.1,5.4 2.4,10.8 3.7,16.2 24.4,-5.1 48.8,-10.4 73.1,-16 -0.6,-2.6 -1.1,-5.1 -1.7,-7.5 z"
             id="path39"
             inkscape:connector-curvature="0" /><path
             d="m 290.3,528.6 -0.5,-7 c -0.2,-4.7 -0.2,-9.4 -0.4,-14 l 0.3,-12.8 1,-12.8 c -24.7,-3.3 -49.4,-6.8 -74,-10.6 -0.4,3 -0.6,6 -0.8,9 l -0.7,9.1 c -0.3,6 -0.4,12.1 -0.5,18.1 l 0.2,9.8 c 0.1,3.3 0.1,6.6 0.4,9.8 0.5,6.6 0.8,13.1 1.8,19.6 24.6,-4 49.3,-7.8 73.9,-11.3 -0.4,-2.2 -0.5,-4.5 -0.7,-6.9 z"
             id="path41"
             inkscape:connector-curvature="0" /><path
             d="m 294.1,458.8 c 0.4,-2.5 1.1,-5 1.6,-7.4 0.6,-2.5 1.1,-5 1.7,-7.4 -24.4,-5.5 -48.7,-10.7 -73.1,-15.8 l -1.9,8.1 c -0.6,2.7 -1.3,5.4 -1.7,8.1 l -1.5,8.2 c -0.5,2.7 -1,5.4 -1.3,8.2 24.5,4.6 49.1,8.9 73.7,13.1 0.6,-5.1 1.7,-10.1 2.5,-15.1 z"
             id="path43"
             inkscape:connector-curvature="0" /><path
             d="m 308.5,411.1 c 0.7,-2 1.7,-3.9 2.6,-5.9 l 2.6,-5.8 c 1.8,-3.8 3.9,-7.6 5.8,-11.4 -21.6,-12.6 -42.9,-25.3 -64.2,-38.3 -1.6,2.6 -2.8,5.4 -4.2,8 l -4.1,8.1 -3.8,8.3 -1.9,4.1 -0.9,2.1 -0.8,2.1 c -2.4,6.1 -5,12.2 -7,18.5 l -3.2,9.4 -2.7,9.5 c 24.3,5.7 48.5,11.6 72.7,17.7 2.4,-9 5.6,-17.8 9.1,-26.4 z"
             id="path45"
             inkscape:connector-curvature="0" /><path
             d="m 331.6,367.9 c 1.3,-2.2 2.9,-4.2 4.4,-6.3 1.5,-2 2.9,-4.2 4.5,-6.2 -20.4,-14.4 -40.9,-28.7 -61.5,-42.6 -3.2,4.5 -6.5,9 -9.5,13.6 l -4.5,7 c -1.5,2.3 -3,4.6 -4.4,7.1 20.9,13.7 41.9,27.1 63,40.4 2.4,-4.6 5.3,-8.7 8,-13 z"
             id="path47"
             inkscape:connector-curvature="0" /><path
             d="m 346.7,347.4 c 0.7,-0.9 1.5,-1.8 2.3,-2.7 l 4.6,-5.3 c 1.5,-1.8 3.2,-3.4 4.8,-5.1 l 4.8,-5.1 9.3,-8.8 c 3.3,-2.8 6.4,-5.6 9.7,-8.3 -15.1,-19.8 -30,-39.8 -44.8,-59.9 l -3.6,2.8 c -1.2,1 -2.3,2 -3.4,3 l -6.9,5.9 c -2.3,1.9 -4.4,4.1 -6.7,6.2 l -6.6,6.3 c -9.1,9.4 -18.1,19.1 -26.1,29.6 20.2,14.6 40.4,29.3 60.3,44.2 l 2.3,-2.8 z"
             id="path49"
             inkscape:connector-curvature="0" /><path
             d="m 394.9,302.5 c 2.1,-1.5 4.1,-3 6.2,-4.4 l 6.4,-4.1 3.2,-2.1 3.3,-1.9 c -13.3,-21.1 -26.9,-42 -40.6,-62.9 -4.7,2.9 -9.3,5.9 -14,8.9 -4.6,3.1 -9,6.4 -13.5,9.6 14.1,20.6 28.4,41.1 42.9,61.4 1.9,-1.7 4,-3.1 6.1,-4.5 z"
             id="path51"
             inkscape:connector-curvature="0" /><path
             d="m 426,283.4 6.2,-3.2 6.4,-2.9 3.2,-1.4 1.6,-0.7 1.6,-0.6 5.9,-2.3 c 2,-0.8 3.9,-1.6 6,-2.2 l 6.1,-2 c 2,-0.7 4,-1.4 6.1,-1.9 -6.4,-24.1 -12.5,-48.3 -18.4,-72.5 -11.7,3.3 -23.1,7.4 -34.3,12 -1.5,0.6 -3,1.2 -4.5,1.9 l -4.5,2 c -3,1.4 -6,2.7 -9,4.1 l -8.8,4.5 c -1.5,0.8 -2.9,1.5 -4.4,2.3 l -4.3,2.5 c 13.2,21.2 26.1,42.5 38.9,63.9 2,-1.5 4.2,-2.4 6.2,-3.5 z"
             id="path53"
             inkscape:connector-curvature="0" /><path
             d="m 484.5,261.9 c 2.5,-0.5 4.9,-1.2 7.4,-1.7 l 7.5,-1.3 3.7,-0.7 3.8,-0.5 c -4.2,-24.6 -8.6,-49.1 -13.3,-73.7 -5.5,0.8 -10.9,1.9 -16.4,2.8 -5.4,1.1 -10.8,2.4 -16.2,3.7 5.1,24.4 10.4,48.8 16,73.1 2.5,-0.6 5,-1.1 7.5,-1.7 z"
             id="path55"
             inkscape:connector-curvature="0" /><path
             d="m 520.6,256.3 7,-0.5 c 4.7,-0.2 9.4,-0.2 14,-0.4 l 12.8,0.3 12.8,1 c 3.3,-24.7 6.8,-49.4 10.6,-74 -3,-0.4 -6,-0.6 -9,-0.8 l -9.1,-0.7 c -6,-0.3 -12.1,-0.4 -18.1,-0.5 l -9.8,0.2 c -3.3,0.1 -6.6,0.1 -9.8,0.4 -6.6,0.5 -13.1,0.8 -19.6,1.8 4,24.6 7.8,49.3 11.3,73.9 2.2,-0.5 4.6,-0.5 6.9,-0.7 z"
             id="path57"
             inkscape:connector-curvature="0" /><path
             d="m 590.4,260.1 c 2.5,0.4 5,1.1 7.4,1.6 2.5,0.6 5,1.1 7.4,1.7 5.5,-24.4 10.7,-48.7 15.8,-73.1 l -8.1,-1.9 c -2.7,-0.6 -5.4,-1.3 -8.1,-1.7 l -8.2,-1.5 c -2.7,-0.5 -5.4,-1 -8.2,-1.3 -4.6,24.5 -8.9,49.1 -13.1,73.7 5.2,0.5 10.1,1.7 15.1,2.5 z"
             id="path59"
             inkscape:connector-curvature="0" /><path
             d="m 638.2,274.5 c 2,0.7 3.9,1.7 5.9,2.6 l 5.8,2.6 c 3.8,1.8 7.6,3.9 11.4,5.8 12.6,-21.6 25.3,-42.9 38.3,-64.2 -2.6,-1.6 -5.4,-2.8 -8,-4.2 l -8.1,-4.1 -8.3,-3.8 -4.1,-1.9 -2.1,-0.9 -2.1,-0.8 c -6.1,-2.4 -12.2,-5 -18.5,-7 l -9.4,-3.2 -9.5,-2.7 c -5.7,24.3 -11.6,48.5 -17.7,72.7 8.9,2.4 17.7,5.6 26.4,9.1 z"
             id="path61"
             inkscape:connector-curvature="0" /><path
             d="m 681.4,297.6 c 2.2,1.3 4.2,2.9 6.3,4.4 2,1.5 4.2,2.9 6.2,4.5 14.4,-20.4 28.7,-40.9 42.6,-61.5 -4.5,-3.2 -9,-6.5 -13.6,-9.5 l -7,-4.5 c -2.3,-1.5 -4.6,-3 -7.1,-4.4 -13.7,20.9 -27.1,41.9 -40.4,63 4.5,2.3 8.6,5.3 13,8 z"
             id="path63"
             inkscape:connector-curvature="0" /><path
             d="m 701.8,312.7 c 0.9,0.7 1.8,1.5 2.7,2.3 l 5.3,4.6 c 1.8,1.5 3.4,3.2 5.1,4.8 l 5.1,4.8 8.8,9.3 c 2.8,3.3 5.6,6.4 8.3,9.7 19.8,-15.1 39.8,-30 59.9,-44.8 l -2.8,-3.6 c -1,-1.2 -2,-2.3 -3,-3.4 l -5.9,-6.9 c -1.9,-2.3 -4.1,-4.4 -6.2,-6.7 l -6.3,-6.6 c -9.4,-9.1 -19.1,-18.1 -29.6,-26.1 -14.6,20.2 -29.3,40.4 -44.2,60.3 l 2.8,2.3 z"
             id="path65"
             inkscape:connector-curvature="0" /><path
             d="m 746.8,360.9 c 1.5,2.1 3,4.1 4.4,6.2 l 4.1,6.4 2.1,3.2 1.9,3.3 c 21.1,-13.3 42,-26.9 62.9,-40.6 -2.9,-4.7 -5.9,-9.3 -8.9,-14 -3.1,-4.6 -6.4,-9 -9.6,-13.5 -20.6,14.1 -41.1,28.4 -61.4,42.9 1.6,1.9 3,4 4.5,6.1 z"
             id="path67"
             inkscape:connector-curvature="0" /><path
             d="m 765.9,392 3.2,6.2 2.9,6.4 1.4,3.2 0.7,1.6 0.6,1.6 2.3,5.9 c 0.8,2 1.6,3.9 2.2,6 l 2,6.1 c 0.7,2 1.4,4 1.9,6.1 24.1,-6.4 48.3,-12.5 72.5,-18.4 -3.3,-11.7 -7.4,-23.1 -12,-34.3 -0.6,-1.5 -1.2,-3 -1.9,-4.5 l -2,-4.5 c -1.4,-3 -2.7,-6 -4.1,-9 l -4.5,-8.8 c -0.8,-1.5 -1.5,-2.9 -2.3,-4.4 l -2.5,-4.3 c -21.2,13.2 -42.5,26.1 -63.9,38.9 1.4,2 2.4,4.2 3.5,6.2 z"
             id="path69"
             inkscape:connector-curvature="0" /><path
             d="m 787.3,450.5 c 0.5,2.5 1.2,4.9 1.7,7.4 l 1.3,7.5 0.7,3.7 0.5,3.8 c 24.6,-4.2 49.1,-8.6 73.7,-13.3 -0.8,-5.5 -1.9,-10.9 -2.8,-16.4 -1.1,-5.4 -2.4,-10.8 -3.7,-16.2 -24.4,5.1 -48.8,10.4 -73.1,16 0.7,2.5 1.1,5 1.7,7.5 z"
             id="path71"
             inkscape:connector-curvature="0" /><path
             d="m 868.4,497.8 c -0.1,-3.3 -0.1,-6.6 -0.4,-9.8 -0.5,-6.6 -0.8,-13.1 -1.8,-19.6 -24.6,4 -49.3,7.8 -73.9,11.3 0.4,2.3 0.4,4.7 0.6,7 l 0.5,7 c 0.2,4.7 0.2,9.4 0.4,14 l -0.3,12.8 -1,12.8 c 24.7,3.3 49.4,6.8 74,10.6 0.4,-3 0.6,-6 0.8,-9 l 0.7,-9.1 c 0.3,-6 0.4,-12.1 0.5,-18.1 l -0.1,-9.9 z"
             id="path73"
             inkscape:connector-curvature="0" /></g><g
           id="g75"><path
             d="m 768.5,525.5 c -0.3,3.9 2.7,6.2 5.7,6.5 3.1,0.3 6.4,-1.4 6.7,-5.6 0.6,-8.3 -11.8,-8.7 -12.4,-0.9 z"
             id="path77"
             inkscape:connector-curvature="0" /><path
             d="m 765.4,548.9 c -0.3,1.9 0.2,3.5 1.1,4.7 0.9,1.2 2.3,2 3.9,2.3 1.5,0.3 3.2,0.2 4.5,-0.6 1.3,-0.8 2.4,-2.2 2.7,-4.2 1.6,-8.2 -10.8,-9.8 -12.2,-2.2 z"
             id="path79"
             inkscape:connector-curvature="0" /><path
             d="m 759.9,572.2 c -1,3.8 1.2,6.6 4.2,7.6 2.9,1 6.7,0 7.8,-4 2.2,-8.1 -9.9,-11.1 -12,-3.6 z"
             id="path81"
             inkscape:connector-curvature="0" /><path
             d="m 752,594.6 c -1.5,3.6 0.5,6.7 3.3,7.9 2.8,1.3 6.6,0.7 8.2,-3.2 3.1,-7.8 -8.6,-12 -11.5,-4.7 z"
             id="path83"
             inkscape:connector-curvature="0" /><path
             d="m 741.7,616.2 c -3.9,6.8 6.8,13.2 10.9,6 3.9,-7.5 -7.3,-12.9 -10.9,-6 z"
             id="path85"
             inkscape:connector-curvature="0" /><path
             d="m 737.8,634.9 c -2.7,-1.7 -6.2,-1.7 -8.5,1.5 -4.5,6.3 5.4,13.9 10.3,7.1 2.4,-3.5 0.8,-7 -1.8,-8.6 z"
             id="path87"
             inkscape:connector-curvature="0" /><path
             d="m 723.3,654.8 c -2.4,-2 -6,-2.3 -8.6,0.6 -5.1,5.9 4,14.4 9.5,8.1 2.7,-3.1 1.6,-6.8 -0.9,-8.7 z"
             id="path89"
             inkscape:connector-curvature="0" /><path
             d="m 698.4,672.6 c -2.8,2.7 -2.2,6.4 -0.1,8.7 2.1,2.3 5.7,3.2 8.7,0.4 6,-5.9 -3,-14.5 -8.6,-9.1 z"
             id="path91"
             inkscape:connector-curvature="0" /><path
             d="m 680.2,688.2 c -3,2.5 -2.9,6 -1.1,8.6 1.8,2.5 5.4,3.9 8.7,1.3 6.6,-5.2 -1.5,-14.8 -7.6,-9.9 z"
             id="path93"
             inkscape:connector-curvature="0" /><path
             d="m 660.7,701.6 c -3.3,2.1 -3.5,5.7 -2,8.4 1.5,2.7 4.9,4.4 8.5,2.2 7.1,-4.5 0.1,-14.8 -6.5,-10.6 z"
             id="path95"
             inkscape:connector-curvature="0" /><path
             d="m 639.6,713.1 c -7.1,3.2 -2.3,14.7 5.4,11.2 7.5,-3.7 1.6,-14.7 -5.4,-11.2 z"
             id="path97"
             inkscape:connector-curvature="0" /><path
             d="m 622.6,722.5 c -1.3,-0.7 -3,-0.9 -4.8,-0.3 -7.4,2.5 -3.8,14.4 4.2,11.7 2,-0.6 3.2,-1.9 3.7,-3.4 0.5,-1.5 0.5,-3.1 -0.1,-4.6 -0.6,-1.5 -1.7,-2.7 -3,-3.4 z"
             id="path99"
             inkscape:connector-curvature="0" /><path
             d="m 594.8,728.9 c -7.6,1.8 -5.3,14 2.9,12.1 4.1,-0.9 5.3,-4.5 4.4,-7.5 -0.8,-3 -3.5,-5.4 -7.3,-4.6 z"
             id="path101"
             inkscape:connector-curvature="0" /><path
             d="m 571.5,733.2 c -7.7,1 -6.7,13.4 1.6,12.4 4.1,-0.5 5.7,-3.9 5.2,-7 -0.5,-3.1 -2.9,-5.8 -6.8,-5.4 z"
             id="path103"
             inkscape:connector-curvature="0" /><path
             d="m 547.6,735.1 c -7.8,0.2 -8.1,12.7 0.3,12.5 8.4,-0.3 7.5,-12.7 -0.3,-12.5 z"
             id="path105"
             inkscape:connector-curvature="0" /><path
             d="m 523.9,734.5 c -3.9,-0.3 -6.2,2.7 -6.5,5.7 -0.3,3.1 1.4,6.4 5.6,6.7 8.3,0.6 8.7,-11.8 0.9,-12.4 z"
             id="path107"
             inkscape:connector-curvature="0" /><path
             d="m 500.1,731.4 c -1.9,-0.3 -3.5,0.2 -4.7,1.1 -1.2,0.9 -2,2.3 -2.3,3.9 -0.3,1.5 -0.2,3.2 0.6,4.5 0.8,1.3 2.2,2.4 4.2,2.7 8.2,1.5 9.9,-10.8 2.2,-12.2 z"
             id="path109"
             inkscape:connector-curvature="0" /><path
             d="m 477.1,725.9 c -3.8,-1 -6.6,1.2 -7.6,4.2 -1,2.9 0,6.7 4,7.8 8.2,2.3 11.1,-9.9 3.6,-12 z"
             id="path111"
             inkscape:connector-curvature="0" /><path
             d="m 454.5,717.9 c -3.6,-1.5 -6.7,0.5 -7.9,3.3 -1.3,2.8 -0.7,6.6 3.2,8.2 7.7,3.1 12,-8.6 4.7,-11.5 z"
             id="path113"
             inkscape:connector-curvature="0" /><path
             d="m 433.1,707.8 c -6.8,-3.9 -13.2,6.8 -5.9,10.9 7.4,3.8 12.9,-7.4 5.9,-10.9 z"
             id="path115"
             inkscape:connector-curvature="0" /><path
             d="m 412.7,695.2 c -6.3,-4.5 -13.9,5.4 -7.1,10.3 1.7,1.2 3.4,1.4 4.9,1 1.5,-0.4 2.8,-1.4 3.6,-2.8 0.9,-1.3 1.3,-2.9 1.1,-4.4 -0.1,-1.5 -0.9,-2.9 -2.5,-4.1 z"
             id="path117"
             inkscape:connector-curvature="0" /><path
             d="m 385.8,690.2 c 3.1,2.8 6.7,1.6 8.7,-0.8 2,-2.4 2.3,-6 -0.6,-8.6 -5.8,-5.1 -14.4,3.9 -8.1,9.4 z"
             id="path119"
             inkscape:connector-curvature="0" /><path
             d="m 367.9,664.1 c -2.3,2.1 -3.3,5.7 -0.4,8.7 5.8,6.1 14.4,-2.9 9,-8.6 -2.7,-2.8 -6.3,-2.1 -8.6,-0.1 z"
             id="path121"
             inkscape:connector-curvature="0" /><path
             d="m 352.6,645.2 c -2.5,1.8 -3.9,5.4 -1.3,8.7 5.2,6.6 14.7,-1.5 9.9,-7.6 -2.5,-3.1 -6.1,-2.9 -8.6,-1.1 z"
             id="path123"
             inkscape:connector-curvature="0" /><path
             d="m 339.1,624.6 c -2.7,1.5 -4.4,4.9 -2.2,8.5 4.5,7.1 14.8,0 10.6,-6.5 -2,-3.4 -5.6,-3.6 -8.4,-2 z"
             id="path125"
             inkscape:connector-curvature="0" /><path
             d="m 336.2,605.8 c -3.2,-7.1 -14.7,-2.3 -11.2,5.4 3.7,7.4 14.7,1.5 11.2,-5.4 z"
             id="path127"
             inkscape:connector-curvature="0" /><path
             d="m 326.7,588.5 c 0.7,-1.3 0.9,-3 0.3,-4.8 -2.5,-7.4 -14.4,-3.8 -11.7,4.2 0.6,2 1.9,3.2 3.4,3.7 1.5,0.5 3.1,0.5 4.6,-0.1 1.4,-0.7 2.7,-1.7 3.4,-3 z"
             id="path129"
             inkscape:connector-curvature="0" /><path
             d="m 320.3,560.9 c -1.8,-7.6 -14,-5.3 -12.1,2.9 0.9,4.1 4.5,5.2 7.5,4.4 3,-0.8 5.5,-3.5 4.6,-7.3 z"
             id="path131"
             inkscape:connector-curvature="0" /><path
             d="m 310.6,544.2 c 3,-0.5 5.8,-2.9 5.4,-6.8 -1,-7.7 -13.4,-6.7 -12.4,1.6 0.5,4.1 3.9,5.7 7,5.2 z"
             id="path133"
             inkscape:connector-curvature="0" /><path
             d="m 308.1,520 c 3.1,-0.2 6.2,-2.3 6.1,-6.2 -0.2,-7.8 -12.7,-8.1 -12.5,0.3 0.1,4.1 3.2,6 6.4,5.9 z"
             id="path135"
             inkscape:connector-curvature="0" /><path
             d="m 314.7,489.8 c 0.3,-3.9 -2.7,-6.2 -5.7,-6.5 -3.1,-0.3 -6.4,1.4 -6.7,5.6 -0.6,8.2 11.9,8.6 12.4,0.9 z"
             id="path137"
             inkscape:connector-curvature="0" /><path
             d="m 317.8,466.3 c 0.3,-1.9 -0.2,-3.5 -1.1,-4.7 -0.9,-1.2 -2.3,-2 -3.9,-2.3 -1.5,-0.3 -3.2,-0.2 -4.5,0.6 -1.3,0.8 -2.4,2.2 -2.7,4.2 -1.5,8.2 10.8,9.8 12.2,2.2 z"
             id="path139"
             inkscape:connector-curvature="0" /><path
             d="m 323.3,443 c 1,-3.8 -1.2,-6.6 -4.2,-7.6 -2.9,-1 -6.7,0 -7.8,4 -2.2,8.1 9.9,11.1 12,3.6 z"
             id="path141"
             inkscape:connector-curvature="0" /><path
             d="m 331.2,420.6 c 1.5,-3.6 -0.5,-6.7 -3.3,-7.9 -2.8,-1.3 -6.6,-0.7 -8.2,3.2 -3.1,7.8 8.7,12 11.5,4.7 z"
             id="path143"
             inkscape:connector-curvature="0" /><path
             d="m 341.5,399 c 3.9,-6.8 -6.8,-13.2 -10.9,-6 -3.9,7.5 7.4,12.9 10.9,6 z"
             id="path145"
             inkscape:connector-curvature="0" /><path
             d="m 353.9,378.8 c 4.5,-6.3 -5.4,-13.9 -10.3,-7.1 -2.4,3.4 -0.8,6.9 1.8,8.6 2.7,1.8 6.3,1.7 8.5,-1.5 z"
             id="path147"
             inkscape:connector-curvature="0" /><path
             d="m 359.1,351.7 c -2.8,3.1 -1.6,6.7 0.8,8.7 2.4,2 6,2.3 8.6,-0.6 5.2,-5.9 -3.9,-14.4 -9.4,-8.1 z"
             id="path149"
             inkscape:connector-curvature="0" /><path
             d="m 385,334 c -2.1,-2.3 -5.7,-3.2 -8.7,-0.4 -6.1,5.8 2.9,14.4 8.6,9 2.8,-2.7 2.1,-6.3 0.1,-8.6 z"
             id="path151"
             inkscape:connector-curvature="0" /><path
             d="m 404.1,318.5 c -1.8,-2.5 -5.4,-3.9 -8.7,-1.3 -6.6,5.2 1.5,14.7 7.6,9.9 3.1,-2.5 3,-6.1 1.1,-8.6 z"
             id="path153"
             inkscape:connector-curvature="0" /><path
             d="m 424.5,305.2 c -1.5,-2.7 -4.9,-4.4 -8.5,-2.2 -7.1,4.5 0,14.8 6.5,10.6 3.4,-2.1 3.6,-5.7 2,-8.4 z"
             id="path155"
             inkscape:connector-curvature="0" /><path
             d="m 438.2,290.9 c -7.5,3.8 -1.6,14.8 5.4,11.2 7.1,-3.2 2.3,-14.7 -5.4,-11.2 z"
             id="path157"
             inkscape:connector-curvature="0" /><path
             d="m 461.3,281.3 c -2,0.6 -3.2,1.9 -3.7,3.4 -0.5,1.5 -0.5,3.1 0.1,4.6 0.6,1.5 1.6,2.7 2.9,3.5 1.3,0.7 3,0.9 4.8,0.3 7.5,-2.5 3.9,-14.5 -4.1,-11.8 z"
             id="path159"
             inkscape:connector-curvature="0" /><path
             d="m 485.6,274.2 c -4.1,0.9 -5.3,4.5 -4.4,7.5 0.8,3 3.5,5.4 7.3,4.6 7.5,-1.8 5.2,-14 -2.9,-12.1 z"
             id="path161"
             inkscape:connector-curvature="0" /><path
             d="m 510.1,269.6 c -4.1,0.5 -5.7,3.9 -5.2,7 0.5,3 2.9,5.8 6.8,5.4 7.8,-1 6.8,-13.4 -1.6,-12.4 z"
             id="path163"
             inkscape:connector-curvature="0" /><path
             d="m 535.3,267.7 c -8.4,0.2 -7.5,12.7 0.3,12.5 7.8,-0.3 8.1,-12.7 -0.3,-12.5 z"
             id="path165"
             inkscape:connector-curvature="0" /><path
             d="m 560.3,268.3 c -8.4,-0.6 -8.7,11.8 -1,12.4 3.9,0.3 6.2,-2.7 6.5,-5.7 0.4,-3.1 -1.4,-6.4 -5.5,-6.7 z"
             id="path167"
             inkscape:connector-curvature="0" /><path
             d="m 589.6,274.3 c -0.8,-1.3 -2.2,-2.4 -4.2,-2.7 -8.3,-1.5 -9.9,10.9 -2.3,12.3 1.9,0.3 3.5,-0.2 4.7,-1.1 1.2,-0.9 2,-2.3 2.3,-3.9 0.4,-1.6 0.2,-3.2 -0.5,-4.6 z"
             id="path169"
             inkscape:connector-curvature="0" /><path
             d="m 609.7,277.3 c -8.1,-2.3 -11,9.8 -3.5,12 3.8,1 6.6,-1.2 7.6,-4.2 0.9,-2.9 -0.1,-6.7 -4.1,-7.8 z"
             id="path171"
             inkscape:connector-curvature="0" /><path
             d="m 633.5,285.8 c -7.8,-3.1 -12,8.7 -4.8,11.5 3.6,1.5 6.7,-0.5 7.9,-3.3 1.3,-2.9 0.8,-6.7 -3.1,-8.2 z"
             id="path173"
             inkscape:connector-curvature="0" /><path
             d="m 656.1,296.5 c -7.5,-3.8 -12.9,7.4 -5.9,10.9 6.7,3.9 13.1,-6.7 5.9,-10.9 z"
             id="path175"
             inkscape:connector-curvature="0" /><path
             d="m 677.6,309.7 c -1.7,-1.2 -3.4,-1.4 -4.9,-1 -1.5,0.4 -2.8,1.4 -3.6,2.8 -0.8,1.3 -1.3,2.9 -1.1,4.4 0.2,1.5 1,2.9 2.6,4.1 6.3,4.5 13.8,-5.4 7,-10.3 z"
             id="path177"
             inkscape:connector-curvature="0" /><path
             d="m 697.4,325 c -3.1,-2.8 -6.7,-1.6 -8.7,0.8 -2,2.4 -2.3,6 0.6,8.6 5.9,5.1 14.4,-3.9 8.1,-9.4 z"
             id="path179"
             inkscape:connector-curvature="0" /><path
             d="m 715.7,342.4 c -5.8,-6.1 -14.4,2.9 -9,8.6 2.7,2.8 6.4,2.2 8.7,0.1 2.3,-2.1 3.2,-5.7 0.3,-8.7 z"
             id="path181"
             inkscape:connector-curvature="0" /><path
             d="m 732,361.3 c -5.2,-6.6 -14.7,1.5 -9.9,7.6 2.5,3 6,2.9 8.6,1.1 2.5,-1.8 3.9,-5.4 1.3,-8.7 z"
             id="path183"
             inkscape:connector-curvature="0" /><path
             d="m 746.3,382.1 c -4.5,-7.1 -14.8,0 -10.6,6.5 2,3.3 5.7,3.5 8.4,2 2.7,-1.5 4.4,-4.9 2.2,-8.5 z"
             id="path185"
             inkscape:connector-curvature="0" /><path
             d="m 747.1,409.5 c 3.2,7.1 14.7,2.3 11.2,-5.4 -3.8,-7.5 -14.8,-1.6 -11.2,5.4 z"
             id="path187"
             inkscape:connector-curvature="0" /><path
             d="m 756.5,426.7 c -0.7,1.3 -0.9,3 -0.3,4.8 2.5,7.4 14.4,3.8 11.7,-4.2 -0.6,-2 -1.9,-3.2 -3.4,-3.7 -1.5,-0.5 -3.1,-0.5 -4.6,0.1 -1.4,0.7 -2.7,1.7 -3.4,3 z"
             id="path189"
             inkscape:connector-curvature="0" /><path
             d="m 762.9,454.3 c 1.8,7.6 14,5.3 12.1,-2.9 -0.9,-4.1 -4.5,-5.2 -7.5,-4.4 -3,0.8 -5.4,3.5 -4.6,7.3 z"
             id="path191"
             inkscape:connector-curvature="0" /><path
             d="m 772.6,471.1 c -3,0.5 -5.8,2.9 -5.4,6.8 1,7.7 13.4,6.7 12.4,-1.6 -0.5,-4.2 -3.9,-5.7 -7,-5.2 z"
             id="path193"
             inkscape:connector-curvature="0" /><path
             d="m 775.2,495.3 c -3.1,0.2 -6.2,2.3 -6.1,6.2 0.2,7.8 12.7,8.1 12.5,-0.3 -0.2,-4.2 -3.3,-6.1 -6.4,-5.9 z"
             id="path195"
             inkscape:connector-curvature="0" /></g><g
           id="g197"><path
             d="m 884.6,534.6 c -0.5,5.9 4,9.4 8.7,9.9 4.7,0.5 9.6,-2.1 10.1,-8.4 0.9,-12.7 -17.9,-13.3 -18.8,-1.5 z"
             id="path199"
             inkscape:connector-curvature="0" /><path
             d="m 880,570.1 c -0.5,2.9 0.2,5.3 1.7,7.2 1.4,1.8 3.5,3 5.8,3.5 2.3,0.5 4.8,0.2 6.8,-0.9 2,-1.2 3.6,-3.3 4.1,-6.4 2.3,-12.5 -16.4,-15 -18.4,-3.4 z"
             id="path201"
             inkscape:connector-curvature="0" /><path
             d="m 871.6,605.3 c -1.5,5.7 1.8,9.9 6.3,11.4 4.4,1.5 10.1,0 11.7,-6.1 3.5,-12.1 -14.8,-16.6 -18,-5.3 z"
             id="path203"
             inkscape:connector-curvature="0" /><path
             d="m 859.7,639.1 c -2.2,5.5 0.7,10.1 5,12 4.2,1.9 10,1 12.4,-4.8 4.6,-11.8 -13.1,-18.2 -17.4,-7.2 z"
             id="path205"
             inkscape:connector-curvature="0" /><path
             d="m 844.1,671.8 c -5.9,10.2 10.2,20 16.5,9 5.8,-11.3 -11.1,-19.5 -16.5,-9 z"
             id="path207"
             inkscape:connector-curvature="0" /><path
             d="m 838.2,700 c -4,-2.6 -9.4,-2.5 -12.8,2.3 -6.8,9.6 8.2,21 15.5,10.7 3.6,-5.2 1.2,-10.5 -2.7,-13 z"
             id="path209"
             inkscape:connector-curvature="0" /><path
             d="m 816.3,730.1 c -3.7,-3 -9.1,-3.5 -13.1,0.9 -7.7,8.9 6,21.8 14.3,12.2 4.2,-4.7 2.5,-10.1 -1.2,-13.1 z"
             id="path211"
             inkscape:connector-curvature="0" /><path
             d="m 778.6,757 c -4.3,4.1 -3.3,9.6 -0.2,13.1 3.2,3.5 8.6,4.9 13.2,0.5 9.1,-8.7 -4.5,-21.8 -13,-13.6 z"
             id="path213"
             inkscape:connector-curvature="0" /><path
             d="m 751.1,780.6 c -4.6,3.7 -4.4,9.1 -1.6,13 2.7,3.8 8.2,5.9 13.1,2 9.9,-7.9 -2.3,-22.3 -11.5,-15 z"
             id="path215"
             inkscape:connector-curvature="0" /><path
             d="m 721.6,800.9 c -5,3.1 -5.3,8.6 -3,12.7 2.3,4 7.5,6.7 12.8,3.4 10.7,-6.9 0.1,-22.5 -9.8,-16.1 z"
             id="path217"
             inkscape:connector-curvature="0" /><path
             d="m 689.8,818.2 c -10.7,4.8 -3.4,22.2 8.1,17 11.3,-5.7 2.4,-22.3 -8.1,-17 z"
             id="path219"
             inkscape:connector-curvature="0" /><path
             d="m 664,832.4 c -2,-1.1 -4.5,-1.4 -7.3,-0.5 -11.2,3.8 -5.7,21.8 6.3,17.8 3,-1 4.8,-2.9 5.6,-5.2 0.8,-2.2 0.7,-4.7 -0.1,-6.9 -0.9,-2.2 -2.4,-4.1 -4.5,-5.2 z"
             id="path221"
             inkscape:connector-curvature="0" /><path
             d="m 622,842.2 c -11.5,2.6 -8,21.2 4.4,18.3 6.2,-1.3 7.9,-6.8 6.7,-11.4 -1.3,-4.5 -5.3,-8.2 -11.1,-6.9 z"
             id="path223"
             inkscape:connector-curvature="0" /><path
             d="m 586.8,848.7 c -11.7,1.5 -10.1,20.3 2.4,18.7 6.3,-0.8 8.6,-5.9 7.9,-10.6 -0.8,-4.6 -4.4,-8.8 -10.3,-8.1 z"
             id="path225"
             inkscape:connector-curvature="0" /><path
             d="m 550.7,851.5 c -11.8,0.3 -12.2,19.1 0.5,18.8 12.6,-0.3 11.3,-19.1 -0.5,-18.8 z"
             id="path227"
             inkscape:connector-curvature="0" /><path
             d="m 514.8,850.6 c -5.9,-0.5 -9.4,4 -9.9,8.7 -0.5,4.7 2.1,9.6 8.4,10.1 12.7,0.9 13.3,-17.9 1.5,-18.8 z"
             id="path229"
             inkscape:connector-curvature="0" /><path
             d="m 478.9,845.9 c -2.9,-0.5 -5.3,0.2 -7.2,1.7 -1.8,1.4 -3,3.5 -3.5,5.8 -0.5,2.3 -0.2,4.8 0.9,6.9 1.2,2 3.3,3.6 6.4,4.1 12.5,2.3 15,-16.4 3.4,-18.5 z"
             id="path231"
             inkscape:connector-curvature="0" /><path
             d="m 444.1,837.6 c -5.7,-1.5 -9.9,1.8 -11.4,6.3 -1.5,4.4 0,10.1 6.1,11.7 12.2,3.5 16.6,-14.8 5.3,-18 z"
             id="path233"
             inkscape:connector-curvature="0" /><path
             d="m 409.9,825.6 c -5.5,-2.2 -10.1,0.7 -12,5 -1.9,4.2 -1,10 4.8,12.4 11.8,4.6 18.2,-13.1 7.2,-17.4 z"
             id="path235"
             inkscape:connector-curvature="0" /><path
             d="m 377.6,810.2 c -10.2,-5.9 -20,10.2 -9,16.6 11.3,5.7 19.5,-11.2 9,-16.6 z"
             id="path237"
             inkscape:connector-curvature="0" /><path
             d="m 346.8,791.2 c -9.6,-6.8 -21,8.2 -10.7,15.5 2.5,1.9 5.2,2.1 7.5,1.5 2.3,-0.6 4.2,-2.2 5.5,-4.2 1.3,-2 1.9,-4.4 1.6,-6.6 -0.3,-2.3 -1.5,-4.4 -3.9,-6.2 z"
             id="path239"
             inkscape:connector-curvature="0" /><path
             d="m 306.1,783.7 c 4.7,4.2 10.2,2.4 13.1,-1.3 3,-3.7 3.5,-9.1 -0.9,-13.1 -8.8,-7.6 -21.7,6.1 -12.2,14.4 z"
             id="path241"
             inkscape:connector-curvature="0" /><path
             d="m 279,744.2 c -3.5,3.2 -4.9,8.6 -0.5,13.2 8.7,9.2 21.8,-4.4 13.7,-13 -4.2,-4.2 -9.7,-3.3 -13.2,-0.2 z"
             id="path243"
             inkscape:connector-curvature="0" /><path
             d="m 255.8,715.6 c -3.8,2.7 -5.9,8.2 -2,13.1 7.8,10 22.2,-2.2 14.9,-11.5 -3.6,-4.6 -9,-4.4 -12.9,-1.6 z"
             id="path245"
             inkscape:connector-curvature="0" /><path
             d="m 235.5,684.4 c -4.1,2.3 -6.7,7.5 -3.4,12.8 6.8,10.7 22.4,0.1 16.1,-9.9 -3.1,-4.9 -8.5,-5.2 -12.7,-2.9 z"
             id="path247"
             inkscape:connector-curvature="0" /><path
             d="m 231.1,656 c -4.8,-10.7 -22.2,-3.4 -17,8.1 5.7,11.3 22.3,2.4 17,-8.1 z"
             id="path249"
             inkscape:connector-curvature="0" /><path
             d="m 216.8,629.8 c 1.1,-2 1.4,-4.5 0.5,-7.3 -3.8,-11.2 -21.8,-5.7 -17.8,6.3 1,3 2.9,4.8 5.2,5.6 2.2,0.8 4.7,0.7 6.9,-0.1 2.1,-0.9 4.1,-2.5 5.2,-4.5 z"
             id="path251"
             inkscape:connector-curvature="0" /><path
             d="m 207.1,588.2 c -2.6,-11.5 -21.2,-8 -18.3,4.4 1.3,6.2 6.9,7.9 11.4,6.7 4.5,-1.3 8.1,-5.3 6.9,-11.1 z"
             id="path253"
             inkscape:connector-curvature="0" /><path
             d="m 192.4,562.9 c 4.6,-0.7 8.8,-4.4 8.1,-10.3 -1.5,-11.7 -20.3,-10.2 -18.7,2.4 0.8,6.2 5.9,8.6 10.6,7.9 z"
             id="path255"
             inkscape:connector-curvature="0" /><path
             d="m 188.6,526.3 c 4.7,-0.3 9.3,-3.5 9.2,-9.4 -0.3,-11.8 -19.1,-12.2 -18.8,0.5 0.1,6.2 4.8,9.1 9.6,8.9 z"
             id="path257"
             inkscape:connector-curvature="0" /><path
             d="m 198.7,480.6 c 0.5,-5.9 -4,-9.4 -8.7,-9.9 -4.7,-0.5 -9.6,2.1 -10.1,8.4 -1,12.7 17.9,13.3 18.8,1.5 z"
             id="path259"
             inkscape:connector-curvature="0" /><path
             d="m 203.3,445.1 c 0.5,-2.9 -0.2,-5.3 -1.7,-7.2 -1.4,-1.8 -3.5,-3 -5.8,-3.5 -2.3,-0.5 -4.8,-0.2 -6.8,0.9 -2,1.2 -3.6,3.3 -4.1,6.4 -2.4,12.5 16.3,15 18.4,3.4 z"
             id="path261"
             inkscape:connector-curvature="0" /><path
             d="m 211.7,409.9 c 1.5,-5.7 -1.8,-9.9 -6.3,-11.4 -4.4,-1.5 -10.1,0 -11.7,6.1 -3.6,12.1 14.7,16.6 18,5.3 z"
             id="path263"
             inkscape:connector-curvature="0" /><path
             d="m 223.6,376.1 c 2.2,-5.5 -0.7,-10.1 -5,-12 -4.2,-1.9 -10,-1 -12.4,4.8 -4.7,11.8 13.1,18.2 17.4,7.2 z"
             id="path265"
             inkscape:connector-curvature="0" /><path
             d="m 239.1,343.4 c 5.9,-10.2 -10.2,-20 -16.5,-9 -5.8,11.3 11.2,19.5 16.5,9 z"
             id="path267"
             inkscape:connector-curvature="0" /><path
             d="m 257.9,312.9 c 6.8,-9.6 -8.2,-21 -15.5,-10.7 -3.6,5.1 -1.2,10.5 2.7,13 4,2.6 9.4,2.6 12.8,-2.3 z"
             id="path269"
             inkscape:connector-curvature="0" /><path
             d="m 265.7,272 c -4.2,4.7 -2.4,10.2 1.3,13.1 3.7,2.9 9.1,3.5 13.1,-0.9 7.6,-8.9 -6.1,-21.8 -14.4,-12.2 z"
             id="path271"
             inkscape:connector-curvature="0" /><path
             d="m 304.8,245.1 c -3.2,-3.5 -8.6,-4.9 -13.2,-0.5 -9.2,8.7 4.4,21.8 13,13.7 4.3,-4.2 3.3,-9.7 0.2,-13.2 z"
             id="path273"
             inkscape:connector-curvature="0" /><path
             d="m 333.8,221.7 c -2.7,-3.8 -8.2,-5.9 -13.1,-2 -10,7.8 2.2,22.2 11.5,14.9 4.6,-3.7 4.4,-9 1.6,-12.9 z"
             id="path275"
             inkscape:connector-curvature="0" /><path
             d="m 364.6,201.6 c -2.3,-4 -7.5,-6.7 -12.8,-3.4 -10.7,6.8 -0.1,22.4 9.9,16 5,-3 5.3,-8.4 2.9,-12.6 z"
             id="path277"
             inkscape:connector-curvature="0" /><path
             d="m 385.3,180 c -11.3,5.7 -2.4,22.3 8.1,17 10.8,-4.9 3.5,-22.3 -8.1,-17 z"
             id="path279"
             inkscape:connector-curvature="0" /><path
             d="m 420.2,165.5 c -3,1 -4.8,2.9 -5.6,5.2 -0.8,2.2 -0.7,4.7 0.1,6.9 0.8,2.2 2.4,4.1 4.4,5.2 2,1.1 4.5,1.4 7.3,0.5 11.3,-3.8 5.8,-21.8 -6.2,-17.8 z"
             id="path281"
             inkscape:connector-curvature="0" /><path
             d="m 456.9,154.7 c -6.2,1.3 -7.9,6.8 -6.7,11.4 1.2,4.5 5.3,8.2 11.1,6.9 11.4,-2.6 7.9,-21.1 -4.4,-18.3 z"
             id="path283"
             inkscape:connector-curvature="0" /><path
             d="m 494,147.9 c -6.3,0.8 -8.6,5.9 -7.9,10.6 0.7,4.6 4.4,8.8 10.3,8.1 11.7,-1.5 10.2,-20.3 -2.4,-18.7 z"
             id="path285"
             inkscape:connector-curvature="0" /><path
             d="m 532.1,144.9 c -12.7,0.3 -11.3,19.1 0.5,18.8 11.8,-0.3 12.2,-19.1 -0.5,-18.8 z"
             id="path287"
             inkscape:connector-curvature="0" /><path
             d="m 569.8,145.9 c -12.6,-1 -13.2,17.9 -1.4,18.8 5.9,0.5 9.4,-4 9.9,-8.7 0.5,-4.8 -2.2,-9.7 -8.5,-10.1 z"
             id="path289"
             inkscape:connector-curvature="0" /><path
             d="m 614.1,154.9 c -1.2,-2 -3.3,-3.6 -6.4,-4.1 -12.5,-2.2 -15,16.4 -3.4,18.5 2.9,0.5 5.3,-0.2 7.2,-1.7 1.8,-1.4 3,-3.5 3.5,-5.8 0.5,-2.3 0.3,-4.8 -0.9,-6.9 z"
             id="path291"
             inkscape:connector-curvature="0" /><path
             d="m 644.5,159.5 c -12.2,-3.5 -16.7,14.8 -5.3,18.1 5.7,1.5 9.9,-1.8 11.4,-6.3 1.4,-4.5 0,-10.1 -6.1,-11.8 z"
             id="path293"
             inkscape:connector-curvature="0" /><path
             d="m 680.5,172.2 c -11.8,-4.7 -18.2,13.1 -7.2,17.4 5.5,2.2 10.1,-0.7 12,-5 1.9,-4.2 1.1,-10 -4.8,-12.4 z"
             id="path295"
             inkscape:connector-curvature="0" /><path
             d="m 714.6,188.5 c -11.3,-5.8 -19.5,11.2 -9,16.6 10.2,5.8 20,-10.3 9,-16.6 z"
             id="path297"
             inkscape:connector-curvature="0" /><path
             d="m 747.2,208.5 c -2.5,-1.9 -5.2,-2.1 -7.5,-1.5 -2.3,0.6 -4.2,2.2 -5.5,4.2 -1.3,2 -1.9,4.4 -1.6,6.6 0.3,2.3 1.5,4.4 3.9,6.2 9.6,6.8 21,-8.1 10.7,-15.5 z"
             id="path299"
             inkscape:connector-curvature="0" /><path
             d="m 777.1,231.5 c -4.7,-4.2 -10.2,-2.4 -13.1,1.3 -3,3.7 -3.5,9.1 0.9,13.1 8.9,7.7 21.8,-6.1 12.2,-14.4 z"
             id="path301"
             inkscape:connector-curvature="0" /><path
             d="m 804.8,257.8 c -8.7,-9.2 -21.8,4.4 -13.7,13 4.1,4.3 9.6,3.3 13.1,0.2 3.6,-3.2 5,-8.6 0.6,-13.2 z"
             id="path303"
             inkscape:connector-curvature="0" /><path
             d="m 829.4,286.5 c -7.8,-10 -22.2,2.2 -14.9,11.5 3.7,4.6 9.1,4.4 13,1.6 3.7,-2.7 5.8,-8.2 1.9,-13.1 z"
             id="path305"
             inkscape:connector-curvature="0" /><path
             d="m 851.1,317.9 c -6.8,-10.7 -22.4,-0.1 -16.1,9.9 3.1,5.1 8.6,5.3 12.7,3 4.1,-2.3 6.7,-7.5 3.4,-12.9 z"
             id="path307"
             inkscape:connector-curvature="0" /><path
             d="m 852.2,359.2 c 4.8,10.7 22.2,3.4 17,-8.1 -5.8,-11.3 -22.4,-2.4 -17,8.1 z"
             id="path309"
             inkscape:connector-curvature="0" /><path
             d="m 866.5,385.4 c -1.1,2 -1.4,4.5 -0.5,7.3 3.8,11.2 21.8,5.7 17.8,-6.3 -1,-3 -2.9,-4.8 -5.2,-5.6 -2.2,-0.8 -4.7,-0.7 -6.9,0.1 -2.2,0.9 -4.1,2.5 -5.2,4.5 z"
             id="path311"
             inkscape:connector-curvature="0" /><path
             d="m 876.1,427 c 2.6,11.5 21.2,8 18.3,-4.4 -1.3,-6.2 -6.9,-7.9 -11.4,-6.7 -4.5,1.3 -8.1,5.3 -6.9,11.1 z"
             id="path313"
             inkscape:connector-curvature="0" /><path
             d="m 890.8,452.3 c -4.6,0.7 -8.8,4.4 -8.1,10.3 1.5,11.7 20.3,10.2 18.7,-2.4 -0.8,-6.2 -5.9,-8.6 -10.6,-7.9 z"
             id="path315"
             inkscape:connector-curvature="0" /><path
             d="m 894.7,488.9 c -4.7,0.3 -9.3,3.5 -9.2,9.4 0.3,11.8 19.1,12.2 18.8,-0.5 -0.1,-6.2 -4.9,-9.1 -9.6,-8.9 z"
             id="path317"
             inkscape:connector-curvature="0" /></g></g></g></switch></svg>