<?xml version="1.0" encoding="UTF-8" standalone="no"?>
<svg
   xmlns:dc="http://purl.org/dc/elements/1.1/"
   xmlns:cc="http://creativecommons.org/ns#"
   xmlns:rdf="http://www.w3.org/1999/02/22-rdf-syntax-ns#"
   xmlns:svg="http://www.w3.org/2000/svg"
   xmlns="http://www.w3.org/2000/svg"
   xmlns:sodipodi="http://sodipodi.sourceforge.net/DTD/sodipodi-0.dtd"
   xmlns:inkscape="http://www.inkscape.org/namespaces/inkscape"
   version="1.1"
   id="Layer_1"
   x="0px"
   y="0px"
   viewBox="0 0 1000 1000"
   width="100%"
   height="100%"
   style="enable-background:new 0 0 1000 1000;"
   xml:space="preserve"
   ><style
     type="text/css"
     id="style3">
	.noFillSVG{fill:none;}
</style><switch
     id="switch5"
     transform="translate(-42.85,-13.55)"><g
       id="g7"><g
         id="g9"><path
           class="noFillSVG"
           d="m 807.3,333.1 c -9,-13.2 -19.1,-25.6 -29.9,-37.4 l -8.3,-8.7 -8.7,-8.3 c -2.8,-2.8 -6,-5.3 -8.9,-8 l -4.5,-3.9 c -1.5,-1.3 -3.1,-2.5 -4.7,-3.7 -12.4,-10.1 -25.7,-19 -39.5,-27 -6.8,-4.1 -14,-7.6 -21.1,-11.3 -7.3,-3.3 -14.5,-6.7 -22,-9.5 -3.7,-1.5 -7.4,-3 -11.2,-4.2 -3.8,-1.3 -7.5,-2.6 -11.3,-3.8 l -11.5,-3.3 -2.9,-0.8 -2.9,-0.7 -5.8,-1.3 -5.8,-1.4 c -1.9,-0.4 -3.9,-0.7 -5.9,-1.1 -3.9,-0.7 -7.8,-1.5 -11.8,-2.1 l -11.9,-1.5 -3,-0.4 -3,-0.2 -6,-0.5 c -7.9,-0.8 -16,-0.7 -23.9,-1 -8,0.3 -16,0.2 -23.9,1 l -6,0.5 -3,0.2 -3,0.4 -11.9,1.5 c -3.9,0.6 -7.9,1.4 -11.8,2.1 -2,0.4 -3.9,0.6 -5.9,1.1 l -5.8,1.4 -5.8,1.3 -2.9,0.7 -2.9,0.8 -11.5,3.3 c -3.8,1.2 -7.6,2.5 -11.3,3.8 -3.8,1.2 -7.5,2.7 -11.2,4.2 -7.5,2.8 -14.7,6.2 -22,9.5 -7.1,3.7 -14.3,7.1 -21.1,11.3 -13.8,8 -27.1,16.9 -39.5,27 -1.6,1.2 -3.2,2.4 -4.7,3.7 l -4.5,3.9 c -3,2.7 -6.1,5.1 -8.9,8 l -8.7,8.3 -8.3,8.7 c -10.8,11.8 -20.9,24.2 -29.9,37.4 -8.9,13.2 -16.9,27.1 -24,41.4 -6.8,14.4 -12.6,29.3 -17.5,44.5 -4.6,15.3 -8.1,30.9 -10.6,46.6 -2.3,15.8 -3.4,31.7 -3.6,47.7 0.2,16 1.3,31.9 3.6,47.7 2.5,15.8 5.9,31.4 10.6,46.6 4.8,15.2 10.6,30.1 17.5,44.5 7,14.3 15.1,28.1 24,41.4 9,13.2 19.1,25.6 29.9,37.4 l 8.3,8.7 8.7,8.3 c 2.8,2.8 6,5.3 8.9,8 l 4.5,3.9 c 1.5,1.3 3.1,2.5 4.7,3.7 12.4,10.1 25.7,19 39.5,27 6.8,4.1 14,7.6 21.1,11.3 7.3,3.3 14.5,6.7 22,9.5 3.7,1.5 7.4,3 11.2,4.2 3.8,1.3 7.5,2.6 11.3,3.8 l 11.5,3.3 2.9,0.8 2.9,0.7 5.8,1.3 5.8,1.4 c 1.9,0.4 3.9,0.7 5.9,1.1 3.9,0.7 7.8,1.5 11.8,2.1 l 11.9,1.5 3,0.4 3,0.2 6,0.5 c 7.9,0.8 16,0.7 23.9,1 8,-0.3 16,-0.2 23.9,-1 l 6,-0.5 3,-0.2 3,-0.4 11.9,-1.5 c 3.9,-0.6 7.9,-1.4 11.8,-2.1 2,-0.4 3.9,-0.6 5.9,-1.1 l 5.8,-1.4 5.8,-1.3 2.9,-0.7 2.9,-0.8 11.5,-3.3 c 3.8,-1.2 7.6,-2.5 11.3,-3.8 3.8,-1.2 7.5,-2.7 11.2,-4.2 7.5,-2.8 14.7,-6.2 22,-9.5 7.1,-3.7 14.3,-7.1 21.1,-11.3 13.8,-8 27.1,-16.9 39.5,-27 1.6,-1.2 3.2,-2.4 4.7,-3.7 l 4.5,-3.9 c 3,-2.7 6.1,-5.1 8.9,-8 l 8.7,-8.3 8.3,-8.7 c 10.8,-11.8 20.9,-24.2 29.9,-37.4 8.9,-13.2 16.9,-27.1 24,-41.4 6.8,-14.4 12.6,-29.3 17.5,-44.5 4.6,-15.3 8.1,-30.9 10.6,-46.6 2.3,-15.8 3.4,-31.7 3.6,-47.7 -0.2,-16 -1.3,-31.9 -3.6,-47.7 -2.5,-15.8 -5.9,-31.4 -10.6,-46.6 -4.8,-15.2 -10.6,-30.1 -17.5,-44.5 -7,-14.4 -15,-28.2 -24,-41.4 z"
           id="path11"
           inkscape:connector-curvature="0"
           style="fill:none" /><path
           d="m 888.1,639.5 -33,-12.1 c 1.8,-5.4 3.7,-10.8 5.4,-16.2 l -3.6,-1.1 c -0.9,3 -2,5.9 -2.9,8.8 -1,2.9 -1.9,5.9 -3.1,8.8 -0.2,0.6 -0.1,1 0.1,1.4 0.2,0.4 0.5,0.8 1.1,1 l 32.7,12.4 -5.1,12.9 -5.7,12.6 -6,-2.8 c 2.6,-5.9 5.5,-11.7 7.7,-17.8 0.6,-1.6 -0.7,-2.7 -2,-2.6 -0.1,0 -0.1,-0.1 -0.2,-0.2 l -23.2,-9.2 c -1.2,-0.5 -2.1,0.2 -2.4,1.1 -0.1,0.1 -0.2,0.2 -0.2,0.3 -0.7,1.6 -1.3,3.2 -2,4.8 l -2.3,4.7 -4.5,9.4 0,0 -4.2,8.3 c -1.4,2.7 -2.8,5.6 -4.4,8.2 -0.3,0.5 -0.3,1 -0.1,1.5 0.1,0.5 0.4,0.9 0.9,1.2 l 30.5,17.1 c -2.3,4 -4.5,8 -7,12 l -7.5,11.6 -5.5,-3.7 5.2,-8.2 2.6,-4.1 c 0.8,-1.4 1.6,-2.8 2.4,-4.2 0.8,-1.5 -0.3,-2.8 -1.6,-2.8 -0.1,-0.1 -0.1,-0.1 -0.2,-0.2 l -21.5,-12.6 c -1.1,-0.6 -2.1,-0.1 -2.5,0.7 -0.1,0.1 -0.2,0.2 -0.3,0.3 -1.7,3 -3.8,5.8 -5.7,8.7 -2,2.9 -3.8,5.8 -5.9,8.6 l 0.9,0.6 -0.9,-0.6 -5.4,7.6 -2.7,3.8 -2.9,3.7 c -0.4,0.5 -0.4,1 -0.3,1.4 0,0.5 0.2,0.9 0.7,1.3 l 27.6,21.5 -4.3,5.4 -2.1,2.7 -2.3,2.6 -9.1,10.5 -4.9,-4.4 c 4.2,-4.9 8.6,-9.7 12.6,-14.7 1.1,-1.3 0.1,-2.8 -1.1,-3.1 -0.1,-0.1 -0.1,-0.2 -0.2,-0.2 l -19.4,-15.7 c -1,-0.8 -2,-0.4 -2.6,0.4 -0.1,0.1 -0.2,0.1 -0.3,0.2 -2.2,2.7 -4.6,5.2 -6.9,7.8 -2.3,2.6 -4.6,5.2 -7.1,7.6 l 0,0 c -4.3,4.5 -8.5,9.1 -13.1,13.3 -0.4,0.4 -0.6,0.9 -0.5,1.4 0,0.5 0.1,1 0.5,1.4 l 24.1,25.3 -5,4.8 c -1.7,1.6 -3.5,3 -5.2,4.6 -3.5,3 -6.9,6.1 -10.5,9 l -4.2,-5.1 c 5,-4.1 9.8,-8.4 14.7,-12.6 1.2,-1.2 0.5,-2.8 -0.7,-3.2 -0.1,-0.1 -0.1,-0.2 -0.1,-0.2 l -16.9,-18.4 c -0.8,-0.9 -1.9,-0.7 -2.6,0 -0.1,0.1 -0.2,0.1 -0.3,0.2 l -8,6.6 -4,3.3 -4.2,3.1 1.3,1.6 -1.3,-1.6 -7.3,5.8 c -2.5,1.9 -5,3.6 -7.6,5.4 -0.5,0.3 -0.7,0.8 -0.7,1.3 -0.1,0.5 -0.1,1 0.3,1.5 l 20.1,28.6 c -1.9,1.3 -3.7,2.7 -5.7,4 l -5.8,3.7 -5.8,3.7 -2.9,1.9 -3,1.7 -3.4,-5.7 c 2.8,-1.6 5.5,-3.3 8.3,-5.1 l 8.2,-5.2 c 1.4,-0.9 0.9,-2.6 -0.2,-3.2 0,-0.1 0,-0.2 -0.1,-0.3 l -14,-20.7 c -0.7,-1 -1.8,-1 -2.6,-0.5 -0.1,0 -0.2,0.1 -0.4,0.1 -5.9,3.6 -11.8,7.4 -17.9,10.5 l 0,0 -8.1,4.6 -8.3,4.2 c -0.5,0.3 -0.8,0.7 -0.9,1.2 -0.2,0.4 -0.2,1 0.1,1.5 l 15.6,31.3 c -4.1,2.2 -8.3,4 -12.5,5.9 -4.2,1.9 -8.4,3.8 -12.7,5.5 l -2.5,-6.1 4.5,-1.8 4.4,-2 8.8,-4 c 1.5,-0.7 1.3,-2.4 0.3,-3.2 0,-0.1 0,-0.2 -0.1,-0.3 L 685.1,812 c -0.5,-1.1 -1.7,-1.3 -2.5,-0.9 -0.1,0 -0.2,0 -0.4,0.1 l -9.6,4.1 c -3.2,1.4 -6.5,2.4 -9.7,3.7 l 1.4,3.5 c 3.1,-1.2 6.2,-2.2 9.2,-3.4 l 9.1,-3.8 9.4,20.3 c -5.7,2.6 -11.4,5.3 -17.3,7.4 -1.2,0.5 -1.4,1.6 -1.1,2.4 0,0.3 0,0.5 0.1,0.8 l 3.5,8.9 c 0.2,0.5 0.5,0.8 0.9,0.9 0,0 0.1,0.1 0.1,0.1 l 0.1,0 c 0.4,0.1 0.9,0.2 1.4,0 2.5,-1 4.9,-1.9 7.4,-2.9 l 7.2,-3.3 7.2,-3.3 c 2.4,-1.1 4.7,-2.4 7.1,-3.5 1.1,-0.4 1.9,-1.5 1.3,-2.7 l -16,-31.3 7.6,-3.9 7.4,-4.3 -0.8,-1.4 0.8,1.4 c 5.8,-3 11.4,-6.5 17,-9.9 l 12.3,18.7 -7.9,5.1 c -1.3,0.8 -2.6,1.7 -4,2.5 l -4.1,2.3 c -1.1,0.6 -1.2,1.8 -0.7,2.6 0,0.3 0.1,0.5 0.2,0.8 l 4.8,8.2 c 0.3,0.4 0.6,0.7 1,0.8 0.1,0 0.1,0 0.2,0.1 l 0.2,0 c 0.4,0.1 0.9,0 1.4,-0.2 4.6,-2.5 9,-5.5 13.5,-8.3 l 6.7,-4.3 6.5,-4.6 c 1,-0.5 1.7,-1.7 0.9,-2.8 l -20.5,-28.6 c 2.3,-1.7 4.7,-3.2 6.9,-5 l 6.7,-5.3 0,0 3.9,-2.9 c 1.3,-1 2.5,-2.1 3.8,-3.1 l 7.6,-6.3 15,16.6 -7.1,6.2 c -2.4,2.1 -4.7,4.1 -7.2,6 -1,0.8 -0.9,1.9 -0.3,2.6 0.1,0.3 0.2,0.5 0.4,0.8 l 6,7.4 c 0.3,0.4 0.7,0.6 1.1,0.6 0.1,0 0.1,0 0.2,0 l 0.2,0 c 0.4,0 0.9,-0.1 1.3,-0.4 l 3.1,-2.5 3,-2.6 6,-5.2 c 4.1,-3.4 7.8,-7.1 11.6,-10.7 0.9,-0.7 1.4,-1.9 0.5,-2.9 l -24.5,-25.2 3.1,-3 c 1,-1 2,-2.1 3,-3.1 l 5.9,-6.2 -0.5,-0.4 0.5,0.5 c 2.4,-2.3 4.5,-4.7 6.7,-7.2 l 6.6,-7.3 17.3,14.2 c -4.1,4.7 -8.2,9.5 -12.4,14.2 -0.9,0.9 -0.6,2 0.1,2.6 0.1,0.2 0.2,0.5 0.5,0.7 l 7,6.5 c 0.4,0.4 0.8,0.5 1.2,0.5 0.1,0 0.1,0 0.2,0 l 0.2,0 c 0.4,0 0.9,-0.2 1.2,-0.6 3.6,-3.9 7,-7.9 10.4,-11.9 l 2.6,-3 2.4,-3.1 4.9,-6.2 c 0.8,-0.8 1.1,-2.1 0.1,-2.9 l -28,-21.3 c 1.8,-2.2 3.4,-4.6 5.1,-6.9 l 5,-7 0,0 c 2,-2.6 3.7,-5.4 5.6,-8.1 1.8,-2.7 3.8,-5.4 5.4,-8.2 l 19.2,11.5 c -3.2,5.4 -6.7,10.6 -10.1,15.9 -0.7,1 -0.3,2.1 0.5,2.6 0.1,0.2 0.3,0.4 0.6,0.6 l 7.9,5.4 c 0.4,0.3 0.9,0.3 1.3,0.3 0.1,0 0.1,0 0.2,0 l 0.1,-0.1 c 0.4,-0.1 0.8,-0.3 1.1,-0.8 l 8.5,-13.3 c 2.8,-4.5 5.3,-9.1 8,-13.7 0.7,-0.9 0.8,-2.3 -0.4,-2.9 l -30.9,-16.9 c 2.7,-5 5.2,-10.1 7.9,-15.2 l -1.3,-0.6 1.3,0.6 4.3,-8.9 c 1.4,-3 2.9,-5.9 4.1,-8.9 l 20.7,8.5 c -1.1,2.9 -2.4,5.8 -3.7,8.6 l -3.9,8.6 c -0.5,1.1 0.1,2.1 0.9,2.5 0.2,0.2 0.4,0.4 0.7,0.5 l 8.6,4.1 c 0.5,0.2 0.9,0.2 1.3,0.1 0.1,0 0.1,0 0.2,0 l 0.1,-0.1 c 0.4,-0.2 0.7,-0.5 1,-1 l 6.5,-14.4 5.8,-14.7 c 0.2,-1.1 0.2,-2.5 -1.1,-3 z"
           id="path13"
           inkscape:connector-curvature="0" /><path
           d="M 664.3,822.5 663,819 c -2.9,1.1 -5.7,2.4 -8.7,3.3 l -8.8,3 c -0.6,0.2 -0.9,0.6 -1.1,1 -0.2,0.4 -0.3,0.9 -0.1,1.5 l 10.7,33.3 -3.3,1.1 -3.3,1 -6.7,1.9 -6.7,1.9 c -2.2,0.6 -4.5,1.1 -6.7,1.6 l -1.5,-6.4 c 6.3,-1.3 12.5,-3.3 18.7,-5 1.6,-0.5 1.7,-2.2 0.8,-3.1 0,-0.1 0,-0.2 0,-0.3 l -7.2,-23.9 c -0.4,-1.2 -1.5,-1.5 -2.3,-1.2 -0.1,0 -0.2,0 -0.4,0 l -10.1,2.6 c -3.4,0.8 -6.8,1.4 -10.2,2.2 l 0,0 -4.5,1 c -1.5,0.4 -3,0.7 -4.6,0.9 l -9.2,1.6 c -0.6,0.1 -1,0.4 -1.2,0.8 -0.3,0.4 -0.5,0.9 -0.4,1.5 l 5.6,34.5 -3.4,0.6 -3.4,0.4 -6.9,0.9 -6.9,0.9 c -2.3,0.3 -4.6,0.4 -6.9,0.6 l -0.6,-6.6 c 6.5,-0.3 12.8,-1.4 19.3,-2.2 1.7,-0.2 2,-1.9 1.3,-3 0,-0.1 0,-0.2 0,-0.3 l -3.6,-24.7 c -0.2,-1.2 -1.2,-1.7 -2.1,-1.5 -0.1,0 -0.2,0 -0.4,0 l -10.4,1.1 c -3.5,0.3 -6.9,0.4 -10.4,0.6 l 0.2,2.2 -0.2,-2.2 c -3.1,0.2 -6.2,0.6 -9.3,0.6 l -9.3,0.2 c -0.6,0 -1,0.3 -1.3,0.7 -0.4,0.3 -0.6,0.8 -0.6,1.4 l 0.4,35 c -4.6,0.2 -9.2,0 -13.8,-0.1 -4.6,-0.1 -9.2,-0.1 -13.8,-0.6 l 0.4,-6.6 c 1.6,0.1 3.2,0.3 4.8,0.3 l 4.8,0.1 9.7,0.2 c 1.7,0 2.2,-1.6 1.7,-2.7 0,-0.1 0.1,-0.2 0.1,-0.3 l 0.1,-24.9 c 0,-1.2 -1,-1.9 -1.9,-1.9 -0.1,0 -0.2,-0.1 -0.4,-0.1 l -10.4,-0.5 -2.6,-0.1 -2.6,-0.3 -5.2,-0.5 -0.1,1.3 0.1,-1.4 -9.3,-0.7 -9.2,-1.2 c -0.6,-0.1 -1.1,0.1 -1.4,0.4 -0.4,0.3 -0.7,0.7 -0.8,1.3 l -4.7,34.6 c -2.3,-0.3 -4.6,-0.5 -6.9,-0.9 l -6.8,-1.2 -6.8,-1.2 -3.4,-0.6 -3.4,-0.8 1.4,-6.4 c 3.1,0.8 6.3,1.3 9.5,1.9 l 9.5,1.7 c 1.7,0.3 2.5,-1.3 2.1,-2.5 0,-0.1 0.1,-0.2 0.1,-0.3 l 3.8,-24.7 c 0.2,-1.2 -0.7,-2 -1.6,-2.1 -0.1,0 -0.2,-0.1 -0.4,-0.1 -6.8,-1.4 -13.6,-2.6 -20.3,-4.5 l -0.8,3.4 0.8,-3.4 -9.1,-2.1 -9,-2.5 c -0.6,-0.2 -1.1,0 -1.4,0.2 -0.4,0.2 -0.8,0.6 -1,1.2 l -9.9,33.5 c -2.2,-0.7 -4.5,-1.2 -6.6,-2 l -6.6,-2.2 c -4.4,-1.5 -8.8,-2.9 -13,-4.6 l 2.3,-6.2 c 1.5,0.6 3,1.2 4.5,1.7 l 4.6,1.6 9.2,3.1 c 1.6,0.5 2.6,-0.9 2.4,-2.1 0,-0.1 0.1,-0.1 0.1,-0.2 L 444,829 c 0.4,-1.2 -0.4,-2.1 -1.3,-2.3 -0.1,-0.1 -0.2,-0.1 -0.3,-0.2 -6.5,-2.4 -13.1,-4.6 -19.4,-7.5 l 0,0 c -2.9,-1.2 -5.8,-2.2 -8.6,-3.5 l -8.5,-3.8 c -0.5,-0.2 -1,-0.2 -1.5,0 -0.5,0.1 -0.9,0.4 -1.1,1 l -14.8,31.7 c -4.2,-1.8 -8.3,-4 -12.4,-6.1 l -6.2,-3.2 c -2.1,-1 -4,-2.3 -6,-3.4 l 3.2,-5.7 4.2,2.4 c 1.4,0.8 2.9,1.5 4.3,2.2 l 8.6,4.4 c 1.5,0.8 2.7,-0.5 2.7,-1.7 0.1,-0.1 0.1,-0.1 0.2,-0.2 L 398,810.7 c 0.5,-1.1 0,-2.1 -0.9,-2.5 -0.1,-0.1 -0.2,-0.2 -0.3,-0.2 l -9.2,-4.9 c -3,-1.7 -6,-3.6 -8.9,-5.3 l -1.1,1.9 1.1,-1.9 c -2.7,-1.6 -5.4,-3 -8,-4.7 l -7.8,-5 c -0.5,-0.3 -1,-0.3 -1.5,-0.2 -0.5,0.1 -0.9,0.3 -1.3,0.8 l -19.4,29.1 c -2,-1.2 -3.8,-2.6 -5.7,-3.9 l -5.6,-4 c -1.9,-1.3 -3.8,-2.7 -5.6,-4 l -5.4,-4.3 4.1,-5.2 c 2.6,2 5,4.1 7.7,5.9 l 7.9,5.6 c 1.4,1 2.8,-0.1 2.9,-1.3 0.1,-0.1 0.1,-0.1 0.2,-0.2 l 14.2,-20.5 c 0.7,-1 0.3,-2.1 -0.5,-2.6 -0.1,-0.1 -0.1,-0.2 -0.3,-0.3 l -8.3,-6.2 -8,-6.6 0,0 -3.7,-2.9 c -1.2,-1 -2.4,-2 -3.5,-3 l -7,-6.1 c -0.5,-0.4 -0.9,-0.5 -1.4,-0.4 -0.5,0 -1,0.2 -1.4,0.6 l -23.5,25.9 c -6.7,-6.3 -13.5,-12.6 -19.7,-19.4 l 4.8,-4.5 6.7,7 7,6.7 c 1.2,1.2 2.8,0.3 3.1,-0.9 0.1,-0.1 0.2,-0.1 0.2,-0.2 L 317,754.8 c 0.9,-0.9 0.6,-2 -0.1,-2.6 -0.1,-0.1 -0.1,-0.2 -0.2,-0.3 -2.4,-2.5 -5,-4.8 -7.3,-7.4 l -7,-7.7 -1.9,1.8 2,-1.8 c -2.2,-2.2 -4.2,-4.6 -6.2,-6.9 l -6.1,-7 c -0.4,-0.4 -0.9,-0.6 -1.3,-0.6 -0.5,-0.1 -1,0 -1.4,0.4 l -27,22.1 -8.5,-10.9 c -2.8,-3.6 -5.4,-7.5 -8.1,-11.2 l 5.4,-3.8 5.6,7.9 c 1.9,2.6 4,5.1 5.9,7.7 1,1.3 2.7,0.7 3.2,-0.4 0.1,0 0.2,-0.1 0.3,-0.1 l 19.6,-15.5 c 1,-0.8 0.9,-1.9 0.2,-2.6 -0.1,-0.1 -0.1,-0.2 -0.2,-0.3 -4.3,-5.5 -8,-11.3 -11.9,-17 l 0,0 c -1.8,-2.5 -3.4,-5.2 -5.1,-7.8 -1.7,-2.6 -3.4,-5.2 -5,-7.9 -0.3,-0.5 -0.7,-0.8 -1.2,-0.8 -0.4,-0.2 -0.9,-0.1 -1.5,0.2 l -30,17.9 -6.9,-12 -6.3,-12.3 5.9,-2.9 c 3,5.7 5.8,11.6 9.1,17.1 0.8,1.5 2.6,1.1 3.2,0.1 0.1,0 0.2,0 0.3,-0.1 l 21.7,-12.4 c 1.1,-0.6 1.1,-1.7 0.6,-2.5 0,-0.1 0,-0.2 -0.1,-0.4 l -2.5,-4.6 -2.3,-4.7 -4.5,-9.4 -1.7,0.8 1.7,-0.8 -3.8,-8.5 c -1.2,-2.8 -2.7,-5.6 -3.7,-8.5 -0.2,-0.6 -0.6,-0.9 -1.1,-1 -0.4,-0.2 -0.9,-0.3 -1.5,0 l -32.4,13.2 c -1.7,-4.3 -3.4,-8.6 -5,-12.9 l -4.4,-13.1 6.3,-2 3.1,9.2 1.6,4.6 1.8,4.5 c 0.6,1.6 2.4,1.5 3.2,0.5 0.1,0 0.2,0 0.3,0 l 23.3,-9 c 1.2,-0.5 1.4,-1.6 1,-2.4 0,-0.1 0,-0.2 -0.1,-0.4 -1.3,-3.2 -2.3,-6.6 -3.3,-9.9 -1,-3.3 -2.1,-6.6 -3.1,-9.9 l 0,0 -2.5,-9 c -0.8,-3 -1.8,-6 -2.4,-9 -0.1,-0.6 -0.5,-0.9 -0.9,-1.1 -0.4,-0.3 -0.9,-0.4 -1.5,-0.3 l -34,8.2 c -1,-4.5 -2.1,-9 -3,-13.5 l -2.4,-13.6 6.5,-1 1.7,9.5 0.9,4.8 c 0.3,1.6 0.7,3.2 1.1,4.7 0.4,1.7 2.1,1.8 3.1,1 0.1,0 0.2,0 0.3,0 l 24.4,-5.4 c 1.2,-0.3 1.6,-1.3 1.3,-2.2 0,-0.1 0,-0.2 0,-0.4 -0.8,-3.4 -1.2,-6.8 -1.8,-10.3 -0.5,-3.4 -1.1,-6.8 -1.6,-10.3 l -3.7,0.6 c 0.4,3.3 1,6.5 1.5,9.7 0.5,3.2 0.9,6.5 1.6,9.7 l -21.9,4.6 c -1.3,-6.1 -2.3,-12.3 -3.4,-18.5 -0.2,-1.2 -1.2,-1.7 -2.2,-1.6 -0.2,-0.1 -0.5,-0.1 -0.8,-0.1 l -9.4,1.4 c -0.5,0.1 -0.9,0.3 -1.1,0.7 0,0 -0.1,0.1 -0.1,0.1 l -0.1,0.1 c -0.2,0.4 -0.3,0.8 -0.3,1.4 L 181,586 c 1,5.2 2.3,10.3 3.5,15.5 0.1,1.1 0.9,2.2 2.3,1.9 l 34.1,-8.6 c 1.4,5.5 3.1,11 4.6,16.5 l 0,0 c 0.9,3.2 1.9,6.3 2.9,9.4 l 1.5,4.7 0.7,2.4 0.9,2.3 -20.9,7.8 c -1.2,-2.9 -2.1,-5.9 -3.1,-8.9 l -3,-8.9 c -0.4,-1.2 -1.5,-1.5 -2.4,-1.2 -0.3,0 -0.5,0 -0.8,0.1 l -9.1,2.8 c -0.5,0.2 -0.8,0.5 -1,0.8 0,0 -0.1,0.1 -0.1,0.1 l 0,0.1 c -0.2,0.4 -0.2,0.8 0,1.4 l 5.1,15 c 1.8,5 3.8,9.8 5.8,14.8 0.3,1.1 1.3,2.1 2.5,1.5 l 32.4,-13.6 c 2.3,5.2 4.7,10.4 7,15.6 l 0,0 4.3,8.9 c 1.4,3 2.8,5.9 4.4,8.8 l -19.5,10.9 c -0.8,-1.4 -1.6,-2.7 -2.3,-4.1 l -2.1,-4.2 -4.3,-8.4 c -0.6,-1.1 -1.7,-1.3 -2.6,-0.9 -0.3,0 -0.5,0.1 -0.8,0.2 l -8.6,4.1 c -0.5,0.2 -0.7,0.6 -0.8,1 0,0.1 -0.1,0.1 -0.1,0.2 l 0,0.1 c -0.1,0.4 -0.1,0.9 0.2,1.4 l 7.2,14.1 7.9,13.7 c 0.4,1.1 1.6,1.8 2.7,1.1 l 30,-18.3 c 3.1,4.8 6.1,9.7 9.3,14.4 l 1.3,-0.9 -1.3,0.9 5.5,8.1 c 0.9,1.4 1.8,2.7 2.8,4.1 l 3,3.9 -18.1,13.6 c -4,-4.9 -7.4,-10.1 -11.1,-15.2 -0.7,-1 -1.9,-1 -2.6,-0.5 -0.3,0 -0.5,0.1 -0.8,0.3 l -7.9,5.4 c -0.4,0.3 -0.6,0.7 -0.7,1.1 0,0.1 0,0.1 0,0.2 l 0,0.2 c 0,0.4 0,0.9 0.4,1.3 3.1,4.3 6,8.7 9.3,12.8 l 9.8,12.4 c 0.6,1 1.9,1.5 2.9,0.7 l 27,-22.6 5.6,6.5 c 1.9,2.2 3.7,4.3 5.7,6.4 l 0,0 c 4.4,4.8 8.8,9.8 13.5,14.3 l -15.5,16.1 c -2.2,-2.2 -4.6,-4.3 -6.8,-6.5 l -6.5,-6.8 c -0.9,-0.9 -2,-0.7 -2.7,-0.1 -0.3,0.1 -0.5,0.2 -0.7,0.4 l -7,6.5 c -0.4,0.4 -0.5,0.8 -0.5,1.2 0,0.1 0,0.1 0,0.2 l 0,0.2 c 0,0.4 0.2,0.9 0.6,1.3 7.2,7.7 14.8,15 22.6,22.2 0.7,0.9 2.1,1.3 3,0.2 l 23.3,-26.3 c 4.3,3.7 8.5,7.6 13.1,11 l 1.3,-1.7 -1.4,1.7 7.6,6.3 c 2.6,2 5.2,3.9 7.9,5.9 l -12.9,18.3 -7.7,-5.5 -7.4,-5.8 c -1,-0.8 -2.1,-0.4 -2.7,0.3 -0.2,0.1 -0.5,0.3 -0.7,0.5 l -5.9,7.5 c -0.3,0.4 -0.4,0.8 -0.4,1.2 0,0.1 0,0.1 0,0.2 l 0,0.1 c 0.1,0.4 0.3,0.8 0.7,1.2 l 6.2,4.9 c 2.1,1.7 4.3,3.1 6.4,4.7 l 6.5,4.6 c 1.1,0.8 2.1,1.5 3.2,2.3 l 3.3,2.1 c 0.9,0.7 2.2,0.9 3,-0.2 l 19.2,-29.5 7.2,4.6 c 2.4,1.5 4.9,2.9 7.4,4.3 l 0,0 c 2.8,1.7 5.6,3.4 8.4,5.1 l 8.7,4.7 -10,20 -8.4,-4.3 c -2.8,-1.4 -5.5,-3.1 -8.2,-4.6 -1.1,-0.6 -2.1,-0.1 -2.6,0.7 -0.2,0.1 -0.4,0.3 -0.6,0.6 l -4.8,8.3 c -0.3,0.4 -0.3,0.9 -0.2,1.3 0,0.1 0,0.1 0,0.2 l 0.1,0.1 c 0.1,0.4 0.4,0.8 0.9,1.1 l 6.9,3.9 7,3.6 c 4.7,2.4 9.4,4.9 14.2,7 1,0.6 2.3,0.6 2.9,-0.6 l 14.5,-32 7.8,3.5 8,3.1 0.7,-1.7 -0.7,1.7 c 3,1.2 6,2.7 9.1,3.7 l 9.2,3.4 -6.9,21.3 c -5.9,-2.1 -11.9,-3.9 -17.7,-6.3 -1.2,-0.5 -2.1,0.2 -2.4,1.1 -0.2,0.2 -0.4,0.4 -0.5,0.7 l -3.5,8.9 c -0.2,0.5 -0.1,0.9 0,1.3 0,0.1 0,0.1 0.1,0.2 l 0.1,0.1 c 0.2,0.4 0.5,0.7 1,0.9 2.5,0.9 4.9,2 7.4,2.8 l 7.5,2.5 7.5,2.5 c 2.5,0.8 5.1,1.5 7.6,2.2 1,0.5 2.4,0.3 2.8,-1 l 9.6,-33.9 c 2.7,0.8 5.5,1.6 8.2,2.3 l 8.3,1.9 0,0 c 6.3,1.8 12.8,2.9 19.2,4.3 l -3.7,22.1 -9.3,-1.7 c -1.5,-0.3 -3.1,-0.5 -4.6,-0.9 l -4.6,-1.1 c -1.2,-0.3 -2,0.5 -2.3,1.4 -0.2,0.2 -0.3,0.4 -0.4,0.8 l -2.1,9.3 c -0.1,0.5 0,0.9 0.2,1.3 0,0.1 0,0.1 0.1,0.2 l 0.1,0.1 c 0.3,0.3 0.6,0.6 1.2,0.8 5.1,1.3 10.3,2.1 15.5,3.1 l 7.8,1.4 c 2.6,0.4 5.2,0.7 7.8,1 1.1,0.3 2.4,-0.1 2.6,-1.5 l 4.4,-34.9 c 2.8,0.3 5.7,0.8 8.5,1.1 l 8.5,0.6 0,0 c 3.3,0.3 6.5,0.8 9.8,0.9 l 9.8,0.5 -0.3,22.4 c -6.3,-0.2 -12.5,-0.2 -18.8,-0.8 -1.3,-0.1 -2,0.8 -2,1.7 -0.1,0.2 -0.2,0.5 -0.2,0.8 l -0.7,9.5 c 0,0.5 0.1,0.9 0.4,1.2 0,0 0.1,0.1 0.1,0.1 l 0.1,0.1 c 0.3,0.3 0.7,0.5 1.3,0.6 2.6,0.2 5.3,0.5 7.9,0.5 l 7.9,0.2 7.9,0.2 c 2.6,0.1 5.3,-0.1 7.9,-0.1 1.1,0.1 2.4,-0.5 2.3,-1.8 l -0.8,-35.2 8.6,-0.2 c 2.9,-0.1 5.7,-0.4 8.5,-0.6 l 0,0 c 3.3,-0.2 6.6,-0.3 9.8,-0.5 l 9.8,-1 3,22.2 -9.3,1.2 c -3.1,0.4 -6.2,0.5 -9.4,0.8 -1.3,0.1 -1.8,1.1 -1.7,2 -0.1,0.2 -0.2,0.5 -0.1,0.8 l 0.7,9.5 c 0,0.5 0.3,0.9 0.6,1.2 0,0 0.1,0.1 0.1,0.1 l 0.1,0.1 c 0.3,0.2 0.8,0.4 1.3,0.4 l 7.9,-0.6 7.9,-1 c 5.2,-0.7 10.5,-1.2 15.7,-2.2 1.1,0 2.3,-0.8 2,-2.2 l -6,-34.7 8.4,-1.5 c 2.8,-0.5 5.6,-1.2 8.4,-1.9 l 0,0 9.6,-2 9.5,-2.5 6.2,21.5 -9.1,2.6 c -3,0.9 -6.1,1.5 -9.1,2.2 -1.2,0.3 -1.6,1.3 -1.4,2.3 -0.1,0.3 -0.1,0.5 0,0.8 l 2.1,9.3 c 0.1,0.5 0.4,0.8 0.8,1.1 0,0 0.1,0.1 0.1,0.1 l 0.1,0.1 c 0.4,0.2 0.8,0.3 1.4,0.2 l 7.7,-1.8 7.6,-2.1 c 5.1,-1.5 10.2,-2.8 15.2,-4.6 1.1,-0.2 2.1,-1.2 1.7,-2.4 l -11.1,-33.4 8.1,-2.7 c 3,-1.6 5.7,-2.7 8.3,-3.7 z"
           id="path15"
           inkscape:connector-curvature="0" /><path
           d="m 214.5,562.8 3.7,-0.6 -1.2,-9.2 c -0.4,-3.1 -0.9,-6.2 -1,-9.3 0,-0.6 -0.3,-1 -0.7,-1.3 -0.3,-0.3 -0.8,-0.5 -1.4,-0.5 l -34.8,3 c -0.3,-4.6 -0.7,-9.2 -1,-13.8 l -0.4,-13.8 6.6,-0.1 0.2,9.7 0.1,4.8 0.4,4.8 c 0.1,1.7 1.8,2.1 2.9,1.5 0.1,0 0.2,0 0.3,0 l 24.9,-1.7 c 1.2,-0.1 1.8,-1.1 1.7,-2 0,-0.1 0.1,-0.2 0,-0.4 -0.3,-3.5 -0.2,-6.9 -0.2,-10.4 l 0,-10.4 0,0 c 0.2,-6.2 0.2,-12.4 0.6,-18.6 0,-0.6 -0.2,-1 -0.5,-1.4 -0.3,-0.4 -0.7,-0.6 -1.3,-0.7 l -34.9,-2.2 1.1,-13.8 c 0.5,-4.6 1.1,-9.2 1.7,-13.7 l 6.5,0.9 c -0.8,6.4 -1.8,12.8 -2.1,19.3 -0.1,1.7 1.5,2.4 2.6,1.9 0.1,0 0.2,0.1 0.3,0.1 l 24.9,2 c 1.2,0.1 1.9,-0.8 1.9,-1.7 0,-0.1 0.1,-0.2 0.1,-0.4 l 0.5,-5.2 0.8,-5.1 1.5,-10.3 0,0 c 0.4,-3.1 1.1,-6.1 1.6,-9.2 0.6,-3 1,-6.1 1.7,-9.2 0.1,-0.6 0,-1.1 -0.3,-1.4 -0.2,-0.4 -0.6,-0.7 -1.2,-0.9 l -34.2,-7.3 3.1,-13.5 c 1.2,-4.5 2.5,-8.9 3.7,-13.3 l 6.3,1.9 c -1.7,6.2 -3.7,12.4 -5,18.7 -0.4,1.7 1.1,2.6 2.3,2.3 0.1,0 0.2,0.1 0.3,0.1 l 24.3,5.6 c 1.2,0.3 2,-0.5 2.2,-1.4 0.1,-0.1 0.1,-0.2 0.2,-0.3 l 1.3,-5 1.5,-5 3.1,-9.9 0,0 c 0.9,-3 2,-5.9 2.9,-8.8 1,-2.9 1.9,-5.9 3.1,-8.8 0.2,-0.6 0.1,-1 -0.1,-1.4 -0.2,-0.4 -0.5,-0.8 -1.1,-1 l -32.7,-12.4 5.1,-12.9 5.7,-12.6 6,2.8 c -2.6,5.9 -5.5,11.7 -7.7,17.8 -0.6,1.6 0.7,2.7 2,2.6 0.1,0 0.1,0.1 0.2,0.2 l 23.2,9.2 c 1.2,0.5 2.1,-0.2 2.4,-1.1 0.1,-0.1 0.2,-0.2 0.2,-0.3 0.7,-1.6 1.3,-3.2 2,-4.8 l 2.3,-4.7 4.5,-9.4 0,0 4.2,-8.3 c 1.4,-2.7 2.8,-5.6 4.4,-8.2 0.3,-0.5 0.3,-1 0.1,-1.4 -0.1,-0.5 -0.4,-0.9 -0.9,-1.2 l -30.5,-17.1 c 2.3,-4 4.5,-8 7,-12 l 7.5,-11.6 5.5,3.7 -5.2,8.2 -2.6,4.1 c -0.8,1.4 -1.6,2.8 -2.4,4.2 -0.8,1.5 0.3,2.8 1.6,2.9 0.1,0.1 0.1,0.1 0.2,0.2 l 21.5,12.6 c 1.1,0.6 2.1,0.1 2.5,-0.7 0.1,-0.1 0.2,-0.2 0.3,-0.3 1.7,-3 3.8,-5.8 5.7,-8.7 2,-2.9 3.8,-5.8 5.9,-8.6 l 0,0 5.4,-7.6 2.7,-3.8 2.9,-3.7 c 0.4,-0.5 0.4,-1 0.3,-1.4 0,-0.5 -0.2,-0.9 -0.7,-1.3 l -28,-21.8 4.3,-5.4 2.1,-2.7 2.3,-2.6 9.1,-10.5 4.9,4.4 c -4.2,4.9 -8.6,9.7 -12.6,14.7 -1.1,1.3 -0.1,2.8 1.1,3.1 0.1,0.1 0.1,0.2 0.2,0.2 l 19.4,15.7 c 1,0.8 2,0.4 2.6,-0.4 0.1,-0.1 0.2,-0.1 0.3,-0.2 2.2,-2.7 4.6,-5.2 6.9,-7.8 2.3,-2.6 4.6,-5.2 7.1,-7.6 l -2.8,-2.6 c -2.4,2.3 -4.5,4.7 -6.7,7.2 l -6.6,7.3 -17.3,-14.2 c 4.1,-4.7 8.2,-9.5 12.4,-14.2 0.9,-0.9 0.6,-2 -0.1,-2.6 -0.1,-0.2 -0.2,-0.5 -0.5,-0.7 l -7,-6.5 c -0.4,-0.4 -0.8,-0.5 -1.2,-0.5 -0.1,0 -0.1,0 -0.2,0 l -0.2,0 c -0.4,0 -0.9,0.2 -1.2,0.6 -3.6,3.9 -7,7.9 -10.4,11.9 l -2.6,3 -2.4,3.1 -4.9,6.2 c -0.8,0.8 -1.1,2.1 -0.1,2.9 l 28,21.3 c -1.8,2.2 -3.4,4.6 -5.1,6.9 l -5,7 1.6,1.1 -1.6,-1.1 c -2,2.6 -3.7,5.4 -5.6,8.1 -1.8,2.7 -3.8,5.4 -5.4,8.2 L 238.3,331 c 3.2,-5.4 6.7,-10.6 10.1,-15.9 0.7,-1 0.3,-2.1 -0.5,-2.6 -0.1,-0.2 -0.3,-0.4 -0.6,-0.6 l -7.9,-5.4 c -0.4,-0.3 -0.9,-0.3 -1.3,-0.3 -0.1,0 -0.1,0 -0.2,0 l -0.1,0.1 c -0.4,0.1 -0.8,0.3 -1.1,0.8 l -8.5,13.3 c -2.8,4.5 -5.3,9.1 -8,13.7 -0.7,0.9 -0.8,2.3 0.4,2.9 l 30.9,16.9 c -2.7,5 -5.2,10.1 -7.9,15.2 l 1.7,0.8 -1.7,-0.8 -4.3,8.9 c -1.4,3 -2.9,5.9 -4.1,8.9 l -20.7,-8.5 c 1.1,-2.9 2.4,-5.8 3.7,-8.6 l 3.9,-8.6 c 0.5,-1.1 -0.1,-2.1 -0.9,-2.5 -0.2,-0.2 -0.4,-0.4 -0.7,-0.5 L 212,354 c -0.5,-0.2 -0.9,-0.2 -1.3,-0.1 -0.1,0 -0.1,0 -0.2,0 l -0.1,0.1 c -0.4,0.2 -0.7,0.5 -1,1 l -6.5,14.4 -5.8,14.7 c -0.6,1 -0.5,2.4 0.8,2.8 l 33,12.1 c -1.8,5.4 -3.7,10.8 -5.4,16.2 l 0,0 -2.9,9.4 -1.5,4.7 c -0.5,1.6 -0.8,3.2 -1.3,4.8 l -21.7,-5.3 1.1,-4.6 1.3,-4.5 2.6,-9.1 c 0.3,-1.2 -0.4,-2.1 -1.3,-2.4 -0.2,-0.2 -0.4,-0.3 -0.7,-0.4 L 192,405 c -0.5,-0.2 -0.9,-0.1 -1.3,0.1 -0.1,0 -0.1,0 -0.2,0.1 l -0.1,0.1 c -0.3,0.2 -0.7,0.6 -0.8,1.1 -1.4,5.1 -2.9,10.2 -4.3,15.2 l -3.6,15.4 c -0.4,1.1 -0.1,2.4 1.2,2.7 l 34.5,7 c -1,5.6 -2.1,11.2 -3,16.9 l 2.5,0.4 -2.5,-0.4 -1.5,9.7 c -0.5,3.2 -1,6.5 -1.3,9.8 l -22.3,-2 c 0.1,-1.6 0.2,-3.1 0.4,-4.7 l 0.6,-4.7 1.2,-9.3 c 0.2,-1.2 -0.7,-2 -1.6,-2.1 -0.2,-0.2 -0.5,-0.3 -0.8,-0.3 l -9.4,-1.4 c -0.5,-0.1 -0.9,0.1 -1.2,0.3 0,0 -0.1,0.1 -0.1,0.1 l -0.1,0.1 c -0.3,0.3 -0.6,0.7 -0.6,1.2 -0.7,5.2 -1.4,10.5 -2,15.7 l -1.2,15.8 c -0.2,1.1 0.2,2.4 1.6,2.5 l 35.1,1.8 -0.4,17.1 0,0 0,9.8 c 0.1,3.3 -0.1,6.6 0.1,9.8 l -22.3,1.3 c -0.3,-3.1 -0.3,-6.3 -0.4,-9.4 l -0.2,-9.4 c 0,-1.3 -1,-1.9 -1.9,-1.9 -0.2,-0.1 -0.5,-0.2 -0.8,-0.2 l -9.5,0 c -0.5,0 -0.9,0.2 -1.2,0.5 0,0 -0.1,0.1 -0.1,0.1 l -0.1,0.1 c -0.3,0.3 -0.5,0.7 -0.4,1.3 l 0.4,15.8 c 0.3,5.3 0.8,10.5 1.1,15.8 -0.1,1.1 0.6,2.3 1.9,2.2 l 35,-3.4 c 0.6,5.9 1.4,11.5 2.1,17.2 z"
           id="path17"
           inkscape:connector-curvature="0" /><path
           d="m 311.5,275.1 -3.1,3 c -1,1 -2,2.1 -3,3.1 l -5.9,6.2 2.8,2.6 c 4.3,-4.5 8.5,-9.1 13.1,-13.3 0.4,-0.4 0.6,-0.9 0.5,-1.4 0,-0.5 -0.1,-1 -0.5,-1.4 l -24.1,-25.3 5,-4.8 c 1.7,-1.6 3.5,-3 5.2,-4.6 3.5,-3 6.9,-6.1 10.5,-9 l 4.2,5.1 c -5,4.1 -9.8,8.4 -14.7,12.6 -1.2,1.2 -0.5,2.8 0.7,3.2 0.1,0.1 0.1,0.2 0.1,0.2 l 16.9,18.4 c 0.8,0.9 1.9,0.7 2.6,0 0.1,-0.1 0.2,-0.1 0.3,-0.2 l 8,-6.6 4,-3.3 4.2,-3.1 0,0 7.3,-5.8 c 2.5,-1.9 5,-3.6 7.6,-5.4 0.5,-0.3 0.7,-0.8 0.7,-1.3 0.1,-0.5 0.1,-1 -0.3,-1.5 L 333.5,214 c 1.9,-1.3 3.7,-2.7 5.7,-4 l 5.8,-3.7 5.8,-3.7 2.9,-1.9 3,-1.7 3.4,5.7 c -2.8,1.6 -5.5,3.3 -8.3,5.1 l -8.2,5.2 c -1.4,0.9 -0.9,2.6 0.2,3.2 0,0.1 0,0.2 0.1,0.3 l 14,20.7 c 0.7,1 1.8,1 2.6,0.5 0.1,0 0.2,-0.1 0.4,-0.1 5.9,-3.6 11.8,-7.4 17.9,-10.5 l 0,0 8.1,-4.6 8.3,-4.2 c 0.5,-0.3 0.8,-0.7 0.9,-1.2 0.2,-0.4 0.2,-1 -0.1,-1.5 L 380.4,186 c 4.1,-2.2 8.3,-4 12.5,-5.9 4.2,-1.9 8.4,-3.8 12.7,-5.5 l 2.5,6.1 -4.5,1.8 -4.4,2 -8.8,4 c -1.5,0.7 -1.3,2.4 -0.3,3.2 0,0.1 0,0.2 0.1,0.3 l 10.7,22.5 c 0.5,1.1 1.7,1.3 2.5,0.8 0.1,0 0.2,0 0.4,-0.1 l 9.6,-4.1 c 3.2,-1.4 6.5,-2.4 9.7,-3.7 l -0.7,-1.8 0.7,1.8 c 2.9,-1.1 5.7,-2.4 8.7,-3.3 l 8.8,-3 c 0.6,-0.2 0.9,-0.6 1.1,-1 0.2,-0.4 0.3,-0.9 0.1,-1.5 l -10.8,-33.2 3.3,-1.1 3.3,-1 6.7,-1.9 6.7,-1.9 c 2.2,-0.6 4.5,-1.1 6.7,-1.6 l 1.5,6.4 c -6.3,1.3 -12.5,3.3 -18.7,5 -1.6,0.5 -1.7,2.2 -0.8,3.1 0,0.1 0,0.2 0,0.3 l 7.2,23.9 c 0.4,1.2 1.5,1.5 2.3,1.2 0.1,0 0.2,0 0.4,0 l 10.1,-2.6 c 3.4,-0.8 6.8,-1.4 10.2,-2.2 l 0,0 4.5,-1 c 1.5,-0.4 3,-0.7 4.6,-0.9 l 9.2,-1.6 c 0.6,-0.1 1,-0.4 1.2,-0.8 0.3,-0.4 0.5,-0.9 0.4,-1.5 l -5.6,-34.5 3.4,-0.6 3.4,-0.4 6.9,-0.9 6.9,-0.9 c 2.3,-0.3 4.6,-0.4 6.9,-0.6 l 0.6,6.6 c -6.5,0.3 -12.8,1.4 -19.3,2.2 -1.7,0.2 -2,1.9 -1.3,3 0,0.1 0,0.2 0,0.3 l 3.6,24.7 c 0.2,1.2 1.2,1.7 2.1,1.5 0.1,0 0.2,0 0.4,0 l 10.4,-1.1 c 3.5,-0.3 6.9,-0.4 10.4,-0.6 l 0,0 c 3.1,-0.2 6.2,-0.6 9.3,-0.6 l 9.3,-0.2 c 0.6,0 1,-0.3 1.3,-0.7 0.4,-0.3 0.6,-0.8 0.6,-1.4 l -0.4,-35 c 4.6,-0.2 9.2,0 13.8,0.1 4.6,0.2 9.2,0.1 13.8,0.6 l -0.4,6.6 c -1.6,-0.1 -3.2,-0.3 -4.8,-0.3 l -4.8,-0.1 -9.7,-0.2 c -1.7,0 -2.2,1.6 -1.7,2.7 0,0.1 -0.1,0.2 -0.1,0.3 l -0.1,24.9 c 0,1.2 1,1.9 1.9,1.9 0.1,0 0.2,0.1 0.4,0.1 l 10.4,0.5 2.6,0.1 2.6,0.3 5.2,0.5 0,0 9.3,0.7 9.2,1.2 c 0.6,0.1 1.1,-0.1 1.4,-0.4 0.4,-0.3 0.7,-0.7 0.8,-1.3 l 4.7,-34.6 c 2.3,0.3 4.6,0.5 6.9,0.9 l 6.8,1.2 6.8,1.2 3.4,0.6 3.4,0.8 -1.4,6.4 c -3.1,-0.8 -6.3,-1.3 -9.5,-1.9 l -9.5,-1.7 c -1.7,-0.3 -2.5,1.3 -2.1,2.5 0,0.1 -0.1,0.2 -0.1,0.3 l -3.8,24.7 c -0.2,1.2 0.7,2 1.6,2.1 0.1,0 0.2,0.1 0.4,0.1 6.8,1.4 13.6,2.6 20.3,4.5 l 0.8,-3.7 c -6.3,-1.8 -12.8,-2.9 -19.2,-4.3 l 3.7,-22.1 9.3,1.7 c 1.5,0.3 3.1,0.5 4.6,0.9 l 4.6,1.1 c 1.2,0.3 2,-0.5 2.3,-1.4 0.2,-0.2 0.3,-0.4 0.4,-0.8 l 2.1,-9.3 c 0.1,-0.5 0,-0.9 -0.2,-1.3 0,-0.1 0,-0.1 -0.1,-0.2 l -0.1,-0.1 c -0.3,-0.3 -0.6,-0.6 -1.2,-0.7 -5.1,-1.3 -10.3,-2.1 -15.5,-3.1 l -7.8,-1.4 c -2.6,-0.4 -5.2,-0.7 -7.8,-1 -1.1,-0.3 -2.4,0.1 -2.6,1.5 l -4.4,34.9 c -2.8,-0.3 -5.7,-0.8 -8.5,-1.1 l -8.5,-0.6 -0.1,1.6 0.1,-1.6 c -3.3,-0.3 -6.5,-0.8 -9.8,-0.9 l -9.8,-0.5 0.3,-22.4 c 6.3,0.2 12.5,0.2 18.8,0.8 1.3,0.1 2,-0.8 2,-1.7 0.1,-0.2 0.2,-0.5 0.2,-0.8 l 0.7,-9.5 c 0,-0.5 -0.1,-0.9 -0.4,-1.2 0,0 -0.1,-0.1 -0.1,-0.1 l -0.1,-0.1 c -0.3,-0.3 -0.7,-0.5 -1.3,-0.6 -2.6,-0.2 -5.3,-0.5 -7.9,-0.5 l -7.9,-0.2 -7.9,-0.2 c -2.6,-0.1 -5.3,0.1 -7.9,0.1 -1.1,-0.1 -2.4,0.5 -2.3,1.8 l 0.8,35.2 -8.6,0.2 c -2.9,0.1 -5.7,0.4 -8.5,0.6 l 0.2,2.4 -0.2,-2.4 c -3.3,0.2 -6.6,0.3 -9.8,0.5 l -9.8,1 -3,-22.2 9.3,-1.2 c 3.1,-0.4 6.2,-0.5 9.4,-0.8 1.3,-0.1 1.8,-1.1 1.7,-2 0.1,-0.2 0.2,-0.5 0.1,-0.8 l -0.7,-9.5 c 0,-0.5 -0.3,-0.9 -0.6,-1.2 0,0 -0.1,-0.1 -0.1,-0.1 l -0.1,-0.1 c -0.3,-0.2 -0.8,-0.4 -1.3,-0.4 l -7.9,0.6 -7.9,1 c -5.2,0.7 -10.5,1.2 -15.7,2.2 -1.1,0 -2.3,0.8 -2,2.2 l 6,34.7 -8.4,1.5 c -2.8,0.5 -5.6,1.2 -8.4,1.9 l 0.1,0.3 -0.1,-0.3 -9.6,2 -9.5,2.5 -6.2,-21.5 9.1,-2.6 c 3,-0.9 6.1,-1.5 9.1,-2.2 1.2,-0.3 1.6,-1.3 1.4,-2.3 0.1,-0.3 0.1,-0.5 0,-0.8 l -2.1,-9.3 c -0.1,-0.5 -0.4,-0.8 -0.8,-1.1 0,0 -0.1,-0.1 -0.1,-0.1 l -0.1,-0.1 c -0.4,-0.2 -0.8,-0.3 -1.4,-0.2 l -7.7,1.8 -7.6,2.1 c -5.1,1.5 -10.2,2.8 -15.2,4.6 -1.1,0.2 -2.1,1.2 -1.7,2.4 l 11.1,33.4 -8.1,2.7 c -2.7,1 -5.3,2.1 -8,3.1 l 0,0 c -3.1,1.2 -6.2,2.2 -9.2,3.4 l -9.1,3.8 -9.4,-20.3 c 5.7,-2.6 11.4,-5.3 17.3,-7.4 1.2,-0.5 1.4,-1.6 1.1,-2.4 0,-0.3 0,-0.5 -0.1,-0.8 l -3.5,-8.9 c -0.2,-0.5 -0.5,-0.8 -0.9,-0.9 0,0 -0.1,-0.1 -0.1,-0.1 l -0.1,0 c -0.4,-0.1 -0.9,-0.2 -1.4,0 -2.5,1 -4.9,1.9 -7.4,2.9 l -7.2,3.3 -7.2,3.3 c -2.4,1.1 -4.7,2.4 -7.1,3.5 -1.1,0.4 -1.9,1.5 -1.3,2.7 l 16,31.3 -7.6,3.9 -7.4,4.3 0,0 c -5.8,3 -11.4,6.5 -17,9.9 l -12.3,-18.7 7.9,-5.1 c 1.3,-0.8 2.6,-1.7 4,-2.5 l 4.1,-2.3 c 1.1,-0.6 1.2,-1.8 0.7,-2.6 0,-0.3 -0.1,-0.5 -0.2,-0.8 l -4.8,-8.2 c -0.3,-0.4 -0.6,-0.7 -1,-0.8 -0.1,0 -0.1,0 -0.2,-0.1 l -0.2,0 c -0.4,-0.1 -0.9,0 -1.4,0.2 -4.6,2.5 -9,5.5 -13.5,8.3 l -6.7,4.3 -6.5,4.6 c -1,0.5 -1.7,1.7 -0.9,2.8 l 20.5,28.6 c -2.3,1.7 -4.7,3.2 -6.9,5 l -6.7,5.3 1,1.2 -1,-1.2 -3.9,2.9 c -1.3,1 -2.5,2.1 -3.8,3.1 l -7.6,6.3 -15,-16.6 7.1,-6.2 c 2.4,-2.1 4.7,-4.1 7.2,-6 1,-0.8 0.9,-1.9 0.3,-2.6 -0.1,-0.3 -0.2,-0.5 -0.4,-0.8 l -6,-7.4 c -0.3,-0.4 -0.7,-0.6 -1.1,-0.6 -0.1,0 -0.1,0 -0.2,0 l -0.2,0 c -0.4,0 -0.9,0.1 -1.3,0.4 l -3.1,2.5 -3,2.6 -6,5.2 c -4.1,3.4 -7.8,7.1 -11.6,10.7 -0.9,0.7 -1.4,1.9 -0.5,2.9 l 24.3,25.2 z"
           id="path19"
           inkscape:connector-curvature="0" /><path
           d="m 616.1,193.1 9.1,2.1 9,2.5 c 0.6,0.2 1.1,0 1.4,-0.2 0.4,-0.2 0.8,-0.6 1,-1.2 l 9.9,-33.5 c 2.2,0.7 4.5,1.2 6.6,2 l 6.6,2.2 c 4.4,1.5 8.8,2.9 13,4.6 l -2.3,6.2 c -1.5,-0.6 -3,-1.2 -4.5,-1.7 l -4.6,-1.6 -9.2,-3.1 c -1.6,-0.5 -2.6,0.9 -2.4,2.1 0,0.1 -0.1,0.1 -0.1,0.2 l -7.5,23.8 c -0.4,1.2 0.4,2.1 1.3,2.3 0.1,0.1 0.2,0.1 0.3,0.2 6.5,2.4 13.1,4.6 19.4,7.5 l 0,0 c 2.9,1.2 5.8,2.2 8.6,3.5 l 8.5,3.8 c 0.5,0.2 1,0.2 1.5,0 0.5,-0.1 0.9,-0.4 1.1,-1 l 14.8,-31.7 c 4.2,1.8 8.3,4 12.4,6.1 l 6.2,3.2 c 2.1,1 4,2.3 6,3.4 l -3.2,5.7 -4.2,-2.4 c -1.4,-0.8 -2.9,-1.5 -4.3,-2.2 l -8.6,-4.4 c -1.5,-0.8 -2.7,0.5 -2.7,1.7 -0.1,0.1 -0.1,0.1 -0.2,0.2 l -10.9,22.4 c -0.5,1.1 0,2.1 0.9,2.5 0.1,0.1 0.2,0.2 0.3,0.2 l 9.2,4.9 c 3,1.7 6,3.6 8.9,5.3 l 1.9,-3.3 c -2.8,-1.7 -5.6,-3.4 -8.4,-5.1 l -8.7,-4.7 10,-20 8.4,4.3 c 2.8,1.4 5.5,3.1 8.2,4.6 1.1,0.6 2.1,0.1 2.6,-0.7 0.2,-0.1 0.4,-0.3 0.6,-0.6 l 4.8,-8.3 c 0.3,-0.4 0.3,-0.9 0.2,-1.3 0,-0.1 0,-0.1 0,-0.2 l -0.1,-0.1 c -0.1,-0.4 -0.4,-0.8 -0.9,-1.1 l -6.9,-3.9 -7,-3.6 c -4.7,-2.4 -9.4,-4.9 -14.2,-7 -1,-0.6 -2.3,-0.6 -2.9,0.6 l -14.5,32 -7.8,-3.5 -8,-3.1 0,0 c -3,-1.2 -6,-2.7 -9.1,-3.7 l -9.2,-3.4 6.9,-21.3 c 5.9,2.1 11.9,3.9 17.7,6.3 1.2,0.5 2.1,-0.2 2.4,-1.1 0.2,-0.2 0.4,-0.4 0.5,-0.7 l 3.5,-8.9 c 0.2,-0.5 0.1,-0.9 0,-1.3 0,-0.1 0,-0.1 -0.1,-0.2 l -0.1,-0.1 c -0.2,-0.4 -0.5,-0.7 -1,-0.9 -2.5,-0.9 -4.9,-2 -7.4,-2.8 l -7.5,-2.5 -7.5,-2.5 c -2.5,-0.8 -5.1,-1.5 -7.6,-2.2 -1,-0.5 -2.4,-0.3 -2.8,1 l -9.6,33.9 c -2.7,-0.8 -5.5,-1.6 -8.2,-2.3 l -8.3,-1.9 -1.2,4 z"
           id="path21"
           inkscape:connector-curvature="0" /><path
           d="m 716.4,229.9 c -2.4,-1.5 -4.9,-2.9 -7.4,-4.3 l -1.9,3.3 c 2.7,1.6 5.4,3 8,4.7 l 7.8,5 c 0.5,0.3 1,0.3 1.5,0.2 0.5,-0.1 0.9,-0.3 1.3,-0.8 l 19.4,-29.1 c 2,1.2 3.8,2.6 5.7,3.9 l 5.6,4 c 1.9,1.3 3.8,2.7 5.6,4 l 5.4,4.3 -4.1,5.2 c -2.6,-2 -5,-4.1 -7.7,-5.9 l -7.9,-5.6 c -1.4,-1 -2.8,0.1 -2.9,1.3 -0.1,0.1 -0.1,0.1 -0.2,0.2 l -14.2,20.5 c -0.7,1 -0.3,2.1 0.5,2.6 0.1,0.1 0.1,0.2 0.3,0.3 l 8.3,6.2 8,6.6 0.9,-1.1 -0.9,1.1 3.7,2.9 c 1.2,1 2.4,2 3.5,3 l 7,6.1 c 0.5,0.4 0.9,0.5 1.4,0.4 0.5,0 1,-0.2 1.4,-0.6 L 788,242.4 c 6.7,6.3 13.5,12.6 19.7,19.4 l -4.8,4.5 -6.7,-7 -7,-6.7 c -1.2,-1.2 -2.8,-0.3 -3.1,0.9 -0.1,0.1 -0.2,0.1 -0.2,0.2 L 769,271.9 c -0.9,0.9 -0.6,2 0.1,2.6 0.1,0.1 0.1,0.2 0.2,0.3 2.4,2.5 5,4.8 7.3,7.4 l 7,7.7 0,0 c 2.2,2.2 4.2,4.6 6.2,6.9 l 6.1,7 c 0.4,0.4 0.9,0.6 1.3,0.6 0.5,0.1 1,0 1.4,-0.4 l 27,-22.1 8.5,10.9 c 2.8,3.6 5.4,7.5 8.1,11.2 l -5.4,3.8 -5.6,-7.9 c -1.9,-2.6 -4,-5.1 -5.9,-7.7 -1,-1.3 -2.7,-0.7 -3.2,0.4 -0.1,0 -0.2,0.1 -0.3,0.1 l -19.6,15.5 c -1,0.8 -0.9,1.9 -0.2,2.6 0.1,0.1 0.1,0.2 0.2,0.3 4.3,5.5 8,11.3 11.9,17 l 1.7,-1.2 -1.8,1.2 c 1.8,2.5 3.4,5.2 5.1,7.8 1.7,2.6 3.4,5.2 5,7.9 0.3,0.5 0.7,0.8 1.2,0.8 0.4,0.2 0.9,0.1 1.5,-0.2 l 30,-17.9 6.9,12 6.3,12.3 -5.9,2.9 c -3,-5.7 -5.8,-11.6 -9.1,-17.1 -0.8,-1.5 -2.6,-1.1 -3.2,-0.1 -0.1,0 -0.2,0 -0.3,0.1 L 829.8,349 c -1.1,0.6 -1.1,1.7 -0.6,2.5 0,0.1 0,0.2 0.1,0.4 l 2.5,4.6 2.3,4.7 4.5,9.4 2.1,-1 -2.1,1 3.8,8.5 c 1.2,2.8 2.7,5.6 3.7,8.5 0.2,0.6 0.6,0.9 1.1,1 0.4,0.2 0.9,0.3 1.5,0 l 32.4,-13.2 c 1.7,4.3 3.4,8.6 5,12.9 l 4.4,13.1 -6.3,2 -3.1,-9.2 -1.6,-4.6 -1.8,-4.5 c -0.6,-1.6 -2.4,-1.5 -3.2,-0.5 -0.1,0 -0.2,0 -0.3,0 l -23.3,9 c -1.2,0.5 -1.4,1.6 -1,2.4 0,0.1 0,0.2 0.1,0.4 1.3,3.2 2.3,6.6 3.3,9.9 1,3.3 2.1,6.6 3.1,9.9 l 3.6,-1.1 c -0.9,-3.2 -1.9,-6.3 -2.9,-9.4 l -1.5,-4.7 -0.7,-2.3 -0.8,-2.3 20.9,-7.8 c 1.2,2.9 2.1,5.9 3.1,8.9 l 3,8.9 c 0.4,1.2 1.5,1.5 2.4,1.2 0.3,0 0.5,0 0.8,-0.1 l 9.1,-2.8 c 0.5,-0.2 0.8,-0.5 1,-0.8 0,0 0.1,-0.1 0.1,-0.1 l 0,-0.1 c 0.2,-0.4 0.2,-0.8 0,-1.4 l -5.1,-15 c -1.8,-5 -3.8,-9.8 -5.8,-14.8 -0.3,-1.1 -1.3,-2.1 -2.5,-1.5 l -32.4,13.6 c -2.3,-5.2 -4.7,-10.4 -7,-15.6 l 0,0 -4.3,-8.9 c -1.4,-3 -2.8,-5.9 -4.4,-8.8 l 19.5,-10.9 c 0.8,1.4 1.6,2.7 2.3,4.1 l 2.1,4.2 4.3,8.4 c 0.6,1.1 1.7,1.3 2.6,0.9 0.3,0 0.5,-0.1 0.8,-0.2 l 8.6,-4.1 c 0.5,-0.2 0.7,-0.6 0.8,-1 0,-0.1 0.1,-0.1 0.1,-0.2 l 0,-0.2 c 0.1,-0.4 0.1,-0.9 -0.2,-1.4 l -7.2,-14.1 -7.9,-13.7 c -0.4,-1.1 -1.6,-1.8 -2.7,-1.1 l -30,18.3 c -3.1,-4.8 -6.1,-9.7 -9.3,-14.4 l 0,0 -4.8,-7.9 c -0.9,-1.4 -1.8,-2.7 -2.8,-4.1 l -3,-3.9 17.7,-13.7 c 4,4.9 7.4,10.1 11.1,15.2 0.7,1 1.9,1 2.6,0.5 0.3,0 0.5,-0.1 0.8,-0.3 l 7.9,-5.4 c 0.4,-0.3 0.6,-0.7 0.7,-1.1 0,-0.1 0,-0.1 0,-0.2 l 0,-0.2 c 0,-0.4 0,-0.9 -0.4,-1.3 -3.1,-4.3 -6,-8.7 -9.3,-12.8 l -9.8,-12.4 c -0.6,-0.9 -1.9,-1.5 -2.9,-0.7 l -27,22.6 -5.6,-6.5 c -1.9,-2.2 -3.7,-4.3 -5.7,-6.4 l 0,0 c -4.4,-4.8 -8.8,-9.8 -13.5,-14.3 l 15.5,-16.1 c 2.2,2.2 4.6,4.3 6.8,6.6 l 6.5,6.8 c 0.9,0.9 2,0.7 2.7,0.1 0.3,-0.1 0.5,-0.2 0.7,-0.4 l 7,-6.5 c 0.4,-0.4 0.5,-0.8 0.5,-1.2 0,-0.1 0,-0.1 0,-0.2 l 0,-0.2 c 0,-0.4 -0.2,-0.9 -0.6,-1.3 -7.2,-7.7 -14.8,-15 -22.6,-22.2 -0.7,-0.9 -2.1,-1.3 -3,-0.2 L 763,264.5 c -4.3,-3.7 -8.5,-7.6 -13.1,-11 l 0,0 -7.6,-6.3 c -2.6,-2 -5.2,-3.9 -7.9,-5.9 l 12.9,-18.3 7.7,5.5 7.4,5.8 c 1,0.8 2.1,0.4 2.7,-0.3 0.2,-0.1 0.5,-0.3 0.7,-0.5 l 5.9,-7.5 c 0.3,-0.4 0.4,-0.8 0.4,-1.2 0,-0.1 0,-0.1 0,-0.2 l 0,-0.1 c -0.1,-0.4 -0.3,-0.8 -0.7,-1.2 l -6.2,-4.9 c -2.1,-1.7 -4.3,-3.1 -6.4,-4.7 l -6.5,-4.6 c -1.1,-0.8 -2.1,-1.5 -3.2,-2.3 l -3.3,-2.1 c -0.9,-0.7 -2.2,-0.9 -3,0.2 l -19.2,29.5 -7.2,-4.5 z"
           id="path23"
           inkscape:connector-curvature="0" /><path
           d="M 810.5,330.9 C 801.4,317.5 791.2,305 780.3,293.1 l -8.4,-8.8 -8.8,-8.4 c -2.9,-2.9 -6,-5.4 -9,-8 l -4.6,-4 c -1.5,-1.3 -3.2,-2.5 -4.7,-3.8 -12.5,-10.2 -26,-19.2 -40,-27.3 -6.9,-4.2 -14.2,-7.7 -21.3,-11.4 -7.4,-3.3 -14.6,-6.8 -22.2,-9.6 -3.8,-1.5 -7.5,-3 -11.3,-4.2 -3.8,-1.3 -7.6,-2.6 -11.5,-3.8 l -11.6,-3.3 -2.9,-0.8 -2.9,-0.7 -5.9,-1.4 -5.9,-1.4 c -2,-0.4 -4,-0.7 -5.9,-1.1 -4,-0.7 -7.9,-1.5 -11.9,-2.1 l -12,-1.5 -3,-0.4 -3,-0.2 -6,-0.5 c -8,-0.8 -16.1,-0.7 -24.2,-1 -8.1,0.3 -16.2,0.2 -24.2,1 l -6,0.5 -3,0.2 -3,0.4 -12,1.5 c -4,0.6 -7.9,1.4 -11.9,2.1 -2,0.4 -4,0.7 -5.9,1.1 l -5.9,1.4 -6.4,1.4 -2.9,0.7 -2.9,0.8 -11.6,3.3 c -3.8,1.2 -7.6,2.6 -11.5,3.8 -3.9,1.2 -7.6,2.7 -11.3,4.2 -7.6,2.8 -14.9,6.3 -22.2,9.6 -7.2,3.7 -14.4,7.2 -21.3,11.4 -14,8.1 -27.4,17.1 -40,27.3 -1.6,1.3 -3.2,2.5 -4.7,3.8 l -4.6,4 c -3,2.7 -6.2,5.2 -9,8 l -8.8,8.4 -8.4,8.8 c -10.9,11.9 -21.1,24.4 -30.2,37.8 -9,13.4 -17.1,27.4 -24.3,41.9 -6.9,14.6 -12.8,29.6 -17.7,45 -4.7,15.4 -8.2,31.2 -10.7,47.2 -2.3,16 -3.4,32.1 -3.6,48.3 0.2,16.2 1.3,32.3 3.6,48.3 2.5,15.9 6,31.7 10.7,47.2 4.9,15.4 10.8,30.4 17.7,45 7.1,14.5 15.2,28.5 24.3,41.9 9.1,13.4 19.3,25.9 30.2,37.8 l 8.4,8.8 8.8,8.4 c 2.9,2.9 6,5.4 9,8.1 l 4.6,4 c 1.5,1.3 3.2,2.5 4.7,3.8 12.5,10.2 26,19.2 40,27.3 6.9,4.2 14.2,7.7 21.3,11.4 7.4,3.3 14.6,6.8 22.2,9.6 3.8,1.5 7.5,3 11.3,4.2 3.8,1.3 7.6,2.6 11.5,3.8 l 11.6,3.3 2.9,0.8 2.9,0.7 5.9,1.4 5.9,1.4 c 2,0.4 4,0.7 5.9,1.1 4,0.7 7.9,1.5 11.9,2.1 l 12,1.5 3,0.4 3,0.2 6,0.5 c 8,0.8 16.1,0.7 24.2,1 8.1,-0.3 16.2,-0.2 24.2,-1 l 6,-0.5 3,-0.2 3,-0.4 12,-1.5 c 4,-0.6 7.9,-1.4 11.9,-2.1 2,-0.4 4,-0.7 5.9,-1.1 l 5.9,-1.4 5.9,-1.4 2.9,-0.7 2.9,-0.8 11.6,-3.3 c 3.8,-1.2 7.6,-2.6 11.5,-3.8 3.9,-1.2 7.6,-2.7 11.3,-4.2 7.6,-2.8 14.9,-6.3 22.2,-9.6 7.2,-3.7 14.4,-7.2 21.3,-11.4 14,-8.1 27.4,-17.1 40,-27.3 1.6,-1.3 3.2,-2.5 4.7,-3.8 l 4.6,-4 c 3,-2.7 6.2,-5.2 9,-8.1 l 8.8,-8.4 8.4,-8.8 c 10.9,-11.9 21.1,-24.4 30.2,-37.8 9,-13.4 17.1,-27.4 24.3,-41.9 6.9,-14.6 12.8,-29.6 17.7,-45 4.7,-15.4 8.2,-31.2 10.7,-47.2 2.3,-16 3.4,-32.1 3.6,-48.3 -0.2,-16.2 -1.3,-32.3 -3.6,-48.3 -2.5,-15.9 -6,-31.7 -10.7,-47.2 -4.9,-15.4 -10.8,-30.4 -17.7,-45 -6.7,-14.5 -14.8,-28.5 -23.8,-41.9 z m 38.3,88 c 4.6,15.3 8.1,30.9 10.6,46.6 2.3,15.8 3.4,31.7 3.6,47.7 -0.2,16 -1.3,31.9 -3.6,47.7 -2.5,15.8 -5.9,31.4 -10.6,46.6 -4.8,15.2 -10.6,30.1 -17.5,44.5 -7,14.3 -15.1,28.1 -24,41.4 -9,13.2 -19.1,25.6 -29.9,37.4 l -8.3,8.7 -8.7,8.3 c -2.8,2.8 -6,5.3 -8.9,8 l -4.5,3.9 c -1.5,1.3 -3.1,2.5 -4.7,3.7 -12.4,10.1 -25.7,19 -39.5,27 -6.8,4.1 -14,7.6 -21.1,11.3 -7.3,3.3 -14.5,6.7 -22,9.5 -3.7,1.5 -7.4,3 -11.2,4.2 -3.8,1.3 -7.5,2.6 -11.3,3.8 l -11.5,3.3 -2.9,0.8 -2.9,0.7 -5.8,1.3 -5.8,1.4 c -1.9,0.4 -3.9,0.7 -5.9,1.1 -3.9,0.7 -7.8,1.5 -11.8,2.1 l -11.9,1.5 -3,0.4 -3,0.2 -6,0.5 c -7.9,0.8 -16,0.7 -23.9,1 -8,-0.3 -16,-0.2 -23.9,-1 l -6,-0.5 -3,-0.2 -3,-0.4 -11.9,-1.5 c -3.9,-0.6 -7.9,-1.4 -11.8,-2.1 -2,-0.4 -3.9,-0.6 -5.9,-1.1 l -5.8,-1.4 -5.8,-1.3 -2.9,-0.7 -2.9,-0.8 -11.5,-3.3 c -3.8,-1.2 -7.6,-2.5 -11.3,-3.8 -3.8,-1.2 -7.5,-2.7 -11.2,-4.2 -7.5,-2.8 -14.7,-6.2 -22,-9.5 -7.1,-3.7 -14.3,-7.1 -21.1,-11.3 -13.8,-8 -27.1,-16.9 -39.5,-27 -1.6,-1.2 -3.2,-2.4 -4.7,-3.7 l -4.5,-3.9 c -3,-2.7 -6.1,-5.1 -8.9,-8 l -8.7,-8.3 -8.3,-8.7 c -10.8,-11.8 -20.9,-24.2 -29.9,-37.4 -8.9,-13.2 -16.9,-27.1 -24,-41.4 -6.8,-14.4 -12.6,-29.3 -17.5,-44.5 -4.6,-15.3 -8.1,-30.9 -10.6,-46.6 -2.3,-15.8 -3.4,-31.7 -3.6,-47.7 0.2,-16 1.3,-31.9 3.6,-47.7 2.5,-15.8 5.9,-31.4 10.6,-46.6 4.8,-15.2 10.6,-30.1 17.5,-44.5 7,-14.3 15.1,-28.1 24,-41.4 9,-13.2 19.1,-25.6 29.9,-37.4 l 8.3,-8.7 8.7,-8.3 c 2.8,-2.8 6,-5.3 8.9,-8 l 4.5,-3.9 c 1.5,-1.3 3.1,-2.5 4.7,-3.7 12.4,-10.1 25.7,-19 39.5,-27 6.8,-4.1 14,-7.6 21.1,-11.3 7.3,-3.3 14.5,-6.7 22,-9.5 3.7,-1.5 7.4,-3 11.2,-4.2 3.8,-1.3 7.5,-2.6 11.3,-3.8 l 11.5,-3.3 2.9,-0.8 2.9,-0.7 5.8,-1.3 5.8,-1.4 c 1.9,-0.4 3.9,-0.7 5.9,-1.1 3.9,-0.7 7.8,-1.5 11.8,-2.1 l 11.9,-1.5 3,-0.4 3,-0.2 6,-0.5 c 7.9,-0.8 16,-0.7 23.9,-1 8,0.3 16,0.2 23.9,1 l 6,0.5 3,0.2 3,0.4 11.9,1.5 c 3.9,0.6 7.9,1.4 11.8,2.1 2,0.4 3.9,0.6 5.9,1.1 l 5.8,1.4 5.8,1.3 2.9,0.7 2.9,0.8 11.5,3.3 c 3.8,1.2 7.6,2.5 11.3,3.8 3.8,1.2 7.5,2.7 11.2,4.2 7.5,2.8 14.7,6.2 22,9.5 7.1,3.7 14.3,7.1 21.1,11.3 13.8,8 27.1,16.9 39.5,27 1.6,1.2 3.2,2.4 4.7,3.7 l 4.5,3.9 c 3,2.7 6.1,5.1 8.9,8 l 8.7,8.3 8.3,8.7 c 10.8,11.8 20.9,24.2 29.9,37.4 8.9,13.2 16.9,27.1 24,41.4 6.8,14.4 12.7,29.3 17.5,44.5 z"
           id="path25"
           inkscape:connector-curvature="0" /><path
           d="m 911.7,495.3 c -0.3,-5.3 -0.8,-10.5 -1.1,-15.8 0.1,-1.1 -0.6,-2.3 -1.9,-2.2 l -35,3.4 c -0.6,-5.7 -1.4,-11.3 -2.1,-17 l 0,0 c -0.4,-3.3 -1,-6.5 -1.5,-9.7 -0.5,-3.2 -0.9,-6.5 -1.6,-9.7 l 21.9,-4.6 c 1.3,6.1 2.3,12.3 3.4,18.5 0.2,1.2 1.2,1.7 2.2,1.6 0.2,0.1 0.5,0.1 0.8,0.1 l 9.4,-1.4 c 0.5,-0.1 0.9,-0.3 1.1,-0.7 0,0 0.1,-0.1 0.1,-0.1 l 0.1,-0.1 c 0.2,-0.4 0.3,-0.8 0.3,-1.4 L 905,440.6 c -1,-5.2 -2.3,-10.3 -3.5,-15.5 -0.1,-1.1 -0.9,-2.2 -2.3,-1.9 l -34.1,8.6 c -1.4,-5.5 -3.1,-11 -4.6,-16.5 l -3.6,1.1 2.5,9 c 0.8,3 1.8,6 2.4,9 0.1,0.6 0.5,0.9 0.9,1.1 0.4,0.3 0.9,0.4 1.5,0.3 l 34,-8.2 c 1,4.5 2.1,9 3,13.5 l 2.4,13.6 -6.5,1 -1.7,-9.5 -0.9,-4.8 c -0.3,-1.6 -0.7,-3.2 -1.1,-4.7 -0.4,-1.7 -2.1,-1.8 -3.1,-1 -0.1,0 -0.2,0 -0.3,0 l -24.4,5.4 c -1.2,0.3 -1.6,1.3 -1.3,2.2 0,0.1 0,0.2 0,0.4 0.8,3.4 1.2,6.8 1.8,10.3 0.5,3.4 1.1,6.8 1.6,10.3 l 1.1,-0.2 -1.2,0.2 1.2,9.2 c 0.4,3.1 0.9,6.2 1,9.3 0,0.6 0.3,1 0.7,1.3 0.3,0.3 0.8,0.5 1.4,0.5 l 34.8,-3 c 0.3,4.6 0.7,9.2 1,13.8 l 0.4,13.8 -6.6,0.1 -0.2,-9.7 -0.1,-4.8 -0.4,-4.8 c -0.1,-1.7 -1.8,-2.1 -2.9,-1.5 -0.1,0 -0.2,0 -0.3,0 l -24.9,1.7 c -1.2,0.1 -1.8,1.1 -1.7,2 0,0.1 -0.1,0.2 0,0.4 0.3,3.5 0.2,6.9 0.2,10.4 l 0,10.4 0,0 c -0.2,6.2 -0.2,12.4 -0.6,18.6 0,0.6 0.2,1 0.5,1.4 0.3,0.4 0.7,0.6 1.3,0.7 l 34.9,2.2 -1.1,13.8 c -0.5,4.6 -1.1,9.2 -1.7,13.7 l -6.5,-0.9 c 0.8,-6.4 1.8,-12.8 2.1,-19.3 0.1,-1.7 -1.5,-2.4 -2.6,-1.9 -0.1,0 -0.2,-0.1 -0.3,-0.1 l -24.9,-2 c -1.2,-0.1 -1.9,0.8 -1.9,1.7 0,0.1 -0.1,0.2 -0.1,0.4 l -0.5,5.2 -0.8,5.1 -1.5,10.3 0,0 c -0.4,3.1 -1.1,6.1 -1.6,9.2 -0.6,3 -1,6.1 -1.7,9.2 -0.1,0.6 0,1.1 0.3,1.4 0.2,0.4 0.6,0.7 1.2,0.9 l 34.2,7.3 -3.1,13.5 c -1.2,4.5 -2.5,8.9 -3.7,13.3 l -6.3,-1.9 c 1.7,-6.2 3.7,-12.4 5,-18.7 0.4,-1.7 -1.1,-2.6 -2.3,-2.3 -0.1,0 -0.2,-0.1 -0.3,-0.1 l -24.3,-5.6 c -1.2,-0.3 -2,0.5 -2.2,1.4 -0.1,0.1 -0.1,0.2 -0.2,0.3 l -1.3,5 -1.5,5 -3.1,9.9 3.6,1.1 2.9,-9.4 1.5,-4.7 c 0.5,-1.6 0.8,-3.2 1.3,-4.8 l 21.7,5.3 -1.1,4.6 -1.3,4.5 -2.6,9.1 c -0.3,1.2 0.4,2.1 1.3,2.4 0.2,0.2 0.4,0.3 0.7,0.4 l 9.1,2.8 c 0.5,0.2 0.9,0.1 1.3,-0.1 0.1,0 0.1,0 0.2,-0.1 l 0.1,-0.1 c 0.3,-0.2 0.7,-0.6 0.8,-1.1 1.4,-5.1 2.9,-10.1 4.3,-15.2 l 3.6,-15.4 c 0.4,-1.1 0.1,-2.4 -1.2,-2.7 l -34.5,-7 c 1,-5.6 2.1,-11.2 3,-16.9 l 0,0 1.5,-9.7 c 0.5,-3.2 1,-6.5 1.3,-9.8 l 22.3,2 c -0.1,1.6 -0.2,3.1 -0.4,4.7 l -0.6,4.7 -1.2,9.3 c -0.2,1.2 0.7,2 1.6,2.2 0.2,0.1 0.5,0.3 0.8,0.3 l 9.4,1.4 c 0.5,0.1 0.9,-0.1 1.2,-0.3 0,0 0.1,-0.1 0.1,-0.1 l 0.1,-0.1 c 0.3,-0.3 0.6,-0.7 0.6,-1.2 0.7,-5.2 1.4,-10.5 2,-15.7 l 1.2,-15.8 c 0.2,-1.1 -0.2,-2.4 -1.6,-2.5 l -35.1,-1.8 0.4,-17.1 0,0 0,-9.8 c -0.1,-3.3 0.1,-6.6 -0.1,-9.8 l 22.3,-1.3 c 0.3,3.1 0.3,6.3 0.4,9.4 l 0.2,9.4 c 0,1.3 1,1.9 1.9,1.9 0.2,0.1 0.5,0.2 0.8,0.2 l 9.5,0 c 0.5,0 0.9,-0.2 1.2,-0.5 0,0 0.1,-0.1 0.1,-0.1 l 0.1,-0.1 c 0.3,-0.3 0.5,-0.7 0.4,-1.3 l 0,-16 z"
           id="path27"
           inkscape:connector-curvature="0" /></g></g></switch></svg>