<?xml version="1.0" encoding="UTF-8" standalone="no"?>
<svg
   xmlns:dc="http://purl.org/dc/elements/1.1/"
   xmlns:cc="http://creativecommons.org/ns#"
   xmlns:rdf="http://www.w3.org/1999/02/22-rdf-syntax-ns#"
   xmlns:svg="http://www.w3.org/2000/svg"
   xmlns="http://www.w3.org/2000/svg"
   xmlns:sodipodi="http://sodipodi.sourceforge.net/DTD/sodipodi-0.dtd"
   xmlns:inkscape="http://www.inkscape.org/namespaces/inkscape"
   version="1.1"
   id="Layer_1"
   x="0px"
   y="0px"
   viewBox="0 0 1000 1000"
   width="100%"
   height="100%"
   style="enable-background:new 0 0 1000 1000;"
   xml:space="preserve"
   ><style
     type="text/css"
     id="style3">
	.noFillSVG{fill:none;}
</style><switch
     id="switch5"
     transform="translate(-28.778319,7.497452)"><g
       id="g7"><g
         id="g9"><path
           class="noFillSVG"
           d="m 405.9,191.7 c 0,0 -0.1,0 -0.2,-0.1 -8.5,-7.5 -18.2,-12.4 -29,-14.7 8,7.6 10.9,20.1 4,28.3 8.9,-4.6 18.1,-8.8 27.4,-12.6 -0.9,0.3 -1.9,0 -2.2,-0.9 z"
           id="path11"
           inkscape:connector-curvature="0"
           style="fill:none" /><path
           class="noFillSVG"
           d="m 448.5,140.4 c -2.5,1.5 -4.5,5 -7.1,6.8 -2.8,2 -5.6,3.3 -8.7,4.3 9.7,3.7 16.9,10 23.5,17.7 -2.3,-9.7 -4.7,-19.4 -7.4,-29 -0.1,0.1 -0.2,0.1 -0.3,0.2 z"
           id="path13"
           inkscape:connector-curvature="0"
           style="fill:none" /><path
           class="noFillSVG"
           d="m 476.8,143.1 c -3.4,0.1 -6.8,0 -10.2,-0.5 -3.9,-0.5 -9.2,-2.8 -13.5,-3.1 2.6,9.4 5,18.9 7.2,28.4 3.6,-9.4 9.2,-17.8 16.5,-24.8 z"
           id="path15"
           inkscape:connector-curvature="0"
           style="fill:none" /><path
           class="noFillSVG"
           d="m 415.7,154.1 c -3.1,0.9 -6.2,1.4 -9.6,1.3 -3.2,0 -6.7,-1.8 -9.7,-1.6 -0.1,0 -0.2,0 -0.3,0 3.2,9.4 6.7,18.8 10.3,28.1 0.9,-10 3.4,-19.3 9.3,-27.8 z"
           id="path17"
           inkscape:connector-curvature="0"
           style="fill:none" /><path
           class="noFillSVG"
           d="m 477.7,148.3 c -7.5,7.9 -12.7,17.2 -15.5,27.9 7.9,-1.7 15.9,-3 24,-4.1 -7.3,-4.5 -10.4,-14.5 -8.5,-23.8 z"
           id="path19"
           inkscape:connector-curvature="0"
           style="fill:none" /><path
           class="noFillSVG"
           d="m 633.5,154.6 c -3,-1.1 -5.8,-2.5 -8.5,-4.6 -2.5,-1.9 -4.4,-5.4 -6.9,-7 -0.1,-0.1 -0.2,-0.1 -0.3,-0.2 -3,9.5 -5.7,19.1 -8.3,28.7 6.8,-7.5 14.3,-13.5 24,-16.9 z"
           id="path21"
           inkscape:connector-curvature="0"
           style="fill:none" /><path
           class="noFillSVG"
           d="m 487.7,167.5 c 8.1,5.3 20.2,1.2 23,-8.2 1,-3.3 -1.4,-9.4 -4.1,-11.5 -1.2,-0.9 -3.1,-0.9 -3.9,0.2 -0.5,0.7 -0.5,1.6 -0.5,2.4 0,4.5 1.3,11.6 -5.5,8.9 -2.8,-1.1 -3.9,-3.5 -4.1,-6.4 -0.6,-7.6 7,-12.8 14,-11.3 14.8,3.2 10.4,20.4 1,28.5 6.9,-0.4 13.9,-0.7 21,-0.7 9.9,0 19.7,0.5 29.4,1.4 -9,-8.4 -12.8,-25.6 2,-28.3 7,-1.3 14.5,4.1 13.6,11.7 -0.3,2.8 -1.5,5.2 -4.3,6.3 -6.8,2.6 -5.3,-4.5 -5.2,-9 0,-0.8 0,-1.8 -0.4,-2.5 -0.8,-1.2 -2.7,-1.2 -3.9,-0.4 -2.8,2 -5.3,8 -4.5,11.3 2.5,9.5 14.4,14 22.7,8.9 13.8,-8.4 6,-24 -3.4,-32.2 -4.1,-3.5 -9.3,-6.1 -14.7,-6 -7.1,0.1 -10.2,5.4 -14.4,10.2 -4.6,5.2 -12.7,8.2 -19.3,4.3 -7.8,-4.6 -8.6,-14.7 -19.2,-15.3 -5.4,-0.3 -10.7,2.1 -14.9,5.5 -9.7,8 -17.9,23.3 -4.4,32.2 z"
           id="path23"
           inkscape:connector-curvature="0"
           style="fill:none" /><path
           class="noFillSVG"
           d="m 579.6,173.4 c 8,1.3 15.8,2.8 23.6,4.7 -2.5,-10.7 -7.3,-20.1 -14.5,-28.1 1.6,9.2 -1.8,19.1 -9.1,23.4 z"
           id="path25"
           inkscape:connector-curvature="0"
           style="fill:none" /><path
           class="noFillSVG"
           d="m 613.5,142 c -4.3,0.2 -9.6,2.3 -13.6,2.7 -3.4,0.3 -6.8,0.3 -10.3,0.2 7.1,7.3 12.4,15.8 15.7,25.3 2.6,-9.5 5.3,-18.9 8.2,-28.2 z"
           id="path27"
           inkscape:connector-curvature="0"
           style="fill:none" /><path
           class="noFillSVG"
           d="m 392,155.8 c -3.4,2.7 -6.4,7.5 -9.4,10.2 -2.6,2.3 -5.3,4.3 -8.2,6.2 10.1,1.6 19.4,5.4 27.6,11.2 -3.4,-9.2 -6.8,-18.4 -10,-27.6 z"
           id="path29"
           inkscape:connector-curvature="0"
           style="fill:none" /><path
           class="noFillSVG"
           d="m 205.7,431.3 c 7.5,-6.2 7.1,-18.9 -1,-24.4 -2.8,-1.9 -9.4,-1.5 -12.2,0.5 -1.2,0.9 -1.8,2.6 -0.9,3.8 0.5,0.7 1.4,1 2.2,1.2 4.3,1.3 11.5,2.2 6.8,7.8 -1.9,2.3 -4.5,2.7 -7.3,2 -7.5,-1.7 -10.1,-10.5 -6.6,-16.7 8,-14.1 24.7,-2.4 28.4,10 4.4,-18.1 10.4,-35.6 17.7,-52.4 -10.1,8.2 -31.3,8 -29.3,-8.4 0.9,-7.1 8.2,-12.6 15.3,-9.5 2.6,1.2 4.5,3 4.7,6 0.4,7.3 -5.9,3.7 -10.1,2.2 -0.8,-0.3 -1.7,-0.6 -2.5,-0.3 -1.4,0.4 -1.9,2.2 -1.5,3.6 1,3.3 6.1,7.5 9.5,7.7 9.8,0.5 17.7,-9.6 15.3,-19 -3.9,-15.7 -21.1,-12.9 -31.8,-6.3 -4.6,2.8 -8.6,7 -10.1,12.2 -2,6.8 2.1,11.4 5.4,16.8 3.6,6 4,14.6 -1.7,19.7 -6.7,6.1 -16.6,3.8 -20.3,13.8 -1.9,5.1 -1.2,10.8 0.8,15.8 4.6,11.8 16.7,24.2 29.2,13.9 z"
           id="path31"
           inkscape:connector-curvature="0"
           style="fill:none" /><path
           class="noFillSVG"
           d="m 168.1,460.7 c 0.7,2.9 3.4,5.8 4.4,8.8 1,3.2 1.5,6.3 1.5,9.6 6.4,-8.1 14.6,-13.2 23.9,-17.1 -9.9,-0.7 -19.9,-1.3 -29.9,-1.6 0.1,0.1 0.1,0.2 0.1,0.3 z"
           id="path33"
           inkscape:connector-curvature="0"
           style="fill:none" /><path
           class="noFillSVG"
           d="m 236.9,288.3 c -2,2.6 -4.2,4.8 -6.9,6.8 -2.6,1.9 -6.5,2.6 -8.8,4.5 -0.1,0.1 -0.2,0.2 -0.2,0.2 8.2,5.7 16.5,11.2 25,16.5 -5.2,-8.7 -8.8,-17.7 -9.1,-28 z"
           id="path35"
           inkscape:connector-curvature="0"
           style="fill:none" /><path
           class="noFillSVG"
           d="m 218.9,303.7 c -1.1,4.2 -0.7,9.8 -1.5,13.7 -0.7,3.4 -1.7,6.6 -2.9,9.8 9.1,-4.6 18.8,-7.1 28.9,-7.4 -8.3,-5.2 -16.5,-10.6 -24.5,-16.1 z"
           id="path37"
           inkscape:connector-curvature="0"
           style="fill:none" /><path
           class="noFillSVG"
           d="m 305.6,250.7 c 9.7,-0.5 17,-11 13.6,-20.2 -1.2,-3.2 -6.7,-6.8 -10.1,-6.8 -1.4,0 -3,1 -3,2.5 0,0.8 0.5,1.6 1,2.3 2.7,3.6 7.9,8.6 0.8,10.4 -2.9,0.7 -5.2,-0.5 -7.1,-2.7 -5,-5.8 -1.9,-14.5 4.6,-17.4 15.1,-6.7 21.5,13.4 16.7,25.4 14.5,-12.1 30,-22.9 46.4,-32.3 -13.1,1.3 -31.1,-11.8 -19.5,-24.1 4.9,-5.2 14.1,-5.3 17.9,1.4 1.4,2.5 1.8,5.1 0.2,7.6 -4,6.1 -7,-0.5 -9.5,-4.2 -0.5,-0.7 -1,-1.4 -1.8,-1.7 -1.4,-0.5 -2.9,0.6 -3.3,2 -1.1,3.3 0.4,9.6 3.1,11.8 7.6,6.2 19.9,2.8 23.6,-6.2 6.1,-14.9 -9.3,-22.9 -21.8,-24 -5.4,-0.5 -11.1,0.6 -15.4,3.9 -5.6,4.3 -5,10.4 -5.6,16.7 -0.6,6.9 -5.5,14.1 -13.1,14.9 -9,0.9 -15.7,-6.8 -24.5,-0.9 -4.5,3 -7.4,8 -8.7,13.2 -3,12 -0.6,29.2 15.5,28.4 z"
           id="path39"
           inkscape:connector-curvature="0"
           style="fill:none" /><path
           class="noFillSVG"
           d="m 310.1,254.8 c -9.6,2.6 -19.5,-4.1 -23.8,-13.7 -1.4,11 0,21.8 4.2,32.2 0,0.1 0,0.1 0,0.2 0.2,0.1 0.3,0.3 0.4,0.5 6.1,-6.6 12.5,-13.1 19.2,-19.2 z"
           id="path41"
           inkscape:connector-curvature="0"
           style="fill:none" /><path
           class="noFillSVG"
           d="m 239.2,349.2 c 4.2,-8.5 8.8,-16.8 13.7,-24.8 -0.5,0.2 -1,0.2 -1.5,-0.1 -0.1,0 -0.1,0 -0.2,0 -11.3,-1 -22,0.8 -32.1,5.4 10.7,1.4 20.2,9.3 20.1,19.5 z"
           id="path43"
           inkscape:connector-curvature="0"
           style="fill:none" /><path
           class="noFillSVG"
           d="m 837.7,307.6 c -2.3,-1.9 -6.2,-2.6 -8.8,-4.4 -2.8,-2 -5,-4.2 -7,-6.7 -0.3,10.3 -3.8,19.3 -8.9,28 8.4,-5.4 16.7,-10.9 24.9,-16.6 0,-0.1 -0.1,-0.2 -0.2,-0.3 z"
           id="path45"
           inkscape:connector-curvature="0"
           style="fill:none" /><path
           class="noFillSVG"
           d="m 646.3,828.3 c 3.1,-0.9 6.2,-1.4 9.6,-1.3 3.2,0.1 6.7,1.8 9.7,1.6 0.1,0 0.2,0 0.3,0 -3.2,-9.4 -6.6,-18.8 -10.2,-28.1 -1,10.1 -3.5,19.4 -9.4,27.8 z"
           id="path47"
           inkscape:connector-curvature="0"
           style="fill:none" /><path
           class="noFillSVG"
           d="m 804.4,731.1 c 1.2,-2.7 0.7,-6.7 1.7,-9.7 1.1,-3.2 2.6,-6 4.5,-8.6 -10,2.7 -19.5,1.9 -29.4,-0.5 7.5,6.5 15.2,12.9 23,19.1 0.1,-0.1 0.2,-0.2 0.2,-0.3 z"
           id="path49"
           inkscape:connector-curvature="0"
           style="fill:none" /><path
           class="noFillSVG"
           d="m 844.6,335.3 c -1.2,-3.2 -2.2,-6.4 -3,-9.8 -0.8,-3.9 -0.4,-9.6 -1.6,-13.7 -8,5.6 -16.1,11 -24.4,16.3 10.2,0.1 20,2.6 29,7.2 z"
           id="path51"
           inkscape:connector-curvature="0"
           style="fill:none" /><path
           class="noFillSVG"
           d="m 669.9,826.8 c 3.4,-2.7 6.4,-7.5 9.4,-10.1 2.6,-2.3 5.3,-4.3 8.2,-6.2 -10,-1.7 -19.3,-5.5 -27.6,-11.3 3.5,9.1 6.9,18.3 10,27.6 z"
           id="path53"
           inkscape:connector-curvature="0"
           style="fill:none" /><path
           class="noFillSVG"
           d="m 779.9,745.6 c 2.7,-2.1 5.5,-4 8.6,-5.6 3.5,-1.9 9,-3.1 12.7,-5.4 -7.6,-6.1 -15.2,-12.3 -22.6,-18.7 2.7,9.6 3.1,19.6 1.3,29.7 z"
           id="path55"
           inkscape:connector-curvature="0"
           style="fill:none" /><path
           class="noFillSVG"
           d="m 672.2,159.6 c -0.1,0 -0.2,0 -0.3,-0.1 -3,-0.3 -6.6,1.4 -9.7,1.4 -3.4,0 -6.5,-0.6 -9.6,-1.6 5.7,8.6 7.9,18 8.6,28.1 3.9,-9.2 7.6,-18.5 11,-27.8 z"
           id="path57"
           inkscape:connector-curvature="0"
           style="fill:none" /><path
           class="noFillSVG"
           d="m 258,252 c -1.1,2.7 -0.7,6.7 -1.7,9.7 -1.1,3.2 -2.6,6 -4.4,8.6 10,-2.7 19.5,-2 29.4,0.4 -7.6,-6.5 -15.3,-12.8 -23.1,-19 -0.1,0.1 -0.2,0.2 -0.2,0.3 z"
           id="path59"
           inkscape:connector-curvature="0"
           style="fill:none" /><path
           class="noFillSVG"
           d="m 282.4,237.4 c -2.7,2.1 -5.5,4 -8.5,5.7 -3.5,1.9 -9,3.2 -12.7,5.5 7.7,6.1 15.2,12.3 22.6,18.6 -2.7,-9.7 -3.2,-19.7 -1.4,-29.8 z"
           id="path61"
           inkscape:connector-curvature="0"
           style="fill:none" /><path
           class="noFillSVG"
           d="m 179.1,434.4 c -0.9,3.3 -2.1,6.5 -3.5,9.6 -1.7,3.6 -5.4,7.9 -7,11.9 9.8,0.3 19.5,0.8 29.3,1.6 -7.9,-6.1 -14.2,-13.9 -18.8,-23.1 z"
           id="path63"
           inkscape:connector-curvature="0"
           style="fill:none" /><path
           class="noFillSVG"
           d="m 693.3,178.3 c -2.8,-1.9 -5.5,-4 -8,-6.4 -2.9,-2.7 -5.8,-7.6 -9.1,-10.4 -3.4,9.2 -7,18.2 -10.8,27.3 8.4,-5.6 17.8,-9.1 27.9,-10.5 z"
           id="path65"
           inkscape:connector-curvature="0"
           style="fill:none" /><path
           class="noFillSVG"
           d="m 755,262.4 c 6.6,6.6 13,13.4 19.1,20.5 0,-0.4 0.2,-0.8 0.6,-1.1 0,-0.1 0,-0.1 0,-0.2 4.5,-10.4 6.2,-21.1 5.1,-32.1 -4.7,9.7 -15.1,16.2 -24.8,12.9 z"
           id="path67"
           inkscape:connector-curvature="0"
           style="fill:none" /><path
           class="noFillSVG"
           d="m 687.8,204.5 c 3.5,9.1 15.7,12.8 23.4,6.8 2.7,-2.1 4.4,-8.4 3.4,-11.7 -0.4,-1.4 -1.9,-2.5 -3.3,-2.1 -0.8,0.3 -1.3,1 -1.8,1.7 -2.6,3.6 -5.7,10.2 -9.6,4 -1.6,-2.5 -1.1,-5.2 0.4,-7.6 4,-6.6 13.2,-6.2 18,-0.9 11,12.2 -6.1,24.5 -19,23.7 15.8,9.9 30.8,21.1 44.6,33.6 -4.7,-12.1 2.3,-32.4 17.3,-25.2 6.4,3.1 9.3,11.8 4.2,17.5 -1.9,2.1 -4.3,3.3 -7.2,2.5 -7,-1.9 -1.7,-6.8 1.1,-10.3 0.5,-0.7 1.1,-1.4 1.1,-2.2 0.1,-1.4 -1.5,-2.5 -2.9,-2.6 -3.4,-0.1 -9,3.4 -10.3,6.5 -3.6,9.1 3.4,19.8 13.1,20.5 16.1,1.3 18.9,-15.9 16.1,-28.1 -1.2,-5.3 -4,-10.4 -8.4,-13.4 -5.8,-4 -11.4,-1.6 -17.6,-0.2 -6.8,1.5 -15.1,-0.9 -18.2,-7.9 -3.6,-8.3 1.7,-17 -6.6,-23.6 -4.2,-3.4 -9.9,-4.6 -15.3,-4.2 -12.6,0.5 -28.3,8.1 -22.5,23.2 z"
           id="path69"
           inkscape:connector-curvature="0"
           style="fill:none" /><path
           class="noFillSVG"
           d="m 840,337.9 c -9.8,-4.4 -20.1,-6.2 -31,-5.3 4,7 7.8,14.2 11.3,21.6 1.7,-8.7 10.2,-15.1 19.7,-16.3 z"
           id="path71"
           inkscape:connector-curvature="0"
           style="fill:none" /><path
           class="noFillSVG"
           d="m 792.1,251.8 c -3,-1.7 -5.7,-3.7 -8.4,-5.9 1.5,10.1 0.8,20.1 -2.1,29.7 7.6,-6.2 15.3,-12.2 23.1,-18.1 -3.6,-2.3 -9.2,-3.7 -12.6,-5.7 z"
           id="path73"
           inkscape:connector-curvature="0"
           style="fill:none" /><path
           class="noFillSVG"
           d="m 813.5,279.6 c -1.8,-2.7 -3.2,-5.5 -4.2,-8.7 -0.9,-3 -0.4,-7 -1.5,-9.7 0,-0.1 -0.1,-0.2 -0.1,-0.3 -8,6 -15.8,12.1 -23.6,18.4 9.9,-2.2 19.5,-2.7 29.4,0.3 z"
           id="path75"
           inkscape:connector-curvature="0"
           style="fill:none" /><path
           class="noFillSVG"
           d="m 691,183.1 c -10.9,2 -20.7,6.7 -29.4,13.9 0,0 -0.1,0.1 -0.2,0.1 -0.1,0.3 -0.3,0.5 -0.5,0.6 8.3,3.8 16.5,7.9 24.4,12.3 -5.5,-8.3 -2.2,-19.8 5.7,-26.9 z"
           id="path77"
           inkscape:connector-curvature="0"
           style="fill:none" /><path
           class="noFillSVG"
           d="m 818.5,633.9 c -4.5,9.1 -9.3,17.9 -14.6,26.5 0.6,-0.6 1.5,-0.8 2.2,-0.4 0.1,0 0.1,0 0.2,0 11.3,1.1 22,-0.7 32.1,-5.3 -11.1,-1.4 -20.9,-10 -19.9,-20.8 z"
           id="path79"
           inkscape:connector-curvature="0"
           style="fill:none" /><path
           class="noFillSVG"
           d="m 838.5,680.9 c 1.2,-4.2 0.8,-9.8 1.6,-13.7 0.7,-3.4 1.7,-6.6 3,-9.8 -9.1,4.6 -18.8,7 -28.9,7.3 8.2,5.2 16.3,10.6 24.3,16.2 z"
           id="path81"
           inkscape:connector-curvature="0"
           style="fill:none" /><path
           class="noFillSVG"
           d="m 820.4,696.1 c 2,-2.5 4.2,-4.8 7,-6.7 2.6,-1.8 6.5,-2.5 8.8,-4.4 0.1,-0.1 0.2,-0.2 0.2,-0.2 -8.2,-5.7 -16.5,-11.2 -24.9,-16.6 5.1,8.7 8.7,17.6 8.9,27.9 z"
           id="path83"
           inkscape:connector-curvature="0"
           style="fill:none" /><path
           class="noFillSVG"
           d="m 852.4,553.3 c -7.5,6.1 -7.2,18.9 0.9,24.4 2.8,1.9 9.4,1.5 12.2,-0.5 1.2,-0.8 1.8,-2.6 0.9,-3.8 -0.5,-0.7 -1.4,-1 -2.2,-1.2 -4.3,-1.4 -11.5,-2.3 -6.8,-7.9 1.9,-2.3 4.6,-2.7 7.3,-2 7.5,1.7 10.1,10.6 6.5,16.8 -8.5,14.8 -26.4,1 -28.8,-11.9 -4.5,19.1 -10.8,37.5 -18.6,55 9.6,-9.1 32.5,-9.3 30.3,7.7 -0.9,7 -8.3,12.6 -15.3,9.4 -2.6,-1.2 -4.5,-3 -4.7,-6 -0.4,-7.3 5.9,-3.7 10.2,-2.2 0.8,0.3 1.7,0.6 2.5,0.3 1.4,-0.4 2,-2.2 1.5,-3.6 -1,-3.3 -6,-7.5 -9.4,-7.7 -9.8,-0.5 -17.7,9.5 -15.4,18.9 3.8,15.7 21,13 31.7,6.5 4.6,-2.8 8.6,-7 10.1,-12.2 2,-6.8 -2.1,-11.4 -5.3,-16.8 -3.6,-6 -3.9,-14.6 1.8,-19.7 6.7,-6 16.7,-3.7 20.4,-13.7 1.9,-5.1 1.2,-10.8 -0.8,-15.8 -4.4,-11.7 -16.5,-24.2 -29,-14 z"
           id="path85"
           inkscape:connector-curvature="0"
           style="fill:none" /><path
           class="noFillSVG"
           d="m 583.3,835.9 c 7.5,-8.1 12.5,-17.7 15.1,-28.6 -8.2,1.8 -16.4,3.3 -24.8,4.5 8,4.1 11.5,14.5 9.7,24.1 z"
           id="path87"
           inkscape:connector-curvature="0"
           style="fill:none" /><path
           class="noFillSVG"
           d="m 584.3,841.1 c 3.4,-0.1 6.8,-0.1 10.2,0.3 3.9,0.4 9.2,2.6 13.5,2.8 -2.8,-9.4 -5.4,-18.8 -7.7,-28.3 -3.4,9.6 -8.8,18 -16,25.2 z"
           id="path89"
           inkscape:connector-curvature="0"
           style="fill:none" /><path
           class="noFillSVG"
           d="m 890.1,524.1 c -0.7,-2.9 -3.4,-5.8 -4.3,-8.8 -1,-3.2 -1.4,-6.3 -1.5,-9.6 -6.4,8.1 -14.6,13.1 -24,17 9.9,0.8 19.9,1.4 29.9,1.7 -0.1,-0.1 -0.1,-0.2 -0.1,-0.3 z"
           id="path91"
           inkscape:connector-curvature="0"
           style="fill:none" /><path
           class="noFillSVG"
           d="m 612.7,843.3 c 2.5,-1.6 4.4,-5.1 7,-6.9 2.7,-2 5.5,-3.4 8.6,-4.5 -9.7,-3.5 -17.1,-9.7 -23.8,-17.3 2.4,9.7 5.1,19.3 7.9,28.8 0.1,0 0.2,0 0.3,-0.1 z"
           id="path93"
           inkscape:connector-curvature="0"
           style="fill:none" /><path
           class="noFillSVG"
           d="m 884,409.5 c -2.5,-6.6 -8.5,-7.8 -14.4,-10.2 -6.5,-2.6 -11.9,-9.3 -10.5,-16.8 1.7,-8.9 11,-13 8,-23.2 -1.5,-5.2 -5.5,-9.4 -10.1,-12.2 -10.7,-6.5 -27.9,-9.2 -31.7,6.5 -2.3,9.4 5.6,19.4 15.4,18.9 3.4,-0.2 8.4,-4.4 9.4,-7.7 0.4,-1.4 -0.1,-3.2 -1.5,-3.6 -0.8,-0.2 -1.7,0.1 -2.5,0.3 -4.2,1.5 -10.5,5.1 -10.2,-2.2 0.1,-3 2,-4.9 4.6,-6 7,-3.1 14.4,2.4 15.3,9.4 2,15.5 -16.9,16.6 -27.5,9.9 6.7,16.8 12,34.3 15.9,52.3 2.8,-12.8 20.3,-25.9 28.7,-11.4 3.5,6.2 1,15 -6.5,16.8 -2.8,0.6 -5.4,0.3 -7.3,-2 -4.7,-5.6 2.5,-6.5 6.8,-7.9 0.8,-0.3 1.7,-0.6 2.2,-1.2 0.9,-1.2 0.2,-2.9 -0.9,-3.8 -2.8,-2 -9.4,-2.4 -12.2,-0.5 -8.1,5.5 -8.4,18.2 -0.9,24.4 12.5,10.2 24.6,-2.3 29.2,-14 1.9,-5 2.6,-10.7 0.7,-15.8 z"
           id="path95"
           inkscape:connector-curvature="0"
           style="fill:none" /><path
           class="noFillSVG"
           d="m 184.4,435.1 c 5.4,9.7 12.9,17.5 22.6,23.4 0.1,0 0.1,0.1 0.1,0.1 0.2,0 0.3,0.1 0.4,0.1 0.9,-8.9 2.2,-17.7 3.9,-26.4 -6.3,7.4 -18,7.9 -27,2.8 z"
           id="path97"
           inkscape:connector-curvature="0"
           style="fill:none" /><path
           class="noFillSVG"
           d="m 885.9,486.9 c 0,-3.2 0.5,-6.3 1.5,-9.6 1,-3 3.7,-5.9 4.3,-8.8 0,-0.1 0,-0.2 0,-0.3 -10,0.4 -19.9,1 -29.9,1.7 9.5,3.9 17.7,8.9 24.1,17 z"
           id="path99"
           inkscape:connector-curvature="0"
           style="fill:none" /><path
           class="noFillSVG"
           d="m 878.9,550.3 c 1,-3.3 2.1,-6.5 3.6,-9.6 1.7,-3.6 5.4,-7.9 7,-11.9 -9.8,-0.4 -19.5,-0.9 -29.3,-1.7 7.9,6.2 14.3,14 18.7,23.2 z"
           id="path101"
           inkscape:connector-curvature="0"
           style="fill:none" /><path
           class="noFillSVG"
           d="m 884.1,451.9 c -1.5,-3.1 -2.6,-6.3 -3.6,-9.6 -4.5,9.2 -10.8,17 -18.7,23.2 9.7,-0.8 19.5,-1.3 29.3,-1.7 -1.6,-4 -5.3,-8.3 -7,-11.9 z"
           id="path103"
           inkscape:connector-curvature="0"
           style="fill:none" /><path
           class="noFillSVG"
           d="m 573,816.9 c -8.2,-5.2 -20.2,-0.8 -22.8,8.6 -0.9,3.3 1.5,9.4 4.3,11.4 1.2,0.8 3.1,0.9 3.9,-0.3 0.5,-0.7 0.5,-1.6 0.5,-2.5 -0.1,-4.5 -1.5,-11.6 5.3,-8.9 2.8,1.1 4,3.5 4.3,6.3 0.8,7.6 -6.8,12.9 -13.8,11.5 -15.3,-3 -10.5,-21.2 -0.7,-29.2 -8.4,0.7 -16.8,1 -25.3,1 -9.2,0 -18.3,-0.4 -27.3,-1.2 10,7.7 15.3,26.4 -0.2,29.5 -7,1.4 -14.6,-3.8 -13.8,-11.5 0.3,-2.9 1.4,-5.2 4.2,-6.3 6.8,-2.7 5.4,4.4 5.3,8.9 0,0.8 0,1.8 0.5,2.4 0.8,1.2 2.7,1.1 3.9,0.3 2.8,-2 5.2,-8.1 4.3,-11.4 -2.6,-9.4 -14.6,-13.7 -22.8,-8.5 -13.6,8.6 -5.6,24.1 4,32.2 4.1,3.5 9.4,5.9 14.8,5.7 7.1,-0.3 10.1,-5.6 14.2,-10.4 4.5,-5.3 12.6,-8.4 19.3,-4.6 7.9,4.4 8.9,14.6 19.5,14.9 5.4,0.2 10.6,-2.3 14.8,-5.8 9.3,-8.1 17.2,-23.5 3.6,-32.1 z"
           id="path105"
           inkscape:connector-curvature="0"
           style="fill:none" /><path
           class="noFillSVG"
           d="m 873.7,549.6 c -5.3,-9.7 -12.8,-17.6 -22.4,-23.5 -0.1,0 -0.1,-0.1 -0.1,-0.1 -0.7,-0.1 -1.1,-0.5 -1.4,-1.1 -1,9.8 -2.5,19.6 -4.3,29.1 5.7,-9 18.5,-9.9 28.2,-4.4 z"
           id="path107"
           inkscape:connector-curvature="0"
           style="fill:none" /><circle
           transform="matrix(0.7071,-0.7071,0.7071,0.7071,-193.1812,517.9041)"
           class="noFillSVG"
           cx="528.59998"
           cy="492.10001"
           id="ellipse109"
           r="318.39999"
           style="fill:none" /><path
           class="noFillSVG"
           d="m 218.5,680.9 c 2.3,1.9 6.2,2.7 8.7,4.5 2.7,2 4.9,4.2 6.9,6.8 0.4,-10.3 4,-19.2 9.2,-27.9 -8.5,5.3 -16.8,10.7 -25.1,16.3 0.1,0.1 0.2,0.2 0.3,0.3 z"
           id="path111"
           inkscape:connector-curvature="0"
           style="fill:none" /><path
           class="noFillSVG"
           d="m 247.8,708.1 c 1.8,2.7 3.3,5.4 4.3,8.7 1,3 0.5,7 1.6,9.7 0,0.1 0.1,0.2 0.2,0.3 7.9,-6.1 15.7,-12.3 23.3,-18.7 -9.9,2.2 -19.4,2.9 -29.4,0 z"
           id="path113"
           inkscape:connector-curvature="0"
           style="fill:none" /><path
           class="noFillSVG"
           d="m 216.6,650.6 c 10,4.7 20.8,6.6 32,5.7 0.1,0 0.1,0 0.2,0 0.7,-0.4 1.6,-0.2 2.2,0.4 -5.1,-8.6 -9.9,-17.5 -14.2,-26.7 0.8,10.9 -9.1,19.3 -20.2,20.6 z"
           id="path115"
           inkscape:connector-curvature="0"
           style="fill:none" /><path
           class="noFillSVG"
           d="m 211.9,653.2 c 1.2,3.2 2.2,6.5 2.8,9.9 0.8,3.9 0.3,9.6 1.4,13.7 8.1,-5.5 16.3,-10.8 24.6,-16 -10,-0.4 -19.7,-2.9 -28.8,-7.6 z"
           id="path117"
           inkscape:connector-curvature="0"
           style="fill:none" /><path
           class="noFillSVG"
           d="m 269.5,735.6 c 3,1.7 5.8,3.7 8.5,5.8 -1.6,-10.1 -1,-20.1 1.8,-29.8 -7.5,6.3 -15.1,12.4 -22.9,18.3 3.6,2.4 9.2,3.7 12.6,5.7 z"
           id="path119"
           inkscape:connector-curvature="0"
           style="fill:none" /><path
           class="noFillSVG"
           d="m 231.6,635 c 2.4,-9.4 -5.4,-19.5 -15.2,-19.1 -3.4,0.1 -8.5,4.3 -9.5,7.6 -0.4,1.4 0.1,3.2 1.5,3.6 0.8,0.2 1.7,0 2.5,-0.3 4.3,-1.4 10.6,-5 10.1,2.3 -0.2,3 -2.1,4.8 -4.7,6 -7,3 -14.4,-2.6 -15.2,-9.6 -2,-17 21,-16.5 30.4,-7.3 -7.6,-17.7 -13.6,-36.3 -17.9,-55.5 -2.3,13 -20.6,26.8 -29,11.8 -3.4,-6.2 -0.8,-15 6.7,-16.7 2.8,-0.6 5.4,-0.2 7.3,2.1 4.6,5.7 -2.6,6.5 -6.9,7.8 -0.8,0.2 -1.7,0.5 -2.2,1.2 -0.9,1.1 -0.3,2.9 0.9,3.8 2.8,2 9.3,2.5 12.2,0.6 8.2,-5.4 8.6,-18.1 1.2,-24.4 -12.4,-10.4 -24.6,2 -29.4,13.6 -2.1,5 -2.8,10.7 -0.9,15.8 2.4,6.7 8.4,7.9 14.2,10.4 6.4,2.7 11.8,9.5 10.3,16.9 -1.8,8.8 -11.2,12.9 -8.3,23.1 1.5,5.2 5.4,9.4 10,12.3 10.7,6.8 27.8,9.7 31.9,-6 z"
           id="path121"
           inkscape:connector-curvature="0"
           style="fill:none" /><path
           class="noFillSVG"
           d="m 172.6,501 c -0.1,3.2 -0.5,6.3 -1.6,9.5 -1,3 -3.7,5.9 -4.5,8.8 0,0.1 0,0.2 -0.1,0.3 10,-0.2 19.9,-0.7 29.9,-1.4 -9.2,-3.9 -17.4,-9 -23.7,-17.2 z"
           id="path123"
           inkscape:connector-curvature="0"
           style="fill:none" /><path
           class="noFillSVG"
           d="m 304.3,724 c -6.1,-5.9 -12.1,-12.1 -17.7,-18.6 0,0 0,0.1 0,0.1 -4.4,10.4 -5.9,21.2 -4.7,32.2 4.2,-8.9 13.4,-15.3 22.4,-13.7 z"
           id="path125"
           inkscape:connector-curvature="0"
           style="fill:none" /><path
           class="noFillSVG"
           d="m 196.3,522.7 c -9.7,0.6 -19.5,1.1 -29.3,1.3 1.5,4 5.2,8.4 6.9,12 1.4,3.1 2.5,6.4 3.4,9.7 4.7,-9.1 11.1,-16.8 19,-23 z"
           id="path127"
           inkscape:connector-curvature="0"
           style="fill:none" /><path
           class="noFillSVG"
           d="m 182.7,545 c 9.8,-5.4 22.7,-4.4 28.4,4.9 -1.8,-9.8 -3.1,-19.7 -4,-29.7 -0.2,0.8 -0.7,1.4 -1.5,1.4 -0.1,0 -0.1,0.1 -0.1,0.1 -9.8,5.9 -17.4,13.7 -22.8,23.3 z"
           id="path129"
           inkscape:connector-curvature="0"
           style="fill:none" /><path
           class="noFillSVG"
           d="m 427.4,832.3 c 3,1.1 5.9,2.4 8.6,4.4 2.6,1.9 4.5,5.3 7,6.9 0.1,0.1 0.2,0.1 0.3,0.2 2.8,-9.6 5.4,-19.2 7.8,-28.9 -6.6,7.7 -14,13.9 -23.7,17.4 z"
           id="path131"
           inkscape:connector-curvature="0"
           style="fill:none" /><path
           class="noFillSVG"
           d="m 447.6,844.6 c 4.3,-0.2 9.6,-2.4 13.5,-2.9 3.4,-0.4 6.8,-0.5 10.2,-0.3 -7.3,-7.1 -12.7,-15.6 -16.1,-25.1 -2.3,9.5 -4.8,18.9 -7.6,28.3 z"
           id="path133"
           inkscape:connector-curvature="0"
           style="fill:none" /><path
           class="noFillSVG"
           d="m 371.5,803.1 c 10.9,-2.1 20.6,-6.9 29.2,-14.3 0,0 0.1,-0.1 0.2,-0.1 0,0 0.1,-0.1 0.1,-0.1 -7.9,-3.4 -15.7,-7.2 -23.3,-11.2 4.3,8.1 1.1,18.9 -6.2,25.7 z"
           id="path135"
           inkscape:connector-curvature="0"
           style="fill:none" /><path
           class="noFillSVG"
           d="m 482.7,811.6 c -8.7,-1.2 -17.2,-2.8 -25.7,-4.7 0,0.1 0,0.2 0,0.3 0,0.1 0.1,0.1 0.1,0.2 2.6,11 7.7,20.6 15.3,28.7 -2,-9.9 1.9,-20.6 10.3,-24.5 z"
           id="path137"
           inkscape:connector-curvature="0"
           style="fill:none" /><path
           class="noFillSVG"
           d="m 374.4,781.6 c -3.6,-9 -15.8,-12.6 -23.5,-6.5 -2.7,2.1 -4.3,8.5 -3.2,11.7 0.5,1.4 2,2.5 3.3,2 0.8,-0.3 1.3,-1 1.8,-1.7 2.6,-3.7 5.6,-10.3 9.6,-4.1 1.6,2.5 1.2,5.1 -0.3,7.6 -3.9,6.6 -13.1,6.4 -17.9,1.2 -10.7,-11.6 4.3,-23.5 17,-24 -15.1,-9.2 -29.3,-19.6 -42.6,-31 3.4,12.2 -3.4,30 -17.6,23.4 -6.4,-3 -9.5,-11.7 -4.4,-17.4 1.9,-2.1 4.3,-3.4 7.2,-2.6 7.1,1.9 1.7,6.8 -1,10.4 -0.5,0.7 -1,1.4 -1.1,2.3 0,1.4 1.5,2.5 3,2.5 3.4,0 9,-3.5 10.2,-6.7 3.5,-9.2 -3.7,-19.7 -13.4,-20.4 -16.1,-1.1 -18.7,16.1 -15.8,28.3 1.3,5.2 4.1,10.3 8.6,13.3 5.9,4 11.5,1.5 17.6,0 6.8,-1.6 15.1,0.7 18.3,7.6 3.7,8.2 -1.5,17 6.9,23.6 4.3,3.3 9.9,4.4 15.3,4.1 12.4,-0.8 28,-8.6 22,-23.6 z"
           id="path139"
           inkscape:connector-curvature="0"
           style="fill:none" /><path
           class="noFillSVG"
           d="m 390.5,826.4 c 0.1,0 0.2,0 0.3,0.1 3,0.2 6.5,-1.5 9.7,-1.5 3.4,0 6.5,0.5 9.6,1.5 -5.8,-8.6 -8.1,-17.9 -9,-28 -3.7,9.2 -7.2,18.5 -10.6,27.9 z"
           id="path141"
           inkscape:connector-curvature="0"
           style="fill:none" /><path
           class="noFillSVG"
           d="m 369.2,807.9 c 2.8,1.9 5.6,4 8.1,6.3 2.9,2.7 5.9,7.5 9.2,10.3 3.3,-9.2 6.8,-18.3 10.4,-27.4 -8.2,5.6 -17.6,9.3 -27.7,10.8 z"
           id="path143"
           inkscape:connector-curvature="0"
           style="fill:none" /><path
           d="m 897.9,465.3 c -7.2,-8.8 -11.9,-18.5 -14.6,-29.5 5,-7.2 7.5,-17.4 5.3,-26 -1.1,-4.3 -3.2,-8.1 -6.7,-10.9 -2.6,-2.1 -6.5,-2.8 -9.6,-4 -4.8,-1.9 -9.2,-6.5 -8,-12.2 1.1,-5.2 6.2,-8.4 7.5,-13.5 1.1,-4.3 0.5,-8.6 -1.3,-12.7 -3.5,-8.2 -11.6,-14.8 -19.9,-17.5 -4.6,-10.4 -6.6,-21 -6.2,-32.3 0,-1 -0.9,-1.8 -1.7,-2 -8.5,-1.9 -14.8,-6.4 -19.6,-13.7 -0.6,-0.9 -1.5,-1.1 -2.3,-0.9 -1.3,-0.9 -3.7,-0.3 -3.5,1.8 1,13.8 -4.1,24.7 -11.4,35.8 -8.8,-14.8 -18.8,-28.9 -29.8,-42 0.3,0 0.5,0 0.8,-0.1 13.5,-3.8 26,-5.7 39.4,-0.1 1.9,0.8 3.3,-1.2 2.8,-2.8 0.5,-0.7 0.6,-1.6 -0.1,-2.4 -5.4,-6.8 -7.7,-14.2 -6.9,-22.9 0.1,-0.9 -0.4,-2 -1.4,-2.3 -10.9,-3.2 -20.3,-8.4 -28.8,-16 0,-8.8 -3.7,-18.5 -10.4,-24.4 -3.3,-2.9 -7.2,-4.9 -11.7,-5.2 -3.4,-0.2 -6.9,1.4 -10.2,2.1 -5,1.2 -11.3,-0.1 -13.5,-5.5 -2,-4.9 0.3,-10.5 -1.5,-15.4 -1.6,-4.2 -4.5,-7.4 -8.3,-9.7 -7.5,-4.7 -17.9,-5.6 -26.3,-3.1 -9.7,-6 -17.4,-13.5 -23.5,-23.1 -0.5,-0.8 -1.7,-1 -2.6,-0.7 -8.1,3.2 -15.9,3.1 -23.9,-0.1 -1,-0.4 -1.8,-0.1 -2.4,0.6 -1.6,0 -3.2,1.9 -1.9,3.5 9.1,11.3 10.9,23.8 11,37.8 0,0.2 0.1,0.3 0.1,0.4 -15.7,-6.8 -31.9,-12.5 -48.8,-16.8 8.4,-10.4 17.3,-18.8 30.8,-22 2,-0.5 1.9,-2.9 0.7,-3.9 0,-0.8 -0.5,-1.6 -1.5,-1.9 -8.3,-2.3 -14.5,-7 -19,-14.5 -0.5,-0.8 -1.5,-1.4 -2.5,-1 -10.7,3.8 -21.4,5.1 -32.7,3.9 -5.1,-7.1 -13.9,-12.8 -22.7,-13.7 -4.4,-0.4 -8.7,0.3 -12.5,2.6 -2.9,1.8 -4.8,5.2 -7,7.7 -3.4,3.9 -9.2,6.5 -14.2,3.4 -4.5,-2.8 -5.9,-8.7 -10.3,-11.6 -3.7,-2.5 -8,-3.3 -12.4,-3 -8.9,0.6 -17.8,6 -23.1,13 -11.4,0.9 -22,-0.8 -32.6,-4.9 -0.9,-0.4 -2,0.2 -2.5,1 -4.7,7.4 -11,11.9 -19.4,13.9 -1.1,0.3 -1.5,1 -1.6,1.9 -1.3,0.9 -1.5,3.4 0.5,3.9 13.6,3.7 22.2,12.4 30.4,23.2 -16.5,3.8 -32.6,8.8 -48.1,15 0.6,-0.4 1,-1 1.1,-1.9 0.5,-14 2.6,-26.5 12,-37.5 1.3,-1.6 -0.2,-3.5 -1.8,-3.5 -0.5,-0.7 -1.3,-1 -2.4,-0.7 -8.1,3.1 -15.9,2.9 -23.9,-0.5 -0.8,-0.4 -2.1,-0.2 -2.6,0.6 -6.4,9.4 -14.2,16.8 -24.1,22.5 -8.4,-2.7 -18.8,-2.2 -26.4,2.4 -3.8,2.3 -6.8,5.4 -8.5,9.5 -1.3,3.1 -0.8,7 -1.1,10.3 -0.4,5.1 -3.6,10.7 -9.4,11.2 -5.3,0.4 -9.9,-3.5 -15.1,-3.3 -4.5,0.2 -8.4,2.1 -11.8,4.9 -6.8,5.7 -10.8,15.3 -11,24.1 -8.7,7.4 -18.2,12.4 -29.2,15.3 -0.9,0.2 -1.5,1.4 -1.4,2.3 0.6,8.7 -1.9,16.1 -7.4,22.7 -0.7,0.8 -0.6,1.7 -0.2,2.4 -0.5,1.5 0.8,3.6 2.8,2.8 13.5,-5.2 26,-3 39.4,1.1 0,0 0.1,0 0.1,0 -12.5,13.9 -23.8,29 -33.7,44.9 0,-0.4 -0.1,-0.8 -0.4,-1.2 -7.9,-11.6 -13.7,-22.9 -12.6,-37.3 0.1,-2.1 -2.2,-2.7 -3.5,-1.8 -0.8,-0.2 -1.7,0 -2.3,0.9 -4.7,7.3 -11,11.8 -19.5,13.8 -0.9,0.2 -1.8,1.1 -1.7,2 0.5,11.4 -1.5,21.9 -6,32.4 -8.3,2.8 -16.4,9.4 -19.8,17.6 -1.7,4.1 -2.3,8.4 -1.2,12.7 0.8,3.3 3.5,6.1 5.2,9 2.7,4.4 3.5,10.8 -1,14.6 -4,3.4 -10,3 -14.1,6.3 -3.5,2.8 -5.5,6.6 -6.6,10.9 -2.1,8.6 0.4,18.7 5.5,25.9 -2.6,11.1 -7.3,20.7 -14.4,29.6 -0.6,0.8 -0.4,2 0.2,2.7 5.6,6.6 8,14 7.5,22.7 -0.1,1.1 0.5,1.8 1.3,2.1 0.5,1.5 2.8,2.4 3.9,0.6 7.8,-12.2 19.1,-17.9 32.3,-22.5 -0.9,9.6 -1.3,19.3 -1.3,29.1 0,8.8 0.4,17.6 1.1,26.3 -0.2,-0.5 -0.7,-0.9 -1.3,-1.1 -13.2,-4.7 -24.5,-10.4 -32.2,-22.7 -1.1,-1.8 -3.4,-0.9 -3.9,0.6 -0.8,0.3 -1.4,1 -1.3,2 0.5,8.6 -2,16 -7.7,22.6 -0.6,0.7 -0.8,1.9 -0.2,2.7 7.1,8.9 11.7,18.6 14.2,29.7 -5.1,7.2 -7.7,17.3 -5.7,25.9 1,4.3 3.1,8.1 6.5,11 2.6,2.2 6.4,2.9 9.5,4.2 4.8,2 9.1,6.7 7.8,12.3 -1.2,5.1 -6.3,8.4 -7.7,13.4 -1.1,4.3 -0.6,8.6 1.1,12.7 3.4,8.2 11.4,14.9 19.7,17.7 4.5,10.5 6.3,21.1 5.8,32.4 0,1 0.8,1.8 1.7,2 8.5,2.1 14.8,6.6 19.4,13.9 0.6,0.9 1.5,1.1 2.3,0.9 1.3,0.9 3.7,0.3 3.5,-1.8 -0.9,-14.4 4.9,-25.7 12.9,-37.2 0.4,-0.6 0.5,-1.3 0.3,-1.8 9.4,15.6 20,30.3 31.7,44 -13.2,3.9 -25.6,5.8 -38.8,0.5 -1.9,-0.8 -3.3,1.3 -2.8,2.8 -0.5,0.7 -0.6,1.6 0.1,2.4 5.5,6.7 7.8,14.1 7.1,22.8 -0.1,0.9 0.5,2 1.4,2.3 11,3 20.4,8.1 29,15.7 0.1,8.8 3.9,18.5 10.7,24.3 3.4,2.9 7.3,4.8 11.7,5 3.4,0.2 6.9,-1.5 10.1,-2.2 5,-1.2 11.3,0 13.6,5.4 2.1,4.9 -0.2,10.5 1.7,15.4 1.6,4.2 4.6,7.3 8.4,9.6 7.6,4.7 18,5.3 26.4,2.7 9.8,5.9 17.5,13.3 23.8,22.8 0.5,0.8 1.8,1 2.6,0.6 8,-3.3 15.8,-3.3 23.9,-0.2 1,0.4 1.8,0 2.4,-0.6 1.6,0 3.1,-1.9 1.8,-3.5 -9.2,-11 -11.1,-23.4 -11.5,-37.3 15.4,6.4 31.3,11.6 47.8,15.6 -8.5,11.1 -17.4,20.1 -31.4,23.7 -2,0.5 -1.9,2.9 -0.6,3.9 0,0.8 0.5,1.6 1.5,1.9 8.4,2.2 14.7,6.8 19.2,14.2 0.5,0.8 1.6,1.3 2.5,1 10.6,-4 21.3,-5.5 32.6,-4.5 5.3,7 14.1,12.6 22.9,13.3 4.4,0.3 8.7,-0.4 12.5,-2.9 2.8,-1.8 4.7,-5.3 6.9,-7.8 3.3,-3.9 9.1,-6.7 14.1,-3.7 4.5,2.7 6,8.6 10.5,11.4 3.8,2.4 8.1,3.2 12.5,2.8 8.8,-0.7 17.7,-6.3 22.9,-13.4 11.3,-1.1 22,0.4 32.6,4.3 0.9,0.3 2,-0.2 2.5,-1 4.5,-7.4 10.8,-12 19.2,-14.2 1,-0.3 1.5,-1.1 1.5,-1.9 1.3,-1 1.4,-3.4 -0.6,-3.9 -13.7,-3.5 -22.6,-12.1 -31,-22.9 28.4,-6.8 55.4,-17.3 80.4,-31 -9.6,8 -7,22.1 1.7,30.5 -10.8,-2.3 -20.5,-7.3 -29,-14.8 0,0 -0.1,-0.1 -0.2,-0.1 -0.7,-1.8 -4.1,-1.2 -4.2,1.2 -0.6,14 -2.7,26.5 -12.1,37.5 -1.4,1.6 0.1,3.5 1.7,3.5 0.5,0.7 1.3,1 2.4,0.7 8.1,-3 15.9,-2.9 23.9,0.6 0.8,0.4 2.1,0.2 2.6,-0.6 6.4,-9.4 14.3,-16.7 24.2,-22.4 8.4,2.8 18.8,2.2 26.4,-2.3 3.8,-2.3 6.9,-5.3 8.6,-9.5 1.3,-3.1 0.9,-7 1.1,-10.3 0.5,-5.1 3.6,-10.7 9.5,-11.1 5.3,-0.4 9.9,3.6 15.1,3.3 4.5,-0.2 8.4,-2 11.8,-4.8 6.8,-5.7 10.8,-15.3 11.1,-24.1 8.7,-7.4 18.2,-12.3 29.2,-15.2 0.9,-0.2 1.5,-1.3 1.4,-2.2 -0.6,-8.7 1.9,-16.1 7.5,-22.7 0.7,-0.8 0.6,-1.7 0.2,-2.4 0.5,-1.5 -0.8,-3.6 -2.7,-2.8 -13.5,5.2 -26,2.9 -39.4,-1.3 -2.3,-0.7 -4.1,2.3 -2.6,3.6 0,0.1 0,0.1 0,0.2 4.2,10.5 5.6,21.3 4.1,32.3 -5.7,-12.9 -21.7,-20.6 -33.2,-7.7 -9.2,10.3 -3.3,37.6 13.9,30 6.5,-2.9 9.7,-11.5 4.7,-17.4 -1.9,-2.2 -4.2,-3.4 -7.1,-2.7 -7.1,1.7 -1.8,6.7 0.8,10.4 0.5,0.7 1,1.4 1,2.3 0,1.4 -1.6,2.5 -3,2.5 -3.4,0 -8.9,-3.6 -10.1,-6.8 -3.3,-9.2 4,-19.7 13.7,-20.2 16.1,-0.8 18.5,16.4 15.3,28.6 -1.4,5.2 -4.3,10.2 -8.8,13.2 -8.9,5.8 -15.5,-1.9 -24.5,-1 -7.6,0.7 -12.5,7.9 -13.1,14.8 -0.6,6.3 0,12.4 -5.7,16.7 -4.3,3.3 -10,4.3 -15.4,3.8 -12.5,-1.1 -27.9,-9.2 -21.7,-24 3.7,-9 16,-12.3 23.6,-6.1 2.6,2.2 4.2,8.6 3,11.8 -0.5,1.4 -2,2.5 -3.4,2 -0.8,-0.3 -1.3,-1 -1.8,-1.7 -2.5,-3.7 -5.4,-10.3 -9.5,-4.3 -1.7,2.5 -1.2,5.1 0.2,7.6 3.8,6.7 13,6.6 17.9,1.5 12.8,-13.4 -9.9,-27.9 -22.8,-23.5 46.1,-26.8 85.1,-64.7 113.1,-110 -0.2,0.6 -0.2,1.3 0.3,1.9 7.9,11.6 13.5,22.9 12.5,37.4 -0.2,2.1 2.2,2.7 3.5,1.8 0.8,0.2 1.7,0 2.3,-0.9 4.7,-7.2 11.1,-11.7 19.6,-13.7 0.9,-0.2 1.8,-1.1 1.7,-2 -0.4,-11.4 1.6,-21.9 6.2,-32.3 8.4,-2.7 16.4,-9.3 19.9,-17.5 1.7,-4.1 2.4,-8.4 1.3,-12.7 -0.8,-3.3 -3.5,-6.2 -5.2,-9 -2.7,-4.4 -3.4,-10.8 1,-14.6 4,-3.4 10.1,-3 14.2,-6.3 3.5,-2.8 5.6,-6.6 6.7,-10.9 2.2,-8.6 -0.3,-18.7 -5.3,-26 2.6,-11.1 7.4,-20.7 14.6,-29.5 0.6,-0.8 0.4,-2 -0.2,-2.7 -5.6,-6.7 -8,-14.1 -7.4,-22.7 0.1,-1.1 -0.5,-1.8 -1.3,-2.1 -0.5,-1.5 -2.8,-2.4 -3.9,-0.7 -7.8,12.2 -19.2,17.8 -32.5,22.3 -0.5,0.2 -0.9,0.5 -1.2,0.9 0.9,-10 1.4,-20.1 1.4,-30.3 0,-18.3 -1.6,-36.3 -4.5,-53.7 5.8,9.2 18.7,10.1 28.4,4.6 -5.3,9.7 -12.8,17.6 -22.4,23.5 -0.1,0 -0.1,0.1 -0.1,0.1 -2,0.2 -2.4,3.6 0,4.4 13.3,4.5 24.6,10.1 32.5,22.3 1.1,1.7 3.4,0.9 3.9,-0.7 0.8,-0.3 1.4,-1 1.3,-2.1 -0.6,-8.6 1.8,-16 7.4,-22.7 1.4,-0.8 1.6,-2 1,-2.7 z m -646.1,-195 c 1.9,-2.6 3.4,-5.4 4.4,-8.6 1,-3 0.6,-7 1.7,-9.7 0,-0.1 0.1,-0.2 0.2,-0.3 7.8,6.2 15.5,12.5 23.1,19 -9.8,-2.4 -19.4,-3.1 -29.4,-0.4 z m 9.4,-21.7 c 3.7,-2.3 9.2,-3.6 12.7,-5.5 3,-1.7 5.8,-3.6 8.5,-5.7 -1.8,10 -1.3,20.1 1.4,29.8 -7.4,-6.4 -14.9,-12.6 -22.6,-18.6 z m 549.4,464.2 c -1.9,2.6 -3.4,5.4 -4.5,8.6 -1,3 -0.6,7 -1.7,9.7 0,0.1 -0.1,0.2 -0.2,0.3 -7.8,-6.2 -15.5,-12.6 -23,-19.1 9.9,2.4 19.4,3.2 29.4,0.5 z m -9.5,21.7 c -3.7,2.3 -9.2,3.5 -12.7,5.4 -3,1.7 -5.9,3.6 -8.6,5.6 1.8,-10 1.4,-20.1 -1.3,-29.8 7.5,6.5 15,12.7 22.6,18.8 z m -135.5,94.2 c -3,0.2 -6.5,-1.6 -9.7,-1.6 -3.4,-0.1 -6.5,0.4 -9.6,1.3 5.9,-8.5 8.4,-17.8 9.4,-27.8 3.6,9.3 7,18.7 10.2,28.1 -0.1,-0.1 -0.2,0 -0.3,0 z m 21.9,-18.2 c -2.9,1.9 -5.6,3.9 -8.2,6.2 -3,2.6 -6,7.4 -9.4,10.1 -3.1,-9.3 -6.5,-18.4 -10,-27.6 8.3,5.8 17.6,9.6 27.6,11.3 z M 841.7,325.4 c 0.7,3.4 1.7,6.6 3,9.8 -9.1,-4.6 -18.8,-7 -28.9,-7.3 8.2,-5.3 16.4,-10.7 24.4,-16.3 1.1,4.3 0.7,10 1.5,13.8 z M 822,296.5 c 2,2.5 4.2,4.8 7,6.7 2.6,1.8 6.5,2.5 8.8,4.4 0.1,0.1 0.2,0.2 0.2,0.2 -8.2,5.7 -16.5,11.2 -24.9,16.6 5.1,-8.7 8.6,-17.6 8.9,-27.9 z m 18,41.4 c -9.5,1.2 -18,7.7 -19.7,16.3 -3.5,-7.4 -7.2,-14.6 -11.3,-21.6 10.9,-0.9 21.2,0.9 31,5.3 z m -32.2,-76.8 c 1.1,2.8 0.5,6.7 1.5,9.7 1,3.2 2.4,6 4.2,8.7 -9.9,-3 -19.5,-2.5 -29.4,-0.3 7.7,-6.3 15.6,-12.4 23.6,-18.4 0,0.1 0.1,0.2 0.1,0.3 z m -24.1,-15.2 c 2.7,2.1 5.4,4.1 8.4,5.9 3.4,2 8.9,3.4 12.5,5.8 -7.8,5.9 -15.5,11.9 -23.1,18.1 3,-9.7 3.7,-19.7 2.2,-29.8 z m -9,35.7 c 0,0.1 0,0.1 0,0.2 -0.4,0.3 -0.5,0.7 -0.6,1.1 -6.1,-7.1 -12.4,-13.9 -19.1,-20.5 9.7,3.2 20.1,-3.3 24.7,-12.9 1.2,11 -0.4,21.8 -5,32.1 z M 710.2,181.1 c 5.4,-0.3 11.1,0.9 15.3,4.2 8.3,6.6 3,15.4 6.6,23.6 3.1,7 11.4,9.4 18.2,7.9 6.2,-1.4 11.8,-3.8 17.6,0.2 4.4,3.1 7.2,8.2 8.4,13.4 2.8,12.2 0,29.4 -16.1,28.1 -9.7,-0.8 -16.7,-11.4 -13.1,-20.5 1.2,-3.2 6.8,-6.6 10.3,-6.5 1.4,0 3,1.1 2.9,2.6 0,0.8 -0.6,1.6 -1.1,2.2 -2.7,3.6 -8.1,8.4 -1.1,10.3 2.9,0.8 5.3,-0.4 7.2,-2.5 5.2,-5.7 2.2,-14.4 -4.2,-17.5 -15,-7.2 -21.9,13.1 -17.3,25.2 -13.8,-12.4 -28.8,-23.7 -44.6,-33.6 12.9,0.8 30,-11.5 19,-23.7 -4.8,-5.3 -14,-5.6 -18,0.9 -1.5,2.5 -2,5.1 -0.4,7.6 3.9,6.2 7,-0.3 9.6,-4 0.5,-0.7 1,-1.4 1.8,-1.7 1.4,-0.5 2.9,0.7 3.3,2.1 1,3.3 -0.7,9.6 -3.4,11.7 -7.7,6 -19.9,2.3 -23.4,-6.8 -5.7,-14.9 10,-22.5 22.5,-23.2 z m -34,-19.6 c 3.3,2.8 6.2,7.7 9.1,10.4 2.5,2.4 5.2,4.5 8,6.4 -10.1,1.4 -19.5,4.9 -27.9,10.5 3.8,-9 7.4,-18.1 10.8,-27.3 z m -23.6,-2.2 c 3.1,1 6.2,1.5 9.6,1.6 3.2,0 6.8,-1.6 9.7,-1.4 0.1,0 0.2,0 0.3,0.1 -3.5,9.3 -7.1,18.6 -11,27.8 -0.7,-10.1 -2.9,-19.5 -8.6,-28.1 z m 8.8,37.8 c 0.1,0 0.1,0 0.2,-0.1 8.7,-7.3 18.5,-11.9 29.4,-13.9 -7.8,7.1 -11.1,18.6 -5.7,27 -7.9,-4.4 -16.1,-8.5 -24.4,-12.3 0.2,-0.2 0.4,-0.4 0.5,-0.7 z m -43.6,-54.3 c 0.1,0.1 0.2,0.1 0.3,0.2 2.5,1.6 4.3,5.1 6.9,7 2.7,2 5.5,3.5 8.5,4.6 -9.8,3.4 -17.2,9.4 -24,17 2.6,-9.7 5.4,-19.2 8.3,-28.8 z m -17.8,1.8 c 3.9,-0.4 9.2,-2.5 13.6,-2.7 -2.9,9.3 -5.6,18.7 -8.1,28.2 -3.3,-9.5 -8.6,-18.1 -15.7,-25.3 3.3,0.2 6.7,0.2 10.2,-0.2 z m 3.1,33.5 c -7.8,-1.8 -15.6,-3.4 -23.6,-4.7 7.4,-4.4 10.7,-14.2 9,-23.4 7.3,8 12.2,17.4 14.6,28.1 z m -111,-42.7 c 4.2,-3.4 9.5,-5.8 14.9,-5.5 10.6,0.5 11.4,10.7 19.2,15.3 6.6,3.9 14.7,0.9 19.3,-4.3 4.2,-4.7 7.3,-10 14.4,-10.2 5.4,-0.1 10.6,2.4 14.7,6 9.5,8.2 17.2,23.8 3.4,32.2 -8.3,5.1 -20.2,0.6 -22.7,-8.9 -0.9,-3.3 1.7,-9.4 4.5,-11.3 1.2,-0.8 3.1,-0.8 3.9,0.4 0.5,0.7 0.5,1.6 0.4,2.5 -0.1,4.5 -1.7,11.6 5.2,9 2.8,-1 4,-3.4 4.3,-6.3 0.9,-7.6 -6.6,-13 -13.6,-11.7 -14.8,2.7 -11,19.9 -2,28.3 -9.7,-0.9 -19.5,-1.4 -29.4,-1.4 -7.1,0 -14.1,0.3 -21,0.7 9.3,-8.1 13.8,-25.3 -1,-28.5 -6.9,-1.5 -14.6,3.7 -14,11.3 0.2,2.9 1.4,5.3 4.1,6.4 6.8,2.8 5.4,-4.4 5.5,-8.9 0,-0.8 0,-1.8 0.5,-2.4 0.8,-1.2 2.7,-1.1 3.9,-0.2 2.8,2.1 5.1,8.2 4.1,11.5 -2.8,9.4 -14.8,13.6 -23,8.2 -13.5,-9 -5.3,-24.3 4.4,-32.2 z m -25.5,7.2 c 3.4,0.4 6.8,0.6 10.2,0.5 -7.4,7 -12.9,15.4 -16.5,24.8 -2.2,-9.5 -4.6,-19 -7.2,-28.4 4.3,0.3 9.5,2.6 13.5,3.1 z m -33.9,8.9 c 3.1,-1 5.9,-2.4 8.7,-4.3 2.6,-1.8 4.6,-5.3 7.1,-6.8 0.1,-0.1 0.2,-0.1 0.3,-0.1 2.7,9.6 5.1,19.3 7.4,29 -6.6,-7.8 -13.8,-14.1 -23.5,-17.8 z m 45,-3.2 c -2,9.3 1.2,19.3 8.6,23.9 -8.1,1.1 -16.1,2.4 -24,4.1 2.8,-10.8 7.9,-20.1 15.4,-28 z m -81.3,5.6 c 3,-0.2 6.5,1.6 9.7,1.6 3.4,0.1 6.5,-0.4 9.6,-1.3 -5.9,8.5 -8.3,17.8 -9.3,27.9 -3.6,-9.3 -7.1,-18.6 -10.3,-28.1 0,-0.1 0.2,-0.1 0.3,-0.1 z m 11.7,38.8 c -9.4,3.8 -18.5,8 -27.4,12.6 6.9,-8.2 4,-20.7 -4,-28.3 10.8,2.3 20.6,7.2 29,14.7 0,0 0.1,0.1 0.2,0.1 0.3,0.8 1.3,1.1 2.2,0.9 z m -25.4,-26.8 c 3,-2.6 6,-7.5 9.4,-10.2 3.2,9.2 6.5,18.4 10.1,27.5 -8.3,-5.8 -17.6,-9.5 -27.6,-11.2 2.8,-1.8 5.5,-3.8 8.1,-6.1 z m -92.5,56.3 c 1.4,-5.2 4.2,-10.3 8.7,-13.2 8.9,-5.9 15.5,1.9 24.5,0.9 7.6,-0.8 12.4,-7.9 13.1,-14.9 0.6,-6.3 0,-12.4 5.6,-16.7 4.3,-3.3 10,-4.3 15.4,-3.9 12.5,1.1 28,9 21.8,24 -3.7,9 -16,12.4 -23.6,6.2 -2.6,-2.1 -4.2,-8.5 -3.1,-11.8 0.5,-1.4 2,-2.5 3.3,-2 0.8,0.3 1.3,1 1.8,1.7 2.5,3.7 5.5,10.3 9.5,4.2 1.6,-2.5 1.2,-5.1 -0.2,-7.6 -3.8,-6.7 -13,-6.6 -17.9,-1.4 -11.6,12.3 6.4,25.4 19.5,24.1 -16.4,9.4 -32,20.2 -46.4,32.3 4.8,-12 -1.7,-32.2 -16.7,-25.4 -6.5,2.9 -9.6,11.6 -4.6,17.4 1.9,2.2 4.2,3.4 7.1,2.7 7.1,-1.8 1.8,-6.7 -0.8,-10.4 -0.5,-0.7 -1,-1.4 -1,-2.3 0,-1.4 1.5,-2.5 3,-2.5 3.4,0 8.9,3.6 10.1,6.8 3.3,9.2 -3.9,19.7 -13.6,20.2 -16.2,0.9 -18.6,-16.3 -15.5,-28.4 z m 0.3,51.3 c 0,-0.1 0,-0.1 0,-0.2 -4.3,-10.5 -5.7,-21.3 -4.2,-32.2 4.3,9.6 14.3,16.3 23.8,13.7 -6.7,6.1 -13.1,12.5 -19.2,19.2 -0.1,-0.2 -0.2,-0.3 -0.4,-0.5 z m -39.3,50.9 c 0.1,0 0.1,0 0.2,0 0.5,0.3 1,0.3 1.5,0.1 -4.9,8 -9.5,16.3 -13.7,24.8 0.1,-10.2 -9.4,-18.1 -20.1,-19.4 10.1,-4.7 20.8,-6.5 32.1,-5.5 z m -30,-24.9 c 2.3,-1.9 6.2,-2.6 8.8,-4.5 2.8,-2 5,-4.2 6.9,-6.8 0.3,10.3 3.9,19.3 9,28 -8.4,-5.3 -16.7,-10.8 -25,-16.5 0.2,0 0.3,-0.1 0.3,-0.2 z m -3.8,17.9 c 0.8,-3.9 0.4,-9.6 1.5,-13.7 8,5.6 16.2,10.9 24.5,16.2 -10.1,0.3 -19.8,2.8 -28.9,7.4 1.2,-3.3 2.2,-6.5 2.9,-9.9 z m -41.9,84.3 c 3.7,-10 13.6,-7.7 20.3,-13.8 5.7,-5.1 5.3,-13.8 1.7,-19.7 -3.3,-5.4 -7.4,-10 -5.4,-16.8 1.5,-5.2 5.5,-9.4 10.1,-12.2 10.7,-6.6 27.9,-9.3 31.8,6.3 2.4,9.4 -5.5,19.5 -15.3,19 -3.4,-0.2 -8.4,-4.4 -9.5,-7.7 -0.4,-1.4 0.1,-3.2 1.5,-3.6 0.8,-0.2 1.7,0 2.5,0.3 4.3,1.5 10.5,5 10.1,-2.2 -0.2,-3 -2.1,-4.9 -4.7,-6 -7,-3.1 -14.4,2.5 -15.3,9.5 -2,16.4 19.3,16.6 29.3,8.4 -7.3,16.8 -13.3,34.3 -17.7,52.4 -3.7,-12.3 -20.4,-24.1 -28.4,-10 -3.5,6.2 -0.9,15 6.6,16.7 2.8,0.6 5.4,0.3 7.3,-2 4.7,-5.6 -2.5,-6.5 -6.8,-7.8 -0.8,-0.3 -1.7,-0.5 -2.2,-1.2 -0.9,-1.2 -0.2,-2.9 0.9,-3.8 2.8,-2 9.3,-2.4 12.2,-0.5 8.2,5.4 8.5,18.2 1,24.4 -12.5,10.3 -24.6,-2.2 -29.3,-13.8 -1.8,-5.1 -2.5,-10.8 -0.7,-15.9 z m -1.5,77.4 c -0.1,-3.2 -0.5,-6.3 -1.5,-9.6 -1,-3 -3.7,-5.9 -4.4,-8.8 0,-0.1 0,-0.2 0,-0.3 10,0.3 19.9,0.9 29.9,1.6 -9.4,3.9 -17.6,8.9 -24,17.1 z M 168.7,456 c 1.6,-4 5.3,-8.3 7,-11.9 1.5,-3.1 2.6,-6.4 3.5,-9.6 4.5,9.1 10.9,16.9 18.8,23.1 -9.8,-0.8 -19.6,-1.3 -29.3,-1.6 z m 38.4,2.7 c 0,0 -0.1,-0.1 -0.1,-0.1 -9.7,-5.9 -17.2,-13.7 -22.6,-23.4 9,5.1 20.7,4.6 27,-2.7 -1.6,8.7 -2.9,17.5 -3.9,26.4 -0.1,-0.2 -0.2,-0.2 -0.4,-0.2 z m -1.6,63 c 0.8,-0.1 1.3,-0.7 1.5,-1.4 0.9,10 2.2,19.9 4,29.7 -5.7,-9.2 -18.6,-10.3 -28.4,-4.9 5.4,-9.6 13,-17.4 22.7,-23.3 0.1,0 0.2,-0.1 0.2,-0.1 z m -39,-2.3 c 0.7,-2.9 3.4,-5.8 4.5,-8.8 1.1,-3.2 1.5,-6.3 1.6,-9.5 6.3,8.2 14.5,13.3 23.8,17.3 -9.9,0.7 -19.9,1.1 -29.9,1.4 0,-0.2 0,-0.3 0,-0.4 z m 7.4,16.6 c -1.6,-3.6 -5.3,-7.9 -6.9,-12 9.8,-0.2 19.5,-0.7 29.3,-1.3 -8,6.1 -14.4,13.9 -19,23 -0.8,-3.3 -1.9,-6.5 -3.4,-9.7 z m 25.8,105.1 c -4.6,-2.9 -8.5,-7.1 -10,-12.3 -2.9,-10.2 6.4,-14.3 8.3,-23.1 1.6,-7.5 -3.8,-14.2 -10.3,-16.9 -5.8,-2.4 -11.8,-3.7 -14.2,-10.4 -1.8,-5.1 -1.1,-10.8 0.9,-15.8 4.8,-11.6 17,-23.9 29.4,-13.6 7.5,6.2 7,19 -1.2,24.4 -2.8,1.9 -9.4,1.4 -12.2,-0.6 -1.2,-0.9 -1.8,-2.6 -0.9,-3.8 0.5,-0.7 1.4,-1 2.2,-1.2 4.3,-1.3 11.5,-2.1 6.9,-7.8 -1.9,-2.3 -4.5,-2.7 -7.3,-2.1 -7.5,1.6 -10.2,10.5 -6.7,16.7 8.3,15 26.6,1.2 29,-11.8 4.3,19.2 10.3,37.8 17.9,55.5 -9.5,-9.2 -32.4,-9.8 -30.4,7.3 0.8,7.1 8.1,12.7 15.2,9.6 2.6,-1.1 4.5,-3 4.7,-6 0.5,-7.3 -5.9,-3.8 -10.1,-2.3 -0.8,0.3 -1.7,0.5 -2.5,0.3 -1.4,-0.4 -1.9,-2.2 -1.5,-3.6 1.1,-3.3 6.1,-7.4 9.5,-7.6 9.8,-0.4 17.6,9.7 15.2,19.1 -4.1,15.6 -21.2,12.7 -31.9,6 z m 15.1,21.9 c -0.7,-3.4 -1.7,-6.6 -2.8,-9.9 9,4.7 18.7,7.3 28.8,7.6 -8.3,5.2 -16.5,10.5 -24.6,16 -1.1,-4.1 -0.7,-9.8 -1.4,-13.7 z m 19.3,29.2 c -2,-2.6 -4.1,-4.8 -6.9,-6.8 -2.6,-1.9 -6.5,-2.6 -8.7,-4.5 -0.1,-0.1 -0.2,-0.2 -0.2,-0.2 8.2,-5.6 16.6,-11 25.1,-16.3 -5.3,8.6 -8.9,17.5 -9.3,27.8 z m 14.7,-35.9 c -0.1,0 -0.1,0 -0.2,0 -11.3,0.9 -22,-1 -32,-5.7 11.1,-1.3 21,-9.7 20.2,-20.6 4.3,9.1 9.1,18 14.2,26.7 -0.6,-0.6 -1.5,-0.9 -2.2,-0.4 z m 4.9,70.2 c -1.1,-2.8 -0.6,-6.7 -1.6,-9.7 -1,-3.2 -2.5,-6 -4.3,-8.7 9.9,2.9 19.5,2.2 29.4,0 -7.6,6.4 -15.4,12.6 -23.3,18.7 -0.1,-0.1 -0.1,-0.2 -0.2,-0.3 z m 24.3,14.9 c -2.7,-2.1 -5.5,-4.1 -8.5,-5.8 -3.5,-2 -9,-3.3 -12.6,-5.6 7.7,-6 15.4,-12.1 22.9,-18.3 -2.8,9.6 -3.4,19.6 -1.8,29.7 z m 8.5,-35.8 c 0,0 0,-0.1 0,-0.1 5.7,6.4 11.6,12.6 17.7,18.6 -9,-1.6 -18.2,4.8 -22.4,13.7 -1.2,-11.1 0.3,-21.8 4.7,-32.2 z m 65.8,99.7 c -5.4,0.4 -11.1,-0.7 -15.3,-4.1 -8.4,-6.5 -3.2,-15.3 -6.9,-23.6 -3.2,-7 -11.5,-9.3 -18.3,-7.6 -6.2,1.5 -11.8,4 -17.6,0 -4.5,-3 -7.3,-8.1 -8.6,-13.3 -3,-12.2 -0.3,-29.4 15.8,-28.3 9.7,0.6 16.8,11.2 13.4,20.4 -1.2,3.2 -6.8,6.7 -10.2,6.7 -1.4,0 -3,-1.1 -3,-2.5 0,-0.8 0.6,-1.6 1.1,-2.3 2.7,-3.6 8,-8.5 1,-10.4 -2.9,-0.8 -5.2,0.5 -7.2,2.6 -5.1,5.7 -2.1,14.5 4.4,17.4 14.2,6.6 21,-11.2 17.6,-23.4 13.3,11.4 27.6,21.8 42.6,31 -12.6,0.5 -27.6,12.4 -17,24 4.8,5.2 14,5.4 17.9,-1.2 1.5,-2.5 1.9,-5.1 0.3,-7.6 -3.9,-6.2 -7,0.4 -9.6,4.1 -0.5,0.7 -1,1.4 -1.8,1.7 -1.4,0.5 -2.9,-0.7 -3.3,-2 -1.1,-3.3 0.6,-9.6 3.2,-11.7 7.7,-6.1 19.9,-2.5 23.5,6.5 6.1,14.9 -9.5,22.7 -22,23.6 z m 34.3,19.1 c -3.4,-2.7 -6.3,-7.6 -9.2,-10.3 -2.5,-2.3 -5.3,-4.4 -8.1,-6.3 10.1,-1.5 19.4,-5.2 27.8,-10.8 -3.8,9.1 -7.2,18.2 -10.5,27.4 z m 14,0.5 c -3.2,0 -6.8,1.7 -9.7,1.5 -0.1,0 -0.2,0 -0.3,-0.1 3.4,-9.4 6.9,-18.7 10.7,-27.9 0.9,10.1 3.2,19.4 9,28 -3.2,-0.9 -6.3,-1.5 -9.7,-1.5 z m 0.3,-36.2 c -0.1,0 -0.1,0 -0.2,0.1 -8.6,7.4 -18.3,12.1 -29.2,14.3 7.3,-6.8 10.5,-17.6 6.1,-25.7 7.6,4 15.4,7.8 23.3,11.2 0,0 0,0 0,0.1 z m 42.4,55.1 c -0.1,-0.1 -0.2,-0.1 -0.3,-0.2 -2.5,-1.6 -4.4,-5 -7,-6.9 -2.7,-2 -5.6,-3.4 -8.6,-4.4 9.7,-3.5 17.1,-9.7 23.7,-17.4 -2.4,9.7 -5,19.3 -7.8,28.9 z m 17.9,-2.1 c -3.9,0.5 -9.2,2.7 -13.5,2.9 2.7,-9.4 5.3,-18.8 7.6,-28.3 3.4,9.5 8.9,17.9 16.1,25.1 -3.4,-0.2 -6.8,-0.1 -10.2,0.3 z m -4.1,-34.3 c 0,-0.1 -0.1,-0.1 -0.1,-0.2 0,-0.1 0,-0.2 0,-0.3 8.4,1.9 17,3.5 25.7,4.7 -8.5,3.9 -12.3,14.6 -10.3,24.5 -7.5,-8.1 -12.7,-17.7 -15.3,-28.7 z m 112,41.7 c -4.1,3.5 -9.4,5.9 -14.8,5.8 -10.6,-0.3 -11.6,-10.5 -19.5,-14.9 -6.7,-3.8 -14.7,-0.7 -19.3,4.6 -4.1,4.8 -7.1,10.1 -14.2,10.4 -5.4,0.2 -10.6,-2.2 -14.8,-5.7 -9.6,-8.1 -17.6,-23.5 -4,-32.2 8.2,-5.2 20.2,-0.9 22.8,8.5 0.9,3.3 -1.5,9.4 -4.3,11.4 -1.2,0.9 -3.1,0.9 -3.9,-0.3 -0.5,-0.7 -0.5,-1.6 -0.5,-2.4 0.1,-4.5 1.5,-11.6 -5.3,-8.9 -2.8,1.1 -4,3.5 -4.2,6.3 -0.7,7.6 6.9,12.9 13.8,11.5 15.5,-3.1 10.3,-21.7 0.2,-29.5 9,0.8 18.1,1.2 27.3,1.2 8.5,0 17,-0.3 25.3,-1 -9.8,7.9 -14.6,26.2 0.7,29.2 7,1.4 14.5,-3.9 13.8,-11.5 -0.3,-2.9 -1.5,-5.2 -4.3,-6.3 -6.8,-2.6 -5.4,4.4 -5.3,8.9 0,0.8 0,1.8 -0.5,2.5 -0.8,1.2 -2.7,1.2 -3.9,0.3 -2.8,-2 -5.2,-8.1 -4.3,-11.4 2.6,-9.5 14.6,-13.8 22.8,-8.6 13.9,8.5 6,23.9 -3.6,32.1 z m 25.4,-7.7 c -3.4,-0.4 -6.8,-0.4 -10.2,-0.3 7.2,-7.2 12.6,-15.6 16,-25.1 2.4,9.5 5,18.9 7.7,28.3 -4.3,-0.3 -9.5,-2.4 -13.5,-2.9 z m 33.8,-9.5 c -3,1.1 -5.8,2.5 -8.6,4.5 -2.6,1.9 -4.5,5.4 -7,6.9 -0.1,0.1 -0.2,0.1 -0.3,0.2 -2.8,-9.6 -5.5,-19.2 -7.9,-28.8 6.7,7.5 14,13.7 23.8,17.2 z m -45,4 c 1.9,-9.6 -1.7,-20 -9.7,-24.1 8.4,-1.2 16.7,-2.7 24.8,-4.5 -2.6,10.9 -7.7,20.5 -15.1,28.6 z M 806.3,660 c -0.1,0 -0.1,0 -0.2,0 -0.7,-0.5 -1.6,-0.2 -2.2,0.4 5.3,-8.6 10.1,-17.4 14.6,-26.5 -1,10.8 8.8,19.4 19.9,20.8 -10.1,4.6 -20.8,6.4 -32.1,5.3 z m 29.9,25 c -2.3,1.9 -6.2,2.6 -8.8,4.4 -2.8,2 -5,4.2 -7,6.7 -0.3,-10.3 -3.8,-19.3 -8.9,-28 8.4,5.4 16.7,10.9 24.9,16.6 -0.1,0.1 -0.2,0.2 -0.2,0.3 z m 3.9,-17.8 c -0.8,3.9 -0.4,9.6 -1.6,13.7 -8,-5.6 -16.1,-11 -24.4,-16.3 10.1,-0.2 19.8,-2.7 28.9,-7.3 -1.2,3.2 -2.2,6.5 -2.9,9.9 z m 42.3,-84.1 c -3.7,10 -13.6,7.7 -20.4,13.7 -5.7,5.1 -5.4,13.7 -1.8,19.7 3.3,5.4 7.3,10 5.3,16.8 -1.5,5.2 -5.5,9.4 -10.1,12.2 -10.7,6.5 -27.9,9.2 -31.7,-6.5 -2.3,-9.4 5.6,-19.4 15.4,-18.9 3.4,0.2 8.4,4.4 9.4,7.7 0.4,1.4 -0.1,3.2 -1.5,3.6 -0.8,0.2 -1.7,0 -2.5,-0.3 -4.2,-1.5 -10.5,-5.1 -10.2,2.2 0.1,3 2,4.9 4.7,6 7,3.1 14.4,-2.4 15.3,-9.4 2.2,-17 -20.7,-16.7 -30.3,-7.7 7.8,-17.6 14,-36 18.6,-55 2.4,13 20.3,26.7 28.8,11.9 3.5,-6.2 0.9,-15 -6.5,-16.8 -2.8,-0.6 -5.4,-0.3 -7.3,2 -4.7,5.6 2.5,6.5 6.8,7.9 0.8,0.3 1.7,0.6 2.2,1.2 0.9,1.2 0.2,2.9 -0.9,3.8 -2.8,2 -9.4,2.4 -12.2,0.5 -8.1,-5.5 -8.4,-18.2 -0.9,-24.4 12.5,-10.2 24.6,2.3 29.2,14 1.8,5 2.5,10.7 0.6,15.8 z m 1.8,-77.4 c 0.1,3.2 0.5,6.3 1.5,9.6 1,3 3.7,5.9 4.3,8.8 0,0.1 0,0.2 0,0.3 -10,-0.4 -19.9,-0.9 -29.9,-1.7 9.5,-3.9 17.7,-8.9 24.1,-17 z m 5.3,23.1 c -1.6,4 -5.3,8.3 -7,11.9 -1.5,3.1 -2.6,6.3 -3.6,9.6 -4.5,-9.1 -10.8,-17 -18.7,-23.2 9.8,0.7 19.5,1.3 29.3,1.7 z m -38.4,-2.9 c 0,0 0.1,0.1 0.1,0.1 9.6,5.9 17.1,13.8 22.4,23.5 -9.6,-5.5 -22.4,-4.6 -28.3,4.4 1.9,-9.6 3.3,-19.3 4.3,-29.1 0.3,0.6 0.8,1.1 1.5,1.1 z M 528.6,810.5 C 353,810.5 210.2,667.7 210.2,492.1 210.2,316.5 353,173.7 528.6,173.7 704.2,173.7 847,316.5 847,492.1 847,667.7 704.1,810.5 528.6,810.5 Z M 854,439.3 c -7.5,-6.1 -7.2,-18.9 0.9,-24.4 2.8,-1.9 9.4,-1.5 12.2,0.5 1.2,0.8 1.8,2.6 0.9,3.8 -0.5,0.7 -1.4,1 -2.2,1.2 -4.3,1.4 -11.5,2.3 -6.8,7.9 1.9,2.3 4.6,2.7 7.3,2 7.5,-1.7 10,-10.6 6.5,-16.8 -8.3,-14.6 -25.9,-1.4 -28.7,11.4 -3.8,-18 -9.2,-35.5 -15.9,-52.3 10.6,6.8 29.5,5.7 27.5,-9.9 -0.9,-7 -8.3,-12.6 -15.3,-9.4 -2.6,1.2 -4.5,3 -4.6,6 -0.4,7.3 5.9,3.7 10.2,2.2 0.8,-0.3 1.7,-0.6 2.5,-0.3 1.4,0.4 2,2.2 1.5,3.6 -1,3.3 -6,7.5 -9.4,7.7 -9.8,0.5 -17.7,-9.5 -15.4,-18.9 3.8,-15.7 21,-13 31.7,-6.5 4.6,2.8 8.6,7 10.1,12.2 3,10.2 -6.3,14.3 -8,23.2 -1.5,7.5 4,14.2 10.5,16.8 5.9,2.4 11.9,3.6 14.4,10.2 1.9,5.1 1.2,10.8 -0.7,15.8 -4.6,11.7 -16.7,24.2 -29.2,14 z m 26.6,3 c 1,3.3 2.1,6.5 3.6,9.6 1.7,3.6 5.4,7.9 7,11.9 -9.8,0.4 -19.5,0.9 -29.3,1.7 7.9,-6.2 14.2,-14.1 18.7,-23.2 z m 11.1,26.2 c -0.7,2.9 -3.4,5.8 -4.3,8.8 -1,3.2 -1.4,6.3 -1.5,9.6 -6.4,-8.1 -14.6,-13.1 -24,-17 9.9,-0.8 19.9,-1.4 29.9,-1.7 0,0.1 -0.1,0.2 -0.1,0.3 z"
           id="path145"
           inkscape:connector-curvature="0" /></g></g></switch></svg>