<?xml version="1.0" encoding="UTF-8" standalone="no"?>
<svg
   xmlns:dc="http://purl.org/dc/elements/1.1/"
   xmlns:cc="http://creativecommons.org/ns#"
   xmlns:rdf="http://www.w3.org/1999/02/22-rdf-syntax-ns#"
   xmlns:svg="http://www.w3.org/2000/svg"
   xmlns="http://www.w3.org/2000/svg"
   xmlns:sodipodi="http://sodipodi.sourceforge.net/DTD/sodipodi-0.dtd"
   xmlns:inkscape="http://www.inkscape.org/namespaces/inkscape"
   version="1.1"
   id="Layer_1"
   x="0px"
   y="0px"
   viewBox="0 0 1000 1000"
   width="100%"
   height="100%"
   style="enable-background:new 0 0 1000 1000;"
   xml:space="preserve"
   ><style
     type="text/css"
     id="style3">
	.noFillSVG{fill:none;}
</style><switch
     id="switch5"
     transform="translate(-46.897878,-10.4)"><g
       id="g7"><g
         id="g9"><path
           class="noFillSVG"
           d="m 360.9,274.9 c 21.7,-17.2 45.8,-31.5 71.7,-42.3 -5,0 -9.8,-0.9 -13.7,-3.1 -14.2,-7.8 -17.6,-33 1.9,-36.5 9.6,-1.7 21,9.9 13.7,19 -1.7,2.2 -4.5,3.5 -7.2,3.5 -1.1,0 -2.4,-0.4 -2.5,-1.4 -0.5,-3.2 9.5,-2.4 8.5,-8.9 -1.1,-6.4 -9.5,-10.5 -15.3,-7.7 -4.9,2.4 -7.9,7.5 -7.8,13 0.1,10 8.5,17.1 17.8,19 9.1,1.9 18.4,-2.1 24.8,-8.5 8.6,-8.5 2.2,-19.8 -3.5,-27.8 -4.7,-6.6 -10.1,-13.6 -17.9,-16.8 -8.3,-3.4 -17.5,-0.9 -25.4,2.6 -8.6,3.8 -16.5,9.8 -22,17.5 -3.3,4.6 -5,8.8 -5.7,14.3 -1.5,11.1 -5.8,5.6 -13.4,3.9 -4.8,-1.1 -9.9,-0.8 -14.7,0.1 -9.2,1.8 -18.2,6.1 -25.4,12.1 -6.5,5.4 -12.6,12.4 -12.8,21.3 -0.2,7.6 3,15 6.2,21.7 4.7,10 11.9,20.5 24.5,15.9 8.5,-3.2 15.4,-8.8 17.9,-17.8 2.6,-9.1 -0.2,-19.6 -9.1,-24.2 -11.7,-6 -24.9,6.3 -15.1,17.4 3.3,3.8 8.2,-1 11.7,-2 0.4,-0.1 1,-0.2 1.2,0.2 0.1,0.2 0,0.5 -0.1,0.8 -3.1,7.8 -13.8,8.1 -18.4,1.6 -5.1,-7.3 -0.9,-16.9 6.4,-20.7 17.6,-9.1 30.8,12.4 26.4,27.8 -0.6,2 -1.5,4.1 -2.7,6 z M 380.6,223 c 2.2,-1.5 5.3,-0.6 5.8,2.2 0.5,2.6 -1.4,5.5 -4.3,5.2 -3.8,-0.5 -4.5,-5.4 -1.5,-7.4 z"
           id="path11"
           inkscape:connector-curvature="0"
           style="fill:none" /><path
           class="noFillSVG"
           d="m 242.4,326.1 c -1,-2.2 -2,-4.3 -3.3,-6.3 -1.1,-1.9 -9.8,-11.3 -8.5,-3.8 -0.2,7.6 8.9,14.8 16.1,20.1 -1.3,-3.4 -2.8,-6.7 -4.3,-10 z"
           id="path13"
           inkscape:connector-curvature="0"
           style="fill:none" /><path
           class="noFillSVG"
           d="m 369.6,212 c -3.9,-5.2 -8.2,-11.2 -14.1,-14.3 -4.3,-2.2 -12.8,-2.7 -6.4,3.5 1.5,1.6 3.3,2.9 5.2,3.9 2,1.2 4.2,2.1 6.4,3.1 3,1.3 5.9,2.6 8.9,3.8 z"
           id="path15"
           inkscape:connector-curvature="0"
           style="fill:none" /><path
           class="noFillSVG"
           d="m 244.6,339.9 c -5.9,-2.6 -12.7,-5.7 -19.4,-5.4 -4.8,0.2 -12.5,4 -3.8,6.2 2.1,0.6 4.3,0.9 6.5,0.8 2.4,0 4.7,-0.3 7.1,-0.5 3.2,-0.3 6.4,-0.7 9.6,-1.1 z"
           id="path17"
           inkscape:connector-curvature="0"
           style="fill:none" /><path
           class="noFillSVG"
           d="m 374.7,198.9 c 0.2,-2.4 0.4,-4.7 0.3,-7.1 0,-2.1 -2.9,-14.7 -5.4,-7.5 -4,6.4 0.3,17.3 4,25.4 0.3,-3.6 0.7,-7.1 1.1,-10.8 z"
           id="path19"
           inkscape:connector-curvature="0"
           style="fill:none" /><path
           class="noFillSVG"
           d="m 180.4,518.1 c -4.1,2.6 -8.8,9.7 -0.2,7.3 2.1,-0.6 4.1,-1.4 6,-2.5 2.1,-1.1 4,-2.6 5.9,-4 2.6,-1.9 5.2,-3.9 7.8,-5.8 -6.5,0.7 -13.9,1.4 -19.5,5 z"
           id="path21"
           inkscape:connector-curvature="0"
           style="fill:none" /><path
           class="noFillSVG"
           d="m 245.8,546.9 c 1.9,2 3.5,4.3 4.7,6.8 -2.1,-14.3 -3.2,-29 -3.2,-43.9 0,-14.4 1,-28.5 3,-42.3 -2.5,5 -6.2,9.3 -10.4,11.9 -13.9,8.3 -37.4,-1.5 -30.6,-20.1 3.4,-9.1 19.1,-13.1 23.3,-2.2 1,2.6 0.7,5.6 -0.6,8 -0.5,0.9 -1.5,1.8 -2.5,1.4 -3,-1.2 2.7,-9.5 -3.4,-11.8 -6.1,-2.3 -13.9,2.9 -14.4,9.3 -0.4,5.4 2.5,10.6 7.2,13.3 8.7,5 19.1,1.2 25.3,-5.8 6.2,-6.9 7.5,-16.9 5.2,-25.7 -3,-11.7 -16,-11.9 -25.8,-11 -8.1,0.7 -16.9,1.9 -23.5,6.9 -7.2,5.4 -9.6,14.7 -10.5,23.3 -1,9.4 0.1,19.2 4,27.8 2.3,5.2 5.1,8.7 9.5,12.1 8.8,6.9 1.9,7.8 -3.4,13.5 -3.4,3.6 -5.7,8.1 -7.3,12.7 -3.1,8.8 -3.8,18.8 -2.4,28 1.3,8.4 4.4,17.2 12,21.8 6.5,4 14.5,5 21.9,5.6 11,1 23.7,0 26,-13.1 1.6,-9 0.2,-17.8 -6.4,-24.5 -6.6,-6.8 -17,-9.7 -25.4,-4.3 -11.1,7.1 -7.1,24.7 7.4,21.8 4.9,-1 3.3,-7.5 4.1,-11.1 0.1,-0.4 0.3,-0.9 0.8,-0.9 0.3,0 0.5,0.2 0.6,0.4 5.1,6.6 0,16 -7.9,16.6 -8.9,0.7 -15.1,-7.7 -14.7,-16 1.1,-19.5 26.3,-20 37.4,-8.5 z m -26.1,-41.7 c 2.5,0.9 4.1,4 2.3,6.4 -2.3,3.1 -6.9,1.2 -7.1,-2.4 -0.1,-2.7 2.2,-4.9 4.8,-4 z"
           id="path23"
           inkscape:connector-curvature="0"
           style="fill:none" /><path
           class="noFillSVG"
           d="m 234,680 c -2.4,-0.2 -4.7,-0.5 -7.1,-0.3 -2.1,0 -14.7,2.7 -7.6,5.4 6.4,4 17.3,-0.2 25.5,-3.8 -3.6,-0.5 -7.2,-0.9 -10.8,-1.3 z"
           id="path25"
           inkscape:connector-curvature="0"
           style="fill:none" /><path
           class="noFillSVG"
           d="m 191.1,502.2 c -1.9,-1.4 -3.9,-2.8 -6,-3.8 -1.9,-1.1 -14.1,-4.9 -9.2,0.9 3.6,6.7 15.1,8.4 24,9.4 -3,-2.2 -5.9,-4.4 -8.8,-6.5 z"
           id="path27"
           inkscape:connector-curvature="0"
           style="fill:none" /><path
           class="noFillSVG"
           d="m 310.5,325.8 c -4.6,2.9 -9.6,4.7 -14.5,4.8 -16.2,0.3 -31.7,-19.9 -16.5,-32.6 7.5,-6.3 23.1,-1.9 21.3,9.6 -0.4,2.7 -2.2,5.2 -4.5,6.6 -0.9,0.5 -2.2,0.8 -2.9,0 -2,-2.6 7.1,-6.8 2.9,-11.9 -4.1,-5 -13.5,-4.4 -17.1,0.9 -3.1,4.5 -3.1,10.4 -0.3,15.1 5.1,8.7 15.9,10.6 24.9,7.6 8.8,-2.9 14.9,-10.9 17.3,-19.7 3.2,-11.6 -8,-18.3 -16.9,-22.4 -7.4,-3.4 -15.6,-6.8 -23.9,-5.7 -8.9,1.1 -15.6,8 -20.7,14.9 -5.5,7.6 -9.4,16.7 -10.4,26.1 -0.6,5.6 0.1,10.1 2.1,15.2 4.2,10.3 -2.3,7.7 -9.7,10.1 -4.7,1.5 -9,4.2 -12.7,7.4 -7.1,6.1 -12.7,14.4 -16,23.1 -3,7.9 -4.7,17.1 -0.5,24.9 3.6,6.7 10.1,11.5 16.2,15.8 9,6.3 20.6,11.8 29.1,1.6 5.8,-7 9,-15.3 6.7,-24.4 -2.3,-9.2 -9.9,-16.9 -19.9,-16.4 -13.2,0.7 -18.4,17.8 -4.5,22.6 4.8,1.6 6.6,-4.9 9.1,-7.6 0.3,-0.3 0.8,-0.6 1.1,-0.4 0.2,0.1 0.3,0.4 0.3,0.7 1.2,8.3 -8,13.9 -15.1,10.5 -8,-3.8 -9.2,-14.2 -4.8,-21.2 10.8,-16.7 32.9,-4.6 36.8,10.9 0.6,2.4 0.8,4.8 0.8,7.3 10.7,-26.4 25,-51.1 42.3,-73.4 z m -45.9,23.8 c -3.5,1.5 -6.6,-2.5 -5,-5.7 1.2,-2.4 4.3,-3.1 6.1,-1 1.8,2.1 1.6,5.6 -1.1,6.7 z"
           id="path29"
           inkscape:connector-curvature="0"
           style="fill:none" /><path
           class="noFillSVG"
           d="m 502,171.9 c 19.8,1.1 20.3,26.3 8.8,37.3 -1.4,1.3 -2.9,2.5 -4.5,3.5 13.4,-1.8 27.1,-2.8 41,-2.8 13.8,0 27.4,1 40.8,2.8 -4.1,-2.4 -7.5,-5.6 -9.7,-9.3 -8.3,-13.9 1.5,-37.4 20.1,-30.5 9.1,3.4 13.1,19.1 2.2,23.3 -2.6,1 -5.6,0.7 -8,-0.7 -0.9,-0.5 -1.8,-1.5 -1.4,-2.5 1.2,-3 9.5,2.7 11.8,-3.4 2.3,-6.1 -2.9,-13.9 -9.3,-14.4 -5.4,-0.4 -10.6,2.5 -13.3,7.2 -5,8.7 -1.3,19.1 5.7,25.3 6.9,6.2 16.9,7.5 25.7,5.2 11.7,-3 11.9,-16 11,-25.8 -0.7,-8.1 -1.9,-16.9 -6.9,-23.5 -5.4,-7.2 -14.7,-9.6 -23.2,-10.5 -9.4,-1 -19.2,0.1 -27.8,4 -5.2,2.3 -8.7,5.1 -12.2,9.4 -6.9,8.8 -7.8,1.9 -13.5,-3.4 -3.6,-3.4 -8.1,-5.7 -12.7,-7.3 -8.8,-3.1 -18.8,-3.9 -28,-2.4 -8.4,1.3 -17.2,4.4 -21.8,11.9 -4,6.5 -5,14.5 -5.7,21.9 -1,11 -0.1,23.7 13.1,26.1 9,1.6 17.8,0.2 24.5,-6.3 6.8,-6.6 9.8,-17 4.4,-25.4 -7.1,-11.1 -24.6,-7.1 -21.8,7.4 1,4.9 7.5,3.3 11.1,4.2 0.4,0.1 0.9,0.3 0.9,0.8 0,0.3 -0.2,0.5 -0.4,0.6 -6.6,5.1 -16,0 -16.6,-7.9 -1,-9 7.4,-15.2 15.7,-14.8 z m 46.5,6.5 c 2.7,-0.1 4.9,2.2 3.9,4.8 -0.9,2.5 -4,4.1 -6.4,2.3 -3,-2.3 -1.1,-6.9 2.5,-7.1 z"
           id="path31"
           inkscape:connector-curvature="0"
           style="fill:none" /><path
           class="noFillSVG"
           d="m 861.1,321.6 c 2.2,-4.3 2.8,-12.8 -3.5,-6.4 -1.6,1.5 -2.9,3.3 -4,5.2 -1.2,2 -2.2,4.2 -3.1,6.4 -1.3,2.9 -2.6,5.9 -3.9,8.9 5.3,-3.9 11.4,-8.3 14.5,-14.1 z"
           id="path33"
           inkscape:connector-curvature="0"
           style="fill:none" /><path
           class="noFillSVG"
           d="m 859.7,340.7 c 2.4,0.2 4.7,0.5 7.1,0.3 2.1,0 14.7,-2.7 7.6,-5.4 -6.4,-4 -17.3,0.2 -25.5,3.8 3.6,0.5 7.2,1 10.8,1.3 z"
           id="path35"
           inkscape:connector-curvature="0"
           style="fill:none" /><path
           class="noFillSVG"
           d="m 232.7,699.2 c -2.2,4.3 -2.8,12.8 3.5,6.4 1.6,-1.5 2.9,-3.3 4,-5.2 1.2,-2 2.2,-4.2 3.1,-6.4 1.3,-2.9 2.6,-5.9 3.9,-8.9 -5.4,3.9 -11.5,8.2 -14.5,14.1 z"
           id="path37"
           inkscape:connector-curvature="0"
           style="fill:none" /><path
           class="noFillSVG"
           d="m 913.3,502.6 c 4.1,-2.6 8.8,-9.7 0.2,-7.3 -2.1,0.6 -4.1,1.4 -6,2.5 -2.1,1.1 -4,2.6 -5.9,4 -2.6,1.9 -5.2,3.9 -7.8,5.8 6.5,-0.7 14,-1.4 19.5,-5 z"
           id="path39"
           inkscape:connector-curvature="0"
           style="fill:none" /><path
           class="noFillSVG"
           d="m 790,329.1 c -1.8,-0.5 -3.6,-1.3 -5.4,-2.2 16.7,21.6 30.5,45.5 40.8,71.2 0,-4.8 1.1,-9.5 3.2,-13.3 7.9,-14.1 33.2,-17.3 36.5,2.2 1.6,9.6 -10.1,20.9 -19.1,13.5 -2.1,-1.8 -3.4,-4.5 -3.4,-7.3 0,-1.1 0.4,-2.4 1.5,-2.5 3.2,-0.5 2.3,9.6 8.8,8.5 6.4,-1 10.6,-9.4 7.8,-15.2 -2.4,-4.9 -7.4,-7.9 -12.9,-7.9 -10,0 -17.1,8.4 -19.1,17.6 -1.9,9 1.9,18.4 8.3,24.9 8.4,8.6 19.8,2.4 27.8,-3.2 6.7,-4.7 13.7,-10 17,-17.7 3.5,-8.3 1,-17.5 -2.4,-25.4 -3.8,-8.6 -9.7,-16.6 -17.3,-22.1 -4.6,-3.3 -8.8,-5.1 -14.2,-5.8 -11,-1.6 -5.5,-5.9 -3.8,-13.4 1.1,-4.8 0.9,-9.9 0,-14.7 -1.7,-9.2 -6,-18.2 -11.9,-25.5 -5.3,-6.6 -12.3,-12.7 -21.2,-13 -7.6,-0.2 -15,2.9 -21.8,6 -10,4.6 -20.6,11.8 -16.1,24.3 3.1,8.6 8.7,15.5 17.7,18.1 9.1,2.6 19.6,0 24.2,-8.9 6.1,-11.7 -6.1,-24.9 -17.3,-15.3 -3.8,3.3 0.9,8.2 1.9,11.7 0.1,0.4 0.2,1 -0.2,1.2 -0.2,0.1 -0.5,0 -0.8,-0.1 -7.7,-3.2 -8,-13.9 -1.4,-18.4 7.3,-5 17,-0.8 20.7,6.6 9,17.6 -12.6,30.5 -27.9,26.1 z m 45.6,17.4 c 1.4,2.2 0.5,5.3 -2.2,5.8 -2.6,0.5 -5.5,-1.5 -5.2,-4.4 0.5,-3.8 5.4,-4.4 7.4,-1.4 z"
           id="path41"
           inkscape:connector-curvature="0"
           style="fill:none" /><path
           class="noFillSVG"
           d="m 544.6,163.3 c -0.7,-6.4 -1.4,-13.9 -5,-19.5 -2.6,-4.1 -9.7,-8.8 -7.3,-0.2 0.5,2.1 1.4,4.1 2.5,6 1.1,2.1 2.6,4 4,5.9 1.9,2.7 3.9,5.3 5.8,7.8 z"
           id="path43"
           inkscape:connector-curvature="0"
           style="fill:none" /><path
           class="noFillSVG"
           d="m 679.9,195.9 c 16.5,11 4.1,32.9 -11.4,36.6 -1.7,0.4 -3.5,0.6 -5.3,0.7 25.4,10.7 49,24.8 70.3,41.7 -2.4,-4.2 -3.8,-8.8 -3.8,-13.1 -0.1,-16.2 20.3,-31.4 32.8,-16.1 6.2,7.5 1.6,23.1 -9.9,21.2 -2.7,-0.5 -5.2,-2.2 -6.6,-4.6 -0.5,-0.9 -0.8,-2.3 0,-2.9 2.6,-2 6.8,7.2 11.9,3.1 5.1,-4.1 4.6,-13.4 -0.7,-17.1 -4.5,-3.1 -10.4,-3.2 -15.1,-0.5 -8.7,5 -10.7,15.8 -7.9,24.8 2.8,8.8 10.8,15 19.5,17.5 11.6,3.3 18.4,-7.8 22.6,-16.6 3.5,-7.3 7,-15.5 6,-23.8 -1,-8.9 -7.8,-15.7 -14.7,-20.9 -7.5,-5.6 -16.6,-9.6 -26,-10.7 -5.6,-0.6 -10.1,-0.1 -15.3,2 -10.4,4.1 -7.7,-2.3 -9.9,-9.8 -1.4,-4.7 -4.1,-9 -7.3,-12.8 -6,-7.2 -14.2,-12.9 -22.9,-16.3 -7.9,-3.1 -17,-5 -24.9,-0.8 -6.7,3.6 -11.6,9.9 -16,16 -6.4,9 -12.1,20.4 -1.9,29.1 6.9,5.9 15.2,9.2 24.3,7 9.2,-2.2 17.1,-9.7 16.7,-19.7 -0.5,-13.2 -17.6,-18.7 -22.6,-4.7 -1.7,4.7 4.8,6.7 7.5,9.2 0.3,0.3 0.6,0.8 0.4,1.1 -0.1,0.2 -0.4,0.3 -0.7,0.3 -8.3,1.1 -13.8,-8.1 -10.3,-15.3 3.9,-8 14.4,-9.1 21.2,-4.6 z m 36.9,29.3 c 2.4,1.2 3.1,4.3 0.9,6.2 -2.1,1.7 -5.5,1.5 -6.6,-1.3 -1.5,-3.6 2.5,-6.6 5.7,-4.9 z"
           id="path45"
           inkscape:connector-curvature="0"
           style="fill:none" /><path
           class="noFillSVG"
           d="m 559.4,148.6 c 1.1,-1.9 5,-14.1 -0.9,-9.2 -6.7,3.6 -8.5,15.1 -9.4,23.9 2.2,-2.9 4.4,-5.8 6.5,-8.7 1.3,-1.9 2.7,-3.8 3.8,-6 z"
           id="path47"
           inkscape:connector-curvature="0"
           style="fill:none" /><path
           class="noFillSVG"
           d="m 734.9,208.2 c 2.2,-1 4.3,-1.9 6.3,-3.2 1.9,-1.1 11.4,-9.7 3.9,-8.4 -7.6,-0.3 -14.9,8.7 -20.3,15.9 3.4,-1.4 6.8,-2.8 10.1,-4.3 z"
           id="path49"
           inkscape:connector-curvature="0"
           style="fill:none" /><path
           class="noFillSVG"
           d="m 721,210.2 c 2.7,-5.9 5.8,-12.7 5.6,-19.3 -0.2,-4.8 -3.9,-12.5 -6.2,-3.9 -0.6,2.1 -0.9,4.3 -0.9,6.4 -0.1,2.4 0.2,4.7 0.4,7.1 0.4,3.3 0.8,6.5 1.1,9.7 z"
           id="path51"
           inkscape:connector-curvature="0"
           style="fill:none" /><path
           class="noFillSVG"
           d="m 413.8,824.8 c -16.5,-11 -4.1,-32.9 11.4,-36.6 3,-0.7 6.1,-0.9 9.2,-0.5 -27.8,-11.3 -53.5,-26.7 -76.4,-45.3 3.7,5.1 6,11.1 6,16.6 0.1,16.2 -20.3,31.4 -32.8,16.1 -6.2,-7.5 -1.6,-23.1 9.9,-21.2 2.7,0.5 5.2,2.2 6.6,4.6 0.5,0.9 0.8,2.3 0,2.9 -2.6,2 -6.8,-7.2 -11.9,-3.1 -5.1,4.1 -4.6,13.4 0.7,17.1 4.5,3.1 10.4,3.2 15.1,0.5 8.7,-5 10.7,-15.8 7.9,-24.8 -2.8,-8.8 -10.8,-15 -19.5,-17.5 -11.6,-3.3 -18.4,7.8 -22.6,16.6 -3.5,7.3 -7,15.5 -6,23.8 1,8.9 7.8,15.7 14.7,20.9 7.5,5.6 16.6,9.6 26,10.7 5.6,0.6 10.1,0.1 15.3,-2 10.4,-4.1 7.7,2.3 9.9,9.8 1.4,4.7 4.1,9 7.2,12.8 6,7.2 14.2,12.9 22.9,16.3 7.9,3.1 17,5 24.9,0.8 6.7,-3.6 11.6,-9.9 16,-16 6.4,-9 12.1,-20.4 1.9,-29.1 -6.9,-5.9 -15.2,-9.2 -24.3,-7 -9.2,2.2 -17.1,9.7 -16.7,19.7 0.5,13.2 17.6,18.7 22.6,4.7 1.7,-4.7 -4.8,-6.7 -7.5,-9.2 -0.3,-0.3 -0.6,-0.8 -0.4,-1.1 0.1,-0.2 0.4,-0.3 0.7,-0.3 8.3,-1 13.8,8.1 10.3,15.3 -3.8,8 -14.2,9.1 -21.1,4.5 z M 377,795.6 c -2.4,-1.2 -3.1,-4.3 -0.9,-6.2 2.1,-1.7 5.5,-1.5 6.6,1.3 1.5,3.5 -2.5,6.5 -5.7,4.9 z"
           id="path53"
           inkscape:connector-curvature="0"
           style="fill:none" /><circle
           class="noFillSVG"
           cx="547.20001"
           cy="509.79999"
           r="295.79999"
           id="circle55"
           style="fill:none" /><path
           class="noFillSVG"
           d="m 733.6,744.6 c -22.5,17.9 -47.7,32.7 -74.8,43.6 5.8,-0.5 11.6,0.5 16.1,3 14.2,7.8 17.6,33 -1.9,36.5 -9.6,1.7 -21,-9.9 -13.7,-19 1.7,-2.2 4.5,-3.5 7.2,-3.5 1.1,0 2.4,0.4 2.5,1.4 0.5,3.2 -9.5,2.4 -8.5,8.9 1.1,6.4 9.5,10.5 15.3,7.7 4.9,-2.4 7.9,-7.5 7.8,-13 -0.1,-10 -8.5,-17.1 -17.8,-19 -9.1,-1.9 -18.4,2.1 -24.8,8.5 -8.6,8.5 -2.2,19.8 3.5,27.8 4.7,6.6 10.1,13.6 17.9,16.8 8.3,3.4 17.5,0.9 25.4,-2.6 8.6,-3.8 16.5,-9.8 22,-17.5 3.3,-4.6 5,-8.8 5.7,-14.3 1.5,-11.1 5.8,-5.6 13.4,-3.9 4.8,1.1 9.9,0.8 14.7,-0.1 9.2,-1.8 18.2,-6.1 25.4,-12.1 6.5,-5.4 12.6,-12.4 12.8,-21.3 0.2,-7.6 -3,-15 -6.2,-21.7 -4.7,-10 -11.9,-20.5 -24.5,-15.9 -8.5,3.2 -15.4,8.8 -17.9,17.8 -2.6,9.1 0.2,19.6 9.1,24.2 11.7,6 24.9,-6.3 15.1,-17.4 -3.3,-3.8 -8.2,1 -11.7,2 -0.4,0.1 -1,0.2 -1.2,-0.2 -0.1,-0.2 0,-0.5 0.1,-0.8 3.1,-7.8 13.8,-8.1 18.4,-1.6 5.1,7.3 0.9,16.9 -6.4,20.7 -17.6,9.1 -30.8,-12.4 -26.4,-27.8 0.7,-2.4 1.8,-4.9 3.4,-7.2 z m -20.5,53.1 c -2.2,1.5 -5.3,0.6 -5.8,-2.2 -0.5,-2.6 1.4,-5.5 4.3,-5.2 3.8,0.5 4.5,5.4 1.5,7.4 z"
           id="path57"
           inkscape:connector-curvature="0"
           style="fill:none" /><path
           class="noFillSVG"
           d="m 719.1,821.8 c -0.2,2.4 -0.4,4.7 -0.3,7.1 0,2.1 2.9,14.7 5.4,7.5 4,-6.4 -0.3,-17.3 -4,-25.4 -0.4,3.6 -0.8,7.2 -1.1,10.8 z"
           id="path59"
           inkscape:connector-curvature="0"
           style="fill:none" /><path
           class="noFillSVG"
           d="m 851.3,694.7 c 1,2.2 2,4.3 3.3,6.3 1.1,1.9 9.8,11.3 8.5,3.8 0.2,-7.6 -8.9,-14.8 -16.1,-20.1 1.4,3.3 2.8,6.7 4.3,10 z"
           id="path61"
           inkscape:connector-curvature="0"
           style="fill:none" /><path
           class="noFillSVG"
           d="m 724.1,808.7 c 3.9,5.2 8.2,11.2 14.1,14.3 4.3,2.2 12.8,2.7 6.4,-3.5 -1.5,-1.6 -3.3,-2.9 -5.2,-3.9 -2,-1.2 -4.2,-2.1 -6.4,-3.1 -2.9,-1.3 -5.9,-2.5 -8.9,-3.8 z"
           id="path63"
           inkscape:connector-curvature="0"
           style="fill:none" /><path
           class="noFillSVG"
           d="m 782.7,695.2 c 4.7,-3.1 9.9,-5 14.9,-5.1 16.2,-0.3 31.7,19.9 16.5,32.6 -7.5,6.3 -23.1,1.9 -21.3,-9.6 0.4,-2.7 2.2,-5.2 4.5,-6.6 0.9,-0.5 2.2,-0.8 2.9,0 2,2.6 -7.1,6.8 -2.9,11.9 4.1,5 13.5,4.4 17.1,-0.9 3.1,-4.5 3.1,-10.4 0.3,-15.1 -5.1,-8.7 -15.9,-10.6 -24.9,-7.6 -8.8,2.9 -14.9,10.9 -17.3,19.7 -3.2,11.6 8,18.3 16.9,22.4 7.4,3.4 15.6,6.8 23.9,5.7 8.9,-1.1 15.6,-8 20.7,-14.9 5.5,-7.6 9.4,-16.7 10.4,-26.1 0.6,-5.6 -0.1,-10.1 -2.1,-15.2 -4.2,-10.3 2.3,-7.7 9.7,-10.1 4.7,-1.5 9,-4.2 12.7,-7.4 7.1,-6.1 12.7,-14.4 16,-23.1 3,-7.9 4.7,-17.1 0.5,-24.9 -3.6,-6.7 -10.1,-11.5 -16.2,-15.8 -9,-6.3 -20.6,-11.8 -29.1,-1.6 -5.8,7 -9,15.3 -6.7,24.4 2.3,9.2 9.9,16.9 19.9,16.4 13.2,-0.7 18.4,-17.8 4.5,-22.6 -4.8,-1.6 -6.6,4.9 -9.1,7.6 -0.3,0.3 -0.8,0.6 -1.1,0.4 -0.2,-0.1 -0.3,-0.4 -0.3,-0.7 -1.2,-8.3 8,-13.9 15.1,-10.5 8,3.8 9.2,14.2 4.8,21.2 -10.8,16.7 -32.9,4.6 -36.8,-10.9 -0.6,-2.2 -0.8,-4.5 -0.8,-6.8 -10.8,26.4 -25.2,51.1 -42.7,73.2 z m 46.5,-24.1 c 3.5,-1.5 6.6,2.5 5,5.7 -1.2,2.4 -4.3,3.1 -6.1,1 -1.9,-2.1 -1.6,-5.6 1.1,-6.7 z"
           id="path65"
           inkscape:connector-curvature="0"
           style="fill:none" /><path
           class="noFillSVG"
           d="m 849.2,680.8 c 5.9,2.6 12.7,5.7 19.4,5.4 4.8,-0.2 12.5,-4 3.8,-6.2 -2.1,-0.6 -4.3,-0.8 -6.5,-0.8 -2.4,0 -4.7,0.3 -7.1,0.5 -3.2,0.3 -6.4,0.7 -9.6,1.1 z"
           id="path67"
           inkscape:connector-curvature="0"
           style="fill:none" /><path
           class="noFillSVG"
           d="m 893.9,512.1 c 2.9,2.2 5.8,4.4 8.7,6.5 1.9,1.4 3.9,2.8 6,3.8 1.9,1.1 14.1,4.9 9.2,-0.9 -3.5,-6.7 -15,-8.5 -23.9,-9.4 z"
           id="path69"
           inkscape:connector-curvature="0"
           style="fill:none" /><path
           class="noFillSVG"
           d="m 591.8,848.8 c -19.8,-1.1 -20.3,-26.3 -8.8,-37.3 2.1,-2 4.5,-3.6 7.1,-4.9 -14,2 -28.3,3.1 -42.9,3.1 -15.2,0 -30.1,-1.1 -44.7,-3.3 5.5,2.5 10.2,6.4 13,11 8.3,13.9 -1.5,37.4 -20.1,30.5 -9.1,-3.4 -13.1,-19.1 -2.2,-23.3 2.6,-1 5.6,-0.7 8,0.7 0.9,0.5 1.8,1.5 1.4,2.5 -1.2,3 -9.5,-2.7 -11.8,3.4 -2.3,6.1 2.9,13.9 9.3,14.4 5.4,0.4 10.6,-2.5 13.3,-7.2 5,-8.7 1.3,-19.1 -5.7,-25.3 -6.9,-6.2 -16.9,-7.5 -25.7,-5.2 -11.7,3 -11.9,16 -11,25.8 0.7,8.1 1.9,16.9 6.9,23.5 5.4,7.2 14.7,9.6 23.3,10.5 9.4,1 19.2,-0.1 27.8,-4 5.2,-2.3 8.7,-5.1 12.2,-9.4 6.9,-8.8 7.8,-1.9 13.5,3.4 3.6,3.4 8.1,5.7 12.7,7.3 8.8,3.1 18.8,3.9 28,2.4 8.4,-1.3 17.2,-4.4 21.8,-11.9 4,-6.5 5,-14.5 5.7,-21.9 1,-11 0.1,-23.7 -13.1,-26.1 -9,-1.6 -17.8,-0.2 -24.5,6.3 -6.8,6.6 -9.8,17 -4.4,25.4 7.1,11.1 24.6,7.1 21.8,-7.4 -1,-4.9 -7.5,-3.3 -11.1,-4.2 -0.4,-0.1 -0.9,-0.3 -0.9,-0.8 0,-0.3 0.2,-0.5 0.4,-0.6 6.6,-5.1 16,0 16.6,7.9 0.7,8.9 -7.7,15.2 -15.9,14.7 z m -46.6,-6.5 c -2.7,0.1 -4.9,-2.2 -3.9,-4.8 0.9,-2.5 4,-4.1 6.4,-2.3 3,2.3 1.1,6.9 -2.5,7.1 z"
           id="path71"
           inkscape:connector-curvature="0"
           style="fill:none" /><path
           class="noFillSVG"
           d="m 890.6,515.7 c -8.8,-6.9 -1.9,-7.8 3.4,-13.5 3.4,-3.6 5.7,-8.1 7.3,-12.7 3.1,-8.8 3.8,-18.8 2.4,-28 -1.3,-8.4 -4.4,-17.2 -12,-21.8 -6.5,-4 -14.5,-5 -21.9,-5.6 -11,-1 -23.7,0 -26,13.1 -1.6,9 -0.2,17.8 6.4,24.5 6.6,6.8 17,9.7 25.4,4.3 11.1,-7.1 7.1,-24.7 -7.4,-21.8 -4.9,1 -3.3,7.5 -4.1,11.1 -0.1,0.4 -0.3,0.9 -0.8,0.9 -0.3,0 -0.5,-0.2 -0.6,-0.4 -5.1,-6.6 0,-16 7.9,-16.6 8.9,-0.7 15.1,7.7 14.7,16 -1.1,19.8 -26.2,20.3 -37.3,8.8 -1.4,-1.4 -2.6,-3 -3.6,-4.8 1.8,13.3 2.8,26.9 2.8,40.7 0,14.3 -1,28.4 -3,42.1 2.5,-4.4 5.8,-8.2 9.7,-10.6 13.9,-8.3 37.4,1.5 30.6,20.1 -3.4,9.1 -19.1,13.1 -23.3,2.2 -1,-2.6 -0.7,-5.6 0.6,-8 0.5,-0.9 1.5,-1.8 2.5,-1.4 3,1.2 -2.7,9.5 3.4,11.8 6.1,2.3 13.9,-2.9 14.4,-9.3 0.4,-5.4 -2.5,-10.6 -7.2,-13.3 -8.7,-5 -19.1,-1.2 -25.3,5.8 -6.2,6.9 -7.5,16.9 -5.2,25.7 3,11.7 16,11.9 25.8,11 8.1,-0.7 16.9,-1.9 23.5,-6.9 7.2,-5.4 9.6,-14.7 10.5,-23.3 1,-9.4 -0.1,-19.2 -4,-27.8 -2.4,-5.4 -5.2,-8.9 -9.6,-12.3 z M 874,515.5 c -2.5,-0.9 -4.1,-4 -2.3,-6.4 2.3,-3.1 6.9,-1.2 7.1,2.4 0.2,2.7 -2.1,4.9 -4.8,4 z"
           id="path73"
           inkscape:connector-curvature="0"
           style="fill:none" /><path
           class="noFillSVG"
           d="m 534.3,872.1 c -1.1,1.9 -5,14.1 0.9,9.2 6.7,-3.6 8.5,-15.1 9.4,-23.9 -2.2,2.9 -4.4,5.8 -6.5,8.7 -1.3,1.9 -2.7,3.9 -3.8,6 z"
           id="path75"
           inkscape:connector-curvature="0"
           style="fill:none" /><path
           class="noFillSVG"
           d="m 372.7,810.5 c -2.7,5.9 -5.8,12.7 -5.6,19.3 0.2,4.8 3.9,12.5 6.2,3.9 0.6,-2.1 0.9,-4.3 0.9,-6.4 0.1,-2.4 -0.2,-4.7 -0.4,-7.1 -0.4,-3.2 -0.7,-6.4 -1.1,-9.7 z"
           id="path77"
           inkscape:connector-curvature="0"
           style="fill:none" /><path
           class="noFillSVG"
           d="m 303.7,691.6 c 3,0.9 5.9,2.3 8.5,4.2 -18.2,-23 -33.2,-48.6 -44.1,-76.3 0.5,5.9 -0.5,11.8 -3.1,16.4 -7.9,14.1 -33.2,17.3 -36.5,-2.2 -1.6,-9.6 10.1,-20.9 19.1,-13.5 2.1,1.8 3.4,4.5 3.4,7.3 0,1.1 -0.4,2.4 -1.5,2.5 -3.2,0.5 -2.3,-9.6 -8.8,-8.5 -6.4,1 -10.6,9.4 -7.8,15.2 2.4,4.9 7.4,7.9 12.9,7.9 10,0 17.1,-8.4 19.1,-17.6 1.9,-9 -1.9,-18.4 -8.3,-24.9 -8.4,-8.6 -19.8,-2.4 -27.8,3.2 -6.7,4.7 -13.7,10 -17,17.7 -3.5,8.3 -1,17.5 2.4,25.4 3.8,8.6 9.7,16.6 17.3,22.1 4.6,3.3 8.8,5.1 14.2,5.8 11,1.6 5.5,5.9 3.8,13.4 -1.1,4.8 -0.9,9.9 0,14.7 1.7,9.2 6,18.2 11.9,25.5 5.3,6.6 12.3,12.7 21.2,13 7.6,0.2 15,-2.9 21.8,-6 10,-4.6 20.6,-11.8 16.1,-24.3 -3.1,-8.6 -8.7,-15.5 -17.7,-18.1 -9.1,-2.6 -19.6,0 -24.2,8.9 -6.1,11.7 6.1,24.9 17.3,15.3 3.8,-3.3 -0.9,-8.2 -1.9,-11.7 -0.1,-0.4 -0.2,-1 0.2,-1.2 0.2,-0.1 0.5,0 0.8,0.1 7.7,3.2 8,13.9 1.4,18.4 -7.3,5 -17,0.8 -20.7,-6.6 -8.9,-17.6 12.7,-30.5 28,-26.1 z m -45.5,-17.3 c -1.4,-2.2 -0.5,-5.3 2.2,-5.8 2.6,-0.5 5.5,1.5 5.2,4.4 -0.5,3.7 -5.5,4.4 -7.4,1.4 z"
           id="path79"
           inkscape:connector-curvature="0"
           style="fill:none" /><path
           class="noFillSVG"
           d="m 549.1,857.4 c 0.7,6.4 1.4,13.9 5,19.5 2.6,4.1 9.7,8.8 7.3,0.2 -0.5,-2.1 -1.4,-4.1 -2.5,-6 -1.1,-2.1 -2.6,-4 -4,-5.9 -1.9,-2.6 -3.8,-5.2 -5.8,-7.8 z"
           id="path81"
           inkscape:connector-curvature="0"
           style="fill:none" /><path
           class="noFillSVG"
           d="m 358.8,812.5 c -2.2,1 -4.3,1.9 -6.3,3.2 -1.9,1.1 -11.4,9.7 -3.9,8.4 7.6,0.3 14.9,-8.7 20.3,-15.9 -3.4,1.5 -6.7,2.8 -10.1,4.3 z"
           id="path83"
           inkscape:connector-curvature="0"
           style="fill:none" /><path
           d="m 546.1,185.5 c 2.3,1.8 5.5,0.2 6.4,-2.3 0.9,-2.7 -1.3,-5 -3.9,-4.8 -3.7,0.2 -5.6,4.8 -2.5,7.1 z"
           id="path85"
           inkscape:connector-curvature="0" /><path
           d="m 547.6,835.2 c -2.3,-1.8 -5.5,-0.2 -6.4,2.3 -0.9,2.7 1.3,5 3.9,4.8 3.7,-0.2 5.6,-4.8 2.5,-7.1 z"
           id="path87"
           inkscape:connector-curvature="0" /><path
           d="m 717.7,231.3 c 2.2,-1.8 1.4,-4.9 -0.9,-6.2 -3.2,-1.7 -7.2,1.3 -5.7,4.9 1.1,2.8 4.5,3 6.6,1.3 z"
           id="path89"
           inkscape:connector-curvature="0" /><path
           d="m 376,789.4 c -2.2,1.8 -1.4,4.9 0.9,6.2 3.2,1.7 7.2,-1.3 5.7,-4.9 -1,-2.7 -4.5,-3 -6.6,-1.3 z"
           id="path91"
           inkscape:connector-curvature="0" /><path
           d="m 833.3,352.3 c 2.8,-0.5 3.7,-3.6 2.2,-5.8 -1.9,-3 -6.9,-2.4 -7.4,1.4 -0.3,2.9 2.6,4.9 5.2,4.4 z"
           id="path93"
           inkscape:connector-curvature="0" /><path
           d="m 260.4,668.4 c -2.8,0.5 -3.7,3.6 -2.2,5.8 1.9,3 6.9,2.4 7.4,-1.4 0.3,-2.9 -2.5,-4.8 -5.2,-4.4 z"
           id="path95"
           inkscape:connector-curvature="0" /><path
           d="m 913.7,513.9 c -4.6,-2 -9.4,-3.2 -14.3,-4 4.5,-0.8 9,-1.9 13.3,-3.6 3.6,-1.5 11.8,-4.7 11.1,-10 -0.7,-4.9 -7.6,-4.7 -11.1,-3.9 -4.5,1 -8.7,3.5 -12.6,6.4 7.9,-12.7 9.4,-29.5 5.5,-43.8 -2.5,-9.3 -7.7,-16.6 -16.7,-20.3 -9.3,-3.8 -22.3,-5.4 -32.2,-3.7 -9.4,1.6 -14.5,8.2 -16.2,16 -2,-9.1 -4.3,-18.1 -7.1,-26.9 3.5,3.7 8.2,6.1 13.9,6 10.2,-0.1 19.7,-7.7 27.1,-14 7.7,-6.6 13,-14.8 12.3,-25.3 -1.2,-17 -12.6,-34.5 -28.1,-42.6 4.5,0.5 9,0.6 13.1,-0.5 3.6,-0.9 10.8,-4.2 8.8,-9.2 -1.9,-4.7 -9.9,-3.7 -13.6,-3.3 -5,0.6 -9.7,1.9 -14.4,3.6 3.5,-3 6.9,-6.1 9.8,-9.8 2.4,-3.1 7.9,-10 4.7,-14.2 -3,-3.9 -9,-0.3 -11.6,2.1 -3.4,3.1 -5.8,7.3 -7.8,11.8 0.5,-14.9 -6.5,-30.2 -17,-40.7 -6.8,-6.8 -14.9,-10.6 -24.6,-9.3 -10,1.3 -22.1,6.4 -29.8,12.8 -7.3,6 -8.5,14.3 -6.1,21.9 -6,-6.7 -12.4,-13.1 -18.9,-19.2 4.9,1.5 10.2,1.2 15.1,-1.6 8.8,-5.1 13.3,-16.4 16.6,-25.6 3.4,-9.5 4,-19.4 -1.8,-28 -9.5,-14.2 -28,-23.7 -45.5,-23.2 4.1,-1.8 8.1,-4 11.2,-6.9 2.7,-2.6 7.4,-9 3.1,-12.3 -4,-3.1 -10.4,1.6 -13.4,3.8 -4,2.9 -7.5,6.5 -10.7,10.3 1.6,-4.3 3,-8.7 3.6,-13.3 0.6,-3.9 2,-12.6 -3,-14.7 -4.5,-1.9 -7.9,4.2 -9,7.6 -1.4,4.4 -1.4,9.2 -0.9,14.1 -6.9,-13.2 -20.6,-23.1 -34.9,-27 -9.2,-2.6 -18.1,-1.8 -26,4.1 -8,6.1 -16,16.5 -19.6,25.9 -3.3,8.7 -0.5,16.4 5.2,21.8 -9.7,-3.2 -19.6,-5.9 -29.7,-8.2 4.9,-1.3 9.1,-4.1 11.9,-9 5,-8.8 3.2,-20.9 1.4,-30.5 -1.9,-9.9 -6.4,-18.7 -15.8,-23.2 -15.4,-7.4 -36.2,-6.2 -51,3.1 2.6,-3.7 5,-7.5 6.1,-11.6 1,-3.6 1.8,-11.5 -3.6,-12.2 -5,-0.7 -8.1,6.7 -9.6,10.1 -2,4.6 -3.2,9.4 -4,14.3 -0.8,-4.5 -1.9,-9 -3.6,-13.3 -1.5,-3.6 -4.7,-11.8 -10,-11.1 -4.9,0.6 -4.7,7.6 -3.9,11.1 1,4.5 3.5,8.7 6.4,12.6 -12.6,-7.9 -29.5,-9.4 -43.8,-5.6 -9.3,2.5 -16.6,7.6 -20.3,16.7 -3.9,9.3 -5.4,22.3 -3.7,32.2 1.6,9.3 8.1,14.5 15.9,16.2 -10.1,2.2 -20,4.9 -29.7,8 3.7,-3.6 6.1,-8.3 6,-14.1 -0.2,-10.2 -7.9,-19.7 -14.2,-27 -6.6,-7.6 -15,-12.9 -25.4,-12.1 -17,1.4 -34.4,12.9 -42.4,28.4 0.4,-4.5 0.5,-9 -0.6,-13.1 -0.9,-3.6 -4.3,-10.8 -9.3,-8.7 -4.7,2 -3.6,9.9 -3.2,13.6 0.6,5 2,9.7 3.8,14.4 -3,-3.5 -6.2,-6.8 -9.9,-9.7 -3.1,-2.4 -10,-7.8 -14.3,-4.5 -3.9,3 -0.2,9 2.2,11.6 3.1,3.4 7.4,5.7 11.9,7.7 -14.9,-0.4 -30.2,6.8 -40.6,17.3 -6.7,6.8 -10.4,15 -9.1,24.6 1.4,10 6.6,22 13.1,29.7 6.4,7.6 15.1,8.5 23,5.5 -7.5,6.8 -14.6,14 -21.3,21.6 1.8,-5.3 1.7,-11 -1.4,-16.3 -5.2,-8.7 -16.6,-13.1 -25.8,-16.3 -9.5,-3.3 -19.4,-3.8 -28,2.2 -14,9.7 -23.4,28.3 -22.6,45.8 -1.9,-4.1 -4.1,-8 -7,-11.1 -2.6,-2.7 -9.1,-7.2 -12.4,-2.9 -3.1,4 1.8,10.4 4,13.4 3,4 6.6,7.4 10.4,10.6 -4.3,-1.6 -8.8,-2.8 -13.4,-3.5 -3.9,-0.5 -12.6,-1.8 -14.6,3.2 -1.9,4.6 4.3,7.9 7.7,8.9 4.4,1.3 9.3,1.3 14.1,0.8 -13.1,7.1 -22.8,20.9 -26.6,35.2 -2.4,9.3 -1.6,18.2 4.4,25.9 6.2,8 16.7,15.8 26.1,19.3 9.5,3.5 17.7,-0.3 23,-7.1 -3.2,9.9 -5.9,19.9 -8,30.2 -0.9,-5.7 -3.9,-10.7 -9.5,-13.9 -8.9,-5 -21,-3.1 -30.5,-1.3 -9.9,1.9 -18.7,6.4 -23.2,15.8 -7.4,15.4 -6.2,36.2 3.2,51 -3.7,-2.6 -7.5,-4.9 -11.6,-6.1 -3.6,-1 -11.5,-1.7 -12.2,3.6 -0.7,5 6.7,8.1 10.1,9.6 4.6,2 9.4,3.2 14.3,4 -4.5,0.8 -9,1.9 -13.3,3.6 -3.6,1.5 -11.8,4.7 -11.1,10 0.7,4.9 7.6,4.7 11.1,3.9 4.5,-1 8.7,-3.5 12.6,-6.4 -7.9,12.7 -9.4,29.5 -5.5,43.8 2.5,9.3 7.7,16.6 16.7,20.3 9.3,3.8 22.3,5.4 32.2,3.7 10.3,-1.8 15.5,-9.6 16.6,-18.5 2.2,10.7 5,21.1 8.4,31.3 -3.7,-4.8 -8.9,-8.1 -15.6,-8 -10.2,0.1 -19.7,7.7 -27.1,14 -7.7,6.6 -13,14.8 -12.3,25.3 1.2,17 12.6,34.5 28.1,42.6 -4.5,-0.5 -9,-0.6 -13.1,0.5 -3.6,0.9 -10.8,4.2 -8.8,9.2 1.9,4.7 9.9,3.7 13.6,3.3 5,-0.6 9.7,-1.9 14.4,-3.6 -3.5,3 -6.9,6.1 -9.8,9.8 -2.4,3.1 -7.9,10 -4.7,14.2 3,3.9 9,0.3 11.6,-2.1 3.4,-3.1 5.8,-7.3 7.8,-11.8 -0.5,14.9 6.5,30.2 17,40.7 6.8,6.8 14.9,10.6 24.6,9.3 10,-1.3 22.1,-6.4 29.8,-12.8 8.4,-7 8.8,-16.9 4.7,-25.4 7.4,8.4 15.3,16.5 23.6,24 -5.8,-2.8 -12.3,-3.2 -18.5,0.3 -8.8,5.1 -13.3,16.5 -16.6,25.6 -3.4,9.5 -4,19.4 1.8,28 9.5,14.2 28,23.7 45.5,23.2 -4.1,1.8 -8.1,4 -11.2,6.9 -2.7,2.6 -7.4,9 -3.1,12.3 4,3.1 10.4,-1.6 13.4,-3.8 4,-2.9 7.5,-6.5 10.7,-10.3 -1.6,4.3 -3,8.7 -3.6,13.3 -0.6,3.9 -2,12.6 3,14.7 4.5,1.9 7.9,-4.2 9,-7.6 1.4,-4.4 1.4,-9.2 0.9,-14.1 6.9,13.2 20.6,23.1 34.9,27 9.2,2.6 18.1,1.8 26,-4.1 8,-6.1 16,-16.5 19.6,-25.9 3.8,-10 -0.6,-18.7 -8.1,-24.1 11.6,4 23.6,7.3 35.8,9.9 -6.2,0.7 -11.8,3.6 -15.2,9.6 -5,8.8 -3.2,20.9 -1.4,30.5 1.9,9.9 6.4,18.7 15.8,23.2 15.4,7.4 36.2,6.2 51,-3.1 -2.6,3.7 -5,7.5 -6.1,11.6 -1,3.6 -1.8,11.5 3.6,12.2 5,0.7 8.1,-6.7 9.6,-10.1 2,-4.6 3.2,-9.4 4,-14.3 0.8,4.5 1.9,9 3.6,13.3 1.5,3.6 4.7,11.8 10,11.1 4.9,-0.6 4.7,-7.6 3.9,-11.1 -1,-4.5 -3.5,-8.7 -6.4,-12.6 12.6,7.9 29.5,9.4 43.8,5.6 9.3,-2.5 16.6,-7.6 20.3,-16.7 3.9,-9.3 5.4,-22.3 3.7,-32.2 -1.8,-10.4 -9.6,-15.6 -18.6,-16.6 11.6,-2.4 23,-5.4 34.1,-9.1 -4.7,3.7 -7.8,8.9 -7.7,15.6 0.2,10.2 7.9,19.7 14.2,27 6.6,7.6 15,12.9 25.4,12.1 17,-1.4 34.4,-12.9 42.4,-28.4 -0.4,4.5 -0.5,9 0.6,13.1 0.9,3.6 4.3,10.8 9.3,8.7 4.7,-2 3.6,-9.9 3.2,-13.6 -0.6,-5 -2,-9.7 -3.8,-14.4 3,3.5 6.2,6.8 9.9,9.7 3.1,2.4 10,7.8 14.3,4.5 3.9,-3 0.2,-9 -2.2,-11.6 -3.1,-3.4 -7.4,-5.7 -11.9,-7.7 14.9,0.4 30.2,-6.8 40.6,-17.3 6.7,-6.8 10.4,-15 9.1,-24.6 -1.4,-10 -6.6,-22 -13.1,-29.7 -6.7,-7.9 -15.9,-8.6 -24.1,-5.1 8,-7.2 15.5,-14.7 22.7,-22.7 -2.1,5.5 -2.1,11.4 1.2,17 5.2,8.7 16.6,13.1 25.8,16.3 9.5,3.3 19.4,3.8 28,-2.2 14,-9.7 23.4,-28.3 22.6,-45.8 1.9,4.1 4.1,8 7,11.1 2.6,2.7 9.1,7.2 12.4,2.9 3.1,-4 -1.8,-10.4 -4,-13.4 -3,-4 -6.6,-7.4 -10.4,-10.6 4.3,1.6 8.8,2.8 13.4,3.5 3.9,0.5 12.6,1.8 14.6,-3.2 1.9,-4.6 -4.3,-7.9 -7.7,-8.9 -4.4,-1.3 -9.3,-1.3 -14.1,-0.8 13.1,-7.1 22.8,-20.9 26.6,-35.2 2.4,-9.3 1.6,-18.2 -4.4,-25.9 -6.2,-8 -16.7,-15.8 -26.1,-19.3 -9.2,-3.4 -17.2,0.1 -22.6,6.4 3,-9.3 5.6,-18.9 7.7,-28.6 1.1,5.2 4,9.9 9.3,12.8 8.9,5 21,3.1 30.5,1.3 9.9,-1.9 18.7,-6.4 23.2,-15.8 7.4,-15.4 6.2,-36.2 -3.2,-51 3.7,2.6 7.5,4.9 11.6,6.1 3.6,1 11.5,1.7 12.2,-3.6 0.9,-4.8 -6.5,-7.9 -9.9,-9.3 z m -12,-12.1 c 1.9,-1.4 3.8,-2.8 5.9,-4 1.9,-1.1 3.9,-2 6,-2.5 8.6,-2.4 3.9,4.7 -0.2,7.3 -5.6,3.6 -13,4.3 -19.5,5 2.6,-1.9 5.2,-3.9 7.8,-5.8 z M 874.3,335.7 c 7.1,2.6 -5.4,5.4 -7.6,5.4 -2.4,0.1 -4.7,-0.1 -7.1,-0.3 -3.6,-0.4 -7.2,-0.8 -10.8,-1.3 8.3,-3.6 19.1,-7.8 25.5,-3.8 z m -23.8,-9 c 1,-2.1 1.9,-4.4 3.1,-6.4 1.1,-1.9 2.4,-3.6 4,-5.2 6.3,-6.4 5.7,2.2 3.5,6.4 -3.1,5.9 -9.2,10.2 -14.4,14 1.2,-2.9 2.5,-5.9 3.8,-8.8 z M 818,302.9 c -3.7,-7.4 -13.3,-11.6 -20.7,-6.6 -6.6,4.5 -6.3,15.2 1.4,18.4 0.3,0.1 0.5,0.2 0.8,0.1 0.4,-0.2 0.3,-0.8 0.2,-1.2 -1,-3.5 -5.7,-8.4 -1.9,-11.7 11.2,-9.6 23.3,3.6 17.3,15.3 -4.6,8.9 -15.2,11.5 -24.2,8.9 -9,-2.6 -14.6,-9.5 -17.7,-18.1 -4.5,-12.6 6.1,-19.7 16.1,-24.3 6.8,-3.1 14.2,-6.2 21.8,-6 8.9,0.3 15.9,6.4 21.2,13 5.9,7.3 10.2,16.3 11.9,25.5 0.9,4.8 1.1,9.9 0,14.7 -1.8,7.6 -7.3,11.8 3.8,13.4 5.5,0.8 9.6,2.5 14.2,5.8 7.7,5.6 13.5,13.5 17.3,22.1 3.5,7.9 5.9,17.1 2.4,25.4 -3.3,7.7 -10.3,13.1 -17,17.7 -8,5.6 -19.4,11.9 -27.8,3.2 -6.4,-6.5 -10.2,-15.8 -8.3,-24.9 2,-9.2 9.1,-17.6 19.1,-17.6 5.5,0 10.5,3 12.9,7.9 2.8,5.8 -1.4,14.2 -7.8,15.2 -6.4,1 -5.6,-9 -8.8,-8.5 -1,0.1 -1.5,1.4 -1.5,2.5 0,2.8 1.3,5.5 3.4,7.3 9,7.4 20.7,-3.9 19.1,-13.5 -3.3,-19.5 -28.6,-16.3 -36.5,-2.2 -2.1,3.8 -3.2,8.5 -3.2,13.3 -10.3,-25.7 -24.2,-49.6 -40.8,-71.2 1.7,0.9 3.5,1.7 5.4,2.2 15.2,4.5 36.8,-8.4 27.9,-26.1 z M 745.1,196.6 c 7.5,-1.2 -2,7.4 -3.9,8.4 -2,1.3 -4.2,2.3 -6.3,3.2 -3.3,1.5 -6.7,2.8 -10,4.2 5.3,-7.1 12.7,-16.1 20.2,-15.8 z M 720.4,187 c 2.3,-8.7 6,-0.9 6.2,3.9 0.2,6.6 -2.9,13.4 -5.6,19.3 -0.4,-3.2 -0.7,-6.4 -1,-9.6 -0.2,-2.3 -0.5,-4.7 -0.4,-7.1 -0.1,-2.2 0.2,-4.4 0.8,-6.5 z M 669,215.7 c 0.3,0 0.6,-0.1 0.7,-0.3 0.2,-0.4 -0.1,-0.8 -0.4,-1.1 -2.6,-2.6 -9.2,-4.5 -7.5,-9.2 5,-13.9 22.1,-8.4 22.6,4.7 0.4,10 -7.5,17.5 -16.7,19.7 -9.1,2.2 -17.4,-1.1 -24.3,-7 -10.2,-8.7 -4.5,-20.1 1.9,-29.1 4.3,-6.1 9.2,-12.4 16,-16 7.9,-4.2 17,-2.3 24.9,0.8 8.7,3.4 16.9,9.1 22.9,16.3 3.2,3.8 5.8,8 7.3,12.8 2.2,7.5 -0.5,13.9 9.9,9.8 5.1,-2 9.6,-2.6 15.3,-2 9.4,1 18.4,5 26,10.7 6.9,5.2 13.6,11.9 14.7,20.9 1,8.3 -2.5,16.4 -6,23.8 -4.2,8.8 -11,19.9 -22.6,16.6 -8.7,-2.5 -16.7,-8.7 -19.5,-17.5 -2.8,-9 -0.8,-19.8 7.9,-24.8 4.7,-2.7 10.6,-2.6 15.1,0.5 5.3,3.7 5.8,13 0.7,17.1 -5.1,4.1 -9.3,-5.1 -11.9,-3.1 -0.8,0.6 -0.6,2 0,2.9 1.4,2.4 3.8,4.2 6.6,4.6 11.5,2 16.1,-13.6 9.9,-21.2 -12.5,-15.3 -33,-0.1 -32.8,16.1 0,4.3 1.4,8.9 3.8,13.1 -21.3,-16.9 -44.9,-31 -70.3,-41.7 1.8,-0.1 3.6,-0.3 5.3,-0.7 15.5,-3.7 27.9,-25.7 11.4,-36.6 -6.9,-4.6 -17.3,-3.5 -21.2,4.5 -3.5,7.3 2,16.5 10.3,15.4 z M 558.5,139.4 c 5.9,-4.9 2,7.4 0.9,9.2 -1.1,2.1 -2.5,4.1 -3.8,6 -2.1,2.9 -4.3,5.8 -6.5,8.7 0.9,-8.8 2.7,-20.3 9.4,-23.9 z m -23.7,10.3 c -1.1,-1.9 -2,-3.9 -2.5,-6 -2.4,-8.6 4.7,-3.9 7.3,0.2 3.5,5.6 4.3,13 5,19.5 -1.9,-2.6 -3.9,-5.2 -5.8,-7.8 -1.4,-1.9 -2.8,-3.9 -4,-5.9 z M 486,186.5 c 0.6,7.9 10,13 16.6,7.9 0.2,-0.2 0.4,-0.4 0.4,-0.6 0,-0.4 -0.5,-0.7 -0.9,-0.8 -3.6,-0.9 -10.2,0.8 -11.1,-4.2 -2.8,-14.5 14.7,-18.4 21.8,-7.4 5.4,8.4 2.4,18.9 -4.4,25.4 -6.7,6.5 -15.5,7.9 -24.5,6.3 -13.2,-2.3 -14.1,-15.1 -13.1,-26.1 0.7,-7.4 1.7,-15.4 5.7,-21.9 4.7,-7.6 13.5,-10.6 21.8,-11.9 9.2,-1.5 19.2,-0.7 28,2.4 4.6,1.6 9.1,4 12.7,7.3 5.7,5.3 6.7,12.2 13.5,3.4 3.4,-4.3 7,-7.1 12.2,-9.4 8.6,-3.9 18.4,-5 27.8,-4 8.6,0.9 17.8,3.4 23.2,10.5 5,6.7 6.2,15.4 6.9,23.5 0.9,9.7 0.6,22.7 -11,25.8 -8.8,2.3 -18.8,1 -25.7,-5.2 -7,-6.3 -10.7,-16.7 -5.7,-25.3 2.7,-4.7 7.9,-7.6 13.3,-7.2 6.4,0.5 11.6,8.3 9.3,14.4 -2.3,6.1 -10.6,0.3 -11.8,3.4 -0.4,1 0.5,2 1.4,2.5 2.4,1.4 5.4,1.6 8,0.7 10.9,-4.1 6.9,-19.9 -2.2,-23.3 -18.6,-6.8 -28.4,16.7 -20.1,30.5 2.2,3.7 5.7,6.8 9.7,9.3 -13.3,-1.8 -27,-2.8 -40.8,-2.8 -13.9,0 -27.6,1 -41,2.8 1.6,-1 3.2,-2.2 4.5,-3.5 11.5,-11.1 11,-36.3 -8.8,-37.3 -8,-0.2 -16.4,6 -15.7,14.8 z m -116.5,-2.2 c 2.6,-7.2 5.4,5.4 5.4,7.5 0.1,2.4 -0.1,4.7 -0.3,7.1 -0.3,3.6 -0.8,7.2 -1.2,10.8 -3.6,-8.1 -7.8,-18.9 -3.9,-25.4 z m -15.2,20.8 c -1.9,-1 -3.6,-2.4 -5.2,-3.9 -6.4,-6.2 2.1,-5.7 6.4,-3.5 5.9,3 10.3,9.1 14.1,14.3 -3,-1.2 -6,-2.5 -8.9,-3.8 -2.2,-0.9 -4.4,-1.8 -6.4,-3.1 z m -17.1,35.8 c -7.3,3.8 -11.5,13.4 -6.4,20.7 4.5,6.5 15.2,6.2 18.4,-1.6 0.1,-0.3 0.2,-0.5 0.1,-0.8 -0.2,-0.4 -0.8,-0.3 -1.2,-0.2 -3.5,1.1 -8.4,5.8 -11.7,2 -9.7,-11.1 3.4,-23.4 15.1,-17.4 8.9,4.5 11.6,15.1 9.1,24.2 -2.5,9 -9.4,14.7 -17.9,17.8 -12.5,4.6 -19.8,-5.9 -24.5,-15.9 -3.2,-6.7 -6.3,-14.1 -6.2,-21.7 0.2,-8.9 6.3,-15.9 12.8,-21.3 7.2,-5.9 16.2,-10.3 25.4,-12.1 4.8,-0.9 9.9,-1.2 14.7,-0.1 7.6,1.7 11.9,7.2 13.4,-3.9 0.7,-5.5 2.4,-9.7 5.7,-14.3 5.5,-7.7 13.4,-13.6 22,-17.5 7.9,-3.5 17.1,-6.1 25.4,-2.6 7.7,3.2 13.1,10.2 17.9,16.8 5.7,8 12,19.3 3.5,27.8 -6.5,6.4 -15.7,10.4 -24.8,8.5 -9.2,-1.9 -17.7,-9 -17.8,-19 0,-5.4 2.9,-10.6 7.8,-13 5.8,-2.8 14.2,1.3 15.3,7.7 1.1,6.4 -9,5.6 -8.5,8.9 0.2,1 1.5,1.4 2.5,1.4 2.8,0 5.5,-1.3 7.2,-3.5 7.3,-9.1 -4.1,-20.7 -13.7,-19 -19.5,3.5 -16.1,28.7 -1.9,36.5 3.9,2.1 8.7,3.1 13.7,3.1 -25.9,10.8 -50,25 -71.7,42.3 1.1,-2 2.1,-4.1 2.7,-6.2 4.3,-15.2 -8.8,-36.6 -26.4,-27.6 z M 230.7,316 c -1.3,-7.5 7.4,2 8.5,3.8 1.3,2 2.3,4.1 3.3,6.3 1.5,3.3 2.9,6.6 4.4,10 -7.3,-5.3 -16.4,-12.6 -16.2,-20.1 z m -2.8,25.6 c -2.2,0 -4.3,-0.2 -6.5,-0.8 -8.7,-2.2 -1,-6 3.8,-6.2 6.6,-0.3 13.4,2.8 19.4,5.4 -3.2,0.4 -6.4,0.8 -9.6,1.2 -2.4,0.1 -4.8,0.4 -7.1,0.4 z m 39.7,50.5 c -3.9,-15.5 -26,-27.6 -36.8,-10.9 -4.5,6.9 -3.3,17.3 4.8,21.2 7.2,3.4 16.3,-2.2 15.1,-10.5 0,-0.3 -0.1,-0.6 -0.3,-0.7 -0.4,-0.2 -0.8,0.1 -1.1,0.4 -2.5,2.7 -4.4,9.2 -9.1,7.6 -14,-4.8 -8.7,-21.9 4.5,-22.6 10,-0.5 17.6,7.3 19.9,16.4 2.3,9.1 -0.9,17.4 -6.7,24.4 -8.5,10.3 -20.1,4.7 -29.1,-1.6 -6.1,-4.3 -12.5,-9.1 -16.2,-15.8 -4.3,-7.8 -2.5,-17 0.5,-24.9 3.3,-8.7 8.9,-17 16,-23.1 3.7,-3.2 8,-5.9 12.7,-7.4 7.4,-2.3 13.9,0.3 9.7,-10.1 -2.1,-5.1 -2.7,-9.6 -2.1,-15.2 0.9,-9.4 4.8,-18.5 10.4,-26.1 5.1,-7 11.8,-13.8 20.7,-14.9 8.3,-1.1 16.5,2.3 23.9,5.7 8.9,4.1 20,10.7 16.9,22.4 -2.4,8.8 -8.5,16.8 -17.3,19.7 -8.9,2.9 -19.8,1 -24.9,-7.6 -2.8,-4.7 -2.7,-10.6 0.3,-15.1 3.6,-5.3 13,-5.9 17.1,-0.9 4.1,5.1 -5,9.3 -2.9,11.9 0.7,0.8 2,0.5 2.9,0 2.4,-1.4 4.1,-3.9 4.5,-6.6 1.8,-11.5 -13.8,-15.9 -21.3,-9.6 -15.2,12.7 0.3,32.9 16.5,32.6 4.8,-0.1 9.9,-1.9 14.5,-4.8 -17.3,22.2 -31.6,47 -42.2,73.6 -0.1,-2.7 -0.3,-5.1 -0.9,-7.5 z m -91.7,107.2 c -4.9,-5.8 7.4,-2 9.2,-0.9 2.1,1.1 4.1,2.4 6,3.8 2.9,2.1 5.8,4.3 8.7,6.5 -8.8,-1 -20.3,-2.8 -23.9,-9.4 z m 16.2,19.6 c -1.9,1.4 -3.8,2.8 -5.9,4 -1.9,1.1 -3.9,2 -6,2.5 -8.6,2.4 -3.9,-4.7 0.2,-7.3 5.6,-3.6 13,-4.3 19.5,-5 -2.6,2 -5.2,3.9 -7.8,5.8 z m 31,52.8 c 7.9,-0.6 13,-10 7.9,-16.6 -0.2,-0.2 -0.4,-0.4 -0.6,-0.4 -0.4,0 -0.7,0.5 -0.8,0.9 -0.9,3.6 0.8,10.2 -4.1,11.1 -14.5,2.8 -18.5,-14.7 -7.4,-21.8 8.4,-5.4 18.9,-2.5 25.4,4.3 6.5,6.7 7.9,15.5 6.4,24.5 -2.3,13.2 -15.1,14.1 -26,13.1 -7.4,-0.6 -15.4,-1.6 -21.9,-5.6 -7.6,-4.6 -10.6,-13.5 -12,-21.8 -1.5,-9.2 -0.7,-19.2 2.4,-28 1.6,-4.6 3.9,-9.1 7.3,-12.7 5.3,-5.7 12.2,-6.7 3.4,-13.5 -4.4,-3.4 -7.1,-7 -9.5,-12.1 -3.9,-8.6 -5,-18.4 -4,-27.8 0.9,-8.6 3.3,-17.8 10.5,-23.3 6.7,-5.1 15.4,-6.2 23.5,-6.9 9.7,-0.9 22.7,-0.7 25.8,11 2.3,8.8 1,18.8 -5.2,25.7 -6.3,7 -16.6,10.8 -25.3,5.8 -4.7,-2.7 -7.6,-7.9 -7.2,-13.3 0.5,-6.4 8.3,-11.6 14.4,-9.3 6.1,2.3 0.3,10.6 3.4,11.8 1,0.4 2,-0.5 2.5,-1.4 1.4,-2.4 1.6,-5.4 0.6,-8 -4.1,-10.9 -19.9,-6.9 -23.3,2.2 -6.8,18.6 16.7,28.4 30.6,20.1 4.3,-2.6 7.9,-6.9 10.4,-11.9 -2,13.8 -3,27.9 -3,42.3 0,14.9 1.1,29.6 3.2,43.9 -1.3,-2.5 -2.8,-4.8 -4.7,-6.8 -11.1,-11.5 -36.3,-11 -37.3,8.8 -0.5,8 5.8,16.4 14.6,15.7 z M 219.4,685 c -7.1,-2.6 5.4,-5.4 7.6,-5.4 2.4,-0.1 4.7,0.1 7.1,0.3 3.6,0.4 7.2,0.8 10.8,1.3 -8.2,3.7 -19.1,7.9 -25.5,3.8 z m 23.8,9.1 c -1,2.1 -1.9,4.4 -3.1,6.4 -1.1,1.9 -2.4,3.6 -4,5.2 -6.3,6.4 -5.7,-2.2 -3.5,-6.4 3.1,-5.9 9.2,-10.2 14.4,-14 -1.2,2.8 -2.5,5.8 -3.8,8.8 z m 32.5,23.8 c 3.7,7.4 13.3,11.6 20.7,6.6 6.6,-4.5 6.3,-15.2 -1.4,-18.4 -0.3,-0.1 -0.5,-0.2 -0.8,-0.1 -0.4,0.2 -0.3,0.8 -0.2,1.2 1,3.5 5.7,8.4 1.9,11.7 -11.2,9.6 -23.3,-3.6 -17.3,-15.3 4.6,-8.9 15.2,-11.5 24.2,-8.9 9,2.6 14.6,9.5 17.7,18.1 4.5,12.6 -6.1,19.7 -16.1,24.3 -6.8,3.1 -14.2,6.2 -21.8,6 -8.9,-0.3 -15.9,-6.4 -21.2,-13 -5.9,-7.3 -10.2,-16.3 -11.9,-25.5 -0.9,-4.8 -1.1,-9.9 0,-14.7 1.8,-7.6 7.3,-11.8 -3.8,-13.4 -5.5,-0.8 -9.6,-2.5 -14.2,-5.8 -7.7,-5.6 -13.5,-13.5 -17.3,-22.1 -3.5,-7.9 -5.9,-17.1 -2.4,-25.4 3.3,-7.7 10.3,-13.1 17,-17.7 8,-5.6 19.4,-11.9 27.8,-3.2 6.4,6.5 10.2,15.8 8.3,24.9 -2,9.2 -9.1,17.6 -19.1,17.6 -5.5,0 -10.5,-3 -12.9,-7.9 -2.8,-5.8 1.4,-14.2 7.8,-15.2 6.4,-1 5.6,9 8.8,8.5 1,-0.1 1.5,-1.4 1.5,-2.5 0,-2.8 -1.3,-5.5 -3.4,-7.3 -9,-7.4 -20.7,3.9 -19.1,13.5 3.3,19.5 28.6,16.3 36.5,2.2 2.6,-4.6 3.6,-10.5 3.1,-16.4 10.9,27.7 25.9,53.3 44.1,76.3 -2.6,-1.9 -5.5,-3.4 -8.5,-4.2 -15.3,-4.6 -36.9,8.3 -28,26.1 z m 72.9,106.2 c -7.5,1.2 2,-7.4 3.9,-8.4 2,-1.3 4.2,-2.3 6.3,-3.2 3.3,-1.5 6.7,-2.8 10,-4.2 -5.3,7.1 -12.6,16.1 -20.2,15.8 z m 24.7,9.6 c -2.3,8.7 -6,0.9 -6.2,-3.9 -0.2,-6.6 2.9,-13.4 5.6,-19.3 0.4,3.2 0.7,6.4 1,9.6 0.2,2.3 0.5,4.7 0.4,7.1 0.1,2.2 -0.2,4.4 -0.8,6.5 z M 424.7,805 c -0.3,0 -0.6,0.1 -0.7,0.3 -0.2,0.4 0.1,0.8 0.4,1.1 2.6,2.6 9.2,4.5 7.5,9.2 -5,13.9 -22.1,8.4 -22.6,-4.7 -0.4,-10 7.5,-17.5 16.7,-19.7 9.1,-2.2 17.4,1.1 24.3,7 10.2,8.7 4.5,20.1 -1.9,29.1 -4.3,6.1 -9.2,12.4 -16,16 -7.9,4.2 -17,2.3 -24.9,-0.8 -8.7,-3.4 -16.9,-9.1 -22.9,-16.3 -3.2,-3.8 -5.8,-8 -7.2,-12.8 -2.2,-7.5 0.5,-13.9 -9.9,-9.8 -5.1,2 -9.6,2.6 -15.3,2 -9.4,-1 -18.4,-5 -26,-10.7 -6.9,-5.2 -13.6,-12 -14.7,-20.9 -1,-8.3 2.5,-16.4 6,-23.8 4.2,-8.8 11,-19.9 22.6,-16.6 8.7,2.5 16.7,8.7 19.5,17.5 2.8,9 0.8,19.8 -7.9,24.8 -4.7,2.7 -10.6,2.6 -15.1,-0.5 -5.3,-3.7 -5.8,-13 -0.7,-17.1 5.1,-4.1 9.3,5.1 11.9,3.1 0.8,-0.6 0.6,-2 0,-2.9 -1.4,-2.4 -3.8,-4.2 -6.6,-4.6 -11.5,-2 -16.1,13.6 -9.9,21.2 12.5,15.3 33,0.1 32.8,-16.1 0,-5.6 -2.4,-11.6 -6,-16.6 22.9,18.7 48.6,34 76.4,45.3 -3.1,-0.3 -6.2,-0.2 -9.2,0.5 -15.5,3.7 -27.9,25.7 -11.4,36.6 6.9,4.6 17.3,3.5 21.2,-4.5 3.4,-7.1 -2.1,-16.3 -10.4,-15.3 z m 110.5,76.3 c -5.9,4.9 -2,-7.4 -0.9,-9.2 1.1,-2.1 2.5,-4.1 3.8,-6 2.1,-2.9 4.3,-5.8 6.5,-8.7 -0.9,8.9 -2.7,20.4 -9.4,23.9 z m 23.7,-10.2 c 1.1,1.9 2,3.9 2.5,6 2.4,8.6 -4.7,3.9 -7.3,-0.2 -3.5,-5.6 -4.3,-13 -5,-19.5 1.9,2.6 3.9,5.2 5.8,7.8 1.4,1.9 2.9,3.8 4,5.9 z m 48.9,-36.9 c -0.6,-7.9 -10,-13 -16.6,-7.9 -0.2,0.2 -0.4,0.4 -0.4,0.6 0,0.4 0.5,0.7 0.9,0.8 3.6,0.9 10.2,-0.8 11.1,4.2 2.8,14.5 -14.7,18.4 -21.8,7.4 -5.4,-8.4 -2.4,-18.9 4.4,-25.4 6.7,-6.5 15.5,-7.9 24.5,-6.3 13.2,2.3 14.1,15.1 13.1,26.1 -0.7,7.4 -1.7,15.4 -5.7,21.9 -4.7,7.6 -13.5,10.6 -21.8,11.9 -9.2,1.5 -19.2,0.7 -28,-2.4 -4.6,-1.6 -9.1,-4 -12.7,-7.3 -5.7,-5.3 -6.7,-12.2 -13.5,-3.4 -3.4,4.3 -7,7.1 -12.2,9.4 -8.6,3.9 -18.4,5 -27.8,4 -8.6,-0.9 -17.8,-3.4 -23.3,-10.5 -5,-6.7 -6.2,-15.4 -6.9,-23.5 -0.9,-9.7 -0.6,-22.7 11,-25.8 8.8,-2.3 18.8,-1 25.7,5.2 7,6.3 10.7,16.7 5.7,25.3 -2.7,4.7 -7.9,7.6 -13.3,7.2 -6.4,-0.5 -11.6,-8.3 -9.3,-14.4 2.3,-6.1 10.6,-0.3 11.8,-3.4 0.4,-1 -0.5,-2 -1.4,-2.5 -2.4,-1.4 -5.4,-1.6 -8,-0.7 -10.9,4.1 -6.9,19.9 2.2,23.3 18.6,6.8 28.4,-16.7 20.1,-30.5 -2.8,-4.6 -7.5,-8.5 -13,-11 14.6,2.2 29.5,3.3 44.7,3.3 14.6,0 28.9,-1.1 42.9,-3.1 -2.6,1.3 -5.1,2.9 -7.1,4.9 -11.5,11.1 -11,36.3 8.8,37.3 8.1,0.4 16.5,-5.9 15.9,-14.7 z m 116.4,2.2 c -2.6,7.2 -5.4,-5.4 -5.4,-7.5 -0.1,-2.4 0.1,-4.7 0.3,-7.1 0.3,-3.6 0.8,-7.2 1.2,-10.8 3.6,8.1 7.9,19 3.9,25.4 z m 15.2,-20.8 c 1.9,1 3.6,2.4 5.2,3.9 6.4,6.2 -2.1,5.7 -6.4,3.5 -5.9,-3 -10.3,-9.1 -14.1,-14.3 3,1.2 6,2.5 8.9,3.8 2.2,1 4.4,1.9 6.4,3.1 z m 17.2,-35.8 c 7.3,-3.8 11.5,-13.4 6.4,-20.7 -4.5,-6.5 -15.2,-6.2 -18.4,1.6 -0.1,0.3 -0.2,0.5 -0.1,0.8 0.2,0.4 0.8,0.3 1.2,0.2 3.5,-1.1 8.4,-5.8 11.7,-2 9.7,11.1 -3.4,23.4 -15.1,17.4 -8.9,-4.5 -11.6,-15.1 -9.1,-24.2 2.5,-9 9.4,-14.7 17.9,-17.8 12.5,-4.6 19.8,5.9 24.5,15.9 3.2,6.7 6.3,14.1 6.2,21.7 -0.2,8.9 -6.3,15.9 -12.8,21.3 -7.2,5.9 -16.2,10.3 -25.4,12.1 -4.8,0.9 -9.9,1.2 -14.7,0.1 -7.6,-1.7 -11.9,-7.2 -13.4,3.9 -0.7,5.5 -2.4,9.7 -5.7,14.3 -5.5,7.7 -13.4,13.6 -22,17.5 -7.9,3.5 -17.1,6.1 -25.4,2.6 -7.7,-3.2 -13.1,-10.2 -17.9,-16.8 -5.7,-8 -12,-19.3 -3.5,-27.8 6.5,-6.4 15.7,-10.4 24.8,-8.5 9.2,1.9 17.7,9 17.8,19 0,5.5 -2.9,10.6 -7.8,13 -5.8,2.8 -14.2,-1.3 -15.3,-7.7 -1.1,-6.4 9,-5.6 8.5,-8.9 -0.2,-1 -1.5,-1.4 -2.5,-1.4 -2.8,0 -5.5,1.3 -7.2,3.5 -7.3,9.1 4.1,20.7 13.7,19 19.5,-3.5 16.1,-28.7 1.9,-36.5 -4.5,-2.5 -10.3,-3.4 -16.1,-3 27.1,-10.9 52.3,-25.7 74.8,-43.6 -1.5,2.3 -2.7,4.8 -3.4,7.4 -4.4,15.2 8.7,36.7 26.4,27.6 z M 547.2,805.6 C 384.1,805.6 251.4,672.9 251.4,509.8 251.4,346.7 384.1,214 547.2,214 710.3,214 843,346.7 843,509.8 843,672.9 710.3,805.6 547.2,805.6 Z M 863,704.8 c 1.3,7.5 -7.4,-2 -8.5,-3.8 -1.3,-2 -2.3,-4.1 -3.3,-6.3 -1.5,-3.3 -2.9,-6.6 -4.4,-10 7.4,5.2 16.5,12.5 16.2,20.1 z m 2.9,-25.7 c 2.2,0 4.3,0.2 6.5,0.8 8.7,2.2 1,6 -3.8,6.2 -6.6,0.3 -13.4,-2.8 -19.4,-5.4 3.2,-0.4 6.4,-0.8 9.6,-1.2 2.3,-0.1 4.7,-0.4 7.1,-0.4 z m -39.8,-50.5 c 3.9,15.5 26,27.6 36.8,10.9 4.5,-6.9 3.3,-17.3 -4.8,-21.2 -7.2,-3.4 -16.3,2.2 -15.1,10.5 0,0.3 0.1,0.6 0.3,0.7 0.4,0.2 0.8,-0.1 1.1,-0.4 2.5,-2.7 4.4,-9.2 9.1,-7.6 14,4.8 8.7,21.9 -4.5,22.6 -10,0.5 -17.6,-7.3 -19.9,-16.4 -2.3,-9.1 0.9,-17.4 6.7,-24.4 8.5,-10.3 20.1,-4.7 29.1,1.6 6.1,4.3 12.5,9.1 16.2,15.8 4.3,7.8 2.5,17 -0.5,24.9 -3.3,8.7 -8.9,17 -16,23.1 -3.7,3.2 -8,5.9 -12.7,7.4 -7.4,2.3 -13.9,-0.3 -9.7,10.1 2.1,5.1 2.7,9.6 2.1,15.2 -0.9,9.4 -4.8,18.5 -10.4,26.1 -5.1,7 -11.8,13.8 -20.7,14.9 -8.3,1.1 -16.5,-2.3 -23.9,-5.7 -8.9,-4.1 -20,-10.7 -16.9,-22.4 2.4,-8.8 8.5,-16.8 17.3,-19.7 8.9,-2.9 19.8,-1 24.9,7.6 2.8,4.7 2.7,10.6 -0.3,15.1 -3.6,5.3 -13,5.9 -17.1,0.9 -4.1,-5.1 5,-9.3 2.9,-11.9 -0.7,-0.8 -2,-0.5 -2.9,0 -2.4,1.4 -4.1,3.9 -4.5,6.6 -1.8,11.5 13.8,15.9 21.3,9.6 15.2,-12.7 -0.3,-32.9 -16.5,-32.6 -5,0.1 -10.2,2 -14.9,5.1 17.5,-22.1 31.9,-46.8 42.6,-73.4 0.1,2.6 0.4,4.8 0.9,7 z m 74,-100.8 c 3.9,8.6 5,18.4 4,27.8 -0.9,8.6 -3.3,17.8 -10.5,23.3 -6.7,5.1 -15.4,6.2 -23.5,6.9 -9.7,0.9 -22.7,0.7 -25.8,-11 -2.3,-8.8 -1,-18.8 5.2,-25.7 6.3,-7 16.6,-10.8 25.3,-5.8 4.7,2.7 7.6,7.9 7.2,13.3 -0.5,6.4 -8.3,11.6 -14.4,9.3 -6.1,-2.3 -0.3,-10.6 -3.4,-11.8 -1,-0.4 -2,0.5 -2.5,1.4 -1.4,2.4 -1.6,5.4 -0.6,8 4.1,10.9 19.9,6.9 23.3,-2.2 6.8,-18.6 -16.7,-28.4 -30.6,-20.1 -3.9,2.3 -7.3,6.1 -9.7,10.6 1.9,-13.8 3,-27.8 3,-42.1 0,-13.8 -1,-27.4 -2.8,-40.7 1,1.7 2.2,3.3 3.6,4.8 11.1,11.5 36.3,11 37.3,-8.8 0.4,-8.2 -5.8,-16.7 -14.7,-16 -7.9,0.6 -13,10 -7.9,16.6 0.2,0.2 0.4,0.4 0.6,0.4 0.4,0 0.7,-0.5 0.8,-0.9 0.9,-3.6 -0.8,-10.2 4.1,-11.1 14.5,-2.8 18.5,14.7 7.4,21.8 -8.4,5.4 -18.9,2.5 -25.4,-4.3 -6.5,-6.7 -7.9,-15.5 -6.4,-24.5 2.3,-13.2 15.1,-14.1 26,-13.1 7.4,0.6 15.4,1.6 21.9,5.6 7.6,4.6 10.6,13.5 12,21.8 1.5,9.2 0.7,19.2 -2.4,28 -1.6,4.6 -3.9,9.1 -7.3,12.7 -5.3,5.7 -12.2,6.7 -3.4,13.5 4.5,3.6 7.3,7.1 9.6,12.3 z m 8.5,-5.4 c -2.1,-1.1 -4.1,-2.4 -6,-3.8 -2.9,-2.1 -5.8,-4.3 -8.7,-6.5 8.9,0.9 20.4,2.7 24,9.4 4.8,5.8 -7.4,1.9 -9.3,0.9 z"
           id="path97"
           inkscape:connector-curvature="0" /><path
           d="m 871.7,509.1 c -1.8,2.3 -0.2,5.5 2.3,6.4 2.7,0.9 5,-1.3 4.8,-3.9 -0.2,-3.6 -4.8,-5.5 -7.1,-2.5 z"
           id="path99"
           inkscape:connector-curvature="0" /><path
           d="m 222,511.6 c 1.8,-2.3 0.2,-5.5 -2.3,-6.4 -2.7,-0.9 -5,1.3 -4.8,3.9 0.2,3.7 4.8,5.6 7.1,2.5 z"
           id="path101"
           inkscape:connector-curvature="0" /><path
           d="m 834.1,676.7 c 1.6,-3.2 -1.4,-7.2 -5,-5.7 -2.7,1.1 -2.9,4.6 -1.2,6.7 1.9,2.2 5,1.4 6.2,-1 z"
           id="path103"
           inkscape:connector-curvature="0" /><path
           d="m 259.6,344 c -1.6,3.2 1.4,7.2 5,5.7 2.7,-1.1 2.9,-4.6 1.2,-6.7 -1.9,-2.1 -5,-1.4 -6.2,1 z"
           id="path105"
           inkscape:connector-curvature="0" /><path
           d="m 711.6,790.3 c -2.9,-0.3 -4.8,2.6 -4.3,5.2 0.5,2.8 3.6,3.6 5.8,2.2 3,-2 2.3,-6.9 -1.5,-7.4 z"
           id="path107"
           inkscape:connector-curvature="0" /><path
           d="m 382.1,230.4 c 2.9,0.3 4.8,-2.6 4.3,-5.2 -0.5,-2.8 -3.6,-3.6 -5.8,-2.2 -3,2 -2.3,6.9 1.5,7.4 z"
           id="path109"
           inkscape:connector-curvature="0" /></g></g></switch></svg>