<?xml version="1.0" encoding="UTF-8" standalone="no"?>
<svg
   xmlns:dc="http://purl.org/dc/elements/1.1/"
   xmlns:cc="http://creativecommons.org/ns#"
   xmlns:rdf="http://www.w3.org/1999/02/22-rdf-syntax-ns#"
   xmlns:svg="http://www.w3.org/2000/svg"
   xmlns="http://www.w3.org/2000/svg"
   xmlns:sodipodi="http://sodipodi.sourceforge.net/DTD/sodipodi-0.dtd"
   xmlns:inkscape="http://www.inkscape.org/namespaces/inkscape"
   version="1.1"
   id="Layer_1"
   x="0px"
   y="0px"
   viewBox="0 0 1000 1000"
   width="100%"
   height="100%"
   style="enable-background:new 0 0 1000 1000;"
   xml:space="preserve"
   ><style
     type="text/css"
     id="style3">
	.noFillSVG{fill:none;}
</style><switch
     id="switch5"
     transform="translate(-16.519378,6.9911252)"><g
       id="g7"><g
         id="g9"><path
           class="noFillSVG"
           d="m 531.5,836.8 c -0.9,-1.6 -1.7,-3.5 -2.8,-5 -0.7,-0.9 -1.6,-1.6 -2.4,-1.7 -1.9,-0.1 -3.9,1.9 -4.9,4.2 -1.2,2.9 -0.5,6.2 0.8,9.2 1.4,3.1 3.9,5.8 7.2,7.4 1.3,-2.2 2.1,-4.6 2.5,-6.9 0.3,-2.4 0.4,-5 -0.4,-7.2 z"
           id="path11"
           inkscape:connector-curvature="0"
           style="fill:none" /><path
           class="noFillSVG"
           d="m 660.6,681.5 c 1.5,-3.2 1.5,-6.6 0,-9.8 -0.4,-1 -1,-1.7 -1.7,-2.2 -0.3,-0.3 -0.7,-0.5 -1.1,-0.6 -0.4,-0.2 -1,-0.3 -1.5,-0.3 -1.1,-0.1 -2.3,0 -3.4,0.3 -1.1,0.4 -2.2,0.9 -3.1,1.6 -2.9,2.2 -3.4,6.1 -2,8.9 0.7,1.9 1.6,3.7 2.7,5.5 1.1,1.8 2.2,3.3 3.3,4.9 l 0.1,0.2 c 0.3,0.4 1.5,-1.6 3.2,-3.6 1.7,-2.2 3.3,-4.5 3.5,-4.9 z"
           id="path13"
           inkscape:connector-curvature="0"
           style="fill:none" /><path
           class="noFillSVG"
           d="m 704.9,679.6 c -0.1,-1.8 0,-3.9 -0.5,-5.7 -0.4,-1.1 -1.1,-2.2 -2.2,-2.6 -2.6,-1 -6.5,0.4 -8.2,2.3 -2.3,2.6 -2,6 -1.3,9.1 0.8,3.4 2.5,6.5 4.8,9.1 1.8,-1.7 3.3,-3.5 4.6,-5.6 1.2,-2 2.5,-4.3 2.8,-6.6 z"
           id="path15"
           inkscape:connector-curvature="0"
           style="fill:none" /><path
           class="noFillSVG"
           d="m 492.6,838.7 c 2.7,-2.2 4.1,-5.3 4.6,-8.6 0.6,-3.9 -1.4,-5.4 -4.9,-5 -2.7,0.3 -6,2 -7.6,4.7 -2.3,3.2 -3.4,7.6 -2.8,11.9 l 0,0.2 c 0.1,0.5 2.7,0 5.2,-0.8 2.7,-0.8 5.1,-2.1 5.5,-2.4 z"
           id="path17"
           inkscape:connector-curvature="0"
           style="fill:none" /><path
           class="noFillSVG"
           d="m 364.1,676.5 c -0.4,-1.8 -0.6,-3.9 -1.5,-5.5 -0.6,-1.1 -1.5,-2 -2.7,-2.2 -2.7,-0.5 -6.3,1.5 -7.7,3.7 -1.8,2.9 -1,6.2 0.3,9.2 1.4,3.2 3.6,6 6.2,8.1 1.4,-1.9 2.7,-4 3.6,-6.3 1,-2.2 1.9,-4.6 1.8,-7 z"
           id="path19"
           inkscape:connector-curvature="0"
           style="fill:none" /><path
           class="noFillSVG"
           d="m 407.1,689.1 c 2.8,-2 4.8,-4.9 4.6,-8.6 -0.1,-4.6 -5.4,-7.2 -10,-6.1 -3.6,0.9 -5.6,4.1 -5.5,7.3 -0.2,2 0,4.1 0.2,6.1 0.2,2.1 0.6,4 1,5.8 l 0,0.2 c 0.1,0.4 2.1,-0.8 4.3,-2 2.4,-1.2 5,-2.4 5.4,-2.7 z"
           id="path21"
           inkscape:connector-curvature="0"
           style="fill:none" /><path
           class="noFillSVG"
           d="m 473.8,802.2 c 1.5,-1 3.4,-1.9 4.7,-3.3 0.8,-0.9 1.3,-2.1 1.2,-3.3 -0.4,-2.7 -3.6,-5.4 -6.1,-6 -3.4,-0.7 -6.2,1.2 -8.5,3.4 -2.5,2.4 -4.4,5.4 -5.5,8.7 2.3,0.7 4.7,1.1 7.2,1.2 2.2,0.2 4.8,0.2 7,-0.7 z"
           id="path23"
           inkscape:connector-curvature="0"
           style="fill:none" /><path
           class="noFillSVG"
           d="m 789.9,685.4 c -0.5,-1.8 -0.9,-3.8 -1.7,-5.4 -0.5,-1 -1.2,-1.9 -2,-2.2 -1.8,-0.5 -4.3,1.1 -5.7,3.1 -0.4,0.7 -0.8,1.4 -1,2.1 -0.3,0.7 -0.4,1.5 -0.5,2.3 -0.1,1.6 0.1,3.2 0.5,4.7 0.8,3.3 2.6,6.4 5.5,8.7 1.7,-1.8 3,-4.1 3.9,-6.3 0.8,-2.1 1.3,-4.6 1,-7 z"
           id="path25"
           inkscape:connector-curvature="0"
           style="fill:none" /><path
           class="noFillSVG"
           d="m 588.7,729.2 c -4.2,0.3 -5.9,4.2 -4.8,8.1 0.9,3.1 3.8,5.4 6.9,5.8 3.9,0.9 8.3,0.3 12.1,-0.9 l 0.2,-0.1 c 0.9,-0.3 -4.6,-8.8 -5.3,-9.4 -2.4,-2.5 -5.5,-3.7 -9.1,-3.5 z"
           id="path27"
           inkscape:connector-curvature="0"
           style="fill:none" /><path
           class="noFillSVG"
           d="m 574.4,769.3 c -1.8,-0.5 -3.7,-1.4 -5.5,-1.5 -1.2,-0.1 -2.5,0.3 -3.2,1.2 -1.8,2.1 -1.9,6.2 -0.7,8.5 1.6,3.1 4.9,4 8.1,4.4 3.4,0.4 6.9,-0.1 10.2,-1.3 -1,-2.2 -2.2,-4.3 -3.6,-6.3 -1.5,-1.8 -3.2,-3.8 -5.3,-5 z"
           id="path29"
           inkscape:connector-curvature="0"
           style="fill:none" /><path
           class="noFillSVG"
           d="m 551.7,808.2 c -2.1,0.2 -3.6,1.2 -4.4,2.7 -0.4,0.7 -0.6,1.6 -0.7,2.5 0,0.4 0,1 0.1,1.4 0.1,0.4 0.2,0.8 0.4,1.2 1.1,2.6 3.7,5.1 6.8,5.8 1.9,0.6 3.9,0.8 6,0.6 2.1,-0.2 4.2,-0.7 6.1,-1.3 l 0.2,-0.1 c 0.9,-0.3 -4.6,-8.8 -5.3,-9.4 -2.5,-2.5 -5.7,-3.7 -9.2,-3.4 z"
           id="path31"
           inkscape:connector-curvature="0"
           style="fill:none" /><path
           class="noFillSVG"
           d="m 610.9,686.8 c -1.2,-0.4 -2.7,-0.3 -4,0.6 -3,2.1 -4.7,7.3 -3.8,10.1 1,3.7 4.3,4.6 7.5,5.4 1.7,0.4 3.4,0.6 5.1,0.6 1.7,0.1 3.4,0 5,-0.1 -0.5,-2.2 -1.2,-4.5 -1.9,-6.8 -0.7,-2.2 -1.6,-4.7 -3.1,-6.6 -1.5,-1.1 -2.9,-2.6 -4.8,-3.2 z"
           id="path33"
           inkscape:connector-curvature="0"
           style="fill:none" /><path
           class="noFillSVG"
           d="m 319.1,676.2 c -2.4,-3.5 -6.6,-3 -9.4,-0.1 -2.2,2.3 -2.8,6 -1.5,8.9 1.2,3.8 3.9,7.4 6.9,10 l 0.2,0.1 c 0.7,0.6 5.3,-8.4 5.5,-9.3 0.9,-3.3 0.3,-6.6 -1.7,-9.6 z"
           id="path35"
           inkscape:connector-curvature="0"
           style="fill:none" /><path
           class="noFillSVG"
           d="m 835.2,630.8 c -0.4,-0.3 -0.9,-0.6 -1.4,-0.9 -0.7,1.9 -1.8,3.7 -3.1,5.3 -2.4,2.6 -6.1,4.6 -9.9,5.3 -3.8,0.7 -7.6,0.3 -10.2,-1.2 -2.3,-1.3 -2.5,-3 -1.5,-5.2 0.9,-2.1 2.9,-4.8 5.3,-6.6 2.4,-1.7 5.3,-2.9 8.3,-3.1 1.5,-0.1 3.1,-0.1 4.7,0.2 1.6,0.3 3.2,0.8 4.8,1.4 l 0.1,-0.4 c 0.8,-4.1 -0.1,-8.5 -1.7,-12.6 -1.2,-3.4 -3,-6.7 -4.9,-9.8 -2.8,-3.6 -4.4,-7.9 -8.5,-10.1 -1.7,-0.9 -3.8,-1.7 -6,-2.4 -0.5,2.4 -1.4,4.9 -2.6,7.2 -3.1,6 -10.4,12.7 -17.5,8.3 -6.1,-3.7 -4.1,-12.4 0.9,-16 4.7,-3.4 11.2,-3.7 17.1,-2.5 0.7,-6.5 -0.7,-13.4 -4.3,-18.9 -4.2,-6.6 -11.1,-11.1 -18.6,-13 -0.5,-0.1 -1,-0.2 -1.5,-0.3 -0.3,1.9 -0.8,3.8 -1.5,5.6 -2.6,6.3 -9.9,13.9 -17.5,10.7 -6.6,-2.9 -5.3,-11.5 -0.6,-15.5 4.6,-3.8 11.3,-4.6 17.6,-3.7 0,-0.1 0,-0.2 0,-0.3 0.3,-7.5 -2.8,-14.4 -6.7,-20.6 -2.8,-3.6 -4.4,-7.9 -8.5,-10.1 -1.7,-0.9 -3.8,-1.7 -6,-2.4 -0.5,2.4 -1.4,4.9 -2.6,7.2 -3.1,6 -10.4,12.7 -17.5,8.3 -1.5,-0.9 -2.5,-2.2 -3.1,-3.6 -0.3,-0.7 -0.5,-1.4 -0.6,-2.2 -0.1,-0.8 -0.3,-1.9 -0.2,-2.8 0,-3.7 2.1,-6.9 4.8,-8.4 2.6,-1.4 5.5,-1.9 8.4,-2.1 3,-0.2 5.8,-0.2 8.8,0.4 0.1,-0.8 0.2,-1.6 0.2,-2.5 0,-0.8 0.2,-1.4 0.3,-2.1 0.1,-1.3 0.3,-2.6 0.4,-3.9 0,-1.2 0.1,-2.4 0,-3.5 0,-1.1 -0.2,-2.2 -0.4,-3.2 -0.5,-2.5 -1.6,-4.8 -3,-7.2 -1.4,-2.4 -3.3,-5.1 -5.3,-7.9 -0.3,-0.4 -0.6,-0.7 -0.9,-1.1 -1.5,0.9 -3.2,1.7 -5,2.5 -3,1.3 -7.2,2.6 -11,2.5 -3.9,-0.1 -7.5,-1.8 -9,-7 -0.6,-2.2 -0.5,-4.5 0.2,-6.4 0.6,-2 1.8,-3.6 3.2,-4.9 1.4,-1.3 3.1,-2.1 4.7,-2.5 1.7,-0.4 3.3,-0.3 4.7,0.2 2.8,1 5.1,3 7.2,5.3 2,2.3 3.9,4.9 5.6,7.3 l 0.3,-0.1 c 3,-1.7 5.2,-3.5 7.4,-5.2 0.5,-0.5 1.1,-0.9 1.6,-1.3 0.5,-0.5 0.9,-0.8 1.6,-1.6 1.2,-1.3 2.4,-2.8 3.5,-4.2 2.4,-3.9 5.9,-6.8 6.5,-11.5 0.2,-1.9 0.3,-4.1 0.1,-6.5 -2.5,0.4 -5,0.4 -7.7,0.1 -6.7,-0.8 -15.5,-5.4 -13.9,-13.6 1.4,-7 10.3,-8.1 15.4,-4.7 4.9,3.2 7.4,9.2 8.3,15.2 6.4,-1.6 12.3,-5.3 16.3,-10.5 4.7,-6.3 6.6,-14.3 5.7,-22 -0.1,-0.5 -0.2,-1 -0.2,-1.5 -1.9,0.4 -3.8,0.6 -5.8,0.5 -6.8,-0.2 -16.5,-4.5 -16.1,-12.8 0.4,-7.2 9,-9 14.3,-6 5.2,2.9 8.2,9 9.6,15.2 0.1,0 0.2,-0.1 0.3,-0.1 7.1,-2.3 12.6,-7.6 17,-13.4 2.4,-3.9 5.9,-6.8 6.5,-11.5 0.2,-1.9 0.3,-4.1 0.1,-6.5 -2.5,0.4 -5,0.4 -7.7,0.1 -6.7,-0.8 -15.5,-5.4 -13.9,-13.6 0.7,-3.5 3.3,-5.5 6.3,-6.3 1.5,-0.4 3.1,-0.4 4.7,-0.1 1.5,0.3 3,1 4.3,1.8 5,3.1 7.4,9.2 8.4,15.1 1.6,-0.4 3.2,-0.9 4.7,-1.6 1.5,-0.7 2.9,-1.2 4.6,-2.7 3.3,-2.6 5.9,-6.2 7.7,-10.2 2.1,-4.9 2.7,-10.3 2,-15.3 -0.8,-4.9 -2.8,-9.3 -5.7,-12.5 -0.4,-0.4 -0.8,-0.8 -1.2,-1.2 -1.2,1.8 -2.5,3.3 -4.2,4.5 -2.8,2.1 -6.9,3.3 -10.8,3.2 -3.8,-0.1 -7.5,-1.2 -9.8,-3.2 -2,-1.7 -1.8,-3.4 -0.4,-5.4 1.3,-1.9 3.8,-4.1 6.6,-5.4 2.7,-1.2 5.7,-1.7 8.8,-1.4 1.5,0.2 3.1,0.6 4.6,1.2 1.5,0.6 2.9,1.4 4.4,2.4 l 0.1,-0.3 c 3.1,-7.8 0.8,-17.8 -4.7,-25.6 -1.9,-2.3 -3.6,-4.6 -5.6,-6.7 -1,-1 -2.1,-1.9 -3.3,-2.7 -1.2,-0.8 -2.5,-1.3 -3.8,-1.7 -2.3,-0.6 -4.9,-0.9 -7.5,-0.7 0.9,2.6 1.1,5.3 0.8,8 -0.4,3.4 -2.2,7.1 -4.6,9.8 -2.4,2.7 -5.4,4.4 -8.4,4.5 -2.5,0.1 -3.7,-1.4 -4.4,-4 -0.7,-2.4 -1,-5.9 -0.2,-8.9 0.8,-2.8 2.2,-5.3 4.5,-7.3 2.2,-2 5.2,-3.5 8.4,-4.2 -0.8,-1.7 -2,-3.1 -3.3,-4.6 -1.4,-1.4 -2.9,-2.8 -4.7,-3.9 -3.5,-2.3 -7.9,-3.7 -12.3,-4.1 -1.3,-0.1 -2.6,-0.1 -3.9,-0.1 -1.3,0.1 -2.6,0.3 -3.8,0.5 -1.4,0.2 -2.2,0.5 -3.1,0.8 -0.9,0.3 -1.8,0.7 -2.7,1.1 -3.5,1.7 -6.7,4 -9.4,6.8 -0.4,0.4 -0.7,0.8 -1,1.2 1.5,1.2 2.9,2.6 4.1,4.2 4.2,5.4 7.1,15.6 0.5,20.5 -5.8,4.3 -12.7,-1.1 -13.7,-7.2 -1,-5.9 1.7,-12.1 5.6,-17.1 l -0.3,-0.2 c -6.4,-4 -13.9,-4.8 -21.2,-4.5 -4.5,0.7 -9.1,-0.2 -13,2.3 -1.6,1 -3.4,2.4 -5.1,4 1.9,1.7 3.5,3.6 5,5.8 3.7,5.7 5.8,15.3 -1.6,19.3 -6.3,3.4 -12.8,-2.7 -13.4,-8.8 -0.6,-5.8 2.4,-11.5 6.4,-16.1 -5.3,-3.9 -12,-6.1 -18.5,-5.8 -7.8,0.4 -15.2,4 -20.6,9.7 -0.4,0.4 -0.7,0.8 -1,1.2 1.5,1.2 2.9,2.6 4.1,4.2 4.2,5.4 7.1,15.6 0.5,20.5 -5.8,4.3 -12.7,-1.1 -13.7,-7.2 -1,-5.9 1.7,-12.1 5.6,-17.1 l -0.3,-0.2 c -3.2,-2 -6.6,-3.2 -10.2,-3.9 -1.8,-0.3 -3.6,-0.5 -5.5,-0.6 l -0.7,0 c -0.2,0 -0.3,0 -0.5,-0.1 l -1,-0.1 c -0.6,0 -1.3,-0.1 -1.9,-0.2 -1.6,0.1 -3.2,-0.3 -4.7,-0.5 -0.7,-0.2 -1.5,-0.2 -2.3,-0.2 -0.8,0 -1.6,0.1 -2.5,0.5 -1.4,0.4 -3.2,1.2 -5.1,1.9 0.5,2.3 1,4.6 1.4,7.2 0.4,3.4 0.6,7.4 -0.6,10.8 -0.6,1.7 -1.6,3.2 -3.2,4.3 -1.5,1 -3.6,1.7 -6.3,1.5 -1.2,-0.1 -2.3,-0.4 -3.3,-0.7 -1,-0.4 -1.9,-0.9 -2.7,-1.5 -1.7,-1.2 -2.8,-2.9 -3.5,-4.5 -1.5,-3.4 -0.9,-7.1 0.9,-9.6 1.7,-2.3 4.2,-4 6.8,-5.4 1.3,-0.6 2.6,-1.3 4,-1.9 1.3,-0.5 2.6,-1.1 3.9,-1.6 -0.7,-2.8 -1.5,-5.5 -2.4,-7.7 -0.8,-2.4 -1.8,-4.3 -3,-6 -1.5,-2 -3.3,-3.7 -5.7,-5.4 -2.7,-2.6 -6,-4.9 -9.6,-6.4 -0.5,-0.2 -1,-0.4 -1.4,-0.6 -0.6,1.8 -1.4,3.6 -2.5,5.3 -3.6,5.8 -12.2,12 -19.1,7.5 -6,-3.9 -3.3,-12.3 2,-15.4 5.1,-3 11.9,-2.6 17.9,-0.7 l 0.1,-0.3 c 1.5,-7.3 -0.3,-14.7 -3.1,-21.5 -2.2,-4 -3,-8.6 -6.7,-11.4 -1.5,-1.2 -3.4,-2.3 -5.5,-3.3 -0.9,2.3 -2.2,4.6 -3.8,6.7 -4.1,5.4 -12.4,10.7 -18.7,5.2 -5.4,-4.7 -1.9,-12.9 3.6,-15.7 5.2,-2.6 11.7,-1.8 17.3,0.4 1.8,-6.3 1.6,-13.3 -1,-19.3 -3.1,-7.2 -9.1,-12.9 -16.2,-16 -0.5,-0.2 -1,-0.4 -1.4,-0.6 -0.6,1.8 -1.4,3.6 -2.5,5.3 -3.6,5.8 -12.2,12 -19.1,7.5 -6,-3.9 -3.3,-12.3 2,-15.4 5.1,-3 11.9,-2.6 17.9,-0.7 0,-0.1 0.1,-0.2 0.1,-0.3 1.5,-7.3 -0.3,-14.7 -3.1,-21.5 -0.7,-1.3 -1.4,-2.6 -2,-3.9 -0.7,-1.3 -1.4,-2.5 -2.1,-3.7 -1.6,-2.4 -3.5,-4.5 -6,-5.8 -1,-0.6 -2.2,-1 -3.4,-1.4 -1.2,-0.4 -2.5,-0.7 -3.8,-0.9 0.3,2.7 0,5.5 -0.8,7.9 -1.1,3.3 -3.6,6.5 -6.5,8.6 -3,2.1 -6.2,3.2 -9.1,2.7 -2.5,-0.3 -3.3,-2.2 -3.5,-4.8 -0.2,-2.6 0.2,-5.9 1.6,-8.7 1.3,-2.6 3.3,-4.8 5.9,-6.3 1.3,-0.8 2.7,-1.3 4.3,-1.7 1.6,-0.4 3.2,-0.6 4.8,-0.6 -1,-3.6 -3.1,-7 -6.1,-10 -3,-2.9 -6.9,-5.2 -11.2,-6.5 -5.1,-1.5 -10.5,-1.5 -15.2,-0.2 -4.8,1.3 -8.9,3.7 -11.8,6.9 -0.4,0.4 -0.7,0.9 -1.1,1.3 1.8,0.9 3.5,2.2 4.9,3.7 2.4,2.6 3.9,6.5 4.2,10.4 0.3,3.8 -0.5,7.6 -2.3,10.1 -1.6,2.1 -3.3,2.1 -5.4,0.9 -1,-0.6 -2.1,-1.4 -3.2,-2.5 -1,-1 -2,-2.2 -2.8,-3.6 -1.5,-2.6 -2.3,-5.5 -2.2,-8.6 0.1,-3 1,-6.3 2.7,-9.2 l -0.3,-0.1 c -8,-2.4 -17.9,0.9 -25.1,7.3 -1.1,1.1 -2.1,2.1 -3.1,3.1 -1,1 -2,2.1 -2.9,3.2 -1.8,2.3 -3.2,4.7 -3.6,7.5 -0.2,1.1 -0.3,2.4 -0.2,3.6 0,0.6 0,1.3 0.1,1.9 0,0.6 0.1,1.3 0.3,1.8 0.6,-0.2 1.2,-0.4 1.9,-0.6 0.6,-0.2 1.3,-0.4 2,-0.5 1.3,-0.3 2.6,-0.4 4,-0.4 3.5,0 7.3,1.3 10.3,3.5 3,2.2 5,4.9 5.4,7.9 0,0.2 0,0.3 0,0.5 0,0.2 0,0.4 -0.1,0.6 -0.1,0.4 -0.2,0.8 -0.3,1.2 -0.3,0.7 -0.6,1.4 -1.1,2 -0.9,1.2 -2.2,2.1 -3.6,2.7 -2.9,1.2 -6.4,1.2 -9.2,0 -5.3,-2.4 -8.8,-7.8 -10.7,-13.6 -6,2.6 -11.3,7.3 -14.2,13.1 -3.6,7 -4.1,15.2 -1.9,22.6 0.1,0.5 0.3,1 0.5,1.5 1.8,-0.7 3.7,-1.2 5.7,-1.5 6.8,-0.9 17,1.6 18,9.9 0.8,7.2 -7.3,10.4 -13.1,8.3 -5.6,-2 -9.6,-7.5 -12,-13.4 l -0.3,0.1 c -6.6,3.5 -11.1,9.6 -14.5,16.1 -1.7,4.2 -4.7,7.8 -4.5,12.4 0.1,1.9 0.4,4.1 1,6.4 2.4,-0.8 4.9,-1.3 7.5,-1.4 6.8,-0.3 16.2,2.7 15.9,11 -0.2,7.2 -8.7,9.7 -14.4,7.2 -5.3,-2.4 -8.8,-7.8 -10.7,-13.6 -6,2.6 -11.3,7.3 -14.2,13.1 -1.8,3.5 -2.8,7.3 -3.1,11.1 -0.2,2.1 0,3.3 0.4,5 0.2,1.5 0.6,3.2 1,4.9 0.1,0.5 0.2,0.9 0.3,1.4 0.9,-0.1 1.8,-0.1 2.7,-0.2 0.9,-0.1 1.9,-0.1 2.8,-0.1 3.4,0.1 7.6,0.6 11.1,2.2 3.4,1.7 6.2,4.8 5.4,10.1 -0.4,2.3 -1.4,4.3 -2.8,5.8 -1.4,1.5 -3.1,2.6 -5,3.2 -3.6,1.2 -7.3,0.3 -9.6,-1.8 -2.2,-2 -3.5,-4.9 -4.4,-7.8 -0.5,-1.5 -0.9,-3 -1.2,-4.5 -0.3,-1.5 -0.6,-3 -1,-4.4 l -0.3,0 c -1.6,0.2 -3.3,0.4 -4.7,0.8 -1.5,0.2 -2.8,0.7 -4.2,1 -2.6,0.8 -5.1,1.7 -7.5,2.5 -0.7,0.4 -1.5,0.6 -2.2,0.9 -0.7,0.3 -1.5,0.4 -2.3,0.6 -0.4,0.1 -0.7,0.2 -1.1,0.4 -0.4,0.1 -0.7,0.2 -1.1,0.4 -0.7,0.3 -1.4,0.8 -2.1,1.4 -0.6,0.5 -1.2,1.1 -1.8,1.8 -0.7,0.6 -1.3,1.3 -2.1,2.1 1.4,1.8 2.8,3.9 4.2,6 1.8,2.8 3.6,6.6 3.9,10.2 0.1,1.8 -0.1,3.6 -1.1,5.2 -1,1.6 -2.6,3.1 -5.2,4 -2.2,0.8 -4.4,0.8 -6.4,0.4 -1.1,-0.2 -1.6,-0.5 -2.3,-1 -0.6,-0.4 -1.2,-0.9 -1.8,-1.5 -2.1,-2.3 -3.4,-5.6 -3.2,-8.7 0.3,-5.8 4.4,-11 8.9,-14.8 -4.3,-4.7 -10.7,-8 -17.2,-8.8 -7.8,-0.9 -15.7,1.4 -21.9,6 -0.4,0.3 -0.8,0.6 -1.2,1 1.3,1.4 2.4,3 3.4,4.8 3.2,6 4.4,16.6 -3,20.3 -6.4,3.3 -12.3,-3.3 -12.3,-9.4 0,-6 3.7,-11.6 8.4,-15.9 l -0.2,-0.2 c -5.6,-5 -12.9,-7.1 -20.1,-8 -4.6,-0.1 -8.9,-1.7 -13.2,0.1 -1.8,0.8 -3.7,1.8 -5.7,3.1 1.5,2 2.9,4.2 3.9,6.6 2.7,6.2 3.1,16.1 -4.8,18.8 -6.8,2.3 -12.1,-4.8 -11.7,-11 0.4,-5.8 4.3,-11 9,-14.8 -4.5,-4.7 -10.8,-8 -17.3,-8.8 -3.9,-0.5 -7.8,-0.1 -11.5,0.9 -1.9,0.5 -3.7,1.2 -5.4,2.1 -0.9,0.5 -1.8,0.9 -2.8,1.4 -1,0.5 -1.9,1.1 -2.8,1.7 -0.5,0.3 -0.9,0.7 -1.3,1.1 1.6,1.3 3,2.9 4,4.6 1.7,3 2.7,7.1 2.5,11 -0.1,1.9 -0.6,3.8 -1.4,5.4 -0.4,0.8 -1,1.5 -1.7,2.2 -0.6,0.7 -1.1,1.3 -1.7,1.8 -2.1,1.8 -3.7,1.4 -5.5,-0.2 -1.7,-1.5 -3.6,-4.3 -4.6,-7.1 -0.9,-2.8 -1.1,-5.9 -0.4,-8.9 0.4,-1.5 0.9,-3 1.7,-4.4 0.8,-1.4 1.7,-2.8 2.9,-4.1 l -0.3,-0.2 c -3.7,-2 -8.1,-2.7 -12.7,-2.3 -4.6,0.4 -9.2,2 -13.4,4.3 -2.5,1.6 -5,3.2 -7.2,5 -2.2,1.8 -4.1,4 -5,6.6 -0.4,1.1 -0.7,2.3 -1,3.5 -0.3,1.2 -0.4,2.5 -0.4,3.8 2.6,-0.6 5.4,-0.5 8,0 3.4,0.7 6.9,2.8 9.3,5.5 2.4,2.7 3.9,5.8 3.7,8.8 -0.1,2.6 -1.9,3.6 -4.5,4.1 -2.5,0.5 -6,0.4 -8.9,-0.7 -2.7,-1.1 -5,-2.8 -6.8,-5.3 -0.9,-1.2 -1.6,-2.6 -2.2,-4.1 -0.6,-1.5 -1,-3.1 -1.2,-4.7 -3.4,1.3 -6.6,3.8 -9.3,7 -2.7,3.2 -4.6,7.3 -5.5,11.7 -1.1,5.2 -0.6,10.7 1.2,15.3 1.8,4.7 4.7,8.5 8.2,11.1 0.4,0.3 0.9,0.6 1.4,0.9 0.7,-1.9 1.8,-3.7 3.1,-5.3 2.4,-2.6 6.1,-4.6 9.9,-5.3 3.8,-0.7 7.6,-0.3 10.2,1.2 2.3,1.3 2.5,3 1.5,5.2 -0.9,2.1 -2.9,4.8 -5.3,6.6 -2.4,1.7 -5.3,2.9 -8.3,3.1 -1.5,0.1 -3.1,0.1 -4.7,-0.2 -1.6,-0.3 -3.2,-0.8 -4.8,-1.4 l -0.1,0.4 c -0.8,4.1 0.1,8.5 1.7,12.6 1.2,3.4 3,6.7 4.9,9.8 2.8,3.6 4.4,7.9 8.5,10.1 1.7,0.9 3.8,1.7 6,2.4 0.5,-2.4 1.4,-4.9 2.6,-7.2 3.1,-6 10.4,-12.7 17.5,-8.3 6.1,3.7 4.1,12.4 -0.9,16 -4.7,3.4 -11.2,3.7 -17.1,2.5 -0.7,6.5 0.7,13.4 4.3,18.9 4.2,6.6 11.1,11.1 18.6,13 0.5,0.1 1,0.2 1.5,0.3 0.3,-1.9 0.8,-3.8 1.5,-5.6 2.6,-6.3 9.9,-13.9 17.5,-10.7 6.6,2.8 5.3,11.5 0.6,15.5 -4.6,3.8 -11.3,4.6 -17.6,3.7 0,0.1 0,0.2 0,0.3 -0.3,7.5 2.8,14.4 6.7,20.6 2.8,3.6 4.4,7.9 8.5,10.1 1.7,0.9 3.8,1.7 6,2.4 0.5,-2.4 1.4,-4.9 2.6,-7.2 3.1,-6 10.4,-12.7 17.5,-8.3 1.5,0.9 2.5,2.2 3.1,3.6 0.3,0.7 0.5,1.4 0.6,2.2 0.1,0.8 0.3,1.9 0.2,2.8 0,3.7 -2.1,6.9 -4.8,8.4 -2.6,1.4 -5.5,1.9 -8.4,2.1 -3,0.2 -5.8,0.2 -8.8,-0.4 -0.1,0.8 -0.2,1.6 -0.2,2.5 0,0.8 -0.2,1.4 -0.3,2.1 -0.1,1.3 -0.3,2.6 -0.4,3.9 0,1.2 -0.1,2.4 0,3.5 0,1.1 0.2,2.2 0.4,3.2 0.5,2.5 1.6,4.8 3,7.2 1.4,2.4 3.3,5.1 5.3,7.9 0.3,0.4 0.6,0.7 0.9,1.1 1.5,-0.9 3.2,-1.7 5,-2.5 3,-1.3 7.2,-2.6 11,-2.5 3.9,0.1 7.5,1.8 9,7 0.6,2.2 0.5,4.5 -0.2,6.4 -0.6,2 -1.8,3.7 -3.2,4.9 -1.4,1.3 -3.1,2.1 -4.7,2.5 -1.7,0.4 -3.3,0.3 -4.7,-0.2 -2.8,-1 -5.1,-3 -7.2,-5.3 -2,-2.3 -3.9,-4.9 -5.6,-7.3 l -0.3,0.1 c -3,1.7 -5.2,3.5 -7.4,5.2 -0.5,0.5 -1.1,0.9 -1.6,1.3 -0.5,0.5 -0.9,0.8 -1.6,1.6 -1.2,1.4 -2.4,2.8 -3.5,4.2 -2.4,3.9 -5.9,6.8 -6.5,11.5 -0.2,1.9 -0.3,4.1 -0.1,6.5 2.5,-0.4 5,-0.4 7.7,-0.1 6.7,0.8 15.5,5.4 13.9,13.6 -1.4,7 -10.3,8.1 -15.4,4.7 -4.9,-3.2 -7.4,-9.2 -8.3,-15.2 -6.4,1.5 -12.3,5.3 -16.3,10.5 -4.7,6.3 -6.6,14.3 -5.7,22 0.1,0.5 0.2,1 0.2,1.5 1.9,-0.4 3.8,-0.6 5.8,-0.5 6.8,0.2 16.5,4.5 16.1,12.8 -0.4,7.2 -9,9 -14.3,6 -5.2,-2.9 -8.2,-9 -9.6,-15.2 -0.1,0 -0.2,0.1 -0.3,0.1 -7.1,2.3 -12.6,7.6 -17,13.4 -2.4,3.9 -5.9,6.8 -6.5,11.5 -0.2,1.9 -0.3,4.1 -0.1,6.5 2.5,-0.4 5,-0.4 7.7,-0.1 6.7,0.8 15.5,5.4 13.9,13.6 -0.7,3.5 -3.3,5.5 -6.3,6.3 -1.5,0.4 -3.1,0.4 -4.7,0.1 -1.5,-0.3 -3,-1 -4.3,-1.8 -5,-3.1 -7.4,-9.2 -8.4,-15.1 -1.6,0.4 -3.2,0.9 -4.7,1.6 -1.5,0.7 -2.9,1.2 -4.6,2.7 -3.3,2.6 -5.9,6.2 -7.7,10.2 -2.1,4.9 -2.7,10.4 -2,15.3 0.8,4.9 2.8,9.3 5.7,12.5 0.4,0.4 0.8,0.8 1.2,1.2 1.2,-1.8 2.5,-3.3 4.2,-4.5 2.8,-2.1 6.9,-3.3 10.8,-3.2 3.8,0.1 7.5,1.2 9.8,3.2 2,1.7 1.8,3.4 0.4,5.4 -1.3,1.9 -3.8,4.1 -6.6,5.4 -2.7,1.2 -5.7,1.7 -8.8,1.4 -1.5,-0.2 -3.1,-0.6 -4.6,-1.2 -1.5,-0.6 -2.9,-1.4 -4.4,-2.4 l -0.1,0.3 c -3.1,7.8 -0.8,17.8 4.7,25.6 1.9,2.3 3.6,4.6 5.6,6.7 1,1 2.1,1.9 3.3,2.7 1.2,0.8 2.5,1.3 3.8,1.7 2.3,0.6 4.9,0.9 7.5,0.7 -0.9,-2.6 -1.1,-5.3 -0.8,-8 0.4,-3.4 2.2,-7.1 4.6,-9.8 2.4,-2.7 5.4,-4.4 8.4,-4.5 2.5,-0.1 3.7,1.4 4.4,4 0.7,2.4 1,5.9 0.2,8.9 -0.8,2.8 -2.2,5.3 -4.5,7.3 -2.2,2 -5.2,3.5 -8.4,4.2 0.8,1.7 2,3.1 3.3,4.6 1.4,1.4 2.9,2.8 4.7,3.9 3.5,2.3 7.9,3.7 12.3,4.1 1.3,0.1 2.6,0.1 3.9,0.1 1.3,-0.1 2.6,-0.3 3.8,-0.5 1.4,-0.2 2.2,-0.5 3.1,-0.8 0.9,-0.3 1.8,-0.7 2.7,-1.1 3.5,-1.7 6.7,-4 9.4,-6.8 0.4,-0.4 0.7,-0.8 1,-1.2 -1.5,-1.2 -2.9,-2.6 -4.1,-4.2 -4.2,-5.4 -7.1,-15.6 -0.5,-20.5 5.8,-4.3 12.7,1.1 13.7,7.2 1,5.9 -1.7,12.1 -5.6,17.1 l 0.3,0.2 c 6.4,4 13.9,4.8 21.2,4.5 4.5,-0.7 9.1,0.2 13,-2.3 1.6,-1 3.4,-2.4 5.1,-4 -1.9,-1.7 -3.5,-3.6 -5,-5.8 -3.7,-5.7 -5.8,-15.3 1.6,-19.3 6.3,-3.4 12.8,2.7 13.4,8.8 0.6,5.8 -2.4,11.5 -6.4,16.1 5.3,3.9 12,6.1 18.5,5.8 7.8,-0.4 15.2,-4 20.6,-9.7 0.4,-0.4 0.7,-0.8 1,-1.2 -1.5,-1.2 -2.9,-2.6 -4.1,-4.2 -4.2,-5.4 -7.1,-15.6 -0.5,-20.5 5.8,-4.3 12.7,1.1 13.7,7.2 1,5.9 -1.7,12.1 -5.6,17.1 l 0.3,0.2 c 3.2,2 6.6,3.2 10.2,3.9 1.8,0.3 3.6,0.5 5.5,0.6 l 0.7,0 c 0.2,0 0.3,0 0.5,0.1 l 1,0.1 c 0.6,0 1.3,0.1 1.9,0.2 1.6,-0.1 3.2,0.3 4.7,0.5 0.7,0.2 1.5,0.2 2.3,0.2 0.8,0 1.6,-0.1 2.5,-0.5 1.4,-0.4 3.2,-1.2 5.1,-1.9 -0.5,-2.3 -1,-4.6 -1.4,-7.2 -0.4,-3.4 -0.6,-7.4 0.6,-10.8 0.6,-1.7 1.6,-3.2 3.2,-4.3 1.5,-1 3.6,-1.7 6.3,-1.5 1.2,0.1 2.3,0.4 3.3,0.7 1,0.4 1.9,0.9 2.7,1.5 1.7,1.2 2.8,2.9 3.5,4.5 1.5,3.4 0.9,7.1 -0.9,9.6 -1.7,2.3 -4.2,4 -6.8,5.4 -1.3,0.6 -2.6,1.3 -4,1.9 -1.3,0.5 -2.6,1.1 -3.9,1.6 0.7,2.8 1.5,5.5 2.4,7.7 0.8,2.4 1.8,4.3 3,6 1.5,2 3.3,3.7 5.7,5.4 2.7,2.6 6,4.9 9.6,6.4 0.5,0.2 1,0.4 1.4,0.6 0.6,-1.8 1.4,-3.6 2.5,-5.3 3.6,-5.8 12.2,-12 19.1,-7.5 6,3.9 3.3,12.3 -2,15.4 -5.1,3 -11.9,2.6 -17.9,0.7 l -0.1,0.3 c -1.5,7.3 0.3,14.7 3.1,21.5 2.2,4 3,8.6 6.7,11.4 1.5,1.2 3.4,2.3 5.5,3.3 0.9,-2.3 2.2,-4.6 3.8,-6.7 4.1,-5.4 12.4,-10.7 18.7,-5.2 5.4,4.7 1.9,12.9 -3.6,15.7 -5.2,2.6 -11.7,1.8 -17.3,-0.4 -1.8,6.3 -1.6,13.3 1,19.3 3.1,7.2 9.1,12.9 16.2,16 0.5,0.2 1,0.4 1.4,0.6 0.6,-1.8 1.4,-3.6 2.5,-5.3 3.6,-5.8 12.2,-12 19.1,-7.5 6,3.9 3.3,12.3 -2,15.4 -5.1,3 -11.9,2.6 -17.9,0.7 0,0.1 -0.1,0.2 -0.1,0.3 -1.5,7.3 0.3,14.7 3.1,21.5 0.7,1.3 1.4,2.6 2,3.9 0.7,1.3 1.4,2.5 2.1,3.7 1.6,2.4 3.5,4.5 6,5.8 1,0.6 2.2,1 3.4,1.4 1.2,0.4 2.5,0.7 3.8,0.9 -0.3,-2.7 0,-5.5 0.8,-7.9 1.1,-3.3 3.6,-6.5 6.5,-8.6 3,-2.1 6.2,-3.2 9.1,-2.7 2.5,0.3 3.3,2.2 3.5,4.8 0.2,2.6 -0.2,5.9 -1.6,8.7 -1.3,2.6 -3.3,4.8 -5.9,6.3 -1.3,0.8 -2.7,1.3 -4.3,1.7 -1.6,0.4 -3.2,0.6 -4.8,0.6 1,3.6 3.1,7 6.1,10 3,2.9 6.9,5.2 11.2,6.5 5.1,1.5 10.5,1.5 15.2,0.2 4.8,-1.3 8.9,-3.7 11.8,-6.9 0.4,-0.4 0.7,-0.9 1.1,-1.3 -1.8,-0.9 -3.5,-2.2 -4.9,-3.7 -2.4,-2.6 -3.9,-6.5 -4.2,-10.4 -0.3,-3.8 0.5,-7.6 2.3,-10.1 1.6,-2.1 3.3,-2.1 5.4,-0.9 1,0.6 2.1,1.4 3.2,2.5 1,1 2,2.2 2.8,3.6 1.5,2.6 2.3,5.5 2.2,8.6 -0.1,3 -1,6.3 -2.7,9.2 l 0.3,0.1 c 8,2.4 17.9,-0.9 25.1,-7.3 1.1,-1.1 2.1,-2.1 3.1,-3.1 1,-1 2,-2.1 2.9,-3.2 1.8,-2.3 3.2,-4.7 3.6,-7.5 0.2,-1.1 0.3,-2.4 0.2,-3.6 0,-0.6 0,-1.3 -0.1,-1.9 0,-0.6 -0.1,-1.3 -0.3,-1.8 -0.6,0.2 -1.2,0.4 -1.9,0.6 -0.6,0.2 -1.3,0.4 -2,0.5 -1.3,0.3 -2.6,0.4 -4,0.4 -3.5,0 -7.3,-1.3 -10.3,-3.5 -3,-2.2 -5,-4.9 -5.4,-7.9 0,-0.2 0,-0.3 0,-0.5 0,-0.2 0,-0.4 0.1,-0.6 0.1,-0.4 0.2,-0.8 0.3,-1.2 0.3,-0.7 0.6,-1.4 1.1,-2 0.9,-1.2 2.2,-2.1 3.6,-2.7 2.9,-1.2 6.4,-1.2 9.2,0 5.3,2.4 8.8,7.8 10.7,13.6 6,-2.6 11.3,-7.3 14.2,-13.1 3.6,-7 4.1,-15.2 1.9,-22.6 -0.1,-0.5 -0.3,-1 -0.5,-1.5 -1.8,0.7 -3.7,1.2 -5.7,1.5 -6.8,0.9 -17,-1.6 -18,-9.9 -0.8,-7.2 7.3,-10.4 13.1,-8.3 5.6,2 9.6,7.5 12,13.3 l 0.3,-0.1 c 6.6,-3.5 11.1,-9.6 14.5,-16.1 1.7,-4.2 4.7,-7.8 4.5,-12.4 -0.1,-1.9 -0.4,-4.1 -1,-6.4 -2.4,0.8 -4.9,1.3 -7.5,1.4 -6.8,0.3 -16.2,-2.7 -15.9,-11 0.2,-7.2 8.7,-9.7 14.4,-7.2 5.3,2.4 8.8,7.8 10.7,13.6 6,-2.6 11.2,-7.3 14.2,-13.1 1.8,-3.5 2.8,-7.3 3.1,-11.1 0.2,-2.1 0,-3.3 -0.4,-5 -0.2,-1.5 -0.6,-3.2 -1,-4.9 -0.1,-0.5 -0.2,-0.9 -0.3,-1.4 -0.9,0.1 -1.8,0.1 -2.7,0.2 -0.9,0.1 -1.9,0.1 -2.8,0.1 -3.4,-0.1 -7.6,-0.6 -11.1,-2.2 -3.4,-1.7 -6.2,-4.8 -5.4,-10 0.4,-2.3 1.4,-4.3 2.8,-5.8 1.4,-1.5 3.1,-2.6 5,-3.2 3.6,-1.2 7.3,-0.3 9.6,1.8 2.2,2 3.5,4.9 4.4,7.8 0.5,1.5 0.9,3 1.2,4.5 0.3,1.5 0.6,3 1,4.4 l 0.3,0 c 1.6,-0.2 3.3,-0.4 4.7,-0.8 1.5,-0.2 2.8,-0.7 4.2,-1 2.6,-0.8 5.1,-1.7 7.5,-2.5 0.7,-0.4 1.5,-0.6 2.2,-0.9 0.7,-0.3 1.5,-0.4 2.3,-0.6 0.4,-0.1 0.7,-0.2 1.1,-0.4 0.4,-0.1 0.7,-0.2 1.1,-0.4 0.7,-0.3 1.4,-0.8 2.1,-1.4 0.6,-0.5 1.2,-1.1 1.8,-1.8 0.7,-0.6 1.3,-1.3 2.1,-2.1 -1.4,-1.8 -2.8,-3.9 -4.2,-6 -1.8,-2.8 -3.6,-6.6 -3.9,-10.2 -0.1,-1.8 0.1,-3.6 1.1,-5.2 1,-1.6 2.6,-3.1 5.2,-4 2.2,-0.8 4.4,-0.8 6.4,-0.4 1.1,0.2 1.6,0.5 2.3,1 0.6,0.4 1.2,0.9 1.8,1.5 2.1,2.3 3.4,5.6 3.2,8.7 -0.3,5.8 -4.4,11 -8.9,14.8 4.3,4.7 10.7,8 17.2,8.8 7.8,0.9 15.7,-1.4 21.9,-6 0.4,-0.3 0.8,-0.6 1.2,-1 -1.3,-1.4 -2.4,-3 -3.4,-4.8 -3.2,-6 -4.4,-16.6 3,-20.3 6.4,-3.3 12.3,3.3 12.3,9.4 0,6 -3.7,11.6 -8.4,15.9 l 0.2,0.2 c 5.6,5 12.9,7.1 20.1,8 4.6,0.1 8.9,1.7 13.2,-0.1 1.8,-0.8 3.7,-1.8 5.7,-3.1 -1.5,-2 -2.9,-4.2 -3.9,-6.6 -2.7,-6.2 -3.1,-16.1 4.8,-18.8 6.8,-2.3 12.1,4.8 11.7,11 -0.4,5.8 -4.3,11 -9,14.8 4.5,4.7 10.8,8 17.3,8.8 3.9,0.5 7.8,0.1 11.5,-0.9 1.9,-0.5 3.7,-1.2 5.4,-2.1 0.9,-0.5 1.8,-0.9 2.8,-1.4 1,-0.5 1.9,-1.1 2.8,-1.7 0.5,-0.3 0.9,-0.7 1.3,-1.1 -1.6,-1.3 -3,-2.9 -4,-4.6 -1.7,-3 -2.7,-7.1 -2.5,-11 0.1,-1.9 0.6,-3.8 1.4,-5.4 0.4,-0.8 1,-1.5 1.7,-2.2 0.6,-0.7 1.1,-1.3 1.7,-1.8 2.1,-1.8 3.7,-1.4 5.5,0.2 1.7,1.5 3.6,4.3 4.6,7.1 0.9,2.8 1.1,5.9 0.4,8.9 -0.4,1.5 -0.9,3 -1.7,4.4 -0.8,1.4 -1.7,2.8 -2.9,4.1 l 0.3,0.2 c 3.7,2 8.1,2.7 12.7,2.3 4.6,-0.4 9.2,-2 13.4,-4.3 2.5,-1.6 5,-3.2 7.2,-5 2.2,-1.8 4.1,-4 5,-6.6 0.4,-1.1 0.7,-2.3 1,-3.5 0.3,-1.2 0.4,-2.5 0.4,-3.8 -2.6,0.6 -5.4,0.5 -8,0 -3.4,-0.7 -6.9,-2.8 -9.3,-5.5 -2.4,-2.7 -3.9,-5.8 -3.7,-8.8 0.1,-2.6 1.9,-3.6 4.5,-4.1 2.5,-0.5 6,-0.4 8.9,0.7 2.7,1.1 5,2.8 6.8,5.2 0.9,1.2 1.6,2.6 2.2,4.1 0.6,1.5 1,3.1 1.2,4.7 3.4,-1.3 6.6,-3.8 9.3,-7 2.7,-3.2 4.6,-7.3 5.5,-11.7 1.1,-5.2 0.6,-10.6 -1.2,-15.3 -1.8,-4.6 -4.7,-8.5 -8.2,-11 z"
           id="path37"
           inkscape:connector-curvature="0"
           style="fill:none" /><path
           class="noFillSVG"
           d="m 823,666.5 c -2.5,-2.5 -5.7,-3.5 -9.1,-3.8 -4,-0.2 -5.2,2 -4.5,5.5 0.6,2.7 2.6,5.8 5.5,7 3.5,2 8,2.5 12.2,1.5 l 0.2,-0.1 c 0.5,-0.1 -0.3,-2.7 -1.3,-5.1 -1.2,-2.4 -2.7,-4.7 -3,-5 z"
           id="path39"
           inkscape:connector-curvature="0"
           style="fill:none" /><path
           class="noFillSVG"
           d="m 747.5,679.1 c -1.8,-3.9 -6,-4.1 -9.2,-1.7 -2.6,1.9 -3.8,5.4 -3,8.5 0.5,4 2.6,7.9 5.1,11.1 l 0.1,0.2 c 0.6,0.7 6.6,-7.4 7,-8.2 1.4,-3.3 1.5,-6.7 0,-9.9 z"
           id="path41"
           inkscape:connector-curvature="0"
           style="fill:none" /><path
           class="noFillSVG"
           d="m 668.8,309.7 c 0.4,1.8 0.6,3.9 1.5,5.5 0.6,1.1 1.5,2 2.7,2.2 2.7,0.5 6.3,-1.5 7.7,-3.7 1.8,-2.9 1,-6.2 -0.3,-9.2 -1.4,-3.2 -3.6,-6 -6.2,-8.1 -1.4,1.9 -2.7,4 -3.6,6.3 -1,2.1 -1.9,4.6 -1.8,7 z"
           id="path43"
           inkscape:connector-curvature="0"
           style="fill:none" /><path
           class="noFillSVG"
           d="m 625.8,297 c -2.8,2 -4.8,4.9 -4.6,8.6 0.1,4.6 5.4,7.2 10,6.1 3.6,-0.9 5.6,-4.1 5.5,-7.3 0.2,-2 0,-4.1 -0.2,-6.1 -0.2,-2.1 -0.6,-4 -1,-5.8 l 0,-0.2 c -0.1,-0.4 -2.1,0.8 -4.3,2 -2.4,1.3 -5,2.5 -5.4,2.7 z"
           id="path45"
           inkscape:connector-curvature="0"
           style="fill:none" /><path
           class="noFillSVG"
           d="m 713.7,310 c 2.4,3.5 6.6,3 9.4,0.1 2.2,-2.3 2.8,-6 1.5,-8.9 -1.2,-3.8 -3.9,-7.4 -6.9,-10 l -0.2,-0.1 c -0.7,-0.6 -5.3,8.4 -5.5,9.3 -0.8,3.3 -0.3,6.6 1.7,9.6 z"
           id="path47"
           inkscape:connector-curvature="0"
           style="fill:none" /><path
           class="noFillSVG"
           d="m 540.3,147.5 c -2.7,2.2 -4.1,5.3 -4.6,8.6 -0.6,3.9 1.4,5.4 4.9,5 2.7,-0.3 6,-2 7.6,-4.7 2.3,-3.2 3.4,-7.6 2.8,-11.9 l 0,-0.2 c -0.1,-0.5 -2.7,0 -5.2,0.8 -2.7,0.8 -5.2,2.1 -5.5,2.4 z"
           id="path49"
           inkscape:connector-curvature="0"
           style="fill:none" /><path
           class="noFillSVG"
           d="m 755.6,302.3 c 0.4,1.8 0.6,3.9 1.5,5.5 0.5,1.1 1.5,2 2.7,2.2 2.7,0.5 6.3,-1.5 7.7,-3.7 1.8,-2.9 1,-6.2 -0.3,-9.2 -1.4,-3.2 -3.6,-6 -6.2,-8.1 -1.4,1.9 -2.7,4 -3.6,6.3 -1,2.1 -1.8,4.6 -1.8,7 z"
           id="path51"
           inkscape:connector-curvature="0"
           style="fill:none" /><path
           class="noFillSVG"
           d="m 798.1,297.1 c -2.2,2.7 -2.9,6 -2.8,9.4 0.2,4 2.4,5 5.8,3.9 2.6,-0.8 5.5,-3.2 6.5,-6.1 0.8,-1.8 1.3,-3.9 1.3,-6 0,-2.1 -0.3,-4.3 -1,-6.3 l -0.1,-0.2 c -0.2,-0.4 -2.6,0.5 -5,1.8 -2.3,1.4 -4.3,3.1 -4.7,3.5 z"
           id="path53"
           inkscape:connector-curvature="0"
           style="fill:none" /><path
           class="noFillSVG"
           d="m 328,306.6 c 0.1,1.8 0,3.9 0.5,5.7 0.4,1.1 1.1,2.2 2.2,2.6 2.6,1 6.5,-0.4 8.2,-2.3 2.3,-2.6 2,-6 1.3,-9.1 -0.8,-3.4 -2.5,-6.5 -4.8,-9.1 -1.8,1.7 -3.3,3.5 -4.6,5.6 -1.2,2 -2.5,4.2 -2.8,6.6 z"
           id="path55"
           inkscape:connector-curvature="0"
           style="fill:none" /><path
           class="noFillSVG"
           d="m 243,300.8 c 0.5,1.8 0.9,3.8 1.7,5.4 0.5,1 1.2,1.9 2,2.2 1.8,0.5 4.3,-1.1 5.7,-3.1 0.4,-0.7 0.8,-1.4 1,-2.1 0.3,-0.7 0.4,-1.5 0.5,-2.3 0.1,-1.6 -0.1,-3.2 -0.5,-4.7 -0.8,-3.3 -2.6,-6.4 -5.5,-8.7 -1.7,1.8 -3,4.1 -3.9,6.3 -0.8,2.1 -1.4,4.6 -1,7 z"
           id="path57"
           inkscape:connector-curvature="0"
           style="fill:none" /><path
           class="noFillSVG"
           d="m 285.4,307.1 c 1.8,3.9 6,4.1 9.2,1.7 2.6,-1.9 3.8,-5.4 3,-8.5 -0.5,-4 -2.6,-7.9 -5.1,-11.1 l -0.1,-0.2 c -0.6,-0.7 -6.6,7.4 -7,8.2 -1.5,3.3 -1.5,6.6 0,9.9 z"
           id="path59"
           inkscape:connector-curvature="0"
           style="fill:none" /><path
           class="noFillSVG"
           d="m 234.7,689.1 c 2.2,-2.7 2.9,-6.1 2.8,-9.4 -0.2,-4 -2.4,-5 -5.8,-3.9 -2.6,0.8 -5.5,3.2 -6.5,6.1 -0.8,1.8 -1.3,3.8 -1.3,6 0,2.1 0.3,4.3 1,6.3 l 0.1,0.2 c 0.2,0.4 2.6,-0.5 5,-1.8 2.3,-1.5 4.4,-3.1 4.7,-3.5 z"
           id="path61"
           inkscape:connector-curvature="0"
           style="fill:none" /><path
           class="noFillSVG"
           d="m 372.3,304.7 c -1.5,3.2 -1.5,6.6 0,9.8 0.4,1 1,1.7 1.7,2.2 0.3,0.3 0.7,0.5 1.1,0.6 0.4,0.2 1,0.3 1.5,0.3 1.1,0.1 2.3,0 3.4,-0.3 1.1,-0.4 2.2,-0.9 3.1,-1.6 2.9,-2.2 3.4,-6.1 2,-8.9 -0.7,-1.9 -1.6,-3.7 -2.7,-5.5 -1.1,-1.8 -2.2,-3.3 -3.3,-4.9 l -0.1,-0.1 c -0.3,-0.4 -1.5,1.6 -3.2,3.6 -1.7,2.1 -3.3,4.3 -3.5,4.8 z"
           id="path63"
           inkscape:connector-curvature="0"
           style="fill:none" /><path
           class="noFillSVG"
           d="m 501.4,149.4 c 0.9,1.6 1.7,3.5 2.8,5 0.7,0.9 1.6,1.6 2.4,1.7 1.9,0.1 3.9,-1.9 4.9,-4.2 1.2,-2.9 0.5,-6.2 -0.8,-9.2 -1.4,-3.1 -3.9,-5.8 -7.2,-7.4 -1.3,2.2 -2.1,4.6 -2.5,6.9 -0.4,2.4 -0.4,4.9 0.4,7.2 z"
           id="path65"
           inkscape:connector-curvature="0"
           style="fill:none" /><path
           class="noFillSVG"
           d="m 277.2,683.9 c -0.4,-1.8 -0.6,-3.9 -1.5,-5.5 -0.5,-1.1 -1.5,-2 -2.7,-2.2 -2.7,-0.5 -6.3,1.5 -7.7,3.7 -1.8,2.9 -1,6.2 0.3,9.2 1.4,3.2 3.6,6 6.2,8.1 1.4,-1.9 2.7,-4 3.6,-6.3 1,-2.1 1.9,-4.6 1.8,-7 z"
           id="path67"
           inkscape:connector-curvature="0"
           style="fill:none" /><path
           class="noFillSVG"
           d="m 264.8,429 c 1.4,-1.3 3,-2.5 4,-4 0.6,-1 1,-2.3 0.6,-3.4 -0.9,-2.6 -4.4,-4.7 -7,-4.8 -3.5,-0.1 -5.9,2.3 -7.8,4.8 -2.1,2.8 -3.4,6.1 -3.9,9.5 2.4,0.3 4.8,0.3 7.3,0 2.2,-0.3 4.8,-0.8 6.8,-2.1 z"
           id="path69"
           inkscape:connector-curvature="0"
           style="fill:none" /><path
           class="noFillSVG"
           d="m 596,262.9 c -1.5,1 -3.4,1.9 -4.7,3.3 -0.8,0.9 -1.3,2.1 -1.2,3.3 0.4,2.7 3.6,5.4 6.1,6 3.4,0.7 6.2,-1.2 8.5,-3.4 2.5,-2.4 4.4,-5.4 5.5,-8.7 -2.3,-0.7 -4.7,-1.1 -7.2,-1.2 -2.1,-0.2 -4.7,-0.1 -7,0.7 z"
           id="path71"
           inkscape:connector-curvature="0"
           style="fill:none" /><path
           class="noFillSVG"
           d="m 820.3,328.3 c -1.7,0.7 -3.7,1.4 -5.2,2.3 -0.9,0.6 -1.8,1.4 -1.9,2.3 -0.1,1 0.2,1.9 1,2.9 0.7,0.9 1.7,1.8 2.8,2.3 2.8,1.4 6.2,1.1 9.2,0.1 1.7,-0.6 3.2,-1.4 4.5,-2.5 1.4,-1.1 2.6,-2.4 3.5,-4 -2,-1.5 -4.4,-2.5 -6.7,-3.1 -2.3,-0.6 -4.9,-0.9 -7.2,-0.3 z"
           id="path73"
           inkscape:connector-curvature="0"
           style="fill:none" /><path
           class="noFillSVG"
           d="m 809.7,362.2 c -4.2,-0.4 -6.5,3.1 -6.1,7.2 0.4,3.2 2.8,6 5.9,6.8 3.7,1.5 8.2,1.7 12.1,1.2 l 0.2,0 c 0.9,-0.1 -3.1,-9.4 -3.6,-10.2 -2.1,-3 -5,-4.7 -8.5,-5 z"
           id="path75"
           inkscape:connector-curvature="0"
           style="fill:none" /><path
           class="noFillSVG"
           d="m 582.8,221.4 c -3.5,0.3 -6.4,2 -8.5,4.9 -2.5,3.4 -0.5,7.2 3.2,8.8 2.9,1.3 6.6,0.6 8.9,-1.7 3.2,-2.5 5.6,-6.2 7,-9.9 0,-0.1 0,-0.1 0.1,-0.2 0.3,-0.8 -9.7,-2 -10.7,-1.9 z"
           id="path77"
           inkscape:connector-curvature="0"
           style="fill:none" /><path
           class="noFillSVG"
           d="m 481.2,178 c 2.1,-0.2 3.6,-1.2 4.4,-2.7 0.4,-0.7 0.6,-1.6 0.7,-2.5 0,-0.4 0,-1 -0.1,-1.4 -0.1,-0.4 -0.2,-0.8 -0.4,-1.2 -1.1,-2.6 -3.7,-5.1 -6.8,-5.8 -1.9,-0.6 -3.9,-0.8 -6,-0.6 -2.1,0.2 -4.2,0.7 -6.1,1.3 l -0.2,0.1 c -0.9,0.3 4.6,8.8 5.3,9.4 2.5,2.5 5.6,3.7 9.2,3.4 z"
           id="path79"
           inkscape:connector-curvature="0"
           style="fill:none" /><path
           class="noFillSVG"
           d="m 559,184 c -1.5,1 -3.4,1.9 -4.7,3.3 -0.8,0.9 -1.3,2.1 -1.2,3.3 0.4,2.7 3.6,5.4 6.1,6 3.4,0.7 6.2,-1.2 8.5,-3.4 2.5,-2.4 4.4,-5.4 5.5,-8.7 -2.3,-0.7 -4.7,-1.1 -7.2,-1.2 -2.2,-0.2 -4.8,-0.2 -7,0.7 z"
           id="path81"
           inkscape:connector-curvature="0"
           style="fill:none" /><path
           class="noFillSVG"
           d="m 788.8,399.3 c -1.6,-0.8 -3.4,-2 -5.2,-2.4 -1.2,-0.3 -2.5,-0.1 -3.4,0.6 -2.2,1.7 -2.9,5.8 -2.1,8.3 1.1,3.3 4.2,4.7 7.2,5.7 3.3,1 6.9,1.1 10.3,0.4 -0.6,-2.4 -1.4,-4.6 -2.5,-6.8 -1.1,-2.1 -2.4,-4.4 -4.3,-5.8 z"
           id="path83"
           inkscape:connector-curvature="0"
           style="fill:none" /><path
           class="noFillSVG"
           d="m 753.8,518.1 c -2.6,0.1 -5.3,0.2 -5.8,0.3 -3.5,0.7 -6.3,2.5 -7.8,6 -0.2,0.5 -0.3,1.1 -0.4,1.6 -0.1,0.5 0,1.1 0,1.5 0,0.9 0.3,1.7 0.8,2.4 0.9,1.4 2.5,2.5 4.5,3 3.1,0.8 6.6,-0.6 8.5,-3.1 2.7,-3 4.4,-7.1 5.3,-11 l 0,-0.2 c 0,-0.5 -2.5,-0.5 -5.1,-0.5 z"
           id="path85"
           inkscape:connector-curvature="0"
           style="fill:none" /><path
           class="noFillSVG"
           d="m 797.9,590 c -3.4,0.9 -6,3 -7.6,6.2 -1.8,3.8 0.7,7.2 4.6,8.2 3.1,0.8 6.6,-0.6 8.5,-3.1 2.7,-3 4.4,-7.1 5.3,-11 0,-0.1 0,-0.1 0,-0.2 0.2,-0.9 -9.9,-0.3 -10.8,-0.1 z"
           id="path87"
           inkscape:connector-curvature="0"
           style="fill:none" /><path
           class="noFillSVG"
           d="m 759.8,433.7 c -4.2,-0.4 -6.5,3.1 -6.1,7.2 0.4,3.2 2.8,6 5.9,6.8 3.7,1.5 8.2,1.7 12.1,1.2 0.1,0 0.1,0 0.2,0 0.9,-0.1 -3.1,-9.4 -3.6,-10.2 -2,-2.9 -5,-4.7 -8.5,-5 z"
           id="path89"
           inkscape:connector-curvature="0"
           style="fill:none" /><path
           class="noFillSVG"
           d="m 768,557.2 c -1.4,1.3 -3,2.5 -4,4 -0.6,1 -1,2.3 -0.6,3.4 0.9,2.6 4.4,4.7 7,4.8 3.5,0.1 5.9,-2.3 7.8,-4.8 2.1,-2.8 3.4,-6.1 3.9,-9.5 -2.4,-0.3 -4.8,-0.3 -7.3,0 -2.2,0.3 -4.7,0.8 -6.8,2.1 z"
           id="path91"
           inkscape:connector-curvature="0"
           style="fill:none" /><path
           class="noFillSVG"
           d="m 817.2,628.2 c -1.5,1.1 -3.3,2.1 -4.6,3.3 -0.8,0.8 -1.4,1.8 -1.4,2.6 0.1,1.9 2.4,3.6 4.7,4.3 3,0.8 6.3,-0.2 9,-1.8 2.9,-1.7 5.3,-4.5 6.5,-8 -2.3,-1.1 -4.8,-1.6 -7.2,-1.7 -2.2,0 -4.9,0.3 -7,1.3 z"
           id="path93"
           inkscape:connector-curvature="0"
           style="fill:none" /><path
           class="noFillSVG"
           d="m 458.4,216.8 c 1.8,0.5 3.7,1.4 5.5,1.5 1.2,0.1 2.5,-0.3 3.2,-1.2 1.8,-2.1 1.9,-6.2 0.7,-8.5 -1.6,-3.1 -4.9,-4 -8.1,-4.4 -3.4,-0.4 -6.9,0.1 -10.2,1.3 1,2.2 2.2,4.3 3.6,6.3 1.6,1.9 3.2,3.9 5.3,5 z"
           id="path95"
           inkscape:connector-curvature="0"
           style="fill:none" /><path
           class="noFillSVG"
           d="m 450,764.8 c 3.5,-0.3 6.4,-2 8.5,-4.9 2.5,-3.4 0.5,-7.2 -3.2,-8.8 -2.9,-1.3 -6.6,-0.6 -8.9,1.7 -3.2,2.5 -5.6,6.2 -7,9.9 0,0.1 0,0.1 -0.1,0.2 -0.3,0.7 9.8,1.9 10.7,1.9 z"
           id="path97"
           inkscape:connector-curvature="0"
           style="fill:none" /><path
           class="noFillSVG"
           d="m 739.1,472.7 c -1.8,-0.4 -3.8,-1.2 -5.7,-1 -1.2,0.1 -2.5,0.9 -3.4,2.2 -0.9,1.5 -1.2,3.7 -1.1,5.7 0.2,2 0.8,3.9 1.7,5 2.4,3 5.9,2.5 9,1.9 1.7,-0.4 3.4,-0.9 5,-1.5 1.6,-0.6 3.1,-1.4 4.5,-2.1 -0.7,-0.9 -1.4,-1.8 -2.2,-2.7 -0.7,-0.9 -1.5,-1.8 -2.3,-2.7 -1.6,-1.7 -3.3,-3.7 -5.5,-4.8 z"
           id="path99"
           inkscape:connector-curvature="0"
           style="fill:none" /><path
           class="noFillSVG"
           d="m 293.7,513.5 c 1.8,0.4 3.8,1.2 5.7,1 1.2,-0.1 2.5,-0.9 3.4,-2.2 0.9,-1.5 1.2,-3.7 1.1,-5.7 -0.2,-2 -0.8,-3.9 -1.7,-5 -2.4,-3 -5.9,-2.5 -9,-1.9 -1.7,0.4 -3.4,0.9 -5,1.5 -1.6,0.6 -3.1,1.4 -4.5,2.1 0.7,0.9 1.4,1.8 2.2,2.7 0.7,0.9 1.5,1.8 2.3,2.7 1.6,1.7 3.4,3.7 5.5,4.8 z"
           id="path101"
           inkscape:connector-curvature="0"
           style="fill:none" /><path
           class="noFillSVG"
           d="m 444.1,257 c 4.2,-0.3 5.9,-4.2 4.8,-8.1 -0.9,-3.1 -3.8,-5.4 -6.9,-5.8 -3.9,-0.9 -8.3,-0.3 -12.1,0.9 l -0.2,0.1 c -0.9,0.3 4.6,8.8 5.3,9.4 2.4,2.5 5.6,3.7 9.1,3.5 z"
           id="path103"
           inkscape:connector-curvature="0"
           style="fill:none" /><path
           class="noFillSVG"
           d="m 273,552.5 c 4.2,0.4 6.5,-3.1 6.1,-7.2 -0.4,-3.2 -2.8,-6 -5.9,-6.8 -3.7,-1.5 -8.2,-1.7 -12.1,-1.2 -0.1,0 -0.1,0 -0.2,0 -0.9,0.1 3.1,9.4 3.6,10.2 2.1,2.9 5,4.7 8.5,5 z"
           id="path105"
           inkscape:connector-curvature="0"
           style="fill:none" /><path
           class="noFillSVG"
           d="m 244.1,586.9 c 1.6,0.8 3.4,2 5.2,2.4 1.2,0.3 2.5,0.1 3.4,-0.6 2.2,-1.7 2.9,-5.8 2.1,-8.3 -1.1,-3.3 -4.2,-4.7 -7.2,-5.7 -3.3,-1 -6.9,-1.1 -10.3,-0.4 0.6,2.4 1.4,4.6 2.5,6.8 1.1,2.1 2.4,4.3 4.3,5.8 z"
           id="path107"
           inkscape:connector-curvature="0"
           style="fill:none" /><path
           class="noFillSVG"
           d="m 436.8,723.2 c 1.5,-1 3.4,-1.9 4.7,-3.3 0.8,-0.9 1.3,-2.1 1.2,-3.3 -0.4,-2.7 -3.6,-5.4 -6.1,-6 -3.4,-0.7 -6.2,1.2 -8.5,3.4 -2.5,2.4 -4.4,5.4 -5.5,8.7 2.3,0.7 4.7,1.1 7.2,1.2 2.2,0.3 4.8,0.2 7,-0.7 z"
           id="path109"
           inkscape:connector-curvature="0"
           style="fill:none" /><path
           class="noFillSVG"
           d="m 212.6,657.9 c 1.7,-0.7 3.7,-1.4 5.2,-2.3 0.9,-0.6 1.8,-1.4 1.9,-2.3 0.1,-0.9 -0.2,-1.9 -1,-2.9 -0.7,-0.9 -1.7,-1.8 -2.8,-2.3 -2.8,-1.4 -6.2,-1.1 -9.2,-0.1 -1.7,0.6 -3.2,1.4 -4.5,2.5 -1.4,1.1 -2.6,2.4 -3.5,4 2,1.5 4.4,2.5 6.7,3.1 2.3,0.6 4.9,0.9 7.2,0.3 z"
           id="path111"
           inkscape:connector-curvature="0"
           style="fill:none" /><path
           class="noFillSVG"
           d="m 223.2,624 c 4.2,0.4 6.5,-3.1 6.1,-7.2 -0.4,-3.2 -2.8,-6 -5.9,-6.8 -3.7,-1.5 -8.2,-1.7 -12.1,-1.2 l -0.2,0 c -0.9,0.1 3.1,9.4 3.6,10.2 2,3 5,4.7 8.5,5 z"
           id="path113"
           inkscape:connector-curvature="0"
           style="fill:none" /><path
           class="noFillSVG"
           d="m 215.6,358 c 1.5,-1.1 3.3,-2.1 4.6,-3.3 0.8,-0.8 1.4,-1.8 1.4,-2.6 -0.1,-1.9 -2.4,-3.6 -4.7,-4.3 -3,-0.8 -6.3,0.2 -9,1.8 -2.9,1.7 -5.3,4.5 -6.5,8 2.3,1.1 4.8,1.6 7.2,1.7 2.3,0 4.9,-0.3 7,-1.3 z"
           id="path115"
           inkscape:connector-curvature="0"
           style="fill:none" /><path
           class="noFillSVG"
           d="m 209.9,319.7 c 2.5,2.5 5.7,3.5 9.1,3.8 4,0.2 5.2,-2 4.5,-5.5 -0.6,-2.7 -2.6,-5.8 -5.5,-7 -3.5,-2 -8,-2.5 -12.2,-1.5 l -0.2,0.1 c -0.5,0.1 0.3,2.7 1.3,5.1 1.1,2.4 2.6,4.6 3,5 z"
           id="path117"
           inkscape:connector-curvature="0"
           style="fill:none" /><path
           class="noFillSVG"
           d="m 421.9,299.4 c 1.2,0.4 2.7,0.3 4,-0.6 3,-2.1 4.7,-7.3 3.8,-10.1 -1,-3.7 -4.3,-4.6 -7.5,-5.4 -1.7,-0.4 -3.4,-0.6 -5.1,-0.6 -1.7,-0.1 -3.4,0 -5,0.1 0.5,2.2 1.2,4.5 1.9,6.8 0.7,2.2 1.6,4.8 3.1,6.6 1.5,1.1 3,2.6 4.8,3.2 z"
           id="path119"
           inkscape:connector-curvature="0"
           style="fill:none" /><path
           class="noFillSVG"
           d="m 279,468.1 c 2.6,-0.1 5.3,-0.2 5.8,-0.3 3.5,-0.7 6.3,-2.5 7.8,-6 0.2,-0.5 0.3,-1.1 0.4,-1.6 0.1,-0.5 0,-1.1 0,-1.5 0,-0.9 -0.3,-1.7 -0.8,-2.4 -0.9,-1.4 -2.5,-2.5 -4.5,-3 -3.1,-0.7 -6.6,0.6 -8.5,3.1 -2.7,3 -4.4,7.1 -5.3,11 l 0,0.2 c 0,0.4 2.5,0.5 5.1,0.5 z"
           id="path121"
           inkscape:connector-curvature="0"
           style="fill:none" /><path
           class="noFillSVG"
           d="m 235,396.2 c 3.4,-0.9 6,-3 7.6,-6.2 1.8,-3.8 -0.7,-7.2 -4.6,-8.2 -3.1,-0.8 -6.6,0.6 -8.5,3.1 -2.7,3 -4.4,7.1 -5.3,11 0,0.1 0,0.1 0,0.2 -0.2,0.8 9.9,0.3 10.8,0.1 z"
           id="path123"
           inkscape:connector-curvature="0"
           style="fill:none" /><path
           d="m 846.6,644.2 c -1,-4.7 -3.3,-9 -6.3,-12.3 -0.8,-0.9 -1.7,-1.7 -2.6,-2.5 -1,-0.8 -2,-1.5 -3.1,-2.1 0.9,-4.4 0.4,-9.5 -1.5,-14.2 -0.5,-1.3 -0.8,-2.1 -1.2,-3.1 -0.4,-0.9 -0.8,-1.9 -1.3,-2.8 -0.9,-1.8 -1.9,-3.6 -3,-5.3 -3.6,-4.6 -6.2,-9.6 -11.8,-12 -1.4,-0.6 -2.8,-1.1 -4.4,-1.5 1.8,-14 -6.8,-28.2 -20.5,-33.5 -1.9,-0.7 -3.9,-1.3 -6.1,-1.8 0.4,-8 -2.8,-15.9 -7.1,-22.8 -3.6,-4.6 -6.2,-9.6 -11.8,-12 -1.4,-0.6 -2.8,-1.1 -4.4,-1.5 0.2,-1.7 0.3,-3.5 0.2,-5.2 0.2,-1.4 0.2,-2.6 0.4,-3.9 0.1,-2.4 0.1,-4.6 -0.4,-6.7 -0.8,-4.1 -2.8,-7.9 -6.2,-12.8 -0.8,-1.3 -2,-2.9 -3.1,-4.5 3,-1.8 5.5,-3.7 7.8,-5.5 0.6,-0.5 1.1,-0.9 1.6,-1.4 0.3,-0.2 0.5,-0.5 0.8,-0.7 l 0.4,-0.4 0.4,-0.4 c 1.4,-1.5 2.7,-3 4,-4.6 3,-5 6.9,-9.2 7.2,-15.2 0.1,-1.5 0,-3 -0.1,-4.6 13.8,-3.2 24.1,-16.2 24.4,-30.8 0,-2 -0.1,-4.2 -0.5,-6.4 7.6,-2.4 14,-8.1 18.9,-14.5 3,-5 6.9,-9.2 7.2,-15.2 0.1,-1.5 0,-3 -0.1,-4.6 3.4,-0.8 6.7,-2.2 9.6,-4.1 3.5,-2.8 6.6,-6.6 8.6,-11 2.1,-4.4 3.2,-9.4 3.1,-14.3 -0.1,-4.9 -1.4,-9.5 -3.6,-13.3 -1.3,-2.1 -2.8,-4.1 -4.7,-5.7 1.8,-4.1 2.4,-9.2 1.5,-14.3 -0.9,-5.1 -3.1,-10.3 -6.2,-14.8 -2.5,-3 -5,-6 -7.9,-8.3 -2.9,-2.4 -6.2,-4.1 -9.8,-4.5 -1.8,-0.2 -3.6,-0.2 -5.5,-0.1 -1.8,-3.6 -4.7,-6.9 -8.5,-9.5 -3.8,-2.5 -8.5,-4.2 -13.3,-4.8 -1.2,-0.2 -2.4,-0.2 -3.6,-0.2 -1.2,0 -2.4,0 -3.6,0.2 -1.2,0.1 -2.4,0.3 -3.5,0.5 -0.9,0.2 -1.7,0.5 -2.5,0.8 -3.3,1.2 -6.5,2.9 -9.4,5.2 -1.6,1.2 -3.1,2.8 -4.6,4.4 -6.7,-4.4 -15.2,-5.5 -23.3,-5.2 -5.8,0.8 -11.5,0.6 -16.2,4.2 -1.2,0.9 -2.4,1.9 -3.5,3 -11.3,-8.5 -27.9,-8.2 -39.3,1 -1.6,1.2 -3.1,2.8 -4.6,4.4 -3.3,-2.2 -7.1,-3.6 -11.1,-4.4 -2,-0.4 -4,-0.7 -6,-0.8 -0.5,0 -1.1,0 -1.5,-0.1 -0.3,-0.1 -0.7,-0.1 -1,-0.1 -0.7,-0.1 -1.3,-0.1 -2,-0.2 -0.9,0.1 -1.9,0.1 -2.8,-0.1 -0.9,0 -1.8,-0.2 -2.8,-0.2 -0.9,0 -1.8,-0.1 -2.8,0.1 -1,0.1 -2,0.3 -3.1,0.8 -1.1,0.4 -2.3,0.9 -3.6,1.4 -0.7,-3.1 -1.6,-5.6 -2.5,-8 -0.5,-1.1 -0.9,-2.2 -1.4,-3.2 -0.5,-1 -1.1,-1.9 -1.6,-2.8 -0.6,-0.8 -1.2,-1.7 -2,-2.4 -0.7,-0.8 -1.6,-1.5 -2.4,-2.3 -0.2,-0.2 -0.5,-0.4 -0.7,-0.5 l -0.4,-0.3 c -0.1,-0.1 -0.3,-0.3 -0.5,-0.5 -0.6,-0.6 -1.3,-1.2 -2,-1.8 -1.4,-1.2 -2.8,-2.2 -4.4,-3.2 -1.7,-1 -3.7,-2 -5.8,-2.8 1.8,-7.8 -0.1,-16.1 -3.1,-23.6 -2.8,-5.1 -4.5,-10.6 -9.6,-13.8 -1.2,-0.8 -2.6,-1.5 -4,-2.2 4.1,-13.5 -2,-29 -14.5,-36.5 -1.7,-1 -3.7,-2 -5.8,-2.8 1.8,-7.8 -0.1,-16.1 -3.1,-23.6 -1.8,-3.4 -3.6,-6.8 -6,-9.7 -0.6,-0.7 -1.2,-1.4 -1.8,-2.1 -0.7,-0.6 -1.4,-1.2 -2.1,-1.8 -1.4,-1.1 -3.1,-2 -4.8,-2.6 -1.7,-0.6 -3.5,-1 -5.3,-1.2 -1.9,-7.8 -9.1,-15.4 -18.4,-18.4 -4.6,-1.5 -9.7,-2.1 -14.4,-1.4 -4.7,0.6 -9.2,2.4 -12.7,4.9 -1,0.7 -1.9,1.5 -2.8,2.3 -0.9,0.9 -1.7,1.8 -2.4,2.8 -4.2,-1.4 -9.3,-1.5 -14.4,-0.1 -5.1,1.3 -10.1,4.1 -14.2,7.8 -2.8,2.8 -5.5,5.7 -7.4,8.9 -0.5,0.8 -1,1.6 -1.4,2.4 -0.4,0.8 -0.7,1.7 -1,2.5 -0.6,1.7 -0.9,3.5 -0.9,5.3 -0.1,1.9 0.3,3.3 0.7,4.8 -13,5.5 -21,20 -18.8,34.5 0.3,2 0.8,4.1 1.5,6.2 -7.1,3.6 -12.4,10.4 -16.2,17.5 -2.2,5.4 -5.2,10.2 -4.5,16.2 0.2,1.5 0.5,3 0.9,4.5 -6.5,2.7 -11.8,7.7 -15.1,13.9 -1.7,3.1 -2.9,6.4 -3.5,9.9 -0.2,0.9 -0.3,1.8 -0.4,2.6 0,0.4 -0.1,0.9 -0.1,1.3 l 0.1,0.9 c 0.1,0.6 0.2,1.3 0.3,2 0.1,0.7 0.2,1.4 0.4,2.1 0.3,1.6 0.7,3.5 1.1,5.4 -7,0.8 -12.2,2.6 -17.2,4.3 -1.7,0.9 -3.5,1.3 -5.2,2 -1.7,0.6 -3.3,1.5 -5.1,3.1 -0.9,0.9 -1.8,1.8 -2.7,2.7 -0.5,-0.6 -1,-1.2 -1.4,-1.7 -0.5,-0.5 -1.3,-1.1 -1.9,-1.6 -1.4,-1 -2.9,-2 -4.4,-2.7 -3.1,-1.6 -6.5,-2.6 -9.9,-3.1 -6.9,-1 -14.2,0.1 -20.6,3.7 -1.7,1 -3.6,2.2 -5.3,3.6 -5.9,-5.4 -14,-8 -22,-9.1 -5.8,-0.2 -11.4,-1.4 -16.7,1.4 -1.3,0.7 -2.6,1.5 -3.9,2.4 -4.8,-5.2 -11.3,-8.3 -18.3,-9.4 -3.5,-0.5 -7,-0.5 -10.5,0.1 -1.7,0.3 -3.5,0.7 -5.2,1.3 -0.8,0.3 -1.7,0.6 -2.5,1 -0.4,0.2 -0.8,0.4 -1.3,0.6 -0.5,0.2 -1,0.4 -1.5,0.7 -1.1,0.5 -2.1,1.1 -3.2,1.7 -1,0.7 -2,1.4 -3,2.2 -3.8,-2.3 -8.8,-3.4 -14.1,-3.1 -5.2,0.3 -10.7,2 -15.5,4.7 -1.7,1 -3.2,2.2 -4.8,3.4 -1.5,1.2 -3,2.4 -4.3,3.8 -2.6,2.7 -4.6,5.8 -5.4,9.3 -0.4,1.7 -0.5,3.6 -0.6,5.4 -3.7,1.4 -7.4,3.9 -10.2,7.4 -2.9,3.5 -5.1,7.8 -6.3,12.6 -1.1,4.8 -1.1,9.9 -0.1,14.6 1,4.7 3.3,9 6.3,12.3 0.8,0.9 1.7,1.7 2.6,2.5 1,0.8 2,1.5 3.1,2.1 -0.9,4.4 -0.4,9.5 1.5,14.2 0.5,1.3 0.8,2.1 1.2,3.1 0.4,0.9 0.8,1.9 1.3,2.8 0.9,1.8 1.9,3.6 3,5.3 3.6,4.6 6.2,9.6 11.8,12 1.4,0.6 2.8,1.1 4.4,1.5 -1.8,14 6.8,28.2 20.5,33.5 1.9,0.7 3.9,1.3 6.1,1.8 -0.4,8 2.8,15.9 7.1,22.8 3.6,4.6 6.2,9.6 11.8,12 1.4,0.6 2.8,1.1 4.4,1.5 -0.2,1.7 -0.3,3.5 -0.2,5.2 -0.2,1.4 -0.2,2.6 -0.4,3.9 -0.1,2.4 -0.1,4.6 0.4,6.7 0.8,4.1 2.8,7.9 6.2,12.8 0.8,1.3 2,2.9 3.1,4.5 -3,1.8 -5.5,3.7 -7.8,5.5 -0.6,0.4 -1.1,0.9 -1.6,1.4 -0.3,0.2 -0.5,0.5 -0.8,0.7 l -0.4,0.4 -0.4,0.4 c -1.4,1.5 -2.7,3 -4,4.6 -3,5 -6.9,9.2 -7.2,15.2 -0.1,1.5 0,3 0.1,4.6 -13.8,3.2 -24.1,16.2 -24.4,30.8 0,2 0.1,4.2 0.5,6.4 -7.6,2.4 -14,8.1 -18.9,14.5 -3,5 -6.9,9.2 -7.2,15.2 -0.1,1.5 0,3 0.1,4.6 -3.4,0.8 -6.7,2.2 -9.6,4.1 -3.5,2.8 -6.6,6.6 -8.6,11 -2.1,4.4 -3.2,9.4 -3.1,14.3 0.1,4.9 1.4,9.5 3.6,13.3 1.3,2.1 2.8,4.1 4.7,5.7 -1.8,4.1 -2.4,9.2 -1.5,14.3 0.9,5.1 3.1,10.3 6.2,14.8 2.5,3 5,6 7.9,8.3 2.9,2.4 6.2,4.1 9.8,4.5 1.8,0.2 3.6,0.2 5.5,0.1 1.8,3.6 4.7,6.9 8.5,9.5 3.8,2.5 8.5,4.2 13.3,4.8 1.2,0.2 2.4,0.2 3.6,0.2 1.2,0 2.4,0 3.6,-0.2 1.2,-0.1 2.4,-0.3 3.5,-0.5 0.9,-0.2 1.7,-0.5 2.5,-0.8 3.3,-1.2 6.5,-2.9 9.4,-5.2 1.6,-1.2 3.1,-2.8 4.6,-4.4 6.7,4.4 15.2,5.5 23.3,5.2 5.8,-0.8 11.5,-0.6 16.2,-4.2 1.2,-0.9 2.4,-1.9 3.5,-3 11.3,8.5 27.9,8.2 39.3,-1 1.6,-1.2 3.1,-2.8 4.6,-4.4 3.3,2.2 7.1,3.6 11.1,4.4 2,0.4 4,0.7 6,0.8 0.5,0 1.1,0.1 1.5,0.1 0.3,0.1 0.7,0.1 1,0.1 0.7,0.1 1.3,0.1 2,0.2 0.9,-0.1 1.9,-0.1 2.8,0.1 0.9,0 1.8,0.2 2.8,0.2 0.9,0 1.8,0.1 2.8,-0.1 1,-0.1 2,-0.3 3.1,-0.8 1.1,-0.4 2.3,-0.9 3.6,-1.4 0.7,3.1 1.6,5.6 2.5,8 0.5,1.1 0.9,2.3 1.4,3.2 0.5,1 1.1,1.9 1.6,2.8 0.6,0.8 1.2,1.7 2,2.4 0.7,0.8 1.6,1.5 2.4,2.3 0.2,0.2 0.5,0.4 0.7,0.5 l 0.4,0.3 c 0.1,0.1 0.3,0.3 0.5,0.5 0.6,0.6 1.3,1.2 2,1.8 1.4,1.2 2.8,2.2 4.4,3.2 1.7,1 3.7,2 5.8,2.8 -1.8,7.8 0.1,16.1 3.1,23.6 2.8,5.1 4.5,10.6 9.6,13.8 1.2,0.8 2.6,1.5 4,2.2 -4.1,13.5 2,29 14.5,36.5 1.7,1 3.7,2 5.8,2.8 -1.8,7.8 0.1,16.1 3.1,23.6 1.8,3.4 3.6,6.8 6,9.7 0.6,0.7 1.2,1.4 1.8,2.1 0.7,0.6 1.4,1.2 2.1,1.8 1.4,1.1 3.1,2 4.8,2.6 1.7,0.6 3.5,1 5.3,1.2 1.9,7.8 9.1,15.4 18.4,18.4 4.6,1.6 9.7,2.1 14.4,1.4 4.7,-0.6 9.2,-2.4 12.7,-4.9 1,-0.7 1.9,-1.5 2.8,-2.3 0.9,-0.9 1.7,-1.8 2.4,-2.8 4.2,1.4 9.3,1.5 14.4,0.1 5.1,-1.3 10.1,-4.1 14.2,-7.8 2.8,-2.8 5.5,-5.7 7.4,-8.9 0.5,-0.8 1,-1.6 1.4,-2.4 0.4,-0.8 0.7,-1.7 1,-2.5 0.6,-1.7 0.9,-3.5 0.9,-5.3 0.1,-1.9 -0.3,-3.3 -0.7,-4.8 13,-5.5 21,-20 18.8,-34.5 -0.3,-2 -0.8,-4.1 -1.5,-6.2 7.1,-3.6 12.4,-10.4 16.2,-17.5 2.2,-5.4 5.2,-10.2 4.5,-16.2 -0.2,-1.5 -0.5,-3 -0.9,-4.5 6.5,-2.7 11.8,-7.7 15.1,-13.9 1.7,-3.1 2.9,-6.4 3.5,-9.9 0.2,-0.9 0.3,-1.8 0.4,-2.6 0,-0.4 0.1,-0.9 0.1,-1.3 l -0.1,-0.9 c -0.1,-0.6 -0.2,-1.3 -0.3,-2 -0.1,-0.7 -0.2,-1.4 -0.4,-2.1 -0.3,-1.6 -0.7,-3.5 -1.1,-5.4 7,-0.8 12.2,-2.6 17.2,-4.3 1.7,-0.9 3.5,-1.3 5.2,-2 1.7,-0.6 3.3,-1.5 5.1,-3.2 0.9,-0.9 1.8,-1.8 2.7,-2.7 0.5,0.6 1,1.2 1.4,1.7 0.5,0.5 1.3,1.1 1.9,1.6 1.4,1 2.9,2 4.4,2.7 3.1,1.6 6.5,2.6 9.9,3.1 6.9,1 14.2,-0.1 20.6,-3.7 1.7,-1 3.6,-2.2 5.3,-3.6 5.9,5.4 14,8 22,9.1 5.8,0.2 11.4,1.4 16.7,-1.4 1.3,-0.7 2.6,-1.5 3.9,-2.4 4.8,5.2 11.3,8.3 18.3,9.4 3.5,0.5 7,0.5 10.5,-0.1 1.7,-0.3 3.5,-0.7 5.2,-1.3 0.8,-0.3 1.7,-0.6 2.5,-1 0.4,-0.2 0.8,-0.4 1.3,-0.6 0.5,-0.2 1,-0.4 1.5,-0.7 1.1,-0.5 2.1,-1.1 3.2,-1.7 1,-0.7 2,-1.4 3,-2.2 3.8,2.3 8.8,3.4 14.1,3.1 5.2,-0.3 10.7,-2 15.5,-4.7 1.7,-1 3.2,-2.2 4.8,-3.4 1.5,-1.2 3,-2.4 4.3,-3.8 2.6,-2.7 4.6,-5.8 5.4,-9.3 0.4,-1.7 0.5,-3.6 0.6,-5.4 3.7,-1.4 7.4,-3.9 10.2,-7.4 2.9,-3.5 5.1,-7.8 6.3,-12.6 1.1,-4.7 1.2,-9.8 0.1,-14.5 z m -38.8,-352.4 0.1,0.2 c 0.7,2 1,4.2 1,6.3 -0.1,2.1 -0.5,4.2 -1.3,6 -1,3 -3.9,5.3 -6.5,6.1 -3.4,1 -5.6,0.1 -5.8,-3.9 -0.1,-3.3 0.6,-6.6 2.8,-9.4 0.3,-0.4 2.4,-2.1 4.7,-3.5 2.4,-1.3 4.9,-2.2 5,-1.8 z M 761,289 c 2.7,2.2 4.9,4.9 6.2,8.1 1.2,3 2.1,6.3 0.3,9.2 -1.4,2.2 -5,4.2 -7.7,3.7 -1.2,-0.2 -2.1,-1.2 -2.7,-2.2 -0.9,-1.6 -1.1,-3.7 -1.5,-5.5 -0.1,-2.4 0.8,-4.8 1.7,-7 1,-2.3 2.2,-4.4 3.7,-6.3 z m -43.4,2 0.2,0.1 c 3,2.7 5.6,6.2 6.9,10 1.3,2.9 0.7,6.6 -1.5,8.9 -2.8,2.9 -7,3.4 -9.4,-0.1 -2,-2.9 -2.5,-6.3 -1.6,-9.7 0.2,-0.8 4.8,-9.8 5.4,-9.2 z m -43.5,5.4 c 2.7,2.2 4.9,4.9 6.2,8.1 1.2,3 2.1,6.3 0.3,9.2 -1.4,2.2 -5,4.2 -7.7,3.7 -1.2,-0.2 -2.1,-1.2 -2.7,-2.2 -0.9,-1.6 -1.1,-3.7 -1.5,-5.5 -0.1,-2.4 0.8,-4.8 1.7,-7 1,-2.3 2.2,-4.4 3.7,-6.3 z m -38.8,-4 0,0.2 c 0.4,1.8 0.8,3.8 1,5.8 0.3,2 0.4,4.1 0.2,6.1 0.1,3.2 -1.8,6.4 -5.5,7.3 -4.5,1.1 -9.9,-1.6 -10,-6.1 -0.1,-3.7 1.8,-6.6 4.6,-8.6 0.4,-0.3 2.9,-1.5 5.2,-2.6 2.5,-1.3 4.4,-2.5 4.5,-2.1 z m -84.4,-148.1 0,0.2 c 0.6,4.3 -0.5,8.7 -2.8,11.9 -1.6,2.7 -4.9,4.4 -7.6,4.7 -3.5,0.4 -5.5,-1.1 -4.9,-5 0.6,-3.3 1.9,-6.4 4.6,-8.6 0.4,-0.3 2.8,-1.6 5.4,-2.4 2.5,-0.8 5.2,-1.3 5.3,-0.8 z m -47.4,-9 c 3.3,1.6 5.8,4.3 7.2,7.4 1.4,2.9 2,6.3 0.8,9.2 -0.9,2.3 -3,4.3 -4.9,4.2 -0.8,-0.1 -1.7,-0.8 -2.4,-1.7 -1.1,-1.4 -1.9,-3.3 -2.8,-5 -0.8,-2.2 -0.8,-4.8 -0.4,-7.2 0.3,-2.3 1.1,-4.7 2.5,-6.9 z m -124.5,161 0.1,0.1 c 1.1,1.6 2.2,3.1 3.3,4.9 1.1,1.8 2.1,3.6 2.7,5.5 1.4,2.8 0.9,6.6 -2,8.9 -0.9,0.7 -2,1.2 -3.1,1.6 -1.1,0.3 -2.3,0.4 -3.4,0.3 -0.5,-0.1 -1.1,-0.2 -1.5,-0.3 -0.4,-0.2 -0.8,-0.4 -1.1,-0.6 -0.7,-0.5 -1.3,-1.3 -1.7,-2.2 -1.5,-3.2 -1.4,-6.6 0,-9.8 0.2,-0.4 1.8,-2.7 3.4,-4.7 1.8,-2 3,-4 3.3,-3.7 z m -38.7,7.2 c 0.7,3.1 1,6.5 -1.3,9.1 -1.7,1.9 -5.6,3.3 -8.2,2.3 -1.1,-0.4 -1.9,-1.5 -2.2,-2.6 -0.6,-1.8 -0.4,-3.8 -0.5,-5.7 0.3,-2.4 1.6,-4.6 2.9,-6.6 1.3,-2.1 2.9,-3.9 4.6,-5.6 2.2,2.6 3.9,5.7 4.7,9.1 z m -47.9,-14.5 0.1,0.2 c 2.5,3.1 4.5,7.1 5.1,11.1 0.8,3.1 -0.4,6.6 -3,8.5 -3.3,2.4 -7.5,2.2 -9.2,-1.7 -1.5,-3.2 -1.4,-6.6 0,-9.8 0.4,-0.9 6.5,-9 7,-8.3 z m -44.5,-1.6 c 2.9,2.3 4.8,5.4 5.5,8.7 0.3,1.5 0.6,3.2 0.5,4.7 -0.1,0.8 -0.2,1.5 -0.5,2.3 -0.2,0.7 -0.6,1.5 -1,2.1 -1.4,2 -3.9,3.6 -5.7,3.1 -0.8,-0.3 -1.5,-1.2 -2,-2.2 -0.8,-1.6 -1.2,-3.6 -1.7,-5.4 -0.3,-2.3 0.2,-4.9 1,-7.1 0.8,-2.1 2.1,-4.4 3.9,-6.2 z m -22.9,407 -0.1,-0.2 c -0.7,-2 -1,-4.2 -1,-6.3 0.1,-2.1 0.5,-4.2 1.3,-6 1,-3 3.9,-5.3 6.5,-6.1 3.4,-1 5.6,-0.1 5.8,3.9 0.1,3.3 -0.6,6.6 -2.8,9.4 -0.3,0.4 -2.4,2.1 -4.7,3.5 -2.3,1.3 -4.8,2.2 -5,1.8 z m 46.9,2.8 c -2.7,-2.2 -4.9,-4.9 -6.2,-8.1 -1.2,-3 -2.1,-6.3 -0.3,-9.2 1.4,-2.2 5,-4.2 7.7,-3.7 1.2,0.2 2.1,1.2 2.7,2.2 0.9,1.6 1.1,3.7 1.5,5.5 0.1,2.4 -0.8,4.8 -1.7,7 -1,2.3 -2.3,4.3 -3.7,6.3 z m 43.3,-2 -0.2,-0.1 c -3,-2.7 -5.6,-6.2 -6.9,-10 -1.3,-2.9 -0.7,-6.6 1.5,-8.9 2.8,-2.9 7,-3.4 9.4,0.1 2,2.9 2.5,6.3 1.6,9.7 -0.1,0.8 -4.7,9.8 -5.4,9.2 z m 43.6,-5.4 c -2.7,-2.2 -4.9,-4.9 -6.2,-8.1 -1.2,-3 -2.1,-6.3 -0.3,-9.2 1.4,-2.2 5,-4.2 7.7,-3.7 1.2,0.2 2.1,1.2 2.7,2.2 0.9,1.6 1.1,3.7 1.5,5.5 0.1,2.4 -0.8,4.8 -1.7,7 -1,2.3 -2.3,4.3 -3.7,6.3 z m 38.8,4 0,-0.2 c -0.4,-1.8 -0.8,-3.8 -1,-5.8 -0.3,-2 -0.4,-4.1 -0.2,-6.1 -0.1,-3.2 1.8,-6.4 5.5,-7.3 4.5,-1.1 9.9,1.6 10,6.1 0.1,3.7 -1.8,6.6 -4.6,8.6 -0.4,0.3 -2.9,1.5 -5.2,2.6 -2.5,1.3 -4.5,2.5 -4.5,2.1 z m 84.4,148.1 0,-0.2 c -0.6,-4.3 0.5,-8.7 2.8,-11.9 1.6,-2.7 4.9,-4.4 7.6,-4.7 3.5,-0.4 5.5,1.1 4.9,5 -0.6,3.3 -1.9,6.4 -4.6,8.6 -0.4,0.3 -2.8,1.6 -5.4,2.4 -2.6,0.8 -5.2,1.3 -5.3,0.8 z m 47.4,9 c -3.3,-1.6 -5.8,-4.3 -7.2,-7.4 -1.4,-2.9 -2,-6.3 -0.8,-9.2 0.9,-2.3 3,-4.3 4.9,-4.2 0.8,0.1 1.7,0.8 2.4,1.7 1.1,1.4 1.9,3.3 2.8,5 0.8,2.2 0.8,4.8 0.4,7.2 -0.4,2.3 -1.2,4.7 -2.5,6.9 z m 124.5,-161 -0.1,-0.2 c -1.1,-1.6 -2.2,-3.1 -3.3,-4.9 -1.1,-1.8 -2.1,-3.6 -2.7,-5.5 -1.4,-2.8 -0.9,-6.6 2,-8.9 0.9,-0.7 2,-1.2 3.1,-1.6 1.1,-0.3 2.3,-0.4 3.4,-0.3 0.5,0.1 1.1,0.1 1.5,0.3 0.4,0.2 0.8,0.4 1.1,0.6 0.7,0.5 1.3,1.3 1.7,2.2 1.5,3.2 1.4,6.6 0,9.8 -0.2,0.4 -1.8,2.7 -3.4,4.7 -1.8,2.1 -3,4.1 -3.3,3.8 z m 38.7,-7.2 c -0.7,-3.1 -1,-6.5 1.3,-9.1 1.7,-1.9 5.6,-3.3 8.2,-2.3 1.1,0.4 1.9,1.5 2.2,2.6 0.6,1.8 0.4,3.8 0.5,5.7 -0.3,2.4 -1.6,4.6 -2.9,6.6 -1.3,2.1 -2.9,3.9 -4.6,5.6 -2.2,-2.6 -3.9,-5.7 -4.7,-9.1 z m 47.8,14.5 -0.1,-0.2 c -2.5,-3.1 -4.5,-7.1 -5.1,-11.1 -0.8,-3.1 0.4,-6.6 3,-8.5 3.3,-2.4 7.5,-2.2 9.2,1.7 1.5,3.2 1.4,6.6 0,9.8 -0.3,0.9 -6.4,9 -7,8.3 z m 44.6,1.6 c -2.9,-2.3 -4.8,-5.4 -5.5,-8.7 -0.3,-1.5 -0.6,-3.2 -0.5,-4.7 0.1,-0.8 0.2,-1.6 0.5,-2.3 0.2,-0.7 0.6,-1.5 1,-2.1 1.4,-2 3.9,-3.6 5.7,-3.1 0.8,0.3 1.5,1.2 2,2.2 0.8,1.6 1.2,3.6 1.7,5.4 0.3,2.3 -0.2,4.9 -1,7.1 -0.9,2.1 -2.2,4.4 -3.9,6.2 z m 59.6,-41.6 c -0.9,4.3 -2.8,8.4 -5.5,11.7 -2.6,3.2 -5.9,5.7 -9.3,7 -0.2,-1.6 -0.6,-3.2 -1.2,-4.7 -0.5,-1.5 -1.3,-2.8 -2.2,-4.1 -1.8,-2.4 -4.1,-4.2 -6.8,-5.2 -2.9,-1.1 -6.3,-1.2 -8.9,-0.7 -2.6,0.5 -4.3,1.6 -4.5,4.1 -0.2,3 1.2,6.1 3.7,8.8 2.4,2.7 5.9,4.7 9.3,5.5 2.6,0.5 5.3,0.6 8,0 0,1.3 -0.2,2.6 -0.4,3.8 -0.2,1.2 -0.5,2.5 -1,3.5 -1,2.7 -2.8,4.8 -5,6.6 -2.2,1.8 -4.7,3.4 -7.2,5 -4.2,2.3 -8.8,4 -13.4,4.3 -4.6,0.4 -9,-0.3 -12.7,-2.3 l -0.3,-0.2 c 1.1,-1.3 2.1,-2.6 2.9,-4.1 0.8,-1.5 1.3,-2.9 1.7,-4.4 0.7,-3 0.5,-6.1 -0.4,-8.9 -0.9,-2.9 -2.8,-5.6 -4.6,-7.1 -1.8,-1.6 -3.5,-2 -5.5,-0.2 -0.6,0.5 -1,1.2 -1.7,1.8 -0.7,0.7 -1.2,1.4 -1.7,2.2 -0.9,1.6 -1.3,3.5 -1.4,5.4 -0.2,3.8 0.8,8 2.5,11 1,1.7 2.4,3.4 4,4.6 -0.4,0.4 -0.8,0.8 -1.3,1.1 -0.9,0.6 -1.8,1.2 -2.8,1.7 -0.9,0.5 -1.9,1 -2.8,1.4 -1.7,0.9 -3.6,1.6 -5.4,2.1 -3.7,1 -7.6,1.4 -11.5,0.9 -6.5,-0.8 -12.7,-4.1 -17.3,-8.8 4.7,-3.8 8.6,-8.9 9,-14.8 0.4,-6.1 -5,-13.3 -11.7,-11 -7.9,2.7 -7.5,12.5 -4.8,18.8 1,2.4 2.4,4.6 3.9,6.6 -1.9,1.3 -3.9,2.4 -5.7,3.1 -4.3,1.8 -8.6,0.2 -13.2,0.1 -7.3,-1 -14.6,-3 -20.1,-8 l -0.2,-0.2 c 4.7,-4.3 8.4,-9.9 8.4,-15.9 0,-6.1 -5.9,-12.7 -12.3,-9.4 -7.4,3.7 -6.2,14.3 -3,20.3 0.9,1.8 2.1,3.4 3.4,4.8 -0.4,0.3 -0.8,0.7 -1.2,1 -6.3,4.6 -14.1,7 -21.9,6 -6.5,-0.8 -12.8,-4.1 -17.2,-8.8 4.5,-3.8 8.6,-8.9 8.9,-14.8 0.2,-3.1 -1,-6.4 -3.2,-8.7 -0.5,-0.6 -1.1,-1.1 -1.8,-1.5 -0.7,-0.4 -1.2,-0.7 -2.3,-1 -2,-0.4 -4.2,-0.4 -6.4,0.4 -2.6,0.9 -4.2,2.4 -5.2,4 -1,1.6 -1.3,3.4 -1.1,5.2 0.3,3.6 2.1,7.3 3.9,10.2 1.4,2.1 2.8,4.2 4.2,6 -0.7,0.8 -1.4,1.4 -2.1,2.1 -0.6,0.6 -1.3,1.3 -1.8,1.8 -0.7,0.6 -1.4,1.1 -2.1,1.4 -0.4,0.2 -0.7,0.3 -1.1,0.4 -0.4,0.1 -0.7,0.3 -1.1,0.4 -0.7,0.2 -1.5,0.3 -2.3,0.6 -0.8,0.2 -1.5,0.4 -2.2,0.9 -2.4,0.8 -4.9,1.7 -7.5,2.5 -1.4,0.3 -2.7,0.8 -4.2,1 -1.4,0.4 -3,0.5 -4.7,0.8 l -0.3,0 c -0.3,-1.4 -0.6,-2.9 -1,-4.4 -0.3,-1.5 -0.8,-3 -1.2,-4.5 -0.9,-2.9 -2.2,-5.7 -4.4,-7.8 -2.2,-2.1 -5.9,-3 -9.6,-1.8 -1.9,0.5 -3.5,1.7 -5,3.2 -1.4,1.5 -2.4,3.5 -2.8,5.8 -0.8,5.3 1.9,8.4 5.4,10 3.5,1.7 7.7,2.2 11.1,2.2 1,0 1.9,0 2.8,-0.1 0.9,0 1.9,-0.1 2.7,-0.2 0.1,0.5 0.2,0.9 0.3,1.4 0.3,1.7 0.7,3.4 1,4.9 0.3,1.6 0.6,2.8 0.4,5 -0.3,3.9 -1.3,7.7 -3.1,11.1 -3,5.8 -8.2,10.5 -14.2,13.1 -1.9,-5.7 -5.4,-11.2 -10.7,-13.6 -5.6,-2.5 -14.2,0.1 -14.4,7.2 -0.2,8.3 9.2,11.3 15.9,11 2.6,-0.1 5.2,-0.6 7.5,-1.4 0.6,2.3 0.9,4.5 1,6.4 0.2,4.7 -2.8,8.2 -4.5,12.4 -3.4,6.5 -7.9,12.6 -14.5,16.1 l -0.3,0.1 c -2.4,-5.8 -6.4,-11.3 -12,-13.3 -5.8,-2.1 -13.9,1.2 -13.1,8.3 1,8.2 11.2,10.8 18,9.9 2,-0.3 3.9,-0.8 5.7,-1.5 0.2,0.5 0.4,1 0.5,1.5 2.2,7.5 1.7,15.7 -1.9,22.6 -3,5.8 -8.2,10.5 -14.2,13.1 -1.9,-5.7 -5.4,-11.2 -10.7,-13.6 -2.8,-1.3 -6.4,-1.2 -9.2,0 -1.4,0.6 -2.7,1.5 -3.6,2.7 -0.5,0.6 -0.8,1.3 -1.1,2 -0.1,0.4 -0.2,0.8 -0.3,1.2 0,0.2 -0.1,0.4 -0.1,0.6 0,0.2 0,0.3 0,0.5 0.4,3 2.4,5.7 5.4,7.9 2.9,2.1 6.8,3.4 10.3,3.5 1.3,0 2.6,-0.1 4,-0.4 0.7,-0.1 1.3,-0.3 2,-0.5 0.7,-0.2 1.3,-0.4 1.9,-0.6 0.2,0.5 0.2,1.2 0.3,1.8 0.1,0.6 0.1,1.3 0.1,1.9 0,1.3 0,2.5 -0.2,3.6 -0.4,2.8 -1.8,5.3 -3.6,7.5 -0.9,1.1 -1.9,2.2 -2.9,3.2 -1.1,1 -2.1,2.1 -3.1,3.1 -7.2,6.4 -17.1,9.7 -25.1,7.3 l -0.3,-0.1 c 1.7,-2.9 2.7,-6.2 2.7,-9.2 0.1,-3.1 -0.7,-6 -2.2,-8.6 -0.8,-1.3 -1.7,-2.6 -2.8,-3.6 -1,-1 -2.2,-1.9 -3.2,-2.5 -2.1,-1.2 -3.8,-1.2 -5.4,0.9 -1.8,2.5 -2.6,6.2 -2.3,10.1 0.3,3.9 1.9,7.8 4.2,10.4 1.4,1.5 3,2.8 4.9,3.7 -0.3,0.5 -0.7,0.9 -1.1,1.3 -2.9,3.2 -7,5.6 -11.8,6.9 -4.7,1.3 -10.1,1.3 -15.2,-0.2 -4.2,-1.3 -8.1,-3.6 -11.2,-6.5 -3,-3 -5.1,-6.4 -6.1,-10 1.7,0 3.3,-0.2 4.8,-0.6 1.6,-0.4 2.9,-0.9 4.3,-1.7 2.6,-1.5 4.6,-3.7 5.9,-6.3 1.4,-2.8 1.8,-6.1 1.6,-8.7 -0.3,-2.6 -1,-4.4 -3.5,-4.8 -2.9,-0.5 -6.1,0.6 -9.1,2.7 -2.9,2.1 -5.4,5.3 -6.5,8.6 -0.8,2.5 -1.2,5.3 -0.8,7.9 -1.3,-0.2 -2.6,-0.5 -3.8,-0.9 -1.2,-0.4 -2.4,-0.8 -3.4,-1.4 -2.6,-1.3 -4.5,-3.4 -6,-5.8 -0.7,-1.2 -1.5,-2.5 -2.1,-3.7 -0.6,-1.3 -1.3,-2.6 -2,-3.9 -2.8,-6.8 -4.7,-14.1 -3.1,-21.5 0,-0.1 0.1,-0.2 0.1,-0.3 6,1.9 12.8,2.3 17.9,-0.7 5.3,-3.1 8,-11.5 2,-15.4 -6.9,-4.5 -15.5,1.8 -19.1,7.5 -1.1,1.7 -1.9,3.5 -2.5,5.3 -0.5,-0.2 -1,-0.3 -1.4,-0.6 -7.1,-3.1 -13.1,-8.8 -16.2,-16 -2.6,-6 -2.8,-13.1 -1,-19.3 5.6,2.2 12,3 17.3,0.4 5.5,-2.7 9,-10.9 3.6,-15.7 -6.3,-5.5 -14.6,-0.2 -18.7,5.2 -1.6,2.1 -2.8,4.4 -3.8,6.7 -2.1,-1 -4,-2.2 -5.5,-3.3 -3.7,-2.8 -4.5,-7.4 -6.7,-11.4 -2.8,-6.8 -4.7,-14.1 -3.1,-21.5 l 0.1,-0.3 c 6,1.9 12.8,2.3 17.9,-0.7 5.3,-3.1 8,-11.5 2,-15.4 -6.9,-4.5 -15.5,1.8 -19.1,7.5 -1.1,1.7 -1.9,3.5 -2.5,5.3 -0.5,-0.2 -1,-0.3 -1.4,-0.6 -3.6,-1.5 -6.9,-3.8 -9.6,-6.4 -2.3,-1.7 -4.2,-3.3 -5.7,-5.4 -1.2,-1.7 -2.2,-3.6 -3,-6 -0.9,-2.2 -1.6,-4.9 -2.4,-7.7 1.3,-0.5 2.6,-1.1 3.9,-1.6 1.3,-0.6 2.7,-1.2 4,-1.9 2.6,-1.3 5.1,-3 6.8,-5.4 1.8,-2.4 2.4,-6.2 0.9,-9.6 -0.7,-1.7 -1.9,-3.4 -3.5,-4.5 -0.8,-0.6 -1.7,-1.2 -2.7,-1.5 -1,-0.4 -2.1,-0.6 -3.3,-0.7 -2.7,-0.2 -4.8,0.5 -6.3,1.5 -1.5,1.1 -2.5,2.6 -3.2,4.3 -1.2,3.4 -1,7.5 -0.6,10.8 0.4,2.6 0.9,4.9 1.4,7.2 -1.9,0.7 -3.7,1.4 -5.1,1.9 -0.9,0.3 -1.7,0.5 -2.5,0.5 -0.8,0 -1.5,0 -2.3,-0.2 -1.5,-0.2 -3.1,-0.6 -4.7,-0.5 -0.6,-0.1 -1.3,-0.1 -1.9,-0.2 l -1,-0.1 c -0.2,0 -0.3,0 -0.5,-0.1 l -0.7,0 c -1.8,-0.1 -3.7,-0.3 -5.5,-0.6 -3.6,-0.7 -7.1,-1.9 -10.2,-3.9 l -0.3,-0.2 c 3.9,-5 6.6,-11.2 5.6,-17.1 -1.1,-6 -8,-11.5 -13.7,-7.2 -6.6,4.9 -3.7,15.1 0.5,20.5 1.2,1.6 2.6,3 4.1,4.2 -0.3,0.4 -0.7,0.8 -1,1.2 -5.4,5.6 -12.8,9.3 -20.6,9.7 -6.5,0.3 -13.2,-1.9 -18.5,-5.8 4,-4.5 7,-10.2 6.4,-16.1 -0.6,-6.1 -7.1,-12.3 -13.4,-8.8 -7.3,4 -5.2,13.6 -1.6,19.3 1.4,2.2 3.1,4.2 5,5.8 -1.7,1.6 -3.4,3 -5.1,4 -3.9,2.5 -8.5,1.7 -13,2.3 -7.3,0.3 -14.9,-0.5 -21.2,-4.5 l -0.3,-0.2 c 3.9,-5 6.6,-11.2 5.6,-17.1 -1.1,-6 -8,-11.5 -13.7,-7.2 -6.6,4.9 -3.7,15.1 0.5,20.5 1.2,1.6 2.6,3 4.1,4.2 -0.3,0.4 -0.7,0.8 -1,1.2 -2.7,2.8 -5.9,5.1 -9.4,6.8 -0.9,0.4 -1.8,0.8 -2.7,1.1 -0.9,0.3 -1.7,0.6 -3.1,0.8 -1.3,0.2 -2.5,0.4 -3.8,0.5 -1.3,0 -2.6,0 -3.9,-0.1 -4.4,-0.4 -8.7,-1.8 -12.3,-4.1 -1.8,-1.1 -3.4,-2.5 -4.7,-3.9 -1.3,-1.5 -2.5,-3 -3.3,-4.6 3.3,-0.7 6.2,-2.2 8.4,-4.2 2.2,-2 3.7,-4.5 4.5,-7.3 0.8,-2.9 0.5,-6.4 -0.2,-8.9 -0.7,-2.6 -1.9,-4 -4.4,-4 -2.9,0.1 -5.9,1.9 -8.4,4.5 -2.4,2.6 -4.2,6.4 -4.6,9.8 -0.3,2.6 -0.1,5.4 0.8,8 -2.6,0.2 -5.2,-0.2 -7.5,-0.7 -1.4,-0.4 -2.6,-1 -3.8,-1.7 -1.1,-0.8 -2.2,-1.7 -3.3,-2.7 -2,-2 -3.7,-4.4 -5.6,-6.7 -5.5,-7.7 -7.8,-17.8 -4.7,-25.6 l 0.1,-0.3 c 1.4,1 2.9,1.8 4.4,2.4 1.5,0.6 3.1,1 4.6,1.2 3,0.4 6.1,-0.2 8.8,-1.4 2.8,-1.3 5.2,-3.5 6.6,-5.4 1.4,-2 1.6,-3.7 -0.4,-5.4 -2.3,-2 -5.9,-3.2 -9.8,-3.2 -3.9,-0.1 -7.9,1.1 -10.8,3.2 -1.7,1.2 -3,2.8 -4.2,4.5 -0.4,-0.4 -0.8,-0.8 -1.2,-1.2 -2.9,-3.2 -5,-7.6 -5.7,-12.5 -0.8,-4.9 -0.2,-10.4 2,-15.3 1.8,-4 4.5,-7.7 7.7,-10.2 1.7,-1.5 3,-2 4.6,-2.7 1.5,-0.7 3.1,-1.2 4.7,-1.6 0.9,5.9 3.4,12 8.4,15.1 1.3,0.8 2.7,1.5 4.3,1.8 1.6,0.3 3.2,0.2 4.7,-0.1 3,-0.7 5.6,-2.7 6.3,-6.3 1.6,-8.2 -7.1,-12.7 -13.9,-13.6 -2.6,-0.3 -5.2,-0.3 -7.7,0.1 -0.2,-2.3 -0.1,-4.5 0.1,-6.5 0.6,-4.6 4.1,-7.6 6.5,-11.5 4.5,-5.8 9.9,-11.1 17,-13.4 0.1,0 0.2,-0.1 0.3,-0.1 1.4,6.2 4.4,12.2 9.6,15.2 5.3,3 13.9,1.2 14.3,-6 0.4,-8.3 -9.3,-12.5 -16.1,-12.8 -2,-0.1 -4,0.1 -5.8,0.5 -0.1,-0.5 -0.2,-1 -0.2,-1.5 -0.9,-7.7 1,-15.7 5.7,-22 3.9,-5.2 9.9,-9 16.3,-10.5 0.9,6 3.4,11.9 8.3,15.2 5.1,3.4 14,2.3 15.4,-4.7 1.6,-8.2 -7.1,-12.7 -13.9,-13.6 -2.6,-0.3 -5.2,-0.3 -7.7,0.1 -0.2,-2.3 -0.1,-4.5 0.1,-6.5 0.6,-4.6 4.1,-7.6 6.5,-11.5 1.1,-1.5 2.3,-2.9 3.5,-4.2 0.7,-0.8 1.1,-1.1 1.6,-1.6 0.5,-0.5 1.1,-0.9 1.6,-1.3 2.2,-1.8 4.4,-3.5 7.4,-5.2 l 0.3,-0.1 c 1.7,2.4 3.6,5 5.6,7.3 2.1,2.3 4.4,4.3 7.2,5.3 1.4,0.5 3.1,0.6 4.7,0.2 1.7,-0.4 3.4,-1.2 4.7,-2.5 1.4,-1.3 2.6,-2.9 3.2,-4.9 0.7,-1.9 0.8,-4.2 0.2,-6.4 -1.5,-5.2 -5.1,-6.9 -9,-7 -3.8,-0.1 -8,1.2 -11,2.5 -1.8,0.8 -3.5,1.6 -5,2.5 -0.3,-0.4 -0.6,-0.8 -0.9,-1.1 -2,-2.8 -3.9,-5.5 -5.3,-7.9 -1.4,-2.5 -2.4,-4.8 -3,-7.2 -0.2,-1.1 -0.4,-2.1 -0.4,-3.2 -0.1,-1.1 0,-2.3 0,-3.5 0.1,-1.2 0.2,-2.5 0.4,-3.9 0.1,-0.7 0.2,-1.3 0.3,-2.1 0,-0.8 0.1,-1.6 0.2,-2.5 3,0.7 5.8,0.6 8.8,0.4 2.9,-0.2 5.8,-0.7 8.4,-2.1 2.7,-1.5 4.7,-4.7 4.8,-8.4 0,-0.9 -0.1,-1.9 -0.2,-2.8 -0.1,-0.8 -0.3,-1.5 -0.6,-2.2 -0.6,-1.4 -1.6,-2.6 -3.1,-3.6 -7.1,-4.4 -14.4,2.3 -17.5,8.3 -1.2,2.4 -2,4.8 -2.6,7.2 -2.2,-0.6 -4.3,-1.5 -6,-2.4 -4.2,-2.1 -5.7,-6.5 -8.5,-10.1 -3.9,-6.2 -7,-13.1 -6.7,-20.6 0,-0.1 0,-0.2 0,-0.3 6.3,0.8 13,0.1 17.6,-3.7 4.7,-4 6,-12.6 -0.6,-15.5 -7.6,-3.3 -15,4.3 -17.5,10.7 -0.8,1.9 -1.3,3.8 -1.5,5.6 -0.5,-0.1 -1,-0.2 -1.5,-0.3 -7.6,-1.9 -14.4,-6.4 -18.6,-13 -3.5,-5.5 -5,-12.4 -4.3,-18.9 5.9,1.2 12.4,0.9 17.1,-2.5 5,-3.6 7,-12.3 0.9,-16 -7.1,-4.4 -14.4,2.3 -17.5,8.3 -1.2,2.3 -2,4.8 -2.6,7.2 -2.2,-0.6 -4.3,-1.5 -6,-2.4 -4.2,-2.1 -5.7,-6.5 -8.5,-10.1 -2,-3.1 -3.7,-6.4 -4.9,-9.8 -1.6,-4.1 -2.4,-8.5 -1.7,-12.6 l 0.1,-0.4 c 1.6,0.7 3.2,1.2 4.8,1.4 1.6,0.3 3.2,0.3 4.7,0.2 3,-0.3 5.9,-1.4 8.3,-3.1 2.4,-1.8 4.4,-4.5 5.3,-6.6 1,-2.2 0.8,-3.9 -1.5,-5.2 -2.7,-1.5 -6.4,-1.9 -10.2,-1.2 -3.8,0.7 -7.5,2.7 -9.9,5.3 -1.3,1.5 -2.4,3.3 -3.1,5.3 -0.5,-0.3 -1,-0.6 -1.4,-0.9 -3.5,-2.5 -6.4,-6.4 -8.2,-11.1 -1.8,-4.7 -2.2,-10.1 -1.2,-15.3 0.9,-4.3 2.8,-8.4 5.5,-11.7 2.6,-3.2 5.9,-5.7 9.3,-7 0.2,1.6 0.6,3.2 1.2,4.7 0.5,1.5 1.3,2.8 2.2,4.1 1.8,2.4 4.1,4.2 6.8,5.3 2.9,1.1 6.3,1.2 8.9,0.7 2.6,-0.5 4.3,-1.6 4.5,-4.1 0.2,-3 -1.2,-6.1 -3.7,-8.8 -2.4,-2.7 -5.9,-4.7 -9.3,-5.5 -2.6,-0.5 -5.3,-0.6 -8,0 0,-1.3 0.2,-2.6 0.4,-3.8 0.2,-1.2 0.5,-2.5 1,-3.5 1,-2.7 2.8,-4.8 5,-6.6 2.2,-1.8 4.7,-3.4 7.2,-5 4.2,-2.3 8.8,-4 13.4,-4.3 4.6,-0.4 9,0.3 12.7,2.3 l 0.3,0.2 c -1.1,1.3 -2.1,2.6 -2.9,4.1 -0.8,1.5 -1.3,2.9 -1.7,4.4 -0.7,3 -0.5,6.1 0.4,8.9 0.9,2.9 2.8,5.6 4.6,7.1 1.8,1.6 3.5,2 5.5,0.2 0.6,-0.5 1,-1.2 1.7,-1.8 0.7,-0.7 1.2,-1.4 1.7,-2.2 0.9,-1.6 1.3,-3.5 1.4,-5.4 0.2,-3.8 -0.8,-8 -2.5,-11 -1,-1.7 -2.4,-3.4 -4,-4.6 0.4,-0.4 0.8,-0.8 1.3,-1.1 0.9,-0.6 1.8,-1.2 2.8,-1.7 0.9,-0.5 1.9,-1 2.8,-1.4 1.7,-0.9 3.6,-1.6 5.4,-2.1 3.7,-1 7.6,-1.4 11.5,-0.9 6.5,0.8 12.7,4.1 17.3,8.8 -4.7,3.8 -8.6,8.9 -9,14.8 -0.4,6.1 5,13.3 11.7,11 7.9,-2.7 7.5,-12.5 4.8,-18.8 -1,-2.4 -2.4,-4.6 -3.9,-6.6 1.9,-1.3 3.9,-2.4 5.7,-3.1 4.3,-1.8 8.6,-0.2 13.2,-0.1 7.3,1 14.6,3 20.1,8 l 0.2,0.2 c -4.7,4.3 -8.4,9.9 -8.4,15.9 0,6.1 5.9,12.7 12.3,9.4 7.4,-3.7 6.2,-14.3 3,-20.3 -0.9,-1.8 -2.1,-3.4 -3.4,-4.8 0.4,-0.3 0.8,-0.7 1.2,-1 6.3,-4.6 14.1,-7 21.9,-6 6.5,0.8 12.8,4.1 17.2,8.8 -4.5,3.8 -8.6,8.9 -8.9,14.8 -0.2,3.1 1,6.4 3.2,8.7 0.5,0.6 1.1,1.1 1.8,1.5 0.7,0.4 1.2,0.7 2.3,1 2,0.4 4.2,0.4 6.4,-0.4 2.6,-0.9 4.2,-2.4 5.2,-4 1,-1.6 1.3,-3.4 1.1,-5.2 -0.3,-3.6 -2.1,-7.3 -3.9,-10.2 -1.4,-2.1 -2.8,-4.2 -4.2,-6 0.7,-0.8 1.4,-1.4 2.1,-2.1 0.6,-0.6 1.3,-1.3 1.8,-1.8 0.7,-0.6 1.4,-1.1 2.1,-1.4 0.4,-0.2 0.7,-0.3 1.1,-0.4 0.4,-0.1 0.7,-0.3 1.1,-0.4 0.7,-0.2 1.5,-0.3 2.3,-0.6 0.8,-0.2 1.5,-0.4 2.2,-0.9 2.4,-0.8 4.9,-1.7 7.5,-2.5 1.4,-0.3 2.7,-0.8 4.2,-1 1.4,-0.4 3,-0.5 4.7,-0.8 l 0.3,0 c 0.3,1.4 0.6,2.9 1,4.4 0.3,1.5 0.8,3 1.2,4.5 0.9,2.9 2.2,5.7 4.4,7.8 2.2,2.1 5.9,3 9.6,1.8 1.9,-0.5 3.5,-1.7 5,-3.2 1.4,-1.5 2.4,-3.5 2.8,-5.8 0.8,-5.3 -1.9,-8.4 -5.4,-10.1 -3.5,-1.7 -7.7,-2.1 -11.1,-2.2 -1,0 -1.9,0 -2.8,0.1 -0.9,0 -1.9,0.1 -2.7,0.2 -0.1,-0.5 -0.2,-0.9 -0.3,-1.4 -0.3,-1.7 -0.7,-3.4 -1,-4.9 -0.3,-1.6 -0.6,-2.8 -0.4,-5 0.3,-3.9 1.3,-7.7 3.1,-11.1 3,-5.8 8.2,-10.5 14.2,-13.1 1.9,5.7 5.4,11.2 10.7,13.6 5.6,2.5 14.2,-0.1 14.4,-7.2 0.2,-8.3 -9.2,-11.3 -15.9,-11 -2.6,0.1 -5.2,0.6 -7.5,1.4 -0.6,-2.3 -0.9,-4.5 -1,-6.4 -0.2,-4.7 2.8,-8.2 4.5,-12.4 3.4,-6.5 7.9,-12.6 14.5,-16.1 l 0.3,-0.1 c 2.4,5.8 6.4,11.3 12,13.4 5.8,2.1 13.9,-1.2 13.1,-8.3 -1,-8.2 -11.2,-10.8 -18,-9.9 -2,0.3 -3.9,0.8 -5.7,1.5 -0.2,-0.5 -0.4,-1 -0.5,-1.5 -2.2,-7.5 -1.7,-15.7 1.9,-22.6 3,-5.8 8.2,-10.5 14.2,-13.1 1.9,5.7 5.4,11.2 10.7,13.6 2.8,1.3 6.4,1.2 9.2,0 1.4,-0.6 2.7,-1.5 3.6,-2.7 0.5,-0.6 0.8,-1.3 1.1,-2 0.1,-0.4 0.2,-0.8 0.3,-1.2 0,-0.2 0.1,-0.4 0.1,-0.6 0,-0.2 0,-0.3 0,-0.5 -0.4,-3 -2.4,-5.7 -5.4,-7.9 -2.9,-2.1 -6.8,-3.4 -10.3,-3.5 -1.3,0 -2.6,0.1 -4,0.4 -0.7,0.1 -1.3,0.3 -2,0.5 -0.7,0.2 -1.3,0.4 -1.9,0.6 -0.2,-0.5 -0.2,-1.2 -0.3,-1.8 -0.1,-0.6 -0.1,-1.3 -0.1,-1.9 0,-1.3 0,-2.5 0.2,-3.6 0.4,-2.8 1.8,-5.3 3.6,-7.5 0.9,-1.1 1.9,-2.2 2.9,-3.2 1.1,-1 2.1,-2.1 3.1,-3.1 7.2,-6.4 17.1,-9.7 25.1,-7.3 l 0.3,0.1 c -1.7,2.9 -2.7,6.2 -2.7,9.2 -0.1,3.1 0.7,6 2.2,8.6 0.8,1.3 1.7,2.6 2.8,3.6 1,1 2.1,1.9 3.2,2.5 2.1,1.2 3.8,1.2 5.4,-0.9 1.8,-2.5 2.6,-6.2 2.3,-10.1 -0.3,-3.9 -1.9,-7.8 -4.2,-10.4 -1.4,-1.5 -3,-2.8 -4.9,-3.7 0.3,-0.5 0.7,-0.9 1.1,-1.3 2.9,-3.2 7,-5.6 11.8,-6.9 4.7,-1.3 10.1,-1.3 15.2,0.2 4.2,1.3 8.1,3.6 11.2,6.5 3,3 5.1,6.4 6.1,10 -1.7,0 -3.3,0.2 -4.8,0.6 -1.6,0.4 -2.9,0.9 -4.3,1.7 -2.6,1.5 -4.6,3.7 -5.9,6.3 -1.4,2.8 -1.8,6.1 -1.6,8.7 0.3,2.6 1,4.4 3.5,4.8 2.9,0.5 6.1,-0.6 9.1,-2.7 2.9,-2.1 5.4,-5.3 6.5,-8.6 0.8,-2.5 1.2,-5.3 0.8,-7.9 1.3,0.2 2.6,0.5 3.8,0.9 1.2,0.4 2.4,0.8 3.4,1.4 2.6,1.3 4.5,3.4 6,5.8 0.7,1.2 1.5,2.5 2.1,3.7 0.6,1.3 1.3,2.6 2,3.9 2.8,6.8 4.7,14.1 3.1,21.5 0,0.1 -0.1,0.2 -0.1,0.3 -6,-1.9 -12.8,-2.3 -17.9,0.7 -5.3,3.1 -8,11.5 -2,15.4 6.9,4.5 15.5,-1.8 19.1,-7.5 1.1,-1.7 1.9,-3.5 2.5,-5.3 0.5,0.2 1,0.3 1.4,0.6 7.1,3.1 13.1,8.8 16.2,16 2.6,6 2.8,13.1 1,19.3 -5.6,-2.2 -12,-3 -17.3,-0.4 -5.5,2.7 -9,10.9 -3.6,15.7 6.3,5.5 14.6,0.2 18.7,-5.2 1.6,-2.1 2.8,-4.4 3.8,-6.7 2.1,1 4,2.2 5.5,3.3 3.7,2.8 4.5,7.4 6.7,11.4 2.8,6.8 4.7,14.1 3.1,21.5 l -0.1,0.3 c -6,-1.9 -12.8,-2.3 -17.9,0.7 -5.3,3.1 -8,11.5 -2,15.4 6.9,4.5 15.5,-1.8 19.1,-7.5 1.1,-1.7 1.9,-3.5 2.5,-5.3 0.5,0.2 1,0.3 1.4,0.6 3.6,1.5 6.9,3.8 9.6,6.4 2.3,1.7 4.2,3.3 5.7,5.4 1.2,1.7 2.2,3.6 3,6 0.9,2.2 1.6,4.9 2.4,7.7 -1.3,0.5 -2.6,1.1 -3.9,1.6 -1.3,0.6 -2.7,1.2 -4,1.9 -2.6,1.3 -5.1,3 -6.8,5.4 -1.8,2.4 -2.4,6.2 -0.9,9.6 0.7,1.7 1.9,3.4 3.5,4.5 0.8,0.6 1.7,1.2 2.7,1.5 1,0.4 2.1,0.6 3.3,0.7 2.7,0.2 4.8,-0.5 6.3,-1.5 1.5,-1.1 2.5,-2.6 3.2,-4.3 1.2,-3.4 1,-7.5 0.6,-10.8 -0.4,-2.6 -0.9,-5 -1.4,-7.2 1.9,-0.7 3.7,-1.4 5.1,-1.9 0.9,-0.3 1.7,-0.5 2.5,-0.5 0.8,0 1.5,0 2.3,0.2 1.5,0.2 3.1,0.6 4.7,0.5 0.6,0.1 1.3,0.1 1.9,0.2 l 1,0.1 c 0.2,0 0.3,0 0.5,0.1 l 0.7,0 c 1.8,0.1 3.7,0.3 5.5,0.6 3.6,0.7 7.1,1.9 10.2,3.9 l 0.3,0.2 c -3.9,5 -6.6,11.2 -5.6,17.1 1.1,6 8,11.5 13.7,7.2 6.6,-4.9 3.7,-15.1 -0.5,-20.5 -1.2,-1.6 -2.6,-3 -4.1,-4.2 0.3,-0.4 0.7,-0.8 1,-1.2 5.4,-5.6 12.8,-9.3 20.6,-9.7 6.5,-0.3 13.2,1.9 18.5,5.8 -4,4.5 -7,10.2 -6.4,16.1 0.6,6.1 7.1,12.3 13.4,8.8 7.3,-4 5.2,-13.6 1.6,-19.3 -1.4,-2.2 -3.1,-4.2 -5,-5.8 1.7,-1.6 3.4,-3 5.1,-4 3.9,-2.5 8.5,-1.7 13,-2.3 7.3,-0.3 14.9,0.5 21.2,4.5 l 0.3,0.2 c -3.9,5 -6.6,11.2 -5.6,17.1 1.1,6 8,11.5 13.7,7.2 6.6,-4.9 3.7,-15.1 -0.5,-20.5 -1.2,-1.6 -2.6,-3 -4.1,-4.2 0.3,-0.4 0.7,-0.8 1,-1.2 2.7,-2.8 5.9,-5.1 9.4,-6.8 0.9,-0.4 1.8,-0.8 2.7,-1.1 0.9,-0.3 1.7,-0.6 3.1,-0.8 1.3,-0.2 2.5,-0.4 3.8,-0.5 1.3,0 2.6,0 3.9,0.1 4.4,0.4 8.7,1.8 12.3,4.1 1.8,1.1 3.4,2.5 4.7,3.9 1.3,1.5 2.5,3 3.3,4.6 -3.3,0.7 -6.2,2.2 -8.4,4.2 -2.2,2 -3.7,4.5 -4.5,7.3 -0.8,2.9 -0.5,6.4 0.2,8.9 0.7,2.6 1.9,4.1 4.4,4 2.9,-0.1 5.9,-1.9 8.4,-4.5 2.4,-2.6 4.2,-6.4 4.6,-9.8 0.3,-2.6 0.1,-5.4 -0.8,-8 2.6,-0.2 5.2,0.2 7.5,0.7 1.4,0.4 2.6,1 3.8,1.7 1.1,0.8 2.2,1.7 3.3,2.7 2,2 3.7,4.4 5.6,6.7 5.5,7.7 7.8,17.8 4.7,25.6 l -0.1,0.3 c -1.4,-1 -2.9,-1.8 -4.4,-2.4 -1.5,-0.6 -3.1,-1 -4.6,-1.2 -3,-0.4 -6.1,0.2 -8.8,1.4 -2.8,1.3 -5.2,3.5 -6.6,5.4 -1.4,2 -1.6,3.7 0.4,5.4 2.3,2 5.9,3.2 9.8,3.2 3.9,0.1 7.9,-1.1 10.8,-3.2 1.7,-1.2 3,-2.8 4.2,-4.5 0.4,0.4 0.8,0.8 1.2,1.2 2.9,3.2 5,7.6 5.7,12.5 0.8,4.9 0.2,10.4 -2,15.3 -1.8,4 -4.5,7.7 -7.7,10.2 -1.7,1.5 -3,2 -4.6,2.7 -1.5,0.7 -3.1,1.2 -4.7,1.6 -0.9,-5.9 -3.4,-12 -8.4,-15.1 -1.3,-0.8 -2.7,-1.5 -4.3,-1.8 -1.6,-0.3 -3.2,-0.2 -4.7,0.1 -3,0.7 -5.6,2.7 -6.3,6.3 -1.6,8.2 7.1,12.7 13.9,13.6 2.6,0.3 5.2,0.3 7.7,-0.1 0.2,2.3 0.1,4.5 -0.1,6.5 -0.6,4.6 -4.1,7.6 -6.5,11.5 -4.5,5.8 -9.9,11.1 -17,13.4 -0.1,0 -0.2,0.1 -0.3,0.1 -1.4,-6.2 -4.4,-12.2 -9.6,-15.2 -5.3,-3 -13.9,-1.2 -14.3,6 -0.4,8.3 9.3,12.5 16.1,12.8 2,0.1 4,-0.1 5.8,-0.5 0.1,0.5 0.2,1 0.2,1.5 0.9,7.7 -1,15.7 -5.7,22 -3.9,5.2 -9.9,9 -16.3,10.5 -0.9,-6 -3.4,-11.9 -8.3,-15.2 -5.1,-3.4 -14,-2.3 -15.4,4.7 -1.6,8.2 7.1,12.7 13.9,13.6 2.6,0.3 5.2,0.3 7.7,-0.1 0.2,2.3 0.1,4.5 -0.1,6.5 -0.6,4.6 -4.1,7.6 -6.5,11.5 -1.1,1.5 -2.3,2.9 -3.5,4.2 -0.7,0.8 -1.1,1.1 -1.6,1.6 -0.5,0.5 -1.1,0.9 -1.6,1.3 -2.2,1.8 -4.4,3.5 -7.4,5.2 l -0.3,0.1 c -1.7,-2.4 -3.6,-5 -5.6,-7.3 -2.1,-2.3 -4.4,-4.3 -7.2,-5.3 -1.4,-0.5 -3.1,-0.6 -4.7,-0.2 -1.7,0.4 -3.4,1.2 -4.7,2.5 -1.4,1.3 -2.6,2.9 -3.2,4.9 -0.7,1.9 -0.8,4.2 -0.2,6.4 1.5,5.2 5.1,6.9 9,7 3.8,0.1 8,-1.2 11,-2.5 1.8,-0.8 3.5,-1.6 5,-2.5 0.3,0.4 0.6,0.8 0.9,1.1 2,2.8 3.9,5.5 5.3,7.9 1.4,2.5 2.4,4.8 3,7.2 0.2,1.1 0.4,2.1 0.4,3.2 0.1,1.1 0,2.3 0,3.5 -0.1,1.2 -0.2,2.5 -0.4,3.9 -0.1,0.7 -0.2,1.3 -0.3,2.1 0,0.8 -0.1,1.6 -0.2,2.5 -3,-0.7 -5.8,-0.6 -8.8,-0.4 -2.9,0.2 -5.8,0.7 -8.4,2.1 -2.7,1.5 -4.7,4.7 -4.8,8.4 0,0.9 0.1,1.9 0.2,2.8 0.1,0.8 0.3,1.5 0.6,2.2 0.6,1.4 1.6,2.6 3.1,3.6 7.1,4.4 14.4,-2.3 17.5,-8.3 1.2,-2.3 2,-4.8 2.6,-7.2 2.2,0.6 4.3,1.5 6,2.4 4.2,2.1 5.7,6.5 8.5,10.1 3.9,6.2 7,13.1 6.7,20.6 0,0.1 0,0.2 0,0.3 -6.3,-0.8 -13,-0.1 -17.6,3.7 -4.7,4 -6,12.6 0.6,15.5 7.6,3.3 15,-4.3 17.5,-10.7 0.8,-1.9 1.3,-3.8 1.5,-5.6 0.5,0.1 1,0.2 1.5,0.3 7.6,1.9 14.4,6.4 18.6,13 3.5,5.5 5,12.4 4.3,18.9 -5.9,-1.2 -12.4,-0.9 -17.1,2.5 -5,3.6 -7,12.3 -0.9,16 7.1,4.4 14.4,-2.3 17.5,-8.3 1.2,-2.4 2,-4.8 2.6,-7.2 2.2,0.6 4.3,1.5 6,2.4 4.2,2.1 5.7,6.5 8.5,10.1 2,3.1 3.7,6.4 4.9,9.8 1.6,4.1 2.4,8.5 1.7,12.6 l -0.1,0.4 c -1.6,-0.7 -3.2,-1.2 -4.8,-1.4 -1.6,-0.3 -3.2,-0.3 -4.7,-0.2 -3,0.3 -5.9,1.4 -8.3,3.1 -2.4,1.8 -4.4,4.5 -5.3,6.6 -1,2.2 -0.8,3.9 1.5,5.2 2.7,1.5 6.4,1.9 10.2,1.2 3.8,-0.7 7.5,-2.7 9.9,-5.3 1.3,-1.5 2.4,-3.3 3.1,-5.3 0.5,0.3 1,0.6 1.4,0.9 3.5,2.5 6.4,6.4 8.2,11.1 1.8,4.5 2.2,10 1.2,15.2 z m -17.3,19.5 -0.2,0.1 c -4.2,1 -8.7,0.5 -12.2,-1.5 -2.9,-1.3 -5,-4.4 -5.5,-7 -0.7,-3.5 0.6,-5.7 4.5,-5.5 3.4,0.2 6.6,1.2 9.1,3.8 0.3,0.3 1.8,2.6 2.9,5.1 1.1,2.3 1.9,4.9 1.4,5 z m -206.6,26.7 c -1.6,0.1 -3.3,0.2 -5,0.1 -1.7,-0.1 -3.4,-0.2 -5.1,-0.6 -3.1,-0.7 -6.5,-1.7 -7.5,-5.4 -0.8,-2.8 0.9,-7.9 3.8,-10.1 1.3,-0.9 2.8,-1 4,-0.6 1.8,0.6 3.3,2.1 4.8,3.2 1.5,1.8 2.3,4.4 3.1,6.6 0.7,2.3 1.4,4.6 1.9,6.8 z m -17.5,38.7 -0.2,0.1 c -3.8,1.2 -8.2,1.8 -12.1,0.9 -3.2,-0.3 -6,-2.7 -6.9,-5.8 -1.1,-3.9 0.5,-7.8 4.8,-8.1 3.5,-0.3 6.7,0.9 9.2,3.4 0.6,0.7 6.1,9.2 5.2,9.5 z m -19.9,38.5 c -3.2,1.2 -6.7,1.8 -10.2,1.3 -3.2,-0.4 -6.5,-1.3 -8.1,-4.4 -1.2,-2.3 -1.2,-6.4 0.7,-8.5 0.8,-0.9 2.1,-1.3 3.2,-1.2 1.9,0.1 3.8,0.9 5.5,1.5 2.1,1.1 3.8,3.1 5.2,5 1.5,2 2.7,4.1 3.7,6.3 z m -17.1,40.4 -0.2,0.1 c -1.9,0.6 -3.9,1.1 -6.1,1.3 -2.1,0.2 -4.2,0 -6,-0.6 -3.1,-0.7 -5.7,-3.2 -6.8,-5.8 -0.2,-0.4 -0.3,-0.8 -0.4,-1.2 -0.1,-0.4 -0.1,-0.9 -0.1,-1.4 0.1,-0.9 0.3,-1.8 0.7,-2.5 0.8,-1.5 2.3,-2.5 4.4,-2.7 3.5,-0.3 6.7,0.9 9.2,3.4 0.7,0.7 6.1,9.1 5.3,9.4 z M 459.5,801.8 c 1.1,-3.3 2.9,-6.3 5.5,-8.7 2.3,-2.2 5.2,-4.2 8.5,-3.4 2.6,0.5 5.7,3.2 6.1,6 0.2,1.2 -0.4,2.4 -1.2,3.3 -1.2,1.4 -3.1,2.3 -4.7,3.3 -2.2,0.9 -4.8,0.9 -7.2,0.8 -2.3,-0.2 -4.6,-0.6 -7,-1.3 z m -20.1,-39 c 0,-0.1 0,-0.1 0.1,-0.2 1.5,-3.7 3.9,-7.4 7,-9.9 2.3,-2.2 5.9,-2.9 8.9,-1.7 3.7,1.6 5.6,5.4 3.2,8.8 -2.1,2.9 -5,4.6 -8.5,4.9 -1,0.1 -11.1,-1.1 -10.7,-1.9 z m -16.9,-40 c 1.1,-3.3 2.9,-6.3 5.5,-8.7 2.3,-2.2 5.2,-4.2 8.5,-3.4 2.6,0.5 5.7,3.2 6.1,6 0.2,1.2 -0.4,2.4 -1.2,3.3 -1.2,1.4 -3.1,2.3 -4.7,3.3 -2.2,0.9 -4.8,0.9 -7.2,0.8 -2.3,-0.2 -4.7,-0.6 -7,-1.3 z M 198.7,654.5 c 0.9,-1.6 2.2,-2.9 3.5,-4 1.4,-1.1 2.8,-1.9 4.5,-2.5 3,-1.1 6.4,-1.4 9.2,0.1 1.1,0.5 2.1,1.4 2.8,2.3 0.8,0.9 1.1,1.9 1,2.9 -0.2,0.8 -1,1.7 -1.9,2.3 -1.5,1 -3.5,1.6 -5.2,2.3 -2.3,0.6 -4.9,0.3 -7.2,-0.2 -2.3,-0.6 -4.7,-1.6 -6.7,-3.2 z m 12.4,-45.6 0.2,0 c 3.9,-0.6 8.4,-0.4 12.1,1.2 3.1,0.9 5.5,3.7 5.9,6.8 0.5,4 -1.8,7.6 -6.1,7.2 -3.5,-0.3 -6.5,-2.1 -8.5,-4.9 -0.5,-0.9 -4.5,-10.2 -3.6,-10.3 z m 26.2,-34.6 c 3.4,-0.7 6.9,-0.6 10.3,0.4 3.1,0.9 6.2,2.4 7.2,5.7 0.8,2.5 0.1,6.5 -2.1,8.3 -0.9,0.8 -2.2,0.9 -3.4,0.6 -1.8,-0.4 -3.5,-1.6 -5.2,-2.4 -1.9,-1.5 -3.2,-3.7 -4.3,-5.8 -1.1,-2.2 -2,-4.4 -2.5,-6.8 z m 23.6,-36.9 c 0.1,0 0.1,0 0.2,0 3.9,-0.6 8.4,-0.4 12.1,1.2 3.1,0.9 5.5,3.7 5.9,6.8 0.5,4 -1.8,7.6 -6.1,7.2 -3.5,-0.3 -6.5,-2.1 -8.5,-4.9 -0.5,-0.9 -4.4,-10.2 -3.6,-10.3 z m 22.8,-34.2 c 1.5,-0.7 2.9,-1.5 4.5,-2.1 1.6,-0.6 3.3,-1.2 5,-1.5 3.1,-0.6 6.6,-1.1 9,1.9 0.9,1.1 1.5,3 1.7,5 0.1,2 -0.2,4.2 -1.1,5.7 -0.8,1.3 -2.1,2.1 -3.4,2.2 -1.9,0.2 -3.9,-0.5 -5.7,-1 -2.1,-1.1 -3.9,-3.1 -5.5,-4.8 -0.8,-0.9 -1.6,-1.8 -2.3,-2.7 -0.8,-0.8 -1.5,-1.8 -2.2,-2.7 z m -9.7,-35.6 0,-0.2 c 0.8,-3.9 2.6,-8 5.3,-11 1.9,-2.6 5.3,-3.9 8.5,-3.1 2,0.5 3.6,1.6 4.5,3 0.4,0.7 0.7,1.5 0.8,2.4 0,0.4 0,1 0,1.5 -0.1,0.5 -0.2,1.1 -0.4,1.6 -1.4,3.5 -4.3,5.3 -7.8,6 -0.5,0.1 -3.2,0.2 -5.8,0.3 -2.7,0 -5.2,-0.1 -5.1,-0.5 z m -23.4,-36.5 c 0.5,-3.4 1.8,-6.7 3.9,-9.5 1.9,-2.6 4.4,-5 7.8,-4.8 2.6,0.1 6.2,2.2 7,4.8 0.4,1.1 0.1,2.4 -0.6,3.4 -1,1.6 -2.7,2.8 -4,4 -2,1.3 -4.6,1.7 -6.9,2 -2.3,0.4 -4.8,0.3 -7.2,0.1 z m -26.4,-35 c 0,-0.1 0,-0.1 0,-0.2 0.8,-3.9 2.6,-8 5.3,-11 1.9,-2.6 5.3,-3.9 8.5,-3.1 3.9,1 6.5,4.4 4.6,8.2 -1.5,3.2 -4.2,5.3 -7.6,6.2 -0.9,0.2 -11,0.7 -10.8,-0.1 z m -22.8,-38.6 c 1.2,-3.5 3.6,-6.3 6.5,-8 2.8,-1.7 6,-2.6 9,-1.8 2.3,0.6 4.6,2.4 4.7,4.3 0,0.8 -0.6,1.8 -1.4,2.6 -1.3,1.3 -3.1,2.3 -4.6,3.3 -2.1,1 -4.7,1.3 -7.1,1.2 -2.3,0 -4.8,-0.5 -7.1,-1.6 z m 4.2,-48 0.2,-0.1 c 4.2,-1 8.7,-0.5 12.2,1.5 2.9,1.3 5,4.4 5.5,7 0.7,3.5 -0.6,5.7 -4.5,5.5 -3.4,-0.2 -6.6,-1.2 -9.1,-3.8 -0.3,-0.3 -1.8,-2.6 -2.9,-5.1 -1.2,-2.3 -1.9,-4.9 -1.4,-5 z m 206.6,-26.7 c 1.6,-0.1 3.3,-0.2 5,-0.1 1.7,0.1 3.4,0.2 5.1,0.6 3.1,0.7 6.5,1.7 7.5,5.4 0.8,2.8 -0.9,7.9 -3.8,10.1 -1.3,0.9 -2.8,1 -4,0.6 -1.8,-0.6 -3.3,-2.1 -4.8,-3.2 -1.5,-1.8 -2.3,-4.4 -3.1,-6.6 -0.8,-2.3 -1.4,-4.7 -1.9,-6.8 z m 17.5,-38.7 0.2,-0.1 c 3.8,-1.2 8.2,-1.8 12.1,-0.9 3.2,0.3 6,2.7 6.9,5.8 1.1,3.9 -0.5,7.8 -4.8,8.1 -3.5,0.3 -6.7,-0.9 -9.2,-3.4 -0.6,-0.7 -6.1,-9.2 -5.2,-9.5 z m 19.9,-38.5 c 3.2,-1.2 6.7,-1.8 10.2,-1.3 3.2,0.4 6.5,1.3 8.1,4.4 1.2,2.3 1.2,6.4 -0.7,8.5 -0.8,0.9 -2.1,1.3 -3.2,1.2 -1.9,-0.1 -3.8,-0.9 -5.5,-1.5 -2.1,-1.1 -3.8,-3.1 -5.2,-5 -1.5,-2 -2.7,-4.1 -3.7,-6.3 z m 17.1,-40.4 0.2,-0.1 c 1.9,-0.6 3.9,-1.1 6.1,-1.3 2.1,-0.2 4.2,0 6,0.6 3.1,0.7 5.7,3.2 6.8,5.8 0.2,0.4 0.3,0.8 0.4,1.2 0.1,0.4 0.1,0.9 0.1,1.4 -0.1,0.9 -0.3,1.8 -0.7,2.5 -0.8,1.5 -2.3,2.5 -4.4,2.7 -3.5,0.3 -6.7,-0.9 -9.2,-3.4 -0.7,-0.7 -6.2,-9.2 -5.3,-9.4 z m 106.6,19.2 c -1.1,3.3 -2.9,6.3 -5.5,8.7 -2.3,2.2 -5.2,4.2 -8.5,3.4 -2.6,-0.5 -5.7,-3.2 -6.1,-6 -0.2,-1.2 0.4,-2.4 1.2,-3.3 1.2,-1.4 3.1,-2.3 4.7,-3.3 2.2,-0.9 4.8,-0.9 7.2,-0.8 2.3,0.2 4.7,0.6 7,1.3 z m 20.2,39 c 0,0.1 0,0.1 -0.1,0.2 -1.5,3.7 -3.9,7.4 -7,9.9 -2.3,2.2 -5.9,2.9 -8.9,1.7 -3.7,-1.6 -5.6,-5.4 -3.2,-8.8 2.1,-2.9 5,-4.6 8.5,-4.9 1,-0.2 11,1 10.7,1.9 z m 16.9,39.9 c -1.1,3.3 -2.9,6.3 -5.5,8.7 -2.3,2.2 -5.2,4.2 -8.5,3.4 -2.6,-0.5 -5.7,-3.2 -6.1,-6 -0.2,-1.2 0.4,-2.4 1.2,-3.3 1.2,-1.4 3.1,-2.3 4.7,-3.3 2.2,-0.9 4.8,-0.9 7.2,-0.8 2.2,0.2 4.6,0.7 7,1.3 z m 223.7,68.3 c -0.9,1.6 -2.2,2.9 -3.5,4 -1.4,1.1 -2.8,1.9 -4.5,2.5 -3,1.1 -6.4,1.4 -9.2,-0.1 -1.1,-0.5 -2.1,-1.4 -2.8,-2.3 -0.8,-0.9 -1.1,-1.9 -1,-2.9 0.2,-0.8 1,-1.7 1.9,-2.3 1.5,-1 3.5,-1.6 5.2,-2.3 2.3,-0.6 4.9,-0.3 7.2,0.2 2.4,0.7 4.7,1.7 6.7,3.2 z m -12.3,45.7 -0.2,0 c -3.9,0.6 -8.4,0.4 -12.1,-1.2 -3.1,-0.9 -5.5,-3.7 -5.9,-6.8 -0.5,-4 1.8,-7.6 6.1,-7.2 3.5,0.3 6.5,2.1 8.5,4.9 0.5,0.9 4.5,10.1 3.6,10.3 z m -26.2,34.6 c -3.4,0.7 -6.9,0.6 -10.3,-0.4 -3.1,-0.9 -6.2,-2.4 -7.2,-5.7 -0.8,-2.5 -0.1,-6.5 2.1,-8.3 0.9,-0.8 2.2,-0.9 3.4,-0.6 1.8,0.4 3.5,1.6 5.2,2.4 1.9,1.5 3.2,3.7 4.3,5.8 1.1,2.1 1.9,4.4 2.5,6.8 z m -23.7,36.9 c -0.1,0 -0.1,0 -0.2,0 -3.9,0.6 -8.4,0.4 -12.1,-1.2 -3.1,-0.9 -5.5,-3.7 -5.9,-6.8 -0.5,-4 1.8,-7.6 6.1,-7.2 3.5,0.3 6.5,2.1 8.5,4.9 0.5,0.9 4.5,10.2 3.6,10.3 z M 749.2,483 c -1.5,0.7 -2.9,1.5 -4.5,2.1 -1.6,0.6 -3.3,1.2 -5,1.5 -3.1,0.6 -6.6,1.1 -9,-1.9 -0.9,-1.1 -1.5,-3 -1.7,-5 -0.1,-2 0.2,-4.2 1.1,-5.7 0.8,-1.3 2.1,-2.1 3.4,-2.2 1.9,-0.2 3.9,0.5 5.7,1 2.1,1.1 3.9,3.1 5.5,4.8 0.8,0.9 1.6,1.8 2.3,2.7 0.8,0.8 1.5,1.7 2.2,2.7 z m 9.6,35.6 0,0.2 c -0.8,3.9 -2.6,8 -5.3,11 -1.9,2.6 -5.3,3.9 -8.5,3.1 -2,-0.5 -3.6,-1.6 -4.5,-3 -0.4,-0.7 -0.7,-1.5 -0.8,-2.4 0,-0.4 0,-1 0,-1.5 0.1,-0.5 0.2,-1.1 0.4,-1.6 1.4,-3.5 4.3,-5.3 7.8,-6 0.5,-0.1 3.2,-0.2 5.8,-0.3 2.7,0 5.2,0 5.1,0.5 z m 23.4,36.5 c -0.5,3.4 -1.8,6.7 -3.9,9.5 -1.9,2.6 -4.4,5 -7.8,4.8 -2.6,-0.1 -6.2,-2.2 -7,-4.8 -0.4,-1.1 -0.1,-2.4 0.6,-3.4 1,-1.6 2.7,-2.8 4,-4 2,-1.3 4.6,-1.7 6.9,-2 2.4,-0.4 4.8,-0.4 7.2,-0.1 z m 26.5,35 c 0,0.1 0,0.1 0,0.2 -0.8,3.9 -2.6,8 -5.3,11 -1.9,2.6 -5.3,3.9 -8.5,3.1 -3.9,-1 -6.5,-4.4 -4.6,-8.2 1.5,-3.2 4.2,-5.3 7.6,-6.2 0.9,-0.2 11,-0.8 10.8,0.1 z m 22.8,38.5 c -1.2,3.5 -3.6,6.3 -6.5,8 -2.8,1.7 -6,2.6 -9,1.8 -2.3,-0.7 -4.6,-2.4 -4.7,-4.3 0,-0.8 0.6,-1.8 1.4,-2.6 1.3,-1.3 3.1,-2.3 4.6,-3.3 2.1,-1 4.7,-1.3 7.1,-1.2 2.3,0.1 4.8,0.6 7.1,1.6 z"
           id="path125"
           inkscape:connector-curvature="0" /></g></g></switch></svg>