<?xml version="1.0" encoding="UTF-8" standalone="no"?>
<svg
   xmlns:dc="http://purl.org/dc/elements/1.1/"
   xmlns:cc="http://creativecommons.org/ns#"
   xmlns:rdf="http://www.w3.org/1999/02/22-rdf-syntax-ns#"
   xmlns:svg="http://www.w3.org/2000/svg"
   xmlns="http://www.w3.org/2000/svg"
   xmlns:sodipodi="http://sodipodi.sourceforge.net/DTD/sodipodi-0.dtd"
   xmlns:inkscape="http://www.inkscape.org/namespaces/inkscape"
   version="1.1"
   id="l6"
   class="withFill"
   x="0px"
   y="0px"
   viewBox="158.8499755859375 315.70001220703125 682.300048828125 368.6000061035156"
   width="100%"
   height="100%"
   style="enable-background:new 0 0 1000 1000;"
   xml:space="preserve"
   ><style
     type="text/css"
     id="style3">
	#l6 .st0{fill:#9E9E9E;}
	#l6 .st1{fill:#FFFFFF;}
</style><switch
     id="switch5"
     transform="translate(38.15,0.1)"><g
       id="g7"><g
         id="g9"><g
           id="g11"><path
             class="st0"
             d="m 786.3,387.2 c -8,-2.8 -15.4,-7.3 -20.5,-11.5 -5.1,-4.1 -8.1,-7.7 -8.4,-8 -0.2,-0.3 -3.1,-3.9 -6.2,-9.8 -3.1,-5.8 -6,-14 -7.2,-22.3 -0.6,-4.2 -0.8,-8.4 -0.7,-12.3 0.1,-1.6 0.2,-3.2 0.4,-4.7 l -553.7,0 c 0.1,1 0.2,2 0.2,3.1 0.1,3.9 0,8.1 -0.7,12.3 -1.2,8.3 -4.1,16.5 -7.2,22.3 -3.1,5.9 -6,9.4 -6.2,9.8 -0.3,0.3 -3.2,3.8 -8.4,8 -5.1,4.2 -12.5,8.6 -20.5,11.5 -4,1.4 -8.1,2.4 -11.9,3.1 -3.9,0.5 -7.5,0.9 -10.6,0.7 -0.3,0 -0.5,0 -0.7,0 l 0,227.1 c 0.2,0 0.5,0 0.7,0 3.1,-0.1 6.7,0.2 10.6,0.7 3.8,0.7 7.9,1.6 11.9,3.1 8,2.8 15.4,7.3 20.5,11.5 5.1,4.1 8.1,7.7 8.4,8 0.2,0.3 3.1,3.9 6.2,9.8 3.1,5.8 6,14 7.2,22.3 0.5,3.2 0.7,6.5 0.7,9.6 l 553.1,0 c 0,-3.6 0.1,-7.4 0.7,-11.2 1.2,-8.3 4.1,-16.5 7.2,-22.3 3.1,-5.9 6,-9.4 6.2,-9.8 0.3,-0.3 3.2,-3.8 8.4,-8 5.1,-4.2 12.5,-8.6 20.5,-11.5 4,-1.4 8.1,-2.4 11.9,-3.1 0.5,-0.1 1,-0.1 1.5,-0.2 l 0,-224.9 c -0.5,-0.1 -1,-0.1 -1.5,-0.2 -3.8,-0.7 -7.9,-1.7 -11.9,-3.1 z"
             id="path13"
             inkscape:connector-curvature="0"
             style="fill:#9e9e9e" /><path
             class="st0"
             d="m 799.8,384.3 c 0,0 -0.1,0 -0.1,0 -3.4,-1.2 -6.9,-2.5 -10.3,-4.2 -6.8,-3.4 -12.8,-7.9 -16.9,-11.9 -4.1,-3.9 -6.3,-7.1 -6.6,-7.3 -0.2,-0.3 -2.8,-3.1 -5.9,-7.9 -3.1,-4.7 -6.4,-11.6 -8.4,-18.8 -1,-3.6 -1.7,-7.4 -2.1,-10.9 -0.2,-1.5 -0.3,-3 -0.4,-4.5 -0.1,-1.1 -0.1,-2.2 -0.2,-3.2 l -4.8,0 -554.5,0 -5.1,0 c -0.1,1 -0.1,2.1 -0.2,3.2 -0.1,0.9 -0.2,1.9 -0.3,2.8 -0.5,3.5 -1.1,7.3 -2.1,10.9 -2,7.3 -5.3,14.1 -8.4,18.8 -3.1,4.8 -5.7,7.6 -5.9,7.9 -0.3,0.2 -2.5,3.4 -6.6,7.3 -4,4 -10.1,8.5 -16.9,11.9 -3.4,1.7 -6.9,3.1 -10.3,4.2 -3.4,1 -6.7,1.9 -9.5,2.4 -0.1,0 -0.3,0 -0.4,0.1 -1.2,0.2 -2.2,0.4 -3.2,0.6 l 0,3.3 0,227.5 0,3.3 c 1,0.2 2.1,0.4 3.2,0.6 0.1,0 0.3,0 0.4,0.1 2.8,0.5 6.1,1.4 9.5,2.4 3.4,1.2 6.9,2.5 10.3,4.2 6.8,3.4 12.8,7.9 16.9,11.9 4.1,3.9 6.3,7.1 6.6,7.3 0.2,0.3 2.8,3.1 5.9,7.9 3.1,4.7 6.4,11.6 8.4,18.8 0.7,2.7 1.3,5.4 1.7,8 0.2,1 0.3,1.9 0.4,2.9 0,0.1 0,0.2 0,0.3 l 6.1,0 553.3,0 5.8,0 c 0.1,-0.6 0.1,-1.3 0.2,-2 0.1,-0.4 0.1,-0.9 0.2,-1.3 0.5,-3.2 1.1,-6.4 2,-9.6 2,-7.3 5.3,-14.1 8.4,-18.8 3.1,-4.8 5.7,-7.6 5.9,-7.9 0.3,-0.2 2.5,-3.4 6.6,-7.3 4,-4 10.1,-8.5 16.9,-11.9 3.4,-1.7 6.9,-3.1 10.3,-4.2 0,0 0.1,0 0.1,0 1.1,-0.3 2.2,-0.6 3.2,-0.9 l 0,-5.6 0,-223.9 0,-5.6 c -1.1,-0.2 -2.1,-0.6 -3.2,-0.9 z m 0,231 c -0.5,0.1 -1,0.1 -1.5,0.2 -3.8,0.7 -7.9,1.6 -11.9,3.1 -8,2.8 -15.4,7.3 -20.5,11.5 -5.1,4.1 -8.1,7.7 -8.4,8 -0.2,0.3 -3.1,3.9 -6.2,9.8 -3.1,5.8 -6,14 -7.2,22.3 -0.6,3.8 -0.7,7.6 -0.7,11.2 l -553.1,0 c 0,-3.1 -0.2,-6.4 -0.7,-9.6 -1.2,-8.3 -4.1,-16.5 -7.2,-22.3 -3.1,-5.9 -6,-9.4 -6.2,-9.8 -0.3,-0.3 -3.2,-3.8 -8.4,-8 -5.1,-4.2 -12.5,-8.6 -20.5,-11.5 -4,-1.4 -8.1,-2.4 -11.9,-3.1 -3.9,-0.5 -7.5,-0.9 -10.6,-0.7 -0.3,0 -0.5,0 -0.7,0 l 0,-227.1 c 0.2,0 0.5,0 0.7,0 3.1,0.1 6.7,-0.2 10.6,-0.7 3.8,-0.7 7.9,-1.6 11.9,-3.1 8,-2.8 15.4,-7.3 20.5,-11.5 5.1,-4.1 8.1,-7.7 8.4,-8 0.2,-0.3 3.1,-3.9 6.2,-9.8 3.1,-5.8 6,-14 7.2,-22.3 0.6,-4.2 0.8,-8.4 0.7,-12.3 -0.1,-1 -0.1,-2.1 -0.2,-3.1 l 553.7,0 c -0.2,1.5 -0.3,3.1 -0.4,4.7 -0.1,3.9 0,8.1 0.7,12.3 1.2,8.3 4.1,16.5 7.2,22.3 3.1,5.9 6,9.4 6.2,9.8 0.3,0.3 3.2,3.8 8.4,8 5.1,4.2 12.5,8.6 20.5,11.5 4,1.4 8.1,2.4 11.9,3.1 0.5,0.1 1,0.1 1.5,0.2 l 0,224.9 z"
             id="path15"
             inkscape:connector-curvature="0"
             style="fill:#9e9e9e" /></g><g
           id="g17"><path
             class="st1"
             d="m 767.6,395.3 c 0,0 -0.1,0 -0.1,0 -3.1,-1 -6.3,-2.3 -9.3,-3.8 -6.1,-3.1 -11.6,-7.2 -15.2,-10.8 -3.7,-3.6 -5.7,-6.4 -5.9,-6.6 -0.1,-0.3 -2.6,-2.8 -5.4,-7.1 -2.8,-4.3 -5.8,-10.5 -7.6,-17 -0.9,-3.3 -1.5,-6.7 -1.9,-9.9 -0.1,-1.4 -0.3,-2.7 -0.3,-4 -0.1,-1 -0.1,-2 -0.1,-2.9 l -4.3,0 -501.9,0 -4.6,0 c 0,0.9 -0.1,1.9 -0.2,2.9 -0.1,0.8 -0.1,1.7 -0.2,2.6 -0.4,3.2 -1,6.6 -1.9,9.9 -1.8,6.6 -4.8,12.8 -7.6,17 -2.8,4.3 -5.2,6.8 -5.4,7.1 -0.2,0.2 -2.2,3.1 -5.9,6.6 -3.6,3.6 -9.1,7.7 -15.2,10.8 -3.1,1.5 -6.3,2.8 -9.3,3.8 -3.1,0.9 -6,1.8 -8.6,2.2 -0.1,0 -0.2,0 -0.3,0.1 -1,0.2 -2,0.4 -2.9,0.5 l 0,3 0,205.9 0,3 c 0.9,0.2 1.9,0.3 2.9,0.5 0.1,0 0.2,0 0.3,0.1 2.6,0.5 5.5,1.3 8.6,2.2 3.1,1 6.3,2.3 9.3,3.8 6.1,3.1 11.6,7.2 15.2,10.8 3.7,3.6 5.7,6.4 5.9,6.6 0.1,0.3 2.6,2.8 5.4,7.1 2.8,4.3 5.8,10.5 7.6,17 0.7,2.4 1.2,4.9 1.6,7.3 0.1,0.9 0.3,1.8 0.4,2.6 0,0.1 0,0.2 0,0.3 l 5.5,0 500.7,0 5.3,0 c 0.1,-0.6 0.1,-1.2 0.2,-1.8 0.1,-0.4 0.1,-0.8 0.2,-1.2 0.4,-2.9 1,-5.8 1.8,-8.7 1.8,-6.6 4.8,-12.8 7.6,-17 2.8,-4.3 5.2,-6.8 5.4,-7.1 0.2,-0.2 2.2,-3.1 5.9,-6.6 3.6,-3.6 9.1,-7.7 15.2,-10.8 3.1,-1.5 6.3,-2.8 9.3,-3.8 0,0 0.1,0 0.1,0 1,-0.3 2,-0.6 2.9,-0.9 l 0,-5 0,-202.8 0,-5 c -1.2,-0.3 -2.2,-0.6 -3.2,-0.9 z m 0,209 c -0.5,0.1 -0.9,0.1 -1.4,0.2 -3.5,0.6 -7.2,1.5 -10.8,2.8 -7.2,2.5 -14,6.6 -18.6,10.4 -4.7,3.7 -7.3,7 -7.6,7.2 -0.2,0.3 -2.8,3.5 -5.6,8.8 -2.8,5.2 -5.4,12.7 -6.5,20.2 -0.5,3.4 -0.7,6.9 -0.6,10.1 l -500.4,0 c 0,-2.8 -0.2,-5.8 -0.6,-8.7 -1.1,-7.6 -3.7,-15 -6.5,-20.2 -2.8,-5.3 -5.4,-8.5 -5.6,-8.8 -0.3,-0.2 -2.9,-3.5 -7.6,-7.2 -4.6,-3.8 -11.4,-7.8 -18.6,-10.4 -3.6,-1.3 -7.3,-2.2 -10.8,-2.8 -3.5,-0.5 -6.8,-0.8 -9.6,-0.6 -0.2,0 -0.4,0 -0.7,0 l 0,-205.4 c 0.2,0 0.4,0 0.7,0 2.8,0.1 6.1,-0.2 9.6,-0.6 3.5,-0.6 7.2,-1.5 10.8,-2.8 7.2,-2.5 14,-6.6 18.6,-10.4 4.7,-3.7 7.3,-7 7.6,-7.2 0.2,-0.3 2.8,-3.5 5.6,-8.8 2.8,-5.2 5.4,-12.7 6.5,-20.2 0.6,-3.8 0.7,-7.6 0.6,-11.1 -0.1,-0.9 -0.1,-1.9 -0.2,-2.8 l 501,0 c -0.1,1.4 -0.3,2.8 -0.4,4.2 -0.1,3.5 0,7.3 0.6,11.1 1.1,7.6 3.7,15 6.5,20.2 2.8,5.3 5.4,8.5 5.6,8.8 0.3,0.2 2.9,3.5 7.6,7.2 4.6,3.8 11.4,7.8 18.6,10.4 3.6,1.3 7.3,2.2 10.8,2.8 0.5,0.1 0.9,0.1 1.4,0.2 l 0,203.4 z"
             id="path19"
             inkscape:connector-curvature="0"
             style="fill:#ffffff" /></g></g></g></switch></svg>