<?xml version="1.0" encoding="UTF-8" standalone="no"?>
<svg
   xmlns:dc="http://purl.org/dc/elements/1.1/"
   xmlns:cc="http://creativecommons.org/ns#"
   xmlns:rdf="http://www.w3.org/1999/02/22-rdf-syntax-ns#"
   xmlns:svg="http://www.w3.org/2000/svg"
   xmlns="http://www.w3.org/2000/svg"
   xmlns:sodipodi="http://sodipodi.sourceforge.net/DTD/sodipodi-0.dtd"
   xmlns:inkscape="http://www.inkscape.org/namespaces/inkscape"
   version="1.1"
   id="Layer_1"
   x="0px"
   y="0px"
   viewBox="0 0 1000 1000"
   width="100%"
   height="100%"
   style="enable-background:new 0 0 1000 1000;"
   xml:space="preserve"
   ><style
     type="text/css"
     id="style3">
	.noFillSVG{fill:none;}
</style><switch
     id="switch5"
     transform="translate(-40.7,-115.96379)"><g
       id="g7"><g
         id="g9"><g
           id="g11"><path
             d="m 835.6,618.7 c -0.1,2.5 3.8,2.6 3.9,0.1 0.1,-2.5 -3.8,-2.6 -3.9,-0.1 z"
             id="path13"
             inkscape:connector-curvature="0" /><path
             d="m 835.4,626.2 c -0.1,2.5 3.8,2.7 3.9,0.2 0.1,-2.6 -3.8,-2.7 -3.9,-0.2 z"
             id="path15"
             inkscape:connector-curvature="0" /><path
             d="m 835,633.8 c -0.2,2.5 3.7,2.8 3.9,0.3 0.1,-2.6 -3.7,-2.8 -3.9,-0.3 z"
             id="path17"
             inkscape:connector-curvature="0" /><path
             d="m 834.4,641.2 c -0.2,2.5 3.7,2.9 3.9,0.4 0.2,-2.5 -3.7,-2.8 -3.9,-0.4 z"
             id="path19"
             inkscape:connector-curvature="0" /><path
             d="m 833.5,648.8 c -0.3,2.5 3.5,3 3.9,0.5 0.3,-2.6 -3.5,-3 -3.9,-0.5 z"
             id="path21"
             inkscape:connector-curvature="0" /><path
             d="m 832.6,656.2 c -0.3,2.5 3.5,3.1 3.8,0.6 0.4,-2.5 -3.5,-3.1 -3.8,-0.6 z"
             id="path23"
             inkscape:connector-curvature="0" /><path
             d="m 831.4,663.7 c -0.4,2.4 3.4,3.2 3.8,0.7 0.4,-2.6 -3.4,-3.2 -3.8,-0.7 z"
             id="path25"
             inkscape:connector-curvature="0" /><path
             d="m 830,671 c -0.4,2.4 3.4,3.2 3.8,0.8 0.5,-2.5 -3.3,-3.2 -3.8,-0.8 z"
             id="path27"
             inkscape:connector-curvature="0" /><path
             d="m 828.4,678.5 c -0.6,2.4 3.2,3.3 3.8,0.9 0.6,-2.6 -3.2,-3.4 -3.8,-0.9 z"
             id="path29"
             inkscape:connector-curvature="0" /><path
             d="m 826.7,685.8 c -0.6,2.4 3.2,3.4 3.8,1 0.6,-2.6 -3.2,-3.5 -3.8,-1 z"
             id="path31"
             inkscape:connector-curvature="0" /><path
             d="m 824.7,693.1 c -0.7,2.4 3,3.5 3.7,1.1 0.7,-2.5 -3,-3.5 -3.7,-1.1 z"
             id="path33"
             inkscape:connector-curvature="0" /><path
             d="m 822.7,700.3 c -0.8,2.4 2.9,3.6 3.7,1.1 0.7,-2.4 -3.1,-3.5 -3.7,-1.1 z"
             id="path35"
             inkscape:connector-curvature="0" /><path
             d="m 820.3,707.5 c -0.8,2.4 2.9,3.6 3.7,1.2 0.7,-2.4 -2.9,-3.6 -3.7,-1.2 z"
             id="path37"
             inkscape:connector-curvature="0" /><path
             d="m 817.9,714.5 c -0.9,2.3 2.7,3.7 3.6,1.3 0.8,-2.3 -2.8,-3.6 -3.6,-1.3 z"
             id="path39"
             inkscape:connector-curvature="0" /><path
             d="m 815.1,721.6 c -0.9,2.3 2.7,3.8 3.6,1.4 0.9,-2.3 -2.7,-3.7 -3.6,-1.4 z"
             id="path41"
             inkscape:connector-curvature="0" /><path
             d="m 812.3,728.6 c -1,2.3 2.5,3.8 3.6,1.5 0.9,-2.4 -2.6,-3.8 -3.6,-1.5 z"
             id="path43"
             inkscape:connector-curvature="0" /><path
             d="m 809.2,735.5 c -1,2.3 2.5,3.9 3.5,1.6 1,-2.3 -2.5,-3.9 -3.5,-1.6 z"
             id="path45"
             inkscape:connector-curvature="0" /><path
             d="m 808.6,741.4 c -0.9,-0.4 -2,-0.3 -2.6,0.8 -1.1,2.2 2.3,4 3.5,1.7 0.6,-1.1 0,-2 -0.9,-2.5 z"
             id="path47"
             inkscape:connector-curvature="0" /><path
             d="m 802.6,749 c -1.1,2.2 2.3,4 3.4,1.8 1.2,-2.3 -2.3,-4 -3.4,-1.8 z"
             id="path49"
             inkscape:connector-curvature="0" /><path
             d="m 799.1,755.6 c -1.2,2.2 2.1,4.1 3.4,1.9 1.2,-2.2 -2.2,-4 -3.4,-1.9 z"
             id="path51"
             inkscape:connector-curvature="0" /><path
             d="m 795.3,762.2 c -1.2,2.2 2.1,4.2 3.4,2 1.2,-2.2 -2.2,-4.2 -3.4,-2 z"
             id="path53"
             inkscape:connector-curvature="0" /><path
             d="m 791.4,768.6 c -1.3,2.1 1.9,4.2 3.3,2.1 1.4,-2.2 -1.9,-4.2 -3.3,-2.1 z"
             id="path55"
             inkscape:connector-curvature="0" /><path
             d="m 787.3,775 c -1.3,2.1 1.9,4.3 3.2,2.1 1.4,-2.1 -1.8,-4.2 -3.2,-2.1 z"
             id="path57"
             inkscape:connector-curvature="0" /><path
             d="m 783.1,781.2 c -1.4,2 1.7,4.3 3.2,2.2 1.5,-2 -1.7,-4.2 -3.2,-2.2 z"
             id="path59"
             inkscape:connector-curvature="0" /><path
             d="m 778.7,787.4 c -1.4,2 1.7,4.4 3.1,2.3 1.5,-2.1 -1.6,-4.4 -3.1,-2.3 z"
             id="path61"
             inkscape:connector-curvature="0" /><path
             d="m 774.2,793.3 c -1.5,2 1.5,4.4 3.1,2.4 1.5,-2 -1.6,-4.3 -3.1,-2.4 z"
             id="path63"
             inkscape:connector-curvature="0" /><path
             d="m 769.5,799.3 c -1.5,2 1.4,4.4 3,2.5 1.6,-2 -1.4,-4.4 -3,-2.5 z"
             id="path65"
             inkscape:connector-curvature="0" /><path
             d="m 764.7,805 c -1.6,1.9 1.3,4.4 2.9,2.5 1.7,-1.9 -1.3,-4.4 -2.9,-2.5 z"
             id="path67"
             inkscape:connector-curvature="0" /><path
             d="m 759.7,810.8 c -1.7,1.8 1.2,4.5 2.9,2.6 1.7,-2 -1.2,-4.5 -2.9,-2.6 z"
             id="path69"
             inkscape:connector-curvature="0" /><path
             d="m 754.6,816.2 c -1.7,1.8 1.1,4.5 2.8,2.7 1.7,-1.8 -1.1,-4.5 -2.8,-2.7 z"
             id="path71"
             inkscape:connector-curvature="0" /><path
             d="m 749.4,821.7 c -1.8,1.7 0.9,4.5 2.7,2.7 1.7,-1.8 -1,-4.5 -2.7,-2.7 z"
             id="path73"
             inkscape:connector-curvature="0" /><path
             d="m 743.9,826.9 c -1.8,1.7 0.8,4.6 2.7,2.8 1.8,-1.8 -0.9,-4.6 -2.7,-2.8 z"
             id="path75"
             inkscape:connector-curvature="0" /><path
             d="m 738.4,832.1 c -1.9,1.6 0.7,4.5 2.6,2.9 1.9,-1.7 -0.7,-4.6 -2.6,-2.9 z"
             id="path77"
             inkscape:connector-curvature="0" /><path
             d="m 732.8,837 c -1.9,1.6 0.6,4.6 2.5,2.9 1.9,-1.6 -0.7,-4.6 -2.5,-2.9 z"
             id="path79"
             inkscape:connector-curvature="0" /><path
             d="m 727,841.9 c -2,1.5 0.5,4.6 2.5,3 1.9,-1.6 -0.6,-4.6 -2.5,-3 z"
             id="path81"
             inkscape:connector-curvature="0" /><path
             d="m 721.1,846.5 c -2,1.5 0.4,4.6 2.4,3.1 1.9,-1.6 -0.5,-4.6 -2.4,-3.1 z"
             id="path83"
             inkscape:connector-curvature="0" /><path
             d="m 715,851.1 c -2,1.4 0.2,4.6 2.3,3.1 2.1,-1.5 -0.2,-4.6 -2.3,-3.1 z"
             id="path85"
             inkscape:connector-curvature="0" /><path
             d="m 708.9,855.4 c -2,1.4 0.2,4.7 2.2,3.2 2.1,-1.5 -0.1,-4.6 -2.2,-3.2 z"
             id="path87"
             inkscape:connector-curvature="0" /><path
             d="m 702.7,859.7 c -2.1,1.3 0,4.6 2.1,3.2 2.1,-1.4 0,-4.6 -2.1,-3.2 z"
             id="path89"
             inkscape:connector-curvature="0" /><path
             d="m 696.4,863.7 c -2.1,1.3 -0.1,4.7 2.1,3.3 2,-1.4 -0.1,-4.6 -2.1,-3.3 z"
             id="path91"
             inkscape:connector-curvature="0" /><path
             d="m 689.9,867.6 c -2.2,1.2 -0.2,4.6 2,3.4 2.1,-1.3 0.1,-4.6 -2,-3.4 z"
             id="path93"
             inkscape:connector-curvature="0" /><path
             d="m 683.4,871.4 c -2.2,1.2 -0.3,4.7 1.9,3.4 2.1,-1.3 0.2,-4.7 -1.9,-3.4 z"
             id="path95"
             inkscape:connector-curvature="0" /><path
             d="m 676.7,874.9 c -2.2,1.1 -0.5,4.6 1.8,3.4 2.2,-1.1 0.4,-4.5 -1.8,-3.4 z"
             id="path97"
             inkscape:connector-curvature="0" /><path
             d="m 670,878.3 c -2.2,1.1 -0.6,4.6 1.7,3.5 2.3,-1.1 0.5,-4.6 -1.7,-3.5 z"
             id="path99"
             inkscape:connector-curvature="0" /><path
             d="m 663.1,881.5 c -2.3,1 -0.7,4.6 1.6,3.5 2.3,-1 0.7,-4.5 -1.6,-3.5 z"
             id="path101"
             inkscape:connector-curvature="0" /><path
             d="m 656.3,884.6 c -2.3,1 -0.8,4.6 1.5,3.6 2.3,-1.1 0.8,-4.6 -1.5,-3.6 z"
             id="path103"
             inkscape:connector-curvature="0" /><path
             d="m 649.3,887.4 c -2.3,0.9 -0.9,4.5 1.4,3.6 2.3,-0.9 0.9,-4.5 -1.4,-3.6 z"
             id="path105"
             inkscape:connector-curvature="0" /><path
             d="m 642.3,890.2 c -2.3,0.8 -1.1,4.5 1.3,3.6 2.4,-0.9 1,-4.5 -1.3,-3.6 z"
             id="path107"
             inkscape:connector-curvature="0" /><path
             d="m 635.1,892.6 c -2.4,0.8 -1.2,4.5 1.2,3.7 2.5,-0.8 1.2,-4.5 -1.2,-3.7 z"
             id="path109"
             inkscape:connector-curvature="0" /><path
             d="m 628,895 c -2.4,0.7 -1.3,4.4 1.1,3.7 2.5,-0.8 1.3,-4.5 -1.1,-3.7 z"
             id="path111"
             inkscape:connector-curvature="0" /><path
             d="m 620.7,897 c -2.4,0.7 -1.4,4.4 1.1,3.7 2.4,-0.6 1.3,-4.3 -1.1,-3.7 z"
             id="path113"
             inkscape:connector-curvature="0" /><path
             d="m 613.5,899 c -2.4,0.6 -1.5,4.3 1,3.8 2.4,-0.6 1.4,-4.4 -1,-3.8 z"
             id="path115"
             inkscape:connector-curvature="0" /><path
             d="m 606.1,900.8 c -2.4,0.6 -1.6,4.4 0.9,3.8 2.4,-0.6 1.5,-4.4 -0.9,-3.8 z"
             id="path117"
             inkscape:connector-curvature="0" /><path
             d="m 598.8,902.4 c -2.4,0.4 -1.7,4.3 0.8,3.8 1.2,-0.2 1.7,-1.3 1.5,-2.3 -0.3,-0.9 -1.1,-1.7 -2.3,-1.5 z"
             id="path119"
             inkscape:connector-curvature="0" /><path
             d="m 591.3,903.7 c -2.4,0.4 -1.8,4.3 0.7,3.8 2.5,-0.4 1.8,-4.2 -0.7,-3.8 z"
             id="path121"
             inkscape:connector-curvature="0" /><path
             d="m 584,904.9 c -2.5,0.3 -1.9,4.2 0.6,3.8 2.4,-0.2 1.8,-4.1 -0.6,-3.8 z"
             id="path123"
             inkscape:connector-curvature="0" /><path
             d="m 576.4,905.9 c -2.5,0.3 -2,4.2 0.5,3.9 2.5,-0.4 2,-4.2 -0.5,-3.9 z"
             id="path125"
             inkscape:connector-curvature="0" /><path
             d="m 569,906.7 c -2.5,0.2 -2.2,4.1 0.4,3.9 2.5,-0.2 2.1,-4.1 -0.4,-3.9 z"
             id="path127"
             inkscape:connector-curvature="0" /><path
             d="m 561.4,907.3 c -2.5,0.2 -2.3,4.1 0.3,3.9 2.5,-0.2 2.2,-4.1 -0.3,-3.9 z"
             id="path129"
             inkscape:connector-curvature="0" /><path
             d="m 554,907.8 c -2.5,0.1 -2.4,3.9 0.2,3.9 2.5,-0.1 2.2,-4 -0.2,-3.9 z"
             id="path131"
             inkscape:connector-curvature="0" /><path
             d="m 546.4,908 c -2.5,0.1 -2.5,3.9 0.1,3.9 2.5,-0.1 2.4,-4 -0.1,-3.9 z"
             id="path133"
             inkscape:connector-curvature="0" /><path
             d="m 538.9,908.1 c -2.5,-0.1 -2.6,3.8 0,3.9 2.5,0 2.5,-3.9 0,-3.9 z"
             id="path135"
             inkscape:connector-curvature="0" /><path
             d="m 531.3,907.9 c -2.5,-0.1 -2.7,3.8 -0.1,3.9 2.5,0 2.6,-3.9 0.1,-3.9 z"
             id="path137"
             inkscape:connector-curvature="0" /><path
             d="m 523.8,907.6 c -2.5,-0.2 -2.7,3.7 -0.2,3.9 2.5,0.2 2.7,-3.7 0.2,-3.9 z"
             id="path139"
             inkscape:connector-curvature="0" /><path
             d="m 516.3,907 c -2.5,-0.2 -2.8,3.7 -0.3,3.9 2.5,0.2 2.7,-3.7 0.3,-3.9 z"
             id="path141"
             inkscape:connector-curvature="0" /><path
             d="m 508.8,906.4 c -2.5,-0.3 -2.9,3.5 -0.4,3.9 2.5,0.2 2.9,-3.6 0.4,-3.9 z"
             id="path143"
             inkscape:connector-curvature="0" /><path
             d="m 501.3,905.4 c -2.5,-0.3 -3,3.5 -0.5,3.9 2.5,0.3 2.9,-3.6 0.5,-3.9 z"
             id="path145"
             inkscape:connector-curvature="0" /><path
             d="m 493.9,904.4 c -2.4,-0.4 -3.1,3.4 -0.6,3.8 2.4,0.5 3,-3.4 0.6,-3.8 z"
             id="path147"
             inkscape:connector-curvature="0" /><path
             d="m 486.4,903 c -2.4,-0.4 -3.2,3.4 -0.7,3.8 2.5,0.5 3.1,-3.3 0.7,-3.8 z"
             id="path149"
             inkscape:connector-curvature="0" /><path
             d="m 479,901.6 c -2.4,-0.6 -3.3,3.2 -0.8,3.8 2.5,0.6 3.3,-3.2 0.8,-3.8 z"
             id="path151"
             inkscape:connector-curvature="0" /><path
             d="m 471.7,899.9 c -2.4,-0.6 -3.4,3.2 -0.9,3.8 2.4,0.6 3.3,-3.2 0.9,-3.8 z"
             id="path153"
             inkscape:connector-curvature="0" /><path
             d="m 464.4,898.1 c -2.4,-0.7 -3.4,3.1 -1,3.8 2.4,0.6 3.4,-3.1 1,-3.8 z"
             id="path155"
             inkscape:connector-curvature="0" /><path
             d="m 457.1,896 c -2.4,-0.7 -3.5,3 -1.1,3.7 2.4,0.7 3.5,-3 1.1,-3.7 z"
             id="path157"
             inkscape:connector-curvature="0" /><path
             d="m 449.9,893.8 c -2.4,-0.8 -3.6,2.9 -1.2,3.7 2.4,0.8 3.6,-2.9 1.2,-3.7 z"
             id="path159"
             inkscape:connector-curvature="0" /><path
             d="m 442.8,891.4 c -2.4,-0.8 -3.7,2.9 -1.3,3.7 2.4,0.8 3.6,-2.9 1.3,-3.7 z"
             id="path161"
             inkscape:connector-curvature="0" /><path
             d="m 435.7,888.8 c -2.3,-0.9 -3.7,2.7 -1.4,3.6 2.4,1 3.7,-2.7 1.4,-3.6 z"
             id="path163"
             inkscape:connector-curvature="0" /><path
             d="m 428.7,886 c -2.3,-0.9 -3.8,2.7 -1.5,3.6 2.4,1 3.8,-2.7 1.5,-3.6 z"
             id="path165"
             inkscape:connector-curvature="0" /><path
             d="m 421.8,883.1 c -2.3,-1 -3.9,2.5 -1.6,3.6 2.3,1 3.9,-2.6 1.6,-3.6 z"
             id="path167"
             inkscape:connector-curvature="0" /><path
             d="m 414.9,880 c -2.3,-1 -4,2.5 -1.7,3.5 2.3,1 4,-2.5 1.7,-3.5 z"
             id="path169"
             inkscape:connector-curvature="0" /><path
             d="m 408.2,876.6 c -2.2,-1.1 -4,2.3 -1.7,3.5 2.2,1.2 3.9,-2.3 1.7,-3.5 z"
             id="path171"
             inkscape:connector-curvature="0" /><path
             d="m 401.4,873.2 c -2.2,-1.1 -4.1,2.3 -1.8,3.4 2.2,1.2 4,-2.3 1.8,-3.4 z"
             id="path173"
             inkscape:connector-curvature="0" /><path
             d="m 394.9,869.5 c -2.2,-1.2 -4.1,2.1 -1.9,3.4 2.2,1.3 4,-2.1 1.9,-3.4 z"
             id="path175"
             inkscape:connector-curvature="0" /><path
             d="m 388.3,865.7 c -2.1,-1.3 -4.2,2 -2,3.3 2.2,1.3 4.2,-2 2,-3.3 z"
             id="path177"
             inkscape:connector-curvature="0" /><path
             d="m 382,861.7 c -2.1,-1.3 -4.2,1.9 -2.1,3.3 2.1,1.4 4.2,-1.9 2.1,-3.3 z"
             id="path179"
             inkscape:connector-curvature="0" /><path
             d="m 375.6,857.6 c -2,-1.4 -4.2,1.8 -2.2,3.2 2.2,1.4 4.3,-1.8 2.2,-3.2 z"
             id="path181"
             inkscape:connector-curvature="0" /><path
             d="m 367.3,856.5 c 2.1,1.5 4.3,-1.7 2.3,-3.2 -2.1,-1.4 -4.4,1.7 -2.3,3.2 z"
             id="path183"
             inkscape:connector-curvature="0" /><path
             d="m 361,852 c 2,1.5 4.3,-1.6 2.3,-3.1 -1.9,-1.6 -4.3,1.5 -2.3,3.1 z"
             id="path185"
             inkscape:connector-curvature="0" /><path
             d="m 355.1,847.3 c 2,1.6 4.4,-1.5 2.4,-3 -2,-1.6 -4.4,1.4 -2.4,3 z"
             id="path187"
             inkscape:connector-curvature="0" /><path
             d="m 349.1,842.5 c 1.9,1.7 4.4,-1.4 2.5,-3 -1.9,-1.7 -4.4,1.3 -2.5,3 z"
             id="path189"
             inkscape:connector-curvature="0" /><path
             d="m 343.3,837.5 c 1.9,1.7 4.4,-1.3 2.6,-2.9 -1.9,-1.7 -4.5,1.2 -2.6,2.9 z"
             id="path191"
             inkscape:connector-curvature="0" /><path
             d="m 337.6,832.4 c 1.8,1.7 4.4,-1.1 2.6,-2.8 -1.7,-1.8 -4.4,1 -2.6,2.8 z"
             id="path193"
             inkscape:connector-curvature="0" /><path
             d="m 332.1,827.1 c 1.8,1.7 4.5,-1.1 2.7,-2.8 -1.8,-1.7 -4.5,1.1 -2.7,2.8 z"
             id="path195"
             inkscape:connector-curvature="0" /><path
             d="m 326.7,821.7 c 1.7,1.8 4.5,-0.9 2.8,-2.7 -1.7,-1.8 -4.5,0.9 -2.8,2.7 z"
             id="path197"
             inkscape:connector-curvature="0" /><path
             d="m 321.5,816.2 c 1.7,1.8 4.6,-0.8 2.8,-2.6 -1.7,-1.8 -4.6,0.8 -2.8,2.6 z"
             id="path199"
             inkscape:connector-curvature="0" /><path
             d="m 316.3,810.5 c 1.7,1.9 4.5,-0.7 2.9,-2.6 -1.6,-1.9 -4.5,0.7 -2.9,2.6 z"
             id="path201"
             inkscape:connector-curvature="0" /><path
             d="m 311.4,804.7 c 1.7,1.9 4.6,-0.6 3,-2.5 -1.7,-1.8 -4.7,0.6 -3,2.5 z"
             id="path203"
             inkscape:connector-curvature="0" /><path
             d="m 306.5,798.8 c 1.6,2 4.6,-0.5 3,-2.4 -1.4,-2 -4.5,0.4 -3,2.4 z"
             id="path205"
             inkscape:connector-curvature="0" /><path
             d="m 301.9,792.8 c 1.6,2 4.6,-0.4 3.1,-2.3 -1.5,-2 -4.7,0.3 -3.1,2.3 z"
             id="path207"
             inkscape:connector-curvature="0" /><path
             d="m 297.4,786.6 c 1.5,2.1 4.6,-0.2 3.2,-2.3 -1.5,-2 -4.7,0.2 -3.2,2.3 z"
             id="path209"
             inkscape:connector-curvature="0" /><path
             d="m 293,780.4 c 1.5,2.1 4.7,-0.2 3.2,-2.2 -1.4,-2.1 -4.6,0.1 -3.2,2.2 z"
             id="path211"
             inkscape:connector-curvature="0" /><path
             d="m 288.8,773.9 c 1.4,2.1 4.6,0 3.3,-2.1 -1.4,-2.1 -4.7,0 -3.3,2.1 z"
             id="path213"
             inkscape:connector-curvature="0" /><path
             d="m 284.7,767.5 c 1.3,2.2 4.6,0.1 3.3,-2 -1.2,-2.1 -4.5,-0.2 -3.3,2 z"
             id="path215"
             inkscape:connector-curvature="0" /><path
             d="m 284.3,758.9 c -1.2,-2.2 -4.6,-0.3 -3.4,1.9 1.3,2.3 4.6,0.3 3.4,-1.9 z"
             id="path217"
             inkscape:connector-curvature="0" /><path
             d="m 280.6,752.4 c -1.1,-2.2 -4.6,-0.4 -3.4,1.8 0.6,1.1 1.7,1.2 2.6,0.7 0.8,-0.4 1.4,-1.4 0.8,-2.5 z"
             id="path219"
             inkscape:connector-curvature="0" /><path
             d="m 277.2,745.7 c -1.1,-2.2 -4.6,-0.5 -3.5,1.7 1.1,2.3 4.6,0.5 3.5,-1.7 z"
             id="path221"
             inkscape:connector-curvature="0" /><path
             d="m 273.8,738.9 c -1,-2.3 -4.6,-0.6 -3.5,1.7 1.1,2.3 4.6,0.6 3.5,-1.7 z"
             id="path223"
             inkscape:connector-curvature="0" /><path
             d="m 270.7,732 c -1,-2.3 -4.6,-0.7 -3.6,1.6 1.1,2.3 4.6,0.7 3.6,-1.6 z"
             id="path225"
             inkscape:connector-curvature="0" /><path
             d="m 267.8,725.2 c -0.9,-2.3 -4.5,-0.9 -3.6,1.5 0.9,2.3 4.5,0.8 3.6,-1.5 z"
             id="path227"
             inkscape:connector-curvature="0" /><path
             d="m 265,718.1 c -0.9,-2.3 -4.6,-1 -3.6,1.4 0.9,2.3 4.5,0.9 3.6,-1.4 z"
             id="path229"
             inkscape:connector-curvature="0" /><path
             d="m 262.4,711.1 c -0.8,-2.4 -4.5,-1.1 -3.7,1.3 0.8,2.4 4.5,1 3.7,-1.3 z"
             id="path231"
             inkscape:connector-curvature="0" /><path
             d="m 260,703.9 c -0.8,-2.4 -4.5,-1.2 -3.7,1.2 0.8,2.4 4.5,1.1 3.7,-1.2 z"
             id="path233"
             inkscape:connector-curvature="0" /><path
             d="m 257.8,696.7 c -0.7,-2.4 -4.4,-1.3 -3.7,1.1 0.6,2.5 4.4,1.3 3.7,-1.1 z"
             id="path235"
             inkscape:connector-curvature="0" /><path
             d="m 255.7,689.4 c -0.7,-2.4 -4.4,-1.4 -3.8,1 0.7,2.5 4.5,1.4 3.8,-1 z"
             id="path237"
             inkscape:connector-curvature="0" /><path
             d="m 253.9,682.2 c -0.6,-2.4 -4.3,-1.6 -3.8,0.9 0.6,2.4 4.3,1.5 3.8,-0.9 z"
             id="path239"
             inkscape:connector-curvature="0" /><path
             d="m 252.2,674.8 c -0.6,-2.4 -4.4,-1.7 -3.8,0.8 0.5,2.5 4.3,1.6 3.8,-0.8 z"
             id="path241"
             inkscape:connector-curvature="0" /><path
             d="m 250.7,667.4 c -0.4,-2.4 -4.3,-1.8 -3.8,0.7 0.5,2.5 4.3,1.8 3.8,-0.7 z"
             id="path243"
             inkscape:connector-curvature="0" /><path
             d="m 249.4,660 c -0.4,-2.4 -4.3,-1.9 -3.8,0.6 0.4,2.5 4.3,1.8 3.8,-0.6 z"
             id="path245"
             inkscape:connector-curvature="0" /><path
             d="m 248.4,652.6 c -0.3,-2.5 -4.2,-2 -3.9,0.5 0.3,2.5 4.2,1.9 3.9,-0.5 z"
             id="path247"
             inkscape:connector-curvature="0" /><path
             d="m 247.4,645 c -0.3,-2.5 -4.2,-2.1 -3.9,0.4 0.4,2.6 4.2,2.1 3.9,-0.4 z"
             id="path249"
             inkscape:connector-curvature="0" /><path
             d="m 246.8,637.6 c -0.2,-2.5 -4.1,-2.2 -3.9,0.3 0.2,2.5 4,2.2 3.9,-0.3 z"
             id="path251"
             inkscape:connector-curvature="0" /><path
             d="m 246.2,630 c -0.2,-2.5 -4.1,-2.3 -3.9,0.2 0.2,2.6 4.1,2.3 3.9,-0.2 z"
             id="path253"
             inkscape:connector-curvature="0" /><path
             d="m 245.9,622.5 c -0.1,-2.5 -3.9,-2.4 -3.9,0.1 0.1,2.6 4,2.4 3.9,-0.1 z"
             id="path255"
             inkscape:connector-curvature="0" /><path
             d="m 245.7,615 c -0.1,-2.5 -3.9,-2.5 -3.9,0 0.1,2.5 4,2.4 3.9,0 z"
             id="path257"
             inkscape:connector-curvature="0" /><path
             d="m 245.8,607.5 c 0.1,-2.5 -3.8,-2.6 -3.9,-0.1 0,2.5 3.8,2.5 3.9,0.1 z"
             id="path259"
             inkscape:connector-curvature="0" /><path
             d="m 246,599.9 c 0.1,-2.5 -3.8,-2.7 -3.9,-0.2 0,2.5 3.8,2.7 3.9,0.2 z"
             id="path261"
             inkscape:connector-curvature="0" /><path
             d="m 246.5,592.4 c 0.2,-2.5 -3.7,-2.8 -3.9,-0.3 -0.2,2.6 3.7,2.8 3.9,0.3 z"
             id="path263"
             inkscape:connector-curvature="0" /><path
             d="m 247,584.8 c 0.2,-2.5 -3.7,-2.9 -3.9,-0.4 -0.1,2.6 3.8,2.9 3.9,0.4 z"
             id="path265"
             inkscape:connector-curvature="0" /><path
             d="m 247.9,577.4 c 0.3,-2.5 -3.5,-3 -3.9,-0.5 -0.3,2.5 3.6,3 3.9,0.5 z"
             id="path267"
             inkscape:connector-curvature="0" /><path
             d="m 248.8,569.9 c 0.3,-2.5 -3.5,-3.1 -3.8,-0.6 -0.3,2.5 3.5,3 3.8,0.6 z"
             id="path269"
             inkscape:connector-curvature="0" /><path
             d="m 250.1,562.5 c 0.4,-2.4 -3.4,-3.2 -3.8,-0.7 -0.5,2.5 3.3,3.1 3.8,0.7 z"
             id="path271"
             inkscape:connector-curvature="0" /><path
             d="m 251.4,555 c 0.2,-1.2 -0.6,-2 -1.6,-2.2 -1,-0.2 -2,0.2 -2.3,1.5 -0.4,2.5 3.5,3.2 3.9,0.7 z"
             id="path273"
             inkscape:connector-curvature="0" /><path
             d="m 253,547.7 c 0.6,-2.4 -3.2,-3.3 -3.8,-0.9 -0.5,2.5 3.3,3.3 3.8,0.9 z"
             id="path275"
             inkscape:connector-curvature="0" /><path
             d="m 254.7,540.3 c 0.6,-2.4 -3.2,-3.4 -3.8,-1 -0.5,2.5 3.3,3.5 3.8,1 z"
             id="path277"
             inkscape:connector-curvature="0" /><path
             d="m 256.7,533.1 c 0.7,-2.4 -3,-3.5 -3.7,-1.1 -0.7,2.5 3,3.5 3.7,1.1 z"
             id="path279"
             inkscape:connector-curvature="0" /><path
             d="m 258.8,525.8 c 0.8,-2.4 -2.9,-3.6 -3.7,-1.1 -0.7,2.4 3,3.5 3.7,1.1 z"
             id="path281"
             inkscape:connector-curvature="0" /><path
             d="m 261.2,518.7 c 0.8,-2.4 -2.9,-3.6 -3.7,-1.2 -0.8,2.4 2.9,3.6 3.7,1.2 z"
             id="path283"
             inkscape:connector-curvature="0" /><path
             d="m 263.6,511.5 c 0.9,-2.3 -2.7,-3.7 -3.6,-1.3 -0.9,2.4 2.8,3.7 3.6,1.3 z"
             id="path285"
             inkscape:connector-curvature="0" /><path
             d="m 266.3,504.6 c 0.9,-2.3 -2.7,-3.8 -3.6,-1.4 -0.9,2.3 2.7,3.7 3.6,1.4 z"
             id="path287"
             inkscape:connector-curvature="0" /><path
             d="m 269.2,497.5 c 1,-2.3 -2.5,-3.8 -3.6,-1.5 -1,2.3 2.6,3.8 3.6,1.5 z"
             id="path289"
             inkscape:connector-curvature="0" /><path
             d="m 272.2,490.7 c 1,-2.3 -2.5,-3.9 -3.5,-1.6 -1,2.3 2.5,3.9 3.5,1.6 z"
             id="path291"
             inkscape:connector-curvature="0" /><path
             d="m 275.4,483.8 c 1.1,-2.2 -2.3,-4 -3.5,-1.7 -1.1,2.3 2.4,3.9 3.5,1.7 z"
             id="path293"
             inkscape:connector-curvature="0" /><path
             d="m 278.8,477.2 c 1.1,-2.2 -2.3,-4 -3.4,-1.8 -1.2,2.2 2.3,4 3.4,1.8 z"
             id="path295"
             inkscape:connector-curvature="0" /><path
             d="m 282.4,470.5 c 1.2,-2.2 -2.1,-4.1 -3.4,-1.9 -1.3,2.2 2.2,4 3.4,1.9 z"
             id="path297"
             inkscape:connector-curvature="0" /><path
             d="m 286.1,464 c 1.2,-2.2 -2.1,-4.2 -3.4,-2 -1.2,2.2 2.2,4.1 3.4,2 z"
             id="path299"
             inkscape:connector-curvature="0" /><path
             d="m 290,457.5 c 1.3,-2.1 -1.9,-4.2 -3.3,-2.1 -1.3,2.1 2,4.2 3.3,2.1 z"
             id="path301"
             inkscape:connector-curvature="0" /><path
             d="m 294.1,451.2 c 1.3,-2.1 -1.9,-4.3 -3.2,-2.1 -1.4,2.1 1.8,4.2 3.2,2.1 z"
             id="path303"
             inkscape:connector-curvature="0" /><path
             d="m 298.3,444.9 c 1.4,-2 -1.7,-4.3 -3.2,-2.2 -1.4,2 1.8,4.2 3.2,2.2 z"
             id="path305"
             inkscape:connector-curvature="0" /><path
             d="m 299.5,436.5 c -1.5,2.1 1.7,4.3 3.1,2.3 1.5,-2 -1.6,-4.4 -3.1,-2.3 z"
             id="path307"
             inkscape:connector-curvature="0" /><path
             d="m 304.2,430.4 c -1.6,2 1.5,4.3 3.1,2.4 1.5,-2 -1.6,-4.4 -3.1,-2.4 z"
             id="path309"
             inkscape:connector-curvature="0" /><path
             d="m 308.9,424.4 c -1.6,2 1.5,4.4 3,2.5 1.5,-2 -1.5,-4.5 -3,-2.5 z"
             id="path311"
             inkscape:connector-curvature="0" /><path
             d="m 313.8,418.5 c -1.7,1.9 1.3,4.4 2.9,2.5 1.7,-1.8 -1.2,-4.4 -2.9,-2.5 z"
             id="path313"
             inkscape:connector-curvature="0" /><path
             d="m 318.8,412.8 c -1.7,1.9 1.3,4.5 2.9,2.6 1.6,-1.8 -1.2,-4.5 -2.9,-2.6 z"
             id="path315"
             inkscape:connector-curvature="0" /><path
             d="m 324.1,407.2 c -1.7,1.8 1.1,4.5 2.8,2.7 1.7,-1.8 -1.1,-4.5 -2.8,-2.7 z"
             id="path317"
             inkscape:connector-curvature="0" /><path
             d="m 329.3,401.7 c -1.7,1.8 1,4.5 2.7,2.7 1.8,-1.7 -0.9,-4.4 -2.7,-2.7 z"
             id="path319"
             inkscape:connector-curvature="0" /><path
             d="m 334.9,396.4 c -1.8,1.7 0.9,4.5 2.7,2.8 1.7,-1.7 -0.9,-4.5 -2.7,-2.8 z"
             id="path321"
             inkscape:connector-curvature="0" /><path
             d="m 340.4,391.2 c -1.9,1.7 0.8,4.6 2.6,2.9 1.9,-1.6 -0.7,-4.6 -2.6,-2.9 z"
             id="path323"
             inkscape:connector-curvature="0" /><path
             d="m 346.2,386.2 c -1.9,1.7 0.7,4.6 2.5,2.9 1.9,-1.6 -0.6,-4.6 -2.5,-2.9 z"
             id="path325"
             inkscape:connector-curvature="0" /><path
             d="m 352,381.3 c -2,1.6 0.5,4.5 2.5,3 1.9,-1.5 -0.5,-4.6 -2.5,-3 z"
             id="path327"
             inkscape:connector-curvature="0" /><path
             d="m 358,376.5 c -2,1.6 0.4,4.6 2.4,3.1 1.9,-1.5 -0.4,-4.6 -2.4,-3.1 z"
             id="path329"
             inkscape:connector-curvature="0" /><path
             d="m 364.1,371.9 c -2.1,1.5 0.3,4.6 2.3,3.1 2,-1.4 -0.3,-4.5 -2.3,-3.1 z"
             id="path331"
             inkscape:connector-curvature="0" /><path
             d="m 370.3,367.5 c -2.1,1.5 0.2,4.6 2.2,3.2 2.1,-1.5 -0.1,-4.7 -2.2,-3.2 z"
             id="path333"
             inkscape:connector-curvature="0" /><path
             d="m 376.6,363.2 c -2.1,1.4 0,4.6 2.1,3.2 2.1,-1.3 0,-4.5 -2.1,-3.2 z"
             id="path335"
             inkscape:connector-curvature="0" /><path
             d="m 383.1,359.1 c -2.1,1.4 0,4.6 2.1,3.3 2,-1.3 0,-4.7 -2.1,-3.3 z"
             id="path337"
             inkscape:connector-curvature="0" /><path
             d="m 389.6,355.2 c -2.2,1.3 -0.2,4.6 2,3.4 2.1,-1.3 0.2,-4.7 -2,-3.4 z"
             id="path339"
             inkscape:connector-curvature="0" /><path
             d="m 396.2,351.3 c -2.2,1.3 -0.3,4.6 1.9,3.4 2.2,-1.2 0.3,-4.6 -1.9,-3.4 z"
             id="path341"
             inkscape:connector-curvature="0" /><path
             d="m 402.9,347.8 c -2.2,1.2 -0.4,4.6 1.8,3.4 2.2,-1.1 0.5,-4.6 -1.8,-3.4 z"
             id="path343"
             inkscape:connector-curvature="0" /><path
             d="m 409.8,344.3 c -2.2,1.2 -0.5,4.6 1.7,3.5 2.2,-1.1 0.5,-4.7 -1.7,-3.5 z"
             id="path345"
             inkscape:connector-curvature="0" /><path
             d="m 416.7,341.1 c -2.3,1 -0.7,4.6 1.6,3.5 2.2,-1 0.7,-4.5 -1.6,-3.5 z"
             id="path347"
             inkscape:connector-curvature="0" /><path
             d="m 423.7,337.9 c -2.3,1 -0.7,4.6 1.5,3.6 2.3,-1 0.8,-4.6 -1.5,-3.6 z"
             id="path349"
             inkscape:connector-curvature="0" /><path
             d="m 430.7,335.1 c -2.4,0.9 -0.9,4.5 1.4,3.6 2.3,-0.9 1,-4.5 -1.4,-3.6 z"
             id="path351"
             inkscape:connector-curvature="0" /><path
             d="m 437.8,332.3 c -2.4,0.9 -1,4.6 1.3,3.6 2.4,-0.8 1.1,-4.4 -1.3,-3.6 z"
             id="path353"
             inkscape:connector-curvature="0" /><path
             d="m 445,329.9 c -2.4,0.8 -1.1,4.5 1.2,3.7 2.4,-0.9 1.2,-4.6 -1.2,-3.7 z"
             id="path355"
             inkscape:connector-curvature="0" /><path
             d="m 452.3,327.4 c -2.4,0.8 -1.2,4.5 1.1,3.7 2.5,-0.6 1.4,-4.4 -1.1,-3.7 z"
             id="path357"
             inkscape:connector-curvature="0" /><path
             d="m 459.6,325.3 c -2.4,0.7 -1.3,4.4 1.1,3.7 2.4,-0.6 1.4,-4.3 -1.1,-3.7 z"
             id="path359"
             inkscape:connector-curvature="0" /><path
             d="m 467,323.3 c -2.5,0.6 -1.5,4.4 1,3.8 2.4,-0.6 1.5,-4.4 -1,-3.8 z"
             id="path361"
             inkscape:connector-curvature="0" /><path
             d="m 474.4,321.6 c -2.5,0.6 -1.6,4.3 0.9,3.8 2.4,-0.6 1.6,-4.4 -0.9,-3.8 z"
             id="path363"
             inkscape:connector-curvature="0" /><path
             d="m 481.9,319.9 c -1.2,0.2 -1.7,1.3 -1.5,2.3 0.2,0.9 1,1.8 2.2,1.6 2.5,-0.5 1.8,-4.3 -0.7,-3.9 z"
             id="path365"
             inkscape:connector-curvature="0" /><path
             d="m 489.4,318.6 c -2.5,0.4 -1.8,4.3 0.7,3.8 2.4,-0.4 1.8,-4.2 -0.7,-3.8 z"
             id="path367"
             inkscape:connector-curvature="0" /><path
             d="m 497,317.3 c -2.5,0.3 -1.9,4.2 0.6,3.8 2.4,-0.2 1.9,-4.1 -0.6,-3.8 z"
             id="path369"
             inkscape:connector-curvature="0" /><path
             d="m 504.5,316.4 c -2.5,0.3 -2,4.2 0.5,3.9 2.4,-0.4 2,-4.2 -0.5,-3.9 z"
             id="path371"
             inkscape:connector-curvature="0" /><path
             d="m 512.1,315.5 c -2.5,0.2 -2.1,4.1 0.4,3.9 2.5,-0.2 2.1,-4.1 -0.4,-3.9 z"
             id="path373"
             inkscape:connector-curvature="0" /><path
             d="m 519.7,314.9 c -2.5,0.2 -2.2,4.1 0.3,3.9 2.4,-0.2 2.2,-4.1 -0.3,-3.9 z"
             id="path375"
             inkscape:connector-curvature="0" /><path
             d="m 527.4,314.5 c -2.5,0.1 -2.3,3.9 0.2,3.9 2.4,-0.1 2.3,-4 -0.2,-3.9 z"
             id="path377"
             inkscape:connector-curvature="0" /><path
             d="m 534.9,314.3 c -2.5,0.1 -2.4,3.9 0.1,3.9 2.5,-0.1 2.5,-4 -0.1,-3.9 z"
             id="path379"
             inkscape:connector-curvature="0" /><path
             d="m 542.6,314.2 c -2.5,-0.1 -2.5,3.8 0,3.9 2.5,0 2.6,-3.9 0,-3.9 z"
             id="path381"
             inkscape:connector-curvature="0" /><path
             d="m 550.2,314.4 c -2.5,-0.1 -2.6,3.8 -0.1,3.9 2.5,0 2.6,-3.9 0.1,-3.9 z"
             id="path383"
             inkscape:connector-curvature="0" /><path
             d="m 557.9,314.6 c -2.5,-0.2 -2.7,3.7 -0.2,3.9 2.4,0.2 2.7,-3.7 0.2,-3.9 z"
             id="path385"
             inkscape:connector-curvature="0" /><path
             d="m 565.5,315.2 c -2.5,-0.2 -2.8,3.7 -0.3,3.9 2.4,0.2 2.8,-3.7 0.3,-3.9 z"
             id="path387"
             inkscape:connector-curvature="0" /><path
             d="m 573.1,315.9 c -2.5,-0.3 -2.9,3.6 -0.4,3.9 2.4,0.3 2.9,-3.6 0.4,-3.9 z"
             id="path389"
             inkscape:connector-curvature="0" /><path
             d="m 580.6,316.9 c -2.5,-0.3 -3,3.5 -0.5,3.9 2.5,0.2 3,-3.6 0.5,-3.9 z"
             id="path391"
             inkscape:connector-curvature="0" /><path
             d="m 588.2,317.9 c -2.5,-0.4 -3.1,3.4 -0.6,3.8 2.5,0.5 3.1,-3.3 0.6,-3.8 z"
             id="path393"
             inkscape:connector-curvature="0" /><path
             d="m 595.7,319.3 c -2.5,-0.4 -3.2,3.4 -0.7,3.8 2.4,0.4 3.2,-3.4 0.7,-3.8 z"
             id="path395"
             inkscape:connector-curvature="0" /><path
             d="m 603.2,320.7 c -2.5,-0.6 -3.2,3.2 -0.8,3.8 2.5,0.6 3.3,-3.2 0.8,-3.8 z"
             id="path397"
             inkscape:connector-curvature="0" /><path
             d="m 610.6,322.4 c -2.5,-0.6 -3.3,3.2 -0.9,3.8 2.5,0.6 3.4,-3.2 0.9,-3.8 z"
             id="path399"
             inkscape:connector-curvature="0" /><path
             d="m 618.1,324.3 c -2.4,-0.7 -3.4,3.1 -1,3.8 2.4,0.6 3.4,-3.1 1,-3.8 z"
             id="path401"
             inkscape:connector-curvature="0" /><path
             d="m 625.4,326.4 c -2.4,-0.7 -3.5,3 -1.1,3.7 2.4,0.7 3.5,-3 1.1,-3.7 z"
             id="path403"
             inkscape:connector-curvature="0" /><path
             d="m 632.7,328.6 c -2.4,-0.8 -3.5,2.9 -1.2,3.7 2.4,0.8 3.6,-2.9 1.2,-3.7 z"
             id="path405"
             inkscape:connector-curvature="0" /><path
             d="m 639.9,331.1 c -2.4,-0.8 -3.6,2.9 -1.3,3.7 2.4,0.7 3.7,-2.9 1.3,-3.7 z"
             id="path407"
             inkscape:connector-curvature="0" /><path
             d="m 647.1,333.7 c -2.4,-0.9 -3.7,2.7 -1.4,3.6 2.4,0.9 3.8,-2.7 1.4,-3.6 z"
             id="path409"
             inkscape:connector-curvature="0" /><path
             d="m 654.2,336.5 c -2.4,-0.9 -3.8,2.7 -1.5,3.6 2.3,0.9 3.8,-2.7 1.5,-3.6 z"
             id="path411"
             inkscape:connector-curvature="0" /><path
             d="m 661.3,339.5 c -2.3,-1 -3.8,2.5 -1.6,3.6 2.2,1 3.9,-2.6 1.6,-3.6 z"
             id="path413"
             inkscape:connector-curvature="0" /><path
             d="m 668.2,342.6 c -2.3,-1 -3.9,2.5 -1.7,3.5 2.3,1.1 4,-2.4 1.7,-3.5 z"
             id="path415"
             inkscape:connector-curvature="0" /><path
             d="m 675.1,346 c -2.2,-1.2 -4,2.3 -1.7,3.5 2.1,1.1 3.9,-2.3 1.7,-3.5 z"
             id="path417"
             inkscape:connector-curvature="0" /><path
             d="m 681.8,349.5 c -2.2,-1.2 -4,2.3 -1.8,3.4 2.2,1.2 4.1,-2.3 1.8,-3.4 z"
             id="path419"
             inkscape:connector-curvature="0" /><path
             d="m 688.5,353.2 c -2.2,-1.3 -4.1,2.1 -1.9,3.4 2.1,1.3 4.1,-2.1 1.9,-3.4 z"
             id="path421"
             inkscape:connector-curvature="0" /><path
             d="m 695.1,357 c -2.2,-1.3 -4.2,2.1 -2,3.3 2.1,1.3 4.1,-1.9 2,-3.3 z"
             id="path423"
             inkscape:connector-curvature="0" /><path
             d="m 701.6,361.1 c -2.1,-1.4 -4.2,1.9 -2.1,3.3 2.1,1.4 4.2,-1.9 2.1,-3.3 z"
             id="path425"
             inkscape:connector-curvature="0" /><path
             d="m 708,365.2 c -2.1,-1.4 -4.3,1.9 -2.2,3.2 2,1.5 4.2,-1.7 2.2,-3.2 z"
             id="path427"
             inkscape:connector-curvature="0" /><path
             d="m 714.2,369.7 c -2.1,-1.5 -4.3,1.7 -2.3,3.2 2.1,1.4 4.4,-1.7 2.3,-3.2 z"
             id="path429"
             inkscape:connector-curvature="0" /><path
             d="m 720.4,374.1 c -2,-1.5 -4.3,1.6 -2.3,3.1 1.9,1.6 4.3,-1.5 2.3,-3.1 z"
             id="path431"
             inkscape:connector-curvature="0" /><path
             d="m 726.4,378.9 c -2,-1.6 -4.4,1.5 -2.4,3 2,1.6 4.4,-1.5 2.4,-3 z"
             id="path433"
             inkscape:connector-curvature="0" /><path
             d="m 732.3,383.6 c -1.9,-1.7 -4.4,1.4 -2.5,3 1.9,1.6 4.4,-1.3 2.5,-3 z"
             id="path435"
             inkscape:connector-curvature="0" /><path
             d="m 738.1,388.7 c -1.9,-1.7 -4.4,1.3 -2.6,2.9 1.9,1.6 4.5,-1.3 2.6,-2.9 z"
             id="path437"
             inkscape:connector-curvature="0" /><path
             d="m 743.8,393.7 c -1.8,-1.7 -4.4,1.1 -2.6,2.9 1.7,1.7 4.4,-1.1 2.6,-2.9 z"
             id="path439"
             inkscape:connector-curvature="0" /><path
             d="m 749.3,399 c -1.8,-1.7 -4.5,1.1 -2.7,2.8 1.8,1.7 4.6,-1 2.7,-2.8 z"
             id="path441"
             inkscape:connector-curvature="0" /><path
             d="m 754.7,404.4 c -1.7,-1.8 -4.5,0.9 -2.8,2.7 1.7,1.8 4.5,-0.9 2.8,-2.7 z"
             id="path443"
             inkscape:connector-curvature="0" /><path
             d="m 760,410 c -1.7,-1.8 -4.6,0.8 -2.8,2.6 1.7,1.8 4.5,-0.8 2.8,-2.6 z"
             id="path445"
             inkscape:connector-curvature="0" /><path
             d="m 765.1,415.6 c -1.7,-1.9 -4.5,0.7 -2.9,2.6 1.6,1.9 4.5,-0.7 2.9,-2.6 z"
             id="path447"
             inkscape:connector-curvature="0" /><path
             d="m 770.1,421.4 c -1.7,-1.9 -4.6,0.6 -3,2.5 1.6,1.9 4.7,-0.6 3,-2.5 z"
             id="path449"
             inkscape:connector-curvature="0" /><path
             d="m 774.9,427.3 c -1.6,-2 -4.6,0.5 -3,2.4 1.5,2 4.5,-0.4 3,-2.4 z"
             id="path451"
             inkscape:connector-curvature="0" /><path
             d="m 779.6,433.4 c -1.6,-2 -4.6,0.4 -3.1,2.3 1.5,2 4.6,-0.3 3.1,-2.3 z"
             id="path453"
             inkscape:connector-curvature="0" /><path
             d="m 784,439.5 c -1.5,-2.1 -4.6,0.2 -3.2,2.3 1.5,2 4.7,-0.2 3.2,-2.3 z"
             id="path455"
             inkscape:connector-curvature="0" /><path
             d="m 788.5,445.8 c -1.5,-2.1 -4.7,0.2 -3.2,2.2 1.3,2 4.6,-0.1 3.2,-2.2 z"
             id="path457"
             inkscape:connector-curvature="0" /><path
             d="m 792.6,452.2 c -1.4,-2.1 -4.6,0 -3.3,2.1 1.4,2 4.7,0 3.3,-2.1 z"
             id="path459"
             inkscape:connector-curvature="0" /><path
             d="m 796.7,458.6 c -1.3,-2.2 -4.6,-0.1 -3.3,2 1.2,2.2 4.6,0.2 3.3,-2 z"
             id="path461"
             inkscape:connector-curvature="0" /><path
             d="m 797.1,467.1 c 1.2,2.2 4.6,0.3 3.4,-1.9 -1.3,-2.2 -4.6,-0.2 -3.4,1.9 z"
             id="path463"
             inkscape:connector-curvature="0" /><path
             d="m 800.8,473.8 c 1.1,2.2 4.6,0.4 3.4,-1.8 -1.1,-2.3 -4.5,-0.5 -3.4,1.8 z"
             id="path465"
             inkscape:connector-curvature="0" /><path
             d="m 804.3,480.4 c 1.1,2.2 4.6,0.5 3.5,-1.7 -1.2,-2.3 -4.7,-0.5 -3.5,1.7 z"
             id="path467"
             inkscape:connector-curvature="0" /><path
             d="m 807.6,487.2 c 1,2.3 4.6,0.6 3.5,-1.7 -1,-2.2 -4.5,-0.5 -3.5,1.7 z"
             id="path469"
             inkscape:connector-curvature="0" /><path
             d="m 810.7,494 c 1,2.3 4.6,0.7 3.6,-1.6 -1.1,-2.2 -4.6,-0.6 -3.6,1.6 z"
             id="path471"
             inkscape:connector-curvature="0" /><path
             d="m 813.7,501 c 0.9,2.3 4.5,0.9 3.6,-1.5 -0.9,-2.3 -4.5,-0.8 -3.6,1.5 z"
             id="path473"
             inkscape:connector-curvature="0" /><path
             d="m 816.4,508 c 0.9,2.3 4.6,1 3.6,-1.4 -0.9,-2.4 -4.5,-0.9 -3.6,1.4 z"
             id="path475"
             inkscape:connector-curvature="0" /><path
             d="m 819,515.1 c 0.8,2.4 4.5,1.1 3.7,-1.3 -0.8,-2.4 -4.4,-1.1 -3.7,1.3 z"
             id="path477"
             inkscape:connector-curvature="0" /><path
             d="m 821.4,522.2 c 0.8,2.4 4.5,1.2 3.7,-1.2 -0.8,-2.4 -4.4,-1.2 -3.7,1.2 z"
             id="path479"
             inkscape:connector-curvature="0" /><path
             d="m 823.7,529.4 c 0.7,2.4 4.4,1.3 3.7,-1.1 -0.7,-2.4 -4.4,-1.3 -3.7,1.1 z"
             id="path481"
             inkscape:connector-curvature="0" /><path
             d="m 825.7,536.6 c 0.7,2.4 4.4,1.4 3.8,-1 -0.7,-2.4 -4.5,-1.3 -3.8,1 z"
             id="path483"
             inkscape:connector-curvature="0" /><path
             d="m 827.6,544 c 0.6,2.4 4.3,1.6 3.8,-0.9 -0.6,-2.5 -4.4,-1.5 -3.8,0.9 z"
             id="path485"
             inkscape:connector-curvature="0" /><path
             d="m 829.2,551.3 c 0.6,2.4 4.4,1.7 3.8,-0.8 -0.5,-2.5 -4.3,-1.6 -3.8,0.8 z"
             id="path487"
             inkscape:connector-curvature="0" /><path
             d="m 830.7,558.7 c 0.4,2.4 4.3,1.8 3.8,-0.7 -0.4,-2.5 -4.2,-1.7 -3.8,0.7 z"
             id="path489"
             inkscape:connector-curvature="0" /><path
             d="m 832,566.1 c 0.4,2.4 4.3,1.9 3.8,-0.6 -0.4,-2.5 -4.2,-1.8 -3.8,0.6 z"
             id="path491"
             inkscape:connector-curvature="0" /><path
             d="m 833.1,573.6 c 0.3,2.5 4.2,2 3.9,-0.5 -0.4,-2.5 -4.2,-2 -3.9,0.5 z"
             id="path493"
             inkscape:connector-curvature="0" /><path
             d="m 834,581 c 0.3,2.5 4.2,2.1 3.9,-0.4 -0.3,-2.5 -4.2,-2 -3.9,0.4 z"
             id="path495"
             inkscape:connector-curvature="0" /><path
             d="m 834.7,588.6 c 0.2,2.5 4.1,2.2 3.9,-0.3 -0.2,-2.5 -4.1,-2.2 -3.9,0.3 z"
             id="path497"
             inkscape:connector-curvature="0" /><path
             d="m 835.3,596.1 c 0.2,2.5 4.1,2.3 3.9,-0.2 -0.3,-2.6 -4.1,-2.3 -3.9,0.2 z"
             id="path499"
             inkscape:connector-curvature="0" /><path
             d="m 835.5,603.6 c 0.1,2.5 3.9,2.4 3.9,-0.1 0,-2.5 -3.9,-2.3 -3.9,0.1 z"
             id="path501"
             inkscape:connector-curvature="0" /><path
             d="m 835.7,611.1 c 0.1,2.5 3.9,2.5 3.9,0 -0.1,-2.5 -3.9,-2.5 -3.9,0 z"
             id="path503"
             inkscape:connector-curvature="0" /></g><g
           id="g505"><path
             class="noFillSVG"
             d="m 646.5,151 c -1.6,-0.4 -3,-0.8 -4,-1 -26.1,-7 -53.3,-11.1 -80.7,-12.2 -34,-1.4 -67.9,1.9 -100.7,9.7 -15.8,3.8 -31.6,8.7 -48.4,15.2 -1.8,0.7 -4,1.4 -6.3,2.1 -9.7,3.2 -22.9,7.5 -25.2,15.6 20.4,104.7 26.1,134.4 27.8,143 0,0 0.1,0.1 0.1,0.1 0.2,0.1 0.4,0.2 1.1,-0.1 37.1,-20.3 81,-30.4 126.7,-30.4 46.3,0 94.5,10.4 139.6,31.1 l 0.9,0.4 c 3.1,-18.3 22.1,-130.8 22.8,-147 0.5,-12.8 -40.3,-23.1 -53.7,-26.5 z"
             id="path507"
             inkscape:connector-curvature="0"
             style="fill:none" /><path
             d="m 647.5,147.2 c -1.6,-0.4 -2.9,-0.7 -3.9,-1 -26.4,-7.1 -53.8,-11.3 -81.5,-12.4 -34.4,-1.4 -68.6,1.9 -101.8,9.8 -16,3.8 -32,8.8 -48.9,15.3 -1.7,0.6 -3.8,1.3 -6.1,2.1 -10.7,3.5 -25.4,8.3 -27.9,18.8 l -0.1,0.4 0.1,0.4 c 0.3,1.4 28.2,145 28.5,146.5 l 1.6,-0.3 c 0.8,0.4 2.4,1 4.7,-0.2 73.6,-40.2 174.3,-39.9 262.8,0.8 l 5.5,2.5 0.4,-2.5 c 0.9,-5.4 22.5,-132.1 23.2,-150 0.6,-13.9 -30,-23.4 -56.6,-30.2 z m 30,177.2 -0.9,-0.4 C 631.5,303.3 583.3,292.9 537,292.9 c -45.7,0 -89.6,10.1 -126.7,30.4 -0.7,0.4 -0.9,0.3 -1.1,0.1 0,0 -0.1,-0.1 -0.1,-0.1 -1.6,-8.5 -7.4,-38.3 -27.8,-143 2.4,-8.2 15.6,-12.5 25.2,-15.6 2.3,-0.8 4.5,-1.5 6.3,-2.1 16.8,-6.5 32.6,-11.4 48.4,-15.2 32.8,-7.8 66.7,-11.1 100.7,-9.7 27.4,1.1 54.5,5.2 80.7,12.2 1,0.3 2.4,0.6 4,1 13.4,3.4 54.2,13.7 53.7,26.4 -0.7,16.4 -19.7,128.8 -22.8,147.1 z"
             id="path509"
             inkscape:connector-curvature="0" /></g><polygon
           points="532.9,187 512.5,187 512.5,202.6 532.9,202.6 532.9,223 548.5,223 548.5,202.6 568.9,202.6 568.9,187 548.5,187 548.5,166.6 532.9,166.6 "
           id="polygon511" /></g></g></switch></svg>