<?xml version="1.0" encoding="UTF-8" standalone="no"?>
<svg
   xmlns:dc="http://purl.org/dc/elements/1.1/"
   xmlns:cc="http://creativecommons.org/ns#"
   xmlns:rdf="http://www.w3.org/1999/02/22-rdf-syntax-ns#"
   xmlns:svg="http://www.w3.org/2000/svg"
   xmlns="http://www.w3.org/2000/svg"
   xmlns:sodipodi="http://sodipodi.sourceforge.net/DTD/sodipodi-0.dtd"
   xmlns:inkscape="http://www.inkscape.org/namespaces/inkscape"
   version="1.1"
   id="l66"
   x="0px"
   y="0px"
   viewBox="204.62728881835938 229.07162475585938 590.745361328125 541.856689453125"
   width="100%"
   height="100%"
   style="enable-background:new 0 0 1000 1000;"
   xml:space="preserve"
   ><style
     type="text/css"
     id="style3">
	#l66 .st0{fill:#F47878;}
</style><switch
     id="switch5"
     transform="translate(10.059029,0.02835454)"><g
       id="g7"><g
         id="g9"><path
           class="st0"
           d="m 756.6,280.8 c -34.7,-46.2 -97,-59.5 -151.3,-47.2 -46.7,10.7 -85,39.9 -114.7,76.5 -26,-32.4 -58.7,-59.2 -98.6,-72.4 -51,-16.9 -112.6,-9.7 -153.1,27.3 -50,45.6 -52.7,120.2 -32.7,180.6 22.2,67.1 66.2,127.5 113.6,179.1 48.4,52.8 104.1,98.3 161.7,140.7 2.5,1.8 5,3.6 7.5,5.5 3.1,-2.3 6.3,-4.6 9.3,-6.9 C 604.9,685.6 711,592.4 764,468.8 c 25.5,-59.6 33.8,-133.1 -7.4,-188 z M 632.5,638.2 C 589.1,682.6 540.7,721.8 490.8,758.6 398.7,690.8 310.6,613.8 252.1,514.3 220,459.7 194.4,393.7 212.3,330 c 19.6,-69.4 86.1,-103.4 155.1,-89 47.8,10 86.2,40.9 115.5,78.8 2.1,2.8 4.2,5.6 6.3,8.5 2.5,-3.4 4.9,-6.8 7.6,-10.2 25.6,-33.1 58.2,-60.8 98.6,-73.4 61.1,-19.1 131.7,1.2 161.7,60.4 58.9,116.5 -46.9,253.6 -124.6,333.1 z"
           id="path11"
           inkscape:connector-curvature="0"
           style="fill:#f47878" /></g></g></switch></svg>