<?xml version="1.0" encoding="UTF-8" standalone="no"?>
<svg
   xmlns:dc="http://purl.org/dc/elements/1.1/"
   xmlns:cc="http://creativecommons.org/ns#"
   xmlns:rdf="http://www.w3.org/1999/02/22-rdf-syntax-ns#"
   xmlns:svg="http://www.w3.org/2000/svg"
   xmlns="http://www.w3.org/2000/svg"
   xmlns:sodipodi="http://sodipodi.sourceforge.net/DTD/sodipodi-0.dtd"
   xmlns:inkscape="http://www.inkscape.org/namespaces/inkscape"
   version="1.1"
   id="l70"
   x="0px"
   y="0px"
   viewBox="0 0 1000 1000"
   width="100%"
   height="100%"
   style="enable-background:new 0 0 1000 1000;"
   xml:space="preserve"
   ><style
     type="text/css"
     id="style3">
	.noFillSVG{fill:none;}
	#l70 .st1{fill:#F47878;}
</style><switch
     id="switch5"
     transform="translate(-14.9,13.8)"><g
       id="g7"><g
         id="g9"><path
           class="noFillSVG"
           d="m 186.2,537.4 c 9.9,-5 18.4,-12.8 25.6,-20.2 7.7,-7.7 14,-15.7 20.6,-23.5 l 0.8,-1 -1.1,-1.2 c -6.5,-6.9 -12.6,-14.3 -20.1,-21.3 -7,-6.9 -15.1,-13.5 -24.3,-18.5 -8.7,-4.8 -20,-7.8 -29.3,-1.8 -7.5,5 -10.8,15.6 -8.9,24.9 0.7,4 2.2,7.6 4.2,10.8 2.1,3.2 4.8,6 7.6,8.4 -4.9,4.4 -9.1,10 -10.6,16.9 -1,4.4 -1,9.2 0.1,13.7 1.2,4.5 3.5,8.6 6.8,11.5 8.1,7.5 19.9,5.8 28.6,1.3 z"
           id="path11"
           inkscape:connector-curvature="0"
           style="fill:none" /><path
           class="noFillSVG"
           d="m 333.8,717.2 c -0.7,-5.1 -1.4,-10.2 -2.2,-15.2 l -0.2,-1.3 -1.6,0 c -9.4,0.1 -19.1,-0.2 -29.2,0.7 -9.8,0.6 -20.2,2.2 -30,5.6 -9.4,3.3 -19.1,9.6 -21,20.5 -1.3,9 4.4,18.5 12.5,23.3 6.8,4.4 14.8,5.2 22.2,4.1 -0.1,6.7 1.4,13.4 5.6,19.2 5.1,7.6 14.6,12.7 23.3,11.9 11,-1.3 17.5,-11 20,-20.6 2.8,-10.5 2.8,-22.2 2.1,-32.5 -0.4,-5.2 -0.8,-10.6 -1.5,-15.7 z"
           id="path13"
           inkscape:connector-curvature="0"
           style="fill:none" /><path
           class="noFillSVG"
           d="m 257.4,275.6 c 10.2,3.9 21.8,5.1 32.1,5.4 10.9,0.6 21,-0.1 31.2,-0.4 l 1.3,-0.1 0.2,-1.6 c 1.9,-18.5 4.5,-39.2 -0.1,-59.5 -2.3,-9.8 -7.6,-20.1 -18.2,-23 -4.5,-1.3 -9.1,-0.6 -13.4,1.3 -4.3,1.9 -8.3,4.9 -11.1,8.7 -5,6.5 -6.8,14.1 -6.4,21.7 -6.5,-0.7 -13.6,0 -19.7,3.5 -3.9,2.2 -7.6,5.4 -10.1,9.3 -2.5,3.9 -4,8.3 -4.1,12.7 0,11 9.1,18.5 18.3,22 z"
           id="path15"
           inkscape:connector-curvature="0"
           style="fill:none" /><path
           class="noFillSVG"
           d="m 259.7,608.5 0.4,-1.3 -1.5,-0.7 C 241.4,599.1 222.9,590 202,588.2 c -10.1,-0.8 -21.6,1 -27.5,10.2 -2.5,3.9 -3.4,8.5 -3,13.2 0.5,4.7 2.3,9.3 4.9,13.2 4.4,6.8 11.5,10.7 18.6,12.8 -2.8,6.1 -3.9,12.8 -2.7,19.8 0.7,4.5 2.9,8.8 5.8,12.4 2.9,3.6 6.5,6.5 10.8,7.8 10.6,3.3 20.4,-3 26.6,-10.7 6.9,-8.6 11.3,-19 15.1,-28.9 3.6,-9.8 6.6,-19.9 9.1,-29.5 z"
           id="path17"
           inkscape:connector-curvature="0"
           style="fill:none" /><path
           class="noFillSVG"
           d="m 194,399 c 11.1,-0.6 21.6,-4.3 31.6,-8.1 5,-2 9.7,-4.1 14.4,-6.4 4.8,-2.2 9.4,-4.5 13.8,-6.7 l 1.1,-0.6 -0.5,-1.6 C 248.7,358 242.6,338 230.3,321.3 c -6.1,-8 -15.1,-15.3 -26,-13.6 -9.3,1.3 -16.1,10 -18.5,19.1 -1.9,8 -0.3,15.7 3,22.4 -6.2,2 -12.1,5.6 -16.5,11.2 -5.3,7.3 -7.8,17.7 -3.9,25.9 4.4,10.1 15.6,13.2 25.6,12.7 z"
           id="path19"
           inkscape:connector-curvature="0"
           style="fill:none" /><path
           class="noFillSVG"
           d="m 378.4,198.8 c 4.7,3 9.5,5.6 14.2,7.9 4.8,2.3 9.6,4.5 14.4,6.5 4.8,1.9 9.5,3.8 14.2,5.7 l 1.2,0.5 0.8,-1.4 c 9.1,-16.3 20.1,-33.8 24.1,-54.4 1.9,-9.9 1.2,-21.5 -7.3,-28.4 -7.1,-5.8 -18.2,-5.4 -26.5,-0.9 -7.2,3.6 -11.9,10.3 -14.7,17.2 -5.7,-3.5 -12.3,-5.4 -19.4,-4.8 -4.5,0.3 -9.1,1.8 -13,4.4 -3.9,2.5 -7.2,5.8 -8.9,9.9 -4.4,10.2 0.8,20.6 7.8,27.6 4.1,4 8.5,7.2 13.1,10.2 z"
           id="path21"
           inkscape:connector-curvature="0"
           style="fill:none" /><path
           class="noFillSVG"
           d="m 651.3,237 0.4,1.2 1.6,-0.3 c 18.2,-4 38.6,-7.6 56.6,-18.4 8.6,-5.3 16.8,-13.5 16.3,-24.4 -0.2,-4.6 -2.3,-8.9 -5.3,-12.5 -3.1,-3.4 -7.3,-6.2 -11.7,-7.8 -7.6,-2.9 -15.6,-1.9 -22.6,0.6 -1.3,-6.5 -4.3,-12.6 -9.4,-17.6 -3.2,-3.2 -7.6,-5.4 -12,-6.7 -4.4,-1.3 -9.1,-1.4 -13.4,0 -10.5,3.5 -14.8,14.3 -15.3,24.2 -0.6,11 2,22 4.7,32.2 2.9,10.3 6.5,20.3 10.1,29.5 z"
           id="path23"
           inkscape:connector-curvature="0"
           style="fill:none" /><path
           class="noFillSVG"
           d="m 806.9,393 c -2.7,4.5 -5.6,9.1 -8,13.6 -2.4,4.6 -4.8,9.1 -7.2,13.5 l -0.6,1.2 1.3,1 c 7.7,5.4 15.3,11.3 24,16.6 8.4,5.3 17.5,10.1 27.6,13.1 9.6,2.9 21.2,3.5 29,-4.2 6.4,-6.5 7.3,-17.5 3.6,-26.3 -2.9,-7.6 -8.9,-12.9 -15.5,-16.4 2,-2.7 3.7,-5.6 4.9,-8.8 1.2,-3.1 1.8,-6.5 1.9,-10 0.3,-9.1 -4.3,-18.8 -11.9,-23.3 -9.7,-5.4 -20.6,-1.3 -28.3,4.9 -8.4,6.9 -15.3,16.4 -20.8,25.1 z"
           id="path25"
           inkscape:connector-curvature="0"
           style="fill:none" /><path
           class="noFillSVG"
           d="m 517,180.8 c 6.8,8.4 14.2,15.5 21.2,22.9 l 0.9,0.9 1.3,-1 c 3.8,-2.8 7.6,-5.6 11.5,-8.5 3.9,-2.9 7.8,-6.1 11.6,-9.3 7.6,-6.3 15,-13.7 21,-22.2 5.7,-8.2 9.8,-19 4.9,-29 -2.1,-4.2 -5.7,-7.1 -10,-9.1 -4.3,-2 -9.2,-2.9 -13.9,-2.4 -8.1,0.6 -15,4.4 -20.4,9.8 -3.8,-5.3 -9.1,-10.1 -15.8,-12.2 -4.3,-1.4 -9.1,-1.9 -13.6,-1.3 -4.6,0.8 -8.9,2.6 -12.2,5.6 -8.1,7.3 -7.6,19.1 -4.1,28.3 4.1,10.3 10.9,19.5 17.6,27.5 z"
           id="path27"
           inkscape:connector-curvature="0"
           style="fill:none" /><path
           class="noFillSVG"
           d="m 876.6,512 c -6.5,-8.9 -18.1,-9.6 -27.7,-7 -10.7,2.9 -20.5,8.7 -29.2,14.5 -9,5.9 -16.9,12.5 -24.9,18.7 l -1,0.8 0.8,1.4 c 9.4,16 19.4,34.3 35.1,48.1 7.6,6.5 17.9,11.8 28.3,7.9 4.4,-1.6 7.7,-4.9 10.1,-9 2.3,-4.1 3.9,-8.8 3.9,-13.6 0.2,-8.2 -2.7,-15.4 -7.6,-21.3 5.6,-3.3 11,-8 13.8,-14.4 1.9,-4.1 2.8,-8.8 2.7,-13.4 -0.3,-4.6 -1.7,-9.1 -4.3,-12.7 z"
           id="path29"
           inkscape:connector-curvature="0"
           style="fill:none" /><path
           class="noFillSVG"
           d="m 812.5,638.8 c -5.4,-0.9 -11,-0.9 -16.4,-0.6 -5.6,0.3 -11,1 -16.2,1.9 -5.2,0.9 -10.4,2 -15.5,3.2 -5.1,1.1 -9.9,2.6 -14.8,3.7 l -1.3,0.3 0.2,1.6 c 2.2,18.6 3.5,39.2 12.4,58.2 4.3,9.1 11.6,18.1 22.6,18.7 9.2,0.5 17.9,-6.3 21.9,-14.9 3.7,-7.2 3.6,-15.3 1.8,-22.5 6.7,-0.5 13.1,-2.9 18.5,-7.5 3.5,-2.9 6.3,-6.9 7.9,-11.2 1.7,-4.3 2.4,-8.9 1.4,-13.3 -2.4,-10.6 -12.7,-16 -22.5,-17.6 z"
           id="path31"
           inkscape:connector-curvature="0"
           style="fill:none" /><path
           class="noFillSVG"
           d="m 451.2,785.1 c -2.5,-4.8 -5.1,-9.3 -7.8,-13.7 -2.7,-4.4 -5.4,-8.9 -8.1,-13 l -0.7,-1.1 -1.6,0.7 c -16.9,7.5 -36.2,15.7 -51.5,29.8 -7.3,6.9 -13.6,16.6 -10.8,27.3 2.3,9.1 11.6,14.9 20.9,16.3 8.1,0.9 15.6,-1.1 22,-5.3 2.7,6 6.8,11.6 12.9,15.3 7.8,4.6 18.5,5.8 26.2,1.2 9.5,-5.5 11.4,-17 9.9,-26.8 -1.8,-11.1 -6.6,-21.3 -11.4,-30.7 z"
           id="path33"
           inkscape:connector-curvature="0"
           style="fill:none" /><path
           class="noFillSVG"
           d="m 801.6,321.6 c 10,-1.3 20.8,-5.5 24.8,-15.7 3.5,-8.7 -0.6,-18.9 -7.3,-25.5 -6,-5.5 -13.3,-8.2 -20.9,-8.6 1.3,-6.4 1.3,-13.4 -1.5,-19.9 -1.8,-4.1 -4.7,-8 -8.2,-11 -3.5,-3 -7.9,-4.9 -12.3,-5.3 -10.9,-1.1 -19.3,7.1 -23.8,15.9 -5.1,9.9 -7.2,21.1 -8.8,31.4 -0.8,5.3 -1.4,10.6 -1.7,15.7 -0.4,5.2 -0.8,10.4 -1.1,15.3 l -0.1,1.3 1.6,0.3 c 18.3,3.8 38.8,8.5 59.3,6.1 z"
           id="path35"
           inkscape:connector-curvature="0"
           style="fill:none" /><circle
           transform="matrix(0.7071,-0.7071,0.7071,0.7071,-193.7212,504.6328)"
           class="noFillSVG"
           cx="512.29999"
           cy="486.20001"
           id="ellipse37"
           r="220.7"
           style="fill:none" /><path
           class="noFillSVG"
           d="m 724.8,746.3 c -9.3,-6.1 -20.1,-9.2 -30.3,-12 -5.2,-1.4 -10.3,-2.3 -15.4,-3.3 -5.1,-1 -10.2,-1.9 -15.1,-2.6 l -1.3,-0.2 -0.5,1.5 c -5.7,17.7 -12.6,37.3 -12.3,58.2 0.2,10.1 3.3,21.3 13.1,26.3 4.1,2.1 8.9,2.6 13.5,1.6 4.6,-1 9,-3.2 12.7,-6.2 6.2,-5.3 9.5,-12.6 10.8,-19.8 6.2,2 13.1,2.6 20,0.6 8.5,-2.8 16.7,-9.8 18.4,-18.7 2,-10.9 -5.2,-20 -13.6,-25.4 z"
           id="path39"
           inkscape:connector-curvature="0"
           style="fill:none" /><path
           class="noFillSVG"
           d="m 578.3,785.6 c -8.4,-6.9 -17,-12.2 -25.4,-18 l -1.1,-0.7 -1.1,1.2 c -6.2,7.2 -12.9,14 -19,22.2 -6.2,7.7 -11.9,16.3 -15.9,26.1 -3.9,9.2 -5.7,20.7 1.2,29.3 5.8,7 16.6,9.2 25.7,6.3 3.9,-1.1 7.4,-3 10.3,-5.3 3,-2.4 5.5,-5.4 7.6,-8.5 4.9,4.5 11,8 18,8.7 9,1.2 19.2,-2.3 24.4,-9.4 6.5,-8.9 3.5,-20.4 -1.9,-28.6 -6,-9.1 -14.7,-17 -22.8,-23.3 z"
           id="path41"
           inkscape:connector-curvature="0"
           style="fill:none" /><path
           class="st1"
           d="m 514.9,68.9 c -230.5,0 -417.3,186.8 -417.3,417.3 0,230.5 186.8,417.3 417.3,417.3 230.5,0 417.3,-186.8 417.3,-417.3 C 932.2,255.7 745.4,68.9 514.9,68.9 Z M 856,363 c 7.6,4.5 12.3,14.2 11.9,23.3 -0.1,3.5 -0.7,6.9 -1.9,10 -1.2,3.2 -2.9,6.1 -4.9,8.8 6.7,3.5 12.6,8.8 15.5,16.4 3.7,8.7 2.8,19.8 -3.6,26.3 -7.8,7.7 -19.5,7.1 -29,4.2 -10.1,-3 -19.2,-7.8 -27.6,-13.1 -8.7,-5.3 -16.3,-11.2 -24,-16.6 l -1.3,-1 0.6,-1.2 c 2.4,-4.5 4.8,-9 7.2,-13.5 2.4,-4.5 5.3,-9.2 8,-13.6 5.5,-8.8 12.4,-18.2 20.8,-25.1 7.6,-6.2 18.6,-10.3 28.3,-4.9 z M 651.7,151.2 c 4.3,-1.5 8.9,-1.4 13.4,0 4.4,1.3 8.7,3.5 12,6.7 5.1,5 8.1,11.1 9.4,17.6 6.9,-2.5 15,-3.4 22.6,-0.6 4.4,1.7 8.6,4.4 11.7,7.8 3,3.6 5.1,7.9 5.3,12.5 0.6,10.9 -7.6,19.2 -16.3,24.4 -18,10.8 -38.4,14.3 -56.6,18.4 l -1.6,0.3 -0.4,-1.2 c -3.6,-9.3 -7.1,-19.2 -10.1,-29.4 -2.7,-10.2 -5.3,-21.2 -4.7,-32.2 0.6,-10 4.9,-20.8 15.3,-24.3 z M 503.7,125 c 3.3,-3 7.6,-4.8 12.2,-5.6 4.6,-0.6 9.4,-0.1 13.6,1.3 6.7,2.1 11.9,7 15.8,12.2 5.3,-5.4 12.2,-9.2 20.4,-9.8 4.7,-0.5 9.6,0.4 13.9,2.4 4.3,2 7.9,4.9 10,9.1 4.9,9.9 0.8,20.7 -4.9,29 -6,8.5 -13.3,15.9 -21,22.2 -3.8,3.2 -7.8,6.4 -11.6,9.3 -3.9,2.9 -7.8,5.7 -11.5,8.5 l -1.3,1 -0.9,-0.9 c -7,-7.4 -14.4,-14.4 -21.2,-22.9 -6.7,-8 -13.5,-17.2 -17.5,-27.5 -3.7,-9.3 -4.2,-21 4,-28.3 z m -146.1,36.1 c 1.8,-4.1 5,-7.4 8.9,-9.9 3.9,-2.6 8.5,-4.1 13,-4.4 7.1,-0.6 13.7,1.3 19.4,4.8 2.8,-6.9 7.4,-13.5 14.7,-17.2 8.3,-4.6 19.4,-4.9 26.5,0.9 8.5,6.9 9.1,18.5 7.3,28.4 -4,20.6 -15,38.1 -24.1,54.4 l -0.8,1.4 -1.2,-0.5 c -4.7,-1.9 -9.4,-3.8 -14.2,-5.7 -4.8,-2 -9.6,-4.2 -14.4,-6.5 -4.7,-2.3 -9.5,-4.9 -14.2,-7.9 -4.6,-3 -9.1,-6.2 -13,-10.1 -7,-7.1 -12.2,-17.5 -7.9,-27.7 z m -114.5,79.7 c 2.5,-3.9 6.2,-7 10.1,-9.3 6.1,-3.6 13.2,-4.2 19.7,-3.5 -0.4,-7.6 1.4,-15.2 6.4,-21.7 2.8,-3.8 6.8,-6.8 11.1,-8.7 4.3,-1.9 8.9,-2.6 13.4,-1.3 10.6,2.9 15.9,13.2 18.2,23 4.6,20.3 1.9,41 0.1,59.5 l -0.2,1.6 -1.3,0.1 c -10.2,0.3 -20.3,1 -31.2,0.4 -10.3,-0.3 -21.9,-1.5 -32.1,-5.4 -9.1,-3.5 -18.3,-11 -18.3,-22 0.1,-4.3 1.6,-8.8 4.1,-12.7 z m -70.9,119.6 c 4.4,-5.6 10.3,-9.2 16.5,-11.2 -3.3,-6.7 -4.8,-14.5 -3,-22.4 2.4,-9.1 9.2,-17.7 18.5,-19.1 10.8,-1.7 19.9,5.6 26,13.6 12.4,16.7 18.4,36.7 24.1,54.3 l 0.5,1.6 -1.1,0.6 c -4.4,2.3 -9,4.5 -13.8,6.7 -4.7,2.2 -9.4,4.4 -14.4,6.4 -9.9,3.8 -20.4,7.5 -31.6,8.1 -9.9,0.5 -21.1,-2.6 -25.7,-12.6 -3.8,-8.3 -1.3,-18.7 4,-26 z m -21.3,164.3 c -1.1,-4.5 -1,-9.3 -0.1,-13.7 1.4,-6.9 5.7,-12.6 10.6,-16.9 -2.9,-2.4 -5.6,-5.2 -7.6,-8.4 -2,-3.2 -3.5,-6.8 -4.2,-10.8 -1.9,-9.3 1.4,-19.9 8.9,-24.9 9.3,-5.9 20.6,-3 29.3,1.8 9.2,5 17.2,11.6 24.3,18.5 7.5,7 13.6,14.3 20.1,21.3 l 1.1,1.2 -0.8,1 c -6.6,7.8 -12.9,15.8 -20.6,23.5 -7.2,7.4 -15.7,15.2 -25.6,20.2 -8.7,4.5 -20.5,6.2 -28.6,-1.2 -3.4,-3 -5.6,-7.1 -6.8,-11.6 z m 58,153 c -4.3,-1.3 -8,-4.2 -10.8,-7.8 -2.8,-3.6 -5,-7.9 -5.8,-12.4 -1.2,-7 -0.2,-13.7 2.7,-19.8 -7.1,-2.1 -14.2,-6 -18.6,-12.8 -2.6,-3.9 -4.4,-8.6 -4.9,-13.2 -0.4,-4.7 0.5,-9.4 3,-13.2 5.9,-9.2 17.4,-11 27.5,-10.2 20.9,1.8 39.4,10.9 56.6,18.3 l 1.5,0.7 -0.4,1.3 c -2.5,9.6 -5.5,19.7 -9.1,29.7 -3.7,9.9 -8.2,20.3 -15.1,28.9 -6.2,7.6 -16,13.8 -26.6,10.5 z m 124.4,87.8 c -2.6,9.5 -9,19.3 -20,20.6 -8.8,0.8 -18.3,-4.3 -23.3,-11.9 -4.1,-5.7 -5.7,-12.5 -5.6,-19.2 -7.4,1.2 -15.4,0.3 -22.2,-4.1 -8.2,-4.8 -13.9,-14.4 -12.5,-23.3 1.8,-10.9 11.5,-17.3 21,-20.5 9.8,-3.4 20.2,-5 30,-5.6 10.2,-0.9 19.8,-0.6 29.2,-0.7 l 1.6,0 0.2,1.3 c 0.7,5 1.4,10.1 2.2,15.2 0.7,5.1 1.1,10.5 1.5,15.8 0.6,10.2 0.6,21.9 -2.1,32.4 z m 119.4,77 c -7.7,4.7 -18.4,3.4 -26.2,-1.2 -6.1,-3.6 -10.2,-9.3 -12.9,-15.3 -6.4,4.2 -13.9,6.3 -22,5.3 -9.3,-1.5 -18.6,-7.2 -20.9,-16.3 -2.8,-10.7 3.5,-20.4 10.8,-27.3 15.3,-14 34.6,-22.2 51.5,-29.8 l 1.5,-0.7 0.7,1.1 c 2.7,4.2 5.4,8.6 8.1,13 2.7,4.3 5.4,8.9 7.8,13.7 4.8,9.3 9.7,19.5 11.4,30.5 1.6,10 -0.3,21.5 -9.8,27 z M 291.6,486.2 c 0,-121.9 98.8,-220.7 220.7,-220.7 121.9,0 220.7,98.8 220.7,220.7 0,121.9 -98.8,220.7 -220.7,220.7 -121.9,0 -220.7,-98.8 -220.7,-220.7 z m 311.3,351.3 c -5.2,7.2 -15.4,10.7 -24.4,9.4 -7,-0.7 -13.1,-4.3 -18,-8.7 -2.1,3.1 -4.6,6 -7.6,8.5 -3,2.3 -6.4,4.1 -10.3,5.3 -9.1,2.8 -19.9,0.7 -25.7,-6.3 -6.9,-8.6 -5.1,-20.1 -1.2,-29.3 4.1,-9.7 9.8,-18.3 15.9,-26.1 6.2,-8.2 12.8,-15 19,-22.2 l 1.1,-1.2 1.1,0.7 c 8.4,5.8 17,11.1 25.4,18 8.1,6.3 16.8,14.1 22.8,23.3 5.4,8.2 8.4,19.7 1.9,28.6 z m 135.3,-65.9 c -1.7,8.9 -9.8,15.9 -18.4,18.7 -6.9,2 -13.7,1.4 -20,-0.6 -1.3,7.3 -4.6,14.6 -10.8,19.8 -3.6,3 -8.1,5.2 -12.7,6.2 -4.6,1 -9.4,0.5 -13.5,-1.6 -9.8,-5 -12.8,-16.2 -13.1,-26.3 -0.3,-20.8 6.6,-40.5 12.3,-58.2 l 0.5,-1.5 1.3,0.2 c 4.9,0.8 10,1.6 15.1,2.6 5.1,1 10.2,1.9 15.4,3.3 10.3,2.8 21,5.9 30.3,12 8.6,5.5 15.8,14.6 13.6,25.4 z m 2.7,-456.5 0.1,-1.3 c 0.3,-5 0.7,-10.2 1.1,-15.3 0.4,-5.1 0.9,-10.4 1.7,-15.7 1.6,-10.4 3.7,-21.5 8.8,-31.4 4.5,-8.8 12.9,-17 23.8,-15.9 4.4,0.5 8.7,2.4 12.3,5.3 3.5,3 6.4,6.9 8.2,11 2.8,6.5 2.8,13.5 1.5,19.9 7.6,0.4 14.9,3.1 20.9,8.6 6.7,6.6 10.8,16.8 7.3,25.5 -4,10.3 -14.8,14.5 -24.8,15.7 -20.6,2.4 -41.1,-2.3 -59.1,-6.1 l -1.8,-0.3 z m 92.8,354.8 c -1.7,4.3 -4.4,8.3 -7.9,11.2 -5.4,4.6 -11.8,7 -18.5,7.5 1.8,7.2 1.9,15.3 -1.8,22.5 -4,8.6 -12.8,15.3 -21.9,14.9 -10.9,-0.6 -18.3,-9.6 -22.6,-18.7 -8.9,-19.1 -10.2,-39.6 -12.4,-58.2 l -0.2,-1.6 1.3,-0.3 c 5,-1.2 9.7,-2.6 14.8,-3.7 5.1,-1.1 10.3,-2.3 15.5,-3.2 5.1,-0.9 10.6,-1.6 16.2,-1.9 5.4,-0.4 11,-0.3 16.4,0.6 9.8,1.6 20.1,6.9 22.5,17.8 1,4.2 0.2,8.8 -1.4,13.1 z m 30.6,-117.3 c 4.9,5.9 7.8,13.1 7.6,21.3 0,4.8 -1.6,9.5 -3.9,13.6 -2.4,4 -5.7,7.3 -10.1,9 -10.3,3.9 -20.7,-1.4 -28.3,-7.9 -15.7,-13.7 -25.7,-32 -35.1,-48.1 l -0.8,-1.4 1,-0.8 c 8,-6.2 15.9,-12.8 24.9,-18.7 8.7,-5.8 18.4,-11.7 29.2,-14.5 9.6,-2.6 21.2,-1.9 27.7,7 2.6,3.6 4,8.1 4.3,12.7 0.1,4.6 -0.9,9.3 -2.7,13.4 -2.8,6.4 -8.2,11.1 -13.8,14.4 z"
           id="path43"
           inkscape:connector-curvature="0"
           style="fill:#f47878" /></g></g></switch></svg>