<?xml version="1.0" encoding="UTF-8" standalone="no"?>
<svg
   xmlns:dc="http://purl.org/dc/elements/1.1/"
   xmlns:cc="http://creativecommons.org/ns#"
   xmlns:rdf="http://www.w3.org/1999/02/22-rdf-syntax-ns#"
   xmlns:svg="http://www.w3.org/2000/svg"
   xmlns="http://www.w3.org/2000/svg"
   xmlns:sodipodi="http://sodipodi.sourceforge.net/DTD/sodipodi-0.dtd"
   xmlns:inkscape="http://www.inkscape.org/namespaces/inkscape"
   version="1.1"
   id="l72"
   x="0px"
   y="0px"
   viewBox="202.62881469726562 227.25323486328125 594.7423095703125 545.4935302734375"
   width="100%"
   height="100%"
   style="enable-background:new 0 0 1000 1000;"
   xml:space="preserve"
   ><style
     type="text/css"
     id="style3">
	.noFillSVG{fill:none;}
	#l72 .st1{fill:#F47878;}
	#l72 .st2{fill:#BC9962;}
</style><switch
     id="switch5"
     transform="translate(24.320305,-0.05325088)"><g
       id="g7"><g
         id="g9"><circle
           class="noFillSVG"
           cx="475.70001"
           cy="500"
           r="149.5"
           id="circle11"
           style="fill:none" /><path
           class="noFillSVG"
           d="m 475.7,340.5 c -88.1,0 -159.5,71.4 -159.5,159.5 0,88.1 71.4,159.5 159.5,159.5 88.1,0 159.5,-71.4 159.5,-159.5 0,-88.1 -71.4,-159.5 -159.5,-159.5 z m 0,313.3 c -84.8,0 -153.8,-69 -153.8,-153.8 0,-84.8 69,-153.8 153.8,-153.8 84.8,0 153.8,69 153.8,153.8 0,84.8 -69,153.8 -153.8,153.8 z"
           id="path13"
           inkscape:connector-curvature="0"
           style="fill:none" /><path
           class="st1"
           d="m 744.1,279.3 c -34.9,-46.5 -97.7,-60 -152.3,-47.5 -47.1,10.7 -85.6,40.2 -115.5,77 -26.2,-32.6 -59.1,-59.6 -99.3,-72.8 -51.3,-17 -113.3,-9.7 -154.1,27.5 -50.3,46 -53,121.1 -32.9,181.9 22.4,67.5 66.7,128.4 114.3,180.3 48.8,53.1 104.8,99 162.8,141.6 2.5,1.8 5,3.7 7.6,5.5 3.1,-2.3 6.3,-4.6 9.4,-6.9 107.4,-79 214.2,-172.8 267.5,-297.3 25.7,-60 34,-134 -7.5,-189.3 z M 475.7,659.5 c -88.1,0 -159.5,-71.4 -159.5,-159.5 0,-88.1 71.4,-159.5 159.5,-159.5 88.1,0 159.5,71.4 159.5,159.5 0,88.1 -71.4,159.5 -159.5,159.5 z"
           id="path15"
           inkscape:connector-curvature="0"
           style="fill:#f47878" /><path
           class="st2"
           d="m 475.7,346.2 c -84.8,0 -153.8,69 -153.8,153.8 0,84.8 69,153.8 153.8,153.8 84.8,0 153.8,-69 153.8,-153.8 0,-84.8 -69,-153.8 -153.8,-153.8 z m 0,303.3 c -82.4,0 -149.5,-67.1 -149.5,-149.5 0,-82.4 67.1,-149.5 149.5,-149.5 82.4,0 149.5,67.1 149.5,149.5 0,82.4 -67.1,149.5 -149.5,149.5 z"
           id="path17"
           inkscape:connector-curvature="0"
           style="fill:#bc9962" /></g></g></switch></svg>