<?xml version="1.0" encoding="UTF-8" standalone="no"?>
<svg
   xmlns:dc="http://purl.org/dc/elements/1.1/"
   xmlns:cc="http://creativecommons.org/ns#"
   xmlns:rdf="http://www.w3.org/1999/02/22-rdf-syntax-ns#"
   xmlns:svg="http://www.w3.org/2000/svg"
   xmlns="http://www.w3.org/2000/svg"
   xmlns:sodipodi="http://sodipodi.sourceforge.net/DTD/sodipodi-0.dtd"
   xmlns:inkscape="http://www.inkscape.org/namespaces/inkscape"
   version="1.1"
   id="l73"
   x="0px"
   y="0px"
   viewBox="0 0 1000 1000"
   width="100%"
   height="100%"
   style="enable-background:new 0 0 1000 1000;"
   xml:space="preserve"
   ><style
     type="text/css"
     id="style3">
	#l73 .st0{fill:#D0AC70;}
	#l73 .st1{fill:#F47878;}
</style><switch
     id="switch5"
     transform="translate(-37.600039,12.711864)"><g
       id="g7"><g
         id="g9"><g
           id="g11"><g
             id="g13"><path
               class="st0"
               d="m 869.6,572.7 0.7,-0.3 c 13.8,-7.9 16.4,-20.3 15.2,-29.8 -0.6,-4.8 -2.1,-8.9 -3.4,-11.8 -1.3,-2.9 -2.5,-4.6 -2.5,-4.6 0,0 -1.5,1.4 -3.7,3.8 -2.2,2.4 -4.9,5.8 -7,9.9 -4.4,8.2 -6.8,19.1 0.7,32.8 z m -18.9,-52.5 c 4.1,4.8 8.4,6.8 12.6,7 4.2,0.2 7.9,-1.3 10.2,-3.1 1.7,-1.3 4.7,-4 6.5,-7.2 0.3,-0.4 0.5,-0.8 0.8,-1.3 0.1,0.5 0.1,0.9 0.3,1.3 1,3.5 3.4,6.8 5,8.9 1.9,2.5 5,5.1 9,6.1 4,1 9,0.4 14,-4 13.9,-12.1 3,-27 -10.2,-38.7 -6.7,-5.9 -10.6,-10.6 -13,-14 -2.5,-3.3 -3.2,-5.3 -3.2,-5.3 0,0 -0.6,2 -2.9,5.3 -2.3,3.3 -6.5,8 -13.3,13.1 -13.8,10.3 -26.5,19.2 -15.8,31.9 z m 16.1,-24.3 c 8.3,-7.2 9,-4.7 16.4,-14.9 0,0 0.2,1 2.2,3.5 1.9,2.5 5.9,6.5 12.5,12.9 5.9,5.7 4.9,10.6 2.2,13.9 -2.7,3.3 -7.3,4.9 -8,4.8 0,0 -5.8,1.2 -10.1,-6.3 0,0 -1.5,2.1 -4,3.4 -2.5,1.4 -6,2 -9.9,-0.6 -7.7,-5.1 -9.7,-9.7 -1.3,-16.7 z"
               id="path15"
               inkscape:connector-curvature="0"
               style="fill:#d0ac70" /><path
               class="st0"
               d="m 884.8,509.6 c 2.6,0.3 4.7,-1.7 4.9,-4.4 0.2,-2.6 -1.7,-4.9 -4.3,-5 0,0 -2,-0.2 -3.1,0.9 0,0 -1.3,-1.3 -2.9,-1.2 -2.7,-0.2 -4.8,1.8 -5,4.3 -0.1,2.5 1.7,4.7 4.3,5 0,0 1.9,0 3.1,-1 0,-0.1 0.8,1.1 3,1.4 z"
               id="path17"
               inkscape:connector-curvature="0"
               style="fill:#d0ac70" /></g><g
             id="g19"><path
               class="st0"
               d="m 813.3,686.2 0.8,0 c 15.7,-2.4 22.7,-13 25,-22.3 1.3,-4.6 1.4,-9 1.1,-12.3 -0.2,-3.2 -0.7,-5.2 -0.7,-5.2 0,0 -2,0.7 -4.8,2.2 -2.8,1.5 -6.5,3.7 -10.1,6.7 -7.1,6.2 -13.3,15.4 -11.3,30.9 z m 1.5,-55.8 c 3.8,11.9 14,13.6 19.8,11.9 2,-0.6 6,-1.9 8.8,-4.3 0.4,-0.3 0.8,-0.6 1.1,-1 -0.1,0.5 -0.2,0.9 -0.2,1.3 -0.2,3.7 0.6,7.5 1.3,10.1 1.6,5.8 7.8,14.6 20.7,10.3 17.4,-6.1 12.5,-24.1 4.6,-39.8 -3.9,-7.8 -6.2,-13.8 -7.1,-17.8 -1,-4 -1,-6.1 -1,-6.1 0,0 -1.3,1.6 -4.7,3.8 -3.5,2.2 -8.7,5.2 -17.1,7.4 -16.6,4.7 -31.5,8.5 -26.2,24.2 z m 23.8,-16.8 c 10.1,-3.8 10.4,-1 20.7,-7.9 0,0 -0.1,1 0.8,4.1 0.9,3.1 2.8,8.1 6.9,16.5 3.7,7.5 0.7,11.7 -3.1,13.7 -3.8,2 -8.5,2 -9.1,1.6 0,0 -5.8,-1 -7.2,-9.6 0,0 -2.1,1.4 -4.9,1.7 -2.8,0.4 -6.3,-0.3 -9,-4.1 -5.6,-7.6 -5.1,-12.3 4.9,-16 z"
               id="path21"
               inkscape:connector-curvature="0"
               style="fill:#d0ac70" /><path
               class="st0"
               d="m 850.3,632.9 c 2.3,1.3 5.1,0.1 6.3,-2.3 1.2,-2.3 0.2,-5.2 -2.2,-6.3 0,0 -1.8,-0.9 -3.1,-0.3 0,0 -0.8,-1.7 -2.3,-2.2 -2.4,-1.1 -5.1,0 -6.2,2.2 -1.1,2.3 -0.2,5 2.1,6.1 0,0 1.7,0.7 3.3,0.2 -0.1,0.1 0.1,1.5 2.1,2.6 z"
               id="path23"
               inkscape:connector-curvature="0"
               style="fill:#d0ac70" /></g><g
             id="g25"><path
               class="st0"
               d="m 720,771.9 0.7,0.3 c 7.6,1.6 14.1,0.6 19.4,-1.7 5.1,-2.5 9.1,-6.3 11.9,-10.1 5.5,-8 6.7,-16.2 6.7,-16.2 0,0 -8.4,-0.3 -17.1,2.9 -4.5,1.5 -9,3.9 -12.7,7.9 -4,3.8 -7.1,9.2 -8.9,16.9 z m 21.4,-51.6 c -0.8,12.3 8.1,17.7 14.2,18.2 2.2,0.2 6.1,0.2 9.6,-0.9 0.5,-0.1 0.9,-0.3 1.4,-0.5 -0.3,0.4 -0.5,0.8 -0.7,1.2 -1.6,3.3 -2,7.4 -2.3,10 -0.6,5.9 2,16.4 15.6,17 9,0.2 14.3,-4.3 16.9,-11 2.5,-6.9 2.5,-15.7 1.7,-24.5 -1,-8.8 -0.8,-15.1 -0.2,-19.1 0.5,-4.1 1.2,-6.1 1.2,-6.1 0,0 -1.7,1.1 -5.7,2 -4,0.8 -10.2,1.5 -18.6,0.7 -8.5,-0.9 -16.8,-1.9 -22.7,-0.4 -6.1,1.4 -10.1,4.9 -10.4,13.4 z m 28.2,-7.1 c 11,0.3 10,2.7 22.2,0.1 0,0 -0.5,0.9 -0.7,4.1 -0.2,3.2 -0.1,8.7 0.5,17.9 0.6,8.2 -3.4,11.3 -7.7,11.7 -4.3,0.5 -8.7,-1.3 -9.1,-1.8 0,0 -5.1,-3 -3.2,-11.5 0,0 -2.5,0.5 -5.3,-0.2 -2.8,-0.7 -5.8,-2.5 -6.9,-7.1 -1.2,-4.5 -1.3,-7.9 0.3,-10.1 1.3,-2.3 4.5,-3.3 9.9,-3.1 z"
               id="path27"
               inkscape:connector-curvature="0"
               style="fill:#d0ac70" /><path
               class="st0"
               d="m 773.6,735.4 c 1.7,2 4.8,2 6.6,0.1 1.9,-1.8 2,-4.8 0.2,-6.7 0,0 -1.3,-1.5 -2.8,-1.4 0,0 -0.1,-1.8 -1.3,-2.8 -1.8,-1.9 -4.8,-1.9 -6.5,-0.2 -1.7,1.8 -1.9,4.6 -0.2,6.5 0,0 1.3,1.3 3,1.4 -0.2,0 -0.4,1.4 1,3.1 z"
               id="path29"
               inkscape:connector-curvature="0"
               style="fill:#d0ac70" /></g><g
             id="g31"><path
               class="st0"
               d="m 601.9,817.8 0.6,0.5 c 3.3,2.2 6.5,3.7 9.7,4.6 3.1,0.8 6.1,1 9,0.9 5.7,-0.3 10.8,-2.3 14.8,-5.1 4,-2.7 7.1,-5.8 9.1,-8.2 2,-2.6 3,-4.4 3,-4.4 0,0 -1.9,-0.8 -5,-1.6 -3.1,-0.9 -7.4,-1.8 -12,-2 -4.6,0 -9.7,0.5 -14.7,2.7 -2.5,1.1 -5,2.7 -7.4,4.8 -2.5,2.1 -4.9,4.6 -7.1,7.8 z m 38.7,-40.2 c -5.1,11.5 1.2,19.6 6.6,22.1 1.9,0.9 5.6,2.5 9.3,2.7 0.5,0.1 1,0.1 1.5,0.1 -0.4,0.3 -0.7,0.5 -1.1,0.8 -2.7,2.4 -4.6,6 -5.8,8.4 -2.7,5.4 -4,16.2 8.4,21.5 8.4,3.6 15,1.3 19.7,-4.1 2.4,-2.7 4.4,-6.1 6.2,-9.8 1.7,-3.8 3.1,-8.1 4.3,-12.4 2.3,-8.5 4.8,-14.1 6.7,-17.9 1.9,-3.7 3.3,-5.2 3.3,-5.2 0,0 -2,0.3 -6,-0.3 -4,-0.5 -10,-2.2 -17.6,-6 -3.8,-2 -7.5,-3.8 -11,-5.3 -3.6,-1.6 -6.9,-2.8 -10,-3.3 -6.2,-0.8 -11.2,1 -14.5,8.7 z m 28.9,3.7 c 10.1,4 8.2,6 20.7,8.1 0,0 -0.8,0.6 -2.2,3.5 -1.4,2.9 -3.3,7.9 -6,17 -2.5,7.8 -7.4,9 -11.5,8 -4.1,-0.9 -7.6,-4.2 -7.8,-4.9 0,0 -0.9,-1.2 -1.2,-3.2 -0.3,-2 0,-5 2.4,-8.7 0,0 -2.5,-0.4 -4.8,-2 -2.3,-1.7 -4.5,-4.5 -3.9,-9.1 0.9,-9.5 4.2,-13.1 14.3,-8.7 z"
               id="path33"
               inkscape:connector-curvature="0"
               style="fill:#d0ac70" /><path
               class="st0"
               d="m 665.1,803.3 c 0.8,2.5 3.7,3.5 6.1,2.5 2.4,-1 3.6,-3.7 2.6,-6.1 0,0 -0.7,-1.9 -2.1,-2.4 0,0 0.6,-1.7 -0.2,-3.1 -1,-2.5 -3.8,-3.5 -6.1,-2.6 -2.3,1 -3.5,3.6 -2.6,6 0,0 0.8,1.7 2.3,2.4 0,0 -0.7,1.3 0,3.3 z"
               id="path35"
               inkscape:connector-curvature="0"
               style="fill:#d0ac70" /></g><g
             id="g37"><path
               class="st0"
               d="m 475.2,818.2 0.3,0.7 c 9.2,13 21.7,14.4 31.1,12.4 9.5,-2.2 15.9,-7.4 15.9,-7.4 0,0 -6,-6 -14.6,-9.4 -4.3,-1.8 -9.2,-3.2 -14.7,-2.8 -5.6,0.4 -11.5,2 -18,6.5 z m 50.5,-23.7 c -8.9,8.6 -5.9,18.6 -1.8,23.1 1.4,1.5 4.4,4.3 7.7,5.8 0.4,0.3 0.9,0.4 1.4,0.6 -0.5,0.1 -0.9,0.2 -1.3,0.4 -3.4,1.4 -6.5,4.1 -8.4,5.9 -4.4,3.9 -9.6,13.5 0.1,23.1 6.6,6.2 13.5,6.5 19.9,3.2 6.4,-3.4 12.4,-9.9 17.7,-16.9 5.2,-7.2 9.6,-11.7 12.7,-14.3 3.1,-2.6 5,-3.6 5,-3.6 0,0 -2,-0.3 -5.5,-2.5 -3.5,-2.1 -8.6,-5.7 -14.3,-12 -5.6,-6.4 -11.1,-12.7 -16.5,-15.6 -5.4,-3.1 -10.7,-3.2 -16.7,2.8 z m 25.7,13.7 c 8,7.6 5.5,8.8 16.4,15 0,0 -1,0.3 -3.3,2.5 -2.3,2.2 -5.9,6.4 -11.7,13.6 -5.1,6.4 -10.1,6 -13.6,3.5 -3.5,-2.5 -5.6,-6.8 -5.5,-7.5 0,0 -1.7,-5.7 5.3,-10.6 0,0 -2.2,-1.3 -3.8,-3.7 -1.6,-2.4 -2.5,-5.8 -0.3,-9.9 4.3,-8.2 8.7,-10.4 16.5,-2.9 z"
               id="path39"
               inkscape:connector-curvature="0"
               style="fill:#d0ac70" /><path
               class="st0"
               d="m 539.4,827.4 c -0.1,2.6 2.2,4.7 4.8,4.5 2.6,-0.1 4.7,-2.2 4.6,-4.8 0,0 0,-2 -1.1,-3 0,0 1.1,-1.4 0.9,-3 -0.1,-2.7 -2.2,-4.6 -4.7,-4.5 -2.5,0.2 -4.5,2.1 -4.6,4.7 0,0 0.1,1.9 1.3,3.1 0,0 -1.2,0.8 -1.2,3 z"
               id="path41"
               inkscape:connector-curvature="0"
               style="fill:#d0ac70" /></g><g
             id="g43"><path
               class="st0"
               d="m 356.9,772.6 0.1,0.8 c 1.8,7.8 5.7,13 10.1,16.6 4.4,3.7 9.6,5.4 14.3,6.2 4.8,0.8 9.1,0.6 12.3,0 3.2,-0.5 5.2,-1.2 5.2,-1.2 0,0 -0.9,-1.9 -2.6,-4.6 -1.8,-2.6 -4.2,-6.2 -7.6,-9.5 -3.4,-3.2 -7.6,-6.1 -12.7,-7.9 -5.2,-1.7 -11.5,-2 -19.1,-0.4 z m 55.8,-3.7 c -11.5,4.9 -12.3,15.2 -10,20.8 0.8,2 2.5,5.7 5,8.4 0.3,0.4 0.7,0.7 1.1,1 -0.5,-0.1 -0.9,-0.1 -1.4,-0.1 -3.6,0 -7.4,1.3 -9.9,2.2 -5.6,2.2 -13.8,9.2 -8.3,21.6 3.7,8.5 10.2,10.9 17.3,10.3 7.1,-0.5 15.2,-4.8 22.7,-9.4 7.4,-4.6 13.1,-7.4 17,-8.7 3.9,-1.4 6,-1.5 6,-1.5 0,0 -1.7,-1.2 -4.3,-4.3 -2.5,-3.2 -6,-8.2 -9,-16.3 -2.9,-8.1 -5.9,-15.5 -9.7,-20.5 -3.9,-5 -8.9,-6.7 -16.5,-3.5 z m 18.8,22.2 c 4.7,9.7 2,10.1 9.8,19.9 0,0 -1,0 -4,1.2 -2.9,1.2 -7.8,3.6 -15.8,8.4 -7.2,4.4 -11.5,1.7 -13.9,-1.8 -2.4,-3.6 -2.8,-8.2 -2.5,-8.9 0,0 0.5,-5.9 8.9,-8.1 0,0 -1.6,-2 -2.2,-4.7 -0.6,-2.8 -0.3,-6.2 3.3,-9.3 7.2,-6.3 11.9,-6.5 16.4,3.3 z"
               id="path45"
               inkscape:connector-curvature="0"
               style="fill:#d0ac70" /><path
               class="st0"
               d="m 413.4,804.5 c -1,2.4 0.4,5.1 2.8,6 2.4,0.9 5.1,-0.2 6,-2.7 0,0 0.7,-1.8 0,-3.2 0,0 1.6,-0.9 1.9,-2.5 0.9,-2.5 -0.4,-5.1 -2.7,-6 -2.3,-0.9 -5,0.3 -5.9,2.7 0,0 -0.6,1.8 0.1,3.3 0.1,0 -1.3,0.4 -2.2,2.4 z"
               id="path47"
               inkscape:connector-curvature="0"
               style="fill:#d0ac70" /></g><g
             id="g49"><path
               class="st0"
               d="m 263,687.5 -0.2,0.7 c -0.9,7.8 0.7,14.1 3.5,19.2 2.9,4.9 7.1,8.4 11.2,10.9 4.1,2.5 8.4,3.7 11.5,4.4 3.1,0.7 5.2,0.8 5.2,0.8 0,0 -0.1,-2.1 -0.7,-5.3 -0.6,-3.2 -1.8,-7.2 -3.7,-11.5 -1.9,-4.3 -4.8,-8.5 -9,-12 -4.2,-3.5 -10,-6 -17.8,-7.2 z m 53.4,16.6 c -12.4,0.4 -16.9,9.7 -16.8,15.8 0,2.2 0.3,6.2 1.8,9.5 0.1,0.5 0.4,0.9 0.6,1.4 -0.4,-0.3 -0.8,-0.4 -1.2,-0.6 -3.4,-1.3 -7.6,-1.3 -10.1,-1.4 -6,-0.1 -16.1,3.5 -15.5,17.1 0.6,9.1 5.6,13.8 12.5,15.8 7,1.8 15.9,1 24.5,-0.6 8.7,-1.8 14.9,-2.2 19,-2 4.1,0.2 6.1,0.7 6.1,0.7 0,0 -0.3,-0.4 -0.8,-1.3 -0.5,-0.9 -1.1,-2.3 -1.7,-4.2 -1.2,-3.9 -2.5,-10 -2.5,-18.4 0.2,-8.6 0.3,-16.9 -1.7,-22.7 -1.8,-6 -5.8,-9.5 -14.2,-9.1 z m 9.7,27.4 c 0.8,10.9 -1.8,10.2 2,22.1 0,0 -0.9,-0.4 -4.1,-0.3 -3.2,0.1 -8.7,0.7 -17.8,2.2 -8.1,1.3 -11.5,-2.4 -12.4,-6.6 -0.9,-4.2 0.4,-8.8 1,-9.3 0,0 2.6,-5.3 11.1,-4.3 0,0 -0.7,-2.5 -0.3,-5.3 0.4,-2.8 2,-6 6.4,-7.5 4.4,-1.6 7.8,-2 10.1,-0.7 2.3,1.4 3.7,4.3 4,9.7 z"
               id="path51"
               inkscape:connector-curvature="0"
               style="fill:#d0ac70" /><path
               class="st0"
               d="m 304.3,737.6 c -1.8,1.8 -1.6,4.9 0.5,6.6 2,1.7 5,1.5 6.7,-0.5 0,0 1.3,-1.5 1.2,-3 0,0 1.8,-0.3 2.7,-1.6 1.8,-2 1.5,-4.9 -0.5,-6.5 -1.9,-1.6 -4.7,-1.5 -6.5,0.3 0,0 -1.2,1.5 -1.1,3.1 0,0.1 -1.4,0 -3,1.6 z"
               id="path53"
               inkscape:connector-curvature="0"
               style="fill:#d0ac70" /></g><g
             id="g55"><path
               class="st0"
               d="m 206.3,574.2 -0.5,0.6 c -7.6,14 -3.3,25.9 2.7,33.4 3.1,3.7 6.5,6.5 9.1,8.3 2.6,1.8 4.6,2.6 4.6,2.6 0,0 0.6,-2 1.2,-5.2 0.6,-3.2 1.1,-7.5 0.8,-12.1 -0.6,-9.4 -4.3,-19.8 -17.9,-27.6 z M 250,609 c -6,-2 -10.8,-1.3 -14.4,0.7 -3.7,2 -6,5.2 -7.1,8 -0.7,2 -1.9,5.8 -1.8,9.5 -0.1,0.5 0,1 0,1.5 -0.3,-0.4 -0.6,-0.7 -0.9,-1 -2.7,-2.4 -6.5,-4 -8.9,-5 -2.9,-1.1 -6.9,-1.7 -10.8,-0.5 -3.9,1.2 -7.8,4.4 -9.8,10.8 -2.7,8.7 0,15 6,19.3 5.8,4.3 14.2,6.8 23.1,8.3 8.8,1.5 14.5,3.5 18.4,5 3.9,1.5 5.5,2.8 5.5,2.8 0,0 -0.5,-2 -0.3,-6 0.1,-4 1.3,-10.2 4.4,-18.1 3.1,-7.8 6.3,-15.6 6.6,-21.7 0.2,-6.1 -2,-11 -10,-13.6 z m -0.9,29.1 c -3.2,10.4 -5.2,8.7 -6.1,21.3 0,0 -0.7,-0.7 -3.7,-1.8 -3,-1.1 -8.3,-2.5 -17.4,-4.4 -8,-1.7 -9.7,-6.5 -9.1,-10.7 0.6,-4.2 3.6,-8 4.3,-8.3 0,0 1.1,-1 3.1,-1.5 2.1,-0.5 4.9,-0.4 8.8,1.6 0,0 0.1,-2.5 1.6,-5 1.4,-2.5 4.1,-4.9 8.7,-4.7 9.2,0.2 13.2,3.1 9.8,13.5 z"
               id="path57"
               inkscape:connector-curvature="0"
               style="fill:#d0ac70" /><path
               class="st0"
               d="m 226.6,635.8 c -2.4,1.1 -3.1,4 -1.9,6.3 1.2,2.3 4,3.3 6.3,2 0,0 1.8,-0.9 2.2,-2.4 0,0 1.8,0.4 3.1,-0.5 2.4,-1.2 3.2,-4.1 2,-6.3 -1.2,-2.2 -3.9,-3.1 -6.2,-2 0,0 -1.6,0.9 -2.1,2.5 -0.1,0.2 -1.4,-0.5 -3.4,0.4 z"
               id="path59"
               inkscape:connector-curvature="0"
               style="fill:#d0ac70" /></g><g
             id="g61"><path
               class="st0"
               d="m 194.3,448.1 -0.6,0.4 c -5.9,5.1 -9,10.9 -10.3,16.5 -1.1,5.6 -0.4,11 0.9,15.6 3,9.2 8.9,15.1 8.9,15.1 0,0 1.3,-1.6 3,-4.4 1.7,-2.8 3.5,-6.6 5,-11 1.5,-4.5 2.3,-9.5 1.4,-14.9 -0.8,-5.5 -3.2,-11.2 -8.3,-17.3 z m 28.3,48.2 c -9.4,-8.1 -19,-4.2 -23.1,0.3 -1.5,1.6 -4,4.8 -5.1,8.2 -0.2,0.4 -0.3,0.9 -0.5,1.4 -0.2,-0.5 -0.3,-0.8 -0.5,-1.2 -1.7,-3.2 -4.7,-6.1 -6.5,-7.9 -4.4,-4.1 -14.3,-8.3 -23,2.2 -5.8,7.1 -5.1,14 -1.4,20.1 3.8,6.1 11.1,11.4 18.5,16.1 7.5,4.6 12.5,8.5 15.4,11.3 3,2.9 4,4.7 4,4.7 0,0 0.3,-2.1 2,-5.8 1.8,-3.7 4.7,-9 10.6,-15.3 6,-6.2 11.5,-12.2 14,-17.9 2.7,-5.6 2,-10.9 -4.4,-16.2 z m -11.3,26.8 c -3.4,4.2 -5.4,5.9 -7.3,7.8 -1.9,1.9 -3.7,4.1 -6.2,9.9 0,0 -0.4,-0.9 -2.9,-3 -2.5,-2.1 -6.7,-5.4 -14.6,-10.4 -7,-4.5 -6.9,-9.5 -4.6,-13.2 2.2,-3.7 6.2,-6.2 7,-6.2 0,0 5.5,-2.2 11.1,4.4 0,0 1.1,-2.3 3.3,-4.1 2.2,-1.8 5.5,-3.1 9.8,-1.2 8.7,3.4 11,7.6 4.4,16 z"
               id="path63"
               inkscape:connector-curvature="0"
               style="fill:#d0ac70" /><path
               class="st0"
               d="m 191.1,512.9 c -2.6,0.1 -4.4,2.6 -4.2,5.2 0.3,2.6 2.7,4.5 5.3,4.2 0,0 2,-0.2 2.8,-1.4 0,0 1.5,1 3.1,0.6 2.7,-0.3 4.3,-2.6 4.1,-5.1 -0.2,-2.5 -2.4,-4.3 -5,-4.1 0,0 -1.8,0.3 -2.9,1.6 0,-0.1 -1,-1.2 -3.2,-1 z"
               id="path65"
               inkscape:connector-curvature="0"
               style="fill:#d0ac70" /></g><g
             id="g67"><path
               class="st0"
               d="m 228.7,326.1 -0.8,0.1 c -7.6,2.6 -12.5,6.8 -15.6,11.6 -1.6,2.4 -2.8,4.9 -3.6,7.4 -0.7,2.5 -1.1,5.1 -1.3,7.5 -0.8,9.6 2.8,17.3 2.8,17.3 0,0 7.1,-4.3 13.1,-11.5 1.5,-1.8 2.8,-3.8 3.9,-6.1 1.2,-2.2 2.2,-4.6 2.8,-7.3 0.6,-2.7 0.9,-5.6 0.6,-8.8 0,-3 -0.6,-6.4 -1.9,-10.2 z m 8.9,55.2 c -6,-11 -16.3,-10.8 -21.7,-8 -1.9,1 -5.4,3 -7.8,5.8 -0.4,0.3 -0.7,0.7 -1,1.1 0,-0.5 0,-0.9 0,-1.3 -0.3,-3.6 -2,-7.3 -3.2,-9.7 -2.7,-5.4 -10.5,-12.9 -22.2,-6.3 -4,2.3 -6.5,5.1 -7.9,8.1 -1.3,3.1 -1.4,6.5 -0.7,10.1 1.2,7.1 6.1,14.6 11.5,21.7 5.3,7 8.4,12.4 10.3,16.1 1.8,3.7 2.1,5.8 2.1,5.8 0,0 1,-1.8 3.9,-4.7 2.8,-2.8 7.6,-6.7 15.4,-10.4 7.7,-3.7 15,-7.3 19.5,-11.6 2.2,-2.2 3.7,-4.5 4,-7.3 0.4,-2.7 -0.1,-5.8 -2.2,-9.4 z m -20.3,20.8 c -9.3,5.6 -9.8,2.9 -18.9,11.6 0,0 -0.1,-1 -1.5,-3.8 -1.4,-2.8 -4.3,-7.4 -9.9,-15 -4.9,-6.7 -2.7,-11.3 0.5,-14 3.3,-2.7 7.9,-3.5 8.6,-3.3 0,0 5.9,-0.1 8.9,8.1 0,0 1.8,-1.8 4.5,-2.6 2.7,-0.9 6.2,-0.9 9.6,2.4 6.9,6.5 7.6,11.2 -1.8,16.6 z"
               id="path69"
               inkscape:connector-curvature="0"
               style="fill:#d0ac70" /><path
               class="st0"
               d="m 202.3,385.3 c -2.5,-0.8 -5,0.8 -5.7,3.4 -0.7,2.5 0.7,5.1 3.3,5.7 0,0 1.9,0.6 3.2,-0.3 0,0 1,1.5 2.6,1.7 2.6,0.7 5.1,-0.9 5.8,-3.3 0.6,-2.4 -0.8,-4.9 -3.2,-5.7 0,0 -1.8,-0.4 -3.3,0.4 -0.1,0.1 -0.6,-1.2 -2.7,-1.9 z"
               id="path71"
               inkscape:connector-curvature="0"
               style="fill:#d0ac70" /></g><g
             id="g73"><path
               class="st0"
               d="m 304.9,224.8 -0.8,-0.1 c -7.9,-0.3 -14,2 -18.8,5.2 -4.7,3.3 -7.7,7.8 -9.8,12.1 -2.1,4.3 -2.9,8.7 -3.3,11.9 -0.4,3.2 -0.3,5.3 -0.3,5.3 0,0 2.1,-0.3 5.2,-1.2 3.1,-0.9 7,-2.5 11.1,-4.8 8.1,-4.8 15.9,-12.7 16.7,-28.4 z m -11.6,54.7 c -1.5,-12.3 -11.2,-15.9 -17.3,-15.3 -2.1,0.2 -6.2,0.8 -9.3,2.6 -0.5,0.2 -0.9,0.4 -1.3,0.7 0.2,-0.5 0.3,-0.8 0.4,-1.3 0.9,-3.6 0.6,-7.6 0.5,-10.2 -0.5,-6 -5,-15.8 -18.5,-13.9 -9.1,1.3 -13.2,6.9 -14.6,13.9 -1.3,7.1 0.5,15.9 2.8,24.4 2.6,8.5 3.5,14.7 3.8,18.8 0.2,4.1 -0.1,6.1 -0.1,6.1 0,0 1.5,-1.4 5.3,-2.9 3.8,-1.6 9.7,-3.4 18.1,-4.2 8.6,-0.6 16.8,-1.3 22.4,-3.7 5.8,-2.4 8.8,-6.8 7.8,-15 z m -26.5,12.1 c -10.8,1.8 -10.4,-0.9 -21.8,4 0,0 0.3,-1 -0.1,-4.2 -0.4,-3.2 -1.4,-8.5 -3.8,-17.5 -2.1,-8 1.3,-11.7 5.5,-12.9 4.1,-1.3 8.7,-0.4 9.3,0.1 0,0 5.5,2.1 5.3,10.7 0,0 2.4,-0.9 5.2,-0.8 2.8,0.2 6.1,1.4 8.1,5.7 4,8.6 2.9,13.2 -7.7,14.9 z"
               id="path75"
               inkscape:connector-curvature="0"
               style="fill:#d0ac70" /><path
               class="st0"
               d="m 258.8,270.5 c -2,-1.7 -5,-1.1 -6.6,1.1 -1.5,2.2 -1,5.1 1.1,6.6 0,0 1.6,1.2 3,0.9 0,0 0.4,1.8 1.8,2.5 2.2,1.6 5,1 6.4,-1.1 1.5,-2 1.1,-4.8 -0.9,-6.4 0,0 -1.6,-1 -3.2,-0.8 0.1,0 0.2,-1.4 -1.6,-2.8 z"
               id="path77"
               inkscape:connector-curvature="0"
               style="fill:#d0ac70" /></g><g
             id="g79"><path
               class="st0"
               d="m 412.4,157.8 -0.6,-0.4 c -14.6,-6.2 -26.1,-0.8 -33,5.8 -6.9,6.8 -9.6,14.6 -9.6,14.6 0,0 8.3,1.9 17.4,0.3 9.3,-1.4 19.4,-5.9 25.8,-20.3 z m -30.5,46.8 c 3,-12.1 -4.8,-19 -10.6,-20.5 -2,-0.5 -6,-1.3 -9.6,-0.9 -0.5,0 -1,0.1 -1.5,0.2 0.4,-0.3 0.6,-0.6 0.9,-1 2.2,-2.9 3.4,-6.8 4.1,-9.4 1.7,-5.8 1,-16.5 -12.2,-19.6 -18,-3.8 -23.3,13.9 -24.7,31.5 -0.7,8.9 -2.1,14.8 -3.3,18.8 -1.2,4 -2.3,5.8 -2.3,5.8 0,0 1.9,-0.7 6,-0.9 4,-0.2 10.3,0.4 18.5,2.7 16.2,4.7 31,9.5 34.7,-6.7 z m -29.1,1.7 c -10.8,-2.3 -9.2,-4.4 -21.8,-4.1 0,0 0.7,-0.8 1.5,-3.9 0.9,-3 1.7,-8.6 2.7,-17.8 0.9,-8.1 5.5,-10.3 9.8,-10.1 4.3,0.3 8.3,2.9 8.7,3.5 0,0 4.4,3.9 1,11.8 0,0 2.6,0 5.2,1.2 2.6,1.2 5.2,3.6 5.5,8.2 0.5,9.4 -1.9,13.7 -12.6,11.2 z"
               id="path81"
               inkscape:connector-curvature="0"
               style="fill:#d0ac70" /><path
               class="st0"
               d="m 353,183.7 c -1.3,-2.3 -4.2,-2.7 -6.5,-1.3 -2.2,1.4 -2.9,4.3 -1.4,6.5 0,0 1,1.7 2.5,1.9 0,0 -0.2,1.8 0.8,3 1.5,2.2 4.3,2.8 6.4,1.4 2.1,-1.4 2.7,-4.2 1.4,-6.4 0,0 -1.1,-1.5 -2.7,-1.9 0.1,0.1 0.6,-1.2 -0.5,-3.2 z"
               id="path83"
               inkscape:connector-curvature="0"
               style="fill:#d0ac70" /></g><g
             id="g85"><path
               class="st0"
               d="m 536.9,134.3 -0.5,-0.6 c -5.7,-5.5 -11.7,-7.9 -17.4,-8.8 -5.7,-0.8 -11,0.6 -15.4,2.3 -4.5,1.7 -8,4.4 -10.5,6.5 -2.4,2.1 -3.8,3.7 -3.8,3.7 0,0 1.8,1.2 4.6,2.5 2.9,1.3 6.9,2.9 11.4,4 9.4,2 20.5,1.6 31.6,-9.6 z m -45.4,32.6 c 7.2,-10.2 2.4,-19.4 -2.4,-23 -1.7,-1.3 -5.1,-3.6 -8.7,-4.4 -0.5,-0.2 -0.9,-0.2 -1.4,-0.3 0.5,-0.2 0.8,-0.4 1.2,-0.7 3.1,-2 5.6,-5 7.3,-7.1 3.6,-4.8 6.9,-15.1 -4.3,-22.7 -15.4,-10.2 -26.8,4.4 -34.5,20.3 -3.9,7.8 -7.3,13.2 -9.9,16.4 -2.6,3.2 -4.3,4.4 -4.3,4.4 0,0 2.1,0.1 5.9,1.4 3.8,1.4 9.4,3.8 16.2,9.2 13.6,10.5 25.6,20.2 34.9,6.5 z M 463.8,158 c -9.1,-5.8 -7,-7.6 -18.8,-11.8 0,0 0.9,-0.5 2.8,-3.1 1.9,-2.5 4.7,-7.1 9,-15.4 3.8,-7.5 8.9,-7.5 12.8,-5.8 3.9,1.8 6.7,5.6 6.8,6.3 0,0 2.7,5.2 -3.3,11.5 0,0 2.4,0.9 4.4,2.9 2,2 3.5,5.2 2.1,9.7 -2.8,9 -6.8,11.5 -15.8,5.7 z"
               id="path87"
               inkscape:connector-curvature="0"
               style="fill:#d0ac70" /><path
               class="st0"
               d="m 472.1,137.1 c -0.4,-2.6 -3,-4.1 -5.6,-3.6 -2.6,0.5 -4.3,2.9 -3.7,5.5 0,0 0.3,2 1.7,2.7 0,0 -0.9,1.6 -0.3,3.1 0.5,2.6 3,4.1 5.5,3.7 2.5,-0.5 4.1,-2.8 3.6,-5.4 0,0 -0.5,-1.8 -1.8,-2.8 0,0 1,-1.1 0.6,-3.2 z"
               id="path89"
               inkscape:connector-curvature="0"
               style="fill:#d0ac70" /></g><g
             id="g91"><path
               class="st0"
               d="m 661.6,157.3 -0.2,-0.7 c -1.6,-3.6 -3.6,-6.6 -5.8,-9 -2.2,-2.4 -4.7,-4.1 -7.2,-5.5 -5,-2.7 -10.4,-3.7 -15.2,-3.4 -4.8,0.2 -9.1,1.2 -12.1,2.2 -3,1.1 -4.9,2.2 -4.9,2.2 0,0 1.2,1.7 3.4,4 2.2,2.4 5.3,5.4 9.2,8 3.9,2.4 8.5,4.7 13.9,5.5 5.5,0.4 11.6,-0.2 18.9,-3.3 z m -54.1,13.9 c 10.4,-7.1 9.3,-17.3 6,-22.3 -1.1,-1.8 -3.5,-5.1 -6.5,-7.2 -0.4,-0.4 -0.8,-0.6 -1.2,-0.9 0.5,0 0.9,-0.1 1.3,-0.2 3.6,-0.7 7.1,-2.7 9.4,-4.1 5.1,-3.2 11.9,-11.7 4.2,-22.7 -5.3,-7.5 -12,-9 -19,-6.9 -3.5,1 -7,2.8 -10.4,5.1 -3.5,2.3 -6.9,5.3 -10.1,8.3 -6.5,6.1 -11.5,9.5 -15.1,11.7 -3.6,2.1 -5.6,2.7 -5.6,2.7 0,0 1.9,0.8 5,3.4 3.1,2.5 7.4,7.1 11.8,14.4 2.2,3.7 4.4,7.2 6.6,10.3 2.2,3.2 4.4,6 6.8,8 4.7,4.1 9.9,5.1 16.8,0.4 z m -22.6,-18.3 c -6.5,-8.7 -3.9,-9.4 -13.3,-17.7 0,0 1,-0.1 3.7,-1.8 2.7,-1.7 7,-5 14,-11.3 6.2,-5.3 11,-3.8 14,-0.8 3,3 4.3,7.6 4.1,8.3 0,0 0.2,1.5 -0.7,3.4 -0.8,1.9 -2.6,4.2 -6.6,6.2 0,0 1.9,1.6 3,4.2 1.1,2.6 1.4,6.2 -1.5,9.8 -5.8,7.3 -10.5,8.7 -16.7,-0.3 z"
               id="path93"
               inkscape:connector-curvature="0"
               style="fill:#d0ac70" /><path
               class="st0"
               d="m 600.2,136.4 c 0.6,-2.5 -1.3,-4.9 -3.9,-5.3 -2.6,-0.4 -5,1.2 -5.4,3.8 0,0 -0.4,1.9 0.6,3.1 0,0 -1.4,1.1 -1.4,2.8 -0.4,2.6 1.3,5 3.8,5.4 2.5,0.4 4.8,-1.3 5.3,-3.8 0,0 0.2,-1.9 -0.7,-3.2 -0.1,0 1.2,-0.7 1.7,-2.8 z"
               id="path95"
               inkscape:connector-curvature="0"
               style="fill:#d0ac70" /></g><g
             id="g97"><path
               class="st0"
               d="m 769.4,223.8 0.1,-0.8 c -1,-15.8 -10.8,-23.7 -19.9,-26.9 -4.5,-1.7 -8.9,-2.2 -12.1,-2.2 -3.2,-0.1 -5.3,0.2 -5.3,0.2 0,0 0.5,2.1 1.7,5 1.2,3 3.1,6.8 5.7,10.7 5.6,7.6 14.1,14.6 29.8,14 z m -55.5,-6.6 c 12.1,-2.7 14.8,-12.7 13.7,-18.6 -0.4,-2.1 -1.4,-6.1 -3.5,-9.1 -0.2,-0.4 -0.5,-0.8 -0.8,-1.2 0.5,0.2 0.9,0.2 1.3,0.3 3.7,0.5 7.6,0 10.2,-0.4 5.9,-1.1 15.3,-6.4 12.1,-19.7 -2.1,-9 -8.1,-12.5 -15.1,-13.3 -7.2,-0.7 -15.8,2 -24,5 -8.2,3.3 -14.3,4.9 -18.4,5.5 -4.1,0.6 -6.1,0.4 -6.1,0.4 0,0 1.5,1.5 3.4,5.1 1.9,3.6 4.3,9.2 5.8,17.7 1.3,8.5 2.9,16.5 5.8,22 2.9,5.6 7.6,8.1 15.6,6.3 z M 699.4,192 c -2.8,-10.5 0,-10.5 -6,-21.4 0,0 1,0.2 4.1,-0.4 3.2,-0.7 8.3,-2.1 17.1,-5.4 7.8,-2.9 11.7,0.3 13.4,4.3 1.7,4 1.2,8.7 0.7,9.3 0,0 -1.5,5.7 -10.2,6.3 0,0 1.2,2.3 1.3,5.1 0.1,2.8 -0.9,6.2 -4.9,8.6 -8.1,4.7 -12.8,4 -15.5,-6.4 z"
               id="path99"
               inkscape:connector-curvature="0"
               style="fill:#d0ac70" /><path
               class="st0"
               d="m 719.7,182.1 c 1.5,-2.2 0.6,-5.1 -1.7,-6.5 -2.2,-1.4 -5.2,-0.6 -6.5,1.7 0,0 -1.1,1.7 -0.6,3.1 0,0 -1.7,0.6 -2.4,2.1 -1.4,2.3 -0.5,5 1.6,6.3 2.1,1.3 4.9,0.7 6.3,-1.5 0,0 0.9,-1.6 0.5,-3.3 0.2,0.1 1.6,0 2.8,-1.9 z"
               id="path101"
               inkscape:connector-curvature="0"
               style="fill:#d0ac70" /></g><g
             id="g103"><path
               class="st0"
               d="m 846.1,324.7 0.3,-0.7 c 2.3,-7.5 2,-14.1 0.1,-19.5 -2,-5.3 -5.3,-9.6 -8.9,-12.8 -7.5,-6.2 -15.5,-8.2 -15.5,-8.2 0,0 -1.1,8.4 1.3,17.3 1.1,4.6 3,9.3 6.6,13.4 3.6,4.3 8.5,8 16.1,10.5 z m -49.4,-26.1 c 12.3,1.9 18.4,-6.4 19.5,-12.5 0.4,-2.1 0.8,-6.1 -0.1,-9.7 0,-0.5 -0.2,-0.9 -0.3,-1.5 0.4,0.3 0.7,0.6 1.1,0.8 3.1,1.9 7.1,2.7 9.8,3.2 5.8,1.2 16.5,-0.5 18.4,-14 1,-9 -2.9,-14.7 -9.4,-17.8 -6.6,-3.1 -15.3,-4 -24.2,-3.9 -8.9,0.2 -15,-0.7 -19,-1.6 -4.1,-0.8 -6,-1.7 -6,-1.7 0,0 0.9,1.9 1.5,5.8 0.5,4.1 0.6,10.3 -1,18.6 -1.6,8.3 -3.4,16.5 -2.5,22.6 0.8,6.2 3.8,10.6 12.2,11.7 z m -4.5,-28.8 c 1.3,-11 3.6,-9.6 2.1,-22.1 0,0 0.8,0.6 4,1.1 3.1,0.6 8.7,0.9 17.9,1.1 8.2,0.2 10.8,4.5 11,8.8 0.1,4.3 -2.1,8.5 -2.7,8.9 0,0 -3.5,4.8 -11.7,2.1 0,0 0.2,2.6 -0.7,5.2 -0.9,2.7 -3.1,5.5 -7.7,6.2 -9.1,1.6 -13.5,-0.5 -12.2,-11.3 z"
               id="path105"
               inkscape:connector-curvature="0"
               style="fill:#d0ac70" /><path
               class="st0"
               d="m 814.8,267.9 c 2.2,-1.5 2.4,-4.5 0.7,-6.6 -1.7,-2 -4.6,-2.4 -6.6,-0.8 0,0 -1.6,1.2 -1.7,2.7 0,0 -1.8,-0.1 -2.9,1.1 -2.1,1.7 -2.3,4.6 -0.8,6.5 1.6,1.9 4.5,2.3 6.5,0.8 0,0 1.4,-1.2 1.7,-2.9 -0.1,0 1.3,0.4 3.1,-0.8 z"
               id="path107"
               inkscape:connector-curvature="0"
               style="fill:#d0ac70" /></g><g
             id="g109"><path
               class="st0"
               d="m 880.9,446.5 0.6,-0.5 c 5.1,-6.2 6.9,-12.4 7.2,-18.1 0.3,-5.7 -1.4,-10.9 -3.7,-15.2 -4.4,-8.6 -11.4,-13.2 -11.4,-13.2 0,0 -3.8,7.4 -5.1,16.6 -0.5,4.6 -0.3,9.7 1.3,14.9 1.7,5.2 5.3,10.4 11.1,15.5 z m -36.5,-42.2 c 10.9,6.2 19.6,0.6 22.7,-4.6 1.1,-1.8 3,-5.4 3.6,-9.1 0.2,-0.5 0.2,-1 0.3,-1.5 0.2,0.5 0.4,0.8 0.7,1.1 2.2,2.9 5.5,5.1 7.8,6.6 5.1,3.2 15.7,5.5 22.2,-6.3 2.2,-4 2.9,-7.7 2.4,-11.1 -0.6,-3.3 -2.3,-6.3 -4.7,-9 -4.8,-5.4 -12.9,-9.3 -21.2,-12.4 -8.2,-3.1 -13.7,-6.1 -17.2,-8.3 -3.5,-2.2 -4.8,-3.8 -4.8,-3.8 0,0 0.1,2.1 -0.8,6 -0.9,3.9 -3,9.7 -7.6,17 -4.6,7.2 -8.9,14.1 -10.5,20.1 -0.8,3 -0.7,5.8 0.4,8.3 0.9,2.6 3,4.9 6.7,7 z m 6.3,-28.5 c 4.9,-9.6 6.8,-7.6 10,-19.8 0,0 0.6,0.8 3.3,2.5 2.7,1.7 7.6,4 16.3,7.5 7.7,3.1 8.3,8.2 6.9,12.2 -1.4,4.1 -4.9,7.2 -5.6,7.3 0,0 -5,3.2 -11.8,-2.2 0,0 -0.6,2.5 -2.4,4.6 -1.8,2.2 -4.8,4 -9.4,3 -9.3,-1.9 -12.4,-5.5 -7.3,-15.1 z"
               id="path111"
               inkscape:connector-curvature="0"
               style="fill:#d0ac70" /><path
               class="st0"
               d="m 872.3,382.2 c 2.5,-0.6 3.8,-3.3 3.1,-5.9 -0.8,-2.5 -3.3,-4 -5.8,-3.2 0,0 -1.9,0.5 -2.6,1.9 0,0 -1.6,-0.7 -3.1,-0.1 -2.6,0.8 -3.9,3.4 -3.2,5.8 0.7,2.4 3.2,3.8 5.7,3.1 0,0 1.8,-0.6 2.6,-2.1 0,0.2 1.2,1 3.3,0.5 z"
               id="path113"
               inkscape:connector-curvature="0"
               style="fill:#d0ac70" /></g></g><path
           class="st1"
           d="m 629.3,749.1 c -11.9,-15.9 -33.3,-20.4 -51.9,-16.2 -16,3.7 -29.2,13.7 -39.4,26.2 -8.9,-11.1 -20.2,-20.3 -33.9,-24.8 -17.5,-5.8 -38.6,-3.3 -52.6,9.4 -17.1,15.7 -18.1,41.3 -11.2,62 7.6,23 22.7,43.8 39,61.5 16.6,18.1 35.7,33.7 55.5,48.3 0.9,0.6 1.7,1.2 2.6,1.9 1.1,-0.8 2.1,-1.6 3.2,-2.4 36.6,-26.9 73,-58.9 91.2,-101.4 8.8,-20.4 11.7,-45.7 -2.5,-64.5 z"
           id="path115"
           inkscape:connector-curvature="0"
           style="fill:#f47878" /></g></g></switch></svg>