<?xml version="1.0" encoding="UTF-8" standalone="no"?>
<svg
   xmlns:dc="http://purl.org/dc/elements/1.1/"
   xmlns:cc="http://creativecommons.org/ns#"
   xmlns:rdf="http://www.w3.org/1999/02/22-rdf-syntax-ns#"
   xmlns:svg="http://www.w3.org/2000/svg"
   xmlns="http://www.w3.org/2000/svg"
   xmlns:sodipodi="http://sodipodi.sourceforge.net/DTD/sodipodi-0.dtd"
   xmlns:inkscape="http://www.inkscape.org/namespaces/inkscape"
   version="1.1"
   id="l76"
   x="0px"
   y="0px"
   viewBox="299.5492248535156 322.9395446777344 400.9015808105469 837.1717529296875"
   width="100%"
   height="100%"
   style="enable-background:new 0 0 1000 1000;"
   xml:space="preserve"
   ><style
     type="text/css"
     id="style3">
	#l76 .st0{fill:#F47878;}
</style><switch
     id="switch5"
     transform="translate(-57.399954,231.08473)"><g
       id="g7"><g
         id="g9"><path
           class="st0"
           d="M 738.4,126.9 C 714.8,95.6 672.6,86.5 635.7,94.9 604,102.1 578,122 557.9,146.8 c -17.6,-22 -39.8,-40.2 -67,-49.1 -34.6,-11.4 -76.4,-6.6 -103.9,18.6 -33.9,31 -35.7,81.6 -22.2,122.6 15.1,45.5 45,86.5 77.1,121.5 27,29.4 57.3,55.5 89,79.8 l 0,228.3 -109.9,0 c -1.4,0 -2,1.2 -1.9,2.2 -0.6,0.3 -1.1,0.8 -1.1,1.7 l 0,48.6 c 0,0.6 0.2,1 0.5,1.3 0,0 0.1,0.1 0.1,0.2 0,0 0.1,0 0.1,0.1 0.3,0.3 0.7,0.5 1.3,0.5 l 49.8,0 0,22.4 -47.7,0 c -1.3,0 -1.9,1.1 -1.9,2.1 -1.1,-0.1 -2.3,0.5 -2.3,1.9 l 0,48.5 c 0,0.6 0.2,1 0.5,1.3 l 0.2,0.2 c 0.3,0.3 0.7,0.5 1.3,0.5 l 21.8,0 0,27.8 -22.7,0 c -0.9,0 -1.5,0.5 -1.8,1.2 -0.7,0.3 -1.2,0.8 -1.2,1.8 l 0,63.5 c 0,1.4 1.2,2 2.3,1.9 0.3,0.6 0.8,1.1 1.7,1.1 l 110.9,0 0,29.8 c 0,1.7 1.8,2.3 2.9,1.7 l 51,0 c 1.2,0.6 3,0 3,-1.7 l 0,-490.9 c 63.6,-49.3 123.8,-107.4 155.6,-181.7 17.3,-40.4 22.9,-90.4 -5,-127.6 z M 633.1,349 C 610,372.6 584.4,393.4 557.9,412.9 509,376.9 462.2,336 431.2,283.2 c -17,-29 -30.7,-64 -21.1,-97.9 10.4,-36.8 45.7,-54.9 82.4,-47.2 25.4,5.3 45.8,21.7 61.3,41.9 1.1,1.5 2.3,3 3.3,4.5 1.3,-1.8 2.6,-3.7 4,-5.4 13.6,-17.6 30.9,-32.2 52.3,-39 32.4,-10.2 69.9,0.6 85.8,32 31.2,62 -24.9,134.7 -66.1,176.9 z"
           id="path11"
           inkscape:connector-curvature="0"
           style="fill:#f47878" /></g></g></switch></svg>