<?xml version="1.0" encoding="UTF-8" standalone="no"?>
<svg
   xmlns:dc="http://purl.org/dc/elements/1.1/"
   xmlns:cc="http://creativecommons.org/ns#"
   xmlns:rdf="http://www.w3.org/1999/02/22-rdf-syntax-ns#"
   xmlns:svg="http://www.w3.org/2000/svg"
   xmlns="http://www.w3.org/2000/svg"
   xmlns:sodipodi="http://sodipodi.sourceforge.net/DTD/sodipodi-0.dtd"
   xmlns:inkscape="http://www.inkscape.org/namespaces/inkscape"
   version="1.1"
   id="Layer_1"
   x="0px"
   y="0px"
   viewBox="0 0 1000 1000"
   width="100%"
   height="100%"
   style="enable-background:new 0 0 1000 1000;"
   xml:space="preserve"
   ><switch
     id="switch3"
     transform="translate(-24.6,-8.2)"><g
       id="g5"><g
         id="g7"><path
           d="m 830.5,554.5 c 0.5,-5.4 -3.8,-9.5 -7.2,-12.7 -5.7,-5.4 -12.2,-10.7 -19.1,-14.4 -5.3,-2.8 -11.8,-0.5 -12.6,5.1 -0.7,5.2 0.3,10.5 -0.4,15.8 -0.8,4.5 -2.3,8.8 -3.5,13.2 -1,3.3 -1.8,7.5 2.1,9.9 2.7,1.7 5.8,1.8 8.8,1.2 2.2,-0.4 4.3,-1.1 6.3,-1.8 5.5,-1.8 10.9,-4 16,-6.6 3.8,-2 9,-4.7 9.6,-9.7 z"
           id="path9"
           inkscape:connector-curvature="0" /><path
           d="m 845.1,521.6 c -1.1,-6.2 -8.8,-9.6 -17.3,-7.8 -8.5,1.8 -14.2,7.5 -13.5,13 0.8,5.5 8.4,9.4 16.9,8.3 8.5,-1.1 15,-7.3 13.9,-13.5 z"
           id="path11"
           inkscape:connector-curvature="0" /><path
           d="m 849.5,532.8 c -8.7,0.7 -15.1,6 -15.2,12 0,6 7,11.1 15.6,11.1 8.6,0 15.6,-5.5 15.7,-12.3 -0.2,-6.7 -7.5,-11.5 -16.1,-10.8 z"
           id="path13"
           inkscape:connector-curvature="0" /><path
           d="m 848.3,559.9 c -8.4,-1.7 -16.3,1.8 -17.6,7.7 -1.2,5.9 4,12.4 12.3,14.8 8.2,2.4 16.5,-0.9 18,-7.5 1.4,-6.6 -4.3,-13.3 -12.7,-15 z"
           id="path15"
           inkscape:connector-curvature="0" /><path
           d="m 824.7,574.7 c -7.9,-3.4 -16.2,-1.8 -18.5,3.2 -2.3,5.1 1.6,12.2 9.3,16.2 7.6,4 16,3 18.8,-2.7 2.8,-5.6 -1.8,-13.3 -9.6,-16.7 z"
           id="path17"
           inkscape:connector-curvature="0" /><path
           d="m 783.9,662.1 c 4.2,-0.5 10,-1.3 12.4,-5.7 2.4,-4.9 -0.3,-10.2 -2.4,-14.4 -3.4,-7 -7.7,-14.2 -13,-20.1 -4,-4.4 -10.9,-4.5 -13.6,0.4 -2.5,4.6 -3.3,9.9 -5.8,14.6 -2.4,3.9 -5.2,7.5 -7.9,11.2 -2.2,2.7 -4.2,6.4 -1.5,10 2,2.5 4.8,3.7 7.8,4.1 2.2,0.4 4.4,0.4 6.5,0.5 5.8,0.2 11.8,0.1 17.5,-0.6 z"
           id="path19"
           inkscape:connector-curvature="0" /><path
           d="m 821.2,630.5 c 1.1,-6.2 -5,-12 -13.5,-13.3 -8.6,-1.3 -15.9,2.1 -17.1,7.6 -1.1,5.5 4.7,11.7 13,13.6 8.3,1.9 16.5,-1.7 17.6,-7.9 z"
           id="path21"
           inkscape:connector-curvature="0" /><path
           d="m 821.6,642.5 c -8.3,-2.3 -16.3,0.4 -18.4,6 -2,5.7 2.8,12.8 10.8,15.8 8.1,3 16.6,0.2 18.9,-6.1 2.2,-6.4 -3.1,-13.4 -11.3,-15.7 z"
           id="path23"
           inkscape:connector-curvature="0" /><path
           d="m 811.1,667.5 c -7.3,-4.5 -15.9,-3.9 -19.1,1.2 -3.3,5 -0.5,13 6.4,18.1 7,5.1 15.7,4.7 19.5,-0.8 3.6,-5.7 0.5,-14 -6.8,-18.5 z"
           id="path25"
           inkscape:connector-curvature="0" /><path
           d="m 765.4,670 c -4.1,3.9 -2.6,12 3.2,18.5 5.8,6.4 14,8.3 18.5,3.8 4.6,-4.3 3,-13.1 -3.2,-19 -6.3,-5.9 -14.6,-7.3 -18.5,-3.3 z"
           id="path27"
           inkscape:connector-curvature="0" /><path
           d="m 729.1,740.3 c 4.1,-3.6 3.2,-9.6 2.7,-14.3 -0.5,-3.9 -1,-7.9 -1.8,-11.8 -0.9,-3.9 -2,-7.8 -3.5,-11.5 -2.3,-5.6 -8.7,-7.9 -12.9,-4.2 -4.2,3.3 -6.3,8.4 -10.5,11.7 -3.5,2.9 -7.3,5.5 -11.2,7.8 -2.9,1.9 -6.1,4.7 -4.7,9 1,3 3.3,5.1 5.9,6.6 1.9,1.1 4,1.9 5.9,2.6 5.3,2.1 10.8,3.8 16.5,5.3 4.3,1 9.9,2.1 13.6,-1.2 z"
           id="path29"
           inkscape:connector-curvature="0" /><path
           d="m 742.2,726 c 7.2,4.6 15.9,3.9 19.3,-1.4 3.2,-5.4 -0.7,-13 -8.2,-17.1 -3.8,-2.1 -7.7,-2.9 -11.1,-2.6 -3.4,0.2 -6.2,1.5 -7.6,3.9 -2.9,4.7 0.4,12.5 7.6,17.2 z"
           id="path31"
           inkscape:connector-curvature="0" /><path
           d="m 757.7,735.9 c -6.9,-5 -15.6,-5.3 -19.4,-0.6 -3.7,4.8 -1.8,12.9 4.8,18.5 6.6,5.6 15.6,5.9 19.8,0.7 4.4,-5.1 1.8,-13.6 -5.2,-18.6 z"
           id="path33"
           inkscape:connector-curvature="0" /><path
           d="m 720.9,750.4 c -4.9,3.5 -4.9,12.2 -0.1,19.3 4.8,7.1 13.1,9.7 18.6,5.7 5.5,-3.9 5.2,-13 -0.1,-19.7 -5.5,-6.7 -13.6,-8.9 -18.4,-5.3 z"
           id="path35"
           inkscape:connector-curvature="0" /><path
           d="m 695.5,742.6 c -5.2,2.3 -6.4,10.6 -3.3,18.5 3.2,7.9 10.4,12.7 16.1,9.9 5.7,-2.6 7.4,-11.2 3.5,-19 -4,-7.8 -11.2,-11.6 -16.3,-9.4 z"
           id="path37"
           inkscape:connector-curvature="0" /><path
           d="m 637.1,751.7 c -2.5,0.9 -4.7,2.3 -6.9,3.8 -2.2,1.4 -4.5,2.7 -7,3.7 -2.1,0.8 -4.3,1.5 -6.5,2 l -6.7,1.5 c -3.4,0.8 -7.3,2.4 -7.5,6.8 -0.1,3.2 1.3,5.9 3.3,8.2 1.4,1.7 3.2,3.2 4.7,4.6 4.3,3.7 8.8,7.2 13.7,10.5 3.6,2.5 8.6,5.5 13.2,3.5 5,-2.1 6.4,-7.8 7.4,-12.5 1.8,-7.8 3.3,-15.7 3,-23.7 -0.2,-6.1 -5.4,-10.3 -10.7,-8.4 z"
           id="path39"
           inkscape:connector-curvature="0" /><path
           d="m 653.3,768.5 c -4.3,3.7 -4,11.8 1.3,18.8 5.3,6.9 13.7,9.2 18.6,5.2 4.9,-3.8 3.8,-12.5 -1.9,-18.8 -5.6,-6.3 -13.7,-8.8 -18,-5.2 z"
           id="path41"
           inkscape:connector-curvature="0" /><path
           d="m 647.8,794.8 c -5.2,3.1 -6.2,11.4 -1.9,18.9 4.3,7.5 12.7,11 18.4,7.4 5.8,-3.5 6.3,-12 1.5,-19.1 -4.9,-7.1 -12.9,-10.4 -18,-7.2 z"
           id="path43"
           inkscape:connector-curvature="0" /><path
           d="m 626.2,803 c -5.8,1.7 -8.7,9.8 -6.7,18.1 2.1,8.4 9,13.8 15.5,11.8 6.5,-1.9 9.4,-10.3 6.7,-18.5 -2.8,-8.2 -9.7,-13.1 -15.5,-11.4 z"
           id="path45"
           inkscape:connector-curvature="0" /><path
           d="m 605,786.9 c -2.8,0.2 -5.2,2.2 -6.9,5.1 -1.7,2.9 -2.7,6.8 -2.5,11.1 0.3,8.5 5.5,15.5 11.7,14.9 6.2,-0.6 10.8,-8 9.8,-16.6 -1,-8.5 -6.5,-14.9 -12.1,-14.5 z"
           id="path47"
           inkscape:connector-curvature="0" /><path
           d="m 543.4,808.2 c 4.4,-6.7 8.4,-13.7 10.9,-21.2 1.8,-5.8 -1.5,-11.6 -7.2,-11.6 -2.6,0 -5.2,0.6 -7.8,1.2 -2.6,0.6 -5.2,1 -7.9,1 -2.3,0 -4.6,-0.1 -6.8,-0.3 -2.3,-0.3 -4.5,-0.6 -6.8,-0.9 -3.4,-0.4 -7.7,-0.2 -9.4,3.9 -1.2,2.9 -0.7,6 0.3,8.9 0.8,2.1 1.9,4.1 2.9,5.9 2.7,5 5.8,9.8 9.3,14.6 2.5,3.6 6.2,8.1 11.2,7.8 5.4,-0.4 8.7,-5.2 11.3,-9.3 z"
           id="path49"
           inkscape:connector-curvature="0" /><path
           d="m 556.6,796.8 c -5.3,1.9 -7.8,9.7 -5.3,18 1.3,4.1 3.7,7.5 6.6,9.6 2.8,2 6.1,2.7 9.1,1.7 6,-1.9 7.9,-10.3 4.7,-18.3 -3.2,-7.9 -9.8,-13 -15.1,-11 z"
           id="path51"
           inkscape:connector-curvature="0" /><path
           d="m 542.3,819.6 c -5.9,1.1 -9.7,8.6 -8.3,17.1 1.4,8.5 8.2,14.7 14.7,13.3 6.6,-1.3 10.1,-9.1 7.9,-17.5 -2,-8.3 -8.4,-14.1 -14.3,-12.9 z"
           id="path53"
           inkscape:connector-curvature="0" /><path
           d="m 519.3,819.9 c -6,-0.4 -11.6,6.3 -12.5,14.8 -0.9,8.6 3.8,15.9 10.5,16.3 6.7,0.5 12.4,-6.5 12.5,-15.1 0.3,-8.7 -4.5,-15.6 -10.5,-16 z"
           id="path55"
           inkscape:connector-curvature="0" /><path
           d="m 511.2,815.3 c 2,-8.4 -1,-16.1 -6.4,-17.7 -5.4,-1.5 -11.7,4 -14.4,12.1 -2.6,8.1 -0.1,16.5 5.9,18 6.2,1.4 12.9,-3.9 14.9,-12.4 z"
           id="path57"
           inkscape:connector-curvature="0" /><path
           d="m 432.6,761.2 c -2,-1 -4,-2.1 -6.1,-3.2 -3.1,-1.6 -7.2,-2.9 -10.1,0.4 -2.1,2.4 -2.8,5.4 -2.7,8.4 0,2.2 0.4,4.5 0.7,6.5 0.8,5.6 2.1,11.2 3.7,16.9 1.1,4.2 3,9.7 7.8,11.1 2.6,0.8 5.1,0.3 7.4,-0.7 2.3,-1.1 4.4,-2.7 6.3,-4.1 6.4,-4.9 12.5,-9.8 17.5,-16.2 3.7,-4.8 2.5,-11.3 -2.8,-13.3 -4.9,-1.8 -10.4,-1.3 -15.4,-3.2 -2.1,-0.7 -4.2,-1.7 -6.3,-2.6 z"
           id="path59"
           inkscape:connector-curvature="0" /><path
           d="m 455.9,790.3 c -5.7,0.1 -10.7,6.5 -11.1,15.2 -0.4,8.7 4.6,15.8 10.9,16 6.3,0.3 11,-7.1 10.7,-15.6 -0.4,-8.5 -4.9,-15.6 -10.5,-15.6 z"
           id="path61"
           inkscape:connector-curvature="0" /><path
           d="m 434.7,806.9 c -6,-0.9 -12.1,4.8 -13.6,13.3 -1.5,8.5 2.7,16.6 9.3,17.5 6.6,1.1 12.6,-5.1 13.4,-13.7 0.9,-8.5 -3.1,-16.2 -9.1,-17.1 z"
           id="path63"
           inkscape:connector-curvature="0" /><path
           d="m 413,799.3 c -5.5,-2.4 -13,1.9 -16.8,9.6 -3.8,7.8 -1.9,16.3 4.3,18.9 6.2,2.8 13.9,-1.9 17,-9.9 3.1,-8 0.9,-16.1 -4.5,-18.6 z"
           id="path65"
           inkscape:connector-curvature="0" /><path
           d="m 407,792.2 c 4.8,-7.2 4.6,-15.5 0.1,-18.8 -4.6,-3.2 -12.4,-0.3 -17.6,6.4 -5.3,6.7 -5.8,15.4 -0.6,18.9 5.1,3.5 13.3,0.8 18.1,-6.5 z"
           id="path67"
           inkscape:connector-curvature="0" /><path
           d="m 363.4,723.3 c -2.3,-1.3 -4.6,-2.5 -6.7,-4.2 -3.6,-2.8 -6.5,-6.4 -9.7,-9.7 -2.5,-2.4 -5.6,-5.3 -9.6,-3.2 -2.8,1.5 -4.4,4.1 -5.4,7 -0.7,2.1 -1.2,4.3 -1.6,6.4 -1.2,5.7 -1.8,11.3 -2.3,17.1 -0.3,4.3 -0.6,10.3 3.5,13.2 4.4,3.2 9.9,1.7 14.5,0.2 7.7,-2.4 15.3,-5.1 22,-9.2 5.1,-3.2 6.3,-9.9 2,-13.5 -2,-1.7 -4.4,-2.9 -6.7,-4.1 z"
           id="path69"
           inkscape:connector-curvature="0" /><path
           d="m 363.6,749.8 c -5.2,-2 -12.3,2.4 -15.6,10.4 -1.6,4 -2,8.1 -1.1,11.6 0.9,3.4 3,6 5.9,7.2 5.8,2.3 12.7,-2.8 15.4,-11 2.5,-8.1 0.7,-16.3 -4.6,-18.2 z"
           id="path71"
           inkscape:connector-curvature="0" /><path
           d="m 338,758.2 c -5.2,-3.1 -13,0.4 -17.3,7.8 -4.3,7.4 -3.2,16.6 2.7,19.7 5.9,3.2 13.6,-0.5 17.3,-8.3 3.8,-7.9 2.6,-16.4 -2.7,-19.2 z"
           id="path73"
           inkscape:connector-curvature="0" /><path
           d="m 320.2,743.5 c -4.5,-4 -12.8,-2.7 -19,3.3 -6.2,6 -7.5,14.8 -2.5,19.3 4.9,4.6 13.6,3.1 19.3,-3.5 5.6,-6.4 6.5,-14.9 2.2,-19.1 z"
           id="path75"
           inkscape:connector-curvature="0" /><path
           d="m 317,734.8 c 6.9,-5.1 9.7,-13.1 6.5,-17.7 -3.3,-4.5 -11.4,-4.6 -18.7,-0.1 -7.3,4.6 -10.6,12.4 -7.1,17.6 3.6,5.2 12.4,5.3 19.3,0.2 z"
           id="path77"
           inkscape:connector-curvature="0" /><path
           d="m 274.1,674.5 c 7.9,0.5 16.2,0.4 23.9,-1.2 5.8,-1.2 9.3,-7.2 6.4,-12 -2.8,-4.4 -6.9,-7.8 -9.8,-12.4 -2.3,-4 -3.9,-8.3 -5.8,-12.4 -1.3,-3.2 -3.4,-6.9 -7.9,-6.3 -3.2,0.4 -5.6,2.3 -7.5,4.7 -1.4,1.7 -2.6,3.7 -3.7,5.4 -3,4.9 -5.8,10.1 -8,15.3 -1.7,3.9 -3.9,9.4 -1.2,13.6 3,4.7 8.9,5 13.6,5.3 z"
           id="path79"
           inkscape:connector-curvature="0" /><path
           d="m 272.4,684.6 c -5.7,6.3 -6.8,15.2 -1.9,19.2 4.8,4.1 12.9,1.7 18.2,-5.1 5.4,-6.8 6.2,-14.9 2,-18.6 -4.3,-3.7 -12.5,-1.8 -18.3,4.5 z"
           id="path81"
           inkscape:connector-curvature="0" /><path
           d="m 244.8,680.7 c -6.6,5.5 -8.4,14.3 -4.2,19.5 4.5,5 13.1,4 19.2,-2 6.2,-6.1 7.8,-14.3 4,-19 -3.9,-4.6 -12.5,-4 -19,1.5 z"
           id="path83"
           inkscape:connector-curvature="0" /><path
           d="m 251.9,659.4 c -2.8,-5.3 -11,-7 -18.9,-3.4 -7.8,3.5 -12,11.3 -9,17.3 3.1,6 11.8,7.5 19.4,3.3 7.5,-4.1 11.3,-11.8 8.5,-17.2 z"
           id="path85"
           inkscape:connector-curvature="0" /><path
           d="m 233.8,643.5 c 1.5,6.2 10,9.1 18.1,6.7 8.2,-2.4 13.6,-9 12.1,-14.4 -1.4,-5.4 -9.1,-8.3 -17.6,-6.5 -8.4,1.8 -14.1,8 -12.6,14.2 z"
           id="path87"
           inkscape:connector-curvature="0" /><path
           d="m 232.3,578.8 c 7.2,3.2 15,5.9 22.8,7.1 5.9,0.8 11.2,-3.6 10.1,-9 -0.9,-5.2 -3.9,-9.7 -4.9,-15 -0.7,-4.5 -0.9,-9.1 -1.2,-13.6 -0.1,-3.5 -0.9,-7.7 -5.3,-8.6 -3.1,-0.7 -6,0.3 -8.6,1.8 -1.9,1.1 -3.7,2.5 -5.3,3.8 -4.5,3.5 -8.9,7.5 -12.8,11.6 -3,3.1 -6.8,7.5 -5.8,12.3 1.2,5.4 6.7,7.7 11,9.6 z"
           id="path89"
           inkscape:connector-curvature="0" /><path
           d="m 237.7,606.6 c 7.4,-4.6 10.8,-11.9 8.2,-16.8 -2.7,-4.9 -11.1,-6 -18.7,-2 -7.6,3.9 -11.5,11.9 -8.4,17.4 3.1,5.5 11.5,6 18.9,1.4 z"
           id="path91"
           inkscape:connector-curvature="0" /><path
           d="m 221,579.7 c -2.1,-5.6 -10.4,-8 -18.5,-5.1 -8.1,2.9 -12.8,10.5 -10.5,16.8 2.3,6.3 10.9,8.3 18.7,4.7 7.9,-3.5 12.3,-10.7 10.3,-16.4 z"
           id="path93"
           inkscape:connector-curvature="0" /><path
           d="m 202.8,570.3 c 8.5,-1.3 14.7,-7.2 13.9,-13.2 -0.7,-6 -8,-10.3 -16.6,-9.8 -8.6,0.6 -15.1,6.5 -14.4,13.2 0.9,6.7 8.6,11.1 17.1,9.8 z"
           id="path95"
           inkscape:connector-curvature="0" /><path
           d="m 219.9,548.3 c 8.6,0.5 15.8,-3.8 16.3,-9.3 0.6,-5.6 -5.7,-10.9 -14.3,-12.1 -8.6,-1.2 -16,2.7 -16.7,8.9 -0.8,6.3 6.2,12 14.7,12.5 z"
           id="path97"
           inkscape:connector-curvature="0" /><path
           d="m 218.7,461.9 c -0.5,5.4 3.8,9.5 7.2,12.7 5.7,5.4 12.2,10.7 19.1,14.4 5.3,2.8 11.8,0.5 12.6,-5.1 0.7,-5.2 -0.3,-10.5 0.4,-15.8 0.8,-4.5 2.3,-8.8 3.5,-13.2 1,-3.3 1.8,-7.5 -2.1,-9.9 -2.7,-1.7 -5.8,-1.8 -8.8,-1.2 -2.2,0.4 -4.3,1.1 -6.3,1.8 -5.5,1.8 -10.9,4 -16,6.6 -3.8,1.9 -9,4.7 -9.6,9.7 z"
           id="path99"
           inkscape:connector-curvature="0" /><path
           d="m 204.1,494.7 c 1.1,6.2 8.8,9.6 17.3,7.8 8.5,-1.8 14.2,-7.5 13.5,-13 -0.8,-5.5 -8.4,-9.4 -16.9,-8.3 -8.5,1.2 -15,7.3 -13.9,13.5 z"
           id="path101"
           inkscape:connector-curvature="0" /><path
           d="m 199.7,483.6 c 8.7,-0.7 15.1,-6 15.2,-12 0,-6 -7,-11.1 -15.6,-11.1 -8.6,0 -15.6,5.5 -15.7,12.3 0.2,6.7 7.5,11.4 16.1,10.8 z"
           id="path103"
           inkscape:connector-curvature="0" /><path
           d="m 200.9,456.5 c 8.4,1.7 16.3,-1.8 17.6,-7.7 1.2,-5.9 -4,-12.4 -12.3,-14.8 -8.2,-2.4 -16.5,0.9 -18,7.5 -1.4,6.6 4.3,13.3 12.7,15 z"
           id="path105"
           inkscape:connector-curvature="0" /><path
           d="m 224.5,441.7 c 7.9,3.4 16.2,1.8 18.5,-3.2 2.3,-5.1 -1.6,-12.2 -9.3,-16.2 -7.6,-4 -16,-3 -18.8,2.7 -2.8,5.6 1.8,13.3 9.6,16.7 z"
           id="path107"
           inkscape:connector-curvature="0" /><path
           d="m 265.3,354.3 c -4.2,0.5 -10,1.3 -12.4,5.7 -2.4,4.9 0.3,10.2 2.4,14.4 3.4,7 7.7,14.2 13,20.1 4,4.4 10.9,4.5 13.6,-0.4 2.5,-4.6 3.3,-9.9 5.8,-14.6 2.4,-3.9 5.2,-7.5 7.9,-11.2 2.2,-2.7 4.2,-6.4 1.5,-10 -2,-2.5 -4.8,-3.7 -7.8,-4.1 -2.2,-0.4 -4.4,-0.4 -6.5,-0.5 -5.8,-0.2 -11.8,-0.1 -17.5,0.6 z"
           id="path109"
           inkscape:connector-curvature="0" /><path
           d="m 228,385.9 c -1.1,6.2 5,12 13.5,13.3 8.6,1.3 15.9,-2.1 17.1,-7.6 1.1,-5.5 -4.7,-11.7 -13,-13.6 -8.3,-1.9 -16.5,1.7 -17.6,7.9 z"
           id="path111"
           inkscape:connector-curvature="0" /><path
           d="m 227.6,373.9 c 8.3,2.3 16.3,-0.4 18.4,-6 2,-5.7 -2.8,-12.8 -10.8,-15.8 -8.1,-3 -16.6,-0.2 -18.9,6.1 -2.2,6.4 3.1,13.4 11.3,15.7 z"
           id="path113"
           inkscape:connector-curvature="0" /><path
           d="m 238.1,348.9 c 7.3,4.5 15.9,3.9 19.1,-1.2 3.3,-5 0.5,-13 -6.4,-18.1 -7,-5.1 -15.7,-4.7 -19.5,0.8 -3.6,5.7 -0.5,14 6.8,18.5 z"
           id="path115"
           inkscape:connector-curvature="0" /><path
           d="m 283.8,346.4 c 4.1,-3.9 2.6,-12 -3.2,-18.5 -5.8,-6.4 -14,-8.3 -18.5,-3.8 -4.6,4.3 -3,13.1 3.2,19 6.3,5.9 14.6,7.3 18.5,3.3 z"
           id="path117"
           inkscape:connector-curvature="0" /><path
           d="m 320.1,276.1 c -4.1,3.6 -3.2,9.6 -2.7,14.3 0.5,3.9 1,7.9 1.8,11.8 0.9,3.9 2,7.8 3.5,11.5 2.3,5.6 8.7,7.9 12.9,4.2 4.2,-3.3 6.3,-8.4 10.5,-11.7 3.5,-2.9 7.3,-5.5 11.2,-7.8 2.9,-1.9 6.1,-4.7 4.7,-9 -1,-3 -3.3,-5.1 -5.9,-6.6 -1.9,-1.1 -4,-1.9 -5.9,-2.6 -5.3,-2.1 -10.8,-3.8 -16.5,-5.3 -4.3,-1.1 -9.9,-2.1 -13.6,1.2 z"
           id="path119"
           inkscape:connector-curvature="0" /><path
           d="m 295.9,309 c 3.8,2.1 7.7,2.9 11.1,2.6 3.4,-0.2 6.2,-1.5 7.6,-3.9 2.9,-4.9 -0.4,-12.6 -7.7,-17.3 -7.2,-4.6 -15.9,-3.9 -19.3,1.4 -3.1,5.5 0.8,13.1 8.3,17.2 z"
           id="path121"
           inkscape:connector-curvature="0" /><path
           d="m 291.5,280.4 c 6.9,5 15.6,5.3 19.4,0.6 3.7,-4.8 1.8,-12.9 -4.8,-18.5 -6.6,-5.6 -15.6,-5.9 -19.8,-0.7 -4.4,5.2 -1.8,13.7 5.2,18.6 z"
           id="path123"
           inkscape:connector-curvature="0" /><path
           d="m 328.3,266 c 4.9,-3.5 4.9,-12.2 0.1,-19.3 -4.8,-7.1 -13.1,-9.7 -18.6,-5.7 -5.5,3.9 -5.2,13 0.1,19.7 5.5,6.6 13.6,8.8 18.4,5.3 z"
           id="path125"
           inkscape:connector-curvature="0" /><path
           d="m 353.7,273.8 c 5.2,-2.3 6.4,-10.6 3.3,-18.5 -3.2,-7.9 -10.4,-12.7 -16.1,-9.9 -5.7,2.6 -7.4,11.2 -3.5,19 4,7.7 11.2,11.6 16.3,9.4 z"
           id="path127"
           inkscape:connector-curvature="0" /><path
           d="m 425.9,257.3 c 2.1,-0.8 4.3,-1.5 6.5,-2 l 6.7,-1.5 c 3.4,-0.8 7.3,-2.4 7.5,-6.8 0.1,-3.2 -1.3,-5.9 -3.3,-8.2 -1.4,-1.7 -3.2,-3.2 -4.7,-4.6 -4.3,-3.7 -8.8,-7.2 -13.7,-10.5 -3.6,-2.5 -8.6,-5.5 -13.2,-3.5 -5,2.1 -6.4,7.8 -7.4,12.5 -1.8,7.8 -3.3,15.7 -3,23.7 0.3,6.1 5.4,10.3 10.7,8.5 2.5,-0.9 4.7,-2.3 6.9,-3.8 2.2,-1.6 4.5,-2.9 7,-3.8 z"
           id="path129"
           inkscape:connector-curvature="0" /><path
           d="m 395.9,247.9 c 4.3,-3.7 4,-11.8 -1.3,-18.8 -5.3,-6.9 -13.7,-9.2 -18.6,-5.2 -4.9,3.8 -3.8,12.5 1.9,18.8 5.6,6.3 13.7,8.8 18,5.2 z"
           id="path131"
           inkscape:connector-curvature="0" /><path
           d="m 401.4,221.6 c 5.2,-3.1 6.2,-11.4 1.9,-18.9 -4.3,-7.5 -12.7,-11 -18.4,-7.4 -5.8,3.5 -6.3,12 -1.5,19.1 4.9,7.1 12.9,10.4 18,7.2 z"
           id="path133"
           inkscape:connector-curvature="0" /><path
           d="m 423,213.4 c 5.8,-1.7 8.7,-9.8 6.7,-18.1 -2.1,-8.4 -9,-13.8 -15.5,-11.8 -6.5,1.9 -9.4,10.3 -6.7,18.5 2.8,8.2 9.7,13 15.5,11.4 z"
           id="path135"
           inkscape:connector-curvature="0" /><path
           d="m 444.2,229.5 c 2.8,-0.2 5.2,-2.2 6.9,-5.1 1.7,-2.9 2.7,-6.8 2.5,-11.1 -0.3,-8.5 -5.5,-15.5 -11.7,-14.9 -6.2,0.6 -10.8,8 -9.8,16.6 1,8.5 6.5,14.8 12.1,14.5 z"
           id="path137"
           inkscape:connector-curvature="0" /><path
           d="m 505.8,208.1 c -4.4,6.7 -8.4,13.7 -10.9,21.2 -1.8,5.8 1.5,11.6 7.2,11.6 2.6,0 5.2,-0.6 7.8,-1.2 2.6,-0.6 5.2,-1 7.9,-1 2.3,0 4.6,0.1 6.8,0.3 2.3,0.3 4.5,0.6 6.8,0.9 3.4,0.4 7.7,0.2 9.4,-3.9 1.2,-2.9 0.7,-6 -0.3,-8.9 -0.8,-2.1 -1.9,-4.1 -2.9,-5.9 -2.7,-5 -5.8,-9.8 -9.3,-14.6 -2.5,-3.6 -6.2,-8.1 -11.2,-7.8 -5.4,0.5 -8.7,5.3 -11.3,9.3 z"
           id="path139"
           inkscape:connector-curvature="0" /><path
           d="m 492.6,219.6 c 5.3,-1.9 7.8,-9.7 5.3,-18 -1.3,-4.1 -3.7,-7.5 -6.6,-9.6 -2.8,-2 -6.1,-2.7 -9.1,-1.7 -6,1.9 -7.9,10.3 -4.7,18.3 3.2,7.9 9.8,12.9 15.1,11 z"
           id="path141"
           inkscape:connector-curvature="0" /><path
           d="m 506.9,196.8 c 5.9,-1.1 9.7,-8.6 8.3,-17.1 -1.4,-8.5 -8.2,-14.7 -14.7,-13.3 -6.6,1.3 -10.1,9.1 -7.9,17.5 2,8.3 8.3,14.1 14.3,12.9 z"
           id="path143"
           inkscape:connector-curvature="0" /><path
           d="m 529.9,196.5 c 6,0.4 11.6,-6.3 12.5,-14.8 0.9,-8.6 -3.8,-15.9 -10.5,-16.3 -6.7,-0.5 -12.4,6.5 -12.5,15.1 -0.3,8.7 4.5,15.5 10.5,16 z"
           id="path145"
           inkscape:connector-curvature="0" /><path
           d="m 538,201.1 c -2,8.4 1,16.1 6.4,17.7 5.4,1.5 11.7,-4 14.4,-12.1 2.6,-8.1 0.1,-16.5 -5.9,-18 -6.2,-1.4 -12.9,3.9 -14.9,12.4 z"
           id="path147"
           inkscape:connector-curvature="0" /><path
           d="m 616.6,255.2 c 2,1 4,2.1 6.1,3.2 3.1,1.6 7.2,2.9 10.1,-0.4 2.1,-2.4 2.8,-5.4 2.7,-8.4 0,-2.2 -0.4,-4.5 -0.7,-6.5 -0.8,-5.6 -2.1,-11.2 -3.7,-16.9 -1.1,-4.2 -3,-9.7 -7.8,-11.1 -2.6,-0.8 -5.1,-0.3 -7.4,0.7 -2.3,1.1 -4.4,2.7 -6.3,4.1 -6.4,4.9 -12.5,9.8 -17.5,16.2 -3.7,4.8 -2.5,11.3 2.8,13.3 4.9,1.8 10.4,1.3 15.4,3.2 2.1,0.7 4.2,1.6 6.3,2.6 z"
           id="path149"
           inkscape:connector-curvature="0" /><path
           d="m 604.4,210.8 c 0.4,-8.7 -4.6,-15.8 -10.9,-16 -6.3,-0.3 -11,7.1 -10.7,15.6 0.3,8.5 4.8,15.6 10.5,15.6 5.7,0 10.7,-6.5 11.1,-15.2 z"
           id="path151"
           inkscape:connector-curvature="0" /><path
           d="m 614.4,209.5 c 6,0.9 12.1,-4.8 13.6,-13.3 1.5,-8.5 -2.7,-16.6 -9.3,-17.5 -6.6,-1.1 -12.6,5.1 -13.4,13.7 -0.8,8.5 3.2,16.2 9.1,17.1 z"
           id="path153"
           inkscape:connector-curvature="0" /><path
           d="m 636.2,217.1 c 5.5,2.4 13,-1.9 16.8,-9.6 3.8,-7.8 1.9,-16.3 -4.3,-18.9 -6.2,-2.8 -13.9,1.9 -17,9.9 -3.1,8 -0.9,16 4.5,18.6 z"
           id="path155"
           inkscape:connector-curvature="0" /><path
           d="m 642.2,224.1 c -4.8,7.2 -4.6,15.5 -0.1,18.8 4.6,3.2 12.4,0.3 17.6,-6.4 5.3,-6.7 5.8,-15.4 0.6,-18.9 -5.1,-3.5 -13.3,-0.8 -18.1,6.5 z"
           id="path157"
           inkscape:connector-curvature="0" /><path
           d="m 702.1,307 c 2.5,2.4 5.6,5.3 9.6,3.2 2.8,-1.5 4.4,-4.1 5.4,-7 0.7,-2.1 1.2,-4.3 1.6,-6.4 1.2,-5.7 1.8,-11.3 2.3,-17.1 0.3,-4.3 0.6,-10.3 -3.5,-13.2 -4.4,-3.2 -9.9,-1.7 -14.5,-0.2 -7.7,2.4 -15.3,5.1 -22,9.2 -5.1,3.2 -6.3,9.9 -2,13.5 2,1.7 4.4,2.9 6.7,4.1 2.3,1.3 4.6,2.5 6.7,4.2 3.7,2.8 6.6,6.4 9.7,9.7 z"
           id="path159"
           inkscape:connector-curvature="0" /><path
           d="m 685.6,266.5 c 5.2,2 12.3,-2.4 15.6,-10.4 1.6,-4 2,-8.1 1.1,-11.6 -0.9,-3.4 -3,-6 -5.9,-7.2 -5.8,-2.3 -12.7,2.8 -15.4,11 -2.5,8.2 -0.7,16.3 4.6,18.2 z"
           id="path161"
           inkscape:connector-curvature="0" /><path
           d="m 711.2,258.2 c 5.2,3.1 13,-0.4 17.3,-7.8 4.3,-7.4 3.2,-16.6 -2.7,-19.7 -5.9,-3.2 -13.6,0.5 -17.3,8.3 -3.8,7.8 -2.6,16.4 2.7,19.2 z"
           id="path163"
           inkscape:connector-curvature="0" /><path
           d="m 729,272.9 c 4.5,4 12.8,2.7 19,-3.3 6.2,-6 7.5,-14.8 2.5,-19.3 -4.9,-4.6 -13.6,-3.1 -19.3,3.5 -5.6,6.4 -6.5,14.9 -2.2,19.1 z"
           id="path165"
           inkscape:connector-curvature="0" /><path
           d="m 732.2,281.5 c -6.9,5.1 -9.7,13.1 -6.5,17.7 3.3,4.5 11.4,4.6 18.7,0.1 7.3,-4.6 10.6,-12.4 7.1,-17.6 -3.6,-5.1 -12.4,-5.2 -19.3,-0.2 z"
           id="path167"
           inkscape:connector-curvature="0" /><path
           d="m 775.1,341.9 c -7.9,-0.5 -16.2,-0.4 -23.9,1.2 -5.8,1.2 -9.3,7.2 -6.4,12 2.8,4.4 6.9,7.8 9.8,12.4 2.3,4 3.9,8.3 5.8,12.4 1.3,3.2 3.4,6.9 7.9,6.3 3.2,-0.4 5.6,-2.3 7.5,-4.7 1.4,-1.7 2.6,-3.7 3.7,-5.4 3,-4.9 5.8,-10.1 8,-15.3 1.7,-3.9 3.9,-9.4 1.2,-13.6 -3,-4.7 -8.9,-5 -13.6,-5.3 z"
           id="path169"
           inkscape:connector-curvature="0" /><path
           d="m 776.8,331.7 c 5.7,-6.3 6.8,-15.2 1.9,-19.2 -4.8,-4.1 -12.9,-1.7 -18.2,5.1 -5.4,6.8 -6.2,14.9 -2,18.6 4.3,3.8 12.5,1.9 18.3,-4.5 z"
           id="path171"
           inkscape:connector-curvature="0" /><path
           d="m 804.4,335.6 c 6.6,-5.5 8.4,-14.3 4.2,-19.5 -4.5,-5 -13.1,-4 -19.2,2 -6.2,6.1 -7.8,14.3 -4,19 3.9,4.6 12.4,4.1 19,-1.5 z"
           id="path173"
           inkscape:connector-curvature="0" /><path
           d="m 797.3,356.9 c 2.8,5.3 11,7 18.9,3.4 7.8,-3.5 12,-11.3 9,-17.3 -3.1,-6 -11.8,-7.5 -19.4,-3.3 -7.5,4.2 -11.3,11.9 -8.5,17.2 z"
           id="path175"
           inkscape:connector-curvature="0" /><path
           d="m 815.4,372.9 c -1.5,-6.2 -10,-9.1 -18.1,-6.7 -8.2,2.4 -13.6,9 -12.1,14.4 1.4,5.4 9.1,8.3 17.6,6.5 8.4,-1.9 14.1,-8.1 12.6,-14.2 z"
           id="path177"
           inkscape:connector-curvature="0" /><path
           d="m 816.9,437.6 c -7.2,-3.2 -15,-5.9 -22.8,-7.1 -5.9,-0.8 -11.2,3.6 -10.1,9 0.9,5.2 3.9,9.7 4.9,15 0.7,4.5 0.9,9.1 1.2,13.6 0.1,3.5 0.9,7.7 5.3,8.6 3.1,0.7 6,-0.3 8.6,-1.8 1.9,-1.1 3.7,-2.5 5.3,-3.8 4.5,-3.5 8.9,-7.5 12.8,-11.6 3,-3.1 6.8,-7.5 5.8,-12.3 -1.2,-5.4 -6.7,-7.8 -11,-9.6 z"
           id="path179"
           inkscape:connector-curvature="0" /><path
           d="m 811.5,409.8 c -7.4,4.6 -10.8,11.9 -8.2,16.8 2.7,4.9 11.1,6 18.7,2 7.6,-3.9 11.5,-11.9 8.4,-17.4 -3.1,-5.5 -11.5,-6 -18.9,-1.4 z"
           id="path181"
           inkscape:connector-curvature="0" /><path
           d="m 828.2,436.7 c 2.1,5.6 10.4,8 18.5,5.1 8.1,-2.9 12.8,-10.5 10.5,-16.8 -2.3,-6.3 -10.9,-8.3 -18.7,-4.7 -7.9,3.5 -12.3,10.7 -10.3,16.4 z"
           id="path183"
           inkscape:connector-curvature="0" /><path
           d="m 846.4,446.1 c -8.5,1.3 -14.7,7.2 -13.9,13.2 0.7,6 8,10.3 16.6,9.8 8.6,-0.6 15.1,-6.5 14.4,-13.2 -0.9,-6.7 -8.6,-11.1 -17.1,-9.8 z"
           id="path185"
           inkscape:connector-curvature="0" /><path
           d="m 813.1,477.4 c -0.6,5.6 5.7,10.9 14.3,12.1 8.6,1.2 16,-2.7 16.7,-8.9 0.8,-6.3 -6.2,-12 -14.7,-12.5 -8.7,-0.6 -15.9,3.7 -16.3,9.3 z"
           id="path187"
           inkscape:connector-curvature="0" /></g></g></switch></svg>