<?xml version="1.0" encoding="UTF-8" standalone="no"?>
<svg
   xmlns:dc="http://purl.org/dc/elements/1.1/"
   xmlns:cc="http://creativecommons.org/ns#"
   xmlns:rdf="http://www.w3.org/1999/02/22-rdf-syntax-ns#"
   xmlns:svg="http://www.w3.org/2000/svg"
   xmlns="http://www.w3.org/2000/svg"
   xmlns:sodipodi="http://sodipodi.sourceforge.net/DTD/sodipodi-0.dtd"
   xmlns:inkscape="http://www.inkscape.org/namespaces/inkscape"
   version="1.1"
   id="Layer_1"
   x="0px"
   y="0px"
   viewBox="0 0 1000 1000"
   width="100%"
   height="100%"
   style="enable-background:new 0 0 1000 1000;"
   xml:space="preserve"
   ><style
     type="text/css"
     id="style3">
	.noFillSVG{fill:none;}
</style><switch
     id="switch5"
     transform="translate(15.582509,-105.94151)"><g
       id="g7"><g
         id="g9"><path
           class="noFillSVG"
           d="m 484.4,480.2 c -77.4,0 -140.2,62.8 -140.2,140.2 0,77.4 62.8,140.2 140.2,140.2 77.4,0 140.2,-62.8 140.2,-140.2 0.1,-77.5 -62.7,-140.2 -140.2,-140.2 z m 85.9,51.5 c 0.8,-0.8 2.1,-1 3.5,-0.7 1.3,0.4 2.7,1.4 3.9,2.8 2.4,2.8 2.8,6.2 1,7.6 -1.8,1.4 -5.1,0.4 -7.3,-2.2 -1.1,-1.3 -1.7,-2.8 -2,-4.2 -0.1,-1.3 0.1,-2.6 0.9,-3.3 z m -23.5,-26.9 c 1.5,-1.8 5.1,-1.1 8,1.5 2.9,2.5 3.8,5.9 2.1,7.5 -1.6,1.5 -5.1,0.9 -7.8,-1.5 -2.7,-2.5 -3.8,-5.8 -2.3,-7.5 z m -12,2.8 c 1,-2 4.5,-2.3 7.7,-0.6 3.3,1.6 4.7,5 3.5,6.9 -1.3,1.9 -4.5,1.8 -7.5,0.3 -3,-1.6 -4.7,-4.5 -3.7,-6.6 z m -31.4,-17.1 c 0.8,-2.1 4.5,-2.9 8.1,-1.6 3.6,1.6 5.5,4.5 4.5,6.5 -1,2.1 -4.4,2.3 -7.8,1.1 -3.3,-1.1 -5.5,-3.8 -4.8,-6 z m -3.2,3.5 c 3.6,0.7 6.1,3 5.6,5.3 -0.5,2.2 -3.6,3.5 -7,2.9 -1.7,-0.4 -3.2,-1 -4.2,-1.8 -1,-0.8 -1.6,-1.9 -1.5,-3.1 0.3,-2.2 3.5,-4.1 7.1,-3.3 z M 465,487.7 c 3.9,0.1 6.7,2 6.4,4.3 -0.3,2.3 -3.3,4 -6.9,3.9 -3.6,-0.1 -6.6,-2 -6.6,-4.2 0,-2.3 3.2,-4.1 7.1,-4 z m -8.9,8.5 c 3.6,-0.9 6.8,0.9 7.1,3 0.3,2.3 -2.3,4.2 -5.6,5.1 -3.3,0.7 -6.5,-0.5 -7,-2.7 -0.6,-2.2 1.9,-4.6 5.5,-5.4 z m -35.4,6 c 3.7,-1.1 7.1,-0.1 7.6,2.1 0.5,2.3 -1.9,4.7 -5.3,5.9 -3.3,1.3 -6.8,0.6 -7.5,-1.5 -0.7,-2.2 1.6,-5.1 5.2,-6.5 z m -5.4,11.2 c 3.2,-1.8 6.7,-1.6 7.7,0.4 1,2 -0.5,5 -3.5,6.7 -3,1.6 -6.2,1.9 -7.5,-0.1 -1.2,-1.8 0,-5.3 3.3,-7 z m -34.2,21.9 c 0.5,-1.4 1.6,-2.8 3.1,-4 3,-2.4 6.5,-2.7 7.7,-0.8 1.3,1.9 0,5.2 -2.9,7.4 -2.9,2.1 -6.2,2.9 -7.7,1.1 -0.6,-1 -0.7,-2.3 -0.2,-3.7 z m 8.2,13.5 c -2.1,2.6 -5.4,3.7 -7.2,2.4 -1.8,-1.3 -1.4,-4.8 0.9,-7.6 2.3,-2.9 5.6,-3.9 7.3,-2.3 1.5,1.4 1.1,4.8 -1,7.5 z m -20.4,29.4 c 2.1,0.9 2.7,4.1 1.5,7.3 -1,3.3 -3.5,5.4 -5.7,4.8 -2.2,-0.6 -3.1,-4 -2,-7.5 1.3,-3.4 4.1,-5.5 6.2,-4.6 z m -9.2,-7.4 c 1.8,-3.4 5.3,-4.7 7.1,-3.4 0.9,0.7 1.3,1.9 1.2,3.3 0,1.4 -0.4,3.1 -1.4,4.6 -1.8,3.1 -4.9,4.8 -6.9,3.6 -1.9,-1 -1.9,-4.7 0,-8.1 z m -6.5,53.4 c -2.2,-0.4 -3.8,-3.9 -2.9,-7.7 0.8,-3.8 3.3,-6.2 5.5,-5.6 2.2,0.7 3.3,4 2.5,7.5 -0.8,3.6 -2.7,6.2 -5.1,5.8 z m 8.1,-3.9 c 2.3,0.1 4.1,3 4.2,6.4 0,3.4 -1.8,6.3 -4,6.5 -2.3,0.2 -4.2,-2.7 -4.2,-6.4 -0.1,-3.8 1.8,-6.6 4,-6.5 z m 1.1,48.5 c -2.2,0.4 -4.7,-2.5 -5.3,-6.3 -0.8,-3.8 1.1,-7 3.3,-7.1 2.3,-0.1 4.2,2.7 5,6.2 0.5,3.6 -0.8,6.9 -3,7.2 z m 11,5.6 c -2.1,0.9 -5,-1.1 -6.4,-4.5 -1.2,-3.5 -0.3,-6.9 1.9,-7.6 2.2,-0.7 4.8,1.4 5.9,4.7 1.2,3.1 0.7,6.4 -1.4,7.4 z m 13,33.2 c -1,0.6 -2.3,0.4 -3.7,-0.3 -1.4,-0.7 -2.7,-2 -3.5,-3.7 -1.8,-3.4 -1.5,-6.9 0.6,-7.8 2.1,-0.9 5.1,0.9 6.7,4.2 1.8,3.1 1.9,6.5 -0.1,7.6 z m 12.1,1.5 c -0.8,0.8 -2.1,1 -3.5,0.7 -1.3,-0.4 -2.7,-1.4 -3.9,-2.8 -2.4,-2.8 -2.8,-6.2 -1,-7.6 1.8,-1.4 5.1,-0.4 7.3,2.2 1.1,1.3 1.7,2.8 2,4.2 0.2,1.3 0,2.5 -0.9,3.3 z M 422,736 c -1.5,1.8 -5.1,1.1 -8,-1.5 -2.9,-2.5 -3.8,-5.9 -2.1,-7.5 1.6,-1.5 5.1,-0.9 7.8,1.5 2.7,2.4 3.8,5.8 2.3,7.5 z m 12,-2.9 c -1,2 -4.5,2.3 -7.7,0.6 -3.3,-1.6 -4.7,-5 -3.5,-6.9 1.3,-1.9 4.5,-1.8 7.5,-0.3 3.1,1.6 4.7,4.6 3.7,6.6 z m 31.4,17.1 c -0.8,2.1 -4.5,2.9 -8.1,1.6 -3.6,-1.6 -5.5,-4.5 -4.5,-6.5 1,-2.1 4.4,-2.3 7.8,-1.1 3.4,1.2 5.6,3.9 4.8,6 z m 3.2,-3.5 c -3.6,-0.7 -6.1,-3 -5.6,-5.3 0.5,-2.2 3.6,-3.5 7,-2.9 1.7,0.4 3.2,1 4.2,1.8 1,0.8 1.6,1.9 1.5,3.1 -0.3,2.3 -3.5,4.2 -7.1,3.3 z m 35.3,6.4 c -3.9,-0.1 -6.7,-2 -6.4,-4.3 0.3,-2.3 3.3,-4 6.9,-3.9 3.6,0.1 6.6,2 6.6,4.2 0,2.2 -3.3,4 -7.1,4 z m 8.9,-8.5 c -3.6,0.9 -6.8,-0.9 -7.1,-3 -0.3,-2.3 2.3,-4.2 5.6,-5.1 3.3,-0.7 6.5,0.5 7,2.7 0.6,2.1 -1.9,4.6 -5.5,5.4 z m 35.4,-6.1 c -3.7,1.1 -7.1,0.1 -7.6,-2.1 -0.5,-2.3 1.9,-4.7 5.3,-5.9 3.3,-1.3 6.8,-0.6 7.5,1.5 0.7,2.2 -1.6,5.2 -5.2,6.5 z m 5.3,-11.1 c -3.2,1.8 -6.7,1.6 -7.7,-0.4 -1,-2 0.5,-5 3.5,-6.7 3,-1.6 6.2,-1.9 7.5,0.1 1.3,1.7 0,5.3 -3.3,7 z m 34.3,-21.9 c -0.5,1.4 -1.6,2.8 -3.1,4 -3,2.4 -6.5,2.7 -7.7,0.8 -1.3,-1.9 0,-5.2 2.9,-7.4 2.9,-2.1 6.2,-2.9 7.7,-1.1 0.5,0.9 0.6,2.2 0.2,3.7 z M 579.6,692 c 2.1,-2.6 5.4,-3.7 7.2,-2.4 1.8,1.3 1.4,4.8 -0.9,7.6 -2.3,2.9 -5.6,3.9 -7.3,2.3 -1.6,-1.5 -1.2,-4.8 1,-7.5 z m 20.3,-29.5 c -2.1,-0.9 -2.7,-4.1 -1.5,-7.3 1,-3.3 3.5,-5.4 5.7,-4.8 2.2,0.6 3.1,4 2,7.5 -1.2,3.5 -4.1,5.5 -6.2,4.6 z m 9.2,7.4 c -1.8,3.4 -5.3,4.7 -7.1,3.4 -0.9,-0.7 -1.3,-1.9 -1.2,-3.3 0,-1.4 0.4,-3.1 1.4,-4.6 1.8,-3.1 4.9,-4.8 6.9,-3.6 1.9,1 1.9,4.8 0,8.1 z m 6.5,-53.3 c 2.2,0.4 3.8,3.9 2.9,7.7 -0.8,3.8 -3.3,6.2 -5.5,5.6 -2.2,-0.7 -3.3,-4 -2.5,-7.5 0.8,-3.6 2.8,-6.2 5.1,-5.8 z m -8.1,3.9 c -2.3,-0.1 -4.1,-3 -4.2,-6.4 0,-3.4 1.8,-6.3 4,-6.5 2.3,-0.2 4.2,2.7 4.2,6.4 0.1,3.7 -1.7,6.6 -4,6.5 z m -1,-48.6 c 2.2,-0.4 4.7,2.5 5.3,6.3 0.8,3.8 -1.1,7 -3.3,7.1 -2.3,0.1 -4.2,-2.7 -5,-6.2 -0.6,-3.5 0.7,-6.8 3,-7.2 z m -11,-5.5 c 2.1,-0.9 5,1.1 6.4,4.5 1.2,3.5 0.3,6.9 -1.9,7.6 -2.2,0.7 -4.8,-1.4 -5.9,-4.7 -1.3,-3.2 -0.7,-6.5 1.4,-7.4 z m -3.2,-14.6 c 0.4,1.9 -1.1,3 -2.5,3.6 -1.7,0.8 -3.4,1.6 -5,2.6 4.5,7.2 8.2,14.9 11.1,23 1.7,-0.6 3.6,0.6 5,1.6 2,1.3 3.6,3 5.3,4.6 0.6,0.6 1.3,1.3 1.9,2 0.8,1 1.4,2.2 1.3,3.6 -0.1,1.9 -2,2.4 -3.5,2.5 -1.9,0.2 -3.8,0.4 -5.7,0.7 1.6,7.8 2.5,16 2.5,24.3 0,0.4 0,0.7 0,1.1 1.9,0 3.1,1.8 4,3.3 1.3,2 2.4,4 3.5,6.2 0.4,0.8 0.8,1.7 1.2,2.6 0.3,1.2 0.4,2.5 -0.2,3.8 -0.9,1.7 -2.8,1.6 -4.2,1.2 -1.8,-0.4 -3.6,-0.9 -5.5,-1.3 -1.2,8.6 -3.3,16.8 -6.3,24.7 1.7,0.7 2.3,2.8 2.7,4.5 0.7,2.3 0.9,4.6 1.1,7 0.1,0.9 0.2,1.8 0.1,2.8 -0.1,1.3 -0.4,2.6 -1.3,3.6 -1.4,1.4 -3,0.6 -4.3,-0.3 -1.6,-1.1 -3.2,-2.2 -4.8,-3.1 -4,7.5 -8.9,14.6 -14.4,21 1.4,1.2 1.2,3.4 1,5.1 -0.3,2.3 -0.7,4.7 -1.2,7 -0.2,0.9 -0.5,1.7 -0.9,2.6 -0.5,1.2 -1.3,2.2 -2.5,2.8 -1.8,0.8 -3.1,-0.6 -4,-1.8 -1.1,-1.5 -2.2,-3.1 -3.4,-4.5 -6.3,5.7 -13.3,10.6 -20.7,14.9 0.9,1.6 0.1,3.8 -0.7,5.2 -1.1,2 -2.3,4 -3.7,6 -0.5,0.7 -1,1.5 -1.7,2.2 -0.9,1 -1.9,1.9 -3.3,1.9 -2,0.1 -2.7,-1.6 -3.2,-3.1 -0.5,-1.8 -1,-3.6 -1.7,-5.4 -7.8,3.1 -16,5.5 -24.5,6.9 0.3,1.8 -1.3,3.4 -2.5,4.5 -1.7,1.6 -3.5,3.3 -5.5,4.6 -0.7,0.5 -1.5,1 -2.3,1.4 -1.2,0.6 -2.4,0.9 -3.7,0.5 -1.9,-0.5 -2,-2.4 -1.9,-3.9 0.1,-1.9 0.3,-3.8 0.3,-5.6 -1.3,0 -2.5,0.1 -3.8,0.1 -7.4,0 -14.6,-0.7 -21.6,-2 -0.3,1.8 -2.4,2.9 -3.9,3.5 -2.1,0.8 -4.4,1.6 -6.7,2.2 -0.8,0.2 -1.8,0.5 -2.7,0.6 -1.3,0.2 -2.6,0.2 -3.7,-0.7 -1.5,-1.2 -1,-3 -0.4,-4.4 0.8,-1.7 1.6,-3.4 2.2,-5.2 -8.2,-2.7 -15.9,-6.2 -23.2,-10.5 -0.9,1.5 -3.1,1.8 -4.8,1.9 -2.3,0.1 -4.8,0.3 -7.1,0 -0.9,-0.1 -1.8,-0.2 -2.7,-0.4 -1.3,-0.3 -2.5,-0.8 -3.2,-2 -1.1,-1.6 0,-3.1 1,-4.2 1.3,-1.4 2.7,-2.7 3.9,-4.2 -6.7,-5.3 -12.8,-11.2 -18.2,-17.8 -1.4,1.2 -3.6,0.6 -5.2,0.1 -2.2,-0.7 -4.4,-1.5 -6.6,-2.5 -0.8,-0.4 -1.7,-0.7 -2.5,-1.2 -1.1,-0.7 -2,-1.7 -2.3,-3 -0.4,-1.9 1.1,-3 2.5,-3.6 1.7,-0.8 3.4,-1.6 5,-2.6 -4.5,-7.2 -8.2,-14.9 -11.1,-23 -1.7,0.6 -3.6,-0.6 -5,-1.6 -2,-1.3 -3.6,-3 -5.3,-4.6 -0.6,-0.6 -1.3,-1.3 -1.9,-2 -0.8,-1 -1.4,-2.2 -1.3,-3.6 0.1,-1.9 2,-2.4 3.5,-2.5 1.9,-0.2 3.8,-0.4 5.7,-0.7 -1.6,-7.8 -2.5,-16 -2.5,-24.3 0,-0.4 0,-0.7 0,-1.1 -1.9,0 -3.1,-1.8 -4,-3.3 -1.3,-2 -2.4,-4 -3.5,-6.2 -0.4,-0.8 -0.8,-1.7 -1.2,-2.6 -0.3,-1.2 -0.4,-2.5 0.2,-3.8 0.9,-1.7 2.8,-1.6 4.2,-1.2 1.8,0.4 3.6,0.9 5.5,1.3 1.2,-8.6 3.3,-16.8 6.3,-24.7 -1.7,-0.7 -2.3,-2.8 -2.7,-4.5 -0.7,-2.3 -0.9,-4.6 -1.1,-7 -0.1,-0.9 -0.2,-1.8 -0.1,-2.8 0.1,-1.3 0.4,-2.6 1.3,-3.6 1.4,-1.4 3,-0.6 4.3,0.3 1.6,1.1 3.2,2.2 4.8,3.1 4,-7.5 8.9,-14.6 14.4,-21 -1.4,-1.2 -1.2,-3.4 -1,-5.1 0.3,-2.3 0.7,-4.7 1.2,-7 0.2,-0.9 0.5,-1.7 0.9,-2.6 0.5,-1.2 1.3,-2.2 2.5,-2.8 1.8,-0.8 3.1,0.6 4,1.8 1.1,1.5 2.2,3.1 3.4,4.5 6.3,-5.7 13.3,-10.6 20.7,-14.9 -0.9,-1.6 -0.1,-3.8 0.7,-5.2 1.1,-2 2.3,-4 3.7,-6 0.5,-0.7 1,-1.5 1.7,-2.2 0.9,-1 1.9,-1.9 3.3,-1.9 2,-0.1 2.7,1.6 3.2,3.1 0.5,1.8 1,3.6 1.7,5.4 7.8,-3.1 16,-5.5 24.5,-6.9 -0.3,-1.8 1.3,-3.4 2.5,-4.5 1.7,-1.6 3.5,-3.3 5.5,-4.6 0.7,-0.5 1.5,-1 2.3,-1.4 1.2,-0.6 2.4,-0.9 3.7,-0.5 1.9,0.5 2,2.4 1.9,3.9 -0.1,1.9 -0.3,3.8 -0.3,5.6 1.3,0 2.5,-0.1 3.8,-0.1 7.4,0 14.6,0.7 21.6,2 0.3,-1.8 2.4,-2.9 3.9,-3.5 2.1,-0.8 4.4,-1.6 6.7,-2.2 0.8,-0.2 1.8,-0.5 2.7,-0.6 1.3,-0.2 2.6,-0.2 3.7,0.7 1.5,1.2 1,3 0.4,4.4 -0.8,1.7 -1.6,3.4 -2.2,5.2 8.2,2.7 15.9,6.2 23.2,10.5 0.9,-1.5 3.1,-1.8 4.8,-1.9 2.3,-0.1 4.8,-0.3 7.1,0 0.9,0.1 1.8,0.2 2.7,0.4 1.3,0.3 2.5,0.8 3.2,2 1.1,1.6 0,3.1 -1,4.2 -1.3,1.4 -2.7,2.7 -3.9,4.2 6.7,5.3 12.8,11.2 18.2,17.8 1.4,-1.2 3.6,-0.6 5.2,-0.1 2.2,0.7 4.4,1.5 6.6,2.5 0.8,0.4 1.7,0.7 2.5,1.2 1.2,0.7 2,1.7 2.3,3 z m -6.2,-18.4 c 1.4,0.7 2.7,2 3.5,3.7 1.8,3.4 1.5,6.9 -0.6,7.8 -2.1,0.9 -5.1,-0.9 -6.7,-4.2 -1.8,-3.1 -1.8,-6.5 0.2,-7.7 1,-0.4 2.3,-0.3 3.6,0.4 z"
           id="path11"
           inkscape:connector-curvature="0"
           style="fill:none" /><path
           d="m 698.4,624.4 c -31.7,-51 -66,-100.5 -101.8,-148.7 -26.6,-35.8 -62.9,-83.5 -112.6,-82 -54.3,1.6 -89.1,51 -118.3,90.2 -49,66 -98.8,135.2 -134.9,210.3 -27.2,56.6 3.1,122.1 68,126.6 60.8,4.1 119.5,-15.6 180.8,-14.5 52.4,1 104.4,8 156.6,12.5 39.7,3.4 89.4,1 105.8,-43.5 11.7,-31.5 4.3,-62.4 -9.3,-91.5 -9.7,-20.9 -22.8,-40.9 -34.3,-59.4 z m -214,136.2 c -77.4,0 -140.2,-62.8 -140.2,-140.2 0,-77.4 62.8,-140.2 140.2,-140.2 77.4,0 140.2,62.8 140.2,140.2 0.1,77.4 -62.7,140.2 -140.2,140.2 z"
           id="path13"
           inkscape:connector-curvature="0" /><ellipse
           transform="matrix(0.9769,-0.2138,0.2138,0.9769,-91.3022,64.2957)"
           cx="251.60001"
           cy="454.20001"
           rx="77.800003"
           ry="115"
           id="ellipse15" /><ellipse
           transform="matrix(0.991,-0.1335,0.1335,0.991,-35.7662,53.9885)"
           cx="384.60001"
           cy="293.60001"
           rx="77.800003"
           ry="115"
           id="ellipse17" /><ellipse
           transform="matrix(0.0398687,-0.9992,0.9992,0.0398687,251.6563,849.1465)"
           cx="567.70001"
           cy="293.60001"
           rx="115"
           ry="77.800003"
           id="ellipse19" /><ellipse
           transform="matrix(0.1914,-0.9815,0.9815,0.1914,132.9168,1072.989)"
           cx="717.70001"
           cy="455.79999"
           rx="115"
           ry="77.800003"
           id="ellipse21" /><path
           d="m 468.9,507.8 c 1.3,0.7 2.6,1.5 4,2.1 1.3,0.8 2.7,1.5 4,2.1 2,0.9 4.3,-0.3 4.4,-2.8 0.1,-2.3 -0.7,-4.5 -0.7,-6.8 0,-0.1 0,-0.2 0,-0.3 0,-1.9 0.2,-3.8 0.3,-5.6 0.1,-1.5 0,-3.4 -1.9,-3.9 -1.3,-0.4 -2.6,0 -3.7,0.5 -0.8,0.4 -1.6,0.9 -2.3,1.4 -2,1.2 -3.8,3 -5.5,4.6 -1.2,1.2 -2.8,2.8 -2.5,4.5 0,0 0,0.1 0,0.1 0.3,2.2 2.4,3.2 3.9,4.1 z"
           id="path23"
           inkscape:connector-curvature="0" /><path
           d="m 463,516.9 c 0.9,2.1 3.8,2.9 6.5,1.8 2.7,-1.1 4.5,-3.9 3.9,-6 -0.6,-2.2 -3.7,-2.9 -6.7,-1.7 -3,1.2 -4.6,3.8 -3.7,5.9 z"
           id="path25"
           inkscape:connector-curvature="0" /><path
           d="m 460.4,513.6 c 2.9,-1.3 4.9,-3.5 4.2,-5.8 -0.7,-2.1 -3.9,-3.3 -7.1,-1.9 -3.2,1.3 -4.9,4 -4,6.1 0.9,2 4,2.8 6.9,1.6 z"
           id="path27"
           inkscape:connector-curvature="0" /><path
           d="m 457.6,504.3 c 3.3,-0.8 5.9,-2.7 5.6,-5.1 -0.3,-2.2 -3.5,-4 -7.1,-3 -3.6,0.8 -6.1,3.2 -5.5,5.4 0.5,2.2 3.6,3.4 7,2.7 z"
           id="path29"
           inkscape:connector-curvature="0" /><path
           d="m 464.5,495.9 c 3.6,0.1 6.7,-1.7 6.9,-3.9 0.3,-2.3 -2.6,-4.2 -6.4,-4.3 -3.9,-0.1 -7.1,1.7 -7.1,4 0,2.2 3,4.1 6.6,4.2 z"
           id="path31"
           inkscape:connector-curvature="0" /><path
           d="m 431.3,519.8 c 3.1,0.6 6.1,1.2 9,1.3 2.2,0 3.9,-1.7 3.2,-4.1 -0.7,-2.2 -2.2,-4 -3,-6.1 0,-0.1 0,-0.1 -0.1,-0.2 -0.7,-1.8 -1.1,-3.6 -1.7,-5.4 -0.4,-1.4 -1.2,-3.1 -3.2,-3.1 -1.4,0 -2.4,0.9 -3.3,1.9 -0.6,0.7 -1.2,1.5 -1.7,2.2 -1.4,2 -2.6,4 -3.7,6 -0.8,1.4 -1.7,3.7 -0.7,5.2 0,0 0,0 0,0.1 1.2,1.7 3.4,1.7 5.2,2.2 z"
           id="path33"
           inkscape:connector-curvature="0" /><path
           d="m 435.6,529.8 c 2.3,-1.9 3.1,-4.9 1.7,-6.7 -1.3,-1.8 -4.6,-1.8 -7,0.5 -2.3,2.3 -2.9,5.4 -1.3,7 1.6,1.7 4.5,1.3 6.6,-0.8 z"
           id="path35"
           inkscape:connector-curvature="0" /><path
           d="m 427.3,521.3 c -1.4,-1.8 -4.7,-1.5 -7.3,0.6 -2.6,2.1 -3.2,5.6 -1.6,7.1 1.6,1.7 4.5,1 7,-0.9 2.4,-1.9 3.2,-5 1.9,-6.8 z"
           id="path37"
           inkscape:connector-curvature="0" /><path
           d="m 419.5,520.5 c 3,-1.7 4.6,-4.6 3.5,-6.7 -1,-2 -4.5,-2.2 -7.7,-0.4 -3.3,1.7 -4.5,5.2 -3.3,7 1.3,2 4.5,1.7 7.5,0.1 z"
           id="path39"
           inkscape:connector-curvature="0" /><path
           d="m 423.1,510.2 c 3.4,-1.2 5.8,-3.6 5.3,-5.9 -0.5,-2.2 -3.9,-3.2 -7.6,-2.1 -3.6,1.3 -5.9,4.3 -5.2,6.4 0.7,2.2 4.1,2.9 7.5,1.6 z"
           id="path41"
           inkscape:connector-curvature="0" /><path
           d="m 400.2,544.1 c 3.1,-0.5 5.9,-1.2 8.9,-1.9 2.2,-0.6 3.1,-3 1.6,-4.9 -1.4,-1.8 -3.4,-3 -4.9,-4.7 -0.1,-0.1 -0.1,-0.2 -0.2,-0.2 -1.2,-1.4 -2.3,-3 -3.4,-4.5 -0.9,-1.2 -2.2,-2.5 -4,-1.8 -1.3,0.6 -2,1.6 -2.5,2.8 -0.4,0.9 -0.7,1.7 -0.9,2.6 -0.6,2.4 -1,4.7 -1.2,7 -0.2,1.7 -0.4,3.9 1,5.1 0,0 0,0 0,0.1 1.6,1.2 3.8,0.7 5.6,0.4 z"
           id="path43"
           inkscape:connector-curvature="0" /><path
           d="m 400.5,548 c -1.7,2.7 -0.9,6 1.1,7 1,0.5 2.1,0.4 3.2,-0.2 1.1,-0.5 2.2,-1.4 2.9,-2.7 1.4,-2.6 1.1,-5.8 -0.8,-7 -2,-1.3 -4.8,0.1 -6.4,2.9 z"
           id="path45"
           inkscape:connector-curvature="0" /><path
           d="m 397.4,554 c 1.5,-2.8 1.3,-6 -0.6,-7.2 -2,-1.3 -4.9,0.2 -6.6,3.1 -1.7,3 -1.3,6.2 0.7,7.2 2.1,1.1 5,-0.3 6.5,-3.1 z"
           id="path47"
           inkscape:connector-curvature="0" /><path
           d="m 382.9,543.5 c -2.3,2.9 -2.7,6.3 -0.9,7.6 1.8,1.3 5.1,0.3 7.2,-2.4 2.1,-2.7 2.5,-6 0.9,-7.5 -1.6,-1.6 -4.9,-0.6 -7.2,2.3 z"
           id="path49"
           inkscape:connector-curvature="0" /><path
           d="m 389.1,537.9 c 2.9,-2.2 4.1,-5.5 2.9,-7.4 -1.3,-1.9 -4.7,-1.6 -7.7,0.8 -1.5,1.2 -2.6,2.7 -3.1,4 -0.4,1.5 -0.3,2.8 0.4,3.7 1.4,1.7 4.6,1 7.5,-1.1 z"
           id="path51"
           inkscape:connector-curvature="0" /><path
           d="m 379.1,577.4 c 2.5,-1.6 5.5,-3 7.8,-4.8 1.8,-1.3 1.7,-3.9 -0.3,-5.2 -1.9,-1.2 -4.2,-1.6 -6.2,-2.7 -0.1,0 -0.1,-0.1 -0.2,-0.1 -1.7,-0.9 -3.2,-2.1 -4.8,-3.1 -1.3,-0.8 -2.9,-1.6 -4.3,-0.3 -1,1 -1.3,2.3 -1.3,3.6 0,0.9 0,1.9 0.1,2.8 0.2,2.4 0.4,4.7 1.1,7 0.4,1.7 1.1,3.8 2.7,4.5 0,0 0.1,0.1 0.1,0.1 1.9,0.4 3.8,-0.8 5.3,-1.8 z"
           id="path53"
           inkscape:connector-curvature="0" /><path
           d="m 385.7,576.1 c -1.1,-0.3 -2.3,0.1 -3.2,1 -0.9,0.9 -1.5,2.3 -1.7,3.9 -0.4,3.2 1.1,5.9 3.4,6.2 2.3,0.3 4.3,-1.8 4.7,-4.8 0.2,-3 -0.9,-5.7 -3.2,-6.3 z"
           id="path55"
           inkscape:connector-curvature="0" /><path
           d="m 379.8,587.7 c 0.7,-3 -0.6,-6 -2.8,-6.5 -2.2,-0.5 -4.7,1.8 -5.3,5.1 -0.4,3.4 1.1,6.3 3.4,6.5 2.3,0.4 4.4,-1.9 4.7,-5.1 z"
           id="path57"
           inkscape:connector-curvature="0" /><path
           d="m 362.6,582.8 c -1.1,3.5 -0.1,6.9 2,7.5 2.2,0.6 4.8,-1.5 5.7,-4.8 1.2,-3.2 0.6,-6.4 -1.5,-7.3 -2,-0.9 -4.8,1.2 -6.2,4.6 z"
           id="path59"
           inkscape:connector-curvature="0" /><path
           d="m 359.8,579.1 c 2,1.1 5,-0.5 6.9,-3.6 0.9,-1.6 1.3,-3.2 1.4,-4.6 0.1,-1.4 -0.3,-2.6 -1.2,-3.3 -1.7,-1.3 -5.3,0 -7.1,3.4 -2,3.2 -2,6.9 0,8.1 z"
           id="path61"
           inkscape:connector-curvature="0" /><path
           d="m 370.8,616.1 c 2,-2.4 3.9,-4.7 5.5,-7.2 1.3,-1.8 0.5,-4.2 -1.9,-4.8 -2.2,-0.5 -4.5,-0.1 -6.8,-0.4 -0.1,0 -0.2,0 -0.3,-0.1 -1.8,-0.3 -3.7,-0.8 -5.5,-1.3 -1.5,-0.4 -3.3,-0.5 -4.2,1.2 -0.6,1.2 -0.5,2.5 -0.2,3.8 0.3,0.9 0.8,1.8 1.2,2.6 1.1,2.2 2.3,4.2 3.5,6.2 0.9,1.4 2.2,3.3 4,3.3 0,0 0,0 0,0 2.2,-0.1 3.6,-1.9 4.7,-3.3 z"
           id="path63"
           inkscape:connector-curvature="0" /><path
           d="m 381.7,617.4 c -0.6,-2.9 -2.8,-5.1 -5.1,-4.8 -2.2,0.3 -3.6,3.1 -3,6.3 0.6,3.2 3.3,5.2 5.4,4.7 2.2,-0.6 3.1,-3.3 2.7,-6.2 z"
           id="path65"
           inkscape:connector-curvature="0" /><path
           d="m 370,620.3 c -2.2,0.3 -3.6,3.3 -2.9,6.6 0.6,3.4 2.9,5.6 5.2,5 2.2,-0.5 3.6,-3.4 2.9,-6.5 -0.7,-3 -3,-5.3 -5.2,-5.1 z"
           id="path67"
           inkscape:connector-curvature="0" /><path
           d="m 361.5,633.1 c 2.2,-0.2 4.1,-3.1 4,-6.5 0,-3.4 -1.9,-6.3 -4.2,-6.4 -2.3,-0.1 -4.1,2.8 -4.1,6.4 0.2,3.8 2,6.7 4.3,6.5 z"
           id="path69"
           inkscape:connector-curvature="0" /><path
           d="m 355.9,610.9 c -2.2,-0.7 -4.7,1.8 -5.5,5.6 -1,3.8 0.6,7.3 2.9,7.7 2.3,0.4 4.3,-2.2 5.1,-5.7 0.8,-3.6 -0.3,-6.9 -2.5,-7.6 z"
           id="path71"
           inkscape:connector-curvature="0" /><path
           d="m 376.1,655.2 c 1,-2.9 2.3,-5.8 2.9,-8.7 0.5,-2.2 -1.2,-4.1 -3.6,-3.8 -2.3,0.3 -4.3,1.5 -6.5,1.9 -0.1,0 -0.1,0 -0.2,0 -1.9,0.3 -3.8,0.5 -5.7,0.7 -1.5,0.2 -3.3,0.6 -3.5,2.5 -0.1,1.4 0.5,2.5 1.3,3.6 0.6,0.7 1.3,1.4 1.9,2 1.7,1.7 3.3,3.3 5.3,4.6 1.4,1 3.3,2.2 5,1.6 0,0 0.1,0 0.1,0 1.8,-0.5 2.5,-2.7 3,-4.4 z"
           id="path73"
           inkscape:connector-curvature="0" /><path
           d="m 380.4,649.9 c -2.1,1 -2.5,4.2 -0.7,6.9 1.8,2.7 4.7,3.8 6.6,2.6 1.9,-1.3 2.1,-4.2 0.5,-6.7 -1.8,-2.4 -4.3,-3.8 -6.4,-2.8 z"
           id="path75"
           inkscape:connector-curvature="0" /><path
           d="m 377,659.4 c -2,1 -2.4,4.4 -0.7,7.3 1.9,2.9 4.9,4.1 6.8,2.8 1.9,-1.3 2,-4.4 0.3,-7 -1.5,-2.6 -4.4,-4.1 -6.4,-3.1 z"
           id="path77"
           inkscape:connector-curvature="0" /><path
           d="m 368.8,662.4 c -2.2,0.7 -3,4 -1.9,7.6 1.5,3.4 4.4,5.4 6.4,4.5 2.1,-0.9 2.7,-4.2 1.3,-7.4 -1,-3.3 -3.6,-5.4 -5.8,-4.7 z"
           id="path79"
           inkscape:connector-curvature="0" /><path
           d="m 360.3,655.5 c -2.2,0.1 -4.1,3.4 -3.3,7.1 0.7,3.8 3.1,6.6 5.3,6.3 2.2,-0.4 3.5,-3.6 2.9,-7.2 -0.6,-3.6 -2.6,-6.3 -4.9,-6.2 z"
           id="path81"
           inkscape:connector-curvature="0" /><path
           d="m 394.6,690.1 c 0,-3.1 0,-6.2 -0.4,-9 -0.2,-2.3 -2.3,-3.6 -4.5,-2.5 -2,1.1 -3.5,2.9 -5.5,4 -0.1,0 -0.2,0.1 -0.2,0.1 -1.6,0.9 -3.3,1.7 -5,2.6 -1.3,0.7 -2.9,1.7 -2.5,3.6 0.3,1.3 1.2,2.3 2.3,3 0.8,0.5 1.7,0.9 2.5,1.2 2.2,1 4.4,1.8 6.6,2.5 1.6,0.5 3.8,1.1 5.2,-0.1 0,0 0,0 0,0 1.6,-1.3 1.5,-3.6 1.5,-5.4 z"
           id="path83"
           inkscape:connector-curvature="0" /><path
           d="m 398.5,690.5 c 2.6,1.9 5.8,1.9 7.2,0.1 0.7,-0.9 0.8,-2.1 0.4,-3.2 -0.4,-1.1 -1.2,-2.2 -2.3,-3.2 -2.3,-1.9 -5.4,-2.1 -7,-0.5 -1.6,1.6 -0.8,4.7 1.7,6.8 z"
           id="path85"
           inkscape:connector-curvature="0" /><path
           d="m 404,694.5 c -2.4,-2 -5.7,-2.3 -7.2,-0.7 -1.5,1.7 -0.6,4.8 2,7 2.5,2.3 5.9,2.3 7.3,0.5 0.7,-0.9 0.7,-2.1 0.4,-3.3 -0.5,-1.2 -1.3,-2.4 -2.5,-3.5 z"
           id="path87"
           inkscape:connector-curvature="0" /><path
           d="m 397.4,701.6 c -2.2,-2.6 -5.4,-3.6 -7.3,-2.2 -1.8,1.4 -1.4,4.8 1,7.6 1.2,1.4 2.6,2.4 3.9,2.8 1.4,0.3 2.7,0.1 3.5,-0.7 0.8,-0.8 1.1,-2 0.8,-3.3 -0.2,-1.3 -0.8,-2.9 -1.9,-4.2 z"
           id="path89"
           inkscape:connector-curvature="0" /><path
           d="m 379.8,695.8 c -2.1,0.9 -2.4,4.4 -0.6,7.8 0.8,1.7 2.1,3 3.5,3.7 1.3,0.7 2.7,0.9 3.7,0.3 2,-1.2 1.9,-4.5 0.2,-7.7 -1.7,-3.2 -4.6,-5 -6.8,-4.1 z"
           id="path91"
           inkscape:connector-curvature="0" /><path
           d="m 423.9,716.6 c -0.6,-1.4 -1.1,-2.9 -1.7,-4.2 -0.5,-1.5 -1.1,-2.9 -1.7,-4.2 -1,-2 -3.5,-2.5 -5.2,-0.7 -1.5,1.7 -2.3,3.9 -3.8,5.7 -0.1,0.1 -0.1,0.1 -0.2,0.2 -1.2,1.5 -2.6,2.8 -3.9,4.2 -1,1.1 -2.1,2.6 -1,4.2 0.8,1.1 2,1.7 3.2,2 0.9,0.2 1.9,0.3 2.7,0.4 2.3,0.3 4.8,0.2 7.1,0 1.7,-0.1 3.9,-0.3 4.8,-1.9 0,0 0.1,-0.1 0.1,-0.1 1.1,-1.8 0.2,-3.9 -0.4,-5.6 z"
           id="path93"
           inkscape:connector-curvature="0" /><path
           d="m 434.3,713.4 c 0.6,-2.1 -1,-4.6 -3.9,-5.5 -2.8,-0.9 -5.9,0 -6.8,2.1 -0.9,2.1 1,4.6 4,5.6 3.1,1 6.1,0 6.7,-2.2 z"
           id="path95"
           inkscape:connector-curvature="0" /><path
           d="m 434.2,717.7 c -3.1,-0.8 -6,-0.4 -6.9,1.7 -0.9,2.1 0.9,5 4.2,6 3.3,1.1 6.3,0.1 7,-2.1 0.5,-2.2 -1.3,-4.7 -4.3,-5.6 z"
           id="path97"
           inkscape:connector-curvature="0" /><path
           d="m 430.4,726.5 c -3.1,-1.5 -6.3,-1.6 -7.5,0.3 -1.2,1.8 0.2,5.3 3.5,6.9 3.3,1.7 6.7,1.5 7.7,-0.6 0.9,-2 -0.7,-5 -3.7,-6.6 z"
           id="path99"
           inkscape:connector-curvature="0" /><path
           d="m 411.9,727.1 c -1.7,1.6 -0.8,4.9 2.1,7.5 2.9,2.5 6.6,3.2 8,1.5 1.5,-1.7 0.4,-5.1 -2.3,-7.5 -2.7,-2.5 -6.2,-3 -7.8,-1.5 z"
           id="path101"
           inkscape:connector-curvature="0" /><path
           d="m 460.4,731.6 c -2,-2.4 -3.9,-4.8 -6.1,-6.8 -1.7,-1.4 -4.1,-1.1 -5,1.1 -0.9,2.1 -0.9,4.5 -1.6,6.6 0,0.1 -0.1,0.1 -0.1,0.2 -0.6,1.8 -1.5,3.5 -2.2,5.2 -0.6,1.4 -1.1,3.2 0.4,4.4 1.1,0.9 2.4,0.8 3.7,0.7 0.9,-0.1 1.9,-0.4 2.7,-0.6 2.3,-0.6 4.5,-1.4 6.7,-2.2 1.6,-0.6 3.6,-1.8 3.9,-3.5 0,0 0,0 0,-0.1 0.4,-2.1 -1.2,-3.5 -2.4,-5 z"
           id="path103"
           inkscape:connector-curvature="0" /><path
           d="m 469.2,724.8 c -0.1,-2.3 -2.6,-3.9 -5.6,-3.6 -2.9,0 -5.5,1.8 -5.6,4 -0.1,2.2 2.4,4.3 5.7,4.1 3.2,-0.2 5.6,-2.3 5.5,-4.5 z"
           id="path105"
           inkscape:connector-curvature="0" /><path
           d="m 470.5,728.9 c -3.1,0 -5.8,1.8 -5.9,4 -0.1,2.3 2.6,4.2 6,4.2 3.4,0.1 6,-2.2 5.8,-4.4 -0.2,-2.2 -2.8,-3.6 -5.9,-3.8 z"
           id="path107"
           inkscape:connector-curvature="0" /><path
           d="m 474.2,740.5 c -1,-0.8 -2.5,-1.4 -4.2,-1.8 -3.4,-0.6 -6.5,0.6 -7,2.9 -0.5,2.2 2,4.6 5.6,5.3 3.6,0.8 6.8,-1.1 7.1,-3.2 0.1,-1.3 -0.5,-2.4 -1.5,-3.2 z"
           id="path109"
           inkscape:connector-curvature="0" /><path
           d="m 460.6,744.2 c -3.4,-1.2 -6.8,-1 -7.8,1.1 -1,2 0.9,5 4.5,6.5 3.6,1.2 7.3,0.5 8.1,-1.6 0.8,-2.1 -1.4,-4.8 -4.8,-6 z"
           id="path111"
           inkscape:connector-curvature="0" /><path
           d="m 499.9,733 c -1.3,-0.7 -2.6,-1.5 -4,-2.1 -1.3,-0.8 -2.7,-1.5 -4,-2.1 -2,-0.9 -4.3,0.3 -4.4,2.8 -0.1,2.3 0.7,4.5 0.7,6.8 0,0.1 0,0.2 0,0.3 0,1.9 -0.2,3.8 -0.3,5.6 -0.1,1.5 0,3.4 1.9,3.9 1.3,0.4 2.6,0 3.7,-0.5 0.8,-0.4 1.6,-0.9 2.3,-1.4 2,-1.2 3.8,-3 5.5,-4.6 1.2,-1.2 2.8,-2.8 2.5,-4.5 0,0 0,-0.1 0,-0.1 -0.3,-2.2 -2.3,-3.2 -3.9,-4.1 z"
           id="path113"
           inkscape:connector-curvature="0" /><path
           d="m 505.8,723.8 c -0.9,-2.1 -3.8,-2.9 -6.5,-1.8 -2.7,1.1 -4.5,3.9 -3.9,6 0.6,2.2 3.7,2.9 6.7,1.7 3,-1.1 4.6,-3.7 3.7,-5.9 z"
           id="path115"
           inkscape:connector-curvature="0" /><path
           d="m 508.5,727.2 c -2.9,1.3 -4.9,3.5 -4.2,5.8 0.7,2.1 3.9,3.3 7.1,1.9 3.2,-1.3 4.9,-4 4,-6.1 -1,-2.1 -4,-2.8 -6.9,-1.6 z"
           id="path117"
           inkscape:connector-curvature="0" /><path
           d="m 511.3,736.4 c -3.3,0.8 -5.9,2.7 -5.6,5.1 0.3,2.2 3.5,4 7.1,3 3.6,-0.8 6.1,-3.2 5.5,-5.4 -0.5,-2.2 -3.7,-3.4 -7,-2.7 z"
           id="path119"
           inkscape:connector-curvature="0" /><path
           d="m 504.4,744.8 c -3.6,-0.1 -6.7,1.7 -6.9,3.9 -0.3,2.3 2.6,4.2 6.4,4.3 3.9,0.1 7.1,-1.7 7.1,-4 0,-2.2 -3,-4.1 -6.6,-4.2 z"
           id="path121"
           inkscape:connector-curvature="0" /><path
           d="m 537.5,721 c -3.1,-0.6 -6.1,-1.2 -9,-1.3 -2.2,0 -3.9,1.7 -3.2,4.1 0.7,2.2 2.2,4 3,6.1 0,0.1 0,0.1 0.1,0.2 0.7,1.8 1.1,3.6 1.7,5.4 0.4,1.4 1.2,3.1 3.2,3.1 1.4,0 2.4,-0.9 3.3,-1.9 0.6,-0.7 1.2,-1.5 1.7,-2.2 1.4,-2 2.6,-4 3.7,-6 0.8,-1.4 1.7,-3.7 0.7,-5.2 0,0 0,0 0,-0.1 -1.2,-1.7 -3.3,-1.8 -5.2,-2.2 z"
           id="path123"
           inkscape:connector-curvature="0" /><path
           d="m 533.3,711 c -2.3,1.9 -3.1,4.9 -1.7,6.7 1.3,1.8 4.6,1.8 7,-0.5 2.3,-2.3 2.9,-5.4 1.3,-7 -1.6,-1.7 -4.5,-1.3 -6.6,0.8 z"
           id="path125"
           inkscape:connector-curvature="0" /><path
           d="m 543.5,712.5 c -2.4,2 -3.3,5.1 -1.9,6.9 1.4,1.8 4.7,1.5 7.3,-0.6 2.6,-2.1 3.2,-5.6 1.6,-7.1 -1.6,-1.7 -4.5,-1 -7,0.8 z"
           id="path127"
           inkscape:connector-curvature="0" /><path
           d="m 549.4,720.3 c -3,1.7 -4.6,4.6 -3.5,6.7 1,2 4.5,2.2 7.7,0.4 3.3,-1.7 4.5,-5.2 3.3,-7 -1.4,-2 -4.5,-1.7 -7.5,-0.1 z"
           id="path129"
           inkscape:connector-curvature="0" /><path
           d="m 545.8,730.6 c -3.4,1.2 -5.8,3.6 -5.3,5.9 0.5,2.2 3.9,3.2 7.6,2.1 3.6,-1.3 5.9,-4.3 5.2,-6.4 -0.7,-2.3 -4.2,-2.9 -7.5,-1.6 z"
           id="path131"
           inkscape:connector-curvature="0" /><path
           d="m 568.7,696.7 c -3.1,0.5 -5.9,1.2 -8.9,1.9 -2.2,0.6 -3.1,3 -1.6,4.9 1.4,1.8 3.4,3 4.9,4.7 0.1,0.1 0.1,0.2 0.2,0.2 1.2,1.4 2.3,3 3.4,4.5 0.9,1.2 2.2,2.5 4,1.8 1.3,-0.6 2,-1.6 2.5,-2.8 0.4,-0.9 0.7,-1.7 0.9,-2.6 0.6,-2.4 1,-4.7 1.2,-7 0.2,-1.7 0.4,-3.9 -1,-5.1 0,0 0,0 0,-0.1 -1.6,-1.2 -3.9,-0.7 -5.6,-0.4 z"
           id="path133"
           inkscape:connector-curvature="0" /><path
           d="m 567.2,685.8 c -1,-0.5 -2.1,-0.4 -3.2,0.2 -1.1,0.5 -2.2,1.4 -2.9,2.7 -1.4,2.6 -1.1,5.8 0.8,7 1.9,1.2 4.7,-0.1 6.3,-2.9 1.8,-2.7 1,-6 -1,-7 z"
           id="path135"
           inkscape:connector-curvature="0" /><path
           d="m 577.9,683.6 c -2.1,-1 -4.9,0.3 -6.4,3.1 -1.5,2.8 -1.3,6 0.6,7.2 2,1.3 4.9,-0.2 6.6,-3.1 1.6,-3 1.2,-6.2 -0.8,-7.2 z"
           id="path137"
           inkscape:connector-curvature="0" /><path
           d="m 585.9,697.3 c 2.3,-2.9 2.7,-6.3 0.9,-7.6 -1.8,-1.3 -5.1,-0.3 -7.2,2.4 -2.1,2.7 -2.5,6 -0.9,7.5 1.6,1.5 4.9,0.5 7.2,-2.3 z"
           id="path139"
           inkscape:connector-curvature="0" /><path
           d="m 579.7,702.9 c -2.9,2.2 -4.1,5.5 -2.9,7.4 1.3,1.9 4.7,1.6 7.7,-0.8 1.5,-1.2 2.6,-2.7 3.1,-4 0.4,-1.5 0.3,-2.8 -0.4,-3.7 -1.3,-1.8 -4.5,-1 -7.5,1.1 z"
           id="path141"
           inkscape:connector-curvature="0" /><path
           d="m 589.8,663.3 c -2.5,1.6 -5.5,3 -7.8,4.8 -1.8,1.3 -1.7,3.9 0.3,5.2 1.9,1.2 4.2,1.6 6.2,2.7 0.1,0 0.1,0.1 0.2,0.1 1.7,0.9 3.2,2.1 4.8,3.1 1.3,0.8 2.9,1.6 4.3,0.3 1,-1 1.3,-2.3 1.3,-3.6 0,-0.9 0,-1.9 -0.1,-2.8 -0.2,-2.4 -0.4,-4.7 -1.1,-7 -0.4,-1.7 -1.1,-3.8 -2.7,-4.5 0,0 -0.1,-0.1 -0.1,-0.1 -2,-0.4 -3.8,0.9 -5.3,1.8 z"
           id="path143"
           inkscape:connector-curvature="0" /><path
           d="m 584.7,653.6 c -2.3,-0.3 -4.3,1.8 -4.7,4.8 -0.2,3 0.8,5.7 3.1,6.3 1.1,0.3 2.3,-0.1 3.2,-1 0.9,-0.9 1.5,-2.3 1.7,-3.9 0.5,-3.3 -1.1,-6 -3.3,-6.2 z"
           id="path145"
           inkscape:connector-curvature="0" /><path
           d="m 589,653 c -0.7,3 0.6,6 2.8,6.5 2.2,0.5 4.7,-1.8 5.3,-5.1 0.4,-3.4 -1.1,-6.3 -3.4,-6.5 -2.2,-0.3 -4.3,2 -4.7,5.1 z"
           id="path147"
           inkscape:connector-curvature="0" /><path
           d="m 606.2,657.9 c 1.1,-3.5 0.1,-6.9 -2,-7.5 -2.2,-0.6 -4.8,1.5 -5.7,4.8 -1.2,3.2 -0.6,6.4 1.5,7.3 2,0.9 4.9,-1.1 6.2,-4.6 z"
           id="path149"
           inkscape:connector-curvature="0" /><path
           d="m 609.1,661.7 c -2,-1.1 -5,0.5 -6.9,3.6 -0.9,1.6 -1.3,3.2 -1.4,4.6 -0.1,1.4 0.3,2.6 1.2,3.3 1.7,1.3 5.3,0 7.1,-3.4 1.9,-3.2 1.9,-7 0,-8.1 z"
           id="path151"
           inkscape:connector-curvature="0" /><path
           d="m 598,624.7 c -2,2.4 -3.9,4.7 -5.5,7.2 -1.3,1.8 -0.5,4.2 1.9,4.8 2.2,0.5 4.5,0.1 6.8,0.4 0.1,0 0.2,0 0.3,0.1 1.8,0.3 3.7,0.8 5.5,1.3 1.5,0.4 3.3,0.5 4.2,-1.2 0.6,-1.2 0.5,-2.5 0.2,-3.8 -0.3,-0.9 -0.8,-1.8 -1.2,-2.6 -1.1,-2.2 -2.3,-4.2 -3.5,-6.2 -0.9,-1.4 -2.2,-3.3 -4,-3.3 0,0 0,0 0,0 -2.1,0.1 -3.5,1.9 -4.7,3.3 z"
           id="path153"
           inkscape:connector-curvature="0" /><path
           d="m 587.2,623.4 c 0.6,2.9 2.8,5.1 5.1,4.8 2.2,-0.3 3.6,-3.1 3,-6.3 -0.6,-3.2 -3.3,-5.2 -5.4,-4.7 -2.2,0.6 -3.2,3.3 -2.7,6.2 z"
           id="path155"
           inkscape:connector-curvature="0" /><path
           d="m 598.9,620.4 c 2.2,-0.3 3.6,-3.3 2.9,-6.6 -0.6,-3.4 -2.9,-5.6 -5.2,-5 -2.2,0.5 -3.6,3.4 -2.9,6.5 0.6,3.1 2.9,5.4 5.2,5.1 z"
           id="path157"
           inkscape:connector-curvature="0" /><path
           d="m 607.3,607.6 c -2.2,0.2 -4.1,3.1 -4,6.5 0,3.4 1.9,6.3 4.2,6.4 2.3,0.1 4.1,-2.8 4.1,-6.4 -0.1,-3.8 -2,-6.6 -4.3,-6.5 z"
           id="path159"
           inkscape:connector-curvature="0" /><path
           d="m 613,629.8 c 2.2,0.7 4.7,-1.8 5.5,-5.6 1,-3.8 -0.6,-7.3 -2.9,-7.7 -2.3,-0.4 -4.3,2.2 -5.1,5.7 -0.8,3.7 0.3,7 2.5,7.6 z"
           id="path161"
           inkscape:connector-curvature="0" /><path
           d="m 592.7,585.6 c -1,2.9 -2.3,5.8 -2.9,8.7 -0.5,2.2 1.2,4.1 3.6,3.8 2.3,-0.3 4.3,-1.5 6.5,-1.9 0.1,0 0.1,0 0.2,0 1.9,-0.3 3.8,-0.5 5.7,-0.7 1.5,-0.2 3.3,-0.6 3.5,-2.5 0.1,-1.4 -0.5,-2.5 -1.3,-3.6 -0.6,-0.7 -1.3,-1.4 -1.9,-2 -1.7,-1.7 -3.3,-3.3 -5.3,-4.6 -1.4,-1 -3.3,-2.2 -5,-1.6 0,0 -0.1,0 -0.1,0 -1.8,0.5 -2.4,2.7 -3,4.4 z"
           id="path163"
           inkscape:connector-curvature="0" /><path
           d="m 582.5,581.4 c -1.9,1.3 -2.1,4.2 -0.5,6.7 1.8,2.4 4.3,3.9 6.4,2.8 2.1,-1 2.5,-4.2 0.7,-6.9 -1.7,-2.8 -4.7,-3.9 -6.6,-2.6 z"
           id="path165"
           inkscape:connector-curvature="0" /><path
           d="m 585.5,578.2 c 1.5,2.7 4.3,4.2 6.4,3.2 2,-1 2.4,-4.4 0.7,-7.3 -1.9,-2.9 -4.9,-4.1 -6.8,-2.8 -1.9,1.1 -2,4.2 -0.3,6.9 z"
           id="path167"
           inkscape:connector-curvature="0" /><path
           d="m 600,578.4 c 2.2,-0.7 3,-4 1.9,-7.6 -1.5,-3.4 -4.4,-5.4 -6.4,-4.5 -2.1,0.9 -2.7,4.2 -1.3,7.4 1.1,3.3 3.6,5.4 5.8,4.7 z"
           id="path169"
           inkscape:connector-curvature="0" /><path
           d="m 608.5,585.3 c 2.2,-0.1 4.1,-3.4 3.3,-7.1 -0.7,-3.8 -3.1,-6.6 -5.3,-6.3 -2.2,0.4 -3.5,3.6 -2.9,7.2 0.7,3.5 2.6,6.3 4.9,6.2 z"
           id="path171"
           inkscape:connector-curvature="0" /><path
           d="m 587.5,547.6 c -2.2,-1 -4.4,-1.8 -6.6,-2.5 -1.6,-0.5 -3.8,-1.1 -5.2,0.1 0,0 0,0 0,0 -1.5,1.4 -1.4,3.7 -1.5,5.5 0,3.1 0,6.2 0.4,9 0.2,2.3 2.3,3.6 4.5,2.5 2,-1.1 3.5,-2.9 5.5,-4 0.1,0 0.2,-0.1 0.2,-0.1 1.6,-0.9 3.3,-1.7 5,-2.6 1.3,-0.7 2.9,-1.7 2.5,-3.6 -0.3,-1.3 -1.2,-2.3 -2.3,-3 -0.8,-0.6 -1.6,-1 -2.5,-1.3 z"
           id="path173"
           inkscape:connector-curvature="0" /><path
           d="m 570.4,550.3 c -2.6,-1.9 -5.8,-1.9 -7.2,-0.1 -0.7,0.9 -0.8,2.1 -0.4,3.2 0.4,1.1 1.2,2.2 2.3,3.2 2.3,1.9 5.4,2.1 7,0.5 1.5,-1.7 0.7,-4.8 -1.7,-6.8 z"
           id="path175"
           inkscape:connector-curvature="0" /><path
           d="m 564.9,546.2 c 2.4,2 5.7,2.3 7.2,0.7 1.5,-1.7 0.6,-4.8 -2,-7 -2.5,-2.3 -5.9,-2.3 -7.2,-0.5 -0.7,0.9 -0.7,2.1 -0.4,3.3 0.4,1.2 1.2,2.5 2.4,3.5 z"
           id="path177"
           inkscape:connector-curvature="0" /><path
           d="m 571.5,539.1 c 2.2,2.6 5.4,3.6 7.3,2.2 1.8,-1.4 1.4,-4.8 -1,-7.6 -1.2,-1.4 -2.6,-2.4 -3.9,-2.8 -1.4,-0.3 -2.7,-0.1 -3.5,0.7 -0.8,0.8 -1.1,2 -0.8,3.3 0.1,1.4 0.8,2.9 1.9,4.2 z"
           id="path179"
           inkscape:connector-curvature="0" /><path
           d="m 582.3,540.8 c 1.6,3.2 4.6,5.1 6.7,4.2 2.1,-0.9 2.4,-4.4 0.6,-7.8 -0.8,-1.7 -2.1,-3 -3.5,-3.7 -1.3,-0.7 -2.7,-0.8 -3.7,-0.3 -1.9,1.1 -1.9,4.5 -0.1,7.6 z"
           id="path181"
           inkscape:connector-curvature="0" /><path
           d="m 545,524.1 c 0.6,1.4 1.1,2.9 1.7,4.2 0.5,1.5 1.1,2.9 1.7,4.2 1,2 3.5,2.5 5.2,0.7 1.5,-1.7 2.3,-3.9 3.8,-5.7 0.1,-0.1 0.1,-0.1 0.2,-0.2 1.2,-1.5 2.6,-2.8 3.9,-4.2 1,-1.1 2.1,-2.6 1,-4.2 -0.8,-1.1 -2,-1.7 -3.2,-2 -0.9,-0.2 -1.9,-0.3 -2.7,-0.4 -2.3,-0.3 -4.8,-0.2 -7.1,0 -1.7,0.1 -3.9,0.3 -4.8,1.9 0,0 -0.1,0.1 -0.1,0.1 -1.2,1.9 -0.3,4 0.4,5.6 z"
           id="path183"
           inkscape:connector-curvature="0" /><path
           d="m 534.5,527.4 c -0.6,2.1 1,4.6 3.9,5.5 2.8,0.9 5.9,0 6.8,-2.1 0.9,-2.1 -1,-4.6 -4,-5.6 -3.1,-1.1 -6,0 -6.7,2.2 z"
           id="path185"
           inkscape:connector-curvature="0" /><path
           d="m 534.7,523.1 c 3.1,0.8 6,0.4 6.9,-1.7 0.9,-2.1 -0.9,-5 -4.2,-6 -3.3,-1.1 -6.3,-0.1 -7,2.1 -0.6,2.1 1.3,4.7 4.3,5.6 z"
           id="path187"
           inkscape:connector-curvature="0" /><path
           d="m 538.5,514.2 c 3.1,1.5 6.3,1.6 7.5,-0.3 1.2,-1.8 -0.2,-5.3 -3.5,-6.9 -3.3,-1.7 -6.7,-1.5 -7.7,0.6 -1,2.1 0.7,5 3.7,6.6 z"
           id="path189"
           inkscape:connector-curvature="0" /><path
           d="m 557,513.7 c 1.7,-1.6 0.8,-4.9 -2.1,-7.5 -2.9,-2.5 -6.6,-3.2 -8,-1.5 -1.5,1.7 -0.4,5.1 2.3,7.5 2.6,2.4 6.1,3 7.8,1.5 z"
           id="path191"
           inkscape:connector-curvature="0" /><path
           d="m 508.4,509.2 c 2,2.4 3.9,4.8 6.1,6.8 1.7,1.4 4.1,1.1 5,-1.1 0.9,-2.1 0.9,-4.5 1.6,-6.6 0,-0.1 0.1,-0.1 0.1,-0.2 0.6,-1.8 1.5,-3.5 2.2,-5.2 0.6,-1.4 1.1,-3.2 -0.4,-4.4 -1.1,-0.9 -2.4,-0.8 -3.7,-0.7 -0.9,0.1 -1.9,0.4 -2.7,0.6 -2.3,0.6 -4.5,1.4 -6.7,2.2 -1.6,0.6 -3.6,1.8 -3.9,3.5 0,0 0,0 0,0.1 -0.3,2.1 1.3,3.5 2.4,5 z"
           id="path193"
           inkscape:connector-curvature="0" /><path
           d="m 499.7,516 c 0.1,2.3 2.6,3.9 5.6,3.6 2.9,0 5.5,-1.8 5.6,-4 0.1,-2.2 -2.4,-4.3 -5.7,-4.1 -3.2,0.2 -5.6,2.2 -5.5,4.5 z"
           id="path195"
           inkscape:connector-curvature="0" /><path
           d="m 504.3,507.8 c 0.1,-2.3 -2.6,-4.2 -6,-4.2 -3.4,-0.1 -6,2.2 -5.8,4.4 0.1,2.3 2.8,3.7 5.9,3.9 3.1,-0.1 5.8,-1.9 5.9,-4.1 z"
           id="path197"
           inkscape:connector-curvature="0" /><path
           d="m 494.7,500.3 c 1,0.8 2.5,1.4 4.2,1.8 3.4,0.6 6.5,-0.6 7,-2.9 0.5,-2.2 -2,-4.6 -5.6,-5.3 -3.6,-0.8 -6.8,1.1 -7.1,3.2 -0.1,1.3 0.5,2.4 1.5,3.2 z"
           id="path199"
           inkscape:connector-curvature="0" /><path
           d="m 508.2,496.5 c 3.4,1.2 6.8,1 7.8,-1.1 1,-2 -0.9,-5 -4.5,-6.5 -3.6,-1.2 -7.3,-0.5 -8.1,1.6 -0.7,2.2 1.5,4.9 4.8,6 z"
           id="path201"
           inkscape:connector-curvature="0" /></g></g></switch></svg>