<?xml version="1.0" encoding="utf-8"?>
<!-- Generator: Adobe Illustrator 21.1.0, SVG Export Plug-In . SVG Version: 6.00 Build 0)  -->
<svg version="1.1"
	 id="l93" xmlns:cc="http://creativecommons.org/ns#" xmlns:dc="http://purl.org/dc/elements/1.1/" xmlns:inkscape="http://www.inkscape.org/namespaces/inkscape" xmlns:rdf="http://www.w3.org/1999/02/22-rdf-syntax-ns#" xmlns:sodipodi="http://sodipodi.sourceforge.net/DTD/sodipodi-0.dtd" xmlns:svg="http://www.w3.org/2000/svg"
	 xmlns="http://www.w3.org/2000/svg" xmlns:xlink="http://www.w3.org/1999/xlink" x="0px" y="0px" viewBox="108.2000503540039 131.10000610351562 395.8000183105469 483.1000061035156"
	 style="enable-background:new 0 0 612 792;" xml:space="preserve" class="noFill">
<style type="text/css">
	#l93 .st0{fill:#FFFFFF;}
	#l93 .st1{fill:none;}
	#l93 .st2{fill:#10793E;}
	#l93 .st3{fill:#D0AC70;}
</style>
<sodipodi:namedview  bordercolor="#666666" borderopacity="1" gridtolerance="10" guidetolerance="10" id="namedview129" inkscape:current-layer="Layer_1" inkscape:cx="23.305085" inkscape:cy="500" inkscape:pageopacity="0" inkscape:pageshadow="2" inkscape:window-height="480" inkscape:window-maximized="0" inkscape:window-width="671" inkscape:window-x="0" inkscape:window-y="34" inkscape:zoom="0.236" objecttolerance="10" pagecolor="#ffffff" showgrid="false">
	</sodipodi:namedview>
<g id="g7">
	<g id="g9">
		<g id="g11">
			<g id="g13">
				<path id="polygon17" class="st0" d="M255.5,202L255.5,202L255.5,202z"/>
				<path id="path19" inkscape:connector-curvature="0" class="st0" d="M265.6,212.9L265.6,212.9L265.6,212.9c1.5,1,3.4,0.5,4.3-1
					l0,0l0,0c0.9-1.5,0.6-3.5-0.9-4.4l0,0l0,0c-1.4-0.9-3.4-0.5-4.3,1l0,0l0,0C263.8,209.9,264.2,211.9,265.6,212.9z"/>
				<path id="path21" inkscape:connector-curvature="0" class="st0" d="M280.8,222c1.5,0.8,3.5,0.2,4.3-1.4c0.9-1.6,0.3-3.5-1.2-4.3
					c-1.5-0.9-3.4-0.3-4.2,1.2C278.8,219.2,279.3,221.2,280.8,222L280.8,222z"/>
				<path id="path23" inkscape:connector-curvature="0" class="st0" d="M300.7,228.4c0.7-1.6,0.1-3.5-1.5-4.2l0,0l0,0
					c-1.5-0.7-3.4,0-4.2,1.6c-0.8,1.6-0.1,3.5,1.5,4.2l0,0l0,0C298.1,230.8,300,230.1,300.7,228.4z"/>
				<path id="path25" inkscape:connector-curvature="0" class="st0" d="M316.8,235.2c0.6-1.7-0.1-3.5-1.7-4.2l0,0l0,0
					c-1.6-0.6-3.4,0.2-4,1.8c-0.7,1.7,0.1,3.5,1.7,4.2l0,0l0,0C314.4,237.7,316.2,236.9,316.8,235.2z"/>
				<path id="path27" inkscape:connector-curvature="0" class="st0" d="M333.3,240.8c0.5-1.7-0.4-3.5-2-3.9
					c-1.6-0.6-3.4,0.4-3.9,2.1s0.3,3.5,2,4.1C331.1,243.5,332.8,242.5,333.3,240.8z"/>
				<path id="path29" inkscape:connector-curvature="0" class="st0" d="M346.4,247.7L346.4,247.7L346.4,247.7
					c1.7,0.4,3.4-0.7,3.8-2.4s-0.6-3.4-2.3-3.9l0,0l0,0c-1.7-0.4-3.4,0.7-3.8,2.4l0,0l0,0C343.7,245.6,344.8,247.3,346.4,247.7
					L346.4,247.7z"/>
				<path id="path31" inkscape:connector-curvature="0" class="st0" d="M363.7,251.3L363.7,251.3L363.7,251.3
					c1.7,0.3,3.3-0.9,3.6-2.6l0,0l0,0c0.3-1.8-0.9-3.4-2.5-3.7l0,0l0,0c-1.7-0.3-3.3,0.9-3.6,2.6S362,251,363.7,251.3z"/>
				<path id="path33" inkscape:connector-curvature="0" class="st0" d="M381.2,253.8c1.7,0.1,3.2-1.2,3.4-2.9
					c0.2-1.8-1.1-3.3-2.8-3.4c-1.7-0.2-3.2,1-3.4,2.8l0,0l0,0C378.3,252,379.5,253.6,381.2,253.8z"/>
				<path id="polygon35" class="st0" d="M176.3,435.5L176.3,435.5L176.3,435.5z"/>
				<polyline id="polyline37" class="st1" points="194.6,435.5 194.6,435.5 194.6,435.5 				"/>
				<path id="path39" inkscape:connector-curvature="0" class="st0" d="M215.7,431.1L215.7,431.1L215.7,431.1
					c-0.2-1.8-1.7-3.1-3.4-2.9l0,0l0,0c-1.8,0.1-3.1,1.7-2.9,3.5c0.1,1.8,1.7,3.1,3.4,2.9C214.5,434.5,215.9,432.9,215.7,431.1z"/>
				<path id="path41" inkscape:connector-curvature="0" class="st0" d="M233.6,429.1c-0.2-1.8-1.8-3-3.6-2.8l0,0l0,0
					c-1.7,0.2-3,1.8-2.8,3.6c0.2,1.8,1.8,3,3.6,2.8l0,0l0,0C232.7,432.5,233.9,430.9,233.6,429.1z"/>
				<path id="path43" inkscape:connector-curvature="0" class="st0" d="M251.4,426.1c-0.4-1.8-2-2.9-3.7-2.6l0,0l0,0
					c-1.7,0.3-2.9,2-2.6,3.7l0,0l0,0c0.3,1.8,2,2.9,3.7,2.6l0,0l0,0C250.6,429.6,251.8,427.9,251.4,426.1z"/>
				<path id="path45" inkscape:connector-curvature="0" class="st0" d="M266.7,426.1L266.7,426.1L266.7,426.1
					c1.8-0.4,2.8-2.1,2.4-3.9l0,0l0,0c-0.4-1.7-2.1-2.8-3.9-2.4l0,0l0,0c-1.7,0.4-2.8,2.1-2.4,3.9l0,0l0,0
					C263.2,425.5,265,426.6,266.7,426.1z"/>
				<path id="path47" inkscape:connector-curvature="0" class="st0" d="M284.3,421.6c1.7-0.5,2.7-2.3,2.2-4s-2.3-2.7-4-2.2l0,0l0,0
					c-1.7,0.5-2.7,2.3-2.2,4l0,0l0,0C280.8,421.1,282.6,422,284.3,421.6z"/>
				<path id="path49" inkscape:connector-curvature="0" class="st0" d="M299.5,410L299.5,410L299.5,410c-1.7,0.6-2.6,2.4-2,4.1
					s2.4,2.6,4.1,2l0,0l0,0c1.7-0.6,2.6-2.4,2-4.1l0,0l0,0C303,410.3,301.3,409.4,299.5,410L299.5,410z"/>
				<path id="path51" inkscape:connector-curvature="0" class="st0" d="M318.8,409.7L318.8,409.7L318.8,409.7
					c1.7-0.7,2.4-2.6,1.8-4.2l0,0l0,0c-0.7-1.7-2.6-2.4-4.2-1.8l0,0l0,0c-1.7,0.7-2.4,2.5-1.8,4.2l0,0l0,0
					C315.2,409.6,317,410.4,318.8,409.7L318.8,409.7z"/>
				<path id="path53" inkscape:connector-curvature="0" class="st0" d="M335.5,402.5L335.5,402.5L335.5,402.5
					c1.7-0.7,2.3-2.6,1.6-4.3c-0.7-1.6-2.7-2.3-4.3-1.6l0,0l0,0c-1.6,0.7-2.3,2.6-1.6,4.3l0,0l0,0
					C331.9,402.6,333.8,403.3,335.5,402.5z"/>
				<path id="path55" inkscape:connector-curvature="0" class="st0" d="M353.2,390.2c-0.9-1.6-2.8-2.2-4.3-1.3l0,0l0,0
					c-1.5,0.8-2.1,2.8-1.3,4.3s2.8,2.2,4.3,1.3l0,0l0,0C353.4,393.7,354,391.8,353.2,390.2z"/>
				<path id="path57" inkscape:connector-curvature="0" class="st0" d="M368.9,381.3L368.9,381.3L368.9,381.3
					c-0.9-1.5-2.9-2-4.4-1.2l0,0l0,0c-1.5,0.9-2,2.9-1.2,4.4l0,0l0,0c0.9,1.5,2.9,2.1,4.4,1.2l0,0l0,0
					C369.3,384.8,369.8,382.8,368.9,381.3z"/>
				<path id="path59" inkscape:connector-curvature="0" class="st0" d="M384.1,371.6L384.1,371.6L384.1,371.6c-1-1.5-3-1.9-4.5-0.9
					l0,0l0,0c-1.5,1-1.9,2.9-0.9,4.5c1,1.5,2.9,1.9,4.5,0.9l0,0l0,0C384.7,375.1,385.1,373.1,384.1,371.6z"/>
				<path id="path61" inkscape:connector-curvature="0" class="st0" d="M398.8,361.2c-1-1.4-3.1-1.7-4.5-0.7l0,0l0,0
					c-1.4,1-1.7,3.1-0.7,4.5c1,1.5,3.1,1.8,4.5,0.7l0,0l0,0C399.6,364.6,399.9,362.6,398.8,361.2z"/>
				<path id="polygon63" class="st0" d="M408.5,349.5L408.5,349.5L408.5,349.5z"/>
				<path id="polygon65" class="st0" d="M412.5,354.5L412.5,354.5L412.5,354.5z"/>
				<path id="path67" inkscape:connector-curvature="0" class="st0" d="M408,354.1L408,354.1L408,354.1c1,1.2,2.8,1.5,4.1,0.7
					l-3.7-5.3C407.1,350.6,406.9,352.6,408,354.1z"/>
				<path id="path69" inkscape:connector-curvature="0" class="st0" d="M231.4,310.3c0.1-0.2,0.1-0.6,0-0.8l-2.3,3.3
					C230.3,312.4,231.2,311.5,231.4,310.3z"/>
				<path id="path71" inkscape:connector-curvature="0" class="st0" d="M242.9,312c-0.2,1.8,1,3.4,2.8,3.6l0,0l0,0
					c1.8,0.2,3.4-1,3.6-2.8l0,0l0,0c0.2-1.8-1-3.4-2.8-3.6l0,0l0,0C244.8,309,243.2,310.3,242.9,312z"/>
				<path id="path73" inkscape:connector-curvature="0" class="st0" d="M263.8,317.5L263.8,317.5L263.8,317.5
					c1.8,0.1,3.3-1.2,3.4-2.9l0,0l0,0c0.1-1.8-1.2-3.3-2.9-3.5l0,0l0,0c-1.8-0.1-3.3,1.2-3.4,2.9l0,0l0,0
					C260.7,315.8,262,317.3,263.8,317.5z"/>
				<path id="path75" inkscape:connector-curvature="0" class="st0" d="M285.3,315.3c0-1.8-1.3-3.2-3.1-3.3l0,0l0,0
					c-1.8-0.1-3.2,1.3-3.3,3.1l0,0l0,0c-0.1,1.8,1.3,3.2,3.1,3.3l0,0l0,0C283.8,318.5,285.3,317.1,285.3,315.3z"/>
				<path id="path77" inkscape:connector-curvature="0" class="st0" d="M300,312.1L300,312.1L300,312.1c-1.8,0.1-3.2,1.5-3.1,3.3
					c0,1.8,1.5,3.2,3.3,3.1l0,0l0,0c1.8-0.1,3.2-1.5,3.1-3.3l0,0l0,0C303.3,313.4,301.8,312,300,312.1z"/>
				<path id="path79" inkscape:connector-curvature="0" class="st0" d="M321.3,314.2c-0.1-1.8-1.7-3.1-3.4-3l0,0l0,0
					c-1.8,0.1-3.1,1.7-2.9,3.4l0,0l0,0c0.1,1.8,1.7,3.1,3.4,3l0,0l0,0C320.2,317.5,321.5,315.9,321.3,314.2z"/>
				<path id="path81" inkscape:connector-curvature="0" class="st0" d="M332.9,313.1c0.2,1.8,1.8,3,3.6,2.8l0,0l0,0
					c1.8-0.2,3-1.8,2.8-3.6c-0.2-1.8-1.8-3-3.6-2.8l0,0l0,0C334,309.7,332.7,311.3,332.9,313.1z"/>
				<path id="path83" inkscape:connector-curvature="0" class="st0" d="M350.8,310.5L350.8,310.5L350.8,310.5c0.3,1.8,2,2.9,3.7,2.6
					l0,0l0,0c1.8-0.3,2.9-2,2.6-3.7l0,0l0,0c-0.3-1.8-2-2.9-3.7-2.6l0,0l0,0C351.7,307.1,350.5,308.8,350.8,310.5z"/>
				<path id="path85" inkscape:connector-curvature="0" class="st0" d="M368.5,307.1c0.4,1.7,2.1,2.8,3.9,2.4l0,0l0,0
					c1.8-0.4,2.8-2.1,2.4-3.9c-0.4-1.7-2.1-2.8-3.9-2.4l0,0l0,0C369.2,303.6,368.1,305.3,368.5,307.1z"/>
				<path id="path87" inkscape:connector-curvature="0" class="st0" d="M193.1,462.1L193.1,462.1L193.1,462.1
					c-1.5-0.9-3.5-0.5-4.5,1c-1,1.5-0.6,3.4,0.9,4.4l0,0l0,0c1.5,0.9,3.5,0.5,4.5-1C194.9,465,194.5,463.1,193.1,462.1z"/>
				<path id="path89" inkscape:connector-curvature="0" class="st0" d="M208.1,471.6L208.1,471.6C208,471.5,208,471.5,208.1,471.6
					c-1.5-0.9-3.4-0.4-4.3,1l0,0l0,0c-0.9,1.5-0.4,3.5,1,4.5c1.5,1,3.5,0.4,4.3-1.1l0,0l0,0C210,474.4,209.5,472.5,208.1,471.6z"/>
				<path id="path91" inkscape:connector-curvature="0" class="st0" d="M223.5,480.3L223.5,480.3L223.5,480.3
					c-1.5-0.9-3.4-0.2-4.3,1.3l0,0l0,0c-0.9,1.5-0.3,3.5,1.2,4.3l0,0l0,0c1.5,0.9,3.5,0.3,4.3-1.3
					C225.6,483.1,225.1,481.1,223.5,480.3z"/>
				<path id="path93" inkscape:connector-curvature="0" class="st0" d="M240.7,492.7c0.8-1.6,0.1-3.5-1.4-4.3l0,0l0,0
					c-1.6-0.8-3.5-0.1-4.3,1.5l0,0l0,0c-0.8,1.6-0.2,3.5,1.4,4.3l0,0l0,0C238,495,239.9,494.3,240.7,492.7z"/>
				<path id="path95" inkscape:connector-curvature="0" class="st0" d="M256.9,500.2c0.7-1.7,0-3.5-1.6-4.2
					c-1.6-0.7-3.5,0.1-4.2,1.7c-0.7,1.6,0,3.5,1.6,4.2l0,0l0,0C254.3,502.6,256.2,501.9,256.9,500.2z"/>
				<path id="path97" inkscape:connector-curvature="0" class="st0" d="M271.6,503c-1.6-0.7-3.4,0.1-4.1,1.7
					c-0.7,1.7,0.1,3.5,1.7,4.2c1.6,0.7,3.5-0.2,4.2-1.8C274.1,505.5,273.2,503.8,271.6,503L271.6,503L271.6,503L271.6,503z"/>
				<path id="path99" inkscape:connector-curvature="0" class="st0" d="M290.2,513.4c0.6-1.7-0.2-3.5-1.9-4.2s-3.4,0.2-4,2
					c-0.6,1.7,0.2,3.5,1.9,4.2l0,0l0,0C287.8,515.9,289.6,515.1,290.2,513.4z"/>
				<path id="path101" inkscape:connector-curvature="0" class="st0" d="M301.1,517L301.1,517L301.1,517c-0.6,1.7,0.4,3.5,2.1,4
					s3.5-0.4,4-2.1c0.6-1.7-0.4-3.5-2.1-4l0,0l0,0C303.5,514.3,301.7,515.3,301.1,517z"/>
				<path id="path103" inkscape:connector-curvature="0" class="st0" d="M324.3,523.8c0.4-1.7-0.6-3.5-2.2-3.9l0,0l0,0
					c-1.7-0.4-3.4,0.6-3.9,2.3c-0.5,1.7,0.5,3.5,2.2,3.9S323.9,525.5,324.3,523.8z"/>
				<path id="path105" inkscape:connector-curvature="0" class="st0" d="M339.3,524.4c-1.7-0.4-3.4,0.6-3.8,2.3
					c-0.4,1.7,0.6,3.5,2.3,3.9c1.7,0.4,3.4-0.7,3.9-2.5C342.1,526.5,341,524.7,339.3,524.4L339.3,524.4z"/>
				<path id="path107" inkscape:connector-curvature="0" class="st0" d="M356.7,528L356.7,528L356.7,528c-1.7-0.4-3.4,0.8-3.7,2.5
					c-0.4,1.8,0.8,3.4,2.5,3.8l0,0l0,0c1.7,0.4,3.4-0.8,3.7-2.5C359.5,530.1,358.4,528.4,356.7,528z"/>
				<path id="path109" inkscape:connector-curvature="0" class="st0" d="M374.2,531c-1.7-0.2-3.4,0.9-3.6,2.7l0,0l0,0
					c-0.3,1.8,0.9,3.4,2.6,3.7c1.8,0.2,3.4-0.9,3.6-2.7l0,0l0,0C377.1,532.9,375.9,531.3,374.2,531z"/>
				<path id="path111" inkscape:connector-curvature="0" class="st0" d="M391.8,533.4L391.8,533.4L391.8,533.4
					c-1.7-0.2-3.3,1.1-3.5,2.9l0,0l0,0c-0.2,1.8,1,3.4,2.8,3.5l0,0l0,0c1.8,0.2,3.4-1.1,3.5-2.9l0,0l0,0
					C394.8,535.2,393.5,533.6,391.8,533.4z"/>
				<path id="path113" inkscape:connector-curvature="0" class="st0" d="M409.5,535.2L409.5,535.2L409.5,535.2
					c-1.8-0.1-3.2,1.2-3.4,2.9c-0.1,1.8,1.2,3.4,2.9,3.5c1.8,0.1,3.3-1.3,3.4-3.1C412.5,536.9,411.2,535.3,409.5,535.2z"/>
				<path id="path115" inkscape:connector-curvature="0" class="st0" d="M427.2,536.2L427.2,536.2L427.2,536.2
					c-1.7-0.1-3.2,1.3-3.3,3.1l0,0l0,0c-0.1,1.8,1.3,3.3,3.1,3.4l0,0l0,0c1.8,0.1,3.2-1.3,3.3-3.1
					C430.3,537.8,428.9,536.3,427.2,536.2z"/>
				<path id="path117" inkscape:connector-curvature="0" class="st0" d="M448.1,539.7c0-1.8-1.5-3.2-3.2-3.2s-3.2,1.4-3.2,3.2
					c0,1.8,1.4,3.2,3.2,3.2l0,0l0,0C446.7,542.9,448.1,541.5,448.1,539.7z"/>
				<path id="path119" inkscape:connector-curvature="0" class="st0" d="M466,539.2c-0.1-1.8-1.6-3.1-3.3-3.1
					c-1.7,0.1-3.1,1.6-3.1,3.4c0.1,1.8,1.5,3.1,3.3,3.1l0,0l0,0C464.7,542.5,466.1,541,466,539.2z"/>
				<path id="path121" inkscape:connector-curvature="0" class="st0" d="M480.9,541.6c1.8-0.2,3.1-1.8,2.9-3.5
					c-0.2-1.8-1.7-3.1-3.4-2.9c0,0,0,0-0.1,0c0,0,0,0-0.1,0c-1.7,0.2-3,1.7-2.9,3.5C477.6,540.4,479.2,541.8,480.9,541.6z"/>
			</g>
			<g id="g123">
				<g>
					<path class="st2" d="M408.2,425h52.6l-29.9-43l-65.3,47.4l36.8,113.3l-7.8-5.7c-0.2,1.7-1.8,3-3.5,2.8c-1.8-0.2-3-1.8-2.8-3.5
						c0.2-1.2,0.9-2.1,1.8-2.6l-83-60.4l-1-0.7l-96.4,70.1l36.8-113.3l-65.3-47.5l-29.9,43h52.6l-6.1,8.8l-1.2,1.7l-88.4,127.3
						h165.7v51.5h64.4v-51.5h165.7L408.2,425z M194,466.5c-1,1.5-2.9,2-4.5,1c-1.5-0.9-1.9-2.9-0.9-4.4c1-1.5,3-2,4.5-1
						C194.5,463,195,465,194,466.5z M230,426.3c1.7-0.2,3.4,1,3.6,2.8c0.2,1.8-1,3.4-2.8,3.6c-1.8,0.2-3.4-1-3.6-2.8
						C227.1,428.2,228.3,426.6,230,426.3z M219.2,481.6c0.9-1.5,2.8-2.1,4.3-1.3c1.5,0.9,2.1,2.8,1.2,4.3c-0.9,1.5-2.8,2.1-4.3,1.3
						C218.9,485.1,218.4,483.1,219.2,481.6z M212.3,428.1c1.8-0.1,3.3,1.2,3.4,2.9c0.2,1.8-1.2,3.3-2.9,3.5s-3.4-1.2-3.4-2.9
						C209.2,429.8,210.6,428.3,212.3,428.1z M209.2,476c-0.9,1.5-2.9,2.1-4.3,1.1c-1.5-0.9-2-2.9-1-4.5c0.9-1.5,2.8-2,4.3-1.1
						c0,0,0,0,0.1,0C209.5,472.5,210,474.4,209.2,476z M273.4,507.2c-0.6,1.7-2.6,2.6-4.2,1.8c-1.7-0.7-2.4-2.6-1.7-4.2
						c0.7-1.7,2.5-2.4,4.1-1.7C273.2,503.8,274.1,505.5,273.4,507.2z M290.1,513.4c-0.6,1.7-2.3,2.6-4,2c-1.7-0.6-2.5-2.4-1.9-4.2
						c0.6-1.7,2.4-2.5,4-2C289.9,509.8,290.7,511.6,290.1,513.4z M307.2,518.9c-0.6,1.7-2.3,2.6-4,2.1c-1.7-0.6-2.6-2.3-2.1-4
						c0.6-1.7,2.3-2.7,4-2.1C306.8,515.4,307.7,517.2,307.2,518.9z M324.3,523.8c-0.4,1.7-2.2,2.8-3.9,2.3c-1.7-0.4-2.7-2.2-2.2-3.9
						c0.5-1.7,2.3-2.8,3.9-2.3C323.8,520.3,324.8,522.1,324.3,523.8z M341.7,528.2c-0.4,1.7-2.1,2.8-3.9,2.4h0
						c-1.7-0.4-2.8-2.2-2.3-3.9s2.1-2.8,3.8-2.3C341,524.8,342.1,526.5,341.7,528.2z M359.2,531.8c-0.3,1.7-2,2.9-3.7,2.5
						c-1.7-0.4-2.9-2.1-2.5-3.8c0.4-1.7,2-2.9,3.7-2.5C358.4,528.4,359.5,530.1,359.2,531.8z M376.8,534.7c-0.2,1.8-1.9,2.9-3.6,2.7
						c-1.8-0.2-2.9-1.9-2.6-3.7c0.3-1.8,1.9-2.9,3.6-2.7S377.1,532.9,376.8,534.7z M409,541.6c-1.8-0.1-3.1-1.7-2.9-3.5
						c0.2-1.8,1.7-3,3.4-2.9c1.7,0.1,3.1,1.6,2.9,3.4C412.3,540.4,410.7,541.8,409,541.6z M427,542.6c-1.8-0.1-3.1-1.6-3.1-3.4
						c0.1-1.8,1.5-3.1,3.3-3.1c1.7,0.1,3.1,1.6,3.1,3.4C430.2,541.4,428.7,542.7,427,542.6z M445,542.9c-1.8,0-3.2-1.5-3.2-3.2
						c0-1.8,1.4-3.2,3.2-3.2c1.7,0,3.2,1.5,3.2,3.2C448.1,541.5,446.7,542.9,445,542.9z M462.9,542.6c-1.8,0.1-3.2-1.3-3.3-3.1
						c-0.1-1.8,1.3-3.3,3.1-3.4c1.7-0.1,3.2,1.3,3.3,3.1C466.1,541,464.7,542.5,462.9,542.6z M480.9,541.6c-1.8,0.2-3.3-1.2-3.4-2.9
						c-0.1-1.7,1.2-3.2,2.9-3.5c0.1,0,0.1,0,0.1,0c1.7-0.1,3.2,1.2,3.4,2.9C484,539.8,482.7,541.4,480.9,541.6z"/>
					<path class="st2" d="M231.6,309.3l-0.1,0.2c0,0.2,0,0.5,0,0.8c-0.2,1.2-1.1,2.2-2.3,2.5l-0.2,0.3l-32.1,46.3h72.4l13.3-40.9
						c-0.2,0-0.4,0-0.6,0c-1.8-0.1-3.2-1.5-3.1-3.3c0.1-1.8,1.5-3.2,3.3-3.1c0.8,0,1.6,0.4,2.1,0.9L306,246l36.8,113.3h72.3
						l-3.1-4.5v-0.1c-1.3,0.8-3.1,0.5-4.1-0.7c-1.1-1.4-0.9-3.4,0.4-4.5l-36.9-53.1h49.3L306,131.1L191.2,296.4h49.3L231.6,309.3z
						 M378.5,250.2c0.2-1.8,1.7-3,3.4-2.8c1.7,0.1,2.9,1.7,2.8,3.4s-1.7,3.1-3.4,2.9C379.5,253.6,378.3,252,378.5,250.2z
						 M370.9,303.2c1.7-0.4,3.4,0.7,3.9,2.4c0.4,1.7-0.7,3.5-2.4,3.9c-1.8,0.4-3.5-0.7-3.9-2.4C368.1,305.3,369.2,303.6,370.9,303.2
						z M361.2,247.6c0.3-1.8,2-2.9,3.6-2.6c1.7,0.3,2.8,2,2.5,3.7c-0.3,1.8-1.9,2.9-3.6,2.6C362,251.1,360.9,249.4,361.2,247.6z
						 M353.4,306.7c1.7-0.3,3.4,0.9,3.7,2.6c0.3,1.8-0.9,3.4-2.6,3.7c-1.8,0.3-3.4-0.9-3.7-2.6C350.5,308.8,351.7,307.1,353.4,306.7
						z M344.2,243.9c0.4-1.7,2.1-2.8,3.8-2.4c1.7,0.4,2.6,2.1,2.3,3.9c-0.4,1.7-2.1,2.8-3.8,2.4
						C344.8,247.3,343.7,245.6,344.2,243.9z M335.7,309.4c1.7-0.2,3.4,1,3.6,2.8c0.2,1.8-1,3.4-2.8,3.6c-1.8,0.2-3.4-1-3.6-2.8
						C332.7,311.3,334,309.7,335.7,309.4z M327.5,238.9c0.6-1.7,2.3-2.6,3.9-2.1c1.7,0.5,2.5,2.2,2,3.9c-0.5,1.7-2.3,2.7-4,2.2
						C327.8,242.4,326.9,240.6,327.5,238.9z M311,232.9c0.7-1.7,2.5-2.4,4-1.8c1.6,0.6,2.3,2.5,1.7,4.2s-2.4,2.5-4,1.8
						C311.2,236.4,310.4,234.5,311,232.9z M295.1,225.8c0.8-1.6,2.6-2.3,4.2-1.6c1.5,0.7,2.2,2.6,1.5,4.2c-0.7,1.6-2.6,2.3-4.2,1.6
						C295,229.3,294.3,227.4,295.1,225.8z M279.6,217.7c0.9-1.6,2.8-2.1,4.3-1.3v0c1.5,0.8,2,2.7,1.2,4.3c-0.9,1.6-2.8,2.2-4.3,1.4
						C279.2,221.3,278.7,219.2,279.6,217.7z M264.8,208.5c1-1.5,2.9-2,4.3-1c1.4,0.9,1.8,2.9,0.9,4.4c-0.9,1.5-2.9,2-4.3,1
						C264.2,211.9,263.8,209.9,264.8,208.5z M264.3,311.1c1.8,0.1,3.1,1.7,2.9,3.5c-0.1,1.8-1.7,3.1-3.4,2.9
						c-1.8-0.2-3.1-1.7-2.9-3.5C261,312.3,262.6,310.9,264.3,311.1z M242.9,312.1c0.2-1.8,1.8-3.1,3.6-2.8c1.7,0.2,3,1.8,2.8,3.6
						c-0.2,1.8-1.8,3-3.6,2.8C243.9,315.4,242.7,313.8,242.9,312.1z"/>
				</g>
				<path id="path127" inkscape:connector-curvature="0" class="st3" d="M471.9,356.1H345.2L306,235.6l-39.2,120.5H140.2l102.5,74.5
					l-39.2,120.6L306,476.7l102.5,74.5l-39.2-120.6L471.9,356.1L471.9,356.1z M307,473.3l-0.9-0.7l-96.5,70.1l36.8-113.3l-96.4-70.1
					h119.2L306.1,246l36.8,113.3h119.2l-96.5,70.1l36.8,113.3L307,473.3z"/>
			</g>
		</g>
	</g>
</g>
</svg>
