<?xml version="1.0" encoding="utf-8"?>
<!-- Generator: Adobe Illustrator 21.1.0, SVG Export Plug-In . SVG Version: 6.00 Build 0)  -->
<svg version="1.1"
	 id="l94" xmlns:cc="http://creativecommons.org/ns#" xmlns:dc="http://purl.org/dc/elements/1.1/" xmlns:inkscape="http://www.inkscape.org/namespaces/inkscape" xmlns:rdf="http://www.w3.org/1999/02/22-rdf-syntax-ns#" xmlns:sodipodi="http://sodipodi.sourceforge.net/DTD/sodipodi-0.dtd" xmlns:svg="http://www.w3.org/2000/svg"
	 xmlns="http://www.w3.org/2000/svg" xmlns:xlink="http://www.w3.org/1999/xlink" x="0px" y="0px" viewBox="129.3623504638672 210.33993530273438 353.56787109375 319.4300842285156"
	 style="enable-background:new 0 0 612 792;" xml:space="preserve">
<style type="text/css">
	#l94 .st0{fill:#FFFFFF;}
	#l94 .st1{fill:#F70000;}
	#l94 .st2{fill:#D0AC70;}
</style>
<sodipodi:namedview  bordercolor="#666666" borderopacity="1" gridtolerance="10" guidetolerance="10" id="namedview45" inkscape:current-layer="Layer_1" inkscape:cx="23.305085" inkscape:cy="500" inkscape:pageopacity="0" inkscape:pageshadow="2" inkscape:window-height="480" inkscape:window-maximized="0" inkscape:window-width="671" inkscape:window-x="0" inkscape:window-y="34" inkscape:zoom="0.236" objecttolerance="10" pagecolor="#ffffff" showgrid="false">
	</sodipodi:namedview>
<g id="g7">
	<g id="g9">
		<g id="g11">
			<path id="path15" inkscape:connector-curvature="0" class="st0" d="M390.4,470.3c-5.6-11.3-9.4-16.6-11.6-16
				c-0.7,0.2-1.2,0.9-1.5,2.2c-2.7,2.5-6.6,6.5-9.9,12.3c-1.4,2.4-2.2,4.3-2.7,5.3c-2.1,4.8-5.6,12.1-11.6,22.9
				c0.3,0.6,0.7,1.3,1,1.9c0.1,0.1,0.1,0.2,0.1,0.3c0.4,0.8,0.8,1.6,1.2,2.4c0.1,0.3,0.3,0.6,0.5,0.9c0.3,0.6,0.6,1.2,0.9,1.8
				c0.2,0.4,0.4,0.7,0.6,1.1c0.3,0.5,0.6,1,0.9,1.5c0.2,0.4,0.4,0.7,0.6,1.1c0.3,0.5,0.6,1,0.9,1.5c0.2,0.4,0.4,0.7,0.6,1
				c0.4,0.7,0.9,1.5,1.4,2.2c0.2,0.3,0.4,0.6,0.6,0.9c0.4,0.5,0.7,1,1,1.5c0.2,0.3,0.5,0.6,0.7,1c0.3,0.4,0.6,0.8,0.9,1.2
				c0.2,0.3,0.6,0.6,0.8,0.9c0.3,0.4,0.6,0.7,1,1c0.3,0.3,0.6,0.6,0.9,0.9c0.4,0.4,0.8,0.7,1.2,1c0.4,0.4,0.8,0.7,1.2,1
				c0.4,0.3,0.9,0.6,1.3,0.9c0.3,0.2,0.7,0.4,1,0.6c0.4,0.2,0.7,0.4,1.2,0.6c0.4,0.2,0.7,0.3,1,0.4c0.4,0.1,0.8,0.3,1.2,0.4
				c0.4,0.1,0.7,0.2,1.1,0.3c0.5,0.1,1,0.2,1.5,0.2c0.3,0.1,0.7,0.1,1,0.1c0.7,0.1,1.4,0.1,2.1,0c0.1,0,0.1,0,0.2,0
				c2.3-4.4,4.4-8.9,6.4-13.5c4-8.9,7.7-18,11.1-27.1c-0.4-0.8-0.9-1.5-1.3-2.3c-1.6-2.7-2.7-4.4-3.8-6.1
				C393.2,475.1,391.9,473,390.4,470.3z"/>
			<path id="path17" inkscape:connector-curvature="0" class="st0" d="M134.7,298.3c0,0.1,0,0.1,0,0.1c0.1,0.7,0.2,1.3,0.4,2
				c0.2,1.2,0.6,2.3,0.8,3.5c0.3,1.2,0.6,2.4,1,3.5c4.4,14.9,14.1,34.6,27.1,41.4c5.2,2.8,10.6,3.2,16.1,1.3c5.8-2,9.6-4.8,11.4-8.7
				c0.2-0.5,0.4-0.9,0.6-1.4c0.1-0.2,0.1-0.3,0.1-0.5c0.1-0.4,0.2-0.7,0.2-1c0.1-0.2,0.1-0.4,0.1-0.6c0.1-0.4,0.1-0.7,0.2-1
				c0-0.2,0.1-0.4,0.1-0.6c0.1-0.4,0.1-0.8,0.1-1.2c0-0.1,0-0.2,0-0.4c0-0.6,0-1.1-0.1-1.7c0-0.2,0-0.3-0.1-0.5
				c-0.1-0.4-0.1-0.9-0.1-1.3c0-0.2-0.1-0.4-0.1-0.7c-0.1-0.4-0.1-0.8-0.2-1.2c-0.1-0.2-0.1-0.5-0.1-0.7c-0.1-0.4-0.2-0.8-0.2-1.2
				c-0.1-0.2-0.1-0.4-0.1-0.7c-0.1-0.6-0.2-1.1-0.4-1.6c-0.1-0.2-0.1-0.3-0.1-0.5c-0.1-0.6-0.3-1.1-0.5-1.7
				c-0.1-0.2-0.2-0.6-0.2-0.8c-0.1-0.4-0.2-0.8-0.4-1.2c-0.1-0.3-0.2-0.6-0.3-0.9c-0.1-0.4-0.2-0.7-0.4-1c-0.1-0.3-0.2-0.6-0.3-1
				c-0.1-0.4-0.2-0.7-0.4-1c-0.1-0.3-0.2-0.7-0.4-1c-0.4-0.9-0.7-1.8-1-2.8C170.9,305.5,153,300.3,134.7,298.3L134.7,298.3z"/>
			<path id="path19" inkscape:connector-curvature="0" class="st0" d="M186.9,216.2c-0.7,0.2-1.4,0.4-2.1,0.6
				c-1.8,0.5-3.5,1-5.2,1.6c-0.1,0.1-0.2,0.1-0.4,0.1c-1.7,0.6-3.3,1.2-5,2c-0.1,0.1-0.1,0.1-0.2,0.1c-1.7,0.7-3.2,1.5-4.8,2.4
				c-0.1,0.1-0.2,0.1-0.3,0.2c-1.6,0.9-3.1,1.8-4.7,2.8c-0.1,0.1-0.1,0.1-0.2,0.1c-3.5,2.3-6.7,4.9-9.8,7.7c-1,1-2,2-2.9,2.9
				c-0.1,0.1-0.2,0.2-0.4,0.4c-1,1.1-2,2.3-3,3.5c-0.2,0.2-0.4,0.4-0.5,0.6c-0.4,0.6-0.9,1.2-1.3,1.8c16,5.1,30.4,13.8,43.2,24.7
				c0.1-0.1,0.1-0.1,0.2-0.1c0.6-0.4,1.2-0.7,1.8-0.9l0,0l0,0c0.9-0.4,1.8-0.8,2.8-1.2c0.1,0,0.1,0,0.1-0.1c0.9-0.3,1.8-0.6,2.8-0.7
				c0.1,0,0.2-0.1,0.4-0.1c0.9-0.2,1.8-0.3,2.8-0.4c0.1,0,0.3,0,0.4,0c1-0.1,1.9-0.1,2.9,0c0.8,0.1,1.6,0.2,2.4,0.3
				c0.3,0.1,0.7,0.1,1,0.2c0.4,0.1,0.7,0.2,1,0.2c0.9,0.2,1.7,0.5,2.4,0.7l0,0l0,0c0.9,0.3,1.7,0.7,2.6,1.1l0,0
				C206.9,248.8,198.1,231.8,186.9,216.2L186.9,216.2L186.9,216.2z"/>
			<path id="path21" inkscape:connector-curvature="0" class="st0" d="M279.6,275.6c-1.9-3.2-3.9-6.4-5.9-9.5
				c-0.1-0.2-0.2-0.3-0.3-0.5c-0.9-1.5-1.8-2.9-2.8-4.3c-0.1-0.1-0.1-0.2-0.2-0.3c-1-1.5-2-3-3.1-4.5c-0.1-0.1-0.2-0.3-0.3-0.4
				c-0.9-1.3-1.8-2.6-2.8-3.9c-0.2-0.2-0.4-0.5-0.5-0.7c-1-1.4-2.1-2.8-3.2-4.2c0,0,0-0.1-0.1-0.1c-1-1.3-2.1-2.6-3.2-3.9
				c-0.2-0.2-0.4-0.5-0.7-0.8c-1.1-1.3-2.2-2.5-3.4-3.7c-0.7-0.8-1.5-1.6-2.3-2.3c-0.1,2.1-0.2,4.3-0.5,6.5
				c-1,10.4-2.7,20.7-4.3,31.1c-1.4,9-3,18-4.7,27c0.6,0.9,1,1.8,1.6,2.7c4,6.6,5.9,10,5.8,10c0,0-0.4-0.3-0.4-0.7
				c0-0.9,1.7-1.5,3.6-2.8c1.4-0.9,1.7-1.5,2.8-2.5c2.3-2.2,4.8-3,7.4-4.1c2.5-1.1,6.1-2.8,10.6-5.4c1,0.9,1.8,1.1,2.5,1
				c3.9-0.6,5.4-12.2,6-20.9C280.8,277.7,280.2,276.7,279.6,275.6z"/>
		</g>
		<g id="g25">
			<path id="path29" inkscape:connector-curvature="0" class="st0" d="M221.8,470.7c0.9-2.1,6.2-14.9,11.2-14.2
				c0.6,0.1,1.4,0.4,5.4,4.4c2.7,2.8,4.8,5.1,6.3,6.8c0.6,1.4,1.2,2.8,1.9,4.2c4,8.9,8.2,17.4,12.6,25.6c-0.3,0.6-0.7,1.3-1,1.9
				c-0.1,0.1-0.1,0.2-0.1,0.3c-0.4,0.8-0.8,1.6-1.2,2.4c-0.1,0.3-0.3,0.6-0.5,0.9c-0.3,0.6-0.6,1.2-0.9,1.8
				c-0.2,0.4-0.4,0.7-0.6,1.1c-0.3,0.5-0.6,1-0.9,1.5c-0.2,0.4-0.4,0.7-0.6,1.1c-0.3,0.5-0.6,1-0.9,1.5c-0.2,0.4-0.4,0.7-0.6,1
				c-0.4,0.7-0.9,1.5-1.4,2.2c-0.2,0.3-0.4,0.6-0.6,0.9c-0.4,0.5-0.7,1-1,1.5c-0.2,0.3-0.5,0.6-0.7,1c-0.3,0.4-0.6,0.8-0.9,1.2
				c-0.2,0.3-0.6,0.6-0.8,0.9c-0.3,0.4-0.6,0.7-1,1c-0.3,0.3-0.6,0.6-0.9,0.9c-0.4,0.4-0.8,0.7-1.2,1c-0.4,0.4-0.8,0.7-1.2,1
				c-0.4,0.3-0.9,0.6-1.3,0.9c-0.3,0.2-0.7,0.4-1,0.6c-0.4,0.2-0.7,0.4-1.2,0.6c-0.4,0.2-0.7,0.3-1,0.4c-0.4,0.1-0.8,0.3-1.2,0.4
				c-0.4,0.1-0.7,0.2-1.1,0.3c-0.5,0.1-1,0.2-1.5,0.2c-0.3,0.1-0.7,0.1-1,0.1c-0.7,0.1-1.4,0.1-2.1,0c-0.1,0-0.1,0-0.2,0
				c-2.3-4.4-4.4-8.9-6.4-13.5c-4-8.9-7.7-18-11.1-27.1c0.4-0.8,0.9-1.5,1.3-2.3c1.6-2.7,2.7-4.4,3.8-6.1
				C219,475.6,220.3,473.4,221.8,470.7z"/>
			<path id="path31" inkscape:connector-curvature="0" class="st0" d="M477.6,298.7c0,0.1,0,0.1,0,0.1c-0.1,0.7-0.2,1.3-0.4,2
				c-0.2,1.2-0.6,2.3-0.8,3.5c-0.3,1.2-0.6,2.4-1,3.5c-4.4,14.9-14.1,34.6-27.1,41.4c-5.2,2.8-10.6,3.2-16.1,1.3
				c-5.8-2-9.6-4.8-11.4-8.7c-0.2-0.5-0.4-0.9-0.6-1.4c-0.1-0.2-0.1-0.3-0.1-0.5c-0.1-0.4-0.2-0.7-0.2-1c-0.1-0.2-0.1-0.4-0.1-0.6
				c-0.1-0.4-0.1-0.7-0.2-1c0-0.2-0.1-0.4-0.1-0.6c-0.1-0.4-0.1-0.8-0.1-1.2c0-0.1,0-0.2,0-0.4c0-0.6,0-1.1,0.1-1.7
				c0-0.2,0-0.3,0.1-0.5c0.1-0.4,0.1-0.9,0.1-1.3c0-0.2,0.1-0.4,0.1-0.7c0.1-0.4,0.1-0.8,0.2-1.2c0.1-0.2,0.1-0.5,0.1-0.7
				c0.1-0.4,0.2-0.8,0.2-1.2c0.1-0.2,0.1-0.4,0.1-0.7c0.1-0.6,0.2-1.1,0.4-1.6c0.1-0.2,0.1-0.3,0.1-0.5c0.1-0.6,0.3-1.1,0.5-1.7
				c0.1-0.2,0.2-0.6,0.2-0.8c0.1-0.4,0.2-0.8,0.4-1.2c0.1-0.3,0.2-0.6,0.3-0.9c0.1-0.4,0.2-0.7,0.4-1c0.1-0.3,0.2-0.6,0.3-1
				c0.1-0.4,0.2-0.7,0.4-1c0.1-0.3,0.2-0.7,0.4-1c0.4-0.9,0.7-1.8,1-2.8C441.3,305.9,459.2,300.7,477.6,298.7L477.6,298.7z"/>
			<path id="path33" inkscape:connector-curvature="0" class="st0" d="M425.3,216.6c0.7,0.2,1.4,0.4,2.1,0.6c1.8,0.5,3.5,1,5.2,1.6
				c0.1,0.1,0.2,0.1,0.4,0.1c1.7,0.6,3.3,1.2,5,2c0.1,0.1,0.1,0.1,0.2,0.1c1.7,0.7,3.2,1.5,4.8,2.4c0.1,0.1,0.2,0.1,0.3,0.2
				c1.6,0.9,3.1,1.8,4.7,2.8c0.1,0.1,0.1,0.1,0.2,0.1c3.5,2.3,6.7,4.9,9.8,7.7c1,1,2,2,2.9,2.9c0.1,0.1,0.2,0.2,0.4,0.4
				c1,1.1,2,2.3,3,3.5c0.2,0.2,0.4,0.4,0.5,0.6c0.4,0.6,0.9,1.2,1.3,1.8c-16,5.1-30.4,13.8-43.2,24.7c-0.1-0.1-0.1-0.1-0.2-0.1
				c-0.6-0.4-1.2-0.7-1.8-0.9l0,0l0,0c-0.9-0.4-1.8-0.8-2.8-1.2c-0.1,0-0.1,0-0.1-0.1c-0.9-0.3-1.8-0.6-2.8-0.7
				c-0.1,0-0.2-0.1-0.4-0.1c-0.9-0.2-1.8-0.3-2.8-0.4c-0.1,0-0.3,0-0.4,0c-1-0.1-1.9-0.1-2.9,0c-0.8,0.1-1.6,0.2-2.4,0.3
				c-0.3,0.1-0.7,0.1-1,0.2c-0.4,0.1-0.7,0.2-1,0.2c-0.9,0.2-1.7,0.5-2.4,0.7l0,0l0,0c-0.9,0.3-1.7,0.7-2.6,1.1l0,0
				C405.4,249.2,414.2,232.2,425.3,216.6L425.3,216.6L425.3,216.6z"/>
			<path id="path35_9_" inkscape:connector-curvature="0" class="st0" d="M329.5,280.9c0.6-1,1.2-2,1.8-3l0,0l0,0l0,0
				c1.9-3.2,3.9-6.4,5.9-9.5c0.1-0.2,0.2-0.3,0.3-0.5c0.9-1.5,1.8-2.9,2.8-4.3c0.1-0.1,0.1-0.2,0.2-0.3c1-1.5,2-3,3.1-4.5
				c0.1-0.1,0.2-0.3,0.3-0.4c0.9-1.3,1.8-2.6,2.8-3.9c0.2-0.2,0.4-0.5,0.5-0.7c1-1.4,2.1-2.8,3.2-4.2c0,0,0-0.1,0.1-0.1
				c1-1.3,2.1-2.6,3.2-3.9c0.2-0.2,0.4-0.5,0.7-0.8c1.1-1.3,2.2-2.5,3.4-3.7l0,0l0,0c0.7-0.8,1.5-1.6,2.3-2.3
				c0.1,2.1,0.2,4.3,0.5,6.5c1,10.4,2.7,20.7,4.3,31.1c1.4,9,3,18,4.7,27l0,0c-0.6,0.9-1,1.8-1.6,2.7l0,0l0,0"/>
			<path id="path35_8_" inkscape:connector-curvature="0" class="st0" d="M329.4,280.8c0.6-1,1.2-2,1.8-3l0,0
				c1.9-3.2,3.9-6.4,5.9-9.5c0.1-0.2,0.2-0.3,0.3-0.5c0.9-1.5,1.8-2.9,2.8-4.3c0.1-0.1,0.1-0.2,0.2-0.3c1-1.5,2-3,3.1-4.5
				c0.1-0.1,0.2-0.3,0.3-0.4c0.9-1.3,1.8-2.6,2.8-3.9c0.2-0.2,0.4-0.5,0.5-0.7c1-1.4,2.1-2.8,3.2-4.2c0,0,0-0.1,0.1-0.1
				c1-1.3,2.1-2.6,3.2-3.9c0.2-0.2,0.4-0.5,0.7-0.8c1.1-1.3,2.2-2.5,3.4-3.7c0.7-0.8,1.5-1.6,2.3-2.3c0.1,2.1,0.2,4.3,0.5,6.5
				c1,10.4,2.7,20.7,4.3,31.1c1.4,9,3,18,4.7,27c-0.6,0.9-1,1.8-1.6,2.7"/>
			<path id="path35_4_" inkscape:connector-curvature="0" class="st0" d="M362.9,315.1c0.3-0.2,0.6-0.1,0.6-0.1
				c0.2-0.4-5.9-3.6-5.9-3.6c-10.5-5.6-12.4-9.9-19.4-10.7c-1.9-0.2-3.4-0.1-4.3,0l0,0c-1.1-7-2.2-14.1-3.3-21.1
				c0.3-0.5,0.6-1,0.9-1.5c0.3-0.5,0.6-1,0.9-1.5c1.9-3.2,3.9-6.4,5.9-9.5c0.1-0.2,0.2-0.3,0.3-0.5c0.9-1.5,1.8-2.9,2.8-4.3
				c0.1-0.1,0.1-0.2,0.2-0.3c1-1.5,2-3,3.1-4.5c0.1-0.1,0.2-0.3,0.3-0.4c0.9-1.3,1.8-2.6,2.8-3.9c0.2-0.2,0.4-0.5,0.5-0.7
				c1-1.4,2.1-2.8,3.2-4.2c0,0,0-0.1,0.1-0.1c1-1.3,2.1-2.6,3.2-3.9c0.2-0.2,0.4-0.5,0.7-0.8c1.1-1.3,2.2-2.5,3.4-3.7
				c0.7-0.8,1.5-1.6,2.3-2.3c0.1,2.1,0.2,4.3,0.5,6.5c1,10.4,2.7,20.7,4.3,31.1c1.4,9,3,18,4.7,27c-0.6,0.9-1,1.8-1.6,2.7
				c-2,3.4-3.9,6.7-5.8,10"/>
			<path id="path35_1_" inkscape:connector-curvature="0" class="st0" d="M329.8,279.6c0.6-1,1.2-2,1.8-3l0,0l0,0l0,0
				c1.9-3.2,3.9-6.4,5.9-9.5c0.1-0.2,0.2-0.3,0.3-0.5c0.9-1.5,1.8-2.9,2.8-4.3c0.1-0.1,0.1-0.2,0.2-0.3c1-1.5,2-3,3.1-4.5
				c0.1-0.1,0.2-0.3,0.3-0.4c0.9-1.3,1.8-2.6,2.8-3.9c0.2-0.2,0.4-0.5,0.5-0.7c1-1.4,2.1-2.8,3.2-4.2c0,0,0-0.1,0.1-0.1
				c1-1.3,2.1-2.6,3.2-3.9c0.2-0.2,0.4-0.5,0.7-0.8c1.1-1.3,2.2-2.5,3.4-3.7l0,0l0,0c0.7-0.8,1.5-1.6,2.3-2.3
				c0.1,2.1,0.2,4.3,0.5,6.5c1,10.4,2.7,20.7,4.3,31.1c1.4,9,3,18,4.7,27l0,0c-0.6,0.9-1,1.8-1.6,2.7l0,0l0,0c-2,3.4-3.9,6.7-5.8,10
				"/>
			<path id="path35_5_" inkscape:connector-curvature="0" class="st0" d="M330.6,278.6c0.3-0.5,0.6-1,0.9-1.5c0.3-0.5,0.6-1,0.9-1.5
				l0,0l0,0h0l0,0l0,0l0,0c0.9-1.6,1.9-3.2,2.9-4.8c1-1.6,2-3.2,3-4.8c0.1-0.1,0.1-0.2,0.2-0.2s0.1-0.2,0.2-0.2
				c0.5-0.7,0.9-1.5,1.4-2.2c0.5-0.7,0.9-1.4,1.4-2.1c0-0.1,0.1-0.1,0.1-0.2c0,0,0.1-0.1,0.1-0.2c0.5-0.8,1-1.5,1.5-2.3
				c0.5-0.7,1-1.5,1.6-2.2c0.1-0.1,0.1-0.1,0.2-0.2s0.1-0.2,0.2-0.2c0.5-0.6,0.9-1.3,1.4-1.9c0.5-0.6,0.9-1.3,1.4-1.9
				c0.1-0.1,0.2-0.2,0.3-0.4c0.1-0.1,0.2-0.2,0.2-0.3c0.5-0.7,1.1-1.4,1.6-2.1s1.1-1.4,1.6-2.1c0,0,0,0,0,0c0,0,0,0,0.1,0
				c0.5-0.6,1-1.3,1.6-1.9c0.5-0.6,1.1-1.3,1.6-1.9c0.1-0.1,0.2-0.2,0.3-0.4c0.1-0.1,0.2-0.3,0.3-0.4c0.6-0.6,1.1-1.3,1.7-1.9
				c0.6-0.6,1.1-1.2,1.7-1.8l0,0l0,0l0,0l0,0c0.4-0.4,0.7-0.8,1.1-1.2c0.4-0.4,0.8-0.8,1.1-1.1c0,1.1,0.1,2.2,0.2,3.2
				c0.1,1.1,0.2,2.2,0.3,3.2c0.5,5.2,1.2,10.4,1.9,15.6c0.7,5.2,1.6,10.4,2.3,15.5c0.7,4.5,1.5,9,2.2,13.5c0.8,4.5,1.6,9,2.5,13.5
				l0,0l0,0c-0.3,0.5-0.5,0.9-0.8,1.3c-0.3,0.4-0.5,0.9-0.8,1.3l0,0l0,0l0,0l0,0c-1,1.7-2,3.4-2.9,5s-1.9,3.3-2.9,5
				c-0.1,0.2-0.2,0.4-0.4,0.6c-0.1,0.2-0.2,0.4-0.4,0.6"/>
		</g>
		<g>
			<path class="st1" d="M260.9,476.9c0.2,0.1,0.5,0.2,0.7,0.4C261.4,477.2,261.1,477.1,260.9,476.9z"/>
			<path class="st1" d="M272.2,481.6c-3.6-1.2-7.1-2.7-10.5-4.3C265.1,479,268.6,480.4,272.2,481.6
				C272.2,481.6,272.2,481.6,272.2,481.6z"/>
			<path class="st1" d="M248.9,477.3c3.1,6.7,6.4,13.3,10,19.8c-0.3,0.6-0.7,1.3-1,1.9c-0.1,0.1-0.1,0.2-0.1,0.3
				c-0.4,0.8-0.8,1.6-1.2,2.4c-0.1,0.3-0.3,0.6-0.5,0.9c-0.3,0.6-0.6,1.2-0.9,1.8c-0.2,0.4-0.4,0.7-0.6,1.1c-0.3,0.5-0.6,1-0.9,1.5
				c-0.2,0.4-0.4,0.7-0.6,1.1c-0.3,0.5-0.6,1-0.9,1.5c-0.2,0.4-0.4,0.7-0.6,1c-0.4,0.7-0.9,1.5-1.4,2.2c-0.2,0.3-0.4,0.6-0.6,0.9
				c-0.4,0.5-0.7,1-1,1.5c-0.2,0.3-0.5,0.6-0.7,1c-0.3,0.4-0.6,0.8-0.9,1.2c-0.2,0.3-0.6,0.6-0.8,0.9c-0.3,0.4-0.6,0.7-1,1
				c-0.3,0.3-0.6,0.6-0.9,0.9c-0.4,0.4-0.8,0.7-1.2,1c-0.4,0.4-0.8,0.7-1.2,1c-0.4,0.3-0.9,0.6-1.3,0.9c-0.3,0.2-0.7,0.4-1,0.6
				c-0.4,0.2-0.7,0.4-1.2,0.6c-0.4,0.2-0.7,0.3-1,0.4c-0.4,0.1-0.8,0.3-1.2,0.4c-0.4,0.1-0.7,0.2-1.1,0.3c-0.5,0.1-1,0.2-1.5,0.2
				c-0.3,0.1-0.7,0.1-1,0.1c-0.7,0.1-1.4,0.1-2.1,0c-0.1,0-0.1,0-0.2,0c-2.3-4.4-4.4-8.9-6.4-13.5c-4-8.9-7.7-18-11.1-27.1
				c0.4-0.9,0.9-1.7,1.3-2.4v0c1.2-2.1,2.5-4.1,3.8-6.1c1.3-2.1,2.6-4.2,3.8-6.2c2.1-3.6,4.1-7.1,6.2-10.7c-1-1.1-2-2.2-2.9-3.3
				c-2.3,4-4.6,8-6.9,11.9c-1.2,2-2.4,4-3.7,6.1c-7.6,12.1-16.2,25.8-8.4,40.2c2.4,4.6,6.3,8.4,10.9,11.1c1.7,1,3.5,1.8,5.4,2.4
				c21.7,7.5,31.5-11.8,39.5-27.3c1.5-2.9,2.9-5.6,4.3-8.1c1.1-1.9,2.1-3.7,3.2-5.6C262,484.5,255.2,481.3,248.9,477.3z"/>
			<path class="st1" d="M475.6,251c-11-22.2-33.9-38-58.4-40.3c-49.2-4.7-73.8,37.5-95.5,74.8c-1.1,1.8-2.1,3.6-3.1,5.4
				c4.9,0.8,9.6,1.9,14.2,3.3c-0.9-5.1-1.6-10.3-2.1-15.5l0,0c0.6-1,1.2-2,1.8-3c1.9-3.2,3.9-6.4,5.9-9.5c0.1-0.2,0.2-0.3,0.3-0.5
				c0.9-1.5,1.8-2.9,2.8-4.3c0.1-0.1,0.1-0.2,0.2-0.3c1-1.5,2-3,3.1-4.5c0.1-0.1,0.2-0.3,0.3-0.4c0.9-1.3,1.8-2.6,2.8-3.9
				c0.2-0.2,0.4-0.5,0.5-0.7c1-1.4,2.1-2.8,3.2-4.2c0,0,0-0.1,0.1-0.1c1-1.3,2.1-2.6,3.2-3.9c0.2-0.2,0.4-0.5,0.7-0.8
				c1.1-1.3,2.2-2.5,3.4-3.7c0.7-0.8,1.5-1.6,2.3-2.3c0.1,2.1,0.2,4.3,0.5,6.5c1,10.4,2.7,20.7,4.3,31.1c1.4,9,3,18,4.7,27
				c-0.6,0.9-1,1.8-1.6,2.7c-1.3,2.3-2.7,4.6-4,6.9c1.1,0.8,2.1,1.7,3.2,2.5c3.1-5.5,6.3-10.9,9.6-16.2l1.5-2.5
				c5.3-8.6,11.7-18.8,20.5-23.7c2.8-1.5,5.7-2.4,8.9-2.8c2.8-0.2,5.7,0.2,8.3,1.3c4.7,1.8,8.7,5.2,10.4,9.4
				c1.3,3.1,1.3,7.1,0.2,12.2c-1.2,5.4-3.5,11.4-5.8,17.3c-4.8,12.4-9.7,25.2-5.2,34.8c2.3,5,6.9,8.5,13.9,10.8
				c6.6,2.2,13.1,1.7,19.3-1.6c18.1-9.5,27.4-38.2,29.1-43.9C485.2,287.8,484,267.9,475.6,251z M422.6,267.6
				c-0.1-0.1-0.1-0.1-0.2-0.1c-0.6-0.4-1.2-0.7-1.8-0.9c-0.9-0.4-1.8-0.8-2.8-1.2c-0.1,0-0.1,0-0.1-0.1c-0.9-0.3-1.8-0.6-2.8-0.7
				c-0.1,0-0.2-0.1-0.4-0.1c-0.9-0.2-1.8-0.3-2.8-0.4c-0.1,0-0.3,0-0.4,0c-1-0.1-1.9-0.1-2.9,0c-0.8,0.1-1.6,0.2-2.4,0.3
				c-0.3,0.1-0.7,0.1-1,0.2c-0.4,0.1-0.7,0.2-1,0.2c-0.9,0.2-1.7,0.5-2.4,0.7c-0.9,0.3-1.7,0.7-2.6,1.1c6.1-18,14.9-35,26-50.6h0
				c0.7,0.2,1.4,0.4,2.1,0.6c1.8,0.5,3.5,1,5.2,1.6c0.1,0.1,0.2,0.1,0.4,0.1c1.7,0.6,3.3,1.2,5,2c0.1,0.1,0.1,0.1,0.2,0.1
				c1.7,0.7,3.2,1.5,4.8,2.4c0.1,0.1,0.2,0.1,0.3,0.2c1.6,0.9,3.1,1.8,4.7,2.8c0.1,0.1,0.1,0.1,0.2,0.1c3.5,2.3,6.7,4.9,9.8,7.7
				c1,1,2,2,2.9,2.9c0.1,0.1,0.2,0.2,0.4,0.4c1,1.1,2,2.3,3,3.5c0.2,0.2,0.4,0.4,0.5,0.6c0.4,0.6,0.9,1.2,1.3,1.8
				C449.8,248,435.4,256.7,422.6,267.6z M477.3,298.4c-0.1,0.7-0.2,1.3-0.4,2c-0.2,1.2-0.6,2.3-0.8,3.5c-0.3,1.2-0.6,2.4-1,3.5
				c-4.4,14.9-14.1,34.6-27.1,41.4c-5.2,2.8-10.6,3.2-16.1,1.3c-5.8-2-9.6-4.8-11.4-8.7c-0.2-0.5-0.4-0.9-0.6-1.4
				c-0.1-0.2-0.1-0.3-0.1-0.5c-0.1-0.4-0.2-0.7-0.2-1c-0.1-0.2-0.1-0.4-0.1-0.6c-0.1-0.4-0.1-0.7-0.2-1c0-0.2-0.1-0.4-0.1-0.6
				c-0.1-0.4-0.1-0.8-0.1-1.2c0-0.1,0-0.2,0-0.4c0-0.6,0-1.1,0.1-1.7c0-0.2,0-0.3,0.1-0.5c0.1-0.4,0.1-0.9,0.1-1.3
				c0-0.2,0.1-0.4,0.1-0.7c0.1-0.4,0.1-0.8,0.2-1.2c0.1-0.2,0.1-0.5,0.1-0.7c0.1-0.4,0.2-0.8,0.2-1.2c0.1-0.2,0.1-0.4,0.1-0.7
				c0.1-0.6,0.2-1.1,0.4-1.6c0.1-0.2,0.1-0.3,0.1-0.5c0.1-0.6,0.3-1.1,0.5-1.7c0.1-0.2,0.2-0.6,0.2-0.8c0.1-0.4,0.2-0.8,0.4-1.2
				c0.1-0.3,0.2-0.6,0.3-0.9c0.1-0.4,0.2-0.7,0.4-1c0.1-0.3,0.2-0.6,0.3-1c0.1-0.4,0.2-0.7,0.4-1c0.1-0.3,0.2-0.7,0.4-1
				c0.2-0.9,0.6-1.8,0.9-2.7c16.6-8,34.5-13.2,52.8-15.2C477.3,298.3,477.3,298.3,477.3,298.4z"/>
		</g>
	</g>
</g>
<g>
	<path class="st1" d="M195,269.5c2.6-1,5.5-1.5,8.3-1.3c3.2,0.2,6.2,1.2,8.9,2.8c8.9,4.8,15.2,15.1,20.5,23.7l1.5,2.5
		c2.8,4.5,5.5,9.1,8.2,13.7c1.1-0.8,2.2-1.7,3.3-2.5c-0.9-1.5-1.8-3-2.6-4.5c-0.6-0.9-1-1.8-1.6-2.7c1.7-9,3.3-18,4.7-27
		c1.7-10.3,3.2-20.7,4.3-31.1c0.2-2.1,0.4-4.3,0.5-6.5c0.8,0.8,1.5,1.5,2.3,2.3c1.2,1.2,2.3,2.4,3.4,3.7c0.2,0.2,0.4,0.5,0.7,0.8
		c1.1,1.3,2.1,2.5,3.2,3.9c0,0,0,0.1,0.1,0.1c1.1,1.3,2.1,2.8,3.2,4.2c0.2,0.2,0.4,0.5,0.5,0.7c0.9,1.3,1.9,2.6,2.8,3.9
		c0.1,0.1,0.2,0.3,0.3,0.4c1,1.5,2,3,3.1,4.5c0.1,0.1,0.1,0.2,0.2,0.3c0.9,1.4,1.9,2.9,2.8,4.3c0.1,0.2,0.2,0.3,0.3,0.5
		c2,3.2,4,6.4,5.9,9.5c0.6,1,1.2,2,1.8,3c-0.5,4.8-1.1,9.5-1.9,14.2c4.4-1.1,9-1.9,13.6-2.5c-0.9-1.6-1.9-3.2-2.8-4.8
		c-21.7-37.3-46.3-79.6-95.5-74.8c-24.5,2.4-47.5,18.2-58.4,40.3c-8.3,16.8-9.5,36.8-3.4,57.6c1.7,5.7,11,34.4,29.1,43.9
		c6.2,3.2,12.7,3.8,19.3,1.6c7-2.3,11.6-5.9,13.9-10.8c4.5-9.6-0.4-22.5-5.2-34.8c-2.3-5.9-4.6-11.9-5.8-17.3
		c-1.1-5.1-1-9.2,0.2-12.2C186.3,274.7,190.2,271.3,195,269.5z M187.6,313.6c0.2,0.9,0.6,1.8,0.9,2.7l0,0c0.1,0.3,0.2,0.7,0.4,1
		c0.1,0.4,0.2,0.7,0.4,1c0.1,0.3,0.2,0.6,0.3,1c0.1,0.4,0.2,0.7,0.4,1c0.1,0.3,0.2,0.6,0.3,0.9c0.1,0.4,0.2,0.8,0.4,1.2
		c0.1,0.2,0.2,0.6,0.2,0.8c0.2,0.6,0.3,1.1,0.5,1.7c0.1,0.2,0.1,0.3,0.1,0.5c0.1,0.6,0.3,1.1,0.4,1.6c0.1,0.2,0.1,0.4,0.1,0.7
		c0.1,0.4,0.2,0.8,0.2,1.2c0.1,0.2,0.1,0.5,0.1,0.7c0.1,0.4,0.1,0.8,0.2,1.2c0.1,0.2,0.1,0.4,0.1,0.7c0.1,0.4,0.1,0.9,0.1,1.3
		c0,0.2,0,0.3,0.1,0.5c0.1,0.6,0.1,1.2,0.1,1.7c0,0.1,0,0.2,0,0.4c0,0.4-0.1,0.9-0.1,1.2c0,0.2-0.1,0.4-0.1,0.6
		c-0.1,0.4-0.1,0.7-0.2,1c-0.1,0.2-0.1,0.4-0.1,0.6c-0.1,0.4-0.2,0.7-0.2,1c-0.1,0.2-0.1,0.3-0.1,0.5c-0.2,0.5-0.4,1-0.6,1.4
		c-1.8,3.9-5.6,6.7-11.4,8.7c-5.5,1.8-11,1.4-16.1-1.3c-12.9-6.7-22.6-26.5-27.1-41.4c-0.4-1.2-0.7-2.4-1-3.5
		c-0.3-1.2-0.6-2.4-0.8-3.5c-0.1-0.7-0.2-1.3-0.4-2c0-0.1,0-0.1,0-0.1C153.2,300.4,171,305.6,187.6,313.6z M146.2,242.9
		c0.4-0.6,0.9-1.2,1.3-1.8c0.2-0.2,0.4-0.4,0.5-0.6c1-1.2,2-2.4,3-3.5c0.1-0.1,0.2-0.2,0.4-0.4c1-1,2-2,2.9-2.9
		c3-2.9,6.3-5.4,9.8-7.7c0.1-0.1,0.1-0.1,0.2-0.1c1.5-1,3.1-1.9,4.7-2.8c0.1-0.1,0.2-0.1,0.3-0.2c1.6-0.9,3.2-1.7,4.8-2.4
		c0.1-0.1,0.1-0.1,0.2-0.1c1.7-0.7,3.3-1.4,5-2c0.1-0.1,0.2-0.1,0.4-0.1c1.7-0.6,3.4-1.2,5.2-1.6c0.7-0.2,1.4-0.4,2.1-0.6
		c11.1,15.5,19.9,32.6,26,50.6c-0.9-0.4-1.7-0.7-2.6-1.1c-0.8-0.3-1.6-0.6-2.4-0.7c-0.4-0.1-0.7-0.2-1-0.2c-0.3-0.1-0.6-0.1-1-0.2
		c-0.8-0.1-1.6-0.2-2.4-0.3c-1-0.1-1.9-0.1-2.9,0c-0.1,0-0.3,0-0.4,0c-0.9,0.1-1.8,0.2-2.8,0.4c-0.1,0-0.2,0.1-0.4,0.1
		c-0.9,0.2-1.8,0.4-2.8,0.7c-0.1,0-0.1,0-0.1,0.1c-1,0.3-1.9,0.7-2.8,1.2c-0.6,0.3-1.2,0.6-1.8,0.9c-0.1,0.1-0.1,0.1-0.2,0.1
		C176.6,256.8,162.2,248,146.2,242.9z"/>
	<path class="st1" d="M397.7,474.4c-1.3-2.1-2.6-4.1-3.7-6.1c-3-5.1-5.9-10.2-8.9-15.4c-0.9,1.2-1.8,2.3-2.7,3.4
		c2.7,4.6,5.3,9.3,8,13.8c1.2,2,2.4,4,3.8,6.2c1.3,2.1,2.6,4.2,3.8,6.2l0,0c0.4,0.8,0.9,1.5,1.3,2.3c-3.4,9.2-7.2,18.2-11.1,27.1
		c-2,4.5-4.2,9.1-6.4,13.5c-0.1,0-0.1,0-0.2,0c-0.7,0-1.5,0.1-2.1,0c-0.3,0-0.7-0.1-1-0.1c-0.5-0.1-1-0.1-1.5-0.2
		c-0.4-0.1-0.7-0.2-1.1-0.3c-0.4-0.1-0.8-0.2-1.2-0.4c-0.4-0.1-0.7-0.3-1-0.4c-0.4-0.2-0.8-0.4-1.2-0.6c-0.3-0.2-0.7-0.4-1-0.6
		c-0.4-0.3-0.9-0.6-1.3-0.9c-0.4-0.3-0.9-0.6-1.2-1c-0.4-0.4-0.8-0.7-1.2-1c-0.3-0.2-0.6-0.6-0.9-0.9c-0.3-0.3-0.6-0.7-1-1
		c-0.2-0.3-0.6-0.6-0.8-0.9c-0.3-0.4-0.6-0.7-0.9-1.2c-0.2-0.3-0.5-0.6-0.7-1c-0.4-0.5-0.7-1-1-1.5c-0.2-0.3-0.4-0.6-0.6-0.9
		c-0.5-0.7-0.9-1.5-1.4-2.2c-0.2-0.4-0.4-0.7-0.6-1c-0.3-0.5-0.6-1-0.9-1.5c-0.2-0.4-0.4-0.7-0.6-1.1c-0.3-0.5-0.6-1-0.9-1.5
		c-0.2-0.4-0.4-0.7-0.6-1.1c-0.3-0.6-0.6-1.2-0.9-1.8c-0.2-0.3-0.3-0.6-0.5-0.9c-0.4-0.8-0.8-1.6-1.2-2.4c-0.1-0.1-0.1-0.2-0.1-0.3
		c-0.4-0.7-0.7-1.3-1-1.9c4.4-7.9,8.3-15.9,11.9-24.2c-7,5.2-14.7,9.6-23,12.9c1.4,2.4,2.7,4.7,4.1,7.1c1.4,2.4,2.8,5.2,4.3,8.1
		c8,15.5,17.8,34.7,39.5,27.3c1.9-0.7,3.7-1.5,5.4-2.4c4.6-2.7,8.4-6.5,10.9-11.1C413.9,500.1,405.3,486.4,397.7,474.4z"/>
</g>
<path id="path43" inkscape:connector-curvature="0" class="st2" d="M304.4,289.7c-56.1,0-101.6,45.8-101.6,102.1
	s45.6,102.1,101.6,102.1S406,448.1,406,391.8S360.4,289.7,304.4,289.7L304.4,289.7z M209,391.8c0-52.9,42.8-95.9,95.4-95.9
	s95.3,43.1,95.3,95.9s-42.8,95.9-95.4,95.9S209,444.7,209,391.8L209,391.8z"/>
</svg>
