<?xml version="1.0" encoding="UTF-8" standalone="no"?>
<svg
   xmlns:dc="http://purl.org/dc/elements/1.1/"
   xmlns:cc="http://creativecommons.org/ns#"
   xmlns:rdf="http://www.w3.org/1999/02/22-rdf-syntax-ns#"
   xmlns:svg="http://www.w3.org/2000/svg"
   xmlns="http://www.w3.org/2000/svg"
   xmlns:sodipodi="http://sodipodi.sourceforge.net/DTD/sodipodi-0.dtd"
   xmlns:inkscape="http://www.inkscape.org/namespaces/inkscape"
   version="1.1"
   id="l96"
   x="0px"
   y="0px"
   viewBox="0 0 1000 1000"
   width="100%"
   height="100%"
   style="enable-background:new 0 0 1000 1000;"
   xml:space="preserve"
  ><style
     type="text/css"
     id="style3">
	.noFillSVG{fill:none;}
	#l96 .st1{fill:#F70000;}
	#l96 .st2{fill:#D0AC70;}
	#l96 .st3{fill:#929FA5;}
	#l96 .st4{fill:#3D3D3D;}
</style><switch
     id="switch5"
     transform="translate(-23.916261,2.4666925)"><g
       id="g7"><g
         id="g9"><g
           id="g11"><path
             class="noFillSVG"
             d="m 248.7,627.6 -0.3,-1.3 -0.1,1 c 0.1,0.2 0.2,0.4 0.3,0.6 l 0.1,-0.3 z"
             id="path13"
             inkscape:connector-curvature="0"
             style="fill:none" /><path
             class="noFillSVG"
             d="m 300.2,687.3 c -0.1,4.7 -0.1,9.6 0.3,14.4 l 0.3,1 0.8,0.8 c -0.9,-5.3 -1.2,-10.9 -1.4,-16.2 z"
             id="path15"
             inkscape:connector-curvature="0"
             style="fill:none" /><polygon
             class="noFillSVG"
             points="557.7,796.3 557.5,796.1 556.1,796 557.1,796.4 "
             id="polygon17"
             style="fill:none" /><path
             class="noFillSVG"
             d="m 576.9,207.3 -0.9,-0.6 -1.1,-0.2 c 3.7,3.8 7.3,8.1 10.6,12.3 -2.5,-3.9 -5.4,-7.9 -8.6,-11.5 z"
             id="path19"
             inkscape:connector-curvature="0"
             style="fill:none" /><path
             class="noFillSVG"
             d="m 643.8,769.7 1.1,0 1,-0.5 c -5.3,-1.1 -10.7,-2.3 -15.8,-3.7 4.4,1.6 9,3 13.7,4.2 z"
             id="path21"
             inkscape:connector-curvature="0"
             style="fill:none" /><polygon
             class="noFillSVG"
             points="662.3,236.8 663.3,237.6 662.8,236.8 662.2,236.5 "
             id="polygon23"
             style="fill:none" /><path
             class="noFillSVG"
             d="m 814.7,464.2 0.4,-1 -0.1,-1.1 c -2.7,4.7 -5.2,9.4 -8.3,13.9 2.9,-3.7 5.4,-7.7 8,-11.8 z"
             id="path25"
             inkscape:connector-curvature="0"
             style="fill:none" /><polygon
             class="noFillSVG"
             points="314.6,281.2 313.7,281.4 313.2,281.9 313.5,281.9 "
             id="polygon27"
             style="fill:none" /><polygon
             class="noFillSVG"
             points="813.3,554.3 813.1,554.5 812.6,555.7 813.2,555 "
             id="polygon29"
             style="fill:none" /><path
             class="noFillSVG"
             d="m 258.3,354.7 -0.5,0.9 c 4.9,-2.3 9.8,-4.6 14.9,-6.4 -4.7,1.3 -9,3 -13.5,4.8 l -0.9,0.7 z"
             id="path31"
             inkscape:connector-curvature="0"
             style="fill:none" /><path
             d="m 822.8,455.3 c -3.3,-21.1 -11.4,-41 -19,-60.5 -0.1,-0.3 -0.6,-0.2 -0.5,0.1 6.4,19.3 8.3,39.9 10.7,59.7 0,0.1 0,0.1 0,0.2 l 0.5,3.8 c -2.2,3.4 -4.4,6.7 -6.6,10 l -3.4,4.8 c -1.2,1.6 -2.4,3.1 -3.6,4.6 -2.6,3.2 -5.4,6.3 -8,9.4 -2.7,3.1 -5.5,6.1 -7.7,9.3 -0.2,0.2 -0.1,0.5 0,0.6 -2.7,2.3 -5.2,4.5 -7.7,6.9 -0.5,0.5 0.3,1.1 0.8,0.9 6.2,-2.6 13.5,-8.2 20.6,-15.1 3.5,-3.4 6.6,-7.1 9.6,-10.8 2.9,-3.7 5.5,-7.3 7.4,-10.4 -0.4,1 -1.3,2.5 -2.4,4.3 -1.1,1.8 -2.5,3.8 -3.9,5.7 -2.7,3.9 -5.5,7.7 -6.6,9.4 -2.7,3.1 -5.4,6.1 -8.2,9 l -4.1,4.3 -4.3,4.2 c -0.6,0.6 0.2,1.5 0.9,1 1.1,-0.8 2.2,-1.6 3.3,-2.5 -2.5,2.8 -5,5.6 -7.6,8.3 -0.8,0.8 0.6,1.9 1.5,1.3 2.1,-1.5 4.8,-4 7.7,-7.1 1.5,-1.5 3,-3.2 4.5,-5.1 1.5,-1.8 2.9,-3.7 4.4,-5.7 6,-7.8 10.8,-16.6 13.4,-21.7 -0.9,2.6 -2.4,6.2 -4,10.2 -1.6,4 -3.9,8.4 -6,12.7 -2,4.3 -4.4,8.5 -6.3,12.2 -1,1.9 -1.8,3.6 -2.5,5.1 -0.8,1.6 -1.5,2.9 -2,4.1 -0.3,0.6 0.7,1.2 1.1,0.6 1,-1.5 2.1,-3 3.1,-4.5 l 2.8,-4.6 c 1.9,-3.1 3.8,-6.3 5.5,-9.6 3.2,-6.6 6.5,-13.5 8.6,-20.8 0.3,-0.5 1.3,-5.1 1.7,-5.6 1,3.1 -1,8.2 0.1,11.3 -7,14.5 -13.8,29 -21.2,42.1 -0.4,0.7 0.7,1.3 1.2,0.7 2.2,-2.7 4.2,-5.6 6.3,-8.5 1,-1.5 2,-3 3,-4.5 l 2.7,-4.6 c 1.8,-3.1 3.6,-6.4 5.3,-9.6 1.6,-3.3 3.1,-6.6 4.7,-10.1 -0.5,1 0.1,3.7 0.2,4.8 l 0.1,5.9 c -0.2,3.8 -0.4,7.5 -0.6,11.3 -0.1,3.2 -0.6,6.4 -1,9.7 -0.4,3.3 -0.7,6.6 -1.3,9.8 -0.4,2.6 -0.2,5.4 -2.6,6.8 -1.9,1.1 -4.4,1 -6.4,1.6 l -15.4,4.6 c -10.1,3.1 -20.2,6.2 -30.3,9.2 l -0.3,0.1 c -0.1,0.8 1.3,1 2.2,0.8 8.5,-1.6 17.1,-3.7 25.4,-6.2 8.3,-2.5 16.9,-5.4 25,-8.9 0.4,-0.2 0.9,-0.1 1.2,0.2 -1.6,2 -6.4,3.1 -8.9,4 -3.5,1.4 -7,2.7 -10.5,3.9 -6.6,2.4 -13.1,4.7 -19.7,7 -0.8,0.3 -0.5,1.5 0.4,1.3 3.3,-0.8 6.5,-1.7 9.8,-2.7 3.2,-1 6.4,-2.1 9.6,-3.3 6.3,-2.4 12.8,-5 19.1,-7.9 l -0.1,0.9 c -0.4,1.1 -0.9,2.3 -1.4,3.4 -15.2,7.8 -30.5,14.6 -44.9,21.4 -0.4,0.2 -0.2,0.9 0.3,0.8 3.7,-0.9 7.4,-2.1 11.1,-3.3 3.7,-1.3 7.2,-2.8 10.8,-4.4 3.6,-1.6 7.2,-3.3 10.7,-5.2 3.5,-1.9 6.9,-3.9 10.3,-6 l -1.4,3.1 c -5.1,3.1 -10.6,6 -15.9,8.8 -5.2,2.8 -10.4,5.6 -15.6,8.4 -0.9,0.5 -0.2,1.7 0.8,1.4 10.2,-3.4 19.6,-8.8 28.9,-15.1 -0.9,1.7 -2,3.4 -3,5.1 -3.5,3.3 -6.7,6.5 -10.3,9.6 l -10.5,9 c -0.6,0.5 0.1,1.4 0.8,0.9 4.5,-2.8 8.7,-6.1 13,-9.5 -2.9,3.6 -6,7 -9.1,10.2 -0.6,0.6 0.1,1.5 0.9,1 7.2,-5.5 13.4,-12.4 18.1,-20.3 1.4,-1.5 2.9,-2.9 4.3,-4.4 l -0.1,0.7 c -0.8,5.2 -3.2,9.6 -5.3,14.3 -1.3,2.6 -2.5,5.3 -3.7,7.9 l -1.7,4 -1.9,3.9 c -0.3,0.7 -0.4,1.9 0.4,1.9 0.4,0 0.6,-0.3 0.8,-0.6 0.9,-1.4 1.9,-2.8 2.8,-4.2 0.8,-1.4 1.6,-2.9 2.4,-4.4 1.6,-3 3.1,-6 4.4,-9.1 -1.3,7.2 -1,16.4 -4.6,22.9 -0.4,0.7 -0.9,1.7 -1.5,2.1 -0.8,0.5 -1.1,0.1 -1.6,0.3 -1,0.5 -1.8,1.5 -2.8,1.9 -1.7,0.7 -3.5,1.2 -5.2,1.8 -3.3,1 -6.7,1.9 -10,2.6 -6.6,1.5 -13.5,2.4 -20.2,3.2 -0.9,0.1 -0.8,1.2 0.1,1.3 5.6,0.3 11.3,-0.2 17,-1.3 5.5,-1.1 11,-2.9 16.4,-5.1 l -1.6,1 c -11.8,4.3 -24,8.6 -34.4,13.4 -0.8,0.4 -0.1,1.4 0.6,1.3 6.2,-0.8 12.3,-2.4 18.5,-4.6 -4.4,2.9 -8.6,5.9 -12.9,8.8 -0.8,0.6 -0.1,1.8 0.9,1.4 2.1,-1.1 4.2,-2.2 6.3,-3.3 2.1,-1.2 4,-2.4 6.1,-3.7 4,-2.6 8.2,-5.3 12,-8.2 2.7,-1.3 5.5,-2.7 8.1,-4.2 l -0.2,1.5 -1.5,1.6 c -10,9.2 -21.5,16 -33.4,21.3 -0.6,0.3 -0.1,1.2 0.5,1 7.8,-2.3 15.6,-5.9 22.5,-10.8 -4.7,5.4 -9.6,10.7 -13.8,16.3 -0.5,0.7 0.2,1.5 0.9,1 3.7,-3.2 7.4,-6.6 11,-10.2 3.4,-3.7 6.8,-7.5 10.2,-11.4 l -6.6,11.6 c -2.3,3.8 -4.6,7.6 -6.8,11.4 -2.3,4.1 -4.6,8.2 -6.5,12.4 -2,4.2 -4.2,8.3 -6.2,12.5 -4.9,0.8 -10,1.6 -14.8,2.7 -4.8,1.1 -9.5,2.5 -14.1,4.1 -0.8,0.3 -0.6,1.7 0.4,1.5 9.1,-1.4 17.8,-3.8 27.2,-5.9 -5.5,2.4 -10.6,5 -15.8,7.5 -5.4,2.4 -11,4.6 -15.6,7.9 -0.4,0.3 -0.3,1.1 0.3,1 6.2,-0.8 11.8,-4.1 17.5,-6.8 3.5,-1.8 6.9,-3.7 10.4,-5.8 -2.5,2.1 -5,4.1 -7.5,6.2 L 752,682 c -5,4 -10.3,7.5 -15.1,11.5 -0.5,0.4 0.1,1.2 0.6,1.1 4.7,-1.6 9.5,-3.9 14.1,-6.9 4.4,-3.1 8.9,-6.5 12.7,-10.4 -4.6,7.7 -9.5,15.3 -15,22.5 l -2.7,3.7 -2.6,3.5 c -0.5,0.6 -1,1.3 -1.6,1.8 -1.2,1 -2.5,0.8 -3.9,1 l -5.8,0.5 c -3.9,0.3 -7.9,0.5 -11.6,1.2 -0.8,0.2 -1.5,0.3 -2.3,0.5 -0.3,0.1 -0.3,0.5 0,0.6 3.2,0.3 6.5,0.2 9.8,-0.2 1.7,-0.2 3.3,-0.4 5,-0.7 1.6,-0.3 3.3,-0.6 4.9,-0.9 -1.2,0.6 -2.4,1.3 -3.6,1.9 -1.2,0.6 -2.4,1.2 -3.7,1.8 -4.7,2 -9.4,3.5 -14.3,4.8 -0.4,0.1 -0.4,0.7 0.1,0.7 3.7,-0.2 7.7,-1.1 11.8,-2.4 -2.6,1.7 -5.2,3.6 -8.1,5 -0.5,0.2 -0.2,1 0.3,0.8 4.6,-2.1 9.2,-4.7 13.4,-7.9 l 0.8,-0.4 c -3.4,3.1 -6.4,7 -9.1,10.3 -0.3,0.4 0.3,0.8 0.6,0.4 2.3,-2.6 4.8,-5 7.3,-7.3 l -1.6,3.3 c 0,0.1 0.1,0.1 0.1,0 l 1.8,-3.7 1.5,-1.4 c -2.4,3.9 -4.6,8.1 -7,12.1 -0.2,0.4 0.3,0.8 0.6,0.4 3,-5 6.2,-9.8 8.7,-14.8 l 0.4,-0.5 c -2.2,4.9 -3.6,10 -4.2,15.5 0,0.2 0.2,0.2 0.2,0 0.7,-4.9 2.2,-9.3 4,-13.7 -0.3,4.1 0,8.5 0.9,12.1 0.1,0.3 0.4,0.2 0.4,-0.1 -0.1,-3 -0.5,-5.8 -0.4,-8.8 l 0.2,-3.6 c 0,-0.6 -0.1,-1.3 0,-1.9 0.1,-1.1 1.3,-1.8 1.9,-2.5 0.9,-1 1.9,-2 2.8,-3 2.6,-2.9 5,-5.9 7.4,-8.9 2.4,-3 5,-5.9 7.2,-9 2.4,-3.3 5,-6.5 7.4,-9.8 -1.1,3.9 -2.1,7.8 -3.2,11.7 -1,4 -2.1,7.8 -3.4,11.5 -0.2,0.5 0.6,0.8 0.9,0.3 0.8,-1.8 1.6,-3.7 2.4,-5.6 0.7,-1.9 1.5,-3.9 2.2,-5.8 1.4,-3.9 3,-7.8 4,-11.8 -0.6,4.3 -1.3,8.5 -1.7,12.8 -0.3,4.4 -0.7,8.7 -1,12.8 0,0.6 0.9,0.5 0.9,-0.1 0.4,-3.1 0.8,-6.3 1.3,-9.4 0.5,-3.1 1.1,-6.1 1.7,-9.1 1.2,-6 2.2,-12 3.1,-18 l 0.5,-0.8 0.1,0.6 c -0.3,4.9 -0.4,9.9 -0.5,15 -0.1,5.1 -0.5,10.1 -0.9,15.1 -0.1,0.8 1.1,1 1.2,0.2 0.5,-3.7 1.1,-7.6 1.6,-11.4 0.4,-3.9 0.8,-7.8 1,-11.6 1.7,4.1 3.8,8.2 5.8,11.8 0.3,0.5 1.1,0 0.9,-0.5 -1.9,-4 -3.6,-8 -5,-12.1 -0.5,-1.5 -1,-3.1 -1.4,-4.7 -1.8,-6 3.1,-11.8 5.8,-16.6 2,-3.8 4,-7.6 6,-11.4 1.8,-4 3.8,-8 5.8,-11.9 l 5.8,-11.9 c -0.4,3.4 -0.7,6.8 -1.1,10.2 -0.3,3.5 -0.9,6.8 -1.3,10.3 -0.8,6.9 -2.1,13.7 -3.5,20.5 -0.2,0.8 0.9,1.1 1.1,0.3 1.6,-6.5 3.4,-13 4.6,-19.6 0.6,-3.3 1.4,-6.5 1.9,-9.9 0.5,-3.3 0.9,-6.6 1.3,-9.9 0,5.9 0.3,12 0.2,17.9 0,6 0.1,12.1 -0.3,18.1 -0.1,1 1.4,1 1.5,0 0.8,-12.5 1.5,-24.8 1.4,-36.9 1.2,5.5 2.8,11.2 4.4,16.8 1.6,5.6 3.1,11.2 4.6,16.5 0.2,0.6 1.1,0.3 0.9,-0.3 -1.9,-8.2 -3.8,-16.4 -5.7,-24.7 -0.8,-3.5 -1.4,-7 -2.1,-10.5 -0.8,-3.5 -1.6,-7 -2.7,-10.3 l 1,-2.1 1.9,2.5 c 2,4.6 4.4,9.3 6.1,14.1 1.4,4.1 2.7,8.3 3.9,12.6 0.6,2.1 1.2,4.3 1.7,6.5 0.5,2.2 0.9,4.4 1.4,6.6 0.2,0.9 1.5,0.4 1.4,-0.5 -0.8,-4.7 -1.9,-9.3 -3.1,-13.9 -1.2,-4.6 -2.4,-8.9 -4,-13.3 -0.4,-1.1 -0.8,-2.3 -1.2,-3.5 0.6,1 1.3,1.9 1.8,2.9 4.5,7.9 7.6,16.4 10.2,25.7 0.3,1.1 2,0.5 1.7,-0.6 -1.7,-6.8 -3.8,-14.1 -6.8,-20.9 -3.1,-6.9 -6.9,-13.3 -11.4,-18.5 -0.6,-1.2 -1.2,-2.4 -1.9,-3.6 -1.1,-1.9 1.7,-6.3 2.5,-8 1.9,-3.9 3.5,-8.1 4.8,-12.3 1.8,-5.7 2.5,-11.8 4.1,-17.6 l 0.5,-3 c 2,12.9 5.1,26.5 7.2,39.2 0.1,0.6 1,0.5 0.9,-0.2 -2.5,-17.5 -3.5,-34.2 -6.8,-50.5 0,-0.3 0.1,-0.5 0.1,-0.8 0.4,-0.4 0.3,-0.9 0.1,-1.3 l 0,-0.3 c 4.9,16.8 11.6,34 18.3,51 0.3,0.8 1.4,0.2 1.1,-0.6 -6.5,-17.5 -11.4,-34.3 -17.1,-50.8 2.9,6.2 6.5,12.5 10,18.8 3.4,6.3 7,12.7 10.1,19 0.6,1.2 2.4,0.1 1.8,-1.1 -3.3,-6.6 -6.4,-13.2 -9.4,-19.6 -3.3,-6.5 -6.5,-12.8 -10.3,-18.6 2.9,3.3 5.6,6.6 8.2,10.3 2.4,3.6 4.9,7.4 7,11.3 2.1,3.9 4,7.9 5.9,12.1 0.2,0.5 0.9,0.1 0.7,-0.4 -1.9,-4.4 -3.9,-8.7 -6,-12.9 -2.2,-4.2 -4.6,-8.2 -7.1,-12 -1.9,-2.9 -3.8,-6 -6.1,-9 9,5.9 17.7,11.8 26.1,19 0.5,0.4 1.2,-0.4 0.7,-0.8 -4.9,-4.3 -9.8,-8.6 -14.9,-12.6 -5.2,-4 -10.6,-7.6 -16.1,-10.8 -0.6,-0.7 -1.2,-1.3 -1.9,-1.9 0.9,-11.7 0.9,-23.4 1.3,-35.1 1.7,5.3 3.7,10.6 5.5,16 1.8,5.4 3.6,10.8 5.3,16.1 0.2,0.8 1.2,0.3 1.1,-0.5 -3.5,-13.8 -7,-27.1 -11.8,-39.9 0,-1.7 0.1,-3.3 0.1,-5 2.5,6.6 5.5,13.4 7.9,20.1 1.3,3.4 2.7,6.8 3.8,10.1 1.1,3.4 2.3,6.8 3.4,10 0.2,0.6 1,0.2 0.8,-0.4 -1.9,-6.4 -3.6,-12.6 -5.8,-18.8 -1,-3.1 -2,-6.1 -3,-9.2 l -3.3,-9.1 c -0.6,-1.7 -1.2,-3.5 -1.8,-5.2 -0.6,-1.7 -1.3,-3.5 -1.9,-5.2 0,-1.1 0,-2.2 0.1,-3.3 l 0.1,-0.4 2,3.6 c 1.7,3.4 3.4,6.7 5.1,10.1 1.7,3.4 3.6,6.7 5.6,10.1 1.8,3.3 3.7,6.7 5.6,10 1.9,3.3 4,6.6 5.8,9.9 0.5,0.8 1.6,-0.1 1.1,-1 -0.8,-1.4 -1.5,-2.8 -2.3,-4.1 0.3,-0.1 0.6,-0.4 0.4,-0.8 -2.7,-4.8 -5.2,-9.5 -7.7,-14.2 -2.6,-4.7 -5.2,-9.3 -7.6,-13.9 -2.2,-4.5 -4.5,-9.1 -6.6,-13.6 0.4,-0.9 -2,-5.1 -1.8,-5.9 5.5,6.4 14,16.3 19.6,22.9 2.8,3.6 5.5,7.2 8.3,10.8 2.7,3.7 5.2,7.4 7.8,11.1 0.4,0.5 1.1,-0.1 0.7,-0.7 l -4.8,-7.3 c 1.1,1.4 2.2,2.8 3.3,4.2 0.7,0.9 2,-0.3 1.3,-1.2 l -4.6,-6 -4.8,-5.9 c -3.2,-3.9 -6.2,-7.8 -9.4,-11.6 6,5.8 12,11.5 18,17.1 0.4,0.4 1,-0.4 0.6,-0.8 -3.3,-3.2 -6.4,-6.4 -9.4,-9.7 -1.5,-1.6 -3,-3.2 -4.5,-4.8 l -4.6,-4.8 c -2.9,-3.2 -5.9,-6.3 -8.8,-9.5 -3,-3.1 -6.1,-6.2 -9.1,-9.1 -1.2,-1.2 0.8,-3.5 -0.5,-4.7 6.2,6.1 13.5,12.1 20.4,18 3.5,2.9 7.1,5.9 10.8,8.7 3.6,2.9 7.1,5.8 10.6,8.6 0.1,0.1 0.3,-0.1 0.1,-0.2 -14.8,-12.4 -28.2,-25.5 -42.1,-37.6 z m -9.6,99.7 -0.7,0.7 0.5,-1.2 0.3,-0.2 -0.1,0.7 z m 1.9,-91.8 -0.4,1 c -2.6,4.1 -5.1,8 -8.1,11.8 3.1,-4.5 5.7,-9.2 8.3,-13.9 l 0.2,1.1 z"
             id="path33"
             inkscape:connector-curvature="0" /><path
             d="m 706.3,737.5 c -16.4,12 -35.4,20.1 -53.6,28.5 -0.1,0 -0.1,0 -0.2,0.1 l -3.5,1.7 c -7.8,-1.9 -15.4,-4.3 -22.6,-6.8 -3.9,-1.5 -7.7,-3.2 -11.5,-4.9 -1.9,-0.8 -3.7,-1.6 -5.6,-2.3 -1.9,-0.7 -3.8,-1.5 -5.7,-2.1 -0.3,-0.1 -0.5,0 -0.6,0.2 -3,-1.9 -6,-3.7 -9,-5.1 -0.6,-0.3 -1,0.7 -0.6,1.1 4.3,4.9 12.1,10.4 20.7,14.8 4.3,2.1 8.9,4.1 13.3,5.8 4.4,1.7 8.5,2.8 12.1,3.7 -2.2,-0.3 -6.8,-1.3 -11.4,-2.8 -4.6,-1.4 -9.1,-3 -11.1,-3.5 -3.7,-1.4 -7.5,-3.1 -11.1,-4.9 -3.6,-1.7 -7.2,-3.5 -10.7,-5.2 -0.8,-0.4 -1.4,0.6 -0.7,1.2 1.1,0.9 2.3,1.6 3.4,2.4 -3.4,-1.3 -6.9,-3.1 -10.3,-4.7 -1,-0.5 -1.6,1.1 -0.7,1.8 2.1,1.6 5.3,3.4 9.2,5.3 3.8,1.8 8.3,3.5 13,5.1 4.7,1.7 9.4,2.8 13.7,3.9 4.3,1 8.3,1.9 11,2.2 -2.7,0.1 -6.6,-0.4 -10.9,-0.7 -2.1,-0.2 -4.4,-0.4 -6.8,-0.7 -2.3,-0.2 -4.8,-0.7 -7.1,-1 -9.5,-1.3 -18.8,-3.3 -23.8,-3.5 -0.7,0 -0.9,1.1 -0.2,1.3 6.9,1.8 14.1,3.9 21.3,4.9 3.6,0.6 7.4,1.2 11.1,1.4 3.7,0.2 7.5,0.4 11.4,0.4 0.6,0.2 5.2,-0.2 5.8,-0.2 -2.5,2.1 -8.2,1.5 -10.7,3.6 -2,-0.2 -4,-0.5 -5.9,-0.7 -2,-0.2 -4,-0.6 -6,-0.8 -3.9,-0.5 -7.9,-1 -11.8,-1.6 -7.9,-1.3 -15.5,-2.3 -22.9,-4 -0.7,-0.1 -1,1.1 -0.3,1.4 13.2,5.3 27.5,7.7 42.4,9.4 -1.1,-0.1 -3.5,1.2 -4.6,1.6 l -5.6,1.8 c -1.8,0.6 -3.6,1.1 -5.4,1.6 l -5.5,1.3 c -3.1,0.7 -6.3,1.5 -9.5,2.2 -3.2,0.6 -6.5,1.2 -9.7,1.7 -2.6,0.5 -5.2,1.7 -7.3,-0.3 -1.6,-1.5 -2.3,-3.9 -3.5,-5.6 l -9.2,-13.2 c -6,-8.6 -12.1,-17.2 -18.2,-25.8 l -0.2,-0.3 c -0.8,0.1 -0.6,1.5 -0.1,2.4 4.2,7.5 8.8,14.8 13.8,22.1 5,7.3 10.4,14.1 16.2,21 0.3,0.3 0.3,0.8 0.1,1.2 -2.4,-0.9 -4.9,-5.3 -6.6,-7.3 -2.4,-2.9 -4.7,-5.7 -7,-8.6 -4.3,-5.5 -8.5,-11.1 -12.8,-16.6 -0.5,-0.7 -1.6,0 -1.1,0.8 7,11.3 15.7,22.1 25,32.1 l -0.9,0.1 c -1.2,-0.1 -2.4,-0.1 -3.6,-0.2 l -4.5,-4.4 -4.4,-4.6 -8.7,-9.1 c -5.7,-6 -11.2,-12.2 -16.6,-17.8 -0.3,-0.3 -1,0.1 -0.7,0.6 4.1,6.4 8.8,12.5 14.1,18.5 5.3,5.8 11,11.2 17.1,16.6 -1.1,-0.1 -2.2,-0.3 -3.4,-0.5 -4.6,-4.1 -9,-8.2 -13.3,-12.3 -4.3,-4.2 -8.6,-8.4 -12.8,-12.2 -0.7,-0.7 -1.7,0.3 -1.1,1.2 6.3,8.3 14.5,16.1 23.3,22.6 -1.9,-0.4 -3.9,-0.8 -5.8,-1.2 -4.2,-2.1 -8.3,-4.6 -12.3,-6.9 -4,-2.3 -7.9,-4.8 -11.8,-7.3 -0.7,-0.4 -1.3,0.6 -0.6,1.1 4.1,3.4 8.5,6.7 13.1,9.4 -4.3,-1.5 -8.5,-3.4 -12.5,-5.6 -0.7,-0.4 -1.4,0.7 -0.7,1.2 7.4,5.4 15.9,8.9 24.9,11 l 5.6,2.6 -0.7,0.1 c -2.6,0.5 -5.1,0.6 -7.6,0.4 -2.5,-0.3 -5.1,-0.7 -7.6,-1 -5.8,-0.5 -11.6,-1.4 -17.3,-2 -0.8,-0.1 -1.9,0.3 -1.6,1 0.1,0.3 0.5,0.5 0.8,0.5 6.4,1.7 13,3.1 19.7,3.6 -7.2,1.3 -15.9,4 -23.2,2.8 -0.8,-0.2 -1.9,-0.4 -2.5,-0.9 -0.7,-0.6 -0.4,-1 -0.8,-1.5 -0.8,-0.8 -1.9,-1.3 -2.7,-2.1 -1.2,-1.4 -2.3,-2.9 -3.3,-4.4 -2,-2.8 -3.9,-5.6 -5.6,-8.7 -3.5,-6 -6.5,-12.2 -9.3,-18.2 -0.4,-0.8 -1.4,-0.4 -1.2,0.5 1.5,5.5 3.7,10.6 6.5,15.6 2.8,5 6.1,9.8 9.9,14.1 l -1.5,-1.1 c -7.8,-10 -15.6,-20.1 -23.4,-28.7 -0.6,-0.6 -1.4,0.3 -1,1 2.7,5.5 6.1,11 10,16.2 -4.1,-3.2 -8.2,-6.6 -12.3,-9.6 -0.8,-0.6 -1.8,0.5 -1.1,1.3 3.3,3.3 6.8,6.4 10.5,9.6 3.7,3 7.5,5.9 11.5,8.8 2.1,2.3 4.3,4.4 6.5,6.4 l -1.5,0.3 -2,-0.9 c -5.9,-3.6 -11.4,-7.2 -16.4,-11.5 -5,-4.4 -9.8,-8.7 -14.1,-13.7 -0.4,-0.5 -1.2,0.2 -0.8,0.7 4.6,7.1 10.4,12.8 17.2,18.2 -6.6,-3.1 -13.2,-5.6 -19.7,-8.3 -0.8,-0.3 -1.4,0.7 -0.6,1.2 2.1,1.3 4.2,2.6 6.4,3.9 2.2,1.2 4.4,2.3 6.7,3.4 2.3,1.1 4.6,2.2 6.9,3.3 l 7.1,2.9 -6.5,-1.2 c -2.2,-0.4 -4.3,-1 -6.5,-1.5 l -13,-2.9 c -9.3,-1.9 -18.4,-3 -27.7,-4.4 -2.3,-4.6 -4.6,-9 -7.2,-13.2 -2.5,-4.3 -5.2,-8.5 -8.2,-12.2 -0.5,-0.7 -1.8,0 -1.4,0.8 2.1,4 4.4,8 6.7,12 2.3,4.1 4.8,7.9 7.3,11.9 -2,-2.2 -4,-4.3 -6,-6.3 l -6,-6.3 c -2,-2.1 -4,-4.3 -6,-6.4 -2,-2.2 -4.1,-4.3 -6.4,-5.9 -0.4,-0.3 -1.1,0.1 -0.8,0.6 2.8,5.5 7.4,10.2 11.8,14.5 2.8,2.8 5.6,5.7 8.6,8.2 -2.8,-1.6 -5.5,-3.5 -8.2,-5.3 -2.7,-1.8 -5.4,-3.6 -8,-5.4 -5.2,-3.9 -10.4,-7.3 -15.5,-10.9 -0.5,-0.4 -1.1,0.4 -0.8,0.9 1.5,2 3.1,4.1 4.9,6 1.8,1.8 3.8,3.6 5.9,5.3 4.2,3.5 8.9,6.4 13.8,9 -8.8,-1.9 -17.5,-4.4 -26.1,-7.2 -2.8,-1 -5.7,-2 -8.6,-3 -0.8,-0.2 -1.5,-0.5 -2.2,-0.9 -1.4,-0.8 -1.5,-2.1 -2.1,-3.4 l -2.2,-5.5 c -1.5,-3.7 -3,-7.1 -4.8,-10.6 -0.4,-0.7 -0.8,-1.4 -1.2,-2.1 -0.2,-0.3 -0.6,-0.1 -0.5,0.2 1.2,6.4 4.6,12.2 7.8,18.2 -1.9,-2 -3.9,-3.8 -5.7,-5.8 -3.5,-3.6 -6.1,-8.1 -8.9,-12.1 -0.2,-0.4 -0.8,-0.1 -0.6,0.3 1.4,3.3 3.4,7 5.9,10.5 -2.5,-2 -4.9,-4 -7.1,-6.2 -0.4,-0.4 -1,0.2 -0.6,0.6 3.5,3.6 7.2,7.5 11.6,10.3 l 0.6,0.6 c -2,-1.1 -4.2,-2 -6.4,-2.9 -2.1,-0.9 -4.3,-1.8 -6.3,-2.6 -0.5,-0.2 -0.7,0.5 -0.2,0.7 3.1,1.4 6.1,3.2 9.2,4.8 l -3.6,-0.4 c -0.1,0 -0.1,0.1 0,0.1 l 4.1,0.5 1.8,0.9 -6.8,-1.4 c -2.3,-0.5 -4.5,-1.1 -6.8,-1.6 -0.4,-0.1 -0.6,0.5 -0.2,0.7 2.8,0.7 5.5,1.5 8.3,2.1 2.8,0.6 5.6,1.1 8.4,1.5 l 0.5,0.2 c -5.3,-0.6 -10.8,-0.1 -16,0.8 -0.2,0 -0.1,0.3 0.1,0.2 4.8,-0.6 9.6,-0.8 14.3,-0.4 -4,1 -8.2,2.7 -11.3,4.8 -0.2,0.2 0,0.5 0.2,0.4 2.8,-1.1 5.4,-2.3 8.3,-3.2 1.1,-0.4 2.3,-0.7 3.5,-0.9 0.6,-0.1 1.2,-0.4 1.8,-0.5 1,-0.2 2.1,0.7 2.9,1.2 1.2,0.7 2.5,1.1 3.8,1.6 l 10.7,4.4 10.8,4 c 3.8,1.5 7.7,2.6 11.6,3.9 -4,0.1 -8.1,0.6 -12.2,0.7 -4,0.1 -8.1,0.3 -12,0.3 -0.5,0 -0.6,0.9 0,0.9 4,0.3 8.1,0.6 12.3,0.9 4.2,0.2 8.4,0.2 12.5,0.1 -4.2,0.6 -8.5,1.5 -12.8,2.5 -4.2,0.9 -8.4,1.9 -12.4,2.9 -0.6,0.2 -0.2,1 0.4,0.9 6.3,-1.3 12.3,-1.9 18.5,-2.8 3,-0.4 6,-0.7 9.1,-1.1 3,-0.4 6,-1 9,-1.5 l 0.9,0.2 -0.5,0.3 c -4.8,1.3 -9.6,2.8 -14.5,4.1 -4.8,1.3 -9.8,2.9 -14.7,3.9 -0.8,0.2 -0.6,1.3 0.2,1.2 3.7,-0.6 7.6,-1.4 11.4,-2.1 3.8,-0.7 7.5,-1.4 11.3,-2.5 -3.4,3 -6.6,6.2 -9.4,9.1 -0.4,0.4 0.4,1.1 0.8,0.7 3.2,-2.9 6.5,-5.8 10,-8.5 1.3,-1 2.7,-1.9 4,-2.9 2.6,-1.8 5.6,-1.8 8.7,-1.4 3.1,0.3 6.2,1.3 8.9,1.9 4.2,1 8.4,1.5 12.7,2.1 2.2,0.3 4.4,0.7 6.5,1 l 6.5,0.9 c 4.4,0.6 8.7,1.4 13.1,1.9 l -5,1.1 -5,1 c -3.4,0.7 -6.8,1.4 -10.2,2 -3.4,0.5 -6.9,1.1 -10.3,1.6 -3.4,0.5 -6.9,1 -10.3,1.3 -0.8,0.1 -0.8,1.2 0,1.2 3.3,-0.1 6.7,-0.4 10.1,-0.7 3.3,-0.3 6.7,-0.6 10,-0.9 3.3,-0.5 6.7,-0.9 10,-1.4 l 4.9,-0.8 c 1.6,-0.3 3.3,-0.7 4.9,-1 -11.2,3.8 -22.7,7.7 -34.4,11 -1,0.3 -0.5,1.7 0.5,1.4 6.1,-1.7 12.1,-2.9 18,-4.7 5.9,-1.7 11.8,-3.3 17.5,-5.3 -2.5,1.5 -4.9,3.1 -7.4,4.6 -2.4,1.5 -4.9,3.1 -7.3,4.7 -4.8,3.2 -9.7,6.6 -14.3,9.5 -0.5,0.3 0,1.1 0.6,0.8 3.6,-2.1 7.3,-4.4 10.9,-6.6 3.6,-2.2 7.2,-4.3 10.8,-6.4 6.2,-3.8 12.6,-6.9 18.3,-11 l 2.3,0.2 -1.8,2.7 c -3.8,3.5 -7.5,7 -11.5,10.1 -3.5,2.6 -7.1,5.3 -10.8,7.7 -3.7,2.4 -7.5,4.7 -11.5,6.9 -0.8,0.5 0.1,1.6 0.9,1.1 4.2,-2.3 8.3,-4.7 12.2,-7.1 4,-2.6 7.8,-5.3 11.5,-8 1,-0.7 1.9,-1.4 2.9,-2.2 -0.7,0.9 -1.4,1.8 -2.2,2.6 -6.1,6.6 -13.3,12.6 -21.3,17.5 -1,0.6 0.1,2 1.1,1.4 3,-1.8 6,-3.7 9,-5.9 3,-2.2 6,-4.6 8.8,-7 2.8,-2.5 5.4,-5 7.8,-7.8 2.4,-2.8 4.5,-5.7 6.2,-8.7 1,-0.9 1.9,-1.9 2.8,-2.9 1.5,-1.6 6.5,-0.2 8.4,0 4.3,0.4 8.8,0.9 13.2,0.8 3,-0.1 6,-0.5 9,-0.8 3,-0.3 6,-0.6 9,-0.8 l 3,-0.5 c -11.8,6.5 -23.9,13.1 -35,19.1 -0.6,0.3 -0.1,1.1 0.5,0.8 15.9,-7.7 31.4,-14.2 46,-22.1 0.3,-0.1 0.5,-0.1 0.8,-0.2 0.5,0.2 1,0 1.3,-0.3 l 0.3,-0.1 c -14.4,9.9 -28.7,21.9 -42.8,33.1 -0.6,0.5 0.3,1.4 0.9,0.9 7.3,-5.6 14.6,-11.2 21.8,-16.3 3.6,-2.6 7.1,-5.2 10.7,-7.9 1.8,-1.3 3.5,-2.5 5.3,-3.9 1.7,-1.3 3.5,-2.7 5.2,-4 -5,5 -9.9,10.1 -14.8,15.4 -4.9,5.4 -9.9,10.5 -15,15.5 -1,0.9 0.6,2.3 1.6,1.3 2.6,-2.6 5.3,-5 7.9,-7.5 2.6,-2.5 5.2,-5.1 7.8,-7.6 2.6,-2.5 5.1,-5 7.6,-7.6 2.4,-2.6 4.8,-5.3 7,-8 -2.3,3.7 -4.5,7.5 -7.2,11.1 -2.7,3.4 -5.5,6.7 -8.6,10 -3,3.3 -6.3,6.5 -9.7,9.4 -0.4,0.3 0.2,0.9 0.6,0.5 3.6,-3 7.1,-6.4 10.4,-9.8 3.3,-3.4 6.4,-6.7 9.2,-10.4 2.2,-2.8 4.5,-5.7 6.6,-8.6 -2.8,10.2 -5.7,20.8 -9.9,30.7 -0.2,0.6 0.7,1 1,0.4 2.6,-5.8 5.1,-12 7.3,-18.2 2.2,-6.2 4,-12.4 5.3,-18.6 0.4,-0.8 0.9,-1.6 1.3,-2.4 5.7,-1.7 11.3,-3 16.9,-4.7 l 8.4,-2.5 4.2,-1.2 4.2,-1.4 c -8.9,6.9 -18,13.8 -27.2,20.3 -0.6,0.5 0.1,1.3 0.8,0.9 l 9,-5.6 8.7,-5.9 c 5.8,-3.8 11.2,-8.1 16.6,-12.1 1.6,-0.4 3.2,-0.9 4.8,-1.5 -5.5,4.6 -11.1,9.3 -16.6,13.8 -5.7,4.4 -11.2,9.2 -16.9,13.1 -0.5,0.4 0.1,1 0.6,0.7 5.5,-3.5 10.8,-7.6 16.1,-11.3 5.3,-3.8 10.3,-7.9 15.4,-11.6 2.9,-2.3 5.8,-4.6 8.7,-6.8 1.1,-0.3 2.1,-0.6 3.2,-0.9 l 0.4,0 -2.8,3 c -2.7,2.6 -5.4,5.3 -8,8.1 -2.7,2.7 -5.3,5.4 -7.9,8.3 -5.1,5.8 -10.3,11.3 -15.3,17.2 -0.6,0.7 0.6,1.4 1.3,0.7 1.1,-1.2 2.2,-2.3 3.2,-3.5 0.2,0.3 0.6,0.4 0.9,0.1 1.9,-2 3.7,-3.9 5.6,-5.9 1.8,-2 3.7,-3.9 5.5,-5.9 3.6,-4 7.3,-7.5 10.9,-11.5 3.6,-3.6 7.3,-6.9 10.9,-10.4 0.9,0 4.2,-3.6 5.1,-3.5 -4.3,7.2 -11.3,18.1 -15.7,25.8 -2.6,3.7 -5.2,7.4 -7.7,11.1 -1.3,1.9 -2.7,3.7 -4,5.6 -1.3,1.8 -2.7,3.6 -4.1,5.4 -0.4,0.5 0.5,1 0.9,0.5 1.8,-2.2 3.7,-4.5 5.4,-6.8 -1,1.5 -1.9,3.1 -2.9,4.5 -0.6,0.9 0.9,1.8 1.6,0.8 l 8.4,-12.7 c 2.8,-4.1 5.4,-8.4 8.1,-12.6 -3.6,7.6 -7.2,15.1 -10.6,22.4 -0.2,0.5 0.7,0.8 0.9,0.3 2,-4.1 4.2,-8 6.3,-11.8 2.1,-4 4.2,-7.8 6.3,-11.6 4.3,-7.5 8.3,-15.2 12.1,-22.7 0.8,-1.5 3.6,-0.3 4.3,-2 -1.9,4.1 -3.8,8 -5.6,12.2 -1.8,4.1 -3.5,8.5 -5.2,12.7 -3.5,8.4 -6.6,17.3 -9.9,25.7 -0.1,0.2 0.2,0.2 0.3,0.1 3.7,-9.1 7.5,-18 11.5,-26.4 1.9,-4.3 3.9,-8.6 5.8,-12.9 1,-2.1 1.9,-4.2 2.9,-6.3 0.9,-2.2 1.8,-4.3 2.7,-6.5 19.1,-9.6 35.5,-23.4 51.8,-36.6 0.2,0 -0.1,-0.4 -0.3,-0.2 z m -149.2,58.9 -0.9,-0.4 1.3,0.1 0.3,0.2 -0.7,0.1 z m 87.8,-26.7 -1.1,0 c -4.7,-1.2 -9.3,-2.5 -13.7,-4.1 5.2,1.4 10.5,2.6 15.8,3.7 l -1,0.4 z"
             id="path35"
             inkscape:connector-curvature="0" /><path
             d="m 215,463.6 c 0,-0.8 0,-1.6 0.2,-2.4 0.4,-1.5 1.5,-2.1 2.6,-3.1 l 4.4,-3.8 c 3,-2.5 6.1,-5 8.7,-7.8 0.5,-0.6 1.1,-1.2 1.6,-1.8 0.2,-0.2 -0.1,-0.6 -0.4,-0.4 -5.5,3.2 -10.5,8.1 -14.9,13 1.2,-2.4 2.3,-4.9 3.7,-7.2 2.6,-4.4 5.6,-8.3 8.8,-12.2 0.3,-0.3 -0.1,-0.8 -0.5,-0.5 -2.8,2.3 -5.5,5.4 -8.1,8.8 1.1,-3 2.1,-5.9 3.6,-8.7 0.3,-0.5 -0.4,-0.9 -0.7,-0.4 -2.5,4.4 -4.7,9.2 -6.2,14.2 l -0.4,0.8 c 0.9,-4.5 1.1,-9.4 1.3,-13.7 0,-0.5 -0.7,-0.5 -0.7,0 -0.3,3.4 -1,6.8 -1.6,10.2 l -0.7,-3.6 c 0,-0.1 -0.1,0 -0.1,0 l 0.7,4.1 -0.4,2 c -0.3,-4.6 -0.9,-9.2 -1.4,-13.9 0,-0.5 -0.7,-0.4 -0.7,0 0.5,5.8 0.7,11.5 1.7,17.1 l 0,0.6 c -1.2,-5.3 -2.9,-10.3 -5.7,-15 -0.1,-0.1 -0.3,0 -0.2,0.1 2.3,4.4 3.6,8.8 4.8,13.5 -2.2,-3.5 -5,-6.9 -7.9,-9.3 -0.2,-0.2 -0.5,0.1 -0.3,0.3 1.8,2.3 3.8,4.5 5.5,6.9 0.7,1 1.4,2 2,3 0.3,0.5 0.8,1 1.1,1.5 0.5,0.9 0,2.2 -0.1,3.2 -0.2,1.4 -0.3,2.7 -0.4,4.1 -0.4,3.8 -0.5,7.7 -0.8,11.5 -0.2,3.8 -0.5,7.7 -0.5,11.6 -0.1,4.1 -0.3,8.2 -0.2,12.2 -1.4,-3.8 -2.9,-7.6 -4.3,-11.4 -0.7,-1.9 -1.5,-3.8 -2.2,-5.7 -0.6,-1.9 -1.2,-3.8 -1.8,-5.6 -0.2,-0.5 -1,-0.3 -0.9,0.3 0.5,1.9 0.9,3.9 1.4,5.9 0.5,2 1.1,4 1.6,6 1.1,4 2.1,8 3.7,11.9 -2,-3.8 -3.9,-7.6 -6.2,-11.4 -2.2,-3.7 -4.6,-7.4 -6.7,-10.9 -0.3,-0.5 -1,0.1 -0.7,0.6 3.1,5.6 5.9,11.2 8.3,16.7 2.6,5.5 5.3,11 8.1,16.4 0,0.3 0,0.6 0.1,0.9 l -0.5,-0.4 c -2.6,-4.1 -5.4,-8.3 -8.4,-12.5 -3,-4.2 -5.5,-8.4 -8.1,-12.8 -0.4,-0.7 -1.4,-0.2 -1.1,0.6 1.8,3.3 3.6,6.8 5.4,10.2 1.9,3.4 3.9,6.7 5.9,10 -3.8,-2.4 -7.9,-4.4 -11.6,-6.2 -0.5,-0.2 -0.9,0.7 -0.4,0.9 3.8,2.1 7.6,4.4 11.2,6.9 1.3,0.9 2.6,1.9 3.9,2.9 5.1,3.8 4.4,11.4 5.1,16.8 l 1.8,12.7 c 0.9,4.3 1.6,8.7 2.3,13 0.7,4.3 1.6,8.6 2.3,13 -1.7,-3 -3.4,-5.9 -5.2,-8.9 -1.7,-3 -3.3,-6 -5,-9.1 -3.4,-6.1 -6.3,-12.3 -9.2,-18.7 -0.3,-0.7 -1.4,-0.4 -1.1,0.4 2.5,6.2 4.9,12.5 7.8,18.6 1.4,3.1 2.7,6.1 4.3,9.1 1.6,3 3.2,5.9 4.8,8.8 -3.5,-4.8 -7.3,-9.5 -10.7,-14.4 -3.5,-4.9 -7.2,-9.8 -10.4,-14.9 -0.6,-0.9 -1.8,0 -1.2,0.9 6.7,10.6 13.3,21 20.6,30.7 -4.2,-3.8 -8.9,-7.4 -13.5,-11 -4.6,-3.6 -9.1,-7.2 -13.4,-10.7 -0.5,-0.4 -1.1,0.4 -0.6,0.8 6.4,5.5 12.7,11 19.1,16.6 2.7,2.4 5.3,4.8 7.9,7.2 2.7,2.4 5.4,4.7 8.3,6.8 l 0.5,2.3 -3.1,-0.9 c -4.4,-2.5 -9.1,-4.9 -13.2,-7.8 -3.5,-2.5 -7.1,-5.1 -10.6,-7.9 -1.7,-1.4 -3.5,-2.8 -5.2,-4.3 -1.7,-1.5 -3.3,-3 -5,-4.5 -0.7,-0.6 -1.5,0.5 -0.8,1.2 3.4,3.3 7,6.4 10.6,9.4 3.7,3 7.3,5.8 11,8.4 1,0.7 2,1.4 3,2.1 -1.1,-0.4 -2.2,-0.8 -3.2,-1.2 -8.2,-3.7 -15.9,-8.8 -23.3,-14.8 -0.9,-0.7 -1.9,0.7 -1,1.5 5.3,4.5 11.4,9.1 17.8,12.9 6.6,3.8 13.5,6.7 20.1,8.2 1.2,0.6 2.4,1.2 3.6,1.8 2,0.9 2.4,6.1 2.8,7.9 0.8,4.3 1.8,8.7 3.3,12.7 1,2.8 2.2,5.6 3.4,8.4 1.2,2.8 2.6,5.5 3.6,8.2 l 1.4,2.7 c -2.3,-2.3 -4.8,-4.6 -7.2,-6.9 -2.4,-2.3 -4.9,-4.6 -7.3,-6.9 -2.5,-2.3 -5,-4.6 -7.4,-6.8 -2.4,-2.3 -4.7,-4.6 -7,-6.8 -0.5,-0.4 -1.1,0.2 -0.6,0.7 6,6.4 12,12.7 17.6,18.9 2.9,3.1 5.9,6.1 8.7,9.1 1.5,1.5 2.9,3 4.3,4.5 l 4.6,4.3 c 0.1,0.2 0.3,0.4 0.4,0.7 0,0.6 0.3,0.9 0.7,1.1 l 0.2,0.3 c -7,-5.3 -14.2,-10.5 -21.9,-15.5 -3.8,-2.5 -7.6,-5 -11.4,-7.5 -3.8,-2.5 -7.8,-4.9 -11.5,-7.4 -0.7,-0.4 -1.2,0.7 -0.5,1.1 15.6,10.2 29.2,21 43.7,30.9 -3.1,-1.6 -6.2,-3.2 -9.5,-4.7 -3.2,-1.5 -6.5,-3.1 -9.7,-4.6 -3.3,-1.5 -6.6,-3.1 -9.8,-4.6 -3.3,-1.5 -6.4,-3.2 -9.5,-4.8 -1.2,-0.6 -2,1.3 -0.8,1.9 12.9,6.8 25.4,14.3 38.4,19.3 -4.2,-1 -8.5,-2 -12.7,-3.5 -8.3,-2.9 -16.1,-6.8 -24.2,-11.3 -0.4,-0.3 -0.8,0.5 -0.3,0.7 4.2,2.4 8.4,4.7 12.5,6.8 2.1,1 4.2,2 6.3,3 2.2,0.9 4.3,1.8 6.5,2.6 3.3,1.2 6.7,2.6 10.2,3.7 -10.6,0.5 -21.4,0.9 -32.3,0 -0.6,-0.1 -0.7,1 -0.1,1.1 13.1,1.3 26.2,2 38.9,0.6 0.9,0.2 1.8,0.3 2.7,0.4 3.3,4.9 6.2,9.9 9.7,14.7 l 4.9,7.2 c 1.6,2.4 3.4,4.7 5.1,7.2 l -7,-4.8 c -2.3,-1.6 -4.6,-3.3 -6.9,-4.9 -2.3,-1.6 -4.7,-3.3 -7,-4.9 -2.3,-1.7 -4.5,-3.4 -6.8,-5 -0.6,-0.5 -1.2,0.5 -0.6,1 10.6,9.3 21.8,17.7 32.9,25.4 1,1.3 2,2.7 2.9,4 l -4.6,-2.8 -4.5,-2.9 c -3.1,-1.9 -6.2,-3.9 -9.2,-5.8 -3,-2 -6,-4 -9,-6 -2.9,-2 -6,-4 -8.7,-6.1 -0.5,-0.4 -0.9,0.4 -0.5,0.8 5.1,4.1 10.6,7.9 15.6,11.9 5.4,3.7 10.5,7.5 15.9,11 3.1,2 6.1,4.1 9.1,6.3 0.6,0.9 1.2,1.8 1.9,2.7 l 0.1,0.4 c -1.3,-0.5 -2.5,-1.1 -3.7,-1.7 -6.5,-3.7 -13.6,-6.9 -20.4,-10.2 -3.5,-1.6 -7.1,-3.1 -10.6,-4.7 -3.5,-1.6 -7,-3.1 -10.5,-4.6 -0.9,-0.4 -1.2,1 -0.3,1.4 1.5,0.6 2.9,1.3 4.3,2 -0.2,0.3 -0.2,0.7 0.1,0.9 4.8,2.4 9.8,4.6 14.6,7 l 7.1,3.5 7.2,3.3 c 4.4,2.4 8.7,4.9 13.3,7.2 0.3,0.9 4.6,2.9 4.9,3.8 -4,-1 -9.2,-2.2 -14.5,-3.5 -5.2,-1.3 -10.5,-2.6 -14.8,-3.6 -4.4,-1.2 -8.6,-2.6 -13,-3.9 -4.3,-1.4 -8.8,-2.8 -13,-4.3 -0.6,-0.2 -0.8,0.8 -0.2,1 2.7,1.1 5.5,2 8.2,3 -1.8,-0.5 -3.5,-0.9 -5.2,-1.4 -1.1,-0.3 -1.4,1.4 -0.3,1.7 l 14.6,4.1 c 4.8,1.3 9.8,2.5 14.5,3.8 -8.3,-1.1 -16.6,-2.2 -24.6,-3.3 -0.5,-0.1 -0.6,0.9 0,1 8.8,1.5 17.7,3.1 26.2,4.8 4.2,0.9 8.6,1.6 12.8,2.4 4.3,0.7 8.4,1.6 12.6,2.1 1.7,0.2 1.4,3.2 3.3,3.5 -8.9,-1.1 -17.8,-2 -27.1,-2.5 -9.2,-0.6 -18.3,-1.1 -27.5,-1.5 -0.2,0 -0.1,0.3 0,0.3 19.8,1.2 37.9,4.4 56.6,5.8 15.1,15.1 33.2,26.5 50.9,37.9 0.3,0.2 0.5,-0.2 0.3,-0.4 -16.5,-11.9 -30.1,-27.4 -43.7,-42.1 0,-0.1 -0.1,-0.1 -0.1,-0.2 l -2.6,-2.8 c -0.7,-7.9 -0.7,-15.9 -0.5,-23.6 0.1,-4 0.7,-8.3 1.1,-12.3 0.5,-4.1 0.7,-8 0.7,-12 0,-0.3 -0.2,-0.4 -0.3,-0.5 0.9,-3.4 1.7,-6.8 2.2,-10.1 0.1,-0.6 -0.9,-0.7 -1.2,-0.2 -1.7,2.8 -3.2,6.5 -4.6,10.7 -0.7,2.1 -1.3,4.3 -1.8,6.6 -0.5,2.3 -0.9,4.6 -1.3,7 -0.7,4.8 -1.3,9.8 -1.5,14.4 -0.1,4.6 0,9 0.2,12.7 -0.4,-2.2 -0.7,-7 -0.9,-11.7 -0.2,-4.7 0.1,-9.5 -0.1,-11.6 0.5,-8 1.7,-16.1 2.9,-23.9 0.1,-0.8 -1.1,-1.1 -1.4,-0.2 -0.4,1.3 -0.8,2.6 -1.2,3.9 0.2,-1.9 0.3,-3.7 0.5,-5.6 0.3,-1.9 0.5,-3.8 0.8,-5.7 0.2,-1.1 -1.6,-1.2 -1.9,-0.2 -0.8,2.5 -1.7,6.2 -2.2,10.3 -0.5,4.2 -0.8,9 -0.9,13.9 0,9.7 0.8,19.9 1.9,25.4 -0.8,-2.6 -1.9,-6.3 -2.7,-10.6 -0.9,-4.3 -2,-9 -2.7,-13.8 -0.7,-4.7 -1.5,-9.4 -2.1,-13.6 -0.5,-4.2 -1.1,-7.7 -1.7,-10.2 -0.2,-0.7 -1.3,-0.6 -1.3,0.2 0.1,3.6 0.3,7.2 0.5,10.9 0.3,3.7 0.8,7.2 1.3,10.9 0.9,7.4 2.9,14.5 5.1,22 0,0.6 2,4.8 2,5.4 -1.3,-0.9 -2.4,-2.7 -3.4,-4.5 -1,-1.8 -1.9,-3.7 -3.3,-4.6 -3,-15.7 -5.8,-31.6 -7.6,-46.6 -0.1,-0.8 -1.3,-0.6 -1.4,0.1 -0.5,7.1 0,14.1 0.5,21.5 0.3,3.6 0.9,7.2 1.5,10.8 0.6,3.6 1.2,7.4 2.1,10.9 -0.2,-1.1 -2.4,-2.8 -3,-3.8 l -3.4,-4.8 c -2.1,-3.1 -4.3,-6.1 -6.2,-9.4 -1.6,-2.7 -3.3,-5.6 -5,-8.4 -1.7,-2.8 -3.1,-5.8 -4.6,-8.7 -1.2,-2.3 -3.2,-4.5 -2.1,-7 0.9,-2 3,-3.4 4.3,-5 l 9.8,-12.8 c 6.3,-8.4 12.7,-16.8 19,-25.3 l 0.2,-0.3 c -0.4,-0.7 -1.7,-0.1 -2.3,0.6 -5.8,6.3 -11.5,13 -16.9,20 -5.2,6.9 -10.2,14.2 -15,21.9 -0.2,0.4 -0.7,0.6 -1.1,0.5 0.2,-2.6 3.5,-6.3 5,-8.6 2,-3.1 4,-6.2 6.1,-9.3 3.8,-5.8 8,-11.6 11.9,-17.3 0.5,-0.7 -0.5,-1.5 -1.1,-0.8 -4.3,5.1 -8.4,10.5 -12.2,16.2 -3.7,5.6 -7.2,11.5 -10.7,17.5 l -0.4,-0.8 c -0.3,-1.2 -0.6,-2.3 -0.9,-3.5 1.9,-3.8 3.8,-7.5 5.8,-11.3 l 6.1,-11.1 c 4,-7.1 7.9,-14.3 11.8,-21.4 0.2,-0.4 -0.4,-0.9 -0.8,-0.5 -4.8,5.9 -9.4,12.4 -13.2,19.2 -1.9,3.4 -3.8,6.9 -5.5,10.5 -1.8,3.6 -3.5,7.3 -5,10.9 l -0.7,-3.3 c 2.5,-5.6 5.1,-11.1 7.7,-16.5 1.2,-2.7 2.5,-5.3 3.9,-8 1.3,-2.7 2.6,-5.3 3.8,-7.9 0.4,-0.9 -0.9,-1.5 -1.4,-0.7 -3,4.3 -5.7,9 -8.2,14 -2.3,4.9 -4.3,10 -6.2,15.2 -0.2,-2 -0.4,-3.9 -0.6,-5.9 l 1.2,-6.9 1.5,-6.9 c 1.1,-4.6 1.9,-9 3.2,-13.4 0.2,-0.8 -0.9,-1 -1.2,-0.3 -2.1,5 -3.5,10.1 -4.9,15.4 0.1,-2.3 0.3,-4.6 0.5,-6.8 l 0.3,-3.4 0.6,-3.4 c 0.1,-0.8 -1,-1.2 -1.3,-0.3 -1.5,4.4 -2.2,8.8 -2.7,13.4 -0.2,2.3 -0.3,4.6 -0.4,6.9 0,2.3 0.2,4.6 0.4,6.9 l -0.8,6.1 -0.5,0.1 c -2.5,-4.6 -3.3,-9.6 -4.1,-14.7 -0.6,-2.9 -1.1,-5.7 -1.8,-8.6 -0.7,-2.8 -1.1,-5.7 -1.7,-8.5 -0.2,-0.8 -0.8,-1.7 -1.4,-1.3 -0.3,0.2 -0.3,0.6 -0.3,1 0.2,3.3 0.3,6.7 0.8,10 0.5,3.3 1.1,6.6 1.8,9.9 -1.6,-3.3 -3.8,-6.7 -5.8,-10.3 -1.8,-3.6 -3.4,-7.3 -4,-11 -0.1,-0.8 -0.3,-1.9 0,-2.6 0.3,-0.9 0.8,-0.7 1.1,-1.2 0.5,-1 0.6,-2.2 1.2,-3.2 0.9,-1.6 2.1,-3.1 3.2,-4.5 2.1,-2.8 4.3,-5.5 6.5,-8 4.4,-5.1 9.6,-9.9 14.5,-14.5 0.6,-0.6 -0.1,-1.4 -0.9,-1 -4.7,3.1 -9,6.8 -12.9,11 -3.9,4.2 -7.2,8.8 -10.2,13.7 l 0.6,-1.7 c 3.5,-5.2 7,-10.5 10.5,-15.7 3.5,-5.2 6.5,-10.3 9.4,-15.4 0.4,-0.8 -0.7,-1.2 -1.3,-0.7 -4.6,4.3 -8.6,9.2 -12.2,14.5 1.8,-4.9 3.5,-9.8 5.3,-14.7 0.3,-0.9 -1,-1.5 -1.5,-0.6 -2.2,4.2 -4.2,8.5 -5.8,13 -1.7,4.4 -3.5,9.1 -4.9,13.7 -1.4,2.7 -2.8,5.4 -4.1,8.2 l -0.7,-1.3 0.2,-2.2 c 2.7,-13.4 8,-25.6 14.4,-36.9 0.3,-0.5 -0.6,-1.1 -1,-0.6 -4.9,6.5 -9.2,14 -11.8,21.9 0.5,-7.1 1.5,-14.3 1.6,-21.3 0.1,-0.8 -1.1,-1.1 -1.3,-0.2 -1.1,4.8 -2.1,9.7 -2.9,14.7 -0.7,5 -1.1,10.1 -1.5,15.2 l -1.5,-13.2 c -0.3,-4.4 -0.7,-8.8 -1.3,-13.2 -0.6,-4.7 -1.1,-9.3 -2,-13.9 -0.9,-4.6 -1.5,-9.2 -2.4,-13.8 3.5,-3.6 7.1,-7.2 10.4,-10.9 3.3,-3.7 6.2,-7.6 9.1,-11.6 0.5,-0.7 -0.5,-1.7 -1.2,-1 -1.6,1.6 -3.2,3.3 -4.8,5 l -4.5,5.1 -9.2,10.6 c 3,-5.1 5.7,-10.3 8.3,-15.3 2.9,-5.1 6.2,-10.2 8,-15.6 0.2,-0.4 -0.4,-1 -0.8,-0.6 -4.5,4.3 -7.1,10.2 -10.2,15.7 -1.8,3.5 -3.4,7.1 -5,10.7 0.8,-3.1 1.6,-6.3 2.4,-9.4 0.9,-3.1 1.9,-6.2 2.8,-9.3 1.7,-6.1 3.9,-12.2 5.5,-18.1 0.2,-0.6 -0.8,-1 -1.1,-0.5 -2.9,4.1 -5.4,8.8 -7.4,13.8 -1.8,5.1 -3.4,10.5 -4.2,15.9 -0.8,-8.9 -1.3,-18 -1.1,-27 0.1,-2.8 0.1,-5.9 0.2,-8.9 z m 85.5,238.1 c -0.4,-4.8 -0.4,-9.7 -0.3,-14.4 0.3,5.3 0.6,11 1.4,16.2 l -0.8,-0.8 -0.3,-1 z m -52.1,-75.4 0.3,1.3 -0.1,0.3 c -0.1,-0.2 -0.2,-0.4 -0.3,-0.6 l 0.1,-1 z"
             id="path37"
             inkscape:connector-curvature="0" /><path
             d="m 483.8,189.9 c -2.7,1.1 -5.4,2 -8,3.2 -2.6,1.2 -5.2,2.4 -7.7,3.7 l -0.6,0.1 c 4.7,-2.6 8.8,-6.2 12.5,-10.1 0.1,-0.1 -0.1,-0.3 -0.2,-0.2 -3.5,3.3 -7.2,6.3 -11.3,8.8 2.6,-3.2 5,-7 6.4,-10.5 0.1,-0.3 -0.3,-0.4 -0.4,-0.2 -1.6,2.5 -3,5.1 -4.8,7.5 -0.7,1 -1.5,1.9 -2.2,2.8 -0.4,0.5 -0.7,1 -1.1,1.5 -0.7,0.8 -2.1,0.6 -3,0.8 -1.4,0.2 -2.7,0.5 -4,0.9 -3.7,0.9 -7.5,1.9 -11.2,2.8 -3.7,1 -7.4,2.1 -11.1,3.1 -2,0.6 -3.9,1.1 -5.9,1.7 l -5.8,1.9 c 6.2,-5.2 12.6,-10.3 18.9,-15.1 0.4,-0.3 -0.1,-1 -0.5,-0.7 -6.8,4.4 -14.2,8.6 -20.6,13.8 6.1,-6.1 11.9,-12.8 17.2,-19.2 0.4,-0.5 -0.4,-0.9 -0.8,-0.5 -8.6,9.5 -18,17 -26.3,25.9 l -0.9,0.3 0.2,-0.5 c 3.1,-3.9 6.2,-7.9 9.2,-11.8 3.1,-4 6.2,-8.1 9.6,-11.7 0.5,-0.6 -0.3,-1.4 -0.9,-0.8 -2.7,2.6 -5.4,5.5 -8,8.4 -2.6,2.8 -5.2,5.7 -7.7,8.6 1.1,-4.3 1.7,-8.8 2.3,-12.9 0.1,-0.5 -0.9,-0.6 -1,-0.1 -0.8,4.3 -1.9,8.4 -3.1,12.7 -0.5,1.6 -1,3.2 -1.6,4.7 -2.1,5.9 -9.5,7.5 -14.4,10 -3.8,1.9 -7.8,3.5 -11.5,5.7 -3.9,2.1 -7.8,4.1 -11.7,6.1 -3.9,2.1 -7.7,4.2 -11.7,6.2 4.6,-4.9 9.1,-10.3 14,-15.1 2.4,-2.5 4.9,-5 7.3,-7.5 2.5,-2.4 5.1,-4.7 7.6,-7 0.6,-0.5 -0.1,-1.5 -0.7,-0.9 -2.6,2.1 -5.2,4.2 -7.8,6.4 -2.5,2.2 -5,4.5 -7.6,6.7 -5.1,4.4 -9.7,9.3 -14.2,14.1 3.5,-4.7 6.8,-9.8 10.4,-14.6 3.6,-4.8 7.1,-9.8 10.9,-14.4 0.6,-0.8 -0.6,-1.7 -1.2,-0.9 L 369.1,218 c -3.8,4.8 -7.5,9.8 -11,14.6 2.3,-5.1 4.4,-10.6 6.4,-16.2 2,-5.5 4,-10.8 6,-16 0.2,-0.6 -0.7,-0.9 -0.9,-0.3 -3.3,7.8 -6.6,15.5 -9.9,23.3 -2.9,6.4 -6.1,13.1 -8.4,19.6 l -2,1.1 -0.1,-3.2 c 1.1,-4.9 2,-10.1 3.4,-15 1.2,-4.2 2.7,-8.3 4.2,-12.4 1.6,-4.1 3.2,-8.4 5.2,-12.4 0.4,-0.8 -1,-1.3 -1.4,-0.4 -2.1,4.3 -3.9,8.7 -5.7,13.1 -1.7,4.4 -3.3,8.6 -4.6,13.1 -0.3,1.2 -0.7,2.3 -1.1,3.5 0.1,-1.1 0.1,-2.3 0.2,-3.4 0.3,-2.3 0.6,-4.5 1,-6.8 0.4,-2.2 1,-4.4 1.6,-6.6 1.2,-4.4 2.7,-8.9 4.4,-13.3 0.4,-1.1 -1.3,-1.5 -1.7,-0.4 -2.6,6.5 -5.3,13.5 -6.8,20.9 -1.6,7.4 -2.3,14.8 -1.7,21.6 -0.3,1.3 -0.4,2.7 -0.5,4 -0.2,2.2 -5.1,4.1 -6.7,5 -3.9,2 -7.6,4.5 -11.1,7.1 -4.9,3.5 -9,8.1 -13.7,11.8 l -2.2,2.1 c 6,-11.7 11.4,-24.4 17.2,-36 0.3,-0.6 -0.6,-1 -0.9,-0.4 -8.2,15.6 -17.3,29.7 -24.2,44.9 -0.2,0.2 -0.3,0.4 -0.6,0.6 -0.6,0.1 -0.8,0.6 -0.9,1 l -0.2,0.3 c 5.9,-16.5 10.6,-34.4 15.2,-52 0.2,-0.8 -1,-0.9 -1.2,-0.1 -5,18 -10.9,34.4 -16,51.2 1.3,-6.7 2.1,-14 3,-21.1 1,-7.1 1.7,-14.4 3,-21.3 0.2,-1.3 -1.8,-1.5 -2.1,-0.2 -1.2,7.2 -2.6,14.4 -3.9,21.4 -1.1,7.2 -2.2,14.2 -2.6,21.1 -0.4,-4.4 -0.7,-8.7 -0.6,-13.1 0.1,-4.3 0.4,-8.9 1,-13.2 0.6,-4.4 1.4,-8.8 2.3,-13.3 0.1,-0.5 -0.7,-0.6 -0.8,0 -1.1,4.7 -2,9.3 -2.7,13.9 -0.7,4.7 -1.1,9.3 -1.3,13.9 -0.2,3.5 -0.5,7.1 -0.4,10.8 -3.8,-10 -7.4,-20 -10,-30.7 -0.1,-0.6 -1.2,-0.4 -1,0.3 1.4,6.4 2.9,12.7 4.7,19 1.8,6.2 4.1,12.4 6.7,18.2 0.1,0.9 0.2,1.8 0.4,2.7 -7.6,9 -14.4,18.4 -21.6,27.7 1.6,-5.4 3.3,-10.8 4.9,-16.2 1.8,-5.3 3.3,-10.9 5.2,-16.2 0.3,-0.7 -0.8,-1 -1.1,-0.3 -5.3,13.2 -10.2,26.1 -13.8,39.3 -1,1.3 -2,2.6 -3,4 0.9,-3.4 1.8,-6.9 2.6,-10.5 0.8,-3.6 1.8,-7 2.7,-10.5 1.7,-7.1 3.9,-13.9 6,-20.6 0.2,-0.6 -0.7,-0.8 -0.9,-0.2 -2.2,6.3 -4.5,12.3 -6.4,18.6 l -3,9.2 -2.6,9.3 c -0.5,1.8 -1,3.5 -1.6,5.3 l -1.5,5.3 c -0.7,0.9 -1.3,1.8 -2,2.7 l -0.3,0.2 0.4,-4.1 c 0.6,-3.7 1.2,-7.5 1.8,-11.2 0.6,-3.8 1,-7.6 1.4,-11.4 0.5,-3.8 0.9,-7.6 1.3,-11.4 0.3,-3.9 0.7,-7.7 1.1,-11.4 0.1,-1 -1.4,-0.8 -1.5,0.1 -0.2,1.6 -0.4,3.1 -0.6,4.7 -0.3,-0.1 -0.7,0 -0.8,0.4 -0.6,5.5 -1.3,10.8 -2.1,16 -0.6,5.3 -1.3,10.6 -2,15.7 -0.9,5 -1.7,10 -2.7,14.9 -0.8,0.5 -1.3,5.3 -2.1,5.8 -0.4,-4.2 -0.7,-9.4 -1.1,-14.8 -0.4,-5.4 -0.9,-10.9 -1.3,-15.2 -0.1,-4.5 -0.2,-9.1 -0.4,-13.6 0,-4.5 0.1,-9 0.2,-13.6 0,-0.7 -1,-0.5 -1,0.1 L 250,297 c -0.1,-1.8 -0.2,-3.6 -0.3,-5.3 0,-1.1 -1.8,-0.9 -1.8,0.3 l 0.2,7.6 0.4,7.6 c 0.3,5.1 0.5,10 0.8,14.9 -1.4,-8.2 -3,-16.3 -4.6,-24.4 -0.1,-0.5 -1,-0.2 -0.9,0.3 3,18 4.2,35.1 7.2,52 0.3,1.7 -2.7,2.3 -2.4,4.1 -1.4,-8.6 -3.8,-17.7 -5.9,-26.5 -1.1,-4.4 -2.3,-8.9 -3.6,-13.4 -1.2,-4.4 -2.4,-8.9 -3.5,-13.2 0,-0.2 -0.3,0 -0.2,0.1 4.7,19 7.8,37.5 12,55.5 -9.7,19 -14.9,39.8 -20.3,60.1 -0.1,0.3 0.4,0.5 0.5,0.2 6.2,-19.4 16.8,-37.1 26.5,-54.6 0.1,0 0.1,-0.1 0.1,-0.2 l 1.8,-3.4 c 3.8,-1.5 7.5,-2.9 11.2,-4.2 l 5.5,-1.9 c 1.9,-0.6 3.8,-1.1 5.7,-1.6 4,-1.1 8.1,-2 12,-2.9 4,-0.9 8,-1.7 11.7,-3 0.3,-0.1 0.4,-0.3 0.4,-0.5 3.5,-0.3 6.9,-0.6 10.3,-1.1 0.7,-0.1 0.4,-1.1 -0.2,-1.2 -6.5,-1.6 -15.8,-1.3 -25.5,0.2 -4.9,0.7 -9.6,1.9 -14.1,3.1 -4.5,1.3 -8.7,2.6 -12.1,4.1 0.9,-0.5 2.5,-1.3 4.4,-2.1 2,-0.8 4.2,-1.6 6.5,-2.4 4.5,-1.5 8.9,-3.1 10.9,-3.7 8.1,-1.8 15.7,-3.5 23.7,-4.6 0.9,-0.1 0.7,-1.3 -0.2,-1.4 -1.4,0 -2.8,0 -4.2,0.1 3.7,-0.8 7.4,-1.6 11,-2.3 1.1,-0.2 0.6,-1.9 -0.5,-1.9 -2.6,0 -6.2,0.4 -10.4,1.2 -2.1,0.4 -4.3,0.9 -6.6,1.4 -2.3,0.6 -4.6,1.3 -6.9,2 -9.4,2.9 -18.5,7 -23.6,9.7 2.3,-1.6 5.5,-3.6 9.2,-5.9 3.7,-2.3 8.1,-4.5 12.3,-6.8 4.1,-2.3 8.6,-4.3 12.3,-6.2 1.9,-0.9 3.6,-1.9 5.1,-2.7 1.6,-0.8 2.9,-1.5 4,-2.2 0.6,-0.4 0.1,-1.4 -0.6,-1.2 l -5.2,1.8 c -1.7,0.6 -3.3,1.4 -5,2.1 -3.3,1.4 -6.7,2.9 -10.1,4.5 -6.4,3.4 -13.1,7.1 -19.2,11.8 -0.6,0.2 -4,3.3 -4.6,3.5 1,-3.1 5.7,-6.1 6.5,-9.2 14.2,-7.6 28.2,-15.3 41.9,-21.7 0.7,-0.3 0.2,-1.4 -0.6,-1.3 -3.4,0.9 -6.7,2 -10.1,3.2 l -5.1,1.9 c -1.7,0.7 -3.3,1.4 -4.9,2.2 -3.3,1.5 -6.6,3.1 -9.9,4.7 -3.2,1.7 -6.4,3.6 -9.7,5.4 1,-0.6 2,-3.1 2.7,-4 1.1,-1.6 2.2,-3.3 3.4,-4.8 2.3,-3 4.7,-5.9 7.1,-8.8 2,-2.5 4.3,-4.8 6.5,-7.3 2.3,-2.4 4.4,-4.9 6.8,-7.2 1.9,-1.9 3.3,-4.3 6.1,-4 2.1,0.2 4.1,1.8 6.1,2.5 l 15.2,5.3 c 10,3.4 19.9,6.9 29.9,10.3 l 0.3,0.1 c 0.6,-0.6 -0.5,-1.6 -1.3,-2 -7.8,-3.6 -16,-7.1 -24.2,-9.9 -8.2,-2.8 -16.9,-5.5 -25.5,-7.5 -0.4,-0.1 -0.7,-0.4 -0.8,-0.9 2.5,-0.7 7,1.3 9.6,2 3.6,0.9 7.2,1.9 10.8,2.9 6.8,1.9 13.4,3.9 20.1,5.9 0.8,0.3 1.3,-0.9 0.4,-1.3 -6.2,-2.6 -12.7,-4.8 -19.2,-6.6 -6.5,-1.8 -13.3,-3.4 -20,-4.8 l 0.6,-0.6 c 1,-0.7 2.1,-1.3 3.1,-1.9 8.5,1.3 16.6,2.6 24.9,4.3 8,1.6 16,3.1 23.9,4.7 0.5,0.1 0.7,-0.6 0.2,-0.9 -3.6,-1.4 -7.2,-2.7 -11,-3.9 -3.7,-1.1 -7.5,-2 -11.3,-2.8 -3.8,-0.8 -7.8,-1.5 -11.7,-2.1 -3.9,-0.5 -7.9,-0.9 -11.9,-1.2 l 2.9,-1.6 c 6,0.5 12.1,1.4 18,2.2 5.9,0.8 11.7,1.6 17.5,2.4 1,0.1 1.2,-1.3 0.2,-1.6 -10.2,-3.3 -21,-4.4 -32.2,-4.8 1.8,-0.8 3.6,-1.6 5.5,-2.3 4.7,-0.6 9.3,-1.3 14,-1.7 l 13.7,-1.1 c 0.8,0 0.7,-1.2 -0.1,-1.2 -5.3,-0.3 -10.6,-0.2 -16.1,0.1 4.5,-1.2 8.9,-2.1 13.4,-2.9 0.8,-0.1 0.8,-1.3 -0.1,-1.3 -9,0.2 -18.1,2.1 -26.5,5.8 l -6.1,1 0.5,-0.5 c 3.6,-3.7 8.2,-5.9 12.7,-8.5 2.6,-1.4 5.1,-2.8 7.7,-4.2 2.5,-1.5 5,-2.9 7.6,-4.3 0.7,-0.4 1.4,-1.3 0.8,-1.7 -0.3,-0.2 -0.7,-0.1 -1,0 -1.6,0.6 -3.1,1.1 -4.7,1.8 -1.5,0.7 -3,1.4 -4.5,2.1 -3,1.5 -6,3 -8.9,4.7 5.3,-5 10.4,-12.7 17.2,-15.8 0.7,-0.3 1.7,-0.8 2.5,-0.8 0.9,0 0.9,0.6 1.5,0.7 1.1,0.2 2.3,-0.1 3.4,0.1 1.8,0.4 3.6,1.1 5.3,1.6 3.3,1.1 6.5,2.4 9.7,3.8 3.1,1.4 6.2,2.8 9.2,4.4 3.1,1.6 6.1,3.3 9,4.9 0.8,0.4 1.3,-0.5 0.7,-1.1 -4.4,-3.5 -9.3,-6.6 -14.5,-8.9 -5.1,-2.3 -10.6,-4.1 -16.2,-5.6 l 1.9,0.1 c 6.1,1.8 12.1,3.4 18.2,5.1 6.1,1.7 11.9,3.1 17.5,4.3 0.9,0.2 0.9,-1 0.3,-1.4 -5.4,-3 -11.3,-5.2 -17.6,-7.2 2.6,0.1 5.3,0.2 7.8,0.3 l 3.9,0.1 3.9,0.1 c 1,0 1.2,-1.4 0.1,-1.6 -4.7,-0.9 -9.4,-1.3 -14.1,-1.6 -4.8,-0.3 -9.7,-0.5 -14.5,-0.4 -3,-0.5 -6,-1 -9.1,-1.4 l 1.1,-1.1 2.2,-0.4 c 3.4,-0.4 6.7,-0.6 10.1,-0.7 3.4,0 6.7,0.1 10,0.3 6.5,0.3 13.1,1.5 19.5,2.8 0.6,0.1 0.8,-0.9 0.2,-1.1 -3.9,-1.4 -7.9,-2.5 -12,-3.3 -4.1,-0.8 -8.2,-1.1 -12.5,-1.2 3.6,-0.7 7,-1.6 10.5,-2.4 3.5,-0.8 6.9,-1.6 10.3,-2.6 0.8,-0.2 0.7,-1.4 -0.2,-1.3 -4.9,0.4 -10,0.9 -14.9,1.8 -4.9,1 -10,2 -15,3.2 8.1,-3.7 16.3,-7.1 24.4,-10.7 4.2,-2.1 8.5,-4 12.6,-6.2 l 6.1,-3.3 6.2,-3.2 c 4.5,2.4 9,4.4 13.6,6.5 4.6,2 9.2,3.7 13.8,5 0.8,0.2 1.4,-1 0.6,-1.5 -4.1,-2 -8.2,-3.8 -12.5,-5.7 l -6.4,-2.8 -6.5,-2.6 c 5.7,1.1 11.4,2.1 17.2,3.2 5.7,0.9 11.6,2.8 17.3,2.7 0.5,0 0.8,-0.7 0.3,-1 -5.5,-2.7 -12,-3.9 -18.1,-4.8 -3.9,-0.6 -7.8,-1.2 -11.8,-1.5 13,-0.9 25.9,-0.8 38.4,-1.2 0.6,0 0.7,-1 0.1,-1.2 -2.4,-0.8 -4.9,-1.4 -7.5,-1.9 -2.6,-0.4 -5.2,-0.6 -7.9,-0.8 -2.7,-0.1 -5.5,-0.1 -8.2,0 -2.7,0.2 -5.5,0.5 -8.2,0.9 4.1,-1.8 8.2,-3.6 12.5,-5.1 4.2,-1.5 8.5,-3.2 12.8,-4.4 2.9,-0.9 5.8,-1.7 8.7,-2.7 0.8,-0.3 1.5,-0.5 2.3,-0.6 1.6,-0.1 2.5,0.8 3.7,1.6 l 5,3.1 c 3.3,2.1 6.6,4 10.1,5.7 0.7,0.3 1.4,0.7 2.2,1 0.3,0.1 0.6,-0.2 0.3,-0.5 -4.8,-4.5 -10.9,-7.2 -17,-10.2 2.7,0.5 5.4,0.8 8,1.3 1.2,0.2 2.5,0.5 3.7,0.8 1.2,0.4 2.4,0.8 3.6,1.2 l 7.1,2.6 c 0.4,0.1 0.7,-0.4 0.3,-0.6 -3.1,-1.8 -6.9,-3.6 -10.9,-5.1 3.2,0.2 6.3,0.4 9.4,0.8 0.5,0.1 0.7,-0.7 0.2,-0.8 -5,-0.9 -10.3,-1.8 -15.4,-1.5 l -0.9,-0.1 c 2.3,-0.3 4.6,-0.9 6.8,-1.4 2.3,-0.5 4.5,-1.1 6.6,-1.6 0.5,-0.1 0.2,-0.8 -0.3,-0.7 -3.4,0.7 -6.8,0.9 -10.2,1.6 1,-0.6 2.1,-1.2 3.2,-1.8 0.1,0 0,-0.1 -0.1,-0.1 -1.2,0.6 -2.4,1.3 -3.6,2 l -2,0.3 c 4.2,-2 8.5,-3.9 12.8,-5.6 0.3,0 0,-0.6 -0.4,-0.4 z M 272.7,349.3 c -5.2,1.8 -10,4.1 -14.9,6.4 l 0.5,-0.9 0.9,-0.6 c 4.5,-2 8.9,-3.7 13.5,-4.9 z m 40.8,-67.4 -0.3,0 0.4,-0.5 1,-0.2 -1.1,0.7 z"
             id="path39"
             inkscape:connector-curvature="0" /><path
             d="m 567.6,205 c 0.1,0 0.1,0 0.2,0 l 3.8,0.8 c 2.6,3.1 5.1,6 7.5,9.2 2.4,3.2 4.6,6.4 6.8,9.6 2.3,3.3 4.3,7.1 6.4,10.6 2.1,3.6 4.2,6.9 6.5,10.2 0.2,0.2 0.4,0.3 0.6,0.2 1.3,3.3 2.6,6.5 4.2,9.5 0.3,0.6 1.1,0 1.1,-0.6 -0.3,-3.3 -1.2,-7.1 -2.6,-11.3 -0.7,-2.1 -1.5,-4.2 -2.4,-6.4 -0.9,-2.1 -2,-4.3 -3.1,-6.4 -2.2,-4.3 -4.7,-8.7 -7.3,-12.5 -2.6,-3.8 -5.2,-7.3 -7.6,-10.2 1.6,1.5 4.7,5.3 7.6,9 2.9,3.7 5.6,7.8 6.9,9.3 4.3,6.8 8.1,14.1 11.7,21.1 0.4,0.8 1.5,0.3 1.2,-0.6 -0.4,-1.3 -0.9,-2.6 -1.4,-3.9 2,3.1 3.8,6.5 5.6,9.8 0.5,1 2,0 1.7,-1 -0.8,-2.5 -2.2,-6 -4.3,-9.7 -2.1,-3.7 -4.7,-7.7 -7.5,-11.8 -5.7,-7.8 -12.4,-15.6 -16.5,-19.4 4.4,3.1 11.8,9.9 18.7,16.5 3.4,3.4 6.7,6.7 9.7,9.7 2.9,3 5.5,5.6 7.4,7.2 0.5,0.4 1.4,-0.3 0.9,-0.9 -8.8,-11.5 -18.9,-22.2 -31.4,-31.3 -0.4,-0.5 -4.4,-2.7 -4.8,-3.2 1.6,-0.1 3.5,0.8 5.4,1.6 1.9,0.9 3.7,1.8 5.3,1.8 11.7,10.9 23.3,22.1 33.5,33.2 0.5,0.6 1.4,-0.3 1,-0.9 -7.6,-12 -17.7,-22.5 -28.8,-32.5 0.8,0.7 3.6,0.9 4.7,1.3 l 5.6,1.9 c 3.6,1.2 7.1,2.5 10.5,4 2.9,1.3 6,2.5 9,3.8 3,1.4 5.9,2.9 8.9,4.3 2.4,1.2 5.2,1.7 5.7,4.5 0.4,2.1 -0.5,4.5 -0.5,6.6 l -0.3,16.1 c -0.2,10.5 -0.3,21.1 -0.5,31.6 l 0,0.4 c 0.7,0.4 1.4,-0.9 1.5,-1.8 1,-8.6 1.6,-17.2 1.9,-26 0.2,-8.9 -0.1,-17.5 -0.8,-26.5 0,-0.5 0.2,-0.8 0.6,-1 1.4,2.2 0.9,7.2 1.1,9.8 0.2,3.7 0.4,7.4 0.6,11.1 0.2,7 0.4,14 0.6,21 0,0.9 1.3,0.9 1.4,0 1,-13.3 0.2,-27.1 -1.4,-40.7 l 0.8,0.4 c 0.9,0.8 1.9,1.5 2.8,2.3 l 1,6.2 0.9,6.3 1.7,12.5 c 1.1,8.2 1.9,16.5 3,24.2 0.1,0.5 0.8,0.5 0.9,-0.1 0.5,-7.6 0.2,-15.3 -0.6,-23.3 -0.9,-7.8 -2.3,-15.6 -4.1,-23.5 0.8,0.8 1.6,1.6 2.4,2.4 1.3,6 2.5,11.9 3.6,17.8 1,6 2,11.8 3.2,17.4 0.2,1 1.5,0.7 1.5,-0.3 -0.3,-10.5 -2.3,-21.5 -5.5,-32 1.4,1.4 2.7,2.9 4,4.4 4.1,8.6 7.8,17 11.1,25.6 0.3,0.8 1.4,0.3 1.2,-0.5 -1.3,-5.2 -2.9,-10.4 -5.1,-15.3 2.6,3.7 4.8,7.8 6.9,11.9 0.4,0.8 1.5,0.3 1.3,-0.5 -2.8,-8.7 -7.7,-16.5 -13.7,-23.5 l -3,-5.4 0.6,0.3 c 2.4,1.1 4.5,2.5 6.4,4.2 1.9,1.7 3.7,3.5 5.6,5.3 4.4,3.8 8.5,8 12.9,11.8 0.6,0.5 1.7,0.9 1.9,0.1 0.1,-0.3 -0.1,-0.7 -0.4,-0.9 -4.2,-5.1 -8.7,-10.2 -13.9,-14.5 3.3,1.7 7.1,3.1 10.7,4.9 3.6,1.8 7.2,3.7 9.7,6.4 0.5,0.6 1.3,1.4 1.5,2.1 0.3,0.9 -0.3,1 -0.2,1.7 0.1,1.1 0.8,2.2 0.9,3.3 0.2,1.8 0.1,3.7 0.1,5.5 0,3.4 -0.2,6.9 -0.6,10.3 -0.7,6.9 -1.9,13.6 -3.1,20.2 -0.2,0.9 0.9,1.1 1.2,0.3 2.1,-5.3 3.2,-10.8 3.9,-16.4 0.6,-5.6 0.8,-11.5 0.3,-17.2 l 0.5,1.8 c 0.4,12.7 0.8,25.5 2.1,36.9 0.1,0.9 1.3,0.5 1.4,-0.2 1.1,-6 1.5,-12.4 1.4,-19 1.4,5.1 2.7,10.2 4.4,15 0.3,0.9 1.8,0.6 1.6,-0.4 -0.8,-4.6 -1.8,-9.2 -2.9,-13.9 -1.2,-4.7 -2.7,-9.2 -4.1,-13.9 -0.4,-3.1 -0.9,-6.1 -1.5,-9 l 1.4,0.6 c 0.4,0.6 0.8,1.3 1.1,1.9 5.5,12.6 8.6,25.3 9.9,38.4 0.1,0.6 1.1,0.5 1.1,-0.1 0.4,-8.4 -0.9,-16.5 -3.2,-24.8 3.5,6.4 7.3,12.3 11.1,18.3 0.5,0.7 1.5,0.2 1.2,-0.6 -0.9,-2.3 -1.9,-4.6 -2.9,-6.9 -1.1,-2.3 -2.2,-4.5 -3.4,-6.7 l -3.7,-6.7 c -1.3,-2.2 -2.7,-4.3 -4.1,-6.5 l 4.6,4.8 4.4,5 8.8,9.9 c 3.1,3.5 6.6,6.7 9.8,10.1 3.2,3.3 6.8,6.4 10,9.8 -0.9,5 -1.6,10 -2,14.9 -0.5,5 -0.8,9.9 -0.6,14.7 0,0.8 1.5,1 1.6,0.1 0.6,-4.5 1.1,-9 1.6,-13.7 0.5,-4.7 0.7,-9.2 1.1,-13.9 0.3,2.9 0.7,5.8 1.1,8.7 l 1.1,8.7 c 0.3,2.9 0.7,5.8 1.1,8.7 0.3,3 0.8,5.8 1.7,8.5 0.1,0.4 0.9,0.6 1,0 0.5,-3 0.5,-6.2 0.3,-9.4 -0.2,-3.2 -0.9,-6.2 -1.3,-9.4 -0.6,-3.9 -1.2,-7.9 -2.2,-11.7 1.3,2.9 2.4,6 3.5,9.1 l 3.3,9.1 c 1,3.1 2,6.1 3,9.1 0.5,1.5 1.1,3 1.6,4.4 0.5,1.5 1,3 1.5,4.4 0.2,0.6 1.2,0.3 1.2,-0.3 0.2,-5.1 -0.8,-10.3 -2.2,-15.5 -1.3,-5.3 -3.5,-10.4 -5.9,-15.4 2.9,3.4 6,6.7 8.7,10.3 2.7,3.6 5.5,7.2 8.2,10.8 1.7,2.5 3.3,5 5.1,7.5 0.5,0.6 0.9,1.3 1.3,2 0.6,1.4 0.1,2.6 -0.2,4 l -1.4,5.8 c -1,3.8 -1.9,7.6 -2.3,11.4 l -0.2,2.4 c 0,0.3 0.4,0.5 0.5,0.1 2.7,-5.8 3.4,-12.6 4.5,-19.3 0.3,2.7 0.9,5.4 1.2,8.1 0.3,2.5 0.4,5 0.4,7.5 -0.1,2.5 -0.2,5 -0.3,7.5 0,0.4 0.6,0.6 0.7,0.1 0.8,-3.5 1.5,-7.8 1.4,-11.9 1,3 1.6,6.1 2.1,9.2 0.1,0.5 0.9,0.5 0.8,-0.1 -0.3,-2.5 -0.6,-5.1 -1.1,-7.7 -0.6,-2.5 -1.3,-5 -2.2,-7.5 l -0.1,-0.9 c 2,4.2 4.9,8.1 7,11.8 0.3,0.4 0.8,0 0.6,-0.5 -1.6,-3 -3.1,-6.1 -4.7,-9.2 l 2.7,2.5 c 0.1,0.1 0.1,0 0.1,-0.1 l -3,-2.9 -0.9,-1.8 c 3,3.5 6.4,6.8 9.3,10.4 0.3,0.4 0.8,-0.1 0.5,-0.4 -3.5,-4.5 -7.4,-8.9 -11.4,-12.8 l -0.3,-0.5 c 3.9,3.7 8.6,6.5 13.5,8.8 0.1,0.1 0.2,-0.2 0.1,-0.2 -4.3,-2.2 -8.3,-4.9 -11.9,-8 3.8,1.6 8.2,2.6 11.9,2.9 0.3,0 0.3,-0.4 0,-0.4 -2.9,-0.8 -5.7,-1.3 -8.5,-2.3 -1.1,-0.4 -2.2,-0.8 -3.3,-1.3 -0.6,-0.2 -1.2,-0.4 -1.8,-0.6 -1,-0.4 -1.2,-1.8 -1.7,-2.6 -0.7,-1.2 -1.4,-2.4 -2.1,-3.5 -2.1,-3.3 -4,-6.6 -6.1,-9.9 -2.1,-3.2 -4.3,-6.4 -6.4,-9.6 -2.2,-3.4 -4.7,-6.6 -7.1,-10 3.3,2.2 6.9,4.4 10.2,6.6 3.3,2.3 6.7,4.5 9.9,6.8 0.4,0.3 1,-0.4 0.5,-0.7 -3,-2.6 -6.2,-5.3 -9.4,-8 -3.3,-2.6 -6.7,-5.1 -10,-7.4 3.7,2 7.7,3.8 11.8,5.5 3.9,1.8 7.9,3.4 11.8,5 0.6,0.2 0.8,-0.7 0.2,-0.9 -5.8,-2.7 -11.1,-5.7 -16.6,-8.6 -2.7,-1.5 -5.3,-3 -8,-4.4 -2.7,-1.4 -5.5,-2.8 -8.2,-4 l -0.6,-0.7 0.6,0.1 c 4.6,1.8 9.5,3.3 14.1,5.1 4.7,1.8 9.6,3.5 14.1,5.5 0.7,0.3 1.3,-0.7 0.5,-1.1 -3.4,-1.7 -6.9,-3.3 -10.5,-5 -3.5,-1.6 -6.9,-3.3 -10.6,-4.6 4.5,-0.4 9,-1.1 13,-1.8 0.5,-0.1 0.3,-1.1 -0.2,-1 -4.3,0.5 -8.7,0.9 -13.1,1 -1.6,0.1 -3.3,0 -5,0 -3.1,-0.1 -5.6,-1.8 -7.8,-3.9 -2.3,-2.1 -4.3,-4.7 -6.1,-6.7 -2.8,-3.2 -5.9,-6.2 -9,-9.2 -1.6,-1.5 -3.2,-3.1 -4.7,-4.7 l -4.8,-4.6 c -3.2,-3 -6.2,-6.3 -9.5,-9.2 3.2,1.3 6.2,2.7 9.4,4.2 l 9.4,4.3 c 3.1,1.6 6.2,3.1 9.3,4.7 1.5,0.8 3.1,1.6 4.6,2.4 1.5,0.9 3,1.8 4.5,2.6 0.7,0.4 1.4,-0.5 0.7,-1 -1.4,-0.9 -2.8,-1.8 -4.2,-2.7 l -4.3,-2.6 c -2.9,-1.7 -5.8,-3.5 -8.6,-5.2 -3,-1.6 -5.9,-3.2 -8.9,-4.7 -3,-1.5 -5.9,-3.1 -9,-4.3 2.9,0.8 5.7,1.7 8.5,2.6 l 8.6,2.7 c 5.8,1.8 11.4,3.9 17.1,5.9 1,0.4 1.4,-1.1 0.4,-1.4 -11.7,-4.6 -23.1,-9.2 -34.7,-12.7 5.8,0.4 11.5,0.8 17.4,1 5.8,0.2 11.7,0.3 17.2,0.7 0.6,0 0.6,-0.9 0,-1 -4.2,-0.4 -8.4,-0.7 -12.7,-1.1 -4.2,-0.3 -8.4,-0.7 -12.5,-1.2 -7.2,-0.6 -14.3,-1.8 -21.3,-1.8 l -1.7,-1.5 3,-1.1 c 5.1,-0.6 10.1,-1.2 15.2,-1.4 8.8,-0.4 17.5,0.2 26.6,1.2 0.9,0.1 0.9,-1.3 -0.1,-1.4 -4.8,-0.6 -9.5,-1.1 -14.1,-1.4 -4.7,-0.3 -9.4,-0.3 -14,-0.2 -1.2,0 -2.4,0 -3.6,0 1.1,-0.3 2.2,-0.6 3.3,-0.8 4.4,-0.9 8.9,-1.5 13.6,-1.8 4.6,-0.3 9.2,-0.2 14,0.1 1.2,0.1 1.1,-1.7 -0.1,-1.8 -3.5,-0.3 -7,-0.5 -10.7,-0.6 -3.7,0 -7.5,0.2 -11.3,0.6 -3.7,0.4 -7.4,0.9 -10.9,1.7 -3.6,0.9 -7,2 -10.2,3.4 -1.4,0.2 -2.7,0.4 -4,0.7 -2.2,0.5 -5.4,-3.7 -6.8,-4.9 -3.3,-2.9 -6.6,-5.8 -10.2,-8.4 -2.5,-1.6 -5.1,-3.1 -7.8,-4.7 -2.6,-1.5 -5.2,-3.1 -7.7,-4.6 l -2.7,-1.3 c 13.1,1.8 26.7,3.3 39.6,5.1 0.6,0.1 0.7,-0.8 0.1,-0.9 -17.4,-3.1 -33.7,-6.9 -50.2,-9.1 -0.2,-0.1 -0.5,-0.2 -0.7,-0.3 -0.3,-0.5 -0.8,-0.6 -1.2,-0.5 l -0.3,-0.1 c 17.5,0.5 36.1,-0.8 54.1,-1.7 0.8,0 0.6,-1.3 -0.2,-1.2 -9.2,0.3 -18.4,0.5 -27.2,0.4 -4.4,0 -8.8,0.1 -13.3,0.1 -4.3,-0.1 -8.8,0.1 -13.1,0.2 6.9,-1.1 13.9,-2.3 21,-3.7 7.2,-1.5 14.2,-2.7 21.2,-3.8 1.3,-0.2 0.9,-2.2 -0.5,-2 -3.6,0.5 -7.2,1 -10.8,1.4 -3.6,0.5 -7.2,1 -10.8,1.5 -3.6,0.5 -7.1,1 -10.6,1.7 -3.5,0.7 -7,1.5 -10.3,2.4 4,-1.7 8.1,-3.4 12.3,-4.7 4.2,-1.2 8.4,-2.2 12.8,-3 4.4,-0.9 8.9,-1.6 13.3,-1.9 0.5,0 0.3,-0.8 -0.2,-0.8 -4.7,0.3 -9.5,1 -14.1,1.8 -4.6,0.8 -9.1,1.7 -13.6,3 -3.4,1 -7,1.9 -10.4,3.1 8.3,-6.6 16.8,-13.5 26.1,-19 0.5,-0.3 0,-1.2 -0.6,-0.9 -11.2,6.4 -22.4,13.9 -31.8,22.3 -0.8,0.4 -1.6,0.8 -2.4,1.2 -11,-4.2 -21.9,-8.2 -33,-11.9 2.8,-0.1 5.7,-0.2 8.5,-0.3 2.8,0 5.7,-0.1 8.5,-0.1 5.7,-0.2 11.3,-0.1 17,-0.1 0.8,0 0.7,-1.1 -0.1,-1.2 -14,-1.3 -28,-1.4 -41.5,-1.2 -1.6,-0.5 -3.2,-1 -4.7,-1.5 l 5.4,-0.4 5.4,-0.3 c 3.6,-0.3 7.3,-0.5 10.9,-0.7 3.6,-0.1 7.2,-0.3 10.8,-0.4 1.8,-0.1 3.6,-0.1 5.4,-0.2 1.8,0 3.5,0 5.2,0 0.6,0 0.5,-0.9 -0.1,-0.9 -3.3,-0.2 -6.6,-0.2 -9.9,-0.2 l -9.8,-0.1 c -6.5,0.1 -12.9,0.2 -19.3,0.4 -3.7,0.2 -7.4,0.2 -11.1,0.3 -1,-0.4 -2.1,-0.8 -3.1,-1.1 l -0.3,-0.2 c 1.3,-0.3 2.7,-0.6 4,-0.8 7.4,-0.9 15,-2.4 22.5,-3.8 3.8,-0.8 7.6,-1.6 11.3,-2.4 3.7,-0.8 7.5,-1.6 11.2,-2.5 0.9,-0.2 0.3,-1.5 -0.6,-1.3 -1.6,0.3 -3.1,0.6 -4.7,0.9 0,-0.3 -0.2,-0.7 -0.6,-0.6 -5.3,0.9 -10.7,2 -15.9,3 l -7.8,1.4 -7.8,1.5 c -5,0.7 -9.9,1.2 -14.9,2 -0.7,-0.6 -5.5,0.3 -6.2,-0.2 3.9,-1.5 8.8,-3.6 13.8,-5.7 5,-2 10,-4 14.1,-5.8 4.3,-1.7 8.5,-3 12.8,-4.4 4.3,-1.4 8.7,-3 13,-4.1 0.6,-0.2 0.2,-1.1 -0.4,-0.9 -2.8,0.7 -5.6,1.6 -8.4,2.4 1.7,-0.7 3.4,-1.3 5,-2 1.1,-0.4 0.3,-2 -0.8,-1.6 l -14.2,5.3 c -4.7,1.7 -9.4,3.7 -14,5.5 7.4,-4 14.7,-8 21.8,-11.8 0.5,-0.3 -0.1,-1 -0.6,-0.8 -16.1,8.2 -32.1,14.9 -47.2,22.8 -1.5,0.8 -3.1,-1.8 -4.7,-0.9 7.9,-4.4 15.6,-8.9 23.4,-13.9 7.8,-5 15.5,-9.9 23.1,-15 0.1,-0.1 0,-0.3 -0.2,-0.2 -4.2,2.7 -8.4,5.2 -12.5,7.6 -4.1,2.4 -8.3,4.7 -12.4,7 -4.1,2.3 -8.1,4.6 -12.2,6.8 -4,2.4 -8,4.7 -12.1,7.1 -21.1,-3.4 -42.5,-2 -63.4,-0.8 -0.3,0 -0.3,0.5 0,0.5 20.7,-1.1 40.8,3.5 60.4,7.4 z m 94.6,31.5 0.6,0.3 0.5,0.9 -1,-0.9 -0.1,-0.3 z m -86.1,-29.8 0.9,0.6 c 3.1,3.6 6,7.6 8.7,11.5 -3.3,-4.2 -6.9,-8.5 -10.6,-12.3 l 1,0.2 z"
             id="path41"
             inkscape:connector-curvature="0" /></g><g
           id="g43"><polygon
             class="noFillSVG"
             points="507.1,180.3 507.1,180.3 507.1,180.3 "
             id="polygon45"
             style="fill:none" /><path
             class="st1"
             d="m 501.1,182.5 c 1,-1 2,-2 3.3,-2.6 2.5,-1.1 0.6,-9 -3.7,-5.6 -0.9,0.7 -1.5,1.5 -1.9,2.4 -0.6,1.6 -0.9,4.5 -0.1,6.1 0.7,1.4 1.3,0.8 2.4,-0.3 z"
             id="path47"
             inkscape:connector-curvature="0"
             style="fill:#f70000" /><path
             class="st2"
             d="m 486.3,247.6 c -0.3,0.8 -1.6,0.7 -1.6,-0.2 -0.1,-16.3 0.6,-34.3 6.8,-49.9 -2.6,3.4 -5,6.9 -7.3,10.7 -2.3,3.9 -5.7,14.2 -11.4,8.4 -2.5,-2.6 -4.2,-5.8 -5.5,-9.4 -0.1,0.1 -0.3,0.1 -0.4,0.2 -5.5,3 -10.9,6 -15.9,9.9 -3.4,2.6 -8.1,5.6 -10.4,9.3 -0.1,0.2 -0.2,0.3 -0.3,0.5 -0.1,0.3 -0.3,0.6 -0.3,0.9 -1.2,4.1 2.3,9.1 4.9,11.9 5.8,6.3 14.4,10.1 22.3,13.1 7.8,3 16,5.2 24.2,6.6 0.3,0.1 0.7,0.1 1,0.2 0.1,-0.5 0.2,-1.1 0.3,-1.6 0.5,-2.8 1,-5.6 1.6,-8.3 0.1,-0.3 0.1,-0.6 0.2,-0.9 0.6,-3.1 0.8,-6 0.8,-9 -3.9,1.4 -7.5,3.7 -9,7.6 z"
             id="path49"
             inkscape:connector-curvature="0"
             style="fill:#d0ac70" /><path
             class="st2"
             d="m 491.2,261.3 c -1.1,-0.7 -2.8,-0.6 -4,-0.8 -2.9,-0.6 -5.7,-1.3 -8.5,-2.1 -5.4,-1.5 -10.7,-3.5 -15.8,-5.8 -7.9,-3.5 -16.3,-7.7 -21.3,-15 -0.9,-1.3 -1.8,-2.8 -2.4,-4.3 -1,-2.6 0.5,-5.2 -3.4,-4.2 -2.9,0.7 -5.7,2.5 -7.8,4.6 -2.2,2.1 -1,6 -0.6,8.5 0.4,2 0.9,4 1.5,6 1.5,4.3 3.8,8.3 7.1,11.4 3.8,3.5 8.6,5.8 13.3,7.9 9.9,4.5 19.8,7.3 30.8,8 2.6,0.2 5.1,0.3 7.7,0.3 1.7,0 4.6,0.6 5.4,-1.7 0.3,-0.9 0.2,-2.1 0.1,-3 0,-2.5 0.4,-8.2 -2.1,-9.8 z"
             id="path51"
             inkscape:connector-curvature="0"
             style="fill:#d0ac70" /><path
             class="st1"
             d="m 493.2,215.3 c -0.8,-4.3 -1.5,-9 -1.4,-13.7 -4.5,13.5 -5.5,28.1 -5.5,42.8 2.2,-2.9 5.5,-4.6 9,-5.9 0.4,-0.2 0.9,-0.3 1.3,-0.4 0.2,-0.1 0.4,-0.1 0.6,-0.2 1.3,-0.4 1.1,-0.3 1.1,-1.4 0.1,-2.5 -1,-5.8 -1.7,-8.2 -1.2,-4.4 -2.6,-8.6 -3.4,-13 z"
             id="path53"
             inkscape:connector-curvature="0"
             style="fill:#f70000" /><path
             class="st1"
             d="m 468.5,206.6 c 0.1,0.3 0.2,0.6 0.3,0.8 1.5,4.2 6.6,14.6 11,7.1 2,-3.3 3.6,-6.8 5.7,-10.1 -1,1.4 -2.1,2.8 -3.2,4.1 -1.3,1.6 -3.5,5 -6.1,4.1 -5.3,-1.9 4.2,-13.4 6,-15.4 2.9,-3.2 6,-6.2 9.1,-9.2 2,-1.9 4,-3.9 6.1,-5.6 -0.5,-1.6 -0.7,-3.3 -0.6,-4.6 0,-0.4 0.1,-0.8 0.3,-1.1 -4,0.6 -8.2,0.9 -12.2,1.3 -5.2,0.5 -11.3,0.3 -16.3,2 -6.1,2.2 -4.5,8.3 -3.5,13.4 0.8,4 1.7,8 3,11.9 0.1,0.5 0.3,0.9 0.4,1.3 z"
             id="path55"
             inkscape:connector-curvature="0"
             style="fill:#f70000" /><path
             class="st2"
             d="m 527.7,242.4 c -3.5,1.4 -3.9,5.9 -0.9,8 1.6,1.2 3.9,1.5 5.8,1.3 4.7,-0.5 7.7,-5.5 7.1,-10 -0.3,-1.7 -1.6,-3.4 -3.3,-3.4 -1.2,0 -2,1.2 -3.2,1 -1,-0.1 -1.1,-0.9 -1.5,-1.6 -1,-1.8 -1.9,-3.7 -2.7,-5.7 -1.2,0.9 -2.4,1.9 -3.6,2.9 1.2,2.1 2.1,4.4 2.7,6.7 0.2,0.4 0,0.7 -0.4,0.8 z"
             id="path57"
             inkscape:connector-curvature="0"
             style="fill:#d0ac70" /><path
             class="st1"
             d="m 514.6,182.9 c 7.6,5.9 13.2,14.6 15.9,23.4 1.6,-0.5 3.2,-1 4.8,-1.4 0.5,-0.1 1.1,-0.2 1.6,-0.4 7.3,-1.5 14.7,-1.6 22.1,-0.4 -6.7,-6.8 -14.6,-11.9 -23.4,-15.7 -5.3,-2.3 -10.7,-3.8 -16.2,-5.2 -2.1,-0.5 -4.2,-1 -6.4,-1.5 0.5,0.4 1,0.8 1.6,1.2 z"
             id="path59"
             inkscape:connector-curvature="0"
             style="fill:#f70000" /><path
             class="st3"
             d="m 507.1,180.3 0,0 0,0 c 0,0 -0.1,0 0,0 -0.1,0 0,0 0,0 z"
             id="path61"
             inkscape:connector-curvature="0"
             style="fill:#929fa5" /><path
             class="st2"
             d="m 551.2,219.4 c -2.7,-1 -5.4,-2.5 -8.4,-2.5 0,0 -0.1,0 -0.1,0 -2.7,0 -5.3,1.1 -7.8,2.2 -9.4,4.3 -20.6,9.4 -26.8,17.9 -1.5,2.1 -3,3.8 -3.2,6.5 -0.3,2.8 0.3,5.7 -0.1,8.5 -0.4,3.1 -0.9,6.5 -0.3,9.6 0.8,3.6 3.4,5.5 6.9,6.3 0.2,0 0.4,0.1 0.6,0.1 19.6,4.3 40.8,-7.4 51.6,-23.4 3.5,-5.3 7,-13.4 1.8,-18.7 -3.7,-3.6 -9.4,-4.7 -14.2,-6.5 z m 4,30 c -9.1,7.7 -21,14.5 -32.8,16.3 -3,0.5 -6,0.6 -9,0.3 -2,-0.2 -4.5,-0.3 -6,-1.9 -2.9,-3.1 -0.3,-8.9 1.2,-12.1 0.4,-0.8 0.8,-1.7 1.3,-2.5 5,-8.7 13.4,-16 22.3,-20.8 0.8,-0.4 1.6,-0.8 2.4,-1.2 6.1,-2.9 13.7,-4.6 20.1,-1.7 3.9,1.8 7.2,5.1 7.6,9.5 0.5,5.8 -3,10.7 -7.1,14.1 z"
             id="path63"
             inkscape:connector-curvature="0"
             style="fill:#d0ac70" /><path
             class="st1"
             d="m 506.5,178.1 c 0.1,0 0.1,0.1 0.2,0.1 1.1,-0.6 2.3,-1.1 2.5,-1.2 1.5,-0.6 3.1,-1 4.6,-1.3 3.3,-0.7 6.8,-1 10.2,-1.3 3.9,-0.3 8,-0.3 11.9,0.8 1.8,0.5 4.2,1.3 4.4,3.5 0.2,1.7 -1.1,2.6 -2.6,2.7 -3.9,0.3 -8.2,-0.7 -12,-1 -3.3,-0.3 -6.6,-0.7 -10,-0.8 3.8,0.5 7.6,1.3 11.5,1.7 4.2,0.5 8.6,1.1 12.8,0.7 1.3,-0.1 3.2,-0.3 4.4,-1.1 1.2,-0.8 0.8,-0.9 0.1,-2.2 -1,-1.9 -2.1,-3.7 -3.2,-5.5 -2.3,-3.8 -4.8,-7.5 -7.5,-11 -0.7,-0.9 -1.4,-2.2 -2.3,-3 -1.7,-1.5 -2.8,-1.1 -4.5,-0.6 -2,0.6 -3.9,1.5 -5.7,2.4 -6.3,3.2 -11.3,7.5 -16,12.5 0.4,1.1 0.6,2.5 0.9,3.4 0,0.4 0.1,0.8 0.3,1.2 z"
             id="path65"
             inkscape:connector-curvature="0"
             style="fill:#f70000" /><polygon
             class="st3"
             points="507.1,180.3 507.1,180.3 507.1,180.3 507.1,180.4 507.1,180.4 "
             id="polygon67"
             style="fill:#929fa5" /><path
             class="st2"
             d="m 512.6,230.4 c 7,-5.8 15.9,-9.6 24.1,-13.5 1.2,-0.6 2.4,-1 3.5,-1.4 -0.8,-1.6 -1.5,-3.2 -2.2,-4.7 -0.7,-1.5 -1.4,-3 -2.1,-4.5 -1.9,0.4 -3.9,1 -5.7,1.6 -0.4,0.1 -0.8,-0.1 -0.9,-0.5 -1.8,-6.9 -5.2,-13.2 -10.2,-18.4 -2.6,-2.7 -5.5,-4.9 -8.6,-6.8 -2.2,-0.1 -4.3,0.1 -6.4,0.8 -0.8,0.3 -1.5,0.6 -2.2,1 -0.1,0 -0.2,0.1 -0.2,0.1 -0.1,0.1 -0.3,0.2 -0.4,0.3 -0.1,0.1 -0.2,0.1 -0.2,0.2 -1,0.9 -1.9,1.9 -2.8,2.9 -0.1,0.2 -0.2,0.4 -0.4,0.6 -0.9,1.6 -1.8,3.2 -2.6,4.9 -0.1,0.3 -0.3,0.6 -0.4,0.9 -0.1,0.6 -0.3,1.2 -0.4,1.8 -1.6,8.8 0.1,18.2 2.6,26.8 0,0.1 0.1,0.2 0.1,0.3 0.4,1.3 0.8,2.6 1.2,3.9 1.8,5.1 3.9,10.1 5.8,15.1 1.6,-4.5 4.8,-8.4 8.4,-11.4 z"
             id="path69"
             inkscape:connector-curvature="0"
             style="fill:#d0ac70" /><path
             d="m 554.6,226 c -6.4,-2.9 -14,-1.2 -20.1,1.7 -0.8,0.4 -1.6,0.8 -2.4,1.2 -8.9,4.7 -17.3,12.1 -22.3,20.8 -0.5,0.8 -0.9,1.6 -1.3,2.5 -1.5,3.1 -4.1,9 -1.2,12.1 1.5,1.6 4,1.7 6,1.9 3,0.3 6.1,0.1 9,-0.3 11.8,-1.9 23.8,-8.7 32.8,-16.3 4,-3.4 7.5,-8.3 7,-13.9 -0.3,-4.6 -3.6,-7.9 -7.5,-9.7 z m -25.5,6.1 c 0.8,1.9 1.7,3.8 2.7,5.7 0.4,0.7 0.6,1.5 1.5,1.6 1.1,0.1 2,-1 3.2,-1 1.7,0 3,1.7 3.3,3.4 0.7,4.5 -2.4,9.5 -7.1,10 -1.9,0.2 -4.2,-0.1 -5.8,-1.3 -3,-2.2 -2.6,-6.6 0.9,-8 0.3,-0.1 0.6,-0.4 0.5,-0.8 -0.7,-2.3 -1.5,-4.6 -2.7,-6.7 1.1,-1 2.3,-2 3.5,-2.9 z"
             id="path71"
             inkscape:connector-curvature="0" /><path
             d="m 559.1,220.5 c -4,-1.7 -8.1,-3.6 -12.3,-4.9 -1.7,-0.5 -3.3,-0.6 -4.8,-0.4 -0.8,-1.6 -1.5,-3.2 -2.3,-4.8 -0.7,-1.5 -1.4,-2.9 -2.1,-4.4 7.7,-1.6 15.7,-1.6 23.5,0.1 0.8,0.2 1.3,-0.7 0.8,-1.3 -6.9,-7.8 -15.9,-13.6 -25.5,-17.6 -5.4,-2.3 -11.2,-4.2 -17.1,-5.5 1.1,0.2 2.2,0.4 3.3,0.5 5.1,0.8 10.3,1.4 15.5,1.4 2.1,0 8.3,0 9.1,-2.7 0.5,-1.5 -1.2,-3.4 -1.8,-4.6 -1.3,-2.3 -2.7,-4.6 -4.1,-6.9 -1.4,-2.2 -3,-4.5 -4.5,-6.6 -1.3,-1.8 -2.7,-4.2 -4.5,-5.7 -2.8,-2.3 -6.6,-0.2 -9.4,1 -6.9,3.1 -13.6,8 -18.2,14.3 -1,-0.9 -2.5,0 -3.6,0.5 -1.3,0.6 -2.5,1.5 -3.2,2.6 -4.5,0 -8.9,0.5 -13.4,0.8 -4.7,0.3 -9.5,0.4 -14.1,1.4 -3.2,0.6 -6.4,1.7 -7.5,5.1 -1.1,3.4 0.1,7.2 0.9,10.5 0.9,3.9 1.8,8.4 3.2,12.6 -0.1,0.1 -0.3,0.1 -0.4,0.2 -9.7,4.4 -18.8,10.8 -26.1,18.6 -0.9,1 -1.8,2.2 -3,2.9 -1.2,0.7 -2.6,0.6 -3.9,1.3 -1.1,0.6 -2.5,1.2 -3.6,1.8 -3.6,2.1 -5,3.9 -4.5,8.2 0.9,7.8 3.6,15.8 9.4,21.3 6.7,6.5 16.7,10.5 25.4,13.6 4.7,1.6 9.5,2.6 14.4,3.2 5.2,0.6 10.9,1.2 16.2,0.9 6.7,-0.5 4.1,-9.6 3.4,-13.7 -0.6,-4 0.6,-7.6 1.4,-11.5 0.2,-0.8 0.3,-1.5 0.4,-2.3 0.7,-3.7 1.1,-7.4 0.7,-11.2 0.9,-0.3 1.8,-0.6 2.7,-0.9 0.3,-0.1 0.5,-0.4 0.4,-0.7 -0.2,-0.8 -0.4,-1.6 -0.5,-2.3 0.5,2.5 2.1,4.6 3.1,6.9 1.1,2.4 1.4,4.9 1.2,7.6 -0.4,5.5 -2.4,13.2 2.6,17.4 2,1.7 4.9,2 7.4,2.3 3.7,0.5 7.4,0.5 11.1,0.1 6.6,-0.7 13.1,-2.7 19.1,-5.7 6.2,-3.2 11.8,-7.5 16.4,-12.7 4.3,-4.8 8.7,-10.8 9.3,-17.4 0.6,-7.3 -4.5,-10.8 -10.5,-13.3 z m -39.8,-37.2 c 5.5,1.4 10.9,3 16.2,5.2 8.8,3.8 16.7,8.9 23.4,15.7 -7.4,-1.2 -14.9,-1.1 -22.1,0.4 -0.5,0.1 -1.1,0.2 -1.6,0.4 -1.6,0.4 -3.2,0.8 -4.8,1.4 -2.7,-8.8 -8.3,-17.5 -15.9,-23.4 -0.5,-0.4 -1.1,-0.8 -1.6,-1.2 2.2,0.4 4.3,0.9 6.4,1.5 z m 1.8,-22.3 c 1.8,-0.9 3.7,-1.8 5.7,-2.4 1.8,-0.6 2.9,-0.9 4.5,0.6 0.9,0.8 1.6,2.1 2.3,3 2.7,3.6 5.2,7.3 7.5,11 1.1,1.8 2.2,3.7 3.2,5.5 0.7,1.3 1.1,1.4 -0.1,2.2 -1.2,0.8 -3,1 -4.4,1.1 -4.2,0.3 -8.6,-0.2 -12.8,-0.7 -3.8,-0.5 -7.6,-1.3 -11.5,-1.7 3.3,0.1 6.7,0.5 10,0.8 3.9,0.3 8.2,1.3 12,1 1.6,-0.1 2.8,-1 2.6,-2.7 -0.2,-2.2 -2.6,-3 -4.4,-3.5 -3.8,-1.1 -7.9,-1.1 -11.9,-0.8 -3.4,0.3 -6.9,0.6 -10.2,1.3 -1.6,0.3 -3.1,0.7 -4.6,1.3 -0.2,0.1 -1.4,0.6 -2.5,1.2 -0.1,0 -0.1,-0.1 -0.2,-0.1 -0.1,-0.4 -0.3,-0.8 -0.4,-1.2 -0.3,-1 -0.5,-2.4 -0.9,-3.4 4.8,-5 9.9,-9.3 16.1,-12.5 z m -14,19.3 c 0,0 0,0 0,0 0,0 0,0.1 0,0 l 0,0 c 0,0 -0.1,0 0,0 -0.1,0 0,0 0,0 0,0 0,0 0,0 z m -8.3,-3.6 c 0.4,-0.9 1,-1.7 1.9,-2.4 4.3,-3.4 6.3,4.6 3.7,5.6 -1.3,0.6 -2.3,1.6 -3.3,2.6 -1.1,1.1 -1.7,1.7 -2.4,0.3 -0.8,-1.6 -0.5,-4.5 0.1,-6.1 z m -33.7,16.8 c -1,-5.1 -2.7,-11.2 3.5,-13.4 5,-1.8 11,-1.5 16.3,-2 4.1,-0.4 8.2,-0.6 12.2,-1.3 -0.1,0.4 -0.2,0.7 -0.3,1.1 -0.1,1.3 0.1,3 0.6,4.6 -2.2,1.8 -4.2,3.8 -6.1,5.6 -3.1,3 -6.3,6 -9.1,9.2 -1.8,2 -11.3,13.5 -6,15.4 2.6,0.9 4.7,-2.5 6.1,-4.1 1.1,-1.3 2.2,-2.7 3.2,-4.1 -2,3.3 -3.7,6.7 -5.7,10.1 -4.5,7.5 -9.6,-2.9 -11,-7.1 -0.1,-0.3 -0.2,-0.6 -0.3,-0.8 -0.1,-0.4 -0.3,-0.8 -0.4,-1.2 -1.2,-4 -2.1,-8 -3,-12 z m 28.1,80.7 c -0.8,2.3 -3.7,1.8 -5.4,1.7 -2.6,0 -5.1,-0.1 -7.7,-0.3 -10.9,-0.7 -20.8,-3.5 -30.8,-8 -4.7,-2.1 -9.5,-4.4 -13.3,-7.9 -3.3,-3.1 -5.7,-7.1 -7.1,-11.4 -0.7,-2 -1.2,-4 -1.5,-6 -0.5,-2.6 -1.6,-6.4 0.6,-8.5 2.1,-2 4.9,-3.8 7.8,-4.6 3.9,-1 2.4,1.6 3.4,4.2 0.6,1.5 1.4,2.9 2.4,4.3 5,7.3 13.5,11.5 21.3,15 5.1,2.3 10.4,4.2 15.8,5.8 2.8,0.8 5.7,1.5 8.5,2.1 1.2,0.2 2.9,0.1 4,0.8 2.6,1.6 2.1,7.3 2.2,9.9 0,0.8 0.2,2 -0.2,2.9 z m 1.3,-25.3 c -0.1,0.3 -0.1,0.6 -0.2,0.9 -0.5,2.8 -1.1,5.5 -1.6,8.3 -0.1,0.5 -0.2,1.1 -0.3,1.6 -0.3,-0.1 -0.7,-0.1 -1,-0.2 -8.3,-1.4 -16.4,-3.6 -24.2,-6.6 -7.9,-3 -16.4,-6.8 -22.3,-13.1 -2.6,-2.8 -6.1,-7.8 -4.9,-11.9 0.1,-0.3 0.2,-0.6 0.3,-0.9 0.1,-0.2 0.2,-0.4 0.3,-0.5 2.3,-3.7 7,-6.7 10.4,-9.3 5.1,-3.9 10.4,-6.9 15.9,-9.9 0.1,-0.1 0.3,-0.1 0.4,-0.2 1.3,3.5 3,6.8 5.5,9.4 5.7,5.8 9.1,-4.4 11.4,-8.4 2.2,-3.8 4.6,-7.3 7.3,-10.7 -6.2,15.5 -6.9,33.6 -6.8,49.9 0,1 1.3,1 1.6,0.2 1.5,-4 5.2,-6.2 9,-7.8 0,3.1 -0.3,6.1 -0.8,9.2 z m 2.7,-11.1 c -0.2,0.1 -0.4,0.1 -0.6,0.2 -0.4,0.1 -0.9,0.3 -1.3,0.4 -3.5,1.2 -6.9,3 -9,5.9 0,-14.6 0.9,-29.3 5.5,-42.8 -0.1,4.7 0.6,9.5 1.4,13.7 0.9,4.4 2.2,8.6 3.4,12.9 0.7,2.4 1.9,5.7 1.7,8.2 0,1.3 0.2,1.2 -1.1,1.5 z m 1.1,-11.2 c -0.4,-1.3 -0.9,-2.6 -1.2,-3.9 0,-0.1 -0.1,-0.2 -0.1,-0.3 -2.4,-8.5 -4.2,-17.9 -2.6,-26.8 0.1,-0.6 0.2,-1.2 0.4,-1.8 0.1,-0.3 0.3,-0.6 0.4,-0.9 0.8,-1.7 1.6,-3.3 2.6,-4.9 0.1,-0.2 0.2,-0.4 0.4,-0.6 0.9,-1 1.8,-1.9 2.8,-2.9 0.1,-0.1 0.2,-0.1 0.2,-0.2 0.1,-0.1 0.3,-0.2 0.4,-0.3 0.1,0 0.2,-0.1 0.2,-0.1 0.7,-0.4 1.5,-0.7 2.2,-1 2,-0.7 4.2,-0.9 6.4,-0.8 3.1,1.9 6,4 8.6,6.8 4.9,5.2 8.4,11.5 10.2,18.4 0.1,0.4 0.5,0.6 0.9,0.5 1.9,-0.6 3.8,-1.2 5.7,-1.6 0.7,1.5 1.4,3 2.1,4.5 0.7,1.6 1.5,3.2 2.2,4.7 -1.2,0.3 -2.3,0.8 -3.5,1.4 -8.2,3.9 -17.1,7.6 -24.1,13.5 -3.6,3 -6.8,6.9 -8.5,11.3 -1.8,-4.9 -3.9,-9.9 -5.7,-15 z m 65.4,18.1 c -10.8,16 -32,27.7 -51.6,23.4 -0.2,0 -0.4,-0.1 -0.6,-0.1 -3.5,-0.8 -6.1,-2.7 -6.9,-6.3 -0.7,-3.1 -0.2,-6.5 0.3,-9.6 0.4,-2.8 -0.2,-5.7 0.1,-8.5 0.2,-2.7 1.7,-4.4 3.2,-6.5 6.2,-8.5 17.4,-13.6 26.8,-17.9 2.4,-1.1 5,-2.2 7.8,-2.2 0,0 0.1,0 0.1,0 2.9,0 5.7,1.4 8.4,2.5 4.8,1.9 10.4,2.9 14.2,6.7 5.1,5.1 1.7,13.2 -1.8,18.5 z"
             id="path73"
             inkscape:connector-curvature="0" /><polygon
             class="st4"
             points="507.1,180.3 507.1,180.4 507.1,180.4 507.1,180.3 "
             id="polygon75"
             style="fill:#3d3d3d" /></g></g></g></switch></svg>