<?xml version="1.0" encoding="utf-8"?>
<!-- Generator: Adobe Illustrator 23.0.4, SVG Export Plug-In . SVG Version: 6.00 Build 0)  -->
<svg version="1.1" id="Animal8" xmlns="http://www.w3.org/2000/svg" xmlns:xlink="http://www.w3.org/1999/xlink" x="0px" y="0px"
	 viewBox="0 0 223.9 249.7" style="enable-background:new 0 0 223.9 249.7;" xml:space="preserve">
<style type="text/css">
	#Animal8 .st0{fill:none;}
	#Animal8 .st1{fill:#E6AF42;}
	#Animal8 .st2{fill:#8D7D72;}
	#Animal8 .st3{fill:#D5AB4B;}
	#Animal8 .st4{fill:#EDD281;}
	#Animal8 .st5{fill:#E1D8CA;}
	#Animal8 .st6{fill:#32241B;}
</style>
<g>
	<path class="st0" d="M127.1,241.4L127.1,241.4C127.1,241.4,127.1,241.4,127.1,241.4C127.1,241.4,127.1,241.4,127.1,241.4z"/>
	<path class="st0" d="M128.9,240.1C128.9,240.1,128.9,240.1,128.9,240.1c0,0.1,0,0.2,0,0.3C128.9,240.3,128.9,240.2,128.9,240.1z"/>
	<path class="st0" d="M127.1,241.4v0.3c0,0.2,0,0.5,0,0.7c0-0.2,0-0.5,0-0.7C127.1,241.6,127.1,241.5,127.1,241.4z"/>
	<polygon class="st0" points="128.9,243 128.9,243 128.9,243 	"/>
	<path class="st0" d="M126.3,243.6c0-0.2,0-0.4,0.1-0.6c0-0.1,0-0.1,0-0.2c0,0.1,0,0.1,0,0.2C126.3,243.2,126.3,243.4,126.3,243.6z"
		/>
	<path class="st0" d="M126.5,240.7c0-0.1,0-0.2,0-0.3c0,0,0,0,0,0C126.5,240.5,126.5,240.6,126.5,240.7z"/>
	<path class="st0" d="M123.9,245.1c0,0.1,0,0.1,0,0.2c0,0.2,0,0.4,0.1,0.6c0-0.2,0-0.5-0.1-0.6C123.9,245.2,123.9,245.1,123.9,245.1
		z"/>
	<path class="st0" d="M123.8,240.8c0,0.1,0,0.2,0,0.3C123.8,240.9,123.8,240.8,123.8,240.8C123.8,240.8,123.8,240.8,123.8,240.8z"/>
	<path class="st0" d="M127.4,245.5c-0.1,0-0.1-0.1-0.2-0.2C127.3,245.4,127.3,245.5,127.4,245.5c0.7,0.5,1.1-0.2,1.3-1
		C128.5,245.3,128.1,246,127.4,245.5z"/>
	<path class="st0" d="M132.2,239.5C132.2,239.5,132.2,239.5,132.2,239.5c-0.8,0.2-1.6,0.3-2.4,0.4
		C130.5,239.8,131.4,239.7,132.2,239.5z"/>
	<path class="st0" d="M192.9,148c-0.9,2.9-2.2,5.8-3.5,8.6C190.7,153.8,192,151,192.9,148z"/>
	<path class="st0" d="M178.4,148.4c-0.5-8.1-2.6-15.9-5.1-23.6C175.8,132.5,177.9,140.3,178.4,148.4c0.1,2.2,0.2,4.4,0.1,6.6
		C178.6,152.8,178.5,150.6,178.4,148.4z"/>
	<path class="st0" d="M168.1,79.7C168.1,79.7,168.1,79.7,168.1,79.7c-0.1,0-0.1,0.1-0.2,0.1c-1.1,0.7-2.2,1.3-3.4,1.8
		c1.2-0.5,2.3-1.1,3.4-1.8C167.9,79.8,168,79.8,168.1,79.7z"/>
	<path class="st0" d="M157.1,83.8c1.8-0.3,3.7-0.8,5.5-1.4C160.8,83,158.9,83.5,157.1,83.8c0.9,2.4,1.9,4.7,2.9,7.1
		c2.9,6.9,5.8,13.9,8.6,20.8c-2.7-7-5.7-13.9-8.6-20.8C159,88.5,158,86.1,157.1,83.8z"/>
	<path class="st0" d="M131.9,243.2c0.1-0.6,0.1-1.2,0.2-1.6c0-0.4,0.1-0.7,0.1-1.1c0,0.4,0,0.7-0.1,1.1
		C132,242,132,242.6,131.9,243.2z"/>
	<path class="st0" d="M131.4,244.6c0.1-0.1,0.2-0.2,0.3-0.4c0.1-0.1,0.1-0.3,0.1-0.5c0,0.2-0.1,0.3-0.1,0.5
		C131.6,244.4,131.5,244.5,131.4,244.6z"/>
	<path class="st0" d="M129.8,243.1C129.8,243.1,129.8,243.2,129.8,243.1c0,0.2,0.1,0.2,0.1,0.3C129.9,243.3,129.9,243.3,129.8,243.1
		C129.8,243.2,129.8,243.1,129.8,243.1z"/>
	<path class="st0" d="M124.7,247.3c-0.2,0-0.4-0.1-0.5-0.3C124.3,247.2,124.5,247.3,124.7,247.3z"/>
	<path class="st0" d="M129.5,240.5c0,0.2,0,0.4,0,0.6c0,0,0,0,0,0c0,0,0,0,0,0C129.5,240.9,129.5,240.7,129.5,240.5z"/>
	<path class="st0" d="M171.4,187C171.4,187,171.4,187,171.4,187c0.9-2.3,1.7-4.6,2.5-7C173.1,182.4,172.3,184.8,171.4,187z"/>
	<path class="st0" d="M58.5,198.6c-0.5-0.7-1-1.4-1.5-2C57.5,197.2,58,197.9,58.5,198.6c0.4,0.5,0.8,1,1.2,1.6c0,0,0,0,0,0
		C59.3,199.6,58.9,199.1,58.5,198.6z"/>
	<path class="st0" d="M97.9,248.5c-0.3-0.2-0.6-0.9-0.8-1.5C97.2,247.6,97.5,248.3,97.9,248.5z"/>
	<path class="st0" d="M97.4,240.5C97.4,240.5,97.4,240.5,97.4,240.5c0.2,0,0.5,0.1,0.7,0.1C97.9,240.6,97.6,240.6,97.4,240.5z"/>
	<path class="st0" d="M96.8,243.9c0-0.1,0-0.2,0-0.3C96.8,243.7,96.8,243.8,96.8,243.9c-0.1,0.7-0.1,1.6,0.1,2.4
		C96.7,245.6,96.7,244.7,96.8,243.9z"/>
	<path class="st0" d="M97.2,241.2c0,0,0,0.1,0,0.1c0,0.1,0,0.2,0,0.3c0-0.1,0-0.2,0-0.3C97.2,241.3,97.2,241.3,97.2,241.2z"/>
	<path class="st0" d="M50.5,177.4c0.5,1.8,1.1,3.5,1.7,5.3C51.6,180.9,51,179.1,50.5,177.4c-2.5-8.6-3.8-17.3-3.5-26.1
		C46.7,160,47.9,168.7,50.5,177.4z"/>
	<path class="st0" d="M53.5,84.9c-0.4,0.7-0.8,1.4-1.3,2.1C52.6,86.3,53.1,85.6,53.5,84.9C53.5,84.9,53.5,84.9,53.5,84.9z"/>
	<path class="st0" d="M65,89.1C65,89.1,65,89.1,65,89.1c-0.2,0.6-0.5,1.3-0.7,1.9C64.5,90.3,64.8,89.7,65,89.1z"/>
	<path class="st0" d="M56.9,111.3c-1.6,4.4-3.2,8.8-4.6,13.3C53.7,120.1,55.3,115.7,56.9,111.3z"/>
	<path class="st0" d="M100.1,241C100.1,241,100.1,240.9,100.1,241c0.7,0,1.3,0.1,2,0.2c0,0.1,0,0.1,0,0.2c0,0.4-0.1,0.8-0.1,1.2
		c0,0.2,0,0.4-0.1,0.6c0-0.2,0-0.4,0.1-0.6c0-0.4,0.1-0.8,0.1-1.2c0-0.1,0-0.1,0-0.2C101.4,241.1,100.8,241,100.1,241
		C100.1,240.9,100.1,241,100.1,241z"/>
	<path class="st0" d="M104.9,248.2c0,0,0.1-0.1,0.1-0.1c0,0,0,0,0-0.1c0,0,0,0,0,0C104.9,248.1,104.9,248.1,104.9,248.2z"/>
	<path class="st0" d="M105.3,242.8c0-0.1,0-0.2,0-0.3c0-0.1,0-0.2,0-0.3c0,0.1,0,0.2,0,0.3C105.3,242.6,105.3,242.7,105.3,242.8z"/>
	<path class="st0" d="M105.3,241.6C105.3,241.6,105.3,241.6,105.3,241.6c-0.5-0.1-1.1-0.1-1.6-0.2c-0.3,0-0.7-0.1-1-0.1c0,0,0,0,0,0
		c0.3,0,0.7,0.1,1,0.1C104.2,241.4,104.8,241.5,105.3,241.6z"/>
	<path class="st0" d="M102.7,242.6c0-0.4,0-0.8,0-1.2c0,0,0,0,0,0c0,0,0,0,0,0C102.7,241.8,102.7,242.2,102.7,242.6
		c0,0.6,0,1.2,0,1.7c0,0.5,0.1,1.1,0.2,1.6c-0.1-0.5-0.1-1.1-0.2-1.6C102.7,243.8,102.7,243.2,102.7,242.6z"/>
	<path class="st0" d="M100,243.9c0-0.3,0-0.5,0-0.8C100,243.3,100,243.6,100,243.9c0,1.1-0.3,2.1-0.3,3.2c0,0.1,0,0.2,0,0.3
		c0-0.1,0-0.3,0-0.3C99.7,246,100,244.9,100,243.9z"/>
	<path class="st0" d="M101.5,247c0-0.3,0-0.5,0-0.8c0-0.3,0.1-0.7,0.1-1c0,0.3-0.1,0.7-0.1,1C101.5,246.5,101.5,246.8,101.5,247z"/>
	<path class="st0" d="M98.9,247.4c0.4-1.3,0.4-3.2,0.5-4.1c0-0.1,0-0.3,0-0.4c0,0.1,0,0.3,0,0.4C99.3,244.2,99.3,246.1,98.9,247.4z"
		/>
	<path class="st0" d="M99.4,241.1c0-0.1,0-0.2,0-0.3c0,0,0,0,0,0C99.5,240.9,99.4,241,99.4,241.1z"/>
	<path class="st0" d="M100.1,248.4c0.3,0.4,0.6,0.6,1.1-0.1c0,0,0,0,0,0C100.8,249,100.4,248.9,100.1,248.4z"/>
	<path class="st0" d="M123.8,241.9C123.8,241.9,123.8,241.9,123.8,241.9c0,0.1,0,0.2,0,0.3C123.8,242.1,123.8,242,123.8,241.9
		C123.8,241.9,123.8,241.9,123.8,241.9z"/>
	<path class="st0" d="M52,180.5c-0.4-1.2-0.8-2.5-1.1-3.7C51.2,178,51.6,179.2,52,180.5c2.8,8.5,6.7,16.5,11.1,24.2
		c0.2,0.4,0.4,0.8,0.7,1.1c-0.2-0.4-0.4-0.8-0.7-1.1C58.7,197,54.8,189,52,180.5z"/>
	<path class="st0" d="M123.5,240c-1.6,0.2-3.1,0.4-4.7,0.5C120.3,240.4,121.9,240.2,123.5,240c0.2,0,0.3,0,0.5-0.1
		c0.1,0,0.1,0,0.2,0c-0.1,0-0.1,0-0.2,0C123.8,240,123.6,240,123.5,240z"/>
	<path class="st0" d="M132.3,238.7c0.2,0,0.5-0.1,0.7-0.1c1.2-0.3,2.3-0.6,3.4-1c-1.1,0.4-2.3,0.7-3.4,0.9
		C132.8,238.6,132.5,238.7,132.3,238.7z"/>
	<path class="st0" d="M128.9,239.3L128.9,239.3c0.1,0,0.2,0,0.3,0C129.1,239.2,129,239.3,128.9,239.3
		C128.9,239.3,128.9,239.3,128.9,239.3z"/>
	<path class="st0" d="M126.7,239.6c0,0,0.1,0,0.1,0c0,0,0.1,0,0.1,0c-0.1,0-0.1,0-0.2,0C126.8,239.6,126.7,239.6,126.7,239.6z"/>
	<path class="st0" d="M106,240.8c-0.2,0-0.4,0-0.7-0.1c-0.8-0.1-1.7-0.1-2.6-0.2c0,0,0,0,0,0c-0.1,0-0.2,0-0.3,0c-0.1,0-0.2,0-0.2,0
		c-0.7-0.1-1.4-0.1-2.1-0.2c0,0-0.1,0-0.1,0c-0.1,0-0.1,0-0.2,0c-0.1,0-0.3,0-0.4,0c-0.2,0-0.3,0-0.5-0.1c0.2,0,0.3,0,0.5,0.1
		c0.1,0,0.3,0,0.4,0c0.1,0,0.1,0,0.2,0c0,0,0.1,0,0.1,0c0.7,0.1,1.4,0.1,2,0.2c0.1,0,0.2,0,0.2,0c0.1,0,0.2,0,0.3,0h0
		c0.9,0.1,1.7,0.1,2.5,0.2C105.5,240.8,105.7,240.8,106,240.8c0.2,0,0.5,0,0.7,0.1c0.8,0.1,1.6,0.1,2.4,0.2
		c-0.8-0.1-1.6-0.1-2.4-0.2C106.4,240.8,106.2,240.8,106,240.8z"/>
	<path class="st0" d="M66.3,210c2,3.3,4.1,6.6,6.2,9.9c0.4,0.6,0.8,1.3,1.2,1.9c-0.4-0.6-0.8-1.3-1.2-1.9
		C70.4,216.7,68.3,213.4,66.3,210z"/>
	<path class="st0" d="M79.1,230c1.5,2.1,3.1,4.1,5.2,5.7C82.3,234.1,80.6,232.1,79.1,230z"/>
	<path class="st0" d="M127.1,239.5L127.1,239.5c0.1,0,0.1,0,0.1,0C127.1,239.5,127.1,239.5,127.1,239.5
		C127.1,239.5,127.1,239.5,127.1,239.5z"/>
	<path class="st0" d="M151,84.2c1.6,0,3.2,0,4.8-0.2C154.2,84.1,152.6,84.2,151,84.2c-4.8-0.1-9.7-1-14.2-2.5
		c-2.8-0.9-5.6-2.1-8.1-3.7c2.5,1.6,5.3,2.8,8.1,3.7C141.3,83.1,146.1,84.1,151,84.2z"/>
	<circle class="st0" cx="113" cy="148" r="55"/>
	<path class="st0" d="M126.8,76.8C126.8,76.8,126.8,76.8,126.8,76.8c-0.5-0.3-1-0.5-1.5-0.8C125.8,76.2,126.3,76.5,126.8,76.8z"/>
	<path class="st0" d="M144.3,232.1c1-1.2,1.9-2.5,2.8-3.8c1.8-2.8,3.6-5.5,5.4-8.3c-1.8,2.8-3.6,5.5-5.4,8.3
		C146.3,229.6,145.3,230.9,144.3,232.1z"/>
	<path class="st0" d="M177.2,163.6c-1.2,9-3.9,17.5-7.5,25.7c-0.6,1.5-1.3,2.9-2,4.4c0.7-1.4,1.4-2.9,2-4.4
		C173.3,181.1,176,172.6,177.2,163.6c1.8-13.5-1-26.5-5.2-39.3C176.1,137.1,178.9,150.1,177.2,163.6z"/>
	<path class="st0" d="M160.7,94.4c-0.5-1.1-0.9-2.3-1.4-3.4c-0.1-0.2-0.2-0.5-0.3-0.7c0.1,0.2,0.2,0.5,0.3,0.7
		C159.7,92.1,160.2,93.2,160.7,94.4z"/>
	<path class="st0" d="M107.7,67c0.5,1,1,1.9,1.6,2.7c0,0,0,0,0,0C108.7,68.9,108.2,68,107.7,67z"/>
	<path class="st0" d="M64,93.5c0.4-1.1,0.8-2.2,1.1-3.3C64.7,91.3,64.4,92.4,64,93.5c-2.1,6-4.2,11.9-6.2,17.9
		c-2.2,6.6-4.6,13.2-6.5,19.8c1.9-6.7,4.3-13.3,6.5-19.8C59.8,105.5,61.9,99.5,64,93.5z"/>
	<path class="st0" d="M168.4,80.3c0.1,0.2,0.2,0.4,0.3,0.6c2.2,4.4,4.5,8.8,6.8,13.3c-2.3-4.4-4.6-8.8-6.8-13.3
		C168.5,80.6,168.4,80.5,168.4,80.3z"/>
	<path class="st0" d="M125.3,75.9c-3.4-2-6.5-4.5-8.9-7.7c0,0,0,0,0,0C118.8,71.4,121.9,74,125.3,75.9z"/>
	<path class="st0" d="M107.4,57c-0.5,0.3-0.8,0.7-1.1,1.1c0,0,0,0,0,0c0,0,0,0,0,0C106.6,57.7,107,57.3,107.4,57z"/>
	<path class="st0" d="M118.5,63.2c-0.4,0.8-0.7,1.5-1,2.3C117.8,64.8,118.1,64,118.5,63.2c0.7-1.4,1.9-3.2,1.5-4.8
		C120.4,60,119.2,61.8,118.5,63.2z"/>
	<path class="st0" d="M106.3,58.3C106.3,58.3,106.3,58.3,106.3,58.3C106.3,58.3,106.3,58.3,106.3,58.3
		C106.3,58.3,106.3,58.3,106.3,58.3C106.3,58.3,106.3,58.3,106.3,58.3z"/>
	<path class="st0" d="M194.1,136.5c-0.3-2.1-0.8-4.1-1.6-6.2c-1.6-4.4-3.5-8.8-5.5-13.1c2,4.3,3.8,8.6,5.5,13.1
		C193.3,132.3,193.8,134.4,194.1,136.5z"/>
	<path class="st0" d="M176.4,170.8c-0.1,0.6-0.2,1.1-0.4,1.7c-0.1,0.5-0.2,0.9-0.4,1.4c0.1-0.5,0.3-0.9,0.4-1.4
		C176.2,171.9,176.3,171.4,176.4,170.8z"/>
	<path class="st0" d="M97.1,77.5c2.9-1.5,5.8-3.2,8.5-5.1C102.9,74.2,100.1,75.9,97.1,77.5z"/>
	<path class="st0" d="M70.7,89.1c8.4-0.6,16.5-4.5,23.4-9.5C87.2,84.6,79,88.5,70.7,89.1z"/>
	<path class="st1" d="M98.1,240.6c-0.2,0-0.5-0.1-0.7-0.1c-0.1,0.2-0.1,0.5-0.2,0.7c0,0,0,0.1,0,0.1c0,0.1,0,0.2,0,0.3
		c-0.1,0.3-0.1,0.7-0.2,1c0,0.3-0.1,0.6-0.1,0.9c0,0.1,0,0.2,0,0.3c0,0.7-0.1,1.6,0.1,2.4c0,0.1,0,0.3,0.1,0.4
		c0,0.1,0.1,0.2,0.1,0.3c0.2,0.5,0.5,1.2,0.8,1.5c0.2,0.1,0.4,0.1,0.7-0.2c0.2-0.2,0.3-0.5,0.4-0.9c0.4-1.3,0.4-3.2,0.4-4.1
		c0-0.1,0-0.3,0-0.4c0-0.1,0-0.2,0-0.2c0-0.4,0-0.8,0-1.3c0-0.1,0-0.2,0-0.3c0-0.1,0-0.2,0-0.3C99,240.8,98.6,240.7,98.1,240.6z"/>
	<path class="st2" d="M59.7,200.1c-2.9-5.7-5.4-11.5-7.5-17.5c-0.6-1.8-1.2-3.5-1.7-5.3c-2.5-8.6-3.8-17.3-3.5-26.1
		c0.2-6.2,1.1-12.4,2.8-18.5c0.8-2.7,1.6-5.5,2.5-8.2c1.5-4.5,3.1-8.9,4.6-13.3c0.2-0.6,0.4-1.2,0.6-1.8c1.9-5.3,3.9-10.7,5.8-16
		c0.3-0.8,0.6-1.7,0.9-2.5c0.2-0.6,0.5-1.3,0.7-1.9c-4.1-0.5-8.1-1.8-11.5-4.1c-0.4,0.7-0.8,1.4-1.3,2.1c-0.4,0.7-0.8,1.4-1.2,2
		c0,0.1,0,0.2-0.1,0.2c-4.1,6.8-8.2,13.6-12.3,20.3c-2.4,3.9-4.8,7.8-5.9,12.3c-1.3,5-0.4,10,0.4,15c1.3,8.9,3,17.9,5.8,26.6
		c2.8,8.7,7,16.7,12.1,24.3c2,3,4,5.8,6.1,8.7c0.5,0.7,1,1.4,1.5,2C58.9,199.1,59.3,199.6,59.7,200.1z"/>
	<path class="st1" d="M102.1,241.4c0-0.1,0-0.1,0-0.2c-0.7-0.1-1.3-0.2-2-0.3c0,0,0,0,0,0.1c0,0.1,0,0.3,0,0.4c0,0.4,0,0.8,0,1.3
		c0,0.1,0,0.3,0,0.4c0,0.3,0,0.5,0,0.8c0,1.1-0.3,2.1-0.3,3.2c0,0.1,0,0.2,0,0.3c0.1,0.3,0.2,0.8,0.4,1.1c0.3,0.4,0.6,0.6,1.1-0.1
		c0.2-0.3,0.3-0.8,0.3-1.3c0-0.3,0-0.5,0-0.8c0-0.3,0.1-0.7,0.1-1c0-0.4,0.1-0.8,0.1-1.2c0-0.3,0.1-0.5,0.1-0.8c0-0.2,0-0.4,0.1-0.6
		C102,242.2,102,241.8,102.1,241.4z"/>
	<path class="st1" d="M105.3,242.8c0-0.1,0-0.2,0-0.3c0-0.1,0-0.2,0-0.3c0-0.2,0-0.4,0-0.6c-0.5-0.1-1.1-0.1-1.6-0.2
		c-0.3,0-0.7-0.1-1-0.1c0,0,0,0.1,0,0.1c0,0,0,0,0,0c0,0.4,0,0.8,0,1.2c0,0.6,0,1.2,0,1.7c0,0.5,0.1,1.1,0.2,1.6
		c0,0.1,0,0.3,0.1,0.4c0.1,0.3,0.3,0.9,0.6,1.3c0,0,0,0,0,0c0,0,0.1,0.1,0.1,0.1c0,0,0,0.1,0.1,0.1c0,0,0,0,0.1,0.1
		c0,0,0.1,0.1,0.1,0.1c0,0,0,0,0.1,0.1c0,0,0.1,0.1,0.1,0.1c0.3,0.2,0.6,0.2,0.9,0c0,0,0.1-0.1,0.1-0.1c0,0,0,0,0,0
		c0,0,0.1-0.1,0.1-0.1c0.8-1.3,0.2-3.2,0.2-4.6C105.3,243.1,105.3,243,105.3,242.8z"/>
	<path class="st1" d="M129.6,240c0,0.2,0,0.3,0,0.5c0,0.2,0,0.4,0,0.6c0,0,0,0,0,0c0,0.2,0,0.4,0,0.5c0,0.5,0.1,1,0.3,1.4
		c0,0,0,0.1,0,0.1c0,0,0,0.1,0,0.1c0,0.1,0.1,0.1,0.1,0.2c0.1,0.3,0.3,0.7,0.5,1c0.3,0.4,0.7,0.4,0.9,0.2c0.1-0.1,0.2-0.2,0.3-0.4
		c0.1-0.1,0.1-0.3,0.1-0.5c0-0.2,0.1-0.4,0.1-0.5c0.1-0.6,0.1-1.2,0.2-1.6c0-0.4,0.1-0.7,0.1-1.1c0-0.3,0-0.6,0-0.9
		c-0.8,0.2-1.6,0.3-2.4,0.4C129.7,240,129.6,240,129.6,240z"/>
	<path class="st3" d="M111.6,72.1c0.2,0.2,1.3,1.6,1.8,2c0.1,0.1,0.2,0.1,0.3,0.1c0,0,0,0,0.1,0c0.5-0.3,0.6-1.7,0.7-2.2
		c0.4-1.5,0.8-3,1.4-4.4c0.5-1.4,1.2-2.7,1.9-4.1c0.3-0.6,0.7-1.2,1-1.8c0.4-0.7,0.6-1.5,0.5-2.3c-0.3-2.5-3.2-3-5.2-3.1
		c-1.5-0.1-3.7,0-5.4,0.7c-0.4,0.2-0.8,0.4-1,0.7c-1.1,1.1-0.8,2.3-0.7,3.6c0.2,2.1,0.8,4.1,1.6,6c0.3,0.8,0.8,1.5,1.2,2.3
		C110.3,70.3,110.9,71.2,111.6,72.1z"/>
	<path class="st4" d="M74.8,47c-3.9,8.5-2.8,21.8,8.9,22.3c4.8,0.2,9.4-2,12.6-5.5c2.9-3.2,4.2-6.9,5.2-10.8
		c-8.5-2.1-17.2-4-25.8-5.8C75.4,47.1,75.1,47,74.8,47z M90.1,57.4c0.7-2.9,5.1-6.1,7.4-2.8c0.3,0.4,0.5,0.9,0.6,1.4
		c0.1,0.2,0.1,0.4,0.2,0.7c0.3,2-0.5,4.2-2.3,5.3C92.7,63.7,89.3,60.8,90.1,57.4z"/>
	<path class="st1" d="M125.7,240.5c-0.6,0.1-1.3,0.2-1.9,0.2c0,0.1,0,0.2,0,0.3c0,0.2,0,0.5-0.1,0.7c0,0.1,0,0.1,0,0.2
		c0,0,0,0,0,0.1c0,0.1,0,0.2,0,0.2c0,0.2,0,0.5,0,0.7v0.1c0,0,0,0.1,0,0.1c0,0.7,0,1.3,0.1,1.9c0,0.1,0,0.1,0,0.2
		c0,0.2,0,0.4,0.1,0.6c0,0.4,0.1,0.9,0.3,1.1c0.1,0.2,0.3,0.3,0.5,0.3c0,0,0,0,0,0c0,0,0,0,0,0c0.1,0,0.3,0,0.4-0.1
		c0.4-0.2,0.7-0.6,0.8-1c0.2-0.8,0.3-1.7,0.3-2.5c0-0.2,0-0.4,0-0.6c0-0.1,0-0.1,0-0.2c0-0.2,0-0.3,0.1-0.5c0-0.2,0-0.4,0-0.6
		c0-0.3,0.1-0.7,0.1-1c0-0.1,0-0.2,0-0.3C126.3,240.4,126,240.5,125.7,240.5z"/>
	<path class="st1" d="M128.9,240.1c-0.6,0.1-1.2,0.2-1.7,0.2c0,0.4,0,0.7-0.1,1.1c0,0,0,0,0,0v0c0,0.1,0,0.2,0,0.3
		c0,0.2,0,0.5,0,0.7c0,0.2,0,0.4,0,0.6c0,0.5-0.3,1.7,0.1,2.3c0.1,0.1,0.1,0.1,0.2,0.2c0.7,0.5,1.1-0.2,1.3-1
		c0.1-0.6,0.2-1.2,0.2-1.4c0,0,0,0,0,0c0-0.4,0-0.9,0-1.4c0-0.4,0-0.8,0-1.3C128.9,240.3,128.9,240.2,128.9,240.1z"/>
	<path class="st2" d="M168.4,80.3c-0.1-0.2-0.2-0.4-0.3-0.6c-0.1,0-0.1,0.1-0.2,0.1c-1.1,0.7-2.3,1.3-3.4,1.8
		c-0.6,0.3-1.1,0.5-1.7,0.7c0,0-0.1,0-0.1,0c0,0,0,0-0.1,0c-1.8,0.6-3.6,1.1-5.5,1.4c0.9,2.4,1.9,4.7,2.9,7.1
		c2.9,6.9,5.8,13.9,8.6,20.8c1.6,4.2,3.2,8.4,4.6,12.7c0,0.1,0.1,0.3,0.1,0.4c2.5,7.7,4.6,15.5,5.1,23.6c0.1,2.2,0.2,4.4,0.1,6.6
		c-0.2,5.3-0.9,10.6-2.1,15.8c-0.1,0.6-0.2,1.1-0.4,1.7c-0.1,0.5-0.2,0.9-0.4,1.4c-0.5,2.1-1.1,4.2-1.8,6.2
		c-0.8,2.3-1.6,4.7-2.5,6.9c1.5-2.1,3-4.2,4.5-6.4c4.9-7.3,9.2-15,13-22.9c0.2-0.4,0.4-0.8,0.5-1.1c1.3-2.8,2.6-5.6,3.5-8.6
		c0.4-1.1,0.7-2.2,0.9-3.4c0.6-2.8,0.6-5.5,0.3-8.2c-0.3-2.1-0.8-4.1-1.6-6.2c-1.6-4.4-3.5-8.8-5.5-13.1
		c-3.6-7.8-7.6-15.5-11.6-23.1c-2.3-4.4-4.6-8.8-6.8-13.3C168.5,80.6,168.4,80.5,168.4,80.3z"/>
	<path class="st4" d="M147.4,47.2c-8.6,1.8-17.2,3.7-25.8,5.8c1,4.1,2.3,7.9,5.4,11.1c3.2,3.3,7.7,5.4,12.3,5.2
		c11.7-0.5,12.8-13.7,8.9-22.3C148,47,147.7,47.1,147.4,47.2z M129.6,60.4c-1-0.3-1.8-1.1-2.3-2.1c-0.6-0.9-1-2-0.7-3.1
		c0.8-3.2,5.1-3.9,6.9-1.2C135.4,56.6,133.1,61.5,129.6,60.4z"/>
	<path class="st2" d="M186.9,13.3c-22.6,5.6-45.8,8.1-69,9.8c-25,1.8-50.2,4.2-75.1,1.1c0,0,0,0,0,0C34.5,24.3,26.2,23,18.3,21
		c-4.4-1.1-8.6-2.5-12.8-4.1c-0.5-0.2-1-0.4-1.5-0.6c-1.3-0.7-2.2,0.1-2.6,2.3c0.4,0.8,2.3,1.7,3,2.2c1.9,1.2,4,2.1,6.2,2.7
		c0.3,0.1,0.3,0.5,0,0.5c-0.7,0.2-1.5,0.4-2.2,0.6c4.7,4.9,12,4.1,18.3,5.1c6.3,1,11,3.9,12.8,10.3c1,3.7,1.3,7.5,1.7,11.3
		c0.5,4.3,1.3,8.6,2.5,12.7c1.9,6.9,3.1,14.1,8.8,18.9c0.3,0.3,0.7,0.6,1.1,0.8c0.1,0.1,0.2,0.2,0.4,0.3c3.3,2.3,7.3,3.6,11.4,3.9
		c0.2,0,0.3,0,0.5,0.1c0.8,0.1,1.5,0.1,2.3,0.1c6,0,11.8-1.8,17.2-4.5c1.8-0.9,3.5-1.9,5.2-3c3.3-2.2,6.5-4.6,9.8-6.8
		c0.2-0.1,0.5,0.2,0.3,0.3c-1.4,1.3-2.8,2.5-4.3,3.7c0.3-0.1,0.5-0.3,0.8-0.4c2.9-1.5,5.8-3.3,8.5-5.1c1.2-0.8,2.5-1.7,3.7-2.6
		c-0.6-0.9-1.1-1.8-1.6-2.7c-0.5-1-0.8-1.9-1.1-3c-0.4-1.6-1-4.1-0.3-5.7c0,0,0,0,0,0c0,0,0,0,0,0c0,0,0,0,0,0c0,0,0-0.1,0-0.1
		c0,0,0,0,0,0c0.2-0.5,0.6-0.8,1.1-1.1c0,0,0,0,0,0c0,0,0,0,0,0c1.4-0.9,3.6-1.3,5.1-1.4c2.1-0.2,5.4,0,6.9,1.8
		c0.3,0.3,0.5,0.7,0.6,1.1c0.4,1.6-0.9,3.4-1.5,4.8c-0.4,0.8-0.7,1.5-1,2.3c-0.4,0.9-0.7,1.8-1,2.7c2.3,3.1,5.4,5.7,8.9,7.7
		c0,0,0,0,0,0c0.5,0.3,1,0.6,1.5,0.8c-1.6-1.2-3.1-2.6-4.3-4.1c-0.1-0.1,0-0.3,0.2-0.2c2.8,2.8,6.2,5,9.9,6.7
		c5.7,2.6,12.1,3.8,18.2,3.9c1.1,0,2.2,0,3.2-0.1c0.3,0,0.6-0.1,0.8-0.1c0.4,0,0.9-0.1,1.3-0.1c0.2,0,0.3-0.1,0.5-0.1
		c5-0.7,10.7-2.6,13.8-6.8c2.8-3.9,4.2-8.7,5.7-13.2c2.9-8.8,4.7-17.9,7.3-26.8c1.1-3.7,2-8,4.4-11.1c2.1-2.9,5.5-3.6,8.7-4.4
		c7.3-1.8,15.1-4.4,19.5-10.8c-0.8,0-1.7,0.1-2.5,0.1c-0.5,0-0.5-0.6-0.1-0.8c3.8-1.6,6.9-4.2,9.1-7.7c-4.8,2.1-9.7,4-14.6,5.8
		C201,9.5,194,11.6,186.9,13.3z M106.8,54.2c-1.5-0.4-2.9-0.7-4.4-1.1c-0.9,9.7-10.2,18.6-20.2,17c-11.1-1.7-11.9-14.9-7.7-23.3
		c-4.8-1-9.7-1.9-14.6-2.8c-5.1-0.9-10.4-1.5-15.4-2.6c-0.6-0.1-0.4-1.1,0.1-1c5.2,0.3,10.5,1.4,15.7,2.3c5,0.9,9.9,1.8,14.9,2.9
		c0.1,0,0.2,0,0.3,0.1c0.1,0,0.1,0,0.2,0c10.5,2.2,20.9,5.1,31.2,8.2C107.1,53.9,107,54.3,106.8,54.2z M178.7,41.5
		c-0.5,0.1-1,0.2-1.5,0.3c-4.8,1-9.6,1.5-14.4,2.4c-4.7,0.8-9.4,1.8-14.1,2.7c4.2,8.4,3.4,21.5-7.7,23.3c-10,1.6-19.3-7.3-20.2-17
		c-1.5,0.4-2.9,0.7-4.4,1.1c-0.2,0.1-0.3-0.3-0.1-0.4c1.5-0.4,2.9-0.9,4.4-1.3c0.3-0.1,0.6-0.2,0.8-0.2c8.6-2.5,17.2-4.8,26-6.6
		c0.1,0,0.1,0,0.2,0c0.1,0,0.2,0,0.3-0.1c5.1-1.1,10.2-2.1,15.3-2.9c4.7-0.8,9.5-1.8,14.2-2.2c0.3,0,0.7-0.1,1-0.1
		C179.2,40.4,179.3,41.3,178.7,41.5z"/>
	<path class="st5" d="M125.3,75.9c-3.4-2-6.5-4.5-8.9-7.7c-0.7,2-1.3,4-1.9,6.1c-0.1,0.2-0.1,0.4-0.2,0.5c-0.1,0.2-0.3,0.3-0.5,0.1
		c-0.4-0.3-0.7-0.7-1.1-1.1c-1.3-1.3-2.4-2.7-3.5-4.2c0,0,0,0,0,0c-1.2,0.9-2.4,1.8-3.7,2.6c-2.7,1.9-5.6,3.6-8.5,5.1
		c-0.3,0.1-0.5,0.3-0.8,0.4c0,0,0,0,0,0c-0.7,0.6-1.5,1.1-2.2,1.7c-6.9,5-15,8.9-23.4,9.5c-1.7,0.1-3.4,0.1-5.2,0
		c-0.1,0.4-0.3,0.7-0.4,1.1c-0.4,1.1-0.8,2.2-1.1,3.3c-2.1,6-4.2,12-6.2,17.9c-2.2,6.6-4.6,13.2-6.5,19.8c-0.4,1.6-0.9,3.1-1.3,4.7
		c-3.4,13.7-2.9,27.3,0.9,40.7c0.3,1.2,0.7,2.5,1.1,3.7c2.8,8.5,6.7,16.5,11.1,24.2c0.2,0.4,0.4,0.8,0.7,1.1
		c0.2,0.4,0.5,0.8,0.7,1.3c0.6,1,1.2,2,1.8,2.9c2,3.3,4.1,6.6,6.2,9.9c0.4,0.6,0.8,1.3,1.2,1.9c1.5,2.4,3.1,4.8,4.7,7.1
		c0.2,0.4,0.5,0.7,0.7,1.1c1.5,2.1,3.1,4.1,5.2,5.7c0.4,0.3,0.8,0.5,1.2,0.8c0.8,0.5,1.7,0.9,2.6,1.3c0.7,0.3,1.4,0.5,2.1,0.7
		c2.2,0.7,4.6,1.2,7,1.5c0.1,0,0.2,0,0.3,0c0.5,0.1,1,0.1,1.5,0.2c0.2,0,0.3,0,0.5,0.1c0.1,0,0.3,0,0.4,0c0.1,0,0.1,0,0.2,0
		c0,0,0.1,0,0.1,0c0.7,0.1,1.4,0.1,2.1,0.2c0.1,0,0.2,0,0.2,0c0.1,0,0.2,0,0.3,0c0,0,0,0,0,0c0.9,0.1,1.7,0.1,2.6,0.2
		c0.2,0,0.4,0,0.7,0.1c0.2,0,0.5,0,0.7,0.1c0.8,0.1,1.6,0.1,2.4,0.2c0.4,0,0.8,0.1,1.2,0.1c2.8-0.1,5.7-0.4,8.5-0.6
		c1.6-0.2,3.1-0.3,4.7-0.5c0.2,0,0.3,0,0.5-0.1c0.1,0,0.1,0,0.2,0c0.8-0.1,1.7-0.2,2.5-0.3c0,0,0.1,0,0.1,0c0,0,0.1,0,0.1,0
		c0.1,0,0.1,0,0.2,0c0,0,0.1,0,0.1,0h0c0,0,0,0,0,0c0,0,0.1,0,0.1,0c0,0,0,0,0,0c0.6-0.1,1.1-0.1,1.7-0.2h0c0,0,0,0,0,0
		c0.1,0,0.2,0,0.3,0c0,0,0.1,0,0.1,0c0.1,0,0.1,0,0.2,0c0,0,0,0,0.1,0c0.8-0.1,1.7-0.3,2.5-0.4c0,0,0.1,0,0.1,0
		c0.2,0,0.5-0.1,0.7-0.1c1.2-0.3,2.3-0.6,3.4-0.9c1.1-0.4,2.1-0.8,3.1-1.3c1.9-1,3.5-2.5,4.8-4.2c1-1.2,1.9-2.5,2.8-3.8
		c1.8-2.7,3.6-5.5,5.4-8.3c2.5-3.8,4.9-7.7,7.2-11.6c2.8-4.7,5.4-9.4,7.8-14.3c0.1-0.1,0.1-0.2,0.2-0.3c0.7-1.4,1.4-2.9,2-4.4
		c3.6-8.2,6.3-16.7,7.5-25.7c1.7-13.6-1-26.5-5.2-39.3c-0.8-2.4-1.6-4.9-2.5-7.3c-2.7-7.6-5.8-15.2-8.9-22.7
		c-0.5-1.1-0.9-2.3-1.4-3.4c-0.1-0.2-0.2-0.5-0.3-0.7c-0.8-2.1-1.6-4.2-2.4-6.3c-0.2,0-0.4,0.1-0.5,0.1c-0.1,0-0.2,0-0.3,0
		c-1.6,0.2-3.2,0.2-4.8,0.2c-4.8-0.1-9.7-1-14.2-2.5c-2.8-0.9-5.6-2.1-8.1-3.7c-0.6-0.4-1.2-0.8-1.8-1.2
		C126.3,76.5,125.8,76.2,125.3,75.9C125.3,76,125.3,75.9,125.3,75.9z M136.8,86.2c0,0-0.1,0-0.1,0c0,0,0-0.1-0.1-0.1
		C136.7,86.1,136.8,86.2,136.8,86.2z M169,148c0,30.9-25.1,56-56,56c-30.9,0-56-25.1-56-56s25.1-56,56-56
		C143.9,92,169,117.2,169,148z"/>
	<path class="st2" d="M136.8,86.2c-0.1,0-0.1-0.1-0.2-0.1c0,0,0,0.1,0.1,0.1C136.8,86.2,136.8,86.2,136.8,86.2z"/>
	<path class="st6" d="M106.9,53.9c-10.3-3.1-20.7-6-31.2-8.2c-0.1,0-0.1,0-0.2,0c-0.1,0-0.2,0-0.3-0.1c-5-1-9.9-2-14.9-2.9
		c-5.2-0.9-10.4-2-15.7-2.3c-0.6,0-0.7,0.9-0.1,1c5.1,1.2,10.3,1.7,15.4,2.6c4.9,0.9,9.7,1.8,14.6,2.8c-4.2,8.4-3.4,21.5,7.7,23.3
		c10,1.6,19.3-7.3,20.2-17c1.5,0.4,2.9,0.7,4.4,1.1C107,54.3,107.1,53.9,106.9,53.9z M96.3,63.7c-3.2,3.5-7.8,5.7-12.6,5.5
		C72.1,68.7,71,55.5,74.8,47c0.3,0.1,0.6,0.1,0.9,0.2c8.6,1.8,17.2,3.7,25.8,5.8C100.5,56.9,99.3,60.6,96.3,63.7z"/>
	<path class="st6" d="M178.6,40.5c-0.3,0-0.7,0-1,0.1c-4.8,0.4-9.5,1.3-14.2,2.2c-5.1,0.9-10.2,1.9-15.3,2.9c-0.1,0-0.2,0-0.3,0.1
		c-0.1,0-0.1,0-0.2,0c-8.8,1.8-17.4,4.1-26,6.6c-0.3,0.1-0.5,0.2-0.8,0.2c-1.5,0.4-2.9,0.9-4.4,1.3c-0.2,0.1-0.1,0.4,0.1,0.4
		c1.4-0.4,2.9-0.7,4.4-1.1c0.9,9.7,10.2,18.6,20.2,17c11.1-1.7,11.9-14.9,7.7-23.3c4.7-1,9.4-1.9,14.1-2.7c4.8-0.8,9.7-1.4,14.4-2.4
		c0.5-0.1,1-0.2,1.5-0.3C179.3,41.3,179.2,40.4,178.6,40.5z M139.4,69.2c-4.6,0.2-9.2-1.9-12.3-5.2c-3.1-3.2-4.4-7-5.4-11.1
		c8.5-2.1,17.2-4,25.8-5.8c0.3-0.1,0.6-0.1,0.9-0.2C152.2,55.5,151.1,68.7,139.4,69.2z"/>
	<path class="st6" d="M112.8,73.9c0.4,0.4,0.7,0.7,1.1,1.1c0.2,0.2,0.4,0.1,0.5-0.1c0.1-0.2,0.1-0.4,0.2-0.5c0.6-2,1.2-4.1,1.9-6.1
		c0,0,0,0,0,0c0.3-0.9,0.6-1.8,1-2.7c0.3-0.8,0.7-1.6,1-2.3c0.7-1.4,1.9-3.2,1.5-4.8c-0.1-0.4-0.3-0.7-0.6-1.1
		c-1.5-1.8-4.8-2-6.9-1.8c-1.5,0.1-3.6,0.4-5.1,1.4c0,0,0,0,0,0c0,0,0,0,0,0c-0.5,0.3-0.8,0.7-1.1,1.1c0,0,0,0,0,0c0,0,0,0.1,0,0.1
		c0,0,0,0,0,0c0,0,0,0,0,0c0,0,0,0,0,0c-0.7,1.6-0.1,4.1,0.3,5.7c0.3,1,0.7,2,1.1,3c0.5,1,1,1.9,1.6,2.7
		C110.3,71.3,111.5,72.6,112.8,73.9z M107,61.1c-0.1-1.3-0.4-2.5,0.7-3.6c0.3-0.3,0.6-0.5,1-0.7c1.7-0.7,3.9-0.8,5.4-0.7
		c2.1,0.1,4.9,0.6,5.2,3.1c0.1,0.8-0.2,1.6-0.5,2.3c-0.3,0.6-0.7,1.2-1,1.8c-0.7,1.3-1.4,2.7-1.9,4.1c-0.6,1.4-1,2.9-1.4,4.4
		c-0.1,0.5-0.2,2-0.7,2.2c0,0,0,0-0.1,0c-0.1,0-0.1,0-0.3-0.1c-0.5-0.4-1.6-1.7-1.8-2c-0.7-0.8-1.3-1.7-1.9-2.6
		c-0.4-0.7-0.8-1.5-1.2-2.3C107.7,65.2,107.1,63.2,107,61.1z"/>
	<path class="st6" d="M223.3,0c-5.1,2.2-10.3,4.2-15.5,6c-16.8,5.8-34.3,9.6-52,12.1c-23.5,3.4-47.4,5.1-71.1,5.7
		c-13.3,0.4-26.7,0.7-40-0.5c0,0-0.1-0.1-0.2-0.1c-12.3-0.9-24.2-2.7-36-6.4c-1.2-0.4-9.6-3.8-8.5,0.8c0.3,1.3,2.4,2.4,3.4,3.1
		c1.8,1.2,3.8,2.1,5.8,2.8c-0.6,0.1-1.2,0.2-1.8,0.2c-0.3,0-0.7,0.4-0.4,0.7c3.4,4.5,9.3,5.3,14.6,5.6c3.4,0.2,6.9,0.3,10.1,1.6
		c4.2,1.6,6.4,5.2,7.4,9.5c1,4.1,1.1,8.4,1.6,12.6c0.4,3.8,1.3,7.6,2.3,11.3c2.1,7.4,3.2,14.7,10,19.5c-0.8,1.2-1.5,2.4-2.3,3.5
		c-0.1,0.2-0.2,0.4-0.4,0.6c-4.4,6.7-8.7,13.5-12.9,20.3c-2.5,3.9-4.9,8-6.1,12.5c-1.3,4.7-0.5,9.2,0.3,13.9
		c1.9,10,3.5,20.1,6.8,29.8c3.2,9.2,7.9,17.7,13.4,25.7c3.1,4.6,6.4,9,9.7,13.3c0.3,0.4,0.7,1.1,1.2,1.8c2.2,4,4.6,8,7,11.9
		c2.1,3.4,4.2,6.7,6.4,10c1.7,2.6,3.4,5.3,5.9,7.3c4.2,3.4,9.5,4.5,14.8,5.2c-0.1,0.3-0.1,0.6-0.2,0.9c-0.1,0.4-0.2,0.9-0.3,1.3
		c-0.2,1.1-0.3,2.3-0.2,3.4c0.1,0.8,0.5,3.6,1.8,3.6c1-0.1,1.1-2.1,1.2-3c0,0.3,0,0.6,0,0.9c0,0.8,0.1,2.1,1.2,2.1
		c1,0,1.2-1.1,1.3-1.8c0.1-0.8,0.2-1.5,0.3-2.3c0.2,2.2,0.8,4.1,2.3,3.9c1.1-0.1,1.1-1.6,1.1-2.4c0.1-1.5,0.2-3,0.3-4.5v-0.8
		c1.6,0.2,3.2,0.3,4.8,0.5c2.1-0.2,4.2-0.4,6.3-0.6c2-0.2,4-0.5,6-0.7c0.1,0,0.2,0,0.3,0c0,0.3-0.1,0.6-0.1,0.9c0,0.2,0,0.4,0,0.6
		c0,0.2,0,0.4,0,0.6c0,1,0.1,2,0.2,3c0.1,0.8,0.2,2.3,1.3,2.5c1.4,0.2,1.7-1.8,1.8-2.7c0-0.2,0.1-0.4,0.1-0.6c0,0.2,0,0.3,0.1,0.5
		c0.1,0.8,0.5,1.7,1.4,1.4c1.1-0.2,1.1-1.8,1.1-2.7c0-0.4,0-0.8,0.1-1.2c0.2,1.7,0.7,3.1,2,2.7c0.8-0.3,1.1-1.8,1.3-3
		c0.1-0.5,0.1-1,0.1-1.3c0,0,0-0.1,0-0.1c0.1-0.7,0.2-1.4,0.2-2.2c3.5-0.8,6.9-2,9.8-4.3c2.7-2.1,4.6-5,6.4-7.8
		c2.2-3.4,4.5-6.9,6.7-10.4c5.1-8.2,9.8-16.6,13.7-25.5c7.6-9.9,14-20.6,19.5-31.7c3.8-7.7,7.9-16.2,6.1-25c-0.9-4.5-3-8.7-4.9-12.9
		c-2-4.6-4.2-9.1-6.4-13.6c-4.7-9.5-9.6-18.9-14.8-28c-0.3-0.6,1.9-3.4,2.2-3.9c1.2-2,2.3-3.9,3.2-6c2.6-6.2,4.3-12.7,5.8-19.2
		c1.7-7.2,3.2-14.6,5.8-21.6c1.5-4.1,3.8-6.6,8.1-7.7c2.9-0.7,5.8-1.3,8.6-2.3c5.7-1.9,11-5,14.3-10.1c0.2-0.2,0-0.6-0.3-0.6
		c-0.5,0-1,0-1.4,0.1c3.6-1.9,6.5-4.7,8.6-8.3C224.1,0.2,223.7-0.1,223.3,0z M58.5,198.6c-0.5-0.7-1-1.4-1.5-2
		c-2.1-2.9-4.2-5.7-6.1-8.7c-5-7.6-9.3-15.6-12.1-24.3c-2.8-8.6-4.5-17.6-5.8-26.6c-0.8-5-1.7-10-0.4-15c1.2-4.4,3.6-8.4,5.9-12.3
		c4.1-6.8,8.3-13.5,12.3-20.3c0.1,0,0.2-0.1,0.1-0.2c0.4-0.7,0.8-1.4,1.2-2c0.4-0.7,0.8-1.4,1.3-2.1c0,0,0,0,0,0
		c3.4,2.3,7.4,3.7,11.5,4.1c0,0,0,0,0,0c-0.2,0.6-0.5,1.3-0.7,1.9c-0.3,0.8-0.6,1.7-0.9,2.5c-2,5.3-3.9,10.7-5.8,16
		c-0.2,0.6-0.4,1.2-0.6,1.8c-1.6,4.4-3.2,8.8-4.6,13.3c-0.9,2.7-1.7,5.4-2.5,8.2c-1.7,6.2-2.6,12.3-2.8,18.5
		c-0.2,8.7,1,17.4,3.5,26.1c0.5,1.8,1.1,3.5,1.7,5.3c2.1,6,4.6,11.8,7.5,17.5c0,0,0,0,0,0C59.3,199.6,58.9,199.1,58.5,198.6z
		 M99.4,241.1c0,0.1,0,0.2,0,0.3c0,0.4,0,0.9,0,1.3c0,0.1,0,0.2,0,0.2c0,0.1,0,0.3,0,0.4c-0.1,0.9-0.1,2.8-0.5,4.1
		c-0.1,0.3-0.2,0.6-0.4,0.9c-0.2,0.4-0.5,0.4-0.7,0.2c-0.3-0.2-0.6-0.9-0.8-1.5c0-0.1-0.1-0.2-0.1-0.3c0-0.1-0.1-0.3-0.1-0.4
		c-0.1-0.8-0.1-1.7-0.1-2.4c0-0.1,0-0.2,0-0.3c0-0.3,0.1-0.6,0.1-0.9c0-0.3,0.1-0.7,0.2-1c0-0.1,0-0.2,0-0.3c0,0,0-0.1,0-0.1
		c0.1-0.2,0.1-0.5,0.2-0.7c0,0,0,0,0,0c0.2,0,0.5,0.1,0.7,0.1c0.5,0.1,0.9,0.1,1.4,0.2c0,0,0,0,0,0C99.5,240.9,99.4,241,99.4,241.1z
		 M102.1,241.4c0,0.4-0.1,0.8-0.1,1.2c0,0.2,0,0.4-0.1,0.6c0,0.3-0.1,0.5-0.1,0.8c0,0.4-0.1,0.8-0.1,1.2c0,0.3-0.1,0.7-0.1,1
		c0,0.2,0,0.5,0,0.8c0,0.5-0.1,0.9-0.3,1.3c0,0,0,0,0,0c-0.5,0.7-0.9,0.5-1.1,0.1c-0.2-0.3-0.3-0.7-0.4-1.1c0-0.1,0-0.3,0-0.3
		c0-1.1,0.2-2.1,0.3-3.2c0-0.3,0-0.5,0-0.8c0-0.1,0-0.3,0-0.4c0-0.4,0-0.8,0-1.3c0-0.1,0-0.3,0-0.4c0,0,0,0,0-0.1
		c0.7,0.1,1.3,0.2,2,0.3C102.1,241.3,102.1,241.3,102.1,241.4z M105.1,247.9c0,0.1-0.1,0.1-0.1,0.1c0,0,0,0,0,0.1
		c0,0-0.1,0.1-0.1,0.1c-0.3,0.3-0.6,0.2-0.9,0c0,0-0.1-0.1-0.1-0.1c0,0,0,0-0.1-0.1c0,0-0.1-0.1-0.1-0.1c0,0,0,0-0.1-0.1
		c0,0,0-0.1-0.1-0.1c0,0-0.1-0.1-0.1-0.1c0,0,0,0,0,0c-0.3-0.4-0.5-1-0.6-1.3c0-0.1,0-0.3-0.1-0.4c-0.1-0.5-0.1-1.1-0.2-1.6
		c0-0.6,0-1.2,0-1.7c0-0.4,0-0.8,0-1.2c0,0,0,0,0,0c0,0,0-0.1,0-0.1c0,0,0,0,0,0c0.3,0.1,0.7,0.1,1,0.1c0.5,0.1,1.1,0.1,1.6,0.2
		c0,0,0,0,0,0c0,0.2,0,0.4,0,0.6c0,0.1,0,0.2,0,0.3c0,0.1,0,0.2,0,0.3c0,0.2,0,0.3,0,0.5C105.3,244.7,106,246.6,105.1,247.9z
		 M126.5,240.7c0,0.3,0,0.7-0.1,1c0,0.2,0,0.4,0,0.6c0,0.2,0,0.3-0.1,0.5c0,0.1,0,0.1,0,0.2c0,0.2,0,0.4-0.1,0.6
		c-0.1,0.8-0.1,1.8-0.3,2.5c-0.1,0.4-0.4,0.8-0.8,1c-0.2,0.1-0.3,0.1-0.4,0.1c0,0,0,0,0,0c0,0,0,0,0,0c-0.2,0-0.4-0.1-0.5-0.3
		c-0.2-0.3-0.2-0.7-0.3-1.1c0-0.2,0-0.5-0.1-0.6c0-0.1,0-0.1,0-0.2c-0.1-0.6-0.1-1.3-0.1-1.9c0,0,0-0.1,0-0.1v-0.1
		c0-0.2,0-0.5,0-0.7c0-0.1,0-0.2,0-0.2c0,0,0,0,0-0.1c0-0.1,0-0.1,0-0.2c0-0.2,0-0.5,0.1-0.7c0-0.1,0-0.2,0-0.3c0,0,0,0,0,0
		c0.6-0.1,1.3-0.2,1.9-0.2c0.3,0,0.5-0.1,0.8-0.1c0,0,0,0,0,0C126.6,240.5,126.5,240.6,126.5,240.7z M128.9,243
		C128.9,243,128.9,243,128.9,243C128.9,243,128.9,243,128.9,243c0,0.3-0.1,0.9-0.2,1.4c-0.2,0.8-0.6,1.5-1.3,1
		c-0.1-0.1-0.1-0.1-0.2-0.2c-0.4-0.6-0.1-1.8-0.1-2.3c0-0.2,0-0.4,0-0.6c0-0.2,0-0.5,0-0.7v-0.3v0v0c0,0,0,0,0,0
		c0-0.4,0-0.7,0.1-1.1c0.6-0.1,1.1-0.2,1.7-0.2c0,0,0,0,0,0c0,0.1,0,0.2,0,0.3c0,0.4,0,0.8,0,1.3C128.9,242.1,128.9,242.6,128.9,243
		z M132.2,239.5c0,0.3,0,0.6,0,0.9c0,0.4,0,0.7-0.1,1.1c0,0.5-0.1,1.1-0.2,1.6c0,0.2-0.1,0.4-0.1,0.5c0,0.2-0.1,0.3-0.1,0.5
		c-0.1,0.2-0.2,0.3-0.3,0.4c-0.3,0.2-0.7,0.2-0.9-0.2c-0.2-0.3-0.4-0.6-0.5-1c0-0.1-0.1-0.1-0.1-0.2c0,0,0-0.1,0-0.1
		c0,0,0-0.1,0-0.1c-0.1-0.4-0.2-0.9-0.3-1.4c0-0.2,0-0.4,0-0.5c0,0,0,0,0,0c0-0.2,0-0.4,0-0.6c0-0.2,0-0.3,0-0.5c0.1,0,0.1,0,0.2,0
		C130.5,239.8,131.4,239.7,132.2,239.5C132.2,239.5,132.2,239.5,132.2,239.5z M175.4,94.1c4,7.7,8,15.3,11.6,23.1
		c2,4.3,3.8,8.6,5.5,13.1c0.8,2,1.3,4.1,1.6,6.2c0.4,2.7,0.3,5.4-0.3,8.2c-0.2,1.1-0.5,2.3-0.9,3.4c-0.9,2.9-2.2,5.8-3.5,8.6
		c-0.2,0.4-0.4,0.8-0.5,1.1c-3.8,7.9-8.2,15.6-13,22.9c-1.4,2.2-2.9,4.3-4.5,6.4c0,0,0,0,0,0c0.9-2.3,1.7-4.6,2.5-7
		c0.7-2.1,1.3-4.1,1.8-6.2c0.1-0.5,0.3-0.9,0.4-1.4c0.1-0.5,0.2-1.1,0.4-1.7c1.2-5.2,1.9-10.5,2.1-15.8c0.1-2.2,0-4.4-0.1-6.6
		c-0.5-8.1-2.6-15.9-5.1-23.6c0-0.1-0.1-0.3-0.1-0.4c-1.4-4.3-3-8.5-4.6-12.7c-2.7-7-5.7-13.9-8.6-20.8c-1-2.4-1.9-4.7-2.9-7.1
		c1.8-0.3,3.7-0.8,5.5-1.4c0,0,0,0,0.1,0c0,0,0.1,0,0.1,0c0.6-0.2,1.2-0.5,1.7-0.7c1.2-0.5,2.3-1.1,3.4-1.8c0.1,0,0.1-0.1,0.2-0.1
		c0,0,0,0,0,0c0.1,0.2,0.2,0.4,0.3,0.6c0.1,0.2,0.2,0.4,0.3,0.6C170.8,85.3,173.1,89.7,175.4,94.1z M213.4,8.9
		c-0.4,0.1-0.4,0.8,0.1,0.8c0.8,0,1.7-0.1,2.5-0.1c-4.4,6.4-12.2,9.1-19.5,10.8c-3.3,0.8-6.6,1.5-8.7,4.4c-2.4,3.1-3.3,7.5-4.4,11.1
		c-2.6,8.9-4.4,18-7.3,26.8c-1.5,4.5-2.8,9.3-5.7,13.2c-3.1,4.2-8.8,6.1-13.8,6.8c-0.2,0-0.3,0.1-0.5,0.1c-0.4,0.1-0.9,0.1-1.3,0.1
		c-0.3,0-0.6,0.1-0.8,0.1c-1.1,0.1-2.2,0.1-3.2,0.1c-6.1-0.1-12.5-1.3-18.2-3.9c-3.7-1.7-7.1-3.9-9.9-6.7c-0.1-0.1-0.3,0.1-0.2,0.2
		c1.2,1.6,2.7,2.9,4.3,4.1c0,0,0,0,0,0c0.6,0.4,1.2,0.8,1.8,1.2c2.5,1.6,5.3,2.8,8.1,3.7c4.5,1.5,9.4,2.4,14.2,2.5
		c1.6,0,3.2,0,4.8-0.2c0.1,0,0.2,0,0.3,0c0.2,0,0.4-0.1,0.5-0.1c0.8,2.1,1.6,4.2,2.4,6.3c0.1,0.2,0.2,0.5,0.3,0.7
		c0.5,1.1,0.9,2.3,1.4,3.4c3,7.5,6.1,15.1,8.9,22.7c0.9,2.4,1.7,4.8,2.5,7.3c4.1,12.7,6.9,25.7,5.2,39.3c-1.2,9-3.9,17.5-7.5,25.7
		c-0.6,1.5-1.3,2.9-2,4.4c-0.1,0.1-0.1,0.2-0.2,0.3c-2.4,4.9-5,9.7-7.8,14.3c-2.3,3.9-4.7,7.8-7.2,11.6c-1.8,2.8-3.6,5.5-5.4,8.3
		c-0.9,1.3-1.8,2.6-2.8,3.8c-1.4,1.7-2.9,3.1-4.8,4.2c-1,0.5-2,1-3.1,1.3c-1.1,0.4-2.3,0.7-3.4,1c-0.2,0-0.5,0.1-0.7,0.1
		c0,0-0.1,0-0.1,0c-0.8,0.2-1.7,0.3-2.5,0.4c0,0,0,0-0.1,0c-0.1,0-0.1,0-0.2,0c0,0-0.1,0-0.1,0c-0.1,0-0.2,0-0.3,0h0h0
		c-0.6,0.1-1.1,0.2-1.7,0.2c0,0,0,0,0,0c0,0-0.1,0-0.1,0h0h0c0,0-0.1,0-0.1,0c-0.1,0-0.1,0-0.1,0c0,0-0.1,0-0.1,0c0,0-0.1,0-0.1,0
		c-0.8,0.1-1.7,0.2-2.5,0.3c-0.1,0-0.1,0-0.2,0c-0.2,0-0.3,0-0.5,0.1c-1.6,0.2-3.1,0.4-4.7,0.5c-2.8,0.3-5.7,0.5-8.5,0.6
		c-0.4,0-0.8-0.1-1.2-0.1c-0.8-0.1-1.6-0.1-2.4-0.2c-0.2,0-0.5,0-0.7-0.1c-0.2,0-0.4,0-0.7-0.1c-0.8-0.1-1.7-0.1-2.5-0.2h0
		c-0.1,0-0.2,0-0.3,0c-0.1,0-0.2,0-0.2,0c-0.7-0.1-1.4-0.1-2-0.2c0,0-0.1,0-0.1,0c-0.1,0-0.1,0-0.2,0c-0.1,0-0.2,0-0.4,0
		c-0.2,0-0.3,0-0.5-0.1c-0.5-0.1-1-0.1-1.5-0.2c-0.1,0-0.2,0-0.3,0c-2.4-0.3-4.8-0.8-7-1.5c-0.7-0.2-1.4-0.5-2.1-0.7
		c-0.9-0.4-1.7-0.8-2.6-1.3c-0.4-0.2-0.8-0.5-1.2-0.8c-2.1-1.5-3.7-3.5-5.2-5.7c-0.2-0.4-0.5-0.7-0.7-1.1c-1.6-2.4-3.1-4.7-4.7-7.1
		c-0.4-0.6-0.8-1.3-1.2-1.9c-2.1-3.2-4.2-6.5-6.2-9.9c-0.6-1-1.2-2-1.8-2.9c-0.2-0.4-0.5-0.8-0.7-1.3c-0.2-0.4-0.4-0.8-0.7-1.1
		C58.7,197,54.8,189,52,180.5c-0.4-1.2-0.8-2.5-1.1-3.7c-3.8-13.4-4.2-27.1-0.9-40.7c0.4-1.6,0.8-3.2,1.3-4.7
		c1.9-6.7,4.3-13.3,6.5-19.8c2-6,4.1-12,6.2-18c0.4-1.1,0.8-2.2,1.1-3.3c0.1-0.4,0.3-0.7,0.4-1.1c1.7,0.2,3.5,0.1,5.2,0
		c8.4-0.6,16.5-4.5,23.4-9.5c0.8-0.6,1.5-1.1,2.2-1.7c0,0,0,0,0,0c1.5-1.2,3-2.4,4.3-3.7c0.2-0.2-0.1-0.5-0.3-0.3
		c-3.3,2.2-6.5,4.6-9.8,6.8c-1.7,1.1-3.4,2.1-5.2,3c-5.3,2.7-11.1,4.5-17.2,4.5c-0.8,0-1.5,0-2.3-0.1c-0.2,0-0.3,0-0.5-0.1
		c-4-0.4-8-1.6-11.4-3.9c-0.1-0.1-0.2-0.2-0.4-0.3c-0.4-0.3-0.7-0.5-1.1-0.8c-5.7-4.8-6.9-12-8.8-18.9c-1.2-4.2-2-8.4-2.5-12.7
		c-0.4-3.8-0.7-7.6-1.7-11.3c-1.8-6.4-6.5-9.3-12.8-10.3c-6.2-1-13.6-0.2-18.3-5.1c0.7-0.2,1.5-0.4,2.2-0.6c0.3-0.1,0.3-0.5,0-0.5
		c-2.2-0.6-4.3-1.5-6.2-2.7c-0.8-0.5-2.7-1.4-3-2.2c0.4-2.2,1.3-3,2.6-2.3c0.5,0.2,1,0.4,1.5,0.6c4.1,1.7,8.4,3.1,12.8,4.1
		c7.9,1.9,16.2,3.2,24.4,3.1c0,0,0,0,0,0c24.9,3.1,50.2,0.7,75.1-1.1c23.2-1.7,46.4-4.2,69-9.8c7.1-1.8,14.1-3.8,21-6.3
		c4.9-1.7,9.8-3.6,14.6-5.8C220.3,4.7,217.2,7.3,213.4,8.9z"/>
	<path class="st6" d="M126.6,55.2c-0.3,1.1,0.1,2.2,0.7,3.1c0.5,1,1.3,1.9,2.3,2.1c3.5,1,5.8-3.8,3.9-6.4
		C131.6,51.3,127.4,52,126.6,55.2z"/>
	<path class="st6" d="M95.9,61.9c1.8-1,2.7-3.3,2.3-5.3c0-0.2-0.1-0.4-0.2-0.7c-0.1-0.5-0.3-1-0.6-1.4c-2.3-3.2-6.7-0.1-7.4,2.8
		C89.3,60.8,92.7,63.7,95.9,61.9z"/>
	<path class="st6" d="M57,148c0,30.9,25.1,56,56,56c30.9,0,56-25.1,56-56s-25.1-56-56-56C82.2,92,57,117.2,57,148z M168,148
		c0,30.3-24.7,55-55,55s-55-24.7-55-55s24.7-55,55-55S168,117.7,168,148z"/>
</g>
</svg>
