<?xml version="1.0" encoding="utf-8"?>
<!-- Generator: Adobe Illustrator 23.0.4, SVG Export Plug-In . SVG Version: 6.00 Build 0)  -->
<svg version="1.1" id="Animal9" xmlns="http://www.w3.org/2000/svg" xmlns:xlink="http://www.w3.org/1999/xlink" x="0px" y="0px"
	 viewBox="0 0 129.3 148.5" style="enable-background:new 0 0 129.3 148.5;" xml:space="preserve">
<style type="text/css">
	#Animal9 .st0{fill:#DA802E;}
	#Animal9 .st1{fill:#FFFFFF;}
	#Animal9 .st2{fill:#282828;}
	#Animal9 .st3{fill:#34322F;}
	#Animal9 .st4{fill:#CE4139;}
</style>
<g>
	<path class="st0" d="M91.8,140.8c-1.1,0.1-2.3,0.3-3.4,0.4c-0.3,0-0.6,0.1-0.9,0.1c-0.6,0.1-1.3,0.1-2,0.2
		c-3.2,0.3-6.4,0.6-9.6,0.8c0.2,0.4,0.4,0.7,0.6,1.1c0.2,0.3,0.4,0.6,0.6,0.9c0.5,0.6,1,1.2,1.6,1.8c0.1,0.1,0.2,0.2,0.4,0.4
		c0.5,0.4,1,0.9,1.6,1.1c0,0,0.1,0,0.1,0c0.6,0.1,1-0.2,1.4-0.7c0,0,0,0,0,0c0.1-0.2,0.7-1,0.4-1.2c0.2,0.2,0.5,0.4,0.7,0.6
		c0,0,0.1,0.1,0.1,0.1c0.2,0.2,0.5,0.4,0.8,0.6c0.8,0.6,1.9,1.1,2.9,0.6c0.2-0.1,1.3-1.1,0.9-1.3c0.2,0.1,0.4,0.2,0.6,0.3
		c1.1,0.6,2.3,0.8,3.6,0.4c2-0.6,1.7-2.6,0.9-4.4c-0.3-0.6-0.6-1.2-0.9-1.7C92,140.8,91.9,140.8,91.8,140.8z"/>
	<path class="st0" d="M46,141.6c-1.4,0-2.8,0.1-4.3,0.1c-0.3,0-0.5,0-0.8,0c-1.8,0-3.7-0.1-5.5-0.3c-0.4,0.6-0.7,1.3-0.9,1.9
		c-0.5,1.6-0.5,3.1,1.2,3.6c1.2,0.4,2.5,0.1,3.6-0.4c0.2-0.1,0.4-0.2,0.6-0.3c0,0.3,0.1,0.6,0.3,0.9c0.3,0.4,0.7,0.6,1.2,0.7
		c0.8,0.1,1.5-0.4,2.2-0.8c0.3-0.2,0.5-0.4,0.8-0.6c0.3-0.2,0.6-0.5,0.9-0.7c-0.1,1.3,0.5,2.2,1.9,1.8c1.5-0.5,2.7-1.9,3.6-3.1
		c0.2-0.3,0.3-0.5,0.5-0.8c0.3-0.6,0.7-1.1,1-1.7C50.2,141.6,48.1,141.6,46,141.6z"/>
	<path class="st1" d="M88.6,140.5c10.1-8.3,17.8-20,19.3-33.2c0.9-7.7-0.7-15.1-3.8-22.1c-2.8-6.4-5.9-12.7-11.5-17.2
		c-0.2-0.2-0.1-0.6,0.1-0.7c6-3.5,8.1-10.6,8.7-17.1c0.6-7-0.4-14.6-5.5-19.7c-4.7-4.7-11.7-6.8-18.2-5.4c-0.7,0.2-1.4,0.3-2.1,0.6
		c-4.9,1.6-8.9,4.9-12,9.1c-0.2,0.2-0.4,0.5-0.5,0.7c-0.2-0.3-0.4-0.5-0.6-0.8c-3.7-4.8-8.7-8.6-14.8-9.7
		c-6.5-1.2-13.2,1.1-17.8,5.8c-5.5,5.6-6.1,14-5,21.4c1,6.1,3.4,12.5,9.1,15.5c0.2,0.1,0.3,0.5,0.1,0.7c-5.6,4.8-8.7,11.7-11.3,18.5
		c-2.8,7.2-3.8,14.7-2.5,22.4c2.2,12.6,10,23.5,20,31.3c2.9,0.1,5.8,0,8.8,0.1c1.3,0,2.6,0.1,3.9,0.1c0.3,0,0.6,0,0.9,0
		c6.4,0.3,12.7,1,19.1,0.8c0.5,0,1.1,0,1.6-0.1c0.4,0,0.7,0,1.1,0c3.7-0.2,7.4-0.4,11.1-0.7C87.2,140.6,87.9,140.6,88.6,140.5z
		 M84.1,46.2c2.3-1,1.7-3.3,3-4.9c0.1-0.1,0.3-0.1,0.4,0c1.5,2.8-1.5,6.4-4.3,6.4c-2.9,0-5.1-3-4.1-5.8c0.1-0.2,0.3-0.1,0.3,0.1
		C78.9,44.9,81.2,47.5,84.1,46.2z M86.3,51.2c3.6,0,6.6,1.4,6.6,3.1s-2.9,3.1-6.6,3.1s-6.6-1.4-6.6-3.1S82.7,51.2,86.3,51.2z
		 M55.6,47.2c2.5-0.8,5.9-0.7,8.6-0.8c1-0.1,2.1-0.1,3.3-0.2c0.6,0,1.1,0,1.7,0c1.3,0,2.6,0.1,3.7,0.4c1.1,0.3,1.8,1,1.6,2.2
		c-0.3,1.9-2.6,3.2-4.1,4c-2,1.2-3.9,2.5-5.9,3.6c-0.2,0.1-0.4,0.2-0.6,0.3c-0.2-0.1-0.5-0.1-0.8-0.2c0,0-0.1,0-0.1,0
		c-0.5-0.2-1.1-0.3-1.7-0.6c-3.4-1.2-7.4-3.1-7.6-6.1C53.6,48.6,54.3,47.6,55.6,47.2z M38.4,43.8c0.1-0.4,0.8-0.3,0.7,0.1
		c-0.1,2.9,1.7,5.3,4.9,4.9c3.1-0.4,4.3-2.9,4.2-5.7c0-0.1,0.2-0.1,0.2,0c1,3.1-1.3,6.8-4.6,7.1C40.4,50.5,37.2,47.3,38.4,43.8z
		 M40.6,53.7c3.6-0.2,6.6,0.9,6.8,2.6s-2.7,3.3-6.3,3.5c-3.6,0.2-6.6-0.9-6.8-2.6C34.2,55.5,37,54,40.6,53.7z M64.7,136.4
		c-18.7,0-34-15.2-34-34c0-18.7,15.2-34,34-34s34,15.2,34,34C98.6,121.1,83.4,136.4,64.7,136.4z"/>
	<path class="st0" d="M61.2,56c0.6,0.2,1.2,0.4,1.7,0.6c0,0,0.1,0,0.1,0c0.3,0.1,0.5,0.2,0.8,0.2c0.2-0.1,0.4-0.2,0.6-0.3
		c2-1.1,3.9-2.4,5.9-3.6c1.5-0.9,3.8-2.1,4.1-4c0.2-1.2-0.5-1.9-1.6-2.2c-1.1-0.3-2.4-0.4-3.7-0.4c-0.6,0-1.1,0-1.7,0
		c-1.2,0.1-2.3,0.1-3.3,0.2c-2.7,0.1-6,0-8.6,0.8c-1.2,0.4-2,1.4-1.9,2.7C53.8,52.9,57.8,54.8,61.2,56z"/>
	<path class="st2" d="M43.8,50.2c3.3-0.3,5.5-4,4.6-7.1c0-0.1-0.2-0.1-0.2,0c0.1,2.9-1.1,5.3-4.2,5.7c-3.1,0.4-4.9-2-4.9-4.9
		c0-0.4-0.6-0.5-0.7-0.1C37.2,47.3,40.4,50.5,43.8,50.2z"/>
	<path class="st2" d="M79.1,42c-1,2.7,1.2,5.8,4.1,5.8c2.9,0,5.8-3.6,4.3-6.4c-0.1-0.1-0.3-0.2-0.4,0c-1.3,1.6-0.7,3.9-3,4.9
		c-2.9,1.3-5.2-1.3-4.8-4.2C79.3,41.9,79.1,41.8,79.1,42z"/>
	<path class="st3" d="M124.7,86.9c-1.7-6.1-3.5-12.3-6.3-18.1c-1.1-9-3-18-6.3-26.5c-2.7-7.3-6.4-14.2-10.7-20.6
		C97.5,16,93,10.5,87.2,6.7c-4.4-2.9-9.3-4.8-14.4-5.8c-7.6-1.5-15.7-1-23,1.6c-12,4.2-22,13.5-27.8,24.7c-6,11.7-7.9,25.3-9.3,38.4
		c-3.8,6.6-6,14.1-8,21.4c-3.1,11.1-5.8,23-4.1,34.5c0,0.2,0.3,0.2,0.4,0.1c3.8-3.6,6.9-7.9,8.8-12.6c0.2,5,0.8,10.1,1.8,15
		c1.2,5.7,3.7,11.1,9,13.9c2.7,1.4,5.7,2.2,8.8,2.8c1.8,0.4,3.5,0.7,5.3,0.9c-0.4,0.6-0.7,1.2-0.9,1.9c-0.6,1.7-0.6,3.4,0.9,4.3
		c1.4,0.8,3.4,0.7,5-0.1c0.4,0.6,1,1,1.8,1.1c1.2,0.1,2.3-0.4,3.3-1.1c0.6,0.8,2.1,1.3,3.2,0.8c1.9-0.8,3.8-2.8,4.9-4.9
		c0.2-0.5,0.5-1,0.6-1.5c5.3,0.3,10.6,0.8,16,0.8c1.8,0,3.5-0.1,5.3-0.2c0.1,0.3,0.3,0.7,0.5,1c1,2,2.7,3.8,4.5,4.7
		c0.1,0,0.2,0.1,0.3,0.2c1.1,0.5,2.6,0,3.2-0.8c1,0.8,2.1,1.3,3.3,1.1c0.7-0.1,1.4-0.5,1.8-1.1c1.6,0.8,3.5,0.9,5,0.1
		c1.8-1,1.5-3.2,0.6-5.1c-0.3-0.6-0.6-1.2-1-1.7c0.5-0.1,0.9-0.1,1.4-0.2c6.5-0.9,13.4-2.4,18.5-6.7c5.7-4.8,5.2-12.6,5.8-19.4
		c0.2-2.4,0.4-4.8,0.5-7.2c1.9,5.4,5.2,10.3,9.4,14.3c0.1,0.1,0.4,0.1,0.4-0.1C130.5,109.9,127.9,98,124.7,86.9z M51.3,143.4
		c-0.2,0.3-0.3,0.5-0.5,0.8c-0.9,1.2-2.1,2.6-3.6,3.1c-1.4,0.4-2-0.5-1.9-1.8c-0.3,0.2-0.6,0.5-0.9,0.7c-0.2,0.2-0.5,0.4-0.8,0.6
		c-0.6,0.5-1.4,0.9-2.2,0.8c-0.5,0-0.9-0.3-1.2-0.7c-0.2-0.3-0.3-0.6-0.3-0.9c-0.2,0.1-0.4,0.2-0.6,0.3c-1.1,0.6-2.3,0.9-3.6,0.4
		c-1.7-0.6-1.7-2.1-1.2-3.6c0.2-0.6,0.5-1.3,0.9-1.9c1.8,0.2,3.7,0.2,5.5,0.3c0.3,0,0.5,0,0.8,0c1.4,0,2.8,0,4.3-0.1
		c2.1-0.1,4.2,0,6.3,0.1C52,142.3,51.7,142.9,51.3,143.4z M74.4,141.5c-0.5,0-1.1,0-1.6,0.1c-6.4,0.2-12.7-0.5-19.1-0.8
		c-0.3,0-0.6,0-0.9,0c-1.3-0.1-2.6-0.1-3.9-0.1c-3,0-5.9,0-8.8-0.1c-10-7.8-17.8-18.7-20-31.3c-1.3-7.7-0.3-15.1,2.5-22.4
		c2.6-6.8,5.7-13.7,11.3-18.5c0.2-0.2,0.1-0.6-0.1-0.7c-5.7-3.1-8.1-9.4-9.1-15.5c-1.2-7.4-0.6-15.8,5-21.4
		c4.6-4.6,11.3-6.9,17.8-5.8c6.1,1.1,11.1,4.9,14.8,9.7c0.2,0.3,0.4,0.5,0.6,0.8c0.2-0.2,0.3-0.5,0.5-0.7c3.1-4.1,7.1-7.4,12-9.1
		c0.7-0.2,1.4-0.4,2.1-0.6c6.5-1.4,13.5,0.7,18.2,5.4c5.2,5.1,6.2,12.7,5.5,19.7c-0.6,6.5-2.7,13.6-8.7,17.1
		c-0.2,0.1-0.3,0.5-0.1,0.7c5.6,4.4,8.7,10.8,11.5,17.2c3.1,7.1,4.7,14.4,3.8,22.1c-1.5,13.2-9.2,24.8-19.3,33.2
		c-0.7,0.1-1.3,0.1-2,0.2c-3.7,0.3-7.4,0.6-11.1,0.7C75.1,141.4,74.8,141.5,74.4,141.5z M93,142.5c0.8,1.8,1.1,3.8-0.9,4.4
		c-1.3,0.4-2.5,0.1-3.6-0.4c-0.2-0.1-0.4-0.2-0.6-0.3c0.4,0.2-0.7,1.2-0.9,1.3c-1,0.5-2,0-2.9-0.6c-0.3-0.2-0.5-0.4-0.8-0.6
		c0,0-0.1-0.1-0.1-0.1c-0.2-0.2-0.5-0.4-0.7-0.6c0.3,0.3-0.2,1-0.4,1.2c0,0,0,0,0,0c-0.4,0.5-0.8,0.8-1.4,0.7c0,0-0.1,0-0.1,0
		c-0.6-0.2-1.2-0.6-1.6-1.1c-0.1-0.1-0.2-0.2-0.4-0.4c-0.6-0.6-1.1-1.2-1.6-1.8c-0.2-0.3-0.4-0.6-0.6-0.9c-0.2-0.4-0.4-0.7-0.6-1.1
		c3.2-0.2,6.4-0.4,9.6-0.8c0.7-0.1,1.3-0.1,2-0.2c0.3,0,0.6-0.1,0.9-0.1c1.1-0.1,2.3-0.3,3.4-0.4c0.1,0,0.2,0,0.3,0
		C92.4,141.3,92.7,141.9,93,142.5z"/>
	<path class="st4" d="M41.1,59.9c3.6-0.2,6.5-1.8,6.3-3.5s-3.1-2.9-6.8-2.6c-3.6,0.2-6.5,1.8-6.3,3.5C34.4,58.9,37.4,60.1,41.1,59.9
		z"/>
	<ellipse class="st4" cx="86.3" cy="54.3" rx="6.6" ry="3.1"/>
	<path class="st3" d="M98.6,102.4c0-18.7-15.2-34-34-34s-34,15.2-34,34c0,18.7,15.2,34,34,34S98.6,121.1,98.6,102.4z M64.7,135.4
		c-18.2,0-33-14.8-33-33s14.8-33,33-33c18.2,0,33,14.8,33,33S82.9,135.4,64.7,135.4z"/>
</g>
</svg>
