<?xml version="1.0" encoding="utf-8"?>
<!-- Generator: Adobe Illustrator 23.0.4, SVG Export Plug-In . SVG Version: 6.00 Build 0)  -->
<svg version="1.1" id="Bear" xmlns="http://www.w3.org/2000/svg" xmlns:xlink="http://www.w3.org/1999/xlink" x="0px" y="0px"
	 viewBox="0 0 151.3 216.9" style="enable-background:new 0 0 151.3 216.9;" xml:space="preserve">
<style type="text/css">
	#Bear .st0{fill:none;}
	#Bear .st1{fill:#B22222;}
</style>
<g>
	<circle class="st0" cx="75" cy="125" r="47.3"/>
	<path class="st1" d="M136.5,56.1c1.6-2.6,4.8-2.1,7.2-3.2c3.1-1.5,5.5-4.3,6.7-7.4c2.7-6.8-0.9-13.7-7.6-16
		c-3.1-1.1-6.6-1.1-9.7,0.2c-1.2,0.6-1.2,0.8-2.2-0.2c-0.5-0.6-1-1.3-1.5-1.9c-1.7-2-3.6-3.7-5.6-5.3c-6.7-5.4-15-8.7-23.5-9.6
		c-1.2-0.1-2.3-0.2-3.5-0.2c-0.7,0-2.6,0.4-3.1-0.2c-0.2-0.3,0.1-2,0.1-2.4c-0.1-0.9-0.3-1.8-0.7-2.6c-1.3-3.1-4-5.5-7.1-6.7
		C79.2-1.9,72.7,3.4,71,10.1c-0.4,1.7-0.5,3.5-0.3,5.3c0.3,2.5,2.3,5.2,1.2,7.8c-0.6,1.4-3,2.5-4.2,3.5c-0.7,0.5-1.4,1.1-2,1.6
		c-2,1.7-4,3.5-5.9,5.4c-1.3,1.3-2.6,2.7-3.8,4.1c-5.3,6.1-9.9,12.9-14.1,19.9c-0.8,1.3-1.5,2.5-2.3,3.8c-0.1,0.1-0.1,0.1-0.1,0.2
		C28.3,72.7,18.6,85.8,10.6,99.4c-3.9,6.6-7.4,13.7-9.2,21.2c-1.5,6.2-2.3,13.7,0.4,19.7c2.3,5.1,8.5,8.8,13.8,5.8
		c0,0.6,0.1,1.2,0.1,1.8c0.8,10.5,2,21.5,5.3,31.6c0.2,0.5,0.4,1.1,0.6,1.6c0.7,4,1.3,7.9,1.8,11.9c0.4,3.6,0.4,7.4,1.3,10.9
		c1.5,5.9,6.7,9.5,12.4,10.9c3.8,1,7.7,1.1,11.6,1.3c4,0.2,8.1,0.8,12.1,0.6c5.2-0.2,6.4-5,6.3-9.4c3.8,0.5,7.8,1,11.9,1.2
		c-0.4,1.7-0.5,3.6,0.4,5.1c1.2,1.8,3.4,1.8,5.3,2c6.5,0.5,13,0.9,19.5,0c3-0.4,6-1.1,8.9-2.2c2.2-0.9,4.9-1.9,6.3-3.9
		c1.4-2,1.3-4.6,1.5-6.9c0.3-3.1,0.6-6.1,0.9-9.2c0.1-0.1,0.2-0.3,0.3-0.4c5.5-7.3,8.1-16.4,9.3-25.3c0.8-5.6,1.2-11.3,1.3-17
		c3.4,2.3,8.5,0.8,11.2-2.4c4.7-5.8,3.7-14.8,1.9-21.5c-2.2-8.7-6.6-16.7-9.6-25.1c-2.8-7.7-4.7-15.6-6.2-23.6
		c1-4.8,2.3-9.5,3.9-14.3C134.6,61.4,135.2,58.2,136.5,56.1z M75,172.3c-26.1,0-47.3-21.2-47.3-47.3c0-26.1,21.2-47.3,47.3-47.3
		s47.3,21.2,47.3,47.3C122.3,151.1,101.1,172.3,75,172.3z"/>
</g>
</svg>
