<?xml version="1.0" encoding="utf-8"?>
<!-- Generator: Adobe Illustrator 23.0.4, SVG Export Plug-In . SVG Version: 6.00 Build 0)  -->
<svg version="1.1" id="Bunny4" xmlns="http://www.w3.org/2000/svg" xmlns:xlink="http://www.w3.org/1999/xlink" x="0px" y="0px"
	 viewBox="0 0 351.1 303.8" style="enable-background:new 0 0 351.1 303.8;" xml:space="preserve">
<style type="text/css">
	#Bunny4 .st0{fill:none;}
	#Bunny4 .st1{fill:#D17FD3;}
</style>
<g>
	
		<ellipse transform="matrix(0.7071 -0.7071 0.7071 0.7071 -68.0059 186.8313)" class="st0" cx="191.5" cy="175.5" rx="76.2" ry="76.2"/>
	<path class="st1" d="M350.7,188.9c-0.9-7.8-3.9-15.1-10.3-19.4c-1.7-1.2-3.6-2.1-5.7-2.7c-0.8-0.3-1.7-7.2-2-8.3
		c-0.8-2.8-2.1-5.6-3.3-8.2c-2.5-5.7-5.4-11.2-8.6-16.5c-6.5-10.6-14.4-20.3-23.6-28.6c-16.1-14.5-36.1-24.8-57.5-28.6
		c-20.1-3.6-40.9-1.5-60.8,2.9c-10,2.2-19.8,5-29.5,8.3c-8.5,2.9-17,8.8-26,5.9c4.9-3.7,9-7,12.7-10.3c18.5-16.6,30.5-39.1,32.9-64
		c0.6-6.9,0.7-17.6-8-19.3c-0.4-0.1-0.8-0.1-1.2-0.2c-1.6-0.1-3.3,0.1-5.3,0.6c-3.4,0.8-6.5,2.3-8.9,3.4c-3.9,2-7.8,4.3-11.6,6.8
		c0.5-1,0.8-1.9,1-2.9c0.3-1.7-0.2-3.9-2-5c-0.9-0.5-1.9-0.8-3.1-0.9c-0.2,0-0.3,0-0.5,0c-1.8,0-3.7,0.3-4.9,0.6
		c-3,0.7-6,1.9-9.3,3.9c-3,1.8-6,4-9,6.6c-3.1,2.6-5.9,5.5-8.4,8.5c-2.6,3.1-5,6.3-7.1,9.4c-2,3-4,6.3-5.9,10.2
		c-1.5,2.9-2.8,6.2-4,10.2c-0.3,1.1-0.7,2.3-1,3.8c-0.7-0.2-1.6-0.3-2.4-0.3c0,0-0.2,0-0.2,0c-16.3-1.2-33.5,11.6-44.3,22.6
		c-7,7.1-12.9,15.4-17.2,24.3c-4.4,9.1-6.2,18.8-10.7,27.8c-3.9,8-7.5,17.6-2.3,25.9c0.7,1,1.4,2,2.2,2.9c5.4,6,13.8,9.1,19.9,14.4
		c7.7,6.8,12.7,15,18.7,23.1c6.5,8.8,13.5,17.2,21,25.2c3.4,3.6,6.8,7,10.5,10.4c3.7,3.4,7.6,6.7,11.6,9.9c2.1,1.7,4.3,3.4,6.5,5
		c-1.3,0.9-2.3,1.6-3.2,2.2c0,0,0.2-0.1,0.2-0.1c-3.3,1.2-6.8,4.2-10,6c-4.1,2.3-8.2,4.8-12,7.7c-1.5,1.1-3,2.4-3.6,4.2
		c-2.8,7.9,13.3,9.8,18,10.4c1,0.1,2,0.2,3,0.3c0.7,0.1,1.4,0.1,2.1,0.1c2.2,0.1,4.6,0,7.2-0.2c0.4,0,0.8-0.1,1.2-0.1l-0.7,0.5
		l-0.4,0.3c-1.5,1.2-2.7,2.3-3.8,3.4c-2.6,2.5-5.5,5.5-6.9,8.9c-1.5,3.5-0.7,6.9,2.6,8.9c1.3,0.8,2.7,1.3,3.9,1.7
		c10.2,3.4,22.7,4.9,33,1.5c9-2.9,17.3-8.5,25.8-12.6c9.1-4.4,18.5-8,27.6-12.4c8.7-4.1,16.9-9.8,25-14.9l0.1-0.1l0.1-0.1l2.5-1.6
		c-1.9,1.7-4,3.4-6.8,5.3c-2.6,1.7-5.2,3.3-7.8,4.7l-0.2,0.1c-2.4,1.4-4.9,2.9-7.3,4.4c-2.8,1.8-4.8,3.3-6.6,4.9
		c-2,1.9-3.6,3.7-4.6,5.7c-1.3,2.4-3.1,6.9-0.9,10.6c1.4,2.3,4.2,3.9,8.4,4.9c21.5,4.9,44.1-6,65.5-7.4c8.8-0.6,17.7,0.1,26.3-1.9
		c4.9-1.1,12.5-3.8,11.6-10.1c-0.1-1-0.5-2-1-3c1-0.4,2.1-0.9,3.2-1.4c2.6-1.2,5.3-2.8,8.5-5.1c5.7-4,10.9-8.6,15.7-13.7
		c2.1-2.3,4.1-4.6,6.1-7c1.1-1.4,4.8-8.3,6.3-8.7c14.7-3.6,24-16.8,27.7-30.8C350.5,205.1,351.7,196.7,350.7,188.9z M267.5,181.1
		c-3.1,42-39.6,73.5-81.6,70.4c-42-3.1-73.5-39.6-70.4-81.6c3.1-42,39.6-73.5,81.6-70.4C239.1,102.6,270.6,139.1,267.5,181.1z"/>
</g>
</svg>
