<?xml version="1.0" encoding="utf-8"?>
<!-- Generator: Adobe Illustrator 23.0.4, SVG Export Plug-In . SVG Version: 6.00 Build 0)  -->
<svg version="1.1" id="Bunny6" xmlns="http://www.w3.org/2000/svg" xmlns:xlink="http://www.w3.org/1999/xlink" x="0px" y="0px"
	 viewBox="0 0 151.8 151.8" style="enable-background:new 0 0 151.8 151.8;" xml:space="preserve">
<style type="text/css">
	#Bunny6 .st0{fill:#D17FD3;}
	#Bunny6 .st1{fill:#E2C374;}
	#Bunny6 .st2{fill:#7FCADB;}
	#Bunny6 .st3{fill:#E585AC;}
</style>
<g>
	<path class="st0" d="M151.8,85.8c0-0.2-0.1-0.4-0.2-0.6c-0.1-0.2-0.2-0.5-0.3-0.7c0.1,0,0.1,0.1,0.2,0.1c0.1,0,0.2,0,0.3-0.1
		c0-0.1,0.1-0.1,0.1-0.2l0,0c0-0.1,0-0.2,0-0.3c0-0.2-0.1-0.4-0.2-0.6c-0.1-0.2-0.2-0.4-0.4-0.6c-0.1-0.2-0.3-0.4-0.5-0.5
		c-0.2-0.2-0.4-0.3-0.5-0.4c-0.2-0.1-0.4-0.2-0.6-0.4c-0.2-0.1-0.4-0.2-0.6-0.2c-0.1,0-0.1,0-0.2-0.1c0,0,0-0.1,0-0.1l0,0
		c0-0.5-0.1-1-0.4-1.4c-0.3-0.5-0.6-0.9-0.9-1.2c-0.4-0.4-0.9-0.7-1.4-0.9c-0.5-0.2-1.1-0.3-1.6-0.5c-0.5-0.2-1-0.4-1.5,0
		c-0.1,0-0.1,0.1-0.2,0.1c-0.3,0.3-0.5,0.8-0.8,1.1c-0.4,0.4-0.8,0.7-1.2,1c-0.5,0.4-1,0.7-1.4,1.1c-0.2,0.2-0.4,0.4-0.6,0.5
		c-0.2,0.2-0.4,0.4-0.6,0.6l-0.3,0.3c-0.1-0.1-0.1-0.1-0.1-0.2l0,0c-0.1-0.2-0.2-0.4-0.3-0.5c-0.1-0.2-0.3-0.4-0.4-0.6
		c-0.1-0.1-0.1-0.2-0.2-0.2c-0.4-0.1-0.5,0.7-0.6,0.9l0,0.1l0,0.1c0,0.1,0,0.2,0,0.4l0,0.1l0,0l0,0c-0.1-0.1-0.1-0.1-0.2-0.2
		c-0.1-0.1-0.3-0.3-0.5-0.4c-0.2-0.1-0.4,0-0.5,0.1c0,0.1-0.1,0.1-0.1,0.2c-0.2,0.5-0.3,1.1-0.1,1.6c0.1,0.4,0.4,0.9,0.7,1.3
		c0.2,0.5,0.4,1,0.6,1.4c0.2,0.5,0.5,0.9,0.7,1.3l0,0l0,0l0.1,0.1c-0.1-0.1-0.2-0.2-0.3-0.4c-0.1-0.1-0.2-0.3-0.2-0.4l0,0
		c-0.1-0.1-0.1-0.3-0.2-0.4c-0.1-0.1-0.2-0.3-0.2-0.4c-0.1-0.1-0.2-0.2-0.3-0.3c-0.1-0.1-0.4-0.2-0.6-0.1c-0.1,0.1-0.2,0.2-0.3,0.4
		c-0.4,1,0.2,2.2,0.1,3.3c0,0.4-0.1,0.9-0.1,1.3c0,0.2,0.1,0.7,0.5,0.7c0.1,0,0.1,0,0.2,0c0,0.1,0,0.1,0.1,0.2
		c0,0.1,0.1,0.3,0.2,0.5c0.2,0.3,0.4,0.6,0.6,0.9c0.1,0.1,0.2,0.3,0.3,0.4c0.1,0.1,0.4,0.3,0.4,0.4c0,0.8,0.7,1.4,1.4,1.8
		c0.3,0.2,0.8,0.3,1.2,0.4c0.4,0.1,0.9,0,1.2-0.3c0.1-0.1,0.2-0.2,0.2-0.3c0,0,0.4,0,0.5,0c0.2,0,0.3,0,0.5-0.1
		c0.3-0.1,0.7-0.2,1-0.3c0.7-0.2,1.3-0.6,1.9-1c1-0.8,1.7-1.9,2.1-3.1c0.3-1.2,0.3-2.4,0.2-3.6c-0.1-0.6-0.2-1.2-0.4-1.8
		c-0.1-0.5-0.4-1-0.2-1.5c0.2,0.3,0.4,0.5,0.5,0.8c0.9,1.1,2.1,1.9,3.5,2.2c0.4,0.1,1,0.1,1.1-0.4l0-0.1
		C151.8,86,151.8,85.9,151.8,85.8z"/>
	<path class="st1" d="M145.4,105.7c-0.1-0.2-0.2-0.4-0.3-0.6c-0.1-0.2-0.2-0.4-0.4-0.6c-0.1-0.2-0.3-0.3-0.4-0.5
		c-0.1-0.1-0.3-0.3-0.5-0.4c-0.1,0-0.1-0.1-0.2-0.1c0,0,0-0.1,0.1-0.1l0,0c0.4-0.9,0-2.1-0.4-2.9c-0.3-0.5-0.6-1-1.1-1.3
		c-0.4-0.4-0.9-0.6-1.4-1c-0.4-0.3-0.9-0.7-1.4-0.5c-0.1,0-0.1,0-0.2,0.1c-0.4,0.2-0.7,0.6-1.1,0.8c-0.5,0.3-1,0.4-1.5,0.6
		c-0.6,0.2-1.1,0.4-1.7,0.6c-0.2,0.1-0.5,0.2-0.7,0.3c-0.2,0.1-0.5,0.3-0.7,0.4l-0.4,0.2c0-0.1,0-0.1-0.1-0.2l0,0
		c0-0.2-0.1-0.4-0.2-0.6c-0.1-0.2-0.1-0.5-0.2-0.7c0-0.1-0.1-0.2-0.2-0.2c-0.4-0.3-0.7,0.5-0.8,0.7l-0.1,0.1l0,0.1
		c0,0.1-0.1,0.2-0.1,0.3l0,0.1l0,0l0,0c0-0.1-0.1-0.2-0.1-0.2c-0.1-0.2-0.2-0.4-0.4-0.5c-0.2-0.1-0.4-0.2-0.5-0.1
		c-0.1,0-0.1,0.1-0.2,0.1c-0.3,0.4-0.6,0.9-0.6,1.5c0,0.5,0.2,1,0.2,1.4c0.1,0.5,0.1,1,0.1,1.5c0,0.5,0.2,1,0.3,1.5l0,0l0,0l0,0.2
		c-0.1-0.1-0.1-0.3-0.1-0.4c0-0.2-0.1-0.3-0.1-0.5l0,0c0-0.1-0.1-0.3-0.1-0.4c0-0.2-0.1-0.3-0.1-0.4c-0.1-0.1-0.1-0.2-0.2-0.3
		c-0.1-0.1-0.3-0.3-0.5-0.3c-0.1,0-0.3,0.1-0.4,0.3c-0.6,0.9-0.6,2.1-0.9,3.1c-0.1,0.4-0.4,0.8-0.5,1.2c-0.1,0.2-0.1,0.7,0.2,0.8
		c0.1,0,0.1,0,0.2,0c0,0.1,0,0.1,0,0.2c0,0.1,0,0.3,0,0.5c0.1,0.4,0.2,0.7,0.3,1.1c0.1,0.2,0.1,0.3,0.2,0.5c0,0.1,0.3,0.5,0.3,0.5
		c-0.2,0.8,0.2,1.6,0.7,2.1c0.3,0.3,0.6,0.6,1,0.8c0.4,0.2,0.8,0.3,1.2,0.1c0.1,0,0.2-0.1,0.3-0.2c0,0,0.4,0.1,0.5,0.1
		c0.2,0,0.3,0.1,0.5,0.1c0.4,0,0.7,0,1,0c0.7,0,1.4-0.2,2.1-0.4c0.6-0.2,1.2-0.5,1.7-0.9c0.5-0.4,0.9-0.9,1.3-1.4
		c0.3-0.5,0.6-1,0.9-1.6c0.2-0.6,0.4-1.2,0.5-1.8c0.1-0.6,0.2-1.2,0.2-1.8c0-0.5-0.1-1.1,0.2-1.5c0.1,0.3,0.2,0.6,0.3,0.9
		c0.5,1.3,1.4,2.5,2.6,3.1c0.3,0.2,0.9,0.4,1.2-0.1l0-0.1c0-0.1,0.1-0.2,0.1-0.3c0-0.2,0-0.4,0-0.6c0-0.3-0.1-0.5-0.1-0.8
		c0,0,0.1,0.1,0.1,0.1c0.1,0.1,0.2,0.1,0.3,0c0,0,0.1-0.1,0.1-0.2l0,0c0-0.1,0.1-0.2,0.1-0.3c0-0.2,0-0.4,0-0.6
		C145.5,106.2,145.5,106,145.4,105.7z"/>
	<path class="st2" d="M132.5,124.4c-0.1-0.2-0.1-0.4-0.3-0.6c-0.1-0.2-0.2-0.3-0.3-0.5c0-0.1-0.1-0.1-0.1-0.2c0,0,0.1-0.1,0.1-0.1
		l0,0c0.7-0.7,0.6-2,0.5-2.9c-0.1-0.6-0.3-1.1-0.6-1.6c-0.3-0.5-0.7-0.9-1-1.4c-0.3-0.4-0.6-0.9-1.2-0.9c-0.1,0-0.1,0-0.2,0
		c-0.4,0.1-0.8,0.3-1.3,0.5c-0.5,0.1-1.1,0.1-1.6,0.1c-0.6,0-1.2,0-1.8,0.1c-0.3,0-0.5,0.1-0.8,0.1c-0.3,0-0.5,0.1-0.8,0.1l-0.4,0.1
		c0-0.1,0-0.2,0-0.2l0,0c0-0.2,0-0.4,0-0.6c0-0.2,0-0.5,0-0.7c0-0.1,0-0.2-0.1-0.3c-0.3-0.4-0.8,0.2-1,0.4l-0.1,0.1l-0.1,0.1
		c-0.1,0.1-0.1,0.2-0.2,0.3l0,0.1l0,0l0,0c0-0.1,0-0.2,0-0.3c0-0.2-0.1-0.4-0.2-0.6c-0.1-0.2-0.3-0.3-0.5-0.2
		c-0.1,0-0.1,0.1-0.2,0.1c-0.2,0.1-0.4,0.3-0.6,0.5c-0.2,0.2-0.3,0.4-0.4,0.7c-0.1,0.4-0.2,1-0.2,1.4c-0.1,0.5-0.2,1-0.4,1.5
		c-0.1,0.5-0.2,1-0.2,1.5l0,0l0,0l0,0.2c0-0.1,0-0.3,0-0.5c0-0.2,0-0.3,0.1-0.5l0,0c0-0.1,0-0.3,0.1-0.4c0-0.2,0-0.3,0-0.4
		c0-0.1,0-0.3-0.1-0.4c-0.1-0.1-0.2-0.4-0.4-0.4c-0.1,0-0.3,0-0.5,0.1c-0.9,0.6-1.2,1.9-1.9,2.7c-0.3,0.3-0.6,0.6-0.8,1
		c-0.1,0.2-0.3,0.6,0,0.8c0,0,0.1,0.1,0.2,0.1c0,0.1,0,0.1-0.1,0.2c0,0.1-0.1,0.3-0.1,0.5c-0.1,0.4-0.1,0.7-0.1,1.1
		c0,0.2,0,0.3,0,0.5c0,0.1,0.1,0.5,0.1,0.6c-0.4,0.7-0.3,1.6,0.1,2.3c0.2,0.3,0.4,0.7,0.8,1c0.3,0.3,0.7,0.5,1.1,0.4
		c0.1,0,0.2,0,0.3-0.1c0,0,0.3,0.2,0.4,0.3c0.1,0.1,0.3,0.2,0.4,0.2c0.3,0.1,0.6,0.3,1,0.4c0.7,0.2,1.4,0.3,2.1,0.3
		c1.2-0.1,2.5-0.5,3.5-1.3c1-0.7,1.7-1.7,2.3-2.8c0.3-0.5,0.5-1.1,0.7-1.6c0.2-0.5,0.2-1.1,0.7-1.4c0,0.3,0,0.6,0,0.9
		c0,1.4,0.6,2.8,1.5,3.8c0.3,0.3,0.7,0.7,1.2,0.3l0.1-0.1c0.1-0.1,0.1-0.2,0.2-0.3c0.1-0.2,0.2-0.4,0.2-0.5c0.1-0.3,0.1-0.5,0.2-0.8
		c0,0.1,0.1,0.1,0.1,0.1c0.1,0.1,0.2,0.1,0.3,0.1c0.1,0,0.1-0.1,0.2-0.1l0,0c0.1-0.1,0.1-0.2,0.2-0.3c0.1-0.2,0.1-0.4,0.2-0.6
		c0-0.2,0-0.4,0-0.7c0-0.2,0-0.5-0.1-0.7C132.7,124.8,132.6,124.6,132.5,124.4z"/>
	<path class="st3" d="M115.4,132.1c-0.1-0.5-0.3-1-0.8-1.2c-0.1,0-0.1,0-0.2-0.1c-0.4-0.1-0.9,0.1-1.3,0.1c-0.6,0-1.1-0.3-1.6-0.4
		c-0.6-0.2-1.2-0.3-1.7-0.5c-0.3-0.1-0.5-0.1-0.8-0.1c-0.3,0-0.5-0.1-0.8-0.1l-0.4,0c0-0.1,0-0.1,0.1-0.2l0,0
		c0.1-0.2,0.2-0.4,0.2-0.6c0.1-0.2,0.2-0.5,0.2-0.7c0-0.1,0-0.2,0-0.3c-0.2-0.5-0.8,0-1.1,0.1L107,128l-0.1,0.1
		c-0.1,0.1-0.2,0.1-0.3,0.2l0,0l0,0l0,0c0-0.1,0-0.2,0-0.3c0-0.2,0-0.4,0-0.6c-0.1-0.2-0.2-0.3-0.4-0.3c-0.1,0-0.1,0-0.2,0
		c-0.5,0.1-1.1,0.4-1.4,0.8c-0.3,0.4-0.4,0.9-0.7,1.3c-0.3,0.4-0.5,0.9-0.8,1.3c-0.3,0.4-0.4,0.9-0.7,1.4l0,0l0,0l-0.1,0.1
		c0-0.1,0.1-0.3,0.2-0.4c0.1-0.2,0.1-0.3,0.2-0.4l0,0c0.1-0.1,0.1-0.3,0.2-0.4c0.1-0.2,0.1-0.3,0.1-0.4c0-0.1,0-0.3,0-0.4
		c0-0.1-0.1-0.4-0.3-0.5c-0.1-0.1-0.3-0.1-0.5,0c-0.5,0.2-0.9,0.5-1.3,0.9c-0.4,0.4-0.8,0.8-1.2,1.1c-0.4,0.3-0.8,0.4-1.1,0.7
		c-0.2,0.2-0.5,0.5-0.3,0.8c0,0,0.1,0.1,0.1,0.1c0,0-0.1,0.1-0.1,0.1c-0.1,0.1-0.2,0.3-0.3,0.4c-0.2,0.3-0.3,0.7-0.4,1.1
		c0,0.2-0.1,0.3-0.1,0.5c0,0.1,0,0.5-0.1,0.6c-0.6,0.5-0.8,1.4-0.7,2.2c0.1,0.4,0.2,0.8,0.4,1.2c0.2,0.4,0.5,0.7,1,0.8
		c0.1,0,0.2,0,0.4,0c0,0,0.3,0.3,0.3,0.4c0.1,0.1,0.2,0.2,0.4,0.4c0.3,0.2,0.5,0.5,0.8,0.6c0.6,0.4,1.2,0.7,1.9,0.9
		c0.6,0.2,1.2,0.3,1.9,0.2c0.6,0,1.3-0.1,1.9-0.3c0.6-0.2,1.1-0.5,1.6-0.8c0.5-0.3,1-0.7,1.4-1.1c0.4-0.4,0.9-0.8,1.2-1.3
		c0.3-0.4,0.6-1,1.1-1.1c-0.1,0.3-0.2,0.6-0.3,0.9c-0.4,1.4-0.3,2.8,0.3,4.1c0.2,0.3,0.5,0.9,1,0.7l0.1,0c0.1,0,0.2-0.1,0.3-0.2
		c0.2-0.2,0.3-0.3,0.4-0.5c0.1-0.2,0.3-0.5,0.4-0.7c0,0.1,0,0.1,0,0.2c0,0.1,0.1,0.2,0.3,0.2c0.1,0,0.1,0,0.2-0.1l0,0
		c0.1-0.1,0.2-0.1,0.2-0.2c0.1-0.1,0.2-0.3,0.4-0.5c0.1-0.2,0.2-0.4,0.3-0.6c0.1-0.2,0.1-0.5,0.1-0.7c0-0.2,0-0.5,0-0.7
		c0-0.2,0-0.4-0.1-0.7c0-0.2-0.1-0.4-0.1-0.6c0-0.1,0-0.1-0.1-0.2c0,0,0.1,0,0.1-0.1l0,0c0.8-0.5,1.2-1.7,1.3-2.6
		c0.1-0.6,0-1.2-0.1-1.7C115.8,133.1,115.5,132.6,115.4,132.1z"/>
	<path class="st0" d="M95.7,140.1c-0.1,0-0.1-0.1-0.2-0.1c-0.4-0.2-0.9-0.2-1.3-0.4c-0.5-0.2-0.9-0.6-1.4-0.9c-0.5-0.3-1-0.7-1.5-1
		c-0.2-0.1-0.5-0.3-0.7-0.4c-0.2-0.1-0.5-0.2-0.7-0.4l-0.4-0.2c0-0.1,0.1-0.1,0.1-0.2l0,0c0.1-0.1,0.3-0.3,0.4-0.5
		c0.2-0.2,0.3-0.4,0.4-0.6c0.1-0.1,0.1-0.2,0.1-0.3c0-0.5-0.8-0.3-1-0.3l-0.1,0l-0.1,0c-0.1,0-0.2,0.1-0.3,0.1l-0.1,0l0,0l0,0
		c0-0.1,0.1-0.2,0.1-0.2c0.1-0.2,0.2-0.4,0.2-0.6c0-0.2-0.1-0.4-0.3-0.4c-0.1,0-0.1,0-0.2,0c-0.5,0-1.1,0.1-1.6,0.4
		c-0.4,0.3-0.7,0.7-1,1c-0.4,0.4-0.8,0.7-1.2,1c-0.4,0.3-0.7,0.7-1.1,1.1l0,0l0,0l-0.1,0.1c0.1-0.1,0.2-0.2,0.3-0.4
		c0.1-0.1,0.2-0.2,0.3-0.3l0,0c0.1-0.1,0.2-0.2,0.3-0.3c0.1-0.1,0.2-0.2,0.3-0.3c0.1-0.1,0.1-0.2,0.2-0.4c0-0.1,0.1-0.4-0.1-0.6
		c-0.1-0.1-0.2-0.2-0.5-0.2c-1.1-0.1-2,0.8-3.1,1.1c-0.4,0.1-0.9,0.1-1.3,0.3c-0.2,0.1-0.6,0.3-0.5,0.7c0,0.1,0,0.1,0.1,0.2
		c0,0-0.1,0.1-0.1,0.1c-0.1,0.1-0.2,0.2-0.4,0.4c-0.3,0.3-0.5,0.6-0.7,0.9c-0.1,0.1-0.2,0.3-0.3,0.4c0,0.1-0.2,0.5-0.3,0.5
		c-0.7,0.3-1.2,1.1-1.3,1.9c-0.1,0.4-0.1,0.9,0,1.3c0.1,0.4,0.3,0.8,0.7,1c0.1,0.1,0.2,0.1,0.3,0.1c0,0,0.1,0.4,0.2,0.5
		c0.1,0.2,0.1,0.3,0.2,0.4c0.2,0.3,0.4,0.6,0.6,0.9c0.4,0.6,1,1.1,1.6,1.4c1,0.7,2.3,1.1,3.6,1.1c1.2,0,2.4-0.4,3.5-0.9
		c0.5-0.3,1.1-0.6,1.6-0.9c0.4-0.3,0.8-0.7,1.4-0.7c-0.2,0.3-0.4,0.5-0.6,0.7c-0.8,1.2-1.2,2.6-1,4c0.1,0.4,0.2,1,0.8,0.9l0.1,0
		c0.1,0,0.2-0.1,0.3-0.1c0.2-0.1,0.4-0.2,0.5-0.3c0.2-0.2,0.4-0.4,0.6-0.5c0,0.1,0,0.1,0,0.2c0,0.1,0.1,0.2,0.2,0.2
		c0.1,0,0.1,0,0.2,0l0,0c0.1,0,0.2-0.1,0.3-0.1c0.2-0.1,0.3-0.2,0.5-0.4c0.1-0.2,0.3-0.3,0.4-0.5c0.1-0.2,0.3-0.4,0.3-0.6
		c0.1-0.2,0.2-0.4,0.3-0.6c0.1-0.2,0.1-0.4,0.2-0.7c0-0.2,0-0.4,0.1-0.6c0-0.1,0-0.1,0-0.2c0,0,0.1,0,0.1,0l0,0
		c1-0.2,1.7-1.3,2.1-2.1c0.2-0.5,0.4-1.1,0.5-1.6c0.1-0.6,0-1.1,0-1.7C96.2,141.1,96.1,140.5,95.7,140.1z"/>
	<path class="st1" d="M74.8,142.9c-0.3-0.3-0.8-0.5-1.1-0.8c-0.4-0.4-0.7-0.8-1-1.2c-0.4-0.5-0.7-1-1.1-1.4
		c-0.2-0.2-0.4-0.4-0.5-0.6c-0.2-0.2-0.4-0.4-0.6-0.6l-0.3-0.3c0.1-0.1,0.1-0.1,0.2-0.1l0,0c0.2-0.1,0.4-0.2,0.5-0.3
		c0.2-0.1,0.4-0.3,0.6-0.4c0.1-0.1,0.2-0.1,0.2-0.2c0.1-0.4-0.7-0.5-0.9-0.6l-0.1,0l-0.1,0c-0.1,0-0.2,0-0.4,0l-0.1,0l0,0l0,0
		c0.1-0.1,0.1-0.1,0.2-0.2c0.1-0.1,0.3-0.3,0.4-0.5c0.1-0.2,0-0.4-0.1-0.5c-0.1,0-0.1-0.1-0.2-0.1c-0.5-0.2-1.1-0.3-1.6-0.1
		c-0.4,0.1-0.9,0.4-1.3,0.7c-0.5,0.2-1,0.4-1.4,0.6c-0.5,0.2-0.9,0.5-1.3,0.7l0,0l0,0l-0.1,0.1c0.1-0.1,0.2-0.2,0.4-0.3
		c0.1-0.1,0.3-0.2,0.4-0.2l0,0c0.1-0.1,0.3-0.1,0.4-0.2c0.1-0.1,0.3-0.2,0.4-0.2c0.1-0.1,0.2-0.2,0.3-0.3c0.1-0.1,0.2-0.4,0.1-0.6
		c-0.1-0.1-0.2-0.2-0.4-0.3c-1-0.4-2.2,0.2-3.3,0.1c-0.4,0-0.9-0.1-1.3-0.1c-0.2,0-0.7,0.1-0.7,0.5c0,0.1,0,0.1,0,0.2
		c-0.1,0-0.1,0-0.2,0.1c-0.1,0-0.3,0.1-0.5,0.2c-0.3,0.2-0.6,0.4-0.9,0.6c-0.1,0.1-0.3,0.2-0.4,0.3c-0.1,0.1-0.3,0.4-0.4,0.4
		c-0.8,0-1.4,0.7-1.8,1.4c-0.2,0.3-0.3,0.8-0.4,1.2c-0.1,0.4,0,0.9,0.3,1.2c0.1,0.1,0.2,0.2,0.3,0.2c0,0,0,0.4,0,0.5
		c0,0.2,0,0.3,0.1,0.5c0.1,0.3,0.2,0.7,0.3,1c0.2,0.7,0.6,1.3,1,1.9c0.8,1,1.9,1.7,3.1,2.1c1.2,0.3,2.4,0.3,3.6,0.2
		c0.6-0.1,1.2-0.2,1.8-0.4c0.5-0.1,1-0.4,1.5-0.2c-0.3,0.2-0.5,0.4-0.8,0.5c-1.1,0.9-1.9,2.1-2.2,3.5c-0.1,0.4-0.1,1,0.4,1.1l0.1,0
		c0.1,0,0.2,0,0.3,0c0.2,0,0.4-0.1,0.6-0.2c0.2-0.1,0.5-0.2,0.7-0.3c0,0.1-0.1,0.1-0.1,0.2c0,0.1,0,0.2,0.1,0.3
		c0.1,0,0.1,0.1,0.2,0.1l0,0c0.1,0,0.2,0,0.3,0c0.2,0,0.4-0.1,0.6-0.2c0.2-0.1,0.4-0.2,0.6-0.4c0.2-0.1,0.4-0.3,0.5-0.5
		c0.2-0.2,0.3-0.4,0.4-0.5c0.1-0.2,0.2-0.4,0.4-0.6c0.1-0.2,0.2-0.4,0.2-0.6c0-0.1,0-0.1,0.1-0.2c0,0,0.1,0,0.1,0l0,0
		c0.5,0,1-0.1,1.4-0.4c0.5-0.3,0.9-0.6,1.2-0.9c0.4-0.4,0.7-0.9,0.9-1.4c0.2-0.5,0.3-1.1,0.5-1.6c0.2-0.5,0.4-1,0-1.5
		C74.8,143,74.8,143,74.8,142.9z"/>
	<path class="st2" d="M54.1,139.3c-0.2-0.4-0.6-0.7-0.8-1.1c-0.3-0.5-0.4-1-0.6-1.5c-0.2-0.6-0.4-1.1-0.6-1.7
		c-0.1-0.2-0.2-0.5-0.3-0.7c-0.1-0.2-0.3-0.5-0.4-0.7l-0.2-0.4c0.1,0,0.1,0,0.2-0.1l0,0c0.2,0,0.4-0.1,0.6-0.2
		c0.2-0.1,0.5-0.1,0.7-0.2c0.1,0,0.2-0.1,0.2-0.2c0.3-0.4-0.5-0.7-0.7-0.8l-0.1-0.1l-0.1,0c-0.1,0-0.2-0.1-0.3-0.1l-0.1,0l0,0l0,0
		c0.1,0,0.2-0.1,0.2-0.1c0.2-0.1,0.4-0.2,0.5-0.4c0.1-0.2,0.2-0.4,0.1-0.5c0-0.1-0.1-0.1-0.1-0.2c-0.4-0.3-0.9-0.6-1.5-0.6
		c-0.5,0-1,0.2-1.4,0.2c-0.5,0.1-1,0.1-1.5,0.1c-0.5,0-1,0.2-1.5,0.3l0,0l0,0l-0.2,0c0.1-0.1,0.3-0.1,0.4-0.1c0.2,0,0.3-0.1,0.5-0.1
		l0,0c0.1,0,0.3-0.1,0.4-0.1c0.2,0,0.3-0.1,0.4-0.1c0.1-0.1,0.2-0.1,0.3-0.2c0.1-0.1,0.3-0.3,0.3-0.5c0-0.1-0.1-0.3-0.3-0.4
		c-0.9-0.6-2.1-0.6-3.1-0.9c-0.4-0.1-0.8-0.4-1.2-0.5c-0.2-0.1-0.7-0.1-0.8,0.2c0,0.1,0,0.1,0,0.2c-0.1,0-0.1,0-0.2,0
		c-0.1,0-0.3,0-0.5,0c-0.4,0.1-0.7,0.2-1.1,0.3c-0.2,0.1-0.3,0.1-0.5,0.2c-0.1,0-0.5,0.3-0.5,0.3c-0.8-0.2-1.6,0.2-2.1,0.7
		c-0.3,0.3-0.6,0.6-0.8,1c-0.2,0.4-0.3,0.8-0.1,1.2c0,0.1,0.1,0.2,0.2,0.3c0,0-0.1,0.4-0.1,0.5c0,0.2-0.1,0.3-0.1,0.5
		c0,0.4,0,0.7,0,1c0,0.7,0.2,1.4,0.4,2.1c0.2,0.6,0.5,1.2,0.9,1.7c0.4,0.5,0.9,0.9,1.4,1.3c0.5,0.3,1,0.6,1.6,0.9
		c0.6,0.2,1.2,0.4,1.8,0.5c0.6,0.1,1.2,0.2,1.8,0.2c0.5,0,1.1-0.1,1.5,0.2c-0.3,0.1-0.6,0.2-0.9,0.3c-1.3,0.5-2.5,1.4-3.1,2.6
		c-0.2,0.3-0.4,0.9,0.1,1.2l0.1,0c0.1,0,0.2,0.1,0.3,0.1c0.2,0,0.4,0,0.6,0c0.3,0,0.5-0.1,0.8-0.1c0,0-0.1,0.1-0.1,0.1
		c-0.1,0.1-0.1,0.2,0,0.3c0,0,0.1,0.1,0.2,0.1l0,0c0.1,0,0.2,0.1,0.3,0.1c0.2,0,0.4,0,0.6,0c0.2,0,0.4-0.1,0.6-0.2
		c0.2-0.1,0.4-0.2,0.6-0.3c0.2-0.1,0.4-0.2,0.6-0.4c0.2-0.1,0.3-0.3,0.5-0.4c0.1-0.1,0.3-0.3,0.4-0.5c0-0.1,0.1-0.1,0.1-0.2
		c0,0,0.1,0,0.1,0.1l0,0c0.9,0.4,2.1,0,2.9-0.4c0.5-0.3,1-0.6,1.3-1.1c0.4-0.4,0.6-0.9,1-1.4c0.3-0.4,0.7-0.9,0.5-1.4
		C54.1,139.4,54.1,139.4,54.1,139.3z"/>
	<path class="st3" d="M36.6,120.4c-0.1-0.2-0.3-0.4-0.5-0.6c-0.2-0.2-0.4-0.3-0.7-0.4c-0.4-0.1-1-0.2-1.4-0.2
		c-0.5-0.1-1-0.2-1.5-0.4c-0.5-0.1-1-0.2-1.5-0.2l0,0l0,0l-0.2,0c0.1,0,0.3,0,0.5,0c0.2,0,0.3,0,0.5,0.1l0,0c0.1,0,0.3,0,0.4,0.1
		c0.2,0,0.3,0,0.4,0c0.1,0,0.3,0,0.4-0.1c0.1-0.1,0.4-0.2,0.4-0.4c0-0.1,0-0.3-0.1-0.5c-0.6-0.9-1.9-1.2-2.7-1.9
		c-0.3-0.3-0.6-0.6-1-0.8c-0.2-0.1-0.6-0.3-0.8,0c0,0-0.1,0.1-0.1,0.2c-0.1,0-0.1,0-0.2-0.1c-0.1,0-0.3-0.1-0.5-0.1
		c-0.4-0.1-0.7-0.1-1.1-0.1c-0.2,0-0.3,0-0.5,0c-0.1,0-0.5,0.1-0.6,0.1c-0.7-0.4-1.6-0.3-2.3,0.1c-0.3,0.2-0.7,0.4-1,0.8
		c-0.3,0.3-0.5,0.7-0.4,1.1c0,0.1,0,0.2,0.1,0.3c0,0-0.2,0.3-0.3,0.4c-0.1,0.1-0.2,0.3-0.2,0.4c-0.1,0.3-0.3,0.6-0.4,1
		c-0.2,0.7-0.3,1.4-0.3,2.1c0.1,1.2,0.5,2.5,1.3,3.5c0.7,1,1.7,1.7,2.8,2.3c0.5,0.3,1.1,0.5,1.6,0.7c0.5,0.2,1.1,0.2,1.4,0.7
		c-0.3,0-0.6,0-0.9,0c-1.4,0-2.8,0.6-3.8,1.5c-0.3,0.3-0.7,0.7-0.3,1.2l0.1,0.1c0.1,0.1,0.2,0.1,0.3,0.2c0.2,0.1,0.4,0.2,0.5,0.2
		c0.3,0.1,0.5,0.1,0.8,0.2c-0.1,0-0.1,0.1-0.1,0.1c-0.1,0.1-0.1,0.2-0.1,0.3c0,0.1,0.1,0.1,0.1,0.2l0,0c0.1,0.1,0.2,0.1,0.3,0.2
		c0.2,0.1,0.4,0.1,0.6,0.2c0.2,0,0.4,0,0.7,0c0.2,0,0.5,0,0.7-0.1c0.2,0,0.5-0.1,0.7-0.2c0.2-0.1,0.4-0.1,0.6-0.3
		c0.2-0.1,0.3-0.2,0.5-0.3c0.1,0,0.1-0.1,0.2-0.1c0,0,0.1,0.1,0.1,0.1l0,0c0.7,0.7,2,0.6,2.9,0.5c0.6-0.1,1.1-0.3,1.6-0.6
		c0.5-0.3,0.9-0.7,1.4-1c0.4-0.3,0.9-0.6,0.9-1.2c0-0.1,0-0.1,0-0.2c-0.1-0.4-0.3-0.8-0.5-1.3c-0.1-0.5-0.1-1.1-0.1-1.6
		c0-0.6,0-1.2-0.1-1.8c0-0.3-0.1-0.5-0.1-0.8c0-0.3-0.1-0.5-0.1-0.8l-0.1-0.4c0.1,0,0.2,0,0.2,0l0,0c0.2,0,0.4,0,0.6,0
		c0.2,0,0.5,0,0.7,0c0.1,0,0.2,0,0.3-0.1c0.4-0.3-0.2-0.8-0.4-1l-0.1-0.1l-0.1-0.1c-0.1-0.1-0.2-0.1-0.3-0.2l-0.1,0l0,0l0,0
		c0.1,0,0.2,0,0.3,0c0.2,0,0.4-0.1,0.6-0.2c0.2-0.1,0.3-0.3,0.2-0.5C36.6,120.5,36.6,120.5,36.6,120.4z"/>
	<path class="st0" d="M20.9,113c0-0.6,0.3-1.1,0.4-1.6c0.2-0.6,0.3-1.2,0.5-1.7c0.1-0.3,0.1-0.5,0.1-0.8c0-0.3,0.1-0.5,0.1-0.8
		l0-0.4c0.1,0,0.1,0,0.2,0.1l0,0c0.2,0.1,0.4,0.2,0.6,0.2c0.2,0.1,0.5,0.2,0.7,0.2c0.1,0,0.2,0,0.3,0c0.5-0.2,0-0.8-0.1-1.1
		l-0.1-0.1l-0.1-0.1c-0.1-0.1-0.1-0.2-0.2-0.3l0,0l0,0l0,0c0.1,0,0.2,0,0.3,0c0.2,0,0.4,0,0.6,0c0.2-0.1,0.3-0.2,0.3-0.4
		c0-0.1,0-0.1,0-0.2c-0.1-0.5-0.4-1.1-0.8-1.4c-0.4-0.3-0.9-0.4-1.3-0.7c-0.4-0.2-0.9-0.5-1.3-0.8c-0.4-0.3-0.9-0.4-1.4-0.7l0,0l0,0
		l-0.1-0.1c0.1,0,0.3,0.1,0.4,0.2c0.2,0.1,0.3,0.1,0.4,0.2l0,0c0.1,0.1,0.3,0.1,0.4,0.2c0.2,0.1,0.3,0.1,0.4,0.1c0.1,0,0.3,0,0.4,0
		c0.1,0,0.4-0.1,0.5-0.3c0.1-0.1,0.1-0.3,0-0.5c-0.2-0.5-0.5-0.9-0.9-1.3c-0.4-0.4-0.8-0.8-1.1-1.2c-0.3-0.4-0.4-0.8-0.7-1.1
		c-0.2-0.2-0.5-0.5-0.8-0.3c0,0-0.1,0.1-0.1,0.1c0,0-0.1-0.1-0.1-0.1c-0.1-0.1-0.3-0.2-0.4-0.3c-0.3-0.2-0.7-0.3-1.1-0.4
		c-0.2,0-0.3-0.1-0.5-0.1c-0.1,0-0.5,0-0.6-0.1c-0.5-0.6-1.4-0.8-2.2-0.7c-0.4,0.1-0.8,0.2-1.2,0.4c-0.4,0.2-0.7,0.5-0.8,1
		c0,0.1,0,0.2,0,0.4c0,0-0.3,0.3-0.4,0.3c-0.1,0.1-0.2,0.2-0.4,0.4c-0.2,0.3-0.5,0.5-0.6,0.8c-0.4,0.6-0.7,1.2-0.9,1.9
		c-0.2,0.6-0.3,1.2-0.2,1.9c0,0.6,0.1,1.3,0.3,1.9c0.2,0.6,0.5,1.1,0.8,1.6c0.3,0.5,0.7,1,1.1,1.4c0.4,0.4,0.8,0.9,1.3,1.2
		c0.4,0.3,1,0.6,1.1,1.1c-0.3-0.1-0.6-0.2-0.9-0.3c-1.4-0.4-2.8-0.3-4.1,0.3c-0.3,0.2-0.9,0.5-0.7,1l0,0.1c0,0.1,0.1,0.2,0.2,0.3
		c0.2,0.2,0.3,0.3,0.5,0.4c0.2,0.1,0.5,0.3,0.7,0.4c-0.1,0-0.1,0-0.2,0c-0.1,0-0.2,0.1-0.2,0.3c0,0.1,0,0.1,0.1,0.2l0,0
		c0.1,0.1,0.1,0.2,0.2,0.2c0.1,0.1,0.3,0.2,0.5,0.4c0.2,0.1,0.4,0.2,0.6,0.3c0.2,0.1,0.5,0.1,0.7,0.1c0.2,0,0.5,0,0.7,0
		c0.2,0,0.4,0,0.7-0.1c0.2,0,0.4-0.1,0.6-0.1c0.1,0,0.1,0,0.2-0.1c0,0,0,0.1,0.1,0.1l0,0c0.5,0.8,1.7,1.2,2.6,1.3
		c0.6,0.1,1.2,0,1.7-0.1c0.6-0.1,1.1-0.4,1.6-0.5c0.5-0.1,1-0.3,1.2-0.8c0-0.1,0-0.1,0.1-0.2C21.1,113.9,20.9,113.5,20.9,113z"/>
	<path class="st1" d="M10.3,96.1c0.5,0,1.1,0,1.4-0.4c0-0.1,0.1-0.1,0.1-0.2c0.2-0.4,0.2-0.9,0.4-1.3c0.2-0.5,0.6-0.9,0.9-1.4
		c0.3-0.5,0.7-1,1-1.5c0.1-0.2,0.3-0.5,0.4-0.7c0.1-0.2,0.2-0.5,0.4-0.7l0.2-0.4c0.1,0,0.1,0.1,0.2,0.1l0,0c0.1,0.1,0.3,0.3,0.5,0.4
		c0.2,0.2,0.4,0.3,0.6,0.4c0.1,0.1,0.2,0.1,0.3,0.1c0.5,0,0.3-0.8,0.3-1l0-0.1l0-0.1c0-0.1-0.1-0.2-0.1-0.3l0-0.1l0,0l0,0
		c0.1,0,0.2,0.1,0.2,0.1c0.2,0.1,0.4,0.2,0.6,0.2c0.2,0,0.4-0.1,0.4-0.3c0-0.1,0-0.1,0-0.2c0-0.5-0.1-1.1-0.4-1.6
		c-0.3-0.4-0.7-0.7-1-1c-0.4-0.4-0.7-0.8-1-1.2c-0.3-0.4-0.7-0.7-1.1-1.1l0,0l0,0l-0.1-0.1c0.1,0.1,0.2,0.2,0.4,0.3
		c0.1,0.1,0.2,0.2,0.3,0.3l0,0c0.1,0.1,0.2,0.2,0.3,0.3c0.1,0.1,0.2,0.2,0.3,0.3c0.1,0.1,0.2,0.1,0.4,0.2c0.1,0,0.4,0.1,0.6-0.1
		c0.1-0.1,0.2-0.2,0.2-0.5c0.1-1.1-0.8-2-1.1-3.1c-0.1-0.4-0.1-0.9-0.3-1.3c-0.1-0.2-0.3-0.6-0.7-0.5c-0.1,0-0.1,0-0.2,0.1
		c0,0-0.1-0.1-0.1-0.1c-0.1-0.1-0.2-0.2-0.4-0.4c-0.3-0.3-0.6-0.5-0.9-0.7c-0.1-0.1-0.3-0.2-0.4-0.3c-0.1,0-0.5-0.2-0.5-0.3
		c-0.3-0.7-1.1-1.2-1.9-1.3c-0.4-0.1-0.9-0.1-1.3,0c-0.4,0.1-0.8,0.3-1,0.7C8.1,77.5,8,77.6,8,77.8c0,0-0.4,0.1-0.5,0.2
		c-0.2,0.1-0.3,0.1-0.4,0.2c-0.3,0.2-0.6,0.4-0.9,0.6c-0.6,0.4-1.1,1-1.4,1.6c-0.7,1-1.1,2.3-1.1,3.6c0,1.2,0.4,2.4,0.9,3.5
		c0.3,0.5,0.6,1.1,0.9,1.6c0.3,0.4,0.7,0.8,0.7,1.4c-0.3-0.2-0.5-0.4-0.7-0.6c-1.2-0.8-2.6-1.2-4-1c-0.4,0.1-1,0.2-0.9,0.8l0,0.1
		c0,0.1,0.1,0.2,0.1,0.3c0.1,0.2,0.2,0.4,0.3,0.5c0.2,0.2,0.4,0.4,0.5,0.6c-0.1,0-0.1,0-0.2,0c-0.1,0-0.2,0.1-0.2,0.2
		c0,0.1,0,0.1,0,0.2l0,0c0,0.1,0.1,0.2,0.1,0.3c0.1,0.2,0.2,0.3,0.4,0.5c0.2,0.1,0.3,0.3,0.5,0.4c0.2,0.1,0.4,0.3,0.6,0.3
		c0.2,0.1,0.4,0.2,0.6,0.3c0.2,0.1,0.4,0.1,0.7,0.2c0.2,0,0.4,0,0.6,0.1c0.1,0,0.1,0,0.2,0c0,0,0,0.1,0,0.1l0,0
		c0.2,1,1.3,1.7,2.1,2.1c0.5,0.2,1.1,0.4,1.6,0.5C9.2,96.2,9.7,96.1,10.3,96.1z"/>
	<path class="st2" d="M1.1,69.5c0.2,0.2,0.4,0.3,0.5,0.4c0.2,0.1,0.4,0.2,0.6,0.4c0.2,0.1,0.4,0.2,0.6,0.2c0.1,0,0.1,0,0.2,0.1
		c0,0,0,0.1,0,0.1l0,0c0,0.5,0.1,1,0.4,1.4c0.3,0.5,0.6,0.9,0.9,1.2c0.4,0.4,0.9,0.7,1.4,0.9c0.5,0.2,1.1,0.3,1.6,0.5
		c0.5,0.2,1,0.4,1.5,0c0.1,0,0.1-0.1,0.2-0.1c0.3-0.3,0.5-0.8,0.8-1.1c0.4-0.4,0.8-0.7,1.2-1c0.5-0.4,1-0.7,1.4-1.1
		c0.2-0.2,0.4-0.4,0.6-0.5c0.2-0.2,0.4-0.4,0.6-0.6l0.3-0.3c0.1,0.1,0.1,0.1,0.1,0.2l0,0c0.1,0.2,0.2,0.4,0.3,0.5
		c0.1,0.2,0.3,0.4,0.4,0.6c0.1,0.1,0.1,0.2,0.2,0.2c0.4,0.1,0.5-0.7,0.6-0.9l0-0.1l0-0.1c0-0.1,0-0.2,0-0.4l0-0.1l0,0l0,0
		c0.1,0.1,0.1,0.1,0.2,0.2c0.1,0.1,0.3,0.3,0.5,0.4c0.2,0.1,0.4,0,0.5-0.1c0-0.1,0.1-0.1,0.1-0.2c0.2-0.5,0.3-1.1,0.1-1.6
		c-0.1-0.4-0.4-0.9-0.7-1.3c-0.2-0.5-0.4-1-0.6-1.4c-0.2-0.5-0.5-0.9-0.7-1.3l0,0l0,0l-0.1-0.1c0.1,0.1,0.2,0.2,0.3,0.4
		c0.1,0.1,0.2,0.3,0.2,0.4l0,0c0.1,0.1,0.1,0.3,0.2,0.4c0.1,0.1,0.2,0.3,0.2,0.4c0.1,0.1,0.2,0.2,0.3,0.3c0.1,0.1,0.4,0.2,0.6,0.1
		c0.1-0.1,0.2-0.2,0.3-0.4c0.4-1-0.2-2.2-0.1-3.3c0-0.4,0.1-0.9,0.1-1.3c0-0.2-0.1-0.7-0.5-0.7c-0.1,0-0.1,0-0.2,0
		c0-0.1,0-0.1-0.1-0.2c0-0.1-0.1-0.3-0.2-0.5c-0.2-0.3-0.4-0.6-0.6-0.9c-0.1-0.1-0.2-0.3-0.3-0.4c-0.1-0.1-0.4-0.3-0.4-0.4
		c0-0.8-0.7-1.4-1.4-1.8c-0.3-0.2-0.8-0.3-1.2-0.4c-0.4-0.1-0.9,0-1.2,0.3c-0.1,0.1-0.2,0.2-0.2,0.3c0,0-0.4,0-0.5,0
		c-0.2,0-0.3,0-0.5,0.1c-0.3,0.1-0.7,0.2-1,0.3c-0.7,0.2-1.3,0.6-1.9,1c-1,0.8-1.7,1.9-2.1,3.1c-0.3,1.2-0.3,2.4-0.2,3.6
		c0.1,0.6,0.2,1.2,0.4,1.8c0.1,0.5,0.4,1,0.2,1.5c-0.2-0.3-0.4-0.5-0.5-0.8c-0.9-1.1-2.1-1.9-3.5-2.2c-0.4-0.1-1-0.1-1.1,0.4l0,0.1
		c0,0.1,0,0.2,0,0.3c0,0.2,0.1,0.4,0.2,0.6c0.1,0.2,0.2,0.5,0.3,0.7c-0.1,0-0.1-0.1-0.2-0.1c-0.1,0-0.2,0-0.3,0.1
		C0,67.4,0,67.5,0,67.5l0,0c0,0.1,0,0.2,0,0.3c0,0.2,0.1,0.4,0.2,0.6c0.1,0.2,0.2,0.4,0.4,0.6C0.7,69.2,0.9,69.4,1.1,69.5z"/>
	<path class="st3" d="M6.4,46.1c0.1,0.2,0.2,0.4,0.3,0.6c0.1,0.2,0.2,0.4,0.4,0.6c0.1,0.2,0.3,0.3,0.4,0.5c0.1,0.1,0.3,0.3,0.5,0.4
		c0.1,0,0.1,0.1,0.2,0.1c0,0,0,0.1-0.1,0.1l0,0c-0.4,0.9,0,2.1,0.4,2.9c0.3,0.5,0.6,1,1.1,1.3c0.4,0.4,0.9,0.6,1.4,1
		c0.4,0.3,0.9,0.7,1.4,0.5c0.1,0,0.1,0,0.2-0.1c0.4-0.2,0.7-0.6,1.1-0.8c0.5-0.3,1-0.4,1.5-0.6c0.6-0.2,1.1-0.4,1.7-0.6
		c0.2-0.1,0.5-0.2,0.7-0.3c0.2-0.1,0.5-0.3,0.7-0.4l0.4-0.2c0,0.1,0,0.1,0.1,0.2l0,0c0,0.2,0.1,0.4,0.2,0.6c0.1,0.2,0.1,0.5,0.2,0.7
		c0,0.1,0.1,0.2,0.2,0.2c0.4,0.3,0.7-0.5,0.8-0.7l0.1-0.1l0-0.1c0-0.1,0.1-0.2,0.1-0.3l0-0.1l0,0l0,0c0,0.1,0.1,0.2,0.1,0.2
		c0.1,0.2,0.2,0.4,0.4,0.5c0.2,0.1,0.4,0.2,0.5,0.1c0.1,0,0.1-0.1,0.2-0.1c0.3-0.4,0.6-0.9,0.6-1.5c0-0.5-0.2-1-0.2-1.4
		c-0.1-0.5-0.1-1-0.1-1.5c0-0.5-0.2-1-0.3-1.5l0,0l0,0l0-0.2c0.1,0.1,0.1,0.3,0.1,0.4c0,0.2,0.1,0.3,0.1,0.5l0,0
		c0,0.1,0.1,0.3,0.1,0.4c0,0.2,0.1,0.3,0.1,0.4c0.1,0.1,0.1,0.2,0.2,0.3c0.1,0.1,0.3,0.3,0.5,0.3c0.1,0,0.3-0.1,0.4-0.3
		c0.6-0.9,0.6-2.1,0.9-3.1c0.1-0.4,0.4-0.8,0.5-1.2c0.1-0.2,0.1-0.7-0.2-0.8c-0.1,0-0.1,0-0.2,0c0-0.1,0-0.1,0-0.2
		c0-0.1,0-0.3,0-0.5c-0.1-0.4-0.2-0.7-0.3-1.1c-0.1-0.2-0.1-0.3-0.2-0.5c0-0.1-0.3-0.5-0.3-0.5c0.2-0.8-0.2-1.6-0.7-2.1
		c-0.3-0.3-0.6-0.6-1-0.8c-0.4-0.2-0.8-0.3-1.2-0.1c-0.1,0-0.2,0.1-0.3,0.2c0,0-0.4-0.1-0.5-0.1c-0.2,0-0.3-0.1-0.5-0.1
		c-0.4,0-0.7,0-1,0c-0.7,0-1.4,0.2-2.1,0.4c-0.6,0.2-1.2,0.5-1.7,0.9c-0.5,0.4-0.9,0.9-1.3,1.4c-0.3,0.5-0.6,1-0.9,1.6
		c-0.2,0.6-0.4,1.2-0.5,1.8c-0.1,0.6-0.2,1.2-0.2,1.8c0,0.5,0.1,1.1-0.2,1.5c-0.1-0.3-0.2-0.6-0.3-0.9c-0.5-1.3-1.4-2.5-2.6-3.1
		c-0.3-0.2-0.9-0.4-1.2,0.1l0,0.1c0,0.1-0.1,0.2-0.1,0.3c0,0.2,0,0.4,0,0.6c0,0.3,0.1,0.5,0.1,0.8c0,0-0.1-0.1-0.1-0.1
		c-0.1-0.1-0.2-0.1-0.3,0c0,0-0.1,0.1-0.1,0.2l0,0c0,0.1-0.1,0.2-0.1,0.3c0,0.2,0,0.4,0,0.6C6.3,45.6,6.3,45.9,6.4,46.1z"/>
	<path class="st0" d="M36.7,23.4c-0.2-0.3-0.4-0.7-0.8-1c-0.3-0.3-0.7-0.5-1.1-0.4c-0.1,0-0.2,0-0.3,0.1c0,0-0.3-0.2-0.4-0.3
		c-0.1-0.1-0.3-0.2-0.4-0.2c-0.3-0.1-0.6-0.3-1-0.4C32,21,31.3,20.9,30.6,21c-1.2,0.1-2.5,0.5-3.5,1.3c-1,0.7-1.7,1.7-2.3,2.8
		c-0.3,0.5-0.5,1.1-0.7,1.6c-0.2,0.5-0.2,1.1-0.7,1.4c0-0.3,0-0.6,0-0.9c0-1.4-0.6-2.8-1.5-3.8C21.5,23,21,22.6,20.6,23L20.5,23
		c-0.1,0.1-0.1,0.2-0.2,0.3c-0.1,0.2-0.2,0.4-0.2,0.5c-0.1,0.3-0.1,0.5-0.2,0.8c0-0.1-0.1-0.1-0.1-0.1c-0.1-0.1-0.2-0.1-0.3-0.1
		c-0.1,0-0.1,0.1-0.2,0.1l0,0c-0.1,0.1-0.1,0.2-0.2,0.3c-0.1,0.2-0.1,0.4-0.2,0.6c0,0.2,0,0.4,0,0.7c0,0.2,0,0.5,0.1,0.7
		c0,0.2,0.1,0.5,0.2,0.7c0.1,0.2,0.1,0.4,0.3,0.6c0.1,0.2,0.2,0.3,0.3,0.5c0,0.1,0.1,0.1,0.1,0.2c0,0-0.1,0.1-0.1,0.1l0,0
		c-0.7,0.7-0.6,2-0.5,2.9c0.1,0.6,0.3,1.1,0.6,1.6c0.3,0.5,0.7,0.9,1,1.4c0.3,0.4,0.6,0.9,1.2,0.9c0.1,0,0.1,0,0.2,0
		c0.4-0.1,0.8-0.3,1.3-0.5c0.5-0.1,1.1-0.1,1.6-0.1c0.6,0,1.2,0,1.8-0.1c0.3,0,0.5-0.1,0.8-0.1c0.3,0,0.5-0.1,0.8-0.1l0.4-0.1
		c0,0.1,0,0.2,0,0.2l0,0c0,0.2,0,0.4,0,0.6c0,0.2,0,0.5,0,0.7c0,0.1,0,0.2,0.1,0.3c0.3,0.4,0.8-0.2,1-0.4l0.1-0.1l0.1-0.1
		c0.1-0.1,0.1-0.2,0.2-0.3l0-0.1l0,0l0,0c0,0.1,0,0.2,0,0.3c0,0.2,0.1,0.4,0.2,0.6c0.1,0.2,0.3,0.3,0.5,0.2c0.1,0,0.1-0.1,0.2-0.1
		c0.2-0.1,0.4-0.3,0.6-0.5c0.2-0.2,0.3-0.4,0.4-0.7c0.1-0.4,0.2-1,0.2-1.4c0.1-0.5,0.2-1,0.4-1.5c0.1-0.5,0.2-1,0.2-1.5l0,0l0,0
		l0-0.2c0,0.1,0,0.3,0,0.5c0,0.2,0,0.3-0.1,0.5l0,0c0,0.1,0,0.3-0.1,0.4c0,0.2,0,0.3,0,0.4c0,0.1,0,0.3,0.1,0.4
		c0.1,0.1,0.2,0.4,0.4,0.4c0.1,0,0.3,0,0.5-0.1c0.9-0.6,1.2-1.9,1.9-2.7c0.3-0.3,0.6-0.6,0.8-1c0.1-0.2,0.3-0.6,0-0.8
		c0,0-0.1-0.1-0.2-0.1c0-0.1,0-0.1,0.1-0.2c0-0.1,0.1-0.3,0.1-0.5c0.1-0.4,0.1-0.7,0.1-1.1c0-0.2,0-0.3,0-0.5c0-0.1-0.1-0.5-0.1-0.6
		C37.2,25.1,37.1,24.2,36.7,23.4z"/>
	<path class="st1" d="M54.4,12.7c-0.2-0.4-0.5-0.7-1-0.8c-0.1,0-0.2,0-0.4,0c0,0-0.3-0.3-0.3-0.4c-0.1-0.1-0.2-0.2-0.4-0.4
		c-0.3-0.2-0.5-0.5-0.8-0.6c-0.6-0.4-1.2-0.7-1.9-0.9c-0.6-0.2-1.2-0.3-1.9-0.2c-0.6,0-1.3,0.1-1.9,0.3c-0.6,0.2-1.1,0.5-1.6,0.8
		c-0.5,0.3-1,0.7-1.4,1.1c-0.4,0.4-0.9,0.8-1.2,1.3c-0.3,0.4-0.6,1-1.1,1.1c0.1-0.3,0.2-0.6,0.3-0.9c0.4-1.4,0.3-2.8-0.3-4.1
		c-0.2-0.3-0.5-0.9-1-0.7l-0.1,0c-0.1,0-0.2,0.1-0.3,0.2C39.1,8.8,39,9,38.9,9.1c-0.1,0.2-0.3,0.5-0.4,0.7c0-0.1,0-0.1,0-0.2
		c0-0.1-0.1-0.2-0.3-0.2c-0.1,0-0.1,0-0.2,0.1l0,0c-0.1,0.1-0.2,0.1-0.2,0.2c-0.1,0.1-0.2,0.3-0.4,0.5c-0.1,0.2-0.2,0.4-0.3,0.6
		c-0.1,0.2-0.1,0.5-0.1,0.7c0,0.2,0,0.5,0,0.7c0,0.2,0,0.4,0.1,0.7c0,0.2,0.1,0.4,0.1,0.6c0,0.1,0,0.1,0.1,0.2c0,0-0.1,0-0.1,0.1
		l0,0c-0.8,0.5-1.2,1.7-1.3,2.6c-0.1,0.6,0,1.2,0.1,1.7c0.1,0.6,0.4,1.1,0.5,1.6c0.1,0.5,0.3,1,0.8,1.2c0.1,0,0.1,0,0.2,0.1
		c0.4,0.1,0.9-0.1,1.3-0.1c0.6,0,1.1,0.3,1.6,0.4c0.6,0.2,1.2,0.3,1.7,0.5c0.3,0.1,0.5,0.1,0.8,0.1c0.3,0,0.5,0.1,0.8,0.1l0.4,0
		c0,0.1,0,0.1-0.1,0.2l0,0c-0.1,0.2-0.2,0.4-0.2,0.6c-0.1,0.2-0.2,0.5-0.2,0.7c0,0.1,0,0.2,0,0.3c0.2,0.5,0.8,0,1.1-0.1l0.1-0.1
		l0.1-0.1c0.1-0.1,0.2-0.1,0.3-0.2l0,0l0,0l0,0c0,0.1,0,0.2,0,0.3c0,0.2,0,0.4,0,0.6c0.1,0.2,0.2,0.3,0.4,0.3c0.1,0,0.1,0,0.2,0
		c0.5-0.1,1.1-0.4,1.4-0.8c0.3-0.4,0.4-0.9,0.7-1.3c0.2-0.4,0.5-0.9,0.8-1.3c0.3-0.4,0.4-0.9,0.7-1.4l0,0l0,0l0.1-0.1
		c0,0.1-0.1,0.3-0.2,0.4c-0.1,0.2-0.1,0.3-0.2,0.4l0,0c-0.1,0.1-0.1,0.3-0.2,0.4c-0.1,0.2-0.1,0.3-0.1,0.4c0,0.1,0,0.3,0,0.4
		c0,0.1,0.1,0.4,0.3,0.5c0.1,0.1,0.3,0.1,0.5,0c0.5-0.2,0.9-0.5,1.3-0.9c0.4-0.4,0.8-0.8,1.2-1.1c0.4-0.3,0.8-0.4,1.1-0.7
		c0.2-0.2,0.5-0.5,0.3-0.8c0,0-0.1-0.1-0.1-0.1c0,0,0.1-0.1,0.1-0.1c0.1-0.1,0.2-0.3,0.3-0.4c0.2-0.3,0.3-0.7,0.4-1.1
		c0-0.2,0.1-0.3,0.1-0.5c0-0.1,0-0.5,0.1-0.6c0.6-0.5,0.8-1.4,0.7-2.2C54.8,13.5,54.7,13.1,54.4,12.7z"/>
	<path class="st2" d="M74.4,8.1C74.3,8.1,74.2,8,74,8c0,0-0.1-0.4-0.2-0.5c-0.1-0.2-0.1-0.3-0.2-0.4c-0.2-0.3-0.4-0.6-0.6-0.9
		c-0.4-0.6-1-1.1-1.6-1.4c-1-0.7-2.3-1.1-3.6-1.1c-1.2,0-2.4,0.4-3.5,0.9c-0.5,0.3-1.1,0.6-1.6,0.9c-0.4,0.3-0.8,0.7-1.4,0.7
		c0.2-0.3,0.4-0.5,0.6-0.7c0.8-1.2,1.2-2.6,1-4c-0.1-0.4-0.2-1-0.8-0.9l-0.1,0c-0.1,0-0.2,0.1-0.3,0.1c-0.2,0.1-0.4,0.2-0.5,0.3
		c-0.2,0.2-0.4,0.4-0.6,0.5c0-0.1,0-0.1,0-0.2c0-0.1-0.1-0.2-0.2-0.2c-0.1,0-0.1,0-0.2,0l0,0c-0.1,0-0.2,0.1-0.3,0.1
		c-0.2,0.1-0.3,0.2-0.5,0.4c-0.1,0.2-0.3,0.3-0.4,0.5c-0.1,0.2-0.3,0.4-0.3,0.6c-0.1,0.2-0.2,0.4-0.3,0.6c-0.1,0.2-0.1,0.4-0.2,0.7
		c0,0.2,0,0.4-0.1,0.6c0,0.1,0,0.1,0,0.2c0,0-0.1,0-0.1,0l0,0c-1,0.2-1.7,1.3-2.1,2.1c-0.2,0.5-0.4,1.1-0.5,1.6
		c-0.1,0.6,0,1.1,0,1.7c0,0.5,0,1.1,0.4,1.4c0.1,0,0.1,0.1,0.2,0.1c0.4,0.2,0.9,0.2,1.3,0.4c0.5,0.2,0.9,0.6,1.4,0.9
		c0.5,0.3,1,0.7,1.5,1c0.2,0.1,0.5,0.3,0.7,0.4c0.2,0.1,0.5,0.2,0.7,0.4l0.4,0.2c0,0.1-0.1,0.1-0.1,0.2l0,0
		c-0.1,0.1-0.3,0.3-0.4,0.5c-0.2,0.2-0.3,0.4-0.4,0.6c-0.1,0.1-0.1,0.2-0.1,0.3c0,0.5,0.8,0.3,1,0.3l0.1,0l0.1,0
		c0.1,0,0.2-0.1,0.3-0.1l0.1,0l0,0l0,0c0,0.1-0.1,0.2-0.1,0.2c-0.1,0.2-0.2,0.4-0.2,0.6c0,0.2,0.1,0.4,0.3,0.4c0.1,0,0.1,0,0.2,0
		c0.5,0,1.1-0.1,1.6-0.4c0.4-0.3,0.7-0.7,1-1c0.4-0.4,0.8-0.7,1.2-1c0.4-0.3,0.7-0.7,1.1-1.1l0,0l0,0l0.1-0.1
		c-0.1,0.1-0.2,0.2-0.3,0.4c-0.1,0.1-0.2,0.2-0.3,0.3l0,0c-0.1,0.1-0.2,0.2-0.3,0.3c-0.1,0.1-0.2,0.2-0.3,0.3
		c-0.1,0.1-0.1,0.2-0.2,0.4c0,0.1-0.1,0.4,0.1,0.6c0.1,0.1,0.2,0.2,0.5,0.2c1.1,0.1,2-0.8,3.1-1.1c0.4-0.1,0.9-0.1,1.3-0.3
		c0.2-0.1,0.6-0.3,0.5-0.7c0-0.1,0-0.1-0.1-0.2c0,0,0.1-0.1,0.1-0.1c0.1-0.1,0.2-0.2,0.4-0.4c0.3-0.3,0.5-0.6,0.7-0.9
		c0.1-0.1,0.2-0.3,0.3-0.4c0-0.1,0.2-0.5,0.3-0.5c0.7-0.3,1.2-1.1,1.3-1.9c0.1-0.4,0.1-0.9,0-1.3C74.9,8.7,74.8,8.3,74.4,8.1z"/>
	<path class="st3" d="M77.1,8.9c0.3,0.3,0.8,0.5,1.1,0.8c0.4,0.4,0.7,0.8,1,1.2c0.4,0.5,0.7,1,1.1,1.4c0.2,0.2,0.4,0.4,0.5,0.6
		c0.2,0.2,0.4,0.4,0.6,0.6l0.3,0.3c-0.1,0.1-0.1,0.1-0.2,0.1l0,0c-0.2,0.1-0.4,0.2-0.5,0.3c-0.2,0.1-0.4,0.3-0.6,0.4
		c-0.1,0.1-0.2,0.1-0.2,0.2c-0.1,0.4,0.7,0.5,0.9,0.6l0.1,0l0.1,0c0.1,0,0.2,0,0.4,0l0.1,0l0,0l0,0c-0.1,0.1-0.1,0.1-0.2,0.2
		c-0.1,0.1-0.3,0.3-0.4,0.5c-0.1,0.2,0,0.4,0.1,0.5c0.1,0,0.1,0.1,0.2,0.1c0.5,0.2,1.1,0.3,1.6,0.1c0.4-0.1,0.9-0.4,1.3-0.7
		c0.5-0.2,1-0.4,1.4-0.6c0.5-0.2,0.9-0.5,1.3-0.7l0,0l0,0l0.1-0.1c-0.1,0.1-0.2,0.2-0.4,0.3c-0.1,0.1-0.3,0.2-0.4,0.2l0,0
		c-0.1,0.1-0.3,0.1-0.4,0.2c-0.1,0.1-0.3,0.2-0.4,0.2c-0.1,0.1-0.2,0.2-0.3,0.3c-0.1,0.1-0.2,0.4-0.1,0.6c0.1,0.1,0.2,0.2,0.4,0.3
		c1,0.4,2.2-0.2,3.3-0.1c0.4,0,0.9,0.1,1.3,0.1c0.2,0,0.7-0.1,0.7-0.5c0-0.1,0-0.1,0-0.2c0.1,0,0.1,0,0.2-0.1c0.1,0,0.3-0.1,0.5-0.2
		c0.3-0.2,0.6-0.4,0.9-0.6c0.1-0.1,0.3-0.2,0.4-0.3c0.1-0.1,0.3-0.4,0.4-0.4c0.8,0,1.4-0.7,1.8-1.4c0.2-0.3,0.3-0.8,0.4-1.2
		c0.1-0.4,0-0.9-0.3-1.2c-0.1-0.1-0.2-0.2-0.3-0.2c0,0,0-0.4,0-0.5c0-0.2,0-0.3-0.1-0.5c-0.1-0.3-0.2-0.7-0.3-1
		c-0.2-0.7-0.6-1.3-1-1.9c-0.8-1-1.9-1.7-3.1-2.1c-1.2-0.3-2.4-0.3-3.6-0.2c-0.6,0.1-1.2,0.2-1.8,0.4c-0.5,0.1-1,0.4-1.5,0.2
		C84,5,84.3,4.8,84.5,4.6c1.1-0.9,1.9-2.1,2.2-3.5c0.1-0.4,0.1-1-0.4-1.1l-0.1,0c-0.1,0-0.2,0-0.3,0c-0.2,0-0.4,0.1-0.6,0.2
		c-0.2,0.1-0.5,0.2-0.7,0.3c0-0.1,0.1-0.1,0.1-0.2c0-0.1,0-0.2-0.1-0.3C84.4,0,84.3,0,84.3,0l0,0c-0.1,0-0.2,0-0.3,0
		c-0.2,0-0.4,0.1-0.6,0.2c-0.2,0.1-0.4,0.2-0.6,0.4c-0.2,0.1-0.4,0.3-0.5,0.5c-0.2,0.2-0.3,0.4-0.4,0.5c-0.1,0.2-0.2,0.4-0.4,0.6
		c-0.1,0.2-0.2,0.4-0.2,0.6c0,0.1,0,0.1-0.1,0.2c0,0-0.1,0-0.1,0l0,0c-0.5,0-1,0.1-1.4,0.4c-0.5,0.3-0.9,0.6-1.2,0.9
		c-0.4,0.4-0.7,0.9-0.9,1.4c-0.2,0.5-0.3,1.1-0.5,1.6c-0.2,0.5-0.4,1,0,1.5C77,8.8,77,8.8,77.1,8.9z"/>
	<path class="st0" d="M97.7,12.5c0.2,0.4,0.6,0.7,0.8,1.1c0.3,0.5,0.4,1,0.6,1.5c0.2,0.6,0.4,1.1,0.6,1.7c0.1,0.2,0.2,0.5,0.3,0.7
		c0.1,0.2,0.3,0.5,0.4,0.7l0.2,0.4c-0.1,0-0.1,0-0.2,0.1l0,0c-0.2,0-0.4,0.1-0.6,0.2c-0.2,0.1-0.5,0.1-0.7,0.2
		c-0.1,0-0.2,0.1-0.2,0.2c-0.3,0.4,0.5,0.7,0.7,0.8l0.1,0.1l0.1,0c0.1,0,0.2,0.1,0.3,0.1l0.1,0l0,0l0,0c-0.1,0-0.2,0.1-0.2,0.1
		c-0.2,0.1-0.4,0.2-0.5,0.4c-0.1,0.2-0.2,0.4-0.1,0.5c0,0.1,0.1,0.1,0.1,0.2c0.4,0.3,0.9,0.6,1.5,0.6c0.5,0,1-0.2,1.4-0.2
		c0.5-0.1,1-0.1,1.5-0.1c0.5,0,1-0.2,1.5-0.3l0,0l0,0l0.2,0c-0.1,0.1-0.3,0.1-0.4,0.1c-0.2,0-0.3,0.1-0.5,0.1l0,0
		c-0.1,0-0.3,0.1-0.4,0.1c-0.2,0-0.3,0.1-0.4,0.1c-0.1,0.1-0.2,0.1-0.3,0.2c-0.1,0.1-0.3,0.3-0.3,0.5c0,0.1,0.1,0.3,0.3,0.4
		c0.9,0.6,2.1,0.6,3.1,0.9c0.4,0.1,0.8,0.4,1.2,0.5c0.2,0.1,0.7,0.1,0.8-0.2c0-0.1,0-0.1,0-0.2c0.1,0,0.1,0,0.2,0c0.1,0,0.3,0,0.5,0
		c0.4-0.1,0.7-0.2,1.1-0.3c0.2-0.1,0.3-0.1,0.5-0.2c0.1,0,0.5-0.3,0.5-0.3c0.8,0.2,1.6-0.2,2.1-0.7c0.3-0.3,0.6-0.6,0.8-1
		c0.2-0.4,0.3-0.8,0.1-1.2c0-0.1-0.1-0.2-0.2-0.3c0,0,0.1-0.4,0.1-0.5c0-0.2,0.1-0.3,0.1-0.5c0-0.4,0-0.7,0-1c0-0.7-0.2-1.4-0.4-2.1
		c-0.2-0.6-0.5-1.2-0.9-1.7c-0.4-0.5-0.9-0.9-1.4-1.3c-0.5-0.3-1-0.6-1.6-0.9c-0.6-0.2-1.2-0.4-1.8-0.5c-0.6-0.1-1.2-0.2-1.8-0.2
		c-0.5,0-1.1,0.1-1.5-0.2c0.3-0.1,0.6-0.2,0.9-0.3c1.3-0.5,2.5-1.4,3.1-2.6c0.2-0.3,0.4-0.9-0.1-1.2l-0.1,0c-0.1,0-0.2-0.1-0.3-0.1
		c-0.2,0-0.4,0-0.6,0c-0.3,0-0.5,0.1-0.8,0.1c0,0,0.1-0.1,0.1-0.1c0.1-0.1,0.1-0.2,0-0.3c0,0-0.1-0.1-0.2-0.1l0,0
		c-0.1,0-0.2-0.1-0.3-0.1c-0.2,0-0.4,0-0.6,0c-0.2,0-0.4,0.1-0.6,0.2c-0.2,0.1-0.4,0.2-0.6,0.3c-0.2,0.1-0.4,0.2-0.6,0.4
		c-0.2,0.1-0.3,0.3-0.5,0.4c-0.1,0.1-0.3,0.3-0.4,0.5c0,0.1-0.1,0.1-0.1,0.2c0,0-0.1,0-0.1-0.1l0,0c-0.9-0.4-2.1,0-2.9,0.4
		c-0.5,0.3-1,0.6-1.3,1.1c-0.4,0.4-0.6,0.9-1,1.4c-0.3,0.4-0.7,0.9-0.5,1.4C97.7,12.4,97.7,12.4,97.7,12.5z"/>
	<path class="st1" d="M115.2,31.4c0.1,0.2,0.3,0.4,0.5,0.6c0.2,0.2,0.4,0.3,0.7,0.4c0.4,0.1,1,0.2,1.4,0.2c0.5,0.1,1,0.2,1.5,0.4
		c0.5,0.1,1,0.2,1.5,0.2l0,0l0,0l0.2,0c-0.1,0-0.3,0-0.5,0c-0.2,0-0.3,0-0.5-0.1l0,0c-0.1,0-0.3,0-0.4-0.1c-0.2,0-0.3,0-0.4,0
		c-0.1,0-0.3,0-0.4,0.1c-0.1,0.1-0.4,0.2-0.4,0.4c0,0.1,0,0.3,0.1,0.5c0.6,0.9,1.9,1.2,2.7,1.9c0.3,0.3,0.6,0.6,1,0.8
		c0.2,0.1,0.6,0.3,0.8,0c0,0,0.1-0.1,0.1-0.2c0.1,0,0.1,0,0.2,0.1c0.1,0,0.3,0.1,0.5,0.1c0.4,0.1,0.7,0.1,1.1,0.1c0.2,0,0.3,0,0.5,0
		c0.1,0,0.5-0.1,0.6-0.1c0.7,0.4,1.6,0.3,2.3-0.1c0.3-0.2,0.7-0.4,1-0.8c0.3-0.3,0.5-0.7,0.4-1.1c0-0.1,0-0.2-0.1-0.3
		c0,0,0.2-0.3,0.3-0.4c0.1-0.1,0.2-0.3,0.2-0.4c0.1-0.3,0.3-0.6,0.4-1c0.2-0.7,0.3-1.4,0.3-2.1c-0.1-1.2-0.5-2.5-1.3-3.5
		c-0.7-1-1.7-1.7-2.8-2.3c-0.5-0.3-1.1-0.5-1.6-0.7c-0.5-0.2-1.1-0.2-1.4-0.7c0.3,0,0.6,0,0.9,0c1.4,0,2.8-0.6,3.8-1.5
		c0.3-0.3,0.7-0.7,0.3-1.2l-0.1-0.1c-0.1-0.1-0.2-0.1-0.3-0.2c-0.2-0.1-0.4-0.2-0.5-0.2c-0.3-0.1-0.5-0.1-0.8-0.2
		c0.1,0,0.1-0.1,0.1-0.1c0.1-0.1,0.1-0.2,0.1-0.3c0-0.1-0.1-0.1-0.1-0.2l0,0c-0.1-0.1-0.2-0.1-0.3-0.2c-0.2-0.1-0.4-0.1-0.6-0.2
		c-0.2,0-0.4,0-0.7,0c-0.2,0-0.5,0-0.7,0.1c-0.2,0-0.5,0.1-0.7,0.2c-0.2,0.1-0.4,0.1-0.6,0.3c-0.2,0.1-0.3,0.2-0.5,0.3
		c-0.1,0-0.1,0.1-0.2,0.1c0,0-0.1-0.1-0.1-0.1l0,0c-0.7-0.7-2-0.6-2.9-0.5c-0.6,0.1-1.1,0.3-1.6,0.6c-0.5,0.3-0.9,0.7-1.4,1
		c-0.4,0.3-0.9,0.6-0.9,1.2c0,0.1,0,0.1,0,0.2c0.1,0.4,0.3,0.8,0.5,1.3c0.1,0.5,0.1,1.1,0.1,1.6c0,0.6,0,1.2,0.1,1.8
		c0,0.3,0.1,0.5,0.1,0.8c0,0.3,0.1,0.5,0.1,0.8l0.1,0.4c-0.1,0-0.2,0-0.2,0l0,0c-0.2,0-0.4,0-0.6,0c-0.2,0-0.5,0-0.7,0
		c-0.1,0-0.2,0-0.3,0.1c-0.4,0.3,0.2,0.8,0.4,1l0.1,0.1l0.1,0.1c0.1,0.1,0.2,0.1,0.3,0.2l0.1,0l0,0l0,0c-0.1,0-0.2,0-0.3,0
		c-0.2,0-0.4,0.1-0.6,0.2c-0.2,0.1-0.3,0.3-0.2,0.5C115.2,31.3,115.2,31.4,115.2,31.4z"/>
	<path class="st2" d="M130.9,38.8c0,0.6-0.3,1.1-0.4,1.6c-0.2,0.6-0.3,1.2-0.5,1.7c-0.1,0.3-0.1,0.5-0.1,0.8c0,0.3-0.1,0.5-0.1,0.8
		l0,0.4c-0.1,0-0.1,0-0.2-0.1l0,0c-0.2-0.1-0.4-0.2-0.6-0.2c-0.2-0.1-0.5-0.2-0.7-0.2c-0.1,0-0.2,0-0.3,0c-0.5,0.2,0,0.8,0.1,1.1
		l0.1,0.1l0.1,0.1c0.1,0.1,0.1,0.2,0.2,0.3l0,0l0,0l0,0c-0.1,0-0.2,0-0.3,0c-0.2,0-0.4,0-0.6,0c-0.2,0.1-0.3,0.2-0.3,0.4
		c0,0.1,0,0.1,0,0.2c0.1,0.5,0.4,1.1,0.8,1.4c0.4,0.3,0.9,0.4,1.3,0.7c0.4,0.2,0.9,0.5,1.3,0.8c0.4,0.3,0.9,0.4,1.4,0.7l0,0l0,0
		l0.1,0.1c-0.1,0-0.3-0.1-0.4-0.2c-0.2-0.1-0.3-0.1-0.4-0.2l0,0c-0.1-0.1-0.3-0.1-0.4-0.2c-0.2-0.1-0.3-0.1-0.4-0.1
		c-0.1,0-0.3,0-0.4,0c-0.1,0-0.4,0.1-0.5,0.3c-0.1,0.1-0.1,0.3,0,0.5c0.2,0.5,0.5,0.9,0.9,1.3c0.4,0.4,0.8,0.8,1.1,1.2
		c0.3,0.4,0.4,0.8,0.7,1.1c0.2,0.2,0.5,0.5,0.8,0.3c0,0,0.1-0.1,0.1-0.1c0,0,0.1,0.1,0.1,0.1c0.1,0.1,0.3,0.2,0.4,0.3
		c0.3,0.2,0.7,0.3,1.1,0.4c0.2,0,0.3,0.1,0.5,0.1c0.1,0,0.5,0,0.6,0.1c0.5,0.6,1.4,0.8,2.2,0.7c0.4-0.1,0.8-0.2,1.2-0.4
		c0.4-0.2,0.7-0.5,0.8-1c0-0.1,0-0.2,0-0.4c0,0,0.3-0.3,0.4-0.3c0.1-0.1,0.2-0.2,0.4-0.4c0.2-0.3,0.5-0.5,0.6-0.8
		c0.4-0.6,0.7-1.2,0.9-1.9c0.2-0.6,0.3-1.2,0.2-1.9c0-0.6-0.1-1.3-0.3-1.9c-0.2-0.6-0.5-1.1-0.8-1.6c-0.3-0.5-0.7-1-1.1-1.4
		c-0.4-0.4-0.8-0.9-1.3-1.2c-0.4-0.3-1-0.6-1.1-1.1c0.3,0.1,0.6,0.2,0.9,0.3c1.4,0.4,2.8,0.3,4.1-0.3c0.3-0.2,0.9-0.5,0.7-1l0-0.1
		c0-0.1-0.1-0.2-0.2-0.3c-0.2-0.2-0.3-0.3-0.5-0.4c-0.2-0.1-0.5-0.3-0.7-0.4c0.1,0,0.1,0,0.2,0c0.1,0,0.2-0.1,0.2-0.3
		c0-0.1,0-0.1-0.1-0.2l0,0c-0.1-0.1-0.1-0.2-0.2-0.2c-0.1-0.1-0.3-0.2-0.5-0.4c-0.2-0.1-0.4-0.2-0.6-0.3c-0.2-0.1-0.5-0.1-0.7-0.1
		c-0.2,0-0.5,0-0.7,0c-0.2,0-0.4,0-0.7,0.1c-0.2,0-0.4,0.1-0.6,0.1c-0.1,0-0.1,0-0.2,0.1c0,0,0-0.1-0.1-0.1l0,0
		c-0.5-0.8-1.7-1.2-2.6-1.3c-0.6-0.1-1.2,0-1.7,0.1c-0.6,0.1-1.1,0.4-1.6,0.5c-0.5,0.1-1,0.3-1.2,0.8c0,0.1,0,0.1-0.1,0.2
		C130.7,37.9,130.9,38.3,130.9,38.8z"/>
	<path class="st3" d="M141.5,55.7c-0.5,0-1.1,0-1.4,0.4c0,0.1-0.1,0.1-0.1,0.2c-0.2,0.4-0.2,0.9-0.4,1.3c-0.2,0.5-0.6,0.9-0.9,1.4
		c-0.3,0.5-0.7,1-1,1.5c-0.1,0.2-0.3,0.5-0.4,0.7c-0.1,0.2-0.2,0.5-0.4,0.7l-0.2,0.4c-0.1,0-0.1-0.1-0.2-0.1l0,0
		c-0.1-0.1-0.3-0.3-0.5-0.4c-0.2-0.2-0.4-0.3-0.6-0.4c-0.1-0.1-0.2-0.1-0.3-0.1c-0.5,0-0.3,0.8-0.3,1l0,0.1l0,0.1
		c0,0.1,0.1,0.2,0.1,0.3l0,0.1l0,0l0,0c-0.1,0-0.2-0.1-0.2-0.1c-0.2-0.1-0.4-0.2-0.6-0.2c-0.2,0-0.4,0.1-0.4,0.3c0,0.1,0,0.1,0,0.2
		c0,0.5,0.1,1.1,0.4,1.6c0.3,0.4,0.7,0.7,1,1c0.4,0.4,0.7,0.8,1,1.2c0.3,0.4,0.7,0.7,1.1,1.1l0,0l0,0l0.1,0.1
		c-0.1-0.1-0.2-0.2-0.4-0.3c-0.1-0.1-0.2-0.2-0.3-0.3l0,0c-0.1-0.1-0.2-0.2-0.3-0.3c-0.1-0.1-0.2-0.2-0.3-0.3
		c-0.1-0.1-0.2-0.1-0.4-0.2c-0.1,0-0.4-0.1-0.6,0.1c-0.1,0.1-0.2,0.2-0.2,0.5c-0.1,1.1,0.8,2,1.1,3.1c0.1,0.4,0.1,0.9,0.3,1.3
		c0.1,0.2,0.3,0.6,0.7,0.5c0.1,0,0.1,0,0.2-0.1c0,0,0.1,0.1,0.1,0.1c0.1,0.1,0.2,0.2,0.4,0.4c0.3,0.3,0.6,0.5,0.9,0.7
		c0.1,0.1,0.3,0.2,0.4,0.3c0.1,0,0.5,0.2,0.5,0.3c0.3,0.7,1.1,1.2,1.9,1.3c0.4,0.1,0.9,0.1,1.3,0c0.4-0.1,0.8-0.3,1-0.7
		c0.1-0.1,0.1-0.2,0.1-0.3c0,0,0.4-0.1,0.5-0.2c0.2-0.1,0.3-0.1,0.4-0.2c0.3-0.2,0.6-0.4,0.9-0.6c0.6-0.4,1.1-1,1.4-1.6
		c0.7-1,1.1-2.3,1.1-3.6c0-1.2-0.4-2.4-0.9-3.5c-0.3-0.5-0.6-1.1-0.9-1.6c-0.3-0.4-0.7-0.8-0.7-1.4c0.3,0.2,0.5,0.4,0.7,0.6
		c1.2,0.8,2.6,1.2,4,1c0.4-0.1,1-0.2,0.9-0.8l0-0.1c0-0.1-0.1-0.2-0.1-0.3c-0.1-0.2-0.2-0.4-0.3-0.5c-0.2-0.2-0.4-0.4-0.5-0.6
		c0.1,0,0.1,0,0.2,0c0.1,0,0.2-0.1,0.2-0.2c0-0.1,0-0.1,0-0.2l0,0c0-0.1-0.1-0.2-0.1-0.3c-0.1-0.2-0.2-0.3-0.4-0.5
		c-0.2-0.1-0.3-0.3-0.5-0.4c-0.2-0.1-0.4-0.3-0.6-0.3c-0.2-0.1-0.4-0.2-0.6-0.3c-0.2-0.1-0.4-0.1-0.7-0.2c-0.2,0-0.4,0-0.6-0.1
		c-0.1,0-0.1,0-0.2,0c0,0,0-0.1,0-0.1l0,0c-0.2-1-1.3-1.7-2.1-2.1c-0.5-0.2-1.1-0.4-1.6-0.5C142.7,55.7,142.1,55.8,141.5,55.7z"/>
</g>
</svg>
