<?xml version="1.0" encoding="utf-8"?>
<!-- Generator: Adobe Illustrator 23.0.4, SVG Export Plug-In . SVG Version: 6.00 Build 0)  -->
<svg version="1.1" id="Bunny1" xmlns="http://www.w3.org/2000/svg" xmlns:xlink="http://www.w3.org/1999/xlink" x="0px" y="0px"
	 viewBox="0 0 486.6 421.7" style="enable-background:new 0 0 486.6 421.7;" xml:space="preserve">
<style type="text/css">
	#Bunny1 .st0{fill:none;}
	#Bunny1 .st1{fill:#7FCADB;}
	#Bunny1 .st2{fill:#E2C374;}
</style>
<g>
	<path class="st0" d="M188.2,166.8c-9,9.9-16.1,21.4-20.9,34.2c-1.3,3.6-2.5,7.3-3.4,11.1c-0.8,3.3-1.5,6.6-2,9.9
		c-0.7,5-1.1,10.1-1.1,15.3c0,0.8,0,1.6,0.1,2.3c0.1,4.8,0.5,9.5,1.2,14.1c1.2,7.4,3.1,14.4,5.7,21.2c1.5,4,3.3,7.9,5.3,11.6
		c1.7,3.1,3.5,6.2,5.5,9.1c2.5,3.7,5.3,7.3,8.3,10.7c1.7,2,3.6,3.9,5.5,5.8c3.6,3.5,7.3,6.7,11.4,9.7c2.4,1.8,5,3.5,7.6,5.1
		c4.7,2.9,9.7,5.4,14.9,7.5c3.2,1.3,6.5,2.5,9.8,3.4c2.4,0.7,4.8,1.3,7.2,1.9c4.3,0.9,8.7,1.6,13.2,2c3.1,0.3,6.2,0.4,9.3,0.4
		c3,0,6-0.2,9-0.4c4.5-0.4,8.9-1,13.2-2c2.5-0.5,5-1.2,7.5-1.9c3.2-1,6.4-2.1,9.5-3.3c5.2-2.1,10.3-4.6,15-7.5
		c2.6-1.6,5.1-3.3,7.6-5.1c3.9-2.8,7.6-5.9,11-9.3c2.1-2,4.1-4.1,6-6.3c2.9-3.3,5.6-6.8,8.1-10.5c2-2.9,3.8-6,5.5-9.1
		c2.1-3.8,3.9-7.8,5.4-11.9c2.7-7,4.7-14.4,5.8-22c0.7-4.5,1-9.2,1.1-13.9c0-0.6,0-1.2,0-1.8c0-5.4-0.4-10.6-1.2-15.8
		c-0.5-3.2-1.1-6.4-1.9-9.5c-1-3.9-2.1-7.7-3.5-11.4c-4.8-12.7-11.9-24.3-20.9-34.1c-2.1-2.3-4.4-4.6-6.7-6.7
		c-8.5-7.7-18.2-14.1-28.9-18.7c-2.8-1.2-5.6-2.3-8.5-3.2c-0.6-0.2-1.2-0.4-1.7-0.6c-3.8-1.2-7.7-2.2-11.7-2.9
		c-2.1-0.4-4.3-0.7-6.5-1c-3.2-0.4-6.5-0.7-9.8-0.8c-1.1,0-2.2-0.1-3.3-0.1c-1.2,0-2.4,0.1-3.6,0.1c-3.3,0.1-6.6,0.4-9.8,0.8
		c-2.2,0.3-4.4,0.6-6.5,1c-4,0.8-7.9,1.8-11.7,3c-0.6,0.2-1.1,0.4-1.6,0.6c-2.9,1-5.7,2.1-8.5,3.3c-10.7,4.7-20.4,11-28.9,18.8
		C192.6,162.2,190.3,164.5,188.2,166.8z"/>
	<path class="st1" d="M278.8,133.4c2.2,0.3,4.4,0.6,6.5,1l-3.5-6.8L278.8,133.4z"/>
	<path class="st1" d="M200.5,328.1l3.2-6.2c-4-2.9-7.8-6.2-11.4-9.7L200.5,328.1z"/>
	<path class="st1" d="M245.7,134.5c2.2-0.4,4.3-0.8,6.5-1l-3-5.8L245.7,134.5z"/>
	<path class="st1" d="M256.3,341.8l9.2,17.7l9.2-17.7c-3,0.3-6,0.4-9,0.4C262.5,342.2,259.4,342,256.3,341.8z"/>
	<path class="st1" d="M205.6,400.8L205.6,400.8h-10.2h0l-11.1-21.6l-11.1,21.6l0,0h0h-10.2h0l0,0l-11.1-21.6l-11.1,21.6h0h-8.8
		c-0.8,1.4-1.5,2.8-2,4.2c-0.6,1.8-0.8,3.5-0.6,5.1l2.7,5.1c0.7,0.6,1.4,1.2,2.4,1.7c1.1,0.6,2.3,1,3.4,1.3l9.1-17.5h0h10.2h0
		l10.7,20.7c0.3,0,0.6,0,0.9,0l10.7-20.7h0h10.2h0l6,11.7c5.1-2.9,10.1-6.2,15.1-9.4l1.2-2.3h0h2.4c1.7-1.1,3.4-2.1,5.1-3.1
		c1.8-1.1,3.7-2.1,5.5-3.1l-8-15.4L205.6,400.8z"/>
	<path class="st1" d="M373.1,391.2c3.8-0.5,7.5-1.2,11.2-2.2l-5-9.8L373.1,391.2z"/>
	<path class="st1" d="M400.6,149.2h-10.2h0l-11.1-21.6l-11.1,21.6l0,0h0h-10.2h0l0,0l-11.1-21.6l-11.1,21.6h0h-10.2h0l-11.1-21.6
		l-7,13.5c10.7,4.6,20.4,11,28.9,18.7l5.5-10.7h0h10.2h0l11.1,21.6l11.1-21.6h0h10.2h0l11.2,21.6l11.2-21.6h0h10.2h0l11.1,21.6
		l5.5-10.6c-3-3.8-6.1-7.5-9.4-11H423h0l0,0l-1.3-2.6c-4.2-4.3-8.6-8.5-13.2-12.4L400.6,149.2L400.6,149.2z"/>
	<path class="st1" d="M16.6,212.1h10.2h0l11.1,21.6l11.1-21.6h0h10.2h0l11.2,21.6l11.2-21.6h0h10.2h0l11.1,21.6l11.1-21.6h0h10.2h0
		l11.2,21.6l11.2-21.6h0h10.2h0l5.1,9.9c0.5-3.4,1.2-6.7,2-9.9h-1h0l0,0l-11.1-21.6l-11.1,21.6h0h-10.2h0l-11.1-21.6l-11.1,21.6l0,0
		h0H97.9h0l0,0l-11.1-21.6l-11.1,21.6h0H65.4h0l-11.1-21.6L43,212.1l0,0h0H32.9h0l0,0l-11.1-21.6l-11.1,21.6h0H0.4h0l-0.2-0.4
		c-0.5,6,0.6,12,4.5,17.2c0.6,0.9,1.3,1.7,2,2.5L16.6,212.1L16.6,212.1z"/>
	<path class="st1" d="M205.6,54.9L205.6,54.9h-10.2h0l-11.1-21.6l-11.1,21.6l0,0h0h-10.2h0l0,0l-11.1-21.6l-11.1,21.6h0h-10.2h0
		L121,36.7c-3,4.2-5.7,8.5-8.2,12.8c-2.5,4.3-4.8,9.1-7.1,14.6c-1.3,3.2-2.5,6.8-3.6,10.8l0.8,1.6l11.1-21.6h0h10.2h0l11.2,21.6
		l11.2-21.6h0h10.2h0L168,76.5l11.1-21.6h0h10.2h0l11.2,21.6l11.2-21.6h0h3.3c1.5-6.1,2.6-12.3,3.3-18.6l-1.5-2.9L205.6,54.9z"/>
	<path class="st1" d="M338,396.2c4.1-1,8.1-1.8,12.2-2.4c1.3-0.2,2.6-0.3,3.8-0.5l-7.2-14L338,396.2z"/>
	<path class="st1" d="M335.2,99c-3.4-0.7-6.7-1.2-10.1-1.6l5.5,10.6L335.2,99z"/>
	<path class="st1" d="M168,13.6l2.4-4.6c-0.5-0.9-1.3-1.8-2.4-2.3c-1.2-0.6-2.5-0.8-4-0.9L168,13.6z"/>
	<path class="st1" d="M330.5,328.1l7.9-15.3c-3.5,3.3-7.1,6.4-11,9.3L330.5,328.1z"/>
	<path class="st1" d="M363.4,107.3c-0.3-0.1-0.5-0.2-0.8-0.3l0.5,0.9L363.4,107.3z"/>
	<path class="st1" d="M115.6,386.2c2.8,0.4,5.5,0.7,7.7,0.8l-4-7.8L115.6,386.2z"/>
	<path class="st1" d="M455.4,212.1l-11.1-21.6l-11.1,21.6l0,0h0H423h0l0,0l-11.1-21.6l-11.1,21.6h0h-10.2h0l-11.1-21.6l-11.1,21.6
		l0,0h0h-0.8c0.8,3.1,1.4,6.3,1.9,9.5l4.9-9.5h0h10.2h0l11.2,21.6l11.2-21.6h0h10.2h0l11.1,21.6l11.1-21.6h0h10.2h0l11.2,21.6
		l9.8-18.9c-0.4-0.2-0.7-0.5-1.1-0.7c-1.4-0.8-2.9-1.4-4.4-2H455.4L455.4,212.1z"/>
	<path class="st1" d="M465.7,275L465.7,275h-10.2h0l-11.1-21.6L433.2,275l0,0h0H423h0l0,0l-11.1-21.6L400.7,275h0h-10.2h0
		l-11.1-21.6L368.1,275l0,0h0h-4.7c-1.6,4.1-3.4,8.1-5.4,11.9l5,9.7l11.1-21.6h0h10.2h0l11.2,21.6l11.2-21.6h0h10.2h0l11.1,21.6
		l11.1-21.6h0h10.2h0l11.2,21.6l11.2-21.6h0h10.2h0l1.4,2.8c0.6-2.2,1.2-4.5,1.6-6.7c0.1-0.5,0.2-1,0.2-1.5l-8.4-16.2L465.7,275z"/>
	<path class="st1" d="M465.7,306.5L465.7,306.5h-10.2h0l-11.1-21.6l-11.1,21.6l0,0h0H423h0l0,0l-11.1-21.6l-11.1,21.6h0h-10.2h0
		l-11.1-21.6l-11.1,21.6l0,0h0h-10.2h0l0,0l-5.4-10.4c-2.5,3.7-5.2,7.1-8.1,10.5h7.5h0L363,328l11.1-21.6h0h10.2h0l11.2,21.6
		l11.2-21.6h0h10.2h0l11.1,21.6l11.1-21.6h0h10.2h0l4.3,8.3c11.6-4.9,20-14.4,25.4-25.6l-2.2-4.3L465.7,306.5z"/>
	<path class="st1" d="M146.7,420.4c3.5,0.6,7.1,1,10.7,1.2l-5.7-10.9L146.7,420.4z"/>
	<path class="st1" d="M146.6,337.9L146.6,337.9h10.2h0l11.1,21.6l11.1-21.6h0h10.2h0l11.2,21.6l11.2-21.6h0h10.2h0l11.1,21.6
		l10.2-19.7c-2.4-0.5-4.8-1.2-7.2-1.9h-8h0l0,0l-1.8-3.4c-5.2-2.1-10.2-4.6-14.9-7.5l-5.6,10.9h0h-10.2h0l-11.1-21.6l-11.1,21.6l0,0
		h0h-10.2h0l0,0l-11.1-21.6l-11.1,21.6h0h-10.2h0l-11.1-21.6l-5.7,11.1c4.8,3.8,9.8,7.4,14.8,10.8c3.1,2.1,6.2,4.2,9.4,6.3
		c-1.7,1.4-3,2.4-4.2,3.4c0,0,0.3-0.1,0.3-0.1c-1.1,0.5-2.3,1.2-3.4,1.9l5.1,9.9L146.6,337.9z"/>
	<path class="st1" d="M465.7,243.6L465.7,243.6h-10.2h0L444.3,222l-11.1,21.6l0,0h0H423h0l0,0L411.8,222l-11.1,21.6h0h-10.2h0
		L379.3,222l-8.9,17.2c-0.1,4.7-0.4,9.3-1.1,13.9l4.9-9.5h0h10.2h0l11.2,21.6l11.2-21.6h0h10.2h0l11.1,21.6l11.1-21.6h0h10.2h0
		l11.2,21.6l11.2-21.6h0h10.2h0l4.6,8.9c-0.1-4.3-0.4-8.6-1.2-12.8c-0.2-0.8-0.4-1.6-0.5-2.3l-7.9-15.4L465.7,243.6z"/>
	<path class="st1" d="M114.1,306.5h10.2h0l11.2,21.6l11.2-21.6h0h10.2h0L168,328l11.1-21.6h0h7.7c-3-3.4-5.7-6.9-8.3-10.7l-5.5,10.7
		l0,0h0h-10.2h0l0,0l-11.1-21.6l-11.1,21.6h0h-10.2h0l-11.1-21.6l-11.1,21.6l0,0h0H97.9h0l0,0l-11.1-21.6l-6.5,12.5
		c3,3.1,6,6.1,9.1,9.1h2.4h0l2.3,4.5c0.6,0.6,1.3,1.2,1.9,1.8c3.3,3.1,6.8,6,10.2,8.9L114.1,306.5L114.1,306.5z"/>
	<path class="st1" d="M401.1,368.5c0.8-0.4,1.6-0.8,2.4-1.3c3.4-2,7-4.4,11.2-7.8c0.7-0.6,1.4-1.2,2.2-1.9l-5-9.7L401.1,368.5z"/>
	<path class="st1" d="M179.7,419.5c1.8-0.5,3.7-1.1,5.4-1.8c0.8-0.3,1.5-0.7,2.2-1l-3.1-6L179.7,419.5z"/>
	<path class="st1" d="M390.4,369.4l-11.1-21.6l-11.1,21.6l0,0h0h-10.2h0l0,0l-11.1-21.6l-11.1,21.6h0h-10.2h0l-11.1-21.6l-11.1,21.6
		l0,0h0h-10.2h0l0,0l-6.1-11.9c-1,0.9-2.1,1.8-3.3,2.7c-3.4,2.6-6.8,5-10.2,7.3l-0.2,0.2c-0.8,0.5-1.6,1.1-2.4,1.7l0,0.1h0h0
		c-2.4,1.6-4.7,3.3-7,5c-1.8,1.3-3.3,2.6-4.7,3.7l6.6,12.8l11.2-21.6h0h10.2h0l11.1,21.6l11.1-21.6h0h10.2h0l11.2,21.6l11.2-21.6h0
		h10.2h0l11.1,21.6l11.1-21.6h0h10.2h0l8.5,16.5c5-2.6,9.4-6.5,8.1-12.4c-0.3-1.3-0.8-2.6-1.7-4.1c0,0,0.1,0,0.1,0H390.4
		L390.4,369.4z"/>
	<path class="st1" d="M81.6,275h10.2h0l11.1,21.6l11.1-21.6h0h10.2h0l11.2,21.6l11.2-21.6h0h10.2h0l11.1,21.6l5.1-9.9
		c-2-3.7-3.8-7.6-5.3-11.6h-4.9h0l0,0l-11.1-21.6L140.6,275h0h-10.2h0l-11.1-21.6L108.1,275l0,0h0H97.9h0l0,0l-11.1-21.6L75.6,275h0
		H65.4h0l-11.1-21.6l-4.7,9c5.2,5.7,10,11.8,15.2,17.8c2.9,3.4,5.9,6.8,9,10.1L81.6,275L81.6,275z"/>
	<path class="st1" d="M433.2,180.7L433.2,180.7H423h0l0,0l-11.1-21.6l-11.1,21.6h0h-10.2h0l-11.1-21.6l-11.1,21.6l0,0h0h-10.2h0l0,0
		l-11.1-21.6l-3.9,7.5c9,9.8,16.2,21.4,20.9,34.1l10.3-20h0h10.2h0l11.2,21.6l11.2-21.6h0h10.2h0l11.1,21.6l11.1-21.6h0h8.4
		c-2.5-4.2-5.2-8.4-8-12.4L433.2,180.7L433.2,180.7z"/>
	<path class="st1" d="M49.1,243.6h10.2h0l11.2,21.6l11.2-21.6h0h10.2h0l11.1,21.6l11.1-21.6h0h10.2h0l11.2,21.6l11.2-21.6h0h10.2h0
		l5.3,10.2c-0.7-4.6-1.1-9.3-1.2-14.1l-9.2-17.7l-11.1,21.6h0h-10.2h0L119.2,222l-11.1,21.6l0,0h0H97.9h0l0,0L86.7,222l-11.1,21.6h0
		H65.4h0L54.2,222L43,243.6l0,0h0H32.9h0l0,0L21.7,222l-7.9,15.3c3.6,2.3,7.4,4.3,11.3,6.3h1.7h0l0.7,1.3c3.2,1.7,6.4,3.5,9.2,5.6
		c2.2,1.6,4.2,3.4,6.2,5.2L49.1,243.6L49.1,243.6z"/>
	<path class="st1" d="M433.2,337.9L433.2,337.9L433.2,337.9l-10.2,0h0l0,0l-11.1-21.6l-11.1,21.6h0h-10.2h0l-11.1-21.6l-11.1,21.6
		l0,0h0h-10.2h0l0,0l-11.1-21.6l-11.1,21.6h0h-10.2h0l-5.6-10.8c-4.8,2.9-9.8,5.4-15,7.5l-1.7,3.3l0,0h0h-7.8
		c-2.5,0.7-4.9,1.4-7.5,1.9l10.1,19.6l11.1-21.6h0h10.2h0l11.2,21.6l11.2-21.6h0h10.2h0l11.1,21.6l11.1-21.6h0h10.2h0l11.2,21.6
		l11.2-21.6h0h10.2h0l6.8,13.2c3.9-3.9,7.6-7.9,11-12.2c2.7-3.3,5.2-6.7,7.6-10.2c0.8-1.2,2.5-4.9,4.2-8l-2.3-4.4L433.2,337.9z"/>
	<path class="st1" d="M16.6,180.7L16.6,180.7h10.2h0l11.1,21.6l11.1-21.6h0h10.2h0l11.2,21.6l11.2-21.6h0h10.2h0l11.1,21.6
		l11.1-21.6h0h10.2h0l11.2,21.6l11.2-21.6h0h10.2h0l10.5,20.3c4.7-12.8,11.9-24.3,20.9-34.2l-4-7.7l-11.1,21.6l0,0h0h-10.2h0l0,0
		l-11.1-21.6l-11.1,21.6h0h-10.2h0l-11.1-21.6l-11.1,21.6l0,0h0H97.9h0l0,0l-11.1-21.6l-11.1,21.6h0H65.4h0l-11.1-21.6L43,180.7l0,0
		h0H32.9h0l0,0l-11.1-21.6l-11.1,21.6h0H9.2c-1.2,4.2-2.4,8.4-4.1,12.6c-0.6,1.6-1.3,3.2-1.8,4.9l2.2,4.2L16.6,180.7z"/>
	<path class="st1" d="M207.4,0.3c-0.4-0.1-0.8-0.2-1.3-0.2C205.5,0,205,0,204.4,0c-2.2,0-4.5,0.4-7.3,1.3c-0.9,0.3-1.7,0.6-2.5,0.9
		l5.9,11.4L207.4,0.3z"/>
	<path class="st1" d="M260.4,369.4l-11.1-21.6l-11.1,21.6l0,0h0h-10.2h0l0,0l-11.1-21.6l-11.1,21.6h0h-10.2h0l-11.1-21.6l-11.1,21.6
		l0,0h0h-10.2h0l0,0l-11.1-21.6l-11.1,21.6h0h-10.2h0l-7.3-14.1c-0.8,0.6-1.6,1.2-2.3,1.7c-3.3,2.2-6.6,4.5-9.8,6.9l-2.8,5.5l0,0h0
		h-3.8c-1.6,1.5-3.2,3.3-3.8,5.4c-1.3,4.5,1.7,7.3,6,9.2l7.5-14.6h0h10.2h0l9.2,17.9c1.3-0.1,2.6-0.2,4-0.3l9.1-17.6h0h10.2h0
		l11.1,21.6l11.1-21.6h0h10.2h0l11.2,21.6l11.2-21.6h0h10.2h0l10.8,21c0.3-0.1,0.6-0.3,0.8-0.4l10.6-20.5h0h10.2h0l3.8,7.3
		c3.8-2.3,7.5-4.7,11.1-7.3H260.4L260.4,369.4z"/>
	<path class="st1" d="M173.1,117.8L173.1,117.8L173.1,117.8l-10.2,0h0l0,0l-11.1-21.6l-11.1,21.6h0h-10.2h0l-11.1-21.6l-11.1,21.6
		l0,0h0H97.9h0l0,0L86.7,96.2l-11.1,21.6h0H65.4h0l-8.8-17.1c-3,2.5-5.9,5.1-8.7,7.7l-4.8,9.3l0,0h0h-4c-0.3,0.4-0.6,0.7-0.9,1.1
		c-2.3,2.7-4.4,5.4-6.4,8.2l6.3,12.2l11.1-21.6h0h10.2h0l11.2,21.6l11.2-21.6h0h10.2h0l11.1,21.6l11.1-21.6h0h10.2h0l11.2,21.6
		l11.2-21.6h0h10.2h0l7.3,14.2c5.7-4.9,10.4-9.3,14.7-13.7l0.2-0.5h0h0.2c0.3-0.3,0.7-0.7,1-1c3.2-3.3,6.2-6.8,9.1-10.5l-5.2-10.1
		L173.1,117.8z"/>
	<path class="st1" d="M303.1,400.8L303.1,400.8L303.1,400.8l-10.2,0h0l0,0l-11.1-21.6l-11.1,21.6h0h-10.2h0l-8.1-15.7
		c-1.2,1.7-2.3,3.3-3,5c-1.1,2.5-2.6,6.7-1.8,10.7h6.9h0l4.9,9.4c0.6,0.1,1.3,0.2,1.9,0.4c3.4,0.5,6.7,0.7,10.1,0.7l5.4-10.5h0h10.2
		h0l4.3,8.3c5.2-1.1,10.5-2.4,15.7-4l2.3-4.4h0h10.2h0l0.3,0.5c1.7-0.5,3.5-1.1,5.2-1.6l-10.6-20.5L303.1,400.8z"/>
	<path class="st1" d="M171.5,132.6c-2.3,0.2-4.7,0.1-7.2-0.4l3.7,7.1L171.5,132.6z"/>
	<path class="st1" d="M211.7,117.8L211.7,117.8h10.2h0l10.5,20.2c0.5-0.2,1.1-0.4,1.6-0.6l10.2-19.7h0h10.2h0l7.7,14.9
		c1.2,0,2.4-0.1,3.6-0.1c1.1,0,2.2,0,3.3,0.1l7.7-14.9h0h10.2h0l10.1,19.6c0.6,0.2,1.2,0.4,1.7,0.6l10.4-20.2h0h10.2h0l11.2,21.6
		l11.2-21.6h0h10.2h0l11.1,21.6l11.1-21.6h0h10.2h0l11.2,21.6l5.6-10.8c-9.2-6.9-19.1-12.8-29.5-17.7l-3.6,6.9l0,0h0h-10.2h0l0,0
		l-7.8-15.1c-1.9-0.6-3.9-1.1-5.8-1.6l-8.7,16.8h0h-10.2h0l-11.1-21.4c0,0-0.1,0-0.1,0l-11.1,21.4l0,0h0h-10.2h0l0,0l-10.4-20.2
		c-0.5,0.1-1,0.1-1.5,0.2l-10.3,20h0h-10.2h0l-7.5-14.6c-2.8,0.7-5.6,1.4-8.4,2.2l-6.4,12.4l0,0h0h-10.2h0l0,0l-3.2-6.2
		c-8.7,3-17.2,6.2-25.7,9.8c-2.1,0.9-4.2,1.9-6.3,3l7.7,15L211.7,117.8z"/>
	<path class="st1" d="M269.9,99.5c-2.6,0.5-5.3,1-7.9,1.6l3.5,6.9L269.9,99.5z"/>
	<path class="st1" d="M271.4,367.8c5-3.6,10-7.4,14.9-11.1l-4.6-8.9L271.4,367.8z"/>
	<path class="st1" d="M173.1,149.2L173.1,149.2h-10.2h0l0,0l-11.1-21.6l-11.1,21.6h0h-10.2h0l-11.1-21.6l-11.1,21.6l0,0h0H97.9h0
		l0,0l-11.1-21.6l-11.1,21.6h0H65.4h0l-11.1-21.6L43,149.2l0,0h0H32.9h0l0,0l-6.9-13.4c-2.6,4.3-4.9,8.8-7,13.4h7.9h0l11.1,21.6
		l11.1-21.6h0h10.2h0l11.2,21.6l11.2-21.6h0h10.2h0l11.1,21.6l11.1-21.6h0h10.2h0l11.2,21.6l11.2-21.6h0h10.2h0l11.1,21.6l11.1-21.6
		h0h10.2h0l5.6,10.8c8.5-7.7,18.2-14.1,28.9-18.8l-7-13.6l-11.1,21.6h0h-10.2h0l-10.7-20.7c-0.4,0.2-0.8,0.4-1.2,0.5L173.1,149.2
		L173.1,149.2z"/>
	<path class="st1" d="M247.6,382.5c0.9-0.5,1.8-1,2.6-1.4l-0.9-1.8L247.6,382.5z"/>
	<path class="st1" d="M304.1,96.1c-4,0-7.9,0.2-11.9,0.5l5.8,11.3L304.1,96.1z"/>
	<path class="st1" d="M195.4,86.4l-11.1-21.6l-11.1,21.6l0,0h0h-10.2h0l0,0l-11.1-21.6l-11.1,21.6h0h-10.2h0l-11.1-21.6l-11.1,21.6
		l0,0h0H97.9h0l0,0l-1.5-2.9C85.2,83.5,74,88.4,63.9,95.2l6.6,12.7l11.2-21.6h0h10.2h0l11.1,21.6l11.1-21.6h0h10.2h0l11.2,21.6
		l11.2-21.6h0h10.2h0l11.1,21.6l11.1-21.6h0h10.2h0l6.1,11.8c2.6-3.8,5-7.8,7.2-11.8H195.4L195.4,86.4z"/>
	<path class="st1" d="M173.1,23.5L173.1,23.5h-10.2h0l0,0l-8.1-15.8c-2.6,0.9-5.3,2.2-8,3.9l-6.1,11.9h0h-8.5
		c-1.8,1.7-3.4,3.5-5,5.4l8.4,16.2l11.2-21.6h0h10.2h0L168,45l11.1-21.6h0h10.2h0l11.2,21.6l11.2-21.6h0h7.3c0-5.9-0.8-13.1-4.1-18
		l-9.3,18h0h-10.2h0l-8.9-17.2c-0.4,0.2-0.8,0.5-1.2,0.7c-1.8,1.1-3.7,2.3-5.5,3.5L173.1,23.5L173.1,23.5z"/>
	<path class="st2" d="M195.4,23.5h10.2h0l9.3-18c-1.7-2.5-4.2-4.4-7.6-5.1l-6.9,13.3l-5.9-11.4c-3,1.2-5.8,2.7-8.1,4L195.4,23.5
		L195.4,23.5z"/>
	<path class="st2" d="M164,5.9c-0.1,0-0.2,0-0.4,0c-0.2,0-0.4,0-0.6,0c-2.5,0.1-5,0.8-6.7,1.3c-0.5,0.2-1.1,0.4-1.6,0.6l8.1,15.8
		l0,0h0h10.2h0l0,0l6.7-13.1c-3.3,2.2-6.5,4.5-9.7,7.1c0.6-1.4,0.9-2.7,1.1-4.1c0.2-1.4-0.1-3-0.9-4.3l-2.4,4.6L164,5.9z"/>
	<path class="st2" d="M140.6,23.5l6.1-11.9c-0.9,0.6-1.9,1.2-2.8,1.8c-3.9,2.8-7.9,6.1-11.7,9.9c0,0-0.1,0.1-0.1,0.1H140.6
		L140.6,23.5z"/>
	<path class="st2" d="M211.7,23.5l-11.2,21.6l-11.2-21.6h0h-10.2h0L168,45l-11.1-21.6h0h-10.2h0l-11.2,21.6l-8.4-16.2
		c-2,2.3-3.8,4.6-5.5,7c-0.2,0.3-0.4,0.6-0.6,0.9l9.4,18.2h0h10.2h0l11.1-21.6l11.1,21.6l0,0h0h10.2h0l0,0l11.1-21.6l11.1,21.6h0
		h10.2h0l11.1-21.6l1.5,2.9c0.4-3.5,0.6-7,0.7-10.6c0-0.7,0-1.5,0-2.2H211.7L211.7,23.5z"/>
	<path class="st2" d="M211.7,54.9l-11.2,21.6l-11.2-21.6h0h-10.2h0L168,76.5l-11.1-21.6h0h-10.2h0l-11.2,21.6l-11.2-21.6h0h-10.2h0
		L103,76.5l-0.8-1.6c-0.3,1.1-0.6,2.3-0.9,3.5c-0.4,1.6-0.7,3.3-1,5.3c-1-0.1-2.2-0.2-3.4-0.2c0,0-0.3,0-0.3,0c-0.1,0-0.1,0-0.2,0
		l1.5,2.9l0,0h0h10.2h0l0,0l11.1-21.6l11.1,21.6h0h10.2h0l11.1-21.6l11.1,21.6l0,0h0h10.2h0l0,0l11.1-21.6l11.1,21.6h0h7.3
		c5.4-9.9,9.5-20.5,12.3-31.4H211.7L211.7,54.9z"/>
	<path class="st2" d="M227.9,117.8L227.9,117.8h10.2h0l0,0l6.4-12.4c-1.9,0.5-3.9,1.1-5.8,1.7c-4.7,1.4-9.3,2.9-14,4.5L227.9,117.8
		L227.9,117.8z"/>
	<path class="st2" d="M189.3,86.4h-10.2h0L168,107.9l-11.1-21.6h0h-10.2h0L135.5,108l-11.2-21.6h0h-10.2h0L103,107.9L91.8,86.4h0
		H81.6h0L70.5,108l-6.6-12.7c-2.5,1.7-5,3.6-7.4,5.5l8.8,17.1h0h10.2h0l11.1-21.6l11.1,21.6l0,0h0h10.2h0l0,0l11.1-21.6l11.1,21.6h0
		h10.2h0l11.1-21.6l11.1,21.6l0,0h0h10.2h0l0,0l11.1-21.6l5.2,10.1c2.1-2.7,4.1-5.4,6-8.2L189.3,86.4L189.3,86.4z"/>
	<path class="st2" d="M260.4,117.8h10.2h0l10.3-20c-3.7,0.5-7.4,1.1-11.1,1.7l-4.4,8.4l-3.5-6.9c-3,0.7-6.1,1.4-9.1,2.1L260.4,117.8
		L260.4,117.8z"/>
	<path class="st2" d="M43.1,117.8L43.1,117.8l4.8-9.3c-3.2,3.1-6.2,6.3-8.8,9.3H43.1L43.1,117.8z"/>
	<path class="st2" d="M292.9,117.8L292.9,117.8h10.2h0l0,0l11.1-21.4c-3.4-0.2-6.7-0.3-10.1-0.2l-6.1,11.8l-5.8-11.3
		c-3.2,0.2-6.5,0.6-9.7,1L292.9,117.8L292.9,117.8z"/>
	<path class="st2" d="M357.9,117.8L357.9,117.8h10.2h0l0,0l3.6-6.9c-2.7-1.3-5.5-2.5-8.3-3.6l-0.3,0.6l-0.5-0.9
		c-4.1-1.6-8.2-3.1-12.4-4.3L357.9,117.8L357.9,117.8z"/>
	<path class="st2" d="M325.4,117.8h10.2h0l8.7-16.8c-3-0.8-6.1-1.5-9.1-2.1l-4.7,9L325,97.3c-1.1-0.1-2.2-0.3-3.3-0.4
		c-2.5-0.3-5-0.4-7.4-0.6L325.4,117.8L325.4,117.8z"/>
	<path class="st2" d="M384.4,117.8L384.4,117.8h-10.2h0L363,139.3l-11.1-21.6h0h-10.2h0l-11.2,21.6l-11.2-21.6h0h-10.2h0L298.7,138
		c2.9,1,5.7,2,8.5,3.2l7-13.5l11.1,21.6h0h10.2h0l11.1-21.6l11.1,21.6l0,0h0h10.2h0l0,0l11.1-21.6l11.1,21.6h0h10.2h0l7.7-15
		c-1.6-1.3-3.2-2.7-4.9-4c-0.8-0.6-1.6-1.2-2.3-1.8l-5.6,10.8L384.4,117.8z"/>
	<path class="st2" d="M249.2,127.7l3,5.8c3.2-0.4,6.5-0.7,9.8-0.8l-7.7-14.9h0h-10.2h0L234,137.5c3.8-1.2,7.7-2.2,11.7-3
		L249.2,127.7z"/>
	<path class="st2" d="M195.4,149.2h10.2h0l11.1-21.6l7,13.6c2.8-1.2,5.6-2.3,8.5-3.3l-10.5-20.2h0h-10.2h0l-11.2,21.6l-7.7-15
		c-2.7,1.4-5.4,2.8-8.1,4.1L195.4,149.2L195.4,149.2z"/>
	<path class="st2" d="M281.8,127.7l3.5,6.8c4,0.8,7.9,1.7,11.7,2.9l-10.1-19.6h0h-10.2h0l-7.7,14.9c3.3,0.1,6.6,0.4,9.8,0.8
		L281.8,127.7z"/>
	<path class="st2" d="M179.1,117.8l-0.2,0.5c0.2-0.2,0.3-0.3,0.5-0.5H179.1L179.1,117.8z"/>
	<path class="st2" d="M156.8,117.8h-10.2h0l-11.2,21.6l-11.2-21.6h0h-10.2h0L103,139.3l-11.1-21.6h0H81.6h0l-11.2,21.6l-11.2-21.6h0
		H49.1h0l-11.1,21.6l-6.3-12.2c-2,2.8-3.9,5.7-5.7,8.7l6.9,13.4l0,0h0H43h0l0,0l11.1-21.6l11.1,21.6h0h10.2h0l11.1-21.6l11.1,21.6
		l0,0h0h10.2h0l0,0l11.1-21.6l11.1,21.6h0h10.2h0l11.1-21.6l11.1,21.6l0,0h0h10.2h0l0,0l10.4-20.1c-3.9,1.8-7.9,3.2-12,3.6l-3.5,6.7
		l-3.7-7.1c-0.1,0-0.2,0-0.3-0.1c0.1-0.1,0.1-0.1,0.2-0.2L156.8,117.8L156.8,117.8z"/>
	<path class="st2" d="M422.9,149.2L422.9,149.2h1.1c-0.8-0.9-1.6-1.7-2.4-2.6L422.9,149.2L422.9,149.2z"/>
	<path class="st2" d="M416.9,149.2L416.9,149.2h-10.2h0l-11.2,21.6l-11.2-21.6h0h-10.2h0L363,170.8l-11.1-21.6h0h-10.2h0l-5.5,10.7
		c2.3,2.1,4.6,4.4,6.7,6.7l3.9-7.5l11.1,21.6l0,0h0h10.2h0l0,0l11.1-21.6l11.1,21.6h0h10.2h0l11.1-21.6l11.1,21.6l0,0h0h10.2h0l0,0
		l6.4-12.4c-0.3-0.4-0.5-0.8-0.8-1.2c-1.7-2.3-3.4-4.6-5.2-6.9l-5.5,10.6L416.9,149.2z"/>
	<path class="st2" d="M10.6,180.7l11.1-21.6l11.1,21.6l0,0h0H43h0l0,0l11.1-21.6l11.1,21.6h0h10.2h0l11.1-21.6l11.1,21.6l0,0h0h10.2
		h0l0,0l11.1-21.6l11.1,21.6h0h10.2h0l11.1-21.6l11.1,21.6l0,0h0h10.2h0l0,0l11.1-21.6l4,7.7c2.1-2.3,4.4-4.6,6.7-6.7l-5.6-10.8h0
		h-10.2h0L168,170.8l-11.1-21.6h0h-10.2h0l-11.2,21.6l-11.2-21.6h0h-10.2h0L103,170.8l-11.1-21.6h0H81.6h0l-11.2,21.6l-11.2-21.6h0
		H49.1h0l-11.1,21.6l-11.1-21.6h0h-7.9c-0.7,1.6-1.4,3.2-2,4.8c-3.5,8.7-5.3,17.8-7.7,26.7H10.6L10.6,180.7z"/>
	<path class="st2" d="M0.4,212.1h10.2h0l11.1-21.6l11.1,21.6l0,0h0H43h0l0,0l11.1-21.6l11.1,21.6h0h10.2h0l11.1-21.6l11.1,21.6l0,0
		h0h10.2h0l0,0l11.1-21.6l11.1,21.6h0h10.2h0l11.1-21.6l11.1,21.6l0,0h0h1c0.9-3.8,2.1-7.5,3.4-11.1l-10.5-20.3h0h-10.2h0
		l-11.2,21.6l-11.2-21.6h0h-10.2h0L103,202.2l-11.1-21.6h0H81.6h0l-11.2,21.6l-11.2-21.6h0H49.1h0l-11.1,21.6l-11.1-21.6h0H16.6h0
		L5.4,202.3l-2.2-4.2c-1.6,4.4-2.8,9-3.2,13.6L0.4,212.1L0.4,212.1z"/>
	<path class="st2" d="M439.2,180.7l-11.1,21.6l-11.1-21.6h0h-10.2h0l-11.2,21.6l-11.2-21.6h0h-10.2h0l-10.3,20
		c1.4,3.7,2.6,7.5,3.5,11.4h0.8h0l0,0l11.1-21.6l11.1,21.6h0h10.2h0l11.1-21.6l11.1,21.6l0,0h0h10.2h0l0,0l11.1-21.6l11.1,21.6h0
		h9.4c-1.2-0.4-2.5-0.8-3.8-1.1c-1.2-0.3-3-9.8-3.6-11.2c-1.4-3.8-3.4-7.4-5.3-11c-1.5-2.8-3-5.5-4.6-8.2H439.2L439.2,180.7z"/>
	<path class="st2" d="M449.4,212.1L449.4,212.1h-10.2h0l-11.1,21.6l-11.1-21.6h0h-10.2h0l-11.2,21.6l-11.2-21.6h0h-10.2h0l-4.9,9.5
		c0.8,5.1,1.2,10.4,1.2,15.8c0,0.6,0,1.2,0,1.8l8.9-17.2l11.1,21.6h0h10.2h0l11.1-21.6l11.1,21.6l0,0h0h10.2h0l0,0l11.1-21.6
		l11.1,21.6h0h10.2h0l11.1-21.6l7.9,15.4c-2.2-9.3-6.6-17.5-14.5-22.5l-9.8,18.9L449.4,212.1z"/>
	<path class="st2" d="M32.8,243.6L32.8,243.6L32.8,243.6l10.2,0h0l0,0L54.2,222l11.1,21.6h0h10.2h0L86.7,222l11.1,21.6l0,0h0h10.2h0
		l0,0l11.1-21.6l11.1,21.6h0h10.2h0l11.1-21.6l9.2,17.7c0-0.8-0.1-1.6-0.1-2.3c0-5.2,0.4-10.3,1.1-15.3l-5.1-9.9h0h-10.2h0
		l-11.2,21.6l-11.2-21.6h0h-10.2h0L103,233.7l-11.1-21.6h0H81.6h0l-11.2,21.6l-11.2-21.6h0H49.1h0l-11.1,21.6l-11.1-21.6h0H16.6h0
		l-10,19.3c0.4,0.4,0.8,0.9,1.2,1.3c1.8,1.7,3.8,3.2,6,4.6l7.9-15.3L32.8,243.6z"/>
	<path class="st2" d="M26.8,243.6h-1.7c0.8,0.4,1.6,0.8,2.4,1.3L26.8,243.6L26.8,243.6z"/>
	<path class="st2" d="M65.3,275L65.3,275h10.2h0l11.1-21.6L97.9,275l0,0h0h10.2h0l0,0l11.1-21.6l11.1,21.6h0h10.2h0l11.1-21.6
		l11.1,21.6l0,0h0h4.9c-2.6-6.8-4.5-13.9-5.7-21.2l-5.3-10.2h0h-10.2h0l-11.2,21.6l-11.2-21.6h0h-10.2h0L103,265.1l-11.1-21.6h0
		H81.6h0l-11.2,21.6l-11.2-21.6h0H49.1h0l-6.3,12.1c2.4,2.2,4.6,4.4,6.7,6.8l4.7-9L65.3,275z"/>
	<path class="st2" d="M481.9,243.6h-10.2h0l-11.2,21.6l-11.2-21.6h0h-10.2h0l-11.1,21.6l-11.1-21.6h0h-10.2h0l-11.2,21.6l-11.2-21.6
		h0h-10.2h0l-4.9,9.5c-1.1,7.6-3.1,15-5.8,22h4.7h0l0,0l11.1-21.6l11.1,21.6h0h10.2h0l11.1-21.6L423,275l0,0h0h10.2h0l0,0l11.1-21.6
		l11.1,21.6h0h10.2h0l11.1-21.6l8.4,16.2c0.9-5.2,1.4-11.1,1.4-17.1L481.9,243.6L481.9,243.6z"/>
	<path class="st2" d="M97.9,306.4L97.9,306.4L97.9,306.4l10.2,0h0l0,0l11.1-21.6l11.1,21.6h0h10.2h0l11.1-21.6l11.1,21.6l0,0h0h10.2
		h0l0,0l5.5-10.7c-2-2.9-3.8-6-5.5-9.1l-5.1,9.9L156.8,275h0h-10.2h0l-11.2,21.6L124.3,275h0h-10.2h0L103,296.6L91.8,275h0H81.6h0
		l-7.9,15.4c2.2,2.4,4.4,4.7,6.6,7l6.5-12.5L97.9,306.4z"/>
	<path class="st2" d="M481.9,275h-10.2h0l-11.2,21.6L449.4,275h0h-10.2h0l-11.1,21.6L416.9,275h0h-10.2h0l-11.2,21.6L384.4,275h0
		h-10.2h0L363,296.6l-5-9.7c-1.7,3.1-3.5,6.2-5.5,9.1l5.4,10.4l0,0h0h10.2h0l0,0l11.1-21.6l11.1,21.6h0h10.2h0l11.1-21.6l11.1,21.6
		l0,0h0h10.2h0l0,0l11.1-21.6l11.1,21.6h0h10.2h0l11.1-21.6l2.2,4.3c1.8-3.7,3.2-7.5,4.3-11.4L481.9,275L481.9,275z"/>
	<path class="st2" d="M303.1,337.9L303.1,337.9L303.1,337.9l1.7-3.3c-3.1,1.2-6.2,2.3-9.5,3.3H303.1z"/>
	<path class="st2" d="M130.4,337.9L130.4,337.9h10.2h0l11.1-21.6l11.1,21.6l0,0h0h10.2h0l0,0l11.1-21.6l11.1,21.6h0h10.2h0l5.6-10.9
		c-2.6-1.6-5.1-3.3-7.6-5.1l-3.2,6.2l-8.2-15.8c-1.9-1.9-3.7-3.8-5.5-5.8h-7.7h0L168,328l-11.1-21.6h0h-10.2h0l-11.2,21.6
		l-11.2-21.6h0h-10.2h0l-7.8,15.2c1.7,1.4,3.4,2.9,5.2,4.3c0.7,0.5,1.4,1,2,1.5l5.7-11.1L130.4,337.9z"/>
	<path class="st2" d="M91.8,306.5h-2.4c1.6,1.5,3.1,3,4.7,4.5L91.8,306.5L91.8,306.5z"/>
	<path class="st2" d="M227.9,337.9L227.9,337.9L227.9,337.9l8.1,0c-3.3-1-6.6-2.1-9.8-3.4L227.9,337.9z"/>
	<path class="st2" d="M449.4,306.5h-10.2h0L428.1,328l-11.1-21.6h0h-10.2h0l-11.2,21.6l-11.2-21.6h0h-10.2h0L363,328l-11.1-21.6h0
		h-7.5c-1.9,2.2-3.9,4.3-6,6.3l-7.9,15.3l-3.1-6c-2.5,1.8-5,3.5-7.6,5.1l5.6,10.8h0h10.2h0l11.1-21.6l11.1,21.6l0,0h0h10.2h0l0,0
		l11.1-21.6l11.1,21.6h0h10.2h0l11.1-21.6l11.1,21.6l0,0h0h10.2h0l0,0l11.1-21.6l2.3,4.4c1.3-2.3,2.6-4.3,3.5-4.6
		c1.2-0.4,2.5-0.9,3.6-1.4L449.4,306.5L449.4,306.5z"/>
	<path class="st2" d="M416.9,337.9h-10.2h0l-11.2,21.6l-11.2-21.6h0h-10.2h0L363,359.5l-11.1-21.6h0h-10.2h0l-11.2,21.6l-11.2-21.6
		h0h-10.2h0L298,359.5l-10.1-19.6c-4.3,0.9-8.7,1.6-13.2,2l-9.2,17.7l-9.2-17.7c-4.5-0.4-8.9-1.1-13.2-2L233,359.5l-11.1-21.6h0
		h-10.2h0l-11.2,21.6l-11.2-21.6h0h-10.2h0L168,359.5l-11.1-21.6h0h-10.2h0l-11.2,21.6l-5.1-9.9c-2.5,1.7-5,3.8-7.3,5.6l7.3,14.1h0
		h10.2h0l11.1-21.6l11.1,21.6l0,0h0h10.2h0l0,0l11.1-21.6l11.1,21.6h0h10.2h0l11.1-21.6l11.1,21.6l0,0h0h10.2h0l0,0l11.1-21.6
		l11.1,21.6h0h8.8c0.7-0.5,1.5-1.1,2.2-1.6l10.3-20l4.6,8.9c0.7-0.6,1.5-1.1,2.2-1.7l0.2-0.1l0.2-0.1l3.3-2.4
		c-1.6,1.7-3.4,3.4-5.5,5.2l6.1,11.9l0,0h0h10.2h0l0,0l11.1-21.6l11.1,21.6h0h10.2h0l11.1-21.6l11.1,21.6l0,0h0h10.2h0l0,0
		l11.1-21.6l11.1,21.6h0h8.9c0.6-0.3,1.2-0.6,1.8-0.9l10.7-20.7l5,9.7c2.4-2,4.7-4.1,6.9-6.3L416.9,337.9L416.9,337.9z"/>
	<path class="st2" d="M108.1,369.4L108.1,369.4l2.8-5.5c-2,1.5-4,3.1-5.8,4.8c-0.3,0.2-0.5,0.5-0.8,0.7H108.1L108.1,369.4z"/>
	<path class="st2" d="M270.6,369.4L270.6,369.4C270.6,369.3,270.6,369.3,270.6,369.4L270.6,369.4L270.6,369.4z"/>
	<path class="st2" d="M221.9,369.4h-10.2h0L200.5,391l-11.2-21.6h0h-10.2h0L168,390.9l-11.1-21.6h0h-10.2h0l-9.1,17.6
		c1.7-0.2,3.5-0.4,5.5-0.7c0.5-0.1,1.1-0.2,1.6-0.3l-0.9,0.8l-0.5,0.5c-1.9,1.8-3.5,3.4-4.9,5c-2.3,2.5-4.8,5.5-6.6,8.6h8.8h0
		l11.1-21.6l11.1,21.6l0,0h0h10.2h0l0,0l11.1-21.6l11.1,21.6h0h10.2h0l11.1-21.6l8,15.4c2.6-1.5,5.3-2.9,8-4.3L221.9,369.4
		L221.9,369.4z"/>
	<path class="st2" d="M124.3,369.4h-10.2h0l-7.5,14.6c2.7,1.1,5.9,1.8,9,2.3l3.6-7l4,7.8c1.2,0.1,2.2,0.1,3,0.2
		c1.4,0.1,2.8,0.1,4.1,0.1c1,0,1.9,0,2.9-0.1c0.1,0,0.2,0,0.3,0L124.3,369.4L124.3,369.4z"/>
	<path class="st2" d="M254.3,369.4h-10.2h0l-10.6,20.5c4.7-2.5,9.4-4.9,14-7.4l1.7-3.3l0.9,1.8c1.9-1,3.8-2,5.7-3.1
		c0.8-0.4,1.5-0.9,2.2-1.3L254.3,369.4L254.3,369.4z"/>
	<path class="st2" d="M384.4,369.4h-10.2h0L363,390.9l-11.1-21.6h0h-10.2h0L330.5,391l-11.2-21.6h0h-10.2h0L298,390.9l-11.1-21.6h0
		h-10.2h0L265.5,391l-6.6-12.8c-1.4,1.2-2.7,2.4-3.9,3.7c-1,1.1-1.9,2.2-2.8,3.3l8.1,15.7h0h10.2h0l11.1-21.6l11.1,21.6l0,0h0h10.2
		h0l0,0l11.1-21.6l10.6,20.5c4.4-1.3,8.8-2.6,13.2-3.6l8.7-16.9l7.2,14c6.3-0.7,12.7-1.2,19-2l6.2-12l5,9.8c0.6-0.2,1.2-0.3,1.8-0.5
		c2.1-0.6,4.5-1.5,6.8-2.7L384.4,369.4L384.4,369.4z"/>
	<path class="st2" d="M286.9,400.8h-10.2h0l-5.4,10.5c6.7,0,13.3-0.8,19.9-2.2L286.9,400.8L286.9,400.8z"/>
	<path class="st2" d="M319.4,400.8h-10.2h0l-2.3,4.4c4.3-1.2,8.5-2.5,12.8-3.8L319.4,400.8L319.4,400.8z"/>
	<path class="st2" d="M211.7,400.8l-1.2,2.3c1.2-0.8,2.4-1.5,3.6-2.3H211.7L211.7,400.8z"/>
	<path class="st2" d="M254.3,400.8h-6.9c0.3,1.4,0.8,2.7,1.7,3.9c1.9,2.7,5.3,4.5,10.1,5.5L254.3,400.8L254.3,400.8z"/>
	<path class="st2" d="M189.3,400.8h-10.2h0l-10.7,20.7c3.8-0.3,7.6-1,11.2-2l4.6-8.8l3.1,6c2.7-1.2,5.4-2.6,8.1-4.1L189.3,400.8
		L189.3,400.8z"/>
	<path class="st2" d="M131.8,415.3l-2.7-5.1C129.4,412.1,130.3,413.9,131.8,415.3z"/>
	<path class="st2" d="M156.8,400.8h-10.2h0l-9.1,17.5c0.7,0.2,1.4,0.4,2.1,0.6c2.3,0.6,4.6,1,7,1.4l5-9.7l5.7,10.9
		c3.4,0.2,6.8,0.2,10.2-0.1L156.8,400.8L156.8,400.8z"/>
</g>
</svg>
