<?xml version="1.0" encoding="utf-8"?>
<!-- Generator: Adobe Illustrator 23.0.4, SVG Export Plug-In . SVG Version: 6.00 Build 0)  -->
<svg version="1.1" id="Bunny2" xmlns="http://www.w3.org/2000/svg" xmlns:xlink="http://www.w3.org/1999/xlink" x="0px" y="0px"
	 viewBox="0 0 365.9 441.6" style="enable-background:new 0 0 365.9 441.6;" xml:space="preserve">
<style type="text/css">
	#Bunny2 .st0{fill:none;}
	#Bunny2 .st1{fill:#E585AC;}
	#Bunny2 .st2{fill:#7FCADB;}
	#Bunny2 .st3{fill:#E2C374;}
</style>
<g>
	<path class="st0" d="M74,318.6C74,379,123.1,428,183.5,428c60.3,0,109.4-49.1,109.4-109.4c0-60.3-49.1-109.4-109.4-109.4
		C123.1,209.2,74,258.3,74,318.6z M287.8,318.6c0,57.5-46.8,104.3-104.3,104.3c-57.5,0-104.3-46.8-104.3-104.3
		c0-57.5,46.8-104.3,104.3-104.3C241,214.3,287.8,261.1,287.8,318.6z"/>
	<path class="st0" d="M111.4,168.7c-0.2-11.1-0.7-22.2-1.6-33.3c-1.3-17.6-5.3-35.6-15.4-50.1c-11.4-16.4-29.3-26.9-47.1-36
		c-3.8-1.9-8.7-3.6-12.8-3.6c-4.9,0-8.7,2.6-7.9,10.2c0,6.7,3.1,14.7,4.5,21.3c1.7,7.9,3.3,15.8,5,23.7c2.6,12.2,4.3,24.5,9.9,35.8
		c5.2,10.6,12.2,20.2,20.7,28.4c11.4,11.1,24.4,20.4,35.7,31.9c1.1,1.1,2.2,2.2,3.6,2.7c7,2.4,5.1-10.4,5.2-13.7
		C111.4,180.1,111.5,174.4,111.4,168.7z"/>
	<path class="st0" d="M64.7,318.6c0,65.5,53.3,118.7,118.7,118.7s118.7-53.3,118.7-118.7s-53.3-118.7-118.7-118.7
		S64.7,253.2,64.7,318.6z M297.4,318.6c0,62.8-51.1,113.9-113.9,113.9S69.6,381.4,69.6,318.6s51.1-113.9,113.9-113.9
		S297.4,255.8,297.4,318.6z"/>
	
		<ellipse transform="matrix(0.9697 -0.2445 0.2445 0.9697 -72.3281 54.5194)" class="st0" cx="183.5" cy="318.6" rx="100.2" ry="100.2"/>
	<path class="st0" d="M330.5,45.7c-4.1,0-9,1.7-12.8,3.6c-17.8,9.1-35.7,19.6-47.1,36c-10.1,14.5-14.1,32.5-15.4,50.1
		c-0.8,11.1-1.4,22.2-1.6,33.3c-0.1,5.7,0,11.5,0.1,17.2c0.1,3.4-1.9,16.1,5.2,13.7c1.4-0.5,2.5-1.6,3.6-2.7
		c11.3-11.4,24.3-20.7,35.7-31.9c8.4-8.2,15.5-17.9,20.7-28.4c5.6-11.3,7.2-23.6,9.9-35.8c1.7-7.9,3.4-15.8,5-23.7
		c1.4-6.6,4.5-14.6,4.5-21.3C339.1,48.2,335.4,45.7,330.5,45.7z"/>
	<path class="st1" d="M354.5,0c-5.8,0-12.7,2.4-18.2,5.1c-25.2,12.9-50.6,27.8-66.8,51.1c-14.3,20.6-20,46.1-21.9,71.1
		c-1.2,15.7-2,31.5-2.2,47.3c-0.1,8.1-0.1,16.3,0.2,24.4c0.1,2.6-0.7,8.9,0.1,13.7c2.8,1.7,5.5,3.4,8.2,5.3c1.6-0.8,2.9-2.1,4.1-3.3
		c16-16.2,34.5-29.4,50.7-45.2c12-11.6,22-25.3,29.3-40.3c7.9-16,10.3-33.5,14-50.8c2.4-11.2,4.8-22.4,7.2-33.6
		c2-9.4,6.4-20.7,6.4-30.2C366.8,3.7,361.5,0.1,354.5,0z M338.4,55.9c0,6.7-3.1,14.7-4.5,21.3c-1.7,7.9-3.3,15.8-5,23.7
		c-2.6,12.2-4.3,24.5-9.9,35.8c-5.2,10.6-12.2,20.2-20.7,28.4c-11.4,11.1-24.4,20.4-35.7,31.9c-1.1,1.1-2.2,2.2-3.6,2.7
		c-7,2.4-5.1-10.4-5.2-13.7c-0.2-5.7-0.2-11.5-0.1-17.2c0.2-11.1,0.7-22.2,1.6-33.3c1.3-17.6,5.3-35.6,15.4-50.1
		c11.4-16.4,29.3-26.9,47.1-36c3.8-1.9,8.7-3.6,12.8-3.6C335.4,45.7,339.1,48.2,338.4,55.9z"/>
	<path class="st1" d="M120.2,199c0.2-8.1,0.3-16.3,0.2-24.4c-0.2-15.8-1-31.5-2.2-47.3c-1.9-25-7.6-50.5-21.9-71.1
		C80.2,32.9,54.8,18,29.6,5.1C24.1,2.4,17.2,0,11.4,0C4.4,0.1-0.9,3.7,0.1,14.5c0,9.5,4.4,20.8,6.4,30.2c2.4,11.2,4.7,22.4,7.2,33.6
		c3.7,17.3,6.1,34.8,14,50.8c7.4,15,17.4,28.7,29.3,40.3c16.2,15.8,34.7,29,50.7,45.2c1.4,1.4,2.9,2.9,4.8,3.6
		c2.4-1.7,4.9-3.4,7.5-4.9C121,208.4,120.1,201.6,120.2,199z M106.1,199.6c-1.4-0.5-2.5-1.6-3.6-2.7c-11.3-11.4-24.3-20.7-35.7-31.9
		c-8.4-8.2-15.5-17.9-20.7-28.4c-5.6-11.3-7.2-23.6-9.9-35.8c-1.7-7.9-3.4-15.8-5-23.7c-1.4-6.6-4.5-14.6-4.5-21.3
		c-0.8-7.6,3-10.2,7.9-10.2c4.1,0,9,1.7,12.8,3.6c17.8,9.1,35.7,19.6,47.1,36c10.1,14.5,14.1,32.5,15.4,50.1
		c0.8,11.1,1.4,22.2,1.6,33.3c0.1,5.7,0,11.5-0.1,17.2C111.2,189.2,113.1,202,106.1,199.6z"/>
	<path class="st2" d="M183.5,195.7c-23.2,0-44.9,6.5-63.5,17.7c-2.6,1.5-5,3.2-7.5,4.9c-31.4,22.3-52,59-52,100.4
		c0,67.8,55.2,123,123,123s123-55.2,123-123c0-41.6-20.8-78.4-52.4-100.6c-2.7-1.9-5.4-3.6-8.2-5.3
		C227.5,201.9,206.2,195.7,183.5,195.7z M302.2,318.6c0,65.5-53.3,118.7-118.7,118.7S64.7,384.1,64.7,318.6S118,199.9,183.5,199.9
		S302.2,253.2,302.2,318.6z"/>
	<path class="st3" d="M69.6,318.6c0,62.8,51.1,113.9,113.9,113.9s113.9-51.1,113.9-113.9s-51.1-113.9-113.9-113.9
		S69.6,255.8,69.6,318.6z M292.9,318.6c0,60.3-49.1,109.4-109.4,109.4C123.1,428,74,379,74,318.6c0-60.3,49.1-109.4,109.4-109.4
		C243.8,209.2,292.9,258.3,292.9,318.6z"/>
	<path class="st1" d="M79.1,318.6c0,57.5,46.8,104.3,104.3,104.3c57.5,0,104.3-46.8,104.3-104.3c0-57.5-46.8-104.3-104.3-104.3
		C125.9,214.3,79.1,261.1,79.1,318.6z M283.7,318.6c0,55.3-45,100.2-100.2,100.2c-55.3,0-100.2-45-100.2-100.2
		c0-55.3,45-100.2,100.2-100.2C238.7,218.4,283.7,263.4,283.7,318.6z"/>
</g>
</svg>
