<?xml version="1.0" encoding="utf-8"?>
<!-- Generator: Adobe Illustrator 23.0.4, SVG Export Plug-In . SVG Version: 6.00 Build 0)  -->
<svg version="1.1" id="Bunny3" xmlns="http://www.w3.org/2000/svg" xmlns:xlink="http://www.w3.org/1999/xlink" x="0px" y="0px"
	 viewBox="0 0 339.2 409.4" style="enable-background:new 0 0 339.2 409.4;" xml:space="preserve">
<style type="text/css">
	#Bunny3 .st0{fill:#E585AC;}
</style>
<g>
	<g>
		<path class="st0" d="M328.7,0c-5.4,0-11.8,2.2-16.8,4.7c-23.4,11.9-47,25.8-61.9,47.4c-13.2,19.1-18.5,42.7-20.3,65.9
			c-1.1,14.6-1.8,29.2-2,43.8c-0.1,7.5-0.1,15.1,0.2,22.6c0.1,4.4-2.4,21.2,6.8,18.1c1.9-0.6,3.4-2.1,4.8-3.5
			c14.9-15,32-27.3,47-41.9c11.1-10.8,20.4-23.5,27.2-37.4c7.3-14.8,9.5-31.1,13-47.1c2.2-10.4,4.5-20.8,6.6-31.1
			c1.8-8.7,5.9-19.2,5.9-28C340.1,3.4,335.2,0.1,328.7,0z"/>
	</g>
	<g>
		<path class="st0" d="M10.6,0c5.4,0,11.8,2.2,16.8,4.7c23.4,11.9,47,25.8,61.9,47.4c13.2,19.1,18.5,42.7,20.3,65.9
			c1.1,14.6,1.8,29.2,2,43.8c0.1,7.5,0.1,15.1-0.2,22.6c-0.1,4.4,2.4,21.2-6.8,18.1c-1.9-0.6-3.4-2.1-4.8-3.5
			c-14.9-15-32-27.3-47-41.9c-11.1-10.8-20.4-23.5-27.2-37.4c-7.3-14.8-9.5-31.1-13-47.1C10.4,62.2,8.2,51.8,6,41.5
			c-1.8-8.7-5.9-19.2-5.9-28C-0.9,3.4,4.1,0.1,10.6,0z"/>
	</g>
	<g>
		<path class="st0" d="M170.1,409.4c-62.9,0-114-51.1-114-114s51.1-114,114-114s114,51.1,114,114S233,409.4,170.1,409.4z
			 M170.1,185.3C109.4,185.3,60,234.7,60,295.4s49.4,110.1,110.1,110.1s110.1-49.4,110.1-110.1S230.8,185.3,170.1,185.3z"/>
	</g>
</g>
</svg>
