<?xml version="1.0" encoding="utf-8"?>
<!-- Generator: Adobe Illustrator 23.0.4, SVG Export Plug-In . SVG Version: 6.00 Build 0)  -->
<svg version="1.1" id="Christmas3" xmlns="http://www.w3.org/2000/svg" xmlns:xlink="http://www.w3.org/1999/xlink" x="0px" y="0px"
	 viewBox="0 0 189 225.5" style="enable-background:new 0 0 189 225.5;" xml:space="preserve">
<style type="text/css">
	#Christmas3 .st0{fill:none;}
</style>
<g>
	<circle class="st0" cx="94.5" cy="75.8" r="39.3"/>
	<path d="M188.8,189.1c-1.7-4.3-5-8.2-7.6-12.1c-4.3-6.5-9.2-12.5-13.6-18.9c-3.5-5-7.3-10.5-10.7-15.9
		c-7.5-11.9-16.8-22.3-25.2-33.5c0.9,1.2,9.7,0.1,11.3,0c3.8-0.2,7.5-0.5,11.2-0.9c6-0.7,12-1.5,18-2.1c2.2-0.2,12.7,0.4,13.6-2.4
		c0.6-1.8-2.4-4.7-3.3-5.9c-2.5-3.1-5.2-6-8-8.8c-14.4-14.8-28.8-30.2-42.5-45.8c-7-7.9-13.8-16-20.4-24.2c-3-3.7-13.7-22.2-19-18
		c-4,3.2-7.2,9.9-10.5,14C62.6,38.9,40.3,61.3,19,83.9c-5,5.3-11,10.3-14.8,16.6c-3.4,5.6,6.8,4.3,9.3,4.4
		c7.3,0.2,14.3,1.3,21.5,2.3c3.7,0.5,7.3,1,11,1.3c1.6,0.1,10.3,1.5,11.2,0.2c-8,10.7-17.1,20.6-24.3,32
		c-3.7,5.9-7.8,11.9-11.6,17.3c-4.4,6.6-9.5,12.8-13.9,19.4c-1.4,2.1-2.7,4.2-4.1,6.3c-1.4,2.2-5.9,7.3-1.5,8.8
		c4.2,1.5,8.9,0.9,13.2,1.3c5.6,0.5,11.1,0.9,16.7,1.3c3.9,0.3,50.4,2.9,50.4-0.1c0,5.4,0.5,10.9,0.1,16.3c-0.1,1.8-0.3,4.1-0.4,6.1
		c-0.5,6.3-0.8,9,6.5,7.6c5.2-1,10.6-0.1,15.8,0.1c4.7,0.1,3.5-3.7,3.2-7.1c-0.2-2.2-0.4-4.7-0.5-6.6c-0.3-5.2-0.3-10.8,0.2-15.9
		c5.8-0.8,12.7,0.6,18.7,0.7c16,0.3,31.8-1.9,47.8-2.4C175.8,193.8,191,194.3,188.8,189.1z M94.5,115.1c-21.7,0-39.3-17.6-39.3-39.3
		c0-21.7,17.6-39.3,39.3-39.3s39.3,17.6,39.3,39.3C133.8,97.5,116.2,115.1,94.5,115.1z"/>
</g>
</svg>
