<?xml version="1.0" encoding="utf-8"?>
<!-- Generator: Adobe Illustrator 23.0.4, SVG Export Plug-In . SVG Version: 6.00 Build 0)  -->
<svg version="1.1" id="Christmas5" xmlns="http://www.w3.org/2000/svg" xmlns:xlink="http://www.w3.org/1999/xlink" x="0px" y="0px"
	 viewBox="0 0 200.7 319" style="enable-background:new 0 0 200.7 319;" xml:space="preserve">
<style type="text/css">
	#Christmas5 .st0{fill:none;}
	#Christmas5 .st1{fill:#474B59;}
	#Christmas5 .st2{fill:#B22222;}
	#Christmas5 .st3{fill:#FFFFFF;}
	#Christmas5 .st4{fill:#545866;}
</style>
<g>
	<path class="st0" d="M111.1,53.8c0.6,0,1.3,0.1,1.9,0.1C112.4,53.9,111.7,53.9,111.1,53.8c-0.1,0-0.2,0-0.2,0c-0.4,0-0.7,0-1.1,0
		c0.4,0,0.7,0,1.1,0C110.9,53.8,111,53.8,111.1,53.8z"/>
	<path class="st0" d="M99.2,54c2.5-0.1,5-0.2,7.4-0.2c0.1,0,0.2,0,0.2,0c-0.1,0-0.2,0-0.2,0C104.2,53.8,101.7,53.8,99.2,54
		c-0.5,0-0.9,0.1-1.4,0.1c-2.6,0.2-5.2,0.5-7.7,0.9c2.5-0.4,5.1-0.7,7.7-0.9C98.3,54,98.8,54,99.2,54z"/>
	<path class="st0" d="M125.9,57.8c-2.4-1.4-4.9-2.3-7.5-3c-0.2,0-0.3-0.1-0.5-0.1c0.2,0,0.3,0.1,0.5,0.1
		C121,55.5,123.5,56.4,125.9,57.8z"/>
	<path class="st0" d="M72.6,63.9c-0.4,0.4-0.8,0.8-1.2,1.2c-0.3,0.3-0.5,0.6-0.8,0.9c0.3-0.3,0.5-0.6,0.8-0.9
		C71.8,64.6,72.2,64.2,72.6,63.9z"/>
	<path class="st0" d="M144.1,82.9c-2.7-8.9-7.7-17.5-15.2-23.1C136.4,65.4,141.4,74,144.1,82.9z"/>
	<path class="st0" d="M56.6,96.8c-0.1,1.5-0.1,2.9,0,4.4c0,0.9,0.1,1.9,0.2,2.8c-0.1-0.9-0.1-1.9-0.2-2.8
		C56.6,99.8,56.6,98.3,56.6,96.8z"/>
	<path class="st0" d="M63.8,74.2c-1.5,2.2-2.8,4.5-3.9,6.9c-0.6,1.3-1.1,2.7-1.5,4.1c0.4-1.4,0.9-2.8,1.5-4.1
		C61,78.7,62.3,76.4,63.8,74.2z"/>
	<path class="st0" d="M116,29.7c-0.1-4-0.2-8-0.4-12c0-1.1-0.1-2.1-0.1-3.2c0,1.1,0.1,2.1,0.1,3.2C115.7,21.6,115.9,25.7,116,29.7z"
		/>
	<path class="st0" d="M113.9,3.1c0.9,1.3,1.1,3.7,1.3,5.6C115,6.8,114.7,4.4,113.9,3.1c-0.5-0.7-0.9-1-1.3-1.1c-0.1,0-0.1,0-0.2,0
		c0.1,0,0.1,0,0.2,0C113,2.1,113.4,2.4,113.9,3.1z"/>
	<path class="st0" d="M99.6,52.6C99.6,52.6,99.6,52.6,99.6,52.6c1.3-0.1,2.6-0.2,3.9-0.2C102.2,52.5,100.9,52.5,99.6,52.6z"/>
	<path class="st0" d="M105.8,23.1c-0.4,1.8-0.9,3.7-1.3,5.5c-1.4,6.3-2.5,12.8-3.9,19.2c1.3-6.4,2.5-12.8,3.9-19.2
		C104.9,26.8,105.3,25,105.8,23.1z"/>
	<path class="st0" d="M145.4,87.6C145.4,87.6,145.4,87.6,145.4,87.6c0.1,0.2,0.1,0.5,0.2,0.7C145.5,88.1,145.4,87.9,145.4,87.6z"/>
	<polygon class="st0" points="68.7,117.7 68.7,117.7 68.7,117.7 	"/>
	<path class="st0" d="M39.1,128.3C39.1,128.3,39,128.3,39.1,128.3C39,128.3,39.1,128.3,39.1,128.3L39.1,128.3z"/>
	<path class="st0" d="M38.4,127.8c0,0-0.1-0.1-0.1-0.1c0.2,0.2,0.5,0.4,0.7,0.5C38.8,128.1,38.6,128,38.4,127.8z"/>
	<path class="st0" d="M29.9,129.4c-0.2,0.2-0.4,0.5-0.6,0.7c-0.1,0.1-0.1,0.2-0.2,0.2c0.5-0.6,1-1.3,1.6-1.8
		C30.5,128.8,30.2,129.1,29.9,129.4z"/>
	<path class="st0" d="M151,131.1c-0.1,0.1-0.3,0.3-0.4,0.4c0.3-0.3,0.7-0.7,1-1C151.4,130.7,151.2,130.9,151,131.1z"/>
	<path class="st0" d="M31.1,128.1c-0.1,0.1-0.3,0.3-0.4,0.4c0.3-0.3,0.5-0.6,0.8-0.8L31.1,128.1z"/>
	<path class="st0" d="M100.9,247.9c28.4,0,51.5-23.1,51.5-51.5c0-28.4-23.1-51.5-51.5-51.5S49.4,168,49.4,196.4
		C49.4,224.8,72.5,247.9,100.9,247.9z"/>
	<path class="st0" d="M39.4,128.6c-0.1-0.1-0.2-0.2-0.3-0.3c0.2,0.2,0.4,0.4,0.7,0.5C39.6,128.8,39.5,128.7,39.4,128.6z"/>
	<path class="st1" d="M91.9,119C91.9,119,91.9,119,91.9,119c-0.9,0-1.8,0-2.7,0c-0.6,1.5-1.2,3-1.8,4.5c-0.5,1.4-1,2.7-1.5,4.1
		c-0.9,2.4-1.7,4.8-2.5,7.2c-0.4,1.1-0.7,2.3-1.1,3.4c0,0.1-0.1,0.2-0.1,0.3c-0.4,1.2-0.7,2.4-1.1,3.6c1.1,0,2.3,0,3.4,0.1
		C86.3,134.3,88.6,126.5,91.9,119z"/>
	<path class="st2" d="M176.3,137.3c-0.5-0.7-1.1-1.3-1.6-2c-0.1-0.2-0.3-0.3-0.4-0.5c-0.4-0.5-0.8-1-1.2-1.5
		c-0.6-0.7-1.2-1.5-1.9-2.2c-0.6-0.7-1.3-1.4-1.9-2.1c-0.4-0.5-0.9-0.9-1.3-1.4c-0.2-0.2-0.4-0.4-0.5-0.6c-1.6-1.6-3.8-4.2-6.3-3.7
		c-0.1,0-0.3,0.1-0.4,0.1c-1.6,0.5-3.3,2-4.6,3c-0.3,0.2-0.6,0.4-0.8,0.7c-0.2,0.1-0.4,0.3-0.5,0.4c-1.1,0.9-2.2,1.9-3.2,2.9
		c-0.3,0.3-0.7,0.7-1,1c-0.2,0.2-0.3,0.3-0.5,0.5c-0.5,0.5-1,1.1-1.4,1.6c0.2,0.6,0.4,1.3,0.6,1.9c1.2,1.9,2.6,3.7,4.1,5.5
		c2.7,3.3,5.4,6.5,7.1,10.5c2.9,7,5.1,14.4,7.3,21.7c1-1,2-2,3-2.9c3-2.9,6.1-5.7,9.1-8.6c2.9-2.8,6.1-5.8,8.1-9.4
		c1.5-2.7-0.7-3.9-2.5-5.4c-1.4-1.1-2.7-2.4-3.9-3.6c-1.5-1.6-2.9-3.2-4.3-4.9C176.9,138,176.6,137.7,176.3,137.3z"/>
	<path class="st2" d="M41.9,158.1c2.4-6.5,5-12.9,7.9-19.2c-2-1.9-3.8-4-5.8-5.9c-0.1-0.1-0.1-0.1-0.2-0.2c0,0-0.1-0.1-0.1-0.1
		c-0.1-0.1-0.3-0.3-0.4-0.4c0,0,0,0,0,0c-0.3-0.3-0.6-0.6-0.9-1c-0.1-0.1-0.2-0.2-0.3-0.3l-0.4-0.4c-0.1-0.1-0.1-0.1-0.2-0.2
		c-0.1-0.1-0.2-0.2-0.3-0.3c-0.1-0.1-0.2-0.2-0.3-0.3c-0.3-0.3-0.7-0.6-1-0.9c-0.2-0.2-0.4-0.4-0.7-0.5c0,0-0.1,0-0.1-0.1
		c-0.2-0.2-0.5-0.4-0.7-0.5c0,0,0,0-0.1-0.1h0c-0.3-0.2-0.7-0.4-1-0.7c-0.3-0.2-0.6-0.3-0.9-0.5l-0.6-0.2c-0.1,0-0.3-0.1-0.4-0.1
		c0,0,0,0-0.1,0c-0.2,0-0.3-0.1-0.5-0.1c-0.2,0-0.3,0-0.4,0c-0.6,0-1.2,0.2-1.7,0.6c-0.2,0.2-0.4,0.3-0.6,0.5
		c-0.2,0.2-0.4,0.3-0.6,0.5c-0.3,0.3-0.5,0.5-0.8,0.8c0,0,0,0,0,0c-0.5,0.6-1.1,1.2-1.6,1.8c-0.2,0.3-0.5,0.6-0.7,1
		c-0.4,0.5-0.8,1.1-1.2,1.6c-0.3,0.4-0.5,0.8-0.8,1.1c0,0.1-0.1,0.1-0.1,0.2c-0.1,0.1-0.2,0.3-0.3,0.4c-0.1,0.2-0.3,0.3-0.4,0.5
		c-0.8,1-1.5,2-2.2,2.9c-0.4,0.5-0.7,1-1.1,1.4c-1.4,1.8-2.7,3.6-4,5.5c-1.1,1.6-2.2,3.1-3.3,4.7c-0.3,0.5-0.7,0.9-0.9,1.4
		c-0.5,0.8-0.6,1.8,0.1,2.9c0.4,0.6,1.3,1.2,1.8,1.6c2.9,2.4,5.7,4.8,8.4,7.4c4,3.7,8.1,7.6,11.7,11.7
		C37.9,169.1,39.8,163.6,41.9,158.1z"/>
	<path class="st2" d="M111.1,52.5c0.1,0,0.1,0,0.2,0c1.8,0.1,3.5,0.3,5.3,0.7c0-2.3,0-4.7-0.1-6.9c-0.1-4.8-0.3-9.6-0.4-14.3
		c0-0.8,0-1.5-0.1-2.3c-0.1-4-0.2-8-0.4-12c0-1.1-0.1-2.1-0.1-3.2c-0.1-1.4-0.1-2.8-0.3-4.1c0-0.5-0.1-1-0.1-1.6
		c-0.1-1.9-0.4-4.2-1.3-5.6c-0.5-0.7-0.9-1-1.3-1.1c-0.1,0-0.1,0-0.2,0c-0.3,0-0.7,0.2-0.9,0.5c-1,1.2-1.6,4.1-1.9,5
		c-0.6,2.5-1.3,4.9-1.9,7.4c-0.7,2.8-1.3,5.5-2,8.3c-0.4,1.8-0.9,3.7-1.3,5.5c-1.4,6.3-2.5,12.8-3.9,19.2c-0.3,1.6-0.7,3.2-1,4.8
		c1.3-0.1,2.6-0.2,3.9-0.2C106.1,52.3,108.6,52.3,111.1,52.5z"/>
	<path class="st3" d="M58.7,117.9c3.3-0.1,6.7-0.1,10-0.2c0,0,0,0,0,0c0.1-0.1,0.3-0.1,0.3,0c6.4-0.1,12.8-0.1,19.2,0
		c0.5,0,1,0,1.5,0c11,0.1,22.1,0.4,33.1,1c0.4,0,0.8,0,1.3,0.1c6.2,0.3,12.3,0.6,18.5,1c4.1-9.9,5.2-20.5,2.9-31.4
		c-0.1-0.2-0.1-0.5-0.2-0.7c0-0.2-0.1-0.4-0.1-0.6c-0.1-0.5-0.2-1-0.4-1.5c-0.1-0.5-0.3-1-0.4-1.5c-0.1-0.2-0.1-0.4-0.2-0.6
		c0-0.2-0.1-0.3-0.2-0.5c-2.7-8.9-7.7-17.5-15.2-23.1c-0.6-0.4-1.2-0.8-1.8-1.2c-0.4-0.3-0.9-0.5-1.3-0.8c-2.4-1.4-4.9-2.3-7.5-3
		c-0.2,0-0.3-0.1-0.5-0.1c-0.4-0.1-0.9-0.2-1.3-0.3c-1.2-0.2-2.4-0.4-3.6-0.5c-0.6-0.1-1.3-0.1-1.9-0.1c-0.1,0-0.2,0-0.2,0
		c-0.4,0-0.7,0-1.1,0c-0.4,0-0.8,0-1.2,0c-0.6,0-1.1,0-1.7,0c-0.1,0-0.2,0-0.2,0c-2.5,0-4.9,0.1-7.4,0.2c-0.5,0-0.9,0.1-1.4,0.1
		c-2.6,0.2-5.2,0.5-7.7,0.9c-0.5,0.1-1,0.2-1.4,0.3c-6.4,1.3-11.5,4.2-16.1,8.6c-0.4,0.4-0.8,0.8-1.2,1.2c-0.3,0.3-0.5,0.6-0.8,0.9
		c-2.4,2.6-4.8,5.3-6.8,8.3c-1.5,2.2-2.8,4.5-3.9,7c-0.6,1.3-1.1,2.7-1.5,4.1c-1.1,3.8-1.7,7.7-1.8,11.6c-0.1,1.5-0.1,2.9,0,4.4
		c0,0.9,0.1,1.9,0.2,2.8c0.4,4.7,1.2,9.2,1.7,13.9C58.5,117.9,58.6,117.9,58.7,117.9z M120.4,62.2c2.9-0.2,3.8,3.2,2.2,5.3
		c-1.4,1.8-4.5,1.9-5.6-0.2c-0.1-0.2-0.2-0.3-0.2-0.5C116.1,64.5,118.2,62.3,120.4,62.2z M110.7,67c1.8-1.5,4.9-1,5.5,1.5
		c0.6,2.6-2.1,4.4-4.4,4C109,72.2,108.7,68.8,110.7,67z M102.2,68.8c1.8-1.5,5-1,5.5,1.5c0.6,2.6-2.1,4.4-4.4,4
		C100.5,73.9,100.2,70.5,102.2,68.8z M96.4,66.9c2.9-0.2,3.6,3.5,2,5.4c-1.4,1.7-4.5,1.9-5.5-0.3c-0.1-0.2-0.2-0.4-0.2-0.7
		C91.9,69.1,94.3,67,96.4,66.9z M88.7,63c2.9-0.2,3.6,3.5,2,5.4c-1.4,1.7-4.5,1.9-5.5-0.3c-0.1-0.2-0.2-0.4-0.2-0.7
		C84.2,65.2,86.7,63.1,88.7,63z"/>
	<path class="st4" d="M85.2,68c1,2.2,4.2,2.1,5.5,0.3c1.5-1.9,0.9-5.6-2-5.4c-2.1,0.1-4.6,2.2-3.7,4.4C85.1,67.6,85.2,67.8,85.2,68z
		"/>
	<path class="st4" d="M92.9,71.9c1,2.2,4.2,2.1,5.5,0.3c1.5-1.9,0.9-5.6-2-5.4c-2.1,0.1-4.6,2.2-3.7,4.4
		C92.8,71.5,92.8,71.7,92.9,71.9z"/>
	<path class="st4" d="M103.4,74.4c2.3,0.3,5-1.4,4.4-4c-0.6-2.5-3.7-3-5.5-1.5C100.2,70.5,100.5,73.9,103.4,74.4z"/>
	<path class="st4" d="M111.9,72.6c2.3,0.3,5-1.5,4.4-4c-0.6-2.4-3.7-3-5.5-1.5C108.7,68.8,109,72.2,111.9,72.6z"/>
	<path class="st4" d="M117,67.3c1.1,2.1,4.2,2,5.6,0.2c1.5-2,0.7-5.5-2.2-5.3c-2.2,0.2-4.3,2.3-3.6,4.6
		C116.9,66.9,116.9,67.1,117,67.3z"/>
	<path class="st4" d="M185.4,127.7L185.4,127.7c0.2-0.2,0.3-0.4,0.5-0.6c1.2-1.5,2.4-3.1,3.6-4.6c3.7-1.5,8.1-3,11.1-5.7
		c0.3-0.3,0-0.8-0.4-0.7c-1.9,0.6-3.7,1.7-5.5,2.5c-1.2,0.6-2.5,1.2-3.7,1.8c2.1-2.7,4.2-5.5,6-8.4c0.2-0.3-0.2-0.6-0.5-0.4
		c-2.3,2.5-4.4,5.1-6.5,7.8c0.5-2.7,1-5.5,0.9-8.1c0-0.3-0.4-0.3-0.5-0.1c-1.1,3.3-1.3,6.9-2,10.3c-1.2,1.6-2.4,3.2-3.6,4.8
		c-0.3,0.5-0.7,0.9-1,1.4h0c-1.5,2-3.1,4-4.6,6c-0.6,0.8-1.3,1.6-2,2.5c-2.4-2.9-4.7-5.8-7.2-8.5c-1.6-1.6-3.2-3.2-5.1-4.6
		c-1.2-0.9-2.3-1.7-3.9-1.2c-0.3,0.1-0.6,0.2-0.9,0.4c-1.7,0.8-3.3,2.1-4.7,3.2c-0.9,0.7-1.8,1.5-2.6,2.2c-1.6,1.5-3.1,3.1-4.5,4.9
		c-0.5-1.6-1-3.2-1.4-4.9c-0.6-2.2-1.3-4.3-1.9-6.5c-0.1-0.5-0.3-0.9-0.4-1.4c0,0,0,0,0,0c3.6-8.5,4.3-18.4,3.1-27.3
		c-1.6-12-6.8-24.3-16.1-32.4c-4-3.4-8.5-5.5-13.2-6.6c-0.1-1.9-0.2-3.8-0.3-5.6c-0.1-4.6-0.3-9.2-0.4-13.8
		c-0.3-8.7,0-17.6-1.1-26.2c-0.3-2.4-0.5-6.4-3-7.7c-0.4-0.2-0.9-0.3-1.3-0.3c-0.4,0-0.8,0.1-1.1,0.3c-0.8,0.4-1.5,1.3-1.9,2.2
		c-1.6,3.6-2.2,8.1-3.1,11.9c-1.1,4.4-2.1,8.8-3.1,13.3c-1.8,8.2-3.9,16.6-5,25c-1.4,0.1-2.9,0.3-4.3,0.4c-1.8,0.2-3.6,0.5-5.3,0.8
		c-4.6,0.9-9,2.6-12.9,5.6c-5.3,4.1-10,9.5-13.6,15.1c-8.3,12.9-7.9,29.9-4.3,44.4c-1.4,2.8-2.7,5.7-3.9,8.6
		c-1.2,3.1-2.4,6.2-3.4,9.3c-2.1-2.3-4.6-4.5-6.8-6.5c-1-0.9-2-1.9-3.1-2.8c-0.9-0.8-1.8-1.6-2.8-2.3c-1-0.8-2-1.5-3.4-1.4
		c-1.9,0.2-3.6,1.9-5,3.7c-1,1.3-1.9,2.6-2.6,3.5c-1.5,1.9-3,3.7-4.5,5.6c-2.2-2.5-4.4-4.9-6.5-7.5c-0.4-0.5-0.9-1.1-1.3-1.6h0
		c-0.9-1.2-1.9-2.4-2.8-3.6c0-0.1,0-0.1,0-0.2c-0.6-4.4-0.7-9-1.7-13.3c-0.1-0.3-0.5-0.2-0.5,0.1c-0.5,3.7,0,7.5,0.6,11.3
		c-1.7-2.3-3.5-4.6-5.2-6.8c-0.3-0.4-0.9,0.1-0.7,0.5c1.5,2.4,3.1,4.8,4.8,7.1c-2.9-0.9-5.7-1.9-8.5-3.1c-0.3-0.1-0.5,0.4-0.2,0.5
		c3.2,1.9,6.5,3.3,10.1,4.3c0.8,1,1.6,2.1,2.4,3.1h0c0.5,0.6,1,1.3,1.5,1.9c2.3,2.9,4.6,5.9,7.1,8.7c-0.9,1.2-1.9,2.5-2.8,3.7
		c-1.4,2-2.8,3.9-4.2,5.9c-0.9,1.2-2.1,2.6-2.3,4.1c-0.5,3.3,4,5.6,6.1,7.4c6.2,5.3,11.9,11.1,17.7,16.9c-2.3,7.2-4.6,14.4-6.8,21.6
		c-3.3,10.7-6.5,21.5-8.9,32.5c-0.5,2.4-1,4.9-1.4,7.3c-0.3,1.6-0.6,3.1,0.2,4.6c1.8,3.4,6.2,6.3,9.4,8.4
		c-0.1,14.1,3.4,27.4,12.3,38.9c5.8,7.5,13.1,13.5,21.3,18.1c5.1,2.9,10.6,5.1,16.3,6.8c15.8,4.8,33.7,5.9,49.9,2.1
		c14.7-3.4,27.7-12.2,36.9-24c5.4-6.9,9.4-14.8,12.2-23.2c0.3-1.1,0.7-2.2,1-3.3c0.9-3,1.7-6.2,2.2-9.4c0.4-0.1,0.8-0.2,1.2-0.3
		c2.5-0.6,7.2-0.8,8.9-3.1c1.6-2.1,0.3-5.9-0.2-8.1c-0.9-4.4-2.2-8.8-3.6-13.1c-5.4-17.4-11-34.7-16.6-52c-0.5-1.6-1-3.2-1.5-4.8
		c1.8-1.8,3.6-3.7,5.5-5.5c3.8-3.7,7.7-7.3,11.2-11.2c1.8-2.1,5.7-5.8,4.9-8.9c-0.4-1.4-1.6-2.4-2.7-3.2c-1.7-1.4-3.4-2.9-4.9-4.5
		c-1.4-1.5-2.8-3.1-4.2-4.8c0.6-0.8,1.2-1.6,1.7-2.3C181.7,132.5,183.5,130.1,185.4,127.7z M99.6,52.6c0.4-1.6,0.7-3.2,1-4.8
		c1.3-6.4,2.5-12.8,3.9-19.2c0.4-1.8,0.8-3.7,1.3-5.5c0.6-2.8,1.3-5.5,2-8.3c0.6-2.5,1.2-4.9,1.9-7.4c0.2-0.9,0.8-3.8,1.9-5
		c0.3-0.3,0.6-0.5,0.9-0.5c0.1,0,0.1,0,0.2,0c0.4,0.1,0.8,0.4,1.3,1.1c0.9,1.3,1.1,3.7,1.3,5.6c0,0.6,0.1,1.2,0.1,1.6
		c0.1,1.4,0.2,2.8,0.3,4.1c0,1.1,0.1,2.1,0.1,3.2c0.1,4,0.2,8,0.4,12c0,0.8,0,1.5,0.1,2.3c0.1,4.8,0.3,9.6,0.4,14.3
		c0.1,2.3,0,4.6,0.1,6.9c-1.7-0.3-3.5-0.5-5.3-0.7c-0.1,0-0.1,0-0.2,0c-2.5-0.2-5.1-0.2-7.6-0.1C102.2,52.5,100.9,52.5,99.6,52.6
		C99.6,52.6,99.6,52.6,99.6,52.6z M56.8,104.1c-0.1-0.9-0.1-1.9-0.2-2.8c0-1.5,0-2.9,0-4.4c0.1-3.9,0.7-7.8,1.8-11.6
		c0.4-1.4,0.9-2.8,1.5-4.1c1.1-2.4,2.4-4.7,3.9-6.9c2-3,4.3-5.7,6.8-8.3c0.3-0.3,0.5-0.6,0.8-0.9c0.4-0.4,0.8-0.8,1.2-1.2
		c4.6-4.4,9.7-7.4,16.1-8.6c0.5-0.1,0.9-0.2,1.4-0.3c2.5-0.4,5.1-0.7,7.7-0.9c0.5,0,0.9-0.1,1.4-0.1c2.5-0.1,5-0.2,7.4-0.2
		c0.1,0,0.2,0,0.2,0c0.6,0,1.1,0,1.7,0c0.4,0,0.8,0,1.2,0c0.4,0,0.7,0,1.1,0c0.1,0,0.2,0,0.2,0c0.6,0,1.3,0.1,1.9,0.1
		c1.2,0.1,2.4,0.3,3.6,0.5c0.4,0.1,0.9,0.2,1.3,0.3c0.2,0,0.3,0.1,0.5,0.1c2.6,0.6,5.1,1.6,7.5,3c0.4,0.3,0.9,0.5,1.3,0.8
		c0.6,0.4,1.2,0.8,1.8,1.2c7.5,5.6,12.4,14.2,15.2,23.1c0,0.2,0.1,0.3,0.2,0.5c0.1,0.2,0.1,0.4,0.2,0.6c0.1,0.5,0.3,1,0.4,1.5
		c0.1,0.5,0.2,1,0.4,1.5c0,0.2,0.1,0.4,0.1,0.6c0,0,0,0,0,0c0.1,0.2,0.1,0.5,0.2,0.7c2.3,10.9,1.2,21.5-2.9,31.4
		c-6.2-0.4-12.3-0.7-18.5-1c-0.4,0-0.8,0-1.3-0.1c-11-0.5-22.1-0.8-33.1-1c-0.5,0-1,0-1.5,0c-6.4,0-12.8,0-19.2,0
		c-0.1-0.1-0.3-0.1-0.3,0c0,0,0,0,0,0h0c-3.3,0-6.7,0.1-10,0.2c-0.1,0-0.1,0-0.2,0.1C57.9,113.3,57.1,108.7,56.8,104.1z M84.2,143.8
		c4.9,0.1,9.9,0,14.8-0.4c1.5-0.1,2.9-0.2,4.4-0.3c0,0.3,0,0.6,0,0.9c-0.8,0-1.7-0.1-2.5-0.1c-7.7,0-14.9,1.7-21.5,4.6
		c0.4-1.5,0.8-3,1.2-4.4c0-0.1,0.1-0.3,0.1-0.4C81.9,143.7,83.1,143.7,84.2,143.8z M81.2,142.2c0.3-1.2,0.7-2.4,1.1-3.6
		c0-0.1,0.1-0.2,0.1-0.3c0.4-1.1,0.7-2.3,1.1-3.4c0.8-2.4,1.6-4.8,2.5-7.2c0.5-1.4,1-2.7,1.5-4.1c0.6-1.5,1.2-3,1.8-4.5
		c0.9,0,1.7,0,2.6,0c0,0,0,0,0.1,0c-3.3,7.5-5.6,15.3-7.3,23.2C83.4,142.2,82.3,142.2,81.2,142.2z M100.9,144.9
		c28.4,0,51.5,23.1,51.5,51.5c0,28.4-23.1,51.5-51.5,51.5s-51.5-23.1-51.5-51.5C49.4,168,72.5,144.9,100.9,144.9z M24.4,163
		c-2.7-2.5-5.5-5-8.4-7.4c-0.5-0.4-1.4-1-1.8-1.6c-0.7-1.2-0.6-2.1-0.1-2.9c0.3-0.5,0.6-0.9,0.9-1.4c1.1-1.6,2.2-3.1,3.3-4.7
		c1.3-1.8,2.7-3.7,4-5.5c0.4-0.5,0.7-0.9,1.1-1.4c0.7-1,1.5-2,2.2-2.9c0.1-0.2,0.3-0.3,0.4-0.5c0.1-0.1,0.2-0.3,0.3-0.4
		c0-0.1,0.1-0.1,0.1-0.2c0.3-0.4,0.6-0.7,0.8-1.1c0.4-0.5,0.8-1.1,1.2-1.6c0.2-0.3,0.5-0.7,0.7-1c0.1-0.1,0.1-0.2,0.2-0.2
		c0.2-0.2,0.4-0.5,0.6-0.7c0.3-0.3,0.5-0.6,0.8-0.9c0,0,0,0,0,0c0.1-0.1,0.3-0.3,0.4-0.4l0.4-0.4c0.2-0.2,0.4-0.4,0.6-0.5
		c0.2-0.2,0.4-0.3,0.6-0.5c0.5-0.4,1.1-0.6,1.7-0.6c0.1,0,0.3,0,0.4,0c0.1,0,0.3,0,0.5,0.1c0,0,0,0,0.1,0c0.1,0,0.3,0.1,0.4,0.1
		l0.6,0.2c0.3,0.1,0.6,0.3,0.9,0.5c0.3,0.2,0.7,0.4,1,0.7h0c0,0,0,0,0.1,0.1c0,0,0.1,0.1,0.1,0.1c0.2,0.1,0.4,0.3,0.6,0.5
		c0,0,0.1,0,0.1,0.1v0c0.1,0.1,0.2,0.2,0.3,0.3c0.1,0.1,0.2,0.2,0.3,0.3c0.3,0.3,0.7,0.6,1,0.9c0.1,0.1,0.2,0.2,0.3,0.3
		c0.1,0.1,0.2,0.2,0.3,0.3c0.1,0.1,0.1,0.1,0.2,0.2l0.4,0.4c0.1,0.1,0.2,0.2,0.3,0.3c0.3,0.3,0.7,0.7,0.9,1c0,0,0,0,0,0
		c0.1,0.1,0.3,0.3,0.4,0.4c0,0,0.1,0.1,0.1,0.1c0.1,0.1,0.2,0.2,0.2,0.2c2,1.9,3.8,4,5.8,5.9c-2.9,6.3-5.5,12.7-7.9,19.2
		c-2,5.5-4,11-5.8,16.6C32.4,170.5,28.4,166.7,24.4,163z M28,249.4c-1.3-0.9-2.6-1.8-3.9-2.9c-2-1.7-4.8-3.9-4.7-6.6
		c0-2.6,0.9-5.5,1.5-8c2.1-9.9,5-19.7,7.9-29.4c2.5-8.4,5.1-16.8,7.8-25.1c0.2-0.5,0.3-1.1,0.5-1.6c1.9-5.9,3.9-11.8,6.1-17.7
		c2.3-6.2,4.7-12.4,7.4-18.4c0.2-0.4,0.3-0.8,0.5-1.1c0.3,0.1,0.6,0.2,0.9,0.3c1.1,0.4,2.2,0.7,3.3,1c-2.8,5.6-4.9,11.7-7.5,17.4
		c-0.1,0.2-0.1,0.3-0.2,0.5c-2.7,6.1-5.4,12.1-8.3,18c-0.2,0.5-0.6,1-0.9,1.6c-0.2,0.4-0.4,0.9-0.5,1.3c-0.2,0.6-0.2,1.3,0.1,1.9
		c0.9,1.8,4,3.2,5.7,4c1.8,0.9,3.7,1.6,5.7,2.2c-0.6,3.2-0.9,6.4-0.9,9.8c0,27.9,21.8,50.7,49.3,52.4c0,0.7-0.1,1.4-0.1,2.2
		c-0.2,2.5,0.1,6.9-1.7,8.7c-1.7,1.7-5.1,1.3-7.3,1.3c-2.6,0.1-5.3,0-7.9-0.1c-5.2-0.2-10.3-0.3-15.5-0.7
		c-10.1-0.7-20.2-2.3-29.5-6.5c-1.9-0.9-3.7-1.9-5.5-2.9c-0.3-0.2-0.7-0.4-1-0.6C28.7,249.9,28.4,249.7,28,249.4z M176,264.8
		c-0.2,0.6-0.4,1.3-0.5,1.9c-2,7-5,13.7-8.9,19.8c-7.7,12-19.2,21.9-32.7,26.8c-15.3,5.5-33.3,5.1-49.1,1.6
		c-5.1-1.1-10.2-2.7-15-4.7c-9-3.8-17.3-9.2-24.1-16.3c-5.6-5.9-10.2-12.9-13-20.6c-2.6-7.1-3.3-14.4-3.5-21.9
		c1.1,0.7,2.2,1.3,3.4,1.9c7.1,3.7,14.9,5.8,22.8,6.9c10.5,1.5,21.5,2,32.1,1.9c3.1,0,9,0.9,10.5-2.7c0.7-1.7,0.7-4,0.9-5.7
		c0.2-1.6,0.3-3.2,0.4-4.8c0.1,0,0.1,0,0.2,0c0,0.5,0,0.9,0,1.4c0,1.8-0.3,3.9,0.3,5.6c0.9,2.5,3.1,3,5.5,3.4c0.2,0,0.3,0.1,0.5,0.1
		c4.2,0.7,8.4,1.2,12.6,1.6c16.8,1.6,33.8,0.9,50.4-1.9c1.6-0.3,3.2-0.6,4.7-0.9c1.3-0.3,2.6-0.5,4-0.8
		C177.2,259.9,176.7,262.3,176,264.8z M179.3,215.9c2.4,7.6,5,15.2,7.2,22.9c1,3.6,2.1,7.4,2.6,11.2c0.4,3-2,3.6-4.2,4.2
		c-1.5,0.4-3.1,0.8-4.6,1.2c-0.8,0.2-1.6,0.4-2.4,0.6c0,0,0,0-0.1,0c-1.3,0.3-2.5,0.5-3.8,0.8c-14.1,2.9-28.5,4.2-42.9,3.9
		c-4.6-0.1-9.1-0.4-13.6-0.8c-4.3-0.4-9-0.5-13.2-1.7c-0.1,0-0.2-0.1-0.3-0.1c-3.9-1.3-3.5-4.3-3.5-7.7c0-0.5,0-0.9,0-1.4
		c0.2,0,0.3,0,0.5,0c28.9,0,52.5-23.5,52.5-52.5c0-27.6-21.4-50.3-48.5-52.3c0-0.4,0-0.8,0-1.1c7-0.6,14.1-1.4,21.1-2.4
		c7.5-1,15-2.2,22.5-3.3c0.9,1.5,2.1,3,3.3,4.4c1.3,1.6,2.7,3.2,3.9,4.8c4.4,6.2,6.1,14.2,8.4,21.4c0.7,2.3,1.5,4.6,2.2,6.9
		c0.2,0.7,0.4,1.4,0.7,2.1c0,0.1,0,0.2,0.1,0.2C171,190,175.1,202.9,179.3,215.9z M181.5,143.3c1.2,1.3,2.5,2.5,3.9,3.6
		c1.8,1.5,3.9,2.8,2.5,5.4c-2,3.6-5.2,6.6-8.1,9.4c-3,2.9-6,5.7-9.1,8.6c-1,1-2,1.9-3,2.9c-2.2-7.3-4.3-14.7-7.3-21.7
		c-1.7-4-4.4-7.2-7.1-10.5c-1.5-1.8-2.9-3.6-4.1-5.5c-0.2-0.6-0.4-1.3-0.6-1.9c0.5-0.5,0.9-1.1,1.4-1.6c0.2-0.2,0.3-0.3,0.5-0.5
		c0.1-0.1,0.3-0.3,0.4-0.4c0.2-0.2,0.4-0.4,0.6-0.6c1-1,2.1-2,3.2-2.9c0.2-0.1,0.4-0.3,0.5-0.4c0.3-0.2,0.5-0.4,0.8-0.7
		c1.3-1,3-2.5,4.6-3c0.1,0,0.3-0.1,0.4-0.1c2.5-0.5,4.7,2.1,6.3,3.7c0.2,0.2,0.4,0.4,0.5,0.6c0.4,0.4,0.9,0.9,1.3,1.4
		c0.7,0.7,1.3,1.4,1.9,2.1c0.6,0.7,1.2,1.5,1.9,2.2c0.4,0.5,0.8,1,1.2,1.5c0.1,0.2,0.3,0.3,0.4,0.5c0.5,0.7,1.1,1.3,1.6,2
		c0.3,0.3,0.6,0.7,0.9,1C178.6,140.1,180,141.7,181.5,143.3z"/>
	<path class="st3" d="M168.8,259.1c-16.6,2.8-33.6,3.5-50.4,1.9c-4.2-0.4-8.5-0.9-12.6-1.6c-0.2,0-0.3-0.1-0.5-0.1
		c-2.3-0.4-4.6-0.9-5.5-3.4c-0.6-1.7-0.3-3.8-0.3-5.6c0-0.5,0-0.9,0-1.4c-0.1,0-0.1,0-0.2,0c-0.1,1.6-0.2,3.2-0.4,4.8
		c-0.2,1.8-0.2,4.1-0.9,5.7c-1.5,3.6-7.4,2.7-10.5,2.7c-10.6,0.1-21.6-0.4-32.1-1.9c-7.9-1.1-15.7-3.2-22.8-6.9
		c-1.2-0.6-2.3-1.2-3.4-1.9c0.2,7.4,0.9,14.8,3.5,21.9c2.8,7.7,7.4,14.7,13,20.6c6.8,7.1,15.1,12.5,24.1,16.3c4.8,2,9.9,3.6,15,4.7
		c15.8,3.5,33.7,3.9,49.1-1.6c13.5-4.9,25-14.8,32.7-26.8c3.9-6.1,6.9-12.8,8.9-19.8c0.2-0.6,0.4-1.3,0.5-1.9
		c0.7-2.5,1.1-4.9,1.5-7.4c-1.3,0.3-2.6,0.6-4,0.8C172,258.5,170.4,258.8,168.8,259.1z"/>
	<path class="st2" d="M166.8,176.9c-0.2-0.7-0.4-1.4-0.7-2.1c-0.7-2.3-1.5-4.6-2.2-6.9c-2.3-7.2-4-15.2-8.4-21.4
		c-1.2-1.7-2.6-3.2-3.9-4.8c-1.2-1.4-2.3-2.8-3.3-4.4c-7.5,1.1-14.9,2.3-22.5,3.3c-7,0.9-14,1.8-21.1,2.4c0,0.4,0,0.8,0,1.1
		c27.1,2,48.5,24.7,48.5,52.3c0,28.9-23.5,52.5-52.5,52.5c-0.2,0-0.3,0-0.5,0c0,0.5,0,0.9,0,1.4c0.1,3.4-0.4,6.4,3.5,7.7
		c0.1,0,0.2,0.1,0.3,0.1c4.1,1.2,8.9,1.3,13.2,1.7c4.5,0.4,9.1,0.7,13.6,0.8c14.4,0.3,28.8-1,42.9-3.9c1.3-0.3,2.5-0.5,3.8-0.8
		c0,0,0,0,0.1,0c0.8-0.2,1.6-0.4,2.4-0.6c1.6-0.4,3.1-0.8,4.6-1.2c2.2-0.6,4.6-1.2,4.2-4.2c-0.5-3.8-1.5-7.6-2.6-11.2
		c-2.2-7.7-4.8-15.3-7.2-22.9c-4.1-12.9-8.3-25.8-12.4-38.7C166.9,177,166.8,177,166.8,176.9z"/>
	<path class="st2" d="M35.6,253.6c9.3,4.2,19.4,5.7,29.5,6.5c5.2,0.4,10.3,0.5,15.5,0.7c2.6,0.1,5.3,0.2,7.9,0.1
		c2.3,0,5.7,0.3,7.3-1.3c1.8-1.8,1.5-6.2,1.7-8.7c0.1-0.7,0.1-1.4,0.1-2.2c-27.4-1.7-49.3-24.5-49.3-52.4c0-3.3,0.3-6.6,0.9-9.8
		c-2-0.5-4-1.3-5.7-2.2c-1.7-0.8-4.8-2.2-5.7-4c-0.3-0.6-0.3-1.2-0.1-1.9c0.1-0.4,0.3-0.9,0.5-1.3c0.3-0.6,0.6-1.1,0.9-1.6
		c2.8-6,5.6-12,8.3-18c0.1-0.2,0.1-0.3,0.2-0.5c2.5-5.7,4.6-11.8,7.5-17.4c-1.1-0.3-2.2-0.6-3.3-1c-0.3-0.1-0.6-0.2-0.9-0.3
		c-0.2,0.4-0.3,0.8-0.5,1.1c-2.7,6.1-5.1,12.2-7.4,18.4c-2.1,5.8-4.2,11.7-6.1,17.7c-0.2,0.5-0.3,1.1-0.5,1.6
		c-2.7,8.3-5.2,16.7-7.8,25.1c-2.9,9.7-5.8,19.5-7.9,29.4c-0.5,2.5-1.5,5.4-1.5,8c0,2.7,2.8,5,4.7,6.6c1.2,1.1,2.5,2,3.9,2.9
		c0.4,0.3,0.7,0.5,1.1,0.7c0.3,0.2,0.6,0.4,1,0.6C31.9,251.8,33.7,252.8,35.6,253.6z"/>
	<path class="st2" d="M80.6,144.1c-0.4,1.5-0.8,3-1.2,4.4c6.6-3,13.8-4.6,21.5-4.6c0.8,0,1.7,0,2.5,0.1c0-0.3,0-0.6,0-0.9
		c-1.5,0.1-2.9,0.2-4.4,0.3c-4.9,0.3-9.9,0.5-14.8,0.4c-1.2,0-2.3,0-3.5-0.1C80.7,143.8,80.7,143.9,80.6,144.1z"/>
</g>
</svg>
