<?xml version="1.0" encoding="utf-8"?>
<!-- Generator: Adobe Illustrator 23.0.4, SVG Export Plug-In . SVG Version: 6.00 Build 0)  -->
<svg version="1.1" id="Deer" xmlns="http://www.w3.org/2000/svg" xmlns:xlink="http://www.w3.org/1999/xlink" x="0px" y="0px"
	 viewBox="0 0 189.5 303.6" style="enable-background:new 0 0 189.5 303.6;" xml:space="preserve">
<style type="text/css">
	#Deer .st0{fill:none;}
	#Deer .st1{fill:#E585AC;}
</style>
<g>
	<path class="st0" d="M103.7,134.2c-31.5,0-59,17.5-73.2,43.3c-0.4,0.8-0.8,1.5-1.2,2.3c-5.8,11.4-9.1,24.3-9.1,38
		c0,46.1,37.5,83.6,83.6,83.6s83.6-37.5,83.6-83.6C187.3,171.7,149.8,134.2,103.7,134.2z"/>
	<path class="st0" d="M103.7,132c10.6,0,20.7,1.9,30,5.4c1.5-1,3.4-1.5,3.7-3.5c0.2-1.1,0.5-1.7,1.2-2.1c0-0.1,0-0.1,0.1-0.1
		c2.6-2.5,4.8-5.5,6.3-8.8c2.5-5.5,2.9-11.6,3.2-17.6c0-0.2,0-0.4,0-0.7c0,0,0-0.1,0-0.1c-0.3,1.3-0.6,2.7-1,4
		c-1.8,6.1-4.9,13.2-11.3,15.4c-1.7,1.2-3.8,1.8-5.7,2.4c-0.6,0.2-2.2,1-2.8,0.4c-0.3-0.3-0.4-0.9-0.6-1.2c-0.3-0.7-0.6-1.4-0.9-2.1
		c-0.1-0.1,0.1-0.2,0.2-0.2c2.2-0.3,4.2-0.7,5.6-2.5c0.6-0.7,1.3-1.1,2.1-1.2c0.4-0.6,1.1-0.8,1.7-1.2c2.6-1.4,4.3-3.9,5.5-6.5
		c1.2-2.7,2.1-5.6,2.6-8.5c0.1-0.5,0.2-1.1,0.2-1.6c-0.2,0.1-0.4,0.2-0.6,0.3c-1.9,0.8-3.6,1.9-5.4,2.9c-1.2,0.7-2.4,1.5-3.5,2.3
		c-8.6,4-18.3,5.9-27.8,5.1c-1.7-0.1-3.3-0.3-5-0.3c-1.7,0-3.4,0.3-5.1,0.6c-5.9,1-13.2,0.9-18.1,4.7c-0.9,0.7-1.7,1.4-2.5,2.2
		c-2.4,3.8-5.1,7.5-8.4,10.6c-4,3.7-8.9,6.6-14.3,7.4c-2.4,0.3-4.8,0-7.1,0.6c-1.2,0.3-2.3,1.1-2.6,2.3c-0.7,2.7-0.3,5.4-0.6,8.1
		c-0.2,2.6-0.8,5.2-1.6,7.6c-0.6,1.8-1.2,3.5-2,5.2C54.9,143.4,78,132,103.7,132z"/>
	<path class="st1" d="M137.8,139c1.6-1.3,3-2.8,4.3-4.5c4.5-4.3,6.9-10.3,8.5-16.2c1.2-4.5,2.1-9,3-13.5c0.7-4,2-8.5,1.5-12.6
		c-0.1-1.1-0.6-2.2-1.5-2.9c-1.1-0.8-2.4-0.8-3.7-0.8c-3.3,0-6.6,0.4-9.8,1.3c-0.5,0.1-1,0.3-1.5,0.4c-0.3,0.1-1.2,0.2-1.3,0.4
		c3.1-5,3.9-11.6,2.5-17.4c-2.5-9.6-10.2-15.8-17.1-22.2c-2.4-2.2-4-6.1-7-7.5c0.5,0.2,1,0.5,1.5,0.7c2.6,1.2,6,1.6,8.9,1.6
		c1.8,0,3.7-0.7,3.8-2.7c0.1-1-0.2-2-0.6-2.9c-1.5-2.8-5.2-3.4-7.7-4.8c-2.6-1.5-4.9-4.3-7.9-4.6c-0.7-0.2-1.4-0.3-2.2-0.4
		c-1.4-0.1-2.9,0-4.2,0.4c0.3-0.1,0.9-1.6,1.1-1.9c0.4-0.7,0.8-1.2,0.6-2.1c-0.4-2.7-4.7-2.8-4.8,0.1c0,0.5,0,1.1-0.3,1.5
		c-2.2-0.8-3.9-3.6-4.2-5.8c-0.3-2-1.3-4.2-3-5.3c-0.4-0.3-1.5-0.8-2-0.6c-0.8,0.4-0.1,1.3,0.1,1.9c0.4,1.1,0.5,2.5-0.1,3.6
		c-0.1,0.1-0.1,0.3-0.3,0.3c-0.1,0.1-0.3,0.1-0.5,0c-1.5-0.3-2.6-1.7-2.8-3.2c-0.4-4.5-0.7-8.8-2.7-13C87.9,5.7,86,2,85.7,4.5
		c-0.2,1.4,0.1,3,0.4,4.3c0.6,2.5,2.6,6,1.7,8.6c-0.1,0.2-0.1,0.3-0.3,0.4c-0.2,0.2-0.6,0.3-1,0.2c-0.6-0.2-1.2-0.6-1.7-1
		c-2.6-2.1-3.6-5.3-4.1-8.5c-0.2-1.6-0.4-3.3-0.6-4.9C80.1,3.1,80.1-0.2,79,0c-1.2,0.2-1,2.5-1,3.3c0,1.4,0.1,2.7-0.1,4.1
		c0,0.3-0.1,0.6-0.4,0.7c-1.1,0.4-4.1-4.7-4.7-5.5c-0.6-0.8-1.1-1.8-1.9-2.4c-1-0.7-1.6-0.2-1.6,0.9c0.1,1.3,0.9,2.6,1.6,3.6
		c2.3,3.5,4.7,6.8,7.3,10.1c1.3,1.6,2.7,3.2,4.1,4.8c0.7,0.8,1.4,1.5,2.1,2.2c0.5,0.5,1.5,1.1,1.5,1.9c0,1.3-2.7,0.4-3.4,0.3
		c-1.7-0.5-3.1-1.5-3.8-3.1c-0.5-1.2-0.8-2.4-1.2-3.7c-0.4-1.4-1.1-2.7-2.2-3.7c-0.9-0.8-2-1.1-2.3,0.4c-0.2,1.5,0.4,3.3,1.1,4.6
		c0.4,0.6,2.5,3.2,0.8,3.5c-0.4,0.1-0.7-0.1-1.1-0.2c-2.8-1.1-5.1-3.3-6.5-6c-1.3-2.6-1.9-5.9-4.5-7.6c-0.1-0.1-0.3,0-0.4,0.1
		c-1,1.4-0.7,3,0,4.5c0.6,1.1,1.3,2.2,1.8,3.4c0.1,0.2,0.1,0.5,0.1,0.7c0,0.2-0.2,0.5-0.4,0.6c-0.2,0.1-0.5,0-0.7-0.1
		c-1.9-0.9-3.5-2.6-5.2-3.9c-0.6-0.5-2.2-2.4-2.2-0.6c0,1.3,1,2.5,1.9,3.4c1.3,1.3,2.9,2.4,4.3,3.6c3,2.3,6,4.5,9.4,6.1
		c3.2,1.6,6.8,2.7,10.4,2.8c4.1,0.1,8.5-0.8,12.3,1.1c1.9,1,3.6,2.4,4.9,4.1c0.5,0.6,1.1,1.4,1.2,2.1c0.5,2.4-4.4,1-5.4,0.8
		c-2.9-0.6-6.9-0.9-9.3,1.1c-1.7,1.3-2.4,4.1-0.5,5.6c1.8,1.4,3.8,0.1,5.4-1c1.8-1.3,5.5-3.4,7.8-2.3c0.2,0.1-0.3,2.5-0.3,2.7
		c-0.2,1.6-0.3,3-0.2,4.6c0.4,6.2,3.1,11.7,5,17.4c1.3,3.9,2.7,8.5,1.9,12.7c-1.2,6.2-8.4,9.6-13.6,11.8c-4.4,1.9-8.8,3.6-13.4,4.8
		c-4.5,1.2-9.8,1.1-14.1,2.9c-0.9,0.4-1.6,0.9-2.3,1.5c-0.7-0.2-1.5-0.3-2.3-0.4c-2.4-0.2-4.6,0.2-6.8,0.9c-2.1,0.6-4.3,1.3-6.5,0.9
		c-1.9-0.3-3.7-1.4-4.3-3.3c-0.1-0.3-0.6-0.3-0.7,0c-0.4,2.1-0.9,4.6,0.4,6.6c0.8,1.2,2.1,2,3.5,1.9l-1.1,1.5
		c-0.1,0.2,0,0.4,0.2,0.5c2.3,0.4,4.7-0.1,6.7-1.3c-0.1,0.5-0.3,1.1-0.4,1.6c-0.1,0.2,0.1,0.4,0.4,0.4c2.7-0.6,5.3-1.9,7.5-3.6
		c-1.1,3-1.8,6.2-3.1,9.1c-2.9,6.2-7.7,11.6-14.5,13.3c-1.7,0.4-3.4,0.8-4.6,2.1c-2.5,2.5-4.1,6.3-6,9.3c-2.1,3.2-4.2,6.4-6.5,9.5
		c-4.5,6.3-10.4,14.1-17.9,16.8c-0.1,0-0.2,0.1-0.3,0.3c-0.3,0.1-0.5,0.3-0.8,0.8c-0.3,0.7-0.6,1.2-1.1,1.7c-0.6,0.5-1.3,0.9-2,1.3
		c-0.4,0.2-0.9,0.4-1.2,0.8c-0.2,0.4,0,1.1,0.1,1.5c0.1,0.6,0.3,1.1,0.7,1.6c0.4,0.5,1,0.9,1.4,1.5c0.1,0.1,0.3,0.1,0.3,0
		c0.9-1.9,2.5-3.3,4.1-4.7c0,0,0.1,0,0.1,0c5.8-3.8,11.4-8.3,16.4-13.2c5.2-5.1,9.1-11.1,13.9-16.5c0.1-0.1,0.6-0.6,1-0.9
		c0,0.4,0,0.9,0,1.3c-0.2,4.1,1.1,7.6,0.3,11.8c-1.2,6.4-4.9,11.7-8.2,17.2c-0.7,1.1-1.3,2.2-1.8,3.3c-0.1,0.3-0.4,0.7-0.6,1.1
		c-0.2,0.2-0.3,0.5-0.3,0.8c-0.1,0.7,0.1,1-0.2,1.7c-0.2,0.4-0.5,0.7-0.8,1.1c-0.7,1-2.2,3-0.5,3.8c0.1,0,0.2,0.1,0.3,0.1
		c-5.4,11.2-8.4,23.7-8.4,36.9c0,47.3,38.5,85.8,85.8,85.8s85.8-38.5,85.8-85.8C189.5,182.6,168.2,152.3,137.8,139z M41.1,156.1
		c0.8-2.5,1.3-5,1.6-7.6c0.3-2.7-0.1-5.5,0.6-8.1c0.3-1.3,1.4-2,2.6-2.3c2.3-0.6,4.8-0.3,7.1-0.6c5.4-0.8,10.4-3.7,14.3-7.4
		c3.3-3.1,6-6.8,8.4-10.6c0.8-0.8,1.6-1.5,2.5-2.2c4.9-3.7,12.2-3.7,18.1-4.7c1.7-0.3,3.4-0.6,5.1-0.6c1.7,0,3.3,0.2,5,0.3
		c9.5,0.8,19.2-1.1,27.8-5.1c1.2-0.8,2.3-1.6,3.5-2.3c1.7-1.1,3.5-2.1,5.4-2.9c0.2-0.1,0.4-0.2,0.6-0.3c-0.1,0.5-0.1,1.1-0.2,1.6
		c-0.5,2.9-1.4,5.8-2.6,8.5c-1.2,2.6-2.9,5.1-5.5,6.5c-0.6,0.3-1.4,0.6-1.7,1.2c-0.8,0.1-1.5,0.5-2.1,1.2c-1.4,1.8-3.4,2.2-5.6,2.5
		c-0.1,0-0.2,0.1-0.2,0.2c0.3,0.7,0.6,1.4,0.9,2.1c0.1,0.3,0.3,0.9,0.6,1.2c0.6,0.5,2.1-0.2,2.8-0.4c1.9-0.6,4.1-1.2,5.7-2.4
		c6.5-2.3,9.5-9.3,11.3-15.4c0.4-1.3,0.7-2.7,1-4c0,0,0,0.1,0,0.1c0,0.2,0,0.5,0,0.7c-0.2,5.9-0.7,12.1-3.2,17.6
		c-1.5,3.3-3.6,6.3-6.3,8.8c0,0-0.1,0.1-0.1,0.1c-0.8,0.4-1.1,1-1.2,2.1c-0.3,2-2.2,2.5-3.7,3.5c-9.3-3.5-19.5-5.4-30-5.4
		c-25.7,0-48.8,11.4-64.5,29.3C39.9,159.6,40.6,157.9,41.1,156.1z M103.7,301.4c-46.1,0-83.6-37.5-83.6-83.6c0-13.7,3.3-26.6,9.1-38
		c0.5-0.7,0.9-1.5,1.2-2.3c14.2-25.8,41.7-43.3,73.2-43.3c46.1,0,83.6,37.5,83.6,83.6C187.3,263.9,149.8,301.4,103.7,301.4z"/>
</g>
</svg>
