<?xml version="1.0" encoding="utf-8"?>
<!-- Generator: Adobe Illustrator 23.0.4, SVG Export Plug-In . SVG Version: 6.00 Build 0)  -->
<svg version="1.1" id="Fairy1" xmlns="http://www.w3.org/2000/svg" xmlns:xlink="http://www.w3.org/1999/xlink" x="0px" y="0px"
	 viewBox="0 0 184.6 331.7" style="enable-background:new 0 0 184.6 331.7;" xml:space="preserve">
<style type="text/css">
	#Fairy1 .st0{fill:none;}
	#Fairy1 .st1{fill:#F0D2BC;}
	#Fairy1 .st2{fill:#E2C374;}
	#Fairy1 .st3{fill:#E585AC;}
	#Fairy1 .st4{fill:#595353;}
</style>
<g>
	<path class="st0" d="M47,89c-0.2,0.2-0.5,0.4-0.8,0.6C46.5,89.4,46.8,89.2,47,89c-3.8-3.8-7.6-7.6-11.4-11.5
		c-0.4-0.4-0.8-0.8-1.2-1.2c0.4,0.4,0.8,0.8,1.2,1.2C39.4,81.4,43.2,85.2,47,89z"/>
	<path class="st0" d="M95.6,60.7c5.1,10.1,11,20.1,18.7,28.9C106.5,80.8,100.6,70.8,95.6,60.7c-0.1-0.3-0.3-0.5-0.4-0.8
		c-5.4-10.8-9.6-22-13.7-33.3c0,0,0,0,0,0c4,11.3,8.3,22.4,13.7,33.3C95.3,60.1,95.4,60.4,95.6,60.7z"/>
	<path class="st0" d="M30.9,96.8c3.4-0.9,6.7-2.2,9.8-3.8c1.1-0.6,2.3-1.2,3.3-1.9c-1.1,0.7-2.2,1.3-3.3,1.9
		C37.6,94.6,34.3,95.8,30.9,96.8z"/>
	<path class="st0" d="M10.9,99.8c-0.1,0-0.2,0-0.3,0C10.7,99.9,10.8,99.8,10.9,99.8c6.4-0.7,12.8-1.2,19-2.8
		C23.7,98.6,17.3,99.2,10.9,99.8z"/>
	<path class="st0" d="M47.7,146.2c0.1,0.4,0.1,0.8,0.2,1.2c0.4,2.5,0.9,5.1,1.3,7.6c-0.4-2.5-0.8-5.1-1.3-7.6
		C47.8,147,47.7,146.6,47.7,146.2z"/>
	<path class="st0" d="M119.5,163.1c0,0.2,0,0.4,0,0.6c-0.2,3.8-0.3,7.5-0.5,11.3c0,0,0,0,0,0c0.2-3.8,0.3-7.6,0.5-11.3
		C119.5,163.5,119.5,163.3,119.5,163.1c0-0.2,0-0.5,0-0.7c0-0.3,0-0.7,0-1c0,0.3,0,0.7-0.1,1C119.5,162.6,119.5,162.8,119.5,163.1z"
		/>
	<path class="st0" d="M50.3,162.9c-0.1-0.7-0.2-1.3-0.3-2C50.2,161.6,50.2,162.2,50.3,162.9c0,0.2,0.1,0.5,0.1,0.7
		c0.6,4.2,1.1,8.4,1.6,12.6c0,0,0,0,0,0c-0.5-4.2-1-8.4-1.6-12.6C50.4,163.4,50.4,163.1,50.3,162.9z"/>
	<path class="st0" d="M11.1,49.9c0.5,3.5,0.9,7,1.1,10.5C11.9,56.9,11.6,53.4,11.1,49.9C11.1,50,11.1,49.9,11.1,49.9z"/>
	<path class="st0" d="M11.1,85c-0.1,0.9-0.3,1.8-0.4,2.7c-0.1,0.8-0.3,1.5-0.4,2.3c0.1-0.8,0.3-1.6,0.4-2.3
		C10.8,86.8,10.9,85.9,11.1,85z"/>
	<path class="st0" d="M14.5,106.2c4.2,8,7.6,16.3,10.2,24.7c0.3,0.9,0.6,1.9,0.8,2.8c-0.3-0.9-0.6-1.9-0.8-2.8
		C22,122.5,18.6,114.2,14.5,106.2z"/>
	<path class="st0" d="M50.1,121.7c-1.1-2.9-2.1-5.8-3-8.8c-1.4-4.8-2.5-9.8-2.9-14.8c0.4,5,1.5,10,2.9,14.8
		C48,115.9,49,118.9,50.1,121.7z"/>
	<path class="st0" d="M43.9,92.4c-1,0.6-2,1.2-3,1.7c-5.7,3-12.2,4.7-18.9,5.7c6.7-0.9,13.2-2.7,18.9-5.7C41.9,93.5,43,93,43.9,92.4
		z"/>
	<path class="st0" d="M110.2,92c0.9,0,1.8-0.1,2.8-0.1c0.1,0,0.2,0,0.3,0c-0.1,0-0.2,0-0.3,0C112,91.9,111.1,92,110.2,92z"/>
	<path class="st0" d="M42.8,123.8C42.8,123.8,42.8,123.8,42.8,123.8C42.8,123.8,42.8,123.8,42.8,123.8c0-0.2-0.1-0.4-0.1-0.6
		c0,0,0,0,0,0C42.7,123.4,42.7,123.6,42.8,123.8z"/>
	<path class="st0" d="M46.7,122.3c0.4-0.1,0.8-0.1,1.2-0.1c0.4-0.1,0.8-0.1,1.2-0.1c-0.4,0-0.8,0.1-1.2,0.1
		C47.5,122.2,47.1,122.3,46.7,122.3z"/>
	<path class="st0" d="M48.7,158.4c-0.2-1.6-0.4-3.1-0.7-4.7C48.2,155.3,48.4,156.9,48.7,158.4C48.7,158.4,48.7,158.4,48.7,158.4z"/>
	<path class="st0" d="M47.3,149.4c-0.2-1.6-0.5-3.2-0.7-4.8c-0.3-2.1-0.7-4.1-1.1-6.2c0.4,2.1,0.8,4.1,1.1,6.2
		C46.9,146.2,47.1,147.8,47.3,149.4z"/>
	<path class="st0" d="M43.1,123c-0.1,0-0.2,0-0.2,0.1C43,123.1,43.1,123,43.1,123c0.1,0,0.2,0,0.3-0.1c0.1,0,0.2-0.1,0.3-0.1
		c-0.1,0-0.2,0.1-0.3,0.1C43.3,123,43.2,123,43.1,123z"/>
	<path class="st0" d="M52.5,93.9C52.5,93.9,52.5,93.9,52.5,93.9c1.9,0.4,3.8,0.7,5.7,1C56.3,94.6,54.4,94.3,52.5,93.9z"/>
	<path class="st0" d="M30.6,158.8c4.3-0.3,8.6-0.4,12.8-0.4C39.2,158.4,34.9,158.5,30.6,158.8c-0.2-2.5-0.6-5-1-7.5
		c-0.1-0.9-0.3-1.8-0.5-2.7c0.2,0.9,0.3,1.8,0.5,2.7C30,153.8,30.4,156.3,30.6,158.8z"/>
	<path class="st0" d="M111.7,95.4c-1.3,4-2.1,8.1-2.6,12.2C109.6,103.4,110.5,99.3,111.7,95.4z"/>
	<path class="st0" d="M87.9,118.9c6.8-0.3,13.7-0.3,20.6,0c0,0,0,0,0,0C101.7,118.6,94.7,118.6,87.9,118.9z"/>
	<path class="st0" d="M76.6,95.2c-4.2,0.4-8.4,0.6-12.7,0.3c-1.9-0.1-3.8-0.4-5.7-0.6c1.9,0.3,3.8,0.5,5.7,0.6
		C68.2,95.8,72.4,95.6,76.6,95.2z"/>
	<path class="st0" d="M59.1,126.8c0.5,0,1,0,1.5-0.1c0.4,0,0.8,0,1.1,0c-0.4,0-0.8,0-1.1,0C60.1,126.7,59.6,126.8,59.1,126.8
		c-1.9,0.1-3.7,0.2-5.5,0.4c-0.1,0-0.1,0-0.2,0c0.1,0,0.1,0,0.2,0C55.4,127,57.2,126.9,59.1,126.8z"/>
	<path class="st0" d="M74,119.7c-4.2,0.3-8.4,0.7-12.5,1.1c-0.4-3.1-1.1-6.2-1.9-9.2c0.8,3,1.5,6.1,1.9,9.2
		C65.6,120.4,69.8,120,74,119.7z"/>
	<path class="st0" d="M68.9,61.1c3-6.7,5.6-13.5,8-20.4C74.5,47.6,71.9,54.4,68.9,61.1c-3.5,7.7-7.4,15.3-12.3,22.4
		c-0.6,0.9-1.2,1.8-1.9,2.7c0.6-0.9,1.3-1.8,1.9-2.7C61.4,76.4,65.4,68.7,68.9,61.1z"/>
	<path class="st0" d="M50.5,91.5c-0.1,0.1-0.2,0.2-0.3,0.3c-0.3,0.3-0.5,0.6-0.8,0.9c0,0,0,0,0,0c0.3-0.3,0.5-0.6,0.8-0.9
		C50.3,91.7,50.4,91.6,50.5,91.5z"/>
	<path class="st0" d="M52.1,93.3c-0.4-0.1-0.8-0.1-1.3-0.2c-0.3-0.1-0.6-0.1-0.9-0.2c0.3,0.1,0.6,0.1,0.9,0.2
		C51.3,93.1,51.7,93.2,52.1,93.3c3.2,0.5,6.4,1,9.6,1.3C58.5,94.3,55.3,93.8,52.1,93.3z"/>
	<path class="st0" d="M55.1,99.2c-0.7-1.5-1.3-2.9-2.1-4.3C53.7,96.3,54.4,97.7,55.1,99.2z"/>
	<path class="st0" d="M58.1,107c0.2,0.5,0.3,0.9,0.5,1.4c0.3,1,0.6,2,0.9,3c-0.3-1-0.6-2-0.9-3C58.5,108,58.3,107.5,58.1,107z"/>
	<path class="st0" d="M44.5,128.8C44.5,128.8,44.5,128.8,44.5,128.8c1.7-0.5,3.4-0.8,5.2-1.1C47.9,128,46.2,128.3,44.5,128.8z"/>
	<path class="st0" d="M50.5,122.8c0,0,0.1,0,0.1,0c0.2,0,0.4,0,0.6-0.1c-0.2,0-0.4,0-0.6,0.1C50.6,122.8,50.6,122.8,50.5,122.8
		c-0.7,0.1-1.4,0.1-2.1,0.2C49.2,122.9,49.8,122.9,50.5,122.8z"/>
	<path class="st0" d="M113.8,125.9c0.4,0,0.8,0,1.1,0c2.9,0,5.8,0.1,8.7,0.1c-1.2,5.4-2.1,10.9-2.7,16.3c0.6-5.5,1.4-10.9,2.7-16.3
		c-2.9,0-5.8-0.1-8.7-0.1C114.5,125.9,114.1,125.9,113.8,125.9c-1.3,0-2.5,0-3.8,0c-0.2,0-0.4,0-0.5,0c0.2,0,0.3,0,0.5,0
		C111.2,125.9,112.5,125.9,113.8,125.9z"/>
	<path class="st0" d="M61.2,121.8C61.2,121.8,61.2,121.8,61.2,121.8C61.2,121.8,61.2,121.8,61.2,121.8c-0.4,0-0.7,0.1-1.1,0.1
		c-1.5,0.1-3.1,0.3-4.6,0.4c1.5-0.1,3.1-0.3,4.6-0.4C60.5,121.9,60.8,121.8,61.2,121.8z"/>
	<path class="st0" d="M109.7,120.1c-0.4,0-0.8,0-1.1,0c-2.6-0.1-5.2-0.2-7.7-0.2c2.6,0,5.2,0.1,7.7,0.2
		C108.9,120.1,109.3,120.1,109.7,120.1z"/>
	<path class="st0" d="M79.8,125.4c-0.9,0-1.8,0-2.7,0.1C78,125.4,78.9,125.4,79.8,125.4c9.7-0.2,19.3-0.3,29-0.3c0.2,0,0.5,0,0.7,0
		c-0.2,0-0.5,0-0.7,0C99.1,125.1,89.5,125.2,79.8,125.4z"/>
	<path class="st0" d="M58.4,126.2c0.7,0,1.4-0.1,2.2-0.1c0.3,0,0.5,0,0.8-0.1c-0.3,0-0.5,0-0.8,0C59.8,126.1,59.1,126.1,58.4,126.2z
		"/>
	<path class="st0" d="M115.2,125.2c-0.4,0-0.8,0-1.1,0c-0.8,0-1.5,0-2.3,0c0.8,0,1.5,0,2.3,0C114.4,125.2,114.8,125.1,115.2,125.2
		c2.9,0,5.8,0.1,8.6,0.2c0-0.1,0.1-0.3,0.1-0.4c0,0.1-0.1,0.3-0.1,0.4C120.9,125.2,118,125.2,115.2,125.2z"/>
	<path class="st0" d="M124.8,121.5c0-0.1,0-0.2,0.1-0.3c-1.2-0.1-2.4-0.3-3.6-0.4c1.2,0.1,2.4,0.2,3.6,0.4
		C124.8,121.4,124.8,121.5,124.8,121.5z"/>
	<path class="st0" d="M8.7,97c-0.3,1.1-0.6,2.1-1,3.2c0.7-0.1,1.3-0.2,2-0.2c-0.7,0.1-1.3,0.1-2,0.2C8.1,99.1,8.4,98.1,8.7,97z"/>
	<path class="st0" d="M121.3,102.7c-0.4,3.1-1.1,6.2-1.8,9.2c-0.7,2.6-1.4,5.2-2.3,7.8c0,0,0,0,0,0c0.9-2.6,1.6-5.1,2.3-7.7
		C120.2,108.8,120.8,105.8,121.3,102.7z"/>
	<path class="st0" d="M37.3,163.5c3.9-0.3,7.9-0.5,11.8-0.6c0,0,0.1,0,0.1,0c0,0,0,0,0,0c0,0-0.1,0-0.1,0
		C45.2,163,41.2,163.2,37.3,163.5z"/>
	<path class="st0" d="M125,120.6c-1.8-0.3-3.7-0.6-5.5-0.8C121.3,120.1,123.2,120.3,125,120.6c0.1,0,0.3,0,0.4,0.1
		c0,0.1,0,0.1-0.1,0.2c0-0.1,0-0.1,0.1-0.2C125.3,120.7,125.2,120.6,125,120.6z"/>
	<path class="st0" d="M140.2,139.2c0.7-3.4,1.5-6.8,2.4-10.1c0,0,0,0,0,0C141.7,132.4,140.9,135.8,140.2,139.2z"/>
	<path class="st0" d="M136.7,157c-3.6-0.1-7.1-0.1-10.7,0c-1.7,0-3.5,0.1-5.2,0.2c0.2-4.2,0.5-8.4,0.9-12.6c0.1-1.2,0.2-2.5,0.4-3.7
		c-0.1,1.2-0.3,2.5-0.4,3.7c-0.4,4.2-0.6,8.4-0.9,12.6c1.7-0.1,3.5-0.2,5.2-0.2C129.5,156.9,133.1,156.9,136.7,157
		c0.4,0,0.8,0,1.2,0c0-0.7,0.1-1.3,0.1-2c0,0.7-0.1,1.3-0.1,2C137.4,157.1,137.1,157.1,136.7,157z"/>
	<path class="st0" d="M128.2,158.1c-0.7,0-1.5,0-2.2,0c-1.7,0-3.5,0-5.2,0c0,0,0,0,0,0c1.8,0,3.5,0,5.2,0
		C126.7,158.1,127.4,158.1,128.2,158.1z"/>
	<path class="st0" d="M154.6,163.7c1,0.1,2.1,0.2,3.1,0.3c0.1-0.2,0.1-0.4,0.2-0.7c-0.1,0.2-0.1,0.4-0.2,0.7
		C156.6,163.9,155.6,163.8,154.6,163.7z"/>
	<path class="st0" d="M120.5,162.3c1.3,0,2.6,0,3.9,0C123.1,162.3,121.8,162.3,120.5,162.3C120.5,162.3,120.5,162.3,120.5,162.3z"/>
	<path class="st0" d="M121.7,92.2c0-0.3,0-0.6-0.1-0.9c0,0,0,0,0,0C121.7,91.6,121.7,91.9,121.7,92.2L121.7,92.2
		c0.1,0.9,0.1,1.7,0.1,2.5C121.8,93.9,121.8,93,121.7,92.2C121.7,92.2,121.7,92.2,121.7,92.2z"/>
	<path class="st0" d="M133.7,96.3c-0.8-0.2-1.6-0.5-2.5-0.8c-3-1-5.8-2.2-8.5-3.7c2.7,1.5,5.6,2.7,8.5,3.7
		C132,95.8,132.9,96.1,133.7,96.3z"/>
	<path class="st0" d="M129.6,75.9c3.3-3.6,6.6-7.2,9.7-10.9C136.2,68.7,132.9,72.3,129.6,75.9z"/>
	<path class="st0" d="M153,74.3c0,0.4,0.1,0.7,0.1,1.1C153.1,75,153.1,74.7,153,74.3c-0.1-1.2-0.3-2.3-0.4-3.5
		c-0.2-2.2-0.3-4.4-0.4-6.6c0.1,2.2,0.2,4.4,0.4,6.6C152.7,72,152.9,73.1,153,74.3z"/>
	<path class="st0" d="M152.9,47.7C152.9,47.7,152.9,47.7,152.9,47.7c-0.4,3.6-0.6,7.2-0.7,10.8C152.3,54.9,152.5,51.3,152.9,47.7z"
		/>
	<path class="st0" d="M131.4,94.6c-3.4-1.1-6.7-2.6-9.8-4.3c-0.1-0.1-0.3-0.2-0.4-0.2c-0.3-0.2-0.6-0.3-0.9-0.5
		c0.3,0.2,0.6,0.3,0.9,0.5c0.1,0.1,0.3,0.2,0.4,0.2C124.7,92,127.9,93.4,131.4,94.6c2.6,0.9,5.2,1.6,8,2.1c1.6,0.3,3.2,0.5,4.8,0.7
		c-1.6-0.2-3.2-0.4-4.8-0.7C136.6,96.1,133.9,95.4,131.4,94.6z"/>
	<path class="st0" d="M158,97.1c-0.6-1.7-1.1-3.4-1.6-5.2C156.9,93.7,157.4,95.4,158,97.1C158,97.1,158,97.1,158,97.1z"/>
	<path class="st0" d="M116.4,91.8C116.4,91.8,116.4,91.8,116.4,91.8c-0.3,0-0.6,0-0.9,0C115.8,91.9,116.1,91.8,116.4,91.8z"/>
	<path class="st0" d="M155.1,86.5c-0.1-0.4-0.2-0.7-0.2-1.1c-0.1-0.3-0.1-0.6-0.2-0.9c0.1,0.3,0.1,0.6,0.2,0.9
		C154.9,85.7,155,86.1,155.1,86.5z"/>
	<path class="st0" d="M148.4,98.7c2,0.1,4,0.1,6.1,0c-5.1,9.7-9,20-11.8,30.4c2.8-10.4,6.7-20.7,11.8-30.4
		C152.5,98.8,150.4,98.8,148.4,98.7z"/>
	<path class="st0" d="M155.1,97.4c-1.1,0.1-2.3,0.1-3.4,0.2C152.9,97.5,154,97.5,155.1,97.4c0.1,0,0.3,0,0.4,0
		c0.3,0,0.6-0.1,0.9-0.1c-0.3,0-0.6,0.1-0.9,0.1C155.4,97.4,155.3,97.4,155.1,97.4z"/>
	<path class="st0" d="M19.6,199.6c-1.3-6.3-2.8-12.5-4.6-18.8C16.8,187,18.3,193.3,19.6,199.6c0.2,1.1,0.4,2.2,0.7,3.3c0,0,0,0,0,0
		C20.1,201.8,19.9,200.7,19.6,199.6z"/>
	<path class="st0" d="M120.5,163.1c-0.1,1.3-0.1,2.6-0.2,3.9C120.4,165.7,120.4,164.4,120.5,163.1
		C120.5,163.1,120.5,163.1,120.5,163.1z"/>
	<path class="st0" d="M49.4,163.6c0,0.3,0.1,0.5,0.1,0.8c0,0.2,0,0.4,0.1,0.6c0-0.2,0-0.4-0.1-0.6C49.4,164.2,49.4,163.9,49.4,163.6
		C49.3,163.6,49.3,163.6,49.4,163.6c-0.8,0-1.6,0-2.4,0C47.7,163.6,48.5,163.6,49.4,163.6C49.3,163.6,49.3,163.6,49.4,163.6z"/>
	<path class="st0" d="M138.6,163.3C138.6,163.3,138.5,163.3,138.6,163.3c-0.3,0-0.4,0-0.6,0C138.2,163.3,138.3,163.3,138.6,163.3
		C138.5,163.3,138.6,163.3,138.6,163.3z"/>
	<path class="st0" d="M30.9,164.1c0.3,0,0.5-0.1,0.8-0.1C31.5,164.1,31.2,164.1,30.9,164.1c-0.3,0-0.7,0.1-1,0.1
		c-6.4,0.7-12.8,1.8-19.1,3.2c0,0,0,0,0,0c6.3-1.4,12.6-2.5,19.1-3.2C30.3,164.2,30.6,164.2,30.9,164.1z"/>
	<path class="st0" d="M16.3,166.9c3.7-0.7,7.4-1.3,11.2-1.7C23.8,165.6,20,166.2,16.3,166.9z"/>
	<path class="st0" d="M11,167.9c0.3,1,0.7,2,1,3C11.7,169.9,11.4,168.9,11,167.9C11,167.9,11,167.9,11,167.9z"/>
	<path class="st0" d="M66.2,94.9c4.1,0.1,8.2-0.2,12.3-0.6C74.5,94.7,70.4,95,66.2,94.9z"/>
	<path class="st0" d="M48.8,159.3C48.8,159.3,48.8,159.3,48.8,159.3c-0.2,0-0.3,0-0.5,0c-2.8,0-5.7,0.1-8.5,0.2
		c2.8-0.1,5.6-0.2,8.5-0.2C48.4,159.3,48.6,159.3,48.8,159.3z"/>
	<path class="st0" d="M150.6,198.2c1.7-11,3.8-22.1,6.7-33C154.4,176.1,152.3,187.2,150.6,198.2
		C150.6,198.2,150.6,198.2,150.6,198.2z"/>
	<path class="st1" d="M123.6,126c-2.9,0-5.8-0.1-8.7-0.1c-0.4,0-0.8,0-1.1,0c-1.3,0-2.5,0-3.8,0c-0.2,0-0.3,0-0.5,0
		c-0.2,0-0.4,0-0.6,0c-9.1,0-18.1,0-27.2,0.2c-2.7,0.1-5.3,0.1-8,0.2c-2.6,0.1-5.1,0.2-7.7,0.3c-1.4,0-2.7,0.1-4.1,0.1
		c-0.1,0-0.2,0-0.3,0c-0.4,0-0.8,0-1.1,0c-0.5,0-1,0-1.5,0.1c-1.8,0.1-3.7,0.2-5.5,0.4c-0.1,0-0.1,0-0.2,0c-0.3,0-0.6,0.1-0.9,0.1
		c-0.9,0.1-1.9,0.2-2.8,0.4c-1.8,0.3-3.5,0.6-5.2,1.1c0.3,1.3,0.5,2.7,0.8,4c0.3,1.3,0.5,2.6,0.7,3.9c0.6,3.2,1.1,6.4,1.7,9.5
		c0.1,0.4,0.1,0.8,0.2,1.2c0.4,2.5,0.9,5.1,1.3,7.6c0.2,1.1,0.4,2.3,0.5,3.4c0,0.3,0.1,0.6,0.1,0.9c0.1,0.5,0.2,1.1,0.2,1.6
		c0.1,0.7,0.2,1.3,0.3,2c0,0.2,0.1,0.5,0.1,0.7c0.6,4.2,1.1,8.4,1.6,12.6c10.6-5,22.4-7.8,34.8-7.8c11.4,0,22.2,2.3,32.1,6.6
		c0.2-3.8,0.3-7.5,0.5-11.3c0-0.2,0-0.4,0-0.6c0-0.2,0-0.5,0-0.7c0-0.3,0-0.7,0.1-1c0.1-1.1,0.1-2.1,0.2-3.2c0-0.3,0-0.6,0-0.9
		c0.3-5,0.6-10,1.2-15C121.6,136.8,122.4,131.4,123.6,126z M72.8,156.2c-0.4,0.2-1.2-0.1-1.7-0.1c-0.9,0-1.7,0.1-2.6,0.3
		c-0.6,0.2-2,1.1-2.7,1c-0.3,0-0.5-0.1-0.6-0.3c-0.1,0-0.1,0-0.1-0.1c0,0,0-0.1,0-0.1c-0.2-0.2-0.3-0.5-0.3-0.8
		c-1.3-3.7-2.5-9,0.1-12.2c0.9-1.1,2.5-2.1,4.1-1.7c1.6,0.4,2,2.1,2.5,3.4c0.9,2.4,1.6,4.8,1.9,7.3C73.5,154,74.2,155.7,72.8,156.2z
		 M89.2,155.6c-2.5-0.4-4.4,0.1-6.8,0.4c-1.9,0.2-3.5-0.3-3.8-2.1c-0.2-1.1-0.2-2.1-0.2-3.2c-0.2-2-0.1-4,0.2-6
		c0.4-2.1,1.6-5.4,4.5-5.6c2.9-0.2,4.2,3.5,4.9,5.4c1.3,3.5,1.5,7.2,1.7,10.8C89.7,155.5,89.5,155.6,89.2,155.6z M104.2,153.3
		c-0.4,2.3-1.4,1.5-3.8,1.5c-0.9,0-1.9,0.1-2.8,0.3c-0.6,0.1-1.4,0.5-2.1,0.5c-0.5,0-0.8,0.1-1.1-0.3c-1.4-1.3-0.3-5.5-0.2-7.1
		c0.2-2.4,0.9-4.9,3.2-6.5c1.3-0.9,3.2-1.2,4.6-0.5c1.6,0.8,1.8,2.6,2.1,4C104.5,147.9,104.7,150.7,104.2,153.3z"/>
	<path class="st2" d="M102.1,142.1c-2.8-1.7-5.3,0.6-6.2,2.7c-0.7,1.5-3.5,9.9,0,10.2c0.5,0,1.9-0.5,2.4-0.5
		c0.6-0.1,1.1-0.1,1.7-0.2c0.7,0,2,0.3,2.5,0.1c1-0.4,1.1-1.6,1.2-2.4c0.1-1.5,0.1-2.9,0-4.4C103.6,146.3,103.7,143.1,102.1,142.1z"
		/>
	<path class="st2" d="M81.5,140.6c-1.2,0.7-1.6,2-1.9,3.2c-0.7,2.3-0.6,4.6-0.5,7c0.1,1.3-0.2,4.1,1.5,4.7c1.4,0.5,3.3-0.5,4.7-0.6
		c0.6,0,2.9,0.3,3.2,0c0.6-0.4,0.3-1.1,0.3-1.8c-0.2-2-0.4-4-0.8-6C87.4,144.7,85.7,138.1,81.5,140.6z"/>
	<path class="st2" d="M80.6,113.2c0.3,0.3,0.7,0.6,1.3,0.6c1.4,0,2.7-0.6,4-0.7c0.6,0,2.9,0.3,3.2,0c0.6-0.4,0.3-1.1,0.3-1.8
		c-0.2-2-0.4-4-0.8-6c-0.4-1.6-0.8-3.2-1.7-4.7c-0.6-1-0.9-1.9-2.4-2.2c-1-0.2-2.4,0.1-3.1,0.7c-0.8,0.7-1.1,1.9-1.3,2.8
		c-0.5,1.7-0.6,3.4-0.6,5.2c0,1.4,0.2,2.9,0.4,4.3C80,112,80.2,112.7,80.6,113.2z"/>
	<path class="st1" d="M74,119.7c2.6-0.2,5.3-0.4,7.9-0.5c2-0.1,4-0.2,6-0.3c6.8-0.3,13.7-0.3,20.6,0c-0.1-3.8,0.1-7.6,0.6-11.4
		c0.5-4.1,1.3-8.2,2.6-12.2c0.3-0.8,0.5-1.7,0.8-2.5c-3.6,0.1-7.2,0.1-10.8,0.3c-6.4,0.3-12.7,0.7-19.1,1.4c-2,0.2-4.1,0.4-6.1,0.6
		c-4.2,0.4-8.4,0.6-12.7,0.3c-1.9-0.1-3.8-0.4-5.7-0.6c0,0,0,0-0.1,0c-1.9-0.3-3.8-0.6-5.7-1c0.2,0.3,0.3,0.7,0.5,1
		c0.7,1.4,1.4,2.8,2.1,4.3c1.2,2.6,2.2,5.2,3.1,7.9c0.2,0.5,0.3,0.9,0.5,1.4c0.3,1,0.6,2,0.9,3c0,0,0,0.1,0,0.1
		c0.8,3,1.5,6.1,1.9,9.2C65.6,120.4,69.8,120,74,119.7z M94.4,110.4c0.1-1.3,0.2-2.8,0.4-4c0.3-2.4,1-4.8,3.2-6.4
		c1.3-0.9,3.2-1.2,4.6-0.5c1.6,0.8,1.8,2.6,2.1,4c0.4,2.6,0.6,5.4,0.1,8c-0.4,2.3-1.4,1.5-3.8,1.5c-0.9,0-1.9,0.1-2.8,0.3
		c-0.6,0.1-1.4,0.5-2.1,0.5c-0.5,0-0.8,0.1-1.1-0.3C94.2,112.7,94.4,111.4,94.4,110.4z M79.2,102.8c0.4-2.1,1.6-5.4,4.5-5.6
		c2.9-0.2,4.2,3.5,4.9,5.4c1.3,3.5,1.5,7.2,1.7,10.8c0,0.2-0.2,0.3-0.4,0.3c-2.1-0.3-4.2-0.3-6.3,0.1c-1.2,0.2-3.3,1.2-3.9-0.3
		c-0.2-0.4-0.2-1-0.3-1.5c-0.2-1-0.3-2.1-0.4-3.2C78.8,106.9,78.8,104.9,79.2,102.8z M65.4,102.2c0.9-1.1,2.5-2.1,4.1-1.7
		c1.6,0.4,2,2.1,2.5,3.4c0.9,2.4,1.6,4.8,1.9,7.3c0.1,1,0.9,2.8-0.5,3.3c-0.4,0.2-1.2-0.1-1.7-0.1c-0.9,0-1.7,0.1-2.6,0.3
		c-1,0.3-2.3,1.5-3.3,0.8c-0.8-0.6-0.8-1.8-1-2.6c-0.3-1.2-0.6-2.4-0.8-3.6C63.8,106.8,63.9,104.2,65.4,102.2z"/>
	<path class="st2" d="M66.9,114.6c0.8,0.2,1.8-0.3,2.5-0.4c0.9-0.2,2.7,0.1,3.5-0.2c2.2-0.9-0.4-7.3-0.9-8.9c-0.7-2-2.4-5.4-5.2-3.3
		c-1.5,1.1-1.9,2.9-2,4.6c-0.1,1.6-0.1,3.2,0.2,4.8C65.1,112.3,65.2,114.3,66.9,114.6z"/>
	<path class="st2" d="M96.5,113.3c0.5,0,1.9-0.5,2.4-0.5c0.6-0.1,1.1-0.1,1.7-0.2c0.7,0,2,0.3,2.5,0.1c1-0.4,1.1-1.6,1.2-2.4
		c0.1-1.5,0.1-2.9,0-4.4c-0.1-1.4,0-4.6-1.5-5.6c-2.8-1.7-5.3,0.6-6.2,2.7c-0.9,2.2-1.6,4.6-1.8,6.9
		C94.7,111.1,94.8,113.1,96.5,113.3z"/>
	<path class="st2" d="M66.1,143.6c-1.5,1.1-1.9,2.9-2,4.6c-0.2,2.1-1,7.5,2.3,8.2c0.7,0.2,1.7-0.3,2.4-0.4c0.9-0.2,2.7,0.1,3.5-0.2
		c2.2-0.9-0.4-7.3-0.9-8.9C70.6,144.9,68.9,141.5,66.1,143.6z"/>
	<path class="st2" d="M136,102.5c-2,0.3-3.6,1.6-4.8,3.3c-1.2,1.6-2,3.4-2.5,5c-0.1,0.3-0.2,0.5-0.2,0.8c-0.2,0.5-0.3,1.1-0.1,1.6
		c0,0,0,0,0,0c0.5,1.5,3,1.2,4.2,1.8c0.3,0.2,0.6,0.4,0.9,0.5c3.2,1.5,4.6-5.7,4.9-7.3C138.7,106.6,139.2,102,136,102.5z"/>
	<path class="st1" d="M148.4,98.7c-3.2-0.1-6.4-0.5-9.4-1.1c-1.8-0.3-3.6-0.8-5.4-1.3c-0.8-0.2-1.6-0.5-2.5-0.8
		c-3-1-5.8-2.2-8.5-3.7c-0.4-0.2-0.7-0.4-1.1-0.6c0,0.3,0.1,0.6,0.1,0.9c0,0,0,0,0,0.1c0.1,0.8,0.1,1.6,0.1,2.5c0,2.7-0.2,5.3-0.5,8
		c-0.4,3.1-1.1,6.2-1.8,9.2c-0.7,2.6-1.4,5.2-2.3,7.7c0.8,0.1,1.5,0.2,2.3,0.3c1.9,0.2,3.7,0.5,5.5,0.8c0.1,0,0.3,0,0.4,0.1
		c0,0.1,0,0.1-0.1,0.2c0,0.1-0.1,0.3-0.1,0.4c-0.3,1.3-0.6,2.6-0.9,4c-0.1,0.2-0.1,0.5-0.1,0.7c-1,4.9-1.7,9.9-2.2,14.9
		c-0.1,1.2-0.3,2.5-0.4,3.7c-0.4,4.2-0.6,8.4-0.9,12.6c1.7-0.1,3.5-0.2,5.2-0.2c3.5-0.1,7.1-0.1,10.7,0c0.4,0,0.8,0,1.2,0
		c0-0.7,0.1-1.3,0.1-2c0.4-5.3,1.2-10.7,2.3-15.9c0.7-3.4,1.5-6.8,2.4-10.1c0,0,0,0,0,0c0,0,0,0,0,0c0,0,0-0.1,0-0.1
		c2.8-10.4,6.7-20.6,11.8-30.4C152.5,98.8,150.4,98.8,148.4,98.7z M135.9,115.6c-0.1,0.3-0.3,0.6-0.5,0.8c0,0,0,0,0,0.1
		c0,0.1-0.1,0.1-0.1,0c-0.2,0.1-0.4,0.1-0.7,0.1c-0.9-0.1-2.2-1.4-3.1-1.8c-0.8-0.3-2.5-0.3-3.3-0.7c-0.1,0-0.1-0.1-0.2-0.1
		c-1.2-0.8,0-2.5,0.4-3.5c0.2-0.5,0.4-0.9,0.6-1.4c0.8-1.7,1.7-3.4,2.8-5c0.9-1.4,1.9-3.3,4-3c1.4,0.2,2.5,1.3,3,2.4
		C140.5,107.3,138,112.2,135.9,115.6z"/>
	<path class="st3" d="M50.5,122.8c-0.7,0.1-1.4,0.1-2.1,0.2c-0.7,0.1-1.5,0.1-2.2,0.2c-1,0.1-2,0.3-2.9,0.5c0,0,0,0,0,0
		c0,0.1,0,0.1,0,0.2c0.4,1.5,0.7,3,1,4.5c2.5-0.8,5.1-1.3,7.8-1.6c0.4,0,0.7-0.1,1.1-0.1c1.2-0.1,2.5-0.2,3.7-0.3
		c0.4,0,0.9-0.1,1.4-0.1c0.7,0,1.4-0.1,2.2-0.1c0.3,0,0.5,0,0.8,0c0.2,0,0.4,0,0.6,0c5-0.3,10.1-0.4,15.1-0.5c0.9,0,1.8,0,2.7-0.1
		c9.7-0.2,19.3-0.3,29-0.3c0.2,0,0.5,0,0.7,0c0.1,0,0.2,0,0.4,0c0.6,0,1.2,0,1.8,0c0.8,0,1.5,0,2.3,0c0.4,0,0.8,0,1.1,0
		c2.9,0,5.8,0.1,8.6,0.2c0-0.1,0.1-0.3,0.1-0.4c0.3-1.1,0.5-2.2,0.9-3.3c0-0.1,0-0.2,0.1-0.2c-1.2-0.1-2.4-0.3-3.6-0.4
		c-1.5-0.1-2.9-0.3-4.4-0.4c-0.4,0-0.7-0.1-1.1-0.1c-0.2,0-0.3,0-0.5,0c-1.8-0.1-3.7-0.2-5.5-0.3c0,0,0,0,0,0c-0.4,0-0.8,0-1.1,0
		c-2.6-0.1-5.1-0.2-7.7-0.2c-6-0.1-11.9,0-18,0.3c-7.1,0.4-14.2,0.9-21.3,1.6c-0.1,0-0.2,0-0.3,0c0,0,0,0-0.1,0
		c-0.4,0-0.7,0.1-1.1,0.1c-1.5,0.1-3.1,0.3-4.6,0.4c-1.3,0.1-2.6,0.2-3.9,0.4c-0.1,0-0.2,0-0.4,0c-0.2,0-0.4,0-0.6,0.1
		C50.6,122.8,50.6,122.8,50.5,122.8z"/>
	<path class="st1" d="M20.3,202.9c3.5-5,7.6-9.6,12.1-13.6c-1,0.1-1.9-0.3-2.2-1.6c-0.3-1.1-0.4-2.2-0.5-3.3c-0.2-2.2,0-4.4,0.4-6.5
		c0.4-2.1,1.6-5.4,4.5-5.6c2.9-0.2,4.2,3.5,4.9,5.4c0.6,1.6,1,3.4,1.2,5.1c3.3-2.2,6.7-4.3,10.2-6c-0.3-2.9-0.7-5.9-1-8.8
		c-0.1-1-0.2-2-0.4-3c0-0.2,0-0.4-0.1-0.6c0-0.3-0.1-0.5-0.1-0.8c0,0,0,0-0.1,0c-0.8,0-1.6,0-2.3,0c-1.1,0-2.1,0.1-3.2,0.1
		c-2,0.1-4,0.2-6,0.3c-0.8,0.1-1.7,0.1-2.5,0.2c-1.4,0.1-2.9,0.3-4.3,0.4c-0.3,0-0.6,0.1-1,0.1c-0.8,0.1-1.7,0.2-2.5,0.3
		c-3.7,0.5-7.5,1.1-11.2,1.7c-1.8,0.3-3.5,0.7-5.3,1c0.3,1,0.7,2,1,3c1.1,3.3,2.1,6.6,3,9.9c1.8,6.2,3.3,12.5,4.6,18.8
		C19.9,200.7,20.1,201.8,20.3,202.9z"/>
	<path class="st2" d="M39.4,180.3c-0.4-1.9-1.1-3.9-2.3-5.6c-0.8-1.4-3.2-1.6-4.5-0.7c-1.4,1-1.9,3.4-2.1,4.8
		c-0.2,1.6-0.7,3.3-0.5,4.9c0.2,1.2,0.4,3.4,1.3,4.4c0.2,0.2,0.4,0.3,0.6,0.4c0.3,0.1,0.7,0.2,1,0.2c2.2-1.9,4.5-3.7,6.9-5.4
		C39.8,182.3,39.7,181.3,39.4,180.3z"/>
	<path class="st1" d="M138.7,163.3C138.6,163.3,138.6,163.3,138.7,163.3c-0.1,0-0.1,0-0.2,0c-0.2,0-0.4,0-0.5,0c-0.1,0-0.2,0-0.3,0
		c-3.9-0.1-7.8-0.2-11.7-0.2c-1.8,0-3.7,0-5.5,0c-0.1,1.3-0.1,2.6-0.2,3.9c-0.1,2.8-0.2,5.6-0.3,8.4c3.9,1.7,7.6,3.7,11.1,6
		c0.2-1.7,0.5-3.3,1.1-4.9c0.6-1.9,1.7-5.3,4.6-5.2c3.1,0.1,4.4,3.6,4.8,5.8c0.4,2,0.5,3.9,0.4,5.9c-0.1,1.3,0.3,3.1-0.3,4.3
		c-0.3,0.6-0.9,0.9-1.5,0.9c3.8,3.3,7.3,6.9,10.4,10.8c0-0.2,0.1-0.4,0.1-0.5c0-0.1,0-0.1,0-0.2c0,0,0,0,0,0c0,0,0,0,0,0
		c1.7-11,3.7-22.1,6.7-33c0.1-0.2,0.1-0.4,0.2-0.7c-4.3-0.4-8.6-0.7-13-1C142.6,163.5,140.6,163.4,138.7,163.3z"/>
	<path class="st3" d="M137.9,158.4c-0.1,0-0.1,0-0.2,0c-3.2-0.1-6.4-0.2-9.6-0.3c-0.7,0-1.5,0-2.2,0c-1.7,0-3.5,0-5.2,0
		c-0.1,1.4-0.1,2.8-0.2,4.2c1.3,0,2.6,0,3.9,0c0.5,0,1,0,1.5,0c3.9,0,7.9,0.2,11.8,0.3c0.3,0,0.7,0,1,0c0.2,0,0.5,0,0.7,0
		c1.3,0.1,2.7,0.1,4,0.2c3.7,0.2,7.4,0.4,11.1,0.8c1,0.1,2,0.2,3.1,0.3c0.1-0.2,0.1-0.4,0.2-0.7c0.3-1.1,0.6-2.2,0.9-3.3
		c-1.2-0.1-2.5-0.2-3.7-0.4c-1.7-0.2-3.5-0.3-5.2-0.5c-3.6-0.3-7.2-0.6-10.9-0.7C138.7,158.4,138.3,158.4,137.9,158.4z"/>
	<path class="st2" d="M140.8,187c0.4-0.8,0.2-1.8,0.3-2.7c0.2-1,0.4-2.1,0.4-3.1c-0.1-1.8-0.4-3.5-1-5.2c-0.4-1.1-0.9-2.5-2-3.2
		c-2.5-1.6-3.5-0.2-4.3,1.1c-1.1,1.7-1.7,3.8-2,5.7c-0.2,0.8-0.3,1.6-0.3,2.4c2.7,1.8,5.3,3.7,7.8,5.8
		C140.1,187.7,140.5,187.4,140.8,187z"/>
	<path class="st1" d="M30.6,158.8c4.3-0.3,8.6-0.4,12.8-0.4c1.5,0,3.1,0,4.6,0.1c0.2,0,0.4,0,0.6,0c-0.2-1.6-0.4-3.1-0.7-4.7
		c-0.2-1.4-0.4-2.9-0.6-4.3c-0.2-1.6-0.5-3.2-0.8-4.8c-0.3-2.1-0.7-4.1-1.1-6.2c-0.6-3.1-1.2-6.3-1.8-9.4c0-0.1-0.1-0.3-0.1-0.4
		c-0.2-0.9-0.3-1.7-0.5-2.6c-0.1-0.7-0.2-1.4-0.4-2.1c0,0,0,0,0-0.1c0-0.2-0.1-0.4-0.1-0.6c0,0,0,0,0,0c0,0,0,0,0,0
		c0.1,0,0.2,0,0.2-0.1c0.1,0,0.2,0,0.2-0.1c0.1,0,0.2,0,0.3-0.1c0.1,0,0.2-0.1,0.3-0.1c1-0.2,2-0.4,3-0.5c0.4-0.1,0.8-0.1,1.2-0.1
		c0.4,0,0.8-0.1,1.2-0.1c0.4,0,0.7-0.1,1.1-0.1c0-0.1,0-0.1-0.1-0.2c-1.1-2.9-2.1-5.8-3-8.8c-1.4-4.8-2.5-9.8-2.9-14.8
		c-0.2-2-0.2-4-0.1-5.9c-0.1,0-0.1,0.1-0.2,0.1c-1,0.6-2,1.2-3,1.7c-5.7,3-12.2,4.7-18.9,5.7c-3.5,0.5-7.1,0.8-10.6,0.9
		c1.1,1.9,2.1,3.7,3.1,5.6c4.2,8,7.6,16.3,10.2,24.8c0.3,0.9,0.6,1.9,0.8,2.8c1.4,4.8,2.7,9.8,3.6,14.8c0.2,0.9,0.3,1.8,0.5,2.7
		C30,153.8,30.4,156.3,30.6,158.8z M27.4,104.9c0.5-1.2,1.7-2.3,3.2-2.5c1.9-0.2,2.9,1.7,3.8,2.9c1.5,2.1,2.8,4.3,3.8,6.6
		c0.4,0.8,1.5,2.5,0.4,3.1c-0.3,0.2-1,0.1-1.3,0.2c-1,0.2-1.9,0.5-2.8,0.9c-0.7,0.3-1.6,1.5-2.4,1.6c-0.3,0-0.5,0-0.7-0.1
		c0,0-0.1,0-0.2,0c0,0-0.1-0.1-0.1-0.1c-0.2-0.2-0.4-0.4-0.5-0.7C28.4,113.5,25.8,108.6,27.4,104.9z"/>
	<path class="st3" d="M30.9,164.1c0.3,0,0.5-0.1,0.8-0.1c0.9-0.1,1.7-0.2,2.6-0.3c1-0.1,2-0.2,3-0.3c3.9-0.3,7.9-0.5,11.8-0.6
		c0,0,0.1,0,0.1,0c-0.2-1.2-0.3-2.4-0.5-3.6c-0.2,0-0.3,0-0.5,0c-2.8,0-5.7,0.1-8.5,0.2c-0.2,0-0.3,0-0.5,0c-1.5,0.1-3,0.1-4.4,0.2
		c-1.4,0.1-2.8,0.2-4.1,0.3c-0.4,0-0.9,0.1-1.3,0.1c-6.8,0.6-13.6,1.4-20.4,2.3c0.6,1.6,1.2,3.3,1.8,5c6.3-1.4,12.6-2.5,19.1-3.2
		C30.3,164.2,30.6,164.2,30.9,164.1z"/>
	<path class="st2" d="M33,116.5c0.5-0.2,0.9-0.5,1.4-0.7c0.7-0.4,1.5-0.6,2.3-0.7c0.4-0.1,0.8-0.1,1.2-0.3c0,0,0.1,0,0.1-0.1
		c2-1.5-2.1-6.5-3.1-7.9c-1-1.5-3.7-5.5-6.3-2.6c-1.4,1.6-1,3.7-0.5,5.5c0.4,1.4,0.7,2.9,1.3,4.3C30,115.3,31.1,117.2,33,116.5z"/>
	<path class="st4" d="M64.8,112.8c0.2,0.8,0.2,2.1,1,2.6c1.1,0.8,2.3-0.5,3.3-0.8c0.8-0.2,1.7-0.3,2.6-0.3c0.5,0,1.3,0.2,1.7,0.1
		c1.4-0.5,0.7-2.2,0.5-3.3c-0.3-2.5-1-4.9-1.9-7.3c-0.5-1.2-0.9-3-2.5-3.4c-1.6-0.4-3.3,0.6-4.1,1.7c-1.6,2-1.7,4.6-1.4,6.9
		C64.2,110.4,64.5,111.6,64.8,112.8z M64.8,106.3c0.1-1.7,0.5-3.4,2-4.6c2.8-2.1,4.5,1.3,5.2,3.3c0.6,1.5,3.1,8,0.9,8.9
		c-0.7,0.3-2.5,0-3.5,0.2c-0.7,0.2-1.7,0.6-2.5,0.4c-1.7-0.4-1.8-2.3-2-3.5C64.7,109.6,64.6,107.9,64.8,106.3z"/>
	<path class="st4" d="M31.1,117.6c0,0,0.1,0.1,0.1,0.1c0,0.1,0.1,0.1,0.2,0c0.2,0.1,0.4,0.1,0.7,0.1c0.8,0,1.7-1.2,2.4-1.6
		c0.9-0.5,1.8-0.7,2.8-0.9c0.4-0.1,1,0,1.3-0.2c1.2-0.7,0-2.3-0.4-3.1c-1-2.3-2.3-4.5-3.8-6.6c-0.9-1.2-1.9-3.1-3.8-2.9
		c-1.5,0.1-2.7,1.3-3.2,2.5c-1.6,3.7,1,8.6,3.3,11.9C30.8,117.1,30.9,117.4,31.1,117.6z M29.3,114c-0.7-1.4-1-2.8-1.3-4.3
		c-0.4-1.8-0.8-4,0.5-5.5c2.5-2.9,5.2,1.1,6.3,2.6c1,1.4,5.1,6.4,3.1,7.9c0,0-0.1,0-0.1,0.1c-0.3,0.2-0.8,0.2-1.2,0.3
		c-0.8,0.1-1.6,0.3-2.3,0.7c-0.5,0.2-0.9,0.5-1.4,0.7C31.1,117.2,30,115.3,29.3,114z"/>
	<path class="st4" d="M135.7,101.3c-2.1-0.3-3.1,1.6-4,3c-1.1,1.6-2,3.3-2.8,5c-0.2,0.5-0.4,0.9-0.6,1.4c-0.4,1-1.6,2.7-0.4,3.5
		c0.1,0,0.1,0.1,0.2,0.1c0.8,0.4,2.5,0.4,3.3,0.7c0.9,0.3,2.2,1.7,3.1,1.8c0.3,0,0.5,0,0.7-0.1c0,0,0.1,0,0.1,0c0,0,0,0,0-0.1
		c0.2-0.2,0.4-0.5,0.5-0.8c2.1-3.4,4.5-8.3,2.8-12C138.2,102.6,137.1,101.5,135.7,101.3z M138.4,108.1c-0.3,1.6-1.7,8.8-4.9,7.3
		c-0.3-0.1-0.6-0.4-0.9-0.5c-1.2-0.7-3.7-0.3-4.2-1.8c0,0,0,0,0,0c-0.2-0.5,0-1.1,0.1-1.6c0.1-0.2,0.2-0.5,0.2-0.8
		c0.5-1.6,1.4-3.4,2.5-5c1.2-1.6,2.8-2.9,4.8-3.3C139.2,102,138.7,106.6,138.4,108.1z"/>
	<path class="st4" d="M79.4,112.1c0.1,0.5,0.1,1,0.3,1.5c0.6,1.5,2.8,0.5,3.9,0.3c2.1-0.4,4.2-0.4,6.3-0.1c0.2,0,0.4-0.1,0.4-0.3
		c-0.2-3.6-0.4-7.3-1.7-10.8c-0.7-1.9-2-5.6-4.9-5.4c-3,0.2-4.2,3.5-4.5,5.6c-0.4,2-0.4,4.1-0.2,6.1C79.1,110,79.2,111.1,79.4,112.1
		z M80.2,102c0.3-0.9,0.5-2,1.3-2.8c0.7-0.7,2-0.9,3.1-0.7c1.5,0.2,1.8,1.1,2.4,2.2c0.8,1.5,1.3,3.1,1.7,4.7c0.5,2,0.7,4,0.8,6
		c0,0.6,0.3,1.4-0.3,1.8c-0.4,0.2-2.7-0.1-3.2,0c-1.4,0.1-2.6,0.7-4,0.7c-0.6,0-1-0.2-1.3-0.6c-0.4-0.5-0.6-1.1-0.7-1.7
		c-0.2-1.4-0.4-2.9-0.4-4.3C79.5,105.4,79.7,103.7,80.2,102z"/>
	<path class="st4" d="M96.2,113.9c0.7,0,1.5-0.4,2.1-0.5c0.9-0.2,1.9-0.3,2.8-0.3c2.4,0,3.4,0.8,3.8-1.5c0.4-2.6,0.3-5.4-0.1-8
		c-0.2-1.4-0.5-3.2-2.1-4c-1.4-0.8-3.4-0.4-4.6,0.5c-2.2,1.5-3,4-3.2,6.4c-0.2,1.3-0.3,2.7-0.4,4c-0.1,1-0.3,2.4,0.6,3.2
		C95.4,113.9,95.7,113.9,96.2,113.9z M94.8,109.9c0.1-2.3,0.8-4.7,1.8-6.9c0.9-2.2,3.4-4.5,6.2-2.7c1.5,0.9,1.4,4.2,1.5,5.6
		c0.1,1.5,0.1,2.9,0,4.4c-0.1,0.8-0.2,2-1.2,2.4c-0.5,0.2-1.8-0.1-2.5-0.1c-0.6,0-1.2,0.1-1.7,0.2c-0.5,0.1-1.9,0.6-2.4,0.5
		C94.8,113.1,94.7,111.1,94.8,109.9z"/>
	<path class="st4" d="M71.4,145.7c-0.5-1.2-0.9-3-2.5-3.4c-1.6-0.4-3.3,0.6-4.1,1.7c-2.6,3.3-1.3,8.5-0.1,12.2
		c0,0.3,0.1,0.6,0.3,0.8c0,0,0,0.1,0,0.1c0,0.1,0.1,0.1,0.1,0.1c0.2,0.1,0.3,0.2,0.6,0.3c0.7,0.1,2.1-0.8,2.7-1
		c0.8-0.2,1.7-0.3,2.6-0.3c0.5,0,1.3,0.2,1.7,0.1c1.4-0.5,0.7-2.2,0.5-3.3C73,150.5,72.3,148,71.4,145.7z M72.3,155.8
		c-0.7,0.3-2.5,0-3.5,0.2c-0.7,0.1-1.7,0.6-2.4,0.4c-3.3-0.7-2.4-6.1-2.3-8.2c0.1-1.7,0.5-3.4,2-4.6c2.8-2.1,4.5,1.3,5.2,3.3
		C71.9,148.5,74.5,154.9,72.3,155.8z"/>
	<path class="st4" d="M83.1,139.1c-3,0.2-4.2,3.5-4.5,5.6c-0.4,2-0.4,4-0.2,6c0.1,1.1,0.1,2.1,0.2,3.2c0.3,1.8,1.9,2.3,3.8,2.1
		c2.4-0.2,4.3-0.7,6.8-0.4c0.2,0,0.4-0.1,0.4-0.3c-0.2-3.6-0.4-7.3-1.7-10.8C87.3,142.6,86,138.9,83.1,139.1z M88.5,154.9
		c-0.4,0.2-2.7-0.1-3.2,0c-1.4,0.1-3.4,1.1-4.7,0.6c-1.7-0.6-1.5-3.5-1.5-4.7c-0.1-2.4-0.2-4.6,0.5-7c0.3-1.2,0.7-2.5,1.9-3.2
		c4.3-2.5,6,4.1,6.5,6.5c0.5,2,0.7,4,0.8,6C88.9,153.7,89.2,154.5,88.5,154.9z"/>
	<path class="st4" d="M102,141.3c-1.4-0.8-3.4-0.4-4.6,0.5c-2.3,1.6-3,4.1-3.2,6.5c-0.1,1.7-1.3,5.8,0.2,7.1
		c0.4,0.4,0.6,0.3,1.1,0.3c0.7,0,1.5-0.4,2.1-0.5c0.9-0.2,1.9-0.3,2.8-0.3c2.4,0,3.4,0.8,3.8-1.5c0.4-2.7,0.3-5.4-0.1-8
		C103.9,143.9,103.6,142.1,102,141.3z M103.7,152.1c-0.1,0.8-0.2,2-1.2,2.4c-0.5,0.2-1.8-0.1-2.5-0.1c-0.6,0-1.2,0.1-1.7,0.2
		c-0.5,0.1-1.9,0.6-2.4,0.5c-3.5-0.3-0.6-8.7,0-10.2c0.9-2.2,3.4-4.5,6.2-2.7c1.5,0.9,1.4,4.2,1.5,5.6
		C103.8,149.2,103.8,150.6,103.7,152.1z"/>
	<path class="st3" d="M52.1,93.3c3.2,0.5,6.4,1,9.6,1.3c1.2,0.1,2.4,0.2,3.6,0.3c0.3,0,0.6,0,0.9,0c4.1,0.1,8.2-0.2,12.3-0.6
		c1.7-0.2,3.4-0.4,5-0.6c4.2-0.5,8.5-0.8,12.7-1.1c0.9-0.1,1.7-0.1,2.6-0.2c1.3-0.1,2.5-0.1,3.8-0.2c1.1,0,2.1-0.1,3.2-0.1
		c1.4-0.1,2.9-0.1,4.3-0.2c0.9,0,1.8-0.1,2.8-0.1c0.1,0,0.2,0,0.3,0c0.1,0,0.2,0,0.3,0c0.7,0,1.3,0,2,0c0.3,0,0.6,0,0.9,0
		c-0.7-0.8-1.4-1.5-2.1-2.3c-7.8-8.8-13.6-18.8-18.7-28.9c-0.1-0.3-0.3-0.5-0.4-0.8c-5.4-10.8-9.6-22-13.7-33.3
		c-1.5,4.7-3,9.4-4.6,14.1c-2.4,6.9-5,13.7-8,20.4c-3.5,7.7-7.4,15.3-12.3,22.4c-0.6,0.9-1.2,1.8-1.9,2.7c-1.2,1.7-2.5,3.3-3.8,5
		c-0.1,0.1-0.2,0.3-0.4,0.4c-0.1,0.1-0.2,0.2-0.3,0.3c-0.3,0.3-0.5,0.6-0.8,0.9c0.2,0,0.3,0.1,0.5,0.1c0.3,0.1,0.6,0.1,0.9,0.2
		C51.3,93.1,51.7,93.2,52.1,93.3z"/>
	<path class="st3" d="M153,74.3c-0.1-1.2-0.3-2.3-0.4-3.5c-0.2-2.2-0.3-4.4-0.4-6.6c-0.1-1.9-0.1-3.8,0-5.7
		c0.1-3.6,0.3-7.2,0.7-10.8c-4.1,6-8.7,11.7-13.5,17.3c-3.2,3.7-6.4,7.3-9.7,10.9c0,0,0,0-0.1,0.1c0,0,0,0,0,0
		c-1.8,1.9-3.5,3.8-5.3,5.7c-2.1,2.2-4.1,4.4-6.1,6.6c0.7,0.4,1.4,0.8,2.1,1.2c0.3,0.2,0.6,0.3,0.9,0.5c0.1,0.1,0.3,0.2,0.4,0.2
		c3.1,1.7,6.4,3.1,9.8,4.3c2.6,0.9,5.2,1.6,8,2.1c1.6,0.3,3.2,0.5,4.8,0.7c2.6,0.2,5.1,0.3,7.6,0.3c1.1,0,2.3-0.1,3.4-0.2
		c0.1,0,0.3,0,0.4,0c0.3,0,0.6-0.1,0.9-0.1c0.5,0,1-0.1,1.5-0.1c-0.6-1.7-1.1-3.4-1.6-5.2c-0.5-1.8-0.9-3.7-1.3-5.5
		c-0.1-0.4-0.2-0.7-0.2-1.1c-0.1-0.3-0.1-0.6-0.2-0.9c-0.6-3-1.1-6-1.5-9C153.1,75,153.1,74.7,153,74.3z"/>
	<path class="st3" d="M30,97c0.1,0,0.2,0,0.2-0.1c0.2-0.1,0.4-0.1,0.6-0.2c3.4-0.9,6.7-2.2,9.8-3.8c1.1-0.6,2.3-1.2,3.3-1.9
		c0.1,0,0.1-0.1,0.2-0.1c0.1-0.1,0.2-0.1,0.3-0.2c0.6-0.4,1.2-0.8,1.8-1.2c0.3-0.2,0.5-0.4,0.8-0.6c-3.8-3.8-7.6-7.6-11.4-11.5
		c-0.4-0.4-0.8-0.8-1.2-1.2c-0.4-0.4-0.8-0.8-1.2-1.2C25.3,67.1,17.7,58.9,11.1,50c0.5,3.5,0.9,7,1.1,10.5c0.3,4.2,0.3,8.4,0.1,12.6
		c-0.2,4-0.6,8-1.2,12c-0.1,0.9-0.3,1.8-0.4,2.7c-0.1,0.8-0.3,1.5-0.4,2.3c-0.1,0.3-0.1,0.6-0.2,0.9c-0.4,2-0.8,4.1-1.3,6.1
		c-0.3,1.1-0.6,2.1-1,3.2c0.7-0.1,1.3-0.1,2-0.2c0.3,0,0.5-0.1,0.8-0.1c0,0,0.1,0,0.1,0c0.1,0,0.2,0,0.3,0
		C17.3,99.2,23.7,98.6,30,97z"/>
	<path class="st4" d="M184.4,43.2c-3.8-2.4-7.5-5-11-7.8c3.4-0.1,6.7-0.7,10-1.7c0.3-0.1,0.4-0.5,0.1-0.7c-1.7-0.7-3.3-1.3-5-2
		c-5.1-2.1-10.2-4.1-15.2-6.3c-0.3-0.1-0.6,0-0.7,0.3c-1.9,4.2-3.9,8.3-5.9,12.5c-1.3,2.8-2.6,5.7-3.6,8.6
		c-4.8,6.8-9.9,13.3-15.4,19.6c-4.6,5.3-9.3,10.5-14,15.7c-2,2.2-3.9,4.5-5.8,6.7c-0.1,0.1-0.2,0.3-0.4,0.4c0.1,0,0.1,0.1,0.2,0.1
		c1.1,0.8,2.2,1.5,3.4,2.2c0,0.3,0,0.6,0,0.9c0,0.2,0,0.4,0,0.6c-0.2,6.6-1,13-2.7,19.5c-0.7,2.5-1.4,5-2.3,7.5
		c-2.1-0.2-4.3-0.4-6.4-0.5c0-3.1,0.1-6.3,0.4-9.4c0.6-5.7,1.9-11.2,3.2-16.7c1.3,0,2.6-0.1,4-0.1c0.4,0,0.8,0,1.1-0.1
		c-0.2-0.3-0.5-0.5-0.7-0.8c-9.2-10.3-16.3-21.9-22.3-34c-5.1-10.3-9.4-21-13.5-31.6c0.1,0,0.1-0.1,0.1-0.2c0.4-3.1,0.2-6.3,0-9.4
		c0,0,0,0,0,0c10.2-0.1,21.4-1.5,29.7-7.1c0.3-0.2,0.2-0.6-0.2-0.6c-2.9,0-5.7-0.4-8.5-1c-1.9-0.5-3.8-1.1-5.7-1.8
		c2.5-1.6,4.8-3.4,6.8-5.5c0.3-0.3,0-0.7-0.4-0.6c-7.7,1.1-15.5,1.5-23.3,1.1c-0.2,0-0.4,0.2-0.4,0.4c0.2,3.9,0.4,7.8,0.6,11.7
		c0,0.3,0,0.7,0.1,1c0.2,3.7,0.2,7.5,0.8,11.1c-0.1,0.2-0.1,0.4-0.2,0.5c-6.7,19.5-14,39.5-25.8,57.2c-1.6,2.4-3.3,4.8-5.1,7.1
		c-0.2,0.2-0.4,0.5-0.6,0.7c-0.4,0.6-0.9,1.1-1.4,1.7c-0.1,0.1-0.2,0.3-0.3,0.4c0.3,0.1,0.7,0.1,1,0.2c0.7,0.1,1.4,0.3,2.1,0.4
		c2.6,4.9,4.7,9.9,6.3,15.1c1.2,4.1,2,8.1,2.5,12.2c-0.4,0-0.7,0.1-1.1,0.1c-2.5,0.2-5.1,0.5-7.6,0.8c-1.1-2.9-2.2-5.8-3.1-8.7
		c-2.1-7-3.2-14-3.6-21.2c1.1-0.7,2.1-1.5,3.1-2.3c0.1-0.1,0.1-0.1,0.2-0.2c-0.2-0.2-0.4-0.4-0.6-0.6c-4.5-5-9.2-9.8-13.9-14.7
		c-2.1-2.2-4.2-4.4-6.3-6.6c-5.8-6.2-11.2-12.5-16.2-19.2c0-0.1-0.1-0.1-0.1-0.2c-0.8-2.3-2.2-4.5-3.4-6.6c4.6-1.2,8.9-3.3,13-5.4
		c3.1-1.6,6.1-3.6,7.2-6.8c0-0.1,0-0.2,0-0.2c-0.1-0.2-0.4-0.3-0.6-0.3c-3.4,0.6-6.7,1.1-10.1,1.5c1.8-2.6,3.1-5.4,4.1-8.3
		c0.1-0.2-0.2-0.4-0.4-0.3C13.6,23.2,7,25.1,0.3,27.2C0.1,27.2,0,27.4,0,27.7c0.5,1.9,1.2,3.7,2,5.6c0.9,2.1,1.9,4.2,2.9,6.2
		c1.4,2.9,2.9,6.4,5.1,9c0,0,0,0,0,0c1,8,1.3,16.1,1,24.1c-0.2,5.1-0.7,10.1-1.5,15.2c-0.1,1-0.3,1.9-0.5,2.9
		c-0.6,3.2-1.4,6.3-2,9.5c0,0.1-0.1,0.3-0.1,0.4c0.2,0,0.4,0,0.5,0c1.1,0,2.2,0,3.3,0c5.1,9.9,9.4,20.1,12.6,30.7
		c1.7,5.7,3.1,11.4,4.2,17.2c0.2,1,0.4,2.1,0.6,3.1c0.4,2.4,0.7,4.8,1,7.2c-6.9,0.5-13.8,1.5-20.5,3c-0.2,0-0.3,0.1-0.5,0.1l0.2,0.6
		c0.6,1.7,1.1,3.4,1.6,5.1c0,0.2,0.1,0.3,0.1,0.4c3.2,10.2,6,20.5,8.1,31c0.3,1.7,0.7,3.4,1,5.2c-8.9,13.1-14.1,28.9-14.1,45.8
		c0,45,36.6,81.7,81.7,81.7c45,0,81.7-36.6,81.7-81.7c0-18.7-6.3-36-17-49.7c0.1-0.9,0.2-1.8,0.4-2.7c1.7-11.1,4.1-22,6.6-33
		c0.1-0.2,0.1-0.4,0.1-0.6c0.3-1.3,0.6-2.6,0.9-4c0-0.2,0.1-0.4,0.1-0.6c-0.2,0-0.5-0.1-0.7-0.1c-6.5-1.2-13.2-1.9-19.8-2.2
		c0.3-3.3,0.6-6.7,1.1-10c0.9-6,2-11.9,3.6-17.7c2.7-10.6,6.5-20.8,11.2-30.8c1.2-0.1,2.3-0.2,3.4-0.4c0.2,0,0.4,0,0.5-0.1
		c-0.1-0.4-0.2-0.7-0.3-1.1c-0.9-3.7-2-7.4-2.7-11.1c-0.8-4.3-1.4-8.6-1.9-12.9c-0.1-0.9-0.2-1.7-0.3-2.6c-0.7-8-0.7-16.1,0-24.2
		c0-0.1,0-0.1,0-0.2c1.4-2.4,2.7-4.8,3.9-7.4c4.3,1.7,8.7,3.2,13.2,4.5c4.4,1.2,8.8,2,13.3,0.7C184.7,43.7,184.7,43.4,184.4,43.2z
		 M6.5,39.9c-0.9-2-1.8-4-2.7-6c-0.5-1.2-1-2.4-1.5-3.6c-0.2-0.4-1-1.8-1-2.2c0.2-0.8,1.1-0.8,1.9-1.1c2-0.7,4-1.3,6-1.9
		c3.6-1.1,7.2-2,10.8-2.9c-1.1,3-2.7,5.8-5,8.3c-0.3,0.4-0.1,1,0.5,0.9c3.6-0.2,7.3-0.7,10.7-1.7c0,0,0,0,0,0.1
		c-1.2,3-4.7,4.7-7.7,6.2c-3.7,1.9-7.5,3.6-11.6,4.7C6.8,40.5,6.6,40.2,6.5,39.9z M81.1,3.5c-0.1-1.4-0.3-1.4,1.2-1.6
		c0.9-0.1,1.9,0,2.8,0.1c2.2,0,4.4,0,6.6-0.1c3.7-0.2,7.4-0.5,11.1-1c-1.9,1.9-4.1,3.6-6.5,5c-0.2,0.1-0.3,0.5,0,0.6
		c1.9,0.8,3.8,1.5,5.8,2c2.7,0.7,5.5,1.1,8.3,1.1c-8.3,5.3-18.6,5.3-28.4,6.1c0,0,0,0-0.1,0c0-0.4,0-0.7-0.1-1.1
		c0-0.4-0.1-0.9-0.1-1.3C81.7,10,81.5,6.8,81.1,3.5z M50.9,93.1c-0.3-0.1-0.6-0.1-0.9-0.2c-0.2,0-0.3-0.1-0.5-0.1c0,0,0,0,0,0
		c0.3-0.3,0.5-0.6,0.8-0.9c0.1-0.1,0.2-0.2,0.3-0.3c0.1-0.1,0.2-0.3,0.4-0.4c1.3-1.6,2.6-3.3,3.8-5c0.6-0.9,1.3-1.8,1.9-2.7
		c4.9-7.1,8.8-14.7,12.3-22.4c3-6.7,5.6-13.5,8-20.4c1.6-4.7,3.1-9.4,4.6-14.1c0,0,0,0,0,0c4,11.3,8.3,22.4,13.7,33.3
		c0.1,0.3,0.3,0.5,0.4,0.8c5.1,10.1,11,20.1,18.7,28.9c0.7,0.8,1.4,1.6,2.1,2.3c0,0,0,0,0,0c-0.3,0-0.6,0-0.9,0c-0.6,0-1.3,0-2,0
		c-0.1,0-0.2,0-0.3,0c-0.1,0-0.2,0-0.3,0c-0.9,0-1.8,0.1-2.8,0.1c-1.4,0.1-2.9,0.1-4.3,0.2c-1.1,0-2.1,0.1-3.2,0.1
		c-1.3,0.1-2.5,0.1-3.8,0.2c-0.9,0-1.7,0.1-2.6,0.2c-4.2,0.3-8.5,0.6-12.7,1.1c-1.7,0.2-3.4,0.4-5,0.6c-4.1,0.4-8.2,0.8-12.3,0.6
		c-0.3,0-0.6,0-0.9,0c-1.2-0.1-2.4-0.1-3.6-0.3c-3.2-0.3-6.4-0.8-9.6-1.3C51.7,93.2,51.3,93.1,50.9,93.1z M59.5,111.6
		c0,0,0-0.1,0-0.1c-0.3-1-0.6-2-0.9-3c-0.1-0.5-0.3-0.9-0.5-1.4c-0.9-2.7-1.9-5.3-3.1-7.9c-0.7-1.5-1.3-2.9-2.1-4.3
		c-0.2-0.3-0.3-0.7-0.5-1c0,0,0,0,0,0c1.9,0.4,3.8,0.7,5.7,1c0,0,0,0,0.1,0c1.9,0.3,3.8,0.5,5.7,0.6c4.3,0.3,8.5,0.1,12.7-0.3
		c2-0.2,4.1-0.4,6.1-0.6c6.3-0.7,12.7-1.2,19.1-1.4c3.6-0.2,7.2-0.2,10.8-0.3c-0.3,0.8-0.6,1.7-0.8,2.5c-1.3,4-2.1,8.1-2.6,12.2
		c-0.5,3.8-0.7,7.6-0.6,11.4c0,0,0,0,0,0c-6.9-0.3-13.8-0.3-20.6,0c-2,0.1-4,0.2-6,0.3c-2.6,0.1-5.3,0.3-7.9,0.5
		c-4.2,0.3-8.4,0.7-12.6,1.1C61,117.7,60.3,114.6,59.5,111.6z M50.6,122.8c0.2,0,0.4,0,0.6-0.1c0.1,0,0.2,0,0.4,0
		c1.3-0.1,2.6-0.2,3.9-0.4c1.5-0.1,3.1-0.3,4.6-0.4c0.4,0,0.7-0.1,1.1-0.1c0,0,0,0,0.1,0c0.1,0,0.2,0,0.3,0
		c7.1-0.7,14.2-1.2,21.3-1.6c6-0.3,12-0.4,18-0.3c2.6,0,5.2,0.1,7.7,0.2c0.4,0,0.8,0,1.1,0c0,0,0,0,0,0c1.8,0.1,3.7,0.2,5.5,0.3
		c0.2,0,0.3,0,0.5,0c0.4,0,0.7,0.1,1.1,0.1c1.5,0.1,2.9,0.2,4.4,0.4c1.2,0.1,2.4,0.2,3.6,0.4c0,0.1,0,0.2-0.1,0.3
		c-0.3,1.1-0.6,2.2-0.9,3.3c0,0.1-0.1,0.3-0.1,0.4c-2.9-0.1-5.8-0.1-8.6-0.1c-0.4,0-0.7,0-1.1,0c-0.8,0-1.5,0-2.3,0
		c-0.6,0-1.2,0-1.8,0c-0.1,0-0.2,0-0.4,0c-0.2,0-0.5,0-0.7,0c-9.7,0-19.4,0-29,0.3c-0.9,0-1.8,0-2.7,0.1c-5,0.1-10.1,0.3-15.1,0.5
		c-0.2,0-0.4,0-0.6,0c-0.3,0-0.5,0-0.8,0.1c-0.7,0-1.4,0.1-2.2,0.1c-0.5,0-0.9,0-1.4,0.1c-1.3,0.1-2.5,0.2-3.7,0.3
		c-0.4,0-0.7,0.1-1.1,0.1c-2.7,0.3-5.3,0.8-7.8,1.6c-0.3-1.5-0.7-3-1-4.5c0-0.1,0-0.1,0-0.2c0,0,0,0,0,0c1-0.2,1.9-0.4,2.9-0.5
		c0.7-0.1,1.5-0.2,2.2-0.2c0.7-0.1,1.4-0.1,2.1-0.2C50.6,122.8,50.6,122.8,50.6,122.8z M119.7,158.2c-0.1,1.1-0.1,2.1-0.2,3.2
		c0,0.3,0,0.7,0,1c0,0.2,0,0.5,0,0.7c0,0.2,0,0.4,0,0.6c-0.2,3.8-0.3,7.6-0.5,11.3c0,0,0,0,0,0c-9.8-4.2-20.7-6.6-32.1-6.6
		c-12.5,0-24.3,2.8-34.8,7.8c0,0,0,0,0,0c-0.5-4.2-1-8.4-1.6-12.6c0-0.2-0.1-0.5-0.1-0.7c-0.1-0.7-0.2-1.3-0.3-2
		c-0.1-0.5-0.2-1.1-0.2-1.6c0-0.3-0.1-0.6-0.1-0.9c-0.2-1.1-0.4-2.3-0.5-3.4c-0.4-2.5-0.8-5.1-1.3-7.6c-0.1-0.4-0.1-0.8-0.2-1.2
		c-0.5-3.2-1.1-6.3-1.7-9.5c-0.2-1.3-0.5-2.6-0.7-3.9c-0.3-1.3-0.5-2.7-0.8-4c0,0,0,0,0,0c1.7-0.5,3.4-0.8,5.2-1.1
		c0.9-0.1,1.9-0.3,2.8-0.4c0.3,0,0.6-0.1,0.9-0.1c0.1,0,0.1,0,0.2,0c1.8-0.2,3.7-0.3,5.5-0.4c0.5,0,1,0,1.5-0.1c0.4,0,0.8,0,1.1,0
		c0.1,0,0.2,0,0.3,0c1.4-0.1,2.7-0.1,4.1-0.1c2.6-0.1,5.1-0.2,7.7-0.3c2.7-0.1,5.3-0.1,8-0.2c9.1-0.2,18.1-0.3,27.2-0.2
		c0.2,0,0.4,0,0.6,0c0.2,0,0.3,0,0.5,0c1.3,0,2.5,0,3.8,0c0.4,0,0.8,0,1.1,0c2.9,0,5.8,0.1,8.7,0.1c-1.2,5.4-2.1,10.9-2.7,16.3
		c-0.5,5-0.9,10-1.2,15C119.8,157.6,119.7,157.9,119.7,158.2z M10.6,99.9c0,0-0.1,0-0.1,0c-0.3,0-0.5,0.1-0.8,0.1
		c-0.7,0.1-1.3,0.1-2,0.2c0.4-1,0.7-2.1,1-3.2c0.5-2,1-4.1,1.3-6.1c0.1-0.3,0.1-0.6,0.2-0.9c0.1-0.8,0.3-1.6,0.4-2.3
		c0.2-0.9,0.3-1.8,0.4-2.7c0.6-4,1-8,1.2-12c0.2-4.2,0.2-8.4-0.1-12.6c-0.2-3.5-0.6-7-1.1-10.5c0,0,0,0,0,0
		c6.6,8.9,14.3,17.1,22.2,25.2c0.4,0.4,0.8,0.8,1.2,1.2c0.4,0.4,0.8,0.8,1.2,1.2c3.8,3.8,7.6,7.6,11.4,11.5
		c-0.3,0.2-0.5,0.4-0.8,0.6c-0.6,0.4-1.2,0.8-1.8,1.2c-0.1,0.1-0.2,0.1-0.3,0.2c-0.1,0-0.1,0.1-0.2,0.1c-1.1,0.7-2.2,1.3-3.3,1.9
		c-3.1,1.6-6.4,2.8-9.8,3.8c-0.2,0.1-0.4,0.1-0.6,0.2c-0.1,0-0.2,0-0.2,0.1c-6.2,1.6-12.6,2.2-19,2.8C10.8,99.8,10.7,99.9,10.6,99.9
		z M29.1,148.6c-0.9-5-2.2-10-3.6-14.8c-0.3-0.9-0.6-1.9-0.8-2.8c-2.6-8.5-6-16.8-10.2-24.7c-1-1.9-2-3.8-3.1-5.6
		c3.5-0.1,7.1-0.4,10.6-0.9c6.7-0.9,13.2-2.7,18.9-5.7c1-0.5,2-1.1,3-1.7c0.1,0,0.1-0.1,0.2-0.1c-0.1,2-0.1,3.9,0.1,5.9
		c0.4,5,1.5,10,2.9,14.8c0.9,3,1.9,5.9,3,8.8c0,0.1,0,0.1,0.1,0.2c-0.4,0-0.7,0.1-1.1,0.1c-0.4,0-0.8,0.1-1.2,0.1
		c-0.4,0-0.8,0.1-1.2,0.1c-1,0.1-2,0.3-3,0.5c-0.1,0-0.2,0.1-0.3,0.1c-0.1,0-0.2,0-0.3,0.1c-0.1,0-0.2,0-0.2,0.1
		c-0.1,0-0.2,0-0.2,0.1c0,0,0,0,0,0c0,0.2,0.1,0.4,0.1,0.6c0,0,0,0,0,0.1c0.1,0.7,0.2,1.4,0.4,2.1c0.2,0.9,0.3,1.7,0.5,2.6
		c0,0.1,0.1,0.3,0.1,0.4c0.6,3.1,1.2,6.3,1.8,9.4c0.4,2.1,0.8,4.1,1.1,6.2c0.3,1.6,0.5,3.2,0.7,4.8c0.2,1.4,0.4,2.9,0.6,4.3
		c0.2,1.6,0.5,3.1,0.7,4.7c0,0,0,0,0,0c-0.2,0-0.4,0-0.6,0c-1.5,0-3.1-0.1-4.6-0.1c-4.3,0-8.6,0.1-12.8,0.4c-0.2-2.5-0.6-5-1-7.5
		C29.5,150.4,29.3,149.5,29.1,148.6z M10.9,167.4c-0.6-1.7-1.2-3.3-1.8-5c6.8-0.9,13.6-1.7,20.4-2.3c0.4,0,0.9-0.1,1.3-0.1
		c1.4-0.1,2.8-0.2,4.1-0.3c1.5-0.1,3-0.2,4.4-0.2c0.2,0,0.3,0,0.5,0c2.8-0.1,5.6-0.2,8.5-0.2c0.2,0,0.3,0,0.5,0c0,0,0,0,0,0
		c0.2,1.2,0.3,2.4,0.5,3.6c0,0,0,0,0,0c0,0-0.1,0-0.1,0c-3.9,0.1-7.9,0.3-11.8,0.6c-1,0.1-2,0.2-3,0.3c-0.9,0.1-1.7,0.2-2.6,0.3
		c-0.3,0-0.5,0.1-0.8,0.1c-0.3,0-0.7,0.1-1,0.1C23.5,165,17.1,166,10.9,167.4C10.9,167.4,10.9,167.4,10.9,167.4z M19.6,199.6
		c-1.3-6.3-2.8-12.5-4.6-18.8c-0.9-3.3-1.9-6.6-3-9.9c-0.3-1-0.7-2-1-3c0,0,0,0,0,0c1.8-0.4,3.5-0.7,5.3-1c3.7-0.7,7.4-1.3,11.2-1.7
		c0.8-0.1,1.7-0.2,2.5-0.3c0.3,0,0.6-0.1,1-0.1c1.4-0.2,2.8-0.3,4.3-0.4c0.8-0.1,1.7-0.1,2.5-0.2c2-0.1,4-0.2,6-0.3
		c1.1,0,2.1-0.1,3.2-0.1c0.8,0,1.6,0,2.3,0c0,0,0,0,0.1,0c0,0.3,0.1,0.5,0.1,0.8c0,0.2,0,0.4,0.1,0.6c0.1,1,0.3,2,0.4,3
		c0.4,2.9,0.7,5.9,1,8.8c-3.6,1.8-7,3.8-10.2,6c-0.2-1.7-0.6-3.4-1.2-5.1c-0.7-1.9-2-5.6-4.9-5.4c-3,0.2-4.2,3.5-4.5,5.6
		c-0.4,2.2-0.5,4.4-0.4,6.5c0.1,1.1,0.2,2.2,0.5,3.3c0.4,1.3,1.2,1.7,2.2,1.6c-4.5,4.1-8.6,8.6-12.1,13.6c0,0,0,0,0,0
		C20.1,201.8,19.9,200.7,19.6,199.6z M33.1,188.7c-0.4,0-0.7,0-1-0.2c-0.3-0.1-0.5-0.2-0.6-0.4c-0.9-1-1.1-3.2-1.3-4.4
		c-0.2-1.6,0.3-3.3,0.5-4.9c0.2-1.5,0.6-3.9,2.1-4.8c1.4-0.9,3.7-0.6,4.5,0.7c1.2,1.7,1.8,3.7,2.3,5.6c0.2,1,0.4,2,0.5,3
		C37.6,185,35.3,186.8,33.1,188.7z M166.5,250.1c0,43.9-35.7,79.7-79.7,79.7C43,329.7,7.2,294,7.2,250.1s35.7-79.7,79.7-79.7
		C130.8,170.4,166.5,206.1,166.5,250.1z M131.8,181.9c0.1-0.8,0.2-1.6,0.3-2.4c0.4-1.9,0.9-4,2-5.7c0.8-1.3,1.8-2.7,4.3-1.1
		c1.1,0.7,1.6,2.1,2,3.2c0.6,1.7,0.9,3.4,1,5.2c0,1.1-0.2,2.1-0.4,3.1c-0.1,0.9,0.1,1.9-0.3,2.7c-0.2,0.5-0.7,0.7-1.2,0.8
		C137.1,185.7,134.5,183.7,131.8,181.9z M157.3,165.3c-2.9,10.9-5,22-6.7,33c0,0,0,0,0,0c0,0.1,0,0.1,0,0.2c0,0.2-0.1,0.4-0.1,0.5
		c-3.1-3.9-6.6-7.5-10.4-10.8c0.6-0.1,1.2-0.3,1.5-0.9c0.6-1.2,0.3-3,0.3-4.3c0.1-2,0-4-0.4-5.9c-0.4-2.2-1.7-5.7-4.8-5.8
		c-2.8-0.1-3.9,3.4-4.6,5.2c-0.5,1.6-0.9,3.3-1.1,4.9c-3.5-2.3-7.2-4.3-11.1-6c0.1-2.8,0.2-5.6,0.3-8.4c0.1-1.3,0.1-2.6,0.2-3.9
		c0,0,0,0,0,0c1.8,0,3.7,0,5.5,0c3.9,0,7.8,0,11.7,0.2c0.1,0,0.2,0,0.3,0c0.2,0,0.3,0,0.5,0c0,0,0.1,0,0.1,0c0,0,0.1,0,0.1,0
		c1.9,0.1,3.9,0.2,5.8,0.3c4.3,0.3,8.7,0.6,13,1C157.4,164.8,157.4,165,157.3,165.3z M149.9,159.2c1.7,0.1,3.5,0.3,5.2,0.5
		c1.2,0.1,2.5,0.2,3.7,0.4c-0.3,1.1-0.6,2.2-0.9,3.3c-0.1,0.2-0.1,0.4-0.2,0.7c-1-0.1-2.1-0.2-3.1-0.3c-3.7-0.3-7.4-0.6-11.1-0.8
		c-1.3-0.1-2.7-0.2-4-0.2c-0.2,0-0.5,0-0.7,0c-0.3,0-0.7,0-1,0c-3.9-0.2-7.8-0.3-11.8-0.3c-0.5,0-1,0-1.5,0c-1.3,0-2.6,0-3.9,0
		c0,0,0,0,0,0c0.1-1.4,0.1-2.8,0.2-4.2c0,0,0,0,0,0c1.8,0,3.5,0,5.2,0c0.7,0,1.5,0,2.2,0c3.2,0,6.4,0.1,9.6,0.3c0.1,0,0.1,0,0.2,0
		c0.4,0,0.7,0,1.1,0C142.7,158.6,146.3,158.9,149.9,159.2z M142.7,129c0,0,0,0.1,0,0.1c0,0,0,0,0,0c-0.9,3.3-1.7,6.7-2.4,10.1
		c-1.1,5.3-1.9,10.6-2.3,15.9c0,0.7-0.1,1.3-0.1,2c-0.4,0-0.8,0-1.2,0c-3.6-0.1-7.1-0.1-10.7,0c-1.7,0-3.5,0.1-5.2,0.2
		c0.2-4.2,0.5-8.4,0.9-12.6c0.1-1.2,0.2-2.5,0.4-3.7c0.5-5,1.2-10,2.2-14.9c0-0.2,0.1-0.5,0.1-0.7c0.3-1.3,0.6-2.7,0.9-4
		c0-0.1,0.1-0.3,0.1-0.4c0-0.1,0-0.1,0.1-0.2c-0.1,0-0.3,0-0.4-0.1c-1.8-0.3-3.7-0.6-5.5-0.8c-0.8-0.1-1.5-0.2-2.3-0.3c0,0,0,0,0,0
		c0.9-2.6,1.6-5.1,2.3-7.8c0.8-3,1.4-6.1,1.8-9.2c0.4-2.7,0.6-5.3,0.5-8c0-0.8,0-1.6-0.1-2.5l0-0.1c0-0.3-0.1-0.6-0.1-0.9
		c0,0,0,0,0,0c0.3,0.2,0.7,0.4,1.1,0.6c2.7,1.5,5.6,2.7,8.5,3.7c0.8,0.3,1.6,0.5,2.5,0.8c1.8,0.5,3.6,0.9,5.4,1.3
		c3,0.6,6.2,0.9,9.4,1.1c2,0.1,4,0.1,6.1,0C149.4,108.4,145.4,118.6,142.7,129z M154.7,84.4c0.1,0.3,0.1,0.6,0.2,0.9
		c0.1,0.4,0.2,0.7,0.2,1.1c0.4,1.8,0.8,3.6,1.3,5.5c0.5,1.8,1,3.5,1.6,5.2c0,0,0,0,0,0c-0.5,0.1-1,0.1-1.5,0.1
		c-0.3,0-0.6,0.1-0.9,0.1c-0.1,0-0.3,0-0.4,0c-1.1,0.1-2.3,0.1-3.4,0.2c-2.5,0.1-5.1,0-7.6-0.3c-1.6-0.2-3.2-0.4-4.8-0.7
		c-2.7-0.5-5.4-1.2-8-2.1c-3.4-1.1-6.7-2.6-9.8-4.3c-0.1-0.1-0.3-0.2-0.4-0.2c-0.3-0.2-0.6-0.3-0.9-0.5c-0.7-0.4-1.4-0.8-2.1-1.2
		c2-2.2,4.1-4.4,6.1-6.6c1.8-1.9,3.5-3.8,5.3-5.7c0,0,0,0,0,0c0,0,0,0,0.1-0.1c3.3-3.6,6.6-7.2,9.7-10.9c4.8-5.6,9.4-11.3,13.5-17.3
		c0,0,0,0,0,0c-0.4,3.6-0.6,7.2-0.7,10.8c0,1.9,0,3.8,0,5.7c0.1,2.2,0.2,4.4,0.4,6.6c0.1,1.2,0.2,2.3,0.4,3.5c0,0.4,0.1,0.7,0.1,1.1
		C153.5,78.4,154,81.4,154.7,84.4z M170.1,41.9c-4-1.3-7.8-2.8-11.8-4.2c0,0,0,0,0,0c1.8-4,3.4-8.1,5-12.1c4.8,2,9.7,4,14.6,6
		c1.4,0.6,2.8,1.2,4.3,1.7c-2.7,0.8-5.6,1.2-8.5,1.3c-0.4,0-0.9,0-1.3,0.1c-0.4,0-0.5,0.4-0.3,0.6c0,0,0.1,0.1,0.1,0.1
		c3.5,2.9,7.2,5.5,11.1,7.9C178.8,44.4,174.3,43.3,170.1,41.9z"/>
	<path class="st2" d="M172.1,35.3c-0.3-0.2-0.1-0.6,0.3-0.6c0.4,0,0.9,0,1.3-0.1c2.9-0.1,5.7-0.5,8.5-1.3c-1.4-0.6-2.9-1.1-4.3-1.7
		c-4.9-2-9.7-4-14.6-6c-1.6,4-3.2,8.1-5,12.1c0,0,0,0,0,0c3.9,1.4,7.8,2.9,11.8,4.2c4.2,1.4,8.8,2.6,13.2,1.5
		c-3.9-2.4-7.6-5.1-11.1-7.9C172.2,35.4,172.1,35.4,172.1,35.3z"/>
	<path class="st2" d="M82,14.6c0,0.4,0,0.7,0.1,1.1c0,0,0,0,0.1,0c9.9-0.8,20.1-0.7,28.4-6.1c-2.8-0.1-5.6-0.5-8.3-1.1
		c-2-0.5-3.9-1.1-5.8-2c-0.3-0.1-0.2-0.5,0-0.6c2.4-1.5,4.5-3.1,6.5-5c-3.7,0.5-7.4,0.8-11.1,1C89.6,2,87.4,2,85.2,2
		c-0.9,0-1.9-0.1-2.8-0.1c-1.5,0.2-1.4,0.2-1.2,1.6c0.3,3.2,0.6,6.5,0.7,9.8C81.9,13.7,81.9,14.2,82,14.6z"/>
	<path class="st2" d="M26.3,29.9C26.3,29.9,26.3,29.8,26.3,29.9c-3.4,0.9-7.1,1.5-10.7,1.6c-0.6,0-0.8-0.6-0.5-0.9
		c2.2-2.5,3.9-5.3,5-8.3c-3.6,0.9-7.3,1.8-10.8,2.9c-2,0.6-4,1.2-6,1.9c-0.8,0.2-1.7,0.3-1.9,1.1c-0.1,0.4,0.8,1.9,1,2.2
		c0.5,1.2,1,2.4,1.5,3.6c0.9,2,1.8,4,2.7,6c0.1,0.3,0.3,0.6,0.5,0.9c4.1-1.1,7.9-2.8,11.6-4.7C21.6,34.6,25.1,32.9,26.3,29.9z"/>
</g>
</svg>
