<?xml version="1.0" encoding="utf-8"?>
<!-- Generator: Adobe Illustrator 23.0.4, SVG Export Plug-In . SVG Version: 6.00 Build 0)  -->
<svg version="1.1" id="Fairy3" xmlns="http://www.w3.org/2000/svg" xmlns:xlink="http://www.w3.org/1999/xlink" x="0px" y="0px"
	 viewBox="0 0 239.7 257.6" style="enable-background:new 0 0 239.7 257.6;" xml:space="preserve">
<style type="text/css">
	#Fairy3 .st0{fill:none;}
	#Fairy3 .st1{fill:#333232;}
</style>
<g>
	<path class="st0" d="M150.4,191.6c-3.5,0.1-6.9-1-10.1-2.3c-3.1-1.3-6.2-2.7-9-4.7c-3.8-2.7-6.1-6.8-9-10.3c-0.4-0.5-0.8-1-1.3-1.4
		c0.2,0.1,0.3,0.1,0.5,0.2c3.8,1.1,7.7-0.2,11.1-2.7c1.9-1.4,3.7-3,5.5-4.6c1.9-1.7,3.7-3.5,5.1-5.6c2.2-3.3,3.3-7,4.3-10.8
		c-1.7-3.9-3.7-7.6-6-11.2c0.8,2.3,1.6,4.5,2.4,6.8c0,0.1,0.1,0.2,0.1,0.3c0,0,0,0,0,0c0,0,0,0,0,0c-0.1,0.1-0.2,0.1-0.4,0.1
		c0,0,0,0,0,0c0-0.1-0.1-0.2-0.1-0.3c-0.4-1.1-0.8-2.2-1.2-3.2c-0.7-1.9-1.4-3.8-2.1-5.8c-0.8-1.2-1.6-2.3-2.5-3.4
		c-0.8,0-1.6-0.2-2.3-0.5c-1.4-0.6-2.4-1.6-2.9-3.1c-0.2-0.4-0.6-1.4-0.2-1.8c0,0,0.1,0,0.1,0c0.3,0.1,0.5,0.4,0.7,0.7
		c-0.2-0.4-0.4-0.9-0.5-1.2c-13.7-14.2-32.9-23-54.1-23C36.8,103.9,3,137.7,3,179.2c0,41.5,33.8,75.4,75.4,75.4
		c37.4,0,68.5-27.4,74.4-63.2C151.9,191.5,151.2,191.6,150.4,191.6z"/>
	<path class="st0" d="M158.3,128.5C158.3,128.5,158.3,128.5,158.3,128.5c0,0-0.1,0-0.1,0c-5,1.3-10,2.4-15,3.5
		c-0.7,0.1-1.3,0.3-2,0.4c2.9,3.9,5.4,8,7.5,12.3c1.5-5.2,3.7-10.9,8-14c0.6-0.4,1.2-0.8,1.9-1.1c-0.1-0.3-0.2-0.6-0.3-0.9
		C158.3,128.7,158.3,128.6,158.3,128.5z"/>
	<path class="st1" d="M239.6,165.2c-0.4-7.5-2.2-14.9-6.3-21.2c-1.8-2.8-4-5.3-6.6-7.4c-1.3-1-2.8-1.8-4.1-2.8
		c-0.9-0.6-1.6-1.2-2.2-2.1c-0.3-0.4-0.6-0.7-1-1c-2.1-1.5-5.8-1.4-7.1-3.9c0.6,1.3,7-1,8-1.4c2.4-1.1,4.5-2.6,6.3-4.6
		c4.2-4.5,8.4-12.7,6.7-19.1c-0.1-0.5-0.3-1-0.6-1.4c-0.8-0.9-1.2,1-1.5,1.5c-2,3.3-5.9,4.4-9.6,4.5c-2.6,0.1-8.4,0-8.8-2.7
		c-0.9-5.5,2.2-10.8,1.3-16.4c-1.5-8.6-6.6-15.2-11.2-22.4c-12.9-20-22.3-63.4-24-64.8c-0.2-0.1-0.4-0.1-0.4,0
		c-0.9,13.9,1.4,27.7,3,41.5c0.7,6.1,1.3,12.1,0.8,18.2c-0.3,3.4-0.9,6.9-1.6,10.2c-0.4,1.7-3.4,8.8-2.7,10
		c-0.9-1.7-1.6-3.6-2.3-5.4c-1.7-4.1-3.7-8.2-6.5-11.7c-2.7-3.2-6.1-5.9-10.1-7.2c-1.1-0.3-2.2-0.5-3.3-0.6c-1.6-0.1-3.2,0-4.7,0.3
		c-0.3,0.1-0.6,0.1-0.9,0.2c-1.1,0.3-2.2,0.7-3.3,1.2c-0.2,0.1-0.3,0.1-0.5,0.2c-0.1,0.1-0.3,0.1-0.4,0.2c-1.5,0.8-3,1.7-4.4,2.9
		c-0.1,0.1-0.2,0.1-0.2,0.2c-1.4,1.2-2.5,2.7-3.1,4.3c0,0,0,0.1,0,0.1c-0.1,0.2-0.1,0.4-0.2,0.6c-0.1,0.3-0.1,0.6-0.2,0.9
		c-0.2-0.1-0.4-0.2-0.6-0.2c-0.5-0.1-1.1,0.2-1.4,0.6c-0.6,0.8-0.4,1.8,0.1,2.5c0.8,1.2,2,2.1,3.2,3c0.9,0.7,1.9,1.3,2.8,2
		c0,0.1,0.1,0.3,0.1,0.5c0.2,0.8,0.5,1.6,0.7,2.4c0.1,0.5,0.3,1.3,0.5,2.2c-0.9-0.1-1.7-0.3-2.4-1c0,0-0.1,0-0.1,0.1
		c0.5,0.8,1.3,1.2,2.2,1.5c0.1,0,0.2,0.1,0.4,0.1c0.2,1.6,0.1,3.1-1.4,3.3c-0.1,0-0.1,0.1-0.1,0.1c0.3,0.7,1,1,1.4,1.6
		c0.5,0.6,0.9,1.6,1.2,2.3c0.5,1,1,2.2,1.8,2.9c0.9,0.9,3.3,0.3,4.3-0.1c0.4-0.1,0.9-0.3,1.3-0.5c0.5-0.2,1-0.5,1.4-0.8
		c0.4,1,0.8,2.1,1.1,3.1c0.6,2.1,0.9,4.2,0.4,6.4c-0.3,1.4-0.9,2.6-1.5,3.9c-0.2,0.3-0.3,0.7-0.5,1c0.2-0.1,0.4-0.3,0.6-0.4
		c0,0,0.1-0.1,0.1-0.1c0,0.2,0,0.4,0,0.5c-0.1,1.5,0,3,0.1,4.6c0.2,2.9,0.7,5.7,1.4,8.6c0.5,2,0.9,4.2,1.6,6.2
		c-0.8,0.3-1.6,0.6-2.4,0.9c-1.9,0.9-3.8,1.7-5.9,2.3c-1,0.3-2,0.6-3,0.9c-0.5,0.2-1,0.3-1.6,0.5c-0.5,0.2-1,0.5-1.5,0.6
		c-1.3,0.2-1.6-1.1-2.5-1.6c-0.3-0.2-0.6-0.3-1-0.4c-0.3-0.1-0.8,0.1-1-0.1c-0.2-0.1-0.3-0.7-0.4-1c-0.3-0.8-0.5-1.5-0.8-2.3
		c-0.5-1.5-1-3.1-1.5-4.6c-0.2-0.7-0.5-1.5-0.7-2.2c-1-3.1-2-6.2-3-9.3c0,0,0,0,0.1,0c0.5,0.3,1.1,0.4,1.6,0.4
		c0.8,0.1,1.8,0.3,2.7,0.3c0.7,0,1.4,0,2.1-0.1c0.1,0,0.2-0.2,0.1-0.3c-1.1-1.1-2.3-2.1-3.5-3.2c-0.5-0.4-1.3-0.8-1.4-1.5
		c-0.1-0.9,1.2-1.4,1.6-1.9c0.4-0.4,1.8-2.3,1.4-3c0,0-0.1-0.1-0.1-0.1c-0.1,0-0.1,0-0.2,0.1c-0.9,0.3-1.7,0.6-2.6,0.9
		c-0.8,0.3-1.7,0.9-2.5,1.1c-0.7,0.2-0.7,0.2-1.1-0.3c-0.3-0.4-0.6-1-0.9-1.5c-0.4-0.8-0.9-1.5-1.4-2.2c-0.1-0.1-0.2-0.1-0.2,0.1
		c0,0.3,0,0.5,0,0.8c-0.1,1.4-0.2,2.8-0.2,4.3c-1,0.6-2,1.2-3.1,1.6c-0.6,0.2-1.5,0.4-1.7,1c0,0.1,0,0.1,0.1,0.2
		c0.5,0.3,1.4,0.4,2,0.5c0.6,0.1,1.4,0.1,1.9,0.4c1,0.4,0.8,1.1,0.7,2c-0.4,2-1.1,4-1,6.1c0,0.1,0.2,0.2,0.2,0.1
		c0.8-1,1.6-2.1,2.4-3.1c0.4-0.5,0.8-1.1,1.2-1.6c0.3-0.4,0.6-1.1,1.2-1.1c1.6,6.3,3.8,12.4,5.9,18.5c0,0,0,0.1,0,0.1
		c-0.3,0.1-0.7,0.5-0.8,0.8c0,0,0,0,0,0.1c-14.3-15.1-34.5-24.6-56.9-24.6C35.1,100.9,0,136,0,179.2c0,43.2,35.1,78.4,78.4,78.4
		c28.7,0,53.8-15.5,67.5-38.6c-0.1,0.2-0.1,0.4-0.2,0.5c-1,2.4-2,4.9-3.3,7.2c-1,1.9-2.3,3.8-3.4,5.6c0,0,0,0,0,0
		c-0.2,0.3-0.4,0.7-0.6,1c1.3,0.9,3.1-0.9,4.1-1.6c0.7-0.5,1.4-0.9,2.1-1.4c1.2-0.8,2.4-1.7,3.6-2.6c1.3-1,2.8-1.9,3.2-3.5
		c0.2-0.9,0.2-2-0.5-2.7c0.5-2.4,0.5-4.8,2-7c1.6-2.3,3.3-4.6,4.9-7c1.5-2.3,2.9-4.7,4.2-7.1c0.2-0.3,0.4-0.7,0.5-1.1
		c0.6-1.2,1.2-2.4,1.7-3.7c0.6,0,1.1-0.1,1.7-0.1c1.5-0.1,3-0.2,4.4-0.4c5.1-0.5,10.2-1.1,15.3-1.9c1.5-0.2,3-0.5,4.5-0.8
		c0.5-0.1,1.1-0.2,1.7-0.2c1.1-0.1,2.2-0.3,3.1-0.7c0.7-0.3,1-0.9,1-1.6c0-0.1,0-0.1,0-0.2c0-0.2,0-0.4,0-0.6
		c-0.2-1.4-1.6-2.3-1.7-3.7c1,0.9,2,1.7,3.1,2.6c0.8,0.6,1.6,1.3,2.3,1.9c2.7,2.2,5.2,4.7,7.6,7.2c2.5,2.6,4.8,5.5,6.9,8.5
		c1.1,1.7,2.2,3.4,3.3,5.1c0.9,1.4,1.9,2.7,2.2,4.4c0.2,1.1,0.3,2.2,0.4,3.3c0.1,1,0,2.1,0.5,3c0.2,0.3,0.5,0.5,0.9,0.5
		c0.2,0,0.3-0.1,0.4-0.2c0.3-0.3,0.2-0.5,0.2-0.8c0-1-0.1-2-0.1-3c0-2-0.1-3.9-0.1-5.9c0-1.7,0.4-3.6,0.2-5.4
		c-0.1-0.9-0.7-2.1-1.8-2c-0.7,0.1-1.1,0.6-1.3,1.2c-2.9-3.1-3.9-7.4-6.1-11c-1.3-2.2-2.8-4.3-4.4-6.4c-0.8-1.1-1.7-2.2-2.6-3.2
		c0.5-0.4,1-0.8,1.5-1.2c0.8-0.7,1.6-1.5,2.3-2.2c1.1-1,2.5-2,3.1-3.5c0.2-0.5,0.3-1,0.2-1.5c0-0.1,0-0.2-0.1-0.2
		c0.5-2.8,2-4.7,4.1-6.1c2.1-1.4,4.7-2.2,7.3-2.6c0.2,0,0.3-0.4,0.1-0.5c-4.3-1.9-7-5.7-9.3-9.5c-2.3-4-4.5-8.1-7.1-12
		c-2.6-3.9-5.6-7.5-9.1-10.6c-3.5-3.1-7.6-5.4-12-7.1c-4.9-2-10-3.3-15.2-4.1c-0.1-0.5-0.4-1-0.7-1.3c-1.1-2-1.7-4.3-2.1-6.5
		c0.9,0.5,1.9,0.9,2.8,1.3c0.9,0.4,1.8,0.7,2.7,1c2,1.5,4,2.8,6.1,4.1c8,4.7,16.3,8.9,24.4,13.5c6.9,4,13.8,8.3,19.1,14.3
		c3.1,3.5,5.6,7.5,7.2,11.9c1.4,3.8,2.2,7.7,2.3,11.8c0.2,8.3-2.7,16.4-7.8,23c-0.2,0.2-0.4,0.5-0.6,0.7c0,0,0,0-0.1,0.1
		c-0.4,0.5-0.9,1-1.3,1.6c-0.2,0.3-0.7,2.1,0,1.7c5.3-3.8,9.6-9,12.4-14.9C239.1,180,240,172.5,239.6,165.2z M78.4,254.6
		C36.8,254.6,3,220.8,3,179.2c0-41.5,33.8-75.4,75.4-75.4c21.2,0,40.4,8.8,54.1,23c0.1,0.4,0.3,0.8,0.5,1.2
		c-0.2-0.3-0.5-0.5-0.7-0.7c0,0-0.1,0-0.1,0c-0.4,0.4,0,1.4,0.2,1.8c0.5,1.4,1.5,2.5,2.9,3.1c0.8,0.3,1.5,0.4,2.3,0.5
		c0.9,1.1,1.7,2.2,2.5,3.4c0.7,1.9,1.4,3.8,2.1,5.8c0.4,1.1,0.8,2.2,1.2,3.2c0,0.1,0.1,0.2,0.1,0.3c0,0,0,0,0,0
		c0.1,0,0.2-0.1,0.4-0.1c0,0,0,0,0,0c0,0,0,0,0,0c0-0.1-0.1-0.2-0.1-0.3c-0.8-2.3-1.6-4.5-2.4-6.8c2.3,3.5,4.3,7.3,6,11.2
		c-1,3.8-2.2,7.5-4.3,10.8c-1.4,2.1-3.2,3.9-5.1,5.6c-1.8,1.6-3.5,3.2-5.5,4.6c-3.4,2.5-7.3,3.8-11.1,2.7c-0.2,0-0.3-0.1-0.5-0.2
		c0.4,0.5,0.9,0.9,1.3,1.4c2.9,3.5,5.2,7.6,9,10.3c2.8,2,5.9,3.4,9,4.7c3.2,1.4,6.6,2.5,10.1,2.3c0.8,0,1.5-0.1,2.3-0.2
		C146.9,227.2,115.8,254.6,78.4,254.6z M156.8,130.8c-4.3,3.1-6.6,8.9-8,14c-2.1-4.3-4.7-8.5-7.5-12.3c0.7-0.1,1.3-0.3,2-0.4
		c5-1.1,10-2.3,15-3.5c0,0,0.1,0,0.1,0c0,0,0,0,0,0c0,0.1,0,0.2,0.1,0.3c0.1,0.3,0.2,0.6,0.3,0.9C158,129.9,157.3,130.3,156.8,130.8
		z"/>
</g>
</svg>
