<?xml version="1.0" encoding="utf-8"?>
<!-- Generator: Adobe Illustrator 23.0.4, SVG Export Plug-In . SVG Version: 6.00 Build 0)  -->
<svg version="1.1" id="Fairy4" xmlns="http://www.w3.org/2000/svg" xmlns:xlink="http://www.w3.org/1999/xlink" x="0px" y="0px"
	 viewBox="0 0 173.9 276.7" style="enable-background:new 0 0 173.9 276.7;" xml:space="preserve">
<style type="text/css">
	#Fairy4 .st0{fill:#333232;}
</style>
<g>
	<path class="st0" d="M173.3,187.6c-5.5,1.7-11.3-0.3-16.3-3.9c-2.8-2-5.4-4.4-8-6.7c-2.8-2.5-5.4-5.1-7.5-8.2
		c-3.9-5.8-5.6-12.6-7.3-19.3c-2.1-8.3-5.4-18.5-12.6-23.7c-0.9-0.6-1.8-1.2-2.8-1.7c0.2-0.4,0.3-0.8,0.4-1.3c0-0.1,0.1-0.3,0.1-0.4
		c0,0,0,0,0,0c0.1,0,0.1,0,0.2,0c7.3,1.9,14.6,3.5,22,5.2c1.7,0.4,3.5,0.8,5.3,1c-2.1,6-4.2,12-6.3,17.9c-0.1,0.2-0.1,0.3-0.2,0.5
		c0,0,0,0,0.1,0c0,0,0,0,0,0c0.2,0.1,0.4,0.2,0.5,0.2c0,0,0,0,0.1,0c0-0.1,0.1-0.3,0.1-0.4c0.6-1.6,1.2-3.2,1.8-4.7
		c1.6-4.5,3.2-8.9,4.8-13.4c1.8,0.1,3.6,0,5.3-0.7c2.1-0.8,3.5-2.4,4.3-4.5c0.2-0.7,0.9-2,0.3-2.7c0,0-0.1,0-0.1,0
		c-0.4,0.2-0.8,0.6-1.1,1c0.7-1.2,1.3-2.7,0.4-2.8c-0.6-0.1-1.4,1.4-1.8,1.7c-0.1,0.2-0.3,0.3-0.4,0.5c0.1-0.1,0.2-0.2,0.2-0.3
		c0.4-0.6,1.1-1.9,0.8-2.6c-0.3-0.7-0.9-0.1-1.2,0.2c-0.6,0.5-1.1,1-1.7,1.5c0.4-0.7,0.6-1.6,0.3-2.2c-0.2-0.3-0.7-1-1.2-1.1
		c0-0.1,0-0.1,0.1-0.2c3.1-9,6.3-18,8.7-27.2c0.9,0,1.3,1,1.7,1.6c0.6,0.8,1.2,1.6,1.8,2.3c1.2,1.5,2.3,3,3.5,4.5
		c0.1,0.1,0.3,0.1,0.4-0.1c0.2-3.1-0.9-5.9-1.4-8.9c-0.2-1.4-0.4-2.3,1-2.9c0.8-0.4,2-0.4,2.8-0.5c0.9-0.1,2.2-0.2,3-0.7
		c0.1,0,0.1-0.1,0.1-0.2c-0.4-0.9-1.7-1.1-2.5-1.4c-1.7-0.6-3.1-1.5-4.5-2.4c0-2.1-0.2-4.2-0.3-6.2c0-0.4-0.1-0.8-0.1-1.1
		c0-0.2-0.2-0.2-0.3-0.1c-0.8,1-1.4,2.2-2,3.3c-0.4,0.7-0.8,1.6-1.3,2.2c-0.6,0.7-0.7,0.7-1.6,0.5c-1.2-0.3-2.5-1.1-3.6-1.6
		c-1.2-0.5-2.5-1-3.8-1.4c-0.1,0-0.2-0.1-0.3-0.1c0,0-0.1,0.1-0.1,0.2c-0.6,1,1.5,3.8,2,4.4c0.7,0.8,2.5,1.6,2.4,2.8
		c-0.1,1-1.4,1.7-2.1,2.3c-1.7,1.5-3.5,3-5.1,4.6c-0.1,0.1-0.1,0.3,0.1,0.4c1,0.3,2,0.3,3,0.2c1.4-0.1,2.7-0.3,4-0.5
		c0.8-0.1,1.6-0.3,2.4-0.7c0,0,0.1,0,0.1-0.1c-1.5,4.6-2.9,9.1-4.4,13.6c-0.4,1.1-0.7,2.1-1.1,3.2c-0.8,2.3-1.5,4.5-2.3,6.8
		c-0.4,1.1-0.8,2.3-1.1,3.4c-0.1,0.4-0.3,1.3-0.6,1.5c-0.4,0.2-1.1,0-1.5,0.1c-0.5,0.1-1,0.3-1.4,0.6c-1.3,0.8-1.8,2.6-3.7,2.4
		c-0.7-0.1-1.6-0.6-2.3-0.9c-0.8-0.3-1.5-0.5-2.3-0.8c-1.5-0.4-2.9-0.8-4.4-1.3c-3-0.9-5.8-2.1-8.6-3.4c-1.1-0.5-2.3-0.9-3.5-1.4
		c1-3,1.7-6.2,2.4-9.1c1-4.1,1.7-8.3,2-12.5c0.2-2.2,0.3-4.5,0.2-6.7c0-0.2,0-0.5-0.1-0.8c0.1,0.1,0.1,0.1,0.2,0.2
		c0.3,0.2,0.6,0.4,0.9,0.6c-0.2-0.5-0.5-1-0.7-1.5c-0.9-1.8-1.7-3.7-2.2-5.7c-0.8-3.2-0.4-6.3,0.5-9.4c0.5-1.5,1-3.1,1.6-4.6
		c0.7,0.4,1.3,0.8,2,1.1c0.6,0.3,1.2,0.5,1.9,0.7c1.6,0.5,5,1.4,6.3,0.1c1.1-1.1,1.9-2.9,2.6-4.3c0.5-1.1,1-2.5,1.8-3.4
		c0.7-0.8,1.6-1.3,2.1-2.3c0-0.1,0-0.1-0.1-0.1c-2.2-0.2-2.4-2.5-2.1-4.8c0.2-0.1,0.4-0.1,0.6-0.2c1.3-0.4,2.5-0.9,3.2-2.2
		c0-0.1,0-0.1-0.1-0.1c-0.9,0.9-2.2,1.3-3.5,1.4c0.2-1.3,0.6-2.5,0.7-3.2c0.3-1.2,0.6-2.3,1-3.5c0.1-0.2,0.1-0.4,0.2-0.7
		c1.3-1,2.7-1.9,4.1-2.9c1.7-1.2,3.5-2.6,4.7-4.3c0.7-1.1,1-2.6,0.2-3.7c-0.5-0.7-1.3-1-2.1-0.9c-0.3,0-0.6,0.1-0.9,0.3
		c-0.1-0.5-0.2-0.9-0.3-1.4c-0.1-0.3-0.2-0.6-0.2-0.9c0-0.1,0-0.1-0.1-0.2c-0.9-2.4-2.6-4.5-4.6-6.3c-0.1-0.1-0.2-0.2-0.3-0.3
		c-2-1.7-4.2-3.1-6.4-4.2c-0.2-0.1-0.4-0.2-0.6-0.3c-0.2-0.1-0.5-0.2-0.7-0.3c-1.6-0.7-3.2-1.3-4.9-1.8c-0.5-0.1-0.9-0.2-1.4-0.3
		c-2.3-0.5-4.6-0.6-6.9-0.4c-1.6,0.1-3.3,0.4-4.9,0.9c-5.9,1.8-11,5.8-14.9,10.5c-4.2,5.1-7.1,11.1-9.6,17.2
		c-1.1,2.6-2.1,5.3-3.4,7.9c-1.4-4.5-2.6-9-3.6-13.5c-1.1-4.5-2-9-2.8-13.5C83,16.5,82,8.4,81.5,0.3c0-0.3-0.5-0.4-0.5-0.1
		c-1.2,5.6-2.4,11.3-5.3,16.3c-2.7,4.8-6.9,8.3-11,12c-2,1.8-4,3.6-6,5.5c-0.1,0.1-0.3,0.3-0.4,0.4C50.5,41.8,43,50.1,39.2,59.9
		c-0.1,0.2-0.2,0.5-0.3,0.7c-0.7,1.9-1.2,3.8-1.6,5.8c-0.7,3.7-0.8,7.5-0.2,11.2c0.4,2.4,1,4.7,1.8,6.9c0.4,1.1,0.8,2.3,1.2,3.4
		C40,88,39.7,88,39.4,88.1c-0.6,0.2-1.2,0.4-1.9,0.6c-3.6,1-7.3,1.5-11,1.3c-2.8-0.2-5.6-0.7-8.2-1.8c-2.2-1-4.3-2.5-5.6-4.6
		c-0.4-0.7-1-3.5-2.3-2.3c-0.5,0.5-0.7,1.3-0.9,2c-0.4,1.4-0.5,2.9-0.4,4.4c0.1,2.6,0.7,5.1,1.3,7.5c1.2,4.8,3.5,9.4,6.4,13.3
		c1.9,2.5,4.1,4.7,6.6,6.6c4.8,3.5,10.7,5.5,16.6,4.9c-1.8,3.6-7.3,3.6-10.4,5.7c-0.6,0.4-1,0.9-1.4,1.4c-0.9,1.2-2,2.2-3.3,3
		c-2,1.4-4.1,2.5-6.1,4.1c-3.8,3-7,6.8-9.7,10.8c-6,9.2-8.8,20.2-9.3,31.1c-0.5,10.7,0.8,21.7,5.4,31.5c4,8.7,10.4,16.3,18.1,21.8
		c1,0.7,0.2-2.1-0.1-2.4c-0.5-0.9-1.3-1.6-1.9-2.4c0,0-0.1-0.1-0.1-0.1c-0.3-0.4-0.6-0.7-0.9-1.1c-7.4-9.6-11.6-21.5-11.4-33.7
		c0.1-6,1.3-11.8,3.3-17.3c2.4-6.4,6-12.3,10.6-17.4c7.8-8.8,17.9-15.2,28-21c11.8-6.8,24-12.9,35.7-19.8c3-1.8,6.1-3.8,8.9-6
		c1.3-0.5,2.6-1,3.9-1.5c1.4-0.6,2.8-1.2,4.1-1.9c-0.7,3.3-1.5,6.5-3.1,9.5c-0.5,0.5-0.9,1.2-1.1,2c-7.6,1.2-15.2,3.1-22.3,6
		c-6.4,2.6-12.3,6-17.5,10.4c-5.2,4.5-9.6,9.9-13.4,15.5c-3.8,5.6-7,11.7-10.4,17.5c-3.3,5.7-7.3,11.3-13.6,14
		c-0.3,0.1-0.2,0.7,0.1,0.7c3.7,0.6,7.6,1.8,10.7,3.8c3.1,2,5.4,4.9,6.1,8.9c0,0.1-0.1,0.2-0.1,0.3c-0.2,0.7,0,1.5,0.3,2.2
		c0.9,2.1,2.9,3.6,4.5,5.1c1.1,1,2.3,2.2,3.4,3.2c0.7,0.6,1.4,1.2,2.2,1.8c-1.3,1.6-2.6,3.1-3.8,4.7c-2.3,3-4.5,6.1-6.5,9.3
		c-3.1,5.3-4.7,11.6-8.9,16.1c-0.3-0.9-0.9-1.7-1.9-1.7c-1.6-0.1-2.5,1.5-2.6,2.9c-0.3,2.5,0.3,5.3,0.3,7.8c0,2.9,0,5.8-0.1,8.6
		c0,1.4-0.1,2.9-0.1,4.3c0,0.5-0.1,0.9,0.3,1.2c0.2,0.2,0.4,0.3,0.7,0.3c0.5,0.1,1-0.2,1.3-0.7c0.7-1.3,0.5-3,0.7-4.4
		c0.1-1.6,0.3-3.2,0.7-4.8c0.5-2.4,1.9-4.4,3.2-6.4c1.6-2.5,3.1-5,4.8-7.5c3-4.5,6.3-8.6,10.1-12.5c3.6-3.7,7.2-7.2,11.2-10.5
		c1.1-0.9,2.3-1.9,3.4-2.8c1.5-1.2,3-2.5,4.5-3.8c-0.1,2.1-2.2,3.4-2.5,5.5c0,0.3,0,0.6,0,0.9c0,0.1,0,0.2,0,0.2
		c-0.1,1.1,0.5,1.9,1.4,2.4c1.3,0.6,2.9,0.9,4.5,1.1c0.9,0.1,1.7,0.2,2.5,0.4c2.2,0.4,4.4,0.8,6.6,1.1c7.4,1.2,14.9,2.2,22.4,2.8
		c2.2,0.2,4.3,0.4,6.5,0.5c0.8,0.1,1.7,0.1,2.5,0.2c0.7,1.8,1.6,3.6,2.5,5.4c0.3,0.5,0.5,1,0.8,1.6c1.9,3.6,3.9,7,6.1,10.4
		c2.3,3.5,4.8,6.8,7.2,10.2c2.2,3.1,2.2,6.7,3,10.2c-0.9,1-1,2.6-0.7,3.9c0.6,2.4,2.9,3.8,4.8,5.2c1.7,1.3,3.5,2.6,5.3,3.8
		c1,0.7,2,1.4,3.1,2.1c1.4,0.9,4.1,3.6,6,2.3c-1.9-3.3-4.2-6.4-6-9.8c-1.8-3.4-3.3-7-4.8-10.6c-2-4.9-3.8-10-5.5-15
		c-2.6-7.8-5-15.7-7.6-23.6c-0.3-1.1-0.7-2.1-1-3.2c0.3,0,0.7,0.1,1,0.1c2,0.3,4.1,0.6,6,0.7c5.1,0.2,10.1-1.4,14.8-3.4
		c4.6-1.9,9.1-4,13.2-6.9c5.6-4,8.9-10,13.2-15.2c0.6-0.7,1.2-1.4,1.9-2.1C173.7,187.5,173.5,187.5,173.3,187.6z M91.3,208.6
		c-22.6,0-40.9-18.3-40.9-40.9s18.3-40.9,40.9-40.9s40.9,18.3,40.9,40.9S113.9,208.6,91.3,208.6z"/>
</g>
</svg>
