<?xml version="1.0" encoding="utf-8"?>
<!-- Generator: Adobe Illustrator 23.0.4, SVG Export Plug-In . SVG Version: 6.00 Build 0)  -->
<svg version="1.1" id="Fairy2" xmlns="http://www.w3.org/2000/svg" xmlns:xlink="http://www.w3.org/1999/xlink" x="0px" y="0px"
	 viewBox="0 0 205 218" style="enable-background:new 0 0 205 218;" xml:space="preserve">
<style type="text/css">
	#Fairy2 .st0{fill:none;}
	#Fairy2 .st1{fill:#B86CBC;}
	#Fairy2 .st2{fill:#F5F2EA;}
	#Fairy2 .st3{fill:#D17FD3;}
	#Fairy2 .st4{fill:#4B443E;}
	#Fairy2 .st5{fill:#FDFBF7;}
</style>
<g>
	<path class="st0" d="M1.1,120.8c-0.3-11.1,4.1-21.7,9.6-31.2c1.8-3.1,3.7-6.1,5.7-9.1c0,0,0,0,0,0c-2,3-3.9,6-5.7,9.1
		C5.2,99.1,0.8,109.7,1.1,120.8c0.1-0.1,0.1-0.2,0.2-0.3C1.2,120.6,1.2,120.7,1.1,120.8z"/>
	<path class="st0" d="M79.8,23.3c-0.9,0.5-1.7,1.1-2.6,1.6c-3.7,2.2-7.3,4.5-10.8,6.8c3.6-2.3,7.2-4.5,10.8-6.8
		C78.1,24.4,79,23.8,79.8,23.3z"/>
	<path class="st0" d="M38.8,92.1c0.7-0.2,1.4-0.4,2.1-0.7C40.3,91.6,39.6,91.9,38.8,92.1c-5.2,1.5-11,1.4-15.5-1.5
		C27.8,93.5,33.6,93.6,38.8,92.1z"/>
	<path class="st0" d="M6.6,117c0.5-0.3,1-0.5,1.5-0.7c0,0,0,0,0,0C7.6,116.5,7.1,116.8,6.6,117c-1,0.5-3.7,2.4-4.9,4.2
		C3,119.4,5.6,117.6,6.6,117z"/>
	<path class="st0" d="M1.4,123.6c0.3,0.4,0.7,0.7,1.5,0.9c0.4,0.1,0.8,0.3,1.3,0.4c0,0,0,0,0,0c-0.4-0.1-0.9-0.2-1.3-0.4
		C2.1,124.3,1.7,124,1.4,123.6z"/>
	<path class="st0" d="M4.6,125.1c1.1-3.2,2.5-6.3,4.2-9.2c2.3-1.1,4.7-2.1,7.2-3c-2.5,0.9-4.9,1.9-7.2,3
		C7.1,118.8,5.7,121.8,4.6,125.1c1.7,0.5,3.5,0.8,5.2,1.1c0.2,0,0.3,0.1,0.5,0.1c-0.2,0-0.3,0-0.5-0.1
		C8.2,125.8,6.4,125.5,4.6,125.1z"/>
	<path class="st0" d="M145.7,27.1c-3.1-2-6.1-4.2-8.6-6.9c-1.4-1.5-2.5-3.1-3.6-4.8c1.1,1.7,2.2,3.3,3.6,4.8
		C139.6,22.9,142.6,25.1,145.7,27.1z"/>
	<path class="st0" d="M176.1,51.3C176.1,51.3,176.1,51.3,176.1,51.3c-1-1.2-2.1-2.4-3.2-3.5c-3.2-3.3-6.6-6.3-10.2-9
		c3.6,2.8,7,5.7,10.2,9C174,48.9,175.1,50.1,176.1,51.3z"/>
	<path class="st0" d="M128,7.4c0.7,0.8,1.3,1.7,1.9,2.5C129.3,9,128.7,8.2,128,7.4c-6.6-7.5-17.9-8.3-25.9-3.1
		c-0.3,0.2-0.6,0.4-0.8,0.6c0.3-0.2,0.6-0.4,0.8-0.6C110.1-1,121.4-0.1,128,7.4z"/>
	<path class="st0" d="M163.4,74.7c0-2.2,0.3-4.4,0.9-6.6c0.2-0.8,0.4-1.5,0.6-2.2c-0.2,0.7-0.5,1.5-0.6,2.2
		C163.8,70.3,163.4,72.5,163.4,74.7z"/>
	<path class="st0" d="M98.5,7.2c-3.1,2.9-5.8,6.2-9,9c-1.4,1.2-2.9,2.4-4.4,3.5c1.5-1.1,3-2.2,4.4-3.5C92.7,13.4,95.4,10.1,98.5,7.2
		z"/>
	<path class="st0" d="M36.6,107.9C36.6,107.9,36.6,107.9,36.6,107.9c-0.3,0.1-0.7,0.1-1,0.2c-1.4,0.2-2.8,0.5-4.2,0.8
		c1.4-0.3,2.8-0.5,4.2-0.8C35.9,108,36.3,108,36.6,107.9z"/>
	<path class="st0" d="M31.2,108.9c-1.3,0.3-2.7,0.5-4,0.8c-3.6,5.4-6.2,11.2-8,17.6c0,0,0,0,0,0c1.8-6.3,4.4-12.2,8-17.6
		C28.5,109.5,29.9,109.2,31.2,108.9z"/>
	<path class="st0" d="M27.3,127.8C27.3,127.8,27.3,127.8,27.3,127.8c0.1-0.5,0.3-1,0.4-1.5C27.6,126.8,27.4,127.3,27.3,127.8z"/>
	<path class="st0" d="M47.2,106.5C47.2,106.5,47.2,106.5,47.2,106.5c-0.9,1.3-1.8,2.6-2.7,4C45.3,109.1,46.2,107.8,47.2,106.5z"/>
	<path class="st0" d="M10.8,126.3C10.8,126.3,10.8,126.3,10.8,126.3c0.8-1.9,1.6-3.9,2.4-5.8C12.4,122.4,11.6,124.3,10.8,126.3z"/>
	<path class="st0" d="M11.1,126.3C11.1,126.3,11.1,126.3,11.1,126.3c0.7-1.6,1.4-3.2,2.1-4.8C12.5,123.1,11.8,124.7,11.1,126.3z"/>
	<path class="st0" d="M18.9,127.3C18.9,127.3,18.9,127.3,18.9,127.3c-2-0.2-3.9-0.4-5.9-0.7C14.9,126.9,16.9,127.1,18.9,127.3z"/>
	<path class="st0" d="M24.9,112.3c-2.3,3.7-4,7.7-5.2,11.8C20.9,120,22.6,116,24.9,112.3z"/>
	<path class="st0" d="M17.2,112.5C17.2,112.5,17.2,112.5,17.2,112.5c2.9-1,6-1.8,9-2.5C23.2,110.7,20.1,111.5,17.2,112.5z"/>
	<path class="st0" d="M163.9,106c-0.1,0-0.3-0.1-0.4-0.1c-2.2-0.4-4.3-0.8-6.5-1.1c-0.1,0-0.2,0-0.3,0c-2.3-0.4-4.6-0.7-6.9-1.1
		c-0.1,0-0.3,0-0.4-0.1c-1.5-0.2-3-0.4-4.5-0.6c-0.1,0-0.1,0-0.2,0c0.1,0,0.1,0,0.2,0c1.5,0.2,3,0.4,4.5,0.6c0.1,0,0.3,0,0.4,0.1
		c2.3,0.3,4.6,0.7,6.9,1.1c0.1,0,0.2,0,0.3,0c2.2,0.4,4.3,0.7,6.5,1.1C163.6,106,163.8,106,163.9,106c2.7,0.5,5.3,1,8,1.5
		c0.1,0,0.2,0,0.3,0.1c-0.1,0-0.2,0-0.3-0.1C169.2,107,166.6,106.5,163.9,106z"/>
	<path class="st0" d="M8.7,115.3c-0.4,0.2-0.9,0.4-1.3,0.6C7.8,115.7,8.3,115.5,8.7,115.3c0.2-0.1,0.5-0.2,0.7-0.3
		c0.5-0.2,0.9-0.4,1.4-0.6c-0.5,0.2-0.9,0.4-1.4,0.6C9.2,115.1,8.9,115.2,8.7,115.3z"/>
	<path class="st0" d="M42.8,49.7c2.3-2.1,4.7-4.2,7.1-6.2C47.5,45.5,45.2,47.5,42.8,49.7z"/>
	<path class="st0" d="M168.4,87.1c3.1,3.2,7,4.9,11,5.5C175.3,92,171.5,90.3,168.4,87.1z"/>
	<path class="st0" d="M133.7,101.7c-2.7-0.3-5.4-0.5-8.1-0.7C128.3,101.2,131,101.4,133.7,101.7z"/>
	<path class="st0" d="M203.4,115.2c-0.5-1.3-0.9-2.6-1.4-3.8C202.5,112.6,202.9,113.9,203.4,115.2
		C203.4,115.2,203.4,115.2,203.4,115.2z"/>
	<path class="st0" d="M54.9,75.7c0.3-1.4,0.4-2.8,0.4-4.2C55.3,72.9,55.1,74.3,54.9,75.7z"/>
	<path class="st0" d="M41.5,89.2c2.1-1,4.1-2.2,5.9-3.8c0.4-0.3,0.7-0.6,1-1c-0.3,0.3-0.7,0.7-1,1C45.6,86.9,43.6,88.2,41.5,89.2z"
		/>
	<path class="st0" d="M30.2,62.6c-0.5,0.5-0.9,1-1.4,1.6c-2.1,2.5-4.2,5-6.2,7.6c2-2.6,4-5.1,6.2-7.6C29.2,63.7,29.7,63.2,30.2,62.6
		z"/>
	<path class="st0" d="M53.3,64.9c0.5,1.3,0.7,2.6,0.9,4C54.1,67.5,53.8,66.2,53.3,64.9c-2.2-6.3-7.9-9.7-14.1-10.4
		C45.4,55.2,51.1,58.6,53.3,64.9z"/>
	<path class="st0" d="M39.4,107.5c-0.7,0.1-1.3,0.2-2,0.3c-4.3,6.1-7.6,12.8-9.8,20c0,0,0,0,0,0c2.1-7.3,5.5-14,9.8-20
		C38.1,107.7,38.8,107.6,39.4,107.5z"/>
	<path class="st0" d="M185.9,110.6c0.3,0.1,0.6,0.1,0.9,0.2c0,0,0.1,0,0.1,0c0,0-0.1,0-0.1,0C186.5,110.7,186.2,110.7,185.9,110.6z"
		/>
	<path class="st0" d="M179.2,109.1c-0.5-0.1-1.1-0.2-1.6-0.3C178.1,108.9,178.7,109,179.2,109.1c0.4,0.1,0.8,0.2,1.1,0.3
		c0,0,0,0,0.1,0c0,0,0,0-0.1,0C179.9,109.3,179.6,109.2,179.2,109.1z"/>
	<path class="st0" d="M193.7,112.3c0.1,0,0.2,0,0.3,0.1c0.1,0,0.1,0,0.2,0c-0.1,0-0.1,0-0.2,0C193.9,112.4,193.8,112.4,193.7,112.3z
		"/>
	<path class="st0" d="M200,113.8C200,113.8,200,113.8,200,113.8c0.1,0,0.2,0.1,0.2,0.1C200.2,113.8,200.1,113.8,200,113.8
		C200,113.8,200,113.8,200,113.8z"/>
	<path class="st0" d="M199.7,104.2c-1.5-4.8-2.9-9.5-4.4-14.3c-1.2,0.6-2.5,1.1-3.8,1.5c1.3-0.4,2.6-0.9,3.8-1.5
		C196.7,94.6,198.1,99.4,199.7,104.2z"/>
	<path class="st0" d="M64.1,103.3c-0.1,0-0.2,0-0.2,0c-0.3,0-0.5,0.1-0.8,0.1c0.3,0,0.5-0.1,0.8-0.1C63.9,103.4,64,103.3,64.1,103.3
		c2-0.2,4.1-0.4,6.2-0.6c3-0.3,5.9-0.5,8.9-0.8c-3,0.3-5.9,0.5-8.9,0.8C68.2,102.9,66.1,103.1,64.1,103.3z"/>
	<path class="st0" d="M38.1,106.9c-0.3,0.1-0.6,0.1-0.8,0.2c-0.1,0-0.3,0.1-0.4,0.1c0.1,0,0.3-0.1,0.4-0.1
		C37.5,107,37.8,106.9,38.1,106.9c3.3-0.6,6.7-1.2,10.1-1.7c0.2,0,0.3,0,0.5-0.1c-0.2,0-0.3,0-0.5,0.1
		C44.8,105.7,41.4,106.2,38.1,106.9z"/>
	<path class="st0" d="M26.9,109.3c-1.6,0.4-3.2,0.8-4.8,1.3C23.7,110.2,25.3,109.7,26.9,109.3c0.2-0.1,0.5-0.1,0.7-0.2
		c1-0.2,1.9-0.5,2.9-0.7c-1,0.2-1.9,0.4-2.9,0.7C27.4,109.2,27.1,109.3,26.9,109.3z"/>
	<path class="st0" d="M102.3,100.5c1.6,0,3.3-0.1,4.9-0.1c0.5,0,0.9,0,1.4,0c-0.5,0-0.9,0-1.4,0C105.6,100.4,104,100.5,102.3,100.5z
		"/>
	<path class="st0" d="M17.1,112.1c-0.6,0.2-1.3,0.4-1.9,0.6C15.8,112.5,16.4,112.3,17.1,112.1c0.1,0,0.2-0.1,0.3-0.1
		c0.3-0.1,0.7-0.2,1-0.3c-0.3,0.1-0.7,0.2-1,0.3C17.3,112.1,17.2,112.1,17.1,112.1z"/>
	<path class="st0" d="M182.6,122.8c-1.1,0.1-2.2,0.1-3.3,0.2C180.4,122.9,181.5,122.9,182.6,122.8c0-0.3,0-0.6-0.1-0.9
		C182.6,122.2,182.6,122.5,182.6,122.8z"/>
	<path class="st0" d="M172.5,108.7c0.3,1.1,0.6,2.2,0.9,3.3C173.1,110.9,172.8,109.8,172.5,108.7
		C172.5,108.7,172.5,108.7,172.5,108.7z"/>
	<path class="st0" d="M175.2,123.2c-2.4,0.1-4.8,0.2-7.2,0.4c-0.1-1.2-0.3-2.5-0.5-3.7c0.2,1.2,0.4,2.5,0.5,3.7
		C170.4,123.5,172.8,123.3,175.2,123.2c-0.8-4.3-1.6-8.5-2.6-12.7C173.6,114.7,174.4,118.9,175.2,123.2z"/>
	<path class="st0" d="M181.4,113.7c-0.2-1.1-0.5-2.2-0.8-3.3c-1-0.2-2-0.4-3.1-0.6c1,0.2,2,0.4,3.1,0.6
		C180.9,111.5,181.2,112.6,181.4,113.7z"/>
	<path class="st0" d="M157.5,105.9C157.5,105.9,157.5,105.9,157.5,105.9c2.1,0.4,4.2,0.7,6.3,1.1c1.8,5.4,2.9,10.9,3.6,16.6
		c-0.5,0-1,0-1.5,0.1c0.5,0,1,0,1.5-0.1c-0.7-5.7-1.9-11.2-3.6-16.6C161.7,106.6,159.6,106.2,157.5,105.9z"/>
	<path class="st0" d="M157.2,105.8c0.8,1.7,1.4,3.5,1.9,5.3C158.6,109.4,158,107.6,157.2,105.8c-2.3-0.4-4.5-0.7-6.8-1.1
		c0.6,1,1.1,2.1,1.6,3.1c-0.5-1.1-1-2.1-1.6-3.1C152.7,105.1,155,105.5,157.2,105.8z"/>
	<path class="st0" d="M161.9,123.8C161.9,123.8,161.9,123.8,161.9,123.8c-0.1-3.3-0.7-6.6-1.5-9.7
		C161.3,117.2,161.8,120.5,161.9,123.8z"/>
	<path class="st0" d="M182.9,122.8c1.1-0.1,2.2-0.2,3.3-0.2c0.5,0,1-0.1,1.5-0.1C186.1,122.5,184.5,122.6,182.9,122.8
		C182.9,122.8,182.9,122.8,182.9,122.8z"/>
	<path class="st0" d="M156.1,122.9c0,0.4,0.1,0.7,0.1,1.1c0.9,0,1.7-0.1,2.6-0.1c-0.9,0-1.7,0.1-2.6,0.1
		C156.2,123.6,156.1,123.3,156.1,122.9z"/>
	<path class="st0" d="M191.5,112.8c-1.3-0.3-2.7-0.6-4-0.9c0.5,1.6,0.9,3.2,1.3,4.8c-0.4-1.6-0.8-3.2-1.3-4.8
		C188.8,112.2,190.1,112.5,191.5,112.8z"/>
	<path class="st0" d="M198.8,114.4c-1.2-0.3-2.4-0.4-3.3-0.7c-0.3-0.1-0.5-0.1-0.8-0.2c0,0,0,0,0,0c0.3,0.1,0.5,0.1,0.8,0.2
		C196.4,114,197.6,114.1,198.8,114.4z"/>
	<path class="st0" d="M189.4,122.1C189.4,122.1,189.4,122.1,189.4,122.1c-0.1-0.4-0.2-0.8-0.2-1.2
		C189.3,121.3,189.3,121.7,189.4,122.1C189.4,122.1,189.4,122.1,189.4,122.1z"/>
	<path class="st0" d="M201.5,120.8c-0.4,0.1-0.8,0.2-1.2,0.3C200.7,121,201.1,120.9,201.5,120.8c-0.5-1.9-1-3.8-1.5-5.7
		C200.5,117,201,118.9,201.5,120.8z"/>
	<path class="st0" d="M202.9,116.2c-0.7-0.6-1.6-1.1-2.6-1.4c0.1,0.4,0.2,0.7,0.3,1.1c-0.1-0.4-0.2-0.7-0.3-1.1
		C201.3,115.1,202.3,115.5,202.9,116.2z"/>
	<path class="st0" d="M194.3,113.5C194.3,113.5,194.3,113.5,194.3,113.5c0.1,0.3,0.1,0.5,0.2,0.8C194.4,114,194.3,113.7,194.3,113.5
		z"/>
	<path class="st0" d="M196.1,121.6c0.1,0,0.1,0,0.2,0c0,0,0,0,0,0C196.2,121.6,196.2,121.6,196.1,121.6z"/>
	<path class="st0" d="M150.6,105.8c1.4,2.8,2.6,5.7,3.5,8.7C153.2,111.4,152,108.5,150.6,105.8z"/>
	<path class="st0" d="M145.3,104C145.3,104,145.3,104,145.3,104c2.9,6.6,5.8,13.3,8.5,20c0.5,0,1,0,1.4,0c-0.5,0-1,0-1.4,0
		C151.1,117.3,148.2,110.7,145.3,104z"/>
	<path class="st0" d="M63.1,105c-0.8,0.1-1.6,0.1-2.3,0.2C61.5,105.2,62.3,105.1,63.1,105C63.1,105,63.1,105,63.1,105z"/>
	<path class="st0" d="M60.2,111.8c0.6-1.4,1.2-2.9,1.8-4.3C61.4,108.9,60.8,110.4,60.2,111.8c-2.1,4.9-4.2,9.9-6.2,14.8
		c-2.3,0.2-4.6,0.5-6.9,0.6c2.3-0.2,4.6-0.4,6.9-0.6C56.1,121.7,58.1,116.8,60.2,111.8z"/>
	<path class="st0" d="M47.9,124.6c2.1-4.6,4.4-9.1,7-13.5C52.3,115.4,50,119.9,47.9,124.6z"/>
	<path class="st0" d="M105.4,116.9c-26.6,0-48.2,21.6-48.2,48.2c0,26.6,21.6,48.2,48.2,48.2s48.2-21.6,48.2-48.2
		C153.6,138.6,132,116.9,105.4,116.9z"/>
	<path class="st0" d="M86.9,216C86.9,216,86.9,216,86.9,216C86.9,216,86.9,216,86.9,216C86.9,216,86.9,216,86.9,216
		C86.9,216,86.9,216,86.9,216z"/>
	<path class="st0" d="M150,104.7c-0.5-0.1-1-0.1-1.5-0.2C149,104.6,149.5,104.6,150,104.7C150,104.7,150,104.7,150,104.7z"/>
	<path class="st0" d="M36.7,127.9c-1.2,0-2.4,0-3.6,0C34.4,127.9,35.5,127.9,36.7,127.9c0.5-1.7,1.1-3.3,1.7-4.9
		C37.8,124.6,37.2,126.2,36.7,127.9z"/>
	<path class="st0" d="M46.1,127.4c-1.7,0.1-3.4,0.2-5,0.3C42.8,127.6,44.4,127.5,46.1,127.4c1-2.6,2.1-5.1,3.3-7.6
		C48.2,122.3,47.1,124.8,46.1,127.4z"/>
	<path class="st0" d="M57.6,105.5c-1.7,0.1-3.3,0.3-5,0.5C54.2,105.8,55.9,105.6,57.6,105.5C57.5,105.5,57.6,105.5,57.6,105.5z"/>
	<path class="st0" d="M37,127.9C37,127.9,37,127.9,37,127.9c1.5-4.8,3.6-9.2,6-13.5C40.5,118.6,38.5,123.1,37,127.9z"/>
	<path class="st1" d="M6.6,117c-1,0.6-3.7,2.4-4.9,4.2c-0.3,0.4-0.5,0.9-0.6,1.3c0,0.2,0,0.5,0,0.7c0,0.1,0.1,0.3,0.2,0.4
		c0.3,0.4,0.7,0.7,1.5,0.9c0.4,0.1,0.8,0.3,1.3,0.4c1-3,2.3-5.9,3.9-8.6C7.6,116.5,7.1,116.8,6.6,117z"/>
	<path class="st1" d="M16.8,112.6c-0.3,0.1-0.5,0.2-0.8,0.3c-2.5,0.9-4.9,1.9-7.2,3c-1.8,2.9-3.2,5.9-4.2,9.2
		c1.7,0.4,3.5,0.8,5.2,1.1c0.2,0,0.3,0.1,0.5,0.1c0.1,0,0.3,0,0.4,0.1c0.8-1.9,1.6-3.9,2.4-5.8C14.4,117.8,15.6,115.2,16.8,112.6z"
		/>
	<path class="st1" d="M38.4,122.9c1.6-4.3,3.6-8.6,6.1-12.5c0.8-1.3,1.7-2.7,2.7-3.9c-2.6,0.3-5.2,0.6-7.8,1c-0.7,0.1-1.3,0.2-2,0.3
		c-4.3,6.1-7.6,12.7-9.8,20c1.8,0.1,3.7,0.1,5.5,0.1c1.2,0,2.4,0,3.6,0C37.2,126.2,37.8,124.6,38.4,122.9z"/>
	<path class="st1" d="M200,115.1c0-0.2-0.1-0.3-0.1-0.5c-0.3-0.1-0.7-0.2-1-0.3c-1.2-0.3-2.4-0.4-3.3-0.7c-0.3-0.1-0.5-0.1-0.8-0.2
		c0,0.1,0,0.2,0.1,0.2c0.4,1.2,0.7,2.5,1,3.7c0,0,0,0,0,0c0.3,1.2,0.6,2.5,0.8,3.7c0,0.1,0,0.2,0.1,0.3c1.1-0.1,2.4-0.2,3.6-0.4
		c0.4-0.1,0.8-0.2,1.2-0.3C201,118.9,200.5,117,200,115.1z"/>
	<path class="st1" d="M204,118c-0.1-0.7-0.5-1.3-1-1.8c-0.7-0.6-1.6-1.1-2.6-1.4c0.1,0.4,0.2,0.7,0.3,1.1c0.5,1.6,0.9,3.2,1.2,4.8
		C203.3,120.2,204.3,119.4,204,118z"/>
	<path class="st1" d="M157.2,105.8c-2.3-0.4-4.5-0.7-6.8-1.1c0.6,1,1.1,2.1,1.6,3.1c2.2,4.7,3.5,9.8,4.1,15c0,0.4,0.1,0.7,0.1,1.1
		c0.9,0,1.7-0.1,2.6-0.1c0.8,0,1.7,0,2.5-0.1c-0.2-4.3-0.9-8.6-2.1-12.7C158.6,109.4,158,107.6,157.2,105.8z"/>
	<path class="st2" d="M26.4,90.5c4.9,1.5,10.4,0.8,15.1-1.3c2.1-1,4.1-2.2,5.9-3.8c0.4-0.3,0.7-0.6,1-1c4.1-4.1,6.4-9.8,5.8-15.6
		c-0.1-1.3-0.4-2.7-0.9-4c-2.2-6.3-7.9-9.7-14.1-10.4c-0.4,0-0.8-0.1-1.3-0.1c-2.7,2.7-5.3,5.4-7.8,8.3c-0.5,0.5-0.9,1-1.4,1.6
		c-2.1,2.5-4.2,5-6.2,7.6c-2,2.6-3.9,5.2-5.7,7.9C17.9,84.6,21.4,88.9,26.4,90.5z"/>
	<path class="st1" d="M189.5,122.2C189.4,122.2,189.4,122.2,189.5,122.2C189.4,122.1,189.4,122.1,189.5,122.2
		c-0.1-0.5-0.2-0.9-0.3-1.3c-0.6-3.1-1.2-6.1-2.1-9.1c-2.1-0.5-4.1-0.9-6.2-1.4c0.2,0.6,0.3,1.2,0.5,1.9c0.1,0.4,0.2,0.8,0.3,1.2
		c0.7,3,1.1,6.1,1.2,9.3c1.6-0.1,3.2-0.2,4.8-0.4C188.3,122.3,188.9,122.3,189.5,122.2C189.5,122.2,189.5,122.2,189.5,122.2
		C189.5,122.2,189.5,122.2,189.5,122.2z"/>
	<path class="st1" d="M194.5,114.2c-0.1-0.3-0.1-0.5-0.2-0.8c-0.9-0.2-1.9-0.4-2.8-0.6c-1.3-0.3-2.7-0.6-4-0.9
		c0.5,1.6,0.9,3.2,1.3,4.8c0.4,1.8,0.7,3.6,1,5.4c0,0,0,0.1,0,0.1c0,0,0,0,0,0c0,0,0,0,0,0c1.8-0.2,3.6-0.3,5.4-0.5
		c0.3,0,0.7-0.1,1.1-0.1c0.1,0,0.1,0,0.2,0C195.8,119.1,195.1,116.7,194.5,114.2z"/>
	<path class="st1" d="M163.8,107c-2.1-0.4-4.2-0.8-6.3-1.1c1.2,2.6,2.2,5.4,2.9,8.2c0.8,3.2,1.3,6.5,1.5,9.7c1.4,0,2.7-0.1,4.1-0.1
		c0.5,0,1,0,1.5-0.1C166.8,117.9,165.6,112.4,163.8,107z"/>
	<path class="st1" d="M175.2,123.2c-0.8-4.3-1.6-8.5-2.6-12.7c-0.2-0.6-0.3-1.2-0.5-1.9c-2.6-0.5-5.2-1-7.9-1.5
		c1.4,4.2,2.6,8.4,3.2,12.8c0.2,1.2,0.4,2.5,0.5,3.7C170.4,123.5,172.8,123.3,175.2,123.2z"/>
	<path class="st1" d="M182.6,121.9c-0.2-2.8-0.6-5.5-1.1-8.3c-0.2-1.1-0.5-2.2-0.8-3.3c-1-0.2-2-0.4-3.1-0.6c-1.7-0.4-3.4-0.7-5-1.1
		c0.3,1.1,0.6,2.2,0.9,3.3c0.9,3.7,1.7,7.4,2.1,11.2c0.5,0,0.9,0,1.4-0.1c0.8,0,1.6-0.1,2.4-0.1c1.1-0.1,2.2-0.1,3.3-0.2
		C182.6,122.5,182.6,122.2,182.6,121.9z"/>
	<path class="st1" d="M24.9,112.3c0.5-0.8,1-1.6,1.6-2.4c-0.1,0-0.2,0-0.3,0.1c-3,0.7-6,1.5-9,2.5c-1.4,3-2.7,6-4,9
		c-0.7,1.6-1.4,3.2-2.1,4.8c0.6,0.1,1.3,0.2,1.9,0.3c1.9,0.3,3.9,0.5,5.9,0.7c0.2-1.1,0.5-2.1,0.8-3.1C20.8,120,22.6,116,24.9,112.3
		z"/>
	<path class="st2" d="M111.6,41.5c2.1-7.1-0.4-14.9-6.7-18.9c-6.7-4.2-14.8-3.2-20.4,0.9c-5.4,3.9-8.5,10.6-6,18.1
		C83.5,56.9,106.9,57.1,111.6,41.5z"/>
	<path class="st3" d="M1.1,120.8c0.1-0.1,0.2-0.2,0.2-0.3c1.1-1.5,3-2.8,4-3.4c0.7-0.4,1.4-0.8,2.1-1.2c0.4-0.2,0.8-0.4,1.3-0.6
		c0.2-0.1,0.5-0.2,0.7-0.3c0.5-0.2,0.9-0.4,1.4-0.6c1.4-0.6,2.9-1.1,4.3-1.6c0.6-0.2,1.3-0.4,1.9-0.6c0.1,0,0.2-0.1,0.3-0.1
		c0.3-0.1,0.7-0.2,1-0.3c0.5-0.2,1-0.3,1.5-0.5c0.7-0.2,1.4-0.4,2.1-0.6c1.6-0.5,3.2-0.9,4.8-1.3c0.2-0.1,0.5-0.1,0.7-0.2
		c1-0.2,1.9-0.5,2.9-0.7c2.1-0.5,4.2-0.9,6.2-1.3c0,0,0.1,0,0.1,0c0.1,0,0.3-0.1,0.4-0.1c0.3-0.1,0.6-0.1,0.8-0.2
		c3.3-0.6,6.7-1.2,10.1-1.7c0.2,0,0.3,0,0.5-0.1c0.2,0,0.4-0.1,0.6-0.1c1.2-0.2,2.5-0.3,3.7-0.5c1.6-0.2,3.1-0.4,4.7-0.6
		c0.4,0,0.7-0.1,1-0.1c0.2,0,0.5-0.1,0.7-0.1c1.2-0.1,2.5-0.3,3.7-0.4c0.3,0,0.5-0.1,0.8-0.1c0.1,0,0.2,0,0.2,0
		c2.1-0.2,4.1-0.4,6.2-0.6c3-0.3,5.9-0.5,8.9-0.8c7.7-0.7,15.5-1.3,23.2-1.4c1.6,0,3.3-0.1,4.9-0.1c0.5,0,0.9,0,1.4,0
		c5.7,0,11.3,0.2,17,0.6c2.7,0.2,5.4,0.4,8.1,0.7c2.1,0.2,4.1,0.4,6.1,0.6c1.4,0.2,2.9,0.4,4.3,0.5c0.1,0,0.3,0,0.4,0.1
		c0,0,0,0,0.1,0c0.1,0,0.1,0,0.2,0c1.5,0.2,3,0.4,4.5,0.6c0.1,0,0.3,0,0.4,0.1c2.3,0.3,4.6,0.7,6.9,1.1c0.1,0,0.2,0,0.3,0
		c2.2,0.4,4.3,0.7,6.5,1.1c0.1,0,0.3,0.1,0.4,0.1c2.7,0.5,5.3,1,8,1.5c0.1,0,0.2,0,0.3,0.1c0,0,0.1,0,0.1,0c1.8,0.4,3.6,0.7,5.4,1.1
		c0.5,0.1,1.1,0.2,1.6,0.3c0.4,0.1,0.8,0.2,1.1,0.2c0,0,0,0,0.1,0c0.1,0,0.2,0,0.2,0c1.8,0.4,3.5,0.8,5.3,1.2
		c0.3,0.1,0.6,0.1,0.9,0.2c0,0,0.1,0,0.1,0c0.1,0,0.2,0,0.2,0.1c2.2,0.5,4.3,1,6.5,1.5c0.1,0,0.2,0,0.3,0.1c0.1,0,0.1,0,0.2,0
		c0.1,0,0.2,0,0.3,0.1c0.9,0.2,1.8,0.4,2.8,0.6c0.7,0.2,1.5,0.3,2.4,0.5c0.1,0,0.2,0.1,0.4,0.1c0,0,0,0,0,0c0.1,0,0.1,0,0.2,0.1
		c1.1,0.3,2.3,0.7,3.2,1.3c-0.5-1.3-0.9-2.6-1.4-3.8c-0.8-2.4-1.6-4.8-2.4-7.2c-1.5-4.8-2.9-9.5-4.4-14.3c-1.2,0.6-2.5,1.1-3.8,1.5
		c-4,1.3-8.1,1.8-12.1,1.2c-4.1-0.6-7.9-2.3-11-5.5c-0.2-0.2-0.5-0.5-0.7-0.7c0,0,0,0,0,0c-0.3-0.3-0.6-0.6-0.8-0.9c0,0,0,0,0,0
		c-2.4-3.1-3.4-6.8-3.3-10.6c0-2.2,0.3-4.4,0.9-6.6c0.2-0.8,0.4-1.5,0.6-2.2c0.1-0.4,0.2-0.7,0.3-1c1.9-5.4,5.4-11.1,10.8-13.6
		c-1-1.2-2.1-2.4-3.2-3.5c-3.2-3.3-6.6-6.3-10.2-9c-4.6-3.5-9.4-6.7-14.4-9.9c-0.9-0.6-1.8-1.1-2.6-1.7c-3.1-2-6.1-4.2-8.6-6.9
		c-1.4-1.5-2.5-3.1-3.6-4.8c-1.2-1.9-2.3-3.8-3.5-5.6c-0.6-0.9-1.2-1.7-1.9-2.5c-6.6-7.5-17.9-8.3-25.9-3.1
		c-0.3,0.2-0.6,0.4-0.8,0.6c-0.2,0.2-0.5,0.3-0.7,0.5c-0.7,0.6-1.3,1.1-2,1.7c-3.1,2.9-5.8,6.2-8.9,9c-1.4,1.2-2.9,2.4-4.4,3.5
		c-1.7,1.3-3.5,2.5-5.4,3.6c-0.9,0.5-1.7,1.1-2.6,1.6c-3.7,2.2-7.3,4.5-10.8,6.8c-5.4,3.5-10.7,7.2-15.8,11.3
		c-0.2,0.2-0.4,0.4-0.7,0.6c-2.4,2-4.8,4.1-7.1,6.2c-1.4,1.3-2.8,2.6-4.1,3.9c5.6-0.2,11.2,3.6,14,8.3c1.7,2.9,2.5,6.3,2.5,9.7
		c0,1.4-0.1,2.8-0.4,4.2c-0.3,1.5-0.8,3-1.5,4.5c-2.4,5.3-7.1,9.1-12.4,11.2c-0.7,0.3-1.4,0.5-2.1,0.7c-5.2,1.5-11,1.4-15.5-1.5
		c-0.8-0.5-1.6-1.2-2.4-1.9c-2.3-2.3-3.9-5.1-4.6-8.1c-2,3-3.9,6-5.7,9.1C5.2,99.1,0.7,109.7,1.1,120.8z M130,69
		c6.1,4.3,7.7,15,4.4,21.4c-3.4,6.5-11.1,10.1-18.2,8.2c-7.1-2-12.5-8.7-12.4-16.1c0.1-6.1,3.4-11.1,8.1-13.9
		C117.3,65.3,124.3,65,130,69z M106.7,73.2C106.8,73.1,106.8,73.1,106.7,73.2C106.8,73.1,106.8,73.1,106.7,73.2
		C106.7,73.2,106.7,73.2,106.7,73.2z M108.2,24c5.4,5.1,6.4,13.8,3.3,20.4c-3.4,7.1-11.4,10.7-19,9.8c-7.8-0.9-14.8-6.8-15.9-14.8
		C74.1,22.3,96.2,12.5,108.2,24z"/>
	<path class="st2" d="M106.1,87.4c3,8.2,12.3,13.3,20.5,9.3c8.8-4.3,10.8-15.4,5.8-23.6c-2.4-4-7.5-6.3-12.4-6.3
		c-3.4-0.1-6.7,1-9.1,3.3C106.4,74.4,103.9,81.3,106.1,87.4z"/>
	<path class="st1" d="M150.6,105.8c-0.2-0.4-0.4-0.7-0.6-1.1c-0.5-0.1-1-0.1-1.5-0.2c-1.1-0.2-2.1-0.3-3.2-0.4
		c2.9,6.6,5.8,13.3,8.5,20c0.5,0,1,0,1.4,0c0.2,0,0.5,0,0.7,0c-0.3-3.2-1-6.4-1.9-9.5C153.2,111.4,152,108.5,150.6,105.8z"/>
	<path class="st1" d="M60.2,111.8c0.6-1.4,1.2-2.9,1.8-4.3c0.3-0.8,0.7-1.6,1-2.5c-0.8,0.1-1.6,0.1-2.3,0.2
		c-0.8,0.1-1.6,0.1-2.4,0.2c-1.2,1.8-2.3,3.7-3.4,5.6c-2.6,4.4-4.9,8.9-7,13.5c-0.4,0.9-0.8,1.8-1.2,2.8c0.2,0,0.3,0,0.5,0
		c2.3-0.2,4.6-0.4,6.9-0.6C56.1,121.7,58.1,116.8,60.2,111.8z"/>
	<path class="st1" d="M36.6,107.9c-0.3,0.1-0.7,0.1-1,0.2c-1.4,0.2-2.8,0.5-4.2,0.8c-0.1,0-0.2,0-0.2,0c-1.3,0.3-2.7,0.5-4,0.8
		c-3.6,5.4-6.2,11.2-8,17.6c1.1,0.1,2.2,0.2,3.3,0.2c0.2,0,0.4,0,0.6,0c1.1,0.1,2.3,0.1,3.4,0.2c0.3,0,0.6,0,0.9,0
		c0.1-0.5,0.3-1,0.4-1.5C29.7,119.8,32.7,113.5,36.6,107.9z"/>
	<path class="st1" d="M49.4,119.8c2.4-5,5.1-9.8,8.2-14.3c-1.7,0.1-3.3,0.3-5,0.5c-1.4,0.1-2.9,0.3-4.3,0.4c-1.9,2.6-3.7,5.2-5.2,8
		c-2.5,4.3-4.5,8.7-6,13.5c1.4,0,2.8-0.1,4.1-0.2c1.7-0.1,3.4-0.2,5-0.3C47.1,124.8,48.2,122.3,49.4,119.8z"/>
	<path class="st4" d="M199.1,99.4c-1.1-3.2-2.1-6.5-3.1-9.8c-0.1-0.3-0.2-0.6-0.3-0.9c-0.7-2.4-1.5-4.8-2.3-7.1
		c-3.5-10.5-8.3-20.1-15.4-28.6c-0.4-0.4-0.7-0.8-1.1-1.3c-0.1-0.2-0.3-0.3-0.4-0.5c-6.3-7.3-13.8-13.5-21.8-18.9
		c-4.7-3.1-9.6-6-13.8-9.7c-4.3-3.8-6.9-8.5-10.1-13.2c-5-7.1-13.6-10.8-22.2-8.9c-2.8,0.6-5.3,1.9-7.6,3.5
		c-1.5,1.1-2.9,2.3-4.2,3.6c-4.2,4.1-8.1,8.4-12.9,11.8c-9.2,6.5-19.4,11.2-28.4,17.9c-6.8,5-13.3,10.6-19.2,16.6
		c-0.1,0.1-0.3,0.3-0.4,0.4c-1.3,1.3-2.6,2.7-3.8,4c-5.6,6.2-10.8,12.8-15.4,19.8c-0.2,0.3-0.4,0.6-0.5,0.8c-1.7,2.6-3.4,5.3-5,8.1
		c-3.1,5.5-6.1,11.7-8,18c-1.1,3.6-5.4,17.2-1.7,19.7c0.7,0.5,1.5,0.8,2.4,1.1c0.2,0.1,0.3,0.1,0.5,0.2c1.8,0.5,3.7,0.7,5.3,1.1
		c0.3,0.1,0.6,0.1,0.8,0.2c0.1,0,0.2,0,0.2,0c2.6,0.6,5.2,1.2,7.9,1.6c0,0.1,0.1,0.1,0.2,0c2.6,0.4,5.3,0.7,8.1,0.9
		c0.1,0,0.2,0,0.3,0c3,0.2,6,0.3,9,0.2c0.1,0,0.1,0,0.2,0c3-0.1,6.1-0.3,9.1-0.7c0.2,0,0.3,0,0.5-0.1c2.6-0.4,5.2-0.9,7.7-1.5
		c-3.2,7.9-6.4,15.8-9.5,23.8c-3.7,9.4-6.5,19.3-8.8,29.2c-1.8,7.5-4.2,16.8,0.3,23.9c4.6,7.1,13.9,8.2,21.5,9.4
		c10.1,1.6,20.2,2.8,30.4,3.5c12.3,0.8,24.5,0.5,36.8,0.4c1.4,0,2.7,0,4.1,0c0.4,0,0.7-0.1,1.1-0.1c1.9-0.1,3.8-0.3,5.7-0.5
		c4.6-0.5,9.3-1.3,14-2.3c3.5-0.7,6.9-1.5,10.3-2.4c5.6-1.4,11.8-4,14.5-9.5c2.8-5.7,1.8-12.5,0.5-18.4c-4.3-20-11.7-39-19.4-57.8
		c-0.2-0.6-0.5-1.2-0.7-1.7c0.6,0,1.1,0,1.7,0h0.2c1.7,0,3.4,0,5.1,0c0.2,0,0.4,0,0.6,0c1.9,0,3.8-0.1,5.7-0.1c0.2,0,0.3,0,0.5,0
		c2.4-0.1,4.9-0.3,7.3-0.4c0.1,0,0.1,0,0.2,0c0.6,0,1.2-0.1,1.7-0.1c1.8-0.2,3.5-0.3,5.3-0.5c0.1,0,0.1,0,0.2,0
		c4.1-0.4,8.2-0.9,12.2-1.5c0.4-0.1,0.9-0.1,1.4-0.2c0.1,0,0.2,0,0.3,0c1.6-0.2,3.3-0.3,4.9-0.7c0.1,0,0.2-0.1,0.4-0.1
		c0.3-0.1,0.6-0.2,0.9-0.3C208.9,118.9,200.4,103.2,199.1,99.4z M176.6,51.8c6.8,8,11.9,17.1,15.3,27.1c1.1,3.3,2.1,6.6,3.2,9.9
		c-3,1.3-6.2,2.2-9.6,2.4c-6,0.3-12.5-1.8-16.6-6.3c-0.2-0.3-0.5-0.5-0.7-0.8c-3.3-4.1-3.8-9.5-2.9-14.6c0.2-1.4,0.6-2.8,1-4.1
		C167.9,59.6,171.4,55,176.6,51.8z M22.6,71.8c2-2.6,4-5.1,6.2-7.6c0.5-0.5,0.9-1,1.4-1.6c2.5-2.8,5.1-5.6,7.8-8.3
		c0.4,0,0.8,0.1,1.3,0.1c6.2,0.7,11.9,4.1,14.1,10.4c0.5,1.3,0.7,2.6,0.9,4c0.6,5.7-1.8,11.5-5.8,15.6c-0.3,0.3-0.7,0.7-1,1
		c-1.7,1.5-3.7,2.8-5.9,3.8c-4.7,2.1-10.2,2.8-15.1,1.3c-5-1.5-8.5-5.8-9.5-10.8C18.7,77,20.6,74.4,22.6,71.8z M1.1,120.8
		c-0.3-11.1,4.1-21.7,9.6-31.2c1.8-3.1,3.7-6.1,5.7-9.1c0,0,0,0,0,0c0.7,3,2.3,5.8,4.6,8.1c0.7,0.7,1.5,1.4,2.4,1.9
		c4.5,2.9,10.3,3,15.5,1.5c0.7-0.2,1.4-0.4,2.1-0.7c5.3-2,10-5.9,12.4-11.2c0.7-1.4,1.2-2.9,1.5-4.5c0.3-1.4,0.4-2.8,0.4-4.2
		c0-3.4-0.8-6.7-2.5-9.7c-2.8-4.8-8.4-8.5-14-8.3c1.3-1.3,2.7-2.6,4.1-3.9c2.3-2.1,4.7-4.2,7.1-6.2c0.2-0.2,0.4-0.4,0.7-0.6
		c5.1-4.1,10.3-7.8,15.8-11.3c3.6-2.3,7.2-4.5,10.8-6.8c0.9-0.5,1.7-1.1,2.6-1.6c1.8-1.2,3.6-2.4,5.4-3.6c1.5-1.1,3-2.2,4.4-3.5
		c3.2-2.8,5.9-6.1,9-9c0.6-0.6,1.3-1.2,2-1.7c0.2-0.2,0.5-0.4,0.7-0.5c0.3-0.2,0.6-0.4,0.8-0.6c8-5.3,19.3-4.4,25.9,3.1
		c0.7,0.8,1.3,1.7,1.9,2.5c1.2,1.8,2.3,3.7,3.5,5.6c1.1,1.7,2.2,3.3,3.6,4.8c2.5,2.7,5.5,4.9,8.6,6.9c0.9,0.6,1.8,1.1,2.6,1.7
		c5,3.1,9.8,6.3,14.4,9.9c3.6,2.8,7,5.7,10.2,9c1.1,1.2,2.2,2.3,3.2,3.5c0,0,0,0,0,0c-5.4,2.4-8.9,8.2-10.8,13.6
		c-0.1,0.3-0.2,0.7-0.3,1c-0.2,0.7-0.5,1.5-0.6,2.2c-0.5,2.2-0.9,4.4-0.9,6.6c0,3.8,0.9,7.5,3.3,10.6c0,0,0,0,0,0
		c0.3,0.3,0.5,0.6,0.8,0.9c0,0,0,0,0,0c0.2,0.3,0.5,0.5,0.7,0.7c3.1,3.2,7,4.9,11,5.5c3.9,0.5,8.1,0,12.1-1.2
		c1.3-0.4,2.6-0.9,3.8-1.5c1.4,4.8,2.9,9.6,4.4,14.3c0.8,2.4,1.6,4.8,2.4,7.2c0.4,1.3,0.9,2.6,1.4,3.8c0,0,0,0,0,0
		c-0.9-0.6-2.1-1-3.2-1.3c-0.1,0-0.1,0-0.2-0.1c0,0,0,0,0,0c-0.1,0-0.2-0.1-0.4-0.1c-0.9-0.2-1.7-0.4-2.4-0.5
		c-0.9-0.2-1.8-0.4-2.8-0.6c-0.1,0-0.2,0-0.3-0.1c-0.1,0-0.1,0-0.2,0c-0.1,0-0.2,0-0.3-0.1c-2.2-0.5-4.3-1-6.5-1.5
		c-0.1,0-0.2,0-0.2-0.1c0,0-0.1,0-0.1,0c-0.3-0.1-0.6-0.1-0.9-0.2c-1.8-0.4-3.5-0.8-5.3-1.2c-0.1,0-0.2,0-0.2,0c0,0,0,0-0.1,0
		c-0.4-0.1-0.8-0.2-1.1-0.2c-0.5-0.1-1.1-0.2-1.6-0.3c-1.8-0.4-3.6-0.8-5.4-1.1c0,0-0.1,0-0.1,0c-0.1,0-0.2,0-0.3-0.1
		c-2.6-0.5-5.3-1-8-1.5c-0.1,0-0.3-0.1-0.4-0.1c-2.1-0.4-4.3-0.8-6.5-1.1c-0.1,0-0.2,0-0.3,0c-2.3-0.4-4.6-0.8-6.9-1.1
		c-0.1,0-0.3-0.1-0.4-0.1c-1.5-0.2-3-0.4-4.5-0.6c-0.1,0-0.1,0-0.2,0c0,0,0,0-0.1,0c-0.1,0-0.3,0-0.4-0.1c-1.4-0.2-2.9-0.4-4.3-0.5
		c-2-0.2-4.1-0.4-6.1-0.6c-2.7-0.3-5.4-0.5-8.1-0.7c-5.6-0.4-11.3-0.6-17-0.6c-0.5,0-0.9,0-1.4,0c-1.6,0-3.3,0-4.9,0.1
		c-7.8,0.2-15.5,0.8-23.2,1.4c-3,0.3-5.9,0.5-8.9,0.8c-2,0.2-4.1,0.4-6.2,0.6c-0.1,0-0.2,0-0.2,0c-0.3,0-0.5,0.1-0.8,0.1
		c-1.2,0.1-2.5,0.2-3.7,0.4c-0.2,0-0.5,0.1-0.7,0.1c-0.4,0-0.7,0.1-1,0.1c-1.6,0.2-3.1,0.4-4.7,0.6c-1.2,0.2-2.5,0.3-3.7,0.5
		c-0.2,0-0.4,0.1-0.6,0.1c-0.2,0-0.3,0.1-0.5,0.1c-3.4,0.5-6.7,1-10.1,1.7c-0.3,0.1-0.6,0.1-0.8,0.2c-0.1,0-0.3,0.1-0.4,0.1
		c0,0-0.1,0-0.1,0c-2.1,0.4-4.2,0.9-6.2,1.3c-1,0.2-1.9,0.4-2.9,0.7c-0.2,0.1-0.5,0.1-0.7,0.2c-1.6,0.4-3.2,0.8-4.8,1.3
		c-0.7,0.2-1.4,0.4-2.1,0.6c-0.5,0.2-1,0.3-1.5,0.5c-0.3,0.1-0.7,0.2-1,0.3c-0.1,0-0.2,0.1-0.3,0.1c-0.6,0.2-1.3,0.4-1.9,0.6
		c-1.5,0.5-2.9,1-4.3,1.6c-0.5,0.2-0.9,0.4-1.4,0.6c-0.2,0.1-0.5,0.2-0.7,0.3c-0.4,0.2-0.9,0.4-1.3,0.6c-0.7,0.4-1.4,0.8-2.1,1.2
		c-1,0.6-2.9,1.9-4,3.4C1.2,120.6,1.2,120.7,1.1,120.8z M4.2,124.9C4.2,124.9,4.2,124.9,4.2,124.9c-0.4-0.1-0.9-0.2-1.3-0.4
		c-0.7-0.3-1.2-0.6-1.5-0.9c-0.1-0.1-0.1-0.3-0.2-0.4c0-0.2,0-0.5,0-0.7c0.1-0.4,0.3-0.9,0.6-1.3c1.2-1.8,3.9-3.6,4.9-4.2
		c0.5-0.2,1-0.5,1.5-0.7c0,0,0,0,0,0C6.5,119,5.1,121.9,4.2,124.9z M10.8,126.3c-0.1,0-0.3,0-0.4-0.1c-0.2,0-0.3,0-0.5-0.1
		c-1.7-0.3-3.5-0.6-5.3-1.1c1.1-3.2,2.5-6.3,4.3-9.2c2.3-1.1,4.7-2.1,7.2-3c0.3-0.1,0.5-0.2,0.8-0.3c-1.3,2.6-2.4,5.2-3.6,7.8
		C12.4,122.4,11.6,124.3,10.8,126.3C10.8,126.3,10.8,126.3,10.8,126.3z M18.9,127.3c-2-0.2-3.9-0.4-5.9-0.7
		c-0.6-0.1-1.3-0.2-1.9-0.3c0,0,0,0,0,0c0.7-1.6,1.4-3.2,2.1-4.8c1.3-3,2.7-6,4-9c0,0,0,0,0,0c2.9-1,6-1.8,9-2.5
		c0.1,0,0.2,0,0.3-0.1c-0.6,0.8-1.1,1.6-1.6,2.4c-2.3,3.7-4,7.7-5.2,11.8C19.4,125.2,19.1,126.2,18.9,127.3
		C18.9,127.3,18.9,127.3,18.9,127.3z M27.3,127.8c-0.3,0-0.6,0-0.9,0c-1.1-0.1-2.3-0.1-3.4-0.2c-0.2,0-0.4,0-0.6,0
		c-1.1-0.1-2.2-0.2-3.3-0.2c0,0,0,0,0,0c1.8-6.3,4.4-12.2,8-17.6c1.3-0.3,2.7-0.6,4-0.8c0.1,0,0.2,0,0.2,0c1.4-0.3,2.8-0.5,4.2-0.8
		c0.3,0,0.7-0.1,1-0.2c0,0,0,0,0,0c-3.9,5.6-6.9,11.8-8.8,18.4C27.6,126.8,27.4,127.3,27.3,127.8C27.3,127.8,27.3,127.8,27.3,127.8z
		 M33.2,127.9c-1.8,0-3.7,0-5.5-0.1c0,0,0,0,0,0c2.2-7.3,5.5-13.9,9.8-20c0.7-0.1,1.3-0.2,2-0.3c2.6-0.4,5.2-0.7,7.8-1c0,0,0,0,0,0
		c-0.9,1.3-1.8,2.6-2.7,4c-2.5,3.9-4.5,8.1-6.1,12.5c-0.6,1.6-1.2,3.3-1.7,5C35.5,127.9,34.4,127.9,33.2,127.9z M41.1,127.7
		c-1.4,0.1-2.7,0.1-4.1,0.2c0,0,0,0,0,0c1.5-4.8,3.6-9.2,6-13.5c1.6-2.8,3.3-5.4,5.2-8c1.4-0.2,2.9-0.3,4.3-0.4
		c1.7-0.2,3.3-0.3,5-0.5c0,0,0,0,0,0c-3.1,4.6-5.8,9.3-8.2,14.3c-1.2,2.5-2.3,5-3.3,7.6C44.4,127.5,42.8,127.6,41.1,127.7z
		 M47.1,127.3c-0.2,0-0.3,0-0.5,0c0.4-0.9,0.8-1.8,1.2-2.8c2.1-4.6,4.4-9.1,7-13.5c1.1-1.9,2.2-3.8,3.4-5.6c0.8-0.1,1.6-0.1,2.4-0.2
		c0.8-0.1,1.6-0.1,2.3-0.2c0,0,0,0,0,0c-0.4,0.8-0.7,1.6-1,2.5c-0.6,1.4-1.2,2.9-1.8,4.3c-2.1,4.9-4.1,9.9-6.2,14.8
		C51.7,126.9,49.4,127.1,47.1,127.3z M162.7,148.7c2.9,8.9,5.5,17.9,7.8,27c2,7.8,5.4,17.5,2.4,25.4c-1.6,4.4-4.9,6.8-9.2,8.3
		c-4.1,1.4-8.2,2.6-12.3,3.6c-1.6,0.4-3.3,0.8-4.9,1.1c-1.4,0.3-17.1,2.5-17.1,2.4c0,0,0,0,0,0c-0.3,0-0.6,0.1-1,0.1
		c-0.1,0-0.2,0-0.2,0c-1.2,0.1-2.4,0.1-3.6,0.2c-5.7,0.2-11.5,0.2-17.2,0.2c-6.9-0.1-13.7-0.5-20.5-1c0,0,0,0,0,0c0,0,0,0,0,0
		c-0.5,0-0.9-0.1-1.3-0.2c0,0,0,0,0,0c-1.4-0.1-2.9-0.2-4.3-0.2c-0.3,0-0.6,0-1-0.1c-1.2-0.1-2.4-0.1-3.6-0.2c-0.5,0-1-0.1-1.5-0.1
		c-1-0.1-2.1-0.2-3.1-0.3c-0.6-0.1-1.2-0.1-1.8-0.2c-0.9-0.1-1.9-0.2-2.8-0.3c-0.7-0.1-1.4-0.2-2.1-0.3c-0.8-0.1-1.7-0.2-2.5-0.3
		c-0.8-0.1-1.6-0.3-2.4-0.4c-0.7-0.1-1.4-0.2-2.1-0.3c-1-0.2-1.9-0.4-2.9-0.6c-0.5-0.1-1.1-0.2-1.7-0.3c-1.5-0.3-3-0.7-4.4-1.1
		c-4.5-1.2-9.1-2.8-12-6.7c-5.2-7.1-2-17.3-0.2-25c4.2-17.6,9.8-34.8,16.5-51.7c0.1-0.3,0.3-0.7,0.4-1c0-0.1,0.1-0.3,0.2-0.4
		c1.9-4.9,4-9.7,6-14.5c1-2.2,1.9-4.5,2.9-6.8c1.2-0.1,2.3-0.2,3.5-0.3c21.5-1.9,43.2-3.9,64.8-2.1c2.1,0.2,4.2,0.4,6.3,0.6
		c2.4,0.3,4.8,0.5,7.1,0.8c2.9,6.6,5.8,13.3,8.5,20c0.2,0.4,0.3,0.8,0.5,1.2C157.2,133,160.2,140.8,162.7,148.7z M155.3,124
		c-0.5,0-1,0-1.4,0c-2.8-6.7-5.6-13.3-8.5-20c0,0,0,0,0,0c1.1,0.1,2.1,0.3,3.2,0.4c0.5,0.1,1,0.1,1.5,0.2c0,0,0,0,0,0
		c0.2,0.4,0.4,0.7,0.6,1.1c1.4,2.8,2.6,5.7,3.5,8.7c0.9,3.1,1.6,6.3,1.9,9.5C155.8,124,155.5,124,155.3,124z M158.8,123.9
		c-0.9,0-1.7,0.1-2.6,0.1c0-0.4-0.1-0.7-0.1-1.1c-0.5-5.2-1.9-10.3-4.1-15c-0.5-1.1-1-2.1-1.6-3.1c2.3,0.3,4.5,0.7,6.8,1.1
		c0.8,1.7,1.4,3.5,1.9,5.3c1.2,4.1,2,8.3,2.1,12.7C160.5,123.8,159.6,123.9,158.8,123.9z M166,123.6c-1.3,0.1-2.7,0.1-4.1,0.1
		c0,0,0,0,0,0c-0.1-3.3-0.7-6.6-1.5-9.7c-0.7-2.8-1.7-5.5-2.9-8.2c0,0,0,0,0,0c2.1,0.4,4.2,0.7,6.3,1.1c1.8,5.4,2.9,10.9,3.6,16.6
		C167,123.6,166.5,123.6,166,123.6z M168,123.6c-0.1-1.2-0.3-2.5-0.5-3.7c-0.7-4.3-1.8-8.6-3.2-12.8c2.6,0.5,5.2,1,7.9,1.5
		c0.2,0.6,0.3,1.2,0.5,1.9c1,4.2,1.9,8.5,2.6,12.7C172.8,123.3,170.4,123.5,168,123.6z M179.3,123c-0.8,0-1.6,0.1-2.4,0.1
		c-0.5,0-0.9,0.1-1.4,0.1c-0.5-3.8-1.2-7.5-2.1-11.2c-0.3-1.1-0.6-2.2-0.9-3.3c0,0,0,0,0,0c1.7,0.3,3.4,0.7,5,1.1
		c1,0.2,2,0.4,3.1,0.6c0.3,1.1,0.6,2.2,0.8,3.3c0.6,2.7,1,5.5,1.1,8.3c0,0.3,0.1,0.6,0.1,0.9C181.5,122.9,180.4,122.9,179.3,123z
		 M187.7,122.4c-0.5,0-1,0.1-1.5,0.1c-1.1,0.1-2.2,0.2-3.3,0.2c0,0,0,0,0,0c-0.1-3.1-0.5-6.2-1.2-9.3c-0.1-0.4-0.2-0.8-0.3-1.2
		c-0.2-0.6-0.3-1.2-0.5-1.9c2.1,0.4,4.1,0.9,6.2,1.4c0.9,3,1.5,6,2.1,9.1c0.1,0.4,0.2,0.8,0.2,1.2c0,0,0,0,0,0c0,0,0,0.1,0,0.1
		c0,0,0,0,0,0c0,0,0,0,0,0C188.9,122.3,188.3,122.3,187.7,122.4z M196.1,121.6c-0.4,0-0.8,0.1-1.1,0.1c-1.8,0.2-3.6,0.4-5.4,0.5
		c0,0,0,0,0,0c0,0,0,0,0,0c0,0,0-0.1,0-0.1c-0.2-1.8-0.5-3.6-1-5.4c-0.4-1.6-0.8-3.2-1.3-4.8c1.3,0.3,2.7,0.6,4,0.9
		c0.9,0.2,1.9,0.4,2.8,0.6c0,0,0,0,0,0c0.1,0.3,0.1,0.5,0.2,0.8c0.7,2.4,1.3,4.9,1.8,7.3c0,0,0,0,0,0
		C196.2,121.6,196.2,121.6,196.1,121.6z M200.3,121.1c-1.2,0.2-2.5,0.4-3.6,0.4c0-0.1,0-0.2-0.1-0.3c-0.2-1.2-0.5-2.5-0.8-3.7
		c0,0,0,0,0,0c-0.3-1.2-0.6-2.5-1-3.7c0-0.1,0-0.2-0.1-0.2c0,0,0,0,0,0c0.2,0.1,0.5,0.1,0.8,0.2c0.9,0.2,2.1,0.4,3.3,0.7
		c0.3,0.1,0.7,0.2,1,0.3c0,0.2,0.1,0.3,0.1,0.5c0.5,1.9,1,3.8,1.5,5.7C201.1,120.9,200.7,121,200.3,121.1z M201.9,120.7
		c-0.3-1.6-0.8-3.2-1.2-4.8c-0.1-0.4-0.2-0.7-0.3-1.1c1,0.3,1.9,0.8,2.6,1.4c0.5,0.5,0.9,1.1,1,1.8
		C204.3,119.4,203.3,120.2,201.9,120.7z"/>
	<path class="st5" d="M153.6,124c-2.8-6.7-5.6-13.4-8.5-20c-2.4-0.3-4.7-0.6-7.1-0.8c-2.1-0.2-4.2-0.4-6.3-0.6
		c-21.6-1.8-43.3,0.3-64.8,2.1c-1.2,0.1-2.3,0.2-3.5,0.3c-1,2.2-1.9,4.5-2.9,6.8c-2,4.8-4.1,9.6-6,14.5c-0.1,0.1-0.1,0.3-0.2,0.4
		c-0.1,0.3-0.3,0.7-0.4,1c-6.7,16.8-12.3,34.1-16.5,51.7c-1.8,7.7-5,17.9,0.2,25c2.9,4,7.4,5.5,12,6.7c1.5,0.4,2.9,0.8,4.4,1.1
		c0.5,0.1,1.1,0.2,1.7,0.3c1,0.2,1.9,0.4,2.9,0.6c0.7,0.1,1.4,0.2,2.1,0.3c0.8,0.1,1.6,0.3,2.4,0.4c0.8,0.1,1.6,0.2,2.5,0.3
		c0.7,0.1,1.4,0.2,2.1,0.3c0.9,0.1,1.8,0.2,2.8,0.3c0.6,0.1,1.2,0.1,1.8,0.2c1,0.1,2.1,0.2,3.1,0.3c0.5,0,1,0.1,1.5,0.1
		c1.2,0.1,2.4,0.2,3.6,0.2c0.3,0,0.6,0,1,0.1c1.4,0.1,2.9,0.2,4.3,0.2c0,0,0,0,0,0c0.4,0.1,0.9,0.2,1.3,0.2c0,0,0,0,0,0c0,0,0,0,0,0
		c6.8,0.5,13.6,0.9,20.5,1c5.7,0.1,11.5,0.1,17.2-0.2c1.2,0,2.4-0.1,3.6-0.2c0.1,0,0.2,0,0.2,0c0.3,0,0.7,0,1-0.1c0,0,0,0,0,0
		c0,0.1,15.8-2.1,17.1-2.4c1.6-0.3,3.3-0.7,4.9-1.1c4.2-1,8.3-2.2,12.3-3.6c4.3-1.5,7.6-3.9,9.2-8.3c2.9-7.9-0.5-17.7-2.4-25.4
		c-2.3-9.1-4.9-18.1-7.8-27c-2.6-7.9-5.5-15.7-8.7-23.4C153.9,124.8,153.7,124.4,153.6,124z M105.4,214.3
		c-27.1,0-49.2-22.1-49.2-49.2s22.1-49.2,49.2-49.2s49.2,22.1,49.2,49.2S132.5,214.3,105.4,214.3z"/>
	<path class="st2" d="M166.1,65.5c-0.4,1.3-0.7,2.7-1,4.1c-0.9,5.1-0.4,10.4,2.9,14.6c0.2,0.3,0.4,0.5,0.7,0.8
		c4.2,4.5,10.6,6.6,16.6,6.3c3.4-0.2,6.6-1.1,9.6-2.4c-1-3.3-2-6.7-3.2-9.9c-3.4-10.1-8.5-19.1-15.3-27.1
		C171.4,55,167.9,59.6,166.1,65.5z"/>
	<path class="st4" d="M92.5,54.2c7.6,0.9,15.6-2.7,19-9.8c3.1-6.6,2.1-15.2-3.3-20.4c-12-11.5-34.1-1.7-31.6,15.4
		C77.7,47.5,84.6,53.3,92.5,54.2z M84.4,23.5c5.6-4.1,13.7-5.2,20.4-0.9c6.3,4,8.8,11.8,6.7,18.9c-4.6,15.6-28.1,15.3-33.2,0.1
		C75.9,34.1,79,27.4,84.4,23.5z"/>
	<path class="st4" d="M106.7,73.2C106.7,73.2,106.7,73.2,106.7,73.2C106.8,73.1,106.8,73.1,106.7,73.2
		C106.8,73.1,106.8,73.1,106.7,73.2z"/>
	<path class="st4" d="M103.8,82.4c-0.1,7.5,5.3,14.2,12.4,16.1c7.1,2,14.8-1.7,18.2-8.2C137.7,84,136,73.3,130,69
		c-5.6-4-12.7-3.7-18.1-0.4C107.2,71.3,103.9,76.3,103.8,82.4z M132.4,73.1c5,8.1,3,19.2-5.8,23.6c-8.2,4-17.5-1-20.5-9.3
		c-2.2-6.1,0.3-13,4.8-17.4c2.3-2.3,5.7-3.3,9.1-3.3C124.8,66.8,129.9,69.1,132.4,73.1z"/>
	<path class="st4" d="M105.4,115.9c-27.1,0-49.2,22.1-49.2,49.2s22.1,49.2,49.2,49.2s49.2-22.1,49.2-49.2S132.5,115.9,105.4,115.9z
		 M105.4,213.3c-26.6,0-48.2-21.6-48.2-48.2c0-26.6,21.6-48.2,48.2-48.2s48.2,21.6,48.2,48.2C153.6,191.7,132,213.3,105.4,213.3z"/>
</g>
</svg>
