<?xml version="1.0" encoding="utf-8"?>
<!-- Generator: Adobe Illustrator 23.0.4, SVG Export Plug-In . SVG Version: 6.00 Build 0)  -->
<svg version="1.1" id="Fall1" xmlns="http://www.w3.org/2000/svg" xmlns:xlink="http://www.w3.org/1999/xlink" x="0px" y="0px"
	 viewBox="0 0 252.2 160.6" style="enable-background:new 0 0 252.2 160.6;" xml:space="preserve">
<style type="text/css">
	#Fall1 .st0{fill:none;}
	#Fall1 .st1{fill:#BB602D;}
	#Fall1 .st2{fill:#F8ECC9;}
	#Fall1 .st3{fill:#DB7A3B;}
	#Fall1 .st4{fill:#493217;}
</style>
<g>
	<path class="st0" d="M15.7,131.8C15.7,131.8,15.7,131.8,15.7,131.8c0.7-0.3,1.5-0.7,2.2-1c0,0,0,0,0,0
		C17.2,131.1,16.4,131.5,15.7,131.8z"/>
	<path class="st0" d="M68.2,83.7c-0.1,0.3-0.1,0.5-0.2,0.8C68.1,84.3,68.2,84,68.2,83.7C68.2,83.7,68.2,83.7,68.2,83.7z"/>
	<path class="st0" d="M70.6,75.1c-0.7,2.1-1.3,4.2-1.8,6.3v0C69.3,79.3,69.9,77.2,70.6,75.1z"/>
	<path class="st0" d="M13.1,132.9c0.5-0.2,1-0.4,1.5-0.7h0C14.1,132.5,13.6,132.7,13.1,132.9z"/>
	<path class="st0" d="M8.7,87.3c-3,8.5-5.1,17.3-6.1,26.5c0,0,0,0,0,0C3.5,104.6,5.6,95.8,8.7,87.3z"/>
	<path class="st0" d="M2,119.9c0,0.9-0.1,1.8-0.1,2.8c0-0.9,0.1-1.8,0.1-2.6C2,119.9,2,119.9,2,119.9z"/>
	<path class="st0" d="M2.4,114.8C2.4,114.8,2.4,114.7,2.4,114.8c-0.2,1.2-0.3,2.6-0.3,3.9c0,0,0,0,0,0
		C2.2,117.4,2.3,116.1,2.4,114.8z"/>
	<path class="st0" d="M41.1,116.1c-7,5.7-14.6,10.5-22.7,14.4C26.5,126.6,34.1,121.8,41.1,116.1z"/>
	<path class="st0" d="M249.1,118.2c-0.1-1.3-0.2-2.6-0.3-3.9C249,115.6,249.1,116.9,249.1,118.2L249.1,118.2z"/>
	<path class="st0" d="M125.6,43.1c-26.6,0-48.2,21.6-48.2,48.2c0,26.6,21.6,48.2,48.2,48.2s48.2-21.6,48.2-48.2
		C173.9,64.7,152.2,43.1,125.6,43.1z"/>
	<path class="st0" d="M249.3,121.9c0-0.6-0.1-1.1-0.1-1.7c0,0,0,0,0,0C249.3,120.7,249.3,121.3,249.3,121.9z"/>
	<path class="st0" d="M233.7,130.9c0.4,0.2,0.8,0.4,1.3,0.6C234.5,131.3,234.1,131.1,233.7,130.9L233.7,130.9z"/>
	<path class="st0" d="M224.5,126c1.8,1.1,3.6,2.1,5.5,3.1h0C228.1,128.1,226.3,127.1,224.5,126z"/>
	<path class="st1" d="M124.8,13.2c9-0.7,17.9-3.9,24.2-10.3c-8.1,4.4-17.2,6.6-26.5,6.3c-7.9-0.2-18.8-2-24.6-8.1c0,0,0,0-0.1,0
		C101.7,11.9,114.7,14,124.8,13.2z"/>
	<path class="st2" d="M1.9,123.9c-0.1-0.1-0.2-0.3-0.3-0.4c0,0.1-0.1,0.2-0.1,0.2c-0.2,0.5-0.4,1-0.6,1.4c-0.7,1.8-0.7,2.6,0.5,4
		c1.3,1.5,2.7,2.8,4.4,3.8c0.7,0.5,1.5,1,2.3,1.3c1.2,0.4,2,0.1,3-0.6c0.3-0.2,0.6-0.5,0.9-0.8C7.9,130.9,4.3,127.7,1.9,123.9z"/>
	<path class="st2" d="M127.2,16c10.5-1.3,19.7-6.8,26.7-14.4c-0.6-0.3-1.2-0.6-1.6-0.7c-0.8-0.1-1.3,0.4-1.7,0.9
		c-0.1,0.1-0.2,0.3-0.3,0.4c-0.2,0.2-0.3,0.5-0.5,0.7c-2,2.1-4.3,3.8-6.7,5.3c-4.9,2.9-10.5,4.5-16.1,5.1
		c-10.5,1.3-25.3-0.5-29.1-12.1c-0.7,0.2-1.3,0.4-2,0.6C98.6,14.2,116.6,17.4,127.2,16z"/>
	<path class="st3" d="M249.4,123.2c0-0.2,0-0.4,0-0.6c0-0.3,0-0.5,0-0.8c0-0.6-0.1-1.1-0.1-1.7c0,0,0,0,0,0c0-0.6-0.1-1.3-0.1-1.9h0
		c-0.1-1.3-0.2-2.6-0.3-3.9c-0.2-1.7-0.4-3.3-0.6-5c-0.1-0.6-0.2-1.1-0.3-1.7c-0.1-0.7-0.2-1.5-0.4-2.2c-0.1-0.5-0.2-1.1-0.3-1.6
		c-0.2-0.9-0.4-1.8-0.6-2.7c-0.1-0.3-0.1-0.7-0.2-1c-0.3-1.2-0.6-2.4-0.9-3.6c-0.1-0.4-0.2-0.8-0.3-1.2c-0.2-0.9-0.5-1.8-0.8-2.7
		c-0.1-0.4-0.2-0.8-0.3-1.2c-0.4-1.2-0.8-2.5-1.2-3.7c0-0.1,0-0.1-0.1-0.2c-7.2-20.3-19.9-38.2-35.4-53c-15.2-14.4-33-26.6-53-33
		c0,0-0.1,0.1-0.1,0.1c-0.1,0.1-0.1,0.1-0.2,0.2c-7.3,8.4-17.5,14.2-28.7,15.1c-10.4,0.9-27.6-2.8-30.1-15
		c-10.7,3.6-20.8,8.8-30.2,15.1C41,33.6,20.8,56.5,10.2,83.4c-0.4,1.1-0.9,2.2-1.3,3.3c-0.1,0.2-0.2,0.4-0.2,0.6
		c-3,8.5-5.1,17.4-6.1,26.5c0,0,0,0,0,0c0,0.3-0.1,0.6-0.1,0.9c0,0,0,0.1,0,0.1c-0.1,1.3-0.2,2.6-0.3,3.9c0,0,0,0,0,0
		c0,0.4-0.1,0.8-0.1,1.2c0,0,0,0.1,0,0.1c0,0.9-0.1,1.8-0.1,2.6c0,0.1,0,0.2,0,0.3c0,0.1,0,0.2,0,0.3c2.6,4,6.1,7.1,10.4,9.3
		c0.1,0,0.1,0.1,0.2,0.1c0.2,0.1,0.4,0.2,0.6,0.3c0.5-0.2,1-0.4,1.5-0.7h0c0.4-0.2,0.7-0.3,1.1-0.5c0,0,0,0,0,0
		c0.7-0.3,1.5-0.7,2.2-1c0,0,0,0,0,0c0.2-0.1,0.3-0.2,0.5-0.2c8.1-3.9,15.8-8.8,22.7-14.4c0.2-0.1,0.4-0.3,0.5-0.4
		c0.8-0.6,1.5-1.3,2.3-1.9c0.3-0.3,0.6-0.5,0.9-0.8c0.7-0.6,1.3-1.2,2-1.8c0.4-0.3,0.7-0.7,1.1-1c0.6-0.6,1.2-1.1,1.8-1.7
		c0.4-0.4,0.8-0.8,1.2-1.2c0.5-0.6,1.1-1.1,1.6-1.7c0.4-0.5,0.8-0.9,1.3-1.4c0.5-0.5,1-1.1,1.4-1.6c0.5-0.5,0.9-1,1.3-1.6
		c0.4-0.5,0.9-1,1.3-1.5c0.5-0.6,0.9-1.2,1.4-1.8c0.4-0.5,0.7-0.9,1.1-1.4c0.5-0.7,1-1.4,1.6-2.1c0.3-0.4,0.6-0.8,0.9-1.2
		c0.8-1.1,1.6-2.3,2.3-3.4c0.8-1.3,1.6-2.5,2.4-3.8c0.3-1.5,0.6-2.9,1-4.3c2.1-8.5,5.4-16.7,10-24.3c0.1-0.1,0.3,0,0.2,0.1
		c-0.6,1-1.1,1.9-1.6,2.9c-0.3,0.5-0.5,1-0.8,1.5c-0.2,0.5-0.5,0.9-0.7,1.4c-0.3,0.7-0.7,1.4-1,2.1c-0.1,0.3-0.3,0.6-0.4,0.9
		c-0.4,0.8-0.7,1.7-1.1,2.5c-0.1,0.2-0.1,0.3-0.2,0.5c-0.4,0.9-0.7,1.9-1.1,2.8c0,0.1-0.1,0.1-0.1,0.2c-0.4,1-0.7,2-1,3c0,0,0,0,0,0
		c-0.7,2.1-1.3,4.2-1.8,6.3v0c-0.1,0.4-0.2,0.8-0.3,1.2c-0.1,0.4-0.2,0.8-0.3,1.2c0,0,0,0,0,0c-0.1,0.3-0.1,0.5-0.2,0.8
		c-0.1,0.5-0.2,1-0.3,1.4c-0.1,0.5-0.2,1-0.3,1.6c-1.2,7.3-1.6,14.8-1,22.2c1.4,17,8,33,18.2,46.6c15.3,4.1,31.7,4,47.4,3.3
		c12.8-0.6,25.6-2.5,37.3-7.3c8.6-12.7,14-27.3,15.4-42.7c0.4-5.2,0.4-10.3-0.1-15.5c-0.3-2.8-0.6-5.5-1.2-8.3
		c-0.1-0.5-0.2-1-0.3-1.4c-0.1-0.3-0.1-0.6-0.2-0.9c-2-9.3-5.5-18.3-10.3-26.5c-0.1-0.1,0.1-0.3,0.2-0.1c5.1,8.5,8.6,17.7,10.7,27.1
		c0.1,0.5,0.2,1,0.3,1.6c0.8,1.4,1.6,2.7,2.5,4c0.7,1.1,1.5,2.2,2.3,3.3c0.3,0.4,0.5,0.7,0.8,1.1c0.5,0.7,1,1.4,1.6,2.2
		c0.3,0.4,0.6,0.8,1,1.3c0.5,0.6,1,1.3,1.5,1.9c0.4,0.4,0.7,0.9,1.1,1.3c0.5,0.6,1,1.2,1.5,1.8c0.4,0.4,0.8,0.9,1.1,1.3
		c0.5,0.6,1,1.1,1.6,1.7c0.4,0.4,0.8,0.8,1.2,1.3c0.6,0.6,1.1,1.1,1.7,1.7c0.4,0.4,0.8,0.8,1.2,1.1c0.9,0.9,1.8,1.8,2.8,2.6
		c0.5,0.4,0.9,0.8,1.4,1.2c0.5,0.5,1.1,0.9,1.6,1.4c0.5,0.4,1.1,0.9,1.6,1.3c0.5,0.4,1,0.8,1.5,1.2c0.6,0.4,1.1,0.9,1.7,1.3
		c0.5,0.4,1,0.7,1.4,1.1c0.6,0.4,1.2,0.9,1.8,1.3c0.5,0.3,0.9,0.7,1.4,1c0.6,0.4,1.3,0.9,1.9,1.3c0.4,0.3,0.9,0.6,1.4,0.9
		c0.7,0.4,1.3,0.9,2,1.3c0.4,0.2,0.7,0.4,1.1,0.7c1.8,1.1,3.6,2.1,5.5,3.1h0c0.1,0.1,0.2,0.1,0.3,0.2c1,0.5,2.1,1,3.1,1.5
		c0.1,0,0.2,0.1,0.3,0.1h0c0.4,0.2,0.8,0.4,1.3,0.6c1,0.5,2.1,1,3.2,1.4c0,0,0,0,0,0c0.1,0,0.2-0.1,0.3-0.1
		C243,130.7,246.7,127.4,249.4,123.2z M174.9,91.3c0,27.1-22.1,49.2-49.2,49.2s-49.2-22.1-49.2-49.2s22.1-49.2,49.2-49.2
		S174.9,64.2,174.9,91.3z"/>
	<path class="st2" d="M250.8,124.9c-0.1-0.3-0.5-1.7-0.9-1.7c0,0,0,0,0,0c-0.1,0.2-0.2,0.4-0.4,0.6c-2.6,4.1-6.3,7.3-10.8,9.2
		c0,0,0,0,0,0.1c0.1,0.1,0.2,0.2,0.3,0.3c1,1.2,2.2,1.8,3.8,1.1c2.1-0.9,4-2.4,5.6-4C249.8,129.1,251.3,127.1,250.8,124.9z"/>
	<path class="st3" d="M15.5,132.2C15.5,132.2,15.5,132.2,15.5,132.2c0,0-0.1,0-0.1,0C15.4,132.2,15.4,132.2,15.5,132.2z"/>
	<path class="st4" d="M250.1,122.7c-0.1-0.1-0.1-0.2-0.2-0.2c0,0-0.1-0.1-0.1-0.1c0-12.6-2.4-24.7-6.6-36.2
		c-10.4-28.3-32.2-52.7-57-69.4c-9.7-6.6-20.3-12.1-31.5-15.4c-0.1,0-0.3-0.1-0.4-0.1c-0.9-0.3-1.7-0.5-2.5-1.1
		c-0.1-0.1-0.2-0.1-0.3,0c-0.6,0.8-1.2,1.5-1.9,2.2c-7.7,4.2-16.2,6.5-24.9,6.6c-8.3,0.1-20-1.6-26.4-7.8c-0.1-0.1-0.1-0.1-0.2-0.2
		c-0.1,0-0.2,0.1-0.3,0.1c0,0,0,0,0,0c-0.1,0-0.1,0-0.2,0.1c-0.7,0.2-1.3,0.4-2,0.6c-0.1,0-0.1,0-0.2,0.1
		c-19.6,6.1-37.2,18.5-52,32.5c-14,13.2-25.7,29-33.2,46.8c-0.9,2.1-1.7,4.3-2.5,6.4c-4,11.3-6.3,23.3-6.3,35.4c0,0.2,0,0.4,0,0.6
		c0,0,0,0,0,0.1c-1.4,2.4-2.4,3.6-0.3,6c2.4,2.8,5.4,4.8,8.8,6.1c0.1,0,0.2,0,0.2-0.1c0.4-0.5,0.8-1.1,1.2-1.6
		c0.1-0.1,0.2-0.2,0.3-0.3c0.2-0.2,0.3-0.4,0.5-0.6c0.1,0.1,0.3,0.1,0.4,0.2c0.1,0,0.2,0.1,0.3,0.1c0.2-0.1,0.3-0.1,0.5-0.2
		c0.6-0.3,1.3-0.5,1.9-0.8c0.1,0,0.1-0.1,0.2-0.1c20.8-8.9,38.6-24.2,50.5-43.4c0.4-0.6,0.7-1.1,1.1-1.7c-0.1,0.3-0.1,0.6-0.2,1
		c-4,23.7,1.5,48.7,16.9,68.2c0.1,0.1,0.2,0.3,0.3,0.4c0.3,0.1,0.5,0.2,0.8,0.2c15.5,4.4,32.4,4.1,48.2,3.3
		c12-0.6,24.3-2.3,35.6-6.7c0.3-0.1,0.7-0.3,1-0.4c0.2-0.3,0.5-0.7,0.7-1c11.9-17.2,16.7-38.2,14.6-58.5c-0.2-2.1-0.5-4.3-0.9-6.4
		c0.7,1.1,1.4,2.2,2.1,3.3c12.3,19.1,30.5,34.2,51.6,42.7c0.2,0.1,0.3,0.1,0.5,0.2c0.7,1.2,1.7,2.6,2.8,2.6c0.9,0,2-1.1,2.6-1.6
		c1.3-0.9,2.6-1.9,3.9-2.9c1.5-1.2,4.2-2.7,4.5-4.8C252.3,125.3,251.2,123.9,250.1,122.7z M98,1.1c5.8,6.1,16.8,7.8,24.6,8.1
		c9.2,0.3,18.4-1.9,26.5-6.3c-6.3,6.4-15.3,9.6-24.2,10.3C114.7,14,101.7,11.9,98,1.1C97.9,1.1,98,1.1,98,1.1z M97.7,1.2
		c3.7,11.6,18.6,13.3,29.1,12.1c5.6-0.7,11.2-2.3,16.1-5.1c2.5-1.4,4.8-3.2,6.7-5.3c0.2-0.2,0.4-0.4,0.5-0.7
		c0.1-0.1,0.2-0.3,0.3-0.4c0.4-0.6,1-1,1.7-0.9c0.4,0.1,1,0.4,1.6,0.7c-7,7.7-16.2,13.1-26.7,14.4c-10.6,1.3-28.6-1.8-31.5-14.2
		C96.4,1.6,97,1.4,97.7,1.2z M11.1,133.7c-0.9,0.7-1.8,1.1-3,0.6c-0.8-0.3-1.6-0.9-2.3-1.3c-1.6-1.1-3.1-2.4-4.4-3.8
		c-1.2-1.4-1.2-2.2-0.5-4c0.2-0.4,0.4-0.9,0.6-1.4c0-0.1,0.1-0.2,0.1-0.2c0.1,0.1,0.2,0.3,0.3,0.4c2.5,3.9,6,7,10.1,9
		C11.7,133.1,11.4,133.4,11.1,133.7z M238.1,132.9C238.1,132.9,238.1,132.9,238.1,132.9c-1.1-0.5-2.1-0.9-3.2-1.4
		c-0.4-0.2-0.8-0.4-1.3-0.6c-0.1,0-0.2-0.1-0.3-0.1c-1-0.5-2.1-1-3.1-1.5c-0.1-0.1-0.2-0.1-0.3-0.2c-1.9-1-3.7-2-5.5-3.1
		c-0.4-0.2-0.8-0.4-1.1-0.7c-0.7-0.4-1.4-0.8-2-1.3c-0.5-0.3-0.9-0.6-1.4-0.9c-0.6-0.4-1.3-0.8-1.9-1.3c-0.5-0.3-0.9-0.6-1.4-1
		c-0.6-0.4-1.2-0.9-1.8-1.3c-0.5-0.4-1-0.7-1.4-1.1c-0.6-0.4-1.1-0.9-1.7-1.3c-0.5-0.4-1-0.8-1.5-1.2c-0.5-0.4-1.1-0.9-1.6-1.3
		c-0.5-0.5-1.1-0.9-1.6-1.4c-0.5-0.4-0.9-0.8-1.4-1.2c-0.9-0.9-1.9-1.7-2.8-2.6c-0.4-0.4-0.8-0.8-1.2-1.1c-0.6-0.6-1.1-1.1-1.7-1.7
		c-0.4-0.4-0.8-0.8-1.2-1.3c-0.5-0.6-1-1.1-1.6-1.7c-0.4-0.4-0.8-0.9-1.1-1.3c-0.5-0.6-1-1.2-1.5-1.8c-0.4-0.4-0.7-0.9-1.1-1.3
		c-0.5-0.6-1-1.3-1.5-1.9c-0.3-0.4-0.7-0.8-1-1.3c-0.5-0.7-1.1-1.4-1.6-2.2c-0.3-0.4-0.5-0.7-0.8-1.1c-0.8-1.1-1.5-2.2-2.3-3.3
		c-0.9-1.3-1.7-2.7-2.5-4c-0.1-0.5-0.2-1.1-0.3-1.6c-2-9.4-5.6-18.6-10.7-27.1c-0.1-0.1-0.3,0-0.2,0.1c4.8,8.2,8.3,17.2,10.3,26.5
		c0.1,0.3,0.1,0.6,0.2,0.9c0.1,0.5,0.2,1,0.3,1.4c0.5,2.7,0.9,5.5,1.2,8.3c0.5,5.1,0.5,10.3,0.1,15.5c-1.3,15.4-6.8,30-15.4,42.7
		c-11.8,4.8-24.5,6.7-37.3,7.3c-15.8,0.7-32.1,0.9-47.4-3.3c-10.2-13.6-16.7-29.6-18.2-46.6c-0.6-7.4-0.3-14.9,1-22.2
		c0.1-0.5,0.2-1,0.3-1.6c0.1-0.5,0.2-1,0.3-1.4c0.1-0.3,0.1-0.5,0.2-0.8c0.1-0.4,0.2-0.8,0.3-1.2c0.1-0.4,0.2-0.8,0.3-1.2
		c0.5-2.1,1.1-4.2,1.8-6.3c0,0,0,0,0,0c0.3-1,0.7-2,1-3c0-0.1,0.1-0.1,0.1-0.2c0.3-0.9,0.7-1.9,1.1-2.8c0.1-0.2,0.1-0.3,0.2-0.5
		c0.3-0.8,0.7-1.7,1.1-2.5c0.1-0.3,0.3-0.6,0.4-0.9c0.3-0.7,0.6-1.4,1-2.1c0.2-0.5,0.5-0.9,0.7-1.4c0.3-0.5,0.5-1,0.8-1.5
		c0.5-1,1.1-1.9,1.6-2.9c0.1-0.1-0.1-0.3-0.2-0.1c-4.6,7.7-7.9,15.9-10,24.3c-0.4,1.4-0.7,2.9-1,4.3c-0.8,1.3-1.6,2.6-2.4,3.8
		c-0.7,1.1-1.5,2.3-2.3,3.4c-0.3,0.4-0.6,0.8-0.9,1.2c-0.5,0.7-1,1.4-1.6,2.1c-0.4,0.5-0.7,0.9-1.1,1.4c-0.5,0.6-0.9,1.2-1.4,1.8
		c-0.4,0.5-0.9,1-1.3,1.5c-0.4,0.5-0.9,1-1.3,1.6c-0.5,0.5-1,1.1-1.4,1.6c-0.4,0.5-0.8,0.9-1.3,1.4c-0.5,0.6-1.1,1.1-1.6,1.7
		c-0.4,0.4-0.8,0.8-1.2,1.2c-0.6,0.6-1.2,1.2-1.8,1.7c-0.3,0.3-0.7,0.7-1.1,1c-0.7,0.6-1.3,1.2-2,1.8c-0.3,0.3-0.6,0.5-0.9,0.8
		c-0.8,0.7-1.5,1.3-2.3,1.9c-0.2,0.1-0.3,0.3-0.5,0.4c-7,5.7-14.6,10.5-22.7,14.4c-0.2,0.1-0.3,0.2-0.5,0.2c-0.7,0.3-1.5,0.7-2.2,1
		c-0.4,0.2-0.7,0.3-1.1,0.5c-0.5,0.2-1,0.4-1.5,0.7c-0.2-0.1-0.4-0.2-0.6-0.3c-0.1,0-0.1-0.1-0.2-0.1c-4.3-2.1-7.8-5.2-10.4-9.3
		c0-0.1,0-0.2,0-0.3c0-0.1,0-0.2,0-0.3c0-0.9,0.1-1.8,0.1-2.8c0-0.4,0.1-0.8,0.1-1.2c0.1-1.3,0.2-2.7,0.3-4c0-0.3,0.1-0.6,0.1-0.9
		c1-9.2,3.1-18,6.1-26.5c0.1-0.2,0.1-0.4,0.2-0.6c0.4-1.1,0.8-2.2,1.3-3.3C20.8,56.5,41,33.6,65.3,17.1c9.4-6.4,19.4-11.6,30.2-15.1
		c2.4,12.2,19.7,15.9,30.1,15c11.2-0.9,21.4-6.7,28.7-15.1c0.1-0.1,0.1-0.1,0.2-0.2c0,0,0.1-0.1,0.1-0.1c20,6.4,37.8,18.5,53,33
		c15.5,14.8,28.2,32.7,35.4,53c0,0.1,0,0.1,0.1,0.2c0.4,1.2,0.8,2.5,1.2,3.7c0.1,0.4,0.2,0.8,0.3,1.2c0.3,0.9,0.5,1.8,0.8,2.7
		c0.1,0.4,0.2,0.8,0.3,1.2c0.3,1.2,0.6,2.4,0.9,3.6c0.1,0.3,0.1,0.7,0.2,1c0.2,0.9,0.4,1.8,0.6,2.7c0.1,0.5,0.2,1.1,0.3,1.6
		c0.1,0.7,0.2,1.5,0.4,2.2c0.1,0.6,0.2,1.1,0.3,1.7c0.2,1.6,0.4,3.3,0.6,5c0.1,1.3,0.2,2.6,0.3,3.9c0,0.6,0.1,1.3,0.1,1.9
		c0,0.6,0.1,1.1,0.1,1.7c0,0.3,0,0.5,0,0.8c0,0.2,0,0.4,0,0.6c-2.7,4.2-6.4,7.4-11,9.6C238.3,132.8,238.2,132.9,238.1,132.9z
		 M248.3,130.6c-1.6,1.6-3.5,3.1-5.6,4c-1.5,0.7-2.8,0.1-3.8-1.1c-0.1-0.1-0.2-0.2-0.3-0.3c0,0,0,0,0-0.1c4.4-1.9,8.2-5.2,10.8-9.2
		c0.1-0.2,0.3-0.4,0.4-0.6c0,0,0,0,0,0c0.4,0,0.8,1.4,0.9,1.7C251.3,127.1,249.8,129.1,248.3,130.6z"/>
	<path class="st4" d="M125.6,42.1c-27.1,0-49.2,22.1-49.2,49.2s22.1,49.2,49.2,49.2s49.2-22.1,49.2-49.2S152.8,42.1,125.6,42.1z
		 M125.6,139.6c-26.6,0-48.2-21.6-48.2-48.2c0-26.6,21.6-48.2,48.2-48.2s48.2,21.6,48.2,48.2C173.9,117.9,152.2,139.6,125.6,139.6z"
		/>
</g>
</svg>
