<?xml version="1.0" encoding="utf-8"?>
<!-- Generator: Adobe Illustrator 23.0.4, SVG Export Plug-In . SVG Version: 6.00 Build 0)  -->
<svg version="1.1" id="Fall2" xmlns="http://www.w3.org/2000/svg" xmlns:xlink="http://www.w3.org/1999/xlink" x="0px" y="0px"
	 viewBox="0 0 137.2 201.3" style="enable-background:new 0 0 137.2 201.3;" xml:space="preserve">
<style type="text/css">
	#Fall2 .st0{fill:none;}
	#Fall2 .st1{fill:#F8ECC9;}
	#Fall2 .st2{fill:#DB7A3B;}
	#Fall2 .st3{fill:#D8C396;}
	#Fall2 .st4{fill:#EAD9AF;}
	#Fall2 .st5{fill:#493217;}
</style>
<g>
	<circle class="st0" cx="68.7" cy="131.3" r="39.8"/>
	<path class="st1" d="M123.3,19.8c-1.1,1.9-3.6,3.1-5.9,4.1c-0.1,0-0.1,0.1-0.2,0.1c-0.9,0.4-1.7,0.7-2.4,1.1
		c-10.2,4.9-21.1,8.2-32.3,9.7c-12.1,1.6-24.2,0.7-36.3-0.4c-11.1-1-22.3-2.3-32.6-7c-2.7,3.2-5.1,6.5-7.5,10
		c-0.3,0.5-0.6,0.9-1,1.4c-0.8,1.2-1.6,2.4-2.4,3.6c-0.9,1.4-2.3,2.5-0.6,3.4c2.4,1.3,5.9,1.7,8.8,2.2c0.1,0,0.2,0,0.4,0.1
		c0.3,0.1,0.7,0.1,1,0.2c25.2,5.4,51.3,6.8,77,4c12-1.3,24.5-3.1,35.6-8c2.6-1.1,5.1-2.5,7.5-4c1.2-0.7,3.8-2.1,3.7-3.8
		c-0.1-0.9-1.5-2.7-2-3.4C131,28.2,127.2,23.9,123.3,19.8z"/>
	<path class="st1" d="M13.9,26.3c0.1,0.1,0.1,0.2,0.2,0.3c1.5,2.1,5.9,2.9,8.2,3.5c3,0.8,6,1.5,9,2c11.7,2,24.1,3.1,36,3.2
		c11.7,0.1,23.4-1.7,34.5-5.4c5.3-1.7,10.5-3.9,15.4-6.5c0,0,0.1,0,0.1-0.1c0.5-0.3,1-0.5,1.5-0.8c1.7-0.9,3.3-1.6,4.1-3.2
		c0-0.1,0.1-0.1,0.1-0.2c0.2-0.4,0.3-0.8,0.4-1.3c0.2-1.3-0.2-2.8-0.5-4c-0.5-2.5-1.4-4.9-2.5-7.1c0,0,0,0.1,0,0.1
		c0.2,2.2-2.4,3.5-4.1,4.3c-1.3,0.6-2.7,1.1-4.1,1.5c-2.4,0.8-4.9,1.5-7.2,2.2c-7.6,2.1-15.4,3.5-23.3,4.3
		c-16.6,1.7-33.4,0.6-49.8-2.3c-4-0.7-8.3-1.2-12.1-2.6c-1.5-0.5-3.2-1.3-4-2.8c-0.2-0.5-0.4-1-0.4-1.4c-0.7,2.6-1.2,5.2-1.5,7.8
		c-0.2,2.1-1,6.1-0.3,8.1C13.8,26.1,13.8,26.2,13.9,26.3z"/>
	<path class="st2" d="M11.7,80.3c0.1,1.7,0.2,3.4,0.3,5.1c0.9,0.6,2,0.8,3.1,1.1c2.8,0.6,5.8,0.9,8.7,1.2c4.9,0.5,9.9,0.7,14.9,0.9
		c10,0.4,20,0.8,30.1,0.9c10.2,0,20.4-0.3,30.6-1.4c3.6-0.4,7.2-0.9,10.8-1.5c1.7-0.3,3.4-0.6,5.1-1c0,0,0,0,0.1,0
		c2.6-0.5,5.4-1,7.8-2.2c0.9-0.5,1.7-1.1,2.4-1.8c0.4-9.9,0.7-19.9,0.7-29.9c0-2.5,0-5,0-7.4c-5.4,2.5-11.2,4.3-17.2,5.6
		C97.5,52.2,85.7,53.5,74,54c-21,0.9-42.1-0.9-62.7-5.4c0,0.8,0,1.5,0,2.3c-0.1,9.1,0,18.3,0.3,27.4c0,0.2,0,0.3,0,0.5
		C11.7,79.3,11.7,79.8,11.7,80.3z"/>
	<path class="st3" d="M19.9,14c1.8,0.6,3.7,1,5.7,1.4C38.2,8.6,54,8.4,68,7.9c12.9-0.5,26.7-1.2,39.4,1.8c2.2,0.5,4.3,1.1,6.4,1.8
		c1.8-0.5,4-0.7,5-2.5c0.9-1.6,0.5-3.8-1-4.8c-0.7-0.5-1.5-0.7-2.4-0.9c-7.4-1.7-15-2.2-22.6-2.6c-9.8-0.5-19.6-0.5-29.4,0
		C55.5,1.2,47.7,2,39.9,3c-3.9,0.5-7.8,1.1-11.6,1.8c-1.9,0.3-3.9,0.7-5.8,1C21,6,19.3,6,17.9,6.9c-0.4,0.2-0.8,0.5-1.1,0.9
		C14.7,10.2,17.7,13.2,19.9,14z"/>
	<path class="st4" d="M69.2,8.2C54.8,8.7,39.2,9,25.9,15.4c1.3,0.2,2.6,0.4,3.8,0.7c7.8,1.4,15.7,2.4,23.6,2.9
		c13.6,0.8,27.3,0.2,40.7-2.2c6-1.1,11.9-2.6,17.7-4.5c0.4-0.1,0.8-0.2,1.1-0.4c0.1,0,0.2-0.1,0.4-0.1c-1.3-0.4-2.6-0.8-3.9-1.1
		C96.4,7.2,82.3,7.7,69.2,8.2z M44.3,16.2c-0.7,0.5-2,0.9-2.8,0.8c-0.5,0-5.3-1.1-5.2-1.3c0.3-0.5,0.8-0.9,1.2-1.2
		c1.8-1,4.1-0.9,5.9,0C44.3,15,45.3,15.4,44.3,16.2z"/>
	<path class="st1" d="M124.8,82.8c-2.6,2-6.3,2.9-9.8,3.5c-1.7,0.3-3.3,0.5-4.8,0.7c-0.2,0-0.3,0-0.5,0.1c-22,3.8-44.6,3.2-66.8,2.2
		c-5.6-0.2-11.2-0.4-16.8-0.9c-4.3-0.4-9.4-0.5-13.4-2.2c-0.3-0.1-0.6-0.3-0.9-0.4c-0.4-0.2-0.7-0.4-1.1-0.7c-1-0.8-1.7-1.8-1.8-3
		C8,87.7,8.6,94,9.2,99.6c0.9,8.5,2.1,17,3.6,25.4c1.1,6.4,2.3,12.9,3.6,19.3c0.8,4.1,1.6,8.2,2.4,12.3c0.5,2.7,1,5.3,1.6,8
		c0.2,0.1,0.3,0.2,0.5,0.3c14.4,8.4,33.3,7.5,49.4,7.5c15.9,0.1,31.5-1.3,46.2-6.8c0.3-0.1,0.6-0.3,0.9-0.4c0.3-1.4,0.6-2.7,0.9-4.1
		c2.7-12.3,4.9-24.6,6.4-37.1c1.7-14.8,2.3-29.6,2.4-44.4c-0.2,0.5-0.4,1-0.8,1.5c-0.3,0.4-0.6,0.8-1,1.2
		C125.2,82.5,125,82.6,124.8,82.8z M68.7,171.9c-22.3,0-40.5-18.2-40.5-40.5s18.2-40.5,40.5-40.5s40.5,18.2,40.5,40.5
		S91.1,171.9,68.7,171.9z"/>
	<path class="st2" d="M69.7,172.8c-9.9-0.1-20-0.2-29.9-1.5c-6.6-0.9-13.2-2.6-18.9-6c0.3,1.5,0.5,3.1,0.8,4.6
		c0.4,2.5,0.9,4.9,1.3,7.4c1,5.3,1.5,10.8,3.6,15.9c0.9,2.4,2.2,4.8,4.4,6.3c2.3,1.6,5.7,0.9,8.3,0.6c3.1-0.3,6.2-0.7,9.3-0.7
		c6.7-0.1,13.4,0.4,20.1,0.5c9.3,0.1,18.5,0,27.7,0.5c2,0.1,4,0.2,5.9,0.4c5.2-0.4,8.4-6.1,9.6-11c1.4-5.5,2.2-11.2,3.2-16.8
		c0.1-0.8,0.3-1.5,0.4-2.3c0.2-1.4,0.5-2.8,0.7-4.2C101.6,172,85.2,173,69.7,172.8z"/>
	<path class="st5" d="M137.1,37.1c-3.5-6.7-8.5-12.1-13.7-17.5c0.2-0.3,0.3-0.6,0.4-1c0.5-2.4,0.1-5-0.7-7.4
		c-0.7-2.3-1.4-5.2-3.7-6.6c-4.2-2.5-9.5-2.8-14.2-3.3C96.1,0.5,87.1,0.1,78,0C62.7-0.1,47.3,1.2,32.1,3.7c-2.6,0.4-5.2,0.9-7.8,1.4
		c-1.3,0.2-2.6,0.5-3.9,0.8c-1.5,0.3-3.5,1-4.5,2.3c-0.2,0.3-0.3,0.6-0.4,0.9c0,0,0,0.1,0,0.1c-1.7,5.7-2.4,11.6-2.1,17.6
		c-2.8,3.2-5.4,6.6-7.8,10.1c-1.9,2.8-3.8,5.6-5.6,8.4c-0.1,0.2,0,0.4,0.2,0.5c3.6,1,7.1,1.8,10.7,2.6c0,0.7,0,1.4-0.1,2.1
		c-0.3,9.3-0.4,18.7-0.2,28.1c0,0.4-0.5,0.6-0.8,0.9c-0.4,0.5-0.5,0.8-0.7,1.4c0,0,0,0.1,0,0.1c-1.5,5.6-0.9,11.9-0.4,17.5
		c0.7,8.2,1.9,16.4,3.3,24.5c1.6,10.1,3.7,20.1,5.6,30.2c0.2,1.1,0.4,2.1,0.5,3.2c0.4,2.6,0.8,5.1,1.3,7.7c0,0.1,0,0.2,0.1,0.4
		c0.3,1.6,0.6,3.2,0.9,4.8c0.9,5,1.9,10.1,2.9,15.1c0.9,4.1,1.9,8.4,4.2,12c1.8,2.8,4.3,4.7,7.7,4.6c4.6-0.2,9.1-0.5,13.7-0.5
		c8.7-0.1,17.5,0,26.2,0.1c4.1,0.1,8.2,0.2,12.3,0.3c2.5,0.1,5-0.1,7.5-0.1c0.9,0,1.8,0,2.7,0.1c2.8,0.1,5.3,0.8,7.8-0.6
		c4.3-2.3,6.5-7.6,7.5-12.1c1.4-6.1,2.8-12.2,4.1-18.4c3.1-14.8,5.8-29.7,7.6-44.7c1.8-15.3,2.9-30.9,2.5-46.4
		c0.3-1.4,0.1-2.9-0.8-4.2c0.2-7.8,0.2-15.5,0-23.3c-0.1-2.4-0.2-4.9-0.3-7.3c3.8-1.8,7.5-4,10.8-6.7
		C137.2,37.4,137.2,37.2,137.1,37.1z M16.8,7.8c0.3-0.4,0.7-0.7,1.1-0.9C19.3,6,21,6,22.5,5.8c1.9-0.3,3.9-0.7,5.8-1
		c3.9-0.7,7.7-1.2,11.6-1.8c7.8-1,15.6-1.7,23.4-2.2c9.8-0.5,19.6-0.5,29.4,0c7.6,0.4,15.2,0.9,22.6,2.6c0.9,0.2,1.6,0.4,2.4,0.9
		c1.5,1,1.9,3.2,1,4.8c-1,1.8-3.2,2-5,2.5c-2.1-0.7-4.2-1.3-6.4-1.8C94.6,6.7,80.8,7.4,68,7.9c-14,0.5-29.7,0.8-42.4,7.5
		c-1.9-0.3-3.8-0.7-5.7-1.4C17.7,13.2,14.7,10.2,16.8,7.8z M113.2,11.7c-0.1,0-0.3,0.1-0.4,0.1c-0.4,0.1-0.8,0.2-1.1,0.4
		c-5.8,1.9-11.7,3.4-17.7,4.5c-13.4,2.5-27.1,3.1-40.7,2.2c-7.9-0.5-15.8-1.5-23.6-2.9c-1.3-0.2-2.5-0.4-3.8-0.7
		C39.2,9,54.8,8.7,69.2,8.2c13.1-0.5,27.2-1,40,2.4C110.6,10.9,111.9,11.3,113.2,11.7z M14,17.8c0.3-2.7,0.8-5.2,1.5-7.8
		c0,0.4,0.2,0.9,0.4,1.4c0.7,1.5,2.5,2.3,4,2.8c3.8,1.3,8.1,1.9,12.1,2.6c16.4,2.9,33.2,4,49.8,2.3c7.9-0.8,15.7-2.2,23.3-4.3
		c2.4-0.7,4.8-1.3,7.2-2.2c1.4-0.5,2.8-1,4.1-1.5c1.7-0.7,4.2-2.1,4.1-4.3c0,0,0-0.1,0-0.1c1.1,2.3,2,4.6,2.5,7.1
		c0.2,1.2,0.7,2.7,0.5,4c-0.1,0.5-0.3,0.9-0.4,1.3c0,0.1-0.1,0.1-0.1,0.2c-0.9,1.6-2.5,2.3-4.1,3.2c-0.5,0.3-1,0.5-1.5,0.8
		c0,0-0.1,0-0.1,0.1c-5,2.6-10.1,4.8-15.4,6.5c-11.1,3.7-22.8,5.5-34.5,5.4c-11.9-0.1-24.2-1.2-36-3.2c-3-0.5-6-1.2-9-2
		c-2.2-0.6-6.6-1.4-8.2-3.5c-0.1-0.1-0.1-0.2-0.2-0.3c-0.1-0.1-0.1-0.2-0.2-0.4C13,23.9,13.8,20,14,17.8z M115.6,170.6
		c-0.1,0.8-0.3,1.5-0.4,2.3c-1,5.6-1.9,11.3-3.2,16.8c-1.2,4.9-4.4,10.6-9.6,11c-2-0.2-4-0.3-5.9-0.4c-9.2-0.5-18.5-0.4-27.7-0.5
		c-6.7-0.1-13.4-0.6-20.1-0.5c-3.1,0-6.2,0.5-9.3,0.7c-2.6,0.3-6,1-8.3-0.6c-2.1-1.5-3.4-4-4.4-6.3c-2-5.1-2.6-10.5-3.6-15.9
		c-0.5-2.5-0.9-4.9-1.3-7.4c-0.3-1.5-0.6-3.1-0.8-4.6c5.7,3.4,12.3,5.1,18.9,6c9.8,1.3,20,1.4,29.9,1.5c15.5,0.1,31.9-0.9,46.6-6.4
		C116.1,167.8,115.8,169.2,115.6,170.6z M126.4,81.1c0.3-0.5,0.6-1,0.8-1.5c-0.2,14.9-0.7,29.6-2.4,44.4
		c-1.5,12.5-3.7,24.8-6.4,37.1c-0.3,1.4-0.6,2.7-0.9,4.1c-0.3,0.1-0.6,0.3-0.9,0.4c-14.7,5.5-30.3,6.9-46.2,6.8
		c-16.1-0.1-35,0.8-49.4-7.5c-0.2-0.1-0.3-0.2-0.5-0.3c-0.5-2.7-1-5.3-1.6-8c-0.8-4.1-1.6-8.2-2.4-12.3c-1.3-6.4-2.5-12.8-3.6-19.3
		c-1.4-8.4-2.7-16.9-3.6-25.4C8.6,94,8,87.7,9.2,82c0.1,1.2,0.8,2.3,1.8,3c0.3,0.3,0.7,0.5,1.1,0.7c0.3,0.2,0.6,0.3,0.9,0.4
		c4,1.7,9.1,1.8,13.4,2.2c5.6,0.5,11.2,0.7,16.8,0.9c22.3,1,44.8,1.6,66.8-2.2c0.2,0,0.3,0,0.5-0.1c1.5-0.2,3.1-0.5,4.8-0.7
		c3.5-0.6,7.2-1.5,9.8-3.5c0.2-0.1,0.3-0.3,0.5-0.4C125.7,81.9,126.1,81.6,126.4,81.1z M11.3,50.9c0-0.8,0-1.5,0-2.3
		C31.9,53.1,53,54.9,74,54c11.7-0.5,23.4-1.7,34.9-4.2c5.9-1.3,11.7-3,17.2-5.6c0,2.5,0,5,0,7.4c0,10-0.2,19.9-0.7,29.9
		c-0.7,0.7-1.5,1.4-2.4,1.8c-2.4,1.2-5.2,1.6-7.8,2.2c0,0,0,0-0.1,0c-1.7,0.4-3.4,0.7-5.1,1c-3.6,0.6-7.2,1.1-10.8,1.5
		c-10.1,1.1-20.4,1.5-30.6,1.4c-10,0-20.1-0.5-30.1-0.9c-5-0.2-9.9-0.4-14.9-0.9c-2.9-0.3-5.8-0.6-8.7-1.2C14,86.3,12.9,86,12,85.4
		c-0.1-1.7-0.2-3.4-0.3-5.1c0-0.5,0-1,0-1.5c0-0.2,0-0.3,0-0.5C11.3,69.2,11.3,60,11.3,50.9z M132.5,40.1c-2.4,1.5-4.9,2.9-7.5,4
		c-11.1,4.9-23.6,6.7-35.6,8c-25.7,2.8-51.8,1.4-77-4c-0.3-0.1-0.7-0.1-1-0.2c-0.1,0-0.2,0-0.4-0.1c-2.9-0.5-6.4-0.9-8.8-2.2
		c-1.7-0.9-0.3-2.1,0.6-3.4c0.8-1.2,1.6-2.4,2.4-3.6c0.3-0.5,0.6-0.9,1-1.4c2.3-3.4,4.8-6.8,7.5-10c10.3,4.7,21.5,6,32.6,7
		c12.1,1.1,24.2,2.1,36.3,0.4c11.2-1.5,22.1-4.8,32.3-9.7c0.7-0.3,1.5-0.7,2.4-1.1c0.1,0,0.1-0.1,0.2-0.1c2.3-1,4.8-2.2,5.9-4.1
		c3.9,4.1,7.7,8.4,10.8,13.1c0.5,0.7,2,2.5,2,3.4C136.2,38,133.6,39.4,132.5,40.1z"/>
	<path class="st5" d="M43.4,14.6c-1.8-0.9-4.1-1-5.9,0c-0.5,0.3-1,0.7-1.2,1.2c-0.1,0.1,4.8,1.2,5.2,1.3c0.8,0.1,2.1-0.3,2.8-0.8
		C45.3,15.4,44.3,15,43.4,14.6z"/>
	<path class="st5" d="M68.7,90.8c-22.3,0-40.5,18.2-40.5,40.5s18.2,40.5,40.5,40.5s40.5-18.2,40.5-40.5S91.1,90.8,68.7,90.8z
		 M68.7,171.1c-21.9,0-39.8-17.8-39.8-39.8s17.8-39.8,39.8-39.8s39.8,17.8,39.8,39.8S90.7,171.1,68.7,171.1z"/>
</g>
</svg>
