<?xml version="1.0" encoding="utf-8"?>
<!-- Generator: Adobe Illustrator 23.0.4, SVG Export Plug-In . SVG Version: 6.00 Build 0)  -->
<svg version="1.1" id="Halloween4" xmlns="http://www.w3.org/2000/svg" xmlns:xlink="http://www.w3.org/1999/xlink" x="0px" y="0px"
	 viewBox="0 0 266.3 322.3" style="enable-background:new 0 0 266.3 322.3;" xml:space="preserve">
<style type="text/css">
	#Halloween4 .st0{fill:none;}
	#Halloween4 .st1{fill:#333232;}
	#Halloween4 .st2{fill:#FFFFFF;}
</style>
<g>
	<path class="st0" d="M186.6,115.4c-1.7,1.9-3.5,3.8-5.3,5.6c-5.8,5.9-12.1,11.4-18.7,16.4c-3,2.3-6,4.5-9,6.8
		c-3.5,2.8-7.3,5.1-11,7.6c-7.2,4.8-14.6,9.3-22.2,13.3c-6.3,3.2-12.8,6.4-19.5,8.9c-6.8,2.6-13.9,4.1-21,5.5
		c-3.9,0.7-7.8,1.4-11.7,1.5c-2.3,0.1-4.6,0-6.9-0.1c-3.7,10.6-5.7,22-5.7,33.8c0,56.9,46.3,103.2,103.2,103.2
		s103.2-46.3,103.2-103.2C261.9,167.5,230,127.6,186.6,115.4z"/>
	<path class="st1" d="M190,111.7c3-3.3,5.8-6.8,8.7-10.2c3.2-3.9,6.2-7.9,9.2-12c2.9-3.9,5.6-8,8-12.2c2.4-4.2,4.8-8.3,7.1-12.6
		c0.6-1.2,5.1-10.6,1.9-10.6c-1,0-1.8,1.3-2.4,1.9c-0.7,0.8-1.4,1.7-2.2,2.4c-1.7,1.8-3.5,3.1-5.5,4.5c-3.9,2.9-7.9,5.6-12.1,8
		c-8.6,5-17.4,9.6-26,14.4c-2.6,1.4-5.3,2.8-8.1,3.9c-1.9,0.7-3.8,1.2-5.6,2c-0.5,0.2-1.1,0.4-1.6,0.6c-0.4,0.1-0.8,0.3-1.1,0.4
		c-0.2,0.1-0.4,0.1-0.6,0.2c-0.6,0.2-0.4,0.3-0.9-0.2c-0.5-0.5-0.8-1.5-1.2-2c-0.7-1-1.4-2-2-3c-1.4-2.1-2.7-4.4-4.4-6.2
		c-0.9-0.9-1.8-1.8-2.6-2.8c-0.8-1.1-1.2-2.3-2-3.5c-1.4-2.2-3.3-2.6-5.7-1.8c-0.2,0.1-0.4,0.2-0.6,0.2c-0.7,0.1-0.2,0.2-0.7-0.3
		c-0.4-0.3-0.6-1-0.9-1.4c-0.7-1-1.4-1.9-2-2.9c-2.3-3.5-4.1-7.4-6.2-11c-1.9-3.3-3.7-6.6-5.3-10.1c-2-4.1-4.2-8.1-6.2-12.2
		c-0.8-1.7-1.7-3.3-2.5-5.1c-1-2.2-1.8-4.4-2.7-6.6c-0.8-1.8-1.6-3.5-2.6-5.1c-1.2-1.9-2.5-2.5-4.8-2.6c-4.9-0.1-9.8,0.3-14.8,0.6
		c-4.9,0.2-9.6,0.3-14.5,0c0,0,0.1,0,0.1,0c-5.2-0.4-10.5-1.2-15.7-2.1c-5.4-0.9-11-0.9-16.4-2c-2.9-0.6-5.8-1.2-8.7-1.4
		c-1.4-0.1-2.8-0.2-4.1-0.4c-5.3-0.8-10.3-2-15.2-4c-2.9-1.2-5.6-2.7-8.5-3.9C7.4,2,5.9,1.5,4.5,1.2C3.7,1,3,0.8,2.2,0.5
		C1.7,0.3,1-0.1,0.4,0c-1.5,0.4,1.7,2.9,2.3,3.3c1.9,1.5,4.1,2.8,5.8,4.5c2.2,2.1,4.2,4.4,6.5,6.5c1.8,1.6,3.3,3.2,4.6,5.2
		c1.4,2.1,2.6,4.3,4,6.4c2.1,2.9,4.7,5.5,6.5,8.6c0.4,0.7,0.8,1.9,1.7,1.9c0.8,0,1.7-1.1,2.4-1.5c1.5-0.9,3.2-1.4,4.6-2.5
		c-0.5,1.9-1.8,3-3,4.5c-0.9,1.1-1.6,2.6-0.8,3.9c1,1.6,2.7,3,4.1,4.4c1.3,1.4,2.5,2.6,3.6,4c4.8,6,9.1,12.3,12.4,19.3
		c2.8,6,5,12.4,6.1,19c0.2,1.5,0.4,2.9,0.6,4.4c0.2,1.1,0.3,2.3,0.4,3.5c0.1,0.5,0.1,1,0.1,1.6c0,0.5,0.3,1.7,0.1,2.2
		c-0.2,0.4-1.7,0.7-2.1,0.9c-0.9,0.5-1.4,1.1-1.5,2.1c-0.2,1.8,0,3.7,0.1,5.5c0.3,4.7,0.2,9.4-0.1,14c-0.1,2.2-0.2,4.4-0.8,6.6
		c-0.2,0.8-0.9,2.3,0.4,2.5c0.7,0.1,1.4-0.4,2-0.4c0.9-0.2,1.7-0.2,2.6-0.2c-1.1,1.9-2.2,3.8-3.4,5.6c-1.5,2.3-3.4,4.2-5.2,6.2
		c-2.9,3.2-6.1,6.1-9.2,9.1c-2.9,2.8-5.9,5.5-9.2,7.9c-2.4,1.8-4.8,3.7-7.3,5.5c-1.9,1.3-4.2,2.3-5.9,3.9c-3.7,3.3,2.2,5.7,4.6,6.8
		c3.6,1.7,7.4,3.1,11.2,4.1c5.8,1.4,11.9,1.4,17.9,1.6c-3.6,10.7-5.5,22.1-5.5,34c0,59.3,48.3,107.6,107.6,107.6
		S266.3,274,266.3,214.7C266.3,166.2,234.1,125.1,190,111.7z M86.8,96.2c0.1-1.5,2.9-2,4.1-2.4c1.1-0.4,2.4-1.1,3.5-1.3
		c0.1,0,0.2-0.1,0.3-0.1c4.1-1.7,8.2-3.4,12.3-5.2c1.8-0.8,3.6-1.9,5.4-2.6c0.9-0.3,1.2-0.1,1.6,0.7c0.5,1,0.9,2,1.4,3
		c1.6,3.5,2.6,7.1,4.2,10.6c0.9,2,1.8,3.9,2.9,5.8c0.4,0.7,0.9,1.5,1.3,2.3c0.3,0.5,1,1.6,1,2.2c-0.1,1.2-2.8,2-3.8,2.4
		c-1.8,0.8-3.5,1.8-5.2,2.6c-3.7,1.8-7.2,3.8-10.8,5.5c-1.7,0.8-3.5,1.5-5.3,2.2c-0.6,0.2-1.3,0.6-1.9,0.3c-0.7-0.5-1.2-1.9-1.5-2.7
		c-1.8-3.8-3.1-7.8-5-11.6c-1-2-2-4.1-2.9-6.3C87.7,100,86.6,98,86.8,96.2z M158.7,317.8c-56.9,0-103.2-46.3-103.2-103.2
		c0-11.8,2-23.2,5.7-33.8c2.3,0.1,4.6,0.2,6.9,0.1c3.9-0.1,7.8-0.8,11.7-1.5c7.1-1.4,14.2-2.9,21-5.5c6.6-2.5,13.2-5.6,19.5-8.9
		c7.7-3.9,15.1-8.5,22.2-13.3c3.7-2.5,7.5-4.9,11-7.6c3-2.3,6-4.6,9-6.8c6.6-5,12.9-10.5,18.7-16.4c1.8-1.8,3.6-3.7,5.3-5.6
		c43.4,12.2,75.2,52.1,75.2,99.3C261.9,271.5,215.6,317.8,158.7,317.8z"/>
	<path class="st2" d="M91.2,107.9c1.9,3.8,3.3,7.8,5,11.6c0.3,0.7,0.8,2.2,1.5,2.7c0.6,0.4,1.3,0,1.9-0.3c1.8-0.7,3.5-1.4,5.3-2.2
		c3.7-1.7,7.2-3.8,10.8-5.5c1.8-0.8,3.4-1.8,5.2-2.6c1-0.5,3.7-1.2,3.8-2.4c0.1-0.6-0.7-1.7-1-2.2c-0.4-0.8-0.8-1.5-1.3-2.3
		c-1.1-1.9-2-3.8-2.9-5.8c-1.6-3.5-2.6-7.1-4.2-10.6c-0.5-1-0.9-2-1.4-3c-0.4-0.8-0.7-1-1.6-0.7c-1.9,0.7-3.6,1.8-5.4,2.6
		c-4.1,1.8-8.2,3.5-12.3,5.2c-0.1,0-0.2,0.1-0.3,0.1c-1.1,0.3-2.4,0.9-3.5,1.3c-1.2,0.5-3.9,0.9-4.1,2.4c-0.2,1.8,0.9,3.8,1.6,5.4
		C89.2,103.8,90.2,105.9,91.2,107.9z M102.1,94c1.6-0.7,3.3-1.3,4.9-2c1.4-0.6,2.7-1.7,4.1-2.2c0.5-0.1,1.8,3.4,1.9,3.8
		c0.7,1.5,1.2,3.2,1.8,4.7c0.7,1.7,1.4,3.5,2.2,5.2c0.3,0.8,0.7,1.5,1,2.3c0.1,0.2,0.7,1.1,0.6,1.4c-0.2,0.4-1.9,1.1-2.3,1.3
		c-0.7,0.4-1.4,0.8-2.2,1.2c-1.7,0.9-3.5,1.6-5.3,2.5c-2.6,1.3-4.9,3.2-7.6,4.5c-1-2-1.6-4.3-2.5-6.3c-0.8-1.8-1.7-3.5-2.6-5.2
		c-1.2-2.3-2.4-4.8-3.9-6.9C95.5,96.6,98.8,95.3,102.1,94z"/>
	<path class="st1" d="M98.8,110.2c0.9,2.1,1.5,4.3,2.5,6.3c2.7-1.2,5-3.1,7.6-4.5c1.7-0.9,3.6-1.6,5.3-2.5c0.7-0.4,1.5-0.8,2.2-1.2
		c0.4-0.2,2.1-0.9,2.3-1.3c0.1-0.2-0.5-1.1-0.6-1.4c-0.3-0.8-0.7-1.5-1-2.3c-0.8-1.7-1.4-3.5-2.2-5.2c-0.7-1.5-1.2-3.2-1.8-4.7
		c-0.2-0.4-1.5-3.9-1.9-3.8c-1.4,0.5-2.7,1.6-4.1,2.2c-1.6,0.7-3.2,1.4-4.9,2c-3.3,1.3-6.5,2.6-9.7,4.2c1.4,2,2.7,4.6,3.9,6.9
		C97.1,106.7,98,108.4,98.8,110.2z"/>
</g>
</svg>
