<?xml version="1.0" encoding="utf-8"?>
<!-- Generator: Adobe Illustrator 23.0.4, SVG Export Plug-In . SVG Version: 6.00 Build 0)  -->
<svg version="1.1" id="Halloween1" xmlns="http://www.w3.org/2000/svg" xmlns:xlink="http://www.w3.org/1999/xlink" x="0px" y="0px"
	 viewBox="0 0 156.8 229" style="enable-background:new 0 0 156.8 229;" xml:space="preserve">
<style type="text/css">
	#Halloween1 .st0{fill:#333232;}
</style>
<g>
	<path class="st0" d="M54.7,41.5c1.8,0,3.6,0.7,5.1,1.1c2.7,0.7,5.4,3.7,6.1,6.4c5-2.8,10.9-5.1,16.7-4.9c4.7,0.2,8.6,2.2,11.9,5.5
		c1.7-3.4,3.6-5.6,6.5-8c-0.5-0.5-1.1-0.9-1.6-1.4c-1.5-1.6-3.4-2.7-5.2-3.8c-0.9-0.5-4.2-2.8-5.2-2.5c0.5-0.2,1.3-2.8,1.7-3.3
		c0.2-0.4,0.4-0.8,0.6-1.1c1.2-2.1,2.4-3.9,4-5.6c3.3-3.6,7.3-6.2,11.5-8.7c3.6-2.1,7.1-3.9,10.8-5.3c0.9-0.4,1.8-0.7,2.8-1
		c0.1,0,1.8-0.1,2-0.3c0.5-0.7-0.2-2.6-0.3-3.5c0-0.1-0.4-1.8-0.5-2.4c-0.1-0.6-0.3-1.1-0.5-1.7c-0.4-1.3,0.1-0.8-1.1-1
		c-1.3-0.2-3.1,0.3-4.4,0.5c-3.7,0.5-8.3,1.4-11.4,2.9c0,0-0.1,0-0.1,0.1c-1.6,0.5-3.3,1.5-4.9,2.2c-3.6,1.4-8.3,4.9-11.5,7.9
		c-3.9,3.7-7.2,7.7-10.1,12.3c-1.4,2.2-2.7,4.3-4,6.5c-1.5,2.6-4.7,3.2-7.5,3.6c-3.3,0.5-5.7,1-8.2,3.3
		C56.8,40.1,55.7,40.7,54.7,41.5z"/>
	<path class="st0" d="M156.7,98.1c-0.2-6.4-1.1-12.8-2.3-19.1c-1.2-6.8-3.1-13.5-6.5-19.6c-2.7-4.8-5.7-9.4-9.8-13.2
		c-2.7-2.5-5.5-4.9-8.4-7.1c-3.2-2.4-6.5-3.8-10.2-5.2c-7.3-2.8-16.7-3.1-22.9,2.5c1.4,0.9,2.7,2,3.9,3.1c0.3,0.3,0.8,1,1.3,1.2
		c0.8,0.2,2-0.9,2.9-1.4c4.5-2.2,8.4-2.1,12.7,0.3c9,5,13,15.2,17.1,24.1c4.5,9.8,6.8,20.3,8,31c0.7,5.6,0.7,11.2,0.9,16.8
		c0.2,5.5,0.5,11.1,0.5,16.6c-0.1,11.8,1.1,23.6,0.4,35.3c0.8-2.8,2.5-5.2,3.7-7.9c1.4-3.1,2.8-6.1,4.1-9.2
		c2.1-5.3,2.7-10.6,3.2-16.2C156.4,119.5,157.1,108.8,156.7,98.1z"/>
	<path class="st0" d="M16.8,161.6c-0.2-7.1-0.2-14.1-0.8-21.2c-1-13.6-0.2-27,0.9-40.6c0.6-7.8,1.7-16,4.1-23.4
		c1.3-3.8,2.5-8.2,4.3-12.2c2.3-5.2,5.7-9.8,9.6-13.9c3.6-3.9,7.2-7.1,12.5-8.2c1.2-0.3,2.4-0.5,3.6-0.6c1.7-0.1,1.6,0,2.7-0.9
		c1.9-1.5,3.8-3.2,5.8-4.7c-6.1-4-14.2-6.5-21.4-4.6c-5.7,1.5-10.4,4.2-14.6,8.3c-4.3,4.3-6.9,9-9.6,14.4c-2.4,4.6-4.7,9.3-6.3,14.2
		c-4.4,12.9-5.9,26.6-6.9,40c-1,12.5-1.1,25.4,1.6,37.7c1,4.4,1.6,8.9,2.9,13.3c1,3.2,1.8,6.5,2.7,9.7c1,3.5,2.8,6.6,4.4,9.8
		c1.8,3.5,3.5,7.3,6.2,10.1c-0.1-2.1-0.2-4.2-0.3-6.3C18,175.7,17.1,168.7,16.8,161.6z"/>
	<path d="M122.8,45.1C122.8,45.2,123,45.4,122.8,45.1L122.8,45.1z"/>
	<path class="st0" d="M142.5,117.4c-0.4-12.7-0.3-25.6-3.7-37.9c-2.2-8-5.2-15.8-9.1-23.2c-2.2-4.1-4.1-8.4-7.4-11.7
		c-2.2-2.2-5.6-4.9-8.6-5.4c-3-0.5-5.9-0.2-8.6,1.3c-2.8,1.6-5.5,3.8-7.5,6.4c-0.6,0.8-2.2,2.9-1.9,4c0.1,0.6,1.3,1.7,1.7,2.2
		c0.6,0.9,0.8,1.4,1.2,2.1c2.3,3.7,3.5,7.3,4.5,11.5c0.5,2.1,0.8,4.3,1.1,6.4c20.8,9.7,35.2,30.7,35.2,55.1
		c0,25.5-15.7,47.2-37.9,56.3c-0.4,6.7-0.8,13.4-1.5,20.1c-0.2,1.7-0.4,3.5-0.6,5.2c-0.1,0.8-1,4.1-0.6,4.7c0.2,0.3,2.2,0.4,2.5,0.5
		c1.6,0.3,3,0.2,4.6,0c4.2-0.7,8.7-1.9,12-4.7c7.6-6.4,13.6-15.8,18.3-24.3c1.9-3.5,3.4-7.2,4.7-10.9c2.5-7.1,2.7-14.5,2.4-22
		C142.9,141.1,142.9,129.2,142.5,117.4z"/>
	<path class="st0" d="M45.1,192.9c-0.8-5.2-1.7-10.4-2.6-15.7c-15.1-11.1-24.9-28.9-24.9-49.1c0-22.4,12.2-42,30.2-52.5
		c1.2-3.3,2.5-6.5,4-9.6c1.5-3.2,3.2-6.4,5.5-9.2c1-1.3,2.1-2.4,3.3-3.5c1.1-1.1,2.6-2,3.6-3.1c0.7-0.8,0.5-0.8-0.2-1.9
		c-0.8-1.4-1.7-3-3.1-3.9c-1-0.6-2.6-1-3.6-1.2c-4.8-1.3-11.4-0.2-15.4,2.5c-5.5,3.7-10.3,9.9-13.6,15.5C25,66.9,23,73.6,21.4,79.9
		c-3.4,13.5-4.3,27.9-4.6,41.8c-0.1,6.1,0.1,12.4,0.5,18.5c0.5,7.2,0.5,14.4,0.8,21.6c0.3,6.9,1.1,13.7,1.4,20.6
		c0.1,2.8-0.2,6.1,0.6,8.9c0.5,2.1,1.7,4.3,2.9,6c5.5,8,11.9,14.4,21.9,15.9c1.9,0.3,3.8,0.5,5.7,0.5c-0.2-0.5-0.4-1-0.5-1.6
		C47.9,205.8,46.1,199.5,45.1,192.9z"/>
	<path d="M57.2,43.2C57.4,43.2,57.3,43.2,57.2,43.2L57.2,43.2z"/>
	<path class="st0" d="M100,185c-6.7,2.6-14,4-21.6,4c-12.8,0-24.7-4-34.5-10.7c0.1,0.9,0.3,1.8,0.4,2.6c1.1,6.8,1.9,13.7,3.6,20.4
		c0.8,3.3,2.3,8.1,3.7,11.9c1.1,2.8,3.3,5.1,5.5,7.1c2.6,2.3,5.4,4.2,8.6,5.7c4.8,2.2,10,3.8,15.4,2.9c5.2-0.9,9.4-3.8,12.7-7.8
		c1-1.2,2.1-2.6,2.9-4c0.9-1.8,0.9-4.2,1.1-6.1c0.8-5.6,1.3-11.3,1.6-17C99.7,190.9,99.9,188,100,185z"/>
	<path class="st0" d="M82.1,45.4c-5.4,0-11.3,2.1-15.8,4.9c-5.1,3.1-9.3,8.3-12,13.4c-1.8,3.5-3.5,7.2-4.9,11
		c8.6-4.7,18.5-7.3,28.9-7.3c8.6,0,16.9,1.8,24.3,5.1c-0.3-2.1-0.6-4.2-1.1-6.2c-0.4-1.7-0.9-3.6-1.5-5.4c-0.8-2.2-2.2-4.1-3.3-6.1
		c-0.9-1.8-3.1-4.2-5.1-5.7C88.6,46.7,86.1,45.4,82.1,45.4z"/>
</g>
</svg>
