<?xml version="1.0" encoding="utf-8"?>
<!-- Generator: Adobe Illustrator 23.0.4, SVG Export Plug-In . SVG Version: 6.00 Build 0)  -->
<svg version="1.1" id="Halloween3" xmlns="http://www.w3.org/2000/svg" xmlns:xlink="http://www.w3.org/1999/xlink" x="0px" y="0px"
	 viewBox="0 0 122 253.2" style="enable-background:new 0 0 122 253.2;" xml:space="preserve">
<style type="text/css">
	#Halloween3 .st0{fill:none;}
	#Halloween3 .st1{fill:#FDFDFD;}
	#Halloween3 .st2{fill:#E1922F;}
	#Halloween3 .st3{fill:#303030;}
	#Halloween3 .st4{fill:none;stroke:#303030;stroke-width:0;stroke-linecap:round;stroke-linejoin:round;}
</style>
<g>
	<path class="st0" d="M48.9,48c4.3-0.1,8.6-0.3,12.9-0.7c-1.2,0.1-2.3,0.2-3.5,0.3C55.2,47.8,52,48,48.9,48z"/>
	<path class="st0" d="M33,47.1c0.5,0.2,1,0.3,1.6,0.4c0.3,0,0.5,0.1,0.8,0.1c-0.5-0.1-0.9-0.2-1.4-0.3C33.7,47.2,33.3,47.1,33,47.1z
		"/>
	<path class="st0" d="M75.7,45.6c0.4-0.1,0.8-0.1,1.1-0.2c2.9-0.5,6.2-0.8,8.8-2.3c0.1-0.1,0.2-0.1,0.4-0.2c-2.4,1.4-5.3,1.8-8,2.3
		C77.2,45.4,76.4,45.5,75.7,45.6z"/>
	<path class="st0" d="M83.6,40.7C83.5,40.7,83.5,40.7,83.6,40.7c1-0.3,2.1-0.6,3.2-1.1c-0.3,0-0.7,0.1-1.1,0.2
		c-2.6,0.9-5.3,1.6-8,2.2c1.9-0.3,3.8-0.7,5.7-1.2C83.4,40.8,83.5,40.8,83.6,40.7z"/>
	<path class="st0" d="M87.5,41.1c0.1-0.3,0.1-0.8-0.1-1.1c-0.3,0.8-0.6,1.5-0.8,2.3C87,41.9,87.3,41.4,87.5,41.1z"/>
	<path class="st0" d="M35.1,42.6c-0.7-0.2-2.3-1.2-3.3-1.1c1,0.6,2.3,0.9,3.5,1.2C35.3,42.6,35.2,42.6,35.1,42.6z"/>
	<circle class="st0" cx="60.3" cy="149.3" r="45.7"/>
	<path class="st0" d="M31.3,41.9C31.3,41.9,31.3,41.9,31.3,41.9c-0.2,0.4-0.2,0.8-0.2,1.1c0,0.8,0,1.5,0.2,2.1
		C31.2,44.1,31.2,43,31.3,41.9z"/>
	<path class="st1" d="M41.4,27.1c-0.1-0.4-0.3-0.4-0.9-0.3c-0.1,0-0.2,0.1-0.3,0.2c0.2,0.7,0.4,1.3,0.7,2
		C41.1,28.4,41.6,27.6,41.4,27.1z"/>
	<path class="st1" d="M31.3,45.2c0.1,0.4,0.3,0.7,0.5,1c0.3,0.4,0.7,0.7,1.2,0.9c0.4,0.1,0.7,0.2,1,0.2c0.5,0.1,0.9,0.2,1.4,0.3
		c3.2,0.4,6.5,0.5,9.7,0.5c1.3,0,2.6,0,3.8,0c3.2-0.1,6.3-0.2,9.4-0.4c1.2-0.1,2.3-0.2,3.5-0.3c1.5-0.1,2.9-0.3,4.4-0.4
		c3.2-0.4,6.3-0.8,9.5-1.3c0.8-0.1,1.5-0.2,2.3-0.4c2.7-0.5,5.6-1,8-2.3c0.2-0.2,0.4-0.4,0.6-0.6c0.2-0.8,0.4-1.6,0.8-2.3
		c0-0.1-0.1-0.1-0.1-0.2c-0.1-0.1-0.3-0.2-0.5-0.2c-1.1,0.5-2.2,0.8-3.2,1.1c-0.1,0-0.1,0,0,0c-0.1,0-0.2,0-0.2,0.1
		c-1.8,0.5-3.7,0.9-5.7,1.2c-9.8,2-20.1,2-29.9,1.7c-4-0.1-8.5-0.1-12.4-1.1c-1.2-0.2-2.5-0.6-3.5-1.2c-0.3,0-0.5,0.2-0.6,0.4
		C31.2,43,31.2,44.1,31.3,45.2z M48.3,48C48.7,48,48.4,48,48.3,48L48.3,48z"/>
	<path class="st1" d="M86.3,42.8C86.3,42.8,86.3,42.8,86.3,42.8c0,0,0,0,0.1-0.1c-0.1,0.1-0.1,0.1,0.1-0.1
		C85.9,43,86.3,42.7,86.3,42.8z"/>
	<path class="st2" d="M39.9,26c0.1-0.1,0.3-0.2,0.4-0.2c2-0.9,3,2.7,1.2,3.5c-0.2,0.1-0.3,0.1-0.4,0.1c0.5,1.5,1.1,3,1.8,4.4
		c1.5,3.1,4.5,2.7,7.6,2.8c3.4,0.1,6.7-0.2,10-0.4c3.5-0.2,6.9-0.5,10.4-0.9c0.7-0.1,1.3,0,1.7-0.6c0.3-0.5,0.4-1.4,0.6-2
		c0.2-0.7,0.4-1.4,0.6-2c-0.1-0.1-0.2-0.3-0.2-0.4c0-0.1,0.2-0.2,0.4-0.3c0.1-0.4,0.2-0.8,0.3-1.2c1.2-4.6,2-9.2,2.6-13.9
		c-0.7,0.1-1.6-0.2-2-0.6c-1.7-1.5-0.2-4,1.8-4c0.2,0,0.4,0,0.6,0.1c0.1-0.8,0.1-1.6,0.2-2.3c-3.3-0.5-7.2,1-10.4,1.7
		c-3.2,0.7-6.4,1.5-9.6,2.1c-5.1,1-10.1,2.1-15.1,1.9c0,0.2-0.1,0.5-0.2,0.7c-0.3,0.6-1,1.2-1.7,1.3c-1.9,0.5-2.5-1-2.3-2.4
		c-0.5-0.1-1.1-0.2-1.6-0.3c0.9,3.7,1.6,7.5,2.7,11.1C39.5,24.6,39.7,25.3,39.9,26z M70.7,27c1.9,0.8,1.7,4.6-0.6,5.3
		c-1.7,0.5-2.7-1.1-2.5-2.5c0-0.1-0.1-0.3-0.1-0.5c0-1.1,0.5-1.7,1.2-2.1c0.1-0.1,0.3-0.2,0.7-0.3c0,0,0,0,0,0
		c0.1,0,0.2-0.1,0.3-0.1C70.4,26.7,70.7,26.8,70.7,27z M66.3,12.2c2.2-1.5,3.8,1.3,3.2,2.9c0,0,0,0.1-0.1,0.1c0,0,0,0,0,0
		c0,0,0,0,0,0c0,0,0,0,0,0c0,0,0,0,0,0c0,0,0,0,0,0c0,0,0,0,0,0c0,0,0,0,0,0c0,0,0,0,0,0.1c0,0,0,0,0-0.1c0,0,0,0,0,0
		c-0.7,1.5-3,3-4.5,1.4C63.5,15.2,65,13.1,66.3,12.2z M55.5,26.2c0.3-1.1,0.9-2.4,2.2-2.5c3.6-0.4,4.1,5.1,0.4,5.2
		C56.4,29,55,28,55.5,26.2z M50.1,35.4C50.2,35.3,50,35.4,50.1,35.4c-3.4,1.4-4.8-3.8-1.7-4.2C51.2,30.7,53,34.2,50.1,35.4z
		 M46.2,16c2.8,0,3.9,4.1,0.9,4.9C43.3,21.8,43.3,16,46.2,16z"/>
	<path class="st1" d="M55.7,41.3C55.7,41.3,55.7,41.3,55.7,41.3C55.7,41.3,55.7,41.3,55.7,41.3C55.7,41.3,55.7,41.3,55.7,41.3z"/>
	<path class="st1" d="M66.1,16.3c1.7,0.6,3.6-2.8,1.7-3.1c-0.9-0.1-1.9,0.2-2.3,1C65.2,15,65.3,15.9,66.1,16.3z"/>
	<path class="st1" d="M56.8,27.8c2.7,1.2,4.6-2.7,1.6-3.3C56.8,24.4,55.2,27.1,56.8,27.8z"/>
	<path class="st1" d="M48.8,34.8c2.4,0.3,3.1-2.8,0.6-3.3C47.2,31.3,46.7,34.5,48.8,34.8z"/>
	<path class="st1" d="M47.9,19.4c0.8-0.5-0.2-2.4-1.3-2.6c-1.1-0.1-2.1,1.4-1.6,2.4C45.6,20.4,47.4,19.8,47.9,19.4z"/>
	<path class="st1" d="M68.9,29.7c-0.1,0.2-0.2,0.3-0.3,0.5c0,0.5,0.3,0.9,0.8,1c1.4,0.2,2.2-2.5,0.7-3c0,0-0.1,0-0.1,0.1
		C69,28.9,69.6,28.3,68.9,29.7z"/>
	<path class="st1" d="M39,14.5c0.9,1,1.5-0.2,1.9-1c-0.6,0-1.3-0.1-2-0.2C38.9,13.8,38.7,14.2,39,14.5z"/>
	<path class="st1" d="M76.1,13.4c0.2,0.1,0.4,0.1,0.7,0.2c0.1-0.6,0.1-1.3,0.2-1.9c-0.3-0.1-0.5-0.1-0.7-0.1
		C75.1,11.8,75,13,76.1,13.4z"/>
	<path class="st1" d="M77.4,7.6C77.5,7.7,77.4,7.6,77.4,7.6L77.4,7.6z"/>
	<path class="st2" d="M42,9.8c2.1-0.4,4.3-0.6,6.5-0.9c4.7-0.6,9.4-1.3,14.1-1.9c4.6-0.5,9.5-1.6,14.1-1.3c-0.4-0.3-1-0.5-1.4-0.8
		c-4.4-2.4-10.6-2.7-15.6-3c-5.3-0.2-11-0.6-16,1.1c-2.2,0.7-4.4,1.7-6.1,3.3c-0.8,0.8-2.8,3-1.2,4.1C37.4,11.2,40.7,10,42,9.8z"/>
	<path class="st3" d="M48.3,48C48.4,48,48.7,48,48.3,48L48.3,48z"/>
	<path class="st3" d="M121.4,95.2c-3.1-14.4-24.8-7.9-29.3-21.9c-1.7-5.2-1.6-10.7-2-16.1c-0.5-6.2-0.4-12.4,0.1-18.5
		c0.2-2.1,0.4-4.5-1-6.1c-1.8-2.1-5.8-2.5-8.4-2.6c-0.4,0-2-0.2-3.6-0.2c1.1,0,2.7-10.5,2.8-11.7c0.8-5.6,1-14.7-5.5-17
		c-1.7-0.6-3.6-0.7-5.4-0.8C59.2-0.1,44.3-1,36.2,5.8c-3.8,3.2-0.6,10.2,0.2,14.3c0.5,2.8,1.3,5.5,2.1,8.1c0,0,0,0,0,0
		c0.2,0.8,0.4,1.5,0.7,2.3c-0.8,0.1-2.1,0.8-2.5,0.9c-3.8,1.7-6.3,4.1-6.9,8.4c-0.6,3.9-0.6,7.9,0.1,11.9c1.6,9.6,4.4,19.4-2.1,28
		c-5.8,7.6-16.3,9.9-21.8,17.6c-1.9,2.6-3.2,5.6-4.1,8.7c-6.2,21.6,5.8,48.3,12,68.8c4.4,14.5,9.2,28.9,14.4,43.2
		c5.3,14.6,6.5,32.6,25.3,34.2c9.8,0.8,27.7,3.6,34-6.4c5.9-9.3,6.9-23.9,9.7-34.5c9.3-34.5,24.6-69.6,24.8-105.8
		C122,102.1,122.1,98.6,121.4,95.2z M40.2,27c0.1-0.1,0.2-0.2,0.3-0.2c0.5-0.1,0.7-0.1,0.9,0.3c0.2,0.5-0.4,1.3-0.5,1.8
		C40.7,28.3,40.5,27.6,40.2,27z M55.7,41.3C55.7,41.3,55.7,41.3,55.7,41.3C55.7,41.3,55.7,41.3,55.7,41.3
		C55.7,41.3,55.7,41.3,55.7,41.3z M76.9,13.6c-0.3-0.1-0.6-0.1-0.7-0.2c-1.1-0.4-1-1.6,0.2-1.9c0.2,0,0.5,0,0.7,0.1
		C77,12.3,76.9,12.9,76.9,13.6z M77.4,7.6C77.4,7.6,77.5,7.7,77.4,7.6L77.4,7.6z M36.2,10.4c-1.6-1,0.3-3.3,1.2-4.1
		c1.7-1.6,3.9-2.7,6.1-3.3c5-1.7,10.8-1.3,16-1.1c5.1,0.2,11.3,0.5,15.6,3c0.5,0.3,1,0.5,1.4,0.8C72,5.5,67.1,6.5,62.5,7
		c-4.7,0.6-9.4,1.3-14.1,1.9c-2.2,0.3-4.3,0.5-6.5,0.9C40.7,10,37.4,11.2,36.2,10.4z M41,13.6c-0.5,0.8-1,2-1.9,1
		c-0.3-0.4-0.1-0.8,0-1.2C39.7,13.4,40.3,13.5,41,13.6z M36.5,12.9c0.6,0.1,1.1,0.2,1.6,0.3c-0.2,1.4,0.3,2.9,2.3,2.4
		c0.7-0.2,1.3-0.7,1.7-1.3c0.1-0.2,0.2-0.4,0.2-0.7c5.1,0.1,10-1,15.1-1.9c3.2-0.6,6.4-1.4,9.6-2.1c3.2-0.7,7.1-2.3,10.4-1.7
		c-0.1,0.8-0.1,1.5-0.2,2.3c-0.2,0-0.5-0.1-0.6-0.1c-2,0-3.5,2.5-1.8,4c0.4,0.3,1.3,0.7,2,0.6c-0.6,4.7-1.3,9.4-2.6,13.9
		c-0.1,0.4-0.2,0.8-0.3,1.2c-0.2,0.1-0.4,0.2-0.4,0.3c0,0.2,0.1,0.3,0.2,0.4c-0.2,0.7-0.4,1.4-0.6,2c-0.2,0.6-0.2,1.5-0.6,2
		c-0.4,0.6-0.9,0.5-1.7,0.6c-3.5,0.4-6.9,0.7-10.4,0.9c-3.4,0.2-6.7,0.5-10,0.4c-3.1-0.1-6,0.4-7.6-2.8c-0.7-1.4-1.3-2.9-1.8-4.4
		c0.1,0,0.2,0,0.4-0.1c1.8-0.7,0.8-4.4-1.2-3.5c-0.1,0-0.2,0.1-0.4,0.2c-0.2-0.7-0.4-1.4-0.7-2C38.1,20.3,37.4,16.6,36.5,12.9z
		 M31.3,41.9C31.3,41.9,31.3,41.9,31.3,41.9c0.2-0.3,0.4-0.4,0.6-0.4c1-0.2,2.5,0.9,3.3,1.1c0.1,0,0.2,0,0.3,0.1
		c3.9,1.1,8.3,1,12.4,1.1c9.8,0.3,20.1,0.3,29.9-1.7c2.7-0.6,5.4-1.3,8-2.2c0.3-0.1,0.7-0.2,1.1-0.2c0.2,0,0.3,0.1,0.5,0.2
		c0.1,0,0.1,0.1,0.1,0.2c0.2,0.3,0.2,0.7,0.1,1.1c-0.2,0.4-0.5,0.9-0.9,1.3c-0.2,0.2-0.4,0.4-0.6,0.6c-0.1,0.1-0.2,0.2-0.4,0.2
		c-2.6,1.5-5.9,1.8-8.8,2.3c-0.4,0.1-0.8,0.1-1.1,0.2c-3.1,0.5-6.3,1-9.5,1.3c-1.4,0.2-2.9,0.3-4.4,0.4c-4.3,0.4-8.6,0.6-12.9,0.7
		c-1.3,0-2.6,0-3.8,0c-3.2,0-6.5-0.1-9.7-0.5c-0.3,0-0.5,0-0.8-0.1c-0.6-0.1-1.2-0.2-1.6-0.4c-0.5-0.2-0.9-0.5-1.2-0.9
		c-0.2-0.3-0.3-0.6-0.5-1c-0.2-0.6-0.3-1.3-0.2-2.1C31,42.7,31.1,42.3,31.3,41.9z M86.4,42.7c-0.1,0-0.1,0.1-0.2,0.1
		c0,0,0.1-0.1,0.1-0.1C86.3,42.7,85.9,43,86.4,42.7C86.3,42.8,86.3,42.8,86.4,42.7z M60.3,195.1c-25.2,0-45.7-20.5-45.7-45.7
		c0-25.2,20.5-45.7,45.7-45.7c25.2,0,45.7,20.5,45.7,45.7C106.1,174.6,85.6,195.1,60.3,195.1z"/>
	<path class="st3" d="M47.1,20.8c2.9-0.8,1.8-4.9-0.9-4.9C43.3,16,43.3,21.8,47.1,20.8z M46.6,16.8c1.1,0.2,2.1,2.1,1.3,2.6
		c-0.5,0.4-2.3,1-2.9-0.2C44.5,18.2,45.5,16.7,46.6,16.8z"/>
	<path class="st3" d="M58.1,28.9c3.7-0.1,3.2-5.6-0.4-5.2c-1.2,0.1-1.9,1.4-2.2,2.5C55,28,56.4,29,58.1,28.9z M58.3,24.6
		c3,0.6,1.1,4.5-1.6,3.3C55.2,27.1,56.8,24.4,58.3,24.6z"/>
	<path class="st4" d="M69.4,15.3C69.4,15.3,69.4,15.3,69.4,15.3"/>
	<path class="st3" d="M69.4,15.3C69.4,15.3,69.4,15.3,69.4,15.3C69.4,15.3,69.4,15.3,69.4,15.3c0,0,0-0.1,0.1-0.1
		c0.7-1.6-1-4.5-3.2-2.9c-1.3,0.9-2.8,3-1.4,4.5C66.4,18.3,68.7,16.8,69.4,15.3z M65.6,14.2c0.4-0.8,1.4-1.1,2.3-1
		c1.9,0.3-0.1,3.7-1.7,3.1C65.3,15.9,65.2,15,65.6,14.2z"/>
	<path class="st3" d="M69.4,15.2C69.4,15.2,69.4,15.2,69.4,15.2C69.4,15.3,69.4,15.3,69.4,15.2C69.4,15.2,69.4,15.2,69.4,15.2z"/>
	<path class="st3" d="M69.4,15.3C69.4,15.3,69.4,15.3,69.4,15.3C69.4,15.3,69.4,15.3,69.4,15.3C69.4,15.3,69.4,15.3,69.4,15.3z"/>
	<path class="st3" d="M69.5,26.8c-0.4,0.1-0.6,0.1-0.7,0.3c-0.8,0.4-1.3,1-1.2,2.1c0,0.2,0,0.3,0.1,0.5c-0.3,1.5,0.8,3,2.5,2.5
		c2.3-0.7,2.5-4.5,0.6-5.3c-0.1-0.2-0.3-0.3-0.8-0.2C69.8,26.8,69.7,26.8,69.5,26.8C69.6,26.8,69.5,26.8,69.5,26.8z M70.1,28.2
		C70.1,28.2,70.1,28.2,70.1,28.2c1.6,0.4,0.8,3.1-0.6,2.9c-0.6-0.1-0.8-0.5-0.8-1c0.1-0.1,0.2-0.3,0.3-0.5
		C69.6,28.3,69,28.9,70.1,28.2z"/>
	<path class="st3" d="M50.1,35.4c2.9-1.2,1.1-4.6-1.7-4.2C45.3,31.6,46.7,36.8,50.1,35.4z M49.4,31.6c2.5,0.5,1.9,3.6-0.6,3.3
		C46.7,34.5,47.2,31.3,49.4,31.6z"/>
	<path class="st3" d="M50.1,35.4C50,35.4,50.2,35.3,50.1,35.4L50.1,35.4z"/>
</g>
</svg>
