<?xml version="1.0" encoding="utf-8"?>
<!-- Generator: Adobe Illustrator 23.0.4, SVG Export Plug-In . SVG Version: 6.00 Build 0)  -->
<svg version="1.1" id="Halloween5" xmlns="http://www.w3.org/2000/svg" xmlns:xlink="http://www.w3.org/1999/xlink" x="0px" y="0px"
	 viewBox="0 0 410.3 169.3" style="enable-background:new 0 0 410.3 169.3;" xml:space="preserve">
<style type="text/css">
	#Halloween5 .st0{fill:none;}
	#Halloween5 .st1{fill:#333232;}
</style>
<g>
	
		<ellipse transform="matrix(0.9732 -0.2298 0.2298 0.9732 -18.4491 49.8737)" class="st0" cx="204.9" cy="104.2" rx="61.9" ry="61.9"/>
	<path class="st1" d="M409.7,0.1c-0.7,0.3-1.4,1.2-2.1,1.7c-0.8,0.6-1.6,1-2.4,1.5c0,0,0,0,0.1,0c-9.1,5.2-19.1,8.2-29.6,8.9
		c-4.5,0.3-9,0.2-13.5,0.4c-3.5,0.1-7,0.1-10.5-0.5c-2.4-0.4-4.8-0.9-7.3-1.1c-1.2-0.1-2.4-0.1-3.6-0.2c-1.2-0.1-2.5-0.3-3.7,0.1
		c-1.1,0.4-1.7,1.6-2.3,2.4c-1,1.4-2,2.8-3.1,4.2c-2.2,3-4.3,6.1-6.7,8.9c-3.9,4.5-7.5,9.3-11.6,13.6c-3.4,3.6-6.6,7.2-10.4,10.3
		c-5.3,4.4-10.4,9.2-16.4,12.8c-2.1,1.3-4.2,2.6-6.4,3.7c-2.5,1.3-5.1,2.3-7.8,3.3c0,0,0,0,0.1,0c-2.2,0.8-4.5,1.2-6.8,1.5
		c-1.1,0.1-2.1,0.2-3.2,0.2c-0.2,0-0.6,0-0.9,0c-2.7-4.8-6.1-9.2-9.9-13.1c0.2-0.7,0.3-1.6,0.4-2.2c0,0,0,0.1,0,0.1
		c0.8-4.3,1.2-8.6,1.8-12.9c0.3-2.1,0.5-4.1,0.5-6.3c0-1,0.1-2,0.1-3c0-0.8,0.1-1.6-0.6-2.1c-1.4-1-3.6,0.3-4.9,0.9
		c-2,0.9-4.1,2-6,3.1c-3.2,1.9-6.5,3.7-9.6,5.7c-0.6,0.4-2.1,1.2-2.9,2.1c-7.8-3.3-16.4-5.2-25.4-5.2c-8.9,0-17.4,1.8-25.2,5.1
		c-0.8-0.8-2.2-1.6-2.8-2c-3.1-2-6.4-3.9-9.6-5.7c-1.9-1.1-4-2.2-6-3.1c-1.3-0.6-3.5-1.8-4.9-0.9c-0.7,0.5-0.7,1.4-0.6,2.1
		c0.1,1,0.1,2,0.1,3c0,2.1,0.2,4.2,0.5,6.3c0.6,4.3,1,8.7,1.8,12.9c0,0,0-0.1,0-0.1c0.1,0.5,0.1,1.2,0.3,1.9
		c-3.9,4-7.4,8.5-10.2,13.4c-0.2,0-0.4,0-0.6,0c-1.1,0-2.1-0.1-3.2-0.2c-2.3-0.3-4.6-0.8-6.8-1.5c0,0,0,0,0.1,0
		c-2.6-1-5.2-2-7.8-3.3c-2.2-1.1-4.3-2.4-6.4-3.7c-6-3.6-11.1-8.4-16.4-12.8c-3.8-3.1-7-6.8-10.4-10.3c-4.2-4.3-7.8-9.1-11.6-13.6
		c-2.4-2.8-4.5-5.9-6.7-8.9c-1-1.4-2-2.8-3.1-4.2c-0.7-0.9-1.2-2-2.3-2.4c-1.2-0.4-2.5-0.2-3.7-0.1c-1.2,0.1-2.4,0.1-3.6,0.2
		c-2.4,0.2-4.9,0.7-7.3,1.1c-3.5,0.6-6.9,0.6-10.5,0.5c-4.5-0.2-9-0.1-13.5-0.4C24.1,11.5,14,8.5,5,3.3c0,0,0,0,0.1,0
		C4.2,2.9,3.4,2.4,2.7,1.8C2,1.3,1.3,0.5,0.6,0.1C0.4,0,0-0.2,0,0.3c0,0.3,0.9,1.1,1.1,1.3c0.7,0.8,1.4,1.7,2.1,2.5
		C4.8,6,6.1,8,7.4,10c2.3,3.6,4,7.3,5.2,11.4c1.4,4.5,1.4,9.4,1.5,14.1c0,2.6-0.2,5.3-0.4,7.9c-0.2,1.7-0.3,3.4-0.5,5.1
		c-0.1,0.7-0.4,2.7,0.6,3c0.4,0.1,1-0.1,1.4-0.3c0.7-0.2,1.3-0.4,2-0.5c1.3-0.1,2.6,0,3.8,0.3c3,0.5,5.7,1.2,8.5,2.4
		c4.1,1.8,7.9,4.3,11.2,7.3c1.9,1.8,3.7,3.8,5.1,6c1.6,2.6,2.4,5.5,2.8,8.5c0.7,4.5,0.5,9,0.5,13.5c0,1.3-0.1,2.6-0.1,4
		c0,1-0.2,3.3,1.3,1.9c1.1-1,2.4-1.4,3.8-1.7c2.7-0.6,5.5-0.7,8.2-1c2.1-0.2,4.3-0.4,6.4-0.6c3.5-0.3,6.7-0.3,10.1,0.5
		c9.9,2.4,19.4,7.9,25.8,16c0.6,0.8,1.2,1.6,1.8,2.4c0.4,0.6,1.1,1.4,1.2,2.1c0,0.4-0.2,1,0.2,1.3c1,0.6,0.4-1.4,0.5-1.8
		c0.1-1,0.7-2.1,1.2-3c2.4-4.7,5.9-8.3,10.4-11.1c4-2.5,9-3.7,13.7-3.6c1.3,0,2.5,0.1,3.8,0.4c0.7,0.2,1.4,0.5,2.2,0.8
		c0.2,0.1,0.6,0.3,0.8,0.3c-0.4,2.8-0.5,5.6-0.5,8.4c0,35.9,29.2,65.2,65.2,65.2c35.9,0,65.2-29.2,65.2-65.2c0-3-0.2-5.9-0.6-8.8
		c0.1,0.2,0,0.3,0.4,0.4c0.2,0,0.6-0.2,0.8-0.3c0.7-0.3,1.4-0.6,2.2-0.8c1.2-0.3,2.5-0.4,3.8-0.4c4.8-0.1,9.7,1.1,13.7,3.6
		c4.5,2.8,8,6.4,10.4,11.1c0.5,0.9,1,2,1.2,3c0,0.3-0.5,2.4,0.5,1.8c0.4-0.3,0.2-0.9,0.2-1.3c0.1-0.7,0.8-1.5,1.2-2.1
		c0.6-0.8,1.1-1.7,1.8-2.4c6.4-8.1,15.8-13.6,25.8-16c3.4-0.8,6.6-0.8,10.1-0.5c2.1,0.2,4.3,0.4,6.4,0.6c2.7,0.2,5.5,0.4,8.2,1
		c1.4,0.3,2.7,0.8,3.8,1.7c1.5,1.3,1.3-0.9,1.3-1.9c0-1.3-0.1-2.6-0.1-4c-0.1-4.5-0.2-9,0.5-13.5c0.4-3,1.2-5.9,2.8-8.5
		c1.4-2.2,3.2-4.3,5.1-6c3.3-3.1,7.1-5.5,11.2-7.3c2.8-1.2,5.5-1.9,8.5-2.4c1.3-0.2,2.5-0.4,3.8-0.3c0.7,0.1,1.4,0.2,2,0.5
		c0.4,0.1,0.9,0.4,1.4,0.3c1-0.3,0.6-2.2,0.6-3c-0.2-1.7-0.3-3.4-0.5-5.1c-0.2-2.6-0.4-5.2-0.4-7.9c0-4.7,0.1-9.5,1.5-14.1
		c1.2-4.1,2.9-7.8,5.2-11.4c1.3-2,2.6-4.1,4.1-5.9c0.7-0.8,1.4-1.7,2.1-2.5c0.2-0.3,1.1-1,1.1-1.3C410.3-0.2,409.9,0,409.7,0.1z
		 M204.9,166c-34.1,0-61.9-27.8-61.9-61.9s27.8-61.9,61.9-61.9s61.9,27.8,61.9,61.9S239.1,166,204.9,166z"/>
</g>
</svg>
