<?xml version="1.0" encoding="utf-8"?>
<!-- Generator: Adobe Illustrator 23.0.4, SVG Export Plug-In . SVG Version: 6.00 Build 0)  -->
<svg version="1.1" id="Halloween2" xmlns="http://www.w3.org/2000/svg" xmlns:xlink="http://www.w3.org/1999/xlink" x="0px" y="0px"
	 viewBox="0 0 263.1 366.7" style="enable-background:new 0 0 263.1 366.7;" xml:space="preserve">
<style type="text/css">
	#Halloween2 .st0{fill:none;}
	#Halloween2 .st1{fill:#303030;}
	#Halloween2 .st2{fill:#FDFDFD;}
	#Halloween2 .st3{fill:#FFFFFF;}
</style>
<g>
	<path class="st0" d="M142.3,112.1c-0.8-0.3-1.9-0.3-2.8-0.5c-10.7-2-16.7-9.3-25.7-14.5c-1.2-0.7-2.5-1.3-3.9-1.4
		c-5.7-0.3-8.7,10.4-8.4,14.8c0.5,6.4,3.4,12.9,6.4,19c10.8-3.2,22.3-4.9,34.1-4.9c5.9,0,11.7,0.4,17.4,1.3c-3.7-2.5-7.3-5-10.5-8
		c-1.6-1.5-3.4-2.7-4.9-4.2C143.3,113,143,112.4,142.3,112.1z"/>
	<path class="st0" d="M61.7,166c10.8,5.1,22.3,6.2,35.2,3.8c6.6-1.2,13.3-3.8,18.6-8c-1.1-1.2-1.7-2.6-2.8-3.8c-1-1.2-2.2-2.1-3.4-3
		c-2.5-1.9-5.4-3-8.2-4.5c-2.6-1.4-5.3-2.7-7.9-4.1c-1-0.5-1.9-1-2.9-1.5C79.8,150.5,70.1,157.6,61.7,166z"/>
	<path class="st0" d="M131.8,133c-7,0.6-13.8,1.9-20.4,3.7c0.6,1.3,1.1,2.7,1.6,4.1c0.7,1.7,1.3,4,2.3,5.5c2,2.9,4.8,5.1,6.9,7.8
		c1.8-2.7,3.5-5.5,5-8.5c0,0-0.1,0.1-0.1,0.1c1.4-3.1,2.2-6.4,3.3-9.7C130.9,135,131.3,134,131.8,133z"/>
	<path class="st0" d="M195.3,145.9c-0.6-0.2-1.2-0.3-1.8-0.5c-4.1-1.2-7.8-3.4-11.6-5.4c-0.3-0.2-0.6-0.4-1-0.5
		c-9.1-3.4-18.8-5.6-28.9-6.5c0.8,3.1,0.8,6.6,0.3,9.4c-2,11.5-8.5,22.8-17.3,30.5c-24.7,21.8-59.5,23.6-86.7,9.2
		c-12.3,18.1-19.6,40-19.6,63.5c0,62.4,50.7,113.1,113.1,113.1S255.1,308,255.1,245.6C255.1,202.6,230.9,165,195.3,145.9z"/>
	<path class="st0" d="M81.8,140.6c-7.5-4.5-14.1-10.4-20.7-16c-8.8-7.5-14.8-17-19.3-27.6c-8.3-19.9-3.6-43,7-61.1
		c-4.8,3.8-9.4,7.7-13.3,12.5c-27.8,33.6-19,84,14.2,110.2c1.6,1.3,3.2,2.4,4.8,3.5C62.5,153.6,71.7,146.4,81.8,140.6z"/>
	<path class="st1" d="M211.8,146.7c2.5-0.9,4.3-2.7,3.8-6c-0.5-3.4-4.8-6.5-7.4-8.3c-4.3-3-8.5-6.2-12.3-9.9
		c-5.2-5.1-9.1-11.1-11.8-17.8c-0.4-1-1.5-2.8-1.5-3.7c-0.3-0.7-0.4-1.4-0.7-2.1c-0.3-0.8-0.7-1.8-0.6-2.6c0.1-1,0.9-1.7,1.6-2.5
		c1.1-1.5,2.3-2.9,3.4-4.4c0.7-1,2.7-3.4,2.5-4.3c7.1,0.3,14.1,0.7,21.2,1.6c0.9,0.1,3.9,1,4.7,0.6c1.9-0.9-1.5-1.3-2.2-1.4
		c-1.3-0.2-2.6-0.3-3.8-0.5c-3.2-0.4-6.4-0.7-9.6-0.9c-3.3-0.2-6.5-0.3-9.8-0.3c1.1-2.2,1.5-4.7,2.6-7c0.7-1.4,1.5-2.8,2.1-4.2
		c0.2-0.6,0.4-1.3,0.7-1.8c0-0.6,0.3-0.8,0.8-0.8c0.4-0.1,0.8-0.2,1.3-0.3c6.7-1.8,13.4-3.4,20.1-4.9c0.7-0.2,3.1-0.8,1.4-1.4
		c-0.8-0.3-3.1,0.6-4,0.8c-3,0.6-6,1.3-8.9,2c-3.4,0.8-6.7,1.8-10.1,2.7c0.4-1.8,0.6-3.6,0.7-5.4c0.1-0.9-0.3-2.5,0.3-3.1
		c0.4-0.5,1.4-0.7,2-1c2.6-1.3,5.2-2.6,7.8-3.8c2.6-1.1,5.3-2.2,7.9-3.1c0.3-0.1,0.9-0.3,1.3-0.4c0.4-0.1,2.7-0.4,2-1.1
		c-0.2-0.2-2,0.5-2.4,0.6c-1.4,0.4-2.8,0.8-4.2,1.3c-5.1,1.9-9.9,4.3-14.7,6.8c-0.2-2.8-1-5.4-2.2-7.9c-0.8-1.7-1.7-3.5-2.1-5.4
		c-1.2-5.9-1.5-12-2.4-17.9c-0.9-6-2.9-11.2-4.9-16.8c-0.3-0.8-0.6-2-1.6-2.4c-1-0.3-1.8,0.4-2.5,0.9c-4.9,3.6-9,7.9-12.9,12.6
		c-1.7,2-3.3,4.1-4.9,6.2c-0.2,0.3-0.7,1.2-1,1.3c-0.4,0.1-1.8-0.5-2.1-0.6c-1.9-0.6-4.1-0.4-5.7-1.8c-1.6-1.3-2.8-4.2-4.1-5.9
		c-3.3-4.1-7.1-7.7-11.4-10.7c-8.4-6-18.3-10-28.5-11.3c-20.6-2.6-37.3,6-50.5,21.4c-7.4,0.9-15,4.3-21.6,7.7
		c-4.5,2.2-8.6,5.4-12.3,8.6c-35.8,30.6-28.4,82.7-4.7,118.3c5.8,8.8,13.2,16,21.6,21.6c-13,19.3-20.7,42.6-20.7,67.6
		c0,66.8,54.3,121.1,121.1,121.1s121.1-54.3,121.1-121.1C263.1,204.8,242.8,168.7,211.8,146.7z M149.9,59.9
		c1.3-6.4,6.1-12.1,12.3-14c1.2-0.5,2.6-0.8,3.9-0.9c0.4,0,0.9,0,1.3,0c0.1,0,0.3,0,0.4,0c0.3,0,0.6,0,0.9,0.1c0.1,0,0.3,0,0.4,0
		c0.3,0,0.7,0.1,1,0.2c0.1,0,0.2,0,0.3,0c0.4,0.1,0.9,0.2,1.3,0.3c1.2,0.3,2.4,0.7,3.6,1.1c1.6,0.5,3.6,1,5,1.9
		c3.1,2,1.4,6.8,0.2,9.7c-0.2,0.5-0.5,1.1-0.8,1.6c-0.5,0.7-1,1.4-1.5,2.1c0,0,0,0,0,0c-0.5,0.7-1.1,1.4-1.7,2
		c-2.7,3-6.3,5.4-10.1,6.8c-3.8,1.4-7.9,1.6-11.9,1.3c-1.1-0.1-2.3-0.2-3.4-0.4c-1.2-0.2-1.6-0.6-1.8-1.8c-0.2-1.4,0.1-2.7,0-4.1
		C149.6,63.8,149.5,62,149.9,59.9z M159.4,125.8c-5.7-0.8-11.5-1.3-17.4-1.3c-11.9,0-23.3,1.7-34.1,4.9c-3-6-5.9-12.6-6.4-19
		c-0.3-4.4,2.6-15.1,8.4-14.8c1.4,0.1,2.7,0.7,3.9,1.4c9,5.2,15,12.5,25.7,14.5c0.9,0.2,2,0.1,2.8,0.5c0.8,0.3,1,0.9,1.7,1.5
		c1.6,1.5,3.3,2.7,4.9,4.2C152.1,120.8,155.7,123.3,159.4,125.8z M127.3,145.7c-1.5,2.9-3.2,5.7-5,8.5c-2.1-2.7-5-4.9-6.9-7.8
		c-1-1.5-1.6-3.8-2.3-5.5c-0.5-1.4-1-2.7-1.6-4.1c6.6-1.8,13.4-3.1,20.4-3.7c-0.5,1-0.9,2-1.3,3.1c-1.1,3.2-1.9,6.6-3.3,9.7
		C127.3,145.7,127.3,145.7,127.3,145.7z M90.5,145c1,0.5,2,0.9,2.9,1.5c2.6,1.5,5.2,2.7,7.9,4.1c2.8,1.5,5.7,2.6,8.2,4.5
		c1.2,0.9,2.4,1.9,3.4,3c1,1.2,1.7,2.6,2.8,3.8c-5.4,4.1-12,6.7-18.6,8c-12.9,2.4-24.4,1.3-35.2-3.8C70.1,157.6,79.8,150.5,90.5,145
		z M140.5,71.5c0.5-0.1,0.9-0.1,1.1-0.1c1.5,0,3.9-0.1,3.7,2c-0.1,1.6-2,4-3.1,5c-0.2,0.1-0.3,0.2-0.5,0.3c0,0.5,0,0.9,0,1
		c0.1,0.9,0.6,2.2,0.3,3.2c0.3-0.1,0.6-0.1,0.9-0.1c1.1-0.1,0.4,1.1-0.1,1.4c-0.5,0.3-2.4,0.6-2.9,0.4c-1.3-0.5-0.2-1.1,0.4-1.3
		c0.2-0.1,0.4-0.1,0.6-0.2c-0.1-0.3-0.2-0.7-0.2-1c-0.1-0.6-0.4-2.1-0.4-3.3c-0.4-0.1-0.9-0.4-1.2-0.8c-1.2-0.9-2.7-2.9-2.7-4
		C136.5,72.2,138.9,71.7,140.5,71.5z M97,64.2c2.5-3.4,5.8-6.2,9.5-8.3c3.6-1.8,7.4-1.5,11.3-0.7c5.3,1.1,10.4,6,12.8,10.7
		c0.9,1.8,2.3,3.8,2.9,5.7c0.4,1.3,0.2,1.8-0.8,2.6c-0.8,0.6-1.6,1.3-2.5,1.8c-2.5,1.7-5.3,3.5-8.4,3.8c-2.7,0.3-5.7,0-8.4-0.6
		c-5.8-1.3-9-1.8-14.8-5.7c-0.9-0.6-1.7-1.2-2.4-1.7c-0.6-0.8-1.1-1.8-1.1-3C95,67,95.9,65.8,97,64.2z M49.7,158.5
		c-33.1-26.2-42-76.6-14.2-110.2c3.9-4.7,8.5-8.7,13.3-12.5C38.2,54,33.5,77.1,41.8,97c4.4,10.6,10.4,20.1,19.3,27.6
		c6.6,5.6,13.3,11.5,20.7,16c-10.1,5.8-19.3,13-27.3,21.4C52.9,160.9,51.3,159.8,49.7,158.5z M142,358.7
		c-62.4,0-113.1-50.7-113.1-113.1c0-23.5,7.2-45.4,19.6-63.5c27.2,14.3,62,12.6,86.7-9.2c8.7-7.7,15.3-19,17.3-30.5
		c0.5-2.8,0.5-6.2-0.3-9.4c10.1,0.9,19.7,3.1,28.9,6.5c0.3,0.2,0.6,0.4,1,0.5c3.8,2,7.4,4.2,11.6,5.4c0.6,0.2,1.2,0.3,1.8,0.5
		c35.5,19.1,59.8,56.6,59.8,99.7C255.1,308,204.3,358.7,142,358.7z"/>
	<path class="st2" d="M108.5,61.6C108.5,61.6,108.5,61.6,108.5,61.6c0.2-0.1,0.3-0.2,0.4-0.3c0,0,0,0,0,0
		C108.8,61.4,108.7,61.5,108.5,61.6C108.5,61.6,108.5,61.6,108.5,61.6z"/>
	<path class="st2" d="M107.3,72.5c0.1,0.9,0.4,1.7,0.8,2.2c-0.4-0.5-0.6-1.3-0.8-2C107.3,72.7,107.3,72.6,107.3,72.5z"/>
	<path class="st2" d="M107.5,63.7c0-0.3,0-0.7,0.2-1c0,0.1-0.1,0.1-0.1,0.2c0,0,0,0,0,0C107.5,63.2,107.4,63.4,107.5,63.7z"/>
	<path class="st3" d="M149.6,70c0.2,1.2,0.6,1.6,1.8,1.8c1.1,0.2,2.3,0.4,3.4,0.4c4,0.3,8.1,0.2,11.9-1.3c3.8-1.4,7.4-3.9,10.1-6.8
		c0.6-0.6,1.1-1.3,1.7-2c0,0,0,0,0,0c0.5-0.7,1-1.4,1.5-2.1c0.3-0.5,0.5-1,0.8-1.6c1.2-2.8,2.9-7.7-0.2-9.7c-1.4-0.9-3.5-1.4-5-1.9
		c-1.2-0.4-2.4-0.8-3.6-1.1c-0.4-0.1-0.9-0.2-1.3-0.3c-0.1,0-0.2,0-0.3,0c-0.3-0.1-0.7-0.1-1-0.2c-0.1,0-0.3,0-0.4,0
		c-0.3,0-0.6-0.1-0.9-0.1c-0.1,0-0.3,0-0.4,0c-0.4,0-0.9,0-1.3,0c-1.3,0.1-2.7,0.3-3.9,0.9c-6.2,1.9-11,7.6-12.3,14
		c-0.4,2.1-0.3,3.9-0.3,6C149.7,67.3,149.5,68.6,149.6,70z M157,50.9c0.8,0,1.4,0.9,1.6,1.9c-1,0.7-1.8,1.6-1.7,3
		c0,1.4,1.1,2.5,2.5,2.7c0,0.7,0,1.4,0,2c0.1,2.3,0.1,4.6,0.3,6.9c0.1,1.5-0.2,4.4-1.6,1.7c-0.9-1.7-1-3.8-1.3-5.7
		C156.5,61.6,154,50.9,157,50.9z"/>
	<path class="st3" d="M139.3,78c0.4,0.4,0.8,0.7,1.2,0.8c0,1.2,0.3,2.6,0.4,3.3c0,0.3,0.1,0.7,0.2,1c-0.2,0.1-0.4,0.1-0.6,0.2
		c-0.7,0.2-1.7,0.8-0.4,1.3c0.5,0.2,2.4-0.2,2.9-0.4c0.5-0.3,1.2-1.4,0.1-1.4c-0.3,0-0.6,0.1-0.9,0.1c0.2-1-0.2-2.3-0.3-3.2
		c0-0.1,0-0.6,0-1c0.2-0.1,0.3-0.2,0.5-0.3c1.1-0.9,3-3.4,3.1-5c0.2-2.1-2.2-2-3.7-2c-0.1,0-0.6,0-1.1,0.1c-1.6,0.2-4,0.7-4,2.5
		C136.6,75.1,138.1,77.1,139.3,78z"/>
	<path class="st1" d="M158,68.9c1.4,2.7,1.7-0.2,1.6-1.7c-0.1-2.3-0.1-4.6-0.3-6.9c0-0.5,0-1.3,0-2c-1.3-0.2-2.4-1.3-2.5-2.7
		c0-1.4,0.7-2.3,1.7-3c-0.2-1-0.8-1.9-1.6-1.9c-3,0-0.4,10.7-0.2,12.4C157,65.2,157.1,67.2,158,68.9z"/>
	<path class="st3" d="M98.6,73.6c5.8,3.9,9,4.4,14.8,5.7c2.6,0.6,5.7,0.9,8.4,0.6c3.1-0.4,5.9-2.1,8.4-3.8c0.9-0.6,1.7-1.2,2.5-1.8
		c1-0.8,1.2-1.3,0.8-2.6c-0.7-1.9-2-3.9-2.9-5.7c-2.5-4.7-7.5-9.6-12.8-10.7c-3.9-0.8-7.6-1-11.3,0.7c-3.7,2.1-6.9,4.9-9.5,8.3
		c-1.2,1.6-2.1,2.7-2,4.7c0.1,1.2,0.5,2.1,1.1,3C96.9,72.4,97.7,73,98.6,73.6z M105.9,60.2c0.2-2.4,2.1-2.2,2.9-0.5
		c0,0.1,0.1,0.2,0.1,0.3c0.1,0.2,0.1,0.4,0.2,0.5c0.1,0.2,0.1,0.4,0,0.5c0,0.1-0.1,0.2-0.2,0.3c0,0,0,0,0,0
		c-0.1,0.1-0.2,0.2-0.4,0.3c0,0,0,0,0,0c0,0,0,0,0,0c-0.1,0.1-0.2,0.1-0.3,0.2c0,0,0,0,0,0c-0.1,0.1-0.1,0.1-0.1,0.1
		c-0.2,0.2-0.4,0.5-0.5,0.8c0,0,0,0,0,0.1c0,0,0,0,0,0c0-0.1,0.1-0.1,0.1-0.2c-0.2,0.3-0.2,0.7-0.2,1c0,0.1,0,0.2,0.1,0.3
		c0.2,0.7,0.6,1.2,1.4,1.6c0.1,0.1,0.2,0.1,0.2,0.1c0,0,0,0,0,0c0,0,0,0,0,0c0.8,0.3,0.7,0.1,0.8,1.2c0,0.2,0,0.5,0,0.7
		c0,0,0,0.1,0,0.1c0,0.1,0,0.2,0,0.3c0,0.6,0.1,1.3,0.1,1.9c0,0.3,0.1,0.8,0.2,1.4c0,0.2,0,0.4,0,0.6c0,0.1,0,0.2,0,0.4
		c0,1,0,2.1-0.5,2.6c-0.1,0.1-0.3,0.2-0.5,0.3c-0.2,0-0.4,0-0.6-0.1c-0.2-0.1-0.4-0.2-0.5-0.3c0,0,0,0,0,0c0,0,0,0,0,0
		c-0.5-0.5-0.7-1.3-0.8-2.2c0,0.1,0.1,0.1,0.1,0.2c-0.1-0.3-0.1-0.6-0.1-0.8c0-0.3-0.1-0.6-0.1-0.9c0-0.4-0.1-0.8-0.1-1.1
		c-0.2-1.5-0.3-3-0.5-4.5C106.4,63.7,105.8,61.9,105.9,60.2z"/>
	<path class="st1" d="M107.1,69.9c0,0.3,0.1,0.7,0.1,1.1c0,0.3,0.1,0.6,0.1,0.9c0,0.2,0.1,0.5,0.1,0.8c0.1,0.7,0.3,1.5,0.8,2
		c0,0,0,0,0,0c0,0,0,0,0,0c0.2,0.1,0.3,0.3,0.5,0.3c0.2,0.1,0.4,0.1,0.6,0.1c0.2,0,0.4-0.1,0.5-0.3c0.4-0.5,0.5-1.6,0.5-2.6
		c0-0.1,0-0.3,0-0.4c0-0.2,0-0.4,0-0.6c-0.1-0.6-0.1-1.1-0.2-1.4c-0.1-0.6-0.1-1.3-0.1-1.9c0-0.1,0-0.2,0-0.3c0,0,0-0.1,0-0.1
		c0-0.2,0-0.5,0-0.7c-0.1-1.2,0.1-0.9-0.8-1.2c0,0,0,0,0,0c0,0,0,0,0,0c-0.1,0-0.1-0.1-0.2-0.1c-0.7-0.3-1.2-0.9-1.4-1.6
		c0-0.1,0-0.2-0.1-0.3c0-0.2,0-0.5,0.1-0.8c0,0,0,0,0,0c0,0,0,0,0,0c0,0,0,0,0-0.1c0.1-0.3,0.3-0.5,0.5-0.8c0.1-0.1,0.1-0.1,0.1-0.1
		c0,0,0,0,0,0c0.1-0.1,0.2-0.2,0.3-0.2c0.1-0.1,0.3-0.2,0.3-0.3c0.1-0.1,0.2-0.2,0.2-0.3c0-0.1,0-0.3,0-0.5c0-0.1-0.1-0.3-0.2-0.5
		c0-0.1-0.1-0.2-0.1-0.3c-0.8-1.7-2.7-1.9-2.9,0.5c-0.1,1.7,0.5,3.5,0.6,5.2C106.7,66.9,106.8,68.4,107.1,69.9z"/>
</g>
</svg>
