<?xml version="1.0" encoding="utf-8"?>
<!-- Generator: Adobe Illustrator 23.0.4, SVG Export Plug-In . SVG Version: 6.00 Build 0)  -->
<svg version="1.1" id="Rainbow4" xmlns="http://www.w3.org/2000/svg" xmlns:xlink="http://www.w3.org/1999/xlink" x="0px" y="0px"
	 viewBox="0 0 179.5 179.5" style="enable-background:new 0 0 179.5 179.5;" xml:space="preserve">
<style type="text/css">
	#Rainbow4 .st0{fill:none;}
	#Rainbow4 .st1{fill:#D17FD3;}
	#Rainbow4 .st2{fill:#E2C374;}
	#Rainbow4 .st3{fill:#7FCADB;}
</style>
<g>
	<path class="st0" d="M118.4,27.9l-2,7.7c-8.1-4-17.1-6.2-26.7-6.2c-33.3,0-60.4,27.1-60.4,60.4s27.1,60.4,60.4,60.4
		s60.4-27.1,60.4-60.4c0-18.2-8.1-34.5-20.9-45.6l-0.3-0.7l5.6-8.3l-10,0.6L118.4,27.9z M132.8,52.8l-2.4-6.1
		C141.8,57.5,149,72.8,149,89.8c0,32.6-26.6,59.2-59.2,59.2s-59.2-26.6-59.2-59.2c0-32.6,26.6-59.2,59.2-59.2
		c9.5,0,18.4,2.3,26.4,6.2l-0.2,0.8l-9.4,3.5l8.5,5.4l0.2,6c-7.3-5-16-7.9-25.5-7.9c-24.9,0-45.2,20.3-45.2,45.2S64.8,135,89.8,135
		S135,114.7,135,89.8c0-14.3-6.7-27.1-17.1-35.4l5.2-4.3L132.8,52.8z M126.1,43.2l2.2,5.7l-5.9-1.7l-4.7,3.9l-0.2-6.1l-5.1-3.3
		l5.7-2.1l1.5-5.9l3.8,4.8l6.1-0.4L126.1,43.2z"/>
	<path class="st1" d="M146.7,29.4l-10-5.6l-5.3,2.6c5.8,3.8,11.1,8.5,15.6,13.7l1.1-9.2l7.1,7l6.8-1.3c-4.8-6.6-10.5-12.5-16.9-17.5
		L146.7,29.4z"/>
	<path class="st1" d="M163.7,39l-3.1,6.1l4.8,8.8l-9.9-1.5l0,0c6.3,11,9.9,23.8,9.9,37.4c0,41.8-34,75.8-75.8,75.8S14,131.5,14,89.8
		C14,48,48,14,89.8,14c13.7,0,26.5,3.7,37.6,10l1.2-6.3l-8-8.2l7.5-0.9C116.5,3.1,103.5,0,89.8,0C40.3,0,0,40.3,0,89.8
		c0,49.5,40.3,89.8,89.8,89.8s89.8-40.3,89.8-89.8C179.5,70.9,173.7,53.4,163.7,39z"/>
	<path class="st2" d="M89.8,15.3c-41,0-74.4,33.4-74.4,74.4s33.4,74.4,74.4,74.4s74.4-33.4,74.4-74.4c0-13.2-3.5-25.6-9.5-36.4
		l-5.9,6.3l-1.6-9.9l-9.1-4.2l8.1-4.2c-4.7-5.5-10.1-10.2-16.2-14.1l-3.6,1.8l0.7-3.5C116.1,19,103.4,15.3,89.8,15.3z M134.6,35.1
		l-5.6,8.3l0.3,0.7c12.8,11.1,20.9,27.4,20.9,45.6c0,33.3-27.1,60.4-60.4,60.4s-60.4-27.1-60.4-60.4s27.1-60.4,60.4-60.4
		c9.6,0,18.6,2.3,26.7,6.2l2-7.7l6.2,7.9L134.6,35.1z"/>
	<path class="st3" d="M117.9,54.4c10.4,8.3,17.1,21.1,17.1,35.4c0,24.9-20.3,45.2-45.2,45.2s-45.2-20.3-45.2-45.2
		s20.3-45.2,45.2-45.2c9.4,0,18.2,2.9,25.5,7.9l-0.2-6l-8.5-5.4l9.4-3.5l0.2-0.8c-8-4-16.9-6.2-26.4-6.2
		c-32.6,0-59.2,26.6-59.2,59.2c0,32.6,26.6,59.2,59.2,59.2S149,122.4,149,89.8c0-17-7.2-32.3-18.6-43.1l2.4,6.1l-9.6-2.7L117.9,54.4
		z"/>
	<polygon class="st1" points="131.9,16.7 130.5,23.6 136.8,20.5 142.9,23.9 141.8,17 146.9,12.2 140.1,11.1 137.1,4.7 133.9,10.9 
		127,11.8 	"/>
	<polygon class="st1" points="157.7,45.2 160.4,39.7 154.5,40.9 150.1,36.6 149.4,42.6 144,45.4 149.5,48 150.5,54 154.6,49.6 
		160.7,50.5 	"/>
	<polygon class="st1" points="119.7,33.7 118.1,39.6 112.4,41.7 117.6,45 117.8,51 122.5,47.2 128.4,48.8 126.1,43.2 129.5,38.1 
		123.4,38.5 	"/>
</g>
</svg>
