<?xml version="1.0" encoding="utf-8"?>
<!-- Generator: Adobe Illustrator 23.0.4, SVG Export Plug-In . SVG Version: 6.00 Build 0)  -->
<svg version="1.1" id="Rainbow2" xmlns="http://www.w3.org/2000/svg" xmlns:xlink="http://www.w3.org/1999/xlink" x="0px" y="0px"
	 viewBox="0 0 226.7 157.3" style="enable-background:new 0 0 226.7 157.3;" xml:space="preserve">
<style type="text/css">
	#Rainbow2 .st0{fill:none;}
	#Rainbow2 .st1{fill:#B22222;}
	#Rainbow2 .st2{fill:#E2C374;}
	#Rainbow2 .st3{fill:#7FCADB;}
	#Rainbow2 .st4{fill:#FFFFFF;}
	#Rainbow2 .st5{fill:#5C6674;}
</style>
<g>
	<path class="st0" d="M113.2,15.8c-34.7,0-64.5,20.7-77.9,50.4c0.6-0.2,1.2-0.3,1.9-0.4c13.4-28.6,42.4-48.5,76.1-48.5
		c33.6,0,62.6,19.9,76,48.4c0.6,0.1,1.2,0.3,1.9,0.4C177.6,36.5,147.8,15.8,113.2,15.8z"/>
	<path class="st0" d="M113.2,33.1C88.6,33.1,67,46.2,55,65.8c0.5,0.1,0.9,0.2,1.4,0.3c11.8-19,32.8-31.6,56.7-31.6
		c24,0,45,12.7,56.8,31.7c0.5-0.1,0.9-0.2,1.4-0.3C159.4,46.2,137.8,33.1,113.2,33.1z"/>
	<path class="st1" d="M113.2,15.8c34.6,0,64.5,20.7,77.9,50.4c7.7,1.8,14.7,5.6,20.4,10.7C200.5,32.8,160.6,0,113.2,0
		C65.6,0,25.6,33,14.8,77.3c5.7-5.3,12.7-9.1,20.5-11C48.7,36.5,78.5,15.8,113.2,15.8z"/>
	<path class="st2" d="M113.2,17.3c-33.6,0-62.7,19.9-76.1,48.5c2.9-0.6,6-0.9,9.1-0.9c3,0,6,0.3,8.8,0.9
		c12-19.6,33.6-32.7,58.1-32.7c24.6,0,46.2,13.1,58.2,32.7c3-0.6,6-0.9,9.1-0.9c3,0,5.9,0.3,8.7,0.8
		C175.8,37.2,146.8,17.3,113.2,17.3z"/>
	<path class="st3" d="M113.2,34.5c-23.9,0-44.9,12.6-56.7,31.6c5.3,1.2,10.3,3.3,14.8,6.2c9.2-13.3,24.6-22,42-22
		c17.4,0,32.9,8.8,42.1,22.2c4.4-2.9,9.4-5.1,14.7-6.3C158.2,47.1,137.1,34.5,113.2,34.5z"/>
	<circle class="st4" cx="180.5" cy="111.1" r="44.2"/>
	<path class="st5" d="M211.5,76.9c-5.7-5.2-12.7-8.9-20.4-10.7c-0.6-0.1-1.2-0.3-1.9-0.4c-2.8-0.5-5.7-0.8-8.7-0.8
		c-3.1,0-6.2,0.3-9.1,0.9c-0.5,0.1-0.9,0.2-1.4,0.3c-5.3,1.2-10.3,3.4-14.7,6.3c-12.6,8.3-21,22.5-21,38.7
		c0,25.5,20.7,46.2,46.2,46.2s46.2-20.7,46.2-46.2C226.7,97.6,220.8,85.3,211.5,76.9z M180.5,155.3c-24.4,0-44.2-19.8-44.2-44.2
		s19.8-44.2,44.2-44.2s44.2,19.8,44.2,44.2S204.9,155.3,180.5,155.3z"/>
	<circle class="st4" cx="46.2" cy="111.1" r="44.2"/>
	<path class="st5" d="M55,65.8c-2.9-0.6-5.8-0.9-8.8-0.9c-3.1,0-6.1,0.3-9.1,0.9c-0.6,0.1-1.2,0.3-1.9,0.4
		c-7.8,1.9-14.8,5.8-20.5,11C5.7,85.7,0,97.8,0,111.1c0,25.5,20.7,46.2,46.2,46.2s46.2-20.7,46.2-46.2c0-16.3-8.5-30.6-21.2-38.8
		c-4.5-2.9-9.4-5-14.8-6.2C56,66,55.5,65.9,55,65.8z M2,111.1c0-24.4,19.8-44.2,44.2-44.2s44.2,19.8,44.2,44.2s-19.8,44.2-44.2,44.2
		S2,135.5,2,111.1z"/>
</g>
</svg>
