<?xml version="1.0" encoding="utf-8"?>
<!-- Generator: Adobe Illustrator 23.0.4, SVG Export Plug-In . SVG Version: 6.00 Build 0)  -->
<svg version="1.1" id="Santa3" xmlns="http://www.w3.org/2000/svg" xmlns:xlink="http://www.w3.org/1999/xlink" x="0px" y="0px"
	 viewBox="0 0 159.5 180.5" style="enable-background:new 0 0 159.5 180.5;" xml:space="preserve">
<style type="text/css">
	#Santa3 .st0{fill:none;}
	#Santa3 .st1{fill:#FFFFFF;}
	#Santa3 .st2{fill:#B22222;}
	#Santa3 .st3{fill:#7C6957;}
</style>
<g>
	<path class="st0" d="M119.3,91.5c-9.8-21.2-31.2-36-56.1-36c-29.3,0-54,20.6-60.2,48.1c0,0.2-0.1,0.4-0.1,0.6
		c-0.9,4.2-1.4,8.6-1.4,13c0,34,27.7,61.7,61.7,61.7s61.7-27.7,61.7-61.7c0-9-1.9-17.5-5.4-25.2C119.5,91.9,119.4,91.7,119.3,91.5z"
		/>
	<path class="st1" d="M148,147.3c-4.2-1.4-8.9,0.4-10.8,4.5c-3.3,7.1,3.9,15.2,11.4,13.3c4.5-1.1,7.2-6.5,6.2-10.8
		c-0.1-0.4-0.2-0.8-0.4-1.1C153.3,150.4,150.7,148.2,148,147.3z"/>
	<path class="st2" d="M157.2,60.7c-0.8-2.4-2.1-4.4-3.6-6.5c-3.1-4.2-6.7-8.1-10.2-11.9c-1.8-2-3.6-4-5.4-6c-1.8-2-3.8-3.8-5.7-5.8
		c-1.8-1.9-3.6-4-5.3-5.9c-1.7-1.9-3.3-4-5-5.9c-1.5-1.7-3.1-3.4-4.6-5.1c-1.4-1.5-2.6-3.1-4-4.5c-1.5-1.5-2.9-2.8-4.9-3.7
		c-1.8-0.8-3.9-1.4-5.8-1.5c0,0,0,0-0.1,0c-2.9-0.4-6.2-0.3-9.2-0.4c-3-0.1-6,0-9-0.2c-3-0.2-5.9-0.6-8.9-0.9
		C70,2,64.1,1.1,58.8,0.8C53.4,0.4,47.2,0,42.3,2.6c-2,1.1-4,2.6-5.6,4.2c-1.7,1.7-3,3.9-4.1,5.9c-2.7,4.6-5.1,9.3-7.6,13.9
		c-1.2,2.2-2.1,4.6-3,6.9c-1,2.4-2,4.9-3.1,7.3c-1,2.4-2,4.7-3,7.1c-0.9,2.4-2.2,5-2.2,7.7c2.2-1.9,5.2-2.6,8-3.4
		c3.3-1.1,6.7-1.8,10.1-2.4c6.1-1.1,12.4-1.9,18.5-2.8c3-0.4,6-1,9-1.3c3-0.3,6-0.2,9.1-0.2c3.2,0,6.3,0,9.5,0.2
		c3.2,0.3,6.3,0.7,9.4,1.2c2.9,0.5,5.9,0.9,8.8,1.5c2.6,0.5,5.8,0.6,7.9,2.3c-0.3-1.5-0.1-3-0.2-4.5c-0.1-1.5-0.5-3-0.7-4.5
		c-0.1-0.7-0.3-1.3-0.4-2c-0.1-0.4,0-0.8,0.4-0.4c0.3,0.3,0.4,1.5,0.5,1.9c0.1,0.4,0.2,1.3,0.3,1.5c0.3,1.5,0.6,2.9,0.6,4.4
		c0,0.6-0.3,3,0.1,3.4c0.5,0.5,1.8-1.1,2.2-1.5c1.5-1.5,2.9-3.2,4.1-5c0.1-0.1,0.2-0.3,0.3-0.3c0.1-0.1,0.3,0,0.3,0.1
		c0,0.1,0,0.1-0.1,0.2c-0.9,1.5-1.9,2.9-3.2,4.2c-0.6,0.6-1.2,1.2-1.9,1.7c-0.5,0.4-1.3,0.8-1.4,1.4c-0.1,0.7,1,1.4,1.3,1.8
		c0.6,0.6,1.2,1.3,1.7,1.9c1.1,1.3,2.2,2.6,3.1,4c1,1.5,1.7,3.1,2.4,4.7c0.6,1.5,1.3,2.9,2,4.4c0.4,1,1.3,2.5,1.9,3.7
		c0.7,1.4,1.3,2.9,1.9,4.3c1.2,2.7,2.3,5.4,3.3,8.2c1,2.7,1.9,5.4,3,8c1,2.6,2,5.2,2.7,7.8c1.6,5.4,3.4,10.6,5.2,15.9
		c0.9,2.6,1.8,5.3,2.5,8c0.7,2.6,1.2,5.2,1.9,7.7c0.7,2.5,1.4,5.1,2,7.7c0.6,2.4,0.9,4.9,1.5,7.2c4-1.8,8.7,0.1,11.6,3
		c0.5-4.8,1.3-9.5,1.7-14.4c0.7-8.3,1.5-16.5,2.6-24.7c1-7.8,1.7-15.6,1.7-23.5c0-6.2,0.3-12.6-0.2-18.8
		C158.4,66,158,63.2,157.2,60.7z"/>
	<path class="st1" d="M102.9,50.7c-0.6-0.4-1.3-0.6-2-0.8c-3.7-0.9-7.5-1.4-11.2-2c-3.5-0.5-7-1.2-10.5-1.5c-3.5-0.3-7-0.4-10.6-0.4
		c-3.4,0-6.9-0.1-10.3,0.3c-3.4,0.4-6.7,1.1-10.1,1.4c-3.4,0.4-6.7,1-10.1,1.5c-3.4,0.5-6.7,1-10.1,1.8c-3.5,0.7-6.8,1.8-10.1,2.9
		c-2.8,0.9-4.9,2.6-6.5,5.1c-1.6,2.3-2.7,4.6-3.5,7.3c-0.8,2.7-1.5,5.5-2.3,8.3c-0.8,3-1.4,6.1-2.1,9.1c-0.6,2.6-1.3,5.4-1.4,8v0.1
		C1.9,94.1,2,96.7,2,99c0,0.6,0.1,1.2,0.1,1.8C9.4,73.8,34.1,54,63.3,54c24.7,0,46.2,14.3,56.6,35c-0.1-0.4-0.2-0.8-0.2-1.1
		c-0.2-1-0.5-2.1-0.9-3.1c-1.6-4.4-3.4-8.6-5.3-12.8c-1-2.2-1.8-4.5-2.8-6.7c-1.1-2.4-2.2-4.8-3.4-7.2c-0.2-0.4-0.4-0.8-0.6-1.2
		c-0.6-1.1-1.1-2.2-1.6-3.3C104.6,52.4,104,51.4,102.9,50.7z"/>
	<path class="st3" d="M159.4,74.7c0-3.9-0.3-7.7-1-11.5c-0.7-3.6-2.3-6.6-4.5-9.5c-2.2-3-4.7-5.8-7.2-8.6c-2.5-2.7-5-5.4-7.4-8.2
		c-2.6-2.9-5.5-5.5-8.1-8.4c-2.7-2.9-5.4-5.8-7.8-8.9c-2.3-2.8-4.9-5.4-7.2-8.1c-2.3-2.7-4.5-5.4-7.8-6.7c-4-1.6-8.1-1.5-12.3-1.7
		C91.9,2.9,87.7,3,83.6,2.7c-3.8-0.2-8.2-0.8-12.2-1.2c-4.1-0.4-8.3-0.9-12.4-1.3C55.2,0,51.4-0.2,47.7,0.4
		C43.5,1,40.3,3.1,37.1,5.7c-3.1,2.6-5.1,6.8-7,10.3c-1.9,3.6-4,7.1-5.9,10.7c-2,3.7-3.3,7.8-5,11.7c-1.6,3.8-3.2,7.6-4.6,11.4
		c-0.4,1-0.7,2-1,3c-0.1,0.5-0.3,1-0.3,1.5c-0.1,0.5,0.1,1.4-0.1,1.8c-0.2,0.5-1,1.1-1.3,1.5c-0.6,0.8-1.2,1.7-1.8,2.6
		c-2.2,3.5-3,7.5-4.1,11.4c-1.2,4.2-2.1,8.4-3.1,12.6c-1,4.1-1.4,8-1.4,12.2c0,1.9,0,3.7,0.3,5.5C0.6,106.9,0,112,0,117.2
		c0,34.9,28.4,63.3,63.3,63.3c34.9,0,63.3-28.4,63.3-63.3c0-9.6-2.2-18.7-6-26.9c0-1.1-0.3-2.3-0.5-3.2c-0.7-2.9-1.9-5.8-3.1-8.5
		c-1.2-2.8-2.6-5.5-3.8-8.4c-1.1-2.6-2-5.3-3.2-7.9c-0.6-1.4-1.4-2.7-2.2-4c-0.9-1.4-1.4-2.9-2-4.5c2,2.3,4.2,4.5,5.6,7.3
		c1.6,3,2.8,6.1,4.3,9.1c3.2,6.3,5.8,12.9,8.1,19.5c1.2,3.4,2.6,6.7,3.7,10.1c1,3.3,1.9,6.6,3,9.9c1.1,3.4,2.5,6.8,3.5,10.3
		c1.1,3.5,1.9,7,2.9,10.6c0.9,3.4,1.9,6.8,2.7,10.2c0.4,1.7,0.8,3.4,1.1,5.1c0.1,0.3,0.2,0.7,0.2,1c0,0.5,0.1,0.1-0.3,0.5
		c-0.8,0.8-1.9,1.3-2.7,2.1c-1.9,2.1-2.4,5.6-1.7,8.3c1.3,5.4,7.4,9.2,12.8,7.7c2.9-0.8,4.9-3.3,6-5.9c1.3-3,0.8-6.1-1.2-8.6
		c-0.5-0.6-0.2-1.2-0.1-2c0.1-0.8,0.2-1.6,0.3-2.3c0.3-1.8,0.5-3.7,0.7-5.5c0.8-7.2,1.4-14.4,2.1-21.6c0.8-7,1.9-14,2.3-21
		c0.1-1.5,0.1-3.3,0.2-4.6C159.6,87.5,159.4,81.1,159.4,74.7z M125,117.2c0,34-27.7,61.7-61.7,61.7S1.5,151.3,1.5,117.2
		c0-4.5,0.5-8.8,1.4-13c0-0.2,0.1-0.4,0.1-0.6c6.2-27.5,30.8-48.1,60.2-48.1c24.9,0,46.3,14.8,56.1,36c0.1,0.2,0.1,0.3,0.2,0.5
		C123,99.7,125,108.3,125,117.2z M106.6,56.8c0.2,0.4,0.4,0.8,0.6,1.2c1.2,2.4,2.3,4.8,3.4,7.2c1,2.2,1.7,4.5,2.8,6.7
		c2,4.2,3.7,8.4,5.3,12.8c0.4,1,0.7,2,0.9,3.1c0.1,0.3,0.2,0.7,0.2,1.1C109.4,68.2,88,54,63.3,54C34.1,54,9.4,73.8,2.2,100.8
		C2.1,100.2,2.1,99.6,2,99c0-2.3-0.2-4.9,0.1-7.1v-0.1c0.2-2.7,0.8-5.4,1.4-8c0.7-3,1.3-6.1,2.1-9.1c0.8-2.8,1.4-5.5,2.3-8.3
		c0.8-2.7,2-5,3.5-7.3c1.6-2.5,3.7-4.2,6.5-5.1c3.4-1.1,6.7-2.1,10.1-2.9c3.3-0.7,6.7-1.3,10.1-1.8c3.4-0.5,6.7-1.2,10.1-1.5
		c3.4-0.4,6.7-1.1,10.1-1.4C61.8,46,65.3,46,68.7,46c3.5,0,7.1,0,10.6,0.4c3.5,0.3,7,1,10.5,1.5c3.7,0.6,7.5,1.1,11.2,2
		c0.7,0.2,1.4,0.4,2,0.8c1.1,0.7,1.6,1.7,2.1,2.8C105.5,54.6,106.1,55.7,106.6,56.8z M154.4,153.1c0.1,0.4,0.3,0.8,0.4,1.1
		c1.1,4.3-1.7,9.7-6.2,10.8c-7.5,1.9-14.7-6.1-11.4-13.3c1.9-4,6.6-5.9,10.8-4.5C150.7,148.2,153.3,150.4,154.4,153.1z M158.9,87.4
		c0,7.9-0.7,15.7-1.7,23.5c-1.1,8.2-1.8,16.5-2.6,24.7c-0.4,4.8-1.2,9.6-1.7,14.4c-2.9-2.9-7.6-4.9-11.6-3c-0.6-2.4-0.9-4.8-1.5-7.2
		c-0.6-2.6-1.3-5.1-2-7.7c-0.7-2.6-1.3-5.1-1.9-7.7c-0.7-2.7-1.6-5.4-2.5-8c-1.8-5.3-3.6-10.5-5.2-15.9c-0.8-2.7-1.7-5.3-2.7-7.8
		c-1.1-2.7-1.9-5.4-3-8c-1.1-2.7-2.2-5.5-3.3-8.2c-0.6-1.5-1.2-2.9-1.9-4.3c-0.6-1.2-1.4-2.7-1.9-3.7c-0.7-1.5-1.4-2.9-2-4.4
		c-0.7-1.6-1.4-3.3-2.4-4.7c-0.9-1.4-2-2.7-3.1-4c-0.6-0.6-1.2-1.3-1.7-1.9c-0.4-0.4-1.4-1.2-1.3-1.8c0.1-0.7,1-1,1.4-1.4
		c0.7-0.5,1.3-1.1,1.9-1.7c1.2-1.3,2.3-2.7,3.2-4.2c0-0.1,0.1-0.1,0.1-0.2c0-0.1-0.2-0.2-0.3-0.1c-0.1,0.1-0.2,0.2-0.3,0.3
		c-1.2,1.8-2.5,3.5-4.1,5c-0.4,0.4-1.7,2-2.2,1.5c-0.4-0.4-0.1-2.8-0.1-3.4c-0.1-1.5-0.4-3-0.6-4.4c0-0.2-0.2-1-0.3-1.5
		c-0.1-0.4-0.2-1.6-0.5-1.9c-0.4-0.4-0.5,0-0.4,0.4c0.1,0.7,0.3,1.3,0.4,2c0.3,1.5,0.6,3,0.7,4.5c0.1,1.5,0,3,0.2,4.5
		c-2.1-1.7-5.4-1.8-7.9-2.3c-2.9-0.5-5.9-1-8.8-1.5c-3.1-0.5-6.2-1-9.4-1.2c-3.2-0.3-6.3-0.2-9.5-0.2c-3,0-6-0.1-9.1,0.2
		c-3,0.3-6,0.9-9,1.3c-6.2,0.8-12.4,1.6-18.5,2.8c-3.4,0.6-6.8,1.4-10.1,2.4c-2.8,0.9-5.7,1.5-8,3.4c0.1-2.7,1.3-5.3,2.2-7.7
		c0.9-2.4,1.9-4.8,3-7.1c1-2.4,2.1-4.8,3.1-7.3c0.9-2.3,1.8-4.7,3-6.9c2.5-4.6,5-9.4,7.6-13.9c1.2-2.1,2.5-4.2,4.1-5.9
		c1.6-1.6,3.7-3.1,5.6-4.2C47.2,0,53.4,0.4,58.8,0.8C64.1,1.1,70,2,75.5,2.4c3,0.3,5.9,0.7,8.9,0.9c3,0.2,6,0.1,9,0.2
		c3,0.1,6.3,0.1,9.2,0.4c0,0,0,0,0.1,0c2,0.1,4,0.7,5.8,1.5c2,0.8,3.4,2.2,4.9,3.7c1.4,1.5,2.6,3.1,4,4.5c1.5,1.7,3.1,3.4,4.6,5.1
		c1.7,1.9,3.3,4,5,5.9c1.8,2,3.5,4,5.3,5.9c1.9,2,3.9,3.8,5.7,5.8c1.8,2,3.6,4,5.4,6c3.5,3.8,7.1,7.7,10.2,11.9
		c1.5,2,2.8,4.1,3.6,6.5c0.8,2.5,1.2,5.3,1.4,7.9C159.2,74.8,158.9,81.2,158.9,87.4z"/>
</g>
</svg>
