<?xml version="1.0" encoding="iso-8859-1"?>
<!-- Generator: Adobe Illustrator 19.0.0, SVG Export Plug-In . SVG Version: 6.00 Build 0)  -->
<svg version="1.1" id="Layer_1" xmlns="http://www.w3.org/2000/svg" xmlns:xlink="http://www.w3.org/1999/xlink" x="0px" y="0px"
	 viewBox="0 0 512 512" style="enable-background:new 0 0 512 512;" xml:space="preserve">
<path style="fill:#79c2e9;" d="M223.319,294.128v76.255c0,6.016-4.878,10.894-10.894,10.894h-42.101L256,484.091l85.676-102.814
	h-42.101c-6.016,0-10.894-4.878-10.894-10.894v-76.255H223.319z"/>
<polygon style="fill:#ccc;" points="212.426,185.191 38.128,185.191 38.128,272.34 212.426,272.34 299.574,272.34 
	473.872,272.34 473.872,185.191 299.574,185.191 "/>
<path style="fill:#79c2e9;" d="M299.574,108.936h174.298V21.787H38.128v87.149h174.298c6.016,0,10.894,4.878,10.894,10.894v43.574
	h65.362V119.83C288.681,113.814,293.558,108.936,299.574,108.936z"/>


</svg>
