<?xml version="1.0" encoding="utf-8"?>
<!-- Generator: Adobe Illustrator 23.0.4, SVG Export Plug-In . SVG Version: 6.00 Build 0)  -->
<svg version="1.1" id="Unicorn4" xmlns="http://www.w3.org/2000/svg" xmlns:xlink="http://www.w3.org/1999/xlink" x="0px" y="0px"
	 viewBox="0 0 179.7 201.7" style="enable-background:new 0 0 179.7 201.7;" xml:space="preserve">
<style type="text/css">
	#Unicorn4 .st0{fill:none;}
	#Unicorn4 .st1{fill:#E2C374;}
	#Unicorn4 .st2{fill:#E585AC;}
	#Unicorn4 .st3{fill:#7FCADB;}
</style>
<g>
	<path class="st0" d="M113.3,87.4c0.1,0,0.2-0.1,0.4-0.1c-4-3.9-8.5-7.3-13.6-10.2c-5.6-3.1-11.5-5.3-17.5-6.6
		c0.1,0.1,0.2,0.3,0.3,0.4c5.9,1.3,11.6,3.4,17.1,6.5C105,80.2,109.4,83.5,113.3,87.4z"/>
	<path class="st0" d="M41.3,182.6c27.6,15.4,62.6,5.5,78-22.1c15.4-27.6,5.5-62.6-22.1-78c-3.3-1.8-6.7-3.3-10.2-4.5
		c0.1,0.2,0.1,0.3,0.2,0.5c3.3,1.1,6.6,2.5,9.8,4.3c27.4,15.3,37.3,50.1,22,77.5s-50.1,37.3-77.5,22s-37.3-50.1-22-77.5
		C25.1,94.6,33.3,86.9,42.9,82c0-0.2,0.1-0.3,0.1-0.5c-9.7,5-18.2,12.8-23.9,23.1C3.7,132.2,13.6,167.2,41.3,182.6z"/>
	<path class="st0" d="M124.3,163.3c-17,30.4-55.5,41.3-85.9,24.4s-41.3-55.5-24.4-85.9c7.2-12.8,18.2-22.2,30.8-27.5
		c0-0.1,0.1-0.3,0.1-0.4c-12.8,5.3-24,14.7-31.2,27.7c-17,30.6-6.1,69.3,24.5,86.3s69.3,6.1,86.3-24.5c9.1-16.3,10.2-35,4.6-51.4
		c-0.1,0.1-0.2,0.2-0.2,0.3C134.5,128.6,133.4,147.1,124.3,163.3z"/>
	
		<ellipse transform="matrix(0.7843 -0.6204 0.6204 0.7843 -67.269 71.5068)" class="st0" cx="69.2" cy="132.5" rx="51.2" ry="51.2"/>
	<path class="st1" d="M81.5,68.8c0.2,0.3,0.5,0.9,1.1,1.7c6,1.3,11.9,3.5,17.5,6.6c5.1,2.8,9.6,6.3,13.6,10.2
		c1.6-0.4,4.3-0.9,6.7-1.3c-4.9-5.4-10.8-10.1-17.5-13.9c-7.3-4.1-15.1-6.7-23-7.9C80.3,65.7,80.8,67.3,81.5,68.8z"/>
	<path class="st2" d="M44.9,74.3c-0.7,2.6-1.4,5.3-1.9,7.2c0,0.2-0.1,0.3-0.1,0.5c-9.6,5-17.8,12.7-23.5,22.8
		c-15.3,27.4-5.4,62.2,22,77.5s62.2,5.4,77.5-22s5.4-62.2-22-77.5c-3.2-1.8-6.5-3.2-9.8-4.3C87.1,78.3,87,78.1,87,78
		c-1-2.2-2.8-5.1-4.1-7.1c-0.1-0.1-0.2-0.3-0.3-0.4c-0.5-0.8-0.9-1.4-1.1-1.7c-0.8-1.5-1.2-3-1.6-4.6c-0.1-0.4-0.2-0.8-0.2-1.2
		c-0.2-1.2-0.3-2.4-0.3-3.7c-0.1-1.9-0.3-3.8-0.5-5.6c-0.1-0.6-0.3-1.1-0.3-1.7c0-0.2,0.1-0.5,0.1-0.7c0.1-0.7,0.2-1.5,0.1-2.2
		c-0.1-1.7-0.9-3.2-1.6-4.7C77,44,77.1,43.3,77,42.7c-0.1-0.5-0.2-0.9-0.3-1.4c-0.5-1.8-0.9-3.4-1.9-5c-0.9-1.4-2.1-2.6-3.4-3.6
		C71,32.5,71,32,70.8,31.6c-0.2-0.5-0.3-1-0.6-1.4c-0.4-0.8-1-1.4-1.6-2.1c-1.2-1.3-2.8-2.5-4.4-3.1c-1-0.4-2.1-0.7-3.2-0.8
		c-0.8-0.1-1.6-0.1-2.5-0.3c-1-0.2-1.9-0.6-2.9-1c1-1.5,1.2-3.3,1.3-5c0.1-0.6,0.1-1.3,0.2-1.9c0-0.3,0.3-1.5-0.1-1.7
		c-0.3-0.2-2,1.1-2.3,1.3c-1.2,0.8-2.1,1.9-2.7,3.2c-0.3,0.7-0.5,1.4-0.7,2.2c-0.1,0.2-0.1,0.7-0.3,0.8c0,0-0.3,0-0.3,0
		c-0.1,0-0.4,0.1-0.5,0.1c-0.1-0.1-0.3-0.5-0.3-0.6c-0.2-0.3-0.3-0.6-0.4-0.9c-0.6-1.3-1.1-2.5-1.9-3.6c-0.4-0.6-0.6-1.4-1.1-1.9
		c-0.6-0.5-1.2,0-1.1,0.7c0.1,1.3,0.5,2.5,0.3,3.8c-0.1,0.6-0.3,1.2-0.3,1.9c0,0.4-0.1,0.8,0,1.2c0,0.1,0.1,0.4,0.1,0.5
		c0,0.1-0.6,0.3-0.7,0.4c-0.3,0.2-0.7,0.5-1,0.5c-0.1,0.2-0.3,0.2-0.3-0.1l-0.1-0.2c-0.2-0.2-0.3-0.4-0.5-0.6
		c-0.3-0.3-0.6-0.6-0.9-0.9c-1-1-2-2-3-3c-2.9-3-5.8-6-8.8-8.9C29,9,18.2-1.4,17.1,0.2c-0.4,0.6,1.6,2.6,1.9,2.9
		c0.5,0.5,0.9,1.1,1.4,1.6c0.7,0.9,1.5,1.8,2.3,2.7c0.6,0.7,1.3,1.6,2,2.3c0.2,0.6,1.2,1.5,1.6,2c1,1.1,2,2.2,3,3.3c0,0,0,0-0.1-0.1
		c1.4,1.8,3,3.4,4.4,5.2c0.8,1,1.6,1.9,2.4,2.9c0.9,1.2,1.9,2.5,2.9,3.6c0,0,0,0,0,0c0.2,0.2,0.3,0.4,0.5,0.6c0.2,0.3,0.2,0.2,0,0.4
		c-0.4,0.6-1.1,1.2-1.6,1.8c-0.7,0.8-1.4,1.7-2.1,2.5c-1.1,1.2-2.4,2.2-3.7,3.1c-1,0.7-1.9,1.6-2.9,2.3c-1.6,1-3.2,2.1-4.6,3.3
		c-1.6,1.3-3.5,3.7-3.5,5.9c0,1.8,1,4.1,3,4.4c0.9,0.1,1.7,0.2,2.5,0.5c1.1,0.4,2.1,0.5,3-0.4c0.7-0.7,1.3-1.5,1.9-2.3
		c0.2-0.3,0.5-0.8,0.8-1.1c0.3-0.2,0.6-0.2,1-0.3c2.2-0.6,4.4-1,6.7-1.3c1.8-0.2,3.5-0.4,5.3,0.1c1.4,0.4,3,0.8,4.5,0.8
		c0.6,0,1.3,0,1.9,0c0.5,0,1.2-0.1,1.6-0.4c0.1,1.2,0.1,2.5-0.2,3.7c-0.6,2.4-1.4,4.7-2.4,7c-1.1,2.6-1.8,5.3-2.7,8
		c-0.1,0.2-0.3,0.8-0.5,1.7c-0.5,1.6-1.3,4.2-2,6.9C45,74,44.9,74.1,44.9,74.3z M113.9,157.5c-13.8,24.7-45,33.5-69.7,19.8
		s-33.5-45-19.8-69.7c13.8-24.7,45-33.5,69.7-19.8S127.7,132.8,113.9,157.5z"/>
	<path class="st3" d="M113.3,87.4c-3.9-3.8-8.4-7.2-13.4-10c-5.5-3.1-11.3-5.2-17.1-6.5c1.3,2,3.2,4.9,4.1,7.1
		c3.5,1.1,6.9,2.6,10.2,4.5c27.6,15.4,37.6,50.4,22.1,78c-15.4,27.6-50.4,37.6-78,22.1c-27.6-15.4-37.6-50.4-22.1-78
		C24.8,94.3,33.3,86.5,43,81.5c0.4-2,1.2-4.6,1.9-7.2c-12.6,5.3-23.7,14.6-30.8,27.5c-17,30.4-6,68.9,24.4,85.9s68.9,6,85.9-24.4
		c9-16.2,10.2-34.7,4.6-51c0.1-0.1,0.2-0.2,0.2-0.3c1.5-1.8,3.1-4.9,3.6-5.5c0.1-0.1,0.2-0.2,0.3-0.4c0.8-0.9,1.7-1.7,2.6-2.4
		c0.7-0.5,1.4-0.9,2.1-1.3c1.1-0.6,2.2-1.2,3.2-1.9c0.3-0.2,0.6-0.5,0.9-0.7c0.1-0.1,0.3-0.1,0.4-0.1c0.5-0.1,0.9-0.3,1.4-0.6
		c1-0.6,1.6-1.4,2.3-2.3c0.2-0.3,0.6-0.4,1-0.7c0.3-0.2,0.5-0.4,0.7-0.6c0.9-0.8,1.8-1.5,2.4-2.6c0.6-0.9,1-2,1.2-3.1
		c0.1-0.3,0.3-0.5,0.5-0.7c0.2-0.2,0.5-0.5,0.7-0.7c0.3-0.5,0.6-1,0.8-1.5c0.4-1.1,0.7-2.4,0.6-3.5c-0.1-0.7-0.2-1.5-0.5-2.1
		c-0.2-0.5-0.4-1-0.5-1.5c-0.2-0.7-0.2-1.3-0.2-2c1.2,0.2,2.3-0.2,3.4-0.6c0.4-0.1,0.8-0.3,1.2-0.4c0.2-0.1,1-0.3,1-0.6
		c0-0.2-1.2-0.8-1.5-1c-0.8-0.5-1.7-0.7-2.7-0.7c-0.5,0-1,0.1-1.5,0.2c-0.1,0-0.5,0.1-0.6,0.1c0,0-0.1-0.2-0.1-0.2
		c0-0.1-0.2-0.2-0.2-0.3c0-0.1,0.2-0.3,0.3-0.4c0.1-0.2,0.3-0.4,0.4-0.5c0.6-0.7,1.1-1.4,1.6-2.2c0.2-0.4,0.7-0.8,0.8-1.2
		c0.1-0.5-0.3-0.7-0.7-0.5c-0.8,0.4-1.3,1-2.2,1.3c-0.4,0.1-0.8,0.2-1.2,0.3c-0.3,0.1-0.5,0.2-0.7,0.3c-0.1,0-0.2,0.2-0.3,0.2
		c-0.1,0-0.4-0.3-0.4-0.3c-0.2-0.1-0.5-0.3-0.6-0.5c-0.2,0-0.2-0.1-0.1-0.2l0.1-0.1c0.1-0.2,0.1-0.3,0.2-0.5
		c0.1-0.3,0.2-0.5,0.3-0.8c0.3-0.9,0.6-1.8,0.9-2.7c1-2.6,1.9-5.2,2.8-7.8c0.3-1,3.4-10.4,2.2-10.6c-0.5-0.1-1.1,1.7-1.2,2
		c-0.2,0.4-0.4,0.9-0.6,1.3c-0.3,0.7-0.6,1.4-0.9,2.1c-0.3,0.6-0.6,1.2-0.8,1.8c-0.3,0.3-0.6,1.1-0.7,1.5c-0.4,0.9-0.8,1.8-1.1,2.7
		c0,0,0,0,0-0.1c-0.7,1.3-1.2,2.8-1.8,4.1c-0.4,0.8-0.7,1.5-1.1,2.3c-0.5,0.9-0.9,1.8-1.3,2.7c0,0,0,0,0,0c-0.1,0.2-0.1,0.3-0.2,0.5
		c-0.1,0.2,0,0.2-0.3,0.1c-0.5-0.1-1-0.3-1.5-0.4c-0.7-0.2-1.4-0.3-2.1-0.6c-1-0.3-2-0.8-2.9-1.3c-0.7-0.4-1.5-0.7-2.2-1.1
		c-1.1-0.7-2.2-1.3-3.3-1.8c-1.3-0.6-3.2-1-4.5-0.4c-1,0.5-2.1,1.8-1.8,3c0.2,0.6,0.3,1,0.4,1.6c0.1,0.8,0.3,1.4,1.1,1.7
		c0.6,0.2,1.3,0.4,2,0.5c0.3,0,0.6,0.1,0.9,0.1c0.2,0.1,0.3,0.3,0.5,0.5c1,1.1,1.9,2.4,2.7,3.6c0.7,1,1.3,2,1.5,3.2
		c0.2,1,0.4,2,0.8,2.9c0.2,0.4,0.4,0.8,0.6,1.1c0.2,0.3,0.4,0.7,0.7,0.8c-0.7,0.4-1.5,0.8-2.2,0.9c-1.6,0.3-3.2,0.5-4.9,0.6
		c-1.9,0.1-3.7,0.4-5.5,0.7c-0.4,0.1-2.4,0.4-4.7,0.8c-2.4,0.4-5.1,0.9-6.7,1.3C113.6,87.3,113.5,87.3,113.3,87.4z"/>
	<path class="st1" d="M162.4,156.5l0.1,0c0.1,0,0.3-0.1,0.4-0.1c0.2-0.1,0.4-0.1,0.6-0.2c0.7-0.2,1.4-0.5,2.1-0.7
		c2.1-0.7,4.2-1.3,6.2-2c0.8-0.3,8.2-2.9,7.7-3.7c-0.2-0.4-1.6,0.1-1.8,0.2c-0.4,0.1-0.7,0.2-1.1,0.3c-0.6,0.1-1.2,0.3-1.8,0.4
		c-0.5,0.1-1.1,0.2-1.5,0.4c-0.3-0.1-1,0.2-1.3,0.3c-0.8,0.2-1.5,0.4-2.3,0.6c0,0,0,0,0,0c-1.2,0.2-2.3,0.6-3.5,0.8
		c-0.6,0.1-1.3,0.3-1.9,0.4c-0.8,0.1-1.6,0.3-2.4,0.5c0,0,0,0,0,0c-0.1,0-0.3,0.1-0.4,0.1c-0.2,0-0.1,0-0.2-0.1
		c-0.2-0.4-0.3-0.8-0.5-1.2c-0.2-0.5-0.5-1-0.7-1.6c-0.3-0.8-0.5-1.6-0.6-2.5c-0.1-0.6-0.3-1.3-0.4-1.9c-0.1-1-0.2-2-0.5-3
		c-0.3-1.1-0.9-2.5-2-3c-0.8-0.4-2.1-0.5-2.8,0.4c-0.3,0.4-0.5,0.7-0.8,1c-0.5,0.4-0.7,0.9-0.5,1.5c0.2,0.5,0.4,1,0.6,1.5
		c0.1,0.2,0.3,0.4,0.3,0.6c0.1,0.2,0,0.3-0.1,0.5c-0.2,1.2-0.6,2.3-1,3.4c-0.3,0.9-0.6,1.7-1.3,2.4c-0.5,0.6-1.1,1.2-1.4,1.9
		c-0.1,0.3-0.3,0.6-0.4,0.9c-0.1,0.2-0.3,0.6-0.2,0.8c-0.6-0.2-1.2-0.6-1.7-1c-1-0.8-1.9-1.8-2.7-2.8c-1-1.1-2-2.1-3.1-3.1
		c-0.3-0.3-2.6-2.5-4.6-4.3c2.3-13,0.7-26.3-4.3-38.3c-0.1,0.1-0.2,0.2-0.3,0.4c-0.5,0.6-2.2,3.7-3.6,5.5
		c5.6,16.4,4.5,35.1-4.6,51.4c-17,30.6-55.8,41.5-86.3,24.5s-41.5-55.8-24.5-86.3C21,88.6,32.2,79.1,45,73.9c0.8-2.7,1.5-5.3,2-6.9
		C31.3,72.3,17.5,83.2,8.8,98.8c-18.6,33.3-6.6,75.6,26.7,94.2s75.6,6.6,94.2-26.7c0.4-0.8,0.9-1.6,1.3-2.4c0.7-0.1,1.2-0.1,1.5-0.1
		c1.1,0,2.1,0.2,3.1,0.5c0.6,0.2,1.2,0.4,1.8,0.7c0.9,0.4,1.8,0.7,2.8,1.1c0.3,0.1,0.6,0.1,0.9,0.2c0.1,0,0.2,0.1,0.3,0.2
		c0.3,0.2,0.6,0.4,1,0.6c0.8,0.3,1.7,0.3,2.6,0.3c0.3,0,0.6,0.2,0.9,0.3c0.2,0.1,0.5,0.1,0.7,0.2c0.9,0.2,1.8,0.4,2.8,0.3
		c0.8-0.1,1.7-0.4,2.5-0.8c0.2-0.1,0.4,0,0.7,0c0.3,0,0.5,0.1,0.8,0.1c0.5,0,0.9-0.1,1.3-0.2c0.9-0.3,1.8-0.7,2.5-1.3
		c0.4-0.4,0.8-0.8,1.1-1.3c0.2-0.4,0.5-0.7,0.7-1.1c0.3-0.4,0.7-0.8,1.2-1.1c0.4,0.8,1.3,1.3,2,1.8c0.3,0.2,0.6,0.4,0.9,0.5
		c0.1,0.1,0.7,0.5,0.8,0.4c0.1-0.1-0.1-1.2-0.1-1.4c-0.1-0.8-0.4-1.4-0.9-2c-0.2-0.3-0.6-0.6-0.9-0.8c-0.1-0.1-0.3-0.2-0.3-0.3
		c0,0,0.1-0.2,0.1-0.1c0-0.1,0.1-0.2,0.1-0.3c0.1-0.1,0.3,0,0.4,0c0.2,0,0.4,0,0.5,0c0.7,0,1.4,0.1,2.1,0c0.4,0,0.8,0.1,1.2-0.1
		c0.4-0.2,0.3-0.6-0.1-0.7c-0.6-0.3-1.3-0.3-1.8-0.8c-0.3-0.2-0.5-0.4-0.8-0.6c-0.2-0.1-0.4-0.2-0.6-0.3c-0.1,0-0.2,0-0.3-0.1
		c0,0,0-0.4,0-0.4c0-0.2-0.1-0.5,0-0.6C162.3,156.5,162.3,156.4,162.4,156.5z"/>
</g>
</svg>
